<?xml version="1.0"?>
<Project_Data Version="8.00">
<Project_Settings>
<ProfileName>MP4 with Smart Player (up to 1080p)</ProfileName>
<ProjectWidth>1280</ProjectWidth>
<ProjectHeight>720</ProjectHeight>
<IsCustomProject>0</IsCustomProject>
<SavedProjectSettings>1</SavedProjectSettings>
<LastFlashTemplate>-1</LastFlashTemplate>
</Project_Settings>


<AutoSaveFile>C:\Users\auto1\AppData\Local\TechSmith\Camtasia Studio\8.0\Auto-Saves\audio-edit6913680.autosave.camproj</AutoSaveFile>

<ProjectID>897992A1-BC25-4E04-820F-7E1A2A739647</ProjectID>

<PowerPointProject>0</PowerPointProject>

<PowerPointFilename></PowerPointFilename>


<Project_Notes>
</Project_Notes>

<Project_MetaData>
<Project_MetaData_Object>
<FieldArrayKey>8</FieldArrayKey>
<Value>audio-edit</Value>
</Project_MetaData_Object>
<Project_MetaData_Object>
<FieldArrayKey>13</FieldArrayKey>
<Value>2024-08-27 07:29:16 PM</Value>
</Project_MetaData_Object>
<Project_MetaData_Object>
<FieldArrayKey>16</FieldArrayKey>
<Value>ENU</Value>
</Project_MetaData_Object>
</Project_MetaData>

<CSMLData>
<GoProject id="1" version="3.0" >
 <Project id="2" editRate="30/1" version="3.0" >
  <Author></Author>
  <Comment></Comment>
  <System></System>
  <SourceBin id="3"  >
    <Source id="4" src="C:\ProgramData\TechSmith\Camtasia Studio\Library 2.0\Group_2024-08-27_192850\Syntax-Locked vs Syntax-Free_ Script - Airtable - Google Chrome - 12 August 2024.mp4" lastMod="20240813T025938" rect="(0,0,1920,1080)" >
      <SourceTrack range="(0,3104666667)" type="0" editRate="10000000/1" trackRect="(0,0,1920,1080)" sampleRate="10000000/333371" bitDepth="24" numChannels="0" filename="" metaData="" />
      <SourceTrack range="(0,3104666667)" type="2" editRate="10000000/1" trackRect="(0,0,0,0)" sampleRate="44100/1" bitDepth="16" numChannels="1" filename="" metaData="" />
    </Source>
    <Source id="5" src="C:\ProgramData\TechSmith\Camtasia Studio\Library 2.0\Group_2024-08-27_192850\2-Charlie.png" lastMod="20240824T215352" rect="(0,0,1024,1024)" >
      <SourceTrack range="(0,1)" type="1" editRate="10000000/1" trackRect="(0,0,1024,1024)" sampleRate="0/1" bitDepth="32" numChannels="0" filename="" metaData="" />
    </Source>
    <Source id="6" src="C:\ProgramData\TechSmith\Camtasia Studio\Library 2.0\Group_2024-08-27_192850\01. - English prompt - Clean - no responses.mp4" lastMod="20240825T190421" rect="(0,0,1920,1080)" >
      <SourceTrack range="(0,423333333)" type="0" editRate="10000000/1" trackRect="(0,0,1920,1080)" sampleRate="5000000/166753" bitDepth="24" numChannels="0" filename="" metaData="" />
      <SourceTrack range="(0,423333333)" type="2" editRate="10000000/1" trackRect="(0,0,0,0)" sampleRate="44100/1" bitDepth="16" numChannels="1" filename="" metaData="" />
    </Source>
    <Source id="7" src="C:\ProgramData\TechSmith\Camtasia Studio\Library 2.0\Group_2024-08-27_192850\02. English Response.mp4" lastMod="20240825T190445" rect="(0,0,1920,1080)" >
      <SourceTrack range="(0,71333333)" type="0" editRate="10000000/1" trackRect="(0,0,1920,1080)" sampleRate="10000000/335071" bitDepth="24" numChannels="0" filename="" metaData="" />
      <SourceTrack range="(0,71333333)" type="2" editRate="10000000/1" trackRect="(0,0,0,0)" sampleRate="44100/1" bitDepth="16" numChannels="1" filename="" metaData="" />
    </Source>
    <Source id="8" src="C:\ProgramData\TechSmith\Camtasia Studio\Library 2.0\Group_2024-08-27_192850\03. Finding all the Charlies + Charlie as actually... (cut off).mp4" lastMod="20240825T190453" rect="(0,0,1920,1080)" >
      <SourceTrack range="(0,219666667)" type="0" editRate="10000000/1" trackRect="(0,0,1920,1080)" sampleRate="5000000/166831" bitDepth="24" numChannels="0" filename="" metaData="" />
      <SourceTrack range="(0,219666667)" type="2" editRate="10000000/1" trackRect="(0,0,0,0)" sampleRate="44100/1" bitDepth="16" numChannels="1" filename="" metaData="" />
    </Source>
    <Source id="9" src="C:\ProgramData\TechSmith\Camtasia Studio\Library 2.0\Group_2024-08-27_192850\04. Charlie is crispy Prompt and response - english.mp4" lastMod="20240825T190501" rect="(0,0,1920,1080)" >
      <SourceTrack range="(0,256666667)" type="0" editRate="10000000/1" trackRect="(0,0,1920,1080)" sampleRate="10000000/333433" bitDepth="24" numChannels="0" filename="" metaData="" />
      <SourceTrack range="(0,256666667)" type="2" editRate="10000000/1" trackRect="(0,0,0,0)" sampleRate="44100/1" bitDepth="16" numChannels="1" filename="" metaData="" />
    </Source>
    <Source id="10" src="C:\ProgramData\TechSmith\Camtasia Studio\Library 2.0\Group_2024-08-27_192850\5-6. No - hes still puffy, his NAME is now Crispy.mp4" lastMod="20240825T190513" rect="(0,0,1920,1080)" >
      <SourceTrack range="(0,408333333)" type="0" editRate="10000000/1" trackRect="(0,0,1920,1080)" sampleRate="10000000/333513" bitDepth="24" numChannels="0" filename="" metaData="" />
      <SourceTrack range="(0,408333333)" type="2" editRate="10000000/1" trackRect="(0,0,0,0)" sampleRate="44100/1" bitDepth="16" numChannels="1" filename="" metaData="" />
    </Source>
    <Source id="11" src="C:\ProgramData\TechSmith\Camtasia Studio\Library 2.0\Group_2024-08-27_192850\07. 2 full pages of text.mp4" lastMod="20240825T190519" rect="(0,0,1920,1080)" >
      <SourceTrack range="(0,169333333)" type="0" editRate="10000000/1" trackRect="(0,0,1920,1080)" sampleRate="5000000/169559" bitDepth="24" numChannels="0" filename="" metaData="" />
      <SourceTrack range="(0,169333333)" type="2" editRate="10000000/1" trackRect="(0,0,0,0)" sampleRate="48000/1" bitDepth="16" numChannels="1" filename="" metaData="" />
    </Source>
    <Source id="12" src="C:\ProgramData\TechSmith\Camtasia Studio\Library 2.0\Group_2024-08-27_192850\08. Not a description - JSON response.mp4" lastMod="20240825T190525" rect="(0,0,1920,1080)" >
      <SourceTrack range="(0,823333333)" type="0" editRate="10000000/1" trackRect="(0,0,1920,1080)" sampleRate="10000000/337283" bitDepth="24" numChannels="0" filename="" metaData="" />
      <SourceTrack range="(0,823333333)" type="2" editRate="10000000/1" trackRect="(0,0,0,0)" sampleRate="48000/1" bitDepth="16" numChannels="1" filename="" metaData="" />
    </Source>
    <Source id="13" src="C:\ProgramData\TechSmith\Camtasia Studio\Library 2.0\Group_2024-08-27_192850\09. CHarlie is crispy - JSON .mp4" lastMod="20240825T190532" rect="(0,0,1920,1080)" >
      <SourceTrack range="(0,373000000)" type="0" editRate="10000000/1" trackRect="(0,0,1920,1080)" sampleRate="5000000/168201" bitDepth="24" numChannels="0" filename="" metaData="" />
      <SourceTrack range="(0,373000000)" type="2" editRate="10000000/1" trackRect="(0,0,0,0)" sampleRate="48000/1" bitDepth="16" numChannels="1" filename="" metaData="" />
    </Source>
    <Source id="14" src="C:\ProgramData\TechSmith\Camtasia Studio\Library 2.0\Group_2024-08-27_192850\10. JSON mistake.mp4" lastMod="20240825T190541" rect="(0,0,1920,1080)" >
      <SourceTrack range="(0,663000000)" type="0" editRate="10000000/1" trackRect="(0,0,1920,1080)" sampleRate="1250000/42221" bitDepth="24" numChannels="0" filename="" metaData="" />
      <SourceTrack range="(0,663000000)" type="2" editRate="10000000/1" trackRect="(0,0,0,0)" sampleRate="48000/1" bitDepth="16" numChannels="1" filename="" metaData="" />
    </Source>
    <Source id="15" src="C:\ProgramData\TechSmith\Camtasia Studio\Library 2.0\Group_2024-08-27_192850\11. This is the game.  Ready to describe..mp4" lastMod="20240825T190548" rect="(0,0,1920,1080)" >
      <SourceTrack range="(0,569000000)" type="0" editRate="10000000/1" trackRect="(0,0,1920,1080)" sampleRate="1250000/41683" bitDepth="24" numChannels="0" filename="" metaData="" />
      <SourceTrack range="(0,569000000)" type="2" editRate="10000000/1" trackRect="(0,0,0,0)" sampleRate="44100/1" bitDepth="16" numChannels="1" filename="" metaData="" />
    </Source>
    <Source id="16" src="C:\ProgramData\TechSmith\Camtasia Studio\Library 2.0\Group_2024-08-27_192850\12. Punchline.mp4" lastMod="20240825T190554" rect="(0,0,1920,1080)" >
      <SourceTrack range="(0,984000000)" type="0" editRate="10000000/1" trackRect="(0,0,1920,1080)" sampleRate="10000000/333373" bitDepth="24" numChannels="0" filename="" metaData="" />
      <SourceTrack range="(0,984000000)" type="2" editRate="10000000/1" trackRect="(0,0,0,0)" sampleRate="44100/1" bitDepth="16" numChannels="1" filename="" metaData="" />
    </Source>
    <Source id="17" src="C:\ProgramData\TechSmith\Camtasia Studio\Library 2.0\Group_2024-08-27_192850\13. Highlighting camp before correction.mp4" lastMod="20240825T190603" rect="(0,0,1920,1080)" >
      <SourceTrack range="(0,396000000)" type="0" editRate="10000000/1" trackRect="(0,0,1920,1080)" sampleRate="2500000/86853" bitDepth="24" numChannels="0" filename="" metaData="" />
      <SourceTrack range="(0,396000000)" type="2" editRate="10000000/1" trackRect="(0,0,0,0)" sampleRate="48000/1" bitDepth="16" numChannels="1" filename="" metaData="" />
    </Source>
    <Source id="18" src="C:\ProgramData\TechSmith\Camtasia Studio\Library 2.0\Group_2024-08-27_192850\7-vw-bus.png" lastMod="20240813T211331" rect="(0,0,1024,1024)" >
      <SourceTrack range="(0,1)" type="1" editRate="10000000/1" trackRect="(0,0,1024,1024)" sampleRate="0/1" bitDepth="32" numChannels="0" filename="" metaData="" />
    </Source>
    <Source id="19" src="C:\ProgramData\TechSmith\Camtasia Studio\Library 2.0\Group_2024-08-27_192850\5-Crispy.png" lastMod="20240824T222143" rect="(0,0,1024,1024)" >
      <SourceTrack range="(0,1)" type="1" editRate="10000000/1" trackRect="(0,0,1024,1024)" sampleRate="0/1" bitDepth="32" numChannels="0" filename="" metaData="" />
    </Source>
    <Source id="20" src="C:\ProgramData\TechSmith\Camtasia Studio\Library 2.0\Group_2024-08-27_192850\3-Crispy.png" lastMod="20240813T211933" rect="(0,0,1024,1024)" >
      <SourceTrack range="(0,1)" type="1" editRate="10000000/1" trackRect="(0,0,1024,1024)" sampleRate="0/1" bitDepth="32" numChannels="0" filename="" metaData="" />
    </Source>
    <Source id="21" src="C:\syntax-free-research\CloudyDemo\Videos\charlie-crispy-demo-16\charlie-crispy-demo-16.mp4" lastMod="20240826T163044" rect="(0,0,1280,720)" >
      <SourceTrack range="(0,2984000000)" type="0" editRate="10000000/1" trackRect="(0,0,1280,720)" sampleRate="10000000/333333" bitDepth="24" numChannels="0" filename="" metaData="" />
      <SourceTrack range="(0,2984000000)" type="2" editRate="10000000/1" trackRect="(0,0,0,0)" sampleRate="44100/1" bitDepth="16" numChannels="2" filename="" metaData="" />
    </Source>
    <Source id="22" src="C:\syntax-free-research\CloudyDemo\Videos\Full script v5 (mp3cut.net).m4a" lastMod="20240828T001936" rect="(0,0,0,0)" >
      <SourceTrack range="(0,4856000000)" type="2" editRate="10000000/1" trackRect="(0,0,0,0)" sampleRate="44100/1" bitDepth="16" numChannels="1" filename="" metaData="" />
    </Source>
    <Source id="23" src="C:\syntax-free-research\CloudyDemo\Marshmallow Madness\1-Roast-And-Toast-Game.png" lastMod="20240828T003854" rect="(0,0,1024,1024)" >
      <SourceTrack range="(0,1)" type="1" editRate="10000000/1" trackRect="(0,0,1024,1024)" sampleRate="0/1" bitDepth="32" numChannels="0" filename="" metaData="" />
    </Source>
    <Source id="24" src="C:\syntax-free-research\CloudyDemo\Marshmallow Madness\cloudy-landing-page.png" lastMod="20240828T154255" rect="(0,0,1874,1006)" >
      <SourceTrack range="(0,1)" type="1" editRate="10000000/1" trackRect="(0,0,1874,1006)" sampleRate="0/1" bitDepth="32" numChannels="0" filename="" metaData="" />
    </Source>
    <Source id="25" src="C:\syntax-free-research\CloudyDemo\Videos\Ancient Greek, take 3.m4a" lastMod="20240828T161849" rect="(0,0,0,0)" >
      <SourceTrack range="(0,129000000)" type="2" editRate="10000000/1" trackRect="(0,0,0,0)" sampleRate="48000/1" bitDepth="16" numChannels="1" filename="" metaData="" />
    </Source>
    <Source id="26" src="C:\syntax-free-research\CloudyDemo\Videos\Ancient Greek take 4.m4a" lastMod="20240828T162244" rect="(0,0,0,0)" >
      <SourceTrack range="(0,45333333)" type="2" editRate="10000000/1" trackRect="(0,0,0,0)" sampleRate="48000/1" bitDepth="16" numChannels="1" filename="" metaData="" />
    </Source>
  </SourceBin>
  <Timeline id="27"  >
   <Attributes>
    <Attribute id="28" value="1280" name="width"/>
    <Attribute id="29" value="720" name="height"/>
    <Attribute id="30" value="(0,0,0,255)" name="backgroundColor"/>
   </Attributes>
    <GenericMixer id="31"  name="Unified Mixer">
     <MetaData>
      <entry key="MixerType" val="TimelineMixer"/>
     </MetaData>
     <Tracks>
      <GenericTrack id="32"  >
       <Attributes>
        <Attribute id="33" value="" name="ident"/>
        <Attribute id="34" value="0" name="audioMuted"/>
        <Attribute id="35" value="0" name="videoHidden"/>
       </Attributes>
       <MetaData>
        <entry key="IsLocked" val="False"/>
        <entry key="WinTrackHeight" val="62"/>
       </MetaData>
       <Medias>
        <UnifiedMedia id="36"  >
         <AMFile id="37" start="6" duration="288" scalar="1/1" mediaStart="0/1" mediaDuration="288/1" trackNumber="1" src="21" channelNumber="0,1" >
          <Parameters>
           <InterpolatingParam id="38" interp="linr"  name="volume">
            <Keyframes>
            <Keyframe id="39"  time="-1/1" value="1" leadInLength="0/1"  />
            <Keyframe id="40"  time="0/1" value="0" leadInLength="0/1"  />
            <Keyframe id="41"  time="8952/1" value="0" leadInLength="0/1"  />
            <Keyframe id="42"  time="8953/1" value="1" leadInLength="0/1"  />
            </Keyframes>
           </InterpolatingParam>
           <Parameter id="43"  name="captions"/>
          </Parameters>
          <Attributes>
           <Attribute id="44" value="" name="ident"/>
           <Attribute id="45" value="44100" name="sampleRate"/>
           <Attribute id="46" value="16" name="bitDepth"/>
           <Attribute id="47" value="1" name="gain"/>
           <Attribute id="48" value="0" name="mixToMono"/>
          </Attributes>
         </AMFile>
         <VMFile id="49" start="6" duration="288" scalar="1/1" mediaStart="0/1" mediaDuration="288/1" trackNumber="0" src="21" >
          <Transformer>
           <VectorParam id="50"  name="translation">
            <InterpolatingParam id="51" interp="linr"  time="-9999999/1" value="-13.492063492043858" leadInLength="0/1"  />
            <InterpolatingParam id="52" interp="linr"  time="-9999999/1" value="-28.839285714807907" leadInLength="0/1"  />
            <InterpolatingParam id="53" interp="linr"  time="-9999999/1" value="0" leadInLength="0/1"  />
           </VectorParam>
           <VectorParam id="54"  name="rotation">
            <InterpolatingParam id="55" interp="linr"  time="-9999999/1" value="0" leadInLength="0/1"  />
            <InterpolatingParam id="56" interp="linr"  time="-9999999/1" value="0" leadInLength="0/1"  />
            <InterpolatingParam id="57" interp="linr"  time="-9999999/1" value="0" leadInLength="0/1"  />
           </VectorParam>
           <VectorParam id="58"  name="shear">
            <InterpolatingParam id="59" interp="linr"  time="-9999999/1" value="0" leadInLength="0/1"  />
            <InterpolatingParam id="60" interp="linr"  time="-9999999/1" value="0" leadInLength="0/1"  />
            <InterpolatingParam id="61" interp="linr"  time="-9999999/1" value="0" leadInLength="0/1"  />
           </VectorParam>
           <VectorParam id="62"  name="scale">
            <InterpolatingParam id="63" interp="linr"  time="-9999999/1" value="1.3692956349208234" leadInLength="0/1"  />
            <InterpolatingParam id="64" interp="linr"  time="-9999999/1" value="1.3692956349208234" leadInLength="0/1"  />
            <InterpolatingParam id="65" interp="linr"  time="-9999999/1" value="1" leadInLength="0/1"  />
           </VectorParam>
           <VectorParam id="66"  name="anchor">
            <InterpolatingParam id="67" interp="linr"  time="0/1" value="0" leadInLength="0/1"  />
            <InterpolatingParam id="68" interp="linr"  time="0/1" value="0" leadInLength="0/1"  />
            <InterpolatingParam id="69" interp="linr"  time="0/1" value="0" leadInLength="0/1"  />
           </VectorParam>
          </Transformer>
          <Parameters>
           <VectorParam id="70"  name="sourceCrop">
            <InterpolatingParam id="71" interp="linr"  time="0/1" value="0" leadInLength="0/1"  />
            <InterpolatingParam id="72" interp="linr"  time="0/1" value="0" leadInLength="0/1"  />
            <InterpolatingParam id="73" interp="linr"  time="0/1" value="0" leadInLength="0/1"  />
            <InterpolatingParam id="74" interp="linr"  time="0/1" value="0" leadInLength="0/1"  />
           </VectorParam>
           <VectorParam id="75"  name="geometryCrop">
            <InterpolatingParam id="76" interp="linr"  time="-9999999/1" value="0" leadInLength="0/1"  />
            <InterpolatingParam id="77" interp="linr"  time="-9999999/1" value="0" leadInLength="0/1"  />
            <InterpolatingParam id="78" interp="linr"  time="-9999999/1" value="0" leadInLength="0/1"  />
            <InterpolatingParam id="79" interp="linr"  time="-9999999/1" value="0" leadInLength="0/1"  />
           </VectorParam>
           <InterpolatingParam id="80" interp="linr"  time="-9999999/1" value="1" leadInLength="0/1"  name="opacity"/>
          </Parameters>
          <Attributes>
           <Attribute id="81" value="" name="ident"/>
          </Attributes>
          <ExtraData>
           <Entry key="ZoomPanBin">
            <ZoomPanBin id="82"  >
             <ZoomPanKeyframes>
              <ZoomPanKeyframe id="83" timeRangeEnd="-9999999/1" timeRangeDuration="0/1" interpolaterName="linr"  />
             </ZoomPanKeyframes>
            </ZoomPanBin>
           </Entry>
          </ExtraData>
         </VMFile>
         <MetaData>
          <entry key="WinSubProjectDisplayName" val=""/>
         </MetaData>
        </UnifiedMedia>
        <UnifiedMedia id="84"  >
         <AudioTransition id="85" start="450" duration="44" >
          <Parameters>
           <InterpolatingParam id="86" interp="linr"  time="0/1" value="1" leadInLength="0/1"  name="volume"/>
           <Parameter id="87"  name="captions"/>
          </Parameters>
          <Effects>
           <GenericEffect id="88" name = "AudioTransition" >
            <Parameters>
            <Parameter id="89"   name="audioEdgeModType">
             <Keyframes>
             <Keyframe id="90"  time="0/1" value="0" leadInLength="0/1"  />
             </Keyframes>
            </Parameter>
            <Parameter id="91"   name="audioTransitionType">
             <Keyframes>
             <Keyframe id="92"  time="0/1" value="" leadInLength="0/1"  />
             </Keyframes>
            </Parameter>
            </Parameters>
            <MetaData>
            </MetaData>
           </GenericEffect>
          </Effects>
          <Attributes>
           <Attribute id="93" value="" name="ident"/>
           <Attribute id="94" value="0" name="sampleRate"/>
           <Attribute id="95" value="0" name="bitDepth"/>
           <Attribute id="96" value="1" name="gain"/>
           <Attribute id="97" value="0" name="mixToMono"/>
          </Attributes>
         </AudioTransition>
         <ImageTransition id="98" start="450" duration="44" >
          <Transformer>
           <VectorParam id="99"  name="translation">
            <InterpolatingParam id="100" interp="linr"  time="0/1" value="0" leadInLength="0/1"  />
            <InterpolatingParam id="101" interp="linr"  time="0/1" value="0" leadInLength="0/1"  />
            <InterpolatingParam id="102" interp="linr"  time="0/1" value="0" leadInLength="0/1"  />
           </VectorParam>
           <VectorParam id="103"  name="rotation">
            <InterpolatingParam id="104" interp="linr"  time="0/1" value="0" leadInLength="0/1"  />
            <InterpolatingParam id="105" interp="linr"  time="0/1" value="0" leadInLength="0/1"  />
            <InterpolatingParam id="106" interp="linr"  time="0/1" value="0" leadInLength="0/1"  />
           </VectorParam>
           <VectorParam id="107"  name="shear">
            <InterpolatingParam id="108" interp="linr"  time="0/1" value="0" leadInLength="0/1"  />
            <InterpolatingParam id="109" interp="linr"  time="0/1" value="0" leadInLength="0/1"  />
            <InterpolatingParam id="110" interp="linr"  time="0/1" value="0" leadInLength="0/1"  />
           </VectorParam>
           <VectorParam id="111"  name="scale">
            <InterpolatingParam id="112" interp="linr"  time="0/1" value="1" leadInLength="0/1"  />
            <InterpolatingParam id="113" interp="linr"  time="0/1" value="1" leadInLength="0/1"  />
            <InterpolatingParam id="114" interp="linr"  time="0/1" value="1" leadInLength="0/1"  />
           </VectorParam>
           <VectorParam id="115"  name="anchor">
            <InterpolatingParam id="116" interp="linr"  time="0/1" value="0" leadInLength="0/1"  />
            <InterpolatingParam id="117" interp="linr"  time="0/1" value="0" leadInLength="0/1"  />
            <InterpolatingParam id="118" interp="linr"  time="0/1" value="0" leadInLength="0/1"  />
           </VectorParam>
          </Transformer>
          <Parameters>
           <VectorParam id="119"  name="sourceCrop">
            <InterpolatingParam id="120" interp="linr"  time="0/1" value="0" leadInLength="0/1"  />
            <InterpolatingParam id="121" interp="linr"  time="0/1" value="0" leadInLength="0/1"  />
            <InterpolatingParam id="122" interp="linr"  time="0/1" value="0" leadInLength="0/1"  />
            <InterpolatingParam id="123" interp="linr"  time="0/1" value="0" leadInLength="0/1"  />
           </VectorParam>
           <VectorParam id="124"  name="geometryCrop">
            <InterpolatingParam id="125" interp="linr"  time="0/1" value="0" leadInLength="0/1"  />
            <InterpolatingParam id="126" interp="linr"  time="0/1" value="0" leadInLength="0/1"  />
            <InterpolatingParam id="127" interp="linr"  time="0/1" value="0" leadInLength="0/1"  />
            <InterpolatingParam id="128" interp="linr"  time="0/1" value="0" leadInLength="0/1"  />
           </VectorParam>
           <InterpolatingParam id="129" interp="linr"  time="0/1" value="1" leadInLength="0/1"  name="opacity"/>
          </Parameters>
          <Effects>
           <GenericEffect id="130" name = "VisualTransition" >
            <Parameters>
            <InterpolatingParam id="131" interp="linr"  time="0/1" value="0.5" leadInLength="0/1"   name="leftFramePercentage"/>
            <InterpolatingParam id="132" interp="linr"  time="0/1" value="0.5" leadInLength="0/1"   name="rightFramePercentage"/>
            <Parameter id="133"   name="visualEdgeModType">
             <Keyframes>
             <Keyframe id="134"  time="0/1" value="1" leadInLength="0/1"  />
             </Keyframes>
            </Parameter>
            <Parameter id="135"   name="visualTransitionType">
             <Keyframes>
             <Keyframe id="136"  time="0/1" value="RandomDissolve" leadInLength="0/1"  />
             </Keyframes>
            </Parameter>
            </Parameters>
            <MetaData>
            </MetaData>
           </GenericEffect>
          </Effects>
          <Attributes>
           <Attribute id="137" value="" name="ident"/>
          </Attributes>
          <ExtraData>
           <Entry key="ZoomPanBin">
            <ZoomPanBin id="138"  >
             <ZoomPanKeyframes>
             </ZoomPanKeyframes>
            </ZoomPanBin>
           </Entry>
          </ExtraData>
         </ImageTransition>
         <MetaData>
          <entry key="WinSubProjectDisplayName" val=""/>
         </MetaData>
        </UnifiedMedia>
        <IMFile id="139" start="494" duration="975" scalar="1/1" mediaStart="0/1" mediaDuration="1/1" trackNumber="0" src="24" trimStartSum="-8/1" >
         <Transformer>
          <VectorParam id="140"  name="translation">
           <InterpolatingParam id="141" interp="linr"  >
            <Keyframes>
            <Keyframe id="142"  time="-9999999/1" value="-4.7594150842652701e-011" leadInLength="0/1"  />
            <Keyframe id="143"  time="142/1" value="167.71109699396141" leadInLength="64/1"  interpolater="leadin-linr"  />
            <Keyframe id="144"  time="562/1" value="-171.90446224566008" leadInLength="38/1"  interpolater="leadin-linr"  />
            <Keyframe id="145"  time="897/1" value="-1.4428014338818683e-011" leadInLength="30/1"  interpolater="leadin-linr"  />
            </Keyframes>
           </InterpolatingParam>
           <InterpolatingParam id="146" interp="linr"  >
            <Keyframes>
            <Keyframe id="147"  time="-9999999/1" value="16.435432230515286" leadInLength="0/1"  />
            <Keyframe id="148"  time="142/1" value="-73.595178002159855" leadInLength="64/1"  interpolater="leadin-linr"  />
            <Keyframe id="149"  time="562/1" value="-75.846258815031106" leadInLength="38/1"  interpolater="leadin-linr"  />
            <Keyframe id="150"  time="897/1" value="16.43543223051249" leadInLength="30/1"  interpolater="leadin-linr"  />
            </Keyframes>
           </InterpolatingParam>
           <InterpolatingParam id="151" interp="linr"  >
            <Keyframes>
            <Keyframe id="152"  time="-9999999/1" value="0" leadInLength="0/1"  />
            <Keyframe id="153"  time="142/1" value="0" leadInLength="64/1"  interpolater="leadin-linr"  />
            <Keyframe id="154"  time="562/1" value="0" leadInLength="38/1"  interpolater="leadin-linr"  />
            <Keyframe id="155"  time="897/1" value="0" leadInLength="30/1"  interpolater="leadin-linr"  />
            </Keyframes>
           </InterpolatingParam>
          </VectorParam>
          <VectorParam id="156"  name="rotation">
           <InterpolatingParam id="157" interp="linr"  >
            <Keyframes>
            <Keyframe id="158"  time="-9999999/1" value="0" leadInLength="0/1"  />
            <Keyframe id="159"  time="142/1" value="0" leadInLength="64/1"  interpolater="leadin-linr"  />
            <Keyframe id="160"  time="562/1" value="0" leadInLength="38/1"  interpolater="leadin-linr"  />
            <Keyframe id="161"  time="897/1" value="0" leadInLength="30/1"  interpolater="leadin-linr"  />
            </Keyframes>
           </InterpolatingParam>
           <InterpolatingParam id="162" interp="linr"  >
            <Keyframes>
            <Keyframe id="163"  time="-9999999/1" value="0" leadInLength="0/1"  />
            <Keyframe id="164"  time="142/1" value="0" leadInLength="64/1"  interpolater="leadin-linr"  />
            <Keyframe id="165"  time="562/1" value="0" leadInLength="38/1"  interpolater="leadin-linr"  />
            <Keyframe id="166"  time="897/1" value="0" leadInLength="30/1"  interpolater="leadin-linr"  />
            </Keyframes>
           </InterpolatingParam>
           <InterpolatingParam id="167" interp="linr"  >
            <Keyframes>
            <Keyframe id="168"  time="-9999999/1" value="0" leadInLength="0/1"  />
            <Keyframe id="169"  time="142/1" value="0" leadInLength="64/1"  interpolater="leadin-linr"  />
            <Keyframe id="170"  time="562/1" value="0" leadInLength="38/1"  interpolater="leadin-linr"  />
            <Keyframe id="171"  time="897/1" value="0" leadInLength="30/1"  interpolater="leadin-linr"  />
            </Keyframes>
           </InterpolatingParam>
          </VectorParam>
          <VectorParam id="172"  name="shear">
           <InterpolatingParam id="173" interp="linr"  >
            <Keyframes>
            <Keyframe id="174"  time="-9999999/1" value="0" leadInLength="0/1"  />
            <Keyframe id="175"  time="142/1" value="0" leadInLength="64/1"  interpolater="leadin-linr"  />
            <Keyframe id="176"  time="562/1" value="0" leadInLength="38/1"  interpolater="leadin-linr"  />
            <Keyframe id="177"  time="897/1" value="0" leadInLength="30/1"  interpolater="leadin-linr"  />
            </Keyframes>
           </InterpolatingParam>
           <InterpolatingParam id="178" interp="linr"  >
            <Keyframes>
            <Keyframe id="179"  time="-9999999/1" value="0" leadInLength="0/1"  />
            <Keyframe id="180"  time="142/1" value="0" leadInLength="64/1"  interpolater="leadin-linr"  />
            <Keyframe id="181"  time="562/1" value="0" leadInLength="38/1"  interpolater="leadin-linr"  />
            <Keyframe id="182"  time="897/1" value="0" leadInLength="30/1"  interpolater="leadin-linr"  />
            </Keyframes>
           </InterpolatingParam>
           <InterpolatingParam id="183" interp="linr"  >
            <Keyframes>
            <Keyframe id="184"  time="-9999999/1" value="0" leadInLength="0/1"  />
            <Keyframe id="185"  time="142/1" value="0" leadInLength="64/1"  interpolater="leadin-linr"  />
            <Keyframe id="186"  time="562/1" value="0" leadInLength="38/1"  interpolater="leadin-linr"  />
            <Keyframe id="187"  time="897/1" value="0" leadInLength="30/1"  interpolater="leadin-linr"  />
            </Keyframes>
           </InterpolatingParam>
          </VectorParam>
          <VectorParam id="188"  name="scale">
           <InterpolatingParam id="189" interp="linr"  >
            <Keyframes>
            <Keyframe id="190"  time="-9999999/1" value="0.68303094983981871" leadInLength="0/1"  />
            <Keyframe id="191"  time="142/1" value="0.86201824652508374" leadInLength="64/1"  interpolater="leadin-linr"  />
            <Keyframe id="192"  time="562/1" value="0.86649355629229541" leadInLength="38/1"  interpolater="leadin-linr"  />
            <Keyframe id="193"  time="897/1" value="0.68303094983993484" leadInLength="30/1"  interpolater="leadin-linr"  />
            </Keyframes>
           </InterpolatingParam>
           <InterpolatingParam id="194" interp="linr"  >
            <Keyframes>
            <Keyframe id="195"  time="-9999999/1" value="0.68303094983981882" leadInLength="0/1"  />
            <Keyframe id="196"  time="142/1" value="0.86201824652508341" leadInLength="64/1"  interpolater="leadin-linr"  />
            <Keyframe id="197"  time="562/1" value="0.86649355629229374" leadInLength="38/1"  interpolater="leadin-linr"  />
            <Keyframe id="198"  time="897/1" value="0.68303094983993518" leadInLength="30/1"  interpolater="leadin-linr"  />
            </Keyframes>
           </InterpolatingParam>
           <InterpolatingParam id="199" interp="linr"  >
            <Keyframes>
            <Keyframe id="200"  time="-9999999/1" value="0.99999999999999933" leadInLength="0/1"  />
            <Keyframe id="201"  time="142/1" value="0.99999999999999956" leadInLength="64/1"  interpolater="leadin-linr"  />
            <Keyframe id="202"  time="562/1" value="0.99999999999999845" leadInLength="38/1"  interpolater="leadin-linr"  />
            <Keyframe id="203"  time="897/1" value="0.99999999999999933" leadInLength="30/1"  interpolater="leadin-linr"  />
            </Keyframes>
           </InterpolatingParam>
          </VectorParam>
          <VectorParam id="204"  name="anchor">
           <InterpolatingParam id="205" interp="linr"  time="0/1" value="0" leadInLength="0/1"  />
           <InterpolatingParam id="206" interp="linr"  time="0/1" value="0" leadInLength="0/1"  />
           <InterpolatingParam id="207" interp="linr"  time="0/1" value="0" leadInLength="0/1"  />
          </VectorParam>
         </Transformer>
         <Parameters>
          <VectorParam id="208"  name="sourceCrop">
           <InterpolatingParam id="209" interp="linr"  time="0/1" value="0" leadInLength="0/1"  />
           <InterpolatingParam id="210" interp="linr"  time="0/1" value="0" leadInLength="0/1"  />
           <InterpolatingParam id="211" interp="linr"  time="0/1" value="0" leadInLength="0/1"  />
           <InterpolatingParam id="212" interp="linr"  time="0/1" value="0" leadInLength="0/1"  />
          </VectorParam>
          <VectorParam id="213"  name="geometryCrop">
           <InterpolatingParam id="214" interp="linr"  >
            <Keyframes>
            <Keyframe id="215"  time="-9999999/1" value="0" leadInLength="0/1"  />
            <Keyframe id="216"  time="142/1" value="0" leadInLength="64/1"  interpolater="leadin-linr"  />
            <Keyframe id="217"  time="562/1" value="0" leadInLength="38/1"  interpolater="leadin-linr"  />
            <Keyframe id="218"  time="897/1" value="0" leadInLength="30/1"  interpolater="leadin-linr"  />
            </Keyframes>
           </InterpolatingParam>
           <InterpolatingParam id="219" interp="linr"  >
            <Keyframes>
            <Keyframe id="220"  time="-9999999/1" value="0" leadInLength="0/1"  />
            <Keyframe id="221"  time="142/1" value="0" leadInLength="64/1"  interpolater="leadin-linr"  />
            <Keyframe id="222"  time="562/1" value="0" leadInLength="38/1"  interpolater="leadin-linr"  />
            <Keyframe id="223"  time="897/1" value="0" leadInLength="30/1"  interpolater="leadin-linr"  />
            </Keyframes>
           </InterpolatingParam>
           <InterpolatingParam id="224" interp="linr"  >
            <Keyframes>
            <Keyframe id="225"  time="-9999999/1" value="0" leadInLength="0/1"  />
            <Keyframe id="226"  time="142/1" value="0" leadInLength="64/1"  interpolater="leadin-linr"  />
            <Keyframe id="227"  time="562/1" value="0" leadInLength="38/1"  interpolater="leadin-linr"  />
            <Keyframe id="228"  time="897/1" value="0" leadInLength="30/1"  interpolater="leadin-linr"  />
            </Keyframes>
           </InterpolatingParam>
           <InterpolatingParam id="229" interp="linr"  >
            <Keyframes>
            <Keyframe id="230"  time="-9999999/1" value="0" leadInLength="0/1"  />
            <Keyframe id="231"  time="142/1" value="0" leadInLength="64/1"  interpolater="leadin-linr"  />
            <Keyframe id="232"  time="562/1" value="0" leadInLength="38/1"  interpolater="leadin-linr"  />
            <Keyframe id="233"  time="897/1" value="0" leadInLength="30/1"  interpolater="leadin-linr"  />
            </Keyframes>
           </InterpolatingParam>
          </VectorParam>
          <InterpolatingParam id="234" interp="linr"  name="opacity">
           <Keyframes>
           <Keyframe id="235"  time="-9999999/1" value="1" leadInLength="0/1"  />
           <Keyframe id="236"  time="142/1" value="1" leadInLength="64/1"  interpolater="leadin-linr"  />
           <Keyframe id="237"  time="562/1" value="1" leadInLength="38/1"  interpolater="leadin-linr"  />
           <Keyframe id="238"  time="897/1" value="1" leadInLength="30/1"  interpolater="leadin-linr"  />
           </Keyframes>
          </InterpolatingParam>
         </Parameters>
         <Attributes>
          <Attribute id="239" value="" name="ident"/>
         </Attributes>
         <MetaData>
          <entry key="WinSubProjectDisplayName" val=""/>
         </MetaData>
         <ExtraData>
          <Entry key="ZoomPanBin">
           <ZoomPanBin id="240"  >
            <ZoomPanKeyframes>
             <ZoomPanKeyframe id="241" timeRangeEnd="-9999999/1" timeRangeDuration="0/1" interpolaterName="linr"  />
             <ZoomPanKeyframe id="242" timeRangeEnd="562/1" timeRangeDuration="38/1" interpolaterName="linr"  />
             <ZoomPanKeyframe id="243" timeRangeEnd="142/1" timeRangeDuration="64/1" interpolaterName="linr"  />
             <ZoomPanKeyframe id="244" timeRangeEnd="897/1" timeRangeDuration="30/1" interpolaterName="linr"  />
            </ZoomPanKeyframes>
           </ZoomPanBin>
          </Entry>
         </ExtraData>
        </IMFile>
        <UnifiedMedia id="245"  >
         <AMFile id="246" start="1469" duration="68" scalar="1/1" mediaStart="1463/1" mediaDuration="68/1" trackNumber="1" src="21" channelNumber="0,1" >
          <Parameters>
           <InterpolatingParam id="247" interp="linr"  name="volume">
            <Keyframes>
            <Keyframe id="248"  time="-1/1" value="1" leadInLength="0/1"  />
            <Keyframe id="249"  time="0/1" value="0" leadInLength="0/1"  />
            <Keyframe id="250"  time="8952/1" value="0" leadInLength="0/1"  />
            <Keyframe id="251"  time="8953/1" value="1" leadInLength="0/1"  />
            </Keyframes>
           </InterpolatingParam>
           <Parameter id="252"  name="captions"/>
          </Parameters>
          <Attributes>
           <Attribute id="253" value="" name="ident"/>
           <Attribute id="254" value="44100" name="sampleRate"/>
           <Attribute id="255" value="16" name="bitDepth"/>
           <Attribute id="256" value="1" name="gain"/>
           <Attribute id="257" value="0" name="mixToMono"/>
          </Attributes>
         </AMFile>
         <VMFile id="258" start="1469" duration="68" scalar="1/1" mediaStart="1463/1" mediaDuration="68/1" trackNumber="0" src="21" >
          <Transformer>
           <VectorParam id="259"  name="translation">
            <InterpolatingParam id="260" interp="linr"  time="-9999999/1" value="0" leadInLength="0/1"  />
            <InterpolatingParam id="261" interp="linr"  time="-9999999/1" value="0" leadInLength="0/1"  />
            <InterpolatingParam id="262" interp="linr"  time="-9999999/1" value="0" leadInLength="0/1"  />
           </VectorParam>
           <VectorParam id="263"  name="rotation">
            <InterpolatingParam id="264" interp="linr"  time="-9999999/1" value="0" leadInLength="0/1"  />
            <InterpolatingParam id="265" interp="linr"  time="-9999999/1" value="0" leadInLength="0/1"  />
            <InterpolatingParam id="266" interp="linr"  time="-9999999/1" value="0" leadInLength="0/1"  />
           </VectorParam>
           <VectorParam id="267"  name="shear">
            <InterpolatingParam id="268" interp="linr"  time="-9999999/1" value="0" leadInLength="0/1"  />
            <InterpolatingParam id="269" interp="linr"  time="-9999999/1" value="0" leadInLength="0/1"  />
            <InterpolatingParam id="270" interp="linr"  time="-9999999/1" value="0" leadInLength="0/1"  />
           </VectorParam>
           <VectorParam id="271"  name="scale">
            <InterpolatingParam id="272" interp="linr"  time="-9999999/1" value="1" leadInLength="0/1"  />
            <InterpolatingParam id="273" interp="linr"  time="-9999999/1" value="1" leadInLength="0/1"  />
            <InterpolatingParam id="274" interp="linr"  time="-9999999/1" value="1" leadInLength="0/1"  />
           </VectorParam>
           <VectorParam id="275"  name="anchor">
            <InterpolatingParam id="276" interp="linr"  time="0/1" value="0" leadInLength="0/1"  />
            <InterpolatingParam id="277" interp="linr"  time="0/1" value="0" leadInLength="0/1"  />
            <InterpolatingParam id="278" interp="linr"  time="0/1" value="0" leadInLength="0/1"  />
           </VectorParam>
          </Transformer>
          <Parameters>
           <VectorParam id="279"  name="sourceCrop">
            <InterpolatingParam id="280" interp="linr"  time="0/1" value="0" leadInLength="0/1"  />
            <InterpolatingParam id="281" interp="linr"  time="0/1" value="0" leadInLength="0/1"  />
            <InterpolatingParam id="282" interp="linr"  time="0/1" value="0" leadInLength="0/1"  />
            <InterpolatingParam id="283" interp="linr"  time="0/1" value="0" leadInLength="0/1"  />
           </VectorParam>
           <VectorParam id="284"  name="geometryCrop">
            <InterpolatingParam id="285" interp="linr"  time="-9999999/1" value="0" leadInLength="0/1"  />
            <InterpolatingParam id="286" interp="linr"  time="-9999999/1" value="0" leadInLength="0/1"  />
            <InterpolatingParam id="287" interp="linr"  time="-9999999/1" value="0" leadInLength="0/1"  />
            <InterpolatingParam id="288" interp="linr"  time="-9999999/1" value="0" leadInLength="0/1"  />
           </VectorParam>
           <InterpolatingParam id="289" interp="linr"  time="-9999999/1" value="1" leadInLength="0/1"  name="opacity"/>
          </Parameters>
          <Attributes>
           <Attribute id="290" value="" name="ident"/>
          </Attributes>
          <ExtraData>
           <Entry key="ZoomPanBin">
            <ZoomPanBin id="291"  >
             <ZoomPanKeyframes>
              <ZoomPanKeyframe id="292" timeRangeEnd="-9999999/1" timeRangeDuration="0/1" interpolaterName="linr"  />
             </ZoomPanKeyframes>
            </ZoomPanBin>
           </Entry>
          </ExtraData>
         </VMFile>
         <MetaData>
          <entry key="WinSubProjectDisplayName" val=""/>
         </MetaData>
        </UnifiedMedia>
        <UnifiedMedia id="293"  >
         <AMFile id="294" start="1537" duration="34" scalar="1/1" mediaStart="1531/1" mediaDuration="34/1" trackNumber="1" src="21" channelNumber="0,1" >
          <Parameters>
           <InterpolatingParam id="295" interp="linr"  name="volume">
            <Keyframes>
            <Keyframe id="296"  time="-1/1" value="1" leadInLength="0/1"  />
            <Keyframe id="297"  time="0/1" value="0" leadInLength="0/1"  />
            <Keyframe id="298"  time="8952/1" value="0" leadInLength="0/1"  />
            <Keyframe id="299"  time="8953/1" value="1" leadInLength="0/1"  />
            </Keyframes>
           </InterpolatingParam>
           <Parameter id="300"  name="captions"/>
          </Parameters>
          <Attributes>
           <Attribute id="301" value="" name="ident"/>
           <Attribute id="302" value="44100" name="sampleRate"/>
           <Attribute id="303" value="16" name="bitDepth"/>
           <Attribute id="304" value="1" name="gain"/>
           <Attribute id="305" value="0" name="mixToMono"/>
          </Attributes>
         </AMFile>
         <VMFile id="306" start="1537" duration="34" scalar="1/1" mediaStart="1531/1" mediaDuration="34/1" trackNumber="0" src="21" >
          <Transformer>
           <VectorParam id="307"  name="translation">
            <InterpolatingParam id="308" interp="linr"  time="-9999999/1" value="0" leadInLength="0/1"  />
            <InterpolatingParam id="309" interp="linr"  time="-9999999/1" value="0" leadInLength="0/1"  />
            <InterpolatingParam id="310" interp="linr"  time="-9999999/1" value="0" leadInLength="0/1"  />
           </VectorParam>
           <VectorParam id="311"  name="rotation">
            <InterpolatingParam id="312" interp="linr"  time="-9999999/1" value="0" leadInLength="0/1"  />
            <InterpolatingParam id="313" interp="linr"  time="-9999999/1" value="0" leadInLength="0/1"  />
            <InterpolatingParam id="314" interp="linr"  time="-9999999/1" value="0" leadInLength="0/1"  />
           </VectorParam>
           <VectorParam id="315"  name="shear">
            <InterpolatingParam id="316" interp="linr"  time="-9999999/1" value="0" leadInLength="0/1"  />
            <InterpolatingParam id="317" interp="linr"  time="-9999999/1" value="0" leadInLength="0/1"  />
            <InterpolatingParam id="318" interp="linr"  time="-9999999/1" value="0" leadInLength="0/1"  />
           </VectorParam>
           <VectorParam id="319"  name="scale">
            <InterpolatingParam id="320" interp="linr"  time="-9999999/1" value="1" leadInLength="0/1"  />
            <InterpolatingParam id="321" interp="linr"  time="-9999999/1" value="1" leadInLength="0/1"  />
            <InterpolatingParam id="322" interp="linr"  time="-9999999/1" value="1" leadInLength="0/1"  />
           </VectorParam>
           <VectorParam id="323"  name="anchor">
            <InterpolatingParam id="324" interp="linr"  time="0/1" value="0" leadInLength="0/1"  />
            <InterpolatingParam id="325" interp="linr"  time="0/1" value="0" leadInLength="0/1"  />
            <InterpolatingParam id="326" interp="linr"  time="0/1" value="0" leadInLength="0/1"  />
           </VectorParam>
          </Transformer>
          <Parameters>
           <VectorParam id="327"  name="sourceCrop">
            <InterpolatingParam id="328" interp="linr"  time="0/1" value="0" leadInLength="0/1"  />
            <InterpolatingParam id="329" interp="linr"  time="0/1" value="0" leadInLength="0/1"  />
            <InterpolatingParam id="330" interp="linr"  time="0/1" value="0" leadInLength="0/1"  />
            <InterpolatingParam id="331" interp="linr"  time="0/1" value="0" leadInLength="0/1"  />
           </VectorParam>
           <VectorParam id="332"  name="geometryCrop">
            <InterpolatingParam id="333" interp="linr"  time="-9999999/1" value="0" leadInLength="0/1"  />
            <InterpolatingParam id="334" interp="linr"  time="-9999999/1" value="0" leadInLength="0/1"  />
            <InterpolatingParam id="335" interp="linr"  time="-9999999/1" value="0" leadInLength="0/1"  />
            <InterpolatingParam id="336" interp="linr"  time="-9999999/1" value="0" leadInLength="0/1"  />
           </VectorParam>
           <InterpolatingParam id="337" interp="linr"  time="-9999999/1" value="1" leadInLength="0/1"  name="opacity"/>
          </Parameters>
          <Attributes>
           <Attribute id="338" value="" name="ident"/>
          </Attributes>
          <ExtraData>
           <Entry key="ZoomPanBin">
            <ZoomPanBin id="339"  >
             <ZoomPanKeyframes>
              <ZoomPanKeyframe id="340" timeRangeEnd="-9999999/1" timeRangeDuration="0/1" interpolaterName="linr"  />
             </ZoomPanKeyframes>
            </ZoomPanBin>
           </Entry>
          </ExtraData>
         </VMFile>
         <MetaData>
          <entry key="WinSubProjectDisplayName" val=""/>
         </MetaData>
        </UnifiedMedia>
        <UnifiedMedia id="341"  >
         <AMFile id="342" start="1571" duration="70" scalar="1/1" mediaStart="1652/1" mediaDuration="70/1" trackNumber="1" src="21" channelNumber="0,1" >
          <Parameters>
           <InterpolatingParam id="343" interp="linr"  name="volume">
            <Keyframes>
            <Keyframe id="344"  time="-1/1" value="1" leadInLength="0/1"  />
            <Keyframe id="345"  time="0/1" value="0" leadInLength="0/1"  />
            <Keyframe id="346"  time="8952/1" value="0" leadInLength="0/1"  />
            <Keyframe id="347"  time="8953/1" value="1" leadInLength="0/1"  />
            </Keyframes>
           </InterpolatingParam>
           <Parameter id="348"  name="captions"/>
          </Parameters>
          <Attributes>
           <Attribute id="349" value="" name="ident"/>
           <Attribute id="350" value="44100" name="sampleRate"/>
           <Attribute id="351" value="16" name="bitDepth"/>
           <Attribute id="352" value="1" name="gain"/>
           <Attribute id="353" value="0" name="mixToMono"/>
          </Attributes>
         </AMFile>
         <VMFile id="354" start="1571" duration="70" scalar="1/1" mediaStart="1652/1" mediaDuration="70/1" trackNumber="0" src="21" >
          <Transformer>
           <VectorParam id="355"  name="translation">
            <InterpolatingParam id="356" interp="linr"  time="-9999999/1" value="0" leadInLength="0/1"  />
            <InterpolatingParam id="357" interp="linr"  time="-9999999/1" value="0" leadInLength="0/1"  />
            <InterpolatingParam id="358" interp="linr"  time="-9999999/1" value="0" leadInLength="0/1"  />
           </VectorParam>
           <VectorParam id="359"  name="rotation">
            <InterpolatingParam id="360" interp="linr"  time="-9999999/1" value="0" leadInLength="0/1"  />
            <InterpolatingParam id="361" interp="linr"  time="-9999999/1" value="0" leadInLength="0/1"  />
            <InterpolatingParam id="362" interp="linr"  time="-9999999/1" value="0" leadInLength="0/1"  />
           </VectorParam>
           <VectorParam id="363"  name="shear">
            <InterpolatingParam id="364" interp="linr"  time="-9999999/1" value="0" leadInLength="0/1"  />
            <InterpolatingParam id="365" interp="linr"  time="-9999999/1" value="0" leadInLength="0/1"  />
            <InterpolatingParam id="366" interp="linr"  time="-9999999/1" value="0" leadInLength="0/1"  />
           </VectorParam>
           <VectorParam id="367"  name="scale">
            <InterpolatingParam id="368" interp="linr"  time="-9999999/1" value="1" leadInLength="0/1"  />
            <InterpolatingParam id="369" interp="linr"  time="-9999999/1" value="1" leadInLength="0/1"  />
            <InterpolatingParam id="370" interp="linr"  time="-9999999/1" value="1" leadInLength="0/1"  />
           </VectorParam>
           <VectorParam id="371"  name="anchor">
            <InterpolatingParam id="372" interp="linr"  time="0/1" value="0" leadInLength="0/1"  />
            <InterpolatingParam id="373" interp="linr"  time="0/1" value="0" leadInLength="0/1"  />
            <InterpolatingParam id="374" interp="linr"  time="0/1" value="0" leadInLength="0/1"  />
           </VectorParam>
          </Transformer>
          <Parameters>
           <VectorParam id="375"  name="sourceCrop">
            <InterpolatingParam id="376" interp="linr"  time="0/1" value="0" leadInLength="0/1"  />
            <InterpolatingParam id="377" interp="linr"  time="0/1" value="0" leadInLength="0/1"  />
            <InterpolatingParam id="378" interp="linr"  time="0/1" value="0" leadInLength="0/1"  />
            <InterpolatingParam id="379" interp="linr"  time="0/1" value="0" leadInLength="0/1"  />
           </VectorParam>
           <VectorParam id="380"  name="geometryCrop">
            <InterpolatingParam id="381" interp="linr"  time="-9999999/1" value="0" leadInLength="0/1"  />
            <InterpolatingParam id="382" interp="linr"  time="-9999999/1" value="0" leadInLength="0/1"  />
            <InterpolatingParam id="383" interp="linr"  time="-9999999/1" value="0" leadInLength="0/1"  />
            <InterpolatingParam id="384" interp="linr"  time="-9999999/1" value="0" leadInLength="0/1"  />
           </VectorParam>
           <InterpolatingParam id="385" interp="linr"  time="-9999999/1" value="1" leadInLength="0/1"  name="opacity"/>
          </Parameters>
          <Attributes>
           <Attribute id="386" value="" name="ident"/>
          </Attributes>
          <ExtraData>
           <Entry key="ZoomPanBin">
            <ZoomPanBin id="387"  >
             <ZoomPanKeyframes>
              <ZoomPanKeyframe id="388" timeRangeEnd="-9999999/1" timeRangeDuration="0/1" interpolaterName="linr"  />
             </ZoomPanKeyframes>
            </ZoomPanBin>
           </Entry>
          </ExtraData>
         </VMFile>
         <MetaData>
          <entry key="WinSubProjectDisplayName" val=""/>
         </MetaData>
        </UnifiedMedia>
        <UnifiedMedia id="389"  >
         <AMFile id="390" start="1641" duration="162" scalar="1/1" mediaStart="1780/1" mediaDuration="162/1" trackNumber="1" src="21" channelNumber="0,1" >
          <Parameters>
           <InterpolatingParam id="391" interp="linr"  name="volume">
            <Keyframes>
            <Keyframe id="392"  time="-1/1" value="1" leadInLength="0/1"  />
            <Keyframe id="393"  time="0/1" value="0" leadInLength="0/1"  />
            <Keyframe id="394"  time="8952/1" value="0" leadInLength="0/1"  />
            <Keyframe id="395"  time="8953/1" value="1" leadInLength="0/1"  />
            </Keyframes>
           </InterpolatingParam>
           <Parameter id="396"  name="captions"/>
          </Parameters>
          <Attributes>
           <Attribute id="397" value="" name="ident"/>
           <Attribute id="398" value="44100" name="sampleRate"/>
           <Attribute id="399" value="16" name="bitDepth"/>
           <Attribute id="400" value="1" name="gain"/>
           <Attribute id="401" value="0" name="mixToMono"/>
          </Attributes>
         </AMFile>
         <VMFile id="402" start="1641" duration="162" scalar="1/1" mediaStart="1780/1" mediaDuration="162/1" trackNumber="0" src="21" >
          <Transformer>
           <VectorParam id="403"  name="translation">
            <InterpolatingParam id="404" interp="linr"  time="-9999999/1" value="0" leadInLength="0/1"  />
            <InterpolatingParam id="405" interp="linr"  time="-9999999/1" value="0" leadInLength="0/1"  />
            <InterpolatingParam id="406" interp="linr"  time="-9999999/1" value="0" leadInLength="0/1"  />
           </VectorParam>
           <VectorParam id="407"  name="rotation">
            <InterpolatingParam id="408" interp="linr"  time="-9999999/1" value="0" leadInLength="0/1"  />
            <InterpolatingParam id="409" interp="linr"  time="-9999999/1" value="0" leadInLength="0/1"  />
            <InterpolatingParam id="410" interp="linr"  time="-9999999/1" value="0" leadInLength="0/1"  />
           </VectorParam>
           <VectorParam id="411"  name="shear">
            <InterpolatingParam id="412" interp="linr"  time="-9999999/1" value="0" leadInLength="0/1"  />
            <InterpolatingParam id="413" interp="linr"  time="-9999999/1" value="0" leadInLength="0/1"  />
            <InterpolatingParam id="414" interp="linr"  time="-9999999/1" value="0" leadInLength="0/1"  />
           </VectorParam>
           <VectorParam id="415"  name="scale">
            <InterpolatingParam id="416" interp="linr"  time="-9999999/1" value="1" leadInLength="0/1"  />
            <InterpolatingParam id="417" interp="linr"  time="-9999999/1" value="1" leadInLength="0/1"  />
            <InterpolatingParam id="418" interp="linr"  time="-9999999/1" value="1" leadInLength="0/1"  />
           </VectorParam>
           <VectorParam id="419"  name="anchor">
            <InterpolatingParam id="420" interp="linr"  time="0/1" value="0" leadInLength="0/1"  />
            <InterpolatingParam id="421" interp="linr"  time="0/1" value="0" leadInLength="0/1"  />
            <InterpolatingParam id="422" interp="linr"  time="0/1" value="0" leadInLength="0/1"  />
           </VectorParam>
          </Transformer>
          <Parameters>
           <VectorParam id="423"  name="sourceCrop">
            <InterpolatingParam id="424" interp="linr"  time="0/1" value="0" leadInLength="0/1"  />
            <InterpolatingParam id="425" interp="linr"  time="0/1" value="0" leadInLength="0/1"  />
            <InterpolatingParam id="426" interp="linr"  time="0/1" value="0" leadInLength="0/1"  />
            <InterpolatingParam id="427" interp="linr"  time="0/1" value="0" leadInLength="0/1"  />
           </VectorParam>
           <VectorParam id="428"  name="geometryCrop">
            <InterpolatingParam id="429" interp="linr"  time="-9999999/1" value="0" leadInLength="0/1"  />
            <InterpolatingParam id="430" interp="linr"  time="-9999999/1" value="0" leadInLength="0/1"  />
            <InterpolatingParam id="431" interp="linr"  time="-9999999/1" value="0" leadInLength="0/1"  />
            <InterpolatingParam id="432" interp="linr"  time="-9999999/1" value="0" leadInLength="0/1"  />
           </VectorParam>
           <InterpolatingParam id="433" interp="linr"  time="-9999999/1" value="1" leadInLength="0/1"  name="opacity"/>
          </Parameters>
          <Attributes>
           <Attribute id="434" value="" name="ident"/>
          </Attributes>
          <ExtraData>
           <Entry key="ZoomPanBin">
            <ZoomPanBin id="435"  >
             <ZoomPanKeyframes>
              <ZoomPanKeyframe id="436" timeRangeEnd="-9999999/1" timeRangeDuration="0/1" interpolaterName="linr"  />
             </ZoomPanKeyframes>
            </ZoomPanBin>
           </Entry>
          </ExtraData>
         </VMFile>
         <MetaData>
          <entry key="WinSubProjectDisplayName" val=""/>
         </MetaData>
        </UnifiedMedia>
        <UnifiedMedia id="437"  >
         <AMFile id="438" start="1803" duration="1036" scalar="1/1" mediaStart="1994/1" mediaDuration="1036/1" trackNumber="1" src="21" channelNumber="0,1" >
          <Parameters>
           <InterpolatingParam id="439" interp="linr"  name="volume">
            <Keyframes>
            <Keyframe id="440"  time="-1/1" value="1" leadInLength="0/1"  />
            <Keyframe id="441"  time="0/1" value="0" leadInLength="0/1"  />
            <Keyframe id="442"  time="8952/1" value="0" leadInLength="0/1"  />
            <Keyframe id="443"  time="8953/1" value="1" leadInLength="0/1"  />
            </Keyframes>
           </InterpolatingParam>
           <Parameter id="444"  name="captions"/>
          </Parameters>
          <Attributes>
           <Attribute id="445" value="" name="ident"/>
           <Attribute id="446" value="44100" name="sampleRate"/>
           <Attribute id="447" value="16" name="bitDepth"/>
           <Attribute id="448" value="1" name="gain"/>
           <Attribute id="449" value="0" name="mixToMono"/>
          </Attributes>
         </AMFile>
         <VMFile id="450" start="1803" duration="1036" scalar="1/1" mediaStart="1994/1" mediaDuration="1036/1" trackNumber="0" src="21" >
          <Transformer>
           <VectorParam id="451"  name="translation">
            <InterpolatingParam id="452" interp="linr"  time="-9999999/1" value="0" leadInLength="0/1"  />
            <InterpolatingParam id="453" interp="linr"  time="-9999999/1" value="0" leadInLength="0/1"  />
            <InterpolatingParam id="454" interp="linr"  time="-9999999/1" value="0" leadInLength="0/1"  />
           </VectorParam>
           <VectorParam id="455"  name="rotation">
            <InterpolatingParam id="456" interp="linr"  time="-9999999/1" value="0" leadInLength="0/1"  />
            <InterpolatingParam id="457" interp="linr"  time="-9999999/1" value="0" leadInLength="0/1"  />
            <InterpolatingParam id="458" interp="linr"  time="-9999999/1" value="0" leadInLength="0/1"  />
           </VectorParam>
           <VectorParam id="459"  name="shear">
            <InterpolatingParam id="460" interp="linr"  time="-9999999/1" value="0" leadInLength="0/1"  />
            <InterpolatingParam id="461" interp="linr"  time="-9999999/1" value="0" leadInLength="0/1"  />
            <InterpolatingParam id="462" interp="linr"  time="-9999999/1" value="0" leadInLength="0/1"  />
           </VectorParam>
           <VectorParam id="463"  name="scale">
            <InterpolatingParam id="464" interp="linr"  time="-9999999/1" value="1" leadInLength="0/1"  />
            <InterpolatingParam id="465" interp="linr"  time="-9999999/1" value="1" leadInLength="0/1"  />
            <InterpolatingParam id="466" interp="linr"  time="-9999999/1" value="1" leadInLength="0/1"  />
           </VectorParam>
           <VectorParam id="467"  name="anchor">
            <InterpolatingParam id="468" interp="linr"  time="0/1" value="0" leadInLength="0/1"  />
            <InterpolatingParam id="469" interp="linr"  time="0/1" value="0" leadInLength="0/1"  />
            <InterpolatingParam id="470" interp="linr"  time="0/1" value="0" leadInLength="0/1"  />
           </VectorParam>
          </Transformer>
          <Parameters>
           <VectorParam id="471"  name="sourceCrop">
            <InterpolatingParam id="472" interp="linr"  time="0/1" value="0" leadInLength="0/1"  />
            <InterpolatingParam id="473" interp="linr"  time="0/1" value="0" leadInLength="0/1"  />
            <InterpolatingParam id="474" interp="linr"  time="0/1" value="0" leadInLength="0/1"  />
            <InterpolatingParam id="475" interp="linr"  time="0/1" value="0" leadInLength="0/1"  />
           </VectorParam>
           <VectorParam id="476"  name="geometryCrop">
            <InterpolatingParam id="477" interp="linr"  time="-9999999/1" value="0" leadInLength="0/1"  />
            <InterpolatingParam id="478" interp="linr"  time="-9999999/1" value="0" leadInLength="0/1"  />
            <InterpolatingParam id="479" interp="linr"  time="-9999999/1" value="0" leadInLength="0/1"  />
            <InterpolatingParam id="480" interp="linr"  time="-9999999/1" value="0" leadInLength="0/1"  />
           </VectorParam>
           <InterpolatingParam id="481" interp="linr"  time="-9999999/1" value="1" leadInLength="0/1"  name="opacity"/>
          </Parameters>
          <Attributes>
           <Attribute id="482" value="" name="ident"/>
          </Attributes>
          <ExtraData>
           <Entry key="ZoomPanBin">
            <ZoomPanBin id="483"  >
             <ZoomPanKeyframes>
              <ZoomPanKeyframe id="484" timeRangeEnd="-9999999/1" timeRangeDuration="0/1" interpolaterName="linr"  />
             </ZoomPanKeyframes>
            </ZoomPanBin>
           </Entry>
          </ExtraData>
         </VMFile>
         <MetaData>
          <entry key="WinSubProjectDisplayName" val=""/>
         </MetaData>
        </UnifiedMedia>
        <UnifiedMedia id="485"  >
         <AMFile id="486" start="2839" duration="120" scalar="120/139" mediaStart="3030/1" mediaDuration="139/1" trackNumber="1" src="21" channelNumber="0,1" >
          <Parameters>
           <InterpolatingParam id="487" interp="linr"  name="volume">
            <Keyframes>
            <Keyframe id="488"  time="-1/1" value="1" leadInLength="0/1"  />
            <Keyframe id="489"  time="0/1" value="0" leadInLength="0/1"  />
            <Keyframe id="490"  time="8952/1" value="0" leadInLength="0/1"  />
            <Keyframe id="491"  time="8953/1" value="1" leadInLength="0/1"  />
            </Keyframes>
           </InterpolatingParam>
           <Parameter id="492"  name="captions"/>
          </Parameters>
          <Attributes>
           <Attribute id="493" value="" name="ident"/>
           <Attribute id="494" value="44100" name="sampleRate"/>
           <Attribute id="495" value="16" name="bitDepth"/>
           <Attribute id="496" value="1" name="gain"/>
           <Attribute id="497" value="0" name="mixToMono"/>
          </Attributes>
         </AMFile>
         <VMFile id="498" start="2839" duration="120" scalar="120/139" mediaStart="3030/1" mediaDuration="139/1" trackNumber="0" src="21" >
          <Transformer>
           <VectorParam id="499"  name="translation">
            <InterpolatingParam id="500" interp="linr"  time="-9999999/1" value="0" leadInLength="0/1"  />
            <InterpolatingParam id="501" interp="linr"  time="-9999999/1" value="0" leadInLength="0/1"  />
            <InterpolatingParam id="502" interp="linr"  time="-9999999/1" value="0" leadInLength="0/1"  />
           </VectorParam>
           <VectorParam id="503"  name="rotation">
            <InterpolatingParam id="504" interp="linr"  time="-9999999/1" value="0" leadInLength="0/1"  />
            <InterpolatingParam id="505" interp="linr"  time="-9999999/1" value="0" leadInLength="0/1"  />
            <InterpolatingParam id="506" interp="linr"  time="-9999999/1" value="0" leadInLength="0/1"  />
           </VectorParam>
           <VectorParam id="507"  name="shear">
            <InterpolatingParam id="508" interp="linr"  time="-9999999/1" value="0" leadInLength="0/1"  />
            <InterpolatingParam id="509" interp="linr"  time="-9999999/1" value="0" leadInLength="0/1"  />
            <InterpolatingParam id="510" interp="linr"  time="-9999999/1" value="0" leadInLength="0/1"  />
           </VectorParam>
           <VectorParam id="511"  name="scale">
            <InterpolatingParam id="512" interp="linr"  time="-9999999/1" value="1" leadInLength="0/1"  />
            <InterpolatingParam id="513" interp="linr"  time="-9999999/1" value="1" leadInLength="0/1"  />
            <InterpolatingParam id="514" interp="linr"  time="-9999999/1" value="1" leadInLength="0/1"  />
           </VectorParam>
           <VectorParam id="515"  name="anchor">
            <InterpolatingParam id="516" interp="linr"  time="0/1" value="0" leadInLength="0/1"  />
            <InterpolatingParam id="517" interp="linr"  time="0/1" value="0" leadInLength="0/1"  />
            <InterpolatingParam id="518" interp="linr"  time="0/1" value="0" leadInLength="0/1"  />
           </VectorParam>
          </Transformer>
          <Parameters>
           <VectorParam id="519"  name="sourceCrop">
            <InterpolatingParam id="520" interp="linr"  time="0/1" value="0" leadInLength="0/1"  />
            <InterpolatingParam id="521" interp="linr"  time="0/1" value="0" leadInLength="0/1"  />
            <InterpolatingParam id="522" interp="linr"  time="0/1" value="0" leadInLength="0/1"  />
            <InterpolatingParam id="523" interp="linr"  time="0/1" value="0" leadInLength="0/1"  />
           </VectorParam>
           <VectorParam id="524"  name="geometryCrop">
            <InterpolatingParam id="525" interp="linr"  time="-9999999/1" value="0" leadInLength="0/1"  />
            <InterpolatingParam id="526" interp="linr"  time="-9999999/1" value="0" leadInLength="0/1"  />
            <InterpolatingParam id="527" interp="linr"  time="-9999999/1" value="0" leadInLength="0/1"  />
            <InterpolatingParam id="528" interp="linr"  time="-9999999/1" value="0" leadInLength="0/1"  />
           </VectorParam>
           <InterpolatingParam id="529" interp="linr"  time="-9999999/1" value="1" leadInLength="0/1"  name="opacity"/>
          </Parameters>
          <Attributes>
           <Attribute id="530" value="" name="ident"/>
          </Attributes>
          <ExtraData>
           <Entry key="ZoomPanBin">
            <ZoomPanBin id="531"  >
             <ZoomPanKeyframes>
              <ZoomPanKeyframe id="532" timeRangeEnd="-9999999/1" timeRangeDuration="0/1" interpolaterName="linr"  />
             </ZoomPanKeyframes>
            </ZoomPanBin>
           </Entry>
          </ExtraData>
         </VMFile>
         <MetaData>
          <entry key="WinSubProjectDisplayName" val=""/>
         </MetaData>
        </UnifiedMedia>
        <UnifiedMedia id="533"  >
         <AMFile id="534" start="2959" duration="241" scalar="241/222" mediaStart="3169/1" mediaDuration="222/1" trackNumber="1" src="21" channelNumber="0,1" >
          <Parameters>
           <InterpolatingParam id="535" interp="linr"  name="volume">
            <Keyframes>
            <Keyframe id="536"  time="-1/1" value="1" leadInLength="0/1"  />
            <Keyframe id="537"  time="0/1" value="0" leadInLength="0/1"  />
            <Keyframe id="538"  time="8952/1" value="0" leadInLength="0/1"  />
            <Keyframe id="539"  time="8953/1" value="1" leadInLength="0/1"  />
            </Keyframes>
           </InterpolatingParam>
           <Parameter id="540"  name="captions"/>
          </Parameters>
          <Effects>
           <GenericEffect id="541" name = "WinCompression" >
            <Parameters>
            <InterpolatingParam id="542" interp="linr"  time="0/1" value="0" leadInLength="0/1"   name="attack"/>
            <InterpolatingParam id="543" interp="linr"  time="0/1" value="9" leadInLength="0/1"   name="gain"/>
            <Parameter id="544"   name="preset">
             <Keyframes>
             <Keyframe id="545"  time="0/1" value="1" leadInLength="0/1"  />
             </Keyframes>
            </Parameter>
            <InterpolatingParam id="546" interp="linr"  time="0/1" value="10" leadInLength="0/1"   name="ratio"/>
            <InterpolatingParam id="547" interp="linr"  time="0/1" value="3500" leadInLength="0/1"   name="release"/>
            <InterpolatingParam id="548" interp="linr"  time="0/1" value="-20" leadInLength="0/1"   name="threshold"/>
            </Parameters>
            <MetaData>
             <entry key="effectIndex" val="0"/>
            </MetaData>
           </GenericEffect>
           <GenericEffect id="549" name = "NoiseReduction" >
            <Parameters>
            <InterpolatingParam id="550" interp="linr"  time="0/1" value="20" leadInLength="0/1"   name="denoiserAmount"/>
            <InterpolatingParam id="551" interp="linr"  time="0/1" value="0" leadInLength="0/1"   name="denoiserThreshold"/>
            <Parameter id="552"   name="noiseProfile">
             <Keyframes>
             <Keyframe id="553"  time="0/1" value="FBAAAAIAAABErAAAAQIAAFtafcIfp0TCKUw4wk6jMsJFIUPCRTFFwnlQQMJ0CETCdhpJwqh6R8Jb&#xD;&#xa;KUvCfYdZwis2YsIga23C9ah5whVhgcLuQIjC1+6NwmJpj8LC8o/Cf4mIwmRYgMI8MX7C0RGCwk6F&#xD;&#xa;f8LwGoHCx72EwlAvi8IA9o7CZD2Rwg+8l8L9TKHCfmSlwq5ZosLO65jC6FKTwlV2kcICW5PCTSSY&#xD;&#xa;wq/lkcKQfY7Cv+uOwi6IisKRpoTCt1qFwgIvi8K7n4nC0h6LwovhjcJsso7CJryMwlbji8Jcqo/C&#xD;&#xa;5jqWwkkolML4sZbCzvqYwomvl8JGtpnCMD2YwtwZmcLWWpfCMD+dwk4hpcIUfqTCQLehwjZMm8K4&#xD;&#xa;D5rC5QiYwk3xmcIgzJfCVuSWwqHcmcLcLJ7CJLGlwoecp8J9cqXCJNaewoZpnsLVqZzCxRSZwlmE&#xD;&#xa;lcJ+Q47CWJqLwreIkcIEbJPCKUSLwlFyhMLZSIjCeliXwouBnsImtJfCxHeYwtD1mMLaiJjC0cyb&#xD;&#xa;wsqJoML5lJ/C4DOZwmaDk8IMNI/CXl2RwrmjksLjkpLCIqiXwlSDn8KzNp3CLiuZwsmvk8LA7I7C&#xD;&#xa;E0+UwtvBnsIisJ/CDtyawjp1mMJ1mJjCqbyUwo20lsLmFZ7CDCCWwhWbksJ4ZpjCGJedwjIOoMK6&#xD;&#xa;JJrCtoKTwkmHksLhn5LCEZ+SwoyHlMKSk5vCj3KcwlQVk8KG943CPjKLwjCkicLajY3CpNeTwke/&#xD;&#xa;mMIgvKTCSaWrwqVAqsI1sKHCa2qgwpsGpcLsOarCeaquwiTstcJWPq7COkmiwn9WnMLQ65/C8V6g&#xD;&#xa;wo6vncLs86DCJ8CkwlWOrMIhGanChN+pwiJtpsKoo6HCqfKfwsShosKn/KXCwtCuwiSGs8KdmLTC&#xD;&#xa;bbm1whQms8JWFLDCTFmvwvHVqcJXu6rCD0StwkyOqsKHUajCH7Oqwg7SosKQ25zCjQmgwnlyrMIE&#xD;&#xa;D7HCfvCxwgJBrMK2W6nCDWyswikursIYlLPCTCm5wteutcKsBLLCZ6ivwtifqcK8mKnCJu6twizH&#xD;&#xa;qcLIjqrCuiiywi+ZtsIb3K/CymCnwuyxqMJheazCsBSrwqhOr8IbMbXCFt21wnewrML2VqjCKMqp&#xD;&#xa;wq8br8IXlK7CmwywwsPot8J8VbnC+RSzwiTcrcKQPbDCi+OzwlgYtcLL9rLCmme4wj1Bt8KfT6zC&#xD;&#xa;vIWqwukwsMLn1K/C7/eywngmuMJmZsDC9hfGwr4ZzcKKY9DCoC3MwuZuyMJ7p8nCiIjMwnJ4x8LJ&#xD;&#xa;Z8XCiILHwv63x8Lk6cbC1oPCwvwywMKRN8XClEPJwjoIxsL2U8jCZnDMwp/yzsLecMjCfBrBwsAD&#xD;&#xa;wMKga8TC0G7Nwjr7z8LpGNDC4DPUwlj61MKtnc/CMsLPwqnwzcIrxcbCFnnIwqk/y8IGg8rCJkPH&#xD;&#xa;wjTmx8IHBcTCP6nGwoLnzMJia87CHMvRwuaE0sJQts3CCqDNwrPozsJKV9LCz2vUwkg00sK8ktDC&#xD;&#xa;ttvPwkWazcJ8U8nCCmvHwrayycK+EsnC2fXLwt8+0MLXUNXChd3TwvT7zsL2WtDCYnTOwgoSz8L4&#xD;&#xa;gNPC2gzVwuxGzsJ2hcTCHAe/wsyywsIa5czCpSDRwvoj1MLyHtPCVkLNwhnTzMJuN8bC7GPEwqBz&#xD;&#xa;x8Je583CrvbSwkRK0MKUDcjCJCDAwoAHvcIajrvCcIXAwvIeyMJOtMbC23bGwtrmzsIVBtbCzzrV&#xD;&#xa;wkvr1MKLh9PCRx7Wwh2V38KbYeDCQSDiwn+Z4MLHVNvCgH7Zwkx118I4+NXCSfvYwjSL18ILf9PC&#xD;&#xa;trPPwtqDz8JYXtHCpJ3JwmJoxsK0ycnC3f3LwnibyMIDMsfCKLDNwgLc08LXCtPCMiPQwnwUzcIZ&#xD;&#xa;asPC8InBwqyuxsKy38nCbAXKwhplyMLEEcbC0A/GwooRzsJ2wtbC6HbTws6HzcLciczCtmXJwkDz&#xD;&#xa;ysKbo87CHLbMwmJfyMLmOcfC1DPFwsByycKZF8nCfZbGwtyhx8JOO83CAj/JwmK7yMLeGM7Cz5DP&#xD;&#xa;wroSx8I2GMjCOBPJwgQixcKc6sjCBCTNwn2VycJI/MbCTFTGwtBRx8Ijt8jCGLfIwncgyMLQW8jC&#xD;&#xa;RjjKwsKCyML2IMjCqlrHwqfaxsJB0MbCwxvOwrMs0MJcnc3CnzbFwqCzwMLEaL7Chky/wj3KxcL8&#xD;&#xa;J8rCYu3Jwnw0y8LkUM7Cyj/LwkbTx8J0yMnCfpPQwqK82MIOm9nCArbawgE93MK6NOHCpZDdws13&#xD;&#xa;2MKgNNXCfcHUwsBm2cImPtrCLPzPwprKzcJrttTCpsjTwtc/x8KBvcTCiWbHwnq3x8JEPMPCdi/E&#xD;&#xa;wqEGysJYOc7CngXPwsYv0MLYncrCQDrEwqoVxML448TCVqbIwkoBx8JM3sjCRPXFwsqOycLSQ83C&#xD;&#xa;lDvMwqAuyMI1R8nCcnTLwqKpycLy4szCGHzMwnp0ycKccMjCsA/Iwr6sx8JylsrChCjIwmj/x8KG&#xD;&#xa;4s3CcHfPwrDDycIO+MrCb0DOwgRczcIWncjCjuHMwn5tysLnRMjCADXKwlzeysKl7MnCOEjLwm1t&#xD;&#xa;x8KnHMrCaITMwt5IzcJA28jC5jbKwlb6ycKKYMrCzu3Gwu8wxsKMYMTClR/HwjpwzsK1stHCWFjO&#xD;&#xa;woZByMJOvMXCbrLAwph4w8INnMjCBqXGwgSByMJtxMzCTILOwvr/ycJYzMnCKVjRwpgY28JWZdzC&#xD;&#xa;hEvTwloA0sKbKNTCqHbhwt1afcKpp0TCUUw4wkmjMsImIUPCojFFwo1QQMI9CETC0xpJwrh7R8I0&#xD;&#xa;KkvCOIlZwj46YsJLcW3Csad5wq5YgcJ6JIjCoOeNwjnKjsIb347C0zyIwkvHgML+0X/CXfeCwqjN&#xD;&#xa;gMLdwIHCR9mEwjmsi8JKb5DCWoyTwn5XmcLoEaHCYl+lwlEXosK6nZjC/VWTwjiEkcIgc5PCXFuY&#xD;&#xa;wrv+kcIgfI7CzeeOwjKBisIFpITC3FuFwhYri8KRmYnChxqLwoHljcL5447CdzqNwsKPjMJnP5DC&#xD;&#xa;L1yWwvAYlMJnoJbCtuuYwv6il8J5spnCPzuYwtkNmcLzVJfChECdwhMapcJ7hqTCyL6hwohSm8JA&#xD;&#xa;E5rCogmYwnTymcKcz5fCiOmWwsjdmcIiKZ7C15+lwg6Kp8LybaXCINGewspxnsJQsJzCzBmZwrGL&#xD;&#xa;lcJFRo7CE5iLwgx2kcKkPZPC0TyLwpBuhMIYRIjCtFiXwpZ9nsJ5q5fCdHCYwrj2mMK8jZjC88qb&#xD;&#xa;wpCPoMIGl5/CkDaZwox/k8JqKY/CjE+Rwu6mksLDn5LCr62Xwsh/n8ILNJ3CYD6Zwi62k8I2647C&#xD;&#xa;uk2UwuTPnsLuuZ/CadmawgN0mMJAlZjCZqqUwtGblsIl/53CSCSWwoGiksKcbZjCPaCdwokMoMKO&#xD;&#xa;I5rCmoKTwvaHksJYopLCWqiSwiqQlMLyopvCHXycwjQck8IIAI7CPDaLwi2licJti43CQNaTwlzC&#xD;&#xa;mMKjv6TCpJerwmw3qsKJp6HCOW+gwooTpcIiSqrCTbCuwrDZtcJsIa7CdjmiwqBUnMJr5Z/CGF2g&#xD;&#xa;wvKrncKS8aDCGsekwiairMJoK6nC/OSpwlZ2psJ2sKHCXPafwqGqosJEB6bCQ8WuwvZ3s8IYfbTC&#xD;&#xa;l6a1whLzssJ246/CYEuvwsXTqcJmvarCwkWtwq6LqsKpT6jCaaeqwo3aosJV3ZzCrA2gwsdmrMKD&#xD;&#xa;HLHCdBCywtBIrMKqV6nC3WyswhgyrsI3h7PCdVK5wuXatcJoLbLCoM6vwuOxqcIIjqnCXMitwg20&#xD;&#xa;qcLtg6rChB2ywqeKtsJK6q/CqWCnwpmzqMINhazCFRKrwmE+r8J+A7XCIrW1wqaorMLDVKjCOsWp&#xD;&#xa;wi4Vr8JOsK7Cuymwwtjht8K2ebnCCzKzwnzqrcJqTbDC7vizwgcdtcLP2LLCPVW4ws9ut8LnbqzC&#xD;&#xa;Vpuqws8gsMLGra/CJMCywncFuMKrn8DCgwHGwrROzMKpn8/CBlnMwneSyMLYjsnCpgzMwq4Ux8LQ&#xD;&#xa;L8XCyaTHwp6Sx8Lt18bCs37Cwh9NwMK6BsXC9DvJwmQyxsKbl8jCOiTNwlrazsIiYcjCdP/Awjba&#xD;&#xa;v8J0UMTC0BjNwkiKz8Jg7c/CPgnUwhwJ1cLED8/CfibPwrJmzcI3dcbCUCHIwuvRysIwmMrCGWbH&#xD;&#xa;wpasx8JW98PCHJPGwoeezMI4oc3CDz3RwsUu0sJwYs3CJBzNwo2ozsJEZtLCvFzUwrqn0sIjtNDC&#xD;&#xa;krDPwkzgzMKS7sjCQK/HwhgvysIqRsnCtAXMwt/Az8KMytTCZD/UwiyMz8KCWdDCFkrOwlNDz8Lc&#xD;&#xa;S9PCcqLUwuoyzsLuncTCHfO+wl2SwsItTszCHKjQwm7s08KfN9PCMrDNwkhEzcKgdcbCDsnEwpyk&#xD;&#xa;x8L42c3CVoPSwv/4z8J0AMjCxBrAwpkUvcKEk7vCZorAwrhUyMKlhsbC8S/Gwvp6zsJiwNXCUKzU&#xD;&#xa;widk1MLUe9PC0J7VwnYa38K8u+DCr1njwh4G4cIexdvComrZworu1sJs+NXCeUnZwsoB2MKA9tPC&#xD;&#xa;mDLQwhYE0MIootHCFOPJwnFkxsLxbcnCLgLMwo4HycI9JMfCClnNwv7M08JCJ9PCC1vQwmTbzMI+&#xD;&#xa;PMPCXIPBwgjgxsJXFMrCr0LKwmR4yML868XCQL/Fwor8zcKI69bCzgTTwqBpzcKeT8zCxHPJwvFq&#xD;&#xa;y8JEns7C9qnMwrabyMJrgMfCmmLFwkSPycLg5MjCxHTGwvC3x8J6Nc3Ciq3IwqliyMJqys3CNFfP&#xD;&#xa;wrjkxsLw88fCAv7IwlwJxcJMm8jCNFbNwpXXycK2IMfC9YzGwtZix8J21MjCXMrIwpJJyMJUZMjC&#xD;&#xa;KADKwupQyMKiCsjCSF7Hwli5xsImY8bCV8DNwuabz8JyLs3CHBjFwlyhwMLpL77CXSC/ws6dxcIg&#xD;&#xa;BcrCRfzJwroyy8K6HM/CXKLLwhC0x8I6scnCKtfQwgzL2cL1utnCQizawrLn28LkcODCKrvcwsJr&#xD;&#xa;2MLv0NXCAK7UwqwH2cJAYNnCSnnPwqCgzcLcz9TCruDTwt1xx8Kc2sTCOpzHwknQx8ICZsPCQeXD&#xD;&#xa;wnIBysJrYc7CnAzPwhYj0MJVRcrCLgPEwhsMxMIwO8XC79fIwo4vx8Jm0MjCnKXFwmYTycLtIM3C&#xD;&#xa;1S3Mwp/3x8JAU8nCNzHLwnZnycKKpMzCjU/MwsZ+ycI1cMjCPB3Iwuyyx8JVu8rCM2/IwvM9yMJq&#xD;&#xa;Ds7C7mnPwrGdycLm18rCWNbNwkgszcKDnsjCscrMwvxWysLoSsjCCoXKwoAiy8IRDsrC1DjLwkxX&#xD;&#xa;x8Jv/cnCP8LMwikmzcJeA8nCH3PKwlA7ysLCZcrCoCnHwuVjxsKhfcTCHI7HwqprzsISldHCOBTO&#xD;&#xa;wgzXx8LarMXCwLTAwk6lw8LtuMjCGJnGwqlcyMIUnMzCE7LOwnkMysKiy8nCEjHRwm2m2sLlZtzC&#xD;&#xa;MubTwiVq0sJEt9TCDu7h" leadInLength="0/1"  />
             </Keyframes>
            </Parameter>
            </Parameters>
            <MetaData>
             <entry key="effectIndex" val="1"/>
            </MetaData>
           </GenericEffect>
          </Effects>
          <Attributes>
           <Attribute id="554" value="" name="ident"/>
           <Attribute id="555" value="44100" name="sampleRate"/>
           <Attribute id="556" value="16" name="bitDepth"/>
           <Attribute id="557" value="1" name="gain"/>
           <Attribute id="558" value="1" name="mixToMono"/>
          </Attributes>
         </AMFile>
         <VMFile id="559" start="2959" duration="241" scalar="241/222" mediaStart="3169/1" mediaDuration="222/1" trackNumber="0" src="21" >
          <Transformer>
           <VectorParam id="560"  name="translation">
            <InterpolatingParam id="561" interp="linr"  time="-9999999/1" value="0" leadInLength="0/1"  />
            <InterpolatingParam id="562" interp="linr"  time="-9999999/1" value="0" leadInLength="0/1"  />
            <InterpolatingParam id="563" interp="linr"  time="-9999999/1" value="0" leadInLength="0/1"  />
           </VectorParam>
           <VectorParam id="564"  name="rotation">
            <InterpolatingParam id="565" interp="linr"  time="-9999999/1" value="0" leadInLength="0/1"  />
            <InterpolatingParam id="566" interp="linr"  time="-9999999/1" value="0" leadInLength="0/1"  />
            <InterpolatingParam id="567" interp="linr"  time="-9999999/1" value="0" leadInLength="0/1"  />
           </VectorParam>
           <VectorParam id="568"  name="shear">
            <InterpolatingParam id="569" interp="linr"  time="-9999999/1" value="0" leadInLength="0/1"  />
            <InterpolatingParam id="570" interp="linr"  time="-9999999/1" value="0" leadInLength="0/1"  />
            <InterpolatingParam id="571" interp="linr"  time="-9999999/1" value="0" leadInLength="0/1"  />
           </VectorParam>
           <VectorParam id="572"  name="scale">
            <InterpolatingParam id="573" interp="linr"  time="-9999999/1" value="1" leadInLength="0/1"  />
            <InterpolatingParam id="574" interp="linr"  time="-9999999/1" value="1" leadInLength="0/1"  />
            <InterpolatingParam id="575" interp="linr"  time="-9999999/1" value="1" leadInLength="0/1"  />
           </VectorParam>
           <VectorParam id="576"  name="anchor">
            <InterpolatingParam id="577" interp="linr"  time="0/1" value="0" leadInLength="0/1"  />
            <InterpolatingParam id="578" interp="linr"  time="0/1" value="0" leadInLength="0/1"  />
            <InterpolatingParam id="579" interp="linr"  time="0/1" value="0" leadInLength="0/1"  />
           </VectorParam>
          </Transformer>
          <Parameters>
           <VectorParam id="580"  name="sourceCrop">
            <InterpolatingParam id="581" interp="linr"  time="0/1" value="0" leadInLength="0/1"  />
            <InterpolatingParam id="582" interp="linr"  time="0/1" value="0" leadInLength="0/1"  />
            <InterpolatingParam id="583" interp="linr"  time="0/1" value="0" leadInLength="0/1"  />
            <InterpolatingParam id="584" interp="linr"  time="0/1" value="0" leadInLength="0/1"  />
           </VectorParam>
           <VectorParam id="585"  name="geometryCrop">
            <InterpolatingParam id="586" interp="linr"  time="-9999999/1" value="0" leadInLength="0/1"  />
            <InterpolatingParam id="587" interp="linr"  time="-9999999/1" value="0" leadInLength="0/1"  />
            <InterpolatingParam id="588" interp="linr"  time="-9999999/1" value="0" leadInLength="0/1"  />
            <InterpolatingParam id="589" interp="linr"  time="-9999999/1" value="0" leadInLength="0/1"  />
           </VectorParam>
           <InterpolatingParam id="590" interp="linr"  time="-9999999/1" value="1" leadInLength="0/1"  name="opacity"/>
          </Parameters>
          <Attributes>
           <Attribute id="591" value="" name="ident"/>
          </Attributes>
          <ExtraData>
           <Entry key="ZoomPanBin">
            <ZoomPanBin id="592"  >
             <ZoomPanKeyframes>
              <ZoomPanKeyframe id="593" timeRangeEnd="-9999999/1" timeRangeDuration="0/1" interpolaterName="linr"  />
             </ZoomPanKeyframes>
            </ZoomPanBin>
           </Entry>
          </ExtraData>
         </VMFile>
         <MetaData>
          <entry key="WinSubProjectDisplayName" val=""/>
         </MetaData>
        </UnifiedMedia>
        <UnifiedMedia id="594"  >
         <AMFile id="595" start="3200" duration="322" scalar="1/1" mediaStart="3391/1" mediaDuration="322/1" trackNumber="1" src="21" channelNumber="0,1" >
          <Parameters>
           <InterpolatingParam id="596" interp="linr"  name="volume">
            <Keyframes>
            <Keyframe id="597"  time="-1/1" value="1" leadInLength="0/1"  />
            <Keyframe id="598"  time="0/1" value="0" leadInLength="0/1"  />
            <Keyframe id="599"  time="8952/1" value="0" leadInLength="0/1"  />
            <Keyframe id="600"  time="8953/1" value="1" leadInLength="0/1"  />
            </Keyframes>
           </InterpolatingParam>
           <Parameter id="601"  name="captions"/>
          </Parameters>
          <Attributes>
           <Attribute id="602" value="" name="ident"/>
           <Attribute id="603" value="44100" name="sampleRate"/>
           <Attribute id="604" value="16" name="bitDepth"/>
           <Attribute id="605" value="1" name="gain"/>
           <Attribute id="606" value="0" name="mixToMono"/>
          </Attributes>
         </AMFile>
         <VMFile id="607" start="3200" duration="322" scalar="1/1" mediaStart="3391/1" mediaDuration="322/1" trackNumber="0" src="21" >
          <Transformer>
           <VectorParam id="608"  name="translation">
            <InterpolatingParam id="609" interp="linr"  time="-9999999/1" value="0" leadInLength="0/1"  />
            <InterpolatingParam id="610" interp="linr"  time="-9999999/1" value="0" leadInLength="0/1"  />
            <InterpolatingParam id="611" interp="linr"  time="-9999999/1" value="0" leadInLength="0/1"  />
           </VectorParam>
           <VectorParam id="612"  name="rotation">
            <InterpolatingParam id="613" interp="linr"  time="-9999999/1" value="0" leadInLength="0/1"  />
            <InterpolatingParam id="614" interp="linr"  time="-9999999/1" value="0" leadInLength="0/1"  />
            <InterpolatingParam id="615" interp="linr"  time="-9999999/1" value="0" leadInLength="0/1"  />
           </VectorParam>
           <VectorParam id="616"  name="shear">
            <InterpolatingParam id="617" interp="linr"  time="-9999999/1" value="0" leadInLength="0/1"  />
            <InterpolatingParam id="618" interp="linr"  time="-9999999/1" value="0" leadInLength="0/1"  />
            <InterpolatingParam id="619" interp="linr"  time="-9999999/1" value="0" leadInLength="0/1"  />
           </VectorParam>
           <VectorParam id="620"  name="scale">
            <InterpolatingParam id="621" interp="linr"  time="-9999999/1" value="1" leadInLength="0/1"  />
            <InterpolatingParam id="622" interp="linr"  time="-9999999/1" value="1" leadInLength="0/1"  />
            <InterpolatingParam id="623" interp="linr"  time="-9999999/1" value="1" leadInLength="0/1"  />
           </VectorParam>
           <VectorParam id="624"  name="anchor">
            <InterpolatingParam id="625" interp="linr"  time="0/1" value="0" leadInLength="0/1"  />
            <InterpolatingParam id="626" interp="linr"  time="0/1" value="0" leadInLength="0/1"  />
            <InterpolatingParam id="627" interp="linr"  time="0/1" value="0" leadInLength="0/1"  />
           </VectorParam>
          </Transformer>
          <Parameters>
           <VectorParam id="628"  name="sourceCrop">
            <InterpolatingParam id="629" interp="linr"  time="0/1" value="0" leadInLength="0/1"  />
            <InterpolatingParam id="630" interp="linr"  time="0/1" value="0" leadInLength="0/1"  />
            <InterpolatingParam id="631" interp="linr"  time="0/1" value="0" leadInLength="0/1"  />
            <InterpolatingParam id="632" interp="linr"  time="0/1" value="0" leadInLength="0/1"  />
           </VectorParam>
           <VectorParam id="633"  name="geometryCrop">
            <InterpolatingParam id="634" interp="linr"  time="-9999999/1" value="0" leadInLength="0/1"  />
            <InterpolatingParam id="635" interp="linr"  time="-9999999/1" value="0" leadInLength="0/1"  />
            <InterpolatingParam id="636" interp="linr"  time="-9999999/1" value="0" leadInLength="0/1"  />
            <InterpolatingParam id="637" interp="linr"  time="-9999999/1" value="0" leadInLength="0/1"  />
           </VectorParam>
           <InterpolatingParam id="638" interp="linr"  time="-9999999/1" value="1" leadInLength="0/1"  name="opacity"/>
          </Parameters>
          <Attributes>
           <Attribute id="639" value="" name="ident"/>
          </Attributes>
          <ExtraData>
           <Entry key="ZoomPanBin">
            <ZoomPanBin id="640"  >
             <ZoomPanKeyframes>
              <ZoomPanKeyframe id="641" timeRangeEnd="-9999999/1" timeRangeDuration="0/1" interpolaterName="linr"  />
             </ZoomPanKeyframes>
            </ZoomPanBin>
           </Entry>
          </ExtraData>
         </VMFile>
         <MetaData>
          <entry key="WinSubProjectDisplayName" val=""/>
         </MetaData>
        </UnifiedMedia>
        <UnifiedMedia id="642"  >
         <AMFile id="643" start="3522" duration="95" scalar="1/1" mediaStart="3742/1" mediaDuration="95/1" trackNumber="1" src="21" channelNumber="0,1" >
          <Parameters>
           <InterpolatingParam id="644" interp="linr"  name="volume">
            <Keyframes>
            <Keyframe id="645"  time="-1/1" value="1" leadInLength="0/1"  />
            <Keyframe id="646"  time="0/1" value="0" leadInLength="0/1"  />
            <Keyframe id="647"  time="8952/1" value="0" leadInLength="0/1"  />
            <Keyframe id="648"  time="8953/1" value="1" leadInLength="0/1"  />
            </Keyframes>
           </InterpolatingParam>
           <Parameter id="649"  name="captions"/>
          </Parameters>
          <Attributes>
           <Attribute id="650" value="" name="ident"/>
           <Attribute id="651" value="44100" name="sampleRate"/>
           <Attribute id="652" value="16" name="bitDepth"/>
           <Attribute id="653" value="1" name="gain"/>
           <Attribute id="654" value="0" name="mixToMono"/>
          </Attributes>
         </AMFile>
         <VMFile id="655" start="3522" duration="95" scalar="1/1" mediaStart="3742/1" mediaDuration="95/1" trackNumber="0" src="21" >
          <Transformer>
           <VectorParam id="656"  name="translation">
            <InterpolatingParam id="657" interp="linr"  time="-9999999/1" value="0" leadInLength="0/1"  />
            <InterpolatingParam id="658" interp="linr"  time="-9999999/1" value="0" leadInLength="0/1"  />
            <InterpolatingParam id="659" interp="linr"  time="-9999999/1" value="0" leadInLength="0/1"  />
           </VectorParam>
           <VectorParam id="660"  name="rotation">
            <InterpolatingParam id="661" interp="linr"  time="-9999999/1" value="0" leadInLength="0/1"  />
            <InterpolatingParam id="662" interp="linr"  time="-9999999/1" value="0" leadInLength="0/1"  />
            <InterpolatingParam id="663" interp="linr"  time="-9999999/1" value="0" leadInLength="0/1"  />
           </VectorParam>
           <VectorParam id="664"  name="shear">
            <InterpolatingParam id="665" interp="linr"  time="-9999999/1" value="0" leadInLength="0/1"  />
            <InterpolatingParam id="666" interp="linr"  time="-9999999/1" value="0" leadInLength="0/1"  />
            <InterpolatingParam id="667" interp="linr"  time="-9999999/1" value="0" leadInLength="0/1"  />
           </VectorParam>
           <VectorParam id="668"  name="scale">
            <InterpolatingParam id="669" interp="linr"  time="-9999999/1" value="1" leadInLength="0/1"  />
            <InterpolatingParam id="670" interp="linr"  time="-9999999/1" value="1" leadInLength="0/1"  />
            <InterpolatingParam id="671" interp="linr"  time="-9999999/1" value="1" leadInLength="0/1"  />
           </VectorParam>
           <VectorParam id="672"  name="anchor">
            <InterpolatingParam id="673" interp="linr"  time="0/1" value="0" leadInLength="0/1"  />
            <InterpolatingParam id="674" interp="linr"  time="0/1" value="0" leadInLength="0/1"  />
            <InterpolatingParam id="675" interp="linr"  time="0/1" value="0" leadInLength="0/1"  />
           </VectorParam>
          </Transformer>
          <Parameters>
           <VectorParam id="676"  name="sourceCrop">
            <InterpolatingParam id="677" interp="linr"  time="0/1" value="0" leadInLength="0/1"  />
            <InterpolatingParam id="678" interp="linr"  time="0/1" value="0" leadInLength="0/1"  />
            <InterpolatingParam id="679" interp="linr"  time="0/1" value="0" leadInLength="0/1"  />
            <InterpolatingParam id="680" interp="linr"  time="0/1" value="0" leadInLength="0/1"  />
           </VectorParam>
           <VectorParam id="681"  name="geometryCrop">
            <InterpolatingParam id="682" interp="linr"  time="-9999999/1" value="0" leadInLength="0/1"  />
            <InterpolatingParam id="683" interp="linr"  time="-9999999/1" value="0" leadInLength="0/1"  />
            <InterpolatingParam id="684" interp="linr"  time="-9999999/1" value="0" leadInLength="0/1"  />
            <InterpolatingParam id="685" interp="linr"  time="-9999999/1" value="0" leadInLength="0/1"  />
           </VectorParam>
           <InterpolatingParam id="686" interp="linr"  time="-9999999/1" value="1" leadInLength="0/1"  name="opacity"/>
          </Parameters>
          <Attributes>
           <Attribute id="687" value="" name="ident"/>
          </Attributes>
          <ExtraData>
           <Entry key="ZoomPanBin">
            <ZoomPanBin id="688"  >
             <ZoomPanKeyframes>
              <ZoomPanKeyframe id="689" timeRangeEnd="-9999999/1" timeRangeDuration="0/1" interpolaterName="linr"  />
             </ZoomPanKeyframes>
            </ZoomPanBin>
           </Entry>
          </ExtraData>
         </VMFile>
         <MetaData>
          <entry key="WinSubProjectDisplayName" val=""/>
         </MetaData>
        </UnifiedMedia>
        <StitchedMedia id="690" start="3617" duration="607" scalar="3471626633/4396989099" mediaStart="19216566/4969" mediaDuration="4396989099/5719319" minMediaStart="0/1" >
         <Transformer>
          <VectorParam id="691"  name="translation">
           <InterpolatingParam id="692" interp="linr"  time="-9999999/1" value="0" leadInLength="0/1"  />
           <InterpolatingParam id="693" interp="linr"  time="-9999999/1" value="0" leadInLength="0/1"  />
           <InterpolatingParam id="694" interp="linr"  time="-9999999/1" value="0" leadInLength="0/1"  />
          </VectorParam>
          <VectorParam id="695"  name="rotation">
           <InterpolatingParam id="696" interp="linr"  time="-9999999/1" value="0" leadInLength="0/1"  />
           <InterpolatingParam id="697" interp="linr"  time="-9999999/1" value="0" leadInLength="0/1"  />
           <InterpolatingParam id="698" interp="linr"  time="-9999999/1" value="0" leadInLength="0/1"  />
          </VectorParam>
          <VectorParam id="699"  name="shear">
           <InterpolatingParam id="700" interp="linr"  time="-9999999/1" value="0" leadInLength="0/1"  />
           <InterpolatingParam id="701" interp="linr"  time="-9999999/1" value="0" leadInLength="0/1"  />
           <InterpolatingParam id="702" interp="linr"  time="-9999999/1" value="0" leadInLength="0/1"  />
          </VectorParam>
          <VectorParam id="703"  name="scale">
           <InterpolatingParam id="704" interp="linr"  time="-9999999/1" value="1" leadInLength="0/1"  />
           <InterpolatingParam id="705" interp="linr"  time="-9999999/1" value="1" leadInLength="0/1"  />
           <InterpolatingParam id="706" interp="linr"  time="-9999999/1" value="1" leadInLength="0/1"  />
          </VectorParam>
          <VectorParam id="707"  name="anchor">
           <InterpolatingParam id="708" interp="linr"  >
            <Keyframes>
            <Keyframe id="709"  time="0/1" value="0" leadInLength="0/1"  />
            <Keyframe id="710"  time="4924/1" value="0" leadInLength="0/1"  />
            </Keyframes>
           </InterpolatingParam>
           <InterpolatingParam id="711" interp="linr"  >
            <Keyframes>
            <Keyframe id="712"  time="0/1" value="0" leadInLength="0/1"  />
            <Keyframe id="713"  time="4924/1" value="0" leadInLength="0/1"  />
            </Keyframes>
           </InterpolatingParam>
           <InterpolatingParam id="714" interp="linr"  >
            <Keyframes>
            <Keyframe id="715"  time="0/1" value="0" leadInLength="0/1"  />
            <Keyframe id="716"  time="4924/1" value="0" leadInLength="0/1"  />
            </Keyframes>
           </InterpolatingParam>
          </VectorParam>
         </Transformer>
         <Parameters>
          <VectorParam id="717"  name="sourceCrop">
           <InterpolatingParam id="718" interp="linr"  >
            <Keyframes>
            <Keyframe id="719"  time="0/1" value="0" leadInLength="0/1"  />
            <Keyframe id="720"  time="4924/1" value="0" leadInLength="0/1"  />
            </Keyframes>
           </InterpolatingParam>
           <InterpolatingParam id="721" interp="linr"  >
            <Keyframes>
            <Keyframe id="722"  time="0/1" value="0" leadInLength="0/1"  />
            <Keyframe id="723"  time="4924/1" value="0" leadInLength="0/1"  />
            </Keyframes>
           </InterpolatingParam>
           <InterpolatingParam id="724" interp="linr"  >
            <Keyframes>
            <Keyframe id="725"  time="0/1" value="0" leadInLength="0/1"  />
            <Keyframe id="726"  time="4924/1" value="0" leadInLength="0/1"  />
            </Keyframes>
           </InterpolatingParam>
           <InterpolatingParam id="727" interp="linr"  >
            <Keyframes>
            <Keyframe id="728"  time="0/1" value="0" leadInLength="0/1"  />
            <Keyframe id="729"  time="4924/1" value="0" leadInLength="0/1"  />
            </Keyframes>
           </InterpolatingParam>
          </VectorParam>
          <VectorParam id="730"  name="geometryCrop">
           <InterpolatingParam id="731" interp="linr"  time="-9999999/1" value="0" leadInLength="0/1"  />
           <InterpolatingParam id="732" interp="linr"  time="-9999999/1" value="0" leadInLength="0/1"  />
           <InterpolatingParam id="733" interp="linr"  time="-9999999/1" value="0" leadInLength="0/1"  />
           <InterpolatingParam id="734" interp="linr"  time="-9999999/1" value="0" leadInLength="0/1"  />
          </VectorParam>
          <InterpolatingParam id="735" interp="linr"  time="-9999999/1" value="1" leadInLength="0/1"  name="opacity"/>
          <InterpolatingParam id="736" interp="linr"  time="0/1" value="1" leadInLength="0/1"  name="cursorOpacity"/>
          <InterpolatingParam id="737" interp="linr"  time="0/1" value="1" leadInLength="0/1"  name="cursorScale"/>
          <InterpolatingParam id="738" interp="linr"  name="volume">
           <Keyframes>
           <Keyframe id="739"  time="-1/1" value="1" leadInLength="0/1"  />
           <Keyframe id="740"  time="0/1" value="0" leadInLength="0/1"  />
           <Keyframe id="741"  time="46313324/5123" value="0" leadInLength="0/1"  />
           <Keyframe id="742"  time="46318447/5123" value="1" leadInLength="0/1"  />
           </Keyframes>
          </InterpolatingParam>
          <Parameter id="743"  name="captions"/>
         </Parameters>
         <Attributes>
          <Attribute id="744" value="" name="ident"/>
          <Attribute id="745" value="0" name="mixToMono"/>
         </Attributes>
         <MetaData>
          <entry key="WinSubProjectDisplayName" val=""/>
         </MetaData>
         <ExtraData>
          <Entry key="ZoomPanBin">
           <ZoomPanBin id="746"  >
            <ZoomPanKeyframes>
             <ZoomPanKeyframe id="747" timeRangeEnd="-9999999/1" timeRangeDuration="0/1" interpolaterName="linr"  />
            </ZoomPanKeyframes>
           </ZoomPanBin>
          </Entry>
          <Entry key="CursorEffectBin">
           <CursorEffectBin id="748"  >
            <CursorEffectKeyframes>
            </CursorEffectKeyframes>
           </CursorEffectBin>
          </Entry>
         </ExtraData>
         <GenericTrack id="749"  >
          <Attributes>
           <Attribute id="750" value="" name="ident"/>
           <Attribute id="751" value="0" name="audioMuted"/>
           <Attribute id="752" value="0" name="videoHidden"/>
          </Attributes>
          <MetaData>
           <entry key="IsLocked" val="False"/>
           <entry key="WinTrackHeight" val="0"/>
          </MetaData>
          <Medias>
           <UnifiedMedia id="753"  >
            <AMFile id="754" start="0" duration="4924" scalar="1/1" mediaStart="0/1" mediaDuration="4924/1" trackNumber="1" src="21" channelNumber="0,1" >
             <Parameters>
              <InterpolatingParam id="755" interp="linr"  time="0/1" value="1" leadInLength="0/1"  name="volume"/>
              <Parameter id="756"  name="captions"/>
             </Parameters>
             <Attributes>
              <Attribute id="757" value="" name="ident"/>
              <Attribute id="758" value="44100" name="sampleRate"/>
              <Attribute id="759" value="16" name="bitDepth"/>
              <Attribute id="760" value="1" name="gain"/>
              <Attribute id="761" value="0" name="mixToMono"/>
             </Attributes>
            </AMFile>
            <VMFile id="762" start="0" duration="4924" scalar="1/1" mediaStart="0/1" mediaDuration="4924/1" trackNumber="0" src="21" >
             <Transformer>
              <VectorParam id="763"  name="translation">
               <InterpolatingParam id="764" interp="linr"  time="-9999999/1" value="0" leadInLength="0/1"  />
               <InterpolatingParam id="765" interp="linr"  time="-9999999/1" value="0" leadInLength="0/1"  />
               <InterpolatingParam id="766" interp="linr"  time="-9999999/1" value="0" leadInLength="0/1"  />
              </VectorParam>
              <VectorParam id="767"  name="rotation">
               <InterpolatingParam id="768" interp="linr"  time="-9999999/1" value="0" leadInLength="0/1"  />
               <InterpolatingParam id="769" interp="linr"  time="-9999999/1" value="0" leadInLength="0/1"  />
               <InterpolatingParam id="770" interp="linr"  time="-9999999/1" value="0" leadInLength="0/1"  />
              </VectorParam>
              <VectorParam id="771"  name="shear">
               <InterpolatingParam id="772" interp="linr"  time="-9999999/1" value="0" leadInLength="0/1"  />
               <InterpolatingParam id="773" interp="linr"  time="-9999999/1" value="0" leadInLength="0/1"  />
               <InterpolatingParam id="774" interp="linr"  time="-9999999/1" value="0" leadInLength="0/1"  />
              </VectorParam>
              <VectorParam id="775"  name="scale">
               <InterpolatingParam id="776" interp="linr"  time="-9999999/1" value="1" leadInLength="0/1"  />
               <InterpolatingParam id="777" interp="linr"  time="-9999999/1" value="1" leadInLength="0/1"  />
               <InterpolatingParam id="778" interp="linr"  time="-9999999/1" value="1" leadInLength="0/1"  />
              </VectorParam>
              <VectorParam id="779"  name="anchor">
               <InterpolatingParam id="780" interp="linr"  time="0/1" value="0" leadInLength="0/1"  />
               <InterpolatingParam id="781" interp="linr"  time="0/1" value="0" leadInLength="0/1"  />
               <InterpolatingParam id="782" interp="linr"  time="0/1" value="0" leadInLength="0/1"  />
              </VectorParam>
             </Transformer>
             <Parameters>
              <VectorParam id="783"  name="sourceCrop">
               <InterpolatingParam id="784" interp="linr"  time="0/1" value="0" leadInLength="0/1"  />
               <InterpolatingParam id="785" interp="linr"  time="0/1" value="0" leadInLength="0/1"  />
               <InterpolatingParam id="786" interp="linr"  time="0/1" value="0" leadInLength="0/1"  />
               <InterpolatingParam id="787" interp="linr"  time="0/1" value="0" leadInLength="0/1"  />
              </VectorParam>
              <VectorParam id="788"  name="geometryCrop">
               <InterpolatingParam id="789" interp="linr"  time="-9999999/1" value="0" leadInLength="0/1"  />
               <InterpolatingParam id="790" interp="linr"  time="-9999999/1" value="0" leadInLength="0/1"  />
               <InterpolatingParam id="791" interp="linr"  time="-9999999/1" value="0" leadInLength="0/1"  />
               <InterpolatingParam id="792" interp="linr"  time="-9999999/1" value="0" leadInLength="0/1"  />
              </VectorParam>
              <InterpolatingParam id="793" interp="linr"  time="-9999999/1" value="1" leadInLength="0/1"  name="opacity"/>
             </Parameters>
             <Attributes>
              <Attribute id="794" value="" name="ident"/>
             </Attributes>
             <ExtraData>
              <Entry key="ZoomPanBin">
               <ZoomPanBin id="795"  >
                <ZoomPanKeyframes>
                 <ZoomPanKeyframe id="796" timeRangeEnd="-9999999/1" timeRangeDuration="0/1" interpolaterName="linr"  />
                </ZoomPanKeyframes>
               </ZoomPanBin>
              </Entry>
             </ExtraData>
            </VMFile>
            <MetaData>
             <entry key="WinSubProjectDisplayName" val=""/>
            </MetaData>
           </UnifiedMedia>
           <IMFile id="797" start="4924" duration="90" scalar="1/1" mediaStart="4924/1" mediaDuration="1/1" trackNumber="0" src="21" trimStartSum="0/1" >
            <Transformer>
             <VectorParam id="798"  name="translation">
              <InterpolatingParam id="799" interp="linr"  time="-9999999/1" value="0" leadInLength="0/1"  />
              <InterpolatingParam id="800" interp="linr"  time="-9999999/1" value="0" leadInLength="0/1"  />
              <InterpolatingParam id="801" interp="linr"  time="-9999999/1" value="0" leadInLength="0/1"  />
             </VectorParam>
             <VectorParam id="802"  name="rotation">
              <InterpolatingParam id="803" interp="linr"  time="-9999999/1" value="0" leadInLength="0/1"  />
              <InterpolatingParam id="804" interp="linr"  time="-9999999/1" value="0" leadInLength="0/1"  />
              <InterpolatingParam id="805" interp="linr"  time="-9999999/1" value="0" leadInLength="0/1"  />
             </VectorParam>
             <VectorParam id="806"  name="shear">
              <InterpolatingParam id="807" interp="linr"  time="-9999999/1" value="0" leadInLength="0/1"  />
              <InterpolatingParam id="808" interp="linr"  time="-9999999/1" value="0" leadInLength="0/1"  />
              <InterpolatingParam id="809" interp="linr"  time="-9999999/1" value="0" leadInLength="0/1"  />
             </VectorParam>
             <VectorParam id="810"  name="scale">
              <InterpolatingParam id="811" interp="linr"  time="-9999999/1" value="1" leadInLength="0/1"  />
              <InterpolatingParam id="812" interp="linr"  time="-9999999/1" value="1" leadInLength="0/1"  />
              <InterpolatingParam id="813" interp="linr"  time="-9999999/1" value="1" leadInLength="0/1"  />
             </VectorParam>
             <VectorParam id="814"  name="anchor">
              <InterpolatingParam id="815" interp="linr"  time="0/1" value="0" leadInLength="0/1"  />
              <InterpolatingParam id="816" interp="linr"  time="0/1" value="0" leadInLength="0/1"  />
              <InterpolatingParam id="817" interp="linr"  time="0/1" value="0" leadInLength="0/1"  />
             </VectorParam>
            </Transformer>
            <Parameters>
             <VectorParam id="818"  name="sourceCrop">
              <InterpolatingParam id="819" interp="linr"  time="0/1" value="0" leadInLength="0/1"  />
              <InterpolatingParam id="820" interp="linr"  time="0/1" value="0" leadInLength="0/1"  />
              <InterpolatingParam id="821" interp="linr"  time="0/1" value="0" leadInLength="0/1"  />
              <InterpolatingParam id="822" interp="linr"  time="0/1" value="0" leadInLength="0/1"  />
             </VectorParam>
             <VectorParam id="823"  name="geometryCrop">
              <InterpolatingParam id="824" interp="linr"  time="-9999999/1" value="0" leadInLength="0/1"  />
              <InterpolatingParam id="825" interp="linr"  time="-9999999/1" value="0" leadInLength="0/1"  />
              <InterpolatingParam id="826" interp="linr"  time="-9999999/1" value="0" leadInLength="0/1"  />
              <InterpolatingParam id="827" interp="linr"  time="-9999999/1" value="0" leadInLength="0/1"  />
             </VectorParam>
             <InterpolatingParam id="828" interp="linr"  time="-9999999/1" value="1" leadInLength="0/1"  name="opacity"/>
            </Parameters>
            <Attributes>
             <Attribute id="829" value="" name="ident"/>
            </Attributes>
            <MetaData>
             <entry key="WinSubProjectDisplayName" val=""/>
            </MetaData>
            <ExtraData>
             <Entry key="ZoomPanBin">
              <ZoomPanBin id="830"  >
               <ZoomPanKeyframes>
                <ZoomPanKeyframe id="831" timeRangeEnd="-9999999/1" timeRangeDuration="0/1" interpolaterName="linr"  />
               </ZoomPanKeyframes>
              </ZoomPanBin>
             </Entry>
            </ExtraData>
           </IMFile>
           <UnifiedMedia id="832"  >
            <AMFile id="833" start="5014" duration="4028" scalar="1/1" mediaStart="4923/1" mediaDuration="4028/1" trackNumber="1" src="21" channelNumber="0,1" >
             <Parameters>
              <InterpolatingParam id="834" interp="linr"  time="0/1" value="1" leadInLength="0/1"  name="volume"/>
              <Parameter id="835"  name="captions"/>
             </Parameters>
             <Attributes>
              <Attribute id="836" value="" name="ident"/>
              <Attribute id="837" value="44100" name="sampleRate"/>
              <Attribute id="838" value="16" name="bitDepth"/>
              <Attribute id="839" value="1" name="gain"/>
              <Attribute id="840" value="0" name="mixToMono"/>
             </Attributes>
            </AMFile>
            <VMFile id="841" start="5014" duration="4028" scalar="1/1" mediaStart="4923/1" mediaDuration="4028/1" trackNumber="0" src="21" >
             <Transformer>
              <VectorParam id="842"  name="translation">
               <InterpolatingParam id="843" interp="linr"  time="-9999999/1" value="0" leadInLength="0/1"  />
               <InterpolatingParam id="844" interp="linr"  time="-9999999/1" value="0" leadInLength="0/1"  />
               <InterpolatingParam id="845" interp="linr"  time="-9999999/1" value="0" leadInLength="0/1"  />
              </VectorParam>
              <VectorParam id="846"  name="rotation">
               <InterpolatingParam id="847" interp="linr"  time="-9999999/1" value="0" leadInLength="0/1"  />
               <InterpolatingParam id="848" interp="linr"  time="-9999999/1" value="0" leadInLength="0/1"  />
               <InterpolatingParam id="849" interp="linr"  time="-9999999/1" value="0" leadInLength="0/1"  />
              </VectorParam>
              <VectorParam id="850"  name="shear">
               <InterpolatingParam id="851" interp="linr"  time="-9999999/1" value="0" leadInLength="0/1"  />
               <InterpolatingParam id="852" interp="linr"  time="-9999999/1" value="0" leadInLength="0/1"  />
               <InterpolatingParam id="853" interp="linr"  time="-9999999/1" value="0" leadInLength="0/1"  />
              </VectorParam>
              <VectorParam id="854"  name="scale">
               <InterpolatingParam id="855" interp="linr"  time="-9999999/1" value="1" leadInLength="0/1"  />
               <InterpolatingParam id="856" interp="linr"  time="-9999999/1" value="1" leadInLength="0/1"  />
               <InterpolatingParam id="857" interp="linr"  time="-9999999/1" value="1" leadInLength="0/1"  />
              </VectorParam>
              <VectorParam id="858"  name="anchor">
               <InterpolatingParam id="859" interp="linr"  time="0/1" value="0" leadInLength="0/1"  />
               <InterpolatingParam id="860" interp="linr"  time="0/1" value="0" leadInLength="0/1"  />
               <InterpolatingParam id="861" interp="linr"  time="0/1" value="0" leadInLength="0/1"  />
              </VectorParam>
             </Transformer>
             <Parameters>
              <VectorParam id="862"  name="sourceCrop">
               <InterpolatingParam id="863" interp="linr"  time="0/1" value="0" leadInLength="0/1"  />
               <InterpolatingParam id="864" interp="linr"  time="0/1" value="0" leadInLength="0/1"  />
               <InterpolatingParam id="865" interp="linr"  time="0/1" value="0" leadInLength="0/1"  />
               <InterpolatingParam id="866" interp="linr"  time="0/1" value="0" leadInLength="0/1"  />
              </VectorParam>
              <VectorParam id="867"  name="geometryCrop">
               <InterpolatingParam id="868" interp="linr"  time="-9999999/1" value="0" leadInLength="0/1"  />
               <InterpolatingParam id="869" interp="linr"  time="-9999999/1" value="0" leadInLength="0/1"  />
               <InterpolatingParam id="870" interp="linr"  time="-9999999/1" value="0" leadInLength="0/1"  />
               <InterpolatingParam id="871" interp="linr"  time="-9999999/1" value="0" leadInLength="0/1"  />
              </VectorParam>
              <InterpolatingParam id="872" interp="linr"  time="-9999999/1" value="1" leadInLength="0/1"  name="opacity"/>
             </Parameters>
             <Attributes>
              <Attribute id="873" value="" name="ident"/>
             </Attributes>
             <ExtraData>
              <Entry key="ZoomPanBin">
               <ZoomPanBin id="874"  >
                <ZoomPanKeyframes>
                 <ZoomPanKeyframe id="875" timeRangeEnd="-9999999/1" timeRangeDuration="0/1" interpolaterName="linr"  />
                </ZoomPanKeyframes>
               </ZoomPanBin>
              </Entry>
             </ExtraData>
            </VMFile>
            <MetaData>
             <entry key="WinSubProjectDisplayName" val=""/>
            </MetaData>
           </UnifiedMedia>
          </Medias>
         </GenericTrack>
        </StitchedMedia>
        <StitchedMedia id="876" start="4224" duration="544" scalar="777827384/541782055" mediaStart="26515256565/5719319" mediaDuration="2167128220/5719319" minMediaStart="0/1" >
         <Transformer>
          <VectorParam id="877"  name="translation">
           <InterpolatingParam id="878" interp="linr"  time="-9999999/1" value="0" leadInLength="0/1"  />
           <InterpolatingParam id="879" interp="linr"  time="-9999999/1" value="0" leadInLength="0/1"  />
           <InterpolatingParam id="880" interp="linr"  time="-9999999/1" value="0" leadInLength="0/1"  />
          </VectorParam>
          <VectorParam id="881"  name="rotation">
           <InterpolatingParam id="882" interp="linr"  time="-9999999/1" value="0" leadInLength="0/1"  />
           <InterpolatingParam id="883" interp="linr"  time="-9999999/1" value="0" leadInLength="0/1"  />
           <InterpolatingParam id="884" interp="linr"  time="-9999999/1" value="0" leadInLength="0/1"  />
          </VectorParam>
          <VectorParam id="885"  name="shear">
           <InterpolatingParam id="886" interp="linr"  time="-9999999/1" value="0" leadInLength="0/1"  />
           <InterpolatingParam id="887" interp="linr"  time="-9999999/1" value="0" leadInLength="0/1"  />
           <InterpolatingParam id="888" interp="linr"  time="-9999999/1" value="0" leadInLength="0/1"  />
          </VectorParam>
          <VectorParam id="889"  name="scale">
           <InterpolatingParam id="890" interp="linr"  time="-9999999/1" value="1" leadInLength="0/1"  />
           <InterpolatingParam id="891" interp="linr"  time="-9999999/1" value="1" leadInLength="0/1"  />
           <InterpolatingParam id="892" interp="linr"  time="-9999999/1" value="1" leadInLength="0/1"  />
          </VectorParam>
          <VectorParam id="893"  name="anchor">
           <InterpolatingParam id="894" interp="linr"  >
            <Keyframes>
            <Keyframe id="895"  time="0/1" value="0" leadInLength="0/1"  />
            <Keyframe id="896"  time="4924/1" value="0" leadInLength="0/1"  />
            </Keyframes>
           </InterpolatingParam>
           <InterpolatingParam id="897" interp="linr"  >
            <Keyframes>
            <Keyframe id="898"  time="0/1" value="0" leadInLength="0/1"  />
            <Keyframe id="899"  time="4924/1" value="0" leadInLength="0/1"  />
            </Keyframes>
           </InterpolatingParam>
           <InterpolatingParam id="900" interp="linr"  >
            <Keyframes>
            <Keyframe id="901"  time="0/1" value="0" leadInLength="0/1"  />
            <Keyframe id="902"  time="4924/1" value="0" leadInLength="0/1"  />
            </Keyframes>
           </InterpolatingParam>
          </VectorParam>
         </Transformer>
         <Parameters>
          <VectorParam id="903"  name="sourceCrop">
           <InterpolatingParam id="904" interp="linr"  >
            <Keyframes>
            <Keyframe id="905"  time="0/1" value="0" leadInLength="0/1"  />
            <Keyframe id="906"  time="4924/1" value="0" leadInLength="0/1"  />
            </Keyframes>
           </InterpolatingParam>
           <InterpolatingParam id="907" interp="linr"  >
            <Keyframes>
            <Keyframe id="908"  time="0/1" value="0" leadInLength="0/1"  />
            <Keyframe id="909"  time="4924/1" value="0" leadInLength="0/1"  />
            </Keyframes>
           </InterpolatingParam>
           <InterpolatingParam id="910" interp="linr"  >
            <Keyframes>
            <Keyframe id="911"  time="0/1" value="0" leadInLength="0/1"  />
            <Keyframe id="912"  time="4924/1" value="0" leadInLength="0/1"  />
            </Keyframes>
           </InterpolatingParam>
           <InterpolatingParam id="913" interp="linr"  >
            <Keyframes>
            <Keyframe id="914"  time="0/1" value="0" leadInLength="0/1"  />
            <Keyframe id="915"  time="4924/1" value="0" leadInLength="0/1"  />
            </Keyframes>
           </InterpolatingParam>
          </VectorParam>
          <VectorParam id="916"  name="geometryCrop">
           <InterpolatingParam id="917" interp="linr"  time="-9999999/1" value="0" leadInLength="0/1"  />
           <InterpolatingParam id="918" interp="linr"  time="-9999999/1" value="0" leadInLength="0/1"  />
           <InterpolatingParam id="919" interp="linr"  time="-9999999/1" value="0" leadInLength="0/1"  />
           <InterpolatingParam id="920" interp="linr"  time="-9999999/1" value="0" leadInLength="0/1"  />
          </VectorParam>
          <InterpolatingParam id="921" interp="linr"  time="-9999999/1" value="1" leadInLength="0/1"  name="opacity"/>
          <InterpolatingParam id="922" interp="linr"  time="0/1" value="1" leadInLength="0/1"  name="cursorOpacity"/>
          <InterpolatingParam id="923" interp="linr"  time="0/1" value="1" leadInLength="0/1"  name="cursorScale"/>
          <InterpolatingParam id="924" interp="linr"  name="volume">
           <Keyframes>
           <Keyframe id="925"  time="-1/1" value="1" leadInLength="0/1"  />
           <Keyframe id="926"  time="0/1" value="0" leadInLength="0/1"  />
           <Keyframe id="927"  time="46313324/5123" value="0" leadInLength="0/1"  />
           <Keyframe id="928"  time="46318447/5123" value="1" leadInLength="0/1"  />
           </Keyframes>
          </InterpolatingParam>
          <Parameter id="929"  name="captions"/>
         </Parameters>
         <Attributes>
          <Attribute id="930" value="" name="ident"/>
          <Attribute id="931" value="0" name="mixToMono"/>
         </Attributes>
         <MetaData>
          <entry key="WinSubProjectDisplayName" val=""/>
         </MetaData>
         <ExtraData>
          <Entry key="ZoomPanBin">
           <ZoomPanBin id="932"  >
            <ZoomPanKeyframes>
             <ZoomPanKeyframe id="933" timeRangeEnd="-9999999/1" timeRangeDuration="0/1" interpolaterName="linr"  />
            </ZoomPanKeyframes>
           </ZoomPanBin>
          </Entry>
          <Entry key="CursorEffectBin">
           <CursorEffectBin id="934"  >
            <CursorEffectKeyframes>
            </CursorEffectKeyframes>
           </CursorEffectBin>
          </Entry>
         </ExtraData>
         <GenericTrack id="935"  >
          <Attributes>
           <Attribute id="936" value="" name="ident"/>
           <Attribute id="937" value="0" name="audioMuted"/>
           <Attribute id="938" value="0" name="videoHidden"/>
          </Attributes>
          <MetaData>
           <entry key="IsLocked" val="False"/>
           <entry key="WinTrackHeight" val="0"/>
          </MetaData>
          <Medias>
           <UnifiedMedia id="939"  >
            <AMFile id="940" start="0" duration="4924" scalar="1/1" mediaStart="0/1" mediaDuration="4924/1" trackNumber="1" src="21" channelNumber="0,1" >
             <Parameters>
              <InterpolatingParam id="941" interp="linr"  time="0/1" value="1" leadInLength="0/1"  name="volume"/>
              <Parameter id="942"  name="captions"/>
             </Parameters>
             <Attributes>
              <Attribute id="943" value="" name="ident"/>
              <Attribute id="944" value="44100" name="sampleRate"/>
              <Attribute id="945" value="16" name="bitDepth"/>
              <Attribute id="946" value="1" name="gain"/>
              <Attribute id="947" value="0" name="mixToMono"/>
             </Attributes>
            </AMFile>
            <VMFile id="948" start="0" duration="4924" scalar="1/1" mediaStart="0/1" mediaDuration="4924/1" trackNumber="0" src="21" >
             <Transformer>
              <VectorParam id="949"  name="translation">
               <InterpolatingParam id="950" interp="linr"  time="-9999999/1" value="0" leadInLength="0/1"  />
               <InterpolatingParam id="951" interp="linr"  time="-9999999/1" value="0" leadInLength="0/1"  />
               <InterpolatingParam id="952" interp="linr"  time="-9999999/1" value="0" leadInLength="0/1"  />
              </VectorParam>
              <VectorParam id="953"  name="rotation">
               <InterpolatingParam id="954" interp="linr"  time="-9999999/1" value="0" leadInLength="0/1"  />
               <InterpolatingParam id="955" interp="linr"  time="-9999999/1" value="0" leadInLength="0/1"  />
               <InterpolatingParam id="956" interp="linr"  time="-9999999/1" value="0" leadInLength="0/1"  />
              </VectorParam>
              <VectorParam id="957"  name="shear">
               <InterpolatingParam id="958" interp="linr"  time="-9999999/1" value="0" leadInLength="0/1"  />
               <InterpolatingParam id="959" interp="linr"  time="-9999999/1" value="0" leadInLength="0/1"  />
               <InterpolatingParam id="960" interp="linr"  time="-9999999/1" value="0" leadInLength="0/1"  />
              </VectorParam>
              <VectorParam id="961"  name="scale">
               <InterpolatingParam id="962" interp="linr"  time="-9999999/1" value="1" leadInLength="0/1"  />
               <InterpolatingParam id="963" interp="linr"  time="-9999999/1" value="1" leadInLength="0/1"  />
               <InterpolatingParam id="964" interp="linr"  time="-9999999/1" value="1" leadInLength="0/1"  />
              </VectorParam>
              <VectorParam id="965"  name="anchor">
               <InterpolatingParam id="966" interp="linr"  time="0/1" value="0" leadInLength="0/1"  />
               <InterpolatingParam id="967" interp="linr"  time="0/1" value="0" leadInLength="0/1"  />
               <InterpolatingParam id="968" interp="linr"  time="0/1" value="0" leadInLength="0/1"  />
              </VectorParam>
             </Transformer>
             <Parameters>
              <VectorParam id="969"  name="sourceCrop">
               <InterpolatingParam id="970" interp="linr"  time="0/1" value="0" leadInLength="0/1"  />
               <InterpolatingParam id="971" interp="linr"  time="0/1" value="0" leadInLength="0/1"  />
               <InterpolatingParam id="972" interp="linr"  time="0/1" value="0" leadInLength="0/1"  />
               <InterpolatingParam id="973" interp="linr"  time="0/1" value="0" leadInLength="0/1"  />
              </VectorParam>
              <VectorParam id="974"  name="geometryCrop">
               <InterpolatingParam id="975" interp="linr"  time="-9999999/1" value="0" leadInLength="0/1"  />
               <InterpolatingParam id="976" interp="linr"  time="-9999999/1" value="0" leadInLength="0/1"  />
               <InterpolatingParam id="977" interp="linr"  time="-9999999/1" value="0" leadInLength="0/1"  />
               <InterpolatingParam id="978" interp="linr"  time="-9999999/1" value="0" leadInLength="0/1"  />
              </VectorParam>
              <InterpolatingParam id="979" interp="linr"  time="-9999999/1" value="1" leadInLength="0/1"  name="opacity"/>
             </Parameters>
             <Attributes>
              <Attribute id="980" value="" name="ident"/>
             </Attributes>
             <ExtraData>
              <Entry key="ZoomPanBin">
               <ZoomPanBin id="981"  >
                <ZoomPanKeyframes>
                 <ZoomPanKeyframe id="982" timeRangeEnd="-9999999/1" timeRangeDuration="0/1" interpolaterName="linr"  />
                </ZoomPanKeyframes>
               </ZoomPanBin>
              </Entry>
             </ExtraData>
            </VMFile>
            <MetaData>
             <entry key="WinSubProjectDisplayName" val=""/>
            </MetaData>
           </UnifiedMedia>
           <IMFile id="983" start="4924" duration="90" scalar="1/1" mediaStart="4924/1" mediaDuration="1/1" trackNumber="0" src="21" trimStartSum="0/1" >
            <Transformer>
             <VectorParam id="984"  name="translation">
              <InterpolatingParam id="985" interp="linr"  time="-9999999/1" value="0" leadInLength="0/1"  />
              <InterpolatingParam id="986" interp="linr"  time="-9999999/1" value="0" leadInLength="0/1"  />
              <InterpolatingParam id="987" interp="linr"  time="-9999999/1" value="0" leadInLength="0/1"  />
             </VectorParam>
             <VectorParam id="988"  name="rotation">
              <InterpolatingParam id="989" interp="linr"  time="-9999999/1" value="0" leadInLength="0/1"  />
              <InterpolatingParam id="990" interp="linr"  time="-9999999/1" value="0" leadInLength="0/1"  />
              <InterpolatingParam id="991" interp="linr"  time="-9999999/1" value="0" leadInLength="0/1"  />
             </VectorParam>
             <VectorParam id="992"  name="shear">
              <InterpolatingParam id="993" interp="linr"  time="-9999999/1" value="0" leadInLength="0/1"  />
              <InterpolatingParam id="994" interp="linr"  time="-9999999/1" value="0" leadInLength="0/1"  />
              <InterpolatingParam id="995" interp="linr"  time="-9999999/1" value="0" leadInLength="0/1"  />
             </VectorParam>
             <VectorParam id="996"  name="scale">
              <InterpolatingParam id="997" interp="linr"  time="-9999999/1" value="1" leadInLength="0/1"  />
              <InterpolatingParam id="998" interp="linr"  time="-9999999/1" value="1" leadInLength="0/1"  />
              <InterpolatingParam id="999" interp="linr"  time="-9999999/1" value="1" leadInLength="0/1"  />
             </VectorParam>
             <VectorParam id="1000"  name="anchor">
              <InterpolatingParam id="1001" interp="linr"  time="0/1" value="0" leadInLength="0/1"  />
              <InterpolatingParam id="1002" interp="linr"  time="0/1" value="0" leadInLength="0/1"  />
              <InterpolatingParam id="1003" interp="linr"  time="0/1" value="0" leadInLength="0/1"  />
             </VectorParam>
            </Transformer>
            <Parameters>
             <VectorParam id="1004"  name="sourceCrop">
              <InterpolatingParam id="1005" interp="linr"  time="0/1" value="0" leadInLength="0/1"  />
              <InterpolatingParam id="1006" interp="linr"  time="0/1" value="0" leadInLength="0/1"  />
              <InterpolatingParam id="1007" interp="linr"  time="0/1" value="0" leadInLength="0/1"  />
              <InterpolatingParam id="1008" interp="linr"  time="0/1" value="0" leadInLength="0/1"  />
             </VectorParam>
             <VectorParam id="1009"  name="geometryCrop">
              <InterpolatingParam id="1010" interp="linr"  time="-9999999/1" value="0" leadInLength="0/1"  />
              <InterpolatingParam id="1011" interp="linr"  time="-9999999/1" value="0" leadInLength="0/1"  />
              <InterpolatingParam id="1012" interp="linr"  time="-9999999/1" value="0" leadInLength="0/1"  />
              <InterpolatingParam id="1013" interp="linr"  time="-9999999/1" value="0" leadInLength="0/1"  />
             </VectorParam>
             <InterpolatingParam id="1014" interp="linr"  time="-9999999/1" value="1" leadInLength="0/1"  name="opacity"/>
            </Parameters>
            <Attributes>
             <Attribute id="1015" value="" name="ident"/>
            </Attributes>
            <MetaData>
             <entry key="WinSubProjectDisplayName" val=""/>
            </MetaData>
            <ExtraData>
             <Entry key="ZoomPanBin">
              <ZoomPanBin id="1016"  >
               <ZoomPanKeyframes>
                <ZoomPanKeyframe id="1017" timeRangeEnd="-9999999/1" timeRangeDuration="0/1" interpolaterName="linr"  />
               </ZoomPanKeyframes>
              </ZoomPanBin>
             </Entry>
            </ExtraData>
           </IMFile>
           <UnifiedMedia id="1018"  >
            <AMFile id="1019" start="5014" duration="4028" scalar="1/1" mediaStart="4923/1" mediaDuration="4028/1" trackNumber="1" src="21" channelNumber="0,1" >
             <Parameters>
              <InterpolatingParam id="1020" interp="linr"  time="0/1" value="1" leadInLength="0/1"  name="volume"/>
              <Parameter id="1021"  name="captions"/>
             </Parameters>
             <Attributes>
              <Attribute id="1022" value="" name="ident"/>
              <Attribute id="1023" value="44100" name="sampleRate"/>
              <Attribute id="1024" value="16" name="bitDepth"/>
              <Attribute id="1025" value="1" name="gain"/>
              <Attribute id="1026" value="0" name="mixToMono"/>
             </Attributes>
            </AMFile>
            <VMFile id="1027" start="5014" duration="4028" scalar="1/1" mediaStart="4923/1" mediaDuration="4028/1" trackNumber="0" src="21" >
             <Transformer>
              <VectorParam id="1028"  name="translation">
               <InterpolatingParam id="1029" interp="linr"  time="-9999999/1" value="0" leadInLength="0/1"  />
               <InterpolatingParam id="1030" interp="linr"  time="-9999999/1" value="0" leadInLength="0/1"  />
               <InterpolatingParam id="1031" interp="linr"  time="-9999999/1" value="0" leadInLength="0/1"  />
              </VectorParam>
              <VectorParam id="1032"  name="rotation">
               <InterpolatingParam id="1033" interp="linr"  time="-9999999/1" value="0" leadInLength="0/1"  />
               <InterpolatingParam id="1034" interp="linr"  time="-9999999/1" value="0" leadInLength="0/1"  />
               <InterpolatingParam id="1035" interp="linr"  time="-9999999/1" value="0" leadInLength="0/1"  />
              </VectorParam>
              <VectorParam id="1036"  name="shear">
               <InterpolatingParam id="1037" interp="linr"  time="-9999999/1" value="0" leadInLength="0/1"  />
               <InterpolatingParam id="1038" interp="linr"  time="-9999999/1" value="0" leadInLength="0/1"  />
               <InterpolatingParam id="1039" interp="linr"  time="-9999999/1" value="0" leadInLength="0/1"  />
              </VectorParam>
              <VectorParam id="1040"  name="scale">
               <InterpolatingParam id="1041" interp="linr"  time="-9999999/1" value="1" leadInLength="0/1"  />
               <InterpolatingParam id="1042" interp="linr"  time="-9999999/1" value="1" leadInLength="0/1"  />
               <InterpolatingParam id="1043" interp="linr"  time="-9999999/1" value="1" leadInLength="0/1"  />
              </VectorParam>
              <VectorParam id="1044"  name="anchor">
               <InterpolatingParam id="1045" interp="linr"  time="0/1" value="0" leadInLength="0/1"  />
               <InterpolatingParam id="1046" interp="linr"  time="0/1" value="0" leadInLength="0/1"  />
               <InterpolatingParam id="1047" interp="linr"  time="0/1" value="0" leadInLength="0/1"  />
              </VectorParam>
             </Transformer>
             <Parameters>
              <VectorParam id="1048"  name="sourceCrop">
               <InterpolatingParam id="1049" interp="linr"  time="0/1" value="0" leadInLength="0/1"  />
               <InterpolatingParam id="1050" interp="linr"  time="0/1" value="0" leadInLength="0/1"  />
               <InterpolatingParam id="1051" interp="linr"  time="0/1" value="0" leadInLength="0/1"  />
               <InterpolatingParam id="1052" interp="linr"  time="0/1" value="0" leadInLength="0/1"  />
              </VectorParam>
              <VectorParam id="1053"  name="geometryCrop">
               <InterpolatingParam id="1054" interp="linr"  time="-9999999/1" value="0" leadInLength="0/1"  />
               <InterpolatingParam id="1055" interp="linr"  time="-9999999/1" value="0" leadInLength="0/1"  />
               <InterpolatingParam id="1056" interp="linr"  time="-9999999/1" value="0" leadInLength="0/1"  />
               <InterpolatingParam id="1057" interp="linr"  time="-9999999/1" value="0" leadInLength="0/1"  />
              </VectorParam>
              <InterpolatingParam id="1058" interp="linr"  time="-9999999/1" value="1" leadInLength="0/1"  name="opacity"/>
             </Parameters>
             <Attributes>
              <Attribute id="1059" value="" name="ident"/>
             </Attributes>
             <ExtraData>
              <Entry key="ZoomPanBin">
               <ZoomPanBin id="1060"  >
                <ZoomPanKeyframes>
                 <ZoomPanKeyframe id="1061" timeRangeEnd="-9999999/1" timeRangeDuration="0/1" interpolaterName="linr"  />
                </ZoomPanKeyframes>
               </ZoomPanBin>
              </Entry>
             </ExtraData>
            </VMFile>
            <MetaData>
             <entry key="WinSubProjectDisplayName" val=""/>
            </MetaData>
           </UnifiedMedia>
          </Medias>
         </GenericTrack>
        </StitchedMedia>
        <UnifiedMedia id="1062"  >
         <AMFile id="1063" start="4768" duration="289" scalar="178929/215936" mediaStart="463031/94" mediaDuration="62405504/178929" trackNumber="1" src="21" channelNumber="0,1" >
          <Parameters>
           <InterpolatingParam id="1064" interp="linr"  name="volume">
            <Keyframes>
            <Keyframe id="1065"  time="-1/1" value="1" leadInLength="0/1"  />
            <Keyframe id="1066"  time="0/1" value="0" leadInLength="0/1"  />
            <Keyframe id="1067"  time="8952/1" value="0" leadInLength="0/1"  />
            <Keyframe id="1068"  time="8953/1" value="1" leadInLength="0/1"  />
            </Keyframes>
           </InterpolatingParam>
           <Parameter id="1069"  name="captions"/>
          </Parameters>
          <Attributes>
           <Attribute id="1070" value="" name="ident"/>
           <Attribute id="1071" value="44100" name="sampleRate"/>
           <Attribute id="1072" value="16" name="bitDepth"/>
           <Attribute id="1073" value="1" name="gain"/>
           <Attribute id="1074" value="0" name="mixToMono"/>
          </Attributes>
         </AMFile>
         <VMFile id="1075" start="4768" duration="289" scalar="178929/215936" mediaStart="463031/94" mediaDuration="62405504/178929" trackNumber="0" src="21" >
          <Transformer>
           <VectorParam id="1076"  name="translation">
            <InterpolatingParam id="1077" interp="linr"  time="-9999999/1" value="0" leadInLength="0/1"  />
            <InterpolatingParam id="1078" interp="linr"  time="-9999999/1" value="0" leadInLength="0/1"  />
            <InterpolatingParam id="1079" interp="linr"  time="-9999999/1" value="0" leadInLength="0/1"  />
           </VectorParam>
           <VectorParam id="1080"  name="rotation">
            <InterpolatingParam id="1081" interp="linr"  time="-9999999/1" value="0" leadInLength="0/1"  />
            <InterpolatingParam id="1082" interp="linr"  time="-9999999/1" value="0" leadInLength="0/1"  />
            <InterpolatingParam id="1083" interp="linr"  time="-9999999/1" value="0" leadInLength="0/1"  />
           </VectorParam>
           <VectorParam id="1084"  name="shear">
            <InterpolatingParam id="1085" interp="linr"  time="-9999999/1" value="0" leadInLength="0/1"  />
            <InterpolatingParam id="1086" interp="linr"  time="-9999999/1" value="0" leadInLength="0/1"  />
            <InterpolatingParam id="1087" interp="linr"  time="-9999999/1" value="0" leadInLength="0/1"  />
           </VectorParam>
           <VectorParam id="1088"  name="scale">
            <InterpolatingParam id="1089" interp="linr"  time="-9999999/1" value="1" leadInLength="0/1"  />
            <InterpolatingParam id="1090" interp="linr"  time="-9999999/1" value="1" leadInLength="0/1"  />
            <InterpolatingParam id="1091" interp="linr"  time="-9999999/1" value="1" leadInLength="0/1"  />
           </VectorParam>
           <VectorParam id="1092"  name="anchor">
            <InterpolatingParam id="1093" interp="linr"  time="0/1" value="0" leadInLength="0/1"  />
            <InterpolatingParam id="1094" interp="linr"  time="0/1" value="0" leadInLength="0/1"  />
            <InterpolatingParam id="1095" interp="linr"  time="0/1" value="0" leadInLength="0/1"  />
           </VectorParam>
          </Transformer>
          <Parameters>
           <VectorParam id="1096"  name="sourceCrop">
            <InterpolatingParam id="1097" interp="linr"  time="0/1" value="0" leadInLength="0/1"  />
            <InterpolatingParam id="1098" interp="linr"  time="0/1" value="0" leadInLength="0/1"  />
            <InterpolatingParam id="1099" interp="linr"  time="0/1" value="0" leadInLength="0/1"  />
            <InterpolatingParam id="1100" interp="linr"  time="0/1" value="0" leadInLength="0/1"  />
           </VectorParam>
           <VectorParam id="1101"  name="geometryCrop">
            <InterpolatingParam id="1102" interp="linr"  time="-9999999/1" value="0" leadInLength="0/1"  />
            <InterpolatingParam id="1103" interp="linr"  time="-9999999/1" value="0" leadInLength="0/1"  />
            <InterpolatingParam id="1104" interp="linr"  time="-9999999/1" value="0" leadInLength="0/1"  />
            <InterpolatingParam id="1105" interp="linr"  time="-9999999/1" value="0" leadInLength="0/1"  />
           </VectorParam>
           <InterpolatingParam id="1106" interp="linr"  time="-9999999/1" value="1" leadInLength="0/1"  name="opacity"/>
          </Parameters>
          <Attributes>
           <Attribute id="1107" value="" name="ident"/>
          </Attributes>
          <ExtraData>
           <Entry key="ZoomPanBin">
            <ZoomPanBin id="1108"  >
             <ZoomPanKeyframes>
              <ZoomPanKeyframe id="1109" timeRangeEnd="-9999999/1" timeRangeDuration="0/1" interpolaterName="linr"  />
             </ZoomPanKeyframes>
            </ZoomPanBin>
           </Entry>
          </ExtraData>
         </VMFile>
         <MetaData>
          <entry key="WinSubProjectDisplayName" val=""/>
         </MetaData>
        </UnifiedMedia>
        <UnifiedMedia id="1110"  >
         <AMFile id="1111" start="5057" duration="134" scalar="11988243/9825088" mediaStart="1906140521/357858" mediaDuration="19650176/178929" trackNumber="1" src="21" channelNumber="0,1" >
          <Parameters>
           <InterpolatingParam id="1112" interp="linr"  name="volume">
            <Keyframes>
            <Keyframe id="1113"  time="-1/1" value="1" leadInLength="0/1"  />
            <Keyframe id="1114"  time="0/1" value="0" leadInLength="0/1"  />
            <Keyframe id="1115"  time="8952/1" value="0" leadInLength="0/1"  />
            <Keyframe id="1116"  time="8953/1" value="1" leadInLength="0/1"  />
            </Keyframes>
           </InterpolatingParam>
           <Parameter id="1117"  name="captions"/>
          </Parameters>
          <Attributes>
           <Attribute id="1118" value="" name="ident"/>
           <Attribute id="1119" value="44100" name="sampleRate"/>
           <Attribute id="1120" value="16" name="bitDepth"/>
           <Attribute id="1121" value="1" name="gain"/>
           <Attribute id="1122" value="0" name="mixToMono"/>
          </Attributes>
         </AMFile>
         <VMFile id="1123" start="5057" duration="134" scalar="11988243/9825088" mediaStart="1906140521/357858" mediaDuration="19650176/178929" trackNumber="0" src="21" >
          <Transformer>
           <VectorParam id="1124"  name="translation">
            <InterpolatingParam id="1125" interp="linr"  time="-9999999/1" value="0" leadInLength="0/1"  />
            <InterpolatingParam id="1126" interp="linr"  time="-9999999/1" value="0" leadInLength="0/1"  />
            <InterpolatingParam id="1127" interp="linr"  time="-9999999/1" value="0" leadInLength="0/1"  />
           </VectorParam>
           <VectorParam id="1128"  name="rotation">
            <InterpolatingParam id="1129" interp="linr"  time="-9999999/1" value="0" leadInLength="0/1"  />
            <InterpolatingParam id="1130" interp="linr"  time="-9999999/1" value="0" leadInLength="0/1"  />
            <InterpolatingParam id="1131" interp="linr"  time="-9999999/1" value="0" leadInLength="0/1"  />
           </VectorParam>
           <VectorParam id="1132"  name="shear">
            <InterpolatingParam id="1133" interp="linr"  time="-9999999/1" value="0" leadInLength="0/1"  />
            <InterpolatingParam id="1134" interp="linr"  time="-9999999/1" value="0" leadInLength="0/1"  />
            <InterpolatingParam id="1135" interp="linr"  time="-9999999/1" value="0" leadInLength="0/1"  />
           </VectorParam>
           <VectorParam id="1136"  name="scale">
            <InterpolatingParam id="1137" interp="linr"  time="-9999999/1" value="1" leadInLength="0/1"  />
            <InterpolatingParam id="1138" interp="linr"  time="-9999999/1" value="1" leadInLength="0/1"  />
            <InterpolatingParam id="1139" interp="linr"  time="-9999999/1" value="1" leadInLength="0/1"  />
           </VectorParam>
           <VectorParam id="1140"  name="anchor">
            <InterpolatingParam id="1141" interp="linr"  time="0/1" value="0" leadInLength="0/1"  />
            <InterpolatingParam id="1142" interp="linr"  time="0/1" value="0" leadInLength="0/1"  />
            <InterpolatingParam id="1143" interp="linr"  time="0/1" value="0" leadInLength="0/1"  />
           </VectorParam>
          </Transformer>
          <Parameters>
           <VectorParam id="1144"  name="sourceCrop">
            <InterpolatingParam id="1145" interp="linr"  time="0/1" value="0" leadInLength="0/1"  />
            <InterpolatingParam id="1146" interp="linr"  time="0/1" value="0" leadInLength="0/1"  />
            <InterpolatingParam id="1147" interp="linr"  time="0/1" value="0" leadInLength="0/1"  />
            <InterpolatingParam id="1148" interp="linr"  time="0/1" value="0" leadInLength="0/1"  />
           </VectorParam>
           <VectorParam id="1149"  name="geometryCrop">
            <InterpolatingParam id="1150" interp="linr"  time="-9999999/1" value="0" leadInLength="0/1"  />
            <InterpolatingParam id="1151" interp="linr"  time="-9999999/1" value="0" leadInLength="0/1"  />
            <InterpolatingParam id="1152" interp="linr"  time="-9999999/1" value="0" leadInLength="0/1"  />
            <InterpolatingParam id="1153" interp="linr"  time="-9999999/1" value="0" leadInLength="0/1"  />
           </VectorParam>
           <InterpolatingParam id="1154" interp="linr"  time="-9999999/1" value="1" leadInLength="0/1"  name="opacity"/>
          </Parameters>
          <Attributes>
           <Attribute id="1155" value="" name="ident"/>
          </Attributes>
          <ExtraData>
           <Entry key="ZoomPanBin">
            <ZoomPanBin id="1156"  >
             <ZoomPanKeyframes>
              <ZoomPanKeyframe id="1157" timeRangeEnd="-9999999/1" timeRangeDuration="0/1" interpolaterName="linr"  />
             </ZoomPanKeyframes>
            </ZoomPanBin>
           </Entry>
          </ExtraData>
         </VMFile>
         <MetaData>
          <entry key="WinSubProjectDisplayName" val=""/>
         </MetaData>
        </UnifiedMedia>
        <UnifiedMedia id="1158"  >
         <AMFile id="1159" start="5191" duration="235" scalar="198810/99533" mediaStart="4599151/846" mediaDuration="99533/846" trackNumber="1" src="21" channelNumber="0,1" >
          <Parameters>
           <InterpolatingParam id="1160" interp="linr"  name="volume">
            <Keyframes>
            <Keyframe id="1161"  time="-1/1" value="1" leadInLength="0/1"  />
            <Keyframe id="1162"  time="0/1" value="0" leadInLength="0/1"  />
            <Keyframe id="1163"  time="8952/1" value="0" leadInLength="0/1"  />
            <Keyframe id="1164"  time="8953/1" value="1" leadInLength="0/1"  />
            </Keyframes>
           </InterpolatingParam>
           <Parameter id="1165"  name="captions"/>
          </Parameters>
          <Attributes>
           <Attribute id="1166" value="" name="ident"/>
           <Attribute id="1167" value="44100" name="sampleRate"/>
           <Attribute id="1168" value="16" name="bitDepth"/>
           <Attribute id="1169" value="1" name="gain"/>
           <Attribute id="1170" value="0" name="mixToMono"/>
          </Attributes>
         </AMFile>
         <VMFile id="1171" start="5191" duration="235" scalar="198810/99533" mediaStart="4599151/846" mediaDuration="99533/846" trackNumber="0" src="21" >
          <Transformer>
           <VectorParam id="1172"  name="translation">
            <InterpolatingParam id="1173" interp="linr"  time="-9999999/1" value="0" leadInLength="0/1"  />
            <InterpolatingParam id="1174" interp="linr"  time="-9999999/1" value="0" leadInLength="0/1"  />
            <InterpolatingParam id="1175" interp="linr"  time="-9999999/1" value="0" leadInLength="0/1"  />
           </VectorParam>
           <VectorParam id="1176"  name="rotation">
            <InterpolatingParam id="1177" interp="linr"  time="-9999999/1" value="0" leadInLength="0/1"  />
            <InterpolatingParam id="1178" interp="linr"  time="-9999999/1" value="0" leadInLength="0/1"  />
            <InterpolatingParam id="1179" interp="linr"  time="-9999999/1" value="0" leadInLength="0/1"  />
           </VectorParam>
           <VectorParam id="1180"  name="shear">
            <InterpolatingParam id="1181" interp="linr"  time="-9999999/1" value="0" leadInLength="0/1"  />
            <InterpolatingParam id="1182" interp="linr"  time="-9999999/1" value="0" leadInLength="0/1"  />
            <InterpolatingParam id="1183" interp="linr"  time="-9999999/1" value="0" leadInLength="0/1"  />
           </VectorParam>
           <VectorParam id="1184"  name="scale">
            <InterpolatingParam id="1185" interp="linr"  time="-9999999/1" value="1" leadInLength="0/1"  />
            <InterpolatingParam id="1186" interp="linr"  time="-9999999/1" value="1" leadInLength="0/1"  />
            <InterpolatingParam id="1187" interp="linr"  time="-9999999/1" value="1" leadInLength="0/1"  />
           </VectorParam>
           <VectorParam id="1188"  name="anchor">
            <InterpolatingParam id="1189" interp="linr"  time="0/1" value="0" leadInLength="0/1"  />
            <InterpolatingParam id="1190" interp="linr"  time="0/1" value="0" leadInLength="0/1"  />
            <InterpolatingParam id="1191" interp="linr"  time="0/1" value="0" leadInLength="0/1"  />
           </VectorParam>
          </Transformer>
          <Parameters>
           <VectorParam id="1192"  name="sourceCrop">
            <InterpolatingParam id="1193" interp="linr"  time="0/1" value="0" leadInLength="0/1"  />
            <InterpolatingParam id="1194" interp="linr"  time="0/1" value="0" leadInLength="0/1"  />
            <InterpolatingParam id="1195" interp="linr"  time="0/1" value="0" leadInLength="0/1"  />
            <InterpolatingParam id="1196" interp="linr"  time="0/1" value="0" leadInLength="0/1"  />
           </VectorParam>
           <VectorParam id="1197"  name="geometryCrop">
            <InterpolatingParam id="1198" interp="linr"  time="-9999999/1" value="0" leadInLength="0/1"  />
            <InterpolatingParam id="1199" interp="linr"  time="-9999999/1" value="0" leadInLength="0/1"  />
            <InterpolatingParam id="1200" interp="linr"  time="-9999999/1" value="0" leadInLength="0/1"  />
            <InterpolatingParam id="1201" interp="linr"  time="-9999999/1" value="0" leadInLength="0/1"  />
           </VectorParam>
           <InterpolatingParam id="1202" interp="linr"  time="-9999999/1" value="1" leadInLength="0/1"  name="opacity"/>
          </Parameters>
          <Attributes>
           <Attribute id="1203" value="" name="ident"/>
          </Attributes>
          <ExtraData>
           <Entry key="ZoomPanBin">
            <ZoomPanBin id="1204"  >
             <ZoomPanKeyframes>
              <ZoomPanKeyframe id="1205" timeRangeEnd="-9999999/1" timeRangeDuration="0/1" interpolaterName="linr"  />
             </ZoomPanKeyframes>
            </ZoomPanBin>
           </Entry>
          </ExtraData>
         </VMFile>
         <MetaData>
          <entry key="WinSubProjectDisplayName" val=""/>
         </MetaData>
        </UnifiedMedia>
        <UnifiedMedia id="1206"  >
         <AMFile id="1207" start="5426" duration="180" scalar="12186/13817" mediaStart="5582/1" mediaDuration="138170/677" trackNumber="1" src="21" channelNumber="0,1" >
          <Parameters>
           <InterpolatingParam id="1208" interp="linr"  name="volume">
            <Keyframes>
            <Keyframe id="1209"  time="-1/1" value="1" leadInLength="0/1"  />
            <Keyframe id="1210"  time="0/1" value="0" leadInLength="0/1"  />
            <Keyframe id="1211"  time="8952/1" value="0" leadInLength="0/1"  />
            <Keyframe id="1212"  time="8953/1" value="1" leadInLength="0/1"  />
            </Keyframes>
           </InterpolatingParam>
           <Parameter id="1213"  name="captions"/>
          </Parameters>
          <Attributes>
           <Attribute id="1214" value="" name="ident"/>
           <Attribute id="1215" value="44100" name="sampleRate"/>
           <Attribute id="1216" value="16" name="bitDepth"/>
           <Attribute id="1217" value="1" name="gain"/>
           <Attribute id="1218" value="0" name="mixToMono"/>
          </Attributes>
         </AMFile>
         <VMFile id="1219" start="5426" duration="180" scalar="12186/13817" mediaStart="5582/1" mediaDuration="138170/677" trackNumber="0" src="21" >
          <Transformer>
           <VectorParam id="1220"  name="translation">
            <InterpolatingParam id="1221" interp="linr"  time="-9999999/1" value="0" leadInLength="0/1"  />
            <InterpolatingParam id="1222" interp="linr"  time="-9999999/1" value="0" leadInLength="0/1"  />
            <InterpolatingParam id="1223" interp="linr"  time="-9999999/1" value="0" leadInLength="0/1"  />
           </VectorParam>
           <VectorParam id="1224"  name="rotation">
            <InterpolatingParam id="1225" interp="linr"  time="-9999999/1" value="0" leadInLength="0/1"  />
            <InterpolatingParam id="1226" interp="linr"  time="-9999999/1" value="0" leadInLength="0/1"  />
            <InterpolatingParam id="1227" interp="linr"  time="-9999999/1" value="0" leadInLength="0/1"  />
           </VectorParam>
           <VectorParam id="1228"  name="shear">
            <InterpolatingParam id="1229" interp="linr"  time="-9999999/1" value="0" leadInLength="0/1"  />
            <InterpolatingParam id="1230" interp="linr"  time="-9999999/1" value="0" leadInLength="0/1"  />
            <InterpolatingParam id="1231" interp="linr"  time="-9999999/1" value="0" leadInLength="0/1"  />
           </VectorParam>
           <VectorParam id="1232"  name="scale">
            <InterpolatingParam id="1233" interp="linr"  time="-9999999/1" value="1" leadInLength="0/1"  />
            <InterpolatingParam id="1234" interp="linr"  time="-9999999/1" value="1" leadInLength="0/1"  />
            <InterpolatingParam id="1235" interp="linr"  time="-9999999/1" value="1" leadInLength="0/1"  />
           </VectorParam>
           <VectorParam id="1236"  name="anchor">
            <InterpolatingParam id="1237" interp="linr"  time="0/1" value="0" leadInLength="0/1"  />
            <InterpolatingParam id="1238" interp="linr"  time="0/1" value="0" leadInLength="0/1"  />
            <InterpolatingParam id="1239" interp="linr"  time="0/1" value="0" leadInLength="0/1"  />
           </VectorParam>
          </Transformer>
          <Parameters>
           <VectorParam id="1240"  name="sourceCrop">
            <InterpolatingParam id="1241" interp="linr"  time="0/1" value="0" leadInLength="0/1"  />
            <InterpolatingParam id="1242" interp="linr"  time="0/1" value="0" leadInLength="0/1"  />
            <InterpolatingParam id="1243" interp="linr"  time="0/1" value="0" leadInLength="0/1"  />
            <InterpolatingParam id="1244" interp="linr"  time="0/1" value="0" leadInLength="0/1"  />
           </VectorParam>
           <VectorParam id="1245"  name="geometryCrop">
            <InterpolatingParam id="1246" interp="linr"  time="-9999999/1" value="0" leadInLength="0/1"  />
            <InterpolatingParam id="1247" interp="linr"  time="-9999999/1" value="0" leadInLength="0/1"  />
            <InterpolatingParam id="1248" interp="linr"  time="-9999999/1" value="0" leadInLength="0/1"  />
            <InterpolatingParam id="1249" interp="linr"  time="-9999999/1" value="0" leadInLength="0/1"  />
           </VectorParam>
           <InterpolatingParam id="1250" interp="linr"  time="-9999999/1" value="1" leadInLength="0/1"  name="opacity"/>
          </Parameters>
          <Attributes>
           <Attribute id="1251" value="" name="ident"/>
          </Attributes>
          <ExtraData>
           <Entry key="ZoomPanBin">
            <ZoomPanBin id="1252"  >
             <ZoomPanKeyframes>
              <ZoomPanKeyframe id="1253" timeRangeEnd="-9999999/1" timeRangeDuration="0/1" interpolaterName="linr"  />
             </ZoomPanKeyframes>
            </ZoomPanBin>
           </Entry>
          </ExtraData>
         </VMFile>
         <MetaData>
          <entry key="WinSubProjectDisplayName" val=""/>
         </MetaData>
        </UnifiedMedia>
        <UnifiedMedia id="1254"  >
         <AMFile id="1255" start="5606" duration="98" scalar="17681209/8930500" mediaStart="3917184/677" mediaDuration="17861000/360841" trackNumber="1" src="21" channelNumber="0,1" >
          <Parameters>
           <InterpolatingParam id="1256" interp="linr"  name="volume">
            <Keyframes>
            <Keyframe id="1257"  time="-1/1" value="1" leadInLength="0/1"  />
            <Keyframe id="1258"  time="0/1" value="0" leadInLength="0/1"  />
            <Keyframe id="1259"  time="8952/1" value="0" leadInLength="0/1"  />
            <Keyframe id="1260"  time="8953/1" value="1" leadInLength="0/1"  />
            </Keyframes>
           </InterpolatingParam>
           <Parameter id="1261"  name="captions"/>
          </Parameters>
          <Attributes>
           <Attribute id="1262" value="" name="ident"/>
           <Attribute id="1263" value="44100" name="sampleRate"/>
           <Attribute id="1264" value="16" name="bitDepth"/>
           <Attribute id="1265" value="1" name="gain"/>
           <Attribute id="1266" value="0" name="mixToMono"/>
          </Attributes>
         </AMFile>
         <VMFile id="1267" start="5606" duration="98" scalar="17681209/8930500" mediaStart="3917184/677" mediaDuration="17861000/360841" trackNumber="0" src="21" >
          <Transformer>
           <VectorParam id="1268"  name="translation">
            <InterpolatingParam id="1269" interp="linr"  time="-9999999/1" value="0" leadInLength="0/1"  />
            <InterpolatingParam id="1270" interp="linr"  time="-9999999/1" value="0" leadInLength="0/1"  />
            <InterpolatingParam id="1271" interp="linr"  time="-9999999/1" value="0" leadInLength="0/1"  />
           </VectorParam>
           <VectorParam id="1272"  name="rotation">
            <InterpolatingParam id="1273" interp="linr"  time="-9999999/1" value="0" leadInLength="0/1"  />
            <InterpolatingParam id="1274" interp="linr"  time="-9999999/1" value="0" leadInLength="0/1"  />
            <InterpolatingParam id="1275" interp="linr"  time="-9999999/1" value="0" leadInLength="0/1"  />
           </VectorParam>
           <VectorParam id="1276"  name="shear">
            <InterpolatingParam id="1277" interp="linr"  time="-9999999/1" value="0" leadInLength="0/1"  />
            <InterpolatingParam id="1278" interp="linr"  time="-9999999/1" value="0" leadInLength="0/1"  />
            <InterpolatingParam id="1279" interp="linr"  time="-9999999/1" value="0" leadInLength="0/1"  />
           </VectorParam>
           <VectorParam id="1280"  name="scale">
            <InterpolatingParam id="1281" interp="linr"  time="-9999999/1" value="1" leadInLength="0/1"  />
            <InterpolatingParam id="1282" interp="linr"  time="-9999999/1" value="1" leadInLength="0/1"  />
            <InterpolatingParam id="1283" interp="linr"  time="-9999999/1" value="1" leadInLength="0/1"  />
           </VectorParam>
           <VectorParam id="1284"  name="anchor">
            <InterpolatingParam id="1285" interp="linr"  time="0/1" value="0" leadInLength="0/1"  />
            <InterpolatingParam id="1286" interp="linr"  time="0/1" value="0" leadInLength="0/1"  />
            <InterpolatingParam id="1287" interp="linr"  time="0/1" value="0" leadInLength="0/1"  />
           </VectorParam>
          </Transformer>
          <Parameters>
           <VectorParam id="1288"  name="sourceCrop">
            <InterpolatingParam id="1289" interp="linr"  time="0/1" value="0" leadInLength="0/1"  />
            <InterpolatingParam id="1290" interp="linr"  time="0/1" value="0" leadInLength="0/1"  />
            <InterpolatingParam id="1291" interp="linr"  time="0/1" value="0" leadInLength="0/1"  />
            <InterpolatingParam id="1292" interp="linr"  time="0/1" value="0" leadInLength="0/1"  />
           </VectorParam>
           <VectorParam id="1293"  name="geometryCrop">
            <InterpolatingParam id="1294" interp="linr"  time="-9999999/1" value="0" leadInLength="0/1"  />
            <InterpolatingParam id="1295" interp="linr"  time="-9999999/1" value="0" leadInLength="0/1"  />
            <InterpolatingParam id="1296" interp="linr"  time="-9999999/1" value="0" leadInLength="0/1"  />
            <InterpolatingParam id="1297" interp="linr"  time="-9999999/1" value="0" leadInLength="0/1"  />
           </VectorParam>
           <InterpolatingParam id="1298" interp="linr"  time="-9999999/1" value="1" leadInLength="0/1"  name="opacity"/>
          </Parameters>
          <Attributes>
           <Attribute id="1299" value="" name="ident"/>
          </Attributes>
          <ExtraData>
           <Entry key="ZoomPanBin">
            <ZoomPanBin id="1300"  >
             <ZoomPanKeyframes>
              <ZoomPanKeyframe id="1301" timeRangeEnd="-9999999/1" timeRangeDuration="0/1" interpolaterName="linr"  />
             </ZoomPanKeyframes>
            </ZoomPanBin>
           </Entry>
          </ExtraData>
         </VMFile>
         <MetaData>
          <entry key="WinSubProjectDisplayName" val=""/>
         </MetaData>
        </UnifiedMedia>
        <UnifiedMedia id="1302"  >
         <AMFile id="1303" start="5704" duration="151" scalar="1328951/1428880" mediaStart="2105720072/360841" mediaDuration="1428880/8801" trackNumber="1" src="21" channelNumber="0,1" >
          <Parameters>
           <InterpolatingParam id="1304" interp="linr"  name="volume">
            <Keyframes>
            <Keyframe id="1305"  time="-1/1" value="1" leadInLength="0/1"  />
            <Keyframe id="1306"  time="0/1" value="0" leadInLength="0/1"  />
            <Keyframe id="1307"  time="8952/1" value="0" leadInLength="0/1"  />
            <Keyframe id="1308"  time="8953/1" value="1" leadInLength="0/1"  />
            </Keyframes>
           </InterpolatingParam>
           <Parameter id="1309"  name="captions"/>
          </Parameters>
          <Attributes>
           <Attribute id="1310" value="" name="ident"/>
           <Attribute id="1311" value="44100" name="sampleRate"/>
           <Attribute id="1312" value="16" name="bitDepth"/>
           <Attribute id="1313" value="1" name="gain"/>
           <Attribute id="1314" value="0" name="mixToMono"/>
          </Attributes>
         </AMFile>
         <VMFile id="1315" start="5704" duration="151" scalar="1328951/1428880" mediaStart="2105720072/360841" mediaDuration="1428880/8801" trackNumber="0" src="21" >
          <Transformer>
           <VectorParam id="1316"  name="translation">
            <InterpolatingParam id="1317" interp="linr"  time="-9999999/1" value="0" leadInLength="0/1"  />
            <InterpolatingParam id="1318" interp="linr"  time="-9999999/1" value="0" leadInLength="0/1"  />
            <InterpolatingParam id="1319" interp="linr"  time="-9999999/1" value="0" leadInLength="0/1"  />
           </VectorParam>
           <VectorParam id="1320"  name="rotation">
            <InterpolatingParam id="1321" interp="linr"  time="-9999999/1" value="0" leadInLength="0/1"  />
            <InterpolatingParam id="1322" interp="linr"  time="-9999999/1" value="0" leadInLength="0/1"  />
            <InterpolatingParam id="1323" interp="linr"  time="-9999999/1" value="0" leadInLength="0/1"  />
           </VectorParam>
           <VectorParam id="1324"  name="shear">
            <InterpolatingParam id="1325" interp="linr"  time="-9999999/1" value="0" leadInLength="0/1"  />
            <InterpolatingParam id="1326" interp="linr"  time="-9999999/1" value="0" leadInLength="0/1"  />
            <InterpolatingParam id="1327" interp="linr"  time="-9999999/1" value="0" leadInLength="0/1"  />
           </VectorParam>
           <VectorParam id="1328"  name="scale">
            <InterpolatingParam id="1329" interp="linr"  time="-9999999/1" value="1" leadInLength="0/1"  />
            <InterpolatingParam id="1330" interp="linr"  time="-9999999/1" value="1" leadInLength="0/1"  />
            <InterpolatingParam id="1331" interp="linr"  time="-9999999/1" value="1" leadInLength="0/1"  />
           </VectorParam>
           <VectorParam id="1332"  name="anchor">
            <InterpolatingParam id="1333" interp="linr"  time="0/1" value="0" leadInLength="0/1"  />
            <InterpolatingParam id="1334" interp="linr"  time="0/1" value="0" leadInLength="0/1"  />
            <InterpolatingParam id="1335" interp="linr"  time="0/1" value="0" leadInLength="0/1"  />
           </VectorParam>
          </Transformer>
          <Parameters>
           <VectorParam id="1336"  name="sourceCrop">
            <InterpolatingParam id="1337" interp="linr"  time="0/1" value="0" leadInLength="0/1"  />
            <InterpolatingParam id="1338" interp="linr"  time="0/1" value="0" leadInLength="0/1"  />
            <InterpolatingParam id="1339" interp="linr"  time="0/1" value="0" leadInLength="0/1"  />
            <InterpolatingParam id="1340" interp="linr"  time="0/1" value="0" leadInLength="0/1"  />
           </VectorParam>
           <VectorParam id="1341"  name="geometryCrop">
            <InterpolatingParam id="1342" interp="linr"  time="-9999999/1" value="0" leadInLength="0/1"  />
            <InterpolatingParam id="1343" interp="linr"  time="-9999999/1" value="0" leadInLength="0/1"  />
            <InterpolatingParam id="1344" interp="linr"  time="-9999999/1" value="0" leadInLength="0/1"  />
            <InterpolatingParam id="1345" interp="linr"  time="-9999999/1" value="0" leadInLength="0/1"  />
           </VectorParam>
           <InterpolatingParam id="1346" interp="linr"  time="-9999999/1" value="1" leadInLength="0/1"  name="opacity"/>
          </Parameters>
          <Attributes>
           <Attribute id="1347" value="" name="ident"/>
          </Attributes>
          <ExtraData>
           <Entry key="ZoomPanBin">
            <ZoomPanBin id="1348"  >
             <ZoomPanKeyframes>
              <ZoomPanKeyframe id="1349" timeRangeEnd="-9999999/1" timeRangeDuration="0/1" interpolaterName="linr"  />
             </ZoomPanKeyframes>
            </ZoomPanBin>
           </Entry>
          </ExtraData>
         </VMFile>
         <MetaData>
          <entry key="WinSubProjectDisplayName" val=""/>
         </MetaData>
        </UnifiedMedia>
        <UnifiedMedia id="1350"  >
         <AMFile id="1351" start="5855" duration="183" scalar="360841/357220" mediaStart="2164304152/360841" mediaDuration="65371260/360841" trackNumber="1" src="21" channelNumber="0,1" >
          <Parameters>
           <InterpolatingParam id="1352" interp="linr"  name="volume">
            <Keyframes>
            <Keyframe id="1353"  time="-1/1" value="1" leadInLength="0/1"  />
            <Keyframe id="1354"  time="0/1" value="0" leadInLength="0/1"  />
            <Keyframe id="1355"  time="8952/1" value="0" leadInLength="0/1"  />
            <Keyframe id="1356"  time="8953/1" value="1" leadInLength="0/1"  />
            </Keyframes>
           </InterpolatingParam>
           <Parameter id="1357"  name="captions"/>
          </Parameters>
          <Attributes>
           <Attribute id="1358" value="" name="ident"/>
           <Attribute id="1359" value="44100" name="sampleRate"/>
           <Attribute id="1360" value="16" name="bitDepth"/>
           <Attribute id="1361" value="1" name="gain"/>
           <Attribute id="1362" value="0" name="mixToMono"/>
          </Attributes>
         </AMFile>
         <VMFile id="1363" start="5855" duration="183" scalar="360841/357220" mediaStart="2164304152/360841" mediaDuration="65371260/360841" trackNumber="0" src="21" >
          <Transformer>
           <VectorParam id="1364"  name="translation">
            <InterpolatingParam id="1365" interp="linr"  time="-9999999/1" value="0" leadInLength="0/1"  />
            <InterpolatingParam id="1366" interp="linr"  time="-9999999/1" value="0" leadInLength="0/1"  />
            <InterpolatingParam id="1367" interp="linr"  time="-9999999/1" value="0" leadInLength="0/1"  />
           </VectorParam>
           <VectorParam id="1368"  name="rotation">
            <InterpolatingParam id="1369" interp="linr"  time="-9999999/1" value="0" leadInLength="0/1"  />
            <InterpolatingParam id="1370" interp="linr"  time="-9999999/1" value="0" leadInLength="0/1"  />
            <InterpolatingParam id="1371" interp="linr"  time="-9999999/1" value="0" leadInLength="0/1"  />
           </VectorParam>
           <VectorParam id="1372"  name="shear">
            <InterpolatingParam id="1373" interp="linr"  time="-9999999/1" value="0" leadInLength="0/1"  />
            <InterpolatingParam id="1374" interp="linr"  time="-9999999/1" value="0" leadInLength="0/1"  />
            <InterpolatingParam id="1375" interp="linr"  time="-9999999/1" value="0" leadInLength="0/1"  />
           </VectorParam>
           <VectorParam id="1376"  name="scale">
            <InterpolatingParam id="1377" interp="linr"  time="-9999999/1" value="1" leadInLength="0/1"  />
            <InterpolatingParam id="1378" interp="linr"  time="-9999999/1" value="1" leadInLength="0/1"  />
            <InterpolatingParam id="1379" interp="linr"  time="-9999999/1" value="1" leadInLength="0/1"  />
           </VectorParam>
           <VectorParam id="1380"  name="anchor">
            <InterpolatingParam id="1381" interp="linr"  time="0/1" value="0" leadInLength="0/1"  />
            <InterpolatingParam id="1382" interp="linr"  time="0/1" value="0" leadInLength="0/1"  />
            <InterpolatingParam id="1383" interp="linr"  time="0/1" value="0" leadInLength="0/1"  />
           </VectorParam>
          </Transformer>
          <Parameters>
           <VectorParam id="1384"  name="sourceCrop">
            <InterpolatingParam id="1385" interp="linr"  time="0/1" value="0" leadInLength="0/1"  />
            <InterpolatingParam id="1386" interp="linr"  time="0/1" value="0" leadInLength="0/1"  />
            <InterpolatingParam id="1387" interp="linr"  time="0/1" value="0" leadInLength="0/1"  />
            <InterpolatingParam id="1388" interp="linr"  time="0/1" value="0" leadInLength="0/1"  />
           </VectorParam>
           <VectorParam id="1389"  name="geometryCrop">
            <InterpolatingParam id="1390" interp="linr"  time="-9999999/1" value="0" leadInLength="0/1"  />
            <InterpolatingParam id="1391" interp="linr"  time="-9999999/1" value="0" leadInLength="0/1"  />
            <InterpolatingParam id="1392" interp="linr"  time="-9999999/1" value="0" leadInLength="0/1"  />
            <InterpolatingParam id="1393" interp="linr"  time="-9999999/1" value="0" leadInLength="0/1"  />
           </VectorParam>
           <InterpolatingParam id="1394" interp="linr"  time="-9999999/1" value="1" leadInLength="0/1"  name="opacity"/>
          </Parameters>
          <Attributes>
           <Attribute id="1395" value="" name="ident"/>
          </Attributes>
          <ExtraData>
           <Entry key="ZoomPanBin">
            <ZoomPanBin id="1396"  >
             <ZoomPanKeyframes>
              <ZoomPanKeyframe id="1397" timeRangeEnd="-9999999/1" timeRangeDuration="0/1" interpolaterName="linr"  />
             </ZoomPanKeyframes>
            </ZoomPanBin>
           </Entry>
          </ExtraData>
         </VMFile>
         <MetaData>
          <entry key="WinSubProjectDisplayName" val=""/>
         </MetaData>
        </UnifiedMedia>
        <UnifiedMedia id="1398"  >
         <AMFile id="1399" start="6038" duration="99" scalar="35723259/60727400" mediaStart="2243964212/360841" mediaDuration="60727400/360841" trackNumber="1" src="21" channelNumber="0,1" >
          <Parameters>
           <InterpolatingParam id="1400" interp="linr"  name="volume">
            <Keyframes>
            <Keyframe id="1401"  time="-1/1" value="1" leadInLength="0/1"  />
            <Keyframe id="1402"  time="0/1" value="0" leadInLength="0/1"  />
            <Keyframe id="1403"  time="8952/1" value="0" leadInLength="0/1"  />
            <Keyframe id="1404"  time="8953/1" value="1" leadInLength="0/1"  />
            </Keyframes>
           </InterpolatingParam>
           <Parameter id="1405"  name="captions"/>
          </Parameters>
          <Attributes>
           <Attribute id="1406" value="" name="ident"/>
           <Attribute id="1407" value="44100" name="sampleRate"/>
           <Attribute id="1408" value="16" name="bitDepth"/>
           <Attribute id="1409" value="1" name="gain"/>
           <Attribute id="1410" value="0" name="mixToMono"/>
          </Attributes>
         </AMFile>
         <VMFile id="1411" start="6038" duration="99" scalar="35723259/60727400" mediaStart="2243964212/360841" mediaDuration="60727400/360841" trackNumber="0" src="21" >
          <Transformer>
           <VectorParam id="1412"  name="translation">
            <InterpolatingParam id="1413" interp="linr"  time="-9999999/1" value="0" leadInLength="0/1"  />
            <InterpolatingParam id="1414" interp="linr"  time="-9999999/1" value="0" leadInLength="0/1"  />
            <InterpolatingParam id="1415" interp="linr"  time="-9999999/1" value="0" leadInLength="0/1"  />
           </VectorParam>
           <VectorParam id="1416"  name="rotation">
            <InterpolatingParam id="1417" interp="linr"  time="-9999999/1" value="0" leadInLength="0/1"  />
            <InterpolatingParam id="1418" interp="linr"  time="-9999999/1" value="0" leadInLength="0/1"  />
            <InterpolatingParam id="1419" interp="linr"  time="-9999999/1" value="0" leadInLength="0/1"  />
           </VectorParam>
           <VectorParam id="1420"  name="shear">
            <InterpolatingParam id="1421" interp="linr"  time="-9999999/1" value="0" leadInLength="0/1"  />
            <InterpolatingParam id="1422" interp="linr"  time="-9999999/1" value="0" leadInLength="0/1"  />
            <InterpolatingParam id="1423" interp="linr"  time="-9999999/1" value="0" leadInLength="0/1"  />
           </VectorParam>
           <VectorParam id="1424"  name="scale">
            <InterpolatingParam id="1425" interp="linr"  time="-9999999/1" value="1" leadInLength="0/1"  />
            <InterpolatingParam id="1426" interp="linr"  time="-9999999/1" value="1" leadInLength="0/1"  />
            <InterpolatingParam id="1427" interp="linr"  time="-9999999/1" value="1" leadInLength="0/1"  />
           </VectorParam>
           <VectorParam id="1428"  name="anchor">
            <InterpolatingParam id="1429" interp="linr"  time="0/1" value="0" leadInLength="0/1"  />
            <InterpolatingParam id="1430" interp="linr"  time="0/1" value="0" leadInLength="0/1"  />
            <InterpolatingParam id="1431" interp="linr"  time="0/1" value="0" leadInLength="0/1"  />
           </VectorParam>
          </Transformer>
          <Parameters>
           <VectorParam id="1432"  name="sourceCrop">
            <InterpolatingParam id="1433" interp="linr"  time="0/1" value="0" leadInLength="0/1"  />
            <InterpolatingParam id="1434" interp="linr"  time="0/1" value="0" leadInLength="0/1"  />
            <InterpolatingParam id="1435" interp="linr"  time="0/1" value="0" leadInLength="0/1"  />
            <InterpolatingParam id="1436" interp="linr"  time="0/1" value="0" leadInLength="0/1"  />
           </VectorParam>
           <VectorParam id="1437"  name="geometryCrop">
            <InterpolatingParam id="1438" interp="linr"  time="-9999999/1" value="0" leadInLength="0/1"  />
            <InterpolatingParam id="1439" interp="linr"  time="-9999999/1" value="0" leadInLength="0/1"  />
            <InterpolatingParam id="1440" interp="linr"  time="-9999999/1" value="0" leadInLength="0/1"  />
            <InterpolatingParam id="1441" interp="linr"  time="-9999999/1" value="0" leadInLength="0/1"  />
           </VectorParam>
           <InterpolatingParam id="1442" interp="linr"  time="-9999999/1" value="1" leadInLength="0/1"  name="opacity"/>
          </Parameters>
          <Attributes>
           <Attribute id="1443" value="" name="ident"/>
          </Attributes>
          <ExtraData>
           <Entry key="ZoomPanBin">
            <ZoomPanBin id="1444"  >
             <ZoomPanKeyframes>
              <ZoomPanKeyframe id="1445" timeRangeEnd="-9999999/1" timeRangeDuration="0/1" interpolaterName="linr"  />
             </ZoomPanKeyframes>
            </ZoomPanBin>
           </Entry>
          </ExtraData>
         </VMFile>
         <MetaData>
          <entry key="WinSubProjectDisplayName" val=""/>
         </MetaData>
        </UnifiedMedia>
        <UnifiedMedia id="1446"  >
         <AMFile id="1447" start="6137" duration="192" scalar="17320368/20450845" mediaStart="2304691612/360841" mediaDuration="81803380/360841" trackNumber="1" src="21" channelNumber="0,1" >
          <Parameters>
           <InterpolatingParam id="1448" interp="linr"  name="volume">
            <Keyframes>
            <Keyframe id="1449"  time="-1/1" value="1" leadInLength="0/1"  />
            <Keyframe id="1450"  time="0/1" value="0" leadInLength="0/1"  />
            <Keyframe id="1451"  time="8952/1" value="0" leadInLength="0/1"  />
            <Keyframe id="1452"  time="8953/1" value="1" leadInLength="0/1"  />
            </Keyframes>
           </InterpolatingParam>
           <Parameter id="1453"  name="captions"/>
          </Parameters>
          <Attributes>
           <Attribute id="1454" value="" name="ident"/>
           <Attribute id="1455" value="44100" name="sampleRate"/>
           <Attribute id="1456" value="16" name="bitDepth"/>
           <Attribute id="1457" value="1" name="gain"/>
           <Attribute id="1458" value="0" name="mixToMono"/>
          </Attributes>
         </AMFile>
         <VMFile id="1459" start="6137" duration="192" scalar="17320368/20450845" mediaStart="2304691612/360841" mediaDuration="81803380/360841" trackNumber="0" src="21" >
          <Transformer>
           <VectorParam id="1460"  name="translation">
            <InterpolatingParam id="1461" interp="linr"  time="-9999999/1" value="2.9084290531500294e-011" leadInLength="0/1"  />
            <InterpolatingParam id="1462" interp="linr"  time="-9999999/1" value="-1.9934276451749607e-011" leadInLength="0/1"  />
            <InterpolatingParam id="1463" interp="linr"  time="-9999999/1" value="0" leadInLength="0/1"  />
           </VectorParam>
           <VectorParam id="1464"  name="rotation">
            <InterpolatingParam id="1465" interp="linr"  time="-9999999/1" value="0" leadInLength="0/1"  />
            <InterpolatingParam id="1466" interp="linr"  time="-9999999/1" value="0" leadInLength="0/1"  />
            <InterpolatingParam id="1467" interp="linr"  time="-9999999/1" value="0" leadInLength="0/1"  />
           </VectorParam>
           <VectorParam id="1468"  name="shear">
            <InterpolatingParam id="1469" interp="linr"  time="-9999999/1" value="0" leadInLength="0/1"  />
            <InterpolatingParam id="1470" interp="linr"  time="-9999999/1" value="0" leadInLength="0/1"  />
            <InterpolatingParam id="1471" interp="linr"  time="-9999999/1" value="0" leadInLength="0/1"  />
           </VectorParam>
           <VectorParam id="1472"  name="scale">
            <InterpolatingParam id="1473" interp="linr"  time="-9999999/1" value="1.0000000000000002" leadInLength="0/1"  />
            <InterpolatingParam id="1474" interp="linr"  time="-9999999/1" value="1.0000000000000002" leadInLength="0/1"  />
            <InterpolatingParam id="1475" interp="linr"  time="-9999999/1" value="0.99999999999999989" leadInLength="0/1"  />
           </VectorParam>
           <VectorParam id="1476"  name="anchor">
            <InterpolatingParam id="1477" interp="linr"  time="0/1" value="0" leadInLength="0/1"  />
            <InterpolatingParam id="1478" interp="linr"  time="0/1" value="0" leadInLength="0/1"  />
            <InterpolatingParam id="1479" interp="linr"  time="0/1" value="0" leadInLength="0/1"  />
           </VectorParam>
          </Transformer>
          <Parameters>
           <VectorParam id="1480"  name="sourceCrop">
            <InterpolatingParam id="1481" interp="linr"  time="0/1" value="0" leadInLength="0/1"  />
            <InterpolatingParam id="1482" interp="linr"  time="0/1" value="0" leadInLength="0/1"  />
            <InterpolatingParam id="1483" interp="linr"  time="0/1" value="0" leadInLength="0/1"  />
            <InterpolatingParam id="1484" interp="linr"  time="0/1" value="0" leadInLength="0/1"  />
           </VectorParam>
           <VectorParam id="1485"  name="geometryCrop">
            <InterpolatingParam id="1486" interp="linr"  time="-9999999/1" value="0" leadInLength="0/1"  />
            <InterpolatingParam id="1487" interp="linr"  time="-9999999/1" value="0" leadInLength="0/1"  />
            <InterpolatingParam id="1488" interp="linr"  time="-9999999/1" value="0" leadInLength="0/1"  />
            <InterpolatingParam id="1489" interp="linr"  time="-9999999/1" value="0" leadInLength="0/1"  />
           </VectorParam>
           <InterpolatingParam id="1490" interp="linr"  time="-9999999/1" value="1" leadInLength="0/1"  name="opacity"/>
          </Parameters>
          <Attributes>
           <Attribute id="1491" value="" name="ident"/>
          </Attributes>
          <ExtraData>
           <Entry key="ZoomPanBin">
            <ZoomPanBin id="1492"  >
             <ZoomPanKeyframes>
              <ZoomPanKeyframe id="1493" timeRangeEnd="-9999999/1" timeRangeDuration="0/1" interpolaterName="linr"  />
             </ZoomPanKeyframes>
            </ZoomPanBin>
           </Entry>
          </ExtraData>
         </VMFile>
         <MetaData>
          <entry key="WinSubProjectDisplayName" val=""/>
         </MetaData>
        </UnifiedMedia>
        <UnifiedMedia id="1494"  >
         <AMFile id="1495" start="6329" duration="398" scalar="1751399/1250270" mediaStart="2386494992/360841" mediaDuration="2500540/8801" trackNumber="1" src="21" channelNumber="0,1" >
          <Parameters>
           <InterpolatingParam id="1496" interp="linr"  name="volume">
            <Keyframes>
            <Keyframe id="1497"  time="-1/1" value="1" leadInLength="0/1"  />
            <Keyframe id="1498"  time="0/1" value="0" leadInLength="0/1"  />
            <Keyframe id="1499"  time="8952/1" value="0" leadInLength="0/1"  />
            <Keyframe id="1500"  time="8953/1" value="1" leadInLength="0/1"  />
            </Keyframes>
           </InterpolatingParam>
           <Parameter id="1501"  name="captions"/>
          </Parameters>
          <Attributes>
           <Attribute id="1502" value="" name="ident"/>
           <Attribute id="1503" value="44100" name="sampleRate"/>
           <Attribute id="1504" value="16" name="bitDepth"/>
           <Attribute id="1505" value="1" name="gain"/>
           <Attribute id="1506" value="0" name="mixToMono"/>
          </Attributes>
         </AMFile>
         <VMFile id="1507" start="6329" duration="398" scalar="1751399/1250270" mediaStart="2386494992/360841" mediaDuration="2500540/8801" trackNumber="0" src="21" >
          <Transformer>
           <VectorParam id="1508"  name="translation">
            <InterpolatingParam id="1509" interp="linr"  time="-9999999/1" value="0" leadInLength="0/1"  />
            <InterpolatingParam id="1510" interp="linr"  time="-9999999/1" value="0" leadInLength="0/1"  />
            <InterpolatingParam id="1511" interp="linr"  time="-9999999/1" value="0" leadInLength="0/1"  />
           </VectorParam>
           <VectorParam id="1512"  name="rotation">
            <InterpolatingParam id="1513" interp="linr"  time="-9999999/1" value="0" leadInLength="0/1"  />
            <InterpolatingParam id="1514" interp="linr"  time="-9999999/1" value="0" leadInLength="0/1"  />
            <InterpolatingParam id="1515" interp="linr"  time="-9999999/1" value="0" leadInLength="0/1"  />
           </VectorParam>
           <VectorParam id="1516"  name="shear">
            <InterpolatingParam id="1517" interp="linr"  time="-9999999/1" value="0" leadInLength="0/1"  />
            <InterpolatingParam id="1518" interp="linr"  time="-9999999/1" value="0" leadInLength="0/1"  />
            <InterpolatingParam id="1519" interp="linr"  time="-9999999/1" value="0" leadInLength="0/1"  />
           </VectorParam>
           <VectorParam id="1520"  name="scale">
            <InterpolatingParam id="1521" interp="linr"  time="-9999999/1" value="1" leadInLength="0/1"  />
            <InterpolatingParam id="1522" interp="linr"  time="-9999999/1" value="1" leadInLength="0/1"  />
            <InterpolatingParam id="1523" interp="linr"  time="-9999999/1" value="1" leadInLength="0/1"  />
           </VectorParam>
           <VectorParam id="1524"  name="anchor">
            <InterpolatingParam id="1525" interp="linr"  time="0/1" value="0" leadInLength="0/1"  />
            <InterpolatingParam id="1526" interp="linr"  time="0/1" value="0" leadInLength="0/1"  />
            <InterpolatingParam id="1527" interp="linr"  time="0/1" value="0" leadInLength="0/1"  />
           </VectorParam>
          </Transformer>
          <Parameters>
           <VectorParam id="1528"  name="sourceCrop">
            <InterpolatingParam id="1529" interp="linr"  time="0/1" value="0" leadInLength="0/1"  />
            <InterpolatingParam id="1530" interp="linr"  time="0/1" value="0" leadInLength="0/1"  />
            <InterpolatingParam id="1531" interp="linr"  time="0/1" value="0" leadInLength="0/1"  />
            <InterpolatingParam id="1532" interp="linr"  time="0/1" value="0" leadInLength="0/1"  />
           </VectorParam>
           <VectorParam id="1533"  name="geometryCrop">
            <InterpolatingParam id="1534" interp="linr"  time="-9999999/1" value="0" leadInLength="0/1"  />
            <InterpolatingParam id="1535" interp="linr"  time="-9999999/1" value="0" leadInLength="0/1"  />
            <InterpolatingParam id="1536" interp="linr"  time="-9999999/1" value="0" leadInLength="0/1"  />
            <InterpolatingParam id="1537" interp="linr"  time="-9999999/1" value="0" leadInLength="0/1"  />
           </VectorParam>
           <InterpolatingParam id="1538" interp="linr"  time="-9999999/1" value="1" leadInLength="0/1"  name="opacity"/>
          </Parameters>
          <Attributes>
           <Attribute id="1539" value="" name="ident"/>
          </Attributes>
          <ExtraData>
           <Entry key="ZoomPanBin">
            <ZoomPanBin id="1540"  >
             <ZoomPanKeyframes>
              <ZoomPanKeyframe id="1541" timeRangeEnd="-9999999/1" timeRangeDuration="0/1" interpolaterName="linr"  />
             </ZoomPanKeyframes>
            </ZoomPanBin>
           </Entry>
          </ExtraData>
         </VMFile>
         <MetaData>
          <entry key="WinSubProjectDisplayName" val=""/>
         </MetaData>
        </UnifiedMedia>
        <UnifiedMedia id="1542"  >
         <AMFile id="1543" start="6727" duration="139" scalar="414245468/207312627" mediaStart="425335760/61607" mediaDuration="28816455153/414245468" trackNumber="1" src="21" channelNumber="0,1" >
          <Parameters>
           <InterpolatingParam id="1544" interp="linr"  name="volume">
            <Keyframes>
            <Keyframe id="1545"  time="-1/1" value="1" leadInLength="0/1"  />
            <Keyframe id="1546"  time="0/1" value="0" leadInLength="0/1"  />
            <Keyframe id="1547"  time="8952/1" value="0" leadInLength="0/1"  />
            <Keyframe id="1548"  time="8953/1" value="1" leadInLength="0/1"  />
            </Keyframes>
           </InterpolatingParam>
           <Parameter id="1549"  name="captions"/>
          </Parameters>
          <Attributes>
           <Attribute id="1550" value="" name="ident"/>
           <Attribute id="1551" value="44100" name="sampleRate"/>
           <Attribute id="1552" value="16" name="bitDepth"/>
           <Attribute id="1553" value="1" name="gain"/>
           <Attribute id="1554" value="0" name="mixToMono"/>
          </Attributes>
         </AMFile>
         <VMFile id="1555" start="6727" duration="139" scalar="414245468/207312627" mediaStart="425335760/61607" mediaDuration="28816455153/414245468" trackNumber="0" src="21" >
          <Transformer>
           <VectorParam id="1556"  name="translation">
            <InterpolatingParam id="1557" interp="linr"  time="-9999999/1" value="0" leadInLength="0/1"  />
            <InterpolatingParam id="1558" interp="linr"  time="-9999999/1" value="0" leadInLength="0/1"  />
            <InterpolatingParam id="1559" interp="linr"  time="-9999999/1" value="0" leadInLength="0/1"  />
           </VectorParam>
           <VectorParam id="1560"  name="rotation">
            <InterpolatingParam id="1561" interp="linr"  time="-9999999/1" value="0" leadInLength="0/1"  />
            <InterpolatingParam id="1562" interp="linr"  time="-9999999/1" value="0" leadInLength="0/1"  />
            <InterpolatingParam id="1563" interp="linr"  time="-9999999/1" value="0" leadInLength="0/1"  />
           </VectorParam>
           <VectorParam id="1564"  name="shear">
            <InterpolatingParam id="1565" interp="linr"  time="-9999999/1" value="0" leadInLength="0/1"  />
            <InterpolatingParam id="1566" interp="linr"  time="-9999999/1" value="0" leadInLength="0/1"  />
            <InterpolatingParam id="1567" interp="linr"  time="-9999999/1" value="0" leadInLength="0/1"  />
           </VectorParam>
           <VectorParam id="1568"  name="scale">
            <InterpolatingParam id="1569" interp="linr"  time="-9999999/1" value="1" leadInLength="0/1"  />
            <InterpolatingParam id="1570" interp="linr"  time="-9999999/1" value="1" leadInLength="0/1"  />
            <InterpolatingParam id="1571" interp="linr"  time="-9999999/1" value="1" leadInLength="0/1"  />
           </VectorParam>
           <VectorParam id="1572"  name="anchor">
            <InterpolatingParam id="1573" interp="linr"  time="0/1" value="0" leadInLength="0/1"  />
            <InterpolatingParam id="1574" interp="linr"  time="0/1" value="0" leadInLength="0/1"  />
            <InterpolatingParam id="1575" interp="linr"  time="0/1" value="0" leadInLength="0/1"  />
           </VectorParam>
          </Transformer>
          <Parameters>
           <VectorParam id="1576"  name="sourceCrop">
            <InterpolatingParam id="1577" interp="linr"  time="0/1" value="0" leadInLength="0/1"  />
            <InterpolatingParam id="1578" interp="linr"  time="0/1" value="0" leadInLength="0/1"  />
            <InterpolatingParam id="1579" interp="linr"  time="0/1" value="0" leadInLength="0/1"  />
            <InterpolatingParam id="1580" interp="linr"  time="0/1" value="0" leadInLength="0/1"  />
           </VectorParam>
           <VectorParam id="1581"  name="geometryCrop">
            <InterpolatingParam id="1582" interp="linr"  time="-9999999/1" value="0" leadInLength="0/1"  />
            <InterpolatingParam id="1583" interp="linr"  time="-9999999/1" value="0" leadInLength="0/1"  />
            <InterpolatingParam id="1584" interp="linr"  time="-9999999/1" value="0" leadInLength="0/1"  />
            <InterpolatingParam id="1585" interp="linr"  time="-9999999/1" value="0" leadInLength="0/1"  />
           </VectorParam>
           <InterpolatingParam id="1586" interp="linr"  time="-9999999/1" value="1" leadInLength="0/1"  name="opacity"/>
          </Parameters>
          <Attributes>
           <Attribute id="1587" value="" name="ident"/>
          </Attributes>
          <ExtraData>
           <Entry key="ZoomPanBin">
            <ZoomPanBin id="1588"  >
             <ZoomPanKeyframes>
              <ZoomPanKeyframe id="1589" timeRangeEnd="-9999999/1" timeRangeDuration="0/1" interpolaterName="linr"  />
             </ZoomPanKeyframes>
            </ZoomPanBin>
           </Entry>
          </ExtraData>
         </VMFile>
         <MetaData>
          <entry key="WinSubProjectDisplayName" val=""/>
         </MetaData>
        </UnifiedMedia>
        <StitchedMedia id="1590" start="6866" duration="32" scalar="52327/29485" mediaStart="3375/104654" mediaDuration="943520/52327" minMediaStart="-5833616625/104654" >
         <Transformer>
          <VectorParam id="1591"  name="translation">
           <InterpolatingParam id="1592" interp="linr"  time="-9999999/1" value="0" leadInLength="0/1"  />
           <InterpolatingParam id="1593" interp="linr"  time="-9999999/1" value="0" leadInLength="0/1"  />
           <InterpolatingParam id="1594" interp="linr"  time="-9999999/1" value="0" leadInLength="0/1"  />
          </VectorParam>
          <VectorParam id="1595"  name="rotation">
           <InterpolatingParam id="1596" interp="linr"  time="-9999999/1" value="0" leadInLength="0/1"  />
           <InterpolatingParam id="1597" interp="linr"  time="-9999999/1" value="0" leadInLength="0/1"  />
           <InterpolatingParam id="1598" interp="linr"  time="-9999999/1" value="0" leadInLength="0/1"  />
          </VectorParam>
          <VectorParam id="1599"  name="shear">
           <InterpolatingParam id="1600" interp="linr"  time="-9999999/1" value="0" leadInLength="0/1"  />
           <InterpolatingParam id="1601" interp="linr"  time="-9999999/1" value="0" leadInLength="0/1"  />
           <InterpolatingParam id="1602" interp="linr"  time="-9999999/1" value="0" leadInLength="0/1"  />
          </VectorParam>
          <VectorParam id="1603"  name="scale">
           <InterpolatingParam id="1604" interp="linr"  time="-9999999/1" value="1" leadInLength="0/1"  />
           <InterpolatingParam id="1605" interp="linr"  time="-9999999/1" value="1" leadInLength="0/1"  />
           <InterpolatingParam id="1606" interp="linr"  time="-9999999/1" value="1" leadInLength="0/1"  />
          </VectorParam>
          <VectorParam id="1607"  name="anchor">
           <InterpolatingParam id="1608" interp="linr"  time="0/1" value="0" leadInLength="0/1"  />
           <InterpolatingParam id="1609" interp="linr"  time="0/1" value="0" leadInLength="0/1"  />
           <InterpolatingParam id="1610" interp="linr"  time="0/1" value="0" leadInLength="0/1"  />
          </VectorParam>
         </Transformer>
         <Parameters>
          <VectorParam id="1611"  name="sourceCrop">
           <InterpolatingParam id="1612" interp="linr"  time="0/1" value="0" leadInLength="0/1"  />
           <InterpolatingParam id="1613" interp="linr"  time="0/1" value="0" leadInLength="0/1"  />
           <InterpolatingParam id="1614" interp="linr"  time="0/1" value="0" leadInLength="0/1"  />
           <InterpolatingParam id="1615" interp="linr"  time="0/1" value="0" leadInLength="0/1"  />
          </VectorParam>
          <VectorParam id="1616"  name="geometryCrop">
           <InterpolatingParam id="1617" interp="linr"  time="-9999999/1" value="0" leadInLength="0/1"  />
           <InterpolatingParam id="1618" interp="linr"  time="-9999999/1" value="0" leadInLength="0/1"  />
           <InterpolatingParam id="1619" interp="linr"  time="-9999999/1" value="0" leadInLength="0/1"  />
           <InterpolatingParam id="1620" interp="linr"  time="-9999999/1" value="0" leadInLength="0/1"  />
          </VectorParam>
          <InterpolatingParam id="1621" interp="linr"  time="-9999999/1" value="1" leadInLength="0/1"  name="opacity"/>
          <InterpolatingParam id="1622" interp="linr"  time="0/1" value="1" leadInLength="0/1"  name="cursorOpacity"/>
          <InterpolatingParam id="1623" interp="linr"  time="0/1" value="1" leadInLength="0/1"  name="cursorScale"/>
          <InterpolatingParam id="1624" interp="linr"  name="volume">
           <Keyframes>
           <Keyframe id="1625"  time="-5833616625/104654" value="0" leadInLength="0/1"  />
           <Keyframe id="1626"  time="143611/9514" value="0" leadInLength="0/1"  />
           <Keyframe id="1627"  time="17/1" value="0" leadInLength="0/1"  />
           </Keyframes>
          </InterpolatingParam>
          <Parameter id="1628"  name="captions"/>
         </Parameters>
         <Attributes>
          <Attribute id="1629" value="" name="ident"/>
          <Attribute id="1630" value="0" name="mixToMono"/>
         </Attributes>
         <MetaData>
          <entry key="WinSubProjectDisplayName" val=""/>
         </MetaData>
         <ExtraData>
          <Entry key="ZoomPanBin">
           <ZoomPanBin id="1631"  >
            <ZoomPanKeyframes>
             <ZoomPanKeyframe id="1632" timeRangeEnd="-9999999/1" timeRangeDuration="0/1" interpolaterName="linr"  />
            </ZoomPanKeyframes>
           </ZoomPanBin>
          </Entry>
          <Entry key="CursorEffectBin">
           <CursorEffectBin id="1633"  >
            <CursorEffectKeyframes>
            </CursorEffectKeyframes>
           </CursorEffectBin>
          </Entry>
         </ExtraData>
         <GenericTrack id="1634"  >
          <Attributes>
           <Attribute id="1635" value="" name="ident"/>
           <Attribute id="1636" value="0" name="audioMuted"/>
           <Attribute id="1637" value="0" name="videoHidden"/>
          </Attributes>
          <MetaData>
           <entry key="IsLocked" val="False"/>
           <entry key="WinTrackHeight" val="0"/>
          </MetaData>
          <Medias>
           <IMFile id="1638" start="-55742" duration="55758" scalar="1/1" mediaStart="6973/1" mediaDuration="1/1" trackNumber="0" src="21" trimStartSum="-55742/1" >
            <Transformer>
             <VectorParam id="1639"  name="translation">
              <InterpolatingParam id="1640" interp="linr"  time="-9999999/1" value="0" leadInLength="0/1"  />
              <InterpolatingParam id="1641" interp="linr"  time="-9999999/1" value="0" leadInLength="0/1"  />
              <InterpolatingParam id="1642" interp="linr"  time="-9999999/1" value="0" leadInLength="0/1"  />
             </VectorParam>
             <VectorParam id="1643"  name="rotation">
              <InterpolatingParam id="1644" interp="linr"  time="-9999999/1" value="0" leadInLength="0/1"  />
              <InterpolatingParam id="1645" interp="linr"  time="-9999999/1" value="0" leadInLength="0/1"  />
              <InterpolatingParam id="1646" interp="linr"  time="-9999999/1" value="0" leadInLength="0/1"  />
             </VectorParam>
             <VectorParam id="1647"  name="shear">
              <InterpolatingParam id="1648" interp="linr"  time="-9999999/1" value="0" leadInLength="0/1"  />
              <InterpolatingParam id="1649" interp="linr"  time="-9999999/1" value="0" leadInLength="0/1"  />
              <InterpolatingParam id="1650" interp="linr"  time="-9999999/1" value="0" leadInLength="0/1"  />
             </VectorParam>
             <VectorParam id="1651"  name="scale">
              <InterpolatingParam id="1652" interp="linr"  time="-9999999/1" value="1" leadInLength="0/1"  />
              <InterpolatingParam id="1653" interp="linr"  time="-9999999/1" value="1" leadInLength="0/1"  />
              <InterpolatingParam id="1654" interp="linr"  time="-9999999/1" value="1" leadInLength="0/1"  />
             </VectorParam>
             <VectorParam id="1655"  name="anchor">
              <InterpolatingParam id="1656" interp="linr"  time="0/1" value="0" leadInLength="0/1"  />
              <InterpolatingParam id="1657" interp="linr"  time="0/1" value="0" leadInLength="0/1"  />
              <InterpolatingParam id="1658" interp="linr"  time="0/1" value="0" leadInLength="0/1"  />
             </VectorParam>
            </Transformer>
            <Parameters>
             <VectorParam id="1659"  name="sourceCrop">
              <InterpolatingParam id="1660" interp="linr"  time="0/1" value="0" leadInLength="0/1"  />
              <InterpolatingParam id="1661" interp="linr"  time="0/1" value="0" leadInLength="0/1"  />
              <InterpolatingParam id="1662" interp="linr"  time="0/1" value="0" leadInLength="0/1"  />
              <InterpolatingParam id="1663" interp="linr"  time="0/1" value="0" leadInLength="0/1"  />
             </VectorParam>
             <VectorParam id="1664"  name="geometryCrop">
              <InterpolatingParam id="1665" interp="linr"  time="-9999999/1" value="0" leadInLength="0/1"  />
              <InterpolatingParam id="1666" interp="linr"  time="-9999999/1" value="0" leadInLength="0/1"  />
              <InterpolatingParam id="1667" interp="linr"  time="-9999999/1" value="0" leadInLength="0/1"  />
              <InterpolatingParam id="1668" interp="linr"  time="-9999999/1" value="0" leadInLength="0/1"  />
             </VectorParam>
             <InterpolatingParam id="1669" interp="linr"  time="-9999999/1" value="1" leadInLength="0/1"  name="opacity"/>
            </Parameters>
            <Attributes>
             <Attribute id="1670" value="" name="ident"/>
            </Attributes>
            <MetaData>
             <entry key="WinSubProjectDisplayName" val=""/>
            </MetaData>
            <ExtraData>
             <Entry key="ZoomPanBin">
              <ZoomPanBin id="1671"  >
               <ZoomPanKeyframes>
                <ZoomPanKeyframe id="1672" timeRangeEnd="-9999999/1" timeRangeDuration="0/1" interpolaterName="linr"  />
               </ZoomPanKeyframes>
              </ZoomPanBin>
             </Entry>
            </ExtraData>
           </IMFile>
           <UnifiedMedia id="1673"  >
            <AMFile id="1674" start="16" duration="1979" scalar="1/1" mediaStart="6973/1" mediaDuration="1979/1" trackNumber="1" src="21" channelNumber="0,1" >
             <Parameters>
              <InterpolatingParam id="1675" interp="linr"  time="0/1" value="1" leadInLength="0/1"  name="volume"/>
              <Parameter id="1676"  name="captions"/>
             </Parameters>
             <Attributes>
              <Attribute id="1677" value="" name="ident"/>
              <Attribute id="1678" value="44100" name="sampleRate"/>
              <Attribute id="1679" value="16" name="bitDepth"/>
              <Attribute id="1680" value="1" name="gain"/>
              <Attribute id="1681" value="0" name="mixToMono"/>
             </Attributes>
            </AMFile>
            <VMFile id="1682" start="16" duration="1979" scalar="1/1" mediaStart="6973/1" mediaDuration="1979/1" trackNumber="0" src="21" >
             <Transformer>
              <VectorParam id="1683"  name="translation">
               <InterpolatingParam id="1684" interp="linr"  time="-9999999/1" value="0" leadInLength="0/1"  />
               <InterpolatingParam id="1685" interp="linr"  time="-9999999/1" value="0" leadInLength="0/1"  />
               <InterpolatingParam id="1686" interp="linr"  time="-9999999/1" value="0" leadInLength="0/1"  />
              </VectorParam>
              <VectorParam id="1687"  name="rotation">
               <InterpolatingParam id="1688" interp="linr"  time="-9999999/1" value="0" leadInLength="0/1"  />
               <InterpolatingParam id="1689" interp="linr"  time="-9999999/1" value="0" leadInLength="0/1"  />
               <InterpolatingParam id="1690" interp="linr"  time="-9999999/1" value="0" leadInLength="0/1"  />
              </VectorParam>
              <VectorParam id="1691"  name="shear">
               <InterpolatingParam id="1692" interp="linr"  time="-9999999/1" value="0" leadInLength="0/1"  />
               <InterpolatingParam id="1693" interp="linr"  time="-9999999/1" value="0" leadInLength="0/1"  />
               <InterpolatingParam id="1694" interp="linr"  time="-9999999/1" value="0" leadInLength="0/1"  />
              </VectorParam>
              <VectorParam id="1695"  name="scale">
               <InterpolatingParam id="1696" interp="linr"  time="-9999999/1" value="1" leadInLength="0/1"  />
               <InterpolatingParam id="1697" interp="linr"  time="-9999999/1" value="1" leadInLength="0/1"  />
               <InterpolatingParam id="1698" interp="linr"  time="-9999999/1" value="1" leadInLength="0/1"  />
              </VectorParam>
              <VectorParam id="1699"  name="anchor">
               <InterpolatingParam id="1700" interp="linr"  time="0/1" value="0" leadInLength="0/1"  />
               <InterpolatingParam id="1701" interp="linr"  time="0/1" value="0" leadInLength="0/1"  />
               <InterpolatingParam id="1702" interp="linr"  time="0/1" value="0" leadInLength="0/1"  />
              </VectorParam>
             </Transformer>
             <Parameters>
              <VectorParam id="1703"  name="sourceCrop">
               <InterpolatingParam id="1704" interp="linr"  time="0/1" value="0" leadInLength="0/1"  />
               <InterpolatingParam id="1705" interp="linr"  time="0/1" value="0" leadInLength="0/1"  />
               <InterpolatingParam id="1706" interp="linr"  time="0/1" value="0" leadInLength="0/1"  />
               <InterpolatingParam id="1707" interp="linr"  time="0/1" value="0" leadInLength="0/1"  />
              </VectorParam>
              <VectorParam id="1708"  name="geometryCrop">
               <InterpolatingParam id="1709" interp="linr"  time="-9999999/1" value="0" leadInLength="0/1"  />
               <InterpolatingParam id="1710" interp="linr"  time="-9999999/1" value="0" leadInLength="0/1"  />
               <InterpolatingParam id="1711" interp="linr"  time="-9999999/1" value="0" leadInLength="0/1"  />
               <InterpolatingParam id="1712" interp="linr"  time="-9999999/1" value="0" leadInLength="0/1"  />
              </VectorParam>
              <InterpolatingParam id="1713" interp="linr"  time="-9999999/1" value="1" leadInLength="0/1"  name="opacity"/>
             </Parameters>
             <Attributes>
              <Attribute id="1714" value="" name="ident"/>
             </Attributes>
             <ExtraData>
              <Entry key="ZoomPanBin">
               <ZoomPanBin id="1715"  >
                <ZoomPanKeyframes>
                 <ZoomPanKeyframe id="1716" timeRangeEnd="-9999999/1" timeRangeDuration="0/1" interpolaterName="linr"  />
                </ZoomPanKeyframes>
               </ZoomPanBin>
              </Entry>
             </ExtraData>
            </VMFile>
            <MetaData>
             <entry key="WinSubProjectDisplayName" val=""/>
            </MetaData>
           </UnifiedMedia>
          </Medias>
         </GenericTrack>
        </StitchedMedia>
        <StitchedMedia id="1717" start="6898" duration="32" scalar="52327/29485" mediaStart="3375/104654" mediaDuration="943520/52327" minMediaStart="-5833616625/104654" >
         <Transformer>
          <VectorParam id="1718"  name="translation">
           <InterpolatingParam id="1719" interp="linr"  time="-9999999/1" value="0" leadInLength="0/1"  />
           <InterpolatingParam id="1720" interp="linr"  time="-9999999/1" value="0" leadInLength="0/1"  />
           <InterpolatingParam id="1721" interp="linr"  time="-9999999/1" value="0" leadInLength="0/1"  />
          </VectorParam>
          <VectorParam id="1722"  name="rotation">
           <InterpolatingParam id="1723" interp="linr"  time="-9999999/1" value="0" leadInLength="0/1"  />
           <InterpolatingParam id="1724" interp="linr"  time="-9999999/1" value="0" leadInLength="0/1"  />
           <InterpolatingParam id="1725" interp="linr"  time="-9999999/1" value="0" leadInLength="0/1"  />
          </VectorParam>
          <VectorParam id="1726"  name="shear">
           <InterpolatingParam id="1727" interp="linr"  time="-9999999/1" value="0" leadInLength="0/1"  />
           <InterpolatingParam id="1728" interp="linr"  time="-9999999/1" value="0" leadInLength="0/1"  />
           <InterpolatingParam id="1729" interp="linr"  time="-9999999/1" value="0" leadInLength="0/1"  />
          </VectorParam>
          <VectorParam id="1730"  name="scale">
           <InterpolatingParam id="1731" interp="linr"  time="-9999999/1" value="1" leadInLength="0/1"  />
           <InterpolatingParam id="1732" interp="linr"  time="-9999999/1" value="1" leadInLength="0/1"  />
           <InterpolatingParam id="1733" interp="linr"  time="-9999999/1" value="1" leadInLength="0/1"  />
          </VectorParam>
          <VectorParam id="1734"  name="anchor">
           <InterpolatingParam id="1735" interp="linr"  time="0/1" value="0" leadInLength="0/1"  />
           <InterpolatingParam id="1736" interp="linr"  time="0/1" value="0" leadInLength="0/1"  />
           <InterpolatingParam id="1737" interp="linr"  time="0/1" value="0" leadInLength="0/1"  />
          </VectorParam>
         </Transformer>
         <Parameters>
          <VectorParam id="1738"  name="sourceCrop">
           <InterpolatingParam id="1739" interp="linr"  time="0/1" value="0" leadInLength="0/1"  />
           <InterpolatingParam id="1740" interp="linr"  time="0/1" value="0" leadInLength="0/1"  />
           <InterpolatingParam id="1741" interp="linr"  time="0/1" value="0" leadInLength="0/1"  />
           <InterpolatingParam id="1742" interp="linr"  time="0/1" value="0" leadInLength="0/1"  />
          </VectorParam>
          <VectorParam id="1743"  name="geometryCrop">
           <InterpolatingParam id="1744" interp="linr"  time="-9999999/1" value="0" leadInLength="0/1"  />
           <InterpolatingParam id="1745" interp="linr"  time="-9999999/1" value="0" leadInLength="0/1"  />
           <InterpolatingParam id="1746" interp="linr"  time="-9999999/1" value="0" leadInLength="0/1"  />
           <InterpolatingParam id="1747" interp="linr"  time="-9999999/1" value="0" leadInLength="0/1"  />
          </VectorParam>
          <InterpolatingParam id="1748" interp="linr"  time="-9999999/1" value="1" leadInLength="0/1"  name="opacity"/>
          <InterpolatingParam id="1749" interp="linr"  time="0/1" value="1" leadInLength="0/1"  name="cursorOpacity"/>
          <InterpolatingParam id="1750" interp="linr"  time="0/1" value="1" leadInLength="0/1"  name="cursorScale"/>
          <InterpolatingParam id="1751" interp="linr"  name="volume">
           <Keyframes>
           <Keyframe id="1752"  time="-5833616625/104654" value="0" leadInLength="0/1"  />
           <Keyframe id="1753"  time="143611/9514" value="0" leadInLength="0/1"  />
           <Keyframe id="1754"  time="17/1" value="0" leadInLength="0/1"  />
           </Keyframes>
          </InterpolatingParam>
          <Parameter id="1755"  name="captions"/>
         </Parameters>
         <Attributes>
          <Attribute id="1756" value="" name="ident"/>
          <Attribute id="1757" value="0" name="mixToMono"/>
         </Attributes>
         <MetaData>
          <entry key="WinSubProjectDisplayName" val=""/>
         </MetaData>
         <ExtraData>
          <Entry key="ZoomPanBin">
           <ZoomPanBin id="1758"  >
            <ZoomPanKeyframes>
             <ZoomPanKeyframe id="1759" timeRangeEnd="-9999999/1" timeRangeDuration="0/1" interpolaterName="linr"  />
            </ZoomPanKeyframes>
           </ZoomPanBin>
          </Entry>
          <Entry key="CursorEffectBin">
           <CursorEffectBin id="1760"  >
            <CursorEffectKeyframes>
            </CursorEffectKeyframes>
           </CursorEffectBin>
          </Entry>
         </ExtraData>
         <GenericTrack id="1761"  >
          <Attributes>
           <Attribute id="1762" value="" name="ident"/>
           <Attribute id="1763" value="0" name="audioMuted"/>
           <Attribute id="1764" value="0" name="videoHidden"/>
          </Attributes>
          <MetaData>
           <entry key="IsLocked" val="False"/>
           <entry key="WinTrackHeight" val="0"/>
          </MetaData>
          <Medias>
           <IMFile id="1765" start="-55742" duration="55758" scalar="1/1" mediaStart="6973/1" mediaDuration="1/1" trackNumber="0" src="21" trimStartSum="-55742/1" >
            <Transformer>
             <VectorParam id="1766"  name="translation">
              <InterpolatingParam id="1767" interp="linr"  time="-9999999/1" value="0" leadInLength="0/1"  />
              <InterpolatingParam id="1768" interp="linr"  time="-9999999/1" value="0" leadInLength="0/1"  />
              <InterpolatingParam id="1769" interp="linr"  time="-9999999/1" value="0" leadInLength="0/1"  />
             </VectorParam>
             <VectorParam id="1770"  name="rotation">
              <InterpolatingParam id="1771" interp="linr"  time="-9999999/1" value="0" leadInLength="0/1"  />
              <InterpolatingParam id="1772" interp="linr"  time="-9999999/1" value="0" leadInLength="0/1"  />
              <InterpolatingParam id="1773" interp="linr"  time="-9999999/1" value="0" leadInLength="0/1"  />
             </VectorParam>
             <VectorParam id="1774"  name="shear">
              <InterpolatingParam id="1775" interp="linr"  time="-9999999/1" value="0" leadInLength="0/1"  />
              <InterpolatingParam id="1776" interp="linr"  time="-9999999/1" value="0" leadInLength="0/1"  />
              <InterpolatingParam id="1777" interp="linr"  time="-9999999/1" value="0" leadInLength="0/1"  />
             </VectorParam>
             <VectorParam id="1778"  name="scale">
              <InterpolatingParam id="1779" interp="linr"  time="-9999999/1" value="1" leadInLength="0/1"  />
              <InterpolatingParam id="1780" interp="linr"  time="-9999999/1" value="1" leadInLength="0/1"  />
              <InterpolatingParam id="1781" interp="linr"  time="-9999999/1" value="1" leadInLength="0/1"  />
             </VectorParam>
             <VectorParam id="1782"  name="anchor">
              <InterpolatingParam id="1783" interp="linr"  time="0/1" value="0" leadInLength="0/1"  />
              <InterpolatingParam id="1784" interp="linr"  time="0/1" value="0" leadInLength="0/1"  />
              <InterpolatingParam id="1785" interp="linr"  time="0/1" value="0" leadInLength="0/1"  />
             </VectorParam>
            </Transformer>
            <Parameters>
             <VectorParam id="1786"  name="sourceCrop">
              <InterpolatingParam id="1787" interp="linr"  time="0/1" value="0" leadInLength="0/1"  />
              <InterpolatingParam id="1788" interp="linr"  time="0/1" value="0" leadInLength="0/1"  />
              <InterpolatingParam id="1789" interp="linr"  time="0/1" value="0" leadInLength="0/1"  />
              <InterpolatingParam id="1790" interp="linr"  time="0/1" value="0" leadInLength="0/1"  />
             </VectorParam>
             <VectorParam id="1791"  name="geometryCrop">
              <InterpolatingParam id="1792" interp="linr"  time="-9999999/1" value="0" leadInLength="0/1"  />
              <InterpolatingParam id="1793" interp="linr"  time="-9999999/1" value="0" leadInLength="0/1"  />
              <InterpolatingParam id="1794" interp="linr"  time="-9999999/1" value="0" leadInLength="0/1"  />
              <InterpolatingParam id="1795" interp="linr"  time="-9999999/1" value="0" leadInLength="0/1"  />
             </VectorParam>
             <InterpolatingParam id="1796" interp="linr"  time="-9999999/1" value="1" leadInLength="0/1"  name="opacity"/>
            </Parameters>
            <Attributes>
             <Attribute id="1797" value="" name="ident"/>
            </Attributes>
            <MetaData>
             <entry key="WinSubProjectDisplayName" val=""/>
            </MetaData>
            <ExtraData>
             <Entry key="ZoomPanBin">
              <ZoomPanBin id="1798"  >
               <ZoomPanKeyframes>
                <ZoomPanKeyframe id="1799" timeRangeEnd="-9999999/1" timeRangeDuration="0/1" interpolaterName="linr"  />
               </ZoomPanKeyframes>
              </ZoomPanBin>
             </Entry>
            </ExtraData>
           </IMFile>
           <UnifiedMedia id="1800"  >
            <AMFile id="1801" start="16" duration="1979" scalar="1/1" mediaStart="6973/1" mediaDuration="1979/1" trackNumber="1" src="21" channelNumber="0,1" >
             <Parameters>
              <InterpolatingParam id="1802" interp="linr"  time="0/1" value="1" leadInLength="0/1"  name="volume"/>
              <Parameter id="1803"  name="captions"/>
             </Parameters>
             <Attributes>
              <Attribute id="1804" value="" name="ident"/>
              <Attribute id="1805" value="44100" name="sampleRate"/>
              <Attribute id="1806" value="16" name="bitDepth"/>
              <Attribute id="1807" value="1" name="gain"/>
              <Attribute id="1808" value="0" name="mixToMono"/>
             </Attributes>
            </AMFile>
            <VMFile id="1809" start="16" duration="1979" scalar="1/1" mediaStart="6973/1" mediaDuration="1979/1" trackNumber="0" src="21" >
             <Transformer>
              <VectorParam id="1810"  name="translation">
               <InterpolatingParam id="1811" interp="linr"  time="-9999999/1" value="0" leadInLength="0/1"  />
               <InterpolatingParam id="1812" interp="linr"  time="-9999999/1" value="0" leadInLength="0/1"  />
               <InterpolatingParam id="1813" interp="linr"  time="-9999999/1" value="0" leadInLength="0/1"  />
              </VectorParam>
              <VectorParam id="1814"  name="rotation">
               <InterpolatingParam id="1815" interp="linr"  time="-9999999/1" value="0" leadInLength="0/1"  />
               <InterpolatingParam id="1816" interp="linr"  time="-9999999/1" value="0" leadInLength="0/1"  />
               <InterpolatingParam id="1817" interp="linr"  time="-9999999/1" value="0" leadInLength="0/1"  />
              </VectorParam>
              <VectorParam id="1818"  name="shear">
               <InterpolatingParam id="1819" interp="linr"  time="-9999999/1" value="0" leadInLength="0/1"  />
               <InterpolatingParam id="1820" interp="linr"  time="-9999999/1" value="0" leadInLength="0/1"  />
               <InterpolatingParam id="1821" interp="linr"  time="-9999999/1" value="0" leadInLength="0/1"  />
              </VectorParam>
              <VectorParam id="1822"  name="scale">
               <InterpolatingParam id="1823" interp="linr"  time="-9999999/1" value="1" leadInLength="0/1"  />
               <InterpolatingParam id="1824" interp="linr"  time="-9999999/1" value="1" leadInLength="0/1"  />
               <InterpolatingParam id="1825" interp="linr"  time="-9999999/1" value="1" leadInLength="0/1"  />
              </VectorParam>
              <VectorParam id="1826"  name="anchor">
               <InterpolatingParam id="1827" interp="linr"  time="0/1" value="0" leadInLength="0/1"  />
               <InterpolatingParam id="1828" interp="linr"  time="0/1" value="0" leadInLength="0/1"  />
               <InterpolatingParam id="1829" interp="linr"  time="0/1" value="0" leadInLength="0/1"  />
              </VectorParam>
             </Transformer>
             <Parameters>
              <VectorParam id="1830"  name="sourceCrop">
               <InterpolatingParam id="1831" interp="linr"  time="0/1" value="0" leadInLength="0/1"  />
               <InterpolatingParam id="1832" interp="linr"  time="0/1" value="0" leadInLength="0/1"  />
               <InterpolatingParam id="1833" interp="linr"  time="0/1" value="0" leadInLength="0/1"  />
               <InterpolatingParam id="1834" interp="linr"  time="0/1" value="0" leadInLength="0/1"  />
              </VectorParam>
              <VectorParam id="1835"  name="geometryCrop">
               <InterpolatingParam id="1836" interp="linr"  time="-9999999/1" value="0" leadInLength="0/1"  />
               <InterpolatingParam id="1837" interp="linr"  time="-9999999/1" value="0" leadInLength="0/1"  />
               <InterpolatingParam id="1838" interp="linr"  time="-9999999/1" value="0" leadInLength="0/1"  />
               <InterpolatingParam id="1839" interp="linr"  time="-9999999/1" value="0" leadInLength="0/1"  />
              </VectorParam>
              <InterpolatingParam id="1840" interp="linr"  time="-9999999/1" value="1" leadInLength="0/1"  name="opacity"/>
             </Parameters>
             <Attributes>
              <Attribute id="1841" value="" name="ident"/>
             </Attributes>
             <ExtraData>
              <Entry key="ZoomPanBin">
               <ZoomPanBin id="1842"  >
                <ZoomPanKeyframes>
                 <ZoomPanKeyframe id="1843" timeRangeEnd="-9999999/1" timeRangeDuration="0/1" interpolaterName="linr"  />
                </ZoomPanKeyframes>
               </ZoomPanBin>
              </Entry>
             </ExtraData>
            </VMFile>
            <MetaData>
             <entry key="WinSubProjectDisplayName" val=""/>
            </MetaData>
           </UnifiedMedia>
          </Medias>
         </GenericTrack>
        </StitchedMedia>
        <StitchedMedia id="1844" start="6930" duration="20" scalar="52327/47176" mediaStart="3375/104654" mediaDuration="943520/52327" minMediaStart="-5833616625/104654" >
         <Transformer>
          <VectorParam id="1845"  name="translation">
           <InterpolatingParam id="1846" interp="linr"  time="-9999999/1" value="0" leadInLength="0/1"  />
           <InterpolatingParam id="1847" interp="linr"  time="-9999999/1" value="0" leadInLength="0/1"  />
           <InterpolatingParam id="1848" interp="linr"  time="-9999999/1" value="0" leadInLength="0/1"  />
          </VectorParam>
          <VectorParam id="1849"  name="rotation">
           <InterpolatingParam id="1850" interp="linr"  time="-9999999/1" value="0" leadInLength="0/1"  />
           <InterpolatingParam id="1851" interp="linr"  time="-9999999/1" value="0" leadInLength="0/1"  />
           <InterpolatingParam id="1852" interp="linr"  time="-9999999/1" value="0" leadInLength="0/1"  />
          </VectorParam>
          <VectorParam id="1853"  name="shear">
           <InterpolatingParam id="1854" interp="linr"  time="-9999999/1" value="0" leadInLength="0/1"  />
           <InterpolatingParam id="1855" interp="linr"  time="-9999999/1" value="0" leadInLength="0/1"  />
           <InterpolatingParam id="1856" interp="linr"  time="-9999999/1" value="0" leadInLength="0/1"  />
          </VectorParam>
          <VectorParam id="1857"  name="scale">
           <InterpolatingParam id="1858" interp="linr"  time="-9999999/1" value="1" leadInLength="0/1"  />
           <InterpolatingParam id="1859" interp="linr"  time="-9999999/1" value="1" leadInLength="0/1"  />
           <InterpolatingParam id="1860" interp="linr"  time="-9999999/1" value="1" leadInLength="0/1"  />
          </VectorParam>
          <VectorParam id="1861"  name="anchor">
           <InterpolatingParam id="1862" interp="linr"  time="0/1" value="0" leadInLength="0/1"  />
           <InterpolatingParam id="1863" interp="linr"  time="0/1" value="0" leadInLength="0/1"  />
           <InterpolatingParam id="1864" interp="linr"  time="0/1" value="0" leadInLength="0/1"  />
          </VectorParam>
         </Transformer>
         <Parameters>
          <VectorParam id="1865"  name="sourceCrop">
           <InterpolatingParam id="1866" interp="linr"  time="0/1" value="0" leadInLength="0/1"  />
           <InterpolatingParam id="1867" interp="linr"  time="0/1" value="0" leadInLength="0/1"  />
           <InterpolatingParam id="1868" interp="linr"  time="0/1" value="0" leadInLength="0/1"  />
           <InterpolatingParam id="1869" interp="linr"  time="0/1" value="0" leadInLength="0/1"  />
          </VectorParam>
          <VectorParam id="1870"  name="geometryCrop">
           <InterpolatingParam id="1871" interp="linr"  time="-9999999/1" value="0" leadInLength="0/1"  />
           <InterpolatingParam id="1872" interp="linr"  time="-9999999/1" value="0" leadInLength="0/1"  />
           <InterpolatingParam id="1873" interp="linr"  time="-9999999/1" value="0" leadInLength="0/1"  />
           <InterpolatingParam id="1874" interp="linr"  time="-9999999/1" value="0" leadInLength="0/1"  />
          </VectorParam>
          <InterpolatingParam id="1875" interp="linr"  time="-9999999/1" value="1" leadInLength="0/1"  name="opacity"/>
          <InterpolatingParam id="1876" interp="linr"  time="0/1" value="1" leadInLength="0/1"  name="cursorOpacity"/>
          <InterpolatingParam id="1877" interp="linr"  time="0/1" value="1" leadInLength="0/1"  name="cursorScale"/>
          <InterpolatingParam id="1878" interp="linr"  name="volume">
           <Keyframes>
           <Keyframe id="1879"  time="-5833616625/104654" value="0" leadInLength="0/1"  />
           <Keyframe id="1880"  time="143611/9514" value="0" leadInLength="0/1"  />
           <Keyframe id="1881"  time="17/1" value="0" leadInLength="0/1"  />
           </Keyframes>
          </InterpolatingParam>
          <Parameter id="1882"  name="captions"/>
         </Parameters>
         <Attributes>
          <Attribute id="1883" value="" name="ident"/>
          <Attribute id="1884" value="0" name="mixToMono"/>
         </Attributes>
         <MetaData>
          <entry key="WinSubProjectDisplayName" val=""/>
         </MetaData>
         <ExtraData>
          <Entry key="ZoomPanBin">
           <ZoomPanBin id="1885"  >
            <ZoomPanKeyframes>
             <ZoomPanKeyframe id="1886" timeRangeEnd="-9999999/1" timeRangeDuration="0/1" interpolaterName="linr"  />
            </ZoomPanKeyframes>
           </ZoomPanBin>
          </Entry>
          <Entry key="CursorEffectBin">
           <CursorEffectBin id="1887"  >
            <CursorEffectKeyframes>
            </CursorEffectKeyframes>
           </CursorEffectBin>
          </Entry>
         </ExtraData>
         <GenericTrack id="1888"  >
          <Attributes>
           <Attribute id="1889" value="" name="ident"/>
           <Attribute id="1890" value="0" name="audioMuted"/>
           <Attribute id="1891" value="0" name="videoHidden"/>
          </Attributes>
          <MetaData>
           <entry key="IsLocked" val="False"/>
           <entry key="WinTrackHeight" val="0"/>
          </MetaData>
          <Medias>
           <IMFile id="1892" start="-55742" duration="55758" scalar="1/1" mediaStart="6973/1" mediaDuration="1/1" trackNumber="0" src="21" trimStartSum="-55742/1" >
            <Transformer>
             <VectorParam id="1893"  name="translation">
              <InterpolatingParam id="1894" interp="linr"  time="-9999999/1" value="0" leadInLength="0/1"  />
              <InterpolatingParam id="1895" interp="linr"  time="-9999999/1" value="0" leadInLength="0/1"  />
              <InterpolatingParam id="1896" interp="linr"  time="-9999999/1" value="0" leadInLength="0/1"  />
             </VectorParam>
             <VectorParam id="1897"  name="rotation">
              <InterpolatingParam id="1898" interp="linr"  time="-9999999/1" value="0" leadInLength="0/1"  />
              <InterpolatingParam id="1899" interp="linr"  time="-9999999/1" value="0" leadInLength="0/1"  />
              <InterpolatingParam id="1900" interp="linr"  time="-9999999/1" value="0" leadInLength="0/1"  />
             </VectorParam>
             <VectorParam id="1901"  name="shear">
              <InterpolatingParam id="1902" interp="linr"  time="-9999999/1" value="0" leadInLength="0/1"  />
              <InterpolatingParam id="1903" interp="linr"  time="-9999999/1" value="0" leadInLength="0/1"  />
              <InterpolatingParam id="1904" interp="linr"  time="-9999999/1" value="0" leadInLength="0/1"  />
             </VectorParam>
             <VectorParam id="1905"  name="scale">
              <InterpolatingParam id="1906" interp="linr"  time="-9999999/1" value="1" leadInLength="0/1"  />
              <InterpolatingParam id="1907" interp="linr"  time="-9999999/1" value="1" leadInLength="0/1"  />
              <InterpolatingParam id="1908" interp="linr"  time="-9999999/1" value="1" leadInLength="0/1"  />
             </VectorParam>
             <VectorParam id="1909"  name="anchor">
              <InterpolatingParam id="1910" interp="linr"  time="0/1" value="0" leadInLength="0/1"  />
              <InterpolatingParam id="1911" interp="linr"  time="0/1" value="0" leadInLength="0/1"  />
              <InterpolatingParam id="1912" interp="linr"  time="0/1" value="0" leadInLength="0/1"  />
             </VectorParam>
            </Transformer>
            <Parameters>
             <VectorParam id="1913"  name="sourceCrop">
              <InterpolatingParam id="1914" interp="linr"  time="0/1" value="0" leadInLength="0/1"  />
              <InterpolatingParam id="1915" interp="linr"  time="0/1" value="0" leadInLength="0/1"  />
              <InterpolatingParam id="1916" interp="linr"  time="0/1" value="0" leadInLength="0/1"  />
              <InterpolatingParam id="1917" interp="linr"  time="0/1" value="0" leadInLength="0/1"  />
             </VectorParam>
             <VectorParam id="1918"  name="geometryCrop">
              <InterpolatingParam id="1919" interp="linr"  time="-9999999/1" value="0" leadInLength="0/1"  />
              <InterpolatingParam id="1920" interp="linr"  time="-9999999/1" value="0" leadInLength="0/1"  />
              <InterpolatingParam id="1921" interp="linr"  time="-9999999/1" value="0" leadInLength="0/1"  />
              <InterpolatingParam id="1922" interp="linr"  time="-9999999/1" value="0" leadInLength="0/1"  />
             </VectorParam>
             <InterpolatingParam id="1923" interp="linr"  time="-9999999/1" value="1" leadInLength="0/1"  name="opacity"/>
            </Parameters>
            <Attributes>
             <Attribute id="1924" value="" name="ident"/>
            </Attributes>
            <MetaData>
             <entry key="WinSubProjectDisplayName" val=""/>
            </MetaData>
            <ExtraData>
             <Entry key="ZoomPanBin">
              <ZoomPanBin id="1925"  >
               <ZoomPanKeyframes>
                <ZoomPanKeyframe id="1926" timeRangeEnd="-9999999/1" timeRangeDuration="0/1" interpolaterName="linr"  />
               </ZoomPanKeyframes>
              </ZoomPanBin>
             </Entry>
            </ExtraData>
           </IMFile>
           <UnifiedMedia id="1927"  >
            <AMFile id="1928" start="16" duration="1979" scalar="1/1" mediaStart="6973/1" mediaDuration="1979/1" trackNumber="1" src="21" channelNumber="0,1" >
             <Parameters>
              <InterpolatingParam id="1929" interp="linr"  time="0/1" value="1" leadInLength="0/1"  name="volume"/>
              <Parameter id="1930"  name="captions"/>
             </Parameters>
             <Attributes>
              <Attribute id="1931" value="" name="ident"/>
              <Attribute id="1932" value="44100" name="sampleRate"/>
              <Attribute id="1933" value="16" name="bitDepth"/>
              <Attribute id="1934" value="1" name="gain"/>
              <Attribute id="1935" value="0" name="mixToMono"/>
             </Attributes>
            </AMFile>
            <VMFile id="1936" start="16" duration="1979" scalar="1/1" mediaStart="6973/1" mediaDuration="1979/1" trackNumber="0" src="21" >
             <Transformer>
              <VectorParam id="1937"  name="translation">
               <InterpolatingParam id="1938" interp="linr"  time="-9999999/1" value="0" leadInLength="0/1"  />
               <InterpolatingParam id="1939" interp="linr"  time="-9999999/1" value="0" leadInLength="0/1"  />
               <InterpolatingParam id="1940" interp="linr"  time="-9999999/1" value="0" leadInLength="0/1"  />
              </VectorParam>
              <VectorParam id="1941"  name="rotation">
               <InterpolatingParam id="1942" interp="linr"  time="-9999999/1" value="0" leadInLength="0/1"  />
               <InterpolatingParam id="1943" interp="linr"  time="-9999999/1" value="0" leadInLength="0/1"  />
               <InterpolatingParam id="1944" interp="linr"  time="-9999999/1" value="0" leadInLength="0/1"  />
              </VectorParam>
              <VectorParam id="1945"  name="shear">
               <InterpolatingParam id="1946" interp="linr"  time="-9999999/1" value="0" leadInLength="0/1"  />
               <InterpolatingParam id="1947" interp="linr"  time="-9999999/1" value="0" leadInLength="0/1"  />
               <InterpolatingParam id="1948" interp="linr"  time="-9999999/1" value="0" leadInLength="0/1"  />
              </VectorParam>
              <VectorParam id="1949"  name="scale">
               <InterpolatingParam id="1950" interp="linr"  time="-9999999/1" value="1" leadInLength="0/1"  />
               <InterpolatingParam id="1951" interp="linr"  time="-9999999/1" value="1" leadInLength="0/1"  />
               <InterpolatingParam id="1952" interp="linr"  time="-9999999/1" value="1" leadInLength="0/1"  />
              </VectorParam>
              <VectorParam id="1953"  name="anchor">
               <InterpolatingParam id="1954" interp="linr"  time="0/1" value="0" leadInLength="0/1"  />
               <InterpolatingParam id="1955" interp="linr"  time="0/1" value="0" leadInLength="0/1"  />
               <InterpolatingParam id="1956" interp="linr"  time="0/1" value="0" leadInLength="0/1"  />
              </VectorParam>
             </Transformer>
             <Parameters>
              <VectorParam id="1957"  name="sourceCrop">
               <InterpolatingParam id="1958" interp="linr"  time="0/1" value="0" leadInLength="0/1"  />
               <InterpolatingParam id="1959" interp="linr"  time="0/1" value="0" leadInLength="0/1"  />
               <InterpolatingParam id="1960" interp="linr"  time="0/1" value="0" leadInLength="0/1"  />
               <InterpolatingParam id="1961" interp="linr"  time="0/1" value="0" leadInLength="0/1"  />
              </VectorParam>
              <VectorParam id="1962"  name="geometryCrop">
               <InterpolatingParam id="1963" interp="linr"  time="-9999999/1" value="0" leadInLength="0/1"  />
               <InterpolatingParam id="1964" interp="linr"  time="-9999999/1" value="0" leadInLength="0/1"  />
               <InterpolatingParam id="1965" interp="linr"  time="-9999999/1" value="0" leadInLength="0/1"  />
               <InterpolatingParam id="1966" interp="linr"  time="-9999999/1" value="0" leadInLength="0/1"  />
              </VectorParam>
              <InterpolatingParam id="1967" interp="linr"  time="-9999999/1" value="1" leadInLength="0/1"  name="opacity"/>
             </Parameters>
             <Attributes>
              <Attribute id="1968" value="" name="ident"/>
             </Attributes>
             <ExtraData>
              <Entry key="ZoomPanBin">
               <ZoomPanBin id="1969"  >
                <ZoomPanKeyframes>
                 <ZoomPanKeyframe id="1970" timeRangeEnd="-9999999/1" timeRangeDuration="0/1" interpolaterName="linr"  />
                </ZoomPanKeyframes>
               </ZoomPanBin>
              </Entry>
             </ExtraData>
            </VMFile>
            <MetaData>
             <entry key="WinSubProjectDisplayName" val=""/>
            </MetaData>
           </UnifiedMedia>
          </Medias>
         </GenericTrack>
        </StitchedMedia>
        <StitchedMedia id="1971" start="6950" duration="21" scalar="1098867/943520" mediaStart="3375/104654" mediaDuration="943520/52327" minMediaStart="-5833616625/104654" >
         <Transformer>
          <VectorParam id="1972"  name="translation">
           <InterpolatingParam id="1973" interp="linr"  time="-9999999/1" value="0" leadInLength="0/1"  />
           <InterpolatingParam id="1974" interp="linr"  time="-9999999/1" value="0" leadInLength="0/1"  />
           <InterpolatingParam id="1975" interp="linr"  time="-9999999/1" value="0" leadInLength="0/1"  />
          </VectorParam>
          <VectorParam id="1976"  name="rotation">
           <InterpolatingParam id="1977" interp="linr"  time="-9999999/1" value="0" leadInLength="0/1"  />
           <InterpolatingParam id="1978" interp="linr"  time="-9999999/1" value="0" leadInLength="0/1"  />
           <InterpolatingParam id="1979" interp="linr"  time="-9999999/1" value="0" leadInLength="0/1"  />
          </VectorParam>
          <VectorParam id="1980"  name="shear">
           <InterpolatingParam id="1981" interp="linr"  time="-9999999/1" value="0" leadInLength="0/1"  />
           <InterpolatingParam id="1982" interp="linr"  time="-9999999/1" value="0" leadInLength="0/1"  />
           <InterpolatingParam id="1983" interp="linr"  time="-9999999/1" value="0" leadInLength="0/1"  />
          </VectorParam>
          <VectorParam id="1984"  name="scale">
           <InterpolatingParam id="1985" interp="linr"  time="-9999999/1" value="1" leadInLength="0/1"  />
           <InterpolatingParam id="1986" interp="linr"  time="-9999999/1" value="1" leadInLength="0/1"  />
           <InterpolatingParam id="1987" interp="linr"  time="-9999999/1" value="1" leadInLength="0/1"  />
          </VectorParam>
          <VectorParam id="1988"  name="anchor">
           <InterpolatingParam id="1989" interp="linr"  time="0/1" value="0" leadInLength="0/1"  />
           <InterpolatingParam id="1990" interp="linr"  time="0/1" value="0" leadInLength="0/1"  />
           <InterpolatingParam id="1991" interp="linr"  time="0/1" value="0" leadInLength="0/1"  />
          </VectorParam>
         </Transformer>
         <Parameters>
          <VectorParam id="1992"  name="sourceCrop">
           <InterpolatingParam id="1993" interp="linr"  time="0/1" value="0" leadInLength="0/1"  />
           <InterpolatingParam id="1994" interp="linr"  time="0/1" value="0" leadInLength="0/1"  />
           <InterpolatingParam id="1995" interp="linr"  time="0/1" value="0" leadInLength="0/1"  />
           <InterpolatingParam id="1996" interp="linr"  time="0/1" value="0" leadInLength="0/1"  />
          </VectorParam>
          <VectorParam id="1997"  name="geometryCrop">
           <InterpolatingParam id="1998" interp="linr"  time="-9999999/1" value="0" leadInLength="0/1"  />
           <InterpolatingParam id="1999" interp="linr"  time="-9999999/1" value="0" leadInLength="0/1"  />
           <InterpolatingParam id="2000" interp="linr"  time="-9999999/1" value="0" leadInLength="0/1"  />
           <InterpolatingParam id="2001" interp="linr"  time="-9999999/1" value="0" leadInLength="0/1"  />
          </VectorParam>
          <InterpolatingParam id="2002" interp="linr"  time="-9999999/1" value="1" leadInLength="0/1"  name="opacity"/>
          <InterpolatingParam id="2003" interp="linr"  time="0/1" value="1" leadInLength="0/1"  name="cursorOpacity"/>
          <InterpolatingParam id="2004" interp="linr"  time="0/1" value="1" leadInLength="0/1"  name="cursorScale"/>
          <InterpolatingParam id="2005" interp="linr"  name="volume">
           <Keyframes>
           <Keyframe id="2006"  time="-5833616625/104654" value="0" leadInLength="0/1"  />
           <Keyframe id="2007"  time="143611/9514" value="0" leadInLength="0/1"  />
           <Keyframe id="2008"  time="17/1" value="0" leadInLength="0/1"  />
           </Keyframes>
          </InterpolatingParam>
          <Parameter id="2009"  name="captions"/>
         </Parameters>
         <Attributes>
          <Attribute id="2010" value="" name="ident"/>
          <Attribute id="2011" value="0" name="mixToMono"/>
         </Attributes>
         <MetaData>
          <entry key="WinSubProjectDisplayName" val=""/>
         </MetaData>
         <ExtraData>
          <Entry key="ZoomPanBin">
           <ZoomPanBin id="2012"  >
            <ZoomPanKeyframes>
             <ZoomPanKeyframe id="2013" timeRangeEnd="-9999999/1" timeRangeDuration="0/1" interpolaterName="linr"  />
            </ZoomPanKeyframes>
           </ZoomPanBin>
          </Entry>
          <Entry key="CursorEffectBin">
           <CursorEffectBin id="2014"  >
            <CursorEffectKeyframes>
            </CursorEffectKeyframes>
           </CursorEffectBin>
          </Entry>
         </ExtraData>
         <GenericTrack id="2015"  >
          <Attributes>
           <Attribute id="2016" value="" name="ident"/>
           <Attribute id="2017" value="0" name="audioMuted"/>
           <Attribute id="2018" value="0" name="videoHidden"/>
          </Attributes>
          <MetaData>
           <entry key="IsLocked" val="False"/>
           <entry key="WinTrackHeight" val="0"/>
          </MetaData>
          <Medias>
           <IMFile id="2019" start="-55742" duration="55758" scalar="1/1" mediaStart="6973/1" mediaDuration="1/1" trackNumber="0" src="21" trimStartSum="-55742/1" >
            <Transformer>
             <VectorParam id="2020"  name="translation">
              <InterpolatingParam id="2021" interp="linr"  time="-9999999/1" value="0" leadInLength="0/1"  />
              <InterpolatingParam id="2022" interp="linr"  time="-9999999/1" value="0" leadInLength="0/1"  />
              <InterpolatingParam id="2023" interp="linr"  time="-9999999/1" value="0" leadInLength="0/1"  />
             </VectorParam>
             <VectorParam id="2024"  name="rotation">
              <InterpolatingParam id="2025" interp="linr"  time="-9999999/1" value="0" leadInLength="0/1"  />
              <InterpolatingParam id="2026" interp="linr"  time="-9999999/1" value="0" leadInLength="0/1"  />
              <InterpolatingParam id="2027" interp="linr"  time="-9999999/1" value="0" leadInLength="0/1"  />
             </VectorParam>
             <VectorParam id="2028"  name="shear">
              <InterpolatingParam id="2029" interp="linr"  time="-9999999/1" value="0" leadInLength="0/1"  />
              <InterpolatingParam id="2030" interp="linr"  time="-9999999/1" value="0" leadInLength="0/1"  />
              <InterpolatingParam id="2031" interp="linr"  time="-9999999/1" value="0" leadInLength="0/1"  />
             </VectorParam>
             <VectorParam id="2032"  name="scale">
              <InterpolatingParam id="2033" interp="linr"  time="-9999999/1" value="1" leadInLength="0/1"  />
              <InterpolatingParam id="2034" interp="linr"  time="-9999999/1" value="1" leadInLength="0/1"  />
              <InterpolatingParam id="2035" interp="linr"  time="-9999999/1" value="1" leadInLength="0/1"  />
             </VectorParam>
             <VectorParam id="2036"  name="anchor">
              <InterpolatingParam id="2037" interp="linr"  time="0/1" value="0" leadInLength="0/1"  />
              <InterpolatingParam id="2038" interp="linr"  time="0/1" value="0" leadInLength="0/1"  />
              <InterpolatingParam id="2039" interp="linr"  time="0/1" value="0" leadInLength="0/1"  />
             </VectorParam>
            </Transformer>
            <Parameters>
             <VectorParam id="2040"  name="sourceCrop">
              <InterpolatingParam id="2041" interp="linr"  time="0/1" value="0" leadInLength="0/1"  />
              <InterpolatingParam id="2042" interp="linr"  time="0/1" value="0" leadInLength="0/1"  />
              <InterpolatingParam id="2043" interp="linr"  time="0/1" value="0" leadInLength="0/1"  />
              <InterpolatingParam id="2044" interp="linr"  time="0/1" value="0" leadInLength="0/1"  />
             </VectorParam>
             <VectorParam id="2045"  name="geometryCrop">
              <InterpolatingParam id="2046" interp="linr"  time="-9999999/1" value="0" leadInLength="0/1"  />
              <InterpolatingParam id="2047" interp="linr"  time="-9999999/1" value="0" leadInLength="0/1"  />
              <InterpolatingParam id="2048" interp="linr"  time="-9999999/1" value="0" leadInLength="0/1"  />
              <InterpolatingParam id="2049" interp="linr"  time="-9999999/1" value="0" leadInLength="0/1"  />
             </VectorParam>
             <InterpolatingParam id="2050" interp="linr"  time="-9999999/1" value="1" leadInLength="0/1"  name="opacity"/>
            </Parameters>
            <Attributes>
             <Attribute id="2051" value="" name="ident"/>
            </Attributes>
            <MetaData>
             <entry key="WinSubProjectDisplayName" val=""/>
            </MetaData>
            <ExtraData>
             <Entry key="ZoomPanBin">
              <ZoomPanBin id="2052"  >
               <ZoomPanKeyframes>
                <ZoomPanKeyframe id="2053" timeRangeEnd="-9999999/1" timeRangeDuration="0/1" interpolaterName="linr"  />
               </ZoomPanKeyframes>
              </ZoomPanBin>
             </Entry>
            </ExtraData>
           </IMFile>
           <UnifiedMedia id="2054"  >
            <AMFile id="2055" start="16" duration="1979" scalar="1/1" mediaStart="6973/1" mediaDuration="1979/1" trackNumber="1" src="21" channelNumber="0,1" >
             <Parameters>
              <InterpolatingParam id="2056" interp="linr"  time="0/1" value="1" leadInLength="0/1"  name="volume"/>
              <Parameter id="2057"  name="captions"/>
             </Parameters>
             <Attributes>
              <Attribute id="2058" value="" name="ident"/>
              <Attribute id="2059" value="44100" name="sampleRate"/>
              <Attribute id="2060" value="16" name="bitDepth"/>
              <Attribute id="2061" value="1" name="gain"/>
              <Attribute id="2062" value="0" name="mixToMono"/>
             </Attributes>
            </AMFile>
            <VMFile id="2063" start="16" duration="1979" scalar="1/1" mediaStart="6973/1" mediaDuration="1979/1" trackNumber="0" src="21" >
             <Transformer>
              <VectorParam id="2064"  name="translation">
               <InterpolatingParam id="2065" interp="linr"  time="-9999999/1" value="0" leadInLength="0/1"  />
               <InterpolatingParam id="2066" interp="linr"  time="-9999999/1" value="0" leadInLength="0/1"  />
               <InterpolatingParam id="2067" interp="linr"  time="-9999999/1" value="0" leadInLength="0/1"  />
              </VectorParam>
              <VectorParam id="2068"  name="rotation">
               <InterpolatingParam id="2069" interp="linr"  time="-9999999/1" value="0" leadInLength="0/1"  />
               <InterpolatingParam id="2070" interp="linr"  time="-9999999/1" value="0" leadInLength="0/1"  />
               <InterpolatingParam id="2071" interp="linr"  time="-9999999/1" value="0" leadInLength="0/1"  />
              </VectorParam>
              <VectorParam id="2072"  name="shear">
               <InterpolatingParam id="2073" interp="linr"  time="-9999999/1" value="0" leadInLength="0/1"  />
               <InterpolatingParam id="2074" interp="linr"  time="-9999999/1" value="0" leadInLength="0/1"  />
               <InterpolatingParam id="2075" interp="linr"  time="-9999999/1" value="0" leadInLength="0/1"  />
              </VectorParam>
              <VectorParam id="2076"  name="scale">
               <InterpolatingParam id="2077" interp="linr"  time="-9999999/1" value="1" leadInLength="0/1"  />
               <InterpolatingParam id="2078" interp="linr"  time="-9999999/1" value="1" leadInLength="0/1"  />
               <InterpolatingParam id="2079" interp="linr"  time="-9999999/1" value="1" leadInLength="0/1"  />
              </VectorParam>
              <VectorParam id="2080"  name="anchor">
               <InterpolatingParam id="2081" interp="linr"  time="0/1" value="0" leadInLength="0/1"  />
               <InterpolatingParam id="2082" interp="linr"  time="0/1" value="0" leadInLength="0/1"  />
               <InterpolatingParam id="2083" interp="linr"  time="0/1" value="0" leadInLength="0/1"  />
              </VectorParam>
             </Transformer>
             <Parameters>
              <VectorParam id="2084"  name="sourceCrop">
               <InterpolatingParam id="2085" interp="linr"  time="0/1" value="0" leadInLength="0/1"  />
               <InterpolatingParam id="2086" interp="linr"  time="0/1" value="0" leadInLength="0/1"  />
               <InterpolatingParam id="2087" interp="linr"  time="0/1" value="0" leadInLength="0/1"  />
               <InterpolatingParam id="2088" interp="linr"  time="0/1" value="0" leadInLength="0/1"  />
              </VectorParam>
              <VectorParam id="2089"  name="geometryCrop">
               <InterpolatingParam id="2090" interp="linr"  time="-9999999/1" value="0" leadInLength="0/1"  />
               <InterpolatingParam id="2091" interp="linr"  time="-9999999/1" value="0" leadInLength="0/1"  />
               <InterpolatingParam id="2092" interp="linr"  time="-9999999/1" value="0" leadInLength="0/1"  />
               <InterpolatingParam id="2093" interp="linr"  time="-9999999/1" value="0" leadInLength="0/1"  />
              </VectorParam>
              <InterpolatingParam id="2094" interp="linr"  time="-9999999/1" value="1" leadInLength="0/1"  name="opacity"/>
             </Parameters>
             <Attributes>
              <Attribute id="2095" value="" name="ident"/>
             </Attributes>
             <ExtraData>
              <Entry key="ZoomPanBin">
               <ZoomPanBin id="2096"  >
                <ZoomPanKeyframes>
                 <ZoomPanKeyframe id="2097" timeRangeEnd="-9999999/1" timeRangeDuration="0/1" interpolaterName="linr"  />
                </ZoomPanKeyframes>
               </ZoomPanBin>
              </Entry>
             </ExtraData>
            </VMFile>
            <MetaData>
             <entry key="WinSubProjectDisplayName" val=""/>
            </MetaData>
           </UnifiedMedia>
          </Medias>
         </GenericTrack>
        </StitchedMedia>
        <StitchedMedia id="2098" start="6971" duration="21" scalar="1098867/943520" mediaStart="3375/104654" mediaDuration="943520/52327" minMediaStart="-5833616625/104654" >
         <Transformer>
          <VectorParam id="2099"  name="translation">
           <InterpolatingParam id="2100" interp="linr"  time="-9999999/1" value="0" leadInLength="0/1"  />
           <InterpolatingParam id="2101" interp="linr"  time="-9999999/1" value="0" leadInLength="0/1"  />
           <InterpolatingParam id="2102" interp="linr"  time="-9999999/1" value="0" leadInLength="0/1"  />
          </VectorParam>
          <VectorParam id="2103"  name="rotation">
           <InterpolatingParam id="2104" interp="linr"  time="-9999999/1" value="0" leadInLength="0/1"  />
           <InterpolatingParam id="2105" interp="linr"  time="-9999999/1" value="0" leadInLength="0/1"  />
           <InterpolatingParam id="2106" interp="linr"  time="-9999999/1" value="0" leadInLength="0/1"  />
          </VectorParam>
          <VectorParam id="2107"  name="shear">
           <InterpolatingParam id="2108" interp="linr"  time="-9999999/1" value="0" leadInLength="0/1"  />
           <InterpolatingParam id="2109" interp="linr"  time="-9999999/1" value="0" leadInLength="0/1"  />
           <InterpolatingParam id="2110" interp="linr"  time="-9999999/1" value="0" leadInLength="0/1"  />
          </VectorParam>
          <VectorParam id="2111"  name="scale">
           <InterpolatingParam id="2112" interp="linr"  time="-9999999/1" value="1" leadInLength="0/1"  />
           <InterpolatingParam id="2113" interp="linr"  time="-9999999/1" value="1" leadInLength="0/1"  />
           <InterpolatingParam id="2114" interp="linr"  time="-9999999/1" value="1" leadInLength="0/1"  />
          </VectorParam>
          <VectorParam id="2115"  name="anchor">
           <InterpolatingParam id="2116" interp="linr"  time="0/1" value="0" leadInLength="0/1"  />
           <InterpolatingParam id="2117" interp="linr"  time="0/1" value="0" leadInLength="0/1"  />
           <InterpolatingParam id="2118" interp="linr"  time="0/1" value="0" leadInLength="0/1"  />
          </VectorParam>
         </Transformer>
         <Parameters>
          <VectorParam id="2119"  name="sourceCrop">
           <InterpolatingParam id="2120" interp="linr"  time="0/1" value="0" leadInLength="0/1"  />
           <InterpolatingParam id="2121" interp="linr"  time="0/1" value="0" leadInLength="0/1"  />
           <InterpolatingParam id="2122" interp="linr"  time="0/1" value="0" leadInLength="0/1"  />
           <InterpolatingParam id="2123" interp="linr"  time="0/1" value="0" leadInLength="0/1"  />
          </VectorParam>
          <VectorParam id="2124"  name="geometryCrop">
           <InterpolatingParam id="2125" interp="linr"  time="-9999999/1" value="0" leadInLength="0/1"  />
           <InterpolatingParam id="2126" interp="linr"  time="-9999999/1" value="0" leadInLength="0/1"  />
           <InterpolatingParam id="2127" interp="linr"  time="-9999999/1" value="0" leadInLength="0/1"  />
           <InterpolatingParam id="2128" interp="linr"  time="-9999999/1" value="0" leadInLength="0/1"  />
          </VectorParam>
          <InterpolatingParam id="2129" interp="linr"  time="-9999999/1" value="1" leadInLength="0/1"  name="opacity"/>
          <InterpolatingParam id="2130" interp="linr"  time="0/1" value="1" leadInLength="0/1"  name="cursorOpacity"/>
          <InterpolatingParam id="2131" interp="linr"  time="0/1" value="1" leadInLength="0/1"  name="cursorScale"/>
          <InterpolatingParam id="2132" interp="linr"  name="volume">
           <Keyframes>
           <Keyframe id="2133"  time="-5833616625/104654" value="0" leadInLength="0/1"  />
           <Keyframe id="2134"  time="143611/9514" value="0" leadInLength="0/1"  />
           <Keyframe id="2135"  time="17/1" value="0" leadInLength="0/1"  />
           </Keyframes>
          </InterpolatingParam>
          <Parameter id="2136"  name="captions"/>
         </Parameters>
         <Attributes>
          <Attribute id="2137" value="" name="ident"/>
          <Attribute id="2138" value="0" name="mixToMono"/>
         </Attributes>
         <MetaData>
          <entry key="WinSubProjectDisplayName" val=""/>
         </MetaData>
         <ExtraData>
          <Entry key="ZoomPanBin">
           <ZoomPanBin id="2139"  >
            <ZoomPanKeyframes>
             <ZoomPanKeyframe id="2140" timeRangeEnd="-9999999/1" timeRangeDuration="0/1" interpolaterName="linr"  />
            </ZoomPanKeyframes>
           </ZoomPanBin>
          </Entry>
          <Entry key="CursorEffectBin">
           <CursorEffectBin id="2141"  >
            <CursorEffectKeyframes>
            </CursorEffectKeyframes>
           </CursorEffectBin>
          </Entry>
         </ExtraData>
         <GenericTrack id="2142"  >
          <Attributes>
           <Attribute id="2143" value="" name="ident"/>
           <Attribute id="2144" value="0" name="audioMuted"/>
           <Attribute id="2145" value="0" name="videoHidden"/>
          </Attributes>
          <MetaData>
           <entry key="IsLocked" val="False"/>
           <entry key="WinTrackHeight" val="0"/>
          </MetaData>
          <Medias>
           <IMFile id="2146" start="-55741" duration="55758" scalar="1/1" mediaStart="6973/1" mediaDuration="1/1" trackNumber="0" src="21" trimStartSum="-55742/1" >
            <Transformer>
             <VectorParam id="2147"  name="translation">
              <InterpolatingParam id="2148" interp="linr"  time="-9999999/1" value="0" leadInLength="0/1"  />
              <InterpolatingParam id="2149" interp="linr"  time="-9999999/1" value="0" leadInLength="0/1"  />
              <InterpolatingParam id="2150" interp="linr"  time="-9999999/1" value="0" leadInLength="0/1"  />
             </VectorParam>
             <VectorParam id="2151"  name="rotation">
              <InterpolatingParam id="2152" interp="linr"  time="-9999999/1" value="0" leadInLength="0/1"  />
              <InterpolatingParam id="2153" interp="linr"  time="-9999999/1" value="0" leadInLength="0/1"  />
              <InterpolatingParam id="2154" interp="linr"  time="-9999999/1" value="0" leadInLength="0/1"  />
             </VectorParam>
             <VectorParam id="2155"  name="shear">
              <InterpolatingParam id="2156" interp="linr"  time="-9999999/1" value="0" leadInLength="0/1"  />
              <InterpolatingParam id="2157" interp="linr"  time="-9999999/1" value="0" leadInLength="0/1"  />
              <InterpolatingParam id="2158" interp="linr"  time="-9999999/1" value="0" leadInLength="0/1"  />
             </VectorParam>
             <VectorParam id="2159"  name="scale">
              <InterpolatingParam id="2160" interp="linr"  time="-9999999/1" value="1" leadInLength="0/1"  />
              <InterpolatingParam id="2161" interp="linr"  time="-9999999/1" value="1" leadInLength="0/1"  />
              <InterpolatingParam id="2162" interp="linr"  time="-9999999/1" value="1" leadInLength="0/1"  />
             </VectorParam>
             <VectorParam id="2163"  name="anchor">
              <InterpolatingParam id="2164" interp="linr"  time="0/1" value="0" leadInLength="0/1"  />
              <InterpolatingParam id="2165" interp="linr"  time="0/1" value="0" leadInLength="0/1"  />
              <InterpolatingParam id="2166" interp="linr"  time="0/1" value="0" leadInLength="0/1"  />
             </VectorParam>
            </Transformer>
            <Parameters>
             <VectorParam id="2167"  name="sourceCrop">
              <InterpolatingParam id="2168" interp="linr"  time="0/1" value="0" leadInLength="0/1"  />
              <InterpolatingParam id="2169" interp="linr"  time="0/1" value="0" leadInLength="0/1"  />
              <InterpolatingParam id="2170" interp="linr"  time="0/1" value="0" leadInLength="0/1"  />
              <InterpolatingParam id="2171" interp="linr"  time="0/1" value="0" leadInLength="0/1"  />
             </VectorParam>
             <VectorParam id="2172"  name="geometryCrop">
              <InterpolatingParam id="2173" interp="linr"  time="-9999999/1" value="0" leadInLength="0/1"  />
              <InterpolatingParam id="2174" interp="linr"  time="-9999999/1" value="0" leadInLength="0/1"  />
              <InterpolatingParam id="2175" interp="linr"  time="-9999999/1" value="0" leadInLength="0/1"  />
              <InterpolatingParam id="2176" interp="linr"  time="-9999999/1" value="0" leadInLength="0/1"  />
             </VectorParam>
             <InterpolatingParam id="2177" interp="linr"  time="-9999999/1" value="1" leadInLength="0/1"  name="opacity"/>
            </Parameters>
            <Attributes>
             <Attribute id="2178" value="" name="ident"/>
            </Attributes>
            <MetaData>
             <entry key="WinSubProjectDisplayName" val=""/>
            </MetaData>
            <ExtraData>
             <Entry key="ZoomPanBin">
              <ZoomPanBin id="2179"  >
               <ZoomPanKeyframes>
                <ZoomPanKeyframe id="2180" timeRangeEnd="-9999999/1" timeRangeDuration="0/1" interpolaterName="linr"  />
               </ZoomPanKeyframes>
              </ZoomPanBin>
             </Entry>
            </ExtraData>
           </IMFile>
           <UnifiedMedia id="2181"  >
            <AMFile id="2182" start="17" duration="1979" scalar="1/1" mediaStart="6973/1" mediaDuration="1979/1" trackNumber="1" src="21" channelNumber="0,1" >
             <Parameters>
              <InterpolatingParam id="2183" interp="linr"  time="0/1" value="1" leadInLength="0/1"  name="volume"/>
              <Parameter id="2184"  name="captions"/>
             </Parameters>
             <Attributes>
              <Attribute id="2185" value="" name="ident"/>
              <Attribute id="2186" value="44100" name="sampleRate"/>
              <Attribute id="2187" value="16" name="bitDepth"/>
              <Attribute id="2188" value="1" name="gain"/>
              <Attribute id="2189" value="0" name="mixToMono"/>
             </Attributes>
            </AMFile>
            <VMFile id="2190" start="17" duration="1979" scalar="1/1" mediaStart="6973/1" mediaDuration="1979/1" trackNumber="0" src="21" >
             <Transformer>
              <VectorParam id="2191"  name="translation">
               <InterpolatingParam id="2192" interp="linr"  time="-9999999/1" value="0" leadInLength="0/1"  />
               <InterpolatingParam id="2193" interp="linr"  time="-9999999/1" value="0" leadInLength="0/1"  />
               <InterpolatingParam id="2194" interp="linr"  time="-9999999/1" value="0" leadInLength="0/1"  />
              </VectorParam>
              <VectorParam id="2195"  name="rotation">
               <InterpolatingParam id="2196" interp="linr"  time="-9999999/1" value="0" leadInLength="0/1"  />
               <InterpolatingParam id="2197" interp="linr"  time="-9999999/1" value="0" leadInLength="0/1"  />
               <InterpolatingParam id="2198" interp="linr"  time="-9999999/1" value="0" leadInLength="0/1"  />
              </VectorParam>
              <VectorParam id="2199"  name="shear">
               <InterpolatingParam id="2200" interp="linr"  time="-9999999/1" value="0" leadInLength="0/1"  />
               <InterpolatingParam id="2201" interp="linr"  time="-9999999/1" value="0" leadInLength="0/1"  />
               <InterpolatingParam id="2202" interp="linr"  time="-9999999/1" value="0" leadInLength="0/1"  />
              </VectorParam>
              <VectorParam id="2203"  name="scale">
               <InterpolatingParam id="2204" interp="linr"  time="-9999999/1" value="1" leadInLength="0/1"  />
               <InterpolatingParam id="2205" interp="linr"  time="-9999999/1" value="1" leadInLength="0/1"  />
               <InterpolatingParam id="2206" interp="linr"  time="-9999999/1" value="1" leadInLength="0/1"  />
              </VectorParam>
              <VectorParam id="2207"  name="anchor">
               <InterpolatingParam id="2208" interp="linr"  time="0/1" value="0" leadInLength="0/1"  />
               <InterpolatingParam id="2209" interp="linr"  time="0/1" value="0" leadInLength="0/1"  />
               <InterpolatingParam id="2210" interp="linr"  time="0/1" value="0" leadInLength="0/1"  />
              </VectorParam>
             </Transformer>
             <Parameters>
              <VectorParam id="2211"  name="sourceCrop">
               <InterpolatingParam id="2212" interp="linr"  time="0/1" value="0" leadInLength="0/1"  />
               <InterpolatingParam id="2213" interp="linr"  time="0/1" value="0" leadInLength="0/1"  />
               <InterpolatingParam id="2214" interp="linr"  time="0/1" value="0" leadInLength="0/1"  />
               <InterpolatingParam id="2215" interp="linr"  time="0/1" value="0" leadInLength="0/1"  />
              </VectorParam>
              <VectorParam id="2216"  name="geometryCrop">
               <InterpolatingParam id="2217" interp="linr"  time="-9999999/1" value="0" leadInLength="0/1"  />
               <InterpolatingParam id="2218" interp="linr"  time="-9999999/1" value="0" leadInLength="0/1"  />
               <InterpolatingParam id="2219" interp="linr"  time="-9999999/1" value="0" leadInLength="0/1"  />
               <InterpolatingParam id="2220" interp="linr"  time="-9999999/1" value="0" leadInLength="0/1"  />
              </VectorParam>
              <InterpolatingParam id="2221" interp="linr"  time="-9999999/1" value="1" leadInLength="0/1"  name="opacity"/>
             </Parameters>
             <Attributes>
              <Attribute id="2222" value="" name="ident"/>
             </Attributes>
             <ExtraData>
              <Entry key="ZoomPanBin">
               <ZoomPanBin id="2223"  >
                <ZoomPanKeyframes>
                 <ZoomPanKeyframe id="2224" timeRangeEnd="-9999999/1" timeRangeDuration="0/1" interpolaterName="linr"  />
                </ZoomPanKeyframes>
               </ZoomPanBin>
              </Entry>
             </ExtraData>
            </VMFile>
            <MetaData>
             <entry key="WinSubProjectDisplayName" val=""/>
            </MetaData>
           </UnifiedMedia>
          </Medias>
         </GenericTrack>
        </StitchedMedia>
        <StitchedMedia id="2225" start="6992" duration="21" scalar="1098867/943520" mediaStart="3375/104654" mediaDuration="943520/52327" minMediaStart="-5833616625/104654" >
         <Transformer>
          <VectorParam id="2226"  name="translation">
           <InterpolatingParam id="2227" interp="linr"  time="-9999999/1" value="0" leadInLength="0/1"  />
           <InterpolatingParam id="2228" interp="linr"  time="-9999999/1" value="0" leadInLength="0/1"  />
           <InterpolatingParam id="2229" interp="linr"  time="-9999999/1" value="0" leadInLength="0/1"  />
          </VectorParam>
          <VectorParam id="2230"  name="rotation">
           <InterpolatingParam id="2231" interp="linr"  time="-9999999/1" value="0" leadInLength="0/1"  />
           <InterpolatingParam id="2232" interp="linr"  time="-9999999/1" value="0" leadInLength="0/1"  />
           <InterpolatingParam id="2233" interp="linr"  time="-9999999/1" value="0" leadInLength="0/1"  />
          </VectorParam>
          <VectorParam id="2234"  name="shear">
           <InterpolatingParam id="2235" interp="linr"  time="-9999999/1" value="0" leadInLength="0/1"  />
           <InterpolatingParam id="2236" interp="linr"  time="-9999999/1" value="0" leadInLength="0/1"  />
           <InterpolatingParam id="2237" interp="linr"  time="-9999999/1" value="0" leadInLength="0/1"  />
          </VectorParam>
          <VectorParam id="2238"  name="scale">
           <InterpolatingParam id="2239" interp="linr"  time="-9999999/1" value="1" leadInLength="0/1"  />
           <InterpolatingParam id="2240" interp="linr"  time="-9999999/1" value="1" leadInLength="0/1"  />
           <InterpolatingParam id="2241" interp="linr"  time="-9999999/1" value="1" leadInLength="0/1"  />
          </VectorParam>
          <VectorParam id="2242"  name="anchor">
           <InterpolatingParam id="2243" interp="linr"  time="0/1" value="0" leadInLength="0/1"  />
           <InterpolatingParam id="2244" interp="linr"  time="0/1" value="0" leadInLength="0/1"  />
           <InterpolatingParam id="2245" interp="linr"  time="0/1" value="0" leadInLength="0/1"  />
          </VectorParam>
         </Transformer>
         <Parameters>
          <VectorParam id="2246"  name="sourceCrop">
           <InterpolatingParam id="2247" interp="linr"  time="0/1" value="0" leadInLength="0/1"  />
           <InterpolatingParam id="2248" interp="linr"  time="0/1" value="0" leadInLength="0/1"  />
           <InterpolatingParam id="2249" interp="linr"  time="0/1" value="0" leadInLength="0/1"  />
           <InterpolatingParam id="2250" interp="linr"  time="0/1" value="0" leadInLength="0/1"  />
          </VectorParam>
          <VectorParam id="2251"  name="geometryCrop">
           <InterpolatingParam id="2252" interp="linr"  time="-9999999/1" value="0" leadInLength="0/1"  />
           <InterpolatingParam id="2253" interp="linr"  time="-9999999/1" value="0" leadInLength="0/1"  />
           <InterpolatingParam id="2254" interp="linr"  time="-9999999/1" value="0" leadInLength="0/1"  />
           <InterpolatingParam id="2255" interp="linr"  time="-9999999/1" value="0" leadInLength="0/1"  />
          </VectorParam>
          <InterpolatingParam id="2256" interp="linr"  time="-9999999/1" value="1" leadInLength="0/1"  name="opacity"/>
          <InterpolatingParam id="2257" interp="linr"  time="0/1" value="1" leadInLength="0/1"  name="cursorOpacity"/>
          <InterpolatingParam id="2258" interp="linr"  time="0/1" value="1" leadInLength="0/1"  name="cursorScale"/>
          <InterpolatingParam id="2259" interp="linr"  name="volume">
           <Keyframes>
           <Keyframe id="2260"  time="-5833616625/104654" value="0" leadInLength="0/1"  />
           <Keyframe id="2261"  time="143611/9514" value="0" leadInLength="0/1"  />
           <Keyframe id="2262"  time="17/1" value="0" leadInLength="0/1"  />
           </Keyframes>
          </InterpolatingParam>
          <Parameter id="2263"  name="captions"/>
         </Parameters>
         <Attributes>
          <Attribute id="2264" value="" name="ident"/>
          <Attribute id="2265" value="0" name="mixToMono"/>
         </Attributes>
         <MetaData>
          <entry key="WinSubProjectDisplayName" val=""/>
         </MetaData>
         <ExtraData>
          <Entry key="ZoomPanBin">
           <ZoomPanBin id="2266"  >
            <ZoomPanKeyframes>
             <ZoomPanKeyframe id="2267" timeRangeEnd="-9999999/1" timeRangeDuration="0/1" interpolaterName="linr"  />
            </ZoomPanKeyframes>
           </ZoomPanBin>
          </Entry>
          <Entry key="CursorEffectBin">
           <CursorEffectBin id="2268"  >
            <CursorEffectKeyframes>
            </CursorEffectKeyframes>
           </CursorEffectBin>
          </Entry>
         </ExtraData>
         <GenericTrack id="2269"  >
          <Attributes>
           <Attribute id="2270" value="" name="ident"/>
           <Attribute id="2271" value="0" name="audioMuted"/>
           <Attribute id="2272" value="0" name="videoHidden"/>
          </Attributes>
          <MetaData>
           <entry key="IsLocked" val="False"/>
           <entry key="WinTrackHeight" val="0"/>
          </MetaData>
          <Medias>
           <IMFile id="2273" start="-55741" duration="55758" scalar="1/1" mediaStart="6973/1" mediaDuration="1/1" trackNumber="0" src="21" trimStartSum="-55742/1" >
            <Transformer>
             <VectorParam id="2274"  name="translation">
              <InterpolatingParam id="2275" interp="linr"  time="-9999999/1" value="0" leadInLength="0/1"  />
              <InterpolatingParam id="2276" interp="linr"  time="-9999999/1" value="0" leadInLength="0/1"  />
              <InterpolatingParam id="2277" interp="linr"  time="-9999999/1" value="0" leadInLength="0/1"  />
             </VectorParam>
             <VectorParam id="2278"  name="rotation">
              <InterpolatingParam id="2279" interp="linr"  time="-9999999/1" value="0" leadInLength="0/1"  />
              <InterpolatingParam id="2280" interp="linr"  time="-9999999/1" value="0" leadInLength="0/1"  />
              <InterpolatingParam id="2281" interp="linr"  time="-9999999/1" value="0" leadInLength="0/1"  />
             </VectorParam>
             <VectorParam id="2282"  name="shear">
              <InterpolatingParam id="2283" interp="linr"  time="-9999999/1" value="0" leadInLength="0/1"  />
              <InterpolatingParam id="2284" interp="linr"  time="-9999999/1" value="0" leadInLength="0/1"  />
              <InterpolatingParam id="2285" interp="linr"  time="-9999999/1" value="0" leadInLength="0/1"  />
             </VectorParam>
             <VectorParam id="2286"  name="scale">
              <InterpolatingParam id="2287" interp="linr"  time="-9999999/1" value="1" leadInLength="0/1"  />
              <InterpolatingParam id="2288" interp="linr"  time="-9999999/1" value="1" leadInLength="0/1"  />
              <InterpolatingParam id="2289" interp="linr"  time="-9999999/1" value="1" leadInLength="0/1"  />
             </VectorParam>
             <VectorParam id="2290"  name="anchor">
              <InterpolatingParam id="2291" interp="linr"  time="0/1" value="0" leadInLength="0/1"  />
              <InterpolatingParam id="2292" interp="linr"  time="0/1" value="0" leadInLength="0/1"  />
              <InterpolatingParam id="2293" interp="linr"  time="0/1" value="0" leadInLength="0/1"  />
             </VectorParam>
            </Transformer>
            <Parameters>
             <VectorParam id="2294"  name="sourceCrop">
              <InterpolatingParam id="2295" interp="linr"  time="0/1" value="0" leadInLength="0/1"  />
              <InterpolatingParam id="2296" interp="linr"  time="0/1" value="0" leadInLength="0/1"  />
              <InterpolatingParam id="2297" interp="linr"  time="0/1" value="0" leadInLength="0/1"  />
              <InterpolatingParam id="2298" interp="linr"  time="0/1" value="0" leadInLength="0/1"  />
             </VectorParam>
             <VectorParam id="2299"  name="geometryCrop">
              <InterpolatingParam id="2300" interp="linr"  time="-9999999/1" value="0" leadInLength="0/1"  />
              <InterpolatingParam id="2301" interp="linr"  time="-9999999/1" value="0" leadInLength="0/1"  />
              <InterpolatingParam id="2302" interp="linr"  time="-9999999/1" value="0" leadInLength="0/1"  />
              <InterpolatingParam id="2303" interp="linr"  time="-9999999/1" value="0" leadInLength="0/1"  />
             </VectorParam>
             <InterpolatingParam id="2304" interp="linr"  time="-9999999/1" value="1" leadInLength="0/1"  name="opacity"/>
            </Parameters>
            <Attributes>
             <Attribute id="2305" value="" name="ident"/>
            </Attributes>
            <MetaData>
             <entry key="WinSubProjectDisplayName" val=""/>
            </MetaData>
            <ExtraData>
             <Entry key="ZoomPanBin">
              <ZoomPanBin id="2306"  >
               <ZoomPanKeyframes>
                <ZoomPanKeyframe id="2307" timeRangeEnd="-9999999/1" timeRangeDuration="0/1" interpolaterName="linr"  />
               </ZoomPanKeyframes>
              </ZoomPanBin>
             </Entry>
            </ExtraData>
           </IMFile>
           <UnifiedMedia id="2308"  >
            <AMFile id="2309" start="17" duration="1979" scalar="1/1" mediaStart="6973/1" mediaDuration="1979/1" trackNumber="1" src="21" channelNumber="0,1" >
             <Parameters>
              <InterpolatingParam id="2310" interp="linr"  time="0/1" value="1" leadInLength="0/1"  name="volume"/>
              <Parameter id="2311"  name="captions"/>
             </Parameters>
             <Attributes>
              <Attribute id="2312" value="" name="ident"/>
              <Attribute id="2313" value="44100" name="sampleRate"/>
              <Attribute id="2314" value="16" name="bitDepth"/>
              <Attribute id="2315" value="1" name="gain"/>
              <Attribute id="2316" value="0" name="mixToMono"/>
             </Attributes>
            </AMFile>
            <VMFile id="2317" start="17" duration="1979" scalar="1/1" mediaStart="6973/1" mediaDuration="1979/1" trackNumber="0" src="21" >
             <Transformer>
              <VectorParam id="2318"  name="translation">
               <InterpolatingParam id="2319" interp="linr"  time="-9999999/1" value="0" leadInLength="0/1"  />
               <InterpolatingParam id="2320" interp="linr"  time="-9999999/1" value="0" leadInLength="0/1"  />
               <InterpolatingParam id="2321" interp="linr"  time="-9999999/1" value="0" leadInLength="0/1"  />
              </VectorParam>
              <VectorParam id="2322"  name="rotation">
               <InterpolatingParam id="2323" interp="linr"  time="-9999999/1" value="0" leadInLength="0/1"  />
               <InterpolatingParam id="2324" interp="linr"  time="-9999999/1" value="0" leadInLength="0/1"  />
               <InterpolatingParam id="2325" interp="linr"  time="-9999999/1" value="0" leadInLength="0/1"  />
              </VectorParam>
              <VectorParam id="2326"  name="shear">
               <InterpolatingParam id="2327" interp="linr"  time="-9999999/1" value="0" leadInLength="0/1"  />
               <InterpolatingParam id="2328" interp="linr"  time="-9999999/1" value="0" leadInLength="0/1"  />
               <InterpolatingParam id="2329" interp="linr"  time="-9999999/1" value="0" leadInLength="0/1"  />
              </VectorParam>
              <VectorParam id="2330"  name="scale">
               <InterpolatingParam id="2331" interp="linr"  time="-9999999/1" value="1" leadInLength="0/1"  />
               <InterpolatingParam id="2332" interp="linr"  time="-9999999/1" value="1" leadInLength="0/1"  />
               <InterpolatingParam id="2333" interp="linr"  time="-9999999/1" value="1" leadInLength="0/1"  />
              </VectorParam>
              <VectorParam id="2334"  name="anchor">
               <InterpolatingParam id="2335" interp="linr"  time="0/1" value="0" leadInLength="0/1"  />
               <InterpolatingParam id="2336" interp="linr"  time="0/1" value="0" leadInLength="0/1"  />
               <InterpolatingParam id="2337" interp="linr"  time="0/1" value="0" leadInLength="0/1"  />
              </VectorParam>
             </Transformer>
             <Parameters>
              <VectorParam id="2338"  name="sourceCrop">
               <InterpolatingParam id="2339" interp="linr"  time="0/1" value="0" leadInLength="0/1"  />
               <InterpolatingParam id="2340" interp="linr"  time="0/1" value="0" leadInLength="0/1"  />
               <InterpolatingParam id="2341" interp="linr"  time="0/1" value="0" leadInLength="0/1"  />
               <InterpolatingParam id="2342" interp="linr"  time="0/1" value="0" leadInLength="0/1"  />
              </VectorParam>
              <VectorParam id="2343"  name="geometryCrop">
               <InterpolatingParam id="2344" interp="linr"  time="-9999999/1" value="0" leadInLength="0/1"  />
               <InterpolatingParam id="2345" interp="linr"  time="-9999999/1" value="0" leadInLength="0/1"  />
               <InterpolatingParam id="2346" interp="linr"  time="-9999999/1" value="0" leadInLength="0/1"  />
               <InterpolatingParam id="2347" interp="linr"  time="-9999999/1" value="0" leadInLength="0/1"  />
              </VectorParam>
              <InterpolatingParam id="2348" interp="linr"  time="-9999999/1" value="1" leadInLength="0/1"  name="opacity"/>
             </Parameters>
             <Attributes>
              <Attribute id="2349" value="" name="ident"/>
             </Attributes>
             <ExtraData>
              <Entry key="ZoomPanBin">
               <ZoomPanBin id="2350"  >
                <ZoomPanKeyframes>
                 <ZoomPanKeyframe id="2351" timeRangeEnd="-9999999/1" timeRangeDuration="0/1" interpolaterName="linr"  />
                </ZoomPanKeyframes>
               </ZoomPanBin>
              </Entry>
             </ExtraData>
            </VMFile>
            <MetaData>
             <entry key="WinSubProjectDisplayName" val=""/>
            </MetaData>
           </UnifiedMedia>
          </Medias>
         </GenericTrack>
        </StitchedMedia>
        <StitchedMedia id="2352" start="7013" duration="21" scalar="1098867/943520" mediaStart="3375/104654" mediaDuration="943520/52327" minMediaStart="-5833616625/104654" >
         <Transformer>
          <VectorParam id="2353"  name="translation">
           <InterpolatingParam id="2354" interp="linr"  time="-9999999/1" value="0" leadInLength="0/1"  />
           <InterpolatingParam id="2355" interp="linr"  time="-9999999/1" value="0" leadInLength="0/1"  />
           <InterpolatingParam id="2356" interp="linr"  time="-9999999/1" value="0" leadInLength="0/1"  />
          </VectorParam>
          <VectorParam id="2357"  name="rotation">
           <InterpolatingParam id="2358" interp="linr"  time="-9999999/1" value="0" leadInLength="0/1"  />
           <InterpolatingParam id="2359" interp="linr"  time="-9999999/1" value="0" leadInLength="0/1"  />
           <InterpolatingParam id="2360" interp="linr"  time="-9999999/1" value="0" leadInLength="0/1"  />
          </VectorParam>
          <VectorParam id="2361"  name="shear">
           <InterpolatingParam id="2362" interp="linr"  time="-9999999/1" value="0" leadInLength="0/1"  />
           <InterpolatingParam id="2363" interp="linr"  time="-9999999/1" value="0" leadInLength="0/1"  />
           <InterpolatingParam id="2364" interp="linr"  time="-9999999/1" value="0" leadInLength="0/1"  />
          </VectorParam>
          <VectorParam id="2365"  name="scale">
           <InterpolatingParam id="2366" interp="linr"  time="-9999999/1" value="1" leadInLength="0/1"  />
           <InterpolatingParam id="2367" interp="linr"  time="-9999999/1" value="1" leadInLength="0/1"  />
           <InterpolatingParam id="2368" interp="linr"  time="-9999999/1" value="1" leadInLength="0/1"  />
          </VectorParam>
          <VectorParam id="2369"  name="anchor">
           <InterpolatingParam id="2370" interp="linr"  time="0/1" value="0" leadInLength="0/1"  />
           <InterpolatingParam id="2371" interp="linr"  time="0/1" value="0" leadInLength="0/1"  />
           <InterpolatingParam id="2372" interp="linr"  time="0/1" value="0" leadInLength="0/1"  />
          </VectorParam>
         </Transformer>
         <Parameters>
          <VectorParam id="2373"  name="sourceCrop">
           <InterpolatingParam id="2374" interp="linr"  time="0/1" value="0" leadInLength="0/1"  />
           <InterpolatingParam id="2375" interp="linr"  time="0/1" value="0" leadInLength="0/1"  />
           <InterpolatingParam id="2376" interp="linr"  time="0/1" value="0" leadInLength="0/1"  />
           <InterpolatingParam id="2377" interp="linr"  time="0/1" value="0" leadInLength="0/1"  />
          </VectorParam>
          <VectorParam id="2378"  name="geometryCrop">
           <InterpolatingParam id="2379" interp="linr"  time="-9999999/1" value="0" leadInLength="0/1"  />
           <InterpolatingParam id="2380" interp="linr"  time="-9999999/1" value="0" leadInLength="0/1"  />
           <InterpolatingParam id="2381" interp="linr"  time="-9999999/1" value="0" leadInLength="0/1"  />
           <InterpolatingParam id="2382" interp="linr"  time="-9999999/1" value="0" leadInLength="0/1"  />
          </VectorParam>
          <InterpolatingParam id="2383" interp="linr"  time="-9999999/1" value="1" leadInLength="0/1"  name="opacity"/>
          <InterpolatingParam id="2384" interp="linr"  time="0/1" value="1" leadInLength="0/1"  name="cursorOpacity"/>
          <InterpolatingParam id="2385" interp="linr"  time="0/1" value="1" leadInLength="0/1"  name="cursorScale"/>
          <InterpolatingParam id="2386" interp="linr"  name="volume">
           <Keyframes>
           <Keyframe id="2387"  time="-5833616625/104654" value="0" leadInLength="0/1"  />
           <Keyframe id="2388"  time="143611/9514" value="0" leadInLength="0/1"  />
           <Keyframe id="2389"  time="17/1" value="0" leadInLength="0/1"  />
           </Keyframes>
          </InterpolatingParam>
          <Parameter id="2390"  name="captions"/>
         </Parameters>
         <Attributes>
          <Attribute id="2391" value="" name="ident"/>
          <Attribute id="2392" value="0" name="mixToMono"/>
         </Attributes>
         <MetaData>
          <entry key="WinSubProjectDisplayName" val=""/>
         </MetaData>
         <ExtraData>
          <Entry key="ZoomPanBin">
           <ZoomPanBin id="2393"  >
            <ZoomPanKeyframes>
             <ZoomPanKeyframe id="2394" timeRangeEnd="-9999999/1" timeRangeDuration="0/1" interpolaterName="linr"  />
            </ZoomPanKeyframes>
           </ZoomPanBin>
          </Entry>
          <Entry key="CursorEffectBin">
           <CursorEffectBin id="2395"  >
            <CursorEffectKeyframes>
            </CursorEffectKeyframes>
           </CursorEffectBin>
          </Entry>
         </ExtraData>
         <GenericTrack id="2396"  >
          <Attributes>
           <Attribute id="2397" value="" name="ident"/>
           <Attribute id="2398" value="0" name="audioMuted"/>
           <Attribute id="2399" value="0" name="videoHidden"/>
          </Attributes>
          <MetaData>
           <entry key="IsLocked" val="False"/>
           <entry key="WinTrackHeight" val="0"/>
          </MetaData>
          <Medias>
           <IMFile id="2400" start="-55741" duration="55758" scalar="1/1" mediaStart="6973/1" mediaDuration="1/1" trackNumber="0" src="21" trimStartSum="-55742/1" >
            <Transformer>
             <VectorParam id="2401"  name="translation">
              <InterpolatingParam id="2402" interp="linr"  time="-9999999/1" value="0" leadInLength="0/1"  />
              <InterpolatingParam id="2403" interp="linr"  time="-9999999/1" value="0" leadInLength="0/1"  />
              <InterpolatingParam id="2404" interp="linr"  time="-9999999/1" value="0" leadInLength="0/1"  />
             </VectorParam>
             <VectorParam id="2405"  name="rotation">
              <InterpolatingParam id="2406" interp="linr"  time="-9999999/1" value="0" leadInLength="0/1"  />
              <InterpolatingParam id="2407" interp="linr"  time="-9999999/1" value="0" leadInLength="0/1"  />
              <InterpolatingParam id="2408" interp="linr"  time="-9999999/1" value="0" leadInLength="0/1"  />
             </VectorParam>
             <VectorParam id="2409"  name="shear">
              <InterpolatingParam id="2410" interp="linr"  time="-9999999/1" value="0" leadInLength="0/1"  />
              <InterpolatingParam id="2411" interp="linr"  time="-9999999/1" value="0" leadInLength="0/1"  />
              <InterpolatingParam id="2412" interp="linr"  time="-9999999/1" value="0" leadInLength="0/1"  />
             </VectorParam>
             <VectorParam id="2413"  name="scale">
              <InterpolatingParam id="2414" interp="linr"  time="-9999999/1" value="1" leadInLength="0/1"  />
              <InterpolatingParam id="2415" interp="linr"  time="-9999999/1" value="1" leadInLength="0/1"  />
              <InterpolatingParam id="2416" interp="linr"  time="-9999999/1" value="1" leadInLength="0/1"  />
             </VectorParam>
             <VectorParam id="2417"  name="anchor">
              <InterpolatingParam id="2418" interp="linr"  time="0/1" value="0" leadInLength="0/1"  />
              <InterpolatingParam id="2419" interp="linr"  time="0/1" value="0" leadInLength="0/1"  />
              <InterpolatingParam id="2420" interp="linr"  time="0/1" value="0" leadInLength="0/1"  />
             </VectorParam>
            </Transformer>
            <Parameters>
             <VectorParam id="2421"  name="sourceCrop">
              <InterpolatingParam id="2422" interp="linr"  time="0/1" value="0" leadInLength="0/1"  />
              <InterpolatingParam id="2423" interp="linr"  time="0/1" value="0" leadInLength="0/1"  />
              <InterpolatingParam id="2424" interp="linr"  time="0/1" value="0" leadInLength="0/1"  />
              <InterpolatingParam id="2425" interp="linr"  time="0/1" value="0" leadInLength="0/1"  />
             </VectorParam>
             <VectorParam id="2426"  name="geometryCrop">
              <InterpolatingParam id="2427" interp="linr"  time="-9999999/1" value="0" leadInLength="0/1"  />
              <InterpolatingParam id="2428" interp="linr"  time="-9999999/1" value="0" leadInLength="0/1"  />
              <InterpolatingParam id="2429" interp="linr"  time="-9999999/1" value="0" leadInLength="0/1"  />
              <InterpolatingParam id="2430" interp="linr"  time="-9999999/1" value="0" leadInLength="0/1"  />
             </VectorParam>
             <InterpolatingParam id="2431" interp="linr"  time="-9999999/1" value="1" leadInLength="0/1"  name="opacity"/>
            </Parameters>
            <Attributes>
             <Attribute id="2432" value="" name="ident"/>
            </Attributes>
            <MetaData>
             <entry key="WinSubProjectDisplayName" val=""/>
            </MetaData>
            <ExtraData>
             <Entry key="ZoomPanBin">
              <ZoomPanBin id="2433"  >
               <ZoomPanKeyframes>
                <ZoomPanKeyframe id="2434" timeRangeEnd="-9999999/1" timeRangeDuration="0/1" interpolaterName="linr"  />
               </ZoomPanKeyframes>
              </ZoomPanBin>
             </Entry>
            </ExtraData>
           </IMFile>
           <UnifiedMedia id="2435"  >
            <AMFile id="2436" start="17" duration="1979" scalar="1/1" mediaStart="6973/1" mediaDuration="1979/1" trackNumber="1" src="21" channelNumber="0,1" >
             <Parameters>
              <InterpolatingParam id="2437" interp="linr"  time="0/1" value="1" leadInLength="0/1"  name="volume"/>
              <Parameter id="2438"  name="captions"/>
             </Parameters>
             <Attributes>
              <Attribute id="2439" value="" name="ident"/>
              <Attribute id="2440" value="44100" name="sampleRate"/>
              <Attribute id="2441" value="16" name="bitDepth"/>
              <Attribute id="2442" value="1" name="gain"/>
              <Attribute id="2443" value="0" name="mixToMono"/>
             </Attributes>
            </AMFile>
            <VMFile id="2444" start="17" duration="1979" scalar="1/1" mediaStart="6973/1" mediaDuration="1979/1" trackNumber="0" src="21" >
             <Transformer>
              <VectorParam id="2445"  name="translation">
               <InterpolatingParam id="2446" interp="linr"  time="-9999999/1" value="0" leadInLength="0/1"  />
               <InterpolatingParam id="2447" interp="linr"  time="-9999999/1" value="0" leadInLength="0/1"  />
               <InterpolatingParam id="2448" interp="linr"  time="-9999999/1" value="0" leadInLength="0/1"  />
              </VectorParam>
              <VectorParam id="2449"  name="rotation">
               <InterpolatingParam id="2450" interp="linr"  time="-9999999/1" value="0" leadInLength="0/1"  />
               <InterpolatingParam id="2451" interp="linr"  time="-9999999/1" value="0" leadInLength="0/1"  />
               <InterpolatingParam id="2452" interp="linr"  time="-9999999/1" value="0" leadInLength="0/1"  />
              </VectorParam>
              <VectorParam id="2453"  name="shear">
               <InterpolatingParam id="2454" interp="linr"  time="-9999999/1" value="0" leadInLength="0/1"  />
               <InterpolatingParam id="2455" interp="linr"  time="-9999999/1" value="0" leadInLength="0/1"  />
               <InterpolatingParam id="2456" interp="linr"  time="-9999999/1" value="0" leadInLength="0/1"  />
              </VectorParam>
              <VectorParam id="2457"  name="scale">
               <InterpolatingParam id="2458" interp="linr"  time="-9999999/1" value="1" leadInLength="0/1"  />
               <InterpolatingParam id="2459" interp="linr"  time="-9999999/1" value="1" leadInLength="0/1"  />
               <InterpolatingParam id="2460" interp="linr"  time="-9999999/1" value="1" leadInLength="0/1"  />
              </VectorParam>
              <VectorParam id="2461"  name="anchor">
               <InterpolatingParam id="2462" interp="linr"  time="0/1" value="0" leadInLength="0/1"  />
               <InterpolatingParam id="2463" interp="linr"  time="0/1" value="0" leadInLength="0/1"  />
               <InterpolatingParam id="2464" interp="linr"  time="0/1" value="0" leadInLength="0/1"  />
              </VectorParam>
             </Transformer>
             <Parameters>
              <VectorParam id="2465"  name="sourceCrop">
               <InterpolatingParam id="2466" interp="linr"  time="0/1" value="0" leadInLength="0/1"  />
               <InterpolatingParam id="2467" interp="linr"  time="0/1" value="0" leadInLength="0/1"  />
               <InterpolatingParam id="2468" interp="linr"  time="0/1" value="0" leadInLength="0/1"  />
               <InterpolatingParam id="2469" interp="linr"  time="0/1" value="0" leadInLength="0/1"  />
              </VectorParam>
              <VectorParam id="2470"  name="geometryCrop">
               <InterpolatingParam id="2471" interp="linr"  time="-9999999/1" value="0" leadInLength="0/1"  />
               <InterpolatingParam id="2472" interp="linr"  time="-9999999/1" value="0" leadInLength="0/1"  />
               <InterpolatingParam id="2473" interp="linr"  time="-9999999/1" value="0" leadInLength="0/1"  />
               <InterpolatingParam id="2474" interp="linr"  time="-9999999/1" value="0" leadInLength="0/1"  />
              </VectorParam>
              <InterpolatingParam id="2475" interp="linr"  time="-9999999/1" value="1" leadInLength="0/1"  name="opacity"/>
             </Parameters>
             <Attributes>
              <Attribute id="2476" value="" name="ident"/>
             </Attributes>
             <ExtraData>
              <Entry key="ZoomPanBin">
               <ZoomPanBin id="2477"  >
                <ZoomPanKeyframes>
                 <ZoomPanKeyframe id="2478" timeRangeEnd="-9999999/1" timeRangeDuration="0/1" interpolaterName="linr"  />
                </ZoomPanKeyframes>
               </ZoomPanBin>
              </Entry>
             </ExtraData>
            </VMFile>
            <MetaData>
             <entry key="WinSubProjectDisplayName" val=""/>
            </MetaData>
           </UnifiedMedia>
          </Medias>
         </GenericTrack>
        </StitchedMedia>
        <StitchedMedia id="2479" start="7034" duration="21" scalar="1098867/943520" mediaStart="3375/104654" mediaDuration="943520/52327" minMediaStart="-5833616625/104654" >
         <Transformer>
          <VectorParam id="2480"  name="translation">
           <InterpolatingParam id="2481" interp="linr"  time="-9999999/1" value="0" leadInLength="0/1"  />
           <InterpolatingParam id="2482" interp="linr"  time="-9999999/1" value="0" leadInLength="0/1"  />
           <InterpolatingParam id="2483" interp="linr"  time="-9999999/1" value="0" leadInLength="0/1"  />
          </VectorParam>
          <VectorParam id="2484"  name="rotation">
           <InterpolatingParam id="2485" interp="linr"  time="-9999999/1" value="0" leadInLength="0/1"  />
           <InterpolatingParam id="2486" interp="linr"  time="-9999999/1" value="0" leadInLength="0/1"  />
           <InterpolatingParam id="2487" interp="linr"  time="-9999999/1" value="0" leadInLength="0/1"  />
          </VectorParam>
          <VectorParam id="2488"  name="shear">
           <InterpolatingParam id="2489" interp="linr"  time="-9999999/1" value="0" leadInLength="0/1"  />
           <InterpolatingParam id="2490" interp="linr"  time="-9999999/1" value="0" leadInLength="0/1"  />
           <InterpolatingParam id="2491" interp="linr"  time="-9999999/1" value="0" leadInLength="0/1"  />
          </VectorParam>
          <VectorParam id="2492"  name="scale">
           <InterpolatingParam id="2493" interp="linr"  time="-9999999/1" value="1" leadInLength="0/1"  />
           <InterpolatingParam id="2494" interp="linr"  time="-9999999/1" value="1" leadInLength="0/1"  />
           <InterpolatingParam id="2495" interp="linr"  time="-9999999/1" value="1" leadInLength="0/1"  />
          </VectorParam>
          <VectorParam id="2496"  name="anchor">
           <InterpolatingParam id="2497" interp="linr"  time="0/1" value="0" leadInLength="0/1"  />
           <InterpolatingParam id="2498" interp="linr"  time="0/1" value="0" leadInLength="0/1"  />
           <InterpolatingParam id="2499" interp="linr"  time="0/1" value="0" leadInLength="0/1"  />
          </VectorParam>
         </Transformer>
         <Parameters>
          <VectorParam id="2500"  name="sourceCrop">
           <InterpolatingParam id="2501" interp="linr"  time="0/1" value="0" leadInLength="0/1"  />
           <InterpolatingParam id="2502" interp="linr"  time="0/1" value="0" leadInLength="0/1"  />
           <InterpolatingParam id="2503" interp="linr"  time="0/1" value="0" leadInLength="0/1"  />
           <InterpolatingParam id="2504" interp="linr"  time="0/1" value="0" leadInLength="0/1"  />
          </VectorParam>
          <VectorParam id="2505"  name="geometryCrop">
           <InterpolatingParam id="2506" interp="linr"  time="-9999999/1" value="0" leadInLength="0/1"  />
           <InterpolatingParam id="2507" interp="linr"  time="-9999999/1" value="0" leadInLength="0/1"  />
           <InterpolatingParam id="2508" interp="linr"  time="-9999999/1" value="0" leadInLength="0/1"  />
           <InterpolatingParam id="2509" interp="linr"  time="-9999999/1" value="0" leadInLength="0/1"  />
          </VectorParam>
          <InterpolatingParam id="2510" interp="linr"  time="-9999999/1" value="1" leadInLength="0/1"  name="opacity"/>
          <InterpolatingParam id="2511" interp="linr"  time="0/1" value="1" leadInLength="0/1"  name="cursorOpacity"/>
          <InterpolatingParam id="2512" interp="linr"  time="0/1" value="1" leadInLength="0/1"  name="cursorScale"/>
          <InterpolatingParam id="2513" interp="linr"  name="volume">
           <Keyframes>
           <Keyframe id="2514"  time="-5833616625/104654" value="0" leadInLength="0/1"  />
           <Keyframe id="2515"  time="143611/9514" value="0" leadInLength="0/1"  />
           <Keyframe id="2516"  time="17/1" value="0" leadInLength="0/1"  />
           </Keyframes>
          </InterpolatingParam>
          <Parameter id="2517"  name="captions"/>
         </Parameters>
         <Attributes>
          <Attribute id="2518" value="" name="ident"/>
          <Attribute id="2519" value="0" name="mixToMono"/>
         </Attributes>
         <MetaData>
          <entry key="WinSubProjectDisplayName" val=""/>
         </MetaData>
         <ExtraData>
          <Entry key="ZoomPanBin">
           <ZoomPanBin id="2520"  >
            <ZoomPanKeyframes>
             <ZoomPanKeyframe id="2521" timeRangeEnd="-9999999/1" timeRangeDuration="0/1" interpolaterName="linr"  />
            </ZoomPanKeyframes>
           </ZoomPanBin>
          </Entry>
          <Entry key="CursorEffectBin">
           <CursorEffectBin id="2522"  >
            <CursorEffectKeyframes>
            </CursorEffectKeyframes>
           </CursorEffectBin>
          </Entry>
         </ExtraData>
         <GenericTrack id="2523"  >
          <Attributes>
           <Attribute id="2524" value="" name="ident"/>
           <Attribute id="2525" value="0" name="audioMuted"/>
           <Attribute id="2526" value="0" name="videoHidden"/>
          </Attributes>
          <MetaData>
           <entry key="IsLocked" val="False"/>
           <entry key="WinTrackHeight" val="0"/>
          </MetaData>
          <Medias>
           <IMFile id="2527" start="-55741" duration="55758" scalar="1/1" mediaStart="6973/1" mediaDuration="1/1" trackNumber="0" src="21" trimStartSum="-55742/1" >
            <Transformer>
             <VectorParam id="2528"  name="translation">
              <InterpolatingParam id="2529" interp="linr"  time="-9999999/1" value="0" leadInLength="0/1"  />
              <InterpolatingParam id="2530" interp="linr"  time="-9999999/1" value="0" leadInLength="0/1"  />
              <InterpolatingParam id="2531" interp="linr"  time="-9999999/1" value="0" leadInLength="0/1"  />
             </VectorParam>
             <VectorParam id="2532"  name="rotation">
              <InterpolatingParam id="2533" interp="linr"  time="-9999999/1" value="0" leadInLength="0/1"  />
              <InterpolatingParam id="2534" interp="linr"  time="-9999999/1" value="0" leadInLength="0/1"  />
              <InterpolatingParam id="2535" interp="linr"  time="-9999999/1" value="0" leadInLength="0/1"  />
             </VectorParam>
             <VectorParam id="2536"  name="shear">
              <InterpolatingParam id="2537" interp="linr"  time="-9999999/1" value="0" leadInLength="0/1"  />
              <InterpolatingParam id="2538" interp="linr"  time="-9999999/1" value="0" leadInLength="0/1"  />
              <InterpolatingParam id="2539" interp="linr"  time="-9999999/1" value="0" leadInLength="0/1"  />
             </VectorParam>
             <VectorParam id="2540"  name="scale">
              <InterpolatingParam id="2541" interp="linr"  time="-9999999/1" value="1" leadInLength="0/1"  />
              <InterpolatingParam id="2542" interp="linr"  time="-9999999/1" value="1" leadInLength="0/1"  />
              <InterpolatingParam id="2543" interp="linr"  time="-9999999/1" value="1" leadInLength="0/1"  />
             </VectorParam>
             <VectorParam id="2544"  name="anchor">
              <InterpolatingParam id="2545" interp="linr"  time="0/1" value="0" leadInLength="0/1"  />
              <InterpolatingParam id="2546" interp="linr"  time="0/1" value="0" leadInLength="0/1"  />
              <InterpolatingParam id="2547" interp="linr"  time="0/1" value="0" leadInLength="0/1"  />
             </VectorParam>
            </Transformer>
            <Parameters>
             <VectorParam id="2548"  name="sourceCrop">
              <InterpolatingParam id="2549" interp="linr"  time="0/1" value="0" leadInLength="0/1"  />
              <InterpolatingParam id="2550" interp="linr"  time="0/1" value="0" leadInLength="0/1"  />
              <InterpolatingParam id="2551" interp="linr"  time="0/1" value="0" leadInLength="0/1"  />
              <InterpolatingParam id="2552" interp="linr"  time="0/1" value="0" leadInLength="0/1"  />
             </VectorParam>
             <VectorParam id="2553"  name="geometryCrop">
              <InterpolatingParam id="2554" interp="linr"  time="-9999999/1" value="0" leadInLength="0/1"  />
              <InterpolatingParam id="2555" interp="linr"  time="-9999999/1" value="0" leadInLength="0/1"  />
              <InterpolatingParam id="2556" interp="linr"  time="-9999999/1" value="0" leadInLength="0/1"  />
              <InterpolatingParam id="2557" interp="linr"  time="-9999999/1" value="0" leadInLength="0/1"  />
             </VectorParam>
             <InterpolatingParam id="2558" interp="linr"  time="-9999999/1" value="1" leadInLength="0/1"  name="opacity"/>
            </Parameters>
            <Attributes>
             <Attribute id="2559" value="" name="ident"/>
            </Attributes>
            <MetaData>
             <entry key="WinSubProjectDisplayName" val=""/>
            </MetaData>
            <ExtraData>
             <Entry key="ZoomPanBin">
              <ZoomPanBin id="2560"  >
               <ZoomPanKeyframes>
                <ZoomPanKeyframe id="2561" timeRangeEnd="-9999999/1" timeRangeDuration="0/1" interpolaterName="linr"  />
               </ZoomPanKeyframes>
              </ZoomPanBin>
             </Entry>
            </ExtraData>
           </IMFile>
           <UnifiedMedia id="2562"  >
            <AMFile id="2563" start="17" duration="1979" scalar="1/1" mediaStart="6973/1" mediaDuration="1979/1" trackNumber="1" src="21" channelNumber="0,1" >
             <Parameters>
              <InterpolatingParam id="2564" interp="linr"  time="0/1" value="1" leadInLength="0/1"  name="volume"/>
              <Parameter id="2565"  name="captions"/>
             </Parameters>
             <Attributes>
              <Attribute id="2566" value="" name="ident"/>
              <Attribute id="2567" value="44100" name="sampleRate"/>
              <Attribute id="2568" value="16" name="bitDepth"/>
              <Attribute id="2569" value="1" name="gain"/>
              <Attribute id="2570" value="0" name="mixToMono"/>
             </Attributes>
            </AMFile>
            <VMFile id="2571" start="17" duration="1979" scalar="1/1" mediaStart="6973/1" mediaDuration="1979/1" trackNumber="0" src="21" >
             <Transformer>
              <VectorParam id="2572"  name="translation">
               <InterpolatingParam id="2573" interp="linr"  time="-9999999/1" value="0" leadInLength="0/1"  />
               <InterpolatingParam id="2574" interp="linr"  time="-9999999/1" value="0" leadInLength="0/1"  />
               <InterpolatingParam id="2575" interp="linr"  time="-9999999/1" value="0" leadInLength="0/1"  />
              </VectorParam>
              <VectorParam id="2576"  name="rotation">
               <InterpolatingParam id="2577" interp="linr"  time="-9999999/1" value="0" leadInLength="0/1"  />
               <InterpolatingParam id="2578" interp="linr"  time="-9999999/1" value="0" leadInLength="0/1"  />
               <InterpolatingParam id="2579" interp="linr"  time="-9999999/1" value="0" leadInLength="0/1"  />
              </VectorParam>
              <VectorParam id="2580"  name="shear">
               <InterpolatingParam id="2581" interp="linr"  time="-9999999/1" value="0" leadInLength="0/1"  />
               <InterpolatingParam id="2582" interp="linr"  time="-9999999/1" value="0" leadInLength="0/1"  />
               <InterpolatingParam id="2583" interp="linr"  time="-9999999/1" value="0" leadInLength="0/1"  />
              </VectorParam>
              <VectorParam id="2584"  name="scale">
               <InterpolatingParam id="2585" interp="linr"  time="-9999999/1" value="1" leadInLength="0/1"  />
               <InterpolatingParam id="2586" interp="linr"  time="-9999999/1" value="1" leadInLength="0/1"  />
               <InterpolatingParam id="2587" interp="linr"  time="-9999999/1" value="1" leadInLength="0/1"  />
              </VectorParam>
              <VectorParam id="2588"  name="anchor">
               <InterpolatingParam id="2589" interp="linr"  time="0/1" value="0" leadInLength="0/1"  />
               <InterpolatingParam id="2590" interp="linr"  time="0/1" value="0" leadInLength="0/1"  />
               <InterpolatingParam id="2591" interp="linr"  time="0/1" value="0" leadInLength="0/1"  />
              </VectorParam>
             </Transformer>
             <Parameters>
              <VectorParam id="2592"  name="sourceCrop">
               <InterpolatingParam id="2593" interp="linr"  time="0/1" value="0" leadInLength="0/1"  />
               <InterpolatingParam id="2594" interp="linr"  time="0/1" value="0" leadInLength="0/1"  />
               <InterpolatingParam id="2595" interp="linr"  time="0/1" value="0" leadInLength="0/1"  />
               <InterpolatingParam id="2596" interp="linr"  time="0/1" value="0" leadInLength="0/1"  />
              </VectorParam>
              <VectorParam id="2597"  name="geometryCrop">
               <InterpolatingParam id="2598" interp="linr"  time="-9999999/1" value="0" leadInLength="0/1"  />
               <InterpolatingParam id="2599" interp="linr"  time="-9999999/1" value="0" leadInLength="0/1"  />
               <InterpolatingParam id="2600" interp="linr"  time="-9999999/1" value="0" leadInLength="0/1"  />
               <InterpolatingParam id="2601" interp="linr"  time="-9999999/1" value="0" leadInLength="0/1"  />
              </VectorParam>
              <InterpolatingParam id="2602" interp="linr"  time="-9999999/1" value="1" leadInLength="0/1"  name="opacity"/>
             </Parameters>
             <Attributes>
              <Attribute id="2603" value="" name="ident"/>
             </Attributes>
             <ExtraData>
              <Entry key="ZoomPanBin">
               <ZoomPanBin id="2604"  >
                <ZoomPanKeyframes>
                 <ZoomPanKeyframe id="2605" timeRangeEnd="-9999999/1" timeRangeDuration="0/1" interpolaterName="linr"  />
                </ZoomPanKeyframes>
               </ZoomPanBin>
              </Entry>
             </ExtraData>
            </VMFile>
            <MetaData>
             <entry key="WinSubProjectDisplayName" val=""/>
            </MetaData>
           </UnifiedMedia>
          </Medias>
         </GenericTrack>
        </StitchedMedia>
        <StitchedMedia id="2606" start="7055" duration="21" scalar="1098867/943520" mediaStart="3375/104654" mediaDuration="943520/52327" minMediaStart="-5833616625/104654" >
         <Transformer>
          <VectorParam id="2607"  name="translation">
           <InterpolatingParam id="2608" interp="linr"  time="-9999999/1" value="0" leadInLength="0/1"  />
           <InterpolatingParam id="2609" interp="linr"  time="-9999999/1" value="0" leadInLength="0/1"  />
           <InterpolatingParam id="2610" interp="linr"  time="-9999999/1" value="0" leadInLength="0/1"  />
          </VectorParam>
          <VectorParam id="2611"  name="rotation">
           <InterpolatingParam id="2612" interp="linr"  time="-9999999/1" value="0" leadInLength="0/1"  />
           <InterpolatingParam id="2613" interp="linr"  time="-9999999/1" value="0" leadInLength="0/1"  />
           <InterpolatingParam id="2614" interp="linr"  time="-9999999/1" value="0" leadInLength="0/1"  />
          </VectorParam>
          <VectorParam id="2615"  name="shear">
           <InterpolatingParam id="2616" interp="linr"  time="-9999999/1" value="0" leadInLength="0/1"  />
           <InterpolatingParam id="2617" interp="linr"  time="-9999999/1" value="0" leadInLength="0/1"  />
           <InterpolatingParam id="2618" interp="linr"  time="-9999999/1" value="0" leadInLength="0/1"  />
          </VectorParam>
          <VectorParam id="2619"  name="scale">
           <InterpolatingParam id="2620" interp="linr"  time="-9999999/1" value="1" leadInLength="0/1"  />
           <InterpolatingParam id="2621" interp="linr"  time="-9999999/1" value="1" leadInLength="0/1"  />
           <InterpolatingParam id="2622" interp="linr"  time="-9999999/1" value="1" leadInLength="0/1"  />
          </VectorParam>
          <VectorParam id="2623"  name="anchor">
           <InterpolatingParam id="2624" interp="linr"  time="0/1" value="0" leadInLength="0/1"  />
           <InterpolatingParam id="2625" interp="linr"  time="0/1" value="0" leadInLength="0/1"  />
           <InterpolatingParam id="2626" interp="linr"  time="0/1" value="0" leadInLength="0/1"  />
          </VectorParam>
         </Transformer>
         <Parameters>
          <VectorParam id="2627"  name="sourceCrop">
           <InterpolatingParam id="2628" interp="linr"  time="0/1" value="0" leadInLength="0/1"  />
           <InterpolatingParam id="2629" interp="linr"  time="0/1" value="0" leadInLength="0/1"  />
           <InterpolatingParam id="2630" interp="linr"  time="0/1" value="0" leadInLength="0/1"  />
           <InterpolatingParam id="2631" interp="linr"  time="0/1" value="0" leadInLength="0/1"  />
          </VectorParam>
          <VectorParam id="2632"  name="geometryCrop">
           <InterpolatingParam id="2633" interp="linr"  time="-9999999/1" value="0" leadInLength="0/1"  />
           <InterpolatingParam id="2634" interp="linr"  time="-9999999/1" value="0" leadInLength="0/1"  />
           <InterpolatingParam id="2635" interp="linr"  time="-9999999/1" value="0" leadInLength="0/1"  />
           <InterpolatingParam id="2636" interp="linr"  time="-9999999/1" value="0" leadInLength="0/1"  />
          </VectorParam>
          <InterpolatingParam id="2637" interp="linr"  time="-9999999/1" value="1" leadInLength="0/1"  name="opacity"/>
          <InterpolatingParam id="2638" interp="linr"  time="0/1" value="1" leadInLength="0/1"  name="cursorOpacity"/>
          <InterpolatingParam id="2639" interp="linr"  time="0/1" value="1" leadInLength="0/1"  name="cursorScale"/>
          <InterpolatingParam id="2640" interp="linr"  name="volume">
           <Keyframes>
           <Keyframe id="2641"  time="-5833616625/104654" value="0" leadInLength="0/1"  />
           <Keyframe id="2642"  time="143611/9514" value="0" leadInLength="0/1"  />
           <Keyframe id="2643"  time="17/1" value="0" leadInLength="0/1"  />
           </Keyframes>
          </InterpolatingParam>
          <Parameter id="2644"  name="captions"/>
         </Parameters>
         <Attributes>
          <Attribute id="2645" value="" name="ident"/>
          <Attribute id="2646" value="0" name="mixToMono"/>
         </Attributes>
         <MetaData>
          <entry key="WinSubProjectDisplayName" val=""/>
         </MetaData>
         <ExtraData>
          <Entry key="ZoomPanBin">
           <ZoomPanBin id="2647"  >
            <ZoomPanKeyframes>
             <ZoomPanKeyframe id="2648" timeRangeEnd="-9999999/1" timeRangeDuration="0/1" interpolaterName="linr"  />
            </ZoomPanKeyframes>
           </ZoomPanBin>
          </Entry>
          <Entry key="CursorEffectBin">
           <CursorEffectBin id="2649"  >
            <CursorEffectKeyframes>
            </CursorEffectKeyframes>
           </CursorEffectBin>
          </Entry>
         </ExtraData>
         <GenericTrack id="2650"  >
          <Attributes>
           <Attribute id="2651" value="" name="ident"/>
           <Attribute id="2652" value="0" name="audioMuted"/>
           <Attribute id="2653" value="0" name="videoHidden"/>
          </Attributes>
          <MetaData>
           <entry key="IsLocked" val="False"/>
           <entry key="WinTrackHeight" val="0"/>
          </MetaData>
          <Medias>
           <IMFile id="2654" start="-55741" duration="55758" scalar="1/1" mediaStart="6973/1" mediaDuration="1/1" trackNumber="0" src="21" trimStartSum="-55742/1" >
            <Transformer>
             <VectorParam id="2655"  name="translation">
              <InterpolatingParam id="2656" interp="linr"  time="-9999999/1" value="0" leadInLength="0/1"  />
              <InterpolatingParam id="2657" interp="linr"  time="-9999999/1" value="0" leadInLength="0/1"  />
              <InterpolatingParam id="2658" interp="linr"  time="-9999999/1" value="0" leadInLength="0/1"  />
             </VectorParam>
             <VectorParam id="2659"  name="rotation">
              <InterpolatingParam id="2660" interp="linr"  time="-9999999/1" value="0" leadInLength="0/1"  />
              <InterpolatingParam id="2661" interp="linr"  time="-9999999/1" value="0" leadInLength="0/1"  />
              <InterpolatingParam id="2662" interp="linr"  time="-9999999/1" value="0" leadInLength="0/1"  />
             </VectorParam>
             <VectorParam id="2663"  name="shear">
              <InterpolatingParam id="2664" interp="linr"  time="-9999999/1" value="0" leadInLength="0/1"  />
              <InterpolatingParam id="2665" interp="linr"  time="-9999999/1" value="0" leadInLength="0/1"  />
              <InterpolatingParam id="2666" interp="linr"  time="-9999999/1" value="0" leadInLength="0/1"  />
             </VectorParam>
             <VectorParam id="2667"  name="scale">
              <InterpolatingParam id="2668" interp="linr"  time="-9999999/1" value="1" leadInLength="0/1"  />
              <InterpolatingParam id="2669" interp="linr"  time="-9999999/1" value="1" leadInLength="0/1"  />
              <InterpolatingParam id="2670" interp="linr"  time="-9999999/1" value="1" leadInLength="0/1"  />
             </VectorParam>
             <VectorParam id="2671"  name="anchor">
              <InterpolatingParam id="2672" interp="linr"  time="0/1" value="0" leadInLength="0/1"  />
              <InterpolatingParam id="2673" interp="linr"  time="0/1" value="0" leadInLength="0/1"  />
              <InterpolatingParam id="2674" interp="linr"  time="0/1" value="0" leadInLength="0/1"  />
             </VectorParam>
            </Transformer>
            <Parameters>
             <VectorParam id="2675"  name="sourceCrop">
              <InterpolatingParam id="2676" interp="linr"  time="0/1" value="0" leadInLength="0/1"  />
              <InterpolatingParam id="2677" interp="linr"  time="0/1" value="0" leadInLength="0/1"  />
              <InterpolatingParam id="2678" interp="linr"  time="0/1" value="0" leadInLength="0/1"  />
              <InterpolatingParam id="2679" interp="linr"  time="0/1" value="0" leadInLength="0/1"  />
             </VectorParam>
             <VectorParam id="2680"  name="geometryCrop">
              <InterpolatingParam id="2681" interp="linr"  time="-9999999/1" value="0" leadInLength="0/1"  />
              <InterpolatingParam id="2682" interp="linr"  time="-9999999/1" value="0" leadInLength="0/1"  />
              <InterpolatingParam id="2683" interp="linr"  time="-9999999/1" value="0" leadInLength="0/1"  />
              <InterpolatingParam id="2684" interp="linr"  time="-9999999/1" value="0" leadInLength="0/1"  />
             </VectorParam>
             <InterpolatingParam id="2685" interp="linr"  time="-9999999/1" value="1" leadInLength="0/1"  name="opacity"/>
            </Parameters>
            <Attributes>
             <Attribute id="2686" value="" name="ident"/>
            </Attributes>
            <MetaData>
             <entry key="WinSubProjectDisplayName" val=""/>
            </MetaData>
            <ExtraData>
             <Entry key="ZoomPanBin">
              <ZoomPanBin id="2687"  >
               <ZoomPanKeyframes>
                <ZoomPanKeyframe id="2688" timeRangeEnd="-9999999/1" timeRangeDuration="0/1" interpolaterName="linr"  />
               </ZoomPanKeyframes>
              </ZoomPanBin>
             </Entry>
            </ExtraData>
           </IMFile>
           <UnifiedMedia id="2689"  >
            <AMFile id="2690" start="17" duration="1979" scalar="1/1" mediaStart="6973/1" mediaDuration="1979/1" trackNumber="1" src="21" channelNumber="0,1" >
             <Parameters>
              <InterpolatingParam id="2691" interp="linr"  time="0/1" value="1" leadInLength="0/1"  name="volume"/>
              <Parameter id="2692"  name="captions"/>
             </Parameters>
             <Attributes>
              <Attribute id="2693" value="" name="ident"/>
              <Attribute id="2694" value="44100" name="sampleRate"/>
              <Attribute id="2695" value="16" name="bitDepth"/>
              <Attribute id="2696" value="1" name="gain"/>
              <Attribute id="2697" value="0" name="mixToMono"/>
             </Attributes>
            </AMFile>
            <VMFile id="2698" start="17" duration="1979" scalar="1/1" mediaStart="6973/1" mediaDuration="1979/1" trackNumber="0" src="21" >
             <Transformer>
              <VectorParam id="2699"  name="translation">
               <InterpolatingParam id="2700" interp="linr"  time="-9999999/1" value="0" leadInLength="0/1"  />
               <InterpolatingParam id="2701" interp="linr"  time="-9999999/1" value="0" leadInLength="0/1"  />
               <InterpolatingParam id="2702" interp="linr"  time="-9999999/1" value="0" leadInLength="0/1"  />
              </VectorParam>
              <VectorParam id="2703"  name="rotation">
               <InterpolatingParam id="2704" interp="linr"  time="-9999999/1" value="0" leadInLength="0/1"  />
               <InterpolatingParam id="2705" interp="linr"  time="-9999999/1" value="0" leadInLength="0/1"  />
               <InterpolatingParam id="2706" interp="linr"  time="-9999999/1" value="0" leadInLength="0/1"  />
              </VectorParam>
              <VectorParam id="2707"  name="shear">
               <InterpolatingParam id="2708" interp="linr"  time="-9999999/1" value="0" leadInLength="0/1"  />
               <InterpolatingParam id="2709" interp="linr"  time="-9999999/1" value="0" leadInLength="0/1"  />
               <InterpolatingParam id="2710" interp="linr"  time="-9999999/1" value="0" leadInLength="0/1"  />
              </VectorParam>
              <VectorParam id="2711"  name="scale">
               <InterpolatingParam id="2712" interp="linr"  time="-9999999/1" value="1" leadInLength="0/1"  />
               <InterpolatingParam id="2713" interp="linr"  time="-9999999/1" value="1" leadInLength="0/1"  />
               <InterpolatingParam id="2714" interp="linr"  time="-9999999/1" value="1" leadInLength="0/1"  />
              </VectorParam>
              <VectorParam id="2715"  name="anchor">
               <InterpolatingParam id="2716" interp="linr"  time="0/1" value="0" leadInLength="0/1"  />
               <InterpolatingParam id="2717" interp="linr"  time="0/1" value="0" leadInLength="0/1"  />
               <InterpolatingParam id="2718" interp="linr"  time="0/1" value="0" leadInLength="0/1"  />
              </VectorParam>
             </Transformer>
             <Parameters>
              <VectorParam id="2719"  name="sourceCrop">
               <InterpolatingParam id="2720" interp="linr"  time="0/1" value="0" leadInLength="0/1"  />
               <InterpolatingParam id="2721" interp="linr"  time="0/1" value="0" leadInLength="0/1"  />
               <InterpolatingParam id="2722" interp="linr"  time="0/1" value="0" leadInLength="0/1"  />
               <InterpolatingParam id="2723" interp="linr"  time="0/1" value="0" leadInLength="0/1"  />
              </VectorParam>
              <VectorParam id="2724"  name="geometryCrop">
               <InterpolatingParam id="2725" interp="linr"  time="-9999999/1" value="0" leadInLength="0/1"  />
               <InterpolatingParam id="2726" interp="linr"  time="-9999999/1" value="0" leadInLength="0/1"  />
               <InterpolatingParam id="2727" interp="linr"  time="-9999999/1" value="0" leadInLength="0/1"  />
               <InterpolatingParam id="2728" interp="linr"  time="-9999999/1" value="0" leadInLength="0/1"  />
              </VectorParam>
              <InterpolatingParam id="2729" interp="linr"  time="-9999999/1" value="1" leadInLength="0/1"  name="opacity"/>
             </Parameters>
             <Attributes>
              <Attribute id="2730" value="" name="ident"/>
             </Attributes>
             <ExtraData>
              <Entry key="ZoomPanBin">
               <ZoomPanBin id="2731"  >
                <ZoomPanKeyframes>
                 <ZoomPanKeyframe id="2732" timeRangeEnd="-9999999/1" timeRangeDuration="0/1" interpolaterName="linr"  />
                </ZoomPanKeyframes>
               </ZoomPanBin>
              </Entry>
             </ExtraData>
            </VMFile>
            <MetaData>
             <entry key="WinSubProjectDisplayName" val=""/>
            </MetaData>
           </UnifiedMedia>
          </Medias>
         </GenericTrack>
        </StitchedMedia>
        <StitchedMedia id="2733" start="7076" duration="21" scalar="1098867/943520" mediaStart="3375/104654" mediaDuration="943520/52327" minMediaStart="-5833616625/104654" >
         <Transformer>
          <VectorParam id="2734"  name="translation">
           <InterpolatingParam id="2735" interp="linr"  time="-9999999/1" value="0" leadInLength="0/1"  />
           <InterpolatingParam id="2736" interp="linr"  time="-9999999/1" value="0" leadInLength="0/1"  />
           <InterpolatingParam id="2737" interp="linr"  time="-9999999/1" value="0" leadInLength="0/1"  />
          </VectorParam>
          <VectorParam id="2738"  name="rotation">
           <InterpolatingParam id="2739" interp="linr"  time="-9999999/1" value="0" leadInLength="0/1"  />
           <InterpolatingParam id="2740" interp="linr"  time="-9999999/1" value="0" leadInLength="0/1"  />
           <InterpolatingParam id="2741" interp="linr"  time="-9999999/1" value="0" leadInLength="0/1"  />
          </VectorParam>
          <VectorParam id="2742"  name="shear">
           <InterpolatingParam id="2743" interp="linr"  time="-9999999/1" value="0" leadInLength="0/1"  />
           <InterpolatingParam id="2744" interp="linr"  time="-9999999/1" value="0" leadInLength="0/1"  />
           <InterpolatingParam id="2745" interp="linr"  time="-9999999/1" value="0" leadInLength="0/1"  />
          </VectorParam>
          <VectorParam id="2746"  name="scale">
           <InterpolatingParam id="2747" interp="linr"  time="-9999999/1" value="1" leadInLength="0/1"  />
           <InterpolatingParam id="2748" interp="linr"  time="-9999999/1" value="1" leadInLength="0/1"  />
           <InterpolatingParam id="2749" interp="linr"  time="-9999999/1" value="1" leadInLength="0/1"  />
          </VectorParam>
          <VectorParam id="2750"  name="anchor">
           <InterpolatingParam id="2751" interp="linr"  time="0/1" value="0" leadInLength="0/1"  />
           <InterpolatingParam id="2752" interp="linr"  time="0/1" value="0" leadInLength="0/1"  />
           <InterpolatingParam id="2753" interp="linr"  time="0/1" value="0" leadInLength="0/1"  />
          </VectorParam>
         </Transformer>
         <Parameters>
          <VectorParam id="2754"  name="sourceCrop">
           <InterpolatingParam id="2755" interp="linr"  time="0/1" value="0" leadInLength="0/1"  />
           <InterpolatingParam id="2756" interp="linr"  time="0/1" value="0" leadInLength="0/1"  />
           <InterpolatingParam id="2757" interp="linr"  time="0/1" value="0" leadInLength="0/1"  />
           <InterpolatingParam id="2758" interp="linr"  time="0/1" value="0" leadInLength="0/1"  />
          </VectorParam>
          <VectorParam id="2759"  name="geometryCrop">
           <InterpolatingParam id="2760" interp="linr"  time="-9999999/1" value="0" leadInLength="0/1"  />
           <InterpolatingParam id="2761" interp="linr"  time="-9999999/1" value="0" leadInLength="0/1"  />
           <InterpolatingParam id="2762" interp="linr"  time="-9999999/1" value="0" leadInLength="0/1"  />
           <InterpolatingParam id="2763" interp="linr"  time="-9999999/1" value="0" leadInLength="0/1"  />
          </VectorParam>
          <InterpolatingParam id="2764" interp="linr"  time="-9999999/1" value="1" leadInLength="0/1"  name="opacity"/>
          <InterpolatingParam id="2765" interp="linr"  time="0/1" value="1" leadInLength="0/1"  name="cursorOpacity"/>
          <InterpolatingParam id="2766" interp="linr"  time="0/1" value="1" leadInLength="0/1"  name="cursorScale"/>
          <InterpolatingParam id="2767" interp="linr"  name="volume">
           <Keyframes>
           <Keyframe id="2768"  time="-5833616625/104654" value="0" leadInLength="0/1"  />
           <Keyframe id="2769"  time="143611/9514" value="0" leadInLength="0/1"  />
           <Keyframe id="2770"  time="17/1" value="0" leadInLength="0/1"  />
           </Keyframes>
          </InterpolatingParam>
          <Parameter id="2771"  name="captions"/>
         </Parameters>
         <Attributes>
          <Attribute id="2772" value="" name="ident"/>
          <Attribute id="2773" value="0" name="mixToMono"/>
         </Attributes>
         <MetaData>
          <entry key="WinSubProjectDisplayName" val=""/>
         </MetaData>
         <ExtraData>
          <Entry key="ZoomPanBin">
           <ZoomPanBin id="2774"  >
            <ZoomPanKeyframes>
             <ZoomPanKeyframe id="2775" timeRangeEnd="-9999999/1" timeRangeDuration="0/1" interpolaterName="linr"  />
            </ZoomPanKeyframes>
           </ZoomPanBin>
          </Entry>
          <Entry key="CursorEffectBin">
           <CursorEffectBin id="2776"  >
            <CursorEffectKeyframes>
            </CursorEffectKeyframes>
           </CursorEffectBin>
          </Entry>
         </ExtraData>
         <GenericTrack id="2777"  >
          <Attributes>
           <Attribute id="2778" value="" name="ident"/>
           <Attribute id="2779" value="0" name="audioMuted"/>
           <Attribute id="2780" value="0" name="videoHidden"/>
          </Attributes>
          <MetaData>
           <entry key="IsLocked" val="False"/>
           <entry key="WinTrackHeight" val="0"/>
          </MetaData>
          <Medias>
           <IMFile id="2781" start="-55741" duration="55758" scalar="1/1" mediaStart="6973/1" mediaDuration="1/1" trackNumber="0" src="21" trimStartSum="-55742/1" >
            <Transformer>
             <VectorParam id="2782"  name="translation">
              <InterpolatingParam id="2783" interp="linr"  time="-9999999/1" value="0" leadInLength="0/1"  />
              <InterpolatingParam id="2784" interp="linr"  time="-9999999/1" value="0" leadInLength="0/1"  />
              <InterpolatingParam id="2785" interp="linr"  time="-9999999/1" value="0" leadInLength="0/1"  />
             </VectorParam>
             <VectorParam id="2786"  name="rotation">
              <InterpolatingParam id="2787" interp="linr"  time="-9999999/1" value="0" leadInLength="0/1"  />
              <InterpolatingParam id="2788" interp="linr"  time="-9999999/1" value="0" leadInLength="0/1"  />
              <InterpolatingParam id="2789" interp="linr"  time="-9999999/1" value="0" leadInLength="0/1"  />
             </VectorParam>
             <VectorParam id="2790"  name="shear">
              <InterpolatingParam id="2791" interp="linr"  time="-9999999/1" value="0" leadInLength="0/1"  />
              <InterpolatingParam id="2792" interp="linr"  time="-9999999/1" value="0" leadInLength="0/1"  />
              <InterpolatingParam id="2793" interp="linr"  time="-9999999/1" value="0" leadInLength="0/1"  />
             </VectorParam>
             <VectorParam id="2794"  name="scale">
              <InterpolatingParam id="2795" interp="linr"  time="-9999999/1" value="1" leadInLength="0/1"  />
              <InterpolatingParam id="2796" interp="linr"  time="-9999999/1" value="1" leadInLength="0/1"  />
              <InterpolatingParam id="2797" interp="linr"  time="-9999999/1" value="1" leadInLength="0/1"  />
             </VectorParam>
             <VectorParam id="2798"  name="anchor">
              <InterpolatingParam id="2799" interp="linr"  time="0/1" value="0" leadInLength="0/1"  />
              <InterpolatingParam id="2800" interp="linr"  time="0/1" value="0" leadInLength="0/1"  />
              <InterpolatingParam id="2801" interp="linr"  time="0/1" value="0" leadInLength="0/1"  />
             </VectorParam>
            </Transformer>
            <Parameters>
             <VectorParam id="2802"  name="sourceCrop">
              <InterpolatingParam id="2803" interp="linr"  time="0/1" value="0" leadInLength="0/1"  />
              <InterpolatingParam id="2804" interp="linr"  time="0/1" value="0" leadInLength="0/1"  />
              <InterpolatingParam id="2805" interp="linr"  time="0/1" value="0" leadInLength="0/1"  />
              <InterpolatingParam id="2806" interp="linr"  time="0/1" value="0" leadInLength="0/1"  />
             </VectorParam>
             <VectorParam id="2807"  name="geometryCrop">
              <InterpolatingParam id="2808" interp="linr"  time="-9999999/1" value="0" leadInLength="0/1"  />
              <InterpolatingParam id="2809" interp="linr"  time="-9999999/1" value="0" leadInLength="0/1"  />
              <InterpolatingParam id="2810" interp="linr"  time="-9999999/1" value="0" leadInLength="0/1"  />
              <InterpolatingParam id="2811" interp="linr"  time="-9999999/1" value="0" leadInLength="0/1"  />
             </VectorParam>
             <InterpolatingParam id="2812" interp="linr"  time="-9999999/1" value="1" leadInLength="0/1"  name="opacity"/>
            </Parameters>
            <Attributes>
             <Attribute id="2813" value="" name="ident"/>
            </Attributes>
            <MetaData>
             <entry key="WinSubProjectDisplayName" val=""/>
            </MetaData>
            <ExtraData>
             <Entry key="ZoomPanBin">
              <ZoomPanBin id="2814"  >
               <ZoomPanKeyframes>
                <ZoomPanKeyframe id="2815" timeRangeEnd="-9999999/1" timeRangeDuration="0/1" interpolaterName="linr"  />
               </ZoomPanKeyframes>
              </ZoomPanBin>
             </Entry>
            </ExtraData>
           </IMFile>
           <UnifiedMedia id="2816"  >
            <AMFile id="2817" start="17" duration="1979" scalar="1/1" mediaStart="6973/1" mediaDuration="1979/1" trackNumber="1" src="21" channelNumber="0,1" >
             <Parameters>
              <InterpolatingParam id="2818" interp="linr"  time="0/1" value="1" leadInLength="0/1"  name="volume"/>
              <Parameter id="2819"  name="captions"/>
             </Parameters>
             <Attributes>
              <Attribute id="2820" value="" name="ident"/>
              <Attribute id="2821" value="44100" name="sampleRate"/>
              <Attribute id="2822" value="16" name="bitDepth"/>
              <Attribute id="2823" value="1" name="gain"/>
              <Attribute id="2824" value="0" name="mixToMono"/>
             </Attributes>
            </AMFile>
            <VMFile id="2825" start="17" duration="1979" scalar="1/1" mediaStart="6973/1" mediaDuration="1979/1" trackNumber="0" src="21" >
             <Transformer>
              <VectorParam id="2826"  name="translation">
               <InterpolatingParam id="2827" interp="linr"  time="-9999999/1" value="0" leadInLength="0/1"  />
               <InterpolatingParam id="2828" interp="linr"  time="-9999999/1" value="0" leadInLength="0/1"  />
               <InterpolatingParam id="2829" interp="linr"  time="-9999999/1" value="0" leadInLength="0/1"  />
              </VectorParam>
              <VectorParam id="2830"  name="rotation">
               <InterpolatingParam id="2831" interp="linr"  time="-9999999/1" value="0" leadInLength="0/1"  />
               <InterpolatingParam id="2832" interp="linr"  time="-9999999/1" value="0" leadInLength="0/1"  />
               <InterpolatingParam id="2833" interp="linr"  time="-9999999/1" value="0" leadInLength="0/1"  />
              </VectorParam>
              <VectorParam id="2834"  name="shear">
               <InterpolatingParam id="2835" interp="linr"  time="-9999999/1" value="0" leadInLength="0/1"  />
               <InterpolatingParam id="2836" interp="linr"  time="-9999999/1" value="0" leadInLength="0/1"  />
               <InterpolatingParam id="2837" interp="linr"  time="-9999999/1" value="0" leadInLength="0/1"  />
              </VectorParam>
              <VectorParam id="2838"  name="scale">
               <InterpolatingParam id="2839" interp="linr"  time="-9999999/1" value="1" leadInLength="0/1"  />
               <InterpolatingParam id="2840" interp="linr"  time="-9999999/1" value="1" leadInLength="0/1"  />
               <InterpolatingParam id="2841" interp="linr"  time="-9999999/1" value="1" leadInLength="0/1"  />
              </VectorParam>
              <VectorParam id="2842"  name="anchor">
               <InterpolatingParam id="2843" interp="linr"  time="0/1" value="0" leadInLength="0/1"  />
               <InterpolatingParam id="2844" interp="linr"  time="0/1" value="0" leadInLength="0/1"  />
               <InterpolatingParam id="2845" interp="linr"  time="0/1" value="0" leadInLength="0/1"  />
              </VectorParam>
             </Transformer>
             <Parameters>
              <VectorParam id="2846"  name="sourceCrop">
               <InterpolatingParam id="2847" interp="linr"  time="0/1" value="0" leadInLength="0/1"  />
               <InterpolatingParam id="2848" interp="linr"  time="0/1" value="0" leadInLength="0/1"  />
               <InterpolatingParam id="2849" interp="linr"  time="0/1" value="0" leadInLength="0/1"  />
               <InterpolatingParam id="2850" interp="linr"  time="0/1" value="0" leadInLength="0/1"  />
              </VectorParam>
              <VectorParam id="2851"  name="geometryCrop">
               <InterpolatingParam id="2852" interp="linr"  time="-9999999/1" value="0" leadInLength="0/1"  />
               <InterpolatingParam id="2853" interp="linr"  time="-9999999/1" value="0" leadInLength="0/1"  />
               <InterpolatingParam id="2854" interp="linr"  time="-9999999/1" value="0" leadInLength="0/1"  />
               <InterpolatingParam id="2855" interp="linr"  time="-9999999/1" value="0" leadInLength="0/1"  />
              </VectorParam>
              <InterpolatingParam id="2856" interp="linr"  time="-9999999/1" value="1" leadInLength="0/1"  name="opacity"/>
             </Parameters>
             <Attributes>
              <Attribute id="2857" value="" name="ident"/>
             </Attributes>
             <ExtraData>
              <Entry key="ZoomPanBin">
               <ZoomPanBin id="2858"  >
                <ZoomPanKeyframes>
                 <ZoomPanKeyframe id="2859" timeRangeEnd="-9999999/1" timeRangeDuration="0/1" interpolaterName="linr"  />
                </ZoomPanKeyframes>
               </ZoomPanBin>
              </Entry>
             </ExtraData>
            </VMFile>
            <MetaData>
             <entry key="WinSubProjectDisplayName" val=""/>
            </MetaData>
           </UnifiedMedia>
          </Medias>
         </GenericTrack>
        </StitchedMedia>
        <StitchedMedia id="2860" start="7097" duration="21" scalar="1098867/943520" mediaStart="3375/104654" mediaDuration="943520/52327" minMediaStart="-5833616625/104654" >
         <Transformer>
          <VectorParam id="2861"  name="translation">
           <InterpolatingParam id="2862" interp="linr"  time="-9999999/1" value="0" leadInLength="0/1"  />
           <InterpolatingParam id="2863" interp="linr"  time="-9999999/1" value="0" leadInLength="0/1"  />
           <InterpolatingParam id="2864" interp="linr"  time="-9999999/1" value="0" leadInLength="0/1"  />
          </VectorParam>
          <VectorParam id="2865"  name="rotation">
           <InterpolatingParam id="2866" interp="linr"  time="-9999999/1" value="0" leadInLength="0/1"  />
           <InterpolatingParam id="2867" interp="linr"  time="-9999999/1" value="0" leadInLength="0/1"  />
           <InterpolatingParam id="2868" interp="linr"  time="-9999999/1" value="0" leadInLength="0/1"  />
          </VectorParam>
          <VectorParam id="2869"  name="shear">
           <InterpolatingParam id="2870" interp="linr"  time="-9999999/1" value="0" leadInLength="0/1"  />
           <InterpolatingParam id="2871" interp="linr"  time="-9999999/1" value="0" leadInLength="0/1"  />
           <InterpolatingParam id="2872" interp="linr"  time="-9999999/1" value="0" leadInLength="0/1"  />
          </VectorParam>
          <VectorParam id="2873"  name="scale">
           <InterpolatingParam id="2874" interp="linr"  time="-9999999/1" value="1" leadInLength="0/1"  />
           <InterpolatingParam id="2875" interp="linr"  time="-9999999/1" value="1" leadInLength="0/1"  />
           <InterpolatingParam id="2876" interp="linr"  time="-9999999/1" value="1" leadInLength="0/1"  />
          </VectorParam>
          <VectorParam id="2877"  name="anchor">
           <InterpolatingParam id="2878" interp="linr"  time="0/1" value="0" leadInLength="0/1"  />
           <InterpolatingParam id="2879" interp="linr"  time="0/1" value="0" leadInLength="0/1"  />
           <InterpolatingParam id="2880" interp="linr"  time="0/1" value="0" leadInLength="0/1"  />
          </VectorParam>
         </Transformer>
         <Parameters>
          <VectorParam id="2881"  name="sourceCrop">
           <InterpolatingParam id="2882" interp="linr"  time="0/1" value="0" leadInLength="0/1"  />
           <InterpolatingParam id="2883" interp="linr"  time="0/1" value="0" leadInLength="0/1"  />
           <InterpolatingParam id="2884" interp="linr"  time="0/1" value="0" leadInLength="0/1"  />
           <InterpolatingParam id="2885" interp="linr"  time="0/1" value="0" leadInLength="0/1"  />
          </VectorParam>
          <VectorParam id="2886"  name="geometryCrop">
           <InterpolatingParam id="2887" interp="linr"  time="-9999999/1" value="0" leadInLength="0/1"  />
           <InterpolatingParam id="2888" interp="linr"  time="-9999999/1" value="0" leadInLength="0/1"  />
           <InterpolatingParam id="2889" interp="linr"  time="-9999999/1" value="0" leadInLength="0/1"  />
           <InterpolatingParam id="2890" interp="linr"  time="-9999999/1" value="0" leadInLength="0/1"  />
          </VectorParam>
          <InterpolatingParam id="2891" interp="linr"  time="-9999999/1" value="1" leadInLength="0/1"  name="opacity"/>
          <InterpolatingParam id="2892" interp="linr"  time="0/1" value="1" leadInLength="0/1"  name="cursorOpacity"/>
          <InterpolatingParam id="2893" interp="linr"  time="0/1" value="1" leadInLength="0/1"  name="cursorScale"/>
          <InterpolatingParam id="2894" interp="linr"  name="volume">
           <Keyframes>
           <Keyframe id="2895"  time="-5833616625/104654" value="0" leadInLength="0/1"  />
           <Keyframe id="2896"  time="143611/9514" value="0" leadInLength="0/1"  />
           <Keyframe id="2897"  time="17/1" value="0" leadInLength="0/1"  />
           </Keyframes>
          </InterpolatingParam>
          <Parameter id="2898"  name="captions"/>
         </Parameters>
         <Attributes>
          <Attribute id="2899" value="" name="ident"/>
          <Attribute id="2900" value="0" name="mixToMono"/>
         </Attributes>
         <MetaData>
          <entry key="WinSubProjectDisplayName" val=""/>
         </MetaData>
         <ExtraData>
          <Entry key="ZoomPanBin">
           <ZoomPanBin id="2901"  >
            <ZoomPanKeyframes>
             <ZoomPanKeyframe id="2902" timeRangeEnd="-9999999/1" timeRangeDuration="0/1" interpolaterName="linr"  />
            </ZoomPanKeyframes>
           </ZoomPanBin>
          </Entry>
          <Entry key="CursorEffectBin">
           <CursorEffectBin id="2903"  >
            <CursorEffectKeyframes>
            </CursorEffectKeyframes>
           </CursorEffectBin>
          </Entry>
         </ExtraData>
         <GenericTrack id="2904"  >
          <Attributes>
           <Attribute id="2905" value="" name="ident"/>
           <Attribute id="2906" value="0" name="audioMuted"/>
           <Attribute id="2907" value="0" name="videoHidden"/>
          </Attributes>
          <MetaData>
           <entry key="IsLocked" val="False"/>
           <entry key="WinTrackHeight" val="0"/>
          </MetaData>
          <Medias>
           <IMFile id="2908" start="-55741" duration="55758" scalar="1/1" mediaStart="6973/1" mediaDuration="1/1" trackNumber="0" src="21" trimStartSum="-55742/1" >
            <Transformer>
             <VectorParam id="2909"  name="translation">
              <InterpolatingParam id="2910" interp="linr"  time="-9999999/1" value="0" leadInLength="0/1"  />
              <InterpolatingParam id="2911" interp="linr"  time="-9999999/1" value="0" leadInLength="0/1"  />
              <InterpolatingParam id="2912" interp="linr"  time="-9999999/1" value="0" leadInLength="0/1"  />
             </VectorParam>
             <VectorParam id="2913"  name="rotation">
              <InterpolatingParam id="2914" interp="linr"  time="-9999999/1" value="0" leadInLength="0/1"  />
              <InterpolatingParam id="2915" interp="linr"  time="-9999999/1" value="0" leadInLength="0/1"  />
              <InterpolatingParam id="2916" interp="linr"  time="-9999999/1" value="0" leadInLength="0/1"  />
             </VectorParam>
             <VectorParam id="2917"  name="shear">
              <InterpolatingParam id="2918" interp="linr"  time="-9999999/1" value="0" leadInLength="0/1"  />
              <InterpolatingParam id="2919" interp="linr"  time="-9999999/1" value="0" leadInLength="0/1"  />
              <InterpolatingParam id="2920" interp="linr"  time="-9999999/1" value="0" leadInLength="0/1"  />
             </VectorParam>
             <VectorParam id="2921"  name="scale">
              <InterpolatingParam id="2922" interp="linr"  time="-9999999/1" value="1" leadInLength="0/1"  />
              <InterpolatingParam id="2923" interp="linr"  time="-9999999/1" value="1" leadInLength="0/1"  />
              <InterpolatingParam id="2924" interp="linr"  time="-9999999/1" value="1" leadInLength="0/1"  />
             </VectorParam>
             <VectorParam id="2925"  name="anchor">
              <InterpolatingParam id="2926" interp="linr"  time="0/1" value="0" leadInLength="0/1"  />
              <InterpolatingParam id="2927" interp="linr"  time="0/1" value="0" leadInLength="0/1"  />
              <InterpolatingParam id="2928" interp="linr"  time="0/1" value="0" leadInLength="0/1"  />
             </VectorParam>
            </Transformer>
            <Parameters>
             <VectorParam id="2929"  name="sourceCrop">
              <InterpolatingParam id="2930" interp="linr"  time="0/1" value="0" leadInLength="0/1"  />
              <InterpolatingParam id="2931" interp="linr"  time="0/1" value="0" leadInLength="0/1"  />
              <InterpolatingParam id="2932" interp="linr"  time="0/1" value="0" leadInLength="0/1"  />
              <InterpolatingParam id="2933" interp="linr"  time="0/1" value="0" leadInLength="0/1"  />
             </VectorParam>
             <VectorParam id="2934"  name="geometryCrop">
              <InterpolatingParam id="2935" interp="linr"  time="-9999999/1" value="0" leadInLength="0/1"  />
              <InterpolatingParam id="2936" interp="linr"  time="-9999999/1" value="0" leadInLength="0/1"  />
              <InterpolatingParam id="2937" interp="linr"  time="-9999999/1" value="0" leadInLength="0/1"  />
              <InterpolatingParam id="2938" interp="linr"  time="-9999999/1" value="0" leadInLength="0/1"  />
             </VectorParam>
             <InterpolatingParam id="2939" interp="linr"  time="-9999999/1" value="1" leadInLength="0/1"  name="opacity"/>
            </Parameters>
            <Attributes>
             <Attribute id="2940" value="" name="ident"/>
            </Attributes>
            <MetaData>
             <entry key="WinSubProjectDisplayName" val=""/>
            </MetaData>
            <ExtraData>
             <Entry key="ZoomPanBin">
              <ZoomPanBin id="2941"  >
               <ZoomPanKeyframes>
                <ZoomPanKeyframe id="2942" timeRangeEnd="-9999999/1" timeRangeDuration="0/1" interpolaterName="linr"  />
               </ZoomPanKeyframes>
              </ZoomPanBin>
             </Entry>
            </ExtraData>
           </IMFile>
           <UnifiedMedia id="2943"  >
            <AMFile id="2944" start="17" duration="1979" scalar="1/1" mediaStart="6973/1" mediaDuration="1979/1" trackNumber="1" src="21" channelNumber="0,1" >
             <Parameters>
              <InterpolatingParam id="2945" interp="linr"  time="0/1" value="1" leadInLength="0/1"  name="volume"/>
              <Parameter id="2946"  name="captions"/>
             </Parameters>
             <Attributes>
              <Attribute id="2947" value="" name="ident"/>
              <Attribute id="2948" value="44100" name="sampleRate"/>
              <Attribute id="2949" value="16" name="bitDepth"/>
              <Attribute id="2950" value="1" name="gain"/>
              <Attribute id="2951" value="0" name="mixToMono"/>
             </Attributes>
            </AMFile>
            <VMFile id="2952" start="17" duration="1979" scalar="1/1" mediaStart="6973/1" mediaDuration="1979/1" trackNumber="0" src="21" >
             <Transformer>
              <VectorParam id="2953"  name="translation">
               <InterpolatingParam id="2954" interp="linr"  time="-9999999/1" value="0" leadInLength="0/1"  />
               <InterpolatingParam id="2955" interp="linr"  time="-9999999/1" value="0" leadInLength="0/1"  />
               <InterpolatingParam id="2956" interp="linr"  time="-9999999/1" value="0" leadInLength="0/1"  />
              </VectorParam>
              <VectorParam id="2957"  name="rotation">
               <InterpolatingParam id="2958" interp="linr"  time="-9999999/1" value="0" leadInLength="0/1"  />
               <InterpolatingParam id="2959" interp="linr"  time="-9999999/1" value="0" leadInLength="0/1"  />
               <InterpolatingParam id="2960" interp="linr"  time="-9999999/1" value="0" leadInLength="0/1"  />
              </VectorParam>
              <VectorParam id="2961"  name="shear">
               <InterpolatingParam id="2962" interp="linr"  time="-9999999/1" value="0" leadInLength="0/1"  />
               <InterpolatingParam id="2963" interp="linr"  time="-9999999/1" value="0" leadInLength="0/1"  />
               <InterpolatingParam id="2964" interp="linr"  time="-9999999/1" value="0" leadInLength="0/1"  />
              </VectorParam>
              <VectorParam id="2965"  name="scale">
               <InterpolatingParam id="2966" interp="linr"  time="-9999999/1" value="1" leadInLength="0/1"  />
               <InterpolatingParam id="2967" interp="linr"  time="-9999999/1" value="1" leadInLength="0/1"  />
               <InterpolatingParam id="2968" interp="linr"  time="-9999999/1" value="1" leadInLength="0/1"  />
              </VectorParam>
              <VectorParam id="2969"  name="anchor">
               <InterpolatingParam id="2970" interp="linr"  time="0/1" value="0" leadInLength="0/1"  />
               <InterpolatingParam id="2971" interp="linr"  time="0/1" value="0" leadInLength="0/1"  />
               <InterpolatingParam id="2972" interp="linr"  time="0/1" value="0" leadInLength="0/1"  />
              </VectorParam>
             </Transformer>
             <Parameters>
              <VectorParam id="2973"  name="sourceCrop">
               <InterpolatingParam id="2974" interp="linr"  time="0/1" value="0" leadInLength="0/1"  />
               <InterpolatingParam id="2975" interp="linr"  time="0/1" value="0" leadInLength="0/1"  />
               <InterpolatingParam id="2976" interp="linr"  time="0/1" value="0" leadInLength="0/1"  />
               <InterpolatingParam id="2977" interp="linr"  time="0/1" value="0" leadInLength="0/1"  />
              </VectorParam>
              <VectorParam id="2978"  name="geometryCrop">
               <InterpolatingParam id="2979" interp="linr"  time="-9999999/1" value="0" leadInLength="0/1"  />
               <InterpolatingParam id="2980" interp="linr"  time="-9999999/1" value="0" leadInLength="0/1"  />
               <InterpolatingParam id="2981" interp="linr"  time="-9999999/1" value="0" leadInLength="0/1"  />
               <InterpolatingParam id="2982" interp="linr"  time="-9999999/1" value="0" leadInLength="0/1"  />
              </VectorParam>
              <InterpolatingParam id="2983" interp="linr"  time="-9999999/1" value="1" leadInLength="0/1"  name="opacity"/>
             </Parameters>
             <Attributes>
              <Attribute id="2984" value="" name="ident"/>
             </Attributes>
             <ExtraData>
              <Entry key="ZoomPanBin">
               <ZoomPanBin id="2985"  >
                <ZoomPanKeyframes>
                 <ZoomPanKeyframe id="2986" timeRangeEnd="-9999999/1" timeRangeDuration="0/1" interpolaterName="linr"  />
                </ZoomPanKeyframes>
               </ZoomPanBin>
              </Entry>
             </ExtraData>
            </VMFile>
            <MetaData>
             <entry key="WinSubProjectDisplayName" val=""/>
            </MetaData>
           </UnifiedMedia>
          </Medias>
         </GenericTrack>
        </StitchedMedia>
        <StitchedMedia id="2987" start="7118" duration="21" scalar="1098867/943520" mediaStart="3375/104654" mediaDuration="943520/52327" minMediaStart="-5833616625/104654" >
         <Transformer>
          <VectorParam id="2988"  name="translation">
           <InterpolatingParam id="2989" interp="linr"  time="-9999999/1" value="0" leadInLength="0/1"  />
           <InterpolatingParam id="2990" interp="linr"  time="-9999999/1" value="0" leadInLength="0/1"  />
           <InterpolatingParam id="2991" interp="linr"  time="-9999999/1" value="0" leadInLength="0/1"  />
          </VectorParam>
          <VectorParam id="2992"  name="rotation">
           <InterpolatingParam id="2993" interp="linr"  time="-9999999/1" value="0" leadInLength="0/1"  />
           <InterpolatingParam id="2994" interp="linr"  time="-9999999/1" value="0" leadInLength="0/1"  />
           <InterpolatingParam id="2995" interp="linr"  time="-9999999/1" value="0" leadInLength="0/1"  />
          </VectorParam>
          <VectorParam id="2996"  name="shear">
           <InterpolatingParam id="2997" interp="linr"  time="-9999999/1" value="0" leadInLength="0/1"  />
           <InterpolatingParam id="2998" interp="linr"  time="-9999999/1" value="0" leadInLength="0/1"  />
           <InterpolatingParam id="2999" interp="linr"  time="-9999999/1" value="0" leadInLength="0/1"  />
          </VectorParam>
          <VectorParam id="3000"  name="scale">
           <InterpolatingParam id="3001" interp="linr"  time="-9999999/1" value="1" leadInLength="0/1"  />
           <InterpolatingParam id="3002" interp="linr"  time="-9999999/1" value="1" leadInLength="0/1"  />
           <InterpolatingParam id="3003" interp="linr"  time="-9999999/1" value="1" leadInLength="0/1"  />
          </VectorParam>
          <VectorParam id="3004"  name="anchor">
           <InterpolatingParam id="3005" interp="linr"  time="0/1" value="0" leadInLength="0/1"  />
           <InterpolatingParam id="3006" interp="linr"  time="0/1" value="0" leadInLength="0/1"  />
           <InterpolatingParam id="3007" interp="linr"  time="0/1" value="0" leadInLength="0/1"  />
          </VectorParam>
         </Transformer>
         <Parameters>
          <VectorParam id="3008"  name="sourceCrop">
           <InterpolatingParam id="3009" interp="linr"  time="0/1" value="0" leadInLength="0/1"  />
           <InterpolatingParam id="3010" interp="linr"  time="0/1" value="0" leadInLength="0/1"  />
           <InterpolatingParam id="3011" interp="linr"  time="0/1" value="0" leadInLength="0/1"  />
           <InterpolatingParam id="3012" interp="linr"  time="0/1" value="0" leadInLength="0/1"  />
          </VectorParam>
          <VectorParam id="3013"  name="geometryCrop">
           <InterpolatingParam id="3014" interp="linr"  time="-9999999/1" value="0" leadInLength="0/1"  />
           <InterpolatingParam id="3015" interp="linr"  time="-9999999/1" value="0" leadInLength="0/1"  />
           <InterpolatingParam id="3016" interp="linr"  time="-9999999/1" value="0" leadInLength="0/1"  />
           <InterpolatingParam id="3017" interp="linr"  time="-9999999/1" value="0" leadInLength="0/1"  />
          </VectorParam>
          <InterpolatingParam id="3018" interp="linr"  time="-9999999/1" value="1" leadInLength="0/1"  name="opacity"/>
          <InterpolatingParam id="3019" interp="linr"  time="0/1" value="1" leadInLength="0/1"  name="cursorOpacity"/>
          <InterpolatingParam id="3020" interp="linr"  time="0/1" value="1" leadInLength="0/1"  name="cursorScale"/>
          <InterpolatingParam id="3021" interp="linr"  name="volume">
           <Keyframes>
           <Keyframe id="3022"  time="-5833616625/104654" value="0" leadInLength="0/1"  />
           <Keyframe id="3023"  time="143611/9514" value="0" leadInLength="0/1"  />
           <Keyframe id="3024"  time="17/1" value="0" leadInLength="0/1"  />
           </Keyframes>
          </InterpolatingParam>
          <Parameter id="3025"  name="captions"/>
         </Parameters>
         <Attributes>
          <Attribute id="3026" value="" name="ident"/>
          <Attribute id="3027" value="0" name="mixToMono"/>
         </Attributes>
         <MetaData>
          <entry key="WinSubProjectDisplayName" val=""/>
         </MetaData>
         <ExtraData>
          <Entry key="ZoomPanBin">
           <ZoomPanBin id="3028"  >
            <ZoomPanKeyframes>
             <ZoomPanKeyframe id="3029" timeRangeEnd="-9999999/1" timeRangeDuration="0/1" interpolaterName="linr"  />
            </ZoomPanKeyframes>
           </ZoomPanBin>
          </Entry>
          <Entry key="CursorEffectBin">
           <CursorEffectBin id="3030"  >
            <CursorEffectKeyframes>
            </CursorEffectKeyframes>
           </CursorEffectBin>
          </Entry>
         </ExtraData>
         <GenericTrack id="3031"  >
          <Attributes>
           <Attribute id="3032" value="" name="ident"/>
           <Attribute id="3033" value="0" name="audioMuted"/>
           <Attribute id="3034" value="0" name="videoHidden"/>
          </Attributes>
          <MetaData>
           <entry key="IsLocked" val="False"/>
           <entry key="WinTrackHeight" val="0"/>
          </MetaData>
          <Medias>
           <IMFile id="3035" start="-55741" duration="55758" scalar="1/1" mediaStart="6973/1" mediaDuration="1/1" trackNumber="0" src="21" trimStartSum="-55742/1" >
            <Transformer>
             <VectorParam id="3036"  name="translation">
              <InterpolatingParam id="3037" interp="linr"  time="-9999999/1" value="0" leadInLength="0/1"  />
              <InterpolatingParam id="3038" interp="linr"  time="-9999999/1" value="0" leadInLength="0/1"  />
              <InterpolatingParam id="3039" interp="linr"  time="-9999999/1" value="0" leadInLength="0/1"  />
             </VectorParam>
             <VectorParam id="3040"  name="rotation">
              <InterpolatingParam id="3041" interp="linr"  time="-9999999/1" value="0" leadInLength="0/1"  />
              <InterpolatingParam id="3042" interp="linr"  time="-9999999/1" value="0" leadInLength="0/1"  />
              <InterpolatingParam id="3043" interp="linr"  time="-9999999/1" value="0" leadInLength="0/1"  />
             </VectorParam>
             <VectorParam id="3044"  name="shear">
              <InterpolatingParam id="3045" interp="linr"  time="-9999999/1" value="0" leadInLength="0/1"  />
              <InterpolatingParam id="3046" interp="linr"  time="-9999999/1" value="0" leadInLength="0/1"  />
              <InterpolatingParam id="3047" interp="linr"  time="-9999999/1" value="0" leadInLength="0/1"  />
             </VectorParam>
             <VectorParam id="3048"  name="scale">
              <InterpolatingParam id="3049" interp="linr"  time="-9999999/1" value="1" leadInLength="0/1"  />
              <InterpolatingParam id="3050" interp="linr"  time="-9999999/1" value="1" leadInLength="0/1"  />
              <InterpolatingParam id="3051" interp="linr"  time="-9999999/1" value="1" leadInLength="0/1"  />
             </VectorParam>
             <VectorParam id="3052"  name="anchor">
              <InterpolatingParam id="3053" interp="linr"  time="0/1" value="0" leadInLength="0/1"  />
              <InterpolatingParam id="3054" interp="linr"  time="0/1" value="0" leadInLength="0/1"  />
              <InterpolatingParam id="3055" interp="linr"  time="0/1" value="0" leadInLength="0/1"  />
             </VectorParam>
            </Transformer>
            <Parameters>
             <VectorParam id="3056"  name="sourceCrop">
              <InterpolatingParam id="3057" interp="linr"  time="0/1" value="0" leadInLength="0/1"  />
              <InterpolatingParam id="3058" interp="linr"  time="0/1" value="0" leadInLength="0/1"  />
              <InterpolatingParam id="3059" interp="linr"  time="0/1" value="0" leadInLength="0/1"  />
              <InterpolatingParam id="3060" interp="linr"  time="0/1" value="0" leadInLength="0/1"  />
             </VectorParam>
             <VectorParam id="3061"  name="geometryCrop">
              <InterpolatingParam id="3062" interp="linr"  time="-9999999/1" value="0" leadInLength="0/1"  />
              <InterpolatingParam id="3063" interp="linr"  time="-9999999/1" value="0" leadInLength="0/1"  />
              <InterpolatingParam id="3064" interp="linr"  time="-9999999/1" value="0" leadInLength="0/1"  />
              <InterpolatingParam id="3065" interp="linr"  time="-9999999/1" value="0" leadInLength="0/1"  />
             </VectorParam>
             <InterpolatingParam id="3066" interp="linr"  time="-9999999/1" value="1" leadInLength="0/1"  name="opacity"/>
            </Parameters>
            <Attributes>
             <Attribute id="3067" value="" name="ident"/>
            </Attributes>
            <MetaData>
             <entry key="WinSubProjectDisplayName" val=""/>
            </MetaData>
            <ExtraData>
             <Entry key="ZoomPanBin">
              <ZoomPanBin id="3068"  >
               <ZoomPanKeyframes>
                <ZoomPanKeyframe id="3069" timeRangeEnd="-9999999/1" timeRangeDuration="0/1" interpolaterName="linr"  />
               </ZoomPanKeyframes>
              </ZoomPanBin>
             </Entry>
            </ExtraData>
           </IMFile>
           <UnifiedMedia id="3070"  >
            <AMFile id="3071" start="17" duration="1979" scalar="1/1" mediaStart="6973/1" mediaDuration="1979/1" trackNumber="1" src="21" channelNumber="0,1" >
             <Parameters>
              <InterpolatingParam id="3072" interp="linr"  time="0/1" value="1" leadInLength="0/1"  name="volume"/>
              <Parameter id="3073"  name="captions"/>
             </Parameters>
             <Attributes>
              <Attribute id="3074" value="" name="ident"/>
              <Attribute id="3075" value="44100" name="sampleRate"/>
              <Attribute id="3076" value="16" name="bitDepth"/>
              <Attribute id="3077" value="1" name="gain"/>
              <Attribute id="3078" value="0" name="mixToMono"/>
             </Attributes>
            </AMFile>
            <VMFile id="3079" start="17" duration="1979" scalar="1/1" mediaStart="6973/1" mediaDuration="1979/1" trackNumber="0" src="21" >
             <Transformer>
              <VectorParam id="3080"  name="translation">
               <InterpolatingParam id="3081" interp="linr"  time="-9999999/1" value="0" leadInLength="0/1"  />
               <InterpolatingParam id="3082" interp="linr"  time="-9999999/1" value="0" leadInLength="0/1"  />
               <InterpolatingParam id="3083" interp="linr"  time="-9999999/1" value="0" leadInLength="0/1"  />
              </VectorParam>
              <VectorParam id="3084"  name="rotation">
               <InterpolatingParam id="3085" interp="linr"  time="-9999999/1" value="0" leadInLength="0/1"  />
               <InterpolatingParam id="3086" interp="linr"  time="-9999999/1" value="0" leadInLength="0/1"  />
               <InterpolatingParam id="3087" interp="linr"  time="-9999999/1" value="0" leadInLength="0/1"  />
              </VectorParam>
              <VectorParam id="3088"  name="shear">
               <InterpolatingParam id="3089" interp="linr"  time="-9999999/1" value="0" leadInLength="0/1"  />
               <InterpolatingParam id="3090" interp="linr"  time="-9999999/1" value="0" leadInLength="0/1"  />
               <InterpolatingParam id="3091" interp="linr"  time="-9999999/1" value="0" leadInLength="0/1"  />
              </VectorParam>
              <VectorParam id="3092"  name="scale">
               <InterpolatingParam id="3093" interp="linr"  time="-9999999/1" value="1" leadInLength="0/1"  />
               <InterpolatingParam id="3094" interp="linr"  time="-9999999/1" value="1" leadInLength="0/1"  />
               <InterpolatingParam id="3095" interp="linr"  time="-9999999/1" value="1" leadInLength="0/1"  />
              </VectorParam>
              <VectorParam id="3096"  name="anchor">
               <InterpolatingParam id="3097" interp="linr"  time="0/1" value="0" leadInLength="0/1"  />
               <InterpolatingParam id="3098" interp="linr"  time="0/1" value="0" leadInLength="0/1"  />
               <InterpolatingParam id="3099" interp="linr"  time="0/1" value="0" leadInLength="0/1"  />
              </VectorParam>
             </Transformer>
             <Parameters>
              <VectorParam id="3100"  name="sourceCrop">
               <InterpolatingParam id="3101" interp="linr"  time="0/1" value="0" leadInLength="0/1"  />
               <InterpolatingParam id="3102" interp="linr"  time="0/1" value="0" leadInLength="0/1"  />
               <InterpolatingParam id="3103" interp="linr"  time="0/1" value="0" leadInLength="0/1"  />
               <InterpolatingParam id="3104" interp="linr"  time="0/1" value="0" leadInLength="0/1"  />
              </VectorParam>
              <VectorParam id="3105"  name="geometryCrop">
               <InterpolatingParam id="3106" interp="linr"  time="-9999999/1" value="0" leadInLength="0/1"  />
               <InterpolatingParam id="3107" interp="linr"  time="-9999999/1" value="0" leadInLength="0/1"  />
               <InterpolatingParam id="3108" interp="linr"  time="-9999999/1" value="0" leadInLength="0/1"  />
               <InterpolatingParam id="3109" interp="linr"  time="-9999999/1" value="0" leadInLength="0/1"  />
              </VectorParam>
              <InterpolatingParam id="3110" interp="linr"  time="-9999999/1" value="1" leadInLength="0/1"  name="opacity"/>
             </Parameters>
             <Attributes>
              <Attribute id="3111" value="" name="ident"/>
             </Attributes>
             <ExtraData>
              <Entry key="ZoomPanBin">
               <ZoomPanBin id="3112"  >
                <ZoomPanKeyframes>
                 <ZoomPanKeyframe id="3113" timeRangeEnd="-9999999/1" timeRangeDuration="0/1" interpolaterName="linr"  />
                </ZoomPanKeyframes>
               </ZoomPanBin>
              </Entry>
             </ExtraData>
            </VMFile>
            <MetaData>
             <entry key="WinSubProjectDisplayName" val=""/>
            </MetaData>
           </UnifiedMedia>
          </Medias>
         </GenericTrack>
        </StitchedMedia>
        <StitchedMedia id="3114" start="7139" duration="21" scalar="1098867/943520" mediaStart="3375/104654" mediaDuration="943520/52327" minMediaStart="-5833616625/104654" >
         <Transformer>
          <VectorParam id="3115"  name="translation">
           <InterpolatingParam id="3116" interp="linr"  time="-9999999/1" value="0" leadInLength="0/1"  />
           <InterpolatingParam id="3117" interp="linr"  time="-9999999/1" value="0" leadInLength="0/1"  />
           <InterpolatingParam id="3118" interp="linr"  time="-9999999/1" value="0" leadInLength="0/1"  />
          </VectorParam>
          <VectorParam id="3119"  name="rotation">
           <InterpolatingParam id="3120" interp="linr"  time="-9999999/1" value="0" leadInLength="0/1"  />
           <InterpolatingParam id="3121" interp="linr"  time="-9999999/1" value="0" leadInLength="0/1"  />
           <InterpolatingParam id="3122" interp="linr"  time="-9999999/1" value="0" leadInLength="0/1"  />
          </VectorParam>
          <VectorParam id="3123"  name="shear">
           <InterpolatingParam id="3124" interp="linr"  time="-9999999/1" value="0" leadInLength="0/1"  />
           <InterpolatingParam id="3125" interp="linr"  time="-9999999/1" value="0" leadInLength="0/1"  />
           <InterpolatingParam id="3126" interp="linr"  time="-9999999/1" value="0" leadInLength="0/1"  />
          </VectorParam>
          <VectorParam id="3127"  name="scale">
           <InterpolatingParam id="3128" interp="linr"  time="-9999999/1" value="1" leadInLength="0/1"  />
           <InterpolatingParam id="3129" interp="linr"  time="-9999999/1" value="1" leadInLength="0/1"  />
           <InterpolatingParam id="3130" interp="linr"  time="-9999999/1" value="1" leadInLength="0/1"  />
          </VectorParam>
          <VectorParam id="3131"  name="anchor">
           <InterpolatingParam id="3132" interp="linr"  time="0/1" value="0" leadInLength="0/1"  />
           <InterpolatingParam id="3133" interp="linr"  time="0/1" value="0" leadInLength="0/1"  />
           <InterpolatingParam id="3134" interp="linr"  time="0/1" value="0" leadInLength="0/1"  />
          </VectorParam>
         </Transformer>
         <Parameters>
          <VectorParam id="3135"  name="sourceCrop">
           <InterpolatingParam id="3136" interp="linr"  time="0/1" value="0" leadInLength="0/1"  />
           <InterpolatingParam id="3137" interp="linr"  time="0/1" value="0" leadInLength="0/1"  />
           <InterpolatingParam id="3138" interp="linr"  time="0/1" value="0" leadInLength="0/1"  />
           <InterpolatingParam id="3139" interp="linr"  time="0/1" value="0" leadInLength="0/1"  />
          </VectorParam>
          <VectorParam id="3140"  name="geometryCrop">
           <InterpolatingParam id="3141" interp="linr"  time="-9999999/1" value="0" leadInLength="0/1"  />
           <InterpolatingParam id="3142" interp="linr"  time="-9999999/1" value="0" leadInLength="0/1"  />
           <InterpolatingParam id="3143" interp="linr"  time="-9999999/1" value="0" leadInLength="0/1"  />
           <InterpolatingParam id="3144" interp="linr"  time="-9999999/1" value="0" leadInLength="0/1"  />
          </VectorParam>
          <InterpolatingParam id="3145" interp="linr"  time="-9999999/1" value="1" leadInLength="0/1"  name="opacity"/>
          <InterpolatingParam id="3146" interp="linr"  time="0/1" value="1" leadInLength="0/1"  name="cursorOpacity"/>
          <InterpolatingParam id="3147" interp="linr"  time="0/1" value="1" leadInLength="0/1"  name="cursorScale"/>
          <InterpolatingParam id="3148" interp="linr"  name="volume">
           <Keyframes>
           <Keyframe id="3149"  time="-5833616625/104654" value="0" leadInLength="0/1"  />
           <Keyframe id="3150"  time="143611/9514" value="0" leadInLength="0/1"  />
           <Keyframe id="3151"  time="17/1" value="0" leadInLength="0/1"  />
           </Keyframes>
          </InterpolatingParam>
          <Parameter id="3152"  name="captions"/>
         </Parameters>
         <Attributes>
          <Attribute id="3153" value="" name="ident"/>
          <Attribute id="3154" value="0" name="mixToMono"/>
         </Attributes>
         <MetaData>
          <entry key="WinSubProjectDisplayName" val=""/>
         </MetaData>
         <ExtraData>
          <Entry key="ZoomPanBin">
           <ZoomPanBin id="3155"  >
            <ZoomPanKeyframes>
             <ZoomPanKeyframe id="3156" timeRangeEnd="-9999999/1" timeRangeDuration="0/1" interpolaterName="linr"  />
            </ZoomPanKeyframes>
           </ZoomPanBin>
          </Entry>
          <Entry key="CursorEffectBin">
           <CursorEffectBin id="3157"  >
            <CursorEffectKeyframes>
            </CursorEffectKeyframes>
           </CursorEffectBin>
          </Entry>
         </ExtraData>
         <GenericTrack id="3158"  >
          <Attributes>
           <Attribute id="3159" value="" name="ident"/>
           <Attribute id="3160" value="0" name="audioMuted"/>
           <Attribute id="3161" value="0" name="videoHidden"/>
          </Attributes>
          <MetaData>
           <entry key="IsLocked" val="False"/>
           <entry key="WinTrackHeight" val="0"/>
          </MetaData>
          <Medias>
           <IMFile id="3162" start="-55741" duration="55758" scalar="1/1" mediaStart="6973/1" mediaDuration="1/1" trackNumber="0" src="21" trimStartSum="-55742/1" >
            <Transformer>
             <VectorParam id="3163"  name="translation">
              <InterpolatingParam id="3164" interp="linr"  time="-9999999/1" value="0" leadInLength="0/1"  />
              <InterpolatingParam id="3165" interp="linr"  time="-9999999/1" value="0" leadInLength="0/1"  />
              <InterpolatingParam id="3166" interp="linr"  time="-9999999/1" value="0" leadInLength="0/1"  />
             </VectorParam>
             <VectorParam id="3167"  name="rotation">
              <InterpolatingParam id="3168" interp="linr"  time="-9999999/1" value="0" leadInLength="0/1"  />
              <InterpolatingParam id="3169" interp="linr"  time="-9999999/1" value="0" leadInLength="0/1"  />
              <InterpolatingParam id="3170" interp="linr"  time="-9999999/1" value="0" leadInLength="0/1"  />
             </VectorParam>
             <VectorParam id="3171"  name="shear">
              <InterpolatingParam id="3172" interp="linr"  time="-9999999/1" value="0" leadInLength="0/1"  />
              <InterpolatingParam id="3173" interp="linr"  time="-9999999/1" value="0" leadInLength="0/1"  />
              <InterpolatingParam id="3174" interp="linr"  time="-9999999/1" value="0" leadInLength="0/1"  />
             </VectorParam>
             <VectorParam id="3175"  name="scale">
              <InterpolatingParam id="3176" interp="linr"  time="-9999999/1" value="1" leadInLength="0/1"  />
              <InterpolatingParam id="3177" interp="linr"  time="-9999999/1" value="1" leadInLength="0/1"  />
              <InterpolatingParam id="3178" interp="linr"  time="-9999999/1" value="1" leadInLength="0/1"  />
             </VectorParam>
             <VectorParam id="3179"  name="anchor">
              <InterpolatingParam id="3180" interp="linr"  time="0/1" value="0" leadInLength="0/1"  />
              <InterpolatingParam id="3181" interp="linr"  time="0/1" value="0" leadInLength="0/1"  />
              <InterpolatingParam id="3182" interp="linr"  time="0/1" value="0" leadInLength="0/1"  />
             </VectorParam>
            </Transformer>
            <Parameters>
             <VectorParam id="3183"  name="sourceCrop">
              <InterpolatingParam id="3184" interp="linr"  time="0/1" value="0" leadInLength="0/1"  />
              <InterpolatingParam id="3185" interp="linr"  time="0/1" value="0" leadInLength="0/1"  />
              <InterpolatingParam id="3186" interp="linr"  time="0/1" value="0" leadInLength="0/1"  />
              <InterpolatingParam id="3187" interp="linr"  time="0/1" value="0" leadInLength="0/1"  />
             </VectorParam>
             <VectorParam id="3188"  name="geometryCrop">
              <InterpolatingParam id="3189" interp="linr"  time="-9999999/1" value="0" leadInLength="0/1"  />
              <InterpolatingParam id="3190" interp="linr"  time="-9999999/1" value="0" leadInLength="0/1"  />
              <InterpolatingParam id="3191" interp="linr"  time="-9999999/1" value="0" leadInLength="0/1"  />
              <InterpolatingParam id="3192" interp="linr"  time="-9999999/1" value="0" leadInLength="0/1"  />
             </VectorParam>
             <InterpolatingParam id="3193" interp="linr"  time="-9999999/1" value="1" leadInLength="0/1"  name="opacity"/>
            </Parameters>
            <Attributes>
             <Attribute id="3194" value="" name="ident"/>
            </Attributes>
            <MetaData>
             <entry key="WinSubProjectDisplayName" val=""/>
            </MetaData>
            <ExtraData>
             <Entry key="ZoomPanBin">
              <ZoomPanBin id="3195"  >
               <ZoomPanKeyframes>
                <ZoomPanKeyframe id="3196" timeRangeEnd="-9999999/1" timeRangeDuration="0/1" interpolaterName="linr"  />
               </ZoomPanKeyframes>
              </ZoomPanBin>
             </Entry>
            </ExtraData>
           </IMFile>
           <UnifiedMedia id="3197"  >
            <AMFile id="3198" start="17" duration="1979" scalar="1/1" mediaStart="6973/1" mediaDuration="1979/1" trackNumber="1" src="21" channelNumber="0,1" >
             <Parameters>
              <InterpolatingParam id="3199" interp="linr"  time="0/1" value="1" leadInLength="0/1"  name="volume"/>
              <Parameter id="3200"  name="captions"/>
             </Parameters>
             <Attributes>
              <Attribute id="3201" value="" name="ident"/>
              <Attribute id="3202" value="44100" name="sampleRate"/>
              <Attribute id="3203" value="16" name="bitDepth"/>
              <Attribute id="3204" value="1" name="gain"/>
              <Attribute id="3205" value="0" name="mixToMono"/>
             </Attributes>
            </AMFile>
            <VMFile id="3206" start="17" duration="1979" scalar="1/1" mediaStart="6973/1" mediaDuration="1979/1" trackNumber="0" src="21" >
             <Transformer>
              <VectorParam id="3207"  name="translation">
               <InterpolatingParam id="3208" interp="linr"  time="-9999999/1" value="0" leadInLength="0/1"  />
               <InterpolatingParam id="3209" interp="linr"  time="-9999999/1" value="0" leadInLength="0/1"  />
               <InterpolatingParam id="3210" interp="linr"  time="-9999999/1" value="0" leadInLength="0/1"  />
              </VectorParam>
              <VectorParam id="3211"  name="rotation">
               <InterpolatingParam id="3212" interp="linr"  time="-9999999/1" value="0" leadInLength="0/1"  />
               <InterpolatingParam id="3213" interp="linr"  time="-9999999/1" value="0" leadInLength="0/1"  />
               <InterpolatingParam id="3214" interp="linr"  time="-9999999/1" value="0" leadInLength="0/1"  />
              </VectorParam>
              <VectorParam id="3215"  name="shear">
               <InterpolatingParam id="3216" interp="linr"  time="-9999999/1" value="0" leadInLength="0/1"  />
               <InterpolatingParam id="3217" interp="linr"  time="-9999999/1" value="0" leadInLength="0/1"  />
               <InterpolatingParam id="3218" interp="linr"  time="-9999999/1" value="0" leadInLength="0/1"  />
              </VectorParam>
              <VectorParam id="3219"  name="scale">
               <InterpolatingParam id="3220" interp="linr"  time="-9999999/1" value="1" leadInLength="0/1"  />
               <InterpolatingParam id="3221" interp="linr"  time="-9999999/1" value="1" leadInLength="0/1"  />
               <InterpolatingParam id="3222" interp="linr"  time="-9999999/1" value="1" leadInLength="0/1"  />
              </VectorParam>
              <VectorParam id="3223"  name="anchor">
               <InterpolatingParam id="3224" interp="linr"  time="0/1" value="0" leadInLength="0/1"  />
               <InterpolatingParam id="3225" interp="linr"  time="0/1" value="0" leadInLength="0/1"  />
               <InterpolatingParam id="3226" interp="linr"  time="0/1" value="0" leadInLength="0/1"  />
              </VectorParam>
             </Transformer>
             <Parameters>
              <VectorParam id="3227"  name="sourceCrop">
               <InterpolatingParam id="3228" interp="linr"  time="0/1" value="0" leadInLength="0/1"  />
               <InterpolatingParam id="3229" interp="linr"  time="0/1" value="0" leadInLength="0/1"  />
               <InterpolatingParam id="3230" interp="linr"  time="0/1" value="0" leadInLength="0/1"  />
               <InterpolatingParam id="3231" interp="linr"  time="0/1" value="0" leadInLength="0/1"  />
              </VectorParam>
              <VectorParam id="3232"  name="geometryCrop">
               <InterpolatingParam id="3233" interp="linr"  time="-9999999/1" value="0" leadInLength="0/1"  />
               <InterpolatingParam id="3234" interp="linr"  time="-9999999/1" value="0" leadInLength="0/1"  />
               <InterpolatingParam id="3235" interp="linr"  time="-9999999/1" value="0" leadInLength="0/1"  />
               <InterpolatingParam id="3236" interp="linr"  time="-9999999/1" value="0" leadInLength="0/1"  />
              </VectorParam>
              <InterpolatingParam id="3237" interp="linr"  time="-9999999/1" value="1" leadInLength="0/1"  name="opacity"/>
             </Parameters>
             <Attributes>
              <Attribute id="3238" value="" name="ident"/>
             </Attributes>
             <ExtraData>
              <Entry key="ZoomPanBin">
               <ZoomPanBin id="3239"  >
                <ZoomPanKeyframes>
                 <ZoomPanKeyframe id="3240" timeRangeEnd="-9999999/1" timeRangeDuration="0/1" interpolaterName="linr"  />
                </ZoomPanKeyframes>
               </ZoomPanBin>
              </Entry>
             </ExtraData>
            </VMFile>
            <MetaData>
             <entry key="WinSubProjectDisplayName" val=""/>
            </MetaData>
           </UnifiedMedia>
          </Medias>
         </GenericTrack>
        </StitchedMedia>
        <StitchedMedia id="3241" start="7160" duration="21" scalar="1098867/943520" mediaStart="3375/104654" mediaDuration="943520/52327" minMediaStart="-5833616625/104654" >
         <Transformer>
          <VectorParam id="3242"  name="translation">
           <InterpolatingParam id="3243" interp="linr"  time="-9999999/1" value="0" leadInLength="0/1"  />
           <InterpolatingParam id="3244" interp="linr"  time="-9999999/1" value="0" leadInLength="0/1"  />
           <InterpolatingParam id="3245" interp="linr"  time="-9999999/1" value="0" leadInLength="0/1"  />
          </VectorParam>
          <VectorParam id="3246"  name="rotation">
           <InterpolatingParam id="3247" interp="linr"  time="-9999999/1" value="0" leadInLength="0/1"  />
           <InterpolatingParam id="3248" interp="linr"  time="-9999999/1" value="0" leadInLength="0/1"  />
           <InterpolatingParam id="3249" interp="linr"  time="-9999999/1" value="0" leadInLength="0/1"  />
          </VectorParam>
          <VectorParam id="3250"  name="shear">
           <InterpolatingParam id="3251" interp="linr"  time="-9999999/1" value="0" leadInLength="0/1"  />
           <InterpolatingParam id="3252" interp="linr"  time="-9999999/1" value="0" leadInLength="0/1"  />
           <InterpolatingParam id="3253" interp="linr"  time="-9999999/1" value="0" leadInLength="0/1"  />
          </VectorParam>
          <VectorParam id="3254"  name="scale">
           <InterpolatingParam id="3255" interp="linr"  time="-9999999/1" value="1" leadInLength="0/1"  />
           <InterpolatingParam id="3256" interp="linr"  time="-9999999/1" value="1" leadInLength="0/1"  />
           <InterpolatingParam id="3257" interp="linr"  time="-9999999/1" value="1" leadInLength="0/1"  />
          </VectorParam>
          <VectorParam id="3258"  name="anchor">
           <InterpolatingParam id="3259" interp="linr"  time="0/1" value="0" leadInLength="0/1"  />
           <InterpolatingParam id="3260" interp="linr"  time="0/1" value="0" leadInLength="0/1"  />
           <InterpolatingParam id="3261" interp="linr"  time="0/1" value="0" leadInLength="0/1"  />
          </VectorParam>
         </Transformer>
         <Parameters>
          <VectorParam id="3262"  name="sourceCrop">
           <InterpolatingParam id="3263" interp="linr"  time="0/1" value="0" leadInLength="0/1"  />
           <InterpolatingParam id="3264" interp="linr"  time="0/1" value="0" leadInLength="0/1"  />
           <InterpolatingParam id="3265" interp="linr"  time="0/1" value="0" leadInLength="0/1"  />
           <InterpolatingParam id="3266" interp="linr"  time="0/1" value="0" leadInLength="0/1"  />
          </VectorParam>
          <VectorParam id="3267"  name="geometryCrop">
           <InterpolatingParam id="3268" interp="linr"  time="-9999999/1" value="0" leadInLength="0/1"  />
           <InterpolatingParam id="3269" interp="linr"  time="-9999999/1" value="0" leadInLength="0/1"  />
           <InterpolatingParam id="3270" interp="linr"  time="-9999999/1" value="0" leadInLength="0/1"  />
           <InterpolatingParam id="3271" interp="linr"  time="-9999999/1" value="0" leadInLength="0/1"  />
          </VectorParam>
          <InterpolatingParam id="3272" interp="linr"  time="-9999999/1" value="1" leadInLength="0/1"  name="opacity"/>
          <InterpolatingParam id="3273" interp="linr"  time="0/1" value="1" leadInLength="0/1"  name="cursorOpacity"/>
          <InterpolatingParam id="3274" interp="linr"  time="0/1" value="1" leadInLength="0/1"  name="cursorScale"/>
          <InterpolatingParam id="3275" interp="linr"  name="volume">
           <Keyframes>
           <Keyframe id="3276"  time="-5833616625/104654" value="0" leadInLength="0/1"  />
           <Keyframe id="3277"  time="143611/9514" value="0" leadInLength="0/1"  />
           <Keyframe id="3278"  time="17/1" value="0" leadInLength="0/1"  />
           </Keyframes>
          </InterpolatingParam>
          <Parameter id="3279"  name="captions"/>
         </Parameters>
         <Attributes>
          <Attribute id="3280" value="" name="ident"/>
          <Attribute id="3281" value="0" name="mixToMono"/>
         </Attributes>
         <MetaData>
          <entry key="WinSubProjectDisplayName" val=""/>
         </MetaData>
         <ExtraData>
          <Entry key="ZoomPanBin">
           <ZoomPanBin id="3282"  >
            <ZoomPanKeyframes>
             <ZoomPanKeyframe id="3283" timeRangeEnd="-9999999/1" timeRangeDuration="0/1" interpolaterName="linr"  />
            </ZoomPanKeyframes>
           </ZoomPanBin>
          </Entry>
          <Entry key="CursorEffectBin">
           <CursorEffectBin id="3284"  >
            <CursorEffectKeyframes>
            </CursorEffectKeyframes>
           </CursorEffectBin>
          </Entry>
         </ExtraData>
         <GenericTrack id="3285"  >
          <Attributes>
           <Attribute id="3286" value="" name="ident"/>
           <Attribute id="3287" value="0" name="audioMuted"/>
           <Attribute id="3288" value="0" name="videoHidden"/>
          </Attributes>
          <MetaData>
           <entry key="IsLocked" val="False"/>
           <entry key="WinTrackHeight" val="0"/>
          </MetaData>
          <Medias>
           <IMFile id="3289" start="-55741" duration="55758" scalar="1/1" mediaStart="6973/1" mediaDuration="1/1" trackNumber="0" src="21" trimStartSum="-55742/1" >
            <Transformer>
             <VectorParam id="3290"  name="translation">
              <InterpolatingParam id="3291" interp="linr"  time="-9999999/1" value="0" leadInLength="0/1"  />
              <InterpolatingParam id="3292" interp="linr"  time="-9999999/1" value="0" leadInLength="0/1"  />
              <InterpolatingParam id="3293" interp="linr"  time="-9999999/1" value="0" leadInLength="0/1"  />
             </VectorParam>
             <VectorParam id="3294"  name="rotation">
              <InterpolatingParam id="3295" interp="linr"  time="-9999999/1" value="0" leadInLength="0/1"  />
              <InterpolatingParam id="3296" interp="linr"  time="-9999999/1" value="0" leadInLength="0/1"  />
              <InterpolatingParam id="3297" interp="linr"  time="-9999999/1" value="0" leadInLength="0/1"  />
             </VectorParam>
             <VectorParam id="3298"  name="shear">
              <InterpolatingParam id="3299" interp="linr"  time="-9999999/1" value="0" leadInLength="0/1"  />
              <InterpolatingParam id="3300" interp="linr"  time="-9999999/1" value="0" leadInLength="0/1"  />
              <InterpolatingParam id="3301" interp="linr"  time="-9999999/1" value="0" leadInLength="0/1"  />
             </VectorParam>
             <VectorParam id="3302"  name="scale">
              <InterpolatingParam id="3303" interp="linr"  time="-9999999/1" value="1" leadInLength="0/1"  />
              <InterpolatingParam id="3304" interp="linr"  time="-9999999/1" value="1" leadInLength="0/1"  />
              <InterpolatingParam id="3305" interp="linr"  time="-9999999/1" value="1" leadInLength="0/1"  />
             </VectorParam>
             <VectorParam id="3306"  name="anchor">
              <InterpolatingParam id="3307" interp="linr"  time="0/1" value="0" leadInLength="0/1"  />
              <InterpolatingParam id="3308" interp="linr"  time="0/1" value="0" leadInLength="0/1"  />
              <InterpolatingParam id="3309" interp="linr"  time="0/1" value="0" leadInLength="0/1"  />
             </VectorParam>
            </Transformer>
            <Parameters>
             <VectorParam id="3310"  name="sourceCrop">
              <InterpolatingParam id="3311" interp="linr"  time="0/1" value="0" leadInLength="0/1"  />
              <InterpolatingParam id="3312" interp="linr"  time="0/1" value="0" leadInLength="0/1"  />
              <InterpolatingParam id="3313" interp="linr"  time="0/1" value="0" leadInLength="0/1"  />
              <InterpolatingParam id="3314" interp="linr"  time="0/1" value="0" leadInLength="0/1"  />
             </VectorParam>
             <VectorParam id="3315"  name="geometryCrop">
              <InterpolatingParam id="3316" interp="linr"  time="-9999999/1" value="0" leadInLength="0/1"  />
              <InterpolatingParam id="3317" interp="linr"  time="-9999999/1" value="0" leadInLength="0/1"  />
              <InterpolatingParam id="3318" interp="linr"  time="-9999999/1" value="0" leadInLength="0/1"  />
              <InterpolatingParam id="3319" interp="linr"  time="-9999999/1" value="0" leadInLength="0/1"  />
             </VectorParam>
             <InterpolatingParam id="3320" interp="linr"  time="-9999999/1" value="1" leadInLength="0/1"  name="opacity"/>
            </Parameters>
            <Attributes>
             <Attribute id="3321" value="" name="ident"/>
            </Attributes>
            <MetaData>
             <entry key="WinSubProjectDisplayName" val=""/>
            </MetaData>
            <ExtraData>
             <Entry key="ZoomPanBin">
              <ZoomPanBin id="3322"  >
               <ZoomPanKeyframes>
                <ZoomPanKeyframe id="3323" timeRangeEnd="-9999999/1" timeRangeDuration="0/1" interpolaterName="linr"  />
               </ZoomPanKeyframes>
              </ZoomPanBin>
             </Entry>
            </ExtraData>
           </IMFile>
           <UnifiedMedia id="3324"  >
            <AMFile id="3325" start="17" duration="1979" scalar="1/1" mediaStart="6973/1" mediaDuration="1979/1" trackNumber="1" src="21" channelNumber="0,1" >
             <Parameters>
              <InterpolatingParam id="3326" interp="linr"  time="0/1" value="1" leadInLength="0/1"  name="volume"/>
              <Parameter id="3327"  name="captions"/>
             </Parameters>
             <Attributes>
              <Attribute id="3328" value="" name="ident"/>
              <Attribute id="3329" value="44100" name="sampleRate"/>
              <Attribute id="3330" value="16" name="bitDepth"/>
              <Attribute id="3331" value="1" name="gain"/>
              <Attribute id="3332" value="0" name="mixToMono"/>
             </Attributes>
            </AMFile>
            <VMFile id="3333" start="17" duration="1979" scalar="1/1" mediaStart="6973/1" mediaDuration="1979/1" trackNumber="0" src="21" >
             <Transformer>
              <VectorParam id="3334"  name="translation">
               <InterpolatingParam id="3335" interp="linr"  time="-9999999/1" value="0" leadInLength="0/1"  />
               <InterpolatingParam id="3336" interp="linr"  time="-9999999/1" value="0" leadInLength="0/1"  />
               <InterpolatingParam id="3337" interp="linr"  time="-9999999/1" value="0" leadInLength="0/1"  />
              </VectorParam>
              <VectorParam id="3338"  name="rotation">
               <InterpolatingParam id="3339" interp="linr"  time="-9999999/1" value="0" leadInLength="0/1"  />
               <InterpolatingParam id="3340" interp="linr"  time="-9999999/1" value="0" leadInLength="0/1"  />
               <InterpolatingParam id="3341" interp="linr"  time="-9999999/1" value="0" leadInLength="0/1"  />
              </VectorParam>
              <VectorParam id="3342"  name="shear">
               <InterpolatingParam id="3343" interp="linr"  time="-9999999/1" value="0" leadInLength="0/1"  />
               <InterpolatingParam id="3344" interp="linr"  time="-9999999/1" value="0" leadInLength="0/1"  />
               <InterpolatingParam id="3345" interp="linr"  time="-9999999/1" value="0" leadInLength="0/1"  />
              </VectorParam>
              <VectorParam id="3346"  name="scale">
               <InterpolatingParam id="3347" interp="linr"  time="-9999999/1" value="1" leadInLength="0/1"  />
               <InterpolatingParam id="3348" interp="linr"  time="-9999999/1" value="1" leadInLength="0/1"  />
               <InterpolatingParam id="3349" interp="linr"  time="-9999999/1" value="1" leadInLength="0/1"  />
              </VectorParam>
              <VectorParam id="3350"  name="anchor">
               <InterpolatingParam id="3351" interp="linr"  time="0/1" value="0" leadInLength="0/1"  />
               <InterpolatingParam id="3352" interp="linr"  time="0/1" value="0" leadInLength="0/1"  />
               <InterpolatingParam id="3353" interp="linr"  time="0/1" value="0" leadInLength="0/1"  />
              </VectorParam>
             </Transformer>
             <Parameters>
              <VectorParam id="3354"  name="sourceCrop">
               <InterpolatingParam id="3355" interp="linr"  time="0/1" value="0" leadInLength="0/1"  />
               <InterpolatingParam id="3356" interp="linr"  time="0/1" value="0" leadInLength="0/1"  />
               <InterpolatingParam id="3357" interp="linr"  time="0/1" value="0" leadInLength="0/1"  />
               <InterpolatingParam id="3358" interp="linr"  time="0/1" value="0" leadInLength="0/1"  />
              </VectorParam>
              <VectorParam id="3359"  name="geometryCrop">
               <InterpolatingParam id="3360" interp="linr"  time="-9999999/1" value="0" leadInLength="0/1"  />
               <InterpolatingParam id="3361" interp="linr"  time="-9999999/1" value="0" leadInLength="0/1"  />
               <InterpolatingParam id="3362" interp="linr"  time="-9999999/1" value="0" leadInLength="0/1"  />
               <InterpolatingParam id="3363" interp="linr"  time="-9999999/1" value="0" leadInLength="0/1"  />
              </VectorParam>
              <InterpolatingParam id="3364" interp="linr"  time="-9999999/1" value="1" leadInLength="0/1"  name="opacity"/>
             </Parameters>
             <Attributes>
              <Attribute id="3365" value="" name="ident"/>
             </Attributes>
             <ExtraData>
              <Entry key="ZoomPanBin">
               <ZoomPanBin id="3366"  >
                <ZoomPanKeyframes>
                 <ZoomPanKeyframe id="3367" timeRangeEnd="-9999999/1" timeRangeDuration="0/1" interpolaterName="linr"  />
                </ZoomPanKeyframes>
               </ZoomPanBin>
              </Entry>
             </ExtraData>
            </VMFile>
            <MetaData>
             <entry key="WinSubProjectDisplayName" val=""/>
            </MetaData>
           </UnifiedMedia>
          </Medias>
         </GenericTrack>
        </StitchedMedia>
        <StitchedMedia id="3368" start="7181" duration="21" scalar="1098867/943520" mediaStart="3375/104654" mediaDuration="943520/52327" minMediaStart="-5833616625/104654" >
         <Transformer>
          <VectorParam id="3369"  name="translation">
           <InterpolatingParam id="3370" interp="linr"  time="-9999999/1" value="-1.1057821325264654e-010" leadInLength="0/1"  />
           <InterpolatingParam id="3371" interp="linr"  time="-9999999/1" value="-9.2938989837421104e-011" leadInLength="0/1"  />
           <InterpolatingParam id="3372" interp="linr"  time="-9999999/1" value="0" leadInLength="0/1"  />
          </VectorParam>
          <VectorParam id="3373"  name="rotation">
           <InterpolatingParam id="3374" interp="linr"  time="-9999999/1" value="0" leadInLength="0/1"  />
           <InterpolatingParam id="3375" interp="linr"  time="-9999999/1" value="0" leadInLength="0/1"  />
           <InterpolatingParam id="3376" interp="linr"  time="-9999999/1" value="0" leadInLength="0/1"  />
          </VectorParam>
          <VectorParam id="3377"  name="shear">
           <InterpolatingParam id="3378" interp="linr"  time="-9999999/1" value="0" leadInLength="0/1"  />
           <InterpolatingParam id="3379" interp="linr"  time="-9999999/1" value="0" leadInLength="0/1"  />
           <InterpolatingParam id="3380" interp="linr"  time="-9999999/1" value="0" leadInLength="0/1"  />
          </VectorParam>
          <VectorParam id="3381"  name="scale">
           <InterpolatingParam id="3382" interp="linr"  time="-9999999/1" value="1" leadInLength="0/1"  />
           <InterpolatingParam id="3383" interp="linr"  time="-9999999/1" value="1" leadInLength="0/1"  />
           <InterpolatingParam id="3384" interp="linr"  time="-9999999/1" value="1" leadInLength="0/1"  />
          </VectorParam>
          <VectorParam id="3385"  name="anchor">
           <InterpolatingParam id="3386" interp="linr"  time="0/1" value="0" leadInLength="0/1"  />
           <InterpolatingParam id="3387" interp="linr"  time="0/1" value="0" leadInLength="0/1"  />
           <InterpolatingParam id="3388" interp="linr"  time="0/1" value="0" leadInLength="0/1"  />
          </VectorParam>
         </Transformer>
         <Parameters>
          <VectorParam id="3389"  name="sourceCrop">
           <InterpolatingParam id="3390" interp="linr"  time="0/1" value="0" leadInLength="0/1"  />
           <InterpolatingParam id="3391" interp="linr"  time="0/1" value="0" leadInLength="0/1"  />
           <InterpolatingParam id="3392" interp="linr"  time="0/1" value="0" leadInLength="0/1"  />
           <InterpolatingParam id="3393" interp="linr"  time="0/1" value="0" leadInLength="0/1"  />
          </VectorParam>
          <VectorParam id="3394"  name="geometryCrop">
           <InterpolatingParam id="3395" interp="linr"  time="-9999999/1" value="0" leadInLength="0/1"  />
           <InterpolatingParam id="3396" interp="linr"  time="-9999999/1" value="0" leadInLength="0/1"  />
           <InterpolatingParam id="3397" interp="linr"  time="-9999999/1" value="0" leadInLength="0/1"  />
           <InterpolatingParam id="3398" interp="linr"  time="-9999999/1" value="0" leadInLength="0/1"  />
          </VectorParam>
          <InterpolatingParam id="3399" interp="linr"  time="-9999999/1" value="1" leadInLength="0/1"  name="opacity"/>
          <InterpolatingParam id="3400" interp="linr"  time="0/1" value="1" leadInLength="0/1"  name="cursorOpacity"/>
          <InterpolatingParam id="3401" interp="linr"  time="0/1" value="1" leadInLength="0/1"  name="cursorScale"/>
          <InterpolatingParam id="3402" interp="linr"  name="volume">
           <Keyframes>
           <Keyframe id="3403"  time="-5833616625/104654" value="0" leadInLength="0/1"  />
           <Keyframe id="3404"  time="143611/9514" value="0" leadInLength="0/1"  />
           <Keyframe id="3405"  time="17/1" value="0" leadInLength="0/1"  />
           </Keyframes>
          </InterpolatingParam>
          <Parameter id="3406"  name="captions"/>
         </Parameters>
         <Attributes>
          <Attribute id="3407" value="" name="ident"/>
          <Attribute id="3408" value="0" name="mixToMono"/>
         </Attributes>
         <MetaData>
          <entry key="WinSubProjectDisplayName" val=""/>
         </MetaData>
         <ExtraData>
          <Entry key="ZoomPanBin">
           <ZoomPanBin id="3409"  >
            <ZoomPanKeyframes>
             <ZoomPanKeyframe id="3410" timeRangeEnd="-9999999/1" timeRangeDuration="0/1" interpolaterName="linr"  />
            </ZoomPanKeyframes>
           </ZoomPanBin>
          </Entry>
          <Entry key="CursorEffectBin">
           <CursorEffectBin id="3411"  >
            <CursorEffectKeyframes>
            </CursorEffectKeyframes>
           </CursorEffectBin>
          </Entry>
         </ExtraData>
         <GenericTrack id="3412"  >
          <Attributes>
           <Attribute id="3413" value="" name="ident"/>
           <Attribute id="3414" value="0" name="audioMuted"/>
           <Attribute id="3415" value="0" name="videoHidden"/>
          </Attributes>
          <MetaData>
           <entry key="IsLocked" val="False"/>
           <entry key="WinTrackHeight" val="0"/>
          </MetaData>
          <Medias>
           <IMFile id="3416" start="-55741" duration="55758" scalar="1/1" mediaStart="6973/1" mediaDuration="1/1" trackNumber="0" src="21" trimStartSum="-55742/1" >
            <Transformer>
             <VectorParam id="3417"  name="translation">
              <InterpolatingParam id="3418" interp="linr"  time="-9999999/1" value="0" leadInLength="0/1"  />
              <InterpolatingParam id="3419" interp="linr"  time="-9999999/1" value="0" leadInLength="0/1"  />
              <InterpolatingParam id="3420" interp="linr"  time="-9999999/1" value="0" leadInLength="0/1"  />
             </VectorParam>
             <VectorParam id="3421"  name="rotation">
              <InterpolatingParam id="3422" interp="linr"  time="-9999999/1" value="0" leadInLength="0/1"  />
              <InterpolatingParam id="3423" interp="linr"  time="-9999999/1" value="0" leadInLength="0/1"  />
              <InterpolatingParam id="3424" interp="linr"  time="-9999999/1" value="0" leadInLength="0/1"  />
             </VectorParam>
             <VectorParam id="3425"  name="shear">
              <InterpolatingParam id="3426" interp="linr"  time="-9999999/1" value="0" leadInLength="0/1"  />
              <InterpolatingParam id="3427" interp="linr"  time="-9999999/1" value="0" leadInLength="0/1"  />
              <InterpolatingParam id="3428" interp="linr"  time="-9999999/1" value="0" leadInLength="0/1"  />
             </VectorParam>
             <VectorParam id="3429"  name="scale">
              <InterpolatingParam id="3430" interp="linr"  time="-9999999/1" value="1" leadInLength="0/1"  />
              <InterpolatingParam id="3431" interp="linr"  time="-9999999/1" value="1" leadInLength="0/1"  />
              <InterpolatingParam id="3432" interp="linr"  time="-9999999/1" value="1" leadInLength="0/1"  />
             </VectorParam>
             <VectorParam id="3433"  name="anchor">
              <InterpolatingParam id="3434" interp="linr"  time="0/1" value="0" leadInLength="0/1"  />
              <InterpolatingParam id="3435" interp="linr"  time="0/1" value="0" leadInLength="0/1"  />
              <InterpolatingParam id="3436" interp="linr"  time="0/1" value="0" leadInLength="0/1"  />
             </VectorParam>
            </Transformer>
            <Parameters>
             <VectorParam id="3437"  name="sourceCrop">
              <InterpolatingParam id="3438" interp="linr"  time="0/1" value="0" leadInLength="0/1"  />
              <InterpolatingParam id="3439" interp="linr"  time="0/1" value="0" leadInLength="0/1"  />
              <InterpolatingParam id="3440" interp="linr"  time="0/1" value="0" leadInLength="0/1"  />
              <InterpolatingParam id="3441" interp="linr"  time="0/1" value="0" leadInLength="0/1"  />
             </VectorParam>
             <VectorParam id="3442"  name="geometryCrop">
              <InterpolatingParam id="3443" interp="linr"  time="-9999999/1" value="0" leadInLength="0/1"  />
              <InterpolatingParam id="3444" interp="linr"  time="-9999999/1" value="0" leadInLength="0/1"  />
              <InterpolatingParam id="3445" interp="linr"  time="-9999999/1" value="0" leadInLength="0/1"  />
              <InterpolatingParam id="3446" interp="linr"  time="-9999999/1" value="0" leadInLength="0/1"  />
             </VectorParam>
             <InterpolatingParam id="3447" interp="linr"  time="-9999999/1" value="1" leadInLength="0/1"  name="opacity"/>
            </Parameters>
            <Attributes>
             <Attribute id="3448" value="" name="ident"/>
            </Attributes>
            <MetaData>
             <entry key="WinSubProjectDisplayName" val=""/>
            </MetaData>
            <ExtraData>
             <Entry key="ZoomPanBin">
              <ZoomPanBin id="3449"  >
               <ZoomPanKeyframes>
                <ZoomPanKeyframe id="3450" timeRangeEnd="-9999999/1" timeRangeDuration="0/1" interpolaterName="linr"  />
               </ZoomPanKeyframes>
              </ZoomPanBin>
             </Entry>
            </ExtraData>
           </IMFile>
           <UnifiedMedia id="3451"  >
            <AMFile id="3452" start="17" duration="1979" scalar="1/1" mediaStart="6973/1" mediaDuration="1979/1" trackNumber="1" src="21" channelNumber="0,1" >
             <Parameters>
              <InterpolatingParam id="3453" interp="linr"  time="0/1" value="1" leadInLength="0/1"  name="volume"/>
              <Parameter id="3454"  name="captions"/>
             </Parameters>
             <Attributes>
              <Attribute id="3455" value="" name="ident"/>
              <Attribute id="3456" value="44100" name="sampleRate"/>
              <Attribute id="3457" value="16" name="bitDepth"/>
              <Attribute id="3458" value="1" name="gain"/>
              <Attribute id="3459" value="0" name="mixToMono"/>
             </Attributes>
            </AMFile>
            <VMFile id="3460" start="17" duration="1979" scalar="1/1" mediaStart="6973/1" mediaDuration="1979/1" trackNumber="0" src="21" >
             <Transformer>
              <VectorParam id="3461"  name="translation">
               <InterpolatingParam id="3462" interp="linr"  time="-9999999/1" value="0" leadInLength="0/1"  />
               <InterpolatingParam id="3463" interp="linr"  time="-9999999/1" value="0" leadInLength="0/1"  />
               <InterpolatingParam id="3464" interp="linr"  time="-9999999/1" value="0" leadInLength="0/1"  />
              </VectorParam>
              <VectorParam id="3465"  name="rotation">
               <InterpolatingParam id="3466" interp="linr"  time="-9999999/1" value="0" leadInLength="0/1"  />
               <InterpolatingParam id="3467" interp="linr"  time="-9999999/1" value="0" leadInLength="0/1"  />
               <InterpolatingParam id="3468" interp="linr"  time="-9999999/1" value="0" leadInLength="0/1"  />
              </VectorParam>
              <VectorParam id="3469"  name="shear">
               <InterpolatingParam id="3470" interp="linr"  time="-9999999/1" value="0" leadInLength="0/1"  />
               <InterpolatingParam id="3471" interp="linr"  time="-9999999/1" value="0" leadInLength="0/1"  />
               <InterpolatingParam id="3472" interp="linr"  time="-9999999/1" value="0" leadInLength="0/1"  />
              </VectorParam>
              <VectorParam id="3473"  name="scale">
               <InterpolatingParam id="3474" interp="linr"  time="-9999999/1" value="1" leadInLength="0/1"  />
               <InterpolatingParam id="3475" interp="linr"  time="-9999999/1" value="1" leadInLength="0/1"  />
               <InterpolatingParam id="3476" interp="linr"  time="-9999999/1" value="1" leadInLength="0/1"  />
              </VectorParam>
              <VectorParam id="3477"  name="anchor">
               <InterpolatingParam id="3478" interp="linr"  time="0/1" value="0" leadInLength="0/1"  />
               <InterpolatingParam id="3479" interp="linr"  time="0/1" value="0" leadInLength="0/1"  />
               <InterpolatingParam id="3480" interp="linr"  time="0/1" value="0" leadInLength="0/1"  />
              </VectorParam>
             </Transformer>
             <Parameters>
              <VectorParam id="3481"  name="sourceCrop">
               <InterpolatingParam id="3482" interp="linr"  time="0/1" value="0" leadInLength="0/1"  />
               <InterpolatingParam id="3483" interp="linr"  time="0/1" value="0" leadInLength="0/1"  />
               <InterpolatingParam id="3484" interp="linr"  time="0/1" value="0" leadInLength="0/1"  />
               <InterpolatingParam id="3485" interp="linr"  time="0/1" value="0" leadInLength="0/1"  />
              </VectorParam>
              <VectorParam id="3486"  name="geometryCrop">
               <InterpolatingParam id="3487" interp="linr"  time="-9999999/1" value="0" leadInLength="0/1"  />
               <InterpolatingParam id="3488" interp="linr"  time="-9999999/1" value="0" leadInLength="0/1"  />
               <InterpolatingParam id="3489" interp="linr"  time="-9999999/1" value="0" leadInLength="0/1"  />
               <InterpolatingParam id="3490" interp="linr"  time="-9999999/1" value="0" leadInLength="0/1"  />
              </VectorParam>
              <InterpolatingParam id="3491" interp="linr"  time="-9999999/1" value="1" leadInLength="0/1"  name="opacity"/>
             </Parameters>
             <Attributes>
              <Attribute id="3492" value="" name="ident"/>
             </Attributes>
             <ExtraData>
              <Entry key="ZoomPanBin">
               <ZoomPanBin id="3493"  >
                <ZoomPanKeyframes>
                 <ZoomPanKeyframe id="3494" timeRangeEnd="-9999999/1" timeRangeDuration="0/1" interpolaterName="linr"  />
                </ZoomPanKeyframes>
               </ZoomPanBin>
              </Entry>
             </ExtraData>
            </VMFile>
            <MetaData>
             <entry key="WinSubProjectDisplayName" val=""/>
            </MetaData>
           </UnifiedMedia>
          </Medias>
         </GenericTrack>
        </StitchedMedia>
        <UnifiedMedia id="3495"  >
         <AMFile id="3496" start="7202" duration="70" scalar="7249295690/9743693469" mediaStart="722245354505/103561367" mediaDuration="9743693469/103561367" trackNumber="1" src="21" channelNumber="0,1" >
          <Parameters>
           <InterpolatingParam id="3497" interp="linr"  name="volume">
            <Keyframes>
            <Keyframe id="3498"  time="-1/1" value="1" leadInLength="0/1"  />
            <Keyframe id="3499"  time="0/1" value="0" leadInLength="0/1"  />
            <Keyframe id="3500"  time="8952/1" value="0" leadInLength="0/1"  />
            <Keyframe id="3501"  time="8953/1" value="1" leadInLength="0/1"  />
            </Keyframes>
           </InterpolatingParam>
           <Parameter id="3502"  name="captions"/>
          </Parameters>
          <Attributes>
           <Attribute id="3503" value="" name="ident"/>
           <Attribute id="3504" value="44100" name="sampleRate"/>
           <Attribute id="3505" value="16" name="bitDepth"/>
           <Attribute id="3506" value="1" name="gain"/>
           <Attribute id="3507" value="0" name="mixToMono"/>
          </Attributes>
         </AMFile>
         <VMFile id="3508" start="7202" duration="70" scalar="7249295690/9743693469" mediaStart="722245354505/103561367" mediaDuration="9743693469/103561367" trackNumber="0" src="21" >
          <Transformer>
           <VectorParam id="3509"  name="translation">
            <InterpolatingParam id="3510" interp="linr"  time="-9999999/1" value="0" leadInLength="0/1"  />
            <InterpolatingParam id="3511" interp="linr"  time="-9999999/1" value="0" leadInLength="0/1"  />
            <InterpolatingParam id="3512" interp="linr"  time="-9999999/1" value="0" leadInLength="0/1"  />
           </VectorParam>
           <VectorParam id="3513"  name="rotation">
            <InterpolatingParam id="3514" interp="linr"  time="-9999999/1" value="0" leadInLength="0/1"  />
            <InterpolatingParam id="3515" interp="linr"  time="-9999999/1" value="0" leadInLength="0/1"  />
            <InterpolatingParam id="3516" interp="linr"  time="-9999999/1" value="0" leadInLength="0/1"  />
           </VectorParam>
           <VectorParam id="3517"  name="shear">
            <InterpolatingParam id="3518" interp="linr"  time="-9999999/1" value="0" leadInLength="0/1"  />
            <InterpolatingParam id="3519" interp="linr"  time="-9999999/1" value="0" leadInLength="0/1"  />
            <InterpolatingParam id="3520" interp="linr"  time="-9999999/1" value="0" leadInLength="0/1"  />
           </VectorParam>
           <VectorParam id="3521"  name="scale">
            <InterpolatingParam id="3522" interp="linr"  time="-9999999/1" value="1" leadInLength="0/1"  />
            <InterpolatingParam id="3523" interp="linr"  time="-9999999/1" value="1" leadInLength="0/1"  />
            <InterpolatingParam id="3524" interp="linr"  time="-9999999/1" value="1" leadInLength="0/1"  />
           </VectorParam>
           <VectorParam id="3525"  name="anchor">
            <InterpolatingParam id="3526" interp="linr"  time="0/1" value="0" leadInLength="0/1"  />
            <InterpolatingParam id="3527" interp="linr"  time="0/1" value="0" leadInLength="0/1"  />
            <InterpolatingParam id="3528" interp="linr"  time="0/1" value="0" leadInLength="0/1"  />
           </VectorParam>
          </Transformer>
          <Parameters>
           <VectorParam id="3529"  name="sourceCrop">
            <InterpolatingParam id="3530" interp="linr"  time="0/1" value="0" leadInLength="0/1"  />
            <InterpolatingParam id="3531" interp="linr"  time="0/1" value="0" leadInLength="0/1"  />
            <InterpolatingParam id="3532" interp="linr"  time="0/1" value="0" leadInLength="0/1"  />
            <InterpolatingParam id="3533" interp="linr"  time="0/1" value="0" leadInLength="0/1"  />
           </VectorParam>
           <VectorParam id="3534"  name="geometryCrop">
            <InterpolatingParam id="3535" interp="linr"  time="-9999999/1" value="0" leadInLength="0/1"  />
            <InterpolatingParam id="3536" interp="linr"  time="-9999999/1" value="0" leadInLength="0/1"  />
            <InterpolatingParam id="3537" interp="linr"  time="-9999999/1" value="0" leadInLength="0/1"  />
            <InterpolatingParam id="3538" interp="linr"  time="-9999999/1" value="0" leadInLength="0/1"  />
           </VectorParam>
           <InterpolatingParam id="3539" interp="linr"  time="-9999999/1" value="1" leadInLength="0/1"  name="opacity"/>
          </Parameters>
          <Attributes>
           <Attribute id="3540" value="" name="ident"/>
          </Attributes>
          <ExtraData>
           <Entry key="ZoomPanBin">
            <ZoomPanBin id="3541"  >
             <ZoomPanKeyframes>
              <ZoomPanKeyframe id="3542" timeRangeEnd="-9999999/1" timeRangeDuration="0/1" interpolaterName="linr"  />
             </ZoomPanKeyframes>
            </ZoomPanBin>
           </Entry>
          </ExtraData>
         </VMFile>
         <MetaData>
          <entry key="WinSubProjectDisplayName" val=""/>
         </MetaData>
        </UnifiedMedia>
        <UnifiedMedia id="3543"  >
         <AMFile id="3544" start="7272" duration="87" scalar="219752169/299886190" mediaStart="17853391414/2525887" mediaDuration="299886190/2525887" trackNumber="1" src="21" channelNumber="0,1" >
          <Parameters>
           <InterpolatingParam id="3545" interp="linr"  name="volume">
            <Keyframes>
            <Keyframe id="3546"  time="-1/1" value="1" leadInLength="0/1"  />
            <Keyframe id="3547"  time="0/1" value="0" leadInLength="0/1"  />
            <Keyframe id="3548"  time="8952/1" value="0" leadInLength="0/1"  />
            <Keyframe id="3549"  time="8953/1" value="1" leadInLength="0/1"  />
            </Keyframes>
           </InterpolatingParam>
           <Parameter id="3550"  name="captions"/>
          </Parameters>
          <Attributes>
           <Attribute id="3551" value="" name="ident"/>
           <Attribute id="3552" value="44100" name="sampleRate"/>
           <Attribute id="3553" value="16" name="bitDepth"/>
           <Attribute id="3554" value="1" name="gain"/>
           <Attribute id="3555" value="0" name="mixToMono"/>
          </Attributes>
         </AMFile>
         <VMFile id="3556" start="7272" duration="87" scalar="219752169/299886190" mediaStart="17853391414/2525887" mediaDuration="299886190/2525887" trackNumber="0" src="21" >
          <Transformer>
           <VectorParam id="3557"  name="translation">
            <InterpolatingParam id="3558" interp="linr"  time="-9999999/1" value="0" leadInLength="0/1"  />
            <InterpolatingParam id="3559" interp="linr"  time="-9999999/1" value="0" leadInLength="0/1"  />
            <InterpolatingParam id="3560" interp="linr"  time="-9999999/1" value="0" leadInLength="0/1"  />
           </VectorParam>
           <VectorParam id="3561"  name="rotation">
            <InterpolatingParam id="3562" interp="linr"  time="-9999999/1" value="0" leadInLength="0/1"  />
            <InterpolatingParam id="3563" interp="linr"  time="-9999999/1" value="0" leadInLength="0/1"  />
            <InterpolatingParam id="3564" interp="linr"  time="-9999999/1" value="0" leadInLength="0/1"  />
           </VectorParam>
           <VectorParam id="3565"  name="shear">
            <InterpolatingParam id="3566" interp="linr"  time="-9999999/1" value="0" leadInLength="0/1"  />
            <InterpolatingParam id="3567" interp="linr"  time="-9999999/1" value="0" leadInLength="0/1"  />
            <InterpolatingParam id="3568" interp="linr"  time="-9999999/1" value="0" leadInLength="0/1"  />
           </VectorParam>
           <VectorParam id="3569"  name="scale">
            <InterpolatingParam id="3570" interp="linr"  time="-9999999/1" value="1" leadInLength="0/1"  />
            <InterpolatingParam id="3571" interp="linr"  time="-9999999/1" value="1" leadInLength="0/1"  />
            <InterpolatingParam id="3572" interp="linr"  time="-9999999/1" value="1" leadInLength="0/1"  />
           </VectorParam>
           <VectorParam id="3573"  name="anchor">
            <InterpolatingParam id="3574" interp="linr"  time="0/1" value="0" leadInLength="0/1"  />
            <InterpolatingParam id="3575" interp="linr"  time="0/1" value="0" leadInLength="0/1"  />
            <InterpolatingParam id="3576" interp="linr"  time="0/1" value="0" leadInLength="0/1"  />
           </VectorParam>
          </Transformer>
          <Parameters>
           <VectorParam id="3577"  name="sourceCrop">
            <InterpolatingParam id="3578" interp="linr"  time="0/1" value="0" leadInLength="0/1"  />
            <InterpolatingParam id="3579" interp="linr"  time="0/1" value="0" leadInLength="0/1"  />
            <InterpolatingParam id="3580" interp="linr"  time="0/1" value="0" leadInLength="0/1"  />
            <InterpolatingParam id="3581" interp="linr"  time="0/1" value="0" leadInLength="0/1"  />
           </VectorParam>
           <VectorParam id="3582"  name="geometryCrop">
            <InterpolatingParam id="3583" interp="linr"  time="-9999999/1" value="0" leadInLength="0/1"  />
            <InterpolatingParam id="3584" interp="linr"  time="-9999999/1" value="0" leadInLength="0/1"  />
            <InterpolatingParam id="3585" interp="linr"  time="-9999999/1" value="0" leadInLength="0/1"  />
            <InterpolatingParam id="3586" interp="linr"  time="-9999999/1" value="0" leadInLength="0/1"  />
           </VectorParam>
           <InterpolatingParam id="3587" interp="linr"  time="-9999999/1" value="1" leadInLength="0/1"  name="opacity"/>
          </Parameters>
          <Attributes>
           <Attribute id="3588" value="" name="ident"/>
          </Attributes>
          <ExtraData>
           <Entry key="ZoomPanBin">
            <ZoomPanBin id="3589"  >
             <ZoomPanKeyframes>
              <ZoomPanKeyframe id="3590" timeRangeEnd="-9999999/1" timeRangeDuration="0/1" interpolaterName="linr"  />
             </ZoomPanKeyframes>
            </ZoomPanBin>
           </Entry>
          </ExtraData>
         </VMFile>
         <MetaData>
          <entry key="WinSubProjectDisplayName" val=""/>
         </MetaData>
        </UnifiedMedia>
        <UnifiedMedia id="3591"  >
         <AMFile id="3592" start="7359" duration="215" scalar="497153378683/577696005390" mediaStart="464521381288/64590539" mediaDuration="2888480026950/11561706481" trackNumber="1" src="21" channelNumber="0,1" >
          <Parameters>
           <InterpolatingParam id="3593" interp="linr"  name="volume">
            <Keyframes>
            <Keyframe id="3594"  time="-1/1" value="1" leadInLength="0/1"  />
            <Keyframe id="3595"  time="0/1" value="0" leadInLength="0/1"  />
            <Keyframe id="3596"  time="8952/1" value="0" leadInLength="0/1"  />
            <Keyframe id="3597"  time="8953/1" value="1" leadInLength="0/1"  />
            </Keyframes>
           </InterpolatingParam>
           <Parameter id="3598"  name="captions"/>
          </Parameters>
          <Attributes>
           <Attribute id="3599" value="" name="ident"/>
           <Attribute id="3600" value="44100" name="sampleRate"/>
           <Attribute id="3601" value="16" name="bitDepth"/>
           <Attribute id="3602" value="1" name="gain"/>
           <Attribute id="3603" value="0" name="mixToMono"/>
          </Attributes>
         </AMFile>
         <VMFile id="3604" start="7359" duration="215" scalar="497153378683/577696005390" mediaStart="464521381288/64590539" mediaDuration="2888480026950/11561706481" trackNumber="0" src="21" >
          <Transformer>
           <VectorParam id="3605"  name="translation">
            <InterpolatingParam id="3606" interp="linr"  time="-9999999/1" value="0" leadInLength="0/1"  />
            <InterpolatingParam id="3607" interp="linr"  time="-9999999/1" value="0" leadInLength="0/1"  />
            <InterpolatingParam id="3608" interp="linr"  time="-9999999/1" value="0" leadInLength="0/1"  />
           </VectorParam>
           <VectorParam id="3609"  name="rotation">
            <InterpolatingParam id="3610" interp="linr"  time="-9999999/1" value="0" leadInLength="0/1"  />
            <InterpolatingParam id="3611" interp="linr"  time="-9999999/1" value="0" leadInLength="0/1"  />
            <InterpolatingParam id="3612" interp="linr"  time="-9999999/1" value="0" leadInLength="0/1"  />
           </VectorParam>
           <VectorParam id="3613"  name="shear">
            <InterpolatingParam id="3614" interp="linr"  time="-9999999/1" value="0" leadInLength="0/1"  />
            <InterpolatingParam id="3615" interp="linr"  time="-9999999/1" value="0" leadInLength="0/1"  />
            <InterpolatingParam id="3616" interp="linr"  time="-9999999/1" value="0" leadInLength="0/1"  />
           </VectorParam>
           <VectorParam id="3617"  name="scale">
            <InterpolatingParam id="3618" interp="linr"  time="-9999999/1" value="1" leadInLength="0/1"  />
            <InterpolatingParam id="3619" interp="linr"  time="-9999999/1" value="1" leadInLength="0/1"  />
            <InterpolatingParam id="3620" interp="linr"  time="-9999999/1" value="1" leadInLength="0/1"  />
           </VectorParam>
           <VectorParam id="3621"  name="anchor">
            <InterpolatingParam id="3622" interp="linr"  time="0/1" value="0" leadInLength="0/1"  />
            <InterpolatingParam id="3623" interp="linr"  time="0/1" value="0" leadInLength="0/1"  />
            <InterpolatingParam id="3624" interp="linr"  time="0/1" value="0" leadInLength="0/1"  />
           </VectorParam>
          </Transformer>
          <Parameters>
           <VectorParam id="3625"  name="sourceCrop">
            <InterpolatingParam id="3626" interp="linr"  time="0/1" value="0" leadInLength="0/1"  />
            <InterpolatingParam id="3627" interp="linr"  time="0/1" value="0" leadInLength="0/1"  />
            <InterpolatingParam id="3628" interp="linr"  time="0/1" value="0" leadInLength="0/1"  />
            <InterpolatingParam id="3629" interp="linr"  time="0/1" value="0" leadInLength="0/1"  />
           </VectorParam>
           <VectorParam id="3630"  name="geometryCrop">
            <InterpolatingParam id="3631" interp="linr"  time="-9999999/1" value="0" leadInLength="0/1"  />
            <InterpolatingParam id="3632" interp="linr"  time="-9999999/1" value="0" leadInLength="0/1"  />
            <InterpolatingParam id="3633" interp="linr"  time="-9999999/1" value="0" leadInLength="0/1"  />
            <InterpolatingParam id="3634" interp="linr"  time="-9999999/1" value="0" leadInLength="0/1"  />
           </VectorParam>
           <InterpolatingParam id="3635" interp="linr"  time="-9999999/1" value="1" leadInLength="0/1"  name="opacity"/>
          </Parameters>
          <Attributes>
           <Attribute id="3636" value="" name="ident"/>
          </Attributes>
          <ExtraData>
           <Entry key="ZoomPanBin">
            <ZoomPanBin id="3637"  >
             <ZoomPanKeyframes>
              <ZoomPanKeyframe id="3638" timeRangeEnd="-9999999/1" timeRangeDuration="0/1" interpolaterName="linr"  />
             </ZoomPanKeyframes>
            </ZoomPanBin>
           </Entry>
          </ExtraData>
         </VMFile>
         <MetaData>
          <entry key="WinSubProjectDisplayName" val=""/>
         </MetaData>
        </UnifiedMedia>
        <UnifiedMedia id="3639"  >
         <AMFile id="3640" start="7574" duration="143" scalar="11561706481/14228965650" mediaStart="86208554865302/11561706481" mediaDuration="156518622150/889362037" trackNumber="1" src="21" channelNumber="0,1" >
          <Parameters>
           <InterpolatingParam id="3641" interp="linr"  name="volume">
            <Keyframes>
            <Keyframe id="3642"  time="-1/1" value="1" leadInLength="0/1"  />
            <Keyframe id="3643"  time="0/1" value="0" leadInLength="0/1"  />
            <Keyframe id="3644"  time="8952/1" value="0" leadInLength="0/1"  />
            <Keyframe id="3645"  time="8953/1" value="1" leadInLength="0/1"  />
            </Keyframes>
           </InterpolatingParam>
           <Parameter id="3646"  name="captions"/>
          </Parameters>
          <Attributes>
           <Attribute id="3647" value="" name="ident"/>
           <Attribute id="3648" value="44100" name="sampleRate"/>
           <Attribute id="3649" value="16" name="bitDepth"/>
           <Attribute id="3650" value="1" name="gain"/>
           <Attribute id="3651" value="0" name="mixToMono"/>
          </Attributes>
         </AMFile>
         <VMFile id="3652" start="7574" duration="143" scalar="11561706481/14228965650" mediaStart="86208554865302/11561706481" mediaDuration="156518622150/889362037" trackNumber="0" src="21" >
          <Transformer>
           <VectorParam id="3653"  name="translation">
            <InterpolatingParam id="3654" interp="linr"  time="-9999999/1" value="0" leadInLength="0/1"  />
            <InterpolatingParam id="3655" interp="linr"  time="-9999999/1" value="0" leadInLength="0/1"  />
            <InterpolatingParam id="3656" interp="linr"  time="-9999999/1" value="0" leadInLength="0/1"  />
           </VectorParam>
           <VectorParam id="3657"  name="rotation">
            <InterpolatingParam id="3658" interp="linr"  time="-9999999/1" value="0" leadInLength="0/1"  />
            <InterpolatingParam id="3659" interp="linr"  time="-9999999/1" value="0" leadInLength="0/1"  />
            <InterpolatingParam id="3660" interp="linr"  time="-9999999/1" value="0" leadInLength="0/1"  />
           </VectorParam>
           <VectorParam id="3661"  name="shear">
            <InterpolatingParam id="3662" interp="linr"  time="-9999999/1" value="0" leadInLength="0/1"  />
            <InterpolatingParam id="3663" interp="linr"  time="-9999999/1" value="0" leadInLength="0/1"  />
            <InterpolatingParam id="3664" interp="linr"  time="-9999999/1" value="0" leadInLength="0/1"  />
           </VectorParam>
           <VectorParam id="3665"  name="scale">
            <InterpolatingParam id="3666" interp="linr"  time="-9999999/1" value="1" leadInLength="0/1"  />
            <InterpolatingParam id="3667" interp="linr"  time="-9999999/1" value="1" leadInLength="0/1"  />
            <InterpolatingParam id="3668" interp="linr"  time="-9999999/1" value="1" leadInLength="0/1"  />
           </VectorParam>
           <VectorParam id="3669"  name="anchor">
            <InterpolatingParam id="3670" interp="linr"  time="0/1" value="0" leadInLength="0/1"  />
            <InterpolatingParam id="3671" interp="linr"  time="0/1" value="0" leadInLength="0/1"  />
            <InterpolatingParam id="3672" interp="linr"  time="0/1" value="0" leadInLength="0/1"  />
           </VectorParam>
          </Transformer>
          <Parameters>
           <VectorParam id="3673"  name="sourceCrop">
            <InterpolatingParam id="3674" interp="linr"  time="0/1" value="0" leadInLength="0/1"  />
            <InterpolatingParam id="3675" interp="linr"  time="0/1" value="0" leadInLength="0/1"  />
            <InterpolatingParam id="3676" interp="linr"  time="0/1" value="0" leadInLength="0/1"  />
            <InterpolatingParam id="3677" interp="linr"  time="0/1" value="0" leadInLength="0/1"  />
           </VectorParam>
           <VectorParam id="3678"  name="geometryCrop">
            <InterpolatingParam id="3679" interp="linr"  time="-9999999/1" value="0" leadInLength="0/1"  />
            <InterpolatingParam id="3680" interp="linr"  time="-9999999/1" value="0" leadInLength="0/1"  />
            <InterpolatingParam id="3681" interp="linr"  time="-9999999/1" value="0" leadInLength="0/1"  />
            <InterpolatingParam id="3682" interp="linr"  time="-9999999/1" value="0" leadInLength="0/1"  />
           </VectorParam>
           <InterpolatingParam id="3683" interp="linr"  time="-9999999/1" value="1" leadInLength="0/1"  name="opacity"/>
          </Parameters>
          <Attributes>
           <Attribute id="3684" value="" name="ident"/>
          </Attributes>
          <ExtraData>
           <Entry key="ZoomPanBin">
            <ZoomPanBin id="3685"  >
             <ZoomPanKeyframes>
              <ZoomPanKeyframe id="3686" timeRangeEnd="-9999999/1" timeRangeDuration="0/1" interpolaterName="linr"  />
             </ZoomPanKeyframes>
            </ZoomPanBin>
           </Entry>
          </ExtraData>
         </VMFile>
         <MetaData>
          <entry key="WinSubProjectDisplayName" val=""/>
         </MetaData>
        </UnifiedMedia>
        <UnifiedMedia id="3687"  >
         <AMFile id="3688" start="7717" duration="318" scalar="360841/643670" mediaStart="2754074372/360841" mediaDuration="204687060/360841" trackNumber="1" src="21" channelNumber="0,1" >
          <Parameters>
           <InterpolatingParam id="3689" interp="linr"  name="volume">
            <Keyframes>
            <Keyframe id="3690"  time="-1/1" value="1" leadInLength="0/1"  />
            <Keyframe id="3691"  time="0/1" value="0" leadInLength="0/1"  />
            <Keyframe id="3692"  time="8952/1" value="0" leadInLength="0/1"  />
            <Keyframe id="3693"  time="8953/1" value="1" leadInLength="0/1"  />
            </Keyframes>
           </InterpolatingParam>
           <Parameter id="3694"  name="captions"/>
          </Parameters>
          <Attributes>
           <Attribute id="3695" value="" name="ident"/>
           <Attribute id="3696" value="44100" name="sampleRate"/>
           <Attribute id="3697" value="16" name="bitDepth"/>
           <Attribute id="3698" value="1" name="gain"/>
           <Attribute id="3699" value="0" name="mixToMono"/>
          </Attributes>
         </AMFile>
         <VMFile id="3700" start="7717" duration="318" scalar="360841/643670" mediaStart="2754074372/360841" mediaDuration="204687060/360841" trackNumber="0" src="21" >
          <Transformer>
           <VectorParam id="3701"  name="translation">
            <InterpolatingParam id="3702" interp="linr"  time="-9999999/1" value="0" leadInLength="0/1"  />
            <InterpolatingParam id="3703" interp="linr"  time="-9999999/1" value="0" leadInLength="0/1"  />
            <InterpolatingParam id="3704" interp="linr"  time="-9999999/1" value="0" leadInLength="0/1"  />
           </VectorParam>
           <VectorParam id="3705"  name="rotation">
            <InterpolatingParam id="3706" interp="linr"  time="-9999999/1" value="0" leadInLength="0/1"  />
            <InterpolatingParam id="3707" interp="linr"  time="-9999999/1" value="0" leadInLength="0/1"  />
            <InterpolatingParam id="3708" interp="linr"  time="-9999999/1" value="0" leadInLength="0/1"  />
           </VectorParam>
           <VectorParam id="3709"  name="shear">
            <InterpolatingParam id="3710" interp="linr"  time="-9999999/1" value="0" leadInLength="0/1"  />
            <InterpolatingParam id="3711" interp="linr"  time="-9999999/1" value="0" leadInLength="0/1"  />
            <InterpolatingParam id="3712" interp="linr"  time="-9999999/1" value="0" leadInLength="0/1"  />
           </VectorParam>
           <VectorParam id="3713"  name="scale">
            <InterpolatingParam id="3714" interp="linr"  time="-9999999/1" value="1" leadInLength="0/1"  />
            <InterpolatingParam id="3715" interp="linr"  time="-9999999/1" value="1" leadInLength="0/1"  />
            <InterpolatingParam id="3716" interp="linr"  time="-9999999/1" value="1" leadInLength="0/1"  />
           </VectorParam>
           <VectorParam id="3717"  name="anchor">
            <InterpolatingParam id="3718" interp="linr"  time="0/1" value="0" leadInLength="0/1"  />
            <InterpolatingParam id="3719" interp="linr"  time="0/1" value="0" leadInLength="0/1"  />
            <InterpolatingParam id="3720" interp="linr"  time="0/1" value="0" leadInLength="0/1"  />
           </VectorParam>
          </Transformer>
          <Parameters>
           <VectorParam id="3721"  name="sourceCrop">
            <InterpolatingParam id="3722" interp="linr"  time="0/1" value="0" leadInLength="0/1"  />
            <InterpolatingParam id="3723" interp="linr"  time="0/1" value="0" leadInLength="0/1"  />
            <InterpolatingParam id="3724" interp="linr"  time="0/1" value="0" leadInLength="0/1"  />
            <InterpolatingParam id="3725" interp="linr"  time="0/1" value="0" leadInLength="0/1"  />
           </VectorParam>
           <VectorParam id="3726"  name="geometryCrop">
            <InterpolatingParam id="3727" interp="linr"  time="-9999999/1" value="0" leadInLength="0/1"  />
            <InterpolatingParam id="3728" interp="linr"  time="-9999999/1" value="0" leadInLength="0/1"  />
            <InterpolatingParam id="3729" interp="linr"  time="-9999999/1" value="0" leadInLength="0/1"  />
            <InterpolatingParam id="3730" interp="linr"  time="-9999999/1" value="0" leadInLength="0/1"  />
           </VectorParam>
           <InterpolatingParam id="3731" interp="linr"  time="-9999999/1" value="1" leadInLength="0/1"  name="opacity"/>
          </Parameters>
          <Attributes>
           <Attribute id="3732" value="" name="ident"/>
          </Attributes>
          <ExtraData>
           <Entry key="ZoomPanBin">
            <ZoomPanBin id="3733"  >
             <ZoomPanKeyframes>
              <ZoomPanKeyframe id="3734" timeRangeEnd="-9999999/1" timeRangeDuration="0/1" interpolaterName="linr"  />
             </ZoomPanKeyframes>
            </ZoomPanBin>
           </Entry>
          </ExtraData>
         </VMFile>
         <MetaData>
          <entry key="WinSubProjectDisplayName" val=""/>
         </MetaData>
        </UnifiedMedia>
        <UnifiedMedia id="3735"  >
         <AMFile id="3736" start="8035" duration="228" scalar="360841/357220" mediaStart="2958761432/360841" mediaDuration="81446160/360841" trackNumber="1" src="21" channelNumber="0,1" >
          <Parameters>
           <InterpolatingParam id="3737" interp="linr"  name="volume">
            <Keyframes>
            <Keyframe id="3738"  time="-1/1" value="1" leadInLength="0/1"  />
            <Keyframe id="3739"  time="0/1" value="0" leadInLength="0/1"  />
            <Keyframe id="3740"  time="8952/1" value="0" leadInLength="0/1"  />
            <Keyframe id="3741"  time="8953/1" value="1" leadInLength="0/1"  />
            </Keyframes>
           </InterpolatingParam>
           <Parameter id="3742"  name="captions"/>
          </Parameters>
          <Attributes>
           <Attribute id="3743" value="" name="ident"/>
           <Attribute id="3744" value="44100" name="sampleRate"/>
           <Attribute id="3745" value="16" name="bitDepth"/>
           <Attribute id="3746" value="1" name="gain"/>
           <Attribute id="3747" value="0" name="mixToMono"/>
          </Attributes>
         </AMFile>
         <VMFile id="3748" start="8035" duration="228" scalar="360841/357220" mediaStart="2958761432/360841" mediaDuration="81446160/360841" trackNumber="0" src="21" >
          <Transformer>
           <VectorParam id="3749"  name="translation">
            <InterpolatingParam id="3750" interp="linr"  time="-9999999/1" value="0" leadInLength="0/1"  />
            <InterpolatingParam id="3751" interp="linr"  time="-9999999/1" value="0" leadInLength="0/1"  />
            <InterpolatingParam id="3752" interp="linr"  time="-9999999/1" value="0" leadInLength="0/1"  />
           </VectorParam>
           <VectorParam id="3753"  name="rotation">
            <InterpolatingParam id="3754" interp="linr"  time="-9999999/1" value="0" leadInLength="0/1"  />
            <InterpolatingParam id="3755" interp="linr"  time="-9999999/1" value="0" leadInLength="0/1"  />
            <InterpolatingParam id="3756" interp="linr"  time="-9999999/1" value="0" leadInLength="0/1"  />
           </VectorParam>
           <VectorParam id="3757"  name="shear">
            <InterpolatingParam id="3758" interp="linr"  time="-9999999/1" value="0" leadInLength="0/1"  />
            <InterpolatingParam id="3759" interp="linr"  time="-9999999/1" value="0" leadInLength="0/1"  />
            <InterpolatingParam id="3760" interp="linr"  time="-9999999/1" value="0" leadInLength="0/1"  />
           </VectorParam>
           <VectorParam id="3761"  name="scale">
            <InterpolatingParam id="3762" interp="linr"  time="-9999999/1" value="1" leadInLength="0/1"  />
            <InterpolatingParam id="3763" interp="linr"  time="-9999999/1" value="1" leadInLength="0/1"  />
            <InterpolatingParam id="3764" interp="linr"  time="-9999999/1" value="1" leadInLength="0/1"  />
           </VectorParam>
           <VectorParam id="3765"  name="anchor">
            <InterpolatingParam id="3766" interp="linr"  time="0/1" value="0" leadInLength="0/1"  />
            <InterpolatingParam id="3767" interp="linr"  time="0/1" value="0" leadInLength="0/1"  />
            <InterpolatingParam id="3768" interp="linr"  time="0/1" value="0" leadInLength="0/1"  />
           </VectorParam>
          </Transformer>
          <Parameters>
           <VectorParam id="3769"  name="sourceCrop">
            <InterpolatingParam id="3770" interp="linr"  time="0/1" value="0" leadInLength="0/1"  />
            <InterpolatingParam id="3771" interp="linr"  time="0/1" value="0" leadInLength="0/1"  />
            <InterpolatingParam id="3772" interp="linr"  time="0/1" value="0" leadInLength="0/1"  />
            <InterpolatingParam id="3773" interp="linr"  time="0/1" value="0" leadInLength="0/1"  />
           </VectorParam>
           <VectorParam id="3774"  name="geometryCrop">
            <InterpolatingParam id="3775" interp="linr"  time="-9999999/1" value="0" leadInLength="0/1"  />
            <InterpolatingParam id="3776" interp="linr"  time="-9999999/1" value="0" leadInLength="0/1"  />
            <InterpolatingParam id="3777" interp="linr"  time="-9999999/1" value="0" leadInLength="0/1"  />
            <InterpolatingParam id="3778" interp="linr"  time="-9999999/1" value="0" leadInLength="0/1"  />
           </VectorParam>
           <InterpolatingParam id="3779" interp="linr"  time="-9999999/1" value="1" leadInLength="0/1"  name="opacity"/>
          </Parameters>
          <Attributes>
           <Attribute id="3780" value="" name="ident"/>
          </Attributes>
          <ExtraData>
           <Entry key="ZoomPanBin">
            <ZoomPanBin id="3781"  >
             <ZoomPanKeyframes>
              <ZoomPanKeyframe id="3782" timeRangeEnd="-9999999/1" timeRangeDuration="0/1" interpolaterName="linr"  />
             </ZoomPanKeyframes>
            </ZoomPanBin>
           </Entry>
          </ExtraData>
         </VMFile>
         <MetaData>
          <entry key="WinSubProjectDisplayName" val=""/>
         </MetaData>
        </UnifiedMedia>
        <UnifiedMedia id="3783"  >
         <AMFile id="3784" start="8263" duration="430" scalar="15516163/17075116" mediaStart="3045208672/360841" mediaDuration="170751160/360841" trackNumber="1" src="21" channelNumber="0,1" >
          <Parameters>
           <InterpolatingParam id="3785" interp="linr"  name="volume">
            <Keyframes>
            <Keyframe id="3786"  time="-1/1" value="1" leadInLength="0/1"  />
            <Keyframe id="3787"  time="0/1" value="0" leadInLength="0/1"  />
            <Keyframe id="3788"  time="8952/1" value="0" leadInLength="0/1"  />
            <Keyframe id="3789"  time="8953/1" value="1" leadInLength="0/1"  />
            </Keyframes>
           </InterpolatingParam>
           <Parameter id="3790"  name="captions"/>
          </Parameters>
          <Attributes>
           <Attribute id="3791" value="" name="ident"/>
           <Attribute id="3792" value="44100" name="sampleRate"/>
           <Attribute id="3793" value="16" name="bitDepth"/>
           <Attribute id="3794" value="1" name="gain"/>
           <Attribute id="3795" value="0" name="mixToMono"/>
          </Attributes>
         </AMFile>
         <VMFile id="3796" start="8263" duration="430" scalar="15516163/17075116" mediaStart="3045208672/360841" mediaDuration="170751160/360841" trackNumber="0" src="21" >
          <Transformer>
           <VectorParam id="3797"  name="translation">
            <InterpolatingParam id="3798" interp="linr"  time="-9999999/1" value="0" leadInLength="0/1"  />
            <InterpolatingParam id="3799" interp="linr"  time="-9999999/1" value="0" leadInLength="0/1"  />
            <InterpolatingParam id="3800" interp="linr"  time="-9999999/1" value="0" leadInLength="0/1"  />
           </VectorParam>
           <VectorParam id="3801"  name="rotation">
            <InterpolatingParam id="3802" interp="linr"  time="-9999999/1" value="0" leadInLength="0/1"  />
            <InterpolatingParam id="3803" interp="linr"  time="-9999999/1" value="0" leadInLength="0/1"  />
            <InterpolatingParam id="3804" interp="linr"  time="-9999999/1" value="0" leadInLength="0/1"  />
           </VectorParam>
           <VectorParam id="3805"  name="shear">
            <InterpolatingParam id="3806" interp="linr"  time="-9999999/1" value="0" leadInLength="0/1"  />
            <InterpolatingParam id="3807" interp="linr"  time="-9999999/1" value="0" leadInLength="0/1"  />
            <InterpolatingParam id="3808" interp="linr"  time="-9999999/1" value="0" leadInLength="0/1"  />
           </VectorParam>
           <VectorParam id="3809"  name="scale">
            <InterpolatingParam id="3810" interp="linr"  time="-9999999/1" value="1" leadInLength="0/1"  />
            <InterpolatingParam id="3811" interp="linr"  time="-9999999/1" value="1" leadInLength="0/1"  />
            <InterpolatingParam id="3812" interp="linr"  time="-9999999/1" value="1" leadInLength="0/1"  />
           </VectorParam>
           <VectorParam id="3813"  name="anchor">
            <InterpolatingParam id="3814" interp="linr"  time="0/1" value="0" leadInLength="0/1"  />
            <InterpolatingParam id="3815" interp="linr"  time="0/1" value="0" leadInLength="0/1"  />
            <InterpolatingParam id="3816" interp="linr"  time="0/1" value="0" leadInLength="0/1"  />
           </VectorParam>
          </Transformer>
          <Parameters>
           <VectorParam id="3817"  name="sourceCrop">
            <InterpolatingParam id="3818" interp="linr"  time="0/1" value="0" leadInLength="0/1"  />
            <InterpolatingParam id="3819" interp="linr"  time="0/1" value="0" leadInLength="0/1"  />
            <InterpolatingParam id="3820" interp="linr"  time="0/1" value="0" leadInLength="0/1"  />
            <InterpolatingParam id="3821" interp="linr"  time="0/1" value="0" leadInLength="0/1"  />
           </VectorParam>
           <VectorParam id="3822"  name="geometryCrop">
            <InterpolatingParam id="3823" interp="linr"  time="-9999999/1" value="0" leadInLength="0/1"  />
            <InterpolatingParam id="3824" interp="linr"  time="-9999999/1" value="0" leadInLength="0/1"  />
            <InterpolatingParam id="3825" interp="linr"  time="-9999999/1" value="0" leadInLength="0/1"  />
            <InterpolatingParam id="3826" interp="linr"  time="-9999999/1" value="0" leadInLength="0/1"  />
           </VectorParam>
           <InterpolatingParam id="3827" interp="linr"  time="-9999999/1" value="1" leadInLength="0/1"  name="opacity"/>
          </Parameters>
          <Attributes>
           <Attribute id="3828" value="" name="ident"/>
          </Attributes>
          <ExtraData>
           <Entry key="ZoomPanBin">
            <ZoomPanBin id="3829"  >
             <ZoomPanKeyframes>
              <ZoomPanKeyframe id="3830" timeRangeEnd="-9999999/1" timeRangeDuration="0/1" interpolaterName="linr"  />
             </ZoomPanKeyframes>
            </ZoomPanBin>
           </Entry>
          </ExtraData>
         </VMFile>
         <MetaData>
          <entry key="WinSubProjectDisplayName" val=""/>
         </MetaData>
        </UnifiedMedia>
       </Medias>
      </GenericTrack>
      <GenericTrack id="3831"  >
       <Attributes>
        <Attribute id="3832" value="" name="ident"/>
        <Attribute id="3833" value="0" name="audioMuted"/>
        <Attribute id="3834" value="0" name="videoHidden"/>
       </Attributes>
       <MetaData>
        <entry key="IsLocked" val="False"/>
        <entry key="WinTrackHeight" val="62"/>
       </MetaData>
       <Medias>
        <StitchedMedia id="3835" start="0" duration="724" scalar="1/1" mediaStart="251/1" mediaDuration="724/1" minMediaStart="0/1" >
         <Transformer>
          <VectorParam id="3836"  name="translation">
           <InterpolatingParam id="3837" interp="linr"  time="0/1" value="0" leadInLength="0/1"  />
           <InterpolatingParam id="3838" interp="linr"  time="0/1" value="0" leadInLength="0/1"  />
           <InterpolatingParam id="3839" interp="linr"  time="0/1" value="0" leadInLength="0/1"  />
          </VectorParam>
          <VectorParam id="3840"  name="rotation">
           <InterpolatingParam id="3841" interp="linr"  time="0/1" value="0" leadInLength="0/1"  />
           <InterpolatingParam id="3842" interp="linr"  time="0/1" value="0" leadInLength="0/1"  />
           <InterpolatingParam id="3843" interp="linr"  time="0/1" value="0" leadInLength="0/1"  />
          </VectorParam>
          <VectorParam id="3844"  name="shear">
           <InterpolatingParam id="3845" interp="linr"  time="0/1" value="0" leadInLength="0/1"  />
           <InterpolatingParam id="3846" interp="linr"  time="0/1" value="0" leadInLength="0/1"  />
           <InterpolatingParam id="3847" interp="linr"  time="0/1" value="0" leadInLength="0/1"  />
          </VectorParam>
          <VectorParam id="3848"  name="scale">
           <InterpolatingParam id="3849" interp="linr"  time="0/1" value="1" leadInLength="0/1"  />
           <InterpolatingParam id="3850" interp="linr"  time="0/1" value="1" leadInLength="0/1"  />
           <InterpolatingParam id="3851" interp="linr"  time="0/1" value="1" leadInLength="0/1"  />
          </VectorParam>
          <VectorParam id="3852"  name="anchor">
           <InterpolatingParam id="3853" interp="linr"  time="0/1" value="0" leadInLength="0/1"  />
           <InterpolatingParam id="3854" interp="linr"  time="0/1" value="0" leadInLength="0/1"  />
           <InterpolatingParam id="3855" interp="linr"  time="0/1" value="0" leadInLength="0/1"  />
          </VectorParam>
         </Transformer>
         <Parameters>
          <InterpolatingParam id="3856" interp="linr"  time="0/1" value="1" leadInLength="0/1"  name="cursorOpacity"/>
          <InterpolatingParam id="3857" interp="linr"  time="0/1" value="1" leadInLength="0/1"  name="cursorScale"/>
          <InterpolatingParam id="3858" interp="linr"  name="volume">
           <Keyframes>
           <Keyframe id="3859"  time="0/1" value="1" leadInLength="0/1"  />
           <Keyframe id="3860"  time="250/1" value="1" leadInLength="0/1"  />
           <Keyframe id="3861"  time="251/1" value="0.99255583126550895" leadInLength="0/1"  />
           <Keyframe id="3862"  time="1888/1" value="0.99255583126550895" leadInLength="0/1"  />
           <Keyframe id="3863"  time="1889/1" value="1" leadInLength="0/1"  />
           </Keyframes>
          </InterpolatingParam>
          <Parameter id="3864"  name="captions"/>
         </Parameters>
         <Effects>
          <GenericEffect id="3865" name = "NoiseReduction" >
           <Parameters>
           <InterpolatingParam id="3866" interp="linr"  time="0/1" value="20" leadInLength="0/1"   name="denoiserAmount"/>
           <InterpolatingParam id="3867" interp="linr"  time="0/1" value="0" leadInLength="0/1"   name="denoiserThreshold"/>
           <Parameter id="3868"   name="noiseProfile">
            <Keyframes>
            <Keyframe id="3869"  time="0/1" value="FBAAAAIAAABErAAAAQIAADOmYsI/y13CPNeLwsehjcK+No/Cm+aOwlHvjcIja5HCun6XwoKemMJy&#xD;&#xa;lpPCuQeRwhgMlcJGdZvCTjScwgFMncIGh5zCGrOawuO0nMJdJZ3Cybudwo6toMIdraPCs/6jwpY0&#xD;&#xa;psLIUqjCWQmpwonmp8KcE6XCgXGlwqC+psIFHabCBoyownWvqcIkX6jCgnCpwms3qsIW0KfCM7Oj&#xD;&#xa;wnGLosJgcKnCdk6swiIgscKFrbDCtNmowrZmpcIHYqjCCg2pwqUNq8KgHq7ChEGxwhVFs8KU6LLC&#xD;&#xa;dvWzwpVHscI6NrDCMpGwwubcs8Imh7bCPKq6wj7tvMKSbr3ClsG+wq4qwMLXQr7CpAK5whxiuMJp&#xD;&#xa;v7nCwu29wloQvsIXTL3CzjDAwsDTwcL69sHC8urAwtAFwMIkSMLCpJHDwjLOw8JG8sTCmMvDwq7H&#xD;&#xa;wsLOncPC+CDDwkh6wsLU5sPCP23Fwm5Qx8KlYsTCm0XCwnhexcLsTsPCSMPDwjvJw8LMWcHC2XHD&#xD;&#xa;wjj5wsICs8TChWvEwgCywcKDdcHCFnHCwurMxMLlVsTCfrDGwmzqyMKoGsfC7ITIwtqRyMJwzcbC&#xD;&#xa;ppbEwiv5xcIXxsTCzDfCwtSExMKEjcTC8ObDwiJ9yMIQm8vCIkDGwqHyxcIyYcbCyAXIwmyBx8I4&#xD;&#xa;n8PCvyPGwuiKxMJggMfCdL3JwsMhysLi6sXCRa7Ewoykx8Jk/MXC0NfEwtK0xcJQTMTCvvvGwtqJ&#xD;&#xa;xMKmFsTCSbfGwq76x8IQ+sjCsqnIwkJdycIaT8fC0nbHwlf2xsLg/cbCtIHHwsTvxsI0KsbCsqDH&#xD;&#xa;wgLix8JGKcXCyNTDwjDwwsIb98bC6MjJwg6Zy8Kg+cvCaC3HwtIgw8KW7sXC3EHGwmcUxcL++8fC&#xD;&#xa;CWbIwsDoxsJFz8PCJkXFwiD7xcIQDsfC8ljIwrDLxMKkeMLClpHEwiqgyMJcjcjC6krGwl50w8Iy&#xD;&#xa;7sXCWv3HwkQ1xsKUwMPC2K/EwootxMJUqMTCH3LDwuojxcKil8fCjmXIwkLJxcID78TClTvGwhel&#xD;&#xa;xsIca8bC1rbCwk6+wsIQfsfCIlPHwpJExcLWhMbCDNvEwuryxMKklMXCeBDDwolhwcIiasLCQYfE&#xD;&#xa;whUfwsJx4MTCsEnIwkX0xcK+3sbCIqLHwrARx8IWtMTCGAnFwomNxMLfbcTCQIPDwjqww8L+MMTC&#xD;&#xa;mqjHwrBaxMI6YsTCxmvIwqyKycKQaMXCnx7FwkYvx8In6sjCGMzIwuvAxcL8a8XCiBjJwkvwyMKI&#xD;&#xa;qMbCTCTIwvQSy8IxEsvCVT/JwrI3w8LA8sLCCD7EwsxXxMJSjsXCfjXFwqTKxMI/gsPCDozDwtwF&#xD;&#xa;xMISn8bChHvJwlFQyMJYCsbCP4jIwtkBycLiFsrCbCrKwvyTysIWncnC+A3HwuI5x8I8/MbC0hHI&#xD;&#xa;wopJzMLmb83CFkvMwpy/y8Kn7MrCfJrJwuLDyMJKn8bCStTGwpb7ycIMo8nCcivFwsapxcJkx8bC&#xD;&#xa;ALLIwriaycJM3cfC8r/KwlSoy8I4A8vCpFHJwkRrzMIKr87CWD7MwsiJycKW9cfCUjbKwq+YycLi&#xD;&#xa;U8jCROHHwhdWycKaU8nCF7jMwmKaz8L//8zC8tjOwjxezsIUysvCzHLJwiJryMLRm8bCgLjKwsi8&#xD;&#xa;ysIhfszCPETLwqtbyMJGeMfCpRPJwnwZzMJSIs3CqhPMwmDiyMLZYsjCz13KwgwKy8LCi8jCyrTM&#xD;&#xa;wgwxzMK4ZcvC087JwkV2xsLyXsnCjIbLwhwvzcLfrM7CeITKwla3ysLK3cnC/PHFwpScxcIUQ8nC&#xD;&#xa;NJzIwrEsxsJvZcfCXSvIwlKLx8JII8nCvgzKwpnhysJSC8vC9iTKwiA/y8IadczCuDrMwuVaysLO&#xD;&#xa;r8vCXtfJwrZ6ycItucnCtonJwjyTysJkC83CL0nMwkjdyMIBucfCixrLwvSDysKGX8nCsCzMwuas&#xD;&#xa;0cIsnNPCuEvOwtr5y8LMBc7Cr+PTwsQc5MLcOfPCKOj0wjr59cJ0C/fCzg75wkwh+8LmVPnCqz72&#xD;&#xa;wnB+9cLuJvrCtEL4wkp7+MLOfffCDN3zwkaz9sLi8vjCFKr6wgIQ+cI8iPjCBpT4wvR1+MLQI/rC&#xD;&#xa;Ihn8wlQg+sIcLvjCVCz2wsI49MJQ9fbC23H3woy69sL4BfnCIOb2wjwy9cIuGvnCdmb3wj7K9MI+&#xD;&#xa;KPXCJpr2wn7C9cKQDvnCthv7woaP+cLGaPbCTr32wrpN+cIFSPjCDvX4wtD39sJY//TCKGf3wvZI&#xD;&#xa;+cK9YvfCgYf3wjIf+sLMMvfCpjz2wuA6+cII8vbCxDv1wmJG9sLka/rCPrT1wi589cLqjfbC9qP4&#xD;&#xa;wgzJ+MLelPbCGir2wlBC9sKeU/jC/nn3wsYn9sL4QPjCXBj5wopQ+MIaJvnCSB36wgjc+MIMfPfC&#xD;&#xa;W+z1wmYG+MKuxPnCCuD1wjh+9sLDrPfCOPj3wm7h+MJjMvfCxH/2wsXf98KwN/nCKOn5wrLR+sKg&#xD;&#xa;bPvCkFv5wsAu+cL2hffCySz2wmRX+MKiiPjCzFX4wvjB98Jgz/fCxPT4wobP+cL8avjC9r34wnKx&#xD;&#xa;+MK+LPnC3H34wle39cKejfbCNKP2wg5B9sK0H/rCSvz2woqE98JAqfjCBPL4wmKi+MIu2/jCMFD5&#xD;&#xa;wiCM+cKo//nCGqz7wlZN+sKUDfjC0ov4wrIU+sIVpffCP2/3woye98KktPbCTJj2wpH29cL3mvbC&#xD;&#xa;jL/4wti/+MLm3vjCQ9QEwzOmYsI/y13CPNeLwsehjcK+No/Cm+aOwlHvjcIja5HCun6XwoKemMJy&#xD;&#xa;lpPCuQeRwhgMlcJGdZvCTjScwgFMncIGh5zCGrOawuO0nMJdJZ3Cybudwo6toMIdraPCs/6jwpY0&#xD;&#xa;psLIUqjCWQmpwonmp8KcE6XCgXGlwqC+psIFHabCBoyownWvqcIkX6jCgnCpwms3qsIW0KfCM7Oj&#xD;&#xa;wnGLosJgcKnCdk6swiIgscKFrbDCtNmowrZmpcIHYqjCCg2pwqUNq8KgHq7ChEGxwhVFs8KU6LLC&#xD;&#xa;dvWzwpVHscI6NrDCMpGwwubcs8Imh7bCPKq6wj7tvMKSbr3ClsG+wq4qwMLXQr7CpAK5whxiuMJp&#xD;&#xa;v7nCwu29wloQvsIXTL3CzjDAwsDTwcL69sHC8urAwtAFwMIkSMLCpJHDwjLOw8JG8sTCmMvDwq7H&#xD;&#xa;wsLOncPC+CDDwkh6wsLU5sPCP23Fwm5Qx8KlYsTCm0XCwnhexcLsTsPCSMPDwjvJw8LMWcHC2XHD&#xD;&#xa;wjj5wsICs8TChWvEwgCywcKDdcHCFnHCwurMxMLlVsTCfrDGwmzqyMKoGsfC7ITIwtqRyMJwzcbC&#xD;&#xa;ppbEwiv5xcIXxsTCzDfCwtSExMKEjcTC8ObDwiJ9yMIQm8vCIkDGwqHyxcIyYcbCyAXIwmyBx8I4&#xD;&#xa;n8PCvyPGwuiKxMJggMfCdL3JwsMhysLi6sXCRa7Ewoykx8Jk/MXC0NfEwtK0xcJQTMTCvvvGwtqJ&#xD;&#xa;xMKmFsTCSbfGwq76x8IQ+sjCsqnIwkJdycIaT8fC0nbHwlf2xsLg/cbCtIHHwsTvxsI0KsbCsqDH&#xD;&#xa;wgLix8JGKcXCyNTDwjDwwsIb98bC6MjJwg6Zy8Kg+cvCaC3HwtIgw8KW7sXC3EHGwmcUxcL++8fC&#xD;&#xa;CWbIwsDoxsJFz8PCJkXFwiD7xcIQDsfC8ljIwrDLxMKkeMLClpHEwiqgyMJcjcjC6krGwl50w8Iy&#xD;&#xa;7sXCWv3HwkQ1xsKUwMPC2K/EwootxMJUqMTCH3LDwuojxcKil8fCjmXIwkLJxcID78TClTvGwhel&#xD;&#xa;xsIca8bC1rbCwk6+wsIQfsfCIlPHwpJExcLWhMbCDNvEwuryxMKklMXCeBDDwolhwcIiasLCQYfE&#xD;&#xa;whUfwsJx4MTCsEnIwkX0xcK+3sbCIqLHwrARx8IWtMTCGAnFwomNxMLfbcTCQIPDwjqww8L+MMTC&#xD;&#xa;mqjHwrBaxMI6YsTCxmvIwqyKycKQaMXCnx7FwkYvx8In6sjCGMzIwuvAxcL8a8XCiBjJwkvwyMKI&#xD;&#xa;qMbCTCTIwvQSy8IxEsvCVT/JwrI3w8LA8sLCCD7EwsxXxMJSjsXCfjXFwqTKxMI/gsPCDozDwtwF&#xD;&#xa;xMISn8bChHvJwlFQyMJYCsbCP4jIwtkBycLiFsrCbCrKwvyTysIWncnC+A3HwuI5x8I8/MbC0hHI&#xD;&#xa;wopJzMLmb83CFkvMwpy/y8Kn7MrCfJrJwuLDyMJKn8bCStTGwpb7ycIMo8nCcivFwsapxcJkx8bC&#xD;&#xa;ALLIwriaycJM3cfC8r/KwlSoy8I4A8vCpFHJwkRrzMIKr87CWD7MwsiJycKW9cfCUjbKwq+YycLi&#xD;&#xa;U8jCROHHwhdWycKaU8nCF7jMwmKaz8L//8zC8tjOwjxezsIUysvCzHLJwiJryMLRm8bCgLjKwsi8&#xD;&#xa;ysIhfszCPETLwqtbyMJGeMfCpRPJwnwZzMJSIs3CqhPMwmDiyMLZYsjCz13KwgwKy8LCi8jCyrTM&#xD;&#xa;wgwxzMK4ZcvC087JwkV2xsLyXsnCjIbLwhwvzcLfrM7CeITKwla3ysLK3cnC/PHFwpScxcIUQ8nC&#xD;&#xa;NJzIwrEsxsJvZcfCXSvIwlKLx8JII8nCvgzKwpnhysJSC8vC9iTKwiA/y8IadczCuDrMwuVaysLO&#xD;&#xa;r8vCXtfJwrZ6ycItucnCtonJwjyTysJkC83CL0nMwkjdyMIBucfCixrLwvSDysKGX8nCsCzMwuas&#xD;&#xa;0cIsnNPCuEvOwtr5y8LMBc7Cr+PTwsQc5MLcOfPCKOj0wjr59cJ0C/fCzg75wkwh+8LmVPnCqz72&#xD;&#xa;wnB+9cLuJvrCtEL4wkp7+MLOfffCDN3zwkaz9sLi8vjCFKr6wgIQ+cI8iPjCBpT4wvR1+MLQI/rC&#xD;&#xa;Ihn8wlQg+sIcLvjCVCz2wsI49MJQ9fbC23H3woy69sL4BfnCIOb2wjwy9cIuGvnCdmb3wj7K9MI+&#xD;&#xa;KPXCJpr2wn7C9cKQDvnCthv7woaP+cLGaPbCTr32wrpN+cIFSPjCDvX4wtD39sJY//TCKGf3wvZI&#xD;&#xa;+cK9YvfCgYf3wjIf+sLMMvfCpjz2wuA6+cII8vbCxDv1wmJG9sLka/rCPrT1wi589cLqjfbC9qP4&#xD;&#xa;wgzJ+MLelPbCGir2wlBC9sKeU/jC/nn3wsYn9sL4QPjCXBj5wopQ+MIaJvnCSB36wgjc+MIMfPfC&#xD;&#xa;W+z1wmYG+MKuxPnCCuD1wjh+9sLDrPfCOPj3wm7h+MJjMvfCxH/2wsXf98KwN/nCKOn5wrLR+sKg&#xD;&#xa;bPvCkFv5wsAu+cL2hffCySz2wmRX+MKiiPjCzFX4wvjB98Jgz/fCxPT4wobP+cL8avjC9r34wnKx&#xD;&#xa;+MK+LPnC3H34wle39cKejfbCNKP2wg5B9sK0H/rCSvz2woqE98JAqfjCBPL4wmKi+MIu2/jCMFD5&#xD;&#xa;wiCM+cKo//nCGqz7wlZN+sKUDfjC0ov4wrIU+sIVpffCP2/3woye98KktPbCTJj2wpH29cL3mvbC&#xD;&#xa;jL/4wti/+MLm3vjCQ9QE" leadInLength="0/1"  />
            </Keyframes>
           </Parameter>
           </Parameters>
          </GenericEffect>
          <GenericEffect id="3870" name = "WinCompression" >
           <Parameters>
           <InterpolatingParam id="3871" interp="linr"  time="0/1" value="0" leadInLength="0/1"   name="attack"/>
           <InterpolatingParam id="3872" interp="linr"  time="0/1" value="9" leadInLength="0/1"   name="gain"/>
           <Parameter id="3873"   name="preset">
            <Keyframes>
            <Keyframe id="3874"  time="0/1" value="1" leadInLength="0/1"  />
            </Keyframes>
           </Parameter>
           <InterpolatingParam id="3875" interp="linr"  time="0/1" value="10" leadInLength="0/1"   name="ratio"/>
           <InterpolatingParam id="3876" interp="linr"  time="0/1" value="3500" leadInLength="0/1"   name="release"/>
           <InterpolatingParam id="3877" interp="linr"  time="0/1" value="-20" leadInLength="0/1"   name="threshold"/>
           </Parameters>
          </GenericEffect>
          <GenericEffect id="3878" name = "Declipper" >
           <Parameters>
           <InterpolatingParam id="3879" interp="linr"  time="0/1" value="-1" leadInLength="0/1"   name="sensitivity"/>
           </Parameters>
          </GenericEffect>
          <GenericEffect id="3880" name = "Declicker" >
           <Parameters>
           <InterpolatingParam id="3881" interp="linr"  time="0/1" value="3" leadInLength="0/1"   name="sensitivity"/>
           </Parameters>
          </GenericEffect>
         </Effects>
         <Attributes>
          <Attribute id="3882" value="" name="ident"/>
          <Attribute id="3883" value="0" name="mixToMono"/>
         </Attributes>
         <MetaData>
          <entry key="WinSubProjectDisplayName" val=""/>
         </MetaData>
         <ExtraData>
          <Entry key="ZoomPanBin">
           <ZoomPanBin id="3884"  >
            <ZoomPanKeyframes>
            </ZoomPanKeyframes>
           </ZoomPanBin>
          </Entry>
          <Entry key="CursorEffectBin">
           <CursorEffectBin id="3885"  >
            <CursorEffectKeyframes>
            </CursorEffectKeyframes>
           </CursorEffectBin>
          </Entry>
         </ExtraData>
         <GenericTrack id="3886"  >
          <Attributes>
           <Attribute id="3887" value="" name="ident"/>
           <Attribute id="3888" value="0" name="audioMuted"/>
           <Attribute id="3889" value="0" name="videoHidden"/>
          </Attributes>
          <MetaData>
           <entry key="IsLocked" val="False"/>
           <entry key="WinTrackHeight" val="0"/>
          </MetaData>
          <Medias>
           <AMFile id="3890" start="0" duration="582" scalar="1/1" mediaStart="0/1" mediaDuration="582/1" trackNumber="0" src="22" channelNumber="0" >
            <Parameters>
             <InterpolatingParam id="3891" interp="linr"  time="0/1" value="1" leadInLength="0/1"  name="volume"/>
             <Parameter id="3892"  name="captions"/>
            </Parameters>
            <Attributes>
             <Attribute id="3893" value="" name="ident"/>
             <Attribute id="3894" value="44100" name="sampleRate"/>
             <Attribute id="3895" value="16" name="bitDepth"/>
             <Attribute id="3896" value="1" name="gain"/>
             <Attribute id="3897" value="0" name="mixToMono"/>
            </Attributes>
            <MetaData>
             <entry key="WinSubProjectDisplayName" val=""/>
            </MetaData>
           </AMFile>
           <AMFile id="3898" start="582" duration="769" scalar="1/1" mediaStart="971/1" mediaDuration="769/1" trackNumber="0" src="22" channelNumber="0" >
            <Parameters>
             <InterpolatingParam id="3899" interp="linr"  time="0/1" value="1" leadInLength="0/1"  name="volume"/>
             <Parameter id="3900"  name="captions"/>
            </Parameters>
            <Attributes>
             <Attribute id="3901" value="" name="ident"/>
             <Attribute id="3902" value="44100" name="sampleRate"/>
             <Attribute id="3903" value="16" name="bitDepth"/>
             <Attribute id="3904" value="1" name="gain"/>
             <Attribute id="3905" value="0" name="mixToMono"/>
            </Attributes>
            <MetaData>
             <entry key="WinSubProjectDisplayName" val=""/>
            </MetaData>
           </AMFile>
           <AMFile id="3906" start="1351" duration="135" scalar="1/1" mediaStart="1744/1" mediaDuration="135/1" trackNumber="0" src="22" channelNumber="0" >
            <Parameters>
             <InterpolatingParam id="3907" interp="linr"  time="0/1" value="1" leadInLength="0/1"  name="volume"/>
             <Parameter id="3908"  name="captions"/>
            </Parameters>
            <Attributes>
             <Attribute id="3909" value="" name="ident"/>
             <Attribute id="3910" value="44100" name="sampleRate"/>
             <Attribute id="3911" value="16" name="bitDepth"/>
             <Attribute id="3912" value="1" name="gain"/>
             <Attribute id="3913" value="0" name="mixToMono"/>
            </Attributes>
            <MetaData>
             <entry key="WinSubProjectDisplayName" val=""/>
            </MetaData>
           </AMFile>
           <AMFile id="3914" start="1486" duration="165" scalar="1/1" mediaStart="1884/1" mediaDuration="165/1" trackNumber="0" src="22" channelNumber="0" >
            <Parameters>
             <InterpolatingParam id="3915" interp="linr"  time="0/1" value="1" leadInLength="0/1"  name="volume"/>
             <Parameter id="3916"  name="captions"/>
            </Parameters>
            <Attributes>
             <Attribute id="3917" value="" name="ident"/>
             <Attribute id="3918" value="44100" name="sampleRate"/>
             <Attribute id="3919" value="16" name="bitDepth"/>
             <Attribute id="3920" value="1" name="gain"/>
             <Attribute id="3921" value="0" name="mixToMono"/>
            </Attributes>
            <MetaData>
             <entry key="WinSubProjectDisplayName" val=""/>
            </MetaData>
           </AMFile>
           <AMFile id="3922" start="1651" duration="2" scalar="1/1" mediaStart="2164/1" mediaDuration="2/1" trackNumber="0" src="22" channelNumber="0" >
            <Parameters>
             <InterpolatingParam id="3923" interp="linr"  time="0/1" value="1" leadInLength="0/1"  name="volume"/>
             <Parameter id="3924"  name="captions"/>
            </Parameters>
            <Attributes>
             <Attribute id="3925" value="" name="ident"/>
             <Attribute id="3926" value="44100" name="sampleRate"/>
             <Attribute id="3927" value="16" name="bitDepth"/>
             <Attribute id="3928" value="1" name="gain"/>
             <Attribute id="3929" value="0" name="mixToMono"/>
            </Attributes>
            <MetaData>
             <entry key="WinSubProjectDisplayName" val=""/>
            </MetaData>
           </AMFile>
           <AMFile id="3930" start="1653" duration="12072" scalar="1/1" mediaStart="2496/1" mediaDuration="12072/1" trackNumber="0" src="22" channelNumber="0" >
            <Parameters>
             <InterpolatingParam id="3931" interp="linr"  time="0/1" value="1" leadInLength="0/1"  name="volume"/>
             <Parameter id="3932"  name="captions"/>
            </Parameters>
            <Attributes>
             <Attribute id="3933" value="" name="ident"/>
             <Attribute id="3934" value="44100" name="sampleRate"/>
             <Attribute id="3935" value="16" name="bitDepth"/>
             <Attribute id="3936" value="1" name="gain"/>
             <Attribute id="3937" value="0" name="mixToMono"/>
            </Attributes>
            <MetaData>
             <entry key="WinSubProjectDisplayName" val=""/>
            </MetaData>
           </AMFile>
          </Medias>
         </GenericTrack>
        </StitchedMedia>
        <AMFile id="3938" start="724" duration="93" scalar="1/1" mediaStart="35/1" mediaDuration="93/1" trackNumber="0" src="26" channelNumber="0" >
         <Parameters>
          <InterpolatingParam id="3939" interp="linr"  name="volume">
           <Keyframes>
           <Keyframe id="3940"  time="0/1" value="1.3133640552995391" leadInLength="0/1"  />
           <Keyframe id="3941"  time="35/1" value="0.49627791563275392" leadInLength="0/1"  />
           <Keyframe id="3942"  time="50/1" value="0.81885856079404462" leadInLength="0/1"  />
           <Keyframe id="3943"  time="111/1" value="1.3133640552995391" leadInLength="0/1"  />
           </Keyframes>
          </InterpolatingParam>
          <Parameter id="3944"  name="captions"/>
         </Parameters>
         <Effects>
          <GenericEffect id="3945" name = "WinCompression" >
           <Parameters>
           <InterpolatingParam id="3946" interp="linr"  time="0/1" value="0" leadInLength="0/1"   name="attack"/>
           <InterpolatingParam id="3947" interp="linr"  time="0/1" value="9" leadInLength="0/1"   name="gain"/>
           <Parameter id="3948"   name="preset">
            <Keyframes>
            <Keyframe id="3949"  time="0/1" value="1" leadInLength="0/1"  />
            </Keyframes>
           </Parameter>
           <InterpolatingParam id="3950" interp="linr"  time="0/1" value="10" leadInLength="0/1"   name="ratio"/>
           <InterpolatingParam id="3951" interp="linr"  time="0/1" value="3500" leadInLength="0/1"   name="release"/>
           <InterpolatingParam id="3952" interp="linr"  time="0/1" value="-20" leadInLength="0/1"   name="threshold"/>
           </Parameters>
          </GenericEffect>
          <GenericEffect id="3953" name = "NoiseReduction" >
           <Parameters>
           <InterpolatingParam id="3954" interp="linr"  time="0/1" value="20" leadInLength="0/1"   name="denoiserAmount"/>
           <InterpolatingParam id="3955" interp="linr"  time="0/1" value="0" leadInLength="0/1"   name="denoiserThreshold"/>
           <Parameter id="3956"   name="noiseProfile">
            <Keyframes>
            <Keyframe id="3957"  time="0/1" value="FBAAAAIAAABErAAAAQIAAPWfkML/y4XCqbyHwopWi8KPBorCCHyMwi5XksKsBpXCflqawihkn8L+&#xD;&#xa;AqLCC+mjwqkFo8KyLqXC5vylwsoPpcL/3KTCismowl5Fq8I2S6nChAOrwmSirsKVCK/CRlqrwmBt&#xD;&#xa;qsKcE7TC4m27whxCu8IoIrvCvRC6wiIhu8IYxbzCqpK7wtKSu8ITA7vCYI65woCRucLqz7nCIj25&#xD;&#xa;wkrHu8Kanr3CTiq9woz/vcJ2JL7CXvm/wp4ewcJ+scLCDATCwh+pwMKD1MHCzBXCwmStw8L/C8TC&#xD;&#xa;YuXCwkgswsKmKMPCSO3BwkDUwsJDXcLCGBXCwkDEwsLeUMHC4NfDwq50w8LeqsHCqkzDwnxhw8Lh&#xD;&#xa;nMPCIMDDwlpQwsJ/zsLCdrPDwgeBw8JGrMPCHQzDwkDow8Im5cTCD9nDwr6zxMJd9cXCZkbGwrkq&#xD;&#xa;xsJQB8fC9sbHwiK9ycLEdcjCnEjHwlQ5xsKcfcbCwNvGwmLZxsJ9t8fCYF/HwrIXx8Ik28fCHAjH&#xD;&#xa;wmm0xsK9oMfCFXLIwpJ6ycI66cnCk3PIwh9xyMIrncbC0DTHwq0WyMLG8cfCujTJwgN4ycJiFcjC&#xD;&#xa;2pjGwvLRxcLHaMnCQujKwkgiysIY+8nCBY/Jwgl7ycLfrcjCmHjHwnxcyMLJMcrCHCXKwgv9ycLN&#xD;&#xa;l8rC2EPJwoL3yMIRncnCEqTIwsz6yMKME8rC+oTLwlCpzMKWq8rCYIXKwoA7ysJm2cnC3hzKwru/&#xD;&#xa;y8JMGMzCWTTMwhgyy8JfssvChsbMwlPgy8Ji4crC3DzLwtg3y8KG2MvCrtnLwiAWzMKoKsvCrOTK&#xD;&#xa;wrNvzMJeK8zCo0HLwrTWysI758vC7kHMwjZyy8Lbs8rCVrnKwpLiysINNMrCWmXKwgZnysJSDcrC&#xD;&#xa;8CTKwk4NysLNzsnC5iDKwpKjy8JOA8vCfjvKwhy9ysLhTMvClBDKwosXysJ+F8vC7IzLwvjXysJu&#xD;&#xa;QsvClBvLwp7ayMJwZcrCTDvKwv+ZycIjIMjCoSjJwmAcy8KTF8vCVl3JwqAyycI4h8nClnjJwg7a&#xD;&#xa;y8LSr8vC/JDLwopSy8IbxMrCFLzMwrCPy8KYuMrCyOTKwrBTy8LeYsvCV8TLwsDkysIy9srCJIHI&#xD;&#xa;wnilx8JUrsjC0ojLwoGmy8KUg8vCXrPKwotiy8I4ZczCCMbLwhi6zML3OM3CyPvMwhT+y8Jt7svC&#xD;&#xa;nDnMwggjysKuTsnCXBfKwuGnysKqHszCqf3NwlLCysKy58nCFPbKwi4WzMIU5MrC3q3IwiRxysII&#xD;&#xa;LczCosPMwgwuzMLCnsrCZozKwvRmysK0+srCaLPJwrpmysIZlMvCWrLLwhZGy8Ki0srCTKvLwhDu&#xD;&#xa;y8Lu2MvCQvLLwl5GzMKAe8vCvKbLwhgszMJ9lMvCanjLwpZjzcJwt8zCYInLwp5Yy8LYLsvChtPK&#xD;&#xa;wqYKy8LZvcvCvC7LwoqOy8IIzMvC0t7KwsI2y8LT9srCjcvJwga+ysJgiMvCwc/Lwho7zMKq4czC&#xD;&#xa;eg7Nwv7HzcKy8szCPPTMwhCazMJ+QczCw9DMwgXqzcLSPM3CgK3Mwi22zsJiGs7CVoTMwsYDzcKM&#xD;&#xa;n83C0MzNwqYVzsLDk8/CxqnPwjDdzsJ6bc/CNjTOwlC8zsJY3c7Ch0HNwkINzsKSr8/CbovOwl4y&#xD;&#xa;zsLbPs7COq3NwhYUz8K4us7CQILNwqhJzsIKYs7CbM/NwqruzcJm/8/CqnfPwvC0zcLFBM7ChXPO&#xD;&#xa;whSQzcIets7C0EPOwhCozcJB9s3CWS7QwgSXz8JOnc3CJJTOwn6KzsJNmc7C4pzNwlpUzsK4aNHC&#xD;&#xa;6n3PwunXzsJqCtDCOgvQwhSFzsJof87C5yHPwoa/zcJ7ic7C8l3OwlDYz8LCms7CIfPOwhDWzcKL&#xD;&#xa;MM3CS1fOwkLUzsI+4c3Cs6LOwqSS0MJOHtLCWhvRwhh+z8JWUs/CKkDOwixyzsLgNM/CUKHPwlO+&#xD;&#xa;z8JYjNDCFW/RwqUJ0sLi1tTCIjrbwkib4cLR3+PCBBHkwrJZ5cJjFuXCDJzkwkg65MK0C+TCeOrj&#xD;&#xa;wlwU5MLKYeTCdG7jwtSG4sImUuPCK+riwg6Q4sIPieTCyhbkwi3K4sLdo+LCPlniwj4E48IgROTC&#xD;&#xa;HKbjwiM34sLYuePCllnkwsxQ48IA+OPCtmjjwvjS48K1z+TC1Kfjwq9i48LOruPC1EPjwq/k4sLy&#xD;&#xa;1OPCbHflwgrk48INhuLC4JPiwukQ4sLw/uLCoK/jwsIc48IqOOLCKWziwttw48JemePCRr3jwift&#xD;&#xa;48J5K+PCco3iwkip4cK0MOTCw3flwvpB48LytuLCULfiwgSg48L/H+PC6ZbkwqQE5MLvB+PCmAvj&#xD;&#xa;wgaY48IVeuPC6GDkwjiY5MKa9OHCDwPhwply4sLU8uHCvmvhwtYH4cIxBuPCvKXjwvpN48L0XOLC&#xD;&#xa;rJzhwhD04MLytOHCW6Tjwr6l4sKE4OHC3g/jwvu848L3OOXCQY/nwmHr58J9RefCqIfmwsqO58Jr&#xD;&#xa;UOjCLurpwowB6cIl/ubCUp3nws4Q6MIcX+nCHVrpwgis5sJ8QubCMLTlwjZS5cKmieXCAqvlwsLg&#xD;&#xa;5MKzc+TCAlblwgEF5sLHlefCbkbnwuyq5cIRWuXCyeTlwmY35sKppuXCxgrmwuYv5sLtP+fCBLfn&#xD;&#xa;wnHm5sIgF+fCZP3mwuJ65sLwBOfC+MTmwv5J5sLQguTCPnHkwtCD5cIlx+bCffbnwjsD5sLdHObC&#xD;&#xa;DSDmwvL55cLh1uXCm4TzwvWfkML/y4XCqbyHwopWi8KPBorCCHyMwi5XksKsBpXCflqawihkn8L+&#xD;&#xa;AqLCC+mjwqkFo8KyLqXC5vylwsoPpcL/3KTCismowl5Fq8I2S6nChAOrwmSirsKVCK/CRlqrwmBt&#xD;&#xa;qsKcE7TC4m27whxCu8IoIrvCvRC6wiIhu8IYxbzCqpK7wtKSu8ITA7vCYI65woCRucLqz7nCIj25&#xD;&#xa;wkrHu8Kanr3CTiq9woz/vcJ2JL7CXvm/wp4ewcJ+scLCDATCwh+pwMKD1MHCzBXCwmStw8L/C8TC&#xD;&#xa;YuXCwkgswsKmKMPCSO3BwkDUwsJDXcLCGBXCwkDEwsLeUMHC4NfDwq50w8LeqsHCqkzDwnxhw8Lh&#xD;&#xa;nMPCIMDDwlpQwsJ/zsLCdrPDwgeBw8JGrMPCHQzDwkDow8Im5cTCD9nDwr6zxMJd9cXCZkbGwrkq&#xD;&#xa;xsJQB8fC9sbHwiK9ycLEdcjCnEjHwlQ5xsKcfcbCwNvGwmLZxsJ9t8fCYF/HwrIXx8Ik28fCHAjH&#xD;&#xa;wmm0xsK9oMfCFXLIwpJ6ycI66cnCk3PIwh9xyMIrncbC0DTHwq0WyMLG8cfCujTJwgN4ycJiFcjC&#xD;&#xa;2pjGwvLRxcLHaMnCQujKwkgiysIY+8nCBY/Jwgl7ycLfrcjCmHjHwnxcyMLJMcrCHCXKwgv9ycLN&#xD;&#xa;l8rC2EPJwoL3yMIRncnCEqTIwsz6yMKME8rC+oTLwlCpzMKWq8rCYIXKwoA7ysJm2cnC3hzKwru/&#xD;&#xa;y8JMGMzCWTTMwhgyy8JfssvChsbMwlPgy8Ji4crC3DzLwtg3y8KG2MvCrtnLwiAWzMKoKsvCrOTK&#xD;&#xa;wrNvzMJeK8zCo0HLwrTWysI758vC7kHMwjZyy8Lbs8rCVrnKwpLiysINNMrCWmXKwgZnysJSDcrC&#xD;&#xa;8CTKwk4NysLNzsnC5iDKwpKjy8JOA8vCfjvKwhy9ysLhTMvClBDKwosXysJ+F8vC7IzLwvjXysJu&#xD;&#xa;QsvClBvLwp7ayMJwZcrCTDvKwv+ZycIjIMjCoSjJwmAcy8KTF8vCVl3JwqAyycI4h8nClnjJwg7a&#xD;&#xa;y8LSr8vC/JDLwopSy8IbxMrCFLzMwrCPy8KYuMrCyOTKwrBTy8LeYsvCV8TLwsDkysIy9srCJIHI&#xD;&#xa;wnilx8JUrsjC0ojLwoGmy8KUg8vCXrPKwotiy8I4ZczCCMbLwhi6zML3OM3CyPvMwhT+y8Jt7svC&#xD;&#xa;nDnMwggjysKuTsnCXBfKwuGnysKqHszCqf3NwlLCysKy58nCFPbKwi4WzMIU5MrC3q3IwiRxysII&#xD;&#xa;LczCosPMwgwuzMLCnsrCZozKwvRmysK0+srCaLPJwrpmysIZlMvCWrLLwhZGy8Ki0srCTKvLwhDu&#xD;&#xa;y8Lu2MvCQvLLwl5GzMKAe8vCvKbLwhgszMJ9lMvCanjLwpZjzcJwt8zCYInLwp5Yy8LYLsvChtPK&#xD;&#xa;wqYKy8LZvcvCvC7LwoqOy8IIzMvC0t7KwsI2y8LT9srCjcvJwga+ysJgiMvCwc/Lwho7zMKq4czC&#xD;&#xa;eg7Nwv7HzcKy8szCPPTMwhCazMJ+QczCw9DMwgXqzcLSPM3CgK3Mwi22zsJiGs7CVoTMwsYDzcKM&#xD;&#xa;n83C0MzNwqYVzsLDk8/CxqnPwjDdzsJ6bc/CNjTOwlC8zsJY3c7Ch0HNwkINzsKSr8/CbovOwl4y&#xD;&#xa;zsLbPs7COq3NwhYUz8K4us7CQILNwqhJzsIKYs7CbM/NwqruzcJm/8/CqnfPwvC0zcLFBM7ChXPO&#xD;&#xa;whSQzcIets7C0EPOwhCozcJB9s3CWS7QwgSXz8JOnc3CJJTOwn6KzsJNmc7C4pzNwlpUzsK4aNHC&#xD;&#xa;6n3PwunXzsJqCtDCOgvQwhSFzsJof87C5yHPwoa/zcJ7ic7C8l3OwlDYz8LCms7CIfPOwhDWzcKL&#xD;&#xa;MM3CS1fOwkLUzsI+4c3Cs6LOwqSS0MJOHtLCWhvRwhh+z8JWUs/CKkDOwixyzsLgNM/CUKHPwlO+&#xD;&#xa;z8JYjNDCFW/RwqUJ0sLi1tTCIjrbwkib4cLR3+PCBBHkwrJZ5cJjFuXCDJzkwkg65MK0C+TCeOrj&#xD;&#xa;wlwU5MLKYeTCdG7jwtSG4sImUuPCK+riwg6Q4sIPieTCyhbkwi3K4sLdo+LCPlniwj4E48IgROTC&#xD;&#xa;HKbjwiM34sLYuePCllnkwsxQ48IA+OPCtmjjwvjS48K1z+TC1Kfjwq9i48LOruPC1EPjwq/k4sLy&#xD;&#xa;1OPCbHflwgrk48INhuLC4JPiwukQ4sLw/uLCoK/jwsIc48IqOOLCKWziwttw48JemePCRr3jwift&#xD;&#xa;48J5K+PCco3iwkip4cK0MOTCw3flwvpB48LytuLCULfiwgSg48L/H+PC6ZbkwqQE5MLvB+PCmAvj&#xD;&#xa;wgaY48IVeuPC6GDkwjiY5MKa9OHCDwPhwply4sLU8uHCvmvhwtYH4cIxBuPCvKXjwvpN48L0XOLC&#xD;&#xa;rJzhwhD04MLytOHCW6Tjwr6l4sKE4OHC3g/jwvu848L3OOXCQY/nwmHr58J9RefCqIfmwsqO58Jr&#xD;&#xa;UOjCLurpwowB6cIl/ubCUp3nws4Q6MIcX+nCHVrpwgis5sJ8QubCMLTlwjZS5cKmieXCAqvlwsLg&#xD;&#xa;5MKzc+TCAlblwgEF5sLHlefCbkbnwuyq5cIRWuXCyeTlwmY35sKppuXCxgrmwuYv5sLtP+fCBLfn&#xD;&#xa;wnHm5sIgF+fCZP3mwuJ65sLwBOfC+MTmwv5J5sLQguTCPnHkwtCD5cIlx+bCffbnwjsD5sLdHObC&#xD;&#xa;DSDmwvL55cLh1uXCm4Tz" leadInLength="0/1"  />
            </Keyframes>
           </Parameter>
           </Parameters>
          </GenericEffect>
          <GenericEffect id="3958" name = "Declipper" >
           <Parameters>
           <InterpolatingParam id="3959" interp="linr"  time="0/1" value="-1" leadInLength="0/1"   name="sensitivity"/>
           </Parameters>
          </GenericEffect>
         </Effects>
         <Attributes>
          <Attribute id="3960" value="" name="ident"/>
          <Attribute id="3961" value="48000" name="sampleRate"/>
          <Attribute id="3962" value="16" name="bitDepth"/>
          <Attribute id="3963" value="1" name="gain"/>
          <Attribute id="3964" value="0" name="mixToMono"/>
         </Attributes>
         <MetaData>
          <entry key="WinSubProjectDisplayName" val=""/>
         </MetaData>
        </AMFile>
        <StitchedMedia id="3965" start="817" duration="46" scalar="1/1" mediaStart="1065/1" mediaDuration="46/1" minMediaStart="0/1" >
         <Transformer>
          <VectorParam id="3966"  name="translation">
           <InterpolatingParam id="3967" interp="linr"  time="0/1" value="0" leadInLength="0/1"  />
           <InterpolatingParam id="3968" interp="linr"  time="0/1" value="0" leadInLength="0/1"  />
           <InterpolatingParam id="3969" interp="linr"  time="0/1" value="0" leadInLength="0/1"  />
          </VectorParam>
          <VectorParam id="3970"  name="rotation">
           <InterpolatingParam id="3971" interp="linr"  time="0/1" value="0" leadInLength="0/1"  />
           <InterpolatingParam id="3972" interp="linr"  time="0/1" value="0" leadInLength="0/1"  />
           <InterpolatingParam id="3973" interp="linr"  time="0/1" value="0" leadInLength="0/1"  />
          </VectorParam>
          <VectorParam id="3974"  name="shear">
           <InterpolatingParam id="3975" interp="linr"  time="0/1" value="0" leadInLength="0/1"  />
           <InterpolatingParam id="3976" interp="linr"  time="0/1" value="0" leadInLength="0/1"  />
           <InterpolatingParam id="3977" interp="linr"  time="0/1" value="0" leadInLength="0/1"  />
          </VectorParam>
          <VectorParam id="3978"  name="scale">
           <InterpolatingParam id="3979" interp="linr"  time="0/1" value="1" leadInLength="0/1"  />
           <InterpolatingParam id="3980" interp="linr"  time="0/1" value="1" leadInLength="0/1"  />
           <InterpolatingParam id="3981" interp="linr"  time="0/1" value="1" leadInLength="0/1"  />
          </VectorParam>
          <VectorParam id="3982"  name="anchor">
           <InterpolatingParam id="3983" interp="linr"  time="0/1" value="0" leadInLength="0/1"  />
           <InterpolatingParam id="3984" interp="linr"  time="0/1" value="0" leadInLength="0/1"  />
           <InterpolatingParam id="3985" interp="linr"  time="0/1" value="0" leadInLength="0/1"  />
          </VectorParam>
         </Transformer>
         <Parameters>
          <InterpolatingParam id="3986" interp="linr"  time="0/1" value="1" leadInLength="0/1"  name="cursorOpacity"/>
          <InterpolatingParam id="3987" interp="linr"  time="0/1" value="1" leadInLength="0/1"  name="cursorScale"/>
          <InterpolatingParam id="3988" interp="linr"  name="volume">
           <Keyframes>
           <Keyframe id="3989"  time="0/1" value="1" leadInLength="0/1"  />
           <Keyframe id="3990"  time="250/1" value="1" leadInLength="0/1"  />
           <Keyframe id="3991"  time="251/1" value="0.99255583126550895" leadInLength="0/1"  />
           <Keyframe id="3992"  time="1065/1" value="0.8188585607940444" leadInLength="0/1"  />
           <Keyframe id="3993"  time="1079/1" value="0.99255583126550895" leadInLength="0/1"  />
           <Keyframe id="3994"  time="1888/1" value="0.99255583126550895" leadInLength="0/1"  />
           <Keyframe id="3995"  time="1889/1" value="1" leadInLength="0/1"  />
           </Keyframes>
          </InterpolatingParam>
          <Parameter id="3996"  name="captions"/>
         </Parameters>
         <Effects>
          <GenericEffect id="3997" name = "NoiseReduction" >
           <Parameters>
           <InterpolatingParam id="3998" interp="linr"  time="0/1" value="20" leadInLength="0/1"   name="denoiserAmount"/>
           <InterpolatingParam id="3999" interp="linr"  time="0/1" value="0" leadInLength="0/1"   name="denoiserThreshold"/>
           <Parameter id="4000"   name="noiseProfile">
            <Keyframes>
            <Keyframe id="4001"  time="0/1" value="FBAAAAIAAABErAAAAQIAADOmYsI/y13CPNeLwsehjcK+No/Cm+aOwlHvjcIja5HCun6XwoKemMJy&#xD;&#xa;lpPCuQeRwhgMlcJGdZvCTjScwgFMncIGh5zCGrOawuO0nMJdJZ3Cybudwo6toMIdraPCs/6jwpY0&#xD;&#xa;psLIUqjCWQmpwonmp8KcE6XCgXGlwqC+psIFHabCBoyownWvqcIkX6jCgnCpwms3qsIW0KfCM7Oj&#xD;&#xa;wnGLosJgcKnCdk6swiIgscKFrbDCtNmowrZmpcIHYqjCCg2pwqUNq8KgHq7ChEGxwhVFs8KU6LLC&#xD;&#xa;dvWzwpVHscI6NrDCMpGwwubcs8Imh7bCPKq6wj7tvMKSbr3ClsG+wq4qwMLXQr7CpAK5whxiuMJp&#xD;&#xa;v7nCwu29wloQvsIXTL3CzjDAwsDTwcL69sHC8urAwtAFwMIkSMLCpJHDwjLOw8JG8sTCmMvDwq7H&#xD;&#xa;wsLOncPC+CDDwkh6wsLU5sPCP23Fwm5Qx8KlYsTCm0XCwnhexcLsTsPCSMPDwjvJw8LMWcHC2XHD&#xD;&#xa;wjj5wsICs8TChWvEwgCywcKDdcHCFnHCwurMxMLlVsTCfrDGwmzqyMKoGsfC7ITIwtqRyMJwzcbC&#xD;&#xa;ppbEwiv5xcIXxsTCzDfCwtSExMKEjcTC8ObDwiJ9yMIQm8vCIkDGwqHyxcIyYcbCyAXIwmyBx8I4&#xD;&#xa;n8PCvyPGwuiKxMJggMfCdL3JwsMhysLi6sXCRa7Ewoykx8Jk/MXC0NfEwtK0xcJQTMTCvvvGwtqJ&#xD;&#xa;xMKmFsTCSbfGwq76x8IQ+sjCsqnIwkJdycIaT8fC0nbHwlf2xsLg/cbCtIHHwsTvxsI0KsbCsqDH&#xD;&#xa;wgLix8JGKcXCyNTDwjDwwsIb98bC6MjJwg6Zy8Kg+cvCaC3HwtIgw8KW7sXC3EHGwmcUxcL++8fC&#xD;&#xa;CWbIwsDoxsJFz8PCJkXFwiD7xcIQDsfC8ljIwrDLxMKkeMLClpHEwiqgyMJcjcjC6krGwl50w8Iy&#xD;&#xa;7sXCWv3HwkQ1xsKUwMPC2K/EwootxMJUqMTCH3LDwuojxcKil8fCjmXIwkLJxcID78TClTvGwhel&#xD;&#xa;xsIca8bC1rbCwk6+wsIQfsfCIlPHwpJExcLWhMbCDNvEwuryxMKklMXCeBDDwolhwcIiasLCQYfE&#xD;&#xa;whUfwsJx4MTCsEnIwkX0xcK+3sbCIqLHwrARx8IWtMTCGAnFwomNxMLfbcTCQIPDwjqww8L+MMTC&#xD;&#xa;mqjHwrBaxMI6YsTCxmvIwqyKycKQaMXCnx7FwkYvx8In6sjCGMzIwuvAxcL8a8XCiBjJwkvwyMKI&#xD;&#xa;qMbCTCTIwvQSy8IxEsvCVT/JwrI3w8LA8sLCCD7EwsxXxMJSjsXCfjXFwqTKxMI/gsPCDozDwtwF&#xD;&#xa;xMISn8bChHvJwlFQyMJYCsbCP4jIwtkBycLiFsrCbCrKwvyTysIWncnC+A3HwuI5x8I8/MbC0hHI&#xD;&#xa;wopJzMLmb83CFkvMwpy/y8Kn7MrCfJrJwuLDyMJKn8bCStTGwpb7ycIMo8nCcivFwsapxcJkx8bC&#xD;&#xa;ALLIwriaycJM3cfC8r/KwlSoy8I4A8vCpFHJwkRrzMIKr87CWD7MwsiJycKW9cfCUjbKwq+YycLi&#xD;&#xa;U8jCROHHwhdWycKaU8nCF7jMwmKaz8L//8zC8tjOwjxezsIUysvCzHLJwiJryMLRm8bCgLjKwsi8&#xD;&#xa;ysIhfszCPETLwqtbyMJGeMfCpRPJwnwZzMJSIs3CqhPMwmDiyMLZYsjCz13KwgwKy8LCi8jCyrTM&#xD;&#xa;wgwxzMK4ZcvC087JwkV2xsLyXsnCjIbLwhwvzcLfrM7CeITKwla3ysLK3cnC/PHFwpScxcIUQ8nC&#xD;&#xa;NJzIwrEsxsJvZcfCXSvIwlKLx8JII8nCvgzKwpnhysJSC8vC9iTKwiA/y8IadczCuDrMwuVaysLO&#xD;&#xa;r8vCXtfJwrZ6ycItucnCtonJwjyTysJkC83CL0nMwkjdyMIBucfCixrLwvSDysKGX8nCsCzMwuas&#xD;&#xa;0cIsnNPCuEvOwtr5y8LMBc7Cr+PTwsQc5MLcOfPCKOj0wjr59cJ0C/fCzg75wkwh+8LmVPnCqz72&#xD;&#xa;wnB+9cLuJvrCtEL4wkp7+MLOfffCDN3zwkaz9sLi8vjCFKr6wgIQ+cI8iPjCBpT4wvR1+MLQI/rC&#xD;&#xa;Ihn8wlQg+sIcLvjCVCz2wsI49MJQ9fbC23H3woy69sL4BfnCIOb2wjwy9cIuGvnCdmb3wj7K9MI+&#xD;&#xa;KPXCJpr2wn7C9cKQDvnCthv7woaP+cLGaPbCTr32wrpN+cIFSPjCDvX4wtD39sJY//TCKGf3wvZI&#xD;&#xa;+cK9YvfCgYf3wjIf+sLMMvfCpjz2wuA6+cII8vbCxDv1wmJG9sLka/rCPrT1wi589cLqjfbC9qP4&#xD;&#xa;wgzJ+MLelPbCGir2wlBC9sKeU/jC/nn3wsYn9sL4QPjCXBj5wopQ+MIaJvnCSB36wgjc+MIMfPfC&#xD;&#xa;W+z1wmYG+MKuxPnCCuD1wjh+9sLDrPfCOPj3wm7h+MJjMvfCxH/2wsXf98KwN/nCKOn5wrLR+sKg&#xD;&#xa;bPvCkFv5wsAu+cL2hffCySz2wmRX+MKiiPjCzFX4wvjB98Jgz/fCxPT4wobP+cL8avjC9r34wnKx&#xD;&#xa;+MK+LPnC3H34wle39cKejfbCNKP2wg5B9sK0H/rCSvz2woqE98JAqfjCBPL4wmKi+MIu2/jCMFD5&#xD;&#xa;wiCM+cKo//nCGqz7wlZN+sKUDfjC0ov4wrIU+sIVpffCP2/3woye98KktPbCTJj2wpH29cL3mvbC&#xD;&#xa;jL/4wti/+MLm3vjCQ9QEwzOmYsI/y13CPNeLwsehjcK+No/Cm+aOwlHvjcIja5HCun6XwoKemMJy&#xD;&#xa;lpPCuQeRwhgMlcJGdZvCTjScwgFMncIGh5zCGrOawuO0nMJdJZ3Cybudwo6toMIdraPCs/6jwpY0&#xD;&#xa;psLIUqjCWQmpwonmp8KcE6XCgXGlwqC+psIFHabCBoyownWvqcIkX6jCgnCpwms3qsIW0KfCM7Oj&#xD;&#xa;wnGLosJgcKnCdk6swiIgscKFrbDCtNmowrZmpcIHYqjCCg2pwqUNq8KgHq7ChEGxwhVFs8KU6LLC&#xD;&#xa;dvWzwpVHscI6NrDCMpGwwubcs8Imh7bCPKq6wj7tvMKSbr3ClsG+wq4qwMLXQr7CpAK5whxiuMJp&#xD;&#xa;v7nCwu29wloQvsIXTL3CzjDAwsDTwcL69sHC8urAwtAFwMIkSMLCpJHDwjLOw8JG8sTCmMvDwq7H&#xD;&#xa;wsLOncPC+CDDwkh6wsLU5sPCP23Fwm5Qx8KlYsTCm0XCwnhexcLsTsPCSMPDwjvJw8LMWcHC2XHD&#xD;&#xa;wjj5wsICs8TChWvEwgCywcKDdcHCFnHCwurMxMLlVsTCfrDGwmzqyMKoGsfC7ITIwtqRyMJwzcbC&#xD;&#xa;ppbEwiv5xcIXxsTCzDfCwtSExMKEjcTC8ObDwiJ9yMIQm8vCIkDGwqHyxcIyYcbCyAXIwmyBx8I4&#xD;&#xa;n8PCvyPGwuiKxMJggMfCdL3JwsMhysLi6sXCRa7Ewoykx8Jk/MXC0NfEwtK0xcJQTMTCvvvGwtqJ&#xD;&#xa;xMKmFsTCSbfGwq76x8IQ+sjCsqnIwkJdycIaT8fC0nbHwlf2xsLg/cbCtIHHwsTvxsI0KsbCsqDH&#xD;&#xa;wgLix8JGKcXCyNTDwjDwwsIb98bC6MjJwg6Zy8Kg+cvCaC3HwtIgw8KW7sXC3EHGwmcUxcL++8fC&#xD;&#xa;CWbIwsDoxsJFz8PCJkXFwiD7xcIQDsfC8ljIwrDLxMKkeMLClpHEwiqgyMJcjcjC6krGwl50w8Iy&#xD;&#xa;7sXCWv3HwkQ1xsKUwMPC2K/EwootxMJUqMTCH3LDwuojxcKil8fCjmXIwkLJxcID78TClTvGwhel&#xD;&#xa;xsIca8bC1rbCwk6+wsIQfsfCIlPHwpJExcLWhMbCDNvEwuryxMKklMXCeBDDwolhwcIiasLCQYfE&#xD;&#xa;whUfwsJx4MTCsEnIwkX0xcK+3sbCIqLHwrARx8IWtMTCGAnFwomNxMLfbcTCQIPDwjqww8L+MMTC&#xD;&#xa;mqjHwrBaxMI6YsTCxmvIwqyKycKQaMXCnx7FwkYvx8In6sjCGMzIwuvAxcL8a8XCiBjJwkvwyMKI&#xD;&#xa;qMbCTCTIwvQSy8IxEsvCVT/JwrI3w8LA8sLCCD7EwsxXxMJSjsXCfjXFwqTKxMI/gsPCDozDwtwF&#xD;&#xa;xMISn8bChHvJwlFQyMJYCsbCP4jIwtkBycLiFsrCbCrKwvyTysIWncnC+A3HwuI5x8I8/MbC0hHI&#xD;&#xa;wopJzMLmb83CFkvMwpy/y8Kn7MrCfJrJwuLDyMJKn8bCStTGwpb7ycIMo8nCcivFwsapxcJkx8bC&#xD;&#xa;ALLIwriaycJM3cfC8r/KwlSoy8I4A8vCpFHJwkRrzMIKr87CWD7MwsiJycKW9cfCUjbKwq+YycLi&#xD;&#xa;U8jCROHHwhdWycKaU8nCF7jMwmKaz8L//8zC8tjOwjxezsIUysvCzHLJwiJryMLRm8bCgLjKwsi8&#xD;&#xa;ysIhfszCPETLwqtbyMJGeMfCpRPJwnwZzMJSIs3CqhPMwmDiyMLZYsjCz13KwgwKy8LCi8jCyrTM&#xD;&#xa;wgwxzMK4ZcvC087JwkV2xsLyXsnCjIbLwhwvzcLfrM7CeITKwla3ysLK3cnC/PHFwpScxcIUQ8nC&#xD;&#xa;NJzIwrEsxsJvZcfCXSvIwlKLx8JII8nCvgzKwpnhysJSC8vC9iTKwiA/y8IadczCuDrMwuVaysLO&#xD;&#xa;r8vCXtfJwrZ6ycItucnCtonJwjyTysJkC83CL0nMwkjdyMIBucfCixrLwvSDysKGX8nCsCzMwuas&#xD;&#xa;0cIsnNPCuEvOwtr5y8LMBc7Cr+PTwsQc5MLcOfPCKOj0wjr59cJ0C/fCzg75wkwh+8LmVPnCqz72&#xD;&#xa;wnB+9cLuJvrCtEL4wkp7+MLOfffCDN3zwkaz9sLi8vjCFKr6wgIQ+cI8iPjCBpT4wvR1+MLQI/rC&#xD;&#xa;Ihn8wlQg+sIcLvjCVCz2wsI49MJQ9fbC23H3woy69sL4BfnCIOb2wjwy9cIuGvnCdmb3wj7K9MI+&#xD;&#xa;KPXCJpr2wn7C9cKQDvnCthv7woaP+cLGaPbCTr32wrpN+cIFSPjCDvX4wtD39sJY//TCKGf3wvZI&#xD;&#xa;+cK9YvfCgYf3wjIf+sLMMvfCpjz2wuA6+cII8vbCxDv1wmJG9sLka/rCPrT1wi589cLqjfbC9qP4&#xD;&#xa;wgzJ+MLelPbCGir2wlBC9sKeU/jC/nn3wsYn9sL4QPjCXBj5wopQ+MIaJvnCSB36wgjc+MIMfPfC&#xD;&#xa;W+z1wmYG+MKuxPnCCuD1wjh+9sLDrPfCOPj3wm7h+MJjMvfCxH/2wsXf98KwN/nCKOn5wrLR+sKg&#xD;&#xa;bPvCkFv5wsAu+cL2hffCySz2wmRX+MKiiPjCzFX4wvjB98Jgz/fCxPT4wobP+cL8avjC9r34wnKx&#xD;&#xa;+MK+LPnC3H34wle39cKejfbCNKP2wg5B9sK0H/rCSvz2woqE98JAqfjCBPL4wmKi+MIu2/jCMFD5&#xD;&#xa;wiCM+cKo//nCGqz7wlZN+sKUDfjC0ov4wrIU+sIVpffCP2/3woye98KktPbCTJj2wpH29cL3mvbC&#xD;&#xa;jL/4wti/+MLm3vjCQ9QE" leadInLength="0/1"  />
            </Keyframes>
           </Parameter>
           </Parameters>
          </GenericEffect>
          <GenericEffect id="4002" name = "WinCompression" >
           <Parameters>
           <InterpolatingParam id="4003" interp="linr"  time="0/1" value="0" leadInLength="0/1"   name="attack"/>
           <InterpolatingParam id="4004" interp="linr"  time="0/1" value="9" leadInLength="0/1"   name="gain"/>
           <Parameter id="4005"   name="preset">
            <Keyframes>
            <Keyframe id="4006"  time="0/1" value="1" leadInLength="0/1"  />
            </Keyframes>
           </Parameter>
           <InterpolatingParam id="4007" interp="linr"  time="0/1" value="10" leadInLength="0/1"   name="ratio"/>
           <InterpolatingParam id="4008" interp="linr"  time="0/1" value="3500" leadInLength="0/1"   name="release"/>
           <InterpolatingParam id="4009" interp="linr"  time="0/1" value="-20" leadInLength="0/1"   name="threshold"/>
           </Parameters>
          </GenericEffect>
          <GenericEffect id="4010" name = "Declipper" >
           <Parameters>
           <InterpolatingParam id="4011" interp="linr"  time="0/1" value="-1" leadInLength="0/1"   name="sensitivity"/>
           </Parameters>
          </GenericEffect>
          <GenericEffect id="4012" name = "Declicker" >
           <Parameters>
           <InterpolatingParam id="4013" interp="linr"  time="0/1" value="3" leadInLength="0/1"   name="sensitivity"/>
           </Parameters>
          </GenericEffect>
         </Effects>
         <Attributes>
          <Attribute id="4014" value="" name="ident"/>
          <Attribute id="4015" value="0" name="mixToMono"/>
         </Attributes>
         <MetaData>
          <entry key="WinSubProjectDisplayName" val=""/>
         </MetaData>
         <ExtraData>
          <Entry key="ZoomPanBin">
           <ZoomPanBin id="4016"  >
            <ZoomPanKeyframes>
            </ZoomPanKeyframes>
           </ZoomPanBin>
          </Entry>
          <Entry key="CursorEffectBin">
           <CursorEffectBin id="4017"  >
            <CursorEffectKeyframes>
            </CursorEffectKeyframes>
           </CursorEffectBin>
          </Entry>
         </ExtraData>
         <GenericTrack id="4018"  >
          <Attributes>
           <Attribute id="4019" value="" name="ident"/>
           <Attribute id="4020" value="0" name="audioMuted"/>
           <Attribute id="4021" value="0" name="videoHidden"/>
          </Attributes>
          <MetaData>
           <entry key="IsLocked" val="False"/>
           <entry key="WinTrackHeight" val="0"/>
          </MetaData>
          <Medias>
           <AMFile id="4022" start="0" duration="582" scalar="1/1" mediaStart="0/1" mediaDuration="582/1" trackNumber="0" src="22" channelNumber="0" >
            <Parameters>
             <InterpolatingParam id="4023" interp="linr"  time="0/1" value="1" leadInLength="0/1"  name="volume"/>
             <Parameter id="4024"  name="captions"/>
            </Parameters>
            <Attributes>
             <Attribute id="4025" value="" name="ident"/>
             <Attribute id="4026" value="44100" name="sampleRate"/>
             <Attribute id="4027" value="16" name="bitDepth"/>
             <Attribute id="4028" value="1" name="gain"/>
             <Attribute id="4029" value="0" name="mixToMono"/>
            </Attributes>
            <MetaData>
             <entry key="WinSubProjectDisplayName" val=""/>
            </MetaData>
           </AMFile>
           <AMFile id="4030" start="582" duration="769" scalar="1/1" mediaStart="971/1" mediaDuration="769/1" trackNumber="0" src="22" channelNumber="0" >
            <Parameters>
             <InterpolatingParam id="4031" interp="linr"  time="0/1" value="1" leadInLength="0/1"  name="volume"/>
             <Parameter id="4032"  name="captions"/>
            </Parameters>
            <Attributes>
             <Attribute id="4033" value="" name="ident"/>
             <Attribute id="4034" value="44100" name="sampleRate"/>
             <Attribute id="4035" value="16" name="bitDepth"/>
             <Attribute id="4036" value="1" name="gain"/>
             <Attribute id="4037" value="0" name="mixToMono"/>
            </Attributes>
            <MetaData>
             <entry key="WinSubProjectDisplayName" val=""/>
            </MetaData>
           </AMFile>
           <AMFile id="4038" start="1351" duration="135" scalar="1/1" mediaStart="1744/1" mediaDuration="135/1" trackNumber="0" src="22" channelNumber="0" >
            <Parameters>
             <InterpolatingParam id="4039" interp="linr"  time="0/1" value="1" leadInLength="0/1"  name="volume"/>
             <Parameter id="4040"  name="captions"/>
            </Parameters>
            <Attributes>
             <Attribute id="4041" value="" name="ident"/>
             <Attribute id="4042" value="44100" name="sampleRate"/>
             <Attribute id="4043" value="16" name="bitDepth"/>
             <Attribute id="4044" value="1" name="gain"/>
             <Attribute id="4045" value="0" name="mixToMono"/>
            </Attributes>
            <MetaData>
             <entry key="WinSubProjectDisplayName" val=""/>
            </MetaData>
           </AMFile>
           <AMFile id="4046" start="1486" duration="165" scalar="1/1" mediaStart="1884/1" mediaDuration="165/1" trackNumber="0" src="22" channelNumber="0" >
            <Parameters>
             <InterpolatingParam id="4047" interp="linr"  time="0/1" value="1" leadInLength="0/1"  name="volume"/>
             <Parameter id="4048"  name="captions"/>
            </Parameters>
            <Attributes>
             <Attribute id="4049" value="" name="ident"/>
             <Attribute id="4050" value="44100" name="sampleRate"/>
             <Attribute id="4051" value="16" name="bitDepth"/>
             <Attribute id="4052" value="1" name="gain"/>
             <Attribute id="4053" value="0" name="mixToMono"/>
            </Attributes>
            <MetaData>
             <entry key="WinSubProjectDisplayName" val=""/>
            </MetaData>
           </AMFile>
           <AMFile id="4054" start="1651" duration="2" scalar="1/1" mediaStart="2164/1" mediaDuration="2/1" trackNumber="0" src="22" channelNumber="0" >
            <Parameters>
             <InterpolatingParam id="4055" interp="linr"  time="0/1" value="1" leadInLength="0/1"  name="volume"/>
             <Parameter id="4056"  name="captions"/>
            </Parameters>
            <Attributes>
             <Attribute id="4057" value="" name="ident"/>
             <Attribute id="4058" value="44100" name="sampleRate"/>
             <Attribute id="4059" value="16" name="bitDepth"/>
             <Attribute id="4060" value="1" name="gain"/>
             <Attribute id="4061" value="0" name="mixToMono"/>
            </Attributes>
            <MetaData>
             <entry key="WinSubProjectDisplayName" val=""/>
            </MetaData>
           </AMFile>
           <AMFile id="4062" start="1653" duration="12072" scalar="1/1" mediaStart="2496/1" mediaDuration="12072/1" trackNumber="0" src="22" channelNumber="0" >
            <Parameters>
             <InterpolatingParam id="4063" interp="linr"  time="0/1" value="1" leadInLength="0/1"  name="volume"/>
             <Parameter id="4064"  name="captions"/>
            </Parameters>
            <Attributes>
             <Attribute id="4065" value="" name="ident"/>
             <Attribute id="4066" value="44100" name="sampleRate"/>
             <Attribute id="4067" value="16" name="bitDepth"/>
             <Attribute id="4068" value="1" name="gain"/>
             <Attribute id="4069" value="0" name="mixToMono"/>
            </Attributes>
            <MetaData>
             <entry key="WinSubProjectDisplayName" val=""/>
            </MetaData>
           </AMFile>
          </Medias>
         </GenericTrack>
        </StitchedMedia>
        <StitchedMedia id="4070" start="863" duration="84" scalar="1/1" mediaStart="1111/1" mediaDuration="84/1" minMediaStart="0/1" >
         <Transformer>
          <VectorParam id="4071"  name="translation">
           <InterpolatingParam id="4072" interp="linr"  time="0/1" value="0" leadInLength="0/1"  />
           <InterpolatingParam id="4073" interp="linr"  time="0/1" value="0" leadInLength="0/1"  />
           <InterpolatingParam id="4074" interp="linr"  time="0/1" value="0" leadInLength="0/1"  />
          </VectorParam>
          <VectorParam id="4075"  name="rotation">
           <InterpolatingParam id="4076" interp="linr"  time="0/1" value="0" leadInLength="0/1"  />
           <InterpolatingParam id="4077" interp="linr"  time="0/1" value="0" leadInLength="0/1"  />
           <InterpolatingParam id="4078" interp="linr"  time="0/1" value="0" leadInLength="0/1"  />
          </VectorParam>
          <VectorParam id="4079"  name="shear">
           <InterpolatingParam id="4080" interp="linr"  time="0/1" value="0" leadInLength="0/1"  />
           <InterpolatingParam id="4081" interp="linr"  time="0/1" value="0" leadInLength="0/1"  />
           <InterpolatingParam id="4082" interp="linr"  time="0/1" value="0" leadInLength="0/1"  />
          </VectorParam>
          <VectorParam id="4083"  name="scale">
           <InterpolatingParam id="4084" interp="linr"  time="0/1" value="1" leadInLength="0/1"  />
           <InterpolatingParam id="4085" interp="linr"  time="0/1" value="1" leadInLength="0/1"  />
           <InterpolatingParam id="4086" interp="linr"  time="0/1" value="1" leadInLength="0/1"  />
          </VectorParam>
          <VectorParam id="4087"  name="anchor">
           <InterpolatingParam id="4088" interp="linr"  time="0/1" value="0" leadInLength="0/1"  />
           <InterpolatingParam id="4089" interp="linr"  time="0/1" value="0" leadInLength="0/1"  />
           <InterpolatingParam id="4090" interp="linr"  time="0/1" value="0" leadInLength="0/1"  />
          </VectorParam>
         </Transformer>
         <Parameters>
          <InterpolatingParam id="4091" interp="linr"  time="0/1" value="1" leadInLength="0/1"  name="cursorOpacity"/>
          <InterpolatingParam id="4092" interp="linr"  time="0/1" value="1" leadInLength="0/1"  name="cursorScale"/>
          <InterpolatingParam id="4093" interp="linr"  name="volume">
           <Keyframes>
           <Keyframe id="4094"  time="0/1" value="1" leadInLength="0/1"  />
           <Keyframe id="4095"  time="250/1" value="1" leadInLength="0/1"  />
           <Keyframe id="4096"  time="251/1" value="0.99255583126550895" leadInLength="0/1"  />
           <Keyframe id="4097"  time="1065/1" value="0.8188585607940444" leadInLength="0/1"  />
           <Keyframe id="4098"  time="1079/1" value="0.99255583126550895" leadInLength="0/1"  />
           <Keyframe id="4099"  time="1888/1" value="0.99255583126550895" leadInLength="0/1"  />
           <Keyframe id="4100"  time="1889/1" value="1" leadInLength="0/1"  />
           </Keyframes>
          </InterpolatingParam>
          <Parameter id="4101"  name="captions"/>
         </Parameters>
         <Effects>
          <GenericEffect id="4102" name = "NoiseReduction" >
           <Parameters>
           <InterpolatingParam id="4103" interp="linr"  time="0/1" value="20" leadInLength="0/1"   name="denoiserAmount"/>
           <InterpolatingParam id="4104" interp="linr"  time="0/1" value="0" leadInLength="0/1"   name="denoiserThreshold"/>
           <Parameter id="4105"   name="noiseProfile">
            <Keyframes>
            <Keyframe id="4106"  time="0/1" value="FBAAAAIAAABErAAAAQIAADOmYsI/y13CPNeLwsehjcK+No/Cm+aOwlHvjcIja5HCun6XwoKemMJy&#xD;&#xa;lpPCuQeRwhgMlcJGdZvCTjScwgFMncIGh5zCGrOawuO0nMJdJZ3Cybudwo6toMIdraPCs/6jwpY0&#xD;&#xa;psLIUqjCWQmpwonmp8KcE6XCgXGlwqC+psIFHabCBoyownWvqcIkX6jCgnCpwms3qsIW0KfCM7Oj&#xD;&#xa;wnGLosJgcKnCdk6swiIgscKFrbDCtNmowrZmpcIHYqjCCg2pwqUNq8KgHq7ChEGxwhVFs8KU6LLC&#xD;&#xa;dvWzwpVHscI6NrDCMpGwwubcs8Imh7bCPKq6wj7tvMKSbr3ClsG+wq4qwMLXQr7CpAK5whxiuMJp&#xD;&#xa;v7nCwu29wloQvsIXTL3CzjDAwsDTwcL69sHC8urAwtAFwMIkSMLCpJHDwjLOw8JG8sTCmMvDwq7H&#xD;&#xa;wsLOncPC+CDDwkh6wsLU5sPCP23Fwm5Qx8KlYsTCm0XCwnhexcLsTsPCSMPDwjvJw8LMWcHC2XHD&#xD;&#xa;wjj5wsICs8TChWvEwgCywcKDdcHCFnHCwurMxMLlVsTCfrDGwmzqyMKoGsfC7ITIwtqRyMJwzcbC&#xD;&#xa;ppbEwiv5xcIXxsTCzDfCwtSExMKEjcTC8ObDwiJ9yMIQm8vCIkDGwqHyxcIyYcbCyAXIwmyBx8I4&#xD;&#xa;n8PCvyPGwuiKxMJggMfCdL3JwsMhysLi6sXCRa7Ewoykx8Jk/MXC0NfEwtK0xcJQTMTCvvvGwtqJ&#xD;&#xa;xMKmFsTCSbfGwq76x8IQ+sjCsqnIwkJdycIaT8fC0nbHwlf2xsLg/cbCtIHHwsTvxsI0KsbCsqDH&#xD;&#xa;wgLix8JGKcXCyNTDwjDwwsIb98bC6MjJwg6Zy8Kg+cvCaC3HwtIgw8KW7sXC3EHGwmcUxcL++8fC&#xD;&#xa;CWbIwsDoxsJFz8PCJkXFwiD7xcIQDsfC8ljIwrDLxMKkeMLClpHEwiqgyMJcjcjC6krGwl50w8Iy&#xD;&#xa;7sXCWv3HwkQ1xsKUwMPC2K/EwootxMJUqMTCH3LDwuojxcKil8fCjmXIwkLJxcID78TClTvGwhel&#xD;&#xa;xsIca8bC1rbCwk6+wsIQfsfCIlPHwpJExcLWhMbCDNvEwuryxMKklMXCeBDDwolhwcIiasLCQYfE&#xD;&#xa;whUfwsJx4MTCsEnIwkX0xcK+3sbCIqLHwrARx8IWtMTCGAnFwomNxMLfbcTCQIPDwjqww8L+MMTC&#xD;&#xa;mqjHwrBaxMI6YsTCxmvIwqyKycKQaMXCnx7FwkYvx8In6sjCGMzIwuvAxcL8a8XCiBjJwkvwyMKI&#xD;&#xa;qMbCTCTIwvQSy8IxEsvCVT/JwrI3w8LA8sLCCD7EwsxXxMJSjsXCfjXFwqTKxMI/gsPCDozDwtwF&#xD;&#xa;xMISn8bChHvJwlFQyMJYCsbCP4jIwtkBycLiFsrCbCrKwvyTysIWncnC+A3HwuI5x8I8/MbC0hHI&#xD;&#xa;wopJzMLmb83CFkvMwpy/y8Kn7MrCfJrJwuLDyMJKn8bCStTGwpb7ycIMo8nCcivFwsapxcJkx8bC&#xD;&#xa;ALLIwriaycJM3cfC8r/KwlSoy8I4A8vCpFHJwkRrzMIKr87CWD7MwsiJycKW9cfCUjbKwq+YycLi&#xD;&#xa;U8jCROHHwhdWycKaU8nCF7jMwmKaz8L//8zC8tjOwjxezsIUysvCzHLJwiJryMLRm8bCgLjKwsi8&#xD;&#xa;ysIhfszCPETLwqtbyMJGeMfCpRPJwnwZzMJSIs3CqhPMwmDiyMLZYsjCz13KwgwKy8LCi8jCyrTM&#xD;&#xa;wgwxzMK4ZcvC087JwkV2xsLyXsnCjIbLwhwvzcLfrM7CeITKwla3ysLK3cnC/PHFwpScxcIUQ8nC&#xD;&#xa;NJzIwrEsxsJvZcfCXSvIwlKLx8JII8nCvgzKwpnhysJSC8vC9iTKwiA/y8IadczCuDrMwuVaysLO&#xD;&#xa;r8vCXtfJwrZ6ycItucnCtonJwjyTysJkC83CL0nMwkjdyMIBucfCixrLwvSDysKGX8nCsCzMwuas&#xD;&#xa;0cIsnNPCuEvOwtr5y8LMBc7Cr+PTwsQc5MLcOfPCKOj0wjr59cJ0C/fCzg75wkwh+8LmVPnCqz72&#xD;&#xa;wnB+9cLuJvrCtEL4wkp7+MLOfffCDN3zwkaz9sLi8vjCFKr6wgIQ+cI8iPjCBpT4wvR1+MLQI/rC&#xD;&#xa;Ihn8wlQg+sIcLvjCVCz2wsI49MJQ9fbC23H3woy69sL4BfnCIOb2wjwy9cIuGvnCdmb3wj7K9MI+&#xD;&#xa;KPXCJpr2wn7C9cKQDvnCthv7woaP+cLGaPbCTr32wrpN+cIFSPjCDvX4wtD39sJY//TCKGf3wvZI&#xD;&#xa;+cK9YvfCgYf3wjIf+sLMMvfCpjz2wuA6+cII8vbCxDv1wmJG9sLka/rCPrT1wi589cLqjfbC9qP4&#xD;&#xa;wgzJ+MLelPbCGir2wlBC9sKeU/jC/nn3wsYn9sL4QPjCXBj5wopQ+MIaJvnCSB36wgjc+MIMfPfC&#xD;&#xa;W+z1wmYG+MKuxPnCCuD1wjh+9sLDrPfCOPj3wm7h+MJjMvfCxH/2wsXf98KwN/nCKOn5wrLR+sKg&#xD;&#xa;bPvCkFv5wsAu+cL2hffCySz2wmRX+MKiiPjCzFX4wvjB98Jgz/fCxPT4wobP+cL8avjC9r34wnKx&#xD;&#xa;+MK+LPnC3H34wle39cKejfbCNKP2wg5B9sK0H/rCSvz2woqE98JAqfjCBPL4wmKi+MIu2/jCMFD5&#xD;&#xa;wiCM+cKo//nCGqz7wlZN+sKUDfjC0ov4wrIU+sIVpffCP2/3woye98KktPbCTJj2wpH29cL3mvbC&#xD;&#xa;jL/4wti/+MLm3vjCQ9QEwzOmYsI/y13CPNeLwsehjcK+No/Cm+aOwlHvjcIja5HCun6XwoKemMJy&#xD;&#xa;lpPCuQeRwhgMlcJGdZvCTjScwgFMncIGh5zCGrOawuO0nMJdJZ3Cybudwo6toMIdraPCs/6jwpY0&#xD;&#xa;psLIUqjCWQmpwonmp8KcE6XCgXGlwqC+psIFHabCBoyownWvqcIkX6jCgnCpwms3qsIW0KfCM7Oj&#xD;&#xa;wnGLosJgcKnCdk6swiIgscKFrbDCtNmowrZmpcIHYqjCCg2pwqUNq8KgHq7ChEGxwhVFs8KU6LLC&#xD;&#xa;dvWzwpVHscI6NrDCMpGwwubcs8Imh7bCPKq6wj7tvMKSbr3ClsG+wq4qwMLXQr7CpAK5whxiuMJp&#xD;&#xa;v7nCwu29wloQvsIXTL3CzjDAwsDTwcL69sHC8urAwtAFwMIkSMLCpJHDwjLOw8JG8sTCmMvDwq7H&#xD;&#xa;wsLOncPC+CDDwkh6wsLU5sPCP23Fwm5Qx8KlYsTCm0XCwnhexcLsTsPCSMPDwjvJw8LMWcHC2XHD&#xD;&#xa;wjj5wsICs8TChWvEwgCywcKDdcHCFnHCwurMxMLlVsTCfrDGwmzqyMKoGsfC7ITIwtqRyMJwzcbC&#xD;&#xa;ppbEwiv5xcIXxsTCzDfCwtSExMKEjcTC8ObDwiJ9yMIQm8vCIkDGwqHyxcIyYcbCyAXIwmyBx8I4&#xD;&#xa;n8PCvyPGwuiKxMJggMfCdL3JwsMhysLi6sXCRa7Ewoykx8Jk/MXC0NfEwtK0xcJQTMTCvvvGwtqJ&#xD;&#xa;xMKmFsTCSbfGwq76x8IQ+sjCsqnIwkJdycIaT8fC0nbHwlf2xsLg/cbCtIHHwsTvxsI0KsbCsqDH&#xD;&#xa;wgLix8JGKcXCyNTDwjDwwsIb98bC6MjJwg6Zy8Kg+cvCaC3HwtIgw8KW7sXC3EHGwmcUxcL++8fC&#xD;&#xa;CWbIwsDoxsJFz8PCJkXFwiD7xcIQDsfC8ljIwrDLxMKkeMLClpHEwiqgyMJcjcjC6krGwl50w8Iy&#xD;&#xa;7sXCWv3HwkQ1xsKUwMPC2K/EwootxMJUqMTCH3LDwuojxcKil8fCjmXIwkLJxcID78TClTvGwhel&#xD;&#xa;xsIca8bC1rbCwk6+wsIQfsfCIlPHwpJExcLWhMbCDNvEwuryxMKklMXCeBDDwolhwcIiasLCQYfE&#xD;&#xa;whUfwsJx4MTCsEnIwkX0xcK+3sbCIqLHwrARx8IWtMTCGAnFwomNxMLfbcTCQIPDwjqww8L+MMTC&#xD;&#xa;mqjHwrBaxMI6YsTCxmvIwqyKycKQaMXCnx7FwkYvx8In6sjCGMzIwuvAxcL8a8XCiBjJwkvwyMKI&#xD;&#xa;qMbCTCTIwvQSy8IxEsvCVT/JwrI3w8LA8sLCCD7EwsxXxMJSjsXCfjXFwqTKxMI/gsPCDozDwtwF&#xD;&#xa;xMISn8bChHvJwlFQyMJYCsbCP4jIwtkBycLiFsrCbCrKwvyTysIWncnC+A3HwuI5x8I8/MbC0hHI&#xD;&#xa;wopJzMLmb83CFkvMwpy/y8Kn7MrCfJrJwuLDyMJKn8bCStTGwpb7ycIMo8nCcivFwsapxcJkx8bC&#xD;&#xa;ALLIwriaycJM3cfC8r/KwlSoy8I4A8vCpFHJwkRrzMIKr87CWD7MwsiJycKW9cfCUjbKwq+YycLi&#xD;&#xa;U8jCROHHwhdWycKaU8nCF7jMwmKaz8L//8zC8tjOwjxezsIUysvCzHLJwiJryMLRm8bCgLjKwsi8&#xD;&#xa;ysIhfszCPETLwqtbyMJGeMfCpRPJwnwZzMJSIs3CqhPMwmDiyMLZYsjCz13KwgwKy8LCi8jCyrTM&#xD;&#xa;wgwxzMK4ZcvC087JwkV2xsLyXsnCjIbLwhwvzcLfrM7CeITKwla3ysLK3cnC/PHFwpScxcIUQ8nC&#xD;&#xa;NJzIwrEsxsJvZcfCXSvIwlKLx8JII8nCvgzKwpnhysJSC8vC9iTKwiA/y8IadczCuDrMwuVaysLO&#xD;&#xa;r8vCXtfJwrZ6ycItucnCtonJwjyTysJkC83CL0nMwkjdyMIBucfCixrLwvSDysKGX8nCsCzMwuas&#xD;&#xa;0cIsnNPCuEvOwtr5y8LMBc7Cr+PTwsQc5MLcOfPCKOj0wjr59cJ0C/fCzg75wkwh+8LmVPnCqz72&#xD;&#xa;wnB+9cLuJvrCtEL4wkp7+MLOfffCDN3zwkaz9sLi8vjCFKr6wgIQ+cI8iPjCBpT4wvR1+MLQI/rC&#xD;&#xa;Ihn8wlQg+sIcLvjCVCz2wsI49MJQ9fbC23H3woy69sL4BfnCIOb2wjwy9cIuGvnCdmb3wj7K9MI+&#xD;&#xa;KPXCJpr2wn7C9cKQDvnCthv7woaP+cLGaPbCTr32wrpN+cIFSPjCDvX4wtD39sJY//TCKGf3wvZI&#xD;&#xa;+cK9YvfCgYf3wjIf+sLMMvfCpjz2wuA6+cII8vbCxDv1wmJG9sLka/rCPrT1wi589cLqjfbC9qP4&#xD;&#xa;wgzJ+MLelPbCGir2wlBC9sKeU/jC/nn3wsYn9sL4QPjCXBj5wopQ+MIaJvnCSB36wgjc+MIMfPfC&#xD;&#xa;W+z1wmYG+MKuxPnCCuD1wjh+9sLDrPfCOPj3wm7h+MJjMvfCxH/2wsXf98KwN/nCKOn5wrLR+sKg&#xD;&#xa;bPvCkFv5wsAu+cL2hffCySz2wmRX+MKiiPjCzFX4wvjB98Jgz/fCxPT4wobP+cL8avjC9r34wnKx&#xD;&#xa;+MK+LPnC3H34wle39cKejfbCNKP2wg5B9sK0H/rCSvz2woqE98JAqfjCBPL4wmKi+MIu2/jCMFD5&#xD;&#xa;wiCM+cKo//nCGqz7wlZN+sKUDfjC0ov4wrIU+sIVpffCP2/3woye98KktPbCTJj2wpH29cL3mvbC&#xD;&#xa;jL/4wti/+MLm3vjCQ9QE" leadInLength="0/1"  />
            </Keyframes>
           </Parameter>
           </Parameters>
          </GenericEffect>
          <GenericEffect id="4107" name = "WinCompression" >
           <Parameters>
           <InterpolatingParam id="4108" interp="linr"  time="0/1" value="0" leadInLength="0/1"   name="attack"/>
           <InterpolatingParam id="4109" interp="linr"  time="0/1" value="9" leadInLength="0/1"   name="gain"/>
           <Parameter id="4110"   name="preset">
            <Keyframes>
            <Keyframe id="4111"  time="0/1" value="1" leadInLength="0/1"  />
            </Keyframes>
           </Parameter>
           <InterpolatingParam id="4112" interp="linr"  time="0/1" value="10" leadInLength="0/1"   name="ratio"/>
           <InterpolatingParam id="4113" interp="linr"  time="0/1" value="3500" leadInLength="0/1"   name="release"/>
           <InterpolatingParam id="4114" interp="linr"  time="0/1" value="-20" leadInLength="0/1"   name="threshold"/>
           </Parameters>
          </GenericEffect>
          <GenericEffect id="4115" name = "Declipper" >
           <Parameters>
           <InterpolatingParam id="4116" interp="linr"  time="0/1" value="-1" leadInLength="0/1"   name="sensitivity"/>
           </Parameters>
          </GenericEffect>
          <GenericEffect id="4117" name = "Declicker" >
           <Parameters>
           <InterpolatingParam id="4118" interp="linr"  time="0/1" value="3" leadInLength="0/1"   name="sensitivity"/>
           </Parameters>
          </GenericEffect>
         </Effects>
         <Attributes>
          <Attribute id="4119" value="" name="ident"/>
          <Attribute id="4120" value="0" name="mixToMono"/>
         </Attributes>
         <MetaData>
          <entry key="WinSubProjectDisplayName" val=""/>
         </MetaData>
         <ExtraData>
          <Entry key="ZoomPanBin">
           <ZoomPanBin id="4121"  >
            <ZoomPanKeyframes>
            </ZoomPanKeyframes>
           </ZoomPanBin>
          </Entry>
          <Entry key="CursorEffectBin">
           <CursorEffectBin id="4122"  >
            <CursorEffectKeyframes>
            </CursorEffectKeyframes>
           </CursorEffectBin>
          </Entry>
         </ExtraData>
         <GenericTrack id="4123"  >
          <Attributes>
           <Attribute id="4124" value="" name="ident"/>
           <Attribute id="4125" value="0" name="audioMuted"/>
           <Attribute id="4126" value="0" name="videoHidden"/>
          </Attributes>
          <MetaData>
           <entry key="IsLocked" val="False"/>
           <entry key="WinTrackHeight" val="0"/>
          </MetaData>
          <Medias>
           <AMFile id="4127" start="0" duration="582" scalar="1/1" mediaStart="0/1" mediaDuration="582/1" trackNumber="0" src="22" channelNumber="0" >
            <Parameters>
             <InterpolatingParam id="4128" interp="linr"  time="0/1" value="1" leadInLength="0/1"  name="volume"/>
             <Parameter id="4129"  name="captions"/>
            </Parameters>
            <Attributes>
             <Attribute id="4130" value="" name="ident"/>
             <Attribute id="4131" value="44100" name="sampleRate"/>
             <Attribute id="4132" value="16" name="bitDepth"/>
             <Attribute id="4133" value="1" name="gain"/>
             <Attribute id="4134" value="0" name="mixToMono"/>
            </Attributes>
            <MetaData>
             <entry key="WinSubProjectDisplayName" val=""/>
            </MetaData>
           </AMFile>
           <AMFile id="4135" start="582" duration="769" scalar="1/1" mediaStart="971/1" mediaDuration="769/1" trackNumber="0" src="22" channelNumber="0" >
            <Parameters>
             <InterpolatingParam id="4136" interp="linr"  time="0/1" value="1" leadInLength="0/1"  name="volume"/>
             <Parameter id="4137"  name="captions"/>
            </Parameters>
            <Attributes>
             <Attribute id="4138" value="" name="ident"/>
             <Attribute id="4139" value="44100" name="sampleRate"/>
             <Attribute id="4140" value="16" name="bitDepth"/>
             <Attribute id="4141" value="1" name="gain"/>
             <Attribute id="4142" value="0" name="mixToMono"/>
            </Attributes>
            <MetaData>
             <entry key="WinSubProjectDisplayName" val=""/>
            </MetaData>
           </AMFile>
           <AMFile id="4143" start="1351" duration="135" scalar="1/1" mediaStart="1744/1" mediaDuration="135/1" trackNumber="0" src="22" channelNumber="0" >
            <Parameters>
             <InterpolatingParam id="4144" interp="linr"  time="0/1" value="1" leadInLength="0/1"  name="volume"/>
             <Parameter id="4145"  name="captions"/>
            </Parameters>
            <Attributes>
             <Attribute id="4146" value="" name="ident"/>
             <Attribute id="4147" value="44100" name="sampleRate"/>
             <Attribute id="4148" value="16" name="bitDepth"/>
             <Attribute id="4149" value="1" name="gain"/>
             <Attribute id="4150" value="0" name="mixToMono"/>
            </Attributes>
            <MetaData>
             <entry key="WinSubProjectDisplayName" val=""/>
            </MetaData>
           </AMFile>
           <AMFile id="4151" start="1486" duration="165" scalar="1/1" mediaStart="1884/1" mediaDuration="165/1" trackNumber="0" src="22" channelNumber="0" >
            <Parameters>
             <InterpolatingParam id="4152" interp="linr"  time="0/1" value="1" leadInLength="0/1"  name="volume"/>
             <Parameter id="4153"  name="captions"/>
            </Parameters>
            <Attributes>
             <Attribute id="4154" value="" name="ident"/>
             <Attribute id="4155" value="44100" name="sampleRate"/>
             <Attribute id="4156" value="16" name="bitDepth"/>
             <Attribute id="4157" value="1" name="gain"/>
             <Attribute id="4158" value="0" name="mixToMono"/>
            </Attributes>
            <MetaData>
             <entry key="WinSubProjectDisplayName" val=""/>
            </MetaData>
           </AMFile>
           <AMFile id="4159" start="1651" duration="2" scalar="1/1" mediaStart="2164/1" mediaDuration="2/1" trackNumber="0" src="22" channelNumber="0" >
            <Parameters>
             <InterpolatingParam id="4160" interp="linr"  time="0/1" value="1" leadInLength="0/1"  name="volume"/>
             <Parameter id="4161"  name="captions"/>
            </Parameters>
            <Attributes>
             <Attribute id="4162" value="" name="ident"/>
             <Attribute id="4163" value="44100" name="sampleRate"/>
             <Attribute id="4164" value="16" name="bitDepth"/>
             <Attribute id="4165" value="1" name="gain"/>
             <Attribute id="4166" value="0" name="mixToMono"/>
            </Attributes>
            <MetaData>
             <entry key="WinSubProjectDisplayName" val=""/>
            </MetaData>
           </AMFile>
           <AMFile id="4167" start="1653" duration="12072" scalar="1/1" mediaStart="2496/1" mediaDuration="12072/1" trackNumber="0" src="22" channelNumber="0" >
            <Parameters>
             <InterpolatingParam id="4168" interp="linr"  time="0/1" value="1" leadInLength="0/1"  name="volume"/>
             <Parameter id="4169"  name="captions"/>
            </Parameters>
            <Attributes>
             <Attribute id="4170" value="" name="ident"/>
             <Attribute id="4171" value="44100" name="sampleRate"/>
             <Attribute id="4172" value="16" name="bitDepth"/>
             <Attribute id="4173" value="1" name="gain"/>
             <Attribute id="4174" value="0" name="mixToMono"/>
            </Attributes>
            <MetaData>
             <entry key="WinSubProjectDisplayName" val=""/>
            </MetaData>
           </AMFile>
          </Medias>
         </GenericTrack>
        </StitchedMedia>
        <StitchedMedia id="4175" start="947" duration="185" scalar="1/1" mediaStart="1198/1" mediaDuration="185/1" minMediaStart="0/1" >
         <Transformer>
          <VectorParam id="4176"  name="translation">
           <InterpolatingParam id="4177" interp="linr"  time="0/1" value="0" leadInLength="0/1"  />
           <InterpolatingParam id="4178" interp="linr"  time="0/1" value="0" leadInLength="0/1"  />
           <InterpolatingParam id="4179" interp="linr"  time="0/1" value="0" leadInLength="0/1"  />
          </VectorParam>
          <VectorParam id="4180"  name="rotation">
           <InterpolatingParam id="4181" interp="linr"  time="0/1" value="0" leadInLength="0/1"  />
           <InterpolatingParam id="4182" interp="linr"  time="0/1" value="0" leadInLength="0/1"  />
           <InterpolatingParam id="4183" interp="linr"  time="0/1" value="0" leadInLength="0/1"  />
          </VectorParam>
          <VectorParam id="4184"  name="shear">
           <InterpolatingParam id="4185" interp="linr"  time="0/1" value="0" leadInLength="0/1"  />
           <InterpolatingParam id="4186" interp="linr"  time="0/1" value="0" leadInLength="0/1"  />
           <InterpolatingParam id="4187" interp="linr"  time="0/1" value="0" leadInLength="0/1"  />
          </VectorParam>
          <VectorParam id="4188"  name="scale">
           <InterpolatingParam id="4189" interp="linr"  time="0/1" value="1" leadInLength="0/1"  />
           <InterpolatingParam id="4190" interp="linr"  time="0/1" value="1" leadInLength="0/1"  />
           <InterpolatingParam id="4191" interp="linr"  time="0/1" value="1" leadInLength="0/1"  />
          </VectorParam>
          <VectorParam id="4192"  name="anchor">
           <InterpolatingParam id="4193" interp="linr"  time="0/1" value="0" leadInLength="0/1"  />
           <InterpolatingParam id="4194" interp="linr"  time="0/1" value="0" leadInLength="0/1"  />
           <InterpolatingParam id="4195" interp="linr"  time="0/1" value="0" leadInLength="0/1"  />
          </VectorParam>
         </Transformer>
         <Parameters>
          <InterpolatingParam id="4196" interp="linr"  time="0/1" value="1" leadInLength="0/1"  name="cursorOpacity"/>
          <InterpolatingParam id="4197" interp="linr"  time="0/1" value="1" leadInLength="0/1"  name="cursorScale"/>
          <InterpolatingParam id="4198" interp="linr"  name="volume">
           <Keyframes>
           <Keyframe id="4199"  time="0/1" value="1" leadInLength="0/1"  />
           <Keyframe id="4200"  time="250/1" value="1" leadInLength="0/1"  />
           <Keyframe id="4201"  time="251/1" value="0.99255583126550895" leadInLength="0/1"  />
           <Keyframe id="4202"  time="1065/1" value="0.8188585607940444" leadInLength="0/1"  />
           <Keyframe id="4203"  time="1079/1" value="0.99255583126550895" leadInLength="0/1"  />
           <Keyframe id="4204"  time="1888/1" value="0.99255583126550895" leadInLength="0/1"  />
           <Keyframe id="4205"  time="1889/1" value="1" leadInLength="0/1"  />
           </Keyframes>
          </InterpolatingParam>
          <Parameter id="4206"  name="captions"/>
         </Parameters>
         <Effects>
          <GenericEffect id="4207" name = "NoiseReduction" >
           <Parameters>
           <InterpolatingParam id="4208" interp="linr"  time="0/1" value="20" leadInLength="0/1"   name="denoiserAmount"/>
           <InterpolatingParam id="4209" interp="linr"  time="0/1" value="0" leadInLength="0/1"   name="denoiserThreshold"/>
           <Parameter id="4210"   name="noiseProfile">
            <Keyframes>
            <Keyframe id="4211"  time="0/1" value="FBAAAAIAAABErAAAAQIAADOmYsI/y13CPNeLwsehjcK+No/Cm+aOwlHvjcIja5HCun6XwoKemMJy&#xD;&#xa;lpPCuQeRwhgMlcJGdZvCTjScwgFMncIGh5zCGrOawuO0nMJdJZ3Cybudwo6toMIdraPCs/6jwpY0&#xD;&#xa;psLIUqjCWQmpwonmp8KcE6XCgXGlwqC+psIFHabCBoyownWvqcIkX6jCgnCpwms3qsIW0KfCM7Oj&#xD;&#xa;wnGLosJgcKnCdk6swiIgscKFrbDCtNmowrZmpcIHYqjCCg2pwqUNq8KgHq7ChEGxwhVFs8KU6LLC&#xD;&#xa;dvWzwpVHscI6NrDCMpGwwubcs8Imh7bCPKq6wj7tvMKSbr3ClsG+wq4qwMLXQr7CpAK5whxiuMJp&#xD;&#xa;v7nCwu29wloQvsIXTL3CzjDAwsDTwcL69sHC8urAwtAFwMIkSMLCpJHDwjLOw8JG8sTCmMvDwq7H&#xD;&#xa;wsLOncPC+CDDwkh6wsLU5sPCP23Fwm5Qx8KlYsTCm0XCwnhexcLsTsPCSMPDwjvJw8LMWcHC2XHD&#xD;&#xa;wjj5wsICs8TChWvEwgCywcKDdcHCFnHCwurMxMLlVsTCfrDGwmzqyMKoGsfC7ITIwtqRyMJwzcbC&#xD;&#xa;ppbEwiv5xcIXxsTCzDfCwtSExMKEjcTC8ObDwiJ9yMIQm8vCIkDGwqHyxcIyYcbCyAXIwmyBx8I4&#xD;&#xa;n8PCvyPGwuiKxMJggMfCdL3JwsMhysLi6sXCRa7Ewoykx8Jk/MXC0NfEwtK0xcJQTMTCvvvGwtqJ&#xD;&#xa;xMKmFsTCSbfGwq76x8IQ+sjCsqnIwkJdycIaT8fC0nbHwlf2xsLg/cbCtIHHwsTvxsI0KsbCsqDH&#xD;&#xa;wgLix8JGKcXCyNTDwjDwwsIb98bC6MjJwg6Zy8Kg+cvCaC3HwtIgw8KW7sXC3EHGwmcUxcL++8fC&#xD;&#xa;CWbIwsDoxsJFz8PCJkXFwiD7xcIQDsfC8ljIwrDLxMKkeMLClpHEwiqgyMJcjcjC6krGwl50w8Iy&#xD;&#xa;7sXCWv3HwkQ1xsKUwMPC2K/EwootxMJUqMTCH3LDwuojxcKil8fCjmXIwkLJxcID78TClTvGwhel&#xD;&#xa;xsIca8bC1rbCwk6+wsIQfsfCIlPHwpJExcLWhMbCDNvEwuryxMKklMXCeBDDwolhwcIiasLCQYfE&#xD;&#xa;whUfwsJx4MTCsEnIwkX0xcK+3sbCIqLHwrARx8IWtMTCGAnFwomNxMLfbcTCQIPDwjqww8L+MMTC&#xD;&#xa;mqjHwrBaxMI6YsTCxmvIwqyKycKQaMXCnx7FwkYvx8In6sjCGMzIwuvAxcL8a8XCiBjJwkvwyMKI&#xD;&#xa;qMbCTCTIwvQSy8IxEsvCVT/JwrI3w8LA8sLCCD7EwsxXxMJSjsXCfjXFwqTKxMI/gsPCDozDwtwF&#xD;&#xa;xMISn8bChHvJwlFQyMJYCsbCP4jIwtkBycLiFsrCbCrKwvyTysIWncnC+A3HwuI5x8I8/MbC0hHI&#xD;&#xa;wopJzMLmb83CFkvMwpy/y8Kn7MrCfJrJwuLDyMJKn8bCStTGwpb7ycIMo8nCcivFwsapxcJkx8bC&#xD;&#xa;ALLIwriaycJM3cfC8r/KwlSoy8I4A8vCpFHJwkRrzMIKr87CWD7MwsiJycKW9cfCUjbKwq+YycLi&#xD;&#xa;U8jCROHHwhdWycKaU8nCF7jMwmKaz8L//8zC8tjOwjxezsIUysvCzHLJwiJryMLRm8bCgLjKwsi8&#xD;&#xa;ysIhfszCPETLwqtbyMJGeMfCpRPJwnwZzMJSIs3CqhPMwmDiyMLZYsjCz13KwgwKy8LCi8jCyrTM&#xD;&#xa;wgwxzMK4ZcvC087JwkV2xsLyXsnCjIbLwhwvzcLfrM7CeITKwla3ysLK3cnC/PHFwpScxcIUQ8nC&#xD;&#xa;NJzIwrEsxsJvZcfCXSvIwlKLx8JII8nCvgzKwpnhysJSC8vC9iTKwiA/y8IadczCuDrMwuVaysLO&#xD;&#xa;r8vCXtfJwrZ6ycItucnCtonJwjyTysJkC83CL0nMwkjdyMIBucfCixrLwvSDysKGX8nCsCzMwuas&#xD;&#xa;0cIsnNPCuEvOwtr5y8LMBc7Cr+PTwsQc5MLcOfPCKOj0wjr59cJ0C/fCzg75wkwh+8LmVPnCqz72&#xD;&#xa;wnB+9cLuJvrCtEL4wkp7+MLOfffCDN3zwkaz9sLi8vjCFKr6wgIQ+cI8iPjCBpT4wvR1+MLQI/rC&#xD;&#xa;Ihn8wlQg+sIcLvjCVCz2wsI49MJQ9fbC23H3woy69sL4BfnCIOb2wjwy9cIuGvnCdmb3wj7K9MI+&#xD;&#xa;KPXCJpr2wn7C9cKQDvnCthv7woaP+cLGaPbCTr32wrpN+cIFSPjCDvX4wtD39sJY//TCKGf3wvZI&#xD;&#xa;+cK9YvfCgYf3wjIf+sLMMvfCpjz2wuA6+cII8vbCxDv1wmJG9sLka/rCPrT1wi589cLqjfbC9qP4&#xD;&#xa;wgzJ+MLelPbCGir2wlBC9sKeU/jC/nn3wsYn9sL4QPjCXBj5wopQ+MIaJvnCSB36wgjc+MIMfPfC&#xD;&#xa;W+z1wmYG+MKuxPnCCuD1wjh+9sLDrPfCOPj3wm7h+MJjMvfCxH/2wsXf98KwN/nCKOn5wrLR+sKg&#xD;&#xa;bPvCkFv5wsAu+cL2hffCySz2wmRX+MKiiPjCzFX4wvjB98Jgz/fCxPT4wobP+cL8avjC9r34wnKx&#xD;&#xa;+MK+LPnC3H34wle39cKejfbCNKP2wg5B9sK0H/rCSvz2woqE98JAqfjCBPL4wmKi+MIu2/jCMFD5&#xD;&#xa;wiCM+cKo//nCGqz7wlZN+sKUDfjC0ov4wrIU+sIVpffCP2/3woye98KktPbCTJj2wpH29cL3mvbC&#xD;&#xa;jL/4wti/+MLm3vjCQ9QEwzOmYsI/y13CPNeLwsehjcK+No/Cm+aOwlHvjcIja5HCun6XwoKemMJy&#xD;&#xa;lpPCuQeRwhgMlcJGdZvCTjScwgFMncIGh5zCGrOawuO0nMJdJZ3Cybudwo6toMIdraPCs/6jwpY0&#xD;&#xa;psLIUqjCWQmpwonmp8KcE6XCgXGlwqC+psIFHabCBoyownWvqcIkX6jCgnCpwms3qsIW0KfCM7Oj&#xD;&#xa;wnGLosJgcKnCdk6swiIgscKFrbDCtNmowrZmpcIHYqjCCg2pwqUNq8KgHq7ChEGxwhVFs8KU6LLC&#xD;&#xa;dvWzwpVHscI6NrDCMpGwwubcs8Imh7bCPKq6wj7tvMKSbr3ClsG+wq4qwMLXQr7CpAK5whxiuMJp&#xD;&#xa;v7nCwu29wloQvsIXTL3CzjDAwsDTwcL69sHC8urAwtAFwMIkSMLCpJHDwjLOw8JG8sTCmMvDwq7H&#xD;&#xa;wsLOncPC+CDDwkh6wsLU5sPCP23Fwm5Qx8KlYsTCm0XCwnhexcLsTsPCSMPDwjvJw8LMWcHC2XHD&#xD;&#xa;wjj5wsICs8TChWvEwgCywcKDdcHCFnHCwurMxMLlVsTCfrDGwmzqyMKoGsfC7ITIwtqRyMJwzcbC&#xD;&#xa;ppbEwiv5xcIXxsTCzDfCwtSExMKEjcTC8ObDwiJ9yMIQm8vCIkDGwqHyxcIyYcbCyAXIwmyBx8I4&#xD;&#xa;n8PCvyPGwuiKxMJggMfCdL3JwsMhysLi6sXCRa7Ewoykx8Jk/MXC0NfEwtK0xcJQTMTCvvvGwtqJ&#xD;&#xa;xMKmFsTCSbfGwq76x8IQ+sjCsqnIwkJdycIaT8fC0nbHwlf2xsLg/cbCtIHHwsTvxsI0KsbCsqDH&#xD;&#xa;wgLix8JGKcXCyNTDwjDwwsIb98bC6MjJwg6Zy8Kg+cvCaC3HwtIgw8KW7sXC3EHGwmcUxcL++8fC&#xD;&#xa;CWbIwsDoxsJFz8PCJkXFwiD7xcIQDsfC8ljIwrDLxMKkeMLClpHEwiqgyMJcjcjC6krGwl50w8Iy&#xD;&#xa;7sXCWv3HwkQ1xsKUwMPC2K/EwootxMJUqMTCH3LDwuojxcKil8fCjmXIwkLJxcID78TClTvGwhel&#xD;&#xa;xsIca8bC1rbCwk6+wsIQfsfCIlPHwpJExcLWhMbCDNvEwuryxMKklMXCeBDDwolhwcIiasLCQYfE&#xD;&#xa;whUfwsJx4MTCsEnIwkX0xcK+3sbCIqLHwrARx8IWtMTCGAnFwomNxMLfbcTCQIPDwjqww8L+MMTC&#xD;&#xa;mqjHwrBaxMI6YsTCxmvIwqyKycKQaMXCnx7FwkYvx8In6sjCGMzIwuvAxcL8a8XCiBjJwkvwyMKI&#xD;&#xa;qMbCTCTIwvQSy8IxEsvCVT/JwrI3w8LA8sLCCD7EwsxXxMJSjsXCfjXFwqTKxMI/gsPCDozDwtwF&#xD;&#xa;xMISn8bChHvJwlFQyMJYCsbCP4jIwtkBycLiFsrCbCrKwvyTysIWncnC+A3HwuI5x8I8/MbC0hHI&#xD;&#xa;wopJzMLmb83CFkvMwpy/y8Kn7MrCfJrJwuLDyMJKn8bCStTGwpb7ycIMo8nCcivFwsapxcJkx8bC&#xD;&#xa;ALLIwriaycJM3cfC8r/KwlSoy8I4A8vCpFHJwkRrzMIKr87CWD7MwsiJycKW9cfCUjbKwq+YycLi&#xD;&#xa;U8jCROHHwhdWycKaU8nCF7jMwmKaz8L//8zC8tjOwjxezsIUysvCzHLJwiJryMLRm8bCgLjKwsi8&#xD;&#xa;ysIhfszCPETLwqtbyMJGeMfCpRPJwnwZzMJSIs3CqhPMwmDiyMLZYsjCz13KwgwKy8LCi8jCyrTM&#xD;&#xa;wgwxzMK4ZcvC087JwkV2xsLyXsnCjIbLwhwvzcLfrM7CeITKwla3ysLK3cnC/PHFwpScxcIUQ8nC&#xD;&#xa;NJzIwrEsxsJvZcfCXSvIwlKLx8JII8nCvgzKwpnhysJSC8vC9iTKwiA/y8IadczCuDrMwuVaysLO&#xD;&#xa;r8vCXtfJwrZ6ycItucnCtonJwjyTysJkC83CL0nMwkjdyMIBucfCixrLwvSDysKGX8nCsCzMwuas&#xD;&#xa;0cIsnNPCuEvOwtr5y8LMBc7Cr+PTwsQc5MLcOfPCKOj0wjr59cJ0C/fCzg75wkwh+8LmVPnCqz72&#xD;&#xa;wnB+9cLuJvrCtEL4wkp7+MLOfffCDN3zwkaz9sLi8vjCFKr6wgIQ+cI8iPjCBpT4wvR1+MLQI/rC&#xD;&#xa;Ihn8wlQg+sIcLvjCVCz2wsI49MJQ9fbC23H3woy69sL4BfnCIOb2wjwy9cIuGvnCdmb3wj7K9MI+&#xD;&#xa;KPXCJpr2wn7C9cKQDvnCthv7woaP+cLGaPbCTr32wrpN+cIFSPjCDvX4wtD39sJY//TCKGf3wvZI&#xD;&#xa;+cK9YvfCgYf3wjIf+sLMMvfCpjz2wuA6+cII8vbCxDv1wmJG9sLka/rCPrT1wi589cLqjfbC9qP4&#xD;&#xa;wgzJ+MLelPbCGir2wlBC9sKeU/jC/nn3wsYn9sL4QPjCXBj5wopQ+MIaJvnCSB36wgjc+MIMfPfC&#xD;&#xa;W+z1wmYG+MKuxPnCCuD1wjh+9sLDrPfCOPj3wm7h+MJjMvfCxH/2wsXf98KwN/nCKOn5wrLR+sKg&#xD;&#xa;bPvCkFv5wsAu+cL2hffCySz2wmRX+MKiiPjCzFX4wvjB98Jgz/fCxPT4wobP+cL8avjC9r34wnKx&#xD;&#xa;+MK+LPnC3H34wle39cKejfbCNKP2wg5B9sK0H/rCSvz2woqE98JAqfjCBPL4wmKi+MIu2/jCMFD5&#xD;&#xa;wiCM+cKo//nCGqz7wlZN+sKUDfjC0ov4wrIU+sIVpffCP2/3woye98KktPbCTJj2wpH29cL3mvbC&#xD;&#xa;jL/4wti/+MLm3vjCQ9QE" leadInLength="0/1"  />
            </Keyframes>
           </Parameter>
           </Parameters>
          </GenericEffect>
          <GenericEffect id="4212" name = "WinCompression" >
           <Parameters>
           <InterpolatingParam id="4213" interp="linr"  time="0/1" value="0" leadInLength="0/1"   name="attack"/>
           <InterpolatingParam id="4214" interp="linr"  time="0/1" value="9" leadInLength="0/1"   name="gain"/>
           <Parameter id="4215"   name="preset">
            <Keyframes>
            <Keyframe id="4216"  time="0/1" value="1" leadInLength="0/1"  />
            </Keyframes>
           </Parameter>
           <InterpolatingParam id="4217" interp="linr"  time="0/1" value="10" leadInLength="0/1"   name="ratio"/>
           <InterpolatingParam id="4218" interp="linr"  time="0/1" value="3500" leadInLength="0/1"   name="release"/>
           <InterpolatingParam id="4219" interp="linr"  time="0/1" value="-20" leadInLength="0/1"   name="threshold"/>
           </Parameters>
          </GenericEffect>
          <GenericEffect id="4220" name = "Declipper" >
           <Parameters>
           <InterpolatingParam id="4221" interp="linr"  time="0/1" value="-1" leadInLength="0/1"   name="sensitivity"/>
           </Parameters>
          </GenericEffect>
          <GenericEffect id="4222" name = "Declicker" >
           <Parameters>
           <InterpolatingParam id="4223" interp="linr"  time="0/1" value="3" leadInLength="0/1"   name="sensitivity"/>
           </Parameters>
          </GenericEffect>
         </Effects>
         <Attributes>
          <Attribute id="4224" value="" name="ident"/>
          <Attribute id="4225" value="0" name="mixToMono"/>
         </Attributes>
         <MetaData>
          <entry key="WinSubProjectDisplayName" val=""/>
         </MetaData>
         <ExtraData>
          <Entry key="ZoomPanBin">
           <ZoomPanBin id="4226"  >
            <ZoomPanKeyframes>
            </ZoomPanKeyframes>
           </ZoomPanBin>
          </Entry>
          <Entry key="CursorEffectBin">
           <CursorEffectBin id="4227"  >
            <CursorEffectKeyframes>
            </CursorEffectKeyframes>
           </CursorEffectBin>
          </Entry>
         </ExtraData>
         <GenericTrack id="4228"  >
          <Attributes>
           <Attribute id="4229" value="" name="ident"/>
           <Attribute id="4230" value="0" name="audioMuted"/>
           <Attribute id="4231" value="0" name="videoHidden"/>
          </Attributes>
          <MetaData>
           <entry key="IsLocked" val="False"/>
           <entry key="WinTrackHeight" val="0"/>
          </MetaData>
          <Medias>
           <AMFile id="4232" start="0" duration="582" scalar="1/1" mediaStart="0/1" mediaDuration="582/1" trackNumber="0" src="22" channelNumber="0" >
            <Parameters>
             <InterpolatingParam id="4233" interp="linr"  time="0/1" value="1" leadInLength="0/1"  name="volume"/>
             <Parameter id="4234"  name="captions"/>
            </Parameters>
            <Attributes>
             <Attribute id="4235" value="" name="ident"/>
             <Attribute id="4236" value="44100" name="sampleRate"/>
             <Attribute id="4237" value="16" name="bitDepth"/>
             <Attribute id="4238" value="1" name="gain"/>
             <Attribute id="4239" value="0" name="mixToMono"/>
            </Attributes>
            <MetaData>
             <entry key="WinSubProjectDisplayName" val=""/>
            </MetaData>
           </AMFile>
           <AMFile id="4240" start="582" duration="769" scalar="1/1" mediaStart="971/1" mediaDuration="769/1" trackNumber="0" src="22" channelNumber="0" >
            <Parameters>
             <InterpolatingParam id="4241" interp="linr"  time="0/1" value="1" leadInLength="0/1"  name="volume"/>
             <Parameter id="4242"  name="captions"/>
            </Parameters>
            <Attributes>
             <Attribute id="4243" value="" name="ident"/>
             <Attribute id="4244" value="44100" name="sampleRate"/>
             <Attribute id="4245" value="16" name="bitDepth"/>
             <Attribute id="4246" value="1" name="gain"/>
             <Attribute id="4247" value="0" name="mixToMono"/>
            </Attributes>
            <MetaData>
             <entry key="WinSubProjectDisplayName" val=""/>
            </MetaData>
           </AMFile>
           <AMFile id="4248" start="1351" duration="135" scalar="1/1" mediaStart="1744/1" mediaDuration="135/1" trackNumber="0" src="22" channelNumber="0" >
            <Parameters>
             <InterpolatingParam id="4249" interp="linr"  time="0/1" value="1" leadInLength="0/1"  name="volume"/>
             <Parameter id="4250"  name="captions"/>
            </Parameters>
            <Attributes>
             <Attribute id="4251" value="" name="ident"/>
             <Attribute id="4252" value="44100" name="sampleRate"/>
             <Attribute id="4253" value="16" name="bitDepth"/>
             <Attribute id="4254" value="1" name="gain"/>
             <Attribute id="4255" value="0" name="mixToMono"/>
            </Attributes>
            <MetaData>
             <entry key="WinSubProjectDisplayName" val=""/>
            </MetaData>
           </AMFile>
           <AMFile id="4256" start="1486" duration="165" scalar="1/1" mediaStart="1884/1" mediaDuration="165/1" trackNumber="0" src="22" channelNumber="0" >
            <Parameters>
             <InterpolatingParam id="4257" interp="linr"  time="0/1" value="1" leadInLength="0/1"  name="volume"/>
             <Parameter id="4258"  name="captions"/>
            </Parameters>
            <Attributes>
             <Attribute id="4259" value="" name="ident"/>
             <Attribute id="4260" value="44100" name="sampleRate"/>
             <Attribute id="4261" value="16" name="bitDepth"/>
             <Attribute id="4262" value="1" name="gain"/>
             <Attribute id="4263" value="0" name="mixToMono"/>
            </Attributes>
            <MetaData>
             <entry key="WinSubProjectDisplayName" val=""/>
            </MetaData>
           </AMFile>
           <AMFile id="4264" start="1651" duration="2" scalar="1/1" mediaStart="2164/1" mediaDuration="2/1" trackNumber="0" src="22" channelNumber="0" >
            <Parameters>
             <InterpolatingParam id="4265" interp="linr"  time="0/1" value="1" leadInLength="0/1"  name="volume"/>
             <Parameter id="4266"  name="captions"/>
            </Parameters>
            <Attributes>
             <Attribute id="4267" value="" name="ident"/>
             <Attribute id="4268" value="44100" name="sampleRate"/>
             <Attribute id="4269" value="16" name="bitDepth"/>
             <Attribute id="4270" value="1" name="gain"/>
             <Attribute id="4271" value="0" name="mixToMono"/>
            </Attributes>
            <MetaData>
             <entry key="WinSubProjectDisplayName" val=""/>
            </MetaData>
           </AMFile>
           <AMFile id="4272" start="1653" duration="12072" scalar="1/1" mediaStart="2496/1" mediaDuration="12072/1" trackNumber="0" src="22" channelNumber="0" >
            <Parameters>
             <InterpolatingParam id="4273" interp="linr"  time="0/1" value="1" leadInLength="0/1"  name="volume"/>
             <Parameter id="4274"  name="captions"/>
            </Parameters>
            <Attributes>
             <Attribute id="4275" value="" name="ident"/>
             <Attribute id="4276" value="44100" name="sampleRate"/>
             <Attribute id="4277" value="16" name="bitDepth"/>
             <Attribute id="4278" value="1" name="gain"/>
             <Attribute id="4279" value="0" name="mixToMono"/>
            </Attributes>
            <MetaData>
             <entry key="WinSubProjectDisplayName" val=""/>
            </MetaData>
           </AMFile>
          </Medias>
         </GenericTrack>
        </StitchedMedia>
        <StitchedMedia id="4280" start="1136" duration="531" scalar="1/1" mediaStart="1387/1" mediaDuration="531/1" minMediaStart="0/1" >
         <Transformer>
          <VectorParam id="4281"  name="translation">
           <InterpolatingParam id="4282" interp="linr"  time="0/1" value="0" leadInLength="0/1"  />
           <InterpolatingParam id="4283" interp="linr"  time="0/1" value="0" leadInLength="0/1"  />
           <InterpolatingParam id="4284" interp="linr"  time="0/1" value="0" leadInLength="0/1"  />
          </VectorParam>
          <VectorParam id="4285"  name="rotation">
           <InterpolatingParam id="4286" interp="linr"  time="0/1" value="0" leadInLength="0/1"  />
           <InterpolatingParam id="4287" interp="linr"  time="0/1" value="0" leadInLength="0/1"  />
           <InterpolatingParam id="4288" interp="linr"  time="0/1" value="0" leadInLength="0/1"  />
          </VectorParam>
          <VectorParam id="4289"  name="shear">
           <InterpolatingParam id="4290" interp="linr"  time="0/1" value="0" leadInLength="0/1"  />
           <InterpolatingParam id="4291" interp="linr"  time="0/1" value="0" leadInLength="0/1"  />
           <InterpolatingParam id="4292" interp="linr"  time="0/1" value="0" leadInLength="0/1"  />
          </VectorParam>
          <VectorParam id="4293"  name="scale">
           <InterpolatingParam id="4294" interp="linr"  time="0/1" value="1" leadInLength="0/1"  />
           <InterpolatingParam id="4295" interp="linr"  time="0/1" value="1" leadInLength="0/1"  />
           <InterpolatingParam id="4296" interp="linr"  time="0/1" value="1" leadInLength="0/1"  />
          </VectorParam>
          <VectorParam id="4297"  name="anchor">
           <InterpolatingParam id="4298" interp="linr"  time="0/1" value="0" leadInLength="0/1"  />
           <InterpolatingParam id="4299" interp="linr"  time="0/1" value="0" leadInLength="0/1"  />
           <InterpolatingParam id="4300" interp="linr"  time="0/1" value="0" leadInLength="0/1"  />
          </VectorParam>
         </Transformer>
         <Parameters>
          <InterpolatingParam id="4301" interp="linr"  time="0/1" value="1" leadInLength="0/1"  name="cursorOpacity"/>
          <InterpolatingParam id="4302" interp="linr"  time="0/1" value="1" leadInLength="0/1"  name="cursorScale"/>
          <InterpolatingParam id="4303" interp="linr"  name="volume">
           <Keyframes>
           <Keyframe id="4304"  time="0/1" value="1" leadInLength="0/1"  />
           <Keyframe id="4305"  time="250/1" value="1" leadInLength="0/1"  />
           <Keyframe id="4306"  time="251/1" value="1.1290322580645158" leadInLength="0/1"  />
           <Keyframe id="4307"  time="1649/1" value="0.99342881480580003" leadInLength="0/1"  />
           <Keyframe id="4308"  time="1658/1" value="0.14888337468982277" leadInLength="0/1"  />
           <Keyframe id="4309"  time="1674/1" value="0.52109181141439065" leadInLength="0/1"  />
           <Keyframe id="4310"  time="1687/1" value="0.63294820099255467" leadInLength="0/1"  />
           <Keyframe id="4311"  time="1707/1" value="0.82603132754342279" leadInLength="0/1"  />
           <Keyframe id="4312"  time="1748/1" value="0.89058622828784029" leadInLength="0/1"  />
           <Keyframe id="4313"  time="1802/1" value="0.94292803970223205" leadInLength="0/1"  />
           <Keyframe id="4314"  time="1817/1" value="1.1290322580645158" leadInLength="0/1"  />
           <Keyframe id="4315"  time="1892/1" value="1.1290322580645158" leadInLength="0/1"  />
           <Keyframe id="4316"  time="1893/1" value="1" leadInLength="0/1"  />
           </Keyframes>
          </InterpolatingParam>
          <Parameter id="4317"  name="captions"/>
         </Parameters>
         <Effects>
          <GenericEffect id="4318" name = "NoiseReduction" >
           <Parameters>
           <InterpolatingParam id="4319" interp="linr"  time="0/1" value="20" leadInLength="0/1"   name="denoiserAmount"/>
           <InterpolatingParam id="4320" interp="linr"  time="0/1" value="0" leadInLength="0/1"   name="denoiserThreshold"/>
           <Parameter id="4321"   name="noiseProfile">
            <Keyframes>
            <Keyframe id="4322"  time="0/1" value="FBAAAAIAAABErAAAAQIAADOmYsI/y13CPNeLwsehjcK+No/Cm+aOwlHvjcIja5HCun6XwoKemMJy&#xD;&#xa;lpPCuQeRwhgMlcJGdZvCTjScwgFMncIGh5zCGrOawuO0nMJdJZ3Cybudwo6toMIdraPCs/6jwpY0&#xD;&#xa;psLIUqjCWQmpwonmp8KcE6XCgXGlwqC+psIFHabCBoyownWvqcIkX6jCgnCpwms3qsIW0KfCM7Oj&#xD;&#xa;wnGLosJgcKnCdk6swiIgscKFrbDCtNmowrZmpcIHYqjCCg2pwqUNq8KgHq7ChEGxwhVFs8KU6LLC&#xD;&#xa;dvWzwpVHscI6NrDCMpGwwubcs8Imh7bCPKq6wj7tvMKSbr3ClsG+wq4qwMLXQr7CpAK5whxiuMJp&#xD;&#xa;v7nCwu29wloQvsIXTL3CzjDAwsDTwcL69sHC8urAwtAFwMIkSMLCpJHDwjLOw8JG8sTCmMvDwq7H&#xD;&#xa;wsLOncPC+CDDwkh6wsLU5sPCP23Fwm5Qx8KlYsTCm0XCwnhexcLsTsPCSMPDwjvJw8LMWcHC2XHD&#xD;&#xa;wjj5wsICs8TChWvEwgCywcKDdcHCFnHCwurMxMLlVsTCfrDGwmzqyMKoGsfC7ITIwtqRyMJwzcbC&#xD;&#xa;ppbEwiv5xcIXxsTCzDfCwtSExMKEjcTC8ObDwiJ9yMIQm8vCIkDGwqHyxcIyYcbCyAXIwmyBx8I4&#xD;&#xa;n8PCvyPGwuiKxMJggMfCdL3JwsMhysLi6sXCRa7Ewoykx8Jk/MXC0NfEwtK0xcJQTMTCvvvGwtqJ&#xD;&#xa;xMKmFsTCSbfGwq76x8IQ+sjCsqnIwkJdycIaT8fC0nbHwlf2xsLg/cbCtIHHwsTvxsI0KsbCsqDH&#xD;&#xa;wgLix8JGKcXCyNTDwjDwwsIb98bC6MjJwg6Zy8Kg+cvCaC3HwtIgw8KW7sXC3EHGwmcUxcL++8fC&#xD;&#xa;CWbIwsDoxsJFz8PCJkXFwiD7xcIQDsfC8ljIwrDLxMKkeMLClpHEwiqgyMJcjcjC6krGwl50w8Iy&#xD;&#xa;7sXCWv3HwkQ1xsKUwMPC2K/EwootxMJUqMTCH3LDwuojxcKil8fCjmXIwkLJxcID78TClTvGwhel&#xD;&#xa;xsIca8bC1rbCwk6+wsIQfsfCIlPHwpJExcLWhMbCDNvEwuryxMKklMXCeBDDwolhwcIiasLCQYfE&#xD;&#xa;whUfwsJx4MTCsEnIwkX0xcK+3sbCIqLHwrARx8IWtMTCGAnFwomNxMLfbcTCQIPDwjqww8L+MMTC&#xD;&#xa;mqjHwrBaxMI6YsTCxmvIwqyKycKQaMXCnx7FwkYvx8In6sjCGMzIwuvAxcL8a8XCiBjJwkvwyMKI&#xD;&#xa;qMbCTCTIwvQSy8IxEsvCVT/JwrI3w8LA8sLCCD7EwsxXxMJSjsXCfjXFwqTKxMI/gsPCDozDwtwF&#xD;&#xa;xMISn8bChHvJwlFQyMJYCsbCP4jIwtkBycLiFsrCbCrKwvyTysIWncnC+A3HwuI5x8I8/MbC0hHI&#xD;&#xa;wopJzMLmb83CFkvMwpy/y8Kn7MrCfJrJwuLDyMJKn8bCStTGwpb7ycIMo8nCcivFwsapxcJkx8bC&#xD;&#xa;ALLIwriaycJM3cfC8r/KwlSoy8I4A8vCpFHJwkRrzMIKr87CWD7MwsiJycKW9cfCUjbKwq+YycLi&#xD;&#xa;U8jCROHHwhdWycKaU8nCF7jMwmKaz8L//8zC8tjOwjxezsIUysvCzHLJwiJryMLRm8bCgLjKwsi8&#xD;&#xa;ysIhfszCPETLwqtbyMJGeMfCpRPJwnwZzMJSIs3CqhPMwmDiyMLZYsjCz13KwgwKy8LCi8jCyrTM&#xD;&#xa;wgwxzMK4ZcvC087JwkV2xsLyXsnCjIbLwhwvzcLfrM7CeITKwla3ysLK3cnC/PHFwpScxcIUQ8nC&#xD;&#xa;NJzIwrEsxsJvZcfCXSvIwlKLx8JII8nCvgzKwpnhysJSC8vC9iTKwiA/y8IadczCuDrMwuVaysLO&#xD;&#xa;r8vCXtfJwrZ6ycItucnCtonJwjyTysJkC83CL0nMwkjdyMIBucfCixrLwvSDysKGX8nCsCzMwuas&#xD;&#xa;0cIsnNPCuEvOwtr5y8LMBc7Cr+PTwsQc5MLcOfPCKOj0wjr59cJ0C/fCzg75wkwh+8LmVPnCqz72&#xD;&#xa;wnB+9cLuJvrCtEL4wkp7+MLOfffCDN3zwkaz9sLi8vjCFKr6wgIQ+cI8iPjCBpT4wvR1+MLQI/rC&#xD;&#xa;Ihn8wlQg+sIcLvjCVCz2wsI49MJQ9fbC23H3woy69sL4BfnCIOb2wjwy9cIuGvnCdmb3wj7K9MI+&#xD;&#xa;KPXCJpr2wn7C9cKQDvnCthv7woaP+cLGaPbCTr32wrpN+cIFSPjCDvX4wtD39sJY//TCKGf3wvZI&#xD;&#xa;+cK9YvfCgYf3wjIf+sLMMvfCpjz2wuA6+cII8vbCxDv1wmJG9sLka/rCPrT1wi589cLqjfbC9qP4&#xD;&#xa;wgzJ+MLelPbCGir2wlBC9sKeU/jC/nn3wsYn9sL4QPjCXBj5wopQ+MIaJvnCSB36wgjc+MIMfPfC&#xD;&#xa;W+z1wmYG+MKuxPnCCuD1wjh+9sLDrPfCOPj3wm7h+MJjMvfCxH/2wsXf98KwN/nCKOn5wrLR+sKg&#xD;&#xa;bPvCkFv5wsAu+cL2hffCySz2wmRX+MKiiPjCzFX4wvjB98Jgz/fCxPT4wobP+cL8avjC9r34wnKx&#xD;&#xa;+MK+LPnC3H34wle39cKejfbCNKP2wg5B9sK0H/rCSvz2woqE98JAqfjCBPL4wmKi+MIu2/jCMFD5&#xD;&#xa;wiCM+cKo//nCGqz7wlZN+sKUDfjC0ov4wrIU+sIVpffCP2/3woye98KktPbCTJj2wpH29cL3mvbC&#xD;&#xa;jL/4wti/+MLm3vjCQ9QEwzOmYsI/y13CPNeLwsehjcK+No/Cm+aOwlHvjcIja5HCun6XwoKemMJy&#xD;&#xa;lpPCuQeRwhgMlcJGdZvCTjScwgFMncIGh5zCGrOawuO0nMJdJZ3Cybudwo6toMIdraPCs/6jwpY0&#xD;&#xa;psLIUqjCWQmpwonmp8KcE6XCgXGlwqC+psIFHabCBoyownWvqcIkX6jCgnCpwms3qsIW0KfCM7Oj&#xD;&#xa;wnGLosJgcKnCdk6swiIgscKFrbDCtNmowrZmpcIHYqjCCg2pwqUNq8KgHq7ChEGxwhVFs8KU6LLC&#xD;&#xa;dvWzwpVHscI6NrDCMpGwwubcs8Imh7bCPKq6wj7tvMKSbr3ClsG+wq4qwMLXQr7CpAK5whxiuMJp&#xD;&#xa;v7nCwu29wloQvsIXTL3CzjDAwsDTwcL69sHC8urAwtAFwMIkSMLCpJHDwjLOw8JG8sTCmMvDwq7H&#xD;&#xa;wsLOncPC+CDDwkh6wsLU5sPCP23Fwm5Qx8KlYsTCm0XCwnhexcLsTsPCSMPDwjvJw8LMWcHC2XHD&#xD;&#xa;wjj5wsICs8TChWvEwgCywcKDdcHCFnHCwurMxMLlVsTCfrDGwmzqyMKoGsfC7ITIwtqRyMJwzcbC&#xD;&#xa;ppbEwiv5xcIXxsTCzDfCwtSExMKEjcTC8ObDwiJ9yMIQm8vCIkDGwqHyxcIyYcbCyAXIwmyBx8I4&#xD;&#xa;n8PCvyPGwuiKxMJggMfCdL3JwsMhysLi6sXCRa7Ewoykx8Jk/MXC0NfEwtK0xcJQTMTCvvvGwtqJ&#xD;&#xa;xMKmFsTCSbfGwq76x8IQ+sjCsqnIwkJdycIaT8fC0nbHwlf2xsLg/cbCtIHHwsTvxsI0KsbCsqDH&#xD;&#xa;wgLix8JGKcXCyNTDwjDwwsIb98bC6MjJwg6Zy8Kg+cvCaC3HwtIgw8KW7sXC3EHGwmcUxcL++8fC&#xD;&#xa;CWbIwsDoxsJFz8PCJkXFwiD7xcIQDsfC8ljIwrDLxMKkeMLClpHEwiqgyMJcjcjC6krGwl50w8Iy&#xD;&#xa;7sXCWv3HwkQ1xsKUwMPC2K/EwootxMJUqMTCH3LDwuojxcKil8fCjmXIwkLJxcID78TClTvGwhel&#xD;&#xa;xsIca8bC1rbCwk6+wsIQfsfCIlPHwpJExcLWhMbCDNvEwuryxMKklMXCeBDDwolhwcIiasLCQYfE&#xD;&#xa;whUfwsJx4MTCsEnIwkX0xcK+3sbCIqLHwrARx8IWtMTCGAnFwomNxMLfbcTCQIPDwjqww8L+MMTC&#xD;&#xa;mqjHwrBaxMI6YsTCxmvIwqyKycKQaMXCnx7FwkYvx8In6sjCGMzIwuvAxcL8a8XCiBjJwkvwyMKI&#xD;&#xa;qMbCTCTIwvQSy8IxEsvCVT/JwrI3w8LA8sLCCD7EwsxXxMJSjsXCfjXFwqTKxMI/gsPCDozDwtwF&#xD;&#xa;xMISn8bChHvJwlFQyMJYCsbCP4jIwtkBycLiFsrCbCrKwvyTysIWncnC+A3HwuI5x8I8/MbC0hHI&#xD;&#xa;wopJzMLmb83CFkvMwpy/y8Kn7MrCfJrJwuLDyMJKn8bCStTGwpb7ycIMo8nCcivFwsapxcJkx8bC&#xD;&#xa;ALLIwriaycJM3cfC8r/KwlSoy8I4A8vCpFHJwkRrzMIKr87CWD7MwsiJycKW9cfCUjbKwq+YycLi&#xD;&#xa;U8jCROHHwhdWycKaU8nCF7jMwmKaz8L//8zC8tjOwjxezsIUysvCzHLJwiJryMLRm8bCgLjKwsi8&#xD;&#xa;ysIhfszCPETLwqtbyMJGeMfCpRPJwnwZzMJSIs3CqhPMwmDiyMLZYsjCz13KwgwKy8LCi8jCyrTM&#xD;&#xa;wgwxzMK4ZcvC087JwkV2xsLyXsnCjIbLwhwvzcLfrM7CeITKwla3ysLK3cnC/PHFwpScxcIUQ8nC&#xD;&#xa;NJzIwrEsxsJvZcfCXSvIwlKLx8JII8nCvgzKwpnhysJSC8vC9iTKwiA/y8IadczCuDrMwuVaysLO&#xD;&#xa;r8vCXtfJwrZ6ycItucnCtonJwjyTysJkC83CL0nMwkjdyMIBucfCixrLwvSDysKGX8nCsCzMwuas&#xD;&#xa;0cIsnNPCuEvOwtr5y8LMBc7Cr+PTwsQc5MLcOfPCKOj0wjr59cJ0C/fCzg75wkwh+8LmVPnCqz72&#xD;&#xa;wnB+9cLuJvrCtEL4wkp7+MLOfffCDN3zwkaz9sLi8vjCFKr6wgIQ+cI8iPjCBpT4wvR1+MLQI/rC&#xD;&#xa;Ihn8wlQg+sIcLvjCVCz2wsI49MJQ9fbC23H3woy69sL4BfnCIOb2wjwy9cIuGvnCdmb3wj7K9MI+&#xD;&#xa;KPXCJpr2wn7C9cKQDvnCthv7woaP+cLGaPbCTr32wrpN+cIFSPjCDvX4wtD39sJY//TCKGf3wvZI&#xD;&#xa;+cK9YvfCgYf3wjIf+sLMMvfCpjz2wuA6+cII8vbCxDv1wmJG9sLka/rCPrT1wi589cLqjfbC9qP4&#xD;&#xa;wgzJ+MLelPbCGir2wlBC9sKeU/jC/nn3wsYn9sL4QPjCXBj5wopQ+MIaJvnCSB36wgjc+MIMfPfC&#xD;&#xa;W+z1wmYG+MKuxPnCCuD1wjh+9sLDrPfCOPj3wm7h+MJjMvfCxH/2wsXf98KwN/nCKOn5wrLR+sKg&#xD;&#xa;bPvCkFv5wsAu+cL2hffCySz2wmRX+MKiiPjCzFX4wvjB98Jgz/fCxPT4wobP+cL8avjC9r34wnKx&#xD;&#xa;+MK+LPnC3H34wle39cKejfbCNKP2wg5B9sK0H/rCSvz2woqE98JAqfjCBPL4wmKi+MIu2/jCMFD5&#xD;&#xa;wiCM+cKo//nCGqz7wlZN+sKUDfjC0ov4wrIU+sIVpffCP2/3woye98KktPbCTJj2wpH29cL3mvbC&#xD;&#xa;jL/4wti/+MLm3vjCQ9QE" leadInLength="0/1"  />
            </Keyframes>
           </Parameter>
           </Parameters>
          </GenericEffect>
          <GenericEffect id="4323" name = "WinCompression" >
           <Parameters>
           <InterpolatingParam id="4324" interp="linr"  time="0/1" value="0" leadInLength="0/1"   name="attack"/>
           <InterpolatingParam id="4325" interp="linr"  time="0/1" value="9" leadInLength="0/1"   name="gain"/>
           <Parameter id="4326"   name="preset">
            <Keyframes>
            <Keyframe id="4327"  time="0/1" value="1" leadInLength="0/1"  />
            </Keyframes>
           </Parameter>
           <InterpolatingParam id="4328" interp="linr"  time="0/1" value="10" leadInLength="0/1"   name="ratio"/>
           <InterpolatingParam id="4329" interp="linr"  time="0/1" value="3500" leadInLength="0/1"   name="release"/>
           <InterpolatingParam id="4330" interp="linr"  time="0/1" value="-20" leadInLength="0/1"   name="threshold"/>
           </Parameters>
          </GenericEffect>
          <GenericEffect id="4331" name = "Declipper" >
           <Parameters>
           <InterpolatingParam id="4332" interp="linr"  time="0/1" value="-1" leadInLength="0/1"   name="sensitivity"/>
           </Parameters>
          </GenericEffect>
          <GenericEffect id="4333" name = "Declicker" >
           <Parameters>
           <InterpolatingParam id="4334" interp="linr"  time="0/1" value="3" leadInLength="0/1"   name="sensitivity"/>
           </Parameters>
          </GenericEffect>
         </Effects>
         <Attributes>
          <Attribute id="4335" value="" name="ident"/>
          <Attribute id="4336" value="0" name="mixToMono"/>
         </Attributes>
         <MetaData>
          <entry key="WinSubProjectDisplayName" val=""/>
         </MetaData>
         <ExtraData>
          <Entry key="ZoomPanBin">
           <ZoomPanBin id="4337"  >
            <ZoomPanKeyframes>
            </ZoomPanKeyframes>
           </ZoomPanBin>
          </Entry>
          <Entry key="CursorEffectBin">
           <CursorEffectBin id="4338"  >
            <CursorEffectKeyframes>
            </CursorEffectKeyframes>
           </CursorEffectBin>
          </Entry>
         </ExtraData>
         <GenericTrack id="4339"  >
          <Attributes>
           <Attribute id="4340" value="" name="ident"/>
           <Attribute id="4341" value="0" name="audioMuted"/>
           <Attribute id="4342" value="0" name="videoHidden"/>
          </Attributes>
          <MetaData>
           <entry key="IsLocked" val="False"/>
           <entry key="WinTrackHeight" val="0"/>
          </MetaData>
          <Medias>
           <AMFile id="4343" start="0" duration="582" scalar="1/1" mediaStart="0/1" mediaDuration="582/1" trackNumber="0" src="22" channelNumber="0" >
            <Parameters>
             <InterpolatingParam id="4344" interp="linr"  time="0/1" value="1" leadInLength="0/1"  name="volume"/>
             <Parameter id="4345"  name="captions"/>
            </Parameters>
            <Attributes>
             <Attribute id="4346" value="" name="ident"/>
             <Attribute id="4347" value="44100" name="sampleRate"/>
             <Attribute id="4348" value="16" name="bitDepth"/>
             <Attribute id="4349" value="1" name="gain"/>
             <Attribute id="4350" value="0" name="mixToMono"/>
            </Attributes>
            <MetaData>
             <entry key="WinSubProjectDisplayName" val=""/>
            </MetaData>
           </AMFile>
           <AMFile id="4351" start="582" duration="908" scalar="1/1" mediaStart="971/1" mediaDuration="908/1" trackNumber="0" src="22" channelNumber="0" >
            <Parameters>
             <InterpolatingParam id="4352" interp="linr"  time="0/1" value="1" leadInLength="0/1"  name="volume"/>
             <Parameter id="4353"  name="captions"/>
            </Parameters>
            <Attributes>
             <Attribute id="4354" value="" name="ident"/>
             <Attribute id="4355" value="44100" name="sampleRate"/>
             <Attribute id="4356" value="16" name="bitDepth"/>
             <Attribute id="4357" value="1" name="gain"/>
             <Attribute id="4358" value="0" name="mixToMono"/>
            </Attributes>
            <MetaData>
             <entry key="WinSubProjectDisplayName" val=""/>
            </MetaData>
           </AMFile>
           <AMFile id="4359" start="1490" duration="165" scalar="1/1" mediaStart="1884/1" mediaDuration="165/1" trackNumber="0" src="22" channelNumber="0" >
            <Parameters>
             <InterpolatingParam id="4360" interp="linr"  time="0/1" value="1" leadInLength="0/1"  name="volume"/>
             <Parameter id="4361"  name="captions"/>
            </Parameters>
            <Attributes>
             <Attribute id="4362" value="" name="ident"/>
             <Attribute id="4363" value="44100" name="sampleRate"/>
             <Attribute id="4364" value="16" name="bitDepth"/>
             <Attribute id="4365" value="1" name="gain"/>
             <Attribute id="4366" value="0" name="mixToMono"/>
            </Attributes>
            <MetaData>
             <entry key="WinSubProjectDisplayName" val=""/>
            </MetaData>
           </AMFile>
           <AMFile id="4367" start="1655" duration="2" scalar="1/1" mediaStart="2164/1" mediaDuration="2/1" trackNumber="0" src="22" channelNumber="0" >
            <Parameters>
             <InterpolatingParam id="4368" interp="linr"  time="0/1" value="1" leadInLength="0/1"  name="volume"/>
             <Parameter id="4369"  name="captions"/>
            </Parameters>
            <Attributes>
             <Attribute id="4370" value="" name="ident"/>
             <Attribute id="4371" value="44100" name="sampleRate"/>
             <Attribute id="4372" value="16" name="bitDepth"/>
             <Attribute id="4373" value="1" name="gain"/>
             <Attribute id="4374" value="0" name="mixToMono"/>
            </Attributes>
            <MetaData>
             <entry key="WinSubProjectDisplayName" val=""/>
            </MetaData>
           </AMFile>
           <AMFile id="4375" start="1657" duration="12072" scalar="1/1" mediaStart="2496/1" mediaDuration="12072/1" trackNumber="0" src="22" channelNumber="0" >
            <Parameters>
             <InterpolatingParam id="4376" interp="linr"  time="0/1" value="1" leadInLength="0/1"  name="volume"/>
             <Parameter id="4377"  name="captions"/>
            </Parameters>
            <Attributes>
             <Attribute id="4378" value="" name="ident"/>
             <Attribute id="4379" value="44100" name="sampleRate"/>
             <Attribute id="4380" value="16" name="bitDepth"/>
             <Attribute id="4381" value="1" name="gain"/>
             <Attribute id="4382" value="0" name="mixToMono"/>
            </Attributes>
            <MetaData>
             <entry key="WinSubProjectDisplayName" val=""/>
            </MetaData>
           </AMFile>
          </Medias>
         </GenericTrack>
        </StitchedMedia>
        <AMFile id="4383" start="1673" duration="200" scalar="1/1" mediaStart="2768/1" mediaDuration="200/1" trackNumber="0" src="22" channelNumber="0" >
         <Parameters>
          <InterpolatingParam id="4384" interp="linr"  name="volume">
           <Keyframes>
           <Keyframe id="4385"  time="0/1" value="1" leadInLength="0/1"  />
           <Keyframe id="4386"  time="2730/1" value="1" leadInLength="0/1"  />
           <Keyframe id="4387"  time="2731/1" value="0.99255583126550895" leadInLength="0/1"  />
           <Keyframe id="4388"  time="2968/1" value="0.99255583126550895" leadInLength="0/1"  />
           <Keyframe id="4389"  time="2969/1" value="1" leadInLength="0/1"  />
           </Keyframes>
          </InterpolatingParam>
          <Parameter id="4390"  name="captions"/>
         </Parameters>
         <Effects>
          <GenericEffect id="4391" name = "NoiseReduction" >
           <Parameters>
           <InterpolatingParam id="4392" interp="linr"  time="0/1" value="20" leadInLength="0/1"   name="denoiserAmount"/>
           <InterpolatingParam id="4393" interp="linr"  time="0/1" value="0" leadInLength="0/1"   name="denoiserThreshold"/>
           <Parameter id="4394"   name="noiseProfile">
            <Keyframes>
            <Keyframe id="4395"  time="0/1" value="FBAAAAIAAABErAAAAQIAADOmYsI/y13CPNeLwsehjcK+No/Cm+aOwlHvjcIja5HCun6XwoKemMJy&#xD;&#xa;lpPCuQeRwhgMlcJGdZvCTjScwgFMncIGh5zCGrOawuO0nMJdJZ3Cybudwo6toMIdraPCs/6jwpY0&#xD;&#xa;psLIUqjCWQmpwonmp8KcE6XCgXGlwqC+psIFHabCBoyownWvqcIkX6jCgnCpwms3qsIW0KfCM7Oj&#xD;&#xa;wnGLosJgcKnCdk6swiIgscKFrbDCtNmowrZmpcIHYqjCCg2pwqUNq8KgHq7ChEGxwhVFs8KU6LLC&#xD;&#xa;dvWzwpVHscI6NrDCMpGwwubcs8Imh7bCPKq6wj7tvMKSbr3ClsG+wq4qwMLXQr7CpAK5whxiuMJp&#xD;&#xa;v7nCwu29wloQvsIXTL3CzjDAwsDTwcL69sHC8urAwtAFwMIkSMLCpJHDwjLOw8JG8sTCmMvDwq7H&#xD;&#xa;wsLOncPC+CDDwkh6wsLU5sPCP23Fwm5Qx8KlYsTCm0XCwnhexcLsTsPCSMPDwjvJw8LMWcHC2XHD&#xD;&#xa;wjj5wsICs8TChWvEwgCywcKDdcHCFnHCwurMxMLlVsTCfrDGwmzqyMKoGsfC7ITIwtqRyMJwzcbC&#xD;&#xa;ppbEwiv5xcIXxsTCzDfCwtSExMKEjcTC8ObDwiJ9yMIQm8vCIkDGwqHyxcIyYcbCyAXIwmyBx8I4&#xD;&#xa;n8PCvyPGwuiKxMJggMfCdL3JwsMhysLi6sXCRa7Ewoykx8Jk/MXC0NfEwtK0xcJQTMTCvvvGwtqJ&#xD;&#xa;xMKmFsTCSbfGwq76x8IQ+sjCsqnIwkJdycIaT8fC0nbHwlf2xsLg/cbCtIHHwsTvxsI0KsbCsqDH&#xD;&#xa;wgLix8JGKcXCyNTDwjDwwsIb98bC6MjJwg6Zy8Kg+cvCaC3HwtIgw8KW7sXC3EHGwmcUxcL++8fC&#xD;&#xa;CWbIwsDoxsJFz8PCJkXFwiD7xcIQDsfC8ljIwrDLxMKkeMLClpHEwiqgyMJcjcjC6krGwl50w8Iy&#xD;&#xa;7sXCWv3HwkQ1xsKUwMPC2K/EwootxMJUqMTCH3LDwuojxcKil8fCjmXIwkLJxcID78TClTvGwhel&#xD;&#xa;xsIca8bC1rbCwk6+wsIQfsfCIlPHwpJExcLWhMbCDNvEwuryxMKklMXCeBDDwolhwcIiasLCQYfE&#xD;&#xa;whUfwsJx4MTCsEnIwkX0xcK+3sbCIqLHwrARx8IWtMTCGAnFwomNxMLfbcTCQIPDwjqww8L+MMTC&#xD;&#xa;mqjHwrBaxMI6YsTCxmvIwqyKycKQaMXCnx7FwkYvx8In6sjCGMzIwuvAxcL8a8XCiBjJwkvwyMKI&#xD;&#xa;qMbCTCTIwvQSy8IxEsvCVT/JwrI3w8LA8sLCCD7EwsxXxMJSjsXCfjXFwqTKxMI/gsPCDozDwtwF&#xD;&#xa;xMISn8bChHvJwlFQyMJYCsbCP4jIwtkBycLiFsrCbCrKwvyTysIWncnC+A3HwuI5x8I8/MbC0hHI&#xD;&#xa;wopJzMLmb83CFkvMwpy/y8Kn7MrCfJrJwuLDyMJKn8bCStTGwpb7ycIMo8nCcivFwsapxcJkx8bC&#xD;&#xa;ALLIwriaycJM3cfC8r/KwlSoy8I4A8vCpFHJwkRrzMIKr87CWD7MwsiJycKW9cfCUjbKwq+YycLi&#xD;&#xa;U8jCROHHwhdWycKaU8nCF7jMwmKaz8L//8zC8tjOwjxezsIUysvCzHLJwiJryMLRm8bCgLjKwsi8&#xD;&#xa;ysIhfszCPETLwqtbyMJGeMfCpRPJwnwZzMJSIs3CqhPMwmDiyMLZYsjCz13KwgwKy8LCi8jCyrTM&#xD;&#xa;wgwxzMK4ZcvC087JwkV2xsLyXsnCjIbLwhwvzcLfrM7CeITKwla3ysLK3cnC/PHFwpScxcIUQ8nC&#xD;&#xa;NJzIwrEsxsJvZcfCXSvIwlKLx8JII8nCvgzKwpnhysJSC8vC9iTKwiA/y8IadczCuDrMwuVaysLO&#xD;&#xa;r8vCXtfJwrZ6ycItucnCtonJwjyTysJkC83CL0nMwkjdyMIBucfCixrLwvSDysKGX8nCsCzMwuas&#xD;&#xa;0cIsnNPCuEvOwtr5y8LMBc7Cr+PTwsQc5MLcOfPCKOj0wjr59cJ0C/fCzg75wkwh+8LmVPnCqz72&#xD;&#xa;wnB+9cLuJvrCtEL4wkp7+MLOfffCDN3zwkaz9sLi8vjCFKr6wgIQ+cI8iPjCBpT4wvR1+MLQI/rC&#xD;&#xa;Ihn8wlQg+sIcLvjCVCz2wsI49MJQ9fbC23H3woy69sL4BfnCIOb2wjwy9cIuGvnCdmb3wj7K9MI+&#xD;&#xa;KPXCJpr2wn7C9cKQDvnCthv7woaP+cLGaPbCTr32wrpN+cIFSPjCDvX4wtD39sJY//TCKGf3wvZI&#xD;&#xa;+cK9YvfCgYf3wjIf+sLMMvfCpjz2wuA6+cII8vbCxDv1wmJG9sLka/rCPrT1wi589cLqjfbC9qP4&#xD;&#xa;wgzJ+MLelPbCGir2wlBC9sKeU/jC/nn3wsYn9sL4QPjCXBj5wopQ+MIaJvnCSB36wgjc+MIMfPfC&#xD;&#xa;W+z1wmYG+MKuxPnCCuD1wjh+9sLDrPfCOPj3wm7h+MJjMvfCxH/2wsXf98KwN/nCKOn5wrLR+sKg&#xD;&#xa;bPvCkFv5wsAu+cL2hffCySz2wmRX+MKiiPjCzFX4wvjB98Jgz/fCxPT4wobP+cL8avjC9r34wnKx&#xD;&#xa;+MK+LPnC3H34wle39cKejfbCNKP2wg5B9sK0H/rCSvz2woqE98JAqfjCBPL4wmKi+MIu2/jCMFD5&#xD;&#xa;wiCM+cKo//nCGqz7wlZN+sKUDfjC0ov4wrIU+sIVpffCP2/3woye98KktPbCTJj2wpH29cL3mvbC&#xD;&#xa;jL/4wti/+MLm3vjCQ9QEwzOmYsI/y13CPNeLwsehjcK+No/Cm+aOwlHvjcIja5HCun6XwoKemMJy&#xD;&#xa;lpPCuQeRwhgMlcJGdZvCTjScwgFMncIGh5zCGrOawuO0nMJdJZ3Cybudwo6toMIdraPCs/6jwpY0&#xD;&#xa;psLIUqjCWQmpwonmp8KcE6XCgXGlwqC+psIFHabCBoyownWvqcIkX6jCgnCpwms3qsIW0KfCM7Oj&#xD;&#xa;wnGLosJgcKnCdk6swiIgscKFrbDCtNmowrZmpcIHYqjCCg2pwqUNq8KgHq7ChEGxwhVFs8KU6LLC&#xD;&#xa;dvWzwpVHscI6NrDCMpGwwubcs8Imh7bCPKq6wj7tvMKSbr3ClsG+wq4qwMLXQr7CpAK5whxiuMJp&#xD;&#xa;v7nCwu29wloQvsIXTL3CzjDAwsDTwcL69sHC8urAwtAFwMIkSMLCpJHDwjLOw8JG8sTCmMvDwq7H&#xD;&#xa;wsLOncPC+CDDwkh6wsLU5sPCP23Fwm5Qx8KlYsTCm0XCwnhexcLsTsPCSMPDwjvJw8LMWcHC2XHD&#xD;&#xa;wjj5wsICs8TChWvEwgCywcKDdcHCFnHCwurMxMLlVsTCfrDGwmzqyMKoGsfC7ITIwtqRyMJwzcbC&#xD;&#xa;ppbEwiv5xcIXxsTCzDfCwtSExMKEjcTC8ObDwiJ9yMIQm8vCIkDGwqHyxcIyYcbCyAXIwmyBx8I4&#xD;&#xa;n8PCvyPGwuiKxMJggMfCdL3JwsMhysLi6sXCRa7Ewoykx8Jk/MXC0NfEwtK0xcJQTMTCvvvGwtqJ&#xD;&#xa;xMKmFsTCSbfGwq76x8IQ+sjCsqnIwkJdycIaT8fC0nbHwlf2xsLg/cbCtIHHwsTvxsI0KsbCsqDH&#xD;&#xa;wgLix8JGKcXCyNTDwjDwwsIb98bC6MjJwg6Zy8Kg+cvCaC3HwtIgw8KW7sXC3EHGwmcUxcL++8fC&#xD;&#xa;CWbIwsDoxsJFz8PCJkXFwiD7xcIQDsfC8ljIwrDLxMKkeMLClpHEwiqgyMJcjcjC6krGwl50w8Iy&#xD;&#xa;7sXCWv3HwkQ1xsKUwMPC2K/EwootxMJUqMTCH3LDwuojxcKil8fCjmXIwkLJxcID78TClTvGwhel&#xD;&#xa;xsIca8bC1rbCwk6+wsIQfsfCIlPHwpJExcLWhMbCDNvEwuryxMKklMXCeBDDwolhwcIiasLCQYfE&#xD;&#xa;whUfwsJx4MTCsEnIwkX0xcK+3sbCIqLHwrARx8IWtMTCGAnFwomNxMLfbcTCQIPDwjqww8L+MMTC&#xD;&#xa;mqjHwrBaxMI6YsTCxmvIwqyKycKQaMXCnx7FwkYvx8In6sjCGMzIwuvAxcL8a8XCiBjJwkvwyMKI&#xD;&#xa;qMbCTCTIwvQSy8IxEsvCVT/JwrI3w8LA8sLCCD7EwsxXxMJSjsXCfjXFwqTKxMI/gsPCDozDwtwF&#xD;&#xa;xMISn8bChHvJwlFQyMJYCsbCP4jIwtkBycLiFsrCbCrKwvyTysIWncnC+A3HwuI5x8I8/MbC0hHI&#xD;&#xa;wopJzMLmb83CFkvMwpy/y8Kn7MrCfJrJwuLDyMJKn8bCStTGwpb7ycIMo8nCcivFwsapxcJkx8bC&#xD;&#xa;ALLIwriaycJM3cfC8r/KwlSoy8I4A8vCpFHJwkRrzMIKr87CWD7MwsiJycKW9cfCUjbKwq+YycLi&#xD;&#xa;U8jCROHHwhdWycKaU8nCF7jMwmKaz8L//8zC8tjOwjxezsIUysvCzHLJwiJryMLRm8bCgLjKwsi8&#xD;&#xa;ysIhfszCPETLwqtbyMJGeMfCpRPJwnwZzMJSIs3CqhPMwmDiyMLZYsjCz13KwgwKy8LCi8jCyrTM&#xD;&#xa;wgwxzMK4ZcvC087JwkV2xsLyXsnCjIbLwhwvzcLfrM7CeITKwla3ysLK3cnC/PHFwpScxcIUQ8nC&#xD;&#xa;NJzIwrEsxsJvZcfCXSvIwlKLx8JII8nCvgzKwpnhysJSC8vC9iTKwiA/y8IadczCuDrMwuVaysLO&#xD;&#xa;r8vCXtfJwrZ6ycItucnCtonJwjyTysJkC83CL0nMwkjdyMIBucfCixrLwvSDysKGX8nCsCzMwuas&#xD;&#xa;0cIsnNPCuEvOwtr5y8LMBc7Cr+PTwsQc5MLcOfPCKOj0wjr59cJ0C/fCzg75wkwh+8LmVPnCqz72&#xD;&#xa;wnB+9cLuJvrCtEL4wkp7+MLOfffCDN3zwkaz9sLi8vjCFKr6wgIQ+cI8iPjCBpT4wvR1+MLQI/rC&#xD;&#xa;Ihn8wlQg+sIcLvjCVCz2wsI49MJQ9fbC23H3woy69sL4BfnCIOb2wjwy9cIuGvnCdmb3wj7K9MI+&#xD;&#xa;KPXCJpr2wn7C9cKQDvnCthv7woaP+cLGaPbCTr32wrpN+cIFSPjCDvX4wtD39sJY//TCKGf3wvZI&#xD;&#xa;+cK9YvfCgYf3wjIf+sLMMvfCpjz2wuA6+cII8vbCxDv1wmJG9sLka/rCPrT1wi589cLqjfbC9qP4&#xD;&#xa;wgzJ+MLelPbCGir2wlBC9sKeU/jC/nn3wsYn9sL4QPjCXBj5wopQ+MIaJvnCSB36wgjc+MIMfPfC&#xD;&#xa;W+z1wmYG+MKuxPnCCuD1wjh+9sLDrPfCOPj3wm7h+MJjMvfCxH/2wsXf98KwN/nCKOn5wrLR+sKg&#xD;&#xa;bPvCkFv5wsAu+cL2hffCySz2wmRX+MKiiPjCzFX4wvjB98Jgz/fCxPT4wobP+cL8avjC9r34wnKx&#xD;&#xa;+MK+LPnC3H34wle39cKejfbCNKP2wg5B9sK0H/rCSvz2woqE98JAqfjCBPL4wmKi+MIu2/jCMFD5&#xD;&#xa;wiCM+cKo//nCGqz7wlZN+sKUDfjC0ov4wrIU+sIVpffCP2/3woye98KktPbCTJj2wpH29cL3mvbC&#xD;&#xa;jL/4wti/+MLm3vjCQ9QE" leadInLength="0/1"  />
            </Keyframes>
           </Parameter>
           </Parameters>
          </GenericEffect>
          <GenericEffect id="4396" name = "WinCompression" >
           <Parameters>
           <InterpolatingParam id="4397" interp="linr"  time="0/1" value="0" leadInLength="0/1"   name="attack"/>
           <InterpolatingParam id="4398" interp="linr"  time="0/1" value="9" leadInLength="0/1"   name="gain"/>
           <Parameter id="4399"   name="preset">
            <Keyframes>
            <Keyframe id="4400"  time="0/1" value="1" leadInLength="0/1"  />
            </Keyframes>
           </Parameter>
           <InterpolatingParam id="4401" interp="linr"  time="0/1" value="10" leadInLength="0/1"   name="ratio"/>
           <InterpolatingParam id="4402" interp="linr"  time="0/1" value="3500" leadInLength="0/1"   name="release"/>
           <InterpolatingParam id="4403" interp="linr"  time="0/1" value="-20" leadInLength="0/1"   name="threshold"/>
           </Parameters>
          </GenericEffect>
          <GenericEffect id="4404" name = "Declipper" >
           <Parameters>
           <InterpolatingParam id="4405" interp="linr"  time="0/1" value="-1" leadInLength="0/1"   name="sensitivity"/>
           </Parameters>
          </GenericEffect>
          <GenericEffect id="4406" name = "Declicker" >
           <Parameters>
           <InterpolatingParam id="4407" interp="linr"  time="0/1" value="3" leadInLength="0/1"   name="sensitivity"/>
           </Parameters>
          </GenericEffect>
         </Effects>
         <Attributes>
          <Attribute id="4408" value="" name="ident"/>
          <Attribute id="4409" value="44100" name="sampleRate"/>
          <Attribute id="4410" value="16" name="bitDepth"/>
          <Attribute id="4411" value="1" name="gain"/>
          <Attribute id="4412" value="0" name="mixToMono"/>
         </Attributes>
         <MetaData>
          <entry key="WinSubProjectDisplayName" val=""/>
         </MetaData>
        </AMFile>
        <StitchedMedia id="4413" start="1880" duration="59" scalar="1/1" mediaStart="3302/1" mediaDuration="59/1" minMediaStart="0/1" >
         <Transformer>
          <VectorParam id="4414"  name="translation">
           <InterpolatingParam id="4415" interp="linr"  time="0/1" value="0" leadInLength="0/1"  />
           <InterpolatingParam id="4416" interp="linr"  time="0/1" value="0" leadInLength="0/1"  />
           <InterpolatingParam id="4417" interp="linr"  time="0/1" value="0" leadInLength="0/1"  />
          </VectorParam>
          <VectorParam id="4418"  name="rotation">
           <InterpolatingParam id="4419" interp="linr"  time="0/1" value="0" leadInLength="0/1"  />
           <InterpolatingParam id="4420" interp="linr"  time="0/1" value="0" leadInLength="0/1"  />
           <InterpolatingParam id="4421" interp="linr"  time="0/1" value="0" leadInLength="0/1"  />
          </VectorParam>
          <VectorParam id="4422"  name="shear">
           <InterpolatingParam id="4423" interp="linr"  time="0/1" value="0" leadInLength="0/1"  />
           <InterpolatingParam id="4424" interp="linr"  time="0/1" value="0" leadInLength="0/1"  />
           <InterpolatingParam id="4425" interp="linr"  time="0/1" value="0" leadInLength="0/1"  />
          </VectorParam>
          <VectorParam id="4426"  name="scale">
           <InterpolatingParam id="4427" interp="linr"  time="0/1" value="1" leadInLength="0/1"  />
           <InterpolatingParam id="4428" interp="linr"  time="0/1" value="1" leadInLength="0/1"  />
           <InterpolatingParam id="4429" interp="linr"  time="0/1" value="1" leadInLength="0/1"  />
          </VectorParam>
          <VectorParam id="4430"  name="anchor">
           <InterpolatingParam id="4431" interp="linr"  time="0/1" value="0" leadInLength="0/1"  />
           <InterpolatingParam id="4432" interp="linr"  time="0/1" value="0" leadInLength="0/1"  />
           <InterpolatingParam id="4433" interp="linr"  time="0/1" value="0" leadInLength="0/1"  />
          </VectorParam>
         </Transformer>
         <Parameters>
          <InterpolatingParam id="4434" interp="linr"  time="0/1" value="1" leadInLength="0/1"  name="cursorOpacity"/>
          <InterpolatingParam id="4435" interp="linr"  time="0/1" value="1" leadInLength="0/1"  name="cursorScale"/>
          <InterpolatingParam id="4436" interp="linr"  name="volume">
           <Keyframes>
           <Keyframe id="4437"  time="0/1" value="1" leadInLength="0/1"  />
           <Keyframe id="4438"  time="3301/1" value="1" leadInLength="0/1"  />
           <Keyframe id="4439"  time="3302/1" value="0.33498759305210879" leadInLength="0/1"  />
           <Keyframe id="4440"  time="3323/1" value="0.90430743780619693" leadInLength="0/1"  />
           <Keyframe id="4441"  time="3347/1" value="1.4055299539170498" leadInLength="0/1"  />
           <Keyframe id="4442"  time="13691/1" value="1.2211981566820271" leadInLength="0/1"  />
           <Keyframe id="4443"  time="13692/1" value="1" leadInLength="0/1"  />
           </Keyframes>
          </InterpolatingParam>
          <Parameter id="4444"  name="captions"/>
         </Parameters>
         <Effects>
          <GenericEffect id="4445" name = "NoiseReduction" >
           <Parameters>
           <InterpolatingParam id="4446" interp="linr"  time="0/1" value="20" leadInLength="0/1"   name="denoiserAmount"/>
           <InterpolatingParam id="4447" interp="linr"  time="0/1" value="0" leadInLength="0/1"   name="denoiserThreshold"/>
           <Parameter id="4448"   name="noiseProfile">
            <Keyframes>
            <Keyframe id="4449"  time="0/1" value="FBAAAAIAAABErAAAAQIAADOmYsI/y13CPNeLwsehjcK+No/Cm+aOwlHvjcIja5HCun6XwoKemMJy&#xD;&#xa;lpPCuQeRwhgMlcJGdZvCTjScwgFMncIGh5zCGrOawuO0nMJdJZ3Cybudwo6toMIdraPCs/6jwpY0&#xD;&#xa;psLIUqjCWQmpwonmp8KcE6XCgXGlwqC+psIFHabCBoyownWvqcIkX6jCgnCpwms3qsIW0KfCM7Oj&#xD;&#xa;wnGLosJgcKnCdk6swiIgscKFrbDCtNmowrZmpcIHYqjCCg2pwqUNq8KgHq7ChEGxwhVFs8KU6LLC&#xD;&#xa;dvWzwpVHscI6NrDCMpGwwubcs8Imh7bCPKq6wj7tvMKSbr3ClsG+wq4qwMLXQr7CpAK5whxiuMJp&#xD;&#xa;v7nCwu29wloQvsIXTL3CzjDAwsDTwcL69sHC8urAwtAFwMIkSMLCpJHDwjLOw8JG8sTCmMvDwq7H&#xD;&#xa;wsLOncPC+CDDwkh6wsLU5sPCP23Fwm5Qx8KlYsTCm0XCwnhexcLsTsPCSMPDwjvJw8LMWcHC2XHD&#xD;&#xa;wjj5wsICs8TChWvEwgCywcKDdcHCFnHCwurMxMLlVsTCfrDGwmzqyMKoGsfC7ITIwtqRyMJwzcbC&#xD;&#xa;ppbEwiv5xcIXxsTCzDfCwtSExMKEjcTC8ObDwiJ9yMIQm8vCIkDGwqHyxcIyYcbCyAXIwmyBx8I4&#xD;&#xa;n8PCvyPGwuiKxMJggMfCdL3JwsMhysLi6sXCRa7Ewoykx8Jk/MXC0NfEwtK0xcJQTMTCvvvGwtqJ&#xD;&#xa;xMKmFsTCSbfGwq76x8IQ+sjCsqnIwkJdycIaT8fC0nbHwlf2xsLg/cbCtIHHwsTvxsI0KsbCsqDH&#xD;&#xa;wgLix8JGKcXCyNTDwjDwwsIb98bC6MjJwg6Zy8Kg+cvCaC3HwtIgw8KW7sXC3EHGwmcUxcL++8fC&#xD;&#xa;CWbIwsDoxsJFz8PCJkXFwiD7xcIQDsfC8ljIwrDLxMKkeMLClpHEwiqgyMJcjcjC6krGwl50w8Iy&#xD;&#xa;7sXCWv3HwkQ1xsKUwMPC2K/EwootxMJUqMTCH3LDwuojxcKil8fCjmXIwkLJxcID78TClTvGwhel&#xD;&#xa;xsIca8bC1rbCwk6+wsIQfsfCIlPHwpJExcLWhMbCDNvEwuryxMKklMXCeBDDwolhwcIiasLCQYfE&#xD;&#xa;whUfwsJx4MTCsEnIwkX0xcK+3sbCIqLHwrARx8IWtMTCGAnFwomNxMLfbcTCQIPDwjqww8L+MMTC&#xD;&#xa;mqjHwrBaxMI6YsTCxmvIwqyKycKQaMXCnx7FwkYvx8In6sjCGMzIwuvAxcL8a8XCiBjJwkvwyMKI&#xD;&#xa;qMbCTCTIwvQSy8IxEsvCVT/JwrI3w8LA8sLCCD7EwsxXxMJSjsXCfjXFwqTKxMI/gsPCDozDwtwF&#xD;&#xa;xMISn8bChHvJwlFQyMJYCsbCP4jIwtkBycLiFsrCbCrKwvyTysIWncnC+A3HwuI5x8I8/MbC0hHI&#xD;&#xa;wopJzMLmb83CFkvMwpy/y8Kn7MrCfJrJwuLDyMJKn8bCStTGwpb7ycIMo8nCcivFwsapxcJkx8bC&#xD;&#xa;ALLIwriaycJM3cfC8r/KwlSoy8I4A8vCpFHJwkRrzMIKr87CWD7MwsiJycKW9cfCUjbKwq+YycLi&#xD;&#xa;U8jCROHHwhdWycKaU8nCF7jMwmKaz8L//8zC8tjOwjxezsIUysvCzHLJwiJryMLRm8bCgLjKwsi8&#xD;&#xa;ysIhfszCPETLwqtbyMJGeMfCpRPJwnwZzMJSIs3CqhPMwmDiyMLZYsjCz13KwgwKy8LCi8jCyrTM&#xD;&#xa;wgwxzMK4ZcvC087JwkV2xsLyXsnCjIbLwhwvzcLfrM7CeITKwla3ysLK3cnC/PHFwpScxcIUQ8nC&#xD;&#xa;NJzIwrEsxsJvZcfCXSvIwlKLx8JII8nCvgzKwpnhysJSC8vC9iTKwiA/y8IadczCuDrMwuVaysLO&#xD;&#xa;r8vCXtfJwrZ6ycItucnCtonJwjyTysJkC83CL0nMwkjdyMIBucfCixrLwvSDysKGX8nCsCzMwuas&#xD;&#xa;0cIsnNPCuEvOwtr5y8LMBc7Cr+PTwsQc5MLcOfPCKOj0wjr59cJ0C/fCzg75wkwh+8LmVPnCqz72&#xD;&#xa;wnB+9cLuJvrCtEL4wkp7+MLOfffCDN3zwkaz9sLi8vjCFKr6wgIQ+cI8iPjCBpT4wvR1+MLQI/rC&#xD;&#xa;Ihn8wlQg+sIcLvjCVCz2wsI49MJQ9fbC23H3woy69sL4BfnCIOb2wjwy9cIuGvnCdmb3wj7K9MI+&#xD;&#xa;KPXCJpr2wn7C9cKQDvnCthv7woaP+cLGaPbCTr32wrpN+cIFSPjCDvX4wtD39sJY//TCKGf3wvZI&#xD;&#xa;+cK9YvfCgYf3wjIf+sLMMvfCpjz2wuA6+cII8vbCxDv1wmJG9sLka/rCPrT1wi589cLqjfbC9qP4&#xD;&#xa;wgzJ+MLelPbCGir2wlBC9sKeU/jC/nn3wsYn9sL4QPjCXBj5wopQ+MIaJvnCSB36wgjc+MIMfPfC&#xD;&#xa;W+z1wmYG+MKuxPnCCuD1wjh+9sLDrPfCOPj3wm7h+MJjMvfCxH/2wsXf98KwN/nCKOn5wrLR+sKg&#xD;&#xa;bPvCkFv5wsAu+cL2hffCySz2wmRX+MKiiPjCzFX4wvjB98Jgz/fCxPT4wobP+cL8avjC9r34wnKx&#xD;&#xa;+MK+LPnC3H34wle39cKejfbCNKP2wg5B9sK0H/rCSvz2woqE98JAqfjCBPL4wmKi+MIu2/jCMFD5&#xD;&#xa;wiCM+cKo//nCGqz7wlZN+sKUDfjC0ov4wrIU+sIVpffCP2/3woye98KktPbCTJj2wpH29cL3mvbC&#xD;&#xa;jL/4wti/+MLm3vjCQ9QEwzOmYsI/y13CPNeLwsehjcK+No/Cm+aOwlHvjcIja5HCun6XwoKemMJy&#xD;&#xa;lpPCuQeRwhgMlcJGdZvCTjScwgFMncIGh5zCGrOawuO0nMJdJZ3Cybudwo6toMIdraPCs/6jwpY0&#xD;&#xa;psLIUqjCWQmpwonmp8KcE6XCgXGlwqC+psIFHabCBoyownWvqcIkX6jCgnCpwms3qsIW0KfCM7Oj&#xD;&#xa;wnGLosJgcKnCdk6swiIgscKFrbDCtNmowrZmpcIHYqjCCg2pwqUNq8KgHq7ChEGxwhVFs8KU6LLC&#xD;&#xa;dvWzwpVHscI6NrDCMpGwwubcs8Imh7bCPKq6wj7tvMKSbr3ClsG+wq4qwMLXQr7CpAK5whxiuMJp&#xD;&#xa;v7nCwu29wloQvsIXTL3CzjDAwsDTwcL69sHC8urAwtAFwMIkSMLCpJHDwjLOw8JG8sTCmMvDwq7H&#xD;&#xa;wsLOncPC+CDDwkh6wsLU5sPCP23Fwm5Qx8KlYsTCm0XCwnhexcLsTsPCSMPDwjvJw8LMWcHC2XHD&#xD;&#xa;wjj5wsICs8TChWvEwgCywcKDdcHCFnHCwurMxMLlVsTCfrDGwmzqyMKoGsfC7ITIwtqRyMJwzcbC&#xD;&#xa;ppbEwiv5xcIXxsTCzDfCwtSExMKEjcTC8ObDwiJ9yMIQm8vCIkDGwqHyxcIyYcbCyAXIwmyBx8I4&#xD;&#xa;n8PCvyPGwuiKxMJggMfCdL3JwsMhysLi6sXCRa7Ewoykx8Jk/MXC0NfEwtK0xcJQTMTCvvvGwtqJ&#xD;&#xa;xMKmFsTCSbfGwq76x8IQ+sjCsqnIwkJdycIaT8fC0nbHwlf2xsLg/cbCtIHHwsTvxsI0KsbCsqDH&#xD;&#xa;wgLix8JGKcXCyNTDwjDwwsIb98bC6MjJwg6Zy8Kg+cvCaC3HwtIgw8KW7sXC3EHGwmcUxcL++8fC&#xD;&#xa;CWbIwsDoxsJFz8PCJkXFwiD7xcIQDsfC8ljIwrDLxMKkeMLClpHEwiqgyMJcjcjC6krGwl50w8Iy&#xD;&#xa;7sXCWv3HwkQ1xsKUwMPC2K/EwootxMJUqMTCH3LDwuojxcKil8fCjmXIwkLJxcID78TClTvGwhel&#xD;&#xa;xsIca8bC1rbCwk6+wsIQfsfCIlPHwpJExcLWhMbCDNvEwuryxMKklMXCeBDDwolhwcIiasLCQYfE&#xD;&#xa;whUfwsJx4MTCsEnIwkX0xcK+3sbCIqLHwrARx8IWtMTCGAnFwomNxMLfbcTCQIPDwjqww8L+MMTC&#xD;&#xa;mqjHwrBaxMI6YsTCxmvIwqyKycKQaMXCnx7FwkYvx8In6sjCGMzIwuvAxcL8a8XCiBjJwkvwyMKI&#xD;&#xa;qMbCTCTIwvQSy8IxEsvCVT/JwrI3w8LA8sLCCD7EwsxXxMJSjsXCfjXFwqTKxMI/gsPCDozDwtwF&#xD;&#xa;xMISn8bChHvJwlFQyMJYCsbCP4jIwtkBycLiFsrCbCrKwvyTysIWncnC+A3HwuI5x8I8/MbC0hHI&#xD;&#xa;wopJzMLmb83CFkvMwpy/y8Kn7MrCfJrJwuLDyMJKn8bCStTGwpb7ycIMo8nCcivFwsapxcJkx8bC&#xD;&#xa;ALLIwriaycJM3cfC8r/KwlSoy8I4A8vCpFHJwkRrzMIKr87CWD7MwsiJycKW9cfCUjbKwq+YycLi&#xD;&#xa;U8jCROHHwhdWycKaU8nCF7jMwmKaz8L//8zC8tjOwjxezsIUysvCzHLJwiJryMLRm8bCgLjKwsi8&#xD;&#xa;ysIhfszCPETLwqtbyMJGeMfCpRPJwnwZzMJSIs3CqhPMwmDiyMLZYsjCz13KwgwKy8LCi8jCyrTM&#xD;&#xa;wgwxzMK4ZcvC087JwkV2xsLyXsnCjIbLwhwvzcLfrM7CeITKwla3ysLK3cnC/PHFwpScxcIUQ8nC&#xD;&#xa;NJzIwrEsxsJvZcfCXSvIwlKLx8JII8nCvgzKwpnhysJSC8vC9iTKwiA/y8IadczCuDrMwuVaysLO&#xD;&#xa;r8vCXtfJwrZ6ycItucnCtonJwjyTysJkC83CL0nMwkjdyMIBucfCixrLwvSDysKGX8nCsCzMwuas&#xD;&#xa;0cIsnNPCuEvOwtr5y8LMBc7Cr+PTwsQc5MLcOfPCKOj0wjr59cJ0C/fCzg75wkwh+8LmVPnCqz72&#xD;&#xa;wnB+9cLuJvrCtEL4wkp7+MLOfffCDN3zwkaz9sLi8vjCFKr6wgIQ+cI8iPjCBpT4wvR1+MLQI/rC&#xD;&#xa;Ihn8wlQg+sIcLvjCVCz2wsI49MJQ9fbC23H3woy69sL4BfnCIOb2wjwy9cIuGvnCdmb3wj7K9MI+&#xD;&#xa;KPXCJpr2wn7C9cKQDvnCthv7woaP+cLGaPbCTr32wrpN+cIFSPjCDvX4wtD39sJY//TCKGf3wvZI&#xD;&#xa;+cK9YvfCgYf3wjIf+sLMMvfCpjz2wuA6+cII8vbCxDv1wmJG9sLka/rCPrT1wi589cLqjfbC9qP4&#xD;&#xa;wgzJ+MLelPbCGir2wlBC9sKeU/jC/nn3wsYn9sL4QPjCXBj5wopQ+MIaJvnCSB36wgjc+MIMfPfC&#xD;&#xa;W+z1wmYG+MKuxPnCCuD1wjh+9sLDrPfCOPj3wm7h+MJjMvfCxH/2wsXf98KwN/nCKOn5wrLR+sKg&#xD;&#xa;bPvCkFv5wsAu+cL2hffCySz2wmRX+MKiiPjCzFX4wvjB98Jgz/fCxPT4wobP+cL8avjC9r34wnKx&#xD;&#xa;+MK+LPnC3H34wle39cKejfbCNKP2wg5B9sK0H/rCSvz2woqE98JAqfjCBPL4wmKi+MIu2/jCMFD5&#xD;&#xa;wiCM+cKo//nCGqz7wlZN+sKUDfjC0ov4wrIU+sIVpffCP2/3woye98KktPbCTJj2wpH29cL3mvbC&#xD;&#xa;jL/4wti/+MLm3vjCQ9QE" leadInLength="0/1"  />
            </Keyframes>
           </Parameter>
           </Parameters>
          </GenericEffect>
          <GenericEffect id="4450" name = "WinCompression" >
           <Parameters>
           <InterpolatingParam id="4451" interp="linr"  time="0/1" value="0" leadInLength="0/1"   name="attack"/>
           <InterpolatingParam id="4452" interp="linr"  time="0/1" value="9" leadInLength="0/1"   name="gain"/>
           <Parameter id="4453"   name="preset">
            <Keyframes>
            <Keyframe id="4454"  time="0/1" value="1" leadInLength="0/1"  />
            </Keyframes>
           </Parameter>
           <InterpolatingParam id="4455" interp="linr"  time="0/1" value="10" leadInLength="0/1"   name="ratio"/>
           <InterpolatingParam id="4456" interp="linr"  time="0/1" value="3500" leadInLength="0/1"   name="release"/>
           <InterpolatingParam id="4457" interp="linr"  time="0/1" value="-20" leadInLength="0/1"   name="threshold"/>
           </Parameters>
          </GenericEffect>
          <GenericEffect id="4458" name = "Declipper" >
           <Parameters>
           <InterpolatingParam id="4459" interp="linr"  time="0/1" value="-1" leadInLength="0/1"   name="sensitivity"/>
           </Parameters>
          </GenericEffect>
          <GenericEffect id="4460" name = "Declicker" >
           <Parameters>
           <InterpolatingParam id="4461" interp="linr"  time="0/1" value="3" leadInLength="0/1"   name="sensitivity"/>
           </Parameters>
          </GenericEffect>
         </Effects>
         <Attributes>
          <Attribute id="4462" value="" name="ident"/>
          <Attribute id="4463" value="0" name="mixToMono"/>
         </Attributes>
         <MetaData>
          <entry key="WinSubProjectDisplayName" val=""/>
         </MetaData>
         <ExtraData>
          <Entry key="ZoomPanBin">
           <ZoomPanBin id="4464"  >
            <ZoomPanKeyframes>
            </ZoomPanKeyframes>
           </ZoomPanBin>
          </Entry>
          <Entry key="CursorEffectBin">
           <CursorEffectBin id="4465"  >
            <CursorEffectKeyframes>
            </CursorEffectKeyframes>
           </CursorEffectBin>
          </Entry>
         </ExtraData>
         <GenericTrack id="4466"  >
          <Attributes>
           <Attribute id="4467" value="" name="ident"/>
           <Attribute id="4468" value="0" name="audioMuted"/>
           <Attribute id="4469" value="0" name="videoHidden"/>
          </Attributes>
          <MetaData>
           <entry key="IsLocked" val="False"/>
           <entry key="WinTrackHeight" val="0"/>
          </MetaData>
          <Medias>
           <AMFile id="4470" start="0" duration="4896" scalar="1/1" mediaStart="0/1" mediaDuration="4896/1" trackNumber="0" src="22" channelNumber="0" >
            <Parameters>
             <InterpolatingParam id="4471" interp="linr"  time="0/1" value="1" leadInLength="0/1"  name="volume"/>
             <Parameter id="4472"  name="captions"/>
            </Parameters>
            <Attributes>
             <Attribute id="4473" value="" name="ident"/>
             <Attribute id="4474" value="44100" name="sampleRate"/>
             <Attribute id="4475" value="16" name="bitDepth"/>
             <Attribute id="4476" value="1" name="gain"/>
             <Attribute id="4477" value="0" name="mixToMono"/>
            </Attributes>
            <MetaData>
             <entry key="WinSubProjectDisplayName" val=""/>
            </MetaData>
           </AMFile>
           <AMFile id="4478" start="4896" duration="411" scalar="1/1" mediaStart="4989/1" mediaDuration="411/1" trackNumber="0" src="22" channelNumber="0" >
            <Parameters>
             <InterpolatingParam id="4479" interp="linr"  time="0/1" value="1" leadInLength="0/1"  name="volume"/>
             <Parameter id="4480"  name="captions"/>
            </Parameters>
            <Attributes>
             <Attribute id="4481" value="" name="ident"/>
             <Attribute id="4482" value="44100" name="sampleRate"/>
             <Attribute id="4483" value="16" name="bitDepth"/>
             <Attribute id="4484" value="1" name="gain"/>
             <Attribute id="4485" value="0" name="mixToMono"/>
            </Attributes>
            <MetaData>
             <entry key="WinSubProjectDisplayName" val=""/>
            </MetaData>
           </AMFile>
           <AMFile id="4486" start="5307" duration="1270" scalar="1/1" mediaStart="5956/1" mediaDuration="1270/1" trackNumber="0" src="22" channelNumber="0" >
            <Parameters>
             <InterpolatingParam id="4487" interp="linr"  time="0/1" value="1" leadInLength="0/1"  name="volume"/>
             <Parameter id="4488"  name="captions"/>
            </Parameters>
            <Attributes>
             <Attribute id="4489" value="" name="ident"/>
             <Attribute id="4490" value="44100" name="sampleRate"/>
             <Attribute id="4491" value="16" name="bitDepth"/>
             <Attribute id="4492" value="1" name="gain"/>
             <Attribute id="4493" value="0" name="mixToMono"/>
            </Attributes>
            <MetaData>
             <entry key="WinSubProjectDisplayName" val=""/>
            </MetaData>
           </AMFile>
           <AMFile id="4494" start="6577" duration="7114" scalar="1/1" mediaStart="7454/1" mediaDuration="7114/1" trackNumber="0" src="22" channelNumber="0" >
            <Parameters>
             <InterpolatingParam id="4495" interp="linr"  time="0/1" value="1" leadInLength="0/1"  name="volume"/>
             <Parameter id="4496"  name="captions"/>
            </Parameters>
            <Attributes>
             <Attribute id="4497" value="" name="ident"/>
             <Attribute id="4498" value="44100" name="sampleRate"/>
             <Attribute id="4499" value="16" name="bitDepth"/>
             <Attribute id="4500" value="1" name="gain"/>
             <Attribute id="4501" value="0" name="mixToMono"/>
            </Attributes>
            <MetaData>
             <entry key="WinSubProjectDisplayName" val=""/>
            </MetaData>
           </AMFile>
          </Medias>
         </GenericTrack>
        </StitchedMedia>
        <StitchedMedia id="4502" start="1939" duration="134" scalar="1/1" mediaStart="3361/1" mediaDuration="134/1" minMediaStart="0/1" >
         <Transformer>
          <VectorParam id="4503"  name="translation">
           <InterpolatingParam id="4504" interp="linr"  time="0/1" value="0" leadInLength="0/1"  />
           <InterpolatingParam id="4505" interp="linr"  time="0/1" value="0" leadInLength="0/1"  />
           <InterpolatingParam id="4506" interp="linr"  time="0/1" value="0" leadInLength="0/1"  />
          </VectorParam>
          <VectorParam id="4507"  name="rotation">
           <InterpolatingParam id="4508" interp="linr"  time="0/1" value="0" leadInLength="0/1"  />
           <InterpolatingParam id="4509" interp="linr"  time="0/1" value="0" leadInLength="0/1"  />
           <InterpolatingParam id="4510" interp="linr"  time="0/1" value="0" leadInLength="0/1"  />
          </VectorParam>
          <VectorParam id="4511"  name="shear">
           <InterpolatingParam id="4512" interp="linr"  time="0/1" value="0" leadInLength="0/1"  />
           <InterpolatingParam id="4513" interp="linr"  time="0/1" value="0" leadInLength="0/1"  />
           <InterpolatingParam id="4514" interp="linr"  time="0/1" value="0" leadInLength="0/1"  />
          </VectorParam>
          <VectorParam id="4515"  name="scale">
           <InterpolatingParam id="4516" interp="linr"  time="0/1" value="1" leadInLength="0/1"  />
           <InterpolatingParam id="4517" interp="linr"  time="0/1" value="1" leadInLength="0/1"  />
           <InterpolatingParam id="4518" interp="linr"  time="0/1" value="1" leadInLength="0/1"  />
          </VectorParam>
          <VectorParam id="4519"  name="anchor">
           <InterpolatingParam id="4520" interp="linr"  time="0/1" value="0" leadInLength="0/1"  />
           <InterpolatingParam id="4521" interp="linr"  time="0/1" value="0" leadInLength="0/1"  />
           <InterpolatingParam id="4522" interp="linr"  time="0/1" value="0" leadInLength="0/1"  />
          </VectorParam>
         </Transformer>
         <Parameters>
          <InterpolatingParam id="4523" interp="linr"  time="0/1" value="1" leadInLength="0/1"  name="cursorOpacity"/>
          <InterpolatingParam id="4524" interp="linr"  time="0/1" value="1" leadInLength="0/1"  name="cursorScale"/>
          <InterpolatingParam id="4525" interp="linr"  name="volume">
           <Keyframes>
           <Keyframe id="4526"  time="0/1" value="1" leadInLength="0/1"  />
           <Keyframe id="4527"  time="3301/1" value="1" leadInLength="0/1"  />
           <Keyframe id="4528"  time="3302/1" value="0.99255583126550873" leadInLength="0/1"  />
           <Keyframe id="4529"  time="13691/1" value="0.99255583126550873" leadInLength="0/1"  />
           <Keyframe id="4530"  time="13692/1" value="1" leadInLength="0/1"  />
           </Keyframes>
          </InterpolatingParam>
          <Parameter id="4531"  name="captions"/>
         </Parameters>
         <Effects>
          <GenericEffect id="4532" name = "NoiseReduction" >
           <Parameters>
           <InterpolatingParam id="4533" interp="linr"  time="0/1" value="20" leadInLength="0/1"   name="denoiserAmount"/>
           <InterpolatingParam id="4534" interp="linr"  time="0/1" value="0" leadInLength="0/1"   name="denoiserThreshold"/>
           <Parameter id="4535"   name="noiseProfile">
            <Keyframes>
            <Keyframe id="4536"  time="0/1" value="FBAAAAIAAABErAAAAQIAADOmYsI/y13CPNeLwsehjcK+No/Cm+aOwlHvjcIja5HCun6XwoKemMJy&#xD;&#xa;lpPCuQeRwhgMlcJGdZvCTjScwgFMncIGh5zCGrOawuO0nMJdJZ3Cybudwo6toMIdraPCs/6jwpY0&#xD;&#xa;psLIUqjCWQmpwonmp8KcE6XCgXGlwqC+psIFHabCBoyownWvqcIkX6jCgnCpwms3qsIW0KfCM7Oj&#xD;&#xa;wnGLosJgcKnCdk6swiIgscKFrbDCtNmowrZmpcIHYqjCCg2pwqUNq8KgHq7ChEGxwhVFs8KU6LLC&#xD;&#xa;dvWzwpVHscI6NrDCMpGwwubcs8Imh7bCPKq6wj7tvMKSbr3ClsG+wq4qwMLXQr7CpAK5whxiuMJp&#xD;&#xa;v7nCwu29wloQvsIXTL3CzjDAwsDTwcL69sHC8urAwtAFwMIkSMLCpJHDwjLOw8JG8sTCmMvDwq7H&#xD;&#xa;wsLOncPC+CDDwkh6wsLU5sPCP23Fwm5Qx8KlYsTCm0XCwnhexcLsTsPCSMPDwjvJw8LMWcHC2XHD&#xD;&#xa;wjj5wsICs8TChWvEwgCywcKDdcHCFnHCwurMxMLlVsTCfrDGwmzqyMKoGsfC7ITIwtqRyMJwzcbC&#xD;&#xa;ppbEwiv5xcIXxsTCzDfCwtSExMKEjcTC8ObDwiJ9yMIQm8vCIkDGwqHyxcIyYcbCyAXIwmyBx8I4&#xD;&#xa;n8PCvyPGwuiKxMJggMfCdL3JwsMhysLi6sXCRa7Ewoykx8Jk/MXC0NfEwtK0xcJQTMTCvvvGwtqJ&#xD;&#xa;xMKmFsTCSbfGwq76x8IQ+sjCsqnIwkJdycIaT8fC0nbHwlf2xsLg/cbCtIHHwsTvxsI0KsbCsqDH&#xD;&#xa;wgLix8JGKcXCyNTDwjDwwsIb98bC6MjJwg6Zy8Kg+cvCaC3HwtIgw8KW7sXC3EHGwmcUxcL++8fC&#xD;&#xa;CWbIwsDoxsJFz8PCJkXFwiD7xcIQDsfC8ljIwrDLxMKkeMLClpHEwiqgyMJcjcjC6krGwl50w8Iy&#xD;&#xa;7sXCWv3HwkQ1xsKUwMPC2K/EwootxMJUqMTCH3LDwuojxcKil8fCjmXIwkLJxcID78TClTvGwhel&#xD;&#xa;xsIca8bC1rbCwk6+wsIQfsfCIlPHwpJExcLWhMbCDNvEwuryxMKklMXCeBDDwolhwcIiasLCQYfE&#xD;&#xa;whUfwsJx4MTCsEnIwkX0xcK+3sbCIqLHwrARx8IWtMTCGAnFwomNxMLfbcTCQIPDwjqww8L+MMTC&#xD;&#xa;mqjHwrBaxMI6YsTCxmvIwqyKycKQaMXCnx7FwkYvx8In6sjCGMzIwuvAxcL8a8XCiBjJwkvwyMKI&#xD;&#xa;qMbCTCTIwvQSy8IxEsvCVT/JwrI3w8LA8sLCCD7EwsxXxMJSjsXCfjXFwqTKxMI/gsPCDozDwtwF&#xD;&#xa;xMISn8bChHvJwlFQyMJYCsbCP4jIwtkBycLiFsrCbCrKwvyTysIWncnC+A3HwuI5x8I8/MbC0hHI&#xD;&#xa;wopJzMLmb83CFkvMwpy/y8Kn7MrCfJrJwuLDyMJKn8bCStTGwpb7ycIMo8nCcivFwsapxcJkx8bC&#xD;&#xa;ALLIwriaycJM3cfC8r/KwlSoy8I4A8vCpFHJwkRrzMIKr87CWD7MwsiJycKW9cfCUjbKwq+YycLi&#xD;&#xa;U8jCROHHwhdWycKaU8nCF7jMwmKaz8L//8zC8tjOwjxezsIUysvCzHLJwiJryMLRm8bCgLjKwsi8&#xD;&#xa;ysIhfszCPETLwqtbyMJGeMfCpRPJwnwZzMJSIs3CqhPMwmDiyMLZYsjCz13KwgwKy8LCi8jCyrTM&#xD;&#xa;wgwxzMK4ZcvC087JwkV2xsLyXsnCjIbLwhwvzcLfrM7CeITKwla3ysLK3cnC/PHFwpScxcIUQ8nC&#xD;&#xa;NJzIwrEsxsJvZcfCXSvIwlKLx8JII8nCvgzKwpnhysJSC8vC9iTKwiA/y8IadczCuDrMwuVaysLO&#xD;&#xa;r8vCXtfJwrZ6ycItucnCtonJwjyTysJkC83CL0nMwkjdyMIBucfCixrLwvSDysKGX8nCsCzMwuas&#xD;&#xa;0cIsnNPCuEvOwtr5y8LMBc7Cr+PTwsQc5MLcOfPCKOj0wjr59cJ0C/fCzg75wkwh+8LmVPnCqz72&#xD;&#xa;wnB+9cLuJvrCtEL4wkp7+MLOfffCDN3zwkaz9sLi8vjCFKr6wgIQ+cI8iPjCBpT4wvR1+MLQI/rC&#xD;&#xa;Ihn8wlQg+sIcLvjCVCz2wsI49MJQ9fbC23H3woy69sL4BfnCIOb2wjwy9cIuGvnCdmb3wj7K9MI+&#xD;&#xa;KPXCJpr2wn7C9cKQDvnCthv7woaP+cLGaPbCTr32wrpN+cIFSPjCDvX4wtD39sJY//TCKGf3wvZI&#xD;&#xa;+cK9YvfCgYf3wjIf+sLMMvfCpjz2wuA6+cII8vbCxDv1wmJG9sLka/rCPrT1wi589cLqjfbC9qP4&#xD;&#xa;wgzJ+MLelPbCGir2wlBC9sKeU/jC/nn3wsYn9sL4QPjCXBj5wopQ+MIaJvnCSB36wgjc+MIMfPfC&#xD;&#xa;W+z1wmYG+MKuxPnCCuD1wjh+9sLDrPfCOPj3wm7h+MJjMvfCxH/2wsXf98KwN/nCKOn5wrLR+sKg&#xD;&#xa;bPvCkFv5wsAu+cL2hffCySz2wmRX+MKiiPjCzFX4wvjB98Jgz/fCxPT4wobP+cL8avjC9r34wnKx&#xD;&#xa;+MK+LPnC3H34wle39cKejfbCNKP2wg5B9sK0H/rCSvz2woqE98JAqfjCBPL4wmKi+MIu2/jCMFD5&#xD;&#xa;wiCM+cKo//nCGqz7wlZN+sKUDfjC0ov4wrIU+sIVpffCP2/3woye98KktPbCTJj2wpH29cL3mvbC&#xD;&#xa;jL/4wti/+MLm3vjCQ9QEwzOmYsI/y13CPNeLwsehjcK+No/Cm+aOwlHvjcIja5HCun6XwoKemMJy&#xD;&#xa;lpPCuQeRwhgMlcJGdZvCTjScwgFMncIGh5zCGrOawuO0nMJdJZ3Cybudwo6toMIdraPCs/6jwpY0&#xD;&#xa;psLIUqjCWQmpwonmp8KcE6XCgXGlwqC+psIFHabCBoyownWvqcIkX6jCgnCpwms3qsIW0KfCM7Oj&#xD;&#xa;wnGLosJgcKnCdk6swiIgscKFrbDCtNmowrZmpcIHYqjCCg2pwqUNq8KgHq7ChEGxwhVFs8KU6LLC&#xD;&#xa;dvWzwpVHscI6NrDCMpGwwubcs8Imh7bCPKq6wj7tvMKSbr3ClsG+wq4qwMLXQr7CpAK5whxiuMJp&#xD;&#xa;v7nCwu29wloQvsIXTL3CzjDAwsDTwcL69sHC8urAwtAFwMIkSMLCpJHDwjLOw8JG8sTCmMvDwq7H&#xD;&#xa;wsLOncPC+CDDwkh6wsLU5sPCP23Fwm5Qx8KlYsTCm0XCwnhexcLsTsPCSMPDwjvJw8LMWcHC2XHD&#xD;&#xa;wjj5wsICs8TChWvEwgCywcKDdcHCFnHCwurMxMLlVsTCfrDGwmzqyMKoGsfC7ITIwtqRyMJwzcbC&#xD;&#xa;ppbEwiv5xcIXxsTCzDfCwtSExMKEjcTC8ObDwiJ9yMIQm8vCIkDGwqHyxcIyYcbCyAXIwmyBx8I4&#xD;&#xa;n8PCvyPGwuiKxMJggMfCdL3JwsMhysLi6sXCRa7Ewoykx8Jk/MXC0NfEwtK0xcJQTMTCvvvGwtqJ&#xD;&#xa;xMKmFsTCSbfGwq76x8IQ+sjCsqnIwkJdycIaT8fC0nbHwlf2xsLg/cbCtIHHwsTvxsI0KsbCsqDH&#xD;&#xa;wgLix8JGKcXCyNTDwjDwwsIb98bC6MjJwg6Zy8Kg+cvCaC3HwtIgw8KW7sXC3EHGwmcUxcL++8fC&#xD;&#xa;CWbIwsDoxsJFz8PCJkXFwiD7xcIQDsfC8ljIwrDLxMKkeMLClpHEwiqgyMJcjcjC6krGwl50w8Iy&#xD;&#xa;7sXCWv3HwkQ1xsKUwMPC2K/EwootxMJUqMTCH3LDwuojxcKil8fCjmXIwkLJxcID78TClTvGwhel&#xD;&#xa;xsIca8bC1rbCwk6+wsIQfsfCIlPHwpJExcLWhMbCDNvEwuryxMKklMXCeBDDwolhwcIiasLCQYfE&#xD;&#xa;whUfwsJx4MTCsEnIwkX0xcK+3sbCIqLHwrARx8IWtMTCGAnFwomNxMLfbcTCQIPDwjqww8L+MMTC&#xD;&#xa;mqjHwrBaxMI6YsTCxmvIwqyKycKQaMXCnx7FwkYvx8In6sjCGMzIwuvAxcL8a8XCiBjJwkvwyMKI&#xD;&#xa;qMbCTCTIwvQSy8IxEsvCVT/JwrI3w8LA8sLCCD7EwsxXxMJSjsXCfjXFwqTKxMI/gsPCDozDwtwF&#xD;&#xa;xMISn8bChHvJwlFQyMJYCsbCP4jIwtkBycLiFsrCbCrKwvyTysIWncnC+A3HwuI5x8I8/MbC0hHI&#xD;&#xa;wopJzMLmb83CFkvMwpy/y8Kn7MrCfJrJwuLDyMJKn8bCStTGwpb7ycIMo8nCcivFwsapxcJkx8bC&#xD;&#xa;ALLIwriaycJM3cfC8r/KwlSoy8I4A8vCpFHJwkRrzMIKr87CWD7MwsiJycKW9cfCUjbKwq+YycLi&#xD;&#xa;U8jCROHHwhdWycKaU8nCF7jMwmKaz8L//8zC8tjOwjxezsIUysvCzHLJwiJryMLRm8bCgLjKwsi8&#xD;&#xa;ysIhfszCPETLwqtbyMJGeMfCpRPJwnwZzMJSIs3CqhPMwmDiyMLZYsjCz13KwgwKy8LCi8jCyrTM&#xD;&#xa;wgwxzMK4ZcvC087JwkV2xsLyXsnCjIbLwhwvzcLfrM7CeITKwla3ysLK3cnC/PHFwpScxcIUQ8nC&#xD;&#xa;NJzIwrEsxsJvZcfCXSvIwlKLx8JII8nCvgzKwpnhysJSC8vC9iTKwiA/y8IadczCuDrMwuVaysLO&#xD;&#xa;r8vCXtfJwrZ6ycItucnCtonJwjyTysJkC83CL0nMwkjdyMIBucfCixrLwvSDysKGX8nCsCzMwuas&#xD;&#xa;0cIsnNPCuEvOwtr5y8LMBc7Cr+PTwsQc5MLcOfPCKOj0wjr59cJ0C/fCzg75wkwh+8LmVPnCqz72&#xD;&#xa;wnB+9cLuJvrCtEL4wkp7+MLOfffCDN3zwkaz9sLi8vjCFKr6wgIQ+cI8iPjCBpT4wvR1+MLQI/rC&#xD;&#xa;Ihn8wlQg+sIcLvjCVCz2wsI49MJQ9fbC23H3woy69sL4BfnCIOb2wjwy9cIuGvnCdmb3wj7K9MI+&#xD;&#xa;KPXCJpr2wn7C9cKQDvnCthv7woaP+cLGaPbCTr32wrpN+cIFSPjCDvX4wtD39sJY//TCKGf3wvZI&#xD;&#xa;+cK9YvfCgYf3wjIf+sLMMvfCpjz2wuA6+cII8vbCxDv1wmJG9sLka/rCPrT1wi589cLqjfbC9qP4&#xD;&#xa;wgzJ+MLelPbCGir2wlBC9sKeU/jC/nn3wsYn9sL4QPjCXBj5wopQ+MIaJvnCSB36wgjc+MIMfPfC&#xD;&#xa;W+z1wmYG+MKuxPnCCuD1wjh+9sLDrPfCOPj3wm7h+MJjMvfCxH/2wsXf98KwN/nCKOn5wrLR+sKg&#xD;&#xa;bPvCkFv5wsAu+cL2hffCySz2wmRX+MKiiPjCzFX4wvjB98Jgz/fCxPT4wobP+cL8avjC9r34wnKx&#xD;&#xa;+MK+LPnC3H34wle39cKejfbCNKP2wg5B9sK0H/rCSvz2woqE98JAqfjCBPL4wmKi+MIu2/jCMFD5&#xD;&#xa;wiCM+cKo//nCGqz7wlZN+sKUDfjC0ov4wrIU+sIVpffCP2/3woye98KktPbCTJj2wpH29cL3mvbC&#xD;&#xa;jL/4wti/+MLm3vjCQ9QE" leadInLength="0/1"  />
            </Keyframes>
           </Parameter>
           </Parameters>
          </GenericEffect>
          <GenericEffect id="4537" name = "WinCompression" >
           <Parameters>
           <InterpolatingParam id="4538" interp="linr"  time="0/1" value="0" leadInLength="0/1"   name="attack"/>
           <InterpolatingParam id="4539" interp="linr"  time="0/1" value="9" leadInLength="0/1"   name="gain"/>
           <Parameter id="4540"   name="preset">
            <Keyframes>
            <Keyframe id="4541"  time="0/1" value="1" leadInLength="0/1"  />
            </Keyframes>
           </Parameter>
           <InterpolatingParam id="4542" interp="linr"  time="0/1" value="10" leadInLength="0/1"   name="ratio"/>
           <InterpolatingParam id="4543" interp="linr"  time="0/1" value="3500" leadInLength="0/1"   name="release"/>
           <InterpolatingParam id="4544" interp="linr"  time="0/1" value="-20" leadInLength="0/1"   name="threshold"/>
           </Parameters>
          </GenericEffect>
          <GenericEffect id="4545" name = "Declipper" >
           <Parameters>
           <InterpolatingParam id="4546" interp="linr"  time="0/1" value="-1" leadInLength="0/1"   name="sensitivity"/>
           </Parameters>
          </GenericEffect>
          <GenericEffect id="4547" name = "Declicker" >
           <Parameters>
           <InterpolatingParam id="4548" interp="linr"  time="0/1" value="3" leadInLength="0/1"   name="sensitivity"/>
           </Parameters>
          </GenericEffect>
         </Effects>
         <Attributes>
          <Attribute id="4549" value="" name="ident"/>
          <Attribute id="4550" value="0" name="mixToMono"/>
         </Attributes>
         <MetaData>
          <entry key="WinSubProjectDisplayName" val=""/>
         </MetaData>
         <ExtraData>
          <Entry key="ZoomPanBin">
           <ZoomPanBin id="4551"  >
            <ZoomPanKeyframes>
            </ZoomPanKeyframes>
           </ZoomPanBin>
          </Entry>
          <Entry key="CursorEffectBin">
           <CursorEffectBin id="4552"  >
            <CursorEffectKeyframes>
            </CursorEffectKeyframes>
           </CursorEffectBin>
          </Entry>
         </ExtraData>
         <GenericTrack id="4553"  >
          <Attributes>
           <Attribute id="4554" value="" name="ident"/>
           <Attribute id="4555" value="0" name="audioMuted"/>
           <Attribute id="4556" value="0" name="videoHidden"/>
          </Attributes>
          <MetaData>
           <entry key="IsLocked" val="False"/>
           <entry key="WinTrackHeight" val="0"/>
          </MetaData>
          <Medias>
           <AMFile id="4557" start="0" duration="4896" scalar="1/1" mediaStart="0/1" mediaDuration="4896/1" trackNumber="0" src="22" channelNumber="0" >
            <Parameters>
             <InterpolatingParam id="4558" interp="linr"  time="0/1" value="1" leadInLength="0/1"  name="volume"/>
             <Parameter id="4559"  name="captions"/>
            </Parameters>
            <Attributes>
             <Attribute id="4560" value="" name="ident"/>
             <Attribute id="4561" value="44100" name="sampleRate"/>
             <Attribute id="4562" value="16" name="bitDepth"/>
             <Attribute id="4563" value="1" name="gain"/>
             <Attribute id="4564" value="0" name="mixToMono"/>
            </Attributes>
            <MetaData>
             <entry key="WinSubProjectDisplayName" val=""/>
            </MetaData>
           </AMFile>
           <AMFile id="4565" start="4896" duration="411" scalar="1/1" mediaStart="4989/1" mediaDuration="411/1" trackNumber="0" src="22" channelNumber="0" >
            <Parameters>
             <InterpolatingParam id="4566" interp="linr"  time="0/1" value="1" leadInLength="0/1"  name="volume"/>
             <Parameter id="4567"  name="captions"/>
            </Parameters>
            <Attributes>
             <Attribute id="4568" value="" name="ident"/>
             <Attribute id="4569" value="44100" name="sampleRate"/>
             <Attribute id="4570" value="16" name="bitDepth"/>
             <Attribute id="4571" value="1" name="gain"/>
             <Attribute id="4572" value="0" name="mixToMono"/>
            </Attributes>
            <MetaData>
             <entry key="WinSubProjectDisplayName" val=""/>
            </MetaData>
           </AMFile>
           <AMFile id="4573" start="5307" duration="1270" scalar="1/1" mediaStart="5956/1" mediaDuration="1270/1" trackNumber="0" src="22" channelNumber="0" >
            <Parameters>
             <InterpolatingParam id="4574" interp="linr"  time="0/1" value="1" leadInLength="0/1"  name="volume"/>
             <Parameter id="4575"  name="captions"/>
            </Parameters>
            <Attributes>
             <Attribute id="4576" value="" name="ident"/>
             <Attribute id="4577" value="44100" name="sampleRate"/>
             <Attribute id="4578" value="16" name="bitDepth"/>
             <Attribute id="4579" value="1" name="gain"/>
             <Attribute id="4580" value="0" name="mixToMono"/>
            </Attributes>
            <MetaData>
             <entry key="WinSubProjectDisplayName" val=""/>
            </MetaData>
           </AMFile>
           <AMFile id="4581" start="6577" duration="7114" scalar="1/1" mediaStart="7454/1" mediaDuration="7114/1" trackNumber="0" src="22" channelNumber="0" >
            <Parameters>
             <InterpolatingParam id="4582" interp="linr"  time="0/1" value="1" leadInLength="0/1"  name="volume"/>
             <Parameter id="4583"  name="captions"/>
            </Parameters>
            <Attributes>
             <Attribute id="4584" value="" name="ident"/>
             <Attribute id="4585" value="44100" name="sampleRate"/>
             <Attribute id="4586" value="16" name="bitDepth"/>
             <Attribute id="4587" value="1" name="gain"/>
             <Attribute id="4588" value="0" name="mixToMono"/>
            </Attributes>
            <MetaData>
             <entry key="WinSubProjectDisplayName" val=""/>
            </MetaData>
           </AMFile>
          </Medias>
         </GenericTrack>
        </StitchedMedia>
        <StitchedMedia id="4589" start="2084" duration="3753" scalar="1/1" mediaStart="3506/1" mediaDuration="3753/1" minMediaStart="0/1" >
         <Transformer>
          <VectorParam id="4590"  name="translation">
           <InterpolatingParam id="4591" interp="linr"  time="0/1" value="0" leadInLength="0/1"  />
           <InterpolatingParam id="4592" interp="linr"  time="0/1" value="0" leadInLength="0/1"  />
           <InterpolatingParam id="4593" interp="linr"  time="0/1" value="0" leadInLength="0/1"  />
          </VectorParam>
          <VectorParam id="4594"  name="rotation">
           <InterpolatingParam id="4595" interp="linr"  time="0/1" value="0" leadInLength="0/1"  />
           <InterpolatingParam id="4596" interp="linr"  time="0/1" value="0" leadInLength="0/1"  />
           <InterpolatingParam id="4597" interp="linr"  time="0/1" value="0" leadInLength="0/1"  />
          </VectorParam>
          <VectorParam id="4598"  name="shear">
           <InterpolatingParam id="4599" interp="linr"  time="0/1" value="0" leadInLength="0/1"  />
           <InterpolatingParam id="4600" interp="linr"  time="0/1" value="0" leadInLength="0/1"  />
           <InterpolatingParam id="4601" interp="linr"  time="0/1" value="0" leadInLength="0/1"  />
          </VectorParam>
          <VectorParam id="4602"  name="scale">
           <InterpolatingParam id="4603" interp="linr"  time="0/1" value="1" leadInLength="0/1"  />
           <InterpolatingParam id="4604" interp="linr"  time="0/1" value="1" leadInLength="0/1"  />
           <InterpolatingParam id="4605" interp="linr"  time="0/1" value="1" leadInLength="0/1"  />
          </VectorParam>
          <VectorParam id="4606"  name="anchor">
           <InterpolatingParam id="4607" interp="linr"  time="0/1" value="0" leadInLength="0/1"  />
           <InterpolatingParam id="4608" interp="linr"  time="0/1" value="0" leadInLength="0/1"  />
           <InterpolatingParam id="4609" interp="linr"  time="0/1" value="0" leadInLength="0/1"  />
          </VectorParam>
         </Transformer>
         <Parameters>
          <InterpolatingParam id="4610" interp="linr"  time="0/1" value="1" leadInLength="0/1"  name="cursorOpacity"/>
          <InterpolatingParam id="4611" interp="linr"  time="0/1" value="1" leadInLength="0/1"  name="cursorScale"/>
          <InterpolatingParam id="4612" interp="linr"  name="volume">
           <Keyframes>
           <Keyframe id="4613"  time="0/1" value="1" leadInLength="0/1"  />
           <Keyframe id="4614"  time="3301/1" value="1" leadInLength="0/1"  />
           <Keyframe id="4615"  time="3302/1" value="1.1290322580645162" leadInLength="0/1"  />
           <Keyframe id="4616"  time="13691/1" value="1.1290322580645162" leadInLength="0/1"  />
           <Keyframe id="4617"  time="13692/1" value="1" leadInLength="0/1"  />
           </Keyframes>
          </InterpolatingParam>
          <Parameter id="4618"  name="captions"/>
         </Parameters>
         <Effects>
          <GenericEffect id="4619" name = "NoiseReduction" >
           <Parameters>
           <InterpolatingParam id="4620" interp="linr"  time="0/1" value="20" leadInLength="0/1"   name="denoiserAmount"/>
           <InterpolatingParam id="4621" interp="linr"  time="0/1" value="0" leadInLength="0/1"   name="denoiserThreshold"/>
           <Parameter id="4622"   name="noiseProfile">
            <Keyframes>
            <Keyframe id="4623"  time="0/1" value="FBAAAAIAAABErAAAAQIAADOmYsI/y13CPNeLwsehjcK+No/Cm+aOwlHvjcIja5HCun6XwoKemMJy&#xD;&#xa;lpPCuQeRwhgMlcJGdZvCTjScwgFMncIGh5zCGrOawuO0nMJdJZ3Cybudwo6toMIdraPCs/6jwpY0&#xD;&#xa;psLIUqjCWQmpwonmp8KcE6XCgXGlwqC+psIFHabCBoyownWvqcIkX6jCgnCpwms3qsIW0KfCM7Oj&#xD;&#xa;wnGLosJgcKnCdk6swiIgscKFrbDCtNmowrZmpcIHYqjCCg2pwqUNq8KgHq7ChEGxwhVFs8KU6LLC&#xD;&#xa;dvWzwpVHscI6NrDCMpGwwubcs8Imh7bCPKq6wj7tvMKSbr3ClsG+wq4qwMLXQr7CpAK5whxiuMJp&#xD;&#xa;v7nCwu29wloQvsIXTL3CzjDAwsDTwcL69sHC8urAwtAFwMIkSMLCpJHDwjLOw8JG8sTCmMvDwq7H&#xD;&#xa;wsLOncPC+CDDwkh6wsLU5sPCP23Fwm5Qx8KlYsTCm0XCwnhexcLsTsPCSMPDwjvJw8LMWcHC2XHD&#xD;&#xa;wjj5wsICs8TChWvEwgCywcKDdcHCFnHCwurMxMLlVsTCfrDGwmzqyMKoGsfC7ITIwtqRyMJwzcbC&#xD;&#xa;ppbEwiv5xcIXxsTCzDfCwtSExMKEjcTC8ObDwiJ9yMIQm8vCIkDGwqHyxcIyYcbCyAXIwmyBx8I4&#xD;&#xa;n8PCvyPGwuiKxMJggMfCdL3JwsMhysLi6sXCRa7Ewoykx8Jk/MXC0NfEwtK0xcJQTMTCvvvGwtqJ&#xD;&#xa;xMKmFsTCSbfGwq76x8IQ+sjCsqnIwkJdycIaT8fC0nbHwlf2xsLg/cbCtIHHwsTvxsI0KsbCsqDH&#xD;&#xa;wgLix8JGKcXCyNTDwjDwwsIb98bC6MjJwg6Zy8Kg+cvCaC3HwtIgw8KW7sXC3EHGwmcUxcL++8fC&#xD;&#xa;CWbIwsDoxsJFz8PCJkXFwiD7xcIQDsfC8ljIwrDLxMKkeMLClpHEwiqgyMJcjcjC6krGwl50w8Iy&#xD;&#xa;7sXCWv3HwkQ1xsKUwMPC2K/EwootxMJUqMTCH3LDwuojxcKil8fCjmXIwkLJxcID78TClTvGwhel&#xD;&#xa;xsIca8bC1rbCwk6+wsIQfsfCIlPHwpJExcLWhMbCDNvEwuryxMKklMXCeBDDwolhwcIiasLCQYfE&#xD;&#xa;whUfwsJx4MTCsEnIwkX0xcK+3sbCIqLHwrARx8IWtMTCGAnFwomNxMLfbcTCQIPDwjqww8L+MMTC&#xD;&#xa;mqjHwrBaxMI6YsTCxmvIwqyKycKQaMXCnx7FwkYvx8In6sjCGMzIwuvAxcL8a8XCiBjJwkvwyMKI&#xD;&#xa;qMbCTCTIwvQSy8IxEsvCVT/JwrI3w8LA8sLCCD7EwsxXxMJSjsXCfjXFwqTKxMI/gsPCDozDwtwF&#xD;&#xa;xMISn8bChHvJwlFQyMJYCsbCP4jIwtkBycLiFsrCbCrKwvyTysIWncnC+A3HwuI5x8I8/MbC0hHI&#xD;&#xa;wopJzMLmb83CFkvMwpy/y8Kn7MrCfJrJwuLDyMJKn8bCStTGwpb7ycIMo8nCcivFwsapxcJkx8bC&#xD;&#xa;ALLIwriaycJM3cfC8r/KwlSoy8I4A8vCpFHJwkRrzMIKr87CWD7MwsiJycKW9cfCUjbKwq+YycLi&#xD;&#xa;U8jCROHHwhdWycKaU8nCF7jMwmKaz8L//8zC8tjOwjxezsIUysvCzHLJwiJryMLRm8bCgLjKwsi8&#xD;&#xa;ysIhfszCPETLwqtbyMJGeMfCpRPJwnwZzMJSIs3CqhPMwmDiyMLZYsjCz13KwgwKy8LCi8jCyrTM&#xD;&#xa;wgwxzMK4ZcvC087JwkV2xsLyXsnCjIbLwhwvzcLfrM7CeITKwla3ysLK3cnC/PHFwpScxcIUQ8nC&#xD;&#xa;NJzIwrEsxsJvZcfCXSvIwlKLx8JII8nCvgzKwpnhysJSC8vC9iTKwiA/y8IadczCuDrMwuVaysLO&#xD;&#xa;r8vCXtfJwrZ6ycItucnCtonJwjyTysJkC83CL0nMwkjdyMIBucfCixrLwvSDysKGX8nCsCzMwuas&#xD;&#xa;0cIsnNPCuEvOwtr5y8LMBc7Cr+PTwsQc5MLcOfPCKOj0wjr59cJ0C/fCzg75wkwh+8LmVPnCqz72&#xD;&#xa;wnB+9cLuJvrCtEL4wkp7+MLOfffCDN3zwkaz9sLi8vjCFKr6wgIQ+cI8iPjCBpT4wvR1+MLQI/rC&#xD;&#xa;Ihn8wlQg+sIcLvjCVCz2wsI49MJQ9fbC23H3woy69sL4BfnCIOb2wjwy9cIuGvnCdmb3wj7K9MI+&#xD;&#xa;KPXCJpr2wn7C9cKQDvnCthv7woaP+cLGaPbCTr32wrpN+cIFSPjCDvX4wtD39sJY//TCKGf3wvZI&#xD;&#xa;+cK9YvfCgYf3wjIf+sLMMvfCpjz2wuA6+cII8vbCxDv1wmJG9sLka/rCPrT1wi589cLqjfbC9qP4&#xD;&#xa;wgzJ+MLelPbCGir2wlBC9sKeU/jC/nn3wsYn9sL4QPjCXBj5wopQ+MIaJvnCSB36wgjc+MIMfPfC&#xD;&#xa;W+z1wmYG+MKuxPnCCuD1wjh+9sLDrPfCOPj3wm7h+MJjMvfCxH/2wsXf98KwN/nCKOn5wrLR+sKg&#xD;&#xa;bPvCkFv5wsAu+cL2hffCySz2wmRX+MKiiPjCzFX4wvjB98Jgz/fCxPT4wobP+cL8avjC9r34wnKx&#xD;&#xa;+MK+LPnC3H34wle39cKejfbCNKP2wg5B9sK0H/rCSvz2woqE98JAqfjCBPL4wmKi+MIu2/jCMFD5&#xD;&#xa;wiCM+cKo//nCGqz7wlZN+sKUDfjC0ov4wrIU+sIVpffCP2/3woye98KktPbCTJj2wpH29cL3mvbC&#xD;&#xa;jL/4wti/+MLm3vjCQ9QEwzOmYsI/y13CPNeLwsehjcK+No/Cm+aOwlHvjcIja5HCun6XwoKemMJy&#xD;&#xa;lpPCuQeRwhgMlcJGdZvCTjScwgFMncIGh5zCGrOawuO0nMJdJZ3Cybudwo6toMIdraPCs/6jwpY0&#xD;&#xa;psLIUqjCWQmpwonmp8KcE6XCgXGlwqC+psIFHabCBoyownWvqcIkX6jCgnCpwms3qsIW0KfCM7Oj&#xD;&#xa;wnGLosJgcKnCdk6swiIgscKFrbDCtNmowrZmpcIHYqjCCg2pwqUNq8KgHq7ChEGxwhVFs8KU6LLC&#xD;&#xa;dvWzwpVHscI6NrDCMpGwwubcs8Imh7bCPKq6wj7tvMKSbr3ClsG+wq4qwMLXQr7CpAK5whxiuMJp&#xD;&#xa;v7nCwu29wloQvsIXTL3CzjDAwsDTwcL69sHC8urAwtAFwMIkSMLCpJHDwjLOw8JG8sTCmMvDwq7H&#xD;&#xa;wsLOncPC+CDDwkh6wsLU5sPCP23Fwm5Qx8KlYsTCm0XCwnhexcLsTsPCSMPDwjvJw8LMWcHC2XHD&#xD;&#xa;wjj5wsICs8TChWvEwgCywcKDdcHCFnHCwurMxMLlVsTCfrDGwmzqyMKoGsfC7ITIwtqRyMJwzcbC&#xD;&#xa;ppbEwiv5xcIXxsTCzDfCwtSExMKEjcTC8ObDwiJ9yMIQm8vCIkDGwqHyxcIyYcbCyAXIwmyBx8I4&#xD;&#xa;n8PCvyPGwuiKxMJggMfCdL3JwsMhysLi6sXCRa7Ewoykx8Jk/MXC0NfEwtK0xcJQTMTCvvvGwtqJ&#xD;&#xa;xMKmFsTCSbfGwq76x8IQ+sjCsqnIwkJdycIaT8fC0nbHwlf2xsLg/cbCtIHHwsTvxsI0KsbCsqDH&#xD;&#xa;wgLix8JGKcXCyNTDwjDwwsIb98bC6MjJwg6Zy8Kg+cvCaC3HwtIgw8KW7sXC3EHGwmcUxcL++8fC&#xD;&#xa;CWbIwsDoxsJFz8PCJkXFwiD7xcIQDsfC8ljIwrDLxMKkeMLClpHEwiqgyMJcjcjC6krGwl50w8Iy&#xD;&#xa;7sXCWv3HwkQ1xsKUwMPC2K/EwootxMJUqMTCH3LDwuojxcKil8fCjmXIwkLJxcID78TClTvGwhel&#xD;&#xa;xsIca8bC1rbCwk6+wsIQfsfCIlPHwpJExcLWhMbCDNvEwuryxMKklMXCeBDDwolhwcIiasLCQYfE&#xD;&#xa;whUfwsJx4MTCsEnIwkX0xcK+3sbCIqLHwrARx8IWtMTCGAnFwomNxMLfbcTCQIPDwjqww8L+MMTC&#xD;&#xa;mqjHwrBaxMI6YsTCxmvIwqyKycKQaMXCnx7FwkYvx8In6sjCGMzIwuvAxcL8a8XCiBjJwkvwyMKI&#xD;&#xa;qMbCTCTIwvQSy8IxEsvCVT/JwrI3w8LA8sLCCD7EwsxXxMJSjsXCfjXFwqTKxMI/gsPCDozDwtwF&#xD;&#xa;xMISn8bChHvJwlFQyMJYCsbCP4jIwtkBycLiFsrCbCrKwvyTysIWncnC+A3HwuI5x8I8/MbC0hHI&#xD;&#xa;wopJzMLmb83CFkvMwpy/y8Kn7MrCfJrJwuLDyMJKn8bCStTGwpb7ycIMo8nCcivFwsapxcJkx8bC&#xD;&#xa;ALLIwriaycJM3cfC8r/KwlSoy8I4A8vCpFHJwkRrzMIKr87CWD7MwsiJycKW9cfCUjbKwq+YycLi&#xD;&#xa;U8jCROHHwhdWycKaU8nCF7jMwmKaz8L//8zC8tjOwjxezsIUysvCzHLJwiJryMLRm8bCgLjKwsi8&#xD;&#xa;ysIhfszCPETLwqtbyMJGeMfCpRPJwnwZzMJSIs3CqhPMwmDiyMLZYsjCz13KwgwKy8LCi8jCyrTM&#xD;&#xa;wgwxzMK4ZcvC087JwkV2xsLyXsnCjIbLwhwvzcLfrM7CeITKwla3ysLK3cnC/PHFwpScxcIUQ8nC&#xD;&#xa;NJzIwrEsxsJvZcfCXSvIwlKLx8JII8nCvgzKwpnhysJSC8vC9iTKwiA/y8IadczCuDrMwuVaysLO&#xD;&#xa;r8vCXtfJwrZ6ycItucnCtonJwjyTysJkC83CL0nMwkjdyMIBucfCixrLwvSDysKGX8nCsCzMwuas&#xD;&#xa;0cIsnNPCuEvOwtr5y8LMBc7Cr+PTwsQc5MLcOfPCKOj0wjr59cJ0C/fCzg75wkwh+8LmVPnCqz72&#xD;&#xa;wnB+9cLuJvrCtEL4wkp7+MLOfffCDN3zwkaz9sLi8vjCFKr6wgIQ+cI8iPjCBpT4wvR1+MLQI/rC&#xD;&#xa;Ihn8wlQg+sIcLvjCVCz2wsI49MJQ9fbC23H3woy69sL4BfnCIOb2wjwy9cIuGvnCdmb3wj7K9MI+&#xD;&#xa;KPXCJpr2wn7C9cKQDvnCthv7woaP+cLGaPbCTr32wrpN+cIFSPjCDvX4wtD39sJY//TCKGf3wvZI&#xD;&#xa;+cK9YvfCgYf3wjIf+sLMMvfCpjz2wuA6+cII8vbCxDv1wmJG9sLka/rCPrT1wi589cLqjfbC9qP4&#xD;&#xa;wgzJ+MLelPbCGir2wlBC9sKeU/jC/nn3wsYn9sL4QPjCXBj5wopQ+MIaJvnCSB36wgjc+MIMfPfC&#xD;&#xa;W+z1wmYG+MKuxPnCCuD1wjh+9sLDrPfCOPj3wm7h+MJjMvfCxH/2wsXf98KwN/nCKOn5wrLR+sKg&#xD;&#xa;bPvCkFv5wsAu+cL2hffCySz2wmRX+MKiiPjCzFX4wvjB98Jgz/fCxPT4wobP+cL8avjC9r34wnKx&#xD;&#xa;+MK+LPnC3H34wle39cKejfbCNKP2wg5B9sK0H/rCSvz2woqE98JAqfjCBPL4wmKi+MIu2/jCMFD5&#xD;&#xa;wiCM+cKo//nCGqz7wlZN+sKUDfjC0ov4wrIU+sIVpffCP2/3woye98KktPbCTJj2wpH29cL3mvbC&#xD;&#xa;jL/4wti/+MLm3vjCQ9QE" leadInLength="0/1"  />
            </Keyframes>
           </Parameter>
           </Parameters>
          </GenericEffect>
          <GenericEffect id="4624" name = "WinCompression" >
           <Parameters>
           <InterpolatingParam id="4625" interp="linr"  time="0/1" value="0" leadInLength="0/1"   name="attack"/>
           <InterpolatingParam id="4626" interp="linr"  time="0/1" value="9" leadInLength="0/1"   name="gain"/>
           <Parameter id="4627"   name="preset">
            <Keyframes>
            <Keyframe id="4628"  time="0/1" value="1" leadInLength="0/1"  />
            </Keyframes>
           </Parameter>
           <InterpolatingParam id="4629" interp="linr"  time="0/1" value="10" leadInLength="0/1"   name="ratio"/>
           <InterpolatingParam id="4630" interp="linr"  time="0/1" value="3500" leadInLength="0/1"   name="release"/>
           <InterpolatingParam id="4631" interp="linr"  time="0/1" value="-20" leadInLength="0/1"   name="threshold"/>
           </Parameters>
          </GenericEffect>
          <GenericEffect id="4632" name = "Declipper" >
           <Parameters>
           <InterpolatingParam id="4633" interp="linr"  time="0/1" value="-1" leadInLength="0/1"   name="sensitivity"/>
           </Parameters>
          </GenericEffect>
          <GenericEffect id="4634" name = "Declicker" >
           <Parameters>
           <InterpolatingParam id="4635" interp="linr"  time="0/1" value="3" leadInLength="0/1"   name="sensitivity"/>
           </Parameters>
          </GenericEffect>
         </Effects>
         <Attributes>
          <Attribute id="4636" value="" name="ident"/>
          <Attribute id="4637" value="0" name="mixToMono"/>
         </Attributes>
         <MetaData>
          <entry key="WinSubProjectDisplayName" val=""/>
         </MetaData>
         <ExtraData>
          <Entry key="ZoomPanBin">
           <ZoomPanBin id="4638"  >
            <ZoomPanKeyframes>
            </ZoomPanKeyframes>
           </ZoomPanBin>
          </Entry>
          <Entry key="CursorEffectBin">
           <CursorEffectBin id="4639"  >
            <CursorEffectKeyframes>
            </CursorEffectKeyframes>
           </CursorEffectBin>
          </Entry>
         </ExtraData>
         <GenericTrack id="4640"  >
          <Attributes>
           <Attribute id="4641" value="" name="ident"/>
           <Attribute id="4642" value="0" name="audioMuted"/>
           <Attribute id="4643" value="0" name="videoHidden"/>
          </Attributes>
          <MetaData>
           <entry key="IsLocked" val="False"/>
           <entry key="WinTrackHeight" val="0"/>
          </MetaData>
          <Medias>
           <AMFile id="4644" start="0" duration="4896" scalar="1/1" mediaStart="0/1" mediaDuration="4896/1" trackNumber="0" src="22" channelNumber="0" >
            <Parameters>
             <InterpolatingParam id="4645" interp="linr"  time="0/1" value="1" leadInLength="0/1"  name="volume"/>
             <Parameter id="4646"  name="captions"/>
            </Parameters>
            <Attributes>
             <Attribute id="4647" value="" name="ident"/>
             <Attribute id="4648" value="44100" name="sampleRate"/>
             <Attribute id="4649" value="16" name="bitDepth"/>
             <Attribute id="4650" value="1" name="gain"/>
             <Attribute id="4651" value="0" name="mixToMono"/>
            </Attributes>
            <MetaData>
             <entry key="WinSubProjectDisplayName" val=""/>
            </MetaData>
           </AMFile>
           <AMFile id="4652" start="4896" duration="411" scalar="1/1" mediaStart="4989/1" mediaDuration="411/1" trackNumber="0" src="22" channelNumber="0" >
            <Parameters>
             <InterpolatingParam id="4653" interp="linr"  time="0/1" value="1" leadInLength="0/1"  name="volume"/>
             <Parameter id="4654"  name="captions"/>
            </Parameters>
            <Attributes>
             <Attribute id="4655" value="" name="ident"/>
             <Attribute id="4656" value="44100" name="sampleRate"/>
             <Attribute id="4657" value="16" name="bitDepth"/>
             <Attribute id="4658" value="1" name="gain"/>
             <Attribute id="4659" value="0" name="mixToMono"/>
            </Attributes>
            <MetaData>
             <entry key="WinSubProjectDisplayName" val=""/>
            </MetaData>
           </AMFile>
           <AMFile id="4660" start="5307" duration="1270" scalar="1/1" mediaStart="5956/1" mediaDuration="1270/1" trackNumber="0" src="22" channelNumber="0" >
            <Parameters>
             <InterpolatingParam id="4661" interp="linr"  time="0/1" value="1" leadInLength="0/1"  name="volume"/>
             <Parameter id="4662"  name="captions"/>
            </Parameters>
            <Attributes>
             <Attribute id="4663" value="" name="ident"/>
             <Attribute id="4664" value="44100" name="sampleRate"/>
             <Attribute id="4665" value="16" name="bitDepth"/>
             <Attribute id="4666" value="1" name="gain"/>
             <Attribute id="4667" value="0" name="mixToMono"/>
            </Attributes>
            <MetaData>
             <entry key="WinSubProjectDisplayName" val=""/>
            </MetaData>
           </AMFile>
           <AMFile id="4668" start="6577" duration="7114" scalar="1/1" mediaStart="7454/1" mediaDuration="7114/1" trackNumber="0" src="22" channelNumber="0" >
            <Parameters>
             <InterpolatingParam id="4669" interp="linr"  time="0/1" value="1" leadInLength="0/1"  name="volume"/>
             <Parameter id="4670"  name="captions"/>
            </Parameters>
            <Attributes>
             <Attribute id="4671" value="" name="ident"/>
             <Attribute id="4672" value="44100" name="sampleRate"/>
             <Attribute id="4673" value="16" name="bitDepth"/>
             <Attribute id="4674" value="1" name="gain"/>
             <Attribute id="4675" value="0" name="mixToMono"/>
            </Attributes>
            <MetaData>
             <entry key="WinSubProjectDisplayName" val=""/>
            </MetaData>
           </AMFile>
          </Medias>
         </GenericTrack>
        </StitchedMedia>
        <AMFile id="4676" start="5855" duration="142" scalar="1/1" mediaStart="8136/1" mediaDuration="142/1" trackNumber="0" src="22" channelNumber="0" >
         <Parameters>
          <InterpolatingParam id="4677" interp="linr"  name="volume">
           <Keyframes>
           <Keyframe id="4678"  time="0/1" value="1" leadInLength="0/1"  />
           <Keyframe id="4679"  time="3301/1" value="1" leadInLength="0/1"  />
           <Keyframe id="4680"  time="3302/1" value="0.80000000000000004" leadInLength="0/1"  />
           <Keyframe id="4681"  time="14568/1" value="0.80000000000000004" leadInLength="0/1"  />
           <Keyframe id="4682"  time="14569/1" value="1" leadInLength="0/1"  />
           </Keyframes>
          </InterpolatingParam>
          <Parameter id="4683"  name="captions"/>
         </Parameters>
         <Effects>
          <GenericEffect id="4684" name = "NoiseReduction" >
           <Parameters>
           <InterpolatingParam id="4685" interp="linr"  time="0/1" value="20" leadInLength="0/1"   name="denoiserAmount"/>
           <InterpolatingParam id="4686" interp="linr"  time="0/1" value="0" leadInLength="0/1"   name="denoiserThreshold"/>
           <Parameter id="4687"   name="noiseProfile">
            <Keyframes>
            <Keyframe id="4688"  time="0/1" value="FBAAAAIAAABErAAAAQIAADOmYsI/y13CPNeLwsehjcK+No/Cm+aOwlHvjcIja5HCun6XwoKemMJy&#xD;&#xa;lpPCuQeRwhgMlcJGdZvCTjScwgFMncIGh5zCGrOawuO0nMJdJZ3Cybudwo6toMIdraPCs/6jwpY0&#xD;&#xa;psLIUqjCWQmpwonmp8KcE6XCgXGlwqC+psIFHabCBoyownWvqcIkX6jCgnCpwms3qsIW0KfCM7Oj&#xD;&#xa;wnGLosJgcKnCdk6swiIgscKFrbDCtNmowrZmpcIHYqjCCg2pwqUNq8KgHq7ChEGxwhVFs8KU6LLC&#xD;&#xa;dvWzwpVHscI6NrDCMpGwwubcs8Imh7bCPKq6wj7tvMKSbr3ClsG+wq4qwMLXQr7CpAK5whxiuMJp&#xD;&#xa;v7nCwu29wloQvsIXTL3CzjDAwsDTwcL69sHC8urAwtAFwMIkSMLCpJHDwjLOw8JG8sTCmMvDwq7H&#xD;&#xa;wsLOncPC+CDDwkh6wsLU5sPCP23Fwm5Qx8KlYsTCm0XCwnhexcLsTsPCSMPDwjvJw8LMWcHC2XHD&#xD;&#xa;wjj5wsICs8TChWvEwgCywcKDdcHCFnHCwurMxMLlVsTCfrDGwmzqyMKoGsfC7ITIwtqRyMJwzcbC&#xD;&#xa;ppbEwiv5xcIXxsTCzDfCwtSExMKEjcTC8ObDwiJ9yMIQm8vCIkDGwqHyxcIyYcbCyAXIwmyBx8I4&#xD;&#xa;n8PCvyPGwuiKxMJggMfCdL3JwsMhysLi6sXCRa7Ewoykx8Jk/MXC0NfEwtK0xcJQTMTCvvvGwtqJ&#xD;&#xa;xMKmFsTCSbfGwq76x8IQ+sjCsqnIwkJdycIaT8fC0nbHwlf2xsLg/cbCtIHHwsTvxsI0KsbCsqDH&#xD;&#xa;wgLix8JGKcXCyNTDwjDwwsIb98bC6MjJwg6Zy8Kg+cvCaC3HwtIgw8KW7sXC3EHGwmcUxcL++8fC&#xD;&#xa;CWbIwsDoxsJFz8PCJkXFwiD7xcIQDsfC8ljIwrDLxMKkeMLClpHEwiqgyMJcjcjC6krGwl50w8Iy&#xD;&#xa;7sXCWv3HwkQ1xsKUwMPC2K/EwootxMJUqMTCH3LDwuojxcKil8fCjmXIwkLJxcID78TClTvGwhel&#xD;&#xa;xsIca8bC1rbCwk6+wsIQfsfCIlPHwpJExcLWhMbCDNvEwuryxMKklMXCeBDDwolhwcIiasLCQYfE&#xD;&#xa;whUfwsJx4MTCsEnIwkX0xcK+3sbCIqLHwrARx8IWtMTCGAnFwomNxMLfbcTCQIPDwjqww8L+MMTC&#xD;&#xa;mqjHwrBaxMI6YsTCxmvIwqyKycKQaMXCnx7FwkYvx8In6sjCGMzIwuvAxcL8a8XCiBjJwkvwyMKI&#xD;&#xa;qMbCTCTIwvQSy8IxEsvCVT/JwrI3w8LA8sLCCD7EwsxXxMJSjsXCfjXFwqTKxMI/gsPCDozDwtwF&#xD;&#xa;xMISn8bChHvJwlFQyMJYCsbCP4jIwtkBycLiFsrCbCrKwvyTysIWncnC+A3HwuI5x8I8/MbC0hHI&#xD;&#xa;wopJzMLmb83CFkvMwpy/y8Kn7MrCfJrJwuLDyMJKn8bCStTGwpb7ycIMo8nCcivFwsapxcJkx8bC&#xD;&#xa;ALLIwriaycJM3cfC8r/KwlSoy8I4A8vCpFHJwkRrzMIKr87CWD7MwsiJycKW9cfCUjbKwq+YycLi&#xD;&#xa;U8jCROHHwhdWycKaU8nCF7jMwmKaz8L//8zC8tjOwjxezsIUysvCzHLJwiJryMLRm8bCgLjKwsi8&#xD;&#xa;ysIhfszCPETLwqtbyMJGeMfCpRPJwnwZzMJSIs3CqhPMwmDiyMLZYsjCz13KwgwKy8LCi8jCyrTM&#xD;&#xa;wgwxzMK4ZcvC087JwkV2xsLyXsnCjIbLwhwvzcLfrM7CeITKwla3ysLK3cnC/PHFwpScxcIUQ8nC&#xD;&#xa;NJzIwrEsxsJvZcfCXSvIwlKLx8JII8nCvgzKwpnhysJSC8vC9iTKwiA/y8IadczCuDrMwuVaysLO&#xD;&#xa;r8vCXtfJwrZ6ycItucnCtonJwjyTysJkC83CL0nMwkjdyMIBucfCixrLwvSDysKGX8nCsCzMwuas&#xD;&#xa;0cIsnNPCuEvOwtr5y8LMBc7Cr+PTwsQc5MLcOfPCKOj0wjr59cJ0C/fCzg75wkwh+8LmVPnCqz72&#xD;&#xa;wnB+9cLuJvrCtEL4wkp7+MLOfffCDN3zwkaz9sLi8vjCFKr6wgIQ+cI8iPjCBpT4wvR1+MLQI/rC&#xD;&#xa;Ihn8wlQg+sIcLvjCVCz2wsI49MJQ9fbC23H3woy69sL4BfnCIOb2wjwy9cIuGvnCdmb3wj7K9MI+&#xD;&#xa;KPXCJpr2wn7C9cKQDvnCthv7woaP+cLGaPbCTr32wrpN+cIFSPjCDvX4wtD39sJY//TCKGf3wvZI&#xD;&#xa;+cK9YvfCgYf3wjIf+sLMMvfCpjz2wuA6+cII8vbCxDv1wmJG9sLka/rCPrT1wi589cLqjfbC9qP4&#xD;&#xa;wgzJ+MLelPbCGir2wlBC9sKeU/jC/nn3wsYn9sL4QPjCXBj5wopQ+MIaJvnCSB36wgjc+MIMfPfC&#xD;&#xa;W+z1wmYG+MKuxPnCCuD1wjh+9sLDrPfCOPj3wm7h+MJjMvfCxH/2wsXf98KwN/nCKOn5wrLR+sKg&#xD;&#xa;bPvCkFv5wsAu+cL2hffCySz2wmRX+MKiiPjCzFX4wvjB98Jgz/fCxPT4wobP+cL8avjC9r34wnKx&#xD;&#xa;+MK+LPnC3H34wle39cKejfbCNKP2wg5B9sK0H/rCSvz2woqE98JAqfjCBPL4wmKi+MIu2/jCMFD5&#xD;&#xa;wiCM+cKo//nCGqz7wlZN+sKUDfjC0ov4wrIU+sIVpffCP2/3woye98KktPbCTJj2wpH29cL3mvbC&#xD;&#xa;jL/4wti/+MLm3vjCQ9QEwzOmYsI/y13CPNeLwsehjcK+No/Cm+aOwlHvjcIja5HCun6XwoKemMJy&#xD;&#xa;lpPCuQeRwhgMlcJGdZvCTjScwgFMncIGh5zCGrOawuO0nMJdJZ3Cybudwo6toMIdraPCs/6jwpY0&#xD;&#xa;psLIUqjCWQmpwonmp8KcE6XCgXGlwqC+psIFHabCBoyownWvqcIkX6jCgnCpwms3qsIW0KfCM7Oj&#xD;&#xa;wnGLosJgcKnCdk6swiIgscKFrbDCtNmowrZmpcIHYqjCCg2pwqUNq8KgHq7ChEGxwhVFs8KU6LLC&#xD;&#xa;dvWzwpVHscI6NrDCMpGwwubcs8Imh7bCPKq6wj7tvMKSbr3ClsG+wq4qwMLXQr7CpAK5whxiuMJp&#xD;&#xa;v7nCwu29wloQvsIXTL3CzjDAwsDTwcL69sHC8urAwtAFwMIkSMLCpJHDwjLOw8JG8sTCmMvDwq7H&#xD;&#xa;wsLOncPC+CDDwkh6wsLU5sPCP23Fwm5Qx8KlYsTCm0XCwnhexcLsTsPCSMPDwjvJw8LMWcHC2XHD&#xD;&#xa;wjj5wsICs8TChWvEwgCywcKDdcHCFnHCwurMxMLlVsTCfrDGwmzqyMKoGsfC7ITIwtqRyMJwzcbC&#xD;&#xa;ppbEwiv5xcIXxsTCzDfCwtSExMKEjcTC8ObDwiJ9yMIQm8vCIkDGwqHyxcIyYcbCyAXIwmyBx8I4&#xD;&#xa;n8PCvyPGwuiKxMJggMfCdL3JwsMhysLi6sXCRa7Ewoykx8Jk/MXC0NfEwtK0xcJQTMTCvvvGwtqJ&#xD;&#xa;xMKmFsTCSbfGwq76x8IQ+sjCsqnIwkJdycIaT8fC0nbHwlf2xsLg/cbCtIHHwsTvxsI0KsbCsqDH&#xD;&#xa;wgLix8JGKcXCyNTDwjDwwsIb98bC6MjJwg6Zy8Kg+cvCaC3HwtIgw8KW7sXC3EHGwmcUxcL++8fC&#xD;&#xa;CWbIwsDoxsJFz8PCJkXFwiD7xcIQDsfC8ljIwrDLxMKkeMLClpHEwiqgyMJcjcjC6krGwl50w8Iy&#xD;&#xa;7sXCWv3HwkQ1xsKUwMPC2K/EwootxMJUqMTCH3LDwuojxcKil8fCjmXIwkLJxcID78TClTvGwhel&#xD;&#xa;xsIca8bC1rbCwk6+wsIQfsfCIlPHwpJExcLWhMbCDNvEwuryxMKklMXCeBDDwolhwcIiasLCQYfE&#xD;&#xa;whUfwsJx4MTCsEnIwkX0xcK+3sbCIqLHwrARx8IWtMTCGAnFwomNxMLfbcTCQIPDwjqww8L+MMTC&#xD;&#xa;mqjHwrBaxMI6YsTCxmvIwqyKycKQaMXCnx7FwkYvx8In6sjCGMzIwuvAxcL8a8XCiBjJwkvwyMKI&#xD;&#xa;qMbCTCTIwvQSy8IxEsvCVT/JwrI3w8LA8sLCCD7EwsxXxMJSjsXCfjXFwqTKxMI/gsPCDozDwtwF&#xD;&#xa;xMISn8bChHvJwlFQyMJYCsbCP4jIwtkBycLiFsrCbCrKwvyTysIWncnC+A3HwuI5x8I8/MbC0hHI&#xD;&#xa;wopJzMLmb83CFkvMwpy/y8Kn7MrCfJrJwuLDyMJKn8bCStTGwpb7ycIMo8nCcivFwsapxcJkx8bC&#xD;&#xa;ALLIwriaycJM3cfC8r/KwlSoy8I4A8vCpFHJwkRrzMIKr87CWD7MwsiJycKW9cfCUjbKwq+YycLi&#xD;&#xa;U8jCROHHwhdWycKaU8nCF7jMwmKaz8L//8zC8tjOwjxezsIUysvCzHLJwiJryMLRm8bCgLjKwsi8&#xD;&#xa;ysIhfszCPETLwqtbyMJGeMfCpRPJwnwZzMJSIs3CqhPMwmDiyMLZYsjCz13KwgwKy8LCi8jCyrTM&#xD;&#xa;wgwxzMK4ZcvC087JwkV2xsLyXsnCjIbLwhwvzcLfrM7CeITKwla3ysLK3cnC/PHFwpScxcIUQ8nC&#xD;&#xa;NJzIwrEsxsJvZcfCXSvIwlKLx8JII8nCvgzKwpnhysJSC8vC9iTKwiA/y8IadczCuDrMwuVaysLO&#xD;&#xa;r8vCXtfJwrZ6ycItucnCtonJwjyTysJkC83CL0nMwkjdyMIBucfCixrLwvSDysKGX8nCsCzMwuas&#xD;&#xa;0cIsnNPCuEvOwtr5y8LMBc7Cr+PTwsQc5MLcOfPCKOj0wjr59cJ0C/fCzg75wkwh+8LmVPnCqz72&#xD;&#xa;wnB+9cLuJvrCtEL4wkp7+MLOfffCDN3zwkaz9sLi8vjCFKr6wgIQ+cI8iPjCBpT4wvR1+MLQI/rC&#xD;&#xa;Ihn8wlQg+sIcLvjCVCz2wsI49MJQ9fbC23H3woy69sL4BfnCIOb2wjwy9cIuGvnCdmb3wj7K9MI+&#xD;&#xa;KPXCJpr2wn7C9cKQDvnCthv7woaP+cLGaPbCTr32wrpN+cIFSPjCDvX4wtD39sJY//TCKGf3wvZI&#xD;&#xa;+cK9YvfCgYf3wjIf+sLMMvfCpjz2wuA6+cII8vbCxDv1wmJG9sLka/rCPrT1wi589cLqjfbC9qP4&#xD;&#xa;wgzJ+MLelPbCGir2wlBC9sKeU/jC/nn3wsYn9sL4QPjCXBj5wopQ+MIaJvnCSB36wgjc+MIMfPfC&#xD;&#xa;W+z1wmYG+MKuxPnCCuD1wjh+9sLDrPfCOPj3wm7h+MJjMvfCxH/2wsXf98KwN/nCKOn5wrLR+sKg&#xD;&#xa;bPvCkFv5wsAu+cL2hffCySz2wmRX+MKiiPjCzFX4wvjB98Jgz/fCxPT4wobP+cL8avjC9r34wnKx&#xD;&#xa;+MK+LPnC3H34wle39cKejfbCNKP2wg5B9sK0H/rCSvz2woqE98JAqfjCBPL4wmKi+MIu2/jCMFD5&#xD;&#xa;wiCM+cKo//nCGqz7wlZN+sKUDfjC0ov4wrIU+sIVpffCP2/3woye98KktPbCTJj2wpH29cL3mvbC&#xD;&#xa;jL/4wti/+MLm3vjCQ9QE" leadInLength="0/1"  />
            </Keyframes>
           </Parameter>
           </Parameters>
          </GenericEffect>
          <GenericEffect id="4689" name = "WinCompression" >
           <Parameters>
           <InterpolatingParam id="4690" interp="linr"  time="0/1" value="0" leadInLength="0/1"   name="attack"/>
           <InterpolatingParam id="4691" interp="linr"  time="0/1" value="9" leadInLength="0/1"   name="gain"/>
           <Parameter id="4692"   name="preset">
            <Keyframes>
            <Keyframe id="4693"  time="0/1" value="1" leadInLength="0/1"  />
            </Keyframes>
           </Parameter>
           <InterpolatingParam id="4694" interp="linr"  time="0/1" value="10" leadInLength="0/1"   name="ratio"/>
           <InterpolatingParam id="4695" interp="linr"  time="0/1" value="3500" leadInLength="0/1"   name="release"/>
           <InterpolatingParam id="4696" interp="linr"  time="0/1" value="-20" leadInLength="0/1"   name="threshold"/>
           </Parameters>
          </GenericEffect>
          <GenericEffect id="4697" name = "Declipper" >
           <Parameters>
           <InterpolatingParam id="4698" interp="linr"  time="0/1" value="-1" leadInLength="0/1"   name="sensitivity"/>
           </Parameters>
          </GenericEffect>
          <GenericEffect id="4699" name = "Declicker" >
           <Parameters>
           <InterpolatingParam id="4700" interp="linr"  time="0/1" value="3" leadInLength="0/1"   name="sensitivity"/>
           </Parameters>
          </GenericEffect>
         </Effects>
         <Attributes>
          <Attribute id="4701" value="" name="ident"/>
          <Attribute id="4702" value="44100" name="sampleRate"/>
          <Attribute id="4703" value="16" name="bitDepth"/>
          <Attribute id="4704" value="1" name="gain"/>
          <Attribute id="4705" value="0" name="mixToMono"/>
         </Attributes>
         <MetaData>
          <entry key="WinSubProjectDisplayName" val=""/>
         </MetaData>
        </AMFile>
        <AMFile id="4706" start="6026" duration="99" scalar="1/1" mediaStart="8278/1" mediaDuration="99/1" trackNumber="0" src="22" channelNumber="0" >
         <Parameters>
          <InterpolatingParam id="4707" interp="linr"  name="volume">
           <Keyframes>
           <Keyframe id="4708"  time="0/1" value="1" leadInLength="0/1"  />
           <Keyframe id="4709"  time="3301/1" value="1" leadInLength="0/1"  />
           <Keyframe id="4710"  time="3302/1" value="0.80000000000000004" leadInLength="0/1"  />
           <Keyframe id="4711"  time="14568/1" value="0.80000000000000004" leadInLength="0/1"  />
           <Keyframe id="4712"  time="14569/1" value="1" leadInLength="0/1"  />
           </Keyframes>
          </InterpolatingParam>
          <Parameter id="4713"  name="captions"/>
         </Parameters>
         <Effects>
          <GenericEffect id="4714" name = "NoiseReduction" >
           <Parameters>
           <InterpolatingParam id="4715" interp="linr"  time="0/1" value="20" leadInLength="0/1"   name="denoiserAmount"/>
           <InterpolatingParam id="4716" interp="linr"  time="0/1" value="0" leadInLength="0/1"   name="denoiserThreshold"/>
           <Parameter id="4717"   name="noiseProfile">
            <Keyframes>
            <Keyframe id="4718"  time="0/1" value="FBAAAAIAAABErAAAAQIAADOmYsI/y13CPNeLwsehjcK+No/Cm+aOwlHvjcIja5HCun6XwoKemMJy&#xD;&#xa;lpPCuQeRwhgMlcJGdZvCTjScwgFMncIGh5zCGrOawuO0nMJdJZ3Cybudwo6toMIdraPCs/6jwpY0&#xD;&#xa;psLIUqjCWQmpwonmp8KcE6XCgXGlwqC+psIFHabCBoyownWvqcIkX6jCgnCpwms3qsIW0KfCM7Oj&#xD;&#xa;wnGLosJgcKnCdk6swiIgscKFrbDCtNmowrZmpcIHYqjCCg2pwqUNq8KgHq7ChEGxwhVFs8KU6LLC&#xD;&#xa;dvWzwpVHscI6NrDCMpGwwubcs8Imh7bCPKq6wj7tvMKSbr3ClsG+wq4qwMLXQr7CpAK5whxiuMJp&#xD;&#xa;v7nCwu29wloQvsIXTL3CzjDAwsDTwcL69sHC8urAwtAFwMIkSMLCpJHDwjLOw8JG8sTCmMvDwq7H&#xD;&#xa;wsLOncPC+CDDwkh6wsLU5sPCP23Fwm5Qx8KlYsTCm0XCwnhexcLsTsPCSMPDwjvJw8LMWcHC2XHD&#xD;&#xa;wjj5wsICs8TChWvEwgCywcKDdcHCFnHCwurMxMLlVsTCfrDGwmzqyMKoGsfC7ITIwtqRyMJwzcbC&#xD;&#xa;ppbEwiv5xcIXxsTCzDfCwtSExMKEjcTC8ObDwiJ9yMIQm8vCIkDGwqHyxcIyYcbCyAXIwmyBx8I4&#xD;&#xa;n8PCvyPGwuiKxMJggMfCdL3JwsMhysLi6sXCRa7Ewoykx8Jk/MXC0NfEwtK0xcJQTMTCvvvGwtqJ&#xD;&#xa;xMKmFsTCSbfGwq76x8IQ+sjCsqnIwkJdycIaT8fC0nbHwlf2xsLg/cbCtIHHwsTvxsI0KsbCsqDH&#xD;&#xa;wgLix8JGKcXCyNTDwjDwwsIb98bC6MjJwg6Zy8Kg+cvCaC3HwtIgw8KW7sXC3EHGwmcUxcL++8fC&#xD;&#xa;CWbIwsDoxsJFz8PCJkXFwiD7xcIQDsfC8ljIwrDLxMKkeMLClpHEwiqgyMJcjcjC6krGwl50w8Iy&#xD;&#xa;7sXCWv3HwkQ1xsKUwMPC2K/EwootxMJUqMTCH3LDwuojxcKil8fCjmXIwkLJxcID78TClTvGwhel&#xD;&#xa;xsIca8bC1rbCwk6+wsIQfsfCIlPHwpJExcLWhMbCDNvEwuryxMKklMXCeBDDwolhwcIiasLCQYfE&#xD;&#xa;whUfwsJx4MTCsEnIwkX0xcK+3sbCIqLHwrARx8IWtMTCGAnFwomNxMLfbcTCQIPDwjqww8L+MMTC&#xD;&#xa;mqjHwrBaxMI6YsTCxmvIwqyKycKQaMXCnx7FwkYvx8In6sjCGMzIwuvAxcL8a8XCiBjJwkvwyMKI&#xD;&#xa;qMbCTCTIwvQSy8IxEsvCVT/JwrI3w8LA8sLCCD7EwsxXxMJSjsXCfjXFwqTKxMI/gsPCDozDwtwF&#xD;&#xa;xMISn8bChHvJwlFQyMJYCsbCP4jIwtkBycLiFsrCbCrKwvyTysIWncnC+A3HwuI5x8I8/MbC0hHI&#xD;&#xa;wopJzMLmb83CFkvMwpy/y8Kn7MrCfJrJwuLDyMJKn8bCStTGwpb7ycIMo8nCcivFwsapxcJkx8bC&#xD;&#xa;ALLIwriaycJM3cfC8r/KwlSoy8I4A8vCpFHJwkRrzMIKr87CWD7MwsiJycKW9cfCUjbKwq+YycLi&#xD;&#xa;U8jCROHHwhdWycKaU8nCF7jMwmKaz8L//8zC8tjOwjxezsIUysvCzHLJwiJryMLRm8bCgLjKwsi8&#xD;&#xa;ysIhfszCPETLwqtbyMJGeMfCpRPJwnwZzMJSIs3CqhPMwmDiyMLZYsjCz13KwgwKy8LCi8jCyrTM&#xD;&#xa;wgwxzMK4ZcvC087JwkV2xsLyXsnCjIbLwhwvzcLfrM7CeITKwla3ysLK3cnC/PHFwpScxcIUQ8nC&#xD;&#xa;NJzIwrEsxsJvZcfCXSvIwlKLx8JII8nCvgzKwpnhysJSC8vC9iTKwiA/y8IadczCuDrMwuVaysLO&#xD;&#xa;r8vCXtfJwrZ6ycItucnCtonJwjyTysJkC83CL0nMwkjdyMIBucfCixrLwvSDysKGX8nCsCzMwuas&#xD;&#xa;0cIsnNPCuEvOwtr5y8LMBc7Cr+PTwsQc5MLcOfPCKOj0wjr59cJ0C/fCzg75wkwh+8LmVPnCqz72&#xD;&#xa;wnB+9cLuJvrCtEL4wkp7+MLOfffCDN3zwkaz9sLi8vjCFKr6wgIQ+cI8iPjCBpT4wvR1+MLQI/rC&#xD;&#xa;Ihn8wlQg+sIcLvjCVCz2wsI49MJQ9fbC23H3woy69sL4BfnCIOb2wjwy9cIuGvnCdmb3wj7K9MI+&#xD;&#xa;KPXCJpr2wn7C9cKQDvnCthv7woaP+cLGaPbCTr32wrpN+cIFSPjCDvX4wtD39sJY//TCKGf3wvZI&#xD;&#xa;+cK9YvfCgYf3wjIf+sLMMvfCpjz2wuA6+cII8vbCxDv1wmJG9sLka/rCPrT1wi589cLqjfbC9qP4&#xD;&#xa;wgzJ+MLelPbCGir2wlBC9sKeU/jC/nn3wsYn9sL4QPjCXBj5wopQ+MIaJvnCSB36wgjc+MIMfPfC&#xD;&#xa;W+z1wmYG+MKuxPnCCuD1wjh+9sLDrPfCOPj3wm7h+MJjMvfCxH/2wsXf98KwN/nCKOn5wrLR+sKg&#xD;&#xa;bPvCkFv5wsAu+cL2hffCySz2wmRX+MKiiPjCzFX4wvjB98Jgz/fCxPT4wobP+cL8avjC9r34wnKx&#xD;&#xa;+MK+LPnC3H34wle39cKejfbCNKP2wg5B9sK0H/rCSvz2woqE98JAqfjCBPL4wmKi+MIu2/jCMFD5&#xD;&#xa;wiCM+cKo//nCGqz7wlZN+sKUDfjC0ov4wrIU+sIVpffCP2/3woye98KktPbCTJj2wpH29cL3mvbC&#xD;&#xa;jL/4wti/+MLm3vjCQ9QEwzOmYsI/y13CPNeLwsehjcK+No/Cm+aOwlHvjcIja5HCun6XwoKemMJy&#xD;&#xa;lpPCuQeRwhgMlcJGdZvCTjScwgFMncIGh5zCGrOawuO0nMJdJZ3Cybudwo6toMIdraPCs/6jwpY0&#xD;&#xa;psLIUqjCWQmpwonmp8KcE6XCgXGlwqC+psIFHabCBoyownWvqcIkX6jCgnCpwms3qsIW0KfCM7Oj&#xD;&#xa;wnGLosJgcKnCdk6swiIgscKFrbDCtNmowrZmpcIHYqjCCg2pwqUNq8KgHq7ChEGxwhVFs8KU6LLC&#xD;&#xa;dvWzwpVHscI6NrDCMpGwwubcs8Imh7bCPKq6wj7tvMKSbr3ClsG+wq4qwMLXQr7CpAK5whxiuMJp&#xD;&#xa;v7nCwu29wloQvsIXTL3CzjDAwsDTwcL69sHC8urAwtAFwMIkSMLCpJHDwjLOw8JG8sTCmMvDwq7H&#xD;&#xa;wsLOncPC+CDDwkh6wsLU5sPCP23Fwm5Qx8KlYsTCm0XCwnhexcLsTsPCSMPDwjvJw8LMWcHC2XHD&#xD;&#xa;wjj5wsICs8TChWvEwgCywcKDdcHCFnHCwurMxMLlVsTCfrDGwmzqyMKoGsfC7ITIwtqRyMJwzcbC&#xD;&#xa;ppbEwiv5xcIXxsTCzDfCwtSExMKEjcTC8ObDwiJ9yMIQm8vCIkDGwqHyxcIyYcbCyAXIwmyBx8I4&#xD;&#xa;n8PCvyPGwuiKxMJggMfCdL3JwsMhysLi6sXCRa7Ewoykx8Jk/MXC0NfEwtK0xcJQTMTCvvvGwtqJ&#xD;&#xa;xMKmFsTCSbfGwq76x8IQ+sjCsqnIwkJdycIaT8fC0nbHwlf2xsLg/cbCtIHHwsTvxsI0KsbCsqDH&#xD;&#xa;wgLix8JGKcXCyNTDwjDwwsIb98bC6MjJwg6Zy8Kg+cvCaC3HwtIgw8KW7sXC3EHGwmcUxcL++8fC&#xD;&#xa;CWbIwsDoxsJFz8PCJkXFwiD7xcIQDsfC8ljIwrDLxMKkeMLClpHEwiqgyMJcjcjC6krGwl50w8Iy&#xD;&#xa;7sXCWv3HwkQ1xsKUwMPC2K/EwootxMJUqMTCH3LDwuojxcKil8fCjmXIwkLJxcID78TClTvGwhel&#xD;&#xa;xsIca8bC1rbCwk6+wsIQfsfCIlPHwpJExcLWhMbCDNvEwuryxMKklMXCeBDDwolhwcIiasLCQYfE&#xD;&#xa;whUfwsJx4MTCsEnIwkX0xcK+3sbCIqLHwrARx8IWtMTCGAnFwomNxMLfbcTCQIPDwjqww8L+MMTC&#xD;&#xa;mqjHwrBaxMI6YsTCxmvIwqyKycKQaMXCnx7FwkYvx8In6sjCGMzIwuvAxcL8a8XCiBjJwkvwyMKI&#xD;&#xa;qMbCTCTIwvQSy8IxEsvCVT/JwrI3w8LA8sLCCD7EwsxXxMJSjsXCfjXFwqTKxMI/gsPCDozDwtwF&#xD;&#xa;xMISn8bChHvJwlFQyMJYCsbCP4jIwtkBycLiFsrCbCrKwvyTysIWncnC+A3HwuI5x8I8/MbC0hHI&#xD;&#xa;wopJzMLmb83CFkvMwpy/y8Kn7MrCfJrJwuLDyMJKn8bCStTGwpb7ycIMo8nCcivFwsapxcJkx8bC&#xD;&#xa;ALLIwriaycJM3cfC8r/KwlSoy8I4A8vCpFHJwkRrzMIKr87CWD7MwsiJycKW9cfCUjbKwq+YycLi&#xD;&#xa;U8jCROHHwhdWycKaU8nCF7jMwmKaz8L//8zC8tjOwjxezsIUysvCzHLJwiJryMLRm8bCgLjKwsi8&#xD;&#xa;ysIhfszCPETLwqtbyMJGeMfCpRPJwnwZzMJSIs3CqhPMwmDiyMLZYsjCz13KwgwKy8LCi8jCyrTM&#xD;&#xa;wgwxzMK4ZcvC087JwkV2xsLyXsnCjIbLwhwvzcLfrM7CeITKwla3ysLK3cnC/PHFwpScxcIUQ8nC&#xD;&#xa;NJzIwrEsxsJvZcfCXSvIwlKLx8JII8nCvgzKwpnhysJSC8vC9iTKwiA/y8IadczCuDrMwuVaysLO&#xD;&#xa;r8vCXtfJwrZ6ycItucnCtonJwjyTysJkC83CL0nMwkjdyMIBucfCixrLwvSDysKGX8nCsCzMwuas&#xD;&#xa;0cIsnNPCuEvOwtr5y8LMBc7Cr+PTwsQc5MLcOfPCKOj0wjr59cJ0C/fCzg75wkwh+8LmVPnCqz72&#xD;&#xa;wnB+9cLuJvrCtEL4wkp7+MLOfffCDN3zwkaz9sLi8vjCFKr6wgIQ+cI8iPjCBpT4wvR1+MLQI/rC&#xD;&#xa;Ihn8wlQg+sIcLvjCVCz2wsI49MJQ9fbC23H3woy69sL4BfnCIOb2wjwy9cIuGvnCdmb3wj7K9MI+&#xD;&#xa;KPXCJpr2wn7C9cKQDvnCthv7woaP+cLGaPbCTr32wrpN+cIFSPjCDvX4wtD39sJY//TCKGf3wvZI&#xD;&#xa;+cK9YvfCgYf3wjIf+sLMMvfCpjz2wuA6+cII8vbCxDv1wmJG9sLka/rCPrT1wi589cLqjfbC9qP4&#xD;&#xa;wgzJ+MLelPbCGir2wlBC9sKeU/jC/nn3wsYn9sL4QPjCXBj5wopQ+MIaJvnCSB36wgjc+MIMfPfC&#xD;&#xa;W+z1wmYG+MKuxPnCCuD1wjh+9sLDrPfCOPj3wm7h+MJjMvfCxH/2wsXf98KwN/nCKOn5wrLR+sKg&#xD;&#xa;bPvCkFv5wsAu+cL2hffCySz2wmRX+MKiiPjCzFX4wvjB98Jgz/fCxPT4wobP+cL8avjC9r34wnKx&#xD;&#xa;+MK+LPnC3H34wle39cKejfbCNKP2wg5B9sK0H/rCSvz2woqE98JAqfjCBPL4wmKi+MIu2/jCMFD5&#xD;&#xa;wiCM+cKo//nCGqz7wlZN+sKUDfjC0ov4wrIU+sIVpffCP2/3woye98KktPbCTJj2wpH29cL3mvbC&#xD;&#xa;jL/4wti/+MLm3vjCQ9QE" leadInLength="0/1"  />
            </Keyframes>
           </Parameter>
           </Parameters>
          </GenericEffect>
          <GenericEffect id="4719" name = "WinCompression" >
           <Parameters>
           <InterpolatingParam id="4720" interp="linr"  time="0/1" value="0" leadInLength="0/1"   name="attack"/>
           <InterpolatingParam id="4721" interp="linr"  time="0/1" value="9" leadInLength="0/1"   name="gain"/>
           <Parameter id="4722"   name="preset">
            <Keyframes>
            <Keyframe id="4723"  time="0/1" value="1" leadInLength="0/1"  />
            </Keyframes>
           </Parameter>
           <InterpolatingParam id="4724" interp="linr"  time="0/1" value="10" leadInLength="0/1"   name="ratio"/>
           <InterpolatingParam id="4725" interp="linr"  time="0/1" value="3500" leadInLength="0/1"   name="release"/>
           <InterpolatingParam id="4726" interp="linr"  time="0/1" value="-20" leadInLength="0/1"   name="threshold"/>
           </Parameters>
          </GenericEffect>
          <GenericEffect id="4727" name = "Declipper" >
           <Parameters>
           <InterpolatingParam id="4728" interp="linr"  time="0/1" value="-1" leadInLength="0/1"   name="sensitivity"/>
           </Parameters>
          </GenericEffect>
          <GenericEffect id="4729" name = "Declicker" >
           <Parameters>
           <InterpolatingParam id="4730" interp="linr"  time="0/1" value="3" leadInLength="0/1"   name="sensitivity"/>
           </Parameters>
          </GenericEffect>
         </Effects>
         <Attributes>
          <Attribute id="4731" value="" name="ident"/>
          <Attribute id="4732" value="44100" name="sampleRate"/>
          <Attribute id="4733" value="16" name="bitDepth"/>
          <Attribute id="4734" value="1" name="gain"/>
          <Attribute id="4735" value="0" name="mixToMono"/>
         </Attributes>
         <MetaData>
          <entry key="WinSubProjectDisplayName" val=""/>
         </MetaData>
        </AMFile>
        <StitchedMedia id="4736" start="6147" duration="139" scalar="1/1" mediaStart="8745/1" mediaDuration="139/1" minMediaStart="0/1" >
         <Transformer>
          <VectorParam id="4737"  name="translation">
           <InterpolatingParam id="4738" interp="linr"  time="0/1" value="0" leadInLength="0/1"  />
           <InterpolatingParam id="4739" interp="linr"  time="0/1" value="0" leadInLength="0/1"  />
           <InterpolatingParam id="4740" interp="linr"  time="0/1" value="0" leadInLength="0/1"  />
          </VectorParam>
          <VectorParam id="4741"  name="rotation">
           <InterpolatingParam id="4742" interp="linr"  time="0/1" value="0" leadInLength="0/1"  />
           <InterpolatingParam id="4743" interp="linr"  time="0/1" value="0" leadInLength="0/1"  />
           <InterpolatingParam id="4744" interp="linr"  time="0/1" value="0" leadInLength="0/1"  />
          </VectorParam>
          <VectorParam id="4745"  name="shear">
           <InterpolatingParam id="4746" interp="linr"  time="0/1" value="0" leadInLength="0/1"  />
           <InterpolatingParam id="4747" interp="linr"  time="0/1" value="0" leadInLength="0/1"  />
           <InterpolatingParam id="4748" interp="linr"  time="0/1" value="0" leadInLength="0/1"  />
          </VectorParam>
          <VectorParam id="4749"  name="scale">
           <InterpolatingParam id="4750" interp="linr"  time="0/1" value="1" leadInLength="0/1"  />
           <InterpolatingParam id="4751" interp="linr"  time="0/1" value="1" leadInLength="0/1"  />
           <InterpolatingParam id="4752" interp="linr"  time="0/1" value="1" leadInLength="0/1"  />
          </VectorParam>
          <VectorParam id="4753"  name="anchor">
           <InterpolatingParam id="4754" interp="linr"  time="0/1" value="0" leadInLength="0/1"  />
           <InterpolatingParam id="4755" interp="linr"  time="0/1" value="0" leadInLength="0/1"  />
           <InterpolatingParam id="4756" interp="linr"  time="0/1" value="0" leadInLength="0/1"  />
          </VectorParam>
         </Transformer>
         <Parameters>
          <InterpolatingParam id="4757" interp="linr"  time="0/1" value="1" leadInLength="0/1"  name="cursorOpacity"/>
          <InterpolatingParam id="4758" interp="linr"  time="0/1" value="1" leadInLength="0/1"  name="cursorScale"/>
          <InterpolatingParam id="4759" interp="linr"  name="volume">
           <Keyframes>
           <Keyframe id="4760"  time="0/1" value="1" leadInLength="0/1"  />
           <Keyframe id="4761"  time="3301/1" value="1" leadInLength="0/1"  />
           <Keyframe id="4762"  time="3302/1" value="0.80000000000000004" leadInLength="0/1"  />
           <Keyframe id="4763"  time="14568/1" value="0.80000000000000004" leadInLength="0/1"  />
           <Keyframe id="4764"  time="14569/1" value="1" leadInLength="0/1"  />
           </Keyframes>
          </InterpolatingParam>
          <Parameter id="4765"  name="captions"/>
         </Parameters>
         <Effects>
          <GenericEffect id="4766" name = "NoiseReduction" >
           <Parameters>
           <InterpolatingParam id="4767" interp="linr"  time="0/1" value="20" leadInLength="0/1"   name="denoiserAmount"/>
           <InterpolatingParam id="4768" interp="linr"  time="0/1" value="0" leadInLength="0/1"   name="denoiserThreshold"/>
           <Parameter id="4769"   name="noiseProfile">
            <Keyframes>
            <Keyframe id="4770"  time="0/1" value="FBAAAAIAAABErAAAAQIAADOmYsI/y13CPNeLwsehjcK+No/Cm+aOwlHvjcIja5HCun6XwoKemMJy&#xD;&#xa;lpPCuQeRwhgMlcJGdZvCTjScwgFMncIGh5zCGrOawuO0nMJdJZ3Cybudwo6toMIdraPCs/6jwpY0&#xD;&#xa;psLIUqjCWQmpwonmp8KcE6XCgXGlwqC+psIFHabCBoyownWvqcIkX6jCgnCpwms3qsIW0KfCM7Oj&#xD;&#xa;wnGLosJgcKnCdk6swiIgscKFrbDCtNmowrZmpcIHYqjCCg2pwqUNq8KgHq7ChEGxwhVFs8KU6LLC&#xD;&#xa;dvWzwpVHscI6NrDCMpGwwubcs8Imh7bCPKq6wj7tvMKSbr3ClsG+wq4qwMLXQr7CpAK5whxiuMJp&#xD;&#xa;v7nCwu29wloQvsIXTL3CzjDAwsDTwcL69sHC8urAwtAFwMIkSMLCpJHDwjLOw8JG8sTCmMvDwq7H&#xD;&#xa;wsLOncPC+CDDwkh6wsLU5sPCP23Fwm5Qx8KlYsTCm0XCwnhexcLsTsPCSMPDwjvJw8LMWcHC2XHD&#xD;&#xa;wjj5wsICs8TChWvEwgCywcKDdcHCFnHCwurMxMLlVsTCfrDGwmzqyMKoGsfC7ITIwtqRyMJwzcbC&#xD;&#xa;ppbEwiv5xcIXxsTCzDfCwtSExMKEjcTC8ObDwiJ9yMIQm8vCIkDGwqHyxcIyYcbCyAXIwmyBx8I4&#xD;&#xa;n8PCvyPGwuiKxMJggMfCdL3JwsMhysLi6sXCRa7Ewoykx8Jk/MXC0NfEwtK0xcJQTMTCvvvGwtqJ&#xD;&#xa;xMKmFsTCSbfGwq76x8IQ+sjCsqnIwkJdycIaT8fC0nbHwlf2xsLg/cbCtIHHwsTvxsI0KsbCsqDH&#xD;&#xa;wgLix8JGKcXCyNTDwjDwwsIb98bC6MjJwg6Zy8Kg+cvCaC3HwtIgw8KW7sXC3EHGwmcUxcL++8fC&#xD;&#xa;CWbIwsDoxsJFz8PCJkXFwiD7xcIQDsfC8ljIwrDLxMKkeMLClpHEwiqgyMJcjcjC6krGwl50w8Iy&#xD;&#xa;7sXCWv3HwkQ1xsKUwMPC2K/EwootxMJUqMTCH3LDwuojxcKil8fCjmXIwkLJxcID78TClTvGwhel&#xD;&#xa;xsIca8bC1rbCwk6+wsIQfsfCIlPHwpJExcLWhMbCDNvEwuryxMKklMXCeBDDwolhwcIiasLCQYfE&#xD;&#xa;whUfwsJx4MTCsEnIwkX0xcK+3sbCIqLHwrARx8IWtMTCGAnFwomNxMLfbcTCQIPDwjqww8L+MMTC&#xD;&#xa;mqjHwrBaxMI6YsTCxmvIwqyKycKQaMXCnx7FwkYvx8In6sjCGMzIwuvAxcL8a8XCiBjJwkvwyMKI&#xD;&#xa;qMbCTCTIwvQSy8IxEsvCVT/JwrI3w8LA8sLCCD7EwsxXxMJSjsXCfjXFwqTKxMI/gsPCDozDwtwF&#xD;&#xa;xMISn8bChHvJwlFQyMJYCsbCP4jIwtkBycLiFsrCbCrKwvyTysIWncnC+A3HwuI5x8I8/MbC0hHI&#xD;&#xa;wopJzMLmb83CFkvMwpy/y8Kn7MrCfJrJwuLDyMJKn8bCStTGwpb7ycIMo8nCcivFwsapxcJkx8bC&#xD;&#xa;ALLIwriaycJM3cfC8r/KwlSoy8I4A8vCpFHJwkRrzMIKr87CWD7MwsiJycKW9cfCUjbKwq+YycLi&#xD;&#xa;U8jCROHHwhdWycKaU8nCF7jMwmKaz8L//8zC8tjOwjxezsIUysvCzHLJwiJryMLRm8bCgLjKwsi8&#xD;&#xa;ysIhfszCPETLwqtbyMJGeMfCpRPJwnwZzMJSIs3CqhPMwmDiyMLZYsjCz13KwgwKy8LCi8jCyrTM&#xD;&#xa;wgwxzMK4ZcvC087JwkV2xsLyXsnCjIbLwhwvzcLfrM7CeITKwla3ysLK3cnC/PHFwpScxcIUQ8nC&#xD;&#xa;NJzIwrEsxsJvZcfCXSvIwlKLx8JII8nCvgzKwpnhysJSC8vC9iTKwiA/y8IadczCuDrMwuVaysLO&#xD;&#xa;r8vCXtfJwrZ6ycItucnCtonJwjyTysJkC83CL0nMwkjdyMIBucfCixrLwvSDysKGX8nCsCzMwuas&#xD;&#xa;0cIsnNPCuEvOwtr5y8LMBc7Cr+PTwsQc5MLcOfPCKOj0wjr59cJ0C/fCzg75wkwh+8LmVPnCqz72&#xD;&#xa;wnB+9cLuJvrCtEL4wkp7+MLOfffCDN3zwkaz9sLi8vjCFKr6wgIQ+cI8iPjCBpT4wvR1+MLQI/rC&#xD;&#xa;Ihn8wlQg+sIcLvjCVCz2wsI49MJQ9fbC23H3woy69sL4BfnCIOb2wjwy9cIuGvnCdmb3wj7K9MI+&#xD;&#xa;KPXCJpr2wn7C9cKQDvnCthv7woaP+cLGaPbCTr32wrpN+cIFSPjCDvX4wtD39sJY//TCKGf3wvZI&#xD;&#xa;+cK9YvfCgYf3wjIf+sLMMvfCpjz2wuA6+cII8vbCxDv1wmJG9sLka/rCPrT1wi589cLqjfbC9qP4&#xD;&#xa;wgzJ+MLelPbCGir2wlBC9sKeU/jC/nn3wsYn9sL4QPjCXBj5wopQ+MIaJvnCSB36wgjc+MIMfPfC&#xD;&#xa;W+z1wmYG+MKuxPnCCuD1wjh+9sLDrPfCOPj3wm7h+MJjMvfCxH/2wsXf98KwN/nCKOn5wrLR+sKg&#xD;&#xa;bPvCkFv5wsAu+cL2hffCySz2wmRX+MKiiPjCzFX4wvjB98Jgz/fCxPT4wobP+cL8avjC9r34wnKx&#xD;&#xa;+MK+LPnC3H34wle39cKejfbCNKP2wg5B9sK0H/rCSvz2woqE98JAqfjCBPL4wmKi+MIu2/jCMFD5&#xD;&#xa;wiCM+cKo//nCGqz7wlZN+sKUDfjC0ov4wrIU+sIVpffCP2/3woye98KktPbCTJj2wpH29cL3mvbC&#xD;&#xa;jL/4wti/+MLm3vjCQ9QEwzOmYsI/y13CPNeLwsehjcK+No/Cm+aOwlHvjcIja5HCun6XwoKemMJy&#xD;&#xa;lpPCuQeRwhgMlcJGdZvCTjScwgFMncIGh5zCGrOawuO0nMJdJZ3Cybudwo6toMIdraPCs/6jwpY0&#xD;&#xa;psLIUqjCWQmpwonmp8KcE6XCgXGlwqC+psIFHabCBoyownWvqcIkX6jCgnCpwms3qsIW0KfCM7Oj&#xD;&#xa;wnGLosJgcKnCdk6swiIgscKFrbDCtNmowrZmpcIHYqjCCg2pwqUNq8KgHq7ChEGxwhVFs8KU6LLC&#xD;&#xa;dvWzwpVHscI6NrDCMpGwwubcs8Imh7bCPKq6wj7tvMKSbr3ClsG+wq4qwMLXQr7CpAK5whxiuMJp&#xD;&#xa;v7nCwu29wloQvsIXTL3CzjDAwsDTwcL69sHC8urAwtAFwMIkSMLCpJHDwjLOw8JG8sTCmMvDwq7H&#xD;&#xa;wsLOncPC+CDDwkh6wsLU5sPCP23Fwm5Qx8KlYsTCm0XCwnhexcLsTsPCSMPDwjvJw8LMWcHC2XHD&#xD;&#xa;wjj5wsICs8TChWvEwgCywcKDdcHCFnHCwurMxMLlVsTCfrDGwmzqyMKoGsfC7ITIwtqRyMJwzcbC&#xD;&#xa;ppbEwiv5xcIXxsTCzDfCwtSExMKEjcTC8ObDwiJ9yMIQm8vCIkDGwqHyxcIyYcbCyAXIwmyBx8I4&#xD;&#xa;n8PCvyPGwuiKxMJggMfCdL3JwsMhysLi6sXCRa7Ewoykx8Jk/MXC0NfEwtK0xcJQTMTCvvvGwtqJ&#xD;&#xa;xMKmFsTCSbfGwq76x8IQ+sjCsqnIwkJdycIaT8fC0nbHwlf2xsLg/cbCtIHHwsTvxsI0KsbCsqDH&#xD;&#xa;wgLix8JGKcXCyNTDwjDwwsIb98bC6MjJwg6Zy8Kg+cvCaC3HwtIgw8KW7sXC3EHGwmcUxcL++8fC&#xD;&#xa;CWbIwsDoxsJFz8PCJkXFwiD7xcIQDsfC8ljIwrDLxMKkeMLClpHEwiqgyMJcjcjC6krGwl50w8Iy&#xD;&#xa;7sXCWv3HwkQ1xsKUwMPC2K/EwootxMJUqMTCH3LDwuojxcKil8fCjmXIwkLJxcID78TClTvGwhel&#xD;&#xa;xsIca8bC1rbCwk6+wsIQfsfCIlPHwpJExcLWhMbCDNvEwuryxMKklMXCeBDDwolhwcIiasLCQYfE&#xD;&#xa;whUfwsJx4MTCsEnIwkX0xcK+3sbCIqLHwrARx8IWtMTCGAnFwomNxMLfbcTCQIPDwjqww8L+MMTC&#xD;&#xa;mqjHwrBaxMI6YsTCxmvIwqyKycKQaMXCnx7FwkYvx8In6sjCGMzIwuvAxcL8a8XCiBjJwkvwyMKI&#xD;&#xa;qMbCTCTIwvQSy8IxEsvCVT/JwrI3w8LA8sLCCD7EwsxXxMJSjsXCfjXFwqTKxMI/gsPCDozDwtwF&#xD;&#xa;xMISn8bChHvJwlFQyMJYCsbCP4jIwtkBycLiFsrCbCrKwvyTysIWncnC+A3HwuI5x8I8/MbC0hHI&#xD;&#xa;wopJzMLmb83CFkvMwpy/y8Kn7MrCfJrJwuLDyMJKn8bCStTGwpb7ycIMo8nCcivFwsapxcJkx8bC&#xD;&#xa;ALLIwriaycJM3cfC8r/KwlSoy8I4A8vCpFHJwkRrzMIKr87CWD7MwsiJycKW9cfCUjbKwq+YycLi&#xD;&#xa;U8jCROHHwhdWycKaU8nCF7jMwmKaz8L//8zC8tjOwjxezsIUysvCzHLJwiJryMLRm8bCgLjKwsi8&#xD;&#xa;ysIhfszCPETLwqtbyMJGeMfCpRPJwnwZzMJSIs3CqhPMwmDiyMLZYsjCz13KwgwKy8LCi8jCyrTM&#xD;&#xa;wgwxzMK4ZcvC087JwkV2xsLyXsnCjIbLwhwvzcLfrM7CeITKwla3ysLK3cnC/PHFwpScxcIUQ8nC&#xD;&#xa;NJzIwrEsxsJvZcfCXSvIwlKLx8JII8nCvgzKwpnhysJSC8vC9iTKwiA/y8IadczCuDrMwuVaysLO&#xD;&#xa;r8vCXtfJwrZ6ycItucnCtonJwjyTysJkC83CL0nMwkjdyMIBucfCixrLwvSDysKGX8nCsCzMwuas&#xD;&#xa;0cIsnNPCuEvOwtr5y8LMBc7Cr+PTwsQc5MLcOfPCKOj0wjr59cJ0C/fCzg75wkwh+8LmVPnCqz72&#xD;&#xa;wnB+9cLuJvrCtEL4wkp7+MLOfffCDN3zwkaz9sLi8vjCFKr6wgIQ+cI8iPjCBpT4wvR1+MLQI/rC&#xD;&#xa;Ihn8wlQg+sIcLvjCVCz2wsI49MJQ9fbC23H3woy69sL4BfnCIOb2wjwy9cIuGvnCdmb3wj7K9MI+&#xD;&#xa;KPXCJpr2wn7C9cKQDvnCthv7woaP+cLGaPbCTr32wrpN+cIFSPjCDvX4wtD39sJY//TCKGf3wvZI&#xD;&#xa;+cK9YvfCgYf3wjIf+sLMMvfCpjz2wuA6+cII8vbCxDv1wmJG9sLka/rCPrT1wi589cLqjfbC9qP4&#xD;&#xa;wgzJ+MLelPbCGir2wlBC9sKeU/jC/nn3wsYn9sL4QPjCXBj5wopQ+MIaJvnCSB36wgjc+MIMfPfC&#xD;&#xa;W+z1wmYG+MKuxPnCCuD1wjh+9sLDrPfCOPj3wm7h+MJjMvfCxH/2wsXf98KwN/nCKOn5wrLR+sKg&#xD;&#xa;bPvCkFv5wsAu+cL2hffCySz2wmRX+MKiiPjCzFX4wvjB98Jgz/fCxPT4wobP+cL8avjC9r34wnKx&#xD;&#xa;+MK+LPnC3H34wle39cKejfbCNKP2wg5B9sK0H/rCSvz2woqE98JAqfjCBPL4wmKi+MIu2/jCMFD5&#xD;&#xa;wiCM+cKo//nCGqz7wlZN+sKUDfjC0ov4wrIU+sIVpffCP2/3woye98KktPbCTJj2wpH29cL3mvbC&#xD;&#xa;jL/4wti/+MLm3vjCQ9QE" leadInLength="0/1"  />
            </Keyframes>
           </Parameter>
           </Parameters>
          </GenericEffect>
          <GenericEffect id="4771" name = "WinCompression" >
           <Parameters>
           <InterpolatingParam id="4772" interp="linr"  time="0/1" value="0" leadInLength="0/1"   name="attack"/>
           <InterpolatingParam id="4773" interp="linr"  time="0/1" value="9" leadInLength="0/1"   name="gain"/>
           <Parameter id="4774"   name="preset">
            <Keyframes>
            <Keyframe id="4775"  time="0/1" value="1" leadInLength="0/1"  />
            </Keyframes>
           </Parameter>
           <InterpolatingParam id="4776" interp="linr"  time="0/1" value="10" leadInLength="0/1"   name="ratio"/>
           <InterpolatingParam id="4777" interp="linr"  time="0/1" value="3500" leadInLength="0/1"   name="release"/>
           <InterpolatingParam id="4778" interp="linr"  time="0/1" value="-20" leadInLength="0/1"   name="threshold"/>
           </Parameters>
          </GenericEffect>
          <GenericEffect id="4779" name = "Declipper" >
           <Parameters>
           <InterpolatingParam id="4780" interp="linr"  time="0/1" value="-1" leadInLength="0/1"   name="sensitivity"/>
           </Parameters>
          </GenericEffect>
          <GenericEffect id="4781" name = "Declicker" >
           <Parameters>
           <InterpolatingParam id="4782" interp="linr"  time="0/1" value="3" leadInLength="0/1"   name="sensitivity"/>
           </Parameters>
          </GenericEffect>
         </Effects>
         <Attributes>
          <Attribute id="4783" value="" name="ident"/>
          <Attribute id="4784" value="0" name="mixToMono"/>
         </Attributes>
         <MetaData>
          <entry key="WinSubProjectDisplayName" val=""/>
         </MetaData>
         <ExtraData>
          <Entry key="ZoomPanBin">
           <ZoomPanBin id="4785"  >
            <ZoomPanKeyframes>
            </ZoomPanKeyframes>
           </ZoomPanBin>
          </Entry>
          <Entry key="CursorEffectBin">
           <CursorEffectBin id="4786"  >
            <CursorEffectKeyframes>
            </CursorEffectKeyframes>
           </CursorEffectBin>
          </Entry>
         </ExtraData>
         <GenericTrack id="4787"  >
          <Attributes>
           <Attribute id="4788" value="" name="ident"/>
           <Attribute id="4789" value="0" name="audioMuted"/>
           <Attribute id="4790" value="0" name="videoHidden"/>
          </Attributes>
          <MetaData>
           <entry key="IsLocked" val="False"/>
           <entry key="WinTrackHeight" val="0"/>
          </MetaData>
          <Medias>
           <AMFile id="4791" start="0" duration="8837" scalar="1/1" mediaStart="0/1" mediaDuration="8837/1" trackNumber="0" src="22" channelNumber="0" >
            <Parameters>
             <InterpolatingParam id="4792" interp="linr"  time="0/1" value="1" leadInLength="0/1"  name="volume"/>
             <Parameter id="4793"  name="captions"/>
            </Parameters>
            <Attributes>
             <Attribute id="4794" value="" name="ident"/>
             <Attribute id="4795" value="44100" name="sampleRate"/>
             <Attribute id="4796" value="16" name="bitDepth"/>
             <Attribute id="4797" value="1" name="gain"/>
             <Attribute id="4798" value="0" name="mixToMono"/>
            </Attributes>
            <MetaData>
             <entry key="WinSubProjectDisplayName" val=""/>
            </MetaData>
           </AMFile>
           <AMFile id="4799" start="8837" duration="5731" scalar="1/1" mediaStart="8837/1" mediaDuration="5731/1" trackNumber="0" src="22" channelNumber="0" >
            <Parameters>
             <InterpolatingParam id="4800" interp="linr"  time="0/1" value="1" leadInLength="0/1"  name="volume"/>
             <Parameter id="4801"  name="captions"/>
            </Parameters>
            <Attributes>
             <Attribute id="4802" value="" name="ident"/>
             <Attribute id="4803" value="44100" name="sampleRate"/>
             <Attribute id="4804" value="16" name="bitDepth"/>
             <Attribute id="4805" value="1" name="gain"/>
             <Attribute id="4806" value="0" name="mixToMono"/>
            </Attributes>
            <MetaData>
             <entry key="WinSubProjectDisplayName" val=""/>
            </MetaData>
           </AMFile>
          </Medias>
         </GenericTrack>
        </StitchedMedia>
        <AMFile id="4807" start="6307" duration="130" scalar="1/1" mediaStart="8884/1" mediaDuration="130/1" trackNumber="0" src="22" channelNumber="0" >
         <Parameters>
          <InterpolatingParam id="4808" interp="linr"  name="volume">
           <Keyframes>
           <Keyframe id="4809"  time="0/1" value="1" leadInLength="0/1"  />
           <Keyframe id="4810"  time="3301/1" value="1" leadInLength="0/1"  />
           <Keyframe id="4811"  time="3302/1" value="0.80000000000000004" leadInLength="0/1"  />
           <Keyframe id="4812"  time="14568/1" value="0.80000000000000004" leadInLength="0/1"  />
           <Keyframe id="4813"  time="14569/1" value="1" leadInLength="0/1"  />
           </Keyframes>
          </InterpolatingParam>
          <Parameter id="4814"  name="captions"/>
         </Parameters>
         <Effects>
          <GenericEffect id="4815" name = "NoiseReduction" >
           <Parameters>
           <InterpolatingParam id="4816" interp="linr"  time="0/1" value="20" leadInLength="0/1"   name="denoiserAmount"/>
           <InterpolatingParam id="4817" interp="linr"  time="0/1" value="0" leadInLength="0/1"   name="denoiserThreshold"/>
           <Parameter id="4818"   name="noiseProfile">
            <Keyframes>
            <Keyframe id="4819"  time="0/1" value="FBAAAAIAAABErAAAAQIAADOmYsI/y13CPNeLwsehjcK+No/Cm+aOwlHvjcIja5HCun6XwoKemMJy&#xD;&#xa;lpPCuQeRwhgMlcJGdZvCTjScwgFMncIGh5zCGrOawuO0nMJdJZ3Cybudwo6toMIdraPCs/6jwpY0&#xD;&#xa;psLIUqjCWQmpwonmp8KcE6XCgXGlwqC+psIFHabCBoyownWvqcIkX6jCgnCpwms3qsIW0KfCM7Oj&#xD;&#xa;wnGLosJgcKnCdk6swiIgscKFrbDCtNmowrZmpcIHYqjCCg2pwqUNq8KgHq7ChEGxwhVFs8KU6LLC&#xD;&#xa;dvWzwpVHscI6NrDCMpGwwubcs8Imh7bCPKq6wj7tvMKSbr3ClsG+wq4qwMLXQr7CpAK5whxiuMJp&#xD;&#xa;v7nCwu29wloQvsIXTL3CzjDAwsDTwcL69sHC8urAwtAFwMIkSMLCpJHDwjLOw8JG8sTCmMvDwq7H&#xD;&#xa;wsLOncPC+CDDwkh6wsLU5sPCP23Fwm5Qx8KlYsTCm0XCwnhexcLsTsPCSMPDwjvJw8LMWcHC2XHD&#xD;&#xa;wjj5wsICs8TChWvEwgCywcKDdcHCFnHCwurMxMLlVsTCfrDGwmzqyMKoGsfC7ITIwtqRyMJwzcbC&#xD;&#xa;ppbEwiv5xcIXxsTCzDfCwtSExMKEjcTC8ObDwiJ9yMIQm8vCIkDGwqHyxcIyYcbCyAXIwmyBx8I4&#xD;&#xa;n8PCvyPGwuiKxMJggMfCdL3JwsMhysLi6sXCRa7Ewoykx8Jk/MXC0NfEwtK0xcJQTMTCvvvGwtqJ&#xD;&#xa;xMKmFsTCSbfGwq76x8IQ+sjCsqnIwkJdycIaT8fC0nbHwlf2xsLg/cbCtIHHwsTvxsI0KsbCsqDH&#xD;&#xa;wgLix8JGKcXCyNTDwjDwwsIb98bC6MjJwg6Zy8Kg+cvCaC3HwtIgw8KW7sXC3EHGwmcUxcL++8fC&#xD;&#xa;CWbIwsDoxsJFz8PCJkXFwiD7xcIQDsfC8ljIwrDLxMKkeMLClpHEwiqgyMJcjcjC6krGwl50w8Iy&#xD;&#xa;7sXCWv3HwkQ1xsKUwMPC2K/EwootxMJUqMTCH3LDwuojxcKil8fCjmXIwkLJxcID78TClTvGwhel&#xD;&#xa;xsIca8bC1rbCwk6+wsIQfsfCIlPHwpJExcLWhMbCDNvEwuryxMKklMXCeBDDwolhwcIiasLCQYfE&#xD;&#xa;whUfwsJx4MTCsEnIwkX0xcK+3sbCIqLHwrARx8IWtMTCGAnFwomNxMLfbcTCQIPDwjqww8L+MMTC&#xD;&#xa;mqjHwrBaxMI6YsTCxmvIwqyKycKQaMXCnx7FwkYvx8In6sjCGMzIwuvAxcL8a8XCiBjJwkvwyMKI&#xD;&#xa;qMbCTCTIwvQSy8IxEsvCVT/JwrI3w8LA8sLCCD7EwsxXxMJSjsXCfjXFwqTKxMI/gsPCDozDwtwF&#xD;&#xa;xMISn8bChHvJwlFQyMJYCsbCP4jIwtkBycLiFsrCbCrKwvyTysIWncnC+A3HwuI5x8I8/MbC0hHI&#xD;&#xa;wopJzMLmb83CFkvMwpy/y8Kn7MrCfJrJwuLDyMJKn8bCStTGwpb7ycIMo8nCcivFwsapxcJkx8bC&#xD;&#xa;ALLIwriaycJM3cfC8r/KwlSoy8I4A8vCpFHJwkRrzMIKr87CWD7MwsiJycKW9cfCUjbKwq+YycLi&#xD;&#xa;U8jCROHHwhdWycKaU8nCF7jMwmKaz8L//8zC8tjOwjxezsIUysvCzHLJwiJryMLRm8bCgLjKwsi8&#xD;&#xa;ysIhfszCPETLwqtbyMJGeMfCpRPJwnwZzMJSIs3CqhPMwmDiyMLZYsjCz13KwgwKy8LCi8jCyrTM&#xD;&#xa;wgwxzMK4ZcvC087JwkV2xsLyXsnCjIbLwhwvzcLfrM7CeITKwla3ysLK3cnC/PHFwpScxcIUQ8nC&#xD;&#xa;NJzIwrEsxsJvZcfCXSvIwlKLx8JII8nCvgzKwpnhysJSC8vC9iTKwiA/y8IadczCuDrMwuVaysLO&#xD;&#xa;r8vCXtfJwrZ6ycItucnCtonJwjyTysJkC83CL0nMwkjdyMIBucfCixrLwvSDysKGX8nCsCzMwuas&#xD;&#xa;0cIsnNPCuEvOwtr5y8LMBc7Cr+PTwsQc5MLcOfPCKOj0wjr59cJ0C/fCzg75wkwh+8LmVPnCqz72&#xD;&#xa;wnB+9cLuJvrCtEL4wkp7+MLOfffCDN3zwkaz9sLi8vjCFKr6wgIQ+cI8iPjCBpT4wvR1+MLQI/rC&#xD;&#xa;Ihn8wlQg+sIcLvjCVCz2wsI49MJQ9fbC23H3woy69sL4BfnCIOb2wjwy9cIuGvnCdmb3wj7K9MI+&#xD;&#xa;KPXCJpr2wn7C9cKQDvnCthv7woaP+cLGaPbCTr32wrpN+cIFSPjCDvX4wtD39sJY//TCKGf3wvZI&#xD;&#xa;+cK9YvfCgYf3wjIf+sLMMvfCpjz2wuA6+cII8vbCxDv1wmJG9sLka/rCPrT1wi589cLqjfbC9qP4&#xD;&#xa;wgzJ+MLelPbCGir2wlBC9sKeU/jC/nn3wsYn9sL4QPjCXBj5wopQ+MIaJvnCSB36wgjc+MIMfPfC&#xD;&#xa;W+z1wmYG+MKuxPnCCuD1wjh+9sLDrPfCOPj3wm7h+MJjMvfCxH/2wsXf98KwN/nCKOn5wrLR+sKg&#xD;&#xa;bPvCkFv5wsAu+cL2hffCySz2wmRX+MKiiPjCzFX4wvjB98Jgz/fCxPT4wobP+cL8avjC9r34wnKx&#xD;&#xa;+MK+LPnC3H34wle39cKejfbCNKP2wg5B9sK0H/rCSvz2woqE98JAqfjCBPL4wmKi+MIu2/jCMFD5&#xD;&#xa;wiCM+cKo//nCGqz7wlZN+sKUDfjC0ov4wrIU+sIVpffCP2/3woye98KktPbCTJj2wpH29cL3mvbC&#xD;&#xa;jL/4wti/+MLm3vjCQ9QEwzOmYsI/y13CPNeLwsehjcK+No/Cm+aOwlHvjcIja5HCun6XwoKemMJy&#xD;&#xa;lpPCuQeRwhgMlcJGdZvCTjScwgFMncIGh5zCGrOawuO0nMJdJZ3Cybudwo6toMIdraPCs/6jwpY0&#xD;&#xa;psLIUqjCWQmpwonmp8KcE6XCgXGlwqC+psIFHabCBoyownWvqcIkX6jCgnCpwms3qsIW0KfCM7Oj&#xD;&#xa;wnGLosJgcKnCdk6swiIgscKFrbDCtNmowrZmpcIHYqjCCg2pwqUNq8KgHq7ChEGxwhVFs8KU6LLC&#xD;&#xa;dvWzwpVHscI6NrDCMpGwwubcs8Imh7bCPKq6wj7tvMKSbr3ClsG+wq4qwMLXQr7CpAK5whxiuMJp&#xD;&#xa;v7nCwu29wloQvsIXTL3CzjDAwsDTwcL69sHC8urAwtAFwMIkSMLCpJHDwjLOw8JG8sTCmMvDwq7H&#xD;&#xa;wsLOncPC+CDDwkh6wsLU5sPCP23Fwm5Qx8KlYsTCm0XCwnhexcLsTsPCSMPDwjvJw8LMWcHC2XHD&#xD;&#xa;wjj5wsICs8TChWvEwgCywcKDdcHCFnHCwurMxMLlVsTCfrDGwmzqyMKoGsfC7ITIwtqRyMJwzcbC&#xD;&#xa;ppbEwiv5xcIXxsTCzDfCwtSExMKEjcTC8ObDwiJ9yMIQm8vCIkDGwqHyxcIyYcbCyAXIwmyBx8I4&#xD;&#xa;n8PCvyPGwuiKxMJggMfCdL3JwsMhysLi6sXCRa7Ewoykx8Jk/MXC0NfEwtK0xcJQTMTCvvvGwtqJ&#xD;&#xa;xMKmFsTCSbfGwq76x8IQ+sjCsqnIwkJdycIaT8fC0nbHwlf2xsLg/cbCtIHHwsTvxsI0KsbCsqDH&#xD;&#xa;wgLix8JGKcXCyNTDwjDwwsIb98bC6MjJwg6Zy8Kg+cvCaC3HwtIgw8KW7sXC3EHGwmcUxcL++8fC&#xD;&#xa;CWbIwsDoxsJFz8PCJkXFwiD7xcIQDsfC8ljIwrDLxMKkeMLClpHEwiqgyMJcjcjC6krGwl50w8Iy&#xD;&#xa;7sXCWv3HwkQ1xsKUwMPC2K/EwootxMJUqMTCH3LDwuojxcKil8fCjmXIwkLJxcID78TClTvGwhel&#xD;&#xa;xsIca8bC1rbCwk6+wsIQfsfCIlPHwpJExcLWhMbCDNvEwuryxMKklMXCeBDDwolhwcIiasLCQYfE&#xD;&#xa;whUfwsJx4MTCsEnIwkX0xcK+3sbCIqLHwrARx8IWtMTCGAnFwomNxMLfbcTCQIPDwjqww8L+MMTC&#xD;&#xa;mqjHwrBaxMI6YsTCxmvIwqyKycKQaMXCnx7FwkYvx8In6sjCGMzIwuvAxcL8a8XCiBjJwkvwyMKI&#xD;&#xa;qMbCTCTIwvQSy8IxEsvCVT/JwrI3w8LA8sLCCD7EwsxXxMJSjsXCfjXFwqTKxMI/gsPCDozDwtwF&#xD;&#xa;xMISn8bChHvJwlFQyMJYCsbCP4jIwtkBycLiFsrCbCrKwvyTysIWncnC+A3HwuI5x8I8/MbC0hHI&#xD;&#xa;wopJzMLmb83CFkvMwpy/y8Kn7MrCfJrJwuLDyMJKn8bCStTGwpb7ycIMo8nCcivFwsapxcJkx8bC&#xD;&#xa;ALLIwriaycJM3cfC8r/KwlSoy8I4A8vCpFHJwkRrzMIKr87CWD7MwsiJycKW9cfCUjbKwq+YycLi&#xD;&#xa;U8jCROHHwhdWycKaU8nCF7jMwmKaz8L//8zC8tjOwjxezsIUysvCzHLJwiJryMLRm8bCgLjKwsi8&#xD;&#xa;ysIhfszCPETLwqtbyMJGeMfCpRPJwnwZzMJSIs3CqhPMwmDiyMLZYsjCz13KwgwKy8LCi8jCyrTM&#xD;&#xa;wgwxzMK4ZcvC087JwkV2xsLyXsnCjIbLwhwvzcLfrM7CeITKwla3ysLK3cnC/PHFwpScxcIUQ8nC&#xD;&#xa;NJzIwrEsxsJvZcfCXSvIwlKLx8JII8nCvgzKwpnhysJSC8vC9iTKwiA/y8IadczCuDrMwuVaysLO&#xD;&#xa;r8vCXtfJwrZ6ycItucnCtonJwjyTysJkC83CL0nMwkjdyMIBucfCixrLwvSDysKGX8nCsCzMwuas&#xD;&#xa;0cIsnNPCuEvOwtr5y8LMBc7Cr+PTwsQc5MLcOfPCKOj0wjr59cJ0C/fCzg75wkwh+8LmVPnCqz72&#xD;&#xa;wnB+9cLuJvrCtEL4wkp7+MLOfffCDN3zwkaz9sLi8vjCFKr6wgIQ+cI8iPjCBpT4wvR1+MLQI/rC&#xD;&#xa;Ihn8wlQg+sIcLvjCVCz2wsI49MJQ9fbC23H3woy69sL4BfnCIOb2wjwy9cIuGvnCdmb3wj7K9MI+&#xD;&#xa;KPXCJpr2wn7C9cKQDvnCthv7woaP+cLGaPbCTr32wrpN+cIFSPjCDvX4wtD39sJY//TCKGf3wvZI&#xD;&#xa;+cK9YvfCgYf3wjIf+sLMMvfCpjz2wuA6+cII8vbCxDv1wmJG9sLka/rCPrT1wi589cLqjfbC9qP4&#xD;&#xa;wgzJ+MLelPbCGir2wlBC9sKeU/jC/nn3wsYn9sL4QPjCXBj5wopQ+MIaJvnCSB36wgjc+MIMfPfC&#xD;&#xa;W+z1wmYG+MKuxPnCCuD1wjh+9sLDrPfCOPj3wm7h+MJjMvfCxH/2wsXf98KwN/nCKOn5wrLR+sKg&#xD;&#xa;bPvCkFv5wsAu+cL2hffCySz2wmRX+MKiiPjCzFX4wvjB98Jgz/fCxPT4wobP+cL8avjC9r34wnKx&#xD;&#xa;+MK+LPnC3H34wle39cKejfbCNKP2wg5B9sK0H/rCSvz2woqE98JAqfjCBPL4wmKi+MIu2/jCMFD5&#xD;&#xa;wiCM+cKo//nCGqz7wlZN+sKUDfjC0ov4wrIU+sIVpffCP2/3woye98KktPbCTJj2wpH29cL3mvbC&#xD;&#xa;jL/4wti/+MLm3vjCQ9QE" leadInLength="0/1"  />
            </Keyframes>
           </Parameter>
           </Parameters>
          </GenericEffect>
          <GenericEffect id="4820" name = "WinCompression" >
           <Parameters>
           <InterpolatingParam id="4821" interp="linr"  time="0/1" value="0" leadInLength="0/1"   name="attack"/>
           <InterpolatingParam id="4822" interp="linr"  time="0/1" value="9" leadInLength="0/1"   name="gain"/>
           <Parameter id="4823"   name="preset">
            <Keyframes>
            <Keyframe id="4824"  time="0/1" value="1" leadInLength="0/1"  />
            </Keyframes>
           </Parameter>
           <InterpolatingParam id="4825" interp="linr"  time="0/1" value="10" leadInLength="0/1"   name="ratio"/>
           <InterpolatingParam id="4826" interp="linr"  time="0/1" value="3500" leadInLength="0/1"   name="release"/>
           <InterpolatingParam id="4827" interp="linr"  time="0/1" value="-20" leadInLength="0/1"   name="threshold"/>
           </Parameters>
          </GenericEffect>
          <GenericEffect id="4828" name = "Declipper" >
           <Parameters>
           <InterpolatingParam id="4829" interp="linr"  time="0/1" value="-1" leadInLength="0/1"   name="sensitivity"/>
           </Parameters>
          </GenericEffect>
          <GenericEffect id="4830" name = "Declicker" >
           <Parameters>
           <InterpolatingParam id="4831" interp="linr"  time="0/1" value="3" leadInLength="0/1"   name="sensitivity"/>
           </Parameters>
          </GenericEffect>
         </Effects>
         <Attributes>
          <Attribute id="4832" value="" name="ident"/>
          <Attribute id="4833" value="44100" name="sampleRate"/>
          <Attribute id="4834" value="16" name="bitDepth"/>
          <Attribute id="4835" value="1" name="gain"/>
          <Attribute id="4836" value="0" name="mixToMono"/>
         </Attributes>
         <MetaData>
          <entry key="WinSubProjectDisplayName" val=""/>
         </MetaData>
        </AMFile>
        <StitchedMedia id="4837" start="6459" duration="995" scalar="1/1" mediaStart="9691/1" mediaDuration="995/1" minMediaStart="0/1" >
         <Transformer>
          <VectorParam id="4838"  name="translation">
           <InterpolatingParam id="4839" interp="linr"  time="0/1" value="0" leadInLength="0/1"  />
           <InterpolatingParam id="4840" interp="linr"  time="0/1" value="0" leadInLength="0/1"  />
           <InterpolatingParam id="4841" interp="linr"  time="0/1" value="0" leadInLength="0/1"  />
          </VectorParam>
          <VectorParam id="4842"  name="rotation">
           <InterpolatingParam id="4843" interp="linr"  time="0/1" value="0" leadInLength="0/1"  />
           <InterpolatingParam id="4844" interp="linr"  time="0/1" value="0" leadInLength="0/1"  />
           <InterpolatingParam id="4845" interp="linr"  time="0/1" value="0" leadInLength="0/1"  />
          </VectorParam>
          <VectorParam id="4846"  name="shear">
           <InterpolatingParam id="4847" interp="linr"  time="0/1" value="0" leadInLength="0/1"  />
           <InterpolatingParam id="4848" interp="linr"  time="0/1" value="0" leadInLength="0/1"  />
           <InterpolatingParam id="4849" interp="linr"  time="0/1" value="0" leadInLength="0/1"  />
          </VectorParam>
          <VectorParam id="4850"  name="scale">
           <InterpolatingParam id="4851" interp="linr"  time="0/1" value="1" leadInLength="0/1"  />
           <InterpolatingParam id="4852" interp="linr"  time="0/1" value="1" leadInLength="0/1"  />
           <InterpolatingParam id="4853" interp="linr"  time="0/1" value="1" leadInLength="0/1"  />
          </VectorParam>
          <VectorParam id="4854"  name="anchor">
           <InterpolatingParam id="4855" interp="linr"  time="0/1" value="0" leadInLength="0/1"  />
           <InterpolatingParam id="4856" interp="linr"  time="0/1" value="0" leadInLength="0/1"  />
           <InterpolatingParam id="4857" interp="linr"  time="0/1" value="0" leadInLength="0/1"  />
          </VectorParam>
         </Transformer>
         <Parameters>
          <InterpolatingParam id="4858" interp="linr"  time="0/1" value="1" leadInLength="0/1"  name="cursorOpacity"/>
          <InterpolatingParam id="4859" interp="linr"  time="0/1" value="1" leadInLength="0/1"  name="cursorScale"/>
          <InterpolatingParam id="4860" interp="linr"  name="volume">
           <Keyframes>
           <Keyframe id="4861"  time="0/1" value="1" leadInLength="0/1"  />
           <Keyframe id="4862"  time="3301/1" value="1" leadInLength="0/1"  />
           <Keyframe id="4863"  time="3302/1" value="0.80000000000000004" leadInLength="0/1"  />
           <Keyframe id="4864"  time="14222/1" value="0.80000000000000004" leadInLength="0/1"  />
           <Keyframe id="4865"  time="14223/1" value="1" leadInLength="0/1"  />
           </Keyframes>
          </InterpolatingParam>
          <Parameter id="4866"  name="captions"/>
         </Parameters>
         <Effects>
          <GenericEffect id="4867" name = "NoiseReduction" >
           <Parameters>
           <InterpolatingParam id="4868" interp="linr"  time="0/1" value="20" leadInLength="0/1"   name="denoiserAmount"/>
           <InterpolatingParam id="4869" interp="linr"  time="0/1" value="0" leadInLength="0/1"   name="denoiserThreshold"/>
           <Parameter id="4870"   name="noiseProfile">
            <Keyframes>
            <Keyframe id="4871"  time="0/1" value="FBAAAAIAAABErAAAAQIAADOmYsI/y13CPNeLwsehjcK+No/Cm+aOwlHvjcIja5HCun6XwoKemMJy&#xD;&#xa;lpPCuQeRwhgMlcJGdZvCTjScwgFMncIGh5zCGrOawuO0nMJdJZ3Cybudwo6toMIdraPCs/6jwpY0&#xD;&#xa;psLIUqjCWQmpwonmp8KcE6XCgXGlwqC+psIFHabCBoyownWvqcIkX6jCgnCpwms3qsIW0KfCM7Oj&#xD;&#xa;wnGLosJgcKnCdk6swiIgscKFrbDCtNmowrZmpcIHYqjCCg2pwqUNq8KgHq7ChEGxwhVFs8KU6LLC&#xD;&#xa;dvWzwpVHscI6NrDCMpGwwubcs8Imh7bCPKq6wj7tvMKSbr3ClsG+wq4qwMLXQr7CpAK5whxiuMJp&#xD;&#xa;v7nCwu29wloQvsIXTL3CzjDAwsDTwcL69sHC8urAwtAFwMIkSMLCpJHDwjLOw8JG8sTCmMvDwq7H&#xD;&#xa;wsLOncPC+CDDwkh6wsLU5sPCP23Fwm5Qx8KlYsTCm0XCwnhexcLsTsPCSMPDwjvJw8LMWcHC2XHD&#xD;&#xa;wjj5wsICs8TChWvEwgCywcKDdcHCFnHCwurMxMLlVsTCfrDGwmzqyMKoGsfC7ITIwtqRyMJwzcbC&#xD;&#xa;ppbEwiv5xcIXxsTCzDfCwtSExMKEjcTC8ObDwiJ9yMIQm8vCIkDGwqHyxcIyYcbCyAXIwmyBx8I4&#xD;&#xa;n8PCvyPGwuiKxMJggMfCdL3JwsMhysLi6sXCRa7Ewoykx8Jk/MXC0NfEwtK0xcJQTMTCvvvGwtqJ&#xD;&#xa;xMKmFsTCSbfGwq76x8IQ+sjCsqnIwkJdycIaT8fC0nbHwlf2xsLg/cbCtIHHwsTvxsI0KsbCsqDH&#xD;&#xa;wgLix8JGKcXCyNTDwjDwwsIb98bC6MjJwg6Zy8Kg+cvCaC3HwtIgw8KW7sXC3EHGwmcUxcL++8fC&#xD;&#xa;CWbIwsDoxsJFz8PCJkXFwiD7xcIQDsfC8ljIwrDLxMKkeMLClpHEwiqgyMJcjcjC6krGwl50w8Iy&#xD;&#xa;7sXCWv3HwkQ1xsKUwMPC2K/EwootxMJUqMTCH3LDwuojxcKil8fCjmXIwkLJxcID78TClTvGwhel&#xD;&#xa;xsIca8bC1rbCwk6+wsIQfsfCIlPHwpJExcLWhMbCDNvEwuryxMKklMXCeBDDwolhwcIiasLCQYfE&#xD;&#xa;whUfwsJx4MTCsEnIwkX0xcK+3sbCIqLHwrARx8IWtMTCGAnFwomNxMLfbcTCQIPDwjqww8L+MMTC&#xD;&#xa;mqjHwrBaxMI6YsTCxmvIwqyKycKQaMXCnx7FwkYvx8In6sjCGMzIwuvAxcL8a8XCiBjJwkvwyMKI&#xD;&#xa;qMbCTCTIwvQSy8IxEsvCVT/JwrI3w8LA8sLCCD7EwsxXxMJSjsXCfjXFwqTKxMI/gsPCDozDwtwF&#xD;&#xa;xMISn8bChHvJwlFQyMJYCsbCP4jIwtkBycLiFsrCbCrKwvyTysIWncnC+A3HwuI5x8I8/MbC0hHI&#xD;&#xa;wopJzMLmb83CFkvMwpy/y8Kn7MrCfJrJwuLDyMJKn8bCStTGwpb7ycIMo8nCcivFwsapxcJkx8bC&#xD;&#xa;ALLIwriaycJM3cfC8r/KwlSoy8I4A8vCpFHJwkRrzMIKr87CWD7MwsiJycKW9cfCUjbKwq+YycLi&#xD;&#xa;U8jCROHHwhdWycKaU8nCF7jMwmKaz8L//8zC8tjOwjxezsIUysvCzHLJwiJryMLRm8bCgLjKwsi8&#xD;&#xa;ysIhfszCPETLwqtbyMJGeMfCpRPJwnwZzMJSIs3CqhPMwmDiyMLZYsjCz13KwgwKy8LCi8jCyrTM&#xD;&#xa;wgwxzMK4ZcvC087JwkV2xsLyXsnCjIbLwhwvzcLfrM7CeITKwla3ysLK3cnC/PHFwpScxcIUQ8nC&#xD;&#xa;NJzIwrEsxsJvZcfCXSvIwlKLx8JII8nCvgzKwpnhysJSC8vC9iTKwiA/y8IadczCuDrMwuVaysLO&#xD;&#xa;r8vCXtfJwrZ6ycItucnCtonJwjyTysJkC83CL0nMwkjdyMIBucfCixrLwvSDysKGX8nCsCzMwuas&#xD;&#xa;0cIsnNPCuEvOwtr5y8LMBc7Cr+PTwsQc5MLcOfPCKOj0wjr59cJ0C/fCzg75wkwh+8LmVPnCqz72&#xD;&#xa;wnB+9cLuJvrCtEL4wkp7+MLOfffCDN3zwkaz9sLi8vjCFKr6wgIQ+cI8iPjCBpT4wvR1+MLQI/rC&#xD;&#xa;Ihn8wlQg+sIcLvjCVCz2wsI49MJQ9fbC23H3woy69sL4BfnCIOb2wjwy9cIuGvnCdmb3wj7K9MI+&#xD;&#xa;KPXCJpr2wn7C9cKQDvnCthv7woaP+cLGaPbCTr32wrpN+cIFSPjCDvX4wtD39sJY//TCKGf3wvZI&#xD;&#xa;+cK9YvfCgYf3wjIf+sLMMvfCpjz2wuA6+cII8vbCxDv1wmJG9sLka/rCPrT1wi589cLqjfbC9qP4&#xD;&#xa;wgzJ+MLelPbCGir2wlBC9sKeU/jC/nn3wsYn9sL4QPjCXBj5wopQ+MIaJvnCSB36wgjc+MIMfPfC&#xD;&#xa;W+z1wmYG+MKuxPnCCuD1wjh+9sLDrPfCOPj3wm7h+MJjMvfCxH/2wsXf98KwN/nCKOn5wrLR+sKg&#xD;&#xa;bPvCkFv5wsAu+cL2hffCySz2wmRX+MKiiPjCzFX4wvjB98Jgz/fCxPT4wobP+cL8avjC9r34wnKx&#xD;&#xa;+MK+LPnC3H34wle39cKejfbCNKP2wg5B9sK0H/rCSvz2woqE98JAqfjCBPL4wmKi+MIu2/jCMFD5&#xD;&#xa;wiCM+cKo//nCGqz7wlZN+sKUDfjC0ov4wrIU+sIVpffCP2/3woye98KktPbCTJj2wpH29cL3mvbC&#xD;&#xa;jL/4wti/+MLm3vjCQ9QEwzOmYsI/y13CPNeLwsehjcK+No/Cm+aOwlHvjcIja5HCun6XwoKemMJy&#xD;&#xa;lpPCuQeRwhgMlcJGdZvCTjScwgFMncIGh5zCGrOawuO0nMJdJZ3Cybudwo6toMIdraPCs/6jwpY0&#xD;&#xa;psLIUqjCWQmpwonmp8KcE6XCgXGlwqC+psIFHabCBoyownWvqcIkX6jCgnCpwms3qsIW0KfCM7Oj&#xD;&#xa;wnGLosJgcKnCdk6swiIgscKFrbDCtNmowrZmpcIHYqjCCg2pwqUNq8KgHq7ChEGxwhVFs8KU6LLC&#xD;&#xa;dvWzwpVHscI6NrDCMpGwwubcs8Imh7bCPKq6wj7tvMKSbr3ClsG+wq4qwMLXQr7CpAK5whxiuMJp&#xD;&#xa;v7nCwu29wloQvsIXTL3CzjDAwsDTwcL69sHC8urAwtAFwMIkSMLCpJHDwjLOw8JG8sTCmMvDwq7H&#xD;&#xa;wsLOncPC+CDDwkh6wsLU5sPCP23Fwm5Qx8KlYsTCm0XCwnhexcLsTsPCSMPDwjvJw8LMWcHC2XHD&#xD;&#xa;wjj5wsICs8TChWvEwgCywcKDdcHCFnHCwurMxMLlVsTCfrDGwmzqyMKoGsfC7ITIwtqRyMJwzcbC&#xD;&#xa;ppbEwiv5xcIXxsTCzDfCwtSExMKEjcTC8ObDwiJ9yMIQm8vCIkDGwqHyxcIyYcbCyAXIwmyBx8I4&#xD;&#xa;n8PCvyPGwuiKxMJggMfCdL3JwsMhysLi6sXCRa7Ewoykx8Jk/MXC0NfEwtK0xcJQTMTCvvvGwtqJ&#xD;&#xa;xMKmFsTCSbfGwq76x8IQ+sjCsqnIwkJdycIaT8fC0nbHwlf2xsLg/cbCtIHHwsTvxsI0KsbCsqDH&#xD;&#xa;wgLix8JGKcXCyNTDwjDwwsIb98bC6MjJwg6Zy8Kg+cvCaC3HwtIgw8KW7sXC3EHGwmcUxcL++8fC&#xD;&#xa;CWbIwsDoxsJFz8PCJkXFwiD7xcIQDsfC8ljIwrDLxMKkeMLClpHEwiqgyMJcjcjC6krGwl50w8Iy&#xD;&#xa;7sXCWv3HwkQ1xsKUwMPC2K/EwootxMJUqMTCH3LDwuojxcKil8fCjmXIwkLJxcID78TClTvGwhel&#xD;&#xa;xsIca8bC1rbCwk6+wsIQfsfCIlPHwpJExcLWhMbCDNvEwuryxMKklMXCeBDDwolhwcIiasLCQYfE&#xD;&#xa;whUfwsJx4MTCsEnIwkX0xcK+3sbCIqLHwrARx8IWtMTCGAnFwomNxMLfbcTCQIPDwjqww8L+MMTC&#xD;&#xa;mqjHwrBaxMI6YsTCxmvIwqyKycKQaMXCnx7FwkYvx8In6sjCGMzIwuvAxcL8a8XCiBjJwkvwyMKI&#xD;&#xa;qMbCTCTIwvQSy8IxEsvCVT/JwrI3w8LA8sLCCD7EwsxXxMJSjsXCfjXFwqTKxMI/gsPCDozDwtwF&#xD;&#xa;xMISn8bChHvJwlFQyMJYCsbCP4jIwtkBycLiFsrCbCrKwvyTysIWncnC+A3HwuI5x8I8/MbC0hHI&#xD;&#xa;wopJzMLmb83CFkvMwpy/y8Kn7MrCfJrJwuLDyMJKn8bCStTGwpb7ycIMo8nCcivFwsapxcJkx8bC&#xD;&#xa;ALLIwriaycJM3cfC8r/KwlSoy8I4A8vCpFHJwkRrzMIKr87CWD7MwsiJycKW9cfCUjbKwq+YycLi&#xD;&#xa;U8jCROHHwhdWycKaU8nCF7jMwmKaz8L//8zC8tjOwjxezsIUysvCzHLJwiJryMLRm8bCgLjKwsi8&#xD;&#xa;ysIhfszCPETLwqtbyMJGeMfCpRPJwnwZzMJSIs3CqhPMwmDiyMLZYsjCz13KwgwKy8LCi8jCyrTM&#xD;&#xa;wgwxzMK4ZcvC087JwkV2xsLyXsnCjIbLwhwvzcLfrM7CeITKwla3ysLK3cnC/PHFwpScxcIUQ8nC&#xD;&#xa;NJzIwrEsxsJvZcfCXSvIwlKLx8JII8nCvgzKwpnhysJSC8vC9iTKwiA/y8IadczCuDrMwuVaysLO&#xD;&#xa;r8vCXtfJwrZ6ycItucnCtonJwjyTysJkC83CL0nMwkjdyMIBucfCixrLwvSDysKGX8nCsCzMwuas&#xD;&#xa;0cIsnNPCuEvOwtr5y8LMBc7Cr+PTwsQc5MLcOfPCKOj0wjr59cJ0C/fCzg75wkwh+8LmVPnCqz72&#xD;&#xa;wnB+9cLuJvrCtEL4wkp7+MLOfffCDN3zwkaz9sLi8vjCFKr6wgIQ+cI8iPjCBpT4wvR1+MLQI/rC&#xD;&#xa;Ihn8wlQg+sIcLvjCVCz2wsI49MJQ9fbC23H3woy69sL4BfnCIOb2wjwy9cIuGvnCdmb3wj7K9MI+&#xD;&#xa;KPXCJpr2wn7C9cKQDvnCthv7woaP+cLGaPbCTr32wrpN+cIFSPjCDvX4wtD39sJY//TCKGf3wvZI&#xD;&#xa;+cK9YvfCgYf3wjIf+sLMMvfCpjz2wuA6+cII8vbCxDv1wmJG9sLka/rCPrT1wi589cLqjfbC9qP4&#xD;&#xa;wgzJ+MLelPbCGir2wlBC9sKeU/jC/nn3wsYn9sL4QPjCXBj5wopQ+MIaJvnCSB36wgjc+MIMfPfC&#xD;&#xa;W+z1wmYG+MKuxPnCCuD1wjh+9sLDrPfCOPj3wm7h+MJjMvfCxH/2wsXf98KwN/nCKOn5wrLR+sKg&#xD;&#xa;bPvCkFv5wsAu+cL2hffCySz2wmRX+MKiiPjCzFX4wvjB98Jgz/fCxPT4wobP+cL8avjC9r34wnKx&#xD;&#xa;+MK+LPnC3H34wle39cKejfbCNKP2wg5B9sK0H/rCSvz2woqE98JAqfjCBPL4wmKi+MIu2/jCMFD5&#xD;&#xa;wiCM+cKo//nCGqz7wlZN+sKUDfjC0ov4wrIU+sIVpffCP2/3woye98KktPbCTJj2wpH29cL3mvbC&#xD;&#xa;jL/4wti/+MLm3vjCQ9QE" leadInLength="0/1"  />
            </Keyframes>
           </Parameter>
           </Parameters>
          </GenericEffect>
          <GenericEffect id="4872" name = "WinCompression" >
           <Parameters>
           <InterpolatingParam id="4873" interp="linr"  time="0/1" value="0" leadInLength="0/1"   name="attack"/>
           <InterpolatingParam id="4874" interp="linr"  time="0/1" value="9" leadInLength="0/1"   name="gain"/>
           <Parameter id="4875"   name="preset">
            <Keyframes>
            <Keyframe id="4876"  time="0/1" value="1" leadInLength="0/1"  />
            </Keyframes>
           </Parameter>
           <InterpolatingParam id="4877" interp="linr"  time="0/1" value="10" leadInLength="0/1"   name="ratio"/>
           <InterpolatingParam id="4878" interp="linr"  time="0/1" value="3500" leadInLength="0/1"   name="release"/>
           <InterpolatingParam id="4879" interp="linr"  time="0/1" value="-20" leadInLength="0/1"   name="threshold"/>
           </Parameters>
          </GenericEffect>
          <GenericEffect id="4880" name = "Declipper" >
           <Parameters>
           <InterpolatingParam id="4881" interp="linr"  time="0/1" value="-1" leadInLength="0/1"   name="sensitivity"/>
           </Parameters>
          </GenericEffect>
          <GenericEffect id="4882" name = "Declicker" >
           <Parameters>
           <InterpolatingParam id="4883" interp="linr"  time="0/1" value="3" leadInLength="0/1"   name="sensitivity"/>
           </Parameters>
          </GenericEffect>
         </Effects>
         <Attributes>
          <Attribute id="4884" value="" name="ident"/>
          <Attribute id="4885" value="0" name="mixToMono"/>
         </Attributes>
         <MetaData>
          <entry key="WinSubProjectDisplayName" val=""/>
         </MetaData>
         <ExtraData>
          <Entry key="ZoomPanBin">
           <ZoomPanBin id="4886"  >
            <ZoomPanKeyframes>
            </ZoomPanKeyframes>
           </ZoomPanBin>
          </Entry>
          <Entry key="CursorEffectBin">
           <CursorEffectBin id="4887"  >
            <CursorEffectKeyframes>
            </CursorEffectKeyframes>
           </CursorEffectBin>
          </Entry>
         </ExtraData>
         <GenericTrack id="4888"  >
          <Attributes>
           <Attribute id="4889" value="" name="ident"/>
           <Attribute id="4890" value="0" name="audioMuted"/>
           <Attribute id="4891" value="0" name="videoHidden"/>
          </Attributes>
          <MetaData>
           <entry key="IsLocked" val="False"/>
           <entry key="WinTrackHeight" val="0"/>
          </MetaData>
          <Medias>
           <AMFile id="4892" start="0" duration="10360" scalar="1/1" mediaStart="0/1" mediaDuration="10360/1" trackNumber="0" src="22" channelNumber="0" >
            <Parameters>
             <InterpolatingParam id="4893" interp="linr"  time="0/1" value="1" leadInLength="0/1"  name="volume"/>
             <Parameter id="4894"  name="captions"/>
            </Parameters>
            <Attributes>
             <Attribute id="4895" value="" name="ident"/>
             <Attribute id="4896" value="44100" name="sampleRate"/>
             <Attribute id="4897" value="16" name="bitDepth"/>
             <Attribute id="4898" value="1" name="gain"/>
             <Attribute id="4899" value="0" name="mixToMono"/>
            </Attributes>
            <MetaData>
             <entry key="WinSubProjectDisplayName" val=""/>
            </MetaData>
           </AMFile>
           <AMFile id="4900" start="10360" duration="265" scalar="1/1" mediaStart="10702/1" mediaDuration="265/1" trackNumber="0" src="22" channelNumber="0" >
            <Parameters>
             <InterpolatingParam id="4901" interp="linr"  time="0/1" value="1" leadInLength="0/1"  name="volume"/>
             <Parameter id="4902"  name="captions"/>
            </Parameters>
            <Attributes>
             <Attribute id="4903" value="" name="ident"/>
             <Attribute id="4904" value="44100" name="sampleRate"/>
             <Attribute id="4905" value="16" name="bitDepth"/>
             <Attribute id="4906" value="1" name="gain"/>
             <Attribute id="4907" value="0" name="mixToMono"/>
            </Attributes>
            <MetaData>
             <entry key="WinSubProjectDisplayName" val=""/>
            </MetaData>
           </AMFile>
           <AMFile id="4908" start="10625" duration="3597" scalar="1/1" mediaStart="10971/1" mediaDuration="3597/1" trackNumber="0" src="22" channelNumber="0" >
            <Parameters>
             <InterpolatingParam id="4909" interp="linr"  time="0/1" value="1" leadInLength="0/1"  name="volume"/>
             <Parameter id="4910"  name="captions"/>
            </Parameters>
            <Attributes>
             <Attribute id="4911" value="" name="ident"/>
             <Attribute id="4912" value="44100" name="sampleRate"/>
             <Attribute id="4913" value="16" name="bitDepth"/>
             <Attribute id="4914" value="1" name="gain"/>
             <Attribute id="4915" value="0" name="mixToMono"/>
            </Attributes>
            <MetaData>
             <entry key="WinSubProjectDisplayName" val=""/>
            </MetaData>
           </AMFile>
          </Medias>
         </GenericTrack>
        </StitchedMedia>
        <AMFile id="4916" start="7458" duration="1027" scalar="1/1" mediaStart="11524/1" mediaDuration="1027/1" trackNumber="0" src="22" channelNumber="0" >
         <Parameters>
          <InterpolatingParam id="4917" interp="linr"  name="volume">
           <Keyframes>
           <Keyframe id="4918"  time="0/1" value="1" leadInLength="0/1"  />
           <Keyframe id="4919"  time="3301/1" value="1" leadInLength="0/1"  />
           <Keyframe id="4920"  time="3302/1" value="0.80000000000000004" leadInLength="0/1"  />
           <Keyframe id="4921"  time="14568/1" value="0.80000000000000004" leadInLength="0/1"  />
           <Keyframe id="4922"  time="14569/1" value="1" leadInLength="0/1"  />
           </Keyframes>
          </InterpolatingParam>
          <Parameter id="4923"  name="captions"/>
         </Parameters>
         <Effects>
          <GenericEffect id="4924" name = "NoiseReduction" >
           <Parameters>
           <InterpolatingParam id="4925" interp="linr"  time="0/1" value="20" leadInLength="0/1"   name="denoiserAmount"/>
           <InterpolatingParam id="4926" interp="linr"  time="0/1" value="0" leadInLength="0/1"   name="denoiserThreshold"/>
           <Parameter id="4927"   name="noiseProfile">
            <Keyframes>
            <Keyframe id="4928"  time="0/1" value="FBAAAAIAAABErAAAAQIAADOmYsI/y13CPNeLwsehjcK+No/Cm+aOwlHvjcIja5HCun6XwoKemMJy&#xD;&#xa;lpPCuQeRwhgMlcJGdZvCTjScwgFMncIGh5zCGrOawuO0nMJdJZ3Cybudwo6toMIdraPCs/6jwpY0&#xD;&#xa;psLIUqjCWQmpwonmp8KcE6XCgXGlwqC+psIFHabCBoyownWvqcIkX6jCgnCpwms3qsIW0KfCM7Oj&#xD;&#xa;wnGLosJgcKnCdk6swiIgscKFrbDCtNmowrZmpcIHYqjCCg2pwqUNq8KgHq7ChEGxwhVFs8KU6LLC&#xD;&#xa;dvWzwpVHscI6NrDCMpGwwubcs8Imh7bCPKq6wj7tvMKSbr3ClsG+wq4qwMLXQr7CpAK5whxiuMJp&#xD;&#xa;v7nCwu29wloQvsIXTL3CzjDAwsDTwcL69sHC8urAwtAFwMIkSMLCpJHDwjLOw8JG8sTCmMvDwq7H&#xD;&#xa;wsLOncPC+CDDwkh6wsLU5sPCP23Fwm5Qx8KlYsTCm0XCwnhexcLsTsPCSMPDwjvJw8LMWcHC2XHD&#xD;&#xa;wjj5wsICs8TChWvEwgCywcKDdcHCFnHCwurMxMLlVsTCfrDGwmzqyMKoGsfC7ITIwtqRyMJwzcbC&#xD;&#xa;ppbEwiv5xcIXxsTCzDfCwtSExMKEjcTC8ObDwiJ9yMIQm8vCIkDGwqHyxcIyYcbCyAXIwmyBx8I4&#xD;&#xa;n8PCvyPGwuiKxMJggMfCdL3JwsMhysLi6sXCRa7Ewoykx8Jk/MXC0NfEwtK0xcJQTMTCvvvGwtqJ&#xD;&#xa;xMKmFsTCSbfGwq76x8IQ+sjCsqnIwkJdycIaT8fC0nbHwlf2xsLg/cbCtIHHwsTvxsI0KsbCsqDH&#xD;&#xa;wgLix8JGKcXCyNTDwjDwwsIb98bC6MjJwg6Zy8Kg+cvCaC3HwtIgw8KW7sXC3EHGwmcUxcL++8fC&#xD;&#xa;CWbIwsDoxsJFz8PCJkXFwiD7xcIQDsfC8ljIwrDLxMKkeMLClpHEwiqgyMJcjcjC6krGwl50w8Iy&#xD;&#xa;7sXCWv3HwkQ1xsKUwMPC2K/EwootxMJUqMTCH3LDwuojxcKil8fCjmXIwkLJxcID78TClTvGwhel&#xD;&#xa;xsIca8bC1rbCwk6+wsIQfsfCIlPHwpJExcLWhMbCDNvEwuryxMKklMXCeBDDwolhwcIiasLCQYfE&#xD;&#xa;whUfwsJx4MTCsEnIwkX0xcK+3sbCIqLHwrARx8IWtMTCGAnFwomNxMLfbcTCQIPDwjqww8L+MMTC&#xD;&#xa;mqjHwrBaxMI6YsTCxmvIwqyKycKQaMXCnx7FwkYvx8In6sjCGMzIwuvAxcL8a8XCiBjJwkvwyMKI&#xD;&#xa;qMbCTCTIwvQSy8IxEsvCVT/JwrI3w8LA8sLCCD7EwsxXxMJSjsXCfjXFwqTKxMI/gsPCDozDwtwF&#xD;&#xa;xMISn8bChHvJwlFQyMJYCsbCP4jIwtkBycLiFsrCbCrKwvyTysIWncnC+A3HwuI5x8I8/MbC0hHI&#xD;&#xa;wopJzMLmb83CFkvMwpy/y8Kn7MrCfJrJwuLDyMJKn8bCStTGwpb7ycIMo8nCcivFwsapxcJkx8bC&#xD;&#xa;ALLIwriaycJM3cfC8r/KwlSoy8I4A8vCpFHJwkRrzMIKr87CWD7MwsiJycKW9cfCUjbKwq+YycLi&#xD;&#xa;U8jCROHHwhdWycKaU8nCF7jMwmKaz8L//8zC8tjOwjxezsIUysvCzHLJwiJryMLRm8bCgLjKwsi8&#xD;&#xa;ysIhfszCPETLwqtbyMJGeMfCpRPJwnwZzMJSIs3CqhPMwmDiyMLZYsjCz13KwgwKy8LCi8jCyrTM&#xD;&#xa;wgwxzMK4ZcvC087JwkV2xsLyXsnCjIbLwhwvzcLfrM7CeITKwla3ysLK3cnC/PHFwpScxcIUQ8nC&#xD;&#xa;NJzIwrEsxsJvZcfCXSvIwlKLx8JII8nCvgzKwpnhysJSC8vC9iTKwiA/y8IadczCuDrMwuVaysLO&#xD;&#xa;r8vCXtfJwrZ6ycItucnCtonJwjyTysJkC83CL0nMwkjdyMIBucfCixrLwvSDysKGX8nCsCzMwuas&#xD;&#xa;0cIsnNPCuEvOwtr5y8LMBc7Cr+PTwsQc5MLcOfPCKOj0wjr59cJ0C/fCzg75wkwh+8LmVPnCqz72&#xD;&#xa;wnB+9cLuJvrCtEL4wkp7+MLOfffCDN3zwkaz9sLi8vjCFKr6wgIQ+cI8iPjCBpT4wvR1+MLQI/rC&#xD;&#xa;Ihn8wlQg+sIcLvjCVCz2wsI49MJQ9fbC23H3woy69sL4BfnCIOb2wjwy9cIuGvnCdmb3wj7K9MI+&#xD;&#xa;KPXCJpr2wn7C9cKQDvnCthv7woaP+cLGaPbCTr32wrpN+cIFSPjCDvX4wtD39sJY//TCKGf3wvZI&#xD;&#xa;+cK9YvfCgYf3wjIf+sLMMvfCpjz2wuA6+cII8vbCxDv1wmJG9sLka/rCPrT1wi589cLqjfbC9qP4&#xD;&#xa;wgzJ+MLelPbCGir2wlBC9sKeU/jC/nn3wsYn9sL4QPjCXBj5wopQ+MIaJvnCSB36wgjc+MIMfPfC&#xD;&#xa;W+z1wmYG+MKuxPnCCuD1wjh+9sLDrPfCOPj3wm7h+MJjMvfCxH/2wsXf98KwN/nCKOn5wrLR+sKg&#xD;&#xa;bPvCkFv5wsAu+cL2hffCySz2wmRX+MKiiPjCzFX4wvjB98Jgz/fCxPT4wobP+cL8avjC9r34wnKx&#xD;&#xa;+MK+LPnC3H34wle39cKejfbCNKP2wg5B9sK0H/rCSvz2woqE98JAqfjCBPL4wmKi+MIu2/jCMFD5&#xD;&#xa;wiCM+cKo//nCGqz7wlZN+sKUDfjC0ov4wrIU+sIVpffCP2/3woye98KktPbCTJj2wpH29cL3mvbC&#xD;&#xa;jL/4wti/+MLm3vjCQ9QEwzOmYsI/y13CPNeLwsehjcK+No/Cm+aOwlHvjcIja5HCun6XwoKemMJy&#xD;&#xa;lpPCuQeRwhgMlcJGdZvCTjScwgFMncIGh5zCGrOawuO0nMJdJZ3Cybudwo6toMIdraPCs/6jwpY0&#xD;&#xa;psLIUqjCWQmpwonmp8KcE6XCgXGlwqC+psIFHabCBoyownWvqcIkX6jCgnCpwms3qsIW0KfCM7Oj&#xD;&#xa;wnGLosJgcKnCdk6swiIgscKFrbDCtNmowrZmpcIHYqjCCg2pwqUNq8KgHq7ChEGxwhVFs8KU6LLC&#xD;&#xa;dvWzwpVHscI6NrDCMpGwwubcs8Imh7bCPKq6wj7tvMKSbr3ClsG+wq4qwMLXQr7CpAK5whxiuMJp&#xD;&#xa;v7nCwu29wloQvsIXTL3CzjDAwsDTwcL69sHC8urAwtAFwMIkSMLCpJHDwjLOw8JG8sTCmMvDwq7H&#xD;&#xa;wsLOncPC+CDDwkh6wsLU5sPCP23Fwm5Qx8KlYsTCm0XCwnhexcLsTsPCSMPDwjvJw8LMWcHC2XHD&#xD;&#xa;wjj5wsICs8TChWvEwgCywcKDdcHCFnHCwurMxMLlVsTCfrDGwmzqyMKoGsfC7ITIwtqRyMJwzcbC&#xD;&#xa;ppbEwiv5xcIXxsTCzDfCwtSExMKEjcTC8ObDwiJ9yMIQm8vCIkDGwqHyxcIyYcbCyAXIwmyBx8I4&#xD;&#xa;n8PCvyPGwuiKxMJggMfCdL3JwsMhysLi6sXCRa7Ewoykx8Jk/MXC0NfEwtK0xcJQTMTCvvvGwtqJ&#xD;&#xa;xMKmFsTCSbfGwq76x8IQ+sjCsqnIwkJdycIaT8fC0nbHwlf2xsLg/cbCtIHHwsTvxsI0KsbCsqDH&#xD;&#xa;wgLix8JGKcXCyNTDwjDwwsIb98bC6MjJwg6Zy8Kg+cvCaC3HwtIgw8KW7sXC3EHGwmcUxcL++8fC&#xD;&#xa;CWbIwsDoxsJFz8PCJkXFwiD7xcIQDsfC8ljIwrDLxMKkeMLClpHEwiqgyMJcjcjC6krGwl50w8Iy&#xD;&#xa;7sXCWv3HwkQ1xsKUwMPC2K/EwootxMJUqMTCH3LDwuojxcKil8fCjmXIwkLJxcID78TClTvGwhel&#xD;&#xa;xsIca8bC1rbCwk6+wsIQfsfCIlPHwpJExcLWhMbCDNvEwuryxMKklMXCeBDDwolhwcIiasLCQYfE&#xD;&#xa;whUfwsJx4MTCsEnIwkX0xcK+3sbCIqLHwrARx8IWtMTCGAnFwomNxMLfbcTCQIPDwjqww8L+MMTC&#xD;&#xa;mqjHwrBaxMI6YsTCxmvIwqyKycKQaMXCnx7FwkYvx8In6sjCGMzIwuvAxcL8a8XCiBjJwkvwyMKI&#xD;&#xa;qMbCTCTIwvQSy8IxEsvCVT/JwrI3w8LA8sLCCD7EwsxXxMJSjsXCfjXFwqTKxMI/gsPCDozDwtwF&#xD;&#xa;xMISn8bChHvJwlFQyMJYCsbCP4jIwtkBycLiFsrCbCrKwvyTysIWncnC+A3HwuI5x8I8/MbC0hHI&#xD;&#xa;wopJzMLmb83CFkvMwpy/y8Kn7MrCfJrJwuLDyMJKn8bCStTGwpb7ycIMo8nCcivFwsapxcJkx8bC&#xD;&#xa;ALLIwriaycJM3cfC8r/KwlSoy8I4A8vCpFHJwkRrzMIKr87CWD7MwsiJycKW9cfCUjbKwq+YycLi&#xD;&#xa;U8jCROHHwhdWycKaU8nCF7jMwmKaz8L//8zC8tjOwjxezsIUysvCzHLJwiJryMLRm8bCgLjKwsi8&#xD;&#xa;ysIhfszCPETLwqtbyMJGeMfCpRPJwnwZzMJSIs3CqhPMwmDiyMLZYsjCz13KwgwKy8LCi8jCyrTM&#xD;&#xa;wgwxzMK4ZcvC087JwkV2xsLyXsnCjIbLwhwvzcLfrM7CeITKwla3ysLK3cnC/PHFwpScxcIUQ8nC&#xD;&#xa;NJzIwrEsxsJvZcfCXSvIwlKLx8JII8nCvgzKwpnhysJSC8vC9iTKwiA/y8IadczCuDrMwuVaysLO&#xD;&#xa;r8vCXtfJwrZ6ycItucnCtonJwjyTysJkC83CL0nMwkjdyMIBucfCixrLwvSDysKGX8nCsCzMwuas&#xD;&#xa;0cIsnNPCuEvOwtr5y8LMBc7Cr+PTwsQc5MLcOfPCKOj0wjr59cJ0C/fCzg75wkwh+8LmVPnCqz72&#xD;&#xa;wnB+9cLuJvrCtEL4wkp7+MLOfffCDN3zwkaz9sLi8vjCFKr6wgIQ+cI8iPjCBpT4wvR1+MLQI/rC&#xD;&#xa;Ihn8wlQg+sIcLvjCVCz2wsI49MJQ9fbC23H3woy69sL4BfnCIOb2wjwy9cIuGvnCdmb3wj7K9MI+&#xD;&#xa;KPXCJpr2wn7C9cKQDvnCthv7woaP+cLGaPbCTr32wrpN+cIFSPjCDvX4wtD39sJY//TCKGf3wvZI&#xD;&#xa;+cK9YvfCgYf3wjIf+sLMMvfCpjz2wuA6+cII8vbCxDv1wmJG9sLka/rCPrT1wi589cLqjfbC9qP4&#xD;&#xa;wgzJ+MLelPbCGir2wlBC9sKeU/jC/nn3wsYn9sL4QPjCXBj5wopQ+MIaJvnCSB36wgjc+MIMfPfC&#xD;&#xa;W+z1wmYG+MKuxPnCCuD1wjh+9sLDrPfCOPj3wm7h+MJjMvfCxH/2wsXf98KwN/nCKOn5wrLR+sKg&#xD;&#xa;bPvCkFv5wsAu+cL2hffCySz2wmRX+MKiiPjCzFX4wvjB98Jgz/fCxPT4wobP+cL8avjC9r34wnKx&#xD;&#xa;+MK+LPnC3H34wle39cKejfbCNKP2wg5B9sK0H/rCSvz2woqE98JAqfjCBPL4wmKi+MIu2/jCMFD5&#xD;&#xa;wiCM+cKo//nCGqz7wlZN+sKUDfjC0ov4wrIU+sIVpffCP2/3woye98KktPbCTJj2wpH29cL3mvbC&#xD;&#xa;jL/4wti/+MLm3vjCQ9QE" leadInLength="0/1"  />
            </Keyframes>
           </Parameter>
           </Parameters>
          </GenericEffect>
          <GenericEffect id="4929" name = "WinCompression" >
           <Parameters>
           <InterpolatingParam id="4930" interp="linr"  time="0/1" value="0" leadInLength="0/1"   name="attack"/>
           <InterpolatingParam id="4931" interp="linr"  time="0/1" value="9" leadInLength="0/1"   name="gain"/>
           <Parameter id="4932"   name="preset">
            <Keyframes>
            <Keyframe id="4933"  time="0/1" value="1" leadInLength="0/1"  />
            </Keyframes>
           </Parameter>
           <InterpolatingParam id="4934" interp="linr"  time="0/1" value="10" leadInLength="0/1"   name="ratio"/>
           <InterpolatingParam id="4935" interp="linr"  time="0/1" value="3500" leadInLength="0/1"   name="release"/>
           <InterpolatingParam id="4936" interp="linr"  time="0/1" value="-20" leadInLength="0/1"   name="threshold"/>
           </Parameters>
          </GenericEffect>
          <GenericEffect id="4937" name = "Declipper" >
           <Parameters>
           <InterpolatingParam id="4938" interp="linr"  time="0/1" value="-1" leadInLength="0/1"   name="sensitivity"/>
           </Parameters>
          </GenericEffect>
          <GenericEffect id="4939" name = "Declicker" >
           <Parameters>
           <InterpolatingParam id="4940" interp="linr"  time="0/1" value="3" leadInLength="0/1"   name="sensitivity"/>
           </Parameters>
          </GenericEffect>
         </Effects>
         <Attributes>
          <Attribute id="4941" value="" name="ident"/>
          <Attribute id="4942" value="44100" name="sampleRate"/>
          <Attribute id="4943" value="16" name="bitDepth"/>
          <Attribute id="4944" value="1" name="gain"/>
          <Attribute id="4945" value="0" name="mixToMono"/>
         </Attributes>
         <MetaData>
          <entry key="WinSubProjectDisplayName" val=""/>
         </MetaData>
        </AMFile>
        <AMFile id="4946" start="8498" duration="43" scalar="1/1" mediaStart="14271/1" mediaDuration="43/1" trackNumber="0" src="22" channelNumber="0" >
         <Parameters>
          <InterpolatingParam id="4947" interp="linr"  name="volume">
           <Keyframes>
           <Keyframe id="4948"  time="0/1" value="1" leadInLength="0/1"  />
           <Keyframe id="4949"  time="3301/1" value="1" leadInLength="0/1"  />
           <Keyframe id="4950"  time="3302/1" value="0.80000000000000004" leadInLength="0/1"  />
           <Keyframe id="4951"  time="14568/1" value="0.80000000000000004" leadInLength="0/1"  />
           <Keyframe id="4952"  time="14569/1" value="1" leadInLength="0/1"  />
           </Keyframes>
          </InterpolatingParam>
          <Parameter id="4953"  name="captions"/>
         </Parameters>
         <Effects>
          <GenericEffect id="4954" name = "NoiseReduction" >
           <Parameters>
           <InterpolatingParam id="4955" interp="linr"  time="0/1" value="20" leadInLength="0/1"   name="denoiserAmount"/>
           <InterpolatingParam id="4956" interp="linr"  time="0/1" value="0" leadInLength="0/1"   name="denoiserThreshold"/>
           <Parameter id="4957"   name="noiseProfile">
            <Keyframes>
            <Keyframe id="4958"  time="0/1" value="FBAAAAIAAABErAAAAQIAADOmYsI/y13CPNeLwsehjcK+No/Cm+aOwlHvjcIja5HCun6XwoKemMJy&#xD;&#xa;lpPCuQeRwhgMlcJGdZvCTjScwgFMncIGh5zCGrOawuO0nMJdJZ3Cybudwo6toMIdraPCs/6jwpY0&#xD;&#xa;psLIUqjCWQmpwonmp8KcE6XCgXGlwqC+psIFHabCBoyownWvqcIkX6jCgnCpwms3qsIW0KfCM7Oj&#xD;&#xa;wnGLosJgcKnCdk6swiIgscKFrbDCtNmowrZmpcIHYqjCCg2pwqUNq8KgHq7ChEGxwhVFs8KU6LLC&#xD;&#xa;dvWzwpVHscI6NrDCMpGwwubcs8Imh7bCPKq6wj7tvMKSbr3ClsG+wq4qwMLXQr7CpAK5whxiuMJp&#xD;&#xa;v7nCwu29wloQvsIXTL3CzjDAwsDTwcL69sHC8urAwtAFwMIkSMLCpJHDwjLOw8JG8sTCmMvDwq7H&#xD;&#xa;wsLOncPC+CDDwkh6wsLU5sPCP23Fwm5Qx8KlYsTCm0XCwnhexcLsTsPCSMPDwjvJw8LMWcHC2XHD&#xD;&#xa;wjj5wsICs8TChWvEwgCywcKDdcHCFnHCwurMxMLlVsTCfrDGwmzqyMKoGsfC7ITIwtqRyMJwzcbC&#xD;&#xa;ppbEwiv5xcIXxsTCzDfCwtSExMKEjcTC8ObDwiJ9yMIQm8vCIkDGwqHyxcIyYcbCyAXIwmyBx8I4&#xD;&#xa;n8PCvyPGwuiKxMJggMfCdL3JwsMhysLi6sXCRa7Ewoykx8Jk/MXC0NfEwtK0xcJQTMTCvvvGwtqJ&#xD;&#xa;xMKmFsTCSbfGwq76x8IQ+sjCsqnIwkJdycIaT8fC0nbHwlf2xsLg/cbCtIHHwsTvxsI0KsbCsqDH&#xD;&#xa;wgLix8JGKcXCyNTDwjDwwsIb98bC6MjJwg6Zy8Kg+cvCaC3HwtIgw8KW7sXC3EHGwmcUxcL++8fC&#xD;&#xa;CWbIwsDoxsJFz8PCJkXFwiD7xcIQDsfC8ljIwrDLxMKkeMLClpHEwiqgyMJcjcjC6krGwl50w8Iy&#xD;&#xa;7sXCWv3HwkQ1xsKUwMPC2K/EwootxMJUqMTCH3LDwuojxcKil8fCjmXIwkLJxcID78TClTvGwhel&#xD;&#xa;xsIca8bC1rbCwk6+wsIQfsfCIlPHwpJExcLWhMbCDNvEwuryxMKklMXCeBDDwolhwcIiasLCQYfE&#xD;&#xa;whUfwsJx4MTCsEnIwkX0xcK+3sbCIqLHwrARx8IWtMTCGAnFwomNxMLfbcTCQIPDwjqww8L+MMTC&#xD;&#xa;mqjHwrBaxMI6YsTCxmvIwqyKycKQaMXCnx7FwkYvx8In6sjCGMzIwuvAxcL8a8XCiBjJwkvwyMKI&#xD;&#xa;qMbCTCTIwvQSy8IxEsvCVT/JwrI3w8LA8sLCCD7EwsxXxMJSjsXCfjXFwqTKxMI/gsPCDozDwtwF&#xD;&#xa;xMISn8bChHvJwlFQyMJYCsbCP4jIwtkBycLiFsrCbCrKwvyTysIWncnC+A3HwuI5x8I8/MbC0hHI&#xD;&#xa;wopJzMLmb83CFkvMwpy/y8Kn7MrCfJrJwuLDyMJKn8bCStTGwpb7ycIMo8nCcivFwsapxcJkx8bC&#xD;&#xa;ALLIwriaycJM3cfC8r/KwlSoy8I4A8vCpFHJwkRrzMIKr87CWD7MwsiJycKW9cfCUjbKwq+YycLi&#xD;&#xa;U8jCROHHwhdWycKaU8nCF7jMwmKaz8L//8zC8tjOwjxezsIUysvCzHLJwiJryMLRm8bCgLjKwsi8&#xD;&#xa;ysIhfszCPETLwqtbyMJGeMfCpRPJwnwZzMJSIs3CqhPMwmDiyMLZYsjCz13KwgwKy8LCi8jCyrTM&#xD;&#xa;wgwxzMK4ZcvC087JwkV2xsLyXsnCjIbLwhwvzcLfrM7CeITKwla3ysLK3cnC/PHFwpScxcIUQ8nC&#xD;&#xa;NJzIwrEsxsJvZcfCXSvIwlKLx8JII8nCvgzKwpnhysJSC8vC9iTKwiA/y8IadczCuDrMwuVaysLO&#xD;&#xa;r8vCXtfJwrZ6ycItucnCtonJwjyTysJkC83CL0nMwkjdyMIBucfCixrLwvSDysKGX8nCsCzMwuas&#xD;&#xa;0cIsnNPCuEvOwtr5y8LMBc7Cr+PTwsQc5MLcOfPCKOj0wjr59cJ0C/fCzg75wkwh+8LmVPnCqz72&#xD;&#xa;wnB+9cLuJvrCtEL4wkp7+MLOfffCDN3zwkaz9sLi8vjCFKr6wgIQ+cI8iPjCBpT4wvR1+MLQI/rC&#xD;&#xa;Ihn8wlQg+sIcLvjCVCz2wsI49MJQ9fbC23H3woy69sL4BfnCIOb2wjwy9cIuGvnCdmb3wj7K9MI+&#xD;&#xa;KPXCJpr2wn7C9cKQDvnCthv7woaP+cLGaPbCTr32wrpN+cIFSPjCDvX4wtD39sJY//TCKGf3wvZI&#xD;&#xa;+cK9YvfCgYf3wjIf+sLMMvfCpjz2wuA6+cII8vbCxDv1wmJG9sLka/rCPrT1wi589cLqjfbC9qP4&#xD;&#xa;wgzJ+MLelPbCGir2wlBC9sKeU/jC/nn3wsYn9sL4QPjCXBj5wopQ+MIaJvnCSB36wgjc+MIMfPfC&#xD;&#xa;W+z1wmYG+MKuxPnCCuD1wjh+9sLDrPfCOPj3wm7h+MJjMvfCxH/2wsXf98KwN/nCKOn5wrLR+sKg&#xD;&#xa;bPvCkFv5wsAu+cL2hffCySz2wmRX+MKiiPjCzFX4wvjB98Jgz/fCxPT4wobP+cL8avjC9r34wnKx&#xD;&#xa;+MK+LPnC3H34wle39cKejfbCNKP2wg5B9sK0H/rCSvz2woqE98JAqfjCBPL4wmKi+MIu2/jCMFD5&#xD;&#xa;wiCM+cKo//nCGqz7wlZN+sKUDfjC0ov4wrIU+sIVpffCP2/3woye98KktPbCTJj2wpH29cL3mvbC&#xD;&#xa;jL/4wti/+MLm3vjCQ9QEwzOmYsI/y13CPNeLwsehjcK+No/Cm+aOwlHvjcIja5HCun6XwoKemMJy&#xD;&#xa;lpPCuQeRwhgMlcJGdZvCTjScwgFMncIGh5zCGrOawuO0nMJdJZ3Cybudwo6toMIdraPCs/6jwpY0&#xD;&#xa;psLIUqjCWQmpwonmp8KcE6XCgXGlwqC+psIFHabCBoyownWvqcIkX6jCgnCpwms3qsIW0KfCM7Oj&#xD;&#xa;wnGLosJgcKnCdk6swiIgscKFrbDCtNmowrZmpcIHYqjCCg2pwqUNq8KgHq7ChEGxwhVFs8KU6LLC&#xD;&#xa;dvWzwpVHscI6NrDCMpGwwubcs8Imh7bCPKq6wj7tvMKSbr3ClsG+wq4qwMLXQr7CpAK5whxiuMJp&#xD;&#xa;v7nCwu29wloQvsIXTL3CzjDAwsDTwcL69sHC8urAwtAFwMIkSMLCpJHDwjLOw8JG8sTCmMvDwq7H&#xD;&#xa;wsLOncPC+CDDwkh6wsLU5sPCP23Fwm5Qx8KlYsTCm0XCwnhexcLsTsPCSMPDwjvJw8LMWcHC2XHD&#xD;&#xa;wjj5wsICs8TChWvEwgCywcKDdcHCFnHCwurMxMLlVsTCfrDGwmzqyMKoGsfC7ITIwtqRyMJwzcbC&#xD;&#xa;ppbEwiv5xcIXxsTCzDfCwtSExMKEjcTC8ObDwiJ9yMIQm8vCIkDGwqHyxcIyYcbCyAXIwmyBx8I4&#xD;&#xa;n8PCvyPGwuiKxMJggMfCdL3JwsMhysLi6sXCRa7Ewoykx8Jk/MXC0NfEwtK0xcJQTMTCvvvGwtqJ&#xD;&#xa;xMKmFsTCSbfGwq76x8IQ+sjCsqnIwkJdycIaT8fC0nbHwlf2xsLg/cbCtIHHwsTvxsI0KsbCsqDH&#xD;&#xa;wgLix8JGKcXCyNTDwjDwwsIb98bC6MjJwg6Zy8Kg+cvCaC3HwtIgw8KW7sXC3EHGwmcUxcL++8fC&#xD;&#xa;CWbIwsDoxsJFz8PCJkXFwiD7xcIQDsfC8ljIwrDLxMKkeMLClpHEwiqgyMJcjcjC6krGwl50w8Iy&#xD;&#xa;7sXCWv3HwkQ1xsKUwMPC2K/EwootxMJUqMTCH3LDwuojxcKil8fCjmXIwkLJxcID78TClTvGwhel&#xD;&#xa;xsIca8bC1rbCwk6+wsIQfsfCIlPHwpJExcLWhMbCDNvEwuryxMKklMXCeBDDwolhwcIiasLCQYfE&#xD;&#xa;whUfwsJx4MTCsEnIwkX0xcK+3sbCIqLHwrARx8IWtMTCGAnFwomNxMLfbcTCQIPDwjqww8L+MMTC&#xD;&#xa;mqjHwrBaxMI6YsTCxmvIwqyKycKQaMXCnx7FwkYvx8In6sjCGMzIwuvAxcL8a8XCiBjJwkvwyMKI&#xD;&#xa;qMbCTCTIwvQSy8IxEsvCVT/JwrI3w8LA8sLCCD7EwsxXxMJSjsXCfjXFwqTKxMI/gsPCDozDwtwF&#xD;&#xa;xMISn8bChHvJwlFQyMJYCsbCP4jIwtkBycLiFsrCbCrKwvyTysIWncnC+A3HwuI5x8I8/MbC0hHI&#xD;&#xa;wopJzMLmb83CFkvMwpy/y8Kn7MrCfJrJwuLDyMJKn8bCStTGwpb7ycIMo8nCcivFwsapxcJkx8bC&#xD;&#xa;ALLIwriaycJM3cfC8r/KwlSoy8I4A8vCpFHJwkRrzMIKr87CWD7MwsiJycKW9cfCUjbKwq+YycLi&#xD;&#xa;U8jCROHHwhdWycKaU8nCF7jMwmKaz8L//8zC8tjOwjxezsIUysvCzHLJwiJryMLRm8bCgLjKwsi8&#xD;&#xa;ysIhfszCPETLwqtbyMJGeMfCpRPJwnwZzMJSIs3CqhPMwmDiyMLZYsjCz13KwgwKy8LCi8jCyrTM&#xD;&#xa;wgwxzMK4ZcvC087JwkV2xsLyXsnCjIbLwhwvzcLfrM7CeITKwla3ysLK3cnC/PHFwpScxcIUQ8nC&#xD;&#xa;NJzIwrEsxsJvZcfCXSvIwlKLx8JII8nCvgzKwpnhysJSC8vC9iTKwiA/y8IadczCuDrMwuVaysLO&#xD;&#xa;r8vCXtfJwrZ6ycItucnCtonJwjyTysJkC83CL0nMwkjdyMIBucfCixrLwvSDysKGX8nCsCzMwuas&#xD;&#xa;0cIsnNPCuEvOwtr5y8LMBc7Cr+PTwsQc5MLcOfPCKOj0wjr59cJ0C/fCzg75wkwh+8LmVPnCqz72&#xD;&#xa;wnB+9cLuJvrCtEL4wkp7+MLOfffCDN3zwkaz9sLi8vjCFKr6wgIQ+cI8iPjCBpT4wvR1+MLQI/rC&#xD;&#xa;Ihn8wlQg+sIcLvjCVCz2wsI49MJQ9fbC23H3woy69sL4BfnCIOb2wjwy9cIuGvnCdmb3wj7K9MI+&#xD;&#xa;KPXCJpr2wn7C9cKQDvnCthv7woaP+cLGaPbCTr32wrpN+cIFSPjCDvX4wtD39sJY//TCKGf3wvZI&#xD;&#xa;+cK9YvfCgYf3wjIf+sLMMvfCpjz2wuA6+cII8vbCxDv1wmJG9sLka/rCPrT1wi589cLqjfbC9qP4&#xD;&#xa;wgzJ+MLelPbCGir2wlBC9sKeU/jC/nn3wsYn9sL4QPjCXBj5wopQ+MIaJvnCSB36wgjc+MIMfPfC&#xD;&#xa;W+z1wmYG+MKuxPnCCuD1wjh+9sLDrPfCOPj3wm7h+MJjMvfCxH/2wsXf98KwN/nCKOn5wrLR+sKg&#xD;&#xa;bPvCkFv5wsAu+cL2hffCySz2wmRX+MKiiPjCzFX4wvjB98Jgz/fCxPT4wobP+cL8avjC9r34wnKx&#xD;&#xa;+MK+LPnC3H34wle39cKejfbCNKP2wg5B9sK0H/rCSvz2woqE98JAqfjCBPL4wmKi+MIu2/jCMFD5&#xD;&#xa;wiCM+cKo//nCGqz7wlZN+sKUDfjC0ov4wrIU+sIVpffCP2/3woye98KktPbCTJj2wpH29cL3mvbC&#xD;&#xa;jL/4wti/+MLm3vjCQ9QE" leadInLength="0/1"  />
            </Keyframes>
           </Parameter>
           </Parameters>
          </GenericEffect>
          <GenericEffect id="4959" name = "WinCompression" >
           <Parameters>
           <InterpolatingParam id="4960" interp="linr"  time="0/1" value="0" leadInLength="0/1"   name="attack"/>
           <InterpolatingParam id="4961" interp="linr"  time="0/1" value="9" leadInLength="0/1"   name="gain"/>
           <Parameter id="4962"   name="preset">
            <Keyframes>
            <Keyframe id="4963"  time="0/1" value="1" leadInLength="0/1"  />
            </Keyframes>
           </Parameter>
           <InterpolatingParam id="4964" interp="linr"  time="0/1" value="10" leadInLength="0/1"   name="ratio"/>
           <InterpolatingParam id="4965" interp="linr"  time="0/1" value="3500" leadInLength="0/1"   name="release"/>
           <InterpolatingParam id="4966" interp="linr"  time="0/1" value="-20" leadInLength="0/1"   name="threshold"/>
           </Parameters>
          </GenericEffect>
          <GenericEffect id="4967" name = "Declipper" >
           <Parameters>
           <InterpolatingParam id="4968" interp="linr"  time="0/1" value="-1" leadInLength="0/1"   name="sensitivity"/>
           </Parameters>
          </GenericEffect>
          <GenericEffect id="4969" name = "Declicker" >
           <Parameters>
           <InterpolatingParam id="4970" interp="linr"  time="0/1" value="3" leadInLength="0/1"   name="sensitivity"/>
           </Parameters>
          </GenericEffect>
         </Effects>
         <Attributes>
          <Attribute id="4971" value="" name="ident"/>
          <Attribute id="4972" value="44100" name="sampleRate"/>
          <Attribute id="4973" value="16" name="bitDepth"/>
          <Attribute id="4974" value="1" name="gain"/>
          <Attribute id="4975" value="0" name="mixToMono"/>
         </Attributes>
         <MetaData>
          <entry key="WinSubProjectDisplayName" val=""/>
         </MetaData>
        </AMFile>
        <AMFile id="4976" start="8548" duration="98" scalar="1/1" mediaStart="14314/1" mediaDuration="98/1" trackNumber="0" src="22" channelNumber="0" >
         <Parameters>
          <InterpolatingParam id="4977" interp="linr"  name="volume">
           <Keyframes>
           <Keyframe id="4978"  time="0/1" value="1" leadInLength="0/1"  />
           <Keyframe id="4979"  time="3301/1" value="1" leadInLength="0/1"  />
           <Keyframe id="4980"  time="3302/1" value="0.80000000000000004" leadInLength="0/1"  />
           <Keyframe id="4981"  time="14568/1" value="0.80000000000000004" leadInLength="0/1"  />
           <Keyframe id="4982"  time="14569/1" value="1" leadInLength="0/1"  />
           </Keyframes>
          </InterpolatingParam>
          <Parameter id="4983"  name="captions"/>
         </Parameters>
         <Effects>
          <GenericEffect id="4984" name = "NoiseReduction" >
           <Parameters>
           <InterpolatingParam id="4985" interp="linr"  time="0/1" value="20" leadInLength="0/1"   name="denoiserAmount"/>
           <InterpolatingParam id="4986" interp="linr"  time="0/1" value="0" leadInLength="0/1"   name="denoiserThreshold"/>
           <Parameter id="4987"   name="noiseProfile">
            <Keyframes>
            <Keyframe id="4988"  time="0/1" value="FBAAAAIAAABErAAAAQIAADOmYsI/y13CPNeLwsehjcK+No/Cm+aOwlHvjcIja5HCun6XwoKemMJy&#xD;&#xa;lpPCuQeRwhgMlcJGdZvCTjScwgFMncIGh5zCGrOawuO0nMJdJZ3Cybudwo6toMIdraPCs/6jwpY0&#xD;&#xa;psLIUqjCWQmpwonmp8KcE6XCgXGlwqC+psIFHabCBoyownWvqcIkX6jCgnCpwms3qsIW0KfCM7Oj&#xD;&#xa;wnGLosJgcKnCdk6swiIgscKFrbDCtNmowrZmpcIHYqjCCg2pwqUNq8KgHq7ChEGxwhVFs8KU6LLC&#xD;&#xa;dvWzwpVHscI6NrDCMpGwwubcs8Imh7bCPKq6wj7tvMKSbr3ClsG+wq4qwMLXQr7CpAK5whxiuMJp&#xD;&#xa;v7nCwu29wloQvsIXTL3CzjDAwsDTwcL69sHC8urAwtAFwMIkSMLCpJHDwjLOw8JG8sTCmMvDwq7H&#xD;&#xa;wsLOncPC+CDDwkh6wsLU5sPCP23Fwm5Qx8KlYsTCm0XCwnhexcLsTsPCSMPDwjvJw8LMWcHC2XHD&#xD;&#xa;wjj5wsICs8TChWvEwgCywcKDdcHCFnHCwurMxMLlVsTCfrDGwmzqyMKoGsfC7ITIwtqRyMJwzcbC&#xD;&#xa;ppbEwiv5xcIXxsTCzDfCwtSExMKEjcTC8ObDwiJ9yMIQm8vCIkDGwqHyxcIyYcbCyAXIwmyBx8I4&#xD;&#xa;n8PCvyPGwuiKxMJggMfCdL3JwsMhysLi6sXCRa7Ewoykx8Jk/MXC0NfEwtK0xcJQTMTCvvvGwtqJ&#xD;&#xa;xMKmFsTCSbfGwq76x8IQ+sjCsqnIwkJdycIaT8fC0nbHwlf2xsLg/cbCtIHHwsTvxsI0KsbCsqDH&#xD;&#xa;wgLix8JGKcXCyNTDwjDwwsIb98bC6MjJwg6Zy8Kg+cvCaC3HwtIgw8KW7sXC3EHGwmcUxcL++8fC&#xD;&#xa;CWbIwsDoxsJFz8PCJkXFwiD7xcIQDsfC8ljIwrDLxMKkeMLClpHEwiqgyMJcjcjC6krGwl50w8Iy&#xD;&#xa;7sXCWv3HwkQ1xsKUwMPC2K/EwootxMJUqMTCH3LDwuojxcKil8fCjmXIwkLJxcID78TClTvGwhel&#xD;&#xa;xsIca8bC1rbCwk6+wsIQfsfCIlPHwpJExcLWhMbCDNvEwuryxMKklMXCeBDDwolhwcIiasLCQYfE&#xD;&#xa;whUfwsJx4MTCsEnIwkX0xcK+3sbCIqLHwrARx8IWtMTCGAnFwomNxMLfbcTCQIPDwjqww8L+MMTC&#xD;&#xa;mqjHwrBaxMI6YsTCxmvIwqyKycKQaMXCnx7FwkYvx8In6sjCGMzIwuvAxcL8a8XCiBjJwkvwyMKI&#xD;&#xa;qMbCTCTIwvQSy8IxEsvCVT/JwrI3w8LA8sLCCD7EwsxXxMJSjsXCfjXFwqTKxMI/gsPCDozDwtwF&#xD;&#xa;xMISn8bChHvJwlFQyMJYCsbCP4jIwtkBycLiFsrCbCrKwvyTysIWncnC+A3HwuI5x8I8/MbC0hHI&#xD;&#xa;wopJzMLmb83CFkvMwpy/y8Kn7MrCfJrJwuLDyMJKn8bCStTGwpb7ycIMo8nCcivFwsapxcJkx8bC&#xD;&#xa;ALLIwriaycJM3cfC8r/KwlSoy8I4A8vCpFHJwkRrzMIKr87CWD7MwsiJycKW9cfCUjbKwq+YycLi&#xD;&#xa;U8jCROHHwhdWycKaU8nCF7jMwmKaz8L//8zC8tjOwjxezsIUysvCzHLJwiJryMLRm8bCgLjKwsi8&#xD;&#xa;ysIhfszCPETLwqtbyMJGeMfCpRPJwnwZzMJSIs3CqhPMwmDiyMLZYsjCz13KwgwKy8LCi8jCyrTM&#xD;&#xa;wgwxzMK4ZcvC087JwkV2xsLyXsnCjIbLwhwvzcLfrM7CeITKwla3ysLK3cnC/PHFwpScxcIUQ8nC&#xD;&#xa;NJzIwrEsxsJvZcfCXSvIwlKLx8JII8nCvgzKwpnhysJSC8vC9iTKwiA/y8IadczCuDrMwuVaysLO&#xD;&#xa;r8vCXtfJwrZ6ycItucnCtonJwjyTysJkC83CL0nMwkjdyMIBucfCixrLwvSDysKGX8nCsCzMwuas&#xD;&#xa;0cIsnNPCuEvOwtr5y8LMBc7Cr+PTwsQc5MLcOfPCKOj0wjr59cJ0C/fCzg75wkwh+8LmVPnCqz72&#xD;&#xa;wnB+9cLuJvrCtEL4wkp7+MLOfffCDN3zwkaz9sLi8vjCFKr6wgIQ+cI8iPjCBpT4wvR1+MLQI/rC&#xD;&#xa;Ihn8wlQg+sIcLvjCVCz2wsI49MJQ9fbC23H3woy69sL4BfnCIOb2wjwy9cIuGvnCdmb3wj7K9MI+&#xD;&#xa;KPXCJpr2wn7C9cKQDvnCthv7woaP+cLGaPbCTr32wrpN+cIFSPjCDvX4wtD39sJY//TCKGf3wvZI&#xD;&#xa;+cK9YvfCgYf3wjIf+sLMMvfCpjz2wuA6+cII8vbCxDv1wmJG9sLka/rCPrT1wi589cLqjfbC9qP4&#xD;&#xa;wgzJ+MLelPbCGir2wlBC9sKeU/jC/nn3wsYn9sL4QPjCXBj5wopQ+MIaJvnCSB36wgjc+MIMfPfC&#xD;&#xa;W+z1wmYG+MKuxPnCCuD1wjh+9sLDrPfCOPj3wm7h+MJjMvfCxH/2wsXf98KwN/nCKOn5wrLR+sKg&#xD;&#xa;bPvCkFv5wsAu+cL2hffCySz2wmRX+MKiiPjCzFX4wvjB98Jgz/fCxPT4wobP+cL8avjC9r34wnKx&#xD;&#xa;+MK+LPnC3H34wle39cKejfbCNKP2wg5B9sK0H/rCSvz2woqE98JAqfjCBPL4wmKi+MIu2/jCMFD5&#xD;&#xa;wiCM+cKo//nCGqz7wlZN+sKUDfjC0ov4wrIU+sIVpffCP2/3woye98KktPbCTJj2wpH29cL3mvbC&#xD;&#xa;jL/4wti/+MLm3vjCQ9QEwzOmYsI/y13CPNeLwsehjcK+No/Cm+aOwlHvjcIja5HCun6XwoKemMJy&#xD;&#xa;lpPCuQeRwhgMlcJGdZvCTjScwgFMncIGh5zCGrOawuO0nMJdJZ3Cybudwo6toMIdraPCs/6jwpY0&#xD;&#xa;psLIUqjCWQmpwonmp8KcE6XCgXGlwqC+psIFHabCBoyownWvqcIkX6jCgnCpwms3qsIW0KfCM7Oj&#xD;&#xa;wnGLosJgcKnCdk6swiIgscKFrbDCtNmowrZmpcIHYqjCCg2pwqUNq8KgHq7ChEGxwhVFs8KU6LLC&#xD;&#xa;dvWzwpVHscI6NrDCMpGwwubcs8Imh7bCPKq6wj7tvMKSbr3ClsG+wq4qwMLXQr7CpAK5whxiuMJp&#xD;&#xa;v7nCwu29wloQvsIXTL3CzjDAwsDTwcL69sHC8urAwtAFwMIkSMLCpJHDwjLOw8JG8sTCmMvDwq7H&#xD;&#xa;wsLOncPC+CDDwkh6wsLU5sPCP23Fwm5Qx8KlYsTCm0XCwnhexcLsTsPCSMPDwjvJw8LMWcHC2XHD&#xD;&#xa;wjj5wsICs8TChWvEwgCywcKDdcHCFnHCwurMxMLlVsTCfrDGwmzqyMKoGsfC7ITIwtqRyMJwzcbC&#xD;&#xa;ppbEwiv5xcIXxsTCzDfCwtSExMKEjcTC8ObDwiJ9yMIQm8vCIkDGwqHyxcIyYcbCyAXIwmyBx8I4&#xD;&#xa;n8PCvyPGwuiKxMJggMfCdL3JwsMhysLi6sXCRa7Ewoykx8Jk/MXC0NfEwtK0xcJQTMTCvvvGwtqJ&#xD;&#xa;xMKmFsTCSbfGwq76x8IQ+sjCsqnIwkJdycIaT8fC0nbHwlf2xsLg/cbCtIHHwsTvxsI0KsbCsqDH&#xD;&#xa;wgLix8JGKcXCyNTDwjDwwsIb98bC6MjJwg6Zy8Kg+cvCaC3HwtIgw8KW7sXC3EHGwmcUxcL++8fC&#xD;&#xa;CWbIwsDoxsJFz8PCJkXFwiD7xcIQDsfC8ljIwrDLxMKkeMLClpHEwiqgyMJcjcjC6krGwl50w8Iy&#xD;&#xa;7sXCWv3HwkQ1xsKUwMPC2K/EwootxMJUqMTCH3LDwuojxcKil8fCjmXIwkLJxcID78TClTvGwhel&#xD;&#xa;xsIca8bC1rbCwk6+wsIQfsfCIlPHwpJExcLWhMbCDNvEwuryxMKklMXCeBDDwolhwcIiasLCQYfE&#xD;&#xa;whUfwsJx4MTCsEnIwkX0xcK+3sbCIqLHwrARx8IWtMTCGAnFwomNxMLfbcTCQIPDwjqww8L+MMTC&#xD;&#xa;mqjHwrBaxMI6YsTCxmvIwqyKycKQaMXCnx7FwkYvx8In6sjCGMzIwuvAxcL8a8XCiBjJwkvwyMKI&#xD;&#xa;qMbCTCTIwvQSy8IxEsvCVT/JwrI3w8LA8sLCCD7EwsxXxMJSjsXCfjXFwqTKxMI/gsPCDozDwtwF&#xD;&#xa;xMISn8bChHvJwlFQyMJYCsbCP4jIwtkBycLiFsrCbCrKwvyTysIWncnC+A3HwuI5x8I8/MbC0hHI&#xD;&#xa;wopJzMLmb83CFkvMwpy/y8Kn7MrCfJrJwuLDyMJKn8bCStTGwpb7ycIMo8nCcivFwsapxcJkx8bC&#xD;&#xa;ALLIwriaycJM3cfC8r/KwlSoy8I4A8vCpFHJwkRrzMIKr87CWD7MwsiJycKW9cfCUjbKwq+YycLi&#xD;&#xa;U8jCROHHwhdWycKaU8nCF7jMwmKaz8L//8zC8tjOwjxezsIUysvCzHLJwiJryMLRm8bCgLjKwsi8&#xD;&#xa;ysIhfszCPETLwqtbyMJGeMfCpRPJwnwZzMJSIs3CqhPMwmDiyMLZYsjCz13KwgwKy8LCi8jCyrTM&#xD;&#xa;wgwxzMK4ZcvC087JwkV2xsLyXsnCjIbLwhwvzcLfrM7CeITKwla3ysLK3cnC/PHFwpScxcIUQ8nC&#xD;&#xa;NJzIwrEsxsJvZcfCXSvIwlKLx8JII8nCvgzKwpnhysJSC8vC9iTKwiA/y8IadczCuDrMwuVaysLO&#xD;&#xa;r8vCXtfJwrZ6ycItucnCtonJwjyTysJkC83CL0nMwkjdyMIBucfCixrLwvSDysKGX8nCsCzMwuas&#xD;&#xa;0cIsnNPCuEvOwtr5y8LMBc7Cr+PTwsQc5MLcOfPCKOj0wjr59cJ0C/fCzg75wkwh+8LmVPnCqz72&#xD;&#xa;wnB+9cLuJvrCtEL4wkp7+MLOfffCDN3zwkaz9sLi8vjCFKr6wgIQ+cI8iPjCBpT4wvR1+MLQI/rC&#xD;&#xa;Ihn8wlQg+sIcLvjCVCz2wsI49MJQ9fbC23H3woy69sL4BfnCIOb2wjwy9cIuGvnCdmb3wj7K9MI+&#xD;&#xa;KPXCJpr2wn7C9cKQDvnCthv7woaP+cLGaPbCTr32wrpN+cIFSPjCDvX4wtD39sJY//TCKGf3wvZI&#xD;&#xa;+cK9YvfCgYf3wjIf+sLMMvfCpjz2wuA6+cII8vbCxDv1wmJG9sLka/rCPrT1wi589cLqjfbC9qP4&#xD;&#xa;wgzJ+MLelPbCGir2wlBC9sKeU/jC/nn3wsYn9sL4QPjCXBj5wopQ+MIaJvnCSB36wgjc+MIMfPfC&#xD;&#xa;W+z1wmYG+MKuxPnCCuD1wjh+9sLDrPfCOPj3wm7h+MJjMvfCxH/2wsXf98KwN/nCKOn5wrLR+sKg&#xD;&#xa;bPvCkFv5wsAu+cL2hffCySz2wmRX+MKiiPjCzFX4wvjB98Jgz/fCxPT4wobP+cL8avjC9r34wnKx&#xD;&#xa;+MK+LPnC3H34wle39cKejfbCNKP2wg5B9sK0H/rCSvz2woqE98JAqfjCBPL4wmKi+MIu2/jCMFD5&#xD;&#xa;wiCM+cKo//nCGqz7wlZN+sKUDfjC0ov4wrIU+sIVpffCP2/3woye98KktPbCTJj2wpH29cL3mvbC&#xD;&#xa;jL/4wti/+MLm3vjCQ9QE" leadInLength="0/1"  />
            </Keyframes>
           </Parameter>
           </Parameters>
          </GenericEffect>
          <GenericEffect id="4989" name = "WinCompression" >
           <Parameters>
           <InterpolatingParam id="4990" interp="linr"  time="0/1" value="0" leadInLength="0/1"   name="attack"/>
           <InterpolatingParam id="4991" interp="linr"  time="0/1" value="9" leadInLength="0/1"   name="gain"/>
           <Parameter id="4992"   name="preset">
            <Keyframes>
            <Keyframe id="4993"  time="0/1" value="1" leadInLength="0/1"  />
            </Keyframes>
           </Parameter>
           <InterpolatingParam id="4994" interp="linr"  time="0/1" value="10" leadInLength="0/1"   name="ratio"/>
           <InterpolatingParam id="4995" interp="linr"  time="0/1" value="3500" leadInLength="0/1"   name="release"/>
           <InterpolatingParam id="4996" interp="linr"  time="0/1" value="-20" leadInLength="0/1"   name="threshold"/>
           </Parameters>
          </GenericEffect>
          <GenericEffect id="4997" name = "Declipper" >
           <Parameters>
           <InterpolatingParam id="4998" interp="linr"  time="0/1" value="-1" leadInLength="0/1"   name="sensitivity"/>
           </Parameters>
          </GenericEffect>
          <GenericEffect id="4999" name = "Declicker" >
           <Parameters>
           <InterpolatingParam id="5000" interp="linr"  time="0/1" value="3" leadInLength="0/1"   name="sensitivity"/>
           </Parameters>
          </GenericEffect>
         </Effects>
         <Attributes>
          <Attribute id="5001" value="" name="ident"/>
          <Attribute id="5002" value="44100" name="sampleRate"/>
          <Attribute id="5003" value="16" name="bitDepth"/>
          <Attribute id="5004" value="1" name="gain"/>
          <Attribute id="5005" value="0" name="mixToMono"/>
         </Attributes>
         <MetaData>
          <entry key="WinSubProjectDisplayName" val=""/>
         </MetaData>
        </AMFile>
        <AMFile id="5006" start="8655" duration="38" scalar="1/1" mediaStart="14412/1" mediaDuration="38/1" trackNumber="0" src="22" channelNumber="0" >
         <Parameters>
          <InterpolatingParam id="5007" interp="linr"  name="volume">
           <Keyframes>
           <Keyframe id="5008"  time="0/1" value="1" leadInLength="0/1"  />
           <Keyframe id="5009"  time="3301/1" value="1" leadInLength="0/1"  />
           <Keyframe id="5010"  time="3302/1" value="0.80000000000000004" leadInLength="0/1"  />
           <Keyframe id="5011"  time="14568/1" value="0.80000000000000004" leadInLength="0/1"  />
           <Keyframe id="5012"  time="14569/1" value="1" leadInLength="0/1"  />
           </Keyframes>
          </InterpolatingParam>
          <Parameter id="5013"  name="captions"/>
         </Parameters>
         <Effects>
          <GenericEffect id="5014" name = "NoiseReduction" >
           <Parameters>
           <InterpolatingParam id="5015" interp="linr"  time="0/1" value="20" leadInLength="0/1"   name="denoiserAmount"/>
           <InterpolatingParam id="5016" interp="linr"  time="0/1" value="0" leadInLength="0/1"   name="denoiserThreshold"/>
           <Parameter id="5017"   name="noiseProfile">
            <Keyframes>
            <Keyframe id="5018"  time="0/1" value="FBAAAAIAAABErAAAAQIAADOmYsI/y13CPNeLwsehjcK+No/Cm+aOwlHvjcIja5HCun6XwoKemMJy&#xD;&#xa;lpPCuQeRwhgMlcJGdZvCTjScwgFMncIGh5zCGrOawuO0nMJdJZ3Cybudwo6toMIdraPCs/6jwpY0&#xD;&#xa;psLIUqjCWQmpwonmp8KcE6XCgXGlwqC+psIFHabCBoyownWvqcIkX6jCgnCpwms3qsIW0KfCM7Oj&#xD;&#xa;wnGLosJgcKnCdk6swiIgscKFrbDCtNmowrZmpcIHYqjCCg2pwqUNq8KgHq7ChEGxwhVFs8KU6LLC&#xD;&#xa;dvWzwpVHscI6NrDCMpGwwubcs8Imh7bCPKq6wj7tvMKSbr3ClsG+wq4qwMLXQr7CpAK5whxiuMJp&#xD;&#xa;v7nCwu29wloQvsIXTL3CzjDAwsDTwcL69sHC8urAwtAFwMIkSMLCpJHDwjLOw8JG8sTCmMvDwq7H&#xD;&#xa;wsLOncPC+CDDwkh6wsLU5sPCP23Fwm5Qx8KlYsTCm0XCwnhexcLsTsPCSMPDwjvJw8LMWcHC2XHD&#xD;&#xa;wjj5wsICs8TChWvEwgCywcKDdcHCFnHCwurMxMLlVsTCfrDGwmzqyMKoGsfC7ITIwtqRyMJwzcbC&#xD;&#xa;ppbEwiv5xcIXxsTCzDfCwtSExMKEjcTC8ObDwiJ9yMIQm8vCIkDGwqHyxcIyYcbCyAXIwmyBx8I4&#xD;&#xa;n8PCvyPGwuiKxMJggMfCdL3JwsMhysLi6sXCRa7Ewoykx8Jk/MXC0NfEwtK0xcJQTMTCvvvGwtqJ&#xD;&#xa;xMKmFsTCSbfGwq76x8IQ+sjCsqnIwkJdycIaT8fC0nbHwlf2xsLg/cbCtIHHwsTvxsI0KsbCsqDH&#xD;&#xa;wgLix8JGKcXCyNTDwjDwwsIb98bC6MjJwg6Zy8Kg+cvCaC3HwtIgw8KW7sXC3EHGwmcUxcL++8fC&#xD;&#xa;CWbIwsDoxsJFz8PCJkXFwiD7xcIQDsfC8ljIwrDLxMKkeMLClpHEwiqgyMJcjcjC6krGwl50w8Iy&#xD;&#xa;7sXCWv3HwkQ1xsKUwMPC2K/EwootxMJUqMTCH3LDwuojxcKil8fCjmXIwkLJxcID78TClTvGwhel&#xD;&#xa;xsIca8bC1rbCwk6+wsIQfsfCIlPHwpJExcLWhMbCDNvEwuryxMKklMXCeBDDwolhwcIiasLCQYfE&#xD;&#xa;whUfwsJx4MTCsEnIwkX0xcK+3sbCIqLHwrARx8IWtMTCGAnFwomNxMLfbcTCQIPDwjqww8L+MMTC&#xD;&#xa;mqjHwrBaxMI6YsTCxmvIwqyKycKQaMXCnx7FwkYvx8In6sjCGMzIwuvAxcL8a8XCiBjJwkvwyMKI&#xD;&#xa;qMbCTCTIwvQSy8IxEsvCVT/JwrI3w8LA8sLCCD7EwsxXxMJSjsXCfjXFwqTKxMI/gsPCDozDwtwF&#xD;&#xa;xMISn8bChHvJwlFQyMJYCsbCP4jIwtkBycLiFsrCbCrKwvyTysIWncnC+A3HwuI5x8I8/MbC0hHI&#xD;&#xa;wopJzMLmb83CFkvMwpy/y8Kn7MrCfJrJwuLDyMJKn8bCStTGwpb7ycIMo8nCcivFwsapxcJkx8bC&#xD;&#xa;ALLIwriaycJM3cfC8r/KwlSoy8I4A8vCpFHJwkRrzMIKr87CWD7MwsiJycKW9cfCUjbKwq+YycLi&#xD;&#xa;U8jCROHHwhdWycKaU8nCF7jMwmKaz8L//8zC8tjOwjxezsIUysvCzHLJwiJryMLRm8bCgLjKwsi8&#xD;&#xa;ysIhfszCPETLwqtbyMJGeMfCpRPJwnwZzMJSIs3CqhPMwmDiyMLZYsjCz13KwgwKy8LCi8jCyrTM&#xD;&#xa;wgwxzMK4ZcvC087JwkV2xsLyXsnCjIbLwhwvzcLfrM7CeITKwla3ysLK3cnC/PHFwpScxcIUQ8nC&#xD;&#xa;NJzIwrEsxsJvZcfCXSvIwlKLx8JII8nCvgzKwpnhysJSC8vC9iTKwiA/y8IadczCuDrMwuVaysLO&#xD;&#xa;r8vCXtfJwrZ6ycItucnCtonJwjyTysJkC83CL0nMwkjdyMIBucfCixrLwvSDysKGX8nCsCzMwuas&#xD;&#xa;0cIsnNPCuEvOwtr5y8LMBc7Cr+PTwsQc5MLcOfPCKOj0wjr59cJ0C/fCzg75wkwh+8LmVPnCqz72&#xD;&#xa;wnB+9cLuJvrCtEL4wkp7+MLOfffCDN3zwkaz9sLi8vjCFKr6wgIQ+cI8iPjCBpT4wvR1+MLQI/rC&#xD;&#xa;Ihn8wlQg+sIcLvjCVCz2wsI49MJQ9fbC23H3woy69sL4BfnCIOb2wjwy9cIuGvnCdmb3wj7K9MI+&#xD;&#xa;KPXCJpr2wn7C9cKQDvnCthv7woaP+cLGaPbCTr32wrpN+cIFSPjCDvX4wtD39sJY//TCKGf3wvZI&#xD;&#xa;+cK9YvfCgYf3wjIf+sLMMvfCpjz2wuA6+cII8vbCxDv1wmJG9sLka/rCPrT1wi589cLqjfbC9qP4&#xD;&#xa;wgzJ+MLelPbCGir2wlBC9sKeU/jC/nn3wsYn9sL4QPjCXBj5wopQ+MIaJvnCSB36wgjc+MIMfPfC&#xD;&#xa;W+z1wmYG+MKuxPnCCuD1wjh+9sLDrPfCOPj3wm7h+MJjMvfCxH/2wsXf98KwN/nCKOn5wrLR+sKg&#xD;&#xa;bPvCkFv5wsAu+cL2hffCySz2wmRX+MKiiPjCzFX4wvjB98Jgz/fCxPT4wobP+cL8avjC9r34wnKx&#xD;&#xa;+MK+LPnC3H34wle39cKejfbCNKP2wg5B9sK0H/rCSvz2woqE98JAqfjCBPL4wmKi+MIu2/jCMFD5&#xD;&#xa;wiCM+cKo//nCGqz7wlZN+sKUDfjC0ov4wrIU+sIVpffCP2/3woye98KktPbCTJj2wpH29cL3mvbC&#xD;&#xa;jL/4wti/+MLm3vjCQ9QEwzOmYsI/y13CPNeLwsehjcK+No/Cm+aOwlHvjcIja5HCun6XwoKemMJy&#xD;&#xa;lpPCuQeRwhgMlcJGdZvCTjScwgFMncIGh5zCGrOawuO0nMJdJZ3Cybudwo6toMIdraPCs/6jwpY0&#xD;&#xa;psLIUqjCWQmpwonmp8KcE6XCgXGlwqC+psIFHabCBoyownWvqcIkX6jCgnCpwms3qsIW0KfCM7Oj&#xD;&#xa;wnGLosJgcKnCdk6swiIgscKFrbDCtNmowrZmpcIHYqjCCg2pwqUNq8KgHq7ChEGxwhVFs8KU6LLC&#xD;&#xa;dvWzwpVHscI6NrDCMpGwwubcs8Imh7bCPKq6wj7tvMKSbr3ClsG+wq4qwMLXQr7CpAK5whxiuMJp&#xD;&#xa;v7nCwu29wloQvsIXTL3CzjDAwsDTwcL69sHC8urAwtAFwMIkSMLCpJHDwjLOw8JG8sTCmMvDwq7H&#xD;&#xa;wsLOncPC+CDDwkh6wsLU5sPCP23Fwm5Qx8KlYsTCm0XCwnhexcLsTsPCSMPDwjvJw8LMWcHC2XHD&#xD;&#xa;wjj5wsICs8TChWvEwgCywcKDdcHCFnHCwurMxMLlVsTCfrDGwmzqyMKoGsfC7ITIwtqRyMJwzcbC&#xD;&#xa;ppbEwiv5xcIXxsTCzDfCwtSExMKEjcTC8ObDwiJ9yMIQm8vCIkDGwqHyxcIyYcbCyAXIwmyBx8I4&#xD;&#xa;n8PCvyPGwuiKxMJggMfCdL3JwsMhysLi6sXCRa7Ewoykx8Jk/MXC0NfEwtK0xcJQTMTCvvvGwtqJ&#xD;&#xa;xMKmFsTCSbfGwq76x8IQ+sjCsqnIwkJdycIaT8fC0nbHwlf2xsLg/cbCtIHHwsTvxsI0KsbCsqDH&#xD;&#xa;wgLix8JGKcXCyNTDwjDwwsIb98bC6MjJwg6Zy8Kg+cvCaC3HwtIgw8KW7sXC3EHGwmcUxcL++8fC&#xD;&#xa;CWbIwsDoxsJFz8PCJkXFwiD7xcIQDsfC8ljIwrDLxMKkeMLClpHEwiqgyMJcjcjC6krGwl50w8Iy&#xD;&#xa;7sXCWv3HwkQ1xsKUwMPC2K/EwootxMJUqMTCH3LDwuojxcKil8fCjmXIwkLJxcID78TClTvGwhel&#xD;&#xa;xsIca8bC1rbCwk6+wsIQfsfCIlPHwpJExcLWhMbCDNvEwuryxMKklMXCeBDDwolhwcIiasLCQYfE&#xD;&#xa;whUfwsJx4MTCsEnIwkX0xcK+3sbCIqLHwrARx8IWtMTCGAnFwomNxMLfbcTCQIPDwjqww8L+MMTC&#xD;&#xa;mqjHwrBaxMI6YsTCxmvIwqyKycKQaMXCnx7FwkYvx8In6sjCGMzIwuvAxcL8a8XCiBjJwkvwyMKI&#xD;&#xa;qMbCTCTIwvQSy8IxEsvCVT/JwrI3w8LA8sLCCD7EwsxXxMJSjsXCfjXFwqTKxMI/gsPCDozDwtwF&#xD;&#xa;xMISn8bChHvJwlFQyMJYCsbCP4jIwtkBycLiFsrCbCrKwvyTysIWncnC+A3HwuI5x8I8/MbC0hHI&#xD;&#xa;wopJzMLmb83CFkvMwpy/y8Kn7MrCfJrJwuLDyMJKn8bCStTGwpb7ycIMo8nCcivFwsapxcJkx8bC&#xD;&#xa;ALLIwriaycJM3cfC8r/KwlSoy8I4A8vCpFHJwkRrzMIKr87CWD7MwsiJycKW9cfCUjbKwq+YycLi&#xD;&#xa;U8jCROHHwhdWycKaU8nCF7jMwmKaz8L//8zC8tjOwjxezsIUysvCzHLJwiJryMLRm8bCgLjKwsi8&#xD;&#xa;ysIhfszCPETLwqtbyMJGeMfCpRPJwnwZzMJSIs3CqhPMwmDiyMLZYsjCz13KwgwKy8LCi8jCyrTM&#xD;&#xa;wgwxzMK4ZcvC087JwkV2xsLyXsnCjIbLwhwvzcLfrM7CeITKwla3ysLK3cnC/PHFwpScxcIUQ8nC&#xD;&#xa;NJzIwrEsxsJvZcfCXSvIwlKLx8JII8nCvgzKwpnhysJSC8vC9iTKwiA/y8IadczCuDrMwuVaysLO&#xD;&#xa;r8vCXtfJwrZ6ycItucnCtonJwjyTysJkC83CL0nMwkjdyMIBucfCixrLwvSDysKGX8nCsCzMwuas&#xD;&#xa;0cIsnNPCuEvOwtr5y8LMBc7Cr+PTwsQc5MLcOfPCKOj0wjr59cJ0C/fCzg75wkwh+8LmVPnCqz72&#xD;&#xa;wnB+9cLuJvrCtEL4wkp7+MLOfffCDN3zwkaz9sLi8vjCFKr6wgIQ+cI8iPjCBpT4wvR1+MLQI/rC&#xD;&#xa;Ihn8wlQg+sIcLvjCVCz2wsI49MJQ9fbC23H3woy69sL4BfnCIOb2wjwy9cIuGvnCdmb3wj7K9MI+&#xD;&#xa;KPXCJpr2wn7C9cKQDvnCthv7woaP+cLGaPbCTr32wrpN+cIFSPjCDvX4wtD39sJY//TCKGf3wvZI&#xD;&#xa;+cK9YvfCgYf3wjIf+sLMMvfCpjz2wuA6+cII8vbCxDv1wmJG9sLka/rCPrT1wi589cLqjfbC9qP4&#xD;&#xa;wgzJ+MLelPbCGir2wlBC9sKeU/jC/nn3wsYn9sL4QPjCXBj5wopQ+MIaJvnCSB36wgjc+MIMfPfC&#xD;&#xa;W+z1wmYG+MKuxPnCCuD1wjh+9sLDrPfCOPj3wm7h+MJjMvfCxH/2wsXf98KwN/nCKOn5wrLR+sKg&#xD;&#xa;bPvCkFv5wsAu+cL2hffCySz2wmRX+MKiiPjCzFX4wvjB98Jgz/fCxPT4wobP+cL8avjC9r34wnKx&#xD;&#xa;+MK+LPnC3H34wle39cKejfbCNKP2wg5B9sK0H/rCSvz2woqE98JAqfjCBPL4wmKi+MIu2/jCMFD5&#xD;&#xa;wiCM+cKo//nCGqz7wlZN+sKUDfjC0ov4wrIU+sIVpffCP2/3woye98KktPbCTJj2wpH29cL3mvbC&#xD;&#xa;jL/4wti/+MLm3vjCQ9QE" leadInLength="0/1"  />
            </Keyframes>
           </Parameter>
           </Parameters>
          </GenericEffect>
          <GenericEffect id="5019" name = "WinCompression" >
           <Parameters>
           <InterpolatingParam id="5020" interp="linr"  time="0/1" value="0" leadInLength="0/1"   name="attack"/>
           <InterpolatingParam id="5021" interp="linr"  time="0/1" value="9" leadInLength="0/1"   name="gain"/>
           <Parameter id="5022"   name="preset">
            <Keyframes>
            <Keyframe id="5023"  time="0/1" value="1" leadInLength="0/1"  />
            </Keyframes>
           </Parameter>
           <InterpolatingParam id="5024" interp="linr"  time="0/1" value="10" leadInLength="0/1"   name="ratio"/>
           <InterpolatingParam id="5025" interp="linr"  time="0/1" value="3500" leadInLength="0/1"   name="release"/>
           <InterpolatingParam id="5026" interp="linr"  time="0/1" value="-20" leadInLength="0/1"   name="threshold"/>
           </Parameters>
          </GenericEffect>
          <GenericEffect id="5027" name = "Declipper" >
           <Parameters>
           <InterpolatingParam id="5028" interp="linr"  time="0/1" value="-1" leadInLength="0/1"   name="sensitivity"/>
           </Parameters>
          </GenericEffect>
          <GenericEffect id="5029" name = "Declicker" >
           <Parameters>
           <InterpolatingParam id="5030" interp="linr"  time="0/1" value="3" leadInLength="0/1"   name="sensitivity"/>
           </Parameters>
          </GenericEffect>
         </Effects>
         <Attributes>
          <Attribute id="5031" value="" name="ident"/>
          <Attribute id="5032" value="44100" name="sampleRate"/>
          <Attribute id="5033" value="16" name="bitDepth"/>
          <Attribute id="5034" value="1" name="gain"/>
          <Attribute id="5035" value="0" name="mixToMono"/>
         </Attributes>
         <MetaData>
          <entry key="WinSubProjectDisplayName" val=""/>
         </MetaData>
        </AMFile>
       </Medias>
      </GenericTrack>
      <GenericTrack id="5036"  >
       <Attributes>
        <Attribute id="5037" value="" name="ident"/>
        <Attribute id="5038" value="0" name="audioMuted"/>
        <Attribute id="5039" value="0" name="videoHidden"/>
       </Attributes>
       <MetaData>
        <entry key="IsLocked" val="False"/>
        <entry key="WinTrackHeight" val="62"/>
       </MetaData>
       <Medias>
        <UnifiedMedia id="5040"  >
         <AudioTransition id="5041" start="258" duration="41" >
          <Parameters>
           <InterpolatingParam id="5042" interp="linr"  time="0/1" value="1" leadInLength="0/1"  name="volume"/>
           <Parameter id="5043"  name="captions"/>
          </Parameters>
          <Effects>
           <GenericEffect id="5044" name = "AudioTransition" >
            <Parameters>
            <Parameter id="5045"   name="audioEdgeModType">
             <Keyframes>
             <Keyframe id="5046"  time="0/1" value="0" leadInLength="0/1"  />
             </Keyframes>
            </Parameter>
            <Parameter id="5047"   name="audioTransitionType">
             <Keyframes>
             <Keyframe id="5048"  time="0/1" value="" leadInLength="0/1"  />
             </Keyframes>
            </Parameter>
            </Parameters>
            <MetaData>
            </MetaData>
           </GenericEffect>
          </Effects>
          <Attributes>
           <Attribute id="5049" value="" name="ident"/>
           <Attribute id="5050" value="0" name="sampleRate"/>
           <Attribute id="5051" value="0" name="bitDepth"/>
           <Attribute id="5052" value="1" name="gain"/>
           <Attribute id="5053" value="0" name="mixToMono"/>
          </Attributes>
         </AudioTransition>
         <ImageTransition id="5054" start="258" duration="41" >
          <Transformer>
           <VectorParam id="5055"  name="translation">
            <InterpolatingParam id="5056" interp="linr"  time="0/1" value="0" leadInLength="0/1"  />
            <InterpolatingParam id="5057" interp="linr"  time="0/1" value="0" leadInLength="0/1"  />
            <InterpolatingParam id="5058" interp="linr"  time="0/1" value="0" leadInLength="0/1"  />
           </VectorParam>
           <VectorParam id="5059"  name="rotation">
            <InterpolatingParam id="5060" interp="linr"  time="0/1" value="0" leadInLength="0/1"  />
            <InterpolatingParam id="5061" interp="linr"  time="0/1" value="0" leadInLength="0/1"  />
            <InterpolatingParam id="5062" interp="linr"  time="0/1" value="0" leadInLength="0/1"  />
           </VectorParam>
           <VectorParam id="5063"  name="shear">
            <InterpolatingParam id="5064" interp="linr"  time="0/1" value="0" leadInLength="0/1"  />
            <InterpolatingParam id="5065" interp="linr"  time="0/1" value="0" leadInLength="0/1"  />
            <InterpolatingParam id="5066" interp="linr"  time="0/1" value="0" leadInLength="0/1"  />
           </VectorParam>
           <VectorParam id="5067"  name="scale">
            <InterpolatingParam id="5068" interp="linr"  time="0/1" value="1" leadInLength="0/1"  />
            <InterpolatingParam id="5069" interp="linr"  time="0/1" value="1" leadInLength="0/1"  />
            <InterpolatingParam id="5070" interp="linr"  time="0/1" value="1" leadInLength="0/1"  />
           </VectorParam>
           <VectorParam id="5071"  name="anchor">
            <InterpolatingParam id="5072" interp="linr"  time="0/1" value="0" leadInLength="0/1"  />
            <InterpolatingParam id="5073" interp="linr"  time="0/1" value="0" leadInLength="0/1"  />
            <InterpolatingParam id="5074" interp="linr"  time="0/1" value="0" leadInLength="0/1"  />
           </VectorParam>
          </Transformer>
          <Parameters>
           <VectorParam id="5075"  name="sourceCrop">
            <InterpolatingParam id="5076" interp="linr"  time="0/1" value="0" leadInLength="0/1"  />
            <InterpolatingParam id="5077" interp="linr"  time="0/1" value="0" leadInLength="0/1"  />
            <InterpolatingParam id="5078" interp="linr"  time="0/1" value="0" leadInLength="0/1"  />
            <InterpolatingParam id="5079" interp="linr"  time="0/1" value="0" leadInLength="0/1"  />
           </VectorParam>
           <VectorParam id="5080"  name="geometryCrop">
            <InterpolatingParam id="5081" interp="linr"  time="0/1" value="0" leadInLength="0/1"  />
            <InterpolatingParam id="5082" interp="linr"  time="0/1" value="0" leadInLength="0/1"  />
            <InterpolatingParam id="5083" interp="linr"  time="0/1" value="0" leadInLength="0/1"  />
            <InterpolatingParam id="5084" interp="linr"  time="0/1" value="0" leadInLength="0/1"  />
           </VectorParam>
           <InterpolatingParam id="5085" interp="linr"  time="0/1" value="1" leadInLength="0/1"  name="opacity"/>
          </Parameters>
          <Effects>
           <GenericEffect id="5086" name = "VisualTransition" >
            <Parameters>
            <InterpolatingParam id="5087" interp="linr"  time="0/1" value="0.5" leadInLength="0/1"   name="leftFramePercentage"/>
            <InterpolatingParam id="5088" interp="linr"  time="0/1" value="0.5" leadInLength="0/1"   name="rightFramePercentage"/>
            <Parameter id="5089"   name="visualEdgeModType">
             <Keyframes>
             <Keyframe id="5090"  time="0/1" value="1" leadInLength="0/1"  />
             </Keyframes>
            </Parameter>
            <Parameter id="5091"   name="visualTransitionType">
             <Keyframes>
             <Keyframe id="5092"  time="0/1" value="Fade" leadInLength="0/1"  />
             </Keyframes>
            </Parameter>
            </Parameters>
            <MetaData>
            </MetaData>
           </GenericEffect>
          </Effects>
          <Attributes>
           <Attribute id="5093" value="" name="ident"/>
          </Attributes>
          <ExtraData>
           <Entry key="ZoomPanBin">
            <ZoomPanBin id="5094"  >
             <ZoomPanKeyframes>
             </ZoomPanKeyframes>
            </ZoomPanBin>
           </Entry>
          </ExtraData>
         </ImageTransition>
         <MetaData>
          <entry key="WinSubProjectDisplayName" val=""/>
         </MetaData>
        </UnifiedMedia>
        <IMFile id="5095" start="299" duration="117" scalar="1/1" mediaStart="0/1" mediaDuration="1/1" trackNumber="0" src="23" trimStartSum="23/1" >
         <Transformer>
          <VectorParam id="5096"  name="translation">
           <InterpolatingParam id="5097" interp="linr"  time="-9999999/1" value="0" leadInLength="0/1"  />
           <InterpolatingParam id="5098" interp="linr"  time="-9999999/1" value="0" leadInLength="0/1"  />
           <InterpolatingParam id="5099" interp="linr"  time="-9999999/1" value="0" leadInLength="0/1"  />
          </VectorParam>
          <VectorParam id="5100"  name="rotation">
           <InterpolatingParam id="5101" interp="linr"  time="-9999999/1" value="0" leadInLength="0/1"  />
           <InterpolatingParam id="5102" interp="linr"  time="-9999999/1" value="0" leadInLength="0/1"  />
           <InterpolatingParam id="5103" interp="linr"  time="-9999999/1" value="0" leadInLength="0/1"  />
          </VectorParam>
          <VectorParam id="5104"  name="shear">
           <InterpolatingParam id="5105" interp="linr"  time="-9999999/1" value="0" leadInLength="0/1"  />
           <InterpolatingParam id="5106" interp="linr"  time="-9999999/1" value="0" leadInLength="0/1"  />
           <InterpolatingParam id="5107" interp="linr"  time="-9999999/1" value="0" leadInLength="0/1"  />
          </VectorParam>
          <VectorParam id="5108"  name="scale">
           <InterpolatingParam id="5109" interp="linr"  time="-9999999/1" value="0.703125" leadInLength="0/1"  />
           <InterpolatingParam id="5110" interp="linr"  time="-9999999/1" value="0.703125" leadInLength="0/1"  />
           <InterpolatingParam id="5111" interp="linr"  time="-9999999/1" value="1" leadInLength="0/1"  />
          </VectorParam>
          <VectorParam id="5112"  name="anchor">
           <InterpolatingParam id="5113" interp="linr"  time="0/1" value="0" leadInLength="0/1"  />
           <InterpolatingParam id="5114" interp="linr"  time="0/1" value="0" leadInLength="0/1"  />
           <InterpolatingParam id="5115" interp="linr"  time="0/1" value="0" leadInLength="0/1"  />
          </VectorParam>
         </Transformer>
         <Parameters>
          <VectorParam id="5116"  name="sourceCrop">
           <InterpolatingParam id="5117" interp="linr"  time="0/1" value="0" leadInLength="0/1"  />
           <InterpolatingParam id="5118" interp="linr"  time="0/1" value="0" leadInLength="0/1"  />
           <InterpolatingParam id="5119" interp="linr"  time="0/1" value="0" leadInLength="0/1"  />
           <InterpolatingParam id="5120" interp="linr"  time="0/1" value="0" leadInLength="0/1"  />
          </VectorParam>
          <VectorParam id="5121"  name="geometryCrop">
           <InterpolatingParam id="5122" interp="linr"  time="-9999999/1" value="0" leadInLength="0/1"  />
           <InterpolatingParam id="5123" interp="linr"  time="-9999999/1" value="0" leadInLength="0/1"  />
           <InterpolatingParam id="5124" interp="linr"  time="-9999999/1" value="0" leadInLength="0/1"  />
           <InterpolatingParam id="5125" interp="linr"  time="-9999999/1" value="0" leadInLength="0/1"  />
          </VectorParam>
          <InterpolatingParam id="5126" interp="linr"  time="-9999999/1" value="1" leadInLength="0/1"  name="opacity"/>
         </Parameters>
         <Attributes>
          <Attribute id="5127" value="" name="ident"/>
         </Attributes>
         <MetaData>
          <entry key="WinSubProjectDisplayName" val=""/>
         </MetaData>
         <ExtraData>
          <Entry key="ZoomPanBin">
           <ZoomPanBin id="5128"  >
            <ZoomPanKeyframes>
             <ZoomPanKeyframe id="5129" timeRangeEnd="-9999999/1" timeRangeDuration="0/1" interpolaterName="linr"  />
            </ZoomPanKeyframes>
           </ZoomPanBin>
          </Entry>
         </ExtraData>
        </IMFile>
        <UnifiedMedia id="5130"  >
         <AudioTransition id="5131" start="416" duration="44" >
          <Parameters>
           <InterpolatingParam id="5132" interp="linr"  time="0/1" value="1" leadInLength="0/1"  name="volume"/>
           <Parameter id="5133"  name="captions"/>
          </Parameters>
          <Effects>
           <GenericEffect id="5134" name = "AudioTransition" >
            <Parameters>
            <Parameter id="5135"   name="audioEdgeModType">
             <Keyframes>
             <Keyframe id="5136"  time="0/1" value="0" leadInLength="0/1"  />
             </Keyframes>
            </Parameter>
            <Parameter id="5137"   name="audioTransitionType">
             <Keyframes>
             <Keyframe id="5138"  time="0/1" value="" leadInLength="0/1"  />
             </Keyframes>
            </Parameter>
            </Parameters>
            <MetaData>
            </MetaData>
           </GenericEffect>
          </Effects>
          <Attributes>
           <Attribute id="5139" value="" name="ident"/>
           <Attribute id="5140" value="0" name="sampleRate"/>
           <Attribute id="5141" value="0" name="bitDepth"/>
           <Attribute id="5142" value="1" name="gain"/>
           <Attribute id="5143" value="0" name="mixToMono"/>
          </Attributes>
         </AudioTransition>
         <ImageTransition id="5144" start="416" duration="44" >
          <Transformer>
           <VectorParam id="5145"  name="translation">
            <InterpolatingParam id="5146" interp="linr"  time="0/1" value="0" leadInLength="0/1"  />
            <InterpolatingParam id="5147" interp="linr"  time="0/1" value="0" leadInLength="0/1"  />
            <InterpolatingParam id="5148" interp="linr"  time="0/1" value="0" leadInLength="0/1"  />
           </VectorParam>
           <VectorParam id="5149"  name="rotation">
            <InterpolatingParam id="5150" interp="linr"  time="0/1" value="0" leadInLength="0/1"  />
            <InterpolatingParam id="5151" interp="linr"  time="0/1" value="0" leadInLength="0/1"  />
            <InterpolatingParam id="5152" interp="linr"  time="0/1" value="0" leadInLength="0/1"  />
           </VectorParam>
           <VectorParam id="5153"  name="shear">
            <InterpolatingParam id="5154" interp="linr"  time="0/1" value="0" leadInLength="0/1"  />
            <InterpolatingParam id="5155" interp="linr"  time="0/1" value="0" leadInLength="0/1"  />
            <InterpolatingParam id="5156" interp="linr"  time="0/1" value="0" leadInLength="0/1"  />
           </VectorParam>
           <VectorParam id="5157"  name="scale">
            <InterpolatingParam id="5158" interp="linr"  time="0/1" value="1" leadInLength="0/1"  />
            <InterpolatingParam id="5159" interp="linr"  time="0/1" value="1" leadInLength="0/1"  />
            <InterpolatingParam id="5160" interp="linr"  time="0/1" value="1" leadInLength="0/1"  />
           </VectorParam>
           <VectorParam id="5161"  name="anchor">
            <InterpolatingParam id="5162" interp="linr"  time="0/1" value="0" leadInLength="0/1"  />
            <InterpolatingParam id="5163" interp="linr"  time="0/1" value="0" leadInLength="0/1"  />
            <InterpolatingParam id="5164" interp="linr"  time="0/1" value="0" leadInLength="0/1"  />
           </VectorParam>
          </Transformer>
          <Parameters>
           <VectorParam id="5165"  name="sourceCrop">
            <InterpolatingParam id="5166" interp="linr"  time="0/1" value="0" leadInLength="0/1"  />
            <InterpolatingParam id="5167" interp="linr"  time="0/1" value="0" leadInLength="0/1"  />
            <InterpolatingParam id="5168" interp="linr"  time="0/1" value="0" leadInLength="0/1"  />
            <InterpolatingParam id="5169" interp="linr"  time="0/1" value="0" leadInLength="0/1"  />
           </VectorParam>
           <VectorParam id="5170"  name="geometryCrop">
            <InterpolatingParam id="5171" interp="linr"  time="0/1" value="0" leadInLength="0/1"  />
            <InterpolatingParam id="5172" interp="linr"  time="0/1" value="0" leadInLength="0/1"  />
            <InterpolatingParam id="5173" interp="linr"  time="0/1" value="0" leadInLength="0/1"  />
            <InterpolatingParam id="5174" interp="linr"  time="0/1" value="0" leadInLength="0/1"  />
           </VectorParam>
           <InterpolatingParam id="5175" interp="linr"  time="0/1" value="1" leadInLength="0/1"  name="opacity"/>
          </Parameters>
          <Effects>
           <GenericEffect id="5176" name = "VisualTransition" >
            <Parameters>
            <InterpolatingParam id="5177" interp="linr"  time="0/1" value="0.5" leadInLength="0/1"   name="leftFramePercentage"/>
            <InterpolatingParam id="5178" interp="linr"  time="0/1" value="0.5" leadInLength="0/1"   name="rightFramePercentage"/>
            <Parameter id="5179"   name="visualEdgeModType">
             <Keyframes>
             <Keyframe id="5180"  time="0/1" value="2" leadInLength="0/1"  />
             </Keyframes>
            </Parameter>
            <Parameter id="5181"   name="visualTransitionType">
             <Keyframes>
             <Keyframe id="5182"  time="0/1" value="Glow" leadInLength="0/1"  />
             </Keyframes>
            </Parameter>
            </Parameters>
            <MetaData>
            </MetaData>
           </GenericEffect>
          </Effects>
          <Attributes>
           <Attribute id="5183" value="" name="ident"/>
          </Attributes>
          <ExtraData>
           <Entry key="ZoomPanBin">
            <ZoomPanBin id="5184"  >
             <ZoomPanKeyframes>
             </ZoomPanKeyframes>
            </ZoomPanBin>
           </Entry>
          </ExtraData>
         </ImageTransition>
         <MetaData>
          <entry key="WinSubProjectDisplayName" val=""/>
         </MetaData>
        </UnifiedMedia>
        <Callout id="5185" start="7124" duration="183" scalar="1/1" mediaStart="0/1" mediaDuration="183/1" >
         <Transformer>
          <VectorParam id="5186"  name="translation">
           <InterpolatingParam id="5187" interp="linr"  >
            <Keyframes>
            <Keyframe id="5188"  time="-9999999/1" value="-135" leadInLength="0/1"  />
            <Keyframe id="5189"  time="87/1" value="-135" leadInLength="5/1"  interpolater="leadin-linr"  />
            <Keyframe id="5190"  time="101/1" value="-140.44271844693304" leadInLength="1/1"  interpolater="leadin-linr"  />
            <Keyframe id="5191"  time="125/1" value="-139.94860079971252" leadInLength="1/1"  interpolater="leadin-linr"  />
            <Keyframe id="5192"  time="126/1" value="-139.94860079971252" leadInLength="1/1"  interpolater="leadin-linr"  />
            <Keyframe id="5193"  time="128/1" value="-139.94860079971252" leadInLength="1/1"  interpolater="leadin-linr"  />
            <Keyframe id="5194"  time="132/1" value="-139.94860079971252" leadInLength="1/1"  interpolater="leadin-linr"  />
            <Keyframe id="5195"  time="133/1" value="-139.94860079971252" leadInLength="1/1"  interpolater="leadin-linr"  />
            <Keyframe id="5196"  time="177/1" value="-139.94860079971798" leadInLength="27/1"  interpolater="leadin-linr"  />
            </Keyframes>
           </InterpolatingParam>
           <InterpolatingParam id="5197" interp="linr"  >
            <Keyframes>
            <Keyframe id="5198"  time="-9999999/1" value="41.667747825992699" leadInLength="0/1"  />
            <Keyframe id="5199"  time="87/1" value="76.36677459622048" leadInLength="5/1"  interpolater="leadin-linr"  />
            <Keyframe id="5200"  time="101/1" value="107.24533741791281" leadInLength="1/1"  interpolater="leadin-linr"  />
            <Keyframe id="5201"  time="125/1" value="115.57807922973099" leadInLength="1/1"  interpolater="leadin-linr"  />
            <Keyframe id="5202"  time="126/1" value="157.93102040617222" leadInLength="1/1"  interpolater="leadin-linr"  />
            <Keyframe id="5203"  time="128/1" value="187.3427851119676" leadInLength="1/1"  interpolater="leadin-linr"  />
            <Keyframe id="5204"  time="132/1" value="187.3427851119676" leadInLength="1/1"  interpolater="leadin-linr"  />
            <Keyframe id="5205"  time="133/1" value="199.10749099433315" leadInLength="1/1"  interpolater="leadin-linr"  />
            <Keyframe id="5206"  time="177/1" value="418.22513805303845" leadInLength="27/1"  interpolater="leadin-linr"  />
            </Keyframes>
           </InterpolatingParam>
           <InterpolatingParam id="5207" interp="linr"  >
            <Keyframes>
            <Keyframe id="5208"  time="-9999999/1" value="0" leadInLength="0/1"  />
            <Keyframe id="5209"  time="87/1" value="0" leadInLength="5/1"  interpolater="leadin-linr"  />
            <Keyframe id="5210"  time="101/1" value="0" leadInLength="1/1"  interpolater="leadin-linr"  />
            <Keyframe id="5211"  time="125/1" value="0" leadInLength="1/1"  interpolater="leadin-linr"  />
            <Keyframe id="5212"  time="126/1" value="0" leadInLength="1/1"  interpolater="leadin-linr"  />
            <Keyframe id="5213"  time="128/1" value="0" leadInLength="1/1"  interpolater="leadin-linr"  />
            <Keyframe id="5214"  time="132/1" value="0" leadInLength="1/1"  interpolater="leadin-linr"  />
            <Keyframe id="5215"  time="133/1" value="0" leadInLength="1/1"  interpolater="leadin-linr"  />
            <Keyframe id="5216"  time="177/1" value="0" leadInLength="27/1"  interpolater="leadin-linr"  />
            </Keyframes>
           </InterpolatingParam>
          </VectorParam>
          <VectorParam id="5217"  name="rotation">
           <InterpolatingParam id="5218" interp="linr"  >
            <Keyframes>
            <Keyframe id="5219"  time="-9999999/1" value="0" leadInLength="0/1"  />
            <Keyframe id="5220"  time="87/1" value="0" leadInLength="5/1"  interpolater="leadin-linr"  />
            <Keyframe id="5221"  time="101/1" value="0" leadInLength="1/1"  interpolater="leadin-linr"  />
            <Keyframe id="5222"  time="125/1" value="0" leadInLength="1/1"  interpolater="leadin-linr"  />
            <Keyframe id="5223"  time="126/1" value="0" leadInLength="1/1"  interpolater="leadin-linr"  />
            <Keyframe id="5224"  time="128/1" value="0" leadInLength="1/1"  interpolater="leadin-linr"  />
            <Keyframe id="5225"  time="132/1" value="0" leadInLength="1/1"  interpolater="leadin-linr"  />
            <Keyframe id="5226"  time="133/1" value="0" leadInLength="1/1"  interpolater="leadin-linr"  />
            <Keyframe id="5227"  time="177/1" value="0" leadInLength="27/1"  interpolater="leadin-linr"  />
            </Keyframes>
           </InterpolatingParam>
           <InterpolatingParam id="5228" interp="linr"  >
            <Keyframes>
            <Keyframe id="5229"  time="-9999999/1" value="0" leadInLength="0/1"  />
            <Keyframe id="5230"  time="87/1" value="0" leadInLength="5/1"  interpolater="leadin-linr"  />
            <Keyframe id="5231"  time="101/1" value="0" leadInLength="1/1"  interpolater="leadin-linr"  />
            <Keyframe id="5232"  time="125/1" value="0" leadInLength="1/1"  interpolater="leadin-linr"  />
            <Keyframe id="5233"  time="126/1" value="0" leadInLength="1/1"  interpolater="leadin-linr"  />
            <Keyframe id="5234"  time="128/1" value="0" leadInLength="1/1"  interpolater="leadin-linr"  />
            <Keyframe id="5235"  time="132/1" value="0" leadInLength="1/1"  interpolater="leadin-linr"  />
            <Keyframe id="5236"  time="133/1" value="0" leadInLength="1/1"  interpolater="leadin-linr"  />
            <Keyframe id="5237"  time="177/1" value="0" leadInLength="27/1"  interpolater="leadin-linr"  />
            </Keyframes>
           </InterpolatingParam>
           <InterpolatingParam id="5238" interp="linr"  >
            <Keyframes>
            <Keyframe id="5239"  time="-9999999/1" value="0" leadInLength="0/1"  />
            <Keyframe id="5240"  time="87/1" value="0" leadInLength="5/1"  interpolater="leadin-linr"  />
            <Keyframe id="5241"  time="101/1" value="0" leadInLength="1/1"  interpolater="leadin-linr"  />
            <Keyframe id="5242"  time="125/1" value="0" leadInLength="1/1"  interpolater="leadin-linr"  />
            <Keyframe id="5243"  time="126/1" value="0" leadInLength="1/1"  interpolater="leadin-linr"  />
            <Keyframe id="5244"  time="128/1" value="0" leadInLength="1/1"  interpolater="leadin-linr"  />
            <Keyframe id="5245"  time="132/1" value="0" leadInLength="1/1"  interpolater="leadin-linr"  />
            <Keyframe id="5246"  time="133/1" value="0" leadInLength="1/1"  interpolater="leadin-linr"  />
            <Keyframe id="5247"  time="177/1" value="0" leadInLength="27/1"  interpolater="leadin-linr"  />
            </Keyframes>
           </InterpolatingParam>
          </VectorParam>
          <VectorParam id="5248"  name="shear">
           <InterpolatingParam id="5249" interp="linr"  >
            <Keyframes>
            <Keyframe id="5250"  time="-9999999/1" value="0" leadInLength="0/1"  />
            <Keyframe id="5251"  time="87/1" value="0" leadInLength="5/1"  interpolater="leadin-linr"  />
            <Keyframe id="5252"  time="101/1" value="0" leadInLength="1/1"  interpolater="leadin-linr"  />
            <Keyframe id="5253"  time="125/1" value="0" leadInLength="1/1"  interpolater="leadin-linr"  />
            <Keyframe id="5254"  time="126/1" value="0" leadInLength="1/1"  interpolater="leadin-linr"  />
            <Keyframe id="5255"  time="128/1" value="0" leadInLength="1/1"  interpolater="leadin-linr"  />
            <Keyframe id="5256"  time="132/1" value="0" leadInLength="1/1"  interpolater="leadin-linr"  />
            <Keyframe id="5257"  time="133/1" value="0" leadInLength="1/1"  interpolater="leadin-linr"  />
            <Keyframe id="5258"  time="177/1" value="0" leadInLength="27/1"  interpolater="leadin-linr"  />
            </Keyframes>
           </InterpolatingParam>
           <InterpolatingParam id="5259" interp="linr"  >
            <Keyframes>
            <Keyframe id="5260"  time="-9999999/1" value="0" leadInLength="0/1"  />
            <Keyframe id="5261"  time="87/1" value="0" leadInLength="5/1"  interpolater="leadin-linr"  />
            <Keyframe id="5262"  time="101/1" value="0" leadInLength="1/1"  interpolater="leadin-linr"  />
            <Keyframe id="5263"  time="125/1" value="0" leadInLength="1/1"  interpolater="leadin-linr"  />
            <Keyframe id="5264"  time="126/1" value="0" leadInLength="1/1"  interpolater="leadin-linr"  />
            <Keyframe id="5265"  time="128/1" value="0" leadInLength="1/1"  interpolater="leadin-linr"  />
            <Keyframe id="5266"  time="132/1" value="0" leadInLength="1/1"  interpolater="leadin-linr"  />
            <Keyframe id="5267"  time="133/1" value="0" leadInLength="1/1"  interpolater="leadin-linr"  />
            <Keyframe id="5268"  time="177/1" value="0" leadInLength="27/1"  interpolater="leadin-linr"  />
            </Keyframes>
           </InterpolatingParam>
           <InterpolatingParam id="5269" interp="linr"  >
            <Keyframes>
            <Keyframe id="5270"  time="-9999999/1" value="0" leadInLength="0/1"  />
            <Keyframe id="5271"  time="87/1" value="0" leadInLength="5/1"  interpolater="leadin-linr"  />
            <Keyframe id="5272"  time="101/1" value="0" leadInLength="1/1"  interpolater="leadin-linr"  />
            <Keyframe id="5273"  time="125/1" value="0" leadInLength="1/1"  interpolater="leadin-linr"  />
            <Keyframe id="5274"  time="126/1" value="0" leadInLength="1/1"  interpolater="leadin-linr"  />
            <Keyframe id="5275"  time="128/1" value="0" leadInLength="1/1"  interpolater="leadin-linr"  />
            <Keyframe id="5276"  time="132/1" value="0" leadInLength="1/1"  interpolater="leadin-linr"  />
            <Keyframe id="5277"  time="133/1" value="0" leadInLength="1/1"  interpolater="leadin-linr"  />
            <Keyframe id="5278"  time="177/1" value="0" leadInLength="27/1"  interpolater="leadin-linr"  />
            </Keyframes>
           </InterpolatingParam>
          </VectorParam>
          <VectorParam id="5279"  name="scale">
           <InterpolatingParam id="5280" interp="linr"  >
            <Keyframes>
            <Keyframe id="5281"  time="-9999999/1" value="0.36575229158561207" leadInLength="0/1"  />
            <Keyframe id="5282"  time="87/1" value="0.36986007995304027" leadInLength="5/1"  interpolater="leadin-linr"  />
            <Keyframe id="5283"  time="101/1" value="0.33677184465899562" leadInLength="1/1"  interpolater="leadin-linr"  />
            <Keyframe id="5284"  time="125/1" value="0.33677184465946008" leadInLength="1/1"  interpolater="leadin-linr"  />
            <Keyframe id="5285"  time="126/1" value="0.33677184465946008" leadInLength="1/1"  interpolater="leadin-linr"  />
            <Keyframe id="5286"  time="128/1" value="0.33677184465946008" leadInLength="1/1"  interpolater="leadin-linr"  />
            <Keyframe id="5287"  time="132/1" value="0.33677184465946008" leadInLength="1/1"  interpolater="leadin-linr"  />
            <Keyframe id="5288"  time="133/1" value="0.33677184465946008" leadInLength="1/1"  interpolater="leadin-linr"  />
            <Keyframe id="5289"  time="177/1" value="0.3367718446594945" leadInLength="27/1"  interpolater="leadin-linr"  />
            </Keyframes>
           </InterpolatingParam>
           <InterpolatingParam id="5290" interp="linr"  >
            <Keyframes>
            <Keyframe id="5291"  time="-9999999/1" value="0.26191896729391612" leadInLength="0/1"  />
            <Keyframe id="5292"  time="87/1" value="0.26575290310301869" leadInLength="5/1"  interpolater="leadin-linr"  />
            <Keyframe id="5293"  time="101/1" value="0.22653721682801692" leadInLength="1/1"  interpolater="leadin-linr"  />
            <Keyframe id="5294"  time="125/1" value="0.239609112253896" leadInLength="1/1"  interpolater="leadin-linr"  />
            <Keyframe id="5295"  time="126/1" value="0.23960911225435336" leadInLength="1/1"  interpolater="leadin-linr"  />
            <Keyframe id="5296"  time="128/1" value="0.23960911225517917" leadInLength="1/1"  interpolater="leadin-linr"  />
            <Keyframe id="5297"  time="132/1" value="0.23960911225517917" leadInLength="1/1"  interpolater="leadin-linr"  />
            <Keyframe id="5298"  time="133/1" value="0.2396091122552812" leadInLength="1/1"  interpolater="leadin-linr"  />
            <Keyframe id="5299"  time="177/1" value="0.23960911225567411" leadInLength="27/1"  interpolater="leadin-linr"  />
            </Keyframes>
           </InterpolatingParam>
           <InterpolatingParam id="5300" interp="linr"  >
            <Keyframes>
            <Keyframe id="5301"  time="-9999999/1" value="1" leadInLength="0/1"  />
            <Keyframe id="5302"  time="87/1" value="1" leadInLength="5/1"  interpolater="leadin-linr"  />
            <Keyframe id="5303"  time="101/1" value="1" leadInLength="1/1"  interpolater="leadin-linr"  />
            <Keyframe id="5304"  time="125/1" value="1" leadInLength="1/1"  interpolater="leadin-linr"  />
            <Keyframe id="5305"  time="126/1" value="1" leadInLength="1/1"  interpolater="leadin-linr"  />
            <Keyframe id="5306"  time="128/1" value="1" leadInLength="1/1"  interpolater="leadin-linr"  />
            <Keyframe id="5307"  time="132/1" value="1" leadInLength="1/1"  interpolater="leadin-linr"  />
            <Keyframe id="5308"  time="133/1" value="1" leadInLength="1/1"  interpolater="leadin-linr"  />
            <Keyframe id="5309"  time="177/1" value="1" leadInLength="27/1"  interpolater="leadin-linr"  />
            </Keyframes>
           </InterpolatingParam>
          </VectorParam>
          <VectorParam id="5310"  name="anchor">
           <InterpolatingParam id="5311" interp="linr"  time="0/1" value="0" leadInLength="0/1"  />
           <InterpolatingParam id="5312" interp="linr"  time="0/1" value="0" leadInLength="0/1"  />
           <InterpolatingParam id="5313" interp="linr"  time="0/1" value="0" leadInLength="0/1"  />
          </VectorParam>
         </Transformer>
         <Parameters>
          <VectorParam id="5314"  name="sourceCrop">
           <InterpolatingParam id="5315" interp="linr"  time="0/1" value="0" leadInLength="0/1"  />
           <InterpolatingParam id="5316" interp="linr"  time="0/1" value="0" leadInLength="0/1"  />
           <InterpolatingParam id="5317" interp="linr"  time="0/1" value="0" leadInLength="0/1"  />
           <InterpolatingParam id="5318" interp="linr"  time="0/1" value="0" leadInLength="0/1"  />
          </VectorParam>
          <VectorParam id="5319"  name="geometryCrop">
           <InterpolatingParam id="5320" interp="linr"  >
            <Keyframes>
            <Keyframe id="5321"  time="-9999999/1" value="0" leadInLength="0/1"  />
            <Keyframe id="5322"  time="87/1" value="0" leadInLength="5/1"  interpolater="leadin-linr"  />
            <Keyframe id="5323"  time="101/1" value="0" leadInLength="1/1"  interpolater="leadin-linr"  />
            <Keyframe id="5324"  time="125/1" value="0" leadInLength="1/1"  interpolater="leadin-linr"  />
            <Keyframe id="5325"  time="126/1" value="0" leadInLength="1/1"  interpolater="leadin-linr"  />
            <Keyframe id="5326"  time="128/1" value="0" leadInLength="1/1"  interpolater="leadin-linr"  />
            <Keyframe id="5327"  time="132/1" value="0" leadInLength="1/1"  interpolater="leadin-linr"  />
            <Keyframe id="5328"  time="133/1" value="0" leadInLength="1/1"  interpolater="leadin-linr"  />
            <Keyframe id="5329"  time="177/1" value="0" leadInLength="27/1"  interpolater="leadin-linr"  />
            </Keyframes>
           </InterpolatingParam>
           <InterpolatingParam id="5330" interp="linr"  >
            <Keyframes>
            <Keyframe id="5331"  time="-9999999/1" value="0" leadInLength="0/1"  />
            <Keyframe id="5332"  time="87/1" value="0" leadInLength="5/1"  interpolater="leadin-linr"  />
            <Keyframe id="5333"  time="101/1" value="0" leadInLength="1/1"  interpolater="leadin-linr"  />
            <Keyframe id="5334"  time="125/1" value="0" leadInLength="1/1"  interpolater="leadin-linr"  />
            <Keyframe id="5335"  time="126/1" value="0" leadInLength="1/1"  interpolater="leadin-linr"  />
            <Keyframe id="5336"  time="128/1" value="0" leadInLength="1/1"  interpolater="leadin-linr"  />
            <Keyframe id="5337"  time="132/1" value="0" leadInLength="1/1"  interpolater="leadin-linr"  />
            <Keyframe id="5338"  time="133/1" value="0" leadInLength="1/1"  interpolater="leadin-linr"  />
            <Keyframe id="5339"  time="177/1" value="0" leadInLength="27/1"  interpolater="leadin-linr"  />
            </Keyframes>
           </InterpolatingParam>
           <InterpolatingParam id="5340" interp="linr"  >
            <Keyframes>
            <Keyframe id="5341"  time="-9999999/1" value="0" leadInLength="0/1"  />
            <Keyframe id="5342"  time="87/1" value="0" leadInLength="5/1"  interpolater="leadin-linr"  />
            <Keyframe id="5343"  time="101/1" value="0" leadInLength="1/1"  interpolater="leadin-linr"  />
            <Keyframe id="5344"  time="125/1" value="0" leadInLength="1/1"  interpolater="leadin-linr"  />
            <Keyframe id="5345"  time="126/1" value="0" leadInLength="1/1"  interpolater="leadin-linr"  />
            <Keyframe id="5346"  time="128/1" value="0" leadInLength="1/1"  interpolater="leadin-linr"  />
            <Keyframe id="5347"  time="132/1" value="0" leadInLength="1/1"  interpolater="leadin-linr"  />
            <Keyframe id="5348"  time="133/1" value="0" leadInLength="1/1"  interpolater="leadin-linr"  />
            <Keyframe id="5349"  time="177/1" value="0" leadInLength="27/1"  interpolater="leadin-linr"  />
            </Keyframes>
           </InterpolatingParam>
           <InterpolatingParam id="5350" interp="linr"  >
            <Keyframes>
            <Keyframe id="5351"  time="-9999999/1" value="0" leadInLength="0/1"  />
            <Keyframe id="5352"  time="87/1" value="0" leadInLength="5/1"  interpolater="leadin-linr"  />
            <Keyframe id="5353"  time="101/1" value="0" leadInLength="1/1"  interpolater="leadin-linr"  />
            <Keyframe id="5354"  time="125/1" value="0" leadInLength="1/1"  interpolater="leadin-linr"  />
            <Keyframe id="5355"  time="126/1" value="0" leadInLength="1/1"  interpolater="leadin-linr"  />
            <Keyframe id="5356"  time="128/1" value="0" leadInLength="1/1"  interpolater="leadin-linr"  />
            <Keyframe id="5357"  time="132/1" value="0" leadInLength="1/1"  interpolater="leadin-linr"  />
            <Keyframe id="5358"  time="133/1" value="0" leadInLength="1/1"  interpolater="leadin-linr"  />
            <Keyframe id="5359"  time="177/1" value="0" leadInLength="27/1"  interpolater="leadin-linr"  />
            </Keyframes>
           </InterpolatingParam>
          </VectorParam>
          <InterpolatingParam id="5360" interp="linr"  name="opacity">
           <Keyframes>
           <Keyframe id="5361"  time="-9999999/1" value="1" leadInLength="0/1"  />
           <Keyframe id="5362"  time="87/1" value="1" leadInLength="5/1"  interpolater="leadin-linr"  />
           <Keyframe id="5363"  time="101/1" value="1" leadInLength="1/1"  interpolater="leadin-linr"  />
           <Keyframe id="5364"  time="125/1" value="1" leadInLength="1/1"  interpolater="leadin-linr"  />
           <Keyframe id="5365"  time="126/1" value="1" leadInLength="1/1"  interpolater="leadin-linr"  />
           <Keyframe id="5366"  time="128/1" value="1" leadInLength="1/1"  interpolater="leadin-linr"  />
           <Keyframe id="5367"  time="132/1" value="1" leadInLength="1/1"  interpolater="leadin-linr"  />
           <Keyframe id="5368"  time="133/1" value="1" leadInLength="1/1"  interpolater="leadin-linr"  />
           <Keyframe id="5369"  time="177/1" value="1" leadInLength="27/1"  interpolater="leadin-linr"  />
           </Keyframes>
          </InterpolatingParam>
         </Parameters>
         <Effects>
          <GenericEffect id="5370" name = "DropShadow" >
           <Parameters>
           <InterpolatingParam id="5371" interp="linr"  time="0/1" value="315" leadInLength="0/1"   name="angle"/>
           <InterpolatingParam id="5372" interp="linr"  time="0/1" value="2" leadInLength="0/1"   name="blur"/>
           <Parameter id="5373"   name="enabled">
            <Keyframes>
            <Keyframe id="5374"  time="0/1" value="1" leadInLength="0/1"  />
            </Keyframes>
           </Parameter>
           <InterpolatingParam id="5375" interp="linr"  time="0/1" value="4" leadInLength="0/1"   name="offset"/>
           <InterpolatingParam id="5376" interp="linr"  time="0/1" value="1" leadInLength="0/1"   name="opacity"/>
           </Parameters>
          </GenericEffect>
         </Effects>
         <Attributes>
          <Attribute id="5377"  name="vectorNode">
           <VectorNode id="5378" kind="TypeWinSVG"  >
            <DoubleParameters>
             <InterpolatingParam id="5379" interp="linr"  time="0/1" value="1" leadInLength="0/1"  name="DrawTime"/>
             <InterpolatingParam id="5380" interp="linr"  time="0/1" value="0" leadInLength="0/1"  name="borderColorBlue"/>
             <InterpolatingParam id="5381" interp="linr"  time="0/1" value="0" leadInLength="0/1"  name="borderColorGreen"/>
             <InterpolatingParam id="5382" interp="linr"  time="0/1" value="255" leadInLength="0/1"  name="borderColorRed"/>
             <InterpolatingParam id="5383" interp="linr"  time="0/1" value="5" leadInLength="0/1"  name="borderWidth"/>
             <InterpolatingParam id="5384" interp="linr"  time="0/1" value="1" leadInLength="0/1"  name="flipOnXAxis"/>
             <InterpolatingParam id="5385" interp="linr"  time="0/1" value="0" leadInLength="0/1"  name="flipOnYAxis"/>
             <InterpolatingParam id="5386" interp="linr"  time="0/1" value="180" leadInLength="0/1"  name="height"/>
             <InterpolatingParam id="5387" interp="linr"  time="0/1" value="320" leadInLength="0/1"  name="width"/>
            </DoubleParameters>
            <StringParameters>
             <Parameter id="5388"  name="filename">
              <Keyframes>
              <Keyframe id="5389"  time="0/1" value="C:\Program Files (x86)\TechSmith\Camtasia Studio 8\Media\Studio\Callouts\anim_arrow.svg" leadInLength="0/1"  />
              </Keyframes>
             </Parameter>
             <Parameter id="5390"  name="name">
              <Keyframes>
              <Keyframe id="5391"  time="0/1" value="Sketch Motion Arrow" leadInLength="0/1"  />
              </Keyframes>
             </Parameter>
             <Parameter id="5392"  name="xmlContent">
              <Keyframes>
              <Keyframe id="5393"  time="0/1" value="﻿&lt;?xml version=&quot;1.0&quot; encoding=&quot;utf-8&quot;?&gt;&#xa;&lt;!-- Generator: Adobe Illustrator 13.0.2, SVG Export Plug-In . SVG Version: 6.00 Build 14948)  --&gt;&#xa;&lt;!DOCTYPE svg PUBLIC &quot;-//W3C//DTD SVG 1.1//EN&quot; &quot;http://www.w3.org/Graphics/SVG/1.1/DTD/svg11.dtd&quot;&gt;&#xa;&lt;svg version=&quot;1.1&quot; id=&quot;Layer_1&quot; xmlns=&quot;http://www.w3.org/2000/svg&quot; xmlns:xlink=&quot;http://www.w3.org/1999/xlink&quot; x=&quot;0px&quot; y=&quot;0px&quot;&#xa;&#x9; width=&quot;151.268px&quot; height=&quot;53px&quot; viewBox=&quot;0 0 151.268 53&quot; enable-background=&quot;new 0 0 151.268 53&quot; xml:space=&quot;preserve&quot;&gt;&#xa;&lt;path fill=&quot;none&quot; d=&quot;M12.852,24.926c0,0,85.25-8.838,118.688-2.996&quot;/&gt;&#xa;&lt;path fill=&quot;none&quot; d=&quot;M93.169,2.713c0,0,46.52,8.657,49.944,18.729c3.424,10.071-43.753,26.022-43.753,26.022&quot;/&gt;&#xa;&lt;/svg&gt;&#xa;" leadInLength="0/1"  />
              </Keyframes>
             </Parameter>
            </StringParameters>
           </VectorNode>
          </Attribute>
         </Attributes>
         <MetaData>
          <entry key="WinSubProjectDisplayName" val=""/>
         </MetaData>
         <LeftEdgeMods length="30/1" groupName="DrawPercentageFade">
          <EdgeMod parameter="5379">
           <FadeInFunc id="5394"  />
          </EdgeMod>
         </LeftEdgeMods>
         <RightEdgeMods length="30/1" groupName="OpacityFade">
          <EdgeMod parameter="5360">
           <FadeOutFunc id="5395"  />
          </EdgeMod>
         </RightEdgeMods>
         <ExtraData>
          <Entry key="ZoomPanBin">
           <ZoomPanBin id="5396"  >
            <ZoomPanKeyframes>
             <ZoomPanKeyframe id="5397" timeRangeEnd="-9999999/1" timeRangeDuration="0/1" interpolaterName="linr"  />
             <ZoomPanKeyframe id="5398" timeRangeEnd="87/1" timeRangeDuration="5/1" interpolaterName="linr"  />
             <ZoomPanKeyframe id="5399" timeRangeEnd="101/1" timeRangeDuration="1/1" interpolaterName="linr"  />
             <ZoomPanKeyframe id="5400" timeRangeEnd="125/1" timeRangeDuration="1/1" interpolaterName="linr"  />
             <ZoomPanKeyframe id="5401" timeRangeEnd="126/1" timeRangeDuration="1/1" interpolaterName="linr"  />
             <ZoomPanKeyframe id="5402" timeRangeEnd="128/1" timeRangeDuration="1/1" interpolaterName="linr"  />
             <ZoomPanKeyframe id="5403" timeRangeEnd="132/1" timeRangeDuration="1/1" interpolaterName="linr"  />
             <ZoomPanKeyframe id="5404" timeRangeEnd="133/1" timeRangeDuration="1/1" interpolaterName="linr"  />
             <ZoomPanKeyframe id="5405" timeRangeEnd="177/1" timeRangeDuration="27/1" interpolaterName="linr"  />
            </ZoomPanKeyframes>
           </ZoomPanBin>
          </Entry>
         </ExtraData>
        </Callout>
       </Medias>
      </GenericTrack>
      <GenericTrack id="5406"  >
       <Attributes>
        <Attribute id="5407" value="" name="ident"/>
        <Attribute id="5408" value="0" name="audioMuted"/>
        <Attribute id="5409" value="0" name="videoHidden"/>
       </Attributes>
       <MetaData>
        <entry key="IsLocked" val="False"/>
        <entry key="WinTrackHeight" val="62"/>
       </MetaData>
       <Medias>
       </Medias>
      </GenericTrack>
     </Tracks>
    </GenericMixer>
   <CaptionAttributes id="5410"  >
    <Attribute id="5411" value="1" name="captionsEnabled"/>
    <Attribute id="5412" value="Arial" name="captionsFontName"/>
    <Attribute id="5413" value="28" name="captionsFontSize"/>
    <Attribute id="5414" value="(0,0,0,255)" name="captionsBackgroundColor"/>
    <Attribute id="5415" value="(255,255,255,255)" name="captionsForegroundColor"/>
    <Attribute id="5416" value="en" name="lang"/>
    <Attribute id="5417" value="0" name="captionsAlignment"/>
    <Attribute id="5418" value="1" name="captionsDefaultFontSize"/>
    <Attribute id="5419" value="0.5" name="captionsOpacity"/>
    <Attribute id="5420" value="1" name="captionsBackgroundEnabled"/>
    <Attribute id="5421" value="1" name="captionsBackgroundOnlyAroundText"/>
   </CaptionAttributes>
   <Parameters>
    <VectorParam id="5422"  name="eyePosition">
     <InterpolatingParam id="5423" interp="linr"  time="0/1" value="0" leadInLength="0/1"  />
     <InterpolatingParam id="5424" interp="linr"  time="0/1" value="0" leadInLength="0/1"  />
     <InterpolatingParam id="5425" interp="linr"  time="0/1" value="3000" leadInLength="0/1"  />
    </VectorParam>
    <VectorParam id="5426"  name="eyeLookAtPosition">
     <InterpolatingParam id="5427" interp="linr"  time="0/1" value="0" leadInLength="0/1"  />
     <InterpolatingParam id="5428" interp="linr"  time="0/1" value="0" leadInLength="0/1"  />
     <InterpolatingParam id="5429" interp="linr"  time="0/1" value="0" leadInLength="0/1"  />
    </VectorParam>
    <VectorParam id="5430"  name="eyeUpVector">
     <InterpolatingParam id="5431" interp="linr"  time="0/1" value="0" leadInLength="0/1"  />
     <InterpolatingParam id="5432" interp="linr"  time="0/1" value="1" leadInLength="0/1"  />
     <InterpolatingParam id="5433" interp="linr"  time="0/1" value="0" leadInLength="0/1"  />
    </VectorParam>
    <InterpolatingParam id="5434" interp="linr"  time="0/1" value="0.23885785" leadInLength="0/1"  name="fov"/>
    <InterpolatingParam id="5435" interp="linr"  time="0/1" value="1.5" leadInLength="0/1"  name="nearClipDistance"/>
    <InterpolatingParam id="5436" interp="linr"  time="0/1" value="6000" leadInLength="0/1"  name="farClipDistance"/>
   </Parameters>
  </Timeline>
 </Project>
</GoProject>
</CSMLData>

</Project_Data>
