<?xml version="1.0"?>
<Project_Data Version="8.00">
<Project_Settings>
<ProfileName>MP4 with Smart Player (up to 1080p)</ProfileName>
<ProjectWidth>1280</ProjectWidth>
<ProjectHeight>720</ProjectHeight>
<IsCustomProject>0</IsCustomProject>
<SavedProjectSettings>1</SavedProjectSettings>
<LastFlashTemplate>-1</LastFlashTemplate>
</Project_Settings>


<AutoSaveFile>C:\Users\auto1\AppData\Local\TechSmith\Camtasia Studio\8.0\Auto-Saves\audio-edit6913680.autosave.camproj</AutoSaveFile>

<ProjectID>2E768B1E-5F71-47A8-9040-BD10AB82002C</ProjectID>

<PowerPointProject>0</PowerPointProject>

<PowerPointFilename></PowerPointFilename>


<Project_Notes>
</Project_Notes>

<Project_MetaData>
<Project_MetaData_Object>
<FieldArrayKey>8</FieldArrayKey>
<Value>audio-edit</Value>
</Project_MetaData_Object>
<Project_MetaData_Object>
<FieldArrayKey>13</FieldArrayKey>
<Value>2024-08-27 07:29:16 PM</Value>
</Project_MetaData_Object>
<Project_MetaData_Object>
<FieldArrayKey>16</FieldArrayKey>
<Value>ENU</Value>
</Project_MetaData_Object>
</Project_MetaData>

<CSMLData>
<GoProject id="1" version="3.0" >
 <Project id="2" editRate="30/1" version="3.0" >
  <Author></Author>
  <Comment></Comment>
  <System></System>
  <SourceBin id="3"  >
    <Source id="4" src="C:\ProgramData\TechSmith\Camtasia Studio\Library 2.0\Group_2024-08-27_192850\Syntax-Locked vs Syntax-Free_ Script - Airtable - Google Chrome - 12 August 2024.mp4" lastMod="20240813T025938" rect="(0,0,1920,1080)" >
      <SourceTrack range="(0,3104666667)" type="0" editRate="10000000/1" trackRect="(0,0,1920,1080)" sampleRate="10000000/333371" bitDepth="24" numChannels="0" filename="" metaData="" />
      <SourceTrack range="(0,3104666667)" type="2" editRate="10000000/1" trackRect="(0,0,0,0)" sampleRate="44100/1" bitDepth="16" numChannels="1" filename="" metaData="" />
    </Source>
    <Source id="5" src="C:\ProgramData\TechSmith\Camtasia Studio\Library 2.0\Group_2024-08-27_192850\2-Charlie.png" lastMod="20240824T215352" rect="(0,0,1024,1024)" >
      <SourceTrack range="(0,1)" type="1" editRate="10000000/1" trackRect="(0,0,1024,1024)" sampleRate="0/1" bitDepth="32" numChannels="0" filename="" metaData="" />
    </Source>
    <Source id="6" src="C:\ProgramData\TechSmith\Camtasia Studio\Library 2.0\Group_2024-08-27_192850\01. - English prompt - Clean - no responses.mp4" lastMod="20240825T190421" rect="(0,0,1920,1080)" >
      <SourceTrack range="(0,423333333)" type="0" editRate="10000000/1" trackRect="(0,0,1920,1080)" sampleRate="5000000/166753" bitDepth="24" numChannels="0" filename="" metaData="" />
      <SourceTrack range="(0,423333333)" type="2" editRate="10000000/1" trackRect="(0,0,0,0)" sampleRate="44100/1" bitDepth="16" numChannels="1" filename="" metaData="" />
    </Source>
    <Source id="7" src="C:\ProgramData\TechSmith\Camtasia Studio\Library 2.0\Group_2024-08-27_192850\02. English Response.mp4" lastMod="20240825T190445" rect="(0,0,1920,1080)" >
      <SourceTrack range="(0,71333333)" type="0" editRate="10000000/1" trackRect="(0,0,1920,1080)" sampleRate="10000000/335071" bitDepth="24" numChannels="0" filename="" metaData="" />
      <SourceTrack range="(0,71333333)" type="2" editRate="10000000/1" trackRect="(0,0,0,0)" sampleRate="44100/1" bitDepth="16" numChannels="1" filename="" metaData="" />
    </Source>
    <Source id="8" src="C:\ProgramData\TechSmith\Camtasia Studio\Library 2.0\Group_2024-08-27_192850\03. Finding all the Charlies + Charlie as actually... (cut off).mp4" lastMod="20240825T190453" rect="(0,0,1920,1080)" >
      <SourceTrack range="(0,219666667)" type="0" editRate="10000000/1" trackRect="(0,0,1920,1080)" sampleRate="5000000/166831" bitDepth="24" numChannels="0" filename="" metaData="" />
      <SourceTrack range="(0,219666667)" type="2" editRate="10000000/1" trackRect="(0,0,0,0)" sampleRate="44100/1" bitDepth="16" numChannels="1" filename="" metaData="" />
    </Source>
    <Source id="9" src="C:\ProgramData\TechSmith\Camtasia Studio\Library 2.0\Group_2024-08-27_192850\04. Charlie is crispy Prompt and response - english.mp4" lastMod="20240825T190501" rect="(0,0,1920,1080)" >
      <SourceTrack range="(0,256666667)" type="0" editRate="10000000/1" trackRect="(0,0,1920,1080)" sampleRate="10000000/333433" bitDepth="24" numChannels="0" filename="" metaData="" />
      <SourceTrack range="(0,256666667)" type="2" editRate="10000000/1" trackRect="(0,0,0,0)" sampleRate="44100/1" bitDepth="16" numChannels="1" filename="" metaData="" />
    </Source>
    <Source id="10" src="C:\ProgramData\TechSmith\Camtasia Studio\Library 2.0\Group_2024-08-27_192850\5-6. No - hes still puffy, his NAME is now Crispy.mp4" lastMod="20240825T190513" rect="(0,0,1920,1080)" >
      <SourceTrack range="(0,408333333)" type="0" editRate="10000000/1" trackRect="(0,0,1920,1080)" sampleRate="10000000/333513" bitDepth="24" numChannels="0" filename="" metaData="" />
      <SourceTrack range="(0,408333333)" type="2" editRate="10000000/1" trackRect="(0,0,0,0)" sampleRate="44100/1" bitDepth="16" numChannels="1" filename="" metaData="" />
    </Source>
    <Source id="11" src="C:\ProgramData\TechSmith\Camtasia Studio\Library 2.0\Group_2024-08-27_192850\07. 2 full pages of text.mp4" lastMod="20240825T190519" rect="(0,0,1920,1080)" >
      <SourceTrack range="(0,169333333)" type="0" editRate="10000000/1" trackRect="(0,0,1920,1080)" sampleRate="5000000/169559" bitDepth="24" numChannels="0" filename="" metaData="" />
      <SourceTrack range="(0,169333333)" type="2" editRate="10000000/1" trackRect="(0,0,0,0)" sampleRate="48000/1" bitDepth="16" numChannels="1" filename="" metaData="" />
    </Source>
    <Source id="12" src="C:\ProgramData\TechSmith\Camtasia Studio\Library 2.0\Group_2024-08-27_192850\08. Not a description - JSON response.mp4" lastMod="20240825T190525" rect="(0,0,1920,1080)" >
      <SourceTrack range="(0,823333333)" type="0" editRate="10000000/1" trackRect="(0,0,1920,1080)" sampleRate="10000000/337283" bitDepth="24" numChannels="0" filename="" metaData="" />
      <SourceTrack range="(0,823333333)" type="2" editRate="10000000/1" trackRect="(0,0,0,0)" sampleRate="48000/1" bitDepth="16" numChannels="1" filename="" metaData="" />
    </Source>
    <Source id="13" src="C:\ProgramData\TechSmith\Camtasia Studio\Library 2.0\Group_2024-08-27_192850\09. CHarlie is crispy - JSON .mp4" lastMod="20240825T190532" rect="(0,0,1920,1080)" >
      <SourceTrack range="(0,373000000)" type="0" editRate="10000000/1" trackRect="(0,0,1920,1080)" sampleRate="5000000/168201" bitDepth="24" numChannels="0" filename="" metaData="" />
      <SourceTrack range="(0,373000000)" type="2" editRate="10000000/1" trackRect="(0,0,0,0)" sampleRate="48000/1" bitDepth="16" numChannels="1" filename="" metaData="" />
    </Source>
    <Source id="14" src="C:\ProgramData\TechSmith\Camtasia Studio\Library 2.0\Group_2024-08-27_192850\10. JSON mistake.mp4" lastMod="20240825T190541" rect="(0,0,1920,1080)" >
      <SourceTrack range="(0,663000000)" type="0" editRate="10000000/1" trackRect="(0,0,1920,1080)" sampleRate="1250000/42221" bitDepth="24" numChannels="0" filename="" metaData="" />
      <SourceTrack range="(0,663000000)" type="2" editRate="10000000/1" trackRect="(0,0,0,0)" sampleRate="48000/1" bitDepth="16" numChannels="1" filename="" metaData="" />
    </Source>
    <Source id="15" src="C:\ProgramData\TechSmith\Camtasia Studio\Library 2.0\Group_2024-08-27_192850\11. This is the game.  Ready to describe..mp4" lastMod="20240825T190548" rect="(0,0,1920,1080)" >
      <SourceTrack range="(0,569000000)" type="0" editRate="10000000/1" trackRect="(0,0,1920,1080)" sampleRate="1250000/41683" bitDepth="24" numChannels="0" filename="" metaData="" />
      <SourceTrack range="(0,569000000)" type="2" editRate="10000000/1" trackRect="(0,0,0,0)" sampleRate="44100/1" bitDepth="16" numChannels="1" filename="" metaData="" />
    </Source>
    <Source id="16" src="C:\ProgramData\TechSmith\Camtasia Studio\Library 2.0\Group_2024-08-27_192850\12. Punchline.mp4" lastMod="20240825T190554" rect="(0,0,1920,1080)" >
      <SourceTrack range="(0,984000000)" type="0" editRate="10000000/1" trackRect="(0,0,1920,1080)" sampleRate="10000000/333373" bitDepth="24" numChannels="0" filename="" metaData="" />
      <SourceTrack range="(0,984000000)" type="2" editRate="10000000/1" trackRect="(0,0,0,0)" sampleRate="44100/1" bitDepth="16" numChannels="1" filename="" metaData="" />
    </Source>
    <Source id="17" src="C:\ProgramData\TechSmith\Camtasia Studio\Library 2.0\Group_2024-08-27_192850\13. Highlighting camp before correction.mp4" lastMod="20240825T190603" rect="(0,0,1920,1080)" >
      <SourceTrack range="(0,396000000)" type="0" editRate="10000000/1" trackRect="(0,0,1920,1080)" sampleRate="2500000/86853" bitDepth="24" numChannels="0" filename="" metaData="" />
      <SourceTrack range="(0,396000000)" type="2" editRate="10000000/1" trackRect="(0,0,0,0)" sampleRate="48000/1" bitDepth="16" numChannels="1" filename="" metaData="" />
    </Source>
    <Source id="18" src="C:\ProgramData\TechSmith\Camtasia Studio\Library 2.0\Group_2024-08-27_192850\7-vw-bus.png" lastMod="20240813T211331" rect="(0,0,1024,1024)" >
      <SourceTrack range="(0,1)" type="1" editRate="10000000/1" trackRect="(0,0,1024,1024)" sampleRate="0/1" bitDepth="32" numChannels="0" filename="" metaData="" />
    </Source>
    <Source id="19" src="C:\ProgramData\TechSmith\Camtasia Studio\Library 2.0\Group_2024-08-27_192850\5-Crispy.png" lastMod="20240824T222143" rect="(0,0,1024,1024)" >
      <SourceTrack range="(0,1)" type="1" editRate="10000000/1" trackRect="(0,0,1024,1024)" sampleRate="0/1" bitDepth="32" numChannels="0" filename="" metaData="" />
    </Source>
    <Source id="20" src="C:\ProgramData\TechSmith\Camtasia Studio\Library 2.0\Group_2024-08-27_192850\3-Crispy.png" lastMod="20240813T211933" rect="(0,0,1024,1024)" >
      <SourceTrack range="(0,1)" type="1" editRate="10000000/1" trackRect="(0,0,1024,1024)" sampleRate="0/1" bitDepth="32" numChannels="0" filename="" metaData="" />
    </Source>
    <Source id="21" src="C:\syntax-free-research\CloudyDemo\Videos\charlie-crispy-demo-16\charlie-crispy-demo-16.mp4" lastMod="20240826T163044" rect="(0,0,1280,720)" >
      <SourceTrack range="(0,2984000000)" type="0" editRate="10000000/1" trackRect="(0,0,1280,720)" sampleRate="10000000/333333" bitDepth="24" numChannels="0" filename="" metaData="" />
      <SourceTrack range="(0,2984000000)" type="2" editRate="10000000/1" trackRect="(0,0,0,0)" sampleRate="44100/1" bitDepth="16" numChannels="2" filename="" metaData="" />
    </Source>
    <Source id="22" src="C:\syntax-free-research\CloudyDemo\Videos\Full script v5 (mp3cut.net).m4a" lastMod="20240828T001936" rect="(0,0,0,0)" >
      <SourceTrack range="(0,4856000000)" type="2" editRate="10000000/1" trackRect="(0,0,0,0)" sampleRate="44100/1" bitDepth="16" numChannels="1" filename="" metaData="" />
    </Source>
    <Source id="23" src="C:\syntax-free-research\CloudyDemo\Marshmallow Madness\1-Roast-And-Toast-Game.png" lastMod="20240828T003854" rect="(0,0,1024,1024)" >
      <SourceTrack range="(0,1)" type="1" editRate="10000000/1" trackRect="(0,0,1024,1024)" sampleRate="0/1" bitDepth="32" numChannels="0" filename="" metaData="" />
    </Source>
    <Source id="24" src="C:\syntax-free-research\CloudyDemo\Marshmallow Madness\cloudy-landing-page.png" lastMod="20240828T154255" rect="(0,0,1874,1006)" >
      <SourceTrack range="(0,1)" type="1" editRate="10000000/1" trackRect="(0,0,1874,1006)" sampleRate="0/1" bitDepth="32" numChannels="0" filename="" metaData="" />
    </Source>
    <Source id="25" src="C:\syntax-free-research\CloudyDemo\Videos\Ancient Greek, take 3.m4a" lastMod="20240828T161849" rect="(0,0,0,0)" >
      <SourceTrack range="(0,129000000)" type="2" editRate="10000000/1" trackRect="(0,0,0,0)" sampleRate="48000/1" bitDepth="16" numChannels="1" filename="" metaData="" />
    </Source>
    <Source id="26" src="C:\syntax-free-research\CloudyDemo\Videos\Ancient Greek take 4.m4a" lastMod="20240828T162244" rect="(0,0,0,0)" >
      <SourceTrack range="(0,45333333)" type="2" editRate="10000000/1" trackRect="(0,0,0,0)" sampleRate="48000/1" bitDepth="16" numChannels="1" filename="" metaData="" />
    </Source>
  </SourceBin>
  <Timeline id="27"  >
   <Attributes>
    <Attribute id="28" value="1280" name="width"/>
    <Attribute id="29" value="720" name="height"/>
    <Attribute id="30" value="(0,0,0,255)" name="backgroundColor"/>
   </Attributes>
    <GenericMixer id="31"  name="Unified Mixer">
     <MetaData>
      <entry key="MixerType" val="TimelineMixer"/>
     </MetaData>
     <Tracks>
      <GenericTrack id="32"  >
       <Attributes>
        <Attribute id="33" value="" name="ident"/>
        <Attribute id="34" value="0" name="audioMuted"/>
        <Attribute id="35" value="0" name="videoHidden"/>
       </Attributes>
       <MetaData>
        <entry key="IsLocked" val="False"/>
        <entry key="WinTrackHeight" val="62"/>
       </MetaData>
       <Medias>
        <UnifiedMedia id="36"  >
         <AMFile id="37" start="6" duration="288" scalar="1/1" mediaStart="0/1" mediaDuration="288/1" trackNumber="1" src="21" channelNumber="0,1" >
          <Parameters>
           <InterpolatingParam id="38" interp="linr"  name="volume">
            <Keyframes>
            <Keyframe id="39"  time="-1/1" value="1" leadInLength="0/1"  />
            <Keyframe id="40"  time="0/1" value="0" leadInLength="0/1"  />
            <Keyframe id="41"  time="8952/1" value="0" leadInLength="0/1"  />
            <Keyframe id="42"  time="8953/1" value="1" leadInLength="0/1"  />
            </Keyframes>
           </InterpolatingParam>
           <Parameter id="43"  name="captions"/>
          </Parameters>
          <Attributes>
           <Attribute id="44" value="" name="ident"/>
           <Attribute id="45" value="44100" name="sampleRate"/>
           <Attribute id="46" value="16" name="bitDepth"/>
           <Attribute id="47" value="1" name="gain"/>
           <Attribute id="48" value="0" name="mixToMono"/>
          </Attributes>
         </AMFile>
         <VMFile id="49" start="6" duration="288" scalar="1/1" mediaStart="0/1" mediaDuration="288/1" trackNumber="0" src="21" >
          <Transformer>
           <VectorParam id="50"  name="translation">
            <InterpolatingParam id="51" interp="linr"  time="-9999999/1" value="-13.492063492043858" leadInLength="0/1"  />
            <InterpolatingParam id="52" interp="linr"  time="-9999999/1" value="-28.839285714807907" leadInLength="0/1"  />
            <InterpolatingParam id="53" interp="linr"  time="-9999999/1" value="0" leadInLength="0/1"  />
           </VectorParam>
           <VectorParam id="54"  name="rotation">
            <InterpolatingParam id="55" interp="linr"  time="-9999999/1" value="0" leadInLength="0/1"  />
            <InterpolatingParam id="56" interp="linr"  time="-9999999/1" value="0" leadInLength="0/1"  />
            <InterpolatingParam id="57" interp="linr"  time="-9999999/1" value="0" leadInLength="0/1"  />
           </VectorParam>
           <VectorParam id="58"  name="shear">
            <InterpolatingParam id="59" interp="linr"  time="-9999999/1" value="0" leadInLength="0/1"  />
            <InterpolatingParam id="60" interp="linr"  time="-9999999/1" value="0" leadInLength="0/1"  />
            <InterpolatingParam id="61" interp="linr"  time="-9999999/1" value="0" leadInLength="0/1"  />
           </VectorParam>
           <VectorParam id="62"  name="scale">
            <InterpolatingParam id="63" interp="linr"  time="-9999999/1" value="1.3692956349208234" leadInLength="0/1"  />
            <InterpolatingParam id="64" interp="linr"  time="-9999999/1" value="1.3692956349208234" leadInLength="0/1"  />
            <InterpolatingParam id="65" interp="linr"  time="-9999999/1" value="1" leadInLength="0/1"  />
           </VectorParam>
           <VectorParam id="66"  name="anchor">
            <InterpolatingParam id="67" interp="linr"  time="0/1" value="0" leadInLength="0/1"  />
            <InterpolatingParam id="68" interp="linr"  time="0/1" value="0" leadInLength="0/1"  />
            <InterpolatingParam id="69" interp="linr"  time="0/1" value="0" leadInLength="0/1"  />
           </VectorParam>
          </Transformer>
          <Parameters>
           <VectorParam id="70"  name="sourceCrop">
            <InterpolatingParam id="71" interp="linr"  time="0/1" value="0" leadInLength="0/1"  />
            <InterpolatingParam id="72" interp="linr"  time="0/1" value="0" leadInLength="0/1"  />
            <InterpolatingParam id="73" interp="linr"  time="0/1" value="0" leadInLength="0/1"  />
            <InterpolatingParam id="74" interp="linr"  time="0/1" value="0" leadInLength="0/1"  />
           </VectorParam>
           <VectorParam id="75"  name="geometryCrop">
            <InterpolatingParam id="76" interp="linr"  time="-9999999/1" value="0" leadInLength="0/1"  />
            <InterpolatingParam id="77" interp="linr"  time="-9999999/1" value="0" leadInLength="0/1"  />
            <InterpolatingParam id="78" interp="linr"  time="-9999999/1" value="0" leadInLength="0/1"  />
            <InterpolatingParam id="79" interp="linr"  time="-9999999/1" value="0" leadInLength="0/1"  />
           </VectorParam>
           <InterpolatingParam id="80" interp="linr"  time="-9999999/1" value="1" leadInLength="0/1"  name="opacity"/>
          </Parameters>
          <Attributes>
           <Attribute id="81" value="" name="ident"/>
          </Attributes>
          <ExtraData>
           <Entry key="ZoomPanBin">
            <ZoomPanBin id="82"  >
             <ZoomPanKeyframes>
              <ZoomPanKeyframe id="83" timeRangeEnd="-9999999/1" timeRangeDuration="0/1" interpolaterName="linr"  />
             </ZoomPanKeyframes>
            </ZoomPanBin>
           </Entry>
          </ExtraData>
         </VMFile>
         <MetaData>
          <entry key="WinSubProjectDisplayName" val=""/>
         </MetaData>
        </UnifiedMedia>
        <UnifiedMedia id="84"  >
         <AudioTransition id="85" start="450" duration="44" >
          <Parameters>
           <InterpolatingParam id="86" interp="linr"  time="0/1" value="1" leadInLength="0/1"  name="volume"/>
           <Parameter id="87"  name="captions"/>
          </Parameters>
          <Effects>
           <GenericEffect id="88" name = "AudioTransition" >
            <Parameters>
            <Parameter id="89"   name="audioEdgeModType">
             <Keyframes>
             <Keyframe id="90"  time="0/1" value="0" leadInLength="0/1"  />
             </Keyframes>
            </Parameter>
            <Parameter id="91"   name="audioTransitionType">
             <Keyframes>
             <Keyframe id="92"  time="0/1" value="" leadInLength="0/1"  />
             </Keyframes>
            </Parameter>
            </Parameters>
            <MetaData>
            </MetaData>
           </GenericEffect>
          </Effects>
          <Attributes>
           <Attribute id="93" value="" name="ident"/>
           <Attribute id="94" value="0" name="sampleRate"/>
           <Attribute id="95" value="0" name="bitDepth"/>
           <Attribute id="96" value="1" name="gain"/>
           <Attribute id="97" value="0" name="mixToMono"/>
          </Attributes>
         </AudioTransition>
         <ImageTransition id="98" start="450" duration="44" >
          <Transformer>
           <VectorParam id="99"  name="translation">
            <InterpolatingParam id="100" interp="linr"  time="0/1" value="0" leadInLength="0/1"  />
            <InterpolatingParam id="101" interp="linr"  time="0/1" value="0" leadInLength="0/1"  />
            <InterpolatingParam id="102" interp="linr"  time="0/1" value="0" leadInLength="0/1"  />
           </VectorParam>
           <VectorParam id="103"  name="rotation">
            <InterpolatingParam id="104" interp="linr"  time="0/1" value="0" leadInLength="0/1"  />
            <InterpolatingParam id="105" interp="linr"  time="0/1" value="0" leadInLength="0/1"  />
            <InterpolatingParam id="106" interp="linr"  time="0/1" value="0" leadInLength="0/1"  />
           </VectorParam>
           <VectorParam id="107"  name="shear">
            <InterpolatingParam id="108" interp="linr"  time="0/1" value="0" leadInLength="0/1"  />
            <InterpolatingParam id="109" interp="linr"  time="0/1" value="0" leadInLength="0/1"  />
            <InterpolatingParam id="110" interp="linr"  time="0/1" value="0" leadInLength="0/1"  />
           </VectorParam>
           <VectorParam id="111"  name="scale">
            <InterpolatingParam id="112" interp="linr"  time="0/1" value="1" leadInLength="0/1"  />
            <InterpolatingParam id="113" interp="linr"  time="0/1" value="1" leadInLength="0/1"  />
            <InterpolatingParam id="114" interp="linr"  time="0/1" value="1" leadInLength="0/1"  />
           </VectorParam>
           <VectorParam id="115"  name="anchor">
            <InterpolatingParam id="116" interp="linr"  time="0/1" value="0" leadInLength="0/1"  />
            <InterpolatingParam id="117" interp="linr"  time="0/1" value="0" leadInLength="0/1"  />
            <InterpolatingParam id="118" interp="linr"  time="0/1" value="0" leadInLength="0/1"  />
           </VectorParam>
          </Transformer>
          <Parameters>
           <VectorParam id="119"  name="sourceCrop">
            <InterpolatingParam id="120" interp="linr"  time="0/1" value="0" leadInLength="0/1"  />
            <InterpolatingParam id="121" interp="linr"  time="0/1" value="0" leadInLength="0/1"  />
            <InterpolatingParam id="122" interp="linr"  time="0/1" value="0" leadInLength="0/1"  />
            <InterpolatingParam id="123" interp="linr"  time="0/1" value="0" leadInLength="0/1"  />
           </VectorParam>
           <VectorParam id="124"  name="geometryCrop">
            <InterpolatingParam id="125" interp="linr"  time="0/1" value="0" leadInLength="0/1"  />
            <InterpolatingParam id="126" interp="linr"  time="0/1" value="0" leadInLength="0/1"  />
            <InterpolatingParam id="127" interp="linr"  time="0/1" value="0" leadInLength="0/1"  />
            <InterpolatingParam id="128" interp="linr"  time="0/1" value="0" leadInLength="0/1"  />
           </VectorParam>
           <InterpolatingParam id="129" interp="linr"  time="0/1" value="1" leadInLength="0/1"  name="opacity"/>
          </Parameters>
          <Effects>
           <GenericEffect id="130" name = "VisualTransition" >
            <Parameters>
            <InterpolatingParam id="131" interp="linr"  time="0/1" value="0.5" leadInLength="0/1"   name="leftFramePercentage"/>
            <InterpolatingParam id="132" interp="linr"  time="0/1" value="0.5" leadInLength="0/1"   name="rightFramePercentage"/>
            <Parameter id="133"   name="visualEdgeModType">
             <Keyframes>
             <Keyframe id="134"  time="0/1" value="1" leadInLength="0/1"  />
             </Keyframes>
            </Parameter>
            <Parameter id="135"   name="visualTransitionType">
             <Keyframes>
             <Keyframe id="136"  time="0/1" value="RandomDissolve" leadInLength="0/1"  />
             </Keyframes>
            </Parameter>
            </Parameters>
            <MetaData>
            </MetaData>
           </GenericEffect>
          </Effects>
          <Attributes>
           <Attribute id="137" value="" name="ident"/>
          </Attributes>
          <ExtraData>
           <Entry key="ZoomPanBin">
            <ZoomPanBin id="138"  >
             <ZoomPanKeyframes>
             </ZoomPanKeyframes>
            </ZoomPanBin>
           </Entry>
          </ExtraData>
         </ImageTransition>
         <MetaData>
          <entry key="WinSubProjectDisplayName" val=""/>
         </MetaData>
        </UnifiedMedia>
        <IMFile id="139" start="494" duration="975" scalar="1/1" mediaStart="0/1" mediaDuration="1/1" trackNumber="0" src="24" trimStartSum="-8/1" >
         <Transformer>
          <VectorParam id="140"  name="translation">
           <InterpolatingParam id="141" interp="linr"  >
            <Keyframes>
            <Keyframe id="142"  time="-9999999/1" value="-4.7594150842652701e-011" leadInLength="0/1"  />
            <Keyframe id="143"  time="142/1" value="167.71109699396141" leadInLength="64/1"  interpolater="leadin-linr"  />
            <Keyframe id="144"  time="562/1" value="-171.90446224566008" leadInLength="38/1"  interpolater="leadin-linr"  />
            <Keyframe id="145"  time="897/1" value="-1.4428014338818683e-011" leadInLength="30/1"  interpolater="leadin-linr"  />
            </Keyframes>
           </InterpolatingParam>
           <InterpolatingParam id="146" interp="linr"  >
            <Keyframes>
            <Keyframe id="147"  time="-9999999/1" value="16.435432230515286" leadInLength="0/1"  />
            <Keyframe id="148"  time="142/1" value="-73.595178002159855" leadInLength="64/1"  interpolater="leadin-linr"  />
            <Keyframe id="149"  time="562/1" value="-75.846258815031106" leadInLength="38/1"  interpolater="leadin-linr"  />
            <Keyframe id="150"  time="897/1" value="16.43543223051249" leadInLength="30/1"  interpolater="leadin-linr"  />
            </Keyframes>
           </InterpolatingParam>
           <InterpolatingParam id="151" interp="linr"  >
            <Keyframes>
            <Keyframe id="152"  time="-9999999/1" value="0" leadInLength="0/1"  />
            <Keyframe id="153"  time="142/1" value="0" leadInLength="64/1"  interpolater="leadin-linr"  />
            <Keyframe id="154"  time="562/1" value="0" leadInLength="38/1"  interpolater="leadin-linr"  />
            <Keyframe id="155"  time="897/1" value="0" leadInLength="30/1"  interpolater="leadin-linr"  />
            </Keyframes>
           </InterpolatingParam>
          </VectorParam>
          <VectorParam id="156"  name="rotation">
           <InterpolatingParam id="157" interp="linr"  >
            <Keyframes>
            <Keyframe id="158"  time="-9999999/1" value="0" leadInLength="0/1"  />
            <Keyframe id="159"  time="142/1" value="0" leadInLength="64/1"  interpolater="leadin-linr"  />
            <Keyframe id="160"  time="562/1" value="0" leadInLength="38/1"  interpolater="leadin-linr"  />
            <Keyframe id="161"  time="897/1" value="0" leadInLength="30/1"  interpolater="leadin-linr"  />
            </Keyframes>
           </InterpolatingParam>
           <InterpolatingParam id="162" interp="linr"  >
            <Keyframes>
            <Keyframe id="163"  time="-9999999/1" value="0" leadInLength="0/1"  />
            <Keyframe id="164"  time="142/1" value="0" leadInLength="64/1"  interpolater="leadin-linr"  />
            <Keyframe id="165"  time="562/1" value="0" leadInLength="38/1"  interpolater="leadin-linr"  />
            <Keyframe id="166"  time="897/1" value="0" leadInLength="30/1"  interpolater="leadin-linr"  />
            </Keyframes>
           </InterpolatingParam>
           <InterpolatingParam id="167" interp="linr"  >
            <Keyframes>
            <Keyframe id="168"  time="-9999999/1" value="0" leadInLength="0/1"  />
            <Keyframe id="169"  time="142/1" value="0" leadInLength="64/1"  interpolater="leadin-linr"  />
            <Keyframe id="170"  time="562/1" value="0" leadInLength="38/1"  interpolater="leadin-linr"  />
            <Keyframe id="171"  time="897/1" value="0" leadInLength="30/1"  interpolater="leadin-linr"  />
            </Keyframes>
           </InterpolatingParam>
          </VectorParam>
          <VectorParam id="172"  name="shear">
           <InterpolatingParam id="173" interp="linr"  >
            <Keyframes>
            <Keyframe id="174"  time="-9999999/1" value="0" leadInLength="0/1"  />
            <Keyframe id="175"  time="142/1" value="0" leadInLength="64/1"  interpolater="leadin-linr"  />
            <Keyframe id="176"  time="562/1" value="0" leadInLength="38/1"  interpolater="leadin-linr"  />
            <Keyframe id="177"  time="897/1" value="0" leadInLength="30/1"  interpolater="leadin-linr"  />
            </Keyframes>
           </InterpolatingParam>
           <InterpolatingParam id="178" interp="linr"  >
            <Keyframes>
            <Keyframe id="179"  time="-9999999/1" value="0" leadInLength="0/1"  />
            <Keyframe id="180"  time="142/1" value="0" leadInLength="64/1"  interpolater="leadin-linr"  />
            <Keyframe id="181"  time="562/1" value="0" leadInLength="38/1"  interpolater="leadin-linr"  />
            <Keyframe id="182"  time="897/1" value="0" leadInLength="30/1"  interpolater="leadin-linr"  />
            </Keyframes>
           </InterpolatingParam>
           <InterpolatingParam id="183" interp="linr"  >
            <Keyframes>
            <Keyframe id="184"  time="-9999999/1" value="0" leadInLength="0/1"  />
            <Keyframe id="185"  time="142/1" value="0" leadInLength="64/1"  interpolater="leadin-linr"  />
            <Keyframe id="186"  time="562/1" value="0" leadInLength="38/1"  interpolater="leadin-linr"  />
            <Keyframe id="187"  time="897/1" value="0" leadInLength="30/1"  interpolater="leadin-linr"  />
            </Keyframes>
           </InterpolatingParam>
          </VectorParam>
          <VectorParam id="188"  name="scale">
           <InterpolatingParam id="189" interp="linr"  >
            <Keyframes>
            <Keyframe id="190"  time="-9999999/1" value="0.68303094983981871" leadInLength="0/1"  />
            <Keyframe id="191"  time="142/1" value="0.86201824652508374" leadInLength="64/1"  interpolater="leadin-linr"  />
            <Keyframe id="192"  time="562/1" value="0.86649355629229541" leadInLength="38/1"  interpolater="leadin-linr"  />
            <Keyframe id="193"  time="897/1" value="0.68303094983993484" leadInLength="30/1"  interpolater="leadin-linr"  />
            </Keyframes>
           </InterpolatingParam>
           <InterpolatingParam id="194" interp="linr"  >
            <Keyframes>
            <Keyframe id="195"  time="-9999999/1" value="0.68303094983981882" leadInLength="0/1"  />
            <Keyframe id="196"  time="142/1" value="0.86201824652508341" leadInLength="64/1"  interpolater="leadin-linr"  />
            <Keyframe id="197"  time="562/1" value="0.86649355629229374" leadInLength="38/1"  interpolater="leadin-linr"  />
            <Keyframe id="198"  time="897/1" value="0.68303094983993518" leadInLength="30/1"  interpolater="leadin-linr"  />
            </Keyframes>
           </InterpolatingParam>
           <InterpolatingParam id="199" interp="linr"  >
            <Keyframes>
            <Keyframe id="200"  time="-9999999/1" value="0.99999999999999933" leadInLength="0/1"  />
            <Keyframe id="201"  time="142/1" value="0.99999999999999956" leadInLength="64/1"  interpolater="leadin-linr"  />
            <Keyframe id="202"  time="562/1" value="0.99999999999999845" leadInLength="38/1"  interpolater="leadin-linr"  />
            <Keyframe id="203"  time="897/1" value="0.99999999999999933" leadInLength="30/1"  interpolater="leadin-linr"  />
            </Keyframes>
           </InterpolatingParam>
          </VectorParam>
          <VectorParam id="204"  name="anchor">
           <InterpolatingParam id="205" interp="linr"  time="0/1" value="0" leadInLength="0/1"  />
           <InterpolatingParam id="206" interp="linr"  time="0/1" value="0" leadInLength="0/1"  />
           <InterpolatingParam id="207" interp="linr"  time="0/1" value="0" leadInLength="0/1"  />
          </VectorParam>
         </Transformer>
         <Parameters>
          <VectorParam id="208"  name="sourceCrop">
           <InterpolatingParam id="209" interp="linr"  time="0/1" value="0" leadInLength="0/1"  />
           <InterpolatingParam id="210" interp="linr"  time="0/1" value="0" leadInLength="0/1"  />
           <InterpolatingParam id="211" interp="linr"  time="0/1" value="0" leadInLength="0/1"  />
           <InterpolatingParam id="212" interp="linr"  time="0/1" value="0" leadInLength="0/1"  />
          </VectorParam>
          <VectorParam id="213"  name="geometryCrop">
           <InterpolatingParam id="214" interp="linr"  >
            <Keyframes>
            <Keyframe id="215"  time="-9999999/1" value="0" leadInLength="0/1"  />
            <Keyframe id="216"  time="142/1" value="0" leadInLength="64/1"  interpolater="leadin-linr"  />
            <Keyframe id="217"  time="562/1" value="0" leadInLength="38/1"  interpolater="leadin-linr"  />
            <Keyframe id="218"  time="897/1" value="0" leadInLength="30/1"  interpolater="leadin-linr"  />
            </Keyframes>
           </InterpolatingParam>
           <InterpolatingParam id="219" interp="linr"  >
            <Keyframes>
            <Keyframe id="220"  time="-9999999/1" value="0" leadInLength="0/1"  />
            <Keyframe id="221"  time="142/1" value="0" leadInLength="64/1"  interpolater="leadin-linr"  />
            <Keyframe id="222"  time="562/1" value="0" leadInLength="38/1"  interpolater="leadin-linr"  />
            <Keyframe id="223"  time="897/1" value="0" leadInLength="30/1"  interpolater="leadin-linr"  />
            </Keyframes>
           </InterpolatingParam>
           <InterpolatingParam id="224" interp="linr"  >
            <Keyframes>
            <Keyframe id="225"  time="-9999999/1" value="0" leadInLength="0/1"  />
            <Keyframe id="226"  time="142/1" value="0" leadInLength="64/1"  interpolater="leadin-linr"  />
            <Keyframe id="227"  time="562/1" value="0" leadInLength="38/1"  interpolater="leadin-linr"  />
            <Keyframe id="228"  time="897/1" value="0" leadInLength="30/1"  interpolater="leadin-linr"  />
            </Keyframes>
           </InterpolatingParam>
           <InterpolatingParam id="229" interp="linr"  >
            <Keyframes>
            <Keyframe id="230"  time="-9999999/1" value="0" leadInLength="0/1"  />
            <Keyframe id="231"  time="142/1" value="0" leadInLength="64/1"  interpolater="leadin-linr"  />
            <Keyframe id="232"  time="562/1" value="0" leadInLength="38/1"  interpolater="leadin-linr"  />
            <Keyframe id="233"  time="897/1" value="0" leadInLength="30/1"  interpolater="leadin-linr"  />
            </Keyframes>
           </InterpolatingParam>
          </VectorParam>
          <InterpolatingParam id="234" interp="linr"  name="opacity">
           <Keyframes>
           <Keyframe id="235"  time="-9999999/1" value="1" leadInLength="0/1"  />
           <Keyframe id="236"  time="142/1" value="1" leadInLength="64/1"  interpolater="leadin-linr"  />
           <Keyframe id="237"  time="562/1" value="1" leadInLength="38/1"  interpolater="leadin-linr"  />
           <Keyframe id="238"  time="897/1" value="1" leadInLength="30/1"  interpolater="leadin-linr"  />
           </Keyframes>
          </InterpolatingParam>
         </Parameters>
         <Attributes>
          <Attribute id="239" value="" name="ident"/>
         </Attributes>
         <MetaData>
          <entry key="WinSubProjectDisplayName" val=""/>
         </MetaData>
         <ExtraData>
          <Entry key="ZoomPanBin">
           <ZoomPanBin id="240"  >
            <ZoomPanKeyframes>
             <ZoomPanKeyframe id="241" timeRangeEnd="-9999999/1" timeRangeDuration="0/1" interpolaterName="linr"  />
             <ZoomPanKeyframe id="242" timeRangeEnd="562/1" timeRangeDuration="38/1" interpolaterName="linr"  />
             <ZoomPanKeyframe id="243" timeRangeEnd="142/1" timeRangeDuration="64/1" interpolaterName="linr"  />
             <ZoomPanKeyframe id="244" timeRangeEnd="897/1" timeRangeDuration="30/1" interpolaterName="linr"  />
            </ZoomPanKeyframes>
           </ZoomPanBin>
          </Entry>
         </ExtraData>
        </IMFile>
        <UnifiedMedia id="245"  >
         <AMFile id="246" start="1469" duration="68" scalar="1/1" mediaStart="1463/1" mediaDuration="68/1" trackNumber="1" src="21" channelNumber="0,1" >
          <Parameters>
           <InterpolatingParam id="247" interp="linr"  name="volume">
            <Keyframes>
            <Keyframe id="248"  time="-1/1" value="1" leadInLength="0/1"  />
            <Keyframe id="249"  time="0/1" value="0" leadInLength="0/1"  />
            <Keyframe id="250"  time="8952/1" value="0" leadInLength="0/1"  />
            <Keyframe id="251"  time="8953/1" value="1" leadInLength="0/1"  />
            </Keyframes>
           </InterpolatingParam>
           <Parameter id="252"  name="captions"/>
          </Parameters>
          <Attributes>
           <Attribute id="253" value="" name="ident"/>
           <Attribute id="254" value="44100" name="sampleRate"/>
           <Attribute id="255" value="16" name="bitDepth"/>
           <Attribute id="256" value="1" name="gain"/>
           <Attribute id="257" value="0" name="mixToMono"/>
          </Attributes>
         </AMFile>
         <VMFile id="258" start="1469" duration="68" scalar="1/1" mediaStart="1463/1" mediaDuration="68/1" trackNumber="0" src="21" >
          <Transformer>
           <VectorParam id="259"  name="translation">
            <InterpolatingParam id="260" interp="linr"  time="-9999999/1" value="0" leadInLength="0/1"  />
            <InterpolatingParam id="261" interp="linr"  time="-9999999/1" value="0" leadInLength="0/1"  />
            <InterpolatingParam id="262" interp="linr"  time="-9999999/1" value="0" leadInLength="0/1"  />
           </VectorParam>
           <VectorParam id="263"  name="rotation">
            <InterpolatingParam id="264" interp="linr"  time="-9999999/1" value="0" leadInLength="0/1"  />
            <InterpolatingParam id="265" interp="linr"  time="-9999999/1" value="0" leadInLength="0/1"  />
            <InterpolatingParam id="266" interp="linr"  time="-9999999/1" value="0" leadInLength="0/1"  />
           </VectorParam>
           <VectorParam id="267"  name="shear">
            <InterpolatingParam id="268" interp="linr"  time="-9999999/1" value="0" leadInLength="0/1"  />
            <InterpolatingParam id="269" interp="linr"  time="-9999999/1" value="0" leadInLength="0/1"  />
            <InterpolatingParam id="270" interp="linr"  time="-9999999/1" value="0" leadInLength="0/1"  />
           </VectorParam>
           <VectorParam id="271"  name="scale">
            <InterpolatingParam id="272" interp="linr"  time="-9999999/1" value="1" leadInLength="0/1"  />
            <InterpolatingParam id="273" interp="linr"  time="-9999999/1" value="1" leadInLength="0/1"  />
            <InterpolatingParam id="274" interp="linr"  time="-9999999/1" value="1" leadInLength="0/1"  />
           </VectorParam>
           <VectorParam id="275"  name="anchor">
            <InterpolatingParam id="276" interp="linr"  time="0/1" value="0" leadInLength="0/1"  />
            <InterpolatingParam id="277" interp="linr"  time="0/1" value="0" leadInLength="0/1"  />
            <InterpolatingParam id="278" interp="linr"  time="0/1" value="0" leadInLength="0/1"  />
           </VectorParam>
          </Transformer>
          <Parameters>
           <VectorParam id="279"  name="sourceCrop">
            <InterpolatingParam id="280" interp="linr"  time="0/1" value="0" leadInLength="0/1"  />
            <InterpolatingParam id="281" interp="linr"  time="0/1" value="0" leadInLength="0/1"  />
            <InterpolatingParam id="282" interp="linr"  time="0/1" value="0" leadInLength="0/1"  />
            <InterpolatingParam id="283" interp="linr"  time="0/1" value="0" leadInLength="0/1"  />
           </VectorParam>
           <VectorParam id="284"  name="geometryCrop">
            <InterpolatingParam id="285" interp="linr"  time="-9999999/1" value="0" leadInLength="0/1"  />
            <InterpolatingParam id="286" interp="linr"  time="-9999999/1" value="0" leadInLength="0/1"  />
            <InterpolatingParam id="287" interp="linr"  time="-9999999/1" value="0" leadInLength="0/1"  />
            <InterpolatingParam id="288" interp="linr"  time="-9999999/1" value="0" leadInLength="0/1"  />
           </VectorParam>
           <InterpolatingParam id="289" interp="linr"  time="-9999999/1" value="1" leadInLength="0/1"  name="opacity"/>
          </Parameters>
          <Attributes>
           <Attribute id="290" value="" name="ident"/>
          </Attributes>
          <ExtraData>
           <Entry key="ZoomPanBin">
            <ZoomPanBin id="291"  >
             <ZoomPanKeyframes>
              <ZoomPanKeyframe id="292" timeRangeEnd="-9999999/1" timeRangeDuration="0/1" interpolaterName="linr"  />
             </ZoomPanKeyframes>
            </ZoomPanBin>
           </Entry>
          </ExtraData>
         </VMFile>
         <MetaData>
          <entry key="WinSubProjectDisplayName" val=""/>
         </MetaData>
        </UnifiedMedia>
        <UnifiedMedia id="293"  >
         <AMFile id="294" start="1537" duration="34" scalar="1/1" mediaStart="1531/1" mediaDuration="34/1" trackNumber="1" src="21" channelNumber="0,1" >
          <Parameters>
           <InterpolatingParam id="295" interp="linr"  name="volume">
            <Keyframes>
            <Keyframe id="296"  time="-1/1" value="1" leadInLength="0/1"  />
            <Keyframe id="297"  time="0/1" value="0" leadInLength="0/1"  />
            <Keyframe id="298"  time="8952/1" value="0" leadInLength="0/1"  />
            <Keyframe id="299"  time="8953/1" value="1" leadInLength="0/1"  />
            </Keyframes>
           </InterpolatingParam>
           <Parameter id="300"  name="captions"/>
          </Parameters>
          <Attributes>
           <Attribute id="301" value="" name="ident"/>
           <Attribute id="302" value="44100" name="sampleRate"/>
           <Attribute id="303" value="16" name="bitDepth"/>
           <Attribute id="304" value="1" name="gain"/>
           <Attribute id="305" value="0" name="mixToMono"/>
          </Attributes>
         </AMFile>
         <VMFile id="306" start="1537" duration="34" scalar="1/1" mediaStart="1531/1" mediaDuration="34/1" trackNumber="0" src="21" >
          <Transformer>
           <VectorParam id="307"  name="translation">
            <InterpolatingParam id="308" interp="linr"  time="-9999999/1" value="0" leadInLength="0/1"  />
            <InterpolatingParam id="309" interp="linr"  time="-9999999/1" value="0" leadInLength="0/1"  />
            <InterpolatingParam id="310" interp="linr"  time="-9999999/1" value="0" leadInLength="0/1"  />
           </VectorParam>
           <VectorParam id="311"  name="rotation">
            <InterpolatingParam id="312" interp="linr"  time="-9999999/1" value="0" leadInLength="0/1"  />
            <InterpolatingParam id="313" interp="linr"  time="-9999999/1" value="0" leadInLength="0/1"  />
            <InterpolatingParam id="314" interp="linr"  time="-9999999/1" value="0" leadInLength="0/1"  />
           </VectorParam>
           <VectorParam id="315"  name="shear">
            <InterpolatingParam id="316" interp="linr"  time="-9999999/1" value="0" leadInLength="0/1"  />
            <InterpolatingParam id="317" interp="linr"  time="-9999999/1" value="0" leadInLength="0/1"  />
            <InterpolatingParam id="318" interp="linr"  time="-9999999/1" value="0" leadInLength="0/1"  />
           </VectorParam>
           <VectorParam id="319"  name="scale">
            <InterpolatingParam id="320" interp="linr"  time="-9999999/1" value="1" leadInLength="0/1"  />
            <InterpolatingParam id="321" interp="linr"  time="-9999999/1" value="1" leadInLength="0/1"  />
            <InterpolatingParam id="322" interp="linr"  time="-9999999/1" value="1" leadInLength="0/1"  />
           </VectorParam>
           <VectorParam id="323"  name="anchor">
            <InterpolatingParam id="324" interp="linr"  time="0/1" value="0" leadInLength="0/1"  />
            <InterpolatingParam id="325" interp="linr"  time="0/1" value="0" leadInLength="0/1"  />
            <InterpolatingParam id="326" interp="linr"  time="0/1" value="0" leadInLength="0/1"  />
           </VectorParam>
          </Transformer>
          <Parameters>
           <VectorParam id="327"  name="sourceCrop">
            <InterpolatingParam id="328" interp="linr"  time="0/1" value="0" leadInLength="0/1"  />
            <InterpolatingParam id="329" interp="linr"  time="0/1" value="0" leadInLength="0/1"  />
            <InterpolatingParam id="330" interp="linr"  time="0/1" value="0" leadInLength="0/1"  />
            <InterpolatingParam id="331" interp="linr"  time="0/1" value="0" leadInLength="0/1"  />
           </VectorParam>
           <VectorParam id="332"  name="geometryCrop">
            <InterpolatingParam id="333" interp="linr"  time="-9999999/1" value="0" leadInLength="0/1"  />
            <InterpolatingParam id="334" interp="linr"  time="-9999999/1" value="0" leadInLength="0/1"  />
            <InterpolatingParam id="335" interp="linr"  time="-9999999/1" value="0" leadInLength="0/1"  />
            <InterpolatingParam id="336" interp="linr"  time="-9999999/1" value="0" leadInLength="0/1"  />
           </VectorParam>
           <InterpolatingParam id="337" interp="linr"  time="-9999999/1" value="1" leadInLength="0/1"  name="opacity"/>
          </Parameters>
          <Attributes>
           <Attribute id="338" value="" name="ident"/>
          </Attributes>
          <ExtraData>
           <Entry key="ZoomPanBin">
            <ZoomPanBin id="339"  >
             <ZoomPanKeyframes>
              <ZoomPanKeyframe id="340" timeRangeEnd="-9999999/1" timeRangeDuration="0/1" interpolaterName="linr"  />
             </ZoomPanKeyframes>
            </ZoomPanBin>
           </Entry>
          </ExtraData>
         </VMFile>
         <MetaData>
          <entry key="WinSubProjectDisplayName" val=""/>
         </MetaData>
        </UnifiedMedia>
        <UnifiedMedia id="341"  >
         <AMFile id="342" start="1571" duration="70" scalar="35/33" mediaStart="1652/1" mediaDuration="66/1" trackNumber="1" src="21" channelNumber="0,1" >
          <Parameters>
           <InterpolatingParam id="343" interp="linr"  name="volume">
            <Keyframes>
            <Keyframe id="344"  time="-1/1" value="1" leadInLength="0/1"  />
            <Keyframe id="345"  time="0/1" value="0" leadInLength="0/1"  />
            <Keyframe id="346"  time="8952/1" value="0" leadInLength="0/1"  />
            <Keyframe id="347"  time="8953/1" value="1" leadInLength="0/1"  />
            </Keyframes>
           </InterpolatingParam>
           <Parameter id="348"  name="captions"/>
          </Parameters>
          <Attributes>
           <Attribute id="349" value="" name="ident"/>
           <Attribute id="350" value="44100" name="sampleRate"/>
           <Attribute id="351" value="16" name="bitDepth"/>
           <Attribute id="352" value="1" name="gain"/>
           <Attribute id="353" value="0" name="mixToMono"/>
          </Attributes>
         </AMFile>
         <VMFile id="354" start="1571" duration="70" scalar="35/33" mediaStart="1652/1" mediaDuration="66/1" trackNumber="0" src="21" >
          <Transformer>
           <VectorParam id="355"  name="translation">
            <InterpolatingParam id="356" interp="linr"  time="-9999999/1" value="0" leadInLength="0/1"  />
            <InterpolatingParam id="357" interp="linr"  time="-9999999/1" value="0" leadInLength="0/1"  />
            <InterpolatingParam id="358" interp="linr"  time="-9999999/1" value="0" leadInLength="0/1"  />
           </VectorParam>
           <VectorParam id="359"  name="rotation">
            <InterpolatingParam id="360" interp="linr"  time="-9999999/1" value="0" leadInLength="0/1"  />
            <InterpolatingParam id="361" interp="linr"  time="-9999999/1" value="0" leadInLength="0/1"  />
            <InterpolatingParam id="362" interp="linr"  time="-9999999/1" value="0" leadInLength="0/1"  />
           </VectorParam>
           <VectorParam id="363"  name="shear">
            <InterpolatingParam id="364" interp="linr"  time="-9999999/1" value="0" leadInLength="0/1"  />
            <InterpolatingParam id="365" interp="linr"  time="-9999999/1" value="0" leadInLength="0/1"  />
            <InterpolatingParam id="366" interp="linr"  time="-9999999/1" value="0" leadInLength="0/1"  />
           </VectorParam>
           <VectorParam id="367"  name="scale">
            <InterpolatingParam id="368" interp="linr"  time="-9999999/1" value="1" leadInLength="0/1"  />
            <InterpolatingParam id="369" interp="linr"  time="-9999999/1" value="1" leadInLength="0/1"  />
            <InterpolatingParam id="370" interp="linr"  time="-9999999/1" value="1" leadInLength="0/1"  />
           </VectorParam>
           <VectorParam id="371"  name="anchor">
            <InterpolatingParam id="372" interp="linr"  time="0/1" value="0" leadInLength="0/1"  />
            <InterpolatingParam id="373" interp="linr"  time="0/1" value="0" leadInLength="0/1"  />
            <InterpolatingParam id="374" interp="linr"  time="0/1" value="0" leadInLength="0/1"  />
           </VectorParam>
          </Transformer>
          <Parameters>
           <VectorParam id="375"  name="sourceCrop">
            <InterpolatingParam id="376" interp="linr"  time="0/1" value="0" leadInLength="0/1"  />
            <InterpolatingParam id="377" interp="linr"  time="0/1" value="0" leadInLength="0/1"  />
            <InterpolatingParam id="378" interp="linr"  time="0/1" value="0" leadInLength="0/1"  />
            <InterpolatingParam id="379" interp="linr"  time="0/1" value="0" leadInLength="0/1"  />
           </VectorParam>
           <VectorParam id="380"  name="geometryCrop">
            <InterpolatingParam id="381" interp="linr"  time="-9999999/1" value="0" leadInLength="0/1"  />
            <InterpolatingParam id="382" interp="linr"  time="-9999999/1" value="0" leadInLength="0/1"  />
            <InterpolatingParam id="383" interp="linr"  time="-9999999/1" value="0" leadInLength="0/1"  />
            <InterpolatingParam id="384" interp="linr"  time="-9999999/1" value="0" leadInLength="0/1"  />
           </VectorParam>
           <InterpolatingParam id="385" interp="linr"  time="-9999999/1" value="1" leadInLength="0/1"  name="opacity"/>
          </Parameters>
          <Attributes>
           <Attribute id="386" value="" name="ident"/>
          </Attributes>
          <ExtraData>
           <Entry key="ZoomPanBin">
            <ZoomPanBin id="387"  >
             <ZoomPanKeyframes>
              <ZoomPanKeyframe id="388" timeRangeEnd="-9999999/1" timeRangeDuration="0/1" interpolaterName="linr"  />
             </ZoomPanKeyframes>
            </ZoomPanBin>
           </Entry>
          </ExtraData>
         </VMFile>
         <MetaData>
          <entry key="WinSubProjectDisplayName" val=""/>
         </MetaData>
        </UnifiedMedia>
        <UnifiedMedia id="389"  >
         <AMFile id="390" start="1641" duration="44" scalar="1/1" mediaStart="1780/1" mediaDuration="44/1" trackNumber="1" src="21" channelNumber="0,1" >
          <Parameters>
           <InterpolatingParam id="391" interp="linr"  name="volume">
            <Keyframes>
            <Keyframe id="392"  time="-1/1" value="1" leadInLength="0/1"  />
            <Keyframe id="393"  time="0/1" value="0" leadInLength="0/1"  />
            <Keyframe id="394"  time="8952/1" value="0" leadInLength="0/1"  />
            <Keyframe id="395"  time="8953/1" value="1" leadInLength="0/1"  />
            </Keyframes>
           </InterpolatingParam>
           <Parameter id="396"  name="captions"/>
          </Parameters>
          <Attributes>
           <Attribute id="397" value="" name="ident"/>
           <Attribute id="398" value="44100" name="sampleRate"/>
           <Attribute id="399" value="16" name="bitDepth"/>
           <Attribute id="400" value="1" name="gain"/>
           <Attribute id="401" value="0" name="mixToMono"/>
          </Attributes>
         </AMFile>
         <VMFile id="402" start="1641" duration="44" scalar="1/1" mediaStart="1780/1" mediaDuration="44/1" trackNumber="0" src="21" >
          <Transformer>
           <VectorParam id="403"  name="translation">
            <InterpolatingParam id="404" interp="linr"  time="-9999999/1" value="0" leadInLength="0/1"  />
            <InterpolatingParam id="405" interp="linr"  time="-9999999/1" value="0" leadInLength="0/1"  />
            <InterpolatingParam id="406" interp="linr"  time="-9999999/1" value="0" leadInLength="0/1"  />
           </VectorParam>
           <VectorParam id="407"  name="rotation">
            <InterpolatingParam id="408" interp="linr"  time="-9999999/1" value="0" leadInLength="0/1"  />
            <InterpolatingParam id="409" interp="linr"  time="-9999999/1" value="0" leadInLength="0/1"  />
            <InterpolatingParam id="410" interp="linr"  time="-9999999/1" value="0" leadInLength="0/1"  />
           </VectorParam>
           <VectorParam id="411"  name="shear">
            <InterpolatingParam id="412" interp="linr"  time="-9999999/1" value="0" leadInLength="0/1"  />
            <InterpolatingParam id="413" interp="linr"  time="-9999999/1" value="0" leadInLength="0/1"  />
            <InterpolatingParam id="414" interp="linr"  time="-9999999/1" value="0" leadInLength="0/1"  />
           </VectorParam>
           <VectorParam id="415"  name="scale">
            <InterpolatingParam id="416" interp="linr"  time="-9999999/1" value="1" leadInLength="0/1"  />
            <InterpolatingParam id="417" interp="linr"  time="-9999999/1" value="1" leadInLength="0/1"  />
            <InterpolatingParam id="418" interp="linr"  time="-9999999/1" value="1" leadInLength="0/1"  />
           </VectorParam>
           <VectorParam id="419"  name="anchor">
            <InterpolatingParam id="420" interp="linr"  time="0/1" value="0" leadInLength="0/1"  />
            <InterpolatingParam id="421" interp="linr"  time="0/1" value="0" leadInLength="0/1"  />
            <InterpolatingParam id="422" interp="linr"  time="0/1" value="0" leadInLength="0/1"  />
           </VectorParam>
          </Transformer>
          <Parameters>
           <VectorParam id="423"  name="sourceCrop">
            <InterpolatingParam id="424" interp="linr"  time="0/1" value="0" leadInLength="0/1"  />
            <InterpolatingParam id="425" interp="linr"  time="0/1" value="0" leadInLength="0/1"  />
            <InterpolatingParam id="426" interp="linr"  time="0/1" value="0" leadInLength="0/1"  />
            <InterpolatingParam id="427" interp="linr"  time="0/1" value="0" leadInLength="0/1"  />
           </VectorParam>
           <VectorParam id="428"  name="geometryCrop">
            <InterpolatingParam id="429" interp="linr"  time="-9999999/1" value="0" leadInLength="0/1"  />
            <InterpolatingParam id="430" interp="linr"  time="-9999999/1" value="0" leadInLength="0/1"  />
            <InterpolatingParam id="431" interp="linr"  time="-9999999/1" value="0" leadInLength="0/1"  />
            <InterpolatingParam id="432" interp="linr"  time="-9999999/1" value="0" leadInLength="0/1"  />
           </VectorParam>
           <InterpolatingParam id="433" interp="linr"  time="-9999999/1" value="1" leadInLength="0/1"  name="opacity"/>
          </Parameters>
          <Attributes>
           <Attribute id="434" value="" name="ident"/>
          </Attributes>
          <ExtraData>
           <Entry key="ZoomPanBin">
            <ZoomPanBin id="435"  >
             <ZoomPanKeyframes>
              <ZoomPanKeyframe id="436" timeRangeEnd="-9999999/1" timeRangeDuration="0/1" interpolaterName="linr"  />
             </ZoomPanKeyframes>
            </ZoomPanBin>
           </Entry>
          </ExtraData>
         </VMFile>
         <MetaData>
          <entry key="WinSubProjectDisplayName" val=""/>
         </MetaData>
        </UnifiedMedia>
        <UnifiedMedia id="437"  >
         <AMFile id="438" start="1685" duration="67" scalar="67/118" mediaStart="1824/1" mediaDuration="118/1" trackNumber="1" src="21" channelNumber="0,1" >
          <Parameters>
           <InterpolatingParam id="439" interp="linr"  name="volume">
            <Keyframes>
            <Keyframe id="440"  time="-1/1" value="1" leadInLength="0/1"  />
            <Keyframe id="441"  time="0/1" value="0" leadInLength="0/1"  />
            <Keyframe id="442"  time="8952/1" value="0" leadInLength="0/1"  />
            <Keyframe id="443"  time="8953/1" value="1" leadInLength="0/1"  />
            </Keyframes>
           </InterpolatingParam>
           <Parameter id="444"  name="captions"/>
          </Parameters>
          <Attributes>
           <Attribute id="445" value="" name="ident"/>
           <Attribute id="446" value="44100" name="sampleRate"/>
           <Attribute id="447" value="16" name="bitDepth"/>
           <Attribute id="448" value="1" name="gain"/>
           <Attribute id="449" value="0" name="mixToMono"/>
          </Attributes>
         </AMFile>
         <VMFile id="450" start="1685" duration="67" scalar="67/118" mediaStart="1824/1" mediaDuration="118/1" trackNumber="0" src="21" >
          <Transformer>
           <VectorParam id="451"  name="translation">
            <InterpolatingParam id="452" interp="linr"  time="-9999999/1" value="0" leadInLength="0/1"  />
            <InterpolatingParam id="453" interp="linr"  time="-9999999/1" value="0" leadInLength="0/1"  />
            <InterpolatingParam id="454" interp="linr"  time="-9999999/1" value="0" leadInLength="0/1"  />
           </VectorParam>
           <VectorParam id="455"  name="rotation">
            <InterpolatingParam id="456" interp="linr"  time="-9999999/1" value="0" leadInLength="0/1"  />
            <InterpolatingParam id="457" interp="linr"  time="-9999999/1" value="0" leadInLength="0/1"  />
            <InterpolatingParam id="458" interp="linr"  time="-9999999/1" value="0" leadInLength="0/1"  />
           </VectorParam>
           <VectorParam id="459"  name="shear">
            <InterpolatingParam id="460" interp="linr"  time="-9999999/1" value="0" leadInLength="0/1"  />
            <InterpolatingParam id="461" interp="linr"  time="-9999999/1" value="0" leadInLength="0/1"  />
            <InterpolatingParam id="462" interp="linr"  time="-9999999/1" value="0" leadInLength="0/1"  />
           </VectorParam>
           <VectorParam id="463"  name="scale">
            <InterpolatingParam id="464" interp="linr"  time="-9999999/1" value="1" leadInLength="0/1"  />
            <InterpolatingParam id="465" interp="linr"  time="-9999999/1" value="1" leadInLength="0/1"  />
            <InterpolatingParam id="466" interp="linr"  time="-9999999/1" value="1" leadInLength="0/1"  />
           </VectorParam>
           <VectorParam id="467"  name="anchor">
            <InterpolatingParam id="468" interp="linr"  time="0/1" value="0" leadInLength="0/1"  />
            <InterpolatingParam id="469" interp="linr"  time="0/1" value="0" leadInLength="0/1"  />
            <InterpolatingParam id="470" interp="linr"  time="0/1" value="0" leadInLength="0/1"  />
           </VectorParam>
          </Transformer>
          <Parameters>
           <VectorParam id="471"  name="sourceCrop">
            <InterpolatingParam id="472" interp="linr"  time="0/1" value="0" leadInLength="0/1"  />
            <InterpolatingParam id="473" interp="linr"  time="0/1" value="0" leadInLength="0/1"  />
            <InterpolatingParam id="474" interp="linr"  time="0/1" value="0" leadInLength="0/1"  />
            <InterpolatingParam id="475" interp="linr"  time="0/1" value="0" leadInLength="0/1"  />
           </VectorParam>
           <VectorParam id="476"  name="geometryCrop">
            <InterpolatingParam id="477" interp="linr"  time="-9999999/1" value="0" leadInLength="0/1"  />
            <InterpolatingParam id="478" interp="linr"  time="-9999999/1" value="0" leadInLength="0/1"  />
            <InterpolatingParam id="479" interp="linr"  time="-9999999/1" value="0" leadInLength="0/1"  />
            <InterpolatingParam id="480" interp="linr"  time="-9999999/1" value="0" leadInLength="0/1"  />
           </VectorParam>
           <InterpolatingParam id="481" interp="linr"  time="-9999999/1" value="1" leadInLength="0/1"  name="opacity"/>
          </Parameters>
          <Attributes>
           <Attribute id="482" value="" name="ident"/>
          </Attributes>
          <ExtraData>
           <Entry key="ZoomPanBin">
            <ZoomPanBin id="483"  >
             <ZoomPanKeyframes>
              <ZoomPanKeyframe id="484" timeRangeEnd="-9999999/1" timeRangeDuration="0/1" interpolaterName="linr"  />
             </ZoomPanKeyframes>
            </ZoomPanBin>
           </Entry>
          </ExtraData>
         </VMFile>
         <MetaData>
          <entry key="WinSubProjectDisplayName" val=""/>
         </MetaData>
        </UnifiedMedia>
        <UnifiedMedia id="485"  >
         <AMFile id="486" start="1752" duration="119" scalar="7/4" mediaStart="1994/1" mediaDuration="68/1" trackNumber="1" src="21" channelNumber="0,1" >
          <Parameters>
           <InterpolatingParam id="487" interp="linr"  name="volume">
            <Keyframes>
            <Keyframe id="488"  time="-1/1" value="1" leadInLength="0/1"  />
            <Keyframe id="489"  time="0/1" value="0" leadInLength="0/1"  />
            <Keyframe id="490"  time="8952/1" value="0" leadInLength="0/1"  />
            <Keyframe id="491"  time="8953/1" value="1" leadInLength="0/1"  />
            </Keyframes>
           </InterpolatingParam>
           <Parameter id="492"  name="captions"/>
          </Parameters>
          <Attributes>
           <Attribute id="493" value="" name="ident"/>
           <Attribute id="494" value="44100" name="sampleRate"/>
           <Attribute id="495" value="16" name="bitDepth"/>
           <Attribute id="496" value="1" name="gain"/>
           <Attribute id="497" value="0" name="mixToMono"/>
          </Attributes>
         </AMFile>
         <VMFile id="498" start="1752" duration="119" scalar="7/4" mediaStart="1994/1" mediaDuration="68/1" trackNumber="0" src="21" >
          <Transformer>
           <VectorParam id="499"  name="translation">
            <InterpolatingParam id="500" interp="linr"  time="-9999999/1" value="0" leadInLength="0/1"  />
            <InterpolatingParam id="501" interp="linr"  time="-9999999/1" value="0" leadInLength="0/1"  />
            <InterpolatingParam id="502" interp="linr"  time="-9999999/1" value="0" leadInLength="0/1"  />
           </VectorParam>
           <VectorParam id="503"  name="rotation">
            <InterpolatingParam id="504" interp="linr"  time="-9999999/1" value="0" leadInLength="0/1"  />
            <InterpolatingParam id="505" interp="linr"  time="-9999999/1" value="0" leadInLength="0/1"  />
            <InterpolatingParam id="506" interp="linr"  time="-9999999/1" value="0" leadInLength="0/1"  />
           </VectorParam>
           <VectorParam id="507"  name="shear">
            <InterpolatingParam id="508" interp="linr"  time="-9999999/1" value="0" leadInLength="0/1"  />
            <InterpolatingParam id="509" interp="linr"  time="-9999999/1" value="0" leadInLength="0/1"  />
            <InterpolatingParam id="510" interp="linr"  time="-9999999/1" value="0" leadInLength="0/1"  />
           </VectorParam>
           <VectorParam id="511"  name="scale">
            <InterpolatingParam id="512" interp="linr"  time="-9999999/1" value="1" leadInLength="0/1"  />
            <InterpolatingParam id="513" interp="linr"  time="-9999999/1" value="1" leadInLength="0/1"  />
            <InterpolatingParam id="514" interp="linr"  time="-9999999/1" value="1" leadInLength="0/1"  />
           </VectorParam>
           <VectorParam id="515"  name="anchor">
            <InterpolatingParam id="516" interp="linr"  time="0/1" value="0" leadInLength="0/1"  />
            <InterpolatingParam id="517" interp="linr"  time="0/1" value="0" leadInLength="0/1"  />
            <InterpolatingParam id="518" interp="linr"  time="0/1" value="0" leadInLength="0/1"  />
           </VectorParam>
          </Transformer>
          <Parameters>
           <VectorParam id="519"  name="sourceCrop">
            <InterpolatingParam id="520" interp="linr"  time="0/1" value="0" leadInLength="0/1"  />
            <InterpolatingParam id="521" interp="linr"  time="0/1" value="0" leadInLength="0/1"  />
            <InterpolatingParam id="522" interp="linr"  time="0/1" value="0" leadInLength="0/1"  />
            <InterpolatingParam id="523" interp="linr"  time="0/1" value="0" leadInLength="0/1"  />
           </VectorParam>
           <VectorParam id="524"  name="geometryCrop">
            <InterpolatingParam id="525" interp="linr"  time="-9999999/1" value="0" leadInLength="0/1"  />
            <InterpolatingParam id="526" interp="linr"  time="-9999999/1" value="0" leadInLength="0/1"  />
            <InterpolatingParam id="527" interp="linr"  time="-9999999/1" value="0" leadInLength="0/1"  />
            <InterpolatingParam id="528" interp="linr"  time="-9999999/1" value="0" leadInLength="0/1"  />
           </VectorParam>
           <InterpolatingParam id="529" interp="linr"  time="-9999999/1" value="1" leadInLength="0/1"  name="opacity"/>
          </Parameters>
          <Attributes>
           <Attribute id="530" value="" name="ident"/>
          </Attributes>
          <ExtraData>
           <Entry key="ZoomPanBin">
            <ZoomPanBin id="531"  >
             <ZoomPanKeyframes>
              <ZoomPanKeyframe id="532" timeRangeEnd="-9999999/1" timeRangeDuration="0/1" interpolaterName="linr"  />
             </ZoomPanKeyframes>
            </ZoomPanBin>
           </Entry>
          </ExtraData>
         </VMFile>
         <MetaData>
          <entry key="WinSubProjectDisplayName" val=""/>
         </MetaData>
        </UnifiedMedia>
        <UnifiedMedia id="533"  >
         <AMFile id="534" start="1871" duration="790" scalar="1/1" mediaStart="2062/1" mediaDuration="790/1" trackNumber="1" src="21" channelNumber="0,1" >
          <Parameters>
           <InterpolatingParam id="535" interp="linr"  name="volume">
            <Keyframes>
            <Keyframe id="536"  time="-1/1" value="1" leadInLength="0/1"  />
            <Keyframe id="537"  time="0/1" value="0" leadInLength="0/1"  />
            <Keyframe id="538"  time="8952/1" value="0" leadInLength="0/1"  />
            <Keyframe id="539"  time="8953/1" value="1" leadInLength="0/1"  />
            </Keyframes>
           </InterpolatingParam>
           <Parameter id="540"  name="captions"/>
          </Parameters>
          <Attributes>
           <Attribute id="541" value="" name="ident"/>
           <Attribute id="542" value="44100" name="sampleRate"/>
           <Attribute id="543" value="16" name="bitDepth"/>
           <Attribute id="544" value="1" name="gain"/>
           <Attribute id="545" value="0" name="mixToMono"/>
          </Attributes>
         </AMFile>
         <VMFile id="546" start="1871" duration="790" scalar="1/1" mediaStart="2062/1" mediaDuration="790/1" trackNumber="0" src="21" >
          <Transformer>
           <VectorParam id="547"  name="translation">
            <InterpolatingParam id="548" interp="linr"  time="-9999999/1" value="-2.4073187887552194e-010" leadInLength="0/1"  />
            <InterpolatingParam id="549" interp="linr"  time="-9999999/1" value="-2.6606272740536951e-011" leadInLength="0/1"  />
            <InterpolatingParam id="550" interp="linr"  time="-9999999/1" value="0" leadInLength="0/1"  />
           </VectorParam>
           <VectorParam id="551"  name="rotation">
            <InterpolatingParam id="552" interp="linr"  time="-9999999/1" value="0" leadInLength="0/1"  />
            <InterpolatingParam id="553" interp="linr"  time="-9999999/1" value="0" leadInLength="0/1"  />
            <InterpolatingParam id="554" interp="linr"  time="-9999999/1" value="0" leadInLength="0/1"  />
           </VectorParam>
           <VectorParam id="555"  name="shear">
            <InterpolatingParam id="556" interp="linr"  time="-9999999/1" value="0" leadInLength="0/1"  />
            <InterpolatingParam id="557" interp="linr"  time="-9999999/1" value="0" leadInLength="0/1"  />
            <InterpolatingParam id="558" interp="linr"  time="-9999999/1" value="0" leadInLength="0/1"  />
           </VectorParam>
           <VectorParam id="559"  name="scale">
            <InterpolatingParam id="560" interp="linr"  time="-9999999/1" value="1.0000000000000591" leadInLength="0/1"  />
            <InterpolatingParam id="561" interp="linr"  time="-9999999/1" value="1.0000000000000591" leadInLength="0/1"  />
            <InterpolatingParam id="562" interp="linr"  time="-9999999/1" value="1" leadInLength="0/1"  />
           </VectorParam>
           <VectorParam id="563"  name="anchor">
            <InterpolatingParam id="564" interp="linr"  time="0/1" value="0" leadInLength="0/1"  />
            <InterpolatingParam id="565" interp="linr"  time="0/1" value="0" leadInLength="0/1"  />
            <InterpolatingParam id="566" interp="linr"  time="0/1" value="0" leadInLength="0/1"  />
           </VectorParam>
          </Transformer>
          <Parameters>
           <VectorParam id="567"  name="sourceCrop">
            <InterpolatingParam id="568" interp="linr"  time="0/1" value="0" leadInLength="0/1"  />
            <InterpolatingParam id="569" interp="linr"  time="0/1" value="0" leadInLength="0/1"  />
            <InterpolatingParam id="570" interp="linr"  time="0/1" value="0" leadInLength="0/1"  />
            <InterpolatingParam id="571" interp="linr"  time="0/1" value="0" leadInLength="0/1"  />
           </VectorParam>
           <VectorParam id="572"  name="geometryCrop">
            <InterpolatingParam id="573" interp="linr"  time="-9999999/1" value="0" leadInLength="0/1"  />
            <InterpolatingParam id="574" interp="linr"  time="-9999999/1" value="0" leadInLength="0/1"  />
            <InterpolatingParam id="575" interp="linr"  time="-9999999/1" value="0" leadInLength="0/1"  />
            <InterpolatingParam id="576" interp="linr"  time="-9999999/1" value="0" leadInLength="0/1"  />
           </VectorParam>
           <InterpolatingParam id="577" interp="linr"  time="-9999999/1" value="1" leadInLength="0/1"  name="opacity"/>
          </Parameters>
          <Attributes>
           <Attribute id="578" value="" name="ident"/>
          </Attributes>
          <ExtraData>
           <Entry key="ZoomPanBin">
            <ZoomPanBin id="579"  >
             <ZoomPanKeyframes>
              <ZoomPanKeyframe id="580" timeRangeEnd="-9999999/1" timeRangeDuration="0/1" interpolaterName="linr"  />
             </ZoomPanKeyframes>
            </ZoomPanBin>
           </Entry>
          </ExtraData>
         </VMFile>
         <MetaData>
          <entry key="WinSubProjectDisplayName" val=""/>
         </MetaData>
        </UnifiedMedia>
        <UnifiedMedia id="581"  >
         <AMFile id="582" start="2661" duration="178" scalar="594075/331328" mediaStart="19562594/6675" mediaDuration="662656/6675" trackNumber="1" src="21" channelNumber="0,1" >
          <Parameters>
           <InterpolatingParam id="583" interp="linr"  name="volume">
            <Keyframes>
            <Keyframe id="584"  time="-1/1" value="1" leadInLength="0/1"  />
            <Keyframe id="585"  time="0/1" value="0" leadInLength="0/1"  />
            <Keyframe id="586"  time="8952/1" value="0" leadInLength="0/1"  />
            <Keyframe id="587"  time="8953/1" value="1" leadInLength="0/1"  />
            </Keyframes>
           </InterpolatingParam>
           <Parameter id="588"  name="captions"/>
          </Parameters>
          <Attributes>
           <Attribute id="589" value="" name="ident"/>
           <Attribute id="590" value="44100" name="sampleRate"/>
           <Attribute id="591" value="16" name="bitDepth"/>
           <Attribute id="592" value="1" name="gain"/>
           <Attribute id="593" value="0" name="mixToMono"/>
          </Attributes>
         </AMFile>
         <VMFile id="594" start="2661" duration="178" scalar="594075/331328" mediaStart="19562594/6675" mediaDuration="662656/6675" trackNumber="0" src="21" >
          <Transformer>
           <VectorParam id="595"  name="translation">
            <InterpolatingParam id="596" interp="linr"  time="-9999999/1" value="-2.4073187887552194e-010" leadInLength="0/1"  />
            <InterpolatingParam id="597" interp="linr"  time="-9999999/1" value="-2.6606272740536951e-011" leadInLength="0/1"  />
            <InterpolatingParam id="598" interp="linr"  time="-9999999/1" value="0" leadInLength="0/1"  />
           </VectorParam>
           <VectorParam id="599"  name="rotation">
            <InterpolatingParam id="600" interp="linr"  time="-9999999/1" value="0" leadInLength="0/1"  />
            <InterpolatingParam id="601" interp="linr"  time="-9999999/1" value="0" leadInLength="0/1"  />
            <InterpolatingParam id="602" interp="linr"  time="-9999999/1" value="0" leadInLength="0/1"  />
           </VectorParam>
           <VectorParam id="603"  name="shear">
            <InterpolatingParam id="604" interp="linr"  time="-9999999/1" value="0" leadInLength="0/1"  />
            <InterpolatingParam id="605" interp="linr"  time="-9999999/1" value="0" leadInLength="0/1"  />
            <InterpolatingParam id="606" interp="linr"  time="-9999999/1" value="0" leadInLength="0/1"  />
           </VectorParam>
           <VectorParam id="607"  name="scale">
            <InterpolatingParam id="608" interp="linr"  time="-9999999/1" value="1.0000000000000591" leadInLength="0/1"  />
            <InterpolatingParam id="609" interp="linr"  time="-9999999/1" value="1.0000000000000591" leadInLength="0/1"  />
            <InterpolatingParam id="610" interp="linr"  time="-9999999/1" value="1" leadInLength="0/1"  />
           </VectorParam>
           <VectorParam id="611"  name="anchor">
            <InterpolatingParam id="612" interp="linr"  time="0/1" value="0" leadInLength="0/1"  />
            <InterpolatingParam id="613" interp="linr"  time="0/1" value="0" leadInLength="0/1"  />
            <InterpolatingParam id="614" interp="linr"  time="0/1" value="0" leadInLength="0/1"  />
           </VectorParam>
          </Transformer>
          <Parameters>
           <VectorParam id="615"  name="sourceCrop">
            <InterpolatingParam id="616" interp="linr"  time="0/1" value="0" leadInLength="0/1"  />
            <InterpolatingParam id="617" interp="linr"  time="0/1" value="0" leadInLength="0/1"  />
            <InterpolatingParam id="618" interp="linr"  time="0/1" value="0" leadInLength="0/1"  />
            <InterpolatingParam id="619" interp="linr"  time="0/1" value="0" leadInLength="0/1"  />
           </VectorParam>
           <VectorParam id="620"  name="geometryCrop">
            <InterpolatingParam id="621" interp="linr"  time="-9999999/1" value="0" leadInLength="0/1"  />
            <InterpolatingParam id="622" interp="linr"  time="-9999999/1" value="0" leadInLength="0/1"  />
            <InterpolatingParam id="623" interp="linr"  time="-9999999/1" value="0" leadInLength="0/1"  />
            <InterpolatingParam id="624" interp="linr"  time="-9999999/1" value="0" leadInLength="0/1"  />
           </VectorParam>
           <InterpolatingParam id="625" interp="linr"  time="-9999999/1" value="1" leadInLength="0/1"  name="opacity"/>
          </Parameters>
          <Attributes>
           <Attribute id="626" value="" name="ident"/>
          </Attributes>
          <ExtraData>
           <Entry key="ZoomPanBin">
            <ZoomPanBin id="627"  >
             <ZoomPanKeyframes>
              <ZoomPanKeyframe id="628" timeRangeEnd="-9999999/1" timeRangeDuration="0/1" interpolaterName="linr"  />
             </ZoomPanKeyframes>
            </ZoomPanBin>
           </Entry>
          </ExtraData>
         </VMFile>
         <MetaData>
          <entry key="WinSubProjectDisplayName" val=""/>
         </MetaData>
        </UnifiedMedia>
        <UnifiedMedia id="629"  >
         <AMFile id="630" start="2839" duration="45" scalar="120/139" mediaStart="3030/1" mediaDuration="417/8" trackNumber="1" src="21" channelNumber="0,1" >
          <Parameters>
           <InterpolatingParam id="631" interp="linr"  name="volume">
            <Keyframes>
            <Keyframe id="632"  time="-1/1" value="1" leadInLength="0/1"  />
            <Keyframe id="633"  time="0/1" value="0" leadInLength="0/1"  />
            <Keyframe id="634"  time="8952/1" value="0" leadInLength="0/1"  />
            <Keyframe id="635"  time="8953/1" value="1" leadInLength="0/1"  />
            </Keyframes>
           </InterpolatingParam>
           <Parameter id="636"  name="captions"/>
          </Parameters>
          <Attributes>
           <Attribute id="637" value="" name="ident"/>
           <Attribute id="638" value="44100" name="sampleRate"/>
           <Attribute id="639" value="16" name="bitDepth"/>
           <Attribute id="640" value="1" name="gain"/>
           <Attribute id="641" value="0" name="mixToMono"/>
          </Attributes>
         </AMFile>
         <VMFile id="642" start="2839" duration="45" scalar="120/139" mediaStart="3030/1" mediaDuration="417/8" trackNumber="0" src="21" >
          <Transformer>
           <VectorParam id="643"  name="translation">
            <InterpolatingParam id="644" interp="linr"  time="-9999999/1" value="0" leadInLength="0/1"  />
            <InterpolatingParam id="645" interp="linr"  time="-9999999/1" value="0" leadInLength="0/1"  />
            <InterpolatingParam id="646" interp="linr"  time="-9999999/1" value="0" leadInLength="0/1"  />
           </VectorParam>
           <VectorParam id="647"  name="rotation">
            <InterpolatingParam id="648" interp="linr"  time="-9999999/1" value="0" leadInLength="0/1"  />
            <InterpolatingParam id="649" interp="linr"  time="-9999999/1" value="0" leadInLength="0/1"  />
            <InterpolatingParam id="650" interp="linr"  time="-9999999/1" value="0" leadInLength="0/1"  />
           </VectorParam>
           <VectorParam id="651"  name="shear">
            <InterpolatingParam id="652" interp="linr"  time="-9999999/1" value="0" leadInLength="0/1"  />
            <InterpolatingParam id="653" interp="linr"  time="-9999999/1" value="0" leadInLength="0/1"  />
            <InterpolatingParam id="654" interp="linr"  time="-9999999/1" value="0" leadInLength="0/1"  />
           </VectorParam>
           <VectorParam id="655"  name="scale">
            <InterpolatingParam id="656" interp="linr"  time="-9999999/1" value="1" leadInLength="0/1"  />
            <InterpolatingParam id="657" interp="linr"  time="-9999999/1" value="1" leadInLength="0/1"  />
            <InterpolatingParam id="658" interp="linr"  time="-9999999/1" value="1" leadInLength="0/1"  />
           </VectorParam>
           <VectorParam id="659"  name="anchor">
            <InterpolatingParam id="660" interp="linr"  time="0/1" value="0" leadInLength="0/1"  />
            <InterpolatingParam id="661" interp="linr"  time="0/1" value="0" leadInLength="0/1"  />
            <InterpolatingParam id="662" interp="linr"  time="0/1" value="0" leadInLength="0/1"  />
           </VectorParam>
          </Transformer>
          <Parameters>
           <VectorParam id="663"  name="sourceCrop">
            <InterpolatingParam id="664" interp="linr"  time="0/1" value="0" leadInLength="0/1"  />
            <InterpolatingParam id="665" interp="linr"  time="0/1" value="0" leadInLength="0/1"  />
            <InterpolatingParam id="666" interp="linr"  time="0/1" value="0" leadInLength="0/1"  />
            <InterpolatingParam id="667" interp="linr"  time="0/1" value="0" leadInLength="0/1"  />
           </VectorParam>
           <VectorParam id="668"  name="geometryCrop">
            <InterpolatingParam id="669" interp="linr"  time="-9999999/1" value="0" leadInLength="0/1"  />
            <InterpolatingParam id="670" interp="linr"  time="-9999999/1" value="0" leadInLength="0/1"  />
            <InterpolatingParam id="671" interp="linr"  time="-9999999/1" value="0" leadInLength="0/1"  />
            <InterpolatingParam id="672" interp="linr"  time="-9999999/1" value="0" leadInLength="0/1"  />
           </VectorParam>
           <InterpolatingParam id="673" interp="linr"  time="-9999999/1" value="1" leadInLength="0/1"  name="opacity"/>
          </Parameters>
          <Attributes>
           <Attribute id="674" value="" name="ident"/>
          </Attributes>
          <ExtraData>
           <Entry key="ZoomPanBin">
            <ZoomPanBin id="675"  >
             <ZoomPanKeyframes>
              <ZoomPanKeyframe id="676" timeRangeEnd="-9999999/1" timeRangeDuration="0/1" interpolaterName="linr"  />
             </ZoomPanKeyframes>
            </ZoomPanBin>
           </Entry>
          </ExtraData>
         </VMFile>
         <MetaData>
          <entry key="WinSubProjectDisplayName" val=""/>
         </MetaData>
        </UnifiedMedia>
        <UnifiedMedia id="677"  >
         <AMFile id="678" start="2884" duration="75" scalar="120/139" mediaStart="24657/8" mediaDuration="695/8" trackNumber="1" src="21" channelNumber="0,1" >
          <Parameters>
           <InterpolatingParam id="679" interp="linr"  name="volume">
            <Keyframes>
            <Keyframe id="680"  time="-1/1" value="1" leadInLength="0/1"  />
            <Keyframe id="681"  time="0/1" value="0" leadInLength="0/1"  />
            <Keyframe id="682"  time="8952/1" value="0" leadInLength="0/1"  />
            <Keyframe id="683"  time="8953/1" value="1" leadInLength="0/1"  />
            </Keyframes>
           </InterpolatingParam>
           <Parameter id="684"  name="captions"/>
          </Parameters>
          <Attributes>
           <Attribute id="685" value="" name="ident"/>
           <Attribute id="686" value="44100" name="sampleRate"/>
           <Attribute id="687" value="16" name="bitDepth"/>
           <Attribute id="688" value="1" name="gain"/>
           <Attribute id="689" value="0" name="mixToMono"/>
          </Attributes>
         </AMFile>
         <VMFile id="690" start="2884" duration="75" scalar="120/139" mediaStart="24657/8" mediaDuration="695/8" trackNumber="0" src="21" >
          <Transformer>
           <VectorParam id="691"  name="translation">
            <InterpolatingParam id="692" interp="linr"  time="-9999999/1" value="0" leadInLength="0/1"  />
            <InterpolatingParam id="693" interp="linr"  time="-9999999/1" value="0" leadInLength="0/1"  />
            <InterpolatingParam id="694" interp="linr"  time="-9999999/1" value="0" leadInLength="0/1"  />
           </VectorParam>
           <VectorParam id="695"  name="rotation">
            <InterpolatingParam id="696" interp="linr"  time="-9999999/1" value="0" leadInLength="0/1"  />
            <InterpolatingParam id="697" interp="linr"  time="-9999999/1" value="0" leadInLength="0/1"  />
            <InterpolatingParam id="698" interp="linr"  time="-9999999/1" value="0" leadInLength="0/1"  />
           </VectorParam>
           <VectorParam id="699"  name="shear">
            <InterpolatingParam id="700" interp="linr"  time="-9999999/1" value="0" leadInLength="0/1"  />
            <InterpolatingParam id="701" interp="linr"  time="-9999999/1" value="0" leadInLength="0/1"  />
            <InterpolatingParam id="702" interp="linr"  time="-9999999/1" value="0" leadInLength="0/1"  />
           </VectorParam>
           <VectorParam id="703"  name="scale">
            <InterpolatingParam id="704" interp="linr"  time="-9999999/1" value="1" leadInLength="0/1"  />
            <InterpolatingParam id="705" interp="linr"  time="-9999999/1" value="1" leadInLength="0/1"  />
            <InterpolatingParam id="706" interp="linr"  time="-9999999/1" value="1" leadInLength="0/1"  />
           </VectorParam>
           <VectorParam id="707"  name="anchor">
            <InterpolatingParam id="708" interp="linr"  time="0/1" value="0" leadInLength="0/1"  />
            <InterpolatingParam id="709" interp="linr"  time="0/1" value="0" leadInLength="0/1"  />
            <InterpolatingParam id="710" interp="linr"  time="0/1" value="0" leadInLength="0/1"  />
           </VectorParam>
          </Transformer>
          <Parameters>
           <VectorParam id="711"  name="sourceCrop">
            <InterpolatingParam id="712" interp="linr"  time="0/1" value="0" leadInLength="0/1"  />
            <InterpolatingParam id="713" interp="linr"  time="0/1" value="0" leadInLength="0/1"  />
            <InterpolatingParam id="714" interp="linr"  time="0/1" value="0" leadInLength="0/1"  />
            <InterpolatingParam id="715" interp="linr"  time="0/1" value="0" leadInLength="0/1"  />
           </VectorParam>
           <VectorParam id="716"  name="geometryCrop">
            <InterpolatingParam id="717" interp="linr"  time="-9999999/1" value="0" leadInLength="0/1"  />
            <InterpolatingParam id="718" interp="linr"  time="-9999999/1" value="0" leadInLength="0/1"  />
            <InterpolatingParam id="719" interp="linr"  time="-9999999/1" value="0" leadInLength="0/1"  />
            <InterpolatingParam id="720" interp="linr"  time="-9999999/1" value="0" leadInLength="0/1"  />
           </VectorParam>
           <InterpolatingParam id="721" interp="linr"  time="-9999999/1" value="1" leadInLength="0/1"  name="opacity"/>
          </Parameters>
          <Attributes>
           <Attribute id="722" value="" name="ident"/>
          </Attributes>
          <ExtraData>
           <Entry key="ZoomPanBin">
            <ZoomPanBin id="723"  >
             <ZoomPanKeyframes>
              <ZoomPanKeyframe id="724" timeRangeEnd="-9999999/1" timeRangeDuration="0/1" interpolaterName="linr"  />
             </ZoomPanKeyframes>
            </ZoomPanBin>
           </Entry>
          </ExtraData>
         </VMFile>
         <MetaData>
          <entry key="WinSubProjectDisplayName" val=""/>
         </MetaData>
        </UnifiedMedia>
        <UnifiedMedia id="725"  >
         <AMFile id="726" start="2959" duration="241" scalar="241/222" mediaStart="3169/1" mediaDuration="222/1" trackNumber="1" src="21" channelNumber="0,1" >
          <Parameters>
           <InterpolatingParam id="727" interp="linr"  name="volume">
            <Keyframes>
            <Keyframe id="728"  time="-1/1" value="1" leadInLength="0/1"  />
            <Keyframe id="729"  time="0/1" value="0" leadInLength="0/1"  />
            <Keyframe id="730"  time="8952/1" value="0" leadInLength="0/1"  />
            <Keyframe id="731"  time="8953/1" value="1" leadInLength="0/1"  />
            </Keyframes>
           </InterpolatingParam>
           <Parameter id="732"  name="captions"/>
          </Parameters>
          <Effects>
           <GenericEffect id="733" name = "WinCompression" >
            <Parameters>
            <InterpolatingParam id="734" interp="linr"  time="0/1" value="0" leadInLength="0/1"   name="attack"/>
            <InterpolatingParam id="735" interp="linr"  time="0/1" value="9" leadInLength="0/1"   name="gain"/>
            <Parameter id="736"   name="preset">
             <Keyframes>
             <Keyframe id="737"  time="0/1" value="1" leadInLength="0/1"  />
             </Keyframes>
            </Parameter>
            <InterpolatingParam id="738" interp="linr"  time="0/1" value="10" leadInLength="0/1"   name="ratio"/>
            <InterpolatingParam id="739" interp="linr"  time="0/1" value="3500" leadInLength="0/1"   name="release"/>
            <InterpolatingParam id="740" interp="linr"  time="0/1" value="-20" leadInLength="0/1"   name="threshold"/>
            </Parameters>
            <MetaData>
             <entry key="effectIndex" val="0"/>
            </MetaData>
           </GenericEffect>
           <GenericEffect id="741" name = "NoiseReduction" >
            <Parameters>
            <InterpolatingParam id="742" interp="linr"  time="0/1" value="20" leadInLength="0/1"   name="denoiserAmount"/>
            <InterpolatingParam id="743" interp="linr"  time="0/1" value="0" leadInLength="0/1"   name="denoiserThreshold"/>
            <Parameter id="744"   name="noiseProfile">
             <Keyframes>
             <Keyframe id="745"  time="0/1" value="FBAAAAIAAABErAAAAQIAAFtafcIfp0TCKUw4wk6jMsJFIUPCRTFFwnlQQMJ0CETCdhpJwqh6R8Jb&#xD;&#xa;KUvCfYdZwis2YsIga23C9ah5whVhgcLuQIjC1+6NwmJpj8LC8o/Cf4mIwmRYgMI8MX7C0RGCwk6F&#xD;&#xa;f8LwGoHCx72EwlAvi8IA9o7CZD2Rwg+8l8L9TKHCfmSlwq5ZosLO65jC6FKTwlV2kcICW5PCTSSY&#xD;&#xa;wq/lkcKQfY7Cv+uOwi6IisKRpoTCt1qFwgIvi8K7n4nC0h6LwovhjcJsso7CJryMwlbji8Jcqo/C&#xD;&#xa;5jqWwkkolML4sZbCzvqYwomvl8JGtpnCMD2YwtwZmcLWWpfCMD+dwk4hpcIUfqTCQLehwjZMm8K4&#xD;&#xa;D5rC5QiYwk3xmcIgzJfCVuSWwqHcmcLcLJ7CJLGlwoecp8J9cqXCJNaewoZpnsLVqZzCxRSZwlmE&#xD;&#xa;lcJ+Q47CWJqLwreIkcIEbJPCKUSLwlFyhMLZSIjCeliXwouBnsImtJfCxHeYwtD1mMLaiJjC0cyb&#xD;&#xa;wsqJoML5lJ/C4DOZwmaDk8IMNI/CXl2RwrmjksLjkpLCIqiXwlSDn8KzNp3CLiuZwsmvk8LA7I7C&#xD;&#xa;E0+UwtvBnsIisJ/CDtyawjp1mMJ1mJjCqbyUwo20lsLmFZ7CDCCWwhWbksJ4ZpjCGJedwjIOoMK6&#xD;&#xa;JJrCtoKTwkmHksLhn5LCEZ+SwoyHlMKSk5vCj3KcwlQVk8KG943CPjKLwjCkicLajY3CpNeTwke/&#xD;&#xa;mMIgvKTCSaWrwqVAqsI1sKHCa2qgwpsGpcLsOarCeaquwiTstcJWPq7COkmiwn9WnMLQ65/C8V6g&#xD;&#xa;wo6vncLs86DCJ8CkwlWOrMIhGanChN+pwiJtpsKoo6HCqfKfwsShosKn/KXCwtCuwiSGs8KdmLTC&#xD;&#xa;bbm1whQms8JWFLDCTFmvwvHVqcJXu6rCD0StwkyOqsKHUajCH7Oqwg7SosKQ25zCjQmgwnlyrMIE&#xD;&#xa;D7HCfvCxwgJBrMK2W6nCDWyswikursIYlLPCTCm5wteutcKsBLLCZ6ivwtifqcK8mKnCJu6twizH&#xD;&#xa;qcLIjqrCuiiywi+ZtsIb3K/CymCnwuyxqMJheazCsBSrwqhOr8IbMbXCFt21wnewrML2VqjCKMqp&#xD;&#xa;wq8br8IXlK7CmwywwsPot8J8VbnC+RSzwiTcrcKQPbDCi+OzwlgYtcLL9rLCmme4wj1Bt8KfT6zC&#xD;&#xa;vIWqwukwsMLn1K/C7/eywngmuMJmZsDC9hfGwr4ZzcKKY9DCoC3MwuZuyMJ7p8nCiIjMwnJ4x8LJ&#xD;&#xa;Z8XCiILHwv63x8Lk6cbC1oPCwvwywMKRN8XClEPJwjoIxsL2U8jCZnDMwp/yzsLecMjCfBrBwsAD&#xD;&#xa;wMKga8TC0G7Nwjr7z8LpGNDC4DPUwlj61MKtnc/CMsLPwqnwzcIrxcbCFnnIwqk/y8IGg8rCJkPH&#xD;&#xa;wjTmx8IHBcTCP6nGwoLnzMJia87CHMvRwuaE0sJQts3CCqDNwrPozsJKV9LCz2vUwkg00sK8ktDC&#xD;&#xa;ttvPwkWazcJ8U8nCCmvHwrayycK+EsnC2fXLwt8+0MLXUNXChd3TwvT7zsL2WtDCYnTOwgoSz8L4&#xD;&#xa;gNPC2gzVwuxGzsJ2hcTCHAe/wsyywsIa5czCpSDRwvoj1MLyHtPCVkLNwhnTzMJuN8bC7GPEwqBz&#xD;&#xa;x8Je583CrvbSwkRK0MKUDcjCJCDAwoAHvcIajrvCcIXAwvIeyMJOtMbC23bGwtrmzsIVBtbCzzrV&#xD;&#xa;wkvr1MKLh9PCRx7Wwh2V38KbYeDCQSDiwn+Z4MLHVNvCgH7Zwkx118I4+NXCSfvYwjSL18ILf9PC&#xD;&#xa;trPPwtqDz8JYXtHCpJ3JwmJoxsK0ycnC3f3LwnibyMIDMsfCKLDNwgLc08LXCtPCMiPQwnwUzcIZ&#xD;&#xa;asPC8InBwqyuxsKy38nCbAXKwhplyMLEEcbC0A/GwooRzsJ2wtbC6HbTws6HzcLciczCtmXJwkDz&#xD;&#xa;ysKbo87CHLbMwmJfyMLmOcfC1DPFwsByycKZF8nCfZbGwtyhx8JOO83CAj/JwmK7yMLeGM7Cz5DP&#xD;&#xa;wroSx8I2GMjCOBPJwgQixcKc6sjCBCTNwn2VycJI/MbCTFTGwtBRx8Ijt8jCGLfIwncgyMLQW8jC&#xD;&#xa;RjjKwsKCyML2IMjCqlrHwqfaxsJB0MbCwxvOwrMs0MJcnc3CnzbFwqCzwMLEaL7Chky/wj3KxcL8&#xD;&#xa;J8rCYu3Jwnw0y8LkUM7Cyj/LwkbTx8J0yMnCfpPQwqK82MIOm9nCArbawgE93MK6NOHCpZDdws13&#xD;&#xa;2MKgNNXCfcHUwsBm2cImPtrCLPzPwprKzcJrttTCpsjTwtc/x8KBvcTCiWbHwnq3x8JEPMPCdi/E&#xD;&#xa;wqEGysJYOc7CngXPwsYv0MLYncrCQDrEwqoVxML448TCVqbIwkoBx8JM3sjCRPXFwsqOycLSQ83C&#xD;&#xa;lDvMwqAuyMI1R8nCcnTLwqKpycLy4szCGHzMwnp0ycKccMjCsA/Iwr6sx8JylsrChCjIwmj/x8KG&#xD;&#xa;4s3CcHfPwrDDycIO+MrCb0DOwgRczcIWncjCjuHMwn5tysLnRMjCADXKwlzeysKl7MnCOEjLwm1t&#xD;&#xa;x8KnHMrCaITMwt5IzcJA28jC5jbKwlb6ycKKYMrCzu3Gwu8wxsKMYMTClR/HwjpwzsK1stHCWFjO&#xD;&#xa;woZByMJOvMXCbrLAwph4w8INnMjCBqXGwgSByMJtxMzCTILOwvr/ycJYzMnCKVjRwpgY28JWZdzC&#xD;&#xa;hEvTwloA0sKbKNTCqHbhwt1afcKpp0TCUUw4wkmjMsImIUPCojFFwo1QQMI9CETC0xpJwrh7R8I0&#xD;&#xa;KkvCOIlZwj46YsJLcW3Csad5wq5YgcJ6JIjCoOeNwjnKjsIb347C0zyIwkvHgML+0X/CXfeCwqjN&#xD;&#xa;gMLdwIHCR9mEwjmsi8JKb5DCWoyTwn5XmcLoEaHCYl+lwlEXosK6nZjC/VWTwjiEkcIgc5PCXFuY&#xD;&#xa;wrv+kcIgfI7CzeeOwjKBisIFpITC3FuFwhYri8KRmYnChxqLwoHljcL5447CdzqNwsKPjMJnP5DC&#xD;&#xa;L1yWwvAYlMJnoJbCtuuYwv6il8J5spnCPzuYwtkNmcLzVJfChECdwhMapcJ7hqTCyL6hwohSm8JA&#xD;&#xa;E5rCogmYwnTymcKcz5fCiOmWwsjdmcIiKZ7C15+lwg6Kp8LybaXCINGewspxnsJQsJzCzBmZwrGL&#xD;&#xa;lcJFRo7CE5iLwgx2kcKkPZPC0TyLwpBuhMIYRIjCtFiXwpZ9nsJ5q5fCdHCYwrj2mMK8jZjC88qb&#xD;&#xa;wpCPoMIGl5/CkDaZwox/k8JqKY/CjE+Rwu6mksLDn5LCr62Xwsh/n8ILNJ3CYD6Zwi62k8I2647C&#xD;&#xa;uk2UwuTPnsLuuZ/CadmawgN0mMJAlZjCZqqUwtGblsIl/53CSCSWwoGiksKcbZjCPaCdwokMoMKO&#xD;&#xa;I5rCmoKTwvaHksJYopLCWqiSwiqQlMLyopvCHXycwjQck8IIAI7CPDaLwi2licJti43CQNaTwlzC&#xD;&#xa;mMKjv6TCpJerwmw3qsKJp6HCOW+gwooTpcIiSqrCTbCuwrDZtcJsIa7CdjmiwqBUnMJr5Z/CGF2g&#xD;&#xa;wvKrncKS8aDCGsekwiairMJoK6nC/OSpwlZ2psJ2sKHCXPafwqGqosJEB6bCQ8WuwvZ3s8IYfbTC&#xD;&#xa;l6a1whLzssJ246/CYEuvwsXTqcJmvarCwkWtwq6LqsKpT6jCaaeqwo3aosJV3ZzCrA2gwsdmrMKD&#xD;&#xa;HLHCdBCywtBIrMKqV6nC3WyswhgyrsI3h7PCdVK5wuXatcJoLbLCoM6vwuOxqcIIjqnCXMitwg20&#xD;&#xa;qcLtg6rChB2ywqeKtsJK6q/CqWCnwpmzqMINhazCFRKrwmE+r8J+A7XCIrW1wqaorMLDVKjCOsWp&#xD;&#xa;wi4Vr8JOsK7Cuymwwtjht8K2ebnCCzKzwnzqrcJqTbDC7vizwgcdtcLP2LLCPVW4ws9ut8LnbqzC&#xD;&#xa;Vpuqws8gsMLGra/CJMCywncFuMKrn8DCgwHGwrROzMKpn8/CBlnMwneSyMLYjsnCpgzMwq4Ux8LQ&#xD;&#xa;L8XCyaTHwp6Sx8Lt18bCs37Cwh9NwMK6BsXC9DvJwmQyxsKbl8jCOiTNwlrazsIiYcjCdP/Awjba&#xD;&#xa;v8J0UMTC0BjNwkiKz8Jg7c/CPgnUwhwJ1cLED8/CfibPwrJmzcI3dcbCUCHIwuvRysIwmMrCGWbH&#xD;&#xa;wpasx8JW98PCHJPGwoeezMI4oc3CDz3RwsUu0sJwYs3CJBzNwo2ozsJEZtLCvFzUwrqn0sIjtNDC&#xD;&#xa;krDPwkzgzMKS7sjCQK/HwhgvysIqRsnCtAXMwt/Az8KMytTCZD/UwiyMz8KCWdDCFkrOwlNDz8Lc&#xD;&#xa;S9PCcqLUwuoyzsLuncTCHfO+wl2SwsItTszCHKjQwm7s08KfN9PCMrDNwkhEzcKgdcbCDsnEwpyk&#xD;&#xa;x8L42c3CVoPSwv/4z8J0AMjCxBrAwpkUvcKEk7vCZorAwrhUyMKlhsbC8S/Gwvp6zsJiwNXCUKzU&#xD;&#xa;widk1MLUe9PC0J7VwnYa38K8u+DCr1njwh4G4cIexdvComrZworu1sJs+NXCeUnZwsoB2MKA9tPC&#xD;&#xa;mDLQwhYE0MIootHCFOPJwnFkxsLxbcnCLgLMwo4HycI9JMfCClnNwv7M08JCJ9PCC1vQwmTbzMI+&#xD;&#xa;PMPCXIPBwgjgxsJXFMrCr0LKwmR4yML868XCQL/Fwor8zcKI69bCzgTTwqBpzcKeT8zCxHPJwvFq&#xD;&#xa;y8JEns7C9qnMwrabyMJrgMfCmmLFwkSPycLg5MjCxHTGwvC3x8J6Nc3Ciq3IwqliyMJqys3CNFfP&#xD;&#xa;wrjkxsLw88fCAv7IwlwJxcJMm8jCNFbNwpXXycK2IMfC9YzGwtZix8J21MjCXMrIwpJJyMJUZMjC&#xD;&#xa;KADKwupQyMKiCsjCSF7Hwli5xsImY8bCV8DNwuabz8JyLs3CHBjFwlyhwMLpL77CXSC/ws6dxcIg&#xD;&#xa;BcrCRfzJwroyy8K6HM/CXKLLwhC0x8I6scnCKtfQwgzL2cL1utnCQizawrLn28LkcODCKrvcwsJr&#xD;&#xa;2MLv0NXCAK7UwqwH2cJAYNnCSnnPwqCgzcLcz9TCruDTwt1xx8Kc2sTCOpzHwknQx8ICZsPCQeXD&#xD;&#xa;wnIBysJrYc7CnAzPwhYj0MJVRcrCLgPEwhsMxMIwO8XC79fIwo4vx8Jm0MjCnKXFwmYTycLtIM3C&#xD;&#xa;1S3Mwp/3x8JAU8nCNzHLwnZnycKKpMzCjU/MwsZ+ycI1cMjCPB3Iwuyyx8JVu8rCM2/IwvM9yMJq&#xD;&#xa;Ds7C7mnPwrGdycLm18rCWNbNwkgszcKDnsjCscrMwvxWysLoSsjCCoXKwoAiy8IRDsrC1DjLwkxX&#xD;&#xa;x8Jv/cnCP8LMwikmzcJeA8nCH3PKwlA7ysLCZcrCoCnHwuVjxsKhfcTCHI7HwqprzsISldHCOBTO&#xD;&#xa;wgzXx8LarMXCwLTAwk6lw8LtuMjCGJnGwqlcyMIUnMzCE7LOwnkMysKiy8nCEjHRwm2m2sLlZtzC&#xD;&#xa;MubTwiVq0sJEt9TCDu7h" leadInLength="0/1"  />
             </Keyframes>
            </Parameter>
            </Parameters>
            <MetaData>
             <entry key="effectIndex" val="1"/>
            </MetaData>
           </GenericEffect>
          </Effects>
          <Attributes>
           <Attribute id="746" value="" name="ident"/>
           <Attribute id="747" value="44100" name="sampleRate"/>
           <Attribute id="748" value="16" name="bitDepth"/>
           <Attribute id="749" value="1" name="gain"/>
           <Attribute id="750" value="1" name="mixToMono"/>
          </Attributes>
         </AMFile>
         <VMFile id="751" start="2959" duration="241" scalar="241/222" mediaStart="3169/1" mediaDuration="222/1" trackNumber="0" src="21" >
          <Transformer>
           <VectorParam id="752"  name="translation">
            <InterpolatingParam id="753" interp="linr"  time="-9999999/1" value="0" leadInLength="0/1"  />
            <InterpolatingParam id="754" interp="linr"  time="-9999999/1" value="0" leadInLength="0/1"  />
            <InterpolatingParam id="755" interp="linr"  time="-9999999/1" value="0" leadInLength="0/1"  />
           </VectorParam>
           <VectorParam id="756"  name="rotation">
            <InterpolatingParam id="757" interp="linr"  time="-9999999/1" value="0" leadInLength="0/1"  />
            <InterpolatingParam id="758" interp="linr"  time="-9999999/1" value="0" leadInLength="0/1"  />
            <InterpolatingParam id="759" interp="linr"  time="-9999999/1" value="0" leadInLength="0/1"  />
           </VectorParam>
           <VectorParam id="760"  name="shear">
            <InterpolatingParam id="761" interp="linr"  time="-9999999/1" value="0" leadInLength="0/1"  />
            <InterpolatingParam id="762" interp="linr"  time="-9999999/1" value="0" leadInLength="0/1"  />
            <InterpolatingParam id="763" interp="linr"  time="-9999999/1" value="0" leadInLength="0/1"  />
           </VectorParam>
           <VectorParam id="764"  name="scale">
            <InterpolatingParam id="765" interp="linr"  time="-9999999/1" value="1" leadInLength="0/1"  />
            <InterpolatingParam id="766" interp="linr"  time="-9999999/1" value="1" leadInLength="0/1"  />
            <InterpolatingParam id="767" interp="linr"  time="-9999999/1" value="1" leadInLength="0/1"  />
           </VectorParam>
           <VectorParam id="768"  name="anchor">
            <InterpolatingParam id="769" interp="linr"  time="0/1" value="0" leadInLength="0/1"  />
            <InterpolatingParam id="770" interp="linr"  time="0/1" value="0" leadInLength="0/1"  />
            <InterpolatingParam id="771" interp="linr"  time="0/1" value="0" leadInLength="0/1"  />
           </VectorParam>
          </Transformer>
          <Parameters>
           <VectorParam id="772"  name="sourceCrop">
            <InterpolatingParam id="773" interp="linr"  time="0/1" value="0" leadInLength="0/1"  />
            <InterpolatingParam id="774" interp="linr"  time="0/1" value="0" leadInLength="0/1"  />
            <InterpolatingParam id="775" interp="linr"  time="0/1" value="0" leadInLength="0/1"  />
            <InterpolatingParam id="776" interp="linr"  time="0/1" value="0" leadInLength="0/1"  />
           </VectorParam>
           <VectorParam id="777"  name="geometryCrop">
            <InterpolatingParam id="778" interp="linr"  time="-9999999/1" value="0" leadInLength="0/1"  />
            <InterpolatingParam id="779" interp="linr"  time="-9999999/1" value="0" leadInLength="0/1"  />
            <InterpolatingParam id="780" interp="linr"  time="-9999999/1" value="0" leadInLength="0/1"  />
            <InterpolatingParam id="781" interp="linr"  time="-9999999/1" value="0" leadInLength="0/1"  />
           </VectorParam>
           <InterpolatingParam id="782" interp="linr"  time="-9999999/1" value="1" leadInLength="0/1"  name="opacity"/>
          </Parameters>
          <Attributes>
           <Attribute id="783" value="" name="ident"/>
          </Attributes>
          <ExtraData>
           <Entry key="ZoomPanBin">
            <ZoomPanBin id="784"  >
             <ZoomPanKeyframes>
              <ZoomPanKeyframe id="785" timeRangeEnd="-9999999/1" timeRangeDuration="0/1" interpolaterName="linr"  />
             </ZoomPanKeyframes>
            </ZoomPanBin>
           </Entry>
          </ExtraData>
         </VMFile>
         <MetaData>
          <entry key="WinSubProjectDisplayName" val=""/>
         </MetaData>
        </UnifiedMedia>
        <UnifiedMedia id="786"  >
         <AMFile id="787" start="3200" duration="322" scalar="1/1" mediaStart="3391/1" mediaDuration="322/1" trackNumber="1" src="21" channelNumber="0,1" >
          <Parameters>
           <InterpolatingParam id="788" interp="linr"  name="volume">
            <Keyframes>
            <Keyframe id="789"  time="-1/1" value="1" leadInLength="0/1"  />
            <Keyframe id="790"  time="0/1" value="0" leadInLength="0/1"  />
            <Keyframe id="791"  time="8952/1" value="0" leadInLength="0/1"  />
            <Keyframe id="792"  time="8953/1" value="1" leadInLength="0/1"  />
            </Keyframes>
           </InterpolatingParam>
           <Parameter id="793"  name="captions"/>
          </Parameters>
          <Attributes>
           <Attribute id="794" value="" name="ident"/>
           <Attribute id="795" value="44100" name="sampleRate"/>
           <Attribute id="796" value="16" name="bitDepth"/>
           <Attribute id="797" value="1" name="gain"/>
           <Attribute id="798" value="0" name="mixToMono"/>
          </Attributes>
         </AMFile>
         <VMFile id="799" start="3200" duration="322" scalar="1/1" mediaStart="3391/1" mediaDuration="322/1" trackNumber="0" src="21" >
          <Transformer>
           <VectorParam id="800"  name="translation">
            <InterpolatingParam id="801" interp="linr"  time="-9999999/1" value="0" leadInLength="0/1"  />
            <InterpolatingParam id="802" interp="linr"  time="-9999999/1" value="0" leadInLength="0/1"  />
            <InterpolatingParam id="803" interp="linr"  time="-9999999/1" value="0" leadInLength="0/1"  />
           </VectorParam>
           <VectorParam id="804"  name="rotation">
            <InterpolatingParam id="805" interp="linr"  time="-9999999/1" value="0" leadInLength="0/1"  />
            <InterpolatingParam id="806" interp="linr"  time="-9999999/1" value="0" leadInLength="0/1"  />
            <InterpolatingParam id="807" interp="linr"  time="-9999999/1" value="0" leadInLength="0/1"  />
           </VectorParam>
           <VectorParam id="808"  name="shear">
            <InterpolatingParam id="809" interp="linr"  time="-9999999/1" value="0" leadInLength="0/1"  />
            <InterpolatingParam id="810" interp="linr"  time="-9999999/1" value="0" leadInLength="0/1"  />
            <InterpolatingParam id="811" interp="linr"  time="-9999999/1" value="0" leadInLength="0/1"  />
           </VectorParam>
           <VectorParam id="812"  name="scale">
            <InterpolatingParam id="813" interp="linr"  time="-9999999/1" value="1" leadInLength="0/1"  />
            <InterpolatingParam id="814" interp="linr"  time="-9999999/1" value="1" leadInLength="0/1"  />
            <InterpolatingParam id="815" interp="linr"  time="-9999999/1" value="1" leadInLength="0/1"  />
           </VectorParam>
           <VectorParam id="816"  name="anchor">
            <InterpolatingParam id="817" interp="linr"  time="0/1" value="0" leadInLength="0/1"  />
            <InterpolatingParam id="818" interp="linr"  time="0/1" value="0" leadInLength="0/1"  />
            <InterpolatingParam id="819" interp="linr"  time="0/1" value="0" leadInLength="0/1"  />
           </VectorParam>
          </Transformer>
          <Parameters>
           <VectorParam id="820"  name="sourceCrop">
            <InterpolatingParam id="821" interp="linr"  time="0/1" value="0" leadInLength="0/1"  />
            <InterpolatingParam id="822" interp="linr"  time="0/1" value="0" leadInLength="0/1"  />
            <InterpolatingParam id="823" interp="linr"  time="0/1" value="0" leadInLength="0/1"  />
            <InterpolatingParam id="824" interp="linr"  time="0/1" value="0" leadInLength="0/1"  />
           </VectorParam>
           <VectorParam id="825"  name="geometryCrop">
            <InterpolatingParam id="826" interp="linr"  time="-9999999/1" value="0" leadInLength="0/1"  />
            <InterpolatingParam id="827" interp="linr"  time="-9999999/1" value="0" leadInLength="0/1"  />
            <InterpolatingParam id="828" interp="linr"  time="-9999999/1" value="0" leadInLength="0/1"  />
            <InterpolatingParam id="829" interp="linr"  time="-9999999/1" value="0" leadInLength="0/1"  />
           </VectorParam>
           <InterpolatingParam id="830" interp="linr"  time="-9999999/1" value="1" leadInLength="0/1"  name="opacity"/>
          </Parameters>
          <Attributes>
           <Attribute id="831" value="" name="ident"/>
          </Attributes>
          <ExtraData>
           <Entry key="ZoomPanBin">
            <ZoomPanBin id="832"  >
             <ZoomPanKeyframes>
              <ZoomPanKeyframe id="833" timeRangeEnd="-9999999/1" timeRangeDuration="0/1" interpolaterName="linr"  />
             </ZoomPanKeyframes>
            </ZoomPanBin>
           </Entry>
          </ExtraData>
         </VMFile>
         <MetaData>
          <entry key="WinSubProjectDisplayName" val=""/>
         </MetaData>
        </UnifiedMedia>
        <UnifiedMedia id="834"  >
         <AMFile id="835" start="3522" duration="95" scalar="1/1" mediaStart="3742/1" mediaDuration="95/1" trackNumber="1" src="21" channelNumber="0,1" >
          <Parameters>
           <InterpolatingParam id="836" interp="linr"  name="volume">
            <Keyframes>
            <Keyframe id="837"  time="-1/1" value="1" leadInLength="0/1"  />
            <Keyframe id="838"  time="0/1" value="0" leadInLength="0/1"  />
            <Keyframe id="839"  time="8952/1" value="0" leadInLength="0/1"  />
            <Keyframe id="840"  time="8953/1" value="1" leadInLength="0/1"  />
            </Keyframes>
           </InterpolatingParam>
           <Parameter id="841"  name="captions"/>
          </Parameters>
          <Attributes>
           <Attribute id="842" value="" name="ident"/>
           <Attribute id="843" value="44100" name="sampleRate"/>
           <Attribute id="844" value="16" name="bitDepth"/>
           <Attribute id="845" value="1" name="gain"/>
           <Attribute id="846" value="0" name="mixToMono"/>
          </Attributes>
         </AMFile>
         <VMFile id="847" start="3522" duration="95" scalar="1/1" mediaStart="3742/1" mediaDuration="95/1" trackNumber="0" src="21" >
          <Transformer>
           <VectorParam id="848"  name="translation">
            <InterpolatingParam id="849" interp="linr"  time="-9999999/1" value="0" leadInLength="0/1"  />
            <InterpolatingParam id="850" interp="linr"  time="-9999999/1" value="0" leadInLength="0/1"  />
            <InterpolatingParam id="851" interp="linr"  time="-9999999/1" value="0" leadInLength="0/1"  />
           </VectorParam>
           <VectorParam id="852"  name="rotation">
            <InterpolatingParam id="853" interp="linr"  time="-9999999/1" value="0" leadInLength="0/1"  />
            <InterpolatingParam id="854" interp="linr"  time="-9999999/1" value="0" leadInLength="0/1"  />
            <InterpolatingParam id="855" interp="linr"  time="-9999999/1" value="0" leadInLength="0/1"  />
           </VectorParam>
           <VectorParam id="856"  name="shear">
            <InterpolatingParam id="857" interp="linr"  time="-9999999/1" value="0" leadInLength="0/1"  />
            <InterpolatingParam id="858" interp="linr"  time="-9999999/1" value="0" leadInLength="0/1"  />
            <InterpolatingParam id="859" interp="linr"  time="-9999999/1" value="0" leadInLength="0/1"  />
           </VectorParam>
           <VectorParam id="860"  name="scale">
            <InterpolatingParam id="861" interp="linr"  time="-9999999/1" value="1" leadInLength="0/1"  />
            <InterpolatingParam id="862" interp="linr"  time="-9999999/1" value="1" leadInLength="0/1"  />
            <InterpolatingParam id="863" interp="linr"  time="-9999999/1" value="1" leadInLength="0/1"  />
           </VectorParam>
           <VectorParam id="864"  name="anchor">
            <InterpolatingParam id="865" interp="linr"  time="0/1" value="0" leadInLength="0/1"  />
            <InterpolatingParam id="866" interp="linr"  time="0/1" value="0" leadInLength="0/1"  />
            <InterpolatingParam id="867" interp="linr"  time="0/1" value="0" leadInLength="0/1"  />
           </VectorParam>
          </Transformer>
          <Parameters>
           <VectorParam id="868"  name="sourceCrop">
            <InterpolatingParam id="869" interp="linr"  time="0/1" value="0" leadInLength="0/1"  />
            <InterpolatingParam id="870" interp="linr"  time="0/1" value="0" leadInLength="0/1"  />
            <InterpolatingParam id="871" interp="linr"  time="0/1" value="0" leadInLength="0/1"  />
            <InterpolatingParam id="872" interp="linr"  time="0/1" value="0" leadInLength="0/1"  />
           </VectorParam>
           <VectorParam id="873"  name="geometryCrop">
            <InterpolatingParam id="874" interp="linr"  time="-9999999/1" value="0" leadInLength="0/1"  />
            <InterpolatingParam id="875" interp="linr"  time="-9999999/1" value="0" leadInLength="0/1"  />
            <InterpolatingParam id="876" interp="linr"  time="-9999999/1" value="0" leadInLength="0/1"  />
            <InterpolatingParam id="877" interp="linr"  time="-9999999/1" value="0" leadInLength="0/1"  />
           </VectorParam>
           <InterpolatingParam id="878" interp="linr"  time="-9999999/1" value="1" leadInLength="0/1"  name="opacity"/>
          </Parameters>
          <Attributes>
           <Attribute id="879" value="" name="ident"/>
          </Attributes>
          <ExtraData>
           <Entry key="ZoomPanBin">
            <ZoomPanBin id="880"  >
             <ZoomPanKeyframes>
              <ZoomPanKeyframe id="881" timeRangeEnd="-9999999/1" timeRangeDuration="0/1" interpolaterName="linr"  />
             </ZoomPanKeyframes>
            </ZoomPanBin>
           </Entry>
          </ExtraData>
         </VMFile>
         <MetaData>
          <entry key="WinSubProjectDisplayName" val=""/>
         </MetaData>
        </UnifiedMedia>
        <StitchedMedia id="882" start="3617" duration="607" scalar="3471626633/4396989099" mediaStart="19216566/4969" mediaDuration="4396989099/5719319" minMediaStart="0/1" >
         <Transformer>
          <VectorParam id="883"  name="translation">
           <InterpolatingParam id="884" interp="linr"  time="-9999999/1" value="0" leadInLength="0/1"  />
           <InterpolatingParam id="885" interp="linr"  time="-9999999/1" value="0" leadInLength="0/1"  />
           <InterpolatingParam id="886" interp="linr"  time="-9999999/1" value="0" leadInLength="0/1"  />
          </VectorParam>
          <VectorParam id="887"  name="rotation">
           <InterpolatingParam id="888" interp="linr"  time="-9999999/1" value="0" leadInLength="0/1"  />
           <InterpolatingParam id="889" interp="linr"  time="-9999999/1" value="0" leadInLength="0/1"  />
           <InterpolatingParam id="890" interp="linr"  time="-9999999/1" value="0" leadInLength="0/1"  />
          </VectorParam>
          <VectorParam id="891"  name="shear">
           <InterpolatingParam id="892" interp="linr"  time="-9999999/1" value="0" leadInLength="0/1"  />
           <InterpolatingParam id="893" interp="linr"  time="-9999999/1" value="0" leadInLength="0/1"  />
           <InterpolatingParam id="894" interp="linr"  time="-9999999/1" value="0" leadInLength="0/1"  />
          </VectorParam>
          <VectorParam id="895"  name="scale">
           <InterpolatingParam id="896" interp="linr"  time="-9999999/1" value="1" leadInLength="0/1"  />
           <InterpolatingParam id="897" interp="linr"  time="-9999999/1" value="1" leadInLength="0/1"  />
           <InterpolatingParam id="898" interp="linr"  time="-9999999/1" value="1" leadInLength="0/1"  />
          </VectorParam>
          <VectorParam id="899"  name="anchor">
           <InterpolatingParam id="900" interp="linr"  >
            <Keyframes>
            <Keyframe id="901"  time="0/1" value="0" leadInLength="0/1"  />
            <Keyframe id="902"  time="4924/1" value="0" leadInLength="0/1"  />
            </Keyframes>
           </InterpolatingParam>
           <InterpolatingParam id="903" interp="linr"  >
            <Keyframes>
            <Keyframe id="904"  time="0/1" value="0" leadInLength="0/1"  />
            <Keyframe id="905"  time="4924/1" value="0" leadInLength="0/1"  />
            </Keyframes>
           </InterpolatingParam>
           <InterpolatingParam id="906" interp="linr"  >
            <Keyframes>
            <Keyframe id="907"  time="0/1" value="0" leadInLength="0/1"  />
            <Keyframe id="908"  time="4924/1" value="0" leadInLength="0/1"  />
            </Keyframes>
           </InterpolatingParam>
          </VectorParam>
         </Transformer>
         <Parameters>
          <VectorParam id="909"  name="sourceCrop">
           <InterpolatingParam id="910" interp="linr"  >
            <Keyframes>
            <Keyframe id="911"  time="0/1" value="0" leadInLength="0/1"  />
            <Keyframe id="912"  time="4924/1" value="0" leadInLength="0/1"  />
            </Keyframes>
           </InterpolatingParam>
           <InterpolatingParam id="913" interp="linr"  >
            <Keyframes>
            <Keyframe id="914"  time="0/1" value="0" leadInLength="0/1"  />
            <Keyframe id="915"  time="4924/1" value="0" leadInLength="0/1"  />
            </Keyframes>
           </InterpolatingParam>
           <InterpolatingParam id="916" interp="linr"  >
            <Keyframes>
            <Keyframe id="917"  time="0/1" value="0" leadInLength="0/1"  />
            <Keyframe id="918"  time="4924/1" value="0" leadInLength="0/1"  />
            </Keyframes>
           </InterpolatingParam>
           <InterpolatingParam id="919" interp="linr"  >
            <Keyframes>
            <Keyframe id="920"  time="0/1" value="0" leadInLength="0/1"  />
            <Keyframe id="921"  time="4924/1" value="0" leadInLength="0/1"  />
            </Keyframes>
           </InterpolatingParam>
          </VectorParam>
          <VectorParam id="922"  name="geometryCrop">
           <InterpolatingParam id="923" interp="linr"  time="-9999999/1" value="0" leadInLength="0/1"  />
           <InterpolatingParam id="924" interp="linr"  time="-9999999/1" value="0" leadInLength="0/1"  />
           <InterpolatingParam id="925" interp="linr"  time="-9999999/1" value="0" leadInLength="0/1"  />
           <InterpolatingParam id="926" interp="linr"  time="-9999999/1" value="0" leadInLength="0/1"  />
          </VectorParam>
          <InterpolatingParam id="927" interp="linr"  time="-9999999/1" value="1" leadInLength="0/1"  name="opacity"/>
          <InterpolatingParam id="928" interp="linr"  time="0/1" value="1" leadInLength="0/1"  name="cursorOpacity"/>
          <InterpolatingParam id="929" interp="linr"  time="0/1" value="1" leadInLength="0/1"  name="cursorScale"/>
          <InterpolatingParam id="930" interp="linr"  name="volume">
           <Keyframes>
           <Keyframe id="931"  time="-1/1" value="1" leadInLength="0/1"  />
           <Keyframe id="932"  time="0/1" value="0" leadInLength="0/1"  />
           <Keyframe id="933"  time="46313324/5123" value="0" leadInLength="0/1"  />
           <Keyframe id="934"  time="46318447/5123" value="1" leadInLength="0/1"  />
           </Keyframes>
          </InterpolatingParam>
          <Parameter id="935"  name="captions"/>
         </Parameters>
         <Attributes>
          <Attribute id="936" value="" name="ident"/>
          <Attribute id="937" value="0" name="mixToMono"/>
         </Attributes>
         <MetaData>
          <entry key="WinSubProjectDisplayName" val=""/>
         </MetaData>
         <ExtraData>
          <Entry key="ZoomPanBin">
           <ZoomPanBin id="938"  >
            <ZoomPanKeyframes>
             <ZoomPanKeyframe id="939" timeRangeEnd="-9999999/1" timeRangeDuration="0/1" interpolaterName="linr"  />
            </ZoomPanKeyframes>
           </ZoomPanBin>
          </Entry>
          <Entry key="CursorEffectBin">
           <CursorEffectBin id="940"  >
            <CursorEffectKeyframes>
            </CursorEffectKeyframes>
           </CursorEffectBin>
          </Entry>
         </ExtraData>
         <GenericTrack id="941"  >
          <Attributes>
           <Attribute id="942" value="" name="ident"/>
           <Attribute id="943" value="0" name="audioMuted"/>
           <Attribute id="944" value="0" name="videoHidden"/>
          </Attributes>
          <MetaData>
           <entry key="IsLocked" val="False"/>
           <entry key="WinTrackHeight" val="0"/>
          </MetaData>
          <Medias>
           <UnifiedMedia id="945"  >
            <AMFile id="946" start="0" duration="4924" scalar="1/1" mediaStart="0/1" mediaDuration="4924/1" trackNumber="1" src="21" channelNumber="0,1" >
             <Parameters>
              <InterpolatingParam id="947" interp="linr"  time="0/1" value="1" leadInLength="0/1"  name="volume"/>
              <Parameter id="948"  name="captions"/>
             </Parameters>
             <Attributes>
              <Attribute id="949" value="" name="ident"/>
              <Attribute id="950" value="44100" name="sampleRate"/>
              <Attribute id="951" value="16" name="bitDepth"/>
              <Attribute id="952" value="1" name="gain"/>
              <Attribute id="953" value="0" name="mixToMono"/>
             </Attributes>
            </AMFile>
            <VMFile id="954" start="0" duration="4924" scalar="1/1" mediaStart="0/1" mediaDuration="4924/1" trackNumber="0" src="21" >
             <Transformer>
              <VectorParam id="955"  name="translation">
               <InterpolatingParam id="956" interp="linr"  time="-9999999/1" value="0" leadInLength="0/1"  />
               <InterpolatingParam id="957" interp="linr"  time="-9999999/1" value="0" leadInLength="0/1"  />
               <InterpolatingParam id="958" interp="linr"  time="-9999999/1" value="0" leadInLength="0/1"  />
              </VectorParam>
              <VectorParam id="959"  name="rotation">
               <InterpolatingParam id="960" interp="linr"  time="-9999999/1" value="0" leadInLength="0/1"  />
               <InterpolatingParam id="961" interp="linr"  time="-9999999/1" value="0" leadInLength="0/1"  />
               <InterpolatingParam id="962" interp="linr"  time="-9999999/1" value="0" leadInLength="0/1"  />
              </VectorParam>
              <VectorParam id="963"  name="shear">
               <InterpolatingParam id="964" interp="linr"  time="-9999999/1" value="0" leadInLength="0/1"  />
               <InterpolatingParam id="965" interp="linr"  time="-9999999/1" value="0" leadInLength="0/1"  />
               <InterpolatingParam id="966" interp="linr"  time="-9999999/1" value="0" leadInLength="0/1"  />
              </VectorParam>
              <VectorParam id="967"  name="scale">
               <InterpolatingParam id="968" interp="linr"  time="-9999999/1" value="1" leadInLength="0/1"  />
               <InterpolatingParam id="969" interp="linr"  time="-9999999/1" value="1" leadInLength="0/1"  />
               <InterpolatingParam id="970" interp="linr"  time="-9999999/1" value="1" leadInLength="0/1"  />
              </VectorParam>
              <VectorParam id="971"  name="anchor">
               <InterpolatingParam id="972" interp="linr"  time="0/1" value="0" leadInLength="0/1"  />
               <InterpolatingParam id="973" interp="linr"  time="0/1" value="0" leadInLength="0/1"  />
               <InterpolatingParam id="974" interp="linr"  time="0/1" value="0" leadInLength="0/1"  />
              </VectorParam>
             </Transformer>
             <Parameters>
              <VectorParam id="975"  name="sourceCrop">
               <InterpolatingParam id="976" interp="linr"  time="0/1" value="0" leadInLength="0/1"  />
               <InterpolatingParam id="977" interp="linr"  time="0/1" value="0" leadInLength="0/1"  />
               <InterpolatingParam id="978" interp="linr"  time="0/1" value="0" leadInLength="0/1"  />
               <InterpolatingParam id="979" interp="linr"  time="0/1" value="0" leadInLength="0/1"  />
              </VectorParam>
              <VectorParam id="980"  name="geometryCrop">
               <InterpolatingParam id="981" interp="linr"  time="-9999999/1" value="0" leadInLength="0/1"  />
               <InterpolatingParam id="982" interp="linr"  time="-9999999/1" value="0" leadInLength="0/1"  />
               <InterpolatingParam id="983" interp="linr"  time="-9999999/1" value="0" leadInLength="0/1"  />
               <InterpolatingParam id="984" interp="linr"  time="-9999999/1" value="0" leadInLength="0/1"  />
              </VectorParam>
              <InterpolatingParam id="985" interp="linr"  time="-9999999/1" value="1" leadInLength="0/1"  name="opacity"/>
             </Parameters>
             <Attributes>
              <Attribute id="986" value="" name="ident"/>
             </Attributes>
             <ExtraData>
              <Entry key="ZoomPanBin">
               <ZoomPanBin id="987"  >
                <ZoomPanKeyframes>
                 <ZoomPanKeyframe id="988" timeRangeEnd="-9999999/1" timeRangeDuration="0/1" interpolaterName="linr"  />
                </ZoomPanKeyframes>
               </ZoomPanBin>
              </Entry>
             </ExtraData>
            </VMFile>
            <MetaData>
             <entry key="WinSubProjectDisplayName" val=""/>
            </MetaData>
           </UnifiedMedia>
           <IMFile id="989" start="4924" duration="90" scalar="1/1" mediaStart="4924/1" mediaDuration="1/1" trackNumber="0" src="21" trimStartSum="0/1" >
            <Transformer>
             <VectorParam id="990"  name="translation">
              <InterpolatingParam id="991" interp="linr"  time="-9999999/1" value="0" leadInLength="0/1"  />
              <InterpolatingParam id="992" interp="linr"  time="-9999999/1" value="0" leadInLength="0/1"  />
              <InterpolatingParam id="993" interp="linr"  time="-9999999/1" value="0" leadInLength="0/1"  />
             </VectorParam>
             <VectorParam id="994"  name="rotation">
              <InterpolatingParam id="995" interp="linr"  time="-9999999/1" value="0" leadInLength="0/1"  />
              <InterpolatingParam id="996" interp="linr"  time="-9999999/1" value="0" leadInLength="0/1"  />
              <InterpolatingParam id="997" interp="linr"  time="-9999999/1" value="0" leadInLength="0/1"  />
             </VectorParam>
             <VectorParam id="998"  name="shear">
              <InterpolatingParam id="999" interp="linr"  time="-9999999/1" value="0" leadInLength="0/1"  />
              <InterpolatingParam id="1000" interp="linr"  time="-9999999/1" value="0" leadInLength="0/1"  />
              <InterpolatingParam id="1001" interp="linr"  time="-9999999/1" value="0" leadInLength="0/1"  />
             </VectorParam>
             <VectorParam id="1002"  name="scale">
              <InterpolatingParam id="1003" interp="linr"  time="-9999999/1" value="1" leadInLength="0/1"  />
              <InterpolatingParam id="1004" interp="linr"  time="-9999999/1" value="1" leadInLength="0/1"  />
              <InterpolatingParam id="1005" interp="linr"  time="-9999999/1" value="1" leadInLength="0/1"  />
             </VectorParam>
             <VectorParam id="1006"  name="anchor">
              <InterpolatingParam id="1007" interp="linr"  time="0/1" value="0" leadInLength="0/1"  />
              <InterpolatingParam id="1008" interp="linr"  time="0/1" value="0" leadInLength="0/1"  />
              <InterpolatingParam id="1009" interp="linr"  time="0/1" value="0" leadInLength="0/1"  />
             </VectorParam>
            </Transformer>
            <Parameters>
             <VectorParam id="1010"  name="sourceCrop">
              <InterpolatingParam id="1011" interp="linr"  time="0/1" value="0" leadInLength="0/1"  />
              <InterpolatingParam id="1012" interp="linr"  time="0/1" value="0" leadInLength="0/1"  />
              <InterpolatingParam id="1013" interp="linr"  time="0/1" value="0" leadInLength="0/1"  />
              <InterpolatingParam id="1014" interp="linr"  time="0/1" value="0" leadInLength="0/1"  />
             </VectorParam>
             <VectorParam id="1015"  name="geometryCrop">
              <InterpolatingParam id="1016" interp="linr"  time="-9999999/1" value="0" leadInLength="0/1"  />
              <InterpolatingParam id="1017" interp="linr"  time="-9999999/1" value="0" leadInLength="0/1"  />
              <InterpolatingParam id="1018" interp="linr"  time="-9999999/1" value="0" leadInLength="0/1"  />
              <InterpolatingParam id="1019" interp="linr"  time="-9999999/1" value="0" leadInLength="0/1"  />
             </VectorParam>
             <InterpolatingParam id="1020" interp="linr"  time="-9999999/1" value="1" leadInLength="0/1"  name="opacity"/>
            </Parameters>
            <Attributes>
             <Attribute id="1021" value="" name="ident"/>
            </Attributes>
            <MetaData>
             <entry key="WinSubProjectDisplayName" val=""/>
            </MetaData>
            <ExtraData>
             <Entry key="ZoomPanBin">
              <ZoomPanBin id="1022"  >
               <ZoomPanKeyframes>
                <ZoomPanKeyframe id="1023" timeRangeEnd="-9999999/1" timeRangeDuration="0/1" interpolaterName="linr"  />
               </ZoomPanKeyframes>
              </ZoomPanBin>
             </Entry>
            </ExtraData>
           </IMFile>
           <UnifiedMedia id="1024"  >
            <AMFile id="1025" start="5014" duration="4028" scalar="1/1" mediaStart="4923/1" mediaDuration="4028/1" trackNumber="1" src="21" channelNumber="0,1" >
             <Parameters>
              <InterpolatingParam id="1026" interp="linr"  time="0/1" value="1" leadInLength="0/1"  name="volume"/>
              <Parameter id="1027"  name="captions"/>
             </Parameters>
             <Attributes>
              <Attribute id="1028" value="" name="ident"/>
              <Attribute id="1029" value="44100" name="sampleRate"/>
              <Attribute id="1030" value="16" name="bitDepth"/>
              <Attribute id="1031" value="1" name="gain"/>
              <Attribute id="1032" value="0" name="mixToMono"/>
             </Attributes>
            </AMFile>
            <VMFile id="1033" start="5014" duration="4028" scalar="1/1" mediaStart="4923/1" mediaDuration="4028/1" trackNumber="0" src="21" >
             <Transformer>
              <VectorParam id="1034"  name="translation">
               <InterpolatingParam id="1035" interp="linr"  time="-9999999/1" value="0" leadInLength="0/1"  />
               <InterpolatingParam id="1036" interp="linr"  time="-9999999/1" value="0" leadInLength="0/1"  />
               <InterpolatingParam id="1037" interp="linr"  time="-9999999/1" value="0" leadInLength="0/1"  />
              </VectorParam>
              <VectorParam id="1038"  name="rotation">
               <InterpolatingParam id="1039" interp="linr"  time="-9999999/1" value="0" leadInLength="0/1"  />
               <InterpolatingParam id="1040" interp="linr"  time="-9999999/1" value="0" leadInLength="0/1"  />
               <InterpolatingParam id="1041" interp="linr"  time="-9999999/1" value="0" leadInLength="0/1"  />
              </VectorParam>
              <VectorParam id="1042"  name="shear">
               <InterpolatingParam id="1043" interp="linr"  time="-9999999/1" value="0" leadInLength="0/1"  />
               <InterpolatingParam id="1044" interp="linr"  time="-9999999/1" value="0" leadInLength="0/1"  />
               <InterpolatingParam id="1045" interp="linr"  time="-9999999/1" value="0" leadInLength="0/1"  />
              </VectorParam>
              <VectorParam id="1046"  name="scale">
               <InterpolatingParam id="1047" interp="linr"  time="-9999999/1" value="1" leadInLength="0/1"  />
               <InterpolatingParam id="1048" interp="linr"  time="-9999999/1" value="1" leadInLength="0/1"  />
               <InterpolatingParam id="1049" interp="linr"  time="-9999999/1" value="1" leadInLength="0/1"  />
              </VectorParam>
              <VectorParam id="1050"  name="anchor">
               <InterpolatingParam id="1051" interp="linr"  time="0/1" value="0" leadInLength="0/1"  />
               <InterpolatingParam id="1052" interp="linr"  time="0/1" value="0" leadInLength="0/1"  />
               <InterpolatingParam id="1053" interp="linr"  time="0/1" value="0" leadInLength="0/1"  />
              </VectorParam>
             </Transformer>
             <Parameters>
              <VectorParam id="1054"  name="sourceCrop">
               <InterpolatingParam id="1055" interp="linr"  time="0/1" value="0" leadInLength="0/1"  />
               <InterpolatingParam id="1056" interp="linr"  time="0/1" value="0" leadInLength="0/1"  />
               <InterpolatingParam id="1057" interp="linr"  time="0/1" value="0" leadInLength="0/1"  />
               <InterpolatingParam id="1058" interp="linr"  time="0/1" value="0" leadInLength="0/1"  />
              </VectorParam>
              <VectorParam id="1059"  name="geometryCrop">
               <InterpolatingParam id="1060" interp="linr"  time="-9999999/1" value="0" leadInLength="0/1"  />
               <InterpolatingParam id="1061" interp="linr"  time="-9999999/1" value="0" leadInLength="0/1"  />
               <InterpolatingParam id="1062" interp="linr"  time="-9999999/1" value="0" leadInLength="0/1"  />
               <InterpolatingParam id="1063" interp="linr"  time="-9999999/1" value="0" leadInLength="0/1"  />
              </VectorParam>
              <InterpolatingParam id="1064" interp="linr"  time="-9999999/1" value="1" leadInLength="0/1"  name="opacity"/>
             </Parameters>
             <Attributes>
              <Attribute id="1065" value="" name="ident"/>
             </Attributes>
             <ExtraData>
              <Entry key="ZoomPanBin">
               <ZoomPanBin id="1066"  >
                <ZoomPanKeyframes>
                 <ZoomPanKeyframe id="1067" timeRangeEnd="-9999999/1" timeRangeDuration="0/1" interpolaterName="linr"  />
                </ZoomPanKeyframes>
               </ZoomPanBin>
              </Entry>
             </ExtraData>
            </VMFile>
            <MetaData>
             <entry key="WinSubProjectDisplayName" val=""/>
            </MetaData>
           </UnifiedMedia>
          </Medias>
         </GenericTrack>
        </StitchedMedia>
        <StitchedMedia id="1068" start="4224" duration="76" scalar="1555654768/1283168025" mediaStart="26515256565/5719319" mediaDuration="24380192475/388913692" minMediaStart="0/1" >
         <Transformer>
          <VectorParam id="1069"  name="translation">
           <InterpolatingParam id="1070" interp="linr"  time="-9999999/1" value="0" leadInLength="0/1"  />
           <InterpolatingParam id="1071" interp="linr"  time="-9999999/1" value="0" leadInLength="0/1"  />
           <InterpolatingParam id="1072" interp="linr"  time="-9999999/1" value="0" leadInLength="0/1"  />
          </VectorParam>
          <VectorParam id="1073"  name="rotation">
           <InterpolatingParam id="1074" interp="linr"  time="-9999999/1" value="0" leadInLength="0/1"  />
           <InterpolatingParam id="1075" interp="linr"  time="-9999999/1" value="0" leadInLength="0/1"  />
           <InterpolatingParam id="1076" interp="linr"  time="-9999999/1" value="0" leadInLength="0/1"  />
          </VectorParam>
          <VectorParam id="1077"  name="shear">
           <InterpolatingParam id="1078" interp="linr"  time="-9999999/1" value="0" leadInLength="0/1"  />
           <InterpolatingParam id="1079" interp="linr"  time="-9999999/1" value="0" leadInLength="0/1"  />
           <InterpolatingParam id="1080" interp="linr"  time="-9999999/1" value="0" leadInLength="0/1"  />
          </VectorParam>
          <VectorParam id="1081"  name="scale">
           <InterpolatingParam id="1082" interp="linr"  time="-9999999/1" value="1" leadInLength="0/1"  />
           <InterpolatingParam id="1083" interp="linr"  time="-9999999/1" value="1" leadInLength="0/1"  />
           <InterpolatingParam id="1084" interp="linr"  time="-9999999/1" value="1" leadInLength="0/1"  />
          </VectorParam>
          <VectorParam id="1085"  name="anchor">
           <InterpolatingParam id="1086" interp="linr"  >
            <Keyframes>
            <Keyframe id="1087"  time="0/1" value="0" leadInLength="0/1"  />
            <Keyframe id="1088"  time="4924/1" value="0" leadInLength="0/1"  />
            </Keyframes>
           </InterpolatingParam>
           <InterpolatingParam id="1089" interp="linr"  >
            <Keyframes>
            <Keyframe id="1090"  time="0/1" value="0" leadInLength="0/1"  />
            <Keyframe id="1091"  time="4924/1" value="0" leadInLength="0/1"  />
            </Keyframes>
           </InterpolatingParam>
           <InterpolatingParam id="1092" interp="linr"  >
            <Keyframes>
            <Keyframe id="1093"  time="0/1" value="0" leadInLength="0/1"  />
            <Keyframe id="1094"  time="4924/1" value="0" leadInLength="0/1"  />
            </Keyframes>
           </InterpolatingParam>
          </VectorParam>
         </Transformer>
         <Parameters>
          <VectorParam id="1095"  name="sourceCrop">
           <InterpolatingParam id="1096" interp="linr"  >
            <Keyframes>
            <Keyframe id="1097"  time="0/1" value="0" leadInLength="0/1"  />
            <Keyframe id="1098"  time="4924/1" value="0" leadInLength="0/1"  />
            </Keyframes>
           </InterpolatingParam>
           <InterpolatingParam id="1099" interp="linr"  >
            <Keyframes>
            <Keyframe id="1100"  time="0/1" value="0" leadInLength="0/1"  />
            <Keyframe id="1101"  time="4924/1" value="0" leadInLength="0/1"  />
            </Keyframes>
           </InterpolatingParam>
           <InterpolatingParam id="1102" interp="linr"  >
            <Keyframes>
            <Keyframe id="1103"  time="0/1" value="0" leadInLength="0/1"  />
            <Keyframe id="1104"  time="4924/1" value="0" leadInLength="0/1"  />
            </Keyframes>
           </InterpolatingParam>
           <InterpolatingParam id="1105" interp="linr"  >
            <Keyframes>
            <Keyframe id="1106"  time="0/1" value="0" leadInLength="0/1"  />
            <Keyframe id="1107"  time="4924/1" value="0" leadInLength="0/1"  />
            </Keyframes>
           </InterpolatingParam>
          </VectorParam>
          <VectorParam id="1108"  name="geometryCrop">
           <InterpolatingParam id="1109" interp="linr"  time="-9999999/1" value="0" leadInLength="0/1"  />
           <InterpolatingParam id="1110" interp="linr"  time="-9999999/1" value="0" leadInLength="0/1"  />
           <InterpolatingParam id="1111" interp="linr"  time="-9999999/1" value="0" leadInLength="0/1"  />
           <InterpolatingParam id="1112" interp="linr"  time="-9999999/1" value="0" leadInLength="0/1"  />
          </VectorParam>
          <InterpolatingParam id="1113" interp="linr"  time="-9999999/1" value="1" leadInLength="0/1"  name="opacity"/>
          <InterpolatingParam id="1114" interp="linr"  time="0/1" value="1" leadInLength="0/1"  name="cursorOpacity"/>
          <InterpolatingParam id="1115" interp="linr"  time="0/1" value="1" leadInLength="0/1"  name="cursorScale"/>
          <InterpolatingParam id="1116" interp="linr"  name="volume">
           <Keyframes>
           <Keyframe id="1117"  time="-1/1" value="1" leadInLength="0/1"  />
           <Keyframe id="1118"  time="0/1" value="0" leadInLength="0/1"  />
           <Keyframe id="1119"  time="46313324/5123" value="0" leadInLength="0/1"  />
           <Keyframe id="1120"  time="46318447/5123" value="1" leadInLength="0/1"  />
           </Keyframes>
          </InterpolatingParam>
          <Parameter id="1121"  name="captions"/>
         </Parameters>
         <Attributes>
          <Attribute id="1122" value="" name="ident"/>
          <Attribute id="1123" value="0" name="mixToMono"/>
         </Attributes>
         <MetaData>
          <entry key="WinSubProjectDisplayName" val=""/>
         </MetaData>
         <ExtraData>
          <Entry key="ZoomPanBin">
           <ZoomPanBin id="1124"  >
            <ZoomPanKeyframes>
             <ZoomPanKeyframe id="1125" timeRangeEnd="-9999999/1" timeRangeDuration="0/1" interpolaterName="linr"  />
            </ZoomPanKeyframes>
           </ZoomPanBin>
          </Entry>
          <Entry key="CursorEffectBin">
           <CursorEffectBin id="1126"  >
            <CursorEffectKeyframes>
            </CursorEffectKeyframes>
           </CursorEffectBin>
          </Entry>
         </ExtraData>
         <GenericTrack id="1127"  >
          <Attributes>
           <Attribute id="1128" value="" name="ident"/>
           <Attribute id="1129" value="0" name="audioMuted"/>
           <Attribute id="1130" value="0" name="videoHidden"/>
          </Attributes>
          <MetaData>
           <entry key="IsLocked" val="False"/>
           <entry key="WinTrackHeight" val="0"/>
          </MetaData>
          <Medias>
           <UnifiedMedia id="1131"  >
            <AMFile id="1132" start="0" duration="4924" scalar="1/1" mediaStart="0/1" mediaDuration="4924/1" trackNumber="1" src="21" channelNumber="0,1" >
             <Parameters>
              <InterpolatingParam id="1133" interp="linr"  time="0/1" value="1" leadInLength="0/1"  name="volume"/>
              <Parameter id="1134"  name="captions"/>
             </Parameters>
             <Attributes>
              <Attribute id="1135" value="" name="ident"/>
              <Attribute id="1136" value="44100" name="sampleRate"/>
              <Attribute id="1137" value="16" name="bitDepth"/>
              <Attribute id="1138" value="1" name="gain"/>
              <Attribute id="1139" value="0" name="mixToMono"/>
             </Attributes>
            </AMFile>
            <VMFile id="1140" start="0" duration="4924" scalar="1/1" mediaStart="0/1" mediaDuration="4924/1" trackNumber="0" src="21" >
             <Transformer>
              <VectorParam id="1141"  name="translation">
               <InterpolatingParam id="1142" interp="linr"  time="-9999999/1" value="0" leadInLength="0/1"  />
               <InterpolatingParam id="1143" interp="linr"  time="-9999999/1" value="0" leadInLength="0/1"  />
               <InterpolatingParam id="1144" interp="linr"  time="-9999999/1" value="0" leadInLength="0/1"  />
              </VectorParam>
              <VectorParam id="1145"  name="rotation">
               <InterpolatingParam id="1146" interp="linr"  time="-9999999/1" value="0" leadInLength="0/1"  />
               <InterpolatingParam id="1147" interp="linr"  time="-9999999/1" value="0" leadInLength="0/1"  />
               <InterpolatingParam id="1148" interp="linr"  time="-9999999/1" value="0" leadInLength="0/1"  />
              </VectorParam>
              <VectorParam id="1149"  name="shear">
               <InterpolatingParam id="1150" interp="linr"  time="-9999999/1" value="0" leadInLength="0/1"  />
               <InterpolatingParam id="1151" interp="linr"  time="-9999999/1" value="0" leadInLength="0/1"  />
               <InterpolatingParam id="1152" interp="linr"  time="-9999999/1" value="0" leadInLength="0/1"  />
              </VectorParam>
              <VectorParam id="1153"  name="scale">
               <InterpolatingParam id="1154" interp="linr"  time="-9999999/1" value="1" leadInLength="0/1"  />
               <InterpolatingParam id="1155" interp="linr"  time="-9999999/1" value="1" leadInLength="0/1"  />
               <InterpolatingParam id="1156" interp="linr"  time="-9999999/1" value="1" leadInLength="0/1"  />
              </VectorParam>
              <VectorParam id="1157"  name="anchor">
               <InterpolatingParam id="1158" interp="linr"  time="0/1" value="0" leadInLength="0/1"  />
               <InterpolatingParam id="1159" interp="linr"  time="0/1" value="0" leadInLength="0/1"  />
               <InterpolatingParam id="1160" interp="linr"  time="0/1" value="0" leadInLength="0/1"  />
              </VectorParam>
             </Transformer>
             <Parameters>
              <VectorParam id="1161"  name="sourceCrop">
               <InterpolatingParam id="1162" interp="linr"  time="0/1" value="0" leadInLength="0/1"  />
               <InterpolatingParam id="1163" interp="linr"  time="0/1" value="0" leadInLength="0/1"  />
               <InterpolatingParam id="1164" interp="linr"  time="0/1" value="0" leadInLength="0/1"  />
               <InterpolatingParam id="1165" interp="linr"  time="0/1" value="0" leadInLength="0/1"  />
              </VectorParam>
              <VectorParam id="1166"  name="geometryCrop">
               <InterpolatingParam id="1167" interp="linr"  time="-9999999/1" value="0" leadInLength="0/1"  />
               <InterpolatingParam id="1168" interp="linr"  time="-9999999/1" value="0" leadInLength="0/1"  />
               <InterpolatingParam id="1169" interp="linr"  time="-9999999/1" value="0" leadInLength="0/1"  />
               <InterpolatingParam id="1170" interp="linr"  time="-9999999/1" value="0" leadInLength="0/1"  />
              </VectorParam>
              <InterpolatingParam id="1171" interp="linr"  time="-9999999/1" value="1" leadInLength="0/1"  name="opacity"/>
             </Parameters>
             <Attributes>
              <Attribute id="1172" value="" name="ident"/>
             </Attributes>
             <ExtraData>
              <Entry key="ZoomPanBin">
               <ZoomPanBin id="1173"  >
                <ZoomPanKeyframes>
                 <ZoomPanKeyframe id="1174" timeRangeEnd="-9999999/1" timeRangeDuration="0/1" interpolaterName="linr"  />
                </ZoomPanKeyframes>
               </ZoomPanBin>
              </Entry>
             </ExtraData>
            </VMFile>
            <MetaData>
             <entry key="WinSubProjectDisplayName" val=""/>
            </MetaData>
           </UnifiedMedia>
           <IMFile id="1175" start="4924" duration="90" scalar="1/1" mediaStart="4924/1" mediaDuration="1/1" trackNumber="0" src="21" trimStartSum="0/1" >
            <Transformer>
             <VectorParam id="1176"  name="translation">
              <InterpolatingParam id="1177" interp="linr"  time="-9999999/1" value="0" leadInLength="0/1"  />
              <InterpolatingParam id="1178" interp="linr"  time="-9999999/1" value="0" leadInLength="0/1"  />
              <InterpolatingParam id="1179" interp="linr"  time="-9999999/1" value="0" leadInLength="0/1"  />
             </VectorParam>
             <VectorParam id="1180"  name="rotation">
              <InterpolatingParam id="1181" interp="linr"  time="-9999999/1" value="0" leadInLength="0/1"  />
              <InterpolatingParam id="1182" interp="linr"  time="-9999999/1" value="0" leadInLength="0/1"  />
              <InterpolatingParam id="1183" interp="linr"  time="-9999999/1" value="0" leadInLength="0/1"  />
             </VectorParam>
             <VectorParam id="1184"  name="shear">
              <InterpolatingParam id="1185" interp="linr"  time="-9999999/1" value="0" leadInLength="0/1"  />
              <InterpolatingParam id="1186" interp="linr"  time="-9999999/1" value="0" leadInLength="0/1"  />
              <InterpolatingParam id="1187" interp="linr"  time="-9999999/1" value="0" leadInLength="0/1"  />
             </VectorParam>
             <VectorParam id="1188"  name="scale">
              <InterpolatingParam id="1189" interp="linr"  time="-9999999/1" value="1" leadInLength="0/1"  />
              <InterpolatingParam id="1190" interp="linr"  time="-9999999/1" value="1" leadInLength="0/1"  />
              <InterpolatingParam id="1191" interp="linr"  time="-9999999/1" value="1" leadInLength="0/1"  />
             </VectorParam>
             <VectorParam id="1192"  name="anchor">
              <InterpolatingParam id="1193" interp="linr"  time="0/1" value="0" leadInLength="0/1"  />
              <InterpolatingParam id="1194" interp="linr"  time="0/1" value="0" leadInLength="0/1"  />
              <InterpolatingParam id="1195" interp="linr"  time="0/1" value="0" leadInLength="0/1"  />
             </VectorParam>
            </Transformer>
            <Parameters>
             <VectorParam id="1196"  name="sourceCrop">
              <InterpolatingParam id="1197" interp="linr"  time="0/1" value="0" leadInLength="0/1"  />
              <InterpolatingParam id="1198" interp="linr"  time="0/1" value="0" leadInLength="0/1"  />
              <InterpolatingParam id="1199" interp="linr"  time="0/1" value="0" leadInLength="0/1"  />
              <InterpolatingParam id="1200" interp="linr"  time="0/1" value="0" leadInLength="0/1"  />
             </VectorParam>
             <VectorParam id="1201"  name="geometryCrop">
              <InterpolatingParam id="1202" interp="linr"  time="-9999999/1" value="0" leadInLength="0/1"  />
              <InterpolatingParam id="1203" interp="linr"  time="-9999999/1" value="0" leadInLength="0/1"  />
              <InterpolatingParam id="1204" interp="linr"  time="-9999999/1" value="0" leadInLength="0/1"  />
              <InterpolatingParam id="1205" interp="linr"  time="-9999999/1" value="0" leadInLength="0/1"  />
             </VectorParam>
             <InterpolatingParam id="1206" interp="linr"  time="-9999999/1" value="1" leadInLength="0/1"  name="opacity"/>
            </Parameters>
            <Attributes>
             <Attribute id="1207" value="" name="ident"/>
            </Attributes>
            <MetaData>
             <entry key="WinSubProjectDisplayName" val=""/>
            </MetaData>
            <ExtraData>
             <Entry key="ZoomPanBin">
              <ZoomPanBin id="1208"  >
               <ZoomPanKeyframes>
                <ZoomPanKeyframe id="1209" timeRangeEnd="-9999999/1" timeRangeDuration="0/1" interpolaterName="linr"  />
               </ZoomPanKeyframes>
              </ZoomPanBin>
             </Entry>
            </ExtraData>
           </IMFile>
           <UnifiedMedia id="1210"  >
            <AMFile id="1211" start="5014" duration="4028" scalar="1/1" mediaStart="4923/1" mediaDuration="4028/1" trackNumber="1" src="21" channelNumber="0,1" >
             <Parameters>
              <InterpolatingParam id="1212" interp="linr"  time="0/1" value="1" leadInLength="0/1"  name="volume"/>
              <Parameter id="1213"  name="captions"/>
             </Parameters>
             <Attributes>
              <Attribute id="1214" value="" name="ident"/>
              <Attribute id="1215" value="44100" name="sampleRate"/>
              <Attribute id="1216" value="16" name="bitDepth"/>
              <Attribute id="1217" value="1" name="gain"/>
              <Attribute id="1218" value="0" name="mixToMono"/>
             </Attributes>
            </AMFile>
            <VMFile id="1219" start="5014" duration="4028" scalar="1/1" mediaStart="4923/1" mediaDuration="4028/1" trackNumber="0" src="21" >
             <Transformer>
              <VectorParam id="1220"  name="translation">
               <InterpolatingParam id="1221" interp="linr"  time="-9999999/1" value="0" leadInLength="0/1"  />
               <InterpolatingParam id="1222" interp="linr"  time="-9999999/1" value="0" leadInLength="0/1"  />
               <InterpolatingParam id="1223" interp="linr"  time="-9999999/1" value="0" leadInLength="0/1"  />
              </VectorParam>
              <VectorParam id="1224"  name="rotation">
               <InterpolatingParam id="1225" interp="linr"  time="-9999999/1" value="0" leadInLength="0/1"  />
               <InterpolatingParam id="1226" interp="linr"  time="-9999999/1" value="0" leadInLength="0/1"  />
               <InterpolatingParam id="1227" interp="linr"  time="-9999999/1" value="0" leadInLength="0/1"  />
              </VectorParam>
              <VectorParam id="1228"  name="shear">
               <InterpolatingParam id="1229" interp="linr"  time="-9999999/1" value="0" leadInLength="0/1"  />
               <InterpolatingParam id="1230" interp="linr"  time="-9999999/1" value="0" leadInLength="0/1"  />
               <InterpolatingParam id="1231" interp="linr"  time="-9999999/1" value="0" leadInLength="0/1"  />
              </VectorParam>
              <VectorParam id="1232"  name="scale">
               <InterpolatingParam id="1233" interp="linr"  time="-9999999/1" value="1" leadInLength="0/1"  />
               <InterpolatingParam id="1234" interp="linr"  time="-9999999/1" value="1" leadInLength="0/1"  />
               <InterpolatingParam id="1235" interp="linr"  time="-9999999/1" value="1" leadInLength="0/1"  />
              </VectorParam>
              <VectorParam id="1236"  name="anchor">
               <InterpolatingParam id="1237" interp="linr"  time="0/1" value="0" leadInLength="0/1"  />
               <InterpolatingParam id="1238" interp="linr"  time="0/1" value="0" leadInLength="0/1"  />
               <InterpolatingParam id="1239" interp="linr"  time="0/1" value="0" leadInLength="0/1"  />
              </VectorParam>
             </Transformer>
             <Parameters>
              <VectorParam id="1240"  name="sourceCrop">
               <InterpolatingParam id="1241" interp="linr"  time="0/1" value="0" leadInLength="0/1"  />
               <InterpolatingParam id="1242" interp="linr"  time="0/1" value="0" leadInLength="0/1"  />
               <InterpolatingParam id="1243" interp="linr"  time="0/1" value="0" leadInLength="0/1"  />
               <InterpolatingParam id="1244" interp="linr"  time="0/1" value="0" leadInLength="0/1"  />
              </VectorParam>
              <VectorParam id="1245"  name="geometryCrop">
               <InterpolatingParam id="1246" interp="linr"  time="-9999999/1" value="0" leadInLength="0/1"  />
               <InterpolatingParam id="1247" interp="linr"  time="-9999999/1" value="0" leadInLength="0/1"  />
               <InterpolatingParam id="1248" interp="linr"  time="-9999999/1" value="0" leadInLength="0/1"  />
               <InterpolatingParam id="1249" interp="linr"  time="-9999999/1" value="0" leadInLength="0/1"  />
              </VectorParam>
              <InterpolatingParam id="1250" interp="linr"  time="-9999999/1" value="1" leadInLength="0/1"  name="opacity"/>
             </Parameters>
             <Attributes>
              <Attribute id="1251" value="" name="ident"/>
             </Attributes>
             <ExtraData>
              <Entry key="ZoomPanBin">
               <ZoomPanBin id="1252"  >
                <ZoomPanKeyframes>
                 <ZoomPanKeyframe id="1253" timeRangeEnd="-9999999/1" timeRangeDuration="0/1" interpolaterName="linr"  />
                </ZoomPanKeyframes>
               </ZoomPanBin>
              </Entry>
             </ExtraData>
            </VMFile>
            <MetaData>
             <entry key="WinSubProjectDisplayName" val=""/>
            </MetaData>
           </UnifiedMedia>
          </Medias>
         </GenericTrack>
        </StitchedMedia>
        <StitchedMedia id="1254" start="4300" duration="79" scalar="99853590421/53636423445" mediaStart="458344310375/97228423" mediaDuration="53636423445/1263969499" minMediaStart="0/1" >
         <Transformer>
          <VectorParam id="1255"  name="translation">
           <InterpolatingParam id="1256" interp="linr"  time="-9999999/1" value="0" leadInLength="0/1"  />
           <InterpolatingParam id="1257" interp="linr"  time="-9999999/1" value="0" leadInLength="0/1"  />
           <InterpolatingParam id="1258" interp="linr"  time="-9999999/1" value="0" leadInLength="0/1"  />
          </VectorParam>
          <VectorParam id="1259"  name="rotation">
           <InterpolatingParam id="1260" interp="linr"  time="-9999999/1" value="0" leadInLength="0/1"  />
           <InterpolatingParam id="1261" interp="linr"  time="-9999999/1" value="0" leadInLength="0/1"  />
           <InterpolatingParam id="1262" interp="linr"  time="-9999999/1" value="0" leadInLength="0/1"  />
          </VectorParam>
          <VectorParam id="1263"  name="shear">
           <InterpolatingParam id="1264" interp="linr"  time="-9999999/1" value="0" leadInLength="0/1"  />
           <InterpolatingParam id="1265" interp="linr"  time="-9999999/1" value="0" leadInLength="0/1"  />
           <InterpolatingParam id="1266" interp="linr"  time="-9999999/1" value="0" leadInLength="0/1"  />
          </VectorParam>
          <VectorParam id="1267"  name="scale">
           <InterpolatingParam id="1268" interp="linr"  time="-9999999/1" value="1" leadInLength="0/1"  />
           <InterpolatingParam id="1269" interp="linr"  time="-9999999/1" value="1" leadInLength="0/1"  />
           <InterpolatingParam id="1270" interp="linr"  time="-9999999/1" value="1" leadInLength="0/1"  />
          </VectorParam>
          <VectorParam id="1271"  name="anchor">
           <InterpolatingParam id="1272" interp="linr"  >
            <Keyframes>
            <Keyframe id="1273"  time="0/1" value="0" leadInLength="0/1"  />
            <Keyframe id="1274"  time="4924/1" value="0" leadInLength="0/1"  />
            </Keyframes>
           </InterpolatingParam>
           <InterpolatingParam id="1275" interp="linr"  >
            <Keyframes>
            <Keyframe id="1276"  time="0/1" value="0" leadInLength="0/1"  />
            <Keyframe id="1277"  time="4924/1" value="0" leadInLength="0/1"  />
            </Keyframes>
           </InterpolatingParam>
           <InterpolatingParam id="1278" interp="linr"  >
            <Keyframes>
            <Keyframe id="1279"  time="0/1" value="0" leadInLength="0/1"  />
            <Keyframe id="1280"  time="4924/1" value="0" leadInLength="0/1"  />
            </Keyframes>
           </InterpolatingParam>
          </VectorParam>
         </Transformer>
         <Parameters>
          <VectorParam id="1281"  name="sourceCrop">
           <InterpolatingParam id="1282" interp="linr"  >
            <Keyframes>
            <Keyframe id="1283"  time="0/1" value="0" leadInLength="0/1"  />
            <Keyframe id="1284"  time="4924/1" value="0" leadInLength="0/1"  />
            </Keyframes>
           </InterpolatingParam>
           <InterpolatingParam id="1285" interp="linr"  >
            <Keyframes>
            <Keyframe id="1286"  time="0/1" value="0" leadInLength="0/1"  />
            <Keyframe id="1287"  time="4924/1" value="0" leadInLength="0/1"  />
            </Keyframes>
           </InterpolatingParam>
           <InterpolatingParam id="1288" interp="linr"  >
            <Keyframes>
            <Keyframe id="1289"  time="0/1" value="0" leadInLength="0/1"  />
            <Keyframe id="1290"  time="4924/1" value="0" leadInLength="0/1"  />
            </Keyframes>
           </InterpolatingParam>
           <InterpolatingParam id="1291" interp="linr"  >
            <Keyframes>
            <Keyframe id="1292"  time="0/1" value="0" leadInLength="0/1"  />
            <Keyframe id="1293"  time="4924/1" value="0" leadInLength="0/1"  />
            </Keyframes>
           </InterpolatingParam>
          </VectorParam>
          <VectorParam id="1294"  name="geometryCrop">
           <InterpolatingParam id="1295" interp="linr"  time="-9999999/1" value="0" leadInLength="0/1"  />
           <InterpolatingParam id="1296" interp="linr"  time="-9999999/1" value="0" leadInLength="0/1"  />
           <InterpolatingParam id="1297" interp="linr"  time="-9999999/1" value="0" leadInLength="0/1"  />
           <InterpolatingParam id="1298" interp="linr"  time="-9999999/1" value="0" leadInLength="0/1"  />
          </VectorParam>
          <InterpolatingParam id="1299" interp="linr"  time="-9999999/1" value="1" leadInLength="0/1"  name="opacity"/>
          <InterpolatingParam id="1300" interp="linr"  time="0/1" value="1" leadInLength="0/1"  name="cursorOpacity"/>
          <InterpolatingParam id="1301" interp="linr"  time="0/1" value="1" leadInLength="0/1"  name="cursorScale"/>
          <InterpolatingParam id="1302" interp="linr"  name="volume">
           <Keyframes>
           <Keyframe id="1303"  time="-1/1" value="1" leadInLength="0/1"  />
           <Keyframe id="1304"  time="0/1" value="0" leadInLength="0/1"  />
           <Keyframe id="1305"  time="46313324/5123" value="0" leadInLength="0/1"  />
           <Keyframe id="1306"  time="46318447/5123" value="1" leadInLength="0/1"  />
           </Keyframes>
          </InterpolatingParam>
          <Parameter id="1307"  name="captions"/>
         </Parameters>
         <Attributes>
          <Attribute id="1308" value="" name="ident"/>
          <Attribute id="1309" value="0" name="mixToMono"/>
         </Attributes>
         <MetaData>
          <entry key="WinSubProjectDisplayName" val=""/>
         </MetaData>
         <ExtraData>
          <Entry key="ZoomPanBin">
           <ZoomPanBin id="1310"  >
            <ZoomPanKeyframes>
             <ZoomPanKeyframe id="1311" timeRangeEnd="-9999999/1" timeRangeDuration="0/1" interpolaterName="linr"  />
            </ZoomPanKeyframes>
           </ZoomPanBin>
          </Entry>
          <Entry key="CursorEffectBin">
           <CursorEffectBin id="1312"  >
            <CursorEffectKeyframes>
            </CursorEffectKeyframes>
           </CursorEffectBin>
          </Entry>
         </ExtraData>
         <GenericTrack id="1313"  >
          <Attributes>
           <Attribute id="1314" value="" name="ident"/>
           <Attribute id="1315" value="0" name="audioMuted"/>
           <Attribute id="1316" value="0" name="videoHidden"/>
          </Attributes>
          <MetaData>
           <entry key="IsLocked" val="False"/>
           <entry key="WinTrackHeight" val="0"/>
          </MetaData>
          <Medias>
           <UnifiedMedia id="1317"  >
            <AMFile id="1318" start="0" duration="4924" scalar="1/1" mediaStart="0/1" mediaDuration="4924/1" trackNumber="1" src="21" channelNumber="0,1" >
             <Parameters>
              <InterpolatingParam id="1319" interp="linr"  time="0/1" value="1" leadInLength="0/1"  name="volume"/>
              <Parameter id="1320"  name="captions"/>
             </Parameters>
             <Attributes>
              <Attribute id="1321" value="" name="ident"/>
              <Attribute id="1322" value="44100" name="sampleRate"/>
              <Attribute id="1323" value="16" name="bitDepth"/>
              <Attribute id="1324" value="1" name="gain"/>
              <Attribute id="1325" value="0" name="mixToMono"/>
             </Attributes>
            </AMFile>
            <VMFile id="1326" start="0" duration="4924" scalar="1/1" mediaStart="0/1" mediaDuration="4924/1" trackNumber="0" src="21" >
             <Transformer>
              <VectorParam id="1327"  name="translation">
               <InterpolatingParam id="1328" interp="linr"  time="-9999999/1" value="0" leadInLength="0/1"  />
               <InterpolatingParam id="1329" interp="linr"  time="-9999999/1" value="0" leadInLength="0/1"  />
               <InterpolatingParam id="1330" interp="linr"  time="-9999999/1" value="0" leadInLength="0/1"  />
              </VectorParam>
              <VectorParam id="1331"  name="rotation">
               <InterpolatingParam id="1332" interp="linr"  time="-9999999/1" value="0" leadInLength="0/1"  />
               <InterpolatingParam id="1333" interp="linr"  time="-9999999/1" value="0" leadInLength="0/1"  />
               <InterpolatingParam id="1334" interp="linr"  time="-9999999/1" value="0" leadInLength="0/1"  />
              </VectorParam>
              <VectorParam id="1335"  name="shear">
               <InterpolatingParam id="1336" interp="linr"  time="-9999999/1" value="0" leadInLength="0/1"  />
               <InterpolatingParam id="1337" interp="linr"  time="-9999999/1" value="0" leadInLength="0/1"  />
               <InterpolatingParam id="1338" interp="linr"  time="-9999999/1" value="0" leadInLength="0/1"  />
              </VectorParam>
              <VectorParam id="1339"  name="scale">
               <InterpolatingParam id="1340" interp="linr"  time="-9999999/1" value="1" leadInLength="0/1"  />
               <InterpolatingParam id="1341" interp="linr"  time="-9999999/1" value="1" leadInLength="0/1"  />
               <InterpolatingParam id="1342" interp="linr"  time="-9999999/1" value="1" leadInLength="0/1"  />
              </VectorParam>
              <VectorParam id="1343"  name="anchor">
               <InterpolatingParam id="1344" interp="linr"  time="0/1" value="0" leadInLength="0/1"  />
               <InterpolatingParam id="1345" interp="linr"  time="0/1" value="0" leadInLength="0/1"  />
               <InterpolatingParam id="1346" interp="linr"  time="0/1" value="0" leadInLength="0/1"  />
              </VectorParam>
             </Transformer>
             <Parameters>
              <VectorParam id="1347"  name="sourceCrop">
               <InterpolatingParam id="1348" interp="linr"  time="0/1" value="0" leadInLength="0/1"  />
               <InterpolatingParam id="1349" interp="linr"  time="0/1" value="0" leadInLength="0/1"  />
               <InterpolatingParam id="1350" interp="linr"  time="0/1" value="0" leadInLength="0/1"  />
               <InterpolatingParam id="1351" interp="linr"  time="0/1" value="0" leadInLength="0/1"  />
              </VectorParam>
              <VectorParam id="1352"  name="geometryCrop">
               <InterpolatingParam id="1353" interp="linr"  time="-9999999/1" value="0" leadInLength="0/1"  />
               <InterpolatingParam id="1354" interp="linr"  time="-9999999/1" value="0" leadInLength="0/1"  />
               <InterpolatingParam id="1355" interp="linr"  time="-9999999/1" value="0" leadInLength="0/1"  />
               <InterpolatingParam id="1356" interp="linr"  time="-9999999/1" value="0" leadInLength="0/1"  />
              </VectorParam>
              <InterpolatingParam id="1357" interp="linr"  time="-9999999/1" value="1" leadInLength="0/1"  name="opacity"/>
             </Parameters>
             <Attributes>
              <Attribute id="1358" value="" name="ident"/>
             </Attributes>
             <ExtraData>
              <Entry key="ZoomPanBin">
               <ZoomPanBin id="1359"  >
                <ZoomPanKeyframes>
                 <ZoomPanKeyframe id="1360" timeRangeEnd="-9999999/1" timeRangeDuration="0/1" interpolaterName="linr"  />
                </ZoomPanKeyframes>
               </ZoomPanBin>
              </Entry>
             </ExtraData>
            </VMFile>
            <MetaData>
             <entry key="WinSubProjectDisplayName" val=""/>
            </MetaData>
           </UnifiedMedia>
           <IMFile id="1361" start="4924" duration="90" scalar="1/1" mediaStart="4924/1" mediaDuration="1/1" trackNumber="0" src="21" trimStartSum="0/1" >
            <Transformer>
             <VectorParam id="1362"  name="translation">
              <InterpolatingParam id="1363" interp="linr"  time="-9999999/1" value="0" leadInLength="0/1"  />
              <InterpolatingParam id="1364" interp="linr"  time="-9999999/1" value="0" leadInLength="0/1"  />
              <InterpolatingParam id="1365" interp="linr"  time="-9999999/1" value="0" leadInLength="0/1"  />
             </VectorParam>
             <VectorParam id="1366"  name="rotation">
              <InterpolatingParam id="1367" interp="linr"  time="-9999999/1" value="0" leadInLength="0/1"  />
              <InterpolatingParam id="1368" interp="linr"  time="-9999999/1" value="0" leadInLength="0/1"  />
              <InterpolatingParam id="1369" interp="linr"  time="-9999999/1" value="0" leadInLength="0/1"  />
             </VectorParam>
             <VectorParam id="1370"  name="shear">
              <InterpolatingParam id="1371" interp="linr"  time="-9999999/1" value="0" leadInLength="0/1"  />
              <InterpolatingParam id="1372" interp="linr"  time="-9999999/1" value="0" leadInLength="0/1"  />
              <InterpolatingParam id="1373" interp="linr"  time="-9999999/1" value="0" leadInLength="0/1"  />
             </VectorParam>
             <VectorParam id="1374"  name="scale">
              <InterpolatingParam id="1375" interp="linr"  time="-9999999/1" value="1" leadInLength="0/1"  />
              <InterpolatingParam id="1376" interp="linr"  time="-9999999/1" value="1" leadInLength="0/1"  />
              <InterpolatingParam id="1377" interp="linr"  time="-9999999/1" value="1" leadInLength="0/1"  />
             </VectorParam>
             <VectorParam id="1378"  name="anchor">
              <InterpolatingParam id="1379" interp="linr"  time="0/1" value="0" leadInLength="0/1"  />
              <InterpolatingParam id="1380" interp="linr"  time="0/1" value="0" leadInLength="0/1"  />
              <InterpolatingParam id="1381" interp="linr"  time="0/1" value="0" leadInLength="0/1"  />
             </VectorParam>
            </Transformer>
            <Parameters>
             <VectorParam id="1382"  name="sourceCrop">
              <InterpolatingParam id="1383" interp="linr"  time="0/1" value="0" leadInLength="0/1"  />
              <InterpolatingParam id="1384" interp="linr"  time="0/1" value="0" leadInLength="0/1"  />
              <InterpolatingParam id="1385" interp="linr"  time="0/1" value="0" leadInLength="0/1"  />
              <InterpolatingParam id="1386" interp="linr"  time="0/1" value="0" leadInLength="0/1"  />
             </VectorParam>
             <VectorParam id="1387"  name="geometryCrop">
              <InterpolatingParam id="1388" interp="linr"  time="-9999999/1" value="0" leadInLength="0/1"  />
              <InterpolatingParam id="1389" interp="linr"  time="-9999999/1" value="0" leadInLength="0/1"  />
              <InterpolatingParam id="1390" interp="linr"  time="-9999999/1" value="0" leadInLength="0/1"  />
              <InterpolatingParam id="1391" interp="linr"  time="-9999999/1" value="0" leadInLength="0/1"  />
             </VectorParam>
             <InterpolatingParam id="1392" interp="linr"  time="-9999999/1" value="1" leadInLength="0/1"  name="opacity"/>
            </Parameters>
            <Attributes>
             <Attribute id="1393" value="" name="ident"/>
            </Attributes>
            <MetaData>
             <entry key="WinSubProjectDisplayName" val=""/>
            </MetaData>
            <ExtraData>
             <Entry key="ZoomPanBin">
              <ZoomPanBin id="1394"  >
               <ZoomPanKeyframes>
                <ZoomPanKeyframe id="1395" timeRangeEnd="-9999999/1" timeRangeDuration="0/1" interpolaterName="linr"  />
               </ZoomPanKeyframes>
              </ZoomPanBin>
             </Entry>
            </ExtraData>
           </IMFile>
           <UnifiedMedia id="1396"  >
            <AMFile id="1397" start="5014" duration="4028" scalar="1/1" mediaStart="4923/1" mediaDuration="4028/1" trackNumber="1" src="21" channelNumber="0,1" >
             <Parameters>
              <InterpolatingParam id="1398" interp="linr"  time="0/1" value="1" leadInLength="0/1"  name="volume"/>
              <Parameter id="1399"  name="captions"/>
             </Parameters>
             <Attributes>
              <Attribute id="1400" value="" name="ident"/>
              <Attribute id="1401" value="44100" name="sampleRate"/>
              <Attribute id="1402" value="16" name="bitDepth"/>
              <Attribute id="1403" value="1" name="gain"/>
              <Attribute id="1404" value="0" name="mixToMono"/>
             </Attributes>
            </AMFile>
            <VMFile id="1405" start="5014" duration="4028" scalar="1/1" mediaStart="4923/1" mediaDuration="4028/1" trackNumber="0" src="21" >
             <Transformer>
              <VectorParam id="1406"  name="translation">
               <InterpolatingParam id="1407" interp="linr"  time="-9999999/1" value="0" leadInLength="0/1"  />
               <InterpolatingParam id="1408" interp="linr"  time="-9999999/1" value="0" leadInLength="0/1"  />
               <InterpolatingParam id="1409" interp="linr"  time="-9999999/1" value="0" leadInLength="0/1"  />
              </VectorParam>
              <VectorParam id="1410"  name="rotation">
               <InterpolatingParam id="1411" interp="linr"  time="-9999999/1" value="0" leadInLength="0/1"  />
               <InterpolatingParam id="1412" interp="linr"  time="-9999999/1" value="0" leadInLength="0/1"  />
               <InterpolatingParam id="1413" interp="linr"  time="-9999999/1" value="0" leadInLength="0/1"  />
              </VectorParam>
              <VectorParam id="1414"  name="shear">
               <InterpolatingParam id="1415" interp="linr"  time="-9999999/1" value="0" leadInLength="0/1"  />
               <InterpolatingParam id="1416" interp="linr"  time="-9999999/1" value="0" leadInLength="0/1"  />
               <InterpolatingParam id="1417" interp="linr"  time="-9999999/1" value="0" leadInLength="0/1"  />
              </VectorParam>
              <VectorParam id="1418"  name="scale">
               <InterpolatingParam id="1419" interp="linr"  time="-9999999/1" value="1" leadInLength="0/1"  />
               <InterpolatingParam id="1420" interp="linr"  time="-9999999/1" value="1" leadInLength="0/1"  />
               <InterpolatingParam id="1421" interp="linr"  time="-9999999/1" value="1" leadInLength="0/1"  />
              </VectorParam>
              <VectorParam id="1422"  name="anchor">
               <InterpolatingParam id="1423" interp="linr"  time="0/1" value="0" leadInLength="0/1"  />
               <InterpolatingParam id="1424" interp="linr"  time="0/1" value="0" leadInLength="0/1"  />
               <InterpolatingParam id="1425" interp="linr"  time="0/1" value="0" leadInLength="0/1"  />
              </VectorParam>
             </Transformer>
             <Parameters>
              <VectorParam id="1426"  name="sourceCrop">
               <InterpolatingParam id="1427" interp="linr"  time="0/1" value="0" leadInLength="0/1"  />
               <InterpolatingParam id="1428" interp="linr"  time="0/1" value="0" leadInLength="0/1"  />
               <InterpolatingParam id="1429" interp="linr"  time="0/1" value="0" leadInLength="0/1"  />
               <InterpolatingParam id="1430" interp="linr"  time="0/1" value="0" leadInLength="0/1"  />
              </VectorParam>
              <VectorParam id="1431"  name="geometryCrop">
               <InterpolatingParam id="1432" interp="linr"  time="-9999999/1" value="0" leadInLength="0/1"  />
               <InterpolatingParam id="1433" interp="linr"  time="-9999999/1" value="0" leadInLength="0/1"  />
               <InterpolatingParam id="1434" interp="linr"  time="-9999999/1" value="0" leadInLength="0/1"  />
               <InterpolatingParam id="1435" interp="linr"  time="-9999999/1" value="0" leadInLength="0/1"  />
              </VectorParam>
              <InterpolatingParam id="1436" interp="linr"  time="-9999999/1" value="1" leadInLength="0/1"  name="opacity"/>
             </Parameters>
             <Attributes>
              <Attribute id="1437" value="" name="ident"/>
             </Attributes>
             <ExtraData>
              <Entry key="ZoomPanBin">
               <ZoomPanBin id="1438"  >
                <ZoomPanKeyframes>
                 <ZoomPanKeyframe id="1439" timeRangeEnd="-9999999/1" timeRangeDuration="0/1" interpolaterName="linr"  />
                </ZoomPanKeyframes>
               </ZoomPanBin>
              </Entry>
             </ExtraData>
            </VMFile>
            <MetaData>
             <entry key="WinSubProjectDisplayName" val=""/>
            </MetaData>
           </UnifiedMedia>
          </Medias>
         </GenericTrack>
        </StitchedMedia>
        <StitchedMedia id="1440" start="4379" duration="389" scalar="491684135111/300689040525" mediaStart="6038117996960/1263969499" mediaDuration="300689040525/1263969499" minMediaStart="0/1" >
         <Transformer>
          <VectorParam id="1441"  name="translation">
           <InterpolatingParam id="1442" interp="linr"  time="-9999999/1" value="0" leadInLength="0/1"  />
           <InterpolatingParam id="1443" interp="linr"  time="-9999999/1" value="0" leadInLength="0/1"  />
           <InterpolatingParam id="1444" interp="linr"  time="-9999999/1" value="0" leadInLength="0/1"  />
          </VectorParam>
          <VectorParam id="1445"  name="rotation">
           <InterpolatingParam id="1446" interp="linr"  time="-9999999/1" value="0" leadInLength="0/1"  />
           <InterpolatingParam id="1447" interp="linr"  time="-9999999/1" value="0" leadInLength="0/1"  />
           <InterpolatingParam id="1448" interp="linr"  time="-9999999/1" value="0" leadInLength="0/1"  />
          </VectorParam>
          <VectorParam id="1449"  name="shear">
           <InterpolatingParam id="1450" interp="linr"  time="-9999999/1" value="0" leadInLength="0/1"  />
           <InterpolatingParam id="1451" interp="linr"  time="-9999999/1" value="0" leadInLength="0/1"  />
           <InterpolatingParam id="1452" interp="linr"  time="-9999999/1" value="0" leadInLength="0/1"  />
          </VectorParam>
          <VectorParam id="1453"  name="scale">
           <InterpolatingParam id="1454" interp="linr"  time="-9999999/1" value="1" leadInLength="0/1"  />
           <InterpolatingParam id="1455" interp="linr"  time="-9999999/1" value="1" leadInLength="0/1"  />
           <InterpolatingParam id="1456" interp="linr"  time="-9999999/1" value="1" leadInLength="0/1"  />
          </VectorParam>
          <VectorParam id="1457"  name="anchor">
           <InterpolatingParam id="1458" interp="linr"  >
            <Keyframes>
            <Keyframe id="1459"  time="0/1" value="0" leadInLength="0/1"  />
            <Keyframe id="1460"  time="4924/1" value="0" leadInLength="0/1"  />
            </Keyframes>
           </InterpolatingParam>
           <InterpolatingParam id="1461" interp="linr"  >
            <Keyframes>
            <Keyframe id="1462"  time="0/1" value="0" leadInLength="0/1"  />
            <Keyframe id="1463"  time="4924/1" value="0" leadInLength="0/1"  />
            </Keyframes>
           </InterpolatingParam>
           <InterpolatingParam id="1464" interp="linr"  >
            <Keyframes>
            <Keyframe id="1465"  time="0/1" value="0" leadInLength="0/1"  />
            <Keyframe id="1466"  time="4924/1" value="0" leadInLength="0/1"  />
            </Keyframes>
           </InterpolatingParam>
          </VectorParam>
         </Transformer>
         <Parameters>
          <VectorParam id="1467"  name="sourceCrop">
           <InterpolatingParam id="1468" interp="linr"  >
            <Keyframes>
            <Keyframe id="1469"  time="0/1" value="0" leadInLength="0/1"  />
            <Keyframe id="1470"  time="4924/1" value="0" leadInLength="0/1"  />
            </Keyframes>
           </InterpolatingParam>
           <InterpolatingParam id="1471" interp="linr"  >
            <Keyframes>
            <Keyframe id="1472"  time="0/1" value="0" leadInLength="0/1"  />
            <Keyframe id="1473"  time="4924/1" value="0" leadInLength="0/1"  />
            </Keyframes>
           </InterpolatingParam>
           <InterpolatingParam id="1474" interp="linr"  >
            <Keyframes>
            <Keyframe id="1475"  time="0/1" value="0" leadInLength="0/1"  />
            <Keyframe id="1476"  time="4924/1" value="0" leadInLength="0/1"  />
            </Keyframes>
           </InterpolatingParam>
           <InterpolatingParam id="1477" interp="linr"  >
            <Keyframes>
            <Keyframe id="1478"  time="0/1" value="0" leadInLength="0/1"  />
            <Keyframe id="1479"  time="4924/1" value="0" leadInLength="0/1"  />
            </Keyframes>
           </InterpolatingParam>
          </VectorParam>
          <VectorParam id="1480"  name="geometryCrop">
           <InterpolatingParam id="1481" interp="linr"  time="-9999999/1" value="0" leadInLength="0/1"  />
           <InterpolatingParam id="1482" interp="linr"  time="-9999999/1" value="0" leadInLength="0/1"  />
           <InterpolatingParam id="1483" interp="linr"  time="-9999999/1" value="0" leadInLength="0/1"  />
           <InterpolatingParam id="1484" interp="linr"  time="-9999999/1" value="0" leadInLength="0/1"  />
          </VectorParam>
          <InterpolatingParam id="1485" interp="linr"  time="-9999999/1" value="1" leadInLength="0/1"  name="opacity"/>
          <InterpolatingParam id="1486" interp="linr"  time="0/1" value="1" leadInLength="0/1"  name="cursorOpacity"/>
          <InterpolatingParam id="1487" interp="linr"  time="0/1" value="1" leadInLength="0/1"  name="cursorScale"/>
          <InterpolatingParam id="1488" interp="linr"  name="volume">
           <Keyframes>
           <Keyframe id="1489"  time="-1/1" value="1" leadInLength="0/1"  />
           <Keyframe id="1490"  time="0/1" value="0" leadInLength="0/1"  />
           <Keyframe id="1491"  time="46313324/5123" value="0" leadInLength="0/1"  />
           <Keyframe id="1492"  time="46318447/5123" value="1" leadInLength="0/1"  />
           </Keyframes>
          </InterpolatingParam>
          <Parameter id="1493"  name="captions"/>
         </Parameters>
         <Attributes>
          <Attribute id="1494" value="" name="ident"/>
          <Attribute id="1495" value="0" name="mixToMono"/>
         </Attributes>
         <MetaData>
          <entry key="WinSubProjectDisplayName" val=""/>
         </MetaData>
         <ExtraData>
          <Entry key="ZoomPanBin">
           <ZoomPanBin id="1496"  >
            <ZoomPanKeyframes>
             <ZoomPanKeyframe id="1497" timeRangeEnd="-9999999/1" timeRangeDuration="0/1" interpolaterName="linr"  />
            </ZoomPanKeyframes>
           </ZoomPanBin>
          </Entry>
          <Entry key="CursorEffectBin">
           <CursorEffectBin id="1498"  >
            <CursorEffectKeyframes>
            </CursorEffectKeyframes>
           </CursorEffectBin>
          </Entry>
         </ExtraData>
         <GenericTrack id="1499"  >
          <Attributes>
           <Attribute id="1500" value="" name="ident"/>
           <Attribute id="1501" value="0" name="audioMuted"/>
           <Attribute id="1502" value="0" name="videoHidden"/>
          </Attributes>
          <MetaData>
           <entry key="IsLocked" val="False"/>
           <entry key="WinTrackHeight" val="0"/>
          </MetaData>
          <Medias>
           <UnifiedMedia id="1503"  >
            <AMFile id="1504" start="0" duration="4924" scalar="1/1" mediaStart="0/1" mediaDuration="4924/1" trackNumber="1" src="21" channelNumber="0,1" >
             <Parameters>
              <InterpolatingParam id="1505" interp="linr"  time="0/1" value="1" leadInLength="0/1"  name="volume"/>
              <Parameter id="1506"  name="captions"/>
             </Parameters>
             <Attributes>
              <Attribute id="1507" value="" name="ident"/>
              <Attribute id="1508" value="44100" name="sampleRate"/>
              <Attribute id="1509" value="16" name="bitDepth"/>
              <Attribute id="1510" value="1" name="gain"/>
              <Attribute id="1511" value="0" name="mixToMono"/>
             </Attributes>
            </AMFile>
            <VMFile id="1512" start="0" duration="4924" scalar="1/1" mediaStart="0/1" mediaDuration="4924/1" trackNumber="0" src="21" >
             <Transformer>
              <VectorParam id="1513"  name="translation">
               <InterpolatingParam id="1514" interp="linr"  time="-9999999/1" value="0" leadInLength="0/1"  />
               <InterpolatingParam id="1515" interp="linr"  time="-9999999/1" value="0" leadInLength="0/1"  />
               <InterpolatingParam id="1516" interp="linr"  time="-9999999/1" value="0" leadInLength="0/1"  />
              </VectorParam>
              <VectorParam id="1517"  name="rotation">
               <InterpolatingParam id="1518" interp="linr"  time="-9999999/1" value="0" leadInLength="0/1"  />
               <InterpolatingParam id="1519" interp="linr"  time="-9999999/1" value="0" leadInLength="0/1"  />
               <InterpolatingParam id="1520" interp="linr"  time="-9999999/1" value="0" leadInLength="0/1"  />
              </VectorParam>
              <VectorParam id="1521"  name="shear">
               <InterpolatingParam id="1522" interp="linr"  time="-9999999/1" value="0" leadInLength="0/1"  />
               <InterpolatingParam id="1523" interp="linr"  time="-9999999/1" value="0" leadInLength="0/1"  />
               <InterpolatingParam id="1524" interp="linr"  time="-9999999/1" value="0" leadInLength="0/1"  />
              </VectorParam>
              <VectorParam id="1525"  name="scale">
               <InterpolatingParam id="1526" interp="linr"  time="-9999999/1" value="1" leadInLength="0/1"  />
               <InterpolatingParam id="1527" interp="linr"  time="-9999999/1" value="1" leadInLength="0/1"  />
               <InterpolatingParam id="1528" interp="linr"  time="-9999999/1" value="1" leadInLength="0/1"  />
              </VectorParam>
              <VectorParam id="1529"  name="anchor">
               <InterpolatingParam id="1530" interp="linr"  time="0/1" value="0" leadInLength="0/1"  />
               <InterpolatingParam id="1531" interp="linr"  time="0/1" value="0" leadInLength="0/1"  />
               <InterpolatingParam id="1532" interp="linr"  time="0/1" value="0" leadInLength="0/1"  />
              </VectorParam>
             </Transformer>
             <Parameters>
              <VectorParam id="1533"  name="sourceCrop">
               <InterpolatingParam id="1534" interp="linr"  time="0/1" value="0" leadInLength="0/1"  />
               <InterpolatingParam id="1535" interp="linr"  time="0/1" value="0" leadInLength="0/1"  />
               <InterpolatingParam id="1536" interp="linr"  time="0/1" value="0" leadInLength="0/1"  />
               <InterpolatingParam id="1537" interp="linr"  time="0/1" value="0" leadInLength="0/1"  />
              </VectorParam>
              <VectorParam id="1538"  name="geometryCrop">
               <InterpolatingParam id="1539" interp="linr"  time="-9999999/1" value="0" leadInLength="0/1"  />
               <InterpolatingParam id="1540" interp="linr"  time="-9999999/1" value="0" leadInLength="0/1"  />
               <InterpolatingParam id="1541" interp="linr"  time="-9999999/1" value="0" leadInLength="0/1"  />
               <InterpolatingParam id="1542" interp="linr"  time="-9999999/1" value="0" leadInLength="0/1"  />
              </VectorParam>
              <InterpolatingParam id="1543" interp="linr"  time="-9999999/1" value="1" leadInLength="0/1"  name="opacity"/>
             </Parameters>
             <Attributes>
              <Attribute id="1544" value="" name="ident"/>
             </Attributes>
             <ExtraData>
              <Entry key="ZoomPanBin">
               <ZoomPanBin id="1545"  >
                <ZoomPanKeyframes>
                 <ZoomPanKeyframe id="1546" timeRangeEnd="-9999999/1" timeRangeDuration="0/1" interpolaterName="linr"  />
                </ZoomPanKeyframes>
               </ZoomPanBin>
              </Entry>
             </ExtraData>
            </VMFile>
            <MetaData>
             <entry key="WinSubProjectDisplayName" val=""/>
            </MetaData>
           </UnifiedMedia>
           <IMFile id="1547" start="4924" duration="90" scalar="1/1" mediaStart="4924/1" mediaDuration="1/1" trackNumber="0" src="21" trimStartSum="0/1" >
            <Transformer>
             <VectorParam id="1548"  name="translation">
              <InterpolatingParam id="1549" interp="linr"  time="-9999999/1" value="0" leadInLength="0/1"  />
              <InterpolatingParam id="1550" interp="linr"  time="-9999999/1" value="0" leadInLength="0/1"  />
              <InterpolatingParam id="1551" interp="linr"  time="-9999999/1" value="0" leadInLength="0/1"  />
             </VectorParam>
             <VectorParam id="1552"  name="rotation">
              <InterpolatingParam id="1553" interp="linr"  time="-9999999/1" value="0" leadInLength="0/1"  />
              <InterpolatingParam id="1554" interp="linr"  time="-9999999/1" value="0" leadInLength="0/1"  />
              <InterpolatingParam id="1555" interp="linr"  time="-9999999/1" value="0" leadInLength="0/1"  />
             </VectorParam>
             <VectorParam id="1556"  name="shear">
              <InterpolatingParam id="1557" interp="linr"  time="-9999999/1" value="0" leadInLength="0/1"  />
              <InterpolatingParam id="1558" interp="linr"  time="-9999999/1" value="0" leadInLength="0/1"  />
              <InterpolatingParam id="1559" interp="linr"  time="-9999999/1" value="0" leadInLength="0/1"  />
             </VectorParam>
             <VectorParam id="1560"  name="scale">
              <InterpolatingParam id="1561" interp="linr"  time="-9999999/1" value="1" leadInLength="0/1"  />
              <InterpolatingParam id="1562" interp="linr"  time="-9999999/1" value="1" leadInLength="0/1"  />
              <InterpolatingParam id="1563" interp="linr"  time="-9999999/1" value="1" leadInLength="0/1"  />
             </VectorParam>
             <VectorParam id="1564"  name="anchor">
              <InterpolatingParam id="1565" interp="linr"  time="0/1" value="0" leadInLength="0/1"  />
              <InterpolatingParam id="1566" interp="linr"  time="0/1" value="0" leadInLength="0/1"  />
              <InterpolatingParam id="1567" interp="linr"  time="0/1" value="0" leadInLength="0/1"  />
             </VectorParam>
            </Transformer>
            <Parameters>
             <VectorParam id="1568"  name="sourceCrop">
              <InterpolatingParam id="1569" interp="linr"  time="0/1" value="0" leadInLength="0/1"  />
              <InterpolatingParam id="1570" interp="linr"  time="0/1" value="0" leadInLength="0/1"  />
              <InterpolatingParam id="1571" interp="linr"  time="0/1" value="0" leadInLength="0/1"  />
              <InterpolatingParam id="1572" interp="linr"  time="0/1" value="0" leadInLength="0/1"  />
             </VectorParam>
             <VectorParam id="1573"  name="geometryCrop">
              <InterpolatingParam id="1574" interp="linr"  time="-9999999/1" value="0" leadInLength="0/1"  />
              <InterpolatingParam id="1575" interp="linr"  time="-9999999/1" value="0" leadInLength="0/1"  />
              <InterpolatingParam id="1576" interp="linr"  time="-9999999/1" value="0" leadInLength="0/1"  />
              <InterpolatingParam id="1577" interp="linr"  time="-9999999/1" value="0" leadInLength="0/1"  />
             </VectorParam>
             <InterpolatingParam id="1578" interp="linr"  time="-9999999/1" value="1" leadInLength="0/1"  name="opacity"/>
            </Parameters>
            <Attributes>
             <Attribute id="1579" value="" name="ident"/>
            </Attributes>
            <MetaData>
             <entry key="WinSubProjectDisplayName" val=""/>
            </MetaData>
            <ExtraData>
             <Entry key="ZoomPanBin">
              <ZoomPanBin id="1580"  >
               <ZoomPanKeyframes>
                <ZoomPanKeyframe id="1581" timeRangeEnd="-9999999/1" timeRangeDuration="0/1" interpolaterName="linr"  />
               </ZoomPanKeyframes>
              </ZoomPanBin>
             </Entry>
            </ExtraData>
           </IMFile>
           <UnifiedMedia id="1582"  >
            <AMFile id="1583" start="5014" duration="4028" scalar="1/1" mediaStart="4923/1" mediaDuration="4028/1" trackNumber="1" src="21" channelNumber="0,1" >
             <Parameters>
              <InterpolatingParam id="1584" interp="linr"  time="0/1" value="1" leadInLength="0/1"  name="volume"/>
              <Parameter id="1585"  name="captions"/>
             </Parameters>
             <Attributes>
              <Attribute id="1586" value="" name="ident"/>
              <Attribute id="1587" value="44100" name="sampleRate"/>
              <Attribute id="1588" value="16" name="bitDepth"/>
              <Attribute id="1589" value="1" name="gain"/>
              <Attribute id="1590" value="0" name="mixToMono"/>
             </Attributes>
            </AMFile>
            <VMFile id="1591" start="5014" duration="4028" scalar="1/1" mediaStart="4923/1" mediaDuration="4028/1" trackNumber="0" src="21" >
             <Transformer>
              <VectorParam id="1592"  name="translation">
               <InterpolatingParam id="1593" interp="linr"  time="-9999999/1" value="0" leadInLength="0/1"  />
               <InterpolatingParam id="1594" interp="linr"  time="-9999999/1" value="0" leadInLength="0/1"  />
               <InterpolatingParam id="1595" interp="linr"  time="-9999999/1" value="0" leadInLength="0/1"  />
              </VectorParam>
              <VectorParam id="1596"  name="rotation">
               <InterpolatingParam id="1597" interp="linr"  time="-9999999/1" value="0" leadInLength="0/1"  />
               <InterpolatingParam id="1598" interp="linr"  time="-9999999/1" value="0" leadInLength="0/1"  />
               <InterpolatingParam id="1599" interp="linr"  time="-9999999/1" value="0" leadInLength="0/1"  />
              </VectorParam>
              <VectorParam id="1600"  name="shear">
               <InterpolatingParam id="1601" interp="linr"  time="-9999999/1" value="0" leadInLength="0/1"  />
               <InterpolatingParam id="1602" interp="linr"  time="-9999999/1" value="0" leadInLength="0/1"  />
               <InterpolatingParam id="1603" interp="linr"  time="-9999999/1" value="0" leadInLength="0/1"  />
              </VectorParam>
              <VectorParam id="1604"  name="scale">
               <InterpolatingParam id="1605" interp="linr"  time="-9999999/1" value="1" leadInLength="0/1"  />
               <InterpolatingParam id="1606" interp="linr"  time="-9999999/1" value="1" leadInLength="0/1"  />
               <InterpolatingParam id="1607" interp="linr"  time="-9999999/1" value="1" leadInLength="0/1"  />
              </VectorParam>
              <VectorParam id="1608"  name="anchor">
               <InterpolatingParam id="1609" interp="linr"  time="0/1" value="0" leadInLength="0/1"  />
               <InterpolatingParam id="1610" interp="linr"  time="0/1" value="0" leadInLength="0/1"  />
               <InterpolatingParam id="1611" interp="linr"  time="0/1" value="0" leadInLength="0/1"  />
              </VectorParam>
             </Transformer>
             <Parameters>
              <VectorParam id="1612"  name="sourceCrop">
               <InterpolatingParam id="1613" interp="linr"  time="0/1" value="0" leadInLength="0/1"  />
               <InterpolatingParam id="1614" interp="linr"  time="0/1" value="0" leadInLength="0/1"  />
               <InterpolatingParam id="1615" interp="linr"  time="0/1" value="0" leadInLength="0/1"  />
               <InterpolatingParam id="1616" interp="linr"  time="0/1" value="0" leadInLength="0/1"  />
              </VectorParam>
              <VectorParam id="1617"  name="geometryCrop">
               <InterpolatingParam id="1618" interp="linr"  time="-9999999/1" value="0" leadInLength="0/1"  />
               <InterpolatingParam id="1619" interp="linr"  time="-9999999/1" value="0" leadInLength="0/1"  />
               <InterpolatingParam id="1620" interp="linr"  time="-9999999/1" value="0" leadInLength="0/1"  />
               <InterpolatingParam id="1621" interp="linr"  time="-9999999/1" value="0" leadInLength="0/1"  />
              </VectorParam>
              <InterpolatingParam id="1622" interp="linr"  time="-9999999/1" value="1" leadInLength="0/1"  name="opacity"/>
             </Parameters>
             <Attributes>
              <Attribute id="1623" value="" name="ident"/>
             </Attributes>
             <ExtraData>
              <Entry key="ZoomPanBin">
               <ZoomPanBin id="1624"  >
                <ZoomPanKeyframes>
                 <ZoomPanKeyframe id="1625" timeRangeEnd="-9999999/1" timeRangeDuration="0/1" interpolaterName="linr"  />
                </ZoomPanKeyframes>
               </ZoomPanBin>
              </Entry>
             </ExtraData>
            </VMFile>
            <MetaData>
             <entry key="WinSubProjectDisplayName" val=""/>
            </MetaData>
           </UnifiedMedia>
          </Medias>
         </GenericTrack>
        </StitchedMedia>
        <UnifiedMedia id="1626"  >
         <AMFile id="1627" start="4768" duration="289" scalar="178929/215936" mediaStart="463031/94" mediaDuration="62405504/178929" trackNumber="1" src="21" channelNumber="0,1" >
          <Parameters>
           <InterpolatingParam id="1628" interp="linr"  name="volume">
            <Keyframes>
            <Keyframe id="1629"  time="-1/1" value="1" leadInLength="0/1"  />
            <Keyframe id="1630"  time="0/1" value="0" leadInLength="0/1"  />
            <Keyframe id="1631"  time="8952/1" value="0" leadInLength="0/1"  />
            <Keyframe id="1632"  time="8953/1" value="1" leadInLength="0/1"  />
            </Keyframes>
           </InterpolatingParam>
           <Parameter id="1633"  name="captions"/>
          </Parameters>
          <Attributes>
           <Attribute id="1634" value="" name="ident"/>
           <Attribute id="1635" value="44100" name="sampleRate"/>
           <Attribute id="1636" value="16" name="bitDepth"/>
           <Attribute id="1637" value="1" name="gain"/>
           <Attribute id="1638" value="0" name="mixToMono"/>
          </Attributes>
         </AMFile>
         <VMFile id="1639" start="4768" duration="289" scalar="178929/215936" mediaStart="463031/94" mediaDuration="62405504/178929" trackNumber="0" src="21" >
          <Transformer>
           <VectorParam id="1640"  name="translation">
            <InterpolatingParam id="1641" interp="linr"  time="-9999999/1" value="0" leadInLength="0/1"  />
            <InterpolatingParam id="1642" interp="linr"  time="-9999999/1" value="0" leadInLength="0/1"  />
            <InterpolatingParam id="1643" interp="linr"  time="-9999999/1" value="0" leadInLength="0/1"  />
           </VectorParam>
           <VectorParam id="1644"  name="rotation">
            <InterpolatingParam id="1645" interp="linr"  time="-9999999/1" value="0" leadInLength="0/1"  />
            <InterpolatingParam id="1646" interp="linr"  time="-9999999/1" value="0" leadInLength="0/1"  />
            <InterpolatingParam id="1647" interp="linr"  time="-9999999/1" value="0" leadInLength="0/1"  />
           </VectorParam>
           <VectorParam id="1648"  name="shear">
            <InterpolatingParam id="1649" interp="linr"  time="-9999999/1" value="0" leadInLength="0/1"  />
            <InterpolatingParam id="1650" interp="linr"  time="-9999999/1" value="0" leadInLength="0/1"  />
            <InterpolatingParam id="1651" interp="linr"  time="-9999999/1" value="0" leadInLength="0/1"  />
           </VectorParam>
           <VectorParam id="1652"  name="scale">
            <InterpolatingParam id="1653" interp="linr"  time="-9999999/1" value="1" leadInLength="0/1"  />
            <InterpolatingParam id="1654" interp="linr"  time="-9999999/1" value="1" leadInLength="0/1"  />
            <InterpolatingParam id="1655" interp="linr"  time="-9999999/1" value="1" leadInLength="0/1"  />
           </VectorParam>
           <VectorParam id="1656"  name="anchor">
            <InterpolatingParam id="1657" interp="linr"  time="0/1" value="0" leadInLength="0/1"  />
            <InterpolatingParam id="1658" interp="linr"  time="0/1" value="0" leadInLength="0/1"  />
            <InterpolatingParam id="1659" interp="linr"  time="0/1" value="0" leadInLength="0/1"  />
           </VectorParam>
          </Transformer>
          <Parameters>
           <VectorParam id="1660"  name="sourceCrop">
            <InterpolatingParam id="1661" interp="linr"  time="0/1" value="0" leadInLength="0/1"  />
            <InterpolatingParam id="1662" interp="linr"  time="0/1" value="0" leadInLength="0/1"  />
            <InterpolatingParam id="1663" interp="linr"  time="0/1" value="0" leadInLength="0/1"  />
            <InterpolatingParam id="1664" interp="linr"  time="0/1" value="0" leadInLength="0/1"  />
           </VectorParam>
           <VectorParam id="1665"  name="geometryCrop">
            <InterpolatingParam id="1666" interp="linr"  time="-9999999/1" value="0" leadInLength="0/1"  />
            <InterpolatingParam id="1667" interp="linr"  time="-9999999/1" value="0" leadInLength="0/1"  />
            <InterpolatingParam id="1668" interp="linr"  time="-9999999/1" value="0" leadInLength="0/1"  />
            <InterpolatingParam id="1669" interp="linr"  time="-9999999/1" value="0" leadInLength="0/1"  />
           </VectorParam>
           <InterpolatingParam id="1670" interp="linr"  time="-9999999/1" value="1" leadInLength="0/1"  name="opacity"/>
          </Parameters>
          <Attributes>
           <Attribute id="1671" value="" name="ident"/>
          </Attributes>
          <ExtraData>
           <Entry key="ZoomPanBin">
            <ZoomPanBin id="1672"  >
             <ZoomPanKeyframes>
              <ZoomPanKeyframe id="1673" timeRangeEnd="-9999999/1" timeRangeDuration="0/1" interpolaterName="linr"  />
             </ZoomPanKeyframes>
            </ZoomPanBin>
           </Entry>
          </ExtraData>
         </VMFile>
         <MetaData>
          <entry key="WinSubProjectDisplayName" val=""/>
         </MetaData>
        </UnifiedMedia>
        <UnifiedMedia id="1674"  >
         <AMFile id="1675" start="5057" duration="134" scalar="11988243/9825088" mediaStart="1906140521/357858" mediaDuration="19650176/178929" trackNumber="1" src="21" channelNumber="0,1" >
          <Parameters>
           <InterpolatingParam id="1676" interp="linr"  name="volume">
            <Keyframes>
            <Keyframe id="1677"  time="-1/1" value="1" leadInLength="0/1"  />
            <Keyframe id="1678"  time="0/1" value="0" leadInLength="0/1"  />
            <Keyframe id="1679"  time="8952/1" value="0" leadInLength="0/1"  />
            <Keyframe id="1680"  time="8953/1" value="1" leadInLength="0/1"  />
            </Keyframes>
           </InterpolatingParam>
           <Parameter id="1681"  name="captions"/>
          </Parameters>
          <Attributes>
           <Attribute id="1682" value="" name="ident"/>
           <Attribute id="1683" value="44100" name="sampleRate"/>
           <Attribute id="1684" value="16" name="bitDepth"/>
           <Attribute id="1685" value="1" name="gain"/>
           <Attribute id="1686" value="0" name="mixToMono"/>
          </Attributes>
         </AMFile>
         <VMFile id="1687" start="5057" duration="134" scalar="11988243/9825088" mediaStart="1906140521/357858" mediaDuration="19650176/178929" trackNumber="0" src="21" >
          <Transformer>
           <VectorParam id="1688"  name="translation">
            <InterpolatingParam id="1689" interp="linr"  time="-9999999/1" value="0" leadInLength="0/1"  />
            <InterpolatingParam id="1690" interp="linr"  time="-9999999/1" value="0" leadInLength="0/1"  />
            <InterpolatingParam id="1691" interp="linr"  time="-9999999/1" value="0" leadInLength="0/1"  />
           </VectorParam>
           <VectorParam id="1692"  name="rotation">
            <InterpolatingParam id="1693" interp="linr"  time="-9999999/1" value="0" leadInLength="0/1"  />
            <InterpolatingParam id="1694" interp="linr"  time="-9999999/1" value="0" leadInLength="0/1"  />
            <InterpolatingParam id="1695" interp="linr"  time="-9999999/1" value="0" leadInLength="0/1"  />
           </VectorParam>
           <VectorParam id="1696"  name="shear">
            <InterpolatingParam id="1697" interp="linr"  time="-9999999/1" value="0" leadInLength="0/1"  />
            <InterpolatingParam id="1698" interp="linr"  time="-9999999/1" value="0" leadInLength="0/1"  />
            <InterpolatingParam id="1699" interp="linr"  time="-9999999/1" value="0" leadInLength="0/1"  />
           </VectorParam>
           <VectorParam id="1700"  name="scale">
            <InterpolatingParam id="1701" interp="linr"  time="-9999999/1" value="1" leadInLength="0/1"  />
            <InterpolatingParam id="1702" interp="linr"  time="-9999999/1" value="1" leadInLength="0/1"  />
            <InterpolatingParam id="1703" interp="linr"  time="-9999999/1" value="1" leadInLength="0/1"  />
           </VectorParam>
           <VectorParam id="1704"  name="anchor">
            <InterpolatingParam id="1705" interp="linr"  time="0/1" value="0" leadInLength="0/1"  />
            <InterpolatingParam id="1706" interp="linr"  time="0/1" value="0" leadInLength="0/1"  />
            <InterpolatingParam id="1707" interp="linr"  time="0/1" value="0" leadInLength="0/1"  />
           </VectorParam>
          </Transformer>
          <Parameters>
           <VectorParam id="1708"  name="sourceCrop">
            <InterpolatingParam id="1709" interp="linr"  time="0/1" value="0" leadInLength="0/1"  />
            <InterpolatingParam id="1710" interp="linr"  time="0/1" value="0" leadInLength="0/1"  />
            <InterpolatingParam id="1711" interp="linr"  time="0/1" value="0" leadInLength="0/1"  />
            <InterpolatingParam id="1712" interp="linr"  time="0/1" value="0" leadInLength="0/1"  />
           </VectorParam>
           <VectorParam id="1713"  name="geometryCrop">
            <InterpolatingParam id="1714" interp="linr"  time="-9999999/1" value="0" leadInLength="0/1"  />
            <InterpolatingParam id="1715" interp="linr"  time="-9999999/1" value="0" leadInLength="0/1"  />
            <InterpolatingParam id="1716" interp="linr"  time="-9999999/1" value="0" leadInLength="0/1"  />
            <InterpolatingParam id="1717" interp="linr"  time="-9999999/1" value="0" leadInLength="0/1"  />
           </VectorParam>
           <InterpolatingParam id="1718" interp="linr"  time="-9999999/1" value="1" leadInLength="0/1"  name="opacity"/>
          </Parameters>
          <Attributes>
           <Attribute id="1719" value="" name="ident"/>
          </Attributes>
          <ExtraData>
           <Entry key="ZoomPanBin">
            <ZoomPanBin id="1720"  >
             <ZoomPanKeyframes>
              <ZoomPanKeyframe id="1721" timeRangeEnd="-9999999/1" timeRangeDuration="0/1" interpolaterName="linr"  />
             </ZoomPanKeyframes>
            </ZoomPanBin>
           </Entry>
          </ExtraData>
         </VMFile>
         <MetaData>
          <entry key="WinSubProjectDisplayName" val=""/>
         </MetaData>
        </UnifiedMedia>
        <UnifiedMedia id="1722"  >
         <AMFile id="1723" start="5191" duration="235" scalar="198810/99533" mediaStart="4599151/846" mediaDuration="99533/846" trackNumber="1" src="21" channelNumber="0,1" >
          <Parameters>
           <InterpolatingParam id="1724" interp="linr"  name="volume">
            <Keyframes>
            <Keyframe id="1725"  time="-1/1" value="1" leadInLength="0/1"  />
            <Keyframe id="1726"  time="0/1" value="0" leadInLength="0/1"  />
            <Keyframe id="1727"  time="8952/1" value="0" leadInLength="0/1"  />
            <Keyframe id="1728"  time="8953/1" value="1" leadInLength="0/1"  />
            </Keyframes>
           </InterpolatingParam>
           <Parameter id="1729"  name="captions"/>
          </Parameters>
          <Attributes>
           <Attribute id="1730" value="" name="ident"/>
           <Attribute id="1731" value="44100" name="sampleRate"/>
           <Attribute id="1732" value="16" name="bitDepth"/>
           <Attribute id="1733" value="1" name="gain"/>
           <Attribute id="1734" value="0" name="mixToMono"/>
          </Attributes>
         </AMFile>
         <VMFile id="1735" start="5191" duration="235" scalar="198810/99533" mediaStart="4599151/846" mediaDuration="99533/846" trackNumber="0" src="21" >
          <Transformer>
           <VectorParam id="1736"  name="translation">
            <InterpolatingParam id="1737" interp="linr"  time="-9999999/1" value="0" leadInLength="0/1"  />
            <InterpolatingParam id="1738" interp="linr"  time="-9999999/1" value="0" leadInLength="0/1"  />
            <InterpolatingParam id="1739" interp="linr"  time="-9999999/1" value="0" leadInLength="0/1"  />
           </VectorParam>
           <VectorParam id="1740"  name="rotation">
            <InterpolatingParam id="1741" interp="linr"  time="-9999999/1" value="0" leadInLength="0/1"  />
            <InterpolatingParam id="1742" interp="linr"  time="-9999999/1" value="0" leadInLength="0/1"  />
            <InterpolatingParam id="1743" interp="linr"  time="-9999999/1" value="0" leadInLength="0/1"  />
           </VectorParam>
           <VectorParam id="1744"  name="shear">
            <InterpolatingParam id="1745" interp="linr"  time="-9999999/1" value="0" leadInLength="0/1"  />
            <InterpolatingParam id="1746" interp="linr"  time="-9999999/1" value="0" leadInLength="0/1"  />
            <InterpolatingParam id="1747" interp="linr"  time="-9999999/1" value="0" leadInLength="0/1"  />
           </VectorParam>
           <VectorParam id="1748"  name="scale">
            <InterpolatingParam id="1749" interp="linr"  time="-9999999/1" value="1" leadInLength="0/1"  />
            <InterpolatingParam id="1750" interp="linr"  time="-9999999/1" value="1" leadInLength="0/1"  />
            <InterpolatingParam id="1751" interp="linr"  time="-9999999/1" value="1" leadInLength="0/1"  />
           </VectorParam>
           <VectorParam id="1752"  name="anchor">
            <InterpolatingParam id="1753" interp="linr"  time="0/1" value="0" leadInLength="0/1"  />
            <InterpolatingParam id="1754" interp="linr"  time="0/1" value="0" leadInLength="0/1"  />
            <InterpolatingParam id="1755" interp="linr"  time="0/1" value="0" leadInLength="0/1"  />
           </VectorParam>
          </Transformer>
          <Parameters>
           <VectorParam id="1756"  name="sourceCrop">
            <InterpolatingParam id="1757" interp="linr"  time="0/1" value="0" leadInLength="0/1"  />
            <InterpolatingParam id="1758" interp="linr"  time="0/1" value="0" leadInLength="0/1"  />
            <InterpolatingParam id="1759" interp="linr"  time="0/1" value="0" leadInLength="0/1"  />
            <InterpolatingParam id="1760" interp="linr"  time="0/1" value="0" leadInLength="0/1"  />
           </VectorParam>
           <VectorParam id="1761"  name="geometryCrop">
            <InterpolatingParam id="1762" interp="linr"  time="-9999999/1" value="0" leadInLength="0/1"  />
            <InterpolatingParam id="1763" interp="linr"  time="-9999999/1" value="0" leadInLength="0/1"  />
            <InterpolatingParam id="1764" interp="linr"  time="-9999999/1" value="0" leadInLength="0/1"  />
            <InterpolatingParam id="1765" interp="linr"  time="-9999999/1" value="0" leadInLength="0/1"  />
           </VectorParam>
           <InterpolatingParam id="1766" interp="linr"  time="-9999999/1" value="1" leadInLength="0/1"  name="opacity"/>
          </Parameters>
          <Attributes>
           <Attribute id="1767" value="" name="ident"/>
          </Attributes>
          <ExtraData>
           <Entry key="ZoomPanBin">
            <ZoomPanBin id="1768"  >
             <ZoomPanKeyframes>
              <ZoomPanKeyframe id="1769" timeRangeEnd="-9999999/1" timeRangeDuration="0/1" interpolaterName="linr"  />
             </ZoomPanKeyframes>
            </ZoomPanBin>
           </Entry>
          </ExtraData>
         </VMFile>
         <MetaData>
          <entry key="WinSubProjectDisplayName" val=""/>
         </MetaData>
        </UnifiedMedia>
        <UnifiedMedia id="1770"  >
         <AMFile id="1771" start="5426" duration="180" scalar="12186/13817" mediaStart="5582/1" mediaDuration="138170/677" trackNumber="1" src="21" channelNumber="0,1" >
          <Parameters>
           <InterpolatingParam id="1772" interp="linr"  name="volume">
            <Keyframes>
            <Keyframe id="1773"  time="-1/1" value="1" leadInLength="0/1"  />
            <Keyframe id="1774"  time="0/1" value="0" leadInLength="0/1"  />
            <Keyframe id="1775"  time="8952/1" value="0" leadInLength="0/1"  />
            <Keyframe id="1776"  time="8953/1" value="1" leadInLength="0/1"  />
            </Keyframes>
           </InterpolatingParam>
           <Parameter id="1777"  name="captions"/>
          </Parameters>
          <Attributes>
           <Attribute id="1778" value="" name="ident"/>
           <Attribute id="1779" value="44100" name="sampleRate"/>
           <Attribute id="1780" value="16" name="bitDepth"/>
           <Attribute id="1781" value="1" name="gain"/>
           <Attribute id="1782" value="0" name="mixToMono"/>
          </Attributes>
         </AMFile>
         <VMFile id="1783" start="5426" duration="180" scalar="12186/13817" mediaStart="5582/1" mediaDuration="138170/677" trackNumber="0" src="21" >
          <Transformer>
           <VectorParam id="1784"  name="translation">
            <InterpolatingParam id="1785" interp="linr"  time="-9999999/1" value="0" leadInLength="0/1"  />
            <InterpolatingParam id="1786" interp="linr"  time="-9999999/1" value="0" leadInLength="0/1"  />
            <InterpolatingParam id="1787" interp="linr"  time="-9999999/1" value="0" leadInLength="0/1"  />
           </VectorParam>
           <VectorParam id="1788"  name="rotation">
            <InterpolatingParam id="1789" interp="linr"  time="-9999999/1" value="0" leadInLength="0/1"  />
            <InterpolatingParam id="1790" interp="linr"  time="-9999999/1" value="0" leadInLength="0/1"  />
            <InterpolatingParam id="1791" interp="linr"  time="-9999999/1" value="0" leadInLength="0/1"  />
           </VectorParam>
           <VectorParam id="1792"  name="shear">
            <InterpolatingParam id="1793" interp="linr"  time="-9999999/1" value="0" leadInLength="0/1"  />
            <InterpolatingParam id="1794" interp="linr"  time="-9999999/1" value="0" leadInLength="0/1"  />
            <InterpolatingParam id="1795" interp="linr"  time="-9999999/1" value="0" leadInLength="0/1"  />
           </VectorParam>
           <VectorParam id="1796"  name="scale">
            <InterpolatingParam id="1797" interp="linr"  time="-9999999/1" value="1" leadInLength="0/1"  />
            <InterpolatingParam id="1798" interp="linr"  time="-9999999/1" value="1" leadInLength="0/1"  />
            <InterpolatingParam id="1799" interp="linr"  time="-9999999/1" value="1" leadInLength="0/1"  />
           </VectorParam>
           <VectorParam id="1800"  name="anchor">
            <InterpolatingParam id="1801" interp="linr"  time="0/1" value="0" leadInLength="0/1"  />
            <InterpolatingParam id="1802" interp="linr"  time="0/1" value="0" leadInLength="0/1"  />
            <InterpolatingParam id="1803" interp="linr"  time="0/1" value="0" leadInLength="0/1"  />
           </VectorParam>
          </Transformer>
          <Parameters>
           <VectorParam id="1804"  name="sourceCrop">
            <InterpolatingParam id="1805" interp="linr"  time="0/1" value="0" leadInLength="0/1"  />
            <InterpolatingParam id="1806" interp="linr"  time="0/1" value="0" leadInLength="0/1"  />
            <InterpolatingParam id="1807" interp="linr"  time="0/1" value="0" leadInLength="0/1"  />
            <InterpolatingParam id="1808" interp="linr"  time="0/1" value="0" leadInLength="0/1"  />
           </VectorParam>
           <VectorParam id="1809"  name="geometryCrop">
            <InterpolatingParam id="1810" interp="linr"  time="-9999999/1" value="0" leadInLength="0/1"  />
            <InterpolatingParam id="1811" interp="linr"  time="-9999999/1" value="0" leadInLength="0/1"  />
            <InterpolatingParam id="1812" interp="linr"  time="-9999999/1" value="0" leadInLength="0/1"  />
            <InterpolatingParam id="1813" interp="linr"  time="-9999999/1" value="0" leadInLength="0/1"  />
           </VectorParam>
           <InterpolatingParam id="1814" interp="linr"  time="-9999999/1" value="1" leadInLength="0/1"  name="opacity"/>
          </Parameters>
          <Attributes>
           <Attribute id="1815" value="" name="ident"/>
          </Attributes>
          <ExtraData>
           <Entry key="ZoomPanBin">
            <ZoomPanBin id="1816"  >
             <ZoomPanKeyframes>
              <ZoomPanKeyframe id="1817" timeRangeEnd="-9999999/1" timeRangeDuration="0/1" interpolaterName="linr"  />
             </ZoomPanKeyframes>
            </ZoomPanBin>
           </Entry>
          </ExtraData>
         </VMFile>
         <MetaData>
          <entry key="WinSubProjectDisplayName" val=""/>
         </MetaData>
        </UnifiedMedia>
        <UnifiedMedia id="1818"  >
         <AMFile id="1819" start="5606" duration="98" scalar="17681209/8930500" mediaStart="3917184/677" mediaDuration="17861000/360841" trackNumber="1" src="21" channelNumber="0,1" >
          <Parameters>
           <InterpolatingParam id="1820" interp="linr"  name="volume">
            <Keyframes>
            <Keyframe id="1821"  time="-1/1" value="1" leadInLength="0/1"  />
            <Keyframe id="1822"  time="0/1" value="0" leadInLength="0/1"  />
            <Keyframe id="1823"  time="8952/1" value="0" leadInLength="0/1"  />
            <Keyframe id="1824"  time="8953/1" value="1" leadInLength="0/1"  />
            </Keyframes>
           </InterpolatingParam>
           <Parameter id="1825"  name="captions"/>
          </Parameters>
          <Attributes>
           <Attribute id="1826" value="" name="ident"/>
           <Attribute id="1827" value="44100" name="sampleRate"/>
           <Attribute id="1828" value="16" name="bitDepth"/>
           <Attribute id="1829" value="1" name="gain"/>
           <Attribute id="1830" value="0" name="mixToMono"/>
          </Attributes>
         </AMFile>
         <VMFile id="1831" start="5606" duration="98" scalar="17681209/8930500" mediaStart="3917184/677" mediaDuration="17861000/360841" trackNumber="0" src="21" >
          <Transformer>
           <VectorParam id="1832"  name="translation">
            <InterpolatingParam id="1833" interp="linr"  time="-9999999/1" value="0" leadInLength="0/1"  />
            <InterpolatingParam id="1834" interp="linr"  time="-9999999/1" value="0" leadInLength="0/1"  />
            <InterpolatingParam id="1835" interp="linr"  time="-9999999/1" value="0" leadInLength="0/1"  />
           </VectorParam>
           <VectorParam id="1836"  name="rotation">
            <InterpolatingParam id="1837" interp="linr"  time="-9999999/1" value="0" leadInLength="0/1"  />
            <InterpolatingParam id="1838" interp="linr"  time="-9999999/1" value="0" leadInLength="0/1"  />
            <InterpolatingParam id="1839" interp="linr"  time="-9999999/1" value="0" leadInLength="0/1"  />
           </VectorParam>
           <VectorParam id="1840"  name="shear">
            <InterpolatingParam id="1841" interp="linr"  time="-9999999/1" value="0" leadInLength="0/1"  />
            <InterpolatingParam id="1842" interp="linr"  time="-9999999/1" value="0" leadInLength="0/1"  />
            <InterpolatingParam id="1843" interp="linr"  time="-9999999/1" value="0" leadInLength="0/1"  />
           </VectorParam>
           <VectorParam id="1844"  name="scale">
            <InterpolatingParam id="1845" interp="linr"  time="-9999999/1" value="1" leadInLength="0/1"  />
            <InterpolatingParam id="1846" interp="linr"  time="-9999999/1" value="1" leadInLength="0/1"  />
            <InterpolatingParam id="1847" interp="linr"  time="-9999999/1" value="1" leadInLength="0/1"  />
           </VectorParam>
           <VectorParam id="1848"  name="anchor">
            <InterpolatingParam id="1849" interp="linr"  time="0/1" value="0" leadInLength="0/1"  />
            <InterpolatingParam id="1850" interp="linr"  time="0/1" value="0" leadInLength="0/1"  />
            <InterpolatingParam id="1851" interp="linr"  time="0/1" value="0" leadInLength="0/1"  />
           </VectorParam>
          </Transformer>
          <Parameters>
           <VectorParam id="1852"  name="sourceCrop">
            <InterpolatingParam id="1853" interp="linr"  time="0/1" value="0" leadInLength="0/1"  />
            <InterpolatingParam id="1854" interp="linr"  time="0/1" value="0" leadInLength="0/1"  />
            <InterpolatingParam id="1855" interp="linr"  time="0/1" value="0" leadInLength="0/1"  />
            <InterpolatingParam id="1856" interp="linr"  time="0/1" value="0" leadInLength="0/1"  />
           </VectorParam>
           <VectorParam id="1857"  name="geometryCrop">
            <InterpolatingParam id="1858" interp="linr"  time="-9999999/1" value="0" leadInLength="0/1"  />
            <InterpolatingParam id="1859" interp="linr"  time="-9999999/1" value="0" leadInLength="0/1"  />
            <InterpolatingParam id="1860" interp="linr"  time="-9999999/1" value="0" leadInLength="0/1"  />
            <InterpolatingParam id="1861" interp="linr"  time="-9999999/1" value="0" leadInLength="0/1"  />
           </VectorParam>
           <InterpolatingParam id="1862" interp="linr"  time="-9999999/1" value="1" leadInLength="0/1"  name="opacity"/>
          </Parameters>
          <Attributes>
           <Attribute id="1863" value="" name="ident"/>
          </Attributes>
          <ExtraData>
           <Entry key="ZoomPanBin">
            <ZoomPanBin id="1864"  >
             <ZoomPanKeyframes>
              <ZoomPanKeyframe id="1865" timeRangeEnd="-9999999/1" timeRangeDuration="0/1" interpolaterName="linr"  />
             </ZoomPanKeyframes>
            </ZoomPanBin>
           </Entry>
          </ExtraData>
         </VMFile>
         <MetaData>
          <entry key="WinSubProjectDisplayName" val=""/>
         </MetaData>
        </UnifiedMedia>
        <UnifiedMedia id="1866"  >
         <AMFile id="1867" start="5704" duration="151" scalar="1328951/1428880" mediaStart="2105720072/360841" mediaDuration="1428880/8801" trackNumber="1" src="21" channelNumber="0,1" >
          <Parameters>
           <InterpolatingParam id="1868" interp="linr"  name="volume">
            <Keyframes>
            <Keyframe id="1869"  time="-1/1" value="1" leadInLength="0/1"  />
            <Keyframe id="1870"  time="0/1" value="0" leadInLength="0/1"  />
            <Keyframe id="1871"  time="8952/1" value="0" leadInLength="0/1"  />
            <Keyframe id="1872"  time="8953/1" value="1" leadInLength="0/1"  />
            </Keyframes>
           </InterpolatingParam>
           <Parameter id="1873"  name="captions"/>
          </Parameters>
          <Attributes>
           <Attribute id="1874" value="" name="ident"/>
           <Attribute id="1875" value="44100" name="sampleRate"/>
           <Attribute id="1876" value="16" name="bitDepth"/>
           <Attribute id="1877" value="1" name="gain"/>
           <Attribute id="1878" value="0" name="mixToMono"/>
          </Attributes>
         </AMFile>
         <VMFile id="1879" start="5704" duration="151" scalar="1328951/1428880" mediaStart="2105720072/360841" mediaDuration="1428880/8801" trackNumber="0" src="21" >
          <Transformer>
           <VectorParam id="1880"  name="translation">
            <InterpolatingParam id="1881" interp="linr"  time="-9999999/1" value="0" leadInLength="0/1"  />
            <InterpolatingParam id="1882" interp="linr"  time="-9999999/1" value="0" leadInLength="0/1"  />
            <InterpolatingParam id="1883" interp="linr"  time="-9999999/1" value="0" leadInLength="0/1"  />
           </VectorParam>
           <VectorParam id="1884"  name="rotation">
            <InterpolatingParam id="1885" interp="linr"  time="-9999999/1" value="0" leadInLength="0/1"  />
            <InterpolatingParam id="1886" interp="linr"  time="-9999999/1" value="0" leadInLength="0/1"  />
            <InterpolatingParam id="1887" interp="linr"  time="-9999999/1" value="0" leadInLength="0/1"  />
           </VectorParam>
           <VectorParam id="1888"  name="shear">
            <InterpolatingParam id="1889" interp="linr"  time="-9999999/1" value="0" leadInLength="0/1"  />
            <InterpolatingParam id="1890" interp="linr"  time="-9999999/1" value="0" leadInLength="0/1"  />
            <InterpolatingParam id="1891" interp="linr"  time="-9999999/1" value="0" leadInLength="0/1"  />
           </VectorParam>
           <VectorParam id="1892"  name="scale">
            <InterpolatingParam id="1893" interp="linr"  time="-9999999/1" value="1" leadInLength="0/1"  />
            <InterpolatingParam id="1894" interp="linr"  time="-9999999/1" value="1" leadInLength="0/1"  />
            <InterpolatingParam id="1895" interp="linr"  time="-9999999/1" value="1" leadInLength="0/1"  />
           </VectorParam>
           <VectorParam id="1896"  name="anchor">
            <InterpolatingParam id="1897" interp="linr"  time="0/1" value="0" leadInLength="0/1"  />
            <InterpolatingParam id="1898" interp="linr"  time="0/1" value="0" leadInLength="0/1"  />
            <InterpolatingParam id="1899" interp="linr"  time="0/1" value="0" leadInLength="0/1"  />
           </VectorParam>
          </Transformer>
          <Parameters>
           <VectorParam id="1900"  name="sourceCrop">
            <InterpolatingParam id="1901" interp="linr"  time="0/1" value="0" leadInLength="0/1"  />
            <InterpolatingParam id="1902" interp="linr"  time="0/1" value="0" leadInLength="0/1"  />
            <InterpolatingParam id="1903" interp="linr"  time="0/1" value="0" leadInLength="0/1"  />
            <InterpolatingParam id="1904" interp="linr"  time="0/1" value="0" leadInLength="0/1"  />
           </VectorParam>
           <VectorParam id="1905"  name="geometryCrop">
            <InterpolatingParam id="1906" interp="linr"  time="-9999999/1" value="0" leadInLength="0/1"  />
            <InterpolatingParam id="1907" interp="linr"  time="-9999999/1" value="0" leadInLength="0/1"  />
            <InterpolatingParam id="1908" interp="linr"  time="-9999999/1" value="0" leadInLength="0/1"  />
            <InterpolatingParam id="1909" interp="linr"  time="-9999999/1" value="0" leadInLength="0/1"  />
           </VectorParam>
           <InterpolatingParam id="1910" interp="linr"  time="-9999999/1" value="1" leadInLength="0/1"  name="opacity"/>
          </Parameters>
          <Attributes>
           <Attribute id="1911" value="" name="ident"/>
          </Attributes>
          <ExtraData>
           <Entry key="ZoomPanBin">
            <ZoomPanBin id="1912"  >
             <ZoomPanKeyframes>
              <ZoomPanKeyframe id="1913" timeRangeEnd="-9999999/1" timeRangeDuration="0/1" interpolaterName="linr"  />
             </ZoomPanKeyframes>
            </ZoomPanBin>
           </Entry>
          </ExtraData>
         </VMFile>
         <MetaData>
          <entry key="WinSubProjectDisplayName" val=""/>
         </MetaData>
        </UnifiedMedia>
        <UnifiedMedia id="1914"  >
         <AMFile id="1915" start="5855" duration="183" scalar="360841/357220" mediaStart="2164304152/360841" mediaDuration="65371260/360841" trackNumber="1" src="21" channelNumber="0,1" >
          <Parameters>
           <InterpolatingParam id="1916" interp="linr"  name="volume">
            <Keyframes>
            <Keyframe id="1917"  time="-1/1" value="1" leadInLength="0/1"  />
            <Keyframe id="1918"  time="0/1" value="0" leadInLength="0/1"  />
            <Keyframe id="1919"  time="8952/1" value="0" leadInLength="0/1"  />
            <Keyframe id="1920"  time="8953/1" value="1" leadInLength="0/1"  />
            </Keyframes>
           </InterpolatingParam>
           <Parameter id="1921"  name="captions"/>
          </Parameters>
          <Attributes>
           <Attribute id="1922" value="" name="ident"/>
           <Attribute id="1923" value="44100" name="sampleRate"/>
           <Attribute id="1924" value="16" name="bitDepth"/>
           <Attribute id="1925" value="1" name="gain"/>
           <Attribute id="1926" value="0" name="mixToMono"/>
          </Attributes>
         </AMFile>
         <VMFile id="1927" start="5855" duration="183" scalar="360841/357220" mediaStart="2164304152/360841" mediaDuration="65371260/360841" trackNumber="0" src="21" >
          <Transformer>
           <VectorParam id="1928"  name="translation">
            <InterpolatingParam id="1929" interp="linr"  time="-9999999/1" value="0" leadInLength="0/1"  />
            <InterpolatingParam id="1930" interp="linr"  time="-9999999/1" value="0" leadInLength="0/1"  />
            <InterpolatingParam id="1931" interp="linr"  time="-9999999/1" value="0" leadInLength="0/1"  />
           </VectorParam>
           <VectorParam id="1932"  name="rotation">
            <InterpolatingParam id="1933" interp="linr"  time="-9999999/1" value="0" leadInLength="0/1"  />
            <InterpolatingParam id="1934" interp="linr"  time="-9999999/1" value="0" leadInLength="0/1"  />
            <InterpolatingParam id="1935" interp="linr"  time="-9999999/1" value="0" leadInLength="0/1"  />
           </VectorParam>
           <VectorParam id="1936"  name="shear">
            <InterpolatingParam id="1937" interp="linr"  time="-9999999/1" value="0" leadInLength="0/1"  />
            <InterpolatingParam id="1938" interp="linr"  time="-9999999/1" value="0" leadInLength="0/1"  />
            <InterpolatingParam id="1939" interp="linr"  time="-9999999/1" value="0" leadInLength="0/1"  />
           </VectorParam>
           <VectorParam id="1940"  name="scale">
            <InterpolatingParam id="1941" interp="linr"  time="-9999999/1" value="1" leadInLength="0/1"  />
            <InterpolatingParam id="1942" interp="linr"  time="-9999999/1" value="1" leadInLength="0/1"  />
            <InterpolatingParam id="1943" interp="linr"  time="-9999999/1" value="1" leadInLength="0/1"  />
           </VectorParam>
           <VectorParam id="1944"  name="anchor">
            <InterpolatingParam id="1945" interp="linr"  time="0/1" value="0" leadInLength="0/1"  />
            <InterpolatingParam id="1946" interp="linr"  time="0/1" value="0" leadInLength="0/1"  />
            <InterpolatingParam id="1947" interp="linr"  time="0/1" value="0" leadInLength="0/1"  />
           </VectorParam>
          </Transformer>
          <Parameters>
           <VectorParam id="1948"  name="sourceCrop">
            <InterpolatingParam id="1949" interp="linr"  time="0/1" value="0" leadInLength="0/1"  />
            <InterpolatingParam id="1950" interp="linr"  time="0/1" value="0" leadInLength="0/1"  />
            <InterpolatingParam id="1951" interp="linr"  time="0/1" value="0" leadInLength="0/1"  />
            <InterpolatingParam id="1952" interp="linr"  time="0/1" value="0" leadInLength="0/1"  />
           </VectorParam>
           <VectorParam id="1953"  name="geometryCrop">
            <InterpolatingParam id="1954" interp="linr"  time="-9999999/1" value="0" leadInLength="0/1"  />
            <InterpolatingParam id="1955" interp="linr"  time="-9999999/1" value="0" leadInLength="0/1"  />
            <InterpolatingParam id="1956" interp="linr"  time="-9999999/1" value="0" leadInLength="0/1"  />
            <InterpolatingParam id="1957" interp="linr"  time="-9999999/1" value="0" leadInLength="0/1"  />
           </VectorParam>
           <InterpolatingParam id="1958" interp="linr"  time="-9999999/1" value="1" leadInLength="0/1"  name="opacity"/>
          </Parameters>
          <Attributes>
           <Attribute id="1959" value="" name="ident"/>
          </Attributes>
          <ExtraData>
           <Entry key="ZoomPanBin">
            <ZoomPanBin id="1960"  >
             <ZoomPanKeyframes>
              <ZoomPanKeyframe id="1961" timeRangeEnd="-9999999/1" timeRangeDuration="0/1" interpolaterName="linr"  />
             </ZoomPanKeyframes>
            </ZoomPanBin>
           </Entry>
          </ExtraData>
         </VMFile>
         <MetaData>
          <entry key="WinSubProjectDisplayName" val=""/>
         </MetaData>
        </UnifiedMedia>
        <UnifiedMedia id="1962"  >
         <AMFile id="1963" start="6038" duration="99" scalar="35723259/60727400" mediaStart="2243964212/360841" mediaDuration="60727400/360841" trackNumber="1" src="21" channelNumber="0,1" >
          <Parameters>
           <InterpolatingParam id="1964" interp="linr"  name="volume">
            <Keyframes>
            <Keyframe id="1965"  time="-1/1" value="1" leadInLength="0/1"  />
            <Keyframe id="1966"  time="0/1" value="0" leadInLength="0/1"  />
            <Keyframe id="1967"  time="8952/1" value="0" leadInLength="0/1"  />
            <Keyframe id="1968"  time="8953/1" value="1" leadInLength="0/1"  />
            </Keyframes>
           </InterpolatingParam>
           <Parameter id="1969"  name="captions"/>
          </Parameters>
          <Attributes>
           <Attribute id="1970" value="" name="ident"/>
           <Attribute id="1971" value="44100" name="sampleRate"/>
           <Attribute id="1972" value="16" name="bitDepth"/>
           <Attribute id="1973" value="1" name="gain"/>
           <Attribute id="1974" value="0" name="mixToMono"/>
          </Attributes>
         </AMFile>
         <VMFile id="1975" start="6038" duration="99" scalar="35723259/60727400" mediaStart="2243964212/360841" mediaDuration="60727400/360841" trackNumber="0" src="21" >
          <Transformer>
           <VectorParam id="1976"  name="translation">
            <InterpolatingParam id="1977" interp="linr"  time="-9999999/1" value="0" leadInLength="0/1"  />
            <InterpolatingParam id="1978" interp="linr"  time="-9999999/1" value="0" leadInLength="0/1"  />
            <InterpolatingParam id="1979" interp="linr"  time="-9999999/1" value="0" leadInLength="0/1"  />
           </VectorParam>
           <VectorParam id="1980"  name="rotation">
            <InterpolatingParam id="1981" interp="linr"  time="-9999999/1" value="0" leadInLength="0/1"  />
            <InterpolatingParam id="1982" interp="linr"  time="-9999999/1" value="0" leadInLength="0/1"  />
            <InterpolatingParam id="1983" interp="linr"  time="-9999999/1" value="0" leadInLength="0/1"  />
           </VectorParam>
           <VectorParam id="1984"  name="shear">
            <InterpolatingParam id="1985" interp="linr"  time="-9999999/1" value="0" leadInLength="0/1"  />
            <InterpolatingParam id="1986" interp="linr"  time="-9999999/1" value="0" leadInLength="0/1"  />
            <InterpolatingParam id="1987" interp="linr"  time="-9999999/1" value="0" leadInLength="0/1"  />
           </VectorParam>
           <VectorParam id="1988"  name="scale">
            <InterpolatingParam id="1989" interp="linr"  time="-9999999/1" value="1" leadInLength="0/1"  />
            <InterpolatingParam id="1990" interp="linr"  time="-9999999/1" value="1" leadInLength="0/1"  />
            <InterpolatingParam id="1991" interp="linr"  time="-9999999/1" value="1" leadInLength="0/1"  />
           </VectorParam>
           <VectorParam id="1992"  name="anchor">
            <InterpolatingParam id="1993" interp="linr"  time="0/1" value="0" leadInLength="0/1"  />
            <InterpolatingParam id="1994" interp="linr"  time="0/1" value="0" leadInLength="0/1"  />
            <InterpolatingParam id="1995" interp="linr"  time="0/1" value="0" leadInLength="0/1"  />
           </VectorParam>
          </Transformer>
          <Parameters>
           <VectorParam id="1996"  name="sourceCrop">
            <InterpolatingParam id="1997" interp="linr"  time="0/1" value="0" leadInLength="0/1"  />
            <InterpolatingParam id="1998" interp="linr"  time="0/1" value="0" leadInLength="0/1"  />
            <InterpolatingParam id="1999" interp="linr"  time="0/1" value="0" leadInLength="0/1"  />
            <InterpolatingParam id="2000" interp="linr"  time="0/1" value="0" leadInLength="0/1"  />
           </VectorParam>
           <VectorParam id="2001"  name="geometryCrop">
            <InterpolatingParam id="2002" interp="linr"  time="-9999999/1" value="0" leadInLength="0/1"  />
            <InterpolatingParam id="2003" interp="linr"  time="-9999999/1" value="0" leadInLength="0/1"  />
            <InterpolatingParam id="2004" interp="linr"  time="-9999999/1" value="0" leadInLength="0/1"  />
            <InterpolatingParam id="2005" interp="linr"  time="-9999999/1" value="0" leadInLength="0/1"  />
           </VectorParam>
           <InterpolatingParam id="2006" interp="linr"  time="-9999999/1" value="1" leadInLength="0/1"  name="opacity"/>
          </Parameters>
          <Attributes>
           <Attribute id="2007" value="" name="ident"/>
          </Attributes>
          <ExtraData>
           <Entry key="ZoomPanBin">
            <ZoomPanBin id="2008"  >
             <ZoomPanKeyframes>
              <ZoomPanKeyframe id="2009" timeRangeEnd="-9999999/1" timeRangeDuration="0/1" interpolaterName="linr"  />
             </ZoomPanKeyframes>
            </ZoomPanBin>
           </Entry>
          </ExtraData>
         </VMFile>
         <MetaData>
          <entry key="WinSubProjectDisplayName" val=""/>
         </MetaData>
        </UnifiedMedia>
        <UnifiedMedia id="2010"  >
         <AMFile id="2011" start="6137" duration="192" scalar="17320368/20450845" mediaStart="2304691612/360841" mediaDuration="81803380/360841" trackNumber="1" src="21" channelNumber="0,1" >
          <Parameters>
           <InterpolatingParam id="2012" interp="linr"  name="volume">
            <Keyframes>
            <Keyframe id="2013"  time="-1/1" value="1" leadInLength="0/1"  />
            <Keyframe id="2014"  time="0/1" value="0" leadInLength="0/1"  />
            <Keyframe id="2015"  time="8952/1" value="0" leadInLength="0/1"  />
            <Keyframe id="2016"  time="8953/1" value="1" leadInLength="0/1"  />
            </Keyframes>
           </InterpolatingParam>
           <Parameter id="2017"  name="captions"/>
          </Parameters>
          <Attributes>
           <Attribute id="2018" value="" name="ident"/>
           <Attribute id="2019" value="44100" name="sampleRate"/>
           <Attribute id="2020" value="16" name="bitDepth"/>
           <Attribute id="2021" value="1" name="gain"/>
           <Attribute id="2022" value="0" name="mixToMono"/>
          </Attributes>
         </AMFile>
         <VMFile id="2023" start="6137" duration="192" scalar="17320368/20450845" mediaStart="2304691612/360841" mediaDuration="81803380/360841" trackNumber="0" src="21" >
          <Transformer>
           <VectorParam id="2024"  name="translation">
            <InterpolatingParam id="2025" interp="linr"  time="-9999999/1" value="2.9084290531500294e-011" leadInLength="0/1"  />
            <InterpolatingParam id="2026" interp="linr"  time="-9999999/1" value="-1.9934276451749607e-011" leadInLength="0/1"  />
            <InterpolatingParam id="2027" interp="linr"  time="-9999999/1" value="0" leadInLength="0/1"  />
           </VectorParam>
           <VectorParam id="2028"  name="rotation">
            <InterpolatingParam id="2029" interp="linr"  time="-9999999/1" value="0" leadInLength="0/1"  />
            <InterpolatingParam id="2030" interp="linr"  time="-9999999/1" value="0" leadInLength="0/1"  />
            <InterpolatingParam id="2031" interp="linr"  time="-9999999/1" value="0" leadInLength="0/1"  />
           </VectorParam>
           <VectorParam id="2032"  name="shear">
            <InterpolatingParam id="2033" interp="linr"  time="-9999999/1" value="0" leadInLength="0/1"  />
            <InterpolatingParam id="2034" interp="linr"  time="-9999999/1" value="0" leadInLength="0/1"  />
            <InterpolatingParam id="2035" interp="linr"  time="-9999999/1" value="0" leadInLength="0/1"  />
           </VectorParam>
           <VectorParam id="2036"  name="scale">
            <InterpolatingParam id="2037" interp="linr"  time="-9999999/1" value="1.0000000000000002" leadInLength="0/1"  />
            <InterpolatingParam id="2038" interp="linr"  time="-9999999/1" value="1.0000000000000002" leadInLength="0/1"  />
            <InterpolatingParam id="2039" interp="linr"  time="-9999999/1" value="0.99999999999999989" leadInLength="0/1"  />
           </VectorParam>
           <VectorParam id="2040"  name="anchor">
            <InterpolatingParam id="2041" interp="linr"  time="0/1" value="0" leadInLength="0/1"  />
            <InterpolatingParam id="2042" interp="linr"  time="0/1" value="0" leadInLength="0/1"  />
            <InterpolatingParam id="2043" interp="linr"  time="0/1" value="0" leadInLength="0/1"  />
           </VectorParam>
          </Transformer>
          <Parameters>
           <VectorParam id="2044"  name="sourceCrop">
            <InterpolatingParam id="2045" interp="linr"  time="0/1" value="0" leadInLength="0/1"  />
            <InterpolatingParam id="2046" interp="linr"  time="0/1" value="0" leadInLength="0/1"  />
            <InterpolatingParam id="2047" interp="linr"  time="0/1" value="0" leadInLength="0/1"  />
            <InterpolatingParam id="2048" interp="linr"  time="0/1" value="0" leadInLength="0/1"  />
           </VectorParam>
           <VectorParam id="2049"  name="geometryCrop">
            <InterpolatingParam id="2050" interp="linr"  time="-9999999/1" value="0" leadInLength="0/1"  />
            <InterpolatingParam id="2051" interp="linr"  time="-9999999/1" value="0" leadInLength="0/1"  />
            <InterpolatingParam id="2052" interp="linr"  time="-9999999/1" value="0" leadInLength="0/1"  />
            <InterpolatingParam id="2053" interp="linr"  time="-9999999/1" value="0" leadInLength="0/1"  />
           </VectorParam>
           <InterpolatingParam id="2054" interp="linr"  time="-9999999/1" value="1" leadInLength="0/1"  name="opacity"/>
          </Parameters>
          <Attributes>
           <Attribute id="2055" value="" name="ident"/>
          </Attributes>
          <ExtraData>
           <Entry key="ZoomPanBin">
            <ZoomPanBin id="2056"  >
             <ZoomPanKeyframes>
              <ZoomPanKeyframe id="2057" timeRangeEnd="-9999999/1" timeRangeDuration="0/1" interpolaterName="linr"  />
             </ZoomPanKeyframes>
            </ZoomPanBin>
           </Entry>
          </ExtraData>
         </VMFile>
         <MetaData>
          <entry key="WinSubProjectDisplayName" val=""/>
         </MetaData>
        </UnifiedMedia>
        <UnifiedMedia id="2058"  >
         <AMFile id="2059" start="6329" duration="398" scalar="1751399/1250270" mediaStart="2386494992/360841" mediaDuration="2500540/8801" trackNumber="1" src="21" channelNumber="0,1" >
          <Parameters>
           <InterpolatingParam id="2060" interp="linr"  name="volume">
            <Keyframes>
            <Keyframe id="2061"  time="-1/1" value="1" leadInLength="0/1"  />
            <Keyframe id="2062"  time="0/1" value="0" leadInLength="0/1"  />
            <Keyframe id="2063"  time="8952/1" value="0" leadInLength="0/1"  />
            <Keyframe id="2064"  time="8953/1" value="1" leadInLength="0/1"  />
            </Keyframes>
           </InterpolatingParam>
           <Parameter id="2065"  name="captions"/>
          </Parameters>
          <Attributes>
           <Attribute id="2066" value="" name="ident"/>
           <Attribute id="2067" value="44100" name="sampleRate"/>
           <Attribute id="2068" value="16" name="bitDepth"/>
           <Attribute id="2069" value="1" name="gain"/>
           <Attribute id="2070" value="0" name="mixToMono"/>
          </Attributes>
         </AMFile>
         <VMFile id="2071" start="6329" duration="398" scalar="1751399/1250270" mediaStart="2386494992/360841" mediaDuration="2500540/8801" trackNumber="0" src="21" >
          <Transformer>
           <VectorParam id="2072"  name="translation">
            <InterpolatingParam id="2073" interp="linr"  time="-9999999/1" value="0" leadInLength="0/1"  />
            <InterpolatingParam id="2074" interp="linr"  time="-9999999/1" value="0" leadInLength="0/1"  />
            <InterpolatingParam id="2075" interp="linr"  time="-9999999/1" value="0" leadInLength="0/1"  />
           </VectorParam>
           <VectorParam id="2076"  name="rotation">
            <InterpolatingParam id="2077" interp="linr"  time="-9999999/1" value="0" leadInLength="0/1"  />
            <InterpolatingParam id="2078" interp="linr"  time="-9999999/1" value="0" leadInLength="0/1"  />
            <InterpolatingParam id="2079" interp="linr"  time="-9999999/1" value="0" leadInLength="0/1"  />
           </VectorParam>
           <VectorParam id="2080"  name="shear">
            <InterpolatingParam id="2081" interp="linr"  time="-9999999/1" value="0" leadInLength="0/1"  />
            <InterpolatingParam id="2082" interp="linr"  time="-9999999/1" value="0" leadInLength="0/1"  />
            <InterpolatingParam id="2083" interp="linr"  time="-9999999/1" value="0" leadInLength="0/1"  />
           </VectorParam>
           <VectorParam id="2084"  name="scale">
            <InterpolatingParam id="2085" interp="linr"  time="-9999999/1" value="1" leadInLength="0/1"  />
            <InterpolatingParam id="2086" interp="linr"  time="-9999999/1" value="1" leadInLength="0/1"  />
            <InterpolatingParam id="2087" interp="linr"  time="-9999999/1" value="1" leadInLength="0/1"  />
           </VectorParam>
           <VectorParam id="2088"  name="anchor">
            <InterpolatingParam id="2089" interp="linr"  time="0/1" value="0" leadInLength="0/1"  />
            <InterpolatingParam id="2090" interp="linr"  time="0/1" value="0" leadInLength="0/1"  />
            <InterpolatingParam id="2091" interp="linr"  time="0/1" value="0" leadInLength="0/1"  />
           </VectorParam>
          </Transformer>
          <Parameters>
           <VectorParam id="2092"  name="sourceCrop">
            <InterpolatingParam id="2093" interp="linr"  time="0/1" value="0" leadInLength="0/1"  />
            <InterpolatingParam id="2094" interp="linr"  time="0/1" value="0" leadInLength="0/1"  />
            <InterpolatingParam id="2095" interp="linr"  time="0/1" value="0" leadInLength="0/1"  />
            <InterpolatingParam id="2096" interp="linr"  time="0/1" value="0" leadInLength="0/1"  />
           </VectorParam>
           <VectorParam id="2097"  name="geometryCrop">
            <InterpolatingParam id="2098" interp="linr"  time="-9999999/1" value="0" leadInLength="0/1"  />
            <InterpolatingParam id="2099" interp="linr"  time="-9999999/1" value="0" leadInLength="0/1"  />
            <InterpolatingParam id="2100" interp="linr"  time="-9999999/1" value="0" leadInLength="0/1"  />
            <InterpolatingParam id="2101" interp="linr"  time="-9999999/1" value="0" leadInLength="0/1"  />
           </VectorParam>
           <InterpolatingParam id="2102" interp="linr"  time="-9999999/1" value="1" leadInLength="0/1"  name="opacity"/>
          </Parameters>
          <Attributes>
           <Attribute id="2103" value="" name="ident"/>
          </Attributes>
          <ExtraData>
           <Entry key="ZoomPanBin">
            <ZoomPanBin id="2104"  >
             <ZoomPanKeyframes>
              <ZoomPanKeyframe id="2105" timeRangeEnd="-9999999/1" timeRangeDuration="0/1" interpolaterName="linr"  />
             </ZoomPanKeyframes>
            </ZoomPanBin>
           </Entry>
          </ExtraData>
         </VMFile>
         <MetaData>
          <entry key="WinSubProjectDisplayName" val=""/>
         </MetaData>
        </UnifiedMedia>
        <UnifiedMedia id="2106"  >
         <AMFile id="2107" start="6727" duration="139" scalar="414245468/207312627" mediaStart="425335760/61607" mediaDuration="28816455153/414245468" trackNumber="1" src="21" channelNumber="0,1" >
          <Parameters>
           <InterpolatingParam id="2108" interp="linr"  name="volume">
            <Keyframes>
            <Keyframe id="2109"  time="-1/1" value="1" leadInLength="0/1"  />
            <Keyframe id="2110"  time="0/1" value="0" leadInLength="0/1"  />
            <Keyframe id="2111"  time="8952/1" value="0" leadInLength="0/1"  />
            <Keyframe id="2112"  time="8953/1" value="1" leadInLength="0/1"  />
            </Keyframes>
           </InterpolatingParam>
           <Parameter id="2113"  name="captions"/>
          </Parameters>
          <Attributes>
           <Attribute id="2114" value="" name="ident"/>
           <Attribute id="2115" value="44100" name="sampleRate"/>
           <Attribute id="2116" value="16" name="bitDepth"/>
           <Attribute id="2117" value="1" name="gain"/>
           <Attribute id="2118" value="0" name="mixToMono"/>
          </Attributes>
         </AMFile>
         <VMFile id="2119" start="6727" duration="139" scalar="414245468/207312627" mediaStart="425335760/61607" mediaDuration="28816455153/414245468" trackNumber="0" src="21" >
          <Transformer>
           <VectorParam id="2120"  name="translation">
            <InterpolatingParam id="2121" interp="linr"  time="-9999999/1" value="0" leadInLength="0/1"  />
            <InterpolatingParam id="2122" interp="linr"  time="-9999999/1" value="0" leadInLength="0/1"  />
            <InterpolatingParam id="2123" interp="linr"  time="-9999999/1" value="0" leadInLength="0/1"  />
           </VectorParam>
           <VectorParam id="2124"  name="rotation">
            <InterpolatingParam id="2125" interp="linr"  time="-9999999/1" value="0" leadInLength="0/1"  />
            <InterpolatingParam id="2126" interp="linr"  time="-9999999/1" value="0" leadInLength="0/1"  />
            <InterpolatingParam id="2127" interp="linr"  time="-9999999/1" value="0" leadInLength="0/1"  />
           </VectorParam>
           <VectorParam id="2128"  name="shear">
            <InterpolatingParam id="2129" interp="linr"  time="-9999999/1" value="0" leadInLength="0/1"  />
            <InterpolatingParam id="2130" interp="linr"  time="-9999999/1" value="0" leadInLength="0/1"  />
            <InterpolatingParam id="2131" interp="linr"  time="-9999999/1" value="0" leadInLength="0/1"  />
           </VectorParam>
           <VectorParam id="2132"  name="scale">
            <InterpolatingParam id="2133" interp="linr"  time="-9999999/1" value="1" leadInLength="0/1"  />
            <InterpolatingParam id="2134" interp="linr"  time="-9999999/1" value="1" leadInLength="0/1"  />
            <InterpolatingParam id="2135" interp="linr"  time="-9999999/1" value="1" leadInLength="0/1"  />
           </VectorParam>
           <VectorParam id="2136"  name="anchor">
            <InterpolatingParam id="2137" interp="linr"  time="0/1" value="0" leadInLength="0/1"  />
            <InterpolatingParam id="2138" interp="linr"  time="0/1" value="0" leadInLength="0/1"  />
            <InterpolatingParam id="2139" interp="linr"  time="0/1" value="0" leadInLength="0/1"  />
           </VectorParam>
          </Transformer>
          <Parameters>
           <VectorParam id="2140"  name="sourceCrop">
            <InterpolatingParam id="2141" interp="linr"  time="0/1" value="0" leadInLength="0/1"  />
            <InterpolatingParam id="2142" interp="linr"  time="0/1" value="0" leadInLength="0/1"  />
            <InterpolatingParam id="2143" interp="linr"  time="0/1" value="0" leadInLength="0/1"  />
            <InterpolatingParam id="2144" interp="linr"  time="0/1" value="0" leadInLength="0/1"  />
           </VectorParam>
           <VectorParam id="2145"  name="geometryCrop">
            <InterpolatingParam id="2146" interp="linr"  time="-9999999/1" value="0" leadInLength="0/1"  />
            <InterpolatingParam id="2147" interp="linr"  time="-9999999/1" value="0" leadInLength="0/1"  />
            <InterpolatingParam id="2148" interp="linr"  time="-9999999/1" value="0" leadInLength="0/1"  />
            <InterpolatingParam id="2149" interp="linr"  time="-9999999/1" value="0" leadInLength="0/1"  />
           </VectorParam>
           <InterpolatingParam id="2150" interp="linr"  time="-9999999/1" value="1" leadInLength="0/1"  name="opacity"/>
          </Parameters>
          <Attributes>
           <Attribute id="2151" value="" name="ident"/>
          </Attributes>
          <ExtraData>
           <Entry key="ZoomPanBin">
            <ZoomPanBin id="2152"  >
             <ZoomPanKeyframes>
              <ZoomPanKeyframe id="2153" timeRangeEnd="-9999999/1" timeRangeDuration="0/1" interpolaterName="linr"  />
             </ZoomPanKeyframes>
            </ZoomPanBin>
           </Entry>
          </ExtraData>
         </VMFile>
         <MetaData>
          <entry key="WinSubProjectDisplayName" val=""/>
         </MetaData>
        </UnifiedMedia>
        <StitchedMedia id="2154" start="6866" duration="32" scalar="52327/29485" mediaStart="3375/104654" mediaDuration="943520/52327" minMediaStart="-5833616625/104654" >
         <Transformer>
          <VectorParam id="2155"  name="translation">
           <InterpolatingParam id="2156" interp="linr"  time="-9999999/1" value="0" leadInLength="0/1"  />
           <InterpolatingParam id="2157" interp="linr"  time="-9999999/1" value="0" leadInLength="0/1"  />
           <InterpolatingParam id="2158" interp="linr"  time="-9999999/1" value="0" leadInLength="0/1"  />
          </VectorParam>
          <VectorParam id="2159"  name="rotation">
           <InterpolatingParam id="2160" interp="linr"  time="-9999999/1" value="0" leadInLength="0/1"  />
           <InterpolatingParam id="2161" interp="linr"  time="-9999999/1" value="0" leadInLength="0/1"  />
           <InterpolatingParam id="2162" interp="linr"  time="-9999999/1" value="0" leadInLength="0/1"  />
          </VectorParam>
          <VectorParam id="2163"  name="shear">
           <InterpolatingParam id="2164" interp="linr"  time="-9999999/1" value="0" leadInLength="0/1"  />
           <InterpolatingParam id="2165" interp="linr"  time="-9999999/1" value="0" leadInLength="0/1"  />
           <InterpolatingParam id="2166" interp="linr"  time="-9999999/1" value="0" leadInLength="0/1"  />
          </VectorParam>
          <VectorParam id="2167"  name="scale">
           <InterpolatingParam id="2168" interp="linr"  time="-9999999/1" value="1" leadInLength="0/1"  />
           <InterpolatingParam id="2169" interp="linr"  time="-9999999/1" value="1" leadInLength="0/1"  />
           <InterpolatingParam id="2170" interp="linr"  time="-9999999/1" value="1" leadInLength="0/1"  />
          </VectorParam>
          <VectorParam id="2171"  name="anchor">
           <InterpolatingParam id="2172" interp="linr"  time="0/1" value="0" leadInLength="0/1"  />
           <InterpolatingParam id="2173" interp="linr"  time="0/1" value="0" leadInLength="0/1"  />
           <InterpolatingParam id="2174" interp="linr"  time="0/1" value="0" leadInLength="0/1"  />
          </VectorParam>
         </Transformer>
         <Parameters>
          <VectorParam id="2175"  name="sourceCrop">
           <InterpolatingParam id="2176" interp="linr"  time="0/1" value="0" leadInLength="0/1"  />
           <InterpolatingParam id="2177" interp="linr"  time="0/1" value="0" leadInLength="0/1"  />
           <InterpolatingParam id="2178" interp="linr"  time="0/1" value="0" leadInLength="0/1"  />
           <InterpolatingParam id="2179" interp="linr"  time="0/1" value="0" leadInLength="0/1"  />
          </VectorParam>
          <VectorParam id="2180"  name="geometryCrop">
           <InterpolatingParam id="2181" interp="linr"  time="-9999999/1" value="0" leadInLength="0/1"  />
           <InterpolatingParam id="2182" interp="linr"  time="-9999999/1" value="0" leadInLength="0/1"  />
           <InterpolatingParam id="2183" interp="linr"  time="-9999999/1" value="0" leadInLength="0/1"  />
           <InterpolatingParam id="2184" interp="linr"  time="-9999999/1" value="0" leadInLength="0/1"  />
          </VectorParam>
          <InterpolatingParam id="2185" interp="linr"  time="-9999999/1" value="1" leadInLength="0/1"  name="opacity"/>
          <InterpolatingParam id="2186" interp="linr"  time="0/1" value="1" leadInLength="0/1"  name="cursorOpacity"/>
          <InterpolatingParam id="2187" interp="linr"  time="0/1" value="1" leadInLength="0/1"  name="cursorScale"/>
          <InterpolatingParam id="2188" interp="linr"  name="volume">
           <Keyframes>
           <Keyframe id="2189"  time="-5833616625/104654" value="0" leadInLength="0/1"  />
           <Keyframe id="2190"  time="143611/9514" value="0" leadInLength="0/1"  />
           <Keyframe id="2191"  time="17/1" value="0" leadInLength="0/1"  />
           </Keyframes>
          </InterpolatingParam>
          <Parameter id="2192"  name="captions"/>
         </Parameters>
         <Attributes>
          <Attribute id="2193" value="" name="ident"/>
          <Attribute id="2194" value="0" name="mixToMono"/>
         </Attributes>
         <MetaData>
          <entry key="WinSubProjectDisplayName" val=""/>
         </MetaData>
         <ExtraData>
          <Entry key="ZoomPanBin">
           <ZoomPanBin id="2195"  >
            <ZoomPanKeyframes>
             <ZoomPanKeyframe id="2196" timeRangeEnd="-9999999/1" timeRangeDuration="0/1" interpolaterName="linr"  />
            </ZoomPanKeyframes>
           </ZoomPanBin>
          </Entry>
          <Entry key="CursorEffectBin">
           <CursorEffectBin id="2197"  >
            <CursorEffectKeyframes>
            </CursorEffectKeyframes>
           </CursorEffectBin>
          </Entry>
         </ExtraData>
         <GenericTrack id="2198"  >
          <Attributes>
           <Attribute id="2199" value="" name="ident"/>
           <Attribute id="2200" value="0" name="audioMuted"/>
           <Attribute id="2201" value="0" name="videoHidden"/>
          </Attributes>
          <MetaData>
           <entry key="IsLocked" val="False"/>
           <entry key="WinTrackHeight" val="0"/>
          </MetaData>
          <Medias>
           <IMFile id="2202" start="-55742" duration="55758" scalar="1/1" mediaStart="6973/1" mediaDuration="1/1" trackNumber="0" src="21" trimStartSum="-55742/1" >
            <Transformer>
             <VectorParam id="2203"  name="translation">
              <InterpolatingParam id="2204" interp="linr"  time="-9999999/1" value="0" leadInLength="0/1"  />
              <InterpolatingParam id="2205" interp="linr"  time="-9999999/1" value="0" leadInLength="0/1"  />
              <InterpolatingParam id="2206" interp="linr"  time="-9999999/1" value="0" leadInLength="0/1"  />
             </VectorParam>
             <VectorParam id="2207"  name="rotation">
              <InterpolatingParam id="2208" interp="linr"  time="-9999999/1" value="0" leadInLength="0/1"  />
              <InterpolatingParam id="2209" interp="linr"  time="-9999999/1" value="0" leadInLength="0/1"  />
              <InterpolatingParam id="2210" interp="linr"  time="-9999999/1" value="0" leadInLength="0/1"  />
             </VectorParam>
             <VectorParam id="2211"  name="shear">
              <InterpolatingParam id="2212" interp="linr"  time="-9999999/1" value="0" leadInLength="0/1"  />
              <InterpolatingParam id="2213" interp="linr"  time="-9999999/1" value="0" leadInLength="0/1"  />
              <InterpolatingParam id="2214" interp="linr"  time="-9999999/1" value="0" leadInLength="0/1"  />
             </VectorParam>
             <VectorParam id="2215"  name="scale">
              <InterpolatingParam id="2216" interp="linr"  time="-9999999/1" value="1" leadInLength="0/1"  />
              <InterpolatingParam id="2217" interp="linr"  time="-9999999/1" value="1" leadInLength="0/1"  />
              <InterpolatingParam id="2218" interp="linr"  time="-9999999/1" value="1" leadInLength="0/1"  />
             </VectorParam>
             <VectorParam id="2219"  name="anchor">
              <InterpolatingParam id="2220" interp="linr"  time="0/1" value="0" leadInLength="0/1"  />
              <InterpolatingParam id="2221" interp="linr"  time="0/1" value="0" leadInLength="0/1"  />
              <InterpolatingParam id="2222" interp="linr"  time="0/1" value="0" leadInLength="0/1"  />
             </VectorParam>
            </Transformer>
            <Parameters>
             <VectorParam id="2223"  name="sourceCrop">
              <InterpolatingParam id="2224" interp="linr"  time="0/1" value="0" leadInLength="0/1"  />
              <InterpolatingParam id="2225" interp="linr"  time="0/1" value="0" leadInLength="0/1"  />
              <InterpolatingParam id="2226" interp="linr"  time="0/1" value="0" leadInLength="0/1"  />
              <InterpolatingParam id="2227" interp="linr"  time="0/1" value="0" leadInLength="0/1"  />
             </VectorParam>
             <VectorParam id="2228"  name="geometryCrop">
              <InterpolatingParam id="2229" interp="linr"  time="-9999999/1" value="0" leadInLength="0/1"  />
              <InterpolatingParam id="2230" interp="linr"  time="-9999999/1" value="0" leadInLength="0/1"  />
              <InterpolatingParam id="2231" interp="linr"  time="-9999999/1" value="0" leadInLength="0/1"  />
              <InterpolatingParam id="2232" interp="linr"  time="-9999999/1" value="0" leadInLength="0/1"  />
             </VectorParam>
             <InterpolatingParam id="2233" interp="linr"  time="-9999999/1" value="1" leadInLength="0/1"  name="opacity"/>
            </Parameters>
            <Attributes>
             <Attribute id="2234" value="" name="ident"/>
            </Attributes>
            <MetaData>
             <entry key="WinSubProjectDisplayName" val=""/>
            </MetaData>
            <ExtraData>
             <Entry key="ZoomPanBin">
              <ZoomPanBin id="2235"  >
               <ZoomPanKeyframes>
                <ZoomPanKeyframe id="2236" timeRangeEnd="-9999999/1" timeRangeDuration="0/1" interpolaterName="linr"  />
               </ZoomPanKeyframes>
              </ZoomPanBin>
             </Entry>
            </ExtraData>
           </IMFile>
           <UnifiedMedia id="2237"  >
            <AMFile id="2238" start="16" duration="1979" scalar="1/1" mediaStart="6973/1" mediaDuration="1979/1" trackNumber="1" src="21" channelNumber="0,1" >
             <Parameters>
              <InterpolatingParam id="2239" interp="linr"  time="0/1" value="1" leadInLength="0/1"  name="volume"/>
              <Parameter id="2240"  name="captions"/>
             </Parameters>
             <Attributes>
              <Attribute id="2241" value="" name="ident"/>
              <Attribute id="2242" value="44100" name="sampleRate"/>
              <Attribute id="2243" value="16" name="bitDepth"/>
              <Attribute id="2244" value="1" name="gain"/>
              <Attribute id="2245" value="0" name="mixToMono"/>
             </Attributes>
            </AMFile>
            <VMFile id="2246" start="16" duration="1979" scalar="1/1" mediaStart="6973/1" mediaDuration="1979/1" trackNumber="0" src="21" >
             <Transformer>
              <VectorParam id="2247"  name="translation">
               <InterpolatingParam id="2248" interp="linr"  time="-9999999/1" value="0" leadInLength="0/1"  />
               <InterpolatingParam id="2249" interp="linr"  time="-9999999/1" value="0" leadInLength="0/1"  />
               <InterpolatingParam id="2250" interp="linr"  time="-9999999/1" value="0" leadInLength="0/1"  />
              </VectorParam>
              <VectorParam id="2251"  name="rotation">
               <InterpolatingParam id="2252" interp="linr"  time="-9999999/1" value="0" leadInLength="0/1"  />
               <InterpolatingParam id="2253" interp="linr"  time="-9999999/1" value="0" leadInLength="0/1"  />
               <InterpolatingParam id="2254" interp="linr"  time="-9999999/1" value="0" leadInLength="0/1"  />
              </VectorParam>
              <VectorParam id="2255"  name="shear">
               <InterpolatingParam id="2256" interp="linr"  time="-9999999/1" value="0" leadInLength="0/1"  />
               <InterpolatingParam id="2257" interp="linr"  time="-9999999/1" value="0" leadInLength="0/1"  />
               <InterpolatingParam id="2258" interp="linr"  time="-9999999/1" value="0" leadInLength="0/1"  />
              </VectorParam>
              <VectorParam id="2259"  name="scale">
               <InterpolatingParam id="2260" interp="linr"  time="-9999999/1" value="1" leadInLength="0/1"  />
               <InterpolatingParam id="2261" interp="linr"  time="-9999999/1" value="1" leadInLength="0/1"  />
               <InterpolatingParam id="2262" interp="linr"  time="-9999999/1" value="1" leadInLength="0/1"  />
              </VectorParam>
              <VectorParam id="2263"  name="anchor">
               <InterpolatingParam id="2264" interp="linr"  time="0/1" value="0" leadInLength="0/1"  />
               <InterpolatingParam id="2265" interp="linr"  time="0/1" value="0" leadInLength="0/1"  />
               <InterpolatingParam id="2266" interp="linr"  time="0/1" value="0" leadInLength="0/1"  />
              </VectorParam>
             </Transformer>
             <Parameters>
              <VectorParam id="2267"  name="sourceCrop">
               <InterpolatingParam id="2268" interp="linr"  time="0/1" value="0" leadInLength="0/1"  />
               <InterpolatingParam id="2269" interp="linr"  time="0/1" value="0" leadInLength="0/1"  />
               <InterpolatingParam id="2270" interp="linr"  time="0/1" value="0" leadInLength="0/1"  />
               <InterpolatingParam id="2271" interp="linr"  time="0/1" value="0" leadInLength="0/1"  />
              </VectorParam>
              <VectorParam id="2272"  name="geometryCrop">
               <InterpolatingParam id="2273" interp="linr"  time="-9999999/1" value="0" leadInLength="0/1"  />
               <InterpolatingParam id="2274" interp="linr"  time="-9999999/1" value="0" leadInLength="0/1"  />
               <InterpolatingParam id="2275" interp="linr"  time="-9999999/1" value="0" leadInLength="0/1"  />
               <InterpolatingParam id="2276" interp="linr"  time="-9999999/1" value="0" leadInLength="0/1"  />
              </VectorParam>
              <InterpolatingParam id="2277" interp="linr"  time="-9999999/1" value="1" leadInLength="0/1"  name="opacity"/>
             </Parameters>
             <Attributes>
              <Attribute id="2278" value="" name="ident"/>
             </Attributes>
             <ExtraData>
              <Entry key="ZoomPanBin">
               <ZoomPanBin id="2279"  >
                <ZoomPanKeyframes>
                 <ZoomPanKeyframe id="2280" timeRangeEnd="-9999999/1" timeRangeDuration="0/1" interpolaterName="linr"  />
                </ZoomPanKeyframes>
               </ZoomPanBin>
              </Entry>
             </ExtraData>
            </VMFile>
            <MetaData>
             <entry key="WinSubProjectDisplayName" val=""/>
            </MetaData>
           </UnifiedMedia>
          </Medias>
         </GenericTrack>
        </StitchedMedia>
        <StitchedMedia id="2281" start="6898" duration="32" scalar="52327/29485" mediaStart="3375/104654" mediaDuration="943520/52327" minMediaStart="-5833616625/104654" >
         <Transformer>
          <VectorParam id="2282"  name="translation">
           <InterpolatingParam id="2283" interp="linr"  time="-9999999/1" value="0" leadInLength="0/1"  />
           <InterpolatingParam id="2284" interp="linr"  time="-9999999/1" value="0" leadInLength="0/1"  />
           <InterpolatingParam id="2285" interp="linr"  time="-9999999/1" value="0" leadInLength="0/1"  />
          </VectorParam>
          <VectorParam id="2286"  name="rotation">
           <InterpolatingParam id="2287" interp="linr"  time="-9999999/1" value="0" leadInLength="0/1"  />
           <InterpolatingParam id="2288" interp="linr"  time="-9999999/1" value="0" leadInLength="0/1"  />
           <InterpolatingParam id="2289" interp="linr"  time="-9999999/1" value="0" leadInLength="0/1"  />
          </VectorParam>
          <VectorParam id="2290"  name="shear">
           <InterpolatingParam id="2291" interp="linr"  time="-9999999/1" value="0" leadInLength="0/1"  />
           <InterpolatingParam id="2292" interp="linr"  time="-9999999/1" value="0" leadInLength="0/1"  />
           <InterpolatingParam id="2293" interp="linr"  time="-9999999/1" value="0" leadInLength="0/1"  />
          </VectorParam>
          <VectorParam id="2294"  name="scale">
           <InterpolatingParam id="2295" interp="linr"  time="-9999999/1" value="1" leadInLength="0/1"  />
           <InterpolatingParam id="2296" interp="linr"  time="-9999999/1" value="1" leadInLength="0/1"  />
           <InterpolatingParam id="2297" interp="linr"  time="-9999999/1" value="1" leadInLength="0/1"  />
          </VectorParam>
          <VectorParam id="2298"  name="anchor">
           <InterpolatingParam id="2299" interp="linr"  time="0/1" value="0" leadInLength="0/1"  />
           <InterpolatingParam id="2300" interp="linr"  time="0/1" value="0" leadInLength="0/1"  />
           <InterpolatingParam id="2301" interp="linr"  time="0/1" value="0" leadInLength="0/1"  />
          </VectorParam>
         </Transformer>
         <Parameters>
          <VectorParam id="2302"  name="sourceCrop">
           <InterpolatingParam id="2303" interp="linr"  time="0/1" value="0" leadInLength="0/1"  />
           <InterpolatingParam id="2304" interp="linr"  time="0/1" value="0" leadInLength="0/1"  />
           <InterpolatingParam id="2305" interp="linr"  time="0/1" value="0" leadInLength="0/1"  />
           <InterpolatingParam id="2306" interp="linr"  time="0/1" value="0" leadInLength="0/1"  />
          </VectorParam>
          <VectorParam id="2307"  name="geometryCrop">
           <InterpolatingParam id="2308" interp="linr"  time="-9999999/1" value="0" leadInLength="0/1"  />
           <InterpolatingParam id="2309" interp="linr"  time="-9999999/1" value="0" leadInLength="0/1"  />
           <InterpolatingParam id="2310" interp="linr"  time="-9999999/1" value="0" leadInLength="0/1"  />
           <InterpolatingParam id="2311" interp="linr"  time="-9999999/1" value="0" leadInLength="0/1"  />
          </VectorParam>
          <InterpolatingParam id="2312" interp="linr"  time="-9999999/1" value="1" leadInLength="0/1"  name="opacity"/>
          <InterpolatingParam id="2313" interp="linr"  time="0/1" value="1" leadInLength="0/1"  name="cursorOpacity"/>
          <InterpolatingParam id="2314" interp="linr"  time="0/1" value="1" leadInLength="0/1"  name="cursorScale"/>
          <InterpolatingParam id="2315" interp="linr"  name="volume">
           <Keyframes>
           <Keyframe id="2316"  time="-5833616625/104654" value="0" leadInLength="0/1"  />
           <Keyframe id="2317"  time="143611/9514" value="0" leadInLength="0/1"  />
           <Keyframe id="2318"  time="17/1" value="0" leadInLength="0/1"  />
           </Keyframes>
          </InterpolatingParam>
          <Parameter id="2319"  name="captions"/>
         </Parameters>
         <Attributes>
          <Attribute id="2320" value="" name="ident"/>
          <Attribute id="2321" value="0" name="mixToMono"/>
         </Attributes>
         <MetaData>
          <entry key="WinSubProjectDisplayName" val=""/>
         </MetaData>
         <ExtraData>
          <Entry key="ZoomPanBin">
           <ZoomPanBin id="2322"  >
            <ZoomPanKeyframes>
             <ZoomPanKeyframe id="2323" timeRangeEnd="-9999999/1" timeRangeDuration="0/1" interpolaterName="linr"  />
            </ZoomPanKeyframes>
           </ZoomPanBin>
          </Entry>
          <Entry key="CursorEffectBin">
           <CursorEffectBin id="2324"  >
            <CursorEffectKeyframes>
            </CursorEffectKeyframes>
           </CursorEffectBin>
          </Entry>
         </ExtraData>
         <GenericTrack id="2325"  >
          <Attributes>
           <Attribute id="2326" value="" name="ident"/>
           <Attribute id="2327" value="0" name="audioMuted"/>
           <Attribute id="2328" value="0" name="videoHidden"/>
          </Attributes>
          <MetaData>
           <entry key="IsLocked" val="False"/>
           <entry key="WinTrackHeight" val="0"/>
          </MetaData>
          <Medias>
           <IMFile id="2329" start="-55742" duration="55758" scalar="1/1" mediaStart="6973/1" mediaDuration="1/1" trackNumber="0" src="21" trimStartSum="-55742/1" >
            <Transformer>
             <VectorParam id="2330"  name="translation">
              <InterpolatingParam id="2331" interp="linr"  time="-9999999/1" value="0" leadInLength="0/1"  />
              <InterpolatingParam id="2332" interp="linr"  time="-9999999/1" value="0" leadInLength="0/1"  />
              <InterpolatingParam id="2333" interp="linr"  time="-9999999/1" value="0" leadInLength="0/1"  />
             </VectorParam>
             <VectorParam id="2334"  name="rotation">
              <InterpolatingParam id="2335" interp="linr"  time="-9999999/1" value="0" leadInLength="0/1"  />
              <InterpolatingParam id="2336" interp="linr"  time="-9999999/1" value="0" leadInLength="0/1"  />
              <InterpolatingParam id="2337" interp="linr"  time="-9999999/1" value="0" leadInLength="0/1"  />
             </VectorParam>
             <VectorParam id="2338"  name="shear">
              <InterpolatingParam id="2339" interp="linr"  time="-9999999/1" value="0" leadInLength="0/1"  />
              <InterpolatingParam id="2340" interp="linr"  time="-9999999/1" value="0" leadInLength="0/1"  />
              <InterpolatingParam id="2341" interp="linr"  time="-9999999/1" value="0" leadInLength="0/1"  />
             </VectorParam>
             <VectorParam id="2342"  name="scale">
              <InterpolatingParam id="2343" interp="linr"  time="-9999999/1" value="1" leadInLength="0/1"  />
              <InterpolatingParam id="2344" interp="linr"  time="-9999999/1" value="1" leadInLength="0/1"  />
              <InterpolatingParam id="2345" interp="linr"  time="-9999999/1" value="1" leadInLength="0/1"  />
             </VectorParam>
             <VectorParam id="2346"  name="anchor">
              <InterpolatingParam id="2347" interp="linr"  time="0/1" value="0" leadInLength="0/1"  />
              <InterpolatingParam id="2348" interp="linr"  time="0/1" value="0" leadInLength="0/1"  />
              <InterpolatingParam id="2349" interp="linr"  time="0/1" value="0" leadInLength="0/1"  />
             </VectorParam>
            </Transformer>
            <Parameters>
             <VectorParam id="2350"  name="sourceCrop">
              <InterpolatingParam id="2351" interp="linr"  time="0/1" value="0" leadInLength="0/1"  />
              <InterpolatingParam id="2352" interp="linr"  time="0/1" value="0" leadInLength="0/1"  />
              <InterpolatingParam id="2353" interp="linr"  time="0/1" value="0" leadInLength="0/1"  />
              <InterpolatingParam id="2354" interp="linr"  time="0/1" value="0" leadInLength="0/1"  />
             </VectorParam>
             <VectorParam id="2355"  name="geometryCrop">
              <InterpolatingParam id="2356" interp="linr"  time="-9999999/1" value="0" leadInLength="0/1"  />
              <InterpolatingParam id="2357" interp="linr"  time="-9999999/1" value="0" leadInLength="0/1"  />
              <InterpolatingParam id="2358" interp="linr"  time="-9999999/1" value="0" leadInLength="0/1"  />
              <InterpolatingParam id="2359" interp="linr"  time="-9999999/1" value="0" leadInLength="0/1"  />
             </VectorParam>
             <InterpolatingParam id="2360" interp="linr"  time="-9999999/1" value="1" leadInLength="0/1"  name="opacity"/>
            </Parameters>
            <Attributes>
             <Attribute id="2361" value="" name="ident"/>
            </Attributes>
            <MetaData>
             <entry key="WinSubProjectDisplayName" val=""/>
            </MetaData>
            <ExtraData>
             <Entry key="ZoomPanBin">
              <ZoomPanBin id="2362"  >
               <ZoomPanKeyframes>
                <ZoomPanKeyframe id="2363" timeRangeEnd="-9999999/1" timeRangeDuration="0/1" interpolaterName="linr"  />
               </ZoomPanKeyframes>
              </ZoomPanBin>
             </Entry>
            </ExtraData>
           </IMFile>
           <UnifiedMedia id="2364"  >
            <AMFile id="2365" start="16" duration="1979" scalar="1/1" mediaStart="6973/1" mediaDuration="1979/1" trackNumber="1" src="21" channelNumber="0,1" >
             <Parameters>
              <InterpolatingParam id="2366" interp="linr"  time="0/1" value="1" leadInLength="0/1"  name="volume"/>
              <Parameter id="2367"  name="captions"/>
             </Parameters>
             <Attributes>
              <Attribute id="2368" value="" name="ident"/>
              <Attribute id="2369" value="44100" name="sampleRate"/>
              <Attribute id="2370" value="16" name="bitDepth"/>
              <Attribute id="2371" value="1" name="gain"/>
              <Attribute id="2372" value="0" name="mixToMono"/>
             </Attributes>
            </AMFile>
            <VMFile id="2373" start="16" duration="1979" scalar="1/1" mediaStart="6973/1" mediaDuration="1979/1" trackNumber="0" src="21" >
             <Transformer>
              <VectorParam id="2374"  name="translation">
               <InterpolatingParam id="2375" interp="linr"  time="-9999999/1" value="0" leadInLength="0/1"  />
               <InterpolatingParam id="2376" interp="linr"  time="-9999999/1" value="0" leadInLength="0/1"  />
               <InterpolatingParam id="2377" interp="linr"  time="-9999999/1" value="0" leadInLength="0/1"  />
              </VectorParam>
              <VectorParam id="2378"  name="rotation">
               <InterpolatingParam id="2379" interp="linr"  time="-9999999/1" value="0" leadInLength="0/1"  />
               <InterpolatingParam id="2380" interp="linr"  time="-9999999/1" value="0" leadInLength="0/1"  />
               <InterpolatingParam id="2381" interp="linr"  time="-9999999/1" value="0" leadInLength="0/1"  />
              </VectorParam>
              <VectorParam id="2382"  name="shear">
               <InterpolatingParam id="2383" interp="linr"  time="-9999999/1" value="0" leadInLength="0/1"  />
               <InterpolatingParam id="2384" interp="linr"  time="-9999999/1" value="0" leadInLength="0/1"  />
               <InterpolatingParam id="2385" interp="linr"  time="-9999999/1" value="0" leadInLength="0/1"  />
              </VectorParam>
              <VectorParam id="2386"  name="scale">
               <InterpolatingParam id="2387" interp="linr"  time="-9999999/1" value="1" leadInLength="0/1"  />
               <InterpolatingParam id="2388" interp="linr"  time="-9999999/1" value="1" leadInLength="0/1"  />
               <InterpolatingParam id="2389" interp="linr"  time="-9999999/1" value="1" leadInLength="0/1"  />
              </VectorParam>
              <VectorParam id="2390"  name="anchor">
               <InterpolatingParam id="2391" interp="linr"  time="0/1" value="0" leadInLength="0/1"  />
               <InterpolatingParam id="2392" interp="linr"  time="0/1" value="0" leadInLength="0/1"  />
               <InterpolatingParam id="2393" interp="linr"  time="0/1" value="0" leadInLength="0/1"  />
              </VectorParam>
             </Transformer>
             <Parameters>
              <VectorParam id="2394"  name="sourceCrop">
               <InterpolatingParam id="2395" interp="linr"  time="0/1" value="0" leadInLength="0/1"  />
               <InterpolatingParam id="2396" interp="linr"  time="0/1" value="0" leadInLength="0/1"  />
               <InterpolatingParam id="2397" interp="linr"  time="0/1" value="0" leadInLength="0/1"  />
               <InterpolatingParam id="2398" interp="linr"  time="0/1" value="0" leadInLength="0/1"  />
              </VectorParam>
              <VectorParam id="2399"  name="geometryCrop">
               <InterpolatingParam id="2400" interp="linr"  time="-9999999/1" value="0" leadInLength="0/1"  />
               <InterpolatingParam id="2401" interp="linr"  time="-9999999/1" value="0" leadInLength="0/1"  />
               <InterpolatingParam id="2402" interp="linr"  time="-9999999/1" value="0" leadInLength="0/1"  />
               <InterpolatingParam id="2403" interp="linr"  time="-9999999/1" value="0" leadInLength="0/1"  />
              </VectorParam>
              <InterpolatingParam id="2404" interp="linr"  time="-9999999/1" value="1" leadInLength="0/1"  name="opacity"/>
             </Parameters>
             <Attributes>
              <Attribute id="2405" value="" name="ident"/>
             </Attributes>
             <ExtraData>
              <Entry key="ZoomPanBin">
               <ZoomPanBin id="2406"  >
                <ZoomPanKeyframes>
                 <ZoomPanKeyframe id="2407" timeRangeEnd="-9999999/1" timeRangeDuration="0/1" interpolaterName="linr"  />
                </ZoomPanKeyframes>
               </ZoomPanBin>
              </Entry>
             </ExtraData>
            </VMFile>
            <MetaData>
             <entry key="WinSubProjectDisplayName" val=""/>
            </MetaData>
           </UnifiedMedia>
          </Medias>
         </GenericTrack>
        </StitchedMedia>
        <StitchedMedia id="2408" start="6930" duration="20" scalar="52327/47176" mediaStart="3375/104654" mediaDuration="943520/52327" minMediaStart="-5833616625/104654" >
         <Transformer>
          <VectorParam id="2409"  name="translation">
           <InterpolatingParam id="2410" interp="linr"  time="-9999999/1" value="0" leadInLength="0/1"  />
           <InterpolatingParam id="2411" interp="linr"  time="-9999999/1" value="0" leadInLength="0/1"  />
           <InterpolatingParam id="2412" interp="linr"  time="-9999999/1" value="0" leadInLength="0/1"  />
          </VectorParam>
          <VectorParam id="2413"  name="rotation">
           <InterpolatingParam id="2414" interp="linr"  time="-9999999/1" value="0" leadInLength="0/1"  />
           <InterpolatingParam id="2415" interp="linr"  time="-9999999/1" value="0" leadInLength="0/1"  />
           <InterpolatingParam id="2416" interp="linr"  time="-9999999/1" value="0" leadInLength="0/1"  />
          </VectorParam>
          <VectorParam id="2417"  name="shear">
           <InterpolatingParam id="2418" interp="linr"  time="-9999999/1" value="0" leadInLength="0/1"  />
           <InterpolatingParam id="2419" interp="linr"  time="-9999999/1" value="0" leadInLength="0/1"  />
           <InterpolatingParam id="2420" interp="linr"  time="-9999999/1" value="0" leadInLength="0/1"  />
          </VectorParam>
          <VectorParam id="2421"  name="scale">
           <InterpolatingParam id="2422" interp="linr"  time="-9999999/1" value="1" leadInLength="0/1"  />
           <InterpolatingParam id="2423" interp="linr"  time="-9999999/1" value="1" leadInLength="0/1"  />
           <InterpolatingParam id="2424" interp="linr"  time="-9999999/1" value="1" leadInLength="0/1"  />
          </VectorParam>
          <VectorParam id="2425"  name="anchor">
           <InterpolatingParam id="2426" interp="linr"  time="0/1" value="0" leadInLength="0/1"  />
           <InterpolatingParam id="2427" interp="linr"  time="0/1" value="0" leadInLength="0/1"  />
           <InterpolatingParam id="2428" interp="linr"  time="0/1" value="0" leadInLength="0/1"  />
          </VectorParam>
         </Transformer>
         <Parameters>
          <VectorParam id="2429"  name="sourceCrop">
           <InterpolatingParam id="2430" interp="linr"  time="0/1" value="0" leadInLength="0/1"  />
           <InterpolatingParam id="2431" interp="linr"  time="0/1" value="0" leadInLength="0/1"  />
           <InterpolatingParam id="2432" interp="linr"  time="0/1" value="0" leadInLength="0/1"  />
           <InterpolatingParam id="2433" interp="linr"  time="0/1" value="0" leadInLength="0/1"  />
          </VectorParam>
          <VectorParam id="2434"  name="geometryCrop">
           <InterpolatingParam id="2435" interp="linr"  time="-9999999/1" value="0" leadInLength="0/1"  />
           <InterpolatingParam id="2436" interp="linr"  time="-9999999/1" value="0" leadInLength="0/1"  />
           <InterpolatingParam id="2437" interp="linr"  time="-9999999/1" value="0" leadInLength="0/1"  />
           <InterpolatingParam id="2438" interp="linr"  time="-9999999/1" value="0" leadInLength="0/1"  />
          </VectorParam>
          <InterpolatingParam id="2439" interp="linr"  time="-9999999/1" value="1" leadInLength="0/1"  name="opacity"/>
          <InterpolatingParam id="2440" interp="linr"  time="0/1" value="1" leadInLength="0/1"  name="cursorOpacity"/>
          <InterpolatingParam id="2441" interp="linr"  time="0/1" value="1" leadInLength="0/1"  name="cursorScale"/>
          <InterpolatingParam id="2442" interp="linr"  name="volume">
           <Keyframes>
           <Keyframe id="2443"  time="-5833616625/104654" value="0" leadInLength="0/1"  />
           <Keyframe id="2444"  time="143611/9514" value="0" leadInLength="0/1"  />
           <Keyframe id="2445"  time="17/1" value="0" leadInLength="0/1"  />
           </Keyframes>
          </InterpolatingParam>
          <Parameter id="2446"  name="captions"/>
         </Parameters>
         <Attributes>
          <Attribute id="2447" value="" name="ident"/>
          <Attribute id="2448" value="0" name="mixToMono"/>
         </Attributes>
         <MetaData>
          <entry key="WinSubProjectDisplayName" val=""/>
         </MetaData>
         <ExtraData>
          <Entry key="ZoomPanBin">
           <ZoomPanBin id="2449"  >
            <ZoomPanKeyframes>
             <ZoomPanKeyframe id="2450" timeRangeEnd="-9999999/1" timeRangeDuration="0/1" interpolaterName="linr"  />
            </ZoomPanKeyframes>
           </ZoomPanBin>
          </Entry>
          <Entry key="CursorEffectBin">
           <CursorEffectBin id="2451"  >
            <CursorEffectKeyframes>
            </CursorEffectKeyframes>
           </CursorEffectBin>
          </Entry>
         </ExtraData>
         <GenericTrack id="2452"  >
          <Attributes>
           <Attribute id="2453" value="" name="ident"/>
           <Attribute id="2454" value="0" name="audioMuted"/>
           <Attribute id="2455" value="0" name="videoHidden"/>
          </Attributes>
          <MetaData>
           <entry key="IsLocked" val="False"/>
           <entry key="WinTrackHeight" val="0"/>
          </MetaData>
          <Medias>
           <IMFile id="2456" start="-55742" duration="55758" scalar="1/1" mediaStart="6973/1" mediaDuration="1/1" trackNumber="0" src="21" trimStartSum="-55742/1" >
            <Transformer>
             <VectorParam id="2457"  name="translation">
              <InterpolatingParam id="2458" interp="linr"  time="-9999999/1" value="0" leadInLength="0/1"  />
              <InterpolatingParam id="2459" interp="linr"  time="-9999999/1" value="0" leadInLength="0/1"  />
              <InterpolatingParam id="2460" interp="linr"  time="-9999999/1" value="0" leadInLength="0/1"  />
             </VectorParam>
             <VectorParam id="2461"  name="rotation">
              <InterpolatingParam id="2462" interp="linr"  time="-9999999/1" value="0" leadInLength="0/1"  />
              <InterpolatingParam id="2463" interp="linr"  time="-9999999/1" value="0" leadInLength="0/1"  />
              <InterpolatingParam id="2464" interp="linr"  time="-9999999/1" value="0" leadInLength="0/1"  />
             </VectorParam>
             <VectorParam id="2465"  name="shear">
              <InterpolatingParam id="2466" interp="linr"  time="-9999999/1" value="0" leadInLength="0/1"  />
              <InterpolatingParam id="2467" interp="linr"  time="-9999999/1" value="0" leadInLength="0/1"  />
              <InterpolatingParam id="2468" interp="linr"  time="-9999999/1" value="0" leadInLength="0/1"  />
             </VectorParam>
             <VectorParam id="2469"  name="scale">
              <InterpolatingParam id="2470" interp="linr"  time="-9999999/1" value="1" leadInLength="0/1"  />
              <InterpolatingParam id="2471" interp="linr"  time="-9999999/1" value="1" leadInLength="0/1"  />
              <InterpolatingParam id="2472" interp="linr"  time="-9999999/1" value="1" leadInLength="0/1"  />
             </VectorParam>
             <VectorParam id="2473"  name="anchor">
              <InterpolatingParam id="2474" interp="linr"  time="0/1" value="0" leadInLength="0/1"  />
              <InterpolatingParam id="2475" interp="linr"  time="0/1" value="0" leadInLength="0/1"  />
              <InterpolatingParam id="2476" interp="linr"  time="0/1" value="0" leadInLength="0/1"  />
             </VectorParam>
            </Transformer>
            <Parameters>
             <VectorParam id="2477"  name="sourceCrop">
              <InterpolatingParam id="2478" interp="linr"  time="0/1" value="0" leadInLength="0/1"  />
              <InterpolatingParam id="2479" interp="linr"  time="0/1" value="0" leadInLength="0/1"  />
              <InterpolatingParam id="2480" interp="linr"  time="0/1" value="0" leadInLength="0/1"  />
              <InterpolatingParam id="2481" interp="linr"  time="0/1" value="0" leadInLength="0/1"  />
             </VectorParam>
             <VectorParam id="2482"  name="geometryCrop">
              <InterpolatingParam id="2483" interp="linr"  time="-9999999/1" value="0" leadInLength="0/1"  />
              <InterpolatingParam id="2484" interp="linr"  time="-9999999/1" value="0" leadInLength="0/1"  />
              <InterpolatingParam id="2485" interp="linr"  time="-9999999/1" value="0" leadInLength="0/1"  />
              <InterpolatingParam id="2486" interp="linr"  time="-9999999/1" value="0" leadInLength="0/1"  />
             </VectorParam>
             <InterpolatingParam id="2487" interp="linr"  time="-9999999/1" value="1" leadInLength="0/1"  name="opacity"/>
            </Parameters>
            <Attributes>
             <Attribute id="2488" value="" name="ident"/>
            </Attributes>
            <MetaData>
             <entry key="WinSubProjectDisplayName" val=""/>
            </MetaData>
            <ExtraData>
             <Entry key="ZoomPanBin">
              <ZoomPanBin id="2489"  >
               <ZoomPanKeyframes>
                <ZoomPanKeyframe id="2490" timeRangeEnd="-9999999/1" timeRangeDuration="0/1" interpolaterName="linr"  />
               </ZoomPanKeyframes>
              </ZoomPanBin>
             </Entry>
            </ExtraData>
           </IMFile>
           <UnifiedMedia id="2491"  >
            <AMFile id="2492" start="16" duration="1979" scalar="1/1" mediaStart="6973/1" mediaDuration="1979/1" trackNumber="1" src="21" channelNumber="0,1" >
             <Parameters>
              <InterpolatingParam id="2493" interp="linr"  time="0/1" value="1" leadInLength="0/1"  name="volume"/>
              <Parameter id="2494"  name="captions"/>
             </Parameters>
             <Attributes>
              <Attribute id="2495" value="" name="ident"/>
              <Attribute id="2496" value="44100" name="sampleRate"/>
              <Attribute id="2497" value="16" name="bitDepth"/>
              <Attribute id="2498" value="1" name="gain"/>
              <Attribute id="2499" value="0" name="mixToMono"/>
             </Attributes>
            </AMFile>
            <VMFile id="2500" start="16" duration="1979" scalar="1/1" mediaStart="6973/1" mediaDuration="1979/1" trackNumber="0" src="21" >
             <Transformer>
              <VectorParam id="2501"  name="translation">
               <InterpolatingParam id="2502" interp="linr"  time="-9999999/1" value="0" leadInLength="0/1"  />
               <InterpolatingParam id="2503" interp="linr"  time="-9999999/1" value="0" leadInLength="0/1"  />
               <InterpolatingParam id="2504" interp="linr"  time="-9999999/1" value="0" leadInLength="0/1"  />
              </VectorParam>
              <VectorParam id="2505"  name="rotation">
               <InterpolatingParam id="2506" interp="linr"  time="-9999999/1" value="0" leadInLength="0/1"  />
               <InterpolatingParam id="2507" interp="linr"  time="-9999999/1" value="0" leadInLength="0/1"  />
               <InterpolatingParam id="2508" interp="linr"  time="-9999999/1" value="0" leadInLength="0/1"  />
              </VectorParam>
              <VectorParam id="2509"  name="shear">
               <InterpolatingParam id="2510" interp="linr"  time="-9999999/1" value="0" leadInLength="0/1"  />
               <InterpolatingParam id="2511" interp="linr"  time="-9999999/1" value="0" leadInLength="0/1"  />
               <InterpolatingParam id="2512" interp="linr"  time="-9999999/1" value="0" leadInLength="0/1"  />
              </VectorParam>
              <VectorParam id="2513"  name="scale">
               <InterpolatingParam id="2514" interp="linr"  time="-9999999/1" value="1" leadInLength="0/1"  />
               <InterpolatingParam id="2515" interp="linr"  time="-9999999/1" value="1" leadInLength="0/1"  />
               <InterpolatingParam id="2516" interp="linr"  time="-9999999/1" value="1" leadInLength="0/1"  />
              </VectorParam>
              <VectorParam id="2517"  name="anchor">
               <InterpolatingParam id="2518" interp="linr"  time="0/1" value="0" leadInLength="0/1"  />
               <InterpolatingParam id="2519" interp="linr"  time="0/1" value="0" leadInLength="0/1"  />
               <InterpolatingParam id="2520" interp="linr"  time="0/1" value="0" leadInLength="0/1"  />
              </VectorParam>
             </Transformer>
             <Parameters>
              <VectorParam id="2521"  name="sourceCrop">
               <InterpolatingParam id="2522" interp="linr"  time="0/1" value="0" leadInLength="0/1"  />
               <InterpolatingParam id="2523" interp="linr"  time="0/1" value="0" leadInLength="0/1"  />
               <InterpolatingParam id="2524" interp="linr"  time="0/1" value="0" leadInLength="0/1"  />
               <InterpolatingParam id="2525" interp="linr"  time="0/1" value="0" leadInLength="0/1"  />
              </VectorParam>
              <VectorParam id="2526"  name="geometryCrop">
               <InterpolatingParam id="2527" interp="linr"  time="-9999999/1" value="0" leadInLength="0/1"  />
               <InterpolatingParam id="2528" interp="linr"  time="-9999999/1" value="0" leadInLength="0/1"  />
               <InterpolatingParam id="2529" interp="linr"  time="-9999999/1" value="0" leadInLength="0/1"  />
               <InterpolatingParam id="2530" interp="linr"  time="-9999999/1" value="0" leadInLength="0/1"  />
              </VectorParam>
              <InterpolatingParam id="2531" interp="linr"  time="-9999999/1" value="1" leadInLength="0/1"  name="opacity"/>
             </Parameters>
             <Attributes>
              <Attribute id="2532" value="" name="ident"/>
             </Attributes>
             <ExtraData>
              <Entry key="ZoomPanBin">
               <ZoomPanBin id="2533"  >
                <ZoomPanKeyframes>
                 <ZoomPanKeyframe id="2534" timeRangeEnd="-9999999/1" timeRangeDuration="0/1" interpolaterName="linr"  />
                </ZoomPanKeyframes>
               </ZoomPanBin>
              </Entry>
             </ExtraData>
            </VMFile>
            <MetaData>
             <entry key="WinSubProjectDisplayName" val=""/>
            </MetaData>
           </UnifiedMedia>
          </Medias>
         </GenericTrack>
        </StitchedMedia>
        <StitchedMedia id="2535" start="6950" duration="21" scalar="1098867/943520" mediaStart="3375/104654" mediaDuration="943520/52327" minMediaStart="-5833616625/104654" >
         <Transformer>
          <VectorParam id="2536"  name="translation">
           <InterpolatingParam id="2537" interp="linr"  time="-9999999/1" value="0" leadInLength="0/1"  />
           <InterpolatingParam id="2538" interp="linr"  time="-9999999/1" value="0" leadInLength="0/1"  />
           <InterpolatingParam id="2539" interp="linr"  time="-9999999/1" value="0" leadInLength="0/1"  />
          </VectorParam>
          <VectorParam id="2540"  name="rotation">
           <InterpolatingParam id="2541" interp="linr"  time="-9999999/1" value="0" leadInLength="0/1"  />
           <InterpolatingParam id="2542" interp="linr"  time="-9999999/1" value="0" leadInLength="0/1"  />
           <InterpolatingParam id="2543" interp="linr"  time="-9999999/1" value="0" leadInLength="0/1"  />
          </VectorParam>
          <VectorParam id="2544"  name="shear">
           <InterpolatingParam id="2545" interp="linr"  time="-9999999/1" value="0" leadInLength="0/1"  />
           <InterpolatingParam id="2546" interp="linr"  time="-9999999/1" value="0" leadInLength="0/1"  />
           <InterpolatingParam id="2547" interp="linr"  time="-9999999/1" value="0" leadInLength="0/1"  />
          </VectorParam>
          <VectorParam id="2548"  name="scale">
           <InterpolatingParam id="2549" interp="linr"  time="-9999999/1" value="1" leadInLength="0/1"  />
           <InterpolatingParam id="2550" interp="linr"  time="-9999999/1" value="1" leadInLength="0/1"  />
           <InterpolatingParam id="2551" interp="linr"  time="-9999999/1" value="1" leadInLength="0/1"  />
          </VectorParam>
          <VectorParam id="2552"  name="anchor">
           <InterpolatingParam id="2553" interp="linr"  time="0/1" value="0" leadInLength="0/1"  />
           <InterpolatingParam id="2554" interp="linr"  time="0/1" value="0" leadInLength="0/1"  />
           <InterpolatingParam id="2555" interp="linr"  time="0/1" value="0" leadInLength="0/1"  />
          </VectorParam>
         </Transformer>
         <Parameters>
          <VectorParam id="2556"  name="sourceCrop">
           <InterpolatingParam id="2557" interp="linr"  time="0/1" value="0" leadInLength="0/1"  />
           <InterpolatingParam id="2558" interp="linr"  time="0/1" value="0" leadInLength="0/1"  />
           <InterpolatingParam id="2559" interp="linr"  time="0/1" value="0" leadInLength="0/1"  />
           <InterpolatingParam id="2560" interp="linr"  time="0/1" value="0" leadInLength="0/1"  />
          </VectorParam>
          <VectorParam id="2561"  name="geometryCrop">
           <InterpolatingParam id="2562" interp="linr"  time="-9999999/1" value="0" leadInLength="0/1"  />
           <InterpolatingParam id="2563" interp="linr"  time="-9999999/1" value="0" leadInLength="0/1"  />
           <InterpolatingParam id="2564" interp="linr"  time="-9999999/1" value="0" leadInLength="0/1"  />
           <InterpolatingParam id="2565" interp="linr"  time="-9999999/1" value="0" leadInLength="0/1"  />
          </VectorParam>
          <InterpolatingParam id="2566" interp="linr"  time="-9999999/1" value="1" leadInLength="0/1"  name="opacity"/>
          <InterpolatingParam id="2567" interp="linr"  time="0/1" value="1" leadInLength="0/1"  name="cursorOpacity"/>
          <InterpolatingParam id="2568" interp="linr"  time="0/1" value="1" leadInLength="0/1"  name="cursorScale"/>
          <InterpolatingParam id="2569" interp="linr"  name="volume">
           <Keyframes>
           <Keyframe id="2570"  time="-5833616625/104654" value="0" leadInLength="0/1"  />
           <Keyframe id="2571"  time="143611/9514" value="0" leadInLength="0/1"  />
           <Keyframe id="2572"  time="17/1" value="0" leadInLength="0/1"  />
           </Keyframes>
          </InterpolatingParam>
          <Parameter id="2573"  name="captions"/>
         </Parameters>
         <Attributes>
          <Attribute id="2574" value="" name="ident"/>
          <Attribute id="2575" value="0" name="mixToMono"/>
         </Attributes>
         <MetaData>
          <entry key="WinSubProjectDisplayName" val=""/>
         </MetaData>
         <ExtraData>
          <Entry key="ZoomPanBin">
           <ZoomPanBin id="2576"  >
            <ZoomPanKeyframes>
             <ZoomPanKeyframe id="2577" timeRangeEnd="-9999999/1" timeRangeDuration="0/1" interpolaterName="linr"  />
            </ZoomPanKeyframes>
           </ZoomPanBin>
          </Entry>
          <Entry key="CursorEffectBin">
           <CursorEffectBin id="2578"  >
            <CursorEffectKeyframes>
            </CursorEffectKeyframes>
           </CursorEffectBin>
          </Entry>
         </ExtraData>
         <GenericTrack id="2579"  >
          <Attributes>
           <Attribute id="2580" value="" name="ident"/>
           <Attribute id="2581" value="0" name="audioMuted"/>
           <Attribute id="2582" value="0" name="videoHidden"/>
          </Attributes>
          <MetaData>
           <entry key="IsLocked" val="False"/>
           <entry key="WinTrackHeight" val="0"/>
          </MetaData>
          <Medias>
           <IMFile id="2583" start="-55742" duration="55758" scalar="1/1" mediaStart="6973/1" mediaDuration="1/1" trackNumber="0" src="21" trimStartSum="-55742/1" >
            <Transformer>
             <VectorParam id="2584"  name="translation">
              <InterpolatingParam id="2585" interp="linr"  time="-9999999/1" value="0" leadInLength="0/1"  />
              <InterpolatingParam id="2586" interp="linr"  time="-9999999/1" value="0" leadInLength="0/1"  />
              <InterpolatingParam id="2587" interp="linr"  time="-9999999/1" value="0" leadInLength="0/1"  />
             </VectorParam>
             <VectorParam id="2588"  name="rotation">
              <InterpolatingParam id="2589" interp="linr"  time="-9999999/1" value="0" leadInLength="0/1"  />
              <InterpolatingParam id="2590" interp="linr"  time="-9999999/1" value="0" leadInLength="0/1"  />
              <InterpolatingParam id="2591" interp="linr"  time="-9999999/1" value="0" leadInLength="0/1"  />
             </VectorParam>
             <VectorParam id="2592"  name="shear">
              <InterpolatingParam id="2593" interp="linr"  time="-9999999/1" value="0" leadInLength="0/1"  />
              <InterpolatingParam id="2594" interp="linr"  time="-9999999/1" value="0" leadInLength="0/1"  />
              <InterpolatingParam id="2595" interp="linr"  time="-9999999/1" value="0" leadInLength="0/1"  />
             </VectorParam>
             <VectorParam id="2596"  name="scale">
              <InterpolatingParam id="2597" interp="linr"  time="-9999999/1" value="1" leadInLength="0/1"  />
              <InterpolatingParam id="2598" interp="linr"  time="-9999999/1" value="1" leadInLength="0/1"  />
              <InterpolatingParam id="2599" interp="linr"  time="-9999999/1" value="1" leadInLength="0/1"  />
             </VectorParam>
             <VectorParam id="2600"  name="anchor">
              <InterpolatingParam id="2601" interp="linr"  time="0/1" value="0" leadInLength="0/1"  />
              <InterpolatingParam id="2602" interp="linr"  time="0/1" value="0" leadInLength="0/1"  />
              <InterpolatingParam id="2603" interp="linr"  time="0/1" value="0" leadInLength="0/1"  />
             </VectorParam>
            </Transformer>
            <Parameters>
             <VectorParam id="2604"  name="sourceCrop">
              <InterpolatingParam id="2605" interp="linr"  time="0/1" value="0" leadInLength="0/1"  />
              <InterpolatingParam id="2606" interp="linr"  time="0/1" value="0" leadInLength="0/1"  />
              <InterpolatingParam id="2607" interp="linr"  time="0/1" value="0" leadInLength="0/1"  />
              <InterpolatingParam id="2608" interp="linr"  time="0/1" value="0" leadInLength="0/1"  />
             </VectorParam>
             <VectorParam id="2609"  name="geometryCrop">
              <InterpolatingParam id="2610" interp="linr"  time="-9999999/1" value="0" leadInLength="0/1"  />
              <InterpolatingParam id="2611" interp="linr"  time="-9999999/1" value="0" leadInLength="0/1"  />
              <InterpolatingParam id="2612" interp="linr"  time="-9999999/1" value="0" leadInLength="0/1"  />
              <InterpolatingParam id="2613" interp="linr"  time="-9999999/1" value="0" leadInLength="0/1"  />
             </VectorParam>
             <InterpolatingParam id="2614" interp="linr"  time="-9999999/1" value="1" leadInLength="0/1"  name="opacity"/>
            </Parameters>
            <Attributes>
             <Attribute id="2615" value="" name="ident"/>
            </Attributes>
            <MetaData>
             <entry key="WinSubProjectDisplayName" val=""/>
            </MetaData>
            <ExtraData>
             <Entry key="ZoomPanBin">
              <ZoomPanBin id="2616"  >
               <ZoomPanKeyframes>
                <ZoomPanKeyframe id="2617" timeRangeEnd="-9999999/1" timeRangeDuration="0/1" interpolaterName="linr"  />
               </ZoomPanKeyframes>
              </ZoomPanBin>
             </Entry>
            </ExtraData>
           </IMFile>
           <UnifiedMedia id="2618"  >
            <AMFile id="2619" start="16" duration="1979" scalar="1/1" mediaStart="6973/1" mediaDuration="1979/1" trackNumber="1" src="21" channelNumber="0,1" >
             <Parameters>
              <InterpolatingParam id="2620" interp="linr"  time="0/1" value="1" leadInLength="0/1"  name="volume"/>
              <Parameter id="2621"  name="captions"/>
             </Parameters>
             <Attributes>
              <Attribute id="2622" value="" name="ident"/>
              <Attribute id="2623" value="44100" name="sampleRate"/>
              <Attribute id="2624" value="16" name="bitDepth"/>
              <Attribute id="2625" value="1" name="gain"/>
              <Attribute id="2626" value="0" name="mixToMono"/>
             </Attributes>
            </AMFile>
            <VMFile id="2627" start="16" duration="1979" scalar="1/1" mediaStart="6973/1" mediaDuration="1979/1" trackNumber="0" src="21" >
             <Transformer>
              <VectorParam id="2628"  name="translation">
               <InterpolatingParam id="2629" interp="linr"  time="-9999999/1" value="0" leadInLength="0/1"  />
               <InterpolatingParam id="2630" interp="linr"  time="-9999999/1" value="0" leadInLength="0/1"  />
               <InterpolatingParam id="2631" interp="linr"  time="-9999999/1" value="0" leadInLength="0/1"  />
              </VectorParam>
              <VectorParam id="2632"  name="rotation">
               <InterpolatingParam id="2633" interp="linr"  time="-9999999/1" value="0" leadInLength="0/1"  />
               <InterpolatingParam id="2634" interp="linr"  time="-9999999/1" value="0" leadInLength="0/1"  />
               <InterpolatingParam id="2635" interp="linr"  time="-9999999/1" value="0" leadInLength="0/1"  />
              </VectorParam>
              <VectorParam id="2636"  name="shear">
               <InterpolatingParam id="2637" interp="linr"  time="-9999999/1" value="0" leadInLength="0/1"  />
               <InterpolatingParam id="2638" interp="linr"  time="-9999999/1" value="0" leadInLength="0/1"  />
               <InterpolatingParam id="2639" interp="linr"  time="-9999999/1" value="0" leadInLength="0/1"  />
              </VectorParam>
              <VectorParam id="2640"  name="scale">
               <InterpolatingParam id="2641" interp="linr"  time="-9999999/1" value="1" leadInLength="0/1"  />
               <InterpolatingParam id="2642" interp="linr"  time="-9999999/1" value="1" leadInLength="0/1"  />
               <InterpolatingParam id="2643" interp="linr"  time="-9999999/1" value="1" leadInLength="0/1"  />
              </VectorParam>
              <VectorParam id="2644"  name="anchor">
               <InterpolatingParam id="2645" interp="linr"  time="0/1" value="0" leadInLength="0/1"  />
               <InterpolatingParam id="2646" interp="linr"  time="0/1" value="0" leadInLength="0/1"  />
               <InterpolatingParam id="2647" interp="linr"  time="0/1" value="0" leadInLength="0/1"  />
              </VectorParam>
             </Transformer>
             <Parameters>
              <VectorParam id="2648"  name="sourceCrop">
               <InterpolatingParam id="2649" interp="linr"  time="0/1" value="0" leadInLength="0/1"  />
               <InterpolatingParam id="2650" interp="linr"  time="0/1" value="0" leadInLength="0/1"  />
               <InterpolatingParam id="2651" interp="linr"  time="0/1" value="0" leadInLength="0/1"  />
               <InterpolatingParam id="2652" interp="linr"  time="0/1" value="0" leadInLength="0/1"  />
              </VectorParam>
              <VectorParam id="2653"  name="geometryCrop">
               <InterpolatingParam id="2654" interp="linr"  time="-9999999/1" value="0" leadInLength="0/1"  />
               <InterpolatingParam id="2655" interp="linr"  time="-9999999/1" value="0" leadInLength="0/1"  />
               <InterpolatingParam id="2656" interp="linr"  time="-9999999/1" value="0" leadInLength="0/1"  />
               <InterpolatingParam id="2657" interp="linr"  time="-9999999/1" value="0" leadInLength="0/1"  />
              </VectorParam>
              <InterpolatingParam id="2658" interp="linr"  time="-9999999/1" value="1" leadInLength="0/1"  name="opacity"/>
             </Parameters>
             <Attributes>
              <Attribute id="2659" value="" name="ident"/>
             </Attributes>
             <ExtraData>
              <Entry key="ZoomPanBin">
               <ZoomPanBin id="2660"  >
                <ZoomPanKeyframes>
                 <ZoomPanKeyframe id="2661" timeRangeEnd="-9999999/1" timeRangeDuration="0/1" interpolaterName="linr"  />
                </ZoomPanKeyframes>
               </ZoomPanBin>
              </Entry>
             </ExtraData>
            </VMFile>
            <MetaData>
             <entry key="WinSubProjectDisplayName" val=""/>
            </MetaData>
           </UnifiedMedia>
          </Medias>
         </GenericTrack>
        </StitchedMedia>
        <StitchedMedia id="2662" start="6971" duration="21" scalar="1098867/943520" mediaStart="3375/104654" mediaDuration="943520/52327" minMediaStart="-5833616625/104654" >
         <Transformer>
          <VectorParam id="2663"  name="translation">
           <InterpolatingParam id="2664" interp="linr"  time="-9999999/1" value="0" leadInLength="0/1"  />
           <InterpolatingParam id="2665" interp="linr"  time="-9999999/1" value="0" leadInLength="0/1"  />
           <InterpolatingParam id="2666" interp="linr"  time="-9999999/1" value="0" leadInLength="0/1"  />
          </VectorParam>
          <VectorParam id="2667"  name="rotation">
           <InterpolatingParam id="2668" interp="linr"  time="-9999999/1" value="0" leadInLength="0/1"  />
           <InterpolatingParam id="2669" interp="linr"  time="-9999999/1" value="0" leadInLength="0/1"  />
           <InterpolatingParam id="2670" interp="linr"  time="-9999999/1" value="0" leadInLength="0/1"  />
          </VectorParam>
          <VectorParam id="2671"  name="shear">
           <InterpolatingParam id="2672" interp="linr"  time="-9999999/1" value="0" leadInLength="0/1"  />
           <InterpolatingParam id="2673" interp="linr"  time="-9999999/1" value="0" leadInLength="0/1"  />
           <InterpolatingParam id="2674" interp="linr"  time="-9999999/1" value="0" leadInLength="0/1"  />
          </VectorParam>
          <VectorParam id="2675"  name="scale">
           <InterpolatingParam id="2676" interp="linr"  time="-9999999/1" value="1" leadInLength="0/1"  />
           <InterpolatingParam id="2677" interp="linr"  time="-9999999/1" value="1" leadInLength="0/1"  />
           <InterpolatingParam id="2678" interp="linr"  time="-9999999/1" value="1" leadInLength="0/1"  />
          </VectorParam>
          <VectorParam id="2679"  name="anchor">
           <InterpolatingParam id="2680" interp="linr"  time="0/1" value="0" leadInLength="0/1"  />
           <InterpolatingParam id="2681" interp="linr"  time="0/1" value="0" leadInLength="0/1"  />
           <InterpolatingParam id="2682" interp="linr"  time="0/1" value="0" leadInLength="0/1"  />
          </VectorParam>
         </Transformer>
         <Parameters>
          <VectorParam id="2683"  name="sourceCrop">
           <InterpolatingParam id="2684" interp="linr"  time="0/1" value="0" leadInLength="0/1"  />
           <InterpolatingParam id="2685" interp="linr"  time="0/1" value="0" leadInLength="0/1"  />
           <InterpolatingParam id="2686" interp="linr"  time="0/1" value="0" leadInLength="0/1"  />
           <InterpolatingParam id="2687" interp="linr"  time="0/1" value="0" leadInLength="0/1"  />
          </VectorParam>
          <VectorParam id="2688"  name="geometryCrop">
           <InterpolatingParam id="2689" interp="linr"  time="-9999999/1" value="0" leadInLength="0/1"  />
           <InterpolatingParam id="2690" interp="linr"  time="-9999999/1" value="0" leadInLength="0/1"  />
           <InterpolatingParam id="2691" interp="linr"  time="-9999999/1" value="0" leadInLength="0/1"  />
           <InterpolatingParam id="2692" interp="linr"  time="-9999999/1" value="0" leadInLength="0/1"  />
          </VectorParam>
          <InterpolatingParam id="2693" interp="linr"  time="-9999999/1" value="1" leadInLength="0/1"  name="opacity"/>
          <InterpolatingParam id="2694" interp="linr"  time="0/1" value="1" leadInLength="0/1"  name="cursorOpacity"/>
          <InterpolatingParam id="2695" interp="linr"  time="0/1" value="1" leadInLength="0/1"  name="cursorScale"/>
          <InterpolatingParam id="2696" interp="linr"  name="volume">
           <Keyframes>
           <Keyframe id="2697"  time="-5833616625/104654" value="0" leadInLength="0/1"  />
           <Keyframe id="2698"  time="143611/9514" value="0" leadInLength="0/1"  />
           <Keyframe id="2699"  time="17/1" value="0" leadInLength="0/1"  />
           </Keyframes>
          </InterpolatingParam>
          <Parameter id="2700"  name="captions"/>
         </Parameters>
         <Attributes>
          <Attribute id="2701" value="" name="ident"/>
          <Attribute id="2702" value="0" name="mixToMono"/>
         </Attributes>
         <MetaData>
          <entry key="WinSubProjectDisplayName" val=""/>
         </MetaData>
         <ExtraData>
          <Entry key="ZoomPanBin">
           <ZoomPanBin id="2703"  >
            <ZoomPanKeyframes>
             <ZoomPanKeyframe id="2704" timeRangeEnd="-9999999/1" timeRangeDuration="0/1" interpolaterName="linr"  />
            </ZoomPanKeyframes>
           </ZoomPanBin>
          </Entry>
          <Entry key="CursorEffectBin">
           <CursorEffectBin id="2705"  >
            <CursorEffectKeyframes>
            </CursorEffectKeyframes>
           </CursorEffectBin>
          </Entry>
         </ExtraData>
         <GenericTrack id="2706"  >
          <Attributes>
           <Attribute id="2707" value="" name="ident"/>
           <Attribute id="2708" value="0" name="audioMuted"/>
           <Attribute id="2709" value="0" name="videoHidden"/>
          </Attributes>
          <MetaData>
           <entry key="IsLocked" val="False"/>
           <entry key="WinTrackHeight" val="0"/>
          </MetaData>
          <Medias>
           <IMFile id="2710" start="-55742" duration="55758" scalar="1/1" mediaStart="6973/1" mediaDuration="1/1" trackNumber="0" src="21" trimStartSum="-55742/1" >
            <Transformer>
             <VectorParam id="2711"  name="translation">
              <InterpolatingParam id="2712" interp="linr"  time="-9999999/1" value="0" leadInLength="0/1"  />
              <InterpolatingParam id="2713" interp="linr"  time="-9999999/1" value="0" leadInLength="0/1"  />
              <InterpolatingParam id="2714" interp="linr"  time="-9999999/1" value="0" leadInLength="0/1"  />
             </VectorParam>
             <VectorParam id="2715"  name="rotation">
              <InterpolatingParam id="2716" interp="linr"  time="-9999999/1" value="0" leadInLength="0/1"  />
              <InterpolatingParam id="2717" interp="linr"  time="-9999999/1" value="0" leadInLength="0/1"  />
              <InterpolatingParam id="2718" interp="linr"  time="-9999999/1" value="0" leadInLength="0/1"  />
             </VectorParam>
             <VectorParam id="2719"  name="shear">
              <InterpolatingParam id="2720" interp="linr"  time="-9999999/1" value="0" leadInLength="0/1"  />
              <InterpolatingParam id="2721" interp="linr"  time="-9999999/1" value="0" leadInLength="0/1"  />
              <InterpolatingParam id="2722" interp="linr"  time="-9999999/1" value="0" leadInLength="0/1"  />
             </VectorParam>
             <VectorParam id="2723"  name="scale">
              <InterpolatingParam id="2724" interp="linr"  time="-9999999/1" value="1" leadInLength="0/1"  />
              <InterpolatingParam id="2725" interp="linr"  time="-9999999/1" value="1" leadInLength="0/1"  />
              <InterpolatingParam id="2726" interp="linr"  time="-9999999/1" value="1" leadInLength="0/1"  />
             </VectorParam>
             <VectorParam id="2727"  name="anchor">
              <InterpolatingParam id="2728" interp="linr"  time="0/1" value="0" leadInLength="0/1"  />
              <InterpolatingParam id="2729" interp="linr"  time="0/1" value="0" leadInLength="0/1"  />
              <InterpolatingParam id="2730" interp="linr"  time="0/1" value="0" leadInLength="0/1"  />
             </VectorParam>
            </Transformer>
            <Parameters>
             <VectorParam id="2731"  name="sourceCrop">
              <InterpolatingParam id="2732" interp="linr"  time="0/1" value="0" leadInLength="0/1"  />
              <InterpolatingParam id="2733" interp="linr"  time="0/1" value="0" leadInLength="0/1"  />
              <InterpolatingParam id="2734" interp="linr"  time="0/1" value="0" leadInLength="0/1"  />
              <InterpolatingParam id="2735" interp="linr"  time="0/1" value="0" leadInLength="0/1"  />
             </VectorParam>
             <VectorParam id="2736"  name="geometryCrop">
              <InterpolatingParam id="2737" interp="linr"  time="-9999999/1" value="0" leadInLength="0/1"  />
              <InterpolatingParam id="2738" interp="linr"  time="-9999999/1" value="0" leadInLength="0/1"  />
              <InterpolatingParam id="2739" interp="linr"  time="-9999999/1" value="0" leadInLength="0/1"  />
              <InterpolatingParam id="2740" interp="linr"  time="-9999999/1" value="0" leadInLength="0/1"  />
             </VectorParam>
             <InterpolatingParam id="2741" interp="linr"  time="-9999999/1" value="1" leadInLength="0/1"  name="opacity"/>
            </Parameters>
            <Attributes>
             <Attribute id="2742" value="" name="ident"/>
            </Attributes>
            <MetaData>
             <entry key="WinSubProjectDisplayName" val=""/>
            </MetaData>
            <ExtraData>
             <Entry key="ZoomPanBin">
              <ZoomPanBin id="2743"  >
               <ZoomPanKeyframes>
                <ZoomPanKeyframe id="2744" timeRangeEnd="-9999999/1" timeRangeDuration="0/1" interpolaterName="linr"  />
               </ZoomPanKeyframes>
              </ZoomPanBin>
             </Entry>
            </ExtraData>
           </IMFile>
           <UnifiedMedia id="2745"  >
            <AMFile id="2746" start="16" duration="1979" scalar="1/1" mediaStart="6973/1" mediaDuration="1979/1" trackNumber="1" src="21" channelNumber="0,1" >
             <Parameters>
              <InterpolatingParam id="2747" interp="linr"  time="0/1" value="1" leadInLength="0/1"  name="volume"/>
              <Parameter id="2748"  name="captions"/>
             </Parameters>
             <Attributes>
              <Attribute id="2749" value="" name="ident"/>
              <Attribute id="2750" value="44100" name="sampleRate"/>
              <Attribute id="2751" value="16" name="bitDepth"/>
              <Attribute id="2752" value="1" name="gain"/>
              <Attribute id="2753" value="0" name="mixToMono"/>
             </Attributes>
            </AMFile>
            <VMFile id="2754" start="16" duration="1979" scalar="1/1" mediaStart="6973/1" mediaDuration="1979/1" trackNumber="0" src="21" >
             <Transformer>
              <VectorParam id="2755"  name="translation">
               <InterpolatingParam id="2756" interp="linr"  time="-9999999/1" value="0" leadInLength="0/1"  />
               <InterpolatingParam id="2757" interp="linr"  time="-9999999/1" value="0" leadInLength="0/1"  />
               <InterpolatingParam id="2758" interp="linr"  time="-9999999/1" value="0" leadInLength="0/1"  />
              </VectorParam>
              <VectorParam id="2759"  name="rotation">
               <InterpolatingParam id="2760" interp="linr"  time="-9999999/1" value="0" leadInLength="0/1"  />
               <InterpolatingParam id="2761" interp="linr"  time="-9999999/1" value="0" leadInLength="0/1"  />
               <InterpolatingParam id="2762" interp="linr"  time="-9999999/1" value="0" leadInLength="0/1"  />
              </VectorParam>
              <VectorParam id="2763"  name="shear">
               <InterpolatingParam id="2764" interp="linr"  time="-9999999/1" value="0" leadInLength="0/1"  />
               <InterpolatingParam id="2765" interp="linr"  time="-9999999/1" value="0" leadInLength="0/1"  />
               <InterpolatingParam id="2766" interp="linr"  time="-9999999/1" value="0" leadInLength="0/1"  />
              </VectorParam>
              <VectorParam id="2767"  name="scale">
               <InterpolatingParam id="2768" interp="linr"  time="-9999999/1" value="1" leadInLength="0/1"  />
               <InterpolatingParam id="2769" interp="linr"  time="-9999999/1" value="1" leadInLength="0/1"  />
               <InterpolatingParam id="2770" interp="linr"  time="-9999999/1" value="1" leadInLength="0/1"  />
              </VectorParam>
              <VectorParam id="2771"  name="anchor">
               <InterpolatingParam id="2772" interp="linr"  time="0/1" value="0" leadInLength="0/1"  />
               <InterpolatingParam id="2773" interp="linr"  time="0/1" value="0" leadInLength="0/1"  />
               <InterpolatingParam id="2774" interp="linr"  time="0/1" value="0" leadInLength="0/1"  />
              </VectorParam>
             </Transformer>
             <Parameters>
              <VectorParam id="2775"  name="sourceCrop">
               <InterpolatingParam id="2776" interp="linr"  time="0/1" value="0" leadInLength="0/1"  />
               <InterpolatingParam id="2777" interp="linr"  time="0/1" value="0" leadInLength="0/1"  />
               <InterpolatingParam id="2778" interp="linr"  time="0/1" value="0" leadInLength="0/1"  />
               <InterpolatingParam id="2779" interp="linr"  time="0/1" value="0" leadInLength="0/1"  />
              </VectorParam>
              <VectorParam id="2780"  name="geometryCrop">
               <InterpolatingParam id="2781" interp="linr"  time="-9999999/1" value="0" leadInLength="0/1"  />
               <InterpolatingParam id="2782" interp="linr"  time="-9999999/1" value="0" leadInLength="0/1"  />
               <InterpolatingParam id="2783" interp="linr"  time="-9999999/1" value="0" leadInLength="0/1"  />
               <InterpolatingParam id="2784" interp="linr"  time="-9999999/1" value="0" leadInLength="0/1"  />
              </VectorParam>
              <InterpolatingParam id="2785" interp="linr"  time="-9999999/1" value="1" leadInLength="0/1"  name="opacity"/>
             </Parameters>
             <Attributes>
              <Attribute id="2786" value="" name="ident"/>
             </Attributes>
             <ExtraData>
              <Entry key="ZoomPanBin">
               <ZoomPanBin id="2787"  >
                <ZoomPanKeyframes>
                 <ZoomPanKeyframe id="2788" timeRangeEnd="-9999999/1" timeRangeDuration="0/1" interpolaterName="linr"  />
                </ZoomPanKeyframes>
               </ZoomPanBin>
              </Entry>
             </ExtraData>
            </VMFile>
            <MetaData>
             <entry key="WinSubProjectDisplayName" val=""/>
            </MetaData>
           </UnifiedMedia>
          </Medias>
         </GenericTrack>
        </StitchedMedia>
        <StitchedMedia id="2789" start="6992" duration="21" scalar="1098867/943520" mediaStart="3375/104654" mediaDuration="943520/52327" minMediaStart="-5833616625/104654" >
         <Transformer>
          <VectorParam id="2790"  name="translation">
           <InterpolatingParam id="2791" interp="linr"  time="-9999999/1" value="0" leadInLength="0/1"  />
           <InterpolatingParam id="2792" interp="linr"  time="-9999999/1" value="0" leadInLength="0/1"  />
           <InterpolatingParam id="2793" interp="linr"  time="-9999999/1" value="0" leadInLength="0/1"  />
          </VectorParam>
          <VectorParam id="2794"  name="rotation">
           <InterpolatingParam id="2795" interp="linr"  time="-9999999/1" value="0" leadInLength="0/1"  />
           <InterpolatingParam id="2796" interp="linr"  time="-9999999/1" value="0" leadInLength="0/1"  />
           <InterpolatingParam id="2797" interp="linr"  time="-9999999/1" value="0" leadInLength="0/1"  />
          </VectorParam>
          <VectorParam id="2798"  name="shear">
           <InterpolatingParam id="2799" interp="linr"  time="-9999999/1" value="0" leadInLength="0/1"  />
           <InterpolatingParam id="2800" interp="linr"  time="-9999999/1" value="0" leadInLength="0/1"  />
           <InterpolatingParam id="2801" interp="linr"  time="-9999999/1" value="0" leadInLength="0/1"  />
          </VectorParam>
          <VectorParam id="2802"  name="scale">
           <InterpolatingParam id="2803" interp="linr"  time="-9999999/1" value="1" leadInLength="0/1"  />
           <InterpolatingParam id="2804" interp="linr"  time="-9999999/1" value="1" leadInLength="0/1"  />
           <InterpolatingParam id="2805" interp="linr"  time="-9999999/1" value="1" leadInLength="0/1"  />
          </VectorParam>
          <VectorParam id="2806"  name="anchor">
           <InterpolatingParam id="2807" interp="linr"  time="0/1" value="0" leadInLength="0/1"  />
           <InterpolatingParam id="2808" interp="linr"  time="0/1" value="0" leadInLength="0/1"  />
           <InterpolatingParam id="2809" interp="linr"  time="0/1" value="0" leadInLength="0/1"  />
          </VectorParam>
         </Transformer>
         <Parameters>
          <VectorParam id="2810"  name="sourceCrop">
           <InterpolatingParam id="2811" interp="linr"  time="0/1" value="0" leadInLength="0/1"  />
           <InterpolatingParam id="2812" interp="linr"  time="0/1" value="0" leadInLength="0/1"  />
           <InterpolatingParam id="2813" interp="linr"  time="0/1" value="0" leadInLength="0/1"  />
           <InterpolatingParam id="2814" interp="linr"  time="0/1" value="0" leadInLength="0/1"  />
          </VectorParam>
          <VectorParam id="2815"  name="geometryCrop">
           <InterpolatingParam id="2816" interp="linr"  time="-9999999/1" value="0" leadInLength="0/1"  />
           <InterpolatingParam id="2817" interp="linr"  time="-9999999/1" value="0" leadInLength="0/1"  />
           <InterpolatingParam id="2818" interp="linr"  time="-9999999/1" value="0" leadInLength="0/1"  />
           <InterpolatingParam id="2819" interp="linr"  time="-9999999/1" value="0" leadInLength="0/1"  />
          </VectorParam>
          <InterpolatingParam id="2820" interp="linr"  time="-9999999/1" value="1" leadInLength="0/1"  name="opacity"/>
          <InterpolatingParam id="2821" interp="linr"  time="0/1" value="1" leadInLength="0/1"  name="cursorOpacity"/>
          <InterpolatingParam id="2822" interp="linr"  time="0/1" value="1" leadInLength="0/1"  name="cursorScale"/>
          <InterpolatingParam id="2823" interp="linr"  name="volume">
           <Keyframes>
           <Keyframe id="2824"  time="-5833616625/104654" value="0" leadInLength="0/1"  />
           <Keyframe id="2825"  time="143611/9514" value="0" leadInLength="0/1"  />
           <Keyframe id="2826"  time="17/1" value="0" leadInLength="0/1"  />
           </Keyframes>
          </InterpolatingParam>
          <Parameter id="2827"  name="captions"/>
         </Parameters>
         <Attributes>
          <Attribute id="2828" value="" name="ident"/>
          <Attribute id="2829" value="0" name="mixToMono"/>
         </Attributes>
         <MetaData>
          <entry key="WinSubProjectDisplayName" val=""/>
         </MetaData>
         <ExtraData>
          <Entry key="ZoomPanBin">
           <ZoomPanBin id="2830"  >
            <ZoomPanKeyframes>
             <ZoomPanKeyframe id="2831" timeRangeEnd="-9999999/1" timeRangeDuration="0/1" interpolaterName="linr"  />
            </ZoomPanKeyframes>
           </ZoomPanBin>
          </Entry>
          <Entry key="CursorEffectBin">
           <CursorEffectBin id="2832"  >
            <CursorEffectKeyframes>
            </CursorEffectKeyframes>
           </CursorEffectBin>
          </Entry>
         </ExtraData>
         <GenericTrack id="2833"  >
          <Attributes>
           <Attribute id="2834" value="" name="ident"/>
           <Attribute id="2835" value="0" name="audioMuted"/>
           <Attribute id="2836" value="0" name="videoHidden"/>
          </Attributes>
          <MetaData>
           <entry key="IsLocked" val="False"/>
           <entry key="WinTrackHeight" val="0"/>
          </MetaData>
          <Medias>
           <IMFile id="2837" start="-55742" duration="55758" scalar="1/1" mediaStart="6973/1" mediaDuration="1/1" trackNumber="0" src="21" trimStartSum="-55742/1" >
            <Transformer>
             <VectorParam id="2838"  name="translation">
              <InterpolatingParam id="2839" interp="linr"  time="-9999999/1" value="0" leadInLength="0/1"  />
              <InterpolatingParam id="2840" interp="linr"  time="-9999999/1" value="0" leadInLength="0/1"  />
              <InterpolatingParam id="2841" interp="linr"  time="-9999999/1" value="0" leadInLength="0/1"  />
             </VectorParam>
             <VectorParam id="2842"  name="rotation">
              <InterpolatingParam id="2843" interp="linr"  time="-9999999/1" value="0" leadInLength="0/1"  />
              <InterpolatingParam id="2844" interp="linr"  time="-9999999/1" value="0" leadInLength="0/1"  />
              <InterpolatingParam id="2845" interp="linr"  time="-9999999/1" value="0" leadInLength="0/1"  />
             </VectorParam>
             <VectorParam id="2846"  name="shear">
              <InterpolatingParam id="2847" interp="linr"  time="-9999999/1" value="0" leadInLength="0/1"  />
              <InterpolatingParam id="2848" interp="linr"  time="-9999999/1" value="0" leadInLength="0/1"  />
              <InterpolatingParam id="2849" interp="linr"  time="-9999999/1" value="0" leadInLength="0/1"  />
             </VectorParam>
             <VectorParam id="2850"  name="scale">
              <InterpolatingParam id="2851" interp="linr"  time="-9999999/1" value="1" leadInLength="0/1"  />
              <InterpolatingParam id="2852" interp="linr"  time="-9999999/1" value="1" leadInLength="0/1"  />
              <InterpolatingParam id="2853" interp="linr"  time="-9999999/1" value="1" leadInLength="0/1"  />
             </VectorParam>
             <VectorParam id="2854"  name="anchor">
              <InterpolatingParam id="2855" interp="linr"  time="0/1" value="0" leadInLength="0/1"  />
              <InterpolatingParam id="2856" interp="linr"  time="0/1" value="0" leadInLength="0/1"  />
              <InterpolatingParam id="2857" interp="linr"  time="0/1" value="0" leadInLength="0/1"  />
             </VectorParam>
            </Transformer>
            <Parameters>
             <VectorParam id="2858"  name="sourceCrop">
              <InterpolatingParam id="2859" interp="linr"  time="0/1" value="0" leadInLength="0/1"  />
              <InterpolatingParam id="2860" interp="linr"  time="0/1" value="0" leadInLength="0/1"  />
              <InterpolatingParam id="2861" interp="linr"  time="0/1" value="0" leadInLength="0/1"  />
              <InterpolatingParam id="2862" interp="linr"  time="0/1" value="0" leadInLength="0/1"  />
             </VectorParam>
             <VectorParam id="2863"  name="geometryCrop">
              <InterpolatingParam id="2864" interp="linr"  time="-9999999/1" value="0" leadInLength="0/1"  />
              <InterpolatingParam id="2865" interp="linr"  time="-9999999/1" value="0" leadInLength="0/1"  />
              <InterpolatingParam id="2866" interp="linr"  time="-9999999/1" value="0" leadInLength="0/1"  />
              <InterpolatingParam id="2867" interp="linr"  time="-9999999/1" value="0" leadInLength="0/1"  />
             </VectorParam>
             <InterpolatingParam id="2868" interp="linr"  time="-9999999/1" value="1" leadInLength="0/1"  name="opacity"/>
            </Parameters>
            <Attributes>
             <Attribute id="2869" value="" name="ident"/>
            </Attributes>
            <MetaData>
             <entry key="WinSubProjectDisplayName" val=""/>
            </MetaData>
            <ExtraData>
             <Entry key="ZoomPanBin">
              <ZoomPanBin id="2870"  >
               <ZoomPanKeyframes>
                <ZoomPanKeyframe id="2871" timeRangeEnd="-9999999/1" timeRangeDuration="0/1" interpolaterName="linr"  />
               </ZoomPanKeyframes>
              </ZoomPanBin>
             </Entry>
            </ExtraData>
           </IMFile>
           <UnifiedMedia id="2872"  >
            <AMFile id="2873" start="16" duration="1979" scalar="1/1" mediaStart="6973/1" mediaDuration="1979/1" trackNumber="1" src="21" channelNumber="0,1" >
             <Parameters>
              <InterpolatingParam id="2874" interp="linr"  time="0/1" value="1" leadInLength="0/1"  name="volume"/>
              <Parameter id="2875"  name="captions"/>
             </Parameters>
             <Attributes>
              <Attribute id="2876" value="" name="ident"/>
              <Attribute id="2877" value="44100" name="sampleRate"/>
              <Attribute id="2878" value="16" name="bitDepth"/>
              <Attribute id="2879" value="1" name="gain"/>
              <Attribute id="2880" value="0" name="mixToMono"/>
             </Attributes>
            </AMFile>
            <VMFile id="2881" start="16" duration="1979" scalar="1/1" mediaStart="6973/1" mediaDuration="1979/1" trackNumber="0" src="21" >
             <Transformer>
              <VectorParam id="2882"  name="translation">
               <InterpolatingParam id="2883" interp="linr"  time="-9999999/1" value="0" leadInLength="0/1"  />
               <InterpolatingParam id="2884" interp="linr"  time="-9999999/1" value="0" leadInLength="0/1"  />
               <InterpolatingParam id="2885" interp="linr"  time="-9999999/1" value="0" leadInLength="0/1"  />
              </VectorParam>
              <VectorParam id="2886"  name="rotation">
               <InterpolatingParam id="2887" interp="linr"  time="-9999999/1" value="0" leadInLength="0/1"  />
               <InterpolatingParam id="2888" interp="linr"  time="-9999999/1" value="0" leadInLength="0/1"  />
               <InterpolatingParam id="2889" interp="linr"  time="-9999999/1" value="0" leadInLength="0/1"  />
              </VectorParam>
              <VectorParam id="2890"  name="shear">
               <InterpolatingParam id="2891" interp="linr"  time="-9999999/1" value="0" leadInLength="0/1"  />
               <InterpolatingParam id="2892" interp="linr"  time="-9999999/1" value="0" leadInLength="0/1"  />
               <InterpolatingParam id="2893" interp="linr"  time="-9999999/1" value="0" leadInLength="0/1"  />
              </VectorParam>
              <VectorParam id="2894"  name="scale">
               <InterpolatingParam id="2895" interp="linr"  time="-9999999/1" value="1" leadInLength="0/1"  />
               <InterpolatingParam id="2896" interp="linr"  time="-9999999/1" value="1" leadInLength="0/1"  />
               <InterpolatingParam id="2897" interp="linr"  time="-9999999/1" value="1" leadInLength="0/1"  />
              </VectorParam>
              <VectorParam id="2898"  name="anchor">
               <InterpolatingParam id="2899" interp="linr"  time="0/1" value="0" leadInLength="0/1"  />
               <InterpolatingParam id="2900" interp="linr"  time="0/1" value="0" leadInLength="0/1"  />
               <InterpolatingParam id="2901" interp="linr"  time="0/1" value="0" leadInLength="0/1"  />
              </VectorParam>
             </Transformer>
             <Parameters>
              <VectorParam id="2902"  name="sourceCrop">
               <InterpolatingParam id="2903" interp="linr"  time="0/1" value="0" leadInLength="0/1"  />
               <InterpolatingParam id="2904" interp="linr"  time="0/1" value="0" leadInLength="0/1"  />
               <InterpolatingParam id="2905" interp="linr"  time="0/1" value="0" leadInLength="0/1"  />
               <InterpolatingParam id="2906" interp="linr"  time="0/1" value="0" leadInLength="0/1"  />
              </VectorParam>
              <VectorParam id="2907"  name="geometryCrop">
               <InterpolatingParam id="2908" interp="linr"  time="-9999999/1" value="0" leadInLength="0/1"  />
               <InterpolatingParam id="2909" interp="linr"  time="-9999999/1" value="0" leadInLength="0/1"  />
               <InterpolatingParam id="2910" interp="linr"  time="-9999999/1" value="0" leadInLength="0/1"  />
               <InterpolatingParam id="2911" interp="linr"  time="-9999999/1" value="0" leadInLength="0/1"  />
              </VectorParam>
              <InterpolatingParam id="2912" interp="linr"  time="-9999999/1" value="1" leadInLength="0/1"  name="opacity"/>
             </Parameters>
             <Attributes>
              <Attribute id="2913" value="" name="ident"/>
             </Attributes>
             <ExtraData>
              <Entry key="ZoomPanBin">
               <ZoomPanBin id="2914"  >
                <ZoomPanKeyframes>
                 <ZoomPanKeyframe id="2915" timeRangeEnd="-9999999/1" timeRangeDuration="0/1" interpolaterName="linr"  />
                </ZoomPanKeyframes>
               </ZoomPanBin>
              </Entry>
             </ExtraData>
            </VMFile>
            <MetaData>
             <entry key="WinSubProjectDisplayName" val=""/>
            </MetaData>
           </UnifiedMedia>
          </Medias>
         </GenericTrack>
        </StitchedMedia>
        <StitchedMedia id="2916" start="7013" duration="21" scalar="1098867/943520" mediaStart="3375/104654" mediaDuration="943520/52327" minMediaStart="-5833616625/104654" >
         <Transformer>
          <VectorParam id="2917"  name="translation">
           <InterpolatingParam id="2918" interp="linr"  time="-9999999/1" value="0" leadInLength="0/1"  />
           <InterpolatingParam id="2919" interp="linr"  time="-9999999/1" value="0" leadInLength="0/1"  />
           <InterpolatingParam id="2920" interp="linr"  time="-9999999/1" value="0" leadInLength="0/1"  />
          </VectorParam>
          <VectorParam id="2921"  name="rotation">
           <InterpolatingParam id="2922" interp="linr"  time="-9999999/1" value="0" leadInLength="0/1"  />
           <InterpolatingParam id="2923" interp="linr"  time="-9999999/1" value="0" leadInLength="0/1"  />
           <InterpolatingParam id="2924" interp="linr"  time="-9999999/1" value="0" leadInLength="0/1"  />
          </VectorParam>
          <VectorParam id="2925"  name="shear">
           <InterpolatingParam id="2926" interp="linr"  time="-9999999/1" value="0" leadInLength="0/1"  />
           <InterpolatingParam id="2927" interp="linr"  time="-9999999/1" value="0" leadInLength="0/1"  />
           <InterpolatingParam id="2928" interp="linr"  time="-9999999/1" value="0" leadInLength="0/1"  />
          </VectorParam>
          <VectorParam id="2929"  name="scale">
           <InterpolatingParam id="2930" interp="linr"  time="-9999999/1" value="1" leadInLength="0/1"  />
           <InterpolatingParam id="2931" interp="linr"  time="-9999999/1" value="1" leadInLength="0/1"  />
           <InterpolatingParam id="2932" interp="linr"  time="-9999999/1" value="1" leadInLength="0/1"  />
          </VectorParam>
          <VectorParam id="2933"  name="anchor">
           <InterpolatingParam id="2934" interp="linr"  time="0/1" value="0" leadInLength="0/1"  />
           <InterpolatingParam id="2935" interp="linr"  time="0/1" value="0" leadInLength="0/1"  />
           <InterpolatingParam id="2936" interp="linr"  time="0/1" value="0" leadInLength="0/1"  />
          </VectorParam>
         </Transformer>
         <Parameters>
          <VectorParam id="2937"  name="sourceCrop">
           <InterpolatingParam id="2938" interp="linr"  time="0/1" value="0" leadInLength="0/1"  />
           <InterpolatingParam id="2939" interp="linr"  time="0/1" value="0" leadInLength="0/1"  />
           <InterpolatingParam id="2940" interp="linr"  time="0/1" value="0" leadInLength="0/1"  />
           <InterpolatingParam id="2941" interp="linr"  time="0/1" value="0" leadInLength="0/1"  />
          </VectorParam>
          <VectorParam id="2942"  name="geometryCrop">
           <InterpolatingParam id="2943" interp="linr"  time="-9999999/1" value="0" leadInLength="0/1"  />
           <InterpolatingParam id="2944" interp="linr"  time="-9999999/1" value="0" leadInLength="0/1"  />
           <InterpolatingParam id="2945" interp="linr"  time="-9999999/1" value="0" leadInLength="0/1"  />
           <InterpolatingParam id="2946" interp="linr"  time="-9999999/1" value="0" leadInLength="0/1"  />
          </VectorParam>
          <InterpolatingParam id="2947" interp="linr"  time="-9999999/1" value="1" leadInLength="0/1"  name="opacity"/>
          <InterpolatingParam id="2948" interp="linr"  time="0/1" value="1" leadInLength="0/1"  name="cursorOpacity"/>
          <InterpolatingParam id="2949" interp="linr"  time="0/1" value="1" leadInLength="0/1"  name="cursorScale"/>
          <InterpolatingParam id="2950" interp="linr"  name="volume">
           <Keyframes>
           <Keyframe id="2951"  time="-5833616625/104654" value="0" leadInLength="0/1"  />
           <Keyframe id="2952"  time="143611/9514" value="0" leadInLength="0/1"  />
           <Keyframe id="2953"  time="17/1" value="0" leadInLength="0/1"  />
           </Keyframes>
          </InterpolatingParam>
          <Parameter id="2954"  name="captions"/>
         </Parameters>
         <Attributes>
          <Attribute id="2955" value="" name="ident"/>
          <Attribute id="2956" value="0" name="mixToMono"/>
         </Attributes>
         <MetaData>
          <entry key="WinSubProjectDisplayName" val=""/>
         </MetaData>
         <ExtraData>
          <Entry key="ZoomPanBin">
           <ZoomPanBin id="2957"  >
            <ZoomPanKeyframes>
             <ZoomPanKeyframe id="2958" timeRangeEnd="-9999999/1" timeRangeDuration="0/1" interpolaterName="linr"  />
            </ZoomPanKeyframes>
           </ZoomPanBin>
          </Entry>
          <Entry key="CursorEffectBin">
           <CursorEffectBin id="2959"  >
            <CursorEffectKeyframes>
            </CursorEffectKeyframes>
           </CursorEffectBin>
          </Entry>
         </ExtraData>
         <GenericTrack id="2960"  >
          <Attributes>
           <Attribute id="2961" value="" name="ident"/>
           <Attribute id="2962" value="0" name="audioMuted"/>
           <Attribute id="2963" value="0" name="videoHidden"/>
          </Attributes>
          <MetaData>
           <entry key="IsLocked" val="False"/>
           <entry key="WinTrackHeight" val="0"/>
          </MetaData>
          <Medias>
           <IMFile id="2964" start="-55742" duration="55758" scalar="1/1" mediaStart="6973/1" mediaDuration="1/1" trackNumber="0" src="21" trimStartSum="-55742/1" >
            <Transformer>
             <VectorParam id="2965"  name="translation">
              <InterpolatingParam id="2966" interp="linr"  time="-9999999/1" value="0" leadInLength="0/1"  />
              <InterpolatingParam id="2967" interp="linr"  time="-9999999/1" value="0" leadInLength="0/1"  />
              <InterpolatingParam id="2968" interp="linr"  time="-9999999/1" value="0" leadInLength="0/1"  />
             </VectorParam>
             <VectorParam id="2969"  name="rotation">
              <InterpolatingParam id="2970" interp="linr"  time="-9999999/1" value="0" leadInLength="0/1"  />
              <InterpolatingParam id="2971" interp="linr"  time="-9999999/1" value="0" leadInLength="0/1"  />
              <InterpolatingParam id="2972" interp="linr"  time="-9999999/1" value="0" leadInLength="0/1"  />
             </VectorParam>
             <VectorParam id="2973"  name="shear">
              <InterpolatingParam id="2974" interp="linr"  time="-9999999/1" value="0" leadInLength="0/1"  />
              <InterpolatingParam id="2975" interp="linr"  time="-9999999/1" value="0" leadInLength="0/1"  />
              <InterpolatingParam id="2976" interp="linr"  time="-9999999/1" value="0" leadInLength="0/1"  />
             </VectorParam>
             <VectorParam id="2977"  name="scale">
              <InterpolatingParam id="2978" interp="linr"  time="-9999999/1" value="1" leadInLength="0/1"  />
              <InterpolatingParam id="2979" interp="linr"  time="-9999999/1" value="1" leadInLength="0/1"  />
              <InterpolatingParam id="2980" interp="linr"  time="-9999999/1" value="1" leadInLength="0/1"  />
             </VectorParam>
             <VectorParam id="2981"  name="anchor">
              <InterpolatingParam id="2982" interp="linr"  time="0/1" value="0" leadInLength="0/1"  />
              <InterpolatingParam id="2983" interp="linr"  time="0/1" value="0" leadInLength="0/1"  />
              <InterpolatingParam id="2984" interp="linr"  time="0/1" value="0" leadInLength="0/1"  />
             </VectorParam>
            </Transformer>
            <Parameters>
             <VectorParam id="2985"  name="sourceCrop">
              <InterpolatingParam id="2986" interp="linr"  time="0/1" value="0" leadInLength="0/1"  />
              <InterpolatingParam id="2987" interp="linr"  time="0/1" value="0" leadInLength="0/1"  />
              <InterpolatingParam id="2988" interp="linr"  time="0/1" value="0" leadInLength="0/1"  />
              <InterpolatingParam id="2989" interp="linr"  time="0/1" value="0" leadInLength="0/1"  />
             </VectorParam>
             <VectorParam id="2990"  name="geometryCrop">
              <InterpolatingParam id="2991" interp="linr"  time="-9999999/1" value="0" leadInLength="0/1"  />
              <InterpolatingParam id="2992" interp="linr"  time="-9999999/1" value="0" leadInLength="0/1"  />
              <InterpolatingParam id="2993" interp="linr"  time="-9999999/1" value="0" leadInLength="0/1"  />
              <InterpolatingParam id="2994" interp="linr"  time="-9999999/1" value="0" leadInLength="0/1"  />
             </VectorParam>
             <InterpolatingParam id="2995" interp="linr"  time="-9999999/1" value="1" leadInLength="0/1"  name="opacity"/>
            </Parameters>
            <Attributes>
             <Attribute id="2996" value="" name="ident"/>
            </Attributes>
            <MetaData>
             <entry key="WinSubProjectDisplayName" val=""/>
            </MetaData>
            <ExtraData>
             <Entry key="ZoomPanBin">
              <ZoomPanBin id="2997"  >
               <ZoomPanKeyframes>
                <ZoomPanKeyframe id="2998" timeRangeEnd="-9999999/1" timeRangeDuration="0/1" interpolaterName="linr"  />
               </ZoomPanKeyframes>
              </ZoomPanBin>
             </Entry>
            </ExtraData>
           </IMFile>
           <UnifiedMedia id="2999"  >
            <AMFile id="3000" start="16" duration="1979" scalar="1/1" mediaStart="6973/1" mediaDuration="1979/1" trackNumber="1" src="21" channelNumber="0,1" >
             <Parameters>
              <InterpolatingParam id="3001" interp="linr"  time="0/1" value="1" leadInLength="0/1"  name="volume"/>
              <Parameter id="3002"  name="captions"/>
             </Parameters>
             <Attributes>
              <Attribute id="3003" value="" name="ident"/>
              <Attribute id="3004" value="44100" name="sampleRate"/>
              <Attribute id="3005" value="16" name="bitDepth"/>
              <Attribute id="3006" value="1" name="gain"/>
              <Attribute id="3007" value="0" name="mixToMono"/>
             </Attributes>
            </AMFile>
            <VMFile id="3008" start="16" duration="1979" scalar="1/1" mediaStart="6973/1" mediaDuration="1979/1" trackNumber="0" src="21" >
             <Transformer>
              <VectorParam id="3009"  name="translation">
               <InterpolatingParam id="3010" interp="linr"  time="-9999999/1" value="0" leadInLength="0/1"  />
               <InterpolatingParam id="3011" interp="linr"  time="-9999999/1" value="0" leadInLength="0/1"  />
               <InterpolatingParam id="3012" interp="linr"  time="-9999999/1" value="0" leadInLength="0/1"  />
              </VectorParam>
              <VectorParam id="3013"  name="rotation">
               <InterpolatingParam id="3014" interp="linr"  time="-9999999/1" value="0" leadInLength="0/1"  />
               <InterpolatingParam id="3015" interp="linr"  time="-9999999/1" value="0" leadInLength="0/1"  />
               <InterpolatingParam id="3016" interp="linr"  time="-9999999/1" value="0" leadInLength="0/1"  />
              </VectorParam>
              <VectorParam id="3017"  name="shear">
               <InterpolatingParam id="3018" interp="linr"  time="-9999999/1" value="0" leadInLength="0/1"  />
               <InterpolatingParam id="3019" interp="linr"  time="-9999999/1" value="0" leadInLength="0/1"  />
               <InterpolatingParam id="3020" interp="linr"  time="-9999999/1" value="0" leadInLength="0/1"  />
              </VectorParam>
              <VectorParam id="3021"  name="scale">
               <InterpolatingParam id="3022" interp="linr"  time="-9999999/1" value="1" leadInLength="0/1"  />
               <InterpolatingParam id="3023" interp="linr"  time="-9999999/1" value="1" leadInLength="0/1"  />
               <InterpolatingParam id="3024" interp="linr"  time="-9999999/1" value="1" leadInLength="0/1"  />
              </VectorParam>
              <VectorParam id="3025"  name="anchor">
               <InterpolatingParam id="3026" interp="linr"  time="0/1" value="0" leadInLength="0/1"  />
               <InterpolatingParam id="3027" interp="linr"  time="0/1" value="0" leadInLength="0/1"  />
               <InterpolatingParam id="3028" interp="linr"  time="0/1" value="0" leadInLength="0/1"  />
              </VectorParam>
             </Transformer>
             <Parameters>
              <VectorParam id="3029"  name="sourceCrop">
               <InterpolatingParam id="3030" interp="linr"  time="0/1" value="0" leadInLength="0/1"  />
               <InterpolatingParam id="3031" interp="linr"  time="0/1" value="0" leadInLength="0/1"  />
               <InterpolatingParam id="3032" interp="linr"  time="0/1" value="0" leadInLength="0/1"  />
               <InterpolatingParam id="3033" interp="linr"  time="0/1" value="0" leadInLength="0/1"  />
              </VectorParam>
              <VectorParam id="3034"  name="geometryCrop">
               <InterpolatingParam id="3035" interp="linr"  time="-9999999/1" value="0" leadInLength="0/1"  />
               <InterpolatingParam id="3036" interp="linr"  time="-9999999/1" value="0" leadInLength="0/1"  />
               <InterpolatingParam id="3037" interp="linr"  time="-9999999/1" value="0" leadInLength="0/1"  />
               <InterpolatingParam id="3038" interp="linr"  time="-9999999/1" value="0" leadInLength="0/1"  />
              </VectorParam>
              <InterpolatingParam id="3039" interp="linr"  time="-9999999/1" value="1" leadInLength="0/1"  name="opacity"/>
             </Parameters>
             <Attributes>
              <Attribute id="3040" value="" name="ident"/>
             </Attributes>
             <ExtraData>
              <Entry key="ZoomPanBin">
               <ZoomPanBin id="3041"  >
                <ZoomPanKeyframes>
                 <ZoomPanKeyframe id="3042" timeRangeEnd="-9999999/1" timeRangeDuration="0/1" interpolaterName="linr"  />
                </ZoomPanKeyframes>
               </ZoomPanBin>
              </Entry>
             </ExtraData>
            </VMFile>
            <MetaData>
             <entry key="WinSubProjectDisplayName" val=""/>
            </MetaData>
           </UnifiedMedia>
          </Medias>
         </GenericTrack>
        </StitchedMedia>
        <StitchedMedia id="3043" start="7034" duration="21" scalar="1098867/943520" mediaStart="3375/104654" mediaDuration="943520/52327" minMediaStart="-5833616625/104654" >
         <Transformer>
          <VectorParam id="3044"  name="translation">
           <InterpolatingParam id="3045" interp="linr"  time="-9999999/1" value="0" leadInLength="0/1"  />
           <InterpolatingParam id="3046" interp="linr"  time="-9999999/1" value="0" leadInLength="0/1"  />
           <InterpolatingParam id="3047" interp="linr"  time="-9999999/1" value="0" leadInLength="0/1"  />
          </VectorParam>
          <VectorParam id="3048"  name="rotation">
           <InterpolatingParam id="3049" interp="linr"  time="-9999999/1" value="0" leadInLength="0/1"  />
           <InterpolatingParam id="3050" interp="linr"  time="-9999999/1" value="0" leadInLength="0/1"  />
           <InterpolatingParam id="3051" interp="linr"  time="-9999999/1" value="0" leadInLength="0/1"  />
          </VectorParam>
          <VectorParam id="3052"  name="shear">
           <InterpolatingParam id="3053" interp="linr"  time="-9999999/1" value="0" leadInLength="0/1"  />
           <InterpolatingParam id="3054" interp="linr"  time="-9999999/1" value="0" leadInLength="0/1"  />
           <InterpolatingParam id="3055" interp="linr"  time="-9999999/1" value="0" leadInLength="0/1"  />
          </VectorParam>
          <VectorParam id="3056"  name="scale">
           <InterpolatingParam id="3057" interp="linr"  time="-9999999/1" value="1" leadInLength="0/1"  />
           <InterpolatingParam id="3058" interp="linr"  time="-9999999/1" value="1" leadInLength="0/1"  />
           <InterpolatingParam id="3059" interp="linr"  time="-9999999/1" value="1" leadInLength="0/1"  />
          </VectorParam>
          <VectorParam id="3060"  name="anchor">
           <InterpolatingParam id="3061" interp="linr"  time="0/1" value="0" leadInLength="0/1"  />
           <InterpolatingParam id="3062" interp="linr"  time="0/1" value="0" leadInLength="0/1"  />
           <InterpolatingParam id="3063" interp="linr"  time="0/1" value="0" leadInLength="0/1"  />
          </VectorParam>
         </Transformer>
         <Parameters>
          <VectorParam id="3064"  name="sourceCrop">
           <InterpolatingParam id="3065" interp="linr"  time="0/1" value="0" leadInLength="0/1"  />
           <InterpolatingParam id="3066" interp="linr"  time="0/1" value="0" leadInLength="0/1"  />
           <InterpolatingParam id="3067" interp="linr"  time="0/1" value="0" leadInLength="0/1"  />
           <InterpolatingParam id="3068" interp="linr"  time="0/1" value="0" leadInLength="0/1"  />
          </VectorParam>
          <VectorParam id="3069"  name="geometryCrop">
           <InterpolatingParam id="3070" interp="linr"  time="-9999999/1" value="0" leadInLength="0/1"  />
           <InterpolatingParam id="3071" interp="linr"  time="-9999999/1" value="0" leadInLength="0/1"  />
           <InterpolatingParam id="3072" interp="linr"  time="-9999999/1" value="0" leadInLength="0/1"  />
           <InterpolatingParam id="3073" interp="linr"  time="-9999999/1" value="0" leadInLength="0/1"  />
          </VectorParam>
          <InterpolatingParam id="3074" interp="linr"  time="-9999999/1" value="1" leadInLength="0/1"  name="opacity"/>
          <InterpolatingParam id="3075" interp="linr"  time="0/1" value="1" leadInLength="0/1"  name="cursorOpacity"/>
          <InterpolatingParam id="3076" interp="linr"  time="0/1" value="1" leadInLength="0/1"  name="cursorScale"/>
          <InterpolatingParam id="3077" interp="linr"  name="volume">
           <Keyframes>
           <Keyframe id="3078"  time="-5833616625/104654" value="0" leadInLength="0/1"  />
           <Keyframe id="3079"  time="143611/9514" value="0" leadInLength="0/1"  />
           <Keyframe id="3080"  time="17/1" value="0" leadInLength="0/1"  />
           </Keyframes>
          </InterpolatingParam>
          <Parameter id="3081"  name="captions"/>
         </Parameters>
         <Attributes>
          <Attribute id="3082" value="" name="ident"/>
          <Attribute id="3083" value="0" name="mixToMono"/>
         </Attributes>
         <MetaData>
          <entry key="WinSubProjectDisplayName" val=""/>
         </MetaData>
         <ExtraData>
          <Entry key="ZoomPanBin">
           <ZoomPanBin id="3084"  >
            <ZoomPanKeyframes>
             <ZoomPanKeyframe id="3085" timeRangeEnd="-9999999/1" timeRangeDuration="0/1" interpolaterName="linr"  />
            </ZoomPanKeyframes>
           </ZoomPanBin>
          </Entry>
          <Entry key="CursorEffectBin">
           <CursorEffectBin id="3086"  >
            <CursorEffectKeyframes>
            </CursorEffectKeyframes>
           </CursorEffectBin>
          </Entry>
         </ExtraData>
         <GenericTrack id="3087"  >
          <Attributes>
           <Attribute id="3088" value="" name="ident"/>
           <Attribute id="3089" value="0" name="audioMuted"/>
           <Attribute id="3090" value="0" name="videoHidden"/>
          </Attributes>
          <MetaData>
           <entry key="IsLocked" val="False"/>
           <entry key="WinTrackHeight" val="0"/>
          </MetaData>
          <Medias>
           <IMFile id="3091" start="-55742" duration="55758" scalar="1/1" mediaStart="6973/1" mediaDuration="1/1" trackNumber="0" src="21" trimStartSum="-55742/1" >
            <Transformer>
             <VectorParam id="3092"  name="translation">
              <InterpolatingParam id="3093" interp="linr"  time="-9999999/1" value="0" leadInLength="0/1"  />
              <InterpolatingParam id="3094" interp="linr"  time="-9999999/1" value="0" leadInLength="0/1"  />
              <InterpolatingParam id="3095" interp="linr"  time="-9999999/1" value="0" leadInLength="0/1"  />
             </VectorParam>
             <VectorParam id="3096"  name="rotation">
              <InterpolatingParam id="3097" interp="linr"  time="-9999999/1" value="0" leadInLength="0/1"  />
              <InterpolatingParam id="3098" interp="linr"  time="-9999999/1" value="0" leadInLength="0/1"  />
              <InterpolatingParam id="3099" interp="linr"  time="-9999999/1" value="0" leadInLength="0/1"  />
             </VectorParam>
             <VectorParam id="3100"  name="shear">
              <InterpolatingParam id="3101" interp="linr"  time="-9999999/1" value="0" leadInLength="0/1"  />
              <InterpolatingParam id="3102" interp="linr"  time="-9999999/1" value="0" leadInLength="0/1"  />
              <InterpolatingParam id="3103" interp="linr"  time="-9999999/1" value="0" leadInLength="0/1"  />
             </VectorParam>
             <VectorParam id="3104"  name="scale">
              <InterpolatingParam id="3105" interp="linr"  time="-9999999/1" value="1" leadInLength="0/1"  />
              <InterpolatingParam id="3106" interp="linr"  time="-9999999/1" value="1" leadInLength="0/1"  />
              <InterpolatingParam id="3107" interp="linr"  time="-9999999/1" value="1" leadInLength="0/1"  />
             </VectorParam>
             <VectorParam id="3108"  name="anchor">
              <InterpolatingParam id="3109" interp="linr"  time="0/1" value="0" leadInLength="0/1"  />
              <InterpolatingParam id="3110" interp="linr"  time="0/1" value="0" leadInLength="0/1"  />
              <InterpolatingParam id="3111" interp="linr"  time="0/1" value="0" leadInLength="0/1"  />
             </VectorParam>
            </Transformer>
            <Parameters>
             <VectorParam id="3112"  name="sourceCrop">
              <InterpolatingParam id="3113" interp="linr"  time="0/1" value="0" leadInLength="0/1"  />
              <InterpolatingParam id="3114" interp="linr"  time="0/1" value="0" leadInLength="0/1"  />
              <InterpolatingParam id="3115" interp="linr"  time="0/1" value="0" leadInLength="0/1"  />
              <InterpolatingParam id="3116" interp="linr"  time="0/1" value="0" leadInLength="0/1"  />
             </VectorParam>
             <VectorParam id="3117"  name="geometryCrop">
              <InterpolatingParam id="3118" interp="linr"  time="-9999999/1" value="0" leadInLength="0/1"  />
              <InterpolatingParam id="3119" interp="linr"  time="-9999999/1" value="0" leadInLength="0/1"  />
              <InterpolatingParam id="3120" interp="linr"  time="-9999999/1" value="0" leadInLength="0/1"  />
              <InterpolatingParam id="3121" interp="linr"  time="-9999999/1" value="0" leadInLength="0/1"  />
             </VectorParam>
             <InterpolatingParam id="3122" interp="linr"  time="-9999999/1" value="1" leadInLength="0/1"  name="opacity"/>
            </Parameters>
            <Attributes>
             <Attribute id="3123" value="" name="ident"/>
            </Attributes>
            <MetaData>
             <entry key="WinSubProjectDisplayName" val=""/>
            </MetaData>
            <ExtraData>
             <Entry key="ZoomPanBin">
              <ZoomPanBin id="3124"  >
               <ZoomPanKeyframes>
                <ZoomPanKeyframe id="3125" timeRangeEnd="-9999999/1" timeRangeDuration="0/1" interpolaterName="linr"  />
               </ZoomPanKeyframes>
              </ZoomPanBin>
             </Entry>
            </ExtraData>
           </IMFile>
           <UnifiedMedia id="3126"  >
            <AMFile id="3127" start="16" duration="1979" scalar="1/1" mediaStart="6973/1" mediaDuration="1979/1" trackNumber="1" src="21" channelNumber="0,1" >
             <Parameters>
              <InterpolatingParam id="3128" interp="linr"  time="0/1" value="1" leadInLength="0/1"  name="volume"/>
              <Parameter id="3129"  name="captions"/>
             </Parameters>
             <Attributes>
              <Attribute id="3130" value="" name="ident"/>
              <Attribute id="3131" value="44100" name="sampleRate"/>
              <Attribute id="3132" value="16" name="bitDepth"/>
              <Attribute id="3133" value="1" name="gain"/>
              <Attribute id="3134" value="0" name="mixToMono"/>
             </Attributes>
            </AMFile>
            <VMFile id="3135" start="16" duration="1979" scalar="1/1" mediaStart="6973/1" mediaDuration="1979/1" trackNumber="0" src="21" >
             <Transformer>
              <VectorParam id="3136"  name="translation">
               <InterpolatingParam id="3137" interp="linr"  time="-9999999/1" value="0" leadInLength="0/1"  />
               <InterpolatingParam id="3138" interp="linr"  time="-9999999/1" value="0" leadInLength="0/1"  />
               <InterpolatingParam id="3139" interp="linr"  time="-9999999/1" value="0" leadInLength="0/1"  />
              </VectorParam>
              <VectorParam id="3140"  name="rotation">
               <InterpolatingParam id="3141" interp="linr"  time="-9999999/1" value="0" leadInLength="0/1"  />
               <InterpolatingParam id="3142" interp="linr"  time="-9999999/1" value="0" leadInLength="0/1"  />
               <InterpolatingParam id="3143" interp="linr"  time="-9999999/1" value="0" leadInLength="0/1"  />
              </VectorParam>
              <VectorParam id="3144"  name="shear">
               <InterpolatingParam id="3145" interp="linr"  time="-9999999/1" value="0" leadInLength="0/1"  />
               <InterpolatingParam id="3146" interp="linr"  time="-9999999/1" value="0" leadInLength="0/1"  />
               <InterpolatingParam id="3147" interp="linr"  time="-9999999/1" value="0" leadInLength="0/1"  />
              </VectorParam>
              <VectorParam id="3148"  name="scale">
               <InterpolatingParam id="3149" interp="linr"  time="-9999999/1" value="1" leadInLength="0/1"  />
               <InterpolatingParam id="3150" interp="linr"  time="-9999999/1" value="1" leadInLength="0/1"  />
               <InterpolatingParam id="3151" interp="linr"  time="-9999999/1" value="1" leadInLength="0/1"  />
              </VectorParam>
              <VectorParam id="3152"  name="anchor">
               <InterpolatingParam id="3153" interp="linr"  time="0/1" value="0" leadInLength="0/1"  />
               <InterpolatingParam id="3154" interp="linr"  time="0/1" value="0" leadInLength="0/1"  />
               <InterpolatingParam id="3155" interp="linr"  time="0/1" value="0" leadInLength="0/1"  />
              </VectorParam>
             </Transformer>
             <Parameters>
              <VectorParam id="3156"  name="sourceCrop">
               <InterpolatingParam id="3157" interp="linr"  time="0/1" value="0" leadInLength="0/1"  />
               <InterpolatingParam id="3158" interp="linr"  time="0/1" value="0" leadInLength="0/1"  />
               <InterpolatingParam id="3159" interp="linr"  time="0/1" value="0" leadInLength="0/1"  />
               <InterpolatingParam id="3160" interp="linr"  time="0/1" value="0" leadInLength="0/1"  />
              </VectorParam>
              <VectorParam id="3161"  name="geometryCrop">
               <InterpolatingParam id="3162" interp="linr"  time="-9999999/1" value="0" leadInLength="0/1"  />
               <InterpolatingParam id="3163" interp="linr"  time="-9999999/1" value="0" leadInLength="0/1"  />
               <InterpolatingParam id="3164" interp="linr"  time="-9999999/1" value="0" leadInLength="0/1"  />
               <InterpolatingParam id="3165" interp="linr"  time="-9999999/1" value="0" leadInLength="0/1"  />
              </VectorParam>
              <InterpolatingParam id="3166" interp="linr"  time="-9999999/1" value="1" leadInLength="0/1"  name="opacity"/>
             </Parameters>
             <Attributes>
              <Attribute id="3167" value="" name="ident"/>
             </Attributes>
             <ExtraData>
              <Entry key="ZoomPanBin">
               <ZoomPanBin id="3168"  >
                <ZoomPanKeyframes>
                 <ZoomPanKeyframe id="3169" timeRangeEnd="-9999999/1" timeRangeDuration="0/1" interpolaterName="linr"  />
                </ZoomPanKeyframes>
               </ZoomPanBin>
              </Entry>
             </ExtraData>
            </VMFile>
            <MetaData>
             <entry key="WinSubProjectDisplayName" val=""/>
            </MetaData>
           </UnifiedMedia>
          </Medias>
         </GenericTrack>
        </StitchedMedia>
        <StitchedMedia id="3170" start="7055" duration="21" scalar="1098867/943520" mediaStart="3375/104654" mediaDuration="943520/52327" minMediaStart="-5833616625/104654" >
         <Transformer>
          <VectorParam id="3171"  name="translation">
           <InterpolatingParam id="3172" interp="linr"  time="-9999999/1" value="0" leadInLength="0/1"  />
           <InterpolatingParam id="3173" interp="linr"  time="-9999999/1" value="0" leadInLength="0/1"  />
           <InterpolatingParam id="3174" interp="linr"  time="-9999999/1" value="0" leadInLength="0/1"  />
          </VectorParam>
          <VectorParam id="3175"  name="rotation">
           <InterpolatingParam id="3176" interp="linr"  time="-9999999/1" value="0" leadInLength="0/1"  />
           <InterpolatingParam id="3177" interp="linr"  time="-9999999/1" value="0" leadInLength="0/1"  />
           <InterpolatingParam id="3178" interp="linr"  time="-9999999/1" value="0" leadInLength="0/1"  />
          </VectorParam>
          <VectorParam id="3179"  name="shear">
           <InterpolatingParam id="3180" interp="linr"  time="-9999999/1" value="0" leadInLength="0/1"  />
           <InterpolatingParam id="3181" interp="linr"  time="-9999999/1" value="0" leadInLength="0/1"  />
           <InterpolatingParam id="3182" interp="linr"  time="-9999999/1" value="0" leadInLength="0/1"  />
          </VectorParam>
          <VectorParam id="3183"  name="scale">
           <InterpolatingParam id="3184" interp="linr"  time="-9999999/1" value="1" leadInLength="0/1"  />
           <InterpolatingParam id="3185" interp="linr"  time="-9999999/1" value="1" leadInLength="0/1"  />
           <InterpolatingParam id="3186" interp="linr"  time="-9999999/1" value="1" leadInLength="0/1"  />
          </VectorParam>
          <VectorParam id="3187"  name="anchor">
           <InterpolatingParam id="3188" interp="linr"  time="0/1" value="0" leadInLength="0/1"  />
           <InterpolatingParam id="3189" interp="linr"  time="0/1" value="0" leadInLength="0/1"  />
           <InterpolatingParam id="3190" interp="linr"  time="0/1" value="0" leadInLength="0/1"  />
          </VectorParam>
         </Transformer>
         <Parameters>
          <VectorParam id="3191"  name="sourceCrop">
           <InterpolatingParam id="3192" interp="linr"  time="0/1" value="0" leadInLength="0/1"  />
           <InterpolatingParam id="3193" interp="linr"  time="0/1" value="0" leadInLength="0/1"  />
           <InterpolatingParam id="3194" interp="linr"  time="0/1" value="0" leadInLength="0/1"  />
           <InterpolatingParam id="3195" interp="linr"  time="0/1" value="0" leadInLength="0/1"  />
          </VectorParam>
          <VectorParam id="3196"  name="geometryCrop">
           <InterpolatingParam id="3197" interp="linr"  time="-9999999/1" value="0" leadInLength="0/1"  />
           <InterpolatingParam id="3198" interp="linr"  time="-9999999/1" value="0" leadInLength="0/1"  />
           <InterpolatingParam id="3199" interp="linr"  time="-9999999/1" value="0" leadInLength="0/1"  />
           <InterpolatingParam id="3200" interp="linr"  time="-9999999/1" value="0" leadInLength="0/1"  />
          </VectorParam>
          <InterpolatingParam id="3201" interp="linr"  time="-9999999/1" value="1" leadInLength="0/1"  name="opacity"/>
          <InterpolatingParam id="3202" interp="linr"  time="0/1" value="1" leadInLength="0/1"  name="cursorOpacity"/>
          <InterpolatingParam id="3203" interp="linr"  time="0/1" value="1" leadInLength="0/1"  name="cursorScale"/>
          <InterpolatingParam id="3204" interp="linr"  name="volume">
           <Keyframes>
           <Keyframe id="3205"  time="-5833616625/104654" value="0" leadInLength="0/1"  />
           <Keyframe id="3206"  time="143611/9514" value="0" leadInLength="0/1"  />
           <Keyframe id="3207"  time="17/1" value="0" leadInLength="0/1"  />
           </Keyframes>
          </InterpolatingParam>
          <Parameter id="3208"  name="captions"/>
         </Parameters>
         <Attributes>
          <Attribute id="3209" value="" name="ident"/>
          <Attribute id="3210" value="0" name="mixToMono"/>
         </Attributes>
         <MetaData>
          <entry key="WinSubProjectDisplayName" val=""/>
         </MetaData>
         <ExtraData>
          <Entry key="ZoomPanBin">
           <ZoomPanBin id="3211"  >
            <ZoomPanKeyframes>
             <ZoomPanKeyframe id="3212" timeRangeEnd="-9999999/1" timeRangeDuration="0/1" interpolaterName="linr"  />
            </ZoomPanKeyframes>
           </ZoomPanBin>
          </Entry>
          <Entry key="CursorEffectBin">
           <CursorEffectBin id="3213"  >
            <CursorEffectKeyframes>
            </CursorEffectKeyframes>
           </CursorEffectBin>
          </Entry>
         </ExtraData>
         <GenericTrack id="3214"  >
          <Attributes>
           <Attribute id="3215" value="" name="ident"/>
           <Attribute id="3216" value="0" name="audioMuted"/>
           <Attribute id="3217" value="0" name="videoHidden"/>
          </Attributes>
          <MetaData>
           <entry key="IsLocked" val="False"/>
           <entry key="WinTrackHeight" val="0"/>
          </MetaData>
          <Medias>
           <IMFile id="3218" start="-55742" duration="55758" scalar="1/1" mediaStart="6973/1" mediaDuration="1/1" trackNumber="0" src="21" trimStartSum="-55742/1" >
            <Transformer>
             <VectorParam id="3219"  name="translation">
              <InterpolatingParam id="3220" interp="linr"  time="-9999999/1" value="0" leadInLength="0/1"  />
              <InterpolatingParam id="3221" interp="linr"  time="-9999999/1" value="0" leadInLength="0/1"  />
              <InterpolatingParam id="3222" interp="linr"  time="-9999999/1" value="0" leadInLength="0/1"  />
             </VectorParam>
             <VectorParam id="3223"  name="rotation">
              <InterpolatingParam id="3224" interp="linr"  time="-9999999/1" value="0" leadInLength="0/1"  />
              <InterpolatingParam id="3225" interp="linr"  time="-9999999/1" value="0" leadInLength="0/1"  />
              <InterpolatingParam id="3226" interp="linr"  time="-9999999/1" value="0" leadInLength="0/1"  />
             </VectorParam>
             <VectorParam id="3227"  name="shear">
              <InterpolatingParam id="3228" interp="linr"  time="-9999999/1" value="0" leadInLength="0/1"  />
              <InterpolatingParam id="3229" interp="linr"  time="-9999999/1" value="0" leadInLength="0/1"  />
              <InterpolatingParam id="3230" interp="linr"  time="-9999999/1" value="0" leadInLength="0/1"  />
             </VectorParam>
             <VectorParam id="3231"  name="scale">
              <InterpolatingParam id="3232" interp="linr"  time="-9999999/1" value="1" leadInLength="0/1"  />
              <InterpolatingParam id="3233" interp="linr"  time="-9999999/1" value="1" leadInLength="0/1"  />
              <InterpolatingParam id="3234" interp="linr"  time="-9999999/1" value="1" leadInLength="0/1"  />
             </VectorParam>
             <VectorParam id="3235"  name="anchor">
              <InterpolatingParam id="3236" interp="linr"  time="0/1" value="0" leadInLength="0/1"  />
              <InterpolatingParam id="3237" interp="linr"  time="0/1" value="0" leadInLength="0/1"  />
              <InterpolatingParam id="3238" interp="linr"  time="0/1" value="0" leadInLength="0/1"  />
             </VectorParam>
            </Transformer>
            <Parameters>
             <VectorParam id="3239"  name="sourceCrop">
              <InterpolatingParam id="3240" interp="linr"  time="0/1" value="0" leadInLength="0/1"  />
              <InterpolatingParam id="3241" interp="linr"  time="0/1" value="0" leadInLength="0/1"  />
              <InterpolatingParam id="3242" interp="linr"  time="0/1" value="0" leadInLength="0/1"  />
              <InterpolatingParam id="3243" interp="linr"  time="0/1" value="0" leadInLength="0/1"  />
             </VectorParam>
             <VectorParam id="3244"  name="geometryCrop">
              <InterpolatingParam id="3245" interp="linr"  time="-9999999/1" value="0" leadInLength="0/1"  />
              <InterpolatingParam id="3246" interp="linr"  time="-9999999/1" value="0" leadInLength="0/1"  />
              <InterpolatingParam id="3247" interp="linr"  time="-9999999/1" value="0" leadInLength="0/1"  />
              <InterpolatingParam id="3248" interp="linr"  time="-9999999/1" value="0" leadInLength="0/1"  />
             </VectorParam>
             <InterpolatingParam id="3249" interp="linr"  time="-9999999/1" value="1" leadInLength="0/1"  name="opacity"/>
            </Parameters>
            <Attributes>
             <Attribute id="3250" value="" name="ident"/>
            </Attributes>
            <MetaData>
             <entry key="WinSubProjectDisplayName" val=""/>
            </MetaData>
            <ExtraData>
             <Entry key="ZoomPanBin">
              <ZoomPanBin id="3251"  >
               <ZoomPanKeyframes>
                <ZoomPanKeyframe id="3252" timeRangeEnd="-9999999/1" timeRangeDuration="0/1" interpolaterName="linr"  />
               </ZoomPanKeyframes>
              </ZoomPanBin>
             </Entry>
            </ExtraData>
           </IMFile>
           <UnifiedMedia id="3253"  >
            <AMFile id="3254" start="16" duration="1979" scalar="1/1" mediaStart="6973/1" mediaDuration="1979/1" trackNumber="1" src="21" channelNumber="0,1" >
             <Parameters>
              <InterpolatingParam id="3255" interp="linr"  time="0/1" value="1" leadInLength="0/1"  name="volume"/>
              <Parameter id="3256"  name="captions"/>
             </Parameters>
             <Attributes>
              <Attribute id="3257" value="" name="ident"/>
              <Attribute id="3258" value="44100" name="sampleRate"/>
              <Attribute id="3259" value="16" name="bitDepth"/>
              <Attribute id="3260" value="1" name="gain"/>
              <Attribute id="3261" value="0" name="mixToMono"/>
             </Attributes>
            </AMFile>
            <VMFile id="3262" start="16" duration="1979" scalar="1/1" mediaStart="6973/1" mediaDuration="1979/1" trackNumber="0" src="21" >
             <Transformer>
              <VectorParam id="3263"  name="translation">
               <InterpolatingParam id="3264" interp="linr"  time="-9999999/1" value="0" leadInLength="0/1"  />
               <InterpolatingParam id="3265" interp="linr"  time="-9999999/1" value="0" leadInLength="0/1"  />
               <InterpolatingParam id="3266" interp="linr"  time="-9999999/1" value="0" leadInLength="0/1"  />
              </VectorParam>
              <VectorParam id="3267"  name="rotation">
               <InterpolatingParam id="3268" interp="linr"  time="-9999999/1" value="0" leadInLength="0/1"  />
               <InterpolatingParam id="3269" interp="linr"  time="-9999999/1" value="0" leadInLength="0/1"  />
               <InterpolatingParam id="3270" interp="linr"  time="-9999999/1" value="0" leadInLength="0/1"  />
              </VectorParam>
              <VectorParam id="3271"  name="shear">
               <InterpolatingParam id="3272" interp="linr"  time="-9999999/1" value="0" leadInLength="0/1"  />
               <InterpolatingParam id="3273" interp="linr"  time="-9999999/1" value="0" leadInLength="0/1"  />
               <InterpolatingParam id="3274" interp="linr"  time="-9999999/1" value="0" leadInLength="0/1"  />
              </VectorParam>
              <VectorParam id="3275"  name="scale">
               <InterpolatingParam id="3276" interp="linr"  time="-9999999/1" value="1" leadInLength="0/1"  />
               <InterpolatingParam id="3277" interp="linr"  time="-9999999/1" value="1" leadInLength="0/1"  />
               <InterpolatingParam id="3278" interp="linr"  time="-9999999/1" value="1" leadInLength="0/1"  />
              </VectorParam>
              <VectorParam id="3279"  name="anchor">
               <InterpolatingParam id="3280" interp="linr"  time="0/1" value="0" leadInLength="0/1"  />
               <InterpolatingParam id="3281" interp="linr"  time="0/1" value="0" leadInLength="0/1"  />
               <InterpolatingParam id="3282" interp="linr"  time="0/1" value="0" leadInLength="0/1"  />
              </VectorParam>
             </Transformer>
             <Parameters>
              <VectorParam id="3283"  name="sourceCrop">
               <InterpolatingParam id="3284" interp="linr"  time="0/1" value="0" leadInLength="0/1"  />
               <InterpolatingParam id="3285" interp="linr"  time="0/1" value="0" leadInLength="0/1"  />
               <InterpolatingParam id="3286" interp="linr"  time="0/1" value="0" leadInLength="0/1"  />
               <InterpolatingParam id="3287" interp="linr"  time="0/1" value="0" leadInLength="0/1"  />
              </VectorParam>
              <VectorParam id="3288"  name="geometryCrop">
               <InterpolatingParam id="3289" interp="linr"  time="-9999999/1" value="0" leadInLength="0/1"  />
               <InterpolatingParam id="3290" interp="linr"  time="-9999999/1" value="0" leadInLength="0/1"  />
               <InterpolatingParam id="3291" interp="linr"  time="-9999999/1" value="0" leadInLength="0/1"  />
               <InterpolatingParam id="3292" interp="linr"  time="-9999999/1" value="0" leadInLength="0/1"  />
              </VectorParam>
              <InterpolatingParam id="3293" interp="linr"  time="-9999999/1" value="1" leadInLength="0/1"  name="opacity"/>
             </Parameters>
             <Attributes>
              <Attribute id="3294" value="" name="ident"/>
             </Attributes>
             <ExtraData>
              <Entry key="ZoomPanBin">
               <ZoomPanBin id="3295"  >
                <ZoomPanKeyframes>
                 <ZoomPanKeyframe id="3296" timeRangeEnd="-9999999/1" timeRangeDuration="0/1" interpolaterName="linr"  />
                </ZoomPanKeyframes>
               </ZoomPanBin>
              </Entry>
             </ExtraData>
            </VMFile>
            <MetaData>
             <entry key="WinSubProjectDisplayName" val=""/>
            </MetaData>
           </UnifiedMedia>
          </Medias>
         </GenericTrack>
        </StitchedMedia>
        <StitchedMedia id="3297" start="7076" duration="21" scalar="1098867/943520" mediaStart="3375/104654" mediaDuration="943520/52327" minMediaStart="-5833616625/104654" >
         <Transformer>
          <VectorParam id="3298"  name="translation">
           <InterpolatingParam id="3299" interp="linr"  time="-9999999/1" value="0" leadInLength="0/1"  />
           <InterpolatingParam id="3300" interp="linr"  time="-9999999/1" value="0" leadInLength="0/1"  />
           <InterpolatingParam id="3301" interp="linr"  time="-9999999/1" value="0" leadInLength="0/1"  />
          </VectorParam>
          <VectorParam id="3302"  name="rotation">
           <InterpolatingParam id="3303" interp="linr"  time="-9999999/1" value="0" leadInLength="0/1"  />
           <InterpolatingParam id="3304" interp="linr"  time="-9999999/1" value="0" leadInLength="0/1"  />
           <InterpolatingParam id="3305" interp="linr"  time="-9999999/1" value="0" leadInLength="0/1"  />
          </VectorParam>
          <VectorParam id="3306"  name="shear">
           <InterpolatingParam id="3307" interp="linr"  time="-9999999/1" value="0" leadInLength="0/1"  />
           <InterpolatingParam id="3308" interp="linr"  time="-9999999/1" value="0" leadInLength="0/1"  />
           <InterpolatingParam id="3309" interp="linr"  time="-9999999/1" value="0" leadInLength="0/1"  />
          </VectorParam>
          <VectorParam id="3310"  name="scale">
           <InterpolatingParam id="3311" interp="linr"  time="-9999999/1" value="1" leadInLength="0/1"  />
           <InterpolatingParam id="3312" interp="linr"  time="-9999999/1" value="1" leadInLength="0/1"  />
           <InterpolatingParam id="3313" interp="linr"  time="-9999999/1" value="1" leadInLength="0/1"  />
          </VectorParam>
          <VectorParam id="3314"  name="anchor">
           <InterpolatingParam id="3315" interp="linr"  time="0/1" value="0" leadInLength="0/1"  />
           <InterpolatingParam id="3316" interp="linr"  time="0/1" value="0" leadInLength="0/1"  />
           <InterpolatingParam id="3317" interp="linr"  time="0/1" value="0" leadInLength="0/1"  />
          </VectorParam>
         </Transformer>
         <Parameters>
          <VectorParam id="3318"  name="sourceCrop">
           <InterpolatingParam id="3319" interp="linr"  time="0/1" value="0" leadInLength="0/1"  />
           <InterpolatingParam id="3320" interp="linr"  time="0/1" value="0" leadInLength="0/1"  />
           <InterpolatingParam id="3321" interp="linr"  time="0/1" value="0" leadInLength="0/1"  />
           <InterpolatingParam id="3322" interp="linr"  time="0/1" value="0" leadInLength="0/1"  />
          </VectorParam>
          <VectorParam id="3323"  name="geometryCrop">
           <InterpolatingParam id="3324" interp="linr"  time="-9999999/1" value="0" leadInLength="0/1"  />
           <InterpolatingParam id="3325" interp="linr"  time="-9999999/1" value="0" leadInLength="0/1"  />
           <InterpolatingParam id="3326" interp="linr"  time="-9999999/1" value="0" leadInLength="0/1"  />
           <InterpolatingParam id="3327" interp="linr"  time="-9999999/1" value="0" leadInLength="0/1"  />
          </VectorParam>
          <InterpolatingParam id="3328" interp="linr"  time="-9999999/1" value="1" leadInLength="0/1"  name="opacity"/>
          <InterpolatingParam id="3329" interp="linr"  time="0/1" value="1" leadInLength="0/1"  name="cursorOpacity"/>
          <InterpolatingParam id="3330" interp="linr"  time="0/1" value="1" leadInLength="0/1"  name="cursorScale"/>
          <InterpolatingParam id="3331" interp="linr"  name="volume">
           <Keyframes>
           <Keyframe id="3332"  time="-5833616625/104654" value="0" leadInLength="0/1"  />
           <Keyframe id="3333"  time="143611/9514" value="0" leadInLength="0/1"  />
           <Keyframe id="3334"  time="17/1" value="0" leadInLength="0/1"  />
           </Keyframes>
          </InterpolatingParam>
          <Parameter id="3335"  name="captions"/>
         </Parameters>
         <Attributes>
          <Attribute id="3336" value="" name="ident"/>
          <Attribute id="3337" value="0" name="mixToMono"/>
         </Attributes>
         <MetaData>
          <entry key="WinSubProjectDisplayName" val=""/>
         </MetaData>
         <ExtraData>
          <Entry key="ZoomPanBin">
           <ZoomPanBin id="3338"  >
            <ZoomPanKeyframes>
             <ZoomPanKeyframe id="3339" timeRangeEnd="-9999999/1" timeRangeDuration="0/1" interpolaterName="linr"  />
            </ZoomPanKeyframes>
           </ZoomPanBin>
          </Entry>
          <Entry key="CursorEffectBin">
           <CursorEffectBin id="3340"  >
            <CursorEffectKeyframes>
            </CursorEffectKeyframes>
           </CursorEffectBin>
          </Entry>
         </ExtraData>
         <GenericTrack id="3341"  >
          <Attributes>
           <Attribute id="3342" value="" name="ident"/>
           <Attribute id="3343" value="0" name="audioMuted"/>
           <Attribute id="3344" value="0" name="videoHidden"/>
          </Attributes>
          <MetaData>
           <entry key="IsLocked" val="False"/>
           <entry key="WinTrackHeight" val="0"/>
          </MetaData>
          <Medias>
           <IMFile id="3345" start="-55742" duration="55758" scalar="1/1" mediaStart="6973/1" mediaDuration="1/1" trackNumber="0" src="21" trimStartSum="-55742/1" >
            <Transformer>
             <VectorParam id="3346"  name="translation">
              <InterpolatingParam id="3347" interp="linr"  time="-9999999/1" value="0" leadInLength="0/1"  />
              <InterpolatingParam id="3348" interp="linr"  time="-9999999/1" value="0" leadInLength="0/1"  />
              <InterpolatingParam id="3349" interp="linr"  time="-9999999/1" value="0" leadInLength="0/1"  />
             </VectorParam>
             <VectorParam id="3350"  name="rotation">
              <InterpolatingParam id="3351" interp="linr"  time="-9999999/1" value="0" leadInLength="0/1"  />
              <InterpolatingParam id="3352" interp="linr"  time="-9999999/1" value="0" leadInLength="0/1"  />
              <InterpolatingParam id="3353" interp="linr"  time="-9999999/1" value="0" leadInLength="0/1"  />
             </VectorParam>
             <VectorParam id="3354"  name="shear">
              <InterpolatingParam id="3355" interp="linr"  time="-9999999/1" value="0" leadInLength="0/1"  />
              <InterpolatingParam id="3356" interp="linr"  time="-9999999/1" value="0" leadInLength="0/1"  />
              <InterpolatingParam id="3357" interp="linr"  time="-9999999/1" value="0" leadInLength="0/1"  />
             </VectorParam>
             <VectorParam id="3358"  name="scale">
              <InterpolatingParam id="3359" interp="linr"  time="-9999999/1" value="1" leadInLength="0/1"  />
              <InterpolatingParam id="3360" interp="linr"  time="-9999999/1" value="1" leadInLength="0/1"  />
              <InterpolatingParam id="3361" interp="linr"  time="-9999999/1" value="1" leadInLength="0/1"  />
             </VectorParam>
             <VectorParam id="3362"  name="anchor">
              <InterpolatingParam id="3363" interp="linr"  time="0/1" value="0" leadInLength="0/1"  />
              <InterpolatingParam id="3364" interp="linr"  time="0/1" value="0" leadInLength="0/1"  />
              <InterpolatingParam id="3365" interp="linr"  time="0/1" value="0" leadInLength="0/1"  />
             </VectorParam>
            </Transformer>
            <Parameters>
             <VectorParam id="3366"  name="sourceCrop">
              <InterpolatingParam id="3367" interp="linr"  time="0/1" value="0" leadInLength="0/1"  />
              <InterpolatingParam id="3368" interp="linr"  time="0/1" value="0" leadInLength="0/1"  />
              <InterpolatingParam id="3369" interp="linr"  time="0/1" value="0" leadInLength="0/1"  />
              <InterpolatingParam id="3370" interp="linr"  time="0/1" value="0" leadInLength="0/1"  />
             </VectorParam>
             <VectorParam id="3371"  name="geometryCrop">
              <InterpolatingParam id="3372" interp="linr"  time="-9999999/1" value="0" leadInLength="0/1"  />
              <InterpolatingParam id="3373" interp="linr"  time="-9999999/1" value="0" leadInLength="0/1"  />
              <InterpolatingParam id="3374" interp="linr"  time="-9999999/1" value="0" leadInLength="0/1"  />
              <InterpolatingParam id="3375" interp="linr"  time="-9999999/1" value="0" leadInLength="0/1"  />
             </VectorParam>
             <InterpolatingParam id="3376" interp="linr"  time="-9999999/1" value="1" leadInLength="0/1"  name="opacity"/>
            </Parameters>
            <Attributes>
             <Attribute id="3377" value="" name="ident"/>
            </Attributes>
            <MetaData>
             <entry key="WinSubProjectDisplayName" val=""/>
            </MetaData>
            <ExtraData>
             <Entry key="ZoomPanBin">
              <ZoomPanBin id="3378"  >
               <ZoomPanKeyframes>
                <ZoomPanKeyframe id="3379" timeRangeEnd="-9999999/1" timeRangeDuration="0/1" interpolaterName="linr"  />
               </ZoomPanKeyframes>
              </ZoomPanBin>
             </Entry>
            </ExtraData>
           </IMFile>
           <UnifiedMedia id="3380"  >
            <AMFile id="3381" start="16" duration="1979" scalar="1/1" mediaStart="6973/1" mediaDuration="1979/1" trackNumber="1" src="21" channelNumber="0,1" >
             <Parameters>
              <InterpolatingParam id="3382" interp="linr"  time="0/1" value="1" leadInLength="0/1"  name="volume"/>
              <Parameter id="3383"  name="captions"/>
             </Parameters>
             <Attributes>
              <Attribute id="3384" value="" name="ident"/>
              <Attribute id="3385" value="44100" name="sampleRate"/>
              <Attribute id="3386" value="16" name="bitDepth"/>
              <Attribute id="3387" value="1" name="gain"/>
              <Attribute id="3388" value="0" name="mixToMono"/>
             </Attributes>
            </AMFile>
            <VMFile id="3389" start="16" duration="1979" scalar="1/1" mediaStart="6973/1" mediaDuration="1979/1" trackNumber="0" src="21" >
             <Transformer>
              <VectorParam id="3390"  name="translation">
               <InterpolatingParam id="3391" interp="linr"  time="-9999999/1" value="0" leadInLength="0/1"  />
               <InterpolatingParam id="3392" interp="linr"  time="-9999999/1" value="0" leadInLength="0/1"  />
               <InterpolatingParam id="3393" interp="linr"  time="-9999999/1" value="0" leadInLength="0/1"  />
              </VectorParam>
              <VectorParam id="3394"  name="rotation">
               <InterpolatingParam id="3395" interp="linr"  time="-9999999/1" value="0" leadInLength="0/1"  />
               <InterpolatingParam id="3396" interp="linr"  time="-9999999/1" value="0" leadInLength="0/1"  />
               <InterpolatingParam id="3397" interp="linr"  time="-9999999/1" value="0" leadInLength="0/1"  />
              </VectorParam>
              <VectorParam id="3398"  name="shear">
               <InterpolatingParam id="3399" interp="linr"  time="-9999999/1" value="0" leadInLength="0/1"  />
               <InterpolatingParam id="3400" interp="linr"  time="-9999999/1" value="0" leadInLength="0/1"  />
               <InterpolatingParam id="3401" interp="linr"  time="-9999999/1" value="0" leadInLength="0/1"  />
              </VectorParam>
              <VectorParam id="3402"  name="scale">
               <InterpolatingParam id="3403" interp="linr"  time="-9999999/1" value="1" leadInLength="0/1"  />
               <InterpolatingParam id="3404" interp="linr"  time="-9999999/1" value="1" leadInLength="0/1"  />
               <InterpolatingParam id="3405" interp="linr"  time="-9999999/1" value="1" leadInLength="0/1"  />
              </VectorParam>
              <VectorParam id="3406"  name="anchor">
               <InterpolatingParam id="3407" interp="linr"  time="0/1" value="0" leadInLength="0/1"  />
               <InterpolatingParam id="3408" interp="linr"  time="0/1" value="0" leadInLength="0/1"  />
               <InterpolatingParam id="3409" interp="linr"  time="0/1" value="0" leadInLength="0/1"  />
              </VectorParam>
             </Transformer>
             <Parameters>
              <VectorParam id="3410"  name="sourceCrop">
               <InterpolatingParam id="3411" interp="linr"  time="0/1" value="0" leadInLength="0/1"  />
               <InterpolatingParam id="3412" interp="linr"  time="0/1" value="0" leadInLength="0/1"  />
               <InterpolatingParam id="3413" interp="linr"  time="0/1" value="0" leadInLength="0/1"  />
               <InterpolatingParam id="3414" interp="linr"  time="0/1" value="0" leadInLength="0/1"  />
              </VectorParam>
              <VectorParam id="3415"  name="geometryCrop">
               <InterpolatingParam id="3416" interp="linr"  time="-9999999/1" value="0" leadInLength="0/1"  />
               <InterpolatingParam id="3417" interp="linr"  time="-9999999/1" value="0" leadInLength="0/1"  />
               <InterpolatingParam id="3418" interp="linr"  time="-9999999/1" value="0" leadInLength="0/1"  />
               <InterpolatingParam id="3419" interp="linr"  time="-9999999/1" value="0" leadInLength="0/1"  />
              </VectorParam>
              <InterpolatingParam id="3420" interp="linr"  time="-9999999/1" value="1" leadInLength="0/1"  name="opacity"/>
             </Parameters>
             <Attributes>
              <Attribute id="3421" value="" name="ident"/>
             </Attributes>
             <ExtraData>
              <Entry key="ZoomPanBin">
               <ZoomPanBin id="3422"  >
                <ZoomPanKeyframes>
                 <ZoomPanKeyframe id="3423" timeRangeEnd="-9999999/1" timeRangeDuration="0/1" interpolaterName="linr"  />
                </ZoomPanKeyframes>
               </ZoomPanBin>
              </Entry>
             </ExtraData>
            </VMFile>
            <MetaData>
             <entry key="WinSubProjectDisplayName" val=""/>
            </MetaData>
           </UnifiedMedia>
          </Medias>
         </GenericTrack>
        </StitchedMedia>
        <StitchedMedia id="3424" start="7097" duration="21" scalar="1098867/943520" mediaStart="3375/104654" mediaDuration="943520/52327" minMediaStart="-5833616625/104654" >
         <Transformer>
          <VectorParam id="3425"  name="translation">
           <InterpolatingParam id="3426" interp="linr"  time="-9999999/1" value="0" leadInLength="0/1"  />
           <InterpolatingParam id="3427" interp="linr"  time="-9999999/1" value="0" leadInLength="0/1"  />
           <InterpolatingParam id="3428" interp="linr"  time="-9999999/1" value="0" leadInLength="0/1"  />
          </VectorParam>
          <VectorParam id="3429"  name="rotation">
           <InterpolatingParam id="3430" interp="linr"  time="-9999999/1" value="0" leadInLength="0/1"  />
           <InterpolatingParam id="3431" interp="linr"  time="-9999999/1" value="0" leadInLength="0/1"  />
           <InterpolatingParam id="3432" interp="linr"  time="-9999999/1" value="0" leadInLength="0/1"  />
          </VectorParam>
          <VectorParam id="3433"  name="shear">
           <InterpolatingParam id="3434" interp="linr"  time="-9999999/1" value="0" leadInLength="0/1"  />
           <InterpolatingParam id="3435" interp="linr"  time="-9999999/1" value="0" leadInLength="0/1"  />
           <InterpolatingParam id="3436" interp="linr"  time="-9999999/1" value="0" leadInLength="0/1"  />
          </VectorParam>
          <VectorParam id="3437"  name="scale">
           <InterpolatingParam id="3438" interp="linr"  time="-9999999/1" value="1" leadInLength="0/1"  />
           <InterpolatingParam id="3439" interp="linr"  time="-9999999/1" value="1" leadInLength="0/1"  />
           <InterpolatingParam id="3440" interp="linr"  time="-9999999/1" value="1" leadInLength="0/1"  />
          </VectorParam>
          <VectorParam id="3441"  name="anchor">
           <InterpolatingParam id="3442" interp="linr"  time="0/1" value="0" leadInLength="0/1"  />
           <InterpolatingParam id="3443" interp="linr"  time="0/1" value="0" leadInLength="0/1"  />
           <InterpolatingParam id="3444" interp="linr"  time="0/1" value="0" leadInLength="0/1"  />
          </VectorParam>
         </Transformer>
         <Parameters>
          <VectorParam id="3445"  name="sourceCrop">
           <InterpolatingParam id="3446" interp="linr"  time="0/1" value="0" leadInLength="0/1"  />
           <InterpolatingParam id="3447" interp="linr"  time="0/1" value="0" leadInLength="0/1"  />
           <InterpolatingParam id="3448" interp="linr"  time="0/1" value="0" leadInLength="0/1"  />
           <InterpolatingParam id="3449" interp="linr"  time="0/1" value="0" leadInLength="0/1"  />
          </VectorParam>
          <VectorParam id="3450"  name="geometryCrop">
           <InterpolatingParam id="3451" interp="linr"  time="-9999999/1" value="0" leadInLength="0/1"  />
           <InterpolatingParam id="3452" interp="linr"  time="-9999999/1" value="0" leadInLength="0/1"  />
           <InterpolatingParam id="3453" interp="linr"  time="-9999999/1" value="0" leadInLength="0/1"  />
           <InterpolatingParam id="3454" interp="linr"  time="-9999999/1" value="0" leadInLength="0/1"  />
          </VectorParam>
          <InterpolatingParam id="3455" interp="linr"  time="-9999999/1" value="1" leadInLength="0/1"  name="opacity"/>
          <InterpolatingParam id="3456" interp="linr"  time="0/1" value="1" leadInLength="0/1"  name="cursorOpacity"/>
          <InterpolatingParam id="3457" interp="linr"  time="0/1" value="1" leadInLength="0/1"  name="cursorScale"/>
          <InterpolatingParam id="3458" interp="linr"  name="volume">
           <Keyframes>
           <Keyframe id="3459"  time="-5833616625/104654" value="0" leadInLength="0/1"  />
           <Keyframe id="3460"  time="143611/9514" value="0" leadInLength="0/1"  />
           <Keyframe id="3461"  time="17/1" value="0" leadInLength="0/1"  />
           </Keyframes>
          </InterpolatingParam>
          <Parameter id="3462"  name="captions"/>
         </Parameters>
         <Attributes>
          <Attribute id="3463" value="" name="ident"/>
          <Attribute id="3464" value="0" name="mixToMono"/>
         </Attributes>
         <MetaData>
          <entry key="WinSubProjectDisplayName" val=""/>
         </MetaData>
         <ExtraData>
          <Entry key="ZoomPanBin">
           <ZoomPanBin id="3465"  >
            <ZoomPanKeyframes>
             <ZoomPanKeyframe id="3466" timeRangeEnd="-9999999/1" timeRangeDuration="0/1" interpolaterName="linr"  />
            </ZoomPanKeyframes>
           </ZoomPanBin>
          </Entry>
          <Entry key="CursorEffectBin">
           <CursorEffectBin id="3467"  >
            <CursorEffectKeyframes>
            </CursorEffectKeyframes>
           </CursorEffectBin>
          </Entry>
         </ExtraData>
         <GenericTrack id="3468"  >
          <Attributes>
           <Attribute id="3469" value="" name="ident"/>
           <Attribute id="3470" value="0" name="audioMuted"/>
           <Attribute id="3471" value="0" name="videoHidden"/>
          </Attributes>
          <MetaData>
           <entry key="IsLocked" val="False"/>
           <entry key="WinTrackHeight" val="0"/>
          </MetaData>
          <Medias>
           <IMFile id="3472" start="-55742" duration="55758" scalar="1/1" mediaStart="6973/1" mediaDuration="1/1" trackNumber="0" src="21" trimStartSum="-55742/1" >
            <Transformer>
             <VectorParam id="3473"  name="translation">
              <InterpolatingParam id="3474" interp="linr"  time="-9999999/1" value="0" leadInLength="0/1"  />
              <InterpolatingParam id="3475" interp="linr"  time="-9999999/1" value="0" leadInLength="0/1"  />
              <InterpolatingParam id="3476" interp="linr"  time="-9999999/1" value="0" leadInLength="0/1"  />
             </VectorParam>
             <VectorParam id="3477"  name="rotation">
              <InterpolatingParam id="3478" interp="linr"  time="-9999999/1" value="0" leadInLength="0/1"  />
              <InterpolatingParam id="3479" interp="linr"  time="-9999999/1" value="0" leadInLength="0/1"  />
              <InterpolatingParam id="3480" interp="linr"  time="-9999999/1" value="0" leadInLength="0/1"  />
             </VectorParam>
             <VectorParam id="3481"  name="shear">
              <InterpolatingParam id="3482" interp="linr"  time="-9999999/1" value="0" leadInLength="0/1"  />
              <InterpolatingParam id="3483" interp="linr"  time="-9999999/1" value="0" leadInLength="0/1"  />
              <InterpolatingParam id="3484" interp="linr"  time="-9999999/1" value="0" leadInLength="0/1"  />
             </VectorParam>
             <VectorParam id="3485"  name="scale">
              <InterpolatingParam id="3486" interp="linr"  time="-9999999/1" value="1" leadInLength="0/1"  />
              <InterpolatingParam id="3487" interp="linr"  time="-9999999/1" value="1" leadInLength="0/1"  />
              <InterpolatingParam id="3488" interp="linr"  time="-9999999/1" value="1" leadInLength="0/1"  />
             </VectorParam>
             <VectorParam id="3489"  name="anchor">
              <InterpolatingParam id="3490" interp="linr"  time="0/1" value="0" leadInLength="0/1"  />
              <InterpolatingParam id="3491" interp="linr"  time="0/1" value="0" leadInLength="0/1"  />
              <InterpolatingParam id="3492" interp="linr"  time="0/1" value="0" leadInLength="0/1"  />
             </VectorParam>
            </Transformer>
            <Parameters>
             <VectorParam id="3493"  name="sourceCrop">
              <InterpolatingParam id="3494" interp="linr"  time="0/1" value="0" leadInLength="0/1"  />
              <InterpolatingParam id="3495" interp="linr"  time="0/1" value="0" leadInLength="0/1"  />
              <InterpolatingParam id="3496" interp="linr"  time="0/1" value="0" leadInLength="0/1"  />
              <InterpolatingParam id="3497" interp="linr"  time="0/1" value="0" leadInLength="0/1"  />
             </VectorParam>
             <VectorParam id="3498"  name="geometryCrop">
              <InterpolatingParam id="3499" interp="linr"  time="-9999999/1" value="0" leadInLength="0/1"  />
              <InterpolatingParam id="3500" interp="linr"  time="-9999999/1" value="0" leadInLength="0/1"  />
              <InterpolatingParam id="3501" interp="linr"  time="-9999999/1" value="0" leadInLength="0/1"  />
              <InterpolatingParam id="3502" interp="linr"  time="-9999999/1" value="0" leadInLength="0/1"  />
             </VectorParam>
             <InterpolatingParam id="3503" interp="linr"  time="-9999999/1" value="1" leadInLength="0/1"  name="opacity"/>
            </Parameters>
            <Attributes>
             <Attribute id="3504" value="" name="ident"/>
            </Attributes>
            <MetaData>
             <entry key="WinSubProjectDisplayName" val=""/>
            </MetaData>
            <ExtraData>
             <Entry key="ZoomPanBin">
              <ZoomPanBin id="3505"  >
               <ZoomPanKeyframes>
                <ZoomPanKeyframe id="3506" timeRangeEnd="-9999999/1" timeRangeDuration="0/1" interpolaterName="linr"  />
               </ZoomPanKeyframes>
              </ZoomPanBin>
             </Entry>
            </ExtraData>
           </IMFile>
           <UnifiedMedia id="3507"  >
            <AMFile id="3508" start="16" duration="1979" scalar="1/1" mediaStart="6973/1" mediaDuration="1979/1" trackNumber="1" src="21" channelNumber="0,1" >
             <Parameters>
              <InterpolatingParam id="3509" interp="linr"  time="0/1" value="1" leadInLength="0/1"  name="volume"/>
              <Parameter id="3510"  name="captions"/>
             </Parameters>
             <Attributes>
              <Attribute id="3511" value="" name="ident"/>
              <Attribute id="3512" value="44100" name="sampleRate"/>
              <Attribute id="3513" value="16" name="bitDepth"/>
              <Attribute id="3514" value="1" name="gain"/>
              <Attribute id="3515" value="0" name="mixToMono"/>
             </Attributes>
            </AMFile>
            <VMFile id="3516" start="16" duration="1979" scalar="1/1" mediaStart="6973/1" mediaDuration="1979/1" trackNumber="0" src="21" >
             <Transformer>
              <VectorParam id="3517"  name="translation">
               <InterpolatingParam id="3518" interp="linr"  time="-9999999/1" value="0" leadInLength="0/1"  />
               <InterpolatingParam id="3519" interp="linr"  time="-9999999/1" value="0" leadInLength="0/1"  />
               <InterpolatingParam id="3520" interp="linr"  time="-9999999/1" value="0" leadInLength="0/1"  />
              </VectorParam>
              <VectorParam id="3521"  name="rotation">
               <InterpolatingParam id="3522" interp="linr"  time="-9999999/1" value="0" leadInLength="0/1"  />
               <InterpolatingParam id="3523" interp="linr"  time="-9999999/1" value="0" leadInLength="0/1"  />
               <InterpolatingParam id="3524" interp="linr"  time="-9999999/1" value="0" leadInLength="0/1"  />
              </VectorParam>
              <VectorParam id="3525"  name="shear">
               <InterpolatingParam id="3526" interp="linr"  time="-9999999/1" value="0" leadInLength="0/1"  />
               <InterpolatingParam id="3527" interp="linr"  time="-9999999/1" value="0" leadInLength="0/1"  />
               <InterpolatingParam id="3528" interp="linr"  time="-9999999/1" value="0" leadInLength="0/1"  />
              </VectorParam>
              <VectorParam id="3529"  name="scale">
               <InterpolatingParam id="3530" interp="linr"  time="-9999999/1" value="1" leadInLength="0/1"  />
               <InterpolatingParam id="3531" interp="linr"  time="-9999999/1" value="1" leadInLength="0/1"  />
               <InterpolatingParam id="3532" interp="linr"  time="-9999999/1" value="1" leadInLength="0/1"  />
              </VectorParam>
              <VectorParam id="3533"  name="anchor">
               <InterpolatingParam id="3534" interp="linr"  time="0/1" value="0" leadInLength="0/1"  />
               <InterpolatingParam id="3535" interp="linr"  time="0/1" value="0" leadInLength="0/1"  />
               <InterpolatingParam id="3536" interp="linr"  time="0/1" value="0" leadInLength="0/1"  />
              </VectorParam>
             </Transformer>
             <Parameters>
              <VectorParam id="3537"  name="sourceCrop">
               <InterpolatingParam id="3538" interp="linr"  time="0/1" value="0" leadInLength="0/1"  />
               <InterpolatingParam id="3539" interp="linr"  time="0/1" value="0" leadInLength="0/1"  />
               <InterpolatingParam id="3540" interp="linr"  time="0/1" value="0" leadInLength="0/1"  />
               <InterpolatingParam id="3541" interp="linr"  time="0/1" value="0" leadInLength="0/1"  />
              </VectorParam>
              <VectorParam id="3542"  name="geometryCrop">
               <InterpolatingParam id="3543" interp="linr"  time="-9999999/1" value="0" leadInLength="0/1"  />
               <InterpolatingParam id="3544" interp="linr"  time="-9999999/1" value="0" leadInLength="0/1"  />
               <InterpolatingParam id="3545" interp="linr"  time="-9999999/1" value="0" leadInLength="0/1"  />
               <InterpolatingParam id="3546" interp="linr"  time="-9999999/1" value="0" leadInLength="0/1"  />
              </VectorParam>
              <InterpolatingParam id="3547" interp="linr"  time="-9999999/1" value="1" leadInLength="0/1"  name="opacity"/>
             </Parameters>
             <Attributes>
              <Attribute id="3548" value="" name="ident"/>
             </Attributes>
             <ExtraData>
              <Entry key="ZoomPanBin">
               <ZoomPanBin id="3549"  >
                <ZoomPanKeyframes>
                 <ZoomPanKeyframe id="3550" timeRangeEnd="-9999999/1" timeRangeDuration="0/1" interpolaterName="linr"  />
                </ZoomPanKeyframes>
               </ZoomPanBin>
              </Entry>
             </ExtraData>
            </VMFile>
            <MetaData>
             <entry key="WinSubProjectDisplayName" val=""/>
            </MetaData>
           </UnifiedMedia>
          </Medias>
         </GenericTrack>
        </StitchedMedia>
        <StitchedMedia id="3551" start="7118" duration="21" scalar="1098867/943520" mediaStart="3375/104654" mediaDuration="943520/52327" minMediaStart="-5833616625/104654" >
         <Transformer>
          <VectorParam id="3552"  name="translation">
           <InterpolatingParam id="3553" interp="linr"  time="-9999999/1" value="0" leadInLength="0/1"  />
           <InterpolatingParam id="3554" interp="linr"  time="-9999999/1" value="0" leadInLength="0/1"  />
           <InterpolatingParam id="3555" interp="linr"  time="-9999999/1" value="0" leadInLength="0/1"  />
          </VectorParam>
          <VectorParam id="3556"  name="rotation">
           <InterpolatingParam id="3557" interp="linr"  time="-9999999/1" value="0" leadInLength="0/1"  />
           <InterpolatingParam id="3558" interp="linr"  time="-9999999/1" value="0" leadInLength="0/1"  />
           <InterpolatingParam id="3559" interp="linr"  time="-9999999/1" value="0" leadInLength="0/1"  />
          </VectorParam>
          <VectorParam id="3560"  name="shear">
           <InterpolatingParam id="3561" interp="linr"  time="-9999999/1" value="0" leadInLength="0/1"  />
           <InterpolatingParam id="3562" interp="linr"  time="-9999999/1" value="0" leadInLength="0/1"  />
           <InterpolatingParam id="3563" interp="linr"  time="-9999999/1" value="0" leadInLength="0/1"  />
          </VectorParam>
          <VectorParam id="3564"  name="scale">
           <InterpolatingParam id="3565" interp="linr"  time="-9999999/1" value="1" leadInLength="0/1"  />
           <InterpolatingParam id="3566" interp="linr"  time="-9999999/1" value="1" leadInLength="0/1"  />
           <InterpolatingParam id="3567" interp="linr"  time="-9999999/1" value="1" leadInLength="0/1"  />
          </VectorParam>
          <VectorParam id="3568"  name="anchor">
           <InterpolatingParam id="3569" interp="linr"  time="0/1" value="0" leadInLength="0/1"  />
           <InterpolatingParam id="3570" interp="linr"  time="0/1" value="0" leadInLength="0/1"  />
           <InterpolatingParam id="3571" interp="linr"  time="0/1" value="0" leadInLength="0/1"  />
          </VectorParam>
         </Transformer>
         <Parameters>
          <VectorParam id="3572"  name="sourceCrop">
           <InterpolatingParam id="3573" interp="linr"  time="0/1" value="0" leadInLength="0/1"  />
           <InterpolatingParam id="3574" interp="linr"  time="0/1" value="0" leadInLength="0/1"  />
           <InterpolatingParam id="3575" interp="linr"  time="0/1" value="0" leadInLength="0/1"  />
           <InterpolatingParam id="3576" interp="linr"  time="0/1" value="0" leadInLength="0/1"  />
          </VectorParam>
          <VectorParam id="3577"  name="geometryCrop">
           <InterpolatingParam id="3578" interp="linr"  time="-9999999/1" value="0" leadInLength="0/1"  />
           <InterpolatingParam id="3579" interp="linr"  time="-9999999/1" value="0" leadInLength="0/1"  />
           <InterpolatingParam id="3580" interp="linr"  time="-9999999/1" value="0" leadInLength="0/1"  />
           <InterpolatingParam id="3581" interp="linr"  time="-9999999/1" value="0" leadInLength="0/1"  />
          </VectorParam>
          <InterpolatingParam id="3582" interp="linr"  time="-9999999/1" value="1" leadInLength="0/1"  name="opacity"/>
          <InterpolatingParam id="3583" interp="linr"  time="0/1" value="1" leadInLength="0/1"  name="cursorOpacity"/>
          <InterpolatingParam id="3584" interp="linr"  time="0/1" value="1" leadInLength="0/1"  name="cursorScale"/>
          <InterpolatingParam id="3585" interp="linr"  name="volume">
           <Keyframes>
           <Keyframe id="3586"  time="-5833616625/104654" value="0" leadInLength="0/1"  />
           <Keyframe id="3587"  time="143611/9514" value="0" leadInLength="0/1"  />
           <Keyframe id="3588"  time="17/1" value="0" leadInLength="0/1"  />
           </Keyframes>
          </InterpolatingParam>
          <Parameter id="3589"  name="captions"/>
         </Parameters>
         <Attributes>
          <Attribute id="3590" value="" name="ident"/>
          <Attribute id="3591" value="0" name="mixToMono"/>
         </Attributes>
         <MetaData>
          <entry key="WinSubProjectDisplayName" val=""/>
         </MetaData>
         <ExtraData>
          <Entry key="ZoomPanBin">
           <ZoomPanBin id="3592"  >
            <ZoomPanKeyframes>
             <ZoomPanKeyframe id="3593" timeRangeEnd="-9999999/1" timeRangeDuration="0/1" interpolaterName="linr"  />
            </ZoomPanKeyframes>
           </ZoomPanBin>
          </Entry>
          <Entry key="CursorEffectBin">
           <CursorEffectBin id="3594"  >
            <CursorEffectKeyframes>
            </CursorEffectKeyframes>
           </CursorEffectBin>
          </Entry>
         </ExtraData>
         <GenericTrack id="3595"  >
          <Attributes>
           <Attribute id="3596" value="" name="ident"/>
           <Attribute id="3597" value="0" name="audioMuted"/>
           <Attribute id="3598" value="0" name="videoHidden"/>
          </Attributes>
          <MetaData>
           <entry key="IsLocked" val="False"/>
           <entry key="WinTrackHeight" val="0"/>
          </MetaData>
          <Medias>
           <IMFile id="3599" start="-55742" duration="55758" scalar="1/1" mediaStart="6973/1" mediaDuration="1/1" trackNumber="0" src="21" trimStartSum="-55742/1" >
            <Transformer>
             <VectorParam id="3600"  name="translation">
              <InterpolatingParam id="3601" interp="linr"  time="-9999999/1" value="0" leadInLength="0/1"  />
              <InterpolatingParam id="3602" interp="linr"  time="-9999999/1" value="0" leadInLength="0/1"  />
              <InterpolatingParam id="3603" interp="linr"  time="-9999999/1" value="0" leadInLength="0/1"  />
             </VectorParam>
             <VectorParam id="3604"  name="rotation">
              <InterpolatingParam id="3605" interp="linr"  time="-9999999/1" value="0" leadInLength="0/1"  />
              <InterpolatingParam id="3606" interp="linr"  time="-9999999/1" value="0" leadInLength="0/1"  />
              <InterpolatingParam id="3607" interp="linr"  time="-9999999/1" value="0" leadInLength="0/1"  />
             </VectorParam>
             <VectorParam id="3608"  name="shear">
              <InterpolatingParam id="3609" interp="linr"  time="-9999999/1" value="0" leadInLength="0/1"  />
              <InterpolatingParam id="3610" interp="linr"  time="-9999999/1" value="0" leadInLength="0/1"  />
              <InterpolatingParam id="3611" interp="linr"  time="-9999999/1" value="0" leadInLength="0/1"  />
             </VectorParam>
             <VectorParam id="3612"  name="scale">
              <InterpolatingParam id="3613" interp="linr"  time="-9999999/1" value="1" leadInLength="0/1"  />
              <InterpolatingParam id="3614" interp="linr"  time="-9999999/1" value="1" leadInLength="0/1"  />
              <InterpolatingParam id="3615" interp="linr"  time="-9999999/1" value="1" leadInLength="0/1"  />
             </VectorParam>
             <VectorParam id="3616"  name="anchor">
              <InterpolatingParam id="3617" interp="linr"  time="0/1" value="0" leadInLength="0/1"  />
              <InterpolatingParam id="3618" interp="linr"  time="0/1" value="0" leadInLength="0/1"  />
              <InterpolatingParam id="3619" interp="linr"  time="0/1" value="0" leadInLength="0/1"  />
             </VectorParam>
            </Transformer>
            <Parameters>
             <VectorParam id="3620"  name="sourceCrop">
              <InterpolatingParam id="3621" interp="linr"  time="0/1" value="0" leadInLength="0/1"  />
              <InterpolatingParam id="3622" interp="linr"  time="0/1" value="0" leadInLength="0/1"  />
              <InterpolatingParam id="3623" interp="linr"  time="0/1" value="0" leadInLength="0/1"  />
              <InterpolatingParam id="3624" interp="linr"  time="0/1" value="0" leadInLength="0/1"  />
             </VectorParam>
             <VectorParam id="3625"  name="geometryCrop">
              <InterpolatingParam id="3626" interp="linr"  time="-9999999/1" value="0" leadInLength="0/1"  />
              <InterpolatingParam id="3627" interp="linr"  time="-9999999/1" value="0" leadInLength="0/1"  />
              <InterpolatingParam id="3628" interp="linr"  time="-9999999/1" value="0" leadInLength="0/1"  />
              <InterpolatingParam id="3629" interp="linr"  time="-9999999/1" value="0" leadInLength="0/1"  />
             </VectorParam>
             <InterpolatingParam id="3630" interp="linr"  time="-9999999/1" value="1" leadInLength="0/1"  name="opacity"/>
            </Parameters>
            <Attributes>
             <Attribute id="3631" value="" name="ident"/>
            </Attributes>
            <MetaData>
             <entry key="WinSubProjectDisplayName" val=""/>
            </MetaData>
            <ExtraData>
             <Entry key="ZoomPanBin">
              <ZoomPanBin id="3632"  >
               <ZoomPanKeyframes>
                <ZoomPanKeyframe id="3633" timeRangeEnd="-9999999/1" timeRangeDuration="0/1" interpolaterName="linr"  />
               </ZoomPanKeyframes>
              </ZoomPanBin>
             </Entry>
            </ExtraData>
           </IMFile>
           <UnifiedMedia id="3634"  >
            <AMFile id="3635" start="16" duration="1979" scalar="1/1" mediaStart="6973/1" mediaDuration="1979/1" trackNumber="1" src="21" channelNumber="0,1" >
             <Parameters>
              <InterpolatingParam id="3636" interp="linr"  time="0/1" value="1" leadInLength="0/1"  name="volume"/>
              <Parameter id="3637"  name="captions"/>
             </Parameters>
             <Attributes>
              <Attribute id="3638" value="" name="ident"/>
              <Attribute id="3639" value="44100" name="sampleRate"/>
              <Attribute id="3640" value="16" name="bitDepth"/>
              <Attribute id="3641" value="1" name="gain"/>
              <Attribute id="3642" value="0" name="mixToMono"/>
             </Attributes>
            </AMFile>
            <VMFile id="3643" start="16" duration="1979" scalar="1/1" mediaStart="6973/1" mediaDuration="1979/1" trackNumber="0" src="21" >
             <Transformer>
              <VectorParam id="3644"  name="translation">
               <InterpolatingParam id="3645" interp="linr"  time="-9999999/1" value="0" leadInLength="0/1"  />
               <InterpolatingParam id="3646" interp="linr"  time="-9999999/1" value="0" leadInLength="0/1"  />
               <InterpolatingParam id="3647" interp="linr"  time="-9999999/1" value="0" leadInLength="0/1"  />
              </VectorParam>
              <VectorParam id="3648"  name="rotation">
               <InterpolatingParam id="3649" interp="linr"  time="-9999999/1" value="0" leadInLength="0/1"  />
               <InterpolatingParam id="3650" interp="linr"  time="-9999999/1" value="0" leadInLength="0/1"  />
               <InterpolatingParam id="3651" interp="linr"  time="-9999999/1" value="0" leadInLength="0/1"  />
              </VectorParam>
              <VectorParam id="3652"  name="shear">
               <InterpolatingParam id="3653" interp="linr"  time="-9999999/1" value="0" leadInLength="0/1"  />
               <InterpolatingParam id="3654" interp="linr"  time="-9999999/1" value="0" leadInLength="0/1"  />
               <InterpolatingParam id="3655" interp="linr"  time="-9999999/1" value="0" leadInLength="0/1"  />
              </VectorParam>
              <VectorParam id="3656"  name="scale">
               <InterpolatingParam id="3657" interp="linr"  time="-9999999/1" value="1" leadInLength="0/1"  />
               <InterpolatingParam id="3658" interp="linr"  time="-9999999/1" value="1" leadInLength="0/1"  />
               <InterpolatingParam id="3659" interp="linr"  time="-9999999/1" value="1" leadInLength="0/1"  />
              </VectorParam>
              <VectorParam id="3660"  name="anchor">
               <InterpolatingParam id="3661" interp="linr"  time="0/1" value="0" leadInLength="0/1"  />
               <InterpolatingParam id="3662" interp="linr"  time="0/1" value="0" leadInLength="0/1"  />
               <InterpolatingParam id="3663" interp="linr"  time="0/1" value="0" leadInLength="0/1"  />
              </VectorParam>
             </Transformer>
             <Parameters>
              <VectorParam id="3664"  name="sourceCrop">
               <InterpolatingParam id="3665" interp="linr"  time="0/1" value="0" leadInLength="0/1"  />
               <InterpolatingParam id="3666" interp="linr"  time="0/1" value="0" leadInLength="0/1"  />
               <InterpolatingParam id="3667" interp="linr"  time="0/1" value="0" leadInLength="0/1"  />
               <InterpolatingParam id="3668" interp="linr"  time="0/1" value="0" leadInLength="0/1"  />
              </VectorParam>
              <VectorParam id="3669"  name="geometryCrop">
               <InterpolatingParam id="3670" interp="linr"  time="-9999999/1" value="0" leadInLength="0/1"  />
               <InterpolatingParam id="3671" interp="linr"  time="-9999999/1" value="0" leadInLength="0/1"  />
               <InterpolatingParam id="3672" interp="linr"  time="-9999999/1" value="0" leadInLength="0/1"  />
               <InterpolatingParam id="3673" interp="linr"  time="-9999999/1" value="0" leadInLength="0/1"  />
              </VectorParam>
              <InterpolatingParam id="3674" interp="linr"  time="-9999999/1" value="1" leadInLength="0/1"  name="opacity"/>
             </Parameters>
             <Attributes>
              <Attribute id="3675" value="" name="ident"/>
             </Attributes>
             <ExtraData>
              <Entry key="ZoomPanBin">
               <ZoomPanBin id="3676"  >
                <ZoomPanKeyframes>
                 <ZoomPanKeyframe id="3677" timeRangeEnd="-9999999/1" timeRangeDuration="0/1" interpolaterName="linr"  />
                </ZoomPanKeyframes>
               </ZoomPanBin>
              </Entry>
             </ExtraData>
            </VMFile>
            <MetaData>
             <entry key="WinSubProjectDisplayName" val=""/>
            </MetaData>
           </UnifiedMedia>
          </Medias>
         </GenericTrack>
        </StitchedMedia>
        <StitchedMedia id="3678" start="7139" duration="21" scalar="1098867/943520" mediaStart="3375/104654" mediaDuration="943520/52327" minMediaStart="-5833616625/104654" >
         <Transformer>
          <VectorParam id="3679"  name="translation">
           <InterpolatingParam id="3680" interp="linr"  time="-9999999/1" value="0" leadInLength="0/1"  />
           <InterpolatingParam id="3681" interp="linr"  time="-9999999/1" value="0" leadInLength="0/1"  />
           <InterpolatingParam id="3682" interp="linr"  time="-9999999/1" value="0" leadInLength="0/1"  />
          </VectorParam>
          <VectorParam id="3683"  name="rotation">
           <InterpolatingParam id="3684" interp="linr"  time="-9999999/1" value="0" leadInLength="0/1"  />
           <InterpolatingParam id="3685" interp="linr"  time="-9999999/1" value="0" leadInLength="0/1"  />
           <InterpolatingParam id="3686" interp="linr"  time="-9999999/1" value="0" leadInLength="0/1"  />
          </VectorParam>
          <VectorParam id="3687"  name="shear">
           <InterpolatingParam id="3688" interp="linr"  time="-9999999/1" value="0" leadInLength="0/1"  />
           <InterpolatingParam id="3689" interp="linr"  time="-9999999/1" value="0" leadInLength="0/1"  />
           <InterpolatingParam id="3690" interp="linr"  time="-9999999/1" value="0" leadInLength="0/1"  />
          </VectorParam>
          <VectorParam id="3691"  name="scale">
           <InterpolatingParam id="3692" interp="linr"  time="-9999999/1" value="1" leadInLength="0/1"  />
           <InterpolatingParam id="3693" interp="linr"  time="-9999999/1" value="1" leadInLength="0/1"  />
           <InterpolatingParam id="3694" interp="linr"  time="-9999999/1" value="1" leadInLength="0/1"  />
          </VectorParam>
          <VectorParam id="3695"  name="anchor">
           <InterpolatingParam id="3696" interp="linr"  time="0/1" value="0" leadInLength="0/1"  />
           <InterpolatingParam id="3697" interp="linr"  time="0/1" value="0" leadInLength="0/1"  />
           <InterpolatingParam id="3698" interp="linr"  time="0/1" value="0" leadInLength="0/1"  />
          </VectorParam>
         </Transformer>
         <Parameters>
          <VectorParam id="3699"  name="sourceCrop">
           <InterpolatingParam id="3700" interp="linr"  time="0/1" value="0" leadInLength="0/1"  />
           <InterpolatingParam id="3701" interp="linr"  time="0/1" value="0" leadInLength="0/1"  />
           <InterpolatingParam id="3702" interp="linr"  time="0/1" value="0" leadInLength="0/1"  />
           <InterpolatingParam id="3703" interp="linr"  time="0/1" value="0" leadInLength="0/1"  />
          </VectorParam>
          <VectorParam id="3704"  name="geometryCrop">
           <InterpolatingParam id="3705" interp="linr"  time="-9999999/1" value="0" leadInLength="0/1"  />
           <InterpolatingParam id="3706" interp="linr"  time="-9999999/1" value="0" leadInLength="0/1"  />
           <InterpolatingParam id="3707" interp="linr"  time="-9999999/1" value="0" leadInLength="0/1"  />
           <InterpolatingParam id="3708" interp="linr"  time="-9999999/1" value="0" leadInLength="0/1"  />
          </VectorParam>
          <InterpolatingParam id="3709" interp="linr"  time="-9999999/1" value="1" leadInLength="0/1"  name="opacity"/>
          <InterpolatingParam id="3710" interp="linr"  time="0/1" value="1" leadInLength="0/1"  name="cursorOpacity"/>
          <InterpolatingParam id="3711" interp="linr"  time="0/1" value="1" leadInLength="0/1"  name="cursorScale"/>
          <InterpolatingParam id="3712" interp="linr"  name="volume">
           <Keyframes>
           <Keyframe id="3713"  time="-5833616625/104654" value="0" leadInLength="0/1"  />
           <Keyframe id="3714"  time="143611/9514" value="0" leadInLength="0/1"  />
           <Keyframe id="3715"  time="17/1" value="0" leadInLength="0/1"  />
           </Keyframes>
          </InterpolatingParam>
          <Parameter id="3716"  name="captions"/>
         </Parameters>
         <Attributes>
          <Attribute id="3717" value="" name="ident"/>
          <Attribute id="3718" value="0" name="mixToMono"/>
         </Attributes>
         <MetaData>
          <entry key="WinSubProjectDisplayName" val=""/>
         </MetaData>
         <ExtraData>
          <Entry key="ZoomPanBin">
           <ZoomPanBin id="3719"  >
            <ZoomPanKeyframes>
             <ZoomPanKeyframe id="3720" timeRangeEnd="-9999999/1" timeRangeDuration="0/1" interpolaterName="linr"  />
            </ZoomPanKeyframes>
           </ZoomPanBin>
          </Entry>
          <Entry key="CursorEffectBin">
           <CursorEffectBin id="3721"  >
            <CursorEffectKeyframes>
            </CursorEffectKeyframes>
           </CursorEffectBin>
          </Entry>
         </ExtraData>
         <GenericTrack id="3722"  >
          <Attributes>
           <Attribute id="3723" value="" name="ident"/>
           <Attribute id="3724" value="0" name="audioMuted"/>
           <Attribute id="3725" value="0" name="videoHidden"/>
          </Attributes>
          <MetaData>
           <entry key="IsLocked" val="False"/>
           <entry key="WinTrackHeight" val="0"/>
          </MetaData>
          <Medias>
           <IMFile id="3726" start="-55742" duration="55758" scalar="1/1" mediaStart="6973/1" mediaDuration="1/1" trackNumber="0" src="21" trimStartSum="-55742/1" >
            <Transformer>
             <VectorParam id="3727"  name="translation">
              <InterpolatingParam id="3728" interp="linr"  time="-9999999/1" value="0" leadInLength="0/1"  />
              <InterpolatingParam id="3729" interp="linr"  time="-9999999/1" value="0" leadInLength="0/1"  />
              <InterpolatingParam id="3730" interp="linr"  time="-9999999/1" value="0" leadInLength="0/1"  />
             </VectorParam>
             <VectorParam id="3731"  name="rotation">
              <InterpolatingParam id="3732" interp="linr"  time="-9999999/1" value="0" leadInLength="0/1"  />
              <InterpolatingParam id="3733" interp="linr"  time="-9999999/1" value="0" leadInLength="0/1"  />
              <InterpolatingParam id="3734" interp="linr"  time="-9999999/1" value="0" leadInLength="0/1"  />
             </VectorParam>
             <VectorParam id="3735"  name="shear">
              <InterpolatingParam id="3736" interp="linr"  time="-9999999/1" value="0" leadInLength="0/1"  />
              <InterpolatingParam id="3737" interp="linr"  time="-9999999/1" value="0" leadInLength="0/1"  />
              <InterpolatingParam id="3738" interp="linr"  time="-9999999/1" value="0" leadInLength="0/1"  />
             </VectorParam>
             <VectorParam id="3739"  name="scale">
              <InterpolatingParam id="3740" interp="linr"  time="-9999999/1" value="1" leadInLength="0/1"  />
              <InterpolatingParam id="3741" interp="linr"  time="-9999999/1" value="1" leadInLength="0/1"  />
              <InterpolatingParam id="3742" interp="linr"  time="-9999999/1" value="1" leadInLength="0/1"  />
             </VectorParam>
             <VectorParam id="3743"  name="anchor">
              <InterpolatingParam id="3744" interp="linr"  time="0/1" value="0" leadInLength="0/1"  />
              <InterpolatingParam id="3745" interp="linr"  time="0/1" value="0" leadInLength="0/1"  />
              <InterpolatingParam id="3746" interp="linr"  time="0/1" value="0" leadInLength="0/1"  />
             </VectorParam>
            </Transformer>
            <Parameters>
             <VectorParam id="3747"  name="sourceCrop">
              <InterpolatingParam id="3748" interp="linr"  time="0/1" value="0" leadInLength="0/1"  />
              <InterpolatingParam id="3749" interp="linr"  time="0/1" value="0" leadInLength="0/1"  />
              <InterpolatingParam id="3750" interp="linr"  time="0/1" value="0" leadInLength="0/1"  />
              <InterpolatingParam id="3751" interp="linr"  time="0/1" value="0" leadInLength="0/1"  />
             </VectorParam>
             <VectorParam id="3752"  name="geometryCrop">
              <InterpolatingParam id="3753" interp="linr"  time="-9999999/1" value="0" leadInLength="0/1"  />
              <InterpolatingParam id="3754" interp="linr"  time="-9999999/1" value="0" leadInLength="0/1"  />
              <InterpolatingParam id="3755" interp="linr"  time="-9999999/1" value="0" leadInLength="0/1"  />
              <InterpolatingParam id="3756" interp="linr"  time="-9999999/1" value="0" leadInLength="0/1"  />
             </VectorParam>
             <InterpolatingParam id="3757" interp="linr"  time="-9999999/1" value="1" leadInLength="0/1"  name="opacity"/>
            </Parameters>
            <Attributes>
             <Attribute id="3758" value="" name="ident"/>
            </Attributes>
            <MetaData>
             <entry key="WinSubProjectDisplayName" val=""/>
            </MetaData>
            <ExtraData>
             <Entry key="ZoomPanBin">
              <ZoomPanBin id="3759"  >
               <ZoomPanKeyframes>
                <ZoomPanKeyframe id="3760" timeRangeEnd="-9999999/1" timeRangeDuration="0/1" interpolaterName="linr"  />
               </ZoomPanKeyframes>
              </ZoomPanBin>
             </Entry>
            </ExtraData>
           </IMFile>
           <UnifiedMedia id="3761"  >
            <AMFile id="3762" start="16" duration="1979" scalar="1/1" mediaStart="6973/1" mediaDuration="1979/1" trackNumber="1" src="21" channelNumber="0,1" >
             <Parameters>
              <InterpolatingParam id="3763" interp="linr"  time="0/1" value="1" leadInLength="0/1"  name="volume"/>
              <Parameter id="3764"  name="captions"/>
             </Parameters>
             <Attributes>
              <Attribute id="3765" value="" name="ident"/>
              <Attribute id="3766" value="44100" name="sampleRate"/>
              <Attribute id="3767" value="16" name="bitDepth"/>
              <Attribute id="3768" value="1" name="gain"/>
              <Attribute id="3769" value="0" name="mixToMono"/>
             </Attributes>
            </AMFile>
            <VMFile id="3770" start="16" duration="1979" scalar="1/1" mediaStart="6973/1" mediaDuration="1979/1" trackNumber="0" src="21" >
             <Transformer>
              <VectorParam id="3771"  name="translation">
               <InterpolatingParam id="3772" interp="linr"  time="-9999999/1" value="0" leadInLength="0/1"  />
               <InterpolatingParam id="3773" interp="linr"  time="-9999999/1" value="0" leadInLength="0/1"  />
               <InterpolatingParam id="3774" interp="linr"  time="-9999999/1" value="0" leadInLength="0/1"  />
              </VectorParam>
              <VectorParam id="3775"  name="rotation">
               <InterpolatingParam id="3776" interp="linr"  time="-9999999/1" value="0" leadInLength="0/1"  />
               <InterpolatingParam id="3777" interp="linr"  time="-9999999/1" value="0" leadInLength="0/1"  />
               <InterpolatingParam id="3778" interp="linr"  time="-9999999/1" value="0" leadInLength="0/1"  />
              </VectorParam>
              <VectorParam id="3779"  name="shear">
               <InterpolatingParam id="3780" interp="linr"  time="-9999999/1" value="0" leadInLength="0/1"  />
               <InterpolatingParam id="3781" interp="linr"  time="-9999999/1" value="0" leadInLength="0/1"  />
               <InterpolatingParam id="3782" interp="linr"  time="-9999999/1" value="0" leadInLength="0/1"  />
              </VectorParam>
              <VectorParam id="3783"  name="scale">
               <InterpolatingParam id="3784" interp="linr"  time="-9999999/1" value="1" leadInLength="0/1"  />
               <InterpolatingParam id="3785" interp="linr"  time="-9999999/1" value="1" leadInLength="0/1"  />
               <InterpolatingParam id="3786" interp="linr"  time="-9999999/1" value="1" leadInLength="0/1"  />
              </VectorParam>
              <VectorParam id="3787"  name="anchor">
               <InterpolatingParam id="3788" interp="linr"  time="0/1" value="0" leadInLength="0/1"  />
               <InterpolatingParam id="3789" interp="linr"  time="0/1" value="0" leadInLength="0/1"  />
               <InterpolatingParam id="3790" interp="linr"  time="0/1" value="0" leadInLength="0/1"  />
              </VectorParam>
             </Transformer>
             <Parameters>
              <VectorParam id="3791"  name="sourceCrop">
               <InterpolatingParam id="3792" interp="linr"  time="0/1" value="0" leadInLength="0/1"  />
               <InterpolatingParam id="3793" interp="linr"  time="0/1" value="0" leadInLength="0/1"  />
               <InterpolatingParam id="3794" interp="linr"  time="0/1" value="0" leadInLength="0/1"  />
               <InterpolatingParam id="3795" interp="linr"  time="0/1" value="0" leadInLength="0/1"  />
              </VectorParam>
              <VectorParam id="3796"  name="geometryCrop">
               <InterpolatingParam id="3797" interp="linr"  time="-9999999/1" value="0" leadInLength="0/1"  />
               <InterpolatingParam id="3798" interp="linr"  time="-9999999/1" value="0" leadInLength="0/1"  />
               <InterpolatingParam id="3799" interp="linr"  time="-9999999/1" value="0" leadInLength="0/1"  />
               <InterpolatingParam id="3800" interp="linr"  time="-9999999/1" value="0" leadInLength="0/1"  />
              </VectorParam>
              <InterpolatingParam id="3801" interp="linr"  time="-9999999/1" value="1" leadInLength="0/1"  name="opacity"/>
             </Parameters>
             <Attributes>
              <Attribute id="3802" value="" name="ident"/>
             </Attributes>
             <ExtraData>
              <Entry key="ZoomPanBin">
               <ZoomPanBin id="3803"  >
                <ZoomPanKeyframes>
                 <ZoomPanKeyframe id="3804" timeRangeEnd="-9999999/1" timeRangeDuration="0/1" interpolaterName="linr"  />
                </ZoomPanKeyframes>
               </ZoomPanBin>
              </Entry>
             </ExtraData>
            </VMFile>
            <MetaData>
             <entry key="WinSubProjectDisplayName" val=""/>
            </MetaData>
           </UnifiedMedia>
          </Medias>
         </GenericTrack>
        </StitchedMedia>
        <StitchedMedia id="3805" start="7160" duration="21" scalar="1098867/943520" mediaStart="3375/104654" mediaDuration="943520/52327" minMediaStart="-5833616625/104654" >
         <Transformer>
          <VectorParam id="3806"  name="translation">
           <InterpolatingParam id="3807" interp="linr"  time="-9999999/1" value="0" leadInLength="0/1"  />
           <InterpolatingParam id="3808" interp="linr"  time="-9999999/1" value="0" leadInLength="0/1"  />
           <InterpolatingParam id="3809" interp="linr"  time="-9999999/1" value="0" leadInLength="0/1"  />
          </VectorParam>
          <VectorParam id="3810"  name="rotation">
           <InterpolatingParam id="3811" interp="linr"  time="-9999999/1" value="0" leadInLength="0/1"  />
           <InterpolatingParam id="3812" interp="linr"  time="-9999999/1" value="0" leadInLength="0/1"  />
           <InterpolatingParam id="3813" interp="linr"  time="-9999999/1" value="0" leadInLength="0/1"  />
          </VectorParam>
          <VectorParam id="3814"  name="shear">
           <InterpolatingParam id="3815" interp="linr"  time="-9999999/1" value="0" leadInLength="0/1"  />
           <InterpolatingParam id="3816" interp="linr"  time="-9999999/1" value="0" leadInLength="0/1"  />
           <InterpolatingParam id="3817" interp="linr"  time="-9999999/1" value="0" leadInLength="0/1"  />
          </VectorParam>
          <VectorParam id="3818"  name="scale">
           <InterpolatingParam id="3819" interp="linr"  time="-9999999/1" value="1" leadInLength="0/1"  />
           <InterpolatingParam id="3820" interp="linr"  time="-9999999/1" value="1" leadInLength="0/1"  />
           <InterpolatingParam id="3821" interp="linr"  time="-9999999/1" value="1" leadInLength="0/1"  />
          </VectorParam>
          <VectorParam id="3822"  name="anchor">
           <InterpolatingParam id="3823" interp="linr"  time="0/1" value="0" leadInLength="0/1"  />
           <InterpolatingParam id="3824" interp="linr"  time="0/1" value="0" leadInLength="0/1"  />
           <InterpolatingParam id="3825" interp="linr"  time="0/1" value="0" leadInLength="0/1"  />
          </VectorParam>
         </Transformer>
         <Parameters>
          <VectorParam id="3826"  name="sourceCrop">
           <InterpolatingParam id="3827" interp="linr"  time="0/1" value="0" leadInLength="0/1"  />
           <InterpolatingParam id="3828" interp="linr"  time="0/1" value="0" leadInLength="0/1"  />
           <InterpolatingParam id="3829" interp="linr"  time="0/1" value="0" leadInLength="0/1"  />
           <InterpolatingParam id="3830" interp="linr"  time="0/1" value="0" leadInLength="0/1"  />
          </VectorParam>
          <VectorParam id="3831"  name="geometryCrop">
           <InterpolatingParam id="3832" interp="linr"  time="-9999999/1" value="0" leadInLength="0/1"  />
           <InterpolatingParam id="3833" interp="linr"  time="-9999999/1" value="0" leadInLength="0/1"  />
           <InterpolatingParam id="3834" interp="linr"  time="-9999999/1" value="0" leadInLength="0/1"  />
           <InterpolatingParam id="3835" interp="linr"  time="-9999999/1" value="0" leadInLength="0/1"  />
          </VectorParam>
          <InterpolatingParam id="3836" interp="linr"  time="-9999999/1" value="1" leadInLength="0/1"  name="opacity"/>
          <InterpolatingParam id="3837" interp="linr"  time="0/1" value="1" leadInLength="0/1"  name="cursorOpacity"/>
          <InterpolatingParam id="3838" interp="linr"  time="0/1" value="1" leadInLength="0/1"  name="cursorScale"/>
          <InterpolatingParam id="3839" interp="linr"  name="volume">
           <Keyframes>
           <Keyframe id="3840"  time="-5833616625/104654" value="0" leadInLength="0/1"  />
           <Keyframe id="3841"  time="143611/9514" value="0" leadInLength="0/1"  />
           <Keyframe id="3842"  time="17/1" value="0" leadInLength="0/1"  />
           </Keyframes>
          </InterpolatingParam>
          <Parameter id="3843"  name="captions"/>
         </Parameters>
         <Attributes>
          <Attribute id="3844" value="" name="ident"/>
          <Attribute id="3845" value="0" name="mixToMono"/>
         </Attributes>
         <MetaData>
          <entry key="WinSubProjectDisplayName" val=""/>
         </MetaData>
         <ExtraData>
          <Entry key="ZoomPanBin">
           <ZoomPanBin id="3846"  >
            <ZoomPanKeyframes>
             <ZoomPanKeyframe id="3847" timeRangeEnd="-9999999/1" timeRangeDuration="0/1" interpolaterName="linr"  />
            </ZoomPanKeyframes>
           </ZoomPanBin>
          </Entry>
          <Entry key="CursorEffectBin">
           <CursorEffectBin id="3848"  >
            <CursorEffectKeyframes>
            </CursorEffectKeyframes>
           </CursorEffectBin>
          </Entry>
         </ExtraData>
         <GenericTrack id="3849"  >
          <Attributes>
           <Attribute id="3850" value="" name="ident"/>
           <Attribute id="3851" value="0" name="audioMuted"/>
           <Attribute id="3852" value="0" name="videoHidden"/>
          </Attributes>
          <MetaData>
           <entry key="IsLocked" val="False"/>
           <entry key="WinTrackHeight" val="0"/>
          </MetaData>
          <Medias>
           <IMFile id="3853" start="-55742" duration="55758" scalar="1/1" mediaStart="6973/1" mediaDuration="1/1" trackNumber="0" src="21" trimStartSum="-55742/1" >
            <Transformer>
             <VectorParam id="3854"  name="translation">
              <InterpolatingParam id="3855" interp="linr"  time="-9999999/1" value="0" leadInLength="0/1"  />
              <InterpolatingParam id="3856" interp="linr"  time="-9999999/1" value="0" leadInLength="0/1"  />
              <InterpolatingParam id="3857" interp="linr"  time="-9999999/1" value="0" leadInLength="0/1"  />
             </VectorParam>
             <VectorParam id="3858"  name="rotation">
              <InterpolatingParam id="3859" interp="linr"  time="-9999999/1" value="0" leadInLength="0/1"  />
              <InterpolatingParam id="3860" interp="linr"  time="-9999999/1" value="0" leadInLength="0/1"  />
              <InterpolatingParam id="3861" interp="linr"  time="-9999999/1" value="0" leadInLength="0/1"  />
             </VectorParam>
             <VectorParam id="3862"  name="shear">
              <InterpolatingParam id="3863" interp="linr"  time="-9999999/1" value="0" leadInLength="0/1"  />
              <InterpolatingParam id="3864" interp="linr"  time="-9999999/1" value="0" leadInLength="0/1"  />
              <InterpolatingParam id="3865" interp="linr"  time="-9999999/1" value="0" leadInLength="0/1"  />
             </VectorParam>
             <VectorParam id="3866"  name="scale">
              <InterpolatingParam id="3867" interp="linr"  time="-9999999/1" value="1" leadInLength="0/1"  />
              <InterpolatingParam id="3868" interp="linr"  time="-9999999/1" value="1" leadInLength="0/1"  />
              <InterpolatingParam id="3869" interp="linr"  time="-9999999/1" value="1" leadInLength="0/1"  />
             </VectorParam>
             <VectorParam id="3870"  name="anchor">
              <InterpolatingParam id="3871" interp="linr"  time="0/1" value="0" leadInLength="0/1"  />
              <InterpolatingParam id="3872" interp="linr"  time="0/1" value="0" leadInLength="0/1"  />
              <InterpolatingParam id="3873" interp="linr"  time="0/1" value="0" leadInLength="0/1"  />
             </VectorParam>
            </Transformer>
            <Parameters>
             <VectorParam id="3874"  name="sourceCrop">
              <InterpolatingParam id="3875" interp="linr"  time="0/1" value="0" leadInLength="0/1"  />
              <InterpolatingParam id="3876" interp="linr"  time="0/1" value="0" leadInLength="0/1"  />
              <InterpolatingParam id="3877" interp="linr"  time="0/1" value="0" leadInLength="0/1"  />
              <InterpolatingParam id="3878" interp="linr"  time="0/1" value="0" leadInLength="0/1"  />
             </VectorParam>
             <VectorParam id="3879"  name="geometryCrop">
              <InterpolatingParam id="3880" interp="linr"  time="-9999999/1" value="0" leadInLength="0/1"  />
              <InterpolatingParam id="3881" interp="linr"  time="-9999999/1" value="0" leadInLength="0/1"  />
              <InterpolatingParam id="3882" interp="linr"  time="-9999999/1" value="0" leadInLength="0/1"  />
              <InterpolatingParam id="3883" interp="linr"  time="-9999999/1" value="0" leadInLength="0/1"  />
             </VectorParam>
             <InterpolatingParam id="3884" interp="linr"  time="-9999999/1" value="1" leadInLength="0/1"  name="opacity"/>
            </Parameters>
            <Attributes>
             <Attribute id="3885" value="" name="ident"/>
            </Attributes>
            <MetaData>
             <entry key="WinSubProjectDisplayName" val=""/>
            </MetaData>
            <ExtraData>
             <Entry key="ZoomPanBin">
              <ZoomPanBin id="3886"  >
               <ZoomPanKeyframes>
                <ZoomPanKeyframe id="3887" timeRangeEnd="-9999999/1" timeRangeDuration="0/1" interpolaterName="linr"  />
               </ZoomPanKeyframes>
              </ZoomPanBin>
             </Entry>
            </ExtraData>
           </IMFile>
           <UnifiedMedia id="3888"  >
            <AMFile id="3889" start="16" duration="1979" scalar="1/1" mediaStart="6973/1" mediaDuration="1979/1" trackNumber="1" src="21" channelNumber="0,1" >
             <Parameters>
              <InterpolatingParam id="3890" interp="linr"  time="0/1" value="1" leadInLength="0/1"  name="volume"/>
              <Parameter id="3891"  name="captions"/>
             </Parameters>
             <Attributes>
              <Attribute id="3892" value="" name="ident"/>
              <Attribute id="3893" value="44100" name="sampleRate"/>
              <Attribute id="3894" value="16" name="bitDepth"/>
              <Attribute id="3895" value="1" name="gain"/>
              <Attribute id="3896" value="0" name="mixToMono"/>
             </Attributes>
            </AMFile>
            <VMFile id="3897" start="16" duration="1979" scalar="1/1" mediaStart="6973/1" mediaDuration="1979/1" trackNumber="0" src="21" >
             <Transformer>
              <VectorParam id="3898"  name="translation">
               <InterpolatingParam id="3899" interp="linr"  time="-9999999/1" value="0" leadInLength="0/1"  />
               <InterpolatingParam id="3900" interp="linr"  time="-9999999/1" value="0" leadInLength="0/1"  />
               <InterpolatingParam id="3901" interp="linr"  time="-9999999/1" value="0" leadInLength="0/1"  />
              </VectorParam>
              <VectorParam id="3902"  name="rotation">
               <InterpolatingParam id="3903" interp="linr"  time="-9999999/1" value="0" leadInLength="0/1"  />
               <InterpolatingParam id="3904" interp="linr"  time="-9999999/1" value="0" leadInLength="0/1"  />
               <InterpolatingParam id="3905" interp="linr"  time="-9999999/1" value="0" leadInLength="0/1"  />
              </VectorParam>
              <VectorParam id="3906"  name="shear">
               <InterpolatingParam id="3907" interp="linr"  time="-9999999/1" value="0" leadInLength="0/1"  />
               <InterpolatingParam id="3908" interp="linr"  time="-9999999/1" value="0" leadInLength="0/1"  />
               <InterpolatingParam id="3909" interp="linr"  time="-9999999/1" value="0" leadInLength="0/1"  />
              </VectorParam>
              <VectorParam id="3910"  name="scale">
               <InterpolatingParam id="3911" interp="linr"  time="-9999999/1" value="1" leadInLength="0/1"  />
               <InterpolatingParam id="3912" interp="linr"  time="-9999999/1" value="1" leadInLength="0/1"  />
               <InterpolatingParam id="3913" interp="linr"  time="-9999999/1" value="1" leadInLength="0/1"  />
              </VectorParam>
              <VectorParam id="3914"  name="anchor">
               <InterpolatingParam id="3915" interp="linr"  time="0/1" value="0" leadInLength="0/1"  />
               <InterpolatingParam id="3916" interp="linr"  time="0/1" value="0" leadInLength="0/1"  />
               <InterpolatingParam id="3917" interp="linr"  time="0/1" value="0" leadInLength="0/1"  />
              </VectorParam>
             </Transformer>
             <Parameters>
              <VectorParam id="3918"  name="sourceCrop">
               <InterpolatingParam id="3919" interp="linr"  time="0/1" value="0" leadInLength="0/1"  />
               <InterpolatingParam id="3920" interp="linr"  time="0/1" value="0" leadInLength="0/1"  />
               <InterpolatingParam id="3921" interp="linr"  time="0/1" value="0" leadInLength="0/1"  />
               <InterpolatingParam id="3922" interp="linr"  time="0/1" value="0" leadInLength="0/1"  />
              </VectorParam>
              <VectorParam id="3923"  name="geometryCrop">
               <InterpolatingParam id="3924" interp="linr"  time="-9999999/1" value="0" leadInLength="0/1"  />
               <InterpolatingParam id="3925" interp="linr"  time="-9999999/1" value="0" leadInLength="0/1"  />
               <InterpolatingParam id="3926" interp="linr"  time="-9999999/1" value="0" leadInLength="0/1"  />
               <InterpolatingParam id="3927" interp="linr"  time="-9999999/1" value="0" leadInLength="0/1"  />
              </VectorParam>
              <InterpolatingParam id="3928" interp="linr"  time="-9999999/1" value="1" leadInLength="0/1"  name="opacity"/>
             </Parameters>
             <Attributes>
              <Attribute id="3929" value="" name="ident"/>
             </Attributes>
             <ExtraData>
              <Entry key="ZoomPanBin">
               <ZoomPanBin id="3930"  >
                <ZoomPanKeyframes>
                 <ZoomPanKeyframe id="3931" timeRangeEnd="-9999999/1" timeRangeDuration="0/1" interpolaterName="linr"  />
                </ZoomPanKeyframes>
               </ZoomPanBin>
              </Entry>
             </ExtraData>
            </VMFile>
            <MetaData>
             <entry key="WinSubProjectDisplayName" val=""/>
            </MetaData>
           </UnifiedMedia>
          </Medias>
         </GenericTrack>
        </StitchedMedia>
        <StitchedMedia id="3932" start="7181" duration="21" scalar="1098867/943520" mediaStart="3375/104654" mediaDuration="943520/52327" minMediaStart="-5833616625/104654" >
         <Transformer>
          <VectorParam id="3933"  name="translation">
           <InterpolatingParam id="3934" interp="linr"  time="-9999999/1" value="-1.1057821325264654e-010" leadInLength="0/1"  />
           <InterpolatingParam id="3935" interp="linr"  time="-9999999/1" value="-9.2938989837421104e-011" leadInLength="0/1"  />
           <InterpolatingParam id="3936" interp="linr"  time="-9999999/1" value="0" leadInLength="0/1"  />
          </VectorParam>
          <VectorParam id="3937"  name="rotation">
           <InterpolatingParam id="3938" interp="linr"  time="-9999999/1" value="0" leadInLength="0/1"  />
           <InterpolatingParam id="3939" interp="linr"  time="-9999999/1" value="0" leadInLength="0/1"  />
           <InterpolatingParam id="3940" interp="linr"  time="-9999999/1" value="0" leadInLength="0/1"  />
          </VectorParam>
          <VectorParam id="3941"  name="shear">
           <InterpolatingParam id="3942" interp="linr"  time="-9999999/1" value="0" leadInLength="0/1"  />
           <InterpolatingParam id="3943" interp="linr"  time="-9999999/1" value="0" leadInLength="0/1"  />
           <InterpolatingParam id="3944" interp="linr"  time="-9999999/1" value="0" leadInLength="0/1"  />
          </VectorParam>
          <VectorParam id="3945"  name="scale">
           <InterpolatingParam id="3946" interp="linr"  time="-9999999/1" value="1" leadInLength="0/1"  />
           <InterpolatingParam id="3947" interp="linr"  time="-9999999/1" value="1" leadInLength="0/1"  />
           <InterpolatingParam id="3948" interp="linr"  time="-9999999/1" value="1" leadInLength="0/1"  />
          </VectorParam>
          <VectorParam id="3949"  name="anchor">
           <InterpolatingParam id="3950" interp="linr"  time="0/1" value="0" leadInLength="0/1"  />
           <InterpolatingParam id="3951" interp="linr"  time="0/1" value="0" leadInLength="0/1"  />
           <InterpolatingParam id="3952" interp="linr"  time="0/1" value="0" leadInLength="0/1"  />
          </VectorParam>
         </Transformer>
         <Parameters>
          <VectorParam id="3953"  name="sourceCrop">
           <InterpolatingParam id="3954" interp="linr"  time="0/1" value="0" leadInLength="0/1"  />
           <InterpolatingParam id="3955" interp="linr"  time="0/1" value="0" leadInLength="0/1"  />
           <InterpolatingParam id="3956" interp="linr"  time="0/1" value="0" leadInLength="0/1"  />
           <InterpolatingParam id="3957" interp="linr"  time="0/1" value="0" leadInLength="0/1"  />
          </VectorParam>
          <VectorParam id="3958"  name="geometryCrop">
           <InterpolatingParam id="3959" interp="linr"  time="-9999999/1" value="0" leadInLength="0/1"  />
           <InterpolatingParam id="3960" interp="linr"  time="-9999999/1" value="0" leadInLength="0/1"  />
           <InterpolatingParam id="3961" interp="linr"  time="-9999999/1" value="0" leadInLength="0/1"  />
           <InterpolatingParam id="3962" interp="linr"  time="-9999999/1" value="0" leadInLength="0/1"  />
          </VectorParam>
          <InterpolatingParam id="3963" interp="linr"  time="-9999999/1" value="1" leadInLength="0/1"  name="opacity"/>
          <InterpolatingParam id="3964" interp="linr"  time="0/1" value="1" leadInLength="0/1"  name="cursorOpacity"/>
          <InterpolatingParam id="3965" interp="linr"  time="0/1" value="1" leadInLength="0/1"  name="cursorScale"/>
          <InterpolatingParam id="3966" interp="linr"  name="volume">
           <Keyframes>
           <Keyframe id="3967"  time="-5833616625/104654" value="0" leadInLength="0/1"  />
           <Keyframe id="3968"  time="143611/9514" value="0" leadInLength="0/1"  />
           <Keyframe id="3969"  time="17/1" value="0" leadInLength="0/1"  />
           </Keyframes>
          </InterpolatingParam>
          <Parameter id="3970"  name="captions"/>
         </Parameters>
         <Attributes>
          <Attribute id="3971" value="" name="ident"/>
          <Attribute id="3972" value="0" name="mixToMono"/>
         </Attributes>
         <MetaData>
          <entry key="WinSubProjectDisplayName" val=""/>
         </MetaData>
         <ExtraData>
          <Entry key="ZoomPanBin">
           <ZoomPanBin id="3973"  >
            <ZoomPanKeyframes>
             <ZoomPanKeyframe id="3974" timeRangeEnd="-9999999/1" timeRangeDuration="0/1" interpolaterName="linr"  />
            </ZoomPanKeyframes>
           </ZoomPanBin>
          </Entry>
          <Entry key="CursorEffectBin">
           <CursorEffectBin id="3975"  >
            <CursorEffectKeyframes>
            </CursorEffectKeyframes>
           </CursorEffectBin>
          </Entry>
         </ExtraData>
         <GenericTrack id="3976"  >
          <Attributes>
           <Attribute id="3977" value="" name="ident"/>
           <Attribute id="3978" value="0" name="audioMuted"/>
           <Attribute id="3979" value="0" name="videoHidden"/>
          </Attributes>
          <MetaData>
           <entry key="IsLocked" val="False"/>
           <entry key="WinTrackHeight" val="0"/>
          </MetaData>
          <Medias>
           <IMFile id="3980" start="-55742" duration="55758" scalar="1/1" mediaStart="6973/1" mediaDuration="1/1" trackNumber="0" src="21" trimStartSum="-55742/1" >
            <Transformer>
             <VectorParam id="3981"  name="translation">
              <InterpolatingParam id="3982" interp="linr"  time="-9999999/1" value="0" leadInLength="0/1"  />
              <InterpolatingParam id="3983" interp="linr"  time="-9999999/1" value="0" leadInLength="0/1"  />
              <InterpolatingParam id="3984" interp="linr"  time="-9999999/1" value="0" leadInLength="0/1"  />
             </VectorParam>
             <VectorParam id="3985"  name="rotation">
              <InterpolatingParam id="3986" interp="linr"  time="-9999999/1" value="0" leadInLength="0/1"  />
              <InterpolatingParam id="3987" interp="linr"  time="-9999999/1" value="0" leadInLength="0/1"  />
              <InterpolatingParam id="3988" interp="linr"  time="-9999999/1" value="0" leadInLength="0/1"  />
             </VectorParam>
             <VectorParam id="3989"  name="shear">
              <InterpolatingParam id="3990" interp="linr"  time="-9999999/1" value="0" leadInLength="0/1"  />
              <InterpolatingParam id="3991" interp="linr"  time="-9999999/1" value="0" leadInLength="0/1"  />
              <InterpolatingParam id="3992" interp="linr"  time="-9999999/1" value="0" leadInLength="0/1"  />
             </VectorParam>
             <VectorParam id="3993"  name="scale">
              <InterpolatingParam id="3994" interp="linr"  time="-9999999/1" value="1" leadInLength="0/1"  />
              <InterpolatingParam id="3995" interp="linr"  time="-9999999/1" value="1" leadInLength="0/1"  />
              <InterpolatingParam id="3996" interp="linr"  time="-9999999/1" value="1" leadInLength="0/1"  />
             </VectorParam>
             <VectorParam id="3997"  name="anchor">
              <InterpolatingParam id="3998" interp="linr"  time="0/1" value="0" leadInLength="0/1"  />
              <InterpolatingParam id="3999" interp="linr"  time="0/1" value="0" leadInLength="0/1"  />
              <InterpolatingParam id="4000" interp="linr"  time="0/1" value="0" leadInLength="0/1"  />
             </VectorParam>
            </Transformer>
            <Parameters>
             <VectorParam id="4001"  name="sourceCrop">
              <InterpolatingParam id="4002" interp="linr"  time="0/1" value="0" leadInLength="0/1"  />
              <InterpolatingParam id="4003" interp="linr"  time="0/1" value="0" leadInLength="0/1"  />
              <InterpolatingParam id="4004" interp="linr"  time="0/1" value="0" leadInLength="0/1"  />
              <InterpolatingParam id="4005" interp="linr"  time="0/1" value="0" leadInLength="0/1"  />
             </VectorParam>
             <VectorParam id="4006"  name="geometryCrop">
              <InterpolatingParam id="4007" interp="linr"  time="-9999999/1" value="0" leadInLength="0/1"  />
              <InterpolatingParam id="4008" interp="linr"  time="-9999999/1" value="0" leadInLength="0/1"  />
              <InterpolatingParam id="4009" interp="linr"  time="-9999999/1" value="0" leadInLength="0/1"  />
              <InterpolatingParam id="4010" interp="linr"  time="-9999999/1" value="0" leadInLength="0/1"  />
             </VectorParam>
             <InterpolatingParam id="4011" interp="linr"  time="-9999999/1" value="1" leadInLength="0/1"  name="opacity"/>
            </Parameters>
            <Attributes>
             <Attribute id="4012" value="" name="ident"/>
            </Attributes>
            <MetaData>
             <entry key="WinSubProjectDisplayName" val=""/>
            </MetaData>
            <ExtraData>
             <Entry key="ZoomPanBin">
              <ZoomPanBin id="4013"  >
               <ZoomPanKeyframes>
                <ZoomPanKeyframe id="4014" timeRangeEnd="-9999999/1" timeRangeDuration="0/1" interpolaterName="linr"  />
               </ZoomPanKeyframes>
              </ZoomPanBin>
             </Entry>
            </ExtraData>
           </IMFile>
           <UnifiedMedia id="4015"  >
            <AMFile id="4016" start="16" duration="1979" scalar="1/1" mediaStart="6973/1" mediaDuration="1979/1" trackNumber="1" src="21" channelNumber="0,1" >
             <Parameters>
              <InterpolatingParam id="4017" interp="linr"  time="0/1" value="1" leadInLength="0/1"  name="volume"/>
              <Parameter id="4018"  name="captions"/>
             </Parameters>
             <Attributes>
              <Attribute id="4019" value="" name="ident"/>
              <Attribute id="4020" value="44100" name="sampleRate"/>
              <Attribute id="4021" value="16" name="bitDepth"/>
              <Attribute id="4022" value="1" name="gain"/>
              <Attribute id="4023" value="0" name="mixToMono"/>
             </Attributes>
            </AMFile>
            <VMFile id="4024" start="16" duration="1979" scalar="1/1" mediaStart="6973/1" mediaDuration="1979/1" trackNumber="0" src="21" >
             <Transformer>
              <VectorParam id="4025"  name="translation">
               <InterpolatingParam id="4026" interp="linr"  time="-9999999/1" value="0" leadInLength="0/1"  />
               <InterpolatingParam id="4027" interp="linr"  time="-9999999/1" value="0" leadInLength="0/1"  />
               <InterpolatingParam id="4028" interp="linr"  time="-9999999/1" value="0" leadInLength="0/1"  />
              </VectorParam>
              <VectorParam id="4029"  name="rotation">
               <InterpolatingParam id="4030" interp="linr"  time="-9999999/1" value="0" leadInLength="0/1"  />
               <InterpolatingParam id="4031" interp="linr"  time="-9999999/1" value="0" leadInLength="0/1"  />
               <InterpolatingParam id="4032" interp="linr"  time="-9999999/1" value="0" leadInLength="0/1"  />
              </VectorParam>
              <VectorParam id="4033"  name="shear">
               <InterpolatingParam id="4034" interp="linr"  time="-9999999/1" value="0" leadInLength="0/1"  />
               <InterpolatingParam id="4035" interp="linr"  time="-9999999/1" value="0" leadInLength="0/1"  />
               <InterpolatingParam id="4036" interp="linr"  time="-9999999/1" value="0" leadInLength="0/1"  />
              </VectorParam>
              <VectorParam id="4037"  name="scale">
               <InterpolatingParam id="4038" interp="linr"  time="-9999999/1" value="1" leadInLength="0/1"  />
               <InterpolatingParam id="4039" interp="linr"  time="-9999999/1" value="1" leadInLength="0/1"  />
               <InterpolatingParam id="4040" interp="linr"  time="-9999999/1" value="1" leadInLength="0/1"  />
              </VectorParam>
              <VectorParam id="4041"  name="anchor">
               <InterpolatingParam id="4042" interp="linr"  time="0/1" value="0" leadInLength="0/1"  />
               <InterpolatingParam id="4043" interp="linr"  time="0/1" value="0" leadInLength="0/1"  />
               <InterpolatingParam id="4044" interp="linr"  time="0/1" value="0" leadInLength="0/1"  />
              </VectorParam>
             </Transformer>
             <Parameters>
              <VectorParam id="4045"  name="sourceCrop">
               <InterpolatingParam id="4046" interp="linr"  time="0/1" value="0" leadInLength="0/1"  />
               <InterpolatingParam id="4047" interp="linr"  time="0/1" value="0" leadInLength="0/1"  />
               <InterpolatingParam id="4048" interp="linr"  time="0/1" value="0" leadInLength="0/1"  />
               <InterpolatingParam id="4049" interp="linr"  time="0/1" value="0" leadInLength="0/1"  />
              </VectorParam>
              <VectorParam id="4050"  name="geometryCrop">
               <InterpolatingParam id="4051" interp="linr"  time="-9999999/1" value="0" leadInLength="0/1"  />
               <InterpolatingParam id="4052" interp="linr"  time="-9999999/1" value="0" leadInLength="0/1"  />
               <InterpolatingParam id="4053" interp="linr"  time="-9999999/1" value="0" leadInLength="0/1"  />
               <InterpolatingParam id="4054" interp="linr"  time="-9999999/1" value="0" leadInLength="0/1"  />
              </VectorParam>
              <InterpolatingParam id="4055" interp="linr"  time="-9999999/1" value="1" leadInLength="0/1"  name="opacity"/>
             </Parameters>
             <Attributes>
              <Attribute id="4056" value="" name="ident"/>
             </Attributes>
             <ExtraData>
              <Entry key="ZoomPanBin">
               <ZoomPanBin id="4057"  >
                <ZoomPanKeyframes>
                 <ZoomPanKeyframe id="4058" timeRangeEnd="-9999999/1" timeRangeDuration="0/1" interpolaterName="linr"  />
                </ZoomPanKeyframes>
               </ZoomPanBin>
              </Entry>
             </ExtraData>
            </VMFile>
            <MetaData>
             <entry key="WinSubProjectDisplayName" val=""/>
            </MetaData>
           </UnifiedMedia>
          </Medias>
         </GenericTrack>
        </StitchedMedia>
        <UnifiedMedia id="4059"  >
         <AMFile id="4060" start="7202" duration="70" scalar="7249295690/9743693469" mediaStart="722245354505/103561367" mediaDuration="9743693469/103561367" trackNumber="1" src="21" channelNumber="0,1" >
          <Parameters>
           <InterpolatingParam id="4061" interp="linr"  name="volume">
            <Keyframes>
            <Keyframe id="4062"  time="-1/1" value="1" leadInLength="0/1"  />
            <Keyframe id="4063"  time="0/1" value="0" leadInLength="0/1"  />
            <Keyframe id="4064"  time="8952/1" value="0" leadInLength="0/1"  />
            <Keyframe id="4065"  time="8953/1" value="1" leadInLength="0/1"  />
            </Keyframes>
           </InterpolatingParam>
           <Parameter id="4066"  name="captions"/>
          </Parameters>
          <Attributes>
           <Attribute id="4067" value="" name="ident"/>
           <Attribute id="4068" value="44100" name="sampleRate"/>
           <Attribute id="4069" value="16" name="bitDepth"/>
           <Attribute id="4070" value="1" name="gain"/>
           <Attribute id="4071" value="0" name="mixToMono"/>
          </Attributes>
         </AMFile>
         <VMFile id="4072" start="7202" duration="70" scalar="7249295690/9743693469" mediaStart="722245354505/103561367" mediaDuration="9743693469/103561367" trackNumber="0" src="21" >
          <Transformer>
           <VectorParam id="4073"  name="translation">
            <InterpolatingParam id="4074" interp="linr"  time="-9999999/1" value="0" leadInLength="0/1"  />
            <InterpolatingParam id="4075" interp="linr"  time="-9999999/1" value="0" leadInLength="0/1"  />
            <InterpolatingParam id="4076" interp="linr"  time="-9999999/1" value="0" leadInLength="0/1"  />
           </VectorParam>
           <VectorParam id="4077"  name="rotation">
            <InterpolatingParam id="4078" interp="linr"  time="-9999999/1" value="0" leadInLength="0/1"  />
            <InterpolatingParam id="4079" interp="linr"  time="-9999999/1" value="0" leadInLength="0/1"  />
            <InterpolatingParam id="4080" interp="linr"  time="-9999999/1" value="0" leadInLength="0/1"  />
           </VectorParam>
           <VectorParam id="4081"  name="shear">
            <InterpolatingParam id="4082" interp="linr"  time="-9999999/1" value="0" leadInLength="0/1"  />
            <InterpolatingParam id="4083" interp="linr"  time="-9999999/1" value="0" leadInLength="0/1"  />
            <InterpolatingParam id="4084" interp="linr"  time="-9999999/1" value="0" leadInLength="0/1"  />
           </VectorParam>
           <VectorParam id="4085"  name="scale">
            <InterpolatingParam id="4086" interp="linr"  time="-9999999/1" value="1" leadInLength="0/1"  />
            <InterpolatingParam id="4087" interp="linr"  time="-9999999/1" value="1" leadInLength="0/1"  />
            <InterpolatingParam id="4088" interp="linr"  time="-9999999/1" value="1" leadInLength="0/1"  />
           </VectorParam>
           <VectorParam id="4089"  name="anchor">
            <InterpolatingParam id="4090" interp="linr"  time="0/1" value="0" leadInLength="0/1"  />
            <InterpolatingParam id="4091" interp="linr"  time="0/1" value="0" leadInLength="0/1"  />
            <InterpolatingParam id="4092" interp="linr"  time="0/1" value="0" leadInLength="0/1"  />
           </VectorParam>
          </Transformer>
          <Parameters>
           <VectorParam id="4093"  name="sourceCrop">
            <InterpolatingParam id="4094" interp="linr"  time="0/1" value="0" leadInLength="0/1"  />
            <InterpolatingParam id="4095" interp="linr"  time="0/1" value="0" leadInLength="0/1"  />
            <InterpolatingParam id="4096" interp="linr"  time="0/1" value="0" leadInLength="0/1"  />
            <InterpolatingParam id="4097" interp="linr"  time="0/1" value="0" leadInLength="0/1"  />
           </VectorParam>
           <VectorParam id="4098"  name="geometryCrop">
            <InterpolatingParam id="4099" interp="linr"  time="-9999999/1" value="0" leadInLength="0/1"  />
            <InterpolatingParam id="4100" interp="linr"  time="-9999999/1" value="0" leadInLength="0/1"  />
            <InterpolatingParam id="4101" interp="linr"  time="-9999999/1" value="0" leadInLength="0/1"  />
            <InterpolatingParam id="4102" interp="linr"  time="-9999999/1" value="0" leadInLength="0/1"  />
           </VectorParam>
           <InterpolatingParam id="4103" interp="linr"  time="-9999999/1" value="1" leadInLength="0/1"  name="opacity"/>
          </Parameters>
          <Attributes>
           <Attribute id="4104" value="" name="ident"/>
          </Attributes>
          <ExtraData>
           <Entry key="ZoomPanBin">
            <ZoomPanBin id="4105"  >
             <ZoomPanKeyframes>
              <ZoomPanKeyframe id="4106" timeRangeEnd="-9999999/1" timeRangeDuration="0/1" interpolaterName="linr"  />
             </ZoomPanKeyframes>
            </ZoomPanBin>
           </Entry>
          </ExtraData>
         </VMFile>
         <MetaData>
          <entry key="WinSubProjectDisplayName" val=""/>
         </MetaData>
        </UnifiedMedia>
        <UnifiedMedia id="4107"  >
         <AMFile id="4108" start="7272" duration="87" scalar="219752169/299886190" mediaStart="17853391414/2525887" mediaDuration="299886190/2525887" trackNumber="1" src="21" channelNumber="0,1" >
          <Parameters>
           <InterpolatingParam id="4109" interp="linr"  name="volume">
            <Keyframes>
            <Keyframe id="4110"  time="-1/1" value="1" leadInLength="0/1"  />
            <Keyframe id="4111"  time="0/1" value="0" leadInLength="0/1"  />
            <Keyframe id="4112"  time="8952/1" value="0" leadInLength="0/1"  />
            <Keyframe id="4113"  time="8953/1" value="1" leadInLength="0/1"  />
            </Keyframes>
           </InterpolatingParam>
           <Parameter id="4114"  name="captions"/>
          </Parameters>
          <Attributes>
           <Attribute id="4115" value="" name="ident"/>
           <Attribute id="4116" value="44100" name="sampleRate"/>
           <Attribute id="4117" value="16" name="bitDepth"/>
           <Attribute id="4118" value="1" name="gain"/>
           <Attribute id="4119" value="0" name="mixToMono"/>
          </Attributes>
         </AMFile>
         <VMFile id="4120" start="7272" duration="87" scalar="219752169/299886190" mediaStart="17853391414/2525887" mediaDuration="299886190/2525887" trackNumber="0" src="21" >
          <Transformer>
           <VectorParam id="4121"  name="translation">
            <InterpolatingParam id="4122" interp="linr"  time="-9999999/1" value="0" leadInLength="0/1"  />
            <InterpolatingParam id="4123" interp="linr"  time="-9999999/1" value="0" leadInLength="0/1"  />
            <InterpolatingParam id="4124" interp="linr"  time="-9999999/1" value="0" leadInLength="0/1"  />
           </VectorParam>
           <VectorParam id="4125"  name="rotation">
            <InterpolatingParam id="4126" interp="linr"  time="-9999999/1" value="0" leadInLength="0/1"  />
            <InterpolatingParam id="4127" interp="linr"  time="-9999999/1" value="0" leadInLength="0/1"  />
            <InterpolatingParam id="4128" interp="linr"  time="-9999999/1" value="0" leadInLength="0/1"  />
           </VectorParam>
           <VectorParam id="4129"  name="shear">
            <InterpolatingParam id="4130" interp="linr"  time="-9999999/1" value="0" leadInLength="0/1"  />
            <InterpolatingParam id="4131" interp="linr"  time="-9999999/1" value="0" leadInLength="0/1"  />
            <InterpolatingParam id="4132" interp="linr"  time="-9999999/1" value="0" leadInLength="0/1"  />
           </VectorParam>
           <VectorParam id="4133"  name="scale">
            <InterpolatingParam id="4134" interp="linr"  time="-9999999/1" value="1" leadInLength="0/1"  />
            <InterpolatingParam id="4135" interp="linr"  time="-9999999/1" value="1" leadInLength="0/1"  />
            <InterpolatingParam id="4136" interp="linr"  time="-9999999/1" value="1" leadInLength="0/1"  />
           </VectorParam>
           <VectorParam id="4137"  name="anchor">
            <InterpolatingParam id="4138" interp="linr"  time="0/1" value="0" leadInLength="0/1"  />
            <InterpolatingParam id="4139" interp="linr"  time="0/1" value="0" leadInLength="0/1"  />
            <InterpolatingParam id="4140" interp="linr"  time="0/1" value="0" leadInLength="0/1"  />
           </VectorParam>
          </Transformer>
          <Parameters>
           <VectorParam id="4141"  name="sourceCrop">
            <InterpolatingParam id="4142" interp="linr"  time="0/1" value="0" leadInLength="0/1"  />
            <InterpolatingParam id="4143" interp="linr"  time="0/1" value="0" leadInLength="0/1"  />
            <InterpolatingParam id="4144" interp="linr"  time="0/1" value="0" leadInLength="0/1"  />
            <InterpolatingParam id="4145" interp="linr"  time="0/1" value="0" leadInLength="0/1"  />
           </VectorParam>
           <VectorParam id="4146"  name="geometryCrop">
            <InterpolatingParam id="4147" interp="linr"  time="-9999999/1" value="0" leadInLength="0/1"  />
            <InterpolatingParam id="4148" interp="linr"  time="-9999999/1" value="0" leadInLength="0/1"  />
            <InterpolatingParam id="4149" interp="linr"  time="-9999999/1" value="0" leadInLength="0/1"  />
            <InterpolatingParam id="4150" interp="linr"  time="-9999999/1" value="0" leadInLength="0/1"  />
           </VectorParam>
           <InterpolatingParam id="4151" interp="linr"  time="-9999999/1" value="1" leadInLength="0/1"  name="opacity"/>
          </Parameters>
          <Attributes>
           <Attribute id="4152" value="" name="ident"/>
          </Attributes>
          <ExtraData>
           <Entry key="ZoomPanBin">
            <ZoomPanBin id="4153"  >
             <ZoomPanKeyframes>
              <ZoomPanKeyframe id="4154" timeRangeEnd="-9999999/1" timeRangeDuration="0/1" interpolaterName="linr"  />
             </ZoomPanKeyframes>
            </ZoomPanBin>
           </Entry>
          </ExtraData>
         </VMFile>
         <MetaData>
          <entry key="WinSubProjectDisplayName" val=""/>
         </MetaData>
        </UnifiedMedia>
        <UnifiedMedia id="4155"  >
         <AMFile id="4156" start="7359" duration="215" scalar="497153378683/577696005390" mediaStart="464521381288/64590539" mediaDuration="2888480026950/11561706481" trackNumber="1" src="21" channelNumber="0,1" >
          <Parameters>
           <InterpolatingParam id="4157" interp="linr"  name="volume">
            <Keyframes>
            <Keyframe id="4158"  time="-1/1" value="1" leadInLength="0/1"  />
            <Keyframe id="4159"  time="0/1" value="0" leadInLength="0/1"  />
            <Keyframe id="4160"  time="8952/1" value="0" leadInLength="0/1"  />
            <Keyframe id="4161"  time="8953/1" value="1" leadInLength="0/1"  />
            </Keyframes>
           </InterpolatingParam>
           <Parameter id="4162"  name="captions"/>
          </Parameters>
          <Attributes>
           <Attribute id="4163" value="" name="ident"/>
           <Attribute id="4164" value="44100" name="sampleRate"/>
           <Attribute id="4165" value="16" name="bitDepth"/>
           <Attribute id="4166" value="1" name="gain"/>
           <Attribute id="4167" value="0" name="mixToMono"/>
          </Attributes>
         </AMFile>
         <VMFile id="4168" start="7359" duration="215" scalar="497153378683/577696005390" mediaStart="464521381288/64590539" mediaDuration="2888480026950/11561706481" trackNumber="0" src="21" >
          <Transformer>
           <VectorParam id="4169"  name="translation">
            <InterpolatingParam id="4170" interp="linr"  time="-9999999/1" value="-3.5815794774405611e-011" leadInLength="0/1"  />
            <InterpolatingParam id="4171" interp="linr"  time="-9999999/1" value="1.0913936421275139e-011" leadInLength="0/1"  />
            <InterpolatingParam id="4172" interp="linr"  time="-9999999/1" value="0" leadInLength="0/1"  />
           </VectorParam>
           <VectorParam id="4173"  name="rotation">
            <InterpolatingParam id="4174" interp="linr"  time="-9999999/1" value="0" leadInLength="0/1"  />
            <InterpolatingParam id="4175" interp="linr"  time="-9999999/1" value="0" leadInLength="0/1"  />
            <InterpolatingParam id="4176" interp="linr"  time="-9999999/1" value="0" leadInLength="0/1"  />
           </VectorParam>
           <VectorParam id="4177"  name="shear">
            <InterpolatingParam id="4178" interp="linr"  time="-9999999/1" value="0" leadInLength="0/1"  />
            <InterpolatingParam id="4179" interp="linr"  time="-9999999/1" value="0" leadInLength="0/1"  />
            <InterpolatingParam id="4180" interp="linr"  time="-9999999/1" value="0" leadInLength="0/1"  />
           </VectorParam>
           <VectorParam id="4181"  name="scale">
            <InterpolatingParam id="4182" interp="linr"  time="-9999999/1" value="1" leadInLength="0/1"  />
            <InterpolatingParam id="4183" interp="linr"  time="-9999999/1" value="1" leadInLength="0/1"  />
            <InterpolatingParam id="4184" interp="linr"  time="-9999999/1" value="1" leadInLength="0/1"  />
           </VectorParam>
           <VectorParam id="4185"  name="anchor">
            <InterpolatingParam id="4186" interp="linr"  time="0/1" value="0" leadInLength="0/1"  />
            <InterpolatingParam id="4187" interp="linr"  time="0/1" value="0" leadInLength="0/1"  />
            <InterpolatingParam id="4188" interp="linr"  time="0/1" value="0" leadInLength="0/1"  />
           </VectorParam>
          </Transformer>
          <Parameters>
           <VectorParam id="4189"  name="sourceCrop">
            <InterpolatingParam id="4190" interp="linr"  time="0/1" value="0" leadInLength="0/1"  />
            <InterpolatingParam id="4191" interp="linr"  time="0/1" value="0" leadInLength="0/1"  />
            <InterpolatingParam id="4192" interp="linr"  time="0/1" value="0" leadInLength="0/1"  />
            <InterpolatingParam id="4193" interp="linr"  time="0/1" value="0" leadInLength="0/1"  />
           </VectorParam>
           <VectorParam id="4194"  name="geometryCrop">
            <InterpolatingParam id="4195" interp="linr"  time="-9999999/1" value="0" leadInLength="0/1"  />
            <InterpolatingParam id="4196" interp="linr"  time="-9999999/1" value="0" leadInLength="0/1"  />
            <InterpolatingParam id="4197" interp="linr"  time="-9999999/1" value="0" leadInLength="0/1"  />
            <InterpolatingParam id="4198" interp="linr"  time="-9999999/1" value="0" leadInLength="0/1"  />
           </VectorParam>
           <InterpolatingParam id="4199" interp="linr"  time="-9999999/1" value="1" leadInLength="0/1"  name="opacity"/>
          </Parameters>
          <Attributes>
           <Attribute id="4200" value="" name="ident"/>
          </Attributes>
          <ExtraData>
           <Entry key="ZoomPanBin">
            <ZoomPanBin id="4201"  >
             <ZoomPanKeyframes>
              <ZoomPanKeyframe id="4202" timeRangeEnd="-9999999/1" timeRangeDuration="0/1" interpolaterName="linr"  />
             </ZoomPanKeyframes>
            </ZoomPanBin>
           </Entry>
          </ExtraData>
         </VMFile>
         <MetaData>
          <entry key="WinSubProjectDisplayName" val=""/>
         </MetaData>
        </UnifiedMedia>
        <UnifiedMedia id="4203"  >
         <AMFile id="4204" start="7574" duration="143" scalar="11561706481/14228965650" mediaStart="86208554865302/11561706481" mediaDuration="156518622150/889362037" trackNumber="1" src="21" channelNumber="0,1" >
          <Parameters>
           <InterpolatingParam id="4205" interp="linr"  name="volume">
            <Keyframes>
            <Keyframe id="4206"  time="-1/1" value="1" leadInLength="0/1"  />
            <Keyframe id="4207"  time="0/1" value="0" leadInLength="0/1"  />
            <Keyframe id="4208"  time="8952/1" value="0" leadInLength="0/1"  />
            <Keyframe id="4209"  time="8953/1" value="1" leadInLength="0/1"  />
            </Keyframes>
           </InterpolatingParam>
           <Parameter id="4210"  name="captions"/>
          </Parameters>
          <Attributes>
           <Attribute id="4211" value="" name="ident"/>
           <Attribute id="4212" value="44100" name="sampleRate"/>
           <Attribute id="4213" value="16" name="bitDepth"/>
           <Attribute id="4214" value="1" name="gain"/>
           <Attribute id="4215" value="0" name="mixToMono"/>
          </Attributes>
         </AMFile>
         <VMFile id="4216" start="7574" duration="143" scalar="11561706481/14228965650" mediaStart="86208554865302/11561706481" mediaDuration="156518622150/889362037" trackNumber="0" src="21" >
          <Transformer>
           <VectorParam id="4217"  name="translation">
            <InterpolatingParam id="4218" interp="linr"  time="-9999999/1" value="0" leadInLength="0/1"  />
            <InterpolatingParam id="4219" interp="linr"  time="-9999999/1" value="0" leadInLength="0/1"  />
            <InterpolatingParam id="4220" interp="linr"  time="-9999999/1" value="0" leadInLength="0/1"  />
           </VectorParam>
           <VectorParam id="4221"  name="rotation">
            <InterpolatingParam id="4222" interp="linr"  time="-9999999/1" value="0" leadInLength="0/1"  />
            <InterpolatingParam id="4223" interp="linr"  time="-9999999/1" value="0" leadInLength="0/1"  />
            <InterpolatingParam id="4224" interp="linr"  time="-9999999/1" value="0" leadInLength="0/1"  />
           </VectorParam>
           <VectorParam id="4225"  name="shear">
            <InterpolatingParam id="4226" interp="linr"  time="-9999999/1" value="0" leadInLength="0/1"  />
            <InterpolatingParam id="4227" interp="linr"  time="-9999999/1" value="0" leadInLength="0/1"  />
            <InterpolatingParam id="4228" interp="linr"  time="-9999999/1" value="0" leadInLength="0/1"  />
           </VectorParam>
           <VectorParam id="4229"  name="scale">
            <InterpolatingParam id="4230" interp="linr"  time="-9999999/1" value="1" leadInLength="0/1"  />
            <InterpolatingParam id="4231" interp="linr"  time="-9999999/1" value="1" leadInLength="0/1"  />
            <InterpolatingParam id="4232" interp="linr"  time="-9999999/1" value="1" leadInLength="0/1"  />
           </VectorParam>
           <VectorParam id="4233"  name="anchor">
            <InterpolatingParam id="4234" interp="linr"  time="0/1" value="0" leadInLength="0/1"  />
            <InterpolatingParam id="4235" interp="linr"  time="0/1" value="0" leadInLength="0/1"  />
            <InterpolatingParam id="4236" interp="linr"  time="0/1" value="0" leadInLength="0/1"  />
           </VectorParam>
          </Transformer>
          <Parameters>
           <VectorParam id="4237"  name="sourceCrop">
            <InterpolatingParam id="4238" interp="linr"  time="0/1" value="0" leadInLength="0/1"  />
            <InterpolatingParam id="4239" interp="linr"  time="0/1" value="0" leadInLength="0/1"  />
            <InterpolatingParam id="4240" interp="linr"  time="0/1" value="0" leadInLength="0/1"  />
            <InterpolatingParam id="4241" interp="linr"  time="0/1" value="0" leadInLength="0/1"  />
           </VectorParam>
           <VectorParam id="4242"  name="geometryCrop">
            <InterpolatingParam id="4243" interp="linr"  time="-9999999/1" value="0" leadInLength="0/1"  />
            <InterpolatingParam id="4244" interp="linr"  time="-9999999/1" value="0" leadInLength="0/1"  />
            <InterpolatingParam id="4245" interp="linr"  time="-9999999/1" value="0" leadInLength="0/1"  />
            <InterpolatingParam id="4246" interp="linr"  time="-9999999/1" value="0" leadInLength="0/1"  />
           </VectorParam>
           <InterpolatingParam id="4247" interp="linr"  time="-9999999/1" value="1" leadInLength="0/1"  name="opacity"/>
          </Parameters>
          <Attributes>
           <Attribute id="4248" value="" name="ident"/>
          </Attributes>
          <ExtraData>
           <Entry key="ZoomPanBin">
            <ZoomPanBin id="4249"  >
             <ZoomPanKeyframes>
              <ZoomPanKeyframe id="4250" timeRangeEnd="-9999999/1" timeRangeDuration="0/1" interpolaterName="linr"  />
             </ZoomPanKeyframes>
            </ZoomPanBin>
           </Entry>
          </ExtraData>
         </VMFile>
         <MetaData>
          <entry key="WinSubProjectDisplayName" val=""/>
         </MetaData>
        </UnifiedMedia>
        <UnifiedMedia id="4251"  >
         <AMFile id="4252" start="7717" duration="49" scalar="360841/643670" mediaStart="2754074372/360841" mediaDuration="31539830/360841" trackNumber="1" src="21" channelNumber="0,1" >
          <Parameters>
           <InterpolatingParam id="4253" interp="linr"  name="volume">
            <Keyframes>
            <Keyframe id="4254"  time="-1/1" value="1" leadInLength="0/1"  />
            <Keyframe id="4255"  time="0/1" value="0" leadInLength="0/1"  />
            <Keyframe id="4256"  time="8952/1" value="0" leadInLength="0/1"  />
            <Keyframe id="4257"  time="8953/1" value="1" leadInLength="0/1"  />
            </Keyframes>
           </InterpolatingParam>
           <Parameter id="4258"  name="captions"/>
          </Parameters>
          <Attributes>
           <Attribute id="4259" value="" name="ident"/>
           <Attribute id="4260" value="44100" name="sampleRate"/>
           <Attribute id="4261" value="16" name="bitDepth"/>
           <Attribute id="4262" value="1" name="gain"/>
           <Attribute id="4263" value="0" name="mixToMono"/>
          </Attributes>
         </AMFile>
         <VMFile id="4264" start="7717" duration="49" scalar="360841/643670" mediaStart="2754074372/360841" mediaDuration="31539830/360841" trackNumber="0" src="21" >
          <Transformer>
           <VectorParam id="4265"  name="translation">
            <InterpolatingParam id="4266" interp="linr"  time="-9999999/1" value="0" leadInLength="0/1"  />
            <InterpolatingParam id="4267" interp="linr"  time="-9999999/1" value="0" leadInLength="0/1"  />
            <InterpolatingParam id="4268" interp="linr"  time="-9999999/1" value="0" leadInLength="0/1"  />
           </VectorParam>
           <VectorParam id="4269"  name="rotation">
            <InterpolatingParam id="4270" interp="linr"  time="-9999999/1" value="0" leadInLength="0/1"  />
            <InterpolatingParam id="4271" interp="linr"  time="-9999999/1" value="0" leadInLength="0/1"  />
            <InterpolatingParam id="4272" interp="linr"  time="-9999999/1" value="0" leadInLength="0/1"  />
           </VectorParam>
           <VectorParam id="4273"  name="shear">
            <InterpolatingParam id="4274" interp="linr"  time="-9999999/1" value="0" leadInLength="0/1"  />
            <InterpolatingParam id="4275" interp="linr"  time="-9999999/1" value="0" leadInLength="0/1"  />
            <InterpolatingParam id="4276" interp="linr"  time="-9999999/1" value="0" leadInLength="0/1"  />
           </VectorParam>
           <VectorParam id="4277"  name="scale">
            <InterpolatingParam id="4278" interp="linr"  time="-9999999/1" value="1" leadInLength="0/1"  />
            <InterpolatingParam id="4279" interp="linr"  time="-9999999/1" value="1" leadInLength="0/1"  />
            <InterpolatingParam id="4280" interp="linr"  time="-9999999/1" value="1" leadInLength="0/1"  />
           </VectorParam>
           <VectorParam id="4281"  name="anchor">
            <InterpolatingParam id="4282" interp="linr"  time="0/1" value="0" leadInLength="0/1"  />
            <InterpolatingParam id="4283" interp="linr"  time="0/1" value="0" leadInLength="0/1"  />
            <InterpolatingParam id="4284" interp="linr"  time="0/1" value="0" leadInLength="0/1"  />
           </VectorParam>
          </Transformer>
          <Parameters>
           <VectorParam id="4285"  name="sourceCrop">
            <InterpolatingParam id="4286" interp="linr"  time="0/1" value="0" leadInLength="0/1"  />
            <InterpolatingParam id="4287" interp="linr"  time="0/1" value="0" leadInLength="0/1"  />
            <InterpolatingParam id="4288" interp="linr"  time="0/1" value="0" leadInLength="0/1"  />
            <InterpolatingParam id="4289" interp="linr"  time="0/1" value="0" leadInLength="0/1"  />
           </VectorParam>
           <VectorParam id="4290"  name="geometryCrop">
            <InterpolatingParam id="4291" interp="linr"  time="-9999999/1" value="0" leadInLength="0/1"  />
            <InterpolatingParam id="4292" interp="linr"  time="-9999999/1" value="0" leadInLength="0/1"  />
            <InterpolatingParam id="4293" interp="linr"  time="-9999999/1" value="0" leadInLength="0/1"  />
            <InterpolatingParam id="4294" interp="linr"  time="-9999999/1" value="0" leadInLength="0/1"  />
           </VectorParam>
           <InterpolatingParam id="4295" interp="linr"  time="-9999999/1" value="1" leadInLength="0/1"  name="opacity"/>
          </Parameters>
          <Attributes>
           <Attribute id="4296" value="" name="ident"/>
          </Attributes>
          <ExtraData>
           <Entry key="ZoomPanBin">
            <ZoomPanBin id="4297"  >
             <ZoomPanKeyframes>
              <ZoomPanKeyframe id="4298" timeRangeEnd="-9999999/1" timeRangeDuration="0/1" interpolaterName="linr"  />
             </ZoomPanKeyframes>
            </ZoomPanBin>
           </Entry>
          </ExtraData>
         </VMFile>
         <MetaData>
          <entry key="WinSubProjectDisplayName" val=""/>
         </MetaData>
        </UnifiedMedia>
        <UnifiedMedia id="4299"  >
         <AMFile id="4300" start="7766" duration="15" scalar="360841/643670" mediaStart="2785614202/360841" mediaDuration="9655050/360841" trackNumber="1" src="21" channelNumber="0,1" >
          <Parameters>
           <InterpolatingParam id="4301" interp="linr"  name="volume">
            <Keyframes>
            <Keyframe id="4302"  time="-1/1" value="1" leadInLength="0/1"  />
            <Keyframe id="4303"  time="0/1" value="0" leadInLength="0/1"  />
            <Keyframe id="4304"  time="8952/1" value="0" leadInLength="0/1"  />
            <Keyframe id="4305"  time="8953/1" value="1" leadInLength="0/1"  />
            </Keyframes>
           </InterpolatingParam>
           <Parameter id="4306"  name="captions"/>
          </Parameters>
          <Attributes>
           <Attribute id="4307" value="" name="ident"/>
           <Attribute id="4308" value="44100" name="sampleRate"/>
           <Attribute id="4309" value="16" name="bitDepth"/>
           <Attribute id="4310" value="1" name="gain"/>
           <Attribute id="4311" value="0" name="mixToMono"/>
          </Attributes>
         </AMFile>
         <VMFile id="4312" start="7766" duration="15" scalar="360841/643670" mediaStart="2785614202/360841" mediaDuration="9655050/360841" trackNumber="0" src="21" >
          <Transformer>
           <VectorParam id="4313"  name="translation">
            <InterpolatingParam id="4314" interp="linr"  time="-9999999/1" value="0" leadInLength="0/1"  />
            <InterpolatingParam id="4315" interp="linr"  time="-9999999/1" value="0" leadInLength="0/1"  />
            <InterpolatingParam id="4316" interp="linr"  time="-9999999/1" value="0" leadInLength="0/1"  />
           </VectorParam>
           <VectorParam id="4317"  name="rotation">
            <InterpolatingParam id="4318" interp="linr"  time="-9999999/1" value="0" leadInLength="0/1"  />
            <InterpolatingParam id="4319" interp="linr"  time="-9999999/1" value="0" leadInLength="0/1"  />
            <InterpolatingParam id="4320" interp="linr"  time="-9999999/1" value="0" leadInLength="0/1"  />
           </VectorParam>
           <VectorParam id="4321"  name="shear">
            <InterpolatingParam id="4322" interp="linr"  time="-9999999/1" value="0" leadInLength="0/1"  />
            <InterpolatingParam id="4323" interp="linr"  time="-9999999/1" value="0" leadInLength="0/1"  />
            <InterpolatingParam id="4324" interp="linr"  time="-9999999/1" value="0" leadInLength="0/1"  />
           </VectorParam>
           <VectorParam id="4325"  name="scale">
            <InterpolatingParam id="4326" interp="linr"  time="-9999999/1" value="1" leadInLength="0/1"  />
            <InterpolatingParam id="4327" interp="linr"  time="-9999999/1" value="1" leadInLength="0/1"  />
            <InterpolatingParam id="4328" interp="linr"  time="-9999999/1" value="1" leadInLength="0/1"  />
           </VectorParam>
           <VectorParam id="4329"  name="anchor">
            <InterpolatingParam id="4330" interp="linr"  time="0/1" value="0" leadInLength="0/1"  />
            <InterpolatingParam id="4331" interp="linr"  time="0/1" value="0" leadInLength="0/1"  />
            <InterpolatingParam id="4332" interp="linr"  time="0/1" value="0" leadInLength="0/1"  />
           </VectorParam>
          </Transformer>
          <Parameters>
           <VectorParam id="4333"  name="sourceCrop">
            <InterpolatingParam id="4334" interp="linr"  time="0/1" value="0" leadInLength="0/1"  />
            <InterpolatingParam id="4335" interp="linr"  time="0/1" value="0" leadInLength="0/1"  />
            <InterpolatingParam id="4336" interp="linr"  time="0/1" value="0" leadInLength="0/1"  />
            <InterpolatingParam id="4337" interp="linr"  time="0/1" value="0" leadInLength="0/1"  />
           </VectorParam>
           <VectorParam id="4338"  name="geometryCrop">
            <InterpolatingParam id="4339" interp="linr"  time="-9999999/1" value="0" leadInLength="0/1"  />
            <InterpolatingParam id="4340" interp="linr"  time="-9999999/1" value="0" leadInLength="0/1"  />
            <InterpolatingParam id="4341" interp="linr"  time="-9999999/1" value="0" leadInLength="0/1"  />
            <InterpolatingParam id="4342" interp="linr"  time="-9999999/1" value="0" leadInLength="0/1"  />
           </VectorParam>
           <InterpolatingParam id="4343" interp="linr"  time="-9999999/1" value="1" leadInLength="0/1"  name="opacity"/>
          </Parameters>
          <Attributes>
           <Attribute id="4344" value="" name="ident"/>
          </Attributes>
          <ExtraData>
           <Entry key="ZoomPanBin">
            <ZoomPanBin id="4345"  >
             <ZoomPanKeyframes>
              <ZoomPanKeyframe id="4346" timeRangeEnd="-9999999/1" timeRangeDuration="0/1" interpolaterName="linr"  />
             </ZoomPanKeyframes>
            </ZoomPanBin>
           </Entry>
          </ExtraData>
         </VMFile>
         <MetaData>
          <entry key="WinSubProjectDisplayName" val=""/>
         </MetaData>
        </UnifiedMedia>
        <UnifiedMedia id="4347"  >
         <AMFile id="4348" start="7781" duration="50" scalar="1804205/2317212" mediaStart="2804280632/360841" mediaDuration="23172120/360841" trackNumber="1" src="21" channelNumber="0,1" >
          <Parameters>
           <InterpolatingParam id="4349" interp="linr"  name="volume">
            <Keyframes>
            <Keyframe id="4350"  time="-1/1" value="1" leadInLength="0/1"  />
            <Keyframe id="4351"  time="0/1" value="0" leadInLength="0/1"  />
            <Keyframe id="4352"  time="8952/1" value="0" leadInLength="0/1"  />
            <Keyframe id="4353"  time="8953/1" value="1" leadInLength="0/1"  />
            </Keyframes>
           </InterpolatingParam>
           <Parameter id="4354"  name="captions"/>
          </Parameters>
          <Attributes>
           <Attribute id="4355" value="" name="ident"/>
           <Attribute id="4356" value="44100" name="sampleRate"/>
           <Attribute id="4357" value="16" name="bitDepth"/>
           <Attribute id="4358" value="1" name="gain"/>
           <Attribute id="4359" value="0" name="mixToMono"/>
          </Attributes>
         </AMFile>
         <VMFile id="4360" start="7781" duration="50" scalar="1804205/2317212" mediaStart="2804280632/360841" mediaDuration="23172120/360841" trackNumber="0" src="21" >
          <Transformer>
           <VectorParam id="4361"  name="translation">
            <InterpolatingParam id="4362" interp="linr"  time="-9999999/1" value="0" leadInLength="0/1"  />
            <InterpolatingParam id="4363" interp="linr"  time="-9999999/1" value="0" leadInLength="0/1"  />
            <InterpolatingParam id="4364" interp="linr"  time="-9999999/1" value="0" leadInLength="0/1"  />
           </VectorParam>
           <VectorParam id="4365"  name="rotation">
            <InterpolatingParam id="4366" interp="linr"  time="-9999999/1" value="0" leadInLength="0/1"  />
            <InterpolatingParam id="4367" interp="linr"  time="-9999999/1" value="0" leadInLength="0/1"  />
            <InterpolatingParam id="4368" interp="linr"  time="-9999999/1" value="0" leadInLength="0/1"  />
           </VectorParam>
           <VectorParam id="4369"  name="shear">
            <InterpolatingParam id="4370" interp="linr"  time="-9999999/1" value="0" leadInLength="0/1"  />
            <InterpolatingParam id="4371" interp="linr"  time="-9999999/1" value="0" leadInLength="0/1"  />
            <InterpolatingParam id="4372" interp="linr"  time="-9999999/1" value="0" leadInLength="0/1"  />
           </VectorParam>
           <VectorParam id="4373"  name="scale">
            <InterpolatingParam id="4374" interp="linr"  time="-9999999/1" value="1" leadInLength="0/1"  />
            <InterpolatingParam id="4375" interp="linr"  time="-9999999/1" value="1" leadInLength="0/1"  />
            <InterpolatingParam id="4376" interp="linr"  time="-9999999/1" value="1" leadInLength="0/1"  />
           </VectorParam>
           <VectorParam id="4377"  name="anchor">
            <InterpolatingParam id="4378" interp="linr"  time="0/1" value="0" leadInLength="0/1"  />
            <InterpolatingParam id="4379" interp="linr"  time="0/1" value="0" leadInLength="0/1"  />
            <InterpolatingParam id="4380" interp="linr"  time="0/1" value="0" leadInLength="0/1"  />
           </VectorParam>
          </Transformer>
          <Parameters>
           <VectorParam id="4381"  name="sourceCrop">
            <InterpolatingParam id="4382" interp="linr"  time="0/1" value="0" leadInLength="0/1"  />
            <InterpolatingParam id="4383" interp="linr"  time="0/1" value="0" leadInLength="0/1"  />
            <InterpolatingParam id="4384" interp="linr"  time="0/1" value="0" leadInLength="0/1"  />
            <InterpolatingParam id="4385" interp="linr"  time="0/1" value="0" leadInLength="0/1"  />
           </VectorParam>
           <VectorParam id="4386"  name="geometryCrop">
            <InterpolatingParam id="4387" interp="linr"  time="-9999999/1" value="0" leadInLength="0/1"  />
            <InterpolatingParam id="4388" interp="linr"  time="-9999999/1" value="0" leadInLength="0/1"  />
            <InterpolatingParam id="4389" interp="linr"  time="-9999999/1" value="0" leadInLength="0/1"  />
            <InterpolatingParam id="4390" interp="linr"  time="-9999999/1" value="0" leadInLength="0/1"  />
           </VectorParam>
           <InterpolatingParam id="4391" interp="linr"  time="-9999999/1" value="1" leadInLength="0/1"  name="opacity"/>
          </Parameters>
          <Attributes>
           <Attribute id="4392" value="" name="ident"/>
          </Attributes>
          <ExtraData>
           <Entry key="ZoomPanBin">
            <ZoomPanBin id="4393"  >
             <ZoomPanKeyframes>
              <ZoomPanKeyframe id="4394" timeRangeEnd="-9999999/1" timeRangeDuration="0/1" interpolaterName="linr"  />
             </ZoomPanKeyframes>
            </ZoomPanBin>
           </Entry>
          </ExtraData>
         </VMFile>
         <MetaData>
          <entry key="WinSubProjectDisplayName" val=""/>
         </MetaData>
        </UnifiedMedia>
        <UnifiedMedia id="4395"  >
         <AMFile id="4396" start="7831" duration="44" scalar="360841/643670" mediaStart="2827452752/360841" mediaDuration="28321480/360841" trackNumber="1" src="21" channelNumber="0,1" >
          <Parameters>
           <InterpolatingParam id="4397" interp="linr"  name="volume">
            <Keyframes>
            <Keyframe id="4398"  time="-1/1" value="1" leadInLength="0/1"  />
            <Keyframe id="4399"  time="0/1" value="0" leadInLength="0/1"  />
            <Keyframe id="4400"  time="8952/1" value="0" leadInLength="0/1"  />
            <Keyframe id="4401"  time="8953/1" value="1" leadInLength="0/1"  />
            </Keyframes>
           </InterpolatingParam>
           <Parameter id="4402"  name="captions"/>
          </Parameters>
          <Attributes>
           <Attribute id="4403" value="" name="ident"/>
           <Attribute id="4404" value="44100" name="sampleRate"/>
           <Attribute id="4405" value="16" name="bitDepth"/>
           <Attribute id="4406" value="1" name="gain"/>
           <Attribute id="4407" value="0" name="mixToMono"/>
          </Attributes>
         </AMFile>
         <VMFile id="4408" start="7831" duration="44" scalar="360841/643670" mediaStart="2827452752/360841" mediaDuration="28321480/360841" trackNumber="0" src="21" >
          <Transformer>
           <VectorParam id="4409"  name="translation">
            <InterpolatingParam id="4410" interp="linr"  time="-9999999/1" value="0" leadInLength="0/1"  />
            <InterpolatingParam id="4411" interp="linr"  time="-9999999/1" value="0" leadInLength="0/1"  />
            <InterpolatingParam id="4412" interp="linr"  time="-9999999/1" value="0" leadInLength="0/1"  />
           </VectorParam>
           <VectorParam id="4413"  name="rotation">
            <InterpolatingParam id="4414" interp="linr"  time="-9999999/1" value="0" leadInLength="0/1"  />
            <InterpolatingParam id="4415" interp="linr"  time="-9999999/1" value="0" leadInLength="0/1"  />
            <InterpolatingParam id="4416" interp="linr"  time="-9999999/1" value="0" leadInLength="0/1"  />
           </VectorParam>
           <VectorParam id="4417"  name="shear">
            <InterpolatingParam id="4418" interp="linr"  time="-9999999/1" value="0" leadInLength="0/1"  />
            <InterpolatingParam id="4419" interp="linr"  time="-9999999/1" value="0" leadInLength="0/1"  />
            <InterpolatingParam id="4420" interp="linr"  time="-9999999/1" value="0" leadInLength="0/1"  />
           </VectorParam>
           <VectorParam id="4421"  name="scale">
            <InterpolatingParam id="4422" interp="linr"  time="-9999999/1" value="1" leadInLength="0/1"  />
            <InterpolatingParam id="4423" interp="linr"  time="-9999999/1" value="1" leadInLength="0/1"  />
            <InterpolatingParam id="4424" interp="linr"  time="-9999999/1" value="1" leadInLength="0/1"  />
           </VectorParam>
           <VectorParam id="4425"  name="anchor">
            <InterpolatingParam id="4426" interp="linr"  time="0/1" value="0" leadInLength="0/1"  />
            <InterpolatingParam id="4427" interp="linr"  time="0/1" value="0" leadInLength="0/1"  />
            <InterpolatingParam id="4428" interp="linr"  time="0/1" value="0" leadInLength="0/1"  />
           </VectorParam>
          </Transformer>
          <Parameters>
           <VectorParam id="4429"  name="sourceCrop">
            <InterpolatingParam id="4430" interp="linr"  time="0/1" value="0" leadInLength="0/1"  />
            <InterpolatingParam id="4431" interp="linr"  time="0/1" value="0" leadInLength="0/1"  />
            <InterpolatingParam id="4432" interp="linr"  time="0/1" value="0" leadInLength="0/1"  />
            <InterpolatingParam id="4433" interp="linr"  time="0/1" value="0" leadInLength="0/1"  />
           </VectorParam>
           <VectorParam id="4434"  name="geometryCrop">
            <InterpolatingParam id="4435" interp="linr"  time="-9999999/1" value="0" leadInLength="0/1"  />
            <InterpolatingParam id="4436" interp="linr"  time="-9999999/1" value="0" leadInLength="0/1"  />
            <InterpolatingParam id="4437" interp="linr"  time="-9999999/1" value="0" leadInLength="0/1"  />
            <InterpolatingParam id="4438" interp="linr"  time="-9999999/1" value="0" leadInLength="0/1"  />
           </VectorParam>
           <InterpolatingParam id="4439" interp="linr"  time="-9999999/1" value="1" leadInLength="0/1"  name="opacity"/>
          </Parameters>
          <Attributes>
           <Attribute id="4440" value="" name="ident"/>
          </Attributes>
          <ExtraData>
           <Entry key="ZoomPanBin">
            <ZoomPanBin id="4441"  >
             <ZoomPanKeyframes>
              <ZoomPanKeyframe id="4442" timeRangeEnd="-9999999/1" timeRangeDuration="0/1" interpolaterName="linr"  />
             </ZoomPanKeyframes>
            </ZoomPanBin>
           </Entry>
          </ExtraData>
         </VMFile>
         <MetaData>
          <entry key="WinSubProjectDisplayName" val=""/>
         </MetaData>
        </UnifiedMedia>
        <UnifiedMedia id="4443"  >
         <AMFile id="4444" start="7875" duration="160" scalar="5773456/8432077" mediaStart="2874440662/360841" mediaDuration="84320770/360841" trackNumber="1" src="21" channelNumber="0,1" >
          <Parameters>
           <InterpolatingParam id="4445" interp="linr"  name="volume">
            <Keyframes>
            <Keyframe id="4446"  time="-1/1" value="1" leadInLength="0/1"  />
            <Keyframe id="4447"  time="0/1" value="0" leadInLength="0/1"  />
            <Keyframe id="4448"  time="8952/1" value="0" leadInLength="0/1"  />
            <Keyframe id="4449"  time="8953/1" value="1" leadInLength="0/1"  />
            </Keyframes>
           </InterpolatingParam>
           <Parameter id="4450"  name="captions"/>
          </Parameters>
          <Attributes>
           <Attribute id="4451" value="" name="ident"/>
           <Attribute id="4452" value="44100" name="sampleRate"/>
           <Attribute id="4453" value="16" name="bitDepth"/>
           <Attribute id="4454" value="1" name="gain"/>
           <Attribute id="4455" value="0" name="mixToMono"/>
          </Attributes>
         </AMFile>
         <VMFile id="4456" start="7875" duration="160" scalar="5773456/8432077" mediaStart="2874440662/360841" mediaDuration="84320770/360841" trackNumber="0" src="21" >
          <Transformer>
           <VectorParam id="4457"  name="translation">
            <InterpolatingParam id="4458" interp="linr"  time="-9999999/1" value="0" leadInLength="0/1"  />
            <InterpolatingParam id="4459" interp="linr"  time="-9999999/1" value="0" leadInLength="0/1"  />
            <InterpolatingParam id="4460" interp="linr"  time="-9999999/1" value="0" leadInLength="0/1"  />
           </VectorParam>
           <VectorParam id="4461"  name="rotation">
            <InterpolatingParam id="4462" interp="linr"  time="-9999999/1" value="0" leadInLength="0/1"  />
            <InterpolatingParam id="4463" interp="linr"  time="-9999999/1" value="0" leadInLength="0/1"  />
            <InterpolatingParam id="4464" interp="linr"  time="-9999999/1" value="0" leadInLength="0/1"  />
           </VectorParam>
           <VectorParam id="4465"  name="shear">
            <InterpolatingParam id="4466" interp="linr"  time="-9999999/1" value="0" leadInLength="0/1"  />
            <InterpolatingParam id="4467" interp="linr"  time="-9999999/1" value="0" leadInLength="0/1"  />
            <InterpolatingParam id="4468" interp="linr"  time="-9999999/1" value="0" leadInLength="0/1"  />
           </VectorParam>
           <VectorParam id="4469"  name="scale">
            <InterpolatingParam id="4470" interp="linr"  time="-9999999/1" value="1" leadInLength="0/1"  />
            <InterpolatingParam id="4471" interp="linr"  time="-9999999/1" value="1" leadInLength="0/1"  />
            <InterpolatingParam id="4472" interp="linr"  time="-9999999/1" value="1" leadInLength="0/1"  />
           </VectorParam>
           <VectorParam id="4473"  name="anchor">
            <InterpolatingParam id="4474" interp="linr"  time="0/1" value="0" leadInLength="0/1"  />
            <InterpolatingParam id="4475" interp="linr"  time="0/1" value="0" leadInLength="0/1"  />
            <InterpolatingParam id="4476" interp="linr"  time="0/1" value="0" leadInLength="0/1"  />
           </VectorParam>
          </Transformer>
          <Parameters>
           <VectorParam id="4477"  name="sourceCrop">
            <InterpolatingParam id="4478" interp="linr"  time="0/1" value="0" leadInLength="0/1"  />
            <InterpolatingParam id="4479" interp="linr"  time="0/1" value="0" leadInLength="0/1"  />
            <InterpolatingParam id="4480" interp="linr"  time="0/1" value="0" leadInLength="0/1"  />
            <InterpolatingParam id="4481" interp="linr"  time="0/1" value="0" leadInLength="0/1"  />
           </VectorParam>
           <VectorParam id="4482"  name="geometryCrop">
            <InterpolatingParam id="4483" interp="linr"  time="-9999999/1" value="0" leadInLength="0/1"  />
            <InterpolatingParam id="4484" interp="linr"  time="-9999999/1" value="0" leadInLength="0/1"  />
            <InterpolatingParam id="4485" interp="linr"  time="-9999999/1" value="0" leadInLength="0/1"  />
            <InterpolatingParam id="4486" interp="linr"  time="-9999999/1" value="0" leadInLength="0/1"  />
           </VectorParam>
           <InterpolatingParam id="4487" interp="linr"  time="-9999999/1" value="1" leadInLength="0/1"  name="opacity"/>
          </Parameters>
          <Attributes>
           <Attribute id="4488" value="" name="ident"/>
          </Attributes>
          <ExtraData>
           <Entry key="ZoomPanBin">
            <ZoomPanBin id="4489"  >
             <ZoomPanKeyframes>
              <ZoomPanKeyframe id="4490" timeRangeEnd="-9999999/1" timeRangeDuration="0/1" interpolaterName="linr"  />
             </ZoomPanKeyframes>
            </ZoomPanBin>
           </Entry>
          </ExtraData>
         </VMFile>
         <MetaData>
          <entry key="WinSubProjectDisplayName" val=""/>
         </MetaData>
        </UnifiedMedia>
        <UnifiedMedia id="4491"  >
         <AMFile id="4492" start="8035" duration="228" scalar="360841/357220" mediaStart="2958761432/360841" mediaDuration="81446160/360841" trackNumber="1" src="21" channelNumber="0,1" >
          <Parameters>
           <InterpolatingParam id="4493" interp="linr"  name="volume">
            <Keyframes>
            <Keyframe id="4494"  time="-1/1" value="1" leadInLength="0/1"  />
            <Keyframe id="4495"  time="0/1" value="0" leadInLength="0/1"  />
            <Keyframe id="4496"  time="8952/1" value="0" leadInLength="0/1"  />
            <Keyframe id="4497"  time="8953/1" value="1" leadInLength="0/1"  />
            </Keyframes>
           </InterpolatingParam>
           <Parameter id="4498"  name="captions"/>
          </Parameters>
          <Attributes>
           <Attribute id="4499" value="" name="ident"/>
           <Attribute id="4500" value="44100" name="sampleRate"/>
           <Attribute id="4501" value="16" name="bitDepth"/>
           <Attribute id="4502" value="1" name="gain"/>
           <Attribute id="4503" value="0" name="mixToMono"/>
          </Attributes>
         </AMFile>
         <VMFile id="4504" start="8035" duration="228" scalar="360841/357220" mediaStart="2958761432/360841" mediaDuration="81446160/360841" trackNumber="0" src="21" >
          <Transformer>
           <VectorParam id="4505"  name="translation">
            <InterpolatingParam id="4506" interp="linr"  time="-9999999/1" value="0" leadInLength="0/1"  />
            <InterpolatingParam id="4507" interp="linr"  time="-9999999/1" value="0" leadInLength="0/1"  />
            <InterpolatingParam id="4508" interp="linr"  time="-9999999/1" value="0" leadInLength="0/1"  />
           </VectorParam>
           <VectorParam id="4509"  name="rotation">
            <InterpolatingParam id="4510" interp="linr"  time="-9999999/1" value="0" leadInLength="0/1"  />
            <InterpolatingParam id="4511" interp="linr"  time="-9999999/1" value="0" leadInLength="0/1"  />
            <InterpolatingParam id="4512" interp="linr"  time="-9999999/1" value="0" leadInLength="0/1"  />
           </VectorParam>
           <VectorParam id="4513"  name="shear">
            <InterpolatingParam id="4514" interp="linr"  time="-9999999/1" value="0" leadInLength="0/1"  />
            <InterpolatingParam id="4515" interp="linr"  time="-9999999/1" value="0" leadInLength="0/1"  />
            <InterpolatingParam id="4516" interp="linr"  time="-9999999/1" value="0" leadInLength="0/1"  />
           </VectorParam>
           <VectorParam id="4517"  name="scale">
            <InterpolatingParam id="4518" interp="linr"  time="-9999999/1" value="1" leadInLength="0/1"  />
            <InterpolatingParam id="4519" interp="linr"  time="-9999999/1" value="1" leadInLength="0/1"  />
            <InterpolatingParam id="4520" interp="linr"  time="-9999999/1" value="1" leadInLength="0/1"  />
           </VectorParam>
           <VectorParam id="4521"  name="anchor">
            <InterpolatingParam id="4522" interp="linr"  time="0/1" value="0" leadInLength="0/1"  />
            <InterpolatingParam id="4523" interp="linr"  time="0/1" value="0" leadInLength="0/1"  />
            <InterpolatingParam id="4524" interp="linr"  time="0/1" value="0" leadInLength="0/1"  />
           </VectorParam>
          </Transformer>
          <Parameters>
           <VectorParam id="4525"  name="sourceCrop">
            <InterpolatingParam id="4526" interp="linr"  time="0/1" value="0" leadInLength="0/1"  />
            <InterpolatingParam id="4527" interp="linr"  time="0/1" value="0" leadInLength="0/1"  />
            <InterpolatingParam id="4528" interp="linr"  time="0/1" value="0" leadInLength="0/1"  />
            <InterpolatingParam id="4529" interp="linr"  time="0/1" value="0" leadInLength="0/1"  />
           </VectorParam>
           <VectorParam id="4530"  name="geometryCrop">
            <InterpolatingParam id="4531" interp="linr"  time="-9999999/1" value="0" leadInLength="0/1"  />
            <InterpolatingParam id="4532" interp="linr"  time="-9999999/1" value="0" leadInLength="0/1"  />
            <InterpolatingParam id="4533" interp="linr"  time="-9999999/1" value="0" leadInLength="0/1"  />
            <InterpolatingParam id="4534" interp="linr"  time="-9999999/1" value="0" leadInLength="0/1"  />
           </VectorParam>
           <InterpolatingParam id="4535" interp="linr"  time="-9999999/1" value="1" leadInLength="0/1"  name="opacity"/>
          </Parameters>
          <Attributes>
           <Attribute id="4536" value="" name="ident"/>
          </Attributes>
          <ExtraData>
           <Entry key="ZoomPanBin">
            <ZoomPanBin id="4537"  >
             <ZoomPanKeyframes>
              <ZoomPanKeyframe id="4538" timeRangeEnd="-9999999/1" timeRangeDuration="0/1" interpolaterName="linr"  />
             </ZoomPanKeyframes>
            </ZoomPanBin>
           </Entry>
          </ExtraData>
         </VMFile>
         <MetaData>
          <entry key="WinSubProjectDisplayName" val=""/>
         </MetaData>
        </UnifiedMedia>
        <UnifiedMedia id="4539"  >
         <AMFile id="4540" start="8263" duration="430" scalar="15516163/17075116" mediaStart="3045208672/360841" mediaDuration="170751160/360841" trackNumber="1" src="21" channelNumber="0,1" >
          <Parameters>
           <InterpolatingParam id="4541" interp="linr"  name="volume">
            <Keyframes>
            <Keyframe id="4542"  time="-1/1" value="1" leadInLength="0/1"  />
            <Keyframe id="4543"  time="0/1" value="0" leadInLength="0/1"  />
            <Keyframe id="4544"  time="8952/1" value="0" leadInLength="0/1"  />
            <Keyframe id="4545"  time="8953/1" value="1" leadInLength="0/1"  />
            </Keyframes>
           </InterpolatingParam>
           <Parameter id="4546"  name="captions"/>
          </Parameters>
          <Attributes>
           <Attribute id="4547" value="" name="ident"/>
           <Attribute id="4548" value="44100" name="sampleRate"/>
           <Attribute id="4549" value="16" name="bitDepth"/>
           <Attribute id="4550" value="1" name="gain"/>
           <Attribute id="4551" value="0" name="mixToMono"/>
          </Attributes>
         </AMFile>
         <VMFile id="4552" start="8263" duration="430" scalar="15516163/17075116" mediaStart="3045208672/360841" mediaDuration="170751160/360841" trackNumber="0" src="21" >
          <Transformer>
           <VectorParam id="4553"  name="translation">
            <InterpolatingParam id="4554" interp="linr"  time="-9999999/1" value="0" leadInLength="0/1"  />
            <InterpolatingParam id="4555" interp="linr"  time="-9999999/1" value="0" leadInLength="0/1"  />
            <InterpolatingParam id="4556" interp="linr"  time="-9999999/1" value="0" leadInLength="0/1"  />
           </VectorParam>
           <VectorParam id="4557"  name="rotation">
            <InterpolatingParam id="4558" interp="linr"  time="-9999999/1" value="0" leadInLength="0/1"  />
            <InterpolatingParam id="4559" interp="linr"  time="-9999999/1" value="0" leadInLength="0/1"  />
            <InterpolatingParam id="4560" interp="linr"  time="-9999999/1" value="0" leadInLength="0/1"  />
           </VectorParam>
           <VectorParam id="4561"  name="shear">
            <InterpolatingParam id="4562" interp="linr"  time="-9999999/1" value="0" leadInLength="0/1"  />
            <InterpolatingParam id="4563" interp="linr"  time="-9999999/1" value="0" leadInLength="0/1"  />
            <InterpolatingParam id="4564" interp="linr"  time="-9999999/1" value="0" leadInLength="0/1"  />
           </VectorParam>
           <VectorParam id="4565"  name="scale">
            <InterpolatingParam id="4566" interp="linr"  time="-9999999/1" value="1" leadInLength="0/1"  />
            <InterpolatingParam id="4567" interp="linr"  time="-9999999/1" value="1" leadInLength="0/1"  />
            <InterpolatingParam id="4568" interp="linr"  time="-9999999/1" value="1" leadInLength="0/1"  />
           </VectorParam>
           <VectorParam id="4569"  name="anchor">
            <InterpolatingParam id="4570" interp="linr"  time="0/1" value="0" leadInLength="0/1"  />
            <InterpolatingParam id="4571" interp="linr"  time="0/1" value="0" leadInLength="0/1"  />
            <InterpolatingParam id="4572" interp="linr"  time="0/1" value="0" leadInLength="0/1"  />
           </VectorParam>
          </Transformer>
          <Parameters>
           <VectorParam id="4573"  name="sourceCrop">
            <InterpolatingParam id="4574" interp="linr"  time="0/1" value="0" leadInLength="0/1"  />
            <InterpolatingParam id="4575" interp="linr"  time="0/1" value="0" leadInLength="0/1"  />
            <InterpolatingParam id="4576" interp="linr"  time="0/1" value="0" leadInLength="0/1"  />
            <InterpolatingParam id="4577" interp="linr"  time="0/1" value="0" leadInLength="0/1"  />
           </VectorParam>
           <VectorParam id="4578"  name="geometryCrop">
            <InterpolatingParam id="4579" interp="linr"  time="-9999999/1" value="0" leadInLength="0/1"  />
            <InterpolatingParam id="4580" interp="linr"  time="-9999999/1" value="0" leadInLength="0/1"  />
            <InterpolatingParam id="4581" interp="linr"  time="-9999999/1" value="0" leadInLength="0/1"  />
            <InterpolatingParam id="4582" interp="linr"  time="-9999999/1" value="0" leadInLength="0/1"  />
           </VectorParam>
           <InterpolatingParam id="4583" interp="linr"  time="-9999999/1" value="1" leadInLength="0/1"  name="opacity"/>
          </Parameters>
          <Attributes>
           <Attribute id="4584" value="" name="ident"/>
          </Attributes>
          <ExtraData>
           <Entry key="ZoomPanBin">
            <ZoomPanBin id="4585"  >
             <ZoomPanKeyframes>
              <ZoomPanKeyframe id="4586" timeRangeEnd="-9999999/1" timeRangeDuration="0/1" interpolaterName="linr"  />
             </ZoomPanKeyframes>
            </ZoomPanBin>
           </Entry>
          </ExtraData>
         </VMFile>
         <MetaData>
          <entry key="WinSubProjectDisplayName" val=""/>
         </MetaData>
        </UnifiedMedia>
       </Medias>
      </GenericTrack>
      <GenericTrack id="4587"  >
       <Attributes>
        <Attribute id="4588" value="" name="ident"/>
        <Attribute id="4589" value="0" name="audioMuted"/>
        <Attribute id="4590" value="0" name="videoHidden"/>
       </Attributes>
       <MetaData>
        <entry key="IsLocked" val="False"/>
        <entry key="WinTrackHeight" val="62"/>
       </MetaData>
       <Medias>
        <StitchedMedia id="4591" start="0" duration="70" scalar="1/1" mediaStart="251/1" mediaDuration="70/1" minMediaStart="0/1" >
         <Transformer>
          <VectorParam id="4592"  name="translation">
           <InterpolatingParam id="4593" interp="linr"  time="0/1" value="0" leadInLength="0/1"  />
           <InterpolatingParam id="4594" interp="linr"  time="0/1" value="0" leadInLength="0/1"  />
           <InterpolatingParam id="4595" interp="linr"  time="0/1" value="0" leadInLength="0/1"  />
          </VectorParam>
          <VectorParam id="4596"  name="rotation">
           <InterpolatingParam id="4597" interp="linr"  time="0/1" value="0" leadInLength="0/1"  />
           <InterpolatingParam id="4598" interp="linr"  time="0/1" value="0" leadInLength="0/1"  />
           <InterpolatingParam id="4599" interp="linr"  time="0/1" value="0" leadInLength="0/1"  />
          </VectorParam>
          <VectorParam id="4600"  name="shear">
           <InterpolatingParam id="4601" interp="linr"  time="0/1" value="0" leadInLength="0/1"  />
           <InterpolatingParam id="4602" interp="linr"  time="0/1" value="0" leadInLength="0/1"  />
           <InterpolatingParam id="4603" interp="linr"  time="0/1" value="0" leadInLength="0/1"  />
          </VectorParam>
          <VectorParam id="4604"  name="scale">
           <InterpolatingParam id="4605" interp="linr"  time="0/1" value="1" leadInLength="0/1"  />
           <InterpolatingParam id="4606" interp="linr"  time="0/1" value="1" leadInLength="0/1"  />
           <InterpolatingParam id="4607" interp="linr"  time="0/1" value="1" leadInLength="0/1"  />
          </VectorParam>
          <VectorParam id="4608"  name="anchor">
           <InterpolatingParam id="4609" interp="linr"  time="0/1" value="0" leadInLength="0/1"  />
           <InterpolatingParam id="4610" interp="linr"  time="0/1" value="0" leadInLength="0/1"  />
           <InterpolatingParam id="4611" interp="linr"  time="0/1" value="0" leadInLength="0/1"  />
          </VectorParam>
         </Transformer>
         <Parameters>
          <InterpolatingParam id="4612" interp="linr"  time="0/1" value="1" leadInLength="0/1"  name="cursorOpacity"/>
          <InterpolatingParam id="4613" interp="linr"  time="0/1" value="1" leadInLength="0/1"  name="cursorScale"/>
          <InterpolatingParam id="4614" interp="linr"  name="volume">
           <Keyframes>
           <Keyframe id="4615"  time="0/1" value="1" leadInLength="0/1"  />
           <Keyframe id="4616"  time="250/1" value="1" leadInLength="0/1"  />
           <Keyframe id="4617"  time="251/1" value="0.49627791563275325" leadInLength="0/1"  />
           <Keyframe id="4618"  time="272/1" value="0.86848635235732041" leadInLength="0/1"  />
           <Keyframe id="4619"  time="321/1" value="1.156978601085916" leadInLength="0/1"  />
           <Keyframe id="4620"  time="1888/1" value="0.99255583126550895" leadInLength="0/1"  />
           <Keyframe id="4621"  time="1889/1" value="1" leadInLength="0/1"  />
           </Keyframes>
          </InterpolatingParam>
          <Parameter id="4622"  name="captions"/>
         </Parameters>
         <Effects>
          <GenericEffect id="4623" name = "NoiseReduction" >
           <Parameters>
           <InterpolatingParam id="4624" interp="linr"  time="0/1" value="20" leadInLength="0/1"   name="denoiserAmount"/>
           <InterpolatingParam id="4625" interp="linr"  time="0/1" value="0" leadInLength="0/1"   name="denoiserThreshold"/>
           <Parameter id="4626"   name="noiseProfile">
            <Keyframes>
            <Keyframe id="4627"  time="0/1" value="FBAAAAIAAABErAAAAQIAADOmYsI/y13CPNeLwsehjcK+No/Cm+aOwlHvjcIja5HCun6XwoKemMJy&#xD;&#xa;lpPCuQeRwhgMlcJGdZvCTjScwgFMncIGh5zCGrOawuO0nMJdJZ3Cybudwo6toMIdraPCs/6jwpY0&#xD;&#xa;psLIUqjCWQmpwonmp8KcE6XCgXGlwqC+psIFHabCBoyownWvqcIkX6jCgnCpwms3qsIW0KfCM7Oj&#xD;&#xa;wnGLosJgcKnCdk6swiIgscKFrbDCtNmowrZmpcIHYqjCCg2pwqUNq8KgHq7ChEGxwhVFs8KU6LLC&#xD;&#xa;dvWzwpVHscI6NrDCMpGwwubcs8Imh7bCPKq6wj7tvMKSbr3ClsG+wq4qwMLXQr7CpAK5whxiuMJp&#xD;&#xa;v7nCwu29wloQvsIXTL3CzjDAwsDTwcL69sHC8urAwtAFwMIkSMLCpJHDwjLOw8JG8sTCmMvDwq7H&#xD;&#xa;wsLOncPC+CDDwkh6wsLU5sPCP23Fwm5Qx8KlYsTCm0XCwnhexcLsTsPCSMPDwjvJw8LMWcHC2XHD&#xD;&#xa;wjj5wsICs8TChWvEwgCywcKDdcHCFnHCwurMxMLlVsTCfrDGwmzqyMKoGsfC7ITIwtqRyMJwzcbC&#xD;&#xa;ppbEwiv5xcIXxsTCzDfCwtSExMKEjcTC8ObDwiJ9yMIQm8vCIkDGwqHyxcIyYcbCyAXIwmyBx8I4&#xD;&#xa;n8PCvyPGwuiKxMJggMfCdL3JwsMhysLi6sXCRa7Ewoykx8Jk/MXC0NfEwtK0xcJQTMTCvvvGwtqJ&#xD;&#xa;xMKmFsTCSbfGwq76x8IQ+sjCsqnIwkJdycIaT8fC0nbHwlf2xsLg/cbCtIHHwsTvxsI0KsbCsqDH&#xD;&#xa;wgLix8JGKcXCyNTDwjDwwsIb98bC6MjJwg6Zy8Kg+cvCaC3HwtIgw8KW7sXC3EHGwmcUxcL++8fC&#xD;&#xa;CWbIwsDoxsJFz8PCJkXFwiD7xcIQDsfC8ljIwrDLxMKkeMLClpHEwiqgyMJcjcjC6krGwl50w8Iy&#xD;&#xa;7sXCWv3HwkQ1xsKUwMPC2K/EwootxMJUqMTCH3LDwuojxcKil8fCjmXIwkLJxcID78TClTvGwhel&#xD;&#xa;xsIca8bC1rbCwk6+wsIQfsfCIlPHwpJExcLWhMbCDNvEwuryxMKklMXCeBDDwolhwcIiasLCQYfE&#xD;&#xa;whUfwsJx4MTCsEnIwkX0xcK+3sbCIqLHwrARx8IWtMTCGAnFwomNxMLfbcTCQIPDwjqww8L+MMTC&#xD;&#xa;mqjHwrBaxMI6YsTCxmvIwqyKycKQaMXCnx7FwkYvx8In6sjCGMzIwuvAxcL8a8XCiBjJwkvwyMKI&#xD;&#xa;qMbCTCTIwvQSy8IxEsvCVT/JwrI3w8LA8sLCCD7EwsxXxMJSjsXCfjXFwqTKxMI/gsPCDozDwtwF&#xD;&#xa;xMISn8bChHvJwlFQyMJYCsbCP4jIwtkBycLiFsrCbCrKwvyTysIWncnC+A3HwuI5x8I8/MbC0hHI&#xD;&#xa;wopJzMLmb83CFkvMwpy/y8Kn7MrCfJrJwuLDyMJKn8bCStTGwpb7ycIMo8nCcivFwsapxcJkx8bC&#xD;&#xa;ALLIwriaycJM3cfC8r/KwlSoy8I4A8vCpFHJwkRrzMIKr87CWD7MwsiJycKW9cfCUjbKwq+YycLi&#xD;&#xa;U8jCROHHwhdWycKaU8nCF7jMwmKaz8L//8zC8tjOwjxezsIUysvCzHLJwiJryMLRm8bCgLjKwsi8&#xD;&#xa;ysIhfszCPETLwqtbyMJGeMfCpRPJwnwZzMJSIs3CqhPMwmDiyMLZYsjCz13KwgwKy8LCi8jCyrTM&#xD;&#xa;wgwxzMK4ZcvC087JwkV2xsLyXsnCjIbLwhwvzcLfrM7CeITKwla3ysLK3cnC/PHFwpScxcIUQ8nC&#xD;&#xa;NJzIwrEsxsJvZcfCXSvIwlKLx8JII8nCvgzKwpnhysJSC8vC9iTKwiA/y8IadczCuDrMwuVaysLO&#xD;&#xa;r8vCXtfJwrZ6ycItucnCtonJwjyTysJkC83CL0nMwkjdyMIBucfCixrLwvSDysKGX8nCsCzMwuas&#xD;&#xa;0cIsnNPCuEvOwtr5y8LMBc7Cr+PTwsQc5MLcOfPCKOj0wjr59cJ0C/fCzg75wkwh+8LmVPnCqz72&#xD;&#xa;wnB+9cLuJvrCtEL4wkp7+MLOfffCDN3zwkaz9sLi8vjCFKr6wgIQ+cI8iPjCBpT4wvR1+MLQI/rC&#xD;&#xa;Ihn8wlQg+sIcLvjCVCz2wsI49MJQ9fbC23H3woy69sL4BfnCIOb2wjwy9cIuGvnCdmb3wj7K9MI+&#xD;&#xa;KPXCJpr2wn7C9cKQDvnCthv7woaP+cLGaPbCTr32wrpN+cIFSPjCDvX4wtD39sJY//TCKGf3wvZI&#xD;&#xa;+cK9YvfCgYf3wjIf+sLMMvfCpjz2wuA6+cII8vbCxDv1wmJG9sLka/rCPrT1wi589cLqjfbC9qP4&#xD;&#xa;wgzJ+MLelPbCGir2wlBC9sKeU/jC/nn3wsYn9sL4QPjCXBj5wopQ+MIaJvnCSB36wgjc+MIMfPfC&#xD;&#xa;W+z1wmYG+MKuxPnCCuD1wjh+9sLDrPfCOPj3wm7h+MJjMvfCxH/2wsXf98KwN/nCKOn5wrLR+sKg&#xD;&#xa;bPvCkFv5wsAu+cL2hffCySz2wmRX+MKiiPjCzFX4wvjB98Jgz/fCxPT4wobP+cL8avjC9r34wnKx&#xD;&#xa;+MK+LPnC3H34wle39cKejfbCNKP2wg5B9sK0H/rCSvz2woqE98JAqfjCBPL4wmKi+MIu2/jCMFD5&#xD;&#xa;wiCM+cKo//nCGqz7wlZN+sKUDfjC0ov4wrIU+sIVpffCP2/3woye98KktPbCTJj2wpH29cL3mvbC&#xD;&#xa;jL/4wti/+MLm3vjCQ9QEwzOmYsI/y13CPNeLwsehjcK+No/Cm+aOwlHvjcIja5HCun6XwoKemMJy&#xD;&#xa;lpPCuQeRwhgMlcJGdZvCTjScwgFMncIGh5zCGrOawuO0nMJdJZ3Cybudwo6toMIdraPCs/6jwpY0&#xD;&#xa;psLIUqjCWQmpwonmp8KcE6XCgXGlwqC+psIFHabCBoyownWvqcIkX6jCgnCpwms3qsIW0KfCM7Oj&#xD;&#xa;wnGLosJgcKnCdk6swiIgscKFrbDCtNmowrZmpcIHYqjCCg2pwqUNq8KgHq7ChEGxwhVFs8KU6LLC&#xD;&#xa;dvWzwpVHscI6NrDCMpGwwubcs8Imh7bCPKq6wj7tvMKSbr3ClsG+wq4qwMLXQr7CpAK5whxiuMJp&#xD;&#xa;v7nCwu29wloQvsIXTL3CzjDAwsDTwcL69sHC8urAwtAFwMIkSMLCpJHDwjLOw8JG8sTCmMvDwq7H&#xD;&#xa;wsLOncPC+CDDwkh6wsLU5sPCP23Fwm5Qx8KlYsTCm0XCwnhexcLsTsPCSMPDwjvJw8LMWcHC2XHD&#xD;&#xa;wjj5wsICs8TChWvEwgCywcKDdcHCFnHCwurMxMLlVsTCfrDGwmzqyMKoGsfC7ITIwtqRyMJwzcbC&#xD;&#xa;ppbEwiv5xcIXxsTCzDfCwtSExMKEjcTC8ObDwiJ9yMIQm8vCIkDGwqHyxcIyYcbCyAXIwmyBx8I4&#xD;&#xa;n8PCvyPGwuiKxMJggMfCdL3JwsMhysLi6sXCRa7Ewoykx8Jk/MXC0NfEwtK0xcJQTMTCvvvGwtqJ&#xD;&#xa;xMKmFsTCSbfGwq76x8IQ+sjCsqnIwkJdycIaT8fC0nbHwlf2xsLg/cbCtIHHwsTvxsI0KsbCsqDH&#xD;&#xa;wgLix8JGKcXCyNTDwjDwwsIb98bC6MjJwg6Zy8Kg+cvCaC3HwtIgw8KW7sXC3EHGwmcUxcL++8fC&#xD;&#xa;CWbIwsDoxsJFz8PCJkXFwiD7xcIQDsfC8ljIwrDLxMKkeMLClpHEwiqgyMJcjcjC6krGwl50w8Iy&#xD;&#xa;7sXCWv3HwkQ1xsKUwMPC2K/EwootxMJUqMTCH3LDwuojxcKil8fCjmXIwkLJxcID78TClTvGwhel&#xD;&#xa;xsIca8bC1rbCwk6+wsIQfsfCIlPHwpJExcLWhMbCDNvEwuryxMKklMXCeBDDwolhwcIiasLCQYfE&#xD;&#xa;whUfwsJx4MTCsEnIwkX0xcK+3sbCIqLHwrARx8IWtMTCGAnFwomNxMLfbcTCQIPDwjqww8L+MMTC&#xD;&#xa;mqjHwrBaxMI6YsTCxmvIwqyKycKQaMXCnx7FwkYvx8In6sjCGMzIwuvAxcL8a8XCiBjJwkvwyMKI&#xD;&#xa;qMbCTCTIwvQSy8IxEsvCVT/JwrI3w8LA8sLCCD7EwsxXxMJSjsXCfjXFwqTKxMI/gsPCDozDwtwF&#xD;&#xa;xMISn8bChHvJwlFQyMJYCsbCP4jIwtkBycLiFsrCbCrKwvyTysIWncnC+A3HwuI5x8I8/MbC0hHI&#xD;&#xa;wopJzMLmb83CFkvMwpy/y8Kn7MrCfJrJwuLDyMJKn8bCStTGwpb7ycIMo8nCcivFwsapxcJkx8bC&#xD;&#xa;ALLIwriaycJM3cfC8r/KwlSoy8I4A8vCpFHJwkRrzMIKr87CWD7MwsiJycKW9cfCUjbKwq+YycLi&#xD;&#xa;U8jCROHHwhdWycKaU8nCF7jMwmKaz8L//8zC8tjOwjxezsIUysvCzHLJwiJryMLRm8bCgLjKwsi8&#xD;&#xa;ysIhfszCPETLwqtbyMJGeMfCpRPJwnwZzMJSIs3CqhPMwmDiyMLZYsjCz13KwgwKy8LCi8jCyrTM&#xD;&#xa;wgwxzMK4ZcvC087JwkV2xsLyXsnCjIbLwhwvzcLfrM7CeITKwla3ysLK3cnC/PHFwpScxcIUQ8nC&#xD;&#xa;NJzIwrEsxsJvZcfCXSvIwlKLx8JII8nCvgzKwpnhysJSC8vC9iTKwiA/y8IadczCuDrMwuVaysLO&#xD;&#xa;r8vCXtfJwrZ6ycItucnCtonJwjyTysJkC83CL0nMwkjdyMIBucfCixrLwvSDysKGX8nCsCzMwuas&#xD;&#xa;0cIsnNPCuEvOwtr5y8LMBc7Cr+PTwsQc5MLcOfPCKOj0wjr59cJ0C/fCzg75wkwh+8LmVPnCqz72&#xD;&#xa;wnB+9cLuJvrCtEL4wkp7+MLOfffCDN3zwkaz9sLi8vjCFKr6wgIQ+cI8iPjCBpT4wvR1+MLQI/rC&#xD;&#xa;Ihn8wlQg+sIcLvjCVCz2wsI49MJQ9fbC23H3woy69sL4BfnCIOb2wjwy9cIuGvnCdmb3wj7K9MI+&#xD;&#xa;KPXCJpr2wn7C9cKQDvnCthv7woaP+cLGaPbCTr32wrpN+cIFSPjCDvX4wtD39sJY//TCKGf3wvZI&#xD;&#xa;+cK9YvfCgYf3wjIf+sLMMvfCpjz2wuA6+cII8vbCxDv1wmJG9sLka/rCPrT1wi589cLqjfbC9qP4&#xD;&#xa;wgzJ+MLelPbCGir2wlBC9sKeU/jC/nn3wsYn9sL4QPjCXBj5wopQ+MIaJvnCSB36wgjc+MIMfPfC&#xD;&#xa;W+z1wmYG+MKuxPnCCuD1wjh+9sLDrPfCOPj3wm7h+MJjMvfCxH/2wsXf98KwN/nCKOn5wrLR+sKg&#xD;&#xa;bPvCkFv5wsAu+cL2hffCySz2wmRX+MKiiPjCzFX4wvjB98Jgz/fCxPT4wobP+cL8avjC9r34wnKx&#xD;&#xa;+MK+LPnC3H34wle39cKejfbCNKP2wg5B9sK0H/rCSvz2woqE98JAqfjCBPL4wmKi+MIu2/jCMFD5&#xD;&#xa;wiCM+cKo//nCGqz7wlZN+sKUDfjC0ov4wrIU+sIVpffCP2/3woye98KktPbCTJj2wpH29cL3mvbC&#xD;&#xa;jL/4wti/+MLm3vjCQ9QE" leadInLength="0/1"  />
            </Keyframes>
           </Parameter>
           </Parameters>
          </GenericEffect>
          <GenericEffect id="4628" name = "WinCompression" >
           <Parameters>
           <InterpolatingParam id="4629" interp="linr"  time="0/1" value="0" leadInLength="0/1"   name="attack"/>
           <InterpolatingParam id="4630" interp="linr"  time="0/1" value="9" leadInLength="0/1"   name="gain"/>
           <Parameter id="4631"   name="preset">
            <Keyframes>
            <Keyframe id="4632"  time="0/1" value="1" leadInLength="0/1"  />
            </Keyframes>
           </Parameter>
           <InterpolatingParam id="4633" interp="linr"  time="0/1" value="10" leadInLength="0/1"   name="ratio"/>
           <InterpolatingParam id="4634" interp="linr"  time="0/1" value="3500" leadInLength="0/1"   name="release"/>
           <InterpolatingParam id="4635" interp="linr"  time="0/1" value="-20" leadInLength="0/1"   name="threshold"/>
           </Parameters>
          </GenericEffect>
          <GenericEffect id="4636" name = "Declipper" >
           <Parameters>
           <InterpolatingParam id="4637" interp="linr"  time="0/1" value="-1" leadInLength="0/1"   name="sensitivity"/>
           </Parameters>
          </GenericEffect>
          <GenericEffect id="4638" name = "Declicker" >
           <Parameters>
           <InterpolatingParam id="4639" interp="linr"  time="0/1" value="3" leadInLength="0/1"   name="sensitivity"/>
           </Parameters>
          </GenericEffect>
         </Effects>
         <Attributes>
          <Attribute id="4640" value="" name="ident"/>
          <Attribute id="4641" value="0" name="mixToMono"/>
         </Attributes>
         <MetaData>
          <entry key="WinSubProjectDisplayName" val=""/>
         </MetaData>
         <ExtraData>
          <Entry key="ZoomPanBin">
           <ZoomPanBin id="4642"  >
            <ZoomPanKeyframes>
            </ZoomPanKeyframes>
           </ZoomPanBin>
          </Entry>
          <Entry key="CursorEffectBin">
           <CursorEffectBin id="4643"  >
            <CursorEffectKeyframes>
            </CursorEffectKeyframes>
           </CursorEffectBin>
          </Entry>
         </ExtraData>
         <GenericTrack id="4644"  >
          <Attributes>
           <Attribute id="4645" value="" name="ident"/>
           <Attribute id="4646" value="0" name="audioMuted"/>
           <Attribute id="4647" value="0" name="videoHidden"/>
          </Attributes>
          <MetaData>
           <entry key="IsLocked" val="False"/>
           <entry key="WinTrackHeight" val="0"/>
          </MetaData>
          <Medias>
           <AMFile id="4648" start="0" duration="582" scalar="1/1" mediaStart="0/1" mediaDuration="582/1" trackNumber="0" src="22" channelNumber="0" >
            <Parameters>
             <InterpolatingParam id="4649" interp="linr"  time="0/1" value="1" leadInLength="0/1"  name="volume"/>
             <Parameter id="4650"  name="captions"/>
            </Parameters>
            <Attributes>
             <Attribute id="4651" value="" name="ident"/>
             <Attribute id="4652" value="44100" name="sampleRate"/>
             <Attribute id="4653" value="16" name="bitDepth"/>
             <Attribute id="4654" value="1" name="gain"/>
             <Attribute id="4655" value="0" name="mixToMono"/>
            </Attributes>
            <MetaData>
             <entry key="WinSubProjectDisplayName" val=""/>
            </MetaData>
           </AMFile>
           <AMFile id="4656" start="582" duration="769" scalar="1/1" mediaStart="971/1" mediaDuration="769/1" trackNumber="0" src="22" channelNumber="0" >
            <Parameters>
             <InterpolatingParam id="4657" interp="linr"  time="0/1" value="1" leadInLength="0/1"  name="volume"/>
             <Parameter id="4658"  name="captions"/>
            </Parameters>
            <Attributes>
             <Attribute id="4659" value="" name="ident"/>
             <Attribute id="4660" value="44100" name="sampleRate"/>
             <Attribute id="4661" value="16" name="bitDepth"/>
             <Attribute id="4662" value="1" name="gain"/>
             <Attribute id="4663" value="0" name="mixToMono"/>
            </Attributes>
            <MetaData>
             <entry key="WinSubProjectDisplayName" val=""/>
            </MetaData>
           </AMFile>
           <AMFile id="4664" start="1351" duration="135" scalar="1/1" mediaStart="1744/1" mediaDuration="135/1" trackNumber="0" src="22" channelNumber="0" >
            <Parameters>
             <InterpolatingParam id="4665" interp="linr"  time="0/1" value="1" leadInLength="0/1"  name="volume"/>
             <Parameter id="4666"  name="captions"/>
            </Parameters>
            <Attributes>
             <Attribute id="4667" value="" name="ident"/>
             <Attribute id="4668" value="44100" name="sampleRate"/>
             <Attribute id="4669" value="16" name="bitDepth"/>
             <Attribute id="4670" value="1" name="gain"/>
             <Attribute id="4671" value="0" name="mixToMono"/>
            </Attributes>
            <MetaData>
             <entry key="WinSubProjectDisplayName" val=""/>
            </MetaData>
           </AMFile>
           <AMFile id="4672" start="1486" duration="165" scalar="1/1" mediaStart="1884/1" mediaDuration="165/1" trackNumber="0" src="22" channelNumber="0" >
            <Parameters>
             <InterpolatingParam id="4673" interp="linr"  time="0/1" value="1" leadInLength="0/1"  name="volume"/>
             <Parameter id="4674"  name="captions"/>
            </Parameters>
            <Attributes>
             <Attribute id="4675" value="" name="ident"/>
             <Attribute id="4676" value="44100" name="sampleRate"/>
             <Attribute id="4677" value="16" name="bitDepth"/>
             <Attribute id="4678" value="1" name="gain"/>
             <Attribute id="4679" value="0" name="mixToMono"/>
            </Attributes>
            <MetaData>
             <entry key="WinSubProjectDisplayName" val=""/>
            </MetaData>
           </AMFile>
           <AMFile id="4680" start="1651" duration="2" scalar="1/1" mediaStart="2164/1" mediaDuration="2/1" trackNumber="0" src="22" channelNumber="0" >
            <Parameters>
             <InterpolatingParam id="4681" interp="linr"  time="0/1" value="1" leadInLength="0/1"  name="volume"/>
             <Parameter id="4682"  name="captions"/>
            </Parameters>
            <Attributes>
             <Attribute id="4683" value="" name="ident"/>
             <Attribute id="4684" value="44100" name="sampleRate"/>
             <Attribute id="4685" value="16" name="bitDepth"/>
             <Attribute id="4686" value="1" name="gain"/>
             <Attribute id="4687" value="0" name="mixToMono"/>
            </Attributes>
            <MetaData>
             <entry key="WinSubProjectDisplayName" val=""/>
            </MetaData>
           </AMFile>
           <AMFile id="4688" start="1653" duration="12072" scalar="1/1" mediaStart="2496/1" mediaDuration="12072/1" trackNumber="0" src="22" channelNumber="0" >
            <Parameters>
             <InterpolatingParam id="4689" interp="linr"  time="0/1" value="1" leadInLength="0/1"  name="volume"/>
             <Parameter id="4690"  name="captions"/>
            </Parameters>
            <Attributes>
             <Attribute id="4691" value="" name="ident"/>
             <Attribute id="4692" value="44100" name="sampleRate"/>
             <Attribute id="4693" value="16" name="bitDepth"/>
             <Attribute id="4694" value="1" name="gain"/>
             <Attribute id="4695" value="0" name="mixToMono"/>
            </Attributes>
            <MetaData>
             <entry key="WinSubProjectDisplayName" val=""/>
            </MetaData>
           </AMFile>
          </Medias>
         </GenericTrack>
        </StitchedMedia>
        <StitchedMedia id="4696" start="70" duration="654" scalar="1/1" mediaStart="321/1" mediaDuration="654/1" minMediaStart="0/1" >
         <Transformer>
          <VectorParam id="4697"  name="translation">
           <InterpolatingParam id="4698" interp="linr"  time="0/1" value="0" leadInLength="0/1"  />
           <InterpolatingParam id="4699" interp="linr"  time="0/1" value="0" leadInLength="0/1"  />
           <InterpolatingParam id="4700" interp="linr"  time="0/1" value="0" leadInLength="0/1"  />
          </VectorParam>
          <VectorParam id="4701"  name="rotation">
           <InterpolatingParam id="4702" interp="linr"  time="0/1" value="0" leadInLength="0/1"  />
           <InterpolatingParam id="4703" interp="linr"  time="0/1" value="0" leadInLength="0/1"  />
           <InterpolatingParam id="4704" interp="linr"  time="0/1" value="0" leadInLength="0/1"  />
          </VectorParam>
          <VectorParam id="4705"  name="shear">
           <InterpolatingParam id="4706" interp="linr"  time="0/1" value="0" leadInLength="0/1"  />
           <InterpolatingParam id="4707" interp="linr"  time="0/1" value="0" leadInLength="0/1"  />
           <InterpolatingParam id="4708" interp="linr"  time="0/1" value="0" leadInLength="0/1"  />
          </VectorParam>
          <VectorParam id="4709"  name="scale">
           <InterpolatingParam id="4710" interp="linr"  time="0/1" value="1" leadInLength="0/1"  />
           <InterpolatingParam id="4711" interp="linr"  time="0/1" value="1" leadInLength="0/1"  />
           <InterpolatingParam id="4712" interp="linr"  time="0/1" value="1" leadInLength="0/1"  />
          </VectorParam>
          <VectorParam id="4713"  name="anchor">
           <InterpolatingParam id="4714" interp="linr"  time="0/1" value="0" leadInLength="0/1"  />
           <InterpolatingParam id="4715" interp="linr"  time="0/1" value="0" leadInLength="0/1"  />
           <InterpolatingParam id="4716" interp="linr"  time="0/1" value="0" leadInLength="0/1"  />
          </VectorParam>
         </Transformer>
         <Parameters>
          <InterpolatingParam id="4717" interp="linr"  time="0/1" value="1" leadInLength="0/1"  name="cursorOpacity"/>
          <InterpolatingParam id="4718" interp="linr"  time="0/1" value="1" leadInLength="0/1"  name="cursorScale"/>
          <InterpolatingParam id="4719" interp="linr"  name="volume">
           <Keyframes>
           <Keyframe id="4720"  time="0/1" value="1" leadInLength="0/1"  />
           <Keyframe id="4721"  time="250/1" value="1" leadInLength="0/1"  />
           <Keyframe id="4722"  time="251/1" value="0.99255583126550895" leadInLength="0/1"  />
           <Keyframe id="4723"  time="1888/1" value="0.99255583126550895" leadInLength="0/1"  />
           <Keyframe id="4724"  time="1889/1" value="1" leadInLength="0/1"  />
           </Keyframes>
          </InterpolatingParam>
          <Parameter id="4725"  name="captions"/>
         </Parameters>
         <Effects>
          <GenericEffect id="4726" name = "NoiseReduction" >
           <Parameters>
           <InterpolatingParam id="4727" interp="linr"  time="0/1" value="20" leadInLength="0/1"   name="denoiserAmount"/>
           <InterpolatingParam id="4728" interp="linr"  time="0/1" value="0" leadInLength="0/1"   name="denoiserThreshold"/>
           <Parameter id="4729"   name="noiseProfile">
            <Keyframes>
            <Keyframe id="4730"  time="0/1" value="FBAAAAIAAABErAAAAQIAADOmYsI/y13CPNeLwsehjcK+No/Cm+aOwlHvjcIja5HCun6XwoKemMJy&#xD;&#xa;lpPCuQeRwhgMlcJGdZvCTjScwgFMncIGh5zCGrOawuO0nMJdJZ3Cybudwo6toMIdraPCs/6jwpY0&#xD;&#xa;psLIUqjCWQmpwonmp8KcE6XCgXGlwqC+psIFHabCBoyownWvqcIkX6jCgnCpwms3qsIW0KfCM7Oj&#xD;&#xa;wnGLosJgcKnCdk6swiIgscKFrbDCtNmowrZmpcIHYqjCCg2pwqUNq8KgHq7ChEGxwhVFs8KU6LLC&#xD;&#xa;dvWzwpVHscI6NrDCMpGwwubcs8Imh7bCPKq6wj7tvMKSbr3ClsG+wq4qwMLXQr7CpAK5whxiuMJp&#xD;&#xa;v7nCwu29wloQvsIXTL3CzjDAwsDTwcL69sHC8urAwtAFwMIkSMLCpJHDwjLOw8JG8sTCmMvDwq7H&#xD;&#xa;wsLOncPC+CDDwkh6wsLU5sPCP23Fwm5Qx8KlYsTCm0XCwnhexcLsTsPCSMPDwjvJw8LMWcHC2XHD&#xD;&#xa;wjj5wsICs8TChWvEwgCywcKDdcHCFnHCwurMxMLlVsTCfrDGwmzqyMKoGsfC7ITIwtqRyMJwzcbC&#xD;&#xa;ppbEwiv5xcIXxsTCzDfCwtSExMKEjcTC8ObDwiJ9yMIQm8vCIkDGwqHyxcIyYcbCyAXIwmyBx8I4&#xD;&#xa;n8PCvyPGwuiKxMJggMfCdL3JwsMhysLi6sXCRa7Ewoykx8Jk/MXC0NfEwtK0xcJQTMTCvvvGwtqJ&#xD;&#xa;xMKmFsTCSbfGwq76x8IQ+sjCsqnIwkJdycIaT8fC0nbHwlf2xsLg/cbCtIHHwsTvxsI0KsbCsqDH&#xD;&#xa;wgLix8JGKcXCyNTDwjDwwsIb98bC6MjJwg6Zy8Kg+cvCaC3HwtIgw8KW7sXC3EHGwmcUxcL++8fC&#xD;&#xa;CWbIwsDoxsJFz8PCJkXFwiD7xcIQDsfC8ljIwrDLxMKkeMLClpHEwiqgyMJcjcjC6krGwl50w8Iy&#xD;&#xa;7sXCWv3HwkQ1xsKUwMPC2K/EwootxMJUqMTCH3LDwuojxcKil8fCjmXIwkLJxcID78TClTvGwhel&#xD;&#xa;xsIca8bC1rbCwk6+wsIQfsfCIlPHwpJExcLWhMbCDNvEwuryxMKklMXCeBDDwolhwcIiasLCQYfE&#xD;&#xa;whUfwsJx4MTCsEnIwkX0xcK+3sbCIqLHwrARx8IWtMTCGAnFwomNxMLfbcTCQIPDwjqww8L+MMTC&#xD;&#xa;mqjHwrBaxMI6YsTCxmvIwqyKycKQaMXCnx7FwkYvx8In6sjCGMzIwuvAxcL8a8XCiBjJwkvwyMKI&#xD;&#xa;qMbCTCTIwvQSy8IxEsvCVT/JwrI3w8LA8sLCCD7EwsxXxMJSjsXCfjXFwqTKxMI/gsPCDozDwtwF&#xD;&#xa;xMISn8bChHvJwlFQyMJYCsbCP4jIwtkBycLiFsrCbCrKwvyTysIWncnC+A3HwuI5x8I8/MbC0hHI&#xD;&#xa;wopJzMLmb83CFkvMwpy/y8Kn7MrCfJrJwuLDyMJKn8bCStTGwpb7ycIMo8nCcivFwsapxcJkx8bC&#xD;&#xa;ALLIwriaycJM3cfC8r/KwlSoy8I4A8vCpFHJwkRrzMIKr87CWD7MwsiJycKW9cfCUjbKwq+YycLi&#xD;&#xa;U8jCROHHwhdWycKaU8nCF7jMwmKaz8L//8zC8tjOwjxezsIUysvCzHLJwiJryMLRm8bCgLjKwsi8&#xD;&#xa;ysIhfszCPETLwqtbyMJGeMfCpRPJwnwZzMJSIs3CqhPMwmDiyMLZYsjCz13KwgwKy8LCi8jCyrTM&#xD;&#xa;wgwxzMK4ZcvC087JwkV2xsLyXsnCjIbLwhwvzcLfrM7CeITKwla3ysLK3cnC/PHFwpScxcIUQ8nC&#xD;&#xa;NJzIwrEsxsJvZcfCXSvIwlKLx8JII8nCvgzKwpnhysJSC8vC9iTKwiA/y8IadczCuDrMwuVaysLO&#xD;&#xa;r8vCXtfJwrZ6ycItucnCtonJwjyTysJkC83CL0nMwkjdyMIBucfCixrLwvSDysKGX8nCsCzMwuas&#xD;&#xa;0cIsnNPCuEvOwtr5y8LMBc7Cr+PTwsQc5MLcOfPCKOj0wjr59cJ0C/fCzg75wkwh+8LmVPnCqz72&#xD;&#xa;wnB+9cLuJvrCtEL4wkp7+MLOfffCDN3zwkaz9sLi8vjCFKr6wgIQ+cI8iPjCBpT4wvR1+MLQI/rC&#xD;&#xa;Ihn8wlQg+sIcLvjCVCz2wsI49MJQ9fbC23H3woy69sL4BfnCIOb2wjwy9cIuGvnCdmb3wj7K9MI+&#xD;&#xa;KPXCJpr2wn7C9cKQDvnCthv7woaP+cLGaPbCTr32wrpN+cIFSPjCDvX4wtD39sJY//TCKGf3wvZI&#xD;&#xa;+cK9YvfCgYf3wjIf+sLMMvfCpjz2wuA6+cII8vbCxDv1wmJG9sLka/rCPrT1wi589cLqjfbC9qP4&#xD;&#xa;wgzJ+MLelPbCGir2wlBC9sKeU/jC/nn3wsYn9sL4QPjCXBj5wopQ+MIaJvnCSB36wgjc+MIMfPfC&#xD;&#xa;W+z1wmYG+MKuxPnCCuD1wjh+9sLDrPfCOPj3wm7h+MJjMvfCxH/2wsXf98KwN/nCKOn5wrLR+sKg&#xD;&#xa;bPvCkFv5wsAu+cL2hffCySz2wmRX+MKiiPjCzFX4wvjB98Jgz/fCxPT4wobP+cL8avjC9r34wnKx&#xD;&#xa;+MK+LPnC3H34wle39cKejfbCNKP2wg5B9sK0H/rCSvz2woqE98JAqfjCBPL4wmKi+MIu2/jCMFD5&#xD;&#xa;wiCM+cKo//nCGqz7wlZN+sKUDfjC0ov4wrIU+sIVpffCP2/3woye98KktPbCTJj2wpH29cL3mvbC&#xD;&#xa;jL/4wti/+MLm3vjCQ9QEwzOmYsI/y13CPNeLwsehjcK+No/Cm+aOwlHvjcIja5HCun6XwoKemMJy&#xD;&#xa;lpPCuQeRwhgMlcJGdZvCTjScwgFMncIGh5zCGrOawuO0nMJdJZ3Cybudwo6toMIdraPCs/6jwpY0&#xD;&#xa;psLIUqjCWQmpwonmp8KcE6XCgXGlwqC+psIFHabCBoyownWvqcIkX6jCgnCpwms3qsIW0KfCM7Oj&#xD;&#xa;wnGLosJgcKnCdk6swiIgscKFrbDCtNmowrZmpcIHYqjCCg2pwqUNq8KgHq7ChEGxwhVFs8KU6LLC&#xD;&#xa;dvWzwpVHscI6NrDCMpGwwubcs8Imh7bCPKq6wj7tvMKSbr3ClsG+wq4qwMLXQr7CpAK5whxiuMJp&#xD;&#xa;v7nCwu29wloQvsIXTL3CzjDAwsDTwcL69sHC8urAwtAFwMIkSMLCpJHDwjLOw8JG8sTCmMvDwq7H&#xD;&#xa;wsLOncPC+CDDwkh6wsLU5sPCP23Fwm5Qx8KlYsTCm0XCwnhexcLsTsPCSMPDwjvJw8LMWcHC2XHD&#xD;&#xa;wjj5wsICs8TChWvEwgCywcKDdcHCFnHCwurMxMLlVsTCfrDGwmzqyMKoGsfC7ITIwtqRyMJwzcbC&#xD;&#xa;ppbEwiv5xcIXxsTCzDfCwtSExMKEjcTC8ObDwiJ9yMIQm8vCIkDGwqHyxcIyYcbCyAXIwmyBx8I4&#xD;&#xa;n8PCvyPGwuiKxMJggMfCdL3JwsMhysLi6sXCRa7Ewoykx8Jk/MXC0NfEwtK0xcJQTMTCvvvGwtqJ&#xD;&#xa;xMKmFsTCSbfGwq76x8IQ+sjCsqnIwkJdycIaT8fC0nbHwlf2xsLg/cbCtIHHwsTvxsI0KsbCsqDH&#xD;&#xa;wgLix8JGKcXCyNTDwjDwwsIb98bC6MjJwg6Zy8Kg+cvCaC3HwtIgw8KW7sXC3EHGwmcUxcL++8fC&#xD;&#xa;CWbIwsDoxsJFz8PCJkXFwiD7xcIQDsfC8ljIwrDLxMKkeMLClpHEwiqgyMJcjcjC6krGwl50w8Iy&#xD;&#xa;7sXCWv3HwkQ1xsKUwMPC2K/EwootxMJUqMTCH3LDwuojxcKil8fCjmXIwkLJxcID78TClTvGwhel&#xD;&#xa;xsIca8bC1rbCwk6+wsIQfsfCIlPHwpJExcLWhMbCDNvEwuryxMKklMXCeBDDwolhwcIiasLCQYfE&#xD;&#xa;whUfwsJx4MTCsEnIwkX0xcK+3sbCIqLHwrARx8IWtMTCGAnFwomNxMLfbcTCQIPDwjqww8L+MMTC&#xD;&#xa;mqjHwrBaxMI6YsTCxmvIwqyKycKQaMXCnx7FwkYvx8In6sjCGMzIwuvAxcL8a8XCiBjJwkvwyMKI&#xD;&#xa;qMbCTCTIwvQSy8IxEsvCVT/JwrI3w8LA8sLCCD7EwsxXxMJSjsXCfjXFwqTKxMI/gsPCDozDwtwF&#xD;&#xa;xMISn8bChHvJwlFQyMJYCsbCP4jIwtkBycLiFsrCbCrKwvyTysIWncnC+A3HwuI5x8I8/MbC0hHI&#xD;&#xa;wopJzMLmb83CFkvMwpy/y8Kn7MrCfJrJwuLDyMJKn8bCStTGwpb7ycIMo8nCcivFwsapxcJkx8bC&#xD;&#xa;ALLIwriaycJM3cfC8r/KwlSoy8I4A8vCpFHJwkRrzMIKr87CWD7MwsiJycKW9cfCUjbKwq+YycLi&#xD;&#xa;U8jCROHHwhdWycKaU8nCF7jMwmKaz8L//8zC8tjOwjxezsIUysvCzHLJwiJryMLRm8bCgLjKwsi8&#xD;&#xa;ysIhfszCPETLwqtbyMJGeMfCpRPJwnwZzMJSIs3CqhPMwmDiyMLZYsjCz13KwgwKy8LCi8jCyrTM&#xD;&#xa;wgwxzMK4ZcvC087JwkV2xsLyXsnCjIbLwhwvzcLfrM7CeITKwla3ysLK3cnC/PHFwpScxcIUQ8nC&#xD;&#xa;NJzIwrEsxsJvZcfCXSvIwlKLx8JII8nCvgzKwpnhysJSC8vC9iTKwiA/y8IadczCuDrMwuVaysLO&#xD;&#xa;r8vCXtfJwrZ6ycItucnCtonJwjyTysJkC83CL0nMwkjdyMIBucfCixrLwvSDysKGX8nCsCzMwuas&#xD;&#xa;0cIsnNPCuEvOwtr5y8LMBc7Cr+PTwsQc5MLcOfPCKOj0wjr59cJ0C/fCzg75wkwh+8LmVPnCqz72&#xD;&#xa;wnB+9cLuJvrCtEL4wkp7+MLOfffCDN3zwkaz9sLi8vjCFKr6wgIQ+cI8iPjCBpT4wvR1+MLQI/rC&#xD;&#xa;Ihn8wlQg+sIcLvjCVCz2wsI49MJQ9fbC23H3woy69sL4BfnCIOb2wjwy9cIuGvnCdmb3wj7K9MI+&#xD;&#xa;KPXCJpr2wn7C9cKQDvnCthv7woaP+cLGaPbCTr32wrpN+cIFSPjCDvX4wtD39sJY//TCKGf3wvZI&#xD;&#xa;+cK9YvfCgYf3wjIf+sLMMvfCpjz2wuA6+cII8vbCxDv1wmJG9sLka/rCPrT1wi589cLqjfbC9qP4&#xD;&#xa;wgzJ+MLelPbCGir2wlBC9sKeU/jC/nn3wsYn9sL4QPjCXBj5wopQ+MIaJvnCSB36wgjc+MIMfPfC&#xD;&#xa;W+z1wmYG+MKuxPnCCuD1wjh+9sLDrPfCOPj3wm7h+MJjMvfCxH/2wsXf98KwN/nCKOn5wrLR+sKg&#xD;&#xa;bPvCkFv5wsAu+cL2hffCySz2wmRX+MKiiPjCzFX4wvjB98Jgz/fCxPT4wobP+cL8avjC9r34wnKx&#xD;&#xa;+MK+LPnC3H34wle39cKejfbCNKP2wg5B9sK0H/rCSvz2woqE98JAqfjCBPL4wmKi+MIu2/jCMFD5&#xD;&#xa;wiCM+cKo//nCGqz7wlZN+sKUDfjC0ov4wrIU+sIVpffCP2/3woye98KktPbCTJj2wpH29cL3mvbC&#xD;&#xa;jL/4wti/+MLm3vjCQ9QE" leadInLength="0/1"  />
            </Keyframes>
           </Parameter>
           </Parameters>
          </GenericEffect>
          <GenericEffect id="4731" name = "WinCompression" >
           <Parameters>
           <InterpolatingParam id="4732" interp="linr"  time="0/1" value="0" leadInLength="0/1"   name="attack"/>
           <InterpolatingParam id="4733" interp="linr"  time="0/1" value="9" leadInLength="0/1"   name="gain"/>
           <Parameter id="4734"   name="preset">
            <Keyframes>
            <Keyframe id="4735"  time="0/1" value="1" leadInLength="0/1"  />
            </Keyframes>
           </Parameter>
           <InterpolatingParam id="4736" interp="linr"  time="0/1" value="10" leadInLength="0/1"   name="ratio"/>
           <InterpolatingParam id="4737" interp="linr"  time="0/1" value="3500" leadInLength="0/1"   name="release"/>
           <InterpolatingParam id="4738" interp="linr"  time="0/1" value="-20" leadInLength="0/1"   name="threshold"/>
           </Parameters>
          </GenericEffect>
          <GenericEffect id="4739" name = "Declipper" >
           <Parameters>
           <InterpolatingParam id="4740" interp="linr"  time="0/1" value="-1" leadInLength="0/1"   name="sensitivity"/>
           </Parameters>
          </GenericEffect>
          <GenericEffect id="4741" name = "Declicker" >
           <Parameters>
           <InterpolatingParam id="4742" interp="linr"  time="0/1" value="3" leadInLength="0/1"   name="sensitivity"/>
           </Parameters>
          </GenericEffect>
         </Effects>
         <Attributes>
          <Attribute id="4743" value="" name="ident"/>
          <Attribute id="4744" value="0" name="mixToMono"/>
         </Attributes>
         <MetaData>
          <entry key="WinSubProjectDisplayName" val=""/>
         </MetaData>
         <ExtraData>
          <Entry key="ZoomPanBin">
           <ZoomPanBin id="4745"  >
            <ZoomPanKeyframes>
            </ZoomPanKeyframes>
           </ZoomPanBin>
          </Entry>
          <Entry key="CursorEffectBin">
           <CursorEffectBin id="4746"  >
            <CursorEffectKeyframes>
            </CursorEffectKeyframes>
           </CursorEffectBin>
          </Entry>
         </ExtraData>
         <GenericTrack id="4747"  >
          <Attributes>
           <Attribute id="4748" value="" name="ident"/>
           <Attribute id="4749" value="0" name="audioMuted"/>
           <Attribute id="4750" value="0" name="videoHidden"/>
          </Attributes>
          <MetaData>
           <entry key="IsLocked" val="False"/>
           <entry key="WinTrackHeight" val="0"/>
          </MetaData>
          <Medias>
           <AMFile id="4751" start="0" duration="582" scalar="1/1" mediaStart="0/1" mediaDuration="582/1" trackNumber="0" src="22" channelNumber="0" >
            <Parameters>
             <InterpolatingParam id="4752" interp="linr"  time="0/1" value="1" leadInLength="0/1"  name="volume"/>
             <Parameter id="4753"  name="captions"/>
            </Parameters>
            <Attributes>
             <Attribute id="4754" value="" name="ident"/>
             <Attribute id="4755" value="44100" name="sampleRate"/>
             <Attribute id="4756" value="16" name="bitDepth"/>
             <Attribute id="4757" value="1" name="gain"/>
             <Attribute id="4758" value="0" name="mixToMono"/>
            </Attributes>
            <MetaData>
             <entry key="WinSubProjectDisplayName" val=""/>
            </MetaData>
           </AMFile>
           <AMFile id="4759" start="582" duration="769" scalar="1/1" mediaStart="971/1" mediaDuration="769/1" trackNumber="0" src="22" channelNumber="0" >
            <Parameters>
             <InterpolatingParam id="4760" interp="linr"  time="0/1" value="1" leadInLength="0/1"  name="volume"/>
             <Parameter id="4761"  name="captions"/>
            </Parameters>
            <Attributes>
             <Attribute id="4762" value="" name="ident"/>
             <Attribute id="4763" value="44100" name="sampleRate"/>
             <Attribute id="4764" value="16" name="bitDepth"/>
             <Attribute id="4765" value="1" name="gain"/>
             <Attribute id="4766" value="0" name="mixToMono"/>
            </Attributes>
            <MetaData>
             <entry key="WinSubProjectDisplayName" val=""/>
            </MetaData>
           </AMFile>
           <AMFile id="4767" start="1351" duration="135" scalar="1/1" mediaStart="1744/1" mediaDuration="135/1" trackNumber="0" src="22" channelNumber="0" >
            <Parameters>
             <InterpolatingParam id="4768" interp="linr"  time="0/1" value="1" leadInLength="0/1"  name="volume"/>
             <Parameter id="4769"  name="captions"/>
            </Parameters>
            <Attributes>
             <Attribute id="4770" value="" name="ident"/>
             <Attribute id="4771" value="44100" name="sampleRate"/>
             <Attribute id="4772" value="16" name="bitDepth"/>
             <Attribute id="4773" value="1" name="gain"/>
             <Attribute id="4774" value="0" name="mixToMono"/>
            </Attributes>
            <MetaData>
             <entry key="WinSubProjectDisplayName" val=""/>
            </MetaData>
           </AMFile>
           <AMFile id="4775" start="1486" duration="165" scalar="1/1" mediaStart="1884/1" mediaDuration="165/1" trackNumber="0" src="22" channelNumber="0" >
            <Parameters>
             <InterpolatingParam id="4776" interp="linr"  time="0/1" value="1" leadInLength="0/1"  name="volume"/>
             <Parameter id="4777"  name="captions"/>
            </Parameters>
            <Attributes>
             <Attribute id="4778" value="" name="ident"/>
             <Attribute id="4779" value="44100" name="sampleRate"/>
             <Attribute id="4780" value="16" name="bitDepth"/>
             <Attribute id="4781" value="1" name="gain"/>
             <Attribute id="4782" value="0" name="mixToMono"/>
            </Attributes>
            <MetaData>
             <entry key="WinSubProjectDisplayName" val=""/>
            </MetaData>
           </AMFile>
           <AMFile id="4783" start="1651" duration="2" scalar="1/1" mediaStart="2164/1" mediaDuration="2/1" trackNumber="0" src="22" channelNumber="0" >
            <Parameters>
             <InterpolatingParam id="4784" interp="linr"  time="0/1" value="1" leadInLength="0/1"  name="volume"/>
             <Parameter id="4785"  name="captions"/>
            </Parameters>
            <Attributes>
             <Attribute id="4786" value="" name="ident"/>
             <Attribute id="4787" value="44100" name="sampleRate"/>
             <Attribute id="4788" value="16" name="bitDepth"/>
             <Attribute id="4789" value="1" name="gain"/>
             <Attribute id="4790" value="0" name="mixToMono"/>
            </Attributes>
            <MetaData>
             <entry key="WinSubProjectDisplayName" val=""/>
            </MetaData>
           </AMFile>
           <AMFile id="4791" start="1653" duration="12072" scalar="1/1" mediaStart="2496/1" mediaDuration="12072/1" trackNumber="0" src="22" channelNumber="0" >
            <Parameters>
             <InterpolatingParam id="4792" interp="linr"  time="0/1" value="1" leadInLength="0/1"  name="volume"/>
             <Parameter id="4793"  name="captions"/>
            </Parameters>
            <Attributes>
             <Attribute id="4794" value="" name="ident"/>
             <Attribute id="4795" value="44100" name="sampleRate"/>
             <Attribute id="4796" value="16" name="bitDepth"/>
             <Attribute id="4797" value="1" name="gain"/>
             <Attribute id="4798" value="0" name="mixToMono"/>
            </Attributes>
            <MetaData>
             <entry key="WinSubProjectDisplayName" val=""/>
            </MetaData>
           </AMFile>
          </Medias>
         </GenericTrack>
        </StitchedMedia>
        <AMFile id="4799" start="724" duration="93" scalar="1/1" mediaStart="35/1" mediaDuration="93/1" trackNumber="0" src="26" channelNumber="0" >
         <Parameters>
          <InterpolatingParam id="4800" interp="linr"  name="volume">
           <Keyframes>
           <Keyframe id="4801"  time="0/1" value="1.3133640552995391" leadInLength="0/1"  />
           <Keyframe id="4802"  time="35/1" value="0.49627791563275392" leadInLength="0/1"  />
           <Keyframe id="4803"  time="50/1" value="0.96774193548387089" leadInLength="0/1"  />
           <Keyframe id="4804"  time="111/1" value="1.3133640552995391" leadInLength="0/1"  />
           </Keyframes>
          </InterpolatingParam>
          <Parameter id="4805"  name="captions"/>
         </Parameters>
         <Effects>
          <GenericEffect id="4806" name = "WinCompression" >
           <Parameters>
           <InterpolatingParam id="4807" interp="linr"  time="0/1" value="0" leadInLength="0/1"   name="attack"/>
           <InterpolatingParam id="4808" interp="linr"  time="0/1" value="9" leadInLength="0/1"   name="gain"/>
           <Parameter id="4809"   name="preset">
            <Keyframes>
            <Keyframe id="4810"  time="0/1" value="1" leadInLength="0/1"  />
            </Keyframes>
           </Parameter>
           <InterpolatingParam id="4811" interp="linr"  time="0/1" value="10" leadInLength="0/1"   name="ratio"/>
           <InterpolatingParam id="4812" interp="linr"  time="0/1" value="3500" leadInLength="0/1"   name="release"/>
           <InterpolatingParam id="4813" interp="linr"  time="0/1" value="-20" leadInLength="0/1"   name="threshold"/>
           </Parameters>
          </GenericEffect>
          <GenericEffect id="4814" name = "NoiseReduction" >
           <Parameters>
           <InterpolatingParam id="4815" interp="linr"  time="0/1" value="20" leadInLength="0/1"   name="denoiserAmount"/>
           <InterpolatingParam id="4816" interp="linr"  time="0/1" value="0" leadInLength="0/1"   name="denoiserThreshold"/>
           <Parameter id="4817"   name="noiseProfile">
            <Keyframes>
            <Keyframe id="4818"  time="0/1" value="FBAAAAIAAABErAAAAQIAAPWfkML/y4XCqbyHwopWi8KPBorCCHyMwi5XksKsBpXCflqawihkn8L+&#xD;&#xa;AqLCC+mjwqkFo8KyLqXC5vylwsoPpcL/3KTCismowl5Fq8I2S6nChAOrwmSirsKVCK/CRlqrwmBt&#xD;&#xa;qsKcE7TC4m27whxCu8IoIrvCvRC6wiIhu8IYxbzCqpK7wtKSu8ITA7vCYI65woCRucLqz7nCIj25&#xD;&#xa;wkrHu8Kanr3CTiq9woz/vcJ2JL7CXvm/wp4ewcJ+scLCDATCwh+pwMKD1MHCzBXCwmStw8L/C8TC&#xD;&#xa;YuXCwkgswsKmKMPCSO3BwkDUwsJDXcLCGBXCwkDEwsLeUMHC4NfDwq50w8LeqsHCqkzDwnxhw8Lh&#xD;&#xa;nMPCIMDDwlpQwsJ/zsLCdrPDwgeBw8JGrMPCHQzDwkDow8Im5cTCD9nDwr6zxMJd9cXCZkbGwrkq&#xD;&#xa;xsJQB8fC9sbHwiK9ycLEdcjCnEjHwlQ5xsKcfcbCwNvGwmLZxsJ9t8fCYF/HwrIXx8Ik28fCHAjH&#xD;&#xa;wmm0xsK9oMfCFXLIwpJ6ycI66cnCk3PIwh9xyMIrncbC0DTHwq0WyMLG8cfCujTJwgN4ycJiFcjC&#xD;&#xa;2pjGwvLRxcLHaMnCQujKwkgiysIY+8nCBY/Jwgl7ycLfrcjCmHjHwnxcyMLJMcrCHCXKwgv9ycLN&#xD;&#xa;l8rC2EPJwoL3yMIRncnCEqTIwsz6yMKME8rC+oTLwlCpzMKWq8rCYIXKwoA7ysJm2cnC3hzKwru/&#xD;&#xa;y8JMGMzCWTTMwhgyy8JfssvChsbMwlPgy8Ji4crC3DzLwtg3y8KG2MvCrtnLwiAWzMKoKsvCrOTK&#xD;&#xa;wrNvzMJeK8zCo0HLwrTWysI758vC7kHMwjZyy8Lbs8rCVrnKwpLiysINNMrCWmXKwgZnysJSDcrC&#xD;&#xa;8CTKwk4NysLNzsnC5iDKwpKjy8JOA8vCfjvKwhy9ysLhTMvClBDKwosXysJ+F8vC7IzLwvjXysJu&#xD;&#xa;QsvClBvLwp7ayMJwZcrCTDvKwv+ZycIjIMjCoSjJwmAcy8KTF8vCVl3JwqAyycI4h8nClnjJwg7a&#xD;&#xa;y8LSr8vC/JDLwopSy8IbxMrCFLzMwrCPy8KYuMrCyOTKwrBTy8LeYsvCV8TLwsDkysIy9srCJIHI&#xD;&#xa;wnilx8JUrsjC0ojLwoGmy8KUg8vCXrPKwotiy8I4ZczCCMbLwhi6zML3OM3CyPvMwhT+y8Jt7svC&#xD;&#xa;nDnMwggjysKuTsnCXBfKwuGnysKqHszCqf3NwlLCysKy58nCFPbKwi4WzMIU5MrC3q3IwiRxysII&#xD;&#xa;LczCosPMwgwuzMLCnsrCZozKwvRmysK0+srCaLPJwrpmysIZlMvCWrLLwhZGy8Ki0srCTKvLwhDu&#xD;&#xa;y8Lu2MvCQvLLwl5GzMKAe8vCvKbLwhgszMJ9lMvCanjLwpZjzcJwt8zCYInLwp5Yy8LYLsvChtPK&#xD;&#xa;wqYKy8LZvcvCvC7LwoqOy8IIzMvC0t7KwsI2y8LT9srCjcvJwga+ysJgiMvCwc/Lwho7zMKq4czC&#xD;&#xa;eg7Nwv7HzcKy8szCPPTMwhCazMJ+QczCw9DMwgXqzcLSPM3CgK3Mwi22zsJiGs7CVoTMwsYDzcKM&#xD;&#xa;n83C0MzNwqYVzsLDk8/CxqnPwjDdzsJ6bc/CNjTOwlC8zsJY3c7Ch0HNwkINzsKSr8/CbovOwl4y&#xD;&#xa;zsLbPs7COq3NwhYUz8K4us7CQILNwqhJzsIKYs7CbM/NwqruzcJm/8/CqnfPwvC0zcLFBM7ChXPO&#xD;&#xa;whSQzcIets7C0EPOwhCozcJB9s3CWS7QwgSXz8JOnc3CJJTOwn6KzsJNmc7C4pzNwlpUzsK4aNHC&#xD;&#xa;6n3PwunXzsJqCtDCOgvQwhSFzsJof87C5yHPwoa/zcJ7ic7C8l3OwlDYz8LCms7CIfPOwhDWzcKL&#xD;&#xa;MM3CS1fOwkLUzsI+4c3Cs6LOwqSS0MJOHtLCWhvRwhh+z8JWUs/CKkDOwixyzsLgNM/CUKHPwlO+&#xD;&#xa;z8JYjNDCFW/RwqUJ0sLi1tTCIjrbwkib4cLR3+PCBBHkwrJZ5cJjFuXCDJzkwkg65MK0C+TCeOrj&#xD;&#xa;wlwU5MLKYeTCdG7jwtSG4sImUuPCK+riwg6Q4sIPieTCyhbkwi3K4sLdo+LCPlniwj4E48IgROTC&#xD;&#xa;HKbjwiM34sLYuePCllnkwsxQ48IA+OPCtmjjwvjS48K1z+TC1Kfjwq9i48LOruPC1EPjwq/k4sLy&#xD;&#xa;1OPCbHflwgrk48INhuLC4JPiwukQ4sLw/uLCoK/jwsIc48IqOOLCKWziwttw48JemePCRr3jwift&#xD;&#xa;48J5K+PCco3iwkip4cK0MOTCw3flwvpB48LytuLCULfiwgSg48L/H+PC6ZbkwqQE5MLvB+PCmAvj&#xD;&#xa;wgaY48IVeuPC6GDkwjiY5MKa9OHCDwPhwply4sLU8uHCvmvhwtYH4cIxBuPCvKXjwvpN48L0XOLC&#xD;&#xa;rJzhwhD04MLytOHCW6Tjwr6l4sKE4OHC3g/jwvu848L3OOXCQY/nwmHr58J9RefCqIfmwsqO58Jr&#xD;&#xa;UOjCLurpwowB6cIl/ubCUp3nws4Q6MIcX+nCHVrpwgis5sJ8QubCMLTlwjZS5cKmieXCAqvlwsLg&#xD;&#xa;5MKzc+TCAlblwgEF5sLHlefCbkbnwuyq5cIRWuXCyeTlwmY35sKppuXCxgrmwuYv5sLtP+fCBLfn&#xD;&#xa;wnHm5sIgF+fCZP3mwuJ65sLwBOfC+MTmwv5J5sLQguTCPnHkwtCD5cIlx+bCffbnwjsD5sLdHObC&#xD;&#xa;DSDmwvL55cLh1uXCm4TzwvWfkML/y4XCqbyHwopWi8KPBorCCHyMwi5XksKsBpXCflqawihkn8L+&#xD;&#xa;AqLCC+mjwqkFo8KyLqXC5vylwsoPpcL/3KTCismowl5Fq8I2S6nChAOrwmSirsKVCK/CRlqrwmBt&#xD;&#xa;qsKcE7TC4m27whxCu8IoIrvCvRC6wiIhu8IYxbzCqpK7wtKSu8ITA7vCYI65woCRucLqz7nCIj25&#xD;&#xa;wkrHu8Kanr3CTiq9woz/vcJ2JL7CXvm/wp4ewcJ+scLCDATCwh+pwMKD1MHCzBXCwmStw8L/C8TC&#xD;&#xa;YuXCwkgswsKmKMPCSO3BwkDUwsJDXcLCGBXCwkDEwsLeUMHC4NfDwq50w8LeqsHCqkzDwnxhw8Lh&#xD;&#xa;nMPCIMDDwlpQwsJ/zsLCdrPDwgeBw8JGrMPCHQzDwkDow8Im5cTCD9nDwr6zxMJd9cXCZkbGwrkq&#xD;&#xa;xsJQB8fC9sbHwiK9ycLEdcjCnEjHwlQ5xsKcfcbCwNvGwmLZxsJ9t8fCYF/HwrIXx8Ik28fCHAjH&#xD;&#xa;wmm0xsK9oMfCFXLIwpJ6ycI66cnCk3PIwh9xyMIrncbC0DTHwq0WyMLG8cfCujTJwgN4ycJiFcjC&#xD;&#xa;2pjGwvLRxcLHaMnCQujKwkgiysIY+8nCBY/Jwgl7ycLfrcjCmHjHwnxcyMLJMcrCHCXKwgv9ycLN&#xD;&#xa;l8rC2EPJwoL3yMIRncnCEqTIwsz6yMKME8rC+oTLwlCpzMKWq8rCYIXKwoA7ysJm2cnC3hzKwru/&#xD;&#xa;y8JMGMzCWTTMwhgyy8JfssvChsbMwlPgy8Ji4crC3DzLwtg3y8KG2MvCrtnLwiAWzMKoKsvCrOTK&#xD;&#xa;wrNvzMJeK8zCo0HLwrTWysI758vC7kHMwjZyy8Lbs8rCVrnKwpLiysINNMrCWmXKwgZnysJSDcrC&#xD;&#xa;8CTKwk4NysLNzsnC5iDKwpKjy8JOA8vCfjvKwhy9ysLhTMvClBDKwosXysJ+F8vC7IzLwvjXysJu&#xD;&#xa;QsvClBvLwp7ayMJwZcrCTDvKwv+ZycIjIMjCoSjJwmAcy8KTF8vCVl3JwqAyycI4h8nClnjJwg7a&#xD;&#xa;y8LSr8vC/JDLwopSy8IbxMrCFLzMwrCPy8KYuMrCyOTKwrBTy8LeYsvCV8TLwsDkysIy9srCJIHI&#xD;&#xa;wnilx8JUrsjC0ojLwoGmy8KUg8vCXrPKwotiy8I4ZczCCMbLwhi6zML3OM3CyPvMwhT+y8Jt7svC&#xD;&#xa;nDnMwggjysKuTsnCXBfKwuGnysKqHszCqf3NwlLCysKy58nCFPbKwi4WzMIU5MrC3q3IwiRxysII&#xD;&#xa;LczCosPMwgwuzMLCnsrCZozKwvRmysK0+srCaLPJwrpmysIZlMvCWrLLwhZGy8Ki0srCTKvLwhDu&#xD;&#xa;y8Lu2MvCQvLLwl5GzMKAe8vCvKbLwhgszMJ9lMvCanjLwpZjzcJwt8zCYInLwp5Yy8LYLsvChtPK&#xD;&#xa;wqYKy8LZvcvCvC7LwoqOy8IIzMvC0t7KwsI2y8LT9srCjcvJwga+ysJgiMvCwc/Lwho7zMKq4czC&#xD;&#xa;eg7Nwv7HzcKy8szCPPTMwhCazMJ+QczCw9DMwgXqzcLSPM3CgK3Mwi22zsJiGs7CVoTMwsYDzcKM&#xD;&#xa;n83C0MzNwqYVzsLDk8/CxqnPwjDdzsJ6bc/CNjTOwlC8zsJY3c7Ch0HNwkINzsKSr8/CbovOwl4y&#xD;&#xa;zsLbPs7COq3NwhYUz8K4us7CQILNwqhJzsIKYs7CbM/NwqruzcJm/8/CqnfPwvC0zcLFBM7ChXPO&#xD;&#xa;whSQzcIets7C0EPOwhCozcJB9s3CWS7QwgSXz8JOnc3CJJTOwn6KzsJNmc7C4pzNwlpUzsK4aNHC&#xD;&#xa;6n3PwunXzsJqCtDCOgvQwhSFzsJof87C5yHPwoa/zcJ7ic7C8l3OwlDYz8LCms7CIfPOwhDWzcKL&#xD;&#xa;MM3CS1fOwkLUzsI+4c3Cs6LOwqSS0MJOHtLCWhvRwhh+z8JWUs/CKkDOwixyzsLgNM/CUKHPwlO+&#xD;&#xa;z8JYjNDCFW/RwqUJ0sLi1tTCIjrbwkib4cLR3+PCBBHkwrJZ5cJjFuXCDJzkwkg65MK0C+TCeOrj&#xD;&#xa;wlwU5MLKYeTCdG7jwtSG4sImUuPCK+riwg6Q4sIPieTCyhbkwi3K4sLdo+LCPlniwj4E48IgROTC&#xD;&#xa;HKbjwiM34sLYuePCllnkwsxQ48IA+OPCtmjjwvjS48K1z+TC1Kfjwq9i48LOruPC1EPjwq/k4sLy&#xD;&#xa;1OPCbHflwgrk48INhuLC4JPiwukQ4sLw/uLCoK/jwsIc48IqOOLCKWziwttw48JemePCRr3jwift&#xD;&#xa;48J5K+PCco3iwkip4cK0MOTCw3flwvpB48LytuLCULfiwgSg48L/H+PC6ZbkwqQE5MLvB+PCmAvj&#xD;&#xa;wgaY48IVeuPC6GDkwjiY5MKa9OHCDwPhwply4sLU8uHCvmvhwtYH4cIxBuPCvKXjwvpN48L0XOLC&#xD;&#xa;rJzhwhD04MLytOHCW6Tjwr6l4sKE4OHC3g/jwvu848L3OOXCQY/nwmHr58J9RefCqIfmwsqO58Jr&#xD;&#xa;UOjCLurpwowB6cIl/ubCUp3nws4Q6MIcX+nCHVrpwgis5sJ8QubCMLTlwjZS5cKmieXCAqvlwsLg&#xD;&#xa;5MKzc+TCAlblwgEF5sLHlefCbkbnwuyq5cIRWuXCyeTlwmY35sKppuXCxgrmwuYv5sLtP+fCBLfn&#xD;&#xa;wnHm5sIgF+fCZP3mwuJ65sLwBOfC+MTmwv5J5sLQguTCPnHkwtCD5cIlx+bCffbnwjsD5sLdHObC&#xD;&#xa;DSDmwvL55cLh1uXCm4Tz" leadInLength="0/1"  />
            </Keyframes>
           </Parameter>
           </Parameters>
          </GenericEffect>
          <GenericEffect id="4819" name = "Declipper" >
           <Parameters>
           <InterpolatingParam id="4820" interp="linr"  time="0/1" value="-1" leadInLength="0/1"   name="sensitivity"/>
           </Parameters>
          </GenericEffect>
         </Effects>
         <Attributes>
          <Attribute id="4821" value="" name="ident"/>
          <Attribute id="4822" value="48000" name="sampleRate"/>
          <Attribute id="4823" value="16" name="bitDepth"/>
          <Attribute id="4824" value="1" name="gain"/>
          <Attribute id="4825" value="0" name="mixToMono"/>
         </Attributes>
         <MetaData>
          <entry key="WinSubProjectDisplayName" val=""/>
         </MetaData>
        </AMFile>
        <StitchedMedia id="4826" start="817" duration="46" scalar="1/1" mediaStart="1065/1" mediaDuration="46/1" minMediaStart="0/1" >
         <Transformer>
          <VectorParam id="4827"  name="translation">
           <InterpolatingParam id="4828" interp="linr"  time="0/1" value="0" leadInLength="0/1"  />
           <InterpolatingParam id="4829" interp="linr"  time="0/1" value="0" leadInLength="0/1"  />
           <InterpolatingParam id="4830" interp="linr"  time="0/1" value="0" leadInLength="0/1"  />
          </VectorParam>
          <VectorParam id="4831"  name="rotation">
           <InterpolatingParam id="4832" interp="linr"  time="0/1" value="0" leadInLength="0/1"  />
           <InterpolatingParam id="4833" interp="linr"  time="0/1" value="0" leadInLength="0/1"  />
           <InterpolatingParam id="4834" interp="linr"  time="0/1" value="0" leadInLength="0/1"  />
          </VectorParam>
          <VectorParam id="4835"  name="shear">
           <InterpolatingParam id="4836" interp="linr"  time="0/1" value="0" leadInLength="0/1"  />
           <InterpolatingParam id="4837" interp="linr"  time="0/1" value="0" leadInLength="0/1"  />
           <InterpolatingParam id="4838" interp="linr"  time="0/1" value="0" leadInLength="0/1"  />
          </VectorParam>
          <VectorParam id="4839"  name="scale">
           <InterpolatingParam id="4840" interp="linr"  time="0/1" value="1" leadInLength="0/1"  />
           <InterpolatingParam id="4841" interp="linr"  time="0/1" value="1" leadInLength="0/1"  />
           <InterpolatingParam id="4842" interp="linr"  time="0/1" value="1" leadInLength="0/1"  />
          </VectorParam>
          <VectorParam id="4843"  name="anchor">
           <InterpolatingParam id="4844" interp="linr"  time="0/1" value="0" leadInLength="0/1"  />
           <InterpolatingParam id="4845" interp="linr"  time="0/1" value="0" leadInLength="0/1"  />
           <InterpolatingParam id="4846" interp="linr"  time="0/1" value="0" leadInLength="0/1"  />
          </VectorParam>
         </Transformer>
         <Parameters>
          <InterpolatingParam id="4847" interp="linr"  time="0/1" value="1" leadInLength="0/1"  name="cursorOpacity"/>
          <InterpolatingParam id="4848" interp="linr"  time="0/1" value="1" leadInLength="0/1"  name="cursorScale"/>
          <InterpolatingParam id="4849" interp="linr"  name="volume">
           <Keyframes>
           <Keyframe id="4850"  time="0/1" value="1" leadInLength="0/1"  />
           <Keyframe id="4851"  time="250/1" value="1" leadInLength="0/1"  />
           <Keyframe id="4852"  time="251/1" value="0.99255583126550895" leadInLength="0/1"  />
           <Keyframe id="4853"  time="1065/1" value="0.8188585607940444" leadInLength="0/1"  />
           <Keyframe id="4854"  time="1079/1" value="0.99255583126550895" leadInLength="0/1"  />
           <Keyframe id="4855"  time="1888/1" value="0.99255583126550895" leadInLength="0/1"  />
           <Keyframe id="4856"  time="1889/1" value="1" leadInLength="0/1"  />
           </Keyframes>
          </InterpolatingParam>
          <Parameter id="4857"  name="captions"/>
         </Parameters>
         <Effects>
          <GenericEffect id="4858" name = "NoiseReduction" >
           <Parameters>
           <InterpolatingParam id="4859" interp="linr"  time="0/1" value="20" leadInLength="0/1"   name="denoiserAmount"/>
           <InterpolatingParam id="4860" interp="linr"  time="0/1" value="0" leadInLength="0/1"   name="denoiserThreshold"/>
           <Parameter id="4861"   name="noiseProfile">
            <Keyframes>
            <Keyframe id="4862"  time="0/1" value="FBAAAAIAAABErAAAAQIAADOmYsI/y13CPNeLwsehjcK+No/Cm+aOwlHvjcIja5HCun6XwoKemMJy&#xD;&#xa;lpPCuQeRwhgMlcJGdZvCTjScwgFMncIGh5zCGrOawuO0nMJdJZ3Cybudwo6toMIdraPCs/6jwpY0&#xD;&#xa;psLIUqjCWQmpwonmp8KcE6XCgXGlwqC+psIFHabCBoyownWvqcIkX6jCgnCpwms3qsIW0KfCM7Oj&#xD;&#xa;wnGLosJgcKnCdk6swiIgscKFrbDCtNmowrZmpcIHYqjCCg2pwqUNq8KgHq7ChEGxwhVFs8KU6LLC&#xD;&#xa;dvWzwpVHscI6NrDCMpGwwubcs8Imh7bCPKq6wj7tvMKSbr3ClsG+wq4qwMLXQr7CpAK5whxiuMJp&#xD;&#xa;v7nCwu29wloQvsIXTL3CzjDAwsDTwcL69sHC8urAwtAFwMIkSMLCpJHDwjLOw8JG8sTCmMvDwq7H&#xD;&#xa;wsLOncPC+CDDwkh6wsLU5sPCP23Fwm5Qx8KlYsTCm0XCwnhexcLsTsPCSMPDwjvJw8LMWcHC2XHD&#xD;&#xa;wjj5wsICs8TChWvEwgCywcKDdcHCFnHCwurMxMLlVsTCfrDGwmzqyMKoGsfC7ITIwtqRyMJwzcbC&#xD;&#xa;ppbEwiv5xcIXxsTCzDfCwtSExMKEjcTC8ObDwiJ9yMIQm8vCIkDGwqHyxcIyYcbCyAXIwmyBx8I4&#xD;&#xa;n8PCvyPGwuiKxMJggMfCdL3JwsMhysLi6sXCRa7Ewoykx8Jk/MXC0NfEwtK0xcJQTMTCvvvGwtqJ&#xD;&#xa;xMKmFsTCSbfGwq76x8IQ+sjCsqnIwkJdycIaT8fC0nbHwlf2xsLg/cbCtIHHwsTvxsI0KsbCsqDH&#xD;&#xa;wgLix8JGKcXCyNTDwjDwwsIb98bC6MjJwg6Zy8Kg+cvCaC3HwtIgw8KW7sXC3EHGwmcUxcL++8fC&#xD;&#xa;CWbIwsDoxsJFz8PCJkXFwiD7xcIQDsfC8ljIwrDLxMKkeMLClpHEwiqgyMJcjcjC6krGwl50w8Iy&#xD;&#xa;7sXCWv3HwkQ1xsKUwMPC2K/EwootxMJUqMTCH3LDwuojxcKil8fCjmXIwkLJxcID78TClTvGwhel&#xD;&#xa;xsIca8bC1rbCwk6+wsIQfsfCIlPHwpJExcLWhMbCDNvEwuryxMKklMXCeBDDwolhwcIiasLCQYfE&#xD;&#xa;whUfwsJx4MTCsEnIwkX0xcK+3sbCIqLHwrARx8IWtMTCGAnFwomNxMLfbcTCQIPDwjqww8L+MMTC&#xD;&#xa;mqjHwrBaxMI6YsTCxmvIwqyKycKQaMXCnx7FwkYvx8In6sjCGMzIwuvAxcL8a8XCiBjJwkvwyMKI&#xD;&#xa;qMbCTCTIwvQSy8IxEsvCVT/JwrI3w8LA8sLCCD7EwsxXxMJSjsXCfjXFwqTKxMI/gsPCDozDwtwF&#xD;&#xa;xMISn8bChHvJwlFQyMJYCsbCP4jIwtkBycLiFsrCbCrKwvyTysIWncnC+A3HwuI5x8I8/MbC0hHI&#xD;&#xa;wopJzMLmb83CFkvMwpy/y8Kn7MrCfJrJwuLDyMJKn8bCStTGwpb7ycIMo8nCcivFwsapxcJkx8bC&#xD;&#xa;ALLIwriaycJM3cfC8r/KwlSoy8I4A8vCpFHJwkRrzMIKr87CWD7MwsiJycKW9cfCUjbKwq+YycLi&#xD;&#xa;U8jCROHHwhdWycKaU8nCF7jMwmKaz8L//8zC8tjOwjxezsIUysvCzHLJwiJryMLRm8bCgLjKwsi8&#xD;&#xa;ysIhfszCPETLwqtbyMJGeMfCpRPJwnwZzMJSIs3CqhPMwmDiyMLZYsjCz13KwgwKy8LCi8jCyrTM&#xD;&#xa;wgwxzMK4ZcvC087JwkV2xsLyXsnCjIbLwhwvzcLfrM7CeITKwla3ysLK3cnC/PHFwpScxcIUQ8nC&#xD;&#xa;NJzIwrEsxsJvZcfCXSvIwlKLx8JII8nCvgzKwpnhysJSC8vC9iTKwiA/y8IadczCuDrMwuVaysLO&#xD;&#xa;r8vCXtfJwrZ6ycItucnCtonJwjyTysJkC83CL0nMwkjdyMIBucfCixrLwvSDysKGX8nCsCzMwuas&#xD;&#xa;0cIsnNPCuEvOwtr5y8LMBc7Cr+PTwsQc5MLcOfPCKOj0wjr59cJ0C/fCzg75wkwh+8LmVPnCqz72&#xD;&#xa;wnB+9cLuJvrCtEL4wkp7+MLOfffCDN3zwkaz9sLi8vjCFKr6wgIQ+cI8iPjCBpT4wvR1+MLQI/rC&#xD;&#xa;Ihn8wlQg+sIcLvjCVCz2wsI49MJQ9fbC23H3woy69sL4BfnCIOb2wjwy9cIuGvnCdmb3wj7K9MI+&#xD;&#xa;KPXCJpr2wn7C9cKQDvnCthv7woaP+cLGaPbCTr32wrpN+cIFSPjCDvX4wtD39sJY//TCKGf3wvZI&#xD;&#xa;+cK9YvfCgYf3wjIf+sLMMvfCpjz2wuA6+cII8vbCxDv1wmJG9sLka/rCPrT1wi589cLqjfbC9qP4&#xD;&#xa;wgzJ+MLelPbCGir2wlBC9sKeU/jC/nn3wsYn9sL4QPjCXBj5wopQ+MIaJvnCSB36wgjc+MIMfPfC&#xD;&#xa;W+z1wmYG+MKuxPnCCuD1wjh+9sLDrPfCOPj3wm7h+MJjMvfCxH/2wsXf98KwN/nCKOn5wrLR+sKg&#xD;&#xa;bPvCkFv5wsAu+cL2hffCySz2wmRX+MKiiPjCzFX4wvjB98Jgz/fCxPT4wobP+cL8avjC9r34wnKx&#xD;&#xa;+MK+LPnC3H34wle39cKejfbCNKP2wg5B9sK0H/rCSvz2woqE98JAqfjCBPL4wmKi+MIu2/jCMFD5&#xD;&#xa;wiCM+cKo//nCGqz7wlZN+sKUDfjC0ov4wrIU+sIVpffCP2/3woye98KktPbCTJj2wpH29cL3mvbC&#xD;&#xa;jL/4wti/+MLm3vjCQ9QEwzOmYsI/y13CPNeLwsehjcK+No/Cm+aOwlHvjcIja5HCun6XwoKemMJy&#xD;&#xa;lpPCuQeRwhgMlcJGdZvCTjScwgFMncIGh5zCGrOawuO0nMJdJZ3Cybudwo6toMIdraPCs/6jwpY0&#xD;&#xa;psLIUqjCWQmpwonmp8KcE6XCgXGlwqC+psIFHabCBoyownWvqcIkX6jCgnCpwms3qsIW0KfCM7Oj&#xD;&#xa;wnGLosJgcKnCdk6swiIgscKFrbDCtNmowrZmpcIHYqjCCg2pwqUNq8KgHq7ChEGxwhVFs8KU6LLC&#xD;&#xa;dvWzwpVHscI6NrDCMpGwwubcs8Imh7bCPKq6wj7tvMKSbr3ClsG+wq4qwMLXQr7CpAK5whxiuMJp&#xD;&#xa;v7nCwu29wloQvsIXTL3CzjDAwsDTwcL69sHC8urAwtAFwMIkSMLCpJHDwjLOw8JG8sTCmMvDwq7H&#xD;&#xa;wsLOncPC+CDDwkh6wsLU5sPCP23Fwm5Qx8KlYsTCm0XCwnhexcLsTsPCSMPDwjvJw8LMWcHC2XHD&#xD;&#xa;wjj5wsICs8TChWvEwgCywcKDdcHCFnHCwurMxMLlVsTCfrDGwmzqyMKoGsfC7ITIwtqRyMJwzcbC&#xD;&#xa;ppbEwiv5xcIXxsTCzDfCwtSExMKEjcTC8ObDwiJ9yMIQm8vCIkDGwqHyxcIyYcbCyAXIwmyBx8I4&#xD;&#xa;n8PCvyPGwuiKxMJggMfCdL3JwsMhysLi6sXCRa7Ewoykx8Jk/MXC0NfEwtK0xcJQTMTCvvvGwtqJ&#xD;&#xa;xMKmFsTCSbfGwq76x8IQ+sjCsqnIwkJdycIaT8fC0nbHwlf2xsLg/cbCtIHHwsTvxsI0KsbCsqDH&#xD;&#xa;wgLix8JGKcXCyNTDwjDwwsIb98bC6MjJwg6Zy8Kg+cvCaC3HwtIgw8KW7sXC3EHGwmcUxcL++8fC&#xD;&#xa;CWbIwsDoxsJFz8PCJkXFwiD7xcIQDsfC8ljIwrDLxMKkeMLClpHEwiqgyMJcjcjC6krGwl50w8Iy&#xD;&#xa;7sXCWv3HwkQ1xsKUwMPC2K/EwootxMJUqMTCH3LDwuojxcKil8fCjmXIwkLJxcID78TClTvGwhel&#xD;&#xa;xsIca8bC1rbCwk6+wsIQfsfCIlPHwpJExcLWhMbCDNvEwuryxMKklMXCeBDDwolhwcIiasLCQYfE&#xD;&#xa;whUfwsJx4MTCsEnIwkX0xcK+3sbCIqLHwrARx8IWtMTCGAnFwomNxMLfbcTCQIPDwjqww8L+MMTC&#xD;&#xa;mqjHwrBaxMI6YsTCxmvIwqyKycKQaMXCnx7FwkYvx8In6sjCGMzIwuvAxcL8a8XCiBjJwkvwyMKI&#xD;&#xa;qMbCTCTIwvQSy8IxEsvCVT/JwrI3w8LA8sLCCD7EwsxXxMJSjsXCfjXFwqTKxMI/gsPCDozDwtwF&#xD;&#xa;xMISn8bChHvJwlFQyMJYCsbCP4jIwtkBycLiFsrCbCrKwvyTysIWncnC+A3HwuI5x8I8/MbC0hHI&#xD;&#xa;wopJzMLmb83CFkvMwpy/y8Kn7MrCfJrJwuLDyMJKn8bCStTGwpb7ycIMo8nCcivFwsapxcJkx8bC&#xD;&#xa;ALLIwriaycJM3cfC8r/KwlSoy8I4A8vCpFHJwkRrzMIKr87CWD7MwsiJycKW9cfCUjbKwq+YycLi&#xD;&#xa;U8jCROHHwhdWycKaU8nCF7jMwmKaz8L//8zC8tjOwjxezsIUysvCzHLJwiJryMLRm8bCgLjKwsi8&#xD;&#xa;ysIhfszCPETLwqtbyMJGeMfCpRPJwnwZzMJSIs3CqhPMwmDiyMLZYsjCz13KwgwKy8LCi8jCyrTM&#xD;&#xa;wgwxzMK4ZcvC087JwkV2xsLyXsnCjIbLwhwvzcLfrM7CeITKwla3ysLK3cnC/PHFwpScxcIUQ8nC&#xD;&#xa;NJzIwrEsxsJvZcfCXSvIwlKLx8JII8nCvgzKwpnhysJSC8vC9iTKwiA/y8IadczCuDrMwuVaysLO&#xD;&#xa;r8vCXtfJwrZ6ycItucnCtonJwjyTysJkC83CL0nMwkjdyMIBucfCixrLwvSDysKGX8nCsCzMwuas&#xD;&#xa;0cIsnNPCuEvOwtr5y8LMBc7Cr+PTwsQc5MLcOfPCKOj0wjr59cJ0C/fCzg75wkwh+8LmVPnCqz72&#xD;&#xa;wnB+9cLuJvrCtEL4wkp7+MLOfffCDN3zwkaz9sLi8vjCFKr6wgIQ+cI8iPjCBpT4wvR1+MLQI/rC&#xD;&#xa;Ihn8wlQg+sIcLvjCVCz2wsI49MJQ9fbC23H3woy69sL4BfnCIOb2wjwy9cIuGvnCdmb3wj7K9MI+&#xD;&#xa;KPXCJpr2wn7C9cKQDvnCthv7woaP+cLGaPbCTr32wrpN+cIFSPjCDvX4wtD39sJY//TCKGf3wvZI&#xD;&#xa;+cK9YvfCgYf3wjIf+sLMMvfCpjz2wuA6+cII8vbCxDv1wmJG9sLka/rCPrT1wi589cLqjfbC9qP4&#xD;&#xa;wgzJ+MLelPbCGir2wlBC9sKeU/jC/nn3wsYn9sL4QPjCXBj5wopQ+MIaJvnCSB36wgjc+MIMfPfC&#xD;&#xa;W+z1wmYG+MKuxPnCCuD1wjh+9sLDrPfCOPj3wm7h+MJjMvfCxH/2wsXf98KwN/nCKOn5wrLR+sKg&#xD;&#xa;bPvCkFv5wsAu+cL2hffCySz2wmRX+MKiiPjCzFX4wvjB98Jgz/fCxPT4wobP+cL8avjC9r34wnKx&#xD;&#xa;+MK+LPnC3H34wle39cKejfbCNKP2wg5B9sK0H/rCSvz2woqE98JAqfjCBPL4wmKi+MIu2/jCMFD5&#xD;&#xa;wiCM+cKo//nCGqz7wlZN+sKUDfjC0ov4wrIU+sIVpffCP2/3woye98KktPbCTJj2wpH29cL3mvbC&#xD;&#xa;jL/4wti/+MLm3vjCQ9QE" leadInLength="0/1"  />
            </Keyframes>
           </Parameter>
           </Parameters>
          </GenericEffect>
          <GenericEffect id="4863" name = "WinCompression" >
           <Parameters>
           <InterpolatingParam id="4864" interp="linr"  time="0/1" value="0" leadInLength="0/1"   name="attack"/>
           <InterpolatingParam id="4865" interp="linr"  time="0/1" value="9" leadInLength="0/1"   name="gain"/>
           <Parameter id="4866"   name="preset">
            <Keyframes>
            <Keyframe id="4867"  time="0/1" value="1" leadInLength="0/1"  />
            </Keyframes>
           </Parameter>
           <InterpolatingParam id="4868" interp="linr"  time="0/1" value="10" leadInLength="0/1"   name="ratio"/>
           <InterpolatingParam id="4869" interp="linr"  time="0/1" value="3500" leadInLength="0/1"   name="release"/>
           <InterpolatingParam id="4870" interp="linr"  time="0/1" value="-20" leadInLength="0/1"   name="threshold"/>
           </Parameters>
          </GenericEffect>
          <GenericEffect id="4871" name = "Declipper" >
           <Parameters>
           <InterpolatingParam id="4872" interp="linr"  time="0/1" value="-1" leadInLength="0/1"   name="sensitivity"/>
           </Parameters>
          </GenericEffect>
          <GenericEffect id="4873" name = "Declicker" >
           <Parameters>
           <InterpolatingParam id="4874" interp="linr"  time="0/1" value="3" leadInLength="0/1"   name="sensitivity"/>
           </Parameters>
          </GenericEffect>
         </Effects>
         <Attributes>
          <Attribute id="4875" value="" name="ident"/>
          <Attribute id="4876" value="0" name="mixToMono"/>
         </Attributes>
         <MetaData>
          <entry key="WinSubProjectDisplayName" val=""/>
         </MetaData>
         <ExtraData>
          <Entry key="ZoomPanBin">
           <ZoomPanBin id="4877"  >
            <ZoomPanKeyframes>
            </ZoomPanKeyframes>
           </ZoomPanBin>
          </Entry>
          <Entry key="CursorEffectBin">
           <CursorEffectBin id="4878"  >
            <CursorEffectKeyframes>
            </CursorEffectKeyframes>
           </CursorEffectBin>
          </Entry>
         </ExtraData>
         <GenericTrack id="4879"  >
          <Attributes>
           <Attribute id="4880" value="" name="ident"/>
           <Attribute id="4881" value="0" name="audioMuted"/>
           <Attribute id="4882" value="0" name="videoHidden"/>
          </Attributes>
          <MetaData>
           <entry key="IsLocked" val="False"/>
           <entry key="WinTrackHeight" val="0"/>
          </MetaData>
          <Medias>
           <AMFile id="4883" start="0" duration="582" scalar="1/1" mediaStart="0/1" mediaDuration="582/1" trackNumber="0" src="22" channelNumber="0" >
            <Parameters>
             <InterpolatingParam id="4884" interp="linr"  time="0/1" value="1" leadInLength="0/1"  name="volume"/>
             <Parameter id="4885"  name="captions"/>
            </Parameters>
            <Attributes>
             <Attribute id="4886" value="" name="ident"/>
             <Attribute id="4887" value="44100" name="sampleRate"/>
             <Attribute id="4888" value="16" name="bitDepth"/>
             <Attribute id="4889" value="1" name="gain"/>
             <Attribute id="4890" value="0" name="mixToMono"/>
            </Attributes>
            <MetaData>
             <entry key="WinSubProjectDisplayName" val=""/>
            </MetaData>
           </AMFile>
           <AMFile id="4891" start="582" duration="769" scalar="1/1" mediaStart="971/1" mediaDuration="769/1" trackNumber="0" src="22" channelNumber="0" >
            <Parameters>
             <InterpolatingParam id="4892" interp="linr"  time="0/1" value="1" leadInLength="0/1"  name="volume"/>
             <Parameter id="4893"  name="captions"/>
            </Parameters>
            <Attributes>
             <Attribute id="4894" value="" name="ident"/>
             <Attribute id="4895" value="44100" name="sampleRate"/>
             <Attribute id="4896" value="16" name="bitDepth"/>
             <Attribute id="4897" value="1" name="gain"/>
             <Attribute id="4898" value="0" name="mixToMono"/>
            </Attributes>
            <MetaData>
             <entry key="WinSubProjectDisplayName" val=""/>
            </MetaData>
           </AMFile>
           <AMFile id="4899" start="1351" duration="135" scalar="1/1" mediaStart="1744/1" mediaDuration="135/1" trackNumber="0" src="22" channelNumber="0" >
            <Parameters>
             <InterpolatingParam id="4900" interp="linr"  time="0/1" value="1" leadInLength="0/1"  name="volume"/>
             <Parameter id="4901"  name="captions"/>
            </Parameters>
            <Attributes>
             <Attribute id="4902" value="" name="ident"/>
             <Attribute id="4903" value="44100" name="sampleRate"/>
             <Attribute id="4904" value="16" name="bitDepth"/>
             <Attribute id="4905" value="1" name="gain"/>
             <Attribute id="4906" value="0" name="mixToMono"/>
            </Attributes>
            <MetaData>
             <entry key="WinSubProjectDisplayName" val=""/>
            </MetaData>
           </AMFile>
           <AMFile id="4907" start="1486" duration="165" scalar="1/1" mediaStart="1884/1" mediaDuration="165/1" trackNumber="0" src="22" channelNumber="0" >
            <Parameters>
             <InterpolatingParam id="4908" interp="linr"  time="0/1" value="1" leadInLength="0/1"  name="volume"/>
             <Parameter id="4909"  name="captions"/>
            </Parameters>
            <Attributes>
             <Attribute id="4910" value="" name="ident"/>
             <Attribute id="4911" value="44100" name="sampleRate"/>
             <Attribute id="4912" value="16" name="bitDepth"/>
             <Attribute id="4913" value="1" name="gain"/>
             <Attribute id="4914" value="0" name="mixToMono"/>
            </Attributes>
            <MetaData>
             <entry key="WinSubProjectDisplayName" val=""/>
            </MetaData>
           </AMFile>
           <AMFile id="4915" start="1651" duration="2" scalar="1/1" mediaStart="2164/1" mediaDuration="2/1" trackNumber="0" src="22" channelNumber="0" >
            <Parameters>
             <InterpolatingParam id="4916" interp="linr"  time="0/1" value="1" leadInLength="0/1"  name="volume"/>
             <Parameter id="4917"  name="captions"/>
            </Parameters>
            <Attributes>
             <Attribute id="4918" value="" name="ident"/>
             <Attribute id="4919" value="44100" name="sampleRate"/>
             <Attribute id="4920" value="16" name="bitDepth"/>
             <Attribute id="4921" value="1" name="gain"/>
             <Attribute id="4922" value="0" name="mixToMono"/>
            </Attributes>
            <MetaData>
             <entry key="WinSubProjectDisplayName" val=""/>
            </MetaData>
           </AMFile>
           <AMFile id="4923" start="1653" duration="12072" scalar="1/1" mediaStart="2496/1" mediaDuration="12072/1" trackNumber="0" src="22" channelNumber="0" >
            <Parameters>
             <InterpolatingParam id="4924" interp="linr"  time="0/1" value="1" leadInLength="0/1"  name="volume"/>
             <Parameter id="4925"  name="captions"/>
            </Parameters>
            <Attributes>
             <Attribute id="4926" value="" name="ident"/>
             <Attribute id="4927" value="44100" name="sampleRate"/>
             <Attribute id="4928" value="16" name="bitDepth"/>
             <Attribute id="4929" value="1" name="gain"/>
             <Attribute id="4930" value="0" name="mixToMono"/>
            </Attributes>
            <MetaData>
             <entry key="WinSubProjectDisplayName" val=""/>
            </MetaData>
           </AMFile>
          </Medias>
         </GenericTrack>
        </StitchedMedia>
        <StitchedMedia id="4931" start="863" duration="84" scalar="1/1" mediaStart="1111/1" mediaDuration="84/1" minMediaStart="0/1" >
         <Transformer>
          <VectorParam id="4932"  name="translation">
           <InterpolatingParam id="4933" interp="linr"  time="0/1" value="0" leadInLength="0/1"  />
           <InterpolatingParam id="4934" interp="linr"  time="0/1" value="0" leadInLength="0/1"  />
           <InterpolatingParam id="4935" interp="linr"  time="0/1" value="0" leadInLength="0/1"  />
          </VectorParam>
          <VectorParam id="4936"  name="rotation">
           <InterpolatingParam id="4937" interp="linr"  time="0/1" value="0" leadInLength="0/1"  />
           <InterpolatingParam id="4938" interp="linr"  time="0/1" value="0" leadInLength="0/1"  />
           <InterpolatingParam id="4939" interp="linr"  time="0/1" value="0" leadInLength="0/1"  />
          </VectorParam>
          <VectorParam id="4940"  name="shear">
           <InterpolatingParam id="4941" interp="linr"  time="0/1" value="0" leadInLength="0/1"  />
           <InterpolatingParam id="4942" interp="linr"  time="0/1" value="0" leadInLength="0/1"  />
           <InterpolatingParam id="4943" interp="linr"  time="0/1" value="0" leadInLength="0/1"  />
          </VectorParam>
          <VectorParam id="4944"  name="scale">
           <InterpolatingParam id="4945" interp="linr"  time="0/1" value="1" leadInLength="0/1"  />
           <InterpolatingParam id="4946" interp="linr"  time="0/1" value="1" leadInLength="0/1"  />
           <InterpolatingParam id="4947" interp="linr"  time="0/1" value="1" leadInLength="0/1"  />
          </VectorParam>
          <VectorParam id="4948"  name="anchor">
           <InterpolatingParam id="4949" interp="linr"  time="0/1" value="0" leadInLength="0/1"  />
           <InterpolatingParam id="4950" interp="linr"  time="0/1" value="0" leadInLength="0/1"  />
           <InterpolatingParam id="4951" interp="linr"  time="0/1" value="0" leadInLength="0/1"  />
          </VectorParam>
         </Transformer>
         <Parameters>
          <InterpolatingParam id="4952" interp="linr"  time="0/1" value="1" leadInLength="0/1"  name="cursorOpacity"/>
          <InterpolatingParam id="4953" interp="linr"  time="0/1" value="1" leadInLength="0/1"  name="cursorScale"/>
          <InterpolatingParam id="4954" interp="linr"  name="volume">
           <Keyframes>
           <Keyframe id="4955"  time="0/1" value="1" leadInLength="0/1"  />
           <Keyframe id="4956"  time="250/1" value="1" leadInLength="0/1"  />
           <Keyframe id="4957"  time="251/1" value="0.99255583126550895" leadInLength="0/1"  />
           <Keyframe id="4958"  time="1065/1" value="0.8188585607940444" leadInLength="0/1"  />
           <Keyframe id="4959"  time="1079/1" value="0.99255583126550895" leadInLength="0/1"  />
           <Keyframe id="4960"  time="1888/1" value="0.99255583126550895" leadInLength="0/1"  />
           <Keyframe id="4961"  time="1889/1" value="1" leadInLength="0/1"  />
           </Keyframes>
          </InterpolatingParam>
          <Parameter id="4962"  name="captions"/>
         </Parameters>
         <Effects>
          <GenericEffect id="4963" name = "NoiseReduction" >
           <Parameters>
           <InterpolatingParam id="4964" interp="linr"  time="0/1" value="20" leadInLength="0/1"   name="denoiserAmount"/>
           <InterpolatingParam id="4965" interp="linr"  time="0/1" value="0" leadInLength="0/1"   name="denoiserThreshold"/>
           <Parameter id="4966"   name="noiseProfile">
            <Keyframes>
            <Keyframe id="4967"  time="0/1" value="FBAAAAIAAABErAAAAQIAADOmYsI/y13CPNeLwsehjcK+No/Cm+aOwlHvjcIja5HCun6XwoKemMJy&#xD;&#xa;lpPCuQeRwhgMlcJGdZvCTjScwgFMncIGh5zCGrOawuO0nMJdJZ3Cybudwo6toMIdraPCs/6jwpY0&#xD;&#xa;psLIUqjCWQmpwonmp8KcE6XCgXGlwqC+psIFHabCBoyownWvqcIkX6jCgnCpwms3qsIW0KfCM7Oj&#xD;&#xa;wnGLosJgcKnCdk6swiIgscKFrbDCtNmowrZmpcIHYqjCCg2pwqUNq8KgHq7ChEGxwhVFs8KU6LLC&#xD;&#xa;dvWzwpVHscI6NrDCMpGwwubcs8Imh7bCPKq6wj7tvMKSbr3ClsG+wq4qwMLXQr7CpAK5whxiuMJp&#xD;&#xa;v7nCwu29wloQvsIXTL3CzjDAwsDTwcL69sHC8urAwtAFwMIkSMLCpJHDwjLOw8JG8sTCmMvDwq7H&#xD;&#xa;wsLOncPC+CDDwkh6wsLU5sPCP23Fwm5Qx8KlYsTCm0XCwnhexcLsTsPCSMPDwjvJw8LMWcHC2XHD&#xD;&#xa;wjj5wsICs8TChWvEwgCywcKDdcHCFnHCwurMxMLlVsTCfrDGwmzqyMKoGsfC7ITIwtqRyMJwzcbC&#xD;&#xa;ppbEwiv5xcIXxsTCzDfCwtSExMKEjcTC8ObDwiJ9yMIQm8vCIkDGwqHyxcIyYcbCyAXIwmyBx8I4&#xD;&#xa;n8PCvyPGwuiKxMJggMfCdL3JwsMhysLi6sXCRa7Ewoykx8Jk/MXC0NfEwtK0xcJQTMTCvvvGwtqJ&#xD;&#xa;xMKmFsTCSbfGwq76x8IQ+sjCsqnIwkJdycIaT8fC0nbHwlf2xsLg/cbCtIHHwsTvxsI0KsbCsqDH&#xD;&#xa;wgLix8JGKcXCyNTDwjDwwsIb98bC6MjJwg6Zy8Kg+cvCaC3HwtIgw8KW7sXC3EHGwmcUxcL++8fC&#xD;&#xa;CWbIwsDoxsJFz8PCJkXFwiD7xcIQDsfC8ljIwrDLxMKkeMLClpHEwiqgyMJcjcjC6krGwl50w8Iy&#xD;&#xa;7sXCWv3HwkQ1xsKUwMPC2K/EwootxMJUqMTCH3LDwuojxcKil8fCjmXIwkLJxcID78TClTvGwhel&#xD;&#xa;xsIca8bC1rbCwk6+wsIQfsfCIlPHwpJExcLWhMbCDNvEwuryxMKklMXCeBDDwolhwcIiasLCQYfE&#xD;&#xa;whUfwsJx4MTCsEnIwkX0xcK+3sbCIqLHwrARx8IWtMTCGAnFwomNxMLfbcTCQIPDwjqww8L+MMTC&#xD;&#xa;mqjHwrBaxMI6YsTCxmvIwqyKycKQaMXCnx7FwkYvx8In6sjCGMzIwuvAxcL8a8XCiBjJwkvwyMKI&#xD;&#xa;qMbCTCTIwvQSy8IxEsvCVT/JwrI3w8LA8sLCCD7EwsxXxMJSjsXCfjXFwqTKxMI/gsPCDozDwtwF&#xD;&#xa;xMISn8bChHvJwlFQyMJYCsbCP4jIwtkBycLiFsrCbCrKwvyTysIWncnC+A3HwuI5x8I8/MbC0hHI&#xD;&#xa;wopJzMLmb83CFkvMwpy/y8Kn7MrCfJrJwuLDyMJKn8bCStTGwpb7ycIMo8nCcivFwsapxcJkx8bC&#xD;&#xa;ALLIwriaycJM3cfC8r/KwlSoy8I4A8vCpFHJwkRrzMIKr87CWD7MwsiJycKW9cfCUjbKwq+YycLi&#xD;&#xa;U8jCROHHwhdWycKaU8nCF7jMwmKaz8L//8zC8tjOwjxezsIUysvCzHLJwiJryMLRm8bCgLjKwsi8&#xD;&#xa;ysIhfszCPETLwqtbyMJGeMfCpRPJwnwZzMJSIs3CqhPMwmDiyMLZYsjCz13KwgwKy8LCi8jCyrTM&#xD;&#xa;wgwxzMK4ZcvC087JwkV2xsLyXsnCjIbLwhwvzcLfrM7CeITKwla3ysLK3cnC/PHFwpScxcIUQ8nC&#xD;&#xa;NJzIwrEsxsJvZcfCXSvIwlKLx8JII8nCvgzKwpnhysJSC8vC9iTKwiA/y8IadczCuDrMwuVaysLO&#xD;&#xa;r8vCXtfJwrZ6ycItucnCtonJwjyTysJkC83CL0nMwkjdyMIBucfCixrLwvSDysKGX8nCsCzMwuas&#xD;&#xa;0cIsnNPCuEvOwtr5y8LMBc7Cr+PTwsQc5MLcOfPCKOj0wjr59cJ0C/fCzg75wkwh+8LmVPnCqz72&#xD;&#xa;wnB+9cLuJvrCtEL4wkp7+MLOfffCDN3zwkaz9sLi8vjCFKr6wgIQ+cI8iPjCBpT4wvR1+MLQI/rC&#xD;&#xa;Ihn8wlQg+sIcLvjCVCz2wsI49MJQ9fbC23H3woy69sL4BfnCIOb2wjwy9cIuGvnCdmb3wj7K9MI+&#xD;&#xa;KPXCJpr2wn7C9cKQDvnCthv7woaP+cLGaPbCTr32wrpN+cIFSPjCDvX4wtD39sJY//TCKGf3wvZI&#xD;&#xa;+cK9YvfCgYf3wjIf+sLMMvfCpjz2wuA6+cII8vbCxDv1wmJG9sLka/rCPrT1wi589cLqjfbC9qP4&#xD;&#xa;wgzJ+MLelPbCGir2wlBC9sKeU/jC/nn3wsYn9sL4QPjCXBj5wopQ+MIaJvnCSB36wgjc+MIMfPfC&#xD;&#xa;W+z1wmYG+MKuxPnCCuD1wjh+9sLDrPfCOPj3wm7h+MJjMvfCxH/2wsXf98KwN/nCKOn5wrLR+sKg&#xD;&#xa;bPvCkFv5wsAu+cL2hffCySz2wmRX+MKiiPjCzFX4wvjB98Jgz/fCxPT4wobP+cL8avjC9r34wnKx&#xD;&#xa;+MK+LPnC3H34wle39cKejfbCNKP2wg5B9sK0H/rCSvz2woqE98JAqfjCBPL4wmKi+MIu2/jCMFD5&#xD;&#xa;wiCM+cKo//nCGqz7wlZN+sKUDfjC0ov4wrIU+sIVpffCP2/3woye98KktPbCTJj2wpH29cL3mvbC&#xD;&#xa;jL/4wti/+MLm3vjCQ9QEwzOmYsI/y13CPNeLwsehjcK+No/Cm+aOwlHvjcIja5HCun6XwoKemMJy&#xD;&#xa;lpPCuQeRwhgMlcJGdZvCTjScwgFMncIGh5zCGrOawuO0nMJdJZ3Cybudwo6toMIdraPCs/6jwpY0&#xD;&#xa;psLIUqjCWQmpwonmp8KcE6XCgXGlwqC+psIFHabCBoyownWvqcIkX6jCgnCpwms3qsIW0KfCM7Oj&#xD;&#xa;wnGLosJgcKnCdk6swiIgscKFrbDCtNmowrZmpcIHYqjCCg2pwqUNq8KgHq7ChEGxwhVFs8KU6LLC&#xD;&#xa;dvWzwpVHscI6NrDCMpGwwubcs8Imh7bCPKq6wj7tvMKSbr3ClsG+wq4qwMLXQr7CpAK5whxiuMJp&#xD;&#xa;v7nCwu29wloQvsIXTL3CzjDAwsDTwcL69sHC8urAwtAFwMIkSMLCpJHDwjLOw8JG8sTCmMvDwq7H&#xD;&#xa;wsLOncPC+CDDwkh6wsLU5sPCP23Fwm5Qx8KlYsTCm0XCwnhexcLsTsPCSMPDwjvJw8LMWcHC2XHD&#xD;&#xa;wjj5wsICs8TChWvEwgCywcKDdcHCFnHCwurMxMLlVsTCfrDGwmzqyMKoGsfC7ITIwtqRyMJwzcbC&#xD;&#xa;ppbEwiv5xcIXxsTCzDfCwtSExMKEjcTC8ObDwiJ9yMIQm8vCIkDGwqHyxcIyYcbCyAXIwmyBx8I4&#xD;&#xa;n8PCvyPGwuiKxMJggMfCdL3JwsMhysLi6sXCRa7Ewoykx8Jk/MXC0NfEwtK0xcJQTMTCvvvGwtqJ&#xD;&#xa;xMKmFsTCSbfGwq76x8IQ+sjCsqnIwkJdycIaT8fC0nbHwlf2xsLg/cbCtIHHwsTvxsI0KsbCsqDH&#xD;&#xa;wgLix8JGKcXCyNTDwjDwwsIb98bC6MjJwg6Zy8Kg+cvCaC3HwtIgw8KW7sXC3EHGwmcUxcL++8fC&#xD;&#xa;CWbIwsDoxsJFz8PCJkXFwiD7xcIQDsfC8ljIwrDLxMKkeMLClpHEwiqgyMJcjcjC6krGwl50w8Iy&#xD;&#xa;7sXCWv3HwkQ1xsKUwMPC2K/EwootxMJUqMTCH3LDwuojxcKil8fCjmXIwkLJxcID78TClTvGwhel&#xD;&#xa;xsIca8bC1rbCwk6+wsIQfsfCIlPHwpJExcLWhMbCDNvEwuryxMKklMXCeBDDwolhwcIiasLCQYfE&#xD;&#xa;whUfwsJx4MTCsEnIwkX0xcK+3sbCIqLHwrARx8IWtMTCGAnFwomNxMLfbcTCQIPDwjqww8L+MMTC&#xD;&#xa;mqjHwrBaxMI6YsTCxmvIwqyKycKQaMXCnx7FwkYvx8In6sjCGMzIwuvAxcL8a8XCiBjJwkvwyMKI&#xD;&#xa;qMbCTCTIwvQSy8IxEsvCVT/JwrI3w8LA8sLCCD7EwsxXxMJSjsXCfjXFwqTKxMI/gsPCDozDwtwF&#xD;&#xa;xMISn8bChHvJwlFQyMJYCsbCP4jIwtkBycLiFsrCbCrKwvyTysIWncnC+A3HwuI5x8I8/MbC0hHI&#xD;&#xa;wopJzMLmb83CFkvMwpy/y8Kn7MrCfJrJwuLDyMJKn8bCStTGwpb7ycIMo8nCcivFwsapxcJkx8bC&#xD;&#xa;ALLIwriaycJM3cfC8r/KwlSoy8I4A8vCpFHJwkRrzMIKr87CWD7MwsiJycKW9cfCUjbKwq+YycLi&#xD;&#xa;U8jCROHHwhdWycKaU8nCF7jMwmKaz8L//8zC8tjOwjxezsIUysvCzHLJwiJryMLRm8bCgLjKwsi8&#xD;&#xa;ysIhfszCPETLwqtbyMJGeMfCpRPJwnwZzMJSIs3CqhPMwmDiyMLZYsjCz13KwgwKy8LCi8jCyrTM&#xD;&#xa;wgwxzMK4ZcvC087JwkV2xsLyXsnCjIbLwhwvzcLfrM7CeITKwla3ysLK3cnC/PHFwpScxcIUQ8nC&#xD;&#xa;NJzIwrEsxsJvZcfCXSvIwlKLx8JII8nCvgzKwpnhysJSC8vC9iTKwiA/y8IadczCuDrMwuVaysLO&#xD;&#xa;r8vCXtfJwrZ6ycItucnCtonJwjyTysJkC83CL0nMwkjdyMIBucfCixrLwvSDysKGX8nCsCzMwuas&#xD;&#xa;0cIsnNPCuEvOwtr5y8LMBc7Cr+PTwsQc5MLcOfPCKOj0wjr59cJ0C/fCzg75wkwh+8LmVPnCqz72&#xD;&#xa;wnB+9cLuJvrCtEL4wkp7+MLOfffCDN3zwkaz9sLi8vjCFKr6wgIQ+cI8iPjCBpT4wvR1+MLQI/rC&#xD;&#xa;Ihn8wlQg+sIcLvjCVCz2wsI49MJQ9fbC23H3woy69sL4BfnCIOb2wjwy9cIuGvnCdmb3wj7K9MI+&#xD;&#xa;KPXCJpr2wn7C9cKQDvnCthv7woaP+cLGaPbCTr32wrpN+cIFSPjCDvX4wtD39sJY//TCKGf3wvZI&#xD;&#xa;+cK9YvfCgYf3wjIf+sLMMvfCpjz2wuA6+cII8vbCxDv1wmJG9sLka/rCPrT1wi589cLqjfbC9qP4&#xD;&#xa;wgzJ+MLelPbCGir2wlBC9sKeU/jC/nn3wsYn9sL4QPjCXBj5wopQ+MIaJvnCSB36wgjc+MIMfPfC&#xD;&#xa;W+z1wmYG+MKuxPnCCuD1wjh+9sLDrPfCOPj3wm7h+MJjMvfCxH/2wsXf98KwN/nCKOn5wrLR+sKg&#xD;&#xa;bPvCkFv5wsAu+cL2hffCySz2wmRX+MKiiPjCzFX4wvjB98Jgz/fCxPT4wobP+cL8avjC9r34wnKx&#xD;&#xa;+MK+LPnC3H34wle39cKejfbCNKP2wg5B9sK0H/rCSvz2woqE98JAqfjCBPL4wmKi+MIu2/jCMFD5&#xD;&#xa;wiCM+cKo//nCGqz7wlZN+sKUDfjC0ov4wrIU+sIVpffCP2/3woye98KktPbCTJj2wpH29cL3mvbC&#xD;&#xa;jL/4wti/+MLm3vjCQ9QE" leadInLength="0/1"  />
            </Keyframes>
           </Parameter>
           </Parameters>
          </GenericEffect>
          <GenericEffect id="4968" name = "WinCompression" >
           <Parameters>
           <InterpolatingParam id="4969" interp="linr"  time="0/1" value="0" leadInLength="0/1"   name="attack"/>
           <InterpolatingParam id="4970" interp="linr"  time="0/1" value="9" leadInLength="0/1"   name="gain"/>
           <Parameter id="4971"   name="preset">
            <Keyframes>
            <Keyframe id="4972"  time="0/1" value="1" leadInLength="0/1"  />
            </Keyframes>
           </Parameter>
           <InterpolatingParam id="4973" interp="linr"  time="0/1" value="10" leadInLength="0/1"   name="ratio"/>
           <InterpolatingParam id="4974" interp="linr"  time="0/1" value="3500" leadInLength="0/1"   name="release"/>
           <InterpolatingParam id="4975" interp="linr"  time="0/1" value="-20" leadInLength="0/1"   name="threshold"/>
           </Parameters>
          </GenericEffect>
          <GenericEffect id="4976" name = "Declipper" >
           <Parameters>
           <InterpolatingParam id="4977" interp="linr"  time="0/1" value="-1" leadInLength="0/1"   name="sensitivity"/>
           </Parameters>
          </GenericEffect>
          <GenericEffect id="4978" name = "Declicker" >
           <Parameters>
           <InterpolatingParam id="4979" interp="linr"  time="0/1" value="3" leadInLength="0/1"   name="sensitivity"/>
           </Parameters>
          </GenericEffect>
         </Effects>
         <Attributes>
          <Attribute id="4980" value="" name="ident"/>
          <Attribute id="4981" value="0" name="mixToMono"/>
         </Attributes>
         <MetaData>
          <entry key="WinSubProjectDisplayName" val=""/>
         </MetaData>
         <ExtraData>
          <Entry key="ZoomPanBin">
           <ZoomPanBin id="4982"  >
            <ZoomPanKeyframes>
            </ZoomPanKeyframes>
           </ZoomPanBin>
          </Entry>
          <Entry key="CursorEffectBin">
           <CursorEffectBin id="4983"  >
            <CursorEffectKeyframes>
            </CursorEffectKeyframes>
           </CursorEffectBin>
          </Entry>
         </ExtraData>
         <GenericTrack id="4984"  >
          <Attributes>
           <Attribute id="4985" value="" name="ident"/>
           <Attribute id="4986" value="0" name="audioMuted"/>
           <Attribute id="4987" value="0" name="videoHidden"/>
          </Attributes>
          <MetaData>
           <entry key="IsLocked" val="False"/>
           <entry key="WinTrackHeight" val="0"/>
          </MetaData>
          <Medias>
           <AMFile id="4988" start="0" duration="582" scalar="1/1" mediaStart="0/1" mediaDuration="582/1" trackNumber="0" src="22" channelNumber="0" >
            <Parameters>
             <InterpolatingParam id="4989" interp="linr"  time="0/1" value="1" leadInLength="0/1"  name="volume"/>
             <Parameter id="4990"  name="captions"/>
            </Parameters>
            <Attributes>
             <Attribute id="4991" value="" name="ident"/>
             <Attribute id="4992" value="44100" name="sampleRate"/>
             <Attribute id="4993" value="16" name="bitDepth"/>
             <Attribute id="4994" value="1" name="gain"/>
             <Attribute id="4995" value="0" name="mixToMono"/>
            </Attributes>
            <MetaData>
             <entry key="WinSubProjectDisplayName" val=""/>
            </MetaData>
           </AMFile>
           <AMFile id="4996" start="582" duration="769" scalar="1/1" mediaStart="971/1" mediaDuration="769/1" trackNumber="0" src="22" channelNumber="0" >
            <Parameters>
             <InterpolatingParam id="4997" interp="linr"  time="0/1" value="1" leadInLength="0/1"  name="volume"/>
             <Parameter id="4998"  name="captions"/>
            </Parameters>
            <Attributes>
             <Attribute id="4999" value="" name="ident"/>
             <Attribute id="5000" value="44100" name="sampleRate"/>
             <Attribute id="5001" value="16" name="bitDepth"/>
             <Attribute id="5002" value="1" name="gain"/>
             <Attribute id="5003" value="0" name="mixToMono"/>
            </Attributes>
            <MetaData>
             <entry key="WinSubProjectDisplayName" val=""/>
            </MetaData>
           </AMFile>
           <AMFile id="5004" start="1351" duration="135" scalar="1/1" mediaStart="1744/1" mediaDuration="135/1" trackNumber="0" src="22" channelNumber="0" >
            <Parameters>
             <InterpolatingParam id="5005" interp="linr"  time="0/1" value="1" leadInLength="0/1"  name="volume"/>
             <Parameter id="5006"  name="captions"/>
            </Parameters>
            <Attributes>
             <Attribute id="5007" value="" name="ident"/>
             <Attribute id="5008" value="44100" name="sampleRate"/>
             <Attribute id="5009" value="16" name="bitDepth"/>
             <Attribute id="5010" value="1" name="gain"/>
             <Attribute id="5011" value="0" name="mixToMono"/>
            </Attributes>
            <MetaData>
             <entry key="WinSubProjectDisplayName" val=""/>
            </MetaData>
           </AMFile>
           <AMFile id="5012" start="1486" duration="165" scalar="1/1" mediaStart="1884/1" mediaDuration="165/1" trackNumber="0" src="22" channelNumber="0" >
            <Parameters>
             <InterpolatingParam id="5013" interp="linr"  time="0/1" value="1" leadInLength="0/1"  name="volume"/>
             <Parameter id="5014"  name="captions"/>
            </Parameters>
            <Attributes>
             <Attribute id="5015" value="" name="ident"/>
             <Attribute id="5016" value="44100" name="sampleRate"/>
             <Attribute id="5017" value="16" name="bitDepth"/>
             <Attribute id="5018" value="1" name="gain"/>
             <Attribute id="5019" value="0" name="mixToMono"/>
            </Attributes>
            <MetaData>
             <entry key="WinSubProjectDisplayName" val=""/>
            </MetaData>
           </AMFile>
           <AMFile id="5020" start="1651" duration="2" scalar="1/1" mediaStart="2164/1" mediaDuration="2/1" trackNumber="0" src="22" channelNumber="0" >
            <Parameters>
             <InterpolatingParam id="5021" interp="linr"  time="0/1" value="1" leadInLength="0/1"  name="volume"/>
             <Parameter id="5022"  name="captions"/>
            </Parameters>
            <Attributes>
             <Attribute id="5023" value="" name="ident"/>
             <Attribute id="5024" value="44100" name="sampleRate"/>
             <Attribute id="5025" value="16" name="bitDepth"/>
             <Attribute id="5026" value="1" name="gain"/>
             <Attribute id="5027" value="0" name="mixToMono"/>
            </Attributes>
            <MetaData>
             <entry key="WinSubProjectDisplayName" val=""/>
            </MetaData>
           </AMFile>
           <AMFile id="5028" start="1653" duration="12072" scalar="1/1" mediaStart="2496/1" mediaDuration="12072/1" trackNumber="0" src="22" channelNumber="0" >
            <Parameters>
             <InterpolatingParam id="5029" interp="linr"  time="0/1" value="1" leadInLength="0/1"  name="volume"/>
             <Parameter id="5030"  name="captions"/>
            </Parameters>
            <Attributes>
             <Attribute id="5031" value="" name="ident"/>
             <Attribute id="5032" value="44100" name="sampleRate"/>
             <Attribute id="5033" value="16" name="bitDepth"/>
             <Attribute id="5034" value="1" name="gain"/>
             <Attribute id="5035" value="0" name="mixToMono"/>
            </Attributes>
            <MetaData>
             <entry key="WinSubProjectDisplayName" val=""/>
            </MetaData>
           </AMFile>
          </Medias>
         </GenericTrack>
        </StitchedMedia>
        <StitchedMedia id="5036" start="947" duration="185" scalar="1/1" mediaStart="1198/1" mediaDuration="185/1" minMediaStart="0/1" >
         <Transformer>
          <VectorParam id="5037"  name="translation">
           <InterpolatingParam id="5038" interp="linr"  time="0/1" value="0" leadInLength="0/1"  />
           <InterpolatingParam id="5039" interp="linr"  time="0/1" value="0" leadInLength="0/1"  />
           <InterpolatingParam id="5040" interp="linr"  time="0/1" value="0" leadInLength="0/1"  />
          </VectorParam>
          <VectorParam id="5041"  name="rotation">
           <InterpolatingParam id="5042" interp="linr"  time="0/1" value="0" leadInLength="0/1"  />
           <InterpolatingParam id="5043" interp="linr"  time="0/1" value="0" leadInLength="0/1"  />
           <InterpolatingParam id="5044" interp="linr"  time="0/1" value="0" leadInLength="0/1"  />
          </VectorParam>
          <VectorParam id="5045"  name="shear">
           <InterpolatingParam id="5046" interp="linr"  time="0/1" value="0" leadInLength="0/1"  />
           <InterpolatingParam id="5047" interp="linr"  time="0/1" value="0" leadInLength="0/1"  />
           <InterpolatingParam id="5048" interp="linr"  time="0/1" value="0" leadInLength="0/1"  />
          </VectorParam>
          <VectorParam id="5049"  name="scale">
           <InterpolatingParam id="5050" interp="linr"  time="0/1" value="1" leadInLength="0/1"  />
           <InterpolatingParam id="5051" interp="linr"  time="0/1" value="1" leadInLength="0/1"  />
           <InterpolatingParam id="5052" interp="linr"  time="0/1" value="1" leadInLength="0/1"  />
          </VectorParam>
          <VectorParam id="5053"  name="anchor">
           <InterpolatingParam id="5054" interp="linr"  time="0/1" value="0" leadInLength="0/1"  />
           <InterpolatingParam id="5055" interp="linr"  time="0/1" value="0" leadInLength="0/1"  />
           <InterpolatingParam id="5056" interp="linr"  time="0/1" value="0" leadInLength="0/1"  />
          </VectorParam>
         </Transformer>
         <Parameters>
          <InterpolatingParam id="5057" interp="linr"  time="0/1" value="1" leadInLength="0/1"  name="cursorOpacity"/>
          <InterpolatingParam id="5058" interp="linr"  time="0/1" value="1" leadInLength="0/1"  name="cursorScale"/>
          <InterpolatingParam id="5059" interp="linr"  name="volume">
           <Keyframes>
           <Keyframe id="5060"  time="0/1" value="1" leadInLength="0/1"  />
           <Keyframe id="5061"  time="250/1" value="1" leadInLength="0/1"  />
           <Keyframe id="5062"  time="251/1" value="0.99255583126550895" leadInLength="0/1"  />
           <Keyframe id="5063"  time="1065/1" value="0.8188585607940444" leadInLength="0/1"  />
           <Keyframe id="5064"  time="1079/1" value="0.99255583126550895" leadInLength="0/1"  />
           <Keyframe id="5065"  time="1888/1" value="0.99255583126550895" leadInLength="0/1"  />
           <Keyframe id="5066"  time="1889/1" value="1" leadInLength="0/1"  />
           </Keyframes>
          </InterpolatingParam>
          <Parameter id="5067"  name="captions"/>
         </Parameters>
         <Effects>
          <GenericEffect id="5068" name = "NoiseReduction" >
           <Parameters>
           <InterpolatingParam id="5069" interp="linr"  time="0/1" value="20" leadInLength="0/1"   name="denoiserAmount"/>
           <InterpolatingParam id="5070" interp="linr"  time="0/1" value="0" leadInLength="0/1"   name="denoiserThreshold"/>
           <Parameter id="5071"   name="noiseProfile">
            <Keyframes>
            <Keyframe id="5072"  time="0/1" value="FBAAAAIAAABErAAAAQIAADOmYsI/y13CPNeLwsehjcK+No/Cm+aOwlHvjcIja5HCun6XwoKemMJy&#xD;&#xa;lpPCuQeRwhgMlcJGdZvCTjScwgFMncIGh5zCGrOawuO0nMJdJZ3Cybudwo6toMIdraPCs/6jwpY0&#xD;&#xa;psLIUqjCWQmpwonmp8KcE6XCgXGlwqC+psIFHabCBoyownWvqcIkX6jCgnCpwms3qsIW0KfCM7Oj&#xD;&#xa;wnGLosJgcKnCdk6swiIgscKFrbDCtNmowrZmpcIHYqjCCg2pwqUNq8KgHq7ChEGxwhVFs8KU6LLC&#xD;&#xa;dvWzwpVHscI6NrDCMpGwwubcs8Imh7bCPKq6wj7tvMKSbr3ClsG+wq4qwMLXQr7CpAK5whxiuMJp&#xD;&#xa;v7nCwu29wloQvsIXTL3CzjDAwsDTwcL69sHC8urAwtAFwMIkSMLCpJHDwjLOw8JG8sTCmMvDwq7H&#xD;&#xa;wsLOncPC+CDDwkh6wsLU5sPCP23Fwm5Qx8KlYsTCm0XCwnhexcLsTsPCSMPDwjvJw8LMWcHC2XHD&#xD;&#xa;wjj5wsICs8TChWvEwgCywcKDdcHCFnHCwurMxMLlVsTCfrDGwmzqyMKoGsfC7ITIwtqRyMJwzcbC&#xD;&#xa;ppbEwiv5xcIXxsTCzDfCwtSExMKEjcTC8ObDwiJ9yMIQm8vCIkDGwqHyxcIyYcbCyAXIwmyBx8I4&#xD;&#xa;n8PCvyPGwuiKxMJggMfCdL3JwsMhysLi6sXCRa7Ewoykx8Jk/MXC0NfEwtK0xcJQTMTCvvvGwtqJ&#xD;&#xa;xMKmFsTCSbfGwq76x8IQ+sjCsqnIwkJdycIaT8fC0nbHwlf2xsLg/cbCtIHHwsTvxsI0KsbCsqDH&#xD;&#xa;wgLix8JGKcXCyNTDwjDwwsIb98bC6MjJwg6Zy8Kg+cvCaC3HwtIgw8KW7sXC3EHGwmcUxcL++8fC&#xD;&#xa;CWbIwsDoxsJFz8PCJkXFwiD7xcIQDsfC8ljIwrDLxMKkeMLClpHEwiqgyMJcjcjC6krGwl50w8Iy&#xD;&#xa;7sXCWv3HwkQ1xsKUwMPC2K/EwootxMJUqMTCH3LDwuojxcKil8fCjmXIwkLJxcID78TClTvGwhel&#xD;&#xa;xsIca8bC1rbCwk6+wsIQfsfCIlPHwpJExcLWhMbCDNvEwuryxMKklMXCeBDDwolhwcIiasLCQYfE&#xD;&#xa;whUfwsJx4MTCsEnIwkX0xcK+3sbCIqLHwrARx8IWtMTCGAnFwomNxMLfbcTCQIPDwjqww8L+MMTC&#xD;&#xa;mqjHwrBaxMI6YsTCxmvIwqyKycKQaMXCnx7FwkYvx8In6sjCGMzIwuvAxcL8a8XCiBjJwkvwyMKI&#xD;&#xa;qMbCTCTIwvQSy8IxEsvCVT/JwrI3w8LA8sLCCD7EwsxXxMJSjsXCfjXFwqTKxMI/gsPCDozDwtwF&#xD;&#xa;xMISn8bChHvJwlFQyMJYCsbCP4jIwtkBycLiFsrCbCrKwvyTysIWncnC+A3HwuI5x8I8/MbC0hHI&#xD;&#xa;wopJzMLmb83CFkvMwpy/y8Kn7MrCfJrJwuLDyMJKn8bCStTGwpb7ycIMo8nCcivFwsapxcJkx8bC&#xD;&#xa;ALLIwriaycJM3cfC8r/KwlSoy8I4A8vCpFHJwkRrzMIKr87CWD7MwsiJycKW9cfCUjbKwq+YycLi&#xD;&#xa;U8jCROHHwhdWycKaU8nCF7jMwmKaz8L//8zC8tjOwjxezsIUysvCzHLJwiJryMLRm8bCgLjKwsi8&#xD;&#xa;ysIhfszCPETLwqtbyMJGeMfCpRPJwnwZzMJSIs3CqhPMwmDiyMLZYsjCz13KwgwKy8LCi8jCyrTM&#xD;&#xa;wgwxzMK4ZcvC087JwkV2xsLyXsnCjIbLwhwvzcLfrM7CeITKwla3ysLK3cnC/PHFwpScxcIUQ8nC&#xD;&#xa;NJzIwrEsxsJvZcfCXSvIwlKLx8JII8nCvgzKwpnhysJSC8vC9iTKwiA/y8IadczCuDrMwuVaysLO&#xD;&#xa;r8vCXtfJwrZ6ycItucnCtonJwjyTysJkC83CL0nMwkjdyMIBucfCixrLwvSDysKGX8nCsCzMwuas&#xD;&#xa;0cIsnNPCuEvOwtr5y8LMBc7Cr+PTwsQc5MLcOfPCKOj0wjr59cJ0C/fCzg75wkwh+8LmVPnCqz72&#xD;&#xa;wnB+9cLuJvrCtEL4wkp7+MLOfffCDN3zwkaz9sLi8vjCFKr6wgIQ+cI8iPjCBpT4wvR1+MLQI/rC&#xD;&#xa;Ihn8wlQg+sIcLvjCVCz2wsI49MJQ9fbC23H3woy69sL4BfnCIOb2wjwy9cIuGvnCdmb3wj7K9MI+&#xD;&#xa;KPXCJpr2wn7C9cKQDvnCthv7woaP+cLGaPbCTr32wrpN+cIFSPjCDvX4wtD39sJY//TCKGf3wvZI&#xD;&#xa;+cK9YvfCgYf3wjIf+sLMMvfCpjz2wuA6+cII8vbCxDv1wmJG9sLka/rCPrT1wi589cLqjfbC9qP4&#xD;&#xa;wgzJ+MLelPbCGir2wlBC9sKeU/jC/nn3wsYn9sL4QPjCXBj5wopQ+MIaJvnCSB36wgjc+MIMfPfC&#xD;&#xa;W+z1wmYG+MKuxPnCCuD1wjh+9sLDrPfCOPj3wm7h+MJjMvfCxH/2wsXf98KwN/nCKOn5wrLR+sKg&#xD;&#xa;bPvCkFv5wsAu+cL2hffCySz2wmRX+MKiiPjCzFX4wvjB98Jgz/fCxPT4wobP+cL8avjC9r34wnKx&#xD;&#xa;+MK+LPnC3H34wle39cKejfbCNKP2wg5B9sK0H/rCSvz2woqE98JAqfjCBPL4wmKi+MIu2/jCMFD5&#xD;&#xa;wiCM+cKo//nCGqz7wlZN+sKUDfjC0ov4wrIU+sIVpffCP2/3woye98KktPbCTJj2wpH29cL3mvbC&#xD;&#xa;jL/4wti/+MLm3vjCQ9QEwzOmYsI/y13CPNeLwsehjcK+No/Cm+aOwlHvjcIja5HCun6XwoKemMJy&#xD;&#xa;lpPCuQeRwhgMlcJGdZvCTjScwgFMncIGh5zCGrOawuO0nMJdJZ3Cybudwo6toMIdraPCs/6jwpY0&#xD;&#xa;psLIUqjCWQmpwonmp8KcE6XCgXGlwqC+psIFHabCBoyownWvqcIkX6jCgnCpwms3qsIW0KfCM7Oj&#xD;&#xa;wnGLosJgcKnCdk6swiIgscKFrbDCtNmowrZmpcIHYqjCCg2pwqUNq8KgHq7ChEGxwhVFs8KU6LLC&#xD;&#xa;dvWzwpVHscI6NrDCMpGwwubcs8Imh7bCPKq6wj7tvMKSbr3ClsG+wq4qwMLXQr7CpAK5whxiuMJp&#xD;&#xa;v7nCwu29wloQvsIXTL3CzjDAwsDTwcL69sHC8urAwtAFwMIkSMLCpJHDwjLOw8JG8sTCmMvDwq7H&#xD;&#xa;wsLOncPC+CDDwkh6wsLU5sPCP23Fwm5Qx8KlYsTCm0XCwnhexcLsTsPCSMPDwjvJw8LMWcHC2XHD&#xD;&#xa;wjj5wsICs8TChWvEwgCywcKDdcHCFnHCwurMxMLlVsTCfrDGwmzqyMKoGsfC7ITIwtqRyMJwzcbC&#xD;&#xa;ppbEwiv5xcIXxsTCzDfCwtSExMKEjcTC8ObDwiJ9yMIQm8vCIkDGwqHyxcIyYcbCyAXIwmyBx8I4&#xD;&#xa;n8PCvyPGwuiKxMJggMfCdL3JwsMhysLi6sXCRa7Ewoykx8Jk/MXC0NfEwtK0xcJQTMTCvvvGwtqJ&#xD;&#xa;xMKmFsTCSbfGwq76x8IQ+sjCsqnIwkJdycIaT8fC0nbHwlf2xsLg/cbCtIHHwsTvxsI0KsbCsqDH&#xD;&#xa;wgLix8JGKcXCyNTDwjDwwsIb98bC6MjJwg6Zy8Kg+cvCaC3HwtIgw8KW7sXC3EHGwmcUxcL++8fC&#xD;&#xa;CWbIwsDoxsJFz8PCJkXFwiD7xcIQDsfC8ljIwrDLxMKkeMLClpHEwiqgyMJcjcjC6krGwl50w8Iy&#xD;&#xa;7sXCWv3HwkQ1xsKUwMPC2K/EwootxMJUqMTCH3LDwuojxcKil8fCjmXIwkLJxcID78TClTvGwhel&#xD;&#xa;xsIca8bC1rbCwk6+wsIQfsfCIlPHwpJExcLWhMbCDNvEwuryxMKklMXCeBDDwolhwcIiasLCQYfE&#xD;&#xa;whUfwsJx4MTCsEnIwkX0xcK+3sbCIqLHwrARx8IWtMTCGAnFwomNxMLfbcTCQIPDwjqww8L+MMTC&#xD;&#xa;mqjHwrBaxMI6YsTCxmvIwqyKycKQaMXCnx7FwkYvx8In6sjCGMzIwuvAxcL8a8XCiBjJwkvwyMKI&#xD;&#xa;qMbCTCTIwvQSy8IxEsvCVT/JwrI3w8LA8sLCCD7EwsxXxMJSjsXCfjXFwqTKxMI/gsPCDozDwtwF&#xD;&#xa;xMISn8bChHvJwlFQyMJYCsbCP4jIwtkBycLiFsrCbCrKwvyTysIWncnC+A3HwuI5x8I8/MbC0hHI&#xD;&#xa;wopJzMLmb83CFkvMwpy/y8Kn7MrCfJrJwuLDyMJKn8bCStTGwpb7ycIMo8nCcivFwsapxcJkx8bC&#xD;&#xa;ALLIwriaycJM3cfC8r/KwlSoy8I4A8vCpFHJwkRrzMIKr87CWD7MwsiJycKW9cfCUjbKwq+YycLi&#xD;&#xa;U8jCROHHwhdWycKaU8nCF7jMwmKaz8L//8zC8tjOwjxezsIUysvCzHLJwiJryMLRm8bCgLjKwsi8&#xD;&#xa;ysIhfszCPETLwqtbyMJGeMfCpRPJwnwZzMJSIs3CqhPMwmDiyMLZYsjCz13KwgwKy8LCi8jCyrTM&#xD;&#xa;wgwxzMK4ZcvC087JwkV2xsLyXsnCjIbLwhwvzcLfrM7CeITKwla3ysLK3cnC/PHFwpScxcIUQ8nC&#xD;&#xa;NJzIwrEsxsJvZcfCXSvIwlKLx8JII8nCvgzKwpnhysJSC8vC9iTKwiA/y8IadczCuDrMwuVaysLO&#xD;&#xa;r8vCXtfJwrZ6ycItucnCtonJwjyTysJkC83CL0nMwkjdyMIBucfCixrLwvSDysKGX8nCsCzMwuas&#xD;&#xa;0cIsnNPCuEvOwtr5y8LMBc7Cr+PTwsQc5MLcOfPCKOj0wjr59cJ0C/fCzg75wkwh+8LmVPnCqz72&#xD;&#xa;wnB+9cLuJvrCtEL4wkp7+MLOfffCDN3zwkaz9sLi8vjCFKr6wgIQ+cI8iPjCBpT4wvR1+MLQI/rC&#xD;&#xa;Ihn8wlQg+sIcLvjCVCz2wsI49MJQ9fbC23H3woy69sL4BfnCIOb2wjwy9cIuGvnCdmb3wj7K9MI+&#xD;&#xa;KPXCJpr2wn7C9cKQDvnCthv7woaP+cLGaPbCTr32wrpN+cIFSPjCDvX4wtD39sJY//TCKGf3wvZI&#xD;&#xa;+cK9YvfCgYf3wjIf+sLMMvfCpjz2wuA6+cII8vbCxDv1wmJG9sLka/rCPrT1wi589cLqjfbC9qP4&#xD;&#xa;wgzJ+MLelPbCGir2wlBC9sKeU/jC/nn3wsYn9sL4QPjCXBj5wopQ+MIaJvnCSB36wgjc+MIMfPfC&#xD;&#xa;W+z1wmYG+MKuxPnCCuD1wjh+9sLDrPfCOPj3wm7h+MJjMvfCxH/2wsXf98KwN/nCKOn5wrLR+sKg&#xD;&#xa;bPvCkFv5wsAu+cL2hffCySz2wmRX+MKiiPjCzFX4wvjB98Jgz/fCxPT4wobP+cL8avjC9r34wnKx&#xD;&#xa;+MK+LPnC3H34wle39cKejfbCNKP2wg5B9sK0H/rCSvz2woqE98JAqfjCBPL4wmKi+MIu2/jCMFD5&#xD;&#xa;wiCM+cKo//nCGqz7wlZN+sKUDfjC0ov4wrIU+sIVpffCP2/3woye98KktPbCTJj2wpH29cL3mvbC&#xD;&#xa;jL/4wti/+MLm3vjCQ9QE" leadInLength="0/1"  />
            </Keyframes>
           </Parameter>
           </Parameters>
          </GenericEffect>
          <GenericEffect id="5073" name = "WinCompression" >
           <Parameters>
           <InterpolatingParam id="5074" interp="linr"  time="0/1" value="0" leadInLength="0/1"   name="attack"/>
           <InterpolatingParam id="5075" interp="linr"  time="0/1" value="9" leadInLength="0/1"   name="gain"/>
           <Parameter id="5076"   name="preset">
            <Keyframes>
            <Keyframe id="5077"  time="0/1" value="1" leadInLength="0/1"  />
            </Keyframes>
           </Parameter>
           <InterpolatingParam id="5078" interp="linr"  time="0/1" value="10" leadInLength="0/1"   name="ratio"/>
           <InterpolatingParam id="5079" interp="linr"  time="0/1" value="3500" leadInLength="0/1"   name="release"/>
           <InterpolatingParam id="5080" interp="linr"  time="0/1" value="-20" leadInLength="0/1"   name="threshold"/>
           </Parameters>
          </GenericEffect>
          <GenericEffect id="5081" name = "Declipper" >
           <Parameters>
           <InterpolatingParam id="5082" interp="linr"  time="0/1" value="-1" leadInLength="0/1"   name="sensitivity"/>
           </Parameters>
          </GenericEffect>
          <GenericEffect id="5083" name = "Declicker" >
           <Parameters>
           <InterpolatingParam id="5084" interp="linr"  time="0/1" value="3" leadInLength="0/1"   name="sensitivity"/>
           </Parameters>
          </GenericEffect>
         </Effects>
         <Attributes>
          <Attribute id="5085" value="" name="ident"/>
          <Attribute id="5086" value="0" name="mixToMono"/>
         </Attributes>
         <MetaData>
          <entry key="WinSubProjectDisplayName" val=""/>
         </MetaData>
         <ExtraData>
          <Entry key="ZoomPanBin">
           <ZoomPanBin id="5087"  >
            <ZoomPanKeyframes>
            </ZoomPanKeyframes>
           </ZoomPanBin>
          </Entry>
          <Entry key="CursorEffectBin">
           <CursorEffectBin id="5088"  >
            <CursorEffectKeyframes>
            </CursorEffectKeyframes>
           </CursorEffectBin>
          </Entry>
         </ExtraData>
         <GenericTrack id="5089"  >
          <Attributes>
           <Attribute id="5090" value="" name="ident"/>
           <Attribute id="5091" value="0" name="audioMuted"/>
           <Attribute id="5092" value="0" name="videoHidden"/>
          </Attributes>
          <MetaData>
           <entry key="IsLocked" val="False"/>
           <entry key="WinTrackHeight" val="0"/>
          </MetaData>
          <Medias>
           <AMFile id="5093" start="0" duration="582" scalar="1/1" mediaStart="0/1" mediaDuration="582/1" trackNumber="0" src="22" channelNumber="0" >
            <Parameters>
             <InterpolatingParam id="5094" interp="linr"  time="0/1" value="1" leadInLength="0/1"  name="volume"/>
             <Parameter id="5095"  name="captions"/>
            </Parameters>
            <Attributes>
             <Attribute id="5096" value="" name="ident"/>
             <Attribute id="5097" value="44100" name="sampleRate"/>
             <Attribute id="5098" value="16" name="bitDepth"/>
             <Attribute id="5099" value="1" name="gain"/>
             <Attribute id="5100" value="0" name="mixToMono"/>
            </Attributes>
            <MetaData>
             <entry key="WinSubProjectDisplayName" val=""/>
            </MetaData>
           </AMFile>
           <AMFile id="5101" start="582" duration="769" scalar="1/1" mediaStart="971/1" mediaDuration="769/1" trackNumber="0" src="22" channelNumber="0" >
            <Parameters>
             <InterpolatingParam id="5102" interp="linr"  time="0/1" value="1" leadInLength="0/1"  name="volume"/>
             <Parameter id="5103"  name="captions"/>
            </Parameters>
            <Attributes>
             <Attribute id="5104" value="" name="ident"/>
             <Attribute id="5105" value="44100" name="sampleRate"/>
             <Attribute id="5106" value="16" name="bitDepth"/>
             <Attribute id="5107" value="1" name="gain"/>
             <Attribute id="5108" value="0" name="mixToMono"/>
            </Attributes>
            <MetaData>
             <entry key="WinSubProjectDisplayName" val=""/>
            </MetaData>
           </AMFile>
           <AMFile id="5109" start="1351" duration="135" scalar="1/1" mediaStart="1744/1" mediaDuration="135/1" trackNumber="0" src="22" channelNumber="0" >
            <Parameters>
             <InterpolatingParam id="5110" interp="linr"  time="0/1" value="1" leadInLength="0/1"  name="volume"/>
             <Parameter id="5111"  name="captions"/>
            </Parameters>
            <Attributes>
             <Attribute id="5112" value="" name="ident"/>
             <Attribute id="5113" value="44100" name="sampleRate"/>
             <Attribute id="5114" value="16" name="bitDepth"/>
             <Attribute id="5115" value="1" name="gain"/>
             <Attribute id="5116" value="0" name="mixToMono"/>
            </Attributes>
            <MetaData>
             <entry key="WinSubProjectDisplayName" val=""/>
            </MetaData>
           </AMFile>
           <AMFile id="5117" start="1486" duration="165" scalar="1/1" mediaStart="1884/1" mediaDuration="165/1" trackNumber="0" src="22" channelNumber="0" >
            <Parameters>
             <InterpolatingParam id="5118" interp="linr"  time="0/1" value="1" leadInLength="0/1"  name="volume"/>
             <Parameter id="5119"  name="captions"/>
            </Parameters>
            <Attributes>
             <Attribute id="5120" value="" name="ident"/>
             <Attribute id="5121" value="44100" name="sampleRate"/>
             <Attribute id="5122" value="16" name="bitDepth"/>
             <Attribute id="5123" value="1" name="gain"/>
             <Attribute id="5124" value="0" name="mixToMono"/>
            </Attributes>
            <MetaData>
             <entry key="WinSubProjectDisplayName" val=""/>
            </MetaData>
           </AMFile>
           <AMFile id="5125" start="1651" duration="2" scalar="1/1" mediaStart="2164/1" mediaDuration="2/1" trackNumber="0" src="22" channelNumber="0" >
            <Parameters>
             <InterpolatingParam id="5126" interp="linr"  time="0/1" value="1" leadInLength="0/1"  name="volume"/>
             <Parameter id="5127"  name="captions"/>
            </Parameters>
            <Attributes>
             <Attribute id="5128" value="" name="ident"/>
             <Attribute id="5129" value="44100" name="sampleRate"/>
             <Attribute id="5130" value="16" name="bitDepth"/>
             <Attribute id="5131" value="1" name="gain"/>
             <Attribute id="5132" value="0" name="mixToMono"/>
            </Attributes>
            <MetaData>
             <entry key="WinSubProjectDisplayName" val=""/>
            </MetaData>
           </AMFile>
           <AMFile id="5133" start="1653" duration="12072" scalar="1/1" mediaStart="2496/1" mediaDuration="12072/1" trackNumber="0" src="22" channelNumber="0" >
            <Parameters>
             <InterpolatingParam id="5134" interp="linr"  time="0/1" value="1" leadInLength="0/1"  name="volume"/>
             <Parameter id="5135"  name="captions"/>
            </Parameters>
            <Attributes>
             <Attribute id="5136" value="" name="ident"/>
             <Attribute id="5137" value="44100" name="sampleRate"/>
             <Attribute id="5138" value="16" name="bitDepth"/>
             <Attribute id="5139" value="1" name="gain"/>
             <Attribute id="5140" value="0" name="mixToMono"/>
            </Attributes>
            <MetaData>
             <entry key="WinSubProjectDisplayName" val=""/>
            </MetaData>
           </AMFile>
          </Medias>
         </GenericTrack>
        </StitchedMedia>
        <StitchedMedia id="5141" start="1136" duration="531" scalar="1/1" mediaStart="1387/1" mediaDuration="531/1" minMediaStart="0/1" >
         <Transformer>
          <VectorParam id="5142"  name="translation">
           <InterpolatingParam id="5143" interp="linr"  time="0/1" value="0" leadInLength="0/1"  />
           <InterpolatingParam id="5144" interp="linr"  time="0/1" value="0" leadInLength="0/1"  />
           <InterpolatingParam id="5145" interp="linr"  time="0/1" value="0" leadInLength="0/1"  />
          </VectorParam>
          <VectorParam id="5146"  name="rotation">
           <InterpolatingParam id="5147" interp="linr"  time="0/1" value="0" leadInLength="0/1"  />
           <InterpolatingParam id="5148" interp="linr"  time="0/1" value="0" leadInLength="0/1"  />
           <InterpolatingParam id="5149" interp="linr"  time="0/1" value="0" leadInLength="0/1"  />
          </VectorParam>
          <VectorParam id="5150"  name="shear">
           <InterpolatingParam id="5151" interp="linr"  time="0/1" value="0" leadInLength="0/1"  />
           <InterpolatingParam id="5152" interp="linr"  time="0/1" value="0" leadInLength="0/1"  />
           <InterpolatingParam id="5153" interp="linr"  time="0/1" value="0" leadInLength="0/1"  />
          </VectorParam>
          <VectorParam id="5154"  name="scale">
           <InterpolatingParam id="5155" interp="linr"  time="0/1" value="1" leadInLength="0/1"  />
           <InterpolatingParam id="5156" interp="linr"  time="0/1" value="1" leadInLength="0/1"  />
           <InterpolatingParam id="5157" interp="linr"  time="0/1" value="1" leadInLength="0/1"  />
          </VectorParam>
          <VectorParam id="5158"  name="anchor">
           <InterpolatingParam id="5159" interp="linr"  time="0/1" value="0" leadInLength="0/1"  />
           <InterpolatingParam id="5160" interp="linr"  time="0/1" value="0" leadInLength="0/1"  />
           <InterpolatingParam id="5161" interp="linr"  time="0/1" value="0" leadInLength="0/1"  />
          </VectorParam>
         </Transformer>
         <Parameters>
          <InterpolatingParam id="5162" interp="linr"  time="0/1" value="1" leadInLength="0/1"  name="cursorOpacity"/>
          <InterpolatingParam id="5163" interp="linr"  time="0/1" value="1" leadInLength="0/1"  name="cursorScale"/>
          <InterpolatingParam id="5164" interp="linr"  name="volume">
           <Keyframes>
           <Keyframe id="5165"  time="0/1" value="1" leadInLength="0/1"  />
           <Keyframe id="5166"  time="250/1" value="1" leadInLength="0/1"  />
           <Keyframe id="5167"  time="251/1" value="1.1290322580645158" leadInLength="0/1"  />
           <Keyframe id="5168"  time="1649/1" value="0.99342881480580003" leadInLength="0/1"  />
           <Keyframe id="5169"  time="1658/1" value="0.14888337468982277" leadInLength="0/1"  />
           <Keyframe id="5170"  time="1674/1" value="0.66997518610421691" leadInLength="0/1"  />
           <Keyframe id="5171"  time="1687/1" value="0.83145936724565606" leadInLength="0/1"  />
           <Keyframe id="5172"  time="1707/1" value="0.82603132754342279" leadInLength="0/1"  />
           <Keyframe id="5173"  time="1748/1" value="0.89058622828784029" leadInLength="0/1"  />
           <Keyframe id="5174"  time="1802/1" value="0.94292803970223205" leadInLength="0/1"  />
           <Keyframe id="5175"  time="1817/1" value="1.1290322580645158" leadInLength="0/1"  />
           <Keyframe id="5176"  time="1892/1" value="1.1290322580645158" leadInLength="0/1"  />
           <Keyframe id="5177"  time="1893/1" value="1" leadInLength="0/1"  />
           </Keyframes>
          </InterpolatingParam>
          <Parameter id="5178"  name="captions"/>
         </Parameters>
         <Effects>
          <GenericEffect id="5179" name = "NoiseReduction" >
           <Parameters>
           <InterpolatingParam id="5180" interp="linr"  time="0/1" value="20" leadInLength="0/1"   name="denoiserAmount"/>
           <InterpolatingParam id="5181" interp="linr"  time="0/1" value="0" leadInLength="0/1"   name="denoiserThreshold"/>
           <Parameter id="5182"   name="noiseProfile">
            <Keyframes>
            <Keyframe id="5183"  time="0/1" value="FBAAAAIAAABErAAAAQIAADOmYsI/y13CPNeLwsehjcK+No/Cm+aOwlHvjcIja5HCun6XwoKemMJy&#xD;&#xa;lpPCuQeRwhgMlcJGdZvCTjScwgFMncIGh5zCGrOawuO0nMJdJZ3Cybudwo6toMIdraPCs/6jwpY0&#xD;&#xa;psLIUqjCWQmpwonmp8KcE6XCgXGlwqC+psIFHabCBoyownWvqcIkX6jCgnCpwms3qsIW0KfCM7Oj&#xD;&#xa;wnGLosJgcKnCdk6swiIgscKFrbDCtNmowrZmpcIHYqjCCg2pwqUNq8KgHq7ChEGxwhVFs8KU6LLC&#xD;&#xa;dvWzwpVHscI6NrDCMpGwwubcs8Imh7bCPKq6wj7tvMKSbr3ClsG+wq4qwMLXQr7CpAK5whxiuMJp&#xD;&#xa;v7nCwu29wloQvsIXTL3CzjDAwsDTwcL69sHC8urAwtAFwMIkSMLCpJHDwjLOw8JG8sTCmMvDwq7H&#xD;&#xa;wsLOncPC+CDDwkh6wsLU5sPCP23Fwm5Qx8KlYsTCm0XCwnhexcLsTsPCSMPDwjvJw8LMWcHC2XHD&#xD;&#xa;wjj5wsICs8TChWvEwgCywcKDdcHCFnHCwurMxMLlVsTCfrDGwmzqyMKoGsfC7ITIwtqRyMJwzcbC&#xD;&#xa;ppbEwiv5xcIXxsTCzDfCwtSExMKEjcTC8ObDwiJ9yMIQm8vCIkDGwqHyxcIyYcbCyAXIwmyBx8I4&#xD;&#xa;n8PCvyPGwuiKxMJggMfCdL3JwsMhysLi6sXCRa7Ewoykx8Jk/MXC0NfEwtK0xcJQTMTCvvvGwtqJ&#xD;&#xa;xMKmFsTCSbfGwq76x8IQ+sjCsqnIwkJdycIaT8fC0nbHwlf2xsLg/cbCtIHHwsTvxsI0KsbCsqDH&#xD;&#xa;wgLix8JGKcXCyNTDwjDwwsIb98bC6MjJwg6Zy8Kg+cvCaC3HwtIgw8KW7sXC3EHGwmcUxcL++8fC&#xD;&#xa;CWbIwsDoxsJFz8PCJkXFwiD7xcIQDsfC8ljIwrDLxMKkeMLClpHEwiqgyMJcjcjC6krGwl50w8Iy&#xD;&#xa;7sXCWv3HwkQ1xsKUwMPC2K/EwootxMJUqMTCH3LDwuojxcKil8fCjmXIwkLJxcID78TClTvGwhel&#xD;&#xa;xsIca8bC1rbCwk6+wsIQfsfCIlPHwpJExcLWhMbCDNvEwuryxMKklMXCeBDDwolhwcIiasLCQYfE&#xD;&#xa;whUfwsJx4MTCsEnIwkX0xcK+3sbCIqLHwrARx8IWtMTCGAnFwomNxMLfbcTCQIPDwjqww8L+MMTC&#xD;&#xa;mqjHwrBaxMI6YsTCxmvIwqyKycKQaMXCnx7FwkYvx8In6sjCGMzIwuvAxcL8a8XCiBjJwkvwyMKI&#xD;&#xa;qMbCTCTIwvQSy8IxEsvCVT/JwrI3w8LA8sLCCD7EwsxXxMJSjsXCfjXFwqTKxMI/gsPCDozDwtwF&#xD;&#xa;xMISn8bChHvJwlFQyMJYCsbCP4jIwtkBycLiFsrCbCrKwvyTysIWncnC+A3HwuI5x8I8/MbC0hHI&#xD;&#xa;wopJzMLmb83CFkvMwpy/y8Kn7MrCfJrJwuLDyMJKn8bCStTGwpb7ycIMo8nCcivFwsapxcJkx8bC&#xD;&#xa;ALLIwriaycJM3cfC8r/KwlSoy8I4A8vCpFHJwkRrzMIKr87CWD7MwsiJycKW9cfCUjbKwq+YycLi&#xD;&#xa;U8jCROHHwhdWycKaU8nCF7jMwmKaz8L//8zC8tjOwjxezsIUysvCzHLJwiJryMLRm8bCgLjKwsi8&#xD;&#xa;ysIhfszCPETLwqtbyMJGeMfCpRPJwnwZzMJSIs3CqhPMwmDiyMLZYsjCz13KwgwKy8LCi8jCyrTM&#xD;&#xa;wgwxzMK4ZcvC087JwkV2xsLyXsnCjIbLwhwvzcLfrM7CeITKwla3ysLK3cnC/PHFwpScxcIUQ8nC&#xD;&#xa;NJzIwrEsxsJvZcfCXSvIwlKLx8JII8nCvgzKwpnhysJSC8vC9iTKwiA/y8IadczCuDrMwuVaysLO&#xD;&#xa;r8vCXtfJwrZ6ycItucnCtonJwjyTysJkC83CL0nMwkjdyMIBucfCixrLwvSDysKGX8nCsCzMwuas&#xD;&#xa;0cIsnNPCuEvOwtr5y8LMBc7Cr+PTwsQc5MLcOfPCKOj0wjr59cJ0C/fCzg75wkwh+8LmVPnCqz72&#xD;&#xa;wnB+9cLuJvrCtEL4wkp7+MLOfffCDN3zwkaz9sLi8vjCFKr6wgIQ+cI8iPjCBpT4wvR1+MLQI/rC&#xD;&#xa;Ihn8wlQg+sIcLvjCVCz2wsI49MJQ9fbC23H3woy69sL4BfnCIOb2wjwy9cIuGvnCdmb3wj7K9MI+&#xD;&#xa;KPXCJpr2wn7C9cKQDvnCthv7woaP+cLGaPbCTr32wrpN+cIFSPjCDvX4wtD39sJY//TCKGf3wvZI&#xD;&#xa;+cK9YvfCgYf3wjIf+sLMMvfCpjz2wuA6+cII8vbCxDv1wmJG9sLka/rCPrT1wi589cLqjfbC9qP4&#xD;&#xa;wgzJ+MLelPbCGir2wlBC9sKeU/jC/nn3wsYn9sL4QPjCXBj5wopQ+MIaJvnCSB36wgjc+MIMfPfC&#xD;&#xa;W+z1wmYG+MKuxPnCCuD1wjh+9sLDrPfCOPj3wm7h+MJjMvfCxH/2wsXf98KwN/nCKOn5wrLR+sKg&#xD;&#xa;bPvCkFv5wsAu+cL2hffCySz2wmRX+MKiiPjCzFX4wvjB98Jgz/fCxPT4wobP+cL8avjC9r34wnKx&#xD;&#xa;+MK+LPnC3H34wle39cKejfbCNKP2wg5B9sK0H/rCSvz2woqE98JAqfjCBPL4wmKi+MIu2/jCMFD5&#xD;&#xa;wiCM+cKo//nCGqz7wlZN+sKUDfjC0ov4wrIU+sIVpffCP2/3woye98KktPbCTJj2wpH29cL3mvbC&#xD;&#xa;jL/4wti/+MLm3vjCQ9QEwzOmYsI/y13CPNeLwsehjcK+No/Cm+aOwlHvjcIja5HCun6XwoKemMJy&#xD;&#xa;lpPCuQeRwhgMlcJGdZvCTjScwgFMncIGh5zCGrOawuO0nMJdJZ3Cybudwo6toMIdraPCs/6jwpY0&#xD;&#xa;psLIUqjCWQmpwonmp8KcE6XCgXGlwqC+psIFHabCBoyownWvqcIkX6jCgnCpwms3qsIW0KfCM7Oj&#xD;&#xa;wnGLosJgcKnCdk6swiIgscKFrbDCtNmowrZmpcIHYqjCCg2pwqUNq8KgHq7ChEGxwhVFs8KU6LLC&#xD;&#xa;dvWzwpVHscI6NrDCMpGwwubcs8Imh7bCPKq6wj7tvMKSbr3ClsG+wq4qwMLXQr7CpAK5whxiuMJp&#xD;&#xa;v7nCwu29wloQvsIXTL3CzjDAwsDTwcL69sHC8urAwtAFwMIkSMLCpJHDwjLOw8JG8sTCmMvDwq7H&#xD;&#xa;wsLOncPC+CDDwkh6wsLU5sPCP23Fwm5Qx8KlYsTCm0XCwnhexcLsTsPCSMPDwjvJw8LMWcHC2XHD&#xD;&#xa;wjj5wsICs8TChWvEwgCywcKDdcHCFnHCwurMxMLlVsTCfrDGwmzqyMKoGsfC7ITIwtqRyMJwzcbC&#xD;&#xa;ppbEwiv5xcIXxsTCzDfCwtSExMKEjcTC8ObDwiJ9yMIQm8vCIkDGwqHyxcIyYcbCyAXIwmyBx8I4&#xD;&#xa;n8PCvyPGwuiKxMJggMfCdL3JwsMhysLi6sXCRa7Ewoykx8Jk/MXC0NfEwtK0xcJQTMTCvvvGwtqJ&#xD;&#xa;xMKmFsTCSbfGwq76x8IQ+sjCsqnIwkJdycIaT8fC0nbHwlf2xsLg/cbCtIHHwsTvxsI0KsbCsqDH&#xD;&#xa;wgLix8JGKcXCyNTDwjDwwsIb98bC6MjJwg6Zy8Kg+cvCaC3HwtIgw8KW7sXC3EHGwmcUxcL++8fC&#xD;&#xa;CWbIwsDoxsJFz8PCJkXFwiD7xcIQDsfC8ljIwrDLxMKkeMLClpHEwiqgyMJcjcjC6krGwl50w8Iy&#xD;&#xa;7sXCWv3HwkQ1xsKUwMPC2K/EwootxMJUqMTCH3LDwuojxcKil8fCjmXIwkLJxcID78TClTvGwhel&#xD;&#xa;xsIca8bC1rbCwk6+wsIQfsfCIlPHwpJExcLWhMbCDNvEwuryxMKklMXCeBDDwolhwcIiasLCQYfE&#xD;&#xa;whUfwsJx4MTCsEnIwkX0xcK+3sbCIqLHwrARx8IWtMTCGAnFwomNxMLfbcTCQIPDwjqww8L+MMTC&#xD;&#xa;mqjHwrBaxMI6YsTCxmvIwqyKycKQaMXCnx7FwkYvx8In6sjCGMzIwuvAxcL8a8XCiBjJwkvwyMKI&#xD;&#xa;qMbCTCTIwvQSy8IxEsvCVT/JwrI3w8LA8sLCCD7EwsxXxMJSjsXCfjXFwqTKxMI/gsPCDozDwtwF&#xD;&#xa;xMISn8bChHvJwlFQyMJYCsbCP4jIwtkBycLiFsrCbCrKwvyTysIWncnC+A3HwuI5x8I8/MbC0hHI&#xD;&#xa;wopJzMLmb83CFkvMwpy/y8Kn7MrCfJrJwuLDyMJKn8bCStTGwpb7ycIMo8nCcivFwsapxcJkx8bC&#xD;&#xa;ALLIwriaycJM3cfC8r/KwlSoy8I4A8vCpFHJwkRrzMIKr87CWD7MwsiJycKW9cfCUjbKwq+YycLi&#xD;&#xa;U8jCROHHwhdWycKaU8nCF7jMwmKaz8L//8zC8tjOwjxezsIUysvCzHLJwiJryMLRm8bCgLjKwsi8&#xD;&#xa;ysIhfszCPETLwqtbyMJGeMfCpRPJwnwZzMJSIs3CqhPMwmDiyMLZYsjCz13KwgwKy8LCi8jCyrTM&#xD;&#xa;wgwxzMK4ZcvC087JwkV2xsLyXsnCjIbLwhwvzcLfrM7CeITKwla3ysLK3cnC/PHFwpScxcIUQ8nC&#xD;&#xa;NJzIwrEsxsJvZcfCXSvIwlKLx8JII8nCvgzKwpnhysJSC8vC9iTKwiA/y8IadczCuDrMwuVaysLO&#xD;&#xa;r8vCXtfJwrZ6ycItucnCtonJwjyTysJkC83CL0nMwkjdyMIBucfCixrLwvSDysKGX8nCsCzMwuas&#xD;&#xa;0cIsnNPCuEvOwtr5y8LMBc7Cr+PTwsQc5MLcOfPCKOj0wjr59cJ0C/fCzg75wkwh+8LmVPnCqz72&#xD;&#xa;wnB+9cLuJvrCtEL4wkp7+MLOfffCDN3zwkaz9sLi8vjCFKr6wgIQ+cI8iPjCBpT4wvR1+MLQI/rC&#xD;&#xa;Ihn8wlQg+sIcLvjCVCz2wsI49MJQ9fbC23H3woy69sL4BfnCIOb2wjwy9cIuGvnCdmb3wj7K9MI+&#xD;&#xa;KPXCJpr2wn7C9cKQDvnCthv7woaP+cLGaPbCTr32wrpN+cIFSPjCDvX4wtD39sJY//TCKGf3wvZI&#xD;&#xa;+cK9YvfCgYf3wjIf+sLMMvfCpjz2wuA6+cII8vbCxDv1wmJG9sLka/rCPrT1wi589cLqjfbC9qP4&#xD;&#xa;wgzJ+MLelPbCGir2wlBC9sKeU/jC/nn3wsYn9sL4QPjCXBj5wopQ+MIaJvnCSB36wgjc+MIMfPfC&#xD;&#xa;W+z1wmYG+MKuxPnCCuD1wjh+9sLDrPfCOPj3wm7h+MJjMvfCxH/2wsXf98KwN/nCKOn5wrLR+sKg&#xD;&#xa;bPvCkFv5wsAu+cL2hffCySz2wmRX+MKiiPjCzFX4wvjB98Jgz/fCxPT4wobP+cL8avjC9r34wnKx&#xD;&#xa;+MK+LPnC3H34wle39cKejfbCNKP2wg5B9sK0H/rCSvz2woqE98JAqfjCBPL4wmKi+MIu2/jCMFD5&#xD;&#xa;wiCM+cKo//nCGqz7wlZN+sKUDfjC0ov4wrIU+sIVpffCP2/3woye98KktPbCTJj2wpH29cL3mvbC&#xD;&#xa;jL/4wti/+MLm3vjCQ9QE" leadInLength="0/1"  />
            </Keyframes>
           </Parameter>
           </Parameters>
          </GenericEffect>
          <GenericEffect id="5184" name = "WinCompression" >
           <Parameters>
           <InterpolatingParam id="5185" interp="linr"  time="0/1" value="0" leadInLength="0/1"   name="attack"/>
           <InterpolatingParam id="5186" interp="linr"  time="0/1" value="9" leadInLength="0/1"   name="gain"/>
           <Parameter id="5187"   name="preset">
            <Keyframes>
            <Keyframe id="5188"  time="0/1" value="1" leadInLength="0/1"  />
            </Keyframes>
           </Parameter>
           <InterpolatingParam id="5189" interp="linr"  time="0/1" value="10" leadInLength="0/1"   name="ratio"/>
           <InterpolatingParam id="5190" interp="linr"  time="0/1" value="3500" leadInLength="0/1"   name="release"/>
           <InterpolatingParam id="5191" interp="linr"  time="0/1" value="-20" leadInLength="0/1"   name="threshold"/>
           </Parameters>
          </GenericEffect>
          <GenericEffect id="5192" name = "Declipper" >
           <Parameters>
           <InterpolatingParam id="5193" interp="linr"  time="0/1" value="-1" leadInLength="0/1"   name="sensitivity"/>
           </Parameters>
          </GenericEffect>
          <GenericEffect id="5194" name = "Declicker" >
           <Parameters>
           <InterpolatingParam id="5195" interp="linr"  time="0/1" value="3" leadInLength="0/1"   name="sensitivity"/>
           </Parameters>
          </GenericEffect>
         </Effects>
         <Attributes>
          <Attribute id="5196" value="" name="ident"/>
          <Attribute id="5197" value="0" name="mixToMono"/>
         </Attributes>
         <MetaData>
          <entry key="WinSubProjectDisplayName" val=""/>
         </MetaData>
         <ExtraData>
          <Entry key="ZoomPanBin">
           <ZoomPanBin id="5198"  >
            <ZoomPanKeyframes>
            </ZoomPanKeyframes>
           </ZoomPanBin>
          </Entry>
          <Entry key="CursorEffectBin">
           <CursorEffectBin id="5199"  >
            <CursorEffectKeyframes>
            </CursorEffectKeyframes>
           </CursorEffectBin>
          </Entry>
         </ExtraData>
         <GenericTrack id="5200"  >
          <Attributes>
           <Attribute id="5201" value="" name="ident"/>
           <Attribute id="5202" value="0" name="audioMuted"/>
           <Attribute id="5203" value="0" name="videoHidden"/>
          </Attributes>
          <MetaData>
           <entry key="IsLocked" val="False"/>
           <entry key="WinTrackHeight" val="0"/>
          </MetaData>
          <Medias>
           <AMFile id="5204" start="0" duration="582" scalar="1/1" mediaStart="0/1" mediaDuration="582/1" trackNumber="0" src="22" channelNumber="0" >
            <Parameters>
             <InterpolatingParam id="5205" interp="linr"  time="0/1" value="1" leadInLength="0/1"  name="volume"/>
             <Parameter id="5206"  name="captions"/>
            </Parameters>
            <Attributes>
             <Attribute id="5207" value="" name="ident"/>
             <Attribute id="5208" value="44100" name="sampleRate"/>
             <Attribute id="5209" value="16" name="bitDepth"/>
             <Attribute id="5210" value="1" name="gain"/>
             <Attribute id="5211" value="0" name="mixToMono"/>
            </Attributes>
            <MetaData>
             <entry key="WinSubProjectDisplayName" val=""/>
            </MetaData>
           </AMFile>
           <AMFile id="5212" start="582" duration="908" scalar="1/1" mediaStart="971/1" mediaDuration="908/1" trackNumber="0" src="22" channelNumber="0" >
            <Parameters>
             <InterpolatingParam id="5213" interp="linr"  time="0/1" value="1" leadInLength="0/1"  name="volume"/>
             <Parameter id="5214"  name="captions"/>
            </Parameters>
            <Attributes>
             <Attribute id="5215" value="" name="ident"/>
             <Attribute id="5216" value="44100" name="sampleRate"/>
             <Attribute id="5217" value="16" name="bitDepth"/>
             <Attribute id="5218" value="1" name="gain"/>
             <Attribute id="5219" value="0" name="mixToMono"/>
            </Attributes>
            <MetaData>
             <entry key="WinSubProjectDisplayName" val=""/>
            </MetaData>
           </AMFile>
           <AMFile id="5220" start="1490" duration="165" scalar="1/1" mediaStart="1884/1" mediaDuration="165/1" trackNumber="0" src="22" channelNumber="0" >
            <Parameters>
             <InterpolatingParam id="5221" interp="linr"  time="0/1" value="1" leadInLength="0/1"  name="volume"/>
             <Parameter id="5222"  name="captions"/>
            </Parameters>
            <Attributes>
             <Attribute id="5223" value="" name="ident"/>
             <Attribute id="5224" value="44100" name="sampleRate"/>
             <Attribute id="5225" value="16" name="bitDepth"/>
             <Attribute id="5226" value="1" name="gain"/>
             <Attribute id="5227" value="0" name="mixToMono"/>
            </Attributes>
            <MetaData>
             <entry key="WinSubProjectDisplayName" val=""/>
            </MetaData>
           </AMFile>
           <AMFile id="5228" start="1655" duration="2" scalar="1/1" mediaStart="2164/1" mediaDuration="2/1" trackNumber="0" src="22" channelNumber="0" >
            <Parameters>
             <InterpolatingParam id="5229" interp="linr"  time="0/1" value="1" leadInLength="0/1"  name="volume"/>
             <Parameter id="5230"  name="captions"/>
            </Parameters>
            <Attributes>
             <Attribute id="5231" value="" name="ident"/>
             <Attribute id="5232" value="44100" name="sampleRate"/>
             <Attribute id="5233" value="16" name="bitDepth"/>
             <Attribute id="5234" value="1" name="gain"/>
             <Attribute id="5235" value="0" name="mixToMono"/>
            </Attributes>
            <MetaData>
             <entry key="WinSubProjectDisplayName" val=""/>
            </MetaData>
           </AMFile>
           <AMFile id="5236" start="1657" duration="12072" scalar="1/1" mediaStart="2496/1" mediaDuration="12072/1" trackNumber="0" src="22" channelNumber="0" >
            <Parameters>
             <InterpolatingParam id="5237" interp="linr"  time="0/1" value="1" leadInLength="0/1"  name="volume"/>
             <Parameter id="5238"  name="captions"/>
            </Parameters>
            <Attributes>
             <Attribute id="5239" value="" name="ident"/>
             <Attribute id="5240" value="44100" name="sampleRate"/>
             <Attribute id="5241" value="16" name="bitDepth"/>
             <Attribute id="5242" value="1" name="gain"/>
             <Attribute id="5243" value="0" name="mixToMono"/>
            </Attributes>
            <MetaData>
             <entry key="WinSubProjectDisplayName" val=""/>
            </MetaData>
           </AMFile>
          </Medias>
         </GenericTrack>
        </StitchedMedia>
        <AMFile id="5244" start="1673" duration="200" scalar="1/1" mediaStart="2768/1" mediaDuration="200/1" trackNumber="0" src="22" channelNumber="0" >
         <Parameters>
          <InterpolatingParam id="5245" interp="linr"  name="volume">
           <Keyframes>
           <Keyframe id="5246"  time="0/1" value="1" leadInLength="0/1"  />
           <Keyframe id="5247"  time="2730/1" value="1" leadInLength="0/1"  />
           <Keyframe id="5248"  time="2731/1" value="0.99255583126550895" leadInLength="0/1"  />
           <Keyframe id="5249"  time="2968/1" value="0.99255583126550895" leadInLength="0/1"  />
           <Keyframe id="5250"  time="2969/1" value="1" leadInLength="0/1"  />
           </Keyframes>
          </InterpolatingParam>
          <Parameter id="5251"  name="captions"/>
         </Parameters>
         <Effects>
          <GenericEffect id="5252" name = "NoiseReduction" >
           <Parameters>
           <InterpolatingParam id="5253" interp="linr"  time="0/1" value="20" leadInLength="0/1"   name="denoiserAmount"/>
           <InterpolatingParam id="5254" interp="linr"  time="0/1" value="0" leadInLength="0/1"   name="denoiserThreshold"/>
           <Parameter id="5255"   name="noiseProfile">
            <Keyframes>
            <Keyframe id="5256"  time="0/1" value="FBAAAAIAAABErAAAAQIAADOmYsI/y13CPNeLwsehjcK+No/Cm+aOwlHvjcIja5HCun6XwoKemMJy&#xD;&#xa;lpPCuQeRwhgMlcJGdZvCTjScwgFMncIGh5zCGrOawuO0nMJdJZ3Cybudwo6toMIdraPCs/6jwpY0&#xD;&#xa;psLIUqjCWQmpwonmp8KcE6XCgXGlwqC+psIFHabCBoyownWvqcIkX6jCgnCpwms3qsIW0KfCM7Oj&#xD;&#xa;wnGLosJgcKnCdk6swiIgscKFrbDCtNmowrZmpcIHYqjCCg2pwqUNq8KgHq7ChEGxwhVFs8KU6LLC&#xD;&#xa;dvWzwpVHscI6NrDCMpGwwubcs8Imh7bCPKq6wj7tvMKSbr3ClsG+wq4qwMLXQr7CpAK5whxiuMJp&#xD;&#xa;v7nCwu29wloQvsIXTL3CzjDAwsDTwcL69sHC8urAwtAFwMIkSMLCpJHDwjLOw8JG8sTCmMvDwq7H&#xD;&#xa;wsLOncPC+CDDwkh6wsLU5sPCP23Fwm5Qx8KlYsTCm0XCwnhexcLsTsPCSMPDwjvJw8LMWcHC2XHD&#xD;&#xa;wjj5wsICs8TChWvEwgCywcKDdcHCFnHCwurMxMLlVsTCfrDGwmzqyMKoGsfC7ITIwtqRyMJwzcbC&#xD;&#xa;ppbEwiv5xcIXxsTCzDfCwtSExMKEjcTC8ObDwiJ9yMIQm8vCIkDGwqHyxcIyYcbCyAXIwmyBx8I4&#xD;&#xa;n8PCvyPGwuiKxMJggMfCdL3JwsMhysLi6sXCRa7Ewoykx8Jk/MXC0NfEwtK0xcJQTMTCvvvGwtqJ&#xD;&#xa;xMKmFsTCSbfGwq76x8IQ+sjCsqnIwkJdycIaT8fC0nbHwlf2xsLg/cbCtIHHwsTvxsI0KsbCsqDH&#xD;&#xa;wgLix8JGKcXCyNTDwjDwwsIb98bC6MjJwg6Zy8Kg+cvCaC3HwtIgw8KW7sXC3EHGwmcUxcL++8fC&#xD;&#xa;CWbIwsDoxsJFz8PCJkXFwiD7xcIQDsfC8ljIwrDLxMKkeMLClpHEwiqgyMJcjcjC6krGwl50w8Iy&#xD;&#xa;7sXCWv3HwkQ1xsKUwMPC2K/EwootxMJUqMTCH3LDwuojxcKil8fCjmXIwkLJxcID78TClTvGwhel&#xD;&#xa;xsIca8bC1rbCwk6+wsIQfsfCIlPHwpJExcLWhMbCDNvEwuryxMKklMXCeBDDwolhwcIiasLCQYfE&#xD;&#xa;whUfwsJx4MTCsEnIwkX0xcK+3sbCIqLHwrARx8IWtMTCGAnFwomNxMLfbcTCQIPDwjqww8L+MMTC&#xD;&#xa;mqjHwrBaxMI6YsTCxmvIwqyKycKQaMXCnx7FwkYvx8In6sjCGMzIwuvAxcL8a8XCiBjJwkvwyMKI&#xD;&#xa;qMbCTCTIwvQSy8IxEsvCVT/JwrI3w8LA8sLCCD7EwsxXxMJSjsXCfjXFwqTKxMI/gsPCDozDwtwF&#xD;&#xa;xMISn8bChHvJwlFQyMJYCsbCP4jIwtkBycLiFsrCbCrKwvyTysIWncnC+A3HwuI5x8I8/MbC0hHI&#xD;&#xa;wopJzMLmb83CFkvMwpy/y8Kn7MrCfJrJwuLDyMJKn8bCStTGwpb7ycIMo8nCcivFwsapxcJkx8bC&#xD;&#xa;ALLIwriaycJM3cfC8r/KwlSoy8I4A8vCpFHJwkRrzMIKr87CWD7MwsiJycKW9cfCUjbKwq+YycLi&#xD;&#xa;U8jCROHHwhdWycKaU8nCF7jMwmKaz8L//8zC8tjOwjxezsIUysvCzHLJwiJryMLRm8bCgLjKwsi8&#xD;&#xa;ysIhfszCPETLwqtbyMJGeMfCpRPJwnwZzMJSIs3CqhPMwmDiyMLZYsjCz13KwgwKy8LCi8jCyrTM&#xD;&#xa;wgwxzMK4ZcvC087JwkV2xsLyXsnCjIbLwhwvzcLfrM7CeITKwla3ysLK3cnC/PHFwpScxcIUQ8nC&#xD;&#xa;NJzIwrEsxsJvZcfCXSvIwlKLx8JII8nCvgzKwpnhysJSC8vC9iTKwiA/y8IadczCuDrMwuVaysLO&#xD;&#xa;r8vCXtfJwrZ6ycItucnCtonJwjyTysJkC83CL0nMwkjdyMIBucfCixrLwvSDysKGX8nCsCzMwuas&#xD;&#xa;0cIsnNPCuEvOwtr5y8LMBc7Cr+PTwsQc5MLcOfPCKOj0wjr59cJ0C/fCzg75wkwh+8LmVPnCqz72&#xD;&#xa;wnB+9cLuJvrCtEL4wkp7+MLOfffCDN3zwkaz9sLi8vjCFKr6wgIQ+cI8iPjCBpT4wvR1+MLQI/rC&#xD;&#xa;Ihn8wlQg+sIcLvjCVCz2wsI49MJQ9fbC23H3woy69sL4BfnCIOb2wjwy9cIuGvnCdmb3wj7K9MI+&#xD;&#xa;KPXCJpr2wn7C9cKQDvnCthv7woaP+cLGaPbCTr32wrpN+cIFSPjCDvX4wtD39sJY//TCKGf3wvZI&#xD;&#xa;+cK9YvfCgYf3wjIf+sLMMvfCpjz2wuA6+cII8vbCxDv1wmJG9sLka/rCPrT1wi589cLqjfbC9qP4&#xD;&#xa;wgzJ+MLelPbCGir2wlBC9sKeU/jC/nn3wsYn9sL4QPjCXBj5wopQ+MIaJvnCSB36wgjc+MIMfPfC&#xD;&#xa;W+z1wmYG+MKuxPnCCuD1wjh+9sLDrPfCOPj3wm7h+MJjMvfCxH/2wsXf98KwN/nCKOn5wrLR+sKg&#xD;&#xa;bPvCkFv5wsAu+cL2hffCySz2wmRX+MKiiPjCzFX4wvjB98Jgz/fCxPT4wobP+cL8avjC9r34wnKx&#xD;&#xa;+MK+LPnC3H34wle39cKejfbCNKP2wg5B9sK0H/rCSvz2woqE98JAqfjCBPL4wmKi+MIu2/jCMFD5&#xD;&#xa;wiCM+cKo//nCGqz7wlZN+sKUDfjC0ov4wrIU+sIVpffCP2/3woye98KktPbCTJj2wpH29cL3mvbC&#xD;&#xa;jL/4wti/+MLm3vjCQ9QEwzOmYsI/y13CPNeLwsehjcK+No/Cm+aOwlHvjcIja5HCun6XwoKemMJy&#xD;&#xa;lpPCuQeRwhgMlcJGdZvCTjScwgFMncIGh5zCGrOawuO0nMJdJZ3Cybudwo6toMIdraPCs/6jwpY0&#xD;&#xa;psLIUqjCWQmpwonmp8KcE6XCgXGlwqC+psIFHabCBoyownWvqcIkX6jCgnCpwms3qsIW0KfCM7Oj&#xD;&#xa;wnGLosJgcKnCdk6swiIgscKFrbDCtNmowrZmpcIHYqjCCg2pwqUNq8KgHq7ChEGxwhVFs8KU6LLC&#xD;&#xa;dvWzwpVHscI6NrDCMpGwwubcs8Imh7bCPKq6wj7tvMKSbr3ClsG+wq4qwMLXQr7CpAK5whxiuMJp&#xD;&#xa;v7nCwu29wloQvsIXTL3CzjDAwsDTwcL69sHC8urAwtAFwMIkSMLCpJHDwjLOw8JG8sTCmMvDwq7H&#xD;&#xa;wsLOncPC+CDDwkh6wsLU5sPCP23Fwm5Qx8KlYsTCm0XCwnhexcLsTsPCSMPDwjvJw8LMWcHC2XHD&#xD;&#xa;wjj5wsICs8TChWvEwgCywcKDdcHCFnHCwurMxMLlVsTCfrDGwmzqyMKoGsfC7ITIwtqRyMJwzcbC&#xD;&#xa;ppbEwiv5xcIXxsTCzDfCwtSExMKEjcTC8ObDwiJ9yMIQm8vCIkDGwqHyxcIyYcbCyAXIwmyBx8I4&#xD;&#xa;n8PCvyPGwuiKxMJggMfCdL3JwsMhysLi6sXCRa7Ewoykx8Jk/MXC0NfEwtK0xcJQTMTCvvvGwtqJ&#xD;&#xa;xMKmFsTCSbfGwq76x8IQ+sjCsqnIwkJdycIaT8fC0nbHwlf2xsLg/cbCtIHHwsTvxsI0KsbCsqDH&#xD;&#xa;wgLix8JGKcXCyNTDwjDwwsIb98bC6MjJwg6Zy8Kg+cvCaC3HwtIgw8KW7sXC3EHGwmcUxcL++8fC&#xD;&#xa;CWbIwsDoxsJFz8PCJkXFwiD7xcIQDsfC8ljIwrDLxMKkeMLClpHEwiqgyMJcjcjC6krGwl50w8Iy&#xD;&#xa;7sXCWv3HwkQ1xsKUwMPC2K/EwootxMJUqMTCH3LDwuojxcKil8fCjmXIwkLJxcID78TClTvGwhel&#xD;&#xa;xsIca8bC1rbCwk6+wsIQfsfCIlPHwpJExcLWhMbCDNvEwuryxMKklMXCeBDDwolhwcIiasLCQYfE&#xD;&#xa;whUfwsJx4MTCsEnIwkX0xcK+3sbCIqLHwrARx8IWtMTCGAnFwomNxMLfbcTCQIPDwjqww8L+MMTC&#xD;&#xa;mqjHwrBaxMI6YsTCxmvIwqyKycKQaMXCnx7FwkYvx8In6sjCGMzIwuvAxcL8a8XCiBjJwkvwyMKI&#xD;&#xa;qMbCTCTIwvQSy8IxEsvCVT/JwrI3w8LA8sLCCD7EwsxXxMJSjsXCfjXFwqTKxMI/gsPCDozDwtwF&#xD;&#xa;xMISn8bChHvJwlFQyMJYCsbCP4jIwtkBycLiFsrCbCrKwvyTysIWncnC+A3HwuI5x8I8/MbC0hHI&#xD;&#xa;wopJzMLmb83CFkvMwpy/y8Kn7MrCfJrJwuLDyMJKn8bCStTGwpb7ycIMo8nCcivFwsapxcJkx8bC&#xD;&#xa;ALLIwriaycJM3cfC8r/KwlSoy8I4A8vCpFHJwkRrzMIKr87CWD7MwsiJycKW9cfCUjbKwq+YycLi&#xD;&#xa;U8jCROHHwhdWycKaU8nCF7jMwmKaz8L//8zC8tjOwjxezsIUysvCzHLJwiJryMLRm8bCgLjKwsi8&#xD;&#xa;ysIhfszCPETLwqtbyMJGeMfCpRPJwnwZzMJSIs3CqhPMwmDiyMLZYsjCz13KwgwKy8LCi8jCyrTM&#xD;&#xa;wgwxzMK4ZcvC087JwkV2xsLyXsnCjIbLwhwvzcLfrM7CeITKwla3ysLK3cnC/PHFwpScxcIUQ8nC&#xD;&#xa;NJzIwrEsxsJvZcfCXSvIwlKLx8JII8nCvgzKwpnhysJSC8vC9iTKwiA/y8IadczCuDrMwuVaysLO&#xD;&#xa;r8vCXtfJwrZ6ycItucnCtonJwjyTysJkC83CL0nMwkjdyMIBucfCixrLwvSDysKGX8nCsCzMwuas&#xD;&#xa;0cIsnNPCuEvOwtr5y8LMBc7Cr+PTwsQc5MLcOfPCKOj0wjr59cJ0C/fCzg75wkwh+8LmVPnCqz72&#xD;&#xa;wnB+9cLuJvrCtEL4wkp7+MLOfffCDN3zwkaz9sLi8vjCFKr6wgIQ+cI8iPjCBpT4wvR1+MLQI/rC&#xD;&#xa;Ihn8wlQg+sIcLvjCVCz2wsI49MJQ9fbC23H3woy69sL4BfnCIOb2wjwy9cIuGvnCdmb3wj7K9MI+&#xD;&#xa;KPXCJpr2wn7C9cKQDvnCthv7woaP+cLGaPbCTr32wrpN+cIFSPjCDvX4wtD39sJY//TCKGf3wvZI&#xD;&#xa;+cK9YvfCgYf3wjIf+sLMMvfCpjz2wuA6+cII8vbCxDv1wmJG9sLka/rCPrT1wi589cLqjfbC9qP4&#xD;&#xa;wgzJ+MLelPbCGir2wlBC9sKeU/jC/nn3wsYn9sL4QPjCXBj5wopQ+MIaJvnCSB36wgjc+MIMfPfC&#xD;&#xa;W+z1wmYG+MKuxPnCCuD1wjh+9sLDrPfCOPj3wm7h+MJjMvfCxH/2wsXf98KwN/nCKOn5wrLR+sKg&#xD;&#xa;bPvCkFv5wsAu+cL2hffCySz2wmRX+MKiiPjCzFX4wvjB98Jgz/fCxPT4wobP+cL8avjC9r34wnKx&#xD;&#xa;+MK+LPnC3H34wle39cKejfbCNKP2wg5B9sK0H/rCSvz2woqE98JAqfjCBPL4wmKi+MIu2/jCMFD5&#xD;&#xa;wiCM+cKo//nCGqz7wlZN+sKUDfjC0ov4wrIU+sIVpffCP2/3woye98KktPbCTJj2wpH29cL3mvbC&#xD;&#xa;jL/4wti/+MLm3vjCQ9QE" leadInLength="0/1"  />
            </Keyframes>
           </Parameter>
           </Parameters>
          </GenericEffect>
          <GenericEffect id="5257" name = "WinCompression" >
           <Parameters>
           <InterpolatingParam id="5258" interp="linr"  time="0/1" value="0" leadInLength="0/1"   name="attack"/>
           <InterpolatingParam id="5259" interp="linr"  time="0/1" value="9" leadInLength="0/1"   name="gain"/>
           <Parameter id="5260"   name="preset">
            <Keyframes>
            <Keyframe id="5261"  time="0/1" value="1" leadInLength="0/1"  />
            </Keyframes>
           </Parameter>
           <InterpolatingParam id="5262" interp="linr"  time="0/1" value="10" leadInLength="0/1"   name="ratio"/>
           <InterpolatingParam id="5263" interp="linr"  time="0/1" value="3500" leadInLength="0/1"   name="release"/>
           <InterpolatingParam id="5264" interp="linr"  time="0/1" value="-20" leadInLength="0/1"   name="threshold"/>
           </Parameters>
          </GenericEffect>
          <GenericEffect id="5265" name = "Declipper" >
           <Parameters>
           <InterpolatingParam id="5266" interp="linr"  time="0/1" value="-1" leadInLength="0/1"   name="sensitivity"/>
           </Parameters>
          </GenericEffect>
          <GenericEffect id="5267" name = "Declicker" >
           <Parameters>
           <InterpolatingParam id="5268" interp="linr"  time="0/1" value="3" leadInLength="0/1"   name="sensitivity"/>
           </Parameters>
          </GenericEffect>
         </Effects>
         <Attributes>
          <Attribute id="5269" value="" name="ident"/>
          <Attribute id="5270" value="44100" name="sampleRate"/>
          <Attribute id="5271" value="16" name="bitDepth"/>
          <Attribute id="5272" value="1" name="gain"/>
          <Attribute id="5273" value="0" name="mixToMono"/>
         </Attributes>
         <MetaData>
          <entry key="WinSubProjectDisplayName" val=""/>
         </MetaData>
        </AMFile>
        <StitchedMedia id="5274" start="1880" duration="59" scalar="1/1" mediaStart="3302/1" mediaDuration="59/1" minMediaStart="0/1" >
         <Transformer>
          <VectorParam id="5275"  name="translation">
           <InterpolatingParam id="5276" interp="linr"  time="0/1" value="0" leadInLength="0/1"  />
           <InterpolatingParam id="5277" interp="linr"  time="0/1" value="0" leadInLength="0/1"  />
           <InterpolatingParam id="5278" interp="linr"  time="0/1" value="0" leadInLength="0/1"  />
          </VectorParam>
          <VectorParam id="5279"  name="rotation">
           <InterpolatingParam id="5280" interp="linr"  time="0/1" value="0" leadInLength="0/1"  />
           <InterpolatingParam id="5281" interp="linr"  time="0/1" value="0" leadInLength="0/1"  />
           <InterpolatingParam id="5282" interp="linr"  time="0/1" value="0" leadInLength="0/1"  />
          </VectorParam>
          <VectorParam id="5283"  name="shear">
           <InterpolatingParam id="5284" interp="linr"  time="0/1" value="0" leadInLength="0/1"  />
           <InterpolatingParam id="5285" interp="linr"  time="0/1" value="0" leadInLength="0/1"  />
           <InterpolatingParam id="5286" interp="linr"  time="0/1" value="0" leadInLength="0/1"  />
          </VectorParam>
          <VectorParam id="5287"  name="scale">
           <InterpolatingParam id="5288" interp="linr"  time="0/1" value="1" leadInLength="0/1"  />
           <InterpolatingParam id="5289" interp="linr"  time="0/1" value="1" leadInLength="0/1"  />
           <InterpolatingParam id="5290" interp="linr"  time="0/1" value="1" leadInLength="0/1"  />
          </VectorParam>
          <VectorParam id="5291"  name="anchor">
           <InterpolatingParam id="5292" interp="linr"  time="0/1" value="0" leadInLength="0/1"  />
           <InterpolatingParam id="5293" interp="linr"  time="0/1" value="0" leadInLength="0/1"  />
           <InterpolatingParam id="5294" interp="linr"  time="0/1" value="0" leadInLength="0/1"  />
          </VectorParam>
         </Transformer>
         <Parameters>
          <InterpolatingParam id="5295" interp="linr"  time="0/1" value="1" leadInLength="0/1"  name="cursorOpacity"/>
          <InterpolatingParam id="5296" interp="linr"  time="0/1" value="1" leadInLength="0/1"  name="cursorScale"/>
          <InterpolatingParam id="5297" interp="linr"  name="volume">
           <Keyframes>
           <Keyframe id="5298"  time="0/1" value="1" leadInLength="0/1"  />
           <Keyframe id="5299"  time="3301/1" value="1" leadInLength="0/1"  />
           <Keyframe id="5300"  time="3302/1" value="0.33498759305210879" leadInLength="0/1"  />
           <Keyframe id="5301"  time="3323/1" value="0.90430743780619693" leadInLength="0/1"  />
           <Keyframe id="5302"  time="3347/1" value="1.4055299539170498" leadInLength="0/1"  />
           <Keyframe id="5303"  time="13691/1" value="1.2211981566820271" leadInLength="0/1"  />
           <Keyframe id="5304"  time="13692/1" value="1" leadInLength="0/1"  />
           </Keyframes>
          </InterpolatingParam>
          <Parameter id="5305"  name="captions"/>
         </Parameters>
         <Effects>
          <GenericEffect id="5306" name = "NoiseReduction" >
           <Parameters>
           <InterpolatingParam id="5307" interp="linr"  time="0/1" value="20" leadInLength="0/1"   name="denoiserAmount"/>
           <InterpolatingParam id="5308" interp="linr"  time="0/1" value="0" leadInLength="0/1"   name="denoiserThreshold"/>
           <Parameter id="5309"   name="noiseProfile">
            <Keyframes>
            <Keyframe id="5310"  time="0/1" value="FBAAAAIAAABErAAAAQIAADOmYsI/y13CPNeLwsehjcK+No/Cm+aOwlHvjcIja5HCun6XwoKemMJy&#xD;&#xa;lpPCuQeRwhgMlcJGdZvCTjScwgFMncIGh5zCGrOawuO0nMJdJZ3Cybudwo6toMIdraPCs/6jwpY0&#xD;&#xa;psLIUqjCWQmpwonmp8KcE6XCgXGlwqC+psIFHabCBoyownWvqcIkX6jCgnCpwms3qsIW0KfCM7Oj&#xD;&#xa;wnGLosJgcKnCdk6swiIgscKFrbDCtNmowrZmpcIHYqjCCg2pwqUNq8KgHq7ChEGxwhVFs8KU6LLC&#xD;&#xa;dvWzwpVHscI6NrDCMpGwwubcs8Imh7bCPKq6wj7tvMKSbr3ClsG+wq4qwMLXQr7CpAK5whxiuMJp&#xD;&#xa;v7nCwu29wloQvsIXTL3CzjDAwsDTwcL69sHC8urAwtAFwMIkSMLCpJHDwjLOw8JG8sTCmMvDwq7H&#xD;&#xa;wsLOncPC+CDDwkh6wsLU5sPCP23Fwm5Qx8KlYsTCm0XCwnhexcLsTsPCSMPDwjvJw8LMWcHC2XHD&#xD;&#xa;wjj5wsICs8TChWvEwgCywcKDdcHCFnHCwurMxMLlVsTCfrDGwmzqyMKoGsfC7ITIwtqRyMJwzcbC&#xD;&#xa;ppbEwiv5xcIXxsTCzDfCwtSExMKEjcTC8ObDwiJ9yMIQm8vCIkDGwqHyxcIyYcbCyAXIwmyBx8I4&#xD;&#xa;n8PCvyPGwuiKxMJggMfCdL3JwsMhysLi6sXCRa7Ewoykx8Jk/MXC0NfEwtK0xcJQTMTCvvvGwtqJ&#xD;&#xa;xMKmFsTCSbfGwq76x8IQ+sjCsqnIwkJdycIaT8fC0nbHwlf2xsLg/cbCtIHHwsTvxsI0KsbCsqDH&#xD;&#xa;wgLix8JGKcXCyNTDwjDwwsIb98bC6MjJwg6Zy8Kg+cvCaC3HwtIgw8KW7sXC3EHGwmcUxcL++8fC&#xD;&#xa;CWbIwsDoxsJFz8PCJkXFwiD7xcIQDsfC8ljIwrDLxMKkeMLClpHEwiqgyMJcjcjC6krGwl50w8Iy&#xD;&#xa;7sXCWv3HwkQ1xsKUwMPC2K/EwootxMJUqMTCH3LDwuojxcKil8fCjmXIwkLJxcID78TClTvGwhel&#xD;&#xa;xsIca8bC1rbCwk6+wsIQfsfCIlPHwpJExcLWhMbCDNvEwuryxMKklMXCeBDDwolhwcIiasLCQYfE&#xD;&#xa;whUfwsJx4MTCsEnIwkX0xcK+3sbCIqLHwrARx8IWtMTCGAnFwomNxMLfbcTCQIPDwjqww8L+MMTC&#xD;&#xa;mqjHwrBaxMI6YsTCxmvIwqyKycKQaMXCnx7FwkYvx8In6sjCGMzIwuvAxcL8a8XCiBjJwkvwyMKI&#xD;&#xa;qMbCTCTIwvQSy8IxEsvCVT/JwrI3w8LA8sLCCD7EwsxXxMJSjsXCfjXFwqTKxMI/gsPCDozDwtwF&#xD;&#xa;xMISn8bChHvJwlFQyMJYCsbCP4jIwtkBycLiFsrCbCrKwvyTysIWncnC+A3HwuI5x8I8/MbC0hHI&#xD;&#xa;wopJzMLmb83CFkvMwpy/y8Kn7MrCfJrJwuLDyMJKn8bCStTGwpb7ycIMo8nCcivFwsapxcJkx8bC&#xD;&#xa;ALLIwriaycJM3cfC8r/KwlSoy8I4A8vCpFHJwkRrzMIKr87CWD7MwsiJycKW9cfCUjbKwq+YycLi&#xD;&#xa;U8jCROHHwhdWycKaU8nCF7jMwmKaz8L//8zC8tjOwjxezsIUysvCzHLJwiJryMLRm8bCgLjKwsi8&#xD;&#xa;ysIhfszCPETLwqtbyMJGeMfCpRPJwnwZzMJSIs3CqhPMwmDiyMLZYsjCz13KwgwKy8LCi8jCyrTM&#xD;&#xa;wgwxzMK4ZcvC087JwkV2xsLyXsnCjIbLwhwvzcLfrM7CeITKwla3ysLK3cnC/PHFwpScxcIUQ8nC&#xD;&#xa;NJzIwrEsxsJvZcfCXSvIwlKLx8JII8nCvgzKwpnhysJSC8vC9iTKwiA/y8IadczCuDrMwuVaysLO&#xD;&#xa;r8vCXtfJwrZ6ycItucnCtonJwjyTysJkC83CL0nMwkjdyMIBucfCixrLwvSDysKGX8nCsCzMwuas&#xD;&#xa;0cIsnNPCuEvOwtr5y8LMBc7Cr+PTwsQc5MLcOfPCKOj0wjr59cJ0C/fCzg75wkwh+8LmVPnCqz72&#xD;&#xa;wnB+9cLuJvrCtEL4wkp7+MLOfffCDN3zwkaz9sLi8vjCFKr6wgIQ+cI8iPjCBpT4wvR1+MLQI/rC&#xD;&#xa;Ihn8wlQg+sIcLvjCVCz2wsI49MJQ9fbC23H3woy69sL4BfnCIOb2wjwy9cIuGvnCdmb3wj7K9MI+&#xD;&#xa;KPXCJpr2wn7C9cKQDvnCthv7woaP+cLGaPbCTr32wrpN+cIFSPjCDvX4wtD39sJY//TCKGf3wvZI&#xD;&#xa;+cK9YvfCgYf3wjIf+sLMMvfCpjz2wuA6+cII8vbCxDv1wmJG9sLka/rCPrT1wi589cLqjfbC9qP4&#xD;&#xa;wgzJ+MLelPbCGir2wlBC9sKeU/jC/nn3wsYn9sL4QPjCXBj5wopQ+MIaJvnCSB36wgjc+MIMfPfC&#xD;&#xa;W+z1wmYG+MKuxPnCCuD1wjh+9sLDrPfCOPj3wm7h+MJjMvfCxH/2wsXf98KwN/nCKOn5wrLR+sKg&#xD;&#xa;bPvCkFv5wsAu+cL2hffCySz2wmRX+MKiiPjCzFX4wvjB98Jgz/fCxPT4wobP+cL8avjC9r34wnKx&#xD;&#xa;+MK+LPnC3H34wle39cKejfbCNKP2wg5B9sK0H/rCSvz2woqE98JAqfjCBPL4wmKi+MIu2/jCMFD5&#xD;&#xa;wiCM+cKo//nCGqz7wlZN+sKUDfjC0ov4wrIU+sIVpffCP2/3woye98KktPbCTJj2wpH29cL3mvbC&#xD;&#xa;jL/4wti/+MLm3vjCQ9QEwzOmYsI/y13CPNeLwsehjcK+No/Cm+aOwlHvjcIja5HCun6XwoKemMJy&#xD;&#xa;lpPCuQeRwhgMlcJGdZvCTjScwgFMncIGh5zCGrOawuO0nMJdJZ3Cybudwo6toMIdraPCs/6jwpY0&#xD;&#xa;psLIUqjCWQmpwonmp8KcE6XCgXGlwqC+psIFHabCBoyownWvqcIkX6jCgnCpwms3qsIW0KfCM7Oj&#xD;&#xa;wnGLosJgcKnCdk6swiIgscKFrbDCtNmowrZmpcIHYqjCCg2pwqUNq8KgHq7ChEGxwhVFs8KU6LLC&#xD;&#xa;dvWzwpVHscI6NrDCMpGwwubcs8Imh7bCPKq6wj7tvMKSbr3ClsG+wq4qwMLXQr7CpAK5whxiuMJp&#xD;&#xa;v7nCwu29wloQvsIXTL3CzjDAwsDTwcL69sHC8urAwtAFwMIkSMLCpJHDwjLOw8JG8sTCmMvDwq7H&#xD;&#xa;wsLOncPC+CDDwkh6wsLU5sPCP23Fwm5Qx8KlYsTCm0XCwnhexcLsTsPCSMPDwjvJw8LMWcHC2XHD&#xD;&#xa;wjj5wsICs8TChWvEwgCywcKDdcHCFnHCwurMxMLlVsTCfrDGwmzqyMKoGsfC7ITIwtqRyMJwzcbC&#xD;&#xa;ppbEwiv5xcIXxsTCzDfCwtSExMKEjcTC8ObDwiJ9yMIQm8vCIkDGwqHyxcIyYcbCyAXIwmyBx8I4&#xD;&#xa;n8PCvyPGwuiKxMJggMfCdL3JwsMhysLi6sXCRa7Ewoykx8Jk/MXC0NfEwtK0xcJQTMTCvvvGwtqJ&#xD;&#xa;xMKmFsTCSbfGwq76x8IQ+sjCsqnIwkJdycIaT8fC0nbHwlf2xsLg/cbCtIHHwsTvxsI0KsbCsqDH&#xD;&#xa;wgLix8JGKcXCyNTDwjDwwsIb98bC6MjJwg6Zy8Kg+cvCaC3HwtIgw8KW7sXC3EHGwmcUxcL++8fC&#xD;&#xa;CWbIwsDoxsJFz8PCJkXFwiD7xcIQDsfC8ljIwrDLxMKkeMLClpHEwiqgyMJcjcjC6krGwl50w8Iy&#xD;&#xa;7sXCWv3HwkQ1xsKUwMPC2K/EwootxMJUqMTCH3LDwuojxcKil8fCjmXIwkLJxcID78TClTvGwhel&#xD;&#xa;xsIca8bC1rbCwk6+wsIQfsfCIlPHwpJExcLWhMbCDNvEwuryxMKklMXCeBDDwolhwcIiasLCQYfE&#xD;&#xa;whUfwsJx4MTCsEnIwkX0xcK+3sbCIqLHwrARx8IWtMTCGAnFwomNxMLfbcTCQIPDwjqww8L+MMTC&#xD;&#xa;mqjHwrBaxMI6YsTCxmvIwqyKycKQaMXCnx7FwkYvx8In6sjCGMzIwuvAxcL8a8XCiBjJwkvwyMKI&#xD;&#xa;qMbCTCTIwvQSy8IxEsvCVT/JwrI3w8LA8sLCCD7EwsxXxMJSjsXCfjXFwqTKxMI/gsPCDozDwtwF&#xD;&#xa;xMISn8bChHvJwlFQyMJYCsbCP4jIwtkBycLiFsrCbCrKwvyTysIWncnC+A3HwuI5x8I8/MbC0hHI&#xD;&#xa;wopJzMLmb83CFkvMwpy/y8Kn7MrCfJrJwuLDyMJKn8bCStTGwpb7ycIMo8nCcivFwsapxcJkx8bC&#xD;&#xa;ALLIwriaycJM3cfC8r/KwlSoy8I4A8vCpFHJwkRrzMIKr87CWD7MwsiJycKW9cfCUjbKwq+YycLi&#xD;&#xa;U8jCROHHwhdWycKaU8nCF7jMwmKaz8L//8zC8tjOwjxezsIUysvCzHLJwiJryMLRm8bCgLjKwsi8&#xD;&#xa;ysIhfszCPETLwqtbyMJGeMfCpRPJwnwZzMJSIs3CqhPMwmDiyMLZYsjCz13KwgwKy8LCi8jCyrTM&#xD;&#xa;wgwxzMK4ZcvC087JwkV2xsLyXsnCjIbLwhwvzcLfrM7CeITKwla3ysLK3cnC/PHFwpScxcIUQ8nC&#xD;&#xa;NJzIwrEsxsJvZcfCXSvIwlKLx8JII8nCvgzKwpnhysJSC8vC9iTKwiA/y8IadczCuDrMwuVaysLO&#xD;&#xa;r8vCXtfJwrZ6ycItucnCtonJwjyTysJkC83CL0nMwkjdyMIBucfCixrLwvSDysKGX8nCsCzMwuas&#xD;&#xa;0cIsnNPCuEvOwtr5y8LMBc7Cr+PTwsQc5MLcOfPCKOj0wjr59cJ0C/fCzg75wkwh+8LmVPnCqz72&#xD;&#xa;wnB+9cLuJvrCtEL4wkp7+MLOfffCDN3zwkaz9sLi8vjCFKr6wgIQ+cI8iPjCBpT4wvR1+MLQI/rC&#xD;&#xa;Ihn8wlQg+sIcLvjCVCz2wsI49MJQ9fbC23H3woy69sL4BfnCIOb2wjwy9cIuGvnCdmb3wj7K9MI+&#xD;&#xa;KPXCJpr2wn7C9cKQDvnCthv7woaP+cLGaPbCTr32wrpN+cIFSPjCDvX4wtD39sJY//TCKGf3wvZI&#xD;&#xa;+cK9YvfCgYf3wjIf+sLMMvfCpjz2wuA6+cII8vbCxDv1wmJG9sLka/rCPrT1wi589cLqjfbC9qP4&#xD;&#xa;wgzJ+MLelPbCGir2wlBC9sKeU/jC/nn3wsYn9sL4QPjCXBj5wopQ+MIaJvnCSB36wgjc+MIMfPfC&#xD;&#xa;W+z1wmYG+MKuxPnCCuD1wjh+9sLDrPfCOPj3wm7h+MJjMvfCxH/2wsXf98KwN/nCKOn5wrLR+sKg&#xD;&#xa;bPvCkFv5wsAu+cL2hffCySz2wmRX+MKiiPjCzFX4wvjB98Jgz/fCxPT4wobP+cL8avjC9r34wnKx&#xD;&#xa;+MK+LPnC3H34wle39cKejfbCNKP2wg5B9sK0H/rCSvz2woqE98JAqfjCBPL4wmKi+MIu2/jCMFD5&#xD;&#xa;wiCM+cKo//nCGqz7wlZN+sKUDfjC0ov4wrIU+sIVpffCP2/3woye98KktPbCTJj2wpH29cL3mvbC&#xD;&#xa;jL/4wti/+MLm3vjCQ9QE" leadInLength="0/1"  />
            </Keyframes>
           </Parameter>
           </Parameters>
          </GenericEffect>
          <GenericEffect id="5311" name = "WinCompression" >
           <Parameters>
           <InterpolatingParam id="5312" interp="linr"  time="0/1" value="0" leadInLength="0/1"   name="attack"/>
           <InterpolatingParam id="5313" interp="linr"  time="0/1" value="9" leadInLength="0/1"   name="gain"/>
           <Parameter id="5314"   name="preset">
            <Keyframes>
            <Keyframe id="5315"  time="0/1" value="1" leadInLength="0/1"  />
            </Keyframes>
           </Parameter>
           <InterpolatingParam id="5316" interp="linr"  time="0/1" value="10" leadInLength="0/1"   name="ratio"/>
           <InterpolatingParam id="5317" interp="linr"  time="0/1" value="3500" leadInLength="0/1"   name="release"/>
           <InterpolatingParam id="5318" interp="linr"  time="0/1" value="-20" leadInLength="0/1"   name="threshold"/>
           </Parameters>
          </GenericEffect>
          <GenericEffect id="5319" name = "Declipper" >
           <Parameters>
           <InterpolatingParam id="5320" interp="linr"  time="0/1" value="-1" leadInLength="0/1"   name="sensitivity"/>
           </Parameters>
          </GenericEffect>
          <GenericEffect id="5321" name = "Declicker" >
           <Parameters>
           <InterpolatingParam id="5322" interp="linr"  time="0/1" value="3" leadInLength="0/1"   name="sensitivity"/>
           </Parameters>
          </GenericEffect>
         </Effects>
         <Attributes>
          <Attribute id="5323" value="" name="ident"/>
          <Attribute id="5324" value="0" name="mixToMono"/>
         </Attributes>
         <MetaData>
          <entry key="WinSubProjectDisplayName" val=""/>
         </MetaData>
         <ExtraData>
          <Entry key="ZoomPanBin">
           <ZoomPanBin id="5325"  >
            <ZoomPanKeyframes>
            </ZoomPanKeyframes>
           </ZoomPanBin>
          </Entry>
          <Entry key="CursorEffectBin">
           <CursorEffectBin id="5326"  >
            <CursorEffectKeyframes>
            </CursorEffectKeyframes>
           </CursorEffectBin>
          </Entry>
         </ExtraData>
         <GenericTrack id="5327"  >
          <Attributes>
           <Attribute id="5328" value="" name="ident"/>
           <Attribute id="5329" value="0" name="audioMuted"/>
           <Attribute id="5330" value="0" name="videoHidden"/>
          </Attributes>
          <MetaData>
           <entry key="IsLocked" val="False"/>
           <entry key="WinTrackHeight" val="0"/>
          </MetaData>
          <Medias>
           <AMFile id="5331" start="0" duration="4896" scalar="1/1" mediaStart="0/1" mediaDuration="4896/1" trackNumber="0" src="22" channelNumber="0" >
            <Parameters>
             <InterpolatingParam id="5332" interp="linr"  time="0/1" value="1" leadInLength="0/1"  name="volume"/>
             <Parameter id="5333"  name="captions"/>
            </Parameters>
            <Attributes>
             <Attribute id="5334" value="" name="ident"/>
             <Attribute id="5335" value="44100" name="sampleRate"/>
             <Attribute id="5336" value="16" name="bitDepth"/>
             <Attribute id="5337" value="1" name="gain"/>
             <Attribute id="5338" value="0" name="mixToMono"/>
            </Attributes>
            <MetaData>
             <entry key="WinSubProjectDisplayName" val=""/>
            </MetaData>
           </AMFile>
           <AMFile id="5339" start="4896" duration="411" scalar="1/1" mediaStart="4989/1" mediaDuration="411/1" trackNumber="0" src="22" channelNumber="0" >
            <Parameters>
             <InterpolatingParam id="5340" interp="linr"  time="0/1" value="1" leadInLength="0/1"  name="volume"/>
             <Parameter id="5341"  name="captions"/>
            </Parameters>
            <Attributes>
             <Attribute id="5342" value="" name="ident"/>
             <Attribute id="5343" value="44100" name="sampleRate"/>
             <Attribute id="5344" value="16" name="bitDepth"/>
             <Attribute id="5345" value="1" name="gain"/>
             <Attribute id="5346" value="0" name="mixToMono"/>
            </Attributes>
            <MetaData>
             <entry key="WinSubProjectDisplayName" val=""/>
            </MetaData>
           </AMFile>
           <AMFile id="5347" start="5307" duration="1270" scalar="1/1" mediaStart="5956/1" mediaDuration="1270/1" trackNumber="0" src="22" channelNumber="0" >
            <Parameters>
             <InterpolatingParam id="5348" interp="linr"  time="0/1" value="1" leadInLength="0/1"  name="volume"/>
             <Parameter id="5349"  name="captions"/>
            </Parameters>
            <Attributes>
             <Attribute id="5350" value="" name="ident"/>
             <Attribute id="5351" value="44100" name="sampleRate"/>
             <Attribute id="5352" value="16" name="bitDepth"/>
             <Attribute id="5353" value="1" name="gain"/>
             <Attribute id="5354" value="0" name="mixToMono"/>
            </Attributes>
            <MetaData>
             <entry key="WinSubProjectDisplayName" val=""/>
            </MetaData>
           </AMFile>
           <AMFile id="5355" start="6577" duration="7114" scalar="1/1" mediaStart="7454/1" mediaDuration="7114/1" trackNumber="0" src="22" channelNumber="0" >
            <Parameters>
             <InterpolatingParam id="5356" interp="linr"  time="0/1" value="1" leadInLength="0/1"  name="volume"/>
             <Parameter id="5357"  name="captions"/>
            </Parameters>
            <Attributes>
             <Attribute id="5358" value="" name="ident"/>
             <Attribute id="5359" value="44100" name="sampleRate"/>
             <Attribute id="5360" value="16" name="bitDepth"/>
             <Attribute id="5361" value="1" name="gain"/>
             <Attribute id="5362" value="0" name="mixToMono"/>
            </Attributes>
            <MetaData>
             <entry key="WinSubProjectDisplayName" val=""/>
            </MetaData>
           </AMFile>
          </Medias>
         </GenericTrack>
        </StitchedMedia>
        <StitchedMedia id="5363" start="1939" duration="134" scalar="1/1" mediaStart="3361/1" mediaDuration="134/1" minMediaStart="0/1" >
         <Transformer>
          <VectorParam id="5364"  name="translation">
           <InterpolatingParam id="5365" interp="linr"  time="0/1" value="0" leadInLength="0/1"  />
           <InterpolatingParam id="5366" interp="linr"  time="0/1" value="0" leadInLength="0/1"  />
           <InterpolatingParam id="5367" interp="linr"  time="0/1" value="0" leadInLength="0/1"  />
          </VectorParam>
          <VectorParam id="5368"  name="rotation">
           <InterpolatingParam id="5369" interp="linr"  time="0/1" value="0" leadInLength="0/1"  />
           <InterpolatingParam id="5370" interp="linr"  time="0/1" value="0" leadInLength="0/1"  />
           <InterpolatingParam id="5371" interp="linr"  time="0/1" value="0" leadInLength="0/1"  />
          </VectorParam>
          <VectorParam id="5372"  name="shear">
           <InterpolatingParam id="5373" interp="linr"  time="0/1" value="0" leadInLength="0/1"  />
           <InterpolatingParam id="5374" interp="linr"  time="0/1" value="0" leadInLength="0/1"  />
           <InterpolatingParam id="5375" interp="linr"  time="0/1" value="0" leadInLength="0/1"  />
          </VectorParam>
          <VectorParam id="5376"  name="scale">
           <InterpolatingParam id="5377" interp="linr"  time="0/1" value="1" leadInLength="0/1"  />
           <InterpolatingParam id="5378" interp="linr"  time="0/1" value="1" leadInLength="0/1"  />
           <InterpolatingParam id="5379" interp="linr"  time="0/1" value="1" leadInLength="0/1"  />
          </VectorParam>
          <VectorParam id="5380"  name="anchor">
           <InterpolatingParam id="5381" interp="linr"  time="0/1" value="0" leadInLength="0/1"  />
           <InterpolatingParam id="5382" interp="linr"  time="0/1" value="0" leadInLength="0/1"  />
           <InterpolatingParam id="5383" interp="linr"  time="0/1" value="0" leadInLength="0/1"  />
          </VectorParam>
         </Transformer>
         <Parameters>
          <InterpolatingParam id="5384" interp="linr"  time="0/1" value="1" leadInLength="0/1"  name="cursorOpacity"/>
          <InterpolatingParam id="5385" interp="linr"  time="0/1" value="1" leadInLength="0/1"  name="cursorScale"/>
          <InterpolatingParam id="5386" interp="linr"  name="volume">
           <Keyframes>
           <Keyframe id="5387"  time="0/1" value="1" leadInLength="0/1"  />
           <Keyframe id="5388"  time="3301/1" value="1" leadInLength="0/1"  />
           <Keyframe id="5389"  time="3302/1" value="0.99255583126550873" leadInLength="0/1"  />
           <Keyframe id="5390"  time="13691/1" value="0.99255583126550873" leadInLength="0/1"  />
           <Keyframe id="5391"  time="13692/1" value="1" leadInLength="0/1"  />
           </Keyframes>
          </InterpolatingParam>
          <Parameter id="5392"  name="captions"/>
         </Parameters>
         <Effects>
          <GenericEffect id="5393" name = "NoiseReduction" >
           <Parameters>
           <InterpolatingParam id="5394" interp="linr"  time="0/1" value="20" leadInLength="0/1"   name="denoiserAmount"/>
           <InterpolatingParam id="5395" interp="linr"  time="0/1" value="0" leadInLength="0/1"   name="denoiserThreshold"/>
           <Parameter id="5396"   name="noiseProfile">
            <Keyframes>
            <Keyframe id="5397"  time="0/1" value="FBAAAAIAAABErAAAAQIAADOmYsI/y13CPNeLwsehjcK+No/Cm+aOwlHvjcIja5HCun6XwoKemMJy&#xD;&#xa;lpPCuQeRwhgMlcJGdZvCTjScwgFMncIGh5zCGrOawuO0nMJdJZ3Cybudwo6toMIdraPCs/6jwpY0&#xD;&#xa;psLIUqjCWQmpwonmp8KcE6XCgXGlwqC+psIFHabCBoyownWvqcIkX6jCgnCpwms3qsIW0KfCM7Oj&#xD;&#xa;wnGLosJgcKnCdk6swiIgscKFrbDCtNmowrZmpcIHYqjCCg2pwqUNq8KgHq7ChEGxwhVFs8KU6LLC&#xD;&#xa;dvWzwpVHscI6NrDCMpGwwubcs8Imh7bCPKq6wj7tvMKSbr3ClsG+wq4qwMLXQr7CpAK5whxiuMJp&#xD;&#xa;v7nCwu29wloQvsIXTL3CzjDAwsDTwcL69sHC8urAwtAFwMIkSMLCpJHDwjLOw8JG8sTCmMvDwq7H&#xD;&#xa;wsLOncPC+CDDwkh6wsLU5sPCP23Fwm5Qx8KlYsTCm0XCwnhexcLsTsPCSMPDwjvJw8LMWcHC2XHD&#xD;&#xa;wjj5wsICs8TChWvEwgCywcKDdcHCFnHCwurMxMLlVsTCfrDGwmzqyMKoGsfC7ITIwtqRyMJwzcbC&#xD;&#xa;ppbEwiv5xcIXxsTCzDfCwtSExMKEjcTC8ObDwiJ9yMIQm8vCIkDGwqHyxcIyYcbCyAXIwmyBx8I4&#xD;&#xa;n8PCvyPGwuiKxMJggMfCdL3JwsMhysLi6sXCRa7Ewoykx8Jk/MXC0NfEwtK0xcJQTMTCvvvGwtqJ&#xD;&#xa;xMKmFsTCSbfGwq76x8IQ+sjCsqnIwkJdycIaT8fC0nbHwlf2xsLg/cbCtIHHwsTvxsI0KsbCsqDH&#xD;&#xa;wgLix8JGKcXCyNTDwjDwwsIb98bC6MjJwg6Zy8Kg+cvCaC3HwtIgw8KW7sXC3EHGwmcUxcL++8fC&#xD;&#xa;CWbIwsDoxsJFz8PCJkXFwiD7xcIQDsfC8ljIwrDLxMKkeMLClpHEwiqgyMJcjcjC6krGwl50w8Iy&#xD;&#xa;7sXCWv3HwkQ1xsKUwMPC2K/EwootxMJUqMTCH3LDwuojxcKil8fCjmXIwkLJxcID78TClTvGwhel&#xD;&#xa;xsIca8bC1rbCwk6+wsIQfsfCIlPHwpJExcLWhMbCDNvEwuryxMKklMXCeBDDwolhwcIiasLCQYfE&#xD;&#xa;whUfwsJx4MTCsEnIwkX0xcK+3sbCIqLHwrARx8IWtMTCGAnFwomNxMLfbcTCQIPDwjqww8L+MMTC&#xD;&#xa;mqjHwrBaxMI6YsTCxmvIwqyKycKQaMXCnx7FwkYvx8In6sjCGMzIwuvAxcL8a8XCiBjJwkvwyMKI&#xD;&#xa;qMbCTCTIwvQSy8IxEsvCVT/JwrI3w8LA8sLCCD7EwsxXxMJSjsXCfjXFwqTKxMI/gsPCDozDwtwF&#xD;&#xa;xMISn8bChHvJwlFQyMJYCsbCP4jIwtkBycLiFsrCbCrKwvyTysIWncnC+A3HwuI5x8I8/MbC0hHI&#xD;&#xa;wopJzMLmb83CFkvMwpy/y8Kn7MrCfJrJwuLDyMJKn8bCStTGwpb7ycIMo8nCcivFwsapxcJkx8bC&#xD;&#xa;ALLIwriaycJM3cfC8r/KwlSoy8I4A8vCpFHJwkRrzMIKr87CWD7MwsiJycKW9cfCUjbKwq+YycLi&#xD;&#xa;U8jCROHHwhdWycKaU8nCF7jMwmKaz8L//8zC8tjOwjxezsIUysvCzHLJwiJryMLRm8bCgLjKwsi8&#xD;&#xa;ysIhfszCPETLwqtbyMJGeMfCpRPJwnwZzMJSIs3CqhPMwmDiyMLZYsjCz13KwgwKy8LCi8jCyrTM&#xD;&#xa;wgwxzMK4ZcvC087JwkV2xsLyXsnCjIbLwhwvzcLfrM7CeITKwla3ysLK3cnC/PHFwpScxcIUQ8nC&#xD;&#xa;NJzIwrEsxsJvZcfCXSvIwlKLx8JII8nCvgzKwpnhysJSC8vC9iTKwiA/y8IadczCuDrMwuVaysLO&#xD;&#xa;r8vCXtfJwrZ6ycItucnCtonJwjyTysJkC83CL0nMwkjdyMIBucfCixrLwvSDysKGX8nCsCzMwuas&#xD;&#xa;0cIsnNPCuEvOwtr5y8LMBc7Cr+PTwsQc5MLcOfPCKOj0wjr59cJ0C/fCzg75wkwh+8LmVPnCqz72&#xD;&#xa;wnB+9cLuJvrCtEL4wkp7+MLOfffCDN3zwkaz9sLi8vjCFKr6wgIQ+cI8iPjCBpT4wvR1+MLQI/rC&#xD;&#xa;Ihn8wlQg+sIcLvjCVCz2wsI49MJQ9fbC23H3woy69sL4BfnCIOb2wjwy9cIuGvnCdmb3wj7K9MI+&#xD;&#xa;KPXCJpr2wn7C9cKQDvnCthv7woaP+cLGaPbCTr32wrpN+cIFSPjCDvX4wtD39sJY//TCKGf3wvZI&#xD;&#xa;+cK9YvfCgYf3wjIf+sLMMvfCpjz2wuA6+cII8vbCxDv1wmJG9sLka/rCPrT1wi589cLqjfbC9qP4&#xD;&#xa;wgzJ+MLelPbCGir2wlBC9sKeU/jC/nn3wsYn9sL4QPjCXBj5wopQ+MIaJvnCSB36wgjc+MIMfPfC&#xD;&#xa;W+z1wmYG+MKuxPnCCuD1wjh+9sLDrPfCOPj3wm7h+MJjMvfCxH/2wsXf98KwN/nCKOn5wrLR+sKg&#xD;&#xa;bPvCkFv5wsAu+cL2hffCySz2wmRX+MKiiPjCzFX4wvjB98Jgz/fCxPT4wobP+cL8avjC9r34wnKx&#xD;&#xa;+MK+LPnC3H34wle39cKejfbCNKP2wg5B9sK0H/rCSvz2woqE98JAqfjCBPL4wmKi+MIu2/jCMFD5&#xD;&#xa;wiCM+cKo//nCGqz7wlZN+sKUDfjC0ov4wrIU+sIVpffCP2/3woye98KktPbCTJj2wpH29cL3mvbC&#xD;&#xa;jL/4wti/+MLm3vjCQ9QEwzOmYsI/y13CPNeLwsehjcK+No/Cm+aOwlHvjcIja5HCun6XwoKemMJy&#xD;&#xa;lpPCuQeRwhgMlcJGdZvCTjScwgFMncIGh5zCGrOawuO0nMJdJZ3Cybudwo6toMIdraPCs/6jwpY0&#xD;&#xa;psLIUqjCWQmpwonmp8KcE6XCgXGlwqC+psIFHabCBoyownWvqcIkX6jCgnCpwms3qsIW0KfCM7Oj&#xD;&#xa;wnGLosJgcKnCdk6swiIgscKFrbDCtNmowrZmpcIHYqjCCg2pwqUNq8KgHq7ChEGxwhVFs8KU6LLC&#xD;&#xa;dvWzwpVHscI6NrDCMpGwwubcs8Imh7bCPKq6wj7tvMKSbr3ClsG+wq4qwMLXQr7CpAK5whxiuMJp&#xD;&#xa;v7nCwu29wloQvsIXTL3CzjDAwsDTwcL69sHC8urAwtAFwMIkSMLCpJHDwjLOw8JG8sTCmMvDwq7H&#xD;&#xa;wsLOncPC+CDDwkh6wsLU5sPCP23Fwm5Qx8KlYsTCm0XCwnhexcLsTsPCSMPDwjvJw8LMWcHC2XHD&#xD;&#xa;wjj5wsICs8TChWvEwgCywcKDdcHCFnHCwurMxMLlVsTCfrDGwmzqyMKoGsfC7ITIwtqRyMJwzcbC&#xD;&#xa;ppbEwiv5xcIXxsTCzDfCwtSExMKEjcTC8ObDwiJ9yMIQm8vCIkDGwqHyxcIyYcbCyAXIwmyBx8I4&#xD;&#xa;n8PCvyPGwuiKxMJggMfCdL3JwsMhysLi6sXCRa7Ewoykx8Jk/MXC0NfEwtK0xcJQTMTCvvvGwtqJ&#xD;&#xa;xMKmFsTCSbfGwq76x8IQ+sjCsqnIwkJdycIaT8fC0nbHwlf2xsLg/cbCtIHHwsTvxsI0KsbCsqDH&#xD;&#xa;wgLix8JGKcXCyNTDwjDwwsIb98bC6MjJwg6Zy8Kg+cvCaC3HwtIgw8KW7sXC3EHGwmcUxcL++8fC&#xD;&#xa;CWbIwsDoxsJFz8PCJkXFwiD7xcIQDsfC8ljIwrDLxMKkeMLClpHEwiqgyMJcjcjC6krGwl50w8Iy&#xD;&#xa;7sXCWv3HwkQ1xsKUwMPC2K/EwootxMJUqMTCH3LDwuojxcKil8fCjmXIwkLJxcID78TClTvGwhel&#xD;&#xa;xsIca8bC1rbCwk6+wsIQfsfCIlPHwpJExcLWhMbCDNvEwuryxMKklMXCeBDDwolhwcIiasLCQYfE&#xD;&#xa;whUfwsJx4MTCsEnIwkX0xcK+3sbCIqLHwrARx8IWtMTCGAnFwomNxMLfbcTCQIPDwjqww8L+MMTC&#xD;&#xa;mqjHwrBaxMI6YsTCxmvIwqyKycKQaMXCnx7FwkYvx8In6sjCGMzIwuvAxcL8a8XCiBjJwkvwyMKI&#xD;&#xa;qMbCTCTIwvQSy8IxEsvCVT/JwrI3w8LA8sLCCD7EwsxXxMJSjsXCfjXFwqTKxMI/gsPCDozDwtwF&#xD;&#xa;xMISn8bChHvJwlFQyMJYCsbCP4jIwtkBycLiFsrCbCrKwvyTysIWncnC+A3HwuI5x8I8/MbC0hHI&#xD;&#xa;wopJzMLmb83CFkvMwpy/y8Kn7MrCfJrJwuLDyMJKn8bCStTGwpb7ycIMo8nCcivFwsapxcJkx8bC&#xD;&#xa;ALLIwriaycJM3cfC8r/KwlSoy8I4A8vCpFHJwkRrzMIKr87CWD7MwsiJycKW9cfCUjbKwq+YycLi&#xD;&#xa;U8jCROHHwhdWycKaU8nCF7jMwmKaz8L//8zC8tjOwjxezsIUysvCzHLJwiJryMLRm8bCgLjKwsi8&#xD;&#xa;ysIhfszCPETLwqtbyMJGeMfCpRPJwnwZzMJSIs3CqhPMwmDiyMLZYsjCz13KwgwKy8LCi8jCyrTM&#xD;&#xa;wgwxzMK4ZcvC087JwkV2xsLyXsnCjIbLwhwvzcLfrM7CeITKwla3ysLK3cnC/PHFwpScxcIUQ8nC&#xD;&#xa;NJzIwrEsxsJvZcfCXSvIwlKLx8JII8nCvgzKwpnhysJSC8vC9iTKwiA/y8IadczCuDrMwuVaysLO&#xD;&#xa;r8vCXtfJwrZ6ycItucnCtonJwjyTysJkC83CL0nMwkjdyMIBucfCixrLwvSDysKGX8nCsCzMwuas&#xD;&#xa;0cIsnNPCuEvOwtr5y8LMBc7Cr+PTwsQc5MLcOfPCKOj0wjr59cJ0C/fCzg75wkwh+8LmVPnCqz72&#xD;&#xa;wnB+9cLuJvrCtEL4wkp7+MLOfffCDN3zwkaz9sLi8vjCFKr6wgIQ+cI8iPjCBpT4wvR1+MLQI/rC&#xD;&#xa;Ihn8wlQg+sIcLvjCVCz2wsI49MJQ9fbC23H3woy69sL4BfnCIOb2wjwy9cIuGvnCdmb3wj7K9MI+&#xD;&#xa;KPXCJpr2wn7C9cKQDvnCthv7woaP+cLGaPbCTr32wrpN+cIFSPjCDvX4wtD39sJY//TCKGf3wvZI&#xD;&#xa;+cK9YvfCgYf3wjIf+sLMMvfCpjz2wuA6+cII8vbCxDv1wmJG9sLka/rCPrT1wi589cLqjfbC9qP4&#xD;&#xa;wgzJ+MLelPbCGir2wlBC9sKeU/jC/nn3wsYn9sL4QPjCXBj5wopQ+MIaJvnCSB36wgjc+MIMfPfC&#xD;&#xa;W+z1wmYG+MKuxPnCCuD1wjh+9sLDrPfCOPj3wm7h+MJjMvfCxH/2wsXf98KwN/nCKOn5wrLR+sKg&#xD;&#xa;bPvCkFv5wsAu+cL2hffCySz2wmRX+MKiiPjCzFX4wvjB98Jgz/fCxPT4wobP+cL8avjC9r34wnKx&#xD;&#xa;+MK+LPnC3H34wle39cKejfbCNKP2wg5B9sK0H/rCSvz2woqE98JAqfjCBPL4wmKi+MIu2/jCMFD5&#xD;&#xa;wiCM+cKo//nCGqz7wlZN+sKUDfjC0ov4wrIU+sIVpffCP2/3woye98KktPbCTJj2wpH29cL3mvbC&#xD;&#xa;jL/4wti/+MLm3vjCQ9QE" leadInLength="0/1"  />
            </Keyframes>
           </Parameter>
           </Parameters>
          </GenericEffect>
          <GenericEffect id="5398" name = "WinCompression" >
           <Parameters>
           <InterpolatingParam id="5399" interp="linr"  time="0/1" value="0" leadInLength="0/1"   name="attack"/>
           <InterpolatingParam id="5400" interp="linr"  time="0/1" value="9" leadInLength="0/1"   name="gain"/>
           <Parameter id="5401"   name="preset">
            <Keyframes>
            <Keyframe id="5402"  time="0/1" value="1" leadInLength="0/1"  />
            </Keyframes>
           </Parameter>
           <InterpolatingParam id="5403" interp="linr"  time="0/1" value="10" leadInLength="0/1"   name="ratio"/>
           <InterpolatingParam id="5404" interp="linr"  time="0/1" value="3500" leadInLength="0/1"   name="release"/>
           <InterpolatingParam id="5405" interp="linr"  time="0/1" value="-20" leadInLength="0/1"   name="threshold"/>
           </Parameters>
          </GenericEffect>
          <GenericEffect id="5406" name = "Declipper" >
           <Parameters>
           <InterpolatingParam id="5407" interp="linr"  time="0/1" value="-1" leadInLength="0/1"   name="sensitivity"/>
           </Parameters>
          </GenericEffect>
          <GenericEffect id="5408" name = "Declicker" >
           <Parameters>
           <InterpolatingParam id="5409" interp="linr"  time="0/1" value="3" leadInLength="0/1"   name="sensitivity"/>
           </Parameters>
          </GenericEffect>
         </Effects>
         <Attributes>
          <Attribute id="5410" value="" name="ident"/>
          <Attribute id="5411" value="0" name="mixToMono"/>
         </Attributes>
         <MetaData>
          <entry key="WinSubProjectDisplayName" val=""/>
         </MetaData>
         <ExtraData>
          <Entry key="ZoomPanBin">
           <ZoomPanBin id="5412"  >
            <ZoomPanKeyframes>
            </ZoomPanKeyframes>
           </ZoomPanBin>
          </Entry>
          <Entry key="CursorEffectBin">
           <CursorEffectBin id="5413"  >
            <CursorEffectKeyframes>
            </CursorEffectKeyframes>
           </CursorEffectBin>
          </Entry>
         </ExtraData>
         <GenericTrack id="5414"  >
          <Attributes>
           <Attribute id="5415" value="" name="ident"/>
           <Attribute id="5416" value="0" name="audioMuted"/>
           <Attribute id="5417" value="0" name="videoHidden"/>
          </Attributes>
          <MetaData>
           <entry key="IsLocked" val="False"/>
           <entry key="WinTrackHeight" val="0"/>
          </MetaData>
          <Medias>
           <AMFile id="5418" start="0" duration="4896" scalar="1/1" mediaStart="0/1" mediaDuration="4896/1" trackNumber="0" src="22" channelNumber="0" >
            <Parameters>
             <InterpolatingParam id="5419" interp="linr"  time="0/1" value="1" leadInLength="0/1"  name="volume"/>
             <Parameter id="5420"  name="captions"/>
            </Parameters>
            <Attributes>
             <Attribute id="5421" value="" name="ident"/>
             <Attribute id="5422" value="44100" name="sampleRate"/>
             <Attribute id="5423" value="16" name="bitDepth"/>
             <Attribute id="5424" value="1" name="gain"/>
             <Attribute id="5425" value="0" name="mixToMono"/>
            </Attributes>
            <MetaData>
             <entry key="WinSubProjectDisplayName" val=""/>
            </MetaData>
           </AMFile>
           <AMFile id="5426" start="4896" duration="411" scalar="1/1" mediaStart="4989/1" mediaDuration="411/1" trackNumber="0" src="22" channelNumber="0" >
            <Parameters>
             <InterpolatingParam id="5427" interp="linr"  time="0/1" value="1" leadInLength="0/1"  name="volume"/>
             <Parameter id="5428"  name="captions"/>
            </Parameters>
            <Attributes>
             <Attribute id="5429" value="" name="ident"/>
             <Attribute id="5430" value="44100" name="sampleRate"/>
             <Attribute id="5431" value="16" name="bitDepth"/>
             <Attribute id="5432" value="1" name="gain"/>
             <Attribute id="5433" value="0" name="mixToMono"/>
            </Attributes>
            <MetaData>
             <entry key="WinSubProjectDisplayName" val=""/>
            </MetaData>
           </AMFile>
           <AMFile id="5434" start="5307" duration="1270" scalar="1/1" mediaStart="5956/1" mediaDuration="1270/1" trackNumber="0" src="22" channelNumber="0" >
            <Parameters>
             <InterpolatingParam id="5435" interp="linr"  time="0/1" value="1" leadInLength="0/1"  name="volume"/>
             <Parameter id="5436"  name="captions"/>
            </Parameters>
            <Attributes>
             <Attribute id="5437" value="" name="ident"/>
             <Attribute id="5438" value="44100" name="sampleRate"/>
             <Attribute id="5439" value="16" name="bitDepth"/>
             <Attribute id="5440" value="1" name="gain"/>
             <Attribute id="5441" value="0" name="mixToMono"/>
            </Attributes>
            <MetaData>
             <entry key="WinSubProjectDisplayName" val=""/>
            </MetaData>
           </AMFile>
           <AMFile id="5442" start="6577" duration="7114" scalar="1/1" mediaStart="7454/1" mediaDuration="7114/1" trackNumber="0" src="22" channelNumber="0" >
            <Parameters>
             <InterpolatingParam id="5443" interp="linr"  time="0/1" value="1" leadInLength="0/1"  name="volume"/>
             <Parameter id="5444"  name="captions"/>
            </Parameters>
            <Attributes>
             <Attribute id="5445" value="" name="ident"/>
             <Attribute id="5446" value="44100" name="sampleRate"/>
             <Attribute id="5447" value="16" name="bitDepth"/>
             <Attribute id="5448" value="1" name="gain"/>
             <Attribute id="5449" value="0" name="mixToMono"/>
            </Attributes>
            <MetaData>
             <entry key="WinSubProjectDisplayName" val=""/>
            </MetaData>
           </AMFile>
          </Medias>
         </GenericTrack>
        </StitchedMedia>
        <StitchedMedia id="5450" start="2084" duration="2636" scalar="1/1" mediaStart="3506/1" mediaDuration="2636/1" minMediaStart="0/1" >
         <Transformer>
          <VectorParam id="5451"  name="translation">
           <InterpolatingParam id="5452" interp="linr"  time="0/1" value="0" leadInLength="0/1"  />
           <InterpolatingParam id="5453" interp="linr"  time="0/1" value="0" leadInLength="0/1"  />
           <InterpolatingParam id="5454" interp="linr"  time="0/1" value="0" leadInLength="0/1"  />
          </VectorParam>
          <VectorParam id="5455"  name="rotation">
           <InterpolatingParam id="5456" interp="linr"  time="0/1" value="0" leadInLength="0/1"  />
           <InterpolatingParam id="5457" interp="linr"  time="0/1" value="0" leadInLength="0/1"  />
           <InterpolatingParam id="5458" interp="linr"  time="0/1" value="0" leadInLength="0/1"  />
          </VectorParam>
          <VectorParam id="5459"  name="shear">
           <InterpolatingParam id="5460" interp="linr"  time="0/1" value="0" leadInLength="0/1"  />
           <InterpolatingParam id="5461" interp="linr"  time="0/1" value="0" leadInLength="0/1"  />
           <InterpolatingParam id="5462" interp="linr"  time="0/1" value="0" leadInLength="0/1"  />
          </VectorParam>
          <VectorParam id="5463"  name="scale">
           <InterpolatingParam id="5464" interp="linr"  time="0/1" value="1" leadInLength="0/1"  />
           <InterpolatingParam id="5465" interp="linr"  time="0/1" value="1" leadInLength="0/1"  />
           <InterpolatingParam id="5466" interp="linr"  time="0/1" value="1" leadInLength="0/1"  />
          </VectorParam>
          <VectorParam id="5467"  name="anchor">
           <InterpolatingParam id="5468" interp="linr"  time="0/1" value="0" leadInLength="0/1"  />
           <InterpolatingParam id="5469" interp="linr"  time="0/1" value="0" leadInLength="0/1"  />
           <InterpolatingParam id="5470" interp="linr"  time="0/1" value="0" leadInLength="0/1"  />
          </VectorParam>
         </Transformer>
         <Parameters>
          <InterpolatingParam id="5471" interp="linr"  time="0/1" value="1" leadInLength="0/1"  name="cursorOpacity"/>
          <InterpolatingParam id="5472" interp="linr"  time="0/1" value="1" leadInLength="0/1"  name="cursorScale"/>
          <InterpolatingParam id="5473" interp="linr"  name="volume">
           <Keyframes>
           <Keyframe id="5474"  time="0/1" value="1" leadInLength="0/1"  />
           <Keyframe id="5475"  time="3301/1" value="1" leadInLength="0/1"  />
           <Keyframe id="5476"  time="3302/1" value="1.1290322580645162" leadInLength="0/1"  />
           <Keyframe id="5477"  time="13691/1" value="1.1290322580645162" leadInLength="0/1"  />
           <Keyframe id="5478"  time="13692/1" value="1" leadInLength="0/1"  />
           </Keyframes>
          </InterpolatingParam>
          <Parameter id="5479"  name="captions"/>
         </Parameters>
         <Effects>
          <GenericEffect id="5480" name = "NoiseReduction" >
           <Parameters>
           <InterpolatingParam id="5481" interp="linr"  time="0/1" value="20" leadInLength="0/1"   name="denoiserAmount"/>
           <InterpolatingParam id="5482" interp="linr"  time="0/1" value="0" leadInLength="0/1"   name="denoiserThreshold"/>
           <Parameter id="5483"   name="noiseProfile">
            <Keyframes>
            <Keyframe id="5484"  time="0/1" value="FBAAAAIAAABErAAAAQIAADOmYsI/y13CPNeLwsehjcK+No/Cm+aOwlHvjcIja5HCun6XwoKemMJy&#xD;&#xa;lpPCuQeRwhgMlcJGdZvCTjScwgFMncIGh5zCGrOawuO0nMJdJZ3Cybudwo6toMIdraPCs/6jwpY0&#xD;&#xa;psLIUqjCWQmpwonmp8KcE6XCgXGlwqC+psIFHabCBoyownWvqcIkX6jCgnCpwms3qsIW0KfCM7Oj&#xD;&#xa;wnGLosJgcKnCdk6swiIgscKFrbDCtNmowrZmpcIHYqjCCg2pwqUNq8KgHq7ChEGxwhVFs8KU6LLC&#xD;&#xa;dvWzwpVHscI6NrDCMpGwwubcs8Imh7bCPKq6wj7tvMKSbr3ClsG+wq4qwMLXQr7CpAK5whxiuMJp&#xD;&#xa;v7nCwu29wloQvsIXTL3CzjDAwsDTwcL69sHC8urAwtAFwMIkSMLCpJHDwjLOw8JG8sTCmMvDwq7H&#xD;&#xa;wsLOncPC+CDDwkh6wsLU5sPCP23Fwm5Qx8KlYsTCm0XCwnhexcLsTsPCSMPDwjvJw8LMWcHC2XHD&#xD;&#xa;wjj5wsICs8TChWvEwgCywcKDdcHCFnHCwurMxMLlVsTCfrDGwmzqyMKoGsfC7ITIwtqRyMJwzcbC&#xD;&#xa;ppbEwiv5xcIXxsTCzDfCwtSExMKEjcTC8ObDwiJ9yMIQm8vCIkDGwqHyxcIyYcbCyAXIwmyBx8I4&#xD;&#xa;n8PCvyPGwuiKxMJggMfCdL3JwsMhysLi6sXCRa7Ewoykx8Jk/MXC0NfEwtK0xcJQTMTCvvvGwtqJ&#xD;&#xa;xMKmFsTCSbfGwq76x8IQ+sjCsqnIwkJdycIaT8fC0nbHwlf2xsLg/cbCtIHHwsTvxsI0KsbCsqDH&#xD;&#xa;wgLix8JGKcXCyNTDwjDwwsIb98bC6MjJwg6Zy8Kg+cvCaC3HwtIgw8KW7sXC3EHGwmcUxcL++8fC&#xD;&#xa;CWbIwsDoxsJFz8PCJkXFwiD7xcIQDsfC8ljIwrDLxMKkeMLClpHEwiqgyMJcjcjC6krGwl50w8Iy&#xD;&#xa;7sXCWv3HwkQ1xsKUwMPC2K/EwootxMJUqMTCH3LDwuojxcKil8fCjmXIwkLJxcID78TClTvGwhel&#xD;&#xa;xsIca8bC1rbCwk6+wsIQfsfCIlPHwpJExcLWhMbCDNvEwuryxMKklMXCeBDDwolhwcIiasLCQYfE&#xD;&#xa;whUfwsJx4MTCsEnIwkX0xcK+3sbCIqLHwrARx8IWtMTCGAnFwomNxMLfbcTCQIPDwjqww8L+MMTC&#xD;&#xa;mqjHwrBaxMI6YsTCxmvIwqyKycKQaMXCnx7FwkYvx8In6sjCGMzIwuvAxcL8a8XCiBjJwkvwyMKI&#xD;&#xa;qMbCTCTIwvQSy8IxEsvCVT/JwrI3w8LA8sLCCD7EwsxXxMJSjsXCfjXFwqTKxMI/gsPCDozDwtwF&#xD;&#xa;xMISn8bChHvJwlFQyMJYCsbCP4jIwtkBycLiFsrCbCrKwvyTysIWncnC+A3HwuI5x8I8/MbC0hHI&#xD;&#xa;wopJzMLmb83CFkvMwpy/y8Kn7MrCfJrJwuLDyMJKn8bCStTGwpb7ycIMo8nCcivFwsapxcJkx8bC&#xD;&#xa;ALLIwriaycJM3cfC8r/KwlSoy8I4A8vCpFHJwkRrzMIKr87CWD7MwsiJycKW9cfCUjbKwq+YycLi&#xD;&#xa;U8jCROHHwhdWycKaU8nCF7jMwmKaz8L//8zC8tjOwjxezsIUysvCzHLJwiJryMLRm8bCgLjKwsi8&#xD;&#xa;ysIhfszCPETLwqtbyMJGeMfCpRPJwnwZzMJSIs3CqhPMwmDiyMLZYsjCz13KwgwKy8LCi8jCyrTM&#xD;&#xa;wgwxzMK4ZcvC087JwkV2xsLyXsnCjIbLwhwvzcLfrM7CeITKwla3ysLK3cnC/PHFwpScxcIUQ8nC&#xD;&#xa;NJzIwrEsxsJvZcfCXSvIwlKLx8JII8nCvgzKwpnhysJSC8vC9iTKwiA/y8IadczCuDrMwuVaysLO&#xD;&#xa;r8vCXtfJwrZ6ycItucnCtonJwjyTysJkC83CL0nMwkjdyMIBucfCixrLwvSDysKGX8nCsCzMwuas&#xD;&#xa;0cIsnNPCuEvOwtr5y8LMBc7Cr+PTwsQc5MLcOfPCKOj0wjr59cJ0C/fCzg75wkwh+8LmVPnCqz72&#xD;&#xa;wnB+9cLuJvrCtEL4wkp7+MLOfffCDN3zwkaz9sLi8vjCFKr6wgIQ+cI8iPjCBpT4wvR1+MLQI/rC&#xD;&#xa;Ihn8wlQg+sIcLvjCVCz2wsI49MJQ9fbC23H3woy69sL4BfnCIOb2wjwy9cIuGvnCdmb3wj7K9MI+&#xD;&#xa;KPXCJpr2wn7C9cKQDvnCthv7woaP+cLGaPbCTr32wrpN+cIFSPjCDvX4wtD39sJY//TCKGf3wvZI&#xD;&#xa;+cK9YvfCgYf3wjIf+sLMMvfCpjz2wuA6+cII8vbCxDv1wmJG9sLka/rCPrT1wi589cLqjfbC9qP4&#xD;&#xa;wgzJ+MLelPbCGir2wlBC9sKeU/jC/nn3wsYn9sL4QPjCXBj5wopQ+MIaJvnCSB36wgjc+MIMfPfC&#xD;&#xa;W+z1wmYG+MKuxPnCCuD1wjh+9sLDrPfCOPj3wm7h+MJjMvfCxH/2wsXf98KwN/nCKOn5wrLR+sKg&#xD;&#xa;bPvCkFv5wsAu+cL2hffCySz2wmRX+MKiiPjCzFX4wvjB98Jgz/fCxPT4wobP+cL8avjC9r34wnKx&#xD;&#xa;+MK+LPnC3H34wle39cKejfbCNKP2wg5B9sK0H/rCSvz2woqE98JAqfjCBPL4wmKi+MIu2/jCMFD5&#xD;&#xa;wiCM+cKo//nCGqz7wlZN+sKUDfjC0ov4wrIU+sIVpffCP2/3woye98KktPbCTJj2wpH29cL3mvbC&#xD;&#xa;jL/4wti/+MLm3vjCQ9QEwzOmYsI/y13CPNeLwsehjcK+No/Cm+aOwlHvjcIja5HCun6XwoKemMJy&#xD;&#xa;lpPCuQeRwhgMlcJGdZvCTjScwgFMncIGh5zCGrOawuO0nMJdJZ3Cybudwo6toMIdraPCs/6jwpY0&#xD;&#xa;psLIUqjCWQmpwonmp8KcE6XCgXGlwqC+psIFHabCBoyownWvqcIkX6jCgnCpwms3qsIW0KfCM7Oj&#xD;&#xa;wnGLosJgcKnCdk6swiIgscKFrbDCtNmowrZmpcIHYqjCCg2pwqUNq8KgHq7ChEGxwhVFs8KU6LLC&#xD;&#xa;dvWzwpVHscI6NrDCMpGwwubcs8Imh7bCPKq6wj7tvMKSbr3ClsG+wq4qwMLXQr7CpAK5whxiuMJp&#xD;&#xa;v7nCwu29wloQvsIXTL3CzjDAwsDTwcL69sHC8urAwtAFwMIkSMLCpJHDwjLOw8JG8sTCmMvDwq7H&#xD;&#xa;wsLOncPC+CDDwkh6wsLU5sPCP23Fwm5Qx8KlYsTCm0XCwnhexcLsTsPCSMPDwjvJw8LMWcHC2XHD&#xD;&#xa;wjj5wsICs8TChWvEwgCywcKDdcHCFnHCwurMxMLlVsTCfrDGwmzqyMKoGsfC7ITIwtqRyMJwzcbC&#xD;&#xa;ppbEwiv5xcIXxsTCzDfCwtSExMKEjcTC8ObDwiJ9yMIQm8vCIkDGwqHyxcIyYcbCyAXIwmyBx8I4&#xD;&#xa;n8PCvyPGwuiKxMJggMfCdL3JwsMhysLi6sXCRa7Ewoykx8Jk/MXC0NfEwtK0xcJQTMTCvvvGwtqJ&#xD;&#xa;xMKmFsTCSbfGwq76x8IQ+sjCsqnIwkJdycIaT8fC0nbHwlf2xsLg/cbCtIHHwsTvxsI0KsbCsqDH&#xD;&#xa;wgLix8JGKcXCyNTDwjDwwsIb98bC6MjJwg6Zy8Kg+cvCaC3HwtIgw8KW7sXC3EHGwmcUxcL++8fC&#xD;&#xa;CWbIwsDoxsJFz8PCJkXFwiD7xcIQDsfC8ljIwrDLxMKkeMLClpHEwiqgyMJcjcjC6krGwl50w8Iy&#xD;&#xa;7sXCWv3HwkQ1xsKUwMPC2K/EwootxMJUqMTCH3LDwuojxcKil8fCjmXIwkLJxcID78TClTvGwhel&#xD;&#xa;xsIca8bC1rbCwk6+wsIQfsfCIlPHwpJExcLWhMbCDNvEwuryxMKklMXCeBDDwolhwcIiasLCQYfE&#xD;&#xa;whUfwsJx4MTCsEnIwkX0xcK+3sbCIqLHwrARx8IWtMTCGAnFwomNxMLfbcTCQIPDwjqww8L+MMTC&#xD;&#xa;mqjHwrBaxMI6YsTCxmvIwqyKycKQaMXCnx7FwkYvx8In6sjCGMzIwuvAxcL8a8XCiBjJwkvwyMKI&#xD;&#xa;qMbCTCTIwvQSy8IxEsvCVT/JwrI3w8LA8sLCCD7EwsxXxMJSjsXCfjXFwqTKxMI/gsPCDozDwtwF&#xD;&#xa;xMISn8bChHvJwlFQyMJYCsbCP4jIwtkBycLiFsrCbCrKwvyTysIWncnC+A3HwuI5x8I8/MbC0hHI&#xD;&#xa;wopJzMLmb83CFkvMwpy/y8Kn7MrCfJrJwuLDyMJKn8bCStTGwpb7ycIMo8nCcivFwsapxcJkx8bC&#xD;&#xa;ALLIwriaycJM3cfC8r/KwlSoy8I4A8vCpFHJwkRrzMIKr87CWD7MwsiJycKW9cfCUjbKwq+YycLi&#xD;&#xa;U8jCROHHwhdWycKaU8nCF7jMwmKaz8L//8zC8tjOwjxezsIUysvCzHLJwiJryMLRm8bCgLjKwsi8&#xD;&#xa;ysIhfszCPETLwqtbyMJGeMfCpRPJwnwZzMJSIs3CqhPMwmDiyMLZYsjCz13KwgwKy8LCi8jCyrTM&#xD;&#xa;wgwxzMK4ZcvC087JwkV2xsLyXsnCjIbLwhwvzcLfrM7CeITKwla3ysLK3cnC/PHFwpScxcIUQ8nC&#xD;&#xa;NJzIwrEsxsJvZcfCXSvIwlKLx8JII8nCvgzKwpnhysJSC8vC9iTKwiA/y8IadczCuDrMwuVaysLO&#xD;&#xa;r8vCXtfJwrZ6ycItucnCtonJwjyTysJkC83CL0nMwkjdyMIBucfCixrLwvSDysKGX8nCsCzMwuas&#xD;&#xa;0cIsnNPCuEvOwtr5y8LMBc7Cr+PTwsQc5MLcOfPCKOj0wjr59cJ0C/fCzg75wkwh+8LmVPnCqz72&#xD;&#xa;wnB+9cLuJvrCtEL4wkp7+MLOfffCDN3zwkaz9sLi8vjCFKr6wgIQ+cI8iPjCBpT4wvR1+MLQI/rC&#xD;&#xa;Ihn8wlQg+sIcLvjCVCz2wsI49MJQ9fbC23H3woy69sL4BfnCIOb2wjwy9cIuGvnCdmb3wj7K9MI+&#xD;&#xa;KPXCJpr2wn7C9cKQDvnCthv7woaP+cLGaPbCTr32wrpN+cIFSPjCDvX4wtD39sJY//TCKGf3wvZI&#xD;&#xa;+cK9YvfCgYf3wjIf+sLMMvfCpjz2wuA6+cII8vbCxDv1wmJG9sLka/rCPrT1wi589cLqjfbC9qP4&#xD;&#xa;wgzJ+MLelPbCGir2wlBC9sKeU/jC/nn3wsYn9sL4QPjCXBj5wopQ+MIaJvnCSB36wgjc+MIMfPfC&#xD;&#xa;W+z1wmYG+MKuxPnCCuD1wjh+9sLDrPfCOPj3wm7h+MJjMvfCxH/2wsXf98KwN/nCKOn5wrLR+sKg&#xD;&#xa;bPvCkFv5wsAu+cL2hffCySz2wmRX+MKiiPjCzFX4wvjB98Jgz/fCxPT4wobP+cL8avjC9r34wnKx&#xD;&#xa;+MK+LPnC3H34wle39cKejfbCNKP2wg5B9sK0H/rCSvz2woqE98JAqfjCBPL4wmKi+MIu2/jCMFD5&#xD;&#xa;wiCM+cKo//nCGqz7wlZN+sKUDfjC0ov4wrIU+sIVpffCP2/3woye98KktPbCTJj2wpH29cL3mvbC&#xD;&#xa;jL/4wti/+MLm3vjCQ9QE" leadInLength="0/1"  />
            </Keyframes>
           </Parameter>
           </Parameters>
          </GenericEffect>
          <GenericEffect id="5485" name = "WinCompression" >
           <Parameters>
           <InterpolatingParam id="5486" interp="linr"  time="0/1" value="0" leadInLength="0/1"   name="attack"/>
           <InterpolatingParam id="5487" interp="linr"  time="0/1" value="9" leadInLength="0/1"   name="gain"/>
           <Parameter id="5488"   name="preset">
            <Keyframes>
            <Keyframe id="5489"  time="0/1" value="1" leadInLength="0/1"  />
            </Keyframes>
           </Parameter>
           <InterpolatingParam id="5490" interp="linr"  time="0/1" value="10" leadInLength="0/1"   name="ratio"/>
           <InterpolatingParam id="5491" interp="linr"  time="0/1" value="3500" leadInLength="0/1"   name="release"/>
           <InterpolatingParam id="5492" interp="linr"  time="0/1" value="-20" leadInLength="0/1"   name="threshold"/>
           </Parameters>
          </GenericEffect>
          <GenericEffect id="5493" name = "Declipper" >
           <Parameters>
           <InterpolatingParam id="5494" interp="linr"  time="0/1" value="-1" leadInLength="0/1"   name="sensitivity"/>
           </Parameters>
          </GenericEffect>
          <GenericEffect id="5495" name = "Declicker" >
           <Parameters>
           <InterpolatingParam id="5496" interp="linr"  time="0/1" value="3" leadInLength="0/1"   name="sensitivity"/>
           </Parameters>
          </GenericEffect>
         </Effects>
         <Attributes>
          <Attribute id="5497" value="" name="ident"/>
          <Attribute id="5498" value="0" name="mixToMono"/>
         </Attributes>
         <MetaData>
          <entry key="WinSubProjectDisplayName" val=""/>
         </MetaData>
         <ExtraData>
          <Entry key="ZoomPanBin">
           <ZoomPanBin id="5499"  >
            <ZoomPanKeyframes>
            </ZoomPanKeyframes>
           </ZoomPanBin>
          </Entry>
          <Entry key="CursorEffectBin">
           <CursorEffectBin id="5500"  >
            <CursorEffectKeyframes>
            </CursorEffectKeyframes>
           </CursorEffectBin>
          </Entry>
         </ExtraData>
         <GenericTrack id="5501"  >
          <Attributes>
           <Attribute id="5502" value="" name="ident"/>
           <Attribute id="5503" value="0" name="audioMuted"/>
           <Attribute id="5504" value="0" name="videoHidden"/>
          </Attributes>
          <MetaData>
           <entry key="IsLocked" val="False"/>
           <entry key="WinTrackHeight" val="0"/>
          </MetaData>
          <Medias>
           <AMFile id="5505" start="0" duration="4896" scalar="1/1" mediaStart="0/1" mediaDuration="4896/1" trackNumber="0" src="22" channelNumber="0" >
            <Parameters>
             <InterpolatingParam id="5506" interp="linr"  time="0/1" value="1" leadInLength="0/1"  name="volume"/>
             <Parameter id="5507"  name="captions"/>
            </Parameters>
            <Attributes>
             <Attribute id="5508" value="" name="ident"/>
             <Attribute id="5509" value="44100" name="sampleRate"/>
             <Attribute id="5510" value="16" name="bitDepth"/>
             <Attribute id="5511" value="1" name="gain"/>
             <Attribute id="5512" value="0" name="mixToMono"/>
            </Attributes>
            <MetaData>
             <entry key="WinSubProjectDisplayName" val=""/>
            </MetaData>
           </AMFile>
           <AMFile id="5513" start="4896" duration="411" scalar="1/1" mediaStart="4989/1" mediaDuration="411/1" trackNumber="0" src="22" channelNumber="0" >
            <Parameters>
             <InterpolatingParam id="5514" interp="linr"  time="0/1" value="1" leadInLength="0/1"  name="volume"/>
             <Parameter id="5515"  name="captions"/>
            </Parameters>
            <Attributes>
             <Attribute id="5516" value="" name="ident"/>
             <Attribute id="5517" value="44100" name="sampleRate"/>
             <Attribute id="5518" value="16" name="bitDepth"/>
             <Attribute id="5519" value="1" name="gain"/>
             <Attribute id="5520" value="0" name="mixToMono"/>
            </Attributes>
            <MetaData>
             <entry key="WinSubProjectDisplayName" val=""/>
            </MetaData>
           </AMFile>
           <AMFile id="5521" start="5307" duration="1270" scalar="1/1" mediaStart="5956/1" mediaDuration="1270/1" trackNumber="0" src="22" channelNumber="0" >
            <Parameters>
             <InterpolatingParam id="5522" interp="linr"  time="0/1" value="1" leadInLength="0/1"  name="volume"/>
             <Parameter id="5523"  name="captions"/>
            </Parameters>
            <Attributes>
             <Attribute id="5524" value="" name="ident"/>
             <Attribute id="5525" value="44100" name="sampleRate"/>
             <Attribute id="5526" value="16" name="bitDepth"/>
             <Attribute id="5527" value="1" name="gain"/>
             <Attribute id="5528" value="0" name="mixToMono"/>
            </Attributes>
            <MetaData>
             <entry key="WinSubProjectDisplayName" val=""/>
            </MetaData>
           </AMFile>
           <AMFile id="5529" start="6577" duration="7114" scalar="1/1" mediaStart="7454/1" mediaDuration="7114/1" trackNumber="0" src="22" channelNumber="0" >
            <Parameters>
             <InterpolatingParam id="5530" interp="linr"  time="0/1" value="1" leadInLength="0/1"  name="volume"/>
             <Parameter id="5531"  name="captions"/>
            </Parameters>
            <Attributes>
             <Attribute id="5532" value="" name="ident"/>
             <Attribute id="5533" value="44100" name="sampleRate"/>
             <Attribute id="5534" value="16" name="bitDepth"/>
             <Attribute id="5535" value="1" name="gain"/>
             <Attribute id="5536" value="0" name="mixToMono"/>
            </Attributes>
            <MetaData>
             <entry key="WinSubProjectDisplayName" val=""/>
            </MetaData>
           </AMFile>
          </Medias>
         </GenericTrack>
        </StitchedMedia>
        <StitchedMedia id="5537" start="4720" duration="25" scalar="1/1" mediaStart="6149/1" mediaDuration="25/1" minMediaStart="0/1" >
         <Transformer>
          <VectorParam id="5538"  name="translation">
           <InterpolatingParam id="5539" interp="linr"  time="0/1" value="0" leadInLength="0/1"  />
           <InterpolatingParam id="5540" interp="linr"  time="0/1" value="0" leadInLength="0/1"  />
           <InterpolatingParam id="5541" interp="linr"  time="0/1" value="0" leadInLength="0/1"  />
          </VectorParam>
          <VectorParam id="5542"  name="rotation">
           <InterpolatingParam id="5543" interp="linr"  time="0/1" value="0" leadInLength="0/1"  />
           <InterpolatingParam id="5544" interp="linr"  time="0/1" value="0" leadInLength="0/1"  />
           <InterpolatingParam id="5545" interp="linr"  time="0/1" value="0" leadInLength="0/1"  />
          </VectorParam>
          <VectorParam id="5546"  name="shear">
           <InterpolatingParam id="5547" interp="linr"  time="0/1" value="0" leadInLength="0/1"  />
           <InterpolatingParam id="5548" interp="linr"  time="0/1" value="0" leadInLength="0/1"  />
           <InterpolatingParam id="5549" interp="linr"  time="0/1" value="0" leadInLength="0/1"  />
          </VectorParam>
          <VectorParam id="5550"  name="scale">
           <InterpolatingParam id="5551" interp="linr"  time="0/1" value="1" leadInLength="0/1"  />
           <InterpolatingParam id="5552" interp="linr"  time="0/1" value="1" leadInLength="0/1"  />
           <InterpolatingParam id="5553" interp="linr"  time="0/1" value="1" leadInLength="0/1"  />
          </VectorParam>
          <VectorParam id="5554"  name="anchor">
           <InterpolatingParam id="5555" interp="linr"  time="0/1" value="0" leadInLength="0/1"  />
           <InterpolatingParam id="5556" interp="linr"  time="0/1" value="0" leadInLength="0/1"  />
           <InterpolatingParam id="5557" interp="linr"  time="0/1" value="0" leadInLength="0/1"  />
          </VectorParam>
         </Transformer>
         <Parameters>
          <InterpolatingParam id="5558" interp="linr"  time="0/1" value="1" leadInLength="0/1"  name="cursorOpacity"/>
          <InterpolatingParam id="5559" interp="linr"  time="0/1" value="1" leadInLength="0/1"  name="cursorScale"/>
          <InterpolatingParam id="5560" interp="linr"  name="volume">
           <Keyframes>
           <Keyframe id="5561"  time="0/1" value="1" leadInLength="0/1"  />
           <Keyframe id="5562"  time="3301/1" value="1" leadInLength="0/1"  />
           <Keyframe id="5563"  time="3302/1" value="1.1290322580645162" leadInLength="0/1"  />
           <Keyframe id="5564"  time="13691/1" value="1.1290322580645162" leadInLength="0/1"  />
           <Keyframe id="5565"  time="13692/1" value="1" leadInLength="0/1"  />
           </Keyframes>
          </InterpolatingParam>
          <Parameter id="5566"  name="captions"/>
         </Parameters>
         <Effects>
          <GenericEffect id="5567" name = "NoiseReduction" >
           <Parameters>
           <InterpolatingParam id="5568" interp="linr"  time="0/1" value="20" leadInLength="0/1"   name="denoiserAmount"/>
           <InterpolatingParam id="5569" interp="linr"  time="0/1" value="0" leadInLength="0/1"   name="denoiserThreshold"/>
           <Parameter id="5570"   name="noiseProfile">
            <Keyframes>
            <Keyframe id="5571"  time="0/1" value="FBAAAAIAAABErAAAAQIAADOmYsI/y13CPNeLwsehjcK+No/Cm+aOwlHvjcIja5HCun6XwoKemMJy&#xD;&#xa;lpPCuQeRwhgMlcJGdZvCTjScwgFMncIGh5zCGrOawuO0nMJdJZ3Cybudwo6toMIdraPCs/6jwpY0&#xD;&#xa;psLIUqjCWQmpwonmp8KcE6XCgXGlwqC+psIFHabCBoyownWvqcIkX6jCgnCpwms3qsIW0KfCM7Oj&#xD;&#xa;wnGLosJgcKnCdk6swiIgscKFrbDCtNmowrZmpcIHYqjCCg2pwqUNq8KgHq7ChEGxwhVFs8KU6LLC&#xD;&#xa;dvWzwpVHscI6NrDCMpGwwubcs8Imh7bCPKq6wj7tvMKSbr3ClsG+wq4qwMLXQr7CpAK5whxiuMJp&#xD;&#xa;v7nCwu29wloQvsIXTL3CzjDAwsDTwcL69sHC8urAwtAFwMIkSMLCpJHDwjLOw8JG8sTCmMvDwq7H&#xD;&#xa;wsLOncPC+CDDwkh6wsLU5sPCP23Fwm5Qx8KlYsTCm0XCwnhexcLsTsPCSMPDwjvJw8LMWcHC2XHD&#xD;&#xa;wjj5wsICs8TChWvEwgCywcKDdcHCFnHCwurMxMLlVsTCfrDGwmzqyMKoGsfC7ITIwtqRyMJwzcbC&#xD;&#xa;ppbEwiv5xcIXxsTCzDfCwtSExMKEjcTC8ObDwiJ9yMIQm8vCIkDGwqHyxcIyYcbCyAXIwmyBx8I4&#xD;&#xa;n8PCvyPGwuiKxMJggMfCdL3JwsMhysLi6sXCRa7Ewoykx8Jk/MXC0NfEwtK0xcJQTMTCvvvGwtqJ&#xD;&#xa;xMKmFsTCSbfGwq76x8IQ+sjCsqnIwkJdycIaT8fC0nbHwlf2xsLg/cbCtIHHwsTvxsI0KsbCsqDH&#xD;&#xa;wgLix8JGKcXCyNTDwjDwwsIb98bC6MjJwg6Zy8Kg+cvCaC3HwtIgw8KW7sXC3EHGwmcUxcL++8fC&#xD;&#xa;CWbIwsDoxsJFz8PCJkXFwiD7xcIQDsfC8ljIwrDLxMKkeMLClpHEwiqgyMJcjcjC6krGwl50w8Iy&#xD;&#xa;7sXCWv3HwkQ1xsKUwMPC2K/EwootxMJUqMTCH3LDwuojxcKil8fCjmXIwkLJxcID78TClTvGwhel&#xD;&#xa;xsIca8bC1rbCwk6+wsIQfsfCIlPHwpJExcLWhMbCDNvEwuryxMKklMXCeBDDwolhwcIiasLCQYfE&#xD;&#xa;whUfwsJx4MTCsEnIwkX0xcK+3sbCIqLHwrARx8IWtMTCGAnFwomNxMLfbcTCQIPDwjqww8L+MMTC&#xD;&#xa;mqjHwrBaxMI6YsTCxmvIwqyKycKQaMXCnx7FwkYvx8In6sjCGMzIwuvAxcL8a8XCiBjJwkvwyMKI&#xD;&#xa;qMbCTCTIwvQSy8IxEsvCVT/JwrI3w8LA8sLCCD7EwsxXxMJSjsXCfjXFwqTKxMI/gsPCDozDwtwF&#xD;&#xa;xMISn8bChHvJwlFQyMJYCsbCP4jIwtkBycLiFsrCbCrKwvyTysIWncnC+A3HwuI5x8I8/MbC0hHI&#xD;&#xa;wopJzMLmb83CFkvMwpy/y8Kn7MrCfJrJwuLDyMJKn8bCStTGwpb7ycIMo8nCcivFwsapxcJkx8bC&#xD;&#xa;ALLIwriaycJM3cfC8r/KwlSoy8I4A8vCpFHJwkRrzMIKr87CWD7MwsiJycKW9cfCUjbKwq+YycLi&#xD;&#xa;U8jCROHHwhdWycKaU8nCF7jMwmKaz8L//8zC8tjOwjxezsIUysvCzHLJwiJryMLRm8bCgLjKwsi8&#xD;&#xa;ysIhfszCPETLwqtbyMJGeMfCpRPJwnwZzMJSIs3CqhPMwmDiyMLZYsjCz13KwgwKy8LCi8jCyrTM&#xD;&#xa;wgwxzMK4ZcvC087JwkV2xsLyXsnCjIbLwhwvzcLfrM7CeITKwla3ysLK3cnC/PHFwpScxcIUQ8nC&#xD;&#xa;NJzIwrEsxsJvZcfCXSvIwlKLx8JII8nCvgzKwpnhysJSC8vC9iTKwiA/y8IadczCuDrMwuVaysLO&#xD;&#xa;r8vCXtfJwrZ6ycItucnCtonJwjyTysJkC83CL0nMwkjdyMIBucfCixrLwvSDysKGX8nCsCzMwuas&#xD;&#xa;0cIsnNPCuEvOwtr5y8LMBc7Cr+PTwsQc5MLcOfPCKOj0wjr59cJ0C/fCzg75wkwh+8LmVPnCqz72&#xD;&#xa;wnB+9cLuJvrCtEL4wkp7+MLOfffCDN3zwkaz9sLi8vjCFKr6wgIQ+cI8iPjCBpT4wvR1+MLQI/rC&#xD;&#xa;Ihn8wlQg+sIcLvjCVCz2wsI49MJQ9fbC23H3woy69sL4BfnCIOb2wjwy9cIuGvnCdmb3wj7K9MI+&#xD;&#xa;KPXCJpr2wn7C9cKQDvnCthv7woaP+cLGaPbCTr32wrpN+cIFSPjCDvX4wtD39sJY//TCKGf3wvZI&#xD;&#xa;+cK9YvfCgYf3wjIf+sLMMvfCpjz2wuA6+cII8vbCxDv1wmJG9sLka/rCPrT1wi589cLqjfbC9qP4&#xD;&#xa;wgzJ+MLelPbCGir2wlBC9sKeU/jC/nn3wsYn9sL4QPjCXBj5wopQ+MIaJvnCSB36wgjc+MIMfPfC&#xD;&#xa;W+z1wmYG+MKuxPnCCuD1wjh+9sLDrPfCOPj3wm7h+MJjMvfCxH/2wsXf98KwN/nCKOn5wrLR+sKg&#xD;&#xa;bPvCkFv5wsAu+cL2hffCySz2wmRX+MKiiPjCzFX4wvjB98Jgz/fCxPT4wobP+cL8avjC9r34wnKx&#xD;&#xa;+MK+LPnC3H34wle39cKejfbCNKP2wg5B9sK0H/rCSvz2woqE98JAqfjCBPL4wmKi+MIu2/jCMFD5&#xD;&#xa;wiCM+cKo//nCGqz7wlZN+sKUDfjC0ov4wrIU+sIVpffCP2/3woye98KktPbCTJj2wpH29cL3mvbC&#xD;&#xa;jL/4wti/+MLm3vjCQ9QEwzOmYsI/y13CPNeLwsehjcK+No/Cm+aOwlHvjcIja5HCun6XwoKemMJy&#xD;&#xa;lpPCuQeRwhgMlcJGdZvCTjScwgFMncIGh5zCGrOawuO0nMJdJZ3Cybudwo6toMIdraPCs/6jwpY0&#xD;&#xa;psLIUqjCWQmpwonmp8KcE6XCgXGlwqC+psIFHabCBoyownWvqcIkX6jCgnCpwms3qsIW0KfCM7Oj&#xD;&#xa;wnGLosJgcKnCdk6swiIgscKFrbDCtNmowrZmpcIHYqjCCg2pwqUNq8KgHq7ChEGxwhVFs8KU6LLC&#xD;&#xa;dvWzwpVHscI6NrDCMpGwwubcs8Imh7bCPKq6wj7tvMKSbr3ClsG+wq4qwMLXQr7CpAK5whxiuMJp&#xD;&#xa;v7nCwu29wloQvsIXTL3CzjDAwsDTwcL69sHC8urAwtAFwMIkSMLCpJHDwjLOw8JG8sTCmMvDwq7H&#xD;&#xa;wsLOncPC+CDDwkh6wsLU5sPCP23Fwm5Qx8KlYsTCm0XCwnhexcLsTsPCSMPDwjvJw8LMWcHC2XHD&#xD;&#xa;wjj5wsICs8TChWvEwgCywcKDdcHCFnHCwurMxMLlVsTCfrDGwmzqyMKoGsfC7ITIwtqRyMJwzcbC&#xD;&#xa;ppbEwiv5xcIXxsTCzDfCwtSExMKEjcTC8ObDwiJ9yMIQm8vCIkDGwqHyxcIyYcbCyAXIwmyBx8I4&#xD;&#xa;n8PCvyPGwuiKxMJggMfCdL3JwsMhysLi6sXCRa7Ewoykx8Jk/MXC0NfEwtK0xcJQTMTCvvvGwtqJ&#xD;&#xa;xMKmFsTCSbfGwq76x8IQ+sjCsqnIwkJdycIaT8fC0nbHwlf2xsLg/cbCtIHHwsTvxsI0KsbCsqDH&#xD;&#xa;wgLix8JGKcXCyNTDwjDwwsIb98bC6MjJwg6Zy8Kg+cvCaC3HwtIgw8KW7sXC3EHGwmcUxcL++8fC&#xD;&#xa;CWbIwsDoxsJFz8PCJkXFwiD7xcIQDsfC8ljIwrDLxMKkeMLClpHEwiqgyMJcjcjC6krGwl50w8Iy&#xD;&#xa;7sXCWv3HwkQ1xsKUwMPC2K/EwootxMJUqMTCH3LDwuojxcKil8fCjmXIwkLJxcID78TClTvGwhel&#xD;&#xa;xsIca8bC1rbCwk6+wsIQfsfCIlPHwpJExcLWhMbCDNvEwuryxMKklMXCeBDDwolhwcIiasLCQYfE&#xD;&#xa;whUfwsJx4MTCsEnIwkX0xcK+3sbCIqLHwrARx8IWtMTCGAnFwomNxMLfbcTCQIPDwjqww8L+MMTC&#xD;&#xa;mqjHwrBaxMI6YsTCxmvIwqyKycKQaMXCnx7FwkYvx8In6sjCGMzIwuvAxcL8a8XCiBjJwkvwyMKI&#xD;&#xa;qMbCTCTIwvQSy8IxEsvCVT/JwrI3w8LA8sLCCD7EwsxXxMJSjsXCfjXFwqTKxMI/gsPCDozDwtwF&#xD;&#xa;xMISn8bChHvJwlFQyMJYCsbCP4jIwtkBycLiFsrCbCrKwvyTysIWncnC+A3HwuI5x8I8/MbC0hHI&#xD;&#xa;wopJzMLmb83CFkvMwpy/y8Kn7MrCfJrJwuLDyMJKn8bCStTGwpb7ycIMo8nCcivFwsapxcJkx8bC&#xD;&#xa;ALLIwriaycJM3cfC8r/KwlSoy8I4A8vCpFHJwkRrzMIKr87CWD7MwsiJycKW9cfCUjbKwq+YycLi&#xD;&#xa;U8jCROHHwhdWycKaU8nCF7jMwmKaz8L//8zC8tjOwjxezsIUysvCzHLJwiJryMLRm8bCgLjKwsi8&#xD;&#xa;ysIhfszCPETLwqtbyMJGeMfCpRPJwnwZzMJSIs3CqhPMwmDiyMLZYsjCz13KwgwKy8LCi8jCyrTM&#xD;&#xa;wgwxzMK4ZcvC087JwkV2xsLyXsnCjIbLwhwvzcLfrM7CeITKwla3ysLK3cnC/PHFwpScxcIUQ8nC&#xD;&#xa;NJzIwrEsxsJvZcfCXSvIwlKLx8JII8nCvgzKwpnhysJSC8vC9iTKwiA/y8IadczCuDrMwuVaysLO&#xD;&#xa;r8vCXtfJwrZ6ycItucnCtonJwjyTysJkC83CL0nMwkjdyMIBucfCixrLwvSDysKGX8nCsCzMwuas&#xD;&#xa;0cIsnNPCuEvOwtr5y8LMBc7Cr+PTwsQc5MLcOfPCKOj0wjr59cJ0C/fCzg75wkwh+8LmVPnCqz72&#xD;&#xa;wnB+9cLuJvrCtEL4wkp7+MLOfffCDN3zwkaz9sLi8vjCFKr6wgIQ+cI8iPjCBpT4wvR1+MLQI/rC&#xD;&#xa;Ihn8wlQg+sIcLvjCVCz2wsI49MJQ9fbC23H3woy69sL4BfnCIOb2wjwy9cIuGvnCdmb3wj7K9MI+&#xD;&#xa;KPXCJpr2wn7C9cKQDvnCthv7woaP+cLGaPbCTr32wrpN+cIFSPjCDvX4wtD39sJY//TCKGf3wvZI&#xD;&#xa;+cK9YvfCgYf3wjIf+sLMMvfCpjz2wuA6+cII8vbCxDv1wmJG9sLka/rCPrT1wi589cLqjfbC9qP4&#xD;&#xa;wgzJ+MLelPbCGir2wlBC9sKeU/jC/nn3wsYn9sL4QPjCXBj5wopQ+MIaJvnCSB36wgjc+MIMfPfC&#xD;&#xa;W+z1wmYG+MKuxPnCCuD1wjh+9sLDrPfCOPj3wm7h+MJjMvfCxH/2wsXf98KwN/nCKOn5wrLR+sKg&#xD;&#xa;bPvCkFv5wsAu+cL2hffCySz2wmRX+MKiiPjCzFX4wvjB98Jgz/fCxPT4wobP+cL8avjC9r34wnKx&#xD;&#xa;+MK+LPnC3H34wle39cKejfbCNKP2wg5B9sK0H/rCSvz2woqE98JAqfjCBPL4wmKi+MIu2/jCMFD5&#xD;&#xa;wiCM+cKo//nCGqz7wlZN+sKUDfjC0ov4wrIU+sIVpffCP2/3woye98KktPbCTJj2wpH29cL3mvbC&#xD;&#xa;jL/4wti/+MLm3vjCQ9QE" leadInLength="0/1"  />
            </Keyframes>
           </Parameter>
           </Parameters>
          </GenericEffect>
          <GenericEffect id="5572" name = "WinCompression" >
           <Parameters>
           <InterpolatingParam id="5573" interp="linr"  time="0/1" value="0" leadInLength="0/1"   name="attack"/>
           <InterpolatingParam id="5574" interp="linr"  time="0/1" value="9" leadInLength="0/1"   name="gain"/>
           <Parameter id="5575"   name="preset">
            <Keyframes>
            <Keyframe id="5576"  time="0/1" value="1" leadInLength="0/1"  />
            </Keyframes>
           </Parameter>
           <InterpolatingParam id="5577" interp="linr"  time="0/1" value="10" leadInLength="0/1"   name="ratio"/>
           <InterpolatingParam id="5578" interp="linr"  time="0/1" value="3500" leadInLength="0/1"   name="release"/>
           <InterpolatingParam id="5579" interp="linr"  time="0/1" value="-20" leadInLength="0/1"   name="threshold"/>
           </Parameters>
          </GenericEffect>
          <GenericEffect id="5580" name = "Declipper" >
           <Parameters>
           <InterpolatingParam id="5581" interp="linr"  time="0/1" value="-1" leadInLength="0/1"   name="sensitivity"/>
           </Parameters>
          </GenericEffect>
          <GenericEffect id="5582" name = "Declicker" >
           <Parameters>
           <InterpolatingParam id="5583" interp="linr"  time="0/1" value="3" leadInLength="0/1"   name="sensitivity"/>
           </Parameters>
          </GenericEffect>
         </Effects>
         <Attributes>
          <Attribute id="5584" value="" name="ident"/>
          <Attribute id="5585" value="0" name="mixToMono"/>
         </Attributes>
         <MetaData>
          <entry key="WinSubProjectDisplayName" val=""/>
         </MetaData>
         <ExtraData>
          <Entry key="ZoomPanBin">
           <ZoomPanBin id="5586"  >
            <ZoomPanKeyframes>
            </ZoomPanKeyframes>
           </ZoomPanBin>
          </Entry>
          <Entry key="CursorEffectBin">
           <CursorEffectBin id="5587"  >
            <CursorEffectKeyframes>
            </CursorEffectKeyframes>
           </CursorEffectBin>
          </Entry>
         </ExtraData>
         <GenericTrack id="5588"  >
          <Attributes>
           <Attribute id="5589" value="" name="ident"/>
           <Attribute id="5590" value="0" name="audioMuted"/>
           <Attribute id="5591" value="0" name="videoHidden"/>
          </Attributes>
          <MetaData>
           <entry key="IsLocked" val="False"/>
           <entry key="WinTrackHeight" val="0"/>
          </MetaData>
          <Medias>
           <AMFile id="5592" start="0" duration="4896" scalar="1/1" mediaStart="0/1" mediaDuration="4896/1" trackNumber="0" src="22" channelNumber="0" >
            <Parameters>
             <InterpolatingParam id="5593" interp="linr"  time="0/1" value="1" leadInLength="0/1"  name="volume"/>
             <Parameter id="5594"  name="captions"/>
            </Parameters>
            <Attributes>
             <Attribute id="5595" value="" name="ident"/>
             <Attribute id="5596" value="44100" name="sampleRate"/>
             <Attribute id="5597" value="16" name="bitDepth"/>
             <Attribute id="5598" value="1" name="gain"/>
             <Attribute id="5599" value="0" name="mixToMono"/>
            </Attributes>
            <MetaData>
             <entry key="WinSubProjectDisplayName" val=""/>
            </MetaData>
           </AMFile>
           <AMFile id="5600" start="4896" duration="411" scalar="1/1" mediaStart="4989/1" mediaDuration="411/1" trackNumber="0" src="22" channelNumber="0" >
            <Parameters>
             <InterpolatingParam id="5601" interp="linr"  time="0/1" value="1" leadInLength="0/1"  name="volume"/>
             <Parameter id="5602"  name="captions"/>
            </Parameters>
            <Attributes>
             <Attribute id="5603" value="" name="ident"/>
             <Attribute id="5604" value="44100" name="sampleRate"/>
             <Attribute id="5605" value="16" name="bitDepth"/>
             <Attribute id="5606" value="1" name="gain"/>
             <Attribute id="5607" value="0" name="mixToMono"/>
            </Attributes>
            <MetaData>
             <entry key="WinSubProjectDisplayName" val=""/>
            </MetaData>
           </AMFile>
           <AMFile id="5608" start="5307" duration="1270" scalar="1/1" mediaStart="5956/1" mediaDuration="1270/1" trackNumber="0" src="22" channelNumber="0" >
            <Parameters>
             <InterpolatingParam id="5609" interp="linr"  time="0/1" value="1" leadInLength="0/1"  name="volume"/>
             <Parameter id="5610"  name="captions"/>
            </Parameters>
            <Attributes>
             <Attribute id="5611" value="" name="ident"/>
             <Attribute id="5612" value="44100" name="sampleRate"/>
             <Attribute id="5613" value="16" name="bitDepth"/>
             <Attribute id="5614" value="1" name="gain"/>
             <Attribute id="5615" value="0" name="mixToMono"/>
            </Attributes>
            <MetaData>
             <entry key="WinSubProjectDisplayName" val=""/>
            </MetaData>
           </AMFile>
           <AMFile id="5616" start="6577" duration="7114" scalar="1/1" mediaStart="7454/1" mediaDuration="7114/1" trackNumber="0" src="22" channelNumber="0" >
            <Parameters>
             <InterpolatingParam id="5617" interp="linr"  time="0/1" value="1" leadInLength="0/1"  name="volume"/>
             <Parameter id="5618"  name="captions"/>
            </Parameters>
            <Attributes>
             <Attribute id="5619" value="" name="ident"/>
             <Attribute id="5620" value="44100" name="sampleRate"/>
             <Attribute id="5621" value="16" name="bitDepth"/>
             <Attribute id="5622" value="1" name="gain"/>
             <Attribute id="5623" value="0" name="mixToMono"/>
            </Attributes>
            <MetaData>
             <entry key="WinSubProjectDisplayName" val=""/>
            </MetaData>
           </AMFile>
          </Medias>
         </GenericTrack>
        </StitchedMedia>
        <StitchedMedia id="5624" start="4754" duration="55" scalar="1/1" mediaStart="6186/1" mediaDuration="55/1" minMediaStart="0/1" >
         <Transformer>
          <VectorParam id="5625"  name="translation">
           <InterpolatingParam id="5626" interp="linr"  time="0/1" value="0" leadInLength="0/1"  />
           <InterpolatingParam id="5627" interp="linr"  time="0/1" value="0" leadInLength="0/1"  />
           <InterpolatingParam id="5628" interp="linr"  time="0/1" value="0" leadInLength="0/1"  />
          </VectorParam>
          <VectorParam id="5629"  name="rotation">
           <InterpolatingParam id="5630" interp="linr"  time="0/1" value="0" leadInLength="0/1"  />
           <InterpolatingParam id="5631" interp="linr"  time="0/1" value="0" leadInLength="0/1"  />
           <InterpolatingParam id="5632" interp="linr"  time="0/1" value="0" leadInLength="0/1"  />
          </VectorParam>
          <VectorParam id="5633"  name="shear">
           <InterpolatingParam id="5634" interp="linr"  time="0/1" value="0" leadInLength="0/1"  />
           <InterpolatingParam id="5635" interp="linr"  time="0/1" value="0" leadInLength="0/1"  />
           <InterpolatingParam id="5636" interp="linr"  time="0/1" value="0" leadInLength="0/1"  />
          </VectorParam>
          <VectorParam id="5637"  name="scale">
           <InterpolatingParam id="5638" interp="linr"  time="0/1" value="1" leadInLength="0/1"  />
           <InterpolatingParam id="5639" interp="linr"  time="0/1" value="1" leadInLength="0/1"  />
           <InterpolatingParam id="5640" interp="linr"  time="0/1" value="1" leadInLength="0/1"  />
          </VectorParam>
          <VectorParam id="5641"  name="anchor">
           <InterpolatingParam id="5642" interp="linr"  time="0/1" value="0" leadInLength="0/1"  />
           <InterpolatingParam id="5643" interp="linr"  time="0/1" value="0" leadInLength="0/1"  />
           <InterpolatingParam id="5644" interp="linr"  time="0/1" value="0" leadInLength="0/1"  />
          </VectorParam>
         </Transformer>
         <Parameters>
          <InterpolatingParam id="5645" interp="linr"  time="0/1" value="1" leadInLength="0/1"  name="cursorOpacity"/>
          <InterpolatingParam id="5646" interp="linr"  time="0/1" value="1" leadInLength="0/1"  name="cursorScale"/>
          <InterpolatingParam id="5647" interp="linr"  name="volume">
           <Keyframes>
           <Keyframe id="5648"  time="0/1" value="1" leadInLength="0/1"  />
           <Keyframe id="5649"  time="3301/1" value="1" leadInLength="0/1"  />
           <Keyframe id="5650"  time="3302/1" value="1.1290322580645162" leadInLength="0/1"  />
           <Keyframe id="5651"  time="13691/1" value="1.1290322580645162" leadInLength="0/1"  />
           <Keyframe id="5652"  time="13692/1" value="1" leadInLength="0/1"  />
           </Keyframes>
          </InterpolatingParam>
          <Parameter id="5653"  name="captions"/>
         </Parameters>
         <Effects>
          <GenericEffect id="5654" name = "NoiseReduction" >
           <Parameters>
           <InterpolatingParam id="5655" interp="linr"  time="0/1" value="20" leadInLength="0/1"   name="denoiserAmount"/>
           <InterpolatingParam id="5656" interp="linr"  time="0/1" value="0" leadInLength="0/1"   name="denoiserThreshold"/>
           <Parameter id="5657"   name="noiseProfile">
            <Keyframes>
            <Keyframe id="5658"  time="0/1" value="FBAAAAIAAABErAAAAQIAADOmYsI/y13CPNeLwsehjcK+No/Cm+aOwlHvjcIja5HCun6XwoKemMJy&#xD;&#xa;lpPCuQeRwhgMlcJGdZvCTjScwgFMncIGh5zCGrOawuO0nMJdJZ3Cybudwo6toMIdraPCs/6jwpY0&#xD;&#xa;psLIUqjCWQmpwonmp8KcE6XCgXGlwqC+psIFHabCBoyownWvqcIkX6jCgnCpwms3qsIW0KfCM7Oj&#xD;&#xa;wnGLosJgcKnCdk6swiIgscKFrbDCtNmowrZmpcIHYqjCCg2pwqUNq8KgHq7ChEGxwhVFs8KU6LLC&#xD;&#xa;dvWzwpVHscI6NrDCMpGwwubcs8Imh7bCPKq6wj7tvMKSbr3ClsG+wq4qwMLXQr7CpAK5whxiuMJp&#xD;&#xa;v7nCwu29wloQvsIXTL3CzjDAwsDTwcL69sHC8urAwtAFwMIkSMLCpJHDwjLOw8JG8sTCmMvDwq7H&#xD;&#xa;wsLOncPC+CDDwkh6wsLU5sPCP23Fwm5Qx8KlYsTCm0XCwnhexcLsTsPCSMPDwjvJw8LMWcHC2XHD&#xD;&#xa;wjj5wsICs8TChWvEwgCywcKDdcHCFnHCwurMxMLlVsTCfrDGwmzqyMKoGsfC7ITIwtqRyMJwzcbC&#xD;&#xa;ppbEwiv5xcIXxsTCzDfCwtSExMKEjcTC8ObDwiJ9yMIQm8vCIkDGwqHyxcIyYcbCyAXIwmyBx8I4&#xD;&#xa;n8PCvyPGwuiKxMJggMfCdL3JwsMhysLi6sXCRa7Ewoykx8Jk/MXC0NfEwtK0xcJQTMTCvvvGwtqJ&#xD;&#xa;xMKmFsTCSbfGwq76x8IQ+sjCsqnIwkJdycIaT8fC0nbHwlf2xsLg/cbCtIHHwsTvxsI0KsbCsqDH&#xD;&#xa;wgLix8JGKcXCyNTDwjDwwsIb98bC6MjJwg6Zy8Kg+cvCaC3HwtIgw8KW7sXC3EHGwmcUxcL++8fC&#xD;&#xa;CWbIwsDoxsJFz8PCJkXFwiD7xcIQDsfC8ljIwrDLxMKkeMLClpHEwiqgyMJcjcjC6krGwl50w8Iy&#xD;&#xa;7sXCWv3HwkQ1xsKUwMPC2K/EwootxMJUqMTCH3LDwuojxcKil8fCjmXIwkLJxcID78TClTvGwhel&#xD;&#xa;xsIca8bC1rbCwk6+wsIQfsfCIlPHwpJExcLWhMbCDNvEwuryxMKklMXCeBDDwolhwcIiasLCQYfE&#xD;&#xa;whUfwsJx4MTCsEnIwkX0xcK+3sbCIqLHwrARx8IWtMTCGAnFwomNxMLfbcTCQIPDwjqww8L+MMTC&#xD;&#xa;mqjHwrBaxMI6YsTCxmvIwqyKycKQaMXCnx7FwkYvx8In6sjCGMzIwuvAxcL8a8XCiBjJwkvwyMKI&#xD;&#xa;qMbCTCTIwvQSy8IxEsvCVT/JwrI3w8LA8sLCCD7EwsxXxMJSjsXCfjXFwqTKxMI/gsPCDozDwtwF&#xD;&#xa;xMISn8bChHvJwlFQyMJYCsbCP4jIwtkBycLiFsrCbCrKwvyTysIWncnC+A3HwuI5x8I8/MbC0hHI&#xD;&#xa;wopJzMLmb83CFkvMwpy/y8Kn7MrCfJrJwuLDyMJKn8bCStTGwpb7ycIMo8nCcivFwsapxcJkx8bC&#xD;&#xa;ALLIwriaycJM3cfC8r/KwlSoy8I4A8vCpFHJwkRrzMIKr87CWD7MwsiJycKW9cfCUjbKwq+YycLi&#xD;&#xa;U8jCROHHwhdWycKaU8nCF7jMwmKaz8L//8zC8tjOwjxezsIUysvCzHLJwiJryMLRm8bCgLjKwsi8&#xD;&#xa;ysIhfszCPETLwqtbyMJGeMfCpRPJwnwZzMJSIs3CqhPMwmDiyMLZYsjCz13KwgwKy8LCi8jCyrTM&#xD;&#xa;wgwxzMK4ZcvC087JwkV2xsLyXsnCjIbLwhwvzcLfrM7CeITKwla3ysLK3cnC/PHFwpScxcIUQ8nC&#xD;&#xa;NJzIwrEsxsJvZcfCXSvIwlKLx8JII8nCvgzKwpnhysJSC8vC9iTKwiA/y8IadczCuDrMwuVaysLO&#xD;&#xa;r8vCXtfJwrZ6ycItucnCtonJwjyTysJkC83CL0nMwkjdyMIBucfCixrLwvSDysKGX8nCsCzMwuas&#xD;&#xa;0cIsnNPCuEvOwtr5y8LMBc7Cr+PTwsQc5MLcOfPCKOj0wjr59cJ0C/fCzg75wkwh+8LmVPnCqz72&#xD;&#xa;wnB+9cLuJvrCtEL4wkp7+MLOfffCDN3zwkaz9sLi8vjCFKr6wgIQ+cI8iPjCBpT4wvR1+MLQI/rC&#xD;&#xa;Ihn8wlQg+sIcLvjCVCz2wsI49MJQ9fbC23H3woy69sL4BfnCIOb2wjwy9cIuGvnCdmb3wj7K9MI+&#xD;&#xa;KPXCJpr2wn7C9cKQDvnCthv7woaP+cLGaPbCTr32wrpN+cIFSPjCDvX4wtD39sJY//TCKGf3wvZI&#xD;&#xa;+cK9YvfCgYf3wjIf+sLMMvfCpjz2wuA6+cII8vbCxDv1wmJG9sLka/rCPrT1wi589cLqjfbC9qP4&#xD;&#xa;wgzJ+MLelPbCGir2wlBC9sKeU/jC/nn3wsYn9sL4QPjCXBj5wopQ+MIaJvnCSB36wgjc+MIMfPfC&#xD;&#xa;W+z1wmYG+MKuxPnCCuD1wjh+9sLDrPfCOPj3wm7h+MJjMvfCxH/2wsXf98KwN/nCKOn5wrLR+sKg&#xD;&#xa;bPvCkFv5wsAu+cL2hffCySz2wmRX+MKiiPjCzFX4wvjB98Jgz/fCxPT4wobP+cL8avjC9r34wnKx&#xD;&#xa;+MK+LPnC3H34wle39cKejfbCNKP2wg5B9sK0H/rCSvz2woqE98JAqfjCBPL4wmKi+MIu2/jCMFD5&#xD;&#xa;wiCM+cKo//nCGqz7wlZN+sKUDfjC0ov4wrIU+sIVpffCP2/3woye98KktPbCTJj2wpH29cL3mvbC&#xD;&#xa;jL/4wti/+MLm3vjCQ9QEwzOmYsI/y13CPNeLwsehjcK+No/Cm+aOwlHvjcIja5HCun6XwoKemMJy&#xD;&#xa;lpPCuQeRwhgMlcJGdZvCTjScwgFMncIGh5zCGrOawuO0nMJdJZ3Cybudwo6toMIdraPCs/6jwpY0&#xD;&#xa;psLIUqjCWQmpwonmp8KcE6XCgXGlwqC+psIFHabCBoyownWvqcIkX6jCgnCpwms3qsIW0KfCM7Oj&#xD;&#xa;wnGLosJgcKnCdk6swiIgscKFrbDCtNmowrZmpcIHYqjCCg2pwqUNq8KgHq7ChEGxwhVFs8KU6LLC&#xD;&#xa;dvWzwpVHscI6NrDCMpGwwubcs8Imh7bCPKq6wj7tvMKSbr3ClsG+wq4qwMLXQr7CpAK5whxiuMJp&#xD;&#xa;v7nCwu29wloQvsIXTL3CzjDAwsDTwcL69sHC8urAwtAFwMIkSMLCpJHDwjLOw8JG8sTCmMvDwq7H&#xD;&#xa;wsLOncPC+CDDwkh6wsLU5sPCP23Fwm5Qx8KlYsTCm0XCwnhexcLsTsPCSMPDwjvJw8LMWcHC2XHD&#xD;&#xa;wjj5wsICs8TChWvEwgCywcKDdcHCFnHCwurMxMLlVsTCfrDGwmzqyMKoGsfC7ITIwtqRyMJwzcbC&#xD;&#xa;ppbEwiv5xcIXxsTCzDfCwtSExMKEjcTC8ObDwiJ9yMIQm8vCIkDGwqHyxcIyYcbCyAXIwmyBx8I4&#xD;&#xa;n8PCvyPGwuiKxMJggMfCdL3JwsMhysLi6sXCRa7Ewoykx8Jk/MXC0NfEwtK0xcJQTMTCvvvGwtqJ&#xD;&#xa;xMKmFsTCSbfGwq76x8IQ+sjCsqnIwkJdycIaT8fC0nbHwlf2xsLg/cbCtIHHwsTvxsI0KsbCsqDH&#xD;&#xa;wgLix8JGKcXCyNTDwjDwwsIb98bC6MjJwg6Zy8Kg+cvCaC3HwtIgw8KW7sXC3EHGwmcUxcL++8fC&#xD;&#xa;CWbIwsDoxsJFz8PCJkXFwiD7xcIQDsfC8ljIwrDLxMKkeMLClpHEwiqgyMJcjcjC6krGwl50w8Iy&#xD;&#xa;7sXCWv3HwkQ1xsKUwMPC2K/EwootxMJUqMTCH3LDwuojxcKil8fCjmXIwkLJxcID78TClTvGwhel&#xD;&#xa;xsIca8bC1rbCwk6+wsIQfsfCIlPHwpJExcLWhMbCDNvEwuryxMKklMXCeBDDwolhwcIiasLCQYfE&#xD;&#xa;whUfwsJx4MTCsEnIwkX0xcK+3sbCIqLHwrARx8IWtMTCGAnFwomNxMLfbcTCQIPDwjqww8L+MMTC&#xD;&#xa;mqjHwrBaxMI6YsTCxmvIwqyKycKQaMXCnx7FwkYvx8In6sjCGMzIwuvAxcL8a8XCiBjJwkvwyMKI&#xD;&#xa;qMbCTCTIwvQSy8IxEsvCVT/JwrI3w8LA8sLCCD7EwsxXxMJSjsXCfjXFwqTKxMI/gsPCDozDwtwF&#xD;&#xa;xMISn8bChHvJwlFQyMJYCsbCP4jIwtkBycLiFsrCbCrKwvyTysIWncnC+A3HwuI5x8I8/MbC0hHI&#xD;&#xa;wopJzMLmb83CFkvMwpy/y8Kn7MrCfJrJwuLDyMJKn8bCStTGwpb7ycIMo8nCcivFwsapxcJkx8bC&#xD;&#xa;ALLIwriaycJM3cfC8r/KwlSoy8I4A8vCpFHJwkRrzMIKr87CWD7MwsiJycKW9cfCUjbKwq+YycLi&#xD;&#xa;U8jCROHHwhdWycKaU8nCF7jMwmKaz8L//8zC8tjOwjxezsIUysvCzHLJwiJryMLRm8bCgLjKwsi8&#xD;&#xa;ysIhfszCPETLwqtbyMJGeMfCpRPJwnwZzMJSIs3CqhPMwmDiyMLZYsjCz13KwgwKy8LCi8jCyrTM&#xD;&#xa;wgwxzMK4ZcvC087JwkV2xsLyXsnCjIbLwhwvzcLfrM7CeITKwla3ysLK3cnC/PHFwpScxcIUQ8nC&#xD;&#xa;NJzIwrEsxsJvZcfCXSvIwlKLx8JII8nCvgzKwpnhysJSC8vC9iTKwiA/y8IadczCuDrMwuVaysLO&#xD;&#xa;r8vCXtfJwrZ6ycItucnCtonJwjyTysJkC83CL0nMwkjdyMIBucfCixrLwvSDysKGX8nCsCzMwuas&#xD;&#xa;0cIsnNPCuEvOwtr5y8LMBc7Cr+PTwsQc5MLcOfPCKOj0wjr59cJ0C/fCzg75wkwh+8LmVPnCqz72&#xD;&#xa;wnB+9cLuJvrCtEL4wkp7+MLOfffCDN3zwkaz9sLi8vjCFKr6wgIQ+cI8iPjCBpT4wvR1+MLQI/rC&#xD;&#xa;Ihn8wlQg+sIcLvjCVCz2wsI49MJQ9fbC23H3woy69sL4BfnCIOb2wjwy9cIuGvnCdmb3wj7K9MI+&#xD;&#xa;KPXCJpr2wn7C9cKQDvnCthv7woaP+cLGaPbCTr32wrpN+cIFSPjCDvX4wtD39sJY//TCKGf3wvZI&#xD;&#xa;+cK9YvfCgYf3wjIf+sLMMvfCpjz2wuA6+cII8vbCxDv1wmJG9sLka/rCPrT1wi589cLqjfbC9qP4&#xD;&#xa;wgzJ+MLelPbCGir2wlBC9sKeU/jC/nn3wsYn9sL4QPjCXBj5wopQ+MIaJvnCSB36wgjc+MIMfPfC&#xD;&#xa;W+z1wmYG+MKuxPnCCuD1wjh+9sLDrPfCOPj3wm7h+MJjMvfCxH/2wsXf98KwN/nCKOn5wrLR+sKg&#xD;&#xa;bPvCkFv5wsAu+cL2hffCySz2wmRX+MKiiPjCzFX4wvjB98Jgz/fCxPT4wobP+cL8avjC9r34wnKx&#xD;&#xa;+MK+LPnC3H34wle39cKejfbCNKP2wg5B9sK0H/rCSvz2woqE98JAqfjCBPL4wmKi+MIu2/jCMFD5&#xD;&#xa;wiCM+cKo//nCGqz7wlZN+sKUDfjC0ov4wrIU+sIVpffCP2/3woye98KktPbCTJj2wpH29cL3mvbC&#xD;&#xa;jL/4wti/+MLm3vjCQ9QE" leadInLength="0/1"  />
            </Keyframes>
           </Parameter>
           </Parameters>
          </GenericEffect>
          <GenericEffect id="5659" name = "WinCompression" >
           <Parameters>
           <InterpolatingParam id="5660" interp="linr"  time="0/1" value="0" leadInLength="0/1"   name="attack"/>
           <InterpolatingParam id="5661" interp="linr"  time="0/1" value="9" leadInLength="0/1"   name="gain"/>
           <Parameter id="5662"   name="preset">
            <Keyframes>
            <Keyframe id="5663"  time="0/1" value="1" leadInLength="0/1"  />
            </Keyframes>
           </Parameter>
           <InterpolatingParam id="5664" interp="linr"  time="0/1" value="10" leadInLength="0/1"   name="ratio"/>
           <InterpolatingParam id="5665" interp="linr"  time="0/1" value="3500" leadInLength="0/1"   name="release"/>
           <InterpolatingParam id="5666" interp="linr"  time="0/1" value="-20" leadInLength="0/1"   name="threshold"/>
           </Parameters>
          </GenericEffect>
          <GenericEffect id="5667" name = "Declipper" >
           <Parameters>
           <InterpolatingParam id="5668" interp="linr"  time="0/1" value="-1" leadInLength="0/1"   name="sensitivity"/>
           </Parameters>
          </GenericEffect>
          <GenericEffect id="5669" name = "Declicker" >
           <Parameters>
           <InterpolatingParam id="5670" interp="linr"  time="0/1" value="3" leadInLength="0/1"   name="sensitivity"/>
           </Parameters>
          </GenericEffect>
         </Effects>
         <Attributes>
          <Attribute id="5671" value="" name="ident"/>
          <Attribute id="5672" value="0" name="mixToMono"/>
         </Attributes>
         <MetaData>
          <entry key="WinSubProjectDisplayName" val=""/>
         </MetaData>
         <ExtraData>
          <Entry key="ZoomPanBin">
           <ZoomPanBin id="5673"  >
            <ZoomPanKeyframes>
            </ZoomPanKeyframes>
           </ZoomPanBin>
          </Entry>
          <Entry key="CursorEffectBin">
           <CursorEffectBin id="5674"  >
            <CursorEffectKeyframes>
            </CursorEffectKeyframes>
           </CursorEffectBin>
          </Entry>
         </ExtraData>
         <GenericTrack id="5675"  >
          <Attributes>
           <Attribute id="5676" value="" name="ident"/>
           <Attribute id="5677" value="0" name="audioMuted"/>
           <Attribute id="5678" value="0" name="videoHidden"/>
          </Attributes>
          <MetaData>
           <entry key="IsLocked" val="False"/>
           <entry key="WinTrackHeight" val="0"/>
          </MetaData>
          <Medias>
           <AMFile id="5679" start="0" duration="4896" scalar="1/1" mediaStart="0/1" mediaDuration="4896/1" trackNumber="0" src="22" channelNumber="0" >
            <Parameters>
             <InterpolatingParam id="5680" interp="linr"  time="0/1" value="1" leadInLength="0/1"  name="volume"/>
             <Parameter id="5681"  name="captions"/>
            </Parameters>
            <Attributes>
             <Attribute id="5682" value="" name="ident"/>
             <Attribute id="5683" value="44100" name="sampleRate"/>
             <Attribute id="5684" value="16" name="bitDepth"/>
             <Attribute id="5685" value="1" name="gain"/>
             <Attribute id="5686" value="0" name="mixToMono"/>
            </Attributes>
            <MetaData>
             <entry key="WinSubProjectDisplayName" val=""/>
            </MetaData>
           </AMFile>
           <AMFile id="5687" start="4896" duration="411" scalar="1/1" mediaStart="4989/1" mediaDuration="411/1" trackNumber="0" src="22" channelNumber="0" >
            <Parameters>
             <InterpolatingParam id="5688" interp="linr"  time="0/1" value="1" leadInLength="0/1"  name="volume"/>
             <Parameter id="5689"  name="captions"/>
            </Parameters>
            <Attributes>
             <Attribute id="5690" value="" name="ident"/>
             <Attribute id="5691" value="44100" name="sampleRate"/>
             <Attribute id="5692" value="16" name="bitDepth"/>
             <Attribute id="5693" value="1" name="gain"/>
             <Attribute id="5694" value="0" name="mixToMono"/>
            </Attributes>
            <MetaData>
             <entry key="WinSubProjectDisplayName" val=""/>
            </MetaData>
           </AMFile>
           <AMFile id="5695" start="5307" duration="1270" scalar="1/1" mediaStart="5956/1" mediaDuration="1270/1" trackNumber="0" src="22" channelNumber="0" >
            <Parameters>
             <InterpolatingParam id="5696" interp="linr"  time="0/1" value="1" leadInLength="0/1"  name="volume"/>
             <Parameter id="5697"  name="captions"/>
            </Parameters>
            <Attributes>
             <Attribute id="5698" value="" name="ident"/>
             <Attribute id="5699" value="44100" name="sampleRate"/>
             <Attribute id="5700" value="16" name="bitDepth"/>
             <Attribute id="5701" value="1" name="gain"/>
             <Attribute id="5702" value="0" name="mixToMono"/>
            </Attributes>
            <MetaData>
             <entry key="WinSubProjectDisplayName" val=""/>
            </MetaData>
           </AMFile>
           <AMFile id="5703" start="6577" duration="7114" scalar="1/1" mediaStart="7454/1" mediaDuration="7114/1" trackNumber="0" src="22" channelNumber="0" >
            <Parameters>
             <InterpolatingParam id="5704" interp="linr"  time="0/1" value="1" leadInLength="0/1"  name="volume"/>
             <Parameter id="5705"  name="captions"/>
            </Parameters>
            <Attributes>
             <Attribute id="5706" value="" name="ident"/>
             <Attribute id="5707" value="44100" name="sampleRate"/>
             <Attribute id="5708" value="16" name="bitDepth"/>
             <Attribute id="5709" value="1" name="gain"/>
             <Attribute id="5710" value="0" name="mixToMono"/>
            </Attributes>
            <MetaData>
             <entry key="WinSubProjectDisplayName" val=""/>
            </MetaData>
           </AMFile>
          </Medias>
         </GenericTrack>
        </StitchedMedia>
        <StitchedMedia id="5711" start="4816" duration="81" scalar="1/1" mediaStart="6246/1" mediaDuration="81/1" minMediaStart="0/1" >
         <Transformer>
          <VectorParam id="5712"  name="translation">
           <InterpolatingParam id="5713" interp="linr"  time="0/1" value="0" leadInLength="0/1"  />
           <InterpolatingParam id="5714" interp="linr"  time="0/1" value="0" leadInLength="0/1"  />
           <InterpolatingParam id="5715" interp="linr"  time="0/1" value="0" leadInLength="0/1"  />
          </VectorParam>
          <VectorParam id="5716"  name="rotation">
           <InterpolatingParam id="5717" interp="linr"  time="0/1" value="0" leadInLength="0/1"  />
           <InterpolatingParam id="5718" interp="linr"  time="0/1" value="0" leadInLength="0/1"  />
           <InterpolatingParam id="5719" interp="linr"  time="0/1" value="0" leadInLength="0/1"  />
          </VectorParam>
          <VectorParam id="5720"  name="shear">
           <InterpolatingParam id="5721" interp="linr"  time="0/1" value="0" leadInLength="0/1"  />
           <InterpolatingParam id="5722" interp="linr"  time="0/1" value="0" leadInLength="0/1"  />
           <InterpolatingParam id="5723" interp="linr"  time="0/1" value="0" leadInLength="0/1"  />
          </VectorParam>
          <VectorParam id="5724"  name="scale">
           <InterpolatingParam id="5725" interp="linr"  time="0/1" value="1" leadInLength="0/1"  />
           <InterpolatingParam id="5726" interp="linr"  time="0/1" value="1" leadInLength="0/1"  />
           <InterpolatingParam id="5727" interp="linr"  time="0/1" value="1" leadInLength="0/1"  />
          </VectorParam>
          <VectorParam id="5728"  name="anchor">
           <InterpolatingParam id="5729" interp="linr"  time="0/1" value="0" leadInLength="0/1"  />
           <InterpolatingParam id="5730" interp="linr"  time="0/1" value="0" leadInLength="0/1"  />
           <InterpolatingParam id="5731" interp="linr"  time="0/1" value="0" leadInLength="0/1"  />
          </VectorParam>
         </Transformer>
         <Parameters>
          <InterpolatingParam id="5732" interp="linr"  time="0/1" value="1" leadInLength="0/1"  name="cursorOpacity"/>
          <InterpolatingParam id="5733" interp="linr"  time="0/1" value="1" leadInLength="0/1"  name="cursorScale"/>
          <InterpolatingParam id="5734" interp="linr"  name="volume">
           <Keyframes>
           <Keyframe id="5735"  time="0/1" value="1" leadInLength="0/1"  />
           <Keyframe id="5736"  time="3301/1" value="1" leadInLength="0/1"  />
           <Keyframe id="5737"  time="3302/1" value="1.1290322580645162" leadInLength="0/1"  />
           <Keyframe id="5738"  time="13691/1" value="1.1290322580645162" leadInLength="0/1"  />
           <Keyframe id="5739"  time="13692/1" value="1" leadInLength="0/1"  />
           </Keyframes>
          </InterpolatingParam>
          <Parameter id="5740"  name="captions"/>
         </Parameters>
         <Effects>
          <GenericEffect id="5741" name = "NoiseReduction" >
           <Parameters>
           <InterpolatingParam id="5742" interp="linr"  time="0/1" value="20" leadInLength="0/1"   name="denoiserAmount"/>
           <InterpolatingParam id="5743" interp="linr"  time="0/1" value="0" leadInLength="0/1"   name="denoiserThreshold"/>
           <Parameter id="5744"   name="noiseProfile">
            <Keyframes>
            <Keyframe id="5745"  time="0/1" value="FBAAAAIAAABErAAAAQIAADOmYsI/y13CPNeLwsehjcK+No/Cm+aOwlHvjcIja5HCun6XwoKemMJy&#xD;&#xa;lpPCuQeRwhgMlcJGdZvCTjScwgFMncIGh5zCGrOawuO0nMJdJZ3Cybudwo6toMIdraPCs/6jwpY0&#xD;&#xa;psLIUqjCWQmpwonmp8KcE6XCgXGlwqC+psIFHabCBoyownWvqcIkX6jCgnCpwms3qsIW0KfCM7Oj&#xD;&#xa;wnGLosJgcKnCdk6swiIgscKFrbDCtNmowrZmpcIHYqjCCg2pwqUNq8KgHq7ChEGxwhVFs8KU6LLC&#xD;&#xa;dvWzwpVHscI6NrDCMpGwwubcs8Imh7bCPKq6wj7tvMKSbr3ClsG+wq4qwMLXQr7CpAK5whxiuMJp&#xD;&#xa;v7nCwu29wloQvsIXTL3CzjDAwsDTwcL69sHC8urAwtAFwMIkSMLCpJHDwjLOw8JG8sTCmMvDwq7H&#xD;&#xa;wsLOncPC+CDDwkh6wsLU5sPCP23Fwm5Qx8KlYsTCm0XCwnhexcLsTsPCSMPDwjvJw8LMWcHC2XHD&#xD;&#xa;wjj5wsICs8TChWvEwgCywcKDdcHCFnHCwurMxMLlVsTCfrDGwmzqyMKoGsfC7ITIwtqRyMJwzcbC&#xD;&#xa;ppbEwiv5xcIXxsTCzDfCwtSExMKEjcTC8ObDwiJ9yMIQm8vCIkDGwqHyxcIyYcbCyAXIwmyBx8I4&#xD;&#xa;n8PCvyPGwuiKxMJggMfCdL3JwsMhysLi6sXCRa7Ewoykx8Jk/MXC0NfEwtK0xcJQTMTCvvvGwtqJ&#xD;&#xa;xMKmFsTCSbfGwq76x8IQ+sjCsqnIwkJdycIaT8fC0nbHwlf2xsLg/cbCtIHHwsTvxsI0KsbCsqDH&#xD;&#xa;wgLix8JGKcXCyNTDwjDwwsIb98bC6MjJwg6Zy8Kg+cvCaC3HwtIgw8KW7sXC3EHGwmcUxcL++8fC&#xD;&#xa;CWbIwsDoxsJFz8PCJkXFwiD7xcIQDsfC8ljIwrDLxMKkeMLClpHEwiqgyMJcjcjC6krGwl50w8Iy&#xD;&#xa;7sXCWv3HwkQ1xsKUwMPC2K/EwootxMJUqMTCH3LDwuojxcKil8fCjmXIwkLJxcID78TClTvGwhel&#xD;&#xa;xsIca8bC1rbCwk6+wsIQfsfCIlPHwpJExcLWhMbCDNvEwuryxMKklMXCeBDDwolhwcIiasLCQYfE&#xD;&#xa;whUfwsJx4MTCsEnIwkX0xcK+3sbCIqLHwrARx8IWtMTCGAnFwomNxMLfbcTCQIPDwjqww8L+MMTC&#xD;&#xa;mqjHwrBaxMI6YsTCxmvIwqyKycKQaMXCnx7FwkYvx8In6sjCGMzIwuvAxcL8a8XCiBjJwkvwyMKI&#xD;&#xa;qMbCTCTIwvQSy8IxEsvCVT/JwrI3w8LA8sLCCD7EwsxXxMJSjsXCfjXFwqTKxMI/gsPCDozDwtwF&#xD;&#xa;xMISn8bChHvJwlFQyMJYCsbCP4jIwtkBycLiFsrCbCrKwvyTysIWncnC+A3HwuI5x8I8/MbC0hHI&#xD;&#xa;wopJzMLmb83CFkvMwpy/y8Kn7MrCfJrJwuLDyMJKn8bCStTGwpb7ycIMo8nCcivFwsapxcJkx8bC&#xD;&#xa;ALLIwriaycJM3cfC8r/KwlSoy8I4A8vCpFHJwkRrzMIKr87CWD7MwsiJycKW9cfCUjbKwq+YycLi&#xD;&#xa;U8jCROHHwhdWycKaU8nCF7jMwmKaz8L//8zC8tjOwjxezsIUysvCzHLJwiJryMLRm8bCgLjKwsi8&#xD;&#xa;ysIhfszCPETLwqtbyMJGeMfCpRPJwnwZzMJSIs3CqhPMwmDiyMLZYsjCz13KwgwKy8LCi8jCyrTM&#xD;&#xa;wgwxzMK4ZcvC087JwkV2xsLyXsnCjIbLwhwvzcLfrM7CeITKwla3ysLK3cnC/PHFwpScxcIUQ8nC&#xD;&#xa;NJzIwrEsxsJvZcfCXSvIwlKLx8JII8nCvgzKwpnhysJSC8vC9iTKwiA/y8IadczCuDrMwuVaysLO&#xD;&#xa;r8vCXtfJwrZ6ycItucnCtonJwjyTysJkC83CL0nMwkjdyMIBucfCixrLwvSDysKGX8nCsCzMwuas&#xD;&#xa;0cIsnNPCuEvOwtr5y8LMBc7Cr+PTwsQc5MLcOfPCKOj0wjr59cJ0C/fCzg75wkwh+8LmVPnCqz72&#xD;&#xa;wnB+9cLuJvrCtEL4wkp7+MLOfffCDN3zwkaz9sLi8vjCFKr6wgIQ+cI8iPjCBpT4wvR1+MLQI/rC&#xD;&#xa;Ihn8wlQg+sIcLvjCVCz2wsI49MJQ9fbC23H3woy69sL4BfnCIOb2wjwy9cIuGvnCdmb3wj7K9MI+&#xD;&#xa;KPXCJpr2wn7C9cKQDvnCthv7woaP+cLGaPbCTr32wrpN+cIFSPjCDvX4wtD39sJY//TCKGf3wvZI&#xD;&#xa;+cK9YvfCgYf3wjIf+sLMMvfCpjz2wuA6+cII8vbCxDv1wmJG9sLka/rCPrT1wi589cLqjfbC9qP4&#xD;&#xa;wgzJ+MLelPbCGir2wlBC9sKeU/jC/nn3wsYn9sL4QPjCXBj5wopQ+MIaJvnCSB36wgjc+MIMfPfC&#xD;&#xa;W+z1wmYG+MKuxPnCCuD1wjh+9sLDrPfCOPj3wm7h+MJjMvfCxH/2wsXf98KwN/nCKOn5wrLR+sKg&#xD;&#xa;bPvCkFv5wsAu+cL2hffCySz2wmRX+MKiiPjCzFX4wvjB98Jgz/fCxPT4wobP+cL8avjC9r34wnKx&#xD;&#xa;+MK+LPnC3H34wle39cKejfbCNKP2wg5B9sK0H/rCSvz2woqE98JAqfjCBPL4wmKi+MIu2/jCMFD5&#xD;&#xa;wiCM+cKo//nCGqz7wlZN+sKUDfjC0ov4wrIU+sIVpffCP2/3woye98KktPbCTJj2wpH29cL3mvbC&#xD;&#xa;jL/4wti/+MLm3vjCQ9QEwzOmYsI/y13CPNeLwsehjcK+No/Cm+aOwlHvjcIja5HCun6XwoKemMJy&#xD;&#xa;lpPCuQeRwhgMlcJGdZvCTjScwgFMncIGh5zCGrOawuO0nMJdJZ3Cybudwo6toMIdraPCs/6jwpY0&#xD;&#xa;psLIUqjCWQmpwonmp8KcE6XCgXGlwqC+psIFHabCBoyownWvqcIkX6jCgnCpwms3qsIW0KfCM7Oj&#xD;&#xa;wnGLosJgcKnCdk6swiIgscKFrbDCtNmowrZmpcIHYqjCCg2pwqUNq8KgHq7ChEGxwhVFs8KU6LLC&#xD;&#xa;dvWzwpVHscI6NrDCMpGwwubcs8Imh7bCPKq6wj7tvMKSbr3ClsG+wq4qwMLXQr7CpAK5whxiuMJp&#xD;&#xa;v7nCwu29wloQvsIXTL3CzjDAwsDTwcL69sHC8urAwtAFwMIkSMLCpJHDwjLOw8JG8sTCmMvDwq7H&#xD;&#xa;wsLOncPC+CDDwkh6wsLU5sPCP23Fwm5Qx8KlYsTCm0XCwnhexcLsTsPCSMPDwjvJw8LMWcHC2XHD&#xD;&#xa;wjj5wsICs8TChWvEwgCywcKDdcHCFnHCwurMxMLlVsTCfrDGwmzqyMKoGsfC7ITIwtqRyMJwzcbC&#xD;&#xa;ppbEwiv5xcIXxsTCzDfCwtSExMKEjcTC8ObDwiJ9yMIQm8vCIkDGwqHyxcIyYcbCyAXIwmyBx8I4&#xD;&#xa;n8PCvyPGwuiKxMJggMfCdL3JwsMhysLi6sXCRa7Ewoykx8Jk/MXC0NfEwtK0xcJQTMTCvvvGwtqJ&#xD;&#xa;xMKmFsTCSbfGwq76x8IQ+sjCsqnIwkJdycIaT8fC0nbHwlf2xsLg/cbCtIHHwsTvxsI0KsbCsqDH&#xD;&#xa;wgLix8JGKcXCyNTDwjDwwsIb98bC6MjJwg6Zy8Kg+cvCaC3HwtIgw8KW7sXC3EHGwmcUxcL++8fC&#xD;&#xa;CWbIwsDoxsJFz8PCJkXFwiD7xcIQDsfC8ljIwrDLxMKkeMLClpHEwiqgyMJcjcjC6krGwl50w8Iy&#xD;&#xa;7sXCWv3HwkQ1xsKUwMPC2K/EwootxMJUqMTCH3LDwuojxcKil8fCjmXIwkLJxcID78TClTvGwhel&#xD;&#xa;xsIca8bC1rbCwk6+wsIQfsfCIlPHwpJExcLWhMbCDNvEwuryxMKklMXCeBDDwolhwcIiasLCQYfE&#xD;&#xa;whUfwsJx4MTCsEnIwkX0xcK+3sbCIqLHwrARx8IWtMTCGAnFwomNxMLfbcTCQIPDwjqww8L+MMTC&#xD;&#xa;mqjHwrBaxMI6YsTCxmvIwqyKycKQaMXCnx7FwkYvx8In6sjCGMzIwuvAxcL8a8XCiBjJwkvwyMKI&#xD;&#xa;qMbCTCTIwvQSy8IxEsvCVT/JwrI3w8LA8sLCCD7EwsxXxMJSjsXCfjXFwqTKxMI/gsPCDozDwtwF&#xD;&#xa;xMISn8bChHvJwlFQyMJYCsbCP4jIwtkBycLiFsrCbCrKwvyTysIWncnC+A3HwuI5x8I8/MbC0hHI&#xD;&#xa;wopJzMLmb83CFkvMwpy/y8Kn7MrCfJrJwuLDyMJKn8bCStTGwpb7ycIMo8nCcivFwsapxcJkx8bC&#xD;&#xa;ALLIwriaycJM3cfC8r/KwlSoy8I4A8vCpFHJwkRrzMIKr87CWD7MwsiJycKW9cfCUjbKwq+YycLi&#xD;&#xa;U8jCROHHwhdWycKaU8nCF7jMwmKaz8L//8zC8tjOwjxezsIUysvCzHLJwiJryMLRm8bCgLjKwsi8&#xD;&#xa;ysIhfszCPETLwqtbyMJGeMfCpRPJwnwZzMJSIs3CqhPMwmDiyMLZYsjCz13KwgwKy8LCi8jCyrTM&#xD;&#xa;wgwxzMK4ZcvC087JwkV2xsLyXsnCjIbLwhwvzcLfrM7CeITKwla3ysLK3cnC/PHFwpScxcIUQ8nC&#xD;&#xa;NJzIwrEsxsJvZcfCXSvIwlKLx8JII8nCvgzKwpnhysJSC8vC9iTKwiA/y8IadczCuDrMwuVaysLO&#xD;&#xa;r8vCXtfJwrZ6ycItucnCtonJwjyTysJkC83CL0nMwkjdyMIBucfCixrLwvSDysKGX8nCsCzMwuas&#xD;&#xa;0cIsnNPCuEvOwtr5y8LMBc7Cr+PTwsQc5MLcOfPCKOj0wjr59cJ0C/fCzg75wkwh+8LmVPnCqz72&#xD;&#xa;wnB+9cLuJvrCtEL4wkp7+MLOfffCDN3zwkaz9sLi8vjCFKr6wgIQ+cI8iPjCBpT4wvR1+MLQI/rC&#xD;&#xa;Ihn8wlQg+sIcLvjCVCz2wsI49MJQ9fbC23H3woy69sL4BfnCIOb2wjwy9cIuGvnCdmb3wj7K9MI+&#xD;&#xa;KPXCJpr2wn7C9cKQDvnCthv7woaP+cLGaPbCTr32wrpN+cIFSPjCDvX4wtD39sJY//TCKGf3wvZI&#xD;&#xa;+cK9YvfCgYf3wjIf+sLMMvfCpjz2wuA6+cII8vbCxDv1wmJG9sLka/rCPrT1wi589cLqjfbC9qP4&#xD;&#xa;wgzJ+MLelPbCGir2wlBC9sKeU/jC/nn3wsYn9sL4QPjCXBj5wopQ+MIaJvnCSB36wgjc+MIMfPfC&#xD;&#xa;W+z1wmYG+MKuxPnCCuD1wjh+9sLDrPfCOPj3wm7h+MJjMvfCxH/2wsXf98KwN/nCKOn5wrLR+sKg&#xD;&#xa;bPvCkFv5wsAu+cL2hffCySz2wmRX+MKiiPjCzFX4wvjB98Jgz/fCxPT4wobP+cL8avjC9r34wnKx&#xD;&#xa;+MK+LPnC3H34wle39cKejfbCNKP2wg5B9sK0H/rCSvz2woqE98JAqfjCBPL4wmKi+MIu2/jCMFD5&#xD;&#xa;wiCM+cKo//nCGqz7wlZN+sKUDfjC0ov4wrIU+sIVpffCP2/3woye98KktPbCTJj2wpH29cL3mvbC&#xD;&#xa;jL/4wti/+MLm3vjCQ9QE" leadInLength="0/1"  />
            </Keyframes>
           </Parameter>
           </Parameters>
          </GenericEffect>
          <GenericEffect id="5746" name = "WinCompression" >
           <Parameters>
           <InterpolatingParam id="5747" interp="linr"  time="0/1" value="0" leadInLength="0/1"   name="attack"/>
           <InterpolatingParam id="5748" interp="linr"  time="0/1" value="9" leadInLength="0/1"   name="gain"/>
           <Parameter id="5749"   name="preset">
            <Keyframes>
            <Keyframe id="5750"  time="0/1" value="1" leadInLength="0/1"  />
            </Keyframes>
           </Parameter>
           <InterpolatingParam id="5751" interp="linr"  time="0/1" value="10" leadInLength="0/1"   name="ratio"/>
           <InterpolatingParam id="5752" interp="linr"  time="0/1" value="3500" leadInLength="0/1"   name="release"/>
           <InterpolatingParam id="5753" interp="linr"  time="0/1" value="-20" leadInLength="0/1"   name="threshold"/>
           </Parameters>
          </GenericEffect>
          <GenericEffect id="5754" name = "Declipper" >
           <Parameters>
           <InterpolatingParam id="5755" interp="linr"  time="0/1" value="-1" leadInLength="0/1"   name="sensitivity"/>
           </Parameters>
          </GenericEffect>
          <GenericEffect id="5756" name = "Declicker" >
           <Parameters>
           <InterpolatingParam id="5757" interp="linr"  time="0/1" value="3" leadInLength="0/1"   name="sensitivity"/>
           </Parameters>
          </GenericEffect>
         </Effects>
         <Attributes>
          <Attribute id="5758" value="" name="ident"/>
          <Attribute id="5759" value="0" name="mixToMono"/>
         </Attributes>
         <MetaData>
          <entry key="WinSubProjectDisplayName" val=""/>
         </MetaData>
         <ExtraData>
          <Entry key="ZoomPanBin">
           <ZoomPanBin id="5760"  >
            <ZoomPanKeyframes>
            </ZoomPanKeyframes>
           </ZoomPanBin>
          </Entry>
          <Entry key="CursorEffectBin">
           <CursorEffectBin id="5761"  >
            <CursorEffectKeyframes>
            </CursorEffectKeyframes>
           </CursorEffectBin>
          </Entry>
         </ExtraData>
         <GenericTrack id="5762"  >
          <Attributes>
           <Attribute id="5763" value="" name="ident"/>
           <Attribute id="5764" value="0" name="audioMuted"/>
           <Attribute id="5765" value="0" name="videoHidden"/>
          </Attributes>
          <MetaData>
           <entry key="IsLocked" val="False"/>
           <entry key="WinTrackHeight" val="0"/>
          </MetaData>
          <Medias>
           <AMFile id="5766" start="0" duration="4896" scalar="1/1" mediaStart="0/1" mediaDuration="4896/1" trackNumber="0" src="22" channelNumber="0" >
            <Parameters>
             <InterpolatingParam id="5767" interp="linr"  time="0/1" value="1" leadInLength="0/1"  name="volume"/>
             <Parameter id="5768"  name="captions"/>
            </Parameters>
            <Attributes>
             <Attribute id="5769" value="" name="ident"/>
             <Attribute id="5770" value="44100" name="sampleRate"/>
             <Attribute id="5771" value="16" name="bitDepth"/>
             <Attribute id="5772" value="1" name="gain"/>
             <Attribute id="5773" value="0" name="mixToMono"/>
            </Attributes>
            <MetaData>
             <entry key="WinSubProjectDisplayName" val=""/>
            </MetaData>
           </AMFile>
           <AMFile id="5774" start="4896" duration="411" scalar="1/1" mediaStart="4989/1" mediaDuration="411/1" trackNumber="0" src="22" channelNumber="0" >
            <Parameters>
             <InterpolatingParam id="5775" interp="linr"  time="0/1" value="1" leadInLength="0/1"  name="volume"/>
             <Parameter id="5776"  name="captions"/>
            </Parameters>
            <Attributes>
             <Attribute id="5777" value="" name="ident"/>
             <Attribute id="5778" value="44100" name="sampleRate"/>
             <Attribute id="5779" value="16" name="bitDepth"/>
             <Attribute id="5780" value="1" name="gain"/>
             <Attribute id="5781" value="0" name="mixToMono"/>
            </Attributes>
            <MetaData>
             <entry key="WinSubProjectDisplayName" val=""/>
            </MetaData>
           </AMFile>
           <AMFile id="5782" start="5307" duration="1270" scalar="1/1" mediaStart="5956/1" mediaDuration="1270/1" trackNumber="0" src="22" channelNumber="0" >
            <Parameters>
             <InterpolatingParam id="5783" interp="linr"  time="0/1" value="1" leadInLength="0/1"  name="volume"/>
             <Parameter id="5784"  name="captions"/>
            </Parameters>
            <Attributes>
             <Attribute id="5785" value="" name="ident"/>
             <Attribute id="5786" value="44100" name="sampleRate"/>
             <Attribute id="5787" value="16" name="bitDepth"/>
             <Attribute id="5788" value="1" name="gain"/>
             <Attribute id="5789" value="0" name="mixToMono"/>
            </Attributes>
            <MetaData>
             <entry key="WinSubProjectDisplayName" val=""/>
            </MetaData>
           </AMFile>
           <AMFile id="5790" start="6577" duration="7114" scalar="1/1" mediaStart="7454/1" mediaDuration="7114/1" trackNumber="0" src="22" channelNumber="0" >
            <Parameters>
             <InterpolatingParam id="5791" interp="linr"  time="0/1" value="1" leadInLength="0/1"  name="volume"/>
             <Parameter id="5792"  name="captions"/>
            </Parameters>
            <Attributes>
             <Attribute id="5793" value="" name="ident"/>
             <Attribute id="5794" value="44100" name="sampleRate"/>
             <Attribute id="5795" value="16" name="bitDepth"/>
             <Attribute id="5796" value="1" name="gain"/>
             <Attribute id="5797" value="0" name="mixToMono"/>
            </Attributes>
            <MetaData>
             <entry key="WinSubProjectDisplayName" val=""/>
            </MetaData>
           </AMFile>
          </Medias>
         </GenericTrack>
        </StitchedMedia>
        <StitchedMedia id="5798" start="4905" duration="932" scalar="1/1" mediaStart="6327/1" mediaDuration="932/1" minMediaStart="0/1" >
         <Transformer>
          <VectorParam id="5799"  name="translation">
           <InterpolatingParam id="5800" interp="linr"  time="0/1" value="0" leadInLength="0/1"  />
           <InterpolatingParam id="5801" interp="linr"  time="0/1" value="0" leadInLength="0/1"  />
           <InterpolatingParam id="5802" interp="linr"  time="0/1" value="0" leadInLength="0/1"  />
          </VectorParam>
          <VectorParam id="5803"  name="rotation">
           <InterpolatingParam id="5804" interp="linr"  time="0/1" value="0" leadInLength="0/1"  />
           <InterpolatingParam id="5805" interp="linr"  time="0/1" value="0" leadInLength="0/1"  />
           <InterpolatingParam id="5806" interp="linr"  time="0/1" value="0" leadInLength="0/1"  />
          </VectorParam>
          <VectorParam id="5807"  name="shear">
           <InterpolatingParam id="5808" interp="linr"  time="0/1" value="0" leadInLength="0/1"  />
           <InterpolatingParam id="5809" interp="linr"  time="0/1" value="0" leadInLength="0/1"  />
           <InterpolatingParam id="5810" interp="linr"  time="0/1" value="0" leadInLength="0/1"  />
          </VectorParam>
          <VectorParam id="5811"  name="scale">
           <InterpolatingParam id="5812" interp="linr"  time="0/1" value="1" leadInLength="0/1"  />
           <InterpolatingParam id="5813" interp="linr"  time="0/1" value="1" leadInLength="0/1"  />
           <InterpolatingParam id="5814" interp="linr"  time="0/1" value="1" leadInLength="0/1"  />
          </VectorParam>
          <VectorParam id="5815"  name="anchor">
           <InterpolatingParam id="5816" interp="linr"  time="0/1" value="0" leadInLength="0/1"  />
           <InterpolatingParam id="5817" interp="linr"  time="0/1" value="0" leadInLength="0/1"  />
           <InterpolatingParam id="5818" interp="linr"  time="0/1" value="0" leadInLength="0/1"  />
          </VectorParam>
         </Transformer>
         <Parameters>
          <InterpolatingParam id="5819" interp="linr"  time="0/1" value="1" leadInLength="0/1"  name="cursorOpacity"/>
          <InterpolatingParam id="5820" interp="linr"  time="0/1" value="1" leadInLength="0/1"  name="cursorScale"/>
          <InterpolatingParam id="5821" interp="linr"  name="volume">
           <Keyframes>
           <Keyframe id="5822"  time="0/1" value="1" leadInLength="0/1"  />
           <Keyframe id="5823"  time="3301/1" value="1" leadInLength="0/1"  />
           <Keyframe id="5824"  time="3302/1" value="1.1290322580645162" leadInLength="0/1"  />
           <Keyframe id="5825"  time="13691/1" value="1.1290322580645162" leadInLength="0/1"  />
           <Keyframe id="5826"  time="13692/1" value="1" leadInLength="0/1"  />
           </Keyframes>
          </InterpolatingParam>
          <Parameter id="5827"  name="captions"/>
         </Parameters>
         <Effects>
          <GenericEffect id="5828" name = "NoiseReduction" >
           <Parameters>
           <InterpolatingParam id="5829" interp="linr"  time="0/1" value="20" leadInLength="0/1"   name="denoiserAmount"/>
           <InterpolatingParam id="5830" interp="linr"  time="0/1" value="0" leadInLength="0/1"   name="denoiserThreshold"/>
           <Parameter id="5831"   name="noiseProfile">
            <Keyframes>
            <Keyframe id="5832"  time="0/1" value="FBAAAAIAAABErAAAAQIAADOmYsI/y13CPNeLwsehjcK+No/Cm+aOwlHvjcIja5HCun6XwoKemMJy&#xD;&#xa;lpPCuQeRwhgMlcJGdZvCTjScwgFMncIGh5zCGrOawuO0nMJdJZ3Cybudwo6toMIdraPCs/6jwpY0&#xD;&#xa;psLIUqjCWQmpwonmp8KcE6XCgXGlwqC+psIFHabCBoyownWvqcIkX6jCgnCpwms3qsIW0KfCM7Oj&#xD;&#xa;wnGLosJgcKnCdk6swiIgscKFrbDCtNmowrZmpcIHYqjCCg2pwqUNq8KgHq7ChEGxwhVFs8KU6LLC&#xD;&#xa;dvWzwpVHscI6NrDCMpGwwubcs8Imh7bCPKq6wj7tvMKSbr3ClsG+wq4qwMLXQr7CpAK5whxiuMJp&#xD;&#xa;v7nCwu29wloQvsIXTL3CzjDAwsDTwcL69sHC8urAwtAFwMIkSMLCpJHDwjLOw8JG8sTCmMvDwq7H&#xD;&#xa;wsLOncPC+CDDwkh6wsLU5sPCP23Fwm5Qx8KlYsTCm0XCwnhexcLsTsPCSMPDwjvJw8LMWcHC2XHD&#xD;&#xa;wjj5wsICs8TChWvEwgCywcKDdcHCFnHCwurMxMLlVsTCfrDGwmzqyMKoGsfC7ITIwtqRyMJwzcbC&#xD;&#xa;ppbEwiv5xcIXxsTCzDfCwtSExMKEjcTC8ObDwiJ9yMIQm8vCIkDGwqHyxcIyYcbCyAXIwmyBx8I4&#xD;&#xa;n8PCvyPGwuiKxMJggMfCdL3JwsMhysLi6sXCRa7Ewoykx8Jk/MXC0NfEwtK0xcJQTMTCvvvGwtqJ&#xD;&#xa;xMKmFsTCSbfGwq76x8IQ+sjCsqnIwkJdycIaT8fC0nbHwlf2xsLg/cbCtIHHwsTvxsI0KsbCsqDH&#xD;&#xa;wgLix8JGKcXCyNTDwjDwwsIb98bC6MjJwg6Zy8Kg+cvCaC3HwtIgw8KW7sXC3EHGwmcUxcL++8fC&#xD;&#xa;CWbIwsDoxsJFz8PCJkXFwiD7xcIQDsfC8ljIwrDLxMKkeMLClpHEwiqgyMJcjcjC6krGwl50w8Iy&#xD;&#xa;7sXCWv3HwkQ1xsKUwMPC2K/EwootxMJUqMTCH3LDwuojxcKil8fCjmXIwkLJxcID78TClTvGwhel&#xD;&#xa;xsIca8bC1rbCwk6+wsIQfsfCIlPHwpJExcLWhMbCDNvEwuryxMKklMXCeBDDwolhwcIiasLCQYfE&#xD;&#xa;whUfwsJx4MTCsEnIwkX0xcK+3sbCIqLHwrARx8IWtMTCGAnFwomNxMLfbcTCQIPDwjqww8L+MMTC&#xD;&#xa;mqjHwrBaxMI6YsTCxmvIwqyKycKQaMXCnx7FwkYvx8In6sjCGMzIwuvAxcL8a8XCiBjJwkvwyMKI&#xD;&#xa;qMbCTCTIwvQSy8IxEsvCVT/JwrI3w8LA8sLCCD7EwsxXxMJSjsXCfjXFwqTKxMI/gsPCDozDwtwF&#xD;&#xa;xMISn8bChHvJwlFQyMJYCsbCP4jIwtkBycLiFsrCbCrKwvyTysIWncnC+A3HwuI5x8I8/MbC0hHI&#xD;&#xa;wopJzMLmb83CFkvMwpy/y8Kn7MrCfJrJwuLDyMJKn8bCStTGwpb7ycIMo8nCcivFwsapxcJkx8bC&#xD;&#xa;ALLIwriaycJM3cfC8r/KwlSoy8I4A8vCpFHJwkRrzMIKr87CWD7MwsiJycKW9cfCUjbKwq+YycLi&#xD;&#xa;U8jCROHHwhdWycKaU8nCF7jMwmKaz8L//8zC8tjOwjxezsIUysvCzHLJwiJryMLRm8bCgLjKwsi8&#xD;&#xa;ysIhfszCPETLwqtbyMJGeMfCpRPJwnwZzMJSIs3CqhPMwmDiyMLZYsjCz13KwgwKy8LCi8jCyrTM&#xD;&#xa;wgwxzMK4ZcvC087JwkV2xsLyXsnCjIbLwhwvzcLfrM7CeITKwla3ysLK3cnC/PHFwpScxcIUQ8nC&#xD;&#xa;NJzIwrEsxsJvZcfCXSvIwlKLx8JII8nCvgzKwpnhysJSC8vC9iTKwiA/y8IadczCuDrMwuVaysLO&#xD;&#xa;r8vCXtfJwrZ6ycItucnCtonJwjyTysJkC83CL0nMwkjdyMIBucfCixrLwvSDysKGX8nCsCzMwuas&#xD;&#xa;0cIsnNPCuEvOwtr5y8LMBc7Cr+PTwsQc5MLcOfPCKOj0wjr59cJ0C/fCzg75wkwh+8LmVPnCqz72&#xD;&#xa;wnB+9cLuJvrCtEL4wkp7+MLOfffCDN3zwkaz9sLi8vjCFKr6wgIQ+cI8iPjCBpT4wvR1+MLQI/rC&#xD;&#xa;Ihn8wlQg+sIcLvjCVCz2wsI49MJQ9fbC23H3woy69sL4BfnCIOb2wjwy9cIuGvnCdmb3wj7K9MI+&#xD;&#xa;KPXCJpr2wn7C9cKQDvnCthv7woaP+cLGaPbCTr32wrpN+cIFSPjCDvX4wtD39sJY//TCKGf3wvZI&#xD;&#xa;+cK9YvfCgYf3wjIf+sLMMvfCpjz2wuA6+cII8vbCxDv1wmJG9sLka/rCPrT1wi589cLqjfbC9qP4&#xD;&#xa;wgzJ+MLelPbCGir2wlBC9sKeU/jC/nn3wsYn9sL4QPjCXBj5wopQ+MIaJvnCSB36wgjc+MIMfPfC&#xD;&#xa;W+z1wmYG+MKuxPnCCuD1wjh+9sLDrPfCOPj3wm7h+MJjMvfCxH/2wsXf98KwN/nCKOn5wrLR+sKg&#xD;&#xa;bPvCkFv5wsAu+cL2hffCySz2wmRX+MKiiPjCzFX4wvjB98Jgz/fCxPT4wobP+cL8avjC9r34wnKx&#xD;&#xa;+MK+LPnC3H34wle39cKejfbCNKP2wg5B9sK0H/rCSvz2woqE98JAqfjCBPL4wmKi+MIu2/jCMFD5&#xD;&#xa;wiCM+cKo//nCGqz7wlZN+sKUDfjC0ov4wrIU+sIVpffCP2/3woye98KktPbCTJj2wpH29cL3mvbC&#xD;&#xa;jL/4wti/+MLm3vjCQ9QEwzOmYsI/y13CPNeLwsehjcK+No/Cm+aOwlHvjcIja5HCun6XwoKemMJy&#xD;&#xa;lpPCuQeRwhgMlcJGdZvCTjScwgFMncIGh5zCGrOawuO0nMJdJZ3Cybudwo6toMIdraPCs/6jwpY0&#xD;&#xa;psLIUqjCWQmpwonmp8KcE6XCgXGlwqC+psIFHabCBoyownWvqcIkX6jCgnCpwms3qsIW0KfCM7Oj&#xD;&#xa;wnGLosJgcKnCdk6swiIgscKFrbDCtNmowrZmpcIHYqjCCg2pwqUNq8KgHq7ChEGxwhVFs8KU6LLC&#xD;&#xa;dvWzwpVHscI6NrDCMpGwwubcs8Imh7bCPKq6wj7tvMKSbr3ClsG+wq4qwMLXQr7CpAK5whxiuMJp&#xD;&#xa;v7nCwu29wloQvsIXTL3CzjDAwsDTwcL69sHC8urAwtAFwMIkSMLCpJHDwjLOw8JG8sTCmMvDwq7H&#xD;&#xa;wsLOncPC+CDDwkh6wsLU5sPCP23Fwm5Qx8KlYsTCm0XCwnhexcLsTsPCSMPDwjvJw8LMWcHC2XHD&#xD;&#xa;wjj5wsICs8TChWvEwgCywcKDdcHCFnHCwurMxMLlVsTCfrDGwmzqyMKoGsfC7ITIwtqRyMJwzcbC&#xD;&#xa;ppbEwiv5xcIXxsTCzDfCwtSExMKEjcTC8ObDwiJ9yMIQm8vCIkDGwqHyxcIyYcbCyAXIwmyBx8I4&#xD;&#xa;n8PCvyPGwuiKxMJggMfCdL3JwsMhysLi6sXCRa7Ewoykx8Jk/MXC0NfEwtK0xcJQTMTCvvvGwtqJ&#xD;&#xa;xMKmFsTCSbfGwq76x8IQ+sjCsqnIwkJdycIaT8fC0nbHwlf2xsLg/cbCtIHHwsTvxsI0KsbCsqDH&#xD;&#xa;wgLix8JGKcXCyNTDwjDwwsIb98bC6MjJwg6Zy8Kg+cvCaC3HwtIgw8KW7sXC3EHGwmcUxcL++8fC&#xD;&#xa;CWbIwsDoxsJFz8PCJkXFwiD7xcIQDsfC8ljIwrDLxMKkeMLClpHEwiqgyMJcjcjC6krGwl50w8Iy&#xD;&#xa;7sXCWv3HwkQ1xsKUwMPC2K/EwootxMJUqMTCH3LDwuojxcKil8fCjmXIwkLJxcID78TClTvGwhel&#xD;&#xa;xsIca8bC1rbCwk6+wsIQfsfCIlPHwpJExcLWhMbCDNvEwuryxMKklMXCeBDDwolhwcIiasLCQYfE&#xD;&#xa;whUfwsJx4MTCsEnIwkX0xcK+3sbCIqLHwrARx8IWtMTCGAnFwomNxMLfbcTCQIPDwjqww8L+MMTC&#xD;&#xa;mqjHwrBaxMI6YsTCxmvIwqyKycKQaMXCnx7FwkYvx8In6sjCGMzIwuvAxcL8a8XCiBjJwkvwyMKI&#xD;&#xa;qMbCTCTIwvQSy8IxEsvCVT/JwrI3w8LA8sLCCD7EwsxXxMJSjsXCfjXFwqTKxMI/gsPCDozDwtwF&#xD;&#xa;xMISn8bChHvJwlFQyMJYCsbCP4jIwtkBycLiFsrCbCrKwvyTysIWncnC+A3HwuI5x8I8/MbC0hHI&#xD;&#xa;wopJzMLmb83CFkvMwpy/y8Kn7MrCfJrJwuLDyMJKn8bCStTGwpb7ycIMo8nCcivFwsapxcJkx8bC&#xD;&#xa;ALLIwriaycJM3cfC8r/KwlSoy8I4A8vCpFHJwkRrzMIKr87CWD7MwsiJycKW9cfCUjbKwq+YycLi&#xD;&#xa;U8jCROHHwhdWycKaU8nCF7jMwmKaz8L//8zC8tjOwjxezsIUysvCzHLJwiJryMLRm8bCgLjKwsi8&#xD;&#xa;ysIhfszCPETLwqtbyMJGeMfCpRPJwnwZzMJSIs3CqhPMwmDiyMLZYsjCz13KwgwKy8LCi8jCyrTM&#xD;&#xa;wgwxzMK4ZcvC087JwkV2xsLyXsnCjIbLwhwvzcLfrM7CeITKwla3ysLK3cnC/PHFwpScxcIUQ8nC&#xD;&#xa;NJzIwrEsxsJvZcfCXSvIwlKLx8JII8nCvgzKwpnhysJSC8vC9iTKwiA/y8IadczCuDrMwuVaysLO&#xD;&#xa;r8vCXtfJwrZ6ycItucnCtonJwjyTysJkC83CL0nMwkjdyMIBucfCixrLwvSDysKGX8nCsCzMwuas&#xD;&#xa;0cIsnNPCuEvOwtr5y8LMBc7Cr+PTwsQc5MLcOfPCKOj0wjr59cJ0C/fCzg75wkwh+8LmVPnCqz72&#xD;&#xa;wnB+9cLuJvrCtEL4wkp7+MLOfffCDN3zwkaz9sLi8vjCFKr6wgIQ+cI8iPjCBpT4wvR1+MLQI/rC&#xD;&#xa;Ihn8wlQg+sIcLvjCVCz2wsI49MJQ9fbC23H3woy69sL4BfnCIOb2wjwy9cIuGvnCdmb3wj7K9MI+&#xD;&#xa;KPXCJpr2wn7C9cKQDvnCthv7woaP+cLGaPbCTr32wrpN+cIFSPjCDvX4wtD39sJY//TCKGf3wvZI&#xD;&#xa;+cK9YvfCgYf3wjIf+sLMMvfCpjz2wuA6+cII8vbCxDv1wmJG9sLka/rCPrT1wi589cLqjfbC9qP4&#xD;&#xa;wgzJ+MLelPbCGir2wlBC9sKeU/jC/nn3wsYn9sL4QPjCXBj5wopQ+MIaJvnCSB36wgjc+MIMfPfC&#xD;&#xa;W+z1wmYG+MKuxPnCCuD1wjh+9sLDrPfCOPj3wm7h+MJjMvfCxH/2wsXf98KwN/nCKOn5wrLR+sKg&#xD;&#xa;bPvCkFv5wsAu+cL2hffCySz2wmRX+MKiiPjCzFX4wvjB98Jgz/fCxPT4wobP+cL8avjC9r34wnKx&#xD;&#xa;+MK+LPnC3H34wle39cKejfbCNKP2wg5B9sK0H/rCSvz2woqE98JAqfjCBPL4wmKi+MIu2/jCMFD5&#xD;&#xa;wiCM+cKo//nCGqz7wlZN+sKUDfjC0ov4wrIU+sIVpffCP2/3woye98KktPbCTJj2wpH29cL3mvbC&#xD;&#xa;jL/4wti/+MLm3vjCQ9QE" leadInLength="0/1"  />
            </Keyframes>
           </Parameter>
           </Parameters>
          </GenericEffect>
          <GenericEffect id="5833" name = "WinCompression" >
           <Parameters>
           <InterpolatingParam id="5834" interp="linr"  time="0/1" value="0" leadInLength="0/1"   name="attack"/>
           <InterpolatingParam id="5835" interp="linr"  time="0/1" value="9" leadInLength="0/1"   name="gain"/>
           <Parameter id="5836"   name="preset">
            <Keyframes>
            <Keyframe id="5837"  time="0/1" value="1" leadInLength="0/1"  />
            </Keyframes>
           </Parameter>
           <InterpolatingParam id="5838" interp="linr"  time="0/1" value="10" leadInLength="0/1"   name="ratio"/>
           <InterpolatingParam id="5839" interp="linr"  time="0/1" value="3500" leadInLength="0/1"   name="release"/>
           <InterpolatingParam id="5840" interp="linr"  time="0/1" value="-20" leadInLength="0/1"   name="threshold"/>
           </Parameters>
          </GenericEffect>
          <GenericEffect id="5841" name = "Declipper" >
           <Parameters>
           <InterpolatingParam id="5842" interp="linr"  time="0/1" value="-1" leadInLength="0/1"   name="sensitivity"/>
           </Parameters>
          </GenericEffect>
          <GenericEffect id="5843" name = "Declicker" >
           <Parameters>
           <InterpolatingParam id="5844" interp="linr"  time="0/1" value="3" leadInLength="0/1"   name="sensitivity"/>
           </Parameters>
          </GenericEffect>
         </Effects>
         <Attributes>
          <Attribute id="5845" value="" name="ident"/>
          <Attribute id="5846" value="0" name="mixToMono"/>
         </Attributes>
         <MetaData>
          <entry key="WinSubProjectDisplayName" val=""/>
         </MetaData>
         <ExtraData>
          <Entry key="ZoomPanBin">
           <ZoomPanBin id="5847"  >
            <ZoomPanKeyframes>
            </ZoomPanKeyframes>
           </ZoomPanBin>
          </Entry>
          <Entry key="CursorEffectBin">
           <CursorEffectBin id="5848"  >
            <CursorEffectKeyframes>
            </CursorEffectKeyframes>
           </CursorEffectBin>
          </Entry>
         </ExtraData>
         <GenericTrack id="5849"  >
          <Attributes>
           <Attribute id="5850" value="" name="ident"/>
           <Attribute id="5851" value="0" name="audioMuted"/>
           <Attribute id="5852" value="0" name="videoHidden"/>
          </Attributes>
          <MetaData>
           <entry key="IsLocked" val="False"/>
           <entry key="WinTrackHeight" val="0"/>
          </MetaData>
          <Medias>
           <AMFile id="5853" start="0" duration="4896" scalar="1/1" mediaStart="0/1" mediaDuration="4896/1" trackNumber="0" src="22" channelNumber="0" >
            <Parameters>
             <InterpolatingParam id="5854" interp="linr"  time="0/1" value="1" leadInLength="0/1"  name="volume"/>
             <Parameter id="5855"  name="captions"/>
            </Parameters>
            <Attributes>
             <Attribute id="5856" value="" name="ident"/>
             <Attribute id="5857" value="44100" name="sampleRate"/>
             <Attribute id="5858" value="16" name="bitDepth"/>
             <Attribute id="5859" value="1" name="gain"/>
             <Attribute id="5860" value="0" name="mixToMono"/>
            </Attributes>
            <MetaData>
             <entry key="WinSubProjectDisplayName" val=""/>
            </MetaData>
           </AMFile>
           <AMFile id="5861" start="4896" duration="411" scalar="1/1" mediaStart="4989/1" mediaDuration="411/1" trackNumber="0" src="22" channelNumber="0" >
            <Parameters>
             <InterpolatingParam id="5862" interp="linr"  time="0/1" value="1" leadInLength="0/1"  name="volume"/>
             <Parameter id="5863"  name="captions"/>
            </Parameters>
            <Attributes>
             <Attribute id="5864" value="" name="ident"/>
             <Attribute id="5865" value="44100" name="sampleRate"/>
             <Attribute id="5866" value="16" name="bitDepth"/>
             <Attribute id="5867" value="1" name="gain"/>
             <Attribute id="5868" value="0" name="mixToMono"/>
            </Attributes>
            <MetaData>
             <entry key="WinSubProjectDisplayName" val=""/>
            </MetaData>
           </AMFile>
           <AMFile id="5869" start="5307" duration="1270" scalar="1/1" mediaStart="5956/1" mediaDuration="1270/1" trackNumber="0" src="22" channelNumber="0" >
            <Parameters>
             <InterpolatingParam id="5870" interp="linr"  time="0/1" value="1" leadInLength="0/1"  name="volume"/>
             <Parameter id="5871"  name="captions"/>
            </Parameters>
            <Attributes>
             <Attribute id="5872" value="" name="ident"/>
             <Attribute id="5873" value="44100" name="sampleRate"/>
             <Attribute id="5874" value="16" name="bitDepth"/>
             <Attribute id="5875" value="1" name="gain"/>
             <Attribute id="5876" value="0" name="mixToMono"/>
            </Attributes>
            <MetaData>
             <entry key="WinSubProjectDisplayName" val=""/>
            </MetaData>
           </AMFile>
           <AMFile id="5877" start="6577" duration="7114" scalar="1/1" mediaStart="7454/1" mediaDuration="7114/1" trackNumber="0" src="22" channelNumber="0" >
            <Parameters>
             <InterpolatingParam id="5878" interp="linr"  time="0/1" value="1" leadInLength="0/1"  name="volume"/>
             <Parameter id="5879"  name="captions"/>
            </Parameters>
            <Attributes>
             <Attribute id="5880" value="" name="ident"/>
             <Attribute id="5881" value="44100" name="sampleRate"/>
             <Attribute id="5882" value="16" name="bitDepth"/>
             <Attribute id="5883" value="1" name="gain"/>
             <Attribute id="5884" value="0" name="mixToMono"/>
            </Attributes>
            <MetaData>
             <entry key="WinSubProjectDisplayName" val=""/>
            </MetaData>
           </AMFile>
          </Medias>
         </GenericTrack>
        </StitchedMedia>
        <AMFile id="5885" start="5855" duration="142" scalar="1/1" mediaStart="8136/1" mediaDuration="142/1" trackNumber="0" src="22" channelNumber="0" >
         <Parameters>
          <InterpolatingParam id="5886" interp="linr"  name="volume">
           <Keyframes>
           <Keyframe id="5887"  time="0/1" value="1" leadInLength="0/1"  />
           <Keyframe id="5888"  time="3301/1" value="1" leadInLength="0/1"  />
           <Keyframe id="5889"  time="3302/1" value="0.80000000000000004" leadInLength="0/1"  />
           <Keyframe id="5890"  time="14568/1" value="0.80000000000000004" leadInLength="0/1"  />
           <Keyframe id="5891"  time="14569/1" value="1" leadInLength="0/1"  />
           </Keyframes>
          </InterpolatingParam>
          <Parameter id="5892"  name="captions"/>
         </Parameters>
         <Effects>
          <GenericEffect id="5893" name = "NoiseReduction" >
           <Parameters>
           <InterpolatingParam id="5894" interp="linr"  time="0/1" value="20" leadInLength="0/1"   name="denoiserAmount"/>
           <InterpolatingParam id="5895" interp="linr"  time="0/1" value="0" leadInLength="0/1"   name="denoiserThreshold"/>
           <Parameter id="5896"   name="noiseProfile">
            <Keyframes>
            <Keyframe id="5897"  time="0/1" value="FBAAAAIAAABErAAAAQIAADOmYsI/y13CPNeLwsehjcK+No/Cm+aOwlHvjcIja5HCun6XwoKemMJy&#xD;&#xa;lpPCuQeRwhgMlcJGdZvCTjScwgFMncIGh5zCGrOawuO0nMJdJZ3Cybudwo6toMIdraPCs/6jwpY0&#xD;&#xa;psLIUqjCWQmpwonmp8KcE6XCgXGlwqC+psIFHabCBoyownWvqcIkX6jCgnCpwms3qsIW0KfCM7Oj&#xD;&#xa;wnGLosJgcKnCdk6swiIgscKFrbDCtNmowrZmpcIHYqjCCg2pwqUNq8KgHq7ChEGxwhVFs8KU6LLC&#xD;&#xa;dvWzwpVHscI6NrDCMpGwwubcs8Imh7bCPKq6wj7tvMKSbr3ClsG+wq4qwMLXQr7CpAK5whxiuMJp&#xD;&#xa;v7nCwu29wloQvsIXTL3CzjDAwsDTwcL69sHC8urAwtAFwMIkSMLCpJHDwjLOw8JG8sTCmMvDwq7H&#xD;&#xa;wsLOncPC+CDDwkh6wsLU5sPCP23Fwm5Qx8KlYsTCm0XCwnhexcLsTsPCSMPDwjvJw8LMWcHC2XHD&#xD;&#xa;wjj5wsICs8TChWvEwgCywcKDdcHCFnHCwurMxMLlVsTCfrDGwmzqyMKoGsfC7ITIwtqRyMJwzcbC&#xD;&#xa;ppbEwiv5xcIXxsTCzDfCwtSExMKEjcTC8ObDwiJ9yMIQm8vCIkDGwqHyxcIyYcbCyAXIwmyBx8I4&#xD;&#xa;n8PCvyPGwuiKxMJggMfCdL3JwsMhysLi6sXCRa7Ewoykx8Jk/MXC0NfEwtK0xcJQTMTCvvvGwtqJ&#xD;&#xa;xMKmFsTCSbfGwq76x8IQ+sjCsqnIwkJdycIaT8fC0nbHwlf2xsLg/cbCtIHHwsTvxsI0KsbCsqDH&#xD;&#xa;wgLix8JGKcXCyNTDwjDwwsIb98bC6MjJwg6Zy8Kg+cvCaC3HwtIgw8KW7sXC3EHGwmcUxcL++8fC&#xD;&#xa;CWbIwsDoxsJFz8PCJkXFwiD7xcIQDsfC8ljIwrDLxMKkeMLClpHEwiqgyMJcjcjC6krGwl50w8Iy&#xD;&#xa;7sXCWv3HwkQ1xsKUwMPC2K/EwootxMJUqMTCH3LDwuojxcKil8fCjmXIwkLJxcID78TClTvGwhel&#xD;&#xa;xsIca8bC1rbCwk6+wsIQfsfCIlPHwpJExcLWhMbCDNvEwuryxMKklMXCeBDDwolhwcIiasLCQYfE&#xD;&#xa;whUfwsJx4MTCsEnIwkX0xcK+3sbCIqLHwrARx8IWtMTCGAnFwomNxMLfbcTCQIPDwjqww8L+MMTC&#xD;&#xa;mqjHwrBaxMI6YsTCxmvIwqyKycKQaMXCnx7FwkYvx8In6sjCGMzIwuvAxcL8a8XCiBjJwkvwyMKI&#xD;&#xa;qMbCTCTIwvQSy8IxEsvCVT/JwrI3w8LA8sLCCD7EwsxXxMJSjsXCfjXFwqTKxMI/gsPCDozDwtwF&#xD;&#xa;xMISn8bChHvJwlFQyMJYCsbCP4jIwtkBycLiFsrCbCrKwvyTysIWncnC+A3HwuI5x8I8/MbC0hHI&#xD;&#xa;wopJzMLmb83CFkvMwpy/y8Kn7MrCfJrJwuLDyMJKn8bCStTGwpb7ycIMo8nCcivFwsapxcJkx8bC&#xD;&#xa;ALLIwriaycJM3cfC8r/KwlSoy8I4A8vCpFHJwkRrzMIKr87CWD7MwsiJycKW9cfCUjbKwq+YycLi&#xD;&#xa;U8jCROHHwhdWycKaU8nCF7jMwmKaz8L//8zC8tjOwjxezsIUysvCzHLJwiJryMLRm8bCgLjKwsi8&#xD;&#xa;ysIhfszCPETLwqtbyMJGeMfCpRPJwnwZzMJSIs3CqhPMwmDiyMLZYsjCz13KwgwKy8LCi8jCyrTM&#xD;&#xa;wgwxzMK4ZcvC087JwkV2xsLyXsnCjIbLwhwvzcLfrM7CeITKwla3ysLK3cnC/PHFwpScxcIUQ8nC&#xD;&#xa;NJzIwrEsxsJvZcfCXSvIwlKLx8JII8nCvgzKwpnhysJSC8vC9iTKwiA/y8IadczCuDrMwuVaysLO&#xD;&#xa;r8vCXtfJwrZ6ycItucnCtonJwjyTysJkC83CL0nMwkjdyMIBucfCixrLwvSDysKGX8nCsCzMwuas&#xD;&#xa;0cIsnNPCuEvOwtr5y8LMBc7Cr+PTwsQc5MLcOfPCKOj0wjr59cJ0C/fCzg75wkwh+8LmVPnCqz72&#xD;&#xa;wnB+9cLuJvrCtEL4wkp7+MLOfffCDN3zwkaz9sLi8vjCFKr6wgIQ+cI8iPjCBpT4wvR1+MLQI/rC&#xD;&#xa;Ihn8wlQg+sIcLvjCVCz2wsI49MJQ9fbC23H3woy69sL4BfnCIOb2wjwy9cIuGvnCdmb3wj7K9MI+&#xD;&#xa;KPXCJpr2wn7C9cKQDvnCthv7woaP+cLGaPbCTr32wrpN+cIFSPjCDvX4wtD39sJY//TCKGf3wvZI&#xD;&#xa;+cK9YvfCgYf3wjIf+sLMMvfCpjz2wuA6+cII8vbCxDv1wmJG9sLka/rCPrT1wi589cLqjfbC9qP4&#xD;&#xa;wgzJ+MLelPbCGir2wlBC9sKeU/jC/nn3wsYn9sL4QPjCXBj5wopQ+MIaJvnCSB36wgjc+MIMfPfC&#xD;&#xa;W+z1wmYG+MKuxPnCCuD1wjh+9sLDrPfCOPj3wm7h+MJjMvfCxH/2wsXf98KwN/nCKOn5wrLR+sKg&#xD;&#xa;bPvCkFv5wsAu+cL2hffCySz2wmRX+MKiiPjCzFX4wvjB98Jgz/fCxPT4wobP+cL8avjC9r34wnKx&#xD;&#xa;+MK+LPnC3H34wle39cKejfbCNKP2wg5B9sK0H/rCSvz2woqE98JAqfjCBPL4wmKi+MIu2/jCMFD5&#xD;&#xa;wiCM+cKo//nCGqz7wlZN+sKUDfjC0ov4wrIU+sIVpffCP2/3woye98KktPbCTJj2wpH29cL3mvbC&#xD;&#xa;jL/4wti/+MLm3vjCQ9QEwzOmYsI/y13CPNeLwsehjcK+No/Cm+aOwlHvjcIja5HCun6XwoKemMJy&#xD;&#xa;lpPCuQeRwhgMlcJGdZvCTjScwgFMncIGh5zCGrOawuO0nMJdJZ3Cybudwo6toMIdraPCs/6jwpY0&#xD;&#xa;psLIUqjCWQmpwonmp8KcE6XCgXGlwqC+psIFHabCBoyownWvqcIkX6jCgnCpwms3qsIW0KfCM7Oj&#xD;&#xa;wnGLosJgcKnCdk6swiIgscKFrbDCtNmowrZmpcIHYqjCCg2pwqUNq8KgHq7ChEGxwhVFs8KU6LLC&#xD;&#xa;dvWzwpVHscI6NrDCMpGwwubcs8Imh7bCPKq6wj7tvMKSbr3ClsG+wq4qwMLXQr7CpAK5whxiuMJp&#xD;&#xa;v7nCwu29wloQvsIXTL3CzjDAwsDTwcL69sHC8urAwtAFwMIkSMLCpJHDwjLOw8JG8sTCmMvDwq7H&#xD;&#xa;wsLOncPC+CDDwkh6wsLU5sPCP23Fwm5Qx8KlYsTCm0XCwnhexcLsTsPCSMPDwjvJw8LMWcHC2XHD&#xD;&#xa;wjj5wsICs8TChWvEwgCywcKDdcHCFnHCwurMxMLlVsTCfrDGwmzqyMKoGsfC7ITIwtqRyMJwzcbC&#xD;&#xa;ppbEwiv5xcIXxsTCzDfCwtSExMKEjcTC8ObDwiJ9yMIQm8vCIkDGwqHyxcIyYcbCyAXIwmyBx8I4&#xD;&#xa;n8PCvyPGwuiKxMJggMfCdL3JwsMhysLi6sXCRa7Ewoykx8Jk/MXC0NfEwtK0xcJQTMTCvvvGwtqJ&#xD;&#xa;xMKmFsTCSbfGwq76x8IQ+sjCsqnIwkJdycIaT8fC0nbHwlf2xsLg/cbCtIHHwsTvxsI0KsbCsqDH&#xD;&#xa;wgLix8JGKcXCyNTDwjDwwsIb98bC6MjJwg6Zy8Kg+cvCaC3HwtIgw8KW7sXC3EHGwmcUxcL++8fC&#xD;&#xa;CWbIwsDoxsJFz8PCJkXFwiD7xcIQDsfC8ljIwrDLxMKkeMLClpHEwiqgyMJcjcjC6krGwl50w8Iy&#xD;&#xa;7sXCWv3HwkQ1xsKUwMPC2K/EwootxMJUqMTCH3LDwuojxcKil8fCjmXIwkLJxcID78TClTvGwhel&#xD;&#xa;xsIca8bC1rbCwk6+wsIQfsfCIlPHwpJExcLWhMbCDNvEwuryxMKklMXCeBDDwolhwcIiasLCQYfE&#xD;&#xa;whUfwsJx4MTCsEnIwkX0xcK+3sbCIqLHwrARx8IWtMTCGAnFwomNxMLfbcTCQIPDwjqww8L+MMTC&#xD;&#xa;mqjHwrBaxMI6YsTCxmvIwqyKycKQaMXCnx7FwkYvx8In6sjCGMzIwuvAxcL8a8XCiBjJwkvwyMKI&#xD;&#xa;qMbCTCTIwvQSy8IxEsvCVT/JwrI3w8LA8sLCCD7EwsxXxMJSjsXCfjXFwqTKxMI/gsPCDozDwtwF&#xD;&#xa;xMISn8bChHvJwlFQyMJYCsbCP4jIwtkBycLiFsrCbCrKwvyTysIWncnC+A3HwuI5x8I8/MbC0hHI&#xD;&#xa;wopJzMLmb83CFkvMwpy/y8Kn7MrCfJrJwuLDyMJKn8bCStTGwpb7ycIMo8nCcivFwsapxcJkx8bC&#xD;&#xa;ALLIwriaycJM3cfC8r/KwlSoy8I4A8vCpFHJwkRrzMIKr87CWD7MwsiJycKW9cfCUjbKwq+YycLi&#xD;&#xa;U8jCROHHwhdWycKaU8nCF7jMwmKaz8L//8zC8tjOwjxezsIUysvCzHLJwiJryMLRm8bCgLjKwsi8&#xD;&#xa;ysIhfszCPETLwqtbyMJGeMfCpRPJwnwZzMJSIs3CqhPMwmDiyMLZYsjCz13KwgwKy8LCi8jCyrTM&#xD;&#xa;wgwxzMK4ZcvC087JwkV2xsLyXsnCjIbLwhwvzcLfrM7CeITKwla3ysLK3cnC/PHFwpScxcIUQ8nC&#xD;&#xa;NJzIwrEsxsJvZcfCXSvIwlKLx8JII8nCvgzKwpnhysJSC8vC9iTKwiA/y8IadczCuDrMwuVaysLO&#xD;&#xa;r8vCXtfJwrZ6ycItucnCtonJwjyTysJkC83CL0nMwkjdyMIBucfCixrLwvSDysKGX8nCsCzMwuas&#xD;&#xa;0cIsnNPCuEvOwtr5y8LMBc7Cr+PTwsQc5MLcOfPCKOj0wjr59cJ0C/fCzg75wkwh+8LmVPnCqz72&#xD;&#xa;wnB+9cLuJvrCtEL4wkp7+MLOfffCDN3zwkaz9sLi8vjCFKr6wgIQ+cI8iPjCBpT4wvR1+MLQI/rC&#xD;&#xa;Ihn8wlQg+sIcLvjCVCz2wsI49MJQ9fbC23H3woy69sL4BfnCIOb2wjwy9cIuGvnCdmb3wj7K9MI+&#xD;&#xa;KPXCJpr2wn7C9cKQDvnCthv7woaP+cLGaPbCTr32wrpN+cIFSPjCDvX4wtD39sJY//TCKGf3wvZI&#xD;&#xa;+cK9YvfCgYf3wjIf+sLMMvfCpjz2wuA6+cII8vbCxDv1wmJG9sLka/rCPrT1wi589cLqjfbC9qP4&#xD;&#xa;wgzJ+MLelPbCGir2wlBC9sKeU/jC/nn3wsYn9sL4QPjCXBj5wopQ+MIaJvnCSB36wgjc+MIMfPfC&#xD;&#xa;W+z1wmYG+MKuxPnCCuD1wjh+9sLDrPfCOPj3wm7h+MJjMvfCxH/2wsXf98KwN/nCKOn5wrLR+sKg&#xD;&#xa;bPvCkFv5wsAu+cL2hffCySz2wmRX+MKiiPjCzFX4wvjB98Jgz/fCxPT4wobP+cL8avjC9r34wnKx&#xD;&#xa;+MK+LPnC3H34wle39cKejfbCNKP2wg5B9sK0H/rCSvz2woqE98JAqfjCBPL4wmKi+MIu2/jCMFD5&#xD;&#xa;wiCM+cKo//nCGqz7wlZN+sKUDfjC0ov4wrIU+sIVpffCP2/3woye98KktPbCTJj2wpH29cL3mvbC&#xD;&#xa;jL/4wti/+MLm3vjCQ9QE" leadInLength="0/1"  />
            </Keyframes>
           </Parameter>
           </Parameters>
          </GenericEffect>
          <GenericEffect id="5898" name = "WinCompression" >
           <Parameters>
           <InterpolatingParam id="5899" interp="linr"  time="0/1" value="0" leadInLength="0/1"   name="attack"/>
           <InterpolatingParam id="5900" interp="linr"  time="0/1" value="9" leadInLength="0/1"   name="gain"/>
           <Parameter id="5901"   name="preset">
            <Keyframes>
            <Keyframe id="5902"  time="0/1" value="1" leadInLength="0/1"  />
            </Keyframes>
           </Parameter>
           <InterpolatingParam id="5903" interp="linr"  time="0/1" value="10" leadInLength="0/1"   name="ratio"/>
           <InterpolatingParam id="5904" interp="linr"  time="0/1" value="3500" leadInLength="0/1"   name="release"/>
           <InterpolatingParam id="5905" interp="linr"  time="0/1" value="-20" leadInLength="0/1"   name="threshold"/>
           </Parameters>
          </GenericEffect>
          <GenericEffect id="5906" name = "Declipper" >
           <Parameters>
           <InterpolatingParam id="5907" interp="linr"  time="0/1" value="-1" leadInLength="0/1"   name="sensitivity"/>
           </Parameters>
          </GenericEffect>
          <GenericEffect id="5908" name = "Declicker" >
           <Parameters>
           <InterpolatingParam id="5909" interp="linr"  time="0/1" value="3" leadInLength="0/1"   name="sensitivity"/>
           </Parameters>
          </GenericEffect>
         </Effects>
         <Attributes>
          <Attribute id="5910" value="" name="ident"/>
          <Attribute id="5911" value="44100" name="sampleRate"/>
          <Attribute id="5912" value="16" name="bitDepth"/>
          <Attribute id="5913" value="1" name="gain"/>
          <Attribute id="5914" value="0" name="mixToMono"/>
         </Attributes>
         <MetaData>
          <entry key="WinSubProjectDisplayName" val=""/>
         </MetaData>
        </AMFile>
        <AMFile id="5915" start="6026" duration="99" scalar="1/1" mediaStart="8278/1" mediaDuration="99/1" trackNumber="0" src="22" channelNumber="0" >
         <Parameters>
          <InterpolatingParam id="5916" interp="linr"  name="volume">
           <Keyframes>
           <Keyframe id="5917"  time="0/1" value="1" leadInLength="0/1"  />
           <Keyframe id="5918"  time="3301/1" value="1" leadInLength="0/1"  />
           <Keyframe id="5919"  time="3302/1" value="0.80000000000000004" leadInLength="0/1"  />
           <Keyframe id="5920"  time="14568/1" value="0.80000000000000004" leadInLength="0/1"  />
           <Keyframe id="5921"  time="14569/1" value="1" leadInLength="0/1"  />
           </Keyframes>
          </InterpolatingParam>
          <Parameter id="5922"  name="captions"/>
         </Parameters>
         <Effects>
          <GenericEffect id="5923" name = "NoiseReduction" >
           <Parameters>
           <InterpolatingParam id="5924" interp="linr"  time="0/1" value="20" leadInLength="0/1"   name="denoiserAmount"/>
           <InterpolatingParam id="5925" interp="linr"  time="0/1" value="0" leadInLength="0/1"   name="denoiserThreshold"/>
           <Parameter id="5926"   name="noiseProfile">
            <Keyframes>
            <Keyframe id="5927"  time="0/1" value="FBAAAAIAAABErAAAAQIAADOmYsI/y13CPNeLwsehjcK+No/Cm+aOwlHvjcIja5HCun6XwoKemMJy&#xD;&#xa;lpPCuQeRwhgMlcJGdZvCTjScwgFMncIGh5zCGrOawuO0nMJdJZ3Cybudwo6toMIdraPCs/6jwpY0&#xD;&#xa;psLIUqjCWQmpwonmp8KcE6XCgXGlwqC+psIFHabCBoyownWvqcIkX6jCgnCpwms3qsIW0KfCM7Oj&#xD;&#xa;wnGLosJgcKnCdk6swiIgscKFrbDCtNmowrZmpcIHYqjCCg2pwqUNq8KgHq7ChEGxwhVFs8KU6LLC&#xD;&#xa;dvWzwpVHscI6NrDCMpGwwubcs8Imh7bCPKq6wj7tvMKSbr3ClsG+wq4qwMLXQr7CpAK5whxiuMJp&#xD;&#xa;v7nCwu29wloQvsIXTL3CzjDAwsDTwcL69sHC8urAwtAFwMIkSMLCpJHDwjLOw8JG8sTCmMvDwq7H&#xD;&#xa;wsLOncPC+CDDwkh6wsLU5sPCP23Fwm5Qx8KlYsTCm0XCwnhexcLsTsPCSMPDwjvJw8LMWcHC2XHD&#xD;&#xa;wjj5wsICs8TChWvEwgCywcKDdcHCFnHCwurMxMLlVsTCfrDGwmzqyMKoGsfC7ITIwtqRyMJwzcbC&#xD;&#xa;ppbEwiv5xcIXxsTCzDfCwtSExMKEjcTC8ObDwiJ9yMIQm8vCIkDGwqHyxcIyYcbCyAXIwmyBx8I4&#xD;&#xa;n8PCvyPGwuiKxMJggMfCdL3JwsMhysLi6sXCRa7Ewoykx8Jk/MXC0NfEwtK0xcJQTMTCvvvGwtqJ&#xD;&#xa;xMKmFsTCSbfGwq76x8IQ+sjCsqnIwkJdycIaT8fC0nbHwlf2xsLg/cbCtIHHwsTvxsI0KsbCsqDH&#xD;&#xa;wgLix8JGKcXCyNTDwjDwwsIb98bC6MjJwg6Zy8Kg+cvCaC3HwtIgw8KW7sXC3EHGwmcUxcL++8fC&#xD;&#xa;CWbIwsDoxsJFz8PCJkXFwiD7xcIQDsfC8ljIwrDLxMKkeMLClpHEwiqgyMJcjcjC6krGwl50w8Iy&#xD;&#xa;7sXCWv3HwkQ1xsKUwMPC2K/EwootxMJUqMTCH3LDwuojxcKil8fCjmXIwkLJxcID78TClTvGwhel&#xD;&#xa;xsIca8bC1rbCwk6+wsIQfsfCIlPHwpJExcLWhMbCDNvEwuryxMKklMXCeBDDwolhwcIiasLCQYfE&#xD;&#xa;whUfwsJx4MTCsEnIwkX0xcK+3sbCIqLHwrARx8IWtMTCGAnFwomNxMLfbcTCQIPDwjqww8L+MMTC&#xD;&#xa;mqjHwrBaxMI6YsTCxmvIwqyKycKQaMXCnx7FwkYvx8In6sjCGMzIwuvAxcL8a8XCiBjJwkvwyMKI&#xD;&#xa;qMbCTCTIwvQSy8IxEsvCVT/JwrI3w8LA8sLCCD7EwsxXxMJSjsXCfjXFwqTKxMI/gsPCDozDwtwF&#xD;&#xa;xMISn8bChHvJwlFQyMJYCsbCP4jIwtkBycLiFsrCbCrKwvyTysIWncnC+A3HwuI5x8I8/MbC0hHI&#xD;&#xa;wopJzMLmb83CFkvMwpy/y8Kn7MrCfJrJwuLDyMJKn8bCStTGwpb7ycIMo8nCcivFwsapxcJkx8bC&#xD;&#xa;ALLIwriaycJM3cfC8r/KwlSoy8I4A8vCpFHJwkRrzMIKr87CWD7MwsiJycKW9cfCUjbKwq+YycLi&#xD;&#xa;U8jCROHHwhdWycKaU8nCF7jMwmKaz8L//8zC8tjOwjxezsIUysvCzHLJwiJryMLRm8bCgLjKwsi8&#xD;&#xa;ysIhfszCPETLwqtbyMJGeMfCpRPJwnwZzMJSIs3CqhPMwmDiyMLZYsjCz13KwgwKy8LCi8jCyrTM&#xD;&#xa;wgwxzMK4ZcvC087JwkV2xsLyXsnCjIbLwhwvzcLfrM7CeITKwla3ysLK3cnC/PHFwpScxcIUQ8nC&#xD;&#xa;NJzIwrEsxsJvZcfCXSvIwlKLx8JII8nCvgzKwpnhysJSC8vC9iTKwiA/y8IadczCuDrMwuVaysLO&#xD;&#xa;r8vCXtfJwrZ6ycItucnCtonJwjyTysJkC83CL0nMwkjdyMIBucfCixrLwvSDysKGX8nCsCzMwuas&#xD;&#xa;0cIsnNPCuEvOwtr5y8LMBc7Cr+PTwsQc5MLcOfPCKOj0wjr59cJ0C/fCzg75wkwh+8LmVPnCqz72&#xD;&#xa;wnB+9cLuJvrCtEL4wkp7+MLOfffCDN3zwkaz9sLi8vjCFKr6wgIQ+cI8iPjCBpT4wvR1+MLQI/rC&#xD;&#xa;Ihn8wlQg+sIcLvjCVCz2wsI49MJQ9fbC23H3woy69sL4BfnCIOb2wjwy9cIuGvnCdmb3wj7K9MI+&#xD;&#xa;KPXCJpr2wn7C9cKQDvnCthv7woaP+cLGaPbCTr32wrpN+cIFSPjCDvX4wtD39sJY//TCKGf3wvZI&#xD;&#xa;+cK9YvfCgYf3wjIf+sLMMvfCpjz2wuA6+cII8vbCxDv1wmJG9sLka/rCPrT1wi589cLqjfbC9qP4&#xD;&#xa;wgzJ+MLelPbCGir2wlBC9sKeU/jC/nn3wsYn9sL4QPjCXBj5wopQ+MIaJvnCSB36wgjc+MIMfPfC&#xD;&#xa;W+z1wmYG+MKuxPnCCuD1wjh+9sLDrPfCOPj3wm7h+MJjMvfCxH/2wsXf98KwN/nCKOn5wrLR+sKg&#xD;&#xa;bPvCkFv5wsAu+cL2hffCySz2wmRX+MKiiPjCzFX4wvjB98Jgz/fCxPT4wobP+cL8avjC9r34wnKx&#xD;&#xa;+MK+LPnC3H34wle39cKejfbCNKP2wg5B9sK0H/rCSvz2woqE98JAqfjCBPL4wmKi+MIu2/jCMFD5&#xD;&#xa;wiCM+cKo//nCGqz7wlZN+sKUDfjC0ov4wrIU+sIVpffCP2/3woye98KktPbCTJj2wpH29cL3mvbC&#xD;&#xa;jL/4wti/+MLm3vjCQ9QEwzOmYsI/y13CPNeLwsehjcK+No/Cm+aOwlHvjcIja5HCun6XwoKemMJy&#xD;&#xa;lpPCuQeRwhgMlcJGdZvCTjScwgFMncIGh5zCGrOawuO0nMJdJZ3Cybudwo6toMIdraPCs/6jwpY0&#xD;&#xa;psLIUqjCWQmpwonmp8KcE6XCgXGlwqC+psIFHabCBoyownWvqcIkX6jCgnCpwms3qsIW0KfCM7Oj&#xD;&#xa;wnGLosJgcKnCdk6swiIgscKFrbDCtNmowrZmpcIHYqjCCg2pwqUNq8KgHq7ChEGxwhVFs8KU6LLC&#xD;&#xa;dvWzwpVHscI6NrDCMpGwwubcs8Imh7bCPKq6wj7tvMKSbr3ClsG+wq4qwMLXQr7CpAK5whxiuMJp&#xD;&#xa;v7nCwu29wloQvsIXTL3CzjDAwsDTwcL69sHC8urAwtAFwMIkSMLCpJHDwjLOw8JG8sTCmMvDwq7H&#xD;&#xa;wsLOncPC+CDDwkh6wsLU5sPCP23Fwm5Qx8KlYsTCm0XCwnhexcLsTsPCSMPDwjvJw8LMWcHC2XHD&#xD;&#xa;wjj5wsICs8TChWvEwgCywcKDdcHCFnHCwurMxMLlVsTCfrDGwmzqyMKoGsfC7ITIwtqRyMJwzcbC&#xD;&#xa;ppbEwiv5xcIXxsTCzDfCwtSExMKEjcTC8ObDwiJ9yMIQm8vCIkDGwqHyxcIyYcbCyAXIwmyBx8I4&#xD;&#xa;n8PCvyPGwuiKxMJggMfCdL3JwsMhysLi6sXCRa7Ewoykx8Jk/MXC0NfEwtK0xcJQTMTCvvvGwtqJ&#xD;&#xa;xMKmFsTCSbfGwq76x8IQ+sjCsqnIwkJdycIaT8fC0nbHwlf2xsLg/cbCtIHHwsTvxsI0KsbCsqDH&#xD;&#xa;wgLix8JGKcXCyNTDwjDwwsIb98bC6MjJwg6Zy8Kg+cvCaC3HwtIgw8KW7sXC3EHGwmcUxcL++8fC&#xD;&#xa;CWbIwsDoxsJFz8PCJkXFwiD7xcIQDsfC8ljIwrDLxMKkeMLClpHEwiqgyMJcjcjC6krGwl50w8Iy&#xD;&#xa;7sXCWv3HwkQ1xsKUwMPC2K/EwootxMJUqMTCH3LDwuojxcKil8fCjmXIwkLJxcID78TClTvGwhel&#xD;&#xa;xsIca8bC1rbCwk6+wsIQfsfCIlPHwpJExcLWhMbCDNvEwuryxMKklMXCeBDDwolhwcIiasLCQYfE&#xD;&#xa;whUfwsJx4MTCsEnIwkX0xcK+3sbCIqLHwrARx8IWtMTCGAnFwomNxMLfbcTCQIPDwjqww8L+MMTC&#xD;&#xa;mqjHwrBaxMI6YsTCxmvIwqyKycKQaMXCnx7FwkYvx8In6sjCGMzIwuvAxcL8a8XCiBjJwkvwyMKI&#xD;&#xa;qMbCTCTIwvQSy8IxEsvCVT/JwrI3w8LA8sLCCD7EwsxXxMJSjsXCfjXFwqTKxMI/gsPCDozDwtwF&#xD;&#xa;xMISn8bChHvJwlFQyMJYCsbCP4jIwtkBycLiFsrCbCrKwvyTysIWncnC+A3HwuI5x8I8/MbC0hHI&#xD;&#xa;wopJzMLmb83CFkvMwpy/y8Kn7MrCfJrJwuLDyMJKn8bCStTGwpb7ycIMo8nCcivFwsapxcJkx8bC&#xD;&#xa;ALLIwriaycJM3cfC8r/KwlSoy8I4A8vCpFHJwkRrzMIKr87CWD7MwsiJycKW9cfCUjbKwq+YycLi&#xD;&#xa;U8jCROHHwhdWycKaU8nCF7jMwmKaz8L//8zC8tjOwjxezsIUysvCzHLJwiJryMLRm8bCgLjKwsi8&#xD;&#xa;ysIhfszCPETLwqtbyMJGeMfCpRPJwnwZzMJSIs3CqhPMwmDiyMLZYsjCz13KwgwKy8LCi8jCyrTM&#xD;&#xa;wgwxzMK4ZcvC087JwkV2xsLyXsnCjIbLwhwvzcLfrM7CeITKwla3ysLK3cnC/PHFwpScxcIUQ8nC&#xD;&#xa;NJzIwrEsxsJvZcfCXSvIwlKLx8JII8nCvgzKwpnhysJSC8vC9iTKwiA/y8IadczCuDrMwuVaysLO&#xD;&#xa;r8vCXtfJwrZ6ycItucnCtonJwjyTysJkC83CL0nMwkjdyMIBucfCixrLwvSDysKGX8nCsCzMwuas&#xD;&#xa;0cIsnNPCuEvOwtr5y8LMBc7Cr+PTwsQc5MLcOfPCKOj0wjr59cJ0C/fCzg75wkwh+8LmVPnCqz72&#xD;&#xa;wnB+9cLuJvrCtEL4wkp7+MLOfffCDN3zwkaz9sLi8vjCFKr6wgIQ+cI8iPjCBpT4wvR1+MLQI/rC&#xD;&#xa;Ihn8wlQg+sIcLvjCVCz2wsI49MJQ9fbC23H3woy69sL4BfnCIOb2wjwy9cIuGvnCdmb3wj7K9MI+&#xD;&#xa;KPXCJpr2wn7C9cKQDvnCthv7woaP+cLGaPbCTr32wrpN+cIFSPjCDvX4wtD39sJY//TCKGf3wvZI&#xD;&#xa;+cK9YvfCgYf3wjIf+sLMMvfCpjz2wuA6+cII8vbCxDv1wmJG9sLka/rCPrT1wi589cLqjfbC9qP4&#xD;&#xa;wgzJ+MLelPbCGir2wlBC9sKeU/jC/nn3wsYn9sL4QPjCXBj5wopQ+MIaJvnCSB36wgjc+MIMfPfC&#xD;&#xa;W+z1wmYG+MKuxPnCCuD1wjh+9sLDrPfCOPj3wm7h+MJjMvfCxH/2wsXf98KwN/nCKOn5wrLR+sKg&#xD;&#xa;bPvCkFv5wsAu+cL2hffCySz2wmRX+MKiiPjCzFX4wvjB98Jgz/fCxPT4wobP+cL8avjC9r34wnKx&#xD;&#xa;+MK+LPnC3H34wle39cKejfbCNKP2wg5B9sK0H/rCSvz2woqE98JAqfjCBPL4wmKi+MIu2/jCMFD5&#xD;&#xa;wiCM+cKo//nCGqz7wlZN+sKUDfjC0ov4wrIU+sIVpffCP2/3woye98KktPbCTJj2wpH29cL3mvbC&#xD;&#xa;jL/4wti/+MLm3vjCQ9QE" leadInLength="0/1"  />
            </Keyframes>
           </Parameter>
           </Parameters>
          </GenericEffect>
          <GenericEffect id="5928" name = "WinCompression" >
           <Parameters>
           <InterpolatingParam id="5929" interp="linr"  time="0/1" value="0" leadInLength="0/1"   name="attack"/>
           <InterpolatingParam id="5930" interp="linr"  time="0/1" value="9" leadInLength="0/1"   name="gain"/>
           <Parameter id="5931"   name="preset">
            <Keyframes>
            <Keyframe id="5932"  time="0/1" value="1" leadInLength="0/1"  />
            </Keyframes>
           </Parameter>
           <InterpolatingParam id="5933" interp="linr"  time="0/1" value="10" leadInLength="0/1"   name="ratio"/>
           <InterpolatingParam id="5934" interp="linr"  time="0/1" value="3500" leadInLength="0/1"   name="release"/>
           <InterpolatingParam id="5935" interp="linr"  time="0/1" value="-20" leadInLength="0/1"   name="threshold"/>
           </Parameters>
          </GenericEffect>
          <GenericEffect id="5936" name = "Declipper" >
           <Parameters>
           <InterpolatingParam id="5937" interp="linr"  time="0/1" value="-1" leadInLength="0/1"   name="sensitivity"/>
           </Parameters>
          </GenericEffect>
          <GenericEffect id="5938" name = "Declicker" >
           <Parameters>
           <InterpolatingParam id="5939" interp="linr"  time="0/1" value="3" leadInLength="0/1"   name="sensitivity"/>
           </Parameters>
          </GenericEffect>
         </Effects>
         <Attributes>
          <Attribute id="5940" value="" name="ident"/>
          <Attribute id="5941" value="44100" name="sampleRate"/>
          <Attribute id="5942" value="16" name="bitDepth"/>
          <Attribute id="5943" value="1" name="gain"/>
          <Attribute id="5944" value="0" name="mixToMono"/>
         </Attributes>
         <MetaData>
          <entry key="WinSubProjectDisplayName" val=""/>
         </MetaData>
        </AMFile>
        <StitchedMedia id="5945" start="6147" duration="139" scalar="1/1" mediaStart="8745/1" mediaDuration="139/1" minMediaStart="0/1" >
         <Transformer>
          <VectorParam id="5946"  name="translation">
           <InterpolatingParam id="5947" interp="linr"  time="0/1" value="0" leadInLength="0/1"  />
           <InterpolatingParam id="5948" interp="linr"  time="0/1" value="0" leadInLength="0/1"  />
           <InterpolatingParam id="5949" interp="linr"  time="0/1" value="0" leadInLength="0/1"  />
          </VectorParam>
          <VectorParam id="5950"  name="rotation">
           <InterpolatingParam id="5951" interp="linr"  time="0/1" value="0" leadInLength="0/1"  />
           <InterpolatingParam id="5952" interp="linr"  time="0/1" value="0" leadInLength="0/1"  />
           <InterpolatingParam id="5953" interp="linr"  time="0/1" value="0" leadInLength="0/1"  />
          </VectorParam>
          <VectorParam id="5954"  name="shear">
           <InterpolatingParam id="5955" interp="linr"  time="0/1" value="0" leadInLength="0/1"  />
           <InterpolatingParam id="5956" interp="linr"  time="0/1" value="0" leadInLength="0/1"  />
           <InterpolatingParam id="5957" interp="linr"  time="0/1" value="0" leadInLength="0/1"  />
          </VectorParam>
          <VectorParam id="5958"  name="scale">
           <InterpolatingParam id="5959" interp="linr"  time="0/1" value="1" leadInLength="0/1"  />
           <InterpolatingParam id="5960" interp="linr"  time="0/1" value="1" leadInLength="0/1"  />
           <InterpolatingParam id="5961" interp="linr"  time="0/1" value="1" leadInLength="0/1"  />
          </VectorParam>
          <VectorParam id="5962"  name="anchor">
           <InterpolatingParam id="5963" interp="linr"  time="0/1" value="0" leadInLength="0/1"  />
           <InterpolatingParam id="5964" interp="linr"  time="0/1" value="0" leadInLength="0/1"  />
           <InterpolatingParam id="5965" interp="linr"  time="0/1" value="0" leadInLength="0/1"  />
          </VectorParam>
         </Transformer>
         <Parameters>
          <InterpolatingParam id="5966" interp="linr"  time="0/1" value="1" leadInLength="0/1"  name="cursorOpacity"/>
          <InterpolatingParam id="5967" interp="linr"  time="0/1" value="1" leadInLength="0/1"  name="cursorScale"/>
          <InterpolatingParam id="5968" interp="linr"  name="volume">
           <Keyframes>
           <Keyframe id="5969"  time="0/1" value="1" leadInLength="0/1"  />
           <Keyframe id="5970"  time="3301/1" value="1" leadInLength="0/1"  />
           <Keyframe id="5971"  time="3302/1" value="0.80000000000000004" leadInLength="0/1"  />
           <Keyframe id="5972"  time="14568/1" value="0.80000000000000004" leadInLength="0/1"  />
           <Keyframe id="5973"  time="14569/1" value="1" leadInLength="0/1"  />
           </Keyframes>
          </InterpolatingParam>
          <Parameter id="5974"  name="captions"/>
         </Parameters>
         <Effects>
          <GenericEffect id="5975" name = "NoiseReduction" >
           <Parameters>
           <InterpolatingParam id="5976" interp="linr"  time="0/1" value="20" leadInLength="0/1"   name="denoiserAmount"/>
           <InterpolatingParam id="5977" interp="linr"  time="0/1" value="0" leadInLength="0/1"   name="denoiserThreshold"/>
           <Parameter id="5978"   name="noiseProfile">
            <Keyframes>
            <Keyframe id="5979"  time="0/1" value="FBAAAAIAAABErAAAAQIAADOmYsI/y13CPNeLwsehjcK+No/Cm+aOwlHvjcIja5HCun6XwoKemMJy&#xD;&#xa;lpPCuQeRwhgMlcJGdZvCTjScwgFMncIGh5zCGrOawuO0nMJdJZ3Cybudwo6toMIdraPCs/6jwpY0&#xD;&#xa;psLIUqjCWQmpwonmp8KcE6XCgXGlwqC+psIFHabCBoyownWvqcIkX6jCgnCpwms3qsIW0KfCM7Oj&#xD;&#xa;wnGLosJgcKnCdk6swiIgscKFrbDCtNmowrZmpcIHYqjCCg2pwqUNq8KgHq7ChEGxwhVFs8KU6LLC&#xD;&#xa;dvWzwpVHscI6NrDCMpGwwubcs8Imh7bCPKq6wj7tvMKSbr3ClsG+wq4qwMLXQr7CpAK5whxiuMJp&#xD;&#xa;v7nCwu29wloQvsIXTL3CzjDAwsDTwcL69sHC8urAwtAFwMIkSMLCpJHDwjLOw8JG8sTCmMvDwq7H&#xD;&#xa;wsLOncPC+CDDwkh6wsLU5sPCP23Fwm5Qx8KlYsTCm0XCwnhexcLsTsPCSMPDwjvJw8LMWcHC2XHD&#xD;&#xa;wjj5wsICs8TChWvEwgCywcKDdcHCFnHCwurMxMLlVsTCfrDGwmzqyMKoGsfC7ITIwtqRyMJwzcbC&#xD;&#xa;ppbEwiv5xcIXxsTCzDfCwtSExMKEjcTC8ObDwiJ9yMIQm8vCIkDGwqHyxcIyYcbCyAXIwmyBx8I4&#xD;&#xa;n8PCvyPGwuiKxMJggMfCdL3JwsMhysLi6sXCRa7Ewoykx8Jk/MXC0NfEwtK0xcJQTMTCvvvGwtqJ&#xD;&#xa;xMKmFsTCSbfGwq76x8IQ+sjCsqnIwkJdycIaT8fC0nbHwlf2xsLg/cbCtIHHwsTvxsI0KsbCsqDH&#xD;&#xa;wgLix8JGKcXCyNTDwjDwwsIb98bC6MjJwg6Zy8Kg+cvCaC3HwtIgw8KW7sXC3EHGwmcUxcL++8fC&#xD;&#xa;CWbIwsDoxsJFz8PCJkXFwiD7xcIQDsfC8ljIwrDLxMKkeMLClpHEwiqgyMJcjcjC6krGwl50w8Iy&#xD;&#xa;7sXCWv3HwkQ1xsKUwMPC2K/EwootxMJUqMTCH3LDwuojxcKil8fCjmXIwkLJxcID78TClTvGwhel&#xD;&#xa;xsIca8bC1rbCwk6+wsIQfsfCIlPHwpJExcLWhMbCDNvEwuryxMKklMXCeBDDwolhwcIiasLCQYfE&#xD;&#xa;whUfwsJx4MTCsEnIwkX0xcK+3sbCIqLHwrARx8IWtMTCGAnFwomNxMLfbcTCQIPDwjqww8L+MMTC&#xD;&#xa;mqjHwrBaxMI6YsTCxmvIwqyKycKQaMXCnx7FwkYvx8In6sjCGMzIwuvAxcL8a8XCiBjJwkvwyMKI&#xD;&#xa;qMbCTCTIwvQSy8IxEsvCVT/JwrI3w8LA8sLCCD7EwsxXxMJSjsXCfjXFwqTKxMI/gsPCDozDwtwF&#xD;&#xa;xMISn8bChHvJwlFQyMJYCsbCP4jIwtkBycLiFsrCbCrKwvyTysIWncnC+A3HwuI5x8I8/MbC0hHI&#xD;&#xa;wopJzMLmb83CFkvMwpy/y8Kn7MrCfJrJwuLDyMJKn8bCStTGwpb7ycIMo8nCcivFwsapxcJkx8bC&#xD;&#xa;ALLIwriaycJM3cfC8r/KwlSoy8I4A8vCpFHJwkRrzMIKr87CWD7MwsiJycKW9cfCUjbKwq+YycLi&#xD;&#xa;U8jCROHHwhdWycKaU8nCF7jMwmKaz8L//8zC8tjOwjxezsIUysvCzHLJwiJryMLRm8bCgLjKwsi8&#xD;&#xa;ysIhfszCPETLwqtbyMJGeMfCpRPJwnwZzMJSIs3CqhPMwmDiyMLZYsjCz13KwgwKy8LCi8jCyrTM&#xD;&#xa;wgwxzMK4ZcvC087JwkV2xsLyXsnCjIbLwhwvzcLfrM7CeITKwla3ysLK3cnC/PHFwpScxcIUQ8nC&#xD;&#xa;NJzIwrEsxsJvZcfCXSvIwlKLx8JII8nCvgzKwpnhysJSC8vC9iTKwiA/y8IadczCuDrMwuVaysLO&#xD;&#xa;r8vCXtfJwrZ6ycItucnCtonJwjyTysJkC83CL0nMwkjdyMIBucfCixrLwvSDysKGX8nCsCzMwuas&#xD;&#xa;0cIsnNPCuEvOwtr5y8LMBc7Cr+PTwsQc5MLcOfPCKOj0wjr59cJ0C/fCzg75wkwh+8LmVPnCqz72&#xD;&#xa;wnB+9cLuJvrCtEL4wkp7+MLOfffCDN3zwkaz9sLi8vjCFKr6wgIQ+cI8iPjCBpT4wvR1+MLQI/rC&#xD;&#xa;Ihn8wlQg+sIcLvjCVCz2wsI49MJQ9fbC23H3woy69sL4BfnCIOb2wjwy9cIuGvnCdmb3wj7K9MI+&#xD;&#xa;KPXCJpr2wn7C9cKQDvnCthv7woaP+cLGaPbCTr32wrpN+cIFSPjCDvX4wtD39sJY//TCKGf3wvZI&#xD;&#xa;+cK9YvfCgYf3wjIf+sLMMvfCpjz2wuA6+cII8vbCxDv1wmJG9sLka/rCPrT1wi589cLqjfbC9qP4&#xD;&#xa;wgzJ+MLelPbCGir2wlBC9sKeU/jC/nn3wsYn9sL4QPjCXBj5wopQ+MIaJvnCSB36wgjc+MIMfPfC&#xD;&#xa;W+z1wmYG+MKuxPnCCuD1wjh+9sLDrPfCOPj3wm7h+MJjMvfCxH/2wsXf98KwN/nCKOn5wrLR+sKg&#xD;&#xa;bPvCkFv5wsAu+cL2hffCySz2wmRX+MKiiPjCzFX4wvjB98Jgz/fCxPT4wobP+cL8avjC9r34wnKx&#xD;&#xa;+MK+LPnC3H34wle39cKejfbCNKP2wg5B9sK0H/rCSvz2woqE98JAqfjCBPL4wmKi+MIu2/jCMFD5&#xD;&#xa;wiCM+cKo//nCGqz7wlZN+sKUDfjC0ov4wrIU+sIVpffCP2/3woye98KktPbCTJj2wpH29cL3mvbC&#xD;&#xa;jL/4wti/+MLm3vjCQ9QEwzOmYsI/y13CPNeLwsehjcK+No/Cm+aOwlHvjcIja5HCun6XwoKemMJy&#xD;&#xa;lpPCuQeRwhgMlcJGdZvCTjScwgFMncIGh5zCGrOawuO0nMJdJZ3Cybudwo6toMIdraPCs/6jwpY0&#xD;&#xa;psLIUqjCWQmpwonmp8KcE6XCgXGlwqC+psIFHabCBoyownWvqcIkX6jCgnCpwms3qsIW0KfCM7Oj&#xD;&#xa;wnGLosJgcKnCdk6swiIgscKFrbDCtNmowrZmpcIHYqjCCg2pwqUNq8KgHq7ChEGxwhVFs8KU6LLC&#xD;&#xa;dvWzwpVHscI6NrDCMpGwwubcs8Imh7bCPKq6wj7tvMKSbr3ClsG+wq4qwMLXQr7CpAK5whxiuMJp&#xD;&#xa;v7nCwu29wloQvsIXTL3CzjDAwsDTwcL69sHC8urAwtAFwMIkSMLCpJHDwjLOw8JG8sTCmMvDwq7H&#xD;&#xa;wsLOncPC+CDDwkh6wsLU5sPCP23Fwm5Qx8KlYsTCm0XCwnhexcLsTsPCSMPDwjvJw8LMWcHC2XHD&#xD;&#xa;wjj5wsICs8TChWvEwgCywcKDdcHCFnHCwurMxMLlVsTCfrDGwmzqyMKoGsfC7ITIwtqRyMJwzcbC&#xD;&#xa;ppbEwiv5xcIXxsTCzDfCwtSExMKEjcTC8ObDwiJ9yMIQm8vCIkDGwqHyxcIyYcbCyAXIwmyBx8I4&#xD;&#xa;n8PCvyPGwuiKxMJggMfCdL3JwsMhysLi6sXCRa7Ewoykx8Jk/MXC0NfEwtK0xcJQTMTCvvvGwtqJ&#xD;&#xa;xMKmFsTCSbfGwq76x8IQ+sjCsqnIwkJdycIaT8fC0nbHwlf2xsLg/cbCtIHHwsTvxsI0KsbCsqDH&#xD;&#xa;wgLix8JGKcXCyNTDwjDwwsIb98bC6MjJwg6Zy8Kg+cvCaC3HwtIgw8KW7sXC3EHGwmcUxcL++8fC&#xD;&#xa;CWbIwsDoxsJFz8PCJkXFwiD7xcIQDsfC8ljIwrDLxMKkeMLClpHEwiqgyMJcjcjC6krGwl50w8Iy&#xD;&#xa;7sXCWv3HwkQ1xsKUwMPC2K/EwootxMJUqMTCH3LDwuojxcKil8fCjmXIwkLJxcID78TClTvGwhel&#xD;&#xa;xsIca8bC1rbCwk6+wsIQfsfCIlPHwpJExcLWhMbCDNvEwuryxMKklMXCeBDDwolhwcIiasLCQYfE&#xD;&#xa;whUfwsJx4MTCsEnIwkX0xcK+3sbCIqLHwrARx8IWtMTCGAnFwomNxMLfbcTCQIPDwjqww8L+MMTC&#xD;&#xa;mqjHwrBaxMI6YsTCxmvIwqyKycKQaMXCnx7FwkYvx8In6sjCGMzIwuvAxcL8a8XCiBjJwkvwyMKI&#xD;&#xa;qMbCTCTIwvQSy8IxEsvCVT/JwrI3w8LA8sLCCD7EwsxXxMJSjsXCfjXFwqTKxMI/gsPCDozDwtwF&#xD;&#xa;xMISn8bChHvJwlFQyMJYCsbCP4jIwtkBycLiFsrCbCrKwvyTysIWncnC+A3HwuI5x8I8/MbC0hHI&#xD;&#xa;wopJzMLmb83CFkvMwpy/y8Kn7MrCfJrJwuLDyMJKn8bCStTGwpb7ycIMo8nCcivFwsapxcJkx8bC&#xD;&#xa;ALLIwriaycJM3cfC8r/KwlSoy8I4A8vCpFHJwkRrzMIKr87CWD7MwsiJycKW9cfCUjbKwq+YycLi&#xD;&#xa;U8jCROHHwhdWycKaU8nCF7jMwmKaz8L//8zC8tjOwjxezsIUysvCzHLJwiJryMLRm8bCgLjKwsi8&#xD;&#xa;ysIhfszCPETLwqtbyMJGeMfCpRPJwnwZzMJSIs3CqhPMwmDiyMLZYsjCz13KwgwKy8LCi8jCyrTM&#xD;&#xa;wgwxzMK4ZcvC087JwkV2xsLyXsnCjIbLwhwvzcLfrM7CeITKwla3ysLK3cnC/PHFwpScxcIUQ8nC&#xD;&#xa;NJzIwrEsxsJvZcfCXSvIwlKLx8JII8nCvgzKwpnhysJSC8vC9iTKwiA/y8IadczCuDrMwuVaysLO&#xD;&#xa;r8vCXtfJwrZ6ycItucnCtonJwjyTysJkC83CL0nMwkjdyMIBucfCixrLwvSDysKGX8nCsCzMwuas&#xD;&#xa;0cIsnNPCuEvOwtr5y8LMBc7Cr+PTwsQc5MLcOfPCKOj0wjr59cJ0C/fCzg75wkwh+8LmVPnCqz72&#xD;&#xa;wnB+9cLuJvrCtEL4wkp7+MLOfffCDN3zwkaz9sLi8vjCFKr6wgIQ+cI8iPjCBpT4wvR1+MLQI/rC&#xD;&#xa;Ihn8wlQg+sIcLvjCVCz2wsI49MJQ9fbC23H3woy69sL4BfnCIOb2wjwy9cIuGvnCdmb3wj7K9MI+&#xD;&#xa;KPXCJpr2wn7C9cKQDvnCthv7woaP+cLGaPbCTr32wrpN+cIFSPjCDvX4wtD39sJY//TCKGf3wvZI&#xD;&#xa;+cK9YvfCgYf3wjIf+sLMMvfCpjz2wuA6+cII8vbCxDv1wmJG9sLka/rCPrT1wi589cLqjfbC9qP4&#xD;&#xa;wgzJ+MLelPbCGir2wlBC9sKeU/jC/nn3wsYn9sL4QPjCXBj5wopQ+MIaJvnCSB36wgjc+MIMfPfC&#xD;&#xa;W+z1wmYG+MKuxPnCCuD1wjh+9sLDrPfCOPj3wm7h+MJjMvfCxH/2wsXf98KwN/nCKOn5wrLR+sKg&#xD;&#xa;bPvCkFv5wsAu+cL2hffCySz2wmRX+MKiiPjCzFX4wvjB98Jgz/fCxPT4wobP+cL8avjC9r34wnKx&#xD;&#xa;+MK+LPnC3H34wle39cKejfbCNKP2wg5B9sK0H/rCSvz2woqE98JAqfjCBPL4wmKi+MIu2/jCMFD5&#xD;&#xa;wiCM+cKo//nCGqz7wlZN+sKUDfjC0ov4wrIU+sIVpffCP2/3woye98KktPbCTJj2wpH29cL3mvbC&#xD;&#xa;jL/4wti/+MLm3vjCQ9QE" leadInLength="0/1"  />
            </Keyframes>
           </Parameter>
           </Parameters>
          </GenericEffect>
          <GenericEffect id="5980" name = "WinCompression" >
           <Parameters>
           <InterpolatingParam id="5981" interp="linr"  time="0/1" value="0" leadInLength="0/1"   name="attack"/>
           <InterpolatingParam id="5982" interp="linr"  time="0/1" value="9" leadInLength="0/1"   name="gain"/>
           <Parameter id="5983"   name="preset">
            <Keyframes>
            <Keyframe id="5984"  time="0/1" value="1" leadInLength="0/1"  />
            </Keyframes>
           </Parameter>
           <InterpolatingParam id="5985" interp="linr"  time="0/1" value="10" leadInLength="0/1"   name="ratio"/>
           <InterpolatingParam id="5986" interp="linr"  time="0/1" value="3500" leadInLength="0/1"   name="release"/>
           <InterpolatingParam id="5987" interp="linr"  time="0/1" value="-20" leadInLength="0/1"   name="threshold"/>
           </Parameters>
          </GenericEffect>
          <GenericEffect id="5988" name = "Declipper" >
           <Parameters>
           <InterpolatingParam id="5989" interp="linr"  time="0/1" value="-1" leadInLength="0/1"   name="sensitivity"/>
           </Parameters>
          </GenericEffect>
          <GenericEffect id="5990" name = "Declicker" >
           <Parameters>
           <InterpolatingParam id="5991" interp="linr"  time="0/1" value="3" leadInLength="0/1"   name="sensitivity"/>
           </Parameters>
          </GenericEffect>
         </Effects>
         <Attributes>
          <Attribute id="5992" value="" name="ident"/>
          <Attribute id="5993" value="0" name="mixToMono"/>
         </Attributes>
         <MetaData>
          <entry key="WinSubProjectDisplayName" val=""/>
         </MetaData>
         <ExtraData>
          <Entry key="ZoomPanBin">
           <ZoomPanBin id="5994"  >
            <ZoomPanKeyframes>
            </ZoomPanKeyframes>
           </ZoomPanBin>
          </Entry>
          <Entry key="CursorEffectBin">
           <CursorEffectBin id="5995"  >
            <CursorEffectKeyframes>
            </CursorEffectKeyframes>
           </CursorEffectBin>
          </Entry>
         </ExtraData>
         <GenericTrack id="5996"  >
          <Attributes>
           <Attribute id="5997" value="" name="ident"/>
           <Attribute id="5998" value="0" name="audioMuted"/>
           <Attribute id="5999" value="0" name="videoHidden"/>
          </Attributes>
          <MetaData>
           <entry key="IsLocked" val="False"/>
           <entry key="WinTrackHeight" val="0"/>
          </MetaData>
          <Medias>
           <AMFile id="6000" start="0" duration="8837" scalar="1/1" mediaStart="0/1" mediaDuration="8837/1" trackNumber="0" src="22" channelNumber="0" >
            <Parameters>
             <InterpolatingParam id="6001" interp="linr"  time="0/1" value="1" leadInLength="0/1"  name="volume"/>
             <Parameter id="6002"  name="captions"/>
            </Parameters>
            <Attributes>
             <Attribute id="6003" value="" name="ident"/>
             <Attribute id="6004" value="44100" name="sampleRate"/>
             <Attribute id="6005" value="16" name="bitDepth"/>
             <Attribute id="6006" value="1" name="gain"/>
             <Attribute id="6007" value="0" name="mixToMono"/>
            </Attributes>
            <MetaData>
             <entry key="WinSubProjectDisplayName" val=""/>
            </MetaData>
           </AMFile>
           <AMFile id="6008" start="8837" duration="5731" scalar="1/1" mediaStart="8837/1" mediaDuration="5731/1" trackNumber="0" src="22" channelNumber="0" >
            <Parameters>
             <InterpolatingParam id="6009" interp="linr"  time="0/1" value="1" leadInLength="0/1"  name="volume"/>
             <Parameter id="6010"  name="captions"/>
            </Parameters>
            <Attributes>
             <Attribute id="6011" value="" name="ident"/>
             <Attribute id="6012" value="44100" name="sampleRate"/>
             <Attribute id="6013" value="16" name="bitDepth"/>
             <Attribute id="6014" value="1" name="gain"/>
             <Attribute id="6015" value="0" name="mixToMono"/>
            </Attributes>
            <MetaData>
             <entry key="WinSubProjectDisplayName" val=""/>
            </MetaData>
           </AMFile>
          </Medias>
         </GenericTrack>
        </StitchedMedia>
        <AMFile id="6016" start="6307" duration="130" scalar="1/1" mediaStart="8884/1" mediaDuration="130/1" trackNumber="0" src="22" channelNumber="0" >
         <Parameters>
          <InterpolatingParam id="6017" interp="linr"  name="volume">
           <Keyframes>
           <Keyframe id="6018"  time="0/1" value="1" leadInLength="0/1"  />
           <Keyframe id="6019"  time="3301/1" value="1" leadInLength="0/1"  />
           <Keyframe id="6020"  time="3302/1" value="0.80000000000000004" leadInLength="0/1"  />
           <Keyframe id="6021"  time="14568/1" value="0.80000000000000004" leadInLength="0/1"  />
           <Keyframe id="6022"  time="14569/1" value="1" leadInLength="0/1"  />
           </Keyframes>
          </InterpolatingParam>
          <Parameter id="6023"  name="captions"/>
         </Parameters>
         <Effects>
          <GenericEffect id="6024" name = "NoiseReduction" >
           <Parameters>
           <InterpolatingParam id="6025" interp="linr"  time="0/1" value="20" leadInLength="0/1"   name="denoiserAmount"/>
           <InterpolatingParam id="6026" interp="linr"  time="0/1" value="0" leadInLength="0/1"   name="denoiserThreshold"/>
           <Parameter id="6027"   name="noiseProfile">
            <Keyframes>
            <Keyframe id="6028"  time="0/1" value="FBAAAAIAAABErAAAAQIAADOmYsI/y13CPNeLwsehjcK+No/Cm+aOwlHvjcIja5HCun6XwoKemMJy&#xD;&#xa;lpPCuQeRwhgMlcJGdZvCTjScwgFMncIGh5zCGrOawuO0nMJdJZ3Cybudwo6toMIdraPCs/6jwpY0&#xD;&#xa;psLIUqjCWQmpwonmp8KcE6XCgXGlwqC+psIFHabCBoyownWvqcIkX6jCgnCpwms3qsIW0KfCM7Oj&#xD;&#xa;wnGLosJgcKnCdk6swiIgscKFrbDCtNmowrZmpcIHYqjCCg2pwqUNq8KgHq7ChEGxwhVFs8KU6LLC&#xD;&#xa;dvWzwpVHscI6NrDCMpGwwubcs8Imh7bCPKq6wj7tvMKSbr3ClsG+wq4qwMLXQr7CpAK5whxiuMJp&#xD;&#xa;v7nCwu29wloQvsIXTL3CzjDAwsDTwcL69sHC8urAwtAFwMIkSMLCpJHDwjLOw8JG8sTCmMvDwq7H&#xD;&#xa;wsLOncPC+CDDwkh6wsLU5sPCP23Fwm5Qx8KlYsTCm0XCwnhexcLsTsPCSMPDwjvJw8LMWcHC2XHD&#xD;&#xa;wjj5wsICs8TChWvEwgCywcKDdcHCFnHCwurMxMLlVsTCfrDGwmzqyMKoGsfC7ITIwtqRyMJwzcbC&#xD;&#xa;ppbEwiv5xcIXxsTCzDfCwtSExMKEjcTC8ObDwiJ9yMIQm8vCIkDGwqHyxcIyYcbCyAXIwmyBx8I4&#xD;&#xa;n8PCvyPGwuiKxMJggMfCdL3JwsMhysLi6sXCRa7Ewoykx8Jk/MXC0NfEwtK0xcJQTMTCvvvGwtqJ&#xD;&#xa;xMKmFsTCSbfGwq76x8IQ+sjCsqnIwkJdycIaT8fC0nbHwlf2xsLg/cbCtIHHwsTvxsI0KsbCsqDH&#xD;&#xa;wgLix8JGKcXCyNTDwjDwwsIb98bC6MjJwg6Zy8Kg+cvCaC3HwtIgw8KW7sXC3EHGwmcUxcL++8fC&#xD;&#xa;CWbIwsDoxsJFz8PCJkXFwiD7xcIQDsfC8ljIwrDLxMKkeMLClpHEwiqgyMJcjcjC6krGwl50w8Iy&#xD;&#xa;7sXCWv3HwkQ1xsKUwMPC2K/EwootxMJUqMTCH3LDwuojxcKil8fCjmXIwkLJxcID78TClTvGwhel&#xD;&#xa;xsIca8bC1rbCwk6+wsIQfsfCIlPHwpJExcLWhMbCDNvEwuryxMKklMXCeBDDwolhwcIiasLCQYfE&#xD;&#xa;whUfwsJx4MTCsEnIwkX0xcK+3sbCIqLHwrARx8IWtMTCGAnFwomNxMLfbcTCQIPDwjqww8L+MMTC&#xD;&#xa;mqjHwrBaxMI6YsTCxmvIwqyKycKQaMXCnx7FwkYvx8In6sjCGMzIwuvAxcL8a8XCiBjJwkvwyMKI&#xD;&#xa;qMbCTCTIwvQSy8IxEsvCVT/JwrI3w8LA8sLCCD7EwsxXxMJSjsXCfjXFwqTKxMI/gsPCDozDwtwF&#xD;&#xa;xMISn8bChHvJwlFQyMJYCsbCP4jIwtkBycLiFsrCbCrKwvyTysIWncnC+A3HwuI5x8I8/MbC0hHI&#xD;&#xa;wopJzMLmb83CFkvMwpy/y8Kn7MrCfJrJwuLDyMJKn8bCStTGwpb7ycIMo8nCcivFwsapxcJkx8bC&#xD;&#xa;ALLIwriaycJM3cfC8r/KwlSoy8I4A8vCpFHJwkRrzMIKr87CWD7MwsiJycKW9cfCUjbKwq+YycLi&#xD;&#xa;U8jCROHHwhdWycKaU8nCF7jMwmKaz8L//8zC8tjOwjxezsIUysvCzHLJwiJryMLRm8bCgLjKwsi8&#xD;&#xa;ysIhfszCPETLwqtbyMJGeMfCpRPJwnwZzMJSIs3CqhPMwmDiyMLZYsjCz13KwgwKy8LCi8jCyrTM&#xD;&#xa;wgwxzMK4ZcvC087JwkV2xsLyXsnCjIbLwhwvzcLfrM7CeITKwla3ysLK3cnC/PHFwpScxcIUQ8nC&#xD;&#xa;NJzIwrEsxsJvZcfCXSvIwlKLx8JII8nCvgzKwpnhysJSC8vC9iTKwiA/y8IadczCuDrMwuVaysLO&#xD;&#xa;r8vCXtfJwrZ6ycItucnCtonJwjyTysJkC83CL0nMwkjdyMIBucfCixrLwvSDysKGX8nCsCzMwuas&#xD;&#xa;0cIsnNPCuEvOwtr5y8LMBc7Cr+PTwsQc5MLcOfPCKOj0wjr59cJ0C/fCzg75wkwh+8LmVPnCqz72&#xD;&#xa;wnB+9cLuJvrCtEL4wkp7+MLOfffCDN3zwkaz9sLi8vjCFKr6wgIQ+cI8iPjCBpT4wvR1+MLQI/rC&#xD;&#xa;Ihn8wlQg+sIcLvjCVCz2wsI49MJQ9fbC23H3woy69sL4BfnCIOb2wjwy9cIuGvnCdmb3wj7K9MI+&#xD;&#xa;KPXCJpr2wn7C9cKQDvnCthv7woaP+cLGaPbCTr32wrpN+cIFSPjCDvX4wtD39sJY//TCKGf3wvZI&#xD;&#xa;+cK9YvfCgYf3wjIf+sLMMvfCpjz2wuA6+cII8vbCxDv1wmJG9sLka/rCPrT1wi589cLqjfbC9qP4&#xD;&#xa;wgzJ+MLelPbCGir2wlBC9sKeU/jC/nn3wsYn9sL4QPjCXBj5wopQ+MIaJvnCSB36wgjc+MIMfPfC&#xD;&#xa;W+z1wmYG+MKuxPnCCuD1wjh+9sLDrPfCOPj3wm7h+MJjMvfCxH/2wsXf98KwN/nCKOn5wrLR+sKg&#xD;&#xa;bPvCkFv5wsAu+cL2hffCySz2wmRX+MKiiPjCzFX4wvjB98Jgz/fCxPT4wobP+cL8avjC9r34wnKx&#xD;&#xa;+MK+LPnC3H34wle39cKejfbCNKP2wg5B9sK0H/rCSvz2woqE98JAqfjCBPL4wmKi+MIu2/jCMFD5&#xD;&#xa;wiCM+cKo//nCGqz7wlZN+sKUDfjC0ov4wrIU+sIVpffCP2/3woye98KktPbCTJj2wpH29cL3mvbC&#xD;&#xa;jL/4wti/+MLm3vjCQ9QEwzOmYsI/y13CPNeLwsehjcK+No/Cm+aOwlHvjcIja5HCun6XwoKemMJy&#xD;&#xa;lpPCuQeRwhgMlcJGdZvCTjScwgFMncIGh5zCGrOawuO0nMJdJZ3Cybudwo6toMIdraPCs/6jwpY0&#xD;&#xa;psLIUqjCWQmpwonmp8KcE6XCgXGlwqC+psIFHabCBoyownWvqcIkX6jCgnCpwms3qsIW0KfCM7Oj&#xD;&#xa;wnGLosJgcKnCdk6swiIgscKFrbDCtNmowrZmpcIHYqjCCg2pwqUNq8KgHq7ChEGxwhVFs8KU6LLC&#xD;&#xa;dvWzwpVHscI6NrDCMpGwwubcs8Imh7bCPKq6wj7tvMKSbr3ClsG+wq4qwMLXQr7CpAK5whxiuMJp&#xD;&#xa;v7nCwu29wloQvsIXTL3CzjDAwsDTwcL69sHC8urAwtAFwMIkSMLCpJHDwjLOw8JG8sTCmMvDwq7H&#xD;&#xa;wsLOncPC+CDDwkh6wsLU5sPCP23Fwm5Qx8KlYsTCm0XCwnhexcLsTsPCSMPDwjvJw8LMWcHC2XHD&#xD;&#xa;wjj5wsICs8TChWvEwgCywcKDdcHCFnHCwurMxMLlVsTCfrDGwmzqyMKoGsfC7ITIwtqRyMJwzcbC&#xD;&#xa;ppbEwiv5xcIXxsTCzDfCwtSExMKEjcTC8ObDwiJ9yMIQm8vCIkDGwqHyxcIyYcbCyAXIwmyBx8I4&#xD;&#xa;n8PCvyPGwuiKxMJggMfCdL3JwsMhysLi6sXCRa7Ewoykx8Jk/MXC0NfEwtK0xcJQTMTCvvvGwtqJ&#xD;&#xa;xMKmFsTCSbfGwq76x8IQ+sjCsqnIwkJdycIaT8fC0nbHwlf2xsLg/cbCtIHHwsTvxsI0KsbCsqDH&#xD;&#xa;wgLix8JGKcXCyNTDwjDwwsIb98bC6MjJwg6Zy8Kg+cvCaC3HwtIgw8KW7sXC3EHGwmcUxcL++8fC&#xD;&#xa;CWbIwsDoxsJFz8PCJkXFwiD7xcIQDsfC8ljIwrDLxMKkeMLClpHEwiqgyMJcjcjC6krGwl50w8Iy&#xD;&#xa;7sXCWv3HwkQ1xsKUwMPC2K/EwootxMJUqMTCH3LDwuojxcKil8fCjmXIwkLJxcID78TClTvGwhel&#xD;&#xa;xsIca8bC1rbCwk6+wsIQfsfCIlPHwpJExcLWhMbCDNvEwuryxMKklMXCeBDDwolhwcIiasLCQYfE&#xD;&#xa;whUfwsJx4MTCsEnIwkX0xcK+3sbCIqLHwrARx8IWtMTCGAnFwomNxMLfbcTCQIPDwjqww8L+MMTC&#xD;&#xa;mqjHwrBaxMI6YsTCxmvIwqyKycKQaMXCnx7FwkYvx8In6sjCGMzIwuvAxcL8a8XCiBjJwkvwyMKI&#xD;&#xa;qMbCTCTIwvQSy8IxEsvCVT/JwrI3w8LA8sLCCD7EwsxXxMJSjsXCfjXFwqTKxMI/gsPCDozDwtwF&#xD;&#xa;xMISn8bChHvJwlFQyMJYCsbCP4jIwtkBycLiFsrCbCrKwvyTysIWncnC+A3HwuI5x8I8/MbC0hHI&#xD;&#xa;wopJzMLmb83CFkvMwpy/y8Kn7MrCfJrJwuLDyMJKn8bCStTGwpb7ycIMo8nCcivFwsapxcJkx8bC&#xD;&#xa;ALLIwriaycJM3cfC8r/KwlSoy8I4A8vCpFHJwkRrzMIKr87CWD7MwsiJycKW9cfCUjbKwq+YycLi&#xD;&#xa;U8jCROHHwhdWycKaU8nCF7jMwmKaz8L//8zC8tjOwjxezsIUysvCzHLJwiJryMLRm8bCgLjKwsi8&#xD;&#xa;ysIhfszCPETLwqtbyMJGeMfCpRPJwnwZzMJSIs3CqhPMwmDiyMLZYsjCz13KwgwKy8LCi8jCyrTM&#xD;&#xa;wgwxzMK4ZcvC087JwkV2xsLyXsnCjIbLwhwvzcLfrM7CeITKwla3ysLK3cnC/PHFwpScxcIUQ8nC&#xD;&#xa;NJzIwrEsxsJvZcfCXSvIwlKLx8JII8nCvgzKwpnhysJSC8vC9iTKwiA/y8IadczCuDrMwuVaysLO&#xD;&#xa;r8vCXtfJwrZ6ycItucnCtonJwjyTysJkC83CL0nMwkjdyMIBucfCixrLwvSDysKGX8nCsCzMwuas&#xD;&#xa;0cIsnNPCuEvOwtr5y8LMBc7Cr+PTwsQc5MLcOfPCKOj0wjr59cJ0C/fCzg75wkwh+8LmVPnCqz72&#xD;&#xa;wnB+9cLuJvrCtEL4wkp7+MLOfffCDN3zwkaz9sLi8vjCFKr6wgIQ+cI8iPjCBpT4wvR1+MLQI/rC&#xD;&#xa;Ihn8wlQg+sIcLvjCVCz2wsI49MJQ9fbC23H3woy69sL4BfnCIOb2wjwy9cIuGvnCdmb3wj7K9MI+&#xD;&#xa;KPXCJpr2wn7C9cKQDvnCthv7woaP+cLGaPbCTr32wrpN+cIFSPjCDvX4wtD39sJY//TCKGf3wvZI&#xD;&#xa;+cK9YvfCgYf3wjIf+sLMMvfCpjz2wuA6+cII8vbCxDv1wmJG9sLka/rCPrT1wi589cLqjfbC9qP4&#xD;&#xa;wgzJ+MLelPbCGir2wlBC9sKeU/jC/nn3wsYn9sL4QPjCXBj5wopQ+MIaJvnCSB36wgjc+MIMfPfC&#xD;&#xa;W+z1wmYG+MKuxPnCCuD1wjh+9sLDrPfCOPj3wm7h+MJjMvfCxH/2wsXf98KwN/nCKOn5wrLR+sKg&#xD;&#xa;bPvCkFv5wsAu+cL2hffCySz2wmRX+MKiiPjCzFX4wvjB98Jgz/fCxPT4wobP+cL8avjC9r34wnKx&#xD;&#xa;+MK+LPnC3H34wle39cKejfbCNKP2wg5B9sK0H/rCSvz2woqE98JAqfjCBPL4wmKi+MIu2/jCMFD5&#xD;&#xa;wiCM+cKo//nCGqz7wlZN+sKUDfjC0ov4wrIU+sIVpffCP2/3woye98KktPbCTJj2wpH29cL3mvbC&#xD;&#xa;jL/4wti/+MLm3vjCQ9QE" leadInLength="0/1"  />
            </Keyframes>
           </Parameter>
           </Parameters>
          </GenericEffect>
          <GenericEffect id="6029" name = "WinCompression" >
           <Parameters>
           <InterpolatingParam id="6030" interp="linr"  time="0/1" value="0" leadInLength="0/1"   name="attack"/>
           <InterpolatingParam id="6031" interp="linr"  time="0/1" value="9" leadInLength="0/1"   name="gain"/>
           <Parameter id="6032"   name="preset">
            <Keyframes>
            <Keyframe id="6033"  time="0/1" value="1" leadInLength="0/1"  />
            </Keyframes>
           </Parameter>
           <InterpolatingParam id="6034" interp="linr"  time="0/1" value="10" leadInLength="0/1"   name="ratio"/>
           <InterpolatingParam id="6035" interp="linr"  time="0/1" value="3500" leadInLength="0/1"   name="release"/>
           <InterpolatingParam id="6036" interp="linr"  time="0/1" value="-20" leadInLength="0/1"   name="threshold"/>
           </Parameters>
          </GenericEffect>
          <GenericEffect id="6037" name = "Declipper" >
           <Parameters>
           <InterpolatingParam id="6038" interp="linr"  time="0/1" value="-1" leadInLength="0/1"   name="sensitivity"/>
           </Parameters>
          </GenericEffect>
          <GenericEffect id="6039" name = "Declicker" >
           <Parameters>
           <InterpolatingParam id="6040" interp="linr"  time="0/1" value="3" leadInLength="0/1"   name="sensitivity"/>
           </Parameters>
          </GenericEffect>
         </Effects>
         <Attributes>
          <Attribute id="6041" value="" name="ident"/>
          <Attribute id="6042" value="44100" name="sampleRate"/>
          <Attribute id="6043" value="16" name="bitDepth"/>
          <Attribute id="6044" value="1" name="gain"/>
          <Attribute id="6045" value="0" name="mixToMono"/>
         </Attributes>
         <MetaData>
          <entry key="WinSubProjectDisplayName" val=""/>
         </MetaData>
        </AMFile>
        <StitchedMedia id="6046" start="6459" duration="995" scalar="1/1" mediaStart="9691/1" mediaDuration="995/1" minMediaStart="0/1" >
         <Transformer>
          <VectorParam id="6047"  name="translation">
           <InterpolatingParam id="6048" interp="linr"  time="0/1" value="0" leadInLength="0/1"  />
           <InterpolatingParam id="6049" interp="linr"  time="0/1" value="0" leadInLength="0/1"  />
           <InterpolatingParam id="6050" interp="linr"  time="0/1" value="0" leadInLength="0/1"  />
          </VectorParam>
          <VectorParam id="6051"  name="rotation">
           <InterpolatingParam id="6052" interp="linr"  time="0/1" value="0" leadInLength="0/1"  />
           <InterpolatingParam id="6053" interp="linr"  time="0/1" value="0" leadInLength="0/1"  />
           <InterpolatingParam id="6054" interp="linr"  time="0/1" value="0" leadInLength="0/1"  />
          </VectorParam>
          <VectorParam id="6055"  name="shear">
           <InterpolatingParam id="6056" interp="linr"  time="0/1" value="0" leadInLength="0/1"  />
           <InterpolatingParam id="6057" interp="linr"  time="0/1" value="0" leadInLength="0/1"  />
           <InterpolatingParam id="6058" interp="linr"  time="0/1" value="0" leadInLength="0/1"  />
          </VectorParam>
          <VectorParam id="6059"  name="scale">
           <InterpolatingParam id="6060" interp="linr"  time="0/1" value="1" leadInLength="0/1"  />
           <InterpolatingParam id="6061" interp="linr"  time="0/1" value="1" leadInLength="0/1"  />
           <InterpolatingParam id="6062" interp="linr"  time="0/1" value="1" leadInLength="0/1"  />
          </VectorParam>
          <VectorParam id="6063"  name="anchor">
           <InterpolatingParam id="6064" interp="linr"  time="0/1" value="0" leadInLength="0/1"  />
           <InterpolatingParam id="6065" interp="linr"  time="0/1" value="0" leadInLength="0/1"  />
           <InterpolatingParam id="6066" interp="linr"  time="0/1" value="0" leadInLength="0/1"  />
          </VectorParam>
         </Transformer>
         <Parameters>
          <InterpolatingParam id="6067" interp="linr"  time="0/1" value="1" leadInLength="0/1"  name="cursorOpacity"/>
          <InterpolatingParam id="6068" interp="linr"  time="0/1" value="1" leadInLength="0/1"  name="cursorScale"/>
          <InterpolatingParam id="6069" interp="linr"  name="volume">
           <Keyframes>
           <Keyframe id="6070"  time="0/1" value="1" leadInLength="0/1"  />
           <Keyframe id="6071"  time="3301/1" value="1" leadInLength="0/1"  />
           <Keyframe id="6072"  time="3302/1" value="0.80000000000000004" leadInLength="0/1"  />
           <Keyframe id="6073"  time="14222/1" value="0.80000000000000004" leadInLength="0/1"  />
           <Keyframe id="6074"  time="14223/1" value="1" leadInLength="0/1"  />
           </Keyframes>
          </InterpolatingParam>
          <Parameter id="6075"  name="captions"/>
         </Parameters>
         <Effects>
          <GenericEffect id="6076" name = "NoiseReduction" >
           <Parameters>
           <InterpolatingParam id="6077" interp="linr"  time="0/1" value="20" leadInLength="0/1"   name="denoiserAmount"/>
           <InterpolatingParam id="6078" interp="linr"  time="0/1" value="0" leadInLength="0/1"   name="denoiserThreshold"/>
           <Parameter id="6079"   name="noiseProfile">
            <Keyframes>
            <Keyframe id="6080"  time="0/1" value="FBAAAAIAAABErAAAAQIAADOmYsI/y13CPNeLwsehjcK+No/Cm+aOwlHvjcIja5HCun6XwoKemMJy&#xD;&#xa;lpPCuQeRwhgMlcJGdZvCTjScwgFMncIGh5zCGrOawuO0nMJdJZ3Cybudwo6toMIdraPCs/6jwpY0&#xD;&#xa;psLIUqjCWQmpwonmp8KcE6XCgXGlwqC+psIFHabCBoyownWvqcIkX6jCgnCpwms3qsIW0KfCM7Oj&#xD;&#xa;wnGLosJgcKnCdk6swiIgscKFrbDCtNmowrZmpcIHYqjCCg2pwqUNq8KgHq7ChEGxwhVFs8KU6LLC&#xD;&#xa;dvWzwpVHscI6NrDCMpGwwubcs8Imh7bCPKq6wj7tvMKSbr3ClsG+wq4qwMLXQr7CpAK5whxiuMJp&#xD;&#xa;v7nCwu29wloQvsIXTL3CzjDAwsDTwcL69sHC8urAwtAFwMIkSMLCpJHDwjLOw8JG8sTCmMvDwq7H&#xD;&#xa;wsLOncPC+CDDwkh6wsLU5sPCP23Fwm5Qx8KlYsTCm0XCwnhexcLsTsPCSMPDwjvJw8LMWcHC2XHD&#xD;&#xa;wjj5wsICs8TChWvEwgCywcKDdcHCFnHCwurMxMLlVsTCfrDGwmzqyMKoGsfC7ITIwtqRyMJwzcbC&#xD;&#xa;ppbEwiv5xcIXxsTCzDfCwtSExMKEjcTC8ObDwiJ9yMIQm8vCIkDGwqHyxcIyYcbCyAXIwmyBx8I4&#xD;&#xa;n8PCvyPGwuiKxMJggMfCdL3JwsMhysLi6sXCRa7Ewoykx8Jk/MXC0NfEwtK0xcJQTMTCvvvGwtqJ&#xD;&#xa;xMKmFsTCSbfGwq76x8IQ+sjCsqnIwkJdycIaT8fC0nbHwlf2xsLg/cbCtIHHwsTvxsI0KsbCsqDH&#xD;&#xa;wgLix8JGKcXCyNTDwjDwwsIb98bC6MjJwg6Zy8Kg+cvCaC3HwtIgw8KW7sXC3EHGwmcUxcL++8fC&#xD;&#xa;CWbIwsDoxsJFz8PCJkXFwiD7xcIQDsfC8ljIwrDLxMKkeMLClpHEwiqgyMJcjcjC6krGwl50w8Iy&#xD;&#xa;7sXCWv3HwkQ1xsKUwMPC2K/EwootxMJUqMTCH3LDwuojxcKil8fCjmXIwkLJxcID78TClTvGwhel&#xD;&#xa;xsIca8bC1rbCwk6+wsIQfsfCIlPHwpJExcLWhMbCDNvEwuryxMKklMXCeBDDwolhwcIiasLCQYfE&#xD;&#xa;whUfwsJx4MTCsEnIwkX0xcK+3sbCIqLHwrARx8IWtMTCGAnFwomNxMLfbcTCQIPDwjqww8L+MMTC&#xD;&#xa;mqjHwrBaxMI6YsTCxmvIwqyKycKQaMXCnx7FwkYvx8In6sjCGMzIwuvAxcL8a8XCiBjJwkvwyMKI&#xD;&#xa;qMbCTCTIwvQSy8IxEsvCVT/JwrI3w8LA8sLCCD7EwsxXxMJSjsXCfjXFwqTKxMI/gsPCDozDwtwF&#xD;&#xa;xMISn8bChHvJwlFQyMJYCsbCP4jIwtkBycLiFsrCbCrKwvyTysIWncnC+A3HwuI5x8I8/MbC0hHI&#xD;&#xa;wopJzMLmb83CFkvMwpy/y8Kn7MrCfJrJwuLDyMJKn8bCStTGwpb7ycIMo8nCcivFwsapxcJkx8bC&#xD;&#xa;ALLIwriaycJM3cfC8r/KwlSoy8I4A8vCpFHJwkRrzMIKr87CWD7MwsiJycKW9cfCUjbKwq+YycLi&#xD;&#xa;U8jCROHHwhdWycKaU8nCF7jMwmKaz8L//8zC8tjOwjxezsIUysvCzHLJwiJryMLRm8bCgLjKwsi8&#xD;&#xa;ysIhfszCPETLwqtbyMJGeMfCpRPJwnwZzMJSIs3CqhPMwmDiyMLZYsjCz13KwgwKy8LCi8jCyrTM&#xD;&#xa;wgwxzMK4ZcvC087JwkV2xsLyXsnCjIbLwhwvzcLfrM7CeITKwla3ysLK3cnC/PHFwpScxcIUQ8nC&#xD;&#xa;NJzIwrEsxsJvZcfCXSvIwlKLx8JII8nCvgzKwpnhysJSC8vC9iTKwiA/y8IadczCuDrMwuVaysLO&#xD;&#xa;r8vCXtfJwrZ6ycItucnCtonJwjyTysJkC83CL0nMwkjdyMIBucfCixrLwvSDysKGX8nCsCzMwuas&#xD;&#xa;0cIsnNPCuEvOwtr5y8LMBc7Cr+PTwsQc5MLcOfPCKOj0wjr59cJ0C/fCzg75wkwh+8LmVPnCqz72&#xD;&#xa;wnB+9cLuJvrCtEL4wkp7+MLOfffCDN3zwkaz9sLi8vjCFKr6wgIQ+cI8iPjCBpT4wvR1+MLQI/rC&#xD;&#xa;Ihn8wlQg+sIcLvjCVCz2wsI49MJQ9fbC23H3woy69sL4BfnCIOb2wjwy9cIuGvnCdmb3wj7K9MI+&#xD;&#xa;KPXCJpr2wn7C9cKQDvnCthv7woaP+cLGaPbCTr32wrpN+cIFSPjCDvX4wtD39sJY//TCKGf3wvZI&#xD;&#xa;+cK9YvfCgYf3wjIf+sLMMvfCpjz2wuA6+cII8vbCxDv1wmJG9sLka/rCPrT1wi589cLqjfbC9qP4&#xD;&#xa;wgzJ+MLelPbCGir2wlBC9sKeU/jC/nn3wsYn9sL4QPjCXBj5wopQ+MIaJvnCSB36wgjc+MIMfPfC&#xD;&#xa;W+z1wmYG+MKuxPnCCuD1wjh+9sLDrPfCOPj3wm7h+MJjMvfCxH/2wsXf98KwN/nCKOn5wrLR+sKg&#xD;&#xa;bPvCkFv5wsAu+cL2hffCySz2wmRX+MKiiPjCzFX4wvjB98Jgz/fCxPT4wobP+cL8avjC9r34wnKx&#xD;&#xa;+MK+LPnC3H34wle39cKejfbCNKP2wg5B9sK0H/rCSvz2woqE98JAqfjCBPL4wmKi+MIu2/jCMFD5&#xD;&#xa;wiCM+cKo//nCGqz7wlZN+sKUDfjC0ov4wrIU+sIVpffCP2/3woye98KktPbCTJj2wpH29cL3mvbC&#xD;&#xa;jL/4wti/+MLm3vjCQ9QEwzOmYsI/y13CPNeLwsehjcK+No/Cm+aOwlHvjcIja5HCun6XwoKemMJy&#xD;&#xa;lpPCuQeRwhgMlcJGdZvCTjScwgFMncIGh5zCGrOawuO0nMJdJZ3Cybudwo6toMIdraPCs/6jwpY0&#xD;&#xa;psLIUqjCWQmpwonmp8KcE6XCgXGlwqC+psIFHabCBoyownWvqcIkX6jCgnCpwms3qsIW0KfCM7Oj&#xD;&#xa;wnGLosJgcKnCdk6swiIgscKFrbDCtNmowrZmpcIHYqjCCg2pwqUNq8KgHq7ChEGxwhVFs8KU6LLC&#xD;&#xa;dvWzwpVHscI6NrDCMpGwwubcs8Imh7bCPKq6wj7tvMKSbr3ClsG+wq4qwMLXQr7CpAK5whxiuMJp&#xD;&#xa;v7nCwu29wloQvsIXTL3CzjDAwsDTwcL69sHC8urAwtAFwMIkSMLCpJHDwjLOw8JG8sTCmMvDwq7H&#xD;&#xa;wsLOncPC+CDDwkh6wsLU5sPCP23Fwm5Qx8KlYsTCm0XCwnhexcLsTsPCSMPDwjvJw8LMWcHC2XHD&#xD;&#xa;wjj5wsICs8TChWvEwgCywcKDdcHCFnHCwurMxMLlVsTCfrDGwmzqyMKoGsfC7ITIwtqRyMJwzcbC&#xD;&#xa;ppbEwiv5xcIXxsTCzDfCwtSExMKEjcTC8ObDwiJ9yMIQm8vCIkDGwqHyxcIyYcbCyAXIwmyBx8I4&#xD;&#xa;n8PCvyPGwuiKxMJggMfCdL3JwsMhysLi6sXCRa7Ewoykx8Jk/MXC0NfEwtK0xcJQTMTCvvvGwtqJ&#xD;&#xa;xMKmFsTCSbfGwq76x8IQ+sjCsqnIwkJdycIaT8fC0nbHwlf2xsLg/cbCtIHHwsTvxsI0KsbCsqDH&#xD;&#xa;wgLix8JGKcXCyNTDwjDwwsIb98bC6MjJwg6Zy8Kg+cvCaC3HwtIgw8KW7sXC3EHGwmcUxcL++8fC&#xD;&#xa;CWbIwsDoxsJFz8PCJkXFwiD7xcIQDsfC8ljIwrDLxMKkeMLClpHEwiqgyMJcjcjC6krGwl50w8Iy&#xD;&#xa;7sXCWv3HwkQ1xsKUwMPC2K/EwootxMJUqMTCH3LDwuojxcKil8fCjmXIwkLJxcID78TClTvGwhel&#xD;&#xa;xsIca8bC1rbCwk6+wsIQfsfCIlPHwpJExcLWhMbCDNvEwuryxMKklMXCeBDDwolhwcIiasLCQYfE&#xD;&#xa;whUfwsJx4MTCsEnIwkX0xcK+3sbCIqLHwrARx8IWtMTCGAnFwomNxMLfbcTCQIPDwjqww8L+MMTC&#xD;&#xa;mqjHwrBaxMI6YsTCxmvIwqyKycKQaMXCnx7FwkYvx8In6sjCGMzIwuvAxcL8a8XCiBjJwkvwyMKI&#xD;&#xa;qMbCTCTIwvQSy8IxEsvCVT/JwrI3w8LA8sLCCD7EwsxXxMJSjsXCfjXFwqTKxMI/gsPCDozDwtwF&#xD;&#xa;xMISn8bChHvJwlFQyMJYCsbCP4jIwtkBycLiFsrCbCrKwvyTysIWncnC+A3HwuI5x8I8/MbC0hHI&#xD;&#xa;wopJzMLmb83CFkvMwpy/y8Kn7MrCfJrJwuLDyMJKn8bCStTGwpb7ycIMo8nCcivFwsapxcJkx8bC&#xD;&#xa;ALLIwriaycJM3cfC8r/KwlSoy8I4A8vCpFHJwkRrzMIKr87CWD7MwsiJycKW9cfCUjbKwq+YycLi&#xD;&#xa;U8jCROHHwhdWycKaU8nCF7jMwmKaz8L//8zC8tjOwjxezsIUysvCzHLJwiJryMLRm8bCgLjKwsi8&#xD;&#xa;ysIhfszCPETLwqtbyMJGeMfCpRPJwnwZzMJSIs3CqhPMwmDiyMLZYsjCz13KwgwKy8LCi8jCyrTM&#xD;&#xa;wgwxzMK4ZcvC087JwkV2xsLyXsnCjIbLwhwvzcLfrM7CeITKwla3ysLK3cnC/PHFwpScxcIUQ8nC&#xD;&#xa;NJzIwrEsxsJvZcfCXSvIwlKLx8JII8nCvgzKwpnhysJSC8vC9iTKwiA/y8IadczCuDrMwuVaysLO&#xD;&#xa;r8vCXtfJwrZ6ycItucnCtonJwjyTysJkC83CL0nMwkjdyMIBucfCixrLwvSDysKGX8nCsCzMwuas&#xD;&#xa;0cIsnNPCuEvOwtr5y8LMBc7Cr+PTwsQc5MLcOfPCKOj0wjr59cJ0C/fCzg75wkwh+8LmVPnCqz72&#xD;&#xa;wnB+9cLuJvrCtEL4wkp7+MLOfffCDN3zwkaz9sLi8vjCFKr6wgIQ+cI8iPjCBpT4wvR1+MLQI/rC&#xD;&#xa;Ihn8wlQg+sIcLvjCVCz2wsI49MJQ9fbC23H3woy69sL4BfnCIOb2wjwy9cIuGvnCdmb3wj7K9MI+&#xD;&#xa;KPXCJpr2wn7C9cKQDvnCthv7woaP+cLGaPbCTr32wrpN+cIFSPjCDvX4wtD39sJY//TCKGf3wvZI&#xD;&#xa;+cK9YvfCgYf3wjIf+sLMMvfCpjz2wuA6+cII8vbCxDv1wmJG9sLka/rCPrT1wi589cLqjfbC9qP4&#xD;&#xa;wgzJ+MLelPbCGir2wlBC9sKeU/jC/nn3wsYn9sL4QPjCXBj5wopQ+MIaJvnCSB36wgjc+MIMfPfC&#xD;&#xa;W+z1wmYG+MKuxPnCCuD1wjh+9sLDrPfCOPj3wm7h+MJjMvfCxH/2wsXf98KwN/nCKOn5wrLR+sKg&#xD;&#xa;bPvCkFv5wsAu+cL2hffCySz2wmRX+MKiiPjCzFX4wvjB98Jgz/fCxPT4wobP+cL8avjC9r34wnKx&#xD;&#xa;+MK+LPnC3H34wle39cKejfbCNKP2wg5B9sK0H/rCSvz2woqE98JAqfjCBPL4wmKi+MIu2/jCMFD5&#xD;&#xa;wiCM+cKo//nCGqz7wlZN+sKUDfjC0ov4wrIU+sIVpffCP2/3woye98KktPbCTJj2wpH29cL3mvbC&#xD;&#xa;jL/4wti/+MLm3vjCQ9QE" leadInLength="0/1"  />
            </Keyframes>
           </Parameter>
           </Parameters>
          </GenericEffect>
          <GenericEffect id="6081" name = "WinCompression" >
           <Parameters>
           <InterpolatingParam id="6082" interp="linr"  time="0/1" value="0" leadInLength="0/1"   name="attack"/>
           <InterpolatingParam id="6083" interp="linr"  time="0/1" value="9" leadInLength="0/1"   name="gain"/>
           <Parameter id="6084"   name="preset">
            <Keyframes>
            <Keyframe id="6085"  time="0/1" value="1" leadInLength="0/1"  />
            </Keyframes>
           </Parameter>
           <InterpolatingParam id="6086" interp="linr"  time="0/1" value="10" leadInLength="0/1"   name="ratio"/>
           <InterpolatingParam id="6087" interp="linr"  time="0/1" value="3500" leadInLength="0/1"   name="release"/>
           <InterpolatingParam id="6088" interp="linr"  time="0/1" value="-20" leadInLength="0/1"   name="threshold"/>
           </Parameters>
          </GenericEffect>
          <GenericEffect id="6089" name = "Declipper" >
           <Parameters>
           <InterpolatingParam id="6090" interp="linr"  time="0/1" value="-1" leadInLength="0/1"   name="sensitivity"/>
           </Parameters>
          </GenericEffect>
          <GenericEffect id="6091" name = "Declicker" >
           <Parameters>
           <InterpolatingParam id="6092" interp="linr"  time="0/1" value="3" leadInLength="0/1"   name="sensitivity"/>
           </Parameters>
          </GenericEffect>
         </Effects>
         <Attributes>
          <Attribute id="6093" value="" name="ident"/>
          <Attribute id="6094" value="0" name="mixToMono"/>
         </Attributes>
         <MetaData>
          <entry key="WinSubProjectDisplayName" val=""/>
         </MetaData>
         <ExtraData>
          <Entry key="ZoomPanBin">
           <ZoomPanBin id="6095"  >
            <ZoomPanKeyframes>
            </ZoomPanKeyframes>
           </ZoomPanBin>
          </Entry>
          <Entry key="CursorEffectBin">
           <CursorEffectBin id="6096"  >
            <CursorEffectKeyframes>
            </CursorEffectKeyframes>
           </CursorEffectBin>
          </Entry>
         </ExtraData>
         <GenericTrack id="6097"  >
          <Attributes>
           <Attribute id="6098" value="" name="ident"/>
           <Attribute id="6099" value="0" name="audioMuted"/>
           <Attribute id="6100" value="0" name="videoHidden"/>
          </Attributes>
          <MetaData>
           <entry key="IsLocked" val="False"/>
           <entry key="WinTrackHeight" val="0"/>
          </MetaData>
          <Medias>
           <AMFile id="6101" start="0" duration="10360" scalar="1/1" mediaStart="0/1" mediaDuration="10360/1" trackNumber="0" src="22" channelNumber="0" >
            <Parameters>
             <InterpolatingParam id="6102" interp="linr"  time="0/1" value="1" leadInLength="0/1"  name="volume"/>
             <Parameter id="6103"  name="captions"/>
            </Parameters>
            <Attributes>
             <Attribute id="6104" value="" name="ident"/>
             <Attribute id="6105" value="44100" name="sampleRate"/>
             <Attribute id="6106" value="16" name="bitDepth"/>
             <Attribute id="6107" value="1" name="gain"/>
             <Attribute id="6108" value="0" name="mixToMono"/>
            </Attributes>
            <MetaData>
             <entry key="WinSubProjectDisplayName" val=""/>
            </MetaData>
           </AMFile>
           <AMFile id="6109" start="10360" duration="265" scalar="1/1" mediaStart="10702/1" mediaDuration="265/1" trackNumber="0" src="22" channelNumber="0" >
            <Parameters>
             <InterpolatingParam id="6110" interp="linr"  time="0/1" value="1" leadInLength="0/1"  name="volume"/>
             <Parameter id="6111"  name="captions"/>
            </Parameters>
            <Attributes>
             <Attribute id="6112" value="" name="ident"/>
             <Attribute id="6113" value="44100" name="sampleRate"/>
             <Attribute id="6114" value="16" name="bitDepth"/>
             <Attribute id="6115" value="1" name="gain"/>
             <Attribute id="6116" value="0" name="mixToMono"/>
            </Attributes>
            <MetaData>
             <entry key="WinSubProjectDisplayName" val=""/>
            </MetaData>
           </AMFile>
           <AMFile id="6117" start="10625" duration="3597" scalar="1/1" mediaStart="10971/1" mediaDuration="3597/1" trackNumber="0" src="22" channelNumber="0" >
            <Parameters>
             <InterpolatingParam id="6118" interp="linr"  time="0/1" value="1" leadInLength="0/1"  name="volume"/>
             <Parameter id="6119"  name="captions"/>
            </Parameters>
            <Attributes>
             <Attribute id="6120" value="" name="ident"/>
             <Attribute id="6121" value="44100" name="sampleRate"/>
             <Attribute id="6122" value="16" name="bitDepth"/>
             <Attribute id="6123" value="1" name="gain"/>
             <Attribute id="6124" value="0" name="mixToMono"/>
            </Attributes>
            <MetaData>
             <entry key="WinSubProjectDisplayName" val=""/>
            </MetaData>
           </AMFile>
          </Medias>
         </GenericTrack>
        </StitchedMedia>
        <AMFile id="6125" start="7458" duration="216" scalar="1/1" mediaStart="11524/1" mediaDuration="216/1" trackNumber="0" src="22" channelNumber="0" >
         <Parameters>
          <InterpolatingParam id="6126" interp="linr"  name="volume">
           <Keyframes>
           <Keyframe id="6127"  time="0/1" value="1" leadInLength="0/1"  />
           <Keyframe id="6128"  time="3301/1" value="1" leadInLength="0/1"  />
           <Keyframe id="6129"  time="3302/1" value="0.80000000000000004" leadInLength="0/1"  />
           <Keyframe id="6130"  time="14568/1" value="0.80000000000000004" leadInLength="0/1"  />
           <Keyframe id="6131"  time="14569/1" value="1" leadInLength="0/1"  />
           </Keyframes>
          </InterpolatingParam>
          <Parameter id="6132"  name="captions"/>
         </Parameters>
         <Effects>
          <GenericEffect id="6133" name = "NoiseReduction" >
           <Parameters>
           <InterpolatingParam id="6134" interp="linr"  time="0/1" value="20" leadInLength="0/1"   name="denoiserAmount"/>
           <InterpolatingParam id="6135" interp="linr"  time="0/1" value="0" leadInLength="0/1"   name="denoiserThreshold"/>
           <Parameter id="6136"   name="noiseProfile">
            <Keyframes>
            <Keyframe id="6137"  time="0/1" value="FBAAAAIAAABErAAAAQIAADOmYsI/y13CPNeLwsehjcK+No/Cm+aOwlHvjcIja5HCun6XwoKemMJy&#xD;&#xa;lpPCuQeRwhgMlcJGdZvCTjScwgFMncIGh5zCGrOawuO0nMJdJZ3Cybudwo6toMIdraPCs/6jwpY0&#xD;&#xa;psLIUqjCWQmpwonmp8KcE6XCgXGlwqC+psIFHabCBoyownWvqcIkX6jCgnCpwms3qsIW0KfCM7Oj&#xD;&#xa;wnGLosJgcKnCdk6swiIgscKFrbDCtNmowrZmpcIHYqjCCg2pwqUNq8KgHq7ChEGxwhVFs8KU6LLC&#xD;&#xa;dvWzwpVHscI6NrDCMpGwwubcs8Imh7bCPKq6wj7tvMKSbr3ClsG+wq4qwMLXQr7CpAK5whxiuMJp&#xD;&#xa;v7nCwu29wloQvsIXTL3CzjDAwsDTwcL69sHC8urAwtAFwMIkSMLCpJHDwjLOw8JG8sTCmMvDwq7H&#xD;&#xa;wsLOncPC+CDDwkh6wsLU5sPCP23Fwm5Qx8KlYsTCm0XCwnhexcLsTsPCSMPDwjvJw8LMWcHC2XHD&#xD;&#xa;wjj5wsICs8TChWvEwgCywcKDdcHCFnHCwurMxMLlVsTCfrDGwmzqyMKoGsfC7ITIwtqRyMJwzcbC&#xD;&#xa;ppbEwiv5xcIXxsTCzDfCwtSExMKEjcTC8ObDwiJ9yMIQm8vCIkDGwqHyxcIyYcbCyAXIwmyBx8I4&#xD;&#xa;n8PCvyPGwuiKxMJggMfCdL3JwsMhysLi6sXCRa7Ewoykx8Jk/MXC0NfEwtK0xcJQTMTCvvvGwtqJ&#xD;&#xa;xMKmFsTCSbfGwq76x8IQ+sjCsqnIwkJdycIaT8fC0nbHwlf2xsLg/cbCtIHHwsTvxsI0KsbCsqDH&#xD;&#xa;wgLix8JGKcXCyNTDwjDwwsIb98bC6MjJwg6Zy8Kg+cvCaC3HwtIgw8KW7sXC3EHGwmcUxcL++8fC&#xD;&#xa;CWbIwsDoxsJFz8PCJkXFwiD7xcIQDsfC8ljIwrDLxMKkeMLClpHEwiqgyMJcjcjC6krGwl50w8Iy&#xD;&#xa;7sXCWv3HwkQ1xsKUwMPC2K/EwootxMJUqMTCH3LDwuojxcKil8fCjmXIwkLJxcID78TClTvGwhel&#xD;&#xa;xsIca8bC1rbCwk6+wsIQfsfCIlPHwpJExcLWhMbCDNvEwuryxMKklMXCeBDDwolhwcIiasLCQYfE&#xD;&#xa;whUfwsJx4MTCsEnIwkX0xcK+3sbCIqLHwrARx8IWtMTCGAnFwomNxMLfbcTCQIPDwjqww8L+MMTC&#xD;&#xa;mqjHwrBaxMI6YsTCxmvIwqyKycKQaMXCnx7FwkYvx8In6sjCGMzIwuvAxcL8a8XCiBjJwkvwyMKI&#xD;&#xa;qMbCTCTIwvQSy8IxEsvCVT/JwrI3w8LA8sLCCD7EwsxXxMJSjsXCfjXFwqTKxMI/gsPCDozDwtwF&#xD;&#xa;xMISn8bChHvJwlFQyMJYCsbCP4jIwtkBycLiFsrCbCrKwvyTysIWncnC+A3HwuI5x8I8/MbC0hHI&#xD;&#xa;wopJzMLmb83CFkvMwpy/y8Kn7MrCfJrJwuLDyMJKn8bCStTGwpb7ycIMo8nCcivFwsapxcJkx8bC&#xD;&#xa;ALLIwriaycJM3cfC8r/KwlSoy8I4A8vCpFHJwkRrzMIKr87CWD7MwsiJycKW9cfCUjbKwq+YycLi&#xD;&#xa;U8jCROHHwhdWycKaU8nCF7jMwmKaz8L//8zC8tjOwjxezsIUysvCzHLJwiJryMLRm8bCgLjKwsi8&#xD;&#xa;ysIhfszCPETLwqtbyMJGeMfCpRPJwnwZzMJSIs3CqhPMwmDiyMLZYsjCz13KwgwKy8LCi8jCyrTM&#xD;&#xa;wgwxzMK4ZcvC087JwkV2xsLyXsnCjIbLwhwvzcLfrM7CeITKwla3ysLK3cnC/PHFwpScxcIUQ8nC&#xD;&#xa;NJzIwrEsxsJvZcfCXSvIwlKLx8JII8nCvgzKwpnhysJSC8vC9iTKwiA/y8IadczCuDrMwuVaysLO&#xD;&#xa;r8vCXtfJwrZ6ycItucnCtonJwjyTysJkC83CL0nMwkjdyMIBucfCixrLwvSDysKGX8nCsCzMwuas&#xD;&#xa;0cIsnNPCuEvOwtr5y8LMBc7Cr+PTwsQc5MLcOfPCKOj0wjr59cJ0C/fCzg75wkwh+8LmVPnCqz72&#xD;&#xa;wnB+9cLuJvrCtEL4wkp7+MLOfffCDN3zwkaz9sLi8vjCFKr6wgIQ+cI8iPjCBpT4wvR1+MLQI/rC&#xD;&#xa;Ihn8wlQg+sIcLvjCVCz2wsI49MJQ9fbC23H3woy69sL4BfnCIOb2wjwy9cIuGvnCdmb3wj7K9MI+&#xD;&#xa;KPXCJpr2wn7C9cKQDvnCthv7woaP+cLGaPbCTr32wrpN+cIFSPjCDvX4wtD39sJY//TCKGf3wvZI&#xD;&#xa;+cK9YvfCgYf3wjIf+sLMMvfCpjz2wuA6+cII8vbCxDv1wmJG9sLka/rCPrT1wi589cLqjfbC9qP4&#xD;&#xa;wgzJ+MLelPbCGir2wlBC9sKeU/jC/nn3wsYn9sL4QPjCXBj5wopQ+MIaJvnCSB36wgjc+MIMfPfC&#xD;&#xa;W+z1wmYG+MKuxPnCCuD1wjh+9sLDrPfCOPj3wm7h+MJjMvfCxH/2wsXf98KwN/nCKOn5wrLR+sKg&#xD;&#xa;bPvCkFv5wsAu+cL2hffCySz2wmRX+MKiiPjCzFX4wvjB98Jgz/fCxPT4wobP+cL8avjC9r34wnKx&#xD;&#xa;+MK+LPnC3H34wle39cKejfbCNKP2wg5B9sK0H/rCSvz2woqE98JAqfjCBPL4wmKi+MIu2/jCMFD5&#xD;&#xa;wiCM+cKo//nCGqz7wlZN+sKUDfjC0ov4wrIU+sIVpffCP2/3woye98KktPbCTJj2wpH29cL3mvbC&#xD;&#xa;jL/4wti/+MLm3vjCQ9QEwzOmYsI/y13CPNeLwsehjcK+No/Cm+aOwlHvjcIja5HCun6XwoKemMJy&#xD;&#xa;lpPCuQeRwhgMlcJGdZvCTjScwgFMncIGh5zCGrOawuO0nMJdJZ3Cybudwo6toMIdraPCs/6jwpY0&#xD;&#xa;psLIUqjCWQmpwonmp8KcE6XCgXGlwqC+psIFHabCBoyownWvqcIkX6jCgnCpwms3qsIW0KfCM7Oj&#xD;&#xa;wnGLosJgcKnCdk6swiIgscKFrbDCtNmowrZmpcIHYqjCCg2pwqUNq8KgHq7ChEGxwhVFs8KU6LLC&#xD;&#xa;dvWzwpVHscI6NrDCMpGwwubcs8Imh7bCPKq6wj7tvMKSbr3ClsG+wq4qwMLXQr7CpAK5whxiuMJp&#xD;&#xa;v7nCwu29wloQvsIXTL3CzjDAwsDTwcL69sHC8urAwtAFwMIkSMLCpJHDwjLOw8JG8sTCmMvDwq7H&#xD;&#xa;wsLOncPC+CDDwkh6wsLU5sPCP23Fwm5Qx8KlYsTCm0XCwnhexcLsTsPCSMPDwjvJw8LMWcHC2XHD&#xD;&#xa;wjj5wsICs8TChWvEwgCywcKDdcHCFnHCwurMxMLlVsTCfrDGwmzqyMKoGsfC7ITIwtqRyMJwzcbC&#xD;&#xa;ppbEwiv5xcIXxsTCzDfCwtSExMKEjcTC8ObDwiJ9yMIQm8vCIkDGwqHyxcIyYcbCyAXIwmyBx8I4&#xD;&#xa;n8PCvyPGwuiKxMJggMfCdL3JwsMhysLi6sXCRa7Ewoykx8Jk/MXC0NfEwtK0xcJQTMTCvvvGwtqJ&#xD;&#xa;xMKmFsTCSbfGwq76x8IQ+sjCsqnIwkJdycIaT8fC0nbHwlf2xsLg/cbCtIHHwsTvxsI0KsbCsqDH&#xD;&#xa;wgLix8JGKcXCyNTDwjDwwsIb98bC6MjJwg6Zy8Kg+cvCaC3HwtIgw8KW7sXC3EHGwmcUxcL++8fC&#xD;&#xa;CWbIwsDoxsJFz8PCJkXFwiD7xcIQDsfC8ljIwrDLxMKkeMLClpHEwiqgyMJcjcjC6krGwl50w8Iy&#xD;&#xa;7sXCWv3HwkQ1xsKUwMPC2K/EwootxMJUqMTCH3LDwuojxcKil8fCjmXIwkLJxcID78TClTvGwhel&#xD;&#xa;xsIca8bC1rbCwk6+wsIQfsfCIlPHwpJExcLWhMbCDNvEwuryxMKklMXCeBDDwolhwcIiasLCQYfE&#xD;&#xa;whUfwsJx4MTCsEnIwkX0xcK+3sbCIqLHwrARx8IWtMTCGAnFwomNxMLfbcTCQIPDwjqww8L+MMTC&#xD;&#xa;mqjHwrBaxMI6YsTCxmvIwqyKycKQaMXCnx7FwkYvx8In6sjCGMzIwuvAxcL8a8XCiBjJwkvwyMKI&#xD;&#xa;qMbCTCTIwvQSy8IxEsvCVT/JwrI3w8LA8sLCCD7EwsxXxMJSjsXCfjXFwqTKxMI/gsPCDozDwtwF&#xD;&#xa;xMISn8bChHvJwlFQyMJYCsbCP4jIwtkBycLiFsrCbCrKwvyTysIWncnC+A3HwuI5x8I8/MbC0hHI&#xD;&#xa;wopJzMLmb83CFkvMwpy/y8Kn7MrCfJrJwuLDyMJKn8bCStTGwpb7ycIMo8nCcivFwsapxcJkx8bC&#xD;&#xa;ALLIwriaycJM3cfC8r/KwlSoy8I4A8vCpFHJwkRrzMIKr87CWD7MwsiJycKW9cfCUjbKwq+YycLi&#xD;&#xa;U8jCROHHwhdWycKaU8nCF7jMwmKaz8L//8zC8tjOwjxezsIUysvCzHLJwiJryMLRm8bCgLjKwsi8&#xD;&#xa;ysIhfszCPETLwqtbyMJGeMfCpRPJwnwZzMJSIs3CqhPMwmDiyMLZYsjCz13KwgwKy8LCi8jCyrTM&#xD;&#xa;wgwxzMK4ZcvC087JwkV2xsLyXsnCjIbLwhwvzcLfrM7CeITKwla3ysLK3cnC/PHFwpScxcIUQ8nC&#xD;&#xa;NJzIwrEsxsJvZcfCXSvIwlKLx8JII8nCvgzKwpnhysJSC8vC9iTKwiA/y8IadczCuDrMwuVaysLO&#xD;&#xa;r8vCXtfJwrZ6ycItucnCtonJwjyTysJkC83CL0nMwkjdyMIBucfCixrLwvSDysKGX8nCsCzMwuas&#xD;&#xa;0cIsnNPCuEvOwtr5y8LMBc7Cr+PTwsQc5MLcOfPCKOj0wjr59cJ0C/fCzg75wkwh+8LmVPnCqz72&#xD;&#xa;wnB+9cLuJvrCtEL4wkp7+MLOfffCDN3zwkaz9sLi8vjCFKr6wgIQ+cI8iPjCBpT4wvR1+MLQI/rC&#xD;&#xa;Ihn8wlQg+sIcLvjCVCz2wsI49MJQ9fbC23H3woy69sL4BfnCIOb2wjwy9cIuGvnCdmb3wj7K9MI+&#xD;&#xa;KPXCJpr2wn7C9cKQDvnCthv7woaP+cLGaPbCTr32wrpN+cIFSPjCDvX4wtD39sJY//TCKGf3wvZI&#xD;&#xa;+cK9YvfCgYf3wjIf+sLMMvfCpjz2wuA6+cII8vbCxDv1wmJG9sLka/rCPrT1wi589cLqjfbC9qP4&#xD;&#xa;wgzJ+MLelPbCGir2wlBC9sKeU/jC/nn3wsYn9sL4QPjCXBj5wopQ+MIaJvnCSB36wgjc+MIMfPfC&#xD;&#xa;W+z1wmYG+MKuxPnCCuD1wjh+9sLDrPfCOPj3wm7h+MJjMvfCxH/2wsXf98KwN/nCKOn5wrLR+sKg&#xD;&#xa;bPvCkFv5wsAu+cL2hffCySz2wmRX+MKiiPjCzFX4wvjB98Jgz/fCxPT4wobP+cL8avjC9r34wnKx&#xD;&#xa;+MK+LPnC3H34wle39cKejfbCNKP2wg5B9sK0H/rCSvz2woqE98JAqfjCBPL4wmKi+MIu2/jCMFD5&#xD;&#xa;wiCM+cKo//nCGqz7wlZN+sKUDfjC0ov4wrIU+sIVpffCP2/3woye98KktPbCTJj2wpH29cL3mvbC&#xD;&#xa;jL/4wti/+MLm3vjCQ9QE" leadInLength="0/1"  />
            </Keyframes>
           </Parameter>
           </Parameters>
          </GenericEffect>
          <GenericEffect id="6138" name = "WinCompression" >
           <Parameters>
           <InterpolatingParam id="6139" interp="linr"  time="0/1" value="0" leadInLength="0/1"   name="attack"/>
           <InterpolatingParam id="6140" interp="linr"  time="0/1" value="9" leadInLength="0/1"   name="gain"/>
           <Parameter id="6141"   name="preset">
            <Keyframes>
            <Keyframe id="6142"  time="0/1" value="1" leadInLength="0/1"  />
            </Keyframes>
           </Parameter>
           <InterpolatingParam id="6143" interp="linr"  time="0/1" value="10" leadInLength="0/1"   name="ratio"/>
           <InterpolatingParam id="6144" interp="linr"  time="0/1" value="3500" leadInLength="0/1"   name="release"/>
           <InterpolatingParam id="6145" interp="linr"  time="0/1" value="-20" leadInLength="0/1"   name="threshold"/>
           </Parameters>
          </GenericEffect>
          <GenericEffect id="6146" name = "Declipper" >
           <Parameters>
           <InterpolatingParam id="6147" interp="linr"  time="0/1" value="-1" leadInLength="0/1"   name="sensitivity"/>
           </Parameters>
          </GenericEffect>
          <GenericEffect id="6148" name = "Declicker" >
           <Parameters>
           <InterpolatingParam id="6149" interp="linr"  time="0/1" value="3" leadInLength="0/1"   name="sensitivity"/>
           </Parameters>
          </GenericEffect>
         </Effects>
         <Attributes>
          <Attribute id="6150" value="" name="ident"/>
          <Attribute id="6151" value="44100" name="sampleRate"/>
          <Attribute id="6152" value="16" name="bitDepth"/>
          <Attribute id="6153" value="1" name="gain"/>
          <Attribute id="6154" value="0" name="mixToMono"/>
         </Attributes>
         <MetaData>
          <entry key="WinSubProjectDisplayName" val=""/>
         </MetaData>
        </AMFile>
        <AMFile id="6155" start="7692" duration="107" scalar="1/1" mediaStart="11740/1" mediaDuration="107/1" trackNumber="0" src="22" channelNumber="0" >
         <Parameters>
          <InterpolatingParam id="6156" interp="linr"  name="volume">
           <Keyframes>
           <Keyframe id="6157"  time="0/1" value="1" leadInLength="0/1"  />
           <Keyframe id="6158"  time="3301/1" value="1" leadInLength="0/1"  />
           <Keyframe id="6159"  time="3302/1" value="0.80000000000000004" leadInLength="0/1"  />
           <Keyframe id="6160"  time="14568/1" value="0.80000000000000004" leadInLength="0/1"  />
           <Keyframe id="6161"  time="14569/1" value="1" leadInLength="0/1"  />
           </Keyframes>
          </InterpolatingParam>
          <Parameter id="6162"  name="captions"/>
         </Parameters>
         <Effects>
          <GenericEffect id="6163" name = "NoiseReduction" >
           <Parameters>
           <InterpolatingParam id="6164" interp="linr"  time="0/1" value="20" leadInLength="0/1"   name="denoiserAmount"/>
           <InterpolatingParam id="6165" interp="linr"  time="0/1" value="0" leadInLength="0/1"   name="denoiserThreshold"/>
           <Parameter id="6166"   name="noiseProfile">
            <Keyframes>
            <Keyframe id="6167"  time="0/1" value="FBAAAAIAAABErAAAAQIAADOmYsI/y13CPNeLwsehjcK+No/Cm+aOwlHvjcIja5HCun6XwoKemMJy&#xD;&#xa;lpPCuQeRwhgMlcJGdZvCTjScwgFMncIGh5zCGrOawuO0nMJdJZ3Cybudwo6toMIdraPCs/6jwpY0&#xD;&#xa;psLIUqjCWQmpwonmp8KcE6XCgXGlwqC+psIFHabCBoyownWvqcIkX6jCgnCpwms3qsIW0KfCM7Oj&#xD;&#xa;wnGLosJgcKnCdk6swiIgscKFrbDCtNmowrZmpcIHYqjCCg2pwqUNq8KgHq7ChEGxwhVFs8KU6LLC&#xD;&#xa;dvWzwpVHscI6NrDCMpGwwubcs8Imh7bCPKq6wj7tvMKSbr3ClsG+wq4qwMLXQr7CpAK5whxiuMJp&#xD;&#xa;v7nCwu29wloQvsIXTL3CzjDAwsDTwcL69sHC8urAwtAFwMIkSMLCpJHDwjLOw8JG8sTCmMvDwq7H&#xD;&#xa;wsLOncPC+CDDwkh6wsLU5sPCP23Fwm5Qx8KlYsTCm0XCwnhexcLsTsPCSMPDwjvJw8LMWcHC2XHD&#xD;&#xa;wjj5wsICs8TChWvEwgCywcKDdcHCFnHCwurMxMLlVsTCfrDGwmzqyMKoGsfC7ITIwtqRyMJwzcbC&#xD;&#xa;ppbEwiv5xcIXxsTCzDfCwtSExMKEjcTC8ObDwiJ9yMIQm8vCIkDGwqHyxcIyYcbCyAXIwmyBx8I4&#xD;&#xa;n8PCvyPGwuiKxMJggMfCdL3JwsMhysLi6sXCRa7Ewoykx8Jk/MXC0NfEwtK0xcJQTMTCvvvGwtqJ&#xD;&#xa;xMKmFsTCSbfGwq76x8IQ+sjCsqnIwkJdycIaT8fC0nbHwlf2xsLg/cbCtIHHwsTvxsI0KsbCsqDH&#xD;&#xa;wgLix8JGKcXCyNTDwjDwwsIb98bC6MjJwg6Zy8Kg+cvCaC3HwtIgw8KW7sXC3EHGwmcUxcL++8fC&#xD;&#xa;CWbIwsDoxsJFz8PCJkXFwiD7xcIQDsfC8ljIwrDLxMKkeMLClpHEwiqgyMJcjcjC6krGwl50w8Iy&#xD;&#xa;7sXCWv3HwkQ1xsKUwMPC2K/EwootxMJUqMTCH3LDwuojxcKil8fCjmXIwkLJxcID78TClTvGwhel&#xD;&#xa;xsIca8bC1rbCwk6+wsIQfsfCIlPHwpJExcLWhMbCDNvEwuryxMKklMXCeBDDwolhwcIiasLCQYfE&#xD;&#xa;whUfwsJx4MTCsEnIwkX0xcK+3sbCIqLHwrARx8IWtMTCGAnFwomNxMLfbcTCQIPDwjqww8L+MMTC&#xD;&#xa;mqjHwrBaxMI6YsTCxmvIwqyKycKQaMXCnx7FwkYvx8In6sjCGMzIwuvAxcL8a8XCiBjJwkvwyMKI&#xD;&#xa;qMbCTCTIwvQSy8IxEsvCVT/JwrI3w8LA8sLCCD7EwsxXxMJSjsXCfjXFwqTKxMI/gsPCDozDwtwF&#xD;&#xa;xMISn8bChHvJwlFQyMJYCsbCP4jIwtkBycLiFsrCbCrKwvyTysIWncnC+A3HwuI5x8I8/MbC0hHI&#xD;&#xa;wopJzMLmb83CFkvMwpy/y8Kn7MrCfJrJwuLDyMJKn8bCStTGwpb7ycIMo8nCcivFwsapxcJkx8bC&#xD;&#xa;ALLIwriaycJM3cfC8r/KwlSoy8I4A8vCpFHJwkRrzMIKr87CWD7MwsiJycKW9cfCUjbKwq+YycLi&#xD;&#xa;U8jCROHHwhdWycKaU8nCF7jMwmKaz8L//8zC8tjOwjxezsIUysvCzHLJwiJryMLRm8bCgLjKwsi8&#xD;&#xa;ysIhfszCPETLwqtbyMJGeMfCpRPJwnwZzMJSIs3CqhPMwmDiyMLZYsjCz13KwgwKy8LCi8jCyrTM&#xD;&#xa;wgwxzMK4ZcvC087JwkV2xsLyXsnCjIbLwhwvzcLfrM7CeITKwla3ysLK3cnC/PHFwpScxcIUQ8nC&#xD;&#xa;NJzIwrEsxsJvZcfCXSvIwlKLx8JII8nCvgzKwpnhysJSC8vC9iTKwiA/y8IadczCuDrMwuVaysLO&#xD;&#xa;r8vCXtfJwrZ6ycItucnCtonJwjyTysJkC83CL0nMwkjdyMIBucfCixrLwvSDysKGX8nCsCzMwuas&#xD;&#xa;0cIsnNPCuEvOwtr5y8LMBc7Cr+PTwsQc5MLcOfPCKOj0wjr59cJ0C/fCzg75wkwh+8LmVPnCqz72&#xD;&#xa;wnB+9cLuJvrCtEL4wkp7+MLOfffCDN3zwkaz9sLi8vjCFKr6wgIQ+cI8iPjCBpT4wvR1+MLQI/rC&#xD;&#xa;Ihn8wlQg+sIcLvjCVCz2wsI49MJQ9fbC23H3woy69sL4BfnCIOb2wjwy9cIuGvnCdmb3wj7K9MI+&#xD;&#xa;KPXCJpr2wn7C9cKQDvnCthv7woaP+cLGaPbCTr32wrpN+cIFSPjCDvX4wtD39sJY//TCKGf3wvZI&#xD;&#xa;+cK9YvfCgYf3wjIf+sLMMvfCpjz2wuA6+cII8vbCxDv1wmJG9sLka/rCPrT1wi589cLqjfbC9qP4&#xD;&#xa;wgzJ+MLelPbCGir2wlBC9sKeU/jC/nn3wsYn9sL4QPjCXBj5wopQ+MIaJvnCSB36wgjc+MIMfPfC&#xD;&#xa;W+z1wmYG+MKuxPnCCuD1wjh+9sLDrPfCOPj3wm7h+MJjMvfCxH/2wsXf98KwN/nCKOn5wrLR+sKg&#xD;&#xa;bPvCkFv5wsAu+cL2hffCySz2wmRX+MKiiPjCzFX4wvjB98Jgz/fCxPT4wobP+cL8avjC9r34wnKx&#xD;&#xa;+MK+LPnC3H34wle39cKejfbCNKP2wg5B9sK0H/rCSvz2woqE98JAqfjCBPL4wmKi+MIu2/jCMFD5&#xD;&#xa;wiCM+cKo//nCGqz7wlZN+sKUDfjC0ov4wrIU+sIVpffCP2/3woye98KktPbCTJj2wpH29cL3mvbC&#xD;&#xa;jL/4wti/+MLm3vjCQ9QEwzOmYsI/y13CPNeLwsehjcK+No/Cm+aOwlHvjcIja5HCun6XwoKemMJy&#xD;&#xa;lpPCuQeRwhgMlcJGdZvCTjScwgFMncIGh5zCGrOawuO0nMJdJZ3Cybudwo6toMIdraPCs/6jwpY0&#xD;&#xa;psLIUqjCWQmpwonmp8KcE6XCgXGlwqC+psIFHabCBoyownWvqcIkX6jCgnCpwms3qsIW0KfCM7Oj&#xD;&#xa;wnGLosJgcKnCdk6swiIgscKFrbDCtNmowrZmpcIHYqjCCg2pwqUNq8KgHq7ChEGxwhVFs8KU6LLC&#xD;&#xa;dvWzwpVHscI6NrDCMpGwwubcs8Imh7bCPKq6wj7tvMKSbr3ClsG+wq4qwMLXQr7CpAK5whxiuMJp&#xD;&#xa;v7nCwu29wloQvsIXTL3CzjDAwsDTwcL69sHC8urAwtAFwMIkSMLCpJHDwjLOw8JG8sTCmMvDwq7H&#xD;&#xa;wsLOncPC+CDDwkh6wsLU5sPCP23Fwm5Qx8KlYsTCm0XCwnhexcLsTsPCSMPDwjvJw8LMWcHC2XHD&#xD;&#xa;wjj5wsICs8TChWvEwgCywcKDdcHCFnHCwurMxMLlVsTCfrDGwmzqyMKoGsfC7ITIwtqRyMJwzcbC&#xD;&#xa;ppbEwiv5xcIXxsTCzDfCwtSExMKEjcTC8ObDwiJ9yMIQm8vCIkDGwqHyxcIyYcbCyAXIwmyBx8I4&#xD;&#xa;n8PCvyPGwuiKxMJggMfCdL3JwsMhysLi6sXCRa7Ewoykx8Jk/MXC0NfEwtK0xcJQTMTCvvvGwtqJ&#xD;&#xa;xMKmFsTCSbfGwq76x8IQ+sjCsqnIwkJdycIaT8fC0nbHwlf2xsLg/cbCtIHHwsTvxsI0KsbCsqDH&#xD;&#xa;wgLix8JGKcXCyNTDwjDwwsIb98bC6MjJwg6Zy8Kg+cvCaC3HwtIgw8KW7sXC3EHGwmcUxcL++8fC&#xD;&#xa;CWbIwsDoxsJFz8PCJkXFwiD7xcIQDsfC8ljIwrDLxMKkeMLClpHEwiqgyMJcjcjC6krGwl50w8Iy&#xD;&#xa;7sXCWv3HwkQ1xsKUwMPC2K/EwootxMJUqMTCH3LDwuojxcKil8fCjmXIwkLJxcID78TClTvGwhel&#xD;&#xa;xsIca8bC1rbCwk6+wsIQfsfCIlPHwpJExcLWhMbCDNvEwuryxMKklMXCeBDDwolhwcIiasLCQYfE&#xD;&#xa;whUfwsJx4MTCsEnIwkX0xcK+3sbCIqLHwrARx8IWtMTCGAnFwomNxMLfbcTCQIPDwjqww8L+MMTC&#xD;&#xa;mqjHwrBaxMI6YsTCxmvIwqyKycKQaMXCnx7FwkYvx8In6sjCGMzIwuvAxcL8a8XCiBjJwkvwyMKI&#xD;&#xa;qMbCTCTIwvQSy8IxEsvCVT/JwrI3w8LA8sLCCD7EwsxXxMJSjsXCfjXFwqTKxMI/gsPCDozDwtwF&#xD;&#xa;xMISn8bChHvJwlFQyMJYCsbCP4jIwtkBycLiFsrCbCrKwvyTysIWncnC+A3HwuI5x8I8/MbC0hHI&#xD;&#xa;wopJzMLmb83CFkvMwpy/y8Kn7MrCfJrJwuLDyMJKn8bCStTGwpb7ycIMo8nCcivFwsapxcJkx8bC&#xD;&#xa;ALLIwriaycJM3cfC8r/KwlSoy8I4A8vCpFHJwkRrzMIKr87CWD7MwsiJycKW9cfCUjbKwq+YycLi&#xD;&#xa;U8jCROHHwhdWycKaU8nCF7jMwmKaz8L//8zC8tjOwjxezsIUysvCzHLJwiJryMLRm8bCgLjKwsi8&#xD;&#xa;ysIhfszCPETLwqtbyMJGeMfCpRPJwnwZzMJSIs3CqhPMwmDiyMLZYsjCz13KwgwKy8LCi8jCyrTM&#xD;&#xa;wgwxzMK4ZcvC087JwkV2xsLyXsnCjIbLwhwvzcLfrM7CeITKwla3ysLK3cnC/PHFwpScxcIUQ8nC&#xD;&#xa;NJzIwrEsxsJvZcfCXSvIwlKLx8JII8nCvgzKwpnhysJSC8vC9iTKwiA/y8IadczCuDrMwuVaysLO&#xD;&#xa;r8vCXtfJwrZ6ycItucnCtonJwjyTysJkC83CL0nMwkjdyMIBucfCixrLwvSDysKGX8nCsCzMwuas&#xD;&#xa;0cIsnNPCuEvOwtr5y8LMBc7Cr+PTwsQc5MLcOfPCKOj0wjr59cJ0C/fCzg75wkwh+8LmVPnCqz72&#xD;&#xa;wnB+9cLuJvrCtEL4wkp7+MLOfffCDN3zwkaz9sLi8vjCFKr6wgIQ+cI8iPjCBpT4wvR1+MLQI/rC&#xD;&#xa;Ihn8wlQg+sIcLvjCVCz2wsI49MJQ9fbC23H3woy69sL4BfnCIOb2wjwy9cIuGvnCdmb3wj7K9MI+&#xD;&#xa;KPXCJpr2wn7C9cKQDvnCthv7woaP+cLGaPbCTr32wrpN+cIFSPjCDvX4wtD39sJY//TCKGf3wvZI&#xD;&#xa;+cK9YvfCgYf3wjIf+sLMMvfCpjz2wuA6+cII8vbCxDv1wmJG9sLka/rCPrT1wi589cLqjfbC9qP4&#xD;&#xa;wgzJ+MLelPbCGir2wlBC9sKeU/jC/nn3wsYn9sL4QPjCXBj5wopQ+MIaJvnCSB36wgjc+MIMfPfC&#xD;&#xa;W+z1wmYG+MKuxPnCCuD1wjh+9sLDrPfCOPj3wm7h+MJjMvfCxH/2wsXf98KwN/nCKOn5wrLR+sKg&#xD;&#xa;bPvCkFv5wsAu+cL2hffCySz2wmRX+MKiiPjCzFX4wvjB98Jgz/fCxPT4wobP+cL8avjC9r34wnKx&#xD;&#xa;+MK+LPnC3H34wle39cKejfbCNKP2wg5B9sK0H/rCSvz2woqE98JAqfjCBPL4wmKi+MIu2/jCMFD5&#xD;&#xa;wiCM+cKo//nCGqz7wlZN+sKUDfjC0ov4wrIU+sIVpffCP2/3woye98KktPbCTJj2wpH29cL3mvbC&#xD;&#xa;jL/4wti/+MLm3vjCQ9QE" leadInLength="0/1"  />
            </Keyframes>
           </Parameter>
           </Parameters>
          </GenericEffect>
          <GenericEffect id="6168" name = "WinCompression" >
           <Parameters>
           <InterpolatingParam id="6169" interp="linr"  time="0/1" value="0" leadInLength="0/1"   name="attack"/>
           <InterpolatingParam id="6170" interp="linr"  time="0/1" value="9" leadInLength="0/1"   name="gain"/>
           <Parameter id="6171"   name="preset">
            <Keyframes>
            <Keyframe id="6172"  time="0/1" value="1" leadInLength="0/1"  />
            </Keyframes>
           </Parameter>
           <InterpolatingParam id="6173" interp="linr"  time="0/1" value="10" leadInLength="0/1"   name="ratio"/>
           <InterpolatingParam id="6174" interp="linr"  time="0/1" value="3500" leadInLength="0/1"   name="release"/>
           <InterpolatingParam id="6175" interp="linr"  time="0/1" value="-20" leadInLength="0/1"   name="threshold"/>
           </Parameters>
          </GenericEffect>
          <GenericEffect id="6176" name = "Declipper" >
           <Parameters>
           <InterpolatingParam id="6177" interp="linr"  time="0/1" value="-1" leadInLength="0/1"   name="sensitivity"/>
           </Parameters>
          </GenericEffect>
          <GenericEffect id="6178" name = "Declicker" >
           <Parameters>
           <InterpolatingParam id="6179" interp="linr"  time="0/1" value="3" leadInLength="0/1"   name="sensitivity"/>
           </Parameters>
          </GenericEffect>
         </Effects>
         <Attributes>
          <Attribute id="6180" value="" name="ident"/>
          <Attribute id="6181" value="44100" name="sampleRate"/>
          <Attribute id="6182" value="16" name="bitDepth"/>
          <Attribute id="6183" value="1" name="gain"/>
          <Attribute id="6184" value="0" name="mixToMono"/>
         </Attributes>
         <MetaData>
          <entry key="WinSubProjectDisplayName" val=""/>
         </MetaData>
        </AMFile>
        <AMFile id="6185" start="7813" duration="245" scalar="1/1" mediaStart="11847/1" mediaDuration="245/1" trackNumber="0" src="22" channelNumber="0" >
         <Parameters>
          <InterpolatingParam id="6186" interp="linr"  name="volume">
           <Keyframes>
           <Keyframe id="6187"  time="0/1" value="1" leadInLength="0/1"  />
           <Keyframe id="6188"  time="3301/1" value="1" leadInLength="0/1"  />
           <Keyframe id="6189"  time="3302/1" value="0.80000000000000004" leadInLength="0/1"  />
           <Keyframe id="6190"  time="14568/1" value="0.80000000000000004" leadInLength="0/1"  />
           <Keyframe id="6191"  time="14569/1" value="1" leadInLength="0/1"  />
           </Keyframes>
          </InterpolatingParam>
          <Parameter id="6192"  name="captions"/>
         </Parameters>
         <Effects>
          <GenericEffect id="6193" name = "NoiseReduction" >
           <Parameters>
           <InterpolatingParam id="6194" interp="linr"  time="0/1" value="20" leadInLength="0/1"   name="denoiserAmount"/>
           <InterpolatingParam id="6195" interp="linr"  time="0/1" value="0" leadInLength="0/1"   name="denoiserThreshold"/>
           <Parameter id="6196"   name="noiseProfile">
            <Keyframes>
            <Keyframe id="6197"  time="0/1" value="FBAAAAIAAABErAAAAQIAADOmYsI/y13CPNeLwsehjcK+No/Cm+aOwlHvjcIja5HCun6XwoKemMJy&#xD;&#xa;lpPCuQeRwhgMlcJGdZvCTjScwgFMncIGh5zCGrOawuO0nMJdJZ3Cybudwo6toMIdraPCs/6jwpY0&#xD;&#xa;psLIUqjCWQmpwonmp8KcE6XCgXGlwqC+psIFHabCBoyownWvqcIkX6jCgnCpwms3qsIW0KfCM7Oj&#xD;&#xa;wnGLosJgcKnCdk6swiIgscKFrbDCtNmowrZmpcIHYqjCCg2pwqUNq8KgHq7ChEGxwhVFs8KU6LLC&#xD;&#xa;dvWzwpVHscI6NrDCMpGwwubcs8Imh7bCPKq6wj7tvMKSbr3ClsG+wq4qwMLXQr7CpAK5whxiuMJp&#xD;&#xa;v7nCwu29wloQvsIXTL3CzjDAwsDTwcL69sHC8urAwtAFwMIkSMLCpJHDwjLOw8JG8sTCmMvDwq7H&#xD;&#xa;wsLOncPC+CDDwkh6wsLU5sPCP23Fwm5Qx8KlYsTCm0XCwnhexcLsTsPCSMPDwjvJw8LMWcHC2XHD&#xD;&#xa;wjj5wsICs8TChWvEwgCywcKDdcHCFnHCwurMxMLlVsTCfrDGwmzqyMKoGsfC7ITIwtqRyMJwzcbC&#xD;&#xa;ppbEwiv5xcIXxsTCzDfCwtSExMKEjcTC8ObDwiJ9yMIQm8vCIkDGwqHyxcIyYcbCyAXIwmyBx8I4&#xD;&#xa;n8PCvyPGwuiKxMJggMfCdL3JwsMhysLi6sXCRa7Ewoykx8Jk/MXC0NfEwtK0xcJQTMTCvvvGwtqJ&#xD;&#xa;xMKmFsTCSbfGwq76x8IQ+sjCsqnIwkJdycIaT8fC0nbHwlf2xsLg/cbCtIHHwsTvxsI0KsbCsqDH&#xD;&#xa;wgLix8JGKcXCyNTDwjDwwsIb98bC6MjJwg6Zy8Kg+cvCaC3HwtIgw8KW7sXC3EHGwmcUxcL++8fC&#xD;&#xa;CWbIwsDoxsJFz8PCJkXFwiD7xcIQDsfC8ljIwrDLxMKkeMLClpHEwiqgyMJcjcjC6krGwl50w8Iy&#xD;&#xa;7sXCWv3HwkQ1xsKUwMPC2K/EwootxMJUqMTCH3LDwuojxcKil8fCjmXIwkLJxcID78TClTvGwhel&#xD;&#xa;xsIca8bC1rbCwk6+wsIQfsfCIlPHwpJExcLWhMbCDNvEwuryxMKklMXCeBDDwolhwcIiasLCQYfE&#xD;&#xa;whUfwsJx4MTCsEnIwkX0xcK+3sbCIqLHwrARx8IWtMTCGAnFwomNxMLfbcTCQIPDwjqww8L+MMTC&#xD;&#xa;mqjHwrBaxMI6YsTCxmvIwqyKycKQaMXCnx7FwkYvx8In6sjCGMzIwuvAxcL8a8XCiBjJwkvwyMKI&#xD;&#xa;qMbCTCTIwvQSy8IxEsvCVT/JwrI3w8LA8sLCCD7EwsxXxMJSjsXCfjXFwqTKxMI/gsPCDozDwtwF&#xD;&#xa;xMISn8bChHvJwlFQyMJYCsbCP4jIwtkBycLiFsrCbCrKwvyTysIWncnC+A3HwuI5x8I8/MbC0hHI&#xD;&#xa;wopJzMLmb83CFkvMwpy/y8Kn7MrCfJrJwuLDyMJKn8bCStTGwpb7ycIMo8nCcivFwsapxcJkx8bC&#xD;&#xa;ALLIwriaycJM3cfC8r/KwlSoy8I4A8vCpFHJwkRrzMIKr87CWD7MwsiJycKW9cfCUjbKwq+YycLi&#xD;&#xa;U8jCROHHwhdWycKaU8nCF7jMwmKaz8L//8zC8tjOwjxezsIUysvCzHLJwiJryMLRm8bCgLjKwsi8&#xD;&#xa;ysIhfszCPETLwqtbyMJGeMfCpRPJwnwZzMJSIs3CqhPMwmDiyMLZYsjCz13KwgwKy8LCi8jCyrTM&#xD;&#xa;wgwxzMK4ZcvC087JwkV2xsLyXsnCjIbLwhwvzcLfrM7CeITKwla3ysLK3cnC/PHFwpScxcIUQ8nC&#xD;&#xa;NJzIwrEsxsJvZcfCXSvIwlKLx8JII8nCvgzKwpnhysJSC8vC9iTKwiA/y8IadczCuDrMwuVaysLO&#xD;&#xa;r8vCXtfJwrZ6ycItucnCtonJwjyTysJkC83CL0nMwkjdyMIBucfCixrLwvSDysKGX8nCsCzMwuas&#xD;&#xa;0cIsnNPCuEvOwtr5y8LMBc7Cr+PTwsQc5MLcOfPCKOj0wjr59cJ0C/fCzg75wkwh+8LmVPnCqz72&#xD;&#xa;wnB+9cLuJvrCtEL4wkp7+MLOfffCDN3zwkaz9sLi8vjCFKr6wgIQ+cI8iPjCBpT4wvR1+MLQI/rC&#xD;&#xa;Ihn8wlQg+sIcLvjCVCz2wsI49MJQ9fbC23H3woy69sL4BfnCIOb2wjwy9cIuGvnCdmb3wj7K9MI+&#xD;&#xa;KPXCJpr2wn7C9cKQDvnCthv7woaP+cLGaPbCTr32wrpN+cIFSPjCDvX4wtD39sJY//TCKGf3wvZI&#xD;&#xa;+cK9YvfCgYf3wjIf+sLMMvfCpjz2wuA6+cII8vbCxDv1wmJG9sLka/rCPrT1wi589cLqjfbC9qP4&#xD;&#xa;wgzJ+MLelPbCGir2wlBC9sKeU/jC/nn3wsYn9sL4QPjCXBj5wopQ+MIaJvnCSB36wgjc+MIMfPfC&#xD;&#xa;W+z1wmYG+MKuxPnCCuD1wjh+9sLDrPfCOPj3wm7h+MJjMvfCxH/2wsXf98KwN/nCKOn5wrLR+sKg&#xD;&#xa;bPvCkFv5wsAu+cL2hffCySz2wmRX+MKiiPjCzFX4wvjB98Jgz/fCxPT4wobP+cL8avjC9r34wnKx&#xD;&#xa;+MK+LPnC3H34wle39cKejfbCNKP2wg5B9sK0H/rCSvz2woqE98JAqfjCBPL4wmKi+MIu2/jCMFD5&#xD;&#xa;wiCM+cKo//nCGqz7wlZN+sKUDfjC0ov4wrIU+sIVpffCP2/3woye98KktPbCTJj2wpH29cL3mvbC&#xD;&#xa;jL/4wti/+MLm3vjCQ9QEwzOmYsI/y13CPNeLwsehjcK+No/Cm+aOwlHvjcIja5HCun6XwoKemMJy&#xD;&#xa;lpPCuQeRwhgMlcJGdZvCTjScwgFMncIGh5zCGrOawuO0nMJdJZ3Cybudwo6toMIdraPCs/6jwpY0&#xD;&#xa;psLIUqjCWQmpwonmp8KcE6XCgXGlwqC+psIFHabCBoyownWvqcIkX6jCgnCpwms3qsIW0KfCM7Oj&#xD;&#xa;wnGLosJgcKnCdk6swiIgscKFrbDCtNmowrZmpcIHYqjCCg2pwqUNq8KgHq7ChEGxwhVFs8KU6LLC&#xD;&#xa;dvWzwpVHscI6NrDCMpGwwubcs8Imh7bCPKq6wj7tvMKSbr3ClsG+wq4qwMLXQr7CpAK5whxiuMJp&#xD;&#xa;v7nCwu29wloQvsIXTL3CzjDAwsDTwcL69sHC8urAwtAFwMIkSMLCpJHDwjLOw8JG8sTCmMvDwq7H&#xD;&#xa;wsLOncPC+CDDwkh6wsLU5sPCP23Fwm5Qx8KlYsTCm0XCwnhexcLsTsPCSMPDwjvJw8LMWcHC2XHD&#xD;&#xa;wjj5wsICs8TChWvEwgCywcKDdcHCFnHCwurMxMLlVsTCfrDGwmzqyMKoGsfC7ITIwtqRyMJwzcbC&#xD;&#xa;ppbEwiv5xcIXxsTCzDfCwtSExMKEjcTC8ObDwiJ9yMIQm8vCIkDGwqHyxcIyYcbCyAXIwmyBx8I4&#xD;&#xa;n8PCvyPGwuiKxMJggMfCdL3JwsMhysLi6sXCRa7Ewoykx8Jk/MXC0NfEwtK0xcJQTMTCvvvGwtqJ&#xD;&#xa;xMKmFsTCSbfGwq76x8IQ+sjCsqnIwkJdycIaT8fC0nbHwlf2xsLg/cbCtIHHwsTvxsI0KsbCsqDH&#xD;&#xa;wgLix8JGKcXCyNTDwjDwwsIb98bC6MjJwg6Zy8Kg+cvCaC3HwtIgw8KW7sXC3EHGwmcUxcL++8fC&#xD;&#xa;CWbIwsDoxsJFz8PCJkXFwiD7xcIQDsfC8ljIwrDLxMKkeMLClpHEwiqgyMJcjcjC6krGwl50w8Iy&#xD;&#xa;7sXCWv3HwkQ1xsKUwMPC2K/EwootxMJUqMTCH3LDwuojxcKil8fCjmXIwkLJxcID78TClTvGwhel&#xD;&#xa;xsIca8bC1rbCwk6+wsIQfsfCIlPHwpJExcLWhMbCDNvEwuryxMKklMXCeBDDwolhwcIiasLCQYfE&#xD;&#xa;whUfwsJx4MTCsEnIwkX0xcK+3sbCIqLHwrARx8IWtMTCGAnFwomNxMLfbcTCQIPDwjqww8L+MMTC&#xD;&#xa;mqjHwrBaxMI6YsTCxmvIwqyKycKQaMXCnx7FwkYvx8In6sjCGMzIwuvAxcL8a8XCiBjJwkvwyMKI&#xD;&#xa;qMbCTCTIwvQSy8IxEsvCVT/JwrI3w8LA8sLCCD7EwsxXxMJSjsXCfjXFwqTKxMI/gsPCDozDwtwF&#xD;&#xa;xMISn8bChHvJwlFQyMJYCsbCP4jIwtkBycLiFsrCbCrKwvyTysIWncnC+A3HwuI5x8I8/MbC0hHI&#xD;&#xa;wopJzMLmb83CFkvMwpy/y8Kn7MrCfJrJwuLDyMJKn8bCStTGwpb7ycIMo8nCcivFwsapxcJkx8bC&#xD;&#xa;ALLIwriaycJM3cfC8r/KwlSoy8I4A8vCpFHJwkRrzMIKr87CWD7MwsiJycKW9cfCUjbKwq+YycLi&#xD;&#xa;U8jCROHHwhdWycKaU8nCF7jMwmKaz8L//8zC8tjOwjxezsIUysvCzHLJwiJryMLRm8bCgLjKwsi8&#xD;&#xa;ysIhfszCPETLwqtbyMJGeMfCpRPJwnwZzMJSIs3CqhPMwmDiyMLZYsjCz13KwgwKy8LCi8jCyrTM&#xD;&#xa;wgwxzMK4ZcvC087JwkV2xsLyXsnCjIbLwhwvzcLfrM7CeITKwla3ysLK3cnC/PHFwpScxcIUQ8nC&#xD;&#xa;NJzIwrEsxsJvZcfCXSvIwlKLx8JII8nCvgzKwpnhysJSC8vC9iTKwiA/y8IadczCuDrMwuVaysLO&#xD;&#xa;r8vCXtfJwrZ6ycItucnCtonJwjyTysJkC83CL0nMwkjdyMIBucfCixrLwvSDysKGX8nCsCzMwuas&#xD;&#xa;0cIsnNPCuEvOwtr5y8LMBc7Cr+PTwsQc5MLcOfPCKOj0wjr59cJ0C/fCzg75wkwh+8LmVPnCqz72&#xD;&#xa;wnB+9cLuJvrCtEL4wkp7+MLOfffCDN3zwkaz9sLi8vjCFKr6wgIQ+cI8iPjCBpT4wvR1+MLQI/rC&#xD;&#xa;Ihn8wlQg+sIcLvjCVCz2wsI49MJQ9fbC23H3woy69sL4BfnCIOb2wjwy9cIuGvnCdmb3wj7K9MI+&#xD;&#xa;KPXCJpr2wn7C9cKQDvnCthv7woaP+cLGaPbCTr32wrpN+cIFSPjCDvX4wtD39sJY//TCKGf3wvZI&#xD;&#xa;+cK9YvfCgYf3wjIf+sLMMvfCpjz2wuA6+cII8vbCxDv1wmJG9sLka/rCPrT1wi589cLqjfbC9qP4&#xD;&#xa;wgzJ+MLelPbCGir2wlBC9sKeU/jC/nn3wsYn9sL4QPjCXBj5wopQ+MIaJvnCSB36wgjc+MIMfPfC&#xD;&#xa;W+z1wmYG+MKuxPnCCuD1wjh+9sLDrPfCOPj3wm7h+MJjMvfCxH/2wsXf98KwN/nCKOn5wrLR+sKg&#xD;&#xa;bPvCkFv5wsAu+cL2hffCySz2wmRX+MKiiPjCzFX4wvjB98Jgz/fCxPT4wobP+cL8avjC9r34wnKx&#xD;&#xa;+MK+LPnC3H34wle39cKejfbCNKP2wg5B9sK0H/rCSvz2woqE98JAqfjCBPL4wmKi+MIu2/jCMFD5&#xD;&#xa;wiCM+cKo//nCGqz7wlZN+sKUDfjC0ov4wrIU+sIVpffCP2/3woye98KktPbCTJj2wpH29cL3mvbC&#xD;&#xa;jL/4wti/+MLm3vjCQ9QE" leadInLength="0/1"  />
            </Keyframes>
           </Parameter>
           </Parameters>
          </GenericEffect>
          <GenericEffect id="6198" name = "WinCompression" >
           <Parameters>
           <InterpolatingParam id="6199" interp="linr"  time="0/1" value="0" leadInLength="0/1"   name="attack"/>
           <InterpolatingParam id="6200" interp="linr"  time="0/1" value="9" leadInLength="0/1"   name="gain"/>
           <Parameter id="6201"   name="preset">
            <Keyframes>
            <Keyframe id="6202"  time="0/1" value="1" leadInLength="0/1"  />
            </Keyframes>
           </Parameter>
           <InterpolatingParam id="6203" interp="linr"  time="0/1" value="10" leadInLength="0/1"   name="ratio"/>
           <InterpolatingParam id="6204" interp="linr"  time="0/1" value="3500" leadInLength="0/1"   name="release"/>
           <InterpolatingParam id="6205" interp="linr"  time="0/1" value="-20" leadInLength="0/1"   name="threshold"/>
           </Parameters>
          </GenericEffect>
          <GenericEffect id="6206" name = "Declipper" >
           <Parameters>
           <InterpolatingParam id="6207" interp="linr"  time="0/1" value="-1" leadInLength="0/1"   name="sensitivity"/>
           </Parameters>
          </GenericEffect>
          <GenericEffect id="6208" name = "Declicker" >
           <Parameters>
           <InterpolatingParam id="6209" interp="linr"  time="0/1" value="3" leadInLength="0/1"   name="sensitivity"/>
           </Parameters>
          </GenericEffect>
         </Effects>
         <Attributes>
          <Attribute id="6210" value="" name="ident"/>
          <Attribute id="6211" value="44100" name="sampleRate"/>
          <Attribute id="6212" value="16" name="bitDepth"/>
          <Attribute id="6213" value="1" name="gain"/>
          <Attribute id="6214" value="0" name="mixToMono"/>
         </Attributes>
         <MetaData>
          <entry key="WinSubProjectDisplayName" val=""/>
         </MetaData>
        </AMFile>
        <AMFile id="6215" start="8078" duration="381" scalar="1/1" mediaStart="12124/1" mediaDuration="381/1" trackNumber="0" src="22" channelNumber="0" >
         <Parameters>
          <InterpolatingParam id="6216" interp="linr"  name="volume">
           <Keyframes>
           <Keyframe id="6217"  time="0/1" value="1" leadInLength="0/1"  />
           <Keyframe id="6218"  time="3301/1" value="1" leadInLength="0/1"  />
           <Keyframe id="6219"  time="3302/1" value="0.80000000000000004" leadInLength="0/1"  />
           <Keyframe id="6220"  time="14568/1" value="0.80000000000000004" leadInLength="0/1"  />
           <Keyframe id="6221"  time="14569/1" value="1" leadInLength="0/1"  />
           </Keyframes>
          </InterpolatingParam>
          <Parameter id="6222"  name="captions"/>
         </Parameters>
         <Effects>
          <GenericEffect id="6223" name = "NoiseReduction" >
           <Parameters>
           <InterpolatingParam id="6224" interp="linr"  time="0/1" value="20" leadInLength="0/1"   name="denoiserAmount"/>
           <InterpolatingParam id="6225" interp="linr"  time="0/1" value="0" leadInLength="0/1"   name="denoiserThreshold"/>
           <Parameter id="6226"   name="noiseProfile">
            <Keyframes>
            <Keyframe id="6227"  time="0/1" value="FBAAAAIAAABErAAAAQIAADOmYsI/y13CPNeLwsehjcK+No/Cm+aOwlHvjcIja5HCun6XwoKemMJy&#xD;&#xa;lpPCuQeRwhgMlcJGdZvCTjScwgFMncIGh5zCGrOawuO0nMJdJZ3Cybudwo6toMIdraPCs/6jwpY0&#xD;&#xa;psLIUqjCWQmpwonmp8KcE6XCgXGlwqC+psIFHabCBoyownWvqcIkX6jCgnCpwms3qsIW0KfCM7Oj&#xD;&#xa;wnGLosJgcKnCdk6swiIgscKFrbDCtNmowrZmpcIHYqjCCg2pwqUNq8KgHq7ChEGxwhVFs8KU6LLC&#xD;&#xa;dvWzwpVHscI6NrDCMpGwwubcs8Imh7bCPKq6wj7tvMKSbr3ClsG+wq4qwMLXQr7CpAK5whxiuMJp&#xD;&#xa;v7nCwu29wloQvsIXTL3CzjDAwsDTwcL69sHC8urAwtAFwMIkSMLCpJHDwjLOw8JG8sTCmMvDwq7H&#xD;&#xa;wsLOncPC+CDDwkh6wsLU5sPCP23Fwm5Qx8KlYsTCm0XCwnhexcLsTsPCSMPDwjvJw8LMWcHC2XHD&#xD;&#xa;wjj5wsICs8TChWvEwgCywcKDdcHCFnHCwurMxMLlVsTCfrDGwmzqyMKoGsfC7ITIwtqRyMJwzcbC&#xD;&#xa;ppbEwiv5xcIXxsTCzDfCwtSExMKEjcTC8ObDwiJ9yMIQm8vCIkDGwqHyxcIyYcbCyAXIwmyBx8I4&#xD;&#xa;n8PCvyPGwuiKxMJggMfCdL3JwsMhysLi6sXCRa7Ewoykx8Jk/MXC0NfEwtK0xcJQTMTCvvvGwtqJ&#xD;&#xa;xMKmFsTCSbfGwq76x8IQ+sjCsqnIwkJdycIaT8fC0nbHwlf2xsLg/cbCtIHHwsTvxsI0KsbCsqDH&#xD;&#xa;wgLix8JGKcXCyNTDwjDwwsIb98bC6MjJwg6Zy8Kg+cvCaC3HwtIgw8KW7sXC3EHGwmcUxcL++8fC&#xD;&#xa;CWbIwsDoxsJFz8PCJkXFwiD7xcIQDsfC8ljIwrDLxMKkeMLClpHEwiqgyMJcjcjC6krGwl50w8Iy&#xD;&#xa;7sXCWv3HwkQ1xsKUwMPC2K/EwootxMJUqMTCH3LDwuojxcKil8fCjmXIwkLJxcID78TClTvGwhel&#xD;&#xa;xsIca8bC1rbCwk6+wsIQfsfCIlPHwpJExcLWhMbCDNvEwuryxMKklMXCeBDDwolhwcIiasLCQYfE&#xD;&#xa;whUfwsJx4MTCsEnIwkX0xcK+3sbCIqLHwrARx8IWtMTCGAnFwomNxMLfbcTCQIPDwjqww8L+MMTC&#xD;&#xa;mqjHwrBaxMI6YsTCxmvIwqyKycKQaMXCnx7FwkYvx8In6sjCGMzIwuvAxcL8a8XCiBjJwkvwyMKI&#xD;&#xa;qMbCTCTIwvQSy8IxEsvCVT/JwrI3w8LA8sLCCD7EwsxXxMJSjsXCfjXFwqTKxMI/gsPCDozDwtwF&#xD;&#xa;xMISn8bChHvJwlFQyMJYCsbCP4jIwtkBycLiFsrCbCrKwvyTysIWncnC+A3HwuI5x8I8/MbC0hHI&#xD;&#xa;wopJzMLmb83CFkvMwpy/y8Kn7MrCfJrJwuLDyMJKn8bCStTGwpb7ycIMo8nCcivFwsapxcJkx8bC&#xD;&#xa;ALLIwriaycJM3cfC8r/KwlSoy8I4A8vCpFHJwkRrzMIKr87CWD7MwsiJycKW9cfCUjbKwq+YycLi&#xD;&#xa;U8jCROHHwhdWycKaU8nCF7jMwmKaz8L//8zC8tjOwjxezsIUysvCzHLJwiJryMLRm8bCgLjKwsi8&#xD;&#xa;ysIhfszCPETLwqtbyMJGeMfCpRPJwnwZzMJSIs3CqhPMwmDiyMLZYsjCz13KwgwKy8LCi8jCyrTM&#xD;&#xa;wgwxzMK4ZcvC087JwkV2xsLyXsnCjIbLwhwvzcLfrM7CeITKwla3ysLK3cnC/PHFwpScxcIUQ8nC&#xD;&#xa;NJzIwrEsxsJvZcfCXSvIwlKLx8JII8nCvgzKwpnhysJSC8vC9iTKwiA/y8IadczCuDrMwuVaysLO&#xD;&#xa;r8vCXtfJwrZ6ycItucnCtonJwjyTysJkC83CL0nMwkjdyMIBucfCixrLwvSDysKGX8nCsCzMwuas&#xD;&#xa;0cIsnNPCuEvOwtr5y8LMBc7Cr+PTwsQc5MLcOfPCKOj0wjr59cJ0C/fCzg75wkwh+8LmVPnCqz72&#xD;&#xa;wnB+9cLuJvrCtEL4wkp7+MLOfffCDN3zwkaz9sLi8vjCFKr6wgIQ+cI8iPjCBpT4wvR1+MLQI/rC&#xD;&#xa;Ihn8wlQg+sIcLvjCVCz2wsI49MJQ9fbC23H3woy69sL4BfnCIOb2wjwy9cIuGvnCdmb3wj7K9MI+&#xD;&#xa;KPXCJpr2wn7C9cKQDvnCthv7woaP+cLGaPbCTr32wrpN+cIFSPjCDvX4wtD39sJY//TCKGf3wvZI&#xD;&#xa;+cK9YvfCgYf3wjIf+sLMMvfCpjz2wuA6+cII8vbCxDv1wmJG9sLka/rCPrT1wi589cLqjfbC9qP4&#xD;&#xa;wgzJ+MLelPbCGir2wlBC9sKeU/jC/nn3wsYn9sL4QPjCXBj5wopQ+MIaJvnCSB36wgjc+MIMfPfC&#xD;&#xa;W+z1wmYG+MKuxPnCCuD1wjh+9sLDrPfCOPj3wm7h+MJjMvfCxH/2wsXf98KwN/nCKOn5wrLR+sKg&#xD;&#xa;bPvCkFv5wsAu+cL2hffCySz2wmRX+MKiiPjCzFX4wvjB98Jgz/fCxPT4wobP+cL8avjC9r34wnKx&#xD;&#xa;+MK+LPnC3H34wle39cKejfbCNKP2wg5B9sK0H/rCSvz2woqE98JAqfjCBPL4wmKi+MIu2/jCMFD5&#xD;&#xa;wiCM+cKo//nCGqz7wlZN+sKUDfjC0ov4wrIU+sIVpffCP2/3woye98KktPbCTJj2wpH29cL3mvbC&#xD;&#xa;jL/4wti/+MLm3vjCQ9QEwzOmYsI/y13CPNeLwsehjcK+No/Cm+aOwlHvjcIja5HCun6XwoKemMJy&#xD;&#xa;lpPCuQeRwhgMlcJGdZvCTjScwgFMncIGh5zCGrOawuO0nMJdJZ3Cybudwo6toMIdraPCs/6jwpY0&#xD;&#xa;psLIUqjCWQmpwonmp8KcE6XCgXGlwqC+psIFHabCBoyownWvqcIkX6jCgnCpwms3qsIW0KfCM7Oj&#xD;&#xa;wnGLosJgcKnCdk6swiIgscKFrbDCtNmowrZmpcIHYqjCCg2pwqUNq8KgHq7ChEGxwhVFs8KU6LLC&#xD;&#xa;dvWzwpVHscI6NrDCMpGwwubcs8Imh7bCPKq6wj7tvMKSbr3ClsG+wq4qwMLXQr7CpAK5whxiuMJp&#xD;&#xa;v7nCwu29wloQvsIXTL3CzjDAwsDTwcL69sHC8urAwtAFwMIkSMLCpJHDwjLOw8JG8sTCmMvDwq7H&#xD;&#xa;wsLOncPC+CDDwkh6wsLU5sPCP23Fwm5Qx8KlYsTCm0XCwnhexcLsTsPCSMPDwjvJw8LMWcHC2XHD&#xD;&#xa;wjj5wsICs8TChWvEwgCywcKDdcHCFnHCwurMxMLlVsTCfrDGwmzqyMKoGsfC7ITIwtqRyMJwzcbC&#xD;&#xa;ppbEwiv5xcIXxsTCzDfCwtSExMKEjcTC8ObDwiJ9yMIQm8vCIkDGwqHyxcIyYcbCyAXIwmyBx8I4&#xD;&#xa;n8PCvyPGwuiKxMJggMfCdL3JwsMhysLi6sXCRa7Ewoykx8Jk/MXC0NfEwtK0xcJQTMTCvvvGwtqJ&#xD;&#xa;xMKmFsTCSbfGwq76x8IQ+sjCsqnIwkJdycIaT8fC0nbHwlf2xsLg/cbCtIHHwsTvxsI0KsbCsqDH&#xD;&#xa;wgLix8JGKcXCyNTDwjDwwsIb98bC6MjJwg6Zy8Kg+cvCaC3HwtIgw8KW7sXC3EHGwmcUxcL++8fC&#xD;&#xa;CWbIwsDoxsJFz8PCJkXFwiD7xcIQDsfC8ljIwrDLxMKkeMLClpHEwiqgyMJcjcjC6krGwl50w8Iy&#xD;&#xa;7sXCWv3HwkQ1xsKUwMPC2K/EwootxMJUqMTCH3LDwuojxcKil8fCjmXIwkLJxcID78TClTvGwhel&#xD;&#xa;xsIca8bC1rbCwk6+wsIQfsfCIlPHwpJExcLWhMbCDNvEwuryxMKklMXCeBDDwolhwcIiasLCQYfE&#xD;&#xa;whUfwsJx4MTCsEnIwkX0xcK+3sbCIqLHwrARx8IWtMTCGAnFwomNxMLfbcTCQIPDwjqww8L+MMTC&#xD;&#xa;mqjHwrBaxMI6YsTCxmvIwqyKycKQaMXCnx7FwkYvx8In6sjCGMzIwuvAxcL8a8XCiBjJwkvwyMKI&#xD;&#xa;qMbCTCTIwvQSy8IxEsvCVT/JwrI3w8LA8sLCCD7EwsxXxMJSjsXCfjXFwqTKxMI/gsPCDozDwtwF&#xD;&#xa;xMISn8bChHvJwlFQyMJYCsbCP4jIwtkBycLiFsrCbCrKwvyTysIWncnC+A3HwuI5x8I8/MbC0hHI&#xD;&#xa;wopJzMLmb83CFkvMwpy/y8Kn7MrCfJrJwuLDyMJKn8bCStTGwpb7ycIMo8nCcivFwsapxcJkx8bC&#xD;&#xa;ALLIwriaycJM3cfC8r/KwlSoy8I4A8vCpFHJwkRrzMIKr87CWD7MwsiJycKW9cfCUjbKwq+YycLi&#xD;&#xa;U8jCROHHwhdWycKaU8nCF7jMwmKaz8L//8zC8tjOwjxezsIUysvCzHLJwiJryMLRm8bCgLjKwsi8&#xD;&#xa;ysIhfszCPETLwqtbyMJGeMfCpRPJwnwZzMJSIs3CqhPMwmDiyMLZYsjCz13KwgwKy8LCi8jCyrTM&#xD;&#xa;wgwxzMK4ZcvC087JwkV2xsLyXsnCjIbLwhwvzcLfrM7CeITKwla3ysLK3cnC/PHFwpScxcIUQ8nC&#xD;&#xa;NJzIwrEsxsJvZcfCXSvIwlKLx8JII8nCvgzKwpnhysJSC8vC9iTKwiA/y8IadczCuDrMwuVaysLO&#xD;&#xa;r8vCXtfJwrZ6ycItucnCtonJwjyTysJkC83CL0nMwkjdyMIBucfCixrLwvSDysKGX8nCsCzMwuas&#xD;&#xa;0cIsnNPCuEvOwtr5y8LMBc7Cr+PTwsQc5MLcOfPCKOj0wjr59cJ0C/fCzg75wkwh+8LmVPnCqz72&#xD;&#xa;wnB+9cLuJvrCtEL4wkp7+MLOfffCDN3zwkaz9sLi8vjCFKr6wgIQ+cI8iPjCBpT4wvR1+MLQI/rC&#xD;&#xa;Ihn8wlQg+sIcLvjCVCz2wsI49MJQ9fbC23H3woy69sL4BfnCIOb2wjwy9cIuGvnCdmb3wj7K9MI+&#xD;&#xa;KPXCJpr2wn7C9cKQDvnCthv7woaP+cLGaPbCTr32wrpN+cIFSPjCDvX4wtD39sJY//TCKGf3wvZI&#xD;&#xa;+cK9YvfCgYf3wjIf+sLMMvfCpjz2wuA6+cII8vbCxDv1wmJG9sLka/rCPrT1wi589cLqjfbC9qP4&#xD;&#xa;wgzJ+MLelPbCGir2wlBC9sKeU/jC/nn3wsYn9sL4QPjCXBj5wopQ+MIaJvnCSB36wgjc+MIMfPfC&#xD;&#xa;W+z1wmYG+MKuxPnCCuD1wjh+9sLDrPfCOPj3wm7h+MJjMvfCxH/2wsXf98KwN/nCKOn5wrLR+sKg&#xD;&#xa;bPvCkFv5wsAu+cL2hffCySz2wmRX+MKiiPjCzFX4wvjB98Jgz/fCxPT4wobP+cL8avjC9r34wnKx&#xD;&#xa;+MK+LPnC3H34wle39cKejfbCNKP2wg5B9sK0H/rCSvz2woqE98JAqfjCBPL4wmKi+MIu2/jCMFD5&#xD;&#xa;wiCM+cKo//nCGqz7wlZN+sKUDfjC0ov4wrIU+sIVpffCP2/3woye98KktPbCTJj2wpH29cL3mvbC&#xD;&#xa;jL/4wti/+MLm3vjCQ9QE" leadInLength="0/1"  />
            </Keyframes>
           </Parameter>
           </Parameters>
          </GenericEffect>
          <GenericEffect id="6228" name = "WinCompression" >
           <Parameters>
           <InterpolatingParam id="6229" interp="linr"  time="0/1" value="0" leadInLength="0/1"   name="attack"/>
           <InterpolatingParam id="6230" interp="linr"  time="0/1" value="9" leadInLength="0/1"   name="gain"/>
           <Parameter id="6231"   name="preset">
            <Keyframes>
            <Keyframe id="6232"  time="0/1" value="1" leadInLength="0/1"  />
            </Keyframes>
           </Parameter>
           <InterpolatingParam id="6233" interp="linr"  time="0/1" value="10" leadInLength="0/1"   name="ratio"/>
           <InterpolatingParam id="6234" interp="linr"  time="0/1" value="3500" leadInLength="0/1"   name="release"/>
           <InterpolatingParam id="6235" interp="linr"  time="0/1" value="-20" leadInLength="0/1"   name="threshold"/>
           </Parameters>
          </GenericEffect>
          <GenericEffect id="6236" name = "Declipper" >
           <Parameters>
           <InterpolatingParam id="6237" interp="linr"  time="0/1" value="-1" leadInLength="0/1"   name="sensitivity"/>
           </Parameters>
          </GenericEffect>
          <GenericEffect id="6238" name = "Declicker" >
           <Parameters>
           <InterpolatingParam id="6239" interp="linr"  time="0/1" value="3" leadInLength="0/1"   name="sensitivity"/>
           </Parameters>
          </GenericEffect>
         </Effects>
         <Attributes>
          <Attribute id="6240" value="" name="ident"/>
          <Attribute id="6241" value="44100" name="sampleRate"/>
          <Attribute id="6242" value="16" name="bitDepth"/>
          <Attribute id="6243" value="1" name="gain"/>
          <Attribute id="6244" value="0" name="mixToMono"/>
         </Attributes>
         <MetaData>
          <entry key="WinSubProjectDisplayName" val=""/>
         </MetaData>
        </AMFile>
        <AMFile id="6245" start="8459" duration="33" scalar="1/1" mediaStart="12518/1" mediaDuration="33/1" trackNumber="0" src="22" channelNumber="0" >
         <Parameters>
          <InterpolatingParam id="6246" interp="linr"  name="volume">
           <Keyframes>
           <Keyframe id="6247"  time="0/1" value="1" leadInLength="0/1"  />
           <Keyframe id="6248"  time="3301/1" value="1" leadInLength="0/1"  />
           <Keyframe id="6249"  time="3302/1" value="0.80000000000000004" leadInLength="0/1"  />
           <Keyframe id="6250"  time="14568/1" value="0.80000000000000004" leadInLength="0/1"  />
           <Keyframe id="6251"  time="14569/1" value="1" leadInLength="0/1"  />
           </Keyframes>
          </InterpolatingParam>
          <Parameter id="6252"  name="captions"/>
         </Parameters>
         <Effects>
          <GenericEffect id="6253" name = "NoiseReduction" >
           <Parameters>
           <InterpolatingParam id="6254" interp="linr"  time="0/1" value="20" leadInLength="0/1"   name="denoiserAmount"/>
           <InterpolatingParam id="6255" interp="linr"  time="0/1" value="0" leadInLength="0/1"   name="denoiserThreshold"/>
           <Parameter id="6256"   name="noiseProfile">
            <Keyframes>
            <Keyframe id="6257"  time="0/1" value="FBAAAAIAAABErAAAAQIAADOmYsI/y13CPNeLwsehjcK+No/Cm+aOwlHvjcIja5HCun6XwoKemMJy&#xD;&#xa;lpPCuQeRwhgMlcJGdZvCTjScwgFMncIGh5zCGrOawuO0nMJdJZ3Cybudwo6toMIdraPCs/6jwpY0&#xD;&#xa;psLIUqjCWQmpwonmp8KcE6XCgXGlwqC+psIFHabCBoyownWvqcIkX6jCgnCpwms3qsIW0KfCM7Oj&#xD;&#xa;wnGLosJgcKnCdk6swiIgscKFrbDCtNmowrZmpcIHYqjCCg2pwqUNq8KgHq7ChEGxwhVFs8KU6LLC&#xD;&#xa;dvWzwpVHscI6NrDCMpGwwubcs8Imh7bCPKq6wj7tvMKSbr3ClsG+wq4qwMLXQr7CpAK5whxiuMJp&#xD;&#xa;v7nCwu29wloQvsIXTL3CzjDAwsDTwcL69sHC8urAwtAFwMIkSMLCpJHDwjLOw8JG8sTCmMvDwq7H&#xD;&#xa;wsLOncPC+CDDwkh6wsLU5sPCP23Fwm5Qx8KlYsTCm0XCwnhexcLsTsPCSMPDwjvJw8LMWcHC2XHD&#xD;&#xa;wjj5wsICs8TChWvEwgCywcKDdcHCFnHCwurMxMLlVsTCfrDGwmzqyMKoGsfC7ITIwtqRyMJwzcbC&#xD;&#xa;ppbEwiv5xcIXxsTCzDfCwtSExMKEjcTC8ObDwiJ9yMIQm8vCIkDGwqHyxcIyYcbCyAXIwmyBx8I4&#xD;&#xa;n8PCvyPGwuiKxMJggMfCdL3JwsMhysLi6sXCRa7Ewoykx8Jk/MXC0NfEwtK0xcJQTMTCvvvGwtqJ&#xD;&#xa;xMKmFsTCSbfGwq76x8IQ+sjCsqnIwkJdycIaT8fC0nbHwlf2xsLg/cbCtIHHwsTvxsI0KsbCsqDH&#xD;&#xa;wgLix8JGKcXCyNTDwjDwwsIb98bC6MjJwg6Zy8Kg+cvCaC3HwtIgw8KW7sXC3EHGwmcUxcL++8fC&#xD;&#xa;CWbIwsDoxsJFz8PCJkXFwiD7xcIQDsfC8ljIwrDLxMKkeMLClpHEwiqgyMJcjcjC6krGwl50w8Iy&#xD;&#xa;7sXCWv3HwkQ1xsKUwMPC2K/EwootxMJUqMTCH3LDwuojxcKil8fCjmXIwkLJxcID78TClTvGwhel&#xD;&#xa;xsIca8bC1rbCwk6+wsIQfsfCIlPHwpJExcLWhMbCDNvEwuryxMKklMXCeBDDwolhwcIiasLCQYfE&#xD;&#xa;whUfwsJx4MTCsEnIwkX0xcK+3sbCIqLHwrARx8IWtMTCGAnFwomNxMLfbcTCQIPDwjqww8L+MMTC&#xD;&#xa;mqjHwrBaxMI6YsTCxmvIwqyKycKQaMXCnx7FwkYvx8In6sjCGMzIwuvAxcL8a8XCiBjJwkvwyMKI&#xD;&#xa;qMbCTCTIwvQSy8IxEsvCVT/JwrI3w8LA8sLCCD7EwsxXxMJSjsXCfjXFwqTKxMI/gsPCDozDwtwF&#xD;&#xa;xMISn8bChHvJwlFQyMJYCsbCP4jIwtkBycLiFsrCbCrKwvyTysIWncnC+A3HwuI5x8I8/MbC0hHI&#xD;&#xa;wopJzMLmb83CFkvMwpy/y8Kn7MrCfJrJwuLDyMJKn8bCStTGwpb7ycIMo8nCcivFwsapxcJkx8bC&#xD;&#xa;ALLIwriaycJM3cfC8r/KwlSoy8I4A8vCpFHJwkRrzMIKr87CWD7MwsiJycKW9cfCUjbKwq+YycLi&#xD;&#xa;U8jCROHHwhdWycKaU8nCF7jMwmKaz8L//8zC8tjOwjxezsIUysvCzHLJwiJryMLRm8bCgLjKwsi8&#xD;&#xa;ysIhfszCPETLwqtbyMJGeMfCpRPJwnwZzMJSIs3CqhPMwmDiyMLZYsjCz13KwgwKy8LCi8jCyrTM&#xD;&#xa;wgwxzMK4ZcvC087JwkV2xsLyXsnCjIbLwhwvzcLfrM7CeITKwla3ysLK3cnC/PHFwpScxcIUQ8nC&#xD;&#xa;NJzIwrEsxsJvZcfCXSvIwlKLx8JII8nCvgzKwpnhysJSC8vC9iTKwiA/y8IadczCuDrMwuVaysLO&#xD;&#xa;r8vCXtfJwrZ6ycItucnCtonJwjyTysJkC83CL0nMwkjdyMIBucfCixrLwvSDysKGX8nCsCzMwuas&#xD;&#xa;0cIsnNPCuEvOwtr5y8LMBc7Cr+PTwsQc5MLcOfPCKOj0wjr59cJ0C/fCzg75wkwh+8LmVPnCqz72&#xD;&#xa;wnB+9cLuJvrCtEL4wkp7+MLOfffCDN3zwkaz9sLi8vjCFKr6wgIQ+cI8iPjCBpT4wvR1+MLQI/rC&#xD;&#xa;Ihn8wlQg+sIcLvjCVCz2wsI49MJQ9fbC23H3woy69sL4BfnCIOb2wjwy9cIuGvnCdmb3wj7K9MI+&#xD;&#xa;KPXCJpr2wn7C9cKQDvnCthv7woaP+cLGaPbCTr32wrpN+cIFSPjCDvX4wtD39sJY//TCKGf3wvZI&#xD;&#xa;+cK9YvfCgYf3wjIf+sLMMvfCpjz2wuA6+cII8vbCxDv1wmJG9sLka/rCPrT1wi589cLqjfbC9qP4&#xD;&#xa;wgzJ+MLelPbCGir2wlBC9sKeU/jC/nn3wsYn9sL4QPjCXBj5wopQ+MIaJvnCSB36wgjc+MIMfPfC&#xD;&#xa;W+z1wmYG+MKuxPnCCuD1wjh+9sLDrPfCOPj3wm7h+MJjMvfCxH/2wsXf98KwN/nCKOn5wrLR+sKg&#xD;&#xa;bPvCkFv5wsAu+cL2hffCySz2wmRX+MKiiPjCzFX4wvjB98Jgz/fCxPT4wobP+cL8avjC9r34wnKx&#xD;&#xa;+MK+LPnC3H34wle39cKejfbCNKP2wg5B9sK0H/rCSvz2woqE98JAqfjCBPL4wmKi+MIu2/jCMFD5&#xD;&#xa;wiCM+cKo//nCGqz7wlZN+sKUDfjC0ov4wrIU+sIVpffCP2/3woye98KktPbCTJj2wpH29cL3mvbC&#xD;&#xa;jL/4wti/+MLm3vjCQ9QEwzOmYsI/y13CPNeLwsehjcK+No/Cm+aOwlHvjcIja5HCun6XwoKemMJy&#xD;&#xa;lpPCuQeRwhgMlcJGdZvCTjScwgFMncIGh5zCGrOawuO0nMJdJZ3Cybudwo6toMIdraPCs/6jwpY0&#xD;&#xa;psLIUqjCWQmpwonmp8KcE6XCgXGlwqC+psIFHabCBoyownWvqcIkX6jCgnCpwms3qsIW0KfCM7Oj&#xD;&#xa;wnGLosJgcKnCdk6swiIgscKFrbDCtNmowrZmpcIHYqjCCg2pwqUNq8KgHq7ChEGxwhVFs8KU6LLC&#xD;&#xa;dvWzwpVHscI6NrDCMpGwwubcs8Imh7bCPKq6wj7tvMKSbr3ClsG+wq4qwMLXQr7CpAK5whxiuMJp&#xD;&#xa;v7nCwu29wloQvsIXTL3CzjDAwsDTwcL69sHC8urAwtAFwMIkSMLCpJHDwjLOw8JG8sTCmMvDwq7H&#xD;&#xa;wsLOncPC+CDDwkh6wsLU5sPCP23Fwm5Qx8KlYsTCm0XCwnhexcLsTsPCSMPDwjvJw8LMWcHC2XHD&#xD;&#xa;wjj5wsICs8TChWvEwgCywcKDdcHCFnHCwurMxMLlVsTCfrDGwmzqyMKoGsfC7ITIwtqRyMJwzcbC&#xD;&#xa;ppbEwiv5xcIXxsTCzDfCwtSExMKEjcTC8ObDwiJ9yMIQm8vCIkDGwqHyxcIyYcbCyAXIwmyBx8I4&#xD;&#xa;n8PCvyPGwuiKxMJggMfCdL3JwsMhysLi6sXCRa7Ewoykx8Jk/MXC0NfEwtK0xcJQTMTCvvvGwtqJ&#xD;&#xa;xMKmFsTCSbfGwq76x8IQ+sjCsqnIwkJdycIaT8fC0nbHwlf2xsLg/cbCtIHHwsTvxsI0KsbCsqDH&#xD;&#xa;wgLix8JGKcXCyNTDwjDwwsIb98bC6MjJwg6Zy8Kg+cvCaC3HwtIgw8KW7sXC3EHGwmcUxcL++8fC&#xD;&#xa;CWbIwsDoxsJFz8PCJkXFwiD7xcIQDsfC8ljIwrDLxMKkeMLClpHEwiqgyMJcjcjC6krGwl50w8Iy&#xD;&#xa;7sXCWv3HwkQ1xsKUwMPC2K/EwootxMJUqMTCH3LDwuojxcKil8fCjmXIwkLJxcID78TClTvGwhel&#xD;&#xa;xsIca8bC1rbCwk6+wsIQfsfCIlPHwpJExcLWhMbCDNvEwuryxMKklMXCeBDDwolhwcIiasLCQYfE&#xD;&#xa;whUfwsJx4MTCsEnIwkX0xcK+3sbCIqLHwrARx8IWtMTCGAnFwomNxMLfbcTCQIPDwjqww8L+MMTC&#xD;&#xa;mqjHwrBaxMI6YsTCxmvIwqyKycKQaMXCnx7FwkYvx8In6sjCGMzIwuvAxcL8a8XCiBjJwkvwyMKI&#xD;&#xa;qMbCTCTIwvQSy8IxEsvCVT/JwrI3w8LA8sLCCD7EwsxXxMJSjsXCfjXFwqTKxMI/gsPCDozDwtwF&#xD;&#xa;xMISn8bChHvJwlFQyMJYCsbCP4jIwtkBycLiFsrCbCrKwvyTysIWncnC+A3HwuI5x8I8/MbC0hHI&#xD;&#xa;wopJzMLmb83CFkvMwpy/y8Kn7MrCfJrJwuLDyMJKn8bCStTGwpb7ycIMo8nCcivFwsapxcJkx8bC&#xD;&#xa;ALLIwriaycJM3cfC8r/KwlSoy8I4A8vCpFHJwkRrzMIKr87CWD7MwsiJycKW9cfCUjbKwq+YycLi&#xD;&#xa;U8jCROHHwhdWycKaU8nCF7jMwmKaz8L//8zC8tjOwjxezsIUysvCzHLJwiJryMLRm8bCgLjKwsi8&#xD;&#xa;ysIhfszCPETLwqtbyMJGeMfCpRPJwnwZzMJSIs3CqhPMwmDiyMLZYsjCz13KwgwKy8LCi8jCyrTM&#xD;&#xa;wgwxzMK4ZcvC087JwkV2xsLyXsnCjIbLwhwvzcLfrM7CeITKwla3ysLK3cnC/PHFwpScxcIUQ8nC&#xD;&#xa;NJzIwrEsxsJvZcfCXSvIwlKLx8JII8nCvgzKwpnhysJSC8vC9iTKwiA/y8IadczCuDrMwuVaysLO&#xD;&#xa;r8vCXtfJwrZ6ycItucnCtonJwjyTysJkC83CL0nMwkjdyMIBucfCixrLwvSDysKGX8nCsCzMwuas&#xD;&#xa;0cIsnNPCuEvOwtr5y8LMBc7Cr+PTwsQc5MLcOfPCKOj0wjr59cJ0C/fCzg75wkwh+8LmVPnCqz72&#xD;&#xa;wnB+9cLuJvrCtEL4wkp7+MLOfffCDN3zwkaz9sLi8vjCFKr6wgIQ+cI8iPjCBpT4wvR1+MLQI/rC&#xD;&#xa;Ihn8wlQg+sIcLvjCVCz2wsI49MJQ9fbC23H3woy69sL4BfnCIOb2wjwy9cIuGvnCdmb3wj7K9MI+&#xD;&#xa;KPXCJpr2wn7C9cKQDvnCthv7woaP+cLGaPbCTr32wrpN+cIFSPjCDvX4wtD39sJY//TCKGf3wvZI&#xD;&#xa;+cK9YvfCgYf3wjIf+sLMMvfCpjz2wuA6+cII8vbCxDv1wmJG9sLka/rCPrT1wi589cLqjfbC9qP4&#xD;&#xa;wgzJ+MLelPbCGir2wlBC9sKeU/jC/nn3wsYn9sL4QPjCXBj5wopQ+MIaJvnCSB36wgjc+MIMfPfC&#xD;&#xa;W+z1wmYG+MKuxPnCCuD1wjh+9sLDrPfCOPj3wm7h+MJjMvfCxH/2wsXf98KwN/nCKOn5wrLR+sKg&#xD;&#xa;bPvCkFv5wsAu+cL2hffCySz2wmRX+MKiiPjCzFX4wvjB98Jgz/fCxPT4wobP+cL8avjC9r34wnKx&#xD;&#xa;+MK+LPnC3H34wle39cKejfbCNKP2wg5B9sK0H/rCSvz2woqE98JAqfjCBPL4wmKi+MIu2/jCMFD5&#xD;&#xa;wiCM+cKo//nCGqz7wlZN+sKUDfjC0ov4wrIU+sIVpffCP2/3woye98KktPbCTJj2wpH29cL3mvbC&#xD;&#xa;jL/4wti/+MLm3vjCQ9QE" leadInLength="0/1"  />
            </Keyframes>
           </Parameter>
           </Parameters>
          </GenericEffect>
          <GenericEffect id="6258" name = "WinCompression" >
           <Parameters>
           <InterpolatingParam id="6259" interp="linr"  time="0/1" value="0" leadInLength="0/1"   name="attack"/>
           <InterpolatingParam id="6260" interp="linr"  time="0/1" value="9" leadInLength="0/1"   name="gain"/>
           <Parameter id="6261"   name="preset">
            <Keyframes>
            <Keyframe id="6262"  time="0/1" value="1" leadInLength="0/1"  />
            </Keyframes>
           </Parameter>
           <InterpolatingParam id="6263" interp="linr"  time="0/1" value="10" leadInLength="0/1"   name="ratio"/>
           <InterpolatingParam id="6264" interp="linr"  time="0/1" value="3500" leadInLength="0/1"   name="release"/>
           <InterpolatingParam id="6265" interp="linr"  time="0/1" value="-20" leadInLength="0/1"   name="threshold"/>
           </Parameters>
          </GenericEffect>
          <GenericEffect id="6266" name = "Declipper" >
           <Parameters>
           <InterpolatingParam id="6267" interp="linr"  time="0/1" value="-1" leadInLength="0/1"   name="sensitivity"/>
           </Parameters>
          </GenericEffect>
          <GenericEffect id="6268" name = "Declicker" >
           <Parameters>
           <InterpolatingParam id="6269" interp="linr"  time="0/1" value="3" leadInLength="0/1"   name="sensitivity"/>
           </Parameters>
          </GenericEffect>
         </Effects>
         <Attributes>
          <Attribute id="6270" value="" name="ident"/>
          <Attribute id="6271" value="44100" name="sampleRate"/>
          <Attribute id="6272" value="16" name="bitDepth"/>
          <Attribute id="6273" value="1" name="gain"/>
          <Attribute id="6274" value="0" name="mixToMono"/>
         </Attributes>
         <MetaData>
          <entry key="WinSubProjectDisplayName" val=""/>
         </MetaData>
        </AMFile>
        <AMFile id="6275" start="8498" duration="43" scalar="1/1" mediaStart="14271/1" mediaDuration="43/1" trackNumber="0" src="22" channelNumber="0" >
         <Parameters>
          <InterpolatingParam id="6276" interp="linr"  name="volume">
           <Keyframes>
           <Keyframe id="6277"  time="0/1" value="1" leadInLength="0/1"  />
           <Keyframe id="6278"  time="3301/1" value="1" leadInLength="0/1"  />
           <Keyframe id="6279"  time="3302/1" value="0.80000000000000004" leadInLength="0/1"  />
           <Keyframe id="6280"  time="14568/1" value="0.80000000000000004" leadInLength="0/1"  />
           <Keyframe id="6281"  time="14569/1" value="1" leadInLength="0/1"  />
           </Keyframes>
          </InterpolatingParam>
          <Parameter id="6282"  name="captions"/>
         </Parameters>
         <Effects>
          <GenericEffect id="6283" name = "NoiseReduction" >
           <Parameters>
           <InterpolatingParam id="6284" interp="linr"  time="0/1" value="20" leadInLength="0/1"   name="denoiserAmount"/>
           <InterpolatingParam id="6285" interp="linr"  time="0/1" value="0" leadInLength="0/1"   name="denoiserThreshold"/>
           <Parameter id="6286"   name="noiseProfile">
            <Keyframes>
            <Keyframe id="6287"  time="0/1" value="FBAAAAIAAABErAAAAQIAADOmYsI/y13CPNeLwsehjcK+No/Cm+aOwlHvjcIja5HCun6XwoKemMJy&#xD;&#xa;lpPCuQeRwhgMlcJGdZvCTjScwgFMncIGh5zCGrOawuO0nMJdJZ3Cybudwo6toMIdraPCs/6jwpY0&#xD;&#xa;psLIUqjCWQmpwonmp8KcE6XCgXGlwqC+psIFHabCBoyownWvqcIkX6jCgnCpwms3qsIW0KfCM7Oj&#xD;&#xa;wnGLosJgcKnCdk6swiIgscKFrbDCtNmowrZmpcIHYqjCCg2pwqUNq8KgHq7ChEGxwhVFs8KU6LLC&#xD;&#xa;dvWzwpVHscI6NrDCMpGwwubcs8Imh7bCPKq6wj7tvMKSbr3ClsG+wq4qwMLXQr7CpAK5whxiuMJp&#xD;&#xa;v7nCwu29wloQvsIXTL3CzjDAwsDTwcL69sHC8urAwtAFwMIkSMLCpJHDwjLOw8JG8sTCmMvDwq7H&#xD;&#xa;wsLOncPC+CDDwkh6wsLU5sPCP23Fwm5Qx8KlYsTCm0XCwnhexcLsTsPCSMPDwjvJw8LMWcHC2XHD&#xD;&#xa;wjj5wsICs8TChWvEwgCywcKDdcHCFnHCwurMxMLlVsTCfrDGwmzqyMKoGsfC7ITIwtqRyMJwzcbC&#xD;&#xa;ppbEwiv5xcIXxsTCzDfCwtSExMKEjcTC8ObDwiJ9yMIQm8vCIkDGwqHyxcIyYcbCyAXIwmyBx8I4&#xD;&#xa;n8PCvyPGwuiKxMJggMfCdL3JwsMhysLi6sXCRa7Ewoykx8Jk/MXC0NfEwtK0xcJQTMTCvvvGwtqJ&#xD;&#xa;xMKmFsTCSbfGwq76x8IQ+sjCsqnIwkJdycIaT8fC0nbHwlf2xsLg/cbCtIHHwsTvxsI0KsbCsqDH&#xD;&#xa;wgLix8JGKcXCyNTDwjDwwsIb98bC6MjJwg6Zy8Kg+cvCaC3HwtIgw8KW7sXC3EHGwmcUxcL++8fC&#xD;&#xa;CWbIwsDoxsJFz8PCJkXFwiD7xcIQDsfC8ljIwrDLxMKkeMLClpHEwiqgyMJcjcjC6krGwl50w8Iy&#xD;&#xa;7sXCWv3HwkQ1xsKUwMPC2K/EwootxMJUqMTCH3LDwuojxcKil8fCjmXIwkLJxcID78TClTvGwhel&#xD;&#xa;xsIca8bC1rbCwk6+wsIQfsfCIlPHwpJExcLWhMbCDNvEwuryxMKklMXCeBDDwolhwcIiasLCQYfE&#xD;&#xa;whUfwsJx4MTCsEnIwkX0xcK+3sbCIqLHwrARx8IWtMTCGAnFwomNxMLfbcTCQIPDwjqww8L+MMTC&#xD;&#xa;mqjHwrBaxMI6YsTCxmvIwqyKycKQaMXCnx7FwkYvx8In6sjCGMzIwuvAxcL8a8XCiBjJwkvwyMKI&#xD;&#xa;qMbCTCTIwvQSy8IxEsvCVT/JwrI3w8LA8sLCCD7EwsxXxMJSjsXCfjXFwqTKxMI/gsPCDozDwtwF&#xD;&#xa;xMISn8bChHvJwlFQyMJYCsbCP4jIwtkBycLiFsrCbCrKwvyTysIWncnC+A3HwuI5x8I8/MbC0hHI&#xD;&#xa;wopJzMLmb83CFkvMwpy/y8Kn7MrCfJrJwuLDyMJKn8bCStTGwpb7ycIMo8nCcivFwsapxcJkx8bC&#xD;&#xa;ALLIwriaycJM3cfC8r/KwlSoy8I4A8vCpFHJwkRrzMIKr87CWD7MwsiJycKW9cfCUjbKwq+YycLi&#xD;&#xa;U8jCROHHwhdWycKaU8nCF7jMwmKaz8L//8zC8tjOwjxezsIUysvCzHLJwiJryMLRm8bCgLjKwsi8&#xD;&#xa;ysIhfszCPETLwqtbyMJGeMfCpRPJwnwZzMJSIs3CqhPMwmDiyMLZYsjCz13KwgwKy8LCi8jCyrTM&#xD;&#xa;wgwxzMK4ZcvC087JwkV2xsLyXsnCjIbLwhwvzcLfrM7CeITKwla3ysLK3cnC/PHFwpScxcIUQ8nC&#xD;&#xa;NJzIwrEsxsJvZcfCXSvIwlKLx8JII8nCvgzKwpnhysJSC8vC9iTKwiA/y8IadczCuDrMwuVaysLO&#xD;&#xa;r8vCXtfJwrZ6ycItucnCtonJwjyTysJkC83CL0nMwkjdyMIBucfCixrLwvSDysKGX8nCsCzMwuas&#xD;&#xa;0cIsnNPCuEvOwtr5y8LMBc7Cr+PTwsQc5MLcOfPCKOj0wjr59cJ0C/fCzg75wkwh+8LmVPnCqz72&#xD;&#xa;wnB+9cLuJvrCtEL4wkp7+MLOfffCDN3zwkaz9sLi8vjCFKr6wgIQ+cI8iPjCBpT4wvR1+MLQI/rC&#xD;&#xa;Ihn8wlQg+sIcLvjCVCz2wsI49MJQ9fbC23H3woy69sL4BfnCIOb2wjwy9cIuGvnCdmb3wj7K9MI+&#xD;&#xa;KPXCJpr2wn7C9cKQDvnCthv7woaP+cLGaPbCTr32wrpN+cIFSPjCDvX4wtD39sJY//TCKGf3wvZI&#xD;&#xa;+cK9YvfCgYf3wjIf+sLMMvfCpjz2wuA6+cII8vbCxDv1wmJG9sLka/rCPrT1wi589cLqjfbC9qP4&#xD;&#xa;wgzJ+MLelPbCGir2wlBC9sKeU/jC/nn3wsYn9sL4QPjCXBj5wopQ+MIaJvnCSB36wgjc+MIMfPfC&#xD;&#xa;W+z1wmYG+MKuxPnCCuD1wjh+9sLDrPfCOPj3wm7h+MJjMvfCxH/2wsXf98KwN/nCKOn5wrLR+sKg&#xD;&#xa;bPvCkFv5wsAu+cL2hffCySz2wmRX+MKiiPjCzFX4wvjB98Jgz/fCxPT4wobP+cL8avjC9r34wnKx&#xD;&#xa;+MK+LPnC3H34wle39cKejfbCNKP2wg5B9sK0H/rCSvz2woqE98JAqfjCBPL4wmKi+MIu2/jCMFD5&#xD;&#xa;wiCM+cKo//nCGqz7wlZN+sKUDfjC0ov4wrIU+sIVpffCP2/3woye98KktPbCTJj2wpH29cL3mvbC&#xD;&#xa;jL/4wti/+MLm3vjCQ9QEwzOmYsI/y13CPNeLwsehjcK+No/Cm+aOwlHvjcIja5HCun6XwoKemMJy&#xD;&#xa;lpPCuQeRwhgMlcJGdZvCTjScwgFMncIGh5zCGrOawuO0nMJdJZ3Cybudwo6toMIdraPCs/6jwpY0&#xD;&#xa;psLIUqjCWQmpwonmp8KcE6XCgXGlwqC+psIFHabCBoyownWvqcIkX6jCgnCpwms3qsIW0KfCM7Oj&#xD;&#xa;wnGLosJgcKnCdk6swiIgscKFrbDCtNmowrZmpcIHYqjCCg2pwqUNq8KgHq7ChEGxwhVFs8KU6LLC&#xD;&#xa;dvWzwpVHscI6NrDCMpGwwubcs8Imh7bCPKq6wj7tvMKSbr3ClsG+wq4qwMLXQr7CpAK5whxiuMJp&#xD;&#xa;v7nCwu29wloQvsIXTL3CzjDAwsDTwcL69sHC8urAwtAFwMIkSMLCpJHDwjLOw8JG8sTCmMvDwq7H&#xD;&#xa;wsLOncPC+CDDwkh6wsLU5sPCP23Fwm5Qx8KlYsTCm0XCwnhexcLsTsPCSMPDwjvJw8LMWcHC2XHD&#xD;&#xa;wjj5wsICs8TChWvEwgCywcKDdcHCFnHCwurMxMLlVsTCfrDGwmzqyMKoGsfC7ITIwtqRyMJwzcbC&#xD;&#xa;ppbEwiv5xcIXxsTCzDfCwtSExMKEjcTC8ObDwiJ9yMIQm8vCIkDGwqHyxcIyYcbCyAXIwmyBx8I4&#xD;&#xa;n8PCvyPGwuiKxMJggMfCdL3JwsMhysLi6sXCRa7Ewoykx8Jk/MXC0NfEwtK0xcJQTMTCvvvGwtqJ&#xD;&#xa;xMKmFsTCSbfGwq76x8IQ+sjCsqnIwkJdycIaT8fC0nbHwlf2xsLg/cbCtIHHwsTvxsI0KsbCsqDH&#xD;&#xa;wgLix8JGKcXCyNTDwjDwwsIb98bC6MjJwg6Zy8Kg+cvCaC3HwtIgw8KW7sXC3EHGwmcUxcL++8fC&#xD;&#xa;CWbIwsDoxsJFz8PCJkXFwiD7xcIQDsfC8ljIwrDLxMKkeMLClpHEwiqgyMJcjcjC6krGwl50w8Iy&#xD;&#xa;7sXCWv3HwkQ1xsKUwMPC2K/EwootxMJUqMTCH3LDwuojxcKil8fCjmXIwkLJxcID78TClTvGwhel&#xD;&#xa;xsIca8bC1rbCwk6+wsIQfsfCIlPHwpJExcLWhMbCDNvEwuryxMKklMXCeBDDwolhwcIiasLCQYfE&#xD;&#xa;whUfwsJx4MTCsEnIwkX0xcK+3sbCIqLHwrARx8IWtMTCGAnFwomNxMLfbcTCQIPDwjqww8L+MMTC&#xD;&#xa;mqjHwrBaxMI6YsTCxmvIwqyKycKQaMXCnx7FwkYvx8In6sjCGMzIwuvAxcL8a8XCiBjJwkvwyMKI&#xD;&#xa;qMbCTCTIwvQSy8IxEsvCVT/JwrI3w8LA8sLCCD7EwsxXxMJSjsXCfjXFwqTKxMI/gsPCDozDwtwF&#xD;&#xa;xMISn8bChHvJwlFQyMJYCsbCP4jIwtkBycLiFsrCbCrKwvyTysIWncnC+A3HwuI5x8I8/MbC0hHI&#xD;&#xa;wopJzMLmb83CFkvMwpy/y8Kn7MrCfJrJwuLDyMJKn8bCStTGwpb7ycIMo8nCcivFwsapxcJkx8bC&#xD;&#xa;ALLIwriaycJM3cfC8r/KwlSoy8I4A8vCpFHJwkRrzMIKr87CWD7MwsiJycKW9cfCUjbKwq+YycLi&#xD;&#xa;U8jCROHHwhdWycKaU8nCF7jMwmKaz8L//8zC8tjOwjxezsIUysvCzHLJwiJryMLRm8bCgLjKwsi8&#xD;&#xa;ysIhfszCPETLwqtbyMJGeMfCpRPJwnwZzMJSIs3CqhPMwmDiyMLZYsjCz13KwgwKy8LCi8jCyrTM&#xD;&#xa;wgwxzMK4ZcvC087JwkV2xsLyXsnCjIbLwhwvzcLfrM7CeITKwla3ysLK3cnC/PHFwpScxcIUQ8nC&#xD;&#xa;NJzIwrEsxsJvZcfCXSvIwlKLx8JII8nCvgzKwpnhysJSC8vC9iTKwiA/y8IadczCuDrMwuVaysLO&#xD;&#xa;r8vCXtfJwrZ6ycItucnCtonJwjyTysJkC83CL0nMwkjdyMIBucfCixrLwvSDysKGX8nCsCzMwuas&#xD;&#xa;0cIsnNPCuEvOwtr5y8LMBc7Cr+PTwsQc5MLcOfPCKOj0wjr59cJ0C/fCzg75wkwh+8LmVPnCqz72&#xD;&#xa;wnB+9cLuJvrCtEL4wkp7+MLOfffCDN3zwkaz9sLi8vjCFKr6wgIQ+cI8iPjCBpT4wvR1+MLQI/rC&#xD;&#xa;Ihn8wlQg+sIcLvjCVCz2wsI49MJQ9fbC23H3woy69sL4BfnCIOb2wjwy9cIuGvnCdmb3wj7K9MI+&#xD;&#xa;KPXCJpr2wn7C9cKQDvnCthv7woaP+cLGaPbCTr32wrpN+cIFSPjCDvX4wtD39sJY//TCKGf3wvZI&#xD;&#xa;+cK9YvfCgYf3wjIf+sLMMvfCpjz2wuA6+cII8vbCxDv1wmJG9sLka/rCPrT1wi589cLqjfbC9qP4&#xD;&#xa;wgzJ+MLelPbCGir2wlBC9sKeU/jC/nn3wsYn9sL4QPjCXBj5wopQ+MIaJvnCSB36wgjc+MIMfPfC&#xD;&#xa;W+z1wmYG+MKuxPnCCuD1wjh+9sLDrPfCOPj3wm7h+MJjMvfCxH/2wsXf98KwN/nCKOn5wrLR+sKg&#xD;&#xa;bPvCkFv5wsAu+cL2hffCySz2wmRX+MKiiPjCzFX4wvjB98Jgz/fCxPT4wobP+cL8avjC9r34wnKx&#xD;&#xa;+MK+LPnC3H34wle39cKejfbCNKP2wg5B9sK0H/rCSvz2woqE98JAqfjCBPL4wmKi+MIu2/jCMFD5&#xD;&#xa;wiCM+cKo//nCGqz7wlZN+sKUDfjC0ov4wrIU+sIVpffCP2/3woye98KktPbCTJj2wpH29cL3mvbC&#xD;&#xa;jL/4wti/+MLm3vjCQ9QE" leadInLength="0/1"  />
            </Keyframes>
           </Parameter>
           </Parameters>
          </GenericEffect>
          <GenericEffect id="6288" name = "WinCompression" >
           <Parameters>
           <InterpolatingParam id="6289" interp="linr"  time="0/1" value="0" leadInLength="0/1"   name="attack"/>
           <InterpolatingParam id="6290" interp="linr"  time="0/1" value="9" leadInLength="0/1"   name="gain"/>
           <Parameter id="6291"   name="preset">
            <Keyframes>
            <Keyframe id="6292"  time="0/1" value="1" leadInLength="0/1"  />
            </Keyframes>
           </Parameter>
           <InterpolatingParam id="6293" interp="linr"  time="0/1" value="10" leadInLength="0/1"   name="ratio"/>
           <InterpolatingParam id="6294" interp="linr"  time="0/1" value="3500" leadInLength="0/1"   name="release"/>
           <InterpolatingParam id="6295" interp="linr"  time="0/1" value="-20" leadInLength="0/1"   name="threshold"/>
           </Parameters>
          </GenericEffect>
          <GenericEffect id="6296" name = "Declipper" >
           <Parameters>
           <InterpolatingParam id="6297" interp="linr"  time="0/1" value="-1" leadInLength="0/1"   name="sensitivity"/>
           </Parameters>
          </GenericEffect>
          <GenericEffect id="6298" name = "Declicker" >
           <Parameters>
           <InterpolatingParam id="6299" interp="linr"  time="0/1" value="3" leadInLength="0/1"   name="sensitivity"/>
           </Parameters>
          </GenericEffect>
         </Effects>
         <Attributes>
          <Attribute id="6300" value="" name="ident"/>
          <Attribute id="6301" value="44100" name="sampleRate"/>
          <Attribute id="6302" value="16" name="bitDepth"/>
          <Attribute id="6303" value="1" name="gain"/>
          <Attribute id="6304" value="0" name="mixToMono"/>
         </Attributes>
         <MetaData>
          <entry key="WinSubProjectDisplayName" val=""/>
         </MetaData>
        </AMFile>
        <AMFile id="6305" start="8548" duration="98" scalar="1/1" mediaStart="14314/1" mediaDuration="98/1" trackNumber="0" src="22" channelNumber="0" >
         <Parameters>
          <InterpolatingParam id="6306" interp="linr"  name="volume">
           <Keyframes>
           <Keyframe id="6307"  time="0/1" value="1" leadInLength="0/1"  />
           <Keyframe id="6308"  time="3301/1" value="1" leadInLength="0/1"  />
           <Keyframe id="6309"  time="3302/1" value="0.80000000000000004" leadInLength="0/1"  />
           <Keyframe id="6310"  time="14568/1" value="0.80000000000000004" leadInLength="0/1"  />
           <Keyframe id="6311"  time="14569/1" value="1" leadInLength="0/1"  />
           </Keyframes>
          </InterpolatingParam>
          <Parameter id="6312"  name="captions"/>
         </Parameters>
         <Effects>
          <GenericEffect id="6313" name = "NoiseReduction" >
           <Parameters>
           <InterpolatingParam id="6314" interp="linr"  time="0/1" value="20" leadInLength="0/1"   name="denoiserAmount"/>
           <InterpolatingParam id="6315" interp="linr"  time="0/1" value="0" leadInLength="0/1"   name="denoiserThreshold"/>
           <Parameter id="6316"   name="noiseProfile">
            <Keyframes>
            <Keyframe id="6317"  time="0/1" value="FBAAAAIAAABErAAAAQIAADOmYsI/y13CPNeLwsehjcK+No/Cm+aOwlHvjcIja5HCun6XwoKemMJy&#xD;&#xa;lpPCuQeRwhgMlcJGdZvCTjScwgFMncIGh5zCGrOawuO0nMJdJZ3Cybudwo6toMIdraPCs/6jwpY0&#xD;&#xa;psLIUqjCWQmpwonmp8KcE6XCgXGlwqC+psIFHabCBoyownWvqcIkX6jCgnCpwms3qsIW0KfCM7Oj&#xD;&#xa;wnGLosJgcKnCdk6swiIgscKFrbDCtNmowrZmpcIHYqjCCg2pwqUNq8KgHq7ChEGxwhVFs8KU6LLC&#xD;&#xa;dvWzwpVHscI6NrDCMpGwwubcs8Imh7bCPKq6wj7tvMKSbr3ClsG+wq4qwMLXQr7CpAK5whxiuMJp&#xD;&#xa;v7nCwu29wloQvsIXTL3CzjDAwsDTwcL69sHC8urAwtAFwMIkSMLCpJHDwjLOw8JG8sTCmMvDwq7H&#xD;&#xa;wsLOncPC+CDDwkh6wsLU5sPCP23Fwm5Qx8KlYsTCm0XCwnhexcLsTsPCSMPDwjvJw8LMWcHC2XHD&#xD;&#xa;wjj5wsICs8TChWvEwgCywcKDdcHCFnHCwurMxMLlVsTCfrDGwmzqyMKoGsfC7ITIwtqRyMJwzcbC&#xD;&#xa;ppbEwiv5xcIXxsTCzDfCwtSExMKEjcTC8ObDwiJ9yMIQm8vCIkDGwqHyxcIyYcbCyAXIwmyBx8I4&#xD;&#xa;n8PCvyPGwuiKxMJggMfCdL3JwsMhysLi6sXCRa7Ewoykx8Jk/MXC0NfEwtK0xcJQTMTCvvvGwtqJ&#xD;&#xa;xMKmFsTCSbfGwq76x8IQ+sjCsqnIwkJdycIaT8fC0nbHwlf2xsLg/cbCtIHHwsTvxsI0KsbCsqDH&#xD;&#xa;wgLix8JGKcXCyNTDwjDwwsIb98bC6MjJwg6Zy8Kg+cvCaC3HwtIgw8KW7sXC3EHGwmcUxcL++8fC&#xD;&#xa;CWbIwsDoxsJFz8PCJkXFwiD7xcIQDsfC8ljIwrDLxMKkeMLClpHEwiqgyMJcjcjC6krGwl50w8Iy&#xD;&#xa;7sXCWv3HwkQ1xsKUwMPC2K/EwootxMJUqMTCH3LDwuojxcKil8fCjmXIwkLJxcID78TClTvGwhel&#xD;&#xa;xsIca8bC1rbCwk6+wsIQfsfCIlPHwpJExcLWhMbCDNvEwuryxMKklMXCeBDDwolhwcIiasLCQYfE&#xD;&#xa;whUfwsJx4MTCsEnIwkX0xcK+3sbCIqLHwrARx8IWtMTCGAnFwomNxMLfbcTCQIPDwjqww8L+MMTC&#xD;&#xa;mqjHwrBaxMI6YsTCxmvIwqyKycKQaMXCnx7FwkYvx8In6sjCGMzIwuvAxcL8a8XCiBjJwkvwyMKI&#xD;&#xa;qMbCTCTIwvQSy8IxEsvCVT/JwrI3w8LA8sLCCD7EwsxXxMJSjsXCfjXFwqTKxMI/gsPCDozDwtwF&#xD;&#xa;xMISn8bChHvJwlFQyMJYCsbCP4jIwtkBycLiFsrCbCrKwvyTysIWncnC+A3HwuI5x8I8/MbC0hHI&#xD;&#xa;wopJzMLmb83CFkvMwpy/y8Kn7MrCfJrJwuLDyMJKn8bCStTGwpb7ycIMo8nCcivFwsapxcJkx8bC&#xD;&#xa;ALLIwriaycJM3cfC8r/KwlSoy8I4A8vCpFHJwkRrzMIKr87CWD7MwsiJycKW9cfCUjbKwq+YycLi&#xD;&#xa;U8jCROHHwhdWycKaU8nCF7jMwmKaz8L//8zC8tjOwjxezsIUysvCzHLJwiJryMLRm8bCgLjKwsi8&#xD;&#xa;ysIhfszCPETLwqtbyMJGeMfCpRPJwnwZzMJSIs3CqhPMwmDiyMLZYsjCz13KwgwKy8LCi8jCyrTM&#xD;&#xa;wgwxzMK4ZcvC087JwkV2xsLyXsnCjIbLwhwvzcLfrM7CeITKwla3ysLK3cnC/PHFwpScxcIUQ8nC&#xD;&#xa;NJzIwrEsxsJvZcfCXSvIwlKLx8JII8nCvgzKwpnhysJSC8vC9iTKwiA/y8IadczCuDrMwuVaysLO&#xD;&#xa;r8vCXtfJwrZ6ycItucnCtonJwjyTysJkC83CL0nMwkjdyMIBucfCixrLwvSDysKGX8nCsCzMwuas&#xD;&#xa;0cIsnNPCuEvOwtr5y8LMBc7Cr+PTwsQc5MLcOfPCKOj0wjr59cJ0C/fCzg75wkwh+8LmVPnCqz72&#xD;&#xa;wnB+9cLuJvrCtEL4wkp7+MLOfffCDN3zwkaz9sLi8vjCFKr6wgIQ+cI8iPjCBpT4wvR1+MLQI/rC&#xD;&#xa;Ihn8wlQg+sIcLvjCVCz2wsI49MJQ9fbC23H3woy69sL4BfnCIOb2wjwy9cIuGvnCdmb3wj7K9MI+&#xD;&#xa;KPXCJpr2wn7C9cKQDvnCthv7woaP+cLGaPbCTr32wrpN+cIFSPjCDvX4wtD39sJY//TCKGf3wvZI&#xD;&#xa;+cK9YvfCgYf3wjIf+sLMMvfCpjz2wuA6+cII8vbCxDv1wmJG9sLka/rCPrT1wi589cLqjfbC9qP4&#xD;&#xa;wgzJ+MLelPbCGir2wlBC9sKeU/jC/nn3wsYn9sL4QPjCXBj5wopQ+MIaJvnCSB36wgjc+MIMfPfC&#xD;&#xa;W+z1wmYG+MKuxPnCCuD1wjh+9sLDrPfCOPj3wm7h+MJjMvfCxH/2wsXf98KwN/nCKOn5wrLR+sKg&#xD;&#xa;bPvCkFv5wsAu+cL2hffCySz2wmRX+MKiiPjCzFX4wvjB98Jgz/fCxPT4wobP+cL8avjC9r34wnKx&#xD;&#xa;+MK+LPnC3H34wle39cKejfbCNKP2wg5B9sK0H/rCSvz2woqE98JAqfjCBPL4wmKi+MIu2/jCMFD5&#xD;&#xa;wiCM+cKo//nCGqz7wlZN+sKUDfjC0ov4wrIU+sIVpffCP2/3woye98KktPbCTJj2wpH29cL3mvbC&#xD;&#xa;jL/4wti/+MLm3vjCQ9QEwzOmYsI/y13CPNeLwsehjcK+No/Cm+aOwlHvjcIja5HCun6XwoKemMJy&#xD;&#xa;lpPCuQeRwhgMlcJGdZvCTjScwgFMncIGh5zCGrOawuO0nMJdJZ3Cybudwo6toMIdraPCs/6jwpY0&#xD;&#xa;psLIUqjCWQmpwonmp8KcE6XCgXGlwqC+psIFHabCBoyownWvqcIkX6jCgnCpwms3qsIW0KfCM7Oj&#xD;&#xa;wnGLosJgcKnCdk6swiIgscKFrbDCtNmowrZmpcIHYqjCCg2pwqUNq8KgHq7ChEGxwhVFs8KU6LLC&#xD;&#xa;dvWzwpVHscI6NrDCMpGwwubcs8Imh7bCPKq6wj7tvMKSbr3ClsG+wq4qwMLXQr7CpAK5whxiuMJp&#xD;&#xa;v7nCwu29wloQvsIXTL3CzjDAwsDTwcL69sHC8urAwtAFwMIkSMLCpJHDwjLOw8JG8sTCmMvDwq7H&#xD;&#xa;wsLOncPC+CDDwkh6wsLU5sPCP23Fwm5Qx8KlYsTCm0XCwnhexcLsTsPCSMPDwjvJw8LMWcHC2XHD&#xD;&#xa;wjj5wsICs8TChWvEwgCywcKDdcHCFnHCwurMxMLlVsTCfrDGwmzqyMKoGsfC7ITIwtqRyMJwzcbC&#xD;&#xa;ppbEwiv5xcIXxsTCzDfCwtSExMKEjcTC8ObDwiJ9yMIQm8vCIkDGwqHyxcIyYcbCyAXIwmyBx8I4&#xD;&#xa;n8PCvyPGwuiKxMJggMfCdL3JwsMhysLi6sXCRa7Ewoykx8Jk/MXC0NfEwtK0xcJQTMTCvvvGwtqJ&#xD;&#xa;xMKmFsTCSbfGwq76x8IQ+sjCsqnIwkJdycIaT8fC0nbHwlf2xsLg/cbCtIHHwsTvxsI0KsbCsqDH&#xD;&#xa;wgLix8JGKcXCyNTDwjDwwsIb98bC6MjJwg6Zy8Kg+cvCaC3HwtIgw8KW7sXC3EHGwmcUxcL++8fC&#xD;&#xa;CWbIwsDoxsJFz8PCJkXFwiD7xcIQDsfC8ljIwrDLxMKkeMLClpHEwiqgyMJcjcjC6krGwl50w8Iy&#xD;&#xa;7sXCWv3HwkQ1xsKUwMPC2K/EwootxMJUqMTCH3LDwuojxcKil8fCjmXIwkLJxcID78TClTvGwhel&#xD;&#xa;xsIca8bC1rbCwk6+wsIQfsfCIlPHwpJExcLWhMbCDNvEwuryxMKklMXCeBDDwolhwcIiasLCQYfE&#xD;&#xa;whUfwsJx4MTCsEnIwkX0xcK+3sbCIqLHwrARx8IWtMTCGAnFwomNxMLfbcTCQIPDwjqww8L+MMTC&#xD;&#xa;mqjHwrBaxMI6YsTCxmvIwqyKycKQaMXCnx7FwkYvx8In6sjCGMzIwuvAxcL8a8XCiBjJwkvwyMKI&#xD;&#xa;qMbCTCTIwvQSy8IxEsvCVT/JwrI3w8LA8sLCCD7EwsxXxMJSjsXCfjXFwqTKxMI/gsPCDozDwtwF&#xD;&#xa;xMISn8bChHvJwlFQyMJYCsbCP4jIwtkBycLiFsrCbCrKwvyTysIWncnC+A3HwuI5x8I8/MbC0hHI&#xD;&#xa;wopJzMLmb83CFkvMwpy/y8Kn7MrCfJrJwuLDyMJKn8bCStTGwpb7ycIMo8nCcivFwsapxcJkx8bC&#xD;&#xa;ALLIwriaycJM3cfC8r/KwlSoy8I4A8vCpFHJwkRrzMIKr87CWD7MwsiJycKW9cfCUjbKwq+YycLi&#xD;&#xa;U8jCROHHwhdWycKaU8nCF7jMwmKaz8L//8zC8tjOwjxezsIUysvCzHLJwiJryMLRm8bCgLjKwsi8&#xD;&#xa;ysIhfszCPETLwqtbyMJGeMfCpRPJwnwZzMJSIs3CqhPMwmDiyMLZYsjCz13KwgwKy8LCi8jCyrTM&#xD;&#xa;wgwxzMK4ZcvC087JwkV2xsLyXsnCjIbLwhwvzcLfrM7CeITKwla3ysLK3cnC/PHFwpScxcIUQ8nC&#xD;&#xa;NJzIwrEsxsJvZcfCXSvIwlKLx8JII8nCvgzKwpnhysJSC8vC9iTKwiA/y8IadczCuDrMwuVaysLO&#xD;&#xa;r8vCXtfJwrZ6ycItucnCtonJwjyTysJkC83CL0nMwkjdyMIBucfCixrLwvSDysKGX8nCsCzMwuas&#xD;&#xa;0cIsnNPCuEvOwtr5y8LMBc7Cr+PTwsQc5MLcOfPCKOj0wjr59cJ0C/fCzg75wkwh+8LmVPnCqz72&#xD;&#xa;wnB+9cLuJvrCtEL4wkp7+MLOfffCDN3zwkaz9sLi8vjCFKr6wgIQ+cI8iPjCBpT4wvR1+MLQI/rC&#xD;&#xa;Ihn8wlQg+sIcLvjCVCz2wsI49MJQ9fbC23H3woy69sL4BfnCIOb2wjwy9cIuGvnCdmb3wj7K9MI+&#xD;&#xa;KPXCJpr2wn7C9cKQDvnCthv7woaP+cLGaPbCTr32wrpN+cIFSPjCDvX4wtD39sJY//TCKGf3wvZI&#xD;&#xa;+cK9YvfCgYf3wjIf+sLMMvfCpjz2wuA6+cII8vbCxDv1wmJG9sLka/rCPrT1wi589cLqjfbC9qP4&#xD;&#xa;wgzJ+MLelPbCGir2wlBC9sKeU/jC/nn3wsYn9sL4QPjCXBj5wopQ+MIaJvnCSB36wgjc+MIMfPfC&#xD;&#xa;W+z1wmYG+MKuxPnCCuD1wjh+9sLDrPfCOPj3wm7h+MJjMvfCxH/2wsXf98KwN/nCKOn5wrLR+sKg&#xD;&#xa;bPvCkFv5wsAu+cL2hffCySz2wmRX+MKiiPjCzFX4wvjB98Jgz/fCxPT4wobP+cL8avjC9r34wnKx&#xD;&#xa;+MK+LPnC3H34wle39cKejfbCNKP2wg5B9sK0H/rCSvz2woqE98JAqfjCBPL4wmKi+MIu2/jCMFD5&#xD;&#xa;wiCM+cKo//nCGqz7wlZN+sKUDfjC0ov4wrIU+sIVpffCP2/3woye98KktPbCTJj2wpH29cL3mvbC&#xD;&#xa;jL/4wti/+MLm3vjCQ9QE" leadInLength="0/1"  />
            </Keyframes>
           </Parameter>
           </Parameters>
          </GenericEffect>
          <GenericEffect id="6318" name = "WinCompression" >
           <Parameters>
           <InterpolatingParam id="6319" interp="linr"  time="0/1" value="0" leadInLength="0/1"   name="attack"/>
           <InterpolatingParam id="6320" interp="linr"  time="0/1" value="9" leadInLength="0/1"   name="gain"/>
           <Parameter id="6321"   name="preset">
            <Keyframes>
            <Keyframe id="6322"  time="0/1" value="1" leadInLength="0/1"  />
            </Keyframes>
           </Parameter>
           <InterpolatingParam id="6323" interp="linr"  time="0/1" value="10" leadInLength="0/1"   name="ratio"/>
           <InterpolatingParam id="6324" interp="linr"  time="0/1" value="3500" leadInLength="0/1"   name="release"/>
           <InterpolatingParam id="6325" interp="linr"  time="0/1" value="-20" leadInLength="0/1"   name="threshold"/>
           </Parameters>
          </GenericEffect>
          <GenericEffect id="6326" name = "Declipper" >
           <Parameters>
           <InterpolatingParam id="6327" interp="linr"  time="0/1" value="-1" leadInLength="0/1"   name="sensitivity"/>
           </Parameters>
          </GenericEffect>
          <GenericEffect id="6328" name = "Declicker" >
           <Parameters>
           <InterpolatingParam id="6329" interp="linr"  time="0/1" value="3" leadInLength="0/1"   name="sensitivity"/>
           </Parameters>
          </GenericEffect>
         </Effects>
         <Attributes>
          <Attribute id="6330" value="" name="ident"/>
          <Attribute id="6331" value="44100" name="sampleRate"/>
          <Attribute id="6332" value="16" name="bitDepth"/>
          <Attribute id="6333" value="1" name="gain"/>
          <Attribute id="6334" value="0" name="mixToMono"/>
         </Attributes>
         <MetaData>
          <entry key="WinSubProjectDisplayName" val=""/>
         </MetaData>
        </AMFile>
        <AMFile id="6335" start="8655" duration="38" scalar="1/1" mediaStart="14412/1" mediaDuration="38/1" trackNumber="0" src="22" channelNumber="0" >
         <Parameters>
          <InterpolatingParam id="6336" interp="linr"  name="volume">
           <Keyframes>
           <Keyframe id="6337"  time="0/1" value="1" leadInLength="0/1"  />
           <Keyframe id="6338"  time="3301/1" value="1" leadInLength="0/1"  />
           <Keyframe id="6339"  time="3302/1" value="0.80000000000000004" leadInLength="0/1"  />
           <Keyframe id="6340"  time="14568/1" value="0.80000000000000004" leadInLength="0/1"  />
           <Keyframe id="6341"  time="14569/1" value="1" leadInLength="0/1"  />
           </Keyframes>
          </InterpolatingParam>
          <Parameter id="6342"  name="captions"/>
         </Parameters>
         <Effects>
          <GenericEffect id="6343" name = "NoiseReduction" >
           <Parameters>
           <InterpolatingParam id="6344" interp="linr"  time="0/1" value="20" leadInLength="0/1"   name="denoiserAmount"/>
           <InterpolatingParam id="6345" interp="linr"  time="0/1" value="0" leadInLength="0/1"   name="denoiserThreshold"/>
           <Parameter id="6346"   name="noiseProfile">
            <Keyframes>
            <Keyframe id="6347"  time="0/1" value="FBAAAAIAAABErAAAAQIAADOmYsI/y13CPNeLwsehjcK+No/Cm+aOwlHvjcIja5HCun6XwoKemMJy&#xD;&#xa;lpPCuQeRwhgMlcJGdZvCTjScwgFMncIGh5zCGrOawuO0nMJdJZ3Cybudwo6toMIdraPCs/6jwpY0&#xD;&#xa;psLIUqjCWQmpwonmp8KcE6XCgXGlwqC+psIFHabCBoyownWvqcIkX6jCgnCpwms3qsIW0KfCM7Oj&#xD;&#xa;wnGLosJgcKnCdk6swiIgscKFrbDCtNmowrZmpcIHYqjCCg2pwqUNq8KgHq7ChEGxwhVFs8KU6LLC&#xD;&#xa;dvWzwpVHscI6NrDCMpGwwubcs8Imh7bCPKq6wj7tvMKSbr3ClsG+wq4qwMLXQr7CpAK5whxiuMJp&#xD;&#xa;v7nCwu29wloQvsIXTL3CzjDAwsDTwcL69sHC8urAwtAFwMIkSMLCpJHDwjLOw8JG8sTCmMvDwq7H&#xD;&#xa;wsLOncPC+CDDwkh6wsLU5sPCP23Fwm5Qx8KlYsTCm0XCwnhexcLsTsPCSMPDwjvJw8LMWcHC2XHD&#xD;&#xa;wjj5wsICs8TChWvEwgCywcKDdcHCFnHCwurMxMLlVsTCfrDGwmzqyMKoGsfC7ITIwtqRyMJwzcbC&#xD;&#xa;ppbEwiv5xcIXxsTCzDfCwtSExMKEjcTC8ObDwiJ9yMIQm8vCIkDGwqHyxcIyYcbCyAXIwmyBx8I4&#xD;&#xa;n8PCvyPGwuiKxMJggMfCdL3JwsMhysLi6sXCRa7Ewoykx8Jk/MXC0NfEwtK0xcJQTMTCvvvGwtqJ&#xD;&#xa;xMKmFsTCSbfGwq76x8IQ+sjCsqnIwkJdycIaT8fC0nbHwlf2xsLg/cbCtIHHwsTvxsI0KsbCsqDH&#xD;&#xa;wgLix8JGKcXCyNTDwjDwwsIb98bC6MjJwg6Zy8Kg+cvCaC3HwtIgw8KW7sXC3EHGwmcUxcL++8fC&#xD;&#xa;CWbIwsDoxsJFz8PCJkXFwiD7xcIQDsfC8ljIwrDLxMKkeMLClpHEwiqgyMJcjcjC6krGwl50w8Iy&#xD;&#xa;7sXCWv3HwkQ1xsKUwMPC2K/EwootxMJUqMTCH3LDwuojxcKil8fCjmXIwkLJxcID78TClTvGwhel&#xD;&#xa;xsIca8bC1rbCwk6+wsIQfsfCIlPHwpJExcLWhMbCDNvEwuryxMKklMXCeBDDwolhwcIiasLCQYfE&#xD;&#xa;whUfwsJx4MTCsEnIwkX0xcK+3sbCIqLHwrARx8IWtMTCGAnFwomNxMLfbcTCQIPDwjqww8L+MMTC&#xD;&#xa;mqjHwrBaxMI6YsTCxmvIwqyKycKQaMXCnx7FwkYvx8In6sjCGMzIwuvAxcL8a8XCiBjJwkvwyMKI&#xD;&#xa;qMbCTCTIwvQSy8IxEsvCVT/JwrI3w8LA8sLCCD7EwsxXxMJSjsXCfjXFwqTKxMI/gsPCDozDwtwF&#xD;&#xa;xMISn8bChHvJwlFQyMJYCsbCP4jIwtkBycLiFsrCbCrKwvyTysIWncnC+A3HwuI5x8I8/MbC0hHI&#xD;&#xa;wopJzMLmb83CFkvMwpy/y8Kn7MrCfJrJwuLDyMJKn8bCStTGwpb7ycIMo8nCcivFwsapxcJkx8bC&#xD;&#xa;ALLIwriaycJM3cfC8r/KwlSoy8I4A8vCpFHJwkRrzMIKr87CWD7MwsiJycKW9cfCUjbKwq+YycLi&#xD;&#xa;U8jCROHHwhdWycKaU8nCF7jMwmKaz8L//8zC8tjOwjxezsIUysvCzHLJwiJryMLRm8bCgLjKwsi8&#xD;&#xa;ysIhfszCPETLwqtbyMJGeMfCpRPJwnwZzMJSIs3CqhPMwmDiyMLZYsjCz13KwgwKy8LCi8jCyrTM&#xD;&#xa;wgwxzMK4ZcvC087JwkV2xsLyXsnCjIbLwhwvzcLfrM7CeITKwla3ysLK3cnC/PHFwpScxcIUQ8nC&#xD;&#xa;NJzIwrEsxsJvZcfCXSvIwlKLx8JII8nCvgzKwpnhysJSC8vC9iTKwiA/y8IadczCuDrMwuVaysLO&#xD;&#xa;r8vCXtfJwrZ6ycItucnCtonJwjyTysJkC83CL0nMwkjdyMIBucfCixrLwvSDysKGX8nCsCzMwuas&#xD;&#xa;0cIsnNPCuEvOwtr5y8LMBc7Cr+PTwsQc5MLcOfPCKOj0wjr59cJ0C/fCzg75wkwh+8LmVPnCqz72&#xD;&#xa;wnB+9cLuJvrCtEL4wkp7+MLOfffCDN3zwkaz9sLi8vjCFKr6wgIQ+cI8iPjCBpT4wvR1+MLQI/rC&#xD;&#xa;Ihn8wlQg+sIcLvjCVCz2wsI49MJQ9fbC23H3woy69sL4BfnCIOb2wjwy9cIuGvnCdmb3wj7K9MI+&#xD;&#xa;KPXCJpr2wn7C9cKQDvnCthv7woaP+cLGaPbCTr32wrpN+cIFSPjCDvX4wtD39sJY//TCKGf3wvZI&#xD;&#xa;+cK9YvfCgYf3wjIf+sLMMvfCpjz2wuA6+cII8vbCxDv1wmJG9sLka/rCPrT1wi589cLqjfbC9qP4&#xD;&#xa;wgzJ+MLelPbCGir2wlBC9sKeU/jC/nn3wsYn9sL4QPjCXBj5wopQ+MIaJvnCSB36wgjc+MIMfPfC&#xD;&#xa;W+z1wmYG+MKuxPnCCuD1wjh+9sLDrPfCOPj3wm7h+MJjMvfCxH/2wsXf98KwN/nCKOn5wrLR+sKg&#xD;&#xa;bPvCkFv5wsAu+cL2hffCySz2wmRX+MKiiPjCzFX4wvjB98Jgz/fCxPT4wobP+cL8avjC9r34wnKx&#xD;&#xa;+MK+LPnC3H34wle39cKejfbCNKP2wg5B9sK0H/rCSvz2woqE98JAqfjCBPL4wmKi+MIu2/jCMFD5&#xD;&#xa;wiCM+cKo//nCGqz7wlZN+sKUDfjC0ov4wrIU+sIVpffCP2/3woye98KktPbCTJj2wpH29cL3mvbC&#xD;&#xa;jL/4wti/+MLm3vjCQ9QEwzOmYsI/y13CPNeLwsehjcK+No/Cm+aOwlHvjcIja5HCun6XwoKemMJy&#xD;&#xa;lpPCuQeRwhgMlcJGdZvCTjScwgFMncIGh5zCGrOawuO0nMJdJZ3Cybudwo6toMIdraPCs/6jwpY0&#xD;&#xa;psLIUqjCWQmpwonmp8KcE6XCgXGlwqC+psIFHabCBoyownWvqcIkX6jCgnCpwms3qsIW0KfCM7Oj&#xD;&#xa;wnGLosJgcKnCdk6swiIgscKFrbDCtNmowrZmpcIHYqjCCg2pwqUNq8KgHq7ChEGxwhVFs8KU6LLC&#xD;&#xa;dvWzwpVHscI6NrDCMpGwwubcs8Imh7bCPKq6wj7tvMKSbr3ClsG+wq4qwMLXQr7CpAK5whxiuMJp&#xD;&#xa;v7nCwu29wloQvsIXTL3CzjDAwsDTwcL69sHC8urAwtAFwMIkSMLCpJHDwjLOw8JG8sTCmMvDwq7H&#xD;&#xa;wsLOncPC+CDDwkh6wsLU5sPCP23Fwm5Qx8KlYsTCm0XCwnhexcLsTsPCSMPDwjvJw8LMWcHC2XHD&#xD;&#xa;wjj5wsICs8TChWvEwgCywcKDdcHCFnHCwurMxMLlVsTCfrDGwmzqyMKoGsfC7ITIwtqRyMJwzcbC&#xD;&#xa;ppbEwiv5xcIXxsTCzDfCwtSExMKEjcTC8ObDwiJ9yMIQm8vCIkDGwqHyxcIyYcbCyAXIwmyBx8I4&#xD;&#xa;n8PCvyPGwuiKxMJggMfCdL3JwsMhysLi6sXCRa7Ewoykx8Jk/MXC0NfEwtK0xcJQTMTCvvvGwtqJ&#xD;&#xa;xMKmFsTCSbfGwq76x8IQ+sjCsqnIwkJdycIaT8fC0nbHwlf2xsLg/cbCtIHHwsTvxsI0KsbCsqDH&#xD;&#xa;wgLix8JGKcXCyNTDwjDwwsIb98bC6MjJwg6Zy8Kg+cvCaC3HwtIgw8KW7sXC3EHGwmcUxcL++8fC&#xD;&#xa;CWbIwsDoxsJFz8PCJkXFwiD7xcIQDsfC8ljIwrDLxMKkeMLClpHEwiqgyMJcjcjC6krGwl50w8Iy&#xD;&#xa;7sXCWv3HwkQ1xsKUwMPC2K/EwootxMJUqMTCH3LDwuojxcKil8fCjmXIwkLJxcID78TClTvGwhel&#xD;&#xa;xsIca8bC1rbCwk6+wsIQfsfCIlPHwpJExcLWhMbCDNvEwuryxMKklMXCeBDDwolhwcIiasLCQYfE&#xD;&#xa;whUfwsJx4MTCsEnIwkX0xcK+3sbCIqLHwrARx8IWtMTCGAnFwomNxMLfbcTCQIPDwjqww8L+MMTC&#xD;&#xa;mqjHwrBaxMI6YsTCxmvIwqyKycKQaMXCnx7FwkYvx8In6sjCGMzIwuvAxcL8a8XCiBjJwkvwyMKI&#xD;&#xa;qMbCTCTIwvQSy8IxEsvCVT/JwrI3w8LA8sLCCD7EwsxXxMJSjsXCfjXFwqTKxMI/gsPCDozDwtwF&#xD;&#xa;xMISn8bChHvJwlFQyMJYCsbCP4jIwtkBycLiFsrCbCrKwvyTysIWncnC+A3HwuI5x8I8/MbC0hHI&#xD;&#xa;wopJzMLmb83CFkvMwpy/y8Kn7MrCfJrJwuLDyMJKn8bCStTGwpb7ycIMo8nCcivFwsapxcJkx8bC&#xD;&#xa;ALLIwriaycJM3cfC8r/KwlSoy8I4A8vCpFHJwkRrzMIKr87CWD7MwsiJycKW9cfCUjbKwq+YycLi&#xD;&#xa;U8jCROHHwhdWycKaU8nCF7jMwmKaz8L//8zC8tjOwjxezsIUysvCzHLJwiJryMLRm8bCgLjKwsi8&#xD;&#xa;ysIhfszCPETLwqtbyMJGeMfCpRPJwnwZzMJSIs3CqhPMwmDiyMLZYsjCz13KwgwKy8LCi8jCyrTM&#xD;&#xa;wgwxzMK4ZcvC087JwkV2xsLyXsnCjIbLwhwvzcLfrM7CeITKwla3ysLK3cnC/PHFwpScxcIUQ8nC&#xD;&#xa;NJzIwrEsxsJvZcfCXSvIwlKLx8JII8nCvgzKwpnhysJSC8vC9iTKwiA/y8IadczCuDrMwuVaysLO&#xD;&#xa;r8vCXtfJwrZ6ycItucnCtonJwjyTysJkC83CL0nMwkjdyMIBucfCixrLwvSDysKGX8nCsCzMwuas&#xD;&#xa;0cIsnNPCuEvOwtr5y8LMBc7Cr+PTwsQc5MLcOfPCKOj0wjr59cJ0C/fCzg75wkwh+8LmVPnCqz72&#xD;&#xa;wnB+9cLuJvrCtEL4wkp7+MLOfffCDN3zwkaz9sLi8vjCFKr6wgIQ+cI8iPjCBpT4wvR1+MLQI/rC&#xD;&#xa;Ihn8wlQg+sIcLvjCVCz2wsI49MJQ9fbC23H3woy69sL4BfnCIOb2wjwy9cIuGvnCdmb3wj7K9MI+&#xD;&#xa;KPXCJpr2wn7C9cKQDvnCthv7woaP+cLGaPbCTr32wrpN+cIFSPjCDvX4wtD39sJY//TCKGf3wvZI&#xD;&#xa;+cK9YvfCgYf3wjIf+sLMMvfCpjz2wuA6+cII8vbCxDv1wmJG9sLka/rCPrT1wi589cLqjfbC9qP4&#xD;&#xa;wgzJ+MLelPbCGir2wlBC9sKeU/jC/nn3wsYn9sL4QPjCXBj5wopQ+MIaJvnCSB36wgjc+MIMfPfC&#xD;&#xa;W+z1wmYG+MKuxPnCCuD1wjh+9sLDrPfCOPj3wm7h+MJjMvfCxH/2wsXf98KwN/nCKOn5wrLR+sKg&#xD;&#xa;bPvCkFv5wsAu+cL2hffCySz2wmRX+MKiiPjCzFX4wvjB98Jgz/fCxPT4wobP+cL8avjC9r34wnKx&#xD;&#xa;+MK+LPnC3H34wle39cKejfbCNKP2wg5B9sK0H/rCSvz2woqE98JAqfjCBPL4wmKi+MIu2/jCMFD5&#xD;&#xa;wiCM+cKo//nCGqz7wlZN+sKUDfjC0ov4wrIU+sIVpffCP2/3woye98KktPbCTJj2wpH29cL3mvbC&#xD;&#xa;jL/4wti/+MLm3vjCQ9QE" leadInLength="0/1"  />
            </Keyframes>
           </Parameter>
           </Parameters>
          </GenericEffect>
          <GenericEffect id="6348" name = "WinCompression" >
           <Parameters>
           <InterpolatingParam id="6349" interp="linr"  time="0/1" value="0" leadInLength="0/1"   name="attack"/>
           <InterpolatingParam id="6350" interp="linr"  time="0/1" value="9" leadInLength="0/1"   name="gain"/>
           <Parameter id="6351"   name="preset">
            <Keyframes>
            <Keyframe id="6352"  time="0/1" value="1" leadInLength="0/1"  />
            </Keyframes>
           </Parameter>
           <InterpolatingParam id="6353" interp="linr"  time="0/1" value="10" leadInLength="0/1"   name="ratio"/>
           <InterpolatingParam id="6354" interp="linr"  time="0/1" value="3500" leadInLength="0/1"   name="release"/>
           <InterpolatingParam id="6355" interp="linr"  time="0/1" value="-20" leadInLength="0/1"   name="threshold"/>
           </Parameters>
          </GenericEffect>
          <GenericEffect id="6356" name = "Declipper" >
           <Parameters>
           <InterpolatingParam id="6357" interp="linr"  time="0/1" value="-1" leadInLength="0/1"   name="sensitivity"/>
           </Parameters>
          </GenericEffect>
          <GenericEffect id="6358" name = "Declicker" >
           <Parameters>
           <InterpolatingParam id="6359" interp="linr"  time="0/1" value="3" leadInLength="0/1"   name="sensitivity"/>
           </Parameters>
          </GenericEffect>
         </Effects>
         <Attributes>
          <Attribute id="6360" value="" name="ident"/>
          <Attribute id="6361" value="44100" name="sampleRate"/>
          <Attribute id="6362" value="16" name="bitDepth"/>
          <Attribute id="6363" value="1" name="gain"/>
          <Attribute id="6364" value="0" name="mixToMono"/>
         </Attributes>
         <MetaData>
          <entry key="WinSubProjectDisplayName" val=""/>
         </MetaData>
        </AMFile>
       </Medias>
      </GenericTrack>
      <GenericTrack id="6365"  >
       <Attributes>
        <Attribute id="6366" value="" name="ident"/>
        <Attribute id="6367" value="0" name="audioMuted"/>
        <Attribute id="6368" value="0" name="videoHidden"/>
       </Attributes>
       <MetaData>
        <entry key="IsLocked" val="False"/>
        <entry key="WinTrackHeight" val="62"/>
       </MetaData>
       <Medias>
        <UnifiedMedia id="6369"  >
         <AudioTransition id="6370" start="258" duration="41" >
          <Parameters>
           <InterpolatingParam id="6371" interp="linr"  time="0/1" value="1" leadInLength="0/1"  name="volume"/>
           <Parameter id="6372"  name="captions"/>
          </Parameters>
          <Effects>
           <GenericEffect id="6373" name = "AudioTransition" >
            <Parameters>
            <Parameter id="6374"   name="audioEdgeModType">
             <Keyframes>
             <Keyframe id="6375"  time="0/1" value="0" leadInLength="0/1"  />
             </Keyframes>
            </Parameter>
            <Parameter id="6376"   name="audioTransitionType">
             <Keyframes>
             <Keyframe id="6377"  time="0/1" value="" leadInLength="0/1"  />
             </Keyframes>
            </Parameter>
            </Parameters>
            <MetaData>
            </MetaData>
           </GenericEffect>
          </Effects>
          <Attributes>
           <Attribute id="6378" value="" name="ident"/>
           <Attribute id="6379" value="0" name="sampleRate"/>
           <Attribute id="6380" value="0" name="bitDepth"/>
           <Attribute id="6381" value="1" name="gain"/>
           <Attribute id="6382" value="0" name="mixToMono"/>
          </Attributes>
         </AudioTransition>
         <ImageTransition id="6383" start="258" duration="41" >
          <Transformer>
           <VectorParam id="6384"  name="translation">
            <InterpolatingParam id="6385" interp="linr"  time="0/1" value="0" leadInLength="0/1"  />
            <InterpolatingParam id="6386" interp="linr"  time="0/1" value="0" leadInLength="0/1"  />
            <InterpolatingParam id="6387" interp="linr"  time="0/1" value="0" leadInLength="0/1"  />
           </VectorParam>
           <VectorParam id="6388"  name="rotation">
            <InterpolatingParam id="6389" interp="linr"  time="0/1" value="0" leadInLength="0/1"  />
            <InterpolatingParam id="6390" interp="linr"  time="0/1" value="0" leadInLength="0/1"  />
            <InterpolatingParam id="6391" interp="linr"  time="0/1" value="0" leadInLength="0/1"  />
           </VectorParam>
           <VectorParam id="6392"  name="shear">
            <InterpolatingParam id="6393" interp="linr"  time="0/1" value="0" leadInLength="0/1"  />
            <InterpolatingParam id="6394" interp="linr"  time="0/1" value="0" leadInLength="0/1"  />
            <InterpolatingParam id="6395" interp="linr"  time="0/1" value="0" leadInLength="0/1"  />
           </VectorParam>
           <VectorParam id="6396"  name="scale">
            <InterpolatingParam id="6397" interp="linr"  time="0/1" value="1" leadInLength="0/1"  />
            <InterpolatingParam id="6398" interp="linr"  time="0/1" value="1" leadInLength="0/1"  />
            <InterpolatingParam id="6399" interp="linr"  time="0/1" value="1" leadInLength="0/1"  />
           </VectorParam>
           <VectorParam id="6400"  name="anchor">
            <InterpolatingParam id="6401" interp="linr"  time="0/1" value="0" leadInLength="0/1"  />
            <InterpolatingParam id="6402" interp="linr"  time="0/1" value="0" leadInLength="0/1"  />
            <InterpolatingParam id="6403" interp="linr"  time="0/1" value="0" leadInLength="0/1"  />
           </VectorParam>
          </Transformer>
          <Parameters>
           <VectorParam id="6404"  name="sourceCrop">
            <InterpolatingParam id="6405" interp="linr"  time="0/1" value="0" leadInLength="0/1"  />
            <InterpolatingParam id="6406" interp="linr"  time="0/1" value="0" leadInLength="0/1"  />
            <InterpolatingParam id="6407" interp="linr"  time="0/1" value="0" leadInLength="0/1"  />
            <InterpolatingParam id="6408" interp="linr"  time="0/1" value="0" leadInLength="0/1"  />
           </VectorParam>
           <VectorParam id="6409"  name="geometryCrop">
            <InterpolatingParam id="6410" interp="linr"  time="0/1" value="0" leadInLength="0/1"  />
            <InterpolatingParam id="6411" interp="linr"  time="0/1" value="0" leadInLength="0/1"  />
            <InterpolatingParam id="6412" interp="linr"  time="0/1" value="0" leadInLength="0/1"  />
            <InterpolatingParam id="6413" interp="linr"  time="0/1" value="0" leadInLength="0/1"  />
           </VectorParam>
           <InterpolatingParam id="6414" interp="linr"  time="0/1" value="1" leadInLength="0/1"  name="opacity"/>
          </Parameters>
          <Effects>
           <GenericEffect id="6415" name = "VisualTransition" >
            <Parameters>
            <InterpolatingParam id="6416" interp="linr"  time="0/1" value="0.5" leadInLength="0/1"   name="leftFramePercentage"/>
            <InterpolatingParam id="6417" interp="linr"  time="0/1" value="0.5" leadInLength="0/1"   name="rightFramePercentage"/>
            <Parameter id="6418"   name="visualEdgeModType">
             <Keyframes>
             <Keyframe id="6419"  time="0/1" value="1" leadInLength="0/1"  />
             </Keyframes>
            </Parameter>
            <Parameter id="6420"   name="visualTransitionType">
             <Keyframes>
             <Keyframe id="6421"  time="0/1" value="Fade" leadInLength="0/1"  />
             </Keyframes>
            </Parameter>
            </Parameters>
            <MetaData>
            </MetaData>
           </GenericEffect>
          </Effects>
          <Attributes>
           <Attribute id="6422" value="" name="ident"/>
          </Attributes>
          <ExtraData>
           <Entry key="ZoomPanBin">
            <ZoomPanBin id="6423"  >
             <ZoomPanKeyframes>
             </ZoomPanKeyframes>
            </ZoomPanBin>
           </Entry>
          </ExtraData>
         </ImageTransition>
         <MetaData>
          <entry key="WinSubProjectDisplayName" val=""/>
         </MetaData>
        </UnifiedMedia>
        <IMFile id="6424" start="299" duration="117" scalar="1/1" mediaStart="0/1" mediaDuration="1/1" trackNumber="0" src="23" trimStartSum="23/1" >
         <Transformer>
          <VectorParam id="6425"  name="translation">
           <InterpolatingParam id="6426" interp="linr"  time="-9999999/1" value="0" leadInLength="0/1"  />
           <InterpolatingParam id="6427" interp="linr"  time="-9999999/1" value="0" leadInLength="0/1"  />
           <InterpolatingParam id="6428" interp="linr"  time="-9999999/1" value="0" leadInLength="0/1"  />
          </VectorParam>
          <VectorParam id="6429"  name="rotation">
           <InterpolatingParam id="6430" interp="linr"  time="-9999999/1" value="0" leadInLength="0/1"  />
           <InterpolatingParam id="6431" interp="linr"  time="-9999999/1" value="0" leadInLength="0/1"  />
           <InterpolatingParam id="6432" interp="linr"  time="-9999999/1" value="0" leadInLength="0/1"  />
          </VectorParam>
          <VectorParam id="6433"  name="shear">
           <InterpolatingParam id="6434" interp="linr"  time="-9999999/1" value="0" leadInLength="0/1"  />
           <InterpolatingParam id="6435" interp="linr"  time="-9999999/1" value="0" leadInLength="0/1"  />
           <InterpolatingParam id="6436" interp="linr"  time="-9999999/1" value="0" leadInLength="0/1"  />
          </VectorParam>
          <VectorParam id="6437"  name="scale">
           <InterpolatingParam id="6438" interp="linr"  time="-9999999/1" value="0.703125" leadInLength="0/1"  />
           <InterpolatingParam id="6439" interp="linr"  time="-9999999/1" value="0.703125" leadInLength="0/1"  />
           <InterpolatingParam id="6440" interp="linr"  time="-9999999/1" value="1" leadInLength="0/1"  />
          </VectorParam>
          <VectorParam id="6441"  name="anchor">
           <InterpolatingParam id="6442" interp="linr"  time="0/1" value="0" leadInLength="0/1"  />
           <InterpolatingParam id="6443" interp="linr"  time="0/1" value="0" leadInLength="0/1"  />
           <InterpolatingParam id="6444" interp="linr"  time="0/1" value="0" leadInLength="0/1"  />
          </VectorParam>
         </Transformer>
         <Parameters>
          <VectorParam id="6445"  name="sourceCrop">
           <InterpolatingParam id="6446" interp="linr"  time="0/1" value="0" leadInLength="0/1"  />
           <InterpolatingParam id="6447" interp="linr"  time="0/1" value="0" leadInLength="0/1"  />
           <InterpolatingParam id="6448" interp="linr"  time="0/1" value="0" leadInLength="0/1"  />
           <InterpolatingParam id="6449" interp="linr"  time="0/1" value="0" leadInLength="0/1"  />
          </VectorParam>
          <VectorParam id="6450"  name="geometryCrop">
           <InterpolatingParam id="6451" interp="linr"  time="-9999999/1" value="0" leadInLength="0/1"  />
           <InterpolatingParam id="6452" interp="linr"  time="-9999999/1" value="0" leadInLength="0/1"  />
           <InterpolatingParam id="6453" interp="linr"  time="-9999999/1" value="0" leadInLength="0/1"  />
           <InterpolatingParam id="6454" interp="linr"  time="-9999999/1" value="0" leadInLength="0/1"  />
          </VectorParam>
          <InterpolatingParam id="6455" interp="linr"  time="-9999999/1" value="1" leadInLength="0/1"  name="opacity"/>
         </Parameters>
         <Attributes>
          <Attribute id="6456" value="" name="ident"/>
         </Attributes>
         <MetaData>
          <entry key="WinSubProjectDisplayName" val=""/>
         </MetaData>
         <ExtraData>
          <Entry key="ZoomPanBin">
           <ZoomPanBin id="6457"  >
            <ZoomPanKeyframes>
             <ZoomPanKeyframe id="6458" timeRangeEnd="-9999999/1" timeRangeDuration="0/1" interpolaterName="linr"  />
            </ZoomPanKeyframes>
           </ZoomPanBin>
          </Entry>
         </ExtraData>
        </IMFile>
        <UnifiedMedia id="6459"  >
         <AudioTransition id="6460" start="416" duration="44" >
          <Parameters>
           <InterpolatingParam id="6461" interp="linr"  time="0/1" value="1" leadInLength="0/1"  name="volume"/>
           <Parameter id="6462"  name="captions"/>
          </Parameters>
          <Effects>
           <GenericEffect id="6463" name = "AudioTransition" >
            <Parameters>
            <Parameter id="6464"   name="audioEdgeModType">
             <Keyframes>
             <Keyframe id="6465"  time="0/1" value="0" leadInLength="0/1"  />
             </Keyframes>
            </Parameter>
            <Parameter id="6466"   name="audioTransitionType">
             <Keyframes>
             <Keyframe id="6467"  time="0/1" value="" leadInLength="0/1"  />
             </Keyframes>
            </Parameter>
            </Parameters>
            <MetaData>
            </MetaData>
           </GenericEffect>
          </Effects>
          <Attributes>
           <Attribute id="6468" value="" name="ident"/>
           <Attribute id="6469" value="0" name="sampleRate"/>
           <Attribute id="6470" value="0" name="bitDepth"/>
           <Attribute id="6471" value="1" name="gain"/>
           <Attribute id="6472" value="0" name="mixToMono"/>
          </Attributes>
         </AudioTransition>
         <ImageTransition id="6473" start="416" duration="44" >
          <Transformer>
           <VectorParam id="6474"  name="translation">
            <InterpolatingParam id="6475" interp="linr"  time="0/1" value="0" leadInLength="0/1"  />
            <InterpolatingParam id="6476" interp="linr"  time="0/1" value="0" leadInLength="0/1"  />
            <InterpolatingParam id="6477" interp="linr"  time="0/1" value="0" leadInLength="0/1"  />
           </VectorParam>
           <VectorParam id="6478"  name="rotation">
            <InterpolatingParam id="6479" interp="linr"  time="0/1" value="0" leadInLength="0/1"  />
            <InterpolatingParam id="6480" interp="linr"  time="0/1" value="0" leadInLength="0/1"  />
            <InterpolatingParam id="6481" interp="linr"  time="0/1" value="0" leadInLength="0/1"  />
           </VectorParam>
           <VectorParam id="6482"  name="shear">
            <InterpolatingParam id="6483" interp="linr"  time="0/1" value="0" leadInLength="0/1"  />
            <InterpolatingParam id="6484" interp="linr"  time="0/1" value="0" leadInLength="0/1"  />
            <InterpolatingParam id="6485" interp="linr"  time="0/1" value="0" leadInLength="0/1"  />
           </VectorParam>
           <VectorParam id="6486"  name="scale">
            <InterpolatingParam id="6487" interp="linr"  time="0/1" value="1" leadInLength="0/1"  />
            <InterpolatingParam id="6488" interp="linr"  time="0/1" value="1" leadInLength="0/1"  />
            <InterpolatingParam id="6489" interp="linr"  time="0/1" value="1" leadInLength="0/1"  />
           </VectorParam>
           <VectorParam id="6490"  name="anchor">
            <InterpolatingParam id="6491" interp="linr"  time="0/1" value="0" leadInLength="0/1"  />
            <InterpolatingParam id="6492" interp="linr"  time="0/1" value="0" leadInLength="0/1"  />
            <InterpolatingParam id="6493" interp="linr"  time="0/1" value="0" leadInLength="0/1"  />
           </VectorParam>
          </Transformer>
          <Parameters>
           <VectorParam id="6494"  name="sourceCrop">
            <InterpolatingParam id="6495" interp="linr"  time="0/1" value="0" leadInLength="0/1"  />
            <InterpolatingParam id="6496" interp="linr"  time="0/1" value="0" leadInLength="0/1"  />
            <InterpolatingParam id="6497" interp="linr"  time="0/1" value="0" leadInLength="0/1"  />
            <InterpolatingParam id="6498" interp="linr"  time="0/1" value="0" leadInLength="0/1"  />
           </VectorParam>
           <VectorParam id="6499"  name="geometryCrop">
            <InterpolatingParam id="6500" interp="linr"  time="0/1" value="0" leadInLength="0/1"  />
            <InterpolatingParam id="6501" interp="linr"  time="0/1" value="0" leadInLength="0/1"  />
            <InterpolatingParam id="6502" interp="linr"  time="0/1" value="0" leadInLength="0/1"  />
            <InterpolatingParam id="6503" interp="linr"  time="0/1" value="0" leadInLength="0/1"  />
           </VectorParam>
           <InterpolatingParam id="6504" interp="linr"  time="0/1" value="1" leadInLength="0/1"  name="opacity"/>
          </Parameters>
          <Effects>
           <GenericEffect id="6505" name = "VisualTransition" >
            <Parameters>
            <InterpolatingParam id="6506" interp="linr"  time="0/1" value="0.5" leadInLength="0/1"   name="leftFramePercentage"/>
            <InterpolatingParam id="6507" interp="linr"  time="0/1" value="0.5" leadInLength="0/1"   name="rightFramePercentage"/>
            <Parameter id="6508"   name="visualEdgeModType">
             <Keyframes>
             <Keyframe id="6509"  time="0/1" value="2" leadInLength="0/1"  />
             </Keyframes>
            </Parameter>
            <Parameter id="6510"   name="visualTransitionType">
             <Keyframes>
             <Keyframe id="6511"  time="0/1" value="Glow" leadInLength="0/1"  />
             </Keyframes>
            </Parameter>
            </Parameters>
            <MetaData>
            </MetaData>
           </GenericEffect>
          </Effects>
          <Attributes>
           <Attribute id="6512" value="" name="ident"/>
          </Attributes>
          <ExtraData>
           <Entry key="ZoomPanBin">
            <ZoomPanBin id="6513"  >
             <ZoomPanKeyframes>
             </ZoomPanKeyframes>
            </ZoomPanBin>
           </Entry>
          </ExtraData>
         </ImageTransition>
         <MetaData>
          <entry key="WinSubProjectDisplayName" val=""/>
         </MetaData>
        </UnifiedMedia>
        <Callout id="6514" start="4300" duration="66" scalar="1/1" mediaStart="-42/1" mediaDuration="66/1" >
         <Transformer>
          <VectorParam id="6515"  name="translation">
           <InterpolatingParam id="6516" interp="linr"  time="-9999999/1" value="-568.66666666678691" leadInLength="0/1"  />
           <InterpolatingParam id="6517" interp="linr"  time="-9999999/1" value="186.66666666663914" leadInLength="0/1"  />
           <InterpolatingParam id="6518" interp="linr"  time="-9999999/1" value="0" leadInLength="0/1"  />
          </VectorParam>
          <VectorParam id="6519"  name="rotation">
           <InterpolatingParam id="6520" interp="linr"  time="-9999999/1" value="0" leadInLength="0/1"  />
           <InterpolatingParam id="6521" interp="linr"  time="-9999999/1" value="0" leadInLength="0/1"  />
           <InterpolatingParam id="6522" interp="linr"  time="-9999999/1" value="0" leadInLength="0/1"  />
          </VectorParam>
          <VectorParam id="6523"  name="shear">
           <InterpolatingParam id="6524" interp="linr"  time="-9999999/1" value="0" leadInLength="0/1"  />
           <InterpolatingParam id="6525" interp="linr"  time="-9999999/1" value="0" leadInLength="0/1"  />
           <InterpolatingParam id="6526" interp="linr"  time="-9999999/1" value="0" leadInLength="0/1"  />
          </VectorParam>
          <VectorParam id="6527"  name="scale">
           <InterpolatingParam id="6528" interp="linr"  time="-9999999/1" value="0.39583333333287229" leadInLength="0/1"  />
           <InterpolatingParam id="6529" interp="linr"  time="-9999999/1" value="0.33333333333358778" leadInLength="0/1"  />
           <InterpolatingParam id="6530" interp="linr"  time="-9999999/1" value="1" leadInLength="0/1"  />
          </VectorParam>
          <VectorParam id="6531"  name="anchor">
           <InterpolatingParam id="6532" interp="linr"  time="0/1" value="0" leadInLength="0/1"  />
           <InterpolatingParam id="6533" interp="linr"  time="0/1" value="0" leadInLength="0/1"  />
           <InterpolatingParam id="6534" interp="linr"  time="0/1" value="0" leadInLength="0/1"  />
          </VectorParam>
         </Transformer>
         <Parameters>
          <VectorParam id="6535"  name="sourceCrop">
           <InterpolatingParam id="6536" interp="linr"  time="0/1" value="0" leadInLength="0/1"  />
           <InterpolatingParam id="6537" interp="linr"  time="0/1" value="0" leadInLength="0/1"  />
           <InterpolatingParam id="6538" interp="linr"  time="0/1" value="0" leadInLength="0/1"  />
           <InterpolatingParam id="6539" interp="linr"  time="0/1" value="0" leadInLength="0/1"  />
          </VectorParam>
          <VectorParam id="6540"  name="geometryCrop">
           <InterpolatingParam id="6541" interp="linr"  time="-9999999/1" value="0" leadInLength="0/1"  />
           <InterpolatingParam id="6542" interp="linr"  time="-9999999/1" value="0" leadInLength="0/1"  />
           <InterpolatingParam id="6543" interp="linr"  time="-9999999/1" value="0" leadInLength="0/1"  />
           <InterpolatingParam id="6544" interp="linr"  time="-9999999/1" value="0" leadInLength="0/1"  />
          </VectorParam>
          <InterpolatingParam id="6545" interp="linr"  time="-9999999/1" value="1" leadInLength="0/1"  name="opacity"/>
         </Parameters>
         <Effects>
          <GenericEffect id="6546" name = "DropShadow" >
           <Parameters>
           <InterpolatingParam id="6547" interp="linr"  time="0/1" value="315" leadInLength="0/1"   name="angle"/>
           <InterpolatingParam id="6548" interp="linr"  time="0/1" value="2" leadInLength="0/1"   name="blur"/>
           <Parameter id="6549"   name="enabled">
            <Keyframes>
            <Keyframe id="6550"  time="0/1" value="1" leadInLength="0/1"  />
            </Keyframes>
           </Parameter>
           <InterpolatingParam id="6551" interp="linr"  time="0/1" value="4" leadInLength="0/1"   name="offset"/>
           <InterpolatingParam id="6552" interp="linr"  time="0/1" value="1" leadInLength="0/1"   name="opacity"/>
           </Parameters>
          </GenericEffect>
         </Effects>
         <Attributes>
          <Attribute id="6553"  name="vectorNode">
           <VectorNode id="6554" kind="TypeWinSVG"  >
            <DoubleParameters>
             <InterpolatingParam id="6555" interp="linr"  time="0/1" value="1" leadInLength="0/1"  name="DrawTime"/>
             <InterpolatingParam id="6556" interp="linr"  time="0/1" value="0" leadInLength="0/1"  name="borderColorBlue"/>
             <InterpolatingParam id="6557" interp="linr"  time="0/1" value="0" leadInLength="0/1"  name="borderColorGreen"/>
             <InterpolatingParam id="6558" interp="linr"  time="0/1" value="255" leadInLength="0/1"  name="borderColorRed"/>
             <InterpolatingParam id="6559" interp="linr"  time="0/1" value="5" leadInLength="0/1"  name="borderWidth"/>
             <InterpolatingParam id="6560" interp="linr"  time="0/1" value="1" leadInLength="0/1"  name="flipOnXAxis"/>
             <InterpolatingParam id="6561" interp="linr"  time="0/1" value="0" leadInLength="0/1"  name="flipOnYAxis"/>
             <InterpolatingParam id="6562" interp="linr"  time="0/1" value="180" leadInLength="0/1"  name="height"/>
             <InterpolatingParam id="6563" interp="linr"  time="0/1" value="320" leadInLength="0/1"  name="width"/>
            </DoubleParameters>
            <StringParameters>
             <Parameter id="6564"  name="filename">
              <Keyframes>
              <Keyframe id="6565"  time="0/1" value="C:\Program Files (x86)\TechSmith\Camtasia Studio 8\Media\Studio\Callouts\anim_drawnoval.svg" leadInLength="0/1"  />
              </Keyframes>
             </Parameter>
             <Parameter id="6566"  name="name">
              <Keyframes>
              <Keyframe id="6567"  time="0/1" value="Sketch Motion Oval" leadInLength="0/1"  />
              </Keyframes>
             </Parameter>
             <Parameter id="6568"  name="xmlContent">
              <Keyframes>
              <Keyframe id="6569"  time="0/1" value="﻿&lt;?xml version=&quot;1.0&quot; encoding=&quot;utf-8&quot;?&gt;&#xa;&lt;!-- Generator: Adobe Illustrator 13.0.2, SVG Export Plug-In . SVG Version: 6.00 Build 14948)  --&gt;&#xa;&lt;!DOCTYPE svg PUBLIC &quot;-//W3C//DTD SVG 1.1//EN&quot; &quot;http://www.w3.org/Graphics/SVG/1.1/DTD/svg11.dtd&quot;&gt;&#xa;&lt;svg version=&quot;1.1&quot; id=&quot;Layer_1&quot; xmlns=&quot;http://www.w3.org/2000/svg&quot; xmlns:xlink=&quot;http://www.w3.org/1999/xlink&quot; x=&quot;0px&quot; y=&quot;0px&quot;&#xa;&#x9; width=&quot;299.75px&quot; height=&quot;214.496px&quot; viewBox=&quot;0 0 299.75 214.496&quot; enable-background=&quot;new 0 0 299.75 214.496&quot;&#xa;&#x9; xml:space=&quot;preserve&quot;&gt;&#xa;&lt;path fill=&quot;none&quot; d=&quot;M142.383,0.35c-26-3-55,14-74,24c-69,38-104,133-16,172c54,24,119,23,175,4c40-13,83-43,70-91&#xa;&#x9;c-25-95-141-116-224-99&quot;/&gt;&#xa;&lt;/svg&gt;&#xa;" leadInLength="0/1"  />
              </Keyframes>
             </Parameter>
            </StringParameters>
           </VectorNode>
          </Attribute>
         </Attributes>
         <MetaData>
          <entry key="WinSubProjectDisplayName" val=""/>
         </MetaData>
         <LeftEdgeMods length="45/1" groupName="DrawPercentageFade">
          <EdgeMod parameter="6555">
           <FadeInFunc id="6570"  />
          </EdgeMod>
         </LeftEdgeMods>
         <RightEdgeMods length="3/1" groupName="OpacityFade">
          <EdgeMod parameter="6545">
           <FadeOutFunc id="6571"  />
          </EdgeMod>
         </RightEdgeMods>
         <ExtraData>
          <Entry key="ZoomPanBin">
           <ZoomPanBin id="6572"  >
            <ZoomPanKeyframes>
             <ZoomPanKeyframe id="6573" timeRangeEnd="-9999999/1" timeRangeDuration="0/1" interpolaterName="linr"  />
            </ZoomPanKeyframes>
           </ZoomPanBin>
          </Entry>
         </ExtraData>
        </Callout>
        <Callout id="6574" start="7124" duration="183" scalar="1/1" mediaStart="0/1" mediaDuration="183/1" >
         <Transformer>
          <VectorParam id="6575"  name="translation">
           <InterpolatingParam id="6576" interp="linr"  >
            <Keyframes>
            <Keyframe id="6577"  time="-9999999/1" value="-135" leadInLength="0/1"  />
            <Keyframe id="6578"  time="87/1" value="-135" leadInLength="5/1"  interpolater="leadin-linr"  />
            <Keyframe id="6579"  time="101/1" value="-140.44271844693304" leadInLength="1/1"  interpolater="leadin-linr"  />
            <Keyframe id="6580"  time="125/1" value="-139.94860079971252" leadInLength="1/1"  interpolater="leadin-linr"  />
            <Keyframe id="6581"  time="126/1" value="-139.94860079971252" leadInLength="1/1"  interpolater="leadin-linr"  />
            <Keyframe id="6582"  time="128/1" value="-139.94860079971252" leadInLength="1/1"  interpolater="leadin-linr"  />
            <Keyframe id="6583"  time="132/1" value="-139.94860079971252" leadInLength="1/1"  interpolater="leadin-linr"  />
            <Keyframe id="6584"  time="133/1" value="-139.94860079971252" leadInLength="1/1"  interpolater="leadin-linr"  />
            <Keyframe id="6585"  time="177/1" value="-139.94860079971798" leadInLength="27/1"  interpolater="leadin-linr"  />
            </Keyframes>
           </InterpolatingParam>
           <InterpolatingParam id="6586" interp="linr"  >
            <Keyframes>
            <Keyframe id="6587"  time="-9999999/1" value="41.667747825992699" leadInLength="0/1"  />
            <Keyframe id="6588"  time="87/1" value="76.36677459622048" leadInLength="5/1"  interpolater="leadin-linr"  />
            <Keyframe id="6589"  time="101/1" value="107.24533741791281" leadInLength="1/1"  interpolater="leadin-linr"  />
            <Keyframe id="6590"  time="125/1" value="115.57807922973099" leadInLength="1/1"  interpolater="leadin-linr"  />
            <Keyframe id="6591"  time="126/1" value="157.93102040617222" leadInLength="1/1"  interpolater="leadin-linr"  />
            <Keyframe id="6592"  time="128/1" value="187.3427851119676" leadInLength="1/1"  interpolater="leadin-linr"  />
            <Keyframe id="6593"  time="132/1" value="187.3427851119676" leadInLength="1/1"  interpolater="leadin-linr"  />
            <Keyframe id="6594"  time="133/1" value="199.10749099433315" leadInLength="1/1"  interpolater="leadin-linr"  />
            <Keyframe id="6595"  time="177/1" value="418.22513805303845" leadInLength="27/1"  interpolater="leadin-linr"  />
            </Keyframes>
           </InterpolatingParam>
           <InterpolatingParam id="6596" interp="linr"  >
            <Keyframes>
            <Keyframe id="6597"  time="-9999999/1" value="0" leadInLength="0/1"  />
            <Keyframe id="6598"  time="87/1" value="0" leadInLength="5/1"  interpolater="leadin-linr"  />
            <Keyframe id="6599"  time="101/1" value="0" leadInLength="1/1"  interpolater="leadin-linr"  />
            <Keyframe id="6600"  time="125/1" value="0" leadInLength="1/1"  interpolater="leadin-linr"  />
            <Keyframe id="6601"  time="126/1" value="0" leadInLength="1/1"  interpolater="leadin-linr"  />
            <Keyframe id="6602"  time="128/1" value="0" leadInLength="1/1"  interpolater="leadin-linr"  />
            <Keyframe id="6603"  time="132/1" value="0" leadInLength="1/1"  interpolater="leadin-linr"  />
            <Keyframe id="6604"  time="133/1" value="0" leadInLength="1/1"  interpolater="leadin-linr"  />
            <Keyframe id="6605"  time="177/1" value="0" leadInLength="27/1"  interpolater="leadin-linr"  />
            </Keyframes>
           </InterpolatingParam>
          </VectorParam>
          <VectorParam id="6606"  name="rotation">
           <InterpolatingParam id="6607" interp="linr"  >
            <Keyframes>
            <Keyframe id="6608"  time="-9999999/1" value="0" leadInLength="0/1"  />
            <Keyframe id="6609"  time="87/1" value="0" leadInLength="5/1"  interpolater="leadin-linr"  />
            <Keyframe id="6610"  time="101/1" value="0" leadInLength="1/1"  interpolater="leadin-linr"  />
            <Keyframe id="6611"  time="125/1" value="0" leadInLength="1/1"  interpolater="leadin-linr"  />
            <Keyframe id="6612"  time="126/1" value="0" leadInLength="1/1"  interpolater="leadin-linr"  />
            <Keyframe id="6613"  time="128/1" value="0" leadInLength="1/1"  interpolater="leadin-linr"  />
            <Keyframe id="6614"  time="132/1" value="0" leadInLength="1/1"  interpolater="leadin-linr"  />
            <Keyframe id="6615"  time="133/1" value="0" leadInLength="1/1"  interpolater="leadin-linr"  />
            <Keyframe id="6616"  time="177/1" value="0" leadInLength="27/1"  interpolater="leadin-linr"  />
            </Keyframes>
           </InterpolatingParam>
           <InterpolatingParam id="6617" interp="linr"  >
            <Keyframes>
            <Keyframe id="6618"  time="-9999999/1" value="0" leadInLength="0/1"  />
            <Keyframe id="6619"  time="87/1" value="0" leadInLength="5/1"  interpolater="leadin-linr"  />
            <Keyframe id="6620"  time="101/1" value="0" leadInLength="1/1"  interpolater="leadin-linr"  />
            <Keyframe id="6621"  time="125/1" value="0" leadInLength="1/1"  interpolater="leadin-linr"  />
            <Keyframe id="6622"  time="126/1" value="0" leadInLength="1/1"  interpolater="leadin-linr"  />
            <Keyframe id="6623"  time="128/1" value="0" leadInLength="1/1"  interpolater="leadin-linr"  />
            <Keyframe id="6624"  time="132/1" value="0" leadInLength="1/1"  interpolater="leadin-linr"  />
            <Keyframe id="6625"  time="133/1" value="0" leadInLength="1/1"  interpolater="leadin-linr"  />
            <Keyframe id="6626"  time="177/1" value="0" leadInLength="27/1"  interpolater="leadin-linr"  />
            </Keyframes>
           </InterpolatingParam>
           <InterpolatingParam id="6627" interp="linr"  >
            <Keyframes>
            <Keyframe id="6628"  time="-9999999/1" value="0" leadInLength="0/1"  />
            <Keyframe id="6629"  time="87/1" value="0" leadInLength="5/1"  interpolater="leadin-linr"  />
            <Keyframe id="6630"  time="101/1" value="0" leadInLength="1/1"  interpolater="leadin-linr"  />
            <Keyframe id="6631"  time="125/1" value="0" leadInLength="1/1"  interpolater="leadin-linr"  />
            <Keyframe id="6632"  time="126/1" value="0" leadInLength="1/1"  interpolater="leadin-linr"  />
            <Keyframe id="6633"  time="128/1" value="0" leadInLength="1/1"  interpolater="leadin-linr"  />
            <Keyframe id="6634"  time="132/1" value="0" leadInLength="1/1"  interpolater="leadin-linr"  />
            <Keyframe id="6635"  time="133/1" value="0" leadInLength="1/1"  interpolater="leadin-linr"  />
            <Keyframe id="6636"  time="177/1" value="0" leadInLength="27/1"  interpolater="leadin-linr"  />
            </Keyframes>
           </InterpolatingParam>
          </VectorParam>
          <VectorParam id="6637"  name="shear">
           <InterpolatingParam id="6638" interp="linr"  >
            <Keyframes>
            <Keyframe id="6639"  time="-9999999/1" value="0" leadInLength="0/1"  />
            <Keyframe id="6640"  time="87/1" value="0" leadInLength="5/1"  interpolater="leadin-linr"  />
            <Keyframe id="6641"  time="101/1" value="0" leadInLength="1/1"  interpolater="leadin-linr"  />
            <Keyframe id="6642"  time="125/1" value="0" leadInLength="1/1"  interpolater="leadin-linr"  />
            <Keyframe id="6643"  time="126/1" value="0" leadInLength="1/1"  interpolater="leadin-linr"  />
            <Keyframe id="6644"  time="128/1" value="0" leadInLength="1/1"  interpolater="leadin-linr"  />
            <Keyframe id="6645"  time="132/1" value="0" leadInLength="1/1"  interpolater="leadin-linr"  />
            <Keyframe id="6646"  time="133/1" value="0" leadInLength="1/1"  interpolater="leadin-linr"  />
            <Keyframe id="6647"  time="177/1" value="0" leadInLength="27/1"  interpolater="leadin-linr"  />
            </Keyframes>
           </InterpolatingParam>
           <InterpolatingParam id="6648" interp="linr"  >
            <Keyframes>
            <Keyframe id="6649"  time="-9999999/1" value="0" leadInLength="0/1"  />
            <Keyframe id="6650"  time="87/1" value="0" leadInLength="5/1"  interpolater="leadin-linr"  />
            <Keyframe id="6651"  time="101/1" value="0" leadInLength="1/1"  interpolater="leadin-linr"  />
            <Keyframe id="6652"  time="125/1" value="0" leadInLength="1/1"  interpolater="leadin-linr"  />
            <Keyframe id="6653"  time="126/1" value="0" leadInLength="1/1"  interpolater="leadin-linr"  />
            <Keyframe id="6654"  time="128/1" value="0" leadInLength="1/1"  interpolater="leadin-linr"  />
            <Keyframe id="6655"  time="132/1" value="0" leadInLength="1/1"  interpolater="leadin-linr"  />
            <Keyframe id="6656"  time="133/1" value="0" leadInLength="1/1"  interpolater="leadin-linr"  />
            <Keyframe id="6657"  time="177/1" value="0" leadInLength="27/1"  interpolater="leadin-linr"  />
            </Keyframes>
           </InterpolatingParam>
           <InterpolatingParam id="6658" interp="linr"  >
            <Keyframes>
            <Keyframe id="6659"  time="-9999999/1" value="0" leadInLength="0/1"  />
            <Keyframe id="6660"  time="87/1" value="0" leadInLength="5/1"  interpolater="leadin-linr"  />
            <Keyframe id="6661"  time="101/1" value="0" leadInLength="1/1"  interpolater="leadin-linr"  />
            <Keyframe id="6662"  time="125/1" value="0" leadInLength="1/1"  interpolater="leadin-linr"  />
            <Keyframe id="6663"  time="126/1" value="0" leadInLength="1/1"  interpolater="leadin-linr"  />
            <Keyframe id="6664"  time="128/1" value="0" leadInLength="1/1"  interpolater="leadin-linr"  />
            <Keyframe id="6665"  time="132/1" value="0" leadInLength="1/1"  interpolater="leadin-linr"  />
            <Keyframe id="6666"  time="133/1" value="0" leadInLength="1/1"  interpolater="leadin-linr"  />
            <Keyframe id="6667"  time="177/1" value="0" leadInLength="27/1"  interpolater="leadin-linr"  />
            </Keyframes>
           </InterpolatingParam>
          </VectorParam>
          <VectorParam id="6668"  name="scale">
           <InterpolatingParam id="6669" interp="linr"  >
            <Keyframes>
            <Keyframe id="6670"  time="-9999999/1" value="0.36575229158561207" leadInLength="0/1"  />
            <Keyframe id="6671"  time="87/1" value="0.36986007995304027" leadInLength="5/1"  interpolater="leadin-linr"  />
            <Keyframe id="6672"  time="101/1" value="0.33677184465899562" leadInLength="1/1"  interpolater="leadin-linr"  />
            <Keyframe id="6673"  time="125/1" value="0.33677184465946008" leadInLength="1/1"  interpolater="leadin-linr"  />
            <Keyframe id="6674"  time="126/1" value="0.33677184465946008" leadInLength="1/1"  interpolater="leadin-linr"  />
            <Keyframe id="6675"  time="128/1" value="0.33677184465946008" leadInLength="1/1"  interpolater="leadin-linr"  />
            <Keyframe id="6676"  time="132/1" value="0.33677184465946008" leadInLength="1/1"  interpolater="leadin-linr"  />
            <Keyframe id="6677"  time="133/1" value="0.33677184465946008" leadInLength="1/1"  interpolater="leadin-linr"  />
            <Keyframe id="6678"  time="177/1" value="0.3367718446594945" leadInLength="27/1"  interpolater="leadin-linr"  />
            </Keyframes>
           </InterpolatingParam>
           <InterpolatingParam id="6679" interp="linr"  >
            <Keyframes>
            <Keyframe id="6680"  time="-9999999/1" value="0.26191896729391612" leadInLength="0/1"  />
            <Keyframe id="6681"  time="87/1" value="0.26575290310301869" leadInLength="5/1"  interpolater="leadin-linr"  />
            <Keyframe id="6682"  time="101/1" value="0.22653721682801692" leadInLength="1/1"  interpolater="leadin-linr"  />
            <Keyframe id="6683"  time="125/1" value="0.239609112253896" leadInLength="1/1"  interpolater="leadin-linr"  />
            <Keyframe id="6684"  time="126/1" value="0.23960911225435336" leadInLength="1/1"  interpolater="leadin-linr"  />
            <Keyframe id="6685"  time="128/1" value="0.23960911225517917" leadInLength="1/1"  interpolater="leadin-linr"  />
            <Keyframe id="6686"  time="132/1" value="0.23960911225517917" leadInLength="1/1"  interpolater="leadin-linr"  />
            <Keyframe id="6687"  time="133/1" value="0.2396091122552812" leadInLength="1/1"  interpolater="leadin-linr"  />
            <Keyframe id="6688"  time="177/1" value="0.23960911225567411" leadInLength="27/1"  interpolater="leadin-linr"  />
            </Keyframes>
           </InterpolatingParam>
           <InterpolatingParam id="6689" interp="linr"  >
            <Keyframes>
            <Keyframe id="6690"  time="-9999999/1" value="1" leadInLength="0/1"  />
            <Keyframe id="6691"  time="87/1" value="1" leadInLength="5/1"  interpolater="leadin-linr"  />
            <Keyframe id="6692"  time="101/1" value="1" leadInLength="1/1"  interpolater="leadin-linr"  />
            <Keyframe id="6693"  time="125/1" value="1" leadInLength="1/1"  interpolater="leadin-linr"  />
            <Keyframe id="6694"  time="126/1" value="1" leadInLength="1/1"  interpolater="leadin-linr"  />
            <Keyframe id="6695"  time="128/1" value="1" leadInLength="1/1"  interpolater="leadin-linr"  />
            <Keyframe id="6696"  time="132/1" value="1" leadInLength="1/1"  interpolater="leadin-linr"  />
            <Keyframe id="6697"  time="133/1" value="1" leadInLength="1/1"  interpolater="leadin-linr"  />
            <Keyframe id="6698"  time="177/1" value="1" leadInLength="27/1"  interpolater="leadin-linr"  />
            </Keyframes>
           </InterpolatingParam>
          </VectorParam>
          <VectorParam id="6699"  name="anchor">
           <InterpolatingParam id="6700" interp="linr"  time="0/1" value="0" leadInLength="0/1"  />
           <InterpolatingParam id="6701" interp="linr"  time="0/1" value="0" leadInLength="0/1"  />
           <InterpolatingParam id="6702" interp="linr"  time="0/1" value="0" leadInLength="0/1"  />
          </VectorParam>
         </Transformer>
         <Parameters>
          <VectorParam id="6703"  name="sourceCrop">
           <InterpolatingParam id="6704" interp="linr"  time="0/1" value="0" leadInLength="0/1"  />
           <InterpolatingParam id="6705" interp="linr"  time="0/1" value="0" leadInLength="0/1"  />
           <InterpolatingParam id="6706" interp="linr"  time="0/1" value="0" leadInLength="0/1"  />
           <InterpolatingParam id="6707" interp="linr"  time="0/1" value="0" leadInLength="0/1"  />
          </VectorParam>
          <VectorParam id="6708"  name="geometryCrop">
           <InterpolatingParam id="6709" interp="linr"  >
            <Keyframes>
            <Keyframe id="6710"  time="-9999999/1" value="0" leadInLength="0/1"  />
            <Keyframe id="6711"  time="87/1" value="0" leadInLength="5/1"  interpolater="leadin-linr"  />
            <Keyframe id="6712"  time="101/1" value="0" leadInLength="1/1"  interpolater="leadin-linr"  />
            <Keyframe id="6713"  time="125/1" value="0" leadInLength="1/1"  interpolater="leadin-linr"  />
            <Keyframe id="6714"  time="126/1" value="0" leadInLength="1/1"  interpolater="leadin-linr"  />
            <Keyframe id="6715"  time="128/1" value="0" leadInLength="1/1"  interpolater="leadin-linr"  />
            <Keyframe id="6716"  time="132/1" value="0" leadInLength="1/1"  interpolater="leadin-linr"  />
            <Keyframe id="6717"  time="133/1" value="0" leadInLength="1/1"  interpolater="leadin-linr"  />
            <Keyframe id="6718"  time="177/1" value="0" leadInLength="27/1"  interpolater="leadin-linr"  />
            </Keyframes>
           </InterpolatingParam>
           <InterpolatingParam id="6719" interp="linr"  >
            <Keyframes>
            <Keyframe id="6720"  time="-9999999/1" value="0" leadInLength="0/1"  />
            <Keyframe id="6721"  time="87/1" value="0" leadInLength="5/1"  interpolater="leadin-linr"  />
            <Keyframe id="6722"  time="101/1" value="0" leadInLength="1/1"  interpolater="leadin-linr"  />
            <Keyframe id="6723"  time="125/1" value="0" leadInLength="1/1"  interpolater="leadin-linr"  />
            <Keyframe id="6724"  time="126/1" value="0" leadInLength="1/1"  interpolater="leadin-linr"  />
            <Keyframe id="6725"  time="128/1" value="0" leadInLength="1/1"  interpolater="leadin-linr"  />
            <Keyframe id="6726"  time="132/1" value="0" leadInLength="1/1"  interpolater="leadin-linr"  />
            <Keyframe id="6727"  time="133/1" value="0" leadInLength="1/1"  interpolater="leadin-linr"  />
            <Keyframe id="6728"  time="177/1" value="0" leadInLength="27/1"  interpolater="leadin-linr"  />
            </Keyframes>
           </InterpolatingParam>
           <InterpolatingParam id="6729" interp="linr"  >
            <Keyframes>
            <Keyframe id="6730"  time="-9999999/1" value="0" leadInLength="0/1"  />
            <Keyframe id="6731"  time="87/1" value="0" leadInLength="5/1"  interpolater="leadin-linr"  />
            <Keyframe id="6732"  time="101/1" value="0" leadInLength="1/1"  interpolater="leadin-linr"  />
            <Keyframe id="6733"  time="125/1" value="0" leadInLength="1/1"  interpolater="leadin-linr"  />
            <Keyframe id="6734"  time="126/1" value="0" leadInLength="1/1"  interpolater="leadin-linr"  />
            <Keyframe id="6735"  time="128/1" value="0" leadInLength="1/1"  interpolater="leadin-linr"  />
            <Keyframe id="6736"  time="132/1" value="0" leadInLength="1/1"  interpolater="leadin-linr"  />
            <Keyframe id="6737"  time="133/1" value="0" leadInLength="1/1"  interpolater="leadin-linr"  />
            <Keyframe id="6738"  time="177/1" value="0" leadInLength="27/1"  interpolater="leadin-linr"  />
            </Keyframes>
           </InterpolatingParam>
           <InterpolatingParam id="6739" interp="linr"  >
            <Keyframes>
            <Keyframe id="6740"  time="-9999999/1" value="0" leadInLength="0/1"  />
            <Keyframe id="6741"  time="87/1" value="0" leadInLength="5/1"  interpolater="leadin-linr"  />
            <Keyframe id="6742"  time="101/1" value="0" leadInLength="1/1"  interpolater="leadin-linr"  />
            <Keyframe id="6743"  time="125/1" value="0" leadInLength="1/1"  interpolater="leadin-linr"  />
            <Keyframe id="6744"  time="126/1" value="0" leadInLength="1/1"  interpolater="leadin-linr"  />
            <Keyframe id="6745"  time="128/1" value="0" leadInLength="1/1"  interpolater="leadin-linr"  />
            <Keyframe id="6746"  time="132/1" value="0" leadInLength="1/1"  interpolater="leadin-linr"  />
            <Keyframe id="6747"  time="133/1" value="0" leadInLength="1/1"  interpolater="leadin-linr"  />
            <Keyframe id="6748"  time="177/1" value="0" leadInLength="27/1"  interpolater="leadin-linr"  />
            </Keyframes>
           </InterpolatingParam>
          </VectorParam>
          <InterpolatingParam id="6749" interp="linr"  name="opacity">
           <Keyframes>
           <Keyframe id="6750"  time="-9999999/1" value="1" leadInLength="0/1"  />
           <Keyframe id="6751"  time="87/1" value="1" leadInLength="5/1"  interpolater="leadin-linr"  />
           <Keyframe id="6752"  time="101/1" value="1" leadInLength="1/1"  interpolater="leadin-linr"  />
           <Keyframe id="6753"  time="125/1" value="1" leadInLength="1/1"  interpolater="leadin-linr"  />
           <Keyframe id="6754"  time="126/1" value="1" leadInLength="1/1"  interpolater="leadin-linr"  />
           <Keyframe id="6755"  time="128/1" value="1" leadInLength="1/1"  interpolater="leadin-linr"  />
           <Keyframe id="6756"  time="132/1" value="1" leadInLength="1/1"  interpolater="leadin-linr"  />
           <Keyframe id="6757"  time="133/1" value="1" leadInLength="1/1"  interpolater="leadin-linr"  />
           <Keyframe id="6758"  time="177/1" value="1" leadInLength="27/1"  interpolater="leadin-linr"  />
           </Keyframes>
          </InterpolatingParam>
         </Parameters>
         <Effects>
          <GenericEffect id="6759" name = "DropShadow" >
           <Parameters>
           <InterpolatingParam id="6760" interp="linr"  time="0/1" value="315" leadInLength="0/1"   name="angle"/>
           <InterpolatingParam id="6761" interp="linr"  time="0/1" value="2" leadInLength="0/1"   name="blur"/>
           <Parameter id="6762"   name="enabled">
            <Keyframes>
            <Keyframe id="6763"  time="0/1" value="1" leadInLength="0/1"  />
            </Keyframes>
           </Parameter>
           <InterpolatingParam id="6764" interp="linr"  time="0/1" value="4" leadInLength="0/1"   name="offset"/>
           <InterpolatingParam id="6765" interp="linr"  time="0/1" value="1" leadInLength="0/1"   name="opacity"/>
           </Parameters>
          </GenericEffect>
         </Effects>
         <Attributes>
          <Attribute id="6766"  name="vectorNode">
           <VectorNode id="6767" kind="TypeWinSVG"  >
            <DoubleParameters>
             <InterpolatingParam id="6768" interp="linr"  time="0/1" value="1" leadInLength="0/1"  name="DrawTime"/>
             <InterpolatingParam id="6769" interp="linr"  time="0/1" value="0" leadInLength="0/1"  name="borderColorBlue"/>
             <InterpolatingParam id="6770" interp="linr"  time="0/1" value="0" leadInLength="0/1"  name="borderColorGreen"/>
             <InterpolatingParam id="6771" interp="linr"  time="0/1" value="255" leadInLength="0/1"  name="borderColorRed"/>
             <InterpolatingParam id="6772" interp="linr"  time="0/1" value="5" leadInLength="0/1"  name="borderWidth"/>
             <InterpolatingParam id="6773" interp="linr"  time="0/1" value="1" leadInLength="0/1"  name="flipOnXAxis"/>
             <InterpolatingParam id="6774" interp="linr"  time="0/1" value="0" leadInLength="0/1"  name="flipOnYAxis"/>
             <InterpolatingParam id="6775" interp="linr"  time="0/1" value="180" leadInLength="0/1"  name="height"/>
             <InterpolatingParam id="6776" interp="linr"  time="0/1" value="320" leadInLength="0/1"  name="width"/>
            </DoubleParameters>
            <StringParameters>
             <Parameter id="6777"  name="filename">
              <Keyframes>
              <Keyframe id="6778"  time="0/1" value="C:\Program Files (x86)\TechSmith\Camtasia Studio 8\Media\Studio\Callouts\anim_arrow.svg" leadInLength="0/1"  />
              </Keyframes>
             </Parameter>
             <Parameter id="6779"  name="name">
              <Keyframes>
              <Keyframe id="6780"  time="0/1" value="Sketch Motion Arrow" leadInLength="0/1"  />
              </Keyframes>
             </Parameter>
             <Parameter id="6781"  name="xmlContent">
              <Keyframes>
              <Keyframe id="6782"  time="0/1" value="﻿&lt;?xml version=&quot;1.0&quot; encoding=&quot;utf-8&quot;?&gt;&#xa;&lt;!-- Generator: Adobe Illustrator 13.0.2, SVG Export Plug-In . SVG Version: 6.00 Build 14948)  --&gt;&#xa;&lt;!DOCTYPE svg PUBLIC &quot;-//W3C//DTD SVG 1.1//EN&quot; &quot;http://www.w3.org/Graphics/SVG/1.1/DTD/svg11.dtd&quot;&gt;&#xa;&lt;svg version=&quot;1.1&quot; id=&quot;Layer_1&quot; xmlns=&quot;http://www.w3.org/2000/svg&quot; xmlns:xlink=&quot;http://www.w3.org/1999/xlink&quot; x=&quot;0px&quot; y=&quot;0px&quot;&#xa;&#x9; width=&quot;151.268px&quot; height=&quot;53px&quot; viewBox=&quot;0 0 151.268 53&quot; enable-background=&quot;new 0 0 151.268 53&quot; xml:space=&quot;preserve&quot;&gt;&#xa;&lt;path fill=&quot;none&quot; d=&quot;M12.852,24.926c0,0,85.25-8.838,118.688-2.996&quot;/&gt;&#xa;&lt;path fill=&quot;none&quot; d=&quot;M93.169,2.713c0,0,46.52,8.657,49.944,18.729c3.424,10.071-43.753,26.022-43.753,26.022&quot;/&gt;&#xa;&lt;/svg&gt;&#xa;" leadInLength="0/1"  />
              </Keyframes>
             </Parameter>
            </StringParameters>
           </VectorNode>
          </Attribute>
         </Attributes>
         <MetaData>
          <entry key="WinSubProjectDisplayName" val=""/>
         </MetaData>
         <LeftEdgeMods length="30/1" groupName="DrawPercentageFade">
          <EdgeMod parameter="6768">
           <FadeInFunc id="6783"  />
          </EdgeMod>
         </LeftEdgeMods>
         <RightEdgeMods length="30/1" groupName="OpacityFade">
          <EdgeMod parameter="6749">
           <FadeOutFunc id="6570"  />
          </EdgeMod>
         </RightEdgeMods>
         <ExtraData>
          <Entry key="ZoomPanBin">
           <ZoomPanBin id="6784"  >
            <ZoomPanKeyframes>
             <ZoomPanKeyframe id="6785" timeRangeEnd="-9999999/1" timeRangeDuration="0/1" interpolaterName="linr"  />
             <ZoomPanKeyframe id="6786" timeRangeEnd="87/1" timeRangeDuration="5/1" interpolaterName="linr"  />
             <ZoomPanKeyframe id="6787" timeRangeEnd="101/1" timeRangeDuration="1/1" interpolaterName="linr"  />
             <ZoomPanKeyframe id="6788" timeRangeEnd="125/1" timeRangeDuration="1/1" interpolaterName="linr"  />
             <ZoomPanKeyframe id="6789" timeRangeEnd="126/1" timeRangeDuration="1/1" interpolaterName="linr"  />
             <ZoomPanKeyframe id="6790" timeRangeEnd="128/1" timeRangeDuration="1/1" interpolaterName="linr"  />
             <ZoomPanKeyframe id="6791" timeRangeEnd="132/1" timeRangeDuration="1/1" interpolaterName="linr"  />
             <ZoomPanKeyframe id="6792" timeRangeEnd="133/1" timeRangeDuration="1/1" interpolaterName="linr"  />
             <ZoomPanKeyframe id="6793" timeRangeEnd="177/1" timeRangeDuration="27/1" interpolaterName="linr"  />
            </ZoomPanKeyframes>
           </ZoomPanBin>
          </Entry>
         </ExtraData>
        </Callout>
        <Callout id="6794" start="7512" duration="64" scalar="1/1" mediaStart="0/1" mediaDuration="64/1" >
         <Transformer>
          <VectorParam id="6795"  name="translation">
           <InterpolatingParam id="6796" interp="linr"  time="-9999999/1" value="338.90109890094891" leadInLength="0/1"  />
           <InterpolatingParam id="6797" interp="linr"  time="-9999999/1" value="83.076923077016431" leadInLength="0/1"  />
           <InterpolatingParam id="6798" interp="linr"  time="-9999999/1" value="0" leadInLength="0/1"  />
          </VectorParam>
          <VectorParam id="6799"  name="rotation">
           <InterpolatingParam id="6800" interp="linr"  time="-9999999/1" value="0" leadInLength="0/1"  />
           <InterpolatingParam id="6801" interp="linr"  time="-9999999/1" value="0" leadInLength="0/1"  />
           <InterpolatingParam id="6802" interp="linr"  time="-9999999/1" value="0" leadInLength="0/1"  />
          </VectorParam>
          <VectorParam id="6803"  name="shear">
           <InterpolatingParam id="6804" interp="linr"  time="-9999999/1" value="0" leadInLength="0/1"  />
           <InterpolatingParam id="6805" interp="linr"  time="-9999999/1" value="0" leadInLength="0/1"  />
           <InterpolatingParam id="6806" interp="linr"  time="-9999999/1" value="0" leadInLength="0/1"  />
          </VectorParam>
          <VectorParam id="6807"  name="scale">
           <InterpolatingParam id="6808" interp="linr"  time="-9999999/1" value="0.43131868131852463" leadInLength="0/1"  />
           <InterpolatingParam id="6809" interp="linr"  time="-9999999/1" value="0.34798534798515268" leadInLength="0/1"  />
           <InterpolatingParam id="6810" interp="linr"  time="-9999999/1" value="1" leadInLength="0/1"  />
          </VectorParam>
          <VectorParam id="6811"  name="anchor">
           <InterpolatingParam id="6812" interp="linr"  time="0/1" value="0" leadInLength="0/1"  />
           <InterpolatingParam id="6813" interp="linr"  time="0/1" value="0" leadInLength="0/1"  />
           <InterpolatingParam id="6814" interp="linr"  time="0/1" value="0" leadInLength="0/1"  />
          </VectorParam>
         </Transformer>
         <Parameters>
          <VectorParam id="6815"  name="sourceCrop">
           <InterpolatingParam id="6816" interp="linr"  time="0/1" value="0" leadInLength="0/1"  />
           <InterpolatingParam id="6817" interp="linr"  time="0/1" value="0" leadInLength="0/1"  />
           <InterpolatingParam id="6818" interp="linr"  time="0/1" value="0" leadInLength="0/1"  />
           <InterpolatingParam id="6819" interp="linr"  time="0/1" value="0" leadInLength="0/1"  />
          </VectorParam>
          <VectorParam id="6820"  name="geometryCrop">
           <InterpolatingParam id="6821" interp="linr"  time="-9999999/1" value="0" leadInLength="0/1"  />
           <InterpolatingParam id="6822" interp="linr"  time="-9999999/1" value="0" leadInLength="0/1"  />
           <InterpolatingParam id="6823" interp="linr"  time="-9999999/1" value="0" leadInLength="0/1"  />
           <InterpolatingParam id="6824" interp="linr"  time="-9999999/1" value="0" leadInLength="0/1"  />
          </VectorParam>
          <InterpolatingParam id="6825" interp="linr"  time="-9999999/1" value="1" leadInLength="0/1"  name="opacity"/>
         </Parameters>
         <Effects>
          <GenericEffect id="6826" name = "DropShadow" >
           <Parameters>
           <InterpolatingParam id="6827" interp="linr"  time="0/1" value="315" leadInLength="0/1"   name="angle"/>
           <InterpolatingParam id="6828" interp="linr"  time="0/1" value="2" leadInLength="0/1"   name="blur"/>
           <Parameter id="6829"   name="enabled">
            <Keyframes>
            <Keyframe id="6830"  time="0/1" value="1" leadInLength="0/1"  />
            </Keyframes>
           </Parameter>
           <InterpolatingParam id="6831" interp="linr"  time="0/1" value="4" leadInLength="0/1"   name="offset"/>
           <InterpolatingParam id="6832" interp="linr"  time="0/1" value="1" leadInLength="0/1"   name="opacity"/>
           </Parameters>
          </GenericEffect>
         </Effects>
         <Attributes>
          <Attribute id="6833"  name="vectorNode">
           <VectorNode id="6834" kind="TypeWinSVG"  >
            <DoubleParameters>
             <InterpolatingParam id="6835" interp="linr"  time="0/1" value="1" leadInLength="0/1"  name="DrawTime"/>
             <InterpolatingParam id="6836" interp="linr"  time="0/1" value="0" leadInLength="0/1"  name="borderColorBlue"/>
             <InterpolatingParam id="6837" interp="linr"  time="0/1" value="0" leadInLength="0/1"  name="borderColorGreen"/>
             <InterpolatingParam id="6838" interp="linr"  time="0/1" value="255" leadInLength="0/1"  name="borderColorRed"/>
             <InterpolatingParam id="6839" interp="linr"  time="0/1" value="5" leadInLength="0/1"  name="borderWidth"/>
             <InterpolatingParam id="6840" interp="linr"  time="0/1" value="0" leadInLength="0/1"  name="flipOnXAxis"/>
             <InterpolatingParam id="6841" interp="linr"  time="0/1" value="1" leadInLength="0/1"  name="flipOnYAxis"/>
             <InterpolatingParam id="6842" interp="linr"  time="0/1" value="180" leadInLength="0/1"  name="height"/>
             <InterpolatingParam id="6843" interp="linr"  time="0/1" value="320" leadInLength="0/1"  name="width"/>
            </DoubleParameters>
            <StringParameters>
             <Parameter id="6844"  name="filename">
              <Keyframes>
              <Keyframe id="6845"  time="0/1" value="C:\Program Files (x86)\TechSmith\Camtasia Studio 8\Media\Studio\Callouts\anim_arrow.svg" leadInLength="0/1"  />
              </Keyframes>
             </Parameter>
             <Parameter id="6846"  name="name">
              <Keyframes>
              <Keyframe id="6847"  time="0/1" value="Sketch Motion Arrow" leadInLength="0/1"  />
              </Keyframes>
             </Parameter>
             <Parameter id="6848"  name="xmlContent">
              <Keyframes>
              <Keyframe id="6849"  time="0/1" value="﻿&lt;?xml version=&quot;1.0&quot; encoding=&quot;utf-8&quot;?&gt;&#xa;&lt;!-- Generator: Adobe Illustrator 13.0.2, SVG Export Plug-In . SVG Version: 6.00 Build 14948)  --&gt;&#xa;&lt;!DOCTYPE svg PUBLIC &quot;-//W3C//DTD SVG 1.1//EN&quot; &quot;http://www.w3.org/Graphics/SVG/1.1/DTD/svg11.dtd&quot;&gt;&#xa;&lt;svg version=&quot;1.1&quot; id=&quot;Layer_1&quot; xmlns=&quot;http://www.w3.org/2000/svg&quot; xmlns:xlink=&quot;http://www.w3.org/1999/xlink&quot; x=&quot;0px&quot; y=&quot;0px&quot;&#xa;&#x9; width=&quot;151.268px&quot; height=&quot;53px&quot; viewBox=&quot;0 0 151.268 53&quot; enable-background=&quot;new 0 0 151.268 53&quot; xml:space=&quot;preserve&quot;&gt;&#xa;&lt;path fill=&quot;none&quot; d=&quot;M12.852,24.926c0,0,85.25-8.838,118.688-2.996&quot;/&gt;&#xa;&lt;path fill=&quot;none&quot; d=&quot;M93.169,2.713c0,0,46.52,8.657,49.944,18.729c3.424,10.071-43.753,26.022-43.753,26.022&quot;/&gt;&#xa;&lt;/svg&gt;&#xa;" leadInLength="0/1"  />
              </Keyframes>
             </Parameter>
            </StringParameters>
           </VectorNode>
          </Attribute>
         </Attributes>
         <MetaData>
          <entry key="WinSubProjectDisplayName" val=""/>
         </MetaData>
         <LeftEdgeMods length="30/1" groupName="DrawPercentageFade">
          <EdgeMod parameter="6835">
           <FadeInFunc id="6850"  />
          </EdgeMod>
         </LeftEdgeMods>
         <RightEdgeMods length="23/1" groupName="OpacityFade">
          <EdgeMod parameter="6825">
           <FadeOutFunc id="6851"  />
          </EdgeMod>
         </RightEdgeMods>
         <ExtraData>
          <Entry key="ZoomPanBin">
           <ZoomPanBin id="6852"  >
            <ZoomPanKeyframes>
             <ZoomPanKeyframe id="6853" timeRangeEnd="-9999999/1" timeRangeDuration="0/1" interpolaterName="linr"  />
            </ZoomPanKeyframes>
           </ZoomPanBin>
          </Entry>
         </ExtraData>
        </Callout>
        <Callout id="6854" start="7692" duration="25" scalar="1/1" mediaStart="76/1" mediaDuration="25/1" >
         <Transformer>
          <VectorParam id="6855"  name="translation">
           <InterpolatingParam id="6856" interp="linr"  >
            <Keyframes>
            <Keyframe id="6857"  time="-9999999/1" value="75.677655677847838" leadInLength="0/1"  />
            <Keyframe id="6858"  time="83/1" value="72.49999999990311" leadInLength="1/1"  interpolater="leadin-linr"  />
            <Keyframe id="6859"  time="85/1" value="75.833333333613027" leadInLength="2/1"  interpolater="leadin-linr"  />
            <Keyframe id="6860"  time="89/1" value="68.333333333603719" leadInLength="4/1"  interpolater="leadin-linr"  />
            </Keyframes>
           </InterpolatingParam>
           <InterpolatingParam id="6861" interp="linr"  >
            <Keyframes>
            <Keyframe id="6862"  time="-9999999/1" value="173.07692307705281" leadInLength="0/1"  />
            <Keyframe id="6863"  time="83/1" value="220.83333333353863" leadInLength="1/1"  interpolater="leadin-linr"  />
            <Keyframe id="6864"  time="85/1" value="322.50000000019895" leadInLength="2/1"  interpolater="leadin-linr"  />
            <Keyframe id="6865"  time="89/1" value="338.33333333350424" leadInLength="4/1"  interpolater="leadin-linr"  />
            </Keyframes>
           </InterpolatingParam>
           <InterpolatingParam id="6866" interp="linr"  >
            <Keyframes>
            <Keyframe id="6867"  time="-9999999/1" value="0" leadInLength="0/1"  />
            <Keyframe id="6868"  time="83/1" value="-3.4106051316482886e-010" leadInLength="1/1"  interpolater="leadin-linr"  />
            <Keyframe id="6869"  time="85/1" value="0" leadInLength="2/1"  interpolater="leadin-linr"  />
            <Keyframe id="6870"  time="89/1" value="0" leadInLength="4/1"  interpolater="leadin-linr"  />
            </Keyframes>
           </InterpolatingParam>
          </VectorParam>
          <VectorParam id="6871"  name="rotation">
           <InterpolatingParam id="6872" interp="linr"  >
            <Keyframes>
            <Keyframe id="6873"  time="-9999999/1" value="0" leadInLength="0/1"  />
            <Keyframe id="6874"  time="83/1" value="0" leadInLength="1/1"  interpolater="leadin-linr"  />
            <Keyframe id="6875"  time="85/1" value="0" leadInLength="2/1"  interpolater="leadin-linr"  />
            <Keyframe id="6876"  time="89/1" value="0" leadInLength="4/1"  interpolater="leadin-linr"  />
            </Keyframes>
           </InterpolatingParam>
           <InterpolatingParam id="6877" interp="linr"  >
            <Keyframes>
            <Keyframe id="6878"  time="-9999999/1" value="0" leadInLength="0/1"  />
            <Keyframe id="6879"  time="83/1" value="0" leadInLength="1/1"  interpolater="leadin-linr"  />
            <Keyframe id="6880"  time="85/1" value="0" leadInLength="2/1"  interpolater="leadin-linr"  />
            <Keyframe id="6881"  time="89/1" value="0" leadInLength="4/1"  interpolater="leadin-linr"  />
            </Keyframes>
           </InterpolatingParam>
           <InterpolatingParam id="6882" interp="linr"  >
            <Keyframes>
            <Keyframe id="6883"  time="-9999999/1" value="0" leadInLength="0/1"  />
            <Keyframe id="6884"  time="83/1" value="0" leadInLength="1/1"  interpolater="leadin-linr"  />
            <Keyframe id="6885"  time="85/1" value="0" leadInLength="2/1"  interpolater="leadin-linr"  />
            <Keyframe id="6886"  time="89/1" value="0" leadInLength="4/1"  interpolater="leadin-linr"  />
            </Keyframes>
           </InterpolatingParam>
          </VectorParam>
          <VectorParam id="6887"  name="shear">
           <InterpolatingParam id="6888" interp="linr"  >
            <Keyframes>
            <Keyframe id="6889"  time="-9999999/1" value="0" leadInLength="0/1"  />
            <Keyframe id="6890"  time="83/1" value="0" leadInLength="1/1"  interpolater="leadin-linr"  />
            <Keyframe id="6891"  time="85/1" value="0" leadInLength="2/1"  interpolater="leadin-linr"  />
            <Keyframe id="6892"  time="89/1" value="0" leadInLength="4/1"  interpolater="leadin-linr"  />
            </Keyframes>
           </InterpolatingParam>
           <InterpolatingParam id="6893" interp="linr"  >
            <Keyframes>
            <Keyframe id="6894"  time="-9999999/1" value="0" leadInLength="0/1"  />
            <Keyframe id="6895"  time="83/1" value="0" leadInLength="1/1"  interpolater="leadin-linr"  />
            <Keyframe id="6896"  time="85/1" value="0" leadInLength="2/1"  interpolater="leadin-linr"  />
            <Keyframe id="6897"  time="89/1" value="0" leadInLength="4/1"  interpolater="leadin-linr"  />
            </Keyframes>
           </InterpolatingParam>
           <InterpolatingParam id="6898" interp="linr"  >
            <Keyframes>
            <Keyframe id="6899"  time="-9999999/1" value="0" leadInLength="0/1"  />
            <Keyframe id="6900"  time="83/1" value="0" leadInLength="1/1"  interpolater="leadin-linr"  />
            <Keyframe id="6901"  time="85/1" value="0" leadInLength="2/1"  interpolater="leadin-linr"  />
            <Keyframe id="6902"  time="89/1" value="0" leadInLength="4/1"  interpolater="leadin-linr"  />
            </Keyframes>
           </InterpolatingParam>
          </VectorParam>
          <VectorParam id="6903"  name="scale">
           <InterpolatingParam id="6904" interp="linr"  >
            <Keyframes>
            <Keyframe id="6905"  time="-9999999/1" value="0.43131868131889972" leadInLength="0/1"  />
            <Keyframe id="6906"  time="83/1" value="0.4531249999983496" leadInLength="1/1"  interpolater="leadin-linr"  />
            <Keyframe id="6907"  time="85/1" value="0.45312499999847078" leadInLength="2/1"  interpolater="leadin-linr"  />
            <Keyframe id="6908"  time="89/1" value="0.45312499999835304" leadInLength="4/1"  interpolater="leadin-linr"  />
            </Keyframes>
           </InterpolatingParam>
           <InterpolatingParam id="6909" interp="linr"  >
            <Keyframes>
            <Keyframe id="6910"  time="-9999999/1" value="0.34798534798528047" leadInLength="0/1"  />
            <Keyframe id="6911"  time="83/1" value="0.361111111111795" leadInLength="1/1"  interpolater="leadin-linr"  />
            <Keyframe id="6912"  time="85/1" value="0.36111111111182409" leadInLength="2/1"  interpolater="leadin-linr"  />
            <Keyframe id="6913"  time="89/1" value="0.36111111111149274" leadInLength="4/1"  interpolater="leadin-linr"  />
            </Keyframes>
           </InterpolatingParam>
           <InterpolatingParam id="6914" interp="linr"  >
            <Keyframes>
            <Keyframe id="6915"  time="-9999999/1" value="1" leadInLength="0/1"  />
            <Keyframe id="6916"  time="83/1" value="1" leadInLength="1/1"  interpolater="leadin-linr"  />
            <Keyframe id="6917"  time="85/1" value="1" leadInLength="2/1"  interpolater="leadin-linr"  />
            <Keyframe id="6918"  time="89/1" value="1" leadInLength="4/1"  interpolater="leadin-linr"  />
            </Keyframes>
           </InterpolatingParam>
          </VectorParam>
          <VectorParam id="6919"  name="anchor">
           <InterpolatingParam id="6920" interp="linr"  time="0/1" value="0" leadInLength="0/1"  />
           <InterpolatingParam id="6921" interp="linr"  time="0/1" value="0" leadInLength="0/1"  />
           <InterpolatingParam id="6922" interp="linr"  time="0/1" value="0" leadInLength="0/1"  />
          </VectorParam>
         </Transformer>
         <Parameters>
          <VectorParam id="6923"  name="sourceCrop">
           <InterpolatingParam id="6924" interp="linr"  time="0/1" value="0" leadInLength="0/1"  />
           <InterpolatingParam id="6925" interp="linr"  time="0/1" value="0" leadInLength="0/1"  />
           <InterpolatingParam id="6926" interp="linr"  time="0/1" value="0" leadInLength="0/1"  />
           <InterpolatingParam id="6927" interp="linr"  time="0/1" value="0" leadInLength="0/1"  />
          </VectorParam>
          <VectorParam id="6928"  name="geometryCrop">
           <InterpolatingParam id="6929" interp="linr"  >
            <Keyframes>
            <Keyframe id="6930"  time="-9999999/1" value="0" leadInLength="0/1"  />
            <Keyframe id="6931"  time="83/1" value="0" leadInLength="1/1"  interpolater="leadin-linr"  />
            <Keyframe id="6932"  time="85/1" value="0" leadInLength="2/1"  interpolater="leadin-linr"  />
            <Keyframe id="6933"  time="89/1" value="0" leadInLength="4/1"  interpolater="leadin-linr"  />
            </Keyframes>
           </InterpolatingParam>
           <InterpolatingParam id="6934" interp="linr"  >
            <Keyframes>
            <Keyframe id="6935"  time="-9999999/1" value="0" leadInLength="0/1"  />
            <Keyframe id="6936"  time="83/1" value="0" leadInLength="1/1"  interpolater="leadin-linr"  />
            <Keyframe id="6937"  time="85/1" value="0" leadInLength="2/1"  interpolater="leadin-linr"  />
            <Keyframe id="6938"  time="89/1" value="0" leadInLength="4/1"  interpolater="leadin-linr"  />
            </Keyframes>
           </InterpolatingParam>
           <InterpolatingParam id="6939" interp="linr"  >
            <Keyframes>
            <Keyframe id="6940"  time="-9999999/1" value="0" leadInLength="0/1"  />
            <Keyframe id="6941"  time="83/1" value="0" leadInLength="1/1"  interpolater="leadin-linr"  />
            <Keyframe id="6942"  time="85/1" value="0" leadInLength="2/1"  interpolater="leadin-linr"  />
            <Keyframe id="6943"  time="89/1" value="0" leadInLength="4/1"  interpolater="leadin-linr"  />
            </Keyframes>
           </InterpolatingParam>
           <InterpolatingParam id="6944" interp="linr"  >
            <Keyframes>
            <Keyframe id="6945"  time="-9999999/1" value="0" leadInLength="0/1"  />
            <Keyframe id="6946"  time="83/1" value="0" leadInLength="1/1"  interpolater="leadin-linr"  />
            <Keyframe id="6947"  time="85/1" value="0" leadInLength="2/1"  interpolater="leadin-linr"  />
            <Keyframe id="6948"  time="89/1" value="0" leadInLength="4/1"  interpolater="leadin-linr"  />
            </Keyframes>
           </InterpolatingParam>
          </VectorParam>
          <InterpolatingParam id="6949" interp="linr"  name="opacity">
           <Keyframes>
           <Keyframe id="6950"  time="-9999999/1" value="1" leadInLength="0/1"  />
           <Keyframe id="6951"  time="83/1" value="1" leadInLength="1/1"  interpolater="leadin-linr"  />
           <Keyframe id="6952"  time="85/1" value="1" leadInLength="2/1"  interpolater="leadin-linr"  />
           <Keyframe id="6953"  time="89/1" value="1" leadInLength="4/1"  interpolater="leadin-linr"  />
           </Keyframes>
          </InterpolatingParam>
         </Parameters>
         <Effects>
          <GenericEffect id="6954" name = "DropShadow" >
           <Parameters>
           <InterpolatingParam id="6955" interp="linr"  time="0/1" value="315" leadInLength="0/1"   name="angle"/>
           <InterpolatingParam id="6956" interp="linr"  time="0/1" value="2" leadInLength="0/1"   name="blur"/>
           <Parameter id="6957"   name="enabled">
            <Keyframes>
            <Keyframe id="6958"  time="0/1" value="1" leadInLength="0/1"  />
            </Keyframes>
           </Parameter>
           <InterpolatingParam id="6959" interp="linr"  time="0/1" value="4" leadInLength="0/1"   name="offset"/>
           <InterpolatingParam id="6960" interp="linr"  time="0/1" value="1" leadInLength="0/1"   name="opacity"/>
           </Parameters>
          </GenericEffect>
         </Effects>
         <Attributes>
          <Attribute id="6961"  name="vectorNode">
           <VectorNode id="6962" kind="TypeWinSVG"  >
            <DoubleParameters>
             <InterpolatingParam id="6963" interp="linr"  time="0/1" value="1" leadInLength="0/1"  name="DrawTime"/>
             <InterpolatingParam id="6964" interp="linr"  time="0/1" value="0" leadInLength="0/1"  name="borderColorBlue"/>
             <InterpolatingParam id="6965" interp="linr"  time="0/1" value="0" leadInLength="0/1"  name="borderColorGreen"/>
             <InterpolatingParam id="6966" interp="linr"  time="0/1" value="255" leadInLength="0/1"  name="borderColorRed"/>
             <InterpolatingParam id="6967" interp="linr"  time="0/1" value="5" leadInLength="0/1"  name="borderWidth"/>
             <InterpolatingParam id="6968" interp="linr"  time="0/1" value="0" leadInLength="0/1"  name="flipOnXAxis"/>
             <InterpolatingParam id="6969" interp="linr"  time="0/1" value="1" leadInLength="0/1"  name="flipOnYAxis"/>
             <InterpolatingParam id="6970" interp="linr"  time="0/1" value="180" leadInLength="0/1"  name="height"/>
             <InterpolatingParam id="6971" interp="linr"  time="0/1" value="320" leadInLength="0/1"  name="width"/>
            </DoubleParameters>
            <StringParameters>
             <Parameter id="6972"  name="filename">
              <Keyframes>
              <Keyframe id="6973"  time="0/1" value="C:\Program Files (x86)\TechSmith\Camtasia Studio 8\Media\Studio\Callouts\anim_arrow.svg" leadInLength="0/1"  />
              </Keyframes>
             </Parameter>
             <Parameter id="6974"  name="name">
              <Keyframes>
              <Keyframe id="6975"  time="0/1" value="Sketch Motion Arrow" leadInLength="0/1"  />
              </Keyframes>
             </Parameter>
             <Parameter id="6976"  name="xmlContent">
              <Keyframes>
              <Keyframe id="6977"  time="0/1" value="﻿&lt;?xml version=&quot;1.0&quot; encoding=&quot;utf-8&quot;?&gt;&#xa;&lt;!-- Generator: Adobe Illustrator 13.0.2, SVG Export Plug-In . SVG Version: 6.00 Build 14948)  --&gt;&#xa;&lt;!DOCTYPE svg PUBLIC &quot;-//W3C//DTD SVG 1.1//EN&quot; &quot;http://www.w3.org/Graphics/SVG/1.1/DTD/svg11.dtd&quot;&gt;&#xa;&lt;svg version=&quot;1.1&quot; id=&quot;Layer_1&quot; xmlns=&quot;http://www.w3.org/2000/svg&quot; xmlns:xlink=&quot;http://www.w3.org/1999/xlink&quot; x=&quot;0px&quot; y=&quot;0px&quot;&#xa;&#x9; width=&quot;151.268px&quot; height=&quot;53px&quot; viewBox=&quot;0 0 151.268 53&quot; enable-background=&quot;new 0 0 151.268 53&quot; xml:space=&quot;preserve&quot;&gt;&#xa;&lt;path fill=&quot;none&quot; d=&quot;M12.852,24.926c0,0,85.25-8.838,118.688-2.996&quot;/&gt;&#xa;&lt;path fill=&quot;none&quot; d=&quot;M93.169,2.713c0,0,46.52,8.657,49.944,18.729c3.424,10.071-43.753,26.022-43.753,26.022&quot;/&gt;&#xa;&lt;/svg&gt;&#xa;" leadInLength="0/1"  />
              </Keyframes>
             </Parameter>
            </StringParameters>
           </VectorNode>
          </Attribute>
         </Attributes>
         <MetaData>
          <entry key="WinSubProjectDisplayName" val=""/>
         </MetaData>
         <LeftEdgeMods length="3/1" groupName="DrawPercentageFade">
          <EdgeMod parameter="6963">
           <FadeInFunc id="6978"  />
          </EdgeMod>
         </LeftEdgeMods>
         <RightEdgeMods length="3/1" groupName="OpacityFade">
          <EdgeMod parameter="6949">
           <FadeOutFunc id="6571"  />
          </EdgeMod>
         </RightEdgeMods>
         <ExtraData>
          <Entry key="ZoomPanBin">
           <ZoomPanBin id="6979"  >
            <ZoomPanKeyframes>
             <ZoomPanKeyframe id="6980" timeRangeEnd="-9999999/1" timeRangeDuration="0/1" interpolaterName="linr"  />
             <ZoomPanKeyframe id="6981" timeRangeEnd="83/1" timeRangeDuration="1/1" interpolaterName="linr"  />
             <ZoomPanKeyframe id="6982" timeRangeEnd="85/1" timeRangeDuration="2/1" interpolaterName="linr"  />
             <ZoomPanKeyframe id="6983" timeRangeEnd="89/1" timeRangeDuration="4/1" interpolaterName="linr"  />
            </ZoomPanKeyframes>
           </ZoomPanBin>
          </Entry>
         </ExtraData>
        </Callout>
        <Callout id="6984" start="7877" duration="32" scalar="1/1" mediaStart="5/1" mediaDuration="32/1" >
         <Transformer>
          <VectorParam id="6985"  name="translation">
           <InterpolatingParam id="6986" interp="linr"  >
            <Keyframes>
            <Keyframe id="6987"  time="-9999999/1" value="438.33333333401583" leadInLength="0/1"  />
            <Keyframe id="6988"  time="3/1" value="421.66666666732164" leadInLength="1/1"  interpolater="leadin-linr"  />
            <Keyframe id="6989"  time="8/1" value="420.71428571490486" leadInLength="2/1"  interpolater="leadin-linr"  />
            <Keyframe id="6990"  time="9/1" value="425.35714285780853" leadInLength="1/1"  interpolater="leadin-linr"  />
            <Keyframe id="6991"  time="10/1" value="430.00000000071219" leadInLength="1/1"  interpolater="leadin-linr"  />
            </Keyframes>
           </InterpolatingParam>
           <InterpolatingParam id="6992" interp="linr"  >
            <Keyframes>
            <Keyframe id="6993"  time="-9999999/1" value="-80.000000000293738" leadInLength="0/1"  />
            <Keyframe id="6994"  time="3/1" value="-208.33333333370044" leadInLength="1/1"  interpolater="leadin-linr"  />
            <Keyframe id="6995"  time="8/1" value="-174.76190476237295" leadInLength="2/1"  interpolater="leadin-linr"  />
            <Keyframe id="6996"  time="9/1" value="-108.2142857146745" leadInLength="1/1"  interpolater="leadin-linr"  />
            <Keyframe id="6997"  time="10/1" value="-85.000000000328995" leadInLength="1/1"  interpolater="leadin-linr"  />
            </Keyframes>
           </InterpolatingParam>
           <InterpolatingParam id="6998" interp="linr"  >
            <Keyframes>
            <Keyframe id="6999"  time="-9999999/1" value="0" leadInLength="0/1"  />
            <Keyframe id="7000"  time="3/1" value="0" leadInLength="1/1"  interpolater="leadin-linr"  />
            <Keyframe id="7001"  time="8/1" value="0" leadInLength="2/1"  interpolater="leadin-linr"  />
            <Keyframe id="7002"  time="9/1" value="0" leadInLength="1/1"  interpolater="leadin-linr"  />
            <Keyframe id="7003"  time="10/1" value="0" leadInLength="1/1"  interpolater="leadin-linr"  />
            </Keyframes>
           </InterpolatingParam>
          </VectorParam>
          <VectorParam id="7004"  name="rotation">
           <InterpolatingParam id="7005" interp="linr"  >
            <Keyframes>
            <Keyframe id="7006"  time="-9999999/1" value="0" leadInLength="0/1"  />
            <Keyframe id="7007"  time="3/1" value="0" leadInLength="1/1"  interpolater="leadin-linr"  />
            <Keyframe id="7008"  time="8/1" value="0" leadInLength="2/1"  interpolater="leadin-linr"  />
            <Keyframe id="7009"  time="9/1" value="0" leadInLength="1/1"  interpolater="leadin-linr"  />
            <Keyframe id="7010"  time="10/1" value="0" leadInLength="1/1"  interpolater="leadin-linr"  />
            </Keyframes>
           </InterpolatingParam>
           <InterpolatingParam id="7011" interp="linr"  >
            <Keyframes>
            <Keyframe id="7012"  time="-9999999/1" value="0" leadInLength="0/1"  />
            <Keyframe id="7013"  time="3/1" value="0" leadInLength="1/1"  interpolater="leadin-linr"  />
            <Keyframe id="7014"  time="8/1" value="0" leadInLength="2/1"  interpolater="leadin-linr"  />
            <Keyframe id="7015"  time="9/1" value="0" leadInLength="1/1"  interpolater="leadin-linr"  />
            <Keyframe id="7016"  time="10/1" value="0" leadInLength="1/1"  interpolater="leadin-linr"  />
            </Keyframes>
           </InterpolatingParam>
           <InterpolatingParam id="7017" interp="linr"  >
            <Keyframes>
            <Keyframe id="7018"  time="-9999999/1" value="0" leadInLength="0/1"  />
            <Keyframe id="7019"  time="3/1" value="0" leadInLength="1/1"  interpolater="leadin-linr"  />
            <Keyframe id="7020"  time="8/1" value="0" leadInLength="2/1"  interpolater="leadin-linr"  />
            <Keyframe id="7021"  time="9/1" value="0" leadInLength="1/1"  interpolater="leadin-linr"  />
            <Keyframe id="7022"  time="10/1" value="0" leadInLength="1/1"  interpolater="leadin-linr"  />
            </Keyframes>
           </InterpolatingParam>
          </VectorParam>
          <VectorParam id="7023"  name="shear">
           <InterpolatingParam id="7024" interp="linr"  >
            <Keyframes>
            <Keyframe id="7025"  time="-9999999/1" value="0" leadInLength="0/1"  />
            <Keyframe id="7026"  time="3/1" value="0" leadInLength="1/1"  interpolater="leadin-linr"  />
            <Keyframe id="7027"  time="8/1" value="0" leadInLength="2/1"  interpolater="leadin-linr"  />
            <Keyframe id="7028"  time="9/1" value="0" leadInLength="1/1"  interpolater="leadin-linr"  />
            <Keyframe id="7029"  time="10/1" value="0" leadInLength="1/1"  interpolater="leadin-linr"  />
            </Keyframes>
           </InterpolatingParam>
           <InterpolatingParam id="7030" interp="linr"  >
            <Keyframes>
            <Keyframe id="7031"  time="-9999999/1" value="0" leadInLength="0/1"  />
            <Keyframe id="7032"  time="3/1" value="0" leadInLength="1/1"  interpolater="leadin-linr"  />
            <Keyframe id="7033"  time="8/1" value="0" leadInLength="2/1"  interpolater="leadin-linr"  />
            <Keyframe id="7034"  time="9/1" value="0" leadInLength="1/1"  interpolater="leadin-linr"  />
            <Keyframe id="7035"  time="10/1" value="0" leadInLength="1/1"  interpolater="leadin-linr"  />
            </Keyframes>
           </InterpolatingParam>
           <InterpolatingParam id="7036" interp="linr"  >
            <Keyframes>
            <Keyframe id="7037"  time="-9999999/1" value="0" leadInLength="0/1"  />
            <Keyframe id="7038"  time="3/1" value="0" leadInLength="1/1"  interpolater="leadin-linr"  />
            <Keyframe id="7039"  time="8/1" value="0" leadInLength="2/1"  interpolater="leadin-linr"  />
            <Keyframe id="7040"  time="9/1" value="0" leadInLength="1/1"  interpolater="leadin-linr"  />
            <Keyframe id="7041"  time="10/1" value="0" leadInLength="1/1"  interpolater="leadin-linr"  />
            </Keyframes>
           </InterpolatingParam>
          </VectorParam>
          <VectorParam id="7042"  name="scale">
           <InterpolatingParam id="7043" interp="linr"  >
            <Keyframes>
            <Keyframe id="7044"  time="-9999999/1" value="0.51041666666924246" leadInLength="0/1"  />
            <Keyframe id="7045"  time="3/1" value="0.51041666666924257" leadInLength="1/1"  interpolater="leadin-linr"  />
            <Keyframe id="7046"  time="8/1" value="0.51041666666931584" leadInLength="2/1"  interpolater="leadin-linr"  />
            <Keyframe id="7047"  time="9/1" value="0.51041666666927921" leadInLength="1/1"  interpolater="leadin-linr"  />
            <Keyframe id="7048"  time="10/1" value="0.51041666666924257" leadInLength="1/1"  interpolater="leadin-linr"  />
            </Keyframes>
           </InterpolatingParam>
           <InterpolatingParam id="7049" interp="linr"  >
            <Keyframes>
            <Keyframe id="7050"  time="-9999999/1" value="0.3148148148151772" leadInLength="0/1"  />
            <Keyframe id="7051"  time="3/1" value="0.31481481481562873" leadInLength="1/1"  interpolater="leadin-linr"  />
            <Keyframe id="7052"  time="8/1" value="0.31481481481684476" leadInLength="2/1"  interpolater="leadin-linr"  />
            <Keyframe id="7053"  time="9/1" value="0.31481481481623674" leadInLength="1/1"  interpolater="leadin-linr"  />
            <Keyframe id="7054"  time="10/1" value="0.31481481481562873" leadInLength="1/1"  interpolater="leadin-linr"  />
            </Keyframes>
           </InterpolatingParam>
           <InterpolatingParam id="7055" interp="linr"  >
            <Keyframes>
            <Keyframe id="7056"  time="-9999999/1" value="1" leadInLength="0/1"  />
            <Keyframe id="7057"  time="3/1" value="1" leadInLength="1/1"  interpolater="leadin-linr"  />
            <Keyframe id="7058"  time="8/1" value="1" leadInLength="2/1"  interpolater="leadin-linr"  />
            <Keyframe id="7059"  time="9/1" value="1" leadInLength="1/1"  interpolater="leadin-linr"  />
            <Keyframe id="7060"  time="10/1" value="1" leadInLength="1/1"  interpolater="leadin-linr"  />
            </Keyframes>
           </InterpolatingParam>
          </VectorParam>
          <VectorParam id="7061"  name="anchor">
           <InterpolatingParam id="7062" interp="linr"  time="0/1" value="0" leadInLength="0/1"  />
           <InterpolatingParam id="7063" interp="linr"  time="0/1" value="0" leadInLength="0/1"  />
           <InterpolatingParam id="7064" interp="linr"  time="0/1" value="0" leadInLength="0/1"  />
          </VectorParam>
         </Transformer>
         <Parameters>
          <VectorParam id="7065"  name="sourceCrop">
           <InterpolatingParam id="7066" interp="linr"  time="0/1" value="0" leadInLength="0/1"  />
           <InterpolatingParam id="7067" interp="linr"  time="0/1" value="0" leadInLength="0/1"  />
           <InterpolatingParam id="7068" interp="linr"  time="0/1" value="0" leadInLength="0/1"  />
           <InterpolatingParam id="7069" interp="linr"  time="0/1" value="0" leadInLength="0/1"  />
          </VectorParam>
          <VectorParam id="7070"  name="geometryCrop">
           <InterpolatingParam id="7071" interp="linr"  >
            <Keyframes>
            <Keyframe id="7072"  time="-9999999/1" value="0" leadInLength="0/1"  />
            <Keyframe id="7073"  time="3/1" value="0" leadInLength="1/1"  interpolater="leadin-linr"  />
            <Keyframe id="7074"  time="8/1" value="0" leadInLength="2/1"  interpolater="leadin-linr"  />
            <Keyframe id="7075"  time="9/1" value="0" leadInLength="1/1"  interpolater="leadin-linr"  />
            <Keyframe id="7076"  time="10/1" value="0" leadInLength="1/1"  interpolater="leadin-linr"  />
            </Keyframes>
           </InterpolatingParam>
           <InterpolatingParam id="7077" interp="linr"  >
            <Keyframes>
            <Keyframe id="7078"  time="-9999999/1" value="0" leadInLength="0/1"  />
            <Keyframe id="7079"  time="3/1" value="0" leadInLength="1/1"  interpolater="leadin-linr"  />
            <Keyframe id="7080"  time="8/1" value="0" leadInLength="2/1"  interpolater="leadin-linr"  />
            <Keyframe id="7081"  time="9/1" value="0" leadInLength="1/1"  interpolater="leadin-linr"  />
            <Keyframe id="7082"  time="10/1" value="0" leadInLength="1/1"  interpolater="leadin-linr"  />
            </Keyframes>
           </InterpolatingParam>
           <InterpolatingParam id="7083" interp="linr"  >
            <Keyframes>
            <Keyframe id="7084"  time="-9999999/1" value="0" leadInLength="0/1"  />
            <Keyframe id="7085"  time="3/1" value="0" leadInLength="1/1"  interpolater="leadin-linr"  />
            <Keyframe id="7086"  time="8/1" value="0" leadInLength="2/1"  interpolater="leadin-linr"  />
            <Keyframe id="7087"  time="9/1" value="0" leadInLength="1/1"  interpolater="leadin-linr"  />
            <Keyframe id="7088"  time="10/1" value="0" leadInLength="1/1"  interpolater="leadin-linr"  />
            </Keyframes>
           </InterpolatingParam>
           <InterpolatingParam id="7089" interp="linr"  >
            <Keyframes>
            <Keyframe id="7090"  time="-9999999/1" value="0" leadInLength="0/1"  />
            <Keyframe id="7091"  time="3/1" value="0" leadInLength="1/1"  interpolater="leadin-linr"  />
            <Keyframe id="7092"  time="8/1" value="0" leadInLength="2/1"  interpolater="leadin-linr"  />
            <Keyframe id="7093"  time="9/1" value="0" leadInLength="1/1"  interpolater="leadin-linr"  />
            <Keyframe id="7094"  time="10/1" value="0" leadInLength="1/1"  interpolater="leadin-linr"  />
            </Keyframes>
           </InterpolatingParam>
          </VectorParam>
          <InterpolatingParam id="7095" interp="linr"  name="opacity">
           <Keyframes>
           <Keyframe id="7096"  time="-9999999/1" value="1" leadInLength="0/1"  />
           <Keyframe id="7097"  time="3/1" value="1" leadInLength="1/1"  interpolater="leadin-linr"  />
           <Keyframe id="7098"  time="8/1" value="1" leadInLength="2/1"  interpolater="leadin-linr"  />
           <Keyframe id="7099"  time="9/1" value="1" leadInLength="1/1"  interpolater="leadin-linr"  />
           <Keyframe id="7100"  time="10/1" value="1" leadInLength="1/1"  interpolater="leadin-linr"  />
           </Keyframes>
          </InterpolatingParam>
         </Parameters>
         <Effects>
          <GenericEffect id="7101" name = "DropShadow" >
           <Parameters>
           <InterpolatingParam id="7102" interp="linr"  time="0/1" value="315" leadInLength="0/1"   name="angle"/>
           <InterpolatingParam id="7103" interp="linr"  time="0/1" value="2" leadInLength="0/1"   name="blur"/>
           <Parameter id="7104"   name="enabled">
            <Keyframes>
            <Keyframe id="7105"  time="0/1" value="1" leadInLength="0/1"  />
            </Keyframes>
           </Parameter>
           <InterpolatingParam id="7106" interp="linr"  time="0/1" value="4" leadInLength="0/1"   name="offset"/>
           <InterpolatingParam id="7107" interp="linr"  time="0/1" value="1" leadInLength="0/1"   name="opacity"/>
           </Parameters>
          </GenericEffect>
         </Effects>
         <Attributes>
          <Attribute id="7108"  name="vectorNode">
           <VectorNode id="7109" kind="TypeWinSVG"  >
            <DoubleParameters>
             <InterpolatingParam id="7110" interp="linr"  time="0/1" value="1" leadInLength="0/1"  name="DrawTime"/>
             <InterpolatingParam id="7111" interp="linr"  time="0/1" value="59" leadInLength="0/1"  name="borderColorBlue"/>
             <InterpolatingParam id="7112" interp="linr"  time="0/1" value="209" leadInLength="0/1"  name="borderColorGreen"/>
             <InterpolatingParam id="7113" interp="linr"  time="0/1" value="127" leadInLength="0/1"  name="borderColorRed"/>
             <InterpolatingParam id="7114" interp="linr"  time="0/1" value="5" leadInLength="0/1"  name="borderWidth"/>
             <InterpolatingParam id="7115" interp="linr"  time="0/1" value="0" leadInLength="0/1"  name="flipOnXAxis"/>
             <InterpolatingParam id="7116" interp="linr"  time="0/1" value="1" leadInLength="0/1"  name="flipOnYAxis"/>
             <InterpolatingParam id="7117" interp="linr"  time="0/1" value="180" leadInLength="0/1"  name="height"/>
             <InterpolatingParam id="7118" interp="linr"  time="0/1" value="320" leadInLength="0/1"  name="width"/>
            </DoubleParameters>
            <StringParameters>
             <Parameter id="7119"  name="filename">
              <Keyframes>
              <Keyframe id="7120"  time="0/1" value="C:\Program Files (x86)\TechSmith\Camtasia Studio 8\Media\Studio\Callouts\anim_drawnsquare.svg" leadInLength="0/1"  />
              </Keyframes>
             </Parameter>
             <Parameter id="7121"  name="name">
              <Keyframes>
              <Keyframe id="7122"  time="0/1" value="Sketch Motion Rectangle" leadInLength="0/1"  />
              </Keyframes>
             </Parameter>
             <Parameter id="7123"  name="xmlContent">
              <Keyframes>
              <Keyframe id="7124"  time="0/1" value="﻿&lt;?xml version=&quot;1.0&quot; encoding=&quot;utf-8&quot;?&gt;&#xa;&lt;!-- Generator: Adobe Illustrator 13.0.2, SVG Export Plug-In . SVG Version: 6.00 Build 14948)  --&gt;&#xa;&lt;!DOCTYPE svg PUBLIC &quot;-//W3C//DTD SVG 1.1//EN&quot; &quot;http://www.w3.org/Graphics/SVG/1.1/DTD/svg11.dtd&quot;&gt;&#xa;&lt;svg version=&quot;1.1&quot; id=&quot;Layer_1&quot; xmlns=&quot;http://www.w3.org/2000/svg&quot; xmlns:xlink=&quot;http://www.w3.org/1999/xlink&quot; x=&quot;0px&quot; y=&quot;0px&quot;&#xa;&#x9; width=&quot;296.633px&quot; height=&quot;227.883px&quot; viewBox=&quot;0 0 296.633 227.883&quot; enable-background=&quot;new 0 0 296.633 227.883&quot;&#xa;&#x9; xml:space=&quot;preserve&quot;&gt;&#xa;&lt;path fill=&quot;none&quot; d=&quot;M2.662,1.793c8.266,53.25,2.802,171.963,5.305,226.067&quot;/&gt;&#xa;&lt;path fill=&quot;none&quot; d=&quot;M1.031,222.146c67.199-9.078,213.034,6.17,279.931-5.306&quot;/&gt;&#xa;&lt;path fill=&quot;none&quot; d=&quot;M290.581,0.007c-0.5,33.125-2.356,191.708-11.658,223.363&quot;/&gt;&#xa;&lt;path fill=&quot;none&quot; d=&quot;M0.07,10.703C127.409-7.206,237.174,4.794,296.602,8.604&quot;/&gt;&#xa;&lt;/svg&gt;&#xa;" leadInLength="0/1"  />
              </Keyframes>
             </Parameter>
            </StringParameters>
           </VectorNode>
          </Attribute>
         </Attributes>
         <MetaData>
          <entry key="WinSubProjectDisplayName" val=""/>
         </MetaData>
         <LeftEdgeMods length="3/1" groupName="DrawPercentageFade">
          <EdgeMod parameter="7110">
           <FadeInFunc id="6978"  />
          </EdgeMod>
         </LeftEdgeMods>
         <RightEdgeMods length="3/1" groupName="OpacityFade">
          <EdgeMod parameter="7095">
           <FadeOutFunc id="6570"  />
          </EdgeMod>
         </RightEdgeMods>
         <ExtraData>
          <Entry key="ZoomPanBin">
           <ZoomPanBin id="7125"  >
            <ZoomPanKeyframes>
             <ZoomPanKeyframe id="7126" timeRangeEnd="-9999999/1" timeRangeDuration="0/1" interpolaterName="linr"  />
             <ZoomPanKeyframe id="7127" timeRangeEnd="10/1" timeRangeDuration="1/1" interpolaterName="linr"  />
             <ZoomPanKeyframe id="7128" timeRangeEnd="3/1" timeRangeDuration="1/1" interpolaterName="linr"  />
             <ZoomPanKeyframe id="7129" timeRangeEnd="8/1" timeRangeDuration="2/1" interpolaterName="linr"  />
             <ZoomPanKeyframe id="7130" timeRangeEnd="9/1" timeRangeDuration="1/1" interpolaterName="linr"  />
            </ZoomPanKeyframes>
           </ZoomPanBin>
          </Entry>
         </ExtraData>
        </Callout>
        <Callout id="7131" start="7980" duration="20" scalar="1/1" mediaStart="0/1" mediaDuration="20/1" >
         <Transformer>
          <VectorParam id="7132"  name="translation">
           <InterpolatingParam id="7133" interp="linr"  time="-9999999/1" value="-88.333333333028918" leadInLength="0/1"  />
           <InterpolatingParam id="7134" interp="linr"  time="-9999999/1" value="-305.83333333324242" leadInLength="0/1"  />
           <InterpolatingParam id="7135" interp="linr"  time="-9999999/1" value="0" leadInLength="0/1"  />
          </VectorParam>
          <VectorParam id="7136"  name="rotation">
           <InterpolatingParam id="7137" interp="linr"  time="-9999999/1" value="0" leadInLength="0/1"  />
           <InterpolatingParam id="7138" interp="linr"  time="-9999999/1" value="0" leadInLength="0/1"  />
           <InterpolatingParam id="7139" interp="linr"  time="-9999999/1" value="0" leadInLength="0/1"  />
          </VectorParam>
          <VectorParam id="7140"  name="shear">
           <InterpolatingParam id="7141" interp="linr"  time="-9999999/1" value="0" leadInLength="0/1"  />
           <InterpolatingParam id="7142" interp="linr"  time="-9999999/1" value="0" leadInLength="0/1"  />
           <InterpolatingParam id="7143" interp="linr"  time="-9999999/1" value="0" leadInLength="0/1"  />
          </VectorParam>
          <VectorParam id="7144"  name="scale">
           <InterpolatingParam id="7145" interp="linr"  time="-9999999/1" value="0.40624999999905359" leadInLength="0/1"  />
           <InterpolatingParam id="7146" interp="linr"  time="-9999999/1" value="0.2870370370371112" leadInLength="0/1"  />
           <InterpolatingParam id="7147" interp="linr"  time="-9999999/1" value="1" leadInLength="0/1"  />
          </VectorParam>
          <VectorParam id="7148"  name="anchor">
           <InterpolatingParam id="7149" interp="linr"  time="0/1" value="0" leadInLength="0/1"  />
           <InterpolatingParam id="7150" interp="linr"  time="0/1" value="0" leadInLength="0/1"  />
           <InterpolatingParam id="7151" interp="linr"  time="0/1" value="0" leadInLength="0/1"  />
          </VectorParam>
         </Transformer>
         <Parameters>
          <VectorParam id="7152"  name="sourceCrop">
           <InterpolatingParam id="7153" interp="linr"  time="0/1" value="0" leadInLength="0/1"  />
           <InterpolatingParam id="7154" interp="linr"  time="0/1" value="0" leadInLength="0/1"  />
           <InterpolatingParam id="7155" interp="linr"  time="0/1" value="0" leadInLength="0/1"  />
           <InterpolatingParam id="7156" interp="linr"  time="0/1" value="0" leadInLength="0/1"  />
          </VectorParam>
          <VectorParam id="7157"  name="geometryCrop">
           <InterpolatingParam id="7158" interp="linr"  time="-9999999/1" value="0" leadInLength="0/1"  />
           <InterpolatingParam id="7159" interp="linr"  time="-9999999/1" value="0" leadInLength="0/1"  />
           <InterpolatingParam id="7160" interp="linr"  time="-9999999/1" value="0" leadInLength="0/1"  />
           <InterpolatingParam id="7161" interp="linr"  time="-9999999/1" value="0" leadInLength="0/1"  />
          </VectorParam>
          <InterpolatingParam id="7162" interp="linr"  time="-9999999/1" value="1" leadInLength="0/1"  name="opacity"/>
         </Parameters>
         <Effects>
          <GenericEffect id="7163" name = "DropShadow" >
           <Parameters>
           <InterpolatingParam id="7164" interp="linr"  time="0/1" value="315" leadInLength="0/1"   name="angle"/>
           <InterpolatingParam id="7165" interp="linr"  time="0/1" value="2" leadInLength="0/1"   name="blur"/>
           <Parameter id="7166"   name="enabled">
            <Keyframes>
            <Keyframe id="7167"  time="0/1" value="1" leadInLength="0/1"  />
            </Keyframes>
           </Parameter>
           <InterpolatingParam id="7168" interp="linr"  time="0/1" value="4" leadInLength="0/1"   name="offset"/>
           <InterpolatingParam id="7169" interp="linr"  time="0/1" value="1" leadInLength="0/1"   name="opacity"/>
           </Parameters>
          </GenericEffect>
         </Effects>
         <Attributes>
          <Attribute id="7170"  name="vectorNode">
           <VectorNode id="7171" kind="TypeWinSVG"  >
            <DoubleParameters>
             <InterpolatingParam id="7172" interp="linr"  time="0/1" value="1" leadInLength="0/1"  name="DrawTime"/>
             <InterpolatingParam id="7173" interp="linr"  time="0/1" value="59" leadInLength="0/1"  name="borderColorBlue"/>
             <InterpolatingParam id="7174" interp="linr"  time="0/1" value="209" leadInLength="0/1"  name="borderColorGreen"/>
             <InterpolatingParam id="7175" interp="linr"  time="0/1" value="127" leadInLength="0/1"  name="borderColorRed"/>
             <InterpolatingParam id="7176" interp="linr"  time="0/1" value="5" leadInLength="0/1"  name="borderWidth"/>
             <InterpolatingParam id="7177" interp="linr"  time="0/1" value="0" leadInLength="0/1"  name="flipOnXAxis"/>
             <InterpolatingParam id="7178" interp="linr"  time="0/1" value="1" leadInLength="0/1"  name="flipOnYAxis"/>
             <InterpolatingParam id="7179" interp="linr"  time="0/1" value="180" leadInLength="0/1"  name="height"/>
             <InterpolatingParam id="7180" interp="linr"  time="0/1" value="320" leadInLength="0/1"  name="width"/>
            </DoubleParameters>
            <StringParameters>
             <Parameter id="7181"  name="filename">
              <Keyframes>
              <Keyframe id="7182"  time="0/1" value="C:\Program Files (x86)\TechSmith\Camtasia Studio 8\Media\Studio\Callouts\anim_drawnsquare.svg" leadInLength="0/1"  />
              </Keyframes>
             </Parameter>
             <Parameter id="7183"  name="name">
              <Keyframes>
              <Keyframe id="7184"  time="0/1" value="Sketch Motion Rectangle" leadInLength="0/1"  />
              </Keyframes>
             </Parameter>
             <Parameter id="7185"  name="xmlContent">
              <Keyframes>
              <Keyframe id="7186"  time="0/1" value="﻿&lt;?xml version=&quot;1.0&quot; encoding=&quot;utf-8&quot;?&gt;&#xa;&lt;!-- Generator: Adobe Illustrator 13.0.2, SVG Export Plug-In . SVG Version: 6.00 Build 14948)  --&gt;&#xa;&lt;!DOCTYPE svg PUBLIC &quot;-//W3C//DTD SVG 1.1//EN&quot; &quot;http://www.w3.org/Graphics/SVG/1.1/DTD/svg11.dtd&quot;&gt;&#xa;&lt;svg version=&quot;1.1&quot; id=&quot;Layer_1&quot; xmlns=&quot;http://www.w3.org/2000/svg&quot; xmlns:xlink=&quot;http://www.w3.org/1999/xlink&quot; x=&quot;0px&quot; y=&quot;0px&quot;&#xa;&#x9; width=&quot;296.633px&quot; height=&quot;227.883px&quot; viewBox=&quot;0 0 296.633 227.883&quot; enable-background=&quot;new 0 0 296.633 227.883&quot;&#xa;&#x9; xml:space=&quot;preserve&quot;&gt;&#xa;&lt;path fill=&quot;none&quot; d=&quot;M2.662,1.793c8.266,53.25,2.802,171.963,5.305,226.067&quot;/&gt;&#xa;&lt;path fill=&quot;none&quot; d=&quot;M1.031,222.146c67.199-9.078,213.034,6.17,279.931-5.306&quot;/&gt;&#xa;&lt;path fill=&quot;none&quot; d=&quot;M290.581,0.007c-0.5,33.125-2.356,191.708-11.658,223.363&quot;/&gt;&#xa;&lt;path fill=&quot;none&quot; d=&quot;M0.07,10.703C127.409-7.206,237.174,4.794,296.602,8.604&quot;/&gt;&#xa;&lt;/svg&gt;&#xa;" leadInLength="0/1"  />
              </Keyframes>
             </Parameter>
            </StringParameters>
           </VectorNode>
          </Attribute>
         </Attributes>
         <MetaData>
          <entry key="WinSubProjectDisplayName" val=""/>
         </MetaData>
         <LeftEdgeMods length="3/1" groupName="DrawPercentageFade">
          <EdgeMod parameter="7172">
           <FadeInFunc id="6570"  />
          </EdgeMod>
         </LeftEdgeMods>
         <RightEdgeMods length="3/1" groupName="OpacityFade">
          <EdgeMod parameter="7162">
           <FadeOutFunc id="7187"  />
          </EdgeMod>
         </RightEdgeMods>
         <ExtraData>
          <Entry key="ZoomPanBin">
           <ZoomPanBin id="7188"  >
            <ZoomPanKeyframes>
             <ZoomPanKeyframe id="7189" timeRangeEnd="-9999999/1" timeRangeDuration="0/1" interpolaterName="linr"  />
            </ZoomPanKeyframes>
           </ZoomPanBin>
          </Entry>
         </ExtraData>
        </Callout>
       </Medias>
      </GenericTrack>
      <GenericTrack id="7190"  >
       <Attributes>
        <Attribute id="7191" value="" name="ident"/>
        <Attribute id="7192" value="0" name="audioMuted"/>
        <Attribute id="7193" value="0" name="videoHidden"/>
       </Attributes>
       <MetaData>
        <entry key="IsLocked" val="False"/>
        <entry key="WinTrackHeight" val="62"/>
       </MetaData>
       <Medias>
        <Callout id="7194" start="3594" duration="58" scalar="1/1" mediaStart="123/1" mediaDuration="58/1" >
         <Transformer>
          <VectorParam id="7195"  name="translation">
           <InterpolatingParam id="7196" interp="linr"  time="-9999999/1" value="-109.99999999988268" leadInLength="0/1"  />
           <InterpolatingParam id="7197" interp="linr"  time="-9999999/1" value="218.66666666661868" leadInLength="0/1"  />
           <InterpolatingParam id="7198" interp="linr"  time="-9999999/1" value="0" leadInLength="0/1"  />
          </VectorParam>
          <VectorParam id="7199"  name="rotation">
           <InterpolatingParam id="7200" interp="linr"  time="-9999999/1" value="0" leadInLength="0/1"  />
           <InterpolatingParam id="7201" interp="linr"  time="-9999999/1" value="0" leadInLength="0/1"  />
           <InterpolatingParam id="7202" interp="linr"  time="-9999999/1" value="0" leadInLength="0/1"  />
          </VectorParam>
          <VectorParam id="7203"  name="shear">
           <InterpolatingParam id="7204" interp="linr"  time="-9999999/1" value="0" leadInLength="0/1"  />
           <InterpolatingParam id="7205" interp="linr"  time="-9999999/1" value="0" leadInLength="0/1"  />
           <InterpolatingParam id="7206" interp="linr"  time="-9999999/1" value="0" leadInLength="0/1"  />
          </VectorParam>
          <VectorParam id="7207"  name="scale">
           <InterpolatingParam id="7208" interp="linr"  time="-9999999/1" value="0.42083333333372369" leadInLength="0/1"  />
           <InterpolatingParam id="7209" interp="linr"  time="-9999999/1" value="0.27407407407355333" leadInLength="0/1"  />
           <InterpolatingParam id="7210" interp="linr"  time="-9999999/1" value="1" leadInLength="0/1"  />
          </VectorParam>
          <VectorParam id="7211"  name="anchor">
           <InterpolatingParam id="7212" interp="linr"  time="0/1" value="0" leadInLength="0/1"  />
           <InterpolatingParam id="7213" interp="linr"  time="0/1" value="0" leadInLength="0/1"  />
           <InterpolatingParam id="7214" interp="linr"  time="0/1" value="0" leadInLength="0/1"  />
          </VectorParam>
         </Transformer>
         <Parameters>
          <VectorParam id="7215"  name="sourceCrop">
           <InterpolatingParam id="7216" interp="linr"  time="0/1" value="0" leadInLength="0/1"  />
           <InterpolatingParam id="7217" interp="linr"  time="0/1" value="0" leadInLength="0/1"  />
           <InterpolatingParam id="7218" interp="linr"  time="0/1" value="0" leadInLength="0/1"  />
           <InterpolatingParam id="7219" interp="linr"  time="0/1" value="0" leadInLength="0/1"  />
          </VectorParam>
          <VectorParam id="7220"  name="geometryCrop">
           <InterpolatingParam id="7221" interp="linr"  time="-9999999/1" value="0" leadInLength="0/1"  />
           <InterpolatingParam id="7222" interp="linr"  time="-9999999/1" value="0" leadInLength="0/1"  />
           <InterpolatingParam id="7223" interp="linr"  time="-9999999/1" value="0" leadInLength="0/1"  />
           <InterpolatingParam id="7224" interp="linr"  time="-9999999/1" value="0" leadInLength="0/1"  />
          </VectorParam>
          <InterpolatingParam id="7225" interp="linr"  time="-9999999/1" value="1" leadInLength="0/1"  name="opacity"/>
         </Parameters>
         <Effects>
          <GenericEffect id="7226" name = "DropShadow" >
           <Parameters>
           <InterpolatingParam id="7227" interp="linr"  time="0/1" value="315" leadInLength="0/1"   name="angle"/>
           <InterpolatingParam id="7228" interp="linr"  time="0/1" value="2" leadInLength="0/1"   name="blur"/>
           <Parameter id="7229"   name="enabled">
            <Keyframes>
            <Keyframe id="7230"  time="0/1" value="1" leadInLength="0/1"  />
            </Keyframes>
           </Parameter>
           <InterpolatingParam id="7231" interp="linr"  time="0/1" value="4" leadInLength="0/1"   name="offset"/>
           <InterpolatingParam id="7232" interp="linr"  time="0/1" value="1" leadInLength="0/1"   name="opacity"/>
           </Parameters>
          </GenericEffect>
         </Effects>
         <Attributes>
          <Attribute id="7233"  name="vectorNode">
           <VectorNode id="7234" kind="TypeWinSVG"  >
            <DoubleParameters>
             <InterpolatingParam id="7235" interp="linr"  time="0/1" value="1" leadInLength="0/1"  name="DrawTime"/>
             <InterpolatingParam id="7236" interp="linr"  time="0/1" value="198" leadInLength="0/1"  name="borderColorBlue"/>
             <InterpolatingParam id="7237" interp="linr"  time="0/1" value="172" leadInLength="0/1"  name="borderColorGreen"/>
             <InterpolatingParam id="7238" interp="linr"  time="0/1" value="75" leadInLength="0/1"  name="borderColorRed"/>
             <InterpolatingParam id="7239" interp="linr"  time="0/1" value="5" leadInLength="0/1"  name="borderWidth"/>
             <InterpolatingParam id="7240" interp="linr"  time="0/1" value="0" leadInLength="0/1"  name="flipOnXAxis"/>
             <InterpolatingParam id="7241" interp="linr"  time="0/1" value="0" leadInLength="0/1"  name="flipOnYAxis"/>
             <InterpolatingParam id="7242" interp="linr"  time="0/1" value="180" leadInLength="0/1"  name="height"/>
             <InterpolatingParam id="7243" interp="linr"  time="0/1" value="320" leadInLength="0/1"  name="width"/>
            </DoubleParameters>
            <StringParameters>
             <Parameter id="7244"  name="filename">
              <Keyframes>
              <Keyframe id="7245"  time="0/1" value="C:\Program Files (x86)\TechSmith\Camtasia Studio 8\Media\Studio\Callouts\anim_arrow.svg" leadInLength="0/1"  />
              </Keyframes>
             </Parameter>
             <Parameter id="7246"  name="name">
              <Keyframes>
              <Keyframe id="7247"  time="0/1" value="Sketch Motion Arrow" leadInLength="0/1"  />
              </Keyframes>
             </Parameter>
             <Parameter id="7248"  name="xmlContent">
              <Keyframes>
              <Keyframe id="7249"  time="0/1" value="﻿&lt;?xml version=&quot;1.0&quot; encoding=&quot;utf-8&quot;?&gt;&#xa;&lt;!-- Generator: Adobe Illustrator 13.0.2, SVG Export Plug-In . SVG Version: 6.00 Build 14948)  --&gt;&#xa;&lt;!DOCTYPE svg PUBLIC &quot;-//W3C//DTD SVG 1.1//EN&quot; &quot;http://www.w3.org/Graphics/SVG/1.1/DTD/svg11.dtd&quot;&gt;&#xa;&lt;svg version=&quot;1.1&quot; id=&quot;Layer_1&quot; xmlns=&quot;http://www.w3.org/2000/svg&quot; xmlns:xlink=&quot;http://www.w3.org/1999/xlink&quot; x=&quot;0px&quot; y=&quot;0px&quot;&#xa;&#x9; width=&quot;151.268px&quot; height=&quot;53px&quot; viewBox=&quot;0 0 151.268 53&quot; enable-background=&quot;new 0 0 151.268 53&quot; xml:space=&quot;preserve&quot;&gt;&#xa;&lt;path fill=&quot;none&quot; d=&quot;M12.852,24.926c0,0,85.25-8.838,118.688-2.996&quot;/&gt;&#xa;&lt;path fill=&quot;none&quot; d=&quot;M93.169,2.713c0,0,46.52,8.657,49.944,18.729c3.424,10.071-43.753,26.022-43.753,26.022&quot;/&gt;&#xa;&lt;/svg&gt;&#xa;" leadInLength="0/1"  />
              </Keyframes>
             </Parameter>
            </StringParameters>
           </VectorNode>
          </Attribute>
         </Attributes>
         <MetaData>
          <entry key="WinSubProjectDisplayName" val=""/>
         </MetaData>
         <LeftEdgeMods length="23/1" groupName="DrawPercentageFade">
          <EdgeMod parameter="7235">
           <FadeInFunc id="6851"  />
          </EdgeMod>
         </LeftEdgeMods>
         <RightEdgeMods length="3/1" groupName="OpacityFade">
          <EdgeMod parameter="7225">
           <FadeOutFunc id="6850"  />
          </EdgeMod>
         </RightEdgeMods>
         <ExtraData>
          <Entry key="ZoomPanBin">
           <ZoomPanBin id="7250"  >
            <ZoomPanKeyframes>
             <ZoomPanKeyframe id="7251" timeRangeEnd="-9999999/1" timeRangeDuration="0/1" interpolaterName="linr"  />
            </ZoomPanKeyframes>
           </ZoomPanBin>
          </Entry>
         </ExtraData>
        </Callout>
        <Callout id="7252" start="3658" duration="92" scalar="1/1" mediaStart="133/1" mediaDuration="92/1" >
         <Transformer>
          <VectorParam id="7253"  name="translation">
           <InterpolatingParam id="7254" interp="linr"  >
            <Keyframes>
            <Keyframe id="7255"  time="-9999999/1" value="-385.99999999997584" leadInLength="0/1"  />
            <Keyframe id="7256"  time="166/1" value="-265.99999999996351" leadInLength="11/1"  interpolater="leadin-linr"  />
            <Keyframe id="7257"  time="195/1" value="-299.3333333332244" leadInLength="8/1"  interpolater="leadin-linr"  />
            <Keyframe id="7258"  time="219/1" value="-272.66666666665867" leadInLength="17/1"  interpolater="leadin-linr"  />
            </Keyframes>
           </InterpolatingParam>
           <InterpolatingParam id="7259" interp="linr"  >
            <Keyframes>
            <Keyframe id="7260"  time="-9999999/1" value="142.66666666661831" leadInLength="0/1"  />
            <Keyframe id="7261"  time="166/1" value="18.66666666661645" leadInLength="11/1"  interpolater="leadin-linr"  />
            <Keyframe id="7262"  time="195/1" value="-33.333333333394854" leadInLength="8/1"  interpolater="leadin-linr"  />
            <Keyframe id="7263"  time="219/1" value="-106.66666666670645" leadInLength="17/1"  interpolater="leadin-linr"  />
            </Keyframes>
           </InterpolatingParam>
           <InterpolatingParam id="7264" interp="linr"  >
            <Keyframes>
            <Keyframe id="7265"  time="-9999999/1" value="0" leadInLength="0/1"  />
            <Keyframe id="7266"  time="166/1" value="0" leadInLength="11/1"  interpolater="leadin-linr"  />
            <Keyframe id="7267"  time="195/1" value="0" leadInLength="8/1"  interpolater="leadin-linr"  />
            <Keyframe id="7268"  time="219/1" value="0" leadInLength="17/1"  interpolater="leadin-linr"  />
            </Keyframes>
           </InterpolatingParam>
          </VectorParam>
          <VectorParam id="7269"  name="rotation">
           <InterpolatingParam id="7270" interp="linr"  >
            <Keyframes>
            <Keyframe id="7271"  time="-9999999/1" value="0" leadInLength="0/1"  />
            <Keyframe id="7272"  time="166/1" value="0" leadInLength="11/1"  interpolater="leadin-linr"  />
            <Keyframe id="7273"  time="195/1" value="0" leadInLength="8/1"  interpolater="leadin-linr"  />
            <Keyframe id="7274"  time="219/1" value="0" leadInLength="17/1"  interpolater="leadin-linr"  />
            </Keyframes>
           </InterpolatingParam>
           <InterpolatingParam id="7275" interp="linr"  >
            <Keyframes>
            <Keyframe id="7276"  time="-9999999/1" value="0" leadInLength="0/1"  />
            <Keyframe id="7277"  time="166/1" value="0" leadInLength="11/1"  interpolater="leadin-linr"  />
            <Keyframe id="7278"  time="195/1" value="0" leadInLength="8/1"  interpolater="leadin-linr"  />
            <Keyframe id="7279"  time="219/1" value="0" leadInLength="17/1"  interpolater="leadin-linr"  />
            </Keyframes>
           </InterpolatingParam>
           <InterpolatingParam id="7280" interp="linr"  >
            <Keyframes>
            <Keyframe id="7281"  time="-9999999/1" value="0" leadInLength="0/1"  />
            <Keyframe id="7282"  time="166/1" value="0" leadInLength="11/1"  interpolater="leadin-linr"  />
            <Keyframe id="7283"  time="195/1" value="0" leadInLength="8/1"  interpolater="leadin-linr"  />
            <Keyframe id="7284"  time="219/1" value="0" leadInLength="17/1"  interpolater="leadin-linr"  />
            </Keyframes>
           </InterpolatingParam>
          </VectorParam>
          <VectorParam id="7285"  name="shear">
           <InterpolatingParam id="7286" interp="linr"  >
            <Keyframes>
            <Keyframe id="7287"  time="-9999999/1" value="0" leadInLength="0/1"  />
            <Keyframe id="7288"  time="166/1" value="0" leadInLength="11/1"  interpolater="leadin-linr"  />
            <Keyframe id="7289"  time="195/1" value="0" leadInLength="8/1"  interpolater="leadin-linr"  />
            <Keyframe id="7290"  time="219/1" value="0" leadInLength="17/1"  interpolater="leadin-linr"  />
            </Keyframes>
           </InterpolatingParam>
           <InterpolatingParam id="7291" interp="linr"  >
            <Keyframes>
            <Keyframe id="7292"  time="-9999999/1" value="0" leadInLength="0/1"  />
            <Keyframe id="7293"  time="166/1" value="0" leadInLength="11/1"  interpolater="leadin-linr"  />
            <Keyframe id="7294"  time="195/1" value="0" leadInLength="8/1"  interpolater="leadin-linr"  />
            <Keyframe id="7295"  time="219/1" value="0" leadInLength="17/1"  interpolater="leadin-linr"  />
            </Keyframes>
           </InterpolatingParam>
           <InterpolatingParam id="7296" interp="linr"  >
            <Keyframes>
            <Keyframe id="7297"  time="-9999999/1" value="0" leadInLength="0/1"  />
            <Keyframe id="7298"  time="166/1" value="0" leadInLength="11/1"  interpolater="leadin-linr"  />
            <Keyframe id="7299"  time="195/1" value="0" leadInLength="8/1"  interpolater="leadin-linr"  />
            <Keyframe id="7300"  time="219/1" value="0" leadInLength="17/1"  interpolater="leadin-linr"  />
            </Keyframes>
           </InterpolatingParam>
          </VectorParam>
          <VectorParam id="7301"  name="scale">
           <InterpolatingParam id="7302" interp="linr"  >
            <Keyframes>
            <Keyframe id="7303"  time="-9999999/1" value="0.42083333333372369" leadInLength="0/1"  />
            <Keyframe id="7304"  time="166/1" value="0.42083333333372369" leadInLength="11/1"  interpolater="leadin-linr"  />
            <Keyframe id="7305"  time="195/1" value="0.42083333333372369" leadInLength="8/1"  interpolater="leadin-linr"  />
            <Keyframe id="7306"  time="219/1" value="0.42083333333372369" leadInLength="17/1"  interpolater="leadin-linr"  />
            </Keyframes>
           </InterpolatingParam>
           <InterpolatingParam id="7307" interp="linr"  >
            <Keyframes>
            <Keyframe id="7308"  time="-9999999/1" value="0.27407407407355333" leadInLength="0/1"  />
            <Keyframe id="7309"  time="166/1" value="0.27407407407355333" leadInLength="11/1"  interpolater="leadin-linr"  />
            <Keyframe id="7310"  time="195/1" value="0.27407407407355333" leadInLength="8/1"  interpolater="leadin-linr"  />
            <Keyframe id="7311"  time="219/1" value="0.27407407407355333" leadInLength="17/1"  interpolater="leadin-linr"  />
            </Keyframes>
           </InterpolatingParam>
           <InterpolatingParam id="7312" interp="linr"  >
            <Keyframes>
            <Keyframe id="7313"  time="-9999999/1" value="1" leadInLength="0/1"  />
            <Keyframe id="7314"  time="166/1" value="1" leadInLength="11/1"  interpolater="leadin-linr"  />
            <Keyframe id="7315"  time="195/1" value="1" leadInLength="8/1"  interpolater="leadin-linr"  />
            <Keyframe id="7316"  time="219/1" value="1" leadInLength="17/1"  interpolater="leadin-linr"  />
            </Keyframes>
           </InterpolatingParam>
          </VectorParam>
          <VectorParam id="7317"  name="anchor">
           <InterpolatingParam id="7318" interp="linr"  time="0/1" value="0" leadInLength="0/1"  />
           <InterpolatingParam id="7319" interp="linr"  time="0/1" value="0" leadInLength="0/1"  />
           <InterpolatingParam id="7320" interp="linr"  time="0/1" value="0" leadInLength="0/1"  />
          </VectorParam>
         </Transformer>
         <Parameters>
          <VectorParam id="7321"  name="sourceCrop">
           <InterpolatingParam id="7322" interp="linr"  time="0/1" value="0" leadInLength="0/1"  />
           <InterpolatingParam id="7323" interp="linr"  time="0/1" value="0" leadInLength="0/1"  />
           <InterpolatingParam id="7324" interp="linr"  time="0/1" value="0" leadInLength="0/1"  />
           <InterpolatingParam id="7325" interp="linr"  time="0/1" value="0" leadInLength="0/1"  />
          </VectorParam>
          <VectorParam id="7326"  name="geometryCrop">
           <InterpolatingParam id="7327" interp="linr"  >
            <Keyframes>
            <Keyframe id="7328"  time="-9999999/1" value="0" leadInLength="0/1"  />
            <Keyframe id="7329"  time="166/1" value="0" leadInLength="11/1"  interpolater="leadin-linr"  />
            <Keyframe id="7330"  time="195/1" value="0" leadInLength="8/1"  interpolater="leadin-linr"  />
            <Keyframe id="7331"  time="219/1" value="0" leadInLength="17/1"  interpolater="leadin-linr"  />
            </Keyframes>
           </InterpolatingParam>
           <InterpolatingParam id="7332" interp="linr"  >
            <Keyframes>
            <Keyframe id="7333"  time="-9999999/1" value="0" leadInLength="0/1"  />
            <Keyframe id="7334"  time="166/1" value="0" leadInLength="11/1"  interpolater="leadin-linr"  />
            <Keyframe id="7335"  time="195/1" value="0" leadInLength="8/1"  interpolater="leadin-linr"  />
            <Keyframe id="7336"  time="219/1" value="0" leadInLength="17/1"  interpolater="leadin-linr"  />
            </Keyframes>
           </InterpolatingParam>
           <InterpolatingParam id="7337" interp="linr"  >
            <Keyframes>
            <Keyframe id="7338"  time="-9999999/1" value="0" leadInLength="0/1"  />
            <Keyframe id="7339"  time="166/1" value="0" leadInLength="11/1"  interpolater="leadin-linr"  />
            <Keyframe id="7340"  time="195/1" value="0" leadInLength="8/1"  interpolater="leadin-linr"  />
            <Keyframe id="7341"  time="219/1" value="0" leadInLength="17/1"  interpolater="leadin-linr"  />
            </Keyframes>
           </InterpolatingParam>
           <InterpolatingParam id="7342" interp="linr"  >
            <Keyframes>
            <Keyframe id="7343"  time="-9999999/1" value="0" leadInLength="0/1"  />
            <Keyframe id="7344"  time="166/1" value="0" leadInLength="11/1"  interpolater="leadin-linr"  />
            <Keyframe id="7345"  time="195/1" value="0" leadInLength="8/1"  interpolater="leadin-linr"  />
            <Keyframe id="7346"  time="219/1" value="0" leadInLength="17/1"  interpolater="leadin-linr"  />
            </Keyframes>
           </InterpolatingParam>
          </VectorParam>
          <InterpolatingParam id="7347" interp="linr"  name="opacity">
           <Keyframes>
           <Keyframe id="7348"  time="-9999999/1" value="1" leadInLength="0/1"  />
           <Keyframe id="7349"  time="166/1" value="1" leadInLength="11/1"  interpolater="leadin-linr"  />
           <Keyframe id="7350"  time="195/1" value="1" leadInLength="8/1"  interpolater="leadin-linr"  />
           <Keyframe id="7351"  time="219/1" value="1" leadInLength="17/1"  interpolater="leadin-linr"  />
           </Keyframes>
          </InterpolatingParam>
         </Parameters>
         <Effects>
          <GenericEffect id="7352" name = "DropShadow" >
           <Parameters>
           <InterpolatingParam id="7353" interp="linr"  time="0/1" value="315" leadInLength="0/1"   name="angle"/>
           <InterpolatingParam id="7354" interp="linr"  time="0/1" value="2" leadInLength="0/1"   name="blur"/>
           <Parameter id="7355"   name="enabled">
            <Keyframes>
            <Keyframe id="7356"  time="0/1" value="1" leadInLength="0/1"  />
            </Keyframes>
           </Parameter>
           <InterpolatingParam id="7357" interp="linr"  time="0/1" value="4" leadInLength="0/1"   name="offset"/>
           <InterpolatingParam id="7358" interp="linr"  time="0/1" value="1" leadInLength="0/1"   name="opacity"/>
           </Parameters>
          </GenericEffect>
         </Effects>
         <Attributes>
          <Attribute id="7359"  name="vectorNode">
           <VectorNode id="7360" kind="TypeWinSVG"  >
            <DoubleParameters>
             <InterpolatingParam id="7361" interp="linr"  time="0/1" value="1" leadInLength="0/1"  name="DrawTime"/>
             <InterpolatingParam id="7362" interp="linr"  time="0/1" value="0" leadInLength="0/1"  name="borderColorBlue"/>
             <InterpolatingParam id="7363" interp="linr"  time="0/1" value="0" leadInLength="0/1"  name="borderColorGreen"/>
             <InterpolatingParam id="7364" interp="linr"  time="0/1" value="255" leadInLength="0/1"  name="borderColorRed"/>
             <InterpolatingParam id="7365" interp="linr"  time="0/1" value="5" leadInLength="0/1"  name="borderWidth"/>
             <InterpolatingParam id="7366" interp="linr"  time="0/1" value="1" leadInLength="0/1"  name="flipOnXAxis"/>
             <InterpolatingParam id="7367" interp="linr"  time="0/1" value="0" leadInLength="0/1"  name="flipOnYAxis"/>
             <InterpolatingParam id="7368" interp="linr"  time="0/1" value="180" leadInLength="0/1"  name="height"/>
             <InterpolatingParam id="7369" interp="linr"  time="0/1" value="320" leadInLength="0/1"  name="width"/>
            </DoubleParameters>
            <StringParameters>
             <Parameter id="7370"  name="filename">
              <Keyframes>
              <Keyframe id="7371"  time="0/1" value="C:\Program Files (x86)\TechSmith\Camtasia Studio 8\Media\Studio\Callouts\anim_arrow.svg" leadInLength="0/1"  />
              </Keyframes>
             </Parameter>
             <Parameter id="7372"  name="name">
              <Keyframes>
              <Keyframe id="7373"  time="0/1" value="Sketch Motion Arrow" leadInLength="0/1"  />
              </Keyframes>
             </Parameter>
             <Parameter id="7374"  name="xmlContent">
              <Keyframes>
              <Keyframe id="7375"  time="0/1" value="﻿&lt;?xml version=&quot;1.0&quot; encoding=&quot;utf-8&quot;?&gt;&#xa;&lt;!-- Generator: Adobe Illustrator 13.0.2, SVG Export Plug-In . SVG Version: 6.00 Build 14948)  --&gt;&#xa;&lt;!DOCTYPE svg PUBLIC &quot;-//W3C//DTD SVG 1.1//EN&quot; &quot;http://www.w3.org/Graphics/SVG/1.1/DTD/svg11.dtd&quot;&gt;&#xa;&lt;svg version=&quot;1.1&quot; id=&quot;Layer_1&quot; xmlns=&quot;http://www.w3.org/2000/svg&quot; xmlns:xlink=&quot;http://www.w3.org/1999/xlink&quot; x=&quot;0px&quot; y=&quot;0px&quot;&#xa;&#x9; width=&quot;151.268px&quot; height=&quot;53px&quot; viewBox=&quot;0 0 151.268 53&quot; enable-background=&quot;new 0 0 151.268 53&quot; xml:space=&quot;preserve&quot;&gt;&#xa;&lt;path fill=&quot;none&quot; d=&quot;M12.852,24.926c0,0,85.25-8.838,118.688-2.996&quot;/&gt;&#xa;&lt;path fill=&quot;none&quot; d=&quot;M93.169,2.713c0,0,46.52,8.657,49.944,18.729c3.424,10.071-43.753,26.022-43.753,26.022&quot;/&gt;&#xa;&lt;/svg&gt;&#xa;" leadInLength="0/1"  />
              </Keyframes>
             </Parameter>
            </StringParameters>
           </VectorNode>
          </Attribute>
         </Attributes>
         <MetaData>
          <entry key="WinSubProjectDisplayName" val=""/>
         </MetaData>
         <LeftEdgeMods length="3/1" groupName="DrawPercentageFade">
          <EdgeMod parameter="7361">
           <FadeInFunc id="7376"  />
          </EdgeMod>
         </LeftEdgeMods>
         <RightEdgeMods length="3/1" groupName="OpacityFade">
          <EdgeMod parameter="7347">
           <FadeOutFunc id="6851"  />
          </EdgeMod>
         </RightEdgeMods>
         <ExtraData>
          <Entry key="ZoomPanBin">
           <ZoomPanBin id="7377"  >
            <ZoomPanKeyframes>
             <ZoomPanKeyframe id="7378" timeRangeEnd="-9999999/1" timeRangeDuration="0/1" interpolaterName="linr"  />
             <ZoomPanKeyframe id="7379" timeRangeEnd="166/1" timeRangeDuration="11/1" interpolaterName="linr"  />
             <ZoomPanKeyframe id="7380" timeRangeEnd="195/1" timeRangeDuration="8/1" interpolaterName="linr"  />
             <ZoomPanKeyframe id="7381" timeRangeEnd="219/1" timeRangeDuration="17/1" interpolaterName="linr"  />
            </ZoomPanKeyframes>
           </ZoomPanBin>
          </Entry>
         </ExtraData>
        </Callout>
        <Callout id="7382" start="7454" duration="88" scalar="1/1" mediaStart="0/1" mediaDuration="88/1" >
         <Transformer>
          <VectorParam id="7383"  name="translation">
           <InterpolatingParam id="7384" interp="linr"  time="-9999999/1" value="-257.5824175825374" leadInLength="0/1"  />
           <InterpolatingParam id="7385" interp="linr"  time="-9999999/1" value="154.9450549451291" leadInLength="0/1"  />
           <InterpolatingParam id="7386" interp="linr"  time="-9999999/1" value="0" leadInLength="0/1"  />
          </VectorParam>
          <VectorParam id="7387"  name="rotation">
           <InterpolatingParam id="7388" interp="linr"  time="-9999999/1" value="0" leadInLength="0/1"  />
           <InterpolatingParam id="7389" interp="linr"  time="-9999999/1" value="0" leadInLength="0/1"  />
           <InterpolatingParam id="7390" interp="linr"  time="-9999999/1" value="0" leadInLength="0/1"  />
          </VectorParam>
          <VectorParam id="7391"  name="shear">
           <InterpolatingParam id="7392" interp="linr"  time="-9999999/1" value="0" leadInLength="0/1"  />
           <InterpolatingParam id="7393" interp="linr"  time="-9999999/1" value="0" leadInLength="0/1"  />
           <InterpolatingParam id="7394" interp="linr"  time="-9999999/1" value="0" leadInLength="0/1"  />
          </VectorParam>
          <VectorParam id="7395"  name="scale">
           <InterpolatingParam id="7396" interp="linr"  time="-9999999/1" value="0.43131868131852463" leadInLength="0/1"  />
           <InterpolatingParam id="7397" interp="linr"  time="-9999999/1" value="0.34798534798515268" leadInLength="0/1"  />
           <InterpolatingParam id="7398" interp="linr"  time="-9999999/1" value="1" leadInLength="0/1"  />
          </VectorParam>
          <VectorParam id="7399"  name="anchor">
           <InterpolatingParam id="7400" interp="linr"  time="0/1" value="0" leadInLength="0/1"  />
           <InterpolatingParam id="7401" interp="linr"  time="0/1" value="0" leadInLength="0/1"  />
           <InterpolatingParam id="7402" interp="linr"  time="0/1" value="0" leadInLength="0/1"  />
          </VectorParam>
         </Transformer>
         <Parameters>
          <VectorParam id="7403"  name="sourceCrop">
           <InterpolatingParam id="7404" interp="linr"  time="0/1" value="0" leadInLength="0/1"  />
           <InterpolatingParam id="7405" interp="linr"  time="0/1" value="0" leadInLength="0/1"  />
           <InterpolatingParam id="7406" interp="linr"  time="0/1" value="0" leadInLength="0/1"  />
           <InterpolatingParam id="7407" interp="linr"  time="0/1" value="0" leadInLength="0/1"  />
          </VectorParam>
          <VectorParam id="7408"  name="geometryCrop">
           <InterpolatingParam id="7409" interp="linr"  time="-9999999/1" value="0" leadInLength="0/1"  />
           <InterpolatingParam id="7410" interp="linr"  time="-9999999/1" value="0" leadInLength="0/1"  />
           <InterpolatingParam id="7411" interp="linr"  time="-9999999/1" value="0" leadInLength="0/1"  />
           <InterpolatingParam id="7412" interp="linr"  time="-9999999/1" value="0" leadInLength="0/1"  />
          </VectorParam>
          <InterpolatingParam id="7413" interp="linr"  time="-9999999/1" value="1" leadInLength="0/1"  name="opacity"/>
         </Parameters>
         <Effects>
          <GenericEffect id="7414" name = "DropShadow" >
           <Parameters>
           <InterpolatingParam id="7415" interp="linr"  time="0/1" value="315" leadInLength="0/1"   name="angle"/>
           <InterpolatingParam id="7416" interp="linr"  time="0/1" value="2" leadInLength="0/1"   name="blur"/>
           <Parameter id="7417"   name="enabled">
            <Keyframes>
            <Keyframe id="7418"  time="0/1" value="1" leadInLength="0/1"  />
            </Keyframes>
           </Parameter>
           <InterpolatingParam id="7419" interp="linr"  time="0/1" value="4" leadInLength="0/1"   name="offset"/>
           <InterpolatingParam id="7420" interp="linr"  time="0/1" value="1" leadInLength="0/1"   name="opacity"/>
           </Parameters>
          </GenericEffect>
         </Effects>
         <Attributes>
          <Attribute id="7421"  name="vectorNode">
           <VectorNode id="7422" kind="TypeWinSVG"  >
            <DoubleParameters>
             <InterpolatingParam id="7423" interp="linr"  time="0/1" value="1" leadInLength="0/1"  name="DrawTime"/>
             <InterpolatingParam id="7424" interp="linr"  time="0/1" value="0" leadInLength="0/1"  name="borderColorBlue"/>
             <InterpolatingParam id="7425" interp="linr"  time="0/1" value="0" leadInLength="0/1"  name="borderColorGreen"/>
             <InterpolatingParam id="7426" interp="linr"  time="0/1" value="255" leadInLength="0/1"  name="borderColorRed"/>
             <InterpolatingParam id="7427" interp="linr"  time="0/1" value="5" leadInLength="0/1"  name="borderWidth"/>
             <InterpolatingParam id="7428" interp="linr"  time="0/1" value="1" leadInLength="0/1"  name="flipOnXAxis"/>
             <InterpolatingParam id="7429" interp="linr"  time="0/1" value="0" leadInLength="0/1"  name="flipOnYAxis"/>
             <InterpolatingParam id="7430" interp="linr"  time="0/1" value="180" leadInLength="0/1"  name="height"/>
             <InterpolatingParam id="7431" interp="linr"  time="0/1" value="320" leadInLength="0/1"  name="width"/>
            </DoubleParameters>
            <StringParameters>
             <Parameter id="7432"  name="filename">
              <Keyframes>
              <Keyframe id="7433"  time="0/1" value="C:\Program Files (x86)\TechSmith\Camtasia Studio 8\Media\Studio\Callouts\anim_arrow.svg" leadInLength="0/1"  />
              </Keyframes>
             </Parameter>
             <Parameter id="7434"  name="name">
              <Keyframes>
              <Keyframe id="7435"  time="0/1" value="Sketch Motion Arrow" leadInLength="0/1"  />
              </Keyframes>
             </Parameter>
             <Parameter id="7436"  name="xmlContent">
              <Keyframes>
              <Keyframe id="7437"  time="0/1" value="﻿&lt;?xml version=&quot;1.0&quot; encoding=&quot;utf-8&quot;?&gt;&#xa;&lt;!-- Generator: Adobe Illustrator 13.0.2, SVG Export Plug-In . SVG Version: 6.00 Build 14948)  --&gt;&#xa;&lt;!DOCTYPE svg PUBLIC &quot;-//W3C//DTD SVG 1.1//EN&quot; &quot;http://www.w3.org/Graphics/SVG/1.1/DTD/svg11.dtd&quot;&gt;&#xa;&lt;svg version=&quot;1.1&quot; id=&quot;Layer_1&quot; xmlns=&quot;http://www.w3.org/2000/svg&quot; xmlns:xlink=&quot;http://www.w3.org/1999/xlink&quot; x=&quot;0px&quot; y=&quot;0px&quot;&#xa;&#x9; width=&quot;151.268px&quot; height=&quot;53px&quot; viewBox=&quot;0 0 151.268 53&quot; enable-background=&quot;new 0 0 151.268 53&quot; xml:space=&quot;preserve&quot;&gt;&#xa;&lt;path fill=&quot;none&quot; d=&quot;M12.852,24.926c0,0,85.25-8.838,118.688-2.996&quot;/&gt;&#xa;&lt;path fill=&quot;none&quot; d=&quot;M93.169,2.713c0,0,46.52,8.657,49.944,18.729c3.424,10.071-43.753,26.022-43.753,26.022&quot;/&gt;&#xa;&lt;/svg&gt;&#xa;" leadInLength="0/1"  />
              </Keyframes>
             </Parameter>
            </StringParameters>
           </VectorNode>
          </Attribute>
         </Attributes>
         <MetaData>
          <entry key="WinSubProjectDisplayName" val=""/>
         </MetaData>
         <LeftEdgeMods length="30/1" groupName="DrawPercentageFade">
          <EdgeMod parameter="7423">
           <FadeInFunc id="7438"  />
          </EdgeMod>
         </LeftEdgeMods>
         <RightEdgeMods length="30/1" groupName="OpacityFade">
          <EdgeMod parameter="7413">
           <FadeOutFunc id="6978"  />
          </EdgeMod>
         </RightEdgeMods>
         <ExtraData>
          <Entry key="ZoomPanBin">
           <ZoomPanBin id="7439"  >
            <ZoomPanKeyframes>
             <ZoomPanKeyframe id="7440" timeRangeEnd="-9999999/1" timeRangeDuration="0/1" interpolaterName="linr"  />
            </ZoomPanKeyframes>
           </ZoomPanBin>
          </Entry>
         </ExtraData>
        </Callout>
        <Callout id="7441" start="7594" duration="36" scalar="1/1" mediaStart="151/1" mediaDuration="36/1" >
         <Transformer>
          <VectorParam id="7442"  name="translation">
           <InterpolatingParam id="7443" interp="linr"  >
            <Keyframes>
            <Keyframe id="7444"  time="-9999999/1" value="332.96703296698189" leadInLength="0/1"  />
            <Keyframe id="7445"  time="167/1" value="329.01098901094599" leadInLength="1/1"  interpolater="leadin-linr"  />
            <Keyframe id="7446"  time="175/1" value="329.01098901094599" leadInLength="8/1"  interpolater="leadin-linr"  />
            <Keyframe id="7447"  time="185/1" value="324.01098901095833" leadInLength="1/1"  interpolater="leadin-linr"  />
            <Keyframe id="7448"  time="187/1" value="324.01098901095833" leadInLength="2/1"  interpolater="leadin-linr"  />
            </Keyframes>
           </InterpolatingParam>
           <InterpolatingParam id="7449" interp="linr"  >
            <Keyframes>
            <Keyframe id="7450"  time="-9999999/1" value="72.857142857253962" leadInLength="0/1"  />
            <Keyframe id="7451"  time="167/1" value="157.2527472528904" leadInLength="1/1"  interpolater="leadin-linr"  />
            <Keyframe id="7452"  time="175/1" value="231.09890109908912" leadInLength="8/1"  interpolater="leadin-linr"  />
            <Keyframe id="7453"  time="185/1" value="276.09890109902494" leadInLength="1/1"  interpolater="leadin-linr"  />
            <Keyframe id="7454"  time="187/1" value="324.4322344324213" leadInLength="2/1"  interpolater="leadin-linr"  />
            </Keyframes>
           </InterpolatingParam>
           <InterpolatingParam id="7455" interp="linr"  >
            <Keyframes>
            <Keyframe id="7456"  time="-9999999/1" value="-3.4106051316482875e-010" leadInLength="0/1"  />
            <Keyframe id="7457"  time="167/1" value="-3.4106051316482875e-010" leadInLength="1/1"  interpolater="leadin-linr"  />
            <Keyframe id="7458"  time="175/1" value="-3.4106051316482875e-010" leadInLength="8/1"  interpolater="leadin-linr"  />
            <Keyframe id="7459"  time="185/1" value="-3.410605131648287e-010" leadInLength="1/1"  interpolater="leadin-linr"  />
            <Keyframe id="7460"  time="187/1" value="-3.410605131648287e-010" leadInLength="2/1"  interpolater="leadin-linr"  />
            </Keyframes>
           </InterpolatingParam>
          </VectorParam>
          <VectorParam id="7461"  name="rotation">
           <InterpolatingParam id="7462" interp="linr"  >
            <Keyframes>
            <Keyframe id="7463"  time="-9999999/1" value="0" leadInLength="0/1"  />
            <Keyframe id="7464"  time="167/1" value="0" leadInLength="1/1"  interpolater="leadin-linr"  />
            <Keyframe id="7465"  time="175/1" value="0" leadInLength="8/1"  interpolater="leadin-linr"  />
            <Keyframe id="7466"  time="185/1" value="0" leadInLength="1/1"  interpolater="leadin-linr"  />
            <Keyframe id="7467"  time="187/1" value="0" leadInLength="2/1"  interpolater="leadin-linr"  />
            </Keyframes>
           </InterpolatingParam>
           <InterpolatingParam id="7468" interp="linr"  >
            <Keyframes>
            <Keyframe id="7469"  time="-9999999/1" value="0" leadInLength="0/1"  />
            <Keyframe id="7470"  time="167/1" value="0" leadInLength="1/1"  interpolater="leadin-linr"  />
            <Keyframe id="7471"  time="175/1" value="0" leadInLength="8/1"  interpolater="leadin-linr"  />
            <Keyframe id="7472"  time="185/1" value="0" leadInLength="1/1"  interpolater="leadin-linr"  />
            <Keyframe id="7473"  time="187/1" value="0" leadInLength="2/1"  interpolater="leadin-linr"  />
            </Keyframes>
           </InterpolatingParam>
           <InterpolatingParam id="7474" interp="linr"  >
            <Keyframes>
            <Keyframe id="7475"  time="-9999999/1" value="0" leadInLength="0/1"  />
            <Keyframe id="7476"  time="167/1" value="0" leadInLength="1/1"  interpolater="leadin-linr"  />
            <Keyframe id="7477"  time="175/1" value="0" leadInLength="8/1"  interpolater="leadin-linr"  />
            <Keyframe id="7478"  time="185/1" value="0" leadInLength="1/1"  interpolater="leadin-linr"  />
            <Keyframe id="7479"  time="187/1" value="0" leadInLength="2/1"  interpolater="leadin-linr"  />
            </Keyframes>
           </InterpolatingParam>
          </VectorParam>
          <VectorParam id="7480"  name="shear">
           <InterpolatingParam id="7481" interp="linr"  >
            <Keyframes>
            <Keyframe id="7482"  time="-9999999/1" value="0" leadInLength="0/1"  />
            <Keyframe id="7483"  time="167/1" value="0" leadInLength="1/1"  interpolater="leadin-linr"  />
            <Keyframe id="7484"  time="175/1" value="0" leadInLength="8/1"  interpolater="leadin-linr"  />
            <Keyframe id="7485"  time="185/1" value="0" leadInLength="1/1"  interpolater="leadin-linr"  />
            <Keyframe id="7486"  time="187/1" value="0" leadInLength="2/1"  interpolater="leadin-linr"  />
            </Keyframes>
           </InterpolatingParam>
           <InterpolatingParam id="7487" interp="linr"  >
            <Keyframes>
            <Keyframe id="7488"  time="-9999999/1" value="0" leadInLength="0/1"  />
            <Keyframe id="7489"  time="167/1" value="0" leadInLength="1/1"  interpolater="leadin-linr"  />
            <Keyframe id="7490"  time="175/1" value="0" leadInLength="8/1"  interpolater="leadin-linr"  />
            <Keyframe id="7491"  time="185/1" value="0" leadInLength="1/1"  interpolater="leadin-linr"  />
            <Keyframe id="7492"  time="187/1" value="0" leadInLength="2/1"  interpolater="leadin-linr"  />
            </Keyframes>
           </InterpolatingParam>
           <InterpolatingParam id="7493" interp="linr"  >
            <Keyframes>
            <Keyframe id="7494"  time="-9999999/1" value="0" leadInLength="0/1"  />
            <Keyframe id="7495"  time="167/1" value="0" leadInLength="1/1"  interpolater="leadin-linr"  />
            <Keyframe id="7496"  time="175/1" value="0" leadInLength="8/1"  interpolater="leadin-linr"  />
            <Keyframe id="7497"  time="185/1" value="0" leadInLength="1/1"  interpolater="leadin-linr"  />
            <Keyframe id="7498"  time="187/1" value="0" leadInLength="2/1"  interpolater="leadin-linr"  />
            </Keyframes>
           </InterpolatingParam>
          </VectorParam>
          <VectorParam id="7499"  name="scale">
           <InterpolatingParam id="7500" interp="linr"  >
            <Keyframes>
            <Keyframe id="7501"  time="-9999999/1" value="0.49313186813171711" leadInLength="0/1"  />
            <Keyframe id="7502"  time="167/1" value="0.49313186813171711" leadInLength="1/1"  interpolater="leadin-linr"  />
            <Keyframe id="7503"  time="175/1" value="0.49313186813171711" leadInLength="8/1"  interpolater="leadin-linr"  />
            <Keyframe id="7504"  time="185/1" value="0.49313186813171711" leadInLength="1/1"  interpolater="leadin-linr"  />
            <Keyframe id="7505"  time="187/1" value="0.49313186813171711" leadInLength="2/1"  interpolater="leadin-linr"  />
            </Keyframes>
           </InterpolatingParam>
           <InterpolatingParam id="7506" interp="linr"  >
            <Keyframes>
            <Keyframe id="7507"  time="-9999999/1" value="0.42124542124491582" leadInLength="0/1"  />
            <Keyframe id="7508"  time="167/1" value="0.42124542124491582" leadInLength="1/1"  interpolater="leadin-linr"  />
            <Keyframe id="7509"  time="175/1" value="0.42124542124491582" leadInLength="8/1"  interpolater="leadin-linr"  />
            <Keyframe id="7510"  time="185/1" value="0.42124542124542891" leadInLength="1/1"  interpolater="leadin-linr"  />
            <Keyframe id="7511"  time="187/1" value="0.42124542124477293" leadInLength="2/1"  interpolater="leadin-linr"  />
            </Keyframes>
           </InterpolatingParam>
           <InterpolatingParam id="7512" interp="linr"  >
            <Keyframes>
            <Keyframe id="7513"  time="-9999999/1" value="1" leadInLength="0/1"  />
            <Keyframe id="7514"  time="167/1" value="1" leadInLength="1/1"  interpolater="leadin-linr"  />
            <Keyframe id="7515"  time="175/1" value="1" leadInLength="8/1"  interpolater="leadin-linr"  />
            <Keyframe id="7516"  time="185/1" value="1" leadInLength="1/1"  interpolater="leadin-linr"  />
            <Keyframe id="7517"  time="187/1" value="1" leadInLength="2/1"  interpolater="leadin-linr"  />
            </Keyframes>
           </InterpolatingParam>
          </VectorParam>
          <VectorParam id="7518"  name="anchor">
           <InterpolatingParam id="7519" interp="linr"  time="0/1" value="0" leadInLength="0/1"  />
           <InterpolatingParam id="7520" interp="linr"  time="0/1" value="0" leadInLength="0/1"  />
           <InterpolatingParam id="7521" interp="linr"  time="0/1" value="0" leadInLength="0/1"  />
          </VectorParam>
         </Transformer>
         <Parameters>
          <VectorParam id="7522"  name="sourceCrop">
           <InterpolatingParam id="7523" interp="linr"  time="0/1" value="0" leadInLength="0/1"  />
           <InterpolatingParam id="7524" interp="linr"  time="0/1" value="0" leadInLength="0/1"  />
           <InterpolatingParam id="7525" interp="linr"  time="0/1" value="0" leadInLength="0/1"  />
           <InterpolatingParam id="7526" interp="linr"  time="0/1" value="0" leadInLength="0/1"  />
          </VectorParam>
          <VectorParam id="7527"  name="geometryCrop">
           <InterpolatingParam id="7528" interp="linr"  >
            <Keyframes>
            <Keyframe id="7529"  time="-9999999/1" value="0" leadInLength="0/1"  />
            <Keyframe id="7530"  time="167/1" value="0" leadInLength="1/1"  interpolater="leadin-linr"  />
            <Keyframe id="7531"  time="175/1" value="0" leadInLength="8/1"  interpolater="leadin-linr"  />
            <Keyframe id="7532"  time="185/1" value="0" leadInLength="1/1"  interpolater="leadin-linr"  />
            <Keyframe id="7533"  time="187/1" value="0" leadInLength="2/1"  interpolater="leadin-linr"  />
            </Keyframes>
           </InterpolatingParam>
           <InterpolatingParam id="7534" interp="linr"  >
            <Keyframes>
            <Keyframe id="7535"  time="-9999999/1" value="0" leadInLength="0/1"  />
            <Keyframe id="7536"  time="167/1" value="0" leadInLength="1/1"  interpolater="leadin-linr"  />
            <Keyframe id="7537"  time="175/1" value="0" leadInLength="8/1"  interpolater="leadin-linr"  />
            <Keyframe id="7538"  time="185/1" value="0" leadInLength="1/1"  interpolater="leadin-linr"  />
            <Keyframe id="7539"  time="187/1" value="0" leadInLength="2/1"  interpolater="leadin-linr"  />
            </Keyframes>
           </InterpolatingParam>
           <InterpolatingParam id="7540" interp="linr"  >
            <Keyframes>
            <Keyframe id="7541"  time="-9999999/1" value="0" leadInLength="0/1"  />
            <Keyframe id="7542"  time="167/1" value="0" leadInLength="1/1"  interpolater="leadin-linr"  />
            <Keyframe id="7543"  time="175/1" value="0" leadInLength="8/1"  interpolater="leadin-linr"  />
            <Keyframe id="7544"  time="185/1" value="0" leadInLength="1/1"  interpolater="leadin-linr"  />
            <Keyframe id="7545"  time="187/1" value="0" leadInLength="2/1"  interpolater="leadin-linr"  />
            </Keyframes>
           </InterpolatingParam>
           <InterpolatingParam id="7546" interp="linr"  >
            <Keyframes>
            <Keyframe id="7547"  time="-9999999/1" value="0" leadInLength="0/1"  />
            <Keyframe id="7548"  time="167/1" value="0" leadInLength="1/1"  interpolater="leadin-linr"  />
            <Keyframe id="7549"  time="175/1" value="0" leadInLength="8/1"  interpolater="leadin-linr"  />
            <Keyframe id="7550"  time="185/1" value="0" leadInLength="1/1"  interpolater="leadin-linr"  />
            <Keyframe id="7551"  time="187/1" value="0" leadInLength="2/1"  interpolater="leadin-linr"  />
            </Keyframes>
           </InterpolatingParam>
          </VectorParam>
          <InterpolatingParam id="7552" interp="linr"  name="opacity">
           <Keyframes>
           <Keyframe id="7553"  time="-9999999/1" value="1" leadInLength="0/1"  />
           <Keyframe id="7554"  time="167/1" value="1" leadInLength="1/1"  interpolater="leadin-linr"  />
           <Keyframe id="7555"  time="175/1" value="1" leadInLength="8/1"  interpolater="leadin-linr"  />
           <Keyframe id="7556"  time="185/1" value="1" leadInLength="1/1"  interpolater="leadin-linr"  />
           <Keyframe id="7557"  time="187/1" value="1" leadInLength="2/1"  interpolater="leadin-linr"  />
           </Keyframes>
          </InterpolatingParam>
         </Parameters>
         <Effects>
          <GenericEffect id="7558" name = "DropShadow" >
           <Parameters>
           <InterpolatingParam id="7559" interp="linr"  time="0/1" value="315" leadInLength="0/1"   name="angle"/>
           <InterpolatingParam id="7560" interp="linr"  time="0/1" value="2" leadInLength="0/1"   name="blur"/>
           <Parameter id="7561"   name="enabled">
            <Keyframes>
            <Keyframe id="7562"  time="0/1" value="1" leadInLength="0/1"  />
            </Keyframes>
           </Parameter>
           <InterpolatingParam id="7563" interp="linr"  time="0/1" value="4" leadInLength="0/1"   name="offset"/>
           <InterpolatingParam id="7564" interp="linr"  time="0/1" value="1" leadInLength="0/1"   name="opacity"/>
           </Parameters>
          </GenericEffect>
         </Effects>
         <Attributes>
          <Attribute id="7565"  name="vectorNode">
           <VectorNode id="7566" kind="TypeWinSVG"  >
            <DoubleParameters>
             <InterpolatingParam id="7567" interp="linr"  time="0/1" value="1" leadInLength="0/1"  name="DrawTime"/>
             <InterpolatingParam id="7568" interp="linr"  time="0/1" value="59" leadInLength="0/1"  name="borderColorBlue"/>
             <InterpolatingParam id="7569" interp="linr"  time="0/1" value="209" leadInLength="0/1"  name="borderColorGreen"/>
             <InterpolatingParam id="7570" interp="linr"  time="0/1" value="127" leadInLength="0/1"  name="borderColorRed"/>
             <InterpolatingParam id="7571" interp="linr"  time="0/1" value="5" leadInLength="0/1"  name="borderWidth"/>
             <InterpolatingParam id="7572" interp="linr"  time="0/1" value="0" leadInLength="0/1"  name="flipOnXAxis"/>
             <InterpolatingParam id="7573" interp="linr"  time="0/1" value="1" leadInLength="0/1"  name="flipOnYAxis"/>
             <InterpolatingParam id="7574" interp="linr"  time="0/1" value="180" leadInLength="0/1"  name="height"/>
             <InterpolatingParam id="7575" interp="linr"  time="0/1" value="320" leadInLength="0/1"  name="width"/>
            </DoubleParameters>
            <StringParameters>
             <Parameter id="7576"  name="filename">
              <Keyframes>
              <Keyframe id="7577"  time="0/1" value="C:\Program Files (x86)\TechSmith\Camtasia Studio 8\Media\Studio\Callouts\anim_drawnsquare.svg" leadInLength="0/1"  />
              </Keyframes>
             </Parameter>
             <Parameter id="7578"  name="name">
              <Keyframes>
              <Keyframe id="7579"  time="0/1" value="Sketch Motion Rectangle" leadInLength="0/1"  />
              </Keyframes>
             </Parameter>
             <Parameter id="7580"  name="xmlContent">
              <Keyframes>
              <Keyframe id="7581"  time="0/1" value="﻿&lt;?xml version=&quot;1.0&quot; encoding=&quot;utf-8&quot;?&gt;&#xa;&lt;!-- Generator: Adobe Illustrator 13.0.2, SVG Export Plug-In . SVG Version: 6.00 Build 14948)  --&gt;&#xa;&lt;!DOCTYPE svg PUBLIC &quot;-//W3C//DTD SVG 1.1//EN&quot; &quot;http://www.w3.org/Graphics/SVG/1.1/DTD/svg11.dtd&quot;&gt;&#xa;&lt;svg version=&quot;1.1&quot; id=&quot;Layer_1&quot; xmlns=&quot;http://www.w3.org/2000/svg&quot; xmlns:xlink=&quot;http://www.w3.org/1999/xlink&quot; x=&quot;0px&quot; y=&quot;0px&quot;&#xa;&#x9; width=&quot;296.633px&quot; height=&quot;227.883px&quot; viewBox=&quot;0 0 296.633 227.883&quot; enable-background=&quot;new 0 0 296.633 227.883&quot;&#xa;&#x9; xml:space=&quot;preserve&quot;&gt;&#xa;&lt;path fill=&quot;none&quot; d=&quot;M2.662,1.793c8.266,53.25,2.802,171.963,5.305,226.067&quot;/&gt;&#xa;&lt;path fill=&quot;none&quot; d=&quot;M1.031,222.146c67.199-9.078,213.034,6.17,279.931-5.306&quot;/&gt;&#xa;&lt;path fill=&quot;none&quot; d=&quot;M290.581,0.007c-0.5,33.125-2.356,191.708-11.658,223.363&quot;/&gt;&#xa;&lt;path fill=&quot;none&quot; d=&quot;M0.07,10.703C127.409-7.206,237.174,4.794,296.602,8.604&quot;/&gt;&#xa;&lt;/svg&gt;&#xa;" leadInLength="0/1"  />
              </Keyframes>
             </Parameter>
            </StringParameters>
           </VectorNode>
          </Attribute>
         </Attributes>
         <MetaData>
          <entry key="WinSubProjectDisplayName" val=""/>
         </MetaData>
         <LeftEdgeMods length="15/1" groupName="DrawPercentageFade">
          <EdgeMod parameter="7567">
           <FadeInFunc id="6570"  />
          </EdgeMod>
         </LeftEdgeMods>
         <RightEdgeMods length="0/1" groupName="OpacityFade">
          <EdgeMod parameter="7552">
           <FadeOutFunc id="7582"  />
          </EdgeMod>
         </RightEdgeMods>
         <ExtraData>
          <Entry key="ZoomPanBin">
           <ZoomPanBin id="7583"  >
            <ZoomPanKeyframes>
             <ZoomPanKeyframe id="7584" timeRangeEnd="-9999999/1" timeRangeDuration="0/1" interpolaterName="linr"  />
             <ZoomPanKeyframe id="7585" timeRangeEnd="167/1" timeRangeDuration="1/1" interpolaterName="linr"  />
             <ZoomPanKeyframe id="7586" timeRangeEnd="175/1" timeRangeDuration="8/1" interpolaterName="linr"  />
             <ZoomPanKeyframe id="7587" timeRangeEnd="185/1" timeRangeDuration="1/1" interpolaterName="linr"  />
             <ZoomPanKeyframe id="7588" timeRangeEnd="187/1" timeRangeDuration="2/1" interpolaterName="leadin-linr"  />
            </ZoomPanKeyframes>
           </ZoomPanBin>
          </Entry>
         </ExtraData>
        </Callout>
        <Callout id="7589" start="7692" duration="25" scalar="1/1" mediaStart="117/1" mediaDuration="25/1" >
         <Transformer>
          <VectorParam id="7590"  name="translation">
           <InterpolatingParam id="7591" interp="linr"  >
            <Keyframes>
            <Keyframe id="7592"  time="-9999999/1" value="-342.49999999979309" leadInLength="0/1"  />
            <Keyframe id="7593"  time="124/1" value="-342.499999999794" leadInLength="1/1"  interpolater="leadin-linr"  />
            <Keyframe id="7594"  time="126/1" value="-342.49999999979315" leadInLength="2/1"  interpolater="leadin-linr"  />
            <Keyframe id="7595"  time="130/1" value="-342.49999999979309" leadInLength="4/1"  interpolater="leadin-linr"  />
            </Keyframes>
           </InterpolatingParam>
           <InterpolatingParam id="7596" interp="linr"  >
            <Keyframes>
            <Keyframe id="7597"  time="-9999999/1" value="-124.16666666651234" leadInLength="0/1"  />
            <Keyframe id="7598"  time="124/1" value="-75.833333333108428" leadInLength="1/1"  interpolater="leadin-linr"  />
            <Keyframe id="7599"  time="126/1" value="19.166666666828149" leadInLength="2/1"  interpolater="leadin-linr"  />
            <Keyframe id="7600"  time="130/1" value="40.833333333495865" leadInLength="4/1"  interpolater="leadin-linr"  />
            </Keyframes>
           </InterpolatingParam>
           <InterpolatingParam id="7601" interp="linr"  >
            <Keyframes>
            <Keyframe id="7602"  time="-9999999/1" value="0" leadInLength="0/1"  />
            <Keyframe id="7603"  time="124/1" value="0" leadInLength="1/1"  interpolater="leadin-linr"  />
            <Keyframe id="7604"  time="126/1" value="0" leadInLength="2/1"  interpolater="leadin-linr"  />
            <Keyframe id="7605"  time="130/1" value="0" leadInLength="4/1"  interpolater="leadin-linr"  />
            </Keyframes>
           </InterpolatingParam>
          </VectorParam>
          <VectorParam id="7606"  name="rotation">
           <InterpolatingParam id="7607" interp="linr"  >
            <Keyframes>
            <Keyframe id="7608"  time="-9999999/1" value="0" leadInLength="0/1"  />
            <Keyframe id="7609"  time="124/1" value="0" leadInLength="1/1"  interpolater="leadin-linr"  />
            <Keyframe id="7610"  time="126/1" value="0" leadInLength="2/1"  interpolater="leadin-linr"  />
            <Keyframe id="7611"  time="130/1" value="0" leadInLength="4/1"  interpolater="leadin-linr"  />
            </Keyframes>
           </InterpolatingParam>
           <InterpolatingParam id="7612" interp="linr"  >
            <Keyframes>
            <Keyframe id="7613"  time="-9999999/1" value="0" leadInLength="0/1"  />
            <Keyframe id="7614"  time="124/1" value="0" leadInLength="1/1"  interpolater="leadin-linr"  />
            <Keyframe id="7615"  time="126/1" value="0" leadInLength="2/1"  interpolater="leadin-linr"  />
            <Keyframe id="7616"  time="130/1" value="0" leadInLength="4/1"  interpolater="leadin-linr"  />
            </Keyframes>
           </InterpolatingParam>
           <InterpolatingParam id="7617" interp="linr"  >
            <Keyframes>
            <Keyframe id="7618"  time="-9999999/1" value="0" leadInLength="0/1"  />
            <Keyframe id="7619"  time="124/1" value="0" leadInLength="1/1"  interpolater="leadin-linr"  />
            <Keyframe id="7620"  time="126/1" value="0" leadInLength="2/1"  interpolater="leadin-linr"  />
            <Keyframe id="7621"  time="130/1" value="0" leadInLength="4/1"  interpolater="leadin-linr"  />
            </Keyframes>
           </InterpolatingParam>
          </VectorParam>
          <VectorParam id="7622"  name="shear">
           <InterpolatingParam id="7623" interp="linr"  >
            <Keyframes>
            <Keyframe id="7624"  time="-9999999/1" value="0" leadInLength="0/1"  />
            <Keyframe id="7625"  time="124/1" value="0" leadInLength="1/1"  interpolater="leadin-linr"  />
            <Keyframe id="7626"  time="126/1" value="0" leadInLength="2/1"  interpolater="leadin-linr"  />
            <Keyframe id="7627"  time="130/1" value="0" leadInLength="4/1"  interpolater="leadin-linr"  />
            </Keyframes>
           </InterpolatingParam>
           <InterpolatingParam id="7628" interp="linr"  >
            <Keyframes>
            <Keyframe id="7629"  time="-9999999/1" value="0" leadInLength="0/1"  />
            <Keyframe id="7630"  time="124/1" value="0" leadInLength="1/1"  interpolater="leadin-linr"  />
            <Keyframe id="7631"  time="126/1" value="0" leadInLength="2/1"  interpolater="leadin-linr"  />
            <Keyframe id="7632"  time="130/1" value="0" leadInLength="4/1"  interpolater="leadin-linr"  />
            </Keyframes>
           </InterpolatingParam>
           <InterpolatingParam id="7633" interp="linr"  >
            <Keyframes>
            <Keyframe id="7634"  time="-9999999/1" value="0" leadInLength="0/1"  />
            <Keyframe id="7635"  time="124/1" value="0" leadInLength="1/1"  interpolater="leadin-linr"  />
            <Keyframe id="7636"  time="126/1" value="0" leadInLength="2/1"  interpolater="leadin-linr"  />
            <Keyframe id="7637"  time="130/1" value="0" leadInLength="4/1"  interpolater="leadin-linr"  />
            </Keyframes>
           </InterpolatingParam>
          </VectorParam>
          <VectorParam id="7638"  name="scale">
           <InterpolatingParam id="7639" interp="linr"  >
            <Keyframes>
            <Keyframe id="7640"  time="-9999999/1" value="0.4531249999982353" leadInLength="0/1"  />
            <Keyframe id="7641"  time="124/1" value="0.45312499999824063" leadInLength="1/1"  interpolater="leadin-linr"  />
            <Keyframe id="7642"  time="126/1" value="0.4531249999982353" leadInLength="2/1"  interpolater="leadin-linr"  />
            <Keyframe id="7643"  time="130/1" value="0.4531249999982353" leadInLength="4/1"  interpolater="leadin-linr"  />
            </Keyframes>
           </InterpolatingParam>
           <InterpolatingParam id="7644" interp="linr"  >
            <Keyframes>
            <Keyframe id="7645"  time="-9999999/1" value="0.3611111111111614" leadInLength="0/1"  />
            <Keyframe id="7646"  time="124/1" value="0.36111111111049482" leadInLength="1/1"  interpolater="leadin-linr"  />
            <Keyframe id="7647"  time="126/1" value="0.3611111111111614" leadInLength="2/1"  interpolater="leadin-linr"  />
            <Keyframe id="7648"  time="130/1" value="0.3611111111111614" leadInLength="4/1"  interpolater="leadin-linr"  />
            </Keyframes>
           </InterpolatingParam>
           <InterpolatingParam id="7649" interp="linr"  >
            <Keyframes>
            <Keyframe id="7650"  time="-9999999/1" value="1" leadInLength="0/1"  />
            <Keyframe id="7651"  time="124/1" value="1" leadInLength="1/1"  interpolater="leadin-linr"  />
            <Keyframe id="7652"  time="126/1" value="1" leadInLength="2/1"  interpolater="leadin-linr"  />
            <Keyframe id="7653"  time="130/1" value="1" leadInLength="4/1"  interpolater="leadin-linr"  />
            </Keyframes>
           </InterpolatingParam>
          </VectorParam>
          <VectorParam id="7654"  name="anchor">
           <InterpolatingParam id="7655" interp="linr"  time="0/1" value="0" leadInLength="0/1"  />
           <InterpolatingParam id="7656" interp="linr"  time="0/1" value="0" leadInLength="0/1"  />
           <InterpolatingParam id="7657" interp="linr"  time="0/1" value="0" leadInLength="0/1"  />
          </VectorParam>
         </Transformer>
         <Parameters>
          <VectorParam id="7658"  name="sourceCrop">
           <InterpolatingParam id="7659" interp="linr"  time="0/1" value="0" leadInLength="0/1"  />
           <InterpolatingParam id="7660" interp="linr"  time="0/1" value="0" leadInLength="0/1"  />
           <InterpolatingParam id="7661" interp="linr"  time="0/1" value="0" leadInLength="0/1"  />
           <InterpolatingParam id="7662" interp="linr"  time="0/1" value="0" leadInLength="0/1"  />
          </VectorParam>
          <VectorParam id="7663"  name="geometryCrop">
           <InterpolatingParam id="7664" interp="linr"  >
            <Keyframes>
            <Keyframe id="7665"  time="-9999999/1" value="0" leadInLength="0/1"  />
            <Keyframe id="7666"  time="124/1" value="0" leadInLength="1/1"  interpolater="leadin-linr"  />
            <Keyframe id="7667"  time="126/1" value="0" leadInLength="2/1"  interpolater="leadin-linr"  />
            <Keyframe id="7668"  time="130/1" value="0" leadInLength="4/1"  interpolater="leadin-linr"  />
            </Keyframes>
           </InterpolatingParam>
           <InterpolatingParam id="7669" interp="linr"  >
            <Keyframes>
            <Keyframe id="7670"  time="-9999999/1" value="0" leadInLength="0/1"  />
            <Keyframe id="7671"  time="124/1" value="0" leadInLength="1/1"  interpolater="leadin-linr"  />
            <Keyframe id="7672"  time="126/1" value="0" leadInLength="2/1"  interpolater="leadin-linr"  />
            <Keyframe id="7673"  time="130/1" value="0" leadInLength="4/1"  interpolater="leadin-linr"  />
            </Keyframes>
           </InterpolatingParam>
           <InterpolatingParam id="7674" interp="linr"  >
            <Keyframes>
            <Keyframe id="7675"  time="-9999999/1" value="0" leadInLength="0/1"  />
            <Keyframe id="7676"  time="124/1" value="0" leadInLength="1/1"  interpolater="leadin-linr"  />
            <Keyframe id="7677"  time="126/1" value="0" leadInLength="2/1"  interpolater="leadin-linr"  />
            <Keyframe id="7678"  time="130/1" value="0" leadInLength="4/1"  interpolater="leadin-linr"  />
            </Keyframes>
           </InterpolatingParam>
           <InterpolatingParam id="7679" interp="linr"  >
            <Keyframes>
            <Keyframe id="7680"  time="-9999999/1" value="0" leadInLength="0/1"  />
            <Keyframe id="7681"  time="124/1" value="0" leadInLength="1/1"  interpolater="leadin-linr"  />
            <Keyframe id="7682"  time="126/1" value="0" leadInLength="2/1"  interpolater="leadin-linr"  />
            <Keyframe id="7683"  time="130/1" value="0" leadInLength="4/1"  interpolater="leadin-linr"  />
            </Keyframes>
           </InterpolatingParam>
          </VectorParam>
          <InterpolatingParam id="7684" interp="linr"  name="opacity">
           <Keyframes>
           <Keyframe id="7685"  time="-9999999/1" value="1" leadInLength="0/1"  />
           <Keyframe id="7686"  time="124/1" value="1" leadInLength="1/1"  interpolater="leadin-linr"  />
           <Keyframe id="7687"  time="126/1" value="1" leadInLength="2/1"  interpolater="leadin-linr"  />
           <Keyframe id="7688"  time="130/1" value="1" leadInLength="4/1"  interpolater="leadin-linr"  />
           </Keyframes>
          </InterpolatingParam>
         </Parameters>
         <Effects>
          <GenericEffect id="7689" name = "DropShadow" >
           <Parameters>
           <InterpolatingParam id="7690" interp="linr"  time="0/1" value="315" leadInLength="0/1"   name="angle"/>
           <InterpolatingParam id="7691" interp="linr"  time="0/1" value="2" leadInLength="0/1"   name="blur"/>
           <Parameter id="7692"   name="enabled">
            <Keyframes>
            <Keyframe id="7693"  time="0/1" value="1" leadInLength="0/1"  />
            </Keyframes>
           </Parameter>
           <InterpolatingParam id="7694" interp="linr"  time="0/1" value="4" leadInLength="0/1"   name="offset"/>
           <InterpolatingParam id="7695" interp="linr"  time="0/1" value="1" leadInLength="0/1"   name="opacity"/>
           </Parameters>
          </GenericEffect>
         </Effects>
         <Attributes>
          <Attribute id="7696"  name="vectorNode">
           <VectorNode id="7697" kind="TypeWinSVG"  >
            <DoubleParameters>
             <InterpolatingParam id="7698" interp="linr"  time="0/1" value="1" leadInLength="0/1"  name="DrawTime"/>
             <InterpolatingParam id="7699" interp="linr"  time="0/1" value="59" leadInLength="0/1"  name="borderColorBlue"/>
             <InterpolatingParam id="7700" interp="linr"  time="0/1" value="209" leadInLength="0/1"  name="borderColorGreen"/>
             <InterpolatingParam id="7701" interp="linr"  time="0/1" value="127" leadInLength="0/1"  name="borderColorRed"/>
             <InterpolatingParam id="7702" interp="linr"  time="0/1" value="5" leadInLength="0/1"  name="borderWidth"/>
             <InterpolatingParam id="7703" interp="linr"  time="0/1" value="0" leadInLength="0/1"  name="flipOnXAxis"/>
             <InterpolatingParam id="7704" interp="linr"  time="0/1" value="1" leadInLength="0/1"  name="flipOnYAxis"/>
             <InterpolatingParam id="7705" interp="linr"  time="0/1" value="180" leadInLength="0/1"  name="height"/>
             <InterpolatingParam id="7706" interp="linr"  time="0/1" value="320" leadInLength="0/1"  name="width"/>
            </DoubleParameters>
            <StringParameters>
             <Parameter id="7707"  name="filename">
              <Keyframes>
              <Keyframe id="7708"  time="0/1" value="C:\Program Files (x86)\TechSmith\Camtasia Studio 8\Media\Studio\Callouts\anim_drawnsquare.svg" leadInLength="0/1"  />
              </Keyframes>
             </Parameter>
             <Parameter id="7709"  name="name">
              <Keyframes>
              <Keyframe id="7710"  time="0/1" value="Sketch Motion Rectangle" leadInLength="0/1"  />
              </Keyframes>
             </Parameter>
             <Parameter id="7711"  name="xmlContent">
              <Keyframes>
              <Keyframe id="7712"  time="0/1" value="﻿&lt;?xml version=&quot;1.0&quot; encoding=&quot;utf-8&quot;?&gt;&#xa;&lt;!-- Generator: Adobe Illustrator 13.0.2, SVG Export Plug-In . SVG Version: 6.00 Build 14948)  --&gt;&#xa;&lt;!DOCTYPE svg PUBLIC &quot;-//W3C//DTD SVG 1.1//EN&quot; &quot;http://www.w3.org/Graphics/SVG/1.1/DTD/svg11.dtd&quot;&gt;&#xa;&lt;svg version=&quot;1.1&quot; id=&quot;Layer_1&quot; xmlns=&quot;http://www.w3.org/2000/svg&quot; xmlns:xlink=&quot;http://www.w3.org/1999/xlink&quot; x=&quot;0px&quot; y=&quot;0px&quot;&#xa;&#x9; width=&quot;296.633px&quot; height=&quot;227.883px&quot; viewBox=&quot;0 0 296.633 227.883&quot; enable-background=&quot;new 0 0 296.633 227.883&quot;&#xa;&#x9; xml:space=&quot;preserve&quot;&gt;&#xa;&lt;path fill=&quot;none&quot; d=&quot;M2.662,1.793c8.266,53.25,2.802,171.963,5.305,226.067&quot;/&gt;&#xa;&lt;path fill=&quot;none&quot; d=&quot;M1.031,222.146c67.199-9.078,213.034,6.17,279.931-5.306&quot;/&gt;&#xa;&lt;path fill=&quot;none&quot; d=&quot;M290.581,0.007c-0.5,33.125-2.356,191.708-11.658,223.363&quot;/&gt;&#xa;&lt;path fill=&quot;none&quot; d=&quot;M0.07,10.703C127.409-7.206,237.174,4.794,296.602,8.604&quot;/&gt;&#xa;&lt;/svg&gt;&#xa;" leadInLength="0/1"  />
              </Keyframes>
             </Parameter>
            </StringParameters>
           </VectorNode>
          </Attribute>
         </Attributes>
         <MetaData>
          <entry key="WinSubProjectDisplayName" val=""/>
         </MetaData>
         <LeftEdgeMods length="3/1" groupName="DrawPercentageFade">
          <EdgeMod parameter="7698">
           <FadeInFunc id="7376"  />
          </EdgeMod>
         </LeftEdgeMods>
         <RightEdgeMods length="3/1" groupName="OpacityFade">
          <EdgeMod parameter="7684">
           <FadeOutFunc id="7713"  />
          </EdgeMod>
         </RightEdgeMods>
         <ExtraData>
          <Entry key="ZoomPanBin">
           <ZoomPanBin id="7714"  >
            <ZoomPanKeyframes>
             <ZoomPanKeyframe id="7715" timeRangeEnd="-9999999/1" timeRangeDuration="0/1" interpolaterName="linr"  />
             <ZoomPanKeyframe id="7716" timeRangeEnd="124/1" timeRangeDuration="1/1" interpolaterName="linr"  />
             <ZoomPanKeyframe id="7717" timeRangeEnd="126/1" timeRangeDuration="2/1" interpolaterName="linr"  />
             <ZoomPanKeyframe id="7718" timeRangeEnd="130/1" timeRangeDuration="4/1" interpolaterName="linr"  />
            </ZoomPanKeyframes>
           </ZoomPanBin>
          </Entry>
         </ExtraData>
        </Callout>
       </Medias>
      </GenericTrack>
      <GenericTrack id="7719"  >
       <Attributes>
        <Attribute id="7720" value="" name="ident"/>
        <Attribute id="7721" value="0" name="audioMuted"/>
        <Attribute id="7722" value="0" name="videoHidden"/>
       </Attributes>
       <MetaData>
        <entry key="IsLocked" val="False"/>
        <entry key="WinTrackHeight" val="62"/>
       </MetaData>
       <Medias>
       </Medias>
      </GenericTrack>
     </Tracks>
    </GenericMixer>
   <CaptionAttributes id="7723"  >
    <Attribute id="7724" value="1" name="captionsEnabled"/>
    <Attribute id="7725" value="Arial" name="captionsFontName"/>
    <Attribute id="7726" value="28" name="captionsFontSize"/>
    <Attribute id="7727" value="(0,0,0,255)" name="captionsBackgroundColor"/>
    <Attribute id="7728" value="(255,255,255,255)" name="captionsForegroundColor"/>
    <Attribute id="7729" value="en" name="lang"/>
    <Attribute id="7730" value="0" name="captionsAlignment"/>
    <Attribute id="7731" value="1" name="captionsDefaultFontSize"/>
    <Attribute id="7732" value="0.5" name="captionsOpacity"/>
    <Attribute id="7733" value="1" name="captionsBackgroundEnabled"/>
    <Attribute id="7734" value="1" name="captionsBackgroundOnlyAroundText"/>
   </CaptionAttributes>
   <Parameters>
    <VectorParam id="7735"  name="eyePosition">
     <InterpolatingParam id="7736" interp="linr"  time="0/1" value="0" leadInLength="0/1"  />
     <InterpolatingParam id="7737" interp="linr"  time="0/1" value="0" leadInLength="0/1"  />
     <InterpolatingParam id="7738" interp="linr"  time="0/1" value="3000" leadInLength="0/1"  />
    </VectorParam>
    <VectorParam id="7739"  name="eyeLookAtPosition">
     <InterpolatingParam id="7740" interp="linr"  time="0/1" value="0" leadInLength="0/1"  />
     <InterpolatingParam id="7741" interp="linr"  time="0/1" value="0" leadInLength="0/1"  />
     <InterpolatingParam id="7742" interp="linr"  time="0/1" value="0" leadInLength="0/1"  />
    </VectorParam>
    <VectorParam id="7743"  name="eyeUpVector">
     <InterpolatingParam id="7744" interp="linr"  time="0/1" value="0" leadInLength="0/1"  />
     <InterpolatingParam id="7745" interp="linr"  time="0/1" value="1" leadInLength="0/1"  />
     <InterpolatingParam id="7746" interp="linr"  time="0/1" value="0" leadInLength="0/1"  />
    </VectorParam>
    <InterpolatingParam id="7747" interp="linr"  time="0/1" value="0.23885785" leadInLength="0/1"  name="fov"/>
    <InterpolatingParam id="7748" interp="linr"  time="0/1" value="1.5" leadInLength="0/1"  name="nearClipDistance"/>
    <InterpolatingParam id="7749" interp="linr"  time="0/1" value="6000" leadInLength="0/1"  name="farClipDistance"/>
   </Parameters>
  </Timeline>
 </Project>
</GoProject>
</CSMLData>

</Project_Data>
