<?xml version="1.0"?>
<Project_Data Version="8.00">
<Project_Settings>
<ProfileName>MP4 with Smart Player (up to 1080p)</ProfileName>
<ProjectWidth>1418</ProjectWidth>
<ProjectHeight>720</ProjectHeight>
<IsCustomProject>1</IsCustomProject>
<SavedProjectSettings>1</SavedProjectSettings>
<LastFlashTemplate>-1</LastFlashTemplate>
</Project_Settings>


<AutoSaveFile>C:\Users\auto1\AppData\Local\TechSmith\Camtasia Studio\8.0\Auto-Saves\audio-edit6913680.autosave.camproj</AutoSaveFile>

<ProjectID>62297190-BEDA-4471-AEA9-DFF5784F5CFE</ProjectID>

<PowerPointProject>0</PowerPointProject>

<PowerPointFilename></PowerPointFilename>


<Project_Notes>
</Project_Notes>

<Project_MetaData>
<Project_MetaData_Object>
<FieldArrayKey>8</FieldArrayKey>
<Value>audio-edit</Value>
</Project_MetaData_Object>
<Project_MetaData_Object>
<FieldArrayKey>13</FieldArrayKey>
<Value>2024-08-27 07:29:16 PM</Value>
</Project_MetaData_Object>
<Project_MetaData_Object>
<FieldArrayKey>16</FieldArrayKey>
<Value>ENU</Value>
</Project_MetaData_Object>
</Project_MetaData>

<CSMLData>
<GoProject id="1" version="3.0" >
 <Project id="2" editRate="30/1" version="3.0" >
  <Author></Author>
  <Comment></Comment>
  <System></System>
  <SourceBin id="3"  >
    <Source id="4" src="C:\ProgramData\TechSmith\Camtasia Studio\Library 2.0\Group_2024-08-27_192850\Syntax-Locked vs Syntax-Free_ Script - Airtable - Google Chrome - 12 August 2024.mp4" lastMod="20240813T025938" rect="(0,0,1920,1080)" >
      <SourceTrack range="(0,3104666667)" type="0" editRate="10000000/1" trackRect="(0,0,1920,1080)" sampleRate="10000000/333371" bitDepth="24" numChannels="0" filename="" metaData="" />
      <SourceTrack range="(0,3104666667)" type="2" editRate="10000000/1" trackRect="(0,0,0,0)" sampleRate="44100/1" bitDepth="16" numChannels="1" filename="" metaData="" />
    </Source>
    <Source id="5" src="C:\ProgramData\TechSmith\Camtasia Studio\Library 2.0\Group_2024-08-27_192850\2-Charlie.png" lastMod="20240824T215352" rect="(0,0,1024,1024)" >
      <SourceTrack range="(0,1)" type="1" editRate="10000000/1" trackRect="(0,0,1024,1024)" sampleRate="0/1" bitDepth="32" numChannels="0" filename="" metaData="" />
    </Source>
    <Source id="6" src="C:\ProgramData\TechSmith\Camtasia Studio\Library 2.0\Group_2024-08-27_192850\01. - English prompt - Clean - no responses.mp4" lastMod="20240825T190421" rect="(0,0,1920,1080)" >
      <SourceTrack range="(0,423333333)" type="0" editRate="10000000/1" trackRect="(0,0,1920,1080)" sampleRate="5000000/166753" bitDepth="24" numChannels="0" filename="" metaData="" />
      <SourceTrack range="(0,423333333)" type="2" editRate="10000000/1" trackRect="(0,0,0,0)" sampleRate="44100/1" bitDepth="16" numChannels="1" filename="" metaData="" />
    </Source>
    <Source id="7" src="C:\ProgramData\TechSmith\Camtasia Studio\Library 2.0\Group_2024-08-27_192850\02. English Response.mp4" lastMod="20240825T190445" rect="(0,0,1920,1080)" >
      <SourceTrack range="(0,71333333)" type="0" editRate="10000000/1" trackRect="(0,0,1920,1080)" sampleRate="10000000/335071" bitDepth="24" numChannels="0" filename="" metaData="" />
      <SourceTrack range="(0,71333333)" type="2" editRate="10000000/1" trackRect="(0,0,0,0)" sampleRate="44100/1" bitDepth="16" numChannels="1" filename="" metaData="" />
    </Source>
    <Source id="8" src="C:\ProgramData\TechSmith\Camtasia Studio\Library 2.0\Group_2024-08-27_192850\03. Finding all the Charlies + Charlie as actually... (cut off).mp4" lastMod="20240825T190453" rect="(0,0,1920,1080)" >
      <SourceTrack range="(0,219666667)" type="0" editRate="10000000/1" trackRect="(0,0,1920,1080)" sampleRate="5000000/166831" bitDepth="24" numChannels="0" filename="" metaData="" />
      <SourceTrack range="(0,219666667)" type="2" editRate="10000000/1" trackRect="(0,0,0,0)" sampleRate="44100/1" bitDepth="16" numChannels="1" filename="" metaData="" />
    </Source>
    <Source id="9" src="C:\ProgramData\TechSmith\Camtasia Studio\Library 2.0\Group_2024-08-27_192850\04. Charlie is crispy Prompt and response - english.mp4" lastMod="20240825T190501" rect="(0,0,1920,1080)" >
      <SourceTrack range="(0,256666667)" type="0" editRate="10000000/1" trackRect="(0,0,1920,1080)" sampleRate="10000000/333433" bitDepth="24" numChannels="0" filename="" metaData="" />
      <SourceTrack range="(0,256666667)" type="2" editRate="10000000/1" trackRect="(0,0,0,0)" sampleRate="44100/1" bitDepth="16" numChannels="1" filename="" metaData="" />
    </Source>
    <Source id="10" src="C:\ProgramData\TechSmith\Camtasia Studio\Library 2.0\Group_2024-08-27_192850\5-6. No - hes still puffy, his NAME is now Crispy.mp4" lastMod="20240825T190513" rect="(0,0,1920,1080)" >
      <SourceTrack range="(0,408333333)" type="0" editRate="10000000/1" trackRect="(0,0,1920,1080)" sampleRate="10000000/333513" bitDepth="24" numChannels="0" filename="" metaData="" />
      <SourceTrack range="(0,408333333)" type="2" editRate="10000000/1" trackRect="(0,0,0,0)" sampleRate="44100/1" bitDepth="16" numChannels="1" filename="" metaData="" />
    </Source>
    <Source id="11" src="C:\ProgramData\TechSmith\Camtasia Studio\Library 2.0\Group_2024-08-27_192850\07. 2 full pages of text.mp4" lastMod="20240825T190519" rect="(0,0,1920,1080)" >
      <SourceTrack range="(0,169333333)" type="0" editRate="10000000/1" trackRect="(0,0,1920,1080)" sampleRate="5000000/169559" bitDepth="24" numChannels="0" filename="" metaData="" />
      <SourceTrack range="(0,169333333)" type="2" editRate="10000000/1" trackRect="(0,0,0,0)" sampleRate="48000/1" bitDepth="16" numChannels="1" filename="" metaData="" />
    </Source>
    <Source id="12" src="C:\ProgramData\TechSmith\Camtasia Studio\Library 2.0\Group_2024-08-27_192850\08. Not a description - JSON response.mp4" lastMod="20240825T190525" rect="(0,0,1920,1080)" >
      <SourceTrack range="(0,823333333)" type="0" editRate="10000000/1" trackRect="(0,0,1920,1080)" sampleRate="10000000/337283" bitDepth="24" numChannels="0" filename="" metaData="" />
      <SourceTrack range="(0,823333333)" type="2" editRate="10000000/1" trackRect="(0,0,0,0)" sampleRate="48000/1" bitDepth="16" numChannels="1" filename="" metaData="" />
    </Source>
    <Source id="13" src="C:\ProgramData\TechSmith\Camtasia Studio\Library 2.0\Group_2024-08-27_192850\09. CHarlie is crispy - JSON .mp4" lastMod="20240825T190532" rect="(0,0,1920,1080)" >
      <SourceTrack range="(0,373000000)" type="0" editRate="10000000/1" trackRect="(0,0,1920,1080)" sampleRate="5000000/168201" bitDepth="24" numChannels="0" filename="" metaData="" />
      <SourceTrack range="(0,373000000)" type="2" editRate="10000000/1" trackRect="(0,0,0,0)" sampleRate="48000/1" bitDepth="16" numChannels="1" filename="" metaData="" />
    </Source>
    <Source id="14" src="C:\ProgramData\TechSmith\Camtasia Studio\Library 2.0\Group_2024-08-27_192850\10. JSON mistake.mp4" lastMod="20240825T190541" rect="(0,0,1920,1080)" >
      <SourceTrack range="(0,663000000)" type="0" editRate="10000000/1" trackRect="(0,0,1920,1080)" sampleRate="1250000/42221" bitDepth="24" numChannels="0" filename="" metaData="" />
      <SourceTrack range="(0,663000000)" type="2" editRate="10000000/1" trackRect="(0,0,0,0)" sampleRate="48000/1" bitDepth="16" numChannels="1" filename="" metaData="" />
    </Source>
    <Source id="15" src="C:\ProgramData\TechSmith\Camtasia Studio\Library 2.0\Group_2024-08-27_192850\11. This is the game.  Ready to describe..mp4" lastMod="20240825T190548" rect="(0,0,1920,1080)" >
      <SourceTrack range="(0,569000000)" type="0" editRate="10000000/1" trackRect="(0,0,1920,1080)" sampleRate="1250000/41683" bitDepth="24" numChannels="0" filename="" metaData="" />
      <SourceTrack range="(0,569000000)" type="2" editRate="10000000/1" trackRect="(0,0,0,0)" sampleRate="44100/1" bitDepth="16" numChannels="1" filename="" metaData="" />
    </Source>
    <Source id="16" src="C:\ProgramData\TechSmith\Camtasia Studio\Library 2.0\Group_2024-08-27_192850\12. Punchline.mp4" lastMod="20240825T190554" rect="(0,0,1920,1080)" >
      <SourceTrack range="(0,984000000)" type="0" editRate="10000000/1" trackRect="(0,0,1920,1080)" sampleRate="10000000/333373" bitDepth="24" numChannels="0" filename="" metaData="" />
      <SourceTrack range="(0,984000000)" type="2" editRate="10000000/1" trackRect="(0,0,0,0)" sampleRate="44100/1" bitDepth="16" numChannels="1" filename="" metaData="" />
    </Source>
    <Source id="17" src="C:\ProgramData\TechSmith\Camtasia Studio\Library 2.0\Group_2024-08-27_192850\13. Highlighting camp before correction.mp4" lastMod="20240825T190603" rect="(0,0,1920,1080)" >
      <SourceTrack range="(0,396000000)" type="0" editRate="10000000/1" trackRect="(0,0,1920,1080)" sampleRate="2500000/86853" bitDepth="24" numChannels="0" filename="" metaData="" />
      <SourceTrack range="(0,396000000)" type="2" editRate="10000000/1" trackRect="(0,0,0,0)" sampleRate="48000/1" bitDepth="16" numChannels="1" filename="" metaData="" />
    </Source>
    <Source id="18" src="C:\ProgramData\TechSmith\Camtasia Studio\Library 2.0\Group_2024-08-27_192850\7-vw-bus.png" lastMod="20240813T211331" rect="(0,0,1024,1024)" >
      <SourceTrack range="(0,1)" type="1" editRate="10000000/1" trackRect="(0,0,1024,1024)" sampleRate="0/1" bitDepth="32" numChannels="0" filename="" metaData="" />
    </Source>
    <Source id="19" src="C:\ProgramData\TechSmith\Camtasia Studio\Library 2.0\Group_2024-08-27_192850\5-Crispy.png" lastMod="20240824T222143" rect="(0,0,1024,1024)" >
      <SourceTrack range="(0,1)" type="1" editRate="10000000/1" trackRect="(0,0,1024,1024)" sampleRate="0/1" bitDepth="32" numChannels="0" filename="" metaData="" />
    </Source>
    <Source id="20" src="C:\ProgramData\TechSmith\Camtasia Studio\Library 2.0\Group_2024-08-27_192850\3-Crispy.png" lastMod="20240813T211933" rect="(0,0,1024,1024)" >
      <SourceTrack range="(0,1)" type="1" editRate="10000000/1" trackRect="(0,0,1024,1024)" sampleRate="0/1" bitDepth="32" numChannels="0" filename="" metaData="" />
    </Source>
    <Source id="21" src="C:\syntax-free-research\CloudyDemo\Videos\charlie-crispy-demo-16\charlie-crispy-demo-16.mp4" lastMod="20240826T163044" rect="(0,0,1280,720)" >
      <SourceTrack range="(0,2984000000)" type="0" editRate="10000000/1" trackRect="(0,0,1280,720)" sampleRate="10000000/333333" bitDepth="24" numChannels="0" filename="" metaData="" />
      <SourceTrack range="(0,2984000000)" type="2" editRate="10000000/1" trackRect="(0,0,0,0)" sampleRate="44100/1" bitDepth="16" numChannels="2" filename="" metaData="" />
    </Source>
    <Source id="22" src="C:\syntax-free-research\CloudyDemo\Videos\Full script v5 (mp3cut.net).m4a" lastMod="20240828T001936" rect="(0,0,0,0)" >
      <SourceTrack range="(0,4856000000)" type="2" editRate="10000000/1" trackRect="(0,0,0,0)" sampleRate="44100/1" bitDepth="16" numChannels="1" filename="" metaData="" />
    </Source>
    <Source id="23" src="C:\syntax-free-research\CloudyDemo\Marshmallow Madness\1-Roast-And-Toast-Game.png" lastMod="20240828T003854" rect="(0,0,1024,1024)" >
      <SourceTrack range="(0,1)" type="1" editRate="10000000/1" trackRect="(0,0,1024,1024)" sampleRate="0/1" bitDepth="32" numChannels="0" filename="" metaData="" />
    </Source>
    <Source id="24" src="C:\syntax-free-research\CloudyDemo\Marshmallow Madness\cloudy-landing-page.png" lastMod="20240828T154255" rect="(0,0,1874,1006)" >
      <SourceTrack range="(0,1)" type="1" editRate="10000000/1" trackRect="(0,0,1874,1006)" sampleRate="0/1" bitDepth="32" numChannels="0" filename="" metaData="" />
    </Source>
    <Source id="25" src="C:\syntax-free-research\CloudyDemo\Videos\Ancient Greek, take 3.m4a" lastMod="20240828T161849" rect="(0,0,0,0)" >
      <SourceTrack range="(0,129000000)" type="2" editRate="10000000/1" trackRect="(0,0,0,0)" sampleRate="48000/1" bitDepth="16" numChannels="1" filename="" metaData="" />
    </Source>
    <Source id="26" src="C:\syntax-free-research\CloudyDemo\Videos\Ancient Greek take 4.m4a" lastMod="20240828T162244" rect="(0,0,0,0)" >
      <SourceTrack range="(0,45333333)" type="2" editRate="10000000/1" trackRect="(0,0,0,0)" sampleRate="48000/1" bitDepth="16" numChannels="1" filename="" metaData="" />
    </Source>
  </SourceBin>
  <Timeline id="27"  >
   <Attributes>
    <Attribute id="28" value="1418" name="width"/>
    <Attribute id="29" value="720" name="height"/>
    <Attribute id="30" value="(0,0,0,255)" name="backgroundColor"/>
   </Attributes>
    <GenericMixer id="31"  name="Unified Mixer">
     <MetaData>
      <entry key="MixerType" val="TimelineMixer"/>
     </MetaData>
     <Tracks>
      <GenericTrack id="32"  >
       <Attributes>
        <Attribute id="33" value="" name="ident"/>
        <Attribute id="34" value="0" name="audioMuted"/>
        <Attribute id="35" value="0" name="videoHidden"/>
       </Attributes>
       <MetaData>
        <entry key="IsLocked" val="False"/>
        <entry key="WinTrackHeight" val="62"/>
       </MetaData>
       <Medias>
        <UnifiedMedia id="36"  >
         <AMFile id="37" start="6" duration="288" scalar="1/1" mediaStart="0/1" mediaDuration="288/1" trackNumber="1" src="21" channelNumber="0,1" >
          <Parameters>
           <InterpolatingParam id="38" interp="linr"  name="volume">
            <Keyframes>
            <Keyframe id="39"  time="-1/1" value="1" leadInLength="0/1"  />
            <Keyframe id="40"  time="0/1" value="0" leadInLength="0/1"  />
            <Keyframe id="41"  time="8952/1" value="0" leadInLength="0/1"  />
            <Keyframe id="42"  time="8953/1" value="1" leadInLength="0/1"  />
            </Keyframes>
           </InterpolatingParam>
           <Parameter id="43"  name="captions"/>
          </Parameters>
          <Attributes>
           <Attribute id="44" value="" name="ident"/>
           <Attribute id="45" value="44100" name="sampleRate"/>
           <Attribute id="46" value="16" name="bitDepth"/>
           <Attribute id="47" value="1" name="gain"/>
           <Attribute id="48" value="0" name="mixToMono"/>
          </Attributes>
         </AMFile>
         <VMFile id="49" start="6" duration="288" scalar="1/1" mediaStart="0/1" mediaDuration="288/1" trackNumber="0" src="21" >
          <Transformer>
           <VectorParam id="50"  name="translation">
            <InterpolatingParam id="51" interp="linr"  time="-9999999/1" value="0" leadInLength="0/1"  />
            <InterpolatingParam id="52" interp="linr"  time="-9999999/1" value="0" leadInLength="0/1"  />
            <InterpolatingParam id="53" interp="linr"  time="-9999999/1" value="0" leadInLength="0/1"  />
           </VectorParam>
           <VectorParam id="54"  name="rotation">
            <InterpolatingParam id="55" interp="linr"  time="-9999999/1" value="0" leadInLength="0/1"  />
            <InterpolatingParam id="56" interp="linr"  time="-9999999/1" value="0" leadInLength="0/1"  />
            <InterpolatingParam id="57" interp="linr"  time="-9999999/1" value="0" leadInLength="0/1"  />
           </VectorParam>
           <VectorParam id="58"  name="shear">
            <InterpolatingParam id="59" interp="linr"  time="-9999999/1" value="0" leadInLength="0/1"  />
            <InterpolatingParam id="60" interp="linr"  time="-9999999/1" value="0" leadInLength="0/1"  />
            <InterpolatingParam id="61" interp="linr"  time="-9999999/1" value="0" leadInLength="0/1"  />
           </VectorParam>
           <VectorParam id="62"  name="scale">
            <InterpolatingParam id="63" interp="linr"  time="-9999999/1" value="1" leadInLength="0/1"  />
            <InterpolatingParam id="64" interp="linr"  time="-9999999/1" value="1" leadInLength="0/1"  />
            <InterpolatingParam id="65" interp="linr"  time="-9999999/1" value="1" leadInLength="0/1"  />
           </VectorParam>
           <VectorParam id="66"  name="anchor">
            <InterpolatingParam id="67" interp="linr"  time="0/1" value="0" leadInLength="0/1"  />
            <InterpolatingParam id="68" interp="linr"  time="0/1" value="0" leadInLength="0/1"  />
            <InterpolatingParam id="69" interp="linr"  time="0/1" value="0" leadInLength="0/1"  />
           </VectorParam>
          </Transformer>
          <Parameters>
           <VectorParam id="70"  name="sourceCrop">
            <InterpolatingParam id="71" interp="linr"  time="0/1" value="0" leadInLength="0/1"  />
            <InterpolatingParam id="72" interp="linr"  time="0/1" value="0" leadInLength="0/1"  />
            <InterpolatingParam id="73" interp="linr"  time="0/1" value="0" leadInLength="0/1"  />
            <InterpolatingParam id="74" interp="linr"  time="0/1" value="0" leadInLength="0/1"  />
           </VectorParam>
           <VectorParam id="75"  name="geometryCrop">
            <InterpolatingParam id="76" interp="linr"  time="-9999999/1" value="0" leadInLength="0/1"  />
            <InterpolatingParam id="77" interp="linr"  time="-9999999/1" value="0" leadInLength="0/1"  />
            <InterpolatingParam id="78" interp="linr"  time="-9999999/1" value="0" leadInLength="0/1"  />
            <InterpolatingParam id="79" interp="linr"  time="-9999999/1" value="0" leadInLength="0/1"  />
           </VectorParam>
           <InterpolatingParam id="80" interp="linr"  time="-9999999/1" value="1" leadInLength="0/1"  name="opacity"/>
          </Parameters>
          <Attributes>
           <Attribute id="81" value="" name="ident"/>
          </Attributes>
          <ExtraData>
           <Entry key="ZoomPanBin">
            <ZoomPanBin id="82"  >
             <ZoomPanKeyframes>
              <ZoomPanKeyframe id="83" timeRangeEnd="-9999999/1" timeRangeDuration="0/1" interpolaterName="linr"  />
             </ZoomPanKeyframes>
            </ZoomPanBin>
           </Entry>
          </ExtraData>
         </VMFile>
         <MetaData>
          <entry key="WinSubProjectDisplayName" val=""/>
         </MetaData>
        </UnifiedMedia>
        <UnifiedMedia id="84"  >
         <AudioTransition id="85" start="450" duration="44" >
          <Parameters>
           <InterpolatingParam id="86" interp="linr"  time="0/1" value="1" leadInLength="0/1"  name="volume"/>
           <Parameter id="87"  name="captions"/>
          </Parameters>
          <Effects>
           <GenericEffect id="88" name = "AudioTransition" >
            <Parameters>
            <Parameter id="89"   name="audioEdgeModType">
             <Keyframes>
             <Keyframe id="90"  time="0/1" value="0" leadInLength="0/1"  />
             </Keyframes>
            </Parameter>
            <Parameter id="91"   name="audioTransitionType">
             <Keyframes>
             <Keyframe id="92"  time="0/1" value="" leadInLength="0/1"  />
             </Keyframes>
            </Parameter>
            </Parameters>
            <MetaData>
            </MetaData>
           </GenericEffect>
          </Effects>
          <Attributes>
           <Attribute id="93" value="" name="ident"/>
           <Attribute id="94" value="0" name="sampleRate"/>
           <Attribute id="95" value="0" name="bitDepth"/>
           <Attribute id="96" value="1" name="gain"/>
           <Attribute id="97" value="0" name="mixToMono"/>
          </Attributes>
         </AudioTransition>
         <ImageTransition id="98" start="450" duration="44" >
          <Transformer>
           <VectorParam id="99"  name="translation">
            <InterpolatingParam id="100" interp="linr"  time="0/1" value="0" leadInLength="0/1"  />
            <InterpolatingParam id="101" interp="linr"  time="0/1" value="0" leadInLength="0/1"  />
            <InterpolatingParam id="102" interp="linr"  time="0/1" value="0" leadInLength="0/1"  />
           </VectorParam>
           <VectorParam id="103"  name="rotation">
            <InterpolatingParam id="104" interp="linr"  time="0/1" value="0" leadInLength="0/1"  />
            <InterpolatingParam id="105" interp="linr"  time="0/1" value="0" leadInLength="0/1"  />
            <InterpolatingParam id="106" interp="linr"  time="0/1" value="0" leadInLength="0/1"  />
           </VectorParam>
           <VectorParam id="107"  name="shear">
            <InterpolatingParam id="108" interp="linr"  time="0/1" value="0" leadInLength="0/1"  />
            <InterpolatingParam id="109" interp="linr"  time="0/1" value="0" leadInLength="0/1"  />
            <InterpolatingParam id="110" interp="linr"  time="0/1" value="0" leadInLength="0/1"  />
           </VectorParam>
           <VectorParam id="111"  name="scale">
            <InterpolatingParam id="112" interp="linr"  time="0/1" value="1" leadInLength="0/1"  />
            <InterpolatingParam id="113" interp="linr"  time="0/1" value="1" leadInLength="0/1"  />
            <InterpolatingParam id="114" interp="linr"  time="0/1" value="1" leadInLength="0/1"  />
           </VectorParam>
           <VectorParam id="115"  name="anchor">
            <InterpolatingParam id="116" interp="linr"  time="0/1" value="0" leadInLength="0/1"  />
            <InterpolatingParam id="117" interp="linr"  time="0/1" value="0" leadInLength="0/1"  />
            <InterpolatingParam id="118" interp="linr"  time="0/1" value="0" leadInLength="0/1"  />
           </VectorParam>
          </Transformer>
          <Parameters>
           <VectorParam id="119"  name="sourceCrop">
            <InterpolatingParam id="120" interp="linr"  time="0/1" value="0" leadInLength="0/1"  />
            <InterpolatingParam id="121" interp="linr"  time="0/1" value="0" leadInLength="0/1"  />
            <InterpolatingParam id="122" interp="linr"  time="0/1" value="0" leadInLength="0/1"  />
            <InterpolatingParam id="123" interp="linr"  time="0/1" value="0" leadInLength="0/1"  />
           </VectorParam>
           <VectorParam id="124"  name="geometryCrop">
            <InterpolatingParam id="125" interp="linr"  time="0/1" value="0" leadInLength="0/1"  />
            <InterpolatingParam id="126" interp="linr"  time="0/1" value="0" leadInLength="0/1"  />
            <InterpolatingParam id="127" interp="linr"  time="0/1" value="0" leadInLength="0/1"  />
            <InterpolatingParam id="128" interp="linr"  time="0/1" value="0" leadInLength="0/1"  />
           </VectorParam>
           <InterpolatingParam id="129" interp="linr"  time="0/1" value="1" leadInLength="0/1"  name="opacity"/>
          </Parameters>
          <Effects>
           <GenericEffect id="130" name = "VisualTransition" >
            <Parameters>
            <InterpolatingParam id="131" interp="linr"  time="0/1" value="0.5" leadInLength="0/1"   name="leftFramePercentage"/>
            <InterpolatingParam id="132" interp="linr"  time="0/1" value="0.5" leadInLength="0/1"   name="rightFramePercentage"/>
            <Parameter id="133"   name="visualEdgeModType">
             <Keyframes>
             <Keyframe id="134"  time="0/1" value="1" leadInLength="0/1"  />
             </Keyframes>
            </Parameter>
            <Parameter id="135"   name="visualTransitionType">
             <Keyframes>
             <Keyframe id="136"  time="0/1" value="RandomDissolve" leadInLength="0/1"  />
             </Keyframes>
            </Parameter>
            </Parameters>
            <MetaData>
            </MetaData>
           </GenericEffect>
          </Effects>
          <Attributes>
           <Attribute id="137" value="" name="ident"/>
          </Attributes>
          <ExtraData>
           <Entry key="ZoomPanBin">
            <ZoomPanBin id="138"  >
             <ZoomPanKeyframes>
             </ZoomPanKeyframes>
            </ZoomPanBin>
           </Entry>
          </ExtraData>
         </ImageTransition>
         <MetaData>
          <entry key="WinSubProjectDisplayName" val=""/>
         </MetaData>
        </UnifiedMedia>
        <IMFile id="139" start="494" duration="975" scalar="1/1" mediaStart="0/1" mediaDuration="1/1" trackNumber="0" src="24" trimStartSum="-8/1" >
         <Transformer>
          <VectorParam id="140"  name="translation">
           <InterpolatingParam id="141" interp="linr"  >
            <Keyframes>
            <Keyframe id="142"  time="-9999999/1" value="0" leadInLength="0/1"  />
            <Keyframe id="143"  time="142/1" value="98.711096993752406" leadInLength="64/1"  interpolater="leadin-linr"  />
            <Keyframe id="144"  time="579/1" value="-102.90446224563537" leadInLength="55/1"  interpolater="leadin-linr"  />
            <Keyframe id="145"  time="730/1" value="0" leadInLength="30/1"  interpolater="leadin-linr"  />
            </Keyframes>
           </InterpolatingParam>
           <InterpolatingParam id="146" interp="linr"  >
            <Keyframes>
            <Keyframe id="147"  time="-9999999/1" value="0" leadInLength="0/1"  />
            <Keyframe id="148"  time="142/1" value="-82.477961644109044" leadInLength="64/1"  interpolater="leadin-linr"  />
            <Keyframe id="149"  time="579/1" value="-75.198539857432181" leadInLength="55/1"  interpolater="leadin-linr"  />
            <Keyframe id="150"  time="730/1" value="0" leadInLength="30/1"  interpolater="leadin-linr"  />
            </Keyframes>
           </InterpolatingParam>
           <InterpolatingParam id="151" interp="linr"  >
            <Keyframes>
            <Keyframe id="152"  time="-9999999/1" value="0" leadInLength="0/1"  />
            <Keyframe id="153"  time="142/1" value="0" leadInLength="64/1"  interpolater="leadin-linr"  />
            <Keyframe id="154"  time="579/1" value="0" leadInLength="55/1"  interpolater="leadin-linr"  />
            <Keyframe id="155"  time="730/1" value="0" leadInLength="30/1"  interpolater="leadin-linr"  />
            </Keyframes>
           </InterpolatingParam>
          </VectorParam>
          <VectorParam id="156"  name="rotation">
           <InterpolatingParam id="157" interp="linr"  >
            <Keyframes>
            <Keyframe id="158"  time="-9999999/1" value="0" leadInLength="0/1"  />
            <Keyframe id="159"  time="142/1" value="0" leadInLength="64/1"  interpolater="leadin-linr"  />
            <Keyframe id="160"  time="579/1" value="0" leadInLength="55/1"  interpolater="leadin-linr"  />
            <Keyframe id="161"  time="730/1" value="0" leadInLength="30/1"  interpolater="leadin-linr"  />
            </Keyframes>
           </InterpolatingParam>
           <InterpolatingParam id="162" interp="linr"  >
            <Keyframes>
            <Keyframe id="163"  time="-9999999/1" value="0" leadInLength="0/1"  />
            <Keyframe id="164"  time="142/1" value="0" leadInLength="64/1"  interpolater="leadin-linr"  />
            <Keyframe id="165"  time="579/1" value="0" leadInLength="55/1"  interpolater="leadin-linr"  />
            <Keyframe id="166"  time="730/1" value="0" leadInLength="30/1"  interpolater="leadin-linr"  />
            </Keyframes>
           </InterpolatingParam>
           <InterpolatingParam id="167" interp="linr"  >
            <Keyframes>
            <Keyframe id="168"  time="-9999999/1" value="0" leadInLength="0/1"  />
            <Keyframe id="169"  time="142/1" value="0" leadInLength="64/1"  interpolater="leadin-linr"  />
            <Keyframe id="170"  time="579/1" value="0" leadInLength="55/1"  interpolater="leadin-linr"  />
            <Keyframe id="171"  time="730/1" value="0" leadInLength="30/1"  interpolater="leadin-linr"  />
            </Keyframes>
           </InterpolatingParam>
          </VectorParam>
          <VectorParam id="172"  name="shear">
           <InterpolatingParam id="173" interp="linr"  >
            <Keyframes>
            <Keyframe id="174"  time="-9999999/1" value="0" leadInLength="0/1"  />
            <Keyframe id="175"  time="142/1" value="0" leadInLength="64/1"  interpolater="leadin-linr"  />
            <Keyframe id="176"  time="579/1" value="0" leadInLength="55/1"  interpolater="leadin-linr"  />
            <Keyframe id="177"  time="730/1" value="0" leadInLength="30/1"  interpolater="leadin-linr"  />
            </Keyframes>
           </InterpolatingParam>
           <InterpolatingParam id="178" interp="linr"  >
            <Keyframes>
            <Keyframe id="179"  time="-9999999/1" value="0" leadInLength="0/1"  />
            <Keyframe id="180"  time="142/1" value="0" leadInLength="64/1"  interpolater="leadin-linr"  />
            <Keyframe id="181"  time="579/1" value="0" leadInLength="55/1"  interpolater="leadin-linr"  />
            <Keyframe id="182"  time="730/1" value="0" leadInLength="30/1"  interpolater="leadin-linr"  />
            </Keyframes>
           </InterpolatingParam>
           <InterpolatingParam id="183" interp="linr"  >
            <Keyframes>
            <Keyframe id="184"  time="-9999999/1" value="0" leadInLength="0/1"  />
            <Keyframe id="185"  time="142/1" value="0" leadInLength="64/1"  interpolater="leadin-linr"  />
            <Keyframe id="186"  time="579/1" value="0" leadInLength="55/1"  interpolater="leadin-linr"  />
            <Keyframe id="187"  time="730/1" value="0" leadInLength="30/1"  interpolater="leadin-linr"  />
            </Keyframes>
           </InterpolatingParam>
          </VectorParam>
          <VectorParam id="188"  name="scale">
           <InterpolatingParam id="189" interp="linr"  >
            <Keyframes>
            <Keyframe id="190"  time="-9999999/1" value="0.71570576540755471" leadInLength="0/1"  />
            <Keyframe id="191"  time="142/1" value="0.86201824652508374" leadInLength="64/1"  interpolater="leadin-linr"  />
            <Keyframe id="192"  time="579/1" value="0.86649355629229541" leadInLength="55/1"  interpolater="leadin-linr"  />
            <Keyframe id="193"  time="730/1" value="0.71570576540755471" leadInLength="30/1"  interpolater="leadin-linr"  />
            </Keyframes>
           </InterpolatingParam>
           <InterpolatingParam id="194" interp="linr"  >
            <Keyframes>
            <Keyframe id="195"  time="-9999999/1" value="0.71570576540755471" leadInLength="0/1"  />
            <Keyframe id="196"  time="142/1" value="0.86201824652508341" leadInLength="64/1"  interpolater="leadin-linr"  />
            <Keyframe id="197"  time="579/1" value="0.86649355629229374" leadInLength="55/1"  interpolater="leadin-linr"  />
            <Keyframe id="198"  time="730/1" value="0.71570576540755471" leadInLength="30/1"  interpolater="leadin-linr"  />
            </Keyframes>
           </InterpolatingParam>
           <InterpolatingParam id="199" interp="linr"  >
            <Keyframes>
            <Keyframe id="200"  time="-9999999/1" value="1" leadInLength="0/1"  />
            <Keyframe id="201"  time="142/1" value="0.99999999999999956" leadInLength="64/1"  interpolater="leadin-linr"  />
            <Keyframe id="202"  time="579/1" value="0.99999999999999845" leadInLength="55/1"  interpolater="leadin-linr"  />
            <Keyframe id="203"  time="730/1" value="1" leadInLength="30/1"  interpolater="leadin-linr"  />
            </Keyframes>
           </InterpolatingParam>
          </VectorParam>
          <VectorParam id="204"  name="anchor">
           <InterpolatingParam id="205" interp="linr"  time="0/1" value="0" leadInLength="0/1"  />
           <InterpolatingParam id="206" interp="linr"  time="0/1" value="0" leadInLength="0/1"  />
           <InterpolatingParam id="207" interp="linr"  time="0/1" value="0" leadInLength="0/1"  />
          </VectorParam>
         </Transformer>
         <Parameters>
          <VectorParam id="208"  name="sourceCrop">
           <InterpolatingParam id="209" interp="linr"  time="0/1" value="0" leadInLength="0/1"  />
           <InterpolatingParam id="210" interp="linr"  time="0/1" value="0" leadInLength="0/1"  />
           <InterpolatingParam id="211" interp="linr"  time="0/1" value="0" leadInLength="0/1"  />
           <InterpolatingParam id="212" interp="linr"  time="0/1" value="0" leadInLength="0/1"  />
          </VectorParam>
          <VectorParam id="213"  name="geometryCrop">
           <InterpolatingParam id="214" interp="linr"  >
            <Keyframes>
            <Keyframe id="215"  time="-9999999/1" value="0" leadInLength="0/1"  />
            <Keyframe id="216"  time="142/1" value="0" leadInLength="64/1"  interpolater="leadin-linr"  />
            <Keyframe id="217"  time="579/1" value="0" leadInLength="55/1"  interpolater="leadin-linr"  />
            <Keyframe id="218"  time="730/1" value="0" leadInLength="30/1"  interpolater="leadin-linr"  />
            </Keyframes>
           </InterpolatingParam>
           <InterpolatingParam id="219" interp="linr"  >
            <Keyframes>
            <Keyframe id="220"  time="-9999999/1" value="0" leadInLength="0/1"  />
            <Keyframe id="221"  time="142/1" value="0" leadInLength="64/1"  interpolater="leadin-linr"  />
            <Keyframe id="222"  time="579/1" value="0" leadInLength="55/1"  interpolater="leadin-linr"  />
            <Keyframe id="223"  time="730/1" value="0" leadInLength="30/1"  interpolater="leadin-linr"  />
            </Keyframes>
           </InterpolatingParam>
           <InterpolatingParam id="224" interp="linr"  >
            <Keyframes>
            <Keyframe id="225"  time="-9999999/1" value="0" leadInLength="0/1"  />
            <Keyframe id="226"  time="142/1" value="0" leadInLength="64/1"  interpolater="leadin-linr"  />
            <Keyframe id="227"  time="579/1" value="0" leadInLength="55/1"  interpolater="leadin-linr"  />
            <Keyframe id="228"  time="730/1" value="0" leadInLength="30/1"  interpolater="leadin-linr"  />
            </Keyframes>
           </InterpolatingParam>
           <InterpolatingParam id="229" interp="linr"  >
            <Keyframes>
            <Keyframe id="230"  time="-9999999/1" value="0" leadInLength="0/1"  />
            <Keyframe id="231"  time="142/1" value="0" leadInLength="64/1"  interpolater="leadin-linr"  />
            <Keyframe id="232"  time="579/1" value="0" leadInLength="55/1"  interpolater="leadin-linr"  />
            <Keyframe id="233"  time="730/1" value="0" leadInLength="30/1"  interpolater="leadin-linr"  />
            </Keyframes>
           </InterpolatingParam>
          </VectorParam>
          <InterpolatingParam id="234" interp="linr"  name="opacity">
           <Keyframes>
           <Keyframe id="235"  time="-9999999/1" value="1" leadInLength="0/1"  />
           <Keyframe id="236"  time="142/1" value="1" leadInLength="64/1"  interpolater="leadin-linr"  />
           <Keyframe id="237"  time="579/1" value="1" leadInLength="55/1"  interpolater="leadin-linr"  />
           <Keyframe id="238"  time="730/1" value="1" leadInLength="30/1"  interpolater="leadin-linr"  />
           </Keyframes>
          </InterpolatingParam>
         </Parameters>
         <Attributes>
          <Attribute id="239" value="" name="ident"/>
         </Attributes>
         <MetaData>
          <entry key="WinSubProjectDisplayName" val=""/>
         </MetaData>
         <ExtraData>
          <Entry key="ZoomPanBin">
           <ZoomPanBin id="240"  >
            <ZoomPanKeyframes>
             <ZoomPanKeyframe id="241" timeRangeEnd="-9999999/1" timeRangeDuration="0/1" interpolaterName="linr"  />
             <ZoomPanKeyframe id="242" timeRangeEnd="579/1" timeRangeDuration="55/1" interpolaterName="linr"  />
             <ZoomPanKeyframe id="243" timeRangeEnd="142/1" timeRangeDuration="64/1" interpolaterName="linr"  />
             <ZoomPanKeyframe id="244" timeRangeEnd="730/1" timeRangeDuration="30/1" interpolaterName="linr"  />
            </ZoomPanKeyframes>
           </ZoomPanBin>
          </Entry>
         </ExtraData>
        </IMFile>
        <UnifiedMedia id="245"  >
         <AMFile id="246" start="1469" duration="68" scalar="1/1" mediaStart="1463/1" mediaDuration="68/1" trackNumber="1" src="21" channelNumber="0,1" >
          <Parameters>
           <InterpolatingParam id="247" interp="linr"  name="volume">
            <Keyframes>
            <Keyframe id="248"  time="-1/1" value="1" leadInLength="0/1"  />
            <Keyframe id="249"  time="0/1" value="0" leadInLength="0/1"  />
            <Keyframe id="250"  time="8952/1" value="0" leadInLength="0/1"  />
            <Keyframe id="251"  time="8953/1" value="1" leadInLength="0/1"  />
            </Keyframes>
           </InterpolatingParam>
           <Parameter id="252"  name="captions"/>
          </Parameters>
          <Attributes>
           <Attribute id="253" value="" name="ident"/>
           <Attribute id="254" value="44100" name="sampleRate"/>
           <Attribute id="255" value="16" name="bitDepth"/>
           <Attribute id="256" value="1" name="gain"/>
           <Attribute id="257" value="0" name="mixToMono"/>
          </Attributes>
         </AMFile>
         <VMFile id="258" start="1469" duration="68" scalar="1/1" mediaStart="1463/1" mediaDuration="68/1" trackNumber="0" src="21" >
          <Transformer>
           <VectorParam id="259"  name="translation">
            <InterpolatingParam id="260" interp="linr"  time="-9999999/1" value="0" leadInLength="0/1"  />
            <InterpolatingParam id="261" interp="linr"  time="-9999999/1" value="0" leadInLength="0/1"  />
            <InterpolatingParam id="262" interp="linr"  time="-9999999/1" value="0" leadInLength="0/1"  />
           </VectorParam>
           <VectorParam id="263"  name="rotation">
            <InterpolatingParam id="264" interp="linr"  time="-9999999/1" value="0" leadInLength="0/1"  />
            <InterpolatingParam id="265" interp="linr"  time="-9999999/1" value="0" leadInLength="0/1"  />
            <InterpolatingParam id="266" interp="linr"  time="-9999999/1" value="0" leadInLength="0/1"  />
           </VectorParam>
           <VectorParam id="267"  name="shear">
            <InterpolatingParam id="268" interp="linr"  time="-9999999/1" value="0" leadInLength="0/1"  />
            <InterpolatingParam id="269" interp="linr"  time="-9999999/1" value="0" leadInLength="0/1"  />
            <InterpolatingParam id="270" interp="linr"  time="-9999999/1" value="0" leadInLength="0/1"  />
           </VectorParam>
           <VectorParam id="271"  name="scale">
            <InterpolatingParam id="272" interp="linr"  time="-9999999/1" value="1" leadInLength="0/1"  />
            <InterpolatingParam id="273" interp="linr"  time="-9999999/1" value="1" leadInLength="0/1"  />
            <InterpolatingParam id="274" interp="linr"  time="-9999999/1" value="1" leadInLength="0/1"  />
           </VectorParam>
           <VectorParam id="275"  name="anchor">
            <InterpolatingParam id="276" interp="linr"  time="0/1" value="0" leadInLength="0/1"  />
            <InterpolatingParam id="277" interp="linr"  time="0/1" value="0" leadInLength="0/1"  />
            <InterpolatingParam id="278" interp="linr"  time="0/1" value="0" leadInLength="0/1"  />
           </VectorParam>
          </Transformer>
          <Parameters>
           <VectorParam id="279"  name="sourceCrop">
            <InterpolatingParam id="280" interp="linr"  time="0/1" value="0" leadInLength="0/1"  />
            <InterpolatingParam id="281" interp="linr"  time="0/1" value="0" leadInLength="0/1"  />
            <InterpolatingParam id="282" interp="linr"  time="0/1" value="0" leadInLength="0/1"  />
            <InterpolatingParam id="283" interp="linr"  time="0/1" value="0" leadInLength="0/1"  />
           </VectorParam>
           <VectorParam id="284"  name="geometryCrop">
            <InterpolatingParam id="285" interp="linr"  time="-9999999/1" value="0" leadInLength="0/1"  />
            <InterpolatingParam id="286" interp="linr"  time="-9999999/1" value="0" leadInLength="0/1"  />
            <InterpolatingParam id="287" interp="linr"  time="-9999999/1" value="0" leadInLength="0/1"  />
            <InterpolatingParam id="288" interp="linr"  time="-9999999/1" value="0" leadInLength="0/1"  />
           </VectorParam>
           <InterpolatingParam id="289" interp="linr"  time="-9999999/1" value="1" leadInLength="0/1"  name="opacity"/>
          </Parameters>
          <Attributes>
           <Attribute id="290" value="" name="ident"/>
          </Attributes>
          <ExtraData>
           <Entry key="ZoomPanBin">
            <ZoomPanBin id="291"  >
             <ZoomPanKeyframes>
              <ZoomPanKeyframe id="292" timeRangeEnd="-9999999/1" timeRangeDuration="0/1" interpolaterName="linr"  />
             </ZoomPanKeyframes>
            </ZoomPanBin>
           </Entry>
          </ExtraData>
         </VMFile>
         <MetaData>
          <entry key="WinSubProjectDisplayName" val=""/>
         </MetaData>
        </UnifiedMedia>
        <UnifiedMedia id="293"  >
         <AMFile id="294" start="1537" duration="34" scalar="1/1" mediaStart="1531/1" mediaDuration="34/1" trackNumber="1" src="21" channelNumber="0,1" >
          <Parameters>
           <InterpolatingParam id="295" interp="linr"  name="volume">
            <Keyframes>
            <Keyframe id="296"  time="-1/1" value="1" leadInLength="0/1"  />
            <Keyframe id="297"  time="0/1" value="0" leadInLength="0/1"  />
            <Keyframe id="298"  time="8952/1" value="0" leadInLength="0/1"  />
            <Keyframe id="299"  time="8953/1" value="1" leadInLength="0/1"  />
            </Keyframes>
           </InterpolatingParam>
           <Parameter id="300"  name="captions"/>
          </Parameters>
          <Attributes>
           <Attribute id="301" value="" name="ident"/>
           <Attribute id="302" value="44100" name="sampleRate"/>
           <Attribute id="303" value="16" name="bitDepth"/>
           <Attribute id="304" value="1" name="gain"/>
           <Attribute id="305" value="0" name="mixToMono"/>
          </Attributes>
         </AMFile>
         <VMFile id="306" start="1537" duration="34" scalar="1/1" mediaStart="1531/1" mediaDuration="34/1" trackNumber="0" src="21" >
          <Transformer>
           <VectorParam id="307"  name="translation">
            <InterpolatingParam id="308" interp="linr"  time="-9999999/1" value="0" leadInLength="0/1"  />
            <InterpolatingParam id="309" interp="linr"  time="-9999999/1" value="0" leadInLength="0/1"  />
            <InterpolatingParam id="310" interp="linr"  time="-9999999/1" value="0" leadInLength="0/1"  />
           </VectorParam>
           <VectorParam id="311"  name="rotation">
            <InterpolatingParam id="312" interp="linr"  time="-9999999/1" value="0" leadInLength="0/1"  />
            <InterpolatingParam id="313" interp="linr"  time="-9999999/1" value="0" leadInLength="0/1"  />
            <InterpolatingParam id="314" interp="linr"  time="-9999999/1" value="0" leadInLength="0/1"  />
           </VectorParam>
           <VectorParam id="315"  name="shear">
            <InterpolatingParam id="316" interp="linr"  time="-9999999/1" value="0" leadInLength="0/1"  />
            <InterpolatingParam id="317" interp="linr"  time="-9999999/1" value="0" leadInLength="0/1"  />
            <InterpolatingParam id="318" interp="linr"  time="-9999999/1" value="0" leadInLength="0/1"  />
           </VectorParam>
           <VectorParam id="319"  name="scale">
            <InterpolatingParam id="320" interp="linr"  time="-9999999/1" value="1" leadInLength="0/1"  />
            <InterpolatingParam id="321" interp="linr"  time="-9999999/1" value="1" leadInLength="0/1"  />
            <InterpolatingParam id="322" interp="linr"  time="-9999999/1" value="1" leadInLength="0/1"  />
           </VectorParam>
           <VectorParam id="323"  name="anchor">
            <InterpolatingParam id="324" interp="linr"  time="0/1" value="0" leadInLength="0/1"  />
            <InterpolatingParam id="325" interp="linr"  time="0/1" value="0" leadInLength="0/1"  />
            <InterpolatingParam id="326" interp="linr"  time="0/1" value="0" leadInLength="0/1"  />
           </VectorParam>
          </Transformer>
          <Parameters>
           <VectorParam id="327"  name="sourceCrop">
            <InterpolatingParam id="328" interp="linr"  time="0/1" value="0" leadInLength="0/1"  />
            <InterpolatingParam id="329" interp="linr"  time="0/1" value="0" leadInLength="0/1"  />
            <InterpolatingParam id="330" interp="linr"  time="0/1" value="0" leadInLength="0/1"  />
            <InterpolatingParam id="331" interp="linr"  time="0/1" value="0" leadInLength="0/1"  />
           </VectorParam>
           <VectorParam id="332"  name="geometryCrop">
            <InterpolatingParam id="333" interp="linr"  time="-9999999/1" value="0" leadInLength="0/1"  />
            <InterpolatingParam id="334" interp="linr"  time="-9999999/1" value="0" leadInLength="0/1"  />
            <InterpolatingParam id="335" interp="linr"  time="-9999999/1" value="0" leadInLength="0/1"  />
            <InterpolatingParam id="336" interp="linr"  time="-9999999/1" value="0" leadInLength="0/1"  />
           </VectorParam>
           <InterpolatingParam id="337" interp="linr"  time="-9999999/1" value="1" leadInLength="0/1"  name="opacity"/>
          </Parameters>
          <Attributes>
           <Attribute id="338" value="" name="ident"/>
          </Attributes>
          <ExtraData>
           <Entry key="ZoomPanBin">
            <ZoomPanBin id="339"  >
             <ZoomPanKeyframes>
              <ZoomPanKeyframe id="340" timeRangeEnd="-9999999/1" timeRangeDuration="0/1" interpolaterName="linr"  />
             </ZoomPanKeyframes>
            </ZoomPanBin>
           </Entry>
          </ExtraData>
         </VMFile>
         <MetaData>
          <entry key="WinSubProjectDisplayName" val=""/>
         </MetaData>
        </UnifiedMedia>
        <UnifiedMedia id="341"  >
         <AMFile id="342" start="1571" duration="70" scalar="1/1" mediaStart="1652/1" mediaDuration="70/1" trackNumber="1" src="21" channelNumber="0,1" >
          <Parameters>
           <InterpolatingParam id="343" interp="linr"  name="volume">
            <Keyframes>
            <Keyframe id="344"  time="-1/1" value="1" leadInLength="0/1"  />
            <Keyframe id="345"  time="0/1" value="0" leadInLength="0/1"  />
            <Keyframe id="346"  time="8952/1" value="0" leadInLength="0/1"  />
            <Keyframe id="347"  time="8953/1" value="1" leadInLength="0/1"  />
            </Keyframes>
           </InterpolatingParam>
           <Parameter id="348"  name="captions"/>
          </Parameters>
          <Attributes>
           <Attribute id="349" value="" name="ident"/>
           <Attribute id="350" value="44100" name="sampleRate"/>
           <Attribute id="351" value="16" name="bitDepth"/>
           <Attribute id="352" value="1" name="gain"/>
           <Attribute id="353" value="0" name="mixToMono"/>
          </Attributes>
         </AMFile>
         <VMFile id="354" start="1571" duration="70" scalar="1/1" mediaStart="1652/1" mediaDuration="70/1" trackNumber="0" src="21" >
          <Transformer>
           <VectorParam id="355"  name="translation">
            <InterpolatingParam id="356" interp="linr"  time="-9999999/1" value="0" leadInLength="0/1"  />
            <InterpolatingParam id="357" interp="linr"  time="-9999999/1" value="0" leadInLength="0/1"  />
            <InterpolatingParam id="358" interp="linr"  time="-9999999/1" value="0" leadInLength="0/1"  />
           </VectorParam>
           <VectorParam id="359"  name="rotation">
            <InterpolatingParam id="360" interp="linr"  time="-9999999/1" value="0" leadInLength="0/1"  />
            <InterpolatingParam id="361" interp="linr"  time="-9999999/1" value="0" leadInLength="0/1"  />
            <InterpolatingParam id="362" interp="linr"  time="-9999999/1" value="0" leadInLength="0/1"  />
           </VectorParam>
           <VectorParam id="363"  name="shear">
            <InterpolatingParam id="364" interp="linr"  time="-9999999/1" value="0" leadInLength="0/1"  />
            <InterpolatingParam id="365" interp="linr"  time="-9999999/1" value="0" leadInLength="0/1"  />
            <InterpolatingParam id="366" interp="linr"  time="-9999999/1" value="0" leadInLength="0/1"  />
           </VectorParam>
           <VectorParam id="367"  name="scale">
            <InterpolatingParam id="368" interp="linr"  time="-9999999/1" value="1" leadInLength="0/1"  />
            <InterpolatingParam id="369" interp="linr"  time="-9999999/1" value="1" leadInLength="0/1"  />
            <InterpolatingParam id="370" interp="linr"  time="-9999999/1" value="1" leadInLength="0/1"  />
           </VectorParam>
           <VectorParam id="371"  name="anchor">
            <InterpolatingParam id="372" interp="linr"  time="0/1" value="0" leadInLength="0/1"  />
            <InterpolatingParam id="373" interp="linr"  time="0/1" value="0" leadInLength="0/1"  />
            <InterpolatingParam id="374" interp="linr"  time="0/1" value="0" leadInLength="0/1"  />
           </VectorParam>
          </Transformer>
          <Parameters>
           <VectorParam id="375"  name="sourceCrop">
            <InterpolatingParam id="376" interp="linr"  time="0/1" value="0" leadInLength="0/1"  />
            <InterpolatingParam id="377" interp="linr"  time="0/1" value="0" leadInLength="0/1"  />
            <InterpolatingParam id="378" interp="linr"  time="0/1" value="0" leadInLength="0/1"  />
            <InterpolatingParam id="379" interp="linr"  time="0/1" value="0" leadInLength="0/1"  />
           </VectorParam>
           <VectorParam id="380"  name="geometryCrop">
            <InterpolatingParam id="381" interp="linr"  time="-9999999/1" value="0" leadInLength="0/1"  />
            <InterpolatingParam id="382" interp="linr"  time="-9999999/1" value="0" leadInLength="0/1"  />
            <InterpolatingParam id="383" interp="linr"  time="-9999999/1" value="0" leadInLength="0/1"  />
            <InterpolatingParam id="384" interp="linr"  time="-9999999/1" value="0" leadInLength="0/1"  />
           </VectorParam>
           <InterpolatingParam id="385" interp="linr"  time="-9999999/1" value="1" leadInLength="0/1"  name="opacity"/>
          </Parameters>
          <Attributes>
           <Attribute id="386" value="" name="ident"/>
          </Attributes>
          <ExtraData>
           <Entry key="ZoomPanBin">
            <ZoomPanBin id="387"  >
             <ZoomPanKeyframes>
              <ZoomPanKeyframe id="388" timeRangeEnd="-9999999/1" timeRangeDuration="0/1" interpolaterName="linr"  />
             </ZoomPanKeyframes>
            </ZoomPanBin>
           </Entry>
          </ExtraData>
         </VMFile>
         <MetaData>
          <entry key="WinSubProjectDisplayName" val=""/>
         </MetaData>
        </UnifiedMedia>
        <UnifiedMedia id="389"  >
         <AMFile id="390" start="1641" duration="162" scalar="1/1" mediaStart="1780/1" mediaDuration="162/1" trackNumber="1" src="21" channelNumber="0,1" >
          <Parameters>
           <InterpolatingParam id="391" interp="linr"  name="volume">
            <Keyframes>
            <Keyframe id="392"  time="-1/1" value="1" leadInLength="0/1"  />
            <Keyframe id="393"  time="0/1" value="0" leadInLength="0/1"  />
            <Keyframe id="394"  time="8952/1" value="0" leadInLength="0/1"  />
            <Keyframe id="395"  time="8953/1" value="1" leadInLength="0/1"  />
            </Keyframes>
           </InterpolatingParam>
           <Parameter id="396"  name="captions"/>
          </Parameters>
          <Attributes>
           <Attribute id="397" value="" name="ident"/>
           <Attribute id="398" value="44100" name="sampleRate"/>
           <Attribute id="399" value="16" name="bitDepth"/>
           <Attribute id="400" value="1" name="gain"/>
           <Attribute id="401" value="0" name="mixToMono"/>
          </Attributes>
         </AMFile>
         <VMFile id="402" start="1641" duration="162" scalar="1/1" mediaStart="1780/1" mediaDuration="162/1" trackNumber="0" src="21" >
          <Transformer>
           <VectorParam id="403"  name="translation">
            <InterpolatingParam id="404" interp="linr"  time="-9999999/1" value="0" leadInLength="0/1"  />
            <InterpolatingParam id="405" interp="linr"  time="-9999999/1" value="0" leadInLength="0/1"  />
            <InterpolatingParam id="406" interp="linr"  time="-9999999/1" value="0" leadInLength="0/1"  />
           </VectorParam>
           <VectorParam id="407"  name="rotation">
            <InterpolatingParam id="408" interp="linr"  time="-9999999/1" value="0" leadInLength="0/1"  />
            <InterpolatingParam id="409" interp="linr"  time="-9999999/1" value="0" leadInLength="0/1"  />
            <InterpolatingParam id="410" interp="linr"  time="-9999999/1" value="0" leadInLength="0/1"  />
           </VectorParam>
           <VectorParam id="411"  name="shear">
            <InterpolatingParam id="412" interp="linr"  time="-9999999/1" value="0" leadInLength="0/1"  />
            <InterpolatingParam id="413" interp="linr"  time="-9999999/1" value="0" leadInLength="0/1"  />
            <InterpolatingParam id="414" interp="linr"  time="-9999999/1" value="0" leadInLength="0/1"  />
           </VectorParam>
           <VectorParam id="415"  name="scale">
            <InterpolatingParam id="416" interp="linr"  time="-9999999/1" value="1" leadInLength="0/1"  />
            <InterpolatingParam id="417" interp="linr"  time="-9999999/1" value="1" leadInLength="0/1"  />
            <InterpolatingParam id="418" interp="linr"  time="-9999999/1" value="1" leadInLength="0/1"  />
           </VectorParam>
           <VectorParam id="419"  name="anchor">
            <InterpolatingParam id="420" interp="linr"  time="0/1" value="0" leadInLength="0/1"  />
            <InterpolatingParam id="421" interp="linr"  time="0/1" value="0" leadInLength="0/1"  />
            <InterpolatingParam id="422" interp="linr"  time="0/1" value="0" leadInLength="0/1"  />
           </VectorParam>
          </Transformer>
          <Parameters>
           <VectorParam id="423"  name="sourceCrop">
            <InterpolatingParam id="424" interp="linr"  time="0/1" value="0" leadInLength="0/1"  />
            <InterpolatingParam id="425" interp="linr"  time="0/1" value="0" leadInLength="0/1"  />
            <InterpolatingParam id="426" interp="linr"  time="0/1" value="0" leadInLength="0/1"  />
            <InterpolatingParam id="427" interp="linr"  time="0/1" value="0" leadInLength="0/1"  />
           </VectorParam>
           <VectorParam id="428"  name="geometryCrop">
            <InterpolatingParam id="429" interp="linr"  time="-9999999/1" value="0" leadInLength="0/1"  />
            <InterpolatingParam id="430" interp="linr"  time="-9999999/1" value="0" leadInLength="0/1"  />
            <InterpolatingParam id="431" interp="linr"  time="-9999999/1" value="0" leadInLength="0/1"  />
            <InterpolatingParam id="432" interp="linr"  time="-9999999/1" value="0" leadInLength="0/1"  />
           </VectorParam>
           <InterpolatingParam id="433" interp="linr"  time="-9999999/1" value="1" leadInLength="0/1"  name="opacity"/>
          </Parameters>
          <Attributes>
           <Attribute id="434" value="" name="ident"/>
          </Attributes>
          <ExtraData>
           <Entry key="ZoomPanBin">
            <ZoomPanBin id="435"  >
             <ZoomPanKeyframes>
              <ZoomPanKeyframe id="436" timeRangeEnd="-9999999/1" timeRangeDuration="0/1" interpolaterName="linr"  />
             </ZoomPanKeyframes>
            </ZoomPanBin>
           </Entry>
          </ExtraData>
         </VMFile>
         <MetaData>
          <entry key="WinSubProjectDisplayName" val=""/>
         </MetaData>
        </UnifiedMedia>
        <UnifiedMedia id="437"  >
         <AMFile id="438" start="1803" duration="1036" scalar="1/1" mediaStart="1994/1" mediaDuration="1036/1" trackNumber="1" src="21" channelNumber="0,1" >
          <Parameters>
           <InterpolatingParam id="439" interp="linr"  name="volume">
            <Keyframes>
            <Keyframe id="440"  time="-1/1" value="1" leadInLength="0/1"  />
            <Keyframe id="441"  time="0/1" value="0" leadInLength="0/1"  />
            <Keyframe id="442"  time="8952/1" value="0" leadInLength="0/1"  />
            <Keyframe id="443"  time="8953/1" value="1" leadInLength="0/1"  />
            </Keyframes>
           </InterpolatingParam>
           <Parameter id="444"  name="captions"/>
          </Parameters>
          <Attributes>
           <Attribute id="445" value="" name="ident"/>
           <Attribute id="446" value="44100" name="sampleRate"/>
           <Attribute id="447" value="16" name="bitDepth"/>
           <Attribute id="448" value="1" name="gain"/>
           <Attribute id="449" value="0" name="mixToMono"/>
          </Attributes>
         </AMFile>
         <VMFile id="450" start="1803" duration="1036" scalar="1/1" mediaStart="1994/1" mediaDuration="1036/1" trackNumber="0" src="21" >
          <Transformer>
           <VectorParam id="451"  name="translation">
            <InterpolatingParam id="452" interp="linr"  time="-9999999/1" value="0" leadInLength="0/1"  />
            <InterpolatingParam id="453" interp="linr"  time="-9999999/1" value="0" leadInLength="0/1"  />
            <InterpolatingParam id="454" interp="linr"  time="-9999999/1" value="0" leadInLength="0/1"  />
           </VectorParam>
           <VectorParam id="455"  name="rotation">
            <InterpolatingParam id="456" interp="linr"  time="-9999999/1" value="0" leadInLength="0/1"  />
            <InterpolatingParam id="457" interp="linr"  time="-9999999/1" value="0" leadInLength="0/1"  />
            <InterpolatingParam id="458" interp="linr"  time="-9999999/1" value="0" leadInLength="0/1"  />
           </VectorParam>
           <VectorParam id="459"  name="shear">
            <InterpolatingParam id="460" interp="linr"  time="-9999999/1" value="0" leadInLength="0/1"  />
            <InterpolatingParam id="461" interp="linr"  time="-9999999/1" value="0" leadInLength="0/1"  />
            <InterpolatingParam id="462" interp="linr"  time="-9999999/1" value="0" leadInLength="0/1"  />
           </VectorParam>
           <VectorParam id="463"  name="scale">
            <InterpolatingParam id="464" interp="linr"  time="-9999999/1" value="1" leadInLength="0/1"  />
            <InterpolatingParam id="465" interp="linr"  time="-9999999/1" value="1" leadInLength="0/1"  />
            <InterpolatingParam id="466" interp="linr"  time="-9999999/1" value="1" leadInLength="0/1"  />
           </VectorParam>
           <VectorParam id="467"  name="anchor">
            <InterpolatingParam id="468" interp="linr"  time="0/1" value="0" leadInLength="0/1"  />
            <InterpolatingParam id="469" interp="linr"  time="0/1" value="0" leadInLength="0/1"  />
            <InterpolatingParam id="470" interp="linr"  time="0/1" value="0" leadInLength="0/1"  />
           </VectorParam>
          </Transformer>
          <Parameters>
           <VectorParam id="471"  name="sourceCrop">
            <InterpolatingParam id="472" interp="linr"  time="0/1" value="0" leadInLength="0/1"  />
            <InterpolatingParam id="473" interp="linr"  time="0/1" value="0" leadInLength="0/1"  />
            <InterpolatingParam id="474" interp="linr"  time="0/1" value="0" leadInLength="0/1"  />
            <InterpolatingParam id="475" interp="linr"  time="0/1" value="0" leadInLength="0/1"  />
           </VectorParam>
           <VectorParam id="476"  name="geometryCrop">
            <InterpolatingParam id="477" interp="linr"  time="-9999999/1" value="0" leadInLength="0/1"  />
            <InterpolatingParam id="478" interp="linr"  time="-9999999/1" value="0" leadInLength="0/1"  />
            <InterpolatingParam id="479" interp="linr"  time="-9999999/1" value="0" leadInLength="0/1"  />
            <InterpolatingParam id="480" interp="linr"  time="-9999999/1" value="0" leadInLength="0/1"  />
           </VectorParam>
           <InterpolatingParam id="481" interp="linr"  time="-9999999/1" value="1" leadInLength="0/1"  name="opacity"/>
          </Parameters>
          <Attributes>
           <Attribute id="482" value="" name="ident"/>
          </Attributes>
          <ExtraData>
           <Entry key="ZoomPanBin">
            <ZoomPanBin id="483"  >
             <ZoomPanKeyframes>
              <ZoomPanKeyframe id="484" timeRangeEnd="-9999999/1" timeRangeDuration="0/1" interpolaterName="linr"  />
             </ZoomPanKeyframes>
            </ZoomPanBin>
           </Entry>
          </ExtraData>
         </VMFile>
         <MetaData>
          <entry key="WinSubProjectDisplayName" val=""/>
         </MetaData>
        </UnifiedMedia>
        <UnifiedMedia id="485"  >
         <AMFile id="486" start="2839" duration="120" scalar="120/139" mediaStart="3030/1" mediaDuration="139/1" trackNumber="1" src="21" channelNumber="0,1" >
          <Parameters>
           <InterpolatingParam id="487" interp="linr"  name="volume">
            <Keyframes>
            <Keyframe id="488"  time="-1/1" value="1" leadInLength="0/1"  />
            <Keyframe id="489"  time="0/1" value="0" leadInLength="0/1"  />
            <Keyframe id="490"  time="8952/1" value="0" leadInLength="0/1"  />
            <Keyframe id="491"  time="8953/1" value="1" leadInLength="0/1"  />
            </Keyframes>
           </InterpolatingParam>
           <Parameter id="492"  name="captions"/>
          </Parameters>
          <Attributes>
           <Attribute id="493" value="" name="ident"/>
           <Attribute id="494" value="44100" name="sampleRate"/>
           <Attribute id="495" value="16" name="bitDepth"/>
           <Attribute id="496" value="1" name="gain"/>
           <Attribute id="497" value="0" name="mixToMono"/>
          </Attributes>
         </AMFile>
         <VMFile id="498" start="2839" duration="120" scalar="120/139" mediaStart="3030/1" mediaDuration="139/1" trackNumber="0" src="21" >
          <Transformer>
           <VectorParam id="499"  name="translation">
            <InterpolatingParam id="500" interp="linr"  time="-9999999/1" value="0" leadInLength="0/1"  />
            <InterpolatingParam id="501" interp="linr"  time="-9999999/1" value="0" leadInLength="0/1"  />
            <InterpolatingParam id="502" interp="linr"  time="-9999999/1" value="0" leadInLength="0/1"  />
           </VectorParam>
           <VectorParam id="503"  name="rotation">
            <InterpolatingParam id="504" interp="linr"  time="-9999999/1" value="0" leadInLength="0/1"  />
            <InterpolatingParam id="505" interp="linr"  time="-9999999/1" value="0" leadInLength="0/1"  />
            <InterpolatingParam id="506" interp="linr"  time="-9999999/1" value="0" leadInLength="0/1"  />
           </VectorParam>
           <VectorParam id="507"  name="shear">
            <InterpolatingParam id="508" interp="linr"  time="-9999999/1" value="0" leadInLength="0/1"  />
            <InterpolatingParam id="509" interp="linr"  time="-9999999/1" value="0" leadInLength="0/1"  />
            <InterpolatingParam id="510" interp="linr"  time="-9999999/1" value="0" leadInLength="0/1"  />
           </VectorParam>
           <VectorParam id="511"  name="scale">
            <InterpolatingParam id="512" interp="linr"  time="-9999999/1" value="1" leadInLength="0/1"  />
            <InterpolatingParam id="513" interp="linr"  time="-9999999/1" value="1" leadInLength="0/1"  />
            <InterpolatingParam id="514" interp="linr"  time="-9999999/1" value="1" leadInLength="0/1"  />
           </VectorParam>
           <VectorParam id="515"  name="anchor">
            <InterpolatingParam id="516" interp="linr"  time="0/1" value="0" leadInLength="0/1"  />
            <InterpolatingParam id="517" interp="linr"  time="0/1" value="0" leadInLength="0/1"  />
            <InterpolatingParam id="518" interp="linr"  time="0/1" value="0" leadInLength="0/1"  />
           </VectorParam>
          </Transformer>
          <Parameters>
           <VectorParam id="519"  name="sourceCrop">
            <InterpolatingParam id="520" interp="linr"  time="0/1" value="0" leadInLength="0/1"  />
            <InterpolatingParam id="521" interp="linr"  time="0/1" value="0" leadInLength="0/1"  />
            <InterpolatingParam id="522" interp="linr"  time="0/1" value="0" leadInLength="0/1"  />
            <InterpolatingParam id="523" interp="linr"  time="0/1" value="0" leadInLength="0/1"  />
           </VectorParam>
           <VectorParam id="524"  name="geometryCrop">
            <InterpolatingParam id="525" interp="linr"  time="-9999999/1" value="0" leadInLength="0/1"  />
            <InterpolatingParam id="526" interp="linr"  time="-9999999/1" value="0" leadInLength="0/1"  />
            <InterpolatingParam id="527" interp="linr"  time="-9999999/1" value="0" leadInLength="0/1"  />
            <InterpolatingParam id="528" interp="linr"  time="-9999999/1" value="0" leadInLength="0/1"  />
           </VectorParam>
           <InterpolatingParam id="529" interp="linr"  time="-9999999/1" value="1" leadInLength="0/1"  name="opacity"/>
          </Parameters>
          <Attributes>
           <Attribute id="530" value="" name="ident"/>
          </Attributes>
          <ExtraData>
           <Entry key="ZoomPanBin">
            <ZoomPanBin id="531"  >
             <ZoomPanKeyframes>
              <ZoomPanKeyframe id="532" timeRangeEnd="-9999999/1" timeRangeDuration="0/1" interpolaterName="linr"  />
             </ZoomPanKeyframes>
            </ZoomPanBin>
           </Entry>
          </ExtraData>
         </VMFile>
         <MetaData>
          <entry key="WinSubProjectDisplayName" val=""/>
         </MetaData>
        </UnifiedMedia>
        <UnifiedMedia id="533"  >
         <AMFile id="534" start="2959" duration="241" scalar="241/222" mediaStart="3169/1" mediaDuration="222/1" trackNumber="1" src="21" channelNumber="0,1" >
          <Parameters>
           <InterpolatingParam id="535" interp="linr"  name="volume">
            <Keyframes>
            <Keyframe id="536"  time="-1/1" value="1" leadInLength="0/1"  />
            <Keyframe id="537"  time="0/1" value="0" leadInLength="0/1"  />
            <Keyframe id="538"  time="8952/1" value="0" leadInLength="0/1"  />
            <Keyframe id="539"  time="8953/1" value="1" leadInLength="0/1"  />
            </Keyframes>
           </InterpolatingParam>
           <Parameter id="540"  name="captions"/>
          </Parameters>
          <Effects>
           <GenericEffect id="541" name = "WinCompression" >
            <Parameters>
            <InterpolatingParam id="542" interp="linr"  time="0/1" value="0" leadInLength="0/1"   name="attack"/>
            <InterpolatingParam id="543" interp="linr"  time="0/1" value="9" leadInLength="0/1"   name="gain"/>
            <Parameter id="544"   name="preset">
             <Keyframes>
             <Keyframe id="545"  time="0/1" value="1" leadInLength="0/1"  />
             </Keyframes>
            </Parameter>
            <InterpolatingParam id="546" interp="linr"  time="0/1" value="10" leadInLength="0/1"   name="ratio"/>
            <InterpolatingParam id="547" interp="linr"  time="0/1" value="3500" leadInLength="0/1"   name="release"/>
            <InterpolatingParam id="548" interp="linr"  time="0/1" value="-20" leadInLength="0/1"   name="threshold"/>
            </Parameters>
            <MetaData>
             <entry key="effectIndex" val="0"/>
            </MetaData>
           </GenericEffect>
           <GenericEffect id="549" name = "NoiseReduction" >
            <Parameters>
            <InterpolatingParam id="550" interp="linr"  time="0/1" value="20" leadInLength="0/1"   name="denoiserAmount"/>
            <InterpolatingParam id="551" interp="linr"  time="0/1" value="0" leadInLength="0/1"   name="denoiserThreshold"/>
            <Parameter id="552"   name="noiseProfile">
             <Keyframes>
             <Keyframe id="553"  time="0/1" value="FBAAAAIAAABErAAAAQIAAFtafcIfp0TCKUw4wk6jMsJFIUPCRTFFwnlQQMJ0CETCdhpJwqh6R8Jb&#xD;&#xa;KUvCfYdZwis2YsIga23C9ah5whVhgcLuQIjC1+6NwmJpj8LC8o/Cf4mIwmRYgMI8MX7C0RGCwk6F&#xD;&#xa;f8LwGoHCx72EwlAvi8IA9o7CZD2Rwg+8l8L9TKHCfmSlwq5ZosLO65jC6FKTwlV2kcICW5PCTSSY&#xD;&#xa;wq/lkcKQfY7Cv+uOwi6IisKRpoTCt1qFwgIvi8K7n4nC0h6LwovhjcJsso7CJryMwlbji8Jcqo/C&#xD;&#xa;5jqWwkkolML4sZbCzvqYwomvl8JGtpnCMD2YwtwZmcLWWpfCMD+dwk4hpcIUfqTCQLehwjZMm8K4&#xD;&#xa;D5rC5QiYwk3xmcIgzJfCVuSWwqHcmcLcLJ7CJLGlwoecp8J9cqXCJNaewoZpnsLVqZzCxRSZwlmE&#xD;&#xa;lcJ+Q47CWJqLwreIkcIEbJPCKUSLwlFyhMLZSIjCeliXwouBnsImtJfCxHeYwtD1mMLaiJjC0cyb&#xD;&#xa;wsqJoML5lJ/C4DOZwmaDk8IMNI/CXl2RwrmjksLjkpLCIqiXwlSDn8KzNp3CLiuZwsmvk8LA7I7C&#xD;&#xa;E0+UwtvBnsIisJ/CDtyawjp1mMJ1mJjCqbyUwo20lsLmFZ7CDCCWwhWbksJ4ZpjCGJedwjIOoMK6&#xD;&#xa;JJrCtoKTwkmHksLhn5LCEZ+SwoyHlMKSk5vCj3KcwlQVk8KG943CPjKLwjCkicLajY3CpNeTwke/&#xD;&#xa;mMIgvKTCSaWrwqVAqsI1sKHCa2qgwpsGpcLsOarCeaquwiTstcJWPq7COkmiwn9WnMLQ65/C8V6g&#xD;&#xa;wo6vncLs86DCJ8CkwlWOrMIhGanChN+pwiJtpsKoo6HCqfKfwsShosKn/KXCwtCuwiSGs8KdmLTC&#xD;&#xa;bbm1whQms8JWFLDCTFmvwvHVqcJXu6rCD0StwkyOqsKHUajCH7Oqwg7SosKQ25zCjQmgwnlyrMIE&#xD;&#xa;D7HCfvCxwgJBrMK2W6nCDWyswikursIYlLPCTCm5wteutcKsBLLCZ6ivwtifqcK8mKnCJu6twizH&#xD;&#xa;qcLIjqrCuiiywi+ZtsIb3K/CymCnwuyxqMJheazCsBSrwqhOr8IbMbXCFt21wnewrML2VqjCKMqp&#xD;&#xa;wq8br8IXlK7CmwywwsPot8J8VbnC+RSzwiTcrcKQPbDCi+OzwlgYtcLL9rLCmme4wj1Bt8KfT6zC&#xD;&#xa;vIWqwukwsMLn1K/C7/eywngmuMJmZsDC9hfGwr4ZzcKKY9DCoC3MwuZuyMJ7p8nCiIjMwnJ4x8LJ&#xD;&#xa;Z8XCiILHwv63x8Lk6cbC1oPCwvwywMKRN8XClEPJwjoIxsL2U8jCZnDMwp/yzsLecMjCfBrBwsAD&#xD;&#xa;wMKga8TC0G7Nwjr7z8LpGNDC4DPUwlj61MKtnc/CMsLPwqnwzcIrxcbCFnnIwqk/y8IGg8rCJkPH&#xD;&#xa;wjTmx8IHBcTCP6nGwoLnzMJia87CHMvRwuaE0sJQts3CCqDNwrPozsJKV9LCz2vUwkg00sK8ktDC&#xD;&#xa;ttvPwkWazcJ8U8nCCmvHwrayycK+EsnC2fXLwt8+0MLXUNXChd3TwvT7zsL2WtDCYnTOwgoSz8L4&#xD;&#xa;gNPC2gzVwuxGzsJ2hcTCHAe/wsyywsIa5czCpSDRwvoj1MLyHtPCVkLNwhnTzMJuN8bC7GPEwqBz&#xD;&#xa;x8Je583CrvbSwkRK0MKUDcjCJCDAwoAHvcIajrvCcIXAwvIeyMJOtMbC23bGwtrmzsIVBtbCzzrV&#xD;&#xa;wkvr1MKLh9PCRx7Wwh2V38KbYeDCQSDiwn+Z4MLHVNvCgH7Zwkx118I4+NXCSfvYwjSL18ILf9PC&#xD;&#xa;trPPwtqDz8JYXtHCpJ3JwmJoxsK0ycnC3f3LwnibyMIDMsfCKLDNwgLc08LXCtPCMiPQwnwUzcIZ&#xD;&#xa;asPC8InBwqyuxsKy38nCbAXKwhplyMLEEcbC0A/GwooRzsJ2wtbC6HbTws6HzcLciczCtmXJwkDz&#xD;&#xa;ysKbo87CHLbMwmJfyMLmOcfC1DPFwsByycKZF8nCfZbGwtyhx8JOO83CAj/JwmK7yMLeGM7Cz5DP&#xD;&#xa;wroSx8I2GMjCOBPJwgQixcKc6sjCBCTNwn2VycJI/MbCTFTGwtBRx8Ijt8jCGLfIwncgyMLQW8jC&#xD;&#xa;RjjKwsKCyML2IMjCqlrHwqfaxsJB0MbCwxvOwrMs0MJcnc3CnzbFwqCzwMLEaL7Chky/wj3KxcL8&#xD;&#xa;J8rCYu3Jwnw0y8LkUM7Cyj/LwkbTx8J0yMnCfpPQwqK82MIOm9nCArbawgE93MK6NOHCpZDdws13&#xD;&#xa;2MKgNNXCfcHUwsBm2cImPtrCLPzPwprKzcJrttTCpsjTwtc/x8KBvcTCiWbHwnq3x8JEPMPCdi/E&#xD;&#xa;wqEGysJYOc7CngXPwsYv0MLYncrCQDrEwqoVxML448TCVqbIwkoBx8JM3sjCRPXFwsqOycLSQ83C&#xD;&#xa;lDvMwqAuyMI1R8nCcnTLwqKpycLy4szCGHzMwnp0ycKccMjCsA/Iwr6sx8JylsrChCjIwmj/x8KG&#xD;&#xa;4s3CcHfPwrDDycIO+MrCb0DOwgRczcIWncjCjuHMwn5tysLnRMjCADXKwlzeysKl7MnCOEjLwm1t&#xD;&#xa;x8KnHMrCaITMwt5IzcJA28jC5jbKwlb6ycKKYMrCzu3Gwu8wxsKMYMTClR/HwjpwzsK1stHCWFjO&#xD;&#xa;woZByMJOvMXCbrLAwph4w8INnMjCBqXGwgSByMJtxMzCTILOwvr/ycJYzMnCKVjRwpgY28JWZdzC&#xD;&#xa;hEvTwloA0sKbKNTCqHbhwt1afcKpp0TCUUw4wkmjMsImIUPCojFFwo1QQMI9CETC0xpJwrh7R8I0&#xD;&#xa;KkvCOIlZwj46YsJLcW3Csad5wq5YgcJ6JIjCoOeNwjnKjsIb347C0zyIwkvHgML+0X/CXfeCwqjN&#xD;&#xa;gMLdwIHCR9mEwjmsi8JKb5DCWoyTwn5XmcLoEaHCYl+lwlEXosK6nZjC/VWTwjiEkcIgc5PCXFuY&#xD;&#xa;wrv+kcIgfI7CzeeOwjKBisIFpITC3FuFwhYri8KRmYnChxqLwoHljcL5447CdzqNwsKPjMJnP5DC&#xD;&#xa;L1yWwvAYlMJnoJbCtuuYwv6il8J5spnCPzuYwtkNmcLzVJfChECdwhMapcJ7hqTCyL6hwohSm8JA&#xD;&#xa;E5rCogmYwnTymcKcz5fCiOmWwsjdmcIiKZ7C15+lwg6Kp8LybaXCINGewspxnsJQsJzCzBmZwrGL&#xD;&#xa;lcJFRo7CE5iLwgx2kcKkPZPC0TyLwpBuhMIYRIjCtFiXwpZ9nsJ5q5fCdHCYwrj2mMK8jZjC88qb&#xD;&#xa;wpCPoMIGl5/CkDaZwox/k8JqKY/CjE+Rwu6mksLDn5LCr62Xwsh/n8ILNJ3CYD6Zwi62k8I2647C&#xD;&#xa;uk2UwuTPnsLuuZ/CadmawgN0mMJAlZjCZqqUwtGblsIl/53CSCSWwoGiksKcbZjCPaCdwokMoMKO&#xD;&#xa;I5rCmoKTwvaHksJYopLCWqiSwiqQlMLyopvCHXycwjQck8IIAI7CPDaLwi2licJti43CQNaTwlzC&#xD;&#xa;mMKjv6TCpJerwmw3qsKJp6HCOW+gwooTpcIiSqrCTbCuwrDZtcJsIa7CdjmiwqBUnMJr5Z/CGF2g&#xD;&#xa;wvKrncKS8aDCGsekwiairMJoK6nC/OSpwlZ2psJ2sKHCXPafwqGqosJEB6bCQ8WuwvZ3s8IYfbTC&#xD;&#xa;l6a1whLzssJ246/CYEuvwsXTqcJmvarCwkWtwq6LqsKpT6jCaaeqwo3aosJV3ZzCrA2gwsdmrMKD&#xD;&#xa;HLHCdBCywtBIrMKqV6nC3WyswhgyrsI3h7PCdVK5wuXatcJoLbLCoM6vwuOxqcIIjqnCXMitwg20&#xD;&#xa;qcLtg6rChB2ywqeKtsJK6q/CqWCnwpmzqMINhazCFRKrwmE+r8J+A7XCIrW1wqaorMLDVKjCOsWp&#xD;&#xa;wi4Vr8JOsK7Cuymwwtjht8K2ebnCCzKzwnzqrcJqTbDC7vizwgcdtcLP2LLCPVW4ws9ut8LnbqzC&#xD;&#xa;Vpuqws8gsMLGra/CJMCywncFuMKrn8DCgwHGwrROzMKpn8/CBlnMwneSyMLYjsnCpgzMwq4Ux8LQ&#xD;&#xa;L8XCyaTHwp6Sx8Lt18bCs37Cwh9NwMK6BsXC9DvJwmQyxsKbl8jCOiTNwlrazsIiYcjCdP/Awjba&#xD;&#xa;v8J0UMTC0BjNwkiKz8Jg7c/CPgnUwhwJ1cLED8/CfibPwrJmzcI3dcbCUCHIwuvRysIwmMrCGWbH&#xD;&#xa;wpasx8JW98PCHJPGwoeezMI4oc3CDz3RwsUu0sJwYs3CJBzNwo2ozsJEZtLCvFzUwrqn0sIjtNDC&#xD;&#xa;krDPwkzgzMKS7sjCQK/HwhgvysIqRsnCtAXMwt/Az8KMytTCZD/UwiyMz8KCWdDCFkrOwlNDz8Lc&#xD;&#xa;S9PCcqLUwuoyzsLuncTCHfO+wl2SwsItTszCHKjQwm7s08KfN9PCMrDNwkhEzcKgdcbCDsnEwpyk&#xD;&#xa;x8L42c3CVoPSwv/4z8J0AMjCxBrAwpkUvcKEk7vCZorAwrhUyMKlhsbC8S/Gwvp6zsJiwNXCUKzU&#xD;&#xa;widk1MLUe9PC0J7VwnYa38K8u+DCr1njwh4G4cIexdvComrZworu1sJs+NXCeUnZwsoB2MKA9tPC&#xD;&#xa;mDLQwhYE0MIootHCFOPJwnFkxsLxbcnCLgLMwo4HycI9JMfCClnNwv7M08JCJ9PCC1vQwmTbzMI+&#xD;&#xa;PMPCXIPBwgjgxsJXFMrCr0LKwmR4yML868XCQL/Fwor8zcKI69bCzgTTwqBpzcKeT8zCxHPJwvFq&#xD;&#xa;y8JEns7C9qnMwrabyMJrgMfCmmLFwkSPycLg5MjCxHTGwvC3x8J6Nc3Ciq3IwqliyMJqys3CNFfP&#xD;&#xa;wrjkxsLw88fCAv7IwlwJxcJMm8jCNFbNwpXXycK2IMfC9YzGwtZix8J21MjCXMrIwpJJyMJUZMjC&#xD;&#xa;KADKwupQyMKiCsjCSF7Hwli5xsImY8bCV8DNwuabz8JyLs3CHBjFwlyhwMLpL77CXSC/ws6dxcIg&#xD;&#xa;BcrCRfzJwroyy8K6HM/CXKLLwhC0x8I6scnCKtfQwgzL2cL1utnCQizawrLn28LkcODCKrvcwsJr&#xD;&#xa;2MLv0NXCAK7UwqwH2cJAYNnCSnnPwqCgzcLcz9TCruDTwt1xx8Kc2sTCOpzHwknQx8ICZsPCQeXD&#xD;&#xa;wnIBysJrYc7CnAzPwhYj0MJVRcrCLgPEwhsMxMIwO8XC79fIwo4vx8Jm0MjCnKXFwmYTycLtIM3C&#xD;&#xa;1S3Mwp/3x8JAU8nCNzHLwnZnycKKpMzCjU/MwsZ+ycI1cMjCPB3Iwuyyx8JVu8rCM2/IwvM9yMJq&#xD;&#xa;Ds7C7mnPwrGdycLm18rCWNbNwkgszcKDnsjCscrMwvxWysLoSsjCCoXKwoAiy8IRDsrC1DjLwkxX&#xD;&#xa;x8Jv/cnCP8LMwikmzcJeA8nCH3PKwlA7ysLCZcrCoCnHwuVjxsKhfcTCHI7HwqprzsISldHCOBTO&#xD;&#xa;wgzXx8LarMXCwLTAwk6lw8LtuMjCGJnGwqlcyMIUnMzCE7LOwnkMysKiy8nCEjHRwm2m2sLlZtzC&#xD;&#xa;MubTwiVq0sJEt9TCDu7h" leadInLength="0/1"  />
             </Keyframes>
            </Parameter>
            </Parameters>
            <MetaData>
             <entry key="effectIndex" val="1"/>
            </MetaData>
           </GenericEffect>
          </Effects>
          <Attributes>
           <Attribute id="554" value="" name="ident"/>
           <Attribute id="555" value="44100" name="sampleRate"/>
           <Attribute id="556" value="16" name="bitDepth"/>
           <Attribute id="557" value="1" name="gain"/>
           <Attribute id="558" value="1" name="mixToMono"/>
          </Attributes>
         </AMFile>
         <VMFile id="559" start="2959" duration="241" scalar="241/222" mediaStart="3169/1" mediaDuration="222/1" trackNumber="0" src="21" >
          <Transformer>
           <VectorParam id="560"  name="translation">
            <InterpolatingParam id="561" interp="linr"  time="-9999999/1" value="0" leadInLength="0/1"  />
            <InterpolatingParam id="562" interp="linr"  time="-9999999/1" value="0" leadInLength="0/1"  />
            <InterpolatingParam id="563" interp="linr"  time="-9999999/1" value="0" leadInLength="0/1"  />
           </VectorParam>
           <VectorParam id="564"  name="rotation">
            <InterpolatingParam id="565" interp="linr"  time="-9999999/1" value="0" leadInLength="0/1"  />
            <InterpolatingParam id="566" interp="linr"  time="-9999999/1" value="0" leadInLength="0/1"  />
            <InterpolatingParam id="567" interp="linr"  time="-9999999/1" value="0" leadInLength="0/1"  />
           </VectorParam>
           <VectorParam id="568"  name="shear">
            <InterpolatingParam id="569" interp="linr"  time="-9999999/1" value="0" leadInLength="0/1"  />
            <InterpolatingParam id="570" interp="linr"  time="-9999999/1" value="0" leadInLength="0/1"  />
            <InterpolatingParam id="571" interp="linr"  time="-9999999/1" value="0" leadInLength="0/1"  />
           </VectorParam>
           <VectorParam id="572"  name="scale">
            <InterpolatingParam id="573" interp="linr"  time="-9999999/1" value="1" leadInLength="0/1"  />
            <InterpolatingParam id="574" interp="linr"  time="-9999999/1" value="1" leadInLength="0/1"  />
            <InterpolatingParam id="575" interp="linr"  time="-9999999/1" value="1" leadInLength="0/1"  />
           </VectorParam>
           <VectorParam id="576"  name="anchor">
            <InterpolatingParam id="577" interp="linr"  time="0/1" value="0" leadInLength="0/1"  />
            <InterpolatingParam id="578" interp="linr"  time="0/1" value="0" leadInLength="0/1"  />
            <InterpolatingParam id="579" interp="linr"  time="0/1" value="0" leadInLength="0/1"  />
           </VectorParam>
          </Transformer>
          <Parameters>
           <VectorParam id="580"  name="sourceCrop">
            <InterpolatingParam id="581" interp="linr"  time="0/1" value="0" leadInLength="0/1"  />
            <InterpolatingParam id="582" interp="linr"  time="0/1" value="0" leadInLength="0/1"  />
            <InterpolatingParam id="583" interp="linr"  time="0/1" value="0" leadInLength="0/1"  />
            <InterpolatingParam id="584" interp="linr"  time="0/1" value="0" leadInLength="0/1"  />
           </VectorParam>
           <VectorParam id="585"  name="geometryCrop">
            <InterpolatingParam id="586" interp="linr"  time="-9999999/1" value="0" leadInLength="0/1"  />
            <InterpolatingParam id="587" interp="linr"  time="-9999999/1" value="0" leadInLength="0/1"  />
            <InterpolatingParam id="588" interp="linr"  time="-9999999/1" value="0" leadInLength="0/1"  />
            <InterpolatingParam id="589" interp="linr"  time="-9999999/1" value="0" leadInLength="0/1"  />
           </VectorParam>
           <InterpolatingParam id="590" interp="linr"  time="-9999999/1" value="1" leadInLength="0/1"  name="opacity"/>
          </Parameters>
          <Attributes>
           <Attribute id="591" value="" name="ident"/>
          </Attributes>
          <ExtraData>
           <Entry key="ZoomPanBin">
            <ZoomPanBin id="592"  >
             <ZoomPanKeyframes>
              <ZoomPanKeyframe id="593" timeRangeEnd="-9999999/1" timeRangeDuration="0/1" interpolaterName="linr"  />
             </ZoomPanKeyframes>
            </ZoomPanBin>
           </Entry>
          </ExtraData>
         </VMFile>
         <MetaData>
          <entry key="WinSubProjectDisplayName" val=""/>
         </MetaData>
        </UnifiedMedia>
        <UnifiedMedia id="594"  >
         <AMFile id="595" start="3200" duration="322" scalar="1/1" mediaStart="3391/1" mediaDuration="322/1" trackNumber="1" src="21" channelNumber="0,1" >
          <Parameters>
           <InterpolatingParam id="596" interp="linr"  name="volume">
            <Keyframes>
            <Keyframe id="597"  time="-1/1" value="1" leadInLength="0/1"  />
            <Keyframe id="598"  time="0/1" value="0" leadInLength="0/1"  />
            <Keyframe id="599"  time="8952/1" value="0" leadInLength="0/1"  />
            <Keyframe id="600"  time="8953/1" value="1" leadInLength="0/1"  />
            </Keyframes>
           </InterpolatingParam>
           <Parameter id="601"  name="captions"/>
          </Parameters>
          <Attributes>
           <Attribute id="602" value="" name="ident"/>
           <Attribute id="603" value="44100" name="sampleRate"/>
           <Attribute id="604" value="16" name="bitDepth"/>
           <Attribute id="605" value="1" name="gain"/>
           <Attribute id="606" value="0" name="mixToMono"/>
          </Attributes>
         </AMFile>
         <VMFile id="607" start="3200" duration="322" scalar="1/1" mediaStart="3391/1" mediaDuration="322/1" trackNumber="0" src="21" >
          <Transformer>
           <VectorParam id="608"  name="translation">
            <InterpolatingParam id="609" interp="linr"  time="-9999999/1" value="0" leadInLength="0/1"  />
            <InterpolatingParam id="610" interp="linr"  time="-9999999/1" value="0" leadInLength="0/1"  />
            <InterpolatingParam id="611" interp="linr"  time="-9999999/1" value="0" leadInLength="0/1"  />
           </VectorParam>
           <VectorParam id="612"  name="rotation">
            <InterpolatingParam id="613" interp="linr"  time="-9999999/1" value="0" leadInLength="0/1"  />
            <InterpolatingParam id="614" interp="linr"  time="-9999999/1" value="0" leadInLength="0/1"  />
            <InterpolatingParam id="615" interp="linr"  time="-9999999/1" value="0" leadInLength="0/1"  />
           </VectorParam>
           <VectorParam id="616"  name="shear">
            <InterpolatingParam id="617" interp="linr"  time="-9999999/1" value="0" leadInLength="0/1"  />
            <InterpolatingParam id="618" interp="linr"  time="-9999999/1" value="0" leadInLength="0/1"  />
            <InterpolatingParam id="619" interp="linr"  time="-9999999/1" value="0" leadInLength="0/1"  />
           </VectorParam>
           <VectorParam id="620"  name="scale">
            <InterpolatingParam id="621" interp="linr"  time="-9999999/1" value="1" leadInLength="0/1"  />
            <InterpolatingParam id="622" interp="linr"  time="-9999999/1" value="1" leadInLength="0/1"  />
            <InterpolatingParam id="623" interp="linr"  time="-9999999/1" value="1" leadInLength="0/1"  />
           </VectorParam>
           <VectorParam id="624"  name="anchor">
            <InterpolatingParam id="625" interp="linr"  time="0/1" value="0" leadInLength="0/1"  />
            <InterpolatingParam id="626" interp="linr"  time="0/1" value="0" leadInLength="0/1"  />
            <InterpolatingParam id="627" interp="linr"  time="0/1" value="0" leadInLength="0/1"  />
           </VectorParam>
          </Transformer>
          <Parameters>
           <VectorParam id="628"  name="sourceCrop">
            <InterpolatingParam id="629" interp="linr"  time="0/1" value="0" leadInLength="0/1"  />
            <InterpolatingParam id="630" interp="linr"  time="0/1" value="0" leadInLength="0/1"  />
            <InterpolatingParam id="631" interp="linr"  time="0/1" value="0" leadInLength="0/1"  />
            <InterpolatingParam id="632" interp="linr"  time="0/1" value="0" leadInLength="0/1"  />
           </VectorParam>
           <VectorParam id="633"  name="geometryCrop">
            <InterpolatingParam id="634" interp="linr"  time="-9999999/1" value="0" leadInLength="0/1"  />
            <InterpolatingParam id="635" interp="linr"  time="-9999999/1" value="0" leadInLength="0/1"  />
            <InterpolatingParam id="636" interp="linr"  time="-9999999/1" value="0" leadInLength="0/1"  />
            <InterpolatingParam id="637" interp="linr"  time="-9999999/1" value="0" leadInLength="0/1"  />
           </VectorParam>
           <InterpolatingParam id="638" interp="linr"  time="-9999999/1" value="1" leadInLength="0/1"  name="opacity"/>
          </Parameters>
          <Attributes>
           <Attribute id="639" value="" name="ident"/>
          </Attributes>
          <ExtraData>
           <Entry key="ZoomPanBin">
            <ZoomPanBin id="640"  >
             <ZoomPanKeyframes>
              <ZoomPanKeyframe id="641" timeRangeEnd="-9999999/1" timeRangeDuration="0/1" interpolaterName="linr"  />
             </ZoomPanKeyframes>
            </ZoomPanBin>
           </Entry>
          </ExtraData>
         </VMFile>
         <MetaData>
          <entry key="WinSubProjectDisplayName" val=""/>
         </MetaData>
        </UnifiedMedia>
        <UnifiedMedia id="642"  >
         <AMFile id="643" start="3522" duration="95" scalar="1/1" mediaStart="3742/1" mediaDuration="95/1" trackNumber="1" src="21" channelNumber="0,1" >
          <Parameters>
           <InterpolatingParam id="644" interp="linr"  name="volume">
            <Keyframes>
            <Keyframe id="645"  time="-1/1" value="1" leadInLength="0/1"  />
            <Keyframe id="646"  time="0/1" value="0" leadInLength="0/1"  />
            <Keyframe id="647"  time="8952/1" value="0" leadInLength="0/1"  />
            <Keyframe id="648"  time="8953/1" value="1" leadInLength="0/1"  />
            </Keyframes>
           </InterpolatingParam>
           <Parameter id="649"  name="captions"/>
          </Parameters>
          <Attributes>
           <Attribute id="650" value="" name="ident"/>
           <Attribute id="651" value="44100" name="sampleRate"/>
           <Attribute id="652" value="16" name="bitDepth"/>
           <Attribute id="653" value="1" name="gain"/>
           <Attribute id="654" value="0" name="mixToMono"/>
          </Attributes>
         </AMFile>
         <VMFile id="655" start="3522" duration="95" scalar="1/1" mediaStart="3742/1" mediaDuration="95/1" trackNumber="0" src="21" >
          <Transformer>
           <VectorParam id="656"  name="translation">
            <InterpolatingParam id="657" interp="linr"  time="-9999999/1" value="0" leadInLength="0/1"  />
            <InterpolatingParam id="658" interp="linr"  time="-9999999/1" value="0" leadInLength="0/1"  />
            <InterpolatingParam id="659" interp="linr"  time="-9999999/1" value="0" leadInLength="0/1"  />
           </VectorParam>
           <VectorParam id="660"  name="rotation">
            <InterpolatingParam id="661" interp="linr"  time="-9999999/1" value="0" leadInLength="0/1"  />
            <InterpolatingParam id="662" interp="linr"  time="-9999999/1" value="0" leadInLength="0/1"  />
            <InterpolatingParam id="663" interp="linr"  time="-9999999/1" value="0" leadInLength="0/1"  />
           </VectorParam>
           <VectorParam id="664"  name="shear">
            <InterpolatingParam id="665" interp="linr"  time="-9999999/1" value="0" leadInLength="0/1"  />
            <InterpolatingParam id="666" interp="linr"  time="-9999999/1" value="0" leadInLength="0/1"  />
            <InterpolatingParam id="667" interp="linr"  time="-9999999/1" value="0" leadInLength="0/1"  />
           </VectorParam>
           <VectorParam id="668"  name="scale">
            <InterpolatingParam id="669" interp="linr"  time="-9999999/1" value="1" leadInLength="0/1"  />
            <InterpolatingParam id="670" interp="linr"  time="-9999999/1" value="1" leadInLength="0/1"  />
            <InterpolatingParam id="671" interp="linr"  time="-9999999/1" value="1" leadInLength="0/1"  />
           </VectorParam>
           <VectorParam id="672"  name="anchor">
            <InterpolatingParam id="673" interp="linr"  time="0/1" value="0" leadInLength="0/1"  />
            <InterpolatingParam id="674" interp="linr"  time="0/1" value="0" leadInLength="0/1"  />
            <InterpolatingParam id="675" interp="linr"  time="0/1" value="0" leadInLength="0/1"  />
           </VectorParam>
          </Transformer>
          <Parameters>
           <VectorParam id="676"  name="sourceCrop">
            <InterpolatingParam id="677" interp="linr"  time="0/1" value="0" leadInLength="0/1"  />
            <InterpolatingParam id="678" interp="linr"  time="0/1" value="0" leadInLength="0/1"  />
            <InterpolatingParam id="679" interp="linr"  time="0/1" value="0" leadInLength="0/1"  />
            <InterpolatingParam id="680" interp="linr"  time="0/1" value="0" leadInLength="0/1"  />
           </VectorParam>
           <VectorParam id="681"  name="geometryCrop">
            <InterpolatingParam id="682" interp="linr"  time="-9999999/1" value="0" leadInLength="0/1"  />
            <InterpolatingParam id="683" interp="linr"  time="-9999999/1" value="0" leadInLength="0/1"  />
            <InterpolatingParam id="684" interp="linr"  time="-9999999/1" value="0" leadInLength="0/1"  />
            <InterpolatingParam id="685" interp="linr"  time="-9999999/1" value="0" leadInLength="0/1"  />
           </VectorParam>
           <InterpolatingParam id="686" interp="linr"  time="-9999999/1" value="1" leadInLength="0/1"  name="opacity"/>
          </Parameters>
          <Attributes>
           <Attribute id="687" value="" name="ident"/>
          </Attributes>
          <ExtraData>
           <Entry key="ZoomPanBin">
            <ZoomPanBin id="688"  >
             <ZoomPanKeyframes>
              <ZoomPanKeyframe id="689" timeRangeEnd="-9999999/1" timeRangeDuration="0/1" interpolaterName="linr"  />
             </ZoomPanKeyframes>
            </ZoomPanBin>
           </Entry>
          </ExtraData>
         </VMFile>
         <MetaData>
          <entry key="WinSubProjectDisplayName" val=""/>
         </MetaData>
        </UnifiedMedia>
        <StitchedMedia id="690" start="3617" duration="607" scalar="3471626633/4396989099" mediaStart="19216566/4969" mediaDuration="4396989099/5719319" minMediaStart="0/1" >
         <Transformer>
          <VectorParam id="691"  name="translation">
           <InterpolatingParam id="692" interp="linr"  time="-9999999/1" value="0" leadInLength="0/1"  />
           <InterpolatingParam id="693" interp="linr"  time="-9999999/1" value="0" leadInLength="0/1"  />
           <InterpolatingParam id="694" interp="linr"  time="-9999999/1" value="0" leadInLength="0/1"  />
          </VectorParam>
          <VectorParam id="695"  name="rotation">
           <InterpolatingParam id="696" interp="linr"  time="-9999999/1" value="0" leadInLength="0/1"  />
           <InterpolatingParam id="697" interp="linr"  time="-9999999/1" value="0" leadInLength="0/1"  />
           <InterpolatingParam id="698" interp="linr"  time="-9999999/1" value="0" leadInLength="0/1"  />
          </VectorParam>
          <VectorParam id="699"  name="shear">
           <InterpolatingParam id="700" interp="linr"  time="-9999999/1" value="0" leadInLength="0/1"  />
           <InterpolatingParam id="701" interp="linr"  time="-9999999/1" value="0" leadInLength="0/1"  />
           <InterpolatingParam id="702" interp="linr"  time="-9999999/1" value="0" leadInLength="0/1"  />
          </VectorParam>
          <VectorParam id="703"  name="scale">
           <InterpolatingParam id="704" interp="linr"  time="-9999999/1" value="1" leadInLength="0/1"  />
           <InterpolatingParam id="705" interp="linr"  time="-9999999/1" value="1" leadInLength="0/1"  />
           <InterpolatingParam id="706" interp="linr"  time="-9999999/1" value="1" leadInLength="0/1"  />
          </VectorParam>
          <VectorParam id="707"  name="anchor">
           <InterpolatingParam id="708" interp="linr"  >
            <Keyframes>
            <Keyframe id="709"  time="0/1" value="0" leadInLength="0/1"  />
            <Keyframe id="710"  time="4924/1" value="0" leadInLength="0/1"  />
            </Keyframes>
           </InterpolatingParam>
           <InterpolatingParam id="711" interp="linr"  >
            <Keyframes>
            <Keyframe id="712"  time="0/1" value="0" leadInLength="0/1"  />
            <Keyframe id="713"  time="4924/1" value="0" leadInLength="0/1"  />
            </Keyframes>
           </InterpolatingParam>
           <InterpolatingParam id="714" interp="linr"  >
            <Keyframes>
            <Keyframe id="715"  time="0/1" value="0" leadInLength="0/1"  />
            <Keyframe id="716"  time="4924/1" value="0" leadInLength="0/1"  />
            </Keyframes>
           </InterpolatingParam>
          </VectorParam>
         </Transformer>
         <Parameters>
          <VectorParam id="717"  name="sourceCrop">
           <InterpolatingParam id="718" interp="linr"  >
            <Keyframes>
            <Keyframe id="719"  time="0/1" value="0" leadInLength="0/1"  />
            <Keyframe id="720"  time="4924/1" value="0" leadInLength="0/1"  />
            </Keyframes>
           </InterpolatingParam>
           <InterpolatingParam id="721" interp="linr"  >
            <Keyframes>
            <Keyframe id="722"  time="0/1" value="0" leadInLength="0/1"  />
            <Keyframe id="723"  time="4924/1" value="0" leadInLength="0/1"  />
            </Keyframes>
           </InterpolatingParam>
           <InterpolatingParam id="724" interp="linr"  >
            <Keyframes>
            <Keyframe id="725"  time="0/1" value="0" leadInLength="0/1"  />
            <Keyframe id="726"  time="4924/1" value="0" leadInLength="0/1"  />
            </Keyframes>
           </InterpolatingParam>
           <InterpolatingParam id="727" interp="linr"  >
            <Keyframes>
            <Keyframe id="728"  time="0/1" value="0" leadInLength="0/1"  />
            <Keyframe id="729"  time="4924/1" value="0" leadInLength="0/1"  />
            </Keyframes>
           </InterpolatingParam>
          </VectorParam>
          <VectorParam id="730"  name="geometryCrop">
           <InterpolatingParam id="731" interp="linr"  time="-9999999/1" value="0" leadInLength="0/1"  />
           <InterpolatingParam id="732" interp="linr"  time="-9999999/1" value="0" leadInLength="0/1"  />
           <InterpolatingParam id="733" interp="linr"  time="-9999999/1" value="0" leadInLength="0/1"  />
           <InterpolatingParam id="734" interp="linr"  time="-9999999/1" value="0" leadInLength="0/1"  />
          </VectorParam>
          <InterpolatingParam id="735" interp="linr"  time="-9999999/1" value="1" leadInLength="0/1"  name="opacity"/>
          <InterpolatingParam id="736" interp="linr"  time="0/1" value="1" leadInLength="0/1"  name="cursorOpacity"/>
          <InterpolatingParam id="737" interp="linr"  time="0/1" value="1" leadInLength="0/1"  name="cursorScale"/>
          <InterpolatingParam id="738" interp="linr"  name="volume">
           <Keyframes>
           <Keyframe id="739"  time="-1/1" value="1" leadInLength="0/1"  />
           <Keyframe id="740"  time="0/1" value="0" leadInLength="0/1"  />
           <Keyframe id="741"  time="46313324/5123" value="0" leadInLength="0/1"  />
           <Keyframe id="742"  time="46318447/5123" value="1" leadInLength="0/1"  />
           </Keyframes>
          </InterpolatingParam>
          <Parameter id="743"  name="captions"/>
         </Parameters>
         <Attributes>
          <Attribute id="744" value="" name="ident"/>
          <Attribute id="745" value="0" name="mixToMono"/>
         </Attributes>
         <MetaData>
          <entry key="WinSubProjectDisplayName" val=""/>
         </MetaData>
         <ExtraData>
          <Entry key="ZoomPanBin">
           <ZoomPanBin id="746"  >
            <ZoomPanKeyframes>
             <ZoomPanKeyframe id="747" timeRangeEnd="-9999999/1" timeRangeDuration="0/1" interpolaterName="linr"  />
            </ZoomPanKeyframes>
           </ZoomPanBin>
          </Entry>
          <Entry key="CursorEffectBin">
           <CursorEffectBin id="748"  >
            <CursorEffectKeyframes>
            </CursorEffectKeyframes>
           </CursorEffectBin>
          </Entry>
         </ExtraData>
         <GenericTrack id="749"  >
          <Attributes>
           <Attribute id="750" value="" name="ident"/>
           <Attribute id="751" value="0" name="audioMuted"/>
           <Attribute id="752" value="0" name="videoHidden"/>
          </Attributes>
          <MetaData>
           <entry key="IsLocked" val="False"/>
           <entry key="WinTrackHeight" val="0"/>
          </MetaData>
          <Medias>
           <UnifiedMedia id="753"  >
            <AMFile id="754" start="0" duration="4924" scalar="1/1" mediaStart="0/1" mediaDuration="4924/1" trackNumber="1" src="21" channelNumber="0,1" >
             <Parameters>
              <InterpolatingParam id="755" interp="linr"  time="0/1" value="1" leadInLength="0/1"  name="volume"/>
              <Parameter id="756"  name="captions"/>
             </Parameters>
             <Attributes>
              <Attribute id="757" value="" name="ident"/>
              <Attribute id="758" value="44100" name="sampleRate"/>
              <Attribute id="759" value="16" name="bitDepth"/>
              <Attribute id="760" value="1" name="gain"/>
              <Attribute id="761" value="0" name="mixToMono"/>
             </Attributes>
            </AMFile>
            <VMFile id="762" start="0" duration="4924" scalar="1/1" mediaStart="0/1" mediaDuration="4924/1" trackNumber="0" src="21" >
             <Transformer>
              <VectorParam id="763"  name="translation">
               <InterpolatingParam id="764" interp="linr"  time="-9999999/1" value="0" leadInLength="0/1"  />
               <InterpolatingParam id="765" interp="linr"  time="-9999999/1" value="0" leadInLength="0/1"  />
               <InterpolatingParam id="766" interp="linr"  time="-9999999/1" value="0" leadInLength="0/1"  />
              </VectorParam>
              <VectorParam id="767"  name="rotation">
               <InterpolatingParam id="768" interp="linr"  time="-9999999/1" value="0" leadInLength="0/1"  />
               <InterpolatingParam id="769" interp="linr"  time="-9999999/1" value="0" leadInLength="0/1"  />
               <InterpolatingParam id="770" interp="linr"  time="-9999999/1" value="0" leadInLength="0/1"  />
              </VectorParam>
              <VectorParam id="771"  name="shear">
               <InterpolatingParam id="772" interp="linr"  time="-9999999/1" value="0" leadInLength="0/1"  />
               <InterpolatingParam id="773" interp="linr"  time="-9999999/1" value="0" leadInLength="0/1"  />
               <InterpolatingParam id="774" interp="linr"  time="-9999999/1" value="0" leadInLength="0/1"  />
              </VectorParam>
              <VectorParam id="775"  name="scale">
               <InterpolatingParam id="776" interp="linr"  time="-9999999/1" value="1" leadInLength="0/1"  />
               <InterpolatingParam id="777" interp="linr"  time="-9999999/1" value="1" leadInLength="0/1"  />
               <InterpolatingParam id="778" interp="linr"  time="-9999999/1" value="1" leadInLength="0/1"  />
              </VectorParam>
              <VectorParam id="779"  name="anchor">
               <InterpolatingParam id="780" interp="linr"  time="0/1" value="0" leadInLength="0/1"  />
               <InterpolatingParam id="781" interp="linr"  time="0/1" value="0" leadInLength="0/1"  />
               <InterpolatingParam id="782" interp="linr"  time="0/1" value="0" leadInLength="0/1"  />
              </VectorParam>
             </Transformer>
             <Parameters>
              <VectorParam id="783"  name="sourceCrop">
               <InterpolatingParam id="784" interp="linr"  time="0/1" value="0" leadInLength="0/1"  />
               <InterpolatingParam id="785" interp="linr"  time="0/1" value="0" leadInLength="0/1"  />
               <InterpolatingParam id="786" interp="linr"  time="0/1" value="0" leadInLength="0/1"  />
               <InterpolatingParam id="787" interp="linr"  time="0/1" value="0" leadInLength="0/1"  />
              </VectorParam>
              <VectorParam id="788"  name="geometryCrop">
               <InterpolatingParam id="789" interp="linr"  time="-9999999/1" value="0" leadInLength="0/1"  />
               <InterpolatingParam id="790" interp="linr"  time="-9999999/1" value="0" leadInLength="0/1"  />
               <InterpolatingParam id="791" interp="linr"  time="-9999999/1" value="0" leadInLength="0/1"  />
               <InterpolatingParam id="792" interp="linr"  time="-9999999/1" value="0" leadInLength="0/1"  />
              </VectorParam>
              <InterpolatingParam id="793" interp="linr"  time="-9999999/1" value="1" leadInLength="0/1"  name="opacity"/>
             </Parameters>
             <Attributes>
              <Attribute id="794" value="" name="ident"/>
             </Attributes>
             <ExtraData>
              <Entry key="ZoomPanBin">
               <ZoomPanBin id="795"  >
                <ZoomPanKeyframes>
                 <ZoomPanKeyframe id="796" timeRangeEnd="-9999999/1" timeRangeDuration="0/1" interpolaterName="linr"  />
                </ZoomPanKeyframes>
               </ZoomPanBin>
              </Entry>
             </ExtraData>
            </VMFile>
            <MetaData>
             <entry key="WinSubProjectDisplayName" val=""/>
            </MetaData>
           </UnifiedMedia>
           <IMFile id="797" start="4924" duration="90" scalar="1/1" mediaStart="4924/1" mediaDuration="1/1" trackNumber="0" src="21" trimStartSum="0/1" >
            <Transformer>
             <VectorParam id="798"  name="translation">
              <InterpolatingParam id="799" interp="linr"  time="-9999999/1" value="0" leadInLength="0/1"  />
              <InterpolatingParam id="800" interp="linr"  time="-9999999/1" value="0" leadInLength="0/1"  />
              <InterpolatingParam id="801" interp="linr"  time="-9999999/1" value="0" leadInLength="0/1"  />
             </VectorParam>
             <VectorParam id="802"  name="rotation">
              <InterpolatingParam id="803" interp="linr"  time="-9999999/1" value="0" leadInLength="0/1"  />
              <InterpolatingParam id="804" interp="linr"  time="-9999999/1" value="0" leadInLength="0/1"  />
              <InterpolatingParam id="805" interp="linr"  time="-9999999/1" value="0" leadInLength="0/1"  />
             </VectorParam>
             <VectorParam id="806"  name="shear">
              <InterpolatingParam id="807" interp="linr"  time="-9999999/1" value="0" leadInLength="0/1"  />
              <InterpolatingParam id="808" interp="linr"  time="-9999999/1" value="0" leadInLength="0/1"  />
              <InterpolatingParam id="809" interp="linr"  time="-9999999/1" value="0" leadInLength="0/1"  />
             </VectorParam>
             <VectorParam id="810"  name="scale">
              <InterpolatingParam id="811" interp="linr"  time="-9999999/1" value="1" leadInLength="0/1"  />
              <InterpolatingParam id="812" interp="linr"  time="-9999999/1" value="1" leadInLength="0/1"  />
              <InterpolatingParam id="813" interp="linr"  time="-9999999/1" value="1" leadInLength="0/1"  />
             </VectorParam>
             <VectorParam id="814"  name="anchor">
              <InterpolatingParam id="815" interp="linr"  time="0/1" value="0" leadInLength="0/1"  />
              <InterpolatingParam id="816" interp="linr"  time="0/1" value="0" leadInLength="0/1"  />
              <InterpolatingParam id="817" interp="linr"  time="0/1" value="0" leadInLength="0/1"  />
             </VectorParam>
            </Transformer>
            <Parameters>
             <VectorParam id="818"  name="sourceCrop">
              <InterpolatingParam id="819" interp="linr"  time="0/1" value="0" leadInLength="0/1"  />
              <InterpolatingParam id="820" interp="linr"  time="0/1" value="0" leadInLength="0/1"  />
              <InterpolatingParam id="821" interp="linr"  time="0/1" value="0" leadInLength="0/1"  />
              <InterpolatingParam id="822" interp="linr"  time="0/1" value="0" leadInLength="0/1"  />
             </VectorParam>
             <VectorParam id="823"  name="geometryCrop">
              <InterpolatingParam id="824" interp="linr"  time="-9999999/1" value="0" leadInLength="0/1"  />
              <InterpolatingParam id="825" interp="linr"  time="-9999999/1" value="0" leadInLength="0/1"  />
              <InterpolatingParam id="826" interp="linr"  time="-9999999/1" value="0" leadInLength="0/1"  />
              <InterpolatingParam id="827" interp="linr"  time="-9999999/1" value="0" leadInLength="0/1"  />
             </VectorParam>
             <InterpolatingParam id="828" interp="linr"  time="-9999999/1" value="1" leadInLength="0/1"  name="opacity"/>
            </Parameters>
            <Attributes>
             <Attribute id="829" value="" name="ident"/>
            </Attributes>
            <MetaData>
             <entry key="WinSubProjectDisplayName" val=""/>
            </MetaData>
            <ExtraData>
             <Entry key="ZoomPanBin">
              <ZoomPanBin id="830"  >
               <ZoomPanKeyframes>
                <ZoomPanKeyframe id="831" timeRangeEnd="-9999999/1" timeRangeDuration="0/1" interpolaterName="linr"  />
               </ZoomPanKeyframes>
              </ZoomPanBin>
             </Entry>
            </ExtraData>
           </IMFile>
           <UnifiedMedia id="832"  >
            <AMFile id="833" start="5014" duration="4028" scalar="1/1" mediaStart="4923/1" mediaDuration="4028/1" trackNumber="1" src="21" channelNumber="0,1" >
             <Parameters>
              <InterpolatingParam id="834" interp="linr"  time="0/1" value="1" leadInLength="0/1"  name="volume"/>
              <Parameter id="835"  name="captions"/>
             </Parameters>
             <Attributes>
              <Attribute id="836" value="" name="ident"/>
              <Attribute id="837" value="44100" name="sampleRate"/>
              <Attribute id="838" value="16" name="bitDepth"/>
              <Attribute id="839" value="1" name="gain"/>
              <Attribute id="840" value="0" name="mixToMono"/>
             </Attributes>
            </AMFile>
            <VMFile id="841" start="5014" duration="4028" scalar="1/1" mediaStart="4923/1" mediaDuration="4028/1" trackNumber="0" src="21" >
             <Transformer>
              <VectorParam id="842"  name="translation">
               <InterpolatingParam id="843" interp="linr"  time="-9999999/1" value="0" leadInLength="0/1"  />
               <InterpolatingParam id="844" interp="linr"  time="-9999999/1" value="0" leadInLength="0/1"  />
               <InterpolatingParam id="845" interp="linr"  time="-9999999/1" value="0" leadInLength="0/1"  />
              </VectorParam>
              <VectorParam id="846"  name="rotation">
               <InterpolatingParam id="847" interp="linr"  time="-9999999/1" value="0" leadInLength="0/1"  />
               <InterpolatingParam id="848" interp="linr"  time="-9999999/1" value="0" leadInLength="0/1"  />
               <InterpolatingParam id="849" interp="linr"  time="-9999999/1" value="0" leadInLength="0/1"  />
              </VectorParam>
              <VectorParam id="850"  name="shear">
               <InterpolatingParam id="851" interp="linr"  time="-9999999/1" value="0" leadInLength="0/1"  />
               <InterpolatingParam id="852" interp="linr"  time="-9999999/1" value="0" leadInLength="0/1"  />
               <InterpolatingParam id="853" interp="linr"  time="-9999999/1" value="0" leadInLength="0/1"  />
              </VectorParam>
              <VectorParam id="854"  name="scale">
               <InterpolatingParam id="855" interp="linr"  time="-9999999/1" value="1" leadInLength="0/1"  />
               <InterpolatingParam id="856" interp="linr"  time="-9999999/1" value="1" leadInLength="0/1"  />
               <InterpolatingParam id="857" interp="linr"  time="-9999999/1" value="1" leadInLength="0/1"  />
              </VectorParam>
              <VectorParam id="858"  name="anchor">
               <InterpolatingParam id="859" interp="linr"  time="0/1" value="0" leadInLength="0/1"  />
               <InterpolatingParam id="860" interp="linr"  time="0/1" value="0" leadInLength="0/1"  />
               <InterpolatingParam id="861" interp="linr"  time="0/1" value="0" leadInLength="0/1"  />
              </VectorParam>
             </Transformer>
             <Parameters>
              <VectorParam id="862"  name="sourceCrop">
               <InterpolatingParam id="863" interp="linr"  time="0/1" value="0" leadInLength="0/1"  />
               <InterpolatingParam id="864" interp="linr"  time="0/1" value="0" leadInLength="0/1"  />
               <InterpolatingParam id="865" interp="linr"  time="0/1" value="0" leadInLength="0/1"  />
               <InterpolatingParam id="866" interp="linr"  time="0/1" value="0" leadInLength="0/1"  />
              </VectorParam>
              <VectorParam id="867"  name="geometryCrop">
               <InterpolatingParam id="868" interp="linr"  time="-9999999/1" value="0" leadInLength="0/1"  />
               <InterpolatingParam id="869" interp="linr"  time="-9999999/1" value="0" leadInLength="0/1"  />
               <InterpolatingParam id="870" interp="linr"  time="-9999999/1" value="0" leadInLength="0/1"  />
               <InterpolatingParam id="871" interp="linr"  time="-9999999/1" value="0" leadInLength="0/1"  />
              </VectorParam>
              <InterpolatingParam id="872" interp="linr"  time="-9999999/1" value="1" leadInLength="0/1"  name="opacity"/>
             </Parameters>
             <Attributes>
              <Attribute id="873" value="" name="ident"/>
             </Attributes>
             <ExtraData>
              <Entry key="ZoomPanBin">
               <ZoomPanBin id="874"  >
                <ZoomPanKeyframes>
                 <ZoomPanKeyframe id="875" timeRangeEnd="-9999999/1" timeRangeDuration="0/1" interpolaterName="linr"  />
                </ZoomPanKeyframes>
               </ZoomPanBin>
              </Entry>
             </ExtraData>
            </VMFile>
            <MetaData>
             <entry key="WinSubProjectDisplayName" val=""/>
            </MetaData>
           </UnifiedMedia>
          </Medias>
         </GenericTrack>
        </StitchedMedia>
        <StitchedMedia id="876" start="4224" duration="544" scalar="777827384/541782055" mediaStart="26515256565/5719319" mediaDuration="2167128220/5719319" minMediaStart="0/1" >
         <Transformer>
          <VectorParam id="877"  name="translation">
           <InterpolatingParam id="878" interp="linr"  time="-9999999/1" value="0" leadInLength="0/1"  />
           <InterpolatingParam id="879" interp="linr"  time="-9999999/1" value="0" leadInLength="0/1"  />
           <InterpolatingParam id="880" interp="linr"  time="-9999999/1" value="0" leadInLength="0/1"  />
          </VectorParam>
          <VectorParam id="881"  name="rotation">
           <InterpolatingParam id="882" interp="linr"  time="-9999999/1" value="0" leadInLength="0/1"  />
           <InterpolatingParam id="883" interp="linr"  time="-9999999/1" value="0" leadInLength="0/1"  />
           <InterpolatingParam id="884" interp="linr"  time="-9999999/1" value="0" leadInLength="0/1"  />
          </VectorParam>
          <VectorParam id="885"  name="shear">
           <InterpolatingParam id="886" interp="linr"  time="-9999999/1" value="0" leadInLength="0/1"  />
           <InterpolatingParam id="887" interp="linr"  time="-9999999/1" value="0" leadInLength="0/1"  />
           <InterpolatingParam id="888" interp="linr"  time="-9999999/1" value="0" leadInLength="0/1"  />
          </VectorParam>
          <VectorParam id="889"  name="scale">
           <InterpolatingParam id="890" interp="linr"  time="-9999999/1" value="1" leadInLength="0/1"  />
           <InterpolatingParam id="891" interp="linr"  time="-9999999/1" value="1" leadInLength="0/1"  />
           <InterpolatingParam id="892" interp="linr"  time="-9999999/1" value="1" leadInLength="0/1"  />
          </VectorParam>
          <VectorParam id="893"  name="anchor">
           <InterpolatingParam id="894" interp="linr"  >
            <Keyframes>
            <Keyframe id="895"  time="0/1" value="0" leadInLength="0/1"  />
            <Keyframe id="896"  time="4924/1" value="0" leadInLength="0/1"  />
            </Keyframes>
           </InterpolatingParam>
           <InterpolatingParam id="897" interp="linr"  >
            <Keyframes>
            <Keyframe id="898"  time="0/1" value="0" leadInLength="0/1"  />
            <Keyframe id="899"  time="4924/1" value="0" leadInLength="0/1"  />
            </Keyframes>
           </InterpolatingParam>
           <InterpolatingParam id="900" interp="linr"  >
            <Keyframes>
            <Keyframe id="901"  time="0/1" value="0" leadInLength="0/1"  />
            <Keyframe id="902"  time="4924/1" value="0" leadInLength="0/1"  />
            </Keyframes>
           </InterpolatingParam>
          </VectorParam>
         </Transformer>
         <Parameters>
          <VectorParam id="903"  name="sourceCrop">
           <InterpolatingParam id="904" interp="linr"  >
            <Keyframes>
            <Keyframe id="905"  time="0/1" value="0" leadInLength="0/1"  />
            <Keyframe id="906"  time="4924/1" value="0" leadInLength="0/1"  />
            </Keyframes>
           </InterpolatingParam>
           <InterpolatingParam id="907" interp="linr"  >
            <Keyframes>
            <Keyframe id="908"  time="0/1" value="0" leadInLength="0/1"  />
            <Keyframe id="909"  time="4924/1" value="0" leadInLength="0/1"  />
            </Keyframes>
           </InterpolatingParam>
           <InterpolatingParam id="910" interp="linr"  >
            <Keyframes>
            <Keyframe id="911"  time="0/1" value="0" leadInLength="0/1"  />
            <Keyframe id="912"  time="4924/1" value="0" leadInLength="0/1"  />
            </Keyframes>
           </InterpolatingParam>
           <InterpolatingParam id="913" interp="linr"  >
            <Keyframes>
            <Keyframe id="914"  time="0/1" value="0" leadInLength="0/1"  />
            <Keyframe id="915"  time="4924/1" value="0" leadInLength="0/1"  />
            </Keyframes>
           </InterpolatingParam>
          </VectorParam>
          <VectorParam id="916"  name="geometryCrop">
           <InterpolatingParam id="917" interp="linr"  time="-9999999/1" value="0" leadInLength="0/1"  />
           <InterpolatingParam id="918" interp="linr"  time="-9999999/1" value="0" leadInLength="0/1"  />
           <InterpolatingParam id="919" interp="linr"  time="-9999999/1" value="0" leadInLength="0/1"  />
           <InterpolatingParam id="920" interp="linr"  time="-9999999/1" value="0" leadInLength="0/1"  />
          </VectorParam>
          <InterpolatingParam id="921" interp="linr"  time="-9999999/1" value="1" leadInLength="0/1"  name="opacity"/>
          <InterpolatingParam id="922" interp="linr"  time="0/1" value="1" leadInLength="0/1"  name="cursorOpacity"/>
          <InterpolatingParam id="923" interp="linr"  time="0/1" value="1" leadInLength="0/1"  name="cursorScale"/>
          <InterpolatingParam id="924" interp="linr"  name="volume">
           <Keyframes>
           <Keyframe id="925"  time="-1/1" value="1" leadInLength="0/1"  />
           <Keyframe id="926"  time="0/1" value="0" leadInLength="0/1"  />
           <Keyframe id="927"  time="46313324/5123" value="0" leadInLength="0/1"  />
           <Keyframe id="928"  time="46318447/5123" value="1" leadInLength="0/1"  />
           </Keyframes>
          </InterpolatingParam>
          <Parameter id="929"  name="captions"/>
         </Parameters>
         <Attributes>
          <Attribute id="930" value="" name="ident"/>
          <Attribute id="931" value="0" name="mixToMono"/>
         </Attributes>
         <MetaData>
          <entry key="WinSubProjectDisplayName" val=""/>
         </MetaData>
         <ExtraData>
          <Entry key="ZoomPanBin">
           <ZoomPanBin id="932"  >
            <ZoomPanKeyframes>
             <ZoomPanKeyframe id="933" timeRangeEnd="-9999999/1" timeRangeDuration="0/1" interpolaterName="linr"  />
            </ZoomPanKeyframes>
           </ZoomPanBin>
          </Entry>
          <Entry key="CursorEffectBin">
           <CursorEffectBin id="934"  >
            <CursorEffectKeyframes>
            </CursorEffectKeyframes>
           </CursorEffectBin>
          </Entry>
         </ExtraData>
         <GenericTrack id="935"  >
          <Attributes>
           <Attribute id="936" value="" name="ident"/>
           <Attribute id="937" value="0" name="audioMuted"/>
           <Attribute id="938" value="0" name="videoHidden"/>
          </Attributes>
          <MetaData>
           <entry key="IsLocked" val="False"/>
           <entry key="WinTrackHeight" val="0"/>
          </MetaData>
          <Medias>
           <UnifiedMedia id="939"  >
            <AMFile id="940" start="0" duration="4924" scalar="1/1" mediaStart="0/1" mediaDuration="4924/1" trackNumber="1" src="21" channelNumber="0,1" >
             <Parameters>
              <InterpolatingParam id="941" interp="linr"  time="0/1" value="1" leadInLength="0/1"  name="volume"/>
              <Parameter id="942"  name="captions"/>
             </Parameters>
             <Attributes>
              <Attribute id="943" value="" name="ident"/>
              <Attribute id="944" value="44100" name="sampleRate"/>
              <Attribute id="945" value="16" name="bitDepth"/>
              <Attribute id="946" value="1" name="gain"/>
              <Attribute id="947" value="0" name="mixToMono"/>
             </Attributes>
            </AMFile>
            <VMFile id="948" start="0" duration="4924" scalar="1/1" mediaStart="0/1" mediaDuration="4924/1" trackNumber="0" src="21" >
             <Transformer>
              <VectorParam id="949"  name="translation">
               <InterpolatingParam id="950" interp="linr"  time="-9999999/1" value="0" leadInLength="0/1"  />
               <InterpolatingParam id="951" interp="linr"  time="-9999999/1" value="0" leadInLength="0/1"  />
               <InterpolatingParam id="952" interp="linr"  time="-9999999/1" value="0" leadInLength="0/1"  />
              </VectorParam>
              <VectorParam id="953"  name="rotation">
               <InterpolatingParam id="954" interp="linr"  time="-9999999/1" value="0" leadInLength="0/1"  />
               <InterpolatingParam id="955" interp="linr"  time="-9999999/1" value="0" leadInLength="0/1"  />
               <InterpolatingParam id="956" interp="linr"  time="-9999999/1" value="0" leadInLength="0/1"  />
              </VectorParam>
              <VectorParam id="957"  name="shear">
               <InterpolatingParam id="958" interp="linr"  time="-9999999/1" value="0" leadInLength="0/1"  />
               <InterpolatingParam id="959" interp="linr"  time="-9999999/1" value="0" leadInLength="0/1"  />
               <InterpolatingParam id="960" interp="linr"  time="-9999999/1" value="0" leadInLength="0/1"  />
              </VectorParam>
              <VectorParam id="961"  name="scale">
               <InterpolatingParam id="962" interp="linr"  time="-9999999/1" value="1" leadInLength="0/1"  />
               <InterpolatingParam id="963" interp="linr"  time="-9999999/1" value="1" leadInLength="0/1"  />
               <InterpolatingParam id="964" interp="linr"  time="-9999999/1" value="1" leadInLength="0/1"  />
              </VectorParam>
              <VectorParam id="965"  name="anchor">
               <InterpolatingParam id="966" interp="linr"  time="0/1" value="0" leadInLength="0/1"  />
               <InterpolatingParam id="967" interp="linr"  time="0/1" value="0" leadInLength="0/1"  />
               <InterpolatingParam id="968" interp="linr"  time="0/1" value="0" leadInLength="0/1"  />
              </VectorParam>
             </Transformer>
             <Parameters>
              <VectorParam id="969"  name="sourceCrop">
               <InterpolatingParam id="970" interp="linr"  time="0/1" value="0" leadInLength="0/1"  />
               <InterpolatingParam id="971" interp="linr"  time="0/1" value="0" leadInLength="0/1"  />
               <InterpolatingParam id="972" interp="linr"  time="0/1" value="0" leadInLength="0/1"  />
               <InterpolatingParam id="973" interp="linr"  time="0/1" value="0" leadInLength="0/1"  />
              </VectorParam>
              <VectorParam id="974"  name="geometryCrop">
               <InterpolatingParam id="975" interp="linr"  time="-9999999/1" value="0" leadInLength="0/1"  />
               <InterpolatingParam id="976" interp="linr"  time="-9999999/1" value="0" leadInLength="0/1"  />
               <InterpolatingParam id="977" interp="linr"  time="-9999999/1" value="0" leadInLength="0/1"  />
               <InterpolatingParam id="978" interp="linr"  time="-9999999/1" value="0" leadInLength="0/1"  />
              </VectorParam>
              <InterpolatingParam id="979" interp="linr"  time="-9999999/1" value="1" leadInLength="0/1"  name="opacity"/>
             </Parameters>
             <Attributes>
              <Attribute id="980" value="" name="ident"/>
             </Attributes>
             <ExtraData>
              <Entry key="ZoomPanBin">
               <ZoomPanBin id="981"  >
                <ZoomPanKeyframes>
                 <ZoomPanKeyframe id="982" timeRangeEnd="-9999999/1" timeRangeDuration="0/1" interpolaterName="linr"  />
                </ZoomPanKeyframes>
               </ZoomPanBin>
              </Entry>
             </ExtraData>
            </VMFile>
            <MetaData>
             <entry key="WinSubProjectDisplayName" val=""/>
            </MetaData>
           </UnifiedMedia>
           <IMFile id="983" start="4924" duration="90" scalar="1/1" mediaStart="4924/1" mediaDuration="1/1" trackNumber="0" src="21" trimStartSum="0/1" >
            <Transformer>
             <VectorParam id="984"  name="translation">
              <InterpolatingParam id="985" interp="linr"  time="-9999999/1" value="0" leadInLength="0/1"  />
              <InterpolatingParam id="986" interp="linr"  time="-9999999/1" value="0" leadInLength="0/1"  />
              <InterpolatingParam id="987" interp="linr"  time="-9999999/1" value="0" leadInLength="0/1"  />
             </VectorParam>
             <VectorParam id="988"  name="rotation">
              <InterpolatingParam id="989" interp="linr"  time="-9999999/1" value="0" leadInLength="0/1"  />
              <InterpolatingParam id="990" interp="linr"  time="-9999999/1" value="0" leadInLength="0/1"  />
              <InterpolatingParam id="991" interp="linr"  time="-9999999/1" value="0" leadInLength="0/1"  />
             </VectorParam>
             <VectorParam id="992"  name="shear">
              <InterpolatingParam id="993" interp="linr"  time="-9999999/1" value="0" leadInLength="0/1"  />
              <InterpolatingParam id="994" interp="linr"  time="-9999999/1" value="0" leadInLength="0/1"  />
              <InterpolatingParam id="995" interp="linr"  time="-9999999/1" value="0" leadInLength="0/1"  />
             </VectorParam>
             <VectorParam id="996"  name="scale">
              <InterpolatingParam id="997" interp="linr"  time="-9999999/1" value="1" leadInLength="0/1"  />
              <InterpolatingParam id="998" interp="linr"  time="-9999999/1" value="1" leadInLength="0/1"  />
              <InterpolatingParam id="999" interp="linr"  time="-9999999/1" value="1" leadInLength="0/1"  />
             </VectorParam>
             <VectorParam id="1000"  name="anchor">
              <InterpolatingParam id="1001" interp="linr"  time="0/1" value="0" leadInLength="0/1"  />
              <InterpolatingParam id="1002" interp="linr"  time="0/1" value="0" leadInLength="0/1"  />
              <InterpolatingParam id="1003" interp="linr"  time="0/1" value="0" leadInLength="0/1"  />
             </VectorParam>
            </Transformer>
            <Parameters>
             <VectorParam id="1004"  name="sourceCrop">
              <InterpolatingParam id="1005" interp="linr"  time="0/1" value="0" leadInLength="0/1"  />
              <InterpolatingParam id="1006" interp="linr"  time="0/1" value="0" leadInLength="0/1"  />
              <InterpolatingParam id="1007" interp="linr"  time="0/1" value="0" leadInLength="0/1"  />
              <InterpolatingParam id="1008" interp="linr"  time="0/1" value="0" leadInLength="0/1"  />
             </VectorParam>
             <VectorParam id="1009"  name="geometryCrop">
              <InterpolatingParam id="1010" interp="linr"  time="-9999999/1" value="0" leadInLength="0/1"  />
              <InterpolatingParam id="1011" interp="linr"  time="-9999999/1" value="0" leadInLength="0/1"  />
              <InterpolatingParam id="1012" interp="linr"  time="-9999999/1" value="0" leadInLength="0/1"  />
              <InterpolatingParam id="1013" interp="linr"  time="-9999999/1" value="0" leadInLength="0/1"  />
             </VectorParam>
             <InterpolatingParam id="1014" interp="linr"  time="-9999999/1" value="1" leadInLength="0/1"  name="opacity"/>
            </Parameters>
            <Attributes>
             <Attribute id="1015" value="" name="ident"/>
            </Attributes>
            <MetaData>
             <entry key="WinSubProjectDisplayName" val=""/>
            </MetaData>
            <ExtraData>
             <Entry key="ZoomPanBin">
              <ZoomPanBin id="1016"  >
               <ZoomPanKeyframes>
                <ZoomPanKeyframe id="1017" timeRangeEnd="-9999999/1" timeRangeDuration="0/1" interpolaterName="linr"  />
               </ZoomPanKeyframes>
              </ZoomPanBin>
             </Entry>
            </ExtraData>
           </IMFile>
           <UnifiedMedia id="1018"  >
            <AMFile id="1019" start="5014" duration="4028" scalar="1/1" mediaStart="4923/1" mediaDuration="4028/1" trackNumber="1" src="21" channelNumber="0,1" >
             <Parameters>
              <InterpolatingParam id="1020" interp="linr"  time="0/1" value="1" leadInLength="0/1"  name="volume"/>
              <Parameter id="1021"  name="captions"/>
             </Parameters>
             <Attributes>
              <Attribute id="1022" value="" name="ident"/>
              <Attribute id="1023" value="44100" name="sampleRate"/>
              <Attribute id="1024" value="16" name="bitDepth"/>
              <Attribute id="1025" value="1" name="gain"/>
              <Attribute id="1026" value="0" name="mixToMono"/>
             </Attributes>
            </AMFile>
            <VMFile id="1027" start="5014" duration="4028" scalar="1/1" mediaStart="4923/1" mediaDuration="4028/1" trackNumber="0" src="21" >
             <Transformer>
              <VectorParam id="1028"  name="translation">
               <InterpolatingParam id="1029" interp="linr"  time="-9999999/1" value="0" leadInLength="0/1"  />
               <InterpolatingParam id="1030" interp="linr"  time="-9999999/1" value="0" leadInLength="0/1"  />
               <InterpolatingParam id="1031" interp="linr"  time="-9999999/1" value="0" leadInLength="0/1"  />
              </VectorParam>
              <VectorParam id="1032"  name="rotation">
               <InterpolatingParam id="1033" interp="linr"  time="-9999999/1" value="0" leadInLength="0/1"  />
               <InterpolatingParam id="1034" interp="linr"  time="-9999999/1" value="0" leadInLength="0/1"  />
               <InterpolatingParam id="1035" interp="linr"  time="-9999999/1" value="0" leadInLength="0/1"  />
              </VectorParam>
              <VectorParam id="1036"  name="shear">
               <InterpolatingParam id="1037" interp="linr"  time="-9999999/1" value="0" leadInLength="0/1"  />
               <InterpolatingParam id="1038" interp="linr"  time="-9999999/1" value="0" leadInLength="0/1"  />
               <InterpolatingParam id="1039" interp="linr"  time="-9999999/1" value="0" leadInLength="0/1"  />
              </VectorParam>
              <VectorParam id="1040"  name="scale">
               <InterpolatingParam id="1041" interp="linr"  time="-9999999/1" value="1" leadInLength="0/1"  />
               <InterpolatingParam id="1042" interp="linr"  time="-9999999/1" value="1" leadInLength="0/1"  />
               <InterpolatingParam id="1043" interp="linr"  time="-9999999/1" value="1" leadInLength="0/1"  />
              </VectorParam>
              <VectorParam id="1044"  name="anchor">
               <InterpolatingParam id="1045" interp="linr"  time="0/1" value="0" leadInLength="0/1"  />
               <InterpolatingParam id="1046" interp="linr"  time="0/1" value="0" leadInLength="0/1"  />
               <InterpolatingParam id="1047" interp="linr"  time="0/1" value="0" leadInLength="0/1"  />
              </VectorParam>
             </Transformer>
             <Parameters>
              <VectorParam id="1048"  name="sourceCrop">
               <InterpolatingParam id="1049" interp="linr"  time="0/1" value="0" leadInLength="0/1"  />
               <InterpolatingParam id="1050" interp="linr"  time="0/1" value="0" leadInLength="0/1"  />
               <InterpolatingParam id="1051" interp="linr"  time="0/1" value="0" leadInLength="0/1"  />
               <InterpolatingParam id="1052" interp="linr"  time="0/1" value="0" leadInLength="0/1"  />
              </VectorParam>
              <VectorParam id="1053"  name="geometryCrop">
               <InterpolatingParam id="1054" interp="linr"  time="-9999999/1" value="0" leadInLength="0/1"  />
               <InterpolatingParam id="1055" interp="linr"  time="-9999999/1" value="0" leadInLength="0/1"  />
               <InterpolatingParam id="1056" interp="linr"  time="-9999999/1" value="0" leadInLength="0/1"  />
               <InterpolatingParam id="1057" interp="linr"  time="-9999999/1" value="0" leadInLength="0/1"  />
              </VectorParam>
              <InterpolatingParam id="1058" interp="linr"  time="-9999999/1" value="1" leadInLength="0/1"  name="opacity"/>
             </Parameters>
             <Attributes>
              <Attribute id="1059" value="" name="ident"/>
             </Attributes>
             <ExtraData>
              <Entry key="ZoomPanBin">
               <ZoomPanBin id="1060"  >
                <ZoomPanKeyframes>
                 <ZoomPanKeyframe id="1061" timeRangeEnd="-9999999/1" timeRangeDuration="0/1" interpolaterName="linr"  />
                </ZoomPanKeyframes>
               </ZoomPanBin>
              </Entry>
             </ExtraData>
            </VMFile>
            <MetaData>
             <entry key="WinSubProjectDisplayName" val=""/>
            </MetaData>
           </UnifiedMedia>
          </Medias>
         </GenericTrack>
        </StitchedMedia>
        <UnifiedMedia id="1062"  >
         <AMFile id="1063" start="4768" duration="289" scalar="178929/215936" mediaStart="463031/94" mediaDuration="62405504/178929" trackNumber="1" src="21" channelNumber="0,1" >
          <Parameters>
           <InterpolatingParam id="1064" interp="linr"  name="volume">
            <Keyframes>
            <Keyframe id="1065"  time="-1/1" value="1" leadInLength="0/1"  />
            <Keyframe id="1066"  time="0/1" value="0" leadInLength="0/1"  />
            <Keyframe id="1067"  time="8952/1" value="0" leadInLength="0/1"  />
            <Keyframe id="1068"  time="8953/1" value="1" leadInLength="0/1"  />
            </Keyframes>
           </InterpolatingParam>
           <Parameter id="1069"  name="captions"/>
          </Parameters>
          <Attributes>
           <Attribute id="1070" value="" name="ident"/>
           <Attribute id="1071" value="44100" name="sampleRate"/>
           <Attribute id="1072" value="16" name="bitDepth"/>
           <Attribute id="1073" value="1" name="gain"/>
           <Attribute id="1074" value="0" name="mixToMono"/>
          </Attributes>
         </AMFile>
         <VMFile id="1075" start="4768" duration="289" scalar="178929/215936" mediaStart="463031/94" mediaDuration="62405504/178929" trackNumber="0" src="21" >
          <Transformer>
           <VectorParam id="1076"  name="translation">
            <InterpolatingParam id="1077" interp="linr"  time="-9999999/1" value="0" leadInLength="0/1"  />
            <InterpolatingParam id="1078" interp="linr"  time="-9999999/1" value="0" leadInLength="0/1"  />
            <InterpolatingParam id="1079" interp="linr"  time="-9999999/1" value="0" leadInLength="0/1"  />
           </VectorParam>
           <VectorParam id="1080"  name="rotation">
            <InterpolatingParam id="1081" interp="linr"  time="-9999999/1" value="0" leadInLength="0/1"  />
            <InterpolatingParam id="1082" interp="linr"  time="-9999999/1" value="0" leadInLength="0/1"  />
            <InterpolatingParam id="1083" interp="linr"  time="-9999999/1" value="0" leadInLength="0/1"  />
           </VectorParam>
           <VectorParam id="1084"  name="shear">
            <InterpolatingParam id="1085" interp="linr"  time="-9999999/1" value="0" leadInLength="0/1"  />
            <InterpolatingParam id="1086" interp="linr"  time="-9999999/1" value="0" leadInLength="0/1"  />
            <InterpolatingParam id="1087" interp="linr"  time="-9999999/1" value="0" leadInLength="0/1"  />
           </VectorParam>
           <VectorParam id="1088"  name="scale">
            <InterpolatingParam id="1089" interp="linr"  time="-9999999/1" value="1" leadInLength="0/1"  />
            <InterpolatingParam id="1090" interp="linr"  time="-9999999/1" value="1" leadInLength="0/1"  />
            <InterpolatingParam id="1091" interp="linr"  time="-9999999/1" value="1" leadInLength="0/1"  />
           </VectorParam>
           <VectorParam id="1092"  name="anchor">
            <InterpolatingParam id="1093" interp="linr"  time="0/1" value="0" leadInLength="0/1"  />
            <InterpolatingParam id="1094" interp="linr"  time="0/1" value="0" leadInLength="0/1"  />
            <InterpolatingParam id="1095" interp="linr"  time="0/1" value="0" leadInLength="0/1"  />
           </VectorParam>
          </Transformer>
          <Parameters>
           <VectorParam id="1096"  name="sourceCrop">
            <InterpolatingParam id="1097" interp="linr"  time="0/1" value="0" leadInLength="0/1"  />
            <InterpolatingParam id="1098" interp="linr"  time="0/1" value="0" leadInLength="0/1"  />
            <InterpolatingParam id="1099" interp="linr"  time="0/1" value="0" leadInLength="0/1"  />
            <InterpolatingParam id="1100" interp="linr"  time="0/1" value="0" leadInLength="0/1"  />
           </VectorParam>
           <VectorParam id="1101"  name="geometryCrop">
            <InterpolatingParam id="1102" interp="linr"  time="-9999999/1" value="0" leadInLength="0/1"  />
            <InterpolatingParam id="1103" interp="linr"  time="-9999999/1" value="0" leadInLength="0/1"  />
            <InterpolatingParam id="1104" interp="linr"  time="-9999999/1" value="0" leadInLength="0/1"  />
            <InterpolatingParam id="1105" interp="linr"  time="-9999999/1" value="0" leadInLength="0/1"  />
           </VectorParam>
           <InterpolatingParam id="1106" interp="linr"  time="-9999999/1" value="1" leadInLength="0/1"  name="opacity"/>
          </Parameters>
          <Attributes>
           <Attribute id="1107" value="" name="ident"/>
          </Attributes>
          <ExtraData>
           <Entry key="ZoomPanBin">
            <ZoomPanBin id="1108"  >
             <ZoomPanKeyframes>
              <ZoomPanKeyframe id="1109" timeRangeEnd="-9999999/1" timeRangeDuration="0/1" interpolaterName="linr"  />
             </ZoomPanKeyframes>
            </ZoomPanBin>
           </Entry>
          </ExtraData>
         </VMFile>
         <MetaData>
          <entry key="WinSubProjectDisplayName" val=""/>
         </MetaData>
        </UnifiedMedia>
        <UnifiedMedia id="1110"  >
         <AMFile id="1111" start="5057" duration="134" scalar="11988243/9825088" mediaStart="1906140521/357858" mediaDuration="19650176/178929" trackNumber="1" src="21" channelNumber="0,1" >
          <Parameters>
           <InterpolatingParam id="1112" interp="linr"  name="volume">
            <Keyframes>
            <Keyframe id="1113"  time="-1/1" value="1" leadInLength="0/1"  />
            <Keyframe id="1114"  time="0/1" value="0" leadInLength="0/1"  />
            <Keyframe id="1115"  time="8952/1" value="0" leadInLength="0/1"  />
            <Keyframe id="1116"  time="8953/1" value="1" leadInLength="0/1"  />
            </Keyframes>
           </InterpolatingParam>
           <Parameter id="1117"  name="captions"/>
          </Parameters>
          <Attributes>
           <Attribute id="1118" value="" name="ident"/>
           <Attribute id="1119" value="44100" name="sampleRate"/>
           <Attribute id="1120" value="16" name="bitDepth"/>
           <Attribute id="1121" value="1" name="gain"/>
           <Attribute id="1122" value="0" name="mixToMono"/>
          </Attributes>
         </AMFile>
         <VMFile id="1123" start="5057" duration="134" scalar="11988243/9825088" mediaStart="1906140521/357858" mediaDuration="19650176/178929" trackNumber="0" src="21" >
          <Transformer>
           <VectorParam id="1124"  name="translation">
            <InterpolatingParam id="1125" interp="linr"  time="-9999999/1" value="0" leadInLength="0/1"  />
            <InterpolatingParam id="1126" interp="linr"  time="-9999999/1" value="0" leadInLength="0/1"  />
            <InterpolatingParam id="1127" interp="linr"  time="-9999999/1" value="0" leadInLength="0/1"  />
           </VectorParam>
           <VectorParam id="1128"  name="rotation">
            <InterpolatingParam id="1129" interp="linr"  time="-9999999/1" value="0" leadInLength="0/1"  />
            <InterpolatingParam id="1130" interp="linr"  time="-9999999/1" value="0" leadInLength="0/1"  />
            <InterpolatingParam id="1131" interp="linr"  time="-9999999/1" value="0" leadInLength="0/1"  />
           </VectorParam>
           <VectorParam id="1132"  name="shear">
            <InterpolatingParam id="1133" interp="linr"  time="-9999999/1" value="0" leadInLength="0/1"  />
            <InterpolatingParam id="1134" interp="linr"  time="-9999999/1" value="0" leadInLength="0/1"  />
            <InterpolatingParam id="1135" interp="linr"  time="-9999999/1" value="0" leadInLength="0/1"  />
           </VectorParam>
           <VectorParam id="1136"  name="scale">
            <InterpolatingParam id="1137" interp="linr"  time="-9999999/1" value="1" leadInLength="0/1"  />
            <InterpolatingParam id="1138" interp="linr"  time="-9999999/1" value="1" leadInLength="0/1"  />
            <InterpolatingParam id="1139" interp="linr"  time="-9999999/1" value="1" leadInLength="0/1"  />
           </VectorParam>
           <VectorParam id="1140"  name="anchor">
            <InterpolatingParam id="1141" interp="linr"  time="0/1" value="0" leadInLength="0/1"  />
            <InterpolatingParam id="1142" interp="linr"  time="0/1" value="0" leadInLength="0/1"  />
            <InterpolatingParam id="1143" interp="linr"  time="0/1" value="0" leadInLength="0/1"  />
           </VectorParam>
          </Transformer>
          <Parameters>
           <VectorParam id="1144"  name="sourceCrop">
            <InterpolatingParam id="1145" interp="linr"  time="0/1" value="0" leadInLength="0/1"  />
            <InterpolatingParam id="1146" interp="linr"  time="0/1" value="0" leadInLength="0/1"  />
            <InterpolatingParam id="1147" interp="linr"  time="0/1" value="0" leadInLength="0/1"  />
            <InterpolatingParam id="1148" interp="linr"  time="0/1" value="0" leadInLength="0/1"  />
           </VectorParam>
           <VectorParam id="1149"  name="geometryCrop">
            <InterpolatingParam id="1150" interp="linr"  time="-9999999/1" value="0" leadInLength="0/1"  />
            <InterpolatingParam id="1151" interp="linr"  time="-9999999/1" value="0" leadInLength="0/1"  />
            <InterpolatingParam id="1152" interp="linr"  time="-9999999/1" value="0" leadInLength="0/1"  />
            <InterpolatingParam id="1153" interp="linr"  time="-9999999/1" value="0" leadInLength="0/1"  />
           </VectorParam>
           <InterpolatingParam id="1154" interp="linr"  time="-9999999/1" value="1" leadInLength="0/1"  name="opacity"/>
          </Parameters>
          <Attributes>
           <Attribute id="1155" value="" name="ident"/>
          </Attributes>
          <ExtraData>
           <Entry key="ZoomPanBin">
            <ZoomPanBin id="1156"  >
             <ZoomPanKeyframes>
              <ZoomPanKeyframe id="1157" timeRangeEnd="-9999999/1" timeRangeDuration="0/1" interpolaterName="linr"  />
             </ZoomPanKeyframes>
            </ZoomPanBin>
           </Entry>
          </ExtraData>
         </VMFile>
         <MetaData>
          <entry key="WinSubProjectDisplayName" val=""/>
         </MetaData>
        </UnifiedMedia>
        <UnifiedMedia id="1158"  >
         <AMFile id="1159" start="5191" duration="235" scalar="198810/99533" mediaStart="4599151/846" mediaDuration="99533/846" trackNumber="1" src="21" channelNumber="0,1" >
          <Parameters>
           <InterpolatingParam id="1160" interp="linr"  name="volume">
            <Keyframes>
            <Keyframe id="1161"  time="-1/1" value="1" leadInLength="0/1"  />
            <Keyframe id="1162"  time="0/1" value="0" leadInLength="0/1"  />
            <Keyframe id="1163"  time="8952/1" value="0" leadInLength="0/1"  />
            <Keyframe id="1164"  time="8953/1" value="1" leadInLength="0/1"  />
            </Keyframes>
           </InterpolatingParam>
           <Parameter id="1165"  name="captions"/>
          </Parameters>
          <Attributes>
           <Attribute id="1166" value="" name="ident"/>
           <Attribute id="1167" value="44100" name="sampleRate"/>
           <Attribute id="1168" value="16" name="bitDepth"/>
           <Attribute id="1169" value="1" name="gain"/>
           <Attribute id="1170" value="0" name="mixToMono"/>
          </Attributes>
         </AMFile>
         <VMFile id="1171" start="5191" duration="235" scalar="198810/99533" mediaStart="4599151/846" mediaDuration="99533/846" trackNumber="0" src="21" >
          <Transformer>
           <VectorParam id="1172"  name="translation">
            <InterpolatingParam id="1173" interp="linr"  time="-9999999/1" value="0" leadInLength="0/1"  />
            <InterpolatingParam id="1174" interp="linr"  time="-9999999/1" value="0" leadInLength="0/1"  />
            <InterpolatingParam id="1175" interp="linr"  time="-9999999/1" value="0" leadInLength="0/1"  />
           </VectorParam>
           <VectorParam id="1176"  name="rotation">
            <InterpolatingParam id="1177" interp="linr"  time="-9999999/1" value="0" leadInLength="0/1"  />
            <InterpolatingParam id="1178" interp="linr"  time="-9999999/1" value="0" leadInLength="0/1"  />
            <InterpolatingParam id="1179" interp="linr"  time="-9999999/1" value="0" leadInLength="0/1"  />
           </VectorParam>
           <VectorParam id="1180"  name="shear">
            <InterpolatingParam id="1181" interp="linr"  time="-9999999/1" value="0" leadInLength="0/1"  />
            <InterpolatingParam id="1182" interp="linr"  time="-9999999/1" value="0" leadInLength="0/1"  />
            <InterpolatingParam id="1183" interp="linr"  time="-9999999/1" value="0" leadInLength="0/1"  />
           </VectorParam>
           <VectorParam id="1184"  name="scale">
            <InterpolatingParam id="1185" interp="linr"  time="-9999999/1" value="1" leadInLength="0/1"  />
            <InterpolatingParam id="1186" interp="linr"  time="-9999999/1" value="1" leadInLength="0/1"  />
            <InterpolatingParam id="1187" interp="linr"  time="-9999999/1" value="1" leadInLength="0/1"  />
           </VectorParam>
           <VectorParam id="1188"  name="anchor">
            <InterpolatingParam id="1189" interp="linr"  time="0/1" value="0" leadInLength="0/1"  />
            <InterpolatingParam id="1190" interp="linr"  time="0/1" value="0" leadInLength="0/1"  />
            <InterpolatingParam id="1191" interp="linr"  time="0/1" value="0" leadInLength="0/1"  />
           </VectorParam>
          </Transformer>
          <Parameters>
           <VectorParam id="1192"  name="sourceCrop">
            <InterpolatingParam id="1193" interp="linr"  time="0/1" value="0" leadInLength="0/1"  />
            <InterpolatingParam id="1194" interp="linr"  time="0/1" value="0" leadInLength="0/1"  />
            <InterpolatingParam id="1195" interp="linr"  time="0/1" value="0" leadInLength="0/1"  />
            <InterpolatingParam id="1196" interp="linr"  time="0/1" value="0" leadInLength="0/1"  />
           </VectorParam>
           <VectorParam id="1197"  name="geometryCrop">
            <InterpolatingParam id="1198" interp="linr"  time="-9999999/1" value="0" leadInLength="0/1"  />
            <InterpolatingParam id="1199" interp="linr"  time="-9999999/1" value="0" leadInLength="0/1"  />
            <InterpolatingParam id="1200" interp="linr"  time="-9999999/1" value="0" leadInLength="0/1"  />
            <InterpolatingParam id="1201" interp="linr"  time="-9999999/1" value="0" leadInLength="0/1"  />
           </VectorParam>
           <InterpolatingParam id="1202" interp="linr"  time="-9999999/1" value="1" leadInLength="0/1"  name="opacity"/>
          </Parameters>
          <Attributes>
           <Attribute id="1203" value="" name="ident"/>
          </Attributes>
          <ExtraData>
           <Entry key="ZoomPanBin">
            <ZoomPanBin id="1204"  >
             <ZoomPanKeyframes>
              <ZoomPanKeyframe id="1205" timeRangeEnd="-9999999/1" timeRangeDuration="0/1" interpolaterName="linr"  />
             </ZoomPanKeyframes>
            </ZoomPanBin>
           </Entry>
          </ExtraData>
         </VMFile>
         <MetaData>
          <entry key="WinSubProjectDisplayName" val=""/>
         </MetaData>
        </UnifiedMedia>
        <UnifiedMedia id="1206"  >
         <AMFile id="1207" start="5426" duration="180" scalar="12186/13817" mediaStart="5582/1" mediaDuration="138170/677" trackNumber="1" src="21" channelNumber="0,1" >
          <Parameters>
           <InterpolatingParam id="1208" interp="linr"  name="volume">
            <Keyframes>
            <Keyframe id="1209"  time="-1/1" value="1" leadInLength="0/1"  />
            <Keyframe id="1210"  time="0/1" value="0" leadInLength="0/1"  />
            <Keyframe id="1211"  time="8952/1" value="0" leadInLength="0/1"  />
            <Keyframe id="1212"  time="8953/1" value="1" leadInLength="0/1"  />
            </Keyframes>
           </InterpolatingParam>
           <Parameter id="1213"  name="captions"/>
          </Parameters>
          <Attributes>
           <Attribute id="1214" value="" name="ident"/>
           <Attribute id="1215" value="44100" name="sampleRate"/>
           <Attribute id="1216" value="16" name="bitDepth"/>
           <Attribute id="1217" value="1" name="gain"/>
           <Attribute id="1218" value="0" name="mixToMono"/>
          </Attributes>
         </AMFile>
         <VMFile id="1219" start="5426" duration="180" scalar="12186/13817" mediaStart="5582/1" mediaDuration="138170/677" trackNumber="0" src="21" >
          <Transformer>
           <VectorParam id="1220"  name="translation">
            <InterpolatingParam id="1221" interp="linr"  time="-9999999/1" value="0" leadInLength="0/1"  />
            <InterpolatingParam id="1222" interp="linr"  time="-9999999/1" value="0" leadInLength="0/1"  />
            <InterpolatingParam id="1223" interp="linr"  time="-9999999/1" value="0" leadInLength="0/1"  />
           </VectorParam>
           <VectorParam id="1224"  name="rotation">
            <InterpolatingParam id="1225" interp="linr"  time="-9999999/1" value="0" leadInLength="0/1"  />
            <InterpolatingParam id="1226" interp="linr"  time="-9999999/1" value="0" leadInLength="0/1"  />
            <InterpolatingParam id="1227" interp="linr"  time="-9999999/1" value="0" leadInLength="0/1"  />
           </VectorParam>
           <VectorParam id="1228"  name="shear">
            <InterpolatingParam id="1229" interp="linr"  time="-9999999/1" value="0" leadInLength="0/1"  />
            <InterpolatingParam id="1230" interp="linr"  time="-9999999/1" value="0" leadInLength="0/1"  />
            <InterpolatingParam id="1231" interp="linr"  time="-9999999/1" value="0" leadInLength="0/1"  />
           </VectorParam>
           <VectorParam id="1232"  name="scale">
            <InterpolatingParam id="1233" interp="linr"  time="-9999999/1" value="1" leadInLength="0/1"  />
            <InterpolatingParam id="1234" interp="linr"  time="-9999999/1" value="1" leadInLength="0/1"  />
            <InterpolatingParam id="1235" interp="linr"  time="-9999999/1" value="1" leadInLength="0/1"  />
           </VectorParam>
           <VectorParam id="1236"  name="anchor">
            <InterpolatingParam id="1237" interp="linr"  time="0/1" value="0" leadInLength="0/1"  />
            <InterpolatingParam id="1238" interp="linr"  time="0/1" value="0" leadInLength="0/1"  />
            <InterpolatingParam id="1239" interp="linr"  time="0/1" value="0" leadInLength="0/1"  />
           </VectorParam>
          </Transformer>
          <Parameters>
           <VectorParam id="1240"  name="sourceCrop">
            <InterpolatingParam id="1241" interp="linr"  time="0/1" value="0" leadInLength="0/1"  />
            <InterpolatingParam id="1242" interp="linr"  time="0/1" value="0" leadInLength="0/1"  />
            <InterpolatingParam id="1243" interp="linr"  time="0/1" value="0" leadInLength="0/1"  />
            <InterpolatingParam id="1244" interp="linr"  time="0/1" value="0" leadInLength="0/1"  />
           </VectorParam>
           <VectorParam id="1245"  name="geometryCrop">
            <InterpolatingParam id="1246" interp="linr"  time="-9999999/1" value="0" leadInLength="0/1"  />
            <InterpolatingParam id="1247" interp="linr"  time="-9999999/1" value="0" leadInLength="0/1"  />
            <InterpolatingParam id="1248" interp="linr"  time="-9999999/1" value="0" leadInLength="0/1"  />
            <InterpolatingParam id="1249" interp="linr"  time="-9999999/1" value="0" leadInLength="0/1"  />
           </VectorParam>
           <InterpolatingParam id="1250" interp="linr"  time="-9999999/1" value="1" leadInLength="0/1"  name="opacity"/>
          </Parameters>
          <Attributes>
           <Attribute id="1251" value="" name="ident"/>
          </Attributes>
          <ExtraData>
           <Entry key="ZoomPanBin">
            <ZoomPanBin id="1252"  >
             <ZoomPanKeyframes>
              <ZoomPanKeyframe id="1253" timeRangeEnd="-9999999/1" timeRangeDuration="0/1" interpolaterName="linr"  />
             </ZoomPanKeyframes>
            </ZoomPanBin>
           </Entry>
          </ExtraData>
         </VMFile>
         <MetaData>
          <entry key="WinSubProjectDisplayName" val=""/>
         </MetaData>
        </UnifiedMedia>
        <UnifiedMedia id="1254"  >
         <AMFile id="1255" start="5606" duration="98" scalar="17681209/8930500" mediaStart="3917184/677" mediaDuration="17861000/360841" trackNumber="1" src="21" channelNumber="0,1" >
          <Parameters>
           <InterpolatingParam id="1256" interp="linr"  name="volume">
            <Keyframes>
            <Keyframe id="1257"  time="-1/1" value="1" leadInLength="0/1"  />
            <Keyframe id="1258"  time="0/1" value="0" leadInLength="0/1"  />
            <Keyframe id="1259"  time="8952/1" value="0" leadInLength="0/1"  />
            <Keyframe id="1260"  time="8953/1" value="1" leadInLength="0/1"  />
            </Keyframes>
           </InterpolatingParam>
           <Parameter id="1261"  name="captions"/>
          </Parameters>
          <Attributes>
           <Attribute id="1262" value="" name="ident"/>
           <Attribute id="1263" value="44100" name="sampleRate"/>
           <Attribute id="1264" value="16" name="bitDepth"/>
           <Attribute id="1265" value="1" name="gain"/>
           <Attribute id="1266" value="0" name="mixToMono"/>
          </Attributes>
         </AMFile>
         <VMFile id="1267" start="5606" duration="98" scalar="17681209/8930500" mediaStart="3917184/677" mediaDuration="17861000/360841" trackNumber="0" src="21" >
          <Transformer>
           <VectorParam id="1268"  name="translation">
            <InterpolatingParam id="1269" interp="linr"  time="-9999999/1" value="0" leadInLength="0/1"  />
            <InterpolatingParam id="1270" interp="linr"  time="-9999999/1" value="0" leadInLength="0/1"  />
            <InterpolatingParam id="1271" interp="linr"  time="-9999999/1" value="0" leadInLength="0/1"  />
           </VectorParam>
           <VectorParam id="1272"  name="rotation">
            <InterpolatingParam id="1273" interp="linr"  time="-9999999/1" value="0" leadInLength="0/1"  />
            <InterpolatingParam id="1274" interp="linr"  time="-9999999/1" value="0" leadInLength="0/1"  />
            <InterpolatingParam id="1275" interp="linr"  time="-9999999/1" value="0" leadInLength="0/1"  />
           </VectorParam>
           <VectorParam id="1276"  name="shear">
            <InterpolatingParam id="1277" interp="linr"  time="-9999999/1" value="0" leadInLength="0/1"  />
            <InterpolatingParam id="1278" interp="linr"  time="-9999999/1" value="0" leadInLength="0/1"  />
            <InterpolatingParam id="1279" interp="linr"  time="-9999999/1" value="0" leadInLength="0/1"  />
           </VectorParam>
           <VectorParam id="1280"  name="scale">
            <InterpolatingParam id="1281" interp="linr"  time="-9999999/1" value="1" leadInLength="0/1"  />
            <InterpolatingParam id="1282" interp="linr"  time="-9999999/1" value="1" leadInLength="0/1"  />
            <InterpolatingParam id="1283" interp="linr"  time="-9999999/1" value="1" leadInLength="0/1"  />
           </VectorParam>
           <VectorParam id="1284"  name="anchor">
            <InterpolatingParam id="1285" interp="linr"  time="0/1" value="0" leadInLength="0/1"  />
            <InterpolatingParam id="1286" interp="linr"  time="0/1" value="0" leadInLength="0/1"  />
            <InterpolatingParam id="1287" interp="linr"  time="0/1" value="0" leadInLength="0/1"  />
           </VectorParam>
          </Transformer>
          <Parameters>
           <VectorParam id="1288"  name="sourceCrop">
            <InterpolatingParam id="1289" interp="linr"  time="0/1" value="0" leadInLength="0/1"  />
            <InterpolatingParam id="1290" interp="linr"  time="0/1" value="0" leadInLength="0/1"  />
            <InterpolatingParam id="1291" interp="linr"  time="0/1" value="0" leadInLength="0/1"  />
            <InterpolatingParam id="1292" interp="linr"  time="0/1" value="0" leadInLength="0/1"  />
           </VectorParam>
           <VectorParam id="1293"  name="geometryCrop">
            <InterpolatingParam id="1294" interp="linr"  time="-9999999/1" value="0" leadInLength="0/1"  />
            <InterpolatingParam id="1295" interp="linr"  time="-9999999/1" value="0" leadInLength="0/1"  />
            <InterpolatingParam id="1296" interp="linr"  time="-9999999/1" value="0" leadInLength="0/1"  />
            <InterpolatingParam id="1297" interp="linr"  time="-9999999/1" value="0" leadInLength="0/1"  />
           </VectorParam>
           <InterpolatingParam id="1298" interp="linr"  time="-9999999/1" value="1" leadInLength="0/1"  name="opacity"/>
          </Parameters>
          <Attributes>
           <Attribute id="1299" value="" name="ident"/>
          </Attributes>
          <ExtraData>
           <Entry key="ZoomPanBin">
            <ZoomPanBin id="1300"  >
             <ZoomPanKeyframes>
              <ZoomPanKeyframe id="1301" timeRangeEnd="-9999999/1" timeRangeDuration="0/1" interpolaterName="linr"  />
             </ZoomPanKeyframes>
            </ZoomPanBin>
           </Entry>
          </ExtraData>
         </VMFile>
         <MetaData>
          <entry key="WinSubProjectDisplayName" val=""/>
         </MetaData>
        </UnifiedMedia>
        <UnifiedMedia id="1302"  >
         <AMFile id="1303" start="5704" duration="151" scalar="1328951/1428880" mediaStart="2105720072/360841" mediaDuration="1428880/8801" trackNumber="1" src="21" channelNumber="0,1" >
          <Parameters>
           <InterpolatingParam id="1304" interp="linr"  name="volume">
            <Keyframes>
            <Keyframe id="1305"  time="-1/1" value="1" leadInLength="0/1"  />
            <Keyframe id="1306"  time="0/1" value="0" leadInLength="0/1"  />
            <Keyframe id="1307"  time="8952/1" value="0" leadInLength="0/1"  />
            <Keyframe id="1308"  time="8953/1" value="1" leadInLength="0/1"  />
            </Keyframes>
           </InterpolatingParam>
           <Parameter id="1309"  name="captions"/>
          </Parameters>
          <Attributes>
           <Attribute id="1310" value="" name="ident"/>
           <Attribute id="1311" value="44100" name="sampleRate"/>
           <Attribute id="1312" value="16" name="bitDepth"/>
           <Attribute id="1313" value="1" name="gain"/>
           <Attribute id="1314" value="0" name="mixToMono"/>
          </Attributes>
         </AMFile>
         <VMFile id="1315" start="5704" duration="151" scalar="1328951/1428880" mediaStart="2105720072/360841" mediaDuration="1428880/8801" trackNumber="0" src="21" >
          <Transformer>
           <VectorParam id="1316"  name="translation">
            <InterpolatingParam id="1317" interp="linr"  time="-9999999/1" value="0" leadInLength="0/1"  />
            <InterpolatingParam id="1318" interp="linr"  time="-9999999/1" value="0" leadInLength="0/1"  />
            <InterpolatingParam id="1319" interp="linr"  time="-9999999/1" value="0" leadInLength="0/1"  />
           </VectorParam>
           <VectorParam id="1320"  name="rotation">
            <InterpolatingParam id="1321" interp="linr"  time="-9999999/1" value="0" leadInLength="0/1"  />
            <InterpolatingParam id="1322" interp="linr"  time="-9999999/1" value="0" leadInLength="0/1"  />
            <InterpolatingParam id="1323" interp="linr"  time="-9999999/1" value="0" leadInLength="0/1"  />
           </VectorParam>
           <VectorParam id="1324"  name="shear">
            <InterpolatingParam id="1325" interp="linr"  time="-9999999/1" value="0" leadInLength="0/1"  />
            <InterpolatingParam id="1326" interp="linr"  time="-9999999/1" value="0" leadInLength="0/1"  />
            <InterpolatingParam id="1327" interp="linr"  time="-9999999/1" value="0" leadInLength="0/1"  />
           </VectorParam>
           <VectorParam id="1328"  name="scale">
            <InterpolatingParam id="1329" interp="linr"  time="-9999999/1" value="1" leadInLength="0/1"  />
            <InterpolatingParam id="1330" interp="linr"  time="-9999999/1" value="1" leadInLength="0/1"  />
            <InterpolatingParam id="1331" interp="linr"  time="-9999999/1" value="1" leadInLength="0/1"  />
           </VectorParam>
           <VectorParam id="1332"  name="anchor">
            <InterpolatingParam id="1333" interp="linr"  time="0/1" value="0" leadInLength="0/1"  />
            <InterpolatingParam id="1334" interp="linr"  time="0/1" value="0" leadInLength="0/1"  />
            <InterpolatingParam id="1335" interp="linr"  time="0/1" value="0" leadInLength="0/1"  />
           </VectorParam>
          </Transformer>
          <Parameters>
           <VectorParam id="1336"  name="sourceCrop">
            <InterpolatingParam id="1337" interp="linr"  time="0/1" value="0" leadInLength="0/1"  />
            <InterpolatingParam id="1338" interp="linr"  time="0/1" value="0" leadInLength="0/1"  />
            <InterpolatingParam id="1339" interp="linr"  time="0/1" value="0" leadInLength="0/1"  />
            <InterpolatingParam id="1340" interp="linr"  time="0/1" value="0" leadInLength="0/1"  />
           </VectorParam>
           <VectorParam id="1341"  name="geometryCrop">
            <InterpolatingParam id="1342" interp="linr"  time="-9999999/1" value="0" leadInLength="0/1"  />
            <InterpolatingParam id="1343" interp="linr"  time="-9999999/1" value="0" leadInLength="0/1"  />
            <InterpolatingParam id="1344" interp="linr"  time="-9999999/1" value="0" leadInLength="0/1"  />
            <InterpolatingParam id="1345" interp="linr"  time="-9999999/1" value="0" leadInLength="0/1"  />
           </VectorParam>
           <InterpolatingParam id="1346" interp="linr"  time="-9999999/1" value="1" leadInLength="0/1"  name="opacity"/>
          </Parameters>
          <Attributes>
           <Attribute id="1347" value="" name="ident"/>
          </Attributes>
          <ExtraData>
           <Entry key="ZoomPanBin">
            <ZoomPanBin id="1348"  >
             <ZoomPanKeyframes>
              <ZoomPanKeyframe id="1349" timeRangeEnd="-9999999/1" timeRangeDuration="0/1" interpolaterName="linr"  />
             </ZoomPanKeyframes>
            </ZoomPanBin>
           </Entry>
          </ExtraData>
         </VMFile>
         <MetaData>
          <entry key="WinSubProjectDisplayName" val=""/>
         </MetaData>
        </UnifiedMedia>
        <UnifiedMedia id="1350"  >
         <AMFile id="1351" start="5855" duration="183" scalar="360841/357220" mediaStart="2164304152/360841" mediaDuration="65371260/360841" trackNumber="1" src="21" channelNumber="0,1" >
          <Parameters>
           <InterpolatingParam id="1352" interp="linr"  name="volume">
            <Keyframes>
            <Keyframe id="1353"  time="-1/1" value="1" leadInLength="0/1"  />
            <Keyframe id="1354"  time="0/1" value="0" leadInLength="0/1"  />
            <Keyframe id="1355"  time="8952/1" value="0" leadInLength="0/1"  />
            <Keyframe id="1356"  time="8953/1" value="1" leadInLength="0/1"  />
            </Keyframes>
           </InterpolatingParam>
           <Parameter id="1357"  name="captions"/>
          </Parameters>
          <Attributes>
           <Attribute id="1358" value="" name="ident"/>
           <Attribute id="1359" value="44100" name="sampleRate"/>
           <Attribute id="1360" value="16" name="bitDepth"/>
           <Attribute id="1361" value="1" name="gain"/>
           <Attribute id="1362" value="0" name="mixToMono"/>
          </Attributes>
         </AMFile>
         <VMFile id="1363" start="5855" duration="183" scalar="360841/357220" mediaStart="2164304152/360841" mediaDuration="65371260/360841" trackNumber="0" src="21" >
          <Transformer>
           <VectorParam id="1364"  name="translation">
            <InterpolatingParam id="1365" interp="linr"  time="-9999999/1" value="0" leadInLength="0/1"  />
            <InterpolatingParam id="1366" interp="linr"  time="-9999999/1" value="0" leadInLength="0/1"  />
            <InterpolatingParam id="1367" interp="linr"  time="-9999999/1" value="0" leadInLength="0/1"  />
           </VectorParam>
           <VectorParam id="1368"  name="rotation">
            <InterpolatingParam id="1369" interp="linr"  time="-9999999/1" value="0" leadInLength="0/1"  />
            <InterpolatingParam id="1370" interp="linr"  time="-9999999/1" value="0" leadInLength="0/1"  />
            <InterpolatingParam id="1371" interp="linr"  time="-9999999/1" value="0" leadInLength="0/1"  />
           </VectorParam>
           <VectorParam id="1372"  name="shear">
            <InterpolatingParam id="1373" interp="linr"  time="-9999999/1" value="0" leadInLength="0/1"  />
            <InterpolatingParam id="1374" interp="linr"  time="-9999999/1" value="0" leadInLength="0/1"  />
            <InterpolatingParam id="1375" interp="linr"  time="-9999999/1" value="0" leadInLength="0/1"  />
           </VectorParam>
           <VectorParam id="1376"  name="scale">
            <InterpolatingParam id="1377" interp="linr"  time="-9999999/1" value="1" leadInLength="0/1"  />
            <InterpolatingParam id="1378" interp="linr"  time="-9999999/1" value="1" leadInLength="0/1"  />
            <InterpolatingParam id="1379" interp="linr"  time="-9999999/1" value="1" leadInLength="0/1"  />
           </VectorParam>
           <VectorParam id="1380"  name="anchor">
            <InterpolatingParam id="1381" interp="linr"  time="0/1" value="0" leadInLength="0/1"  />
            <InterpolatingParam id="1382" interp="linr"  time="0/1" value="0" leadInLength="0/1"  />
            <InterpolatingParam id="1383" interp="linr"  time="0/1" value="0" leadInLength="0/1"  />
           </VectorParam>
          </Transformer>
          <Parameters>
           <VectorParam id="1384"  name="sourceCrop">
            <InterpolatingParam id="1385" interp="linr"  time="0/1" value="0" leadInLength="0/1"  />
            <InterpolatingParam id="1386" interp="linr"  time="0/1" value="0" leadInLength="0/1"  />
            <InterpolatingParam id="1387" interp="linr"  time="0/1" value="0" leadInLength="0/1"  />
            <InterpolatingParam id="1388" interp="linr"  time="0/1" value="0" leadInLength="0/1"  />
           </VectorParam>
           <VectorParam id="1389"  name="geometryCrop">
            <InterpolatingParam id="1390" interp="linr"  time="-9999999/1" value="0" leadInLength="0/1"  />
            <InterpolatingParam id="1391" interp="linr"  time="-9999999/1" value="0" leadInLength="0/1"  />
            <InterpolatingParam id="1392" interp="linr"  time="-9999999/1" value="0" leadInLength="0/1"  />
            <InterpolatingParam id="1393" interp="linr"  time="-9999999/1" value="0" leadInLength="0/1"  />
           </VectorParam>
           <InterpolatingParam id="1394" interp="linr"  time="-9999999/1" value="1" leadInLength="0/1"  name="opacity"/>
          </Parameters>
          <Attributes>
           <Attribute id="1395" value="" name="ident"/>
          </Attributes>
          <ExtraData>
           <Entry key="ZoomPanBin">
            <ZoomPanBin id="1396"  >
             <ZoomPanKeyframes>
              <ZoomPanKeyframe id="1397" timeRangeEnd="-9999999/1" timeRangeDuration="0/1" interpolaterName="linr"  />
             </ZoomPanKeyframes>
            </ZoomPanBin>
           </Entry>
          </ExtraData>
         </VMFile>
         <MetaData>
          <entry key="WinSubProjectDisplayName" val=""/>
         </MetaData>
        </UnifiedMedia>
        <UnifiedMedia id="1398"  >
         <AMFile id="1399" start="6038" duration="99" scalar="35723259/60727400" mediaStart="2243964212/360841" mediaDuration="60727400/360841" trackNumber="1" src="21" channelNumber="0,1" >
          <Parameters>
           <InterpolatingParam id="1400" interp="linr"  name="volume">
            <Keyframes>
            <Keyframe id="1401"  time="-1/1" value="1" leadInLength="0/1"  />
            <Keyframe id="1402"  time="0/1" value="0" leadInLength="0/1"  />
            <Keyframe id="1403"  time="8952/1" value="0" leadInLength="0/1"  />
            <Keyframe id="1404"  time="8953/1" value="1" leadInLength="0/1"  />
            </Keyframes>
           </InterpolatingParam>
           <Parameter id="1405"  name="captions"/>
          </Parameters>
          <Attributes>
           <Attribute id="1406" value="" name="ident"/>
           <Attribute id="1407" value="44100" name="sampleRate"/>
           <Attribute id="1408" value="16" name="bitDepth"/>
           <Attribute id="1409" value="1" name="gain"/>
           <Attribute id="1410" value="0" name="mixToMono"/>
          </Attributes>
         </AMFile>
         <VMFile id="1411" start="6038" duration="99" scalar="35723259/60727400" mediaStart="2243964212/360841" mediaDuration="60727400/360841" trackNumber="0" src="21" >
          <Transformer>
           <VectorParam id="1412"  name="translation">
            <InterpolatingParam id="1413" interp="linr"  time="-9999999/1" value="0" leadInLength="0/1"  />
            <InterpolatingParam id="1414" interp="linr"  time="-9999999/1" value="0" leadInLength="0/1"  />
            <InterpolatingParam id="1415" interp="linr"  time="-9999999/1" value="0" leadInLength="0/1"  />
           </VectorParam>
           <VectorParam id="1416"  name="rotation">
            <InterpolatingParam id="1417" interp="linr"  time="-9999999/1" value="0" leadInLength="0/1"  />
            <InterpolatingParam id="1418" interp="linr"  time="-9999999/1" value="0" leadInLength="0/1"  />
            <InterpolatingParam id="1419" interp="linr"  time="-9999999/1" value="0" leadInLength="0/1"  />
           </VectorParam>
           <VectorParam id="1420"  name="shear">
            <InterpolatingParam id="1421" interp="linr"  time="-9999999/1" value="0" leadInLength="0/1"  />
            <InterpolatingParam id="1422" interp="linr"  time="-9999999/1" value="0" leadInLength="0/1"  />
            <InterpolatingParam id="1423" interp="linr"  time="-9999999/1" value="0" leadInLength="0/1"  />
           </VectorParam>
           <VectorParam id="1424"  name="scale">
            <InterpolatingParam id="1425" interp="linr"  time="-9999999/1" value="1" leadInLength="0/1"  />
            <InterpolatingParam id="1426" interp="linr"  time="-9999999/1" value="1" leadInLength="0/1"  />
            <InterpolatingParam id="1427" interp="linr"  time="-9999999/1" value="1" leadInLength="0/1"  />
           </VectorParam>
           <VectorParam id="1428"  name="anchor">
            <InterpolatingParam id="1429" interp="linr"  time="0/1" value="0" leadInLength="0/1"  />
            <InterpolatingParam id="1430" interp="linr"  time="0/1" value="0" leadInLength="0/1"  />
            <InterpolatingParam id="1431" interp="linr"  time="0/1" value="0" leadInLength="0/1"  />
           </VectorParam>
          </Transformer>
          <Parameters>
           <VectorParam id="1432"  name="sourceCrop">
            <InterpolatingParam id="1433" interp="linr"  time="0/1" value="0" leadInLength="0/1"  />
            <InterpolatingParam id="1434" interp="linr"  time="0/1" value="0" leadInLength="0/1"  />
            <InterpolatingParam id="1435" interp="linr"  time="0/1" value="0" leadInLength="0/1"  />
            <InterpolatingParam id="1436" interp="linr"  time="0/1" value="0" leadInLength="0/1"  />
           </VectorParam>
           <VectorParam id="1437"  name="geometryCrop">
            <InterpolatingParam id="1438" interp="linr"  time="-9999999/1" value="0" leadInLength="0/1"  />
            <InterpolatingParam id="1439" interp="linr"  time="-9999999/1" value="0" leadInLength="0/1"  />
            <InterpolatingParam id="1440" interp="linr"  time="-9999999/1" value="0" leadInLength="0/1"  />
            <InterpolatingParam id="1441" interp="linr"  time="-9999999/1" value="0" leadInLength="0/1"  />
           </VectorParam>
           <InterpolatingParam id="1442" interp="linr"  time="-9999999/1" value="1" leadInLength="0/1"  name="opacity"/>
          </Parameters>
          <Attributes>
           <Attribute id="1443" value="" name="ident"/>
          </Attributes>
          <ExtraData>
           <Entry key="ZoomPanBin">
            <ZoomPanBin id="1444"  >
             <ZoomPanKeyframes>
              <ZoomPanKeyframe id="1445" timeRangeEnd="-9999999/1" timeRangeDuration="0/1" interpolaterName="linr"  />
             </ZoomPanKeyframes>
            </ZoomPanBin>
           </Entry>
          </ExtraData>
         </VMFile>
         <MetaData>
          <entry key="WinSubProjectDisplayName" val=""/>
         </MetaData>
        </UnifiedMedia>
        <UnifiedMedia id="1446"  >
         <AMFile id="1447" start="6137" duration="192" scalar="17320368/20450845" mediaStart="2304691612/360841" mediaDuration="81803380/360841" trackNumber="1" src="21" channelNumber="0,1" >
          <Parameters>
           <InterpolatingParam id="1448" interp="linr"  name="volume">
            <Keyframes>
            <Keyframe id="1449"  time="-1/1" value="1" leadInLength="0/1"  />
            <Keyframe id="1450"  time="0/1" value="0" leadInLength="0/1"  />
            <Keyframe id="1451"  time="8952/1" value="0" leadInLength="0/1"  />
            <Keyframe id="1452"  time="8953/1" value="1" leadInLength="0/1"  />
            </Keyframes>
           </InterpolatingParam>
           <Parameter id="1453"  name="captions"/>
          </Parameters>
          <Attributes>
           <Attribute id="1454" value="" name="ident"/>
           <Attribute id="1455" value="44100" name="sampleRate"/>
           <Attribute id="1456" value="16" name="bitDepth"/>
           <Attribute id="1457" value="1" name="gain"/>
           <Attribute id="1458" value="0" name="mixToMono"/>
          </Attributes>
         </AMFile>
         <VMFile id="1459" start="6137" duration="192" scalar="17320368/20450845" mediaStart="2304691612/360841" mediaDuration="81803380/360841" trackNumber="0" src="21" >
          <Transformer>
           <VectorParam id="1460"  name="translation">
            <InterpolatingParam id="1461" interp="linr"  time="-9999999/1" value="0" leadInLength="0/1"  />
            <InterpolatingParam id="1462" interp="linr"  time="-9999999/1" value="0" leadInLength="0/1"  />
            <InterpolatingParam id="1463" interp="linr"  time="-9999999/1" value="0" leadInLength="0/1"  />
           </VectorParam>
           <VectorParam id="1464"  name="rotation">
            <InterpolatingParam id="1465" interp="linr"  time="-9999999/1" value="0" leadInLength="0/1"  />
            <InterpolatingParam id="1466" interp="linr"  time="-9999999/1" value="0" leadInLength="0/1"  />
            <InterpolatingParam id="1467" interp="linr"  time="-9999999/1" value="0" leadInLength="0/1"  />
           </VectorParam>
           <VectorParam id="1468"  name="shear">
            <InterpolatingParam id="1469" interp="linr"  time="-9999999/1" value="0" leadInLength="0/1"  />
            <InterpolatingParam id="1470" interp="linr"  time="-9999999/1" value="0" leadInLength="0/1"  />
            <InterpolatingParam id="1471" interp="linr"  time="-9999999/1" value="0" leadInLength="0/1"  />
           </VectorParam>
           <VectorParam id="1472"  name="scale">
            <InterpolatingParam id="1473" interp="linr"  time="-9999999/1" value="1" leadInLength="0/1"  />
            <InterpolatingParam id="1474" interp="linr"  time="-9999999/1" value="1" leadInLength="0/1"  />
            <InterpolatingParam id="1475" interp="linr"  time="-9999999/1" value="1" leadInLength="0/1"  />
           </VectorParam>
           <VectorParam id="1476"  name="anchor">
            <InterpolatingParam id="1477" interp="linr"  time="0/1" value="0" leadInLength="0/1"  />
            <InterpolatingParam id="1478" interp="linr"  time="0/1" value="0" leadInLength="0/1"  />
            <InterpolatingParam id="1479" interp="linr"  time="0/1" value="0" leadInLength="0/1"  />
           </VectorParam>
          </Transformer>
          <Parameters>
           <VectorParam id="1480"  name="sourceCrop">
            <InterpolatingParam id="1481" interp="linr"  time="0/1" value="0" leadInLength="0/1"  />
            <InterpolatingParam id="1482" interp="linr"  time="0/1" value="0" leadInLength="0/1"  />
            <InterpolatingParam id="1483" interp="linr"  time="0/1" value="0" leadInLength="0/1"  />
            <InterpolatingParam id="1484" interp="linr"  time="0/1" value="0" leadInLength="0/1"  />
           </VectorParam>
           <VectorParam id="1485"  name="geometryCrop">
            <InterpolatingParam id="1486" interp="linr"  time="-9999999/1" value="0" leadInLength="0/1"  />
            <InterpolatingParam id="1487" interp="linr"  time="-9999999/1" value="0" leadInLength="0/1"  />
            <InterpolatingParam id="1488" interp="linr"  time="-9999999/1" value="0" leadInLength="0/1"  />
            <InterpolatingParam id="1489" interp="linr"  time="-9999999/1" value="0" leadInLength="0/1"  />
           </VectorParam>
           <InterpolatingParam id="1490" interp="linr"  time="-9999999/1" value="1" leadInLength="0/1"  name="opacity"/>
          </Parameters>
          <Attributes>
           <Attribute id="1491" value="" name="ident"/>
          </Attributes>
          <ExtraData>
           <Entry key="ZoomPanBin">
            <ZoomPanBin id="1492"  >
             <ZoomPanKeyframes>
              <ZoomPanKeyframe id="1493" timeRangeEnd="-9999999/1" timeRangeDuration="0/1" interpolaterName="linr"  />
             </ZoomPanKeyframes>
            </ZoomPanBin>
           </Entry>
          </ExtraData>
         </VMFile>
         <MetaData>
          <entry key="WinSubProjectDisplayName" val=""/>
         </MetaData>
        </UnifiedMedia>
        <UnifiedMedia id="1494"  >
         <AMFile id="1495" start="6329" duration="470" scalar="413647/250054" mediaStart="2386494992/360841" mediaDuration="2500540/8801" trackNumber="1" src="21" channelNumber="0,1" >
          <Parameters>
           <InterpolatingParam id="1496" interp="linr"  name="volume">
            <Keyframes>
            <Keyframe id="1497"  time="-1/1" value="1" leadInLength="0/1"  />
            <Keyframe id="1498"  time="0/1" value="0" leadInLength="0/1"  />
            <Keyframe id="1499"  time="8952/1" value="0" leadInLength="0/1"  />
            <Keyframe id="1500"  time="8953/1" value="1" leadInLength="0/1"  />
            </Keyframes>
           </InterpolatingParam>
           <Parameter id="1501"  name="captions"/>
          </Parameters>
          <Attributes>
           <Attribute id="1502" value="" name="ident"/>
           <Attribute id="1503" value="44100" name="sampleRate"/>
           <Attribute id="1504" value="16" name="bitDepth"/>
           <Attribute id="1505" value="1" name="gain"/>
           <Attribute id="1506" value="0" name="mixToMono"/>
          </Attributes>
         </AMFile>
         <VMFile id="1507" start="6329" duration="470" scalar="413647/250054" mediaStart="2386494992/360841" mediaDuration="2500540/8801" trackNumber="0" src="21" >
          <Transformer>
           <VectorParam id="1508"  name="translation">
            <InterpolatingParam id="1509" interp="linr"  time="-9999999/1" value="0" leadInLength="0/1"  />
            <InterpolatingParam id="1510" interp="linr"  time="-9999999/1" value="0" leadInLength="0/1"  />
            <InterpolatingParam id="1511" interp="linr"  time="-9999999/1" value="0" leadInLength="0/1"  />
           </VectorParam>
           <VectorParam id="1512"  name="rotation">
            <InterpolatingParam id="1513" interp="linr"  time="-9999999/1" value="0" leadInLength="0/1"  />
            <InterpolatingParam id="1514" interp="linr"  time="-9999999/1" value="0" leadInLength="0/1"  />
            <InterpolatingParam id="1515" interp="linr"  time="-9999999/1" value="0" leadInLength="0/1"  />
           </VectorParam>
           <VectorParam id="1516"  name="shear">
            <InterpolatingParam id="1517" interp="linr"  time="-9999999/1" value="0" leadInLength="0/1"  />
            <InterpolatingParam id="1518" interp="linr"  time="-9999999/1" value="0" leadInLength="0/1"  />
            <InterpolatingParam id="1519" interp="linr"  time="-9999999/1" value="0" leadInLength="0/1"  />
           </VectorParam>
           <VectorParam id="1520"  name="scale">
            <InterpolatingParam id="1521" interp="linr"  time="-9999999/1" value="1" leadInLength="0/1"  />
            <InterpolatingParam id="1522" interp="linr"  time="-9999999/1" value="1" leadInLength="0/1"  />
            <InterpolatingParam id="1523" interp="linr"  time="-9999999/1" value="1" leadInLength="0/1"  />
           </VectorParam>
           <VectorParam id="1524"  name="anchor">
            <InterpolatingParam id="1525" interp="linr"  time="0/1" value="0" leadInLength="0/1"  />
            <InterpolatingParam id="1526" interp="linr"  time="0/1" value="0" leadInLength="0/1"  />
            <InterpolatingParam id="1527" interp="linr"  time="0/1" value="0" leadInLength="0/1"  />
           </VectorParam>
          </Transformer>
          <Parameters>
           <VectorParam id="1528"  name="sourceCrop">
            <InterpolatingParam id="1529" interp="linr"  time="0/1" value="0" leadInLength="0/1"  />
            <InterpolatingParam id="1530" interp="linr"  time="0/1" value="0" leadInLength="0/1"  />
            <InterpolatingParam id="1531" interp="linr"  time="0/1" value="0" leadInLength="0/1"  />
            <InterpolatingParam id="1532" interp="linr"  time="0/1" value="0" leadInLength="0/1"  />
           </VectorParam>
           <VectorParam id="1533"  name="geometryCrop">
            <InterpolatingParam id="1534" interp="linr"  time="-9999999/1" value="0" leadInLength="0/1"  />
            <InterpolatingParam id="1535" interp="linr"  time="-9999999/1" value="0" leadInLength="0/1"  />
            <InterpolatingParam id="1536" interp="linr"  time="-9999999/1" value="0" leadInLength="0/1"  />
            <InterpolatingParam id="1537" interp="linr"  time="-9999999/1" value="0" leadInLength="0/1"  />
           </VectorParam>
           <InterpolatingParam id="1538" interp="linr"  time="-9999999/1" value="1" leadInLength="0/1"  name="opacity"/>
          </Parameters>
          <Attributes>
           <Attribute id="1539" value="" name="ident"/>
          </Attributes>
          <ExtraData>
           <Entry key="ZoomPanBin">
            <ZoomPanBin id="1540"  >
             <ZoomPanKeyframes>
              <ZoomPanKeyframe id="1541" timeRangeEnd="-9999999/1" timeRangeDuration="0/1" interpolaterName="linr"  />
             </ZoomPanKeyframes>
            </ZoomPanBin>
           </Entry>
          </ExtraData>
         </VMFile>
         <MetaData>
          <entry key="WinSubProjectDisplayName" val=""/>
         </MetaData>
        </UnifiedMedia>
        <UnifiedMedia id="1542"  >
         <AMFile id="1543" start="6799" duration="330" scalar="2525887/1303853" mediaStart="2489017132/360841" mediaDuration="430271490/2525887" trackNumber="1" src="21" channelNumber="0,1" >
          <Parameters>
           <InterpolatingParam id="1544" interp="linr"  name="volume">
            <Keyframes>
            <Keyframe id="1545"  time="-1/1" value="1" leadInLength="0/1"  />
            <Keyframe id="1546"  time="0/1" value="0" leadInLength="0/1"  />
            <Keyframe id="1547"  time="8952/1" value="0" leadInLength="0/1"  />
            <Keyframe id="1548"  time="8953/1" value="1" leadInLength="0/1"  />
            </Keyframes>
           </InterpolatingParam>
           <Parameter id="1549"  name="captions"/>
          </Parameters>
          <Attributes>
           <Attribute id="1550" value="" name="ident"/>
           <Attribute id="1551" value="44100" name="sampleRate"/>
           <Attribute id="1552" value="16" name="bitDepth"/>
           <Attribute id="1553" value="1" name="gain"/>
           <Attribute id="1554" value="0" name="mixToMono"/>
          </Attributes>
         </AMFile>
         <VMFile id="1555" start="6799" duration="330" scalar="2525887/1303853" mediaStart="2489017132/360841" mediaDuration="430271490/2525887" trackNumber="0" src="21" >
          <Transformer>
           <VectorParam id="1556"  name="translation">
            <InterpolatingParam id="1557" interp="linr"  time="-9999999/1" value="0" leadInLength="0/1"  />
            <InterpolatingParam id="1558" interp="linr"  time="-9999999/1" value="0" leadInLength="0/1"  />
            <InterpolatingParam id="1559" interp="linr"  time="-9999999/1" value="0" leadInLength="0/1"  />
           </VectorParam>
           <VectorParam id="1560"  name="rotation">
            <InterpolatingParam id="1561" interp="linr"  time="-9999999/1" value="0" leadInLength="0/1"  />
            <InterpolatingParam id="1562" interp="linr"  time="-9999999/1" value="0" leadInLength="0/1"  />
            <InterpolatingParam id="1563" interp="linr"  time="-9999999/1" value="0" leadInLength="0/1"  />
           </VectorParam>
           <VectorParam id="1564"  name="shear">
            <InterpolatingParam id="1565" interp="linr"  time="-9999999/1" value="0" leadInLength="0/1"  />
            <InterpolatingParam id="1566" interp="linr"  time="-9999999/1" value="0" leadInLength="0/1"  />
            <InterpolatingParam id="1567" interp="linr"  time="-9999999/1" value="0" leadInLength="0/1"  />
           </VectorParam>
           <VectorParam id="1568"  name="scale">
            <InterpolatingParam id="1569" interp="linr"  time="-9999999/1" value="1" leadInLength="0/1"  />
            <InterpolatingParam id="1570" interp="linr"  time="-9999999/1" value="1" leadInLength="0/1"  />
            <InterpolatingParam id="1571" interp="linr"  time="-9999999/1" value="1" leadInLength="0/1"  />
           </VectorParam>
           <VectorParam id="1572"  name="anchor">
            <InterpolatingParam id="1573" interp="linr"  time="0/1" value="0" leadInLength="0/1"  />
            <InterpolatingParam id="1574" interp="linr"  time="0/1" value="0" leadInLength="0/1"  />
            <InterpolatingParam id="1575" interp="linr"  time="0/1" value="0" leadInLength="0/1"  />
           </VectorParam>
          </Transformer>
          <Parameters>
           <VectorParam id="1576"  name="sourceCrop">
            <InterpolatingParam id="1577" interp="linr"  time="0/1" value="0" leadInLength="0/1"  />
            <InterpolatingParam id="1578" interp="linr"  time="0/1" value="0" leadInLength="0/1"  />
            <InterpolatingParam id="1579" interp="linr"  time="0/1" value="0" leadInLength="0/1"  />
            <InterpolatingParam id="1580" interp="linr"  time="0/1" value="0" leadInLength="0/1"  />
           </VectorParam>
           <VectorParam id="1581"  name="geometryCrop">
            <InterpolatingParam id="1582" interp="linr"  time="-9999999/1" value="0" leadInLength="0/1"  />
            <InterpolatingParam id="1583" interp="linr"  time="-9999999/1" value="0" leadInLength="0/1"  />
            <InterpolatingParam id="1584" interp="linr"  time="-9999999/1" value="0" leadInLength="0/1"  />
            <InterpolatingParam id="1585" interp="linr"  time="-9999999/1" value="0" leadInLength="0/1"  />
           </VectorParam>
           <InterpolatingParam id="1586" interp="linr"  time="-9999999/1" value="1" leadInLength="0/1"  name="opacity"/>
          </Parameters>
          <Attributes>
           <Attribute id="1587" value="" name="ident"/>
          </Attributes>
          <ExtraData>
           <Entry key="ZoomPanBin">
            <ZoomPanBin id="1588"  >
             <ZoomPanKeyframes>
              <ZoomPanKeyframe id="1589" timeRangeEnd="-9999999/1" timeRangeDuration="0/1" interpolaterName="linr"  />
             </ZoomPanKeyframes>
            </ZoomPanBin>
           </Entry>
          </ExtraData>
         </VMFile>
         <MetaData>
          <entry key="WinSubProjectDisplayName" val=""/>
         </MetaData>
        </UnifiedMedia>
        <UnifiedMedia id="1590"  >
         <AMFile id="1591" start="7129" duration="230" scalar="2525887/1303853" mediaStart="17853391414/2525887" mediaDuration="299886190/2525887" trackNumber="1" src="21" channelNumber="0,1" >
          <Parameters>
           <InterpolatingParam id="1592" interp="linr"  name="volume">
            <Keyframes>
            <Keyframe id="1593"  time="-1/1" value="1" leadInLength="0/1"  />
            <Keyframe id="1594"  time="0/1" value="0" leadInLength="0/1"  />
            <Keyframe id="1595"  time="8952/1" value="0" leadInLength="0/1"  />
            <Keyframe id="1596"  time="8953/1" value="1" leadInLength="0/1"  />
            </Keyframes>
           </InterpolatingParam>
           <Parameter id="1597"  name="captions"/>
          </Parameters>
          <Attributes>
           <Attribute id="1598" value="" name="ident"/>
           <Attribute id="1599" value="44100" name="sampleRate"/>
           <Attribute id="1600" value="16" name="bitDepth"/>
           <Attribute id="1601" value="1" name="gain"/>
           <Attribute id="1602" value="0" name="mixToMono"/>
          </Attributes>
         </AMFile>
         <VMFile id="1603" start="7129" duration="230" scalar="2525887/1303853" mediaStart="17853391414/2525887" mediaDuration="299886190/2525887" trackNumber="0" src="21" >
          <Transformer>
           <VectorParam id="1604"  name="translation">
            <InterpolatingParam id="1605" interp="linr"  time="-9999999/1" value="0" leadInLength="0/1"  />
            <InterpolatingParam id="1606" interp="linr"  time="-9999999/1" value="0" leadInLength="0/1"  />
            <InterpolatingParam id="1607" interp="linr"  time="-9999999/1" value="0" leadInLength="0/1"  />
           </VectorParam>
           <VectorParam id="1608"  name="rotation">
            <InterpolatingParam id="1609" interp="linr"  time="-9999999/1" value="0" leadInLength="0/1"  />
            <InterpolatingParam id="1610" interp="linr"  time="-9999999/1" value="0" leadInLength="0/1"  />
            <InterpolatingParam id="1611" interp="linr"  time="-9999999/1" value="0" leadInLength="0/1"  />
           </VectorParam>
           <VectorParam id="1612"  name="shear">
            <InterpolatingParam id="1613" interp="linr"  time="-9999999/1" value="0" leadInLength="0/1"  />
            <InterpolatingParam id="1614" interp="linr"  time="-9999999/1" value="0" leadInLength="0/1"  />
            <InterpolatingParam id="1615" interp="linr"  time="-9999999/1" value="0" leadInLength="0/1"  />
           </VectorParam>
           <VectorParam id="1616"  name="scale">
            <InterpolatingParam id="1617" interp="linr"  time="-9999999/1" value="1" leadInLength="0/1"  />
            <InterpolatingParam id="1618" interp="linr"  time="-9999999/1" value="1" leadInLength="0/1"  />
            <InterpolatingParam id="1619" interp="linr"  time="-9999999/1" value="1" leadInLength="0/1"  />
           </VectorParam>
           <VectorParam id="1620"  name="anchor">
            <InterpolatingParam id="1621" interp="linr"  time="0/1" value="0" leadInLength="0/1"  />
            <InterpolatingParam id="1622" interp="linr"  time="0/1" value="0" leadInLength="0/1"  />
            <InterpolatingParam id="1623" interp="linr"  time="0/1" value="0" leadInLength="0/1"  />
           </VectorParam>
          </Transformer>
          <Parameters>
           <VectorParam id="1624"  name="sourceCrop">
            <InterpolatingParam id="1625" interp="linr"  time="0/1" value="0" leadInLength="0/1"  />
            <InterpolatingParam id="1626" interp="linr"  time="0/1" value="0" leadInLength="0/1"  />
            <InterpolatingParam id="1627" interp="linr"  time="0/1" value="0" leadInLength="0/1"  />
            <InterpolatingParam id="1628" interp="linr"  time="0/1" value="0" leadInLength="0/1"  />
           </VectorParam>
           <VectorParam id="1629"  name="geometryCrop">
            <InterpolatingParam id="1630" interp="linr"  time="-9999999/1" value="0" leadInLength="0/1"  />
            <InterpolatingParam id="1631" interp="linr"  time="-9999999/1" value="0" leadInLength="0/1"  />
            <InterpolatingParam id="1632" interp="linr"  time="-9999999/1" value="0" leadInLength="0/1"  />
            <InterpolatingParam id="1633" interp="linr"  time="-9999999/1" value="0" leadInLength="0/1"  />
           </VectorParam>
           <InterpolatingParam id="1634" interp="linr"  time="-9999999/1" value="1" leadInLength="0/1"  name="opacity"/>
          </Parameters>
          <Attributes>
           <Attribute id="1635" value="" name="ident"/>
          </Attributes>
          <ExtraData>
           <Entry key="ZoomPanBin">
            <ZoomPanBin id="1636"  >
             <ZoomPanKeyframes>
              <ZoomPanKeyframe id="1637" timeRangeEnd="-9999999/1" timeRangeDuration="0/1" interpolaterName="linr"  />
             </ZoomPanKeyframes>
            </ZoomPanBin>
           </Entry>
          </ExtraData>
         </VMFile>
         <MetaData>
          <entry key="WinSubProjectDisplayName" val=""/>
         </MetaData>
        </UnifiedMedia>
        <UnifiedMedia id="1638"  >
         <AMFile id="1639" start="7359" duration="203" scalar="11561706481/14228965650" mediaStart="464521381288/64590539" mediaDuration="2888480026950/11561706481" trackNumber="1" src="21" channelNumber="0,1" >
          <Parameters>
           <InterpolatingParam id="1640" interp="linr"  name="volume">
            <Keyframes>
            <Keyframe id="1641"  time="-1/1" value="1" leadInLength="0/1"  />
            <Keyframe id="1642"  time="0/1" value="0" leadInLength="0/1"  />
            <Keyframe id="1643"  time="8952/1" value="0" leadInLength="0/1"  />
            <Keyframe id="1644"  time="8953/1" value="1" leadInLength="0/1"  />
            </Keyframes>
           </InterpolatingParam>
           <Parameter id="1645"  name="captions"/>
          </Parameters>
          <Attributes>
           <Attribute id="1646" value="" name="ident"/>
           <Attribute id="1647" value="44100" name="sampleRate"/>
           <Attribute id="1648" value="16" name="bitDepth"/>
           <Attribute id="1649" value="1" name="gain"/>
           <Attribute id="1650" value="0" name="mixToMono"/>
          </Attributes>
         </AMFile>
         <VMFile id="1651" start="7359" duration="203" scalar="11561706481/14228965650" mediaStart="464521381288/64590539" mediaDuration="2888480026950/11561706481" trackNumber="0" src="21" >
          <Transformer>
           <VectorParam id="1652"  name="translation">
            <InterpolatingParam id="1653" interp="linr"  time="-9999999/1" value="0" leadInLength="0/1"  />
            <InterpolatingParam id="1654" interp="linr"  time="-9999999/1" value="0" leadInLength="0/1"  />
            <InterpolatingParam id="1655" interp="linr"  time="-9999999/1" value="0" leadInLength="0/1"  />
           </VectorParam>
           <VectorParam id="1656"  name="rotation">
            <InterpolatingParam id="1657" interp="linr"  time="-9999999/1" value="0" leadInLength="0/1"  />
            <InterpolatingParam id="1658" interp="linr"  time="-9999999/1" value="0" leadInLength="0/1"  />
            <InterpolatingParam id="1659" interp="linr"  time="-9999999/1" value="0" leadInLength="0/1"  />
           </VectorParam>
           <VectorParam id="1660"  name="shear">
            <InterpolatingParam id="1661" interp="linr"  time="-9999999/1" value="0" leadInLength="0/1"  />
            <InterpolatingParam id="1662" interp="linr"  time="-9999999/1" value="0" leadInLength="0/1"  />
            <InterpolatingParam id="1663" interp="linr"  time="-9999999/1" value="0" leadInLength="0/1"  />
           </VectorParam>
           <VectorParam id="1664"  name="scale">
            <InterpolatingParam id="1665" interp="linr"  time="-9999999/1" value="1" leadInLength="0/1"  />
            <InterpolatingParam id="1666" interp="linr"  time="-9999999/1" value="1" leadInLength="0/1"  />
            <InterpolatingParam id="1667" interp="linr"  time="-9999999/1" value="1" leadInLength="0/1"  />
           </VectorParam>
           <VectorParam id="1668"  name="anchor">
            <InterpolatingParam id="1669" interp="linr"  time="0/1" value="0" leadInLength="0/1"  />
            <InterpolatingParam id="1670" interp="linr"  time="0/1" value="0" leadInLength="0/1"  />
            <InterpolatingParam id="1671" interp="linr"  time="0/1" value="0" leadInLength="0/1"  />
           </VectorParam>
          </Transformer>
          <Parameters>
           <VectorParam id="1672"  name="sourceCrop">
            <InterpolatingParam id="1673" interp="linr"  time="0/1" value="0" leadInLength="0/1"  />
            <InterpolatingParam id="1674" interp="linr"  time="0/1" value="0" leadInLength="0/1"  />
            <InterpolatingParam id="1675" interp="linr"  time="0/1" value="0" leadInLength="0/1"  />
            <InterpolatingParam id="1676" interp="linr"  time="0/1" value="0" leadInLength="0/1"  />
           </VectorParam>
           <VectorParam id="1677"  name="geometryCrop">
            <InterpolatingParam id="1678" interp="linr"  time="-9999999/1" value="0" leadInLength="0/1"  />
            <InterpolatingParam id="1679" interp="linr"  time="-9999999/1" value="0" leadInLength="0/1"  />
            <InterpolatingParam id="1680" interp="linr"  time="-9999999/1" value="0" leadInLength="0/1"  />
            <InterpolatingParam id="1681" interp="linr"  time="-9999999/1" value="0" leadInLength="0/1"  />
           </VectorParam>
           <InterpolatingParam id="1682" interp="linr"  time="-9999999/1" value="1" leadInLength="0/1"  name="opacity"/>
          </Parameters>
          <Attributes>
           <Attribute id="1683" value="" name="ident"/>
          </Attributes>
          <ExtraData>
           <Entry key="ZoomPanBin">
            <ZoomPanBin id="1684"  >
             <ZoomPanKeyframes>
              <ZoomPanKeyframe id="1685" timeRangeEnd="-9999999/1" timeRangeDuration="0/1" interpolaterName="linr"  />
             </ZoomPanKeyframes>
            </ZoomPanBin>
           </Entry>
          </ExtraData>
         </VMFile>
         <MetaData>
          <entry key="WinSubProjectDisplayName" val=""/>
         </MetaData>
        </UnifiedMedia>
        <UnifiedMedia id="1686"  >
         <AMFile id="1687" start="7574" duration="143" scalar="11561706481/14228965650" mediaStart="86208554865302/11561706481" mediaDuration="156518622150/889362037" trackNumber="1" src="21" channelNumber="0,1" >
          <Parameters>
           <InterpolatingParam id="1688" interp="linr"  name="volume">
            <Keyframes>
            <Keyframe id="1689"  time="-1/1" value="1" leadInLength="0/1"  />
            <Keyframe id="1690"  time="0/1" value="0" leadInLength="0/1"  />
            <Keyframe id="1691"  time="8952/1" value="0" leadInLength="0/1"  />
            <Keyframe id="1692"  time="8953/1" value="1" leadInLength="0/1"  />
            </Keyframes>
           </InterpolatingParam>
           <Parameter id="1693"  name="captions"/>
          </Parameters>
          <Attributes>
           <Attribute id="1694" value="" name="ident"/>
           <Attribute id="1695" value="44100" name="sampleRate"/>
           <Attribute id="1696" value="16" name="bitDepth"/>
           <Attribute id="1697" value="1" name="gain"/>
           <Attribute id="1698" value="0" name="mixToMono"/>
          </Attributes>
         </AMFile>
         <VMFile id="1699" start="7574" duration="143" scalar="11561706481/14228965650" mediaStart="86208554865302/11561706481" mediaDuration="156518622150/889362037" trackNumber="0" src="21" >
          <Transformer>
           <VectorParam id="1700"  name="translation">
            <InterpolatingParam id="1701" interp="linr"  time="-9999999/1" value="0" leadInLength="0/1"  />
            <InterpolatingParam id="1702" interp="linr"  time="-9999999/1" value="0" leadInLength="0/1"  />
            <InterpolatingParam id="1703" interp="linr"  time="-9999999/1" value="0" leadInLength="0/1"  />
           </VectorParam>
           <VectorParam id="1704"  name="rotation">
            <InterpolatingParam id="1705" interp="linr"  time="-9999999/1" value="0" leadInLength="0/1"  />
            <InterpolatingParam id="1706" interp="linr"  time="-9999999/1" value="0" leadInLength="0/1"  />
            <InterpolatingParam id="1707" interp="linr"  time="-9999999/1" value="0" leadInLength="0/1"  />
           </VectorParam>
           <VectorParam id="1708"  name="shear">
            <InterpolatingParam id="1709" interp="linr"  time="-9999999/1" value="0" leadInLength="0/1"  />
            <InterpolatingParam id="1710" interp="linr"  time="-9999999/1" value="0" leadInLength="0/1"  />
            <InterpolatingParam id="1711" interp="linr"  time="-9999999/1" value="0" leadInLength="0/1"  />
           </VectorParam>
           <VectorParam id="1712"  name="scale">
            <InterpolatingParam id="1713" interp="linr"  time="-9999999/1" value="1" leadInLength="0/1"  />
            <InterpolatingParam id="1714" interp="linr"  time="-9999999/1" value="1" leadInLength="0/1"  />
            <InterpolatingParam id="1715" interp="linr"  time="-9999999/1" value="1" leadInLength="0/1"  />
           </VectorParam>
           <VectorParam id="1716"  name="anchor">
            <InterpolatingParam id="1717" interp="linr"  time="0/1" value="0" leadInLength="0/1"  />
            <InterpolatingParam id="1718" interp="linr"  time="0/1" value="0" leadInLength="0/1"  />
            <InterpolatingParam id="1719" interp="linr"  time="0/1" value="0" leadInLength="0/1"  />
           </VectorParam>
          </Transformer>
          <Parameters>
           <VectorParam id="1720"  name="sourceCrop">
            <InterpolatingParam id="1721" interp="linr"  time="0/1" value="0" leadInLength="0/1"  />
            <InterpolatingParam id="1722" interp="linr"  time="0/1" value="0" leadInLength="0/1"  />
            <InterpolatingParam id="1723" interp="linr"  time="0/1" value="0" leadInLength="0/1"  />
            <InterpolatingParam id="1724" interp="linr"  time="0/1" value="0" leadInLength="0/1"  />
           </VectorParam>
           <VectorParam id="1725"  name="geometryCrop">
            <InterpolatingParam id="1726" interp="linr"  time="-9999999/1" value="0" leadInLength="0/1"  />
            <InterpolatingParam id="1727" interp="linr"  time="-9999999/1" value="0" leadInLength="0/1"  />
            <InterpolatingParam id="1728" interp="linr"  time="-9999999/1" value="0" leadInLength="0/1"  />
            <InterpolatingParam id="1729" interp="linr"  time="-9999999/1" value="0" leadInLength="0/1"  />
           </VectorParam>
           <InterpolatingParam id="1730" interp="linr"  time="-9999999/1" value="1" leadInLength="0/1"  name="opacity"/>
          </Parameters>
          <Attributes>
           <Attribute id="1731" value="" name="ident"/>
          </Attributes>
          <ExtraData>
           <Entry key="ZoomPanBin">
            <ZoomPanBin id="1732"  >
             <ZoomPanKeyframes>
              <ZoomPanKeyframe id="1733" timeRangeEnd="-9999999/1" timeRangeDuration="0/1" interpolaterName="linr"  />
             </ZoomPanKeyframes>
            </ZoomPanBin>
           </Entry>
          </ExtraData>
         </VMFile>
         <MetaData>
          <entry key="WinSubProjectDisplayName" val=""/>
         </MetaData>
        </UnifiedMedia>
        <UnifiedMedia id="1734"  >
         <AMFile id="1735" start="7717" duration="318" scalar="360841/643670" mediaStart="2754074372/360841" mediaDuration="204687060/360841" trackNumber="1" src="21" channelNumber="0,1" >
          <Parameters>
           <InterpolatingParam id="1736" interp="linr"  name="volume">
            <Keyframes>
            <Keyframe id="1737"  time="-1/1" value="1" leadInLength="0/1"  />
            <Keyframe id="1738"  time="0/1" value="0" leadInLength="0/1"  />
            <Keyframe id="1739"  time="8952/1" value="0" leadInLength="0/1"  />
            <Keyframe id="1740"  time="8953/1" value="1" leadInLength="0/1"  />
            </Keyframes>
           </InterpolatingParam>
           <Parameter id="1741"  name="captions"/>
          </Parameters>
          <Attributes>
           <Attribute id="1742" value="" name="ident"/>
           <Attribute id="1743" value="44100" name="sampleRate"/>
           <Attribute id="1744" value="16" name="bitDepth"/>
           <Attribute id="1745" value="1" name="gain"/>
           <Attribute id="1746" value="0" name="mixToMono"/>
          </Attributes>
         </AMFile>
         <VMFile id="1747" start="7717" duration="318" scalar="360841/643670" mediaStart="2754074372/360841" mediaDuration="204687060/360841" trackNumber="0" src="21" >
          <Transformer>
           <VectorParam id="1748"  name="translation">
            <InterpolatingParam id="1749" interp="linr"  time="-9999999/1" value="0" leadInLength="0/1"  />
            <InterpolatingParam id="1750" interp="linr"  time="-9999999/1" value="0" leadInLength="0/1"  />
            <InterpolatingParam id="1751" interp="linr"  time="-9999999/1" value="0" leadInLength="0/1"  />
           </VectorParam>
           <VectorParam id="1752"  name="rotation">
            <InterpolatingParam id="1753" interp="linr"  time="-9999999/1" value="0" leadInLength="0/1"  />
            <InterpolatingParam id="1754" interp="linr"  time="-9999999/1" value="0" leadInLength="0/1"  />
            <InterpolatingParam id="1755" interp="linr"  time="-9999999/1" value="0" leadInLength="0/1"  />
           </VectorParam>
           <VectorParam id="1756"  name="shear">
            <InterpolatingParam id="1757" interp="linr"  time="-9999999/1" value="0" leadInLength="0/1"  />
            <InterpolatingParam id="1758" interp="linr"  time="-9999999/1" value="0" leadInLength="0/1"  />
            <InterpolatingParam id="1759" interp="linr"  time="-9999999/1" value="0" leadInLength="0/1"  />
           </VectorParam>
           <VectorParam id="1760"  name="scale">
            <InterpolatingParam id="1761" interp="linr"  time="-9999999/1" value="1" leadInLength="0/1"  />
            <InterpolatingParam id="1762" interp="linr"  time="-9999999/1" value="1" leadInLength="0/1"  />
            <InterpolatingParam id="1763" interp="linr"  time="-9999999/1" value="1" leadInLength="0/1"  />
           </VectorParam>
           <VectorParam id="1764"  name="anchor">
            <InterpolatingParam id="1765" interp="linr"  time="0/1" value="0" leadInLength="0/1"  />
            <InterpolatingParam id="1766" interp="linr"  time="0/1" value="0" leadInLength="0/1"  />
            <InterpolatingParam id="1767" interp="linr"  time="0/1" value="0" leadInLength="0/1"  />
           </VectorParam>
          </Transformer>
          <Parameters>
           <VectorParam id="1768"  name="sourceCrop">
            <InterpolatingParam id="1769" interp="linr"  time="0/1" value="0" leadInLength="0/1"  />
            <InterpolatingParam id="1770" interp="linr"  time="0/1" value="0" leadInLength="0/1"  />
            <InterpolatingParam id="1771" interp="linr"  time="0/1" value="0" leadInLength="0/1"  />
            <InterpolatingParam id="1772" interp="linr"  time="0/1" value="0" leadInLength="0/1"  />
           </VectorParam>
           <VectorParam id="1773"  name="geometryCrop">
            <InterpolatingParam id="1774" interp="linr"  time="-9999999/1" value="0" leadInLength="0/1"  />
            <InterpolatingParam id="1775" interp="linr"  time="-9999999/1" value="0" leadInLength="0/1"  />
            <InterpolatingParam id="1776" interp="linr"  time="-9999999/1" value="0" leadInLength="0/1"  />
            <InterpolatingParam id="1777" interp="linr"  time="-9999999/1" value="0" leadInLength="0/1"  />
           </VectorParam>
           <InterpolatingParam id="1778" interp="linr"  time="-9999999/1" value="1" leadInLength="0/1"  name="opacity"/>
          </Parameters>
          <Attributes>
           <Attribute id="1779" value="" name="ident"/>
          </Attributes>
          <ExtraData>
           <Entry key="ZoomPanBin">
            <ZoomPanBin id="1780"  >
             <ZoomPanKeyframes>
              <ZoomPanKeyframe id="1781" timeRangeEnd="-9999999/1" timeRangeDuration="0/1" interpolaterName="linr"  />
             </ZoomPanKeyframes>
            </ZoomPanBin>
           </Entry>
          </ExtraData>
         </VMFile>
         <MetaData>
          <entry key="WinSubProjectDisplayName" val=""/>
         </MetaData>
        </UnifiedMedia>
        <UnifiedMedia id="1782"  >
         <AMFile id="1783" start="8035" duration="228" scalar="360841/357220" mediaStart="2958761432/360841" mediaDuration="81446160/360841" trackNumber="1" src="21" channelNumber="0,1" >
          <Parameters>
           <InterpolatingParam id="1784" interp="linr"  name="volume">
            <Keyframes>
            <Keyframe id="1785"  time="-1/1" value="1" leadInLength="0/1"  />
            <Keyframe id="1786"  time="0/1" value="0" leadInLength="0/1"  />
            <Keyframe id="1787"  time="8952/1" value="0" leadInLength="0/1"  />
            <Keyframe id="1788"  time="8953/1" value="1" leadInLength="0/1"  />
            </Keyframes>
           </InterpolatingParam>
           <Parameter id="1789"  name="captions"/>
          </Parameters>
          <Attributes>
           <Attribute id="1790" value="" name="ident"/>
           <Attribute id="1791" value="44100" name="sampleRate"/>
           <Attribute id="1792" value="16" name="bitDepth"/>
           <Attribute id="1793" value="1" name="gain"/>
           <Attribute id="1794" value="0" name="mixToMono"/>
          </Attributes>
         </AMFile>
         <VMFile id="1795" start="8035" duration="228" scalar="360841/357220" mediaStart="2958761432/360841" mediaDuration="81446160/360841" trackNumber="0" src="21" >
          <Transformer>
           <VectorParam id="1796"  name="translation">
            <InterpolatingParam id="1797" interp="linr"  time="-9999999/1" value="0" leadInLength="0/1"  />
            <InterpolatingParam id="1798" interp="linr"  time="-9999999/1" value="0" leadInLength="0/1"  />
            <InterpolatingParam id="1799" interp="linr"  time="-9999999/1" value="0" leadInLength="0/1"  />
           </VectorParam>
           <VectorParam id="1800"  name="rotation">
            <InterpolatingParam id="1801" interp="linr"  time="-9999999/1" value="0" leadInLength="0/1"  />
            <InterpolatingParam id="1802" interp="linr"  time="-9999999/1" value="0" leadInLength="0/1"  />
            <InterpolatingParam id="1803" interp="linr"  time="-9999999/1" value="0" leadInLength="0/1"  />
           </VectorParam>
           <VectorParam id="1804"  name="shear">
            <InterpolatingParam id="1805" interp="linr"  time="-9999999/1" value="0" leadInLength="0/1"  />
            <InterpolatingParam id="1806" interp="linr"  time="-9999999/1" value="0" leadInLength="0/1"  />
            <InterpolatingParam id="1807" interp="linr"  time="-9999999/1" value="0" leadInLength="0/1"  />
           </VectorParam>
           <VectorParam id="1808"  name="scale">
            <InterpolatingParam id="1809" interp="linr"  time="-9999999/1" value="1" leadInLength="0/1"  />
            <InterpolatingParam id="1810" interp="linr"  time="-9999999/1" value="1" leadInLength="0/1"  />
            <InterpolatingParam id="1811" interp="linr"  time="-9999999/1" value="1" leadInLength="0/1"  />
           </VectorParam>
           <VectorParam id="1812"  name="anchor">
            <InterpolatingParam id="1813" interp="linr"  time="0/1" value="0" leadInLength="0/1"  />
            <InterpolatingParam id="1814" interp="linr"  time="0/1" value="0" leadInLength="0/1"  />
            <InterpolatingParam id="1815" interp="linr"  time="0/1" value="0" leadInLength="0/1"  />
           </VectorParam>
          </Transformer>
          <Parameters>
           <VectorParam id="1816"  name="sourceCrop">
            <InterpolatingParam id="1817" interp="linr"  time="0/1" value="0" leadInLength="0/1"  />
            <InterpolatingParam id="1818" interp="linr"  time="0/1" value="0" leadInLength="0/1"  />
            <InterpolatingParam id="1819" interp="linr"  time="0/1" value="0" leadInLength="0/1"  />
            <InterpolatingParam id="1820" interp="linr"  time="0/1" value="0" leadInLength="0/1"  />
           </VectorParam>
           <VectorParam id="1821"  name="geometryCrop">
            <InterpolatingParam id="1822" interp="linr"  time="-9999999/1" value="0" leadInLength="0/1"  />
            <InterpolatingParam id="1823" interp="linr"  time="-9999999/1" value="0" leadInLength="0/1"  />
            <InterpolatingParam id="1824" interp="linr"  time="-9999999/1" value="0" leadInLength="0/1"  />
            <InterpolatingParam id="1825" interp="linr"  time="-9999999/1" value="0" leadInLength="0/1"  />
           </VectorParam>
           <InterpolatingParam id="1826" interp="linr"  time="-9999999/1" value="1" leadInLength="0/1"  name="opacity"/>
          </Parameters>
          <Attributes>
           <Attribute id="1827" value="" name="ident"/>
          </Attributes>
          <ExtraData>
           <Entry key="ZoomPanBin">
            <ZoomPanBin id="1828"  >
             <ZoomPanKeyframes>
              <ZoomPanKeyframe id="1829" timeRangeEnd="-9999999/1" timeRangeDuration="0/1" interpolaterName="linr"  />
             </ZoomPanKeyframes>
            </ZoomPanBin>
           </Entry>
          </ExtraData>
         </VMFile>
         <MetaData>
          <entry key="WinSubProjectDisplayName" val=""/>
         </MetaData>
        </UnifiedMedia>
        <UnifiedMedia id="1830"  >
         <AMFile id="1831" start="8263" duration="430" scalar="15516163/17075116" mediaStart="3045208672/360841" mediaDuration="170751160/360841" trackNumber="1" src="21" channelNumber="0,1" >
          <Parameters>
           <InterpolatingParam id="1832" interp="linr"  name="volume">
            <Keyframes>
            <Keyframe id="1833"  time="-1/1" value="1" leadInLength="0/1"  />
            <Keyframe id="1834"  time="0/1" value="0" leadInLength="0/1"  />
            <Keyframe id="1835"  time="8952/1" value="0" leadInLength="0/1"  />
            <Keyframe id="1836"  time="8953/1" value="1" leadInLength="0/1"  />
            </Keyframes>
           </InterpolatingParam>
           <Parameter id="1837"  name="captions"/>
          </Parameters>
          <Attributes>
           <Attribute id="1838" value="" name="ident"/>
           <Attribute id="1839" value="44100" name="sampleRate"/>
           <Attribute id="1840" value="16" name="bitDepth"/>
           <Attribute id="1841" value="1" name="gain"/>
           <Attribute id="1842" value="0" name="mixToMono"/>
          </Attributes>
         </AMFile>
         <VMFile id="1843" start="8263" duration="430" scalar="15516163/17075116" mediaStart="3045208672/360841" mediaDuration="170751160/360841" trackNumber="0" src="21" >
          <Transformer>
           <VectorParam id="1844"  name="translation">
            <InterpolatingParam id="1845" interp="linr"  time="-9999999/1" value="0" leadInLength="0/1"  />
            <InterpolatingParam id="1846" interp="linr"  time="-9999999/1" value="0" leadInLength="0/1"  />
            <InterpolatingParam id="1847" interp="linr"  time="-9999999/1" value="0" leadInLength="0/1"  />
           </VectorParam>
           <VectorParam id="1848"  name="rotation">
            <InterpolatingParam id="1849" interp="linr"  time="-9999999/1" value="0" leadInLength="0/1"  />
            <InterpolatingParam id="1850" interp="linr"  time="-9999999/1" value="0" leadInLength="0/1"  />
            <InterpolatingParam id="1851" interp="linr"  time="-9999999/1" value="0" leadInLength="0/1"  />
           </VectorParam>
           <VectorParam id="1852"  name="shear">
            <InterpolatingParam id="1853" interp="linr"  time="-9999999/1" value="0" leadInLength="0/1"  />
            <InterpolatingParam id="1854" interp="linr"  time="-9999999/1" value="0" leadInLength="0/1"  />
            <InterpolatingParam id="1855" interp="linr"  time="-9999999/1" value="0" leadInLength="0/1"  />
           </VectorParam>
           <VectorParam id="1856"  name="scale">
            <InterpolatingParam id="1857" interp="linr"  time="-9999999/1" value="1" leadInLength="0/1"  />
            <InterpolatingParam id="1858" interp="linr"  time="-9999999/1" value="1" leadInLength="0/1"  />
            <InterpolatingParam id="1859" interp="linr"  time="-9999999/1" value="1" leadInLength="0/1"  />
           </VectorParam>
           <VectorParam id="1860"  name="anchor">
            <InterpolatingParam id="1861" interp="linr"  time="0/1" value="0" leadInLength="0/1"  />
            <InterpolatingParam id="1862" interp="linr"  time="0/1" value="0" leadInLength="0/1"  />
            <InterpolatingParam id="1863" interp="linr"  time="0/1" value="0" leadInLength="0/1"  />
           </VectorParam>
          </Transformer>
          <Parameters>
           <VectorParam id="1864"  name="sourceCrop">
            <InterpolatingParam id="1865" interp="linr"  time="0/1" value="0" leadInLength="0/1"  />
            <InterpolatingParam id="1866" interp="linr"  time="0/1" value="0" leadInLength="0/1"  />
            <InterpolatingParam id="1867" interp="linr"  time="0/1" value="0" leadInLength="0/1"  />
            <InterpolatingParam id="1868" interp="linr"  time="0/1" value="0" leadInLength="0/1"  />
           </VectorParam>
           <VectorParam id="1869"  name="geometryCrop">
            <InterpolatingParam id="1870" interp="linr"  time="-9999999/1" value="0" leadInLength="0/1"  />
            <InterpolatingParam id="1871" interp="linr"  time="-9999999/1" value="0" leadInLength="0/1"  />
            <InterpolatingParam id="1872" interp="linr"  time="-9999999/1" value="0" leadInLength="0/1"  />
            <InterpolatingParam id="1873" interp="linr"  time="-9999999/1" value="0" leadInLength="0/1"  />
           </VectorParam>
           <InterpolatingParam id="1874" interp="linr"  time="-9999999/1" value="1" leadInLength="0/1"  name="opacity"/>
          </Parameters>
          <Attributes>
           <Attribute id="1875" value="" name="ident"/>
          </Attributes>
          <ExtraData>
           <Entry key="ZoomPanBin">
            <ZoomPanBin id="1876"  >
             <ZoomPanKeyframes>
              <ZoomPanKeyframe id="1877" timeRangeEnd="-9999999/1" timeRangeDuration="0/1" interpolaterName="linr"  />
             </ZoomPanKeyframes>
            </ZoomPanBin>
           </Entry>
          </ExtraData>
         </VMFile>
         <MetaData>
          <entry key="WinSubProjectDisplayName" val=""/>
         </MetaData>
        </UnifiedMedia>
       </Medias>
      </GenericTrack>
      <GenericTrack id="1878"  >
       <Attributes>
        <Attribute id="1879" value="" name="ident"/>
        <Attribute id="1880" value="0" name="audioMuted"/>
        <Attribute id="1881" value="0" name="videoHidden"/>
       </Attributes>
       <MetaData>
        <entry key="IsLocked" val="False"/>
        <entry key="WinTrackHeight" val="62"/>
       </MetaData>
       <Medias>
        <StitchedMedia id="1882" start="0" duration="724" scalar="1/1" mediaStart="251/1" mediaDuration="724/1" minMediaStart="0/1" >
         <Transformer>
          <VectorParam id="1883"  name="translation">
           <InterpolatingParam id="1884" interp="linr"  time="0/1" value="0" leadInLength="0/1"  />
           <InterpolatingParam id="1885" interp="linr"  time="0/1" value="0" leadInLength="0/1"  />
           <InterpolatingParam id="1886" interp="linr"  time="0/1" value="0" leadInLength="0/1"  />
          </VectorParam>
          <VectorParam id="1887"  name="rotation">
           <InterpolatingParam id="1888" interp="linr"  time="0/1" value="0" leadInLength="0/1"  />
           <InterpolatingParam id="1889" interp="linr"  time="0/1" value="0" leadInLength="0/1"  />
           <InterpolatingParam id="1890" interp="linr"  time="0/1" value="0" leadInLength="0/1"  />
          </VectorParam>
          <VectorParam id="1891"  name="shear">
           <InterpolatingParam id="1892" interp="linr"  time="0/1" value="0" leadInLength="0/1"  />
           <InterpolatingParam id="1893" interp="linr"  time="0/1" value="0" leadInLength="0/1"  />
           <InterpolatingParam id="1894" interp="linr"  time="0/1" value="0" leadInLength="0/1"  />
          </VectorParam>
          <VectorParam id="1895"  name="scale">
           <InterpolatingParam id="1896" interp="linr"  time="0/1" value="1" leadInLength="0/1"  />
           <InterpolatingParam id="1897" interp="linr"  time="0/1" value="1" leadInLength="0/1"  />
           <InterpolatingParam id="1898" interp="linr"  time="0/1" value="1" leadInLength="0/1"  />
          </VectorParam>
          <VectorParam id="1899"  name="anchor">
           <InterpolatingParam id="1900" interp="linr"  time="0/1" value="0" leadInLength="0/1"  />
           <InterpolatingParam id="1901" interp="linr"  time="0/1" value="0" leadInLength="0/1"  />
           <InterpolatingParam id="1902" interp="linr"  time="0/1" value="0" leadInLength="0/1"  />
          </VectorParam>
         </Transformer>
         <Parameters>
          <InterpolatingParam id="1903" interp="linr"  time="0/1" value="1" leadInLength="0/1"  name="cursorOpacity"/>
          <InterpolatingParam id="1904" interp="linr"  time="0/1" value="1" leadInLength="0/1"  name="cursorScale"/>
          <InterpolatingParam id="1905" interp="linr"  name="volume">
           <Keyframes>
           <Keyframe id="1906"  time="0/1" value="1" leadInLength="0/1"  />
           <Keyframe id="1907"  time="250/1" value="1" leadInLength="0/1"  />
           <Keyframe id="1908"  time="251/1" value="0.99255583126550895" leadInLength="0/1"  />
           <Keyframe id="1909"  time="1888/1" value="0.99255583126550895" leadInLength="0/1"  />
           <Keyframe id="1910"  time="1889/1" value="1" leadInLength="0/1"  />
           </Keyframes>
          </InterpolatingParam>
          <Parameter id="1911"  name="captions"/>
         </Parameters>
         <Effects>
          <GenericEffect id="1912" name = "NoiseReduction" >
           <Parameters>
           <InterpolatingParam id="1913" interp="linr"  time="0/1" value="20" leadInLength="0/1"   name="denoiserAmount"/>
           <InterpolatingParam id="1914" interp="linr"  time="0/1" value="0" leadInLength="0/1"   name="denoiserThreshold"/>
           <Parameter id="1915"   name="noiseProfile">
            <Keyframes>
            <Keyframe id="1916"  time="0/1" value="FBAAAAIAAABErAAAAQIAADOmYsI/y13CPNeLwsehjcK+No/Cm+aOwlHvjcIja5HCun6XwoKemMJy&#xD;&#xa;lpPCuQeRwhgMlcJGdZvCTjScwgFMncIGh5zCGrOawuO0nMJdJZ3Cybudwo6toMIdraPCs/6jwpY0&#xD;&#xa;psLIUqjCWQmpwonmp8KcE6XCgXGlwqC+psIFHabCBoyownWvqcIkX6jCgnCpwms3qsIW0KfCM7Oj&#xD;&#xa;wnGLosJgcKnCdk6swiIgscKFrbDCtNmowrZmpcIHYqjCCg2pwqUNq8KgHq7ChEGxwhVFs8KU6LLC&#xD;&#xa;dvWzwpVHscI6NrDCMpGwwubcs8Imh7bCPKq6wj7tvMKSbr3ClsG+wq4qwMLXQr7CpAK5whxiuMJp&#xD;&#xa;v7nCwu29wloQvsIXTL3CzjDAwsDTwcL69sHC8urAwtAFwMIkSMLCpJHDwjLOw8JG8sTCmMvDwq7H&#xD;&#xa;wsLOncPC+CDDwkh6wsLU5sPCP23Fwm5Qx8KlYsTCm0XCwnhexcLsTsPCSMPDwjvJw8LMWcHC2XHD&#xD;&#xa;wjj5wsICs8TChWvEwgCywcKDdcHCFnHCwurMxMLlVsTCfrDGwmzqyMKoGsfC7ITIwtqRyMJwzcbC&#xD;&#xa;ppbEwiv5xcIXxsTCzDfCwtSExMKEjcTC8ObDwiJ9yMIQm8vCIkDGwqHyxcIyYcbCyAXIwmyBx8I4&#xD;&#xa;n8PCvyPGwuiKxMJggMfCdL3JwsMhysLi6sXCRa7Ewoykx8Jk/MXC0NfEwtK0xcJQTMTCvvvGwtqJ&#xD;&#xa;xMKmFsTCSbfGwq76x8IQ+sjCsqnIwkJdycIaT8fC0nbHwlf2xsLg/cbCtIHHwsTvxsI0KsbCsqDH&#xD;&#xa;wgLix8JGKcXCyNTDwjDwwsIb98bC6MjJwg6Zy8Kg+cvCaC3HwtIgw8KW7sXC3EHGwmcUxcL++8fC&#xD;&#xa;CWbIwsDoxsJFz8PCJkXFwiD7xcIQDsfC8ljIwrDLxMKkeMLClpHEwiqgyMJcjcjC6krGwl50w8Iy&#xD;&#xa;7sXCWv3HwkQ1xsKUwMPC2K/EwootxMJUqMTCH3LDwuojxcKil8fCjmXIwkLJxcID78TClTvGwhel&#xD;&#xa;xsIca8bC1rbCwk6+wsIQfsfCIlPHwpJExcLWhMbCDNvEwuryxMKklMXCeBDDwolhwcIiasLCQYfE&#xD;&#xa;whUfwsJx4MTCsEnIwkX0xcK+3sbCIqLHwrARx8IWtMTCGAnFwomNxMLfbcTCQIPDwjqww8L+MMTC&#xD;&#xa;mqjHwrBaxMI6YsTCxmvIwqyKycKQaMXCnx7FwkYvx8In6sjCGMzIwuvAxcL8a8XCiBjJwkvwyMKI&#xD;&#xa;qMbCTCTIwvQSy8IxEsvCVT/JwrI3w8LA8sLCCD7EwsxXxMJSjsXCfjXFwqTKxMI/gsPCDozDwtwF&#xD;&#xa;xMISn8bChHvJwlFQyMJYCsbCP4jIwtkBycLiFsrCbCrKwvyTysIWncnC+A3HwuI5x8I8/MbC0hHI&#xD;&#xa;wopJzMLmb83CFkvMwpy/y8Kn7MrCfJrJwuLDyMJKn8bCStTGwpb7ycIMo8nCcivFwsapxcJkx8bC&#xD;&#xa;ALLIwriaycJM3cfC8r/KwlSoy8I4A8vCpFHJwkRrzMIKr87CWD7MwsiJycKW9cfCUjbKwq+YycLi&#xD;&#xa;U8jCROHHwhdWycKaU8nCF7jMwmKaz8L//8zC8tjOwjxezsIUysvCzHLJwiJryMLRm8bCgLjKwsi8&#xD;&#xa;ysIhfszCPETLwqtbyMJGeMfCpRPJwnwZzMJSIs3CqhPMwmDiyMLZYsjCz13KwgwKy8LCi8jCyrTM&#xD;&#xa;wgwxzMK4ZcvC087JwkV2xsLyXsnCjIbLwhwvzcLfrM7CeITKwla3ysLK3cnC/PHFwpScxcIUQ8nC&#xD;&#xa;NJzIwrEsxsJvZcfCXSvIwlKLx8JII8nCvgzKwpnhysJSC8vC9iTKwiA/y8IadczCuDrMwuVaysLO&#xD;&#xa;r8vCXtfJwrZ6ycItucnCtonJwjyTysJkC83CL0nMwkjdyMIBucfCixrLwvSDysKGX8nCsCzMwuas&#xD;&#xa;0cIsnNPCuEvOwtr5y8LMBc7Cr+PTwsQc5MLcOfPCKOj0wjr59cJ0C/fCzg75wkwh+8LmVPnCqz72&#xD;&#xa;wnB+9cLuJvrCtEL4wkp7+MLOfffCDN3zwkaz9sLi8vjCFKr6wgIQ+cI8iPjCBpT4wvR1+MLQI/rC&#xD;&#xa;Ihn8wlQg+sIcLvjCVCz2wsI49MJQ9fbC23H3woy69sL4BfnCIOb2wjwy9cIuGvnCdmb3wj7K9MI+&#xD;&#xa;KPXCJpr2wn7C9cKQDvnCthv7woaP+cLGaPbCTr32wrpN+cIFSPjCDvX4wtD39sJY//TCKGf3wvZI&#xD;&#xa;+cK9YvfCgYf3wjIf+sLMMvfCpjz2wuA6+cII8vbCxDv1wmJG9sLka/rCPrT1wi589cLqjfbC9qP4&#xD;&#xa;wgzJ+MLelPbCGir2wlBC9sKeU/jC/nn3wsYn9sL4QPjCXBj5wopQ+MIaJvnCSB36wgjc+MIMfPfC&#xD;&#xa;W+z1wmYG+MKuxPnCCuD1wjh+9sLDrPfCOPj3wm7h+MJjMvfCxH/2wsXf98KwN/nCKOn5wrLR+sKg&#xD;&#xa;bPvCkFv5wsAu+cL2hffCySz2wmRX+MKiiPjCzFX4wvjB98Jgz/fCxPT4wobP+cL8avjC9r34wnKx&#xD;&#xa;+MK+LPnC3H34wle39cKejfbCNKP2wg5B9sK0H/rCSvz2woqE98JAqfjCBPL4wmKi+MIu2/jCMFD5&#xD;&#xa;wiCM+cKo//nCGqz7wlZN+sKUDfjC0ov4wrIU+sIVpffCP2/3woye98KktPbCTJj2wpH29cL3mvbC&#xD;&#xa;jL/4wti/+MLm3vjCQ9QEwzOmYsI/y13CPNeLwsehjcK+No/Cm+aOwlHvjcIja5HCun6XwoKemMJy&#xD;&#xa;lpPCuQeRwhgMlcJGdZvCTjScwgFMncIGh5zCGrOawuO0nMJdJZ3Cybudwo6toMIdraPCs/6jwpY0&#xD;&#xa;psLIUqjCWQmpwonmp8KcE6XCgXGlwqC+psIFHabCBoyownWvqcIkX6jCgnCpwms3qsIW0KfCM7Oj&#xD;&#xa;wnGLosJgcKnCdk6swiIgscKFrbDCtNmowrZmpcIHYqjCCg2pwqUNq8KgHq7ChEGxwhVFs8KU6LLC&#xD;&#xa;dvWzwpVHscI6NrDCMpGwwubcs8Imh7bCPKq6wj7tvMKSbr3ClsG+wq4qwMLXQr7CpAK5whxiuMJp&#xD;&#xa;v7nCwu29wloQvsIXTL3CzjDAwsDTwcL69sHC8urAwtAFwMIkSMLCpJHDwjLOw8JG8sTCmMvDwq7H&#xD;&#xa;wsLOncPC+CDDwkh6wsLU5sPCP23Fwm5Qx8KlYsTCm0XCwnhexcLsTsPCSMPDwjvJw8LMWcHC2XHD&#xD;&#xa;wjj5wsICs8TChWvEwgCywcKDdcHCFnHCwurMxMLlVsTCfrDGwmzqyMKoGsfC7ITIwtqRyMJwzcbC&#xD;&#xa;ppbEwiv5xcIXxsTCzDfCwtSExMKEjcTC8ObDwiJ9yMIQm8vCIkDGwqHyxcIyYcbCyAXIwmyBx8I4&#xD;&#xa;n8PCvyPGwuiKxMJggMfCdL3JwsMhysLi6sXCRa7Ewoykx8Jk/MXC0NfEwtK0xcJQTMTCvvvGwtqJ&#xD;&#xa;xMKmFsTCSbfGwq76x8IQ+sjCsqnIwkJdycIaT8fC0nbHwlf2xsLg/cbCtIHHwsTvxsI0KsbCsqDH&#xD;&#xa;wgLix8JGKcXCyNTDwjDwwsIb98bC6MjJwg6Zy8Kg+cvCaC3HwtIgw8KW7sXC3EHGwmcUxcL++8fC&#xD;&#xa;CWbIwsDoxsJFz8PCJkXFwiD7xcIQDsfC8ljIwrDLxMKkeMLClpHEwiqgyMJcjcjC6krGwl50w8Iy&#xD;&#xa;7sXCWv3HwkQ1xsKUwMPC2K/EwootxMJUqMTCH3LDwuojxcKil8fCjmXIwkLJxcID78TClTvGwhel&#xD;&#xa;xsIca8bC1rbCwk6+wsIQfsfCIlPHwpJExcLWhMbCDNvEwuryxMKklMXCeBDDwolhwcIiasLCQYfE&#xD;&#xa;whUfwsJx4MTCsEnIwkX0xcK+3sbCIqLHwrARx8IWtMTCGAnFwomNxMLfbcTCQIPDwjqww8L+MMTC&#xD;&#xa;mqjHwrBaxMI6YsTCxmvIwqyKycKQaMXCnx7FwkYvx8In6sjCGMzIwuvAxcL8a8XCiBjJwkvwyMKI&#xD;&#xa;qMbCTCTIwvQSy8IxEsvCVT/JwrI3w8LA8sLCCD7EwsxXxMJSjsXCfjXFwqTKxMI/gsPCDozDwtwF&#xD;&#xa;xMISn8bChHvJwlFQyMJYCsbCP4jIwtkBycLiFsrCbCrKwvyTysIWncnC+A3HwuI5x8I8/MbC0hHI&#xD;&#xa;wopJzMLmb83CFkvMwpy/y8Kn7MrCfJrJwuLDyMJKn8bCStTGwpb7ycIMo8nCcivFwsapxcJkx8bC&#xD;&#xa;ALLIwriaycJM3cfC8r/KwlSoy8I4A8vCpFHJwkRrzMIKr87CWD7MwsiJycKW9cfCUjbKwq+YycLi&#xD;&#xa;U8jCROHHwhdWycKaU8nCF7jMwmKaz8L//8zC8tjOwjxezsIUysvCzHLJwiJryMLRm8bCgLjKwsi8&#xD;&#xa;ysIhfszCPETLwqtbyMJGeMfCpRPJwnwZzMJSIs3CqhPMwmDiyMLZYsjCz13KwgwKy8LCi8jCyrTM&#xD;&#xa;wgwxzMK4ZcvC087JwkV2xsLyXsnCjIbLwhwvzcLfrM7CeITKwla3ysLK3cnC/PHFwpScxcIUQ8nC&#xD;&#xa;NJzIwrEsxsJvZcfCXSvIwlKLx8JII8nCvgzKwpnhysJSC8vC9iTKwiA/y8IadczCuDrMwuVaysLO&#xD;&#xa;r8vCXtfJwrZ6ycItucnCtonJwjyTysJkC83CL0nMwkjdyMIBucfCixrLwvSDysKGX8nCsCzMwuas&#xD;&#xa;0cIsnNPCuEvOwtr5y8LMBc7Cr+PTwsQc5MLcOfPCKOj0wjr59cJ0C/fCzg75wkwh+8LmVPnCqz72&#xD;&#xa;wnB+9cLuJvrCtEL4wkp7+MLOfffCDN3zwkaz9sLi8vjCFKr6wgIQ+cI8iPjCBpT4wvR1+MLQI/rC&#xD;&#xa;Ihn8wlQg+sIcLvjCVCz2wsI49MJQ9fbC23H3woy69sL4BfnCIOb2wjwy9cIuGvnCdmb3wj7K9MI+&#xD;&#xa;KPXCJpr2wn7C9cKQDvnCthv7woaP+cLGaPbCTr32wrpN+cIFSPjCDvX4wtD39sJY//TCKGf3wvZI&#xD;&#xa;+cK9YvfCgYf3wjIf+sLMMvfCpjz2wuA6+cII8vbCxDv1wmJG9sLka/rCPrT1wi589cLqjfbC9qP4&#xD;&#xa;wgzJ+MLelPbCGir2wlBC9sKeU/jC/nn3wsYn9sL4QPjCXBj5wopQ+MIaJvnCSB36wgjc+MIMfPfC&#xD;&#xa;W+z1wmYG+MKuxPnCCuD1wjh+9sLDrPfCOPj3wm7h+MJjMvfCxH/2wsXf98KwN/nCKOn5wrLR+sKg&#xD;&#xa;bPvCkFv5wsAu+cL2hffCySz2wmRX+MKiiPjCzFX4wvjB98Jgz/fCxPT4wobP+cL8avjC9r34wnKx&#xD;&#xa;+MK+LPnC3H34wle39cKejfbCNKP2wg5B9sK0H/rCSvz2woqE98JAqfjCBPL4wmKi+MIu2/jCMFD5&#xD;&#xa;wiCM+cKo//nCGqz7wlZN+sKUDfjC0ov4wrIU+sIVpffCP2/3woye98KktPbCTJj2wpH29cL3mvbC&#xD;&#xa;jL/4wti/+MLm3vjCQ9QE" leadInLength="0/1"  />
            </Keyframes>
           </Parameter>
           </Parameters>
          </GenericEffect>
          <GenericEffect id="1917" name = "WinCompression" >
           <Parameters>
           <InterpolatingParam id="1918" interp="linr"  time="0/1" value="0" leadInLength="0/1"   name="attack"/>
           <InterpolatingParam id="1919" interp="linr"  time="0/1" value="9" leadInLength="0/1"   name="gain"/>
           <Parameter id="1920"   name="preset">
            <Keyframes>
            <Keyframe id="1921"  time="0/1" value="1" leadInLength="0/1"  />
            </Keyframes>
           </Parameter>
           <InterpolatingParam id="1922" interp="linr"  time="0/1" value="10" leadInLength="0/1"   name="ratio"/>
           <InterpolatingParam id="1923" interp="linr"  time="0/1" value="3500" leadInLength="0/1"   name="release"/>
           <InterpolatingParam id="1924" interp="linr"  time="0/1" value="-20" leadInLength="0/1"   name="threshold"/>
           </Parameters>
          </GenericEffect>
          <GenericEffect id="1925" name = "Declipper" >
           <Parameters>
           <InterpolatingParam id="1926" interp="linr"  time="0/1" value="-1" leadInLength="0/1"   name="sensitivity"/>
           </Parameters>
          </GenericEffect>
          <GenericEffect id="1927" name = "Declicker" >
           <Parameters>
           <InterpolatingParam id="1928" interp="linr"  time="0/1" value="3" leadInLength="0/1"   name="sensitivity"/>
           </Parameters>
          </GenericEffect>
         </Effects>
         <Attributes>
          <Attribute id="1929" value="" name="ident"/>
          <Attribute id="1930" value="0" name="mixToMono"/>
         </Attributes>
         <MetaData>
          <entry key="WinSubProjectDisplayName" val=""/>
         </MetaData>
         <ExtraData>
          <Entry key="ZoomPanBin">
           <ZoomPanBin id="1931"  >
            <ZoomPanKeyframes>
            </ZoomPanKeyframes>
           </ZoomPanBin>
          </Entry>
          <Entry key="CursorEffectBin">
           <CursorEffectBin id="1932"  >
            <CursorEffectKeyframes>
            </CursorEffectKeyframes>
           </CursorEffectBin>
          </Entry>
         </ExtraData>
         <GenericTrack id="1933"  >
          <Attributes>
           <Attribute id="1934" value="" name="ident"/>
           <Attribute id="1935" value="0" name="audioMuted"/>
           <Attribute id="1936" value="0" name="videoHidden"/>
          </Attributes>
          <MetaData>
           <entry key="IsLocked" val="False"/>
           <entry key="WinTrackHeight" val="0"/>
          </MetaData>
          <Medias>
           <AMFile id="1937" start="0" duration="582" scalar="1/1" mediaStart="0/1" mediaDuration="582/1" trackNumber="0" src="22" channelNumber="0" >
            <Parameters>
             <InterpolatingParam id="1938" interp="linr"  time="0/1" value="1" leadInLength="0/1"  name="volume"/>
             <Parameter id="1939"  name="captions"/>
            </Parameters>
            <Attributes>
             <Attribute id="1940" value="" name="ident"/>
             <Attribute id="1941" value="44100" name="sampleRate"/>
             <Attribute id="1942" value="16" name="bitDepth"/>
             <Attribute id="1943" value="1" name="gain"/>
             <Attribute id="1944" value="0" name="mixToMono"/>
            </Attributes>
            <MetaData>
             <entry key="WinSubProjectDisplayName" val=""/>
            </MetaData>
           </AMFile>
           <AMFile id="1945" start="582" duration="769" scalar="1/1" mediaStart="971/1" mediaDuration="769/1" trackNumber="0" src="22" channelNumber="0" >
            <Parameters>
             <InterpolatingParam id="1946" interp="linr"  time="0/1" value="1" leadInLength="0/1"  name="volume"/>
             <Parameter id="1947"  name="captions"/>
            </Parameters>
            <Attributes>
             <Attribute id="1948" value="" name="ident"/>
             <Attribute id="1949" value="44100" name="sampleRate"/>
             <Attribute id="1950" value="16" name="bitDepth"/>
             <Attribute id="1951" value="1" name="gain"/>
             <Attribute id="1952" value="0" name="mixToMono"/>
            </Attributes>
            <MetaData>
             <entry key="WinSubProjectDisplayName" val=""/>
            </MetaData>
           </AMFile>
           <AMFile id="1953" start="1351" duration="135" scalar="1/1" mediaStart="1744/1" mediaDuration="135/1" trackNumber="0" src="22" channelNumber="0" >
            <Parameters>
             <InterpolatingParam id="1954" interp="linr"  time="0/1" value="1" leadInLength="0/1"  name="volume"/>
             <Parameter id="1955"  name="captions"/>
            </Parameters>
            <Attributes>
             <Attribute id="1956" value="" name="ident"/>
             <Attribute id="1957" value="44100" name="sampleRate"/>
             <Attribute id="1958" value="16" name="bitDepth"/>
             <Attribute id="1959" value="1" name="gain"/>
             <Attribute id="1960" value="0" name="mixToMono"/>
            </Attributes>
            <MetaData>
             <entry key="WinSubProjectDisplayName" val=""/>
            </MetaData>
           </AMFile>
           <AMFile id="1961" start="1486" duration="165" scalar="1/1" mediaStart="1884/1" mediaDuration="165/1" trackNumber="0" src="22" channelNumber="0" >
            <Parameters>
             <InterpolatingParam id="1962" interp="linr"  time="0/1" value="1" leadInLength="0/1"  name="volume"/>
             <Parameter id="1963"  name="captions"/>
            </Parameters>
            <Attributes>
             <Attribute id="1964" value="" name="ident"/>
             <Attribute id="1965" value="44100" name="sampleRate"/>
             <Attribute id="1966" value="16" name="bitDepth"/>
             <Attribute id="1967" value="1" name="gain"/>
             <Attribute id="1968" value="0" name="mixToMono"/>
            </Attributes>
            <MetaData>
             <entry key="WinSubProjectDisplayName" val=""/>
            </MetaData>
           </AMFile>
           <AMFile id="1969" start="1651" duration="2" scalar="1/1" mediaStart="2164/1" mediaDuration="2/1" trackNumber="0" src="22" channelNumber="0" >
            <Parameters>
             <InterpolatingParam id="1970" interp="linr"  time="0/1" value="1" leadInLength="0/1"  name="volume"/>
             <Parameter id="1971"  name="captions"/>
            </Parameters>
            <Attributes>
             <Attribute id="1972" value="" name="ident"/>
             <Attribute id="1973" value="44100" name="sampleRate"/>
             <Attribute id="1974" value="16" name="bitDepth"/>
             <Attribute id="1975" value="1" name="gain"/>
             <Attribute id="1976" value="0" name="mixToMono"/>
            </Attributes>
            <MetaData>
             <entry key="WinSubProjectDisplayName" val=""/>
            </MetaData>
           </AMFile>
           <AMFile id="1977" start="1653" duration="12072" scalar="1/1" mediaStart="2496/1" mediaDuration="12072/1" trackNumber="0" src="22" channelNumber="0" >
            <Parameters>
             <InterpolatingParam id="1978" interp="linr"  time="0/1" value="1" leadInLength="0/1"  name="volume"/>
             <Parameter id="1979"  name="captions"/>
            </Parameters>
            <Attributes>
             <Attribute id="1980" value="" name="ident"/>
             <Attribute id="1981" value="44100" name="sampleRate"/>
             <Attribute id="1982" value="16" name="bitDepth"/>
             <Attribute id="1983" value="1" name="gain"/>
             <Attribute id="1984" value="0" name="mixToMono"/>
            </Attributes>
            <MetaData>
             <entry key="WinSubProjectDisplayName" val=""/>
            </MetaData>
           </AMFile>
          </Medias>
         </GenericTrack>
        </StitchedMedia>
        <AMFile id="1985" start="724" duration="90" scalar="1/1" mediaStart="35/1" mediaDuration="90/1" trackNumber="0" src="26" channelNumber="0" >
         <Parameters>
          <InterpolatingParam id="1986" interp="linr"  name="volume">
           <Keyframes>
           <Keyframe id="1987"  time="0/1" value="1.3133640552995391" leadInLength="0/1"  />
           <Keyframe id="1988"  time="35/1" value="0.81885856079404462" leadInLength="0/1"  />
           <Keyframe id="1989"  time="50/1" value="1.3133640552995391" leadInLength="0/1"  />
           <Keyframe id="1990"  time="111/1" value="1.3133640552995391" leadInLength="0/1"  />
           </Keyframes>
          </InterpolatingParam>
          <Parameter id="1991"  name="captions"/>
         </Parameters>
         <Effects>
          <GenericEffect id="1992" name = "WinCompression" >
           <Parameters>
           <InterpolatingParam id="1993" interp="linr"  time="0/1" value="0" leadInLength="0/1"   name="attack"/>
           <InterpolatingParam id="1994" interp="linr"  time="0/1" value="9" leadInLength="0/1"   name="gain"/>
           <Parameter id="1995"   name="preset">
            <Keyframes>
            <Keyframe id="1996"  time="0/1" value="1" leadInLength="0/1"  />
            </Keyframes>
           </Parameter>
           <InterpolatingParam id="1997" interp="linr"  time="0/1" value="10" leadInLength="0/1"   name="ratio"/>
           <InterpolatingParam id="1998" interp="linr"  time="0/1" value="3500" leadInLength="0/1"   name="release"/>
           <InterpolatingParam id="1999" interp="linr"  time="0/1" value="-20" leadInLength="0/1"   name="threshold"/>
           </Parameters>
          </GenericEffect>
          <GenericEffect id="2000" name = "NoiseReduction" >
           <Parameters>
           <InterpolatingParam id="2001" interp="linr"  time="0/1" value="20" leadInLength="0/1"   name="denoiserAmount"/>
           <InterpolatingParam id="2002" interp="linr"  time="0/1" value="0" leadInLength="0/1"   name="denoiserThreshold"/>
           <Parameter id="2003"   name="noiseProfile">
            <Keyframes>
            <Keyframe id="2004"  time="0/1" value="FBAAAAIAAABErAAAAQIAAPWfkML/y4XCqbyHwopWi8KPBorCCHyMwi5XksKsBpXCflqawihkn8L+&#xD;&#xa;AqLCC+mjwqkFo8KyLqXC5vylwsoPpcL/3KTCismowl5Fq8I2S6nChAOrwmSirsKVCK/CRlqrwmBt&#xD;&#xa;qsKcE7TC4m27whxCu8IoIrvCvRC6wiIhu8IYxbzCqpK7wtKSu8ITA7vCYI65woCRucLqz7nCIj25&#xD;&#xa;wkrHu8Kanr3CTiq9woz/vcJ2JL7CXvm/wp4ewcJ+scLCDATCwh+pwMKD1MHCzBXCwmStw8L/C8TC&#xD;&#xa;YuXCwkgswsKmKMPCSO3BwkDUwsJDXcLCGBXCwkDEwsLeUMHC4NfDwq50w8LeqsHCqkzDwnxhw8Lh&#xD;&#xa;nMPCIMDDwlpQwsJ/zsLCdrPDwgeBw8JGrMPCHQzDwkDow8Im5cTCD9nDwr6zxMJd9cXCZkbGwrkq&#xD;&#xa;xsJQB8fC9sbHwiK9ycLEdcjCnEjHwlQ5xsKcfcbCwNvGwmLZxsJ9t8fCYF/HwrIXx8Ik28fCHAjH&#xD;&#xa;wmm0xsK9oMfCFXLIwpJ6ycI66cnCk3PIwh9xyMIrncbC0DTHwq0WyMLG8cfCujTJwgN4ycJiFcjC&#xD;&#xa;2pjGwvLRxcLHaMnCQujKwkgiysIY+8nCBY/Jwgl7ycLfrcjCmHjHwnxcyMLJMcrCHCXKwgv9ycLN&#xD;&#xa;l8rC2EPJwoL3yMIRncnCEqTIwsz6yMKME8rC+oTLwlCpzMKWq8rCYIXKwoA7ysJm2cnC3hzKwru/&#xD;&#xa;y8JMGMzCWTTMwhgyy8JfssvChsbMwlPgy8Ji4crC3DzLwtg3y8KG2MvCrtnLwiAWzMKoKsvCrOTK&#xD;&#xa;wrNvzMJeK8zCo0HLwrTWysI758vC7kHMwjZyy8Lbs8rCVrnKwpLiysINNMrCWmXKwgZnysJSDcrC&#xD;&#xa;8CTKwk4NysLNzsnC5iDKwpKjy8JOA8vCfjvKwhy9ysLhTMvClBDKwosXysJ+F8vC7IzLwvjXysJu&#xD;&#xa;QsvClBvLwp7ayMJwZcrCTDvKwv+ZycIjIMjCoSjJwmAcy8KTF8vCVl3JwqAyycI4h8nClnjJwg7a&#xD;&#xa;y8LSr8vC/JDLwopSy8IbxMrCFLzMwrCPy8KYuMrCyOTKwrBTy8LeYsvCV8TLwsDkysIy9srCJIHI&#xD;&#xa;wnilx8JUrsjC0ojLwoGmy8KUg8vCXrPKwotiy8I4ZczCCMbLwhi6zML3OM3CyPvMwhT+y8Jt7svC&#xD;&#xa;nDnMwggjysKuTsnCXBfKwuGnysKqHszCqf3NwlLCysKy58nCFPbKwi4WzMIU5MrC3q3IwiRxysII&#xD;&#xa;LczCosPMwgwuzMLCnsrCZozKwvRmysK0+srCaLPJwrpmysIZlMvCWrLLwhZGy8Ki0srCTKvLwhDu&#xD;&#xa;y8Lu2MvCQvLLwl5GzMKAe8vCvKbLwhgszMJ9lMvCanjLwpZjzcJwt8zCYInLwp5Yy8LYLsvChtPK&#xD;&#xa;wqYKy8LZvcvCvC7LwoqOy8IIzMvC0t7KwsI2y8LT9srCjcvJwga+ysJgiMvCwc/Lwho7zMKq4czC&#xD;&#xa;eg7Nwv7HzcKy8szCPPTMwhCazMJ+QczCw9DMwgXqzcLSPM3CgK3Mwi22zsJiGs7CVoTMwsYDzcKM&#xD;&#xa;n83C0MzNwqYVzsLDk8/CxqnPwjDdzsJ6bc/CNjTOwlC8zsJY3c7Ch0HNwkINzsKSr8/CbovOwl4y&#xD;&#xa;zsLbPs7COq3NwhYUz8K4us7CQILNwqhJzsIKYs7CbM/NwqruzcJm/8/CqnfPwvC0zcLFBM7ChXPO&#xD;&#xa;whSQzcIets7C0EPOwhCozcJB9s3CWS7QwgSXz8JOnc3CJJTOwn6KzsJNmc7C4pzNwlpUzsK4aNHC&#xD;&#xa;6n3PwunXzsJqCtDCOgvQwhSFzsJof87C5yHPwoa/zcJ7ic7C8l3OwlDYz8LCms7CIfPOwhDWzcKL&#xD;&#xa;MM3CS1fOwkLUzsI+4c3Cs6LOwqSS0MJOHtLCWhvRwhh+z8JWUs/CKkDOwixyzsLgNM/CUKHPwlO+&#xD;&#xa;z8JYjNDCFW/RwqUJ0sLi1tTCIjrbwkib4cLR3+PCBBHkwrJZ5cJjFuXCDJzkwkg65MK0C+TCeOrj&#xD;&#xa;wlwU5MLKYeTCdG7jwtSG4sImUuPCK+riwg6Q4sIPieTCyhbkwi3K4sLdo+LCPlniwj4E48IgROTC&#xD;&#xa;HKbjwiM34sLYuePCllnkwsxQ48IA+OPCtmjjwvjS48K1z+TC1Kfjwq9i48LOruPC1EPjwq/k4sLy&#xD;&#xa;1OPCbHflwgrk48INhuLC4JPiwukQ4sLw/uLCoK/jwsIc48IqOOLCKWziwttw48JemePCRr3jwift&#xD;&#xa;48J5K+PCco3iwkip4cK0MOTCw3flwvpB48LytuLCULfiwgSg48L/H+PC6ZbkwqQE5MLvB+PCmAvj&#xD;&#xa;wgaY48IVeuPC6GDkwjiY5MKa9OHCDwPhwply4sLU8uHCvmvhwtYH4cIxBuPCvKXjwvpN48L0XOLC&#xD;&#xa;rJzhwhD04MLytOHCW6Tjwr6l4sKE4OHC3g/jwvu848L3OOXCQY/nwmHr58J9RefCqIfmwsqO58Jr&#xD;&#xa;UOjCLurpwowB6cIl/ubCUp3nws4Q6MIcX+nCHVrpwgis5sJ8QubCMLTlwjZS5cKmieXCAqvlwsLg&#xD;&#xa;5MKzc+TCAlblwgEF5sLHlefCbkbnwuyq5cIRWuXCyeTlwmY35sKppuXCxgrmwuYv5sLtP+fCBLfn&#xD;&#xa;wnHm5sIgF+fCZP3mwuJ65sLwBOfC+MTmwv5J5sLQguTCPnHkwtCD5cIlx+bCffbnwjsD5sLdHObC&#xD;&#xa;DSDmwvL55cLh1uXCm4TzwvWfkML/y4XCqbyHwopWi8KPBorCCHyMwi5XksKsBpXCflqawihkn8L+&#xD;&#xa;AqLCC+mjwqkFo8KyLqXC5vylwsoPpcL/3KTCismowl5Fq8I2S6nChAOrwmSirsKVCK/CRlqrwmBt&#xD;&#xa;qsKcE7TC4m27whxCu8IoIrvCvRC6wiIhu8IYxbzCqpK7wtKSu8ITA7vCYI65woCRucLqz7nCIj25&#xD;&#xa;wkrHu8Kanr3CTiq9woz/vcJ2JL7CXvm/wp4ewcJ+scLCDATCwh+pwMKD1MHCzBXCwmStw8L/C8TC&#xD;&#xa;YuXCwkgswsKmKMPCSO3BwkDUwsJDXcLCGBXCwkDEwsLeUMHC4NfDwq50w8LeqsHCqkzDwnxhw8Lh&#xD;&#xa;nMPCIMDDwlpQwsJ/zsLCdrPDwgeBw8JGrMPCHQzDwkDow8Im5cTCD9nDwr6zxMJd9cXCZkbGwrkq&#xD;&#xa;xsJQB8fC9sbHwiK9ycLEdcjCnEjHwlQ5xsKcfcbCwNvGwmLZxsJ9t8fCYF/HwrIXx8Ik28fCHAjH&#xD;&#xa;wmm0xsK9oMfCFXLIwpJ6ycI66cnCk3PIwh9xyMIrncbC0DTHwq0WyMLG8cfCujTJwgN4ycJiFcjC&#xD;&#xa;2pjGwvLRxcLHaMnCQujKwkgiysIY+8nCBY/Jwgl7ycLfrcjCmHjHwnxcyMLJMcrCHCXKwgv9ycLN&#xD;&#xa;l8rC2EPJwoL3yMIRncnCEqTIwsz6yMKME8rC+oTLwlCpzMKWq8rCYIXKwoA7ysJm2cnC3hzKwru/&#xD;&#xa;y8JMGMzCWTTMwhgyy8JfssvChsbMwlPgy8Ji4crC3DzLwtg3y8KG2MvCrtnLwiAWzMKoKsvCrOTK&#xD;&#xa;wrNvzMJeK8zCo0HLwrTWysI758vC7kHMwjZyy8Lbs8rCVrnKwpLiysINNMrCWmXKwgZnysJSDcrC&#xD;&#xa;8CTKwk4NysLNzsnC5iDKwpKjy8JOA8vCfjvKwhy9ysLhTMvClBDKwosXysJ+F8vC7IzLwvjXysJu&#xD;&#xa;QsvClBvLwp7ayMJwZcrCTDvKwv+ZycIjIMjCoSjJwmAcy8KTF8vCVl3JwqAyycI4h8nClnjJwg7a&#xD;&#xa;y8LSr8vC/JDLwopSy8IbxMrCFLzMwrCPy8KYuMrCyOTKwrBTy8LeYsvCV8TLwsDkysIy9srCJIHI&#xD;&#xa;wnilx8JUrsjC0ojLwoGmy8KUg8vCXrPKwotiy8I4ZczCCMbLwhi6zML3OM3CyPvMwhT+y8Jt7svC&#xD;&#xa;nDnMwggjysKuTsnCXBfKwuGnysKqHszCqf3NwlLCysKy58nCFPbKwi4WzMIU5MrC3q3IwiRxysII&#xD;&#xa;LczCosPMwgwuzMLCnsrCZozKwvRmysK0+srCaLPJwrpmysIZlMvCWrLLwhZGy8Ki0srCTKvLwhDu&#xD;&#xa;y8Lu2MvCQvLLwl5GzMKAe8vCvKbLwhgszMJ9lMvCanjLwpZjzcJwt8zCYInLwp5Yy8LYLsvChtPK&#xD;&#xa;wqYKy8LZvcvCvC7LwoqOy8IIzMvC0t7KwsI2y8LT9srCjcvJwga+ysJgiMvCwc/Lwho7zMKq4czC&#xD;&#xa;eg7Nwv7HzcKy8szCPPTMwhCazMJ+QczCw9DMwgXqzcLSPM3CgK3Mwi22zsJiGs7CVoTMwsYDzcKM&#xD;&#xa;n83C0MzNwqYVzsLDk8/CxqnPwjDdzsJ6bc/CNjTOwlC8zsJY3c7Ch0HNwkINzsKSr8/CbovOwl4y&#xD;&#xa;zsLbPs7COq3NwhYUz8K4us7CQILNwqhJzsIKYs7CbM/NwqruzcJm/8/CqnfPwvC0zcLFBM7ChXPO&#xD;&#xa;whSQzcIets7C0EPOwhCozcJB9s3CWS7QwgSXz8JOnc3CJJTOwn6KzsJNmc7C4pzNwlpUzsK4aNHC&#xD;&#xa;6n3PwunXzsJqCtDCOgvQwhSFzsJof87C5yHPwoa/zcJ7ic7C8l3OwlDYz8LCms7CIfPOwhDWzcKL&#xD;&#xa;MM3CS1fOwkLUzsI+4c3Cs6LOwqSS0MJOHtLCWhvRwhh+z8JWUs/CKkDOwixyzsLgNM/CUKHPwlO+&#xD;&#xa;z8JYjNDCFW/RwqUJ0sLi1tTCIjrbwkib4cLR3+PCBBHkwrJZ5cJjFuXCDJzkwkg65MK0C+TCeOrj&#xD;&#xa;wlwU5MLKYeTCdG7jwtSG4sImUuPCK+riwg6Q4sIPieTCyhbkwi3K4sLdo+LCPlniwj4E48IgROTC&#xD;&#xa;HKbjwiM34sLYuePCllnkwsxQ48IA+OPCtmjjwvjS48K1z+TC1Kfjwq9i48LOruPC1EPjwq/k4sLy&#xD;&#xa;1OPCbHflwgrk48INhuLC4JPiwukQ4sLw/uLCoK/jwsIc48IqOOLCKWziwttw48JemePCRr3jwift&#xD;&#xa;48J5K+PCco3iwkip4cK0MOTCw3flwvpB48LytuLCULfiwgSg48L/H+PC6ZbkwqQE5MLvB+PCmAvj&#xD;&#xa;wgaY48IVeuPC6GDkwjiY5MKa9OHCDwPhwply4sLU8uHCvmvhwtYH4cIxBuPCvKXjwvpN48L0XOLC&#xD;&#xa;rJzhwhD04MLytOHCW6Tjwr6l4sKE4OHC3g/jwvu848L3OOXCQY/nwmHr58J9RefCqIfmwsqO58Jr&#xD;&#xa;UOjCLurpwowB6cIl/ubCUp3nws4Q6MIcX+nCHVrpwgis5sJ8QubCMLTlwjZS5cKmieXCAqvlwsLg&#xD;&#xa;5MKzc+TCAlblwgEF5sLHlefCbkbnwuyq5cIRWuXCyeTlwmY35sKppuXCxgrmwuYv5sLtP+fCBLfn&#xD;&#xa;wnHm5sIgF+fCZP3mwuJ65sLwBOfC+MTmwv5J5sLQguTCPnHkwtCD5cIlx+bCffbnwjsD5sLdHObC&#xD;&#xa;DSDmwvL55cLh1uXCm4Tz" leadInLength="0/1"  />
            </Keyframes>
           </Parameter>
           </Parameters>
          </GenericEffect>
          <GenericEffect id="2005" name = "Declipper" >
           <Parameters>
           <InterpolatingParam id="2006" interp="linr"  time="0/1" value="-1" leadInLength="0/1"   name="sensitivity"/>
           </Parameters>
          </GenericEffect>
         </Effects>
         <Attributes>
          <Attribute id="2007" value="" name="ident"/>
          <Attribute id="2008" value="48000" name="sampleRate"/>
          <Attribute id="2009" value="16" name="bitDepth"/>
          <Attribute id="2010" value="1" name="gain"/>
          <Attribute id="2011" value="0" name="mixToMono"/>
         </Attributes>
         <MetaData>
          <entry key="WinSubProjectDisplayName" val=""/>
         </MetaData>
        </AMFile>
        <StitchedMedia id="2012" start="814" duration="318" scalar="1/1" mediaStart="1065/1" mediaDuration="318/1" minMediaStart="0/1" >
         <Transformer>
          <VectorParam id="2013"  name="translation">
           <InterpolatingParam id="2014" interp="linr"  time="0/1" value="0" leadInLength="0/1"  />
           <InterpolatingParam id="2015" interp="linr"  time="0/1" value="0" leadInLength="0/1"  />
           <InterpolatingParam id="2016" interp="linr"  time="0/1" value="0" leadInLength="0/1"  />
          </VectorParam>
          <VectorParam id="2017"  name="rotation">
           <InterpolatingParam id="2018" interp="linr"  time="0/1" value="0" leadInLength="0/1"  />
           <InterpolatingParam id="2019" interp="linr"  time="0/1" value="0" leadInLength="0/1"  />
           <InterpolatingParam id="2020" interp="linr"  time="0/1" value="0" leadInLength="0/1"  />
          </VectorParam>
          <VectorParam id="2021"  name="shear">
           <InterpolatingParam id="2022" interp="linr"  time="0/1" value="0" leadInLength="0/1"  />
           <InterpolatingParam id="2023" interp="linr"  time="0/1" value="0" leadInLength="0/1"  />
           <InterpolatingParam id="2024" interp="linr"  time="0/1" value="0" leadInLength="0/1"  />
          </VectorParam>
          <VectorParam id="2025"  name="scale">
           <InterpolatingParam id="2026" interp="linr"  time="0/1" value="1" leadInLength="0/1"  />
           <InterpolatingParam id="2027" interp="linr"  time="0/1" value="1" leadInLength="0/1"  />
           <InterpolatingParam id="2028" interp="linr"  time="0/1" value="1" leadInLength="0/1"  />
          </VectorParam>
          <VectorParam id="2029"  name="anchor">
           <InterpolatingParam id="2030" interp="linr"  time="0/1" value="0" leadInLength="0/1"  />
           <InterpolatingParam id="2031" interp="linr"  time="0/1" value="0" leadInLength="0/1"  />
           <InterpolatingParam id="2032" interp="linr"  time="0/1" value="0" leadInLength="0/1"  />
          </VectorParam>
         </Transformer>
         <Parameters>
          <InterpolatingParam id="2033" interp="linr"  time="0/1" value="1" leadInLength="0/1"  name="cursorOpacity"/>
          <InterpolatingParam id="2034" interp="linr"  time="0/1" value="1" leadInLength="0/1"  name="cursorScale"/>
          <InterpolatingParam id="2035" interp="linr"  name="volume">
           <Keyframes>
           <Keyframe id="2036"  time="0/1" value="1" leadInLength="0/1"  />
           <Keyframe id="2037"  time="250/1" value="1" leadInLength="0/1"  />
           <Keyframe id="2038"  time="251/1" value="0.99255583126550895" leadInLength="0/1"  />
           <Keyframe id="2039"  time="1065/1" value="0.8188585607940444" leadInLength="0/1"  />
           <Keyframe id="2040"  time="1079/1" value="0.99255583126550895" leadInLength="0/1"  />
           <Keyframe id="2041"  time="1888/1" value="0.99255583126550895" leadInLength="0/1"  />
           <Keyframe id="2042"  time="1889/1" value="1" leadInLength="0/1"  />
           </Keyframes>
          </InterpolatingParam>
          <Parameter id="2043"  name="captions"/>
         </Parameters>
         <Effects>
          <GenericEffect id="2044" name = "NoiseReduction" >
           <Parameters>
           <InterpolatingParam id="2045" interp="linr"  time="0/1" value="20" leadInLength="0/1"   name="denoiserAmount"/>
           <InterpolatingParam id="2046" interp="linr"  time="0/1" value="0" leadInLength="0/1"   name="denoiserThreshold"/>
           <Parameter id="2047"   name="noiseProfile">
            <Keyframes>
            <Keyframe id="2048"  time="0/1" value="FBAAAAIAAABErAAAAQIAADOmYsI/y13CPNeLwsehjcK+No/Cm+aOwlHvjcIja5HCun6XwoKemMJy&#xD;&#xa;lpPCuQeRwhgMlcJGdZvCTjScwgFMncIGh5zCGrOawuO0nMJdJZ3Cybudwo6toMIdraPCs/6jwpY0&#xD;&#xa;psLIUqjCWQmpwonmp8KcE6XCgXGlwqC+psIFHabCBoyownWvqcIkX6jCgnCpwms3qsIW0KfCM7Oj&#xD;&#xa;wnGLosJgcKnCdk6swiIgscKFrbDCtNmowrZmpcIHYqjCCg2pwqUNq8KgHq7ChEGxwhVFs8KU6LLC&#xD;&#xa;dvWzwpVHscI6NrDCMpGwwubcs8Imh7bCPKq6wj7tvMKSbr3ClsG+wq4qwMLXQr7CpAK5whxiuMJp&#xD;&#xa;v7nCwu29wloQvsIXTL3CzjDAwsDTwcL69sHC8urAwtAFwMIkSMLCpJHDwjLOw8JG8sTCmMvDwq7H&#xD;&#xa;wsLOncPC+CDDwkh6wsLU5sPCP23Fwm5Qx8KlYsTCm0XCwnhexcLsTsPCSMPDwjvJw8LMWcHC2XHD&#xD;&#xa;wjj5wsICs8TChWvEwgCywcKDdcHCFnHCwurMxMLlVsTCfrDGwmzqyMKoGsfC7ITIwtqRyMJwzcbC&#xD;&#xa;ppbEwiv5xcIXxsTCzDfCwtSExMKEjcTC8ObDwiJ9yMIQm8vCIkDGwqHyxcIyYcbCyAXIwmyBx8I4&#xD;&#xa;n8PCvyPGwuiKxMJggMfCdL3JwsMhysLi6sXCRa7Ewoykx8Jk/MXC0NfEwtK0xcJQTMTCvvvGwtqJ&#xD;&#xa;xMKmFsTCSbfGwq76x8IQ+sjCsqnIwkJdycIaT8fC0nbHwlf2xsLg/cbCtIHHwsTvxsI0KsbCsqDH&#xD;&#xa;wgLix8JGKcXCyNTDwjDwwsIb98bC6MjJwg6Zy8Kg+cvCaC3HwtIgw8KW7sXC3EHGwmcUxcL++8fC&#xD;&#xa;CWbIwsDoxsJFz8PCJkXFwiD7xcIQDsfC8ljIwrDLxMKkeMLClpHEwiqgyMJcjcjC6krGwl50w8Iy&#xD;&#xa;7sXCWv3HwkQ1xsKUwMPC2K/EwootxMJUqMTCH3LDwuojxcKil8fCjmXIwkLJxcID78TClTvGwhel&#xD;&#xa;xsIca8bC1rbCwk6+wsIQfsfCIlPHwpJExcLWhMbCDNvEwuryxMKklMXCeBDDwolhwcIiasLCQYfE&#xD;&#xa;whUfwsJx4MTCsEnIwkX0xcK+3sbCIqLHwrARx8IWtMTCGAnFwomNxMLfbcTCQIPDwjqww8L+MMTC&#xD;&#xa;mqjHwrBaxMI6YsTCxmvIwqyKycKQaMXCnx7FwkYvx8In6sjCGMzIwuvAxcL8a8XCiBjJwkvwyMKI&#xD;&#xa;qMbCTCTIwvQSy8IxEsvCVT/JwrI3w8LA8sLCCD7EwsxXxMJSjsXCfjXFwqTKxMI/gsPCDozDwtwF&#xD;&#xa;xMISn8bChHvJwlFQyMJYCsbCP4jIwtkBycLiFsrCbCrKwvyTysIWncnC+A3HwuI5x8I8/MbC0hHI&#xD;&#xa;wopJzMLmb83CFkvMwpy/y8Kn7MrCfJrJwuLDyMJKn8bCStTGwpb7ycIMo8nCcivFwsapxcJkx8bC&#xD;&#xa;ALLIwriaycJM3cfC8r/KwlSoy8I4A8vCpFHJwkRrzMIKr87CWD7MwsiJycKW9cfCUjbKwq+YycLi&#xD;&#xa;U8jCROHHwhdWycKaU8nCF7jMwmKaz8L//8zC8tjOwjxezsIUysvCzHLJwiJryMLRm8bCgLjKwsi8&#xD;&#xa;ysIhfszCPETLwqtbyMJGeMfCpRPJwnwZzMJSIs3CqhPMwmDiyMLZYsjCz13KwgwKy8LCi8jCyrTM&#xD;&#xa;wgwxzMK4ZcvC087JwkV2xsLyXsnCjIbLwhwvzcLfrM7CeITKwla3ysLK3cnC/PHFwpScxcIUQ8nC&#xD;&#xa;NJzIwrEsxsJvZcfCXSvIwlKLx8JII8nCvgzKwpnhysJSC8vC9iTKwiA/y8IadczCuDrMwuVaysLO&#xD;&#xa;r8vCXtfJwrZ6ycItucnCtonJwjyTysJkC83CL0nMwkjdyMIBucfCixrLwvSDysKGX8nCsCzMwuas&#xD;&#xa;0cIsnNPCuEvOwtr5y8LMBc7Cr+PTwsQc5MLcOfPCKOj0wjr59cJ0C/fCzg75wkwh+8LmVPnCqz72&#xD;&#xa;wnB+9cLuJvrCtEL4wkp7+MLOfffCDN3zwkaz9sLi8vjCFKr6wgIQ+cI8iPjCBpT4wvR1+MLQI/rC&#xD;&#xa;Ihn8wlQg+sIcLvjCVCz2wsI49MJQ9fbC23H3woy69sL4BfnCIOb2wjwy9cIuGvnCdmb3wj7K9MI+&#xD;&#xa;KPXCJpr2wn7C9cKQDvnCthv7woaP+cLGaPbCTr32wrpN+cIFSPjCDvX4wtD39sJY//TCKGf3wvZI&#xD;&#xa;+cK9YvfCgYf3wjIf+sLMMvfCpjz2wuA6+cII8vbCxDv1wmJG9sLka/rCPrT1wi589cLqjfbC9qP4&#xD;&#xa;wgzJ+MLelPbCGir2wlBC9sKeU/jC/nn3wsYn9sL4QPjCXBj5wopQ+MIaJvnCSB36wgjc+MIMfPfC&#xD;&#xa;W+z1wmYG+MKuxPnCCuD1wjh+9sLDrPfCOPj3wm7h+MJjMvfCxH/2wsXf98KwN/nCKOn5wrLR+sKg&#xD;&#xa;bPvCkFv5wsAu+cL2hffCySz2wmRX+MKiiPjCzFX4wvjB98Jgz/fCxPT4wobP+cL8avjC9r34wnKx&#xD;&#xa;+MK+LPnC3H34wle39cKejfbCNKP2wg5B9sK0H/rCSvz2woqE98JAqfjCBPL4wmKi+MIu2/jCMFD5&#xD;&#xa;wiCM+cKo//nCGqz7wlZN+sKUDfjC0ov4wrIU+sIVpffCP2/3woye98KktPbCTJj2wpH29cL3mvbC&#xD;&#xa;jL/4wti/+MLm3vjCQ9QEwzOmYsI/y13CPNeLwsehjcK+No/Cm+aOwlHvjcIja5HCun6XwoKemMJy&#xD;&#xa;lpPCuQeRwhgMlcJGdZvCTjScwgFMncIGh5zCGrOawuO0nMJdJZ3Cybudwo6toMIdraPCs/6jwpY0&#xD;&#xa;psLIUqjCWQmpwonmp8KcE6XCgXGlwqC+psIFHabCBoyownWvqcIkX6jCgnCpwms3qsIW0KfCM7Oj&#xD;&#xa;wnGLosJgcKnCdk6swiIgscKFrbDCtNmowrZmpcIHYqjCCg2pwqUNq8KgHq7ChEGxwhVFs8KU6LLC&#xD;&#xa;dvWzwpVHscI6NrDCMpGwwubcs8Imh7bCPKq6wj7tvMKSbr3ClsG+wq4qwMLXQr7CpAK5whxiuMJp&#xD;&#xa;v7nCwu29wloQvsIXTL3CzjDAwsDTwcL69sHC8urAwtAFwMIkSMLCpJHDwjLOw8JG8sTCmMvDwq7H&#xD;&#xa;wsLOncPC+CDDwkh6wsLU5sPCP23Fwm5Qx8KlYsTCm0XCwnhexcLsTsPCSMPDwjvJw8LMWcHC2XHD&#xD;&#xa;wjj5wsICs8TChWvEwgCywcKDdcHCFnHCwurMxMLlVsTCfrDGwmzqyMKoGsfC7ITIwtqRyMJwzcbC&#xD;&#xa;ppbEwiv5xcIXxsTCzDfCwtSExMKEjcTC8ObDwiJ9yMIQm8vCIkDGwqHyxcIyYcbCyAXIwmyBx8I4&#xD;&#xa;n8PCvyPGwuiKxMJggMfCdL3JwsMhysLi6sXCRa7Ewoykx8Jk/MXC0NfEwtK0xcJQTMTCvvvGwtqJ&#xD;&#xa;xMKmFsTCSbfGwq76x8IQ+sjCsqnIwkJdycIaT8fC0nbHwlf2xsLg/cbCtIHHwsTvxsI0KsbCsqDH&#xD;&#xa;wgLix8JGKcXCyNTDwjDwwsIb98bC6MjJwg6Zy8Kg+cvCaC3HwtIgw8KW7sXC3EHGwmcUxcL++8fC&#xD;&#xa;CWbIwsDoxsJFz8PCJkXFwiD7xcIQDsfC8ljIwrDLxMKkeMLClpHEwiqgyMJcjcjC6krGwl50w8Iy&#xD;&#xa;7sXCWv3HwkQ1xsKUwMPC2K/EwootxMJUqMTCH3LDwuojxcKil8fCjmXIwkLJxcID78TClTvGwhel&#xD;&#xa;xsIca8bC1rbCwk6+wsIQfsfCIlPHwpJExcLWhMbCDNvEwuryxMKklMXCeBDDwolhwcIiasLCQYfE&#xD;&#xa;whUfwsJx4MTCsEnIwkX0xcK+3sbCIqLHwrARx8IWtMTCGAnFwomNxMLfbcTCQIPDwjqww8L+MMTC&#xD;&#xa;mqjHwrBaxMI6YsTCxmvIwqyKycKQaMXCnx7FwkYvx8In6sjCGMzIwuvAxcL8a8XCiBjJwkvwyMKI&#xD;&#xa;qMbCTCTIwvQSy8IxEsvCVT/JwrI3w8LA8sLCCD7EwsxXxMJSjsXCfjXFwqTKxMI/gsPCDozDwtwF&#xD;&#xa;xMISn8bChHvJwlFQyMJYCsbCP4jIwtkBycLiFsrCbCrKwvyTysIWncnC+A3HwuI5x8I8/MbC0hHI&#xD;&#xa;wopJzMLmb83CFkvMwpy/y8Kn7MrCfJrJwuLDyMJKn8bCStTGwpb7ycIMo8nCcivFwsapxcJkx8bC&#xD;&#xa;ALLIwriaycJM3cfC8r/KwlSoy8I4A8vCpFHJwkRrzMIKr87CWD7MwsiJycKW9cfCUjbKwq+YycLi&#xD;&#xa;U8jCROHHwhdWycKaU8nCF7jMwmKaz8L//8zC8tjOwjxezsIUysvCzHLJwiJryMLRm8bCgLjKwsi8&#xD;&#xa;ysIhfszCPETLwqtbyMJGeMfCpRPJwnwZzMJSIs3CqhPMwmDiyMLZYsjCz13KwgwKy8LCi8jCyrTM&#xD;&#xa;wgwxzMK4ZcvC087JwkV2xsLyXsnCjIbLwhwvzcLfrM7CeITKwla3ysLK3cnC/PHFwpScxcIUQ8nC&#xD;&#xa;NJzIwrEsxsJvZcfCXSvIwlKLx8JII8nCvgzKwpnhysJSC8vC9iTKwiA/y8IadczCuDrMwuVaysLO&#xD;&#xa;r8vCXtfJwrZ6ycItucnCtonJwjyTysJkC83CL0nMwkjdyMIBucfCixrLwvSDysKGX8nCsCzMwuas&#xD;&#xa;0cIsnNPCuEvOwtr5y8LMBc7Cr+PTwsQc5MLcOfPCKOj0wjr59cJ0C/fCzg75wkwh+8LmVPnCqz72&#xD;&#xa;wnB+9cLuJvrCtEL4wkp7+MLOfffCDN3zwkaz9sLi8vjCFKr6wgIQ+cI8iPjCBpT4wvR1+MLQI/rC&#xD;&#xa;Ihn8wlQg+sIcLvjCVCz2wsI49MJQ9fbC23H3woy69sL4BfnCIOb2wjwy9cIuGvnCdmb3wj7K9MI+&#xD;&#xa;KPXCJpr2wn7C9cKQDvnCthv7woaP+cLGaPbCTr32wrpN+cIFSPjCDvX4wtD39sJY//TCKGf3wvZI&#xD;&#xa;+cK9YvfCgYf3wjIf+sLMMvfCpjz2wuA6+cII8vbCxDv1wmJG9sLka/rCPrT1wi589cLqjfbC9qP4&#xD;&#xa;wgzJ+MLelPbCGir2wlBC9sKeU/jC/nn3wsYn9sL4QPjCXBj5wopQ+MIaJvnCSB36wgjc+MIMfPfC&#xD;&#xa;W+z1wmYG+MKuxPnCCuD1wjh+9sLDrPfCOPj3wm7h+MJjMvfCxH/2wsXf98KwN/nCKOn5wrLR+sKg&#xD;&#xa;bPvCkFv5wsAu+cL2hffCySz2wmRX+MKiiPjCzFX4wvjB98Jgz/fCxPT4wobP+cL8avjC9r34wnKx&#xD;&#xa;+MK+LPnC3H34wle39cKejfbCNKP2wg5B9sK0H/rCSvz2woqE98JAqfjCBPL4wmKi+MIu2/jCMFD5&#xD;&#xa;wiCM+cKo//nCGqz7wlZN+sKUDfjC0ov4wrIU+sIVpffCP2/3woye98KktPbCTJj2wpH29cL3mvbC&#xD;&#xa;jL/4wti/+MLm3vjCQ9QE" leadInLength="0/1"  />
            </Keyframes>
           </Parameter>
           </Parameters>
          </GenericEffect>
          <GenericEffect id="2049" name = "WinCompression" >
           <Parameters>
           <InterpolatingParam id="2050" interp="linr"  time="0/1" value="0" leadInLength="0/1"   name="attack"/>
           <InterpolatingParam id="2051" interp="linr"  time="0/1" value="9" leadInLength="0/1"   name="gain"/>
           <Parameter id="2052"   name="preset">
            <Keyframes>
            <Keyframe id="2053"  time="0/1" value="1" leadInLength="0/1"  />
            </Keyframes>
           </Parameter>
           <InterpolatingParam id="2054" interp="linr"  time="0/1" value="10" leadInLength="0/1"   name="ratio"/>
           <InterpolatingParam id="2055" interp="linr"  time="0/1" value="3500" leadInLength="0/1"   name="release"/>
           <InterpolatingParam id="2056" interp="linr"  time="0/1" value="-20" leadInLength="0/1"   name="threshold"/>
           </Parameters>
          </GenericEffect>
          <GenericEffect id="2057" name = "Declipper" >
           <Parameters>
           <InterpolatingParam id="2058" interp="linr"  time="0/1" value="-1" leadInLength="0/1"   name="sensitivity"/>
           </Parameters>
          </GenericEffect>
          <GenericEffect id="2059" name = "Declicker" >
           <Parameters>
           <InterpolatingParam id="2060" interp="linr"  time="0/1" value="3" leadInLength="0/1"   name="sensitivity"/>
           </Parameters>
          </GenericEffect>
         </Effects>
         <Attributes>
          <Attribute id="2061" value="" name="ident"/>
          <Attribute id="2062" value="0" name="mixToMono"/>
         </Attributes>
         <MetaData>
          <entry key="WinSubProjectDisplayName" val=""/>
         </MetaData>
         <ExtraData>
          <Entry key="ZoomPanBin">
           <ZoomPanBin id="2063"  >
            <ZoomPanKeyframes>
            </ZoomPanKeyframes>
           </ZoomPanBin>
          </Entry>
          <Entry key="CursorEffectBin">
           <CursorEffectBin id="2064"  >
            <CursorEffectKeyframes>
            </CursorEffectKeyframes>
           </CursorEffectBin>
          </Entry>
         </ExtraData>
         <GenericTrack id="2065"  >
          <Attributes>
           <Attribute id="2066" value="" name="ident"/>
           <Attribute id="2067" value="0" name="audioMuted"/>
           <Attribute id="2068" value="0" name="videoHidden"/>
          </Attributes>
          <MetaData>
           <entry key="IsLocked" val="False"/>
           <entry key="WinTrackHeight" val="0"/>
          </MetaData>
          <Medias>
           <AMFile id="2069" start="0" duration="582" scalar="1/1" mediaStart="0/1" mediaDuration="582/1" trackNumber="0" src="22" channelNumber="0" >
            <Parameters>
             <InterpolatingParam id="2070" interp="linr"  time="0/1" value="1" leadInLength="0/1"  name="volume"/>
             <Parameter id="2071"  name="captions"/>
            </Parameters>
            <Attributes>
             <Attribute id="2072" value="" name="ident"/>
             <Attribute id="2073" value="44100" name="sampleRate"/>
             <Attribute id="2074" value="16" name="bitDepth"/>
             <Attribute id="2075" value="1" name="gain"/>
             <Attribute id="2076" value="0" name="mixToMono"/>
            </Attributes>
            <MetaData>
             <entry key="WinSubProjectDisplayName" val=""/>
            </MetaData>
           </AMFile>
           <AMFile id="2077" start="582" duration="769" scalar="1/1" mediaStart="971/1" mediaDuration="769/1" trackNumber="0" src="22" channelNumber="0" >
            <Parameters>
             <InterpolatingParam id="2078" interp="linr"  time="0/1" value="1" leadInLength="0/1"  name="volume"/>
             <Parameter id="2079"  name="captions"/>
            </Parameters>
            <Attributes>
             <Attribute id="2080" value="" name="ident"/>
             <Attribute id="2081" value="44100" name="sampleRate"/>
             <Attribute id="2082" value="16" name="bitDepth"/>
             <Attribute id="2083" value="1" name="gain"/>
             <Attribute id="2084" value="0" name="mixToMono"/>
            </Attributes>
            <MetaData>
             <entry key="WinSubProjectDisplayName" val=""/>
            </MetaData>
           </AMFile>
           <AMFile id="2085" start="1351" duration="135" scalar="1/1" mediaStart="1744/1" mediaDuration="135/1" trackNumber="0" src="22" channelNumber="0" >
            <Parameters>
             <InterpolatingParam id="2086" interp="linr"  time="0/1" value="1" leadInLength="0/1"  name="volume"/>
             <Parameter id="2087"  name="captions"/>
            </Parameters>
            <Attributes>
             <Attribute id="2088" value="" name="ident"/>
             <Attribute id="2089" value="44100" name="sampleRate"/>
             <Attribute id="2090" value="16" name="bitDepth"/>
             <Attribute id="2091" value="1" name="gain"/>
             <Attribute id="2092" value="0" name="mixToMono"/>
            </Attributes>
            <MetaData>
             <entry key="WinSubProjectDisplayName" val=""/>
            </MetaData>
           </AMFile>
           <AMFile id="2093" start="1486" duration="165" scalar="1/1" mediaStart="1884/1" mediaDuration="165/1" trackNumber="0" src="22" channelNumber="0" >
            <Parameters>
             <InterpolatingParam id="2094" interp="linr"  time="0/1" value="1" leadInLength="0/1"  name="volume"/>
             <Parameter id="2095"  name="captions"/>
            </Parameters>
            <Attributes>
             <Attribute id="2096" value="" name="ident"/>
             <Attribute id="2097" value="44100" name="sampleRate"/>
             <Attribute id="2098" value="16" name="bitDepth"/>
             <Attribute id="2099" value="1" name="gain"/>
             <Attribute id="2100" value="0" name="mixToMono"/>
            </Attributes>
            <MetaData>
             <entry key="WinSubProjectDisplayName" val=""/>
            </MetaData>
           </AMFile>
           <AMFile id="2101" start="1651" duration="2" scalar="1/1" mediaStart="2164/1" mediaDuration="2/1" trackNumber="0" src="22" channelNumber="0" >
            <Parameters>
             <InterpolatingParam id="2102" interp="linr"  time="0/1" value="1" leadInLength="0/1"  name="volume"/>
             <Parameter id="2103"  name="captions"/>
            </Parameters>
            <Attributes>
             <Attribute id="2104" value="" name="ident"/>
             <Attribute id="2105" value="44100" name="sampleRate"/>
             <Attribute id="2106" value="16" name="bitDepth"/>
             <Attribute id="2107" value="1" name="gain"/>
             <Attribute id="2108" value="0" name="mixToMono"/>
            </Attributes>
            <MetaData>
             <entry key="WinSubProjectDisplayName" val=""/>
            </MetaData>
           </AMFile>
           <AMFile id="2109" start="1653" duration="12072" scalar="1/1" mediaStart="2496/1" mediaDuration="12072/1" trackNumber="0" src="22" channelNumber="0" >
            <Parameters>
             <InterpolatingParam id="2110" interp="linr"  time="0/1" value="1" leadInLength="0/1"  name="volume"/>
             <Parameter id="2111"  name="captions"/>
            </Parameters>
            <Attributes>
             <Attribute id="2112" value="" name="ident"/>
             <Attribute id="2113" value="44100" name="sampleRate"/>
             <Attribute id="2114" value="16" name="bitDepth"/>
             <Attribute id="2115" value="1" name="gain"/>
             <Attribute id="2116" value="0" name="mixToMono"/>
            </Attributes>
            <MetaData>
             <entry key="WinSubProjectDisplayName" val=""/>
            </MetaData>
           </AMFile>
          </Medias>
         </GenericTrack>
        </StitchedMedia>
        <StitchedMedia id="2117" start="1136" duration="531" scalar="1/1" mediaStart="1387/1" mediaDuration="531/1" minMediaStart="0/1" >
         <Transformer>
          <VectorParam id="2118"  name="translation">
           <InterpolatingParam id="2119" interp="linr"  time="0/1" value="0" leadInLength="0/1"  />
           <InterpolatingParam id="2120" interp="linr"  time="0/1" value="0" leadInLength="0/1"  />
           <InterpolatingParam id="2121" interp="linr"  time="0/1" value="0" leadInLength="0/1"  />
          </VectorParam>
          <VectorParam id="2122"  name="rotation">
           <InterpolatingParam id="2123" interp="linr"  time="0/1" value="0" leadInLength="0/1"  />
           <InterpolatingParam id="2124" interp="linr"  time="0/1" value="0" leadInLength="0/1"  />
           <InterpolatingParam id="2125" interp="linr"  time="0/1" value="0" leadInLength="0/1"  />
          </VectorParam>
          <VectorParam id="2126"  name="shear">
           <InterpolatingParam id="2127" interp="linr"  time="0/1" value="0" leadInLength="0/1"  />
           <InterpolatingParam id="2128" interp="linr"  time="0/1" value="0" leadInLength="0/1"  />
           <InterpolatingParam id="2129" interp="linr"  time="0/1" value="0" leadInLength="0/1"  />
          </VectorParam>
          <VectorParam id="2130"  name="scale">
           <InterpolatingParam id="2131" interp="linr"  time="0/1" value="1" leadInLength="0/1"  />
           <InterpolatingParam id="2132" interp="linr"  time="0/1" value="1" leadInLength="0/1"  />
           <InterpolatingParam id="2133" interp="linr"  time="0/1" value="1" leadInLength="0/1"  />
          </VectorParam>
          <VectorParam id="2134"  name="anchor">
           <InterpolatingParam id="2135" interp="linr"  time="0/1" value="0" leadInLength="0/1"  />
           <InterpolatingParam id="2136" interp="linr"  time="0/1" value="0" leadInLength="0/1"  />
           <InterpolatingParam id="2137" interp="linr"  time="0/1" value="0" leadInLength="0/1"  />
          </VectorParam>
         </Transformer>
         <Parameters>
          <InterpolatingParam id="2138" interp="linr"  time="0/1" value="1" leadInLength="0/1"  name="cursorOpacity"/>
          <InterpolatingParam id="2139" interp="linr"  time="0/1" value="1" leadInLength="0/1"  name="cursorScale"/>
          <InterpolatingParam id="2140" interp="linr"  name="volume">
           <Keyframes>
           <Keyframe id="2141"  time="0/1" value="1" leadInLength="0/1"  />
           <Keyframe id="2142"  time="250/1" value="1" leadInLength="0/1"  />
           <Keyframe id="2143"  time="251/1" value="1.1290322580645158" leadInLength="0/1"  />
           <Keyframe id="2144"  time="1649/1" value="0.99342881480580003" leadInLength="0/1"  />
           <Keyframe id="2145"  time="1658/1" value="0.14888337468982277" leadInLength="0/1"  />
           <Keyframe id="2146"  time="1674/1" value="0.81885856079404407" leadInLength="0/1"  />
           <Keyframe id="2147"  time="1802/1" value="0.94292803970223205" leadInLength="0/1"  />
           <Keyframe id="2148"  time="1817/1" value="1.1290322580645158" leadInLength="0/1"  />
           <Keyframe id="2149"  time="1892/1" value="1.1290322580645158" leadInLength="0/1"  />
           <Keyframe id="2150"  time="1893/1" value="1" leadInLength="0/1"  />
           </Keyframes>
          </InterpolatingParam>
          <Parameter id="2151"  name="captions"/>
         </Parameters>
         <Effects>
          <GenericEffect id="2152" name = "NoiseReduction" >
           <Parameters>
           <InterpolatingParam id="2153" interp="linr"  time="0/1" value="20" leadInLength="0/1"   name="denoiserAmount"/>
           <InterpolatingParam id="2154" interp="linr"  time="0/1" value="0" leadInLength="0/1"   name="denoiserThreshold"/>
           <Parameter id="2155"   name="noiseProfile">
            <Keyframes>
            <Keyframe id="2156"  time="0/1" value="FBAAAAIAAABErAAAAQIAADOmYsI/y13CPNeLwsehjcK+No/Cm+aOwlHvjcIja5HCun6XwoKemMJy&#xD;&#xa;lpPCuQeRwhgMlcJGdZvCTjScwgFMncIGh5zCGrOawuO0nMJdJZ3Cybudwo6toMIdraPCs/6jwpY0&#xD;&#xa;psLIUqjCWQmpwonmp8KcE6XCgXGlwqC+psIFHabCBoyownWvqcIkX6jCgnCpwms3qsIW0KfCM7Oj&#xD;&#xa;wnGLosJgcKnCdk6swiIgscKFrbDCtNmowrZmpcIHYqjCCg2pwqUNq8KgHq7ChEGxwhVFs8KU6LLC&#xD;&#xa;dvWzwpVHscI6NrDCMpGwwubcs8Imh7bCPKq6wj7tvMKSbr3ClsG+wq4qwMLXQr7CpAK5whxiuMJp&#xD;&#xa;v7nCwu29wloQvsIXTL3CzjDAwsDTwcL69sHC8urAwtAFwMIkSMLCpJHDwjLOw8JG8sTCmMvDwq7H&#xD;&#xa;wsLOncPC+CDDwkh6wsLU5sPCP23Fwm5Qx8KlYsTCm0XCwnhexcLsTsPCSMPDwjvJw8LMWcHC2XHD&#xD;&#xa;wjj5wsICs8TChWvEwgCywcKDdcHCFnHCwurMxMLlVsTCfrDGwmzqyMKoGsfC7ITIwtqRyMJwzcbC&#xD;&#xa;ppbEwiv5xcIXxsTCzDfCwtSExMKEjcTC8ObDwiJ9yMIQm8vCIkDGwqHyxcIyYcbCyAXIwmyBx8I4&#xD;&#xa;n8PCvyPGwuiKxMJggMfCdL3JwsMhysLi6sXCRa7Ewoykx8Jk/MXC0NfEwtK0xcJQTMTCvvvGwtqJ&#xD;&#xa;xMKmFsTCSbfGwq76x8IQ+sjCsqnIwkJdycIaT8fC0nbHwlf2xsLg/cbCtIHHwsTvxsI0KsbCsqDH&#xD;&#xa;wgLix8JGKcXCyNTDwjDwwsIb98bC6MjJwg6Zy8Kg+cvCaC3HwtIgw8KW7sXC3EHGwmcUxcL++8fC&#xD;&#xa;CWbIwsDoxsJFz8PCJkXFwiD7xcIQDsfC8ljIwrDLxMKkeMLClpHEwiqgyMJcjcjC6krGwl50w8Iy&#xD;&#xa;7sXCWv3HwkQ1xsKUwMPC2K/EwootxMJUqMTCH3LDwuojxcKil8fCjmXIwkLJxcID78TClTvGwhel&#xD;&#xa;xsIca8bC1rbCwk6+wsIQfsfCIlPHwpJExcLWhMbCDNvEwuryxMKklMXCeBDDwolhwcIiasLCQYfE&#xD;&#xa;whUfwsJx4MTCsEnIwkX0xcK+3sbCIqLHwrARx8IWtMTCGAnFwomNxMLfbcTCQIPDwjqww8L+MMTC&#xD;&#xa;mqjHwrBaxMI6YsTCxmvIwqyKycKQaMXCnx7FwkYvx8In6sjCGMzIwuvAxcL8a8XCiBjJwkvwyMKI&#xD;&#xa;qMbCTCTIwvQSy8IxEsvCVT/JwrI3w8LA8sLCCD7EwsxXxMJSjsXCfjXFwqTKxMI/gsPCDozDwtwF&#xD;&#xa;xMISn8bChHvJwlFQyMJYCsbCP4jIwtkBycLiFsrCbCrKwvyTysIWncnC+A3HwuI5x8I8/MbC0hHI&#xD;&#xa;wopJzMLmb83CFkvMwpy/y8Kn7MrCfJrJwuLDyMJKn8bCStTGwpb7ycIMo8nCcivFwsapxcJkx8bC&#xD;&#xa;ALLIwriaycJM3cfC8r/KwlSoy8I4A8vCpFHJwkRrzMIKr87CWD7MwsiJycKW9cfCUjbKwq+YycLi&#xD;&#xa;U8jCROHHwhdWycKaU8nCF7jMwmKaz8L//8zC8tjOwjxezsIUysvCzHLJwiJryMLRm8bCgLjKwsi8&#xD;&#xa;ysIhfszCPETLwqtbyMJGeMfCpRPJwnwZzMJSIs3CqhPMwmDiyMLZYsjCz13KwgwKy8LCi8jCyrTM&#xD;&#xa;wgwxzMK4ZcvC087JwkV2xsLyXsnCjIbLwhwvzcLfrM7CeITKwla3ysLK3cnC/PHFwpScxcIUQ8nC&#xD;&#xa;NJzIwrEsxsJvZcfCXSvIwlKLx8JII8nCvgzKwpnhysJSC8vC9iTKwiA/y8IadczCuDrMwuVaysLO&#xD;&#xa;r8vCXtfJwrZ6ycItucnCtonJwjyTysJkC83CL0nMwkjdyMIBucfCixrLwvSDysKGX8nCsCzMwuas&#xD;&#xa;0cIsnNPCuEvOwtr5y8LMBc7Cr+PTwsQc5MLcOfPCKOj0wjr59cJ0C/fCzg75wkwh+8LmVPnCqz72&#xD;&#xa;wnB+9cLuJvrCtEL4wkp7+MLOfffCDN3zwkaz9sLi8vjCFKr6wgIQ+cI8iPjCBpT4wvR1+MLQI/rC&#xD;&#xa;Ihn8wlQg+sIcLvjCVCz2wsI49MJQ9fbC23H3woy69sL4BfnCIOb2wjwy9cIuGvnCdmb3wj7K9MI+&#xD;&#xa;KPXCJpr2wn7C9cKQDvnCthv7woaP+cLGaPbCTr32wrpN+cIFSPjCDvX4wtD39sJY//TCKGf3wvZI&#xD;&#xa;+cK9YvfCgYf3wjIf+sLMMvfCpjz2wuA6+cII8vbCxDv1wmJG9sLka/rCPrT1wi589cLqjfbC9qP4&#xD;&#xa;wgzJ+MLelPbCGir2wlBC9sKeU/jC/nn3wsYn9sL4QPjCXBj5wopQ+MIaJvnCSB36wgjc+MIMfPfC&#xD;&#xa;W+z1wmYG+MKuxPnCCuD1wjh+9sLDrPfCOPj3wm7h+MJjMvfCxH/2wsXf98KwN/nCKOn5wrLR+sKg&#xD;&#xa;bPvCkFv5wsAu+cL2hffCySz2wmRX+MKiiPjCzFX4wvjB98Jgz/fCxPT4wobP+cL8avjC9r34wnKx&#xD;&#xa;+MK+LPnC3H34wle39cKejfbCNKP2wg5B9sK0H/rCSvz2woqE98JAqfjCBPL4wmKi+MIu2/jCMFD5&#xD;&#xa;wiCM+cKo//nCGqz7wlZN+sKUDfjC0ov4wrIU+sIVpffCP2/3woye98KktPbCTJj2wpH29cL3mvbC&#xD;&#xa;jL/4wti/+MLm3vjCQ9QEwzOmYsI/y13CPNeLwsehjcK+No/Cm+aOwlHvjcIja5HCun6XwoKemMJy&#xD;&#xa;lpPCuQeRwhgMlcJGdZvCTjScwgFMncIGh5zCGrOawuO0nMJdJZ3Cybudwo6toMIdraPCs/6jwpY0&#xD;&#xa;psLIUqjCWQmpwonmp8KcE6XCgXGlwqC+psIFHabCBoyownWvqcIkX6jCgnCpwms3qsIW0KfCM7Oj&#xD;&#xa;wnGLosJgcKnCdk6swiIgscKFrbDCtNmowrZmpcIHYqjCCg2pwqUNq8KgHq7ChEGxwhVFs8KU6LLC&#xD;&#xa;dvWzwpVHscI6NrDCMpGwwubcs8Imh7bCPKq6wj7tvMKSbr3ClsG+wq4qwMLXQr7CpAK5whxiuMJp&#xD;&#xa;v7nCwu29wloQvsIXTL3CzjDAwsDTwcL69sHC8urAwtAFwMIkSMLCpJHDwjLOw8JG8sTCmMvDwq7H&#xD;&#xa;wsLOncPC+CDDwkh6wsLU5sPCP23Fwm5Qx8KlYsTCm0XCwnhexcLsTsPCSMPDwjvJw8LMWcHC2XHD&#xD;&#xa;wjj5wsICs8TChWvEwgCywcKDdcHCFnHCwurMxMLlVsTCfrDGwmzqyMKoGsfC7ITIwtqRyMJwzcbC&#xD;&#xa;ppbEwiv5xcIXxsTCzDfCwtSExMKEjcTC8ObDwiJ9yMIQm8vCIkDGwqHyxcIyYcbCyAXIwmyBx8I4&#xD;&#xa;n8PCvyPGwuiKxMJggMfCdL3JwsMhysLi6sXCRa7Ewoykx8Jk/MXC0NfEwtK0xcJQTMTCvvvGwtqJ&#xD;&#xa;xMKmFsTCSbfGwq76x8IQ+sjCsqnIwkJdycIaT8fC0nbHwlf2xsLg/cbCtIHHwsTvxsI0KsbCsqDH&#xD;&#xa;wgLix8JGKcXCyNTDwjDwwsIb98bC6MjJwg6Zy8Kg+cvCaC3HwtIgw8KW7sXC3EHGwmcUxcL++8fC&#xD;&#xa;CWbIwsDoxsJFz8PCJkXFwiD7xcIQDsfC8ljIwrDLxMKkeMLClpHEwiqgyMJcjcjC6krGwl50w8Iy&#xD;&#xa;7sXCWv3HwkQ1xsKUwMPC2K/EwootxMJUqMTCH3LDwuojxcKil8fCjmXIwkLJxcID78TClTvGwhel&#xD;&#xa;xsIca8bC1rbCwk6+wsIQfsfCIlPHwpJExcLWhMbCDNvEwuryxMKklMXCeBDDwolhwcIiasLCQYfE&#xD;&#xa;whUfwsJx4MTCsEnIwkX0xcK+3sbCIqLHwrARx8IWtMTCGAnFwomNxMLfbcTCQIPDwjqww8L+MMTC&#xD;&#xa;mqjHwrBaxMI6YsTCxmvIwqyKycKQaMXCnx7FwkYvx8In6sjCGMzIwuvAxcL8a8XCiBjJwkvwyMKI&#xD;&#xa;qMbCTCTIwvQSy8IxEsvCVT/JwrI3w8LA8sLCCD7EwsxXxMJSjsXCfjXFwqTKxMI/gsPCDozDwtwF&#xD;&#xa;xMISn8bChHvJwlFQyMJYCsbCP4jIwtkBycLiFsrCbCrKwvyTysIWncnC+A3HwuI5x8I8/MbC0hHI&#xD;&#xa;wopJzMLmb83CFkvMwpy/y8Kn7MrCfJrJwuLDyMJKn8bCStTGwpb7ycIMo8nCcivFwsapxcJkx8bC&#xD;&#xa;ALLIwriaycJM3cfC8r/KwlSoy8I4A8vCpFHJwkRrzMIKr87CWD7MwsiJycKW9cfCUjbKwq+YycLi&#xD;&#xa;U8jCROHHwhdWycKaU8nCF7jMwmKaz8L//8zC8tjOwjxezsIUysvCzHLJwiJryMLRm8bCgLjKwsi8&#xD;&#xa;ysIhfszCPETLwqtbyMJGeMfCpRPJwnwZzMJSIs3CqhPMwmDiyMLZYsjCz13KwgwKy8LCi8jCyrTM&#xD;&#xa;wgwxzMK4ZcvC087JwkV2xsLyXsnCjIbLwhwvzcLfrM7CeITKwla3ysLK3cnC/PHFwpScxcIUQ8nC&#xD;&#xa;NJzIwrEsxsJvZcfCXSvIwlKLx8JII8nCvgzKwpnhysJSC8vC9iTKwiA/y8IadczCuDrMwuVaysLO&#xD;&#xa;r8vCXtfJwrZ6ycItucnCtonJwjyTysJkC83CL0nMwkjdyMIBucfCixrLwvSDysKGX8nCsCzMwuas&#xD;&#xa;0cIsnNPCuEvOwtr5y8LMBc7Cr+PTwsQc5MLcOfPCKOj0wjr59cJ0C/fCzg75wkwh+8LmVPnCqz72&#xD;&#xa;wnB+9cLuJvrCtEL4wkp7+MLOfffCDN3zwkaz9sLi8vjCFKr6wgIQ+cI8iPjCBpT4wvR1+MLQI/rC&#xD;&#xa;Ihn8wlQg+sIcLvjCVCz2wsI49MJQ9fbC23H3woy69sL4BfnCIOb2wjwy9cIuGvnCdmb3wj7K9MI+&#xD;&#xa;KPXCJpr2wn7C9cKQDvnCthv7woaP+cLGaPbCTr32wrpN+cIFSPjCDvX4wtD39sJY//TCKGf3wvZI&#xD;&#xa;+cK9YvfCgYf3wjIf+sLMMvfCpjz2wuA6+cII8vbCxDv1wmJG9sLka/rCPrT1wi589cLqjfbC9qP4&#xD;&#xa;wgzJ+MLelPbCGir2wlBC9sKeU/jC/nn3wsYn9sL4QPjCXBj5wopQ+MIaJvnCSB36wgjc+MIMfPfC&#xD;&#xa;W+z1wmYG+MKuxPnCCuD1wjh+9sLDrPfCOPj3wm7h+MJjMvfCxH/2wsXf98KwN/nCKOn5wrLR+sKg&#xD;&#xa;bPvCkFv5wsAu+cL2hffCySz2wmRX+MKiiPjCzFX4wvjB98Jgz/fCxPT4wobP+cL8avjC9r34wnKx&#xD;&#xa;+MK+LPnC3H34wle39cKejfbCNKP2wg5B9sK0H/rCSvz2woqE98JAqfjCBPL4wmKi+MIu2/jCMFD5&#xD;&#xa;wiCM+cKo//nCGqz7wlZN+sKUDfjC0ov4wrIU+sIVpffCP2/3woye98KktPbCTJj2wpH29cL3mvbC&#xD;&#xa;jL/4wti/+MLm3vjCQ9QE" leadInLength="0/1"  />
            </Keyframes>
           </Parameter>
           </Parameters>
          </GenericEffect>
          <GenericEffect id="2157" name = "WinCompression" >
           <Parameters>
           <InterpolatingParam id="2158" interp="linr"  time="0/1" value="0" leadInLength="0/1"   name="attack"/>
           <InterpolatingParam id="2159" interp="linr"  time="0/1" value="9" leadInLength="0/1"   name="gain"/>
           <Parameter id="2160"   name="preset">
            <Keyframes>
            <Keyframe id="2161"  time="0/1" value="1" leadInLength="0/1"  />
            </Keyframes>
           </Parameter>
           <InterpolatingParam id="2162" interp="linr"  time="0/1" value="10" leadInLength="0/1"   name="ratio"/>
           <InterpolatingParam id="2163" interp="linr"  time="0/1" value="3500" leadInLength="0/1"   name="release"/>
           <InterpolatingParam id="2164" interp="linr"  time="0/1" value="-20" leadInLength="0/1"   name="threshold"/>
           </Parameters>
          </GenericEffect>
          <GenericEffect id="2165" name = "Declipper" >
           <Parameters>
           <InterpolatingParam id="2166" interp="linr"  time="0/1" value="-1" leadInLength="0/1"   name="sensitivity"/>
           </Parameters>
          </GenericEffect>
          <GenericEffect id="2167" name = "Declicker" >
           <Parameters>
           <InterpolatingParam id="2168" interp="linr"  time="0/1" value="3" leadInLength="0/1"   name="sensitivity"/>
           </Parameters>
          </GenericEffect>
         </Effects>
         <Attributes>
          <Attribute id="2169" value="" name="ident"/>
          <Attribute id="2170" value="0" name="mixToMono"/>
         </Attributes>
         <MetaData>
          <entry key="WinSubProjectDisplayName" val=""/>
         </MetaData>
         <ExtraData>
          <Entry key="ZoomPanBin">
           <ZoomPanBin id="2171"  >
            <ZoomPanKeyframes>
            </ZoomPanKeyframes>
           </ZoomPanBin>
          </Entry>
          <Entry key="CursorEffectBin">
           <CursorEffectBin id="2172"  >
            <CursorEffectKeyframes>
            </CursorEffectKeyframes>
           </CursorEffectBin>
          </Entry>
         </ExtraData>
         <GenericTrack id="2173"  >
          <Attributes>
           <Attribute id="2174" value="" name="ident"/>
           <Attribute id="2175" value="0" name="audioMuted"/>
           <Attribute id="2176" value="0" name="videoHidden"/>
          </Attributes>
          <MetaData>
           <entry key="IsLocked" val="False"/>
           <entry key="WinTrackHeight" val="0"/>
          </MetaData>
          <Medias>
           <AMFile id="2177" start="0" duration="582" scalar="1/1" mediaStart="0/1" mediaDuration="582/1" trackNumber="0" src="22" channelNumber="0" >
            <Parameters>
             <InterpolatingParam id="2178" interp="linr"  time="0/1" value="1" leadInLength="0/1"  name="volume"/>
             <Parameter id="2179"  name="captions"/>
            </Parameters>
            <Attributes>
             <Attribute id="2180" value="" name="ident"/>
             <Attribute id="2181" value="44100" name="sampleRate"/>
             <Attribute id="2182" value="16" name="bitDepth"/>
             <Attribute id="2183" value="1" name="gain"/>
             <Attribute id="2184" value="0" name="mixToMono"/>
            </Attributes>
            <MetaData>
             <entry key="WinSubProjectDisplayName" val=""/>
            </MetaData>
           </AMFile>
           <AMFile id="2185" start="582" duration="908" scalar="1/1" mediaStart="971/1" mediaDuration="908/1" trackNumber="0" src="22" channelNumber="0" >
            <Parameters>
             <InterpolatingParam id="2186" interp="linr"  time="0/1" value="1" leadInLength="0/1"  name="volume"/>
             <Parameter id="2187"  name="captions"/>
            </Parameters>
            <Attributes>
             <Attribute id="2188" value="" name="ident"/>
             <Attribute id="2189" value="44100" name="sampleRate"/>
             <Attribute id="2190" value="16" name="bitDepth"/>
             <Attribute id="2191" value="1" name="gain"/>
             <Attribute id="2192" value="0" name="mixToMono"/>
            </Attributes>
            <MetaData>
             <entry key="WinSubProjectDisplayName" val=""/>
            </MetaData>
           </AMFile>
           <AMFile id="2193" start="1490" duration="165" scalar="1/1" mediaStart="1884/1" mediaDuration="165/1" trackNumber="0" src="22" channelNumber="0" >
            <Parameters>
             <InterpolatingParam id="2194" interp="linr"  time="0/1" value="1" leadInLength="0/1"  name="volume"/>
             <Parameter id="2195"  name="captions"/>
            </Parameters>
            <Attributes>
             <Attribute id="2196" value="" name="ident"/>
             <Attribute id="2197" value="44100" name="sampleRate"/>
             <Attribute id="2198" value="16" name="bitDepth"/>
             <Attribute id="2199" value="1" name="gain"/>
             <Attribute id="2200" value="0" name="mixToMono"/>
            </Attributes>
            <MetaData>
             <entry key="WinSubProjectDisplayName" val=""/>
            </MetaData>
           </AMFile>
           <AMFile id="2201" start="1655" duration="2" scalar="1/1" mediaStart="2164/1" mediaDuration="2/1" trackNumber="0" src="22" channelNumber="0" >
            <Parameters>
             <InterpolatingParam id="2202" interp="linr"  time="0/1" value="1" leadInLength="0/1"  name="volume"/>
             <Parameter id="2203"  name="captions"/>
            </Parameters>
            <Attributes>
             <Attribute id="2204" value="" name="ident"/>
             <Attribute id="2205" value="44100" name="sampleRate"/>
             <Attribute id="2206" value="16" name="bitDepth"/>
             <Attribute id="2207" value="1" name="gain"/>
             <Attribute id="2208" value="0" name="mixToMono"/>
            </Attributes>
            <MetaData>
             <entry key="WinSubProjectDisplayName" val=""/>
            </MetaData>
           </AMFile>
           <AMFile id="2209" start="1657" duration="12072" scalar="1/1" mediaStart="2496/1" mediaDuration="12072/1" trackNumber="0" src="22" channelNumber="0" >
            <Parameters>
             <InterpolatingParam id="2210" interp="linr"  time="0/1" value="1" leadInLength="0/1"  name="volume"/>
             <Parameter id="2211"  name="captions"/>
            </Parameters>
            <Attributes>
             <Attribute id="2212" value="" name="ident"/>
             <Attribute id="2213" value="44100" name="sampleRate"/>
             <Attribute id="2214" value="16" name="bitDepth"/>
             <Attribute id="2215" value="1" name="gain"/>
             <Attribute id="2216" value="0" name="mixToMono"/>
            </Attributes>
            <MetaData>
             <entry key="WinSubProjectDisplayName" val=""/>
            </MetaData>
           </AMFile>
          </Medias>
         </GenericTrack>
        </StitchedMedia>
        <AMFile id="2217" start="1673" duration="200" scalar="1/1" mediaStart="2768/1" mediaDuration="200/1" trackNumber="0" src="22" channelNumber="0" >
         <Parameters>
          <InterpolatingParam id="2218" interp="linr"  name="volume">
           <Keyframes>
           <Keyframe id="2219"  time="0/1" value="1" leadInLength="0/1"  />
           <Keyframe id="2220"  time="2730/1" value="1" leadInLength="0/1"  />
           <Keyframe id="2221"  time="2731/1" value="0.99255583126550895" leadInLength="0/1"  />
           <Keyframe id="2222"  time="2968/1" value="0.99255583126550895" leadInLength="0/1"  />
           <Keyframe id="2223"  time="2969/1" value="1" leadInLength="0/1"  />
           </Keyframes>
          </InterpolatingParam>
          <Parameter id="2224"  name="captions"/>
         </Parameters>
         <Effects>
          <GenericEffect id="2225" name = "NoiseReduction" >
           <Parameters>
           <InterpolatingParam id="2226" interp="linr"  time="0/1" value="20" leadInLength="0/1"   name="denoiserAmount"/>
           <InterpolatingParam id="2227" interp="linr"  time="0/1" value="0" leadInLength="0/1"   name="denoiserThreshold"/>
           <Parameter id="2228"   name="noiseProfile">
            <Keyframes>
            <Keyframe id="2229"  time="0/1" value="FBAAAAIAAABErAAAAQIAADOmYsI/y13CPNeLwsehjcK+No/Cm+aOwlHvjcIja5HCun6XwoKemMJy&#xD;&#xa;lpPCuQeRwhgMlcJGdZvCTjScwgFMncIGh5zCGrOawuO0nMJdJZ3Cybudwo6toMIdraPCs/6jwpY0&#xD;&#xa;psLIUqjCWQmpwonmp8KcE6XCgXGlwqC+psIFHabCBoyownWvqcIkX6jCgnCpwms3qsIW0KfCM7Oj&#xD;&#xa;wnGLosJgcKnCdk6swiIgscKFrbDCtNmowrZmpcIHYqjCCg2pwqUNq8KgHq7ChEGxwhVFs8KU6LLC&#xD;&#xa;dvWzwpVHscI6NrDCMpGwwubcs8Imh7bCPKq6wj7tvMKSbr3ClsG+wq4qwMLXQr7CpAK5whxiuMJp&#xD;&#xa;v7nCwu29wloQvsIXTL3CzjDAwsDTwcL69sHC8urAwtAFwMIkSMLCpJHDwjLOw8JG8sTCmMvDwq7H&#xD;&#xa;wsLOncPC+CDDwkh6wsLU5sPCP23Fwm5Qx8KlYsTCm0XCwnhexcLsTsPCSMPDwjvJw8LMWcHC2XHD&#xD;&#xa;wjj5wsICs8TChWvEwgCywcKDdcHCFnHCwurMxMLlVsTCfrDGwmzqyMKoGsfC7ITIwtqRyMJwzcbC&#xD;&#xa;ppbEwiv5xcIXxsTCzDfCwtSExMKEjcTC8ObDwiJ9yMIQm8vCIkDGwqHyxcIyYcbCyAXIwmyBx8I4&#xD;&#xa;n8PCvyPGwuiKxMJggMfCdL3JwsMhysLi6sXCRa7Ewoykx8Jk/MXC0NfEwtK0xcJQTMTCvvvGwtqJ&#xD;&#xa;xMKmFsTCSbfGwq76x8IQ+sjCsqnIwkJdycIaT8fC0nbHwlf2xsLg/cbCtIHHwsTvxsI0KsbCsqDH&#xD;&#xa;wgLix8JGKcXCyNTDwjDwwsIb98bC6MjJwg6Zy8Kg+cvCaC3HwtIgw8KW7sXC3EHGwmcUxcL++8fC&#xD;&#xa;CWbIwsDoxsJFz8PCJkXFwiD7xcIQDsfC8ljIwrDLxMKkeMLClpHEwiqgyMJcjcjC6krGwl50w8Iy&#xD;&#xa;7sXCWv3HwkQ1xsKUwMPC2K/EwootxMJUqMTCH3LDwuojxcKil8fCjmXIwkLJxcID78TClTvGwhel&#xD;&#xa;xsIca8bC1rbCwk6+wsIQfsfCIlPHwpJExcLWhMbCDNvEwuryxMKklMXCeBDDwolhwcIiasLCQYfE&#xD;&#xa;whUfwsJx4MTCsEnIwkX0xcK+3sbCIqLHwrARx8IWtMTCGAnFwomNxMLfbcTCQIPDwjqww8L+MMTC&#xD;&#xa;mqjHwrBaxMI6YsTCxmvIwqyKycKQaMXCnx7FwkYvx8In6sjCGMzIwuvAxcL8a8XCiBjJwkvwyMKI&#xD;&#xa;qMbCTCTIwvQSy8IxEsvCVT/JwrI3w8LA8sLCCD7EwsxXxMJSjsXCfjXFwqTKxMI/gsPCDozDwtwF&#xD;&#xa;xMISn8bChHvJwlFQyMJYCsbCP4jIwtkBycLiFsrCbCrKwvyTysIWncnC+A3HwuI5x8I8/MbC0hHI&#xD;&#xa;wopJzMLmb83CFkvMwpy/y8Kn7MrCfJrJwuLDyMJKn8bCStTGwpb7ycIMo8nCcivFwsapxcJkx8bC&#xD;&#xa;ALLIwriaycJM3cfC8r/KwlSoy8I4A8vCpFHJwkRrzMIKr87CWD7MwsiJycKW9cfCUjbKwq+YycLi&#xD;&#xa;U8jCROHHwhdWycKaU8nCF7jMwmKaz8L//8zC8tjOwjxezsIUysvCzHLJwiJryMLRm8bCgLjKwsi8&#xD;&#xa;ysIhfszCPETLwqtbyMJGeMfCpRPJwnwZzMJSIs3CqhPMwmDiyMLZYsjCz13KwgwKy8LCi8jCyrTM&#xD;&#xa;wgwxzMK4ZcvC087JwkV2xsLyXsnCjIbLwhwvzcLfrM7CeITKwla3ysLK3cnC/PHFwpScxcIUQ8nC&#xD;&#xa;NJzIwrEsxsJvZcfCXSvIwlKLx8JII8nCvgzKwpnhysJSC8vC9iTKwiA/y8IadczCuDrMwuVaysLO&#xD;&#xa;r8vCXtfJwrZ6ycItucnCtonJwjyTysJkC83CL0nMwkjdyMIBucfCixrLwvSDysKGX8nCsCzMwuas&#xD;&#xa;0cIsnNPCuEvOwtr5y8LMBc7Cr+PTwsQc5MLcOfPCKOj0wjr59cJ0C/fCzg75wkwh+8LmVPnCqz72&#xD;&#xa;wnB+9cLuJvrCtEL4wkp7+MLOfffCDN3zwkaz9sLi8vjCFKr6wgIQ+cI8iPjCBpT4wvR1+MLQI/rC&#xD;&#xa;Ihn8wlQg+sIcLvjCVCz2wsI49MJQ9fbC23H3woy69sL4BfnCIOb2wjwy9cIuGvnCdmb3wj7K9MI+&#xD;&#xa;KPXCJpr2wn7C9cKQDvnCthv7woaP+cLGaPbCTr32wrpN+cIFSPjCDvX4wtD39sJY//TCKGf3wvZI&#xD;&#xa;+cK9YvfCgYf3wjIf+sLMMvfCpjz2wuA6+cII8vbCxDv1wmJG9sLka/rCPrT1wi589cLqjfbC9qP4&#xD;&#xa;wgzJ+MLelPbCGir2wlBC9sKeU/jC/nn3wsYn9sL4QPjCXBj5wopQ+MIaJvnCSB36wgjc+MIMfPfC&#xD;&#xa;W+z1wmYG+MKuxPnCCuD1wjh+9sLDrPfCOPj3wm7h+MJjMvfCxH/2wsXf98KwN/nCKOn5wrLR+sKg&#xD;&#xa;bPvCkFv5wsAu+cL2hffCySz2wmRX+MKiiPjCzFX4wvjB98Jgz/fCxPT4wobP+cL8avjC9r34wnKx&#xD;&#xa;+MK+LPnC3H34wle39cKejfbCNKP2wg5B9sK0H/rCSvz2woqE98JAqfjCBPL4wmKi+MIu2/jCMFD5&#xD;&#xa;wiCM+cKo//nCGqz7wlZN+sKUDfjC0ov4wrIU+sIVpffCP2/3woye98KktPbCTJj2wpH29cL3mvbC&#xD;&#xa;jL/4wti/+MLm3vjCQ9QEwzOmYsI/y13CPNeLwsehjcK+No/Cm+aOwlHvjcIja5HCun6XwoKemMJy&#xD;&#xa;lpPCuQeRwhgMlcJGdZvCTjScwgFMncIGh5zCGrOawuO0nMJdJZ3Cybudwo6toMIdraPCs/6jwpY0&#xD;&#xa;psLIUqjCWQmpwonmp8KcE6XCgXGlwqC+psIFHabCBoyownWvqcIkX6jCgnCpwms3qsIW0KfCM7Oj&#xD;&#xa;wnGLosJgcKnCdk6swiIgscKFrbDCtNmowrZmpcIHYqjCCg2pwqUNq8KgHq7ChEGxwhVFs8KU6LLC&#xD;&#xa;dvWzwpVHscI6NrDCMpGwwubcs8Imh7bCPKq6wj7tvMKSbr3ClsG+wq4qwMLXQr7CpAK5whxiuMJp&#xD;&#xa;v7nCwu29wloQvsIXTL3CzjDAwsDTwcL69sHC8urAwtAFwMIkSMLCpJHDwjLOw8JG8sTCmMvDwq7H&#xD;&#xa;wsLOncPC+CDDwkh6wsLU5sPCP23Fwm5Qx8KlYsTCm0XCwnhexcLsTsPCSMPDwjvJw8LMWcHC2XHD&#xD;&#xa;wjj5wsICs8TChWvEwgCywcKDdcHCFnHCwurMxMLlVsTCfrDGwmzqyMKoGsfC7ITIwtqRyMJwzcbC&#xD;&#xa;ppbEwiv5xcIXxsTCzDfCwtSExMKEjcTC8ObDwiJ9yMIQm8vCIkDGwqHyxcIyYcbCyAXIwmyBx8I4&#xD;&#xa;n8PCvyPGwuiKxMJggMfCdL3JwsMhysLi6sXCRa7Ewoykx8Jk/MXC0NfEwtK0xcJQTMTCvvvGwtqJ&#xD;&#xa;xMKmFsTCSbfGwq76x8IQ+sjCsqnIwkJdycIaT8fC0nbHwlf2xsLg/cbCtIHHwsTvxsI0KsbCsqDH&#xD;&#xa;wgLix8JGKcXCyNTDwjDwwsIb98bC6MjJwg6Zy8Kg+cvCaC3HwtIgw8KW7sXC3EHGwmcUxcL++8fC&#xD;&#xa;CWbIwsDoxsJFz8PCJkXFwiD7xcIQDsfC8ljIwrDLxMKkeMLClpHEwiqgyMJcjcjC6krGwl50w8Iy&#xD;&#xa;7sXCWv3HwkQ1xsKUwMPC2K/EwootxMJUqMTCH3LDwuojxcKil8fCjmXIwkLJxcID78TClTvGwhel&#xD;&#xa;xsIca8bC1rbCwk6+wsIQfsfCIlPHwpJExcLWhMbCDNvEwuryxMKklMXCeBDDwolhwcIiasLCQYfE&#xD;&#xa;whUfwsJx4MTCsEnIwkX0xcK+3sbCIqLHwrARx8IWtMTCGAnFwomNxMLfbcTCQIPDwjqww8L+MMTC&#xD;&#xa;mqjHwrBaxMI6YsTCxmvIwqyKycKQaMXCnx7FwkYvx8In6sjCGMzIwuvAxcL8a8XCiBjJwkvwyMKI&#xD;&#xa;qMbCTCTIwvQSy8IxEsvCVT/JwrI3w8LA8sLCCD7EwsxXxMJSjsXCfjXFwqTKxMI/gsPCDozDwtwF&#xD;&#xa;xMISn8bChHvJwlFQyMJYCsbCP4jIwtkBycLiFsrCbCrKwvyTysIWncnC+A3HwuI5x8I8/MbC0hHI&#xD;&#xa;wopJzMLmb83CFkvMwpy/y8Kn7MrCfJrJwuLDyMJKn8bCStTGwpb7ycIMo8nCcivFwsapxcJkx8bC&#xD;&#xa;ALLIwriaycJM3cfC8r/KwlSoy8I4A8vCpFHJwkRrzMIKr87CWD7MwsiJycKW9cfCUjbKwq+YycLi&#xD;&#xa;U8jCROHHwhdWycKaU8nCF7jMwmKaz8L//8zC8tjOwjxezsIUysvCzHLJwiJryMLRm8bCgLjKwsi8&#xD;&#xa;ysIhfszCPETLwqtbyMJGeMfCpRPJwnwZzMJSIs3CqhPMwmDiyMLZYsjCz13KwgwKy8LCi8jCyrTM&#xD;&#xa;wgwxzMK4ZcvC087JwkV2xsLyXsnCjIbLwhwvzcLfrM7CeITKwla3ysLK3cnC/PHFwpScxcIUQ8nC&#xD;&#xa;NJzIwrEsxsJvZcfCXSvIwlKLx8JII8nCvgzKwpnhysJSC8vC9iTKwiA/y8IadczCuDrMwuVaysLO&#xD;&#xa;r8vCXtfJwrZ6ycItucnCtonJwjyTysJkC83CL0nMwkjdyMIBucfCixrLwvSDysKGX8nCsCzMwuas&#xD;&#xa;0cIsnNPCuEvOwtr5y8LMBc7Cr+PTwsQc5MLcOfPCKOj0wjr59cJ0C/fCzg75wkwh+8LmVPnCqz72&#xD;&#xa;wnB+9cLuJvrCtEL4wkp7+MLOfffCDN3zwkaz9sLi8vjCFKr6wgIQ+cI8iPjCBpT4wvR1+MLQI/rC&#xD;&#xa;Ihn8wlQg+sIcLvjCVCz2wsI49MJQ9fbC23H3woy69sL4BfnCIOb2wjwy9cIuGvnCdmb3wj7K9MI+&#xD;&#xa;KPXCJpr2wn7C9cKQDvnCthv7woaP+cLGaPbCTr32wrpN+cIFSPjCDvX4wtD39sJY//TCKGf3wvZI&#xD;&#xa;+cK9YvfCgYf3wjIf+sLMMvfCpjz2wuA6+cII8vbCxDv1wmJG9sLka/rCPrT1wi589cLqjfbC9qP4&#xD;&#xa;wgzJ+MLelPbCGir2wlBC9sKeU/jC/nn3wsYn9sL4QPjCXBj5wopQ+MIaJvnCSB36wgjc+MIMfPfC&#xD;&#xa;W+z1wmYG+MKuxPnCCuD1wjh+9sLDrPfCOPj3wm7h+MJjMvfCxH/2wsXf98KwN/nCKOn5wrLR+sKg&#xD;&#xa;bPvCkFv5wsAu+cL2hffCySz2wmRX+MKiiPjCzFX4wvjB98Jgz/fCxPT4wobP+cL8avjC9r34wnKx&#xD;&#xa;+MK+LPnC3H34wle39cKejfbCNKP2wg5B9sK0H/rCSvz2woqE98JAqfjCBPL4wmKi+MIu2/jCMFD5&#xD;&#xa;wiCM+cKo//nCGqz7wlZN+sKUDfjC0ov4wrIU+sIVpffCP2/3woye98KktPbCTJj2wpH29cL3mvbC&#xD;&#xa;jL/4wti/+MLm3vjCQ9QE" leadInLength="0/1"  />
            </Keyframes>
           </Parameter>
           </Parameters>
          </GenericEffect>
          <GenericEffect id="2230" name = "WinCompression" >
           <Parameters>
           <InterpolatingParam id="2231" interp="linr"  time="0/1" value="0" leadInLength="0/1"   name="attack"/>
           <InterpolatingParam id="2232" interp="linr"  time="0/1" value="9" leadInLength="0/1"   name="gain"/>
           <Parameter id="2233"   name="preset">
            <Keyframes>
            <Keyframe id="2234"  time="0/1" value="1" leadInLength="0/1"  />
            </Keyframes>
           </Parameter>
           <InterpolatingParam id="2235" interp="linr"  time="0/1" value="10" leadInLength="0/1"   name="ratio"/>
           <InterpolatingParam id="2236" interp="linr"  time="0/1" value="3500" leadInLength="0/1"   name="release"/>
           <InterpolatingParam id="2237" interp="linr"  time="0/1" value="-20" leadInLength="0/1"   name="threshold"/>
           </Parameters>
          </GenericEffect>
          <GenericEffect id="2238" name = "Declipper" >
           <Parameters>
           <InterpolatingParam id="2239" interp="linr"  time="0/1" value="-1" leadInLength="0/1"   name="sensitivity"/>
           </Parameters>
          </GenericEffect>
          <GenericEffect id="2240" name = "Declicker" >
           <Parameters>
           <InterpolatingParam id="2241" interp="linr"  time="0/1" value="3" leadInLength="0/1"   name="sensitivity"/>
           </Parameters>
          </GenericEffect>
         </Effects>
         <Attributes>
          <Attribute id="2242" value="" name="ident"/>
          <Attribute id="2243" value="44100" name="sampleRate"/>
          <Attribute id="2244" value="16" name="bitDepth"/>
          <Attribute id="2245" value="1" name="gain"/>
          <Attribute id="2246" value="0" name="mixToMono"/>
         </Attributes>
         <MetaData>
          <entry key="WinSubProjectDisplayName" val=""/>
         </MetaData>
        </AMFile>
        <StitchedMedia id="2247" start="1880" duration="59" scalar="1/1" mediaStart="3302/1" mediaDuration="59/1" minMediaStart="0/1" >
         <Transformer>
          <VectorParam id="2248"  name="translation">
           <InterpolatingParam id="2249" interp="linr"  time="0/1" value="0" leadInLength="0/1"  />
           <InterpolatingParam id="2250" interp="linr"  time="0/1" value="0" leadInLength="0/1"  />
           <InterpolatingParam id="2251" interp="linr"  time="0/1" value="0" leadInLength="0/1"  />
          </VectorParam>
          <VectorParam id="2252"  name="rotation">
           <InterpolatingParam id="2253" interp="linr"  time="0/1" value="0" leadInLength="0/1"  />
           <InterpolatingParam id="2254" interp="linr"  time="0/1" value="0" leadInLength="0/1"  />
           <InterpolatingParam id="2255" interp="linr"  time="0/1" value="0" leadInLength="0/1"  />
          </VectorParam>
          <VectorParam id="2256"  name="shear">
           <InterpolatingParam id="2257" interp="linr"  time="0/1" value="0" leadInLength="0/1"  />
           <InterpolatingParam id="2258" interp="linr"  time="0/1" value="0" leadInLength="0/1"  />
           <InterpolatingParam id="2259" interp="linr"  time="0/1" value="0" leadInLength="0/1"  />
          </VectorParam>
          <VectorParam id="2260"  name="scale">
           <InterpolatingParam id="2261" interp="linr"  time="0/1" value="1" leadInLength="0/1"  />
           <InterpolatingParam id="2262" interp="linr"  time="0/1" value="1" leadInLength="0/1"  />
           <InterpolatingParam id="2263" interp="linr"  time="0/1" value="1" leadInLength="0/1"  />
          </VectorParam>
          <VectorParam id="2264"  name="anchor">
           <InterpolatingParam id="2265" interp="linr"  time="0/1" value="0" leadInLength="0/1"  />
           <InterpolatingParam id="2266" interp="linr"  time="0/1" value="0" leadInLength="0/1"  />
           <InterpolatingParam id="2267" interp="linr"  time="0/1" value="0" leadInLength="0/1"  />
          </VectorParam>
         </Transformer>
         <Parameters>
          <InterpolatingParam id="2268" interp="linr"  time="0/1" value="1" leadInLength="0/1"  name="cursorOpacity"/>
          <InterpolatingParam id="2269" interp="linr"  time="0/1" value="1" leadInLength="0/1"  name="cursorScale"/>
          <InterpolatingParam id="2270" interp="linr"  name="volume">
           <Keyframes>
           <Keyframe id="2271"  time="0/1" value="1" leadInLength="0/1"  />
           <Keyframe id="2272"  time="3301/1" value="1" leadInLength="0/1"  />
           <Keyframe id="2273"  time="3302/1" value="0.33498759305210879" leadInLength="0/1"  />
           <Keyframe id="2274"  time="3323/1" value="0.90430743780619693" leadInLength="0/1"  />
           <Keyframe id="2275"  time="3347/1" value="1.4055299539170498" leadInLength="0/1"  />
           <Keyframe id="2276"  time="13691/1" value="1.2211981566820271" leadInLength="0/1"  />
           <Keyframe id="2277"  time="13692/1" value="1" leadInLength="0/1"  />
           </Keyframes>
          </InterpolatingParam>
          <Parameter id="2278"  name="captions"/>
         </Parameters>
         <Effects>
          <GenericEffect id="2279" name = "NoiseReduction" >
           <Parameters>
           <InterpolatingParam id="2280" interp="linr"  time="0/1" value="20" leadInLength="0/1"   name="denoiserAmount"/>
           <InterpolatingParam id="2281" interp="linr"  time="0/1" value="0" leadInLength="0/1"   name="denoiserThreshold"/>
           <Parameter id="2282"   name="noiseProfile">
            <Keyframes>
            <Keyframe id="2283"  time="0/1" value="FBAAAAIAAABErAAAAQIAADOmYsI/y13CPNeLwsehjcK+No/Cm+aOwlHvjcIja5HCun6XwoKemMJy&#xD;&#xa;lpPCuQeRwhgMlcJGdZvCTjScwgFMncIGh5zCGrOawuO0nMJdJZ3Cybudwo6toMIdraPCs/6jwpY0&#xD;&#xa;psLIUqjCWQmpwonmp8KcE6XCgXGlwqC+psIFHabCBoyownWvqcIkX6jCgnCpwms3qsIW0KfCM7Oj&#xD;&#xa;wnGLosJgcKnCdk6swiIgscKFrbDCtNmowrZmpcIHYqjCCg2pwqUNq8KgHq7ChEGxwhVFs8KU6LLC&#xD;&#xa;dvWzwpVHscI6NrDCMpGwwubcs8Imh7bCPKq6wj7tvMKSbr3ClsG+wq4qwMLXQr7CpAK5whxiuMJp&#xD;&#xa;v7nCwu29wloQvsIXTL3CzjDAwsDTwcL69sHC8urAwtAFwMIkSMLCpJHDwjLOw8JG8sTCmMvDwq7H&#xD;&#xa;wsLOncPC+CDDwkh6wsLU5sPCP23Fwm5Qx8KlYsTCm0XCwnhexcLsTsPCSMPDwjvJw8LMWcHC2XHD&#xD;&#xa;wjj5wsICs8TChWvEwgCywcKDdcHCFnHCwurMxMLlVsTCfrDGwmzqyMKoGsfC7ITIwtqRyMJwzcbC&#xD;&#xa;ppbEwiv5xcIXxsTCzDfCwtSExMKEjcTC8ObDwiJ9yMIQm8vCIkDGwqHyxcIyYcbCyAXIwmyBx8I4&#xD;&#xa;n8PCvyPGwuiKxMJggMfCdL3JwsMhysLi6sXCRa7Ewoykx8Jk/MXC0NfEwtK0xcJQTMTCvvvGwtqJ&#xD;&#xa;xMKmFsTCSbfGwq76x8IQ+sjCsqnIwkJdycIaT8fC0nbHwlf2xsLg/cbCtIHHwsTvxsI0KsbCsqDH&#xD;&#xa;wgLix8JGKcXCyNTDwjDwwsIb98bC6MjJwg6Zy8Kg+cvCaC3HwtIgw8KW7sXC3EHGwmcUxcL++8fC&#xD;&#xa;CWbIwsDoxsJFz8PCJkXFwiD7xcIQDsfC8ljIwrDLxMKkeMLClpHEwiqgyMJcjcjC6krGwl50w8Iy&#xD;&#xa;7sXCWv3HwkQ1xsKUwMPC2K/EwootxMJUqMTCH3LDwuojxcKil8fCjmXIwkLJxcID78TClTvGwhel&#xD;&#xa;xsIca8bC1rbCwk6+wsIQfsfCIlPHwpJExcLWhMbCDNvEwuryxMKklMXCeBDDwolhwcIiasLCQYfE&#xD;&#xa;whUfwsJx4MTCsEnIwkX0xcK+3sbCIqLHwrARx8IWtMTCGAnFwomNxMLfbcTCQIPDwjqww8L+MMTC&#xD;&#xa;mqjHwrBaxMI6YsTCxmvIwqyKycKQaMXCnx7FwkYvx8In6sjCGMzIwuvAxcL8a8XCiBjJwkvwyMKI&#xD;&#xa;qMbCTCTIwvQSy8IxEsvCVT/JwrI3w8LA8sLCCD7EwsxXxMJSjsXCfjXFwqTKxMI/gsPCDozDwtwF&#xD;&#xa;xMISn8bChHvJwlFQyMJYCsbCP4jIwtkBycLiFsrCbCrKwvyTysIWncnC+A3HwuI5x8I8/MbC0hHI&#xD;&#xa;wopJzMLmb83CFkvMwpy/y8Kn7MrCfJrJwuLDyMJKn8bCStTGwpb7ycIMo8nCcivFwsapxcJkx8bC&#xD;&#xa;ALLIwriaycJM3cfC8r/KwlSoy8I4A8vCpFHJwkRrzMIKr87CWD7MwsiJycKW9cfCUjbKwq+YycLi&#xD;&#xa;U8jCROHHwhdWycKaU8nCF7jMwmKaz8L//8zC8tjOwjxezsIUysvCzHLJwiJryMLRm8bCgLjKwsi8&#xD;&#xa;ysIhfszCPETLwqtbyMJGeMfCpRPJwnwZzMJSIs3CqhPMwmDiyMLZYsjCz13KwgwKy8LCi8jCyrTM&#xD;&#xa;wgwxzMK4ZcvC087JwkV2xsLyXsnCjIbLwhwvzcLfrM7CeITKwla3ysLK3cnC/PHFwpScxcIUQ8nC&#xD;&#xa;NJzIwrEsxsJvZcfCXSvIwlKLx8JII8nCvgzKwpnhysJSC8vC9iTKwiA/y8IadczCuDrMwuVaysLO&#xD;&#xa;r8vCXtfJwrZ6ycItucnCtonJwjyTysJkC83CL0nMwkjdyMIBucfCixrLwvSDysKGX8nCsCzMwuas&#xD;&#xa;0cIsnNPCuEvOwtr5y8LMBc7Cr+PTwsQc5MLcOfPCKOj0wjr59cJ0C/fCzg75wkwh+8LmVPnCqz72&#xD;&#xa;wnB+9cLuJvrCtEL4wkp7+MLOfffCDN3zwkaz9sLi8vjCFKr6wgIQ+cI8iPjCBpT4wvR1+MLQI/rC&#xD;&#xa;Ihn8wlQg+sIcLvjCVCz2wsI49MJQ9fbC23H3woy69sL4BfnCIOb2wjwy9cIuGvnCdmb3wj7K9MI+&#xD;&#xa;KPXCJpr2wn7C9cKQDvnCthv7woaP+cLGaPbCTr32wrpN+cIFSPjCDvX4wtD39sJY//TCKGf3wvZI&#xD;&#xa;+cK9YvfCgYf3wjIf+sLMMvfCpjz2wuA6+cII8vbCxDv1wmJG9sLka/rCPrT1wi589cLqjfbC9qP4&#xD;&#xa;wgzJ+MLelPbCGir2wlBC9sKeU/jC/nn3wsYn9sL4QPjCXBj5wopQ+MIaJvnCSB36wgjc+MIMfPfC&#xD;&#xa;W+z1wmYG+MKuxPnCCuD1wjh+9sLDrPfCOPj3wm7h+MJjMvfCxH/2wsXf98KwN/nCKOn5wrLR+sKg&#xD;&#xa;bPvCkFv5wsAu+cL2hffCySz2wmRX+MKiiPjCzFX4wvjB98Jgz/fCxPT4wobP+cL8avjC9r34wnKx&#xD;&#xa;+MK+LPnC3H34wle39cKejfbCNKP2wg5B9sK0H/rCSvz2woqE98JAqfjCBPL4wmKi+MIu2/jCMFD5&#xD;&#xa;wiCM+cKo//nCGqz7wlZN+sKUDfjC0ov4wrIU+sIVpffCP2/3woye98KktPbCTJj2wpH29cL3mvbC&#xD;&#xa;jL/4wti/+MLm3vjCQ9QEwzOmYsI/y13CPNeLwsehjcK+No/Cm+aOwlHvjcIja5HCun6XwoKemMJy&#xD;&#xa;lpPCuQeRwhgMlcJGdZvCTjScwgFMncIGh5zCGrOawuO0nMJdJZ3Cybudwo6toMIdraPCs/6jwpY0&#xD;&#xa;psLIUqjCWQmpwonmp8KcE6XCgXGlwqC+psIFHabCBoyownWvqcIkX6jCgnCpwms3qsIW0KfCM7Oj&#xD;&#xa;wnGLosJgcKnCdk6swiIgscKFrbDCtNmowrZmpcIHYqjCCg2pwqUNq8KgHq7ChEGxwhVFs8KU6LLC&#xD;&#xa;dvWzwpVHscI6NrDCMpGwwubcs8Imh7bCPKq6wj7tvMKSbr3ClsG+wq4qwMLXQr7CpAK5whxiuMJp&#xD;&#xa;v7nCwu29wloQvsIXTL3CzjDAwsDTwcL69sHC8urAwtAFwMIkSMLCpJHDwjLOw8JG8sTCmMvDwq7H&#xD;&#xa;wsLOncPC+CDDwkh6wsLU5sPCP23Fwm5Qx8KlYsTCm0XCwnhexcLsTsPCSMPDwjvJw8LMWcHC2XHD&#xD;&#xa;wjj5wsICs8TChWvEwgCywcKDdcHCFnHCwurMxMLlVsTCfrDGwmzqyMKoGsfC7ITIwtqRyMJwzcbC&#xD;&#xa;ppbEwiv5xcIXxsTCzDfCwtSExMKEjcTC8ObDwiJ9yMIQm8vCIkDGwqHyxcIyYcbCyAXIwmyBx8I4&#xD;&#xa;n8PCvyPGwuiKxMJggMfCdL3JwsMhysLi6sXCRa7Ewoykx8Jk/MXC0NfEwtK0xcJQTMTCvvvGwtqJ&#xD;&#xa;xMKmFsTCSbfGwq76x8IQ+sjCsqnIwkJdycIaT8fC0nbHwlf2xsLg/cbCtIHHwsTvxsI0KsbCsqDH&#xD;&#xa;wgLix8JGKcXCyNTDwjDwwsIb98bC6MjJwg6Zy8Kg+cvCaC3HwtIgw8KW7sXC3EHGwmcUxcL++8fC&#xD;&#xa;CWbIwsDoxsJFz8PCJkXFwiD7xcIQDsfC8ljIwrDLxMKkeMLClpHEwiqgyMJcjcjC6krGwl50w8Iy&#xD;&#xa;7sXCWv3HwkQ1xsKUwMPC2K/EwootxMJUqMTCH3LDwuojxcKil8fCjmXIwkLJxcID78TClTvGwhel&#xD;&#xa;xsIca8bC1rbCwk6+wsIQfsfCIlPHwpJExcLWhMbCDNvEwuryxMKklMXCeBDDwolhwcIiasLCQYfE&#xD;&#xa;whUfwsJx4MTCsEnIwkX0xcK+3sbCIqLHwrARx8IWtMTCGAnFwomNxMLfbcTCQIPDwjqww8L+MMTC&#xD;&#xa;mqjHwrBaxMI6YsTCxmvIwqyKycKQaMXCnx7FwkYvx8In6sjCGMzIwuvAxcL8a8XCiBjJwkvwyMKI&#xD;&#xa;qMbCTCTIwvQSy8IxEsvCVT/JwrI3w8LA8sLCCD7EwsxXxMJSjsXCfjXFwqTKxMI/gsPCDozDwtwF&#xD;&#xa;xMISn8bChHvJwlFQyMJYCsbCP4jIwtkBycLiFsrCbCrKwvyTysIWncnC+A3HwuI5x8I8/MbC0hHI&#xD;&#xa;wopJzMLmb83CFkvMwpy/y8Kn7MrCfJrJwuLDyMJKn8bCStTGwpb7ycIMo8nCcivFwsapxcJkx8bC&#xD;&#xa;ALLIwriaycJM3cfC8r/KwlSoy8I4A8vCpFHJwkRrzMIKr87CWD7MwsiJycKW9cfCUjbKwq+YycLi&#xD;&#xa;U8jCROHHwhdWycKaU8nCF7jMwmKaz8L//8zC8tjOwjxezsIUysvCzHLJwiJryMLRm8bCgLjKwsi8&#xD;&#xa;ysIhfszCPETLwqtbyMJGeMfCpRPJwnwZzMJSIs3CqhPMwmDiyMLZYsjCz13KwgwKy8LCi8jCyrTM&#xD;&#xa;wgwxzMK4ZcvC087JwkV2xsLyXsnCjIbLwhwvzcLfrM7CeITKwla3ysLK3cnC/PHFwpScxcIUQ8nC&#xD;&#xa;NJzIwrEsxsJvZcfCXSvIwlKLx8JII8nCvgzKwpnhysJSC8vC9iTKwiA/y8IadczCuDrMwuVaysLO&#xD;&#xa;r8vCXtfJwrZ6ycItucnCtonJwjyTysJkC83CL0nMwkjdyMIBucfCixrLwvSDysKGX8nCsCzMwuas&#xD;&#xa;0cIsnNPCuEvOwtr5y8LMBc7Cr+PTwsQc5MLcOfPCKOj0wjr59cJ0C/fCzg75wkwh+8LmVPnCqz72&#xD;&#xa;wnB+9cLuJvrCtEL4wkp7+MLOfffCDN3zwkaz9sLi8vjCFKr6wgIQ+cI8iPjCBpT4wvR1+MLQI/rC&#xD;&#xa;Ihn8wlQg+sIcLvjCVCz2wsI49MJQ9fbC23H3woy69sL4BfnCIOb2wjwy9cIuGvnCdmb3wj7K9MI+&#xD;&#xa;KPXCJpr2wn7C9cKQDvnCthv7woaP+cLGaPbCTr32wrpN+cIFSPjCDvX4wtD39sJY//TCKGf3wvZI&#xD;&#xa;+cK9YvfCgYf3wjIf+sLMMvfCpjz2wuA6+cII8vbCxDv1wmJG9sLka/rCPrT1wi589cLqjfbC9qP4&#xD;&#xa;wgzJ+MLelPbCGir2wlBC9sKeU/jC/nn3wsYn9sL4QPjCXBj5wopQ+MIaJvnCSB36wgjc+MIMfPfC&#xD;&#xa;W+z1wmYG+MKuxPnCCuD1wjh+9sLDrPfCOPj3wm7h+MJjMvfCxH/2wsXf98KwN/nCKOn5wrLR+sKg&#xD;&#xa;bPvCkFv5wsAu+cL2hffCySz2wmRX+MKiiPjCzFX4wvjB98Jgz/fCxPT4wobP+cL8avjC9r34wnKx&#xD;&#xa;+MK+LPnC3H34wle39cKejfbCNKP2wg5B9sK0H/rCSvz2woqE98JAqfjCBPL4wmKi+MIu2/jCMFD5&#xD;&#xa;wiCM+cKo//nCGqz7wlZN+sKUDfjC0ov4wrIU+sIVpffCP2/3woye98KktPbCTJj2wpH29cL3mvbC&#xD;&#xa;jL/4wti/+MLm3vjCQ9QE" leadInLength="0/1"  />
            </Keyframes>
           </Parameter>
           </Parameters>
          </GenericEffect>
          <GenericEffect id="2284" name = "WinCompression" >
           <Parameters>
           <InterpolatingParam id="2285" interp="linr"  time="0/1" value="0" leadInLength="0/1"   name="attack"/>
           <InterpolatingParam id="2286" interp="linr"  time="0/1" value="9" leadInLength="0/1"   name="gain"/>
           <Parameter id="2287"   name="preset">
            <Keyframes>
            <Keyframe id="2288"  time="0/1" value="1" leadInLength="0/1"  />
            </Keyframes>
           </Parameter>
           <InterpolatingParam id="2289" interp="linr"  time="0/1" value="10" leadInLength="0/1"   name="ratio"/>
           <InterpolatingParam id="2290" interp="linr"  time="0/1" value="3500" leadInLength="0/1"   name="release"/>
           <InterpolatingParam id="2291" interp="linr"  time="0/1" value="-20" leadInLength="0/1"   name="threshold"/>
           </Parameters>
          </GenericEffect>
          <GenericEffect id="2292" name = "Declipper" >
           <Parameters>
           <InterpolatingParam id="2293" interp="linr"  time="0/1" value="-1" leadInLength="0/1"   name="sensitivity"/>
           </Parameters>
          </GenericEffect>
          <GenericEffect id="2294" name = "Declicker" >
           <Parameters>
           <InterpolatingParam id="2295" interp="linr"  time="0/1" value="3" leadInLength="0/1"   name="sensitivity"/>
           </Parameters>
          </GenericEffect>
         </Effects>
         <Attributes>
          <Attribute id="2296" value="" name="ident"/>
          <Attribute id="2297" value="0" name="mixToMono"/>
         </Attributes>
         <MetaData>
          <entry key="WinSubProjectDisplayName" val=""/>
         </MetaData>
         <ExtraData>
          <Entry key="ZoomPanBin">
           <ZoomPanBin id="2298"  >
            <ZoomPanKeyframes>
            </ZoomPanKeyframes>
           </ZoomPanBin>
          </Entry>
          <Entry key="CursorEffectBin">
           <CursorEffectBin id="2299"  >
            <CursorEffectKeyframes>
            </CursorEffectKeyframes>
           </CursorEffectBin>
          </Entry>
         </ExtraData>
         <GenericTrack id="2300"  >
          <Attributes>
           <Attribute id="2301" value="" name="ident"/>
           <Attribute id="2302" value="0" name="audioMuted"/>
           <Attribute id="2303" value="0" name="videoHidden"/>
          </Attributes>
          <MetaData>
           <entry key="IsLocked" val="False"/>
           <entry key="WinTrackHeight" val="0"/>
          </MetaData>
          <Medias>
           <AMFile id="2304" start="0" duration="4896" scalar="1/1" mediaStart="0/1" mediaDuration="4896/1" trackNumber="0" src="22" channelNumber="0" >
            <Parameters>
             <InterpolatingParam id="2305" interp="linr"  time="0/1" value="1" leadInLength="0/1"  name="volume"/>
             <Parameter id="2306"  name="captions"/>
            </Parameters>
            <Attributes>
             <Attribute id="2307" value="" name="ident"/>
             <Attribute id="2308" value="44100" name="sampleRate"/>
             <Attribute id="2309" value="16" name="bitDepth"/>
             <Attribute id="2310" value="1" name="gain"/>
             <Attribute id="2311" value="0" name="mixToMono"/>
            </Attributes>
            <MetaData>
             <entry key="WinSubProjectDisplayName" val=""/>
            </MetaData>
           </AMFile>
           <AMFile id="2312" start="4896" duration="411" scalar="1/1" mediaStart="4989/1" mediaDuration="411/1" trackNumber="0" src="22" channelNumber="0" >
            <Parameters>
             <InterpolatingParam id="2313" interp="linr"  time="0/1" value="1" leadInLength="0/1"  name="volume"/>
             <Parameter id="2314"  name="captions"/>
            </Parameters>
            <Attributes>
             <Attribute id="2315" value="" name="ident"/>
             <Attribute id="2316" value="44100" name="sampleRate"/>
             <Attribute id="2317" value="16" name="bitDepth"/>
             <Attribute id="2318" value="1" name="gain"/>
             <Attribute id="2319" value="0" name="mixToMono"/>
            </Attributes>
            <MetaData>
             <entry key="WinSubProjectDisplayName" val=""/>
            </MetaData>
           </AMFile>
           <AMFile id="2320" start="5307" duration="1270" scalar="1/1" mediaStart="5956/1" mediaDuration="1270/1" trackNumber="0" src="22" channelNumber="0" >
            <Parameters>
             <InterpolatingParam id="2321" interp="linr"  time="0/1" value="1" leadInLength="0/1"  name="volume"/>
             <Parameter id="2322"  name="captions"/>
            </Parameters>
            <Attributes>
             <Attribute id="2323" value="" name="ident"/>
             <Attribute id="2324" value="44100" name="sampleRate"/>
             <Attribute id="2325" value="16" name="bitDepth"/>
             <Attribute id="2326" value="1" name="gain"/>
             <Attribute id="2327" value="0" name="mixToMono"/>
            </Attributes>
            <MetaData>
             <entry key="WinSubProjectDisplayName" val=""/>
            </MetaData>
           </AMFile>
           <AMFile id="2328" start="6577" duration="7114" scalar="1/1" mediaStart="7454/1" mediaDuration="7114/1" trackNumber="0" src="22" channelNumber="0" >
            <Parameters>
             <InterpolatingParam id="2329" interp="linr"  time="0/1" value="1" leadInLength="0/1"  name="volume"/>
             <Parameter id="2330"  name="captions"/>
            </Parameters>
            <Attributes>
             <Attribute id="2331" value="" name="ident"/>
             <Attribute id="2332" value="44100" name="sampleRate"/>
             <Attribute id="2333" value="16" name="bitDepth"/>
             <Attribute id="2334" value="1" name="gain"/>
             <Attribute id="2335" value="0" name="mixToMono"/>
            </Attributes>
            <MetaData>
             <entry key="WinSubProjectDisplayName" val=""/>
            </MetaData>
           </AMFile>
          </Medias>
         </GenericTrack>
        </StitchedMedia>
        <StitchedMedia id="2336" start="1939" duration="139" scalar="1/1" mediaStart="3361/1" mediaDuration="139/1" minMediaStart="0/1" >
         <Transformer>
          <VectorParam id="2337"  name="translation">
           <InterpolatingParam id="2338" interp="linr"  time="0/1" value="0" leadInLength="0/1"  />
           <InterpolatingParam id="2339" interp="linr"  time="0/1" value="0" leadInLength="0/1"  />
           <InterpolatingParam id="2340" interp="linr"  time="0/1" value="0" leadInLength="0/1"  />
          </VectorParam>
          <VectorParam id="2341"  name="rotation">
           <InterpolatingParam id="2342" interp="linr"  time="0/1" value="0" leadInLength="0/1"  />
           <InterpolatingParam id="2343" interp="linr"  time="0/1" value="0" leadInLength="0/1"  />
           <InterpolatingParam id="2344" interp="linr"  time="0/1" value="0" leadInLength="0/1"  />
          </VectorParam>
          <VectorParam id="2345"  name="shear">
           <InterpolatingParam id="2346" interp="linr"  time="0/1" value="0" leadInLength="0/1"  />
           <InterpolatingParam id="2347" interp="linr"  time="0/1" value="0" leadInLength="0/1"  />
           <InterpolatingParam id="2348" interp="linr"  time="0/1" value="0" leadInLength="0/1"  />
          </VectorParam>
          <VectorParam id="2349"  name="scale">
           <InterpolatingParam id="2350" interp="linr"  time="0/1" value="1" leadInLength="0/1"  />
           <InterpolatingParam id="2351" interp="linr"  time="0/1" value="1" leadInLength="0/1"  />
           <InterpolatingParam id="2352" interp="linr"  time="0/1" value="1" leadInLength="0/1"  />
          </VectorParam>
          <VectorParam id="2353"  name="anchor">
           <InterpolatingParam id="2354" interp="linr"  time="0/1" value="0" leadInLength="0/1"  />
           <InterpolatingParam id="2355" interp="linr"  time="0/1" value="0" leadInLength="0/1"  />
           <InterpolatingParam id="2356" interp="linr"  time="0/1" value="0" leadInLength="0/1"  />
          </VectorParam>
         </Transformer>
         <Parameters>
          <InterpolatingParam id="2357" interp="linr"  time="0/1" value="1" leadInLength="0/1"  name="cursorOpacity"/>
          <InterpolatingParam id="2358" interp="linr"  time="0/1" value="1" leadInLength="0/1"  name="cursorScale"/>
          <InterpolatingParam id="2359" interp="linr"  name="volume">
           <Keyframes>
           <Keyframe id="2360"  time="0/1" value="1" leadInLength="0/1"  />
           <Keyframe id="2361"  time="3301/1" value="1" leadInLength="0/1"  />
           <Keyframe id="2362"  time="3302/1" value="0.99255583126550873" leadInLength="0/1"  />
           <Keyframe id="2363"  time="13691/1" value="0.99255583126550873" leadInLength="0/1"  />
           <Keyframe id="2364"  time="13692/1" value="1" leadInLength="0/1"  />
           </Keyframes>
          </InterpolatingParam>
          <Parameter id="2365"  name="captions"/>
         </Parameters>
         <Effects>
          <GenericEffect id="2366" name = "NoiseReduction" >
           <Parameters>
           <InterpolatingParam id="2367" interp="linr"  time="0/1" value="20" leadInLength="0/1"   name="denoiserAmount"/>
           <InterpolatingParam id="2368" interp="linr"  time="0/1" value="0" leadInLength="0/1"   name="denoiserThreshold"/>
           <Parameter id="2369"   name="noiseProfile">
            <Keyframes>
            <Keyframe id="2370"  time="0/1" value="FBAAAAIAAABErAAAAQIAADOmYsI/y13CPNeLwsehjcK+No/Cm+aOwlHvjcIja5HCun6XwoKemMJy&#xD;&#xa;lpPCuQeRwhgMlcJGdZvCTjScwgFMncIGh5zCGrOawuO0nMJdJZ3Cybudwo6toMIdraPCs/6jwpY0&#xD;&#xa;psLIUqjCWQmpwonmp8KcE6XCgXGlwqC+psIFHabCBoyownWvqcIkX6jCgnCpwms3qsIW0KfCM7Oj&#xD;&#xa;wnGLosJgcKnCdk6swiIgscKFrbDCtNmowrZmpcIHYqjCCg2pwqUNq8KgHq7ChEGxwhVFs8KU6LLC&#xD;&#xa;dvWzwpVHscI6NrDCMpGwwubcs8Imh7bCPKq6wj7tvMKSbr3ClsG+wq4qwMLXQr7CpAK5whxiuMJp&#xD;&#xa;v7nCwu29wloQvsIXTL3CzjDAwsDTwcL69sHC8urAwtAFwMIkSMLCpJHDwjLOw8JG8sTCmMvDwq7H&#xD;&#xa;wsLOncPC+CDDwkh6wsLU5sPCP23Fwm5Qx8KlYsTCm0XCwnhexcLsTsPCSMPDwjvJw8LMWcHC2XHD&#xD;&#xa;wjj5wsICs8TChWvEwgCywcKDdcHCFnHCwurMxMLlVsTCfrDGwmzqyMKoGsfC7ITIwtqRyMJwzcbC&#xD;&#xa;ppbEwiv5xcIXxsTCzDfCwtSExMKEjcTC8ObDwiJ9yMIQm8vCIkDGwqHyxcIyYcbCyAXIwmyBx8I4&#xD;&#xa;n8PCvyPGwuiKxMJggMfCdL3JwsMhysLi6sXCRa7Ewoykx8Jk/MXC0NfEwtK0xcJQTMTCvvvGwtqJ&#xD;&#xa;xMKmFsTCSbfGwq76x8IQ+sjCsqnIwkJdycIaT8fC0nbHwlf2xsLg/cbCtIHHwsTvxsI0KsbCsqDH&#xD;&#xa;wgLix8JGKcXCyNTDwjDwwsIb98bC6MjJwg6Zy8Kg+cvCaC3HwtIgw8KW7sXC3EHGwmcUxcL++8fC&#xD;&#xa;CWbIwsDoxsJFz8PCJkXFwiD7xcIQDsfC8ljIwrDLxMKkeMLClpHEwiqgyMJcjcjC6krGwl50w8Iy&#xD;&#xa;7sXCWv3HwkQ1xsKUwMPC2K/EwootxMJUqMTCH3LDwuojxcKil8fCjmXIwkLJxcID78TClTvGwhel&#xD;&#xa;xsIca8bC1rbCwk6+wsIQfsfCIlPHwpJExcLWhMbCDNvEwuryxMKklMXCeBDDwolhwcIiasLCQYfE&#xD;&#xa;whUfwsJx4MTCsEnIwkX0xcK+3sbCIqLHwrARx8IWtMTCGAnFwomNxMLfbcTCQIPDwjqww8L+MMTC&#xD;&#xa;mqjHwrBaxMI6YsTCxmvIwqyKycKQaMXCnx7FwkYvx8In6sjCGMzIwuvAxcL8a8XCiBjJwkvwyMKI&#xD;&#xa;qMbCTCTIwvQSy8IxEsvCVT/JwrI3w8LA8sLCCD7EwsxXxMJSjsXCfjXFwqTKxMI/gsPCDozDwtwF&#xD;&#xa;xMISn8bChHvJwlFQyMJYCsbCP4jIwtkBycLiFsrCbCrKwvyTysIWncnC+A3HwuI5x8I8/MbC0hHI&#xD;&#xa;wopJzMLmb83CFkvMwpy/y8Kn7MrCfJrJwuLDyMJKn8bCStTGwpb7ycIMo8nCcivFwsapxcJkx8bC&#xD;&#xa;ALLIwriaycJM3cfC8r/KwlSoy8I4A8vCpFHJwkRrzMIKr87CWD7MwsiJycKW9cfCUjbKwq+YycLi&#xD;&#xa;U8jCROHHwhdWycKaU8nCF7jMwmKaz8L//8zC8tjOwjxezsIUysvCzHLJwiJryMLRm8bCgLjKwsi8&#xD;&#xa;ysIhfszCPETLwqtbyMJGeMfCpRPJwnwZzMJSIs3CqhPMwmDiyMLZYsjCz13KwgwKy8LCi8jCyrTM&#xD;&#xa;wgwxzMK4ZcvC087JwkV2xsLyXsnCjIbLwhwvzcLfrM7CeITKwla3ysLK3cnC/PHFwpScxcIUQ8nC&#xD;&#xa;NJzIwrEsxsJvZcfCXSvIwlKLx8JII8nCvgzKwpnhysJSC8vC9iTKwiA/y8IadczCuDrMwuVaysLO&#xD;&#xa;r8vCXtfJwrZ6ycItucnCtonJwjyTysJkC83CL0nMwkjdyMIBucfCixrLwvSDysKGX8nCsCzMwuas&#xD;&#xa;0cIsnNPCuEvOwtr5y8LMBc7Cr+PTwsQc5MLcOfPCKOj0wjr59cJ0C/fCzg75wkwh+8LmVPnCqz72&#xD;&#xa;wnB+9cLuJvrCtEL4wkp7+MLOfffCDN3zwkaz9sLi8vjCFKr6wgIQ+cI8iPjCBpT4wvR1+MLQI/rC&#xD;&#xa;Ihn8wlQg+sIcLvjCVCz2wsI49MJQ9fbC23H3woy69sL4BfnCIOb2wjwy9cIuGvnCdmb3wj7K9MI+&#xD;&#xa;KPXCJpr2wn7C9cKQDvnCthv7woaP+cLGaPbCTr32wrpN+cIFSPjCDvX4wtD39sJY//TCKGf3wvZI&#xD;&#xa;+cK9YvfCgYf3wjIf+sLMMvfCpjz2wuA6+cII8vbCxDv1wmJG9sLka/rCPrT1wi589cLqjfbC9qP4&#xD;&#xa;wgzJ+MLelPbCGir2wlBC9sKeU/jC/nn3wsYn9sL4QPjCXBj5wopQ+MIaJvnCSB36wgjc+MIMfPfC&#xD;&#xa;W+z1wmYG+MKuxPnCCuD1wjh+9sLDrPfCOPj3wm7h+MJjMvfCxH/2wsXf98KwN/nCKOn5wrLR+sKg&#xD;&#xa;bPvCkFv5wsAu+cL2hffCySz2wmRX+MKiiPjCzFX4wvjB98Jgz/fCxPT4wobP+cL8avjC9r34wnKx&#xD;&#xa;+MK+LPnC3H34wle39cKejfbCNKP2wg5B9sK0H/rCSvz2woqE98JAqfjCBPL4wmKi+MIu2/jCMFD5&#xD;&#xa;wiCM+cKo//nCGqz7wlZN+sKUDfjC0ov4wrIU+sIVpffCP2/3woye98KktPbCTJj2wpH29cL3mvbC&#xD;&#xa;jL/4wti/+MLm3vjCQ9QEwzOmYsI/y13CPNeLwsehjcK+No/Cm+aOwlHvjcIja5HCun6XwoKemMJy&#xD;&#xa;lpPCuQeRwhgMlcJGdZvCTjScwgFMncIGh5zCGrOawuO0nMJdJZ3Cybudwo6toMIdraPCs/6jwpY0&#xD;&#xa;psLIUqjCWQmpwonmp8KcE6XCgXGlwqC+psIFHabCBoyownWvqcIkX6jCgnCpwms3qsIW0KfCM7Oj&#xD;&#xa;wnGLosJgcKnCdk6swiIgscKFrbDCtNmowrZmpcIHYqjCCg2pwqUNq8KgHq7ChEGxwhVFs8KU6LLC&#xD;&#xa;dvWzwpVHscI6NrDCMpGwwubcs8Imh7bCPKq6wj7tvMKSbr3ClsG+wq4qwMLXQr7CpAK5whxiuMJp&#xD;&#xa;v7nCwu29wloQvsIXTL3CzjDAwsDTwcL69sHC8urAwtAFwMIkSMLCpJHDwjLOw8JG8sTCmMvDwq7H&#xD;&#xa;wsLOncPC+CDDwkh6wsLU5sPCP23Fwm5Qx8KlYsTCm0XCwnhexcLsTsPCSMPDwjvJw8LMWcHC2XHD&#xD;&#xa;wjj5wsICs8TChWvEwgCywcKDdcHCFnHCwurMxMLlVsTCfrDGwmzqyMKoGsfC7ITIwtqRyMJwzcbC&#xD;&#xa;ppbEwiv5xcIXxsTCzDfCwtSExMKEjcTC8ObDwiJ9yMIQm8vCIkDGwqHyxcIyYcbCyAXIwmyBx8I4&#xD;&#xa;n8PCvyPGwuiKxMJggMfCdL3JwsMhysLi6sXCRa7Ewoykx8Jk/MXC0NfEwtK0xcJQTMTCvvvGwtqJ&#xD;&#xa;xMKmFsTCSbfGwq76x8IQ+sjCsqnIwkJdycIaT8fC0nbHwlf2xsLg/cbCtIHHwsTvxsI0KsbCsqDH&#xD;&#xa;wgLix8JGKcXCyNTDwjDwwsIb98bC6MjJwg6Zy8Kg+cvCaC3HwtIgw8KW7sXC3EHGwmcUxcL++8fC&#xD;&#xa;CWbIwsDoxsJFz8PCJkXFwiD7xcIQDsfC8ljIwrDLxMKkeMLClpHEwiqgyMJcjcjC6krGwl50w8Iy&#xD;&#xa;7sXCWv3HwkQ1xsKUwMPC2K/EwootxMJUqMTCH3LDwuojxcKil8fCjmXIwkLJxcID78TClTvGwhel&#xD;&#xa;xsIca8bC1rbCwk6+wsIQfsfCIlPHwpJExcLWhMbCDNvEwuryxMKklMXCeBDDwolhwcIiasLCQYfE&#xD;&#xa;whUfwsJx4MTCsEnIwkX0xcK+3sbCIqLHwrARx8IWtMTCGAnFwomNxMLfbcTCQIPDwjqww8L+MMTC&#xD;&#xa;mqjHwrBaxMI6YsTCxmvIwqyKycKQaMXCnx7FwkYvx8In6sjCGMzIwuvAxcL8a8XCiBjJwkvwyMKI&#xD;&#xa;qMbCTCTIwvQSy8IxEsvCVT/JwrI3w8LA8sLCCD7EwsxXxMJSjsXCfjXFwqTKxMI/gsPCDozDwtwF&#xD;&#xa;xMISn8bChHvJwlFQyMJYCsbCP4jIwtkBycLiFsrCbCrKwvyTysIWncnC+A3HwuI5x8I8/MbC0hHI&#xD;&#xa;wopJzMLmb83CFkvMwpy/y8Kn7MrCfJrJwuLDyMJKn8bCStTGwpb7ycIMo8nCcivFwsapxcJkx8bC&#xD;&#xa;ALLIwriaycJM3cfC8r/KwlSoy8I4A8vCpFHJwkRrzMIKr87CWD7MwsiJycKW9cfCUjbKwq+YycLi&#xD;&#xa;U8jCROHHwhdWycKaU8nCF7jMwmKaz8L//8zC8tjOwjxezsIUysvCzHLJwiJryMLRm8bCgLjKwsi8&#xD;&#xa;ysIhfszCPETLwqtbyMJGeMfCpRPJwnwZzMJSIs3CqhPMwmDiyMLZYsjCz13KwgwKy8LCi8jCyrTM&#xD;&#xa;wgwxzMK4ZcvC087JwkV2xsLyXsnCjIbLwhwvzcLfrM7CeITKwla3ysLK3cnC/PHFwpScxcIUQ8nC&#xD;&#xa;NJzIwrEsxsJvZcfCXSvIwlKLx8JII8nCvgzKwpnhysJSC8vC9iTKwiA/y8IadczCuDrMwuVaysLO&#xD;&#xa;r8vCXtfJwrZ6ycItucnCtonJwjyTysJkC83CL0nMwkjdyMIBucfCixrLwvSDysKGX8nCsCzMwuas&#xD;&#xa;0cIsnNPCuEvOwtr5y8LMBc7Cr+PTwsQc5MLcOfPCKOj0wjr59cJ0C/fCzg75wkwh+8LmVPnCqz72&#xD;&#xa;wnB+9cLuJvrCtEL4wkp7+MLOfffCDN3zwkaz9sLi8vjCFKr6wgIQ+cI8iPjCBpT4wvR1+MLQI/rC&#xD;&#xa;Ihn8wlQg+sIcLvjCVCz2wsI49MJQ9fbC23H3woy69sL4BfnCIOb2wjwy9cIuGvnCdmb3wj7K9MI+&#xD;&#xa;KPXCJpr2wn7C9cKQDvnCthv7woaP+cLGaPbCTr32wrpN+cIFSPjCDvX4wtD39sJY//TCKGf3wvZI&#xD;&#xa;+cK9YvfCgYf3wjIf+sLMMvfCpjz2wuA6+cII8vbCxDv1wmJG9sLka/rCPrT1wi589cLqjfbC9qP4&#xD;&#xa;wgzJ+MLelPbCGir2wlBC9sKeU/jC/nn3wsYn9sL4QPjCXBj5wopQ+MIaJvnCSB36wgjc+MIMfPfC&#xD;&#xa;W+z1wmYG+MKuxPnCCuD1wjh+9sLDrPfCOPj3wm7h+MJjMvfCxH/2wsXf98KwN/nCKOn5wrLR+sKg&#xD;&#xa;bPvCkFv5wsAu+cL2hffCySz2wmRX+MKiiPjCzFX4wvjB98Jgz/fCxPT4wobP+cL8avjC9r34wnKx&#xD;&#xa;+MK+LPnC3H34wle39cKejfbCNKP2wg5B9sK0H/rCSvz2woqE98JAqfjCBPL4wmKi+MIu2/jCMFD5&#xD;&#xa;wiCM+cKo//nCGqz7wlZN+sKUDfjC0ov4wrIU+sIVpffCP2/3woye98KktPbCTJj2wpH29cL3mvbC&#xD;&#xa;jL/4wti/+MLm3vjCQ9QE" leadInLength="0/1"  />
            </Keyframes>
           </Parameter>
           </Parameters>
          </GenericEffect>
          <GenericEffect id="2371" name = "WinCompression" >
           <Parameters>
           <InterpolatingParam id="2372" interp="linr"  time="0/1" value="0" leadInLength="0/1"   name="attack"/>
           <InterpolatingParam id="2373" interp="linr"  time="0/1" value="9" leadInLength="0/1"   name="gain"/>
           <Parameter id="2374"   name="preset">
            <Keyframes>
            <Keyframe id="2375"  time="0/1" value="1" leadInLength="0/1"  />
            </Keyframes>
           </Parameter>
           <InterpolatingParam id="2376" interp="linr"  time="0/1" value="10" leadInLength="0/1"   name="ratio"/>
           <InterpolatingParam id="2377" interp="linr"  time="0/1" value="3500" leadInLength="0/1"   name="release"/>
           <InterpolatingParam id="2378" interp="linr"  time="0/1" value="-20" leadInLength="0/1"   name="threshold"/>
           </Parameters>
          </GenericEffect>
          <GenericEffect id="2379" name = "Declipper" >
           <Parameters>
           <InterpolatingParam id="2380" interp="linr"  time="0/1" value="-1" leadInLength="0/1"   name="sensitivity"/>
           </Parameters>
          </GenericEffect>
          <GenericEffect id="2381" name = "Declicker" >
           <Parameters>
           <InterpolatingParam id="2382" interp="linr"  time="0/1" value="3" leadInLength="0/1"   name="sensitivity"/>
           </Parameters>
          </GenericEffect>
         </Effects>
         <Attributes>
          <Attribute id="2383" value="" name="ident"/>
          <Attribute id="2384" value="0" name="mixToMono"/>
         </Attributes>
         <MetaData>
          <entry key="WinSubProjectDisplayName" val=""/>
         </MetaData>
         <ExtraData>
          <Entry key="ZoomPanBin">
           <ZoomPanBin id="2385"  >
            <ZoomPanKeyframes>
            </ZoomPanKeyframes>
           </ZoomPanBin>
          </Entry>
          <Entry key="CursorEffectBin">
           <CursorEffectBin id="2386"  >
            <CursorEffectKeyframes>
            </CursorEffectKeyframes>
           </CursorEffectBin>
          </Entry>
         </ExtraData>
         <GenericTrack id="2387"  >
          <Attributes>
           <Attribute id="2388" value="" name="ident"/>
           <Attribute id="2389" value="0" name="audioMuted"/>
           <Attribute id="2390" value="0" name="videoHidden"/>
          </Attributes>
          <MetaData>
           <entry key="IsLocked" val="False"/>
           <entry key="WinTrackHeight" val="0"/>
          </MetaData>
          <Medias>
           <AMFile id="2391" start="0" duration="4896" scalar="1/1" mediaStart="0/1" mediaDuration="4896/1" trackNumber="0" src="22" channelNumber="0" >
            <Parameters>
             <InterpolatingParam id="2392" interp="linr"  time="0/1" value="1" leadInLength="0/1"  name="volume"/>
             <Parameter id="2393"  name="captions"/>
            </Parameters>
            <Attributes>
             <Attribute id="2394" value="" name="ident"/>
             <Attribute id="2395" value="44100" name="sampleRate"/>
             <Attribute id="2396" value="16" name="bitDepth"/>
             <Attribute id="2397" value="1" name="gain"/>
             <Attribute id="2398" value="0" name="mixToMono"/>
            </Attributes>
            <MetaData>
             <entry key="WinSubProjectDisplayName" val=""/>
            </MetaData>
           </AMFile>
           <AMFile id="2399" start="4896" duration="411" scalar="1/1" mediaStart="4989/1" mediaDuration="411/1" trackNumber="0" src="22" channelNumber="0" >
            <Parameters>
             <InterpolatingParam id="2400" interp="linr"  time="0/1" value="1" leadInLength="0/1"  name="volume"/>
             <Parameter id="2401"  name="captions"/>
            </Parameters>
            <Attributes>
             <Attribute id="2402" value="" name="ident"/>
             <Attribute id="2403" value="44100" name="sampleRate"/>
             <Attribute id="2404" value="16" name="bitDepth"/>
             <Attribute id="2405" value="1" name="gain"/>
             <Attribute id="2406" value="0" name="mixToMono"/>
            </Attributes>
            <MetaData>
             <entry key="WinSubProjectDisplayName" val=""/>
            </MetaData>
           </AMFile>
           <AMFile id="2407" start="5307" duration="1270" scalar="1/1" mediaStart="5956/1" mediaDuration="1270/1" trackNumber="0" src="22" channelNumber="0" >
            <Parameters>
             <InterpolatingParam id="2408" interp="linr"  time="0/1" value="1" leadInLength="0/1"  name="volume"/>
             <Parameter id="2409"  name="captions"/>
            </Parameters>
            <Attributes>
             <Attribute id="2410" value="" name="ident"/>
             <Attribute id="2411" value="44100" name="sampleRate"/>
             <Attribute id="2412" value="16" name="bitDepth"/>
             <Attribute id="2413" value="1" name="gain"/>
             <Attribute id="2414" value="0" name="mixToMono"/>
            </Attributes>
            <MetaData>
             <entry key="WinSubProjectDisplayName" val=""/>
            </MetaData>
           </AMFile>
           <AMFile id="2415" start="6577" duration="7114" scalar="1/1" mediaStart="7454/1" mediaDuration="7114/1" trackNumber="0" src="22" channelNumber="0" >
            <Parameters>
             <InterpolatingParam id="2416" interp="linr"  time="0/1" value="1" leadInLength="0/1"  name="volume"/>
             <Parameter id="2417"  name="captions"/>
            </Parameters>
            <Attributes>
             <Attribute id="2418" value="" name="ident"/>
             <Attribute id="2419" value="44100" name="sampleRate"/>
             <Attribute id="2420" value="16" name="bitDepth"/>
             <Attribute id="2421" value="1" name="gain"/>
             <Attribute id="2422" value="0" name="mixToMono"/>
            </Attributes>
            <MetaData>
             <entry key="WinSubProjectDisplayName" val=""/>
            </MetaData>
           </AMFile>
          </Medias>
         </GenericTrack>
        </StitchedMedia>
        <StitchedMedia id="2423" start="2078" duration="3759" scalar="1/1" mediaStart="3500/1" mediaDuration="3759/1" minMediaStart="0/1" >
         <Transformer>
          <VectorParam id="2424"  name="translation">
           <InterpolatingParam id="2425" interp="linr"  time="0/1" value="0" leadInLength="0/1"  />
           <InterpolatingParam id="2426" interp="linr"  time="0/1" value="0" leadInLength="0/1"  />
           <InterpolatingParam id="2427" interp="linr"  time="0/1" value="0" leadInLength="0/1"  />
          </VectorParam>
          <VectorParam id="2428"  name="rotation">
           <InterpolatingParam id="2429" interp="linr"  time="0/1" value="0" leadInLength="0/1"  />
           <InterpolatingParam id="2430" interp="linr"  time="0/1" value="0" leadInLength="0/1"  />
           <InterpolatingParam id="2431" interp="linr"  time="0/1" value="0" leadInLength="0/1"  />
          </VectorParam>
          <VectorParam id="2432"  name="shear">
           <InterpolatingParam id="2433" interp="linr"  time="0/1" value="0" leadInLength="0/1"  />
           <InterpolatingParam id="2434" interp="linr"  time="0/1" value="0" leadInLength="0/1"  />
           <InterpolatingParam id="2435" interp="linr"  time="0/1" value="0" leadInLength="0/1"  />
          </VectorParam>
          <VectorParam id="2436"  name="scale">
           <InterpolatingParam id="2437" interp="linr"  time="0/1" value="1" leadInLength="0/1"  />
           <InterpolatingParam id="2438" interp="linr"  time="0/1" value="1" leadInLength="0/1"  />
           <InterpolatingParam id="2439" interp="linr"  time="0/1" value="1" leadInLength="0/1"  />
          </VectorParam>
          <VectorParam id="2440"  name="anchor">
           <InterpolatingParam id="2441" interp="linr"  time="0/1" value="0" leadInLength="0/1"  />
           <InterpolatingParam id="2442" interp="linr"  time="0/1" value="0" leadInLength="0/1"  />
           <InterpolatingParam id="2443" interp="linr"  time="0/1" value="0" leadInLength="0/1"  />
          </VectorParam>
         </Transformer>
         <Parameters>
          <InterpolatingParam id="2444" interp="linr"  time="0/1" value="1" leadInLength="0/1"  name="cursorOpacity"/>
          <InterpolatingParam id="2445" interp="linr"  time="0/1" value="1" leadInLength="0/1"  name="cursorScale"/>
          <InterpolatingParam id="2446" interp="linr"  name="volume">
           <Keyframes>
           <Keyframe id="2447"  time="0/1" value="1" leadInLength="0/1"  />
           <Keyframe id="2448"  time="3301/1" value="1" leadInLength="0/1"  />
           <Keyframe id="2449"  time="3302/1" value="1.1290322580645162" leadInLength="0/1"  />
           <Keyframe id="2450"  time="13691/1" value="1.1290322580645162" leadInLength="0/1"  />
           <Keyframe id="2451"  time="13692/1" value="1" leadInLength="0/1"  />
           </Keyframes>
          </InterpolatingParam>
          <Parameter id="2452"  name="captions"/>
         </Parameters>
         <Effects>
          <GenericEffect id="2453" name = "NoiseReduction" >
           <Parameters>
           <InterpolatingParam id="2454" interp="linr"  time="0/1" value="20" leadInLength="0/1"   name="denoiserAmount"/>
           <InterpolatingParam id="2455" interp="linr"  time="0/1" value="0" leadInLength="0/1"   name="denoiserThreshold"/>
           <Parameter id="2456"   name="noiseProfile">
            <Keyframes>
            <Keyframe id="2457"  time="0/1" value="FBAAAAIAAABErAAAAQIAADOmYsI/y13CPNeLwsehjcK+No/Cm+aOwlHvjcIja5HCun6XwoKemMJy&#xD;&#xa;lpPCuQeRwhgMlcJGdZvCTjScwgFMncIGh5zCGrOawuO0nMJdJZ3Cybudwo6toMIdraPCs/6jwpY0&#xD;&#xa;psLIUqjCWQmpwonmp8KcE6XCgXGlwqC+psIFHabCBoyownWvqcIkX6jCgnCpwms3qsIW0KfCM7Oj&#xD;&#xa;wnGLosJgcKnCdk6swiIgscKFrbDCtNmowrZmpcIHYqjCCg2pwqUNq8KgHq7ChEGxwhVFs8KU6LLC&#xD;&#xa;dvWzwpVHscI6NrDCMpGwwubcs8Imh7bCPKq6wj7tvMKSbr3ClsG+wq4qwMLXQr7CpAK5whxiuMJp&#xD;&#xa;v7nCwu29wloQvsIXTL3CzjDAwsDTwcL69sHC8urAwtAFwMIkSMLCpJHDwjLOw8JG8sTCmMvDwq7H&#xD;&#xa;wsLOncPC+CDDwkh6wsLU5sPCP23Fwm5Qx8KlYsTCm0XCwnhexcLsTsPCSMPDwjvJw8LMWcHC2XHD&#xD;&#xa;wjj5wsICs8TChWvEwgCywcKDdcHCFnHCwurMxMLlVsTCfrDGwmzqyMKoGsfC7ITIwtqRyMJwzcbC&#xD;&#xa;ppbEwiv5xcIXxsTCzDfCwtSExMKEjcTC8ObDwiJ9yMIQm8vCIkDGwqHyxcIyYcbCyAXIwmyBx8I4&#xD;&#xa;n8PCvyPGwuiKxMJggMfCdL3JwsMhysLi6sXCRa7Ewoykx8Jk/MXC0NfEwtK0xcJQTMTCvvvGwtqJ&#xD;&#xa;xMKmFsTCSbfGwq76x8IQ+sjCsqnIwkJdycIaT8fC0nbHwlf2xsLg/cbCtIHHwsTvxsI0KsbCsqDH&#xD;&#xa;wgLix8JGKcXCyNTDwjDwwsIb98bC6MjJwg6Zy8Kg+cvCaC3HwtIgw8KW7sXC3EHGwmcUxcL++8fC&#xD;&#xa;CWbIwsDoxsJFz8PCJkXFwiD7xcIQDsfC8ljIwrDLxMKkeMLClpHEwiqgyMJcjcjC6krGwl50w8Iy&#xD;&#xa;7sXCWv3HwkQ1xsKUwMPC2K/EwootxMJUqMTCH3LDwuojxcKil8fCjmXIwkLJxcID78TClTvGwhel&#xD;&#xa;xsIca8bC1rbCwk6+wsIQfsfCIlPHwpJExcLWhMbCDNvEwuryxMKklMXCeBDDwolhwcIiasLCQYfE&#xD;&#xa;whUfwsJx4MTCsEnIwkX0xcK+3sbCIqLHwrARx8IWtMTCGAnFwomNxMLfbcTCQIPDwjqww8L+MMTC&#xD;&#xa;mqjHwrBaxMI6YsTCxmvIwqyKycKQaMXCnx7FwkYvx8In6sjCGMzIwuvAxcL8a8XCiBjJwkvwyMKI&#xD;&#xa;qMbCTCTIwvQSy8IxEsvCVT/JwrI3w8LA8sLCCD7EwsxXxMJSjsXCfjXFwqTKxMI/gsPCDozDwtwF&#xD;&#xa;xMISn8bChHvJwlFQyMJYCsbCP4jIwtkBycLiFsrCbCrKwvyTysIWncnC+A3HwuI5x8I8/MbC0hHI&#xD;&#xa;wopJzMLmb83CFkvMwpy/y8Kn7MrCfJrJwuLDyMJKn8bCStTGwpb7ycIMo8nCcivFwsapxcJkx8bC&#xD;&#xa;ALLIwriaycJM3cfC8r/KwlSoy8I4A8vCpFHJwkRrzMIKr87CWD7MwsiJycKW9cfCUjbKwq+YycLi&#xD;&#xa;U8jCROHHwhdWycKaU8nCF7jMwmKaz8L//8zC8tjOwjxezsIUysvCzHLJwiJryMLRm8bCgLjKwsi8&#xD;&#xa;ysIhfszCPETLwqtbyMJGeMfCpRPJwnwZzMJSIs3CqhPMwmDiyMLZYsjCz13KwgwKy8LCi8jCyrTM&#xD;&#xa;wgwxzMK4ZcvC087JwkV2xsLyXsnCjIbLwhwvzcLfrM7CeITKwla3ysLK3cnC/PHFwpScxcIUQ8nC&#xD;&#xa;NJzIwrEsxsJvZcfCXSvIwlKLx8JII8nCvgzKwpnhysJSC8vC9iTKwiA/y8IadczCuDrMwuVaysLO&#xD;&#xa;r8vCXtfJwrZ6ycItucnCtonJwjyTysJkC83CL0nMwkjdyMIBucfCixrLwvSDysKGX8nCsCzMwuas&#xD;&#xa;0cIsnNPCuEvOwtr5y8LMBc7Cr+PTwsQc5MLcOfPCKOj0wjr59cJ0C/fCzg75wkwh+8LmVPnCqz72&#xD;&#xa;wnB+9cLuJvrCtEL4wkp7+MLOfffCDN3zwkaz9sLi8vjCFKr6wgIQ+cI8iPjCBpT4wvR1+MLQI/rC&#xD;&#xa;Ihn8wlQg+sIcLvjCVCz2wsI49MJQ9fbC23H3woy69sL4BfnCIOb2wjwy9cIuGvnCdmb3wj7K9MI+&#xD;&#xa;KPXCJpr2wn7C9cKQDvnCthv7woaP+cLGaPbCTr32wrpN+cIFSPjCDvX4wtD39sJY//TCKGf3wvZI&#xD;&#xa;+cK9YvfCgYf3wjIf+sLMMvfCpjz2wuA6+cII8vbCxDv1wmJG9sLka/rCPrT1wi589cLqjfbC9qP4&#xD;&#xa;wgzJ+MLelPbCGir2wlBC9sKeU/jC/nn3wsYn9sL4QPjCXBj5wopQ+MIaJvnCSB36wgjc+MIMfPfC&#xD;&#xa;W+z1wmYG+MKuxPnCCuD1wjh+9sLDrPfCOPj3wm7h+MJjMvfCxH/2wsXf98KwN/nCKOn5wrLR+sKg&#xD;&#xa;bPvCkFv5wsAu+cL2hffCySz2wmRX+MKiiPjCzFX4wvjB98Jgz/fCxPT4wobP+cL8avjC9r34wnKx&#xD;&#xa;+MK+LPnC3H34wle39cKejfbCNKP2wg5B9sK0H/rCSvz2woqE98JAqfjCBPL4wmKi+MIu2/jCMFD5&#xD;&#xa;wiCM+cKo//nCGqz7wlZN+sKUDfjC0ov4wrIU+sIVpffCP2/3woye98KktPbCTJj2wpH29cL3mvbC&#xD;&#xa;jL/4wti/+MLm3vjCQ9QEwzOmYsI/y13CPNeLwsehjcK+No/Cm+aOwlHvjcIja5HCun6XwoKemMJy&#xD;&#xa;lpPCuQeRwhgMlcJGdZvCTjScwgFMncIGh5zCGrOawuO0nMJdJZ3Cybudwo6toMIdraPCs/6jwpY0&#xD;&#xa;psLIUqjCWQmpwonmp8KcE6XCgXGlwqC+psIFHabCBoyownWvqcIkX6jCgnCpwms3qsIW0KfCM7Oj&#xD;&#xa;wnGLosJgcKnCdk6swiIgscKFrbDCtNmowrZmpcIHYqjCCg2pwqUNq8KgHq7ChEGxwhVFs8KU6LLC&#xD;&#xa;dvWzwpVHscI6NrDCMpGwwubcs8Imh7bCPKq6wj7tvMKSbr3ClsG+wq4qwMLXQr7CpAK5whxiuMJp&#xD;&#xa;v7nCwu29wloQvsIXTL3CzjDAwsDTwcL69sHC8urAwtAFwMIkSMLCpJHDwjLOw8JG8sTCmMvDwq7H&#xD;&#xa;wsLOncPC+CDDwkh6wsLU5sPCP23Fwm5Qx8KlYsTCm0XCwnhexcLsTsPCSMPDwjvJw8LMWcHC2XHD&#xD;&#xa;wjj5wsICs8TChWvEwgCywcKDdcHCFnHCwurMxMLlVsTCfrDGwmzqyMKoGsfC7ITIwtqRyMJwzcbC&#xD;&#xa;ppbEwiv5xcIXxsTCzDfCwtSExMKEjcTC8ObDwiJ9yMIQm8vCIkDGwqHyxcIyYcbCyAXIwmyBx8I4&#xD;&#xa;n8PCvyPGwuiKxMJggMfCdL3JwsMhysLi6sXCRa7Ewoykx8Jk/MXC0NfEwtK0xcJQTMTCvvvGwtqJ&#xD;&#xa;xMKmFsTCSbfGwq76x8IQ+sjCsqnIwkJdycIaT8fC0nbHwlf2xsLg/cbCtIHHwsTvxsI0KsbCsqDH&#xD;&#xa;wgLix8JGKcXCyNTDwjDwwsIb98bC6MjJwg6Zy8Kg+cvCaC3HwtIgw8KW7sXC3EHGwmcUxcL++8fC&#xD;&#xa;CWbIwsDoxsJFz8PCJkXFwiD7xcIQDsfC8ljIwrDLxMKkeMLClpHEwiqgyMJcjcjC6krGwl50w8Iy&#xD;&#xa;7sXCWv3HwkQ1xsKUwMPC2K/EwootxMJUqMTCH3LDwuojxcKil8fCjmXIwkLJxcID78TClTvGwhel&#xD;&#xa;xsIca8bC1rbCwk6+wsIQfsfCIlPHwpJExcLWhMbCDNvEwuryxMKklMXCeBDDwolhwcIiasLCQYfE&#xD;&#xa;whUfwsJx4MTCsEnIwkX0xcK+3sbCIqLHwrARx8IWtMTCGAnFwomNxMLfbcTCQIPDwjqww8L+MMTC&#xD;&#xa;mqjHwrBaxMI6YsTCxmvIwqyKycKQaMXCnx7FwkYvx8In6sjCGMzIwuvAxcL8a8XCiBjJwkvwyMKI&#xD;&#xa;qMbCTCTIwvQSy8IxEsvCVT/JwrI3w8LA8sLCCD7EwsxXxMJSjsXCfjXFwqTKxMI/gsPCDozDwtwF&#xD;&#xa;xMISn8bChHvJwlFQyMJYCsbCP4jIwtkBycLiFsrCbCrKwvyTysIWncnC+A3HwuI5x8I8/MbC0hHI&#xD;&#xa;wopJzMLmb83CFkvMwpy/y8Kn7MrCfJrJwuLDyMJKn8bCStTGwpb7ycIMo8nCcivFwsapxcJkx8bC&#xD;&#xa;ALLIwriaycJM3cfC8r/KwlSoy8I4A8vCpFHJwkRrzMIKr87CWD7MwsiJycKW9cfCUjbKwq+YycLi&#xD;&#xa;U8jCROHHwhdWycKaU8nCF7jMwmKaz8L//8zC8tjOwjxezsIUysvCzHLJwiJryMLRm8bCgLjKwsi8&#xD;&#xa;ysIhfszCPETLwqtbyMJGeMfCpRPJwnwZzMJSIs3CqhPMwmDiyMLZYsjCz13KwgwKy8LCi8jCyrTM&#xD;&#xa;wgwxzMK4ZcvC087JwkV2xsLyXsnCjIbLwhwvzcLfrM7CeITKwla3ysLK3cnC/PHFwpScxcIUQ8nC&#xD;&#xa;NJzIwrEsxsJvZcfCXSvIwlKLx8JII8nCvgzKwpnhysJSC8vC9iTKwiA/y8IadczCuDrMwuVaysLO&#xD;&#xa;r8vCXtfJwrZ6ycItucnCtonJwjyTysJkC83CL0nMwkjdyMIBucfCixrLwvSDysKGX8nCsCzMwuas&#xD;&#xa;0cIsnNPCuEvOwtr5y8LMBc7Cr+PTwsQc5MLcOfPCKOj0wjr59cJ0C/fCzg75wkwh+8LmVPnCqz72&#xD;&#xa;wnB+9cLuJvrCtEL4wkp7+MLOfffCDN3zwkaz9sLi8vjCFKr6wgIQ+cI8iPjCBpT4wvR1+MLQI/rC&#xD;&#xa;Ihn8wlQg+sIcLvjCVCz2wsI49MJQ9fbC23H3woy69sL4BfnCIOb2wjwy9cIuGvnCdmb3wj7K9MI+&#xD;&#xa;KPXCJpr2wn7C9cKQDvnCthv7woaP+cLGaPbCTr32wrpN+cIFSPjCDvX4wtD39sJY//TCKGf3wvZI&#xD;&#xa;+cK9YvfCgYf3wjIf+sLMMvfCpjz2wuA6+cII8vbCxDv1wmJG9sLka/rCPrT1wi589cLqjfbC9qP4&#xD;&#xa;wgzJ+MLelPbCGir2wlBC9sKeU/jC/nn3wsYn9sL4QPjCXBj5wopQ+MIaJvnCSB36wgjc+MIMfPfC&#xD;&#xa;W+z1wmYG+MKuxPnCCuD1wjh+9sLDrPfCOPj3wm7h+MJjMvfCxH/2wsXf98KwN/nCKOn5wrLR+sKg&#xD;&#xa;bPvCkFv5wsAu+cL2hffCySz2wmRX+MKiiPjCzFX4wvjB98Jgz/fCxPT4wobP+cL8avjC9r34wnKx&#xD;&#xa;+MK+LPnC3H34wle39cKejfbCNKP2wg5B9sK0H/rCSvz2woqE98JAqfjCBPL4wmKi+MIu2/jCMFD5&#xD;&#xa;wiCM+cKo//nCGqz7wlZN+sKUDfjC0ov4wrIU+sIVpffCP2/3woye98KktPbCTJj2wpH29cL3mvbC&#xD;&#xa;jL/4wti/+MLm3vjCQ9QE" leadInLength="0/1"  />
            </Keyframes>
           </Parameter>
           </Parameters>
          </GenericEffect>
          <GenericEffect id="2458" name = "WinCompression" >
           <Parameters>
           <InterpolatingParam id="2459" interp="linr"  time="0/1" value="0" leadInLength="0/1"   name="attack"/>
           <InterpolatingParam id="2460" interp="linr"  time="0/1" value="9" leadInLength="0/1"   name="gain"/>
           <Parameter id="2461"   name="preset">
            <Keyframes>
            <Keyframe id="2462"  time="0/1" value="1" leadInLength="0/1"  />
            </Keyframes>
           </Parameter>
           <InterpolatingParam id="2463" interp="linr"  time="0/1" value="10" leadInLength="0/1"   name="ratio"/>
           <InterpolatingParam id="2464" interp="linr"  time="0/1" value="3500" leadInLength="0/1"   name="release"/>
           <InterpolatingParam id="2465" interp="linr"  time="0/1" value="-20" leadInLength="0/1"   name="threshold"/>
           </Parameters>
          </GenericEffect>
          <GenericEffect id="2466" name = "Declipper" >
           <Parameters>
           <InterpolatingParam id="2467" interp="linr"  time="0/1" value="-1" leadInLength="0/1"   name="sensitivity"/>
           </Parameters>
          </GenericEffect>
          <GenericEffect id="2468" name = "Declicker" >
           <Parameters>
           <InterpolatingParam id="2469" interp="linr"  time="0/1" value="3" leadInLength="0/1"   name="sensitivity"/>
           </Parameters>
          </GenericEffect>
         </Effects>
         <Attributes>
          <Attribute id="2470" value="" name="ident"/>
          <Attribute id="2471" value="0" name="mixToMono"/>
         </Attributes>
         <MetaData>
          <entry key="WinSubProjectDisplayName" val=""/>
         </MetaData>
         <ExtraData>
          <Entry key="ZoomPanBin">
           <ZoomPanBin id="2472"  >
            <ZoomPanKeyframes>
            </ZoomPanKeyframes>
           </ZoomPanBin>
          </Entry>
          <Entry key="CursorEffectBin">
           <CursorEffectBin id="2473"  >
            <CursorEffectKeyframes>
            </CursorEffectKeyframes>
           </CursorEffectBin>
          </Entry>
         </ExtraData>
         <GenericTrack id="2474"  >
          <Attributes>
           <Attribute id="2475" value="" name="ident"/>
           <Attribute id="2476" value="0" name="audioMuted"/>
           <Attribute id="2477" value="0" name="videoHidden"/>
          </Attributes>
          <MetaData>
           <entry key="IsLocked" val="False"/>
           <entry key="WinTrackHeight" val="0"/>
          </MetaData>
          <Medias>
           <AMFile id="2478" start="0" duration="4896" scalar="1/1" mediaStart="0/1" mediaDuration="4896/1" trackNumber="0" src="22" channelNumber="0" >
            <Parameters>
             <InterpolatingParam id="2479" interp="linr"  time="0/1" value="1" leadInLength="0/1"  name="volume"/>
             <Parameter id="2480"  name="captions"/>
            </Parameters>
            <Attributes>
             <Attribute id="2481" value="" name="ident"/>
             <Attribute id="2482" value="44100" name="sampleRate"/>
             <Attribute id="2483" value="16" name="bitDepth"/>
             <Attribute id="2484" value="1" name="gain"/>
             <Attribute id="2485" value="0" name="mixToMono"/>
            </Attributes>
            <MetaData>
             <entry key="WinSubProjectDisplayName" val=""/>
            </MetaData>
           </AMFile>
           <AMFile id="2486" start="4896" duration="411" scalar="1/1" mediaStart="4989/1" mediaDuration="411/1" trackNumber="0" src="22" channelNumber="0" >
            <Parameters>
             <InterpolatingParam id="2487" interp="linr"  time="0/1" value="1" leadInLength="0/1"  name="volume"/>
             <Parameter id="2488"  name="captions"/>
            </Parameters>
            <Attributes>
             <Attribute id="2489" value="" name="ident"/>
             <Attribute id="2490" value="44100" name="sampleRate"/>
             <Attribute id="2491" value="16" name="bitDepth"/>
             <Attribute id="2492" value="1" name="gain"/>
             <Attribute id="2493" value="0" name="mixToMono"/>
            </Attributes>
            <MetaData>
             <entry key="WinSubProjectDisplayName" val=""/>
            </MetaData>
           </AMFile>
           <AMFile id="2494" start="5307" duration="1270" scalar="1/1" mediaStart="5956/1" mediaDuration="1270/1" trackNumber="0" src="22" channelNumber="0" >
            <Parameters>
             <InterpolatingParam id="2495" interp="linr"  time="0/1" value="1" leadInLength="0/1"  name="volume"/>
             <Parameter id="2496"  name="captions"/>
            </Parameters>
            <Attributes>
             <Attribute id="2497" value="" name="ident"/>
             <Attribute id="2498" value="44100" name="sampleRate"/>
             <Attribute id="2499" value="16" name="bitDepth"/>
             <Attribute id="2500" value="1" name="gain"/>
             <Attribute id="2501" value="0" name="mixToMono"/>
            </Attributes>
            <MetaData>
             <entry key="WinSubProjectDisplayName" val=""/>
            </MetaData>
           </AMFile>
           <AMFile id="2502" start="6577" duration="7114" scalar="1/1" mediaStart="7454/1" mediaDuration="7114/1" trackNumber="0" src="22" channelNumber="0" >
            <Parameters>
             <InterpolatingParam id="2503" interp="linr"  time="0/1" value="1" leadInLength="0/1"  name="volume"/>
             <Parameter id="2504"  name="captions"/>
            </Parameters>
            <Attributes>
             <Attribute id="2505" value="" name="ident"/>
             <Attribute id="2506" value="44100" name="sampleRate"/>
             <Attribute id="2507" value="16" name="bitDepth"/>
             <Attribute id="2508" value="1" name="gain"/>
             <Attribute id="2509" value="0" name="mixToMono"/>
            </Attributes>
            <MetaData>
             <entry key="WinSubProjectDisplayName" val=""/>
            </MetaData>
           </AMFile>
          </Medias>
         </GenericTrack>
        </StitchedMedia>
        <AMFile id="2510" start="5855" duration="142" scalar="1/1" mediaStart="8136/1" mediaDuration="142/1" trackNumber="0" src="22" channelNumber="0" >
         <Parameters>
          <InterpolatingParam id="2511" interp="linr"  name="volume">
           <Keyframes>
           <Keyframe id="2512"  time="0/1" value="1" leadInLength="0/1"  />
           <Keyframe id="2513"  time="3301/1" value="1" leadInLength="0/1"  />
           <Keyframe id="2514"  time="3302/1" value="0.80000000000000004" leadInLength="0/1"  />
           <Keyframe id="2515"  time="14568/1" value="0.80000000000000004" leadInLength="0/1"  />
           <Keyframe id="2516"  time="14569/1" value="1" leadInLength="0/1"  />
           </Keyframes>
          </InterpolatingParam>
          <Parameter id="2517"  name="captions"/>
         </Parameters>
         <Effects>
          <GenericEffect id="2518" name = "NoiseReduction" >
           <Parameters>
           <InterpolatingParam id="2519" interp="linr"  time="0/1" value="20" leadInLength="0/1"   name="denoiserAmount"/>
           <InterpolatingParam id="2520" interp="linr"  time="0/1" value="0" leadInLength="0/1"   name="denoiserThreshold"/>
           <Parameter id="2521"   name="noiseProfile">
            <Keyframes>
            <Keyframe id="2522"  time="0/1" value="FBAAAAIAAABErAAAAQIAADOmYsI/y13CPNeLwsehjcK+No/Cm+aOwlHvjcIja5HCun6XwoKemMJy&#xD;&#xa;lpPCuQeRwhgMlcJGdZvCTjScwgFMncIGh5zCGrOawuO0nMJdJZ3Cybudwo6toMIdraPCs/6jwpY0&#xD;&#xa;psLIUqjCWQmpwonmp8KcE6XCgXGlwqC+psIFHabCBoyownWvqcIkX6jCgnCpwms3qsIW0KfCM7Oj&#xD;&#xa;wnGLosJgcKnCdk6swiIgscKFrbDCtNmowrZmpcIHYqjCCg2pwqUNq8KgHq7ChEGxwhVFs8KU6LLC&#xD;&#xa;dvWzwpVHscI6NrDCMpGwwubcs8Imh7bCPKq6wj7tvMKSbr3ClsG+wq4qwMLXQr7CpAK5whxiuMJp&#xD;&#xa;v7nCwu29wloQvsIXTL3CzjDAwsDTwcL69sHC8urAwtAFwMIkSMLCpJHDwjLOw8JG8sTCmMvDwq7H&#xD;&#xa;wsLOncPC+CDDwkh6wsLU5sPCP23Fwm5Qx8KlYsTCm0XCwnhexcLsTsPCSMPDwjvJw8LMWcHC2XHD&#xD;&#xa;wjj5wsICs8TChWvEwgCywcKDdcHCFnHCwurMxMLlVsTCfrDGwmzqyMKoGsfC7ITIwtqRyMJwzcbC&#xD;&#xa;ppbEwiv5xcIXxsTCzDfCwtSExMKEjcTC8ObDwiJ9yMIQm8vCIkDGwqHyxcIyYcbCyAXIwmyBx8I4&#xD;&#xa;n8PCvyPGwuiKxMJggMfCdL3JwsMhysLi6sXCRa7Ewoykx8Jk/MXC0NfEwtK0xcJQTMTCvvvGwtqJ&#xD;&#xa;xMKmFsTCSbfGwq76x8IQ+sjCsqnIwkJdycIaT8fC0nbHwlf2xsLg/cbCtIHHwsTvxsI0KsbCsqDH&#xD;&#xa;wgLix8JGKcXCyNTDwjDwwsIb98bC6MjJwg6Zy8Kg+cvCaC3HwtIgw8KW7sXC3EHGwmcUxcL++8fC&#xD;&#xa;CWbIwsDoxsJFz8PCJkXFwiD7xcIQDsfC8ljIwrDLxMKkeMLClpHEwiqgyMJcjcjC6krGwl50w8Iy&#xD;&#xa;7sXCWv3HwkQ1xsKUwMPC2K/EwootxMJUqMTCH3LDwuojxcKil8fCjmXIwkLJxcID78TClTvGwhel&#xD;&#xa;xsIca8bC1rbCwk6+wsIQfsfCIlPHwpJExcLWhMbCDNvEwuryxMKklMXCeBDDwolhwcIiasLCQYfE&#xD;&#xa;whUfwsJx4MTCsEnIwkX0xcK+3sbCIqLHwrARx8IWtMTCGAnFwomNxMLfbcTCQIPDwjqww8L+MMTC&#xD;&#xa;mqjHwrBaxMI6YsTCxmvIwqyKycKQaMXCnx7FwkYvx8In6sjCGMzIwuvAxcL8a8XCiBjJwkvwyMKI&#xD;&#xa;qMbCTCTIwvQSy8IxEsvCVT/JwrI3w8LA8sLCCD7EwsxXxMJSjsXCfjXFwqTKxMI/gsPCDozDwtwF&#xD;&#xa;xMISn8bChHvJwlFQyMJYCsbCP4jIwtkBycLiFsrCbCrKwvyTysIWncnC+A3HwuI5x8I8/MbC0hHI&#xD;&#xa;wopJzMLmb83CFkvMwpy/y8Kn7MrCfJrJwuLDyMJKn8bCStTGwpb7ycIMo8nCcivFwsapxcJkx8bC&#xD;&#xa;ALLIwriaycJM3cfC8r/KwlSoy8I4A8vCpFHJwkRrzMIKr87CWD7MwsiJycKW9cfCUjbKwq+YycLi&#xD;&#xa;U8jCROHHwhdWycKaU8nCF7jMwmKaz8L//8zC8tjOwjxezsIUysvCzHLJwiJryMLRm8bCgLjKwsi8&#xD;&#xa;ysIhfszCPETLwqtbyMJGeMfCpRPJwnwZzMJSIs3CqhPMwmDiyMLZYsjCz13KwgwKy8LCi8jCyrTM&#xD;&#xa;wgwxzMK4ZcvC087JwkV2xsLyXsnCjIbLwhwvzcLfrM7CeITKwla3ysLK3cnC/PHFwpScxcIUQ8nC&#xD;&#xa;NJzIwrEsxsJvZcfCXSvIwlKLx8JII8nCvgzKwpnhysJSC8vC9iTKwiA/y8IadczCuDrMwuVaysLO&#xD;&#xa;r8vCXtfJwrZ6ycItucnCtonJwjyTysJkC83CL0nMwkjdyMIBucfCixrLwvSDysKGX8nCsCzMwuas&#xD;&#xa;0cIsnNPCuEvOwtr5y8LMBc7Cr+PTwsQc5MLcOfPCKOj0wjr59cJ0C/fCzg75wkwh+8LmVPnCqz72&#xD;&#xa;wnB+9cLuJvrCtEL4wkp7+MLOfffCDN3zwkaz9sLi8vjCFKr6wgIQ+cI8iPjCBpT4wvR1+MLQI/rC&#xD;&#xa;Ihn8wlQg+sIcLvjCVCz2wsI49MJQ9fbC23H3woy69sL4BfnCIOb2wjwy9cIuGvnCdmb3wj7K9MI+&#xD;&#xa;KPXCJpr2wn7C9cKQDvnCthv7woaP+cLGaPbCTr32wrpN+cIFSPjCDvX4wtD39sJY//TCKGf3wvZI&#xD;&#xa;+cK9YvfCgYf3wjIf+sLMMvfCpjz2wuA6+cII8vbCxDv1wmJG9sLka/rCPrT1wi589cLqjfbC9qP4&#xD;&#xa;wgzJ+MLelPbCGir2wlBC9sKeU/jC/nn3wsYn9sL4QPjCXBj5wopQ+MIaJvnCSB36wgjc+MIMfPfC&#xD;&#xa;W+z1wmYG+MKuxPnCCuD1wjh+9sLDrPfCOPj3wm7h+MJjMvfCxH/2wsXf98KwN/nCKOn5wrLR+sKg&#xD;&#xa;bPvCkFv5wsAu+cL2hffCySz2wmRX+MKiiPjCzFX4wvjB98Jgz/fCxPT4wobP+cL8avjC9r34wnKx&#xD;&#xa;+MK+LPnC3H34wle39cKejfbCNKP2wg5B9sK0H/rCSvz2woqE98JAqfjCBPL4wmKi+MIu2/jCMFD5&#xD;&#xa;wiCM+cKo//nCGqz7wlZN+sKUDfjC0ov4wrIU+sIVpffCP2/3woye98KktPbCTJj2wpH29cL3mvbC&#xD;&#xa;jL/4wti/+MLm3vjCQ9QEwzOmYsI/y13CPNeLwsehjcK+No/Cm+aOwlHvjcIja5HCun6XwoKemMJy&#xD;&#xa;lpPCuQeRwhgMlcJGdZvCTjScwgFMncIGh5zCGrOawuO0nMJdJZ3Cybudwo6toMIdraPCs/6jwpY0&#xD;&#xa;psLIUqjCWQmpwonmp8KcE6XCgXGlwqC+psIFHabCBoyownWvqcIkX6jCgnCpwms3qsIW0KfCM7Oj&#xD;&#xa;wnGLosJgcKnCdk6swiIgscKFrbDCtNmowrZmpcIHYqjCCg2pwqUNq8KgHq7ChEGxwhVFs8KU6LLC&#xD;&#xa;dvWzwpVHscI6NrDCMpGwwubcs8Imh7bCPKq6wj7tvMKSbr3ClsG+wq4qwMLXQr7CpAK5whxiuMJp&#xD;&#xa;v7nCwu29wloQvsIXTL3CzjDAwsDTwcL69sHC8urAwtAFwMIkSMLCpJHDwjLOw8JG8sTCmMvDwq7H&#xD;&#xa;wsLOncPC+CDDwkh6wsLU5sPCP23Fwm5Qx8KlYsTCm0XCwnhexcLsTsPCSMPDwjvJw8LMWcHC2XHD&#xD;&#xa;wjj5wsICs8TChWvEwgCywcKDdcHCFnHCwurMxMLlVsTCfrDGwmzqyMKoGsfC7ITIwtqRyMJwzcbC&#xD;&#xa;ppbEwiv5xcIXxsTCzDfCwtSExMKEjcTC8ObDwiJ9yMIQm8vCIkDGwqHyxcIyYcbCyAXIwmyBx8I4&#xD;&#xa;n8PCvyPGwuiKxMJggMfCdL3JwsMhysLi6sXCRa7Ewoykx8Jk/MXC0NfEwtK0xcJQTMTCvvvGwtqJ&#xD;&#xa;xMKmFsTCSbfGwq76x8IQ+sjCsqnIwkJdycIaT8fC0nbHwlf2xsLg/cbCtIHHwsTvxsI0KsbCsqDH&#xD;&#xa;wgLix8JGKcXCyNTDwjDwwsIb98bC6MjJwg6Zy8Kg+cvCaC3HwtIgw8KW7sXC3EHGwmcUxcL++8fC&#xD;&#xa;CWbIwsDoxsJFz8PCJkXFwiD7xcIQDsfC8ljIwrDLxMKkeMLClpHEwiqgyMJcjcjC6krGwl50w8Iy&#xD;&#xa;7sXCWv3HwkQ1xsKUwMPC2K/EwootxMJUqMTCH3LDwuojxcKil8fCjmXIwkLJxcID78TClTvGwhel&#xD;&#xa;xsIca8bC1rbCwk6+wsIQfsfCIlPHwpJExcLWhMbCDNvEwuryxMKklMXCeBDDwolhwcIiasLCQYfE&#xD;&#xa;whUfwsJx4MTCsEnIwkX0xcK+3sbCIqLHwrARx8IWtMTCGAnFwomNxMLfbcTCQIPDwjqww8L+MMTC&#xD;&#xa;mqjHwrBaxMI6YsTCxmvIwqyKycKQaMXCnx7FwkYvx8In6sjCGMzIwuvAxcL8a8XCiBjJwkvwyMKI&#xD;&#xa;qMbCTCTIwvQSy8IxEsvCVT/JwrI3w8LA8sLCCD7EwsxXxMJSjsXCfjXFwqTKxMI/gsPCDozDwtwF&#xD;&#xa;xMISn8bChHvJwlFQyMJYCsbCP4jIwtkBycLiFsrCbCrKwvyTysIWncnC+A3HwuI5x8I8/MbC0hHI&#xD;&#xa;wopJzMLmb83CFkvMwpy/y8Kn7MrCfJrJwuLDyMJKn8bCStTGwpb7ycIMo8nCcivFwsapxcJkx8bC&#xD;&#xa;ALLIwriaycJM3cfC8r/KwlSoy8I4A8vCpFHJwkRrzMIKr87CWD7MwsiJycKW9cfCUjbKwq+YycLi&#xD;&#xa;U8jCROHHwhdWycKaU8nCF7jMwmKaz8L//8zC8tjOwjxezsIUysvCzHLJwiJryMLRm8bCgLjKwsi8&#xD;&#xa;ysIhfszCPETLwqtbyMJGeMfCpRPJwnwZzMJSIs3CqhPMwmDiyMLZYsjCz13KwgwKy8LCi8jCyrTM&#xD;&#xa;wgwxzMK4ZcvC087JwkV2xsLyXsnCjIbLwhwvzcLfrM7CeITKwla3ysLK3cnC/PHFwpScxcIUQ8nC&#xD;&#xa;NJzIwrEsxsJvZcfCXSvIwlKLx8JII8nCvgzKwpnhysJSC8vC9iTKwiA/y8IadczCuDrMwuVaysLO&#xD;&#xa;r8vCXtfJwrZ6ycItucnCtonJwjyTysJkC83CL0nMwkjdyMIBucfCixrLwvSDysKGX8nCsCzMwuas&#xD;&#xa;0cIsnNPCuEvOwtr5y8LMBc7Cr+PTwsQc5MLcOfPCKOj0wjr59cJ0C/fCzg75wkwh+8LmVPnCqz72&#xD;&#xa;wnB+9cLuJvrCtEL4wkp7+MLOfffCDN3zwkaz9sLi8vjCFKr6wgIQ+cI8iPjCBpT4wvR1+MLQI/rC&#xD;&#xa;Ihn8wlQg+sIcLvjCVCz2wsI49MJQ9fbC23H3woy69sL4BfnCIOb2wjwy9cIuGvnCdmb3wj7K9MI+&#xD;&#xa;KPXCJpr2wn7C9cKQDvnCthv7woaP+cLGaPbCTr32wrpN+cIFSPjCDvX4wtD39sJY//TCKGf3wvZI&#xD;&#xa;+cK9YvfCgYf3wjIf+sLMMvfCpjz2wuA6+cII8vbCxDv1wmJG9sLka/rCPrT1wi589cLqjfbC9qP4&#xD;&#xa;wgzJ+MLelPbCGir2wlBC9sKeU/jC/nn3wsYn9sL4QPjCXBj5wopQ+MIaJvnCSB36wgjc+MIMfPfC&#xD;&#xa;W+z1wmYG+MKuxPnCCuD1wjh+9sLDrPfCOPj3wm7h+MJjMvfCxH/2wsXf98KwN/nCKOn5wrLR+sKg&#xD;&#xa;bPvCkFv5wsAu+cL2hffCySz2wmRX+MKiiPjCzFX4wvjB98Jgz/fCxPT4wobP+cL8avjC9r34wnKx&#xD;&#xa;+MK+LPnC3H34wle39cKejfbCNKP2wg5B9sK0H/rCSvz2woqE98JAqfjCBPL4wmKi+MIu2/jCMFD5&#xD;&#xa;wiCM+cKo//nCGqz7wlZN+sKUDfjC0ov4wrIU+sIVpffCP2/3woye98KktPbCTJj2wpH29cL3mvbC&#xD;&#xa;jL/4wti/+MLm3vjCQ9QE" leadInLength="0/1"  />
            </Keyframes>
           </Parameter>
           </Parameters>
          </GenericEffect>
          <GenericEffect id="2523" name = "WinCompression" >
           <Parameters>
           <InterpolatingParam id="2524" interp="linr"  time="0/1" value="0" leadInLength="0/1"   name="attack"/>
           <InterpolatingParam id="2525" interp="linr"  time="0/1" value="9" leadInLength="0/1"   name="gain"/>
           <Parameter id="2526"   name="preset">
            <Keyframes>
            <Keyframe id="2527"  time="0/1" value="1" leadInLength="0/1"  />
            </Keyframes>
           </Parameter>
           <InterpolatingParam id="2528" interp="linr"  time="0/1" value="10" leadInLength="0/1"   name="ratio"/>
           <InterpolatingParam id="2529" interp="linr"  time="0/1" value="3500" leadInLength="0/1"   name="release"/>
           <InterpolatingParam id="2530" interp="linr"  time="0/1" value="-20" leadInLength="0/1"   name="threshold"/>
           </Parameters>
          </GenericEffect>
          <GenericEffect id="2531" name = "Declipper" >
           <Parameters>
           <InterpolatingParam id="2532" interp="linr"  time="0/1" value="-1" leadInLength="0/1"   name="sensitivity"/>
           </Parameters>
          </GenericEffect>
          <GenericEffect id="2533" name = "Declicker" >
           <Parameters>
           <InterpolatingParam id="2534" interp="linr"  time="0/1" value="3" leadInLength="0/1"   name="sensitivity"/>
           </Parameters>
          </GenericEffect>
         </Effects>
         <Attributes>
          <Attribute id="2535" value="" name="ident"/>
          <Attribute id="2536" value="44100" name="sampleRate"/>
          <Attribute id="2537" value="16" name="bitDepth"/>
          <Attribute id="2538" value="1" name="gain"/>
          <Attribute id="2539" value="0" name="mixToMono"/>
         </Attributes>
         <MetaData>
          <entry key="WinSubProjectDisplayName" val=""/>
         </MetaData>
        </AMFile>
        <AMFile id="2540" start="6026" duration="99" scalar="1/1" mediaStart="8278/1" mediaDuration="99/1" trackNumber="0" src="22" channelNumber="0" >
         <Parameters>
          <InterpolatingParam id="2541" interp="linr"  name="volume">
           <Keyframes>
           <Keyframe id="2542"  time="0/1" value="1" leadInLength="0/1"  />
           <Keyframe id="2543"  time="3301/1" value="1" leadInLength="0/1"  />
           <Keyframe id="2544"  time="3302/1" value="0.80000000000000004" leadInLength="0/1"  />
           <Keyframe id="2545"  time="14568/1" value="0.80000000000000004" leadInLength="0/1"  />
           <Keyframe id="2546"  time="14569/1" value="1" leadInLength="0/1"  />
           </Keyframes>
          </InterpolatingParam>
          <Parameter id="2547"  name="captions"/>
         </Parameters>
         <Effects>
          <GenericEffect id="2548" name = "NoiseReduction" >
           <Parameters>
           <InterpolatingParam id="2549" interp="linr"  time="0/1" value="20" leadInLength="0/1"   name="denoiserAmount"/>
           <InterpolatingParam id="2550" interp="linr"  time="0/1" value="0" leadInLength="0/1"   name="denoiserThreshold"/>
           <Parameter id="2551"   name="noiseProfile">
            <Keyframes>
            <Keyframe id="2552"  time="0/1" value="FBAAAAIAAABErAAAAQIAADOmYsI/y13CPNeLwsehjcK+No/Cm+aOwlHvjcIja5HCun6XwoKemMJy&#xD;&#xa;lpPCuQeRwhgMlcJGdZvCTjScwgFMncIGh5zCGrOawuO0nMJdJZ3Cybudwo6toMIdraPCs/6jwpY0&#xD;&#xa;psLIUqjCWQmpwonmp8KcE6XCgXGlwqC+psIFHabCBoyownWvqcIkX6jCgnCpwms3qsIW0KfCM7Oj&#xD;&#xa;wnGLosJgcKnCdk6swiIgscKFrbDCtNmowrZmpcIHYqjCCg2pwqUNq8KgHq7ChEGxwhVFs8KU6LLC&#xD;&#xa;dvWzwpVHscI6NrDCMpGwwubcs8Imh7bCPKq6wj7tvMKSbr3ClsG+wq4qwMLXQr7CpAK5whxiuMJp&#xD;&#xa;v7nCwu29wloQvsIXTL3CzjDAwsDTwcL69sHC8urAwtAFwMIkSMLCpJHDwjLOw8JG8sTCmMvDwq7H&#xD;&#xa;wsLOncPC+CDDwkh6wsLU5sPCP23Fwm5Qx8KlYsTCm0XCwnhexcLsTsPCSMPDwjvJw8LMWcHC2XHD&#xD;&#xa;wjj5wsICs8TChWvEwgCywcKDdcHCFnHCwurMxMLlVsTCfrDGwmzqyMKoGsfC7ITIwtqRyMJwzcbC&#xD;&#xa;ppbEwiv5xcIXxsTCzDfCwtSExMKEjcTC8ObDwiJ9yMIQm8vCIkDGwqHyxcIyYcbCyAXIwmyBx8I4&#xD;&#xa;n8PCvyPGwuiKxMJggMfCdL3JwsMhysLi6sXCRa7Ewoykx8Jk/MXC0NfEwtK0xcJQTMTCvvvGwtqJ&#xD;&#xa;xMKmFsTCSbfGwq76x8IQ+sjCsqnIwkJdycIaT8fC0nbHwlf2xsLg/cbCtIHHwsTvxsI0KsbCsqDH&#xD;&#xa;wgLix8JGKcXCyNTDwjDwwsIb98bC6MjJwg6Zy8Kg+cvCaC3HwtIgw8KW7sXC3EHGwmcUxcL++8fC&#xD;&#xa;CWbIwsDoxsJFz8PCJkXFwiD7xcIQDsfC8ljIwrDLxMKkeMLClpHEwiqgyMJcjcjC6krGwl50w8Iy&#xD;&#xa;7sXCWv3HwkQ1xsKUwMPC2K/EwootxMJUqMTCH3LDwuojxcKil8fCjmXIwkLJxcID78TClTvGwhel&#xD;&#xa;xsIca8bC1rbCwk6+wsIQfsfCIlPHwpJExcLWhMbCDNvEwuryxMKklMXCeBDDwolhwcIiasLCQYfE&#xD;&#xa;whUfwsJx4MTCsEnIwkX0xcK+3sbCIqLHwrARx8IWtMTCGAnFwomNxMLfbcTCQIPDwjqww8L+MMTC&#xD;&#xa;mqjHwrBaxMI6YsTCxmvIwqyKycKQaMXCnx7FwkYvx8In6sjCGMzIwuvAxcL8a8XCiBjJwkvwyMKI&#xD;&#xa;qMbCTCTIwvQSy8IxEsvCVT/JwrI3w8LA8sLCCD7EwsxXxMJSjsXCfjXFwqTKxMI/gsPCDozDwtwF&#xD;&#xa;xMISn8bChHvJwlFQyMJYCsbCP4jIwtkBycLiFsrCbCrKwvyTysIWncnC+A3HwuI5x8I8/MbC0hHI&#xD;&#xa;wopJzMLmb83CFkvMwpy/y8Kn7MrCfJrJwuLDyMJKn8bCStTGwpb7ycIMo8nCcivFwsapxcJkx8bC&#xD;&#xa;ALLIwriaycJM3cfC8r/KwlSoy8I4A8vCpFHJwkRrzMIKr87CWD7MwsiJycKW9cfCUjbKwq+YycLi&#xD;&#xa;U8jCROHHwhdWycKaU8nCF7jMwmKaz8L//8zC8tjOwjxezsIUysvCzHLJwiJryMLRm8bCgLjKwsi8&#xD;&#xa;ysIhfszCPETLwqtbyMJGeMfCpRPJwnwZzMJSIs3CqhPMwmDiyMLZYsjCz13KwgwKy8LCi8jCyrTM&#xD;&#xa;wgwxzMK4ZcvC087JwkV2xsLyXsnCjIbLwhwvzcLfrM7CeITKwla3ysLK3cnC/PHFwpScxcIUQ8nC&#xD;&#xa;NJzIwrEsxsJvZcfCXSvIwlKLx8JII8nCvgzKwpnhysJSC8vC9iTKwiA/y8IadczCuDrMwuVaysLO&#xD;&#xa;r8vCXtfJwrZ6ycItucnCtonJwjyTysJkC83CL0nMwkjdyMIBucfCixrLwvSDysKGX8nCsCzMwuas&#xD;&#xa;0cIsnNPCuEvOwtr5y8LMBc7Cr+PTwsQc5MLcOfPCKOj0wjr59cJ0C/fCzg75wkwh+8LmVPnCqz72&#xD;&#xa;wnB+9cLuJvrCtEL4wkp7+MLOfffCDN3zwkaz9sLi8vjCFKr6wgIQ+cI8iPjCBpT4wvR1+MLQI/rC&#xD;&#xa;Ihn8wlQg+sIcLvjCVCz2wsI49MJQ9fbC23H3woy69sL4BfnCIOb2wjwy9cIuGvnCdmb3wj7K9MI+&#xD;&#xa;KPXCJpr2wn7C9cKQDvnCthv7woaP+cLGaPbCTr32wrpN+cIFSPjCDvX4wtD39sJY//TCKGf3wvZI&#xD;&#xa;+cK9YvfCgYf3wjIf+sLMMvfCpjz2wuA6+cII8vbCxDv1wmJG9sLka/rCPrT1wi589cLqjfbC9qP4&#xD;&#xa;wgzJ+MLelPbCGir2wlBC9sKeU/jC/nn3wsYn9sL4QPjCXBj5wopQ+MIaJvnCSB36wgjc+MIMfPfC&#xD;&#xa;W+z1wmYG+MKuxPnCCuD1wjh+9sLDrPfCOPj3wm7h+MJjMvfCxH/2wsXf98KwN/nCKOn5wrLR+sKg&#xD;&#xa;bPvCkFv5wsAu+cL2hffCySz2wmRX+MKiiPjCzFX4wvjB98Jgz/fCxPT4wobP+cL8avjC9r34wnKx&#xD;&#xa;+MK+LPnC3H34wle39cKejfbCNKP2wg5B9sK0H/rCSvz2woqE98JAqfjCBPL4wmKi+MIu2/jCMFD5&#xD;&#xa;wiCM+cKo//nCGqz7wlZN+sKUDfjC0ov4wrIU+sIVpffCP2/3woye98KktPbCTJj2wpH29cL3mvbC&#xD;&#xa;jL/4wti/+MLm3vjCQ9QEwzOmYsI/y13CPNeLwsehjcK+No/Cm+aOwlHvjcIja5HCun6XwoKemMJy&#xD;&#xa;lpPCuQeRwhgMlcJGdZvCTjScwgFMncIGh5zCGrOawuO0nMJdJZ3Cybudwo6toMIdraPCs/6jwpY0&#xD;&#xa;psLIUqjCWQmpwonmp8KcE6XCgXGlwqC+psIFHabCBoyownWvqcIkX6jCgnCpwms3qsIW0KfCM7Oj&#xD;&#xa;wnGLosJgcKnCdk6swiIgscKFrbDCtNmowrZmpcIHYqjCCg2pwqUNq8KgHq7ChEGxwhVFs8KU6LLC&#xD;&#xa;dvWzwpVHscI6NrDCMpGwwubcs8Imh7bCPKq6wj7tvMKSbr3ClsG+wq4qwMLXQr7CpAK5whxiuMJp&#xD;&#xa;v7nCwu29wloQvsIXTL3CzjDAwsDTwcL69sHC8urAwtAFwMIkSMLCpJHDwjLOw8JG8sTCmMvDwq7H&#xD;&#xa;wsLOncPC+CDDwkh6wsLU5sPCP23Fwm5Qx8KlYsTCm0XCwnhexcLsTsPCSMPDwjvJw8LMWcHC2XHD&#xD;&#xa;wjj5wsICs8TChWvEwgCywcKDdcHCFnHCwurMxMLlVsTCfrDGwmzqyMKoGsfC7ITIwtqRyMJwzcbC&#xD;&#xa;ppbEwiv5xcIXxsTCzDfCwtSExMKEjcTC8ObDwiJ9yMIQm8vCIkDGwqHyxcIyYcbCyAXIwmyBx8I4&#xD;&#xa;n8PCvyPGwuiKxMJggMfCdL3JwsMhysLi6sXCRa7Ewoykx8Jk/MXC0NfEwtK0xcJQTMTCvvvGwtqJ&#xD;&#xa;xMKmFsTCSbfGwq76x8IQ+sjCsqnIwkJdycIaT8fC0nbHwlf2xsLg/cbCtIHHwsTvxsI0KsbCsqDH&#xD;&#xa;wgLix8JGKcXCyNTDwjDwwsIb98bC6MjJwg6Zy8Kg+cvCaC3HwtIgw8KW7sXC3EHGwmcUxcL++8fC&#xD;&#xa;CWbIwsDoxsJFz8PCJkXFwiD7xcIQDsfC8ljIwrDLxMKkeMLClpHEwiqgyMJcjcjC6krGwl50w8Iy&#xD;&#xa;7sXCWv3HwkQ1xsKUwMPC2K/EwootxMJUqMTCH3LDwuojxcKil8fCjmXIwkLJxcID78TClTvGwhel&#xD;&#xa;xsIca8bC1rbCwk6+wsIQfsfCIlPHwpJExcLWhMbCDNvEwuryxMKklMXCeBDDwolhwcIiasLCQYfE&#xD;&#xa;whUfwsJx4MTCsEnIwkX0xcK+3sbCIqLHwrARx8IWtMTCGAnFwomNxMLfbcTCQIPDwjqww8L+MMTC&#xD;&#xa;mqjHwrBaxMI6YsTCxmvIwqyKycKQaMXCnx7FwkYvx8In6sjCGMzIwuvAxcL8a8XCiBjJwkvwyMKI&#xD;&#xa;qMbCTCTIwvQSy8IxEsvCVT/JwrI3w8LA8sLCCD7EwsxXxMJSjsXCfjXFwqTKxMI/gsPCDozDwtwF&#xD;&#xa;xMISn8bChHvJwlFQyMJYCsbCP4jIwtkBycLiFsrCbCrKwvyTysIWncnC+A3HwuI5x8I8/MbC0hHI&#xD;&#xa;wopJzMLmb83CFkvMwpy/y8Kn7MrCfJrJwuLDyMJKn8bCStTGwpb7ycIMo8nCcivFwsapxcJkx8bC&#xD;&#xa;ALLIwriaycJM3cfC8r/KwlSoy8I4A8vCpFHJwkRrzMIKr87CWD7MwsiJycKW9cfCUjbKwq+YycLi&#xD;&#xa;U8jCROHHwhdWycKaU8nCF7jMwmKaz8L//8zC8tjOwjxezsIUysvCzHLJwiJryMLRm8bCgLjKwsi8&#xD;&#xa;ysIhfszCPETLwqtbyMJGeMfCpRPJwnwZzMJSIs3CqhPMwmDiyMLZYsjCz13KwgwKy8LCi8jCyrTM&#xD;&#xa;wgwxzMK4ZcvC087JwkV2xsLyXsnCjIbLwhwvzcLfrM7CeITKwla3ysLK3cnC/PHFwpScxcIUQ8nC&#xD;&#xa;NJzIwrEsxsJvZcfCXSvIwlKLx8JII8nCvgzKwpnhysJSC8vC9iTKwiA/y8IadczCuDrMwuVaysLO&#xD;&#xa;r8vCXtfJwrZ6ycItucnCtonJwjyTysJkC83CL0nMwkjdyMIBucfCixrLwvSDysKGX8nCsCzMwuas&#xD;&#xa;0cIsnNPCuEvOwtr5y8LMBc7Cr+PTwsQc5MLcOfPCKOj0wjr59cJ0C/fCzg75wkwh+8LmVPnCqz72&#xD;&#xa;wnB+9cLuJvrCtEL4wkp7+MLOfffCDN3zwkaz9sLi8vjCFKr6wgIQ+cI8iPjCBpT4wvR1+MLQI/rC&#xD;&#xa;Ihn8wlQg+sIcLvjCVCz2wsI49MJQ9fbC23H3woy69sL4BfnCIOb2wjwy9cIuGvnCdmb3wj7K9MI+&#xD;&#xa;KPXCJpr2wn7C9cKQDvnCthv7woaP+cLGaPbCTr32wrpN+cIFSPjCDvX4wtD39sJY//TCKGf3wvZI&#xD;&#xa;+cK9YvfCgYf3wjIf+sLMMvfCpjz2wuA6+cII8vbCxDv1wmJG9sLka/rCPrT1wi589cLqjfbC9qP4&#xD;&#xa;wgzJ+MLelPbCGir2wlBC9sKeU/jC/nn3wsYn9sL4QPjCXBj5wopQ+MIaJvnCSB36wgjc+MIMfPfC&#xD;&#xa;W+z1wmYG+MKuxPnCCuD1wjh+9sLDrPfCOPj3wm7h+MJjMvfCxH/2wsXf98KwN/nCKOn5wrLR+sKg&#xD;&#xa;bPvCkFv5wsAu+cL2hffCySz2wmRX+MKiiPjCzFX4wvjB98Jgz/fCxPT4wobP+cL8avjC9r34wnKx&#xD;&#xa;+MK+LPnC3H34wle39cKejfbCNKP2wg5B9sK0H/rCSvz2woqE98JAqfjCBPL4wmKi+MIu2/jCMFD5&#xD;&#xa;wiCM+cKo//nCGqz7wlZN+sKUDfjC0ov4wrIU+sIVpffCP2/3woye98KktPbCTJj2wpH29cL3mvbC&#xD;&#xa;jL/4wti/+MLm3vjCQ9QE" leadInLength="0/1"  />
            </Keyframes>
           </Parameter>
           </Parameters>
          </GenericEffect>
          <GenericEffect id="2553" name = "WinCompression" >
           <Parameters>
           <InterpolatingParam id="2554" interp="linr"  time="0/1" value="0" leadInLength="0/1"   name="attack"/>
           <InterpolatingParam id="2555" interp="linr"  time="0/1" value="9" leadInLength="0/1"   name="gain"/>
           <Parameter id="2556"   name="preset">
            <Keyframes>
            <Keyframe id="2557"  time="0/1" value="1" leadInLength="0/1"  />
            </Keyframes>
           </Parameter>
           <InterpolatingParam id="2558" interp="linr"  time="0/1" value="10" leadInLength="0/1"   name="ratio"/>
           <InterpolatingParam id="2559" interp="linr"  time="0/1" value="3500" leadInLength="0/1"   name="release"/>
           <InterpolatingParam id="2560" interp="linr"  time="0/1" value="-20" leadInLength="0/1"   name="threshold"/>
           </Parameters>
          </GenericEffect>
          <GenericEffect id="2561" name = "Declipper" >
           <Parameters>
           <InterpolatingParam id="2562" interp="linr"  time="0/1" value="-1" leadInLength="0/1"   name="sensitivity"/>
           </Parameters>
          </GenericEffect>
          <GenericEffect id="2563" name = "Declicker" >
           <Parameters>
           <InterpolatingParam id="2564" interp="linr"  time="0/1" value="3" leadInLength="0/1"   name="sensitivity"/>
           </Parameters>
          </GenericEffect>
         </Effects>
         <Attributes>
          <Attribute id="2565" value="" name="ident"/>
          <Attribute id="2566" value="44100" name="sampleRate"/>
          <Attribute id="2567" value="16" name="bitDepth"/>
          <Attribute id="2568" value="1" name="gain"/>
          <Attribute id="2569" value="0" name="mixToMono"/>
         </Attributes>
         <MetaData>
          <entry key="WinSubProjectDisplayName" val=""/>
         </MetaData>
        </AMFile>
        <StitchedMedia id="2570" start="6147" duration="139" scalar="1/1" mediaStart="8745/1" mediaDuration="139/1" minMediaStart="0/1" >
         <Transformer>
          <VectorParam id="2571"  name="translation">
           <InterpolatingParam id="2572" interp="linr"  time="0/1" value="0" leadInLength="0/1"  />
           <InterpolatingParam id="2573" interp="linr"  time="0/1" value="0" leadInLength="0/1"  />
           <InterpolatingParam id="2574" interp="linr"  time="0/1" value="0" leadInLength="0/1"  />
          </VectorParam>
          <VectorParam id="2575"  name="rotation">
           <InterpolatingParam id="2576" interp="linr"  time="0/1" value="0" leadInLength="0/1"  />
           <InterpolatingParam id="2577" interp="linr"  time="0/1" value="0" leadInLength="0/1"  />
           <InterpolatingParam id="2578" interp="linr"  time="0/1" value="0" leadInLength="0/1"  />
          </VectorParam>
          <VectorParam id="2579"  name="shear">
           <InterpolatingParam id="2580" interp="linr"  time="0/1" value="0" leadInLength="0/1"  />
           <InterpolatingParam id="2581" interp="linr"  time="0/1" value="0" leadInLength="0/1"  />
           <InterpolatingParam id="2582" interp="linr"  time="0/1" value="0" leadInLength="0/1"  />
          </VectorParam>
          <VectorParam id="2583"  name="scale">
           <InterpolatingParam id="2584" interp="linr"  time="0/1" value="1" leadInLength="0/1"  />
           <InterpolatingParam id="2585" interp="linr"  time="0/1" value="1" leadInLength="0/1"  />
           <InterpolatingParam id="2586" interp="linr"  time="0/1" value="1" leadInLength="0/1"  />
          </VectorParam>
          <VectorParam id="2587"  name="anchor">
           <InterpolatingParam id="2588" interp="linr"  time="0/1" value="0" leadInLength="0/1"  />
           <InterpolatingParam id="2589" interp="linr"  time="0/1" value="0" leadInLength="0/1"  />
           <InterpolatingParam id="2590" interp="linr"  time="0/1" value="0" leadInLength="0/1"  />
          </VectorParam>
         </Transformer>
         <Parameters>
          <InterpolatingParam id="2591" interp="linr"  time="0/1" value="1" leadInLength="0/1"  name="cursorOpacity"/>
          <InterpolatingParam id="2592" interp="linr"  time="0/1" value="1" leadInLength="0/1"  name="cursorScale"/>
          <InterpolatingParam id="2593" interp="linr"  name="volume">
           <Keyframes>
           <Keyframe id="2594"  time="0/1" value="1" leadInLength="0/1"  />
           <Keyframe id="2595"  time="3301/1" value="1" leadInLength="0/1"  />
           <Keyframe id="2596"  time="3302/1" value="0.80000000000000004" leadInLength="0/1"  />
           <Keyframe id="2597"  time="14568/1" value="0.80000000000000004" leadInLength="0/1"  />
           <Keyframe id="2598"  time="14569/1" value="1" leadInLength="0/1"  />
           </Keyframes>
          </InterpolatingParam>
          <Parameter id="2599"  name="captions"/>
         </Parameters>
         <Effects>
          <GenericEffect id="2600" name = "NoiseReduction" >
           <Parameters>
           <InterpolatingParam id="2601" interp="linr"  time="0/1" value="20" leadInLength="0/1"   name="denoiserAmount"/>
           <InterpolatingParam id="2602" interp="linr"  time="0/1" value="0" leadInLength="0/1"   name="denoiserThreshold"/>
           <Parameter id="2603"   name="noiseProfile">
            <Keyframes>
            <Keyframe id="2604"  time="0/1" value="FBAAAAIAAABErAAAAQIAADOmYsI/y13CPNeLwsehjcK+No/Cm+aOwlHvjcIja5HCun6XwoKemMJy&#xD;&#xa;lpPCuQeRwhgMlcJGdZvCTjScwgFMncIGh5zCGrOawuO0nMJdJZ3Cybudwo6toMIdraPCs/6jwpY0&#xD;&#xa;psLIUqjCWQmpwonmp8KcE6XCgXGlwqC+psIFHabCBoyownWvqcIkX6jCgnCpwms3qsIW0KfCM7Oj&#xD;&#xa;wnGLosJgcKnCdk6swiIgscKFrbDCtNmowrZmpcIHYqjCCg2pwqUNq8KgHq7ChEGxwhVFs8KU6LLC&#xD;&#xa;dvWzwpVHscI6NrDCMpGwwubcs8Imh7bCPKq6wj7tvMKSbr3ClsG+wq4qwMLXQr7CpAK5whxiuMJp&#xD;&#xa;v7nCwu29wloQvsIXTL3CzjDAwsDTwcL69sHC8urAwtAFwMIkSMLCpJHDwjLOw8JG8sTCmMvDwq7H&#xD;&#xa;wsLOncPC+CDDwkh6wsLU5sPCP23Fwm5Qx8KlYsTCm0XCwnhexcLsTsPCSMPDwjvJw8LMWcHC2XHD&#xD;&#xa;wjj5wsICs8TChWvEwgCywcKDdcHCFnHCwurMxMLlVsTCfrDGwmzqyMKoGsfC7ITIwtqRyMJwzcbC&#xD;&#xa;ppbEwiv5xcIXxsTCzDfCwtSExMKEjcTC8ObDwiJ9yMIQm8vCIkDGwqHyxcIyYcbCyAXIwmyBx8I4&#xD;&#xa;n8PCvyPGwuiKxMJggMfCdL3JwsMhysLi6sXCRa7Ewoykx8Jk/MXC0NfEwtK0xcJQTMTCvvvGwtqJ&#xD;&#xa;xMKmFsTCSbfGwq76x8IQ+sjCsqnIwkJdycIaT8fC0nbHwlf2xsLg/cbCtIHHwsTvxsI0KsbCsqDH&#xD;&#xa;wgLix8JGKcXCyNTDwjDwwsIb98bC6MjJwg6Zy8Kg+cvCaC3HwtIgw8KW7sXC3EHGwmcUxcL++8fC&#xD;&#xa;CWbIwsDoxsJFz8PCJkXFwiD7xcIQDsfC8ljIwrDLxMKkeMLClpHEwiqgyMJcjcjC6krGwl50w8Iy&#xD;&#xa;7sXCWv3HwkQ1xsKUwMPC2K/EwootxMJUqMTCH3LDwuojxcKil8fCjmXIwkLJxcID78TClTvGwhel&#xD;&#xa;xsIca8bC1rbCwk6+wsIQfsfCIlPHwpJExcLWhMbCDNvEwuryxMKklMXCeBDDwolhwcIiasLCQYfE&#xD;&#xa;whUfwsJx4MTCsEnIwkX0xcK+3sbCIqLHwrARx8IWtMTCGAnFwomNxMLfbcTCQIPDwjqww8L+MMTC&#xD;&#xa;mqjHwrBaxMI6YsTCxmvIwqyKycKQaMXCnx7FwkYvx8In6sjCGMzIwuvAxcL8a8XCiBjJwkvwyMKI&#xD;&#xa;qMbCTCTIwvQSy8IxEsvCVT/JwrI3w8LA8sLCCD7EwsxXxMJSjsXCfjXFwqTKxMI/gsPCDozDwtwF&#xD;&#xa;xMISn8bChHvJwlFQyMJYCsbCP4jIwtkBycLiFsrCbCrKwvyTysIWncnC+A3HwuI5x8I8/MbC0hHI&#xD;&#xa;wopJzMLmb83CFkvMwpy/y8Kn7MrCfJrJwuLDyMJKn8bCStTGwpb7ycIMo8nCcivFwsapxcJkx8bC&#xD;&#xa;ALLIwriaycJM3cfC8r/KwlSoy8I4A8vCpFHJwkRrzMIKr87CWD7MwsiJycKW9cfCUjbKwq+YycLi&#xD;&#xa;U8jCROHHwhdWycKaU8nCF7jMwmKaz8L//8zC8tjOwjxezsIUysvCzHLJwiJryMLRm8bCgLjKwsi8&#xD;&#xa;ysIhfszCPETLwqtbyMJGeMfCpRPJwnwZzMJSIs3CqhPMwmDiyMLZYsjCz13KwgwKy8LCi8jCyrTM&#xD;&#xa;wgwxzMK4ZcvC087JwkV2xsLyXsnCjIbLwhwvzcLfrM7CeITKwla3ysLK3cnC/PHFwpScxcIUQ8nC&#xD;&#xa;NJzIwrEsxsJvZcfCXSvIwlKLx8JII8nCvgzKwpnhysJSC8vC9iTKwiA/y8IadczCuDrMwuVaysLO&#xD;&#xa;r8vCXtfJwrZ6ycItucnCtonJwjyTysJkC83CL0nMwkjdyMIBucfCixrLwvSDysKGX8nCsCzMwuas&#xD;&#xa;0cIsnNPCuEvOwtr5y8LMBc7Cr+PTwsQc5MLcOfPCKOj0wjr59cJ0C/fCzg75wkwh+8LmVPnCqz72&#xD;&#xa;wnB+9cLuJvrCtEL4wkp7+MLOfffCDN3zwkaz9sLi8vjCFKr6wgIQ+cI8iPjCBpT4wvR1+MLQI/rC&#xD;&#xa;Ihn8wlQg+sIcLvjCVCz2wsI49MJQ9fbC23H3woy69sL4BfnCIOb2wjwy9cIuGvnCdmb3wj7K9MI+&#xD;&#xa;KPXCJpr2wn7C9cKQDvnCthv7woaP+cLGaPbCTr32wrpN+cIFSPjCDvX4wtD39sJY//TCKGf3wvZI&#xD;&#xa;+cK9YvfCgYf3wjIf+sLMMvfCpjz2wuA6+cII8vbCxDv1wmJG9sLka/rCPrT1wi589cLqjfbC9qP4&#xD;&#xa;wgzJ+MLelPbCGir2wlBC9sKeU/jC/nn3wsYn9sL4QPjCXBj5wopQ+MIaJvnCSB36wgjc+MIMfPfC&#xD;&#xa;W+z1wmYG+MKuxPnCCuD1wjh+9sLDrPfCOPj3wm7h+MJjMvfCxH/2wsXf98KwN/nCKOn5wrLR+sKg&#xD;&#xa;bPvCkFv5wsAu+cL2hffCySz2wmRX+MKiiPjCzFX4wvjB98Jgz/fCxPT4wobP+cL8avjC9r34wnKx&#xD;&#xa;+MK+LPnC3H34wle39cKejfbCNKP2wg5B9sK0H/rCSvz2woqE98JAqfjCBPL4wmKi+MIu2/jCMFD5&#xD;&#xa;wiCM+cKo//nCGqz7wlZN+sKUDfjC0ov4wrIU+sIVpffCP2/3woye98KktPbCTJj2wpH29cL3mvbC&#xD;&#xa;jL/4wti/+MLm3vjCQ9QEwzOmYsI/y13CPNeLwsehjcK+No/Cm+aOwlHvjcIja5HCun6XwoKemMJy&#xD;&#xa;lpPCuQeRwhgMlcJGdZvCTjScwgFMncIGh5zCGrOawuO0nMJdJZ3Cybudwo6toMIdraPCs/6jwpY0&#xD;&#xa;psLIUqjCWQmpwonmp8KcE6XCgXGlwqC+psIFHabCBoyownWvqcIkX6jCgnCpwms3qsIW0KfCM7Oj&#xD;&#xa;wnGLosJgcKnCdk6swiIgscKFrbDCtNmowrZmpcIHYqjCCg2pwqUNq8KgHq7ChEGxwhVFs8KU6LLC&#xD;&#xa;dvWzwpVHscI6NrDCMpGwwubcs8Imh7bCPKq6wj7tvMKSbr3ClsG+wq4qwMLXQr7CpAK5whxiuMJp&#xD;&#xa;v7nCwu29wloQvsIXTL3CzjDAwsDTwcL69sHC8urAwtAFwMIkSMLCpJHDwjLOw8JG8sTCmMvDwq7H&#xD;&#xa;wsLOncPC+CDDwkh6wsLU5sPCP23Fwm5Qx8KlYsTCm0XCwnhexcLsTsPCSMPDwjvJw8LMWcHC2XHD&#xD;&#xa;wjj5wsICs8TChWvEwgCywcKDdcHCFnHCwurMxMLlVsTCfrDGwmzqyMKoGsfC7ITIwtqRyMJwzcbC&#xD;&#xa;ppbEwiv5xcIXxsTCzDfCwtSExMKEjcTC8ObDwiJ9yMIQm8vCIkDGwqHyxcIyYcbCyAXIwmyBx8I4&#xD;&#xa;n8PCvyPGwuiKxMJggMfCdL3JwsMhysLi6sXCRa7Ewoykx8Jk/MXC0NfEwtK0xcJQTMTCvvvGwtqJ&#xD;&#xa;xMKmFsTCSbfGwq76x8IQ+sjCsqnIwkJdycIaT8fC0nbHwlf2xsLg/cbCtIHHwsTvxsI0KsbCsqDH&#xD;&#xa;wgLix8JGKcXCyNTDwjDwwsIb98bC6MjJwg6Zy8Kg+cvCaC3HwtIgw8KW7sXC3EHGwmcUxcL++8fC&#xD;&#xa;CWbIwsDoxsJFz8PCJkXFwiD7xcIQDsfC8ljIwrDLxMKkeMLClpHEwiqgyMJcjcjC6krGwl50w8Iy&#xD;&#xa;7sXCWv3HwkQ1xsKUwMPC2K/EwootxMJUqMTCH3LDwuojxcKil8fCjmXIwkLJxcID78TClTvGwhel&#xD;&#xa;xsIca8bC1rbCwk6+wsIQfsfCIlPHwpJExcLWhMbCDNvEwuryxMKklMXCeBDDwolhwcIiasLCQYfE&#xD;&#xa;whUfwsJx4MTCsEnIwkX0xcK+3sbCIqLHwrARx8IWtMTCGAnFwomNxMLfbcTCQIPDwjqww8L+MMTC&#xD;&#xa;mqjHwrBaxMI6YsTCxmvIwqyKycKQaMXCnx7FwkYvx8In6sjCGMzIwuvAxcL8a8XCiBjJwkvwyMKI&#xD;&#xa;qMbCTCTIwvQSy8IxEsvCVT/JwrI3w8LA8sLCCD7EwsxXxMJSjsXCfjXFwqTKxMI/gsPCDozDwtwF&#xD;&#xa;xMISn8bChHvJwlFQyMJYCsbCP4jIwtkBycLiFsrCbCrKwvyTysIWncnC+A3HwuI5x8I8/MbC0hHI&#xD;&#xa;wopJzMLmb83CFkvMwpy/y8Kn7MrCfJrJwuLDyMJKn8bCStTGwpb7ycIMo8nCcivFwsapxcJkx8bC&#xD;&#xa;ALLIwriaycJM3cfC8r/KwlSoy8I4A8vCpFHJwkRrzMIKr87CWD7MwsiJycKW9cfCUjbKwq+YycLi&#xD;&#xa;U8jCROHHwhdWycKaU8nCF7jMwmKaz8L//8zC8tjOwjxezsIUysvCzHLJwiJryMLRm8bCgLjKwsi8&#xD;&#xa;ysIhfszCPETLwqtbyMJGeMfCpRPJwnwZzMJSIs3CqhPMwmDiyMLZYsjCz13KwgwKy8LCi8jCyrTM&#xD;&#xa;wgwxzMK4ZcvC087JwkV2xsLyXsnCjIbLwhwvzcLfrM7CeITKwla3ysLK3cnC/PHFwpScxcIUQ8nC&#xD;&#xa;NJzIwrEsxsJvZcfCXSvIwlKLx8JII8nCvgzKwpnhysJSC8vC9iTKwiA/y8IadczCuDrMwuVaysLO&#xD;&#xa;r8vCXtfJwrZ6ycItucnCtonJwjyTysJkC83CL0nMwkjdyMIBucfCixrLwvSDysKGX8nCsCzMwuas&#xD;&#xa;0cIsnNPCuEvOwtr5y8LMBc7Cr+PTwsQc5MLcOfPCKOj0wjr59cJ0C/fCzg75wkwh+8LmVPnCqz72&#xD;&#xa;wnB+9cLuJvrCtEL4wkp7+MLOfffCDN3zwkaz9sLi8vjCFKr6wgIQ+cI8iPjCBpT4wvR1+MLQI/rC&#xD;&#xa;Ihn8wlQg+sIcLvjCVCz2wsI49MJQ9fbC23H3woy69sL4BfnCIOb2wjwy9cIuGvnCdmb3wj7K9MI+&#xD;&#xa;KPXCJpr2wn7C9cKQDvnCthv7woaP+cLGaPbCTr32wrpN+cIFSPjCDvX4wtD39sJY//TCKGf3wvZI&#xD;&#xa;+cK9YvfCgYf3wjIf+sLMMvfCpjz2wuA6+cII8vbCxDv1wmJG9sLka/rCPrT1wi589cLqjfbC9qP4&#xD;&#xa;wgzJ+MLelPbCGir2wlBC9sKeU/jC/nn3wsYn9sL4QPjCXBj5wopQ+MIaJvnCSB36wgjc+MIMfPfC&#xD;&#xa;W+z1wmYG+MKuxPnCCuD1wjh+9sLDrPfCOPj3wm7h+MJjMvfCxH/2wsXf98KwN/nCKOn5wrLR+sKg&#xD;&#xa;bPvCkFv5wsAu+cL2hffCySz2wmRX+MKiiPjCzFX4wvjB98Jgz/fCxPT4wobP+cL8avjC9r34wnKx&#xD;&#xa;+MK+LPnC3H34wle39cKejfbCNKP2wg5B9sK0H/rCSvz2woqE98JAqfjCBPL4wmKi+MIu2/jCMFD5&#xD;&#xa;wiCM+cKo//nCGqz7wlZN+sKUDfjC0ov4wrIU+sIVpffCP2/3woye98KktPbCTJj2wpH29cL3mvbC&#xD;&#xa;jL/4wti/+MLm3vjCQ9QE" leadInLength="0/1"  />
            </Keyframes>
           </Parameter>
           </Parameters>
          </GenericEffect>
          <GenericEffect id="2605" name = "WinCompression" >
           <Parameters>
           <InterpolatingParam id="2606" interp="linr"  time="0/1" value="0" leadInLength="0/1"   name="attack"/>
           <InterpolatingParam id="2607" interp="linr"  time="0/1" value="9" leadInLength="0/1"   name="gain"/>
           <Parameter id="2608"   name="preset">
            <Keyframes>
            <Keyframe id="2609"  time="0/1" value="1" leadInLength="0/1"  />
            </Keyframes>
           </Parameter>
           <InterpolatingParam id="2610" interp="linr"  time="0/1" value="10" leadInLength="0/1"   name="ratio"/>
           <InterpolatingParam id="2611" interp="linr"  time="0/1" value="3500" leadInLength="0/1"   name="release"/>
           <InterpolatingParam id="2612" interp="linr"  time="0/1" value="-20" leadInLength="0/1"   name="threshold"/>
           </Parameters>
          </GenericEffect>
          <GenericEffect id="2613" name = "Declipper" >
           <Parameters>
           <InterpolatingParam id="2614" interp="linr"  time="0/1" value="-1" leadInLength="0/1"   name="sensitivity"/>
           </Parameters>
          </GenericEffect>
          <GenericEffect id="2615" name = "Declicker" >
           <Parameters>
           <InterpolatingParam id="2616" interp="linr"  time="0/1" value="3" leadInLength="0/1"   name="sensitivity"/>
           </Parameters>
          </GenericEffect>
         </Effects>
         <Attributes>
          <Attribute id="2617" value="" name="ident"/>
          <Attribute id="2618" value="0" name="mixToMono"/>
         </Attributes>
         <MetaData>
          <entry key="WinSubProjectDisplayName" val=""/>
         </MetaData>
         <ExtraData>
          <Entry key="ZoomPanBin">
           <ZoomPanBin id="2619"  >
            <ZoomPanKeyframes>
            </ZoomPanKeyframes>
           </ZoomPanBin>
          </Entry>
          <Entry key="CursorEffectBin">
           <CursorEffectBin id="2620"  >
            <CursorEffectKeyframes>
            </CursorEffectKeyframes>
           </CursorEffectBin>
          </Entry>
         </ExtraData>
         <GenericTrack id="2621"  >
          <Attributes>
           <Attribute id="2622" value="" name="ident"/>
           <Attribute id="2623" value="0" name="audioMuted"/>
           <Attribute id="2624" value="0" name="videoHidden"/>
          </Attributes>
          <MetaData>
           <entry key="IsLocked" val="False"/>
           <entry key="WinTrackHeight" val="0"/>
          </MetaData>
          <Medias>
           <AMFile id="2625" start="0" duration="8837" scalar="1/1" mediaStart="0/1" mediaDuration="8837/1" trackNumber="0" src="22" channelNumber="0" >
            <Parameters>
             <InterpolatingParam id="2626" interp="linr"  time="0/1" value="1" leadInLength="0/1"  name="volume"/>
             <Parameter id="2627"  name="captions"/>
            </Parameters>
            <Attributes>
             <Attribute id="2628" value="" name="ident"/>
             <Attribute id="2629" value="44100" name="sampleRate"/>
             <Attribute id="2630" value="16" name="bitDepth"/>
             <Attribute id="2631" value="1" name="gain"/>
             <Attribute id="2632" value="0" name="mixToMono"/>
            </Attributes>
            <MetaData>
             <entry key="WinSubProjectDisplayName" val=""/>
            </MetaData>
           </AMFile>
           <AMFile id="2633" start="8837" duration="5731" scalar="1/1" mediaStart="8837/1" mediaDuration="5731/1" trackNumber="0" src="22" channelNumber="0" >
            <Parameters>
             <InterpolatingParam id="2634" interp="linr"  time="0/1" value="1" leadInLength="0/1"  name="volume"/>
             <Parameter id="2635"  name="captions"/>
            </Parameters>
            <Attributes>
             <Attribute id="2636" value="" name="ident"/>
             <Attribute id="2637" value="44100" name="sampleRate"/>
             <Attribute id="2638" value="16" name="bitDepth"/>
             <Attribute id="2639" value="1" name="gain"/>
             <Attribute id="2640" value="0" name="mixToMono"/>
            </Attributes>
            <MetaData>
             <entry key="WinSubProjectDisplayName" val=""/>
            </MetaData>
           </AMFile>
          </Medias>
         </GenericTrack>
        </StitchedMedia>
        <AMFile id="2641" start="6307" duration="130" scalar="1/1" mediaStart="8884/1" mediaDuration="130/1" trackNumber="0" src="22" channelNumber="0" >
         <Parameters>
          <InterpolatingParam id="2642" interp="linr"  name="volume">
           <Keyframes>
           <Keyframe id="2643"  time="0/1" value="1" leadInLength="0/1"  />
           <Keyframe id="2644"  time="3301/1" value="1" leadInLength="0/1"  />
           <Keyframe id="2645"  time="3302/1" value="0.80000000000000004" leadInLength="0/1"  />
           <Keyframe id="2646"  time="14568/1" value="0.80000000000000004" leadInLength="0/1"  />
           <Keyframe id="2647"  time="14569/1" value="1" leadInLength="0/1"  />
           </Keyframes>
          </InterpolatingParam>
          <Parameter id="2648"  name="captions"/>
         </Parameters>
         <Effects>
          <GenericEffect id="2649" name = "NoiseReduction" >
           <Parameters>
           <InterpolatingParam id="2650" interp="linr"  time="0/1" value="20" leadInLength="0/1"   name="denoiserAmount"/>
           <InterpolatingParam id="2651" interp="linr"  time="0/1" value="0" leadInLength="0/1"   name="denoiserThreshold"/>
           <Parameter id="2652"   name="noiseProfile">
            <Keyframes>
            <Keyframe id="2653"  time="0/1" value="FBAAAAIAAABErAAAAQIAADOmYsI/y13CPNeLwsehjcK+No/Cm+aOwlHvjcIja5HCun6XwoKemMJy&#xD;&#xa;lpPCuQeRwhgMlcJGdZvCTjScwgFMncIGh5zCGrOawuO0nMJdJZ3Cybudwo6toMIdraPCs/6jwpY0&#xD;&#xa;psLIUqjCWQmpwonmp8KcE6XCgXGlwqC+psIFHabCBoyownWvqcIkX6jCgnCpwms3qsIW0KfCM7Oj&#xD;&#xa;wnGLosJgcKnCdk6swiIgscKFrbDCtNmowrZmpcIHYqjCCg2pwqUNq8KgHq7ChEGxwhVFs8KU6LLC&#xD;&#xa;dvWzwpVHscI6NrDCMpGwwubcs8Imh7bCPKq6wj7tvMKSbr3ClsG+wq4qwMLXQr7CpAK5whxiuMJp&#xD;&#xa;v7nCwu29wloQvsIXTL3CzjDAwsDTwcL69sHC8urAwtAFwMIkSMLCpJHDwjLOw8JG8sTCmMvDwq7H&#xD;&#xa;wsLOncPC+CDDwkh6wsLU5sPCP23Fwm5Qx8KlYsTCm0XCwnhexcLsTsPCSMPDwjvJw8LMWcHC2XHD&#xD;&#xa;wjj5wsICs8TChWvEwgCywcKDdcHCFnHCwurMxMLlVsTCfrDGwmzqyMKoGsfC7ITIwtqRyMJwzcbC&#xD;&#xa;ppbEwiv5xcIXxsTCzDfCwtSExMKEjcTC8ObDwiJ9yMIQm8vCIkDGwqHyxcIyYcbCyAXIwmyBx8I4&#xD;&#xa;n8PCvyPGwuiKxMJggMfCdL3JwsMhysLi6sXCRa7Ewoykx8Jk/MXC0NfEwtK0xcJQTMTCvvvGwtqJ&#xD;&#xa;xMKmFsTCSbfGwq76x8IQ+sjCsqnIwkJdycIaT8fC0nbHwlf2xsLg/cbCtIHHwsTvxsI0KsbCsqDH&#xD;&#xa;wgLix8JGKcXCyNTDwjDwwsIb98bC6MjJwg6Zy8Kg+cvCaC3HwtIgw8KW7sXC3EHGwmcUxcL++8fC&#xD;&#xa;CWbIwsDoxsJFz8PCJkXFwiD7xcIQDsfC8ljIwrDLxMKkeMLClpHEwiqgyMJcjcjC6krGwl50w8Iy&#xD;&#xa;7sXCWv3HwkQ1xsKUwMPC2K/EwootxMJUqMTCH3LDwuojxcKil8fCjmXIwkLJxcID78TClTvGwhel&#xD;&#xa;xsIca8bC1rbCwk6+wsIQfsfCIlPHwpJExcLWhMbCDNvEwuryxMKklMXCeBDDwolhwcIiasLCQYfE&#xD;&#xa;whUfwsJx4MTCsEnIwkX0xcK+3sbCIqLHwrARx8IWtMTCGAnFwomNxMLfbcTCQIPDwjqww8L+MMTC&#xD;&#xa;mqjHwrBaxMI6YsTCxmvIwqyKycKQaMXCnx7FwkYvx8In6sjCGMzIwuvAxcL8a8XCiBjJwkvwyMKI&#xD;&#xa;qMbCTCTIwvQSy8IxEsvCVT/JwrI3w8LA8sLCCD7EwsxXxMJSjsXCfjXFwqTKxMI/gsPCDozDwtwF&#xD;&#xa;xMISn8bChHvJwlFQyMJYCsbCP4jIwtkBycLiFsrCbCrKwvyTysIWncnC+A3HwuI5x8I8/MbC0hHI&#xD;&#xa;wopJzMLmb83CFkvMwpy/y8Kn7MrCfJrJwuLDyMJKn8bCStTGwpb7ycIMo8nCcivFwsapxcJkx8bC&#xD;&#xa;ALLIwriaycJM3cfC8r/KwlSoy8I4A8vCpFHJwkRrzMIKr87CWD7MwsiJycKW9cfCUjbKwq+YycLi&#xD;&#xa;U8jCROHHwhdWycKaU8nCF7jMwmKaz8L//8zC8tjOwjxezsIUysvCzHLJwiJryMLRm8bCgLjKwsi8&#xD;&#xa;ysIhfszCPETLwqtbyMJGeMfCpRPJwnwZzMJSIs3CqhPMwmDiyMLZYsjCz13KwgwKy8LCi8jCyrTM&#xD;&#xa;wgwxzMK4ZcvC087JwkV2xsLyXsnCjIbLwhwvzcLfrM7CeITKwla3ysLK3cnC/PHFwpScxcIUQ8nC&#xD;&#xa;NJzIwrEsxsJvZcfCXSvIwlKLx8JII8nCvgzKwpnhysJSC8vC9iTKwiA/y8IadczCuDrMwuVaysLO&#xD;&#xa;r8vCXtfJwrZ6ycItucnCtonJwjyTysJkC83CL0nMwkjdyMIBucfCixrLwvSDysKGX8nCsCzMwuas&#xD;&#xa;0cIsnNPCuEvOwtr5y8LMBc7Cr+PTwsQc5MLcOfPCKOj0wjr59cJ0C/fCzg75wkwh+8LmVPnCqz72&#xD;&#xa;wnB+9cLuJvrCtEL4wkp7+MLOfffCDN3zwkaz9sLi8vjCFKr6wgIQ+cI8iPjCBpT4wvR1+MLQI/rC&#xD;&#xa;Ihn8wlQg+sIcLvjCVCz2wsI49MJQ9fbC23H3woy69sL4BfnCIOb2wjwy9cIuGvnCdmb3wj7K9MI+&#xD;&#xa;KPXCJpr2wn7C9cKQDvnCthv7woaP+cLGaPbCTr32wrpN+cIFSPjCDvX4wtD39sJY//TCKGf3wvZI&#xD;&#xa;+cK9YvfCgYf3wjIf+sLMMvfCpjz2wuA6+cII8vbCxDv1wmJG9sLka/rCPrT1wi589cLqjfbC9qP4&#xD;&#xa;wgzJ+MLelPbCGir2wlBC9sKeU/jC/nn3wsYn9sL4QPjCXBj5wopQ+MIaJvnCSB36wgjc+MIMfPfC&#xD;&#xa;W+z1wmYG+MKuxPnCCuD1wjh+9sLDrPfCOPj3wm7h+MJjMvfCxH/2wsXf98KwN/nCKOn5wrLR+sKg&#xD;&#xa;bPvCkFv5wsAu+cL2hffCySz2wmRX+MKiiPjCzFX4wvjB98Jgz/fCxPT4wobP+cL8avjC9r34wnKx&#xD;&#xa;+MK+LPnC3H34wle39cKejfbCNKP2wg5B9sK0H/rCSvz2woqE98JAqfjCBPL4wmKi+MIu2/jCMFD5&#xD;&#xa;wiCM+cKo//nCGqz7wlZN+sKUDfjC0ov4wrIU+sIVpffCP2/3woye98KktPbCTJj2wpH29cL3mvbC&#xD;&#xa;jL/4wti/+MLm3vjCQ9QEwzOmYsI/y13CPNeLwsehjcK+No/Cm+aOwlHvjcIja5HCun6XwoKemMJy&#xD;&#xa;lpPCuQeRwhgMlcJGdZvCTjScwgFMncIGh5zCGrOawuO0nMJdJZ3Cybudwo6toMIdraPCs/6jwpY0&#xD;&#xa;psLIUqjCWQmpwonmp8KcE6XCgXGlwqC+psIFHabCBoyownWvqcIkX6jCgnCpwms3qsIW0KfCM7Oj&#xD;&#xa;wnGLosJgcKnCdk6swiIgscKFrbDCtNmowrZmpcIHYqjCCg2pwqUNq8KgHq7ChEGxwhVFs8KU6LLC&#xD;&#xa;dvWzwpVHscI6NrDCMpGwwubcs8Imh7bCPKq6wj7tvMKSbr3ClsG+wq4qwMLXQr7CpAK5whxiuMJp&#xD;&#xa;v7nCwu29wloQvsIXTL3CzjDAwsDTwcL69sHC8urAwtAFwMIkSMLCpJHDwjLOw8JG8sTCmMvDwq7H&#xD;&#xa;wsLOncPC+CDDwkh6wsLU5sPCP23Fwm5Qx8KlYsTCm0XCwnhexcLsTsPCSMPDwjvJw8LMWcHC2XHD&#xD;&#xa;wjj5wsICs8TChWvEwgCywcKDdcHCFnHCwurMxMLlVsTCfrDGwmzqyMKoGsfC7ITIwtqRyMJwzcbC&#xD;&#xa;ppbEwiv5xcIXxsTCzDfCwtSExMKEjcTC8ObDwiJ9yMIQm8vCIkDGwqHyxcIyYcbCyAXIwmyBx8I4&#xD;&#xa;n8PCvyPGwuiKxMJggMfCdL3JwsMhysLi6sXCRa7Ewoykx8Jk/MXC0NfEwtK0xcJQTMTCvvvGwtqJ&#xD;&#xa;xMKmFsTCSbfGwq76x8IQ+sjCsqnIwkJdycIaT8fC0nbHwlf2xsLg/cbCtIHHwsTvxsI0KsbCsqDH&#xD;&#xa;wgLix8JGKcXCyNTDwjDwwsIb98bC6MjJwg6Zy8Kg+cvCaC3HwtIgw8KW7sXC3EHGwmcUxcL++8fC&#xD;&#xa;CWbIwsDoxsJFz8PCJkXFwiD7xcIQDsfC8ljIwrDLxMKkeMLClpHEwiqgyMJcjcjC6krGwl50w8Iy&#xD;&#xa;7sXCWv3HwkQ1xsKUwMPC2K/EwootxMJUqMTCH3LDwuojxcKil8fCjmXIwkLJxcID78TClTvGwhel&#xD;&#xa;xsIca8bC1rbCwk6+wsIQfsfCIlPHwpJExcLWhMbCDNvEwuryxMKklMXCeBDDwolhwcIiasLCQYfE&#xD;&#xa;whUfwsJx4MTCsEnIwkX0xcK+3sbCIqLHwrARx8IWtMTCGAnFwomNxMLfbcTCQIPDwjqww8L+MMTC&#xD;&#xa;mqjHwrBaxMI6YsTCxmvIwqyKycKQaMXCnx7FwkYvx8In6sjCGMzIwuvAxcL8a8XCiBjJwkvwyMKI&#xD;&#xa;qMbCTCTIwvQSy8IxEsvCVT/JwrI3w8LA8sLCCD7EwsxXxMJSjsXCfjXFwqTKxMI/gsPCDozDwtwF&#xD;&#xa;xMISn8bChHvJwlFQyMJYCsbCP4jIwtkBycLiFsrCbCrKwvyTysIWncnC+A3HwuI5x8I8/MbC0hHI&#xD;&#xa;wopJzMLmb83CFkvMwpy/y8Kn7MrCfJrJwuLDyMJKn8bCStTGwpb7ycIMo8nCcivFwsapxcJkx8bC&#xD;&#xa;ALLIwriaycJM3cfC8r/KwlSoy8I4A8vCpFHJwkRrzMIKr87CWD7MwsiJycKW9cfCUjbKwq+YycLi&#xD;&#xa;U8jCROHHwhdWycKaU8nCF7jMwmKaz8L//8zC8tjOwjxezsIUysvCzHLJwiJryMLRm8bCgLjKwsi8&#xD;&#xa;ysIhfszCPETLwqtbyMJGeMfCpRPJwnwZzMJSIs3CqhPMwmDiyMLZYsjCz13KwgwKy8LCi8jCyrTM&#xD;&#xa;wgwxzMK4ZcvC087JwkV2xsLyXsnCjIbLwhwvzcLfrM7CeITKwla3ysLK3cnC/PHFwpScxcIUQ8nC&#xD;&#xa;NJzIwrEsxsJvZcfCXSvIwlKLx8JII8nCvgzKwpnhysJSC8vC9iTKwiA/y8IadczCuDrMwuVaysLO&#xD;&#xa;r8vCXtfJwrZ6ycItucnCtonJwjyTysJkC83CL0nMwkjdyMIBucfCixrLwvSDysKGX8nCsCzMwuas&#xD;&#xa;0cIsnNPCuEvOwtr5y8LMBc7Cr+PTwsQc5MLcOfPCKOj0wjr59cJ0C/fCzg75wkwh+8LmVPnCqz72&#xD;&#xa;wnB+9cLuJvrCtEL4wkp7+MLOfffCDN3zwkaz9sLi8vjCFKr6wgIQ+cI8iPjCBpT4wvR1+MLQI/rC&#xD;&#xa;Ihn8wlQg+sIcLvjCVCz2wsI49MJQ9fbC23H3woy69sL4BfnCIOb2wjwy9cIuGvnCdmb3wj7K9MI+&#xD;&#xa;KPXCJpr2wn7C9cKQDvnCthv7woaP+cLGaPbCTr32wrpN+cIFSPjCDvX4wtD39sJY//TCKGf3wvZI&#xD;&#xa;+cK9YvfCgYf3wjIf+sLMMvfCpjz2wuA6+cII8vbCxDv1wmJG9sLka/rCPrT1wi589cLqjfbC9qP4&#xD;&#xa;wgzJ+MLelPbCGir2wlBC9sKeU/jC/nn3wsYn9sL4QPjCXBj5wopQ+MIaJvnCSB36wgjc+MIMfPfC&#xD;&#xa;W+z1wmYG+MKuxPnCCuD1wjh+9sLDrPfCOPj3wm7h+MJjMvfCxH/2wsXf98KwN/nCKOn5wrLR+sKg&#xD;&#xa;bPvCkFv5wsAu+cL2hffCySz2wmRX+MKiiPjCzFX4wvjB98Jgz/fCxPT4wobP+cL8avjC9r34wnKx&#xD;&#xa;+MK+LPnC3H34wle39cKejfbCNKP2wg5B9sK0H/rCSvz2woqE98JAqfjCBPL4wmKi+MIu2/jCMFD5&#xD;&#xa;wiCM+cKo//nCGqz7wlZN+sKUDfjC0ov4wrIU+sIVpffCP2/3woye98KktPbCTJj2wpH29cL3mvbC&#xD;&#xa;jL/4wti/+MLm3vjCQ9QE" leadInLength="0/1"  />
            </Keyframes>
           </Parameter>
           </Parameters>
          </GenericEffect>
          <GenericEffect id="2654" name = "WinCompression" >
           <Parameters>
           <InterpolatingParam id="2655" interp="linr"  time="0/1" value="0" leadInLength="0/1"   name="attack"/>
           <InterpolatingParam id="2656" interp="linr"  time="0/1" value="9" leadInLength="0/1"   name="gain"/>
           <Parameter id="2657"   name="preset">
            <Keyframes>
            <Keyframe id="2658"  time="0/1" value="1" leadInLength="0/1"  />
            </Keyframes>
           </Parameter>
           <InterpolatingParam id="2659" interp="linr"  time="0/1" value="10" leadInLength="0/1"   name="ratio"/>
           <InterpolatingParam id="2660" interp="linr"  time="0/1" value="3500" leadInLength="0/1"   name="release"/>
           <InterpolatingParam id="2661" interp="linr"  time="0/1" value="-20" leadInLength="0/1"   name="threshold"/>
           </Parameters>
          </GenericEffect>
          <GenericEffect id="2662" name = "Declipper" >
           <Parameters>
           <InterpolatingParam id="2663" interp="linr"  time="0/1" value="-1" leadInLength="0/1"   name="sensitivity"/>
           </Parameters>
          </GenericEffect>
          <GenericEffect id="2664" name = "Declicker" >
           <Parameters>
           <InterpolatingParam id="2665" interp="linr"  time="0/1" value="3" leadInLength="0/1"   name="sensitivity"/>
           </Parameters>
          </GenericEffect>
         </Effects>
         <Attributes>
          <Attribute id="2666" value="" name="ident"/>
          <Attribute id="2667" value="44100" name="sampleRate"/>
          <Attribute id="2668" value="16" name="bitDepth"/>
          <Attribute id="2669" value="1" name="gain"/>
          <Attribute id="2670" value="0" name="mixToMono"/>
         </Attributes>
         <MetaData>
          <entry key="WinSubProjectDisplayName" val=""/>
         </MetaData>
        </AMFile>
        <StitchedMedia id="2671" start="6459" duration="995" scalar="1/1" mediaStart="9691/1" mediaDuration="995/1" minMediaStart="0/1" >
         <Transformer>
          <VectorParam id="2672"  name="translation">
           <InterpolatingParam id="2673" interp="linr"  time="0/1" value="0" leadInLength="0/1"  />
           <InterpolatingParam id="2674" interp="linr"  time="0/1" value="0" leadInLength="0/1"  />
           <InterpolatingParam id="2675" interp="linr"  time="0/1" value="0" leadInLength="0/1"  />
          </VectorParam>
          <VectorParam id="2676"  name="rotation">
           <InterpolatingParam id="2677" interp="linr"  time="0/1" value="0" leadInLength="0/1"  />
           <InterpolatingParam id="2678" interp="linr"  time="0/1" value="0" leadInLength="0/1"  />
           <InterpolatingParam id="2679" interp="linr"  time="0/1" value="0" leadInLength="0/1"  />
          </VectorParam>
          <VectorParam id="2680"  name="shear">
           <InterpolatingParam id="2681" interp="linr"  time="0/1" value="0" leadInLength="0/1"  />
           <InterpolatingParam id="2682" interp="linr"  time="0/1" value="0" leadInLength="0/1"  />
           <InterpolatingParam id="2683" interp="linr"  time="0/1" value="0" leadInLength="0/1"  />
          </VectorParam>
          <VectorParam id="2684"  name="scale">
           <InterpolatingParam id="2685" interp="linr"  time="0/1" value="1" leadInLength="0/1"  />
           <InterpolatingParam id="2686" interp="linr"  time="0/1" value="1" leadInLength="0/1"  />
           <InterpolatingParam id="2687" interp="linr"  time="0/1" value="1" leadInLength="0/1"  />
          </VectorParam>
          <VectorParam id="2688"  name="anchor">
           <InterpolatingParam id="2689" interp="linr"  time="0/1" value="0" leadInLength="0/1"  />
           <InterpolatingParam id="2690" interp="linr"  time="0/1" value="0" leadInLength="0/1"  />
           <InterpolatingParam id="2691" interp="linr"  time="0/1" value="0" leadInLength="0/1"  />
          </VectorParam>
         </Transformer>
         <Parameters>
          <InterpolatingParam id="2692" interp="linr"  time="0/1" value="1" leadInLength="0/1"  name="cursorOpacity"/>
          <InterpolatingParam id="2693" interp="linr"  time="0/1" value="1" leadInLength="0/1"  name="cursorScale"/>
          <InterpolatingParam id="2694" interp="linr"  name="volume">
           <Keyframes>
           <Keyframe id="2695"  time="0/1" value="1" leadInLength="0/1"  />
           <Keyframe id="2696"  time="3301/1" value="1" leadInLength="0/1"  />
           <Keyframe id="2697"  time="3302/1" value="0.80000000000000004" leadInLength="0/1"  />
           <Keyframe id="2698"  time="14222/1" value="0.80000000000000004" leadInLength="0/1"  />
           <Keyframe id="2699"  time="14223/1" value="1" leadInLength="0/1"  />
           </Keyframes>
          </InterpolatingParam>
          <Parameter id="2700"  name="captions"/>
         </Parameters>
         <Effects>
          <GenericEffect id="2701" name = "NoiseReduction" >
           <Parameters>
           <InterpolatingParam id="2702" interp="linr"  time="0/1" value="20" leadInLength="0/1"   name="denoiserAmount"/>
           <InterpolatingParam id="2703" interp="linr"  time="0/1" value="0" leadInLength="0/1"   name="denoiserThreshold"/>
           <Parameter id="2704"   name="noiseProfile">
            <Keyframes>
            <Keyframe id="2705"  time="0/1" value="FBAAAAIAAABErAAAAQIAADOmYsI/y13CPNeLwsehjcK+No/Cm+aOwlHvjcIja5HCun6XwoKemMJy&#xD;&#xa;lpPCuQeRwhgMlcJGdZvCTjScwgFMncIGh5zCGrOawuO0nMJdJZ3Cybudwo6toMIdraPCs/6jwpY0&#xD;&#xa;psLIUqjCWQmpwonmp8KcE6XCgXGlwqC+psIFHabCBoyownWvqcIkX6jCgnCpwms3qsIW0KfCM7Oj&#xD;&#xa;wnGLosJgcKnCdk6swiIgscKFrbDCtNmowrZmpcIHYqjCCg2pwqUNq8KgHq7ChEGxwhVFs8KU6LLC&#xD;&#xa;dvWzwpVHscI6NrDCMpGwwubcs8Imh7bCPKq6wj7tvMKSbr3ClsG+wq4qwMLXQr7CpAK5whxiuMJp&#xD;&#xa;v7nCwu29wloQvsIXTL3CzjDAwsDTwcL69sHC8urAwtAFwMIkSMLCpJHDwjLOw8JG8sTCmMvDwq7H&#xD;&#xa;wsLOncPC+CDDwkh6wsLU5sPCP23Fwm5Qx8KlYsTCm0XCwnhexcLsTsPCSMPDwjvJw8LMWcHC2XHD&#xD;&#xa;wjj5wsICs8TChWvEwgCywcKDdcHCFnHCwurMxMLlVsTCfrDGwmzqyMKoGsfC7ITIwtqRyMJwzcbC&#xD;&#xa;ppbEwiv5xcIXxsTCzDfCwtSExMKEjcTC8ObDwiJ9yMIQm8vCIkDGwqHyxcIyYcbCyAXIwmyBx8I4&#xD;&#xa;n8PCvyPGwuiKxMJggMfCdL3JwsMhysLi6sXCRa7Ewoykx8Jk/MXC0NfEwtK0xcJQTMTCvvvGwtqJ&#xD;&#xa;xMKmFsTCSbfGwq76x8IQ+sjCsqnIwkJdycIaT8fC0nbHwlf2xsLg/cbCtIHHwsTvxsI0KsbCsqDH&#xD;&#xa;wgLix8JGKcXCyNTDwjDwwsIb98bC6MjJwg6Zy8Kg+cvCaC3HwtIgw8KW7sXC3EHGwmcUxcL++8fC&#xD;&#xa;CWbIwsDoxsJFz8PCJkXFwiD7xcIQDsfC8ljIwrDLxMKkeMLClpHEwiqgyMJcjcjC6krGwl50w8Iy&#xD;&#xa;7sXCWv3HwkQ1xsKUwMPC2K/EwootxMJUqMTCH3LDwuojxcKil8fCjmXIwkLJxcID78TClTvGwhel&#xD;&#xa;xsIca8bC1rbCwk6+wsIQfsfCIlPHwpJExcLWhMbCDNvEwuryxMKklMXCeBDDwolhwcIiasLCQYfE&#xD;&#xa;whUfwsJx4MTCsEnIwkX0xcK+3sbCIqLHwrARx8IWtMTCGAnFwomNxMLfbcTCQIPDwjqww8L+MMTC&#xD;&#xa;mqjHwrBaxMI6YsTCxmvIwqyKycKQaMXCnx7FwkYvx8In6sjCGMzIwuvAxcL8a8XCiBjJwkvwyMKI&#xD;&#xa;qMbCTCTIwvQSy8IxEsvCVT/JwrI3w8LA8sLCCD7EwsxXxMJSjsXCfjXFwqTKxMI/gsPCDozDwtwF&#xD;&#xa;xMISn8bChHvJwlFQyMJYCsbCP4jIwtkBycLiFsrCbCrKwvyTysIWncnC+A3HwuI5x8I8/MbC0hHI&#xD;&#xa;wopJzMLmb83CFkvMwpy/y8Kn7MrCfJrJwuLDyMJKn8bCStTGwpb7ycIMo8nCcivFwsapxcJkx8bC&#xD;&#xa;ALLIwriaycJM3cfC8r/KwlSoy8I4A8vCpFHJwkRrzMIKr87CWD7MwsiJycKW9cfCUjbKwq+YycLi&#xD;&#xa;U8jCROHHwhdWycKaU8nCF7jMwmKaz8L//8zC8tjOwjxezsIUysvCzHLJwiJryMLRm8bCgLjKwsi8&#xD;&#xa;ysIhfszCPETLwqtbyMJGeMfCpRPJwnwZzMJSIs3CqhPMwmDiyMLZYsjCz13KwgwKy8LCi8jCyrTM&#xD;&#xa;wgwxzMK4ZcvC087JwkV2xsLyXsnCjIbLwhwvzcLfrM7CeITKwla3ysLK3cnC/PHFwpScxcIUQ8nC&#xD;&#xa;NJzIwrEsxsJvZcfCXSvIwlKLx8JII8nCvgzKwpnhysJSC8vC9iTKwiA/y8IadczCuDrMwuVaysLO&#xD;&#xa;r8vCXtfJwrZ6ycItucnCtonJwjyTysJkC83CL0nMwkjdyMIBucfCixrLwvSDysKGX8nCsCzMwuas&#xD;&#xa;0cIsnNPCuEvOwtr5y8LMBc7Cr+PTwsQc5MLcOfPCKOj0wjr59cJ0C/fCzg75wkwh+8LmVPnCqz72&#xD;&#xa;wnB+9cLuJvrCtEL4wkp7+MLOfffCDN3zwkaz9sLi8vjCFKr6wgIQ+cI8iPjCBpT4wvR1+MLQI/rC&#xD;&#xa;Ihn8wlQg+sIcLvjCVCz2wsI49MJQ9fbC23H3woy69sL4BfnCIOb2wjwy9cIuGvnCdmb3wj7K9MI+&#xD;&#xa;KPXCJpr2wn7C9cKQDvnCthv7woaP+cLGaPbCTr32wrpN+cIFSPjCDvX4wtD39sJY//TCKGf3wvZI&#xD;&#xa;+cK9YvfCgYf3wjIf+sLMMvfCpjz2wuA6+cII8vbCxDv1wmJG9sLka/rCPrT1wi589cLqjfbC9qP4&#xD;&#xa;wgzJ+MLelPbCGir2wlBC9sKeU/jC/nn3wsYn9sL4QPjCXBj5wopQ+MIaJvnCSB36wgjc+MIMfPfC&#xD;&#xa;W+z1wmYG+MKuxPnCCuD1wjh+9sLDrPfCOPj3wm7h+MJjMvfCxH/2wsXf98KwN/nCKOn5wrLR+sKg&#xD;&#xa;bPvCkFv5wsAu+cL2hffCySz2wmRX+MKiiPjCzFX4wvjB98Jgz/fCxPT4wobP+cL8avjC9r34wnKx&#xD;&#xa;+MK+LPnC3H34wle39cKejfbCNKP2wg5B9sK0H/rCSvz2woqE98JAqfjCBPL4wmKi+MIu2/jCMFD5&#xD;&#xa;wiCM+cKo//nCGqz7wlZN+sKUDfjC0ov4wrIU+sIVpffCP2/3woye98KktPbCTJj2wpH29cL3mvbC&#xD;&#xa;jL/4wti/+MLm3vjCQ9QEwzOmYsI/y13CPNeLwsehjcK+No/Cm+aOwlHvjcIja5HCun6XwoKemMJy&#xD;&#xa;lpPCuQeRwhgMlcJGdZvCTjScwgFMncIGh5zCGrOawuO0nMJdJZ3Cybudwo6toMIdraPCs/6jwpY0&#xD;&#xa;psLIUqjCWQmpwonmp8KcE6XCgXGlwqC+psIFHabCBoyownWvqcIkX6jCgnCpwms3qsIW0KfCM7Oj&#xD;&#xa;wnGLosJgcKnCdk6swiIgscKFrbDCtNmowrZmpcIHYqjCCg2pwqUNq8KgHq7ChEGxwhVFs8KU6LLC&#xD;&#xa;dvWzwpVHscI6NrDCMpGwwubcs8Imh7bCPKq6wj7tvMKSbr3ClsG+wq4qwMLXQr7CpAK5whxiuMJp&#xD;&#xa;v7nCwu29wloQvsIXTL3CzjDAwsDTwcL69sHC8urAwtAFwMIkSMLCpJHDwjLOw8JG8sTCmMvDwq7H&#xD;&#xa;wsLOncPC+CDDwkh6wsLU5sPCP23Fwm5Qx8KlYsTCm0XCwnhexcLsTsPCSMPDwjvJw8LMWcHC2XHD&#xD;&#xa;wjj5wsICs8TChWvEwgCywcKDdcHCFnHCwurMxMLlVsTCfrDGwmzqyMKoGsfC7ITIwtqRyMJwzcbC&#xD;&#xa;ppbEwiv5xcIXxsTCzDfCwtSExMKEjcTC8ObDwiJ9yMIQm8vCIkDGwqHyxcIyYcbCyAXIwmyBx8I4&#xD;&#xa;n8PCvyPGwuiKxMJggMfCdL3JwsMhysLi6sXCRa7Ewoykx8Jk/MXC0NfEwtK0xcJQTMTCvvvGwtqJ&#xD;&#xa;xMKmFsTCSbfGwq76x8IQ+sjCsqnIwkJdycIaT8fC0nbHwlf2xsLg/cbCtIHHwsTvxsI0KsbCsqDH&#xD;&#xa;wgLix8JGKcXCyNTDwjDwwsIb98bC6MjJwg6Zy8Kg+cvCaC3HwtIgw8KW7sXC3EHGwmcUxcL++8fC&#xD;&#xa;CWbIwsDoxsJFz8PCJkXFwiD7xcIQDsfC8ljIwrDLxMKkeMLClpHEwiqgyMJcjcjC6krGwl50w8Iy&#xD;&#xa;7sXCWv3HwkQ1xsKUwMPC2K/EwootxMJUqMTCH3LDwuojxcKil8fCjmXIwkLJxcID78TClTvGwhel&#xD;&#xa;xsIca8bC1rbCwk6+wsIQfsfCIlPHwpJExcLWhMbCDNvEwuryxMKklMXCeBDDwolhwcIiasLCQYfE&#xD;&#xa;whUfwsJx4MTCsEnIwkX0xcK+3sbCIqLHwrARx8IWtMTCGAnFwomNxMLfbcTCQIPDwjqww8L+MMTC&#xD;&#xa;mqjHwrBaxMI6YsTCxmvIwqyKycKQaMXCnx7FwkYvx8In6sjCGMzIwuvAxcL8a8XCiBjJwkvwyMKI&#xD;&#xa;qMbCTCTIwvQSy8IxEsvCVT/JwrI3w8LA8sLCCD7EwsxXxMJSjsXCfjXFwqTKxMI/gsPCDozDwtwF&#xD;&#xa;xMISn8bChHvJwlFQyMJYCsbCP4jIwtkBycLiFsrCbCrKwvyTysIWncnC+A3HwuI5x8I8/MbC0hHI&#xD;&#xa;wopJzMLmb83CFkvMwpy/y8Kn7MrCfJrJwuLDyMJKn8bCStTGwpb7ycIMo8nCcivFwsapxcJkx8bC&#xD;&#xa;ALLIwriaycJM3cfC8r/KwlSoy8I4A8vCpFHJwkRrzMIKr87CWD7MwsiJycKW9cfCUjbKwq+YycLi&#xD;&#xa;U8jCROHHwhdWycKaU8nCF7jMwmKaz8L//8zC8tjOwjxezsIUysvCzHLJwiJryMLRm8bCgLjKwsi8&#xD;&#xa;ysIhfszCPETLwqtbyMJGeMfCpRPJwnwZzMJSIs3CqhPMwmDiyMLZYsjCz13KwgwKy8LCi8jCyrTM&#xD;&#xa;wgwxzMK4ZcvC087JwkV2xsLyXsnCjIbLwhwvzcLfrM7CeITKwla3ysLK3cnC/PHFwpScxcIUQ8nC&#xD;&#xa;NJzIwrEsxsJvZcfCXSvIwlKLx8JII8nCvgzKwpnhysJSC8vC9iTKwiA/y8IadczCuDrMwuVaysLO&#xD;&#xa;r8vCXtfJwrZ6ycItucnCtonJwjyTysJkC83CL0nMwkjdyMIBucfCixrLwvSDysKGX8nCsCzMwuas&#xD;&#xa;0cIsnNPCuEvOwtr5y8LMBc7Cr+PTwsQc5MLcOfPCKOj0wjr59cJ0C/fCzg75wkwh+8LmVPnCqz72&#xD;&#xa;wnB+9cLuJvrCtEL4wkp7+MLOfffCDN3zwkaz9sLi8vjCFKr6wgIQ+cI8iPjCBpT4wvR1+MLQI/rC&#xD;&#xa;Ihn8wlQg+sIcLvjCVCz2wsI49MJQ9fbC23H3woy69sL4BfnCIOb2wjwy9cIuGvnCdmb3wj7K9MI+&#xD;&#xa;KPXCJpr2wn7C9cKQDvnCthv7woaP+cLGaPbCTr32wrpN+cIFSPjCDvX4wtD39sJY//TCKGf3wvZI&#xD;&#xa;+cK9YvfCgYf3wjIf+sLMMvfCpjz2wuA6+cII8vbCxDv1wmJG9sLka/rCPrT1wi589cLqjfbC9qP4&#xD;&#xa;wgzJ+MLelPbCGir2wlBC9sKeU/jC/nn3wsYn9sL4QPjCXBj5wopQ+MIaJvnCSB36wgjc+MIMfPfC&#xD;&#xa;W+z1wmYG+MKuxPnCCuD1wjh+9sLDrPfCOPj3wm7h+MJjMvfCxH/2wsXf98KwN/nCKOn5wrLR+sKg&#xD;&#xa;bPvCkFv5wsAu+cL2hffCySz2wmRX+MKiiPjCzFX4wvjB98Jgz/fCxPT4wobP+cL8avjC9r34wnKx&#xD;&#xa;+MK+LPnC3H34wle39cKejfbCNKP2wg5B9sK0H/rCSvz2woqE98JAqfjCBPL4wmKi+MIu2/jCMFD5&#xD;&#xa;wiCM+cKo//nCGqz7wlZN+sKUDfjC0ov4wrIU+sIVpffCP2/3woye98KktPbCTJj2wpH29cL3mvbC&#xD;&#xa;jL/4wti/+MLm3vjCQ9QE" leadInLength="0/1"  />
            </Keyframes>
           </Parameter>
           </Parameters>
          </GenericEffect>
          <GenericEffect id="2706" name = "WinCompression" >
           <Parameters>
           <InterpolatingParam id="2707" interp="linr"  time="0/1" value="0" leadInLength="0/1"   name="attack"/>
           <InterpolatingParam id="2708" interp="linr"  time="0/1" value="9" leadInLength="0/1"   name="gain"/>
           <Parameter id="2709"   name="preset">
            <Keyframes>
            <Keyframe id="2710"  time="0/1" value="1" leadInLength="0/1"  />
            </Keyframes>
           </Parameter>
           <InterpolatingParam id="2711" interp="linr"  time="0/1" value="10" leadInLength="0/1"   name="ratio"/>
           <InterpolatingParam id="2712" interp="linr"  time="0/1" value="3500" leadInLength="0/1"   name="release"/>
           <InterpolatingParam id="2713" interp="linr"  time="0/1" value="-20" leadInLength="0/1"   name="threshold"/>
           </Parameters>
          </GenericEffect>
          <GenericEffect id="2714" name = "Declipper" >
           <Parameters>
           <InterpolatingParam id="2715" interp="linr"  time="0/1" value="-1" leadInLength="0/1"   name="sensitivity"/>
           </Parameters>
          </GenericEffect>
          <GenericEffect id="2716" name = "Declicker" >
           <Parameters>
           <InterpolatingParam id="2717" interp="linr"  time="0/1" value="3" leadInLength="0/1"   name="sensitivity"/>
           </Parameters>
          </GenericEffect>
         </Effects>
         <Attributes>
          <Attribute id="2718" value="" name="ident"/>
          <Attribute id="2719" value="0" name="mixToMono"/>
         </Attributes>
         <MetaData>
          <entry key="WinSubProjectDisplayName" val=""/>
         </MetaData>
         <ExtraData>
          <Entry key="ZoomPanBin">
           <ZoomPanBin id="2720"  >
            <ZoomPanKeyframes>
            </ZoomPanKeyframes>
           </ZoomPanBin>
          </Entry>
          <Entry key="CursorEffectBin">
           <CursorEffectBin id="2721"  >
            <CursorEffectKeyframes>
            </CursorEffectKeyframes>
           </CursorEffectBin>
          </Entry>
         </ExtraData>
         <GenericTrack id="2722"  >
          <Attributes>
           <Attribute id="2723" value="" name="ident"/>
           <Attribute id="2724" value="0" name="audioMuted"/>
           <Attribute id="2725" value="0" name="videoHidden"/>
          </Attributes>
          <MetaData>
           <entry key="IsLocked" val="False"/>
           <entry key="WinTrackHeight" val="0"/>
          </MetaData>
          <Medias>
           <AMFile id="2726" start="0" duration="10360" scalar="1/1" mediaStart="0/1" mediaDuration="10360/1" trackNumber="0" src="22" channelNumber="0" >
            <Parameters>
             <InterpolatingParam id="2727" interp="linr"  time="0/1" value="1" leadInLength="0/1"  name="volume"/>
             <Parameter id="2728"  name="captions"/>
            </Parameters>
            <Attributes>
             <Attribute id="2729" value="" name="ident"/>
             <Attribute id="2730" value="44100" name="sampleRate"/>
             <Attribute id="2731" value="16" name="bitDepth"/>
             <Attribute id="2732" value="1" name="gain"/>
             <Attribute id="2733" value="0" name="mixToMono"/>
            </Attributes>
            <MetaData>
             <entry key="WinSubProjectDisplayName" val=""/>
            </MetaData>
           </AMFile>
           <AMFile id="2734" start="10360" duration="265" scalar="1/1" mediaStart="10702/1" mediaDuration="265/1" trackNumber="0" src="22" channelNumber="0" >
            <Parameters>
             <InterpolatingParam id="2735" interp="linr"  time="0/1" value="1" leadInLength="0/1"  name="volume"/>
             <Parameter id="2736"  name="captions"/>
            </Parameters>
            <Attributes>
             <Attribute id="2737" value="" name="ident"/>
             <Attribute id="2738" value="44100" name="sampleRate"/>
             <Attribute id="2739" value="16" name="bitDepth"/>
             <Attribute id="2740" value="1" name="gain"/>
             <Attribute id="2741" value="0" name="mixToMono"/>
            </Attributes>
            <MetaData>
             <entry key="WinSubProjectDisplayName" val=""/>
            </MetaData>
           </AMFile>
           <AMFile id="2742" start="10625" duration="3597" scalar="1/1" mediaStart="10971/1" mediaDuration="3597/1" trackNumber="0" src="22" channelNumber="0" >
            <Parameters>
             <InterpolatingParam id="2743" interp="linr"  time="0/1" value="1" leadInLength="0/1"  name="volume"/>
             <Parameter id="2744"  name="captions"/>
            </Parameters>
            <Attributes>
             <Attribute id="2745" value="" name="ident"/>
             <Attribute id="2746" value="44100" name="sampleRate"/>
             <Attribute id="2747" value="16" name="bitDepth"/>
             <Attribute id="2748" value="1" name="gain"/>
             <Attribute id="2749" value="0" name="mixToMono"/>
            </Attributes>
            <MetaData>
             <entry key="WinSubProjectDisplayName" val=""/>
            </MetaData>
           </AMFile>
          </Medias>
         </GenericTrack>
        </StitchedMedia>
        <AMFile id="2750" start="7458" duration="1027" scalar="1/1" mediaStart="11524/1" mediaDuration="1027/1" trackNumber="0" src="22" channelNumber="0" >
         <Parameters>
          <InterpolatingParam id="2751" interp="linr"  name="volume">
           <Keyframes>
           <Keyframe id="2752"  time="0/1" value="1" leadInLength="0/1"  />
           <Keyframe id="2753"  time="3301/1" value="1" leadInLength="0/1"  />
           <Keyframe id="2754"  time="3302/1" value="0.80000000000000004" leadInLength="0/1"  />
           <Keyframe id="2755"  time="14568/1" value="0.80000000000000004" leadInLength="0/1"  />
           <Keyframe id="2756"  time="14569/1" value="1" leadInLength="0/1"  />
           </Keyframes>
          </InterpolatingParam>
          <Parameter id="2757"  name="captions"/>
         </Parameters>
         <Effects>
          <GenericEffect id="2758" name = "NoiseReduction" >
           <Parameters>
           <InterpolatingParam id="2759" interp="linr"  time="0/1" value="20" leadInLength="0/1"   name="denoiserAmount"/>
           <InterpolatingParam id="2760" interp="linr"  time="0/1" value="0" leadInLength="0/1"   name="denoiserThreshold"/>
           <Parameter id="2761"   name="noiseProfile">
            <Keyframes>
            <Keyframe id="2762"  time="0/1" value="FBAAAAIAAABErAAAAQIAADOmYsI/y13CPNeLwsehjcK+No/Cm+aOwlHvjcIja5HCun6XwoKemMJy&#xD;&#xa;lpPCuQeRwhgMlcJGdZvCTjScwgFMncIGh5zCGrOawuO0nMJdJZ3Cybudwo6toMIdraPCs/6jwpY0&#xD;&#xa;psLIUqjCWQmpwonmp8KcE6XCgXGlwqC+psIFHabCBoyownWvqcIkX6jCgnCpwms3qsIW0KfCM7Oj&#xD;&#xa;wnGLosJgcKnCdk6swiIgscKFrbDCtNmowrZmpcIHYqjCCg2pwqUNq8KgHq7ChEGxwhVFs8KU6LLC&#xD;&#xa;dvWzwpVHscI6NrDCMpGwwubcs8Imh7bCPKq6wj7tvMKSbr3ClsG+wq4qwMLXQr7CpAK5whxiuMJp&#xD;&#xa;v7nCwu29wloQvsIXTL3CzjDAwsDTwcL69sHC8urAwtAFwMIkSMLCpJHDwjLOw8JG8sTCmMvDwq7H&#xD;&#xa;wsLOncPC+CDDwkh6wsLU5sPCP23Fwm5Qx8KlYsTCm0XCwnhexcLsTsPCSMPDwjvJw8LMWcHC2XHD&#xD;&#xa;wjj5wsICs8TChWvEwgCywcKDdcHCFnHCwurMxMLlVsTCfrDGwmzqyMKoGsfC7ITIwtqRyMJwzcbC&#xD;&#xa;ppbEwiv5xcIXxsTCzDfCwtSExMKEjcTC8ObDwiJ9yMIQm8vCIkDGwqHyxcIyYcbCyAXIwmyBx8I4&#xD;&#xa;n8PCvyPGwuiKxMJggMfCdL3JwsMhysLi6sXCRa7Ewoykx8Jk/MXC0NfEwtK0xcJQTMTCvvvGwtqJ&#xD;&#xa;xMKmFsTCSbfGwq76x8IQ+sjCsqnIwkJdycIaT8fC0nbHwlf2xsLg/cbCtIHHwsTvxsI0KsbCsqDH&#xD;&#xa;wgLix8JGKcXCyNTDwjDwwsIb98bC6MjJwg6Zy8Kg+cvCaC3HwtIgw8KW7sXC3EHGwmcUxcL++8fC&#xD;&#xa;CWbIwsDoxsJFz8PCJkXFwiD7xcIQDsfC8ljIwrDLxMKkeMLClpHEwiqgyMJcjcjC6krGwl50w8Iy&#xD;&#xa;7sXCWv3HwkQ1xsKUwMPC2K/EwootxMJUqMTCH3LDwuojxcKil8fCjmXIwkLJxcID78TClTvGwhel&#xD;&#xa;xsIca8bC1rbCwk6+wsIQfsfCIlPHwpJExcLWhMbCDNvEwuryxMKklMXCeBDDwolhwcIiasLCQYfE&#xD;&#xa;whUfwsJx4MTCsEnIwkX0xcK+3sbCIqLHwrARx8IWtMTCGAnFwomNxMLfbcTCQIPDwjqww8L+MMTC&#xD;&#xa;mqjHwrBaxMI6YsTCxmvIwqyKycKQaMXCnx7FwkYvx8In6sjCGMzIwuvAxcL8a8XCiBjJwkvwyMKI&#xD;&#xa;qMbCTCTIwvQSy8IxEsvCVT/JwrI3w8LA8sLCCD7EwsxXxMJSjsXCfjXFwqTKxMI/gsPCDozDwtwF&#xD;&#xa;xMISn8bChHvJwlFQyMJYCsbCP4jIwtkBycLiFsrCbCrKwvyTysIWncnC+A3HwuI5x8I8/MbC0hHI&#xD;&#xa;wopJzMLmb83CFkvMwpy/y8Kn7MrCfJrJwuLDyMJKn8bCStTGwpb7ycIMo8nCcivFwsapxcJkx8bC&#xD;&#xa;ALLIwriaycJM3cfC8r/KwlSoy8I4A8vCpFHJwkRrzMIKr87CWD7MwsiJycKW9cfCUjbKwq+YycLi&#xD;&#xa;U8jCROHHwhdWycKaU8nCF7jMwmKaz8L//8zC8tjOwjxezsIUysvCzHLJwiJryMLRm8bCgLjKwsi8&#xD;&#xa;ysIhfszCPETLwqtbyMJGeMfCpRPJwnwZzMJSIs3CqhPMwmDiyMLZYsjCz13KwgwKy8LCi8jCyrTM&#xD;&#xa;wgwxzMK4ZcvC087JwkV2xsLyXsnCjIbLwhwvzcLfrM7CeITKwla3ysLK3cnC/PHFwpScxcIUQ8nC&#xD;&#xa;NJzIwrEsxsJvZcfCXSvIwlKLx8JII8nCvgzKwpnhysJSC8vC9iTKwiA/y8IadczCuDrMwuVaysLO&#xD;&#xa;r8vCXtfJwrZ6ycItucnCtonJwjyTysJkC83CL0nMwkjdyMIBucfCixrLwvSDysKGX8nCsCzMwuas&#xD;&#xa;0cIsnNPCuEvOwtr5y8LMBc7Cr+PTwsQc5MLcOfPCKOj0wjr59cJ0C/fCzg75wkwh+8LmVPnCqz72&#xD;&#xa;wnB+9cLuJvrCtEL4wkp7+MLOfffCDN3zwkaz9sLi8vjCFKr6wgIQ+cI8iPjCBpT4wvR1+MLQI/rC&#xD;&#xa;Ihn8wlQg+sIcLvjCVCz2wsI49MJQ9fbC23H3woy69sL4BfnCIOb2wjwy9cIuGvnCdmb3wj7K9MI+&#xD;&#xa;KPXCJpr2wn7C9cKQDvnCthv7woaP+cLGaPbCTr32wrpN+cIFSPjCDvX4wtD39sJY//TCKGf3wvZI&#xD;&#xa;+cK9YvfCgYf3wjIf+sLMMvfCpjz2wuA6+cII8vbCxDv1wmJG9sLka/rCPrT1wi589cLqjfbC9qP4&#xD;&#xa;wgzJ+MLelPbCGir2wlBC9sKeU/jC/nn3wsYn9sL4QPjCXBj5wopQ+MIaJvnCSB36wgjc+MIMfPfC&#xD;&#xa;W+z1wmYG+MKuxPnCCuD1wjh+9sLDrPfCOPj3wm7h+MJjMvfCxH/2wsXf98KwN/nCKOn5wrLR+sKg&#xD;&#xa;bPvCkFv5wsAu+cL2hffCySz2wmRX+MKiiPjCzFX4wvjB98Jgz/fCxPT4wobP+cL8avjC9r34wnKx&#xD;&#xa;+MK+LPnC3H34wle39cKejfbCNKP2wg5B9sK0H/rCSvz2woqE98JAqfjCBPL4wmKi+MIu2/jCMFD5&#xD;&#xa;wiCM+cKo//nCGqz7wlZN+sKUDfjC0ov4wrIU+sIVpffCP2/3woye98KktPbCTJj2wpH29cL3mvbC&#xD;&#xa;jL/4wti/+MLm3vjCQ9QEwzOmYsI/y13CPNeLwsehjcK+No/Cm+aOwlHvjcIja5HCun6XwoKemMJy&#xD;&#xa;lpPCuQeRwhgMlcJGdZvCTjScwgFMncIGh5zCGrOawuO0nMJdJZ3Cybudwo6toMIdraPCs/6jwpY0&#xD;&#xa;psLIUqjCWQmpwonmp8KcE6XCgXGlwqC+psIFHabCBoyownWvqcIkX6jCgnCpwms3qsIW0KfCM7Oj&#xD;&#xa;wnGLosJgcKnCdk6swiIgscKFrbDCtNmowrZmpcIHYqjCCg2pwqUNq8KgHq7ChEGxwhVFs8KU6LLC&#xD;&#xa;dvWzwpVHscI6NrDCMpGwwubcs8Imh7bCPKq6wj7tvMKSbr3ClsG+wq4qwMLXQr7CpAK5whxiuMJp&#xD;&#xa;v7nCwu29wloQvsIXTL3CzjDAwsDTwcL69sHC8urAwtAFwMIkSMLCpJHDwjLOw8JG8sTCmMvDwq7H&#xD;&#xa;wsLOncPC+CDDwkh6wsLU5sPCP23Fwm5Qx8KlYsTCm0XCwnhexcLsTsPCSMPDwjvJw8LMWcHC2XHD&#xD;&#xa;wjj5wsICs8TChWvEwgCywcKDdcHCFnHCwurMxMLlVsTCfrDGwmzqyMKoGsfC7ITIwtqRyMJwzcbC&#xD;&#xa;ppbEwiv5xcIXxsTCzDfCwtSExMKEjcTC8ObDwiJ9yMIQm8vCIkDGwqHyxcIyYcbCyAXIwmyBx8I4&#xD;&#xa;n8PCvyPGwuiKxMJggMfCdL3JwsMhysLi6sXCRa7Ewoykx8Jk/MXC0NfEwtK0xcJQTMTCvvvGwtqJ&#xD;&#xa;xMKmFsTCSbfGwq76x8IQ+sjCsqnIwkJdycIaT8fC0nbHwlf2xsLg/cbCtIHHwsTvxsI0KsbCsqDH&#xD;&#xa;wgLix8JGKcXCyNTDwjDwwsIb98bC6MjJwg6Zy8Kg+cvCaC3HwtIgw8KW7sXC3EHGwmcUxcL++8fC&#xD;&#xa;CWbIwsDoxsJFz8PCJkXFwiD7xcIQDsfC8ljIwrDLxMKkeMLClpHEwiqgyMJcjcjC6krGwl50w8Iy&#xD;&#xa;7sXCWv3HwkQ1xsKUwMPC2K/EwootxMJUqMTCH3LDwuojxcKil8fCjmXIwkLJxcID78TClTvGwhel&#xD;&#xa;xsIca8bC1rbCwk6+wsIQfsfCIlPHwpJExcLWhMbCDNvEwuryxMKklMXCeBDDwolhwcIiasLCQYfE&#xD;&#xa;whUfwsJx4MTCsEnIwkX0xcK+3sbCIqLHwrARx8IWtMTCGAnFwomNxMLfbcTCQIPDwjqww8L+MMTC&#xD;&#xa;mqjHwrBaxMI6YsTCxmvIwqyKycKQaMXCnx7FwkYvx8In6sjCGMzIwuvAxcL8a8XCiBjJwkvwyMKI&#xD;&#xa;qMbCTCTIwvQSy8IxEsvCVT/JwrI3w8LA8sLCCD7EwsxXxMJSjsXCfjXFwqTKxMI/gsPCDozDwtwF&#xD;&#xa;xMISn8bChHvJwlFQyMJYCsbCP4jIwtkBycLiFsrCbCrKwvyTysIWncnC+A3HwuI5x8I8/MbC0hHI&#xD;&#xa;wopJzMLmb83CFkvMwpy/y8Kn7MrCfJrJwuLDyMJKn8bCStTGwpb7ycIMo8nCcivFwsapxcJkx8bC&#xD;&#xa;ALLIwriaycJM3cfC8r/KwlSoy8I4A8vCpFHJwkRrzMIKr87CWD7MwsiJycKW9cfCUjbKwq+YycLi&#xD;&#xa;U8jCROHHwhdWycKaU8nCF7jMwmKaz8L//8zC8tjOwjxezsIUysvCzHLJwiJryMLRm8bCgLjKwsi8&#xD;&#xa;ysIhfszCPETLwqtbyMJGeMfCpRPJwnwZzMJSIs3CqhPMwmDiyMLZYsjCz13KwgwKy8LCi8jCyrTM&#xD;&#xa;wgwxzMK4ZcvC087JwkV2xsLyXsnCjIbLwhwvzcLfrM7CeITKwla3ysLK3cnC/PHFwpScxcIUQ8nC&#xD;&#xa;NJzIwrEsxsJvZcfCXSvIwlKLx8JII8nCvgzKwpnhysJSC8vC9iTKwiA/y8IadczCuDrMwuVaysLO&#xD;&#xa;r8vCXtfJwrZ6ycItucnCtonJwjyTysJkC83CL0nMwkjdyMIBucfCixrLwvSDysKGX8nCsCzMwuas&#xD;&#xa;0cIsnNPCuEvOwtr5y8LMBc7Cr+PTwsQc5MLcOfPCKOj0wjr59cJ0C/fCzg75wkwh+8LmVPnCqz72&#xD;&#xa;wnB+9cLuJvrCtEL4wkp7+MLOfffCDN3zwkaz9sLi8vjCFKr6wgIQ+cI8iPjCBpT4wvR1+MLQI/rC&#xD;&#xa;Ihn8wlQg+sIcLvjCVCz2wsI49MJQ9fbC23H3woy69sL4BfnCIOb2wjwy9cIuGvnCdmb3wj7K9MI+&#xD;&#xa;KPXCJpr2wn7C9cKQDvnCthv7woaP+cLGaPbCTr32wrpN+cIFSPjCDvX4wtD39sJY//TCKGf3wvZI&#xD;&#xa;+cK9YvfCgYf3wjIf+sLMMvfCpjz2wuA6+cII8vbCxDv1wmJG9sLka/rCPrT1wi589cLqjfbC9qP4&#xD;&#xa;wgzJ+MLelPbCGir2wlBC9sKeU/jC/nn3wsYn9sL4QPjCXBj5wopQ+MIaJvnCSB36wgjc+MIMfPfC&#xD;&#xa;W+z1wmYG+MKuxPnCCuD1wjh+9sLDrPfCOPj3wm7h+MJjMvfCxH/2wsXf98KwN/nCKOn5wrLR+sKg&#xD;&#xa;bPvCkFv5wsAu+cL2hffCySz2wmRX+MKiiPjCzFX4wvjB98Jgz/fCxPT4wobP+cL8avjC9r34wnKx&#xD;&#xa;+MK+LPnC3H34wle39cKejfbCNKP2wg5B9sK0H/rCSvz2woqE98JAqfjCBPL4wmKi+MIu2/jCMFD5&#xD;&#xa;wiCM+cKo//nCGqz7wlZN+sKUDfjC0ov4wrIU+sIVpffCP2/3woye98KktPbCTJj2wpH29cL3mvbC&#xD;&#xa;jL/4wti/+MLm3vjCQ9QE" leadInLength="0/1"  />
            </Keyframes>
           </Parameter>
           </Parameters>
          </GenericEffect>
          <GenericEffect id="2763" name = "WinCompression" >
           <Parameters>
           <InterpolatingParam id="2764" interp="linr"  time="0/1" value="0" leadInLength="0/1"   name="attack"/>
           <InterpolatingParam id="2765" interp="linr"  time="0/1" value="9" leadInLength="0/1"   name="gain"/>
           <Parameter id="2766"   name="preset">
            <Keyframes>
            <Keyframe id="2767"  time="0/1" value="1" leadInLength="0/1"  />
            </Keyframes>
           </Parameter>
           <InterpolatingParam id="2768" interp="linr"  time="0/1" value="10" leadInLength="0/1"   name="ratio"/>
           <InterpolatingParam id="2769" interp="linr"  time="0/1" value="3500" leadInLength="0/1"   name="release"/>
           <InterpolatingParam id="2770" interp="linr"  time="0/1" value="-20" leadInLength="0/1"   name="threshold"/>
           </Parameters>
          </GenericEffect>
          <GenericEffect id="2771" name = "Declipper" >
           <Parameters>
           <InterpolatingParam id="2772" interp="linr"  time="0/1" value="-1" leadInLength="0/1"   name="sensitivity"/>
           </Parameters>
          </GenericEffect>
          <GenericEffect id="2773" name = "Declicker" >
           <Parameters>
           <InterpolatingParam id="2774" interp="linr"  time="0/1" value="3" leadInLength="0/1"   name="sensitivity"/>
           </Parameters>
          </GenericEffect>
         </Effects>
         <Attributes>
          <Attribute id="2775" value="" name="ident"/>
          <Attribute id="2776" value="44100" name="sampleRate"/>
          <Attribute id="2777" value="16" name="bitDepth"/>
          <Attribute id="2778" value="1" name="gain"/>
          <Attribute id="2779" value="0" name="mixToMono"/>
         </Attributes>
         <MetaData>
          <entry key="WinSubProjectDisplayName" val=""/>
         </MetaData>
        </AMFile>
        <AMFile id="2780" start="8498" duration="43" scalar="1/1" mediaStart="14271/1" mediaDuration="43/1" trackNumber="0" src="22" channelNumber="0" >
         <Parameters>
          <InterpolatingParam id="2781" interp="linr"  name="volume">
           <Keyframes>
           <Keyframe id="2782"  time="0/1" value="1" leadInLength="0/1"  />
           <Keyframe id="2783"  time="3301/1" value="1" leadInLength="0/1"  />
           <Keyframe id="2784"  time="3302/1" value="0.80000000000000004" leadInLength="0/1"  />
           <Keyframe id="2785"  time="14568/1" value="0.80000000000000004" leadInLength="0/1"  />
           <Keyframe id="2786"  time="14569/1" value="1" leadInLength="0/1"  />
           </Keyframes>
          </InterpolatingParam>
          <Parameter id="2787"  name="captions"/>
         </Parameters>
         <Effects>
          <GenericEffect id="2788" name = "NoiseReduction" >
           <Parameters>
           <InterpolatingParam id="2789" interp="linr"  time="0/1" value="20" leadInLength="0/1"   name="denoiserAmount"/>
           <InterpolatingParam id="2790" interp="linr"  time="0/1" value="0" leadInLength="0/1"   name="denoiserThreshold"/>
           <Parameter id="2791"   name="noiseProfile">
            <Keyframes>
            <Keyframe id="2792"  time="0/1" value="FBAAAAIAAABErAAAAQIAADOmYsI/y13CPNeLwsehjcK+No/Cm+aOwlHvjcIja5HCun6XwoKemMJy&#xD;&#xa;lpPCuQeRwhgMlcJGdZvCTjScwgFMncIGh5zCGrOawuO0nMJdJZ3Cybudwo6toMIdraPCs/6jwpY0&#xD;&#xa;psLIUqjCWQmpwonmp8KcE6XCgXGlwqC+psIFHabCBoyownWvqcIkX6jCgnCpwms3qsIW0KfCM7Oj&#xD;&#xa;wnGLosJgcKnCdk6swiIgscKFrbDCtNmowrZmpcIHYqjCCg2pwqUNq8KgHq7ChEGxwhVFs8KU6LLC&#xD;&#xa;dvWzwpVHscI6NrDCMpGwwubcs8Imh7bCPKq6wj7tvMKSbr3ClsG+wq4qwMLXQr7CpAK5whxiuMJp&#xD;&#xa;v7nCwu29wloQvsIXTL3CzjDAwsDTwcL69sHC8urAwtAFwMIkSMLCpJHDwjLOw8JG8sTCmMvDwq7H&#xD;&#xa;wsLOncPC+CDDwkh6wsLU5sPCP23Fwm5Qx8KlYsTCm0XCwnhexcLsTsPCSMPDwjvJw8LMWcHC2XHD&#xD;&#xa;wjj5wsICs8TChWvEwgCywcKDdcHCFnHCwurMxMLlVsTCfrDGwmzqyMKoGsfC7ITIwtqRyMJwzcbC&#xD;&#xa;ppbEwiv5xcIXxsTCzDfCwtSExMKEjcTC8ObDwiJ9yMIQm8vCIkDGwqHyxcIyYcbCyAXIwmyBx8I4&#xD;&#xa;n8PCvyPGwuiKxMJggMfCdL3JwsMhysLi6sXCRa7Ewoykx8Jk/MXC0NfEwtK0xcJQTMTCvvvGwtqJ&#xD;&#xa;xMKmFsTCSbfGwq76x8IQ+sjCsqnIwkJdycIaT8fC0nbHwlf2xsLg/cbCtIHHwsTvxsI0KsbCsqDH&#xD;&#xa;wgLix8JGKcXCyNTDwjDwwsIb98bC6MjJwg6Zy8Kg+cvCaC3HwtIgw8KW7sXC3EHGwmcUxcL++8fC&#xD;&#xa;CWbIwsDoxsJFz8PCJkXFwiD7xcIQDsfC8ljIwrDLxMKkeMLClpHEwiqgyMJcjcjC6krGwl50w8Iy&#xD;&#xa;7sXCWv3HwkQ1xsKUwMPC2K/EwootxMJUqMTCH3LDwuojxcKil8fCjmXIwkLJxcID78TClTvGwhel&#xD;&#xa;xsIca8bC1rbCwk6+wsIQfsfCIlPHwpJExcLWhMbCDNvEwuryxMKklMXCeBDDwolhwcIiasLCQYfE&#xD;&#xa;whUfwsJx4MTCsEnIwkX0xcK+3sbCIqLHwrARx8IWtMTCGAnFwomNxMLfbcTCQIPDwjqww8L+MMTC&#xD;&#xa;mqjHwrBaxMI6YsTCxmvIwqyKycKQaMXCnx7FwkYvx8In6sjCGMzIwuvAxcL8a8XCiBjJwkvwyMKI&#xD;&#xa;qMbCTCTIwvQSy8IxEsvCVT/JwrI3w8LA8sLCCD7EwsxXxMJSjsXCfjXFwqTKxMI/gsPCDozDwtwF&#xD;&#xa;xMISn8bChHvJwlFQyMJYCsbCP4jIwtkBycLiFsrCbCrKwvyTysIWncnC+A3HwuI5x8I8/MbC0hHI&#xD;&#xa;wopJzMLmb83CFkvMwpy/y8Kn7MrCfJrJwuLDyMJKn8bCStTGwpb7ycIMo8nCcivFwsapxcJkx8bC&#xD;&#xa;ALLIwriaycJM3cfC8r/KwlSoy8I4A8vCpFHJwkRrzMIKr87CWD7MwsiJycKW9cfCUjbKwq+YycLi&#xD;&#xa;U8jCROHHwhdWycKaU8nCF7jMwmKaz8L//8zC8tjOwjxezsIUysvCzHLJwiJryMLRm8bCgLjKwsi8&#xD;&#xa;ysIhfszCPETLwqtbyMJGeMfCpRPJwnwZzMJSIs3CqhPMwmDiyMLZYsjCz13KwgwKy8LCi8jCyrTM&#xD;&#xa;wgwxzMK4ZcvC087JwkV2xsLyXsnCjIbLwhwvzcLfrM7CeITKwla3ysLK3cnC/PHFwpScxcIUQ8nC&#xD;&#xa;NJzIwrEsxsJvZcfCXSvIwlKLx8JII8nCvgzKwpnhysJSC8vC9iTKwiA/y8IadczCuDrMwuVaysLO&#xD;&#xa;r8vCXtfJwrZ6ycItucnCtonJwjyTysJkC83CL0nMwkjdyMIBucfCixrLwvSDysKGX8nCsCzMwuas&#xD;&#xa;0cIsnNPCuEvOwtr5y8LMBc7Cr+PTwsQc5MLcOfPCKOj0wjr59cJ0C/fCzg75wkwh+8LmVPnCqz72&#xD;&#xa;wnB+9cLuJvrCtEL4wkp7+MLOfffCDN3zwkaz9sLi8vjCFKr6wgIQ+cI8iPjCBpT4wvR1+MLQI/rC&#xD;&#xa;Ihn8wlQg+sIcLvjCVCz2wsI49MJQ9fbC23H3woy69sL4BfnCIOb2wjwy9cIuGvnCdmb3wj7K9MI+&#xD;&#xa;KPXCJpr2wn7C9cKQDvnCthv7woaP+cLGaPbCTr32wrpN+cIFSPjCDvX4wtD39sJY//TCKGf3wvZI&#xD;&#xa;+cK9YvfCgYf3wjIf+sLMMvfCpjz2wuA6+cII8vbCxDv1wmJG9sLka/rCPrT1wi589cLqjfbC9qP4&#xD;&#xa;wgzJ+MLelPbCGir2wlBC9sKeU/jC/nn3wsYn9sL4QPjCXBj5wopQ+MIaJvnCSB36wgjc+MIMfPfC&#xD;&#xa;W+z1wmYG+MKuxPnCCuD1wjh+9sLDrPfCOPj3wm7h+MJjMvfCxH/2wsXf98KwN/nCKOn5wrLR+sKg&#xD;&#xa;bPvCkFv5wsAu+cL2hffCySz2wmRX+MKiiPjCzFX4wvjB98Jgz/fCxPT4wobP+cL8avjC9r34wnKx&#xD;&#xa;+MK+LPnC3H34wle39cKejfbCNKP2wg5B9sK0H/rCSvz2woqE98JAqfjCBPL4wmKi+MIu2/jCMFD5&#xD;&#xa;wiCM+cKo//nCGqz7wlZN+sKUDfjC0ov4wrIU+sIVpffCP2/3woye98KktPbCTJj2wpH29cL3mvbC&#xD;&#xa;jL/4wti/+MLm3vjCQ9QEwzOmYsI/y13CPNeLwsehjcK+No/Cm+aOwlHvjcIja5HCun6XwoKemMJy&#xD;&#xa;lpPCuQeRwhgMlcJGdZvCTjScwgFMncIGh5zCGrOawuO0nMJdJZ3Cybudwo6toMIdraPCs/6jwpY0&#xD;&#xa;psLIUqjCWQmpwonmp8KcE6XCgXGlwqC+psIFHabCBoyownWvqcIkX6jCgnCpwms3qsIW0KfCM7Oj&#xD;&#xa;wnGLosJgcKnCdk6swiIgscKFrbDCtNmowrZmpcIHYqjCCg2pwqUNq8KgHq7ChEGxwhVFs8KU6LLC&#xD;&#xa;dvWzwpVHscI6NrDCMpGwwubcs8Imh7bCPKq6wj7tvMKSbr3ClsG+wq4qwMLXQr7CpAK5whxiuMJp&#xD;&#xa;v7nCwu29wloQvsIXTL3CzjDAwsDTwcL69sHC8urAwtAFwMIkSMLCpJHDwjLOw8JG8sTCmMvDwq7H&#xD;&#xa;wsLOncPC+CDDwkh6wsLU5sPCP23Fwm5Qx8KlYsTCm0XCwnhexcLsTsPCSMPDwjvJw8LMWcHC2XHD&#xD;&#xa;wjj5wsICs8TChWvEwgCywcKDdcHCFnHCwurMxMLlVsTCfrDGwmzqyMKoGsfC7ITIwtqRyMJwzcbC&#xD;&#xa;ppbEwiv5xcIXxsTCzDfCwtSExMKEjcTC8ObDwiJ9yMIQm8vCIkDGwqHyxcIyYcbCyAXIwmyBx8I4&#xD;&#xa;n8PCvyPGwuiKxMJggMfCdL3JwsMhysLi6sXCRa7Ewoykx8Jk/MXC0NfEwtK0xcJQTMTCvvvGwtqJ&#xD;&#xa;xMKmFsTCSbfGwq76x8IQ+sjCsqnIwkJdycIaT8fC0nbHwlf2xsLg/cbCtIHHwsTvxsI0KsbCsqDH&#xD;&#xa;wgLix8JGKcXCyNTDwjDwwsIb98bC6MjJwg6Zy8Kg+cvCaC3HwtIgw8KW7sXC3EHGwmcUxcL++8fC&#xD;&#xa;CWbIwsDoxsJFz8PCJkXFwiD7xcIQDsfC8ljIwrDLxMKkeMLClpHEwiqgyMJcjcjC6krGwl50w8Iy&#xD;&#xa;7sXCWv3HwkQ1xsKUwMPC2K/EwootxMJUqMTCH3LDwuojxcKil8fCjmXIwkLJxcID78TClTvGwhel&#xD;&#xa;xsIca8bC1rbCwk6+wsIQfsfCIlPHwpJExcLWhMbCDNvEwuryxMKklMXCeBDDwolhwcIiasLCQYfE&#xD;&#xa;whUfwsJx4MTCsEnIwkX0xcK+3sbCIqLHwrARx8IWtMTCGAnFwomNxMLfbcTCQIPDwjqww8L+MMTC&#xD;&#xa;mqjHwrBaxMI6YsTCxmvIwqyKycKQaMXCnx7FwkYvx8In6sjCGMzIwuvAxcL8a8XCiBjJwkvwyMKI&#xD;&#xa;qMbCTCTIwvQSy8IxEsvCVT/JwrI3w8LA8sLCCD7EwsxXxMJSjsXCfjXFwqTKxMI/gsPCDozDwtwF&#xD;&#xa;xMISn8bChHvJwlFQyMJYCsbCP4jIwtkBycLiFsrCbCrKwvyTysIWncnC+A3HwuI5x8I8/MbC0hHI&#xD;&#xa;wopJzMLmb83CFkvMwpy/y8Kn7MrCfJrJwuLDyMJKn8bCStTGwpb7ycIMo8nCcivFwsapxcJkx8bC&#xD;&#xa;ALLIwriaycJM3cfC8r/KwlSoy8I4A8vCpFHJwkRrzMIKr87CWD7MwsiJycKW9cfCUjbKwq+YycLi&#xD;&#xa;U8jCROHHwhdWycKaU8nCF7jMwmKaz8L//8zC8tjOwjxezsIUysvCzHLJwiJryMLRm8bCgLjKwsi8&#xD;&#xa;ysIhfszCPETLwqtbyMJGeMfCpRPJwnwZzMJSIs3CqhPMwmDiyMLZYsjCz13KwgwKy8LCi8jCyrTM&#xD;&#xa;wgwxzMK4ZcvC087JwkV2xsLyXsnCjIbLwhwvzcLfrM7CeITKwla3ysLK3cnC/PHFwpScxcIUQ8nC&#xD;&#xa;NJzIwrEsxsJvZcfCXSvIwlKLx8JII8nCvgzKwpnhysJSC8vC9iTKwiA/y8IadczCuDrMwuVaysLO&#xD;&#xa;r8vCXtfJwrZ6ycItucnCtonJwjyTysJkC83CL0nMwkjdyMIBucfCixrLwvSDysKGX8nCsCzMwuas&#xD;&#xa;0cIsnNPCuEvOwtr5y8LMBc7Cr+PTwsQc5MLcOfPCKOj0wjr59cJ0C/fCzg75wkwh+8LmVPnCqz72&#xD;&#xa;wnB+9cLuJvrCtEL4wkp7+MLOfffCDN3zwkaz9sLi8vjCFKr6wgIQ+cI8iPjCBpT4wvR1+MLQI/rC&#xD;&#xa;Ihn8wlQg+sIcLvjCVCz2wsI49MJQ9fbC23H3woy69sL4BfnCIOb2wjwy9cIuGvnCdmb3wj7K9MI+&#xD;&#xa;KPXCJpr2wn7C9cKQDvnCthv7woaP+cLGaPbCTr32wrpN+cIFSPjCDvX4wtD39sJY//TCKGf3wvZI&#xD;&#xa;+cK9YvfCgYf3wjIf+sLMMvfCpjz2wuA6+cII8vbCxDv1wmJG9sLka/rCPrT1wi589cLqjfbC9qP4&#xD;&#xa;wgzJ+MLelPbCGir2wlBC9sKeU/jC/nn3wsYn9sL4QPjCXBj5wopQ+MIaJvnCSB36wgjc+MIMfPfC&#xD;&#xa;W+z1wmYG+MKuxPnCCuD1wjh+9sLDrPfCOPj3wm7h+MJjMvfCxH/2wsXf98KwN/nCKOn5wrLR+sKg&#xD;&#xa;bPvCkFv5wsAu+cL2hffCySz2wmRX+MKiiPjCzFX4wvjB98Jgz/fCxPT4wobP+cL8avjC9r34wnKx&#xD;&#xa;+MK+LPnC3H34wle39cKejfbCNKP2wg5B9sK0H/rCSvz2woqE98JAqfjCBPL4wmKi+MIu2/jCMFD5&#xD;&#xa;wiCM+cKo//nCGqz7wlZN+sKUDfjC0ov4wrIU+sIVpffCP2/3woye98KktPbCTJj2wpH29cL3mvbC&#xD;&#xa;jL/4wti/+MLm3vjCQ9QE" leadInLength="0/1"  />
            </Keyframes>
           </Parameter>
           </Parameters>
          </GenericEffect>
          <GenericEffect id="2793" name = "WinCompression" >
           <Parameters>
           <InterpolatingParam id="2794" interp="linr"  time="0/1" value="0" leadInLength="0/1"   name="attack"/>
           <InterpolatingParam id="2795" interp="linr"  time="0/1" value="9" leadInLength="0/1"   name="gain"/>
           <Parameter id="2796"   name="preset">
            <Keyframes>
            <Keyframe id="2797"  time="0/1" value="1" leadInLength="0/1"  />
            </Keyframes>
           </Parameter>
           <InterpolatingParam id="2798" interp="linr"  time="0/1" value="10" leadInLength="0/1"   name="ratio"/>
           <InterpolatingParam id="2799" interp="linr"  time="0/1" value="3500" leadInLength="0/1"   name="release"/>
           <InterpolatingParam id="2800" interp="linr"  time="0/1" value="-20" leadInLength="0/1"   name="threshold"/>
           </Parameters>
          </GenericEffect>
          <GenericEffect id="2801" name = "Declipper" >
           <Parameters>
           <InterpolatingParam id="2802" interp="linr"  time="0/1" value="-1" leadInLength="0/1"   name="sensitivity"/>
           </Parameters>
          </GenericEffect>
          <GenericEffect id="2803" name = "Declicker" >
           <Parameters>
           <InterpolatingParam id="2804" interp="linr"  time="0/1" value="3" leadInLength="0/1"   name="sensitivity"/>
           </Parameters>
          </GenericEffect>
         </Effects>
         <Attributes>
          <Attribute id="2805" value="" name="ident"/>
          <Attribute id="2806" value="44100" name="sampleRate"/>
          <Attribute id="2807" value="16" name="bitDepth"/>
          <Attribute id="2808" value="1" name="gain"/>
          <Attribute id="2809" value="0" name="mixToMono"/>
         </Attributes>
         <MetaData>
          <entry key="WinSubProjectDisplayName" val=""/>
         </MetaData>
        </AMFile>
        <AMFile id="2810" start="8548" duration="98" scalar="1/1" mediaStart="14314/1" mediaDuration="98/1" trackNumber="0" src="22" channelNumber="0" >
         <Parameters>
          <InterpolatingParam id="2811" interp="linr"  name="volume">
           <Keyframes>
           <Keyframe id="2812"  time="0/1" value="1" leadInLength="0/1"  />
           <Keyframe id="2813"  time="3301/1" value="1" leadInLength="0/1"  />
           <Keyframe id="2814"  time="3302/1" value="0.80000000000000004" leadInLength="0/1"  />
           <Keyframe id="2815"  time="14568/1" value="0.80000000000000004" leadInLength="0/1"  />
           <Keyframe id="2816"  time="14569/1" value="1" leadInLength="0/1"  />
           </Keyframes>
          </InterpolatingParam>
          <Parameter id="2817"  name="captions"/>
         </Parameters>
         <Effects>
          <GenericEffect id="2818" name = "NoiseReduction" >
           <Parameters>
           <InterpolatingParam id="2819" interp="linr"  time="0/1" value="20" leadInLength="0/1"   name="denoiserAmount"/>
           <InterpolatingParam id="2820" interp="linr"  time="0/1" value="0" leadInLength="0/1"   name="denoiserThreshold"/>
           <Parameter id="2821"   name="noiseProfile">
            <Keyframes>
            <Keyframe id="2822"  time="0/1" value="FBAAAAIAAABErAAAAQIAADOmYsI/y13CPNeLwsehjcK+No/Cm+aOwlHvjcIja5HCun6XwoKemMJy&#xD;&#xa;lpPCuQeRwhgMlcJGdZvCTjScwgFMncIGh5zCGrOawuO0nMJdJZ3Cybudwo6toMIdraPCs/6jwpY0&#xD;&#xa;psLIUqjCWQmpwonmp8KcE6XCgXGlwqC+psIFHabCBoyownWvqcIkX6jCgnCpwms3qsIW0KfCM7Oj&#xD;&#xa;wnGLosJgcKnCdk6swiIgscKFrbDCtNmowrZmpcIHYqjCCg2pwqUNq8KgHq7ChEGxwhVFs8KU6LLC&#xD;&#xa;dvWzwpVHscI6NrDCMpGwwubcs8Imh7bCPKq6wj7tvMKSbr3ClsG+wq4qwMLXQr7CpAK5whxiuMJp&#xD;&#xa;v7nCwu29wloQvsIXTL3CzjDAwsDTwcL69sHC8urAwtAFwMIkSMLCpJHDwjLOw8JG8sTCmMvDwq7H&#xD;&#xa;wsLOncPC+CDDwkh6wsLU5sPCP23Fwm5Qx8KlYsTCm0XCwnhexcLsTsPCSMPDwjvJw8LMWcHC2XHD&#xD;&#xa;wjj5wsICs8TChWvEwgCywcKDdcHCFnHCwurMxMLlVsTCfrDGwmzqyMKoGsfC7ITIwtqRyMJwzcbC&#xD;&#xa;ppbEwiv5xcIXxsTCzDfCwtSExMKEjcTC8ObDwiJ9yMIQm8vCIkDGwqHyxcIyYcbCyAXIwmyBx8I4&#xD;&#xa;n8PCvyPGwuiKxMJggMfCdL3JwsMhysLi6sXCRa7Ewoykx8Jk/MXC0NfEwtK0xcJQTMTCvvvGwtqJ&#xD;&#xa;xMKmFsTCSbfGwq76x8IQ+sjCsqnIwkJdycIaT8fC0nbHwlf2xsLg/cbCtIHHwsTvxsI0KsbCsqDH&#xD;&#xa;wgLix8JGKcXCyNTDwjDwwsIb98bC6MjJwg6Zy8Kg+cvCaC3HwtIgw8KW7sXC3EHGwmcUxcL++8fC&#xD;&#xa;CWbIwsDoxsJFz8PCJkXFwiD7xcIQDsfC8ljIwrDLxMKkeMLClpHEwiqgyMJcjcjC6krGwl50w8Iy&#xD;&#xa;7sXCWv3HwkQ1xsKUwMPC2K/EwootxMJUqMTCH3LDwuojxcKil8fCjmXIwkLJxcID78TClTvGwhel&#xD;&#xa;xsIca8bC1rbCwk6+wsIQfsfCIlPHwpJExcLWhMbCDNvEwuryxMKklMXCeBDDwolhwcIiasLCQYfE&#xD;&#xa;whUfwsJx4MTCsEnIwkX0xcK+3sbCIqLHwrARx8IWtMTCGAnFwomNxMLfbcTCQIPDwjqww8L+MMTC&#xD;&#xa;mqjHwrBaxMI6YsTCxmvIwqyKycKQaMXCnx7FwkYvx8In6sjCGMzIwuvAxcL8a8XCiBjJwkvwyMKI&#xD;&#xa;qMbCTCTIwvQSy8IxEsvCVT/JwrI3w8LA8sLCCD7EwsxXxMJSjsXCfjXFwqTKxMI/gsPCDozDwtwF&#xD;&#xa;xMISn8bChHvJwlFQyMJYCsbCP4jIwtkBycLiFsrCbCrKwvyTysIWncnC+A3HwuI5x8I8/MbC0hHI&#xD;&#xa;wopJzMLmb83CFkvMwpy/y8Kn7MrCfJrJwuLDyMJKn8bCStTGwpb7ycIMo8nCcivFwsapxcJkx8bC&#xD;&#xa;ALLIwriaycJM3cfC8r/KwlSoy8I4A8vCpFHJwkRrzMIKr87CWD7MwsiJycKW9cfCUjbKwq+YycLi&#xD;&#xa;U8jCROHHwhdWycKaU8nCF7jMwmKaz8L//8zC8tjOwjxezsIUysvCzHLJwiJryMLRm8bCgLjKwsi8&#xD;&#xa;ysIhfszCPETLwqtbyMJGeMfCpRPJwnwZzMJSIs3CqhPMwmDiyMLZYsjCz13KwgwKy8LCi8jCyrTM&#xD;&#xa;wgwxzMK4ZcvC087JwkV2xsLyXsnCjIbLwhwvzcLfrM7CeITKwla3ysLK3cnC/PHFwpScxcIUQ8nC&#xD;&#xa;NJzIwrEsxsJvZcfCXSvIwlKLx8JII8nCvgzKwpnhysJSC8vC9iTKwiA/y8IadczCuDrMwuVaysLO&#xD;&#xa;r8vCXtfJwrZ6ycItucnCtonJwjyTysJkC83CL0nMwkjdyMIBucfCixrLwvSDysKGX8nCsCzMwuas&#xD;&#xa;0cIsnNPCuEvOwtr5y8LMBc7Cr+PTwsQc5MLcOfPCKOj0wjr59cJ0C/fCzg75wkwh+8LmVPnCqz72&#xD;&#xa;wnB+9cLuJvrCtEL4wkp7+MLOfffCDN3zwkaz9sLi8vjCFKr6wgIQ+cI8iPjCBpT4wvR1+MLQI/rC&#xD;&#xa;Ihn8wlQg+sIcLvjCVCz2wsI49MJQ9fbC23H3woy69sL4BfnCIOb2wjwy9cIuGvnCdmb3wj7K9MI+&#xD;&#xa;KPXCJpr2wn7C9cKQDvnCthv7woaP+cLGaPbCTr32wrpN+cIFSPjCDvX4wtD39sJY//TCKGf3wvZI&#xD;&#xa;+cK9YvfCgYf3wjIf+sLMMvfCpjz2wuA6+cII8vbCxDv1wmJG9sLka/rCPrT1wi589cLqjfbC9qP4&#xD;&#xa;wgzJ+MLelPbCGir2wlBC9sKeU/jC/nn3wsYn9sL4QPjCXBj5wopQ+MIaJvnCSB36wgjc+MIMfPfC&#xD;&#xa;W+z1wmYG+MKuxPnCCuD1wjh+9sLDrPfCOPj3wm7h+MJjMvfCxH/2wsXf98KwN/nCKOn5wrLR+sKg&#xD;&#xa;bPvCkFv5wsAu+cL2hffCySz2wmRX+MKiiPjCzFX4wvjB98Jgz/fCxPT4wobP+cL8avjC9r34wnKx&#xD;&#xa;+MK+LPnC3H34wle39cKejfbCNKP2wg5B9sK0H/rCSvz2woqE98JAqfjCBPL4wmKi+MIu2/jCMFD5&#xD;&#xa;wiCM+cKo//nCGqz7wlZN+sKUDfjC0ov4wrIU+sIVpffCP2/3woye98KktPbCTJj2wpH29cL3mvbC&#xD;&#xa;jL/4wti/+MLm3vjCQ9QEwzOmYsI/y13CPNeLwsehjcK+No/Cm+aOwlHvjcIja5HCun6XwoKemMJy&#xD;&#xa;lpPCuQeRwhgMlcJGdZvCTjScwgFMncIGh5zCGrOawuO0nMJdJZ3Cybudwo6toMIdraPCs/6jwpY0&#xD;&#xa;psLIUqjCWQmpwonmp8KcE6XCgXGlwqC+psIFHabCBoyownWvqcIkX6jCgnCpwms3qsIW0KfCM7Oj&#xD;&#xa;wnGLosJgcKnCdk6swiIgscKFrbDCtNmowrZmpcIHYqjCCg2pwqUNq8KgHq7ChEGxwhVFs8KU6LLC&#xD;&#xa;dvWzwpVHscI6NrDCMpGwwubcs8Imh7bCPKq6wj7tvMKSbr3ClsG+wq4qwMLXQr7CpAK5whxiuMJp&#xD;&#xa;v7nCwu29wloQvsIXTL3CzjDAwsDTwcL69sHC8urAwtAFwMIkSMLCpJHDwjLOw8JG8sTCmMvDwq7H&#xD;&#xa;wsLOncPC+CDDwkh6wsLU5sPCP23Fwm5Qx8KlYsTCm0XCwnhexcLsTsPCSMPDwjvJw8LMWcHC2XHD&#xD;&#xa;wjj5wsICs8TChWvEwgCywcKDdcHCFnHCwurMxMLlVsTCfrDGwmzqyMKoGsfC7ITIwtqRyMJwzcbC&#xD;&#xa;ppbEwiv5xcIXxsTCzDfCwtSExMKEjcTC8ObDwiJ9yMIQm8vCIkDGwqHyxcIyYcbCyAXIwmyBx8I4&#xD;&#xa;n8PCvyPGwuiKxMJggMfCdL3JwsMhysLi6sXCRa7Ewoykx8Jk/MXC0NfEwtK0xcJQTMTCvvvGwtqJ&#xD;&#xa;xMKmFsTCSbfGwq76x8IQ+sjCsqnIwkJdycIaT8fC0nbHwlf2xsLg/cbCtIHHwsTvxsI0KsbCsqDH&#xD;&#xa;wgLix8JGKcXCyNTDwjDwwsIb98bC6MjJwg6Zy8Kg+cvCaC3HwtIgw8KW7sXC3EHGwmcUxcL++8fC&#xD;&#xa;CWbIwsDoxsJFz8PCJkXFwiD7xcIQDsfC8ljIwrDLxMKkeMLClpHEwiqgyMJcjcjC6krGwl50w8Iy&#xD;&#xa;7sXCWv3HwkQ1xsKUwMPC2K/EwootxMJUqMTCH3LDwuojxcKil8fCjmXIwkLJxcID78TClTvGwhel&#xD;&#xa;xsIca8bC1rbCwk6+wsIQfsfCIlPHwpJExcLWhMbCDNvEwuryxMKklMXCeBDDwolhwcIiasLCQYfE&#xD;&#xa;whUfwsJx4MTCsEnIwkX0xcK+3sbCIqLHwrARx8IWtMTCGAnFwomNxMLfbcTCQIPDwjqww8L+MMTC&#xD;&#xa;mqjHwrBaxMI6YsTCxmvIwqyKycKQaMXCnx7FwkYvx8In6sjCGMzIwuvAxcL8a8XCiBjJwkvwyMKI&#xD;&#xa;qMbCTCTIwvQSy8IxEsvCVT/JwrI3w8LA8sLCCD7EwsxXxMJSjsXCfjXFwqTKxMI/gsPCDozDwtwF&#xD;&#xa;xMISn8bChHvJwlFQyMJYCsbCP4jIwtkBycLiFsrCbCrKwvyTysIWncnC+A3HwuI5x8I8/MbC0hHI&#xD;&#xa;wopJzMLmb83CFkvMwpy/y8Kn7MrCfJrJwuLDyMJKn8bCStTGwpb7ycIMo8nCcivFwsapxcJkx8bC&#xD;&#xa;ALLIwriaycJM3cfC8r/KwlSoy8I4A8vCpFHJwkRrzMIKr87CWD7MwsiJycKW9cfCUjbKwq+YycLi&#xD;&#xa;U8jCROHHwhdWycKaU8nCF7jMwmKaz8L//8zC8tjOwjxezsIUysvCzHLJwiJryMLRm8bCgLjKwsi8&#xD;&#xa;ysIhfszCPETLwqtbyMJGeMfCpRPJwnwZzMJSIs3CqhPMwmDiyMLZYsjCz13KwgwKy8LCi8jCyrTM&#xD;&#xa;wgwxzMK4ZcvC087JwkV2xsLyXsnCjIbLwhwvzcLfrM7CeITKwla3ysLK3cnC/PHFwpScxcIUQ8nC&#xD;&#xa;NJzIwrEsxsJvZcfCXSvIwlKLx8JII8nCvgzKwpnhysJSC8vC9iTKwiA/y8IadczCuDrMwuVaysLO&#xD;&#xa;r8vCXtfJwrZ6ycItucnCtonJwjyTysJkC83CL0nMwkjdyMIBucfCixrLwvSDysKGX8nCsCzMwuas&#xD;&#xa;0cIsnNPCuEvOwtr5y8LMBc7Cr+PTwsQc5MLcOfPCKOj0wjr59cJ0C/fCzg75wkwh+8LmVPnCqz72&#xD;&#xa;wnB+9cLuJvrCtEL4wkp7+MLOfffCDN3zwkaz9sLi8vjCFKr6wgIQ+cI8iPjCBpT4wvR1+MLQI/rC&#xD;&#xa;Ihn8wlQg+sIcLvjCVCz2wsI49MJQ9fbC23H3woy69sL4BfnCIOb2wjwy9cIuGvnCdmb3wj7K9MI+&#xD;&#xa;KPXCJpr2wn7C9cKQDvnCthv7woaP+cLGaPbCTr32wrpN+cIFSPjCDvX4wtD39sJY//TCKGf3wvZI&#xD;&#xa;+cK9YvfCgYf3wjIf+sLMMvfCpjz2wuA6+cII8vbCxDv1wmJG9sLka/rCPrT1wi589cLqjfbC9qP4&#xD;&#xa;wgzJ+MLelPbCGir2wlBC9sKeU/jC/nn3wsYn9sL4QPjCXBj5wopQ+MIaJvnCSB36wgjc+MIMfPfC&#xD;&#xa;W+z1wmYG+MKuxPnCCuD1wjh+9sLDrPfCOPj3wm7h+MJjMvfCxH/2wsXf98KwN/nCKOn5wrLR+sKg&#xD;&#xa;bPvCkFv5wsAu+cL2hffCySz2wmRX+MKiiPjCzFX4wvjB98Jgz/fCxPT4wobP+cL8avjC9r34wnKx&#xD;&#xa;+MK+LPnC3H34wle39cKejfbCNKP2wg5B9sK0H/rCSvz2woqE98JAqfjCBPL4wmKi+MIu2/jCMFD5&#xD;&#xa;wiCM+cKo//nCGqz7wlZN+sKUDfjC0ov4wrIU+sIVpffCP2/3woye98KktPbCTJj2wpH29cL3mvbC&#xD;&#xa;jL/4wti/+MLm3vjCQ9QE" leadInLength="0/1"  />
            </Keyframes>
           </Parameter>
           </Parameters>
          </GenericEffect>
          <GenericEffect id="2823" name = "WinCompression" >
           <Parameters>
           <InterpolatingParam id="2824" interp="linr"  time="0/1" value="0" leadInLength="0/1"   name="attack"/>
           <InterpolatingParam id="2825" interp="linr"  time="0/1" value="9" leadInLength="0/1"   name="gain"/>
           <Parameter id="2826"   name="preset">
            <Keyframes>
            <Keyframe id="2827"  time="0/1" value="1" leadInLength="0/1"  />
            </Keyframes>
           </Parameter>
           <InterpolatingParam id="2828" interp="linr"  time="0/1" value="10" leadInLength="0/1"   name="ratio"/>
           <InterpolatingParam id="2829" interp="linr"  time="0/1" value="3500" leadInLength="0/1"   name="release"/>
           <InterpolatingParam id="2830" interp="linr"  time="0/1" value="-20" leadInLength="0/1"   name="threshold"/>
           </Parameters>
          </GenericEffect>
          <GenericEffect id="2831" name = "Declipper" >
           <Parameters>
           <InterpolatingParam id="2832" interp="linr"  time="0/1" value="-1" leadInLength="0/1"   name="sensitivity"/>
           </Parameters>
          </GenericEffect>
          <GenericEffect id="2833" name = "Declicker" >
           <Parameters>
           <InterpolatingParam id="2834" interp="linr"  time="0/1" value="3" leadInLength="0/1"   name="sensitivity"/>
           </Parameters>
          </GenericEffect>
         </Effects>
         <Attributes>
          <Attribute id="2835" value="" name="ident"/>
          <Attribute id="2836" value="44100" name="sampleRate"/>
          <Attribute id="2837" value="16" name="bitDepth"/>
          <Attribute id="2838" value="1" name="gain"/>
          <Attribute id="2839" value="0" name="mixToMono"/>
         </Attributes>
         <MetaData>
          <entry key="WinSubProjectDisplayName" val=""/>
         </MetaData>
        </AMFile>
        <AMFile id="2840" start="8655" duration="38" scalar="1/1" mediaStart="14412/1" mediaDuration="38/1" trackNumber="0" src="22" channelNumber="0" >
         <Parameters>
          <InterpolatingParam id="2841" interp="linr"  name="volume">
           <Keyframes>
           <Keyframe id="2842"  time="0/1" value="1" leadInLength="0/1"  />
           <Keyframe id="2843"  time="3301/1" value="1" leadInLength="0/1"  />
           <Keyframe id="2844"  time="3302/1" value="0.80000000000000004" leadInLength="0/1"  />
           <Keyframe id="2845"  time="14568/1" value="0.80000000000000004" leadInLength="0/1"  />
           <Keyframe id="2846"  time="14569/1" value="1" leadInLength="0/1"  />
           </Keyframes>
          </InterpolatingParam>
          <Parameter id="2847"  name="captions"/>
         </Parameters>
         <Effects>
          <GenericEffect id="2848" name = "NoiseReduction" >
           <Parameters>
           <InterpolatingParam id="2849" interp="linr"  time="0/1" value="20" leadInLength="0/1"   name="denoiserAmount"/>
           <InterpolatingParam id="2850" interp="linr"  time="0/1" value="0" leadInLength="0/1"   name="denoiserThreshold"/>
           <Parameter id="2851"   name="noiseProfile">
            <Keyframes>
            <Keyframe id="2852"  time="0/1" value="FBAAAAIAAABErAAAAQIAADOmYsI/y13CPNeLwsehjcK+No/Cm+aOwlHvjcIja5HCun6XwoKemMJy&#xD;&#xa;lpPCuQeRwhgMlcJGdZvCTjScwgFMncIGh5zCGrOawuO0nMJdJZ3Cybudwo6toMIdraPCs/6jwpY0&#xD;&#xa;psLIUqjCWQmpwonmp8KcE6XCgXGlwqC+psIFHabCBoyownWvqcIkX6jCgnCpwms3qsIW0KfCM7Oj&#xD;&#xa;wnGLosJgcKnCdk6swiIgscKFrbDCtNmowrZmpcIHYqjCCg2pwqUNq8KgHq7ChEGxwhVFs8KU6LLC&#xD;&#xa;dvWzwpVHscI6NrDCMpGwwubcs8Imh7bCPKq6wj7tvMKSbr3ClsG+wq4qwMLXQr7CpAK5whxiuMJp&#xD;&#xa;v7nCwu29wloQvsIXTL3CzjDAwsDTwcL69sHC8urAwtAFwMIkSMLCpJHDwjLOw8JG8sTCmMvDwq7H&#xD;&#xa;wsLOncPC+CDDwkh6wsLU5sPCP23Fwm5Qx8KlYsTCm0XCwnhexcLsTsPCSMPDwjvJw8LMWcHC2XHD&#xD;&#xa;wjj5wsICs8TChWvEwgCywcKDdcHCFnHCwurMxMLlVsTCfrDGwmzqyMKoGsfC7ITIwtqRyMJwzcbC&#xD;&#xa;ppbEwiv5xcIXxsTCzDfCwtSExMKEjcTC8ObDwiJ9yMIQm8vCIkDGwqHyxcIyYcbCyAXIwmyBx8I4&#xD;&#xa;n8PCvyPGwuiKxMJggMfCdL3JwsMhysLi6sXCRa7Ewoykx8Jk/MXC0NfEwtK0xcJQTMTCvvvGwtqJ&#xD;&#xa;xMKmFsTCSbfGwq76x8IQ+sjCsqnIwkJdycIaT8fC0nbHwlf2xsLg/cbCtIHHwsTvxsI0KsbCsqDH&#xD;&#xa;wgLix8JGKcXCyNTDwjDwwsIb98bC6MjJwg6Zy8Kg+cvCaC3HwtIgw8KW7sXC3EHGwmcUxcL++8fC&#xD;&#xa;CWbIwsDoxsJFz8PCJkXFwiD7xcIQDsfC8ljIwrDLxMKkeMLClpHEwiqgyMJcjcjC6krGwl50w8Iy&#xD;&#xa;7sXCWv3HwkQ1xsKUwMPC2K/EwootxMJUqMTCH3LDwuojxcKil8fCjmXIwkLJxcID78TClTvGwhel&#xD;&#xa;xsIca8bC1rbCwk6+wsIQfsfCIlPHwpJExcLWhMbCDNvEwuryxMKklMXCeBDDwolhwcIiasLCQYfE&#xD;&#xa;whUfwsJx4MTCsEnIwkX0xcK+3sbCIqLHwrARx8IWtMTCGAnFwomNxMLfbcTCQIPDwjqww8L+MMTC&#xD;&#xa;mqjHwrBaxMI6YsTCxmvIwqyKycKQaMXCnx7FwkYvx8In6sjCGMzIwuvAxcL8a8XCiBjJwkvwyMKI&#xD;&#xa;qMbCTCTIwvQSy8IxEsvCVT/JwrI3w8LA8sLCCD7EwsxXxMJSjsXCfjXFwqTKxMI/gsPCDozDwtwF&#xD;&#xa;xMISn8bChHvJwlFQyMJYCsbCP4jIwtkBycLiFsrCbCrKwvyTysIWncnC+A3HwuI5x8I8/MbC0hHI&#xD;&#xa;wopJzMLmb83CFkvMwpy/y8Kn7MrCfJrJwuLDyMJKn8bCStTGwpb7ycIMo8nCcivFwsapxcJkx8bC&#xD;&#xa;ALLIwriaycJM3cfC8r/KwlSoy8I4A8vCpFHJwkRrzMIKr87CWD7MwsiJycKW9cfCUjbKwq+YycLi&#xD;&#xa;U8jCROHHwhdWycKaU8nCF7jMwmKaz8L//8zC8tjOwjxezsIUysvCzHLJwiJryMLRm8bCgLjKwsi8&#xD;&#xa;ysIhfszCPETLwqtbyMJGeMfCpRPJwnwZzMJSIs3CqhPMwmDiyMLZYsjCz13KwgwKy8LCi8jCyrTM&#xD;&#xa;wgwxzMK4ZcvC087JwkV2xsLyXsnCjIbLwhwvzcLfrM7CeITKwla3ysLK3cnC/PHFwpScxcIUQ8nC&#xD;&#xa;NJzIwrEsxsJvZcfCXSvIwlKLx8JII8nCvgzKwpnhysJSC8vC9iTKwiA/y8IadczCuDrMwuVaysLO&#xD;&#xa;r8vCXtfJwrZ6ycItucnCtonJwjyTysJkC83CL0nMwkjdyMIBucfCixrLwvSDysKGX8nCsCzMwuas&#xD;&#xa;0cIsnNPCuEvOwtr5y8LMBc7Cr+PTwsQc5MLcOfPCKOj0wjr59cJ0C/fCzg75wkwh+8LmVPnCqz72&#xD;&#xa;wnB+9cLuJvrCtEL4wkp7+MLOfffCDN3zwkaz9sLi8vjCFKr6wgIQ+cI8iPjCBpT4wvR1+MLQI/rC&#xD;&#xa;Ihn8wlQg+sIcLvjCVCz2wsI49MJQ9fbC23H3woy69sL4BfnCIOb2wjwy9cIuGvnCdmb3wj7K9MI+&#xD;&#xa;KPXCJpr2wn7C9cKQDvnCthv7woaP+cLGaPbCTr32wrpN+cIFSPjCDvX4wtD39sJY//TCKGf3wvZI&#xD;&#xa;+cK9YvfCgYf3wjIf+sLMMvfCpjz2wuA6+cII8vbCxDv1wmJG9sLka/rCPrT1wi589cLqjfbC9qP4&#xD;&#xa;wgzJ+MLelPbCGir2wlBC9sKeU/jC/nn3wsYn9sL4QPjCXBj5wopQ+MIaJvnCSB36wgjc+MIMfPfC&#xD;&#xa;W+z1wmYG+MKuxPnCCuD1wjh+9sLDrPfCOPj3wm7h+MJjMvfCxH/2wsXf98KwN/nCKOn5wrLR+sKg&#xD;&#xa;bPvCkFv5wsAu+cL2hffCySz2wmRX+MKiiPjCzFX4wvjB98Jgz/fCxPT4wobP+cL8avjC9r34wnKx&#xD;&#xa;+MK+LPnC3H34wle39cKejfbCNKP2wg5B9sK0H/rCSvz2woqE98JAqfjCBPL4wmKi+MIu2/jCMFD5&#xD;&#xa;wiCM+cKo//nCGqz7wlZN+sKUDfjC0ov4wrIU+sIVpffCP2/3woye98KktPbCTJj2wpH29cL3mvbC&#xD;&#xa;jL/4wti/+MLm3vjCQ9QEwzOmYsI/y13CPNeLwsehjcK+No/Cm+aOwlHvjcIja5HCun6XwoKemMJy&#xD;&#xa;lpPCuQeRwhgMlcJGdZvCTjScwgFMncIGh5zCGrOawuO0nMJdJZ3Cybudwo6toMIdraPCs/6jwpY0&#xD;&#xa;psLIUqjCWQmpwonmp8KcE6XCgXGlwqC+psIFHabCBoyownWvqcIkX6jCgnCpwms3qsIW0KfCM7Oj&#xD;&#xa;wnGLosJgcKnCdk6swiIgscKFrbDCtNmowrZmpcIHYqjCCg2pwqUNq8KgHq7ChEGxwhVFs8KU6LLC&#xD;&#xa;dvWzwpVHscI6NrDCMpGwwubcs8Imh7bCPKq6wj7tvMKSbr3ClsG+wq4qwMLXQr7CpAK5whxiuMJp&#xD;&#xa;v7nCwu29wloQvsIXTL3CzjDAwsDTwcL69sHC8urAwtAFwMIkSMLCpJHDwjLOw8JG8sTCmMvDwq7H&#xD;&#xa;wsLOncPC+CDDwkh6wsLU5sPCP23Fwm5Qx8KlYsTCm0XCwnhexcLsTsPCSMPDwjvJw8LMWcHC2XHD&#xD;&#xa;wjj5wsICs8TChWvEwgCywcKDdcHCFnHCwurMxMLlVsTCfrDGwmzqyMKoGsfC7ITIwtqRyMJwzcbC&#xD;&#xa;ppbEwiv5xcIXxsTCzDfCwtSExMKEjcTC8ObDwiJ9yMIQm8vCIkDGwqHyxcIyYcbCyAXIwmyBx8I4&#xD;&#xa;n8PCvyPGwuiKxMJggMfCdL3JwsMhysLi6sXCRa7Ewoykx8Jk/MXC0NfEwtK0xcJQTMTCvvvGwtqJ&#xD;&#xa;xMKmFsTCSbfGwq76x8IQ+sjCsqnIwkJdycIaT8fC0nbHwlf2xsLg/cbCtIHHwsTvxsI0KsbCsqDH&#xD;&#xa;wgLix8JGKcXCyNTDwjDwwsIb98bC6MjJwg6Zy8Kg+cvCaC3HwtIgw8KW7sXC3EHGwmcUxcL++8fC&#xD;&#xa;CWbIwsDoxsJFz8PCJkXFwiD7xcIQDsfC8ljIwrDLxMKkeMLClpHEwiqgyMJcjcjC6krGwl50w8Iy&#xD;&#xa;7sXCWv3HwkQ1xsKUwMPC2K/EwootxMJUqMTCH3LDwuojxcKil8fCjmXIwkLJxcID78TClTvGwhel&#xD;&#xa;xsIca8bC1rbCwk6+wsIQfsfCIlPHwpJExcLWhMbCDNvEwuryxMKklMXCeBDDwolhwcIiasLCQYfE&#xD;&#xa;whUfwsJx4MTCsEnIwkX0xcK+3sbCIqLHwrARx8IWtMTCGAnFwomNxMLfbcTCQIPDwjqww8L+MMTC&#xD;&#xa;mqjHwrBaxMI6YsTCxmvIwqyKycKQaMXCnx7FwkYvx8In6sjCGMzIwuvAxcL8a8XCiBjJwkvwyMKI&#xD;&#xa;qMbCTCTIwvQSy8IxEsvCVT/JwrI3w8LA8sLCCD7EwsxXxMJSjsXCfjXFwqTKxMI/gsPCDozDwtwF&#xD;&#xa;xMISn8bChHvJwlFQyMJYCsbCP4jIwtkBycLiFsrCbCrKwvyTysIWncnC+A3HwuI5x8I8/MbC0hHI&#xD;&#xa;wopJzMLmb83CFkvMwpy/y8Kn7MrCfJrJwuLDyMJKn8bCStTGwpb7ycIMo8nCcivFwsapxcJkx8bC&#xD;&#xa;ALLIwriaycJM3cfC8r/KwlSoy8I4A8vCpFHJwkRrzMIKr87CWD7MwsiJycKW9cfCUjbKwq+YycLi&#xD;&#xa;U8jCROHHwhdWycKaU8nCF7jMwmKaz8L//8zC8tjOwjxezsIUysvCzHLJwiJryMLRm8bCgLjKwsi8&#xD;&#xa;ysIhfszCPETLwqtbyMJGeMfCpRPJwnwZzMJSIs3CqhPMwmDiyMLZYsjCz13KwgwKy8LCi8jCyrTM&#xD;&#xa;wgwxzMK4ZcvC087JwkV2xsLyXsnCjIbLwhwvzcLfrM7CeITKwla3ysLK3cnC/PHFwpScxcIUQ8nC&#xD;&#xa;NJzIwrEsxsJvZcfCXSvIwlKLx8JII8nCvgzKwpnhysJSC8vC9iTKwiA/y8IadczCuDrMwuVaysLO&#xD;&#xa;r8vCXtfJwrZ6ycItucnCtonJwjyTysJkC83CL0nMwkjdyMIBucfCixrLwvSDysKGX8nCsCzMwuas&#xD;&#xa;0cIsnNPCuEvOwtr5y8LMBc7Cr+PTwsQc5MLcOfPCKOj0wjr59cJ0C/fCzg75wkwh+8LmVPnCqz72&#xD;&#xa;wnB+9cLuJvrCtEL4wkp7+MLOfffCDN3zwkaz9sLi8vjCFKr6wgIQ+cI8iPjCBpT4wvR1+MLQI/rC&#xD;&#xa;Ihn8wlQg+sIcLvjCVCz2wsI49MJQ9fbC23H3woy69sL4BfnCIOb2wjwy9cIuGvnCdmb3wj7K9MI+&#xD;&#xa;KPXCJpr2wn7C9cKQDvnCthv7woaP+cLGaPbCTr32wrpN+cIFSPjCDvX4wtD39sJY//TCKGf3wvZI&#xD;&#xa;+cK9YvfCgYf3wjIf+sLMMvfCpjz2wuA6+cII8vbCxDv1wmJG9sLka/rCPrT1wi589cLqjfbC9qP4&#xD;&#xa;wgzJ+MLelPbCGir2wlBC9sKeU/jC/nn3wsYn9sL4QPjCXBj5wopQ+MIaJvnCSB36wgjc+MIMfPfC&#xD;&#xa;W+z1wmYG+MKuxPnCCuD1wjh+9sLDrPfCOPj3wm7h+MJjMvfCxH/2wsXf98KwN/nCKOn5wrLR+sKg&#xD;&#xa;bPvCkFv5wsAu+cL2hffCySz2wmRX+MKiiPjCzFX4wvjB98Jgz/fCxPT4wobP+cL8avjC9r34wnKx&#xD;&#xa;+MK+LPnC3H34wle39cKejfbCNKP2wg5B9sK0H/rCSvz2woqE98JAqfjCBPL4wmKi+MIu2/jCMFD5&#xD;&#xa;wiCM+cKo//nCGqz7wlZN+sKUDfjC0ov4wrIU+sIVpffCP2/3woye98KktPbCTJj2wpH29cL3mvbC&#xD;&#xa;jL/4wti/+MLm3vjCQ9QE" leadInLength="0/1"  />
            </Keyframes>
           </Parameter>
           </Parameters>
          </GenericEffect>
          <GenericEffect id="2853" name = "WinCompression" >
           <Parameters>
           <InterpolatingParam id="2854" interp="linr"  time="0/1" value="0" leadInLength="0/1"   name="attack"/>
           <InterpolatingParam id="2855" interp="linr"  time="0/1" value="9" leadInLength="0/1"   name="gain"/>
           <Parameter id="2856"   name="preset">
            <Keyframes>
            <Keyframe id="2857"  time="0/1" value="1" leadInLength="0/1"  />
            </Keyframes>
           </Parameter>
           <InterpolatingParam id="2858" interp="linr"  time="0/1" value="10" leadInLength="0/1"   name="ratio"/>
           <InterpolatingParam id="2859" interp="linr"  time="0/1" value="3500" leadInLength="0/1"   name="release"/>
           <InterpolatingParam id="2860" interp="linr"  time="0/1" value="-20" leadInLength="0/1"   name="threshold"/>
           </Parameters>
          </GenericEffect>
          <GenericEffect id="2861" name = "Declipper" >
           <Parameters>
           <InterpolatingParam id="2862" interp="linr"  time="0/1" value="-1" leadInLength="0/1"   name="sensitivity"/>
           </Parameters>
          </GenericEffect>
          <GenericEffect id="2863" name = "Declicker" >
           <Parameters>
           <InterpolatingParam id="2864" interp="linr"  time="0/1" value="3" leadInLength="0/1"   name="sensitivity"/>
           </Parameters>
          </GenericEffect>
         </Effects>
         <Attributes>
          <Attribute id="2865" value="" name="ident"/>
          <Attribute id="2866" value="44100" name="sampleRate"/>
          <Attribute id="2867" value="16" name="bitDepth"/>
          <Attribute id="2868" value="1" name="gain"/>
          <Attribute id="2869" value="0" name="mixToMono"/>
         </Attributes>
         <MetaData>
          <entry key="WinSubProjectDisplayName" val=""/>
         </MetaData>
        </AMFile>
       </Medias>
      </GenericTrack>
      <GenericTrack id="2870"  >
       <Attributes>
        <Attribute id="2871" value="" name="ident"/>
        <Attribute id="2872" value="0" name="audioMuted"/>
        <Attribute id="2873" value="0" name="videoHidden"/>
       </Attributes>
       <MetaData>
        <entry key="IsLocked" val="False"/>
        <entry key="WinTrackHeight" val="62"/>
       </MetaData>
       <Medias>
        <UnifiedMedia id="2874"  >
         <AudioTransition id="2875" start="258" duration="41" >
          <Parameters>
           <InterpolatingParam id="2876" interp="linr"  time="0/1" value="1" leadInLength="0/1"  name="volume"/>
           <Parameter id="2877"  name="captions"/>
          </Parameters>
          <Effects>
           <GenericEffect id="2878" name = "AudioTransition" >
            <Parameters>
            <Parameter id="2879"   name="audioEdgeModType">
             <Keyframes>
             <Keyframe id="2880"  time="0/1" value="0" leadInLength="0/1"  />
             </Keyframes>
            </Parameter>
            <Parameter id="2881"   name="audioTransitionType">
             <Keyframes>
             <Keyframe id="2882"  time="0/1" value="" leadInLength="0/1"  />
             </Keyframes>
            </Parameter>
            </Parameters>
            <MetaData>
            </MetaData>
           </GenericEffect>
          </Effects>
          <Attributes>
           <Attribute id="2883" value="" name="ident"/>
           <Attribute id="2884" value="0" name="sampleRate"/>
           <Attribute id="2885" value="0" name="bitDepth"/>
           <Attribute id="2886" value="1" name="gain"/>
           <Attribute id="2887" value="0" name="mixToMono"/>
          </Attributes>
         </AudioTransition>
         <ImageTransition id="2888" start="258" duration="41" >
          <Transformer>
           <VectorParam id="2889"  name="translation">
            <InterpolatingParam id="2890" interp="linr"  time="0/1" value="0" leadInLength="0/1"  />
            <InterpolatingParam id="2891" interp="linr"  time="0/1" value="0" leadInLength="0/1"  />
            <InterpolatingParam id="2892" interp="linr"  time="0/1" value="0" leadInLength="0/1"  />
           </VectorParam>
           <VectorParam id="2893"  name="rotation">
            <InterpolatingParam id="2894" interp="linr"  time="0/1" value="0" leadInLength="0/1"  />
            <InterpolatingParam id="2895" interp="linr"  time="0/1" value="0" leadInLength="0/1"  />
            <InterpolatingParam id="2896" interp="linr"  time="0/1" value="0" leadInLength="0/1"  />
           </VectorParam>
           <VectorParam id="2897"  name="shear">
            <InterpolatingParam id="2898" interp="linr"  time="0/1" value="0" leadInLength="0/1"  />
            <InterpolatingParam id="2899" interp="linr"  time="0/1" value="0" leadInLength="0/1"  />
            <InterpolatingParam id="2900" interp="linr"  time="0/1" value="0" leadInLength="0/1"  />
           </VectorParam>
           <VectorParam id="2901"  name="scale">
            <InterpolatingParam id="2902" interp="linr"  time="0/1" value="1" leadInLength="0/1"  />
            <InterpolatingParam id="2903" interp="linr"  time="0/1" value="1" leadInLength="0/1"  />
            <InterpolatingParam id="2904" interp="linr"  time="0/1" value="1" leadInLength="0/1"  />
           </VectorParam>
           <VectorParam id="2905"  name="anchor">
            <InterpolatingParam id="2906" interp="linr"  time="0/1" value="0" leadInLength="0/1"  />
            <InterpolatingParam id="2907" interp="linr"  time="0/1" value="0" leadInLength="0/1"  />
            <InterpolatingParam id="2908" interp="linr"  time="0/1" value="0" leadInLength="0/1"  />
           </VectorParam>
          </Transformer>
          <Parameters>
           <VectorParam id="2909"  name="sourceCrop">
            <InterpolatingParam id="2910" interp="linr"  time="0/1" value="0" leadInLength="0/1"  />
            <InterpolatingParam id="2911" interp="linr"  time="0/1" value="0" leadInLength="0/1"  />
            <InterpolatingParam id="2912" interp="linr"  time="0/1" value="0" leadInLength="0/1"  />
            <InterpolatingParam id="2913" interp="linr"  time="0/1" value="0" leadInLength="0/1"  />
           </VectorParam>
           <VectorParam id="2914"  name="geometryCrop">
            <InterpolatingParam id="2915" interp="linr"  time="0/1" value="0" leadInLength="0/1"  />
            <InterpolatingParam id="2916" interp="linr"  time="0/1" value="0" leadInLength="0/1"  />
            <InterpolatingParam id="2917" interp="linr"  time="0/1" value="0" leadInLength="0/1"  />
            <InterpolatingParam id="2918" interp="linr"  time="0/1" value="0" leadInLength="0/1"  />
           </VectorParam>
           <InterpolatingParam id="2919" interp="linr"  time="0/1" value="1" leadInLength="0/1"  name="opacity"/>
          </Parameters>
          <Effects>
           <GenericEffect id="2920" name = "VisualTransition" >
            <Parameters>
            <InterpolatingParam id="2921" interp="linr"  time="0/1" value="0.5" leadInLength="0/1"   name="leftFramePercentage"/>
            <InterpolatingParam id="2922" interp="linr"  time="0/1" value="0.5" leadInLength="0/1"   name="rightFramePercentage"/>
            <Parameter id="2923"   name="visualEdgeModType">
             <Keyframes>
             <Keyframe id="2924"  time="0/1" value="1" leadInLength="0/1"  />
             </Keyframes>
            </Parameter>
            <Parameter id="2925"   name="visualTransitionType">
             <Keyframes>
             <Keyframe id="2926"  time="0/1" value="Fade" leadInLength="0/1"  />
             </Keyframes>
            </Parameter>
            </Parameters>
            <MetaData>
            </MetaData>
           </GenericEffect>
          </Effects>
          <Attributes>
           <Attribute id="2927" value="" name="ident"/>
          </Attributes>
          <ExtraData>
           <Entry key="ZoomPanBin">
            <ZoomPanBin id="2928"  >
             <ZoomPanKeyframes>
             </ZoomPanKeyframes>
            </ZoomPanBin>
           </Entry>
          </ExtraData>
         </ImageTransition>
         <MetaData>
          <entry key="WinSubProjectDisplayName" val=""/>
         </MetaData>
        </UnifiedMedia>
        <IMFile id="2929" start="299" duration="117" scalar="1/1" mediaStart="0/1" mediaDuration="1/1" trackNumber="0" src="23" trimStartSum="23/1" >
         <Transformer>
          <VectorParam id="2930"  name="translation">
           <InterpolatingParam id="2931" interp="linr"  time="-9999999/1" value="0" leadInLength="0/1"  />
           <InterpolatingParam id="2932" interp="linr"  time="-9999999/1" value="0" leadInLength="0/1"  />
           <InterpolatingParam id="2933" interp="linr"  time="-9999999/1" value="0" leadInLength="0/1"  />
          </VectorParam>
          <VectorParam id="2934"  name="rotation">
           <InterpolatingParam id="2935" interp="linr"  time="-9999999/1" value="0" leadInLength="0/1"  />
           <InterpolatingParam id="2936" interp="linr"  time="-9999999/1" value="0" leadInLength="0/1"  />
           <InterpolatingParam id="2937" interp="linr"  time="-9999999/1" value="0" leadInLength="0/1"  />
          </VectorParam>
          <VectorParam id="2938"  name="shear">
           <InterpolatingParam id="2939" interp="linr"  time="-9999999/1" value="0" leadInLength="0/1"  />
           <InterpolatingParam id="2940" interp="linr"  time="-9999999/1" value="0" leadInLength="0/1"  />
           <InterpolatingParam id="2941" interp="linr"  time="-9999999/1" value="0" leadInLength="0/1"  />
          </VectorParam>
          <VectorParam id="2942"  name="scale">
           <InterpolatingParam id="2943" interp="linr"  time="-9999999/1" value="0.703125" leadInLength="0/1"  />
           <InterpolatingParam id="2944" interp="linr"  time="-9999999/1" value="0.703125" leadInLength="0/1"  />
           <InterpolatingParam id="2945" interp="linr"  time="-9999999/1" value="1" leadInLength="0/1"  />
          </VectorParam>
          <VectorParam id="2946"  name="anchor">
           <InterpolatingParam id="2947" interp="linr"  time="0/1" value="0" leadInLength="0/1"  />
           <InterpolatingParam id="2948" interp="linr"  time="0/1" value="0" leadInLength="0/1"  />
           <InterpolatingParam id="2949" interp="linr"  time="0/1" value="0" leadInLength="0/1"  />
          </VectorParam>
         </Transformer>
         <Parameters>
          <VectorParam id="2950"  name="sourceCrop">
           <InterpolatingParam id="2951" interp="linr"  time="0/1" value="0" leadInLength="0/1"  />
           <InterpolatingParam id="2952" interp="linr"  time="0/1" value="0" leadInLength="0/1"  />
           <InterpolatingParam id="2953" interp="linr"  time="0/1" value="0" leadInLength="0/1"  />
           <InterpolatingParam id="2954" interp="linr"  time="0/1" value="0" leadInLength="0/1"  />
          </VectorParam>
          <VectorParam id="2955"  name="geometryCrop">
           <InterpolatingParam id="2956" interp="linr"  time="-9999999/1" value="0" leadInLength="0/1"  />
           <InterpolatingParam id="2957" interp="linr"  time="-9999999/1" value="0" leadInLength="0/1"  />
           <InterpolatingParam id="2958" interp="linr"  time="-9999999/1" value="0" leadInLength="0/1"  />
           <InterpolatingParam id="2959" interp="linr"  time="-9999999/1" value="0" leadInLength="0/1"  />
          </VectorParam>
          <InterpolatingParam id="2960" interp="linr"  time="-9999999/1" value="1" leadInLength="0/1"  name="opacity"/>
         </Parameters>
         <Attributes>
          <Attribute id="2961" value="" name="ident"/>
         </Attributes>
         <MetaData>
          <entry key="WinSubProjectDisplayName" val=""/>
         </MetaData>
         <ExtraData>
          <Entry key="ZoomPanBin">
           <ZoomPanBin id="2962"  >
            <ZoomPanKeyframes>
             <ZoomPanKeyframe id="2963" timeRangeEnd="-9999999/1" timeRangeDuration="0/1" interpolaterName="linr"  />
            </ZoomPanKeyframes>
           </ZoomPanBin>
          </Entry>
         </ExtraData>
        </IMFile>
        <UnifiedMedia id="2964"  >
         <AudioTransition id="2965" start="416" duration="44" >
          <Parameters>
           <InterpolatingParam id="2966" interp="linr"  time="0/1" value="1" leadInLength="0/1"  name="volume"/>
           <Parameter id="2967"  name="captions"/>
          </Parameters>
          <Effects>
           <GenericEffect id="2968" name = "AudioTransition" >
            <Parameters>
            <Parameter id="2969"   name="audioEdgeModType">
             <Keyframes>
             <Keyframe id="2970"  time="0/1" value="0" leadInLength="0/1"  />
             </Keyframes>
            </Parameter>
            <Parameter id="2971"   name="audioTransitionType">
             <Keyframes>
             <Keyframe id="2972"  time="0/1" value="" leadInLength="0/1"  />
             </Keyframes>
            </Parameter>
            </Parameters>
            <MetaData>
            </MetaData>
           </GenericEffect>
          </Effects>
          <Attributes>
           <Attribute id="2973" value="" name="ident"/>
           <Attribute id="2974" value="0" name="sampleRate"/>
           <Attribute id="2975" value="0" name="bitDepth"/>
           <Attribute id="2976" value="1" name="gain"/>
           <Attribute id="2977" value="0" name="mixToMono"/>
          </Attributes>
         </AudioTransition>
         <ImageTransition id="2978" start="416" duration="44" >
          <Transformer>
           <VectorParam id="2979"  name="translation">
            <InterpolatingParam id="2980" interp="linr"  time="0/1" value="0" leadInLength="0/1"  />
            <InterpolatingParam id="2981" interp="linr"  time="0/1" value="0" leadInLength="0/1"  />
            <InterpolatingParam id="2982" interp="linr"  time="0/1" value="0" leadInLength="0/1"  />
           </VectorParam>
           <VectorParam id="2983"  name="rotation">
            <InterpolatingParam id="2984" interp="linr"  time="0/1" value="0" leadInLength="0/1"  />
            <InterpolatingParam id="2985" interp="linr"  time="0/1" value="0" leadInLength="0/1"  />
            <InterpolatingParam id="2986" interp="linr"  time="0/1" value="0" leadInLength="0/1"  />
           </VectorParam>
           <VectorParam id="2987"  name="shear">
            <InterpolatingParam id="2988" interp="linr"  time="0/1" value="0" leadInLength="0/1"  />
            <InterpolatingParam id="2989" interp="linr"  time="0/1" value="0" leadInLength="0/1"  />
            <InterpolatingParam id="2990" interp="linr"  time="0/1" value="0" leadInLength="0/1"  />
           </VectorParam>
           <VectorParam id="2991"  name="scale">
            <InterpolatingParam id="2992" interp="linr"  time="0/1" value="1" leadInLength="0/1"  />
            <InterpolatingParam id="2993" interp="linr"  time="0/1" value="1" leadInLength="0/1"  />
            <InterpolatingParam id="2994" interp="linr"  time="0/1" value="1" leadInLength="0/1"  />
           </VectorParam>
           <VectorParam id="2995"  name="anchor">
            <InterpolatingParam id="2996" interp="linr"  time="0/1" value="0" leadInLength="0/1"  />
            <InterpolatingParam id="2997" interp="linr"  time="0/1" value="0" leadInLength="0/1"  />
            <InterpolatingParam id="2998" interp="linr"  time="0/1" value="0" leadInLength="0/1"  />
           </VectorParam>
          </Transformer>
          <Parameters>
           <VectorParam id="2999"  name="sourceCrop">
            <InterpolatingParam id="3000" interp="linr"  time="0/1" value="0" leadInLength="0/1"  />
            <InterpolatingParam id="3001" interp="linr"  time="0/1" value="0" leadInLength="0/1"  />
            <InterpolatingParam id="3002" interp="linr"  time="0/1" value="0" leadInLength="0/1"  />
            <InterpolatingParam id="3003" interp="linr"  time="0/1" value="0" leadInLength="0/1"  />
           </VectorParam>
           <VectorParam id="3004"  name="geometryCrop">
            <InterpolatingParam id="3005" interp="linr"  time="0/1" value="0" leadInLength="0/1"  />
            <InterpolatingParam id="3006" interp="linr"  time="0/1" value="0" leadInLength="0/1"  />
            <InterpolatingParam id="3007" interp="linr"  time="0/1" value="0" leadInLength="0/1"  />
            <InterpolatingParam id="3008" interp="linr"  time="0/1" value="0" leadInLength="0/1"  />
           </VectorParam>
           <InterpolatingParam id="3009" interp="linr"  time="0/1" value="1" leadInLength="0/1"  name="opacity"/>
          </Parameters>
          <Effects>
           <GenericEffect id="3010" name = "VisualTransition" >
            <Parameters>
            <InterpolatingParam id="3011" interp="linr"  time="0/1" value="0.5" leadInLength="0/1"   name="leftFramePercentage"/>
            <InterpolatingParam id="3012" interp="linr"  time="0/1" value="0.5" leadInLength="0/1"   name="rightFramePercentage"/>
            <Parameter id="3013"   name="visualEdgeModType">
             <Keyframes>
             <Keyframe id="3014"  time="0/1" value="2" leadInLength="0/1"  />
             </Keyframes>
            </Parameter>
            <Parameter id="3015"   name="visualTransitionType">
             <Keyframes>
             <Keyframe id="3016"  time="0/1" value="Glow" leadInLength="0/1"  />
             </Keyframes>
            </Parameter>
            </Parameters>
            <MetaData>
            </MetaData>
           </GenericEffect>
          </Effects>
          <Attributes>
           <Attribute id="3017" value="" name="ident"/>
          </Attributes>
          <ExtraData>
           <Entry key="ZoomPanBin">
            <ZoomPanBin id="3018"  >
             <ZoomPanKeyframes>
             </ZoomPanKeyframes>
            </ZoomPanBin>
           </Entry>
          </ExtraData>
         </ImageTransition>
         <MetaData>
          <entry key="WinSubProjectDisplayName" val=""/>
         </MetaData>
        </UnifiedMedia>
        <UnifiedMedia id="3019"  >
         <AMFile id="3020" start="1568" duration="36" scalar="1/1" mediaStart="1427/1" mediaDuration="36/1" trackNumber="1" src="21" channelNumber="0,1" >
          <Parameters>
           <InterpolatingParam id="3021" interp="linr"  name="volume">
            <Keyframes>
            <Keyframe id="3022"  time="-1/1" value="1" leadInLength="0/1"  />
            <Keyframe id="3023"  time="0/1" value="0" leadInLength="0/1"  />
            <Keyframe id="3024"  time="8952/1" value="0" leadInLength="0/1"  />
            <Keyframe id="3025"  time="8953/1" value="1" leadInLength="0/1"  />
            </Keyframes>
           </InterpolatingParam>
           <Parameter id="3026"  name="captions"/>
          </Parameters>
          <Attributes>
           <Attribute id="3027" value="" name="ident"/>
           <Attribute id="3028" value="44100" name="sampleRate"/>
           <Attribute id="3029" value="16" name="bitDepth"/>
           <Attribute id="3030" value="1" name="gain"/>
           <Attribute id="3031" value="0" name="mixToMono"/>
          </Attributes>
         </AMFile>
         <VMFile id="3032" start="1568" duration="36" scalar="1/1" mediaStart="1427/1" mediaDuration="36/1" trackNumber="0" src="21" >
          <Transformer>
           <VectorParam id="3033"  name="translation">
            <InterpolatingParam id="3034" interp="linr"  time="-9999999/1" value="0" leadInLength="0/1"  />
            <InterpolatingParam id="3035" interp="linr"  time="-9999999/1" value="0" leadInLength="0/1"  />
            <InterpolatingParam id="3036" interp="linr"  time="-9999999/1" value="0" leadInLength="0/1"  />
           </VectorParam>
           <VectorParam id="3037"  name="rotation">
            <InterpolatingParam id="3038" interp="linr"  time="-9999999/1" value="0" leadInLength="0/1"  />
            <InterpolatingParam id="3039" interp="linr"  time="-9999999/1" value="0" leadInLength="0/1"  />
            <InterpolatingParam id="3040" interp="linr"  time="-9999999/1" value="0" leadInLength="0/1"  />
           </VectorParam>
           <VectorParam id="3041"  name="shear">
            <InterpolatingParam id="3042" interp="linr"  time="-9999999/1" value="0" leadInLength="0/1"  />
            <InterpolatingParam id="3043" interp="linr"  time="-9999999/1" value="0" leadInLength="0/1"  />
            <InterpolatingParam id="3044" interp="linr"  time="-9999999/1" value="0" leadInLength="0/1"  />
           </VectorParam>
           <VectorParam id="3045"  name="scale">
            <InterpolatingParam id="3046" interp="linr"  time="-9999999/1" value="1" leadInLength="0/1"  />
            <InterpolatingParam id="3047" interp="linr"  time="-9999999/1" value="1" leadInLength="0/1"  />
            <InterpolatingParam id="3048" interp="linr"  time="-9999999/1" value="1" leadInLength="0/1"  />
           </VectorParam>
           <VectorParam id="3049"  name="anchor">
            <InterpolatingParam id="3050" interp="linr"  time="0/1" value="0" leadInLength="0/1"  />
            <InterpolatingParam id="3051" interp="linr"  time="0/1" value="0" leadInLength="0/1"  />
            <InterpolatingParam id="3052" interp="linr"  time="0/1" value="0" leadInLength="0/1"  />
           </VectorParam>
          </Transformer>
          <Parameters>
           <VectorParam id="3053"  name="sourceCrop">
            <InterpolatingParam id="3054" interp="linr"  time="0/1" value="0" leadInLength="0/1"  />
            <InterpolatingParam id="3055" interp="linr"  time="0/1" value="0" leadInLength="0/1"  />
            <InterpolatingParam id="3056" interp="linr"  time="0/1" value="0" leadInLength="0/1"  />
            <InterpolatingParam id="3057" interp="linr"  time="0/1" value="0" leadInLength="0/1"  />
           </VectorParam>
           <VectorParam id="3058"  name="geometryCrop">
            <InterpolatingParam id="3059" interp="linr"  time="-9999999/1" value="0" leadInLength="0/1"  />
            <InterpolatingParam id="3060" interp="linr"  time="-9999999/1" value="0" leadInLength="0/1"  />
            <InterpolatingParam id="3061" interp="linr"  time="-9999999/1" value="0" leadInLength="0/1"  />
            <InterpolatingParam id="3062" interp="linr"  time="-9999999/1" value="0" leadInLength="0/1"  />
           </VectorParam>
           <InterpolatingParam id="3063" interp="linr"  time="-9999999/1" value="1" leadInLength="0/1"  name="opacity"/>
          </Parameters>
          <Attributes>
           <Attribute id="3064" value="" name="ident"/>
          </Attributes>
          <ExtraData>
           <Entry key="ZoomPanBin">
            <ZoomPanBin id="3065"  >
             <ZoomPanKeyframes>
              <ZoomPanKeyframe id="3066" timeRangeEnd="-9999999/1" timeRangeDuration="0/1" interpolaterName="linr"  />
             </ZoomPanKeyframes>
            </ZoomPanBin>
           </Entry>
          </ExtraData>
         </VMFile>
         <MetaData>
          <entry key="WinSubProjectDisplayName" val=""/>
         </MetaData>
        </UnifiedMedia>
       </Medias>
      </GenericTrack>
      <GenericTrack id="3067"  >
       <Attributes>
        <Attribute id="3068" value="" name="ident"/>
        <Attribute id="3069" value="0" name="audioMuted"/>
        <Attribute id="3070" value="0" name="videoHidden"/>
       </Attributes>
       <MetaData>
        <entry key="IsLocked" val="False"/>
        <entry key="WinTrackHeight" val="62"/>
       </MetaData>
       <Medias>
       </Medias>
      </GenericTrack>
     </Tracks>
    </GenericMixer>
   <CaptionAttributes id="3071"  >
    <Attribute id="3072" value="1" name="captionsEnabled"/>
    <Attribute id="3073" value="Arial" name="captionsFontName"/>
    <Attribute id="3074" value="28" name="captionsFontSize"/>
    <Attribute id="3075" value="(0,0,0,255)" name="captionsBackgroundColor"/>
    <Attribute id="3076" value="(255,255,255,255)" name="captionsForegroundColor"/>
    <Attribute id="3077" value="en" name="lang"/>
    <Attribute id="3078" value="0" name="captionsAlignment"/>
    <Attribute id="3079" value="1" name="captionsDefaultFontSize"/>
    <Attribute id="3080" value="0.5" name="captionsOpacity"/>
    <Attribute id="3081" value="1" name="captionsBackgroundEnabled"/>
    <Attribute id="3082" value="1" name="captionsBackgroundOnlyAroundText"/>
   </CaptionAttributes>
   <Parameters>
    <VectorParam id="3083"  name="eyePosition">
     <InterpolatingParam id="3084" interp="linr"  time="0/1" value="0" leadInLength="0/1"  />
     <InterpolatingParam id="3085" interp="linr"  time="0/1" value="0" leadInLength="0/1"  />
     <InterpolatingParam id="3086" interp="linr"  time="0/1" value="3000" leadInLength="0/1"  />
    </VectorParam>
    <VectorParam id="3087"  name="eyeLookAtPosition">
     <InterpolatingParam id="3088" interp="linr"  time="0/1" value="0" leadInLength="0/1"  />
     <InterpolatingParam id="3089" interp="linr"  time="0/1" value="0" leadInLength="0/1"  />
     <InterpolatingParam id="3090" interp="linr"  time="0/1" value="0" leadInLength="0/1"  />
    </VectorParam>
    <VectorParam id="3091"  name="eyeUpVector">
     <InterpolatingParam id="3092" interp="linr"  time="0/1" value="0" leadInLength="0/1"  />
     <InterpolatingParam id="3093" interp="linr"  time="0/1" value="1" leadInLength="0/1"  />
     <InterpolatingParam id="3094" interp="linr"  time="0/1" value="0" leadInLength="0/1"  />
    </VectorParam>
    <InterpolatingParam id="3095" interp="linr"  time="0/1" value="0.23885785" leadInLength="0/1"  name="fov"/>
    <InterpolatingParam id="3096" interp="linr"  time="0/1" value="1.5" leadInLength="0/1"  name="nearClipDistance"/>
    <InterpolatingParam id="3097" interp="linr"  time="0/1" value="6000" leadInLength="0/1"  name="farClipDistance"/>
   </Parameters>
  </Timeline>
 </Project>
</GoProject>
</CSMLData>

</Project_Data>
