<?xml version="1.0"?>
<Project_Data Version="8.00">
<Project_Settings>
<ProfileName>MP4 with Smart Player (up to 1080p)</ProfileName>
<ProjectWidth>1280</ProjectWidth>
<ProjectHeight>720</ProjectHeight>
<IsCustomProject>0</IsCustomProject>
<SavedProjectSettings>1</SavedProjectSettings>
<LastFlashTemplate>-1</LastFlashTemplate>
</Project_Settings>


<AutoSaveFile>C:\Users\auto1\AppData\Local\TechSmith\Camtasia Studio\8.0\Auto-Saves\audio-edit6913680.autosave.camproj</AutoSaveFile>

<ProjectID>6283C399-D4CE-4455-8CCA-6B65B300A7D2</ProjectID>

<PowerPointProject>0</PowerPointProject>

<PowerPointFilename></PowerPointFilename>


<Project_Notes>
</Project_Notes>

<Project_MetaData>
<Project_MetaData_Object>
<FieldArrayKey>8</FieldArrayKey>
<Value>audio-edit</Value>
</Project_MetaData_Object>
<Project_MetaData_Object>
<FieldArrayKey>13</FieldArrayKey>
<Value>2024-08-27 07:29:16 PM</Value>
</Project_MetaData_Object>
<Project_MetaData_Object>
<FieldArrayKey>16</FieldArrayKey>
<Value>ENU</Value>
</Project_MetaData_Object>
</Project_MetaData>

<CSMLData>
<GoProject id="1" version="3.0" >
 <Project id="2" editRate="30/1" version="3.0" >
  <Author></Author>
  <Comment></Comment>
  <System></System>
  <SourceBin id="3"  >
    <Source id="4" src="C:\ProgramData\TechSmith\Camtasia Studio\Library 2.0\Group_2024-08-27_192850\Syntax-Locked vs Syntax-Free_ Script - Airtable - Google Chrome - 12 August 2024.mp4" lastMod="20240813T025938" rect="(0,0,1920,1080)" >
      <SourceTrack range="(0,3104666667)" type="0" editRate="10000000/1" trackRect="(0,0,1920,1080)" sampleRate="10000000/333371" bitDepth="24" numChannels="0" filename="" metaData="" />
      <SourceTrack range="(0,3104666667)" type="2" editRate="10000000/1" trackRect="(0,0,0,0)" sampleRate="44100/1" bitDepth="16" numChannels="1" filename="" metaData="" />
    </Source>
    <Source id="5" src="C:\ProgramData\TechSmith\Camtasia Studio\Library 2.0\Group_2024-08-27_192850\2-Charlie.png" lastMod="20240824T215352" rect="(0,0,1024,1024)" >
      <SourceTrack range="(0,1)" type="1" editRate="10000000/1" trackRect="(0,0,1024,1024)" sampleRate="0/1" bitDepth="32" numChannels="0" filename="" metaData="" />
    </Source>
    <Source id="6" src="C:\ProgramData\TechSmith\Camtasia Studio\Library 2.0\Group_2024-08-27_192850\01. - English prompt - Clean - no responses.mp4" lastMod="20240825T190421" rect="(0,0,1920,1080)" >
      <SourceTrack range="(0,423333333)" type="0" editRate="10000000/1" trackRect="(0,0,1920,1080)" sampleRate="5000000/166753" bitDepth="24" numChannels="0" filename="" metaData="" />
      <SourceTrack range="(0,423333333)" type="2" editRate="10000000/1" trackRect="(0,0,0,0)" sampleRate="44100/1" bitDepth="16" numChannels="1" filename="" metaData="" />
    </Source>
    <Source id="7" src="C:\ProgramData\TechSmith\Camtasia Studio\Library 2.0\Group_2024-08-27_192850\02. English Response.mp4" lastMod="20240825T190445" rect="(0,0,1920,1080)" >
      <SourceTrack range="(0,71333333)" type="0" editRate="10000000/1" trackRect="(0,0,1920,1080)" sampleRate="10000000/335071" bitDepth="24" numChannels="0" filename="" metaData="" />
      <SourceTrack range="(0,71333333)" type="2" editRate="10000000/1" trackRect="(0,0,0,0)" sampleRate="44100/1" bitDepth="16" numChannels="1" filename="" metaData="" />
    </Source>
    <Source id="8" src="C:\ProgramData\TechSmith\Camtasia Studio\Library 2.0\Group_2024-08-27_192850\03. Finding all the Charlies + Charlie as actually... (cut off).mp4" lastMod="20240825T190453" rect="(0,0,1920,1080)" >
      <SourceTrack range="(0,219666667)" type="0" editRate="10000000/1" trackRect="(0,0,1920,1080)" sampleRate="5000000/166831" bitDepth="24" numChannels="0" filename="" metaData="" />
      <SourceTrack range="(0,219666667)" type="2" editRate="10000000/1" trackRect="(0,0,0,0)" sampleRate="44100/1" bitDepth="16" numChannels="1" filename="" metaData="" />
    </Source>
    <Source id="9" src="C:\ProgramData\TechSmith\Camtasia Studio\Library 2.0\Group_2024-08-27_192850\04. Charlie is crispy Prompt and response - english.mp4" lastMod="20240825T190501" rect="(0,0,1920,1080)" >
      <SourceTrack range="(0,256666667)" type="0" editRate="10000000/1" trackRect="(0,0,1920,1080)" sampleRate="10000000/333433" bitDepth="24" numChannels="0" filename="" metaData="" />
      <SourceTrack range="(0,256666667)" type="2" editRate="10000000/1" trackRect="(0,0,0,0)" sampleRate="44100/1" bitDepth="16" numChannels="1" filename="" metaData="" />
    </Source>
    <Source id="10" src="C:\ProgramData\TechSmith\Camtasia Studio\Library 2.0\Group_2024-08-27_192850\5-6. No - hes still puffy, his NAME is now Crispy.mp4" lastMod="20240825T190513" rect="(0,0,1920,1080)" >
      <SourceTrack range="(0,408333333)" type="0" editRate="10000000/1" trackRect="(0,0,1920,1080)" sampleRate="10000000/333513" bitDepth="24" numChannels="0" filename="" metaData="" />
      <SourceTrack range="(0,408333333)" type="2" editRate="10000000/1" trackRect="(0,0,0,0)" sampleRate="44100/1" bitDepth="16" numChannels="1" filename="" metaData="" />
    </Source>
    <Source id="11" src="C:\ProgramData\TechSmith\Camtasia Studio\Library 2.0\Group_2024-08-27_192850\07. 2 full pages of text.mp4" lastMod="20240825T190519" rect="(0,0,1920,1080)" >
      <SourceTrack range="(0,169333333)" type="0" editRate="10000000/1" trackRect="(0,0,1920,1080)" sampleRate="5000000/169559" bitDepth="24" numChannels="0" filename="" metaData="" />
      <SourceTrack range="(0,169333333)" type="2" editRate="10000000/1" trackRect="(0,0,0,0)" sampleRate="48000/1" bitDepth="16" numChannels="1" filename="" metaData="" />
    </Source>
    <Source id="12" src="C:\ProgramData\TechSmith\Camtasia Studio\Library 2.0\Group_2024-08-27_192850\08. Not a description - JSON response.mp4" lastMod="20240825T190525" rect="(0,0,1920,1080)" >
      <SourceTrack range="(0,823333333)" type="0" editRate="10000000/1" trackRect="(0,0,1920,1080)" sampleRate="10000000/337283" bitDepth="24" numChannels="0" filename="" metaData="" />
      <SourceTrack range="(0,823333333)" type="2" editRate="10000000/1" trackRect="(0,0,0,0)" sampleRate="48000/1" bitDepth="16" numChannels="1" filename="" metaData="" />
    </Source>
    <Source id="13" src="C:\ProgramData\TechSmith\Camtasia Studio\Library 2.0\Group_2024-08-27_192850\09. CHarlie is crispy - JSON .mp4" lastMod="20240825T190532" rect="(0,0,1920,1080)" >
      <SourceTrack range="(0,373000000)" type="0" editRate="10000000/1" trackRect="(0,0,1920,1080)" sampleRate="5000000/168201" bitDepth="24" numChannels="0" filename="" metaData="" />
      <SourceTrack range="(0,373000000)" type="2" editRate="10000000/1" trackRect="(0,0,0,0)" sampleRate="48000/1" bitDepth="16" numChannels="1" filename="" metaData="" />
    </Source>
    <Source id="14" src="C:\ProgramData\TechSmith\Camtasia Studio\Library 2.0\Group_2024-08-27_192850\10. JSON mistake.mp4" lastMod="20240825T190541" rect="(0,0,1920,1080)" >
      <SourceTrack range="(0,663000000)" type="0" editRate="10000000/1" trackRect="(0,0,1920,1080)" sampleRate="1250000/42221" bitDepth="24" numChannels="0" filename="" metaData="" />
      <SourceTrack range="(0,663000000)" type="2" editRate="10000000/1" trackRect="(0,0,0,0)" sampleRate="48000/1" bitDepth="16" numChannels="1" filename="" metaData="" />
    </Source>
    <Source id="15" src="C:\ProgramData\TechSmith\Camtasia Studio\Library 2.0\Group_2024-08-27_192850\11. This is the game.  Ready to describe..mp4" lastMod="20240825T190548" rect="(0,0,1920,1080)" >
      <SourceTrack range="(0,569000000)" type="0" editRate="10000000/1" trackRect="(0,0,1920,1080)" sampleRate="1250000/41683" bitDepth="24" numChannels="0" filename="" metaData="" />
      <SourceTrack range="(0,569000000)" type="2" editRate="10000000/1" trackRect="(0,0,0,0)" sampleRate="44100/1" bitDepth="16" numChannels="1" filename="" metaData="" />
    </Source>
    <Source id="16" src="C:\ProgramData\TechSmith\Camtasia Studio\Library 2.0\Group_2024-08-27_192850\12. Punchline.mp4" lastMod="20240825T190554" rect="(0,0,1920,1080)" >
      <SourceTrack range="(0,984000000)" type="0" editRate="10000000/1" trackRect="(0,0,1920,1080)" sampleRate="10000000/333373" bitDepth="24" numChannels="0" filename="" metaData="" />
      <SourceTrack range="(0,984000000)" type="2" editRate="10000000/1" trackRect="(0,0,0,0)" sampleRate="44100/1" bitDepth="16" numChannels="1" filename="" metaData="" />
    </Source>
    <Source id="17" src="C:\ProgramData\TechSmith\Camtasia Studio\Library 2.0\Group_2024-08-27_192850\13. Highlighting camp before correction.mp4" lastMod="20240825T190603" rect="(0,0,1920,1080)" >
      <SourceTrack range="(0,396000000)" type="0" editRate="10000000/1" trackRect="(0,0,1920,1080)" sampleRate="2500000/86853" bitDepth="24" numChannels="0" filename="" metaData="" />
      <SourceTrack range="(0,396000000)" type="2" editRate="10000000/1" trackRect="(0,0,0,0)" sampleRate="48000/1" bitDepth="16" numChannels="1" filename="" metaData="" />
    </Source>
    <Source id="18" src="C:\ProgramData\TechSmith\Camtasia Studio\Library 2.0\Group_2024-08-27_192850\7-vw-bus.png" lastMod="20240813T211331" rect="(0,0,1024,1024)" >
      <SourceTrack range="(0,1)" type="1" editRate="10000000/1" trackRect="(0,0,1024,1024)" sampleRate="0/1" bitDepth="32" numChannels="0" filename="" metaData="" />
    </Source>
    <Source id="19" src="C:\ProgramData\TechSmith\Camtasia Studio\Library 2.0\Group_2024-08-27_192850\5-Crispy.png" lastMod="20240824T222143" rect="(0,0,1024,1024)" >
      <SourceTrack range="(0,1)" type="1" editRate="10000000/1" trackRect="(0,0,1024,1024)" sampleRate="0/1" bitDepth="32" numChannels="0" filename="" metaData="" />
    </Source>
    <Source id="20" src="C:\ProgramData\TechSmith\Camtasia Studio\Library 2.0\Group_2024-08-27_192850\3-Crispy.png" lastMod="20240813T211933" rect="(0,0,1024,1024)" >
      <SourceTrack range="(0,1)" type="1" editRate="10000000/1" trackRect="(0,0,1024,1024)" sampleRate="0/1" bitDepth="32" numChannels="0" filename="" metaData="" />
    </Source>
    <Source id="21" src="C:\syntax-free-research\CloudyDemo\Videos\charlie-crispy-demo-16\charlie-crispy-demo-16.mp4" lastMod="20240826T163044" rect="(0,0,1280,720)" >
      <SourceTrack range="(0,2984000000)" type="0" editRate="10000000/1" trackRect="(0,0,1280,720)" sampleRate="10000000/333333" bitDepth="24" numChannels="0" filename="" metaData="" />
      <SourceTrack range="(0,2984000000)" type="2" editRate="10000000/1" trackRect="(0,0,0,0)" sampleRate="44100/1" bitDepth="16" numChannels="2" filename="" metaData="" />
    </Source>
    <Source id="22" src="C:\syntax-free-research\CloudyDemo\Videos\Full script v5 (mp3cut.net).m4a" lastMod="20240828T001936" rect="(0,0,0,0)" >
      <SourceTrack range="(0,4856000000)" type="2" editRate="10000000/1" trackRect="(0,0,0,0)" sampleRate="44100/1" bitDepth="16" numChannels="1" filename="" metaData="" />
    </Source>
    <Source id="23" src="C:\syntax-free-research\CloudyDemo\Marshmallow Madness\1-Roast-And-Toast-Game.png" lastMod="20240828T003854" rect="(0,0,1024,1024)" >
      <SourceTrack range="(0,1)" type="1" editRate="10000000/1" trackRect="(0,0,1024,1024)" sampleRate="0/1" bitDepth="32" numChannels="0" filename="" metaData="" />
    </Source>
    <Source id="24" src="C:\syntax-free-research\CloudyDemo\Marshmallow Madness\cloudy-landing-page.png" lastMod="20240828T154255" rect="(0,0,1874,1006)" >
      <SourceTrack range="(0,1)" type="1" editRate="10000000/1" trackRect="(0,0,1874,1006)" sampleRate="0/1" bitDepth="32" numChannels="0" filename="" metaData="" />
    </Source>
    <Source id="25" src="C:\syntax-free-research\CloudyDemo\Videos\Ancient Greek, take 3.m4a" lastMod="20240828T161849" rect="(0,0,0,0)" >
      <SourceTrack range="(0,129000000)" type="2" editRate="10000000/1" trackRect="(0,0,0,0)" sampleRate="48000/1" bitDepth="16" numChannels="1" filename="" metaData="" />
    </Source>
    <Source id="26" src="C:\syntax-free-research\CloudyDemo\Videos\Ancient Greek take 4.m4a" lastMod="20240828T162244" rect="(0,0,0,0)" >
      <SourceTrack range="(0,45333333)" type="2" editRate="10000000/1" trackRect="(0,0,0,0)" sampleRate="48000/1" bitDepth="16" numChannels="1" filename="" metaData="" />
    </Source>
  </SourceBin>
  <Timeline id="27"  >
   <Attributes>
    <Attribute id="28" value="1280" name="width"/>
    <Attribute id="29" value="720" name="height"/>
    <Attribute id="30" value="(0,0,0,255)" name="backgroundColor"/>
   </Attributes>
    <GenericMixer id="31"  name="Unified Mixer">
     <MetaData>
      <entry key="MixerType" val="TimelineMixer"/>
     </MetaData>
     <Tracks>
      <GenericTrack id="32"  >
       <Attributes>
        <Attribute id="33" value="" name="ident"/>
        <Attribute id="34" value="0" name="audioMuted"/>
        <Attribute id="35" value="0" name="videoHidden"/>
       </Attributes>
       <MetaData>
        <entry key="IsLocked" val="False"/>
        <entry key="WinTrackHeight" val="62"/>
       </MetaData>
       <Medias>
        <UnifiedMedia id="36"  >
         <AMFile id="37" start="0" duration="288" scalar="1/1" mediaStart="0/1" mediaDuration="288/1" trackNumber="1" src="21" channelNumber="0,1" >
          <Parameters>
           <InterpolatingParam id="38" interp="linr"  name="volume">
            <Keyframes>
            <Keyframe id="39"  time="-1/1" value="1" leadInLength="0/1"  />
            <Keyframe id="40"  time="0/1" value="0" leadInLength="0/1"  />
            <Keyframe id="41"  time="8952/1" value="0" leadInLength="0/1"  />
            <Keyframe id="42"  time="8953/1" value="1" leadInLength="0/1"  />
            </Keyframes>
           </InterpolatingParam>
           <Parameter id="43"  name="captions"/>
          </Parameters>
          <Attributes>
           <Attribute id="44" value="" name="ident"/>
           <Attribute id="45" value="44100" name="sampleRate"/>
           <Attribute id="46" value="16" name="bitDepth"/>
           <Attribute id="47" value="1" name="gain"/>
           <Attribute id="48" value="0" name="mixToMono"/>
          </Attributes>
         </AMFile>
         <VMFile id="49" start="0" duration="288" scalar="1/1" mediaStart="0/1" mediaDuration="288/1" trackNumber="0" src="21" >
          <Transformer>
           <VectorParam id="50"  name="translation">
            <InterpolatingParam id="51" interp="linr"  time="-9999999/1" value="-13.492063492043858" leadInLength="0/1"  />
            <InterpolatingParam id="52" interp="linr"  time="-9999999/1" value="-28.839285714807907" leadInLength="0/1"  />
            <InterpolatingParam id="53" interp="linr"  time="-9999999/1" value="0" leadInLength="0/1"  />
           </VectorParam>
           <VectorParam id="54"  name="rotation">
            <InterpolatingParam id="55" interp="linr"  time="-9999999/1" value="0" leadInLength="0/1"  />
            <InterpolatingParam id="56" interp="linr"  time="-9999999/1" value="0" leadInLength="0/1"  />
            <InterpolatingParam id="57" interp="linr"  time="-9999999/1" value="0" leadInLength="0/1"  />
           </VectorParam>
           <VectorParam id="58"  name="shear">
            <InterpolatingParam id="59" interp="linr"  time="-9999999/1" value="0" leadInLength="0/1"  />
            <InterpolatingParam id="60" interp="linr"  time="-9999999/1" value="0" leadInLength="0/1"  />
            <InterpolatingParam id="61" interp="linr"  time="-9999999/1" value="0" leadInLength="0/1"  />
           </VectorParam>
           <VectorParam id="62"  name="scale">
            <InterpolatingParam id="63" interp="linr"  time="-9999999/1" value="1.3692956349208234" leadInLength="0/1"  />
            <InterpolatingParam id="64" interp="linr"  time="-9999999/1" value="1.3692956349208234" leadInLength="0/1"  />
            <InterpolatingParam id="65" interp="linr"  time="-9999999/1" value="1" leadInLength="0/1"  />
           </VectorParam>
           <VectorParam id="66"  name="anchor">
            <InterpolatingParam id="67" interp="linr"  time="0/1" value="0" leadInLength="0/1"  />
            <InterpolatingParam id="68" interp="linr"  time="0/1" value="0" leadInLength="0/1"  />
            <InterpolatingParam id="69" interp="linr"  time="0/1" value="0" leadInLength="0/1"  />
           </VectorParam>
          </Transformer>
          <Parameters>
           <VectorParam id="70"  name="sourceCrop">
            <InterpolatingParam id="71" interp="linr"  time="0/1" value="0" leadInLength="0/1"  />
            <InterpolatingParam id="72" interp="linr"  time="0/1" value="0" leadInLength="0/1"  />
            <InterpolatingParam id="73" interp="linr"  time="0/1" value="0" leadInLength="0/1"  />
            <InterpolatingParam id="74" interp="linr"  time="0/1" value="0" leadInLength="0/1"  />
           </VectorParam>
           <VectorParam id="75"  name="geometryCrop">
            <InterpolatingParam id="76" interp="linr"  time="-9999999/1" value="0" leadInLength="0/1"  />
            <InterpolatingParam id="77" interp="linr"  time="-9999999/1" value="0" leadInLength="0/1"  />
            <InterpolatingParam id="78" interp="linr"  time="-9999999/1" value="0" leadInLength="0/1"  />
            <InterpolatingParam id="79" interp="linr"  time="-9999999/1" value="0" leadInLength="0/1"  />
           </VectorParam>
           <InterpolatingParam id="80" interp="linr"  time="-9999999/1" value="1" leadInLength="0/1"  name="opacity"/>
          </Parameters>
          <Attributes>
           <Attribute id="81" value="" name="ident"/>
          </Attributes>
          <ExtraData>
           <Entry key="ZoomPanBin">
            <ZoomPanBin id="82"  >
             <ZoomPanKeyframes>
              <ZoomPanKeyframe id="83" timeRangeEnd="-9999999/1" timeRangeDuration="0/1" interpolaterName="linr"  />
             </ZoomPanKeyframes>
            </ZoomPanBin>
           </Entry>
          </ExtraData>
         </VMFile>
         <MetaData>
          <entry key="WinSubProjectDisplayName" val=""/>
         </MetaData>
        </UnifiedMedia>
        <UnifiedMedia id="84"  >
         <AudioTransition id="85" start="450" duration="44" >
          <Parameters>
           <InterpolatingParam id="86" interp="linr"  time="0/1" value="1" leadInLength="0/1"  name="volume"/>
           <Parameter id="87"  name="captions"/>
          </Parameters>
          <Effects>
           <GenericEffect id="88" name = "AudioTransition" >
            <Parameters>
            <Parameter id="89"   name="audioEdgeModType">
             <Keyframes>
             <Keyframe id="90"  time="0/1" value="0" leadInLength="0/1"  />
             </Keyframes>
            </Parameter>
            <Parameter id="91"   name="audioTransitionType">
             <Keyframes>
             <Keyframe id="92"  time="0/1" value="" leadInLength="0/1"  />
             </Keyframes>
            </Parameter>
            </Parameters>
            <MetaData>
            </MetaData>
           </GenericEffect>
          </Effects>
          <Attributes>
           <Attribute id="93" value="" name="ident"/>
           <Attribute id="94" value="0" name="sampleRate"/>
           <Attribute id="95" value="0" name="bitDepth"/>
           <Attribute id="96" value="1" name="gain"/>
           <Attribute id="97" value="0" name="mixToMono"/>
          </Attributes>
         </AudioTransition>
         <ImageTransition id="98" start="450" duration="44" >
          <Transformer>
           <VectorParam id="99"  name="translation">
            <InterpolatingParam id="100" interp="linr"  time="0/1" value="0" leadInLength="0/1"  />
            <InterpolatingParam id="101" interp="linr"  time="0/1" value="0" leadInLength="0/1"  />
            <InterpolatingParam id="102" interp="linr"  time="0/1" value="0" leadInLength="0/1"  />
           </VectorParam>
           <VectorParam id="103"  name="rotation">
            <InterpolatingParam id="104" interp="linr"  time="0/1" value="0" leadInLength="0/1"  />
            <InterpolatingParam id="105" interp="linr"  time="0/1" value="0" leadInLength="0/1"  />
            <InterpolatingParam id="106" interp="linr"  time="0/1" value="0" leadInLength="0/1"  />
           </VectorParam>
           <VectorParam id="107"  name="shear">
            <InterpolatingParam id="108" interp="linr"  time="0/1" value="0" leadInLength="0/1"  />
            <InterpolatingParam id="109" interp="linr"  time="0/1" value="0" leadInLength="0/1"  />
            <InterpolatingParam id="110" interp="linr"  time="0/1" value="0" leadInLength="0/1"  />
           </VectorParam>
           <VectorParam id="111"  name="scale">
            <InterpolatingParam id="112" interp="linr"  time="0/1" value="1" leadInLength="0/1"  />
            <InterpolatingParam id="113" interp="linr"  time="0/1" value="1" leadInLength="0/1"  />
            <InterpolatingParam id="114" interp="linr"  time="0/1" value="1" leadInLength="0/1"  />
           </VectorParam>
           <VectorParam id="115"  name="anchor">
            <InterpolatingParam id="116" interp="linr"  time="0/1" value="0" leadInLength="0/1"  />
            <InterpolatingParam id="117" interp="linr"  time="0/1" value="0" leadInLength="0/1"  />
            <InterpolatingParam id="118" interp="linr"  time="0/1" value="0" leadInLength="0/1"  />
           </VectorParam>
          </Transformer>
          <Parameters>
           <VectorParam id="119"  name="sourceCrop">
            <InterpolatingParam id="120" interp="linr"  time="0/1" value="0" leadInLength="0/1"  />
            <InterpolatingParam id="121" interp="linr"  time="0/1" value="0" leadInLength="0/1"  />
            <InterpolatingParam id="122" interp="linr"  time="0/1" value="0" leadInLength="0/1"  />
            <InterpolatingParam id="123" interp="linr"  time="0/1" value="0" leadInLength="0/1"  />
           </VectorParam>
           <VectorParam id="124"  name="geometryCrop">
            <InterpolatingParam id="125" interp="linr"  time="0/1" value="0" leadInLength="0/1"  />
            <InterpolatingParam id="126" interp="linr"  time="0/1" value="0" leadInLength="0/1"  />
            <InterpolatingParam id="127" interp="linr"  time="0/1" value="0" leadInLength="0/1"  />
            <InterpolatingParam id="128" interp="linr"  time="0/1" value="0" leadInLength="0/1"  />
           </VectorParam>
           <InterpolatingParam id="129" interp="linr"  time="0/1" value="1" leadInLength="0/1"  name="opacity"/>
          </Parameters>
          <Effects>
           <GenericEffect id="130" name = "VisualTransition" >
            <Parameters>
            <InterpolatingParam id="131" interp="linr"  time="0/1" value="0.5" leadInLength="0/1"   name="leftFramePercentage"/>
            <InterpolatingParam id="132" interp="linr"  time="0/1" value="0.5" leadInLength="0/1"   name="rightFramePercentage"/>
            <Parameter id="133"   name="visualEdgeModType">
             <Keyframes>
             <Keyframe id="134"  time="0/1" value="1" leadInLength="0/1"  />
             </Keyframes>
            </Parameter>
            <Parameter id="135"   name="visualTransitionType">
             <Keyframes>
             <Keyframe id="136"  time="0/1" value="RandomDissolve" leadInLength="0/1"  />
             </Keyframes>
            </Parameter>
            </Parameters>
            <MetaData>
            </MetaData>
           </GenericEffect>
          </Effects>
          <Attributes>
           <Attribute id="137" value="" name="ident"/>
          </Attributes>
          <ExtraData>
           <Entry key="ZoomPanBin">
            <ZoomPanBin id="138"  >
             <ZoomPanKeyframes>
             </ZoomPanKeyframes>
            </ZoomPanBin>
           </Entry>
          </ExtraData>
         </ImageTransition>
         <MetaData>
          <entry key="WinSubProjectDisplayName" val=""/>
         </MetaData>
        </UnifiedMedia>
        <IMFile id="139" start="494" duration="975" scalar="1/1" mediaStart="0/1" mediaDuration="1/1" trackNumber="0" src="24" trimStartSum="-8/1" >
         <Transformer>
          <VectorParam id="140"  name="translation">
           <InterpolatingParam id="141" interp="linr"  >
            <Keyframes>
            <Keyframe id="142"  time="-9999999/1" value="-4.7594150842652701e-011" leadInLength="0/1"  />
            <Keyframe id="143"  time="142/1" value="167.71109699398252" leadInLength="64/1"  interpolater="leadin-linr"  />
            <Keyframe id="144"  time="562/1" value="-171.90446224566008" leadInLength="38/1"  interpolater="leadin-linr"  />
            <Keyframe id="145"  time="897/1" value="-1.4428014338818683e-011" leadInLength="30/1"  interpolater="leadin-linr"  />
            </Keyframes>
           </InterpolatingParam>
           <InterpolatingParam id="146" interp="linr"  >
            <Keyframes>
            <Keyframe id="147"  time="-9999999/1" value="16.435432230515286" leadInLength="0/1"  />
            <Keyframe id="148"  time="142/1" value="-73.595178002089952" leadInLength="64/1"  interpolater="leadin-linr"  />
            <Keyframe id="149"  time="562/1" value="-75.846258815031106" leadInLength="38/1"  interpolater="leadin-linr"  />
            <Keyframe id="150"  time="897/1" value="16.43543223051249" leadInLength="30/1"  interpolater="leadin-linr"  />
            </Keyframes>
           </InterpolatingParam>
           <InterpolatingParam id="151" interp="linr"  >
            <Keyframes>
            <Keyframe id="152"  time="-9999999/1" value="0" leadInLength="0/1"  />
            <Keyframe id="153"  time="142/1" value="0" leadInLength="64/1"  interpolater="leadin-linr"  />
            <Keyframe id="154"  time="562/1" value="0" leadInLength="38/1"  interpolater="leadin-linr"  />
            <Keyframe id="155"  time="897/1" value="0" leadInLength="30/1"  interpolater="leadin-linr"  />
            </Keyframes>
           </InterpolatingParam>
          </VectorParam>
          <VectorParam id="156"  name="rotation">
           <InterpolatingParam id="157" interp="linr"  >
            <Keyframes>
            <Keyframe id="158"  time="-9999999/1" value="0" leadInLength="0/1"  />
            <Keyframe id="159"  time="142/1" value="0" leadInLength="64/1"  interpolater="leadin-linr"  />
            <Keyframe id="160"  time="562/1" value="0" leadInLength="38/1"  interpolater="leadin-linr"  />
            <Keyframe id="161"  time="897/1" value="0" leadInLength="30/1"  interpolater="leadin-linr"  />
            </Keyframes>
           </InterpolatingParam>
           <InterpolatingParam id="162" interp="linr"  >
            <Keyframes>
            <Keyframe id="163"  time="-9999999/1" value="0" leadInLength="0/1"  />
            <Keyframe id="164"  time="142/1" value="0" leadInLength="64/1"  interpolater="leadin-linr"  />
            <Keyframe id="165"  time="562/1" value="0" leadInLength="38/1"  interpolater="leadin-linr"  />
            <Keyframe id="166"  time="897/1" value="0" leadInLength="30/1"  interpolater="leadin-linr"  />
            </Keyframes>
           </InterpolatingParam>
           <InterpolatingParam id="167" interp="linr"  >
            <Keyframes>
            <Keyframe id="168"  time="-9999999/1" value="0" leadInLength="0/1"  />
            <Keyframe id="169"  time="142/1" value="0" leadInLength="64/1"  interpolater="leadin-linr"  />
            <Keyframe id="170"  time="562/1" value="0" leadInLength="38/1"  interpolater="leadin-linr"  />
            <Keyframe id="171"  time="897/1" value="0" leadInLength="30/1"  interpolater="leadin-linr"  />
            </Keyframes>
           </InterpolatingParam>
          </VectorParam>
          <VectorParam id="172"  name="shear">
           <InterpolatingParam id="173" interp="linr"  >
            <Keyframes>
            <Keyframe id="174"  time="-9999999/1" value="0" leadInLength="0/1"  />
            <Keyframe id="175"  time="142/1" value="0" leadInLength="64/1"  interpolater="leadin-linr"  />
            <Keyframe id="176"  time="562/1" value="0" leadInLength="38/1"  interpolater="leadin-linr"  />
            <Keyframe id="177"  time="897/1" value="0" leadInLength="30/1"  interpolater="leadin-linr"  />
            </Keyframes>
           </InterpolatingParam>
           <InterpolatingParam id="178" interp="linr"  >
            <Keyframes>
            <Keyframe id="179"  time="-9999999/1" value="0" leadInLength="0/1"  />
            <Keyframe id="180"  time="142/1" value="0" leadInLength="64/1"  interpolater="leadin-linr"  />
            <Keyframe id="181"  time="562/1" value="0" leadInLength="38/1"  interpolater="leadin-linr"  />
            <Keyframe id="182"  time="897/1" value="0" leadInLength="30/1"  interpolater="leadin-linr"  />
            </Keyframes>
           </InterpolatingParam>
           <InterpolatingParam id="183" interp="linr"  >
            <Keyframes>
            <Keyframe id="184"  time="-9999999/1" value="0" leadInLength="0/1"  />
            <Keyframe id="185"  time="142/1" value="0" leadInLength="64/1"  interpolater="leadin-linr"  />
            <Keyframe id="186"  time="562/1" value="0" leadInLength="38/1"  interpolater="leadin-linr"  />
            <Keyframe id="187"  time="897/1" value="0" leadInLength="30/1"  interpolater="leadin-linr"  />
            </Keyframes>
           </InterpolatingParam>
          </VectorParam>
          <VectorParam id="188"  name="scale">
           <InterpolatingParam id="189" interp="linr"  >
            <Keyframes>
            <Keyframe id="190"  time="-9999999/1" value="0.68303094983981871" leadInLength="0/1"  />
            <Keyframe id="191"  time="142/1" value="0.86201824652508374" leadInLength="64/1"  interpolater="leadin-linr"  />
            <Keyframe id="192"  time="562/1" value="0.86649355629229541" leadInLength="38/1"  interpolater="leadin-linr"  />
            <Keyframe id="193"  time="897/1" value="0.68303094983993484" leadInLength="30/1"  interpolater="leadin-linr"  />
            </Keyframes>
           </InterpolatingParam>
           <InterpolatingParam id="194" interp="linr"  >
            <Keyframes>
            <Keyframe id="195"  time="-9999999/1" value="0.68303094983981882" leadInLength="0/1"  />
            <Keyframe id="196"  time="142/1" value="0.86201824652508341" leadInLength="64/1"  interpolater="leadin-linr"  />
            <Keyframe id="197"  time="562/1" value="0.86649355629229374" leadInLength="38/1"  interpolater="leadin-linr"  />
            <Keyframe id="198"  time="897/1" value="0.68303094983993518" leadInLength="30/1"  interpolater="leadin-linr"  />
            </Keyframes>
           </InterpolatingParam>
           <InterpolatingParam id="199" interp="linr"  >
            <Keyframes>
            <Keyframe id="200"  time="-9999999/1" value="0.99999999999999933" leadInLength="0/1"  />
            <Keyframe id="201"  time="142/1" value="0.99999999999999956" leadInLength="64/1"  interpolater="leadin-linr"  />
            <Keyframe id="202"  time="562/1" value="0.99999999999999845" leadInLength="38/1"  interpolater="leadin-linr"  />
            <Keyframe id="203"  time="897/1" value="0.99999999999999933" leadInLength="30/1"  interpolater="leadin-linr"  />
            </Keyframes>
           </InterpolatingParam>
          </VectorParam>
          <VectorParam id="204"  name="anchor">
           <InterpolatingParam id="205" interp="linr"  time="0/1" value="0" leadInLength="0/1"  />
           <InterpolatingParam id="206" interp="linr"  time="0/1" value="0" leadInLength="0/1"  />
           <InterpolatingParam id="207" interp="linr"  time="0/1" value="0" leadInLength="0/1"  />
          </VectorParam>
         </Transformer>
         <Parameters>
          <VectorParam id="208"  name="sourceCrop">
           <InterpolatingParam id="209" interp="linr"  time="0/1" value="0" leadInLength="0/1"  />
           <InterpolatingParam id="210" interp="linr"  time="0/1" value="0" leadInLength="0/1"  />
           <InterpolatingParam id="211" interp="linr"  time="0/1" value="0" leadInLength="0/1"  />
           <InterpolatingParam id="212" interp="linr"  time="0/1" value="0" leadInLength="0/1"  />
          </VectorParam>
          <VectorParam id="213"  name="geometryCrop">
           <InterpolatingParam id="214" interp="linr"  >
            <Keyframes>
            <Keyframe id="215"  time="-9999999/1" value="0" leadInLength="0/1"  />
            <Keyframe id="216"  time="142/1" value="0" leadInLength="64/1"  interpolater="leadin-linr"  />
            <Keyframe id="217"  time="562/1" value="0" leadInLength="38/1"  interpolater="leadin-linr"  />
            <Keyframe id="218"  time="897/1" value="0" leadInLength="30/1"  interpolater="leadin-linr"  />
            </Keyframes>
           </InterpolatingParam>
           <InterpolatingParam id="219" interp="linr"  >
            <Keyframes>
            <Keyframe id="220"  time="-9999999/1" value="0" leadInLength="0/1"  />
            <Keyframe id="221"  time="142/1" value="0" leadInLength="64/1"  interpolater="leadin-linr"  />
            <Keyframe id="222"  time="562/1" value="0" leadInLength="38/1"  interpolater="leadin-linr"  />
            <Keyframe id="223"  time="897/1" value="0" leadInLength="30/1"  interpolater="leadin-linr"  />
            </Keyframes>
           </InterpolatingParam>
           <InterpolatingParam id="224" interp="linr"  >
            <Keyframes>
            <Keyframe id="225"  time="-9999999/1" value="0" leadInLength="0/1"  />
            <Keyframe id="226"  time="142/1" value="0" leadInLength="64/1"  interpolater="leadin-linr"  />
            <Keyframe id="227"  time="562/1" value="0" leadInLength="38/1"  interpolater="leadin-linr"  />
            <Keyframe id="228"  time="897/1" value="0" leadInLength="30/1"  interpolater="leadin-linr"  />
            </Keyframes>
           </InterpolatingParam>
           <InterpolatingParam id="229" interp="linr"  >
            <Keyframes>
            <Keyframe id="230"  time="-9999999/1" value="0" leadInLength="0/1"  />
            <Keyframe id="231"  time="142/1" value="0" leadInLength="64/1"  interpolater="leadin-linr"  />
            <Keyframe id="232"  time="562/1" value="0" leadInLength="38/1"  interpolater="leadin-linr"  />
            <Keyframe id="233"  time="897/1" value="0" leadInLength="30/1"  interpolater="leadin-linr"  />
            </Keyframes>
           </InterpolatingParam>
          </VectorParam>
          <InterpolatingParam id="234" interp="linr"  name="opacity">
           <Keyframes>
           <Keyframe id="235"  time="-9999999/1" value="1" leadInLength="0/1"  />
           <Keyframe id="236"  time="142/1" value="1" leadInLength="64/1"  interpolater="leadin-linr"  />
           <Keyframe id="237"  time="562/1" value="1" leadInLength="38/1"  interpolater="leadin-linr"  />
           <Keyframe id="238"  time="897/1" value="1" leadInLength="30/1"  interpolater="leadin-linr"  />
           </Keyframes>
          </InterpolatingParam>
         </Parameters>
         <Attributes>
          <Attribute id="239" value="" name="ident"/>
         </Attributes>
         <MetaData>
          <entry key="WinSubProjectDisplayName" val=""/>
         </MetaData>
         <ExtraData>
          <Entry key="ZoomPanBin">
           <ZoomPanBin id="240"  >
            <ZoomPanKeyframes>
             <ZoomPanKeyframe id="241" timeRangeEnd="-9999999/1" timeRangeDuration="0/1" interpolaterName="linr"  />
             <ZoomPanKeyframe id="242" timeRangeEnd="562/1" timeRangeDuration="38/1" interpolaterName="linr"  />
             <ZoomPanKeyframe id="243" timeRangeEnd="142/1" timeRangeDuration="64/1" interpolaterName="linr"  />
             <ZoomPanKeyframe id="244" timeRangeEnd="897/1" timeRangeDuration="30/1" interpolaterName="linr"  />
            </ZoomPanKeyframes>
           </ZoomPanBin>
          </Entry>
         </ExtraData>
        </IMFile>
        <UnifiedMedia id="245"  >
         <AMFile id="246" start="1469" duration="68" scalar="1/1" mediaStart="1463/1" mediaDuration="68/1" trackNumber="1" src="21" channelNumber="0,1" >
          <Parameters>
           <InterpolatingParam id="247" interp="linr"  name="volume">
            <Keyframes>
            <Keyframe id="248"  time="-1/1" value="1" leadInLength="0/1"  />
            <Keyframe id="249"  time="0/1" value="0" leadInLength="0/1"  />
            <Keyframe id="250"  time="8952/1" value="0" leadInLength="0/1"  />
            <Keyframe id="251"  time="8953/1" value="1" leadInLength="0/1"  />
            </Keyframes>
           </InterpolatingParam>
           <Parameter id="252"  name="captions"/>
          </Parameters>
          <Attributes>
           <Attribute id="253" value="" name="ident"/>
           <Attribute id="254" value="44100" name="sampleRate"/>
           <Attribute id="255" value="16" name="bitDepth"/>
           <Attribute id="256" value="1" name="gain"/>
           <Attribute id="257" value="0" name="mixToMono"/>
          </Attributes>
         </AMFile>
         <VMFile id="258" start="1469" duration="68" scalar="1/1" mediaStart="1463/1" mediaDuration="68/1" trackNumber="0" src="21" >
          <Transformer>
           <VectorParam id="259"  name="translation">
            <InterpolatingParam id="260" interp="linr"  time="-9999999/1" value="0" leadInLength="0/1"  />
            <InterpolatingParam id="261" interp="linr"  time="-9999999/1" value="0" leadInLength="0/1"  />
            <InterpolatingParam id="262" interp="linr"  time="-9999999/1" value="0" leadInLength="0/1"  />
           </VectorParam>
           <VectorParam id="263"  name="rotation">
            <InterpolatingParam id="264" interp="linr"  time="-9999999/1" value="0" leadInLength="0/1"  />
            <InterpolatingParam id="265" interp="linr"  time="-9999999/1" value="0" leadInLength="0/1"  />
            <InterpolatingParam id="266" interp="linr"  time="-9999999/1" value="0" leadInLength="0/1"  />
           </VectorParam>
           <VectorParam id="267"  name="shear">
            <InterpolatingParam id="268" interp="linr"  time="-9999999/1" value="0" leadInLength="0/1"  />
            <InterpolatingParam id="269" interp="linr"  time="-9999999/1" value="0" leadInLength="0/1"  />
            <InterpolatingParam id="270" interp="linr"  time="-9999999/1" value="0" leadInLength="0/1"  />
           </VectorParam>
           <VectorParam id="271"  name="scale">
            <InterpolatingParam id="272" interp="linr"  time="-9999999/1" value="1" leadInLength="0/1"  />
            <InterpolatingParam id="273" interp="linr"  time="-9999999/1" value="1" leadInLength="0/1"  />
            <InterpolatingParam id="274" interp="linr"  time="-9999999/1" value="1" leadInLength="0/1"  />
           </VectorParam>
           <VectorParam id="275"  name="anchor">
            <InterpolatingParam id="276" interp="linr"  time="0/1" value="0" leadInLength="0/1"  />
            <InterpolatingParam id="277" interp="linr"  time="0/1" value="0" leadInLength="0/1"  />
            <InterpolatingParam id="278" interp="linr"  time="0/1" value="0" leadInLength="0/1"  />
           </VectorParam>
          </Transformer>
          <Parameters>
           <VectorParam id="279"  name="sourceCrop">
            <InterpolatingParam id="280" interp="linr"  time="0/1" value="0" leadInLength="0/1"  />
            <InterpolatingParam id="281" interp="linr"  time="0/1" value="0" leadInLength="0/1"  />
            <InterpolatingParam id="282" interp="linr"  time="0/1" value="0" leadInLength="0/1"  />
            <InterpolatingParam id="283" interp="linr"  time="0/1" value="0" leadInLength="0/1"  />
           </VectorParam>
           <VectorParam id="284"  name="geometryCrop">
            <InterpolatingParam id="285" interp="linr"  time="-9999999/1" value="0" leadInLength="0/1"  />
            <InterpolatingParam id="286" interp="linr"  time="-9999999/1" value="0" leadInLength="0/1"  />
            <InterpolatingParam id="287" interp="linr"  time="-9999999/1" value="0" leadInLength="0/1"  />
            <InterpolatingParam id="288" interp="linr"  time="-9999999/1" value="0" leadInLength="0/1"  />
           </VectorParam>
           <InterpolatingParam id="289" interp="linr"  time="-9999999/1" value="1" leadInLength="0/1"  name="opacity"/>
          </Parameters>
          <Attributes>
           <Attribute id="290" value="" name="ident"/>
          </Attributes>
          <ExtraData>
           <Entry key="ZoomPanBin">
            <ZoomPanBin id="291"  >
             <ZoomPanKeyframes>
              <ZoomPanKeyframe id="292" timeRangeEnd="-9999999/1" timeRangeDuration="0/1" interpolaterName="linr"  />
             </ZoomPanKeyframes>
            </ZoomPanBin>
           </Entry>
          </ExtraData>
         </VMFile>
         <MetaData>
          <entry key="WinSubProjectDisplayName" val=""/>
         </MetaData>
        </UnifiedMedia>
        <UnifiedMedia id="293"  >
         <AMFile id="294" start="1537" duration="34" scalar="1/1" mediaStart="1531/1" mediaDuration="34/1" trackNumber="1" src="21" channelNumber="0,1" >
          <Parameters>
           <InterpolatingParam id="295" interp="linr"  name="volume">
            <Keyframes>
            <Keyframe id="296"  time="-1/1" value="1" leadInLength="0/1"  />
            <Keyframe id="297"  time="0/1" value="0" leadInLength="0/1"  />
            <Keyframe id="298"  time="8952/1" value="0" leadInLength="0/1"  />
            <Keyframe id="299"  time="8953/1" value="1" leadInLength="0/1"  />
            </Keyframes>
           </InterpolatingParam>
           <Parameter id="300"  name="captions"/>
          </Parameters>
          <Attributes>
           <Attribute id="301" value="" name="ident"/>
           <Attribute id="302" value="44100" name="sampleRate"/>
           <Attribute id="303" value="16" name="bitDepth"/>
           <Attribute id="304" value="1" name="gain"/>
           <Attribute id="305" value="0" name="mixToMono"/>
          </Attributes>
         </AMFile>
         <VMFile id="306" start="1537" duration="34" scalar="1/1" mediaStart="1531/1" mediaDuration="34/1" trackNumber="0" src="21" >
          <Transformer>
           <VectorParam id="307"  name="translation">
            <InterpolatingParam id="308" interp="linr"  time="-9999999/1" value="0" leadInLength="0/1"  />
            <InterpolatingParam id="309" interp="linr"  time="-9999999/1" value="0" leadInLength="0/1"  />
            <InterpolatingParam id="310" interp="linr"  time="-9999999/1" value="0" leadInLength="0/1"  />
           </VectorParam>
           <VectorParam id="311"  name="rotation">
            <InterpolatingParam id="312" interp="linr"  time="-9999999/1" value="0" leadInLength="0/1"  />
            <InterpolatingParam id="313" interp="linr"  time="-9999999/1" value="0" leadInLength="0/1"  />
            <InterpolatingParam id="314" interp="linr"  time="-9999999/1" value="0" leadInLength="0/1"  />
           </VectorParam>
           <VectorParam id="315"  name="shear">
            <InterpolatingParam id="316" interp="linr"  time="-9999999/1" value="0" leadInLength="0/1"  />
            <InterpolatingParam id="317" interp="linr"  time="-9999999/1" value="0" leadInLength="0/1"  />
            <InterpolatingParam id="318" interp="linr"  time="-9999999/1" value="0" leadInLength="0/1"  />
           </VectorParam>
           <VectorParam id="319"  name="scale">
            <InterpolatingParam id="320" interp="linr"  time="-9999999/1" value="1" leadInLength="0/1"  />
            <InterpolatingParam id="321" interp="linr"  time="-9999999/1" value="1" leadInLength="0/1"  />
            <InterpolatingParam id="322" interp="linr"  time="-9999999/1" value="1" leadInLength="0/1"  />
           </VectorParam>
           <VectorParam id="323"  name="anchor">
            <InterpolatingParam id="324" interp="linr"  time="0/1" value="0" leadInLength="0/1"  />
            <InterpolatingParam id="325" interp="linr"  time="0/1" value="0" leadInLength="0/1"  />
            <InterpolatingParam id="326" interp="linr"  time="0/1" value="0" leadInLength="0/1"  />
           </VectorParam>
          </Transformer>
          <Parameters>
           <VectorParam id="327"  name="sourceCrop">
            <InterpolatingParam id="328" interp="linr"  time="0/1" value="0" leadInLength="0/1"  />
            <InterpolatingParam id="329" interp="linr"  time="0/1" value="0" leadInLength="0/1"  />
            <InterpolatingParam id="330" interp="linr"  time="0/1" value="0" leadInLength="0/1"  />
            <InterpolatingParam id="331" interp="linr"  time="0/1" value="0" leadInLength="0/1"  />
           </VectorParam>
           <VectorParam id="332"  name="geometryCrop">
            <InterpolatingParam id="333" interp="linr"  time="-9999999/1" value="0" leadInLength="0/1"  />
            <InterpolatingParam id="334" interp="linr"  time="-9999999/1" value="0" leadInLength="0/1"  />
            <InterpolatingParam id="335" interp="linr"  time="-9999999/1" value="0" leadInLength="0/1"  />
            <InterpolatingParam id="336" interp="linr"  time="-9999999/1" value="0" leadInLength="0/1"  />
           </VectorParam>
           <InterpolatingParam id="337" interp="linr"  time="-9999999/1" value="1" leadInLength="0/1"  name="opacity"/>
          </Parameters>
          <Attributes>
           <Attribute id="338" value="" name="ident"/>
          </Attributes>
          <ExtraData>
           <Entry key="ZoomPanBin">
            <ZoomPanBin id="339"  >
             <ZoomPanKeyframes>
              <ZoomPanKeyframe id="340" timeRangeEnd="-9999999/1" timeRangeDuration="0/1" interpolaterName="linr"  />
             </ZoomPanKeyframes>
            </ZoomPanBin>
           </Entry>
          </ExtraData>
         </VMFile>
         <MetaData>
          <entry key="WinSubProjectDisplayName" val=""/>
         </MetaData>
        </UnifiedMedia>
        <UnifiedMedia id="341"  >
         <AMFile id="342" start="1571" duration="70" scalar="35/33" mediaStart="1652/1" mediaDuration="66/1" trackNumber="1" src="21" channelNumber="0,1" >
          <Parameters>
           <InterpolatingParam id="343" interp="linr"  name="volume">
            <Keyframes>
            <Keyframe id="344"  time="-1/1" value="1" leadInLength="0/1"  />
            <Keyframe id="345"  time="0/1" value="0" leadInLength="0/1"  />
            <Keyframe id="346"  time="8952/1" value="0" leadInLength="0/1"  />
            <Keyframe id="347"  time="8953/1" value="1" leadInLength="0/1"  />
            </Keyframes>
           </InterpolatingParam>
           <Parameter id="348"  name="captions"/>
          </Parameters>
          <Attributes>
           <Attribute id="349" value="" name="ident"/>
           <Attribute id="350" value="44100" name="sampleRate"/>
           <Attribute id="351" value="16" name="bitDepth"/>
           <Attribute id="352" value="1" name="gain"/>
           <Attribute id="353" value="0" name="mixToMono"/>
          </Attributes>
         </AMFile>
         <VMFile id="354" start="1571" duration="70" scalar="35/33" mediaStart="1652/1" mediaDuration="66/1" trackNumber="0" src="21" >
          <Transformer>
           <VectorParam id="355"  name="translation">
            <InterpolatingParam id="356" interp="linr"  time="-9999999/1" value="0" leadInLength="0/1"  />
            <InterpolatingParam id="357" interp="linr"  time="-9999999/1" value="0" leadInLength="0/1"  />
            <InterpolatingParam id="358" interp="linr"  time="-9999999/1" value="0" leadInLength="0/1"  />
           </VectorParam>
           <VectorParam id="359"  name="rotation">
            <InterpolatingParam id="360" interp="linr"  time="-9999999/1" value="0" leadInLength="0/1"  />
            <InterpolatingParam id="361" interp="linr"  time="-9999999/1" value="0" leadInLength="0/1"  />
            <InterpolatingParam id="362" interp="linr"  time="-9999999/1" value="0" leadInLength="0/1"  />
           </VectorParam>
           <VectorParam id="363"  name="shear">
            <InterpolatingParam id="364" interp="linr"  time="-9999999/1" value="0" leadInLength="0/1"  />
            <InterpolatingParam id="365" interp="linr"  time="-9999999/1" value="0" leadInLength="0/1"  />
            <InterpolatingParam id="366" interp="linr"  time="-9999999/1" value="0" leadInLength="0/1"  />
           </VectorParam>
           <VectorParam id="367"  name="scale">
            <InterpolatingParam id="368" interp="linr"  time="-9999999/1" value="1" leadInLength="0/1"  />
            <InterpolatingParam id="369" interp="linr"  time="-9999999/1" value="1" leadInLength="0/1"  />
            <InterpolatingParam id="370" interp="linr"  time="-9999999/1" value="1" leadInLength="0/1"  />
           </VectorParam>
           <VectorParam id="371"  name="anchor">
            <InterpolatingParam id="372" interp="linr"  time="0/1" value="0" leadInLength="0/1"  />
            <InterpolatingParam id="373" interp="linr"  time="0/1" value="0" leadInLength="0/1"  />
            <InterpolatingParam id="374" interp="linr"  time="0/1" value="0" leadInLength="0/1"  />
           </VectorParam>
          </Transformer>
          <Parameters>
           <VectorParam id="375"  name="sourceCrop">
            <InterpolatingParam id="376" interp="linr"  time="0/1" value="0" leadInLength="0/1"  />
            <InterpolatingParam id="377" interp="linr"  time="0/1" value="0" leadInLength="0/1"  />
            <InterpolatingParam id="378" interp="linr"  time="0/1" value="0" leadInLength="0/1"  />
            <InterpolatingParam id="379" interp="linr"  time="0/1" value="0" leadInLength="0/1"  />
           </VectorParam>
           <VectorParam id="380"  name="geometryCrop">
            <InterpolatingParam id="381" interp="linr"  time="-9999999/1" value="0" leadInLength="0/1"  />
            <InterpolatingParam id="382" interp="linr"  time="-9999999/1" value="0" leadInLength="0/1"  />
            <InterpolatingParam id="383" interp="linr"  time="-9999999/1" value="0" leadInLength="0/1"  />
            <InterpolatingParam id="384" interp="linr"  time="-9999999/1" value="0" leadInLength="0/1"  />
           </VectorParam>
           <InterpolatingParam id="385" interp="linr"  time="-9999999/1" value="1" leadInLength="0/1"  name="opacity"/>
          </Parameters>
          <Attributes>
           <Attribute id="386" value="" name="ident"/>
          </Attributes>
          <ExtraData>
           <Entry key="ZoomPanBin">
            <ZoomPanBin id="387"  >
             <ZoomPanKeyframes>
              <ZoomPanKeyframe id="388" timeRangeEnd="-9999999/1" timeRangeDuration="0/1" interpolaterName="linr"  />
             </ZoomPanKeyframes>
            </ZoomPanBin>
           </Entry>
          </ExtraData>
         </VMFile>
         <MetaData>
          <entry key="WinSubProjectDisplayName" val=""/>
         </MetaData>
        </UnifiedMedia>
        <UnifiedMedia id="389"  >
         <AMFile id="390" start="1641" duration="44" scalar="1/1" mediaStart="1780/1" mediaDuration="44/1" trackNumber="1" src="21" channelNumber="0,1" >
          <Parameters>
           <InterpolatingParam id="391" interp="linr"  name="volume">
            <Keyframes>
            <Keyframe id="392"  time="-1/1" value="1" leadInLength="0/1"  />
            <Keyframe id="393"  time="0/1" value="0" leadInLength="0/1"  />
            <Keyframe id="394"  time="8952/1" value="0" leadInLength="0/1"  />
            <Keyframe id="395"  time="8953/1" value="1" leadInLength="0/1"  />
            </Keyframes>
           </InterpolatingParam>
           <Parameter id="396"  name="captions"/>
          </Parameters>
          <Attributes>
           <Attribute id="397" value="" name="ident"/>
           <Attribute id="398" value="44100" name="sampleRate"/>
           <Attribute id="399" value="16" name="bitDepth"/>
           <Attribute id="400" value="1" name="gain"/>
           <Attribute id="401" value="0" name="mixToMono"/>
          </Attributes>
         </AMFile>
         <VMFile id="402" start="1641" duration="44" scalar="1/1" mediaStart="1780/1" mediaDuration="44/1" trackNumber="0" src="21" >
          <Transformer>
           <VectorParam id="403"  name="translation">
            <InterpolatingParam id="404" interp="linr"  time="-9999999/1" value="0" leadInLength="0/1"  />
            <InterpolatingParam id="405" interp="linr"  time="-9999999/1" value="0" leadInLength="0/1"  />
            <InterpolatingParam id="406" interp="linr"  time="-9999999/1" value="0" leadInLength="0/1"  />
           </VectorParam>
           <VectorParam id="407"  name="rotation">
            <InterpolatingParam id="408" interp="linr"  time="-9999999/1" value="0" leadInLength="0/1"  />
            <InterpolatingParam id="409" interp="linr"  time="-9999999/1" value="0" leadInLength="0/1"  />
            <InterpolatingParam id="410" interp="linr"  time="-9999999/1" value="0" leadInLength="0/1"  />
           </VectorParam>
           <VectorParam id="411"  name="shear">
            <InterpolatingParam id="412" interp="linr"  time="-9999999/1" value="0" leadInLength="0/1"  />
            <InterpolatingParam id="413" interp="linr"  time="-9999999/1" value="0" leadInLength="0/1"  />
            <InterpolatingParam id="414" interp="linr"  time="-9999999/1" value="0" leadInLength="0/1"  />
           </VectorParam>
           <VectorParam id="415"  name="scale">
            <InterpolatingParam id="416" interp="linr"  time="-9999999/1" value="1" leadInLength="0/1"  />
            <InterpolatingParam id="417" interp="linr"  time="-9999999/1" value="1" leadInLength="0/1"  />
            <InterpolatingParam id="418" interp="linr"  time="-9999999/1" value="1" leadInLength="0/1"  />
           </VectorParam>
           <VectorParam id="419"  name="anchor">
            <InterpolatingParam id="420" interp="linr"  time="0/1" value="0" leadInLength="0/1"  />
            <InterpolatingParam id="421" interp="linr"  time="0/1" value="0" leadInLength="0/1"  />
            <InterpolatingParam id="422" interp="linr"  time="0/1" value="0" leadInLength="0/1"  />
           </VectorParam>
          </Transformer>
          <Parameters>
           <VectorParam id="423"  name="sourceCrop">
            <InterpolatingParam id="424" interp="linr"  time="0/1" value="0" leadInLength="0/1"  />
            <InterpolatingParam id="425" interp="linr"  time="0/1" value="0" leadInLength="0/1"  />
            <InterpolatingParam id="426" interp="linr"  time="0/1" value="0" leadInLength="0/1"  />
            <InterpolatingParam id="427" interp="linr"  time="0/1" value="0" leadInLength="0/1"  />
           </VectorParam>
           <VectorParam id="428"  name="geometryCrop">
            <InterpolatingParam id="429" interp="linr"  time="-9999999/1" value="0" leadInLength="0/1"  />
            <InterpolatingParam id="430" interp="linr"  time="-9999999/1" value="0" leadInLength="0/1"  />
            <InterpolatingParam id="431" interp="linr"  time="-9999999/1" value="0" leadInLength="0/1"  />
            <InterpolatingParam id="432" interp="linr"  time="-9999999/1" value="0" leadInLength="0/1"  />
           </VectorParam>
           <InterpolatingParam id="433" interp="linr"  time="-9999999/1" value="1" leadInLength="0/1"  name="opacity"/>
          </Parameters>
          <Attributes>
           <Attribute id="434" value="" name="ident"/>
          </Attributes>
          <ExtraData>
           <Entry key="ZoomPanBin">
            <ZoomPanBin id="435"  >
             <ZoomPanKeyframes>
              <ZoomPanKeyframe id="436" timeRangeEnd="-9999999/1" timeRangeDuration="0/1" interpolaterName="linr"  />
             </ZoomPanKeyframes>
            </ZoomPanBin>
           </Entry>
          </ExtraData>
         </VMFile>
         <MetaData>
          <entry key="WinSubProjectDisplayName" val=""/>
         </MetaData>
        </UnifiedMedia>
        <UnifiedMedia id="437"  >
         <AMFile id="438" start="1685" duration="67" scalar="67/118" mediaStart="1824/1" mediaDuration="118/1" trackNumber="1" src="21" channelNumber="0,1" >
          <Parameters>
           <InterpolatingParam id="439" interp="linr"  name="volume">
            <Keyframes>
            <Keyframe id="440"  time="-1/1" value="1" leadInLength="0/1"  />
            <Keyframe id="441"  time="0/1" value="0" leadInLength="0/1"  />
            <Keyframe id="442"  time="8952/1" value="0" leadInLength="0/1"  />
            <Keyframe id="443"  time="8953/1" value="1" leadInLength="0/1"  />
            </Keyframes>
           </InterpolatingParam>
           <Parameter id="444"  name="captions"/>
          </Parameters>
          <Attributes>
           <Attribute id="445" value="" name="ident"/>
           <Attribute id="446" value="44100" name="sampleRate"/>
           <Attribute id="447" value="16" name="bitDepth"/>
           <Attribute id="448" value="1" name="gain"/>
           <Attribute id="449" value="0" name="mixToMono"/>
          </Attributes>
         </AMFile>
         <VMFile id="450" start="1685" duration="67" scalar="67/118" mediaStart="1824/1" mediaDuration="118/1" trackNumber="0" src="21" >
          <Transformer>
           <VectorParam id="451"  name="translation">
            <InterpolatingParam id="452" interp="linr"  time="-9999999/1" value="0" leadInLength="0/1"  />
            <InterpolatingParam id="453" interp="linr"  time="-9999999/1" value="0" leadInLength="0/1"  />
            <InterpolatingParam id="454" interp="linr"  time="-9999999/1" value="0" leadInLength="0/1"  />
           </VectorParam>
           <VectorParam id="455"  name="rotation">
            <InterpolatingParam id="456" interp="linr"  time="-9999999/1" value="0" leadInLength="0/1"  />
            <InterpolatingParam id="457" interp="linr"  time="-9999999/1" value="0" leadInLength="0/1"  />
            <InterpolatingParam id="458" interp="linr"  time="-9999999/1" value="0" leadInLength="0/1"  />
           </VectorParam>
           <VectorParam id="459"  name="shear">
            <InterpolatingParam id="460" interp="linr"  time="-9999999/1" value="0" leadInLength="0/1"  />
            <InterpolatingParam id="461" interp="linr"  time="-9999999/1" value="0" leadInLength="0/1"  />
            <InterpolatingParam id="462" interp="linr"  time="-9999999/1" value="0" leadInLength="0/1"  />
           </VectorParam>
           <VectorParam id="463"  name="scale">
            <InterpolatingParam id="464" interp="linr"  time="-9999999/1" value="1" leadInLength="0/1"  />
            <InterpolatingParam id="465" interp="linr"  time="-9999999/1" value="1" leadInLength="0/1"  />
            <InterpolatingParam id="466" interp="linr"  time="-9999999/1" value="1" leadInLength="0/1"  />
           </VectorParam>
           <VectorParam id="467"  name="anchor">
            <InterpolatingParam id="468" interp="linr"  time="0/1" value="0" leadInLength="0/1"  />
            <InterpolatingParam id="469" interp="linr"  time="0/1" value="0" leadInLength="0/1"  />
            <InterpolatingParam id="470" interp="linr"  time="0/1" value="0" leadInLength="0/1"  />
           </VectorParam>
          </Transformer>
          <Parameters>
           <VectorParam id="471"  name="sourceCrop">
            <InterpolatingParam id="472" interp="linr"  time="0/1" value="0" leadInLength="0/1"  />
            <InterpolatingParam id="473" interp="linr"  time="0/1" value="0" leadInLength="0/1"  />
            <InterpolatingParam id="474" interp="linr"  time="0/1" value="0" leadInLength="0/1"  />
            <InterpolatingParam id="475" interp="linr"  time="0/1" value="0" leadInLength="0/1"  />
           </VectorParam>
           <VectorParam id="476"  name="geometryCrop">
            <InterpolatingParam id="477" interp="linr"  time="-9999999/1" value="0" leadInLength="0/1"  />
            <InterpolatingParam id="478" interp="linr"  time="-9999999/1" value="0" leadInLength="0/1"  />
            <InterpolatingParam id="479" interp="linr"  time="-9999999/1" value="0" leadInLength="0/1"  />
            <InterpolatingParam id="480" interp="linr"  time="-9999999/1" value="0" leadInLength="0/1"  />
           </VectorParam>
           <InterpolatingParam id="481" interp="linr"  time="-9999999/1" value="1" leadInLength="0/1"  name="opacity"/>
          </Parameters>
          <Attributes>
           <Attribute id="482" value="" name="ident"/>
          </Attributes>
          <ExtraData>
           <Entry key="ZoomPanBin">
            <ZoomPanBin id="483"  >
             <ZoomPanKeyframes>
              <ZoomPanKeyframe id="484" timeRangeEnd="-9999999/1" timeRangeDuration="0/1" interpolaterName="linr"  />
             </ZoomPanKeyframes>
            </ZoomPanBin>
           </Entry>
          </ExtraData>
         </VMFile>
         <MetaData>
          <entry key="WinSubProjectDisplayName" val=""/>
         </MetaData>
        </UnifiedMedia>
        <UnifiedMedia id="485"  >
         <AMFile id="486" start="1752" duration="119" scalar="7/4" mediaStart="1994/1" mediaDuration="68/1" trackNumber="1" src="21" channelNumber="0,1" >
          <Parameters>
           <InterpolatingParam id="487" interp="linr"  name="volume">
            <Keyframes>
            <Keyframe id="488"  time="-1/1" value="1" leadInLength="0/1"  />
            <Keyframe id="489"  time="0/1" value="0" leadInLength="0/1"  />
            <Keyframe id="490"  time="8952/1" value="0" leadInLength="0/1"  />
            <Keyframe id="491"  time="8953/1" value="1" leadInLength="0/1"  />
            </Keyframes>
           </InterpolatingParam>
           <Parameter id="492"  name="captions"/>
          </Parameters>
          <Attributes>
           <Attribute id="493" value="" name="ident"/>
           <Attribute id="494" value="44100" name="sampleRate"/>
           <Attribute id="495" value="16" name="bitDepth"/>
           <Attribute id="496" value="1" name="gain"/>
           <Attribute id="497" value="0" name="mixToMono"/>
          </Attributes>
         </AMFile>
         <VMFile id="498" start="1752" duration="119" scalar="7/4" mediaStart="1994/1" mediaDuration="68/1" trackNumber="0" src="21" >
          <Transformer>
           <VectorParam id="499"  name="translation">
            <InterpolatingParam id="500" interp="linr"  time="-9999999/1" value="0" leadInLength="0/1"  />
            <InterpolatingParam id="501" interp="linr"  time="-9999999/1" value="0" leadInLength="0/1"  />
            <InterpolatingParam id="502" interp="linr"  time="-9999999/1" value="0" leadInLength="0/1"  />
           </VectorParam>
           <VectorParam id="503"  name="rotation">
            <InterpolatingParam id="504" interp="linr"  time="-9999999/1" value="0" leadInLength="0/1"  />
            <InterpolatingParam id="505" interp="linr"  time="-9999999/1" value="0" leadInLength="0/1"  />
            <InterpolatingParam id="506" interp="linr"  time="-9999999/1" value="0" leadInLength="0/1"  />
           </VectorParam>
           <VectorParam id="507"  name="shear">
            <InterpolatingParam id="508" interp="linr"  time="-9999999/1" value="0" leadInLength="0/1"  />
            <InterpolatingParam id="509" interp="linr"  time="-9999999/1" value="0" leadInLength="0/1"  />
            <InterpolatingParam id="510" interp="linr"  time="-9999999/1" value="0" leadInLength="0/1"  />
           </VectorParam>
           <VectorParam id="511"  name="scale">
            <InterpolatingParam id="512" interp="linr"  time="-9999999/1" value="1" leadInLength="0/1"  />
            <InterpolatingParam id="513" interp="linr"  time="-9999999/1" value="1" leadInLength="0/1"  />
            <InterpolatingParam id="514" interp="linr"  time="-9999999/1" value="1" leadInLength="0/1"  />
           </VectorParam>
           <VectorParam id="515"  name="anchor">
            <InterpolatingParam id="516" interp="linr"  time="0/1" value="0" leadInLength="0/1"  />
            <InterpolatingParam id="517" interp="linr"  time="0/1" value="0" leadInLength="0/1"  />
            <InterpolatingParam id="518" interp="linr"  time="0/1" value="0" leadInLength="0/1"  />
           </VectorParam>
          </Transformer>
          <Parameters>
           <VectorParam id="519"  name="sourceCrop">
            <InterpolatingParam id="520" interp="linr"  time="0/1" value="0" leadInLength="0/1"  />
            <InterpolatingParam id="521" interp="linr"  time="0/1" value="0" leadInLength="0/1"  />
            <InterpolatingParam id="522" interp="linr"  time="0/1" value="0" leadInLength="0/1"  />
            <InterpolatingParam id="523" interp="linr"  time="0/1" value="0" leadInLength="0/1"  />
           </VectorParam>
           <VectorParam id="524"  name="geometryCrop">
            <InterpolatingParam id="525" interp="linr"  time="-9999999/1" value="0" leadInLength="0/1"  />
            <InterpolatingParam id="526" interp="linr"  time="-9999999/1" value="0" leadInLength="0/1"  />
            <InterpolatingParam id="527" interp="linr"  time="-9999999/1" value="0" leadInLength="0/1"  />
            <InterpolatingParam id="528" interp="linr"  time="-9999999/1" value="0" leadInLength="0/1"  />
           </VectorParam>
           <InterpolatingParam id="529" interp="linr"  time="-9999999/1" value="1" leadInLength="0/1"  name="opacity"/>
          </Parameters>
          <Attributes>
           <Attribute id="530" value="" name="ident"/>
          </Attributes>
          <ExtraData>
           <Entry key="ZoomPanBin">
            <ZoomPanBin id="531"  >
             <ZoomPanKeyframes>
              <ZoomPanKeyframe id="532" timeRangeEnd="-9999999/1" timeRangeDuration="0/1" interpolaterName="linr"  />
             </ZoomPanKeyframes>
            </ZoomPanBin>
           </Entry>
          </ExtraData>
         </VMFile>
         <MetaData>
          <entry key="WinSubProjectDisplayName" val=""/>
         </MetaData>
        </UnifiedMedia>
        <UnifiedMedia id="533"  >
         <AMFile id="534" start="1871" duration="790" scalar="1/1" mediaStart="2062/1" mediaDuration="790/1" trackNumber="1" src="21" channelNumber="0,1" >
          <Parameters>
           <InterpolatingParam id="535" interp="linr"  name="volume">
            <Keyframes>
            <Keyframe id="536"  time="-1/1" value="1" leadInLength="0/1"  />
            <Keyframe id="537"  time="0/1" value="0" leadInLength="0/1"  />
            <Keyframe id="538"  time="8952/1" value="0" leadInLength="0/1"  />
            <Keyframe id="539"  time="8953/1" value="1" leadInLength="0/1"  />
            </Keyframes>
           </InterpolatingParam>
           <Parameter id="540"  name="captions"/>
          </Parameters>
          <Attributes>
           <Attribute id="541" value="" name="ident"/>
           <Attribute id="542" value="44100" name="sampleRate"/>
           <Attribute id="543" value="16" name="bitDepth"/>
           <Attribute id="544" value="1" name="gain"/>
           <Attribute id="545" value="0" name="mixToMono"/>
          </Attributes>
         </AMFile>
         <VMFile id="546" start="1871" duration="790" scalar="1/1" mediaStart="2062/1" mediaDuration="790/1" trackNumber="0" src="21" >
          <Transformer>
           <VectorParam id="547"  name="translation">
            <InterpolatingParam id="548" interp="linr"  time="-9999999/1" value="-2.4073187887552194e-010" leadInLength="0/1"  />
            <InterpolatingParam id="549" interp="linr"  time="-9999999/1" value="-2.6606272740536951e-011" leadInLength="0/1"  />
            <InterpolatingParam id="550" interp="linr"  time="-9999999/1" value="0" leadInLength="0/1"  />
           </VectorParam>
           <VectorParam id="551"  name="rotation">
            <InterpolatingParam id="552" interp="linr"  time="-9999999/1" value="0" leadInLength="0/1"  />
            <InterpolatingParam id="553" interp="linr"  time="-9999999/1" value="0" leadInLength="0/1"  />
            <InterpolatingParam id="554" interp="linr"  time="-9999999/1" value="0" leadInLength="0/1"  />
           </VectorParam>
           <VectorParam id="555"  name="shear">
            <InterpolatingParam id="556" interp="linr"  time="-9999999/1" value="0" leadInLength="0/1"  />
            <InterpolatingParam id="557" interp="linr"  time="-9999999/1" value="0" leadInLength="0/1"  />
            <InterpolatingParam id="558" interp="linr"  time="-9999999/1" value="0" leadInLength="0/1"  />
           </VectorParam>
           <VectorParam id="559"  name="scale">
            <InterpolatingParam id="560" interp="linr"  time="-9999999/1" value="1.0000000000000591" leadInLength="0/1"  />
            <InterpolatingParam id="561" interp="linr"  time="-9999999/1" value="1.0000000000000591" leadInLength="0/1"  />
            <InterpolatingParam id="562" interp="linr"  time="-9999999/1" value="1" leadInLength="0/1"  />
           </VectorParam>
           <VectorParam id="563"  name="anchor">
            <InterpolatingParam id="564" interp="linr"  time="0/1" value="0" leadInLength="0/1"  />
            <InterpolatingParam id="565" interp="linr"  time="0/1" value="0" leadInLength="0/1"  />
            <InterpolatingParam id="566" interp="linr"  time="0/1" value="0" leadInLength="0/1"  />
           </VectorParam>
          </Transformer>
          <Parameters>
           <VectorParam id="567"  name="sourceCrop">
            <InterpolatingParam id="568" interp="linr"  time="0/1" value="0" leadInLength="0/1"  />
            <InterpolatingParam id="569" interp="linr"  time="0/1" value="0" leadInLength="0/1"  />
            <InterpolatingParam id="570" interp="linr"  time="0/1" value="0" leadInLength="0/1"  />
            <InterpolatingParam id="571" interp="linr"  time="0/1" value="0" leadInLength="0/1"  />
           </VectorParam>
           <VectorParam id="572"  name="geometryCrop">
            <InterpolatingParam id="573" interp="linr"  time="-9999999/1" value="0" leadInLength="0/1"  />
            <InterpolatingParam id="574" interp="linr"  time="-9999999/1" value="0" leadInLength="0/1"  />
            <InterpolatingParam id="575" interp="linr"  time="-9999999/1" value="0" leadInLength="0/1"  />
            <InterpolatingParam id="576" interp="linr"  time="-9999999/1" value="0" leadInLength="0/1"  />
           </VectorParam>
           <InterpolatingParam id="577" interp="linr"  time="-9999999/1" value="1" leadInLength="0/1"  name="opacity"/>
          </Parameters>
          <Attributes>
           <Attribute id="578" value="" name="ident"/>
          </Attributes>
          <ExtraData>
           <Entry key="ZoomPanBin">
            <ZoomPanBin id="579"  >
             <ZoomPanKeyframes>
              <ZoomPanKeyframe id="580" timeRangeEnd="-9999999/1" timeRangeDuration="0/1" interpolaterName="linr"  />
             </ZoomPanKeyframes>
            </ZoomPanBin>
           </Entry>
          </ExtraData>
         </VMFile>
         <MetaData>
          <entry key="WinSubProjectDisplayName" val=""/>
         </MetaData>
        </UnifiedMedia>
        <UnifiedMedia id="581"  >
         <AMFile id="582" start="2661" duration="178" scalar="594075/331328" mediaStart="19562594/6675" mediaDuration="662656/6675" trackNumber="1" src="21" channelNumber="0,1" >
          <Parameters>
           <InterpolatingParam id="583" interp="linr"  name="volume">
            <Keyframes>
            <Keyframe id="584"  time="-1/1" value="1" leadInLength="0/1"  />
            <Keyframe id="585"  time="0/1" value="0" leadInLength="0/1"  />
            <Keyframe id="586"  time="8952/1" value="0" leadInLength="0/1"  />
            <Keyframe id="587"  time="8953/1" value="1" leadInLength="0/1"  />
            </Keyframes>
           </InterpolatingParam>
           <Parameter id="588"  name="captions"/>
          </Parameters>
          <Attributes>
           <Attribute id="589" value="" name="ident"/>
           <Attribute id="590" value="44100" name="sampleRate"/>
           <Attribute id="591" value="16" name="bitDepth"/>
           <Attribute id="592" value="1" name="gain"/>
           <Attribute id="593" value="0" name="mixToMono"/>
          </Attributes>
         </AMFile>
         <VMFile id="594" start="2661" duration="178" scalar="594075/331328" mediaStart="19562594/6675" mediaDuration="662656/6675" trackNumber="0" src="21" >
          <Transformer>
           <VectorParam id="595"  name="translation">
            <InterpolatingParam id="596" interp="linr"  time="-9999999/1" value="-2.4073187887552194e-010" leadInLength="0/1"  />
            <InterpolatingParam id="597" interp="linr"  time="-9999999/1" value="-2.6606272740536951e-011" leadInLength="0/1"  />
            <InterpolatingParam id="598" interp="linr"  time="-9999999/1" value="0" leadInLength="0/1"  />
           </VectorParam>
           <VectorParam id="599"  name="rotation">
            <InterpolatingParam id="600" interp="linr"  time="-9999999/1" value="0" leadInLength="0/1"  />
            <InterpolatingParam id="601" interp="linr"  time="-9999999/1" value="0" leadInLength="0/1"  />
            <InterpolatingParam id="602" interp="linr"  time="-9999999/1" value="0" leadInLength="0/1"  />
           </VectorParam>
           <VectorParam id="603"  name="shear">
            <InterpolatingParam id="604" interp="linr"  time="-9999999/1" value="0" leadInLength="0/1"  />
            <InterpolatingParam id="605" interp="linr"  time="-9999999/1" value="0" leadInLength="0/1"  />
            <InterpolatingParam id="606" interp="linr"  time="-9999999/1" value="0" leadInLength="0/1"  />
           </VectorParam>
           <VectorParam id="607"  name="scale">
            <InterpolatingParam id="608" interp="linr"  time="-9999999/1" value="1.0000000000000591" leadInLength="0/1"  />
            <InterpolatingParam id="609" interp="linr"  time="-9999999/1" value="1.0000000000000591" leadInLength="0/1"  />
            <InterpolatingParam id="610" interp="linr"  time="-9999999/1" value="1" leadInLength="0/1"  />
           </VectorParam>
           <VectorParam id="611"  name="anchor">
            <InterpolatingParam id="612" interp="linr"  time="0/1" value="0" leadInLength="0/1"  />
            <InterpolatingParam id="613" interp="linr"  time="0/1" value="0" leadInLength="0/1"  />
            <InterpolatingParam id="614" interp="linr"  time="0/1" value="0" leadInLength="0/1"  />
           </VectorParam>
          </Transformer>
          <Parameters>
           <VectorParam id="615"  name="sourceCrop">
            <InterpolatingParam id="616" interp="linr"  time="0/1" value="0" leadInLength="0/1"  />
            <InterpolatingParam id="617" interp="linr"  time="0/1" value="0" leadInLength="0/1"  />
            <InterpolatingParam id="618" interp="linr"  time="0/1" value="0" leadInLength="0/1"  />
            <InterpolatingParam id="619" interp="linr"  time="0/1" value="0" leadInLength="0/1"  />
           </VectorParam>
           <VectorParam id="620"  name="geometryCrop">
            <InterpolatingParam id="621" interp="linr"  time="-9999999/1" value="0" leadInLength="0/1"  />
            <InterpolatingParam id="622" interp="linr"  time="-9999999/1" value="0" leadInLength="0/1"  />
            <InterpolatingParam id="623" interp="linr"  time="-9999999/1" value="0" leadInLength="0/1"  />
            <InterpolatingParam id="624" interp="linr"  time="-9999999/1" value="0" leadInLength="0/1"  />
           </VectorParam>
           <InterpolatingParam id="625" interp="linr"  time="-9999999/1" value="1" leadInLength="0/1"  name="opacity"/>
          </Parameters>
          <Attributes>
           <Attribute id="626" value="" name="ident"/>
          </Attributes>
          <ExtraData>
           <Entry key="ZoomPanBin">
            <ZoomPanBin id="627"  >
             <ZoomPanKeyframes>
              <ZoomPanKeyframe id="628" timeRangeEnd="-9999999/1" timeRangeDuration="0/1" interpolaterName="linr"  />
             </ZoomPanKeyframes>
            </ZoomPanBin>
           </Entry>
          </ExtraData>
         </VMFile>
         <MetaData>
          <entry key="WinSubProjectDisplayName" val=""/>
         </MetaData>
        </UnifiedMedia>
        <UnifiedMedia id="629"  >
         <AMFile id="630" start="2839" duration="45" scalar="120/139" mediaStart="3030/1" mediaDuration="417/8" trackNumber="1" src="21" channelNumber="0,1" >
          <Parameters>
           <InterpolatingParam id="631" interp="linr"  name="volume">
            <Keyframes>
            <Keyframe id="632"  time="-1/1" value="1" leadInLength="0/1"  />
            <Keyframe id="633"  time="0/1" value="0" leadInLength="0/1"  />
            <Keyframe id="634"  time="8952/1" value="0" leadInLength="0/1"  />
            <Keyframe id="635"  time="8953/1" value="1" leadInLength="0/1"  />
            </Keyframes>
           </InterpolatingParam>
           <Parameter id="636"  name="captions"/>
          </Parameters>
          <Attributes>
           <Attribute id="637" value="" name="ident"/>
           <Attribute id="638" value="44100" name="sampleRate"/>
           <Attribute id="639" value="16" name="bitDepth"/>
           <Attribute id="640" value="1" name="gain"/>
           <Attribute id="641" value="0" name="mixToMono"/>
          </Attributes>
         </AMFile>
         <VMFile id="642" start="2839" duration="45" scalar="120/139" mediaStart="3030/1" mediaDuration="417/8" trackNumber="0" src="21" >
          <Transformer>
           <VectorParam id="643"  name="translation">
            <InterpolatingParam id="644" interp="linr"  time="-9999999/1" value="0" leadInLength="0/1"  />
            <InterpolatingParam id="645" interp="linr"  time="-9999999/1" value="0" leadInLength="0/1"  />
            <InterpolatingParam id="646" interp="linr"  time="-9999999/1" value="0" leadInLength="0/1"  />
           </VectorParam>
           <VectorParam id="647"  name="rotation">
            <InterpolatingParam id="648" interp="linr"  time="-9999999/1" value="0" leadInLength="0/1"  />
            <InterpolatingParam id="649" interp="linr"  time="-9999999/1" value="0" leadInLength="0/1"  />
            <InterpolatingParam id="650" interp="linr"  time="-9999999/1" value="0" leadInLength="0/1"  />
           </VectorParam>
           <VectorParam id="651"  name="shear">
            <InterpolatingParam id="652" interp="linr"  time="-9999999/1" value="0" leadInLength="0/1"  />
            <InterpolatingParam id="653" interp="linr"  time="-9999999/1" value="0" leadInLength="0/1"  />
            <InterpolatingParam id="654" interp="linr"  time="-9999999/1" value="0" leadInLength="0/1"  />
           </VectorParam>
           <VectorParam id="655"  name="scale">
            <InterpolatingParam id="656" interp="linr"  time="-9999999/1" value="1" leadInLength="0/1"  />
            <InterpolatingParam id="657" interp="linr"  time="-9999999/1" value="1" leadInLength="0/1"  />
            <InterpolatingParam id="658" interp="linr"  time="-9999999/1" value="1" leadInLength="0/1"  />
           </VectorParam>
           <VectorParam id="659"  name="anchor">
            <InterpolatingParam id="660" interp="linr"  time="0/1" value="0" leadInLength="0/1"  />
            <InterpolatingParam id="661" interp="linr"  time="0/1" value="0" leadInLength="0/1"  />
            <InterpolatingParam id="662" interp="linr"  time="0/1" value="0" leadInLength="0/1"  />
           </VectorParam>
          </Transformer>
          <Parameters>
           <VectorParam id="663"  name="sourceCrop">
            <InterpolatingParam id="664" interp="linr"  time="0/1" value="0" leadInLength="0/1"  />
            <InterpolatingParam id="665" interp="linr"  time="0/1" value="0" leadInLength="0/1"  />
            <InterpolatingParam id="666" interp="linr"  time="0/1" value="0" leadInLength="0/1"  />
            <InterpolatingParam id="667" interp="linr"  time="0/1" value="0" leadInLength="0/1"  />
           </VectorParam>
           <VectorParam id="668"  name="geometryCrop">
            <InterpolatingParam id="669" interp="linr"  time="-9999999/1" value="0" leadInLength="0/1"  />
            <InterpolatingParam id="670" interp="linr"  time="-9999999/1" value="0" leadInLength="0/1"  />
            <InterpolatingParam id="671" interp="linr"  time="-9999999/1" value="0" leadInLength="0/1"  />
            <InterpolatingParam id="672" interp="linr"  time="-9999999/1" value="0" leadInLength="0/1"  />
           </VectorParam>
           <InterpolatingParam id="673" interp="linr"  time="-9999999/1" value="1" leadInLength="0/1"  name="opacity"/>
          </Parameters>
          <Attributes>
           <Attribute id="674" value="" name="ident"/>
          </Attributes>
          <ExtraData>
           <Entry key="ZoomPanBin">
            <ZoomPanBin id="675"  >
             <ZoomPanKeyframes>
              <ZoomPanKeyframe id="676" timeRangeEnd="-9999999/1" timeRangeDuration="0/1" interpolaterName="linr"  />
             </ZoomPanKeyframes>
            </ZoomPanBin>
           </Entry>
          </ExtraData>
         </VMFile>
         <MetaData>
          <entry key="WinSubProjectDisplayName" val=""/>
         </MetaData>
        </UnifiedMedia>
        <UnifiedMedia id="677"  >
         <AMFile id="678" start="2884" duration="75" scalar="120/139" mediaStart="24657/8" mediaDuration="695/8" trackNumber="1" src="21" channelNumber="0,1" >
          <Parameters>
           <InterpolatingParam id="679" interp="linr"  name="volume">
            <Keyframes>
            <Keyframe id="680"  time="-1/1" value="1" leadInLength="0/1"  />
            <Keyframe id="681"  time="0/1" value="0" leadInLength="0/1"  />
            <Keyframe id="682"  time="8952/1" value="0" leadInLength="0/1"  />
            <Keyframe id="683"  time="8953/1" value="1" leadInLength="0/1"  />
            </Keyframes>
           </InterpolatingParam>
           <Parameter id="684"  name="captions"/>
          </Parameters>
          <Attributes>
           <Attribute id="685" value="" name="ident"/>
           <Attribute id="686" value="44100" name="sampleRate"/>
           <Attribute id="687" value="16" name="bitDepth"/>
           <Attribute id="688" value="1" name="gain"/>
           <Attribute id="689" value="0" name="mixToMono"/>
          </Attributes>
         </AMFile>
         <VMFile id="690" start="2884" duration="75" scalar="120/139" mediaStart="24657/8" mediaDuration="695/8" trackNumber="0" src="21" >
          <Transformer>
           <VectorParam id="691"  name="translation">
            <InterpolatingParam id="692" interp="linr"  time="-9999999/1" value="0" leadInLength="0/1"  />
            <InterpolatingParam id="693" interp="linr"  time="-9999999/1" value="0" leadInLength="0/1"  />
            <InterpolatingParam id="694" interp="linr"  time="-9999999/1" value="0" leadInLength="0/1"  />
           </VectorParam>
           <VectorParam id="695"  name="rotation">
            <InterpolatingParam id="696" interp="linr"  time="-9999999/1" value="0" leadInLength="0/1"  />
            <InterpolatingParam id="697" interp="linr"  time="-9999999/1" value="0" leadInLength="0/1"  />
            <InterpolatingParam id="698" interp="linr"  time="-9999999/1" value="0" leadInLength="0/1"  />
           </VectorParam>
           <VectorParam id="699"  name="shear">
            <InterpolatingParam id="700" interp="linr"  time="-9999999/1" value="0" leadInLength="0/1"  />
            <InterpolatingParam id="701" interp="linr"  time="-9999999/1" value="0" leadInLength="0/1"  />
            <InterpolatingParam id="702" interp="linr"  time="-9999999/1" value="0" leadInLength="0/1"  />
           </VectorParam>
           <VectorParam id="703"  name="scale">
            <InterpolatingParam id="704" interp="linr"  time="-9999999/1" value="1" leadInLength="0/1"  />
            <InterpolatingParam id="705" interp="linr"  time="-9999999/1" value="1" leadInLength="0/1"  />
            <InterpolatingParam id="706" interp="linr"  time="-9999999/1" value="1" leadInLength="0/1"  />
           </VectorParam>
           <VectorParam id="707"  name="anchor">
            <InterpolatingParam id="708" interp="linr"  time="0/1" value="0" leadInLength="0/1"  />
            <InterpolatingParam id="709" interp="linr"  time="0/1" value="0" leadInLength="0/1"  />
            <InterpolatingParam id="710" interp="linr"  time="0/1" value="0" leadInLength="0/1"  />
           </VectorParam>
          </Transformer>
          <Parameters>
           <VectorParam id="711"  name="sourceCrop">
            <InterpolatingParam id="712" interp="linr"  time="0/1" value="0" leadInLength="0/1"  />
            <InterpolatingParam id="713" interp="linr"  time="0/1" value="0" leadInLength="0/1"  />
            <InterpolatingParam id="714" interp="linr"  time="0/1" value="0" leadInLength="0/1"  />
            <InterpolatingParam id="715" interp="linr"  time="0/1" value="0" leadInLength="0/1"  />
           </VectorParam>
           <VectorParam id="716"  name="geometryCrop">
            <InterpolatingParam id="717" interp="linr"  time="-9999999/1" value="0" leadInLength="0/1"  />
            <InterpolatingParam id="718" interp="linr"  time="-9999999/1" value="0" leadInLength="0/1"  />
            <InterpolatingParam id="719" interp="linr"  time="-9999999/1" value="0" leadInLength="0/1"  />
            <InterpolatingParam id="720" interp="linr"  time="-9999999/1" value="0" leadInLength="0/1"  />
           </VectorParam>
           <InterpolatingParam id="721" interp="linr"  time="-9999999/1" value="1" leadInLength="0/1"  name="opacity"/>
          </Parameters>
          <Attributes>
           <Attribute id="722" value="" name="ident"/>
          </Attributes>
          <ExtraData>
           <Entry key="ZoomPanBin">
            <ZoomPanBin id="723"  >
             <ZoomPanKeyframes>
              <ZoomPanKeyframe id="724" timeRangeEnd="-9999999/1" timeRangeDuration="0/1" interpolaterName="linr"  />
             </ZoomPanKeyframes>
            </ZoomPanBin>
           </Entry>
          </ExtraData>
         </VMFile>
         <MetaData>
          <entry key="WinSubProjectDisplayName" val=""/>
         </MetaData>
        </UnifiedMedia>
        <UnifiedMedia id="725"  >
         <AMFile id="726" start="2959" duration="241" scalar="241/222" mediaStart="3169/1" mediaDuration="222/1" trackNumber="1" src="21" channelNumber="0,1" >
          <Parameters>
           <InterpolatingParam id="727" interp="linr"  name="volume">
            <Keyframes>
            <Keyframe id="728"  time="-1/1" value="1" leadInLength="0/1"  />
            <Keyframe id="729"  time="0/1" value="0" leadInLength="0/1"  />
            <Keyframe id="730"  time="8952/1" value="0" leadInLength="0/1"  />
            <Keyframe id="731"  time="8953/1" value="1" leadInLength="0/1"  />
            </Keyframes>
           </InterpolatingParam>
           <Parameter id="732"  name="captions"/>
          </Parameters>
          <Effects>
           <GenericEffect id="733" name = "WinCompression" >
            <Parameters>
            <InterpolatingParam id="734" interp="linr"  time="0/1" value="0" leadInLength="0/1"   name="attack"/>
            <InterpolatingParam id="735" interp="linr"  time="0/1" value="9" leadInLength="0/1"   name="gain"/>
            <Parameter id="736"   name="preset">
             <Keyframes>
             <Keyframe id="737"  time="0/1" value="1" leadInLength="0/1"  />
             </Keyframes>
            </Parameter>
            <InterpolatingParam id="738" interp="linr"  time="0/1" value="10" leadInLength="0/1"   name="ratio"/>
            <InterpolatingParam id="739" interp="linr"  time="0/1" value="3500" leadInLength="0/1"   name="release"/>
            <InterpolatingParam id="740" interp="linr"  time="0/1" value="-20" leadInLength="0/1"   name="threshold"/>
            </Parameters>
            <MetaData>
             <entry key="effectIndex" val="0"/>
            </MetaData>
           </GenericEffect>
           <GenericEffect id="741" name = "NoiseReduction" >
            <Parameters>
            <InterpolatingParam id="742" interp="linr"  time="0/1" value="20" leadInLength="0/1"   name="denoiserAmount"/>
            <InterpolatingParam id="743" interp="linr"  time="0/1" value="0" leadInLength="0/1"   name="denoiserThreshold"/>
            <Parameter id="744"   name="noiseProfile">
             <Keyframes>
             <Keyframe id="745"  time="0/1" value="FBAAAAIAAABErAAAAQIAAFtafcIfp0TCKUw4wk6jMsJFIUPCRTFFwnlQQMJ0CETCdhpJwqh6R8Jb&#xD;&#xa;KUvCfYdZwis2YsIga23C9ah5whVhgcLuQIjC1+6NwmJpj8LC8o/Cf4mIwmRYgMI8MX7C0RGCwk6F&#xD;&#xa;f8LwGoHCx72EwlAvi8IA9o7CZD2Rwg+8l8L9TKHCfmSlwq5ZosLO65jC6FKTwlV2kcICW5PCTSSY&#xD;&#xa;wq/lkcKQfY7Cv+uOwi6IisKRpoTCt1qFwgIvi8K7n4nC0h6LwovhjcJsso7CJryMwlbji8Jcqo/C&#xD;&#xa;5jqWwkkolML4sZbCzvqYwomvl8JGtpnCMD2YwtwZmcLWWpfCMD+dwk4hpcIUfqTCQLehwjZMm8K4&#xD;&#xa;D5rC5QiYwk3xmcIgzJfCVuSWwqHcmcLcLJ7CJLGlwoecp8J9cqXCJNaewoZpnsLVqZzCxRSZwlmE&#xD;&#xa;lcJ+Q47CWJqLwreIkcIEbJPCKUSLwlFyhMLZSIjCeliXwouBnsImtJfCxHeYwtD1mMLaiJjC0cyb&#xD;&#xa;wsqJoML5lJ/C4DOZwmaDk8IMNI/CXl2RwrmjksLjkpLCIqiXwlSDn8KzNp3CLiuZwsmvk8LA7I7C&#xD;&#xa;E0+UwtvBnsIisJ/CDtyawjp1mMJ1mJjCqbyUwo20lsLmFZ7CDCCWwhWbksJ4ZpjCGJedwjIOoMK6&#xD;&#xa;JJrCtoKTwkmHksLhn5LCEZ+SwoyHlMKSk5vCj3KcwlQVk8KG943CPjKLwjCkicLajY3CpNeTwke/&#xD;&#xa;mMIgvKTCSaWrwqVAqsI1sKHCa2qgwpsGpcLsOarCeaquwiTstcJWPq7COkmiwn9WnMLQ65/C8V6g&#xD;&#xa;wo6vncLs86DCJ8CkwlWOrMIhGanChN+pwiJtpsKoo6HCqfKfwsShosKn/KXCwtCuwiSGs8KdmLTC&#xD;&#xa;bbm1whQms8JWFLDCTFmvwvHVqcJXu6rCD0StwkyOqsKHUajCH7Oqwg7SosKQ25zCjQmgwnlyrMIE&#xD;&#xa;D7HCfvCxwgJBrMK2W6nCDWyswikursIYlLPCTCm5wteutcKsBLLCZ6ivwtifqcK8mKnCJu6twizH&#xD;&#xa;qcLIjqrCuiiywi+ZtsIb3K/CymCnwuyxqMJheazCsBSrwqhOr8IbMbXCFt21wnewrML2VqjCKMqp&#xD;&#xa;wq8br8IXlK7CmwywwsPot8J8VbnC+RSzwiTcrcKQPbDCi+OzwlgYtcLL9rLCmme4wj1Bt8KfT6zC&#xD;&#xa;vIWqwukwsMLn1K/C7/eywngmuMJmZsDC9hfGwr4ZzcKKY9DCoC3MwuZuyMJ7p8nCiIjMwnJ4x8LJ&#xD;&#xa;Z8XCiILHwv63x8Lk6cbC1oPCwvwywMKRN8XClEPJwjoIxsL2U8jCZnDMwp/yzsLecMjCfBrBwsAD&#xD;&#xa;wMKga8TC0G7Nwjr7z8LpGNDC4DPUwlj61MKtnc/CMsLPwqnwzcIrxcbCFnnIwqk/y8IGg8rCJkPH&#xD;&#xa;wjTmx8IHBcTCP6nGwoLnzMJia87CHMvRwuaE0sJQts3CCqDNwrPozsJKV9LCz2vUwkg00sK8ktDC&#xD;&#xa;ttvPwkWazcJ8U8nCCmvHwrayycK+EsnC2fXLwt8+0MLXUNXChd3TwvT7zsL2WtDCYnTOwgoSz8L4&#xD;&#xa;gNPC2gzVwuxGzsJ2hcTCHAe/wsyywsIa5czCpSDRwvoj1MLyHtPCVkLNwhnTzMJuN8bC7GPEwqBz&#xD;&#xa;x8Je583CrvbSwkRK0MKUDcjCJCDAwoAHvcIajrvCcIXAwvIeyMJOtMbC23bGwtrmzsIVBtbCzzrV&#xD;&#xa;wkvr1MKLh9PCRx7Wwh2V38KbYeDCQSDiwn+Z4MLHVNvCgH7Zwkx118I4+NXCSfvYwjSL18ILf9PC&#xD;&#xa;trPPwtqDz8JYXtHCpJ3JwmJoxsK0ycnC3f3LwnibyMIDMsfCKLDNwgLc08LXCtPCMiPQwnwUzcIZ&#xD;&#xa;asPC8InBwqyuxsKy38nCbAXKwhplyMLEEcbC0A/GwooRzsJ2wtbC6HbTws6HzcLciczCtmXJwkDz&#xD;&#xa;ysKbo87CHLbMwmJfyMLmOcfC1DPFwsByycKZF8nCfZbGwtyhx8JOO83CAj/JwmK7yMLeGM7Cz5DP&#xD;&#xa;wroSx8I2GMjCOBPJwgQixcKc6sjCBCTNwn2VycJI/MbCTFTGwtBRx8Ijt8jCGLfIwncgyMLQW8jC&#xD;&#xa;RjjKwsKCyML2IMjCqlrHwqfaxsJB0MbCwxvOwrMs0MJcnc3CnzbFwqCzwMLEaL7Chky/wj3KxcL8&#xD;&#xa;J8rCYu3Jwnw0y8LkUM7Cyj/LwkbTx8J0yMnCfpPQwqK82MIOm9nCArbawgE93MK6NOHCpZDdws13&#xD;&#xa;2MKgNNXCfcHUwsBm2cImPtrCLPzPwprKzcJrttTCpsjTwtc/x8KBvcTCiWbHwnq3x8JEPMPCdi/E&#xD;&#xa;wqEGysJYOc7CngXPwsYv0MLYncrCQDrEwqoVxML448TCVqbIwkoBx8JM3sjCRPXFwsqOycLSQ83C&#xD;&#xa;lDvMwqAuyMI1R8nCcnTLwqKpycLy4szCGHzMwnp0ycKccMjCsA/Iwr6sx8JylsrChCjIwmj/x8KG&#xD;&#xa;4s3CcHfPwrDDycIO+MrCb0DOwgRczcIWncjCjuHMwn5tysLnRMjCADXKwlzeysKl7MnCOEjLwm1t&#xD;&#xa;x8KnHMrCaITMwt5IzcJA28jC5jbKwlb6ycKKYMrCzu3Gwu8wxsKMYMTClR/HwjpwzsK1stHCWFjO&#xD;&#xa;woZByMJOvMXCbrLAwph4w8INnMjCBqXGwgSByMJtxMzCTILOwvr/ycJYzMnCKVjRwpgY28JWZdzC&#xD;&#xa;hEvTwloA0sKbKNTCqHbhwt1afcKpp0TCUUw4wkmjMsImIUPCojFFwo1QQMI9CETC0xpJwrh7R8I0&#xD;&#xa;KkvCOIlZwj46YsJLcW3Csad5wq5YgcJ6JIjCoOeNwjnKjsIb347C0zyIwkvHgML+0X/CXfeCwqjN&#xD;&#xa;gMLdwIHCR9mEwjmsi8JKb5DCWoyTwn5XmcLoEaHCYl+lwlEXosK6nZjC/VWTwjiEkcIgc5PCXFuY&#xD;&#xa;wrv+kcIgfI7CzeeOwjKBisIFpITC3FuFwhYri8KRmYnChxqLwoHljcL5447CdzqNwsKPjMJnP5DC&#xD;&#xa;L1yWwvAYlMJnoJbCtuuYwv6il8J5spnCPzuYwtkNmcLzVJfChECdwhMapcJ7hqTCyL6hwohSm8JA&#xD;&#xa;E5rCogmYwnTymcKcz5fCiOmWwsjdmcIiKZ7C15+lwg6Kp8LybaXCINGewspxnsJQsJzCzBmZwrGL&#xD;&#xa;lcJFRo7CE5iLwgx2kcKkPZPC0TyLwpBuhMIYRIjCtFiXwpZ9nsJ5q5fCdHCYwrj2mMK8jZjC88qb&#xD;&#xa;wpCPoMIGl5/CkDaZwox/k8JqKY/CjE+Rwu6mksLDn5LCr62Xwsh/n8ILNJ3CYD6Zwi62k8I2647C&#xD;&#xa;uk2UwuTPnsLuuZ/CadmawgN0mMJAlZjCZqqUwtGblsIl/53CSCSWwoGiksKcbZjCPaCdwokMoMKO&#xD;&#xa;I5rCmoKTwvaHksJYopLCWqiSwiqQlMLyopvCHXycwjQck8IIAI7CPDaLwi2licJti43CQNaTwlzC&#xD;&#xa;mMKjv6TCpJerwmw3qsKJp6HCOW+gwooTpcIiSqrCTbCuwrDZtcJsIa7CdjmiwqBUnMJr5Z/CGF2g&#xD;&#xa;wvKrncKS8aDCGsekwiairMJoK6nC/OSpwlZ2psJ2sKHCXPafwqGqosJEB6bCQ8WuwvZ3s8IYfbTC&#xD;&#xa;l6a1whLzssJ246/CYEuvwsXTqcJmvarCwkWtwq6LqsKpT6jCaaeqwo3aosJV3ZzCrA2gwsdmrMKD&#xD;&#xa;HLHCdBCywtBIrMKqV6nC3WyswhgyrsI3h7PCdVK5wuXatcJoLbLCoM6vwuOxqcIIjqnCXMitwg20&#xD;&#xa;qcLtg6rChB2ywqeKtsJK6q/CqWCnwpmzqMINhazCFRKrwmE+r8J+A7XCIrW1wqaorMLDVKjCOsWp&#xD;&#xa;wi4Vr8JOsK7Cuymwwtjht8K2ebnCCzKzwnzqrcJqTbDC7vizwgcdtcLP2LLCPVW4ws9ut8LnbqzC&#xD;&#xa;Vpuqws8gsMLGra/CJMCywncFuMKrn8DCgwHGwrROzMKpn8/CBlnMwneSyMLYjsnCpgzMwq4Ux8LQ&#xD;&#xa;L8XCyaTHwp6Sx8Lt18bCs37Cwh9NwMK6BsXC9DvJwmQyxsKbl8jCOiTNwlrazsIiYcjCdP/Awjba&#xD;&#xa;v8J0UMTC0BjNwkiKz8Jg7c/CPgnUwhwJ1cLED8/CfibPwrJmzcI3dcbCUCHIwuvRysIwmMrCGWbH&#xD;&#xa;wpasx8JW98PCHJPGwoeezMI4oc3CDz3RwsUu0sJwYs3CJBzNwo2ozsJEZtLCvFzUwrqn0sIjtNDC&#xD;&#xa;krDPwkzgzMKS7sjCQK/HwhgvysIqRsnCtAXMwt/Az8KMytTCZD/UwiyMz8KCWdDCFkrOwlNDz8Lc&#xD;&#xa;S9PCcqLUwuoyzsLuncTCHfO+wl2SwsItTszCHKjQwm7s08KfN9PCMrDNwkhEzcKgdcbCDsnEwpyk&#xD;&#xa;x8L42c3CVoPSwv/4z8J0AMjCxBrAwpkUvcKEk7vCZorAwrhUyMKlhsbC8S/Gwvp6zsJiwNXCUKzU&#xD;&#xa;widk1MLUe9PC0J7VwnYa38K8u+DCr1njwh4G4cIexdvComrZworu1sJs+NXCeUnZwsoB2MKA9tPC&#xD;&#xa;mDLQwhYE0MIootHCFOPJwnFkxsLxbcnCLgLMwo4HycI9JMfCClnNwv7M08JCJ9PCC1vQwmTbzMI+&#xD;&#xa;PMPCXIPBwgjgxsJXFMrCr0LKwmR4yML868XCQL/Fwor8zcKI69bCzgTTwqBpzcKeT8zCxHPJwvFq&#xD;&#xa;y8JEns7C9qnMwrabyMJrgMfCmmLFwkSPycLg5MjCxHTGwvC3x8J6Nc3Ciq3IwqliyMJqys3CNFfP&#xD;&#xa;wrjkxsLw88fCAv7IwlwJxcJMm8jCNFbNwpXXycK2IMfC9YzGwtZix8J21MjCXMrIwpJJyMJUZMjC&#xD;&#xa;KADKwupQyMKiCsjCSF7Hwli5xsImY8bCV8DNwuabz8JyLs3CHBjFwlyhwMLpL77CXSC/ws6dxcIg&#xD;&#xa;BcrCRfzJwroyy8K6HM/CXKLLwhC0x8I6scnCKtfQwgzL2cL1utnCQizawrLn28LkcODCKrvcwsJr&#xD;&#xa;2MLv0NXCAK7UwqwH2cJAYNnCSnnPwqCgzcLcz9TCruDTwt1xx8Kc2sTCOpzHwknQx8ICZsPCQeXD&#xD;&#xa;wnIBysJrYc7CnAzPwhYj0MJVRcrCLgPEwhsMxMIwO8XC79fIwo4vx8Jm0MjCnKXFwmYTycLtIM3C&#xD;&#xa;1S3Mwp/3x8JAU8nCNzHLwnZnycKKpMzCjU/MwsZ+ycI1cMjCPB3Iwuyyx8JVu8rCM2/IwvM9yMJq&#xD;&#xa;Ds7C7mnPwrGdycLm18rCWNbNwkgszcKDnsjCscrMwvxWysLoSsjCCoXKwoAiy8IRDsrC1DjLwkxX&#xD;&#xa;x8Jv/cnCP8LMwikmzcJeA8nCH3PKwlA7ysLCZcrCoCnHwuVjxsKhfcTCHI7HwqprzsISldHCOBTO&#xD;&#xa;wgzXx8LarMXCwLTAwk6lw8LtuMjCGJnGwqlcyMIUnMzCE7LOwnkMysKiy8nCEjHRwm2m2sLlZtzC&#xD;&#xa;MubTwiVq0sJEt9TCDu7h" leadInLength="0/1"  />
             </Keyframes>
            </Parameter>
            </Parameters>
            <MetaData>
             <entry key="effectIndex" val="1"/>
            </MetaData>
           </GenericEffect>
          </Effects>
          <Attributes>
           <Attribute id="746" value="" name="ident"/>
           <Attribute id="747" value="44100" name="sampleRate"/>
           <Attribute id="748" value="16" name="bitDepth"/>
           <Attribute id="749" value="1" name="gain"/>
           <Attribute id="750" value="1" name="mixToMono"/>
          </Attributes>
         </AMFile>
         <VMFile id="751" start="2959" duration="241" scalar="241/222" mediaStart="3169/1" mediaDuration="222/1" trackNumber="0" src="21" >
          <Transformer>
           <VectorParam id="752"  name="translation">
            <InterpolatingParam id="753" interp="linr"  time="-9999999/1" value="0" leadInLength="0/1"  />
            <InterpolatingParam id="754" interp="linr"  time="-9999999/1" value="0" leadInLength="0/1"  />
            <InterpolatingParam id="755" interp="linr"  time="-9999999/1" value="0" leadInLength="0/1"  />
           </VectorParam>
           <VectorParam id="756"  name="rotation">
            <InterpolatingParam id="757" interp="linr"  time="-9999999/1" value="0" leadInLength="0/1"  />
            <InterpolatingParam id="758" interp="linr"  time="-9999999/1" value="0" leadInLength="0/1"  />
            <InterpolatingParam id="759" interp="linr"  time="-9999999/1" value="0" leadInLength="0/1"  />
           </VectorParam>
           <VectorParam id="760"  name="shear">
            <InterpolatingParam id="761" interp="linr"  time="-9999999/1" value="0" leadInLength="0/1"  />
            <InterpolatingParam id="762" interp="linr"  time="-9999999/1" value="0" leadInLength="0/1"  />
            <InterpolatingParam id="763" interp="linr"  time="-9999999/1" value="0" leadInLength="0/1"  />
           </VectorParam>
           <VectorParam id="764"  name="scale">
            <InterpolatingParam id="765" interp="linr"  time="-9999999/1" value="1" leadInLength="0/1"  />
            <InterpolatingParam id="766" interp="linr"  time="-9999999/1" value="1" leadInLength="0/1"  />
            <InterpolatingParam id="767" interp="linr"  time="-9999999/1" value="1" leadInLength="0/1"  />
           </VectorParam>
           <VectorParam id="768"  name="anchor">
            <InterpolatingParam id="769" interp="linr"  time="0/1" value="0" leadInLength="0/1"  />
            <InterpolatingParam id="770" interp="linr"  time="0/1" value="0" leadInLength="0/1"  />
            <InterpolatingParam id="771" interp="linr"  time="0/1" value="0" leadInLength="0/1"  />
           </VectorParam>
          </Transformer>
          <Parameters>
           <VectorParam id="772"  name="sourceCrop">
            <InterpolatingParam id="773" interp="linr"  time="0/1" value="0" leadInLength="0/1"  />
            <InterpolatingParam id="774" interp="linr"  time="0/1" value="0" leadInLength="0/1"  />
            <InterpolatingParam id="775" interp="linr"  time="0/1" value="0" leadInLength="0/1"  />
            <InterpolatingParam id="776" interp="linr"  time="0/1" value="0" leadInLength="0/1"  />
           </VectorParam>
           <VectorParam id="777"  name="geometryCrop">
            <InterpolatingParam id="778" interp="linr"  time="-9999999/1" value="0" leadInLength="0/1"  />
            <InterpolatingParam id="779" interp="linr"  time="-9999999/1" value="0" leadInLength="0/1"  />
            <InterpolatingParam id="780" interp="linr"  time="-9999999/1" value="0" leadInLength="0/1"  />
            <InterpolatingParam id="781" interp="linr"  time="-9999999/1" value="0" leadInLength="0/1"  />
           </VectorParam>
           <InterpolatingParam id="782" interp="linr"  time="-9999999/1" value="1" leadInLength="0/1"  name="opacity"/>
          </Parameters>
          <Attributes>
           <Attribute id="783" value="" name="ident"/>
          </Attributes>
          <ExtraData>
           <Entry key="ZoomPanBin">
            <ZoomPanBin id="784"  >
             <ZoomPanKeyframes>
              <ZoomPanKeyframe id="785" timeRangeEnd="-9999999/1" timeRangeDuration="0/1" interpolaterName="linr"  />
             </ZoomPanKeyframes>
            </ZoomPanBin>
           </Entry>
          </ExtraData>
         </VMFile>
         <MetaData>
          <entry key="WinSubProjectDisplayName" val=""/>
         </MetaData>
        </UnifiedMedia>
        <UnifiedMedia id="786"  >
         <AMFile id="787" start="3200" duration="322" scalar="1/1" mediaStart="3391/1" mediaDuration="322/1" trackNumber="1" src="21" channelNumber="0,1" >
          <Parameters>
           <InterpolatingParam id="788" interp="linr"  name="volume">
            <Keyframes>
            <Keyframe id="789"  time="-1/1" value="1" leadInLength="0/1"  />
            <Keyframe id="790"  time="0/1" value="0" leadInLength="0/1"  />
            <Keyframe id="791"  time="8952/1" value="0" leadInLength="0/1"  />
            <Keyframe id="792"  time="8953/1" value="1" leadInLength="0/1"  />
            </Keyframes>
           </InterpolatingParam>
           <Parameter id="793"  name="captions"/>
          </Parameters>
          <Attributes>
           <Attribute id="794" value="" name="ident"/>
           <Attribute id="795" value="44100" name="sampleRate"/>
           <Attribute id="796" value="16" name="bitDepth"/>
           <Attribute id="797" value="1" name="gain"/>
           <Attribute id="798" value="0" name="mixToMono"/>
          </Attributes>
         </AMFile>
         <VMFile id="799" start="3200" duration="322" scalar="1/1" mediaStart="3391/1" mediaDuration="322/1" trackNumber="0" src="21" >
          <Transformer>
           <VectorParam id="800"  name="translation">
            <InterpolatingParam id="801" interp="linr"  time="-9999999/1" value="0" leadInLength="0/1"  />
            <InterpolatingParam id="802" interp="linr"  time="-9999999/1" value="0" leadInLength="0/1"  />
            <InterpolatingParam id="803" interp="linr"  time="-9999999/1" value="0" leadInLength="0/1"  />
           </VectorParam>
           <VectorParam id="804"  name="rotation">
            <InterpolatingParam id="805" interp="linr"  time="-9999999/1" value="0" leadInLength="0/1"  />
            <InterpolatingParam id="806" interp="linr"  time="-9999999/1" value="0" leadInLength="0/1"  />
            <InterpolatingParam id="807" interp="linr"  time="-9999999/1" value="0" leadInLength="0/1"  />
           </VectorParam>
           <VectorParam id="808"  name="shear">
            <InterpolatingParam id="809" interp="linr"  time="-9999999/1" value="0" leadInLength="0/1"  />
            <InterpolatingParam id="810" interp="linr"  time="-9999999/1" value="0" leadInLength="0/1"  />
            <InterpolatingParam id="811" interp="linr"  time="-9999999/1" value="0" leadInLength="0/1"  />
           </VectorParam>
           <VectorParam id="812"  name="scale">
            <InterpolatingParam id="813" interp="linr"  time="-9999999/1" value="1" leadInLength="0/1"  />
            <InterpolatingParam id="814" interp="linr"  time="-9999999/1" value="1" leadInLength="0/1"  />
            <InterpolatingParam id="815" interp="linr"  time="-9999999/1" value="1" leadInLength="0/1"  />
           </VectorParam>
           <VectorParam id="816"  name="anchor">
            <InterpolatingParam id="817" interp="linr"  time="0/1" value="0" leadInLength="0/1"  />
            <InterpolatingParam id="818" interp="linr"  time="0/1" value="0" leadInLength="0/1"  />
            <InterpolatingParam id="819" interp="linr"  time="0/1" value="0" leadInLength="0/1"  />
           </VectorParam>
          </Transformer>
          <Parameters>
           <VectorParam id="820"  name="sourceCrop">
            <InterpolatingParam id="821" interp="linr"  time="0/1" value="0" leadInLength="0/1"  />
            <InterpolatingParam id="822" interp="linr"  time="0/1" value="0" leadInLength="0/1"  />
            <InterpolatingParam id="823" interp="linr"  time="0/1" value="0" leadInLength="0/1"  />
            <InterpolatingParam id="824" interp="linr"  time="0/1" value="0" leadInLength="0/1"  />
           </VectorParam>
           <VectorParam id="825"  name="geometryCrop">
            <InterpolatingParam id="826" interp="linr"  time="-9999999/1" value="0" leadInLength="0/1"  />
            <InterpolatingParam id="827" interp="linr"  time="-9999999/1" value="0" leadInLength="0/1"  />
            <InterpolatingParam id="828" interp="linr"  time="-9999999/1" value="0" leadInLength="0/1"  />
            <InterpolatingParam id="829" interp="linr"  time="-9999999/1" value="0" leadInLength="0/1"  />
           </VectorParam>
           <InterpolatingParam id="830" interp="linr"  time="-9999999/1" value="1" leadInLength="0/1"  name="opacity"/>
          </Parameters>
          <Attributes>
           <Attribute id="831" value="" name="ident"/>
          </Attributes>
          <ExtraData>
           <Entry key="ZoomPanBin">
            <ZoomPanBin id="832"  >
             <ZoomPanKeyframes>
              <ZoomPanKeyframe id="833" timeRangeEnd="-9999999/1" timeRangeDuration="0/1" interpolaterName="linr"  />
             </ZoomPanKeyframes>
            </ZoomPanBin>
           </Entry>
          </ExtraData>
         </VMFile>
         <MetaData>
          <entry key="WinSubProjectDisplayName" val=""/>
         </MetaData>
        </UnifiedMedia>
        <UnifiedMedia id="834"  >
         <AMFile id="835" start="3522" duration="95" scalar="1/1" mediaStart="3742/1" mediaDuration="95/1" trackNumber="1" src="21" channelNumber="0,1" >
          <Parameters>
           <InterpolatingParam id="836" interp="linr"  name="volume">
            <Keyframes>
            <Keyframe id="837"  time="-1/1" value="1" leadInLength="0/1"  />
            <Keyframe id="838"  time="0/1" value="0" leadInLength="0/1"  />
            <Keyframe id="839"  time="8952/1" value="0" leadInLength="0/1"  />
            <Keyframe id="840"  time="8953/1" value="1" leadInLength="0/1"  />
            </Keyframes>
           </InterpolatingParam>
           <Parameter id="841"  name="captions"/>
          </Parameters>
          <Attributes>
           <Attribute id="842" value="" name="ident"/>
           <Attribute id="843" value="44100" name="sampleRate"/>
           <Attribute id="844" value="16" name="bitDepth"/>
           <Attribute id="845" value="1" name="gain"/>
           <Attribute id="846" value="0" name="mixToMono"/>
          </Attributes>
         </AMFile>
         <VMFile id="847" start="3522" duration="95" scalar="1/1" mediaStart="3742/1" mediaDuration="95/1" trackNumber="0" src="21" >
          <Transformer>
           <VectorParam id="848"  name="translation">
            <InterpolatingParam id="849" interp="linr"  time="-9999999/1" value="0" leadInLength="0/1"  />
            <InterpolatingParam id="850" interp="linr"  time="-9999999/1" value="0" leadInLength="0/1"  />
            <InterpolatingParam id="851" interp="linr"  time="-9999999/1" value="0" leadInLength="0/1"  />
           </VectorParam>
           <VectorParam id="852"  name="rotation">
            <InterpolatingParam id="853" interp="linr"  time="-9999999/1" value="0" leadInLength="0/1"  />
            <InterpolatingParam id="854" interp="linr"  time="-9999999/1" value="0" leadInLength="0/1"  />
            <InterpolatingParam id="855" interp="linr"  time="-9999999/1" value="0" leadInLength="0/1"  />
           </VectorParam>
           <VectorParam id="856"  name="shear">
            <InterpolatingParam id="857" interp="linr"  time="-9999999/1" value="0" leadInLength="0/1"  />
            <InterpolatingParam id="858" interp="linr"  time="-9999999/1" value="0" leadInLength="0/1"  />
            <InterpolatingParam id="859" interp="linr"  time="-9999999/1" value="0" leadInLength="0/1"  />
           </VectorParam>
           <VectorParam id="860"  name="scale">
            <InterpolatingParam id="861" interp="linr"  time="-9999999/1" value="1" leadInLength="0/1"  />
            <InterpolatingParam id="862" interp="linr"  time="-9999999/1" value="1" leadInLength="0/1"  />
            <InterpolatingParam id="863" interp="linr"  time="-9999999/1" value="1" leadInLength="0/1"  />
           </VectorParam>
           <VectorParam id="864"  name="anchor">
            <InterpolatingParam id="865" interp="linr"  time="0/1" value="0" leadInLength="0/1"  />
            <InterpolatingParam id="866" interp="linr"  time="0/1" value="0" leadInLength="0/1"  />
            <InterpolatingParam id="867" interp="linr"  time="0/1" value="0" leadInLength="0/1"  />
           </VectorParam>
          </Transformer>
          <Parameters>
           <VectorParam id="868"  name="sourceCrop">
            <InterpolatingParam id="869" interp="linr"  time="0/1" value="0" leadInLength="0/1"  />
            <InterpolatingParam id="870" interp="linr"  time="0/1" value="0" leadInLength="0/1"  />
            <InterpolatingParam id="871" interp="linr"  time="0/1" value="0" leadInLength="0/1"  />
            <InterpolatingParam id="872" interp="linr"  time="0/1" value="0" leadInLength="0/1"  />
           </VectorParam>
           <VectorParam id="873"  name="geometryCrop">
            <InterpolatingParam id="874" interp="linr"  time="-9999999/1" value="0" leadInLength="0/1"  />
            <InterpolatingParam id="875" interp="linr"  time="-9999999/1" value="0" leadInLength="0/1"  />
            <InterpolatingParam id="876" interp="linr"  time="-9999999/1" value="0" leadInLength="0/1"  />
            <InterpolatingParam id="877" interp="linr"  time="-9999999/1" value="0" leadInLength="0/1"  />
           </VectorParam>
           <InterpolatingParam id="878" interp="linr"  time="-9999999/1" value="1" leadInLength="0/1"  name="opacity"/>
          </Parameters>
          <Attributes>
           <Attribute id="879" value="" name="ident"/>
          </Attributes>
          <ExtraData>
           <Entry key="ZoomPanBin">
            <ZoomPanBin id="880"  >
             <ZoomPanKeyframes>
              <ZoomPanKeyframe id="881" timeRangeEnd="-9999999/1" timeRangeDuration="0/1" interpolaterName="linr"  />
             </ZoomPanKeyframes>
            </ZoomPanBin>
           </Entry>
          </ExtraData>
         </VMFile>
         <MetaData>
          <entry key="WinSubProjectDisplayName" val=""/>
         </MetaData>
        </UnifiedMedia>
        <StitchedMedia id="882" start="3617" duration="607" scalar="3471626633/4396989099" mediaStart="19216566/4969" mediaDuration="4396989099/5719319" minMediaStart="0/1" >
         <Transformer>
          <VectorParam id="883"  name="translation">
           <InterpolatingParam id="884" interp="linr"  time="-9999999/1" value="-1.1365908214601266e-011" leadInLength="0/1"  />
           <InterpolatingParam id="885" interp="linr"  time="-9999999/1" value="2.6432189770275727e-011" leadInLength="0/1"  />
           <InterpolatingParam id="886" interp="linr"  time="-9999999/1" value="0" leadInLength="0/1"  />
          </VectorParam>
          <VectorParam id="887"  name="rotation">
           <InterpolatingParam id="888" interp="linr"  time="-9999999/1" value="0" leadInLength="0/1"  />
           <InterpolatingParam id="889" interp="linr"  time="-9999999/1" value="0" leadInLength="0/1"  />
           <InterpolatingParam id="890" interp="linr"  time="-9999999/1" value="0" leadInLength="0/1"  />
          </VectorParam>
          <VectorParam id="891"  name="shear">
           <InterpolatingParam id="892" interp="linr"  time="-9999999/1" value="0" leadInLength="0/1"  />
           <InterpolatingParam id="893" interp="linr"  time="-9999999/1" value="0" leadInLength="0/1"  />
           <InterpolatingParam id="894" interp="linr"  time="-9999999/1" value="0" leadInLength="0/1"  />
          </VectorParam>
          <VectorParam id="895"  name="scale">
           <InterpolatingParam id="896" interp="linr"  time="-9999999/1" value="1" leadInLength="0/1"  />
           <InterpolatingParam id="897" interp="linr"  time="-9999999/1" value="1" leadInLength="0/1"  />
           <InterpolatingParam id="898" interp="linr"  time="-9999999/1" value="1" leadInLength="0/1"  />
          </VectorParam>
          <VectorParam id="899"  name="anchor">
           <InterpolatingParam id="900" interp="linr"  >
            <Keyframes>
            <Keyframe id="901"  time="0/1" value="0" leadInLength="0/1"  />
            <Keyframe id="902"  time="4924/1" value="0" leadInLength="0/1"  />
            </Keyframes>
           </InterpolatingParam>
           <InterpolatingParam id="903" interp="linr"  >
            <Keyframes>
            <Keyframe id="904"  time="0/1" value="0" leadInLength="0/1"  />
            <Keyframe id="905"  time="4924/1" value="0" leadInLength="0/1"  />
            </Keyframes>
           </InterpolatingParam>
           <InterpolatingParam id="906" interp="linr"  >
            <Keyframes>
            <Keyframe id="907"  time="0/1" value="0" leadInLength="0/1"  />
            <Keyframe id="908"  time="4924/1" value="0" leadInLength="0/1"  />
            </Keyframes>
           </InterpolatingParam>
          </VectorParam>
         </Transformer>
         <Parameters>
          <VectorParam id="909"  name="sourceCrop">
           <InterpolatingParam id="910" interp="linr"  >
            <Keyframes>
            <Keyframe id="911"  time="0/1" value="0" leadInLength="0/1"  />
            <Keyframe id="912"  time="4924/1" value="0" leadInLength="0/1"  />
            </Keyframes>
           </InterpolatingParam>
           <InterpolatingParam id="913" interp="linr"  >
            <Keyframes>
            <Keyframe id="914"  time="0/1" value="0" leadInLength="0/1"  />
            <Keyframe id="915"  time="4924/1" value="0" leadInLength="0/1"  />
            </Keyframes>
           </InterpolatingParam>
           <InterpolatingParam id="916" interp="linr"  >
            <Keyframes>
            <Keyframe id="917"  time="0/1" value="0" leadInLength="0/1"  />
            <Keyframe id="918"  time="4924/1" value="0" leadInLength="0/1"  />
            </Keyframes>
           </InterpolatingParam>
           <InterpolatingParam id="919" interp="linr"  >
            <Keyframes>
            <Keyframe id="920"  time="0/1" value="0" leadInLength="0/1"  />
            <Keyframe id="921"  time="4924/1" value="0" leadInLength="0/1"  />
            </Keyframes>
           </InterpolatingParam>
          </VectorParam>
          <VectorParam id="922"  name="geometryCrop">
           <InterpolatingParam id="923" interp="linr"  time="-9999999/1" value="0" leadInLength="0/1"  />
           <InterpolatingParam id="924" interp="linr"  time="-9999999/1" value="0" leadInLength="0/1"  />
           <InterpolatingParam id="925" interp="linr"  time="-9999999/1" value="0" leadInLength="0/1"  />
           <InterpolatingParam id="926" interp="linr"  time="-9999999/1" value="0" leadInLength="0/1"  />
          </VectorParam>
          <InterpolatingParam id="927" interp="linr"  time="-9999999/1" value="1" leadInLength="0/1"  name="opacity"/>
          <InterpolatingParam id="928" interp="linr"  time="0/1" value="1" leadInLength="0/1"  name="cursorOpacity"/>
          <InterpolatingParam id="929" interp="linr"  time="0/1" value="1" leadInLength="0/1"  name="cursorScale"/>
          <InterpolatingParam id="930" interp="linr"  name="volume">
           <Keyframes>
           <Keyframe id="931"  time="-1/1" value="1" leadInLength="0/1"  />
           <Keyframe id="932"  time="0/1" value="0" leadInLength="0/1"  />
           <Keyframe id="933"  time="46313324/5123" value="0" leadInLength="0/1"  />
           <Keyframe id="934"  time="46318447/5123" value="1" leadInLength="0/1"  />
           </Keyframes>
          </InterpolatingParam>
          <Parameter id="935"  name="captions"/>
         </Parameters>
         <Attributes>
          <Attribute id="936" value="" name="ident"/>
          <Attribute id="937" value="0" name="mixToMono"/>
         </Attributes>
         <MetaData>
          <entry key="WinSubProjectDisplayName" val=""/>
         </MetaData>
         <ExtraData>
          <Entry key="ZoomPanBin">
           <ZoomPanBin id="938"  >
            <ZoomPanKeyframes>
             <ZoomPanKeyframe id="939" timeRangeEnd="-9999999/1" timeRangeDuration="0/1" interpolaterName="linr"  />
            </ZoomPanKeyframes>
           </ZoomPanBin>
          </Entry>
          <Entry key="CursorEffectBin">
           <CursorEffectBin id="940"  >
            <CursorEffectKeyframes>
            </CursorEffectKeyframes>
           </CursorEffectBin>
          </Entry>
         </ExtraData>
         <GenericTrack id="941"  >
          <Attributes>
           <Attribute id="942" value="" name="ident"/>
           <Attribute id="943" value="0" name="audioMuted"/>
           <Attribute id="944" value="0" name="videoHidden"/>
          </Attributes>
          <MetaData>
           <entry key="IsLocked" val="False"/>
           <entry key="WinTrackHeight" val="0"/>
          </MetaData>
          <Medias>
           <UnifiedMedia id="945"  >
            <AMFile id="946" start="0" duration="4924" scalar="1/1" mediaStart="0/1" mediaDuration="4924/1" trackNumber="1" src="21" channelNumber="0,1" >
             <Parameters>
              <InterpolatingParam id="947" interp="linr"  time="0/1" value="1" leadInLength="0/1"  name="volume"/>
              <Parameter id="948"  name="captions"/>
             </Parameters>
             <Attributes>
              <Attribute id="949" value="" name="ident"/>
              <Attribute id="950" value="44100" name="sampleRate"/>
              <Attribute id="951" value="16" name="bitDepth"/>
              <Attribute id="952" value="1" name="gain"/>
              <Attribute id="953" value="0" name="mixToMono"/>
             </Attributes>
            </AMFile>
            <VMFile id="954" start="0" duration="4924" scalar="1/1" mediaStart="0/1" mediaDuration="4924/1" trackNumber="0" src="21" >
             <Transformer>
              <VectorParam id="955"  name="translation">
               <InterpolatingParam id="956" interp="linr"  time="-9999999/1" value="0" leadInLength="0/1"  />
               <InterpolatingParam id="957" interp="linr"  time="-9999999/1" value="0" leadInLength="0/1"  />
               <InterpolatingParam id="958" interp="linr"  time="-9999999/1" value="0" leadInLength="0/1"  />
              </VectorParam>
              <VectorParam id="959"  name="rotation">
               <InterpolatingParam id="960" interp="linr"  time="-9999999/1" value="0" leadInLength="0/1"  />
               <InterpolatingParam id="961" interp="linr"  time="-9999999/1" value="0" leadInLength="0/1"  />
               <InterpolatingParam id="962" interp="linr"  time="-9999999/1" value="0" leadInLength="0/1"  />
              </VectorParam>
              <VectorParam id="963"  name="shear">
               <InterpolatingParam id="964" interp="linr"  time="-9999999/1" value="0" leadInLength="0/1"  />
               <InterpolatingParam id="965" interp="linr"  time="-9999999/1" value="0" leadInLength="0/1"  />
               <InterpolatingParam id="966" interp="linr"  time="-9999999/1" value="0" leadInLength="0/1"  />
              </VectorParam>
              <VectorParam id="967"  name="scale">
               <InterpolatingParam id="968" interp="linr"  time="-9999999/1" value="1" leadInLength="0/1"  />
               <InterpolatingParam id="969" interp="linr"  time="-9999999/1" value="1" leadInLength="0/1"  />
               <InterpolatingParam id="970" interp="linr"  time="-9999999/1" value="1" leadInLength="0/1"  />
              </VectorParam>
              <VectorParam id="971"  name="anchor">
               <InterpolatingParam id="972" interp="linr"  time="0/1" value="0" leadInLength="0/1"  />
               <InterpolatingParam id="973" interp="linr"  time="0/1" value="0" leadInLength="0/1"  />
               <InterpolatingParam id="974" interp="linr"  time="0/1" value="0" leadInLength="0/1"  />
              </VectorParam>
             </Transformer>
             <Parameters>
              <VectorParam id="975"  name="sourceCrop">
               <InterpolatingParam id="976" interp="linr"  time="0/1" value="0" leadInLength="0/1"  />
               <InterpolatingParam id="977" interp="linr"  time="0/1" value="0" leadInLength="0/1"  />
               <InterpolatingParam id="978" interp="linr"  time="0/1" value="0" leadInLength="0/1"  />
               <InterpolatingParam id="979" interp="linr"  time="0/1" value="0" leadInLength="0/1"  />
              </VectorParam>
              <VectorParam id="980"  name="geometryCrop">
               <InterpolatingParam id="981" interp="linr"  time="-9999999/1" value="0" leadInLength="0/1"  />
               <InterpolatingParam id="982" interp="linr"  time="-9999999/1" value="0" leadInLength="0/1"  />
               <InterpolatingParam id="983" interp="linr"  time="-9999999/1" value="0" leadInLength="0/1"  />
               <InterpolatingParam id="984" interp="linr"  time="-9999999/1" value="0" leadInLength="0/1"  />
              </VectorParam>
              <InterpolatingParam id="985" interp="linr"  time="-9999999/1" value="1" leadInLength="0/1"  name="opacity"/>
             </Parameters>
             <Attributes>
              <Attribute id="986" value="" name="ident"/>
             </Attributes>
             <ExtraData>
              <Entry key="ZoomPanBin">
               <ZoomPanBin id="987"  >
                <ZoomPanKeyframes>
                 <ZoomPanKeyframe id="988" timeRangeEnd="-9999999/1" timeRangeDuration="0/1" interpolaterName="linr"  />
                </ZoomPanKeyframes>
               </ZoomPanBin>
              </Entry>
             </ExtraData>
            </VMFile>
            <MetaData>
             <entry key="WinSubProjectDisplayName" val=""/>
            </MetaData>
           </UnifiedMedia>
           <IMFile id="989" start="4924" duration="90" scalar="1/1" mediaStart="4924/1" mediaDuration="1/1" trackNumber="0" src="21" trimStartSum="0/1" >
            <Transformer>
             <VectorParam id="990"  name="translation">
              <InterpolatingParam id="991" interp="linr"  time="-9999999/1" value="0" leadInLength="0/1"  />
              <InterpolatingParam id="992" interp="linr"  time="-9999999/1" value="0" leadInLength="0/1"  />
              <InterpolatingParam id="993" interp="linr"  time="-9999999/1" value="0" leadInLength="0/1"  />
             </VectorParam>
             <VectorParam id="994"  name="rotation">
              <InterpolatingParam id="995" interp="linr"  time="-9999999/1" value="0" leadInLength="0/1"  />
              <InterpolatingParam id="996" interp="linr"  time="-9999999/1" value="0" leadInLength="0/1"  />
              <InterpolatingParam id="997" interp="linr"  time="-9999999/1" value="0" leadInLength="0/1"  />
             </VectorParam>
             <VectorParam id="998"  name="shear">
              <InterpolatingParam id="999" interp="linr"  time="-9999999/1" value="0" leadInLength="0/1"  />
              <InterpolatingParam id="1000" interp="linr"  time="-9999999/1" value="0" leadInLength="0/1"  />
              <InterpolatingParam id="1001" interp="linr"  time="-9999999/1" value="0" leadInLength="0/1"  />
             </VectorParam>
             <VectorParam id="1002"  name="scale">
              <InterpolatingParam id="1003" interp="linr"  time="-9999999/1" value="1" leadInLength="0/1"  />
              <InterpolatingParam id="1004" interp="linr"  time="-9999999/1" value="1" leadInLength="0/1"  />
              <InterpolatingParam id="1005" interp="linr"  time="-9999999/1" value="1" leadInLength="0/1"  />
             </VectorParam>
             <VectorParam id="1006"  name="anchor">
              <InterpolatingParam id="1007" interp="linr"  time="0/1" value="0" leadInLength="0/1"  />
              <InterpolatingParam id="1008" interp="linr"  time="0/1" value="0" leadInLength="0/1"  />
              <InterpolatingParam id="1009" interp="linr"  time="0/1" value="0" leadInLength="0/1"  />
             </VectorParam>
            </Transformer>
            <Parameters>
             <VectorParam id="1010"  name="sourceCrop">
              <InterpolatingParam id="1011" interp="linr"  time="0/1" value="0" leadInLength="0/1"  />
              <InterpolatingParam id="1012" interp="linr"  time="0/1" value="0" leadInLength="0/1"  />
              <InterpolatingParam id="1013" interp="linr"  time="0/1" value="0" leadInLength="0/1"  />
              <InterpolatingParam id="1014" interp="linr"  time="0/1" value="0" leadInLength="0/1"  />
             </VectorParam>
             <VectorParam id="1015"  name="geometryCrop">
              <InterpolatingParam id="1016" interp="linr"  time="-9999999/1" value="0" leadInLength="0/1"  />
              <InterpolatingParam id="1017" interp="linr"  time="-9999999/1" value="0" leadInLength="0/1"  />
              <InterpolatingParam id="1018" interp="linr"  time="-9999999/1" value="0" leadInLength="0/1"  />
              <InterpolatingParam id="1019" interp="linr"  time="-9999999/1" value="0" leadInLength="0/1"  />
             </VectorParam>
             <InterpolatingParam id="1020" interp="linr"  time="-9999999/1" value="1" leadInLength="0/1"  name="opacity"/>
            </Parameters>
            <Attributes>
             <Attribute id="1021" value="" name="ident"/>
            </Attributes>
            <MetaData>
             <entry key="WinSubProjectDisplayName" val=""/>
            </MetaData>
            <ExtraData>
             <Entry key="ZoomPanBin">
              <ZoomPanBin id="1022"  >
               <ZoomPanKeyframes>
                <ZoomPanKeyframe id="1023" timeRangeEnd="-9999999/1" timeRangeDuration="0/1" interpolaterName="linr"  />
               </ZoomPanKeyframes>
              </ZoomPanBin>
             </Entry>
            </ExtraData>
           </IMFile>
           <UnifiedMedia id="1024"  >
            <AMFile id="1025" start="5014" duration="4028" scalar="1/1" mediaStart="4923/1" mediaDuration="4028/1" trackNumber="1" src="21" channelNumber="0,1" >
             <Parameters>
              <InterpolatingParam id="1026" interp="linr"  time="0/1" value="1" leadInLength="0/1"  name="volume"/>
              <Parameter id="1027"  name="captions"/>
             </Parameters>
             <Attributes>
              <Attribute id="1028" value="" name="ident"/>
              <Attribute id="1029" value="44100" name="sampleRate"/>
              <Attribute id="1030" value="16" name="bitDepth"/>
              <Attribute id="1031" value="1" name="gain"/>
              <Attribute id="1032" value="0" name="mixToMono"/>
             </Attributes>
            </AMFile>
            <VMFile id="1033" start="5014" duration="4028" scalar="1/1" mediaStart="4923/1" mediaDuration="4028/1" trackNumber="0" src="21" >
             <Transformer>
              <VectorParam id="1034"  name="translation">
               <InterpolatingParam id="1035" interp="linr"  time="-9999999/1" value="0" leadInLength="0/1"  />
               <InterpolatingParam id="1036" interp="linr"  time="-9999999/1" value="0" leadInLength="0/1"  />
               <InterpolatingParam id="1037" interp="linr"  time="-9999999/1" value="0" leadInLength="0/1"  />
              </VectorParam>
              <VectorParam id="1038"  name="rotation">
               <InterpolatingParam id="1039" interp="linr"  time="-9999999/1" value="0" leadInLength="0/1"  />
               <InterpolatingParam id="1040" interp="linr"  time="-9999999/1" value="0" leadInLength="0/1"  />
               <InterpolatingParam id="1041" interp="linr"  time="-9999999/1" value="0" leadInLength="0/1"  />
              </VectorParam>
              <VectorParam id="1042"  name="shear">
               <InterpolatingParam id="1043" interp="linr"  time="-9999999/1" value="0" leadInLength="0/1"  />
               <InterpolatingParam id="1044" interp="linr"  time="-9999999/1" value="0" leadInLength="0/1"  />
               <InterpolatingParam id="1045" interp="linr"  time="-9999999/1" value="0" leadInLength="0/1"  />
              </VectorParam>
              <VectorParam id="1046"  name="scale">
               <InterpolatingParam id="1047" interp="linr"  time="-9999999/1" value="1" leadInLength="0/1"  />
               <InterpolatingParam id="1048" interp="linr"  time="-9999999/1" value="1" leadInLength="0/1"  />
               <InterpolatingParam id="1049" interp="linr"  time="-9999999/1" value="1" leadInLength="0/1"  />
              </VectorParam>
              <VectorParam id="1050"  name="anchor">
               <InterpolatingParam id="1051" interp="linr"  time="0/1" value="0" leadInLength="0/1"  />
               <InterpolatingParam id="1052" interp="linr"  time="0/1" value="0" leadInLength="0/1"  />
               <InterpolatingParam id="1053" interp="linr"  time="0/1" value="0" leadInLength="0/1"  />
              </VectorParam>
             </Transformer>
             <Parameters>
              <VectorParam id="1054"  name="sourceCrop">
               <InterpolatingParam id="1055" interp="linr"  time="0/1" value="0" leadInLength="0/1"  />
               <InterpolatingParam id="1056" interp="linr"  time="0/1" value="0" leadInLength="0/1"  />
               <InterpolatingParam id="1057" interp="linr"  time="0/1" value="0" leadInLength="0/1"  />
               <InterpolatingParam id="1058" interp="linr"  time="0/1" value="0" leadInLength="0/1"  />
              </VectorParam>
              <VectorParam id="1059"  name="geometryCrop">
               <InterpolatingParam id="1060" interp="linr"  time="-9999999/1" value="0" leadInLength="0/1"  />
               <InterpolatingParam id="1061" interp="linr"  time="-9999999/1" value="0" leadInLength="0/1"  />
               <InterpolatingParam id="1062" interp="linr"  time="-9999999/1" value="0" leadInLength="0/1"  />
               <InterpolatingParam id="1063" interp="linr"  time="-9999999/1" value="0" leadInLength="0/1"  />
              </VectorParam>
              <InterpolatingParam id="1064" interp="linr"  time="-9999999/1" value="1" leadInLength="0/1"  name="opacity"/>
             </Parameters>
             <Attributes>
              <Attribute id="1065" value="" name="ident"/>
             </Attributes>
             <ExtraData>
              <Entry key="ZoomPanBin">
               <ZoomPanBin id="1066"  >
                <ZoomPanKeyframes>
                 <ZoomPanKeyframe id="1067" timeRangeEnd="-9999999/1" timeRangeDuration="0/1" interpolaterName="linr"  />
                </ZoomPanKeyframes>
               </ZoomPanBin>
              </Entry>
             </ExtraData>
            </VMFile>
            <MetaData>
             <entry key="WinSubProjectDisplayName" val=""/>
            </MetaData>
           </UnifiedMedia>
          </Medias>
         </GenericTrack>
        </StitchedMedia>
        <StitchedMedia id="1068" start="4224" duration="76" scalar="1555654768/1283168025" mediaStart="26515256565/5719319" mediaDuration="24380192475/388913692" minMediaStart="0/1" >
         <Transformer>
          <VectorParam id="1069"  name="translation">
           <InterpolatingParam id="1070" interp="linr"  time="-9999999/1" value="0" leadInLength="0/1"  />
           <InterpolatingParam id="1071" interp="linr"  time="-9999999/1" value="0" leadInLength="0/1"  />
           <InterpolatingParam id="1072" interp="linr"  time="-9999999/1" value="0" leadInLength="0/1"  />
          </VectorParam>
          <VectorParam id="1073"  name="rotation">
           <InterpolatingParam id="1074" interp="linr"  time="-9999999/1" value="0" leadInLength="0/1"  />
           <InterpolatingParam id="1075" interp="linr"  time="-9999999/1" value="0" leadInLength="0/1"  />
           <InterpolatingParam id="1076" interp="linr"  time="-9999999/1" value="0" leadInLength="0/1"  />
          </VectorParam>
          <VectorParam id="1077"  name="shear">
           <InterpolatingParam id="1078" interp="linr"  time="-9999999/1" value="0" leadInLength="0/1"  />
           <InterpolatingParam id="1079" interp="linr"  time="-9999999/1" value="0" leadInLength="0/1"  />
           <InterpolatingParam id="1080" interp="linr"  time="-9999999/1" value="0" leadInLength="0/1"  />
          </VectorParam>
          <VectorParam id="1081"  name="scale">
           <InterpolatingParam id="1082" interp="linr"  time="-9999999/1" value="1" leadInLength="0/1"  />
           <InterpolatingParam id="1083" interp="linr"  time="-9999999/1" value="1" leadInLength="0/1"  />
           <InterpolatingParam id="1084" interp="linr"  time="-9999999/1" value="1" leadInLength="0/1"  />
          </VectorParam>
          <VectorParam id="1085"  name="anchor">
           <InterpolatingParam id="1086" interp="linr"  >
            <Keyframes>
            <Keyframe id="1087"  time="0/1" value="0" leadInLength="0/1"  />
            <Keyframe id="1088"  time="4924/1" value="0" leadInLength="0/1"  />
            </Keyframes>
           </InterpolatingParam>
           <InterpolatingParam id="1089" interp="linr"  >
            <Keyframes>
            <Keyframe id="1090"  time="0/1" value="0" leadInLength="0/1"  />
            <Keyframe id="1091"  time="4924/1" value="0" leadInLength="0/1"  />
            </Keyframes>
           </InterpolatingParam>
           <InterpolatingParam id="1092" interp="linr"  >
            <Keyframes>
            <Keyframe id="1093"  time="0/1" value="0" leadInLength="0/1"  />
            <Keyframe id="1094"  time="4924/1" value="0" leadInLength="0/1"  />
            </Keyframes>
           </InterpolatingParam>
          </VectorParam>
         </Transformer>
         <Parameters>
          <VectorParam id="1095"  name="sourceCrop">
           <InterpolatingParam id="1096" interp="linr"  >
            <Keyframes>
            <Keyframe id="1097"  time="0/1" value="0" leadInLength="0/1"  />
            <Keyframe id="1098"  time="4924/1" value="0" leadInLength="0/1"  />
            </Keyframes>
           </InterpolatingParam>
           <InterpolatingParam id="1099" interp="linr"  >
            <Keyframes>
            <Keyframe id="1100"  time="0/1" value="0" leadInLength="0/1"  />
            <Keyframe id="1101"  time="4924/1" value="0" leadInLength="0/1"  />
            </Keyframes>
           </InterpolatingParam>
           <InterpolatingParam id="1102" interp="linr"  >
            <Keyframes>
            <Keyframe id="1103"  time="0/1" value="0" leadInLength="0/1"  />
            <Keyframe id="1104"  time="4924/1" value="0" leadInLength="0/1"  />
            </Keyframes>
           </InterpolatingParam>
           <InterpolatingParam id="1105" interp="linr"  >
            <Keyframes>
            <Keyframe id="1106"  time="0/1" value="0" leadInLength="0/1"  />
            <Keyframe id="1107"  time="4924/1" value="0" leadInLength="0/1"  />
            </Keyframes>
           </InterpolatingParam>
          </VectorParam>
          <VectorParam id="1108"  name="geometryCrop">
           <InterpolatingParam id="1109" interp="linr"  time="-9999999/1" value="0" leadInLength="0/1"  />
           <InterpolatingParam id="1110" interp="linr"  time="-9999999/1" value="0" leadInLength="0/1"  />
           <InterpolatingParam id="1111" interp="linr"  time="-9999999/1" value="0" leadInLength="0/1"  />
           <InterpolatingParam id="1112" interp="linr"  time="-9999999/1" value="0" leadInLength="0/1"  />
          </VectorParam>
          <InterpolatingParam id="1113" interp="linr"  time="-9999999/1" value="1" leadInLength="0/1"  name="opacity"/>
          <InterpolatingParam id="1114" interp="linr"  time="0/1" value="1" leadInLength="0/1"  name="cursorOpacity"/>
          <InterpolatingParam id="1115" interp="linr"  time="0/1" value="1" leadInLength="0/1"  name="cursorScale"/>
          <InterpolatingParam id="1116" interp="linr"  name="volume">
           <Keyframes>
           <Keyframe id="1117"  time="-1/1" value="1" leadInLength="0/1"  />
           <Keyframe id="1118"  time="0/1" value="0" leadInLength="0/1"  />
           <Keyframe id="1119"  time="46313324/5123" value="0" leadInLength="0/1"  />
           <Keyframe id="1120"  time="46318447/5123" value="1" leadInLength="0/1"  />
           </Keyframes>
          </InterpolatingParam>
          <Parameter id="1121"  name="captions"/>
         </Parameters>
         <Attributes>
          <Attribute id="1122" value="" name="ident"/>
          <Attribute id="1123" value="0" name="mixToMono"/>
         </Attributes>
         <MetaData>
          <entry key="WinSubProjectDisplayName" val=""/>
         </MetaData>
         <ExtraData>
          <Entry key="ZoomPanBin">
           <ZoomPanBin id="1124"  >
            <ZoomPanKeyframes>
             <ZoomPanKeyframe id="1125" timeRangeEnd="-9999999/1" timeRangeDuration="0/1" interpolaterName="linr"  />
            </ZoomPanKeyframes>
           </ZoomPanBin>
          </Entry>
          <Entry key="CursorEffectBin">
           <CursorEffectBin id="1126"  >
            <CursorEffectKeyframes>
            </CursorEffectKeyframes>
           </CursorEffectBin>
          </Entry>
         </ExtraData>
         <GenericTrack id="1127"  >
          <Attributes>
           <Attribute id="1128" value="" name="ident"/>
           <Attribute id="1129" value="0" name="audioMuted"/>
           <Attribute id="1130" value="0" name="videoHidden"/>
          </Attributes>
          <MetaData>
           <entry key="IsLocked" val="False"/>
           <entry key="WinTrackHeight" val="0"/>
          </MetaData>
          <Medias>
           <UnifiedMedia id="1131"  >
            <AMFile id="1132" start="0" duration="4924" scalar="1/1" mediaStart="0/1" mediaDuration="4924/1" trackNumber="1" src="21" channelNumber="0,1" >
             <Parameters>
              <InterpolatingParam id="1133" interp="linr"  time="0/1" value="1" leadInLength="0/1"  name="volume"/>
              <Parameter id="1134"  name="captions"/>
             </Parameters>
             <Attributes>
              <Attribute id="1135" value="" name="ident"/>
              <Attribute id="1136" value="44100" name="sampleRate"/>
              <Attribute id="1137" value="16" name="bitDepth"/>
              <Attribute id="1138" value="1" name="gain"/>
              <Attribute id="1139" value="0" name="mixToMono"/>
             </Attributes>
            </AMFile>
            <VMFile id="1140" start="0" duration="4924" scalar="1/1" mediaStart="0/1" mediaDuration="4924/1" trackNumber="0" src="21" >
             <Transformer>
              <VectorParam id="1141"  name="translation">
               <InterpolatingParam id="1142" interp="linr"  time="-9999999/1" value="0" leadInLength="0/1"  />
               <InterpolatingParam id="1143" interp="linr"  time="-9999999/1" value="0" leadInLength="0/1"  />
               <InterpolatingParam id="1144" interp="linr"  time="-9999999/1" value="0" leadInLength="0/1"  />
              </VectorParam>
              <VectorParam id="1145"  name="rotation">
               <InterpolatingParam id="1146" interp="linr"  time="-9999999/1" value="0" leadInLength="0/1"  />
               <InterpolatingParam id="1147" interp="linr"  time="-9999999/1" value="0" leadInLength="0/1"  />
               <InterpolatingParam id="1148" interp="linr"  time="-9999999/1" value="0" leadInLength="0/1"  />
              </VectorParam>
              <VectorParam id="1149"  name="shear">
               <InterpolatingParam id="1150" interp="linr"  time="-9999999/1" value="0" leadInLength="0/1"  />
               <InterpolatingParam id="1151" interp="linr"  time="-9999999/1" value="0" leadInLength="0/1"  />
               <InterpolatingParam id="1152" interp="linr"  time="-9999999/1" value="0" leadInLength="0/1"  />
              </VectorParam>
              <VectorParam id="1153"  name="scale">
               <InterpolatingParam id="1154" interp="linr"  time="-9999999/1" value="1" leadInLength="0/1"  />
               <InterpolatingParam id="1155" interp="linr"  time="-9999999/1" value="1" leadInLength="0/1"  />
               <InterpolatingParam id="1156" interp="linr"  time="-9999999/1" value="1" leadInLength="0/1"  />
              </VectorParam>
              <VectorParam id="1157"  name="anchor">
               <InterpolatingParam id="1158" interp="linr"  time="0/1" value="0" leadInLength="0/1"  />
               <InterpolatingParam id="1159" interp="linr"  time="0/1" value="0" leadInLength="0/1"  />
               <InterpolatingParam id="1160" interp="linr"  time="0/1" value="0" leadInLength="0/1"  />
              </VectorParam>
             </Transformer>
             <Parameters>
              <VectorParam id="1161"  name="sourceCrop">
               <InterpolatingParam id="1162" interp="linr"  time="0/1" value="0" leadInLength="0/1"  />
               <InterpolatingParam id="1163" interp="linr"  time="0/1" value="0" leadInLength="0/1"  />
               <InterpolatingParam id="1164" interp="linr"  time="0/1" value="0" leadInLength="0/1"  />
               <InterpolatingParam id="1165" interp="linr"  time="0/1" value="0" leadInLength="0/1"  />
              </VectorParam>
              <VectorParam id="1166"  name="geometryCrop">
               <InterpolatingParam id="1167" interp="linr"  time="-9999999/1" value="0" leadInLength="0/1"  />
               <InterpolatingParam id="1168" interp="linr"  time="-9999999/1" value="0" leadInLength="0/1"  />
               <InterpolatingParam id="1169" interp="linr"  time="-9999999/1" value="0" leadInLength="0/1"  />
               <InterpolatingParam id="1170" interp="linr"  time="-9999999/1" value="0" leadInLength="0/1"  />
              </VectorParam>
              <InterpolatingParam id="1171" interp="linr"  time="-9999999/1" value="1" leadInLength="0/1"  name="opacity"/>
             </Parameters>
             <Attributes>
              <Attribute id="1172" value="" name="ident"/>
             </Attributes>
             <ExtraData>
              <Entry key="ZoomPanBin">
               <ZoomPanBin id="1173"  >
                <ZoomPanKeyframes>
                 <ZoomPanKeyframe id="1174" timeRangeEnd="-9999999/1" timeRangeDuration="0/1" interpolaterName="linr"  />
                </ZoomPanKeyframes>
               </ZoomPanBin>
              </Entry>
             </ExtraData>
            </VMFile>
            <MetaData>
             <entry key="WinSubProjectDisplayName" val=""/>
            </MetaData>
           </UnifiedMedia>
           <IMFile id="1175" start="4924" duration="90" scalar="1/1" mediaStart="4924/1" mediaDuration="1/1" trackNumber="0" src="21" trimStartSum="0/1" >
            <Transformer>
             <VectorParam id="1176"  name="translation">
              <InterpolatingParam id="1177" interp="linr"  time="-9999999/1" value="0" leadInLength="0/1"  />
              <InterpolatingParam id="1178" interp="linr"  time="-9999999/1" value="0" leadInLength="0/1"  />
              <InterpolatingParam id="1179" interp="linr"  time="-9999999/1" value="0" leadInLength="0/1"  />
             </VectorParam>
             <VectorParam id="1180"  name="rotation">
              <InterpolatingParam id="1181" interp="linr"  time="-9999999/1" value="0" leadInLength="0/1"  />
              <InterpolatingParam id="1182" interp="linr"  time="-9999999/1" value="0" leadInLength="0/1"  />
              <InterpolatingParam id="1183" interp="linr"  time="-9999999/1" value="0" leadInLength="0/1"  />
             </VectorParam>
             <VectorParam id="1184"  name="shear">
              <InterpolatingParam id="1185" interp="linr"  time="-9999999/1" value="0" leadInLength="0/1"  />
              <InterpolatingParam id="1186" interp="linr"  time="-9999999/1" value="0" leadInLength="0/1"  />
              <InterpolatingParam id="1187" interp="linr"  time="-9999999/1" value="0" leadInLength="0/1"  />
             </VectorParam>
             <VectorParam id="1188"  name="scale">
              <InterpolatingParam id="1189" interp="linr"  time="-9999999/1" value="1" leadInLength="0/1"  />
              <InterpolatingParam id="1190" interp="linr"  time="-9999999/1" value="1" leadInLength="0/1"  />
              <InterpolatingParam id="1191" interp="linr"  time="-9999999/1" value="1" leadInLength="0/1"  />
             </VectorParam>
             <VectorParam id="1192"  name="anchor">
              <InterpolatingParam id="1193" interp="linr"  time="0/1" value="0" leadInLength="0/1"  />
              <InterpolatingParam id="1194" interp="linr"  time="0/1" value="0" leadInLength="0/1"  />
              <InterpolatingParam id="1195" interp="linr"  time="0/1" value="0" leadInLength="0/1"  />
             </VectorParam>
            </Transformer>
            <Parameters>
             <VectorParam id="1196"  name="sourceCrop">
              <InterpolatingParam id="1197" interp="linr"  time="0/1" value="0" leadInLength="0/1"  />
              <InterpolatingParam id="1198" interp="linr"  time="0/1" value="0" leadInLength="0/1"  />
              <InterpolatingParam id="1199" interp="linr"  time="0/1" value="0" leadInLength="0/1"  />
              <InterpolatingParam id="1200" interp="linr"  time="0/1" value="0" leadInLength="0/1"  />
             </VectorParam>
             <VectorParam id="1201"  name="geometryCrop">
              <InterpolatingParam id="1202" interp="linr"  time="-9999999/1" value="0" leadInLength="0/1"  />
              <InterpolatingParam id="1203" interp="linr"  time="-9999999/1" value="0" leadInLength="0/1"  />
              <InterpolatingParam id="1204" interp="linr"  time="-9999999/1" value="0" leadInLength="0/1"  />
              <InterpolatingParam id="1205" interp="linr"  time="-9999999/1" value="0" leadInLength="0/1"  />
             </VectorParam>
             <InterpolatingParam id="1206" interp="linr"  time="-9999999/1" value="1" leadInLength="0/1"  name="opacity"/>
            </Parameters>
            <Attributes>
             <Attribute id="1207" value="" name="ident"/>
            </Attributes>
            <MetaData>
             <entry key="WinSubProjectDisplayName" val=""/>
            </MetaData>
            <ExtraData>
             <Entry key="ZoomPanBin">
              <ZoomPanBin id="1208"  >
               <ZoomPanKeyframes>
                <ZoomPanKeyframe id="1209" timeRangeEnd="-9999999/1" timeRangeDuration="0/1" interpolaterName="linr"  />
               </ZoomPanKeyframes>
              </ZoomPanBin>
             </Entry>
            </ExtraData>
           </IMFile>
           <UnifiedMedia id="1210"  >
            <AMFile id="1211" start="5014" duration="4028" scalar="1/1" mediaStart="4923/1" mediaDuration="4028/1" trackNumber="1" src="21" channelNumber="0,1" >
             <Parameters>
              <InterpolatingParam id="1212" interp="linr"  time="0/1" value="1" leadInLength="0/1"  name="volume"/>
              <Parameter id="1213"  name="captions"/>
             </Parameters>
             <Attributes>
              <Attribute id="1214" value="" name="ident"/>
              <Attribute id="1215" value="44100" name="sampleRate"/>
              <Attribute id="1216" value="16" name="bitDepth"/>
              <Attribute id="1217" value="1" name="gain"/>
              <Attribute id="1218" value="0" name="mixToMono"/>
             </Attributes>
            </AMFile>
            <VMFile id="1219" start="5014" duration="4028" scalar="1/1" mediaStart="4923/1" mediaDuration="4028/1" trackNumber="0" src="21" >
             <Transformer>
              <VectorParam id="1220"  name="translation">
               <InterpolatingParam id="1221" interp="linr"  time="-9999999/1" value="0" leadInLength="0/1"  />
               <InterpolatingParam id="1222" interp="linr"  time="-9999999/1" value="0" leadInLength="0/1"  />
               <InterpolatingParam id="1223" interp="linr"  time="-9999999/1" value="0" leadInLength="0/1"  />
              </VectorParam>
              <VectorParam id="1224"  name="rotation">
               <InterpolatingParam id="1225" interp="linr"  time="-9999999/1" value="0" leadInLength="0/1"  />
               <InterpolatingParam id="1226" interp="linr"  time="-9999999/1" value="0" leadInLength="0/1"  />
               <InterpolatingParam id="1227" interp="linr"  time="-9999999/1" value="0" leadInLength="0/1"  />
              </VectorParam>
              <VectorParam id="1228"  name="shear">
               <InterpolatingParam id="1229" interp="linr"  time="-9999999/1" value="0" leadInLength="0/1"  />
               <InterpolatingParam id="1230" interp="linr"  time="-9999999/1" value="0" leadInLength="0/1"  />
               <InterpolatingParam id="1231" interp="linr"  time="-9999999/1" value="0" leadInLength="0/1"  />
              </VectorParam>
              <VectorParam id="1232"  name="scale">
               <InterpolatingParam id="1233" interp="linr"  time="-9999999/1" value="1" leadInLength="0/1"  />
               <InterpolatingParam id="1234" interp="linr"  time="-9999999/1" value="1" leadInLength="0/1"  />
               <InterpolatingParam id="1235" interp="linr"  time="-9999999/1" value="1" leadInLength="0/1"  />
              </VectorParam>
              <VectorParam id="1236"  name="anchor">
               <InterpolatingParam id="1237" interp="linr"  time="0/1" value="0" leadInLength="0/1"  />
               <InterpolatingParam id="1238" interp="linr"  time="0/1" value="0" leadInLength="0/1"  />
               <InterpolatingParam id="1239" interp="linr"  time="0/1" value="0" leadInLength="0/1"  />
              </VectorParam>
             </Transformer>
             <Parameters>
              <VectorParam id="1240"  name="sourceCrop">
               <InterpolatingParam id="1241" interp="linr"  time="0/1" value="0" leadInLength="0/1"  />
               <InterpolatingParam id="1242" interp="linr"  time="0/1" value="0" leadInLength="0/1"  />
               <InterpolatingParam id="1243" interp="linr"  time="0/1" value="0" leadInLength="0/1"  />
               <InterpolatingParam id="1244" interp="linr"  time="0/1" value="0" leadInLength="0/1"  />
              </VectorParam>
              <VectorParam id="1245"  name="geometryCrop">
               <InterpolatingParam id="1246" interp="linr"  time="-9999999/1" value="0" leadInLength="0/1"  />
               <InterpolatingParam id="1247" interp="linr"  time="-9999999/1" value="0" leadInLength="0/1"  />
               <InterpolatingParam id="1248" interp="linr"  time="-9999999/1" value="0" leadInLength="0/1"  />
               <InterpolatingParam id="1249" interp="linr"  time="-9999999/1" value="0" leadInLength="0/1"  />
              </VectorParam>
              <InterpolatingParam id="1250" interp="linr"  time="-9999999/1" value="1" leadInLength="0/1"  name="opacity"/>
             </Parameters>
             <Attributes>
              <Attribute id="1251" value="" name="ident"/>
             </Attributes>
             <ExtraData>
              <Entry key="ZoomPanBin">
               <ZoomPanBin id="1252"  >
                <ZoomPanKeyframes>
                 <ZoomPanKeyframe id="1253" timeRangeEnd="-9999999/1" timeRangeDuration="0/1" interpolaterName="linr"  />
                </ZoomPanKeyframes>
               </ZoomPanBin>
              </Entry>
             </ExtraData>
            </VMFile>
            <MetaData>
             <entry key="WinSubProjectDisplayName" val=""/>
            </MetaData>
           </UnifiedMedia>
          </Medias>
         </GenericTrack>
        </StitchedMedia>
        <StitchedMedia id="1254" start="4300" duration="79" scalar="99853590421/53636423445" mediaStart="458344310375/97228423" mediaDuration="53636423445/1263969499" minMediaStart="0/1" >
         <Transformer>
          <VectorParam id="1255"  name="translation">
           <InterpolatingParam id="1256" interp="linr"  time="-9999999/1" value="0" leadInLength="0/1"  />
           <InterpolatingParam id="1257" interp="linr"  time="-9999999/1" value="0" leadInLength="0/1"  />
           <InterpolatingParam id="1258" interp="linr"  time="-9999999/1" value="0" leadInLength="0/1"  />
          </VectorParam>
          <VectorParam id="1259"  name="rotation">
           <InterpolatingParam id="1260" interp="linr"  time="-9999999/1" value="0" leadInLength="0/1"  />
           <InterpolatingParam id="1261" interp="linr"  time="-9999999/1" value="0" leadInLength="0/1"  />
           <InterpolatingParam id="1262" interp="linr"  time="-9999999/1" value="0" leadInLength="0/1"  />
          </VectorParam>
          <VectorParam id="1263"  name="shear">
           <InterpolatingParam id="1264" interp="linr"  time="-9999999/1" value="0" leadInLength="0/1"  />
           <InterpolatingParam id="1265" interp="linr"  time="-9999999/1" value="0" leadInLength="0/1"  />
           <InterpolatingParam id="1266" interp="linr"  time="-9999999/1" value="0" leadInLength="0/1"  />
          </VectorParam>
          <VectorParam id="1267"  name="scale">
           <InterpolatingParam id="1268" interp="linr"  time="-9999999/1" value="1" leadInLength="0/1"  />
           <InterpolatingParam id="1269" interp="linr"  time="-9999999/1" value="1" leadInLength="0/1"  />
           <InterpolatingParam id="1270" interp="linr"  time="-9999999/1" value="1" leadInLength="0/1"  />
          </VectorParam>
          <VectorParam id="1271"  name="anchor">
           <InterpolatingParam id="1272" interp="linr"  >
            <Keyframes>
            <Keyframe id="1273"  time="0/1" value="0" leadInLength="0/1"  />
            <Keyframe id="1274"  time="4924/1" value="0" leadInLength="0/1"  />
            </Keyframes>
           </InterpolatingParam>
           <InterpolatingParam id="1275" interp="linr"  >
            <Keyframes>
            <Keyframe id="1276"  time="0/1" value="0" leadInLength="0/1"  />
            <Keyframe id="1277"  time="4924/1" value="0" leadInLength="0/1"  />
            </Keyframes>
           </InterpolatingParam>
           <InterpolatingParam id="1278" interp="linr"  >
            <Keyframes>
            <Keyframe id="1279"  time="0/1" value="0" leadInLength="0/1"  />
            <Keyframe id="1280"  time="4924/1" value="0" leadInLength="0/1"  />
            </Keyframes>
           </InterpolatingParam>
          </VectorParam>
         </Transformer>
         <Parameters>
          <VectorParam id="1281"  name="sourceCrop">
           <InterpolatingParam id="1282" interp="linr"  >
            <Keyframes>
            <Keyframe id="1283"  time="0/1" value="0" leadInLength="0/1"  />
            <Keyframe id="1284"  time="4924/1" value="0" leadInLength="0/1"  />
            </Keyframes>
           </InterpolatingParam>
           <InterpolatingParam id="1285" interp="linr"  >
            <Keyframes>
            <Keyframe id="1286"  time="0/1" value="0" leadInLength="0/1"  />
            <Keyframe id="1287"  time="4924/1" value="0" leadInLength="0/1"  />
            </Keyframes>
           </InterpolatingParam>
           <InterpolatingParam id="1288" interp="linr"  >
            <Keyframes>
            <Keyframe id="1289"  time="0/1" value="0" leadInLength="0/1"  />
            <Keyframe id="1290"  time="4924/1" value="0" leadInLength="0/1"  />
            </Keyframes>
           </InterpolatingParam>
           <InterpolatingParam id="1291" interp="linr"  >
            <Keyframes>
            <Keyframe id="1292"  time="0/1" value="0" leadInLength="0/1"  />
            <Keyframe id="1293"  time="4924/1" value="0" leadInLength="0/1"  />
            </Keyframes>
           </InterpolatingParam>
          </VectorParam>
          <VectorParam id="1294"  name="geometryCrop">
           <InterpolatingParam id="1295" interp="linr"  time="-9999999/1" value="0" leadInLength="0/1"  />
           <InterpolatingParam id="1296" interp="linr"  time="-9999999/1" value="0" leadInLength="0/1"  />
           <InterpolatingParam id="1297" interp="linr"  time="-9999999/1" value="0" leadInLength="0/1"  />
           <InterpolatingParam id="1298" interp="linr"  time="-9999999/1" value="0" leadInLength="0/1"  />
          </VectorParam>
          <InterpolatingParam id="1299" interp="linr"  time="-9999999/1" value="1" leadInLength="0/1"  name="opacity"/>
          <InterpolatingParam id="1300" interp="linr"  time="0/1" value="1" leadInLength="0/1"  name="cursorOpacity"/>
          <InterpolatingParam id="1301" interp="linr"  time="0/1" value="1" leadInLength="0/1"  name="cursorScale"/>
          <InterpolatingParam id="1302" interp="linr"  name="volume">
           <Keyframes>
           <Keyframe id="1303"  time="-1/1" value="1" leadInLength="0/1"  />
           <Keyframe id="1304"  time="0/1" value="0" leadInLength="0/1"  />
           <Keyframe id="1305"  time="46313324/5123" value="0" leadInLength="0/1"  />
           <Keyframe id="1306"  time="46318447/5123" value="1" leadInLength="0/1"  />
           </Keyframes>
          </InterpolatingParam>
          <Parameter id="1307"  name="captions"/>
         </Parameters>
         <Attributes>
          <Attribute id="1308" value="" name="ident"/>
          <Attribute id="1309" value="0" name="mixToMono"/>
         </Attributes>
         <MetaData>
          <entry key="WinSubProjectDisplayName" val=""/>
         </MetaData>
         <ExtraData>
          <Entry key="ZoomPanBin">
           <ZoomPanBin id="1310"  >
            <ZoomPanKeyframes>
             <ZoomPanKeyframe id="1311" timeRangeEnd="-9999999/1" timeRangeDuration="0/1" interpolaterName="linr"  />
            </ZoomPanKeyframes>
           </ZoomPanBin>
          </Entry>
          <Entry key="CursorEffectBin">
           <CursorEffectBin id="1312"  >
            <CursorEffectKeyframes>
            </CursorEffectKeyframes>
           </CursorEffectBin>
          </Entry>
         </ExtraData>
         <GenericTrack id="1313"  >
          <Attributes>
           <Attribute id="1314" value="" name="ident"/>
           <Attribute id="1315" value="0" name="audioMuted"/>
           <Attribute id="1316" value="0" name="videoHidden"/>
          </Attributes>
          <MetaData>
           <entry key="IsLocked" val="False"/>
           <entry key="WinTrackHeight" val="0"/>
          </MetaData>
          <Medias>
           <UnifiedMedia id="1317"  >
            <AMFile id="1318" start="0" duration="4924" scalar="1/1" mediaStart="0/1" mediaDuration="4924/1" trackNumber="1" src="21" channelNumber="0,1" >
             <Parameters>
              <InterpolatingParam id="1319" interp="linr"  time="0/1" value="1" leadInLength="0/1"  name="volume"/>
              <Parameter id="1320"  name="captions"/>
             </Parameters>
             <Attributes>
              <Attribute id="1321" value="" name="ident"/>
              <Attribute id="1322" value="44100" name="sampleRate"/>
              <Attribute id="1323" value="16" name="bitDepth"/>
              <Attribute id="1324" value="1" name="gain"/>
              <Attribute id="1325" value="0" name="mixToMono"/>
             </Attributes>
            </AMFile>
            <VMFile id="1326" start="0" duration="4924" scalar="1/1" mediaStart="0/1" mediaDuration="4924/1" trackNumber="0" src="21" >
             <Transformer>
              <VectorParam id="1327"  name="translation">
               <InterpolatingParam id="1328" interp="linr"  time="-9999999/1" value="0" leadInLength="0/1"  />
               <InterpolatingParam id="1329" interp="linr"  time="-9999999/1" value="0" leadInLength="0/1"  />
               <InterpolatingParam id="1330" interp="linr"  time="-9999999/1" value="0" leadInLength="0/1"  />
              </VectorParam>
              <VectorParam id="1331"  name="rotation">
               <InterpolatingParam id="1332" interp="linr"  time="-9999999/1" value="0" leadInLength="0/1"  />
               <InterpolatingParam id="1333" interp="linr"  time="-9999999/1" value="0" leadInLength="0/1"  />
               <InterpolatingParam id="1334" interp="linr"  time="-9999999/1" value="0" leadInLength="0/1"  />
              </VectorParam>
              <VectorParam id="1335"  name="shear">
               <InterpolatingParam id="1336" interp="linr"  time="-9999999/1" value="0" leadInLength="0/1"  />
               <InterpolatingParam id="1337" interp="linr"  time="-9999999/1" value="0" leadInLength="0/1"  />
               <InterpolatingParam id="1338" interp="linr"  time="-9999999/1" value="0" leadInLength="0/1"  />
              </VectorParam>
              <VectorParam id="1339"  name="scale">
               <InterpolatingParam id="1340" interp="linr"  time="-9999999/1" value="1" leadInLength="0/1"  />
               <InterpolatingParam id="1341" interp="linr"  time="-9999999/1" value="1" leadInLength="0/1"  />
               <InterpolatingParam id="1342" interp="linr"  time="-9999999/1" value="1" leadInLength="0/1"  />
              </VectorParam>
              <VectorParam id="1343"  name="anchor">
               <InterpolatingParam id="1344" interp="linr"  time="0/1" value="0" leadInLength="0/1"  />
               <InterpolatingParam id="1345" interp="linr"  time="0/1" value="0" leadInLength="0/1"  />
               <InterpolatingParam id="1346" interp="linr"  time="0/1" value="0" leadInLength="0/1"  />
              </VectorParam>
             </Transformer>
             <Parameters>
              <VectorParam id="1347"  name="sourceCrop">
               <InterpolatingParam id="1348" interp="linr"  time="0/1" value="0" leadInLength="0/1"  />
               <InterpolatingParam id="1349" interp="linr"  time="0/1" value="0" leadInLength="0/1"  />
               <InterpolatingParam id="1350" interp="linr"  time="0/1" value="0" leadInLength="0/1"  />
               <InterpolatingParam id="1351" interp="linr"  time="0/1" value="0" leadInLength="0/1"  />
              </VectorParam>
              <VectorParam id="1352"  name="geometryCrop">
               <InterpolatingParam id="1353" interp="linr"  time="-9999999/1" value="0" leadInLength="0/1"  />
               <InterpolatingParam id="1354" interp="linr"  time="-9999999/1" value="0" leadInLength="0/1"  />
               <InterpolatingParam id="1355" interp="linr"  time="-9999999/1" value="0" leadInLength="0/1"  />
               <InterpolatingParam id="1356" interp="linr"  time="-9999999/1" value="0" leadInLength="0/1"  />
              </VectorParam>
              <InterpolatingParam id="1357" interp="linr"  time="-9999999/1" value="1" leadInLength="0/1"  name="opacity"/>
             </Parameters>
             <Attributes>
              <Attribute id="1358" value="" name="ident"/>
             </Attributes>
             <ExtraData>
              <Entry key="ZoomPanBin">
               <ZoomPanBin id="1359"  >
                <ZoomPanKeyframes>
                 <ZoomPanKeyframe id="1360" timeRangeEnd="-9999999/1" timeRangeDuration="0/1" interpolaterName="linr"  />
                </ZoomPanKeyframes>
               </ZoomPanBin>
              </Entry>
             </ExtraData>
            </VMFile>
            <MetaData>
             <entry key="WinSubProjectDisplayName" val=""/>
            </MetaData>
           </UnifiedMedia>
           <IMFile id="1361" start="4924" duration="90" scalar="1/1" mediaStart="4924/1" mediaDuration="1/1" trackNumber="0" src="21" trimStartSum="0/1" >
            <Transformer>
             <VectorParam id="1362"  name="translation">
              <InterpolatingParam id="1363" interp="linr"  time="-9999999/1" value="0" leadInLength="0/1"  />
              <InterpolatingParam id="1364" interp="linr"  time="-9999999/1" value="0" leadInLength="0/1"  />
              <InterpolatingParam id="1365" interp="linr"  time="-9999999/1" value="0" leadInLength="0/1"  />
             </VectorParam>
             <VectorParam id="1366"  name="rotation">
              <InterpolatingParam id="1367" interp="linr"  time="-9999999/1" value="0" leadInLength="0/1"  />
              <InterpolatingParam id="1368" interp="linr"  time="-9999999/1" value="0" leadInLength="0/1"  />
              <InterpolatingParam id="1369" interp="linr"  time="-9999999/1" value="0" leadInLength="0/1"  />
             </VectorParam>
             <VectorParam id="1370"  name="shear">
              <InterpolatingParam id="1371" interp="linr"  time="-9999999/1" value="0" leadInLength="0/1"  />
              <InterpolatingParam id="1372" interp="linr"  time="-9999999/1" value="0" leadInLength="0/1"  />
              <InterpolatingParam id="1373" interp="linr"  time="-9999999/1" value="0" leadInLength="0/1"  />
             </VectorParam>
             <VectorParam id="1374"  name="scale">
              <InterpolatingParam id="1375" interp="linr"  time="-9999999/1" value="1" leadInLength="0/1"  />
              <InterpolatingParam id="1376" interp="linr"  time="-9999999/1" value="1" leadInLength="0/1"  />
              <InterpolatingParam id="1377" interp="linr"  time="-9999999/1" value="1" leadInLength="0/1"  />
             </VectorParam>
             <VectorParam id="1378"  name="anchor">
              <InterpolatingParam id="1379" interp="linr"  time="0/1" value="0" leadInLength="0/1"  />
              <InterpolatingParam id="1380" interp="linr"  time="0/1" value="0" leadInLength="0/1"  />
              <InterpolatingParam id="1381" interp="linr"  time="0/1" value="0" leadInLength="0/1"  />
             </VectorParam>
            </Transformer>
            <Parameters>
             <VectorParam id="1382"  name="sourceCrop">
              <InterpolatingParam id="1383" interp="linr"  time="0/1" value="0" leadInLength="0/1"  />
              <InterpolatingParam id="1384" interp="linr"  time="0/1" value="0" leadInLength="0/1"  />
              <InterpolatingParam id="1385" interp="linr"  time="0/1" value="0" leadInLength="0/1"  />
              <InterpolatingParam id="1386" interp="linr"  time="0/1" value="0" leadInLength="0/1"  />
             </VectorParam>
             <VectorParam id="1387"  name="geometryCrop">
              <InterpolatingParam id="1388" interp="linr"  time="-9999999/1" value="0" leadInLength="0/1"  />
              <InterpolatingParam id="1389" interp="linr"  time="-9999999/1" value="0" leadInLength="0/1"  />
              <InterpolatingParam id="1390" interp="linr"  time="-9999999/1" value="0" leadInLength="0/1"  />
              <InterpolatingParam id="1391" interp="linr"  time="-9999999/1" value="0" leadInLength="0/1"  />
             </VectorParam>
             <InterpolatingParam id="1392" interp="linr"  time="-9999999/1" value="1" leadInLength="0/1"  name="opacity"/>
            </Parameters>
            <Attributes>
             <Attribute id="1393" value="" name="ident"/>
            </Attributes>
            <MetaData>
             <entry key="WinSubProjectDisplayName" val=""/>
            </MetaData>
            <ExtraData>
             <Entry key="ZoomPanBin">
              <ZoomPanBin id="1394"  >
               <ZoomPanKeyframes>
                <ZoomPanKeyframe id="1395" timeRangeEnd="-9999999/1" timeRangeDuration="0/1" interpolaterName="linr"  />
               </ZoomPanKeyframes>
              </ZoomPanBin>
             </Entry>
            </ExtraData>
           </IMFile>
           <UnifiedMedia id="1396"  >
            <AMFile id="1397" start="5014" duration="4028" scalar="1/1" mediaStart="4923/1" mediaDuration="4028/1" trackNumber="1" src="21" channelNumber="0,1" >
             <Parameters>
              <InterpolatingParam id="1398" interp="linr"  time="0/1" value="1" leadInLength="0/1"  name="volume"/>
              <Parameter id="1399"  name="captions"/>
             </Parameters>
             <Attributes>
              <Attribute id="1400" value="" name="ident"/>
              <Attribute id="1401" value="44100" name="sampleRate"/>
              <Attribute id="1402" value="16" name="bitDepth"/>
              <Attribute id="1403" value="1" name="gain"/>
              <Attribute id="1404" value="0" name="mixToMono"/>
             </Attributes>
            </AMFile>
            <VMFile id="1405" start="5014" duration="4028" scalar="1/1" mediaStart="4923/1" mediaDuration="4028/1" trackNumber="0" src="21" >
             <Transformer>
              <VectorParam id="1406"  name="translation">
               <InterpolatingParam id="1407" interp="linr"  time="-9999999/1" value="0" leadInLength="0/1"  />
               <InterpolatingParam id="1408" interp="linr"  time="-9999999/1" value="0" leadInLength="0/1"  />
               <InterpolatingParam id="1409" interp="linr"  time="-9999999/1" value="0" leadInLength="0/1"  />
              </VectorParam>
              <VectorParam id="1410"  name="rotation">
               <InterpolatingParam id="1411" interp="linr"  time="-9999999/1" value="0" leadInLength="0/1"  />
               <InterpolatingParam id="1412" interp="linr"  time="-9999999/1" value="0" leadInLength="0/1"  />
               <InterpolatingParam id="1413" interp="linr"  time="-9999999/1" value="0" leadInLength="0/1"  />
              </VectorParam>
              <VectorParam id="1414"  name="shear">
               <InterpolatingParam id="1415" interp="linr"  time="-9999999/1" value="0" leadInLength="0/1"  />
               <InterpolatingParam id="1416" interp="linr"  time="-9999999/1" value="0" leadInLength="0/1"  />
               <InterpolatingParam id="1417" interp="linr"  time="-9999999/1" value="0" leadInLength="0/1"  />
              </VectorParam>
              <VectorParam id="1418"  name="scale">
               <InterpolatingParam id="1419" interp="linr"  time="-9999999/1" value="1" leadInLength="0/1"  />
               <InterpolatingParam id="1420" interp="linr"  time="-9999999/1" value="1" leadInLength="0/1"  />
               <InterpolatingParam id="1421" interp="linr"  time="-9999999/1" value="1" leadInLength="0/1"  />
              </VectorParam>
              <VectorParam id="1422"  name="anchor">
               <InterpolatingParam id="1423" interp="linr"  time="0/1" value="0" leadInLength="0/1"  />
               <InterpolatingParam id="1424" interp="linr"  time="0/1" value="0" leadInLength="0/1"  />
               <InterpolatingParam id="1425" interp="linr"  time="0/1" value="0" leadInLength="0/1"  />
              </VectorParam>
             </Transformer>
             <Parameters>
              <VectorParam id="1426"  name="sourceCrop">
               <InterpolatingParam id="1427" interp="linr"  time="0/1" value="0" leadInLength="0/1"  />
               <InterpolatingParam id="1428" interp="linr"  time="0/1" value="0" leadInLength="0/1"  />
               <InterpolatingParam id="1429" interp="linr"  time="0/1" value="0" leadInLength="0/1"  />
               <InterpolatingParam id="1430" interp="linr"  time="0/1" value="0" leadInLength="0/1"  />
              </VectorParam>
              <VectorParam id="1431"  name="geometryCrop">
               <InterpolatingParam id="1432" interp="linr"  time="-9999999/1" value="0" leadInLength="0/1"  />
               <InterpolatingParam id="1433" interp="linr"  time="-9999999/1" value="0" leadInLength="0/1"  />
               <InterpolatingParam id="1434" interp="linr"  time="-9999999/1" value="0" leadInLength="0/1"  />
               <InterpolatingParam id="1435" interp="linr"  time="-9999999/1" value="0" leadInLength="0/1"  />
              </VectorParam>
              <InterpolatingParam id="1436" interp="linr"  time="-9999999/1" value="1" leadInLength="0/1"  name="opacity"/>
             </Parameters>
             <Attributes>
              <Attribute id="1437" value="" name="ident"/>
             </Attributes>
             <ExtraData>
              <Entry key="ZoomPanBin">
               <ZoomPanBin id="1438"  >
                <ZoomPanKeyframes>
                 <ZoomPanKeyframe id="1439" timeRangeEnd="-9999999/1" timeRangeDuration="0/1" interpolaterName="linr"  />
                </ZoomPanKeyframes>
               </ZoomPanBin>
              </Entry>
             </ExtraData>
            </VMFile>
            <MetaData>
             <entry key="WinSubProjectDisplayName" val=""/>
            </MetaData>
           </UnifiedMedia>
          </Medias>
         </GenericTrack>
        </StitchedMedia>
        <StitchedMedia id="1440" start="4379" duration="430" scalar="108701376914/60137808105" mediaStart="6038117996960/1263969499" mediaDuration="300689040525/1263969499" minMediaStart="0/1" >
         <Transformer>
          <VectorParam id="1441"  name="translation">
           <InterpolatingParam id="1442" interp="linr"  time="-9999999/1" value="0" leadInLength="0/1"  />
           <InterpolatingParam id="1443" interp="linr"  time="-9999999/1" value="0" leadInLength="0/1"  />
           <InterpolatingParam id="1444" interp="linr"  time="-9999999/1" value="0" leadInLength="0/1"  />
          </VectorParam>
          <VectorParam id="1445"  name="rotation">
           <InterpolatingParam id="1446" interp="linr"  time="-9999999/1" value="0" leadInLength="0/1"  />
           <InterpolatingParam id="1447" interp="linr"  time="-9999999/1" value="0" leadInLength="0/1"  />
           <InterpolatingParam id="1448" interp="linr"  time="-9999999/1" value="0" leadInLength="0/1"  />
          </VectorParam>
          <VectorParam id="1449"  name="shear">
           <InterpolatingParam id="1450" interp="linr"  time="-9999999/1" value="0" leadInLength="0/1"  />
           <InterpolatingParam id="1451" interp="linr"  time="-9999999/1" value="0" leadInLength="0/1"  />
           <InterpolatingParam id="1452" interp="linr"  time="-9999999/1" value="0" leadInLength="0/1"  />
          </VectorParam>
          <VectorParam id="1453"  name="scale">
           <InterpolatingParam id="1454" interp="linr"  time="-9999999/1" value="1" leadInLength="0/1"  />
           <InterpolatingParam id="1455" interp="linr"  time="-9999999/1" value="1" leadInLength="0/1"  />
           <InterpolatingParam id="1456" interp="linr"  time="-9999999/1" value="1" leadInLength="0/1"  />
          </VectorParam>
          <VectorParam id="1457"  name="anchor">
           <InterpolatingParam id="1458" interp="linr"  >
            <Keyframes>
            <Keyframe id="1459"  time="0/1" value="0" leadInLength="0/1"  />
            <Keyframe id="1460"  time="4924/1" value="0" leadInLength="0/1"  />
            </Keyframes>
           </InterpolatingParam>
           <InterpolatingParam id="1461" interp="linr"  >
            <Keyframes>
            <Keyframe id="1462"  time="0/1" value="0" leadInLength="0/1"  />
            <Keyframe id="1463"  time="4924/1" value="0" leadInLength="0/1"  />
            </Keyframes>
           </InterpolatingParam>
           <InterpolatingParam id="1464" interp="linr"  >
            <Keyframes>
            <Keyframe id="1465"  time="0/1" value="0" leadInLength="0/1"  />
            <Keyframe id="1466"  time="4924/1" value="0" leadInLength="0/1"  />
            </Keyframes>
           </InterpolatingParam>
          </VectorParam>
         </Transformer>
         <Parameters>
          <VectorParam id="1467"  name="sourceCrop">
           <InterpolatingParam id="1468" interp="linr"  >
            <Keyframes>
            <Keyframe id="1469"  time="0/1" value="0" leadInLength="0/1"  />
            <Keyframe id="1470"  time="4924/1" value="0" leadInLength="0/1"  />
            </Keyframes>
           </InterpolatingParam>
           <InterpolatingParam id="1471" interp="linr"  >
            <Keyframes>
            <Keyframe id="1472"  time="0/1" value="0" leadInLength="0/1"  />
            <Keyframe id="1473"  time="4924/1" value="0" leadInLength="0/1"  />
            </Keyframes>
           </InterpolatingParam>
           <InterpolatingParam id="1474" interp="linr"  >
            <Keyframes>
            <Keyframe id="1475"  time="0/1" value="0" leadInLength="0/1"  />
            <Keyframe id="1476"  time="4924/1" value="0" leadInLength="0/1"  />
            </Keyframes>
           </InterpolatingParam>
           <InterpolatingParam id="1477" interp="linr"  >
            <Keyframes>
            <Keyframe id="1478"  time="0/1" value="0" leadInLength="0/1"  />
            <Keyframe id="1479"  time="4924/1" value="0" leadInLength="0/1"  />
            </Keyframes>
           </InterpolatingParam>
          </VectorParam>
          <VectorParam id="1480"  name="geometryCrop">
           <InterpolatingParam id="1481" interp="linr"  time="-9999999/1" value="0" leadInLength="0/1"  />
           <InterpolatingParam id="1482" interp="linr"  time="-9999999/1" value="0" leadInLength="0/1"  />
           <InterpolatingParam id="1483" interp="linr"  time="-9999999/1" value="0" leadInLength="0/1"  />
           <InterpolatingParam id="1484" interp="linr"  time="-9999999/1" value="0" leadInLength="0/1"  />
          </VectorParam>
          <InterpolatingParam id="1485" interp="linr"  time="-9999999/1" value="1" leadInLength="0/1"  name="opacity"/>
          <InterpolatingParam id="1486" interp="linr"  time="0/1" value="1" leadInLength="0/1"  name="cursorOpacity"/>
          <InterpolatingParam id="1487" interp="linr"  time="0/1" value="1" leadInLength="0/1"  name="cursorScale"/>
          <InterpolatingParam id="1488" interp="linr"  name="volume">
           <Keyframes>
           <Keyframe id="1489"  time="-1/1" value="1" leadInLength="0/1"  />
           <Keyframe id="1490"  time="0/1" value="0" leadInLength="0/1"  />
           <Keyframe id="1491"  time="46313324/5123" value="0" leadInLength="0/1"  />
           <Keyframe id="1492"  time="46318447/5123" value="1" leadInLength="0/1"  />
           </Keyframes>
          </InterpolatingParam>
          <Parameter id="1493"  name="captions"/>
         </Parameters>
         <Attributes>
          <Attribute id="1494" value="" name="ident"/>
          <Attribute id="1495" value="0" name="mixToMono"/>
         </Attributes>
         <MetaData>
          <entry key="WinSubProjectDisplayName" val=""/>
         </MetaData>
         <ExtraData>
          <Entry key="ZoomPanBin">
           <ZoomPanBin id="1496"  >
            <ZoomPanKeyframes>
             <ZoomPanKeyframe id="1497" timeRangeEnd="-9999999/1" timeRangeDuration="0/1" interpolaterName="linr"  />
            </ZoomPanKeyframes>
           </ZoomPanBin>
          </Entry>
          <Entry key="CursorEffectBin">
           <CursorEffectBin id="1498"  >
            <CursorEffectKeyframes>
            </CursorEffectKeyframes>
           </CursorEffectBin>
          </Entry>
         </ExtraData>
         <GenericTrack id="1499"  >
          <Attributes>
           <Attribute id="1500" value="" name="ident"/>
           <Attribute id="1501" value="0" name="audioMuted"/>
           <Attribute id="1502" value="0" name="videoHidden"/>
          </Attributes>
          <MetaData>
           <entry key="IsLocked" val="False"/>
           <entry key="WinTrackHeight" val="0"/>
          </MetaData>
          <Medias>
           <UnifiedMedia id="1503"  >
            <AMFile id="1504" start="0" duration="4924" scalar="1/1" mediaStart="0/1" mediaDuration="4924/1" trackNumber="1" src="21" channelNumber="0,1" >
             <Parameters>
              <InterpolatingParam id="1505" interp="linr"  time="0/1" value="1" leadInLength="0/1"  name="volume"/>
              <Parameter id="1506"  name="captions"/>
             </Parameters>
             <Attributes>
              <Attribute id="1507" value="" name="ident"/>
              <Attribute id="1508" value="44100" name="sampleRate"/>
              <Attribute id="1509" value="16" name="bitDepth"/>
              <Attribute id="1510" value="1" name="gain"/>
              <Attribute id="1511" value="0" name="mixToMono"/>
             </Attributes>
            </AMFile>
            <VMFile id="1512" start="0" duration="4924" scalar="1/1" mediaStart="0/1" mediaDuration="4924/1" trackNumber="0" src="21" >
             <Transformer>
              <VectorParam id="1513"  name="translation">
               <InterpolatingParam id="1514" interp="linr"  time="-9999999/1" value="0" leadInLength="0/1"  />
               <InterpolatingParam id="1515" interp="linr"  time="-9999999/1" value="0" leadInLength="0/1"  />
               <InterpolatingParam id="1516" interp="linr"  time="-9999999/1" value="0" leadInLength="0/1"  />
              </VectorParam>
              <VectorParam id="1517"  name="rotation">
               <InterpolatingParam id="1518" interp="linr"  time="-9999999/1" value="0" leadInLength="0/1"  />
               <InterpolatingParam id="1519" interp="linr"  time="-9999999/1" value="0" leadInLength="0/1"  />
               <InterpolatingParam id="1520" interp="linr"  time="-9999999/1" value="0" leadInLength="0/1"  />
              </VectorParam>
              <VectorParam id="1521"  name="shear">
               <InterpolatingParam id="1522" interp="linr"  time="-9999999/1" value="0" leadInLength="0/1"  />
               <InterpolatingParam id="1523" interp="linr"  time="-9999999/1" value="0" leadInLength="0/1"  />
               <InterpolatingParam id="1524" interp="linr"  time="-9999999/1" value="0" leadInLength="0/1"  />
              </VectorParam>
              <VectorParam id="1525"  name="scale">
               <InterpolatingParam id="1526" interp="linr"  time="-9999999/1" value="1" leadInLength="0/1"  />
               <InterpolatingParam id="1527" interp="linr"  time="-9999999/1" value="1" leadInLength="0/1"  />
               <InterpolatingParam id="1528" interp="linr"  time="-9999999/1" value="1" leadInLength="0/1"  />
              </VectorParam>
              <VectorParam id="1529"  name="anchor">
               <InterpolatingParam id="1530" interp="linr"  time="0/1" value="0" leadInLength="0/1"  />
               <InterpolatingParam id="1531" interp="linr"  time="0/1" value="0" leadInLength="0/1"  />
               <InterpolatingParam id="1532" interp="linr"  time="0/1" value="0" leadInLength="0/1"  />
              </VectorParam>
             </Transformer>
             <Parameters>
              <VectorParam id="1533"  name="sourceCrop">
               <InterpolatingParam id="1534" interp="linr"  time="0/1" value="0" leadInLength="0/1"  />
               <InterpolatingParam id="1535" interp="linr"  time="0/1" value="0" leadInLength="0/1"  />
               <InterpolatingParam id="1536" interp="linr"  time="0/1" value="0" leadInLength="0/1"  />
               <InterpolatingParam id="1537" interp="linr"  time="0/1" value="0" leadInLength="0/1"  />
              </VectorParam>
              <VectorParam id="1538"  name="geometryCrop">
               <InterpolatingParam id="1539" interp="linr"  time="-9999999/1" value="0" leadInLength="0/1"  />
               <InterpolatingParam id="1540" interp="linr"  time="-9999999/1" value="0" leadInLength="0/1"  />
               <InterpolatingParam id="1541" interp="linr"  time="-9999999/1" value="0" leadInLength="0/1"  />
               <InterpolatingParam id="1542" interp="linr"  time="-9999999/1" value="0" leadInLength="0/1"  />
              </VectorParam>
              <InterpolatingParam id="1543" interp="linr"  time="-9999999/1" value="1" leadInLength="0/1"  name="opacity"/>
             </Parameters>
             <Attributes>
              <Attribute id="1544" value="" name="ident"/>
             </Attributes>
             <ExtraData>
              <Entry key="ZoomPanBin">
               <ZoomPanBin id="1545"  >
                <ZoomPanKeyframes>
                 <ZoomPanKeyframe id="1546" timeRangeEnd="-9999999/1" timeRangeDuration="0/1" interpolaterName="linr"  />
                </ZoomPanKeyframes>
               </ZoomPanBin>
              </Entry>
             </ExtraData>
            </VMFile>
            <MetaData>
             <entry key="WinSubProjectDisplayName" val=""/>
            </MetaData>
           </UnifiedMedia>
           <IMFile id="1547" start="4924" duration="90" scalar="1/1" mediaStart="4924/1" mediaDuration="1/1" trackNumber="0" src="21" trimStartSum="0/1" >
            <Transformer>
             <VectorParam id="1548"  name="translation">
              <InterpolatingParam id="1549" interp="linr"  time="-9999999/1" value="0" leadInLength="0/1"  />
              <InterpolatingParam id="1550" interp="linr"  time="-9999999/1" value="0" leadInLength="0/1"  />
              <InterpolatingParam id="1551" interp="linr"  time="-9999999/1" value="0" leadInLength="0/1"  />
             </VectorParam>
             <VectorParam id="1552"  name="rotation">
              <InterpolatingParam id="1553" interp="linr"  time="-9999999/1" value="0" leadInLength="0/1"  />
              <InterpolatingParam id="1554" interp="linr"  time="-9999999/1" value="0" leadInLength="0/1"  />
              <InterpolatingParam id="1555" interp="linr"  time="-9999999/1" value="0" leadInLength="0/1"  />
             </VectorParam>
             <VectorParam id="1556"  name="shear">
              <InterpolatingParam id="1557" interp="linr"  time="-9999999/1" value="0" leadInLength="0/1"  />
              <InterpolatingParam id="1558" interp="linr"  time="-9999999/1" value="0" leadInLength="0/1"  />
              <InterpolatingParam id="1559" interp="linr"  time="-9999999/1" value="0" leadInLength="0/1"  />
             </VectorParam>
             <VectorParam id="1560"  name="scale">
              <InterpolatingParam id="1561" interp="linr"  time="-9999999/1" value="1" leadInLength="0/1"  />
              <InterpolatingParam id="1562" interp="linr"  time="-9999999/1" value="1" leadInLength="0/1"  />
              <InterpolatingParam id="1563" interp="linr"  time="-9999999/1" value="1" leadInLength="0/1"  />
             </VectorParam>
             <VectorParam id="1564"  name="anchor">
              <InterpolatingParam id="1565" interp="linr"  time="0/1" value="0" leadInLength="0/1"  />
              <InterpolatingParam id="1566" interp="linr"  time="0/1" value="0" leadInLength="0/1"  />
              <InterpolatingParam id="1567" interp="linr"  time="0/1" value="0" leadInLength="0/1"  />
             </VectorParam>
            </Transformer>
            <Parameters>
             <VectorParam id="1568"  name="sourceCrop">
              <InterpolatingParam id="1569" interp="linr"  time="0/1" value="0" leadInLength="0/1"  />
              <InterpolatingParam id="1570" interp="linr"  time="0/1" value="0" leadInLength="0/1"  />
              <InterpolatingParam id="1571" interp="linr"  time="0/1" value="0" leadInLength="0/1"  />
              <InterpolatingParam id="1572" interp="linr"  time="0/1" value="0" leadInLength="0/1"  />
             </VectorParam>
             <VectorParam id="1573"  name="geometryCrop">
              <InterpolatingParam id="1574" interp="linr"  time="-9999999/1" value="0" leadInLength="0/1"  />
              <InterpolatingParam id="1575" interp="linr"  time="-9999999/1" value="0" leadInLength="0/1"  />
              <InterpolatingParam id="1576" interp="linr"  time="-9999999/1" value="0" leadInLength="0/1"  />
              <InterpolatingParam id="1577" interp="linr"  time="-9999999/1" value="0" leadInLength="0/1"  />
             </VectorParam>
             <InterpolatingParam id="1578" interp="linr"  time="-9999999/1" value="1" leadInLength="0/1"  name="opacity"/>
            </Parameters>
            <Attributes>
             <Attribute id="1579" value="" name="ident"/>
            </Attributes>
            <MetaData>
             <entry key="WinSubProjectDisplayName" val=""/>
            </MetaData>
            <ExtraData>
             <Entry key="ZoomPanBin">
              <ZoomPanBin id="1580"  >
               <ZoomPanKeyframes>
                <ZoomPanKeyframe id="1581" timeRangeEnd="-9999999/1" timeRangeDuration="0/1" interpolaterName="linr"  />
               </ZoomPanKeyframes>
              </ZoomPanBin>
             </Entry>
            </ExtraData>
           </IMFile>
           <UnifiedMedia id="1582"  >
            <AMFile id="1583" start="5014" duration="4028" scalar="1/1" mediaStart="4923/1" mediaDuration="4028/1" trackNumber="1" src="21" channelNumber="0,1" >
             <Parameters>
              <InterpolatingParam id="1584" interp="linr"  time="0/1" value="1" leadInLength="0/1"  name="volume"/>
              <Parameter id="1585"  name="captions"/>
             </Parameters>
             <Attributes>
              <Attribute id="1586" value="" name="ident"/>
              <Attribute id="1587" value="44100" name="sampleRate"/>
              <Attribute id="1588" value="16" name="bitDepth"/>
              <Attribute id="1589" value="1" name="gain"/>
              <Attribute id="1590" value="0" name="mixToMono"/>
             </Attributes>
            </AMFile>
            <VMFile id="1591" start="5014" duration="4028" scalar="1/1" mediaStart="4923/1" mediaDuration="4028/1" trackNumber="0" src="21" >
             <Transformer>
              <VectorParam id="1592"  name="translation">
               <InterpolatingParam id="1593" interp="linr"  time="-9999999/1" value="0" leadInLength="0/1"  />
               <InterpolatingParam id="1594" interp="linr"  time="-9999999/1" value="0" leadInLength="0/1"  />
               <InterpolatingParam id="1595" interp="linr"  time="-9999999/1" value="0" leadInLength="0/1"  />
              </VectorParam>
              <VectorParam id="1596"  name="rotation">
               <InterpolatingParam id="1597" interp="linr"  time="-9999999/1" value="0" leadInLength="0/1"  />
               <InterpolatingParam id="1598" interp="linr"  time="-9999999/1" value="0" leadInLength="0/1"  />
               <InterpolatingParam id="1599" interp="linr"  time="-9999999/1" value="0" leadInLength="0/1"  />
              </VectorParam>
              <VectorParam id="1600"  name="shear">
               <InterpolatingParam id="1601" interp="linr"  time="-9999999/1" value="0" leadInLength="0/1"  />
               <InterpolatingParam id="1602" interp="linr"  time="-9999999/1" value="0" leadInLength="0/1"  />
               <InterpolatingParam id="1603" interp="linr"  time="-9999999/1" value="0" leadInLength="0/1"  />
              </VectorParam>
              <VectorParam id="1604"  name="scale">
               <InterpolatingParam id="1605" interp="linr"  time="-9999999/1" value="1" leadInLength="0/1"  />
               <InterpolatingParam id="1606" interp="linr"  time="-9999999/1" value="1" leadInLength="0/1"  />
               <InterpolatingParam id="1607" interp="linr"  time="-9999999/1" value="1" leadInLength="0/1"  />
              </VectorParam>
              <VectorParam id="1608"  name="anchor">
               <InterpolatingParam id="1609" interp="linr"  time="0/1" value="0" leadInLength="0/1"  />
               <InterpolatingParam id="1610" interp="linr"  time="0/1" value="0" leadInLength="0/1"  />
               <InterpolatingParam id="1611" interp="linr"  time="0/1" value="0" leadInLength="0/1"  />
              </VectorParam>
             </Transformer>
             <Parameters>
              <VectorParam id="1612"  name="sourceCrop">
               <InterpolatingParam id="1613" interp="linr"  time="0/1" value="0" leadInLength="0/1"  />
               <InterpolatingParam id="1614" interp="linr"  time="0/1" value="0" leadInLength="0/1"  />
               <InterpolatingParam id="1615" interp="linr"  time="0/1" value="0" leadInLength="0/1"  />
               <InterpolatingParam id="1616" interp="linr"  time="0/1" value="0" leadInLength="0/1"  />
              </VectorParam>
              <VectorParam id="1617"  name="geometryCrop">
               <InterpolatingParam id="1618" interp="linr"  time="-9999999/1" value="0" leadInLength="0/1"  />
               <InterpolatingParam id="1619" interp="linr"  time="-9999999/1" value="0" leadInLength="0/1"  />
               <InterpolatingParam id="1620" interp="linr"  time="-9999999/1" value="0" leadInLength="0/1"  />
               <InterpolatingParam id="1621" interp="linr"  time="-9999999/1" value="0" leadInLength="0/1"  />
              </VectorParam>
              <InterpolatingParam id="1622" interp="linr"  time="-9999999/1" value="1" leadInLength="0/1"  name="opacity"/>
             </Parameters>
             <Attributes>
              <Attribute id="1623" value="" name="ident"/>
             </Attributes>
             <ExtraData>
              <Entry key="ZoomPanBin">
               <ZoomPanBin id="1624"  >
                <ZoomPanKeyframes>
                 <ZoomPanKeyframe id="1625" timeRangeEnd="-9999999/1" timeRangeDuration="0/1" interpolaterName="linr"  />
                </ZoomPanKeyframes>
               </ZoomPanBin>
              </Entry>
             </ExtraData>
            </VMFile>
            <MetaData>
             <entry key="WinSubProjectDisplayName" val=""/>
            </MetaData>
           </UnifiedMedia>
          </Medias>
         </GenericTrack>
        </StitchedMedia>
        <UnifiedMedia id="1626"  >
         <AMFile id="1627" start="4809" duration="248" scalar="1848933/2375296" mediaStart="1773555817/357858" mediaDuration="19002368/59643" trackNumber="1" src="21" channelNumber="0,1" >
          <Parameters>
           <InterpolatingParam id="1628" interp="linr"  name="volume">
            <Keyframes>
            <Keyframe id="1629"  time="-1/1" value="1" leadInLength="0/1"  />
            <Keyframe id="1630"  time="0/1" value="0" leadInLength="0/1"  />
            <Keyframe id="1631"  time="8952/1" value="0" leadInLength="0/1"  />
            <Keyframe id="1632"  time="8953/1" value="1" leadInLength="0/1"  />
            </Keyframes>
           </InterpolatingParam>
           <Parameter id="1633"  name="captions"/>
          </Parameters>
          <Attributes>
           <Attribute id="1634" value="" name="ident"/>
           <Attribute id="1635" value="44100" name="sampleRate"/>
           <Attribute id="1636" value="16" name="bitDepth"/>
           <Attribute id="1637" value="1" name="gain"/>
           <Attribute id="1638" value="0" name="mixToMono"/>
          </Attributes>
         </AMFile>
         <VMFile id="1639" start="4809" duration="248" scalar="1848933/2375296" mediaStart="1773555817/357858" mediaDuration="19002368/59643" trackNumber="0" src="21" >
          <Transformer>
           <VectorParam id="1640"  name="translation">
            <InterpolatingParam id="1641" interp="linr"  >
             <Keyframes>
             <Keyframe id="1642"  time="-9999999/1" value="0" leadInLength="0/1"  />
             <Keyframe id="1643"  time="55407783607/11093598" value="576.50793650807987" leadInLength="23752960/616311"  interpolater="leadin-linr"  />
             <Keyframe id="1644"  time="56832961207/11093598" value="576.50793650828257" leadInLength="23752960/616311"  interpolater="leadin-linr"  />
             </Keyframes>
            </InterpolatingParam>
            <InterpolatingParam id="1645" interp="linr"  >
             <Keyframes>
             <Keyframe id="1646"  time="-9999999/1" value="0" leadInLength="0/1"  />
             <Keyframe id="1647"  time="55407783607/11093598" value="-324.28571428579488" leadInLength="23752960/616311"  interpolater="leadin-linr"  />
             <Keyframe id="1648"  time="56832961207/11093598" value="-58.571428571585272" leadInLength="23752960/616311"  interpolater="leadin-linr"  />
             </Keyframes>
            </InterpolatingParam>
            <InterpolatingParam id="1649" interp="linr"  >
             <Keyframes>
             <Keyframe id="1650"  time="-9999999/1" value="0" leadInLength="0/1"  />
             <Keyframe id="1651"  time="55407783607/11093598" value="0" leadInLength="23752960/616311"  interpolater="leadin-linr"  />
             <Keyframe id="1652"  time="56832961207/11093598" value="0" leadInLength="23752960/616311"  interpolater="leadin-linr"  />
             </Keyframes>
            </InterpolatingParam>
           </VectorParam>
           <VectorParam id="1653"  name="rotation">
            <InterpolatingParam id="1654" interp="linr"  >
             <Keyframes>
             <Keyframe id="1655"  time="-9999999/1" value="0" leadInLength="0/1"  />
             <Keyframe id="1656"  time="55407783607/11093598" value="0" leadInLength="23752960/616311"  interpolater="leadin-linr"  />
             <Keyframe id="1657"  time="56832961207/11093598" value="0" leadInLength="23752960/616311"  interpolater="leadin-linr"  />
             </Keyframes>
            </InterpolatingParam>
            <InterpolatingParam id="1658" interp="linr"  >
             <Keyframes>
             <Keyframe id="1659"  time="-9999999/1" value="0" leadInLength="0/1"  />
             <Keyframe id="1660"  time="55407783607/11093598" value="0" leadInLength="23752960/616311"  interpolater="leadin-linr"  />
             <Keyframe id="1661"  time="56832961207/11093598" value="0" leadInLength="23752960/616311"  interpolater="leadin-linr"  />
             </Keyframes>
            </InterpolatingParam>
            <InterpolatingParam id="1662" interp="linr"  >
             <Keyframes>
             <Keyframe id="1663"  time="-9999999/1" value="0" leadInLength="0/1"  />
             <Keyframe id="1664"  time="55407783607/11093598" value="0" leadInLength="23752960/616311"  interpolater="leadin-linr"  />
             <Keyframe id="1665"  time="56832961207/11093598" value="0" leadInLength="23752960/616311"  interpolater="leadin-linr"  />
             </Keyframes>
            </InterpolatingParam>
           </VectorParam>
           <VectorParam id="1666"  name="shear">
            <InterpolatingParam id="1667" interp="linr"  >
             <Keyframes>
             <Keyframe id="1668"  time="-9999999/1" value="0" leadInLength="0/1"  />
             <Keyframe id="1669"  time="55407783607/11093598" value="0" leadInLength="23752960/616311"  interpolater="leadin-linr"  />
             <Keyframe id="1670"  time="56832961207/11093598" value="0" leadInLength="23752960/616311"  interpolater="leadin-linr"  />
             </Keyframes>
            </InterpolatingParam>
            <InterpolatingParam id="1671" interp="linr"  >
             <Keyframes>
             <Keyframe id="1672"  time="-9999999/1" value="0" leadInLength="0/1"  />
             <Keyframe id="1673"  time="55407783607/11093598" value="0" leadInLength="23752960/616311"  interpolater="leadin-linr"  />
             <Keyframe id="1674"  time="56832961207/11093598" value="0" leadInLength="23752960/616311"  interpolater="leadin-linr"  />
             </Keyframes>
            </InterpolatingParam>
            <InterpolatingParam id="1675" interp="linr"  >
             <Keyframes>
             <Keyframe id="1676"  time="-9999999/1" value="0" leadInLength="0/1"  />
             <Keyframe id="1677"  time="55407783607/11093598" value="0" leadInLength="23752960/616311"  interpolater="leadin-linr"  />
             <Keyframe id="1678"  time="56832961207/11093598" value="0" leadInLength="23752960/616311"  interpolater="leadin-linr"  />
             </Keyframes>
            </InterpolatingParam>
           </VectorParam>
           <VectorParam id="1679"  name="scale">
            <InterpolatingParam id="1680" interp="linr"  >
             <Keyframes>
             <Keyframe id="1681"  time="-9999999/1" value="1" leadInLength="0/1"  />
             <Keyframe id="1682"  time="55407783607/11093598" value="1.9007936507938752" leadInLength="23752960/616311"  interpolater="leadin-linr"  />
             <Keyframe id="1683"  time="56832961207/11093598" value="1.9007936507938752" leadInLength="23752960/616311"  interpolater="leadin-linr"  />
             </Keyframes>
            </InterpolatingParam>
            <InterpolatingParam id="1684" interp="linr"  >
             <Keyframes>
             <Keyframe id="1685"  time="-9999999/1" value="1" leadInLength="0/1"  />
             <Keyframe id="1686"  time="55407783607/11093598" value="1.900793650793875" leadInLength="23752960/616311"  interpolater="leadin-linr"  />
             <Keyframe id="1687"  time="56832961207/11093598" value="1.900793650793875" leadInLength="23752960/616311"  interpolater="leadin-linr"  />
             </Keyframes>
            </InterpolatingParam>
            <InterpolatingParam id="1688" interp="linr"  >
             <Keyframes>
             <Keyframe id="1689"  time="-9999999/1" value="1" leadInLength="0/1"  />
             <Keyframe id="1690"  time="55407783607/11093598" value="1" leadInLength="23752960/616311"  interpolater="leadin-linr"  />
             <Keyframe id="1691"  time="56832961207/11093598" value="1" leadInLength="23752960/616311"  interpolater="leadin-linr"  />
             </Keyframes>
            </InterpolatingParam>
           </VectorParam>
           <VectorParam id="1692"  name="anchor">
            <InterpolatingParam id="1693" interp="linr"  time="0/1" value="0" leadInLength="0/1"  />
            <InterpolatingParam id="1694" interp="linr"  time="0/1" value="0" leadInLength="0/1"  />
            <InterpolatingParam id="1695" interp="linr"  time="0/1" value="0" leadInLength="0/1"  />
           </VectorParam>
          </Transformer>
          <Parameters>
           <VectorParam id="1696"  name="sourceCrop">
            <InterpolatingParam id="1697" interp="linr"  time="0/1" value="0" leadInLength="0/1"  />
            <InterpolatingParam id="1698" interp="linr"  time="0/1" value="0" leadInLength="0/1"  />
            <InterpolatingParam id="1699" interp="linr"  time="0/1" value="0" leadInLength="0/1"  />
            <InterpolatingParam id="1700" interp="linr"  time="0/1" value="0" leadInLength="0/1"  />
           </VectorParam>
           <VectorParam id="1701"  name="geometryCrop">
            <InterpolatingParam id="1702" interp="linr"  >
             <Keyframes>
             <Keyframe id="1703"  time="-9999999/1" value="0" leadInLength="0/1"  />
             <Keyframe id="1704"  time="55407783607/11093598" value="0" leadInLength="23752960/616311"  interpolater="leadin-linr"  />
             <Keyframe id="1705"  time="56832961207/11093598" value="0" leadInLength="23752960/616311"  interpolater="leadin-linr"  />
             </Keyframes>
            </InterpolatingParam>
            <InterpolatingParam id="1706" interp="linr"  >
             <Keyframes>
             <Keyframe id="1707"  time="-9999999/1" value="0" leadInLength="0/1"  />
             <Keyframe id="1708"  time="55407783607/11093598" value="0" leadInLength="23752960/616311"  interpolater="leadin-linr"  />
             <Keyframe id="1709"  time="56832961207/11093598" value="0" leadInLength="23752960/616311"  interpolater="leadin-linr"  />
             </Keyframes>
            </InterpolatingParam>
            <InterpolatingParam id="1710" interp="linr"  >
             <Keyframes>
             <Keyframe id="1711"  time="-9999999/1" value="0" leadInLength="0/1"  />
             <Keyframe id="1712"  time="55407783607/11093598" value="0" leadInLength="23752960/616311"  interpolater="leadin-linr"  />
             <Keyframe id="1713"  time="56832961207/11093598" value="0" leadInLength="23752960/616311"  interpolater="leadin-linr"  />
             </Keyframes>
            </InterpolatingParam>
            <InterpolatingParam id="1714" interp="linr"  >
             <Keyframes>
             <Keyframe id="1715"  time="-9999999/1" value="0" leadInLength="0/1"  />
             <Keyframe id="1716"  time="55407783607/11093598" value="0" leadInLength="23752960/616311"  interpolater="leadin-linr"  />
             <Keyframe id="1717"  time="56832961207/11093598" value="0" leadInLength="23752960/616311"  interpolater="leadin-linr"  />
             </Keyframes>
            </InterpolatingParam>
           </VectorParam>
           <InterpolatingParam id="1718" interp="linr"  name="opacity">
            <Keyframes>
            <Keyframe id="1719"  time="-9999999/1" value="1" leadInLength="0/1"  />
            <Keyframe id="1720"  time="55407783607/11093598" value="1" leadInLength="23752960/616311"  interpolater="leadin-linr"  />
            <Keyframe id="1721"  time="56832961207/11093598" value="1" leadInLength="23752960/616311"  interpolater="leadin-linr"  />
            </Keyframes>
           </InterpolatingParam>
          </Parameters>
          <Attributes>
           <Attribute id="1722" value="" name="ident"/>
          </Attributes>
          <ExtraData>
           <Entry key="ZoomPanBin">
            <ZoomPanBin id="1723"  >
             <ZoomPanKeyframes>
              <ZoomPanKeyframe id="1724" timeRangeEnd="-9999999/1" timeRangeDuration="0/1" interpolaterName="linr"  />
              <ZoomPanKeyframe id="1725" timeRangeEnd="55407783607/11093598" timeRangeDuration="23752960/616311" interpolaterName="linr"  />
              <ZoomPanKeyframe id="1726" timeRangeEnd="56832961207/11093598" timeRangeDuration="23752960/616311" interpolaterName="linr"  />
             </ZoomPanKeyframes>
            </ZoomPanBin>
           </Entry>
          </ExtraData>
         </VMFile>
         <MetaData>
          <entry key="WinSubProjectDisplayName" val=""/>
         </MetaData>
        </UnifiedMedia>
        <UnifiedMedia id="1727"  >
         <AMFile id="1728" start="5057" duration="235" scalar="198810/99533" mediaStart="4599151/846" mediaDuration="99533/846" trackNumber="1" src="21" channelNumber="0,1" >
          <Parameters>
           <InterpolatingParam id="1729" interp="linr"  name="volume">
            <Keyframes>
            <Keyframe id="1730"  time="-1/1" value="1" leadInLength="0/1"  />
            <Keyframe id="1731"  time="0/1" value="0" leadInLength="0/1"  />
            <Keyframe id="1732"  time="8952/1" value="0" leadInLength="0/1"  />
            <Keyframe id="1733"  time="8953/1" value="1" leadInLength="0/1"  />
            </Keyframes>
           </InterpolatingParam>
           <Parameter id="1734"  name="captions"/>
          </Parameters>
          <Attributes>
           <Attribute id="1735" value="" name="ident"/>
           <Attribute id="1736" value="44100" name="sampleRate"/>
           <Attribute id="1737" value="16" name="bitDepth"/>
           <Attribute id="1738" value="1" name="gain"/>
           <Attribute id="1739" value="0" name="mixToMono"/>
          </Attributes>
         </AMFile>
         <VMFile id="1740" start="5057" duration="235" scalar="198810/99533" mediaStart="4599151/846" mediaDuration="99533/846" trackNumber="0" src="21" >
          <Transformer>
           <VectorParam id="1741"  name="translation">
            <InterpolatingParam id="1742" interp="linr"  time="-9999999/1" value="85.229832572519584" leadInLength="0/1"  />
            <InterpolatingParam id="1743" interp="linr"  time="-9999999/1" value="-43.000000000684111" leadInLength="0/1"  />
            <InterpolatingParam id="1744" interp="linr"  time="-9999999/1" value="0" leadInLength="0/1"  />
           </VectorParam>
           <VectorParam id="1745"  name="rotation">
            <InterpolatingParam id="1746" interp="linr"  time="-9999999/1" value="0" leadInLength="0/1"  />
            <InterpolatingParam id="1747" interp="linr"  time="-9999999/1" value="0" leadInLength="0/1"  />
            <InterpolatingParam id="1748" interp="linr"  time="-9999999/1" value="0" leadInLength="0/1"  />
           </VectorParam>
           <VectorParam id="1749"  name="shear">
            <InterpolatingParam id="1750" interp="linr"  time="-9999999/1" value="0" leadInLength="0/1"  />
            <InterpolatingParam id="1751" interp="linr"  time="-9999999/1" value="0" leadInLength="0/1"  />
            <InterpolatingParam id="1752" interp="linr"  time="-9999999/1" value="0" leadInLength="0/1"  />
           </VectorParam>
           <VectorParam id="1753"  name="scale">
            <InterpolatingParam id="1754" interp="linr"  time="-9999999/1" value="1.1331716133942695" leadInLength="0/1"  />
            <InterpolatingParam id="1755" interp="linr"  time="-9999999/1" value="1.1416666666687518" leadInLength="0/1"  />
            <InterpolatingParam id="1756" interp="linr"  time="-9999999/1" value="1" leadInLength="0/1"  />
           </VectorParam>
           <VectorParam id="1757"  name="anchor">
            <InterpolatingParam id="1758" interp="linr"  time="0/1" value="0" leadInLength="0/1"  />
            <InterpolatingParam id="1759" interp="linr"  time="0/1" value="0" leadInLength="0/1"  />
            <InterpolatingParam id="1760" interp="linr"  time="0/1" value="0" leadInLength="0/1"  />
           </VectorParam>
          </Transformer>
          <Parameters>
           <VectorParam id="1761"  name="sourceCrop">
            <InterpolatingParam id="1762" interp="linr"  time="0/1" value="0" leadInLength="0/1"  />
            <InterpolatingParam id="1763" interp="linr"  time="0/1" value="0" leadInLength="0/1"  />
            <InterpolatingParam id="1764" interp="linr"  time="0/1" value="0" leadInLength="0/1"  />
            <InterpolatingParam id="1765" interp="linr"  time="0/1" value="0" leadInLength="0/1"  />
           </VectorParam>
           <VectorParam id="1766"  name="geometryCrop">
            <InterpolatingParam id="1767" interp="linr"  time="-9999999/1" value="0" leadInLength="0/1"  />
            <InterpolatingParam id="1768" interp="linr"  time="-9999999/1" value="0" leadInLength="0/1"  />
            <InterpolatingParam id="1769" interp="linr"  time="-9999999/1" value="0" leadInLength="0/1"  />
            <InterpolatingParam id="1770" interp="linr"  time="-9999999/1" value="0" leadInLength="0/1"  />
           </VectorParam>
           <InterpolatingParam id="1771" interp="linr"  time="-9999999/1" value="1" leadInLength="0/1"  name="opacity"/>
          </Parameters>
          <Attributes>
           <Attribute id="1772" value="" name="ident"/>
          </Attributes>
          <ExtraData>
           <Entry key="ZoomPanBin">
            <ZoomPanBin id="1773"  >
             <ZoomPanKeyframes>
              <ZoomPanKeyframe id="1774" timeRangeEnd="-9999999/1" timeRangeDuration="0/1" interpolaterName="linr"  />
             </ZoomPanKeyframes>
            </ZoomPanBin>
           </Entry>
          </ExtraData>
         </VMFile>
         <MetaData>
          <entry key="WinSubProjectDisplayName" val=""/>
         </MetaData>
        </UnifiedMedia>
        <UnifiedMedia id="1775"  >
         <AMFile id="1776" start="5292" duration="314" scalar="106289/69085" mediaStart="5582/1" mediaDuration="138170/677" trackNumber="1" src="21" channelNumber="0,1" >
          <Parameters>
           <InterpolatingParam id="1777" interp="linr"  name="volume">
            <Keyframes>
            <Keyframe id="1778"  time="-1/1" value="1" leadInLength="0/1"  />
            <Keyframe id="1779"  time="0/1" value="0" leadInLength="0/1"  />
            <Keyframe id="1780"  time="8952/1" value="0" leadInLength="0/1"  />
            <Keyframe id="1781"  time="8953/1" value="1" leadInLength="0/1"  />
            </Keyframes>
           </InterpolatingParam>
           <Parameter id="1782"  name="captions"/>
          </Parameters>
          <Attributes>
           <Attribute id="1783" value="" name="ident"/>
           <Attribute id="1784" value="44100" name="sampleRate"/>
           <Attribute id="1785" value="16" name="bitDepth"/>
           <Attribute id="1786" value="1" name="gain"/>
           <Attribute id="1787" value="0" name="mixToMono"/>
          </Attributes>
         </AMFile>
         <VMFile id="1788" start="5292" duration="314" scalar="106289/69085" mediaStart="5582/1" mediaDuration="138170/677" trackNumber="0" src="21" >
          <Transformer>
           <VectorParam id="1789"  name="translation">
            <InterpolatingParam id="1790" interp="linr"  time="-9999999/1" value="85.229832572372999" leadInLength="0/1"  />
            <InterpolatingParam id="1791" interp="linr"  time="-9999999/1" value="-41.000000000695515" leadInLength="0/1"  />
            <InterpolatingParam id="1792" interp="linr"  time="-9999999/1" value="0" leadInLength="0/1"  />
           </VectorParam>
           <VectorParam id="1793"  name="rotation">
            <InterpolatingParam id="1794" interp="linr"  time="-9999999/1" value="0" leadInLength="0/1"  />
            <InterpolatingParam id="1795" interp="linr"  time="-9999999/1" value="0" leadInLength="0/1"  />
            <InterpolatingParam id="1796" interp="linr"  time="-9999999/1" value="0" leadInLength="0/1"  />
           </VectorParam>
           <VectorParam id="1797"  name="shear">
            <InterpolatingParam id="1798" interp="linr"  time="-9999999/1" value="0" leadInLength="0/1"  />
            <InterpolatingParam id="1799" interp="linr"  time="-9999999/1" value="0" leadInLength="0/1"  />
            <InterpolatingParam id="1800" interp="linr"  time="-9999999/1" value="0" leadInLength="0/1"  />
           </VectorParam>
           <VectorParam id="1801"  name="scale">
            <InterpolatingParam id="1802" interp="linr"  time="-9999999/1" value="1.1331716133945224" leadInLength="0/1"  />
            <InterpolatingParam id="1803" interp="linr"  time="-9999999/1" value="1.1331716133945229" leadInLength="0/1"  />
            <InterpolatingParam id="1804" interp="linr"  time="-9999999/1" value="1" leadInLength="0/1"  />
           </VectorParam>
           <VectorParam id="1805"  name="anchor">
            <InterpolatingParam id="1806" interp="linr"  time="0/1" value="0" leadInLength="0/1"  />
            <InterpolatingParam id="1807" interp="linr"  time="0/1" value="0" leadInLength="0/1"  />
            <InterpolatingParam id="1808" interp="linr"  time="0/1" value="0" leadInLength="0/1"  />
           </VectorParam>
          </Transformer>
          <Parameters>
           <VectorParam id="1809"  name="sourceCrop">
            <InterpolatingParam id="1810" interp="linr"  time="0/1" value="0" leadInLength="0/1"  />
            <InterpolatingParam id="1811" interp="linr"  time="0/1" value="0" leadInLength="0/1"  />
            <InterpolatingParam id="1812" interp="linr"  time="0/1" value="0" leadInLength="0/1"  />
            <InterpolatingParam id="1813" interp="linr"  time="0/1" value="0" leadInLength="0/1"  />
           </VectorParam>
           <VectorParam id="1814"  name="geometryCrop">
            <InterpolatingParam id="1815" interp="linr"  time="-9999999/1" value="0" leadInLength="0/1"  />
            <InterpolatingParam id="1816" interp="linr"  time="-9999999/1" value="0" leadInLength="0/1"  />
            <InterpolatingParam id="1817" interp="linr"  time="-9999999/1" value="0" leadInLength="0/1"  />
            <InterpolatingParam id="1818" interp="linr"  time="-9999999/1" value="0" leadInLength="0/1"  />
           </VectorParam>
           <InterpolatingParam id="1819" interp="linr"  time="-9999999/1" value="1" leadInLength="0/1"  name="opacity"/>
          </Parameters>
          <Attributes>
           <Attribute id="1820" value="" name="ident"/>
          </Attributes>
          <ExtraData>
           <Entry key="ZoomPanBin">
            <ZoomPanBin id="1821"  >
             <ZoomPanKeyframes>
              <ZoomPanKeyframe id="1822" timeRangeEnd="-9999999/1" timeRangeDuration="0/1" interpolaterName="linr"  />
             </ZoomPanKeyframes>
            </ZoomPanBin>
           </Entry>
          </ExtraData>
         </VMFile>
         <MetaData>
          <entry key="WinSubProjectDisplayName" val=""/>
         </MetaData>
        </UnifiedMedia>
        <UnifiedMedia id="1823"  >
         <AMFile id="1824" start="5606" duration="98" scalar="17681209/8930500" mediaStart="3917184/677" mediaDuration="17861000/360841" trackNumber="1" src="21" channelNumber="0,1" >
          <Parameters>
           <InterpolatingParam id="1825" interp="linr"  name="volume">
            <Keyframes>
            <Keyframe id="1826"  time="-1/1" value="1" leadInLength="0/1"  />
            <Keyframe id="1827"  time="0/1" value="0" leadInLength="0/1"  />
            <Keyframe id="1828"  time="8952/1" value="0" leadInLength="0/1"  />
            <Keyframe id="1829"  time="8953/1" value="1" leadInLength="0/1"  />
            </Keyframes>
           </InterpolatingParam>
           <Parameter id="1830"  name="captions"/>
          </Parameters>
          <Attributes>
           <Attribute id="1831" value="" name="ident"/>
           <Attribute id="1832" value="44100" name="sampleRate"/>
           <Attribute id="1833" value="16" name="bitDepth"/>
           <Attribute id="1834" value="1" name="gain"/>
           <Attribute id="1835" value="0" name="mixToMono"/>
          </Attributes>
         </AMFile>
         <VMFile id="1836" start="5606" duration="98" scalar="17681209/8930500" mediaStart="3917184/677" mediaDuration="17861000/360841" trackNumber="0" src="21" >
          <Transformer>
           <VectorParam id="1837"  name="translation">
            <InterpolatingParam id="1838" interp="linr"  >
             <Keyframes>
             <Keyframe id="1839"  time="-9999999/1" value="85.229832572511441" leadInLength="0/1"  />
             <Keyframe id="1840"  time="102796272028/17681209" value="0" leadInLength="410803000/17681209"  interpolater="leadin-linr"  />
             </Keyframes>
            </InterpolatingParam>
            <InterpolatingParam id="1841" interp="linr"  >
             <Keyframes>
             <Keyframe id="1842"  time="-9999999/1" value="-39.941780822010969" leadInLength="0/1"  />
             <Keyframe id="1843"  time="102796272028/17681209" value="0" leadInLength="410803000/17681209"  interpolater="leadin-linr"  />
             </Keyframes>
            </InterpolatingParam>
            <InterpolatingParam id="1844" interp="linr"  >
             <Keyframes>
             <Keyframe id="1845"  time="-9999999/1" value="0" leadInLength="0/1"  />
             <Keyframe id="1846"  time="102796272028/17681209" value="0" leadInLength="410803000/17681209"  interpolater="leadin-linr"  />
             </Keyframes>
            </InterpolatingParam>
           </VectorParam>
           <VectorParam id="1847"  name="rotation">
            <InterpolatingParam id="1848" interp="linr"  >
             <Keyframes>
             <Keyframe id="1849"  time="-9999999/1" value="0" leadInLength="0/1"  />
             <Keyframe id="1850"  time="102796272028/17681209" value="0" leadInLength="410803000/17681209"  interpolater="leadin-linr"  />
             </Keyframes>
            </InterpolatingParam>
            <InterpolatingParam id="1851" interp="linr"  >
             <Keyframes>
             <Keyframe id="1852"  time="-9999999/1" value="0" leadInLength="0/1"  />
             <Keyframe id="1853"  time="102796272028/17681209" value="0" leadInLength="410803000/17681209"  interpolater="leadin-linr"  />
             </Keyframes>
            </InterpolatingParam>
            <InterpolatingParam id="1854" interp="linr"  >
             <Keyframes>
             <Keyframe id="1855"  time="-9999999/1" value="0" leadInLength="0/1"  />
             <Keyframe id="1856"  time="102796272028/17681209" value="0" leadInLength="410803000/17681209"  interpolater="leadin-linr"  />
             </Keyframes>
            </InterpolatingParam>
           </VectorParam>
           <VectorParam id="1857"  name="shear">
            <InterpolatingParam id="1858" interp="linr"  >
             <Keyframes>
             <Keyframe id="1859"  time="-9999999/1" value="0" leadInLength="0/1"  />
             <Keyframe id="1860"  time="102796272028/17681209" value="0" leadInLength="410803000/17681209"  interpolater="leadin-linr"  />
             </Keyframes>
            </InterpolatingParam>
            <InterpolatingParam id="1861" interp="linr"  >
             <Keyframes>
             <Keyframe id="1862"  time="-9999999/1" value="0" leadInLength="0/1"  />
             <Keyframe id="1863"  time="102796272028/17681209" value="0" leadInLength="410803000/17681209"  interpolater="leadin-linr"  />
             </Keyframes>
            </InterpolatingParam>
            <InterpolatingParam id="1864" interp="linr"  >
             <Keyframes>
             <Keyframe id="1865"  time="-9999999/1" value="0" leadInLength="0/1"  />
             <Keyframe id="1866"  time="102796272028/17681209" value="0" leadInLength="410803000/17681209"  interpolater="leadin-linr"  />
             </Keyframes>
            </InterpolatingParam>
           </VectorParam>
           <VectorParam id="1867"  name="scale">
            <InterpolatingParam id="1868" interp="linr"  >
             <Keyframes>
             <Keyframe id="1869"  time="-9999999/1" value="1.1331716133945653" leadInLength="0/1"  />
             <Keyframe id="1870"  time="102796272028/17681209" value="1" leadInLength="410803000/17681209"  interpolater="leadin-linr"  />
             </Keyframes>
            </InterpolatingParam>
            <InterpolatingParam id="1871" interp="linr"  >
             <Keyframes>
             <Keyframe id="1872"  time="-9999999/1" value="1.1331716133945653" leadInLength="0/1"  />
             <Keyframe id="1873"  time="102796272028/17681209" value="1" leadInLength="410803000/17681209"  interpolater="leadin-linr"  />
             </Keyframes>
            </InterpolatingParam>
            <InterpolatingParam id="1874" interp="linr"  >
             <Keyframes>
             <Keyframe id="1875"  time="-9999999/1" value="1" leadInLength="0/1"  />
             <Keyframe id="1876"  time="102796272028/17681209" value="1" leadInLength="410803000/17681209"  interpolater="leadin-linr"  />
             </Keyframes>
            </InterpolatingParam>
           </VectorParam>
           <VectorParam id="1877"  name="anchor">
            <InterpolatingParam id="1878" interp="linr"  time="0/1" value="0" leadInLength="0/1"  />
            <InterpolatingParam id="1879" interp="linr"  time="0/1" value="0" leadInLength="0/1"  />
            <InterpolatingParam id="1880" interp="linr"  time="0/1" value="0" leadInLength="0/1"  />
           </VectorParam>
          </Transformer>
          <Parameters>
           <VectorParam id="1881"  name="sourceCrop">
            <InterpolatingParam id="1882" interp="linr"  time="0/1" value="0" leadInLength="0/1"  />
            <InterpolatingParam id="1883" interp="linr"  time="0/1" value="0" leadInLength="0/1"  />
            <InterpolatingParam id="1884" interp="linr"  time="0/1" value="0" leadInLength="0/1"  />
            <InterpolatingParam id="1885" interp="linr"  time="0/1" value="0" leadInLength="0/1"  />
           </VectorParam>
           <VectorParam id="1886"  name="geometryCrop">
            <InterpolatingParam id="1887" interp="linr"  >
             <Keyframes>
             <Keyframe id="1888"  time="-9999999/1" value="0" leadInLength="0/1"  />
             <Keyframe id="1889"  time="102796272028/17681209" value="0" leadInLength="410803000/17681209"  interpolater="leadin-linr"  />
             </Keyframes>
            </InterpolatingParam>
            <InterpolatingParam id="1890" interp="linr"  >
             <Keyframes>
             <Keyframe id="1891"  time="-9999999/1" value="0" leadInLength="0/1"  />
             <Keyframe id="1892"  time="102796272028/17681209" value="0" leadInLength="410803000/17681209"  interpolater="leadin-linr"  />
             </Keyframes>
            </InterpolatingParam>
            <InterpolatingParam id="1893" interp="linr"  >
             <Keyframes>
             <Keyframe id="1894"  time="-9999999/1" value="0" leadInLength="0/1"  />
             <Keyframe id="1895"  time="102796272028/17681209" value="0" leadInLength="410803000/17681209"  interpolater="leadin-linr"  />
             </Keyframes>
            </InterpolatingParam>
            <InterpolatingParam id="1896" interp="linr"  >
             <Keyframes>
             <Keyframe id="1897"  time="-9999999/1" value="0" leadInLength="0/1"  />
             <Keyframe id="1898"  time="102796272028/17681209" value="0" leadInLength="410803000/17681209"  interpolater="leadin-linr"  />
             </Keyframes>
            </InterpolatingParam>
           </VectorParam>
           <InterpolatingParam id="1899" interp="linr"  name="opacity">
            <Keyframes>
            <Keyframe id="1900"  time="-9999999/1" value="1" leadInLength="0/1"  />
            <Keyframe id="1901"  time="102796272028/17681209" value="1" leadInLength="410803000/17681209"  interpolater="leadin-linr"  />
            </Keyframes>
           </InterpolatingParam>
          </Parameters>
          <Attributes>
           <Attribute id="1902" value="" name="ident"/>
          </Attributes>
          <ExtraData>
           <Entry key="ZoomPanBin">
            <ZoomPanBin id="1903"  >
             <ZoomPanKeyframes>
              <ZoomPanKeyframe id="1904" timeRangeEnd="-9999999/1" timeRangeDuration="0/1" interpolaterName="linr"  />
              <ZoomPanKeyframe id="1905" timeRangeEnd="102796272028/17681209" timeRangeDuration="410803000/17681209" interpolaterName="linr"  />
             </ZoomPanKeyframes>
            </ZoomPanBin>
           </Entry>
          </ExtraData>
         </VMFile>
         <MetaData>
          <entry key="WinSubProjectDisplayName" val=""/>
         </MetaData>
        </UnifiedMedia>
        <UnifiedMedia id="1906"  >
         <AMFile id="1907" start="5704" duration="151" scalar="1328951/1428880" mediaStart="2105720072/360841" mediaDuration="1428880/8801" trackNumber="1" src="21" channelNumber="0,1" >
          <Parameters>
           <InterpolatingParam id="1908" interp="linr"  name="volume">
            <Keyframes>
            <Keyframe id="1909"  time="-1/1" value="1" leadInLength="0/1"  />
            <Keyframe id="1910"  time="0/1" value="0" leadInLength="0/1"  />
            <Keyframe id="1911"  time="8952/1" value="0" leadInLength="0/1"  />
            <Keyframe id="1912"  time="8953/1" value="1" leadInLength="0/1"  />
            </Keyframes>
           </InterpolatingParam>
           <Parameter id="1913"  name="captions"/>
          </Parameters>
          <Attributes>
           <Attribute id="1914" value="" name="ident"/>
           <Attribute id="1915" value="44100" name="sampleRate"/>
           <Attribute id="1916" value="16" name="bitDepth"/>
           <Attribute id="1917" value="1" name="gain"/>
           <Attribute id="1918" value="0" name="mixToMono"/>
          </Attributes>
         </AMFile>
         <VMFile id="1919" start="5704" duration="151" scalar="1328951/1428880" mediaStart="2105720072/360841" mediaDuration="1428880/8801" trackNumber="0" src="21" >
          <Transformer>
           <VectorParam id="1920"  name="translation">
            <InterpolatingParam id="1921" interp="linr"  time="-9999999/1" value="0" leadInLength="0/1"  />
            <InterpolatingParam id="1922" interp="linr"  time="-9999999/1" value="0" leadInLength="0/1"  />
            <InterpolatingParam id="1923" interp="linr"  time="-9999999/1" value="0" leadInLength="0/1"  />
           </VectorParam>
           <VectorParam id="1924"  name="rotation">
            <InterpolatingParam id="1925" interp="linr"  time="-9999999/1" value="0" leadInLength="0/1"  />
            <InterpolatingParam id="1926" interp="linr"  time="-9999999/1" value="0" leadInLength="0/1"  />
            <InterpolatingParam id="1927" interp="linr"  time="-9999999/1" value="0" leadInLength="0/1"  />
           </VectorParam>
           <VectorParam id="1928"  name="shear">
            <InterpolatingParam id="1929" interp="linr"  time="-9999999/1" value="0" leadInLength="0/1"  />
            <InterpolatingParam id="1930" interp="linr"  time="-9999999/1" value="0" leadInLength="0/1"  />
            <InterpolatingParam id="1931" interp="linr"  time="-9999999/1" value="0" leadInLength="0/1"  />
           </VectorParam>
           <VectorParam id="1932"  name="scale">
            <InterpolatingParam id="1933" interp="linr"  time="-9999999/1" value="1" leadInLength="0/1"  />
            <InterpolatingParam id="1934" interp="linr"  time="-9999999/1" value="1" leadInLength="0/1"  />
            <InterpolatingParam id="1935" interp="linr"  time="-9999999/1" value="1" leadInLength="0/1"  />
           </VectorParam>
           <VectorParam id="1936"  name="anchor">
            <InterpolatingParam id="1937" interp="linr"  time="0/1" value="0" leadInLength="0/1"  />
            <InterpolatingParam id="1938" interp="linr"  time="0/1" value="0" leadInLength="0/1"  />
            <InterpolatingParam id="1939" interp="linr"  time="0/1" value="0" leadInLength="0/1"  />
           </VectorParam>
          </Transformer>
          <Parameters>
           <VectorParam id="1940"  name="sourceCrop">
            <InterpolatingParam id="1941" interp="linr"  time="0/1" value="0" leadInLength="0/1"  />
            <InterpolatingParam id="1942" interp="linr"  time="0/1" value="0" leadInLength="0/1"  />
            <InterpolatingParam id="1943" interp="linr"  time="0/1" value="0" leadInLength="0/1"  />
            <InterpolatingParam id="1944" interp="linr"  time="0/1" value="0" leadInLength="0/1"  />
           </VectorParam>
           <VectorParam id="1945"  name="geometryCrop">
            <InterpolatingParam id="1946" interp="linr"  time="-9999999/1" value="0" leadInLength="0/1"  />
            <InterpolatingParam id="1947" interp="linr"  time="-9999999/1" value="0" leadInLength="0/1"  />
            <InterpolatingParam id="1948" interp="linr"  time="-9999999/1" value="0" leadInLength="0/1"  />
            <InterpolatingParam id="1949" interp="linr"  time="-9999999/1" value="0" leadInLength="0/1"  />
           </VectorParam>
           <InterpolatingParam id="1950" interp="linr"  time="-9999999/1" value="1" leadInLength="0/1"  name="opacity"/>
          </Parameters>
          <Attributes>
           <Attribute id="1951" value="" name="ident"/>
          </Attributes>
          <ExtraData>
           <Entry key="ZoomPanBin">
            <ZoomPanBin id="1952"  >
             <ZoomPanKeyframes>
              <ZoomPanKeyframe id="1953" timeRangeEnd="-9999999/1" timeRangeDuration="0/1" interpolaterName="linr"  />
             </ZoomPanKeyframes>
            </ZoomPanBin>
           </Entry>
          </ExtraData>
         </VMFile>
         <MetaData>
          <entry key="WinSubProjectDisplayName" val=""/>
         </MetaData>
        </UnifiedMedia>
        <UnifiedMedia id="1954"  >
         <AMFile id="1955" start="5855" duration="183" scalar="360841/357220" mediaStart="2164304152/360841" mediaDuration="65371260/360841" trackNumber="1" src="21" channelNumber="0,1" >
          <Parameters>
           <InterpolatingParam id="1956" interp="linr"  name="volume">
            <Keyframes>
            <Keyframe id="1957"  time="-1/1" value="1" leadInLength="0/1"  />
            <Keyframe id="1958"  time="0/1" value="0" leadInLength="0/1"  />
            <Keyframe id="1959"  time="8952/1" value="0" leadInLength="0/1"  />
            <Keyframe id="1960"  time="8953/1" value="1" leadInLength="0/1"  />
            </Keyframes>
           </InterpolatingParam>
           <Parameter id="1961"  name="captions"/>
          </Parameters>
          <Attributes>
           <Attribute id="1962" value="" name="ident"/>
           <Attribute id="1963" value="44100" name="sampleRate"/>
           <Attribute id="1964" value="16" name="bitDepth"/>
           <Attribute id="1965" value="1" name="gain"/>
           <Attribute id="1966" value="0" name="mixToMono"/>
          </Attributes>
         </AMFile>
         <VMFile id="1967" start="5855" duration="183" scalar="360841/357220" mediaStart="2164304152/360841" mediaDuration="65371260/360841" trackNumber="0" src="21" >
          <Transformer>
           <VectorParam id="1968"  name="translation">
            <InterpolatingParam id="1969" interp="linr"  >
             <Keyframes>
             <Keyframe id="1970"  time="-9999999/1" value="0" leadInLength="0/1"  />
             <Keyframe id="1971"  time="2173949092/360841" value="103.11111111129065" leadInLength="9644940/360841"  interpolater="leadin-linr"  />
             <Keyframe id="1972"  time="2215386612/360841" value="0" leadInLength="10716600/360841"  interpolater="leadin-linr"  />
             </Keyframes>
            </InterpolatingParam>
            <InterpolatingParam id="1973" interp="linr"  >
             <Keyframes>
             <Keyframe id="1974"  time="-9999999/1" value="0" leadInLength="0/1"  />
             <Keyframe id="1975"  time="2173949092/360841" value="-58.000000000100997" leadInLength="9644940/360841"  interpolater="leadin-linr"  />
             <Keyframe id="1976"  time="2215386612/360841" value="0" leadInLength="10716600/360841"  interpolater="leadin-linr"  />
             </Keyframes>
            </InterpolatingParam>
            <InterpolatingParam id="1977" interp="linr"  >
             <Keyframes>
             <Keyframe id="1978"  time="-9999999/1" value="0" leadInLength="0/1"  />
             <Keyframe id="1979"  time="2173949092/360841" value="0" leadInLength="9644940/360841"  interpolater="leadin-linr"  />
             <Keyframe id="1980"  time="2215386612/360841" value="0" leadInLength="10716600/360841"  interpolater="leadin-linr"  />
             </Keyframes>
            </InterpolatingParam>
           </VectorParam>
           <VectorParam id="1981"  name="rotation">
            <InterpolatingParam id="1982" interp="linr"  >
             <Keyframes>
             <Keyframe id="1983"  time="-9999999/1" value="0" leadInLength="0/1"  />
             <Keyframe id="1984"  time="2173949092/360841" value="0" leadInLength="9644940/360841"  interpolater="leadin-linr"  />
             <Keyframe id="1985"  time="2215386612/360841" value="0" leadInLength="10716600/360841"  interpolater="leadin-linr"  />
             </Keyframes>
            </InterpolatingParam>
            <InterpolatingParam id="1986" interp="linr"  >
             <Keyframes>
             <Keyframe id="1987"  time="-9999999/1" value="0" leadInLength="0/1"  />
             <Keyframe id="1988"  time="2173949092/360841" value="0" leadInLength="9644940/360841"  interpolater="leadin-linr"  />
             <Keyframe id="1989"  time="2215386612/360841" value="0" leadInLength="10716600/360841"  interpolater="leadin-linr"  />
             </Keyframes>
            </InterpolatingParam>
            <InterpolatingParam id="1990" interp="linr"  >
             <Keyframes>
             <Keyframe id="1991"  time="-9999999/1" value="0" leadInLength="0/1"  />
             <Keyframe id="1992"  time="2173949092/360841" value="0" leadInLength="9644940/360841"  interpolater="leadin-linr"  />
             <Keyframe id="1993"  time="2215386612/360841" value="0" leadInLength="10716600/360841"  interpolater="leadin-linr"  />
             </Keyframes>
            </InterpolatingParam>
           </VectorParam>
           <VectorParam id="1994"  name="shear">
            <InterpolatingParam id="1995" interp="linr"  >
             <Keyframes>
             <Keyframe id="1996"  time="-9999999/1" value="0" leadInLength="0/1"  />
             <Keyframe id="1997"  time="2173949092/360841" value="0" leadInLength="9644940/360841"  interpolater="leadin-linr"  />
             <Keyframe id="1998"  time="2215386612/360841" value="0" leadInLength="10716600/360841"  interpolater="leadin-linr"  />
             </Keyframes>
            </InterpolatingParam>
            <InterpolatingParam id="1999" interp="linr"  >
             <Keyframes>
             <Keyframe id="2000"  time="-9999999/1" value="0" leadInLength="0/1"  />
             <Keyframe id="2001"  time="2173949092/360841" value="0" leadInLength="9644940/360841"  interpolater="leadin-linr"  />
             <Keyframe id="2002"  time="2215386612/360841" value="0" leadInLength="10716600/360841"  interpolater="leadin-linr"  />
             </Keyframes>
            </InterpolatingParam>
            <InterpolatingParam id="2003" interp="linr"  >
             <Keyframes>
             <Keyframe id="2004"  time="-9999999/1" value="0" leadInLength="0/1"  />
             <Keyframe id="2005"  time="2173949092/360841" value="0" leadInLength="9644940/360841"  interpolater="leadin-linr"  />
             <Keyframe id="2006"  time="2215386612/360841" value="0" leadInLength="10716600/360841"  interpolater="leadin-linr"  />
             </Keyframes>
            </InterpolatingParam>
           </VectorParam>
           <VectorParam id="2007"  name="scale">
            <InterpolatingParam id="2008" interp="linr"  >
             <Keyframes>
             <Keyframe id="2009"  time="-9999999/1" value="1" leadInLength="0/1"  />
             <Keyframe id="2010"  time="2173949092/360841" value="1.1611111111113919" leadInLength="9644940/360841"  interpolater="leadin-linr"  />
             <Keyframe id="2011"  time="2215386612/360841" value="1" leadInLength="10716600/360841"  interpolater="leadin-linr"  />
             </Keyframes>
            </InterpolatingParam>
            <InterpolatingParam id="2012" interp="linr"  >
             <Keyframes>
             <Keyframe id="2013"  time="-9999999/1" value="1" leadInLength="0/1"  />
             <Keyframe id="2014"  time="2173949092/360841" value="1.1611111111113916" leadInLength="9644940/360841"  interpolater="leadin-linr"  />
             <Keyframe id="2015"  time="2215386612/360841" value="1" leadInLength="10716600/360841"  interpolater="leadin-linr"  />
             </Keyframes>
            </InterpolatingParam>
            <InterpolatingParam id="2016" interp="linr"  >
             <Keyframes>
             <Keyframe id="2017"  time="-9999999/1" value="1" leadInLength="0/1"  />
             <Keyframe id="2018"  time="2173949092/360841" value="1" leadInLength="9644940/360841"  interpolater="leadin-linr"  />
             <Keyframe id="2019"  time="2215386612/360841" value="1" leadInLength="10716600/360841"  interpolater="leadin-linr"  />
             </Keyframes>
            </InterpolatingParam>
           </VectorParam>
           <VectorParam id="2020"  name="anchor">
            <InterpolatingParam id="2021" interp="linr"  time="0/1" value="0" leadInLength="0/1"  />
            <InterpolatingParam id="2022" interp="linr"  time="0/1" value="0" leadInLength="0/1"  />
            <InterpolatingParam id="2023" interp="linr"  time="0/1" value="0" leadInLength="0/1"  />
           </VectorParam>
          </Transformer>
          <Parameters>
           <VectorParam id="2024"  name="sourceCrop">
            <InterpolatingParam id="2025" interp="linr"  time="0/1" value="0" leadInLength="0/1"  />
            <InterpolatingParam id="2026" interp="linr"  time="0/1" value="0" leadInLength="0/1"  />
            <InterpolatingParam id="2027" interp="linr"  time="0/1" value="0" leadInLength="0/1"  />
            <InterpolatingParam id="2028" interp="linr"  time="0/1" value="0" leadInLength="0/1"  />
           </VectorParam>
           <VectorParam id="2029"  name="geometryCrop">
            <InterpolatingParam id="2030" interp="linr"  >
             <Keyframes>
             <Keyframe id="2031"  time="-9999999/1" value="0" leadInLength="0/1"  />
             <Keyframe id="2032"  time="2173949092/360841" value="0" leadInLength="9644940/360841"  interpolater="leadin-linr"  />
             <Keyframe id="2033"  time="2215386612/360841" value="0" leadInLength="10716600/360841"  interpolater="leadin-linr"  />
             </Keyframes>
            </InterpolatingParam>
            <InterpolatingParam id="2034" interp="linr"  >
             <Keyframes>
             <Keyframe id="2035"  time="-9999999/1" value="0" leadInLength="0/1"  />
             <Keyframe id="2036"  time="2173949092/360841" value="0" leadInLength="9644940/360841"  interpolater="leadin-linr"  />
             <Keyframe id="2037"  time="2215386612/360841" value="0" leadInLength="10716600/360841"  interpolater="leadin-linr"  />
             </Keyframes>
            </InterpolatingParam>
            <InterpolatingParam id="2038" interp="linr"  >
             <Keyframes>
             <Keyframe id="2039"  time="-9999999/1" value="0" leadInLength="0/1"  />
             <Keyframe id="2040"  time="2173949092/360841" value="0" leadInLength="9644940/360841"  interpolater="leadin-linr"  />
             <Keyframe id="2041"  time="2215386612/360841" value="0" leadInLength="10716600/360841"  interpolater="leadin-linr"  />
             </Keyframes>
            </InterpolatingParam>
            <InterpolatingParam id="2042" interp="linr"  >
             <Keyframes>
             <Keyframe id="2043"  time="-9999999/1" value="0" leadInLength="0/1"  />
             <Keyframe id="2044"  time="2173949092/360841" value="0" leadInLength="9644940/360841"  interpolater="leadin-linr"  />
             <Keyframe id="2045"  time="2215386612/360841" value="0" leadInLength="10716600/360841"  interpolater="leadin-linr"  />
             </Keyframes>
            </InterpolatingParam>
           </VectorParam>
           <InterpolatingParam id="2046" interp="linr"  name="opacity">
            <Keyframes>
            <Keyframe id="2047"  time="-9999999/1" value="1" leadInLength="0/1"  />
            <Keyframe id="2048"  time="2173949092/360841" value="1" leadInLength="9644940/360841"  interpolater="leadin-linr"  />
            <Keyframe id="2049"  time="2215386612/360841" value="1" leadInLength="10716600/360841"  interpolater="leadin-linr"  />
            </Keyframes>
           </InterpolatingParam>
          </Parameters>
          <Attributes>
           <Attribute id="2050" value="" name="ident"/>
          </Attributes>
          <ExtraData>
           <Entry key="ZoomPanBin">
            <ZoomPanBin id="2051"  >
             <ZoomPanKeyframes>
              <ZoomPanKeyframe id="2052" timeRangeEnd="-9999999/1" timeRangeDuration="0/1" interpolaterName="linr"  />
              <ZoomPanKeyframe id="2053" timeRangeEnd="2173949092/360841" timeRangeDuration="9644940/360841" interpolaterName="linr"  />
              <ZoomPanKeyframe id="2054" timeRangeEnd="2215386612/360841" timeRangeDuration="10716600/360841" interpolaterName="linr"  />
             </ZoomPanKeyframes>
            </ZoomPanBin>
           </Entry>
          </ExtraData>
         </VMFile>
         <MetaData>
          <entry key="WinSubProjectDisplayName" val=""/>
         </MetaData>
        </UnifiedMedia>
        <UnifiedMedia id="2055"  >
         <AMFile id="2056" start="6038" duration="99" scalar="35723259/60727400" mediaStart="2243964212/360841" mediaDuration="60727400/360841" trackNumber="1" src="21" channelNumber="0,1" >
          <Parameters>
           <InterpolatingParam id="2057" interp="linr"  name="volume">
            <Keyframes>
            <Keyframe id="2058"  time="-1/1" value="1" leadInLength="0/1"  />
            <Keyframe id="2059"  time="0/1" value="0" leadInLength="0/1"  />
            <Keyframe id="2060"  time="8952/1" value="0" leadInLength="0/1"  />
            <Keyframe id="2061"  time="8953/1" value="1" leadInLength="0/1"  />
            </Keyframes>
           </InterpolatingParam>
           <Parameter id="2062"  name="captions"/>
          </Parameters>
          <Attributes>
           <Attribute id="2063" value="" name="ident"/>
           <Attribute id="2064" value="44100" name="sampleRate"/>
           <Attribute id="2065" value="16" name="bitDepth"/>
           <Attribute id="2066" value="1" name="gain"/>
           <Attribute id="2067" value="0" name="mixToMono"/>
          </Attributes>
         </AMFile>
         <VMFile id="2068" start="6038" duration="99" scalar="35723259/60727400" mediaStart="2243964212/360841" mediaDuration="60727400/360841" trackNumber="0" src="21" >
          <Transformer>
           <VectorParam id="2069"  name="translation">
            <InterpolatingParam id="2070" interp="linr"  time="-9999999/1" value="0" leadInLength="0/1"  />
            <InterpolatingParam id="2071" interp="linr"  time="-9999999/1" value="0" leadInLength="0/1"  />
            <InterpolatingParam id="2072" interp="linr"  time="-9999999/1" value="0" leadInLength="0/1"  />
           </VectorParam>
           <VectorParam id="2073"  name="rotation">
            <InterpolatingParam id="2074" interp="linr"  time="-9999999/1" value="0" leadInLength="0/1"  />
            <InterpolatingParam id="2075" interp="linr"  time="-9999999/1" value="0" leadInLength="0/1"  />
            <InterpolatingParam id="2076" interp="linr"  time="-9999999/1" value="0" leadInLength="0/1"  />
           </VectorParam>
           <VectorParam id="2077"  name="shear">
            <InterpolatingParam id="2078" interp="linr"  time="-9999999/1" value="0" leadInLength="0/1"  />
            <InterpolatingParam id="2079" interp="linr"  time="-9999999/1" value="0" leadInLength="0/1"  />
            <InterpolatingParam id="2080" interp="linr"  time="-9999999/1" value="0" leadInLength="0/1"  />
           </VectorParam>
           <VectorParam id="2081"  name="scale">
            <InterpolatingParam id="2082" interp="linr"  time="-9999999/1" value="1" leadInLength="0/1"  />
            <InterpolatingParam id="2083" interp="linr"  time="-9999999/1" value="1" leadInLength="0/1"  />
            <InterpolatingParam id="2084" interp="linr"  time="-9999999/1" value="1" leadInLength="0/1"  />
           </VectorParam>
           <VectorParam id="2085"  name="anchor">
            <InterpolatingParam id="2086" interp="linr"  time="0/1" value="0" leadInLength="0/1"  />
            <InterpolatingParam id="2087" interp="linr"  time="0/1" value="0" leadInLength="0/1"  />
            <InterpolatingParam id="2088" interp="linr"  time="0/1" value="0" leadInLength="0/1"  />
           </VectorParam>
          </Transformer>
          <Parameters>
           <VectorParam id="2089"  name="sourceCrop">
            <InterpolatingParam id="2090" interp="linr"  time="0/1" value="0" leadInLength="0/1"  />
            <InterpolatingParam id="2091" interp="linr"  time="0/1" value="0" leadInLength="0/1"  />
            <InterpolatingParam id="2092" interp="linr"  time="0/1" value="0" leadInLength="0/1"  />
            <InterpolatingParam id="2093" interp="linr"  time="0/1" value="0" leadInLength="0/1"  />
           </VectorParam>
           <VectorParam id="2094"  name="geometryCrop">
            <InterpolatingParam id="2095" interp="linr"  time="-9999999/1" value="0" leadInLength="0/1"  />
            <InterpolatingParam id="2096" interp="linr"  time="-9999999/1" value="0" leadInLength="0/1"  />
            <InterpolatingParam id="2097" interp="linr"  time="-9999999/1" value="0" leadInLength="0/1"  />
            <InterpolatingParam id="2098" interp="linr"  time="-9999999/1" value="0" leadInLength="0/1"  />
           </VectorParam>
           <InterpolatingParam id="2099" interp="linr"  time="-9999999/1" value="1" leadInLength="0/1"  name="opacity"/>
          </Parameters>
          <Attributes>
           <Attribute id="2100" value="" name="ident"/>
          </Attributes>
          <ExtraData>
           <Entry key="ZoomPanBin">
            <ZoomPanBin id="2101"  >
             <ZoomPanKeyframes>
              <ZoomPanKeyframe id="2102" timeRangeEnd="-9999999/1" timeRangeDuration="0/1" interpolaterName="linr"  />
             </ZoomPanKeyframes>
            </ZoomPanBin>
           </Entry>
          </ExtraData>
         </VMFile>
         <MetaData>
          <entry key="WinSubProjectDisplayName" val=""/>
         </MetaData>
        </UnifiedMedia>
        <UnifiedMedia id="2103"  >
         <AMFile id="2104" start="6137" duration="192" scalar="17320368/20450845" mediaStart="2304691612/360841" mediaDuration="81803380/360841" trackNumber="1" src="21" channelNumber="0,1" >
          <Parameters>
           <InterpolatingParam id="2105" interp="linr"  name="volume">
            <Keyframes>
            <Keyframe id="2106"  time="-1/1" value="1" leadInLength="0/1"  />
            <Keyframe id="2107"  time="0/1" value="0" leadInLength="0/1"  />
            <Keyframe id="2108"  time="8952/1" value="0" leadInLength="0/1"  />
            <Keyframe id="2109"  time="8953/1" value="1" leadInLength="0/1"  />
            </Keyframes>
           </InterpolatingParam>
           <Parameter id="2110"  name="captions"/>
          </Parameters>
          <Attributes>
           <Attribute id="2111" value="" name="ident"/>
           <Attribute id="2112" value="44100" name="sampleRate"/>
           <Attribute id="2113" value="16" name="bitDepth"/>
           <Attribute id="2114" value="1" name="gain"/>
           <Attribute id="2115" value="0" name="mixToMono"/>
          </Attributes>
         </AMFile>
         <VMFile id="2116" start="6137" duration="192" scalar="17320368/20450845" mediaStart="2304691612/360841" mediaDuration="81803380/360841" trackNumber="0" src="21" >
          <Transformer>
           <VectorParam id="2117"  name="translation">
            <InterpolatingParam id="2118" interp="linr"  time="-9999999/1" value="2.9084290531500294e-011" leadInLength="0/1"  />
            <InterpolatingParam id="2119" interp="linr"  time="-9999999/1" value="-1.9934276451749607e-011" leadInLength="0/1"  />
            <InterpolatingParam id="2120" interp="linr"  time="-9999999/1" value="0" leadInLength="0/1"  />
           </VectorParam>
           <VectorParam id="2121"  name="rotation">
            <InterpolatingParam id="2122" interp="linr"  time="-9999999/1" value="0" leadInLength="0/1"  />
            <InterpolatingParam id="2123" interp="linr"  time="-9999999/1" value="0" leadInLength="0/1"  />
            <InterpolatingParam id="2124" interp="linr"  time="-9999999/1" value="0" leadInLength="0/1"  />
           </VectorParam>
           <VectorParam id="2125"  name="shear">
            <InterpolatingParam id="2126" interp="linr"  time="-9999999/1" value="0" leadInLength="0/1"  />
            <InterpolatingParam id="2127" interp="linr"  time="-9999999/1" value="0" leadInLength="0/1"  />
            <InterpolatingParam id="2128" interp="linr"  time="-9999999/1" value="0" leadInLength="0/1"  />
           </VectorParam>
           <VectorParam id="2129"  name="scale">
            <InterpolatingParam id="2130" interp="linr"  time="-9999999/1" value="1.0000000000000002" leadInLength="0/1"  />
            <InterpolatingParam id="2131" interp="linr"  time="-9999999/1" value="1.0000000000000002" leadInLength="0/1"  />
            <InterpolatingParam id="2132" interp="linr"  time="-9999999/1" value="0.99999999999999989" leadInLength="0/1"  />
           </VectorParam>
           <VectorParam id="2133"  name="anchor">
            <InterpolatingParam id="2134" interp="linr"  time="0/1" value="0" leadInLength="0/1"  />
            <InterpolatingParam id="2135" interp="linr"  time="0/1" value="0" leadInLength="0/1"  />
            <InterpolatingParam id="2136" interp="linr"  time="0/1" value="0" leadInLength="0/1"  />
           </VectorParam>
          </Transformer>
          <Parameters>
           <VectorParam id="2137"  name="sourceCrop">
            <InterpolatingParam id="2138" interp="linr"  time="0/1" value="0" leadInLength="0/1"  />
            <InterpolatingParam id="2139" interp="linr"  time="0/1" value="0" leadInLength="0/1"  />
            <InterpolatingParam id="2140" interp="linr"  time="0/1" value="0" leadInLength="0/1"  />
            <InterpolatingParam id="2141" interp="linr"  time="0/1" value="0" leadInLength="0/1"  />
           </VectorParam>
           <VectorParam id="2142"  name="geometryCrop">
            <InterpolatingParam id="2143" interp="linr"  time="-9999999/1" value="0" leadInLength="0/1"  />
            <InterpolatingParam id="2144" interp="linr"  time="-9999999/1" value="0" leadInLength="0/1"  />
            <InterpolatingParam id="2145" interp="linr"  time="-9999999/1" value="0" leadInLength="0/1"  />
            <InterpolatingParam id="2146" interp="linr"  time="-9999999/1" value="0" leadInLength="0/1"  />
           </VectorParam>
           <InterpolatingParam id="2147" interp="linr"  time="-9999999/1" value="1" leadInLength="0/1"  name="opacity"/>
          </Parameters>
          <Attributes>
           <Attribute id="2148" value="" name="ident"/>
          </Attributes>
          <ExtraData>
           <Entry key="ZoomPanBin">
            <ZoomPanBin id="2149"  >
             <ZoomPanKeyframes>
              <ZoomPanKeyframe id="2150" timeRangeEnd="-9999999/1" timeRangeDuration="0/1" interpolaterName="linr"  />
             </ZoomPanKeyframes>
            </ZoomPanBin>
           </Entry>
          </ExtraData>
         </VMFile>
         <MetaData>
          <entry key="WinSubProjectDisplayName" val=""/>
         </MetaData>
        </UnifiedMedia>
        <UnifiedMedia id="2151"  >
         <AMFile id="2152" start="6329" duration="408" scalar="183131208/126902405" mediaStart="2386494992/360841" mediaDuration="126902405/448851" trackNumber="1" src="21" channelNumber="0,1" >
          <Parameters>
           <InterpolatingParam id="2153" interp="linr"  name="volume">
            <Keyframes>
            <Keyframe id="2154"  time="-1/1" value="1" leadInLength="0/1"  />
            <Keyframe id="2155"  time="0/1" value="0" leadInLength="0/1"  />
            <Keyframe id="2156"  time="8952/1" value="0" leadInLength="0/1"  />
            <Keyframe id="2157"  time="8953/1" value="1" leadInLength="0/1"  />
            </Keyframes>
           </InterpolatingParam>
           <Parameter id="2158"  name="captions"/>
          </Parameters>
          <Attributes>
           <Attribute id="2159" value="" name="ident"/>
           <Attribute id="2160" value="44100" name="sampleRate"/>
           <Attribute id="2161" value="16" name="bitDepth"/>
           <Attribute id="2162" value="1" name="gain"/>
           <Attribute id="2163" value="0" name="mixToMono"/>
          </Attributes>
         </AMFile>
         <VMFile id="2164" start="6329" duration="408" scalar="183131208/126902405" mediaStart="2386494992/360841" mediaDuration="126902405/448851" trackNumber="0" src="21" >
          <Transformer>
           <VectorParam id="2165"  name="translation">
            <InterpolatingParam id="2166" interp="linr"  >
             <Keyframes>
             <Keyframe id="2167"  time="-9999999/1" value="3.1974423109206266e-011" leadInLength="0/1"  />
             <Keyframe id="2168"  time="978892955341/147223128" value="18.81481481486836" leadInLength="380707215/20347912"  interpolater="leadin-linr"  />
             <Keyframe id="2169"  time="25864490619163/3754189764" value="3.1974423109206266e-011" leadInLength="3933974555/183131208"  interpolater="leadin-linr"  />
             </Keyframes>
            </InterpolatingParam>
            <InterpolatingParam id="2170" interp="linr"  >
             <Keyframes>
             <Keyframe id="2171"  time="-9999999/1" value="-5.2864379540551454e-012" leadInLength="0/1"  />
             <Keyframe id="2172"  time="978892955341/147223128" value="77.333333333204081" leadInLength="380707215/20347912"  interpolater="leadin-linr"  />
             <Keyframe id="2173"  time="25864490619163/3754189764" value="-5.2864379540551454e-012" leadInLength="3933974555/183131208"  interpolater="leadin-linr"  />
             </Keyframes>
            </InterpolatingParam>
            <InterpolatingParam id="2174" interp="linr"  >
             <Keyframes>
             <Keyframe id="2175"  time="-9999999/1" value="0" leadInLength="0/1"  />
             <Keyframe id="2176"  time="978892955341/147223128" value="-1.0231815394947705e-009" leadInLength="380707215/20347912"  interpolater="leadin-linr"  />
             <Keyframe id="2177"  time="25864490619163/3754189764" value="0" leadInLength="3933974555/183131208"  interpolater="leadin-linr"  />
             </Keyframes>
            </InterpolatingParam>
           </VectorParam>
           <VectorParam id="2178"  name="rotation">
            <InterpolatingParam id="2179" interp="linr"  >
             <Keyframes>
             <Keyframe id="2180"  time="-9999999/1" value="0" leadInLength="0/1"  />
             <Keyframe id="2181"  time="978892955341/147223128" value="0" leadInLength="380707215/20347912"  interpolater="leadin-linr"  />
             <Keyframe id="2182"  time="25864490619163/3754189764" value="0" leadInLength="3933974555/183131208"  interpolater="leadin-linr"  />
             </Keyframes>
            </InterpolatingParam>
            <InterpolatingParam id="2183" interp="linr"  >
             <Keyframes>
             <Keyframe id="2184"  time="-9999999/1" value="0" leadInLength="0/1"  />
             <Keyframe id="2185"  time="978892955341/147223128" value="0" leadInLength="380707215/20347912"  interpolater="leadin-linr"  />
             <Keyframe id="2186"  time="25864490619163/3754189764" value="0" leadInLength="3933974555/183131208"  interpolater="leadin-linr"  />
             </Keyframes>
            </InterpolatingParam>
            <InterpolatingParam id="2187" interp="linr"  >
             <Keyframes>
             <Keyframe id="2188"  time="-9999999/1" value="0" leadInLength="0/1"  />
             <Keyframe id="2189"  time="978892955341/147223128" value="0" leadInLength="380707215/20347912"  interpolater="leadin-linr"  />
             <Keyframe id="2190"  time="25864490619163/3754189764" value="0" leadInLength="3933974555/183131208"  interpolater="leadin-linr"  />
             </Keyframes>
            </InterpolatingParam>
           </VectorParam>
           <VectorParam id="2191"  name="shear">
            <InterpolatingParam id="2192" interp="linr"  >
             <Keyframes>
             <Keyframe id="2193"  time="-9999999/1" value="0" leadInLength="0/1"  />
             <Keyframe id="2194"  time="978892955341/147223128" value="0" leadInLength="380707215/20347912"  interpolater="leadin-linr"  />
             <Keyframe id="2195"  time="25864490619163/3754189764" value="0" leadInLength="3933974555/183131208"  interpolater="leadin-linr"  />
             </Keyframes>
            </InterpolatingParam>
            <InterpolatingParam id="2196" interp="linr"  >
             <Keyframes>
             <Keyframe id="2197"  time="-9999999/1" value="0" leadInLength="0/1"  />
             <Keyframe id="2198"  time="978892955341/147223128" value="0" leadInLength="380707215/20347912"  interpolater="leadin-linr"  />
             <Keyframe id="2199"  time="25864490619163/3754189764" value="0" leadInLength="3933974555/183131208"  interpolater="leadin-linr"  />
             </Keyframes>
            </InterpolatingParam>
            <InterpolatingParam id="2200" interp="linr"  >
             <Keyframes>
             <Keyframe id="2201"  time="-9999999/1" value="0" leadInLength="0/1"  />
             <Keyframe id="2202"  time="978892955341/147223128" value="0" leadInLength="380707215/20347912"  interpolater="leadin-linr"  />
             <Keyframe id="2203"  time="25864490619163/3754189764" value="0" leadInLength="3933974555/183131208"  interpolater="leadin-linr"  />
             </Keyframes>
            </InterpolatingParam>
           </VectorParam>
           <VectorParam id="2204"  name="scale">
            <InterpolatingParam id="2205" interp="linr"  >
             <Keyframes>
             <Keyframe id="2206"  time="-9999999/1" value="1" leadInLength="0/1"  />
             <Keyframe id="2207"  time="978892955341/147223128" value="1.2148148148149973" leadInLength="380707215/20347912"  interpolater="leadin-linr"  />
             <Keyframe id="2208"  time="25864490619163/3754189764" value="1" leadInLength="3933974555/183131208"  interpolater="leadin-linr"  />
             </Keyframes>
            </InterpolatingParam>
            <InterpolatingParam id="2209" interp="linr"  >
             <Keyframes>
             <Keyframe id="2210"  time="-9999999/1" value="1" leadInLength="0/1"  />
             <Keyframe id="2211"  time="978892955341/147223128" value="1.2148148148149973" leadInLength="380707215/20347912"  interpolater="leadin-linr"  />
             <Keyframe id="2212"  time="25864490619163/3754189764" value="1" leadInLength="3933974555/183131208"  interpolater="leadin-linr"  />
             </Keyframes>
            </InterpolatingParam>
            <InterpolatingParam id="2213" interp="linr"  >
             <Keyframes>
             <Keyframe id="2214"  time="-9999999/1" value="1" leadInLength="0/1"  />
             <Keyframe id="2215"  time="978892955341/147223128" value="1" leadInLength="380707215/20347912"  interpolater="leadin-linr"  />
             <Keyframe id="2216"  time="25864490619163/3754189764" value="1" leadInLength="3933974555/183131208"  interpolater="leadin-linr"  />
             </Keyframes>
            </InterpolatingParam>
           </VectorParam>
           <VectorParam id="2217"  name="anchor">
            <InterpolatingParam id="2218" interp="linr"  time="0/1" value="0" leadInLength="0/1"  />
            <InterpolatingParam id="2219" interp="linr"  time="0/1" value="0" leadInLength="0/1"  />
            <InterpolatingParam id="2220" interp="linr"  time="0/1" value="0" leadInLength="0/1"  />
           </VectorParam>
          </Transformer>
          <Parameters>
           <VectorParam id="2221"  name="sourceCrop">
            <InterpolatingParam id="2222" interp="linr"  time="0/1" value="0" leadInLength="0/1"  />
            <InterpolatingParam id="2223" interp="linr"  time="0/1" value="0" leadInLength="0/1"  />
            <InterpolatingParam id="2224" interp="linr"  time="0/1" value="0" leadInLength="0/1"  />
            <InterpolatingParam id="2225" interp="linr"  time="0/1" value="0" leadInLength="0/1"  />
           </VectorParam>
           <VectorParam id="2226"  name="geometryCrop">
            <InterpolatingParam id="2227" interp="linr"  >
             <Keyframes>
             <Keyframe id="2228"  time="-9999999/1" value="0" leadInLength="0/1"  />
             <Keyframe id="2229"  time="978892955341/147223128" value="0" leadInLength="380707215/20347912"  interpolater="leadin-linr"  />
             <Keyframe id="2230"  time="25864490619163/3754189764" value="0" leadInLength="3933974555/183131208"  interpolater="leadin-linr"  />
             </Keyframes>
            </InterpolatingParam>
            <InterpolatingParam id="2231" interp="linr"  >
             <Keyframes>
             <Keyframe id="2232"  time="-9999999/1" value="0" leadInLength="0/1"  />
             <Keyframe id="2233"  time="978892955341/147223128" value="0" leadInLength="380707215/20347912"  interpolater="leadin-linr"  />
             <Keyframe id="2234"  time="25864490619163/3754189764" value="0" leadInLength="3933974555/183131208"  interpolater="leadin-linr"  />
             </Keyframes>
            </InterpolatingParam>
            <InterpolatingParam id="2235" interp="linr"  >
             <Keyframes>
             <Keyframe id="2236"  time="-9999999/1" value="0" leadInLength="0/1"  />
             <Keyframe id="2237"  time="978892955341/147223128" value="0" leadInLength="380707215/20347912"  interpolater="leadin-linr"  />
             <Keyframe id="2238"  time="25864490619163/3754189764" value="0" leadInLength="3933974555/183131208"  interpolater="leadin-linr"  />
             </Keyframes>
            </InterpolatingParam>
            <InterpolatingParam id="2239" interp="linr"  >
             <Keyframes>
             <Keyframe id="2240"  time="-9999999/1" value="0" leadInLength="0/1"  />
             <Keyframe id="2241"  time="978892955341/147223128" value="0" leadInLength="380707215/20347912"  interpolater="leadin-linr"  />
             <Keyframe id="2242"  time="25864490619163/3754189764" value="0" leadInLength="3933974555/183131208"  interpolater="leadin-linr"  />
             </Keyframes>
            </InterpolatingParam>
           </VectorParam>
           <InterpolatingParam id="2243" interp="linr"  name="opacity">
            <Keyframes>
            <Keyframe id="2244"  time="-9999999/1" value="1" leadInLength="0/1"  />
            <Keyframe id="2245"  time="978892955341/147223128" value="1" leadInLength="380707215/20347912"  interpolater="leadin-linr"  />
            <Keyframe id="2246"  time="25864490619163/3754189764" value="1" leadInLength="3933974555/183131208"  interpolater="leadin-linr"  />
            </Keyframes>
           </InterpolatingParam>
          </Parameters>
          <Attributes>
           <Attribute id="2247" value="" name="ident"/>
          </Attributes>
          <ExtraData>
           <Entry key="ZoomPanBin">
            <ZoomPanBin id="2248"  >
             <ZoomPanKeyframes>
              <ZoomPanKeyframe id="2249" timeRangeEnd="-9999999/1" timeRangeDuration="0/1" interpolaterName="linr"  />
              <ZoomPanKeyframe id="2250" timeRangeEnd="25864490619163/3754189764" timeRangeDuration="3933974555/183131208" interpolaterName="linr"  />
              <ZoomPanKeyframe id="2251" timeRangeEnd="978892955341/147223128" timeRangeDuration="380707215/20347912" interpolaterName="linr"  />
             </ZoomPanKeyframes>
            </ZoomPanBin>
           </Entry>
          </ExtraData>
         </VMFile>
         <MetaData>
          <entry key="WinSubProjectDisplayName" val=""/>
         </MetaData>
        </UnifiedMedia>
        <UnifiedMedia id="2252"  >
         <AMFile id="2253" start="6737" duration="129" scalar="414245468/207312627" mediaStart="1431015388255/207122734" mediaDuration="26743328883/414245468" trackNumber="1" src="21" channelNumber="0,1" >
          <Parameters>
           <InterpolatingParam id="2254" interp="linr"  name="volume">
            <Keyframes>
            <Keyframe id="2255"  time="-1/1" value="1" leadInLength="0/1"  />
            <Keyframe id="2256"  time="0/1" value="0" leadInLength="0/1"  />
            <Keyframe id="2257"  time="8952/1" value="0" leadInLength="0/1"  />
            <Keyframe id="2258"  time="8953/1" value="1" leadInLength="0/1"  />
            </Keyframes>
           </InterpolatingParam>
           <Parameter id="2259"  name="captions"/>
          </Parameters>
          <Attributes>
           <Attribute id="2260" value="" name="ident"/>
           <Attribute id="2261" value="44100" name="sampleRate"/>
           <Attribute id="2262" value="16" name="bitDepth"/>
           <Attribute id="2263" value="1" name="gain"/>
           <Attribute id="2264" value="0" name="mixToMono"/>
          </Attributes>
         </AMFile>
         <VMFile id="2265" start="6737" duration="129" scalar="414245468/207312627" mediaStart="1431015388255/207122734" mediaDuration="26743328883/414245468" trackNumber="0" src="21" >
          <Transformer>
           <VectorParam id="2266"  name="translation">
            <InterpolatingParam id="2267" interp="linr"  time="-9999999/1" value="0" leadInLength="0/1"  />
            <InterpolatingParam id="2268" interp="linr"  time="-9999999/1" value="0" leadInLength="0/1"  />
            <InterpolatingParam id="2269" interp="linr"  time="-9999999/1" value="0" leadInLength="0/1"  />
           </VectorParam>
           <VectorParam id="2270"  name="rotation">
            <InterpolatingParam id="2271" interp="linr"  time="-9999999/1" value="0" leadInLength="0/1"  />
            <InterpolatingParam id="2272" interp="linr"  time="-9999999/1" value="0" leadInLength="0/1"  />
            <InterpolatingParam id="2273" interp="linr"  time="-9999999/1" value="0" leadInLength="0/1"  />
           </VectorParam>
           <VectorParam id="2274"  name="shear">
            <InterpolatingParam id="2275" interp="linr"  time="-9999999/1" value="0" leadInLength="0/1"  />
            <InterpolatingParam id="2276" interp="linr"  time="-9999999/1" value="0" leadInLength="0/1"  />
            <InterpolatingParam id="2277" interp="linr"  time="-9999999/1" value="0" leadInLength="0/1"  />
           </VectorParam>
           <VectorParam id="2278"  name="scale">
            <InterpolatingParam id="2279" interp="linr"  time="-9999999/1" value="1" leadInLength="0/1"  />
            <InterpolatingParam id="2280" interp="linr"  time="-9999999/1" value="1" leadInLength="0/1"  />
            <InterpolatingParam id="2281" interp="linr"  time="-9999999/1" value="1" leadInLength="0/1"  />
           </VectorParam>
           <VectorParam id="2282"  name="anchor">
            <InterpolatingParam id="2283" interp="linr"  time="0/1" value="0" leadInLength="0/1"  />
            <InterpolatingParam id="2284" interp="linr"  time="0/1" value="0" leadInLength="0/1"  />
            <InterpolatingParam id="2285" interp="linr"  time="0/1" value="0" leadInLength="0/1"  />
           </VectorParam>
          </Transformer>
          <Parameters>
           <VectorParam id="2286"  name="sourceCrop">
            <InterpolatingParam id="2287" interp="linr"  time="0/1" value="0" leadInLength="0/1"  />
            <InterpolatingParam id="2288" interp="linr"  time="0/1" value="0" leadInLength="0/1"  />
            <InterpolatingParam id="2289" interp="linr"  time="0/1" value="0" leadInLength="0/1"  />
            <InterpolatingParam id="2290" interp="linr"  time="0/1" value="0" leadInLength="0/1"  />
           </VectorParam>
           <VectorParam id="2291"  name="geometryCrop">
            <InterpolatingParam id="2292" interp="linr"  time="-9999999/1" value="0" leadInLength="0/1"  />
            <InterpolatingParam id="2293" interp="linr"  time="-9999999/1" value="0" leadInLength="0/1"  />
            <InterpolatingParam id="2294" interp="linr"  time="-9999999/1" value="0" leadInLength="0/1"  />
            <InterpolatingParam id="2295" interp="linr"  time="-9999999/1" value="0" leadInLength="0/1"  />
           </VectorParam>
           <InterpolatingParam id="2296" interp="linr"  time="-9999999/1" value="1" leadInLength="0/1"  name="opacity"/>
          </Parameters>
          <Attributes>
           <Attribute id="2297" value="" name="ident"/>
          </Attributes>
          <ExtraData>
           <Entry key="ZoomPanBin">
            <ZoomPanBin id="2298"  >
             <ZoomPanKeyframes>
              <ZoomPanKeyframe id="2299" timeRangeEnd="-9999999/1" timeRangeDuration="0/1" interpolaterName="linr"  />
             </ZoomPanKeyframes>
            </ZoomPanBin>
           </Entry>
          </ExtraData>
         </VMFile>
         <MetaData>
          <entry key="WinSubProjectDisplayName" val=""/>
         </MetaData>
        </UnifiedMedia>
        <StitchedMedia id="2300" start="6866" duration="32" scalar="52327/29485" mediaStart="3375/104654" mediaDuration="943520/52327" minMediaStart="-5833616625/104654" >
         <Transformer>
          <VectorParam id="2301"  name="translation">
           <InterpolatingParam id="2302" interp="linr"  time="-9999999/1" value="0" leadInLength="0/1"  />
           <InterpolatingParam id="2303" interp="linr"  time="-9999999/1" value="0" leadInLength="0/1"  />
           <InterpolatingParam id="2304" interp="linr"  time="-9999999/1" value="0" leadInLength="0/1"  />
          </VectorParam>
          <VectorParam id="2305"  name="rotation">
           <InterpolatingParam id="2306" interp="linr"  time="-9999999/1" value="0" leadInLength="0/1"  />
           <InterpolatingParam id="2307" interp="linr"  time="-9999999/1" value="0" leadInLength="0/1"  />
           <InterpolatingParam id="2308" interp="linr"  time="-9999999/1" value="0" leadInLength="0/1"  />
          </VectorParam>
          <VectorParam id="2309"  name="shear">
           <InterpolatingParam id="2310" interp="linr"  time="-9999999/1" value="0" leadInLength="0/1"  />
           <InterpolatingParam id="2311" interp="linr"  time="-9999999/1" value="0" leadInLength="0/1"  />
           <InterpolatingParam id="2312" interp="linr"  time="-9999999/1" value="0" leadInLength="0/1"  />
          </VectorParam>
          <VectorParam id="2313"  name="scale">
           <InterpolatingParam id="2314" interp="linr"  time="-9999999/1" value="1" leadInLength="0/1"  />
           <InterpolatingParam id="2315" interp="linr"  time="-9999999/1" value="1" leadInLength="0/1"  />
           <InterpolatingParam id="2316" interp="linr"  time="-9999999/1" value="1" leadInLength="0/1"  />
          </VectorParam>
          <VectorParam id="2317"  name="anchor">
           <InterpolatingParam id="2318" interp="linr"  time="0/1" value="0" leadInLength="0/1"  />
           <InterpolatingParam id="2319" interp="linr"  time="0/1" value="0" leadInLength="0/1"  />
           <InterpolatingParam id="2320" interp="linr"  time="0/1" value="0" leadInLength="0/1"  />
          </VectorParam>
         </Transformer>
         <Parameters>
          <VectorParam id="2321"  name="sourceCrop">
           <InterpolatingParam id="2322" interp="linr"  time="0/1" value="0" leadInLength="0/1"  />
           <InterpolatingParam id="2323" interp="linr"  time="0/1" value="0" leadInLength="0/1"  />
           <InterpolatingParam id="2324" interp="linr"  time="0/1" value="0" leadInLength="0/1"  />
           <InterpolatingParam id="2325" interp="linr"  time="0/1" value="0" leadInLength="0/1"  />
          </VectorParam>
          <VectorParam id="2326"  name="geometryCrop">
           <InterpolatingParam id="2327" interp="linr"  time="-9999999/1" value="0" leadInLength="0/1"  />
           <InterpolatingParam id="2328" interp="linr"  time="-9999999/1" value="0" leadInLength="0/1"  />
           <InterpolatingParam id="2329" interp="linr"  time="-9999999/1" value="0" leadInLength="0/1"  />
           <InterpolatingParam id="2330" interp="linr"  time="-9999999/1" value="0" leadInLength="0/1"  />
          </VectorParam>
          <InterpolatingParam id="2331" interp="linr"  time="-9999999/1" value="1" leadInLength="0/1"  name="opacity"/>
          <InterpolatingParam id="2332" interp="linr"  time="0/1" value="1" leadInLength="0/1"  name="cursorOpacity"/>
          <InterpolatingParam id="2333" interp="linr"  time="0/1" value="1" leadInLength="0/1"  name="cursorScale"/>
          <InterpolatingParam id="2334" interp="linr"  name="volume">
           <Keyframes>
           <Keyframe id="2335"  time="-5833616625/104654" value="0" leadInLength="0/1"  />
           <Keyframe id="2336"  time="143611/9514" value="0" leadInLength="0/1"  />
           <Keyframe id="2337"  time="17/1" value="0" leadInLength="0/1"  />
           </Keyframes>
          </InterpolatingParam>
          <Parameter id="2338"  name="captions"/>
         </Parameters>
         <Attributes>
          <Attribute id="2339" value="" name="ident"/>
          <Attribute id="2340" value="0" name="mixToMono"/>
         </Attributes>
         <MetaData>
          <entry key="WinSubProjectDisplayName" val=""/>
         </MetaData>
         <ExtraData>
          <Entry key="ZoomPanBin">
           <ZoomPanBin id="2341"  >
            <ZoomPanKeyframes>
             <ZoomPanKeyframe id="2342" timeRangeEnd="-9999999/1" timeRangeDuration="0/1" interpolaterName="linr"  />
            </ZoomPanKeyframes>
           </ZoomPanBin>
          </Entry>
          <Entry key="CursorEffectBin">
           <CursorEffectBin id="2343"  >
            <CursorEffectKeyframes>
            </CursorEffectKeyframes>
           </CursorEffectBin>
          </Entry>
         </ExtraData>
         <GenericTrack id="2344"  >
          <Attributes>
           <Attribute id="2345" value="" name="ident"/>
           <Attribute id="2346" value="0" name="audioMuted"/>
           <Attribute id="2347" value="0" name="videoHidden"/>
          </Attributes>
          <MetaData>
           <entry key="IsLocked" val="False"/>
           <entry key="WinTrackHeight" val="0"/>
          </MetaData>
          <Medias>
           <IMFile id="2348" start="-55742" duration="55758" scalar="1/1" mediaStart="6973/1" mediaDuration="1/1" trackNumber="0" src="21" trimStartSum="-55742/1" >
            <Transformer>
             <VectorParam id="2349"  name="translation">
              <InterpolatingParam id="2350" interp="linr"  time="-9999999/1" value="0" leadInLength="0/1"  />
              <InterpolatingParam id="2351" interp="linr"  time="-9999999/1" value="0" leadInLength="0/1"  />
              <InterpolatingParam id="2352" interp="linr"  time="-9999999/1" value="0" leadInLength="0/1"  />
             </VectorParam>
             <VectorParam id="2353"  name="rotation">
              <InterpolatingParam id="2354" interp="linr"  time="-9999999/1" value="0" leadInLength="0/1"  />
              <InterpolatingParam id="2355" interp="linr"  time="-9999999/1" value="0" leadInLength="0/1"  />
              <InterpolatingParam id="2356" interp="linr"  time="-9999999/1" value="0" leadInLength="0/1"  />
             </VectorParam>
             <VectorParam id="2357"  name="shear">
              <InterpolatingParam id="2358" interp="linr"  time="-9999999/1" value="0" leadInLength="0/1"  />
              <InterpolatingParam id="2359" interp="linr"  time="-9999999/1" value="0" leadInLength="0/1"  />
              <InterpolatingParam id="2360" interp="linr"  time="-9999999/1" value="0" leadInLength="0/1"  />
             </VectorParam>
             <VectorParam id="2361"  name="scale">
              <InterpolatingParam id="2362" interp="linr"  time="-9999999/1" value="1" leadInLength="0/1"  />
              <InterpolatingParam id="2363" interp="linr"  time="-9999999/1" value="1" leadInLength="0/1"  />
              <InterpolatingParam id="2364" interp="linr"  time="-9999999/1" value="1" leadInLength="0/1"  />
             </VectorParam>
             <VectorParam id="2365"  name="anchor">
              <InterpolatingParam id="2366" interp="linr"  time="0/1" value="0" leadInLength="0/1"  />
              <InterpolatingParam id="2367" interp="linr"  time="0/1" value="0" leadInLength="0/1"  />
              <InterpolatingParam id="2368" interp="linr"  time="0/1" value="0" leadInLength="0/1"  />
             </VectorParam>
            </Transformer>
            <Parameters>
             <VectorParam id="2369"  name="sourceCrop">
              <InterpolatingParam id="2370" interp="linr"  time="0/1" value="0" leadInLength="0/1"  />
              <InterpolatingParam id="2371" interp="linr"  time="0/1" value="0" leadInLength="0/1"  />
              <InterpolatingParam id="2372" interp="linr"  time="0/1" value="0" leadInLength="0/1"  />
              <InterpolatingParam id="2373" interp="linr"  time="0/1" value="0" leadInLength="0/1"  />
             </VectorParam>
             <VectorParam id="2374"  name="geometryCrop">
              <InterpolatingParam id="2375" interp="linr"  time="-9999999/1" value="0" leadInLength="0/1"  />
              <InterpolatingParam id="2376" interp="linr"  time="-9999999/1" value="0" leadInLength="0/1"  />
              <InterpolatingParam id="2377" interp="linr"  time="-9999999/1" value="0" leadInLength="0/1"  />
              <InterpolatingParam id="2378" interp="linr"  time="-9999999/1" value="0" leadInLength="0/1"  />
             </VectorParam>
             <InterpolatingParam id="2379" interp="linr"  time="-9999999/1" value="1" leadInLength="0/1"  name="opacity"/>
            </Parameters>
            <Attributes>
             <Attribute id="2380" value="" name="ident"/>
            </Attributes>
            <MetaData>
             <entry key="WinSubProjectDisplayName" val=""/>
            </MetaData>
            <ExtraData>
             <Entry key="ZoomPanBin">
              <ZoomPanBin id="2381"  >
               <ZoomPanKeyframes>
                <ZoomPanKeyframe id="2382" timeRangeEnd="-9999999/1" timeRangeDuration="0/1" interpolaterName="linr"  />
               </ZoomPanKeyframes>
              </ZoomPanBin>
             </Entry>
            </ExtraData>
           </IMFile>
           <UnifiedMedia id="2383"  >
            <AMFile id="2384" start="16" duration="1979" scalar="1/1" mediaStart="6973/1" mediaDuration="1979/1" trackNumber="1" src="21" channelNumber="0,1" >
             <Parameters>
              <InterpolatingParam id="2385" interp="linr"  time="0/1" value="1" leadInLength="0/1"  name="volume"/>
              <Parameter id="2386"  name="captions"/>
             </Parameters>
             <Attributes>
              <Attribute id="2387" value="" name="ident"/>
              <Attribute id="2388" value="44100" name="sampleRate"/>
              <Attribute id="2389" value="16" name="bitDepth"/>
              <Attribute id="2390" value="1" name="gain"/>
              <Attribute id="2391" value="0" name="mixToMono"/>
             </Attributes>
            </AMFile>
            <VMFile id="2392" start="16" duration="1979" scalar="1/1" mediaStart="6973/1" mediaDuration="1979/1" trackNumber="0" src="21" >
             <Transformer>
              <VectorParam id="2393"  name="translation">
               <InterpolatingParam id="2394" interp="linr"  time="-9999999/1" value="0" leadInLength="0/1"  />
               <InterpolatingParam id="2395" interp="linr"  time="-9999999/1" value="0" leadInLength="0/1"  />
               <InterpolatingParam id="2396" interp="linr"  time="-9999999/1" value="0" leadInLength="0/1"  />
              </VectorParam>
              <VectorParam id="2397"  name="rotation">
               <InterpolatingParam id="2398" interp="linr"  time="-9999999/1" value="0" leadInLength="0/1"  />
               <InterpolatingParam id="2399" interp="linr"  time="-9999999/1" value="0" leadInLength="0/1"  />
               <InterpolatingParam id="2400" interp="linr"  time="-9999999/1" value="0" leadInLength="0/1"  />
              </VectorParam>
              <VectorParam id="2401"  name="shear">
               <InterpolatingParam id="2402" interp="linr"  time="-9999999/1" value="0" leadInLength="0/1"  />
               <InterpolatingParam id="2403" interp="linr"  time="-9999999/1" value="0" leadInLength="0/1"  />
               <InterpolatingParam id="2404" interp="linr"  time="-9999999/1" value="0" leadInLength="0/1"  />
              </VectorParam>
              <VectorParam id="2405"  name="scale">
               <InterpolatingParam id="2406" interp="linr"  time="-9999999/1" value="1" leadInLength="0/1"  />
               <InterpolatingParam id="2407" interp="linr"  time="-9999999/1" value="1" leadInLength="0/1"  />
               <InterpolatingParam id="2408" interp="linr"  time="-9999999/1" value="1" leadInLength="0/1"  />
              </VectorParam>
              <VectorParam id="2409"  name="anchor">
               <InterpolatingParam id="2410" interp="linr"  time="0/1" value="0" leadInLength="0/1"  />
               <InterpolatingParam id="2411" interp="linr"  time="0/1" value="0" leadInLength="0/1"  />
               <InterpolatingParam id="2412" interp="linr"  time="0/1" value="0" leadInLength="0/1"  />
              </VectorParam>
             </Transformer>
             <Parameters>
              <VectorParam id="2413"  name="sourceCrop">
               <InterpolatingParam id="2414" interp="linr"  time="0/1" value="0" leadInLength="0/1"  />
               <InterpolatingParam id="2415" interp="linr"  time="0/1" value="0" leadInLength="0/1"  />
               <InterpolatingParam id="2416" interp="linr"  time="0/1" value="0" leadInLength="0/1"  />
               <InterpolatingParam id="2417" interp="linr"  time="0/1" value="0" leadInLength="0/1"  />
              </VectorParam>
              <VectorParam id="2418"  name="geometryCrop">
               <InterpolatingParam id="2419" interp="linr"  time="-9999999/1" value="0" leadInLength="0/1"  />
               <InterpolatingParam id="2420" interp="linr"  time="-9999999/1" value="0" leadInLength="0/1"  />
               <InterpolatingParam id="2421" interp="linr"  time="-9999999/1" value="0" leadInLength="0/1"  />
               <InterpolatingParam id="2422" interp="linr"  time="-9999999/1" value="0" leadInLength="0/1"  />
              </VectorParam>
              <InterpolatingParam id="2423" interp="linr"  time="-9999999/1" value="1" leadInLength="0/1"  name="opacity"/>
             </Parameters>
             <Attributes>
              <Attribute id="2424" value="" name="ident"/>
             </Attributes>
             <ExtraData>
              <Entry key="ZoomPanBin">
               <ZoomPanBin id="2425"  >
                <ZoomPanKeyframes>
                 <ZoomPanKeyframe id="2426" timeRangeEnd="-9999999/1" timeRangeDuration="0/1" interpolaterName="linr"  />
                </ZoomPanKeyframes>
               </ZoomPanBin>
              </Entry>
             </ExtraData>
            </VMFile>
            <MetaData>
             <entry key="WinSubProjectDisplayName" val=""/>
            </MetaData>
           </UnifiedMedia>
          </Medias>
         </GenericTrack>
        </StitchedMedia>
        <StitchedMedia id="2427" start="6898" duration="32" scalar="52327/29485" mediaStart="3375/104654" mediaDuration="943520/52327" minMediaStart="-5833616625/104654" >
         <Transformer>
          <VectorParam id="2428"  name="translation">
           <InterpolatingParam id="2429" interp="linr"  time="-9999999/1" value="0" leadInLength="0/1"  />
           <InterpolatingParam id="2430" interp="linr"  time="-9999999/1" value="0" leadInLength="0/1"  />
           <InterpolatingParam id="2431" interp="linr"  time="-9999999/1" value="0" leadInLength="0/1"  />
          </VectorParam>
          <VectorParam id="2432"  name="rotation">
           <InterpolatingParam id="2433" interp="linr"  time="-9999999/1" value="0" leadInLength="0/1"  />
           <InterpolatingParam id="2434" interp="linr"  time="-9999999/1" value="0" leadInLength="0/1"  />
           <InterpolatingParam id="2435" interp="linr"  time="-9999999/1" value="0" leadInLength="0/1"  />
          </VectorParam>
          <VectorParam id="2436"  name="shear">
           <InterpolatingParam id="2437" interp="linr"  time="-9999999/1" value="0" leadInLength="0/1"  />
           <InterpolatingParam id="2438" interp="linr"  time="-9999999/1" value="0" leadInLength="0/1"  />
           <InterpolatingParam id="2439" interp="linr"  time="-9999999/1" value="0" leadInLength="0/1"  />
          </VectorParam>
          <VectorParam id="2440"  name="scale">
           <InterpolatingParam id="2441" interp="linr"  time="-9999999/1" value="1" leadInLength="0/1"  />
           <InterpolatingParam id="2442" interp="linr"  time="-9999999/1" value="1" leadInLength="0/1"  />
           <InterpolatingParam id="2443" interp="linr"  time="-9999999/1" value="1" leadInLength="0/1"  />
          </VectorParam>
          <VectorParam id="2444"  name="anchor">
           <InterpolatingParam id="2445" interp="linr"  time="0/1" value="0" leadInLength="0/1"  />
           <InterpolatingParam id="2446" interp="linr"  time="0/1" value="0" leadInLength="0/1"  />
           <InterpolatingParam id="2447" interp="linr"  time="0/1" value="0" leadInLength="0/1"  />
          </VectorParam>
         </Transformer>
         <Parameters>
          <VectorParam id="2448"  name="sourceCrop">
           <InterpolatingParam id="2449" interp="linr"  time="0/1" value="0" leadInLength="0/1"  />
           <InterpolatingParam id="2450" interp="linr"  time="0/1" value="0" leadInLength="0/1"  />
           <InterpolatingParam id="2451" interp="linr"  time="0/1" value="0" leadInLength="0/1"  />
           <InterpolatingParam id="2452" interp="linr"  time="0/1" value="0" leadInLength="0/1"  />
          </VectorParam>
          <VectorParam id="2453"  name="geometryCrop">
           <InterpolatingParam id="2454" interp="linr"  time="-9999999/1" value="0" leadInLength="0/1"  />
           <InterpolatingParam id="2455" interp="linr"  time="-9999999/1" value="0" leadInLength="0/1"  />
           <InterpolatingParam id="2456" interp="linr"  time="-9999999/1" value="0" leadInLength="0/1"  />
           <InterpolatingParam id="2457" interp="linr"  time="-9999999/1" value="0" leadInLength="0/1"  />
          </VectorParam>
          <InterpolatingParam id="2458" interp="linr"  time="-9999999/1" value="1" leadInLength="0/1"  name="opacity"/>
          <InterpolatingParam id="2459" interp="linr"  time="0/1" value="1" leadInLength="0/1"  name="cursorOpacity"/>
          <InterpolatingParam id="2460" interp="linr"  time="0/1" value="1" leadInLength="0/1"  name="cursorScale"/>
          <InterpolatingParam id="2461" interp="linr"  name="volume">
           <Keyframes>
           <Keyframe id="2462"  time="-5833616625/104654" value="0" leadInLength="0/1"  />
           <Keyframe id="2463"  time="143611/9514" value="0" leadInLength="0/1"  />
           <Keyframe id="2464"  time="17/1" value="0" leadInLength="0/1"  />
           </Keyframes>
          </InterpolatingParam>
          <Parameter id="2465"  name="captions"/>
         </Parameters>
         <Attributes>
          <Attribute id="2466" value="" name="ident"/>
          <Attribute id="2467" value="0" name="mixToMono"/>
         </Attributes>
         <MetaData>
          <entry key="WinSubProjectDisplayName" val=""/>
         </MetaData>
         <ExtraData>
          <Entry key="ZoomPanBin">
           <ZoomPanBin id="2468"  >
            <ZoomPanKeyframes>
             <ZoomPanKeyframe id="2469" timeRangeEnd="-9999999/1" timeRangeDuration="0/1" interpolaterName="linr"  />
            </ZoomPanKeyframes>
           </ZoomPanBin>
          </Entry>
          <Entry key="CursorEffectBin">
           <CursorEffectBin id="2470"  >
            <CursorEffectKeyframes>
            </CursorEffectKeyframes>
           </CursorEffectBin>
          </Entry>
         </ExtraData>
         <GenericTrack id="2471"  >
          <Attributes>
           <Attribute id="2472" value="" name="ident"/>
           <Attribute id="2473" value="0" name="audioMuted"/>
           <Attribute id="2474" value="0" name="videoHidden"/>
          </Attributes>
          <MetaData>
           <entry key="IsLocked" val="False"/>
           <entry key="WinTrackHeight" val="0"/>
          </MetaData>
          <Medias>
           <IMFile id="2475" start="-55742" duration="55758" scalar="1/1" mediaStart="6973/1" mediaDuration="1/1" trackNumber="0" src="21" trimStartSum="-55742/1" >
            <Transformer>
             <VectorParam id="2476"  name="translation">
              <InterpolatingParam id="2477" interp="linr"  time="-9999999/1" value="0" leadInLength="0/1"  />
              <InterpolatingParam id="2478" interp="linr"  time="-9999999/1" value="0" leadInLength="0/1"  />
              <InterpolatingParam id="2479" interp="linr"  time="-9999999/1" value="0" leadInLength="0/1"  />
             </VectorParam>
             <VectorParam id="2480"  name="rotation">
              <InterpolatingParam id="2481" interp="linr"  time="-9999999/1" value="0" leadInLength="0/1"  />
              <InterpolatingParam id="2482" interp="linr"  time="-9999999/1" value="0" leadInLength="0/1"  />
              <InterpolatingParam id="2483" interp="linr"  time="-9999999/1" value="0" leadInLength="0/1"  />
             </VectorParam>
             <VectorParam id="2484"  name="shear">
              <InterpolatingParam id="2485" interp="linr"  time="-9999999/1" value="0" leadInLength="0/1"  />
              <InterpolatingParam id="2486" interp="linr"  time="-9999999/1" value="0" leadInLength="0/1"  />
              <InterpolatingParam id="2487" interp="linr"  time="-9999999/1" value="0" leadInLength="0/1"  />
             </VectorParam>
             <VectorParam id="2488"  name="scale">
              <InterpolatingParam id="2489" interp="linr"  time="-9999999/1" value="1" leadInLength="0/1"  />
              <InterpolatingParam id="2490" interp="linr"  time="-9999999/1" value="1" leadInLength="0/1"  />
              <InterpolatingParam id="2491" interp="linr"  time="-9999999/1" value="1" leadInLength="0/1"  />
             </VectorParam>
             <VectorParam id="2492"  name="anchor">
              <InterpolatingParam id="2493" interp="linr"  time="0/1" value="0" leadInLength="0/1"  />
              <InterpolatingParam id="2494" interp="linr"  time="0/1" value="0" leadInLength="0/1"  />
              <InterpolatingParam id="2495" interp="linr"  time="0/1" value="0" leadInLength="0/1"  />
             </VectorParam>
            </Transformer>
            <Parameters>
             <VectorParam id="2496"  name="sourceCrop">
              <InterpolatingParam id="2497" interp="linr"  time="0/1" value="0" leadInLength="0/1"  />
              <InterpolatingParam id="2498" interp="linr"  time="0/1" value="0" leadInLength="0/1"  />
              <InterpolatingParam id="2499" interp="linr"  time="0/1" value="0" leadInLength="0/1"  />
              <InterpolatingParam id="2500" interp="linr"  time="0/1" value="0" leadInLength="0/1"  />
             </VectorParam>
             <VectorParam id="2501"  name="geometryCrop">
              <InterpolatingParam id="2502" interp="linr"  time="-9999999/1" value="0" leadInLength="0/1"  />
              <InterpolatingParam id="2503" interp="linr"  time="-9999999/1" value="0" leadInLength="0/1"  />
              <InterpolatingParam id="2504" interp="linr"  time="-9999999/1" value="0" leadInLength="0/1"  />
              <InterpolatingParam id="2505" interp="linr"  time="-9999999/1" value="0" leadInLength="0/1"  />
             </VectorParam>
             <InterpolatingParam id="2506" interp="linr"  time="-9999999/1" value="1" leadInLength="0/1"  name="opacity"/>
            </Parameters>
            <Attributes>
             <Attribute id="2507" value="" name="ident"/>
            </Attributes>
            <MetaData>
             <entry key="WinSubProjectDisplayName" val=""/>
            </MetaData>
            <ExtraData>
             <Entry key="ZoomPanBin">
              <ZoomPanBin id="2508"  >
               <ZoomPanKeyframes>
                <ZoomPanKeyframe id="2509" timeRangeEnd="-9999999/1" timeRangeDuration="0/1" interpolaterName="linr"  />
               </ZoomPanKeyframes>
              </ZoomPanBin>
             </Entry>
            </ExtraData>
           </IMFile>
           <UnifiedMedia id="2510"  >
            <AMFile id="2511" start="16" duration="1979" scalar="1/1" mediaStart="6973/1" mediaDuration="1979/1" trackNumber="1" src="21" channelNumber="0,1" >
             <Parameters>
              <InterpolatingParam id="2512" interp="linr"  time="0/1" value="1" leadInLength="0/1"  name="volume"/>
              <Parameter id="2513"  name="captions"/>
             </Parameters>
             <Attributes>
              <Attribute id="2514" value="" name="ident"/>
              <Attribute id="2515" value="44100" name="sampleRate"/>
              <Attribute id="2516" value="16" name="bitDepth"/>
              <Attribute id="2517" value="1" name="gain"/>
              <Attribute id="2518" value="0" name="mixToMono"/>
             </Attributes>
            </AMFile>
            <VMFile id="2519" start="16" duration="1979" scalar="1/1" mediaStart="6973/1" mediaDuration="1979/1" trackNumber="0" src="21" >
             <Transformer>
              <VectorParam id="2520"  name="translation">
               <InterpolatingParam id="2521" interp="linr"  time="-9999999/1" value="0" leadInLength="0/1"  />
               <InterpolatingParam id="2522" interp="linr"  time="-9999999/1" value="0" leadInLength="0/1"  />
               <InterpolatingParam id="2523" interp="linr"  time="-9999999/1" value="0" leadInLength="0/1"  />
              </VectorParam>
              <VectorParam id="2524"  name="rotation">
               <InterpolatingParam id="2525" interp="linr"  time="-9999999/1" value="0" leadInLength="0/1"  />
               <InterpolatingParam id="2526" interp="linr"  time="-9999999/1" value="0" leadInLength="0/1"  />
               <InterpolatingParam id="2527" interp="linr"  time="-9999999/1" value="0" leadInLength="0/1"  />
              </VectorParam>
              <VectorParam id="2528"  name="shear">
               <InterpolatingParam id="2529" interp="linr"  time="-9999999/1" value="0" leadInLength="0/1"  />
               <InterpolatingParam id="2530" interp="linr"  time="-9999999/1" value="0" leadInLength="0/1"  />
               <InterpolatingParam id="2531" interp="linr"  time="-9999999/1" value="0" leadInLength="0/1"  />
              </VectorParam>
              <VectorParam id="2532"  name="scale">
               <InterpolatingParam id="2533" interp="linr"  time="-9999999/1" value="1" leadInLength="0/1"  />
               <InterpolatingParam id="2534" interp="linr"  time="-9999999/1" value="1" leadInLength="0/1"  />
               <InterpolatingParam id="2535" interp="linr"  time="-9999999/1" value="1" leadInLength="0/1"  />
              </VectorParam>
              <VectorParam id="2536"  name="anchor">
               <InterpolatingParam id="2537" interp="linr"  time="0/1" value="0" leadInLength="0/1"  />
               <InterpolatingParam id="2538" interp="linr"  time="0/1" value="0" leadInLength="0/1"  />
               <InterpolatingParam id="2539" interp="linr"  time="0/1" value="0" leadInLength="0/1"  />
              </VectorParam>
             </Transformer>
             <Parameters>
              <VectorParam id="2540"  name="sourceCrop">
               <InterpolatingParam id="2541" interp="linr"  time="0/1" value="0" leadInLength="0/1"  />
               <InterpolatingParam id="2542" interp="linr"  time="0/1" value="0" leadInLength="0/1"  />
               <InterpolatingParam id="2543" interp="linr"  time="0/1" value="0" leadInLength="0/1"  />
               <InterpolatingParam id="2544" interp="linr"  time="0/1" value="0" leadInLength="0/1"  />
              </VectorParam>
              <VectorParam id="2545"  name="geometryCrop">
               <InterpolatingParam id="2546" interp="linr"  time="-9999999/1" value="0" leadInLength="0/1"  />
               <InterpolatingParam id="2547" interp="linr"  time="-9999999/1" value="0" leadInLength="0/1"  />
               <InterpolatingParam id="2548" interp="linr"  time="-9999999/1" value="0" leadInLength="0/1"  />
               <InterpolatingParam id="2549" interp="linr"  time="-9999999/1" value="0" leadInLength="0/1"  />
              </VectorParam>
              <InterpolatingParam id="2550" interp="linr"  time="-9999999/1" value="1" leadInLength="0/1"  name="opacity"/>
             </Parameters>
             <Attributes>
              <Attribute id="2551" value="" name="ident"/>
             </Attributes>
             <ExtraData>
              <Entry key="ZoomPanBin">
               <ZoomPanBin id="2552"  >
                <ZoomPanKeyframes>
                 <ZoomPanKeyframe id="2553" timeRangeEnd="-9999999/1" timeRangeDuration="0/1" interpolaterName="linr"  />
                </ZoomPanKeyframes>
               </ZoomPanBin>
              </Entry>
             </ExtraData>
            </VMFile>
            <MetaData>
             <entry key="WinSubProjectDisplayName" val=""/>
            </MetaData>
           </UnifiedMedia>
          </Medias>
         </GenericTrack>
        </StitchedMedia>
        <StitchedMedia id="2554" start="6930" duration="20" scalar="52327/47176" mediaStart="3375/104654" mediaDuration="943520/52327" minMediaStart="-5833616625/104654" >
         <Transformer>
          <VectorParam id="2555"  name="translation">
           <InterpolatingParam id="2556" interp="linr"  time="-9999999/1" value="0" leadInLength="0/1"  />
           <InterpolatingParam id="2557" interp="linr"  time="-9999999/1" value="0" leadInLength="0/1"  />
           <InterpolatingParam id="2558" interp="linr"  time="-9999999/1" value="0" leadInLength="0/1"  />
          </VectorParam>
          <VectorParam id="2559"  name="rotation">
           <InterpolatingParam id="2560" interp="linr"  time="-9999999/1" value="0" leadInLength="0/1"  />
           <InterpolatingParam id="2561" interp="linr"  time="-9999999/1" value="0" leadInLength="0/1"  />
           <InterpolatingParam id="2562" interp="linr"  time="-9999999/1" value="0" leadInLength="0/1"  />
          </VectorParam>
          <VectorParam id="2563"  name="shear">
           <InterpolatingParam id="2564" interp="linr"  time="-9999999/1" value="0" leadInLength="0/1"  />
           <InterpolatingParam id="2565" interp="linr"  time="-9999999/1" value="0" leadInLength="0/1"  />
           <InterpolatingParam id="2566" interp="linr"  time="-9999999/1" value="0" leadInLength="0/1"  />
          </VectorParam>
          <VectorParam id="2567"  name="scale">
           <InterpolatingParam id="2568" interp="linr"  time="-9999999/1" value="1" leadInLength="0/1"  />
           <InterpolatingParam id="2569" interp="linr"  time="-9999999/1" value="1" leadInLength="0/1"  />
           <InterpolatingParam id="2570" interp="linr"  time="-9999999/1" value="1" leadInLength="0/1"  />
          </VectorParam>
          <VectorParam id="2571"  name="anchor">
           <InterpolatingParam id="2572" interp="linr"  time="0/1" value="0" leadInLength="0/1"  />
           <InterpolatingParam id="2573" interp="linr"  time="0/1" value="0" leadInLength="0/1"  />
           <InterpolatingParam id="2574" interp="linr"  time="0/1" value="0" leadInLength="0/1"  />
          </VectorParam>
         </Transformer>
         <Parameters>
          <VectorParam id="2575"  name="sourceCrop">
           <InterpolatingParam id="2576" interp="linr"  time="0/1" value="0" leadInLength="0/1"  />
           <InterpolatingParam id="2577" interp="linr"  time="0/1" value="0" leadInLength="0/1"  />
           <InterpolatingParam id="2578" interp="linr"  time="0/1" value="0" leadInLength="0/1"  />
           <InterpolatingParam id="2579" interp="linr"  time="0/1" value="0" leadInLength="0/1"  />
          </VectorParam>
          <VectorParam id="2580"  name="geometryCrop">
           <InterpolatingParam id="2581" interp="linr"  time="-9999999/1" value="0" leadInLength="0/1"  />
           <InterpolatingParam id="2582" interp="linr"  time="-9999999/1" value="0" leadInLength="0/1"  />
           <InterpolatingParam id="2583" interp="linr"  time="-9999999/1" value="0" leadInLength="0/1"  />
           <InterpolatingParam id="2584" interp="linr"  time="-9999999/1" value="0" leadInLength="0/1"  />
          </VectorParam>
          <InterpolatingParam id="2585" interp="linr"  time="-9999999/1" value="1" leadInLength="0/1"  name="opacity"/>
          <InterpolatingParam id="2586" interp="linr"  time="0/1" value="1" leadInLength="0/1"  name="cursorOpacity"/>
          <InterpolatingParam id="2587" interp="linr"  time="0/1" value="1" leadInLength="0/1"  name="cursorScale"/>
          <InterpolatingParam id="2588" interp="linr"  name="volume">
           <Keyframes>
           <Keyframe id="2589"  time="-5833616625/104654" value="0" leadInLength="0/1"  />
           <Keyframe id="2590"  time="143611/9514" value="0" leadInLength="0/1"  />
           <Keyframe id="2591"  time="17/1" value="0" leadInLength="0/1"  />
           </Keyframes>
          </InterpolatingParam>
          <Parameter id="2592"  name="captions"/>
         </Parameters>
         <Attributes>
          <Attribute id="2593" value="" name="ident"/>
          <Attribute id="2594" value="0" name="mixToMono"/>
         </Attributes>
         <MetaData>
          <entry key="WinSubProjectDisplayName" val=""/>
         </MetaData>
         <ExtraData>
          <Entry key="ZoomPanBin">
           <ZoomPanBin id="2595"  >
            <ZoomPanKeyframes>
             <ZoomPanKeyframe id="2596" timeRangeEnd="-9999999/1" timeRangeDuration="0/1" interpolaterName="linr"  />
            </ZoomPanKeyframes>
           </ZoomPanBin>
          </Entry>
          <Entry key="CursorEffectBin">
           <CursorEffectBin id="2597"  >
            <CursorEffectKeyframes>
            </CursorEffectKeyframes>
           </CursorEffectBin>
          </Entry>
         </ExtraData>
         <GenericTrack id="2598"  >
          <Attributes>
           <Attribute id="2599" value="" name="ident"/>
           <Attribute id="2600" value="0" name="audioMuted"/>
           <Attribute id="2601" value="0" name="videoHidden"/>
          </Attributes>
          <MetaData>
           <entry key="IsLocked" val="False"/>
           <entry key="WinTrackHeight" val="0"/>
          </MetaData>
          <Medias>
           <IMFile id="2602" start="-55742" duration="55758" scalar="1/1" mediaStart="6973/1" mediaDuration="1/1" trackNumber="0" src="21" trimStartSum="-55742/1" >
            <Transformer>
             <VectorParam id="2603"  name="translation">
              <InterpolatingParam id="2604" interp="linr"  time="-9999999/1" value="0" leadInLength="0/1"  />
              <InterpolatingParam id="2605" interp="linr"  time="-9999999/1" value="0" leadInLength="0/1"  />
              <InterpolatingParam id="2606" interp="linr"  time="-9999999/1" value="0" leadInLength="0/1"  />
             </VectorParam>
             <VectorParam id="2607"  name="rotation">
              <InterpolatingParam id="2608" interp="linr"  time="-9999999/1" value="0" leadInLength="0/1"  />
              <InterpolatingParam id="2609" interp="linr"  time="-9999999/1" value="0" leadInLength="0/1"  />
              <InterpolatingParam id="2610" interp="linr"  time="-9999999/1" value="0" leadInLength="0/1"  />
             </VectorParam>
             <VectorParam id="2611"  name="shear">
              <InterpolatingParam id="2612" interp="linr"  time="-9999999/1" value="0" leadInLength="0/1"  />
              <InterpolatingParam id="2613" interp="linr"  time="-9999999/1" value="0" leadInLength="0/1"  />
              <InterpolatingParam id="2614" interp="linr"  time="-9999999/1" value="0" leadInLength="0/1"  />
             </VectorParam>
             <VectorParam id="2615"  name="scale">
              <InterpolatingParam id="2616" interp="linr"  time="-9999999/1" value="1" leadInLength="0/1"  />
              <InterpolatingParam id="2617" interp="linr"  time="-9999999/1" value="1" leadInLength="0/1"  />
              <InterpolatingParam id="2618" interp="linr"  time="-9999999/1" value="1" leadInLength="0/1"  />
             </VectorParam>
             <VectorParam id="2619"  name="anchor">
              <InterpolatingParam id="2620" interp="linr"  time="0/1" value="0" leadInLength="0/1"  />
              <InterpolatingParam id="2621" interp="linr"  time="0/1" value="0" leadInLength="0/1"  />
              <InterpolatingParam id="2622" interp="linr"  time="0/1" value="0" leadInLength="0/1"  />
             </VectorParam>
            </Transformer>
            <Parameters>
             <VectorParam id="2623"  name="sourceCrop">
              <InterpolatingParam id="2624" interp="linr"  time="0/1" value="0" leadInLength="0/1"  />
              <InterpolatingParam id="2625" interp="linr"  time="0/1" value="0" leadInLength="0/1"  />
              <InterpolatingParam id="2626" interp="linr"  time="0/1" value="0" leadInLength="0/1"  />
              <InterpolatingParam id="2627" interp="linr"  time="0/1" value="0" leadInLength="0/1"  />
             </VectorParam>
             <VectorParam id="2628"  name="geometryCrop">
              <InterpolatingParam id="2629" interp="linr"  time="-9999999/1" value="0" leadInLength="0/1"  />
              <InterpolatingParam id="2630" interp="linr"  time="-9999999/1" value="0" leadInLength="0/1"  />
              <InterpolatingParam id="2631" interp="linr"  time="-9999999/1" value="0" leadInLength="0/1"  />
              <InterpolatingParam id="2632" interp="linr"  time="-9999999/1" value="0" leadInLength="0/1"  />
             </VectorParam>
             <InterpolatingParam id="2633" interp="linr"  time="-9999999/1" value="1" leadInLength="0/1"  name="opacity"/>
            </Parameters>
            <Attributes>
             <Attribute id="2634" value="" name="ident"/>
            </Attributes>
            <MetaData>
             <entry key="WinSubProjectDisplayName" val=""/>
            </MetaData>
            <ExtraData>
             <Entry key="ZoomPanBin">
              <ZoomPanBin id="2635"  >
               <ZoomPanKeyframes>
                <ZoomPanKeyframe id="2636" timeRangeEnd="-9999999/1" timeRangeDuration="0/1" interpolaterName="linr"  />
               </ZoomPanKeyframes>
              </ZoomPanBin>
             </Entry>
            </ExtraData>
           </IMFile>
           <UnifiedMedia id="2637"  >
            <AMFile id="2638" start="16" duration="1979" scalar="1/1" mediaStart="6973/1" mediaDuration="1979/1" trackNumber="1" src="21" channelNumber="0,1" >
             <Parameters>
              <InterpolatingParam id="2639" interp="linr"  time="0/1" value="1" leadInLength="0/1"  name="volume"/>
              <Parameter id="2640"  name="captions"/>
             </Parameters>
             <Attributes>
              <Attribute id="2641" value="" name="ident"/>
              <Attribute id="2642" value="44100" name="sampleRate"/>
              <Attribute id="2643" value="16" name="bitDepth"/>
              <Attribute id="2644" value="1" name="gain"/>
              <Attribute id="2645" value="0" name="mixToMono"/>
             </Attributes>
            </AMFile>
            <VMFile id="2646" start="16" duration="1979" scalar="1/1" mediaStart="6973/1" mediaDuration="1979/1" trackNumber="0" src="21" >
             <Transformer>
              <VectorParam id="2647"  name="translation">
               <InterpolatingParam id="2648" interp="linr"  time="-9999999/1" value="0" leadInLength="0/1"  />
               <InterpolatingParam id="2649" interp="linr"  time="-9999999/1" value="0" leadInLength="0/1"  />
               <InterpolatingParam id="2650" interp="linr"  time="-9999999/1" value="0" leadInLength="0/1"  />
              </VectorParam>
              <VectorParam id="2651"  name="rotation">
               <InterpolatingParam id="2652" interp="linr"  time="-9999999/1" value="0" leadInLength="0/1"  />
               <InterpolatingParam id="2653" interp="linr"  time="-9999999/1" value="0" leadInLength="0/1"  />
               <InterpolatingParam id="2654" interp="linr"  time="-9999999/1" value="0" leadInLength="0/1"  />
              </VectorParam>
              <VectorParam id="2655"  name="shear">
               <InterpolatingParam id="2656" interp="linr"  time="-9999999/1" value="0" leadInLength="0/1"  />
               <InterpolatingParam id="2657" interp="linr"  time="-9999999/1" value="0" leadInLength="0/1"  />
               <InterpolatingParam id="2658" interp="linr"  time="-9999999/1" value="0" leadInLength="0/1"  />
              </VectorParam>
              <VectorParam id="2659"  name="scale">
               <InterpolatingParam id="2660" interp="linr"  time="-9999999/1" value="1" leadInLength="0/1"  />
               <InterpolatingParam id="2661" interp="linr"  time="-9999999/1" value="1" leadInLength="0/1"  />
               <InterpolatingParam id="2662" interp="linr"  time="-9999999/1" value="1" leadInLength="0/1"  />
              </VectorParam>
              <VectorParam id="2663"  name="anchor">
               <InterpolatingParam id="2664" interp="linr"  time="0/1" value="0" leadInLength="0/1"  />
               <InterpolatingParam id="2665" interp="linr"  time="0/1" value="0" leadInLength="0/1"  />
               <InterpolatingParam id="2666" interp="linr"  time="0/1" value="0" leadInLength="0/1"  />
              </VectorParam>
             </Transformer>
             <Parameters>
              <VectorParam id="2667"  name="sourceCrop">
               <InterpolatingParam id="2668" interp="linr"  time="0/1" value="0" leadInLength="0/1"  />
               <InterpolatingParam id="2669" interp="linr"  time="0/1" value="0" leadInLength="0/1"  />
               <InterpolatingParam id="2670" interp="linr"  time="0/1" value="0" leadInLength="0/1"  />
               <InterpolatingParam id="2671" interp="linr"  time="0/1" value="0" leadInLength="0/1"  />
              </VectorParam>
              <VectorParam id="2672"  name="geometryCrop">
               <InterpolatingParam id="2673" interp="linr"  time="-9999999/1" value="0" leadInLength="0/1"  />
               <InterpolatingParam id="2674" interp="linr"  time="-9999999/1" value="0" leadInLength="0/1"  />
               <InterpolatingParam id="2675" interp="linr"  time="-9999999/1" value="0" leadInLength="0/1"  />
               <InterpolatingParam id="2676" interp="linr"  time="-9999999/1" value="0" leadInLength="0/1"  />
              </VectorParam>
              <InterpolatingParam id="2677" interp="linr"  time="-9999999/1" value="1" leadInLength="0/1"  name="opacity"/>
             </Parameters>
             <Attributes>
              <Attribute id="2678" value="" name="ident"/>
             </Attributes>
             <ExtraData>
              <Entry key="ZoomPanBin">
               <ZoomPanBin id="2679"  >
                <ZoomPanKeyframes>
                 <ZoomPanKeyframe id="2680" timeRangeEnd="-9999999/1" timeRangeDuration="0/1" interpolaterName="linr"  />
                </ZoomPanKeyframes>
               </ZoomPanBin>
              </Entry>
             </ExtraData>
            </VMFile>
            <MetaData>
             <entry key="WinSubProjectDisplayName" val=""/>
            </MetaData>
           </UnifiedMedia>
          </Medias>
         </GenericTrack>
        </StitchedMedia>
        <StitchedMedia id="2681" start="6950" duration="21" scalar="1098867/943520" mediaStart="3375/104654" mediaDuration="943520/52327" minMediaStart="-5833616625/104654" >
         <Transformer>
          <VectorParam id="2682"  name="translation">
           <InterpolatingParam id="2683" interp="linr"  time="-9999999/1" value="0" leadInLength="0/1"  />
           <InterpolatingParam id="2684" interp="linr"  time="-9999999/1" value="0" leadInLength="0/1"  />
           <InterpolatingParam id="2685" interp="linr"  time="-9999999/1" value="0" leadInLength="0/1"  />
          </VectorParam>
          <VectorParam id="2686"  name="rotation">
           <InterpolatingParam id="2687" interp="linr"  time="-9999999/1" value="0" leadInLength="0/1"  />
           <InterpolatingParam id="2688" interp="linr"  time="-9999999/1" value="0" leadInLength="0/1"  />
           <InterpolatingParam id="2689" interp="linr"  time="-9999999/1" value="0" leadInLength="0/1"  />
          </VectorParam>
          <VectorParam id="2690"  name="shear">
           <InterpolatingParam id="2691" interp="linr"  time="-9999999/1" value="0" leadInLength="0/1"  />
           <InterpolatingParam id="2692" interp="linr"  time="-9999999/1" value="0" leadInLength="0/1"  />
           <InterpolatingParam id="2693" interp="linr"  time="-9999999/1" value="0" leadInLength="0/1"  />
          </VectorParam>
          <VectorParam id="2694"  name="scale">
           <InterpolatingParam id="2695" interp="linr"  time="-9999999/1" value="1" leadInLength="0/1"  />
           <InterpolatingParam id="2696" interp="linr"  time="-9999999/1" value="1" leadInLength="0/1"  />
           <InterpolatingParam id="2697" interp="linr"  time="-9999999/1" value="1" leadInLength="0/1"  />
          </VectorParam>
          <VectorParam id="2698"  name="anchor">
           <InterpolatingParam id="2699" interp="linr"  time="0/1" value="0" leadInLength="0/1"  />
           <InterpolatingParam id="2700" interp="linr"  time="0/1" value="0" leadInLength="0/1"  />
           <InterpolatingParam id="2701" interp="linr"  time="0/1" value="0" leadInLength="0/1"  />
          </VectorParam>
         </Transformer>
         <Parameters>
          <VectorParam id="2702"  name="sourceCrop">
           <InterpolatingParam id="2703" interp="linr"  time="0/1" value="0" leadInLength="0/1"  />
           <InterpolatingParam id="2704" interp="linr"  time="0/1" value="0" leadInLength="0/1"  />
           <InterpolatingParam id="2705" interp="linr"  time="0/1" value="0" leadInLength="0/1"  />
           <InterpolatingParam id="2706" interp="linr"  time="0/1" value="0" leadInLength="0/1"  />
          </VectorParam>
          <VectorParam id="2707"  name="geometryCrop">
           <InterpolatingParam id="2708" interp="linr"  time="-9999999/1" value="0" leadInLength="0/1"  />
           <InterpolatingParam id="2709" interp="linr"  time="-9999999/1" value="0" leadInLength="0/1"  />
           <InterpolatingParam id="2710" interp="linr"  time="-9999999/1" value="0" leadInLength="0/1"  />
           <InterpolatingParam id="2711" interp="linr"  time="-9999999/1" value="0" leadInLength="0/1"  />
          </VectorParam>
          <InterpolatingParam id="2712" interp="linr"  time="-9999999/1" value="1" leadInLength="0/1"  name="opacity"/>
          <InterpolatingParam id="2713" interp="linr"  time="0/1" value="1" leadInLength="0/1"  name="cursorOpacity"/>
          <InterpolatingParam id="2714" interp="linr"  time="0/1" value="1" leadInLength="0/1"  name="cursorScale"/>
          <InterpolatingParam id="2715" interp="linr"  name="volume">
           <Keyframes>
           <Keyframe id="2716"  time="-5833616625/104654" value="0" leadInLength="0/1"  />
           <Keyframe id="2717"  time="143611/9514" value="0" leadInLength="0/1"  />
           <Keyframe id="2718"  time="17/1" value="0" leadInLength="0/1"  />
           </Keyframes>
          </InterpolatingParam>
          <Parameter id="2719"  name="captions"/>
         </Parameters>
         <Attributes>
          <Attribute id="2720" value="" name="ident"/>
          <Attribute id="2721" value="0" name="mixToMono"/>
         </Attributes>
         <MetaData>
          <entry key="WinSubProjectDisplayName" val=""/>
         </MetaData>
         <ExtraData>
          <Entry key="ZoomPanBin">
           <ZoomPanBin id="2722"  >
            <ZoomPanKeyframes>
             <ZoomPanKeyframe id="2723" timeRangeEnd="-9999999/1" timeRangeDuration="0/1" interpolaterName="linr"  />
            </ZoomPanKeyframes>
           </ZoomPanBin>
          </Entry>
          <Entry key="CursorEffectBin">
           <CursorEffectBin id="2724"  >
            <CursorEffectKeyframes>
            </CursorEffectKeyframes>
           </CursorEffectBin>
          </Entry>
         </ExtraData>
         <GenericTrack id="2725"  >
          <Attributes>
           <Attribute id="2726" value="" name="ident"/>
           <Attribute id="2727" value="0" name="audioMuted"/>
           <Attribute id="2728" value="0" name="videoHidden"/>
          </Attributes>
          <MetaData>
           <entry key="IsLocked" val="False"/>
           <entry key="WinTrackHeight" val="0"/>
          </MetaData>
          <Medias>
           <IMFile id="2729" start="-55742" duration="55758" scalar="1/1" mediaStart="6973/1" mediaDuration="1/1" trackNumber="0" src="21" trimStartSum="-55742/1" >
            <Transformer>
             <VectorParam id="2730"  name="translation">
              <InterpolatingParam id="2731" interp="linr"  time="-9999999/1" value="0" leadInLength="0/1"  />
              <InterpolatingParam id="2732" interp="linr"  time="-9999999/1" value="0" leadInLength="0/1"  />
              <InterpolatingParam id="2733" interp="linr"  time="-9999999/1" value="0" leadInLength="0/1"  />
             </VectorParam>
             <VectorParam id="2734"  name="rotation">
              <InterpolatingParam id="2735" interp="linr"  time="-9999999/1" value="0" leadInLength="0/1"  />
              <InterpolatingParam id="2736" interp="linr"  time="-9999999/1" value="0" leadInLength="0/1"  />
              <InterpolatingParam id="2737" interp="linr"  time="-9999999/1" value="0" leadInLength="0/1"  />
             </VectorParam>
             <VectorParam id="2738"  name="shear">
              <InterpolatingParam id="2739" interp="linr"  time="-9999999/1" value="0" leadInLength="0/1"  />
              <InterpolatingParam id="2740" interp="linr"  time="-9999999/1" value="0" leadInLength="0/1"  />
              <InterpolatingParam id="2741" interp="linr"  time="-9999999/1" value="0" leadInLength="0/1"  />
             </VectorParam>
             <VectorParam id="2742"  name="scale">
              <InterpolatingParam id="2743" interp="linr"  time="-9999999/1" value="1" leadInLength="0/1"  />
              <InterpolatingParam id="2744" interp="linr"  time="-9999999/1" value="1" leadInLength="0/1"  />
              <InterpolatingParam id="2745" interp="linr"  time="-9999999/1" value="1" leadInLength="0/1"  />
             </VectorParam>
             <VectorParam id="2746"  name="anchor">
              <InterpolatingParam id="2747" interp="linr"  time="0/1" value="0" leadInLength="0/1"  />
              <InterpolatingParam id="2748" interp="linr"  time="0/1" value="0" leadInLength="0/1"  />
              <InterpolatingParam id="2749" interp="linr"  time="0/1" value="0" leadInLength="0/1"  />
             </VectorParam>
            </Transformer>
            <Parameters>
             <VectorParam id="2750"  name="sourceCrop">
              <InterpolatingParam id="2751" interp="linr"  time="0/1" value="0" leadInLength="0/1"  />
              <InterpolatingParam id="2752" interp="linr"  time="0/1" value="0" leadInLength="0/1"  />
              <InterpolatingParam id="2753" interp="linr"  time="0/1" value="0" leadInLength="0/1"  />
              <InterpolatingParam id="2754" interp="linr"  time="0/1" value="0" leadInLength="0/1"  />
             </VectorParam>
             <VectorParam id="2755"  name="geometryCrop">
              <InterpolatingParam id="2756" interp="linr"  time="-9999999/1" value="0" leadInLength="0/1"  />
              <InterpolatingParam id="2757" interp="linr"  time="-9999999/1" value="0" leadInLength="0/1"  />
              <InterpolatingParam id="2758" interp="linr"  time="-9999999/1" value="0" leadInLength="0/1"  />
              <InterpolatingParam id="2759" interp="linr"  time="-9999999/1" value="0" leadInLength="0/1"  />
             </VectorParam>
             <InterpolatingParam id="2760" interp="linr"  time="-9999999/1" value="1" leadInLength="0/1"  name="opacity"/>
            </Parameters>
            <Attributes>
             <Attribute id="2761" value="" name="ident"/>
            </Attributes>
            <MetaData>
             <entry key="WinSubProjectDisplayName" val=""/>
            </MetaData>
            <ExtraData>
             <Entry key="ZoomPanBin">
              <ZoomPanBin id="2762"  >
               <ZoomPanKeyframes>
                <ZoomPanKeyframe id="2763" timeRangeEnd="-9999999/1" timeRangeDuration="0/1" interpolaterName="linr"  />
               </ZoomPanKeyframes>
              </ZoomPanBin>
             </Entry>
            </ExtraData>
           </IMFile>
           <UnifiedMedia id="2764"  >
            <AMFile id="2765" start="16" duration="1979" scalar="1/1" mediaStart="6973/1" mediaDuration="1979/1" trackNumber="1" src="21" channelNumber="0,1" >
             <Parameters>
              <InterpolatingParam id="2766" interp="linr"  time="0/1" value="1" leadInLength="0/1"  name="volume"/>
              <Parameter id="2767"  name="captions"/>
             </Parameters>
             <Attributes>
              <Attribute id="2768" value="" name="ident"/>
              <Attribute id="2769" value="44100" name="sampleRate"/>
              <Attribute id="2770" value="16" name="bitDepth"/>
              <Attribute id="2771" value="1" name="gain"/>
              <Attribute id="2772" value="0" name="mixToMono"/>
             </Attributes>
            </AMFile>
            <VMFile id="2773" start="16" duration="1979" scalar="1/1" mediaStart="6973/1" mediaDuration="1979/1" trackNumber="0" src="21" >
             <Transformer>
              <VectorParam id="2774"  name="translation">
               <InterpolatingParam id="2775" interp="linr"  time="-9999999/1" value="0" leadInLength="0/1"  />
               <InterpolatingParam id="2776" interp="linr"  time="-9999999/1" value="0" leadInLength="0/1"  />
               <InterpolatingParam id="2777" interp="linr"  time="-9999999/1" value="0" leadInLength="0/1"  />
              </VectorParam>
              <VectorParam id="2778"  name="rotation">
               <InterpolatingParam id="2779" interp="linr"  time="-9999999/1" value="0" leadInLength="0/1"  />
               <InterpolatingParam id="2780" interp="linr"  time="-9999999/1" value="0" leadInLength="0/1"  />
               <InterpolatingParam id="2781" interp="linr"  time="-9999999/1" value="0" leadInLength="0/1"  />
              </VectorParam>
              <VectorParam id="2782"  name="shear">
               <InterpolatingParam id="2783" interp="linr"  time="-9999999/1" value="0" leadInLength="0/1"  />
               <InterpolatingParam id="2784" interp="linr"  time="-9999999/1" value="0" leadInLength="0/1"  />
               <InterpolatingParam id="2785" interp="linr"  time="-9999999/1" value="0" leadInLength="0/1"  />
              </VectorParam>
              <VectorParam id="2786"  name="scale">
               <InterpolatingParam id="2787" interp="linr"  time="-9999999/1" value="1" leadInLength="0/1"  />
               <InterpolatingParam id="2788" interp="linr"  time="-9999999/1" value="1" leadInLength="0/1"  />
               <InterpolatingParam id="2789" interp="linr"  time="-9999999/1" value="1" leadInLength="0/1"  />
              </VectorParam>
              <VectorParam id="2790"  name="anchor">
               <InterpolatingParam id="2791" interp="linr"  time="0/1" value="0" leadInLength="0/1"  />
               <InterpolatingParam id="2792" interp="linr"  time="0/1" value="0" leadInLength="0/1"  />
               <InterpolatingParam id="2793" interp="linr"  time="0/1" value="0" leadInLength="0/1"  />
              </VectorParam>
             </Transformer>
             <Parameters>
              <VectorParam id="2794"  name="sourceCrop">
               <InterpolatingParam id="2795" interp="linr"  time="0/1" value="0" leadInLength="0/1"  />
               <InterpolatingParam id="2796" interp="linr"  time="0/1" value="0" leadInLength="0/1"  />
               <InterpolatingParam id="2797" interp="linr"  time="0/1" value="0" leadInLength="0/1"  />
               <InterpolatingParam id="2798" interp="linr"  time="0/1" value="0" leadInLength="0/1"  />
              </VectorParam>
              <VectorParam id="2799"  name="geometryCrop">
               <InterpolatingParam id="2800" interp="linr"  time="-9999999/1" value="0" leadInLength="0/1"  />
               <InterpolatingParam id="2801" interp="linr"  time="-9999999/1" value="0" leadInLength="0/1"  />
               <InterpolatingParam id="2802" interp="linr"  time="-9999999/1" value="0" leadInLength="0/1"  />
               <InterpolatingParam id="2803" interp="linr"  time="-9999999/1" value="0" leadInLength="0/1"  />
              </VectorParam>
              <InterpolatingParam id="2804" interp="linr"  time="-9999999/1" value="1" leadInLength="0/1"  name="opacity"/>
             </Parameters>
             <Attributes>
              <Attribute id="2805" value="" name="ident"/>
             </Attributes>
             <ExtraData>
              <Entry key="ZoomPanBin">
               <ZoomPanBin id="2806"  >
                <ZoomPanKeyframes>
                 <ZoomPanKeyframe id="2807" timeRangeEnd="-9999999/1" timeRangeDuration="0/1" interpolaterName="linr"  />
                </ZoomPanKeyframes>
               </ZoomPanBin>
              </Entry>
             </ExtraData>
            </VMFile>
            <MetaData>
             <entry key="WinSubProjectDisplayName" val=""/>
            </MetaData>
           </UnifiedMedia>
          </Medias>
         </GenericTrack>
        </StitchedMedia>
        <StitchedMedia id="2808" start="6971" duration="21" scalar="1098867/943520" mediaStart="3375/104654" mediaDuration="943520/52327" minMediaStart="-5833616625/104654" >
         <Transformer>
          <VectorParam id="2809"  name="translation">
           <InterpolatingParam id="2810" interp="linr"  time="-9999999/1" value="0" leadInLength="0/1"  />
           <InterpolatingParam id="2811" interp="linr"  time="-9999999/1" value="0" leadInLength="0/1"  />
           <InterpolatingParam id="2812" interp="linr"  time="-9999999/1" value="0" leadInLength="0/1"  />
          </VectorParam>
          <VectorParam id="2813"  name="rotation">
           <InterpolatingParam id="2814" interp="linr"  time="-9999999/1" value="0" leadInLength="0/1"  />
           <InterpolatingParam id="2815" interp="linr"  time="-9999999/1" value="0" leadInLength="0/1"  />
           <InterpolatingParam id="2816" interp="linr"  time="-9999999/1" value="0" leadInLength="0/1"  />
          </VectorParam>
          <VectorParam id="2817"  name="shear">
           <InterpolatingParam id="2818" interp="linr"  time="-9999999/1" value="0" leadInLength="0/1"  />
           <InterpolatingParam id="2819" interp="linr"  time="-9999999/1" value="0" leadInLength="0/1"  />
           <InterpolatingParam id="2820" interp="linr"  time="-9999999/1" value="0" leadInLength="0/1"  />
          </VectorParam>
          <VectorParam id="2821"  name="scale">
           <InterpolatingParam id="2822" interp="linr"  time="-9999999/1" value="1" leadInLength="0/1"  />
           <InterpolatingParam id="2823" interp="linr"  time="-9999999/1" value="1" leadInLength="0/1"  />
           <InterpolatingParam id="2824" interp="linr"  time="-9999999/1" value="1" leadInLength="0/1"  />
          </VectorParam>
          <VectorParam id="2825"  name="anchor">
           <InterpolatingParam id="2826" interp="linr"  time="0/1" value="0" leadInLength="0/1"  />
           <InterpolatingParam id="2827" interp="linr"  time="0/1" value="0" leadInLength="0/1"  />
           <InterpolatingParam id="2828" interp="linr"  time="0/1" value="0" leadInLength="0/1"  />
          </VectorParam>
         </Transformer>
         <Parameters>
          <VectorParam id="2829"  name="sourceCrop">
           <InterpolatingParam id="2830" interp="linr"  time="0/1" value="0" leadInLength="0/1"  />
           <InterpolatingParam id="2831" interp="linr"  time="0/1" value="0" leadInLength="0/1"  />
           <InterpolatingParam id="2832" interp="linr"  time="0/1" value="0" leadInLength="0/1"  />
           <InterpolatingParam id="2833" interp="linr"  time="0/1" value="0" leadInLength="0/1"  />
          </VectorParam>
          <VectorParam id="2834"  name="geometryCrop">
           <InterpolatingParam id="2835" interp="linr"  time="-9999999/1" value="0" leadInLength="0/1"  />
           <InterpolatingParam id="2836" interp="linr"  time="-9999999/1" value="0" leadInLength="0/1"  />
           <InterpolatingParam id="2837" interp="linr"  time="-9999999/1" value="0" leadInLength="0/1"  />
           <InterpolatingParam id="2838" interp="linr"  time="-9999999/1" value="0" leadInLength="0/1"  />
          </VectorParam>
          <InterpolatingParam id="2839" interp="linr"  time="-9999999/1" value="1" leadInLength="0/1"  name="opacity"/>
          <InterpolatingParam id="2840" interp="linr"  time="0/1" value="1" leadInLength="0/1"  name="cursorOpacity"/>
          <InterpolatingParam id="2841" interp="linr"  time="0/1" value="1" leadInLength="0/1"  name="cursorScale"/>
          <InterpolatingParam id="2842" interp="linr"  name="volume">
           <Keyframes>
           <Keyframe id="2843"  time="-5833616625/104654" value="0" leadInLength="0/1"  />
           <Keyframe id="2844"  time="143611/9514" value="0" leadInLength="0/1"  />
           <Keyframe id="2845"  time="17/1" value="0" leadInLength="0/1"  />
           </Keyframes>
          </InterpolatingParam>
          <Parameter id="2846"  name="captions"/>
         </Parameters>
         <Attributes>
          <Attribute id="2847" value="" name="ident"/>
          <Attribute id="2848" value="0" name="mixToMono"/>
         </Attributes>
         <MetaData>
          <entry key="WinSubProjectDisplayName" val=""/>
         </MetaData>
         <ExtraData>
          <Entry key="ZoomPanBin">
           <ZoomPanBin id="2849"  >
            <ZoomPanKeyframes>
             <ZoomPanKeyframe id="2850" timeRangeEnd="-9999999/1" timeRangeDuration="0/1" interpolaterName="linr"  />
            </ZoomPanKeyframes>
           </ZoomPanBin>
          </Entry>
          <Entry key="CursorEffectBin">
           <CursorEffectBin id="2851"  >
            <CursorEffectKeyframes>
            </CursorEffectKeyframes>
           </CursorEffectBin>
          </Entry>
         </ExtraData>
         <GenericTrack id="2852"  >
          <Attributes>
           <Attribute id="2853" value="" name="ident"/>
           <Attribute id="2854" value="0" name="audioMuted"/>
           <Attribute id="2855" value="0" name="videoHidden"/>
          </Attributes>
          <MetaData>
           <entry key="IsLocked" val="False"/>
           <entry key="WinTrackHeight" val="0"/>
          </MetaData>
          <Medias>
           <IMFile id="2856" start="-55742" duration="55758" scalar="1/1" mediaStart="6973/1" mediaDuration="1/1" trackNumber="0" src="21" trimStartSum="-55742/1" >
            <Transformer>
             <VectorParam id="2857"  name="translation">
              <InterpolatingParam id="2858" interp="linr"  time="-9999999/1" value="0" leadInLength="0/1"  />
              <InterpolatingParam id="2859" interp="linr"  time="-9999999/1" value="0" leadInLength="0/1"  />
              <InterpolatingParam id="2860" interp="linr"  time="-9999999/1" value="0" leadInLength="0/1"  />
             </VectorParam>
             <VectorParam id="2861"  name="rotation">
              <InterpolatingParam id="2862" interp="linr"  time="-9999999/1" value="0" leadInLength="0/1"  />
              <InterpolatingParam id="2863" interp="linr"  time="-9999999/1" value="0" leadInLength="0/1"  />
              <InterpolatingParam id="2864" interp="linr"  time="-9999999/1" value="0" leadInLength="0/1"  />
             </VectorParam>
             <VectorParam id="2865"  name="shear">
              <InterpolatingParam id="2866" interp="linr"  time="-9999999/1" value="0" leadInLength="0/1"  />
              <InterpolatingParam id="2867" interp="linr"  time="-9999999/1" value="0" leadInLength="0/1"  />
              <InterpolatingParam id="2868" interp="linr"  time="-9999999/1" value="0" leadInLength="0/1"  />
             </VectorParam>
             <VectorParam id="2869"  name="scale">
              <InterpolatingParam id="2870" interp="linr"  time="-9999999/1" value="1" leadInLength="0/1"  />
              <InterpolatingParam id="2871" interp="linr"  time="-9999999/1" value="1" leadInLength="0/1"  />
              <InterpolatingParam id="2872" interp="linr"  time="-9999999/1" value="1" leadInLength="0/1"  />
             </VectorParam>
             <VectorParam id="2873"  name="anchor">
              <InterpolatingParam id="2874" interp="linr"  time="0/1" value="0" leadInLength="0/1"  />
              <InterpolatingParam id="2875" interp="linr"  time="0/1" value="0" leadInLength="0/1"  />
              <InterpolatingParam id="2876" interp="linr"  time="0/1" value="0" leadInLength="0/1"  />
             </VectorParam>
            </Transformer>
            <Parameters>
             <VectorParam id="2877"  name="sourceCrop">
              <InterpolatingParam id="2878" interp="linr"  time="0/1" value="0" leadInLength="0/1"  />
              <InterpolatingParam id="2879" interp="linr"  time="0/1" value="0" leadInLength="0/1"  />
              <InterpolatingParam id="2880" interp="linr"  time="0/1" value="0" leadInLength="0/1"  />
              <InterpolatingParam id="2881" interp="linr"  time="0/1" value="0" leadInLength="0/1"  />
             </VectorParam>
             <VectorParam id="2882"  name="geometryCrop">
              <InterpolatingParam id="2883" interp="linr"  time="-9999999/1" value="0" leadInLength="0/1"  />
              <InterpolatingParam id="2884" interp="linr"  time="-9999999/1" value="0" leadInLength="0/1"  />
              <InterpolatingParam id="2885" interp="linr"  time="-9999999/1" value="0" leadInLength="0/1"  />
              <InterpolatingParam id="2886" interp="linr"  time="-9999999/1" value="0" leadInLength="0/1"  />
             </VectorParam>
             <InterpolatingParam id="2887" interp="linr"  time="-9999999/1" value="1" leadInLength="0/1"  name="opacity"/>
            </Parameters>
            <Attributes>
             <Attribute id="2888" value="" name="ident"/>
            </Attributes>
            <MetaData>
             <entry key="WinSubProjectDisplayName" val=""/>
            </MetaData>
            <ExtraData>
             <Entry key="ZoomPanBin">
              <ZoomPanBin id="2889"  >
               <ZoomPanKeyframes>
                <ZoomPanKeyframe id="2890" timeRangeEnd="-9999999/1" timeRangeDuration="0/1" interpolaterName="linr"  />
               </ZoomPanKeyframes>
              </ZoomPanBin>
             </Entry>
            </ExtraData>
           </IMFile>
           <UnifiedMedia id="2891"  >
            <AMFile id="2892" start="16" duration="1979" scalar="1/1" mediaStart="6973/1" mediaDuration="1979/1" trackNumber="1" src="21" channelNumber="0,1" >
             <Parameters>
              <InterpolatingParam id="2893" interp="linr"  time="0/1" value="1" leadInLength="0/1"  name="volume"/>
              <Parameter id="2894"  name="captions"/>
             </Parameters>
             <Attributes>
              <Attribute id="2895" value="" name="ident"/>
              <Attribute id="2896" value="44100" name="sampleRate"/>
              <Attribute id="2897" value="16" name="bitDepth"/>
              <Attribute id="2898" value="1" name="gain"/>
              <Attribute id="2899" value="0" name="mixToMono"/>
             </Attributes>
            </AMFile>
            <VMFile id="2900" start="16" duration="1979" scalar="1/1" mediaStart="6973/1" mediaDuration="1979/1" trackNumber="0" src="21" >
             <Transformer>
              <VectorParam id="2901"  name="translation">
               <InterpolatingParam id="2902" interp="linr"  time="-9999999/1" value="0" leadInLength="0/1"  />
               <InterpolatingParam id="2903" interp="linr"  time="-9999999/1" value="0" leadInLength="0/1"  />
               <InterpolatingParam id="2904" interp="linr"  time="-9999999/1" value="0" leadInLength="0/1"  />
              </VectorParam>
              <VectorParam id="2905"  name="rotation">
               <InterpolatingParam id="2906" interp="linr"  time="-9999999/1" value="0" leadInLength="0/1"  />
               <InterpolatingParam id="2907" interp="linr"  time="-9999999/1" value="0" leadInLength="0/1"  />
               <InterpolatingParam id="2908" interp="linr"  time="-9999999/1" value="0" leadInLength="0/1"  />
              </VectorParam>
              <VectorParam id="2909"  name="shear">
               <InterpolatingParam id="2910" interp="linr"  time="-9999999/1" value="0" leadInLength="0/1"  />
               <InterpolatingParam id="2911" interp="linr"  time="-9999999/1" value="0" leadInLength="0/1"  />
               <InterpolatingParam id="2912" interp="linr"  time="-9999999/1" value="0" leadInLength="0/1"  />
              </VectorParam>
              <VectorParam id="2913"  name="scale">
               <InterpolatingParam id="2914" interp="linr"  time="-9999999/1" value="1" leadInLength="0/1"  />
               <InterpolatingParam id="2915" interp="linr"  time="-9999999/1" value="1" leadInLength="0/1"  />
               <InterpolatingParam id="2916" interp="linr"  time="-9999999/1" value="1" leadInLength="0/1"  />
              </VectorParam>
              <VectorParam id="2917"  name="anchor">
               <InterpolatingParam id="2918" interp="linr"  time="0/1" value="0" leadInLength="0/1"  />
               <InterpolatingParam id="2919" interp="linr"  time="0/1" value="0" leadInLength="0/1"  />
               <InterpolatingParam id="2920" interp="linr"  time="0/1" value="0" leadInLength="0/1"  />
              </VectorParam>
             </Transformer>
             <Parameters>
              <VectorParam id="2921"  name="sourceCrop">
               <InterpolatingParam id="2922" interp="linr"  time="0/1" value="0" leadInLength="0/1"  />
               <InterpolatingParam id="2923" interp="linr"  time="0/1" value="0" leadInLength="0/1"  />
               <InterpolatingParam id="2924" interp="linr"  time="0/1" value="0" leadInLength="0/1"  />
               <InterpolatingParam id="2925" interp="linr"  time="0/1" value="0" leadInLength="0/1"  />
              </VectorParam>
              <VectorParam id="2926"  name="geometryCrop">
               <InterpolatingParam id="2927" interp="linr"  time="-9999999/1" value="0" leadInLength="0/1"  />
               <InterpolatingParam id="2928" interp="linr"  time="-9999999/1" value="0" leadInLength="0/1"  />
               <InterpolatingParam id="2929" interp="linr"  time="-9999999/1" value="0" leadInLength="0/1"  />
               <InterpolatingParam id="2930" interp="linr"  time="-9999999/1" value="0" leadInLength="0/1"  />
              </VectorParam>
              <InterpolatingParam id="2931" interp="linr"  time="-9999999/1" value="1" leadInLength="0/1"  name="opacity"/>
             </Parameters>
             <Attributes>
              <Attribute id="2932" value="" name="ident"/>
             </Attributes>
             <ExtraData>
              <Entry key="ZoomPanBin">
               <ZoomPanBin id="2933"  >
                <ZoomPanKeyframes>
                 <ZoomPanKeyframe id="2934" timeRangeEnd="-9999999/1" timeRangeDuration="0/1" interpolaterName="linr"  />
                </ZoomPanKeyframes>
               </ZoomPanBin>
              </Entry>
             </ExtraData>
            </VMFile>
            <MetaData>
             <entry key="WinSubProjectDisplayName" val=""/>
            </MetaData>
           </UnifiedMedia>
          </Medias>
         </GenericTrack>
        </StitchedMedia>
        <StitchedMedia id="2935" start="6992" duration="21" scalar="1098867/943520" mediaStart="3375/104654" mediaDuration="943520/52327" minMediaStart="-5833616625/104654" >
         <Transformer>
          <VectorParam id="2936"  name="translation">
           <InterpolatingParam id="2937" interp="linr"  time="-9999999/1" value="0" leadInLength="0/1"  />
           <InterpolatingParam id="2938" interp="linr"  time="-9999999/1" value="0" leadInLength="0/1"  />
           <InterpolatingParam id="2939" interp="linr"  time="-9999999/1" value="0" leadInLength="0/1"  />
          </VectorParam>
          <VectorParam id="2940"  name="rotation">
           <InterpolatingParam id="2941" interp="linr"  time="-9999999/1" value="0" leadInLength="0/1"  />
           <InterpolatingParam id="2942" interp="linr"  time="-9999999/1" value="0" leadInLength="0/1"  />
           <InterpolatingParam id="2943" interp="linr"  time="-9999999/1" value="0" leadInLength="0/1"  />
          </VectorParam>
          <VectorParam id="2944"  name="shear">
           <InterpolatingParam id="2945" interp="linr"  time="-9999999/1" value="0" leadInLength="0/1"  />
           <InterpolatingParam id="2946" interp="linr"  time="-9999999/1" value="0" leadInLength="0/1"  />
           <InterpolatingParam id="2947" interp="linr"  time="-9999999/1" value="0" leadInLength="0/1"  />
          </VectorParam>
          <VectorParam id="2948"  name="scale">
           <InterpolatingParam id="2949" interp="linr"  time="-9999999/1" value="1" leadInLength="0/1"  />
           <InterpolatingParam id="2950" interp="linr"  time="-9999999/1" value="1" leadInLength="0/1"  />
           <InterpolatingParam id="2951" interp="linr"  time="-9999999/1" value="1" leadInLength="0/1"  />
          </VectorParam>
          <VectorParam id="2952"  name="anchor">
           <InterpolatingParam id="2953" interp="linr"  time="0/1" value="0" leadInLength="0/1"  />
           <InterpolatingParam id="2954" interp="linr"  time="0/1" value="0" leadInLength="0/1"  />
           <InterpolatingParam id="2955" interp="linr"  time="0/1" value="0" leadInLength="0/1"  />
          </VectorParam>
         </Transformer>
         <Parameters>
          <VectorParam id="2956"  name="sourceCrop">
           <InterpolatingParam id="2957" interp="linr"  time="0/1" value="0" leadInLength="0/1"  />
           <InterpolatingParam id="2958" interp="linr"  time="0/1" value="0" leadInLength="0/1"  />
           <InterpolatingParam id="2959" interp="linr"  time="0/1" value="0" leadInLength="0/1"  />
           <InterpolatingParam id="2960" interp="linr"  time="0/1" value="0" leadInLength="0/1"  />
          </VectorParam>
          <VectorParam id="2961"  name="geometryCrop">
           <InterpolatingParam id="2962" interp="linr"  time="-9999999/1" value="0" leadInLength="0/1"  />
           <InterpolatingParam id="2963" interp="linr"  time="-9999999/1" value="0" leadInLength="0/1"  />
           <InterpolatingParam id="2964" interp="linr"  time="-9999999/1" value="0" leadInLength="0/1"  />
           <InterpolatingParam id="2965" interp="linr"  time="-9999999/1" value="0" leadInLength="0/1"  />
          </VectorParam>
          <InterpolatingParam id="2966" interp="linr"  time="-9999999/1" value="1" leadInLength="0/1"  name="opacity"/>
          <InterpolatingParam id="2967" interp="linr"  time="0/1" value="1" leadInLength="0/1"  name="cursorOpacity"/>
          <InterpolatingParam id="2968" interp="linr"  time="0/1" value="1" leadInLength="0/1"  name="cursorScale"/>
          <InterpolatingParam id="2969" interp="linr"  name="volume">
           <Keyframes>
           <Keyframe id="2970"  time="-5833616625/104654" value="0" leadInLength="0/1"  />
           <Keyframe id="2971"  time="143611/9514" value="0" leadInLength="0/1"  />
           <Keyframe id="2972"  time="17/1" value="0" leadInLength="0/1"  />
           </Keyframes>
          </InterpolatingParam>
          <Parameter id="2973"  name="captions"/>
         </Parameters>
         <Attributes>
          <Attribute id="2974" value="" name="ident"/>
          <Attribute id="2975" value="0" name="mixToMono"/>
         </Attributes>
         <MetaData>
          <entry key="WinSubProjectDisplayName" val=""/>
         </MetaData>
         <ExtraData>
          <Entry key="ZoomPanBin">
           <ZoomPanBin id="2976"  >
            <ZoomPanKeyframes>
             <ZoomPanKeyframe id="2977" timeRangeEnd="-9999999/1" timeRangeDuration="0/1" interpolaterName="linr"  />
            </ZoomPanKeyframes>
           </ZoomPanBin>
          </Entry>
          <Entry key="CursorEffectBin">
           <CursorEffectBin id="2978"  >
            <CursorEffectKeyframes>
            </CursorEffectKeyframes>
           </CursorEffectBin>
          </Entry>
         </ExtraData>
         <GenericTrack id="2979"  >
          <Attributes>
           <Attribute id="2980" value="" name="ident"/>
           <Attribute id="2981" value="0" name="audioMuted"/>
           <Attribute id="2982" value="0" name="videoHidden"/>
          </Attributes>
          <MetaData>
           <entry key="IsLocked" val="False"/>
           <entry key="WinTrackHeight" val="0"/>
          </MetaData>
          <Medias>
           <IMFile id="2983" start="-55742" duration="55758" scalar="1/1" mediaStart="6973/1" mediaDuration="1/1" trackNumber="0" src="21" trimStartSum="-55742/1" >
            <Transformer>
             <VectorParam id="2984"  name="translation">
              <InterpolatingParam id="2985" interp="linr"  time="-9999999/1" value="0" leadInLength="0/1"  />
              <InterpolatingParam id="2986" interp="linr"  time="-9999999/1" value="0" leadInLength="0/1"  />
              <InterpolatingParam id="2987" interp="linr"  time="-9999999/1" value="0" leadInLength="0/1"  />
             </VectorParam>
             <VectorParam id="2988"  name="rotation">
              <InterpolatingParam id="2989" interp="linr"  time="-9999999/1" value="0" leadInLength="0/1"  />
              <InterpolatingParam id="2990" interp="linr"  time="-9999999/1" value="0" leadInLength="0/1"  />
              <InterpolatingParam id="2991" interp="linr"  time="-9999999/1" value="0" leadInLength="0/1"  />
             </VectorParam>
             <VectorParam id="2992"  name="shear">
              <InterpolatingParam id="2993" interp="linr"  time="-9999999/1" value="0" leadInLength="0/1"  />
              <InterpolatingParam id="2994" interp="linr"  time="-9999999/1" value="0" leadInLength="0/1"  />
              <InterpolatingParam id="2995" interp="linr"  time="-9999999/1" value="0" leadInLength="0/1"  />
             </VectorParam>
             <VectorParam id="2996"  name="scale">
              <InterpolatingParam id="2997" interp="linr"  time="-9999999/1" value="1" leadInLength="0/1"  />
              <InterpolatingParam id="2998" interp="linr"  time="-9999999/1" value="1" leadInLength="0/1"  />
              <InterpolatingParam id="2999" interp="linr"  time="-9999999/1" value="1" leadInLength="0/1"  />
             </VectorParam>
             <VectorParam id="3000"  name="anchor">
              <InterpolatingParam id="3001" interp="linr"  time="0/1" value="0" leadInLength="0/1"  />
              <InterpolatingParam id="3002" interp="linr"  time="0/1" value="0" leadInLength="0/1"  />
              <InterpolatingParam id="3003" interp="linr"  time="0/1" value="0" leadInLength="0/1"  />
             </VectorParam>
            </Transformer>
            <Parameters>
             <VectorParam id="3004"  name="sourceCrop">
              <InterpolatingParam id="3005" interp="linr"  time="0/1" value="0" leadInLength="0/1"  />
              <InterpolatingParam id="3006" interp="linr"  time="0/1" value="0" leadInLength="0/1"  />
              <InterpolatingParam id="3007" interp="linr"  time="0/1" value="0" leadInLength="0/1"  />
              <InterpolatingParam id="3008" interp="linr"  time="0/1" value="0" leadInLength="0/1"  />
             </VectorParam>
             <VectorParam id="3009"  name="geometryCrop">
              <InterpolatingParam id="3010" interp="linr"  time="-9999999/1" value="0" leadInLength="0/1"  />
              <InterpolatingParam id="3011" interp="linr"  time="-9999999/1" value="0" leadInLength="0/1"  />
              <InterpolatingParam id="3012" interp="linr"  time="-9999999/1" value="0" leadInLength="0/1"  />
              <InterpolatingParam id="3013" interp="linr"  time="-9999999/1" value="0" leadInLength="0/1"  />
             </VectorParam>
             <InterpolatingParam id="3014" interp="linr"  time="-9999999/1" value="1" leadInLength="0/1"  name="opacity"/>
            </Parameters>
            <Attributes>
             <Attribute id="3015" value="" name="ident"/>
            </Attributes>
            <MetaData>
             <entry key="WinSubProjectDisplayName" val=""/>
            </MetaData>
            <ExtraData>
             <Entry key="ZoomPanBin">
              <ZoomPanBin id="3016"  >
               <ZoomPanKeyframes>
                <ZoomPanKeyframe id="3017" timeRangeEnd="-9999999/1" timeRangeDuration="0/1" interpolaterName="linr"  />
               </ZoomPanKeyframes>
              </ZoomPanBin>
             </Entry>
            </ExtraData>
           </IMFile>
           <UnifiedMedia id="3018"  >
            <AMFile id="3019" start="16" duration="1979" scalar="1/1" mediaStart="6973/1" mediaDuration="1979/1" trackNumber="1" src="21" channelNumber="0,1" >
             <Parameters>
              <InterpolatingParam id="3020" interp="linr"  time="0/1" value="1" leadInLength="0/1"  name="volume"/>
              <Parameter id="3021"  name="captions"/>
             </Parameters>
             <Attributes>
              <Attribute id="3022" value="" name="ident"/>
              <Attribute id="3023" value="44100" name="sampleRate"/>
              <Attribute id="3024" value="16" name="bitDepth"/>
              <Attribute id="3025" value="1" name="gain"/>
              <Attribute id="3026" value="0" name="mixToMono"/>
             </Attributes>
            </AMFile>
            <VMFile id="3027" start="16" duration="1979" scalar="1/1" mediaStart="6973/1" mediaDuration="1979/1" trackNumber="0" src="21" >
             <Transformer>
              <VectorParam id="3028"  name="translation">
               <InterpolatingParam id="3029" interp="linr"  time="-9999999/1" value="0" leadInLength="0/1"  />
               <InterpolatingParam id="3030" interp="linr"  time="-9999999/1" value="0" leadInLength="0/1"  />
               <InterpolatingParam id="3031" interp="linr"  time="-9999999/1" value="0" leadInLength="0/1"  />
              </VectorParam>
              <VectorParam id="3032"  name="rotation">
               <InterpolatingParam id="3033" interp="linr"  time="-9999999/1" value="0" leadInLength="0/1"  />
               <InterpolatingParam id="3034" interp="linr"  time="-9999999/1" value="0" leadInLength="0/1"  />
               <InterpolatingParam id="3035" interp="linr"  time="-9999999/1" value="0" leadInLength="0/1"  />
              </VectorParam>
              <VectorParam id="3036"  name="shear">
               <InterpolatingParam id="3037" interp="linr"  time="-9999999/1" value="0" leadInLength="0/1"  />
               <InterpolatingParam id="3038" interp="linr"  time="-9999999/1" value="0" leadInLength="0/1"  />
               <InterpolatingParam id="3039" interp="linr"  time="-9999999/1" value="0" leadInLength="0/1"  />
              </VectorParam>
              <VectorParam id="3040"  name="scale">
               <InterpolatingParam id="3041" interp="linr"  time="-9999999/1" value="1" leadInLength="0/1"  />
               <InterpolatingParam id="3042" interp="linr"  time="-9999999/1" value="1" leadInLength="0/1"  />
               <InterpolatingParam id="3043" interp="linr"  time="-9999999/1" value="1" leadInLength="0/1"  />
              </VectorParam>
              <VectorParam id="3044"  name="anchor">
               <InterpolatingParam id="3045" interp="linr"  time="0/1" value="0" leadInLength="0/1"  />
               <InterpolatingParam id="3046" interp="linr"  time="0/1" value="0" leadInLength="0/1"  />
               <InterpolatingParam id="3047" interp="linr"  time="0/1" value="0" leadInLength="0/1"  />
              </VectorParam>
             </Transformer>
             <Parameters>
              <VectorParam id="3048"  name="sourceCrop">
               <InterpolatingParam id="3049" interp="linr"  time="0/1" value="0" leadInLength="0/1"  />
               <InterpolatingParam id="3050" interp="linr"  time="0/1" value="0" leadInLength="0/1"  />
               <InterpolatingParam id="3051" interp="linr"  time="0/1" value="0" leadInLength="0/1"  />
               <InterpolatingParam id="3052" interp="linr"  time="0/1" value="0" leadInLength="0/1"  />
              </VectorParam>
              <VectorParam id="3053"  name="geometryCrop">
               <InterpolatingParam id="3054" interp="linr"  time="-9999999/1" value="0" leadInLength="0/1"  />
               <InterpolatingParam id="3055" interp="linr"  time="-9999999/1" value="0" leadInLength="0/1"  />
               <InterpolatingParam id="3056" interp="linr"  time="-9999999/1" value="0" leadInLength="0/1"  />
               <InterpolatingParam id="3057" interp="linr"  time="-9999999/1" value="0" leadInLength="0/1"  />
              </VectorParam>
              <InterpolatingParam id="3058" interp="linr"  time="-9999999/1" value="1" leadInLength="0/1"  name="opacity"/>
             </Parameters>
             <Attributes>
              <Attribute id="3059" value="" name="ident"/>
             </Attributes>
             <ExtraData>
              <Entry key="ZoomPanBin">
               <ZoomPanBin id="3060"  >
                <ZoomPanKeyframes>
                 <ZoomPanKeyframe id="3061" timeRangeEnd="-9999999/1" timeRangeDuration="0/1" interpolaterName="linr"  />
                </ZoomPanKeyframes>
               </ZoomPanBin>
              </Entry>
             </ExtraData>
            </VMFile>
            <MetaData>
             <entry key="WinSubProjectDisplayName" val=""/>
            </MetaData>
           </UnifiedMedia>
          </Medias>
         </GenericTrack>
        </StitchedMedia>
        <StitchedMedia id="3062" start="7013" duration="21" scalar="1098867/943520" mediaStart="3375/104654" mediaDuration="943520/52327" minMediaStart="-5833616625/104654" >
         <Transformer>
          <VectorParam id="3063"  name="translation">
           <InterpolatingParam id="3064" interp="linr"  time="-9999999/1" value="0" leadInLength="0/1"  />
           <InterpolatingParam id="3065" interp="linr"  time="-9999999/1" value="0" leadInLength="0/1"  />
           <InterpolatingParam id="3066" interp="linr"  time="-9999999/1" value="0" leadInLength="0/1"  />
          </VectorParam>
          <VectorParam id="3067"  name="rotation">
           <InterpolatingParam id="3068" interp="linr"  time="-9999999/1" value="0" leadInLength="0/1"  />
           <InterpolatingParam id="3069" interp="linr"  time="-9999999/1" value="0" leadInLength="0/1"  />
           <InterpolatingParam id="3070" interp="linr"  time="-9999999/1" value="0" leadInLength="0/1"  />
          </VectorParam>
          <VectorParam id="3071"  name="shear">
           <InterpolatingParam id="3072" interp="linr"  time="-9999999/1" value="0" leadInLength="0/1"  />
           <InterpolatingParam id="3073" interp="linr"  time="-9999999/1" value="0" leadInLength="0/1"  />
           <InterpolatingParam id="3074" interp="linr"  time="-9999999/1" value="0" leadInLength="0/1"  />
          </VectorParam>
          <VectorParam id="3075"  name="scale">
           <InterpolatingParam id="3076" interp="linr"  time="-9999999/1" value="1" leadInLength="0/1"  />
           <InterpolatingParam id="3077" interp="linr"  time="-9999999/1" value="1" leadInLength="0/1"  />
           <InterpolatingParam id="3078" interp="linr"  time="-9999999/1" value="1" leadInLength="0/1"  />
          </VectorParam>
          <VectorParam id="3079"  name="anchor">
           <InterpolatingParam id="3080" interp="linr"  time="0/1" value="0" leadInLength="0/1"  />
           <InterpolatingParam id="3081" interp="linr"  time="0/1" value="0" leadInLength="0/1"  />
           <InterpolatingParam id="3082" interp="linr"  time="0/1" value="0" leadInLength="0/1"  />
          </VectorParam>
         </Transformer>
         <Parameters>
          <VectorParam id="3083"  name="sourceCrop">
           <InterpolatingParam id="3084" interp="linr"  time="0/1" value="0" leadInLength="0/1"  />
           <InterpolatingParam id="3085" interp="linr"  time="0/1" value="0" leadInLength="0/1"  />
           <InterpolatingParam id="3086" interp="linr"  time="0/1" value="0" leadInLength="0/1"  />
           <InterpolatingParam id="3087" interp="linr"  time="0/1" value="0" leadInLength="0/1"  />
          </VectorParam>
          <VectorParam id="3088"  name="geometryCrop">
           <InterpolatingParam id="3089" interp="linr"  time="-9999999/1" value="0" leadInLength="0/1"  />
           <InterpolatingParam id="3090" interp="linr"  time="-9999999/1" value="0" leadInLength="0/1"  />
           <InterpolatingParam id="3091" interp="linr"  time="-9999999/1" value="0" leadInLength="0/1"  />
           <InterpolatingParam id="3092" interp="linr"  time="-9999999/1" value="0" leadInLength="0/1"  />
          </VectorParam>
          <InterpolatingParam id="3093" interp="linr"  time="-9999999/1" value="1" leadInLength="0/1"  name="opacity"/>
          <InterpolatingParam id="3094" interp="linr"  time="0/1" value="1" leadInLength="0/1"  name="cursorOpacity"/>
          <InterpolatingParam id="3095" interp="linr"  time="0/1" value="1" leadInLength="0/1"  name="cursorScale"/>
          <InterpolatingParam id="3096" interp="linr"  name="volume">
           <Keyframes>
           <Keyframe id="3097"  time="-5833616625/104654" value="0" leadInLength="0/1"  />
           <Keyframe id="3098"  time="143611/9514" value="0" leadInLength="0/1"  />
           <Keyframe id="3099"  time="17/1" value="0" leadInLength="0/1"  />
           </Keyframes>
          </InterpolatingParam>
          <Parameter id="3100"  name="captions"/>
         </Parameters>
         <Attributes>
          <Attribute id="3101" value="" name="ident"/>
          <Attribute id="3102" value="0" name="mixToMono"/>
         </Attributes>
         <MetaData>
          <entry key="WinSubProjectDisplayName" val=""/>
         </MetaData>
         <ExtraData>
          <Entry key="ZoomPanBin">
           <ZoomPanBin id="3103"  >
            <ZoomPanKeyframes>
             <ZoomPanKeyframe id="3104" timeRangeEnd="-9999999/1" timeRangeDuration="0/1" interpolaterName="linr"  />
            </ZoomPanKeyframes>
           </ZoomPanBin>
          </Entry>
          <Entry key="CursorEffectBin">
           <CursorEffectBin id="3105"  >
            <CursorEffectKeyframes>
            </CursorEffectKeyframes>
           </CursorEffectBin>
          </Entry>
         </ExtraData>
         <GenericTrack id="3106"  >
          <Attributes>
           <Attribute id="3107" value="" name="ident"/>
           <Attribute id="3108" value="0" name="audioMuted"/>
           <Attribute id="3109" value="0" name="videoHidden"/>
          </Attributes>
          <MetaData>
           <entry key="IsLocked" val="False"/>
           <entry key="WinTrackHeight" val="0"/>
          </MetaData>
          <Medias>
           <IMFile id="3110" start="-55742" duration="55758" scalar="1/1" mediaStart="6973/1" mediaDuration="1/1" trackNumber="0" src="21" trimStartSum="-55742/1" >
            <Transformer>
             <VectorParam id="3111"  name="translation">
              <InterpolatingParam id="3112" interp="linr"  time="-9999999/1" value="0" leadInLength="0/1"  />
              <InterpolatingParam id="3113" interp="linr"  time="-9999999/1" value="0" leadInLength="0/1"  />
              <InterpolatingParam id="3114" interp="linr"  time="-9999999/1" value="0" leadInLength="0/1"  />
             </VectorParam>
             <VectorParam id="3115"  name="rotation">
              <InterpolatingParam id="3116" interp="linr"  time="-9999999/1" value="0" leadInLength="0/1"  />
              <InterpolatingParam id="3117" interp="linr"  time="-9999999/1" value="0" leadInLength="0/1"  />
              <InterpolatingParam id="3118" interp="linr"  time="-9999999/1" value="0" leadInLength="0/1"  />
             </VectorParam>
             <VectorParam id="3119"  name="shear">
              <InterpolatingParam id="3120" interp="linr"  time="-9999999/1" value="0" leadInLength="0/1"  />
              <InterpolatingParam id="3121" interp="linr"  time="-9999999/1" value="0" leadInLength="0/1"  />
              <InterpolatingParam id="3122" interp="linr"  time="-9999999/1" value="0" leadInLength="0/1"  />
             </VectorParam>
             <VectorParam id="3123"  name="scale">
              <InterpolatingParam id="3124" interp="linr"  time="-9999999/1" value="1" leadInLength="0/1"  />
              <InterpolatingParam id="3125" interp="linr"  time="-9999999/1" value="1" leadInLength="0/1"  />
              <InterpolatingParam id="3126" interp="linr"  time="-9999999/1" value="1" leadInLength="0/1"  />
             </VectorParam>
             <VectorParam id="3127"  name="anchor">
              <InterpolatingParam id="3128" interp="linr"  time="0/1" value="0" leadInLength="0/1"  />
              <InterpolatingParam id="3129" interp="linr"  time="0/1" value="0" leadInLength="0/1"  />
              <InterpolatingParam id="3130" interp="linr"  time="0/1" value="0" leadInLength="0/1"  />
             </VectorParam>
            </Transformer>
            <Parameters>
             <VectorParam id="3131"  name="sourceCrop">
              <InterpolatingParam id="3132" interp="linr"  time="0/1" value="0" leadInLength="0/1"  />
              <InterpolatingParam id="3133" interp="linr"  time="0/1" value="0" leadInLength="0/1"  />
              <InterpolatingParam id="3134" interp="linr"  time="0/1" value="0" leadInLength="0/1"  />
              <InterpolatingParam id="3135" interp="linr"  time="0/1" value="0" leadInLength="0/1"  />
             </VectorParam>
             <VectorParam id="3136"  name="geometryCrop">
              <InterpolatingParam id="3137" interp="linr"  time="-9999999/1" value="0" leadInLength="0/1"  />
              <InterpolatingParam id="3138" interp="linr"  time="-9999999/1" value="0" leadInLength="0/1"  />
              <InterpolatingParam id="3139" interp="linr"  time="-9999999/1" value="0" leadInLength="0/1"  />
              <InterpolatingParam id="3140" interp="linr"  time="-9999999/1" value="0" leadInLength="0/1"  />
             </VectorParam>
             <InterpolatingParam id="3141" interp="linr"  time="-9999999/1" value="1" leadInLength="0/1"  name="opacity"/>
            </Parameters>
            <Attributes>
             <Attribute id="3142" value="" name="ident"/>
            </Attributes>
            <MetaData>
             <entry key="WinSubProjectDisplayName" val=""/>
            </MetaData>
            <ExtraData>
             <Entry key="ZoomPanBin">
              <ZoomPanBin id="3143"  >
               <ZoomPanKeyframes>
                <ZoomPanKeyframe id="3144" timeRangeEnd="-9999999/1" timeRangeDuration="0/1" interpolaterName="linr"  />
               </ZoomPanKeyframes>
              </ZoomPanBin>
             </Entry>
            </ExtraData>
           </IMFile>
           <UnifiedMedia id="3145"  >
            <AMFile id="3146" start="16" duration="1979" scalar="1/1" mediaStart="6973/1" mediaDuration="1979/1" trackNumber="1" src="21" channelNumber="0,1" >
             <Parameters>
              <InterpolatingParam id="3147" interp="linr"  time="0/1" value="1" leadInLength="0/1"  name="volume"/>
              <Parameter id="3148"  name="captions"/>
             </Parameters>
             <Attributes>
              <Attribute id="3149" value="" name="ident"/>
              <Attribute id="3150" value="44100" name="sampleRate"/>
              <Attribute id="3151" value="16" name="bitDepth"/>
              <Attribute id="3152" value="1" name="gain"/>
              <Attribute id="3153" value="0" name="mixToMono"/>
             </Attributes>
            </AMFile>
            <VMFile id="3154" start="16" duration="1979" scalar="1/1" mediaStart="6973/1" mediaDuration="1979/1" trackNumber="0" src="21" >
             <Transformer>
              <VectorParam id="3155"  name="translation">
               <InterpolatingParam id="3156" interp="linr"  time="-9999999/1" value="0" leadInLength="0/1"  />
               <InterpolatingParam id="3157" interp="linr"  time="-9999999/1" value="0" leadInLength="0/1"  />
               <InterpolatingParam id="3158" interp="linr"  time="-9999999/1" value="0" leadInLength="0/1"  />
              </VectorParam>
              <VectorParam id="3159"  name="rotation">
               <InterpolatingParam id="3160" interp="linr"  time="-9999999/1" value="0" leadInLength="0/1"  />
               <InterpolatingParam id="3161" interp="linr"  time="-9999999/1" value="0" leadInLength="0/1"  />
               <InterpolatingParam id="3162" interp="linr"  time="-9999999/1" value="0" leadInLength="0/1"  />
              </VectorParam>
              <VectorParam id="3163"  name="shear">
               <InterpolatingParam id="3164" interp="linr"  time="-9999999/1" value="0" leadInLength="0/1"  />
               <InterpolatingParam id="3165" interp="linr"  time="-9999999/1" value="0" leadInLength="0/1"  />
               <InterpolatingParam id="3166" interp="linr"  time="-9999999/1" value="0" leadInLength="0/1"  />
              </VectorParam>
              <VectorParam id="3167"  name="scale">
               <InterpolatingParam id="3168" interp="linr"  time="-9999999/1" value="1" leadInLength="0/1"  />
               <InterpolatingParam id="3169" interp="linr"  time="-9999999/1" value="1" leadInLength="0/1"  />
               <InterpolatingParam id="3170" interp="linr"  time="-9999999/1" value="1" leadInLength="0/1"  />
              </VectorParam>
              <VectorParam id="3171"  name="anchor">
               <InterpolatingParam id="3172" interp="linr"  time="0/1" value="0" leadInLength="0/1"  />
               <InterpolatingParam id="3173" interp="linr"  time="0/1" value="0" leadInLength="0/1"  />
               <InterpolatingParam id="3174" interp="linr"  time="0/1" value="0" leadInLength="0/1"  />
              </VectorParam>
             </Transformer>
             <Parameters>
              <VectorParam id="3175"  name="sourceCrop">
               <InterpolatingParam id="3176" interp="linr"  time="0/1" value="0" leadInLength="0/1"  />
               <InterpolatingParam id="3177" interp="linr"  time="0/1" value="0" leadInLength="0/1"  />
               <InterpolatingParam id="3178" interp="linr"  time="0/1" value="0" leadInLength="0/1"  />
               <InterpolatingParam id="3179" interp="linr"  time="0/1" value="0" leadInLength="0/1"  />
              </VectorParam>
              <VectorParam id="3180"  name="geometryCrop">
               <InterpolatingParam id="3181" interp="linr"  time="-9999999/1" value="0" leadInLength="0/1"  />
               <InterpolatingParam id="3182" interp="linr"  time="-9999999/1" value="0" leadInLength="0/1"  />
               <InterpolatingParam id="3183" interp="linr"  time="-9999999/1" value="0" leadInLength="0/1"  />
               <InterpolatingParam id="3184" interp="linr"  time="-9999999/1" value="0" leadInLength="0/1"  />
              </VectorParam>
              <InterpolatingParam id="3185" interp="linr"  time="-9999999/1" value="1" leadInLength="0/1"  name="opacity"/>
             </Parameters>
             <Attributes>
              <Attribute id="3186" value="" name="ident"/>
             </Attributes>
             <ExtraData>
              <Entry key="ZoomPanBin">
               <ZoomPanBin id="3187"  >
                <ZoomPanKeyframes>
                 <ZoomPanKeyframe id="3188" timeRangeEnd="-9999999/1" timeRangeDuration="0/1" interpolaterName="linr"  />
                </ZoomPanKeyframes>
               </ZoomPanBin>
              </Entry>
             </ExtraData>
            </VMFile>
            <MetaData>
             <entry key="WinSubProjectDisplayName" val=""/>
            </MetaData>
           </UnifiedMedia>
          </Medias>
         </GenericTrack>
        </StitchedMedia>
        <StitchedMedia id="3189" start="7034" duration="21" scalar="1098867/943520" mediaStart="3375/104654" mediaDuration="943520/52327" minMediaStart="-5833616625/104654" >
         <Transformer>
          <VectorParam id="3190"  name="translation">
           <InterpolatingParam id="3191" interp="linr"  time="-9999999/1" value="0" leadInLength="0/1"  />
           <InterpolatingParam id="3192" interp="linr"  time="-9999999/1" value="0" leadInLength="0/1"  />
           <InterpolatingParam id="3193" interp="linr"  time="-9999999/1" value="0" leadInLength="0/1"  />
          </VectorParam>
          <VectorParam id="3194"  name="rotation">
           <InterpolatingParam id="3195" interp="linr"  time="-9999999/1" value="0" leadInLength="0/1"  />
           <InterpolatingParam id="3196" interp="linr"  time="-9999999/1" value="0" leadInLength="0/1"  />
           <InterpolatingParam id="3197" interp="linr"  time="-9999999/1" value="0" leadInLength="0/1"  />
          </VectorParam>
          <VectorParam id="3198"  name="shear">
           <InterpolatingParam id="3199" interp="linr"  time="-9999999/1" value="0" leadInLength="0/1"  />
           <InterpolatingParam id="3200" interp="linr"  time="-9999999/1" value="0" leadInLength="0/1"  />
           <InterpolatingParam id="3201" interp="linr"  time="-9999999/1" value="0" leadInLength="0/1"  />
          </VectorParam>
          <VectorParam id="3202"  name="scale">
           <InterpolatingParam id="3203" interp="linr"  time="-9999999/1" value="1" leadInLength="0/1"  />
           <InterpolatingParam id="3204" interp="linr"  time="-9999999/1" value="1" leadInLength="0/1"  />
           <InterpolatingParam id="3205" interp="linr"  time="-9999999/1" value="1" leadInLength="0/1"  />
          </VectorParam>
          <VectorParam id="3206"  name="anchor">
           <InterpolatingParam id="3207" interp="linr"  time="0/1" value="0" leadInLength="0/1"  />
           <InterpolatingParam id="3208" interp="linr"  time="0/1" value="0" leadInLength="0/1"  />
           <InterpolatingParam id="3209" interp="linr"  time="0/1" value="0" leadInLength="0/1"  />
          </VectorParam>
         </Transformer>
         <Parameters>
          <VectorParam id="3210"  name="sourceCrop">
           <InterpolatingParam id="3211" interp="linr"  time="0/1" value="0" leadInLength="0/1"  />
           <InterpolatingParam id="3212" interp="linr"  time="0/1" value="0" leadInLength="0/1"  />
           <InterpolatingParam id="3213" interp="linr"  time="0/1" value="0" leadInLength="0/1"  />
           <InterpolatingParam id="3214" interp="linr"  time="0/1" value="0" leadInLength="0/1"  />
          </VectorParam>
          <VectorParam id="3215"  name="geometryCrop">
           <InterpolatingParam id="3216" interp="linr"  time="-9999999/1" value="0" leadInLength="0/1"  />
           <InterpolatingParam id="3217" interp="linr"  time="-9999999/1" value="0" leadInLength="0/1"  />
           <InterpolatingParam id="3218" interp="linr"  time="-9999999/1" value="0" leadInLength="0/1"  />
           <InterpolatingParam id="3219" interp="linr"  time="-9999999/1" value="0" leadInLength="0/1"  />
          </VectorParam>
          <InterpolatingParam id="3220" interp="linr"  time="-9999999/1" value="1" leadInLength="0/1"  name="opacity"/>
          <InterpolatingParam id="3221" interp="linr"  time="0/1" value="1" leadInLength="0/1"  name="cursorOpacity"/>
          <InterpolatingParam id="3222" interp="linr"  time="0/1" value="1" leadInLength="0/1"  name="cursorScale"/>
          <InterpolatingParam id="3223" interp="linr"  name="volume">
           <Keyframes>
           <Keyframe id="3224"  time="-5833616625/104654" value="0" leadInLength="0/1"  />
           <Keyframe id="3225"  time="143611/9514" value="0" leadInLength="0/1"  />
           <Keyframe id="3226"  time="17/1" value="0" leadInLength="0/1"  />
           </Keyframes>
          </InterpolatingParam>
          <Parameter id="3227"  name="captions"/>
         </Parameters>
         <Attributes>
          <Attribute id="3228" value="" name="ident"/>
          <Attribute id="3229" value="0" name="mixToMono"/>
         </Attributes>
         <MetaData>
          <entry key="WinSubProjectDisplayName" val=""/>
         </MetaData>
         <ExtraData>
          <Entry key="ZoomPanBin">
           <ZoomPanBin id="3230"  >
            <ZoomPanKeyframes>
             <ZoomPanKeyframe id="3231" timeRangeEnd="-9999999/1" timeRangeDuration="0/1" interpolaterName="linr"  />
            </ZoomPanKeyframes>
           </ZoomPanBin>
          </Entry>
          <Entry key="CursorEffectBin">
           <CursorEffectBin id="3232"  >
            <CursorEffectKeyframes>
            </CursorEffectKeyframes>
           </CursorEffectBin>
          </Entry>
         </ExtraData>
         <GenericTrack id="3233"  >
          <Attributes>
           <Attribute id="3234" value="" name="ident"/>
           <Attribute id="3235" value="0" name="audioMuted"/>
           <Attribute id="3236" value="0" name="videoHidden"/>
          </Attributes>
          <MetaData>
           <entry key="IsLocked" val="False"/>
           <entry key="WinTrackHeight" val="0"/>
          </MetaData>
          <Medias>
           <IMFile id="3237" start="-55742" duration="55758" scalar="1/1" mediaStart="6973/1" mediaDuration="1/1" trackNumber="0" src="21" trimStartSum="-55742/1" >
            <Transformer>
             <VectorParam id="3238"  name="translation">
              <InterpolatingParam id="3239" interp="linr"  time="-9999999/1" value="0" leadInLength="0/1"  />
              <InterpolatingParam id="3240" interp="linr"  time="-9999999/1" value="0" leadInLength="0/1"  />
              <InterpolatingParam id="3241" interp="linr"  time="-9999999/1" value="0" leadInLength="0/1"  />
             </VectorParam>
             <VectorParam id="3242"  name="rotation">
              <InterpolatingParam id="3243" interp="linr"  time="-9999999/1" value="0" leadInLength="0/1"  />
              <InterpolatingParam id="3244" interp="linr"  time="-9999999/1" value="0" leadInLength="0/1"  />
              <InterpolatingParam id="3245" interp="linr"  time="-9999999/1" value="0" leadInLength="0/1"  />
             </VectorParam>
             <VectorParam id="3246"  name="shear">
              <InterpolatingParam id="3247" interp="linr"  time="-9999999/1" value="0" leadInLength="0/1"  />
              <InterpolatingParam id="3248" interp="linr"  time="-9999999/1" value="0" leadInLength="0/1"  />
              <InterpolatingParam id="3249" interp="linr"  time="-9999999/1" value="0" leadInLength="0/1"  />
             </VectorParam>
             <VectorParam id="3250"  name="scale">
              <InterpolatingParam id="3251" interp="linr"  time="-9999999/1" value="1" leadInLength="0/1"  />
              <InterpolatingParam id="3252" interp="linr"  time="-9999999/1" value="1" leadInLength="0/1"  />
              <InterpolatingParam id="3253" interp="linr"  time="-9999999/1" value="1" leadInLength="0/1"  />
             </VectorParam>
             <VectorParam id="3254"  name="anchor">
              <InterpolatingParam id="3255" interp="linr"  time="0/1" value="0" leadInLength="0/1"  />
              <InterpolatingParam id="3256" interp="linr"  time="0/1" value="0" leadInLength="0/1"  />
              <InterpolatingParam id="3257" interp="linr"  time="0/1" value="0" leadInLength="0/1"  />
             </VectorParam>
            </Transformer>
            <Parameters>
             <VectorParam id="3258"  name="sourceCrop">
              <InterpolatingParam id="3259" interp="linr"  time="0/1" value="0" leadInLength="0/1"  />
              <InterpolatingParam id="3260" interp="linr"  time="0/1" value="0" leadInLength="0/1"  />
              <InterpolatingParam id="3261" interp="linr"  time="0/1" value="0" leadInLength="0/1"  />
              <InterpolatingParam id="3262" interp="linr"  time="0/1" value="0" leadInLength="0/1"  />
             </VectorParam>
             <VectorParam id="3263"  name="geometryCrop">
              <InterpolatingParam id="3264" interp="linr"  time="-9999999/1" value="0" leadInLength="0/1"  />
              <InterpolatingParam id="3265" interp="linr"  time="-9999999/1" value="0" leadInLength="0/1"  />
              <InterpolatingParam id="3266" interp="linr"  time="-9999999/1" value="0" leadInLength="0/1"  />
              <InterpolatingParam id="3267" interp="linr"  time="-9999999/1" value="0" leadInLength="0/1"  />
             </VectorParam>
             <InterpolatingParam id="3268" interp="linr"  time="-9999999/1" value="1" leadInLength="0/1"  name="opacity"/>
            </Parameters>
            <Attributes>
             <Attribute id="3269" value="" name="ident"/>
            </Attributes>
            <MetaData>
             <entry key="WinSubProjectDisplayName" val=""/>
            </MetaData>
            <ExtraData>
             <Entry key="ZoomPanBin">
              <ZoomPanBin id="3270"  >
               <ZoomPanKeyframes>
                <ZoomPanKeyframe id="3271" timeRangeEnd="-9999999/1" timeRangeDuration="0/1" interpolaterName="linr"  />
               </ZoomPanKeyframes>
              </ZoomPanBin>
             </Entry>
            </ExtraData>
           </IMFile>
           <UnifiedMedia id="3272"  >
            <AMFile id="3273" start="16" duration="1979" scalar="1/1" mediaStart="6973/1" mediaDuration="1979/1" trackNumber="1" src="21" channelNumber="0,1" >
             <Parameters>
              <InterpolatingParam id="3274" interp="linr"  time="0/1" value="1" leadInLength="0/1"  name="volume"/>
              <Parameter id="3275"  name="captions"/>
             </Parameters>
             <Attributes>
              <Attribute id="3276" value="" name="ident"/>
              <Attribute id="3277" value="44100" name="sampleRate"/>
              <Attribute id="3278" value="16" name="bitDepth"/>
              <Attribute id="3279" value="1" name="gain"/>
              <Attribute id="3280" value="0" name="mixToMono"/>
             </Attributes>
            </AMFile>
            <VMFile id="3281" start="16" duration="1979" scalar="1/1" mediaStart="6973/1" mediaDuration="1979/1" trackNumber="0" src="21" >
             <Transformer>
              <VectorParam id="3282"  name="translation">
               <InterpolatingParam id="3283" interp="linr"  time="-9999999/1" value="0" leadInLength="0/1"  />
               <InterpolatingParam id="3284" interp="linr"  time="-9999999/1" value="0" leadInLength="0/1"  />
               <InterpolatingParam id="3285" interp="linr"  time="-9999999/1" value="0" leadInLength="0/1"  />
              </VectorParam>
              <VectorParam id="3286"  name="rotation">
               <InterpolatingParam id="3287" interp="linr"  time="-9999999/1" value="0" leadInLength="0/1"  />
               <InterpolatingParam id="3288" interp="linr"  time="-9999999/1" value="0" leadInLength="0/1"  />
               <InterpolatingParam id="3289" interp="linr"  time="-9999999/1" value="0" leadInLength="0/1"  />
              </VectorParam>
              <VectorParam id="3290"  name="shear">
               <InterpolatingParam id="3291" interp="linr"  time="-9999999/1" value="0" leadInLength="0/1"  />
               <InterpolatingParam id="3292" interp="linr"  time="-9999999/1" value="0" leadInLength="0/1"  />
               <InterpolatingParam id="3293" interp="linr"  time="-9999999/1" value="0" leadInLength="0/1"  />
              </VectorParam>
              <VectorParam id="3294"  name="scale">
               <InterpolatingParam id="3295" interp="linr"  time="-9999999/1" value="1" leadInLength="0/1"  />
               <InterpolatingParam id="3296" interp="linr"  time="-9999999/1" value="1" leadInLength="0/1"  />
               <InterpolatingParam id="3297" interp="linr"  time="-9999999/1" value="1" leadInLength="0/1"  />
              </VectorParam>
              <VectorParam id="3298"  name="anchor">
               <InterpolatingParam id="3299" interp="linr"  time="0/1" value="0" leadInLength="0/1"  />
               <InterpolatingParam id="3300" interp="linr"  time="0/1" value="0" leadInLength="0/1"  />
               <InterpolatingParam id="3301" interp="linr"  time="0/1" value="0" leadInLength="0/1"  />
              </VectorParam>
             </Transformer>
             <Parameters>
              <VectorParam id="3302"  name="sourceCrop">
               <InterpolatingParam id="3303" interp="linr"  time="0/1" value="0" leadInLength="0/1"  />
               <InterpolatingParam id="3304" interp="linr"  time="0/1" value="0" leadInLength="0/1"  />
               <InterpolatingParam id="3305" interp="linr"  time="0/1" value="0" leadInLength="0/1"  />
               <InterpolatingParam id="3306" interp="linr"  time="0/1" value="0" leadInLength="0/1"  />
              </VectorParam>
              <VectorParam id="3307"  name="geometryCrop">
               <InterpolatingParam id="3308" interp="linr"  time="-9999999/1" value="0" leadInLength="0/1"  />
               <InterpolatingParam id="3309" interp="linr"  time="-9999999/1" value="0" leadInLength="0/1"  />
               <InterpolatingParam id="3310" interp="linr"  time="-9999999/1" value="0" leadInLength="0/1"  />
               <InterpolatingParam id="3311" interp="linr"  time="-9999999/1" value="0" leadInLength="0/1"  />
              </VectorParam>
              <InterpolatingParam id="3312" interp="linr"  time="-9999999/1" value="1" leadInLength="0/1"  name="opacity"/>
             </Parameters>
             <Attributes>
              <Attribute id="3313" value="" name="ident"/>
             </Attributes>
             <ExtraData>
              <Entry key="ZoomPanBin">
               <ZoomPanBin id="3314"  >
                <ZoomPanKeyframes>
                 <ZoomPanKeyframe id="3315" timeRangeEnd="-9999999/1" timeRangeDuration="0/1" interpolaterName="linr"  />
                </ZoomPanKeyframes>
               </ZoomPanBin>
              </Entry>
             </ExtraData>
            </VMFile>
            <MetaData>
             <entry key="WinSubProjectDisplayName" val=""/>
            </MetaData>
           </UnifiedMedia>
          </Medias>
         </GenericTrack>
        </StitchedMedia>
        <StitchedMedia id="3316" start="7055" duration="21" scalar="1098867/943520" mediaStart="3375/104654" mediaDuration="943520/52327" minMediaStart="-5833616625/104654" >
         <Transformer>
          <VectorParam id="3317"  name="translation">
           <InterpolatingParam id="3318" interp="linr"  time="-9999999/1" value="0" leadInLength="0/1"  />
           <InterpolatingParam id="3319" interp="linr"  time="-9999999/1" value="0" leadInLength="0/1"  />
           <InterpolatingParam id="3320" interp="linr"  time="-9999999/1" value="0" leadInLength="0/1"  />
          </VectorParam>
          <VectorParam id="3321"  name="rotation">
           <InterpolatingParam id="3322" interp="linr"  time="-9999999/1" value="0" leadInLength="0/1"  />
           <InterpolatingParam id="3323" interp="linr"  time="-9999999/1" value="0" leadInLength="0/1"  />
           <InterpolatingParam id="3324" interp="linr"  time="-9999999/1" value="0" leadInLength="0/1"  />
          </VectorParam>
          <VectorParam id="3325"  name="shear">
           <InterpolatingParam id="3326" interp="linr"  time="-9999999/1" value="0" leadInLength="0/1"  />
           <InterpolatingParam id="3327" interp="linr"  time="-9999999/1" value="0" leadInLength="0/1"  />
           <InterpolatingParam id="3328" interp="linr"  time="-9999999/1" value="0" leadInLength="0/1"  />
          </VectorParam>
          <VectorParam id="3329"  name="scale">
           <InterpolatingParam id="3330" interp="linr"  time="-9999999/1" value="1" leadInLength="0/1"  />
           <InterpolatingParam id="3331" interp="linr"  time="-9999999/1" value="1" leadInLength="0/1"  />
           <InterpolatingParam id="3332" interp="linr"  time="-9999999/1" value="1" leadInLength="0/1"  />
          </VectorParam>
          <VectorParam id="3333"  name="anchor">
           <InterpolatingParam id="3334" interp="linr"  time="0/1" value="0" leadInLength="0/1"  />
           <InterpolatingParam id="3335" interp="linr"  time="0/1" value="0" leadInLength="0/1"  />
           <InterpolatingParam id="3336" interp="linr"  time="0/1" value="0" leadInLength="0/1"  />
          </VectorParam>
         </Transformer>
         <Parameters>
          <VectorParam id="3337"  name="sourceCrop">
           <InterpolatingParam id="3338" interp="linr"  time="0/1" value="0" leadInLength="0/1"  />
           <InterpolatingParam id="3339" interp="linr"  time="0/1" value="0" leadInLength="0/1"  />
           <InterpolatingParam id="3340" interp="linr"  time="0/1" value="0" leadInLength="0/1"  />
           <InterpolatingParam id="3341" interp="linr"  time="0/1" value="0" leadInLength="0/1"  />
          </VectorParam>
          <VectorParam id="3342"  name="geometryCrop">
           <InterpolatingParam id="3343" interp="linr"  time="-9999999/1" value="0" leadInLength="0/1"  />
           <InterpolatingParam id="3344" interp="linr"  time="-9999999/1" value="0" leadInLength="0/1"  />
           <InterpolatingParam id="3345" interp="linr"  time="-9999999/1" value="0" leadInLength="0/1"  />
           <InterpolatingParam id="3346" interp="linr"  time="-9999999/1" value="0" leadInLength="0/1"  />
          </VectorParam>
          <InterpolatingParam id="3347" interp="linr"  time="-9999999/1" value="1" leadInLength="0/1"  name="opacity"/>
          <InterpolatingParam id="3348" interp="linr"  time="0/1" value="1" leadInLength="0/1"  name="cursorOpacity"/>
          <InterpolatingParam id="3349" interp="linr"  time="0/1" value="1" leadInLength="0/1"  name="cursorScale"/>
          <InterpolatingParam id="3350" interp="linr"  name="volume">
           <Keyframes>
           <Keyframe id="3351"  time="-5833616625/104654" value="0" leadInLength="0/1"  />
           <Keyframe id="3352"  time="143611/9514" value="0" leadInLength="0/1"  />
           <Keyframe id="3353"  time="17/1" value="0" leadInLength="0/1"  />
           </Keyframes>
          </InterpolatingParam>
          <Parameter id="3354"  name="captions"/>
         </Parameters>
         <Attributes>
          <Attribute id="3355" value="" name="ident"/>
          <Attribute id="3356" value="0" name="mixToMono"/>
         </Attributes>
         <MetaData>
          <entry key="WinSubProjectDisplayName" val=""/>
         </MetaData>
         <ExtraData>
          <Entry key="ZoomPanBin">
           <ZoomPanBin id="3357"  >
            <ZoomPanKeyframes>
             <ZoomPanKeyframe id="3358" timeRangeEnd="-9999999/1" timeRangeDuration="0/1" interpolaterName="linr"  />
            </ZoomPanKeyframes>
           </ZoomPanBin>
          </Entry>
          <Entry key="CursorEffectBin">
           <CursorEffectBin id="3359"  >
            <CursorEffectKeyframes>
            </CursorEffectKeyframes>
           </CursorEffectBin>
          </Entry>
         </ExtraData>
         <GenericTrack id="3360"  >
          <Attributes>
           <Attribute id="3361" value="" name="ident"/>
           <Attribute id="3362" value="0" name="audioMuted"/>
           <Attribute id="3363" value="0" name="videoHidden"/>
          </Attributes>
          <MetaData>
           <entry key="IsLocked" val="False"/>
           <entry key="WinTrackHeight" val="0"/>
          </MetaData>
          <Medias>
           <IMFile id="3364" start="-55742" duration="55758" scalar="1/1" mediaStart="6973/1" mediaDuration="1/1" trackNumber="0" src="21" trimStartSum="-55742/1" >
            <Transformer>
             <VectorParam id="3365"  name="translation">
              <InterpolatingParam id="3366" interp="linr"  time="-9999999/1" value="0" leadInLength="0/1"  />
              <InterpolatingParam id="3367" interp="linr"  time="-9999999/1" value="0" leadInLength="0/1"  />
              <InterpolatingParam id="3368" interp="linr"  time="-9999999/1" value="0" leadInLength="0/1"  />
             </VectorParam>
             <VectorParam id="3369"  name="rotation">
              <InterpolatingParam id="3370" interp="linr"  time="-9999999/1" value="0" leadInLength="0/1"  />
              <InterpolatingParam id="3371" interp="linr"  time="-9999999/1" value="0" leadInLength="0/1"  />
              <InterpolatingParam id="3372" interp="linr"  time="-9999999/1" value="0" leadInLength="0/1"  />
             </VectorParam>
             <VectorParam id="3373"  name="shear">
              <InterpolatingParam id="3374" interp="linr"  time="-9999999/1" value="0" leadInLength="0/1"  />
              <InterpolatingParam id="3375" interp="linr"  time="-9999999/1" value="0" leadInLength="0/1"  />
              <InterpolatingParam id="3376" interp="linr"  time="-9999999/1" value="0" leadInLength="0/1"  />
             </VectorParam>
             <VectorParam id="3377"  name="scale">
              <InterpolatingParam id="3378" interp="linr"  time="-9999999/1" value="1" leadInLength="0/1"  />
              <InterpolatingParam id="3379" interp="linr"  time="-9999999/1" value="1" leadInLength="0/1"  />
              <InterpolatingParam id="3380" interp="linr"  time="-9999999/1" value="1" leadInLength="0/1"  />
             </VectorParam>
             <VectorParam id="3381"  name="anchor">
              <InterpolatingParam id="3382" interp="linr"  time="0/1" value="0" leadInLength="0/1"  />
              <InterpolatingParam id="3383" interp="linr"  time="0/1" value="0" leadInLength="0/1"  />
              <InterpolatingParam id="3384" interp="linr"  time="0/1" value="0" leadInLength="0/1"  />
             </VectorParam>
            </Transformer>
            <Parameters>
             <VectorParam id="3385"  name="sourceCrop">
              <InterpolatingParam id="3386" interp="linr"  time="0/1" value="0" leadInLength="0/1"  />
              <InterpolatingParam id="3387" interp="linr"  time="0/1" value="0" leadInLength="0/1"  />
              <InterpolatingParam id="3388" interp="linr"  time="0/1" value="0" leadInLength="0/1"  />
              <InterpolatingParam id="3389" interp="linr"  time="0/1" value="0" leadInLength="0/1"  />
             </VectorParam>
             <VectorParam id="3390"  name="geometryCrop">
              <InterpolatingParam id="3391" interp="linr"  time="-9999999/1" value="0" leadInLength="0/1"  />
              <InterpolatingParam id="3392" interp="linr"  time="-9999999/1" value="0" leadInLength="0/1"  />
              <InterpolatingParam id="3393" interp="linr"  time="-9999999/1" value="0" leadInLength="0/1"  />
              <InterpolatingParam id="3394" interp="linr"  time="-9999999/1" value="0" leadInLength="0/1"  />
             </VectorParam>
             <InterpolatingParam id="3395" interp="linr"  time="-9999999/1" value="1" leadInLength="0/1"  name="opacity"/>
            </Parameters>
            <Attributes>
             <Attribute id="3396" value="" name="ident"/>
            </Attributes>
            <MetaData>
             <entry key="WinSubProjectDisplayName" val=""/>
            </MetaData>
            <ExtraData>
             <Entry key="ZoomPanBin">
              <ZoomPanBin id="3397"  >
               <ZoomPanKeyframes>
                <ZoomPanKeyframe id="3398" timeRangeEnd="-9999999/1" timeRangeDuration="0/1" interpolaterName="linr"  />
               </ZoomPanKeyframes>
              </ZoomPanBin>
             </Entry>
            </ExtraData>
           </IMFile>
           <UnifiedMedia id="3399"  >
            <AMFile id="3400" start="16" duration="1979" scalar="1/1" mediaStart="6973/1" mediaDuration="1979/1" trackNumber="1" src="21" channelNumber="0,1" >
             <Parameters>
              <InterpolatingParam id="3401" interp="linr"  time="0/1" value="1" leadInLength="0/1"  name="volume"/>
              <Parameter id="3402"  name="captions"/>
             </Parameters>
             <Attributes>
              <Attribute id="3403" value="" name="ident"/>
              <Attribute id="3404" value="44100" name="sampleRate"/>
              <Attribute id="3405" value="16" name="bitDepth"/>
              <Attribute id="3406" value="1" name="gain"/>
              <Attribute id="3407" value="0" name="mixToMono"/>
             </Attributes>
            </AMFile>
            <VMFile id="3408" start="16" duration="1979" scalar="1/1" mediaStart="6973/1" mediaDuration="1979/1" trackNumber="0" src="21" >
             <Transformer>
              <VectorParam id="3409"  name="translation">
               <InterpolatingParam id="3410" interp="linr"  time="-9999999/1" value="0" leadInLength="0/1"  />
               <InterpolatingParam id="3411" interp="linr"  time="-9999999/1" value="0" leadInLength="0/1"  />
               <InterpolatingParam id="3412" interp="linr"  time="-9999999/1" value="0" leadInLength="0/1"  />
              </VectorParam>
              <VectorParam id="3413"  name="rotation">
               <InterpolatingParam id="3414" interp="linr"  time="-9999999/1" value="0" leadInLength="0/1"  />
               <InterpolatingParam id="3415" interp="linr"  time="-9999999/1" value="0" leadInLength="0/1"  />
               <InterpolatingParam id="3416" interp="linr"  time="-9999999/1" value="0" leadInLength="0/1"  />
              </VectorParam>
              <VectorParam id="3417"  name="shear">
               <InterpolatingParam id="3418" interp="linr"  time="-9999999/1" value="0" leadInLength="0/1"  />
               <InterpolatingParam id="3419" interp="linr"  time="-9999999/1" value="0" leadInLength="0/1"  />
               <InterpolatingParam id="3420" interp="linr"  time="-9999999/1" value="0" leadInLength="0/1"  />
              </VectorParam>
              <VectorParam id="3421"  name="scale">
               <InterpolatingParam id="3422" interp="linr"  time="-9999999/1" value="1" leadInLength="0/1"  />
               <InterpolatingParam id="3423" interp="linr"  time="-9999999/1" value="1" leadInLength="0/1"  />
               <InterpolatingParam id="3424" interp="linr"  time="-9999999/1" value="1" leadInLength="0/1"  />
              </VectorParam>
              <VectorParam id="3425"  name="anchor">
               <InterpolatingParam id="3426" interp="linr"  time="0/1" value="0" leadInLength="0/1"  />
               <InterpolatingParam id="3427" interp="linr"  time="0/1" value="0" leadInLength="0/1"  />
               <InterpolatingParam id="3428" interp="linr"  time="0/1" value="0" leadInLength="0/1"  />
              </VectorParam>
             </Transformer>
             <Parameters>
              <VectorParam id="3429"  name="sourceCrop">
               <InterpolatingParam id="3430" interp="linr"  time="0/1" value="0" leadInLength="0/1"  />
               <InterpolatingParam id="3431" interp="linr"  time="0/1" value="0" leadInLength="0/1"  />
               <InterpolatingParam id="3432" interp="linr"  time="0/1" value="0" leadInLength="0/1"  />
               <InterpolatingParam id="3433" interp="linr"  time="0/1" value="0" leadInLength="0/1"  />
              </VectorParam>
              <VectorParam id="3434"  name="geometryCrop">
               <InterpolatingParam id="3435" interp="linr"  time="-9999999/1" value="0" leadInLength="0/1"  />
               <InterpolatingParam id="3436" interp="linr"  time="-9999999/1" value="0" leadInLength="0/1"  />
               <InterpolatingParam id="3437" interp="linr"  time="-9999999/1" value="0" leadInLength="0/1"  />
               <InterpolatingParam id="3438" interp="linr"  time="-9999999/1" value="0" leadInLength="0/1"  />
              </VectorParam>
              <InterpolatingParam id="3439" interp="linr"  time="-9999999/1" value="1" leadInLength="0/1"  name="opacity"/>
             </Parameters>
             <Attributes>
              <Attribute id="3440" value="" name="ident"/>
             </Attributes>
             <ExtraData>
              <Entry key="ZoomPanBin">
               <ZoomPanBin id="3441"  >
                <ZoomPanKeyframes>
                 <ZoomPanKeyframe id="3442" timeRangeEnd="-9999999/1" timeRangeDuration="0/1" interpolaterName="linr"  />
                </ZoomPanKeyframes>
               </ZoomPanBin>
              </Entry>
             </ExtraData>
            </VMFile>
            <MetaData>
             <entry key="WinSubProjectDisplayName" val=""/>
            </MetaData>
           </UnifiedMedia>
          </Medias>
         </GenericTrack>
        </StitchedMedia>
        <StitchedMedia id="3443" start="7076" duration="21" scalar="1098867/943520" mediaStart="3375/104654" mediaDuration="943520/52327" minMediaStart="-5833616625/104654" >
         <Transformer>
          <VectorParam id="3444"  name="translation">
           <InterpolatingParam id="3445" interp="linr"  time="-9999999/1" value="0" leadInLength="0/1"  />
           <InterpolatingParam id="3446" interp="linr"  time="-9999999/1" value="0" leadInLength="0/1"  />
           <InterpolatingParam id="3447" interp="linr"  time="-9999999/1" value="0" leadInLength="0/1"  />
          </VectorParam>
          <VectorParam id="3448"  name="rotation">
           <InterpolatingParam id="3449" interp="linr"  time="-9999999/1" value="0" leadInLength="0/1"  />
           <InterpolatingParam id="3450" interp="linr"  time="-9999999/1" value="0" leadInLength="0/1"  />
           <InterpolatingParam id="3451" interp="linr"  time="-9999999/1" value="0" leadInLength="0/1"  />
          </VectorParam>
          <VectorParam id="3452"  name="shear">
           <InterpolatingParam id="3453" interp="linr"  time="-9999999/1" value="0" leadInLength="0/1"  />
           <InterpolatingParam id="3454" interp="linr"  time="-9999999/1" value="0" leadInLength="0/1"  />
           <InterpolatingParam id="3455" interp="linr"  time="-9999999/1" value="0" leadInLength="0/1"  />
          </VectorParam>
          <VectorParam id="3456"  name="scale">
           <InterpolatingParam id="3457" interp="linr"  time="-9999999/1" value="1" leadInLength="0/1"  />
           <InterpolatingParam id="3458" interp="linr"  time="-9999999/1" value="1" leadInLength="0/1"  />
           <InterpolatingParam id="3459" interp="linr"  time="-9999999/1" value="1" leadInLength="0/1"  />
          </VectorParam>
          <VectorParam id="3460"  name="anchor">
           <InterpolatingParam id="3461" interp="linr"  time="0/1" value="0" leadInLength="0/1"  />
           <InterpolatingParam id="3462" interp="linr"  time="0/1" value="0" leadInLength="0/1"  />
           <InterpolatingParam id="3463" interp="linr"  time="0/1" value="0" leadInLength="0/1"  />
          </VectorParam>
         </Transformer>
         <Parameters>
          <VectorParam id="3464"  name="sourceCrop">
           <InterpolatingParam id="3465" interp="linr"  time="0/1" value="0" leadInLength="0/1"  />
           <InterpolatingParam id="3466" interp="linr"  time="0/1" value="0" leadInLength="0/1"  />
           <InterpolatingParam id="3467" interp="linr"  time="0/1" value="0" leadInLength="0/1"  />
           <InterpolatingParam id="3468" interp="linr"  time="0/1" value="0" leadInLength="0/1"  />
          </VectorParam>
          <VectorParam id="3469"  name="geometryCrop">
           <InterpolatingParam id="3470" interp="linr"  time="-9999999/1" value="0" leadInLength="0/1"  />
           <InterpolatingParam id="3471" interp="linr"  time="-9999999/1" value="0" leadInLength="0/1"  />
           <InterpolatingParam id="3472" interp="linr"  time="-9999999/1" value="0" leadInLength="0/1"  />
           <InterpolatingParam id="3473" interp="linr"  time="-9999999/1" value="0" leadInLength="0/1"  />
          </VectorParam>
          <InterpolatingParam id="3474" interp="linr"  time="-9999999/1" value="1" leadInLength="0/1"  name="opacity"/>
          <InterpolatingParam id="3475" interp="linr"  time="0/1" value="1" leadInLength="0/1"  name="cursorOpacity"/>
          <InterpolatingParam id="3476" interp="linr"  time="0/1" value="1" leadInLength="0/1"  name="cursorScale"/>
          <InterpolatingParam id="3477" interp="linr"  name="volume">
           <Keyframes>
           <Keyframe id="3478"  time="-5833616625/104654" value="0" leadInLength="0/1"  />
           <Keyframe id="3479"  time="143611/9514" value="0" leadInLength="0/1"  />
           <Keyframe id="3480"  time="17/1" value="0" leadInLength="0/1"  />
           </Keyframes>
          </InterpolatingParam>
          <Parameter id="3481"  name="captions"/>
         </Parameters>
         <Attributes>
          <Attribute id="3482" value="" name="ident"/>
          <Attribute id="3483" value="0" name="mixToMono"/>
         </Attributes>
         <MetaData>
          <entry key="WinSubProjectDisplayName" val=""/>
         </MetaData>
         <ExtraData>
          <Entry key="ZoomPanBin">
           <ZoomPanBin id="3484"  >
            <ZoomPanKeyframes>
             <ZoomPanKeyframe id="3485" timeRangeEnd="-9999999/1" timeRangeDuration="0/1" interpolaterName="linr"  />
            </ZoomPanKeyframes>
           </ZoomPanBin>
          </Entry>
          <Entry key="CursorEffectBin">
           <CursorEffectBin id="3486"  >
            <CursorEffectKeyframes>
            </CursorEffectKeyframes>
           </CursorEffectBin>
          </Entry>
         </ExtraData>
         <GenericTrack id="3487"  >
          <Attributes>
           <Attribute id="3488" value="" name="ident"/>
           <Attribute id="3489" value="0" name="audioMuted"/>
           <Attribute id="3490" value="0" name="videoHidden"/>
          </Attributes>
          <MetaData>
           <entry key="IsLocked" val="False"/>
           <entry key="WinTrackHeight" val="0"/>
          </MetaData>
          <Medias>
           <IMFile id="3491" start="-55742" duration="55758" scalar="1/1" mediaStart="6973/1" mediaDuration="1/1" trackNumber="0" src="21" trimStartSum="-55742/1" >
            <Transformer>
             <VectorParam id="3492"  name="translation">
              <InterpolatingParam id="3493" interp="linr"  time="-9999999/1" value="0" leadInLength="0/1"  />
              <InterpolatingParam id="3494" interp="linr"  time="-9999999/1" value="0" leadInLength="0/1"  />
              <InterpolatingParam id="3495" interp="linr"  time="-9999999/1" value="0" leadInLength="0/1"  />
             </VectorParam>
             <VectorParam id="3496"  name="rotation">
              <InterpolatingParam id="3497" interp="linr"  time="-9999999/1" value="0" leadInLength="0/1"  />
              <InterpolatingParam id="3498" interp="linr"  time="-9999999/1" value="0" leadInLength="0/1"  />
              <InterpolatingParam id="3499" interp="linr"  time="-9999999/1" value="0" leadInLength="0/1"  />
             </VectorParam>
             <VectorParam id="3500"  name="shear">
              <InterpolatingParam id="3501" interp="linr"  time="-9999999/1" value="0" leadInLength="0/1"  />
              <InterpolatingParam id="3502" interp="linr"  time="-9999999/1" value="0" leadInLength="0/1"  />
              <InterpolatingParam id="3503" interp="linr"  time="-9999999/1" value="0" leadInLength="0/1"  />
             </VectorParam>
             <VectorParam id="3504"  name="scale">
              <InterpolatingParam id="3505" interp="linr"  time="-9999999/1" value="1" leadInLength="0/1"  />
              <InterpolatingParam id="3506" interp="linr"  time="-9999999/1" value="1" leadInLength="0/1"  />
              <InterpolatingParam id="3507" interp="linr"  time="-9999999/1" value="1" leadInLength="0/1"  />
             </VectorParam>
             <VectorParam id="3508"  name="anchor">
              <InterpolatingParam id="3509" interp="linr"  time="0/1" value="0" leadInLength="0/1"  />
              <InterpolatingParam id="3510" interp="linr"  time="0/1" value="0" leadInLength="0/1"  />
              <InterpolatingParam id="3511" interp="linr"  time="0/1" value="0" leadInLength="0/1"  />
             </VectorParam>
            </Transformer>
            <Parameters>
             <VectorParam id="3512"  name="sourceCrop">
              <InterpolatingParam id="3513" interp="linr"  time="0/1" value="0" leadInLength="0/1"  />
              <InterpolatingParam id="3514" interp="linr"  time="0/1" value="0" leadInLength="0/1"  />
              <InterpolatingParam id="3515" interp="linr"  time="0/1" value="0" leadInLength="0/1"  />
              <InterpolatingParam id="3516" interp="linr"  time="0/1" value="0" leadInLength="0/1"  />
             </VectorParam>
             <VectorParam id="3517"  name="geometryCrop">
              <InterpolatingParam id="3518" interp="linr"  time="-9999999/1" value="0" leadInLength="0/1"  />
              <InterpolatingParam id="3519" interp="linr"  time="-9999999/1" value="0" leadInLength="0/1"  />
              <InterpolatingParam id="3520" interp="linr"  time="-9999999/1" value="0" leadInLength="0/1"  />
              <InterpolatingParam id="3521" interp="linr"  time="-9999999/1" value="0" leadInLength="0/1"  />
             </VectorParam>
             <InterpolatingParam id="3522" interp="linr"  time="-9999999/1" value="1" leadInLength="0/1"  name="opacity"/>
            </Parameters>
            <Attributes>
             <Attribute id="3523" value="" name="ident"/>
            </Attributes>
            <MetaData>
             <entry key="WinSubProjectDisplayName" val=""/>
            </MetaData>
            <ExtraData>
             <Entry key="ZoomPanBin">
              <ZoomPanBin id="3524"  >
               <ZoomPanKeyframes>
                <ZoomPanKeyframe id="3525" timeRangeEnd="-9999999/1" timeRangeDuration="0/1" interpolaterName="linr"  />
               </ZoomPanKeyframes>
              </ZoomPanBin>
             </Entry>
            </ExtraData>
           </IMFile>
           <UnifiedMedia id="3526"  >
            <AMFile id="3527" start="16" duration="1979" scalar="1/1" mediaStart="6973/1" mediaDuration="1979/1" trackNumber="1" src="21" channelNumber="0,1" >
             <Parameters>
              <InterpolatingParam id="3528" interp="linr"  time="0/1" value="1" leadInLength="0/1"  name="volume"/>
              <Parameter id="3529"  name="captions"/>
             </Parameters>
             <Attributes>
              <Attribute id="3530" value="" name="ident"/>
              <Attribute id="3531" value="44100" name="sampleRate"/>
              <Attribute id="3532" value="16" name="bitDepth"/>
              <Attribute id="3533" value="1" name="gain"/>
              <Attribute id="3534" value="0" name="mixToMono"/>
             </Attributes>
            </AMFile>
            <VMFile id="3535" start="16" duration="1979" scalar="1/1" mediaStart="6973/1" mediaDuration="1979/1" trackNumber="0" src="21" >
             <Transformer>
              <VectorParam id="3536"  name="translation">
               <InterpolatingParam id="3537" interp="linr"  time="-9999999/1" value="0" leadInLength="0/1"  />
               <InterpolatingParam id="3538" interp="linr"  time="-9999999/1" value="0" leadInLength="0/1"  />
               <InterpolatingParam id="3539" interp="linr"  time="-9999999/1" value="0" leadInLength="0/1"  />
              </VectorParam>
              <VectorParam id="3540"  name="rotation">
               <InterpolatingParam id="3541" interp="linr"  time="-9999999/1" value="0" leadInLength="0/1"  />
               <InterpolatingParam id="3542" interp="linr"  time="-9999999/1" value="0" leadInLength="0/1"  />
               <InterpolatingParam id="3543" interp="linr"  time="-9999999/1" value="0" leadInLength="0/1"  />
              </VectorParam>
              <VectorParam id="3544"  name="shear">
               <InterpolatingParam id="3545" interp="linr"  time="-9999999/1" value="0" leadInLength="0/1"  />
               <InterpolatingParam id="3546" interp="linr"  time="-9999999/1" value="0" leadInLength="0/1"  />
               <InterpolatingParam id="3547" interp="linr"  time="-9999999/1" value="0" leadInLength="0/1"  />
              </VectorParam>
              <VectorParam id="3548"  name="scale">
               <InterpolatingParam id="3549" interp="linr"  time="-9999999/1" value="1" leadInLength="0/1"  />
               <InterpolatingParam id="3550" interp="linr"  time="-9999999/1" value="1" leadInLength="0/1"  />
               <InterpolatingParam id="3551" interp="linr"  time="-9999999/1" value="1" leadInLength="0/1"  />
              </VectorParam>
              <VectorParam id="3552"  name="anchor">
               <InterpolatingParam id="3553" interp="linr"  time="0/1" value="0" leadInLength="0/1"  />
               <InterpolatingParam id="3554" interp="linr"  time="0/1" value="0" leadInLength="0/1"  />
               <InterpolatingParam id="3555" interp="linr"  time="0/1" value="0" leadInLength="0/1"  />
              </VectorParam>
             </Transformer>
             <Parameters>
              <VectorParam id="3556"  name="sourceCrop">
               <InterpolatingParam id="3557" interp="linr"  time="0/1" value="0" leadInLength="0/1"  />
               <InterpolatingParam id="3558" interp="linr"  time="0/1" value="0" leadInLength="0/1"  />
               <InterpolatingParam id="3559" interp="linr"  time="0/1" value="0" leadInLength="0/1"  />
               <InterpolatingParam id="3560" interp="linr"  time="0/1" value="0" leadInLength="0/1"  />
              </VectorParam>
              <VectorParam id="3561"  name="geometryCrop">
               <InterpolatingParam id="3562" interp="linr"  time="-9999999/1" value="0" leadInLength="0/1"  />
               <InterpolatingParam id="3563" interp="linr"  time="-9999999/1" value="0" leadInLength="0/1"  />
               <InterpolatingParam id="3564" interp="linr"  time="-9999999/1" value="0" leadInLength="0/1"  />
               <InterpolatingParam id="3565" interp="linr"  time="-9999999/1" value="0" leadInLength="0/1"  />
              </VectorParam>
              <InterpolatingParam id="3566" interp="linr"  time="-9999999/1" value="1" leadInLength="0/1"  name="opacity"/>
             </Parameters>
             <Attributes>
              <Attribute id="3567" value="" name="ident"/>
             </Attributes>
             <ExtraData>
              <Entry key="ZoomPanBin">
               <ZoomPanBin id="3568"  >
                <ZoomPanKeyframes>
                 <ZoomPanKeyframe id="3569" timeRangeEnd="-9999999/1" timeRangeDuration="0/1" interpolaterName="linr"  />
                </ZoomPanKeyframes>
               </ZoomPanBin>
              </Entry>
             </ExtraData>
            </VMFile>
            <MetaData>
             <entry key="WinSubProjectDisplayName" val=""/>
            </MetaData>
           </UnifiedMedia>
          </Medias>
         </GenericTrack>
        </StitchedMedia>
        <StitchedMedia id="3570" start="7097" duration="21" scalar="1098867/943520" mediaStart="3375/104654" mediaDuration="943520/52327" minMediaStart="-5833616625/104654" >
         <Transformer>
          <VectorParam id="3571"  name="translation">
           <InterpolatingParam id="3572" interp="linr"  time="-9999999/1" value="0" leadInLength="0/1"  />
           <InterpolatingParam id="3573" interp="linr"  time="-9999999/1" value="0" leadInLength="0/1"  />
           <InterpolatingParam id="3574" interp="linr"  time="-9999999/1" value="0" leadInLength="0/1"  />
          </VectorParam>
          <VectorParam id="3575"  name="rotation">
           <InterpolatingParam id="3576" interp="linr"  time="-9999999/1" value="0" leadInLength="0/1"  />
           <InterpolatingParam id="3577" interp="linr"  time="-9999999/1" value="0" leadInLength="0/1"  />
           <InterpolatingParam id="3578" interp="linr"  time="-9999999/1" value="0" leadInLength="0/1"  />
          </VectorParam>
          <VectorParam id="3579"  name="shear">
           <InterpolatingParam id="3580" interp="linr"  time="-9999999/1" value="0" leadInLength="0/1"  />
           <InterpolatingParam id="3581" interp="linr"  time="-9999999/1" value="0" leadInLength="0/1"  />
           <InterpolatingParam id="3582" interp="linr"  time="-9999999/1" value="0" leadInLength="0/1"  />
          </VectorParam>
          <VectorParam id="3583"  name="scale">
           <InterpolatingParam id="3584" interp="linr"  time="-9999999/1" value="1" leadInLength="0/1"  />
           <InterpolatingParam id="3585" interp="linr"  time="-9999999/1" value="1" leadInLength="0/1"  />
           <InterpolatingParam id="3586" interp="linr"  time="-9999999/1" value="1" leadInLength="0/1"  />
          </VectorParam>
          <VectorParam id="3587"  name="anchor">
           <InterpolatingParam id="3588" interp="linr"  time="0/1" value="0" leadInLength="0/1"  />
           <InterpolatingParam id="3589" interp="linr"  time="0/1" value="0" leadInLength="0/1"  />
           <InterpolatingParam id="3590" interp="linr"  time="0/1" value="0" leadInLength="0/1"  />
          </VectorParam>
         </Transformer>
         <Parameters>
          <VectorParam id="3591"  name="sourceCrop">
           <InterpolatingParam id="3592" interp="linr"  time="0/1" value="0" leadInLength="0/1"  />
           <InterpolatingParam id="3593" interp="linr"  time="0/1" value="0" leadInLength="0/1"  />
           <InterpolatingParam id="3594" interp="linr"  time="0/1" value="0" leadInLength="0/1"  />
           <InterpolatingParam id="3595" interp="linr"  time="0/1" value="0" leadInLength="0/1"  />
          </VectorParam>
          <VectorParam id="3596"  name="geometryCrop">
           <InterpolatingParam id="3597" interp="linr"  time="-9999999/1" value="0" leadInLength="0/1"  />
           <InterpolatingParam id="3598" interp="linr"  time="-9999999/1" value="0" leadInLength="0/1"  />
           <InterpolatingParam id="3599" interp="linr"  time="-9999999/1" value="0" leadInLength="0/1"  />
           <InterpolatingParam id="3600" interp="linr"  time="-9999999/1" value="0" leadInLength="0/1"  />
          </VectorParam>
          <InterpolatingParam id="3601" interp="linr"  time="-9999999/1" value="1" leadInLength="0/1"  name="opacity"/>
          <InterpolatingParam id="3602" interp="linr"  time="0/1" value="1" leadInLength="0/1"  name="cursorOpacity"/>
          <InterpolatingParam id="3603" interp="linr"  time="0/1" value="1" leadInLength="0/1"  name="cursorScale"/>
          <InterpolatingParam id="3604" interp="linr"  name="volume">
           <Keyframes>
           <Keyframe id="3605"  time="-5833616625/104654" value="0" leadInLength="0/1"  />
           <Keyframe id="3606"  time="143611/9514" value="0" leadInLength="0/1"  />
           <Keyframe id="3607"  time="17/1" value="0" leadInLength="0/1"  />
           </Keyframes>
          </InterpolatingParam>
          <Parameter id="3608"  name="captions"/>
         </Parameters>
         <Attributes>
          <Attribute id="3609" value="" name="ident"/>
          <Attribute id="3610" value="0" name="mixToMono"/>
         </Attributes>
         <MetaData>
          <entry key="WinSubProjectDisplayName" val=""/>
         </MetaData>
         <ExtraData>
          <Entry key="ZoomPanBin">
           <ZoomPanBin id="3611"  >
            <ZoomPanKeyframes>
             <ZoomPanKeyframe id="3612" timeRangeEnd="-9999999/1" timeRangeDuration="0/1" interpolaterName="linr"  />
            </ZoomPanKeyframes>
           </ZoomPanBin>
          </Entry>
          <Entry key="CursorEffectBin">
           <CursorEffectBin id="3613"  >
            <CursorEffectKeyframes>
            </CursorEffectKeyframes>
           </CursorEffectBin>
          </Entry>
         </ExtraData>
         <GenericTrack id="3614"  >
          <Attributes>
           <Attribute id="3615" value="" name="ident"/>
           <Attribute id="3616" value="0" name="audioMuted"/>
           <Attribute id="3617" value="0" name="videoHidden"/>
          </Attributes>
          <MetaData>
           <entry key="IsLocked" val="False"/>
           <entry key="WinTrackHeight" val="0"/>
          </MetaData>
          <Medias>
           <IMFile id="3618" start="-55742" duration="55758" scalar="1/1" mediaStart="6973/1" mediaDuration="1/1" trackNumber="0" src="21" trimStartSum="-55742/1" >
            <Transformer>
             <VectorParam id="3619"  name="translation">
              <InterpolatingParam id="3620" interp="linr"  time="-9999999/1" value="0" leadInLength="0/1"  />
              <InterpolatingParam id="3621" interp="linr"  time="-9999999/1" value="0" leadInLength="0/1"  />
              <InterpolatingParam id="3622" interp="linr"  time="-9999999/1" value="0" leadInLength="0/1"  />
             </VectorParam>
             <VectorParam id="3623"  name="rotation">
              <InterpolatingParam id="3624" interp="linr"  time="-9999999/1" value="0" leadInLength="0/1"  />
              <InterpolatingParam id="3625" interp="linr"  time="-9999999/1" value="0" leadInLength="0/1"  />
              <InterpolatingParam id="3626" interp="linr"  time="-9999999/1" value="0" leadInLength="0/1"  />
             </VectorParam>
             <VectorParam id="3627"  name="shear">
              <InterpolatingParam id="3628" interp="linr"  time="-9999999/1" value="0" leadInLength="0/1"  />
              <InterpolatingParam id="3629" interp="linr"  time="-9999999/1" value="0" leadInLength="0/1"  />
              <InterpolatingParam id="3630" interp="linr"  time="-9999999/1" value="0" leadInLength="0/1"  />
             </VectorParam>
             <VectorParam id="3631"  name="scale">
              <InterpolatingParam id="3632" interp="linr"  time="-9999999/1" value="1" leadInLength="0/1"  />
              <InterpolatingParam id="3633" interp="linr"  time="-9999999/1" value="1" leadInLength="0/1"  />
              <InterpolatingParam id="3634" interp="linr"  time="-9999999/1" value="1" leadInLength="0/1"  />
             </VectorParam>
             <VectorParam id="3635"  name="anchor">
              <InterpolatingParam id="3636" interp="linr"  time="0/1" value="0" leadInLength="0/1"  />
              <InterpolatingParam id="3637" interp="linr"  time="0/1" value="0" leadInLength="0/1"  />
              <InterpolatingParam id="3638" interp="linr"  time="0/1" value="0" leadInLength="0/1"  />
             </VectorParam>
            </Transformer>
            <Parameters>
             <VectorParam id="3639"  name="sourceCrop">
              <InterpolatingParam id="3640" interp="linr"  time="0/1" value="0" leadInLength="0/1"  />
              <InterpolatingParam id="3641" interp="linr"  time="0/1" value="0" leadInLength="0/1"  />
              <InterpolatingParam id="3642" interp="linr"  time="0/1" value="0" leadInLength="0/1"  />
              <InterpolatingParam id="3643" interp="linr"  time="0/1" value="0" leadInLength="0/1"  />
             </VectorParam>
             <VectorParam id="3644"  name="geometryCrop">
              <InterpolatingParam id="3645" interp="linr"  time="-9999999/1" value="0" leadInLength="0/1"  />
              <InterpolatingParam id="3646" interp="linr"  time="-9999999/1" value="0" leadInLength="0/1"  />
              <InterpolatingParam id="3647" interp="linr"  time="-9999999/1" value="0" leadInLength="0/1"  />
              <InterpolatingParam id="3648" interp="linr"  time="-9999999/1" value="0" leadInLength="0/1"  />
             </VectorParam>
             <InterpolatingParam id="3649" interp="linr"  time="-9999999/1" value="1" leadInLength="0/1"  name="opacity"/>
            </Parameters>
            <Attributes>
             <Attribute id="3650" value="" name="ident"/>
            </Attributes>
            <MetaData>
             <entry key="WinSubProjectDisplayName" val=""/>
            </MetaData>
            <ExtraData>
             <Entry key="ZoomPanBin">
              <ZoomPanBin id="3651"  >
               <ZoomPanKeyframes>
                <ZoomPanKeyframe id="3652" timeRangeEnd="-9999999/1" timeRangeDuration="0/1" interpolaterName="linr"  />
               </ZoomPanKeyframes>
              </ZoomPanBin>
             </Entry>
            </ExtraData>
           </IMFile>
           <UnifiedMedia id="3653"  >
            <AMFile id="3654" start="16" duration="1979" scalar="1/1" mediaStart="6973/1" mediaDuration="1979/1" trackNumber="1" src="21" channelNumber="0,1" >
             <Parameters>
              <InterpolatingParam id="3655" interp="linr"  time="0/1" value="1" leadInLength="0/1"  name="volume"/>
              <Parameter id="3656"  name="captions"/>
             </Parameters>
             <Attributes>
              <Attribute id="3657" value="" name="ident"/>
              <Attribute id="3658" value="44100" name="sampleRate"/>
              <Attribute id="3659" value="16" name="bitDepth"/>
              <Attribute id="3660" value="1" name="gain"/>
              <Attribute id="3661" value="0" name="mixToMono"/>
             </Attributes>
            </AMFile>
            <VMFile id="3662" start="16" duration="1979" scalar="1/1" mediaStart="6973/1" mediaDuration="1979/1" trackNumber="0" src="21" >
             <Transformer>
              <VectorParam id="3663"  name="translation">
               <InterpolatingParam id="3664" interp="linr"  time="-9999999/1" value="0" leadInLength="0/1"  />
               <InterpolatingParam id="3665" interp="linr"  time="-9999999/1" value="0" leadInLength="0/1"  />
               <InterpolatingParam id="3666" interp="linr"  time="-9999999/1" value="0" leadInLength="0/1"  />
              </VectorParam>
              <VectorParam id="3667"  name="rotation">
               <InterpolatingParam id="3668" interp="linr"  time="-9999999/1" value="0" leadInLength="0/1"  />
               <InterpolatingParam id="3669" interp="linr"  time="-9999999/1" value="0" leadInLength="0/1"  />
               <InterpolatingParam id="3670" interp="linr"  time="-9999999/1" value="0" leadInLength="0/1"  />
              </VectorParam>
              <VectorParam id="3671"  name="shear">
               <InterpolatingParam id="3672" interp="linr"  time="-9999999/1" value="0" leadInLength="0/1"  />
               <InterpolatingParam id="3673" interp="linr"  time="-9999999/1" value="0" leadInLength="0/1"  />
               <InterpolatingParam id="3674" interp="linr"  time="-9999999/1" value="0" leadInLength="0/1"  />
              </VectorParam>
              <VectorParam id="3675"  name="scale">
               <InterpolatingParam id="3676" interp="linr"  time="-9999999/1" value="1" leadInLength="0/1"  />
               <InterpolatingParam id="3677" interp="linr"  time="-9999999/1" value="1" leadInLength="0/1"  />
               <InterpolatingParam id="3678" interp="linr"  time="-9999999/1" value="1" leadInLength="0/1"  />
              </VectorParam>
              <VectorParam id="3679"  name="anchor">
               <InterpolatingParam id="3680" interp="linr"  time="0/1" value="0" leadInLength="0/1"  />
               <InterpolatingParam id="3681" interp="linr"  time="0/1" value="0" leadInLength="0/1"  />
               <InterpolatingParam id="3682" interp="linr"  time="0/1" value="0" leadInLength="0/1"  />
              </VectorParam>
             </Transformer>
             <Parameters>
              <VectorParam id="3683"  name="sourceCrop">
               <InterpolatingParam id="3684" interp="linr"  time="0/1" value="0" leadInLength="0/1"  />
               <InterpolatingParam id="3685" interp="linr"  time="0/1" value="0" leadInLength="0/1"  />
               <InterpolatingParam id="3686" interp="linr"  time="0/1" value="0" leadInLength="0/1"  />
               <InterpolatingParam id="3687" interp="linr"  time="0/1" value="0" leadInLength="0/1"  />
              </VectorParam>
              <VectorParam id="3688"  name="geometryCrop">
               <InterpolatingParam id="3689" interp="linr"  time="-9999999/1" value="0" leadInLength="0/1"  />
               <InterpolatingParam id="3690" interp="linr"  time="-9999999/1" value="0" leadInLength="0/1"  />
               <InterpolatingParam id="3691" interp="linr"  time="-9999999/1" value="0" leadInLength="0/1"  />
               <InterpolatingParam id="3692" interp="linr"  time="-9999999/1" value="0" leadInLength="0/1"  />
              </VectorParam>
              <InterpolatingParam id="3693" interp="linr"  time="-9999999/1" value="1" leadInLength="0/1"  name="opacity"/>
             </Parameters>
             <Attributes>
              <Attribute id="3694" value="" name="ident"/>
             </Attributes>
             <ExtraData>
              <Entry key="ZoomPanBin">
               <ZoomPanBin id="3695"  >
                <ZoomPanKeyframes>
                 <ZoomPanKeyframe id="3696" timeRangeEnd="-9999999/1" timeRangeDuration="0/1" interpolaterName="linr"  />
                </ZoomPanKeyframes>
               </ZoomPanBin>
              </Entry>
             </ExtraData>
            </VMFile>
            <MetaData>
             <entry key="WinSubProjectDisplayName" val=""/>
            </MetaData>
           </UnifiedMedia>
          </Medias>
         </GenericTrack>
        </StitchedMedia>
        <StitchedMedia id="3697" start="7118" duration="21" scalar="1098867/943520" mediaStart="3375/104654" mediaDuration="943520/52327" minMediaStart="-5833616625/104654" >
         <Transformer>
          <VectorParam id="3698"  name="translation">
           <InterpolatingParam id="3699" interp="linr"  time="-9999999/1" value="0" leadInLength="0/1"  />
           <InterpolatingParam id="3700" interp="linr"  time="-9999999/1" value="0" leadInLength="0/1"  />
           <InterpolatingParam id="3701" interp="linr"  time="-9999999/1" value="0" leadInLength="0/1"  />
          </VectorParam>
          <VectorParam id="3702"  name="rotation">
           <InterpolatingParam id="3703" interp="linr"  time="-9999999/1" value="0" leadInLength="0/1"  />
           <InterpolatingParam id="3704" interp="linr"  time="-9999999/1" value="0" leadInLength="0/1"  />
           <InterpolatingParam id="3705" interp="linr"  time="-9999999/1" value="0" leadInLength="0/1"  />
          </VectorParam>
          <VectorParam id="3706"  name="shear">
           <InterpolatingParam id="3707" interp="linr"  time="-9999999/1" value="0" leadInLength="0/1"  />
           <InterpolatingParam id="3708" interp="linr"  time="-9999999/1" value="0" leadInLength="0/1"  />
           <InterpolatingParam id="3709" interp="linr"  time="-9999999/1" value="0" leadInLength="0/1"  />
          </VectorParam>
          <VectorParam id="3710"  name="scale">
           <InterpolatingParam id="3711" interp="linr"  time="-9999999/1" value="1" leadInLength="0/1"  />
           <InterpolatingParam id="3712" interp="linr"  time="-9999999/1" value="1" leadInLength="0/1"  />
           <InterpolatingParam id="3713" interp="linr"  time="-9999999/1" value="1" leadInLength="0/1"  />
          </VectorParam>
          <VectorParam id="3714"  name="anchor">
           <InterpolatingParam id="3715" interp="linr"  time="0/1" value="0" leadInLength="0/1"  />
           <InterpolatingParam id="3716" interp="linr"  time="0/1" value="0" leadInLength="0/1"  />
           <InterpolatingParam id="3717" interp="linr"  time="0/1" value="0" leadInLength="0/1"  />
          </VectorParam>
         </Transformer>
         <Parameters>
          <VectorParam id="3718"  name="sourceCrop">
           <InterpolatingParam id="3719" interp="linr"  time="0/1" value="0" leadInLength="0/1"  />
           <InterpolatingParam id="3720" interp="linr"  time="0/1" value="0" leadInLength="0/1"  />
           <InterpolatingParam id="3721" interp="linr"  time="0/1" value="0" leadInLength="0/1"  />
           <InterpolatingParam id="3722" interp="linr"  time="0/1" value="0" leadInLength="0/1"  />
          </VectorParam>
          <VectorParam id="3723"  name="geometryCrop">
           <InterpolatingParam id="3724" interp="linr"  time="-9999999/1" value="0" leadInLength="0/1"  />
           <InterpolatingParam id="3725" interp="linr"  time="-9999999/1" value="0" leadInLength="0/1"  />
           <InterpolatingParam id="3726" interp="linr"  time="-9999999/1" value="0" leadInLength="0/1"  />
           <InterpolatingParam id="3727" interp="linr"  time="-9999999/1" value="0" leadInLength="0/1"  />
          </VectorParam>
          <InterpolatingParam id="3728" interp="linr"  time="-9999999/1" value="1" leadInLength="0/1"  name="opacity"/>
          <InterpolatingParam id="3729" interp="linr"  time="0/1" value="1" leadInLength="0/1"  name="cursorOpacity"/>
          <InterpolatingParam id="3730" interp="linr"  time="0/1" value="1" leadInLength="0/1"  name="cursorScale"/>
          <InterpolatingParam id="3731" interp="linr"  name="volume">
           <Keyframes>
           <Keyframe id="3732"  time="-5833616625/104654" value="0" leadInLength="0/1"  />
           <Keyframe id="3733"  time="143611/9514" value="0" leadInLength="0/1"  />
           <Keyframe id="3734"  time="17/1" value="0" leadInLength="0/1"  />
           </Keyframes>
          </InterpolatingParam>
          <Parameter id="3735"  name="captions"/>
         </Parameters>
         <Attributes>
          <Attribute id="3736" value="" name="ident"/>
          <Attribute id="3737" value="0" name="mixToMono"/>
         </Attributes>
         <MetaData>
          <entry key="WinSubProjectDisplayName" val=""/>
         </MetaData>
         <ExtraData>
          <Entry key="ZoomPanBin">
           <ZoomPanBin id="3738"  >
            <ZoomPanKeyframes>
             <ZoomPanKeyframe id="3739" timeRangeEnd="-9999999/1" timeRangeDuration="0/1" interpolaterName="linr"  />
            </ZoomPanKeyframes>
           </ZoomPanBin>
          </Entry>
          <Entry key="CursorEffectBin">
           <CursorEffectBin id="3740"  >
            <CursorEffectKeyframes>
            </CursorEffectKeyframes>
           </CursorEffectBin>
          </Entry>
         </ExtraData>
         <GenericTrack id="3741"  >
          <Attributes>
           <Attribute id="3742" value="" name="ident"/>
           <Attribute id="3743" value="0" name="audioMuted"/>
           <Attribute id="3744" value="0" name="videoHidden"/>
          </Attributes>
          <MetaData>
           <entry key="IsLocked" val="False"/>
           <entry key="WinTrackHeight" val="0"/>
          </MetaData>
          <Medias>
           <IMFile id="3745" start="-55742" duration="55758" scalar="1/1" mediaStart="6973/1" mediaDuration="1/1" trackNumber="0" src="21" trimStartSum="-55742/1" >
            <Transformer>
             <VectorParam id="3746"  name="translation">
              <InterpolatingParam id="3747" interp="linr"  time="-9999999/1" value="0" leadInLength="0/1"  />
              <InterpolatingParam id="3748" interp="linr"  time="-9999999/1" value="0" leadInLength="0/1"  />
              <InterpolatingParam id="3749" interp="linr"  time="-9999999/1" value="0" leadInLength="0/1"  />
             </VectorParam>
             <VectorParam id="3750"  name="rotation">
              <InterpolatingParam id="3751" interp="linr"  time="-9999999/1" value="0" leadInLength="0/1"  />
              <InterpolatingParam id="3752" interp="linr"  time="-9999999/1" value="0" leadInLength="0/1"  />
              <InterpolatingParam id="3753" interp="linr"  time="-9999999/1" value="0" leadInLength="0/1"  />
             </VectorParam>
             <VectorParam id="3754"  name="shear">
              <InterpolatingParam id="3755" interp="linr"  time="-9999999/1" value="0" leadInLength="0/1"  />
              <InterpolatingParam id="3756" interp="linr"  time="-9999999/1" value="0" leadInLength="0/1"  />
              <InterpolatingParam id="3757" interp="linr"  time="-9999999/1" value="0" leadInLength="0/1"  />
             </VectorParam>
             <VectorParam id="3758"  name="scale">
              <InterpolatingParam id="3759" interp="linr"  time="-9999999/1" value="1" leadInLength="0/1"  />
              <InterpolatingParam id="3760" interp="linr"  time="-9999999/1" value="1" leadInLength="0/1"  />
              <InterpolatingParam id="3761" interp="linr"  time="-9999999/1" value="1" leadInLength="0/1"  />
             </VectorParam>
             <VectorParam id="3762"  name="anchor">
              <InterpolatingParam id="3763" interp="linr"  time="0/1" value="0" leadInLength="0/1"  />
              <InterpolatingParam id="3764" interp="linr"  time="0/1" value="0" leadInLength="0/1"  />
              <InterpolatingParam id="3765" interp="linr"  time="0/1" value="0" leadInLength="0/1"  />
             </VectorParam>
            </Transformer>
            <Parameters>
             <VectorParam id="3766"  name="sourceCrop">
              <InterpolatingParam id="3767" interp="linr"  time="0/1" value="0" leadInLength="0/1"  />
              <InterpolatingParam id="3768" interp="linr"  time="0/1" value="0" leadInLength="0/1"  />
              <InterpolatingParam id="3769" interp="linr"  time="0/1" value="0" leadInLength="0/1"  />
              <InterpolatingParam id="3770" interp="linr"  time="0/1" value="0" leadInLength="0/1"  />
             </VectorParam>
             <VectorParam id="3771"  name="geometryCrop">
              <InterpolatingParam id="3772" interp="linr"  time="-9999999/1" value="0" leadInLength="0/1"  />
              <InterpolatingParam id="3773" interp="linr"  time="-9999999/1" value="0" leadInLength="0/1"  />
              <InterpolatingParam id="3774" interp="linr"  time="-9999999/1" value="0" leadInLength="0/1"  />
              <InterpolatingParam id="3775" interp="linr"  time="-9999999/1" value="0" leadInLength="0/1"  />
             </VectorParam>
             <InterpolatingParam id="3776" interp="linr"  time="-9999999/1" value="1" leadInLength="0/1"  name="opacity"/>
            </Parameters>
            <Attributes>
             <Attribute id="3777" value="" name="ident"/>
            </Attributes>
            <MetaData>
             <entry key="WinSubProjectDisplayName" val=""/>
            </MetaData>
            <ExtraData>
             <Entry key="ZoomPanBin">
              <ZoomPanBin id="3778"  >
               <ZoomPanKeyframes>
                <ZoomPanKeyframe id="3779" timeRangeEnd="-9999999/1" timeRangeDuration="0/1" interpolaterName="linr"  />
               </ZoomPanKeyframes>
              </ZoomPanBin>
             </Entry>
            </ExtraData>
           </IMFile>
           <UnifiedMedia id="3780"  >
            <AMFile id="3781" start="16" duration="1979" scalar="1/1" mediaStart="6973/1" mediaDuration="1979/1" trackNumber="1" src="21" channelNumber="0,1" >
             <Parameters>
              <InterpolatingParam id="3782" interp="linr"  time="0/1" value="1" leadInLength="0/1"  name="volume"/>
              <Parameter id="3783"  name="captions"/>
             </Parameters>
             <Attributes>
              <Attribute id="3784" value="" name="ident"/>
              <Attribute id="3785" value="44100" name="sampleRate"/>
              <Attribute id="3786" value="16" name="bitDepth"/>
              <Attribute id="3787" value="1" name="gain"/>
              <Attribute id="3788" value="0" name="mixToMono"/>
             </Attributes>
            </AMFile>
            <VMFile id="3789" start="16" duration="1979" scalar="1/1" mediaStart="6973/1" mediaDuration="1979/1" trackNumber="0" src="21" >
             <Transformer>
              <VectorParam id="3790"  name="translation">
               <InterpolatingParam id="3791" interp="linr"  time="-9999999/1" value="0" leadInLength="0/1"  />
               <InterpolatingParam id="3792" interp="linr"  time="-9999999/1" value="0" leadInLength="0/1"  />
               <InterpolatingParam id="3793" interp="linr"  time="-9999999/1" value="0" leadInLength="0/1"  />
              </VectorParam>
              <VectorParam id="3794"  name="rotation">
               <InterpolatingParam id="3795" interp="linr"  time="-9999999/1" value="0" leadInLength="0/1"  />
               <InterpolatingParam id="3796" interp="linr"  time="-9999999/1" value="0" leadInLength="0/1"  />
               <InterpolatingParam id="3797" interp="linr"  time="-9999999/1" value="0" leadInLength="0/1"  />
              </VectorParam>
              <VectorParam id="3798"  name="shear">
               <InterpolatingParam id="3799" interp="linr"  time="-9999999/1" value="0" leadInLength="0/1"  />
               <InterpolatingParam id="3800" interp="linr"  time="-9999999/1" value="0" leadInLength="0/1"  />
               <InterpolatingParam id="3801" interp="linr"  time="-9999999/1" value="0" leadInLength="0/1"  />
              </VectorParam>
              <VectorParam id="3802"  name="scale">
               <InterpolatingParam id="3803" interp="linr"  time="-9999999/1" value="1" leadInLength="0/1"  />
               <InterpolatingParam id="3804" interp="linr"  time="-9999999/1" value="1" leadInLength="0/1"  />
               <InterpolatingParam id="3805" interp="linr"  time="-9999999/1" value="1" leadInLength="0/1"  />
              </VectorParam>
              <VectorParam id="3806"  name="anchor">
               <InterpolatingParam id="3807" interp="linr"  time="0/1" value="0" leadInLength="0/1"  />
               <InterpolatingParam id="3808" interp="linr"  time="0/1" value="0" leadInLength="0/1"  />
               <InterpolatingParam id="3809" interp="linr"  time="0/1" value="0" leadInLength="0/1"  />
              </VectorParam>
             </Transformer>
             <Parameters>
              <VectorParam id="3810"  name="sourceCrop">
               <InterpolatingParam id="3811" interp="linr"  time="0/1" value="0" leadInLength="0/1"  />
               <InterpolatingParam id="3812" interp="linr"  time="0/1" value="0" leadInLength="0/1"  />
               <InterpolatingParam id="3813" interp="linr"  time="0/1" value="0" leadInLength="0/1"  />
               <InterpolatingParam id="3814" interp="linr"  time="0/1" value="0" leadInLength="0/1"  />
              </VectorParam>
              <VectorParam id="3815"  name="geometryCrop">
               <InterpolatingParam id="3816" interp="linr"  time="-9999999/1" value="0" leadInLength="0/1"  />
               <InterpolatingParam id="3817" interp="linr"  time="-9999999/1" value="0" leadInLength="0/1"  />
               <InterpolatingParam id="3818" interp="linr"  time="-9999999/1" value="0" leadInLength="0/1"  />
               <InterpolatingParam id="3819" interp="linr"  time="-9999999/1" value="0" leadInLength="0/1"  />
              </VectorParam>
              <InterpolatingParam id="3820" interp="linr"  time="-9999999/1" value="1" leadInLength="0/1"  name="opacity"/>
             </Parameters>
             <Attributes>
              <Attribute id="3821" value="" name="ident"/>
             </Attributes>
             <ExtraData>
              <Entry key="ZoomPanBin">
               <ZoomPanBin id="3822"  >
                <ZoomPanKeyframes>
                 <ZoomPanKeyframe id="3823" timeRangeEnd="-9999999/1" timeRangeDuration="0/1" interpolaterName="linr"  />
                </ZoomPanKeyframes>
               </ZoomPanBin>
              </Entry>
             </ExtraData>
            </VMFile>
            <MetaData>
             <entry key="WinSubProjectDisplayName" val=""/>
            </MetaData>
           </UnifiedMedia>
          </Medias>
         </GenericTrack>
        </StitchedMedia>
        <StitchedMedia id="3824" start="7139" duration="21" scalar="1098867/943520" mediaStart="3375/104654" mediaDuration="943520/52327" minMediaStart="-5833616625/104654" >
         <Transformer>
          <VectorParam id="3825"  name="translation">
           <InterpolatingParam id="3826" interp="linr"  time="-9999999/1" value="0" leadInLength="0/1"  />
           <InterpolatingParam id="3827" interp="linr"  time="-9999999/1" value="0" leadInLength="0/1"  />
           <InterpolatingParam id="3828" interp="linr"  time="-9999999/1" value="0" leadInLength="0/1"  />
          </VectorParam>
          <VectorParam id="3829"  name="rotation">
           <InterpolatingParam id="3830" interp="linr"  time="-9999999/1" value="0" leadInLength="0/1"  />
           <InterpolatingParam id="3831" interp="linr"  time="-9999999/1" value="0" leadInLength="0/1"  />
           <InterpolatingParam id="3832" interp="linr"  time="-9999999/1" value="0" leadInLength="0/1"  />
          </VectorParam>
          <VectorParam id="3833"  name="shear">
           <InterpolatingParam id="3834" interp="linr"  time="-9999999/1" value="0" leadInLength="0/1"  />
           <InterpolatingParam id="3835" interp="linr"  time="-9999999/1" value="0" leadInLength="0/1"  />
           <InterpolatingParam id="3836" interp="linr"  time="-9999999/1" value="0" leadInLength="0/1"  />
          </VectorParam>
          <VectorParam id="3837"  name="scale">
           <InterpolatingParam id="3838" interp="linr"  time="-9999999/1" value="1" leadInLength="0/1"  />
           <InterpolatingParam id="3839" interp="linr"  time="-9999999/1" value="1" leadInLength="0/1"  />
           <InterpolatingParam id="3840" interp="linr"  time="-9999999/1" value="1" leadInLength="0/1"  />
          </VectorParam>
          <VectorParam id="3841"  name="anchor">
           <InterpolatingParam id="3842" interp="linr"  time="0/1" value="0" leadInLength="0/1"  />
           <InterpolatingParam id="3843" interp="linr"  time="0/1" value="0" leadInLength="0/1"  />
           <InterpolatingParam id="3844" interp="linr"  time="0/1" value="0" leadInLength="0/1"  />
          </VectorParam>
         </Transformer>
         <Parameters>
          <VectorParam id="3845"  name="sourceCrop">
           <InterpolatingParam id="3846" interp="linr"  time="0/1" value="0" leadInLength="0/1"  />
           <InterpolatingParam id="3847" interp="linr"  time="0/1" value="0" leadInLength="0/1"  />
           <InterpolatingParam id="3848" interp="linr"  time="0/1" value="0" leadInLength="0/1"  />
           <InterpolatingParam id="3849" interp="linr"  time="0/1" value="0" leadInLength="0/1"  />
          </VectorParam>
          <VectorParam id="3850"  name="geometryCrop">
           <InterpolatingParam id="3851" interp="linr"  time="-9999999/1" value="0" leadInLength="0/1"  />
           <InterpolatingParam id="3852" interp="linr"  time="-9999999/1" value="0" leadInLength="0/1"  />
           <InterpolatingParam id="3853" interp="linr"  time="-9999999/1" value="0" leadInLength="0/1"  />
           <InterpolatingParam id="3854" interp="linr"  time="-9999999/1" value="0" leadInLength="0/1"  />
          </VectorParam>
          <InterpolatingParam id="3855" interp="linr"  time="-9999999/1" value="1" leadInLength="0/1"  name="opacity"/>
          <InterpolatingParam id="3856" interp="linr"  time="0/1" value="1" leadInLength="0/1"  name="cursorOpacity"/>
          <InterpolatingParam id="3857" interp="linr"  time="0/1" value="1" leadInLength="0/1"  name="cursorScale"/>
          <InterpolatingParam id="3858" interp="linr"  name="volume">
           <Keyframes>
           <Keyframe id="3859"  time="-5833616625/104654" value="0" leadInLength="0/1"  />
           <Keyframe id="3860"  time="143611/9514" value="0" leadInLength="0/1"  />
           <Keyframe id="3861"  time="17/1" value="0" leadInLength="0/1"  />
           </Keyframes>
          </InterpolatingParam>
          <Parameter id="3862"  name="captions"/>
         </Parameters>
         <Attributes>
          <Attribute id="3863" value="" name="ident"/>
          <Attribute id="3864" value="0" name="mixToMono"/>
         </Attributes>
         <MetaData>
          <entry key="WinSubProjectDisplayName" val=""/>
         </MetaData>
         <ExtraData>
          <Entry key="ZoomPanBin">
           <ZoomPanBin id="3865"  >
            <ZoomPanKeyframes>
             <ZoomPanKeyframe id="3866" timeRangeEnd="-9999999/1" timeRangeDuration="0/1" interpolaterName="linr"  />
            </ZoomPanKeyframes>
           </ZoomPanBin>
          </Entry>
          <Entry key="CursorEffectBin">
           <CursorEffectBin id="3867"  >
            <CursorEffectKeyframes>
            </CursorEffectKeyframes>
           </CursorEffectBin>
          </Entry>
         </ExtraData>
         <GenericTrack id="3868"  >
          <Attributes>
           <Attribute id="3869" value="" name="ident"/>
           <Attribute id="3870" value="0" name="audioMuted"/>
           <Attribute id="3871" value="0" name="videoHidden"/>
          </Attributes>
          <MetaData>
           <entry key="IsLocked" val="False"/>
           <entry key="WinTrackHeight" val="0"/>
          </MetaData>
          <Medias>
           <IMFile id="3872" start="-55742" duration="55758" scalar="1/1" mediaStart="6973/1" mediaDuration="1/1" trackNumber="0" src="21" trimStartSum="-55742/1" >
            <Transformer>
             <VectorParam id="3873"  name="translation">
              <InterpolatingParam id="3874" interp="linr"  time="-9999999/1" value="0" leadInLength="0/1"  />
              <InterpolatingParam id="3875" interp="linr"  time="-9999999/1" value="0" leadInLength="0/1"  />
              <InterpolatingParam id="3876" interp="linr"  time="-9999999/1" value="0" leadInLength="0/1"  />
             </VectorParam>
             <VectorParam id="3877"  name="rotation">
              <InterpolatingParam id="3878" interp="linr"  time="-9999999/1" value="0" leadInLength="0/1"  />
              <InterpolatingParam id="3879" interp="linr"  time="-9999999/1" value="0" leadInLength="0/1"  />
              <InterpolatingParam id="3880" interp="linr"  time="-9999999/1" value="0" leadInLength="0/1"  />
             </VectorParam>
             <VectorParam id="3881"  name="shear">
              <InterpolatingParam id="3882" interp="linr"  time="-9999999/1" value="0" leadInLength="0/1"  />
              <InterpolatingParam id="3883" interp="linr"  time="-9999999/1" value="0" leadInLength="0/1"  />
              <InterpolatingParam id="3884" interp="linr"  time="-9999999/1" value="0" leadInLength="0/1"  />
             </VectorParam>
             <VectorParam id="3885"  name="scale">
              <InterpolatingParam id="3886" interp="linr"  time="-9999999/1" value="1" leadInLength="0/1"  />
              <InterpolatingParam id="3887" interp="linr"  time="-9999999/1" value="1" leadInLength="0/1"  />
              <InterpolatingParam id="3888" interp="linr"  time="-9999999/1" value="1" leadInLength="0/1"  />
             </VectorParam>
             <VectorParam id="3889"  name="anchor">
              <InterpolatingParam id="3890" interp="linr"  time="0/1" value="0" leadInLength="0/1"  />
              <InterpolatingParam id="3891" interp="linr"  time="0/1" value="0" leadInLength="0/1"  />
              <InterpolatingParam id="3892" interp="linr"  time="0/1" value="0" leadInLength="0/1"  />
             </VectorParam>
            </Transformer>
            <Parameters>
             <VectorParam id="3893"  name="sourceCrop">
              <InterpolatingParam id="3894" interp="linr"  time="0/1" value="0" leadInLength="0/1"  />
              <InterpolatingParam id="3895" interp="linr"  time="0/1" value="0" leadInLength="0/1"  />
              <InterpolatingParam id="3896" interp="linr"  time="0/1" value="0" leadInLength="0/1"  />
              <InterpolatingParam id="3897" interp="linr"  time="0/1" value="0" leadInLength="0/1"  />
             </VectorParam>
             <VectorParam id="3898"  name="geometryCrop">
              <InterpolatingParam id="3899" interp="linr"  time="-9999999/1" value="0" leadInLength="0/1"  />
              <InterpolatingParam id="3900" interp="linr"  time="-9999999/1" value="0" leadInLength="0/1"  />
              <InterpolatingParam id="3901" interp="linr"  time="-9999999/1" value="0" leadInLength="0/1"  />
              <InterpolatingParam id="3902" interp="linr"  time="-9999999/1" value="0" leadInLength="0/1"  />
             </VectorParam>
             <InterpolatingParam id="3903" interp="linr"  time="-9999999/1" value="1" leadInLength="0/1"  name="opacity"/>
            </Parameters>
            <Attributes>
             <Attribute id="3904" value="" name="ident"/>
            </Attributes>
            <MetaData>
             <entry key="WinSubProjectDisplayName" val=""/>
            </MetaData>
            <ExtraData>
             <Entry key="ZoomPanBin">
              <ZoomPanBin id="3905"  >
               <ZoomPanKeyframes>
                <ZoomPanKeyframe id="3906" timeRangeEnd="-9999999/1" timeRangeDuration="0/1" interpolaterName="linr"  />
               </ZoomPanKeyframes>
              </ZoomPanBin>
             </Entry>
            </ExtraData>
           </IMFile>
           <UnifiedMedia id="3907"  >
            <AMFile id="3908" start="16" duration="1979" scalar="1/1" mediaStart="6973/1" mediaDuration="1979/1" trackNumber="1" src="21" channelNumber="0,1" >
             <Parameters>
              <InterpolatingParam id="3909" interp="linr"  time="0/1" value="1" leadInLength="0/1"  name="volume"/>
              <Parameter id="3910"  name="captions"/>
             </Parameters>
             <Attributes>
              <Attribute id="3911" value="" name="ident"/>
              <Attribute id="3912" value="44100" name="sampleRate"/>
              <Attribute id="3913" value="16" name="bitDepth"/>
              <Attribute id="3914" value="1" name="gain"/>
              <Attribute id="3915" value="0" name="mixToMono"/>
             </Attributes>
            </AMFile>
            <VMFile id="3916" start="16" duration="1979" scalar="1/1" mediaStart="6973/1" mediaDuration="1979/1" trackNumber="0" src="21" >
             <Transformer>
              <VectorParam id="3917"  name="translation">
               <InterpolatingParam id="3918" interp="linr"  time="-9999999/1" value="0" leadInLength="0/1"  />
               <InterpolatingParam id="3919" interp="linr"  time="-9999999/1" value="0" leadInLength="0/1"  />
               <InterpolatingParam id="3920" interp="linr"  time="-9999999/1" value="0" leadInLength="0/1"  />
              </VectorParam>
              <VectorParam id="3921"  name="rotation">
               <InterpolatingParam id="3922" interp="linr"  time="-9999999/1" value="0" leadInLength="0/1"  />
               <InterpolatingParam id="3923" interp="linr"  time="-9999999/1" value="0" leadInLength="0/1"  />
               <InterpolatingParam id="3924" interp="linr"  time="-9999999/1" value="0" leadInLength="0/1"  />
              </VectorParam>
              <VectorParam id="3925"  name="shear">
               <InterpolatingParam id="3926" interp="linr"  time="-9999999/1" value="0" leadInLength="0/1"  />
               <InterpolatingParam id="3927" interp="linr"  time="-9999999/1" value="0" leadInLength="0/1"  />
               <InterpolatingParam id="3928" interp="linr"  time="-9999999/1" value="0" leadInLength="0/1"  />
              </VectorParam>
              <VectorParam id="3929"  name="scale">
               <InterpolatingParam id="3930" interp="linr"  time="-9999999/1" value="1" leadInLength="0/1"  />
               <InterpolatingParam id="3931" interp="linr"  time="-9999999/1" value="1" leadInLength="0/1"  />
               <InterpolatingParam id="3932" interp="linr"  time="-9999999/1" value="1" leadInLength="0/1"  />
              </VectorParam>
              <VectorParam id="3933"  name="anchor">
               <InterpolatingParam id="3934" interp="linr"  time="0/1" value="0" leadInLength="0/1"  />
               <InterpolatingParam id="3935" interp="linr"  time="0/1" value="0" leadInLength="0/1"  />
               <InterpolatingParam id="3936" interp="linr"  time="0/1" value="0" leadInLength="0/1"  />
              </VectorParam>
             </Transformer>
             <Parameters>
              <VectorParam id="3937"  name="sourceCrop">
               <InterpolatingParam id="3938" interp="linr"  time="0/1" value="0" leadInLength="0/1"  />
               <InterpolatingParam id="3939" interp="linr"  time="0/1" value="0" leadInLength="0/1"  />
               <InterpolatingParam id="3940" interp="linr"  time="0/1" value="0" leadInLength="0/1"  />
               <InterpolatingParam id="3941" interp="linr"  time="0/1" value="0" leadInLength="0/1"  />
              </VectorParam>
              <VectorParam id="3942"  name="geometryCrop">
               <InterpolatingParam id="3943" interp="linr"  time="-9999999/1" value="0" leadInLength="0/1"  />
               <InterpolatingParam id="3944" interp="linr"  time="-9999999/1" value="0" leadInLength="0/1"  />
               <InterpolatingParam id="3945" interp="linr"  time="-9999999/1" value="0" leadInLength="0/1"  />
               <InterpolatingParam id="3946" interp="linr"  time="-9999999/1" value="0" leadInLength="0/1"  />
              </VectorParam>
              <InterpolatingParam id="3947" interp="linr"  time="-9999999/1" value="1" leadInLength="0/1"  name="opacity"/>
             </Parameters>
             <Attributes>
              <Attribute id="3948" value="" name="ident"/>
             </Attributes>
             <ExtraData>
              <Entry key="ZoomPanBin">
               <ZoomPanBin id="3949"  >
                <ZoomPanKeyframes>
                 <ZoomPanKeyframe id="3950" timeRangeEnd="-9999999/1" timeRangeDuration="0/1" interpolaterName="linr"  />
                </ZoomPanKeyframes>
               </ZoomPanBin>
              </Entry>
             </ExtraData>
            </VMFile>
            <MetaData>
             <entry key="WinSubProjectDisplayName" val=""/>
            </MetaData>
           </UnifiedMedia>
          </Medias>
         </GenericTrack>
        </StitchedMedia>
        <StitchedMedia id="3951" start="7160" duration="21" scalar="1098867/943520" mediaStart="3375/104654" mediaDuration="943520/52327" minMediaStart="-5833616625/104654" >
         <Transformer>
          <VectorParam id="3952"  name="translation">
           <InterpolatingParam id="3953" interp="linr"  time="-9999999/1" value="0" leadInLength="0/1"  />
           <InterpolatingParam id="3954" interp="linr"  time="-9999999/1" value="0" leadInLength="0/1"  />
           <InterpolatingParam id="3955" interp="linr"  time="-9999999/1" value="0" leadInLength="0/1"  />
          </VectorParam>
          <VectorParam id="3956"  name="rotation">
           <InterpolatingParam id="3957" interp="linr"  time="-9999999/1" value="0" leadInLength="0/1"  />
           <InterpolatingParam id="3958" interp="linr"  time="-9999999/1" value="0" leadInLength="0/1"  />
           <InterpolatingParam id="3959" interp="linr"  time="-9999999/1" value="0" leadInLength="0/1"  />
          </VectorParam>
          <VectorParam id="3960"  name="shear">
           <InterpolatingParam id="3961" interp="linr"  time="-9999999/1" value="0" leadInLength="0/1"  />
           <InterpolatingParam id="3962" interp="linr"  time="-9999999/1" value="0" leadInLength="0/1"  />
           <InterpolatingParam id="3963" interp="linr"  time="-9999999/1" value="0" leadInLength="0/1"  />
          </VectorParam>
          <VectorParam id="3964"  name="scale">
           <InterpolatingParam id="3965" interp="linr"  time="-9999999/1" value="1" leadInLength="0/1"  />
           <InterpolatingParam id="3966" interp="linr"  time="-9999999/1" value="1" leadInLength="0/1"  />
           <InterpolatingParam id="3967" interp="linr"  time="-9999999/1" value="1" leadInLength="0/1"  />
          </VectorParam>
          <VectorParam id="3968"  name="anchor">
           <InterpolatingParam id="3969" interp="linr"  time="0/1" value="0" leadInLength="0/1"  />
           <InterpolatingParam id="3970" interp="linr"  time="0/1" value="0" leadInLength="0/1"  />
           <InterpolatingParam id="3971" interp="linr"  time="0/1" value="0" leadInLength="0/1"  />
          </VectorParam>
         </Transformer>
         <Parameters>
          <VectorParam id="3972"  name="sourceCrop">
           <InterpolatingParam id="3973" interp="linr"  time="0/1" value="0" leadInLength="0/1"  />
           <InterpolatingParam id="3974" interp="linr"  time="0/1" value="0" leadInLength="0/1"  />
           <InterpolatingParam id="3975" interp="linr"  time="0/1" value="0" leadInLength="0/1"  />
           <InterpolatingParam id="3976" interp="linr"  time="0/1" value="0" leadInLength="0/1"  />
          </VectorParam>
          <VectorParam id="3977"  name="geometryCrop">
           <InterpolatingParam id="3978" interp="linr"  time="-9999999/1" value="0" leadInLength="0/1"  />
           <InterpolatingParam id="3979" interp="linr"  time="-9999999/1" value="0" leadInLength="0/1"  />
           <InterpolatingParam id="3980" interp="linr"  time="-9999999/1" value="0" leadInLength="0/1"  />
           <InterpolatingParam id="3981" interp="linr"  time="-9999999/1" value="0" leadInLength="0/1"  />
          </VectorParam>
          <InterpolatingParam id="3982" interp="linr"  time="-9999999/1" value="1" leadInLength="0/1"  name="opacity"/>
          <InterpolatingParam id="3983" interp="linr"  time="0/1" value="1" leadInLength="0/1"  name="cursorOpacity"/>
          <InterpolatingParam id="3984" interp="linr"  time="0/1" value="1" leadInLength="0/1"  name="cursorScale"/>
          <InterpolatingParam id="3985" interp="linr"  name="volume">
           <Keyframes>
           <Keyframe id="3986"  time="-5833616625/104654" value="0" leadInLength="0/1"  />
           <Keyframe id="3987"  time="143611/9514" value="0" leadInLength="0/1"  />
           <Keyframe id="3988"  time="17/1" value="0" leadInLength="0/1"  />
           </Keyframes>
          </InterpolatingParam>
          <Parameter id="3989"  name="captions"/>
         </Parameters>
         <Attributes>
          <Attribute id="3990" value="" name="ident"/>
          <Attribute id="3991" value="0" name="mixToMono"/>
         </Attributes>
         <MetaData>
          <entry key="WinSubProjectDisplayName" val=""/>
         </MetaData>
         <ExtraData>
          <Entry key="ZoomPanBin">
           <ZoomPanBin id="3992"  >
            <ZoomPanKeyframes>
             <ZoomPanKeyframe id="3993" timeRangeEnd="-9999999/1" timeRangeDuration="0/1" interpolaterName="linr"  />
            </ZoomPanKeyframes>
           </ZoomPanBin>
          </Entry>
          <Entry key="CursorEffectBin">
           <CursorEffectBin id="3994"  >
            <CursorEffectKeyframes>
            </CursorEffectKeyframes>
           </CursorEffectBin>
          </Entry>
         </ExtraData>
         <GenericTrack id="3995"  >
          <Attributes>
           <Attribute id="3996" value="" name="ident"/>
           <Attribute id="3997" value="0" name="audioMuted"/>
           <Attribute id="3998" value="0" name="videoHidden"/>
          </Attributes>
          <MetaData>
           <entry key="IsLocked" val="False"/>
           <entry key="WinTrackHeight" val="0"/>
          </MetaData>
          <Medias>
           <IMFile id="3999" start="-55742" duration="55758" scalar="1/1" mediaStart="6973/1" mediaDuration="1/1" trackNumber="0" src="21" trimStartSum="-55742/1" >
            <Transformer>
             <VectorParam id="4000"  name="translation">
              <InterpolatingParam id="4001" interp="linr"  time="-9999999/1" value="0" leadInLength="0/1"  />
              <InterpolatingParam id="4002" interp="linr"  time="-9999999/1" value="0" leadInLength="0/1"  />
              <InterpolatingParam id="4003" interp="linr"  time="-9999999/1" value="0" leadInLength="0/1"  />
             </VectorParam>
             <VectorParam id="4004"  name="rotation">
              <InterpolatingParam id="4005" interp="linr"  time="-9999999/1" value="0" leadInLength="0/1"  />
              <InterpolatingParam id="4006" interp="linr"  time="-9999999/1" value="0" leadInLength="0/1"  />
              <InterpolatingParam id="4007" interp="linr"  time="-9999999/1" value="0" leadInLength="0/1"  />
             </VectorParam>
             <VectorParam id="4008"  name="shear">
              <InterpolatingParam id="4009" interp="linr"  time="-9999999/1" value="0" leadInLength="0/1"  />
              <InterpolatingParam id="4010" interp="linr"  time="-9999999/1" value="0" leadInLength="0/1"  />
              <InterpolatingParam id="4011" interp="linr"  time="-9999999/1" value="0" leadInLength="0/1"  />
             </VectorParam>
             <VectorParam id="4012"  name="scale">
              <InterpolatingParam id="4013" interp="linr"  time="-9999999/1" value="1" leadInLength="0/1"  />
              <InterpolatingParam id="4014" interp="linr"  time="-9999999/1" value="1" leadInLength="0/1"  />
              <InterpolatingParam id="4015" interp="linr"  time="-9999999/1" value="1" leadInLength="0/1"  />
             </VectorParam>
             <VectorParam id="4016"  name="anchor">
              <InterpolatingParam id="4017" interp="linr"  time="0/1" value="0" leadInLength="0/1"  />
              <InterpolatingParam id="4018" interp="linr"  time="0/1" value="0" leadInLength="0/1"  />
              <InterpolatingParam id="4019" interp="linr"  time="0/1" value="0" leadInLength="0/1"  />
             </VectorParam>
            </Transformer>
            <Parameters>
             <VectorParam id="4020"  name="sourceCrop">
              <InterpolatingParam id="4021" interp="linr"  time="0/1" value="0" leadInLength="0/1"  />
              <InterpolatingParam id="4022" interp="linr"  time="0/1" value="0" leadInLength="0/1"  />
              <InterpolatingParam id="4023" interp="linr"  time="0/1" value="0" leadInLength="0/1"  />
              <InterpolatingParam id="4024" interp="linr"  time="0/1" value="0" leadInLength="0/1"  />
             </VectorParam>
             <VectorParam id="4025"  name="geometryCrop">
              <InterpolatingParam id="4026" interp="linr"  time="-9999999/1" value="0" leadInLength="0/1"  />
              <InterpolatingParam id="4027" interp="linr"  time="-9999999/1" value="0" leadInLength="0/1"  />
              <InterpolatingParam id="4028" interp="linr"  time="-9999999/1" value="0" leadInLength="0/1"  />
              <InterpolatingParam id="4029" interp="linr"  time="-9999999/1" value="0" leadInLength="0/1"  />
             </VectorParam>
             <InterpolatingParam id="4030" interp="linr"  time="-9999999/1" value="1" leadInLength="0/1"  name="opacity"/>
            </Parameters>
            <Attributes>
             <Attribute id="4031" value="" name="ident"/>
            </Attributes>
            <MetaData>
             <entry key="WinSubProjectDisplayName" val=""/>
            </MetaData>
            <ExtraData>
             <Entry key="ZoomPanBin">
              <ZoomPanBin id="4032"  >
               <ZoomPanKeyframes>
                <ZoomPanKeyframe id="4033" timeRangeEnd="-9999999/1" timeRangeDuration="0/1" interpolaterName="linr"  />
               </ZoomPanKeyframes>
              </ZoomPanBin>
             </Entry>
            </ExtraData>
           </IMFile>
           <UnifiedMedia id="4034"  >
            <AMFile id="4035" start="16" duration="1979" scalar="1/1" mediaStart="6973/1" mediaDuration="1979/1" trackNumber="1" src="21" channelNumber="0,1" >
             <Parameters>
              <InterpolatingParam id="4036" interp="linr"  time="0/1" value="1" leadInLength="0/1"  name="volume"/>
              <Parameter id="4037"  name="captions"/>
             </Parameters>
             <Attributes>
              <Attribute id="4038" value="" name="ident"/>
              <Attribute id="4039" value="44100" name="sampleRate"/>
              <Attribute id="4040" value="16" name="bitDepth"/>
              <Attribute id="4041" value="1" name="gain"/>
              <Attribute id="4042" value="0" name="mixToMono"/>
             </Attributes>
            </AMFile>
            <VMFile id="4043" start="16" duration="1979" scalar="1/1" mediaStart="6973/1" mediaDuration="1979/1" trackNumber="0" src="21" >
             <Transformer>
              <VectorParam id="4044"  name="translation">
               <InterpolatingParam id="4045" interp="linr"  time="-9999999/1" value="0" leadInLength="0/1"  />
               <InterpolatingParam id="4046" interp="linr"  time="-9999999/1" value="0" leadInLength="0/1"  />
               <InterpolatingParam id="4047" interp="linr"  time="-9999999/1" value="0" leadInLength="0/1"  />
              </VectorParam>
              <VectorParam id="4048"  name="rotation">
               <InterpolatingParam id="4049" interp="linr"  time="-9999999/1" value="0" leadInLength="0/1"  />
               <InterpolatingParam id="4050" interp="linr"  time="-9999999/1" value="0" leadInLength="0/1"  />
               <InterpolatingParam id="4051" interp="linr"  time="-9999999/1" value="0" leadInLength="0/1"  />
              </VectorParam>
              <VectorParam id="4052"  name="shear">
               <InterpolatingParam id="4053" interp="linr"  time="-9999999/1" value="0" leadInLength="0/1"  />
               <InterpolatingParam id="4054" interp="linr"  time="-9999999/1" value="0" leadInLength="0/1"  />
               <InterpolatingParam id="4055" interp="linr"  time="-9999999/1" value="0" leadInLength="0/1"  />
              </VectorParam>
              <VectorParam id="4056"  name="scale">
               <InterpolatingParam id="4057" interp="linr"  time="-9999999/1" value="1" leadInLength="0/1"  />
               <InterpolatingParam id="4058" interp="linr"  time="-9999999/1" value="1" leadInLength="0/1"  />
               <InterpolatingParam id="4059" interp="linr"  time="-9999999/1" value="1" leadInLength="0/1"  />
              </VectorParam>
              <VectorParam id="4060"  name="anchor">
               <InterpolatingParam id="4061" interp="linr"  time="0/1" value="0" leadInLength="0/1"  />
               <InterpolatingParam id="4062" interp="linr"  time="0/1" value="0" leadInLength="0/1"  />
               <InterpolatingParam id="4063" interp="linr"  time="0/1" value="0" leadInLength="0/1"  />
              </VectorParam>
             </Transformer>
             <Parameters>
              <VectorParam id="4064"  name="sourceCrop">
               <InterpolatingParam id="4065" interp="linr"  time="0/1" value="0" leadInLength="0/1"  />
               <InterpolatingParam id="4066" interp="linr"  time="0/1" value="0" leadInLength="0/1"  />
               <InterpolatingParam id="4067" interp="linr"  time="0/1" value="0" leadInLength="0/1"  />
               <InterpolatingParam id="4068" interp="linr"  time="0/1" value="0" leadInLength="0/1"  />
              </VectorParam>
              <VectorParam id="4069"  name="geometryCrop">
               <InterpolatingParam id="4070" interp="linr"  time="-9999999/1" value="0" leadInLength="0/1"  />
               <InterpolatingParam id="4071" interp="linr"  time="-9999999/1" value="0" leadInLength="0/1"  />
               <InterpolatingParam id="4072" interp="linr"  time="-9999999/1" value="0" leadInLength="0/1"  />
               <InterpolatingParam id="4073" interp="linr"  time="-9999999/1" value="0" leadInLength="0/1"  />
              </VectorParam>
              <InterpolatingParam id="4074" interp="linr"  time="-9999999/1" value="1" leadInLength="0/1"  name="opacity"/>
             </Parameters>
             <Attributes>
              <Attribute id="4075" value="" name="ident"/>
             </Attributes>
             <ExtraData>
              <Entry key="ZoomPanBin">
               <ZoomPanBin id="4076"  >
                <ZoomPanKeyframes>
                 <ZoomPanKeyframe id="4077" timeRangeEnd="-9999999/1" timeRangeDuration="0/1" interpolaterName="linr"  />
                </ZoomPanKeyframes>
               </ZoomPanBin>
              </Entry>
             </ExtraData>
            </VMFile>
            <MetaData>
             <entry key="WinSubProjectDisplayName" val=""/>
            </MetaData>
           </UnifiedMedia>
          </Medias>
         </GenericTrack>
        </StitchedMedia>
        <StitchedMedia id="4078" start="7181" duration="21" scalar="1098867/943520" mediaStart="3375/104654" mediaDuration="943520/52327" minMediaStart="-5833616625/104654" >
         <Transformer>
          <VectorParam id="4079"  name="translation">
           <InterpolatingParam id="4080" interp="linr"  time="-9999999/1" value="-1.1057821325264654e-010" leadInLength="0/1"  />
           <InterpolatingParam id="4081" interp="linr"  time="-9999999/1" value="-9.2938989837421104e-011" leadInLength="0/1"  />
           <InterpolatingParam id="4082" interp="linr"  time="-9999999/1" value="0" leadInLength="0/1"  />
          </VectorParam>
          <VectorParam id="4083"  name="rotation">
           <InterpolatingParam id="4084" interp="linr"  time="-9999999/1" value="0" leadInLength="0/1"  />
           <InterpolatingParam id="4085" interp="linr"  time="-9999999/1" value="0" leadInLength="0/1"  />
           <InterpolatingParam id="4086" interp="linr"  time="-9999999/1" value="0" leadInLength="0/1"  />
          </VectorParam>
          <VectorParam id="4087"  name="shear">
           <InterpolatingParam id="4088" interp="linr"  time="-9999999/1" value="0" leadInLength="0/1"  />
           <InterpolatingParam id="4089" interp="linr"  time="-9999999/1" value="0" leadInLength="0/1"  />
           <InterpolatingParam id="4090" interp="linr"  time="-9999999/1" value="0" leadInLength="0/1"  />
          </VectorParam>
          <VectorParam id="4091"  name="scale">
           <InterpolatingParam id="4092" interp="linr"  time="-9999999/1" value="1" leadInLength="0/1"  />
           <InterpolatingParam id="4093" interp="linr"  time="-9999999/1" value="1" leadInLength="0/1"  />
           <InterpolatingParam id="4094" interp="linr"  time="-9999999/1" value="1" leadInLength="0/1"  />
          </VectorParam>
          <VectorParam id="4095"  name="anchor">
           <InterpolatingParam id="4096" interp="linr"  time="0/1" value="0" leadInLength="0/1"  />
           <InterpolatingParam id="4097" interp="linr"  time="0/1" value="0" leadInLength="0/1"  />
           <InterpolatingParam id="4098" interp="linr"  time="0/1" value="0" leadInLength="0/1"  />
          </VectorParam>
         </Transformer>
         <Parameters>
          <VectorParam id="4099"  name="sourceCrop">
           <InterpolatingParam id="4100" interp="linr"  time="0/1" value="0" leadInLength="0/1"  />
           <InterpolatingParam id="4101" interp="linr"  time="0/1" value="0" leadInLength="0/1"  />
           <InterpolatingParam id="4102" interp="linr"  time="0/1" value="0" leadInLength="0/1"  />
           <InterpolatingParam id="4103" interp="linr"  time="0/1" value="0" leadInLength="0/1"  />
          </VectorParam>
          <VectorParam id="4104"  name="geometryCrop">
           <InterpolatingParam id="4105" interp="linr"  time="-9999999/1" value="0" leadInLength="0/1"  />
           <InterpolatingParam id="4106" interp="linr"  time="-9999999/1" value="0" leadInLength="0/1"  />
           <InterpolatingParam id="4107" interp="linr"  time="-9999999/1" value="0" leadInLength="0/1"  />
           <InterpolatingParam id="4108" interp="linr"  time="-9999999/1" value="0" leadInLength="0/1"  />
          </VectorParam>
          <InterpolatingParam id="4109" interp="linr"  time="-9999999/1" value="1" leadInLength="0/1"  name="opacity"/>
          <InterpolatingParam id="4110" interp="linr"  time="0/1" value="1" leadInLength="0/1"  name="cursorOpacity"/>
          <InterpolatingParam id="4111" interp="linr"  time="0/1" value="1" leadInLength="0/1"  name="cursorScale"/>
          <InterpolatingParam id="4112" interp="linr"  name="volume">
           <Keyframes>
           <Keyframe id="4113"  time="-5833616625/104654" value="0" leadInLength="0/1"  />
           <Keyframe id="4114"  time="143611/9514" value="0" leadInLength="0/1"  />
           <Keyframe id="4115"  time="17/1" value="0" leadInLength="0/1"  />
           </Keyframes>
          </InterpolatingParam>
          <Parameter id="4116"  name="captions"/>
         </Parameters>
         <Attributes>
          <Attribute id="4117" value="" name="ident"/>
          <Attribute id="4118" value="0" name="mixToMono"/>
         </Attributes>
         <MetaData>
          <entry key="WinSubProjectDisplayName" val=""/>
         </MetaData>
         <ExtraData>
          <Entry key="ZoomPanBin">
           <ZoomPanBin id="4119"  >
            <ZoomPanKeyframes>
             <ZoomPanKeyframe id="4120" timeRangeEnd="-9999999/1" timeRangeDuration="0/1" interpolaterName="linr"  />
            </ZoomPanKeyframes>
           </ZoomPanBin>
          </Entry>
          <Entry key="CursorEffectBin">
           <CursorEffectBin id="4121"  >
            <CursorEffectKeyframes>
            </CursorEffectKeyframes>
           </CursorEffectBin>
          </Entry>
         </ExtraData>
         <GenericTrack id="4122"  >
          <Attributes>
           <Attribute id="4123" value="" name="ident"/>
           <Attribute id="4124" value="0" name="audioMuted"/>
           <Attribute id="4125" value="0" name="videoHidden"/>
          </Attributes>
          <MetaData>
           <entry key="IsLocked" val="False"/>
           <entry key="WinTrackHeight" val="0"/>
          </MetaData>
          <Medias>
           <IMFile id="4126" start="-55742" duration="55758" scalar="1/1" mediaStart="6973/1" mediaDuration="1/1" trackNumber="0" src="21" trimStartSum="-55742/1" >
            <Transformer>
             <VectorParam id="4127"  name="translation">
              <InterpolatingParam id="4128" interp="linr"  time="-9999999/1" value="0" leadInLength="0/1"  />
              <InterpolatingParam id="4129" interp="linr"  time="-9999999/1" value="0" leadInLength="0/1"  />
              <InterpolatingParam id="4130" interp="linr"  time="-9999999/1" value="0" leadInLength="0/1"  />
             </VectorParam>
             <VectorParam id="4131"  name="rotation">
              <InterpolatingParam id="4132" interp="linr"  time="-9999999/1" value="0" leadInLength="0/1"  />
              <InterpolatingParam id="4133" interp="linr"  time="-9999999/1" value="0" leadInLength="0/1"  />
              <InterpolatingParam id="4134" interp="linr"  time="-9999999/1" value="0" leadInLength="0/1"  />
             </VectorParam>
             <VectorParam id="4135"  name="shear">
              <InterpolatingParam id="4136" interp="linr"  time="-9999999/1" value="0" leadInLength="0/1"  />
              <InterpolatingParam id="4137" interp="linr"  time="-9999999/1" value="0" leadInLength="0/1"  />
              <InterpolatingParam id="4138" interp="linr"  time="-9999999/1" value="0" leadInLength="0/1"  />
             </VectorParam>
             <VectorParam id="4139"  name="scale">
              <InterpolatingParam id="4140" interp="linr"  time="-9999999/1" value="1" leadInLength="0/1"  />
              <InterpolatingParam id="4141" interp="linr"  time="-9999999/1" value="1" leadInLength="0/1"  />
              <InterpolatingParam id="4142" interp="linr"  time="-9999999/1" value="1" leadInLength="0/1"  />
             </VectorParam>
             <VectorParam id="4143"  name="anchor">
              <InterpolatingParam id="4144" interp="linr"  time="0/1" value="0" leadInLength="0/1"  />
              <InterpolatingParam id="4145" interp="linr"  time="0/1" value="0" leadInLength="0/1"  />
              <InterpolatingParam id="4146" interp="linr"  time="0/1" value="0" leadInLength="0/1"  />
             </VectorParam>
            </Transformer>
            <Parameters>
             <VectorParam id="4147"  name="sourceCrop">
              <InterpolatingParam id="4148" interp="linr"  time="0/1" value="0" leadInLength="0/1"  />
              <InterpolatingParam id="4149" interp="linr"  time="0/1" value="0" leadInLength="0/1"  />
              <InterpolatingParam id="4150" interp="linr"  time="0/1" value="0" leadInLength="0/1"  />
              <InterpolatingParam id="4151" interp="linr"  time="0/1" value="0" leadInLength="0/1"  />
             </VectorParam>
             <VectorParam id="4152"  name="geometryCrop">
              <InterpolatingParam id="4153" interp="linr"  time="-9999999/1" value="0" leadInLength="0/1"  />
              <InterpolatingParam id="4154" interp="linr"  time="-9999999/1" value="0" leadInLength="0/1"  />
              <InterpolatingParam id="4155" interp="linr"  time="-9999999/1" value="0" leadInLength="0/1"  />
              <InterpolatingParam id="4156" interp="linr"  time="-9999999/1" value="0" leadInLength="0/1"  />
             </VectorParam>
             <InterpolatingParam id="4157" interp="linr"  time="-9999999/1" value="1" leadInLength="0/1"  name="opacity"/>
            </Parameters>
            <Attributes>
             <Attribute id="4158" value="" name="ident"/>
            </Attributes>
            <MetaData>
             <entry key="WinSubProjectDisplayName" val=""/>
            </MetaData>
            <ExtraData>
             <Entry key="ZoomPanBin">
              <ZoomPanBin id="4159"  >
               <ZoomPanKeyframes>
                <ZoomPanKeyframe id="4160" timeRangeEnd="-9999999/1" timeRangeDuration="0/1" interpolaterName="linr"  />
               </ZoomPanKeyframes>
              </ZoomPanBin>
             </Entry>
            </ExtraData>
           </IMFile>
           <UnifiedMedia id="4161"  >
            <AMFile id="4162" start="16" duration="1979" scalar="1/1" mediaStart="6973/1" mediaDuration="1979/1" trackNumber="1" src="21" channelNumber="0,1" >
             <Parameters>
              <InterpolatingParam id="4163" interp="linr"  time="0/1" value="1" leadInLength="0/1"  name="volume"/>
              <Parameter id="4164"  name="captions"/>
             </Parameters>
             <Attributes>
              <Attribute id="4165" value="" name="ident"/>
              <Attribute id="4166" value="44100" name="sampleRate"/>
              <Attribute id="4167" value="16" name="bitDepth"/>
              <Attribute id="4168" value="1" name="gain"/>
              <Attribute id="4169" value="0" name="mixToMono"/>
             </Attributes>
            </AMFile>
            <VMFile id="4170" start="16" duration="1979" scalar="1/1" mediaStart="6973/1" mediaDuration="1979/1" trackNumber="0" src="21" >
             <Transformer>
              <VectorParam id="4171"  name="translation">
               <InterpolatingParam id="4172" interp="linr"  time="-9999999/1" value="0" leadInLength="0/1"  />
               <InterpolatingParam id="4173" interp="linr"  time="-9999999/1" value="0" leadInLength="0/1"  />
               <InterpolatingParam id="4174" interp="linr"  time="-9999999/1" value="0" leadInLength="0/1"  />
              </VectorParam>
              <VectorParam id="4175"  name="rotation">
               <InterpolatingParam id="4176" interp="linr"  time="-9999999/1" value="0" leadInLength="0/1"  />
               <InterpolatingParam id="4177" interp="linr"  time="-9999999/1" value="0" leadInLength="0/1"  />
               <InterpolatingParam id="4178" interp="linr"  time="-9999999/1" value="0" leadInLength="0/1"  />
              </VectorParam>
              <VectorParam id="4179"  name="shear">
               <InterpolatingParam id="4180" interp="linr"  time="-9999999/1" value="0" leadInLength="0/1"  />
               <InterpolatingParam id="4181" interp="linr"  time="-9999999/1" value="0" leadInLength="0/1"  />
               <InterpolatingParam id="4182" interp="linr"  time="-9999999/1" value="0" leadInLength="0/1"  />
              </VectorParam>
              <VectorParam id="4183"  name="scale">
               <InterpolatingParam id="4184" interp="linr"  time="-9999999/1" value="1" leadInLength="0/1"  />
               <InterpolatingParam id="4185" interp="linr"  time="-9999999/1" value="1" leadInLength="0/1"  />
               <InterpolatingParam id="4186" interp="linr"  time="-9999999/1" value="1" leadInLength="0/1"  />
              </VectorParam>
              <VectorParam id="4187"  name="anchor">
               <InterpolatingParam id="4188" interp="linr"  time="0/1" value="0" leadInLength="0/1"  />
               <InterpolatingParam id="4189" interp="linr"  time="0/1" value="0" leadInLength="0/1"  />
               <InterpolatingParam id="4190" interp="linr"  time="0/1" value="0" leadInLength="0/1"  />
              </VectorParam>
             </Transformer>
             <Parameters>
              <VectorParam id="4191"  name="sourceCrop">
               <InterpolatingParam id="4192" interp="linr"  time="0/1" value="0" leadInLength="0/1"  />
               <InterpolatingParam id="4193" interp="linr"  time="0/1" value="0" leadInLength="0/1"  />
               <InterpolatingParam id="4194" interp="linr"  time="0/1" value="0" leadInLength="0/1"  />
               <InterpolatingParam id="4195" interp="linr"  time="0/1" value="0" leadInLength="0/1"  />
              </VectorParam>
              <VectorParam id="4196"  name="geometryCrop">
               <InterpolatingParam id="4197" interp="linr"  time="-9999999/1" value="0" leadInLength="0/1"  />
               <InterpolatingParam id="4198" interp="linr"  time="-9999999/1" value="0" leadInLength="0/1"  />
               <InterpolatingParam id="4199" interp="linr"  time="-9999999/1" value="0" leadInLength="0/1"  />
               <InterpolatingParam id="4200" interp="linr"  time="-9999999/1" value="0" leadInLength="0/1"  />
              </VectorParam>
              <InterpolatingParam id="4201" interp="linr"  time="-9999999/1" value="1" leadInLength="0/1"  name="opacity"/>
             </Parameters>
             <Attributes>
              <Attribute id="4202" value="" name="ident"/>
             </Attributes>
             <ExtraData>
              <Entry key="ZoomPanBin">
               <ZoomPanBin id="4203"  >
                <ZoomPanKeyframes>
                 <ZoomPanKeyframe id="4204" timeRangeEnd="-9999999/1" timeRangeDuration="0/1" interpolaterName="linr"  />
                </ZoomPanKeyframes>
               </ZoomPanBin>
              </Entry>
             </ExtraData>
            </VMFile>
            <MetaData>
             <entry key="WinSubProjectDisplayName" val=""/>
            </MetaData>
           </UnifiedMedia>
          </Medias>
         </GenericTrack>
        </StitchedMedia>
        <UnifiedMedia id="4205"  >
         <AMFile id="4206" start="7202" duration="70" scalar="7249295690/9743693469" mediaStart="722245354505/103561367" mediaDuration="9743693469/103561367" trackNumber="1" src="21" channelNumber="0,1" >
          <Parameters>
           <InterpolatingParam id="4207" interp="linr"  name="volume">
            <Keyframes>
            <Keyframe id="4208"  time="-1/1" value="1" leadInLength="0/1"  />
            <Keyframe id="4209"  time="0/1" value="0" leadInLength="0/1"  />
            <Keyframe id="4210"  time="8952/1" value="0" leadInLength="0/1"  />
            <Keyframe id="4211"  time="8953/1" value="1" leadInLength="0/1"  />
            </Keyframes>
           </InterpolatingParam>
           <Parameter id="4212"  name="captions"/>
          </Parameters>
          <Attributes>
           <Attribute id="4213" value="" name="ident"/>
           <Attribute id="4214" value="44100" name="sampleRate"/>
           <Attribute id="4215" value="16" name="bitDepth"/>
           <Attribute id="4216" value="1" name="gain"/>
           <Attribute id="4217" value="0" name="mixToMono"/>
          </Attributes>
         </AMFile>
         <VMFile id="4218" start="7202" duration="70" scalar="7249295690/9743693469" mediaStart="722245354505/103561367" mediaDuration="9743693469/103561367" trackNumber="0" src="21" >
          <Transformer>
           <VectorParam id="4219"  name="translation">
            <InterpolatingParam id="4220" interp="linr"  time="-9999999/1" value="0" leadInLength="0/1"  />
            <InterpolatingParam id="4221" interp="linr"  time="-9999999/1" value="0" leadInLength="0/1"  />
            <InterpolatingParam id="4222" interp="linr"  time="-9999999/1" value="0" leadInLength="0/1"  />
           </VectorParam>
           <VectorParam id="4223"  name="rotation">
            <InterpolatingParam id="4224" interp="linr"  time="-9999999/1" value="0" leadInLength="0/1"  />
            <InterpolatingParam id="4225" interp="linr"  time="-9999999/1" value="0" leadInLength="0/1"  />
            <InterpolatingParam id="4226" interp="linr"  time="-9999999/1" value="0" leadInLength="0/1"  />
           </VectorParam>
           <VectorParam id="4227"  name="shear">
            <InterpolatingParam id="4228" interp="linr"  time="-9999999/1" value="0" leadInLength="0/1"  />
            <InterpolatingParam id="4229" interp="linr"  time="-9999999/1" value="0" leadInLength="0/1"  />
            <InterpolatingParam id="4230" interp="linr"  time="-9999999/1" value="0" leadInLength="0/1"  />
           </VectorParam>
           <VectorParam id="4231"  name="scale">
            <InterpolatingParam id="4232" interp="linr"  time="-9999999/1" value="1" leadInLength="0/1"  />
            <InterpolatingParam id="4233" interp="linr"  time="-9999999/1" value="1" leadInLength="0/1"  />
            <InterpolatingParam id="4234" interp="linr"  time="-9999999/1" value="1" leadInLength="0/1"  />
           </VectorParam>
           <VectorParam id="4235"  name="anchor">
            <InterpolatingParam id="4236" interp="linr"  time="0/1" value="0" leadInLength="0/1"  />
            <InterpolatingParam id="4237" interp="linr"  time="0/1" value="0" leadInLength="0/1"  />
            <InterpolatingParam id="4238" interp="linr"  time="0/1" value="0" leadInLength="0/1"  />
           </VectorParam>
          </Transformer>
          <Parameters>
           <VectorParam id="4239"  name="sourceCrop">
            <InterpolatingParam id="4240" interp="linr"  time="0/1" value="0" leadInLength="0/1"  />
            <InterpolatingParam id="4241" interp="linr"  time="0/1" value="0" leadInLength="0/1"  />
            <InterpolatingParam id="4242" interp="linr"  time="0/1" value="0" leadInLength="0/1"  />
            <InterpolatingParam id="4243" interp="linr"  time="0/1" value="0" leadInLength="0/1"  />
           </VectorParam>
           <VectorParam id="4244"  name="geometryCrop">
            <InterpolatingParam id="4245" interp="linr"  time="-9999999/1" value="0" leadInLength="0/1"  />
            <InterpolatingParam id="4246" interp="linr"  time="-9999999/1" value="0" leadInLength="0/1"  />
            <InterpolatingParam id="4247" interp="linr"  time="-9999999/1" value="0" leadInLength="0/1"  />
            <InterpolatingParam id="4248" interp="linr"  time="-9999999/1" value="0" leadInLength="0/1"  />
           </VectorParam>
           <InterpolatingParam id="4249" interp="linr"  time="-9999999/1" value="1" leadInLength="0/1"  name="opacity"/>
          </Parameters>
          <Attributes>
           <Attribute id="4250" value="" name="ident"/>
          </Attributes>
          <ExtraData>
           <Entry key="ZoomPanBin">
            <ZoomPanBin id="4251"  >
             <ZoomPanKeyframes>
              <ZoomPanKeyframe id="4252" timeRangeEnd="-9999999/1" timeRangeDuration="0/1" interpolaterName="linr"  />
             </ZoomPanKeyframes>
            </ZoomPanBin>
           </Entry>
          </ExtraData>
         </VMFile>
         <MetaData>
          <entry key="WinSubProjectDisplayName" val=""/>
         </MetaData>
        </UnifiedMedia>
        <UnifiedMedia id="4253"  >
         <AMFile id="4254" start="7272" duration="87" scalar="219752169/299886190" mediaStart="17853391414/2525887" mediaDuration="299886190/2525887" trackNumber="1" src="21" channelNumber="0,1" >
          <Parameters>
           <InterpolatingParam id="4255" interp="linr"  name="volume">
            <Keyframes>
            <Keyframe id="4256"  time="-1/1" value="1" leadInLength="0/1"  />
            <Keyframe id="4257"  time="0/1" value="0" leadInLength="0/1"  />
            <Keyframe id="4258"  time="8952/1" value="0" leadInLength="0/1"  />
            <Keyframe id="4259"  time="8953/1" value="1" leadInLength="0/1"  />
            </Keyframes>
           </InterpolatingParam>
           <Parameter id="4260"  name="captions"/>
          </Parameters>
          <Attributes>
           <Attribute id="4261" value="" name="ident"/>
           <Attribute id="4262" value="44100" name="sampleRate"/>
           <Attribute id="4263" value="16" name="bitDepth"/>
           <Attribute id="4264" value="1" name="gain"/>
           <Attribute id="4265" value="0" name="mixToMono"/>
          </Attributes>
         </AMFile>
         <VMFile id="4266" start="7272" duration="87" scalar="219752169/299886190" mediaStart="17853391414/2525887" mediaDuration="299886190/2525887" trackNumber="0" src="21" >
          <Transformer>
           <VectorParam id="4267"  name="translation">
            <InterpolatingParam id="4268" interp="linr"  time="-9999999/1" value="0" leadInLength="0/1"  />
            <InterpolatingParam id="4269" interp="linr"  time="-9999999/1" value="0" leadInLength="0/1"  />
            <InterpolatingParam id="4270" interp="linr"  time="-9999999/1" value="0" leadInLength="0/1"  />
           </VectorParam>
           <VectorParam id="4271"  name="rotation">
            <InterpolatingParam id="4272" interp="linr"  time="-9999999/1" value="0" leadInLength="0/1"  />
            <InterpolatingParam id="4273" interp="linr"  time="-9999999/1" value="0" leadInLength="0/1"  />
            <InterpolatingParam id="4274" interp="linr"  time="-9999999/1" value="0" leadInLength="0/1"  />
           </VectorParam>
           <VectorParam id="4275"  name="shear">
            <InterpolatingParam id="4276" interp="linr"  time="-9999999/1" value="0" leadInLength="0/1"  />
            <InterpolatingParam id="4277" interp="linr"  time="-9999999/1" value="0" leadInLength="0/1"  />
            <InterpolatingParam id="4278" interp="linr"  time="-9999999/1" value="0" leadInLength="0/1"  />
           </VectorParam>
           <VectorParam id="4279"  name="scale">
            <InterpolatingParam id="4280" interp="linr"  time="-9999999/1" value="1" leadInLength="0/1"  />
            <InterpolatingParam id="4281" interp="linr"  time="-9999999/1" value="1" leadInLength="0/1"  />
            <InterpolatingParam id="4282" interp="linr"  time="-9999999/1" value="1" leadInLength="0/1"  />
           </VectorParam>
           <VectorParam id="4283"  name="anchor">
            <InterpolatingParam id="4284" interp="linr"  time="0/1" value="0" leadInLength="0/1"  />
            <InterpolatingParam id="4285" interp="linr"  time="0/1" value="0" leadInLength="0/1"  />
            <InterpolatingParam id="4286" interp="linr"  time="0/1" value="0" leadInLength="0/1"  />
           </VectorParam>
          </Transformer>
          <Parameters>
           <VectorParam id="4287"  name="sourceCrop">
            <InterpolatingParam id="4288" interp="linr"  time="0/1" value="0" leadInLength="0/1"  />
            <InterpolatingParam id="4289" interp="linr"  time="0/1" value="0" leadInLength="0/1"  />
            <InterpolatingParam id="4290" interp="linr"  time="0/1" value="0" leadInLength="0/1"  />
            <InterpolatingParam id="4291" interp="linr"  time="0/1" value="0" leadInLength="0/1"  />
           </VectorParam>
           <VectorParam id="4292"  name="geometryCrop">
            <InterpolatingParam id="4293" interp="linr"  time="-9999999/1" value="0" leadInLength="0/1"  />
            <InterpolatingParam id="4294" interp="linr"  time="-9999999/1" value="0" leadInLength="0/1"  />
            <InterpolatingParam id="4295" interp="linr"  time="-9999999/1" value="0" leadInLength="0/1"  />
            <InterpolatingParam id="4296" interp="linr"  time="-9999999/1" value="0" leadInLength="0/1"  />
           </VectorParam>
           <InterpolatingParam id="4297" interp="linr"  time="-9999999/1" value="1" leadInLength="0/1"  name="opacity"/>
          </Parameters>
          <Attributes>
           <Attribute id="4298" value="" name="ident"/>
          </Attributes>
          <ExtraData>
           <Entry key="ZoomPanBin">
            <ZoomPanBin id="4299"  >
             <ZoomPanKeyframes>
              <ZoomPanKeyframe id="4300" timeRangeEnd="-9999999/1" timeRangeDuration="0/1" interpolaterName="linr"  />
             </ZoomPanKeyframes>
            </ZoomPanBin>
           </Entry>
          </ExtraData>
         </VMFile>
         <MetaData>
          <entry key="WinSubProjectDisplayName" val=""/>
         </MetaData>
        </UnifiedMedia>
        <UnifiedMedia id="4301"  >
         <AMFile id="4302" start="7359" duration="215" scalar="497153378683/577696005390" mediaStart="464521381288/64590539" mediaDuration="2888480026950/11561706481" trackNumber="1" src="21" channelNumber="0,1" >
          <Parameters>
           <InterpolatingParam id="4303" interp="linr"  name="volume">
            <Keyframes>
            <Keyframe id="4304"  time="-1/1" value="1" leadInLength="0/1"  />
            <Keyframe id="4305"  time="0/1" value="0" leadInLength="0/1"  />
            <Keyframe id="4306"  time="8952/1" value="0" leadInLength="0/1"  />
            <Keyframe id="4307"  time="8953/1" value="1" leadInLength="0/1"  />
            </Keyframes>
           </InterpolatingParam>
           <Parameter id="4308"  name="captions"/>
          </Parameters>
          <Attributes>
           <Attribute id="4309" value="" name="ident"/>
           <Attribute id="4310" value="44100" name="sampleRate"/>
           <Attribute id="4311" value="16" name="bitDepth"/>
           <Attribute id="4312" value="1" name="gain"/>
           <Attribute id="4313" value="0" name="mixToMono"/>
          </Attributes>
         </AMFile>
         <VMFile id="4314" start="7359" duration="215" scalar="497153378683/577696005390" mediaStart="464521381288/64590539" mediaDuration="2888480026950/11561706481" trackNumber="0" src="21" >
          <Transformer>
           <VectorParam id="4315"  name="translation">
            <InterpolatingParam id="4316" interp="linr"  time="-9999999/1" value="-3.5815794774405611e-011" leadInLength="0/1"  />
            <InterpolatingParam id="4317" interp="linr"  time="-9999999/1" value="1.0913936421275139e-011" leadInLength="0/1"  />
            <InterpolatingParam id="4318" interp="linr"  time="-9999999/1" value="0" leadInLength="0/1"  />
           </VectorParam>
           <VectorParam id="4319"  name="rotation">
            <InterpolatingParam id="4320" interp="linr"  time="-9999999/1" value="0" leadInLength="0/1"  />
            <InterpolatingParam id="4321" interp="linr"  time="-9999999/1" value="0" leadInLength="0/1"  />
            <InterpolatingParam id="4322" interp="linr"  time="-9999999/1" value="0" leadInLength="0/1"  />
           </VectorParam>
           <VectorParam id="4323"  name="shear">
            <InterpolatingParam id="4324" interp="linr"  time="-9999999/1" value="0" leadInLength="0/1"  />
            <InterpolatingParam id="4325" interp="linr"  time="-9999999/1" value="0" leadInLength="0/1"  />
            <InterpolatingParam id="4326" interp="linr"  time="-9999999/1" value="0" leadInLength="0/1"  />
           </VectorParam>
           <VectorParam id="4327"  name="scale">
            <InterpolatingParam id="4328" interp="linr"  time="-9999999/1" value="1" leadInLength="0/1"  />
            <InterpolatingParam id="4329" interp="linr"  time="-9999999/1" value="1" leadInLength="0/1"  />
            <InterpolatingParam id="4330" interp="linr"  time="-9999999/1" value="1" leadInLength="0/1"  />
           </VectorParam>
           <VectorParam id="4331"  name="anchor">
            <InterpolatingParam id="4332" interp="linr"  time="0/1" value="0" leadInLength="0/1"  />
            <InterpolatingParam id="4333" interp="linr"  time="0/1" value="0" leadInLength="0/1"  />
            <InterpolatingParam id="4334" interp="linr"  time="0/1" value="0" leadInLength="0/1"  />
           </VectorParam>
          </Transformer>
          <Parameters>
           <VectorParam id="4335"  name="sourceCrop">
            <InterpolatingParam id="4336" interp="linr"  time="0/1" value="0" leadInLength="0/1"  />
            <InterpolatingParam id="4337" interp="linr"  time="0/1" value="0" leadInLength="0/1"  />
            <InterpolatingParam id="4338" interp="linr"  time="0/1" value="0" leadInLength="0/1"  />
            <InterpolatingParam id="4339" interp="linr"  time="0/1" value="0" leadInLength="0/1"  />
           </VectorParam>
           <VectorParam id="4340"  name="geometryCrop">
            <InterpolatingParam id="4341" interp="linr"  time="-9999999/1" value="0" leadInLength="0/1"  />
            <InterpolatingParam id="4342" interp="linr"  time="-9999999/1" value="0" leadInLength="0/1"  />
            <InterpolatingParam id="4343" interp="linr"  time="-9999999/1" value="0" leadInLength="0/1"  />
            <InterpolatingParam id="4344" interp="linr"  time="-9999999/1" value="0" leadInLength="0/1"  />
           </VectorParam>
           <InterpolatingParam id="4345" interp="linr"  time="-9999999/1" value="1" leadInLength="0/1"  name="opacity"/>
          </Parameters>
          <Attributes>
           <Attribute id="4346" value="" name="ident"/>
          </Attributes>
          <ExtraData>
           <Entry key="ZoomPanBin">
            <ZoomPanBin id="4347"  >
             <ZoomPanKeyframes>
              <ZoomPanKeyframe id="4348" timeRangeEnd="-9999999/1" timeRangeDuration="0/1" interpolaterName="linr"  />
             </ZoomPanKeyframes>
            </ZoomPanBin>
           </Entry>
          </ExtraData>
         </VMFile>
         <MetaData>
          <entry key="WinSubProjectDisplayName" val=""/>
         </MetaData>
        </UnifiedMedia>
        <UnifiedMedia id="4349"  >
         <AMFile id="4350" start="7574" duration="143" scalar="11561706481/14228965650" mediaStart="86208554865302/11561706481" mediaDuration="156518622150/889362037" trackNumber="1" src="21" channelNumber="0,1" >
          <Parameters>
           <InterpolatingParam id="4351" interp="linr"  name="volume">
            <Keyframes>
            <Keyframe id="4352"  time="-1/1" value="1" leadInLength="0/1"  />
            <Keyframe id="4353"  time="0/1" value="0" leadInLength="0/1"  />
            <Keyframe id="4354"  time="8952/1" value="0" leadInLength="0/1"  />
            <Keyframe id="4355"  time="8953/1" value="1" leadInLength="0/1"  />
            </Keyframes>
           </InterpolatingParam>
           <Parameter id="4356"  name="captions"/>
          </Parameters>
          <Attributes>
           <Attribute id="4357" value="" name="ident"/>
           <Attribute id="4358" value="44100" name="sampleRate"/>
           <Attribute id="4359" value="16" name="bitDepth"/>
           <Attribute id="4360" value="1" name="gain"/>
           <Attribute id="4361" value="0" name="mixToMono"/>
          </Attributes>
         </AMFile>
         <VMFile id="4362" start="7574" duration="143" scalar="11561706481/14228965650" mediaStart="86208554865302/11561706481" mediaDuration="156518622150/889362037" trackNumber="0" src="21" >
          <Transformer>
           <VectorParam id="4363"  name="translation">
            <InterpolatingParam id="4364" interp="linr"  time="-9999999/1" value="0" leadInLength="0/1"  />
            <InterpolatingParam id="4365" interp="linr"  time="-9999999/1" value="0" leadInLength="0/1"  />
            <InterpolatingParam id="4366" interp="linr"  time="-9999999/1" value="0" leadInLength="0/1"  />
           </VectorParam>
           <VectorParam id="4367"  name="rotation">
            <InterpolatingParam id="4368" interp="linr"  time="-9999999/1" value="0" leadInLength="0/1"  />
            <InterpolatingParam id="4369" interp="linr"  time="-9999999/1" value="0" leadInLength="0/1"  />
            <InterpolatingParam id="4370" interp="linr"  time="-9999999/1" value="0" leadInLength="0/1"  />
           </VectorParam>
           <VectorParam id="4371"  name="shear">
            <InterpolatingParam id="4372" interp="linr"  time="-9999999/1" value="0" leadInLength="0/1"  />
            <InterpolatingParam id="4373" interp="linr"  time="-9999999/1" value="0" leadInLength="0/1"  />
            <InterpolatingParam id="4374" interp="linr"  time="-9999999/1" value="0" leadInLength="0/1"  />
           </VectorParam>
           <VectorParam id="4375"  name="scale">
            <InterpolatingParam id="4376" interp="linr"  time="-9999999/1" value="1" leadInLength="0/1"  />
            <InterpolatingParam id="4377" interp="linr"  time="-9999999/1" value="1" leadInLength="0/1"  />
            <InterpolatingParam id="4378" interp="linr"  time="-9999999/1" value="1" leadInLength="0/1"  />
           </VectorParam>
           <VectorParam id="4379"  name="anchor">
            <InterpolatingParam id="4380" interp="linr"  time="0/1" value="0" leadInLength="0/1"  />
            <InterpolatingParam id="4381" interp="linr"  time="0/1" value="0" leadInLength="0/1"  />
            <InterpolatingParam id="4382" interp="linr"  time="0/1" value="0" leadInLength="0/1"  />
           </VectorParam>
          </Transformer>
          <Parameters>
           <VectorParam id="4383"  name="sourceCrop">
            <InterpolatingParam id="4384" interp="linr"  time="0/1" value="0" leadInLength="0/1"  />
            <InterpolatingParam id="4385" interp="linr"  time="0/1" value="0" leadInLength="0/1"  />
            <InterpolatingParam id="4386" interp="linr"  time="0/1" value="0" leadInLength="0/1"  />
            <InterpolatingParam id="4387" interp="linr"  time="0/1" value="0" leadInLength="0/1"  />
           </VectorParam>
           <VectorParam id="4388"  name="geometryCrop">
            <InterpolatingParam id="4389" interp="linr"  time="-9999999/1" value="0" leadInLength="0/1"  />
            <InterpolatingParam id="4390" interp="linr"  time="-9999999/1" value="0" leadInLength="0/1"  />
            <InterpolatingParam id="4391" interp="linr"  time="-9999999/1" value="0" leadInLength="0/1"  />
            <InterpolatingParam id="4392" interp="linr"  time="-9999999/1" value="0" leadInLength="0/1"  />
           </VectorParam>
           <InterpolatingParam id="4393" interp="linr"  time="-9999999/1" value="1" leadInLength="0/1"  name="opacity"/>
          </Parameters>
          <Attributes>
           <Attribute id="4394" value="" name="ident"/>
          </Attributes>
          <ExtraData>
           <Entry key="ZoomPanBin">
            <ZoomPanBin id="4395"  >
             <ZoomPanKeyframes>
              <ZoomPanKeyframe id="4396" timeRangeEnd="-9999999/1" timeRangeDuration="0/1" interpolaterName="linr"  />
             </ZoomPanKeyframes>
            </ZoomPanBin>
           </Entry>
          </ExtraData>
         </VMFile>
         <MetaData>
          <entry key="WinSubProjectDisplayName" val=""/>
         </MetaData>
        </UnifiedMedia>
        <UnifiedMedia id="4397"  >
         <AMFile id="4398" start="7717" duration="49" scalar="360841/643670" mediaStart="2754074372/360841" mediaDuration="31539830/360841" trackNumber="1" src="21" channelNumber="0,1" >
          <Parameters>
           <InterpolatingParam id="4399" interp="linr"  name="volume">
            <Keyframes>
            <Keyframe id="4400"  time="-1/1" value="1" leadInLength="0/1"  />
            <Keyframe id="4401"  time="0/1" value="0" leadInLength="0/1"  />
            <Keyframe id="4402"  time="8952/1" value="0" leadInLength="0/1"  />
            <Keyframe id="4403"  time="8953/1" value="1" leadInLength="0/1"  />
            </Keyframes>
           </InterpolatingParam>
           <Parameter id="4404"  name="captions"/>
          </Parameters>
          <Attributes>
           <Attribute id="4405" value="" name="ident"/>
           <Attribute id="4406" value="44100" name="sampleRate"/>
           <Attribute id="4407" value="16" name="bitDepth"/>
           <Attribute id="4408" value="1" name="gain"/>
           <Attribute id="4409" value="0" name="mixToMono"/>
          </Attributes>
         </AMFile>
         <VMFile id="4410" start="7717" duration="49" scalar="360841/643670" mediaStart="2754074372/360841" mediaDuration="31539830/360841" trackNumber="0" src="21" >
          <Transformer>
           <VectorParam id="4411"  name="translation">
            <InterpolatingParam id="4412" interp="linr"  time="-9999999/1" value="0" leadInLength="0/1"  />
            <InterpolatingParam id="4413" interp="linr"  time="-9999999/1" value="0" leadInLength="0/1"  />
            <InterpolatingParam id="4414" interp="linr"  time="-9999999/1" value="0" leadInLength="0/1"  />
           </VectorParam>
           <VectorParam id="4415"  name="rotation">
            <InterpolatingParam id="4416" interp="linr"  time="-9999999/1" value="0" leadInLength="0/1"  />
            <InterpolatingParam id="4417" interp="linr"  time="-9999999/1" value="0" leadInLength="0/1"  />
            <InterpolatingParam id="4418" interp="linr"  time="-9999999/1" value="0" leadInLength="0/1"  />
           </VectorParam>
           <VectorParam id="4419"  name="shear">
            <InterpolatingParam id="4420" interp="linr"  time="-9999999/1" value="0" leadInLength="0/1"  />
            <InterpolatingParam id="4421" interp="linr"  time="-9999999/1" value="0" leadInLength="0/1"  />
            <InterpolatingParam id="4422" interp="linr"  time="-9999999/1" value="0" leadInLength="0/1"  />
           </VectorParam>
           <VectorParam id="4423"  name="scale">
            <InterpolatingParam id="4424" interp="linr"  time="-9999999/1" value="1" leadInLength="0/1"  />
            <InterpolatingParam id="4425" interp="linr"  time="-9999999/1" value="1" leadInLength="0/1"  />
            <InterpolatingParam id="4426" interp="linr"  time="-9999999/1" value="1" leadInLength="0/1"  />
           </VectorParam>
           <VectorParam id="4427"  name="anchor">
            <InterpolatingParam id="4428" interp="linr"  time="0/1" value="0" leadInLength="0/1"  />
            <InterpolatingParam id="4429" interp="linr"  time="0/1" value="0" leadInLength="0/1"  />
            <InterpolatingParam id="4430" interp="linr"  time="0/1" value="0" leadInLength="0/1"  />
           </VectorParam>
          </Transformer>
          <Parameters>
           <VectorParam id="4431"  name="sourceCrop">
            <InterpolatingParam id="4432" interp="linr"  time="0/1" value="0" leadInLength="0/1"  />
            <InterpolatingParam id="4433" interp="linr"  time="0/1" value="0" leadInLength="0/1"  />
            <InterpolatingParam id="4434" interp="linr"  time="0/1" value="0" leadInLength="0/1"  />
            <InterpolatingParam id="4435" interp="linr"  time="0/1" value="0" leadInLength="0/1"  />
           </VectorParam>
           <VectorParam id="4436"  name="geometryCrop">
            <InterpolatingParam id="4437" interp="linr"  time="-9999999/1" value="0" leadInLength="0/1"  />
            <InterpolatingParam id="4438" interp="linr"  time="-9999999/1" value="0" leadInLength="0/1"  />
            <InterpolatingParam id="4439" interp="linr"  time="-9999999/1" value="0" leadInLength="0/1"  />
            <InterpolatingParam id="4440" interp="linr"  time="-9999999/1" value="0" leadInLength="0/1"  />
           </VectorParam>
           <InterpolatingParam id="4441" interp="linr"  time="-9999999/1" value="1" leadInLength="0/1"  name="opacity"/>
          </Parameters>
          <Attributes>
           <Attribute id="4442" value="" name="ident"/>
          </Attributes>
          <ExtraData>
           <Entry key="ZoomPanBin">
            <ZoomPanBin id="4443"  >
             <ZoomPanKeyframes>
              <ZoomPanKeyframe id="4444" timeRangeEnd="-9999999/1" timeRangeDuration="0/1" interpolaterName="linr"  />
             </ZoomPanKeyframes>
            </ZoomPanBin>
           </Entry>
          </ExtraData>
         </VMFile>
         <MetaData>
          <entry key="WinSubProjectDisplayName" val=""/>
         </MetaData>
        </UnifiedMedia>
        <UnifiedMedia id="4445"  >
         <AMFile id="4446" start="7766" duration="65" scalar="4690933/4634424" mediaStart="2804280632/360841" mediaDuration="23172120/360841" trackNumber="1" src="21" channelNumber="0,1" >
          <Parameters>
           <InterpolatingParam id="4447" interp="linr"  name="volume">
            <Keyframes>
            <Keyframe id="4448"  time="-1/1" value="1" leadInLength="0/1"  />
            <Keyframe id="4449"  time="0/1" value="0" leadInLength="0/1"  />
            <Keyframe id="4450"  time="8952/1" value="0" leadInLength="0/1"  />
            <Keyframe id="4451"  time="8953/1" value="1" leadInLength="0/1"  />
            </Keyframes>
           </InterpolatingParam>
           <Parameter id="4452"  name="captions"/>
          </Parameters>
          <Attributes>
           <Attribute id="4453" value="" name="ident"/>
           <Attribute id="4454" value="44100" name="sampleRate"/>
           <Attribute id="4455" value="16" name="bitDepth"/>
           <Attribute id="4456" value="1" name="gain"/>
           <Attribute id="4457" value="0" name="mixToMono"/>
          </Attributes>
         </AMFile>
         <VMFile id="4458" start="7766" duration="65" scalar="4690933/4634424" mediaStart="2804280632/360841" mediaDuration="23172120/360841" trackNumber="0" src="21" >
          <Transformer>
           <VectorParam id="4459"  name="translation">
            <InterpolatingParam id="4460" interp="linr"  time="-9999999/1" value="0" leadInLength="0/1"  />
            <InterpolatingParam id="4461" interp="linr"  time="-9999999/1" value="0" leadInLength="0/1"  />
            <InterpolatingParam id="4462" interp="linr"  time="-9999999/1" value="0" leadInLength="0/1"  />
           </VectorParam>
           <VectorParam id="4463"  name="rotation">
            <InterpolatingParam id="4464" interp="linr"  time="-9999999/1" value="0" leadInLength="0/1"  />
            <InterpolatingParam id="4465" interp="linr"  time="-9999999/1" value="0" leadInLength="0/1"  />
            <InterpolatingParam id="4466" interp="linr"  time="-9999999/1" value="0" leadInLength="0/1"  />
           </VectorParam>
           <VectorParam id="4467"  name="shear">
            <InterpolatingParam id="4468" interp="linr"  time="-9999999/1" value="0" leadInLength="0/1"  />
            <InterpolatingParam id="4469" interp="linr"  time="-9999999/1" value="0" leadInLength="0/1"  />
            <InterpolatingParam id="4470" interp="linr"  time="-9999999/1" value="0" leadInLength="0/1"  />
           </VectorParam>
           <VectorParam id="4471"  name="scale">
            <InterpolatingParam id="4472" interp="linr"  time="-9999999/1" value="1" leadInLength="0/1"  />
            <InterpolatingParam id="4473" interp="linr"  time="-9999999/1" value="1" leadInLength="0/1"  />
            <InterpolatingParam id="4474" interp="linr"  time="-9999999/1" value="1" leadInLength="0/1"  />
           </VectorParam>
           <VectorParam id="4475"  name="anchor">
            <InterpolatingParam id="4476" interp="linr"  time="0/1" value="0" leadInLength="0/1"  />
            <InterpolatingParam id="4477" interp="linr"  time="0/1" value="0" leadInLength="0/1"  />
            <InterpolatingParam id="4478" interp="linr"  time="0/1" value="0" leadInLength="0/1"  />
           </VectorParam>
          </Transformer>
          <Parameters>
           <VectorParam id="4479"  name="sourceCrop">
            <InterpolatingParam id="4480" interp="linr"  time="0/1" value="0" leadInLength="0/1"  />
            <InterpolatingParam id="4481" interp="linr"  time="0/1" value="0" leadInLength="0/1"  />
            <InterpolatingParam id="4482" interp="linr"  time="0/1" value="0" leadInLength="0/1"  />
            <InterpolatingParam id="4483" interp="linr"  time="0/1" value="0" leadInLength="0/1"  />
           </VectorParam>
           <VectorParam id="4484"  name="geometryCrop">
            <InterpolatingParam id="4485" interp="linr"  time="-9999999/1" value="0" leadInLength="0/1"  />
            <InterpolatingParam id="4486" interp="linr"  time="-9999999/1" value="0" leadInLength="0/1"  />
            <InterpolatingParam id="4487" interp="linr"  time="-9999999/1" value="0" leadInLength="0/1"  />
            <InterpolatingParam id="4488" interp="linr"  time="-9999999/1" value="0" leadInLength="0/1"  />
           </VectorParam>
           <InterpolatingParam id="4489" interp="linr"  time="-9999999/1" value="1" leadInLength="0/1"  name="opacity"/>
          </Parameters>
          <Attributes>
           <Attribute id="4490" value="" name="ident"/>
          </Attributes>
          <ExtraData>
           <Entry key="ZoomPanBin">
            <ZoomPanBin id="4491"  >
             <ZoomPanKeyframes>
              <ZoomPanKeyframe id="4492" timeRangeEnd="-9999999/1" timeRangeDuration="0/1" interpolaterName="linr"  />
             </ZoomPanKeyframes>
            </ZoomPanBin>
           </Entry>
          </ExtraData>
         </VMFile>
         <MetaData>
          <entry key="WinSubProjectDisplayName" val=""/>
         </MetaData>
        </UnifiedMedia>
        <UnifiedMedia id="4493"  >
         <AMFile id="4494" start="7831" duration="44" scalar="360841/643670" mediaStart="2827452752/360841" mediaDuration="28321480/360841" trackNumber="1" src="21" channelNumber="0,1" >
          <Parameters>
           <InterpolatingParam id="4495" interp="linr"  name="volume">
            <Keyframes>
            <Keyframe id="4496"  time="-1/1" value="1" leadInLength="0/1"  />
            <Keyframe id="4497"  time="0/1" value="0" leadInLength="0/1"  />
            <Keyframe id="4498"  time="8952/1" value="0" leadInLength="0/1"  />
            <Keyframe id="4499"  time="8953/1" value="1" leadInLength="0/1"  />
            </Keyframes>
           </InterpolatingParam>
           <Parameter id="4500"  name="captions"/>
          </Parameters>
          <Attributes>
           <Attribute id="4501" value="" name="ident"/>
           <Attribute id="4502" value="44100" name="sampleRate"/>
           <Attribute id="4503" value="16" name="bitDepth"/>
           <Attribute id="4504" value="1" name="gain"/>
           <Attribute id="4505" value="0" name="mixToMono"/>
          </Attributes>
         </AMFile>
         <VMFile id="4506" start="7831" duration="44" scalar="360841/643670" mediaStart="2827452752/360841" mediaDuration="28321480/360841" trackNumber="0" src="21" >
          <Transformer>
           <VectorParam id="4507"  name="translation">
            <InterpolatingParam id="4508" interp="linr"  time="-9999999/1" value="0" leadInLength="0/1"  />
            <InterpolatingParam id="4509" interp="linr"  time="-9999999/1" value="0" leadInLength="0/1"  />
            <InterpolatingParam id="4510" interp="linr"  time="-9999999/1" value="0" leadInLength="0/1"  />
           </VectorParam>
           <VectorParam id="4511"  name="rotation">
            <InterpolatingParam id="4512" interp="linr"  time="-9999999/1" value="0" leadInLength="0/1"  />
            <InterpolatingParam id="4513" interp="linr"  time="-9999999/1" value="0" leadInLength="0/1"  />
            <InterpolatingParam id="4514" interp="linr"  time="-9999999/1" value="0" leadInLength="0/1"  />
           </VectorParam>
           <VectorParam id="4515"  name="shear">
            <InterpolatingParam id="4516" interp="linr"  time="-9999999/1" value="0" leadInLength="0/1"  />
            <InterpolatingParam id="4517" interp="linr"  time="-9999999/1" value="0" leadInLength="0/1"  />
            <InterpolatingParam id="4518" interp="linr"  time="-9999999/1" value="0" leadInLength="0/1"  />
           </VectorParam>
           <VectorParam id="4519"  name="scale">
            <InterpolatingParam id="4520" interp="linr"  time="-9999999/1" value="1" leadInLength="0/1"  />
            <InterpolatingParam id="4521" interp="linr"  time="-9999999/1" value="1" leadInLength="0/1"  />
            <InterpolatingParam id="4522" interp="linr"  time="-9999999/1" value="1" leadInLength="0/1"  />
           </VectorParam>
           <VectorParam id="4523"  name="anchor">
            <InterpolatingParam id="4524" interp="linr"  time="0/1" value="0" leadInLength="0/1"  />
            <InterpolatingParam id="4525" interp="linr"  time="0/1" value="0" leadInLength="0/1"  />
            <InterpolatingParam id="4526" interp="linr"  time="0/1" value="0" leadInLength="0/1"  />
           </VectorParam>
          </Transformer>
          <Parameters>
           <VectorParam id="4527"  name="sourceCrop">
            <InterpolatingParam id="4528" interp="linr"  time="0/1" value="0" leadInLength="0/1"  />
            <InterpolatingParam id="4529" interp="linr"  time="0/1" value="0" leadInLength="0/1"  />
            <InterpolatingParam id="4530" interp="linr"  time="0/1" value="0" leadInLength="0/1"  />
            <InterpolatingParam id="4531" interp="linr"  time="0/1" value="0" leadInLength="0/1"  />
           </VectorParam>
           <VectorParam id="4532"  name="geometryCrop">
            <InterpolatingParam id="4533" interp="linr"  time="-9999999/1" value="0" leadInLength="0/1"  />
            <InterpolatingParam id="4534" interp="linr"  time="-9999999/1" value="0" leadInLength="0/1"  />
            <InterpolatingParam id="4535" interp="linr"  time="-9999999/1" value="0" leadInLength="0/1"  />
            <InterpolatingParam id="4536" interp="linr"  time="-9999999/1" value="0" leadInLength="0/1"  />
           </VectorParam>
           <InterpolatingParam id="4537" interp="linr"  time="-9999999/1" value="1" leadInLength="0/1"  name="opacity"/>
          </Parameters>
          <Attributes>
           <Attribute id="4538" value="" name="ident"/>
          </Attributes>
          <ExtraData>
           <Entry key="ZoomPanBin">
            <ZoomPanBin id="4539"  >
             <ZoomPanKeyframes>
              <ZoomPanKeyframe id="4540" timeRangeEnd="-9999999/1" timeRangeDuration="0/1" interpolaterName="linr"  />
             </ZoomPanKeyframes>
            </ZoomPanBin>
           </Entry>
          </ExtraData>
         </VMFile>
         <MetaData>
          <entry key="WinSubProjectDisplayName" val=""/>
         </MetaData>
        </UnifiedMedia>
        <UnifiedMedia id="4541"  >
         <AMFile id="4542" start="7875" duration="160" scalar="5773456/8432077" mediaStart="2874440662/360841" mediaDuration="84320770/360841" trackNumber="1" src="21" channelNumber="0,1" >
          <Parameters>
           <InterpolatingParam id="4543" interp="linr"  name="volume">
            <Keyframes>
            <Keyframe id="4544"  time="-1/1" value="1" leadInLength="0/1"  />
            <Keyframe id="4545"  time="0/1" value="0" leadInLength="0/1"  />
            <Keyframe id="4546"  time="8952/1" value="0" leadInLength="0/1"  />
            <Keyframe id="4547"  time="8953/1" value="1" leadInLength="0/1"  />
            </Keyframes>
           </InterpolatingParam>
           <Parameter id="4548"  name="captions"/>
          </Parameters>
          <Attributes>
           <Attribute id="4549" value="" name="ident"/>
           <Attribute id="4550" value="44100" name="sampleRate"/>
           <Attribute id="4551" value="16" name="bitDepth"/>
           <Attribute id="4552" value="1" name="gain"/>
           <Attribute id="4553" value="0" name="mixToMono"/>
          </Attributes>
         </AMFile>
         <VMFile id="4554" start="7875" duration="160" scalar="5773456/8432077" mediaStart="2874440662/360841" mediaDuration="84320770/360841" trackNumber="0" src="21" >
          <Transformer>
           <VectorParam id="4555"  name="translation">
            <InterpolatingParam id="4556" interp="linr"  time="-9999999/1" value="0" leadInLength="0/1"  />
            <InterpolatingParam id="4557" interp="linr"  time="-9999999/1" value="0" leadInLength="0/1"  />
            <InterpolatingParam id="4558" interp="linr"  time="-9999999/1" value="0" leadInLength="0/1"  />
           </VectorParam>
           <VectorParam id="4559"  name="rotation">
            <InterpolatingParam id="4560" interp="linr"  time="-9999999/1" value="0" leadInLength="0/1"  />
            <InterpolatingParam id="4561" interp="linr"  time="-9999999/1" value="0" leadInLength="0/1"  />
            <InterpolatingParam id="4562" interp="linr"  time="-9999999/1" value="0" leadInLength="0/1"  />
           </VectorParam>
           <VectorParam id="4563"  name="shear">
            <InterpolatingParam id="4564" interp="linr"  time="-9999999/1" value="0" leadInLength="0/1"  />
            <InterpolatingParam id="4565" interp="linr"  time="-9999999/1" value="0" leadInLength="0/1"  />
            <InterpolatingParam id="4566" interp="linr"  time="-9999999/1" value="0" leadInLength="0/1"  />
           </VectorParam>
           <VectorParam id="4567"  name="scale">
            <InterpolatingParam id="4568" interp="linr"  time="-9999999/1" value="1" leadInLength="0/1"  />
            <InterpolatingParam id="4569" interp="linr"  time="-9999999/1" value="1" leadInLength="0/1"  />
            <InterpolatingParam id="4570" interp="linr"  time="-9999999/1" value="1" leadInLength="0/1"  />
           </VectorParam>
           <VectorParam id="4571"  name="anchor">
            <InterpolatingParam id="4572" interp="linr"  time="0/1" value="0" leadInLength="0/1"  />
            <InterpolatingParam id="4573" interp="linr"  time="0/1" value="0" leadInLength="0/1"  />
            <InterpolatingParam id="4574" interp="linr"  time="0/1" value="0" leadInLength="0/1"  />
           </VectorParam>
          </Transformer>
          <Parameters>
           <VectorParam id="4575"  name="sourceCrop">
            <InterpolatingParam id="4576" interp="linr"  time="0/1" value="0" leadInLength="0/1"  />
            <InterpolatingParam id="4577" interp="linr"  time="0/1" value="0" leadInLength="0/1"  />
            <InterpolatingParam id="4578" interp="linr"  time="0/1" value="0" leadInLength="0/1"  />
            <InterpolatingParam id="4579" interp="linr"  time="0/1" value="0" leadInLength="0/1"  />
           </VectorParam>
           <VectorParam id="4580"  name="geometryCrop">
            <InterpolatingParam id="4581" interp="linr"  time="-9999999/1" value="0" leadInLength="0/1"  />
            <InterpolatingParam id="4582" interp="linr"  time="-9999999/1" value="0" leadInLength="0/1"  />
            <InterpolatingParam id="4583" interp="linr"  time="-9999999/1" value="0" leadInLength="0/1"  />
            <InterpolatingParam id="4584" interp="linr"  time="-9999999/1" value="0" leadInLength="0/1"  />
           </VectorParam>
           <InterpolatingParam id="4585" interp="linr"  time="-9999999/1" value="1" leadInLength="0/1"  name="opacity"/>
          </Parameters>
          <Attributes>
           <Attribute id="4586" value="" name="ident"/>
          </Attributes>
          <ExtraData>
           <Entry key="ZoomPanBin">
            <ZoomPanBin id="4587"  >
             <ZoomPanKeyframes>
              <ZoomPanKeyframe id="4588" timeRangeEnd="-9999999/1" timeRangeDuration="0/1" interpolaterName="linr"  />
             </ZoomPanKeyframes>
            </ZoomPanBin>
           </Entry>
          </ExtraData>
         </VMFile>
         <MetaData>
          <entry key="WinSubProjectDisplayName" val=""/>
         </MetaData>
        </UnifiedMedia>
        <UnifiedMedia id="4589"  >
         <AMFile id="4590" start="8035" duration="228" scalar="360841/357220" mediaStart="2958761432/360841" mediaDuration="81446160/360841" trackNumber="1" src="21" channelNumber="0,1" >
          <Parameters>
           <InterpolatingParam id="4591" interp="linr"  name="volume">
            <Keyframes>
            <Keyframe id="4592"  time="-1/1" value="1" leadInLength="0/1"  />
            <Keyframe id="4593"  time="0/1" value="0" leadInLength="0/1"  />
            <Keyframe id="4594"  time="8952/1" value="0" leadInLength="0/1"  />
            <Keyframe id="4595"  time="8953/1" value="1" leadInLength="0/1"  />
            </Keyframes>
           </InterpolatingParam>
           <Parameter id="4596"  name="captions"/>
          </Parameters>
          <Attributes>
           <Attribute id="4597" value="" name="ident"/>
           <Attribute id="4598" value="44100" name="sampleRate"/>
           <Attribute id="4599" value="16" name="bitDepth"/>
           <Attribute id="4600" value="1" name="gain"/>
           <Attribute id="4601" value="0" name="mixToMono"/>
          </Attributes>
         </AMFile>
         <VMFile id="4602" start="8035" duration="228" scalar="360841/357220" mediaStart="2958761432/360841" mediaDuration="81446160/360841" trackNumber="0" src="21" >
          <Transformer>
           <VectorParam id="4603"  name="translation">
            <InterpolatingParam id="4604" interp="linr"  time="-9999999/1" value="0" leadInLength="0/1"  />
            <InterpolatingParam id="4605" interp="linr"  time="-9999999/1" value="0" leadInLength="0/1"  />
            <InterpolatingParam id="4606" interp="linr"  time="-9999999/1" value="0" leadInLength="0/1"  />
           </VectorParam>
           <VectorParam id="4607"  name="rotation">
            <InterpolatingParam id="4608" interp="linr"  time="-9999999/1" value="0" leadInLength="0/1"  />
            <InterpolatingParam id="4609" interp="linr"  time="-9999999/1" value="0" leadInLength="0/1"  />
            <InterpolatingParam id="4610" interp="linr"  time="-9999999/1" value="0" leadInLength="0/1"  />
           </VectorParam>
           <VectorParam id="4611"  name="shear">
            <InterpolatingParam id="4612" interp="linr"  time="-9999999/1" value="0" leadInLength="0/1"  />
            <InterpolatingParam id="4613" interp="linr"  time="-9999999/1" value="0" leadInLength="0/1"  />
            <InterpolatingParam id="4614" interp="linr"  time="-9999999/1" value="0" leadInLength="0/1"  />
           </VectorParam>
           <VectorParam id="4615"  name="scale">
            <InterpolatingParam id="4616" interp="linr"  time="-9999999/1" value="1" leadInLength="0/1"  />
            <InterpolatingParam id="4617" interp="linr"  time="-9999999/1" value="1" leadInLength="0/1"  />
            <InterpolatingParam id="4618" interp="linr"  time="-9999999/1" value="1" leadInLength="0/1"  />
           </VectorParam>
           <VectorParam id="4619"  name="anchor">
            <InterpolatingParam id="4620" interp="linr"  time="0/1" value="0" leadInLength="0/1"  />
            <InterpolatingParam id="4621" interp="linr"  time="0/1" value="0" leadInLength="0/1"  />
            <InterpolatingParam id="4622" interp="linr"  time="0/1" value="0" leadInLength="0/1"  />
           </VectorParam>
          </Transformer>
          <Parameters>
           <VectorParam id="4623"  name="sourceCrop">
            <InterpolatingParam id="4624" interp="linr"  time="0/1" value="0" leadInLength="0/1"  />
            <InterpolatingParam id="4625" interp="linr"  time="0/1" value="0" leadInLength="0/1"  />
            <InterpolatingParam id="4626" interp="linr"  time="0/1" value="0" leadInLength="0/1"  />
            <InterpolatingParam id="4627" interp="linr"  time="0/1" value="0" leadInLength="0/1"  />
           </VectorParam>
           <VectorParam id="4628"  name="geometryCrop">
            <InterpolatingParam id="4629" interp="linr"  time="-9999999/1" value="0" leadInLength="0/1"  />
            <InterpolatingParam id="4630" interp="linr"  time="-9999999/1" value="0" leadInLength="0/1"  />
            <InterpolatingParam id="4631" interp="linr"  time="-9999999/1" value="0" leadInLength="0/1"  />
            <InterpolatingParam id="4632" interp="linr"  time="-9999999/1" value="0" leadInLength="0/1"  />
           </VectorParam>
           <InterpolatingParam id="4633" interp="linr"  time="-9999999/1" value="1" leadInLength="0/1"  name="opacity"/>
          </Parameters>
          <Attributes>
           <Attribute id="4634" value="" name="ident"/>
          </Attributes>
          <ExtraData>
           <Entry key="ZoomPanBin">
            <ZoomPanBin id="4635"  >
             <ZoomPanKeyframes>
              <ZoomPanKeyframe id="4636" timeRangeEnd="-9999999/1" timeRangeDuration="0/1" interpolaterName="linr"  />
             </ZoomPanKeyframes>
            </ZoomPanBin>
           </Entry>
          </ExtraData>
         </VMFile>
         <MetaData>
          <entry key="WinSubProjectDisplayName" val=""/>
         </MetaData>
        </UnifiedMedia>
        <UnifiedMedia id="4637"  >
         <AMFile id="4638" start="8263" duration="430" scalar="15516163/17075116" mediaStart="3045208672/360841" mediaDuration="170751160/360841" trackNumber="1" src="21" channelNumber="0,1" >
          <Parameters>
           <InterpolatingParam id="4639" interp="linr"  name="volume">
            <Keyframes>
            <Keyframe id="4640"  time="-1/1" value="1" leadInLength="0/1"  />
            <Keyframe id="4641"  time="0/1" value="0" leadInLength="0/1"  />
            <Keyframe id="4642"  time="8952/1" value="0" leadInLength="0/1"  />
            <Keyframe id="4643"  time="8953/1" value="1" leadInLength="0/1"  />
            </Keyframes>
           </InterpolatingParam>
           <Parameter id="4644"  name="captions"/>
          </Parameters>
          <Attributes>
           <Attribute id="4645" value="" name="ident"/>
           <Attribute id="4646" value="44100" name="sampleRate"/>
           <Attribute id="4647" value="16" name="bitDepth"/>
           <Attribute id="4648" value="1" name="gain"/>
           <Attribute id="4649" value="0" name="mixToMono"/>
          </Attributes>
         </AMFile>
         <VMFile id="4650" start="8263" duration="430" scalar="15516163/17075116" mediaStart="3045208672/360841" mediaDuration="170751160/360841" trackNumber="0" src="21" >
          <Transformer>
           <VectorParam id="4651"  name="translation">
            <InterpolatingParam id="4652" interp="linr"  time="-9999999/1" value="0" leadInLength="0/1"  />
            <InterpolatingParam id="4653" interp="linr"  time="-9999999/1" value="0" leadInLength="0/1"  />
            <InterpolatingParam id="4654" interp="linr"  time="-9999999/1" value="0" leadInLength="0/1"  />
           </VectorParam>
           <VectorParam id="4655"  name="rotation">
            <InterpolatingParam id="4656" interp="linr"  time="-9999999/1" value="0" leadInLength="0/1"  />
            <InterpolatingParam id="4657" interp="linr"  time="-9999999/1" value="0" leadInLength="0/1"  />
            <InterpolatingParam id="4658" interp="linr"  time="-9999999/1" value="0" leadInLength="0/1"  />
           </VectorParam>
           <VectorParam id="4659"  name="shear">
            <InterpolatingParam id="4660" interp="linr"  time="-9999999/1" value="0" leadInLength="0/1"  />
            <InterpolatingParam id="4661" interp="linr"  time="-9999999/1" value="0" leadInLength="0/1"  />
            <InterpolatingParam id="4662" interp="linr"  time="-9999999/1" value="0" leadInLength="0/1"  />
           </VectorParam>
           <VectorParam id="4663"  name="scale">
            <InterpolatingParam id="4664" interp="linr"  time="-9999999/1" value="1" leadInLength="0/1"  />
            <InterpolatingParam id="4665" interp="linr"  time="-9999999/1" value="1" leadInLength="0/1"  />
            <InterpolatingParam id="4666" interp="linr"  time="-9999999/1" value="1" leadInLength="0/1"  />
           </VectorParam>
           <VectorParam id="4667"  name="anchor">
            <InterpolatingParam id="4668" interp="linr"  time="0/1" value="0" leadInLength="0/1"  />
            <InterpolatingParam id="4669" interp="linr"  time="0/1" value="0" leadInLength="0/1"  />
            <InterpolatingParam id="4670" interp="linr"  time="0/1" value="0" leadInLength="0/1"  />
           </VectorParam>
          </Transformer>
          <Parameters>
           <VectorParam id="4671"  name="sourceCrop">
            <InterpolatingParam id="4672" interp="linr"  time="0/1" value="0" leadInLength="0/1"  />
            <InterpolatingParam id="4673" interp="linr"  time="0/1" value="0" leadInLength="0/1"  />
            <InterpolatingParam id="4674" interp="linr"  time="0/1" value="0" leadInLength="0/1"  />
            <InterpolatingParam id="4675" interp="linr"  time="0/1" value="0" leadInLength="0/1"  />
           </VectorParam>
           <VectorParam id="4676"  name="geometryCrop">
            <InterpolatingParam id="4677" interp="linr"  time="-9999999/1" value="0" leadInLength="0/1"  />
            <InterpolatingParam id="4678" interp="linr"  time="-9999999/1" value="0" leadInLength="0/1"  />
            <InterpolatingParam id="4679" interp="linr"  time="-9999999/1" value="0" leadInLength="0/1"  />
            <InterpolatingParam id="4680" interp="linr"  time="-9999999/1" value="0" leadInLength="0/1"  />
           </VectorParam>
           <InterpolatingParam id="4681" interp="linr"  time="-9999999/1" value="1" leadInLength="0/1"  name="opacity"/>
          </Parameters>
          <Attributes>
           <Attribute id="4682" value="" name="ident"/>
          </Attributes>
          <ExtraData>
           <Entry key="ZoomPanBin">
            <ZoomPanBin id="4683"  >
             <ZoomPanKeyframes>
              <ZoomPanKeyframe id="4684" timeRangeEnd="-9999999/1" timeRangeDuration="0/1" interpolaterName="linr"  />
             </ZoomPanKeyframes>
            </ZoomPanBin>
           </Entry>
          </ExtraData>
         </VMFile>
         <MetaData>
          <entry key="WinSubProjectDisplayName" val=""/>
         </MetaData>
        </UnifiedMedia>
       </Medias>
      </GenericTrack>
      <GenericTrack id="4685"  >
       <Attributes>
        <Attribute id="4686" value="" name="ident"/>
        <Attribute id="4687" value="0" name="audioMuted"/>
        <Attribute id="4688" value="0" name="videoHidden"/>
       </Attributes>
       <MetaData>
        <entry key="IsLocked" val="False"/>
        <entry key="WinTrackHeight" val="62"/>
       </MetaData>
       <Medias>
        <StitchedMedia id="4689" start="0" duration="70" scalar="1/1" mediaStart="251/1" mediaDuration="70/1" minMediaStart="0/1" >
         <Transformer>
          <VectorParam id="4690"  name="translation">
           <InterpolatingParam id="4691" interp="linr"  time="0/1" value="0" leadInLength="0/1"  />
           <InterpolatingParam id="4692" interp="linr"  time="0/1" value="0" leadInLength="0/1"  />
           <InterpolatingParam id="4693" interp="linr"  time="0/1" value="0" leadInLength="0/1"  />
          </VectorParam>
          <VectorParam id="4694"  name="rotation">
           <InterpolatingParam id="4695" interp="linr"  time="0/1" value="0" leadInLength="0/1"  />
           <InterpolatingParam id="4696" interp="linr"  time="0/1" value="0" leadInLength="0/1"  />
           <InterpolatingParam id="4697" interp="linr"  time="0/1" value="0" leadInLength="0/1"  />
          </VectorParam>
          <VectorParam id="4698"  name="shear">
           <InterpolatingParam id="4699" interp="linr"  time="0/1" value="0" leadInLength="0/1"  />
           <InterpolatingParam id="4700" interp="linr"  time="0/1" value="0" leadInLength="0/1"  />
           <InterpolatingParam id="4701" interp="linr"  time="0/1" value="0" leadInLength="0/1"  />
          </VectorParam>
          <VectorParam id="4702"  name="scale">
           <InterpolatingParam id="4703" interp="linr"  time="0/1" value="1" leadInLength="0/1"  />
           <InterpolatingParam id="4704" interp="linr"  time="0/1" value="1" leadInLength="0/1"  />
           <InterpolatingParam id="4705" interp="linr"  time="0/1" value="1" leadInLength="0/1"  />
          </VectorParam>
          <VectorParam id="4706"  name="anchor">
           <InterpolatingParam id="4707" interp="linr"  time="0/1" value="0" leadInLength="0/1"  />
           <InterpolatingParam id="4708" interp="linr"  time="0/1" value="0" leadInLength="0/1"  />
           <InterpolatingParam id="4709" interp="linr"  time="0/1" value="0" leadInLength="0/1"  />
          </VectorParam>
         </Transformer>
         <Parameters>
          <InterpolatingParam id="4710" interp="linr"  time="0/1" value="1" leadInLength="0/1"  name="cursorOpacity"/>
          <InterpolatingParam id="4711" interp="linr"  time="0/1" value="1" leadInLength="0/1"  name="cursorScale"/>
          <InterpolatingParam id="4712" interp="linr"  name="volume">
           <Keyframes>
           <Keyframe id="4713"  time="0/1" value="1" leadInLength="0/1"  />
           <Keyframe id="4714"  time="250/1" value="1" leadInLength="0/1"  />
           <Keyframe id="4715"  time="251/1" value="0.32853598014888286" leadInLength="0/1"  />
           <Keyframe id="4716"  time="272/1" value="0.56873449131513631" leadInLength="0/1"  />
           <Keyframe id="4717"  time="321/1" value="0.76607031422745242" leadInLength="0/1"  />
           <Keyframe id="4718"  time="322/1" value="1.1568736727069624" leadInLength="0/1"  />
           <Keyframe id="4719"  time="1888/1" value="0.99255583126550895" leadInLength="0/1"  />
           <Keyframe id="4720"  time="1889/1" value="1" leadInLength="0/1"  />
           </Keyframes>
          </InterpolatingParam>
          <Parameter id="4721"  name="captions"/>
         </Parameters>
         <Effects>
          <GenericEffect id="4722" name = "NoiseReduction" >
           <Parameters>
           <InterpolatingParam id="4723" interp="linr"  time="0/1" value="20" leadInLength="0/1"   name="denoiserAmount"/>
           <InterpolatingParam id="4724" interp="linr"  time="0/1" value="0" leadInLength="0/1"   name="denoiserThreshold"/>
           <Parameter id="4725"   name="noiseProfile">
            <Keyframes>
            <Keyframe id="4726"  time="0/1" value="FBAAAAIAAABErAAAAQIAADOmYsI/y13CPNeLwsehjcK+No/Cm+aOwlHvjcIja5HCun6XwoKemMJy&#xD;&#xa;lpPCuQeRwhgMlcJGdZvCTjScwgFMncIGh5zCGrOawuO0nMJdJZ3Cybudwo6toMIdraPCs/6jwpY0&#xD;&#xa;psLIUqjCWQmpwonmp8KcE6XCgXGlwqC+psIFHabCBoyownWvqcIkX6jCgnCpwms3qsIW0KfCM7Oj&#xD;&#xa;wnGLosJgcKnCdk6swiIgscKFrbDCtNmowrZmpcIHYqjCCg2pwqUNq8KgHq7ChEGxwhVFs8KU6LLC&#xD;&#xa;dvWzwpVHscI6NrDCMpGwwubcs8Imh7bCPKq6wj7tvMKSbr3ClsG+wq4qwMLXQr7CpAK5whxiuMJp&#xD;&#xa;v7nCwu29wloQvsIXTL3CzjDAwsDTwcL69sHC8urAwtAFwMIkSMLCpJHDwjLOw8JG8sTCmMvDwq7H&#xD;&#xa;wsLOncPC+CDDwkh6wsLU5sPCP23Fwm5Qx8KlYsTCm0XCwnhexcLsTsPCSMPDwjvJw8LMWcHC2XHD&#xD;&#xa;wjj5wsICs8TChWvEwgCywcKDdcHCFnHCwurMxMLlVsTCfrDGwmzqyMKoGsfC7ITIwtqRyMJwzcbC&#xD;&#xa;ppbEwiv5xcIXxsTCzDfCwtSExMKEjcTC8ObDwiJ9yMIQm8vCIkDGwqHyxcIyYcbCyAXIwmyBx8I4&#xD;&#xa;n8PCvyPGwuiKxMJggMfCdL3JwsMhysLi6sXCRa7Ewoykx8Jk/MXC0NfEwtK0xcJQTMTCvvvGwtqJ&#xD;&#xa;xMKmFsTCSbfGwq76x8IQ+sjCsqnIwkJdycIaT8fC0nbHwlf2xsLg/cbCtIHHwsTvxsI0KsbCsqDH&#xD;&#xa;wgLix8JGKcXCyNTDwjDwwsIb98bC6MjJwg6Zy8Kg+cvCaC3HwtIgw8KW7sXC3EHGwmcUxcL++8fC&#xD;&#xa;CWbIwsDoxsJFz8PCJkXFwiD7xcIQDsfC8ljIwrDLxMKkeMLClpHEwiqgyMJcjcjC6krGwl50w8Iy&#xD;&#xa;7sXCWv3HwkQ1xsKUwMPC2K/EwootxMJUqMTCH3LDwuojxcKil8fCjmXIwkLJxcID78TClTvGwhel&#xD;&#xa;xsIca8bC1rbCwk6+wsIQfsfCIlPHwpJExcLWhMbCDNvEwuryxMKklMXCeBDDwolhwcIiasLCQYfE&#xD;&#xa;whUfwsJx4MTCsEnIwkX0xcK+3sbCIqLHwrARx8IWtMTCGAnFwomNxMLfbcTCQIPDwjqww8L+MMTC&#xD;&#xa;mqjHwrBaxMI6YsTCxmvIwqyKycKQaMXCnx7FwkYvx8In6sjCGMzIwuvAxcL8a8XCiBjJwkvwyMKI&#xD;&#xa;qMbCTCTIwvQSy8IxEsvCVT/JwrI3w8LA8sLCCD7EwsxXxMJSjsXCfjXFwqTKxMI/gsPCDozDwtwF&#xD;&#xa;xMISn8bChHvJwlFQyMJYCsbCP4jIwtkBycLiFsrCbCrKwvyTysIWncnC+A3HwuI5x8I8/MbC0hHI&#xD;&#xa;wopJzMLmb83CFkvMwpy/y8Kn7MrCfJrJwuLDyMJKn8bCStTGwpb7ycIMo8nCcivFwsapxcJkx8bC&#xD;&#xa;ALLIwriaycJM3cfC8r/KwlSoy8I4A8vCpFHJwkRrzMIKr87CWD7MwsiJycKW9cfCUjbKwq+YycLi&#xD;&#xa;U8jCROHHwhdWycKaU8nCF7jMwmKaz8L//8zC8tjOwjxezsIUysvCzHLJwiJryMLRm8bCgLjKwsi8&#xD;&#xa;ysIhfszCPETLwqtbyMJGeMfCpRPJwnwZzMJSIs3CqhPMwmDiyMLZYsjCz13KwgwKy8LCi8jCyrTM&#xD;&#xa;wgwxzMK4ZcvC087JwkV2xsLyXsnCjIbLwhwvzcLfrM7CeITKwla3ysLK3cnC/PHFwpScxcIUQ8nC&#xD;&#xa;NJzIwrEsxsJvZcfCXSvIwlKLx8JII8nCvgzKwpnhysJSC8vC9iTKwiA/y8IadczCuDrMwuVaysLO&#xD;&#xa;r8vCXtfJwrZ6ycItucnCtonJwjyTysJkC83CL0nMwkjdyMIBucfCixrLwvSDysKGX8nCsCzMwuas&#xD;&#xa;0cIsnNPCuEvOwtr5y8LMBc7Cr+PTwsQc5MLcOfPCKOj0wjr59cJ0C/fCzg75wkwh+8LmVPnCqz72&#xD;&#xa;wnB+9cLuJvrCtEL4wkp7+MLOfffCDN3zwkaz9sLi8vjCFKr6wgIQ+cI8iPjCBpT4wvR1+MLQI/rC&#xD;&#xa;Ihn8wlQg+sIcLvjCVCz2wsI49MJQ9fbC23H3woy69sL4BfnCIOb2wjwy9cIuGvnCdmb3wj7K9MI+&#xD;&#xa;KPXCJpr2wn7C9cKQDvnCthv7woaP+cLGaPbCTr32wrpN+cIFSPjCDvX4wtD39sJY//TCKGf3wvZI&#xD;&#xa;+cK9YvfCgYf3wjIf+sLMMvfCpjz2wuA6+cII8vbCxDv1wmJG9sLka/rCPrT1wi589cLqjfbC9qP4&#xD;&#xa;wgzJ+MLelPbCGir2wlBC9sKeU/jC/nn3wsYn9sL4QPjCXBj5wopQ+MIaJvnCSB36wgjc+MIMfPfC&#xD;&#xa;W+z1wmYG+MKuxPnCCuD1wjh+9sLDrPfCOPj3wm7h+MJjMvfCxH/2wsXf98KwN/nCKOn5wrLR+sKg&#xD;&#xa;bPvCkFv5wsAu+cL2hffCySz2wmRX+MKiiPjCzFX4wvjB98Jgz/fCxPT4wobP+cL8avjC9r34wnKx&#xD;&#xa;+MK+LPnC3H34wle39cKejfbCNKP2wg5B9sK0H/rCSvz2woqE98JAqfjCBPL4wmKi+MIu2/jCMFD5&#xD;&#xa;wiCM+cKo//nCGqz7wlZN+sKUDfjC0ov4wrIU+sIVpffCP2/3woye98KktPbCTJj2wpH29cL3mvbC&#xD;&#xa;jL/4wti/+MLm3vjCQ9QEwzOmYsI/y13CPNeLwsehjcK+No/Cm+aOwlHvjcIja5HCun6XwoKemMJy&#xD;&#xa;lpPCuQeRwhgMlcJGdZvCTjScwgFMncIGh5zCGrOawuO0nMJdJZ3Cybudwo6toMIdraPCs/6jwpY0&#xD;&#xa;psLIUqjCWQmpwonmp8KcE6XCgXGlwqC+psIFHabCBoyownWvqcIkX6jCgnCpwms3qsIW0KfCM7Oj&#xD;&#xa;wnGLosJgcKnCdk6swiIgscKFrbDCtNmowrZmpcIHYqjCCg2pwqUNq8KgHq7ChEGxwhVFs8KU6LLC&#xD;&#xa;dvWzwpVHscI6NrDCMpGwwubcs8Imh7bCPKq6wj7tvMKSbr3ClsG+wq4qwMLXQr7CpAK5whxiuMJp&#xD;&#xa;v7nCwu29wloQvsIXTL3CzjDAwsDTwcL69sHC8urAwtAFwMIkSMLCpJHDwjLOw8JG8sTCmMvDwq7H&#xD;&#xa;wsLOncPC+CDDwkh6wsLU5sPCP23Fwm5Qx8KlYsTCm0XCwnhexcLsTsPCSMPDwjvJw8LMWcHC2XHD&#xD;&#xa;wjj5wsICs8TChWvEwgCywcKDdcHCFnHCwurMxMLlVsTCfrDGwmzqyMKoGsfC7ITIwtqRyMJwzcbC&#xD;&#xa;ppbEwiv5xcIXxsTCzDfCwtSExMKEjcTC8ObDwiJ9yMIQm8vCIkDGwqHyxcIyYcbCyAXIwmyBx8I4&#xD;&#xa;n8PCvyPGwuiKxMJggMfCdL3JwsMhysLi6sXCRa7Ewoykx8Jk/MXC0NfEwtK0xcJQTMTCvvvGwtqJ&#xD;&#xa;xMKmFsTCSbfGwq76x8IQ+sjCsqnIwkJdycIaT8fC0nbHwlf2xsLg/cbCtIHHwsTvxsI0KsbCsqDH&#xD;&#xa;wgLix8JGKcXCyNTDwjDwwsIb98bC6MjJwg6Zy8Kg+cvCaC3HwtIgw8KW7sXC3EHGwmcUxcL++8fC&#xD;&#xa;CWbIwsDoxsJFz8PCJkXFwiD7xcIQDsfC8ljIwrDLxMKkeMLClpHEwiqgyMJcjcjC6krGwl50w8Iy&#xD;&#xa;7sXCWv3HwkQ1xsKUwMPC2K/EwootxMJUqMTCH3LDwuojxcKil8fCjmXIwkLJxcID78TClTvGwhel&#xD;&#xa;xsIca8bC1rbCwk6+wsIQfsfCIlPHwpJExcLWhMbCDNvEwuryxMKklMXCeBDDwolhwcIiasLCQYfE&#xD;&#xa;whUfwsJx4MTCsEnIwkX0xcK+3sbCIqLHwrARx8IWtMTCGAnFwomNxMLfbcTCQIPDwjqww8L+MMTC&#xD;&#xa;mqjHwrBaxMI6YsTCxmvIwqyKycKQaMXCnx7FwkYvx8In6sjCGMzIwuvAxcL8a8XCiBjJwkvwyMKI&#xD;&#xa;qMbCTCTIwvQSy8IxEsvCVT/JwrI3w8LA8sLCCD7EwsxXxMJSjsXCfjXFwqTKxMI/gsPCDozDwtwF&#xD;&#xa;xMISn8bChHvJwlFQyMJYCsbCP4jIwtkBycLiFsrCbCrKwvyTysIWncnC+A3HwuI5x8I8/MbC0hHI&#xD;&#xa;wopJzMLmb83CFkvMwpy/y8Kn7MrCfJrJwuLDyMJKn8bCStTGwpb7ycIMo8nCcivFwsapxcJkx8bC&#xD;&#xa;ALLIwriaycJM3cfC8r/KwlSoy8I4A8vCpFHJwkRrzMIKr87CWD7MwsiJycKW9cfCUjbKwq+YycLi&#xD;&#xa;U8jCROHHwhdWycKaU8nCF7jMwmKaz8L//8zC8tjOwjxezsIUysvCzHLJwiJryMLRm8bCgLjKwsi8&#xD;&#xa;ysIhfszCPETLwqtbyMJGeMfCpRPJwnwZzMJSIs3CqhPMwmDiyMLZYsjCz13KwgwKy8LCi8jCyrTM&#xD;&#xa;wgwxzMK4ZcvC087JwkV2xsLyXsnCjIbLwhwvzcLfrM7CeITKwla3ysLK3cnC/PHFwpScxcIUQ8nC&#xD;&#xa;NJzIwrEsxsJvZcfCXSvIwlKLx8JII8nCvgzKwpnhysJSC8vC9iTKwiA/y8IadczCuDrMwuVaysLO&#xD;&#xa;r8vCXtfJwrZ6ycItucnCtonJwjyTysJkC83CL0nMwkjdyMIBucfCixrLwvSDysKGX8nCsCzMwuas&#xD;&#xa;0cIsnNPCuEvOwtr5y8LMBc7Cr+PTwsQc5MLcOfPCKOj0wjr59cJ0C/fCzg75wkwh+8LmVPnCqz72&#xD;&#xa;wnB+9cLuJvrCtEL4wkp7+MLOfffCDN3zwkaz9sLi8vjCFKr6wgIQ+cI8iPjCBpT4wvR1+MLQI/rC&#xD;&#xa;Ihn8wlQg+sIcLvjCVCz2wsI49MJQ9fbC23H3woy69sL4BfnCIOb2wjwy9cIuGvnCdmb3wj7K9MI+&#xD;&#xa;KPXCJpr2wn7C9cKQDvnCthv7woaP+cLGaPbCTr32wrpN+cIFSPjCDvX4wtD39sJY//TCKGf3wvZI&#xD;&#xa;+cK9YvfCgYf3wjIf+sLMMvfCpjz2wuA6+cII8vbCxDv1wmJG9sLka/rCPrT1wi589cLqjfbC9qP4&#xD;&#xa;wgzJ+MLelPbCGir2wlBC9sKeU/jC/nn3wsYn9sL4QPjCXBj5wopQ+MIaJvnCSB36wgjc+MIMfPfC&#xD;&#xa;W+z1wmYG+MKuxPnCCuD1wjh+9sLDrPfCOPj3wm7h+MJjMvfCxH/2wsXf98KwN/nCKOn5wrLR+sKg&#xD;&#xa;bPvCkFv5wsAu+cL2hffCySz2wmRX+MKiiPjCzFX4wvjB98Jgz/fCxPT4wobP+cL8avjC9r34wnKx&#xD;&#xa;+MK+LPnC3H34wle39cKejfbCNKP2wg5B9sK0H/rCSvz2woqE98JAqfjCBPL4wmKi+MIu2/jCMFD5&#xD;&#xa;wiCM+cKo//nCGqz7wlZN+sKUDfjC0ov4wrIU+sIVpffCP2/3woye98KktPbCTJj2wpH29cL3mvbC&#xD;&#xa;jL/4wti/+MLm3vjCQ9QE" leadInLength="0/1"  />
            </Keyframes>
           </Parameter>
           </Parameters>
          </GenericEffect>
          <GenericEffect id="4727" name = "WinCompression" >
           <Parameters>
           <InterpolatingParam id="4728" interp="linr"  time="0/1" value="0" leadInLength="0/1"   name="attack"/>
           <InterpolatingParam id="4729" interp="linr"  time="0/1" value="9" leadInLength="0/1"   name="gain"/>
           <Parameter id="4730"   name="preset">
            <Keyframes>
            <Keyframe id="4731"  time="0/1" value="1" leadInLength="0/1"  />
            </Keyframes>
           </Parameter>
           <InterpolatingParam id="4732" interp="linr"  time="0/1" value="10" leadInLength="0/1"   name="ratio"/>
           <InterpolatingParam id="4733" interp="linr"  time="0/1" value="3500" leadInLength="0/1"   name="release"/>
           <InterpolatingParam id="4734" interp="linr"  time="0/1" value="-20" leadInLength="0/1"   name="threshold"/>
           </Parameters>
          </GenericEffect>
          <GenericEffect id="4735" name = "Declipper" >
           <Parameters>
           <InterpolatingParam id="4736" interp="linr"  time="0/1" value="-1" leadInLength="0/1"   name="sensitivity"/>
           </Parameters>
          </GenericEffect>
          <GenericEffect id="4737" name = "Declicker" >
           <Parameters>
           <InterpolatingParam id="4738" interp="linr"  time="0/1" value="3" leadInLength="0/1"   name="sensitivity"/>
           </Parameters>
          </GenericEffect>
         </Effects>
         <Attributes>
          <Attribute id="4739" value="" name="ident"/>
          <Attribute id="4740" value="0" name="mixToMono"/>
         </Attributes>
         <MetaData>
          <entry key="WinSubProjectDisplayName" val=""/>
         </MetaData>
         <ExtraData>
          <Entry key="ZoomPanBin">
           <ZoomPanBin id="4741"  >
            <ZoomPanKeyframes>
            </ZoomPanKeyframes>
           </ZoomPanBin>
          </Entry>
          <Entry key="CursorEffectBin">
           <CursorEffectBin id="4742"  >
            <CursorEffectKeyframes>
            </CursorEffectKeyframes>
           </CursorEffectBin>
          </Entry>
         </ExtraData>
         <GenericTrack id="4743"  >
          <Attributes>
           <Attribute id="4744" value="" name="ident"/>
           <Attribute id="4745" value="0" name="audioMuted"/>
           <Attribute id="4746" value="0" name="videoHidden"/>
          </Attributes>
          <MetaData>
           <entry key="IsLocked" val="False"/>
           <entry key="WinTrackHeight" val="0"/>
          </MetaData>
          <Medias>
           <AMFile id="4747" start="0" duration="582" scalar="1/1" mediaStart="0/1" mediaDuration="582/1" trackNumber="0" src="22" channelNumber="0" >
            <Parameters>
             <InterpolatingParam id="4748" interp="linr"  time="0/1" value="1" leadInLength="0/1"  name="volume"/>
             <Parameter id="4749"  name="captions"/>
            </Parameters>
            <Attributes>
             <Attribute id="4750" value="" name="ident"/>
             <Attribute id="4751" value="44100" name="sampleRate"/>
             <Attribute id="4752" value="16" name="bitDepth"/>
             <Attribute id="4753" value="1" name="gain"/>
             <Attribute id="4754" value="0" name="mixToMono"/>
            </Attributes>
            <MetaData>
             <entry key="WinSubProjectDisplayName" val=""/>
            </MetaData>
           </AMFile>
           <AMFile id="4755" start="582" duration="769" scalar="1/1" mediaStart="971/1" mediaDuration="769/1" trackNumber="0" src="22" channelNumber="0" >
            <Parameters>
             <InterpolatingParam id="4756" interp="linr"  time="0/1" value="1" leadInLength="0/1"  name="volume"/>
             <Parameter id="4757"  name="captions"/>
            </Parameters>
            <Attributes>
             <Attribute id="4758" value="" name="ident"/>
             <Attribute id="4759" value="44100" name="sampleRate"/>
             <Attribute id="4760" value="16" name="bitDepth"/>
             <Attribute id="4761" value="1" name="gain"/>
             <Attribute id="4762" value="0" name="mixToMono"/>
            </Attributes>
            <MetaData>
             <entry key="WinSubProjectDisplayName" val=""/>
            </MetaData>
           </AMFile>
           <AMFile id="4763" start="1351" duration="135" scalar="1/1" mediaStart="1744/1" mediaDuration="135/1" trackNumber="0" src="22" channelNumber="0" >
            <Parameters>
             <InterpolatingParam id="4764" interp="linr"  time="0/1" value="1" leadInLength="0/1"  name="volume"/>
             <Parameter id="4765"  name="captions"/>
            </Parameters>
            <Attributes>
             <Attribute id="4766" value="" name="ident"/>
             <Attribute id="4767" value="44100" name="sampleRate"/>
             <Attribute id="4768" value="16" name="bitDepth"/>
             <Attribute id="4769" value="1" name="gain"/>
             <Attribute id="4770" value="0" name="mixToMono"/>
            </Attributes>
            <MetaData>
             <entry key="WinSubProjectDisplayName" val=""/>
            </MetaData>
           </AMFile>
           <AMFile id="4771" start="1486" duration="165" scalar="1/1" mediaStart="1884/1" mediaDuration="165/1" trackNumber="0" src="22" channelNumber="0" >
            <Parameters>
             <InterpolatingParam id="4772" interp="linr"  time="0/1" value="1" leadInLength="0/1"  name="volume"/>
             <Parameter id="4773"  name="captions"/>
            </Parameters>
            <Attributes>
             <Attribute id="4774" value="" name="ident"/>
             <Attribute id="4775" value="44100" name="sampleRate"/>
             <Attribute id="4776" value="16" name="bitDepth"/>
             <Attribute id="4777" value="1" name="gain"/>
             <Attribute id="4778" value="0" name="mixToMono"/>
            </Attributes>
            <MetaData>
             <entry key="WinSubProjectDisplayName" val=""/>
            </MetaData>
           </AMFile>
           <AMFile id="4779" start="1651" duration="2" scalar="1/1" mediaStart="2164/1" mediaDuration="2/1" trackNumber="0" src="22" channelNumber="0" >
            <Parameters>
             <InterpolatingParam id="4780" interp="linr"  time="0/1" value="1" leadInLength="0/1"  name="volume"/>
             <Parameter id="4781"  name="captions"/>
            </Parameters>
            <Attributes>
             <Attribute id="4782" value="" name="ident"/>
             <Attribute id="4783" value="44100" name="sampleRate"/>
             <Attribute id="4784" value="16" name="bitDepth"/>
             <Attribute id="4785" value="1" name="gain"/>
             <Attribute id="4786" value="0" name="mixToMono"/>
            </Attributes>
            <MetaData>
             <entry key="WinSubProjectDisplayName" val=""/>
            </MetaData>
           </AMFile>
           <AMFile id="4787" start="1653" duration="12072" scalar="1/1" mediaStart="2496/1" mediaDuration="12072/1" trackNumber="0" src="22" channelNumber="0" >
            <Parameters>
             <InterpolatingParam id="4788" interp="linr"  time="0/1" value="1" leadInLength="0/1"  name="volume"/>
             <Parameter id="4789"  name="captions"/>
            </Parameters>
            <Attributes>
             <Attribute id="4790" value="" name="ident"/>
             <Attribute id="4791" value="44100" name="sampleRate"/>
             <Attribute id="4792" value="16" name="bitDepth"/>
             <Attribute id="4793" value="1" name="gain"/>
             <Attribute id="4794" value="0" name="mixToMono"/>
            </Attributes>
            <MetaData>
             <entry key="WinSubProjectDisplayName" val=""/>
            </MetaData>
           </AMFile>
          </Medias>
         </GenericTrack>
        </StitchedMedia>
        <StitchedMedia id="4795" start="70" duration="654" scalar="1/1" mediaStart="321/1" mediaDuration="654/1" minMediaStart="0/1" >
         <Transformer>
          <VectorParam id="4796"  name="translation">
           <InterpolatingParam id="4797" interp="linr"  time="0/1" value="0" leadInLength="0/1"  />
           <InterpolatingParam id="4798" interp="linr"  time="0/1" value="0" leadInLength="0/1"  />
           <InterpolatingParam id="4799" interp="linr"  time="0/1" value="0" leadInLength="0/1"  />
          </VectorParam>
          <VectorParam id="4800"  name="rotation">
           <InterpolatingParam id="4801" interp="linr"  time="0/1" value="0" leadInLength="0/1"  />
           <InterpolatingParam id="4802" interp="linr"  time="0/1" value="0" leadInLength="0/1"  />
           <InterpolatingParam id="4803" interp="linr"  time="0/1" value="0" leadInLength="0/1"  />
          </VectorParam>
          <VectorParam id="4804"  name="shear">
           <InterpolatingParam id="4805" interp="linr"  time="0/1" value="0" leadInLength="0/1"  />
           <InterpolatingParam id="4806" interp="linr"  time="0/1" value="0" leadInLength="0/1"  />
           <InterpolatingParam id="4807" interp="linr"  time="0/1" value="0" leadInLength="0/1"  />
          </VectorParam>
          <VectorParam id="4808"  name="scale">
           <InterpolatingParam id="4809" interp="linr"  time="0/1" value="1" leadInLength="0/1"  />
           <InterpolatingParam id="4810" interp="linr"  time="0/1" value="1" leadInLength="0/1"  />
           <InterpolatingParam id="4811" interp="linr"  time="0/1" value="1" leadInLength="0/1"  />
          </VectorParam>
          <VectorParam id="4812"  name="anchor">
           <InterpolatingParam id="4813" interp="linr"  time="0/1" value="0" leadInLength="0/1"  />
           <InterpolatingParam id="4814" interp="linr"  time="0/1" value="0" leadInLength="0/1"  />
           <InterpolatingParam id="4815" interp="linr"  time="0/1" value="0" leadInLength="0/1"  />
          </VectorParam>
         </Transformer>
         <Parameters>
          <InterpolatingParam id="4816" interp="linr"  time="0/1" value="1" leadInLength="0/1"  name="cursorOpacity"/>
          <InterpolatingParam id="4817" interp="linr"  time="0/1" value="1" leadInLength="0/1"  name="cursorScale"/>
          <InterpolatingParam id="4818" interp="linr"  name="volume">
           <Keyframes>
           <Keyframe id="4819"  time="0/1" value="1" leadInLength="0/1"  />
           <Keyframe id="4820"  time="250/1" value="1" leadInLength="0/1"  />
           <Keyframe id="4821"  time="251/1" value="0.91811414392059565" leadInLength="0/1"  />
           <Keyframe id="4822"  time="323/1" value="0.76923076923076805" leadInLength="0/1"  />
           <Keyframe id="4823"  time="369/1" value="0.86848635235731997" leadInLength="0/1"  />
           <Keyframe id="4824"  time="425/1" value="0.86848635235731997" leadInLength="0/1"  />
           <Keyframe id="4825"  time="972/1" value="1.0825398225349701" leadInLength="0/1"  />
           <Keyframe id="4826"  time="1888/1" value="0.91811414392059565" leadInLength="0/1"  />
           <Keyframe id="4827"  time="1889/1" value="1" leadInLength="0/1"  />
           </Keyframes>
          </InterpolatingParam>
          <Parameter id="4828"  name="captions"/>
         </Parameters>
         <Effects>
          <GenericEffect id="4829" name = "NoiseReduction" >
           <Parameters>
           <InterpolatingParam id="4830" interp="linr"  time="0/1" value="20" leadInLength="0/1"   name="denoiserAmount"/>
           <InterpolatingParam id="4831" interp="linr"  time="0/1" value="0" leadInLength="0/1"   name="denoiserThreshold"/>
           <Parameter id="4832"   name="noiseProfile">
            <Keyframes>
            <Keyframe id="4833"  time="0/1" value="FBAAAAIAAABErAAAAQIAADOmYsI/y13CPNeLwsehjcK+No/Cm+aOwlHvjcIja5HCun6XwoKemMJy&#xD;&#xa;lpPCuQeRwhgMlcJGdZvCTjScwgFMncIGh5zCGrOawuO0nMJdJZ3Cybudwo6toMIdraPCs/6jwpY0&#xD;&#xa;psLIUqjCWQmpwonmp8KcE6XCgXGlwqC+psIFHabCBoyownWvqcIkX6jCgnCpwms3qsIW0KfCM7Oj&#xD;&#xa;wnGLosJgcKnCdk6swiIgscKFrbDCtNmowrZmpcIHYqjCCg2pwqUNq8KgHq7ChEGxwhVFs8KU6LLC&#xD;&#xa;dvWzwpVHscI6NrDCMpGwwubcs8Imh7bCPKq6wj7tvMKSbr3ClsG+wq4qwMLXQr7CpAK5whxiuMJp&#xD;&#xa;v7nCwu29wloQvsIXTL3CzjDAwsDTwcL69sHC8urAwtAFwMIkSMLCpJHDwjLOw8JG8sTCmMvDwq7H&#xD;&#xa;wsLOncPC+CDDwkh6wsLU5sPCP23Fwm5Qx8KlYsTCm0XCwnhexcLsTsPCSMPDwjvJw8LMWcHC2XHD&#xD;&#xa;wjj5wsICs8TChWvEwgCywcKDdcHCFnHCwurMxMLlVsTCfrDGwmzqyMKoGsfC7ITIwtqRyMJwzcbC&#xD;&#xa;ppbEwiv5xcIXxsTCzDfCwtSExMKEjcTC8ObDwiJ9yMIQm8vCIkDGwqHyxcIyYcbCyAXIwmyBx8I4&#xD;&#xa;n8PCvyPGwuiKxMJggMfCdL3JwsMhysLi6sXCRa7Ewoykx8Jk/MXC0NfEwtK0xcJQTMTCvvvGwtqJ&#xD;&#xa;xMKmFsTCSbfGwq76x8IQ+sjCsqnIwkJdycIaT8fC0nbHwlf2xsLg/cbCtIHHwsTvxsI0KsbCsqDH&#xD;&#xa;wgLix8JGKcXCyNTDwjDwwsIb98bC6MjJwg6Zy8Kg+cvCaC3HwtIgw8KW7sXC3EHGwmcUxcL++8fC&#xD;&#xa;CWbIwsDoxsJFz8PCJkXFwiD7xcIQDsfC8ljIwrDLxMKkeMLClpHEwiqgyMJcjcjC6krGwl50w8Iy&#xD;&#xa;7sXCWv3HwkQ1xsKUwMPC2K/EwootxMJUqMTCH3LDwuojxcKil8fCjmXIwkLJxcID78TClTvGwhel&#xD;&#xa;xsIca8bC1rbCwk6+wsIQfsfCIlPHwpJExcLWhMbCDNvEwuryxMKklMXCeBDDwolhwcIiasLCQYfE&#xD;&#xa;whUfwsJx4MTCsEnIwkX0xcK+3sbCIqLHwrARx8IWtMTCGAnFwomNxMLfbcTCQIPDwjqww8L+MMTC&#xD;&#xa;mqjHwrBaxMI6YsTCxmvIwqyKycKQaMXCnx7FwkYvx8In6sjCGMzIwuvAxcL8a8XCiBjJwkvwyMKI&#xD;&#xa;qMbCTCTIwvQSy8IxEsvCVT/JwrI3w8LA8sLCCD7EwsxXxMJSjsXCfjXFwqTKxMI/gsPCDozDwtwF&#xD;&#xa;xMISn8bChHvJwlFQyMJYCsbCP4jIwtkBycLiFsrCbCrKwvyTysIWncnC+A3HwuI5x8I8/MbC0hHI&#xD;&#xa;wopJzMLmb83CFkvMwpy/y8Kn7MrCfJrJwuLDyMJKn8bCStTGwpb7ycIMo8nCcivFwsapxcJkx8bC&#xD;&#xa;ALLIwriaycJM3cfC8r/KwlSoy8I4A8vCpFHJwkRrzMIKr87CWD7MwsiJycKW9cfCUjbKwq+YycLi&#xD;&#xa;U8jCROHHwhdWycKaU8nCF7jMwmKaz8L//8zC8tjOwjxezsIUysvCzHLJwiJryMLRm8bCgLjKwsi8&#xD;&#xa;ysIhfszCPETLwqtbyMJGeMfCpRPJwnwZzMJSIs3CqhPMwmDiyMLZYsjCz13KwgwKy8LCi8jCyrTM&#xD;&#xa;wgwxzMK4ZcvC087JwkV2xsLyXsnCjIbLwhwvzcLfrM7CeITKwla3ysLK3cnC/PHFwpScxcIUQ8nC&#xD;&#xa;NJzIwrEsxsJvZcfCXSvIwlKLx8JII8nCvgzKwpnhysJSC8vC9iTKwiA/y8IadczCuDrMwuVaysLO&#xD;&#xa;r8vCXtfJwrZ6ycItucnCtonJwjyTysJkC83CL0nMwkjdyMIBucfCixrLwvSDysKGX8nCsCzMwuas&#xD;&#xa;0cIsnNPCuEvOwtr5y8LMBc7Cr+PTwsQc5MLcOfPCKOj0wjr59cJ0C/fCzg75wkwh+8LmVPnCqz72&#xD;&#xa;wnB+9cLuJvrCtEL4wkp7+MLOfffCDN3zwkaz9sLi8vjCFKr6wgIQ+cI8iPjCBpT4wvR1+MLQI/rC&#xD;&#xa;Ihn8wlQg+sIcLvjCVCz2wsI49MJQ9fbC23H3woy69sL4BfnCIOb2wjwy9cIuGvnCdmb3wj7K9MI+&#xD;&#xa;KPXCJpr2wn7C9cKQDvnCthv7woaP+cLGaPbCTr32wrpN+cIFSPjCDvX4wtD39sJY//TCKGf3wvZI&#xD;&#xa;+cK9YvfCgYf3wjIf+sLMMvfCpjz2wuA6+cII8vbCxDv1wmJG9sLka/rCPrT1wi589cLqjfbC9qP4&#xD;&#xa;wgzJ+MLelPbCGir2wlBC9sKeU/jC/nn3wsYn9sL4QPjCXBj5wopQ+MIaJvnCSB36wgjc+MIMfPfC&#xD;&#xa;W+z1wmYG+MKuxPnCCuD1wjh+9sLDrPfCOPj3wm7h+MJjMvfCxH/2wsXf98KwN/nCKOn5wrLR+sKg&#xD;&#xa;bPvCkFv5wsAu+cL2hffCySz2wmRX+MKiiPjCzFX4wvjB98Jgz/fCxPT4wobP+cL8avjC9r34wnKx&#xD;&#xa;+MK+LPnC3H34wle39cKejfbCNKP2wg5B9sK0H/rCSvz2woqE98JAqfjCBPL4wmKi+MIu2/jCMFD5&#xD;&#xa;wiCM+cKo//nCGqz7wlZN+sKUDfjC0ov4wrIU+sIVpffCP2/3woye98KktPbCTJj2wpH29cL3mvbC&#xD;&#xa;jL/4wti/+MLm3vjCQ9QEwzOmYsI/y13CPNeLwsehjcK+No/Cm+aOwlHvjcIja5HCun6XwoKemMJy&#xD;&#xa;lpPCuQeRwhgMlcJGdZvCTjScwgFMncIGh5zCGrOawuO0nMJdJZ3Cybudwo6toMIdraPCs/6jwpY0&#xD;&#xa;psLIUqjCWQmpwonmp8KcE6XCgXGlwqC+psIFHabCBoyownWvqcIkX6jCgnCpwms3qsIW0KfCM7Oj&#xD;&#xa;wnGLosJgcKnCdk6swiIgscKFrbDCtNmowrZmpcIHYqjCCg2pwqUNq8KgHq7ChEGxwhVFs8KU6LLC&#xD;&#xa;dvWzwpVHscI6NrDCMpGwwubcs8Imh7bCPKq6wj7tvMKSbr3ClsG+wq4qwMLXQr7CpAK5whxiuMJp&#xD;&#xa;v7nCwu29wloQvsIXTL3CzjDAwsDTwcL69sHC8urAwtAFwMIkSMLCpJHDwjLOw8JG8sTCmMvDwq7H&#xD;&#xa;wsLOncPC+CDDwkh6wsLU5sPCP23Fwm5Qx8KlYsTCm0XCwnhexcLsTsPCSMPDwjvJw8LMWcHC2XHD&#xD;&#xa;wjj5wsICs8TChWvEwgCywcKDdcHCFnHCwurMxMLlVsTCfrDGwmzqyMKoGsfC7ITIwtqRyMJwzcbC&#xD;&#xa;ppbEwiv5xcIXxsTCzDfCwtSExMKEjcTC8ObDwiJ9yMIQm8vCIkDGwqHyxcIyYcbCyAXIwmyBx8I4&#xD;&#xa;n8PCvyPGwuiKxMJggMfCdL3JwsMhysLi6sXCRa7Ewoykx8Jk/MXC0NfEwtK0xcJQTMTCvvvGwtqJ&#xD;&#xa;xMKmFsTCSbfGwq76x8IQ+sjCsqnIwkJdycIaT8fC0nbHwlf2xsLg/cbCtIHHwsTvxsI0KsbCsqDH&#xD;&#xa;wgLix8JGKcXCyNTDwjDwwsIb98bC6MjJwg6Zy8Kg+cvCaC3HwtIgw8KW7sXC3EHGwmcUxcL++8fC&#xD;&#xa;CWbIwsDoxsJFz8PCJkXFwiD7xcIQDsfC8ljIwrDLxMKkeMLClpHEwiqgyMJcjcjC6krGwl50w8Iy&#xD;&#xa;7sXCWv3HwkQ1xsKUwMPC2K/EwootxMJUqMTCH3LDwuojxcKil8fCjmXIwkLJxcID78TClTvGwhel&#xD;&#xa;xsIca8bC1rbCwk6+wsIQfsfCIlPHwpJExcLWhMbCDNvEwuryxMKklMXCeBDDwolhwcIiasLCQYfE&#xD;&#xa;whUfwsJx4MTCsEnIwkX0xcK+3sbCIqLHwrARx8IWtMTCGAnFwomNxMLfbcTCQIPDwjqww8L+MMTC&#xD;&#xa;mqjHwrBaxMI6YsTCxmvIwqyKycKQaMXCnx7FwkYvx8In6sjCGMzIwuvAxcL8a8XCiBjJwkvwyMKI&#xD;&#xa;qMbCTCTIwvQSy8IxEsvCVT/JwrI3w8LA8sLCCD7EwsxXxMJSjsXCfjXFwqTKxMI/gsPCDozDwtwF&#xD;&#xa;xMISn8bChHvJwlFQyMJYCsbCP4jIwtkBycLiFsrCbCrKwvyTysIWncnC+A3HwuI5x8I8/MbC0hHI&#xD;&#xa;wopJzMLmb83CFkvMwpy/y8Kn7MrCfJrJwuLDyMJKn8bCStTGwpb7ycIMo8nCcivFwsapxcJkx8bC&#xD;&#xa;ALLIwriaycJM3cfC8r/KwlSoy8I4A8vCpFHJwkRrzMIKr87CWD7MwsiJycKW9cfCUjbKwq+YycLi&#xD;&#xa;U8jCROHHwhdWycKaU8nCF7jMwmKaz8L//8zC8tjOwjxezsIUysvCzHLJwiJryMLRm8bCgLjKwsi8&#xD;&#xa;ysIhfszCPETLwqtbyMJGeMfCpRPJwnwZzMJSIs3CqhPMwmDiyMLZYsjCz13KwgwKy8LCi8jCyrTM&#xD;&#xa;wgwxzMK4ZcvC087JwkV2xsLyXsnCjIbLwhwvzcLfrM7CeITKwla3ysLK3cnC/PHFwpScxcIUQ8nC&#xD;&#xa;NJzIwrEsxsJvZcfCXSvIwlKLx8JII8nCvgzKwpnhysJSC8vC9iTKwiA/y8IadczCuDrMwuVaysLO&#xD;&#xa;r8vCXtfJwrZ6ycItucnCtonJwjyTysJkC83CL0nMwkjdyMIBucfCixrLwvSDysKGX8nCsCzMwuas&#xD;&#xa;0cIsnNPCuEvOwtr5y8LMBc7Cr+PTwsQc5MLcOfPCKOj0wjr59cJ0C/fCzg75wkwh+8LmVPnCqz72&#xD;&#xa;wnB+9cLuJvrCtEL4wkp7+MLOfffCDN3zwkaz9sLi8vjCFKr6wgIQ+cI8iPjCBpT4wvR1+MLQI/rC&#xD;&#xa;Ihn8wlQg+sIcLvjCVCz2wsI49MJQ9fbC23H3woy69sL4BfnCIOb2wjwy9cIuGvnCdmb3wj7K9MI+&#xD;&#xa;KPXCJpr2wn7C9cKQDvnCthv7woaP+cLGaPbCTr32wrpN+cIFSPjCDvX4wtD39sJY//TCKGf3wvZI&#xD;&#xa;+cK9YvfCgYf3wjIf+sLMMvfCpjz2wuA6+cII8vbCxDv1wmJG9sLka/rCPrT1wi589cLqjfbC9qP4&#xD;&#xa;wgzJ+MLelPbCGir2wlBC9sKeU/jC/nn3wsYn9sL4QPjCXBj5wopQ+MIaJvnCSB36wgjc+MIMfPfC&#xD;&#xa;W+z1wmYG+MKuxPnCCuD1wjh+9sLDrPfCOPj3wm7h+MJjMvfCxH/2wsXf98KwN/nCKOn5wrLR+sKg&#xD;&#xa;bPvCkFv5wsAu+cL2hffCySz2wmRX+MKiiPjCzFX4wvjB98Jgz/fCxPT4wobP+cL8avjC9r34wnKx&#xD;&#xa;+MK+LPnC3H34wle39cKejfbCNKP2wg5B9sK0H/rCSvz2woqE98JAqfjCBPL4wmKi+MIu2/jCMFD5&#xD;&#xa;wiCM+cKo//nCGqz7wlZN+sKUDfjC0ov4wrIU+sIVpffCP2/3woye98KktPbCTJj2wpH29cL3mvbC&#xD;&#xa;jL/4wti/+MLm3vjCQ9QE" leadInLength="0/1"  />
            </Keyframes>
           </Parameter>
           </Parameters>
          </GenericEffect>
          <GenericEffect id="4834" name = "WinCompression" >
           <Parameters>
           <InterpolatingParam id="4835" interp="linr"  time="0/1" value="0" leadInLength="0/1"   name="attack"/>
           <InterpolatingParam id="4836" interp="linr"  time="0/1" value="9" leadInLength="0/1"   name="gain"/>
           <Parameter id="4837"   name="preset">
            <Keyframes>
            <Keyframe id="4838"  time="0/1" value="1" leadInLength="0/1"  />
            </Keyframes>
           </Parameter>
           <InterpolatingParam id="4839" interp="linr"  time="0/1" value="10" leadInLength="0/1"   name="ratio"/>
           <InterpolatingParam id="4840" interp="linr"  time="0/1" value="3500" leadInLength="0/1"   name="release"/>
           <InterpolatingParam id="4841" interp="linr"  time="0/1" value="-20" leadInLength="0/1"   name="threshold"/>
           </Parameters>
          </GenericEffect>
          <GenericEffect id="4842" name = "Declipper" >
           <Parameters>
           <InterpolatingParam id="4843" interp="linr"  time="0/1" value="-1" leadInLength="0/1"   name="sensitivity"/>
           </Parameters>
          </GenericEffect>
          <GenericEffect id="4844" name = "Declicker" >
           <Parameters>
           <InterpolatingParam id="4845" interp="linr"  time="0/1" value="3" leadInLength="0/1"   name="sensitivity"/>
           </Parameters>
          </GenericEffect>
         </Effects>
         <Attributes>
          <Attribute id="4846" value="" name="ident"/>
          <Attribute id="4847" value="0" name="mixToMono"/>
         </Attributes>
         <MetaData>
          <entry key="WinSubProjectDisplayName" val=""/>
         </MetaData>
         <ExtraData>
          <Entry key="ZoomPanBin">
           <ZoomPanBin id="4848"  >
            <ZoomPanKeyframes>
            </ZoomPanKeyframes>
           </ZoomPanBin>
          </Entry>
          <Entry key="CursorEffectBin">
           <CursorEffectBin id="4849"  >
            <CursorEffectKeyframes>
            </CursorEffectKeyframes>
           </CursorEffectBin>
          </Entry>
         </ExtraData>
         <GenericTrack id="4850"  >
          <Attributes>
           <Attribute id="4851" value="" name="ident"/>
           <Attribute id="4852" value="0" name="audioMuted"/>
           <Attribute id="4853" value="0" name="videoHidden"/>
          </Attributes>
          <MetaData>
           <entry key="IsLocked" val="False"/>
           <entry key="WinTrackHeight" val="0"/>
          </MetaData>
          <Medias>
           <AMFile id="4854" start="0" duration="582" scalar="1/1" mediaStart="0/1" mediaDuration="582/1" trackNumber="0" src="22" channelNumber="0" >
            <Parameters>
             <InterpolatingParam id="4855" interp="linr"  time="0/1" value="1" leadInLength="0/1"  name="volume"/>
             <Parameter id="4856"  name="captions"/>
            </Parameters>
            <Attributes>
             <Attribute id="4857" value="" name="ident"/>
             <Attribute id="4858" value="44100" name="sampleRate"/>
             <Attribute id="4859" value="16" name="bitDepth"/>
             <Attribute id="4860" value="1" name="gain"/>
             <Attribute id="4861" value="0" name="mixToMono"/>
            </Attributes>
            <MetaData>
             <entry key="WinSubProjectDisplayName" val=""/>
            </MetaData>
           </AMFile>
           <AMFile id="4862" start="582" duration="769" scalar="1/1" mediaStart="971/1" mediaDuration="769/1" trackNumber="0" src="22" channelNumber="0" >
            <Parameters>
             <InterpolatingParam id="4863" interp="linr"  time="0/1" value="1" leadInLength="0/1"  name="volume"/>
             <Parameter id="4864"  name="captions"/>
            </Parameters>
            <Attributes>
             <Attribute id="4865" value="" name="ident"/>
             <Attribute id="4866" value="44100" name="sampleRate"/>
             <Attribute id="4867" value="16" name="bitDepth"/>
             <Attribute id="4868" value="1" name="gain"/>
             <Attribute id="4869" value="0" name="mixToMono"/>
            </Attributes>
            <MetaData>
             <entry key="WinSubProjectDisplayName" val=""/>
            </MetaData>
           </AMFile>
           <AMFile id="4870" start="1351" duration="135" scalar="1/1" mediaStart="1744/1" mediaDuration="135/1" trackNumber="0" src="22" channelNumber="0" >
            <Parameters>
             <InterpolatingParam id="4871" interp="linr"  time="0/1" value="1" leadInLength="0/1"  name="volume"/>
             <Parameter id="4872"  name="captions"/>
            </Parameters>
            <Attributes>
             <Attribute id="4873" value="" name="ident"/>
             <Attribute id="4874" value="44100" name="sampleRate"/>
             <Attribute id="4875" value="16" name="bitDepth"/>
             <Attribute id="4876" value="1" name="gain"/>
             <Attribute id="4877" value="0" name="mixToMono"/>
            </Attributes>
            <MetaData>
             <entry key="WinSubProjectDisplayName" val=""/>
            </MetaData>
           </AMFile>
           <AMFile id="4878" start="1486" duration="165" scalar="1/1" mediaStart="1884/1" mediaDuration="165/1" trackNumber="0" src="22" channelNumber="0" >
            <Parameters>
             <InterpolatingParam id="4879" interp="linr"  time="0/1" value="1" leadInLength="0/1"  name="volume"/>
             <Parameter id="4880"  name="captions"/>
            </Parameters>
            <Attributes>
             <Attribute id="4881" value="" name="ident"/>
             <Attribute id="4882" value="44100" name="sampleRate"/>
             <Attribute id="4883" value="16" name="bitDepth"/>
             <Attribute id="4884" value="1" name="gain"/>
             <Attribute id="4885" value="0" name="mixToMono"/>
            </Attributes>
            <MetaData>
             <entry key="WinSubProjectDisplayName" val=""/>
            </MetaData>
           </AMFile>
           <AMFile id="4886" start="1651" duration="2" scalar="1/1" mediaStart="2164/1" mediaDuration="2/1" trackNumber="0" src="22" channelNumber="0" >
            <Parameters>
             <InterpolatingParam id="4887" interp="linr"  time="0/1" value="1" leadInLength="0/1"  name="volume"/>
             <Parameter id="4888"  name="captions"/>
            </Parameters>
            <Attributes>
             <Attribute id="4889" value="" name="ident"/>
             <Attribute id="4890" value="44100" name="sampleRate"/>
             <Attribute id="4891" value="16" name="bitDepth"/>
             <Attribute id="4892" value="1" name="gain"/>
             <Attribute id="4893" value="0" name="mixToMono"/>
            </Attributes>
            <MetaData>
             <entry key="WinSubProjectDisplayName" val=""/>
            </MetaData>
           </AMFile>
           <AMFile id="4894" start="1653" duration="12072" scalar="1/1" mediaStart="2496/1" mediaDuration="12072/1" trackNumber="0" src="22" channelNumber="0" >
            <Parameters>
             <InterpolatingParam id="4895" interp="linr"  time="0/1" value="1" leadInLength="0/1"  name="volume"/>
             <Parameter id="4896"  name="captions"/>
            </Parameters>
            <Attributes>
             <Attribute id="4897" value="" name="ident"/>
             <Attribute id="4898" value="44100" name="sampleRate"/>
             <Attribute id="4899" value="16" name="bitDepth"/>
             <Attribute id="4900" value="1" name="gain"/>
             <Attribute id="4901" value="0" name="mixToMono"/>
            </Attributes>
            <MetaData>
             <entry key="WinSubProjectDisplayName" val=""/>
            </MetaData>
           </AMFile>
          </Medias>
         </GenericTrack>
        </StitchedMedia>
        <AMFile id="4902" start="724" duration="93" scalar="1/1" mediaStart="35/1" mediaDuration="93/1" trackNumber="0" src="26" channelNumber="0" >
         <Parameters>
          <InterpolatingParam id="4903" interp="linr"  name="volume">
           <Keyframes>
           <Keyframe id="4904"  time="0/1" value="1.3133640552995391" leadInLength="0/1"  />
           <Keyframe id="4905"  time="35/1" value="0.49627791563275392" leadInLength="0/1"  />
           <Keyframe id="4906"  time="50/1" value="0.96774193548387089" leadInLength="0/1"  />
           <Keyframe id="4907"  time="111/1" value="1.3133640552995391" leadInLength="0/1"  />
           </Keyframes>
          </InterpolatingParam>
          <Parameter id="4908"  name="captions"/>
         </Parameters>
         <Effects>
          <GenericEffect id="4909" name = "WinCompression" >
           <Parameters>
           <InterpolatingParam id="4910" interp="linr"  time="0/1" value="0" leadInLength="0/1"   name="attack"/>
           <InterpolatingParam id="4911" interp="linr"  time="0/1" value="9" leadInLength="0/1"   name="gain"/>
           <Parameter id="4912"   name="preset">
            <Keyframes>
            <Keyframe id="4913"  time="0/1" value="1" leadInLength="0/1"  />
            </Keyframes>
           </Parameter>
           <InterpolatingParam id="4914" interp="linr"  time="0/1" value="10" leadInLength="0/1"   name="ratio"/>
           <InterpolatingParam id="4915" interp="linr"  time="0/1" value="3500" leadInLength="0/1"   name="release"/>
           <InterpolatingParam id="4916" interp="linr"  time="0/1" value="-20" leadInLength="0/1"   name="threshold"/>
           </Parameters>
          </GenericEffect>
          <GenericEffect id="4917" name = "NoiseReduction" >
           <Parameters>
           <InterpolatingParam id="4918" interp="linr"  time="0/1" value="20" leadInLength="0/1"   name="denoiserAmount"/>
           <InterpolatingParam id="4919" interp="linr"  time="0/1" value="0" leadInLength="0/1"   name="denoiserThreshold"/>
           <Parameter id="4920"   name="noiseProfile">
            <Keyframes>
            <Keyframe id="4921"  time="0/1" value="FBAAAAIAAABErAAAAQIAAPWfkML/y4XCqbyHwopWi8KPBorCCHyMwi5XksKsBpXCflqawihkn8L+&#xD;&#xa;AqLCC+mjwqkFo8KyLqXC5vylwsoPpcL/3KTCismowl5Fq8I2S6nChAOrwmSirsKVCK/CRlqrwmBt&#xD;&#xa;qsKcE7TC4m27whxCu8IoIrvCvRC6wiIhu8IYxbzCqpK7wtKSu8ITA7vCYI65woCRucLqz7nCIj25&#xD;&#xa;wkrHu8Kanr3CTiq9woz/vcJ2JL7CXvm/wp4ewcJ+scLCDATCwh+pwMKD1MHCzBXCwmStw8L/C8TC&#xD;&#xa;YuXCwkgswsKmKMPCSO3BwkDUwsJDXcLCGBXCwkDEwsLeUMHC4NfDwq50w8LeqsHCqkzDwnxhw8Lh&#xD;&#xa;nMPCIMDDwlpQwsJ/zsLCdrPDwgeBw8JGrMPCHQzDwkDow8Im5cTCD9nDwr6zxMJd9cXCZkbGwrkq&#xD;&#xa;xsJQB8fC9sbHwiK9ycLEdcjCnEjHwlQ5xsKcfcbCwNvGwmLZxsJ9t8fCYF/HwrIXx8Ik28fCHAjH&#xD;&#xa;wmm0xsK9oMfCFXLIwpJ6ycI66cnCk3PIwh9xyMIrncbC0DTHwq0WyMLG8cfCujTJwgN4ycJiFcjC&#xD;&#xa;2pjGwvLRxcLHaMnCQujKwkgiysIY+8nCBY/Jwgl7ycLfrcjCmHjHwnxcyMLJMcrCHCXKwgv9ycLN&#xD;&#xa;l8rC2EPJwoL3yMIRncnCEqTIwsz6yMKME8rC+oTLwlCpzMKWq8rCYIXKwoA7ysJm2cnC3hzKwru/&#xD;&#xa;y8JMGMzCWTTMwhgyy8JfssvChsbMwlPgy8Ji4crC3DzLwtg3y8KG2MvCrtnLwiAWzMKoKsvCrOTK&#xD;&#xa;wrNvzMJeK8zCo0HLwrTWysI758vC7kHMwjZyy8Lbs8rCVrnKwpLiysINNMrCWmXKwgZnysJSDcrC&#xD;&#xa;8CTKwk4NysLNzsnC5iDKwpKjy8JOA8vCfjvKwhy9ysLhTMvClBDKwosXysJ+F8vC7IzLwvjXysJu&#xD;&#xa;QsvClBvLwp7ayMJwZcrCTDvKwv+ZycIjIMjCoSjJwmAcy8KTF8vCVl3JwqAyycI4h8nClnjJwg7a&#xD;&#xa;y8LSr8vC/JDLwopSy8IbxMrCFLzMwrCPy8KYuMrCyOTKwrBTy8LeYsvCV8TLwsDkysIy9srCJIHI&#xD;&#xa;wnilx8JUrsjC0ojLwoGmy8KUg8vCXrPKwotiy8I4ZczCCMbLwhi6zML3OM3CyPvMwhT+y8Jt7svC&#xD;&#xa;nDnMwggjysKuTsnCXBfKwuGnysKqHszCqf3NwlLCysKy58nCFPbKwi4WzMIU5MrC3q3IwiRxysII&#xD;&#xa;LczCosPMwgwuzMLCnsrCZozKwvRmysK0+srCaLPJwrpmysIZlMvCWrLLwhZGy8Ki0srCTKvLwhDu&#xD;&#xa;y8Lu2MvCQvLLwl5GzMKAe8vCvKbLwhgszMJ9lMvCanjLwpZjzcJwt8zCYInLwp5Yy8LYLsvChtPK&#xD;&#xa;wqYKy8LZvcvCvC7LwoqOy8IIzMvC0t7KwsI2y8LT9srCjcvJwga+ysJgiMvCwc/Lwho7zMKq4czC&#xD;&#xa;eg7Nwv7HzcKy8szCPPTMwhCazMJ+QczCw9DMwgXqzcLSPM3CgK3Mwi22zsJiGs7CVoTMwsYDzcKM&#xD;&#xa;n83C0MzNwqYVzsLDk8/CxqnPwjDdzsJ6bc/CNjTOwlC8zsJY3c7Ch0HNwkINzsKSr8/CbovOwl4y&#xD;&#xa;zsLbPs7COq3NwhYUz8K4us7CQILNwqhJzsIKYs7CbM/NwqruzcJm/8/CqnfPwvC0zcLFBM7ChXPO&#xD;&#xa;whSQzcIets7C0EPOwhCozcJB9s3CWS7QwgSXz8JOnc3CJJTOwn6KzsJNmc7C4pzNwlpUzsK4aNHC&#xD;&#xa;6n3PwunXzsJqCtDCOgvQwhSFzsJof87C5yHPwoa/zcJ7ic7C8l3OwlDYz8LCms7CIfPOwhDWzcKL&#xD;&#xa;MM3CS1fOwkLUzsI+4c3Cs6LOwqSS0MJOHtLCWhvRwhh+z8JWUs/CKkDOwixyzsLgNM/CUKHPwlO+&#xD;&#xa;z8JYjNDCFW/RwqUJ0sLi1tTCIjrbwkib4cLR3+PCBBHkwrJZ5cJjFuXCDJzkwkg65MK0C+TCeOrj&#xD;&#xa;wlwU5MLKYeTCdG7jwtSG4sImUuPCK+riwg6Q4sIPieTCyhbkwi3K4sLdo+LCPlniwj4E48IgROTC&#xD;&#xa;HKbjwiM34sLYuePCllnkwsxQ48IA+OPCtmjjwvjS48K1z+TC1Kfjwq9i48LOruPC1EPjwq/k4sLy&#xD;&#xa;1OPCbHflwgrk48INhuLC4JPiwukQ4sLw/uLCoK/jwsIc48IqOOLCKWziwttw48JemePCRr3jwift&#xD;&#xa;48J5K+PCco3iwkip4cK0MOTCw3flwvpB48LytuLCULfiwgSg48L/H+PC6ZbkwqQE5MLvB+PCmAvj&#xD;&#xa;wgaY48IVeuPC6GDkwjiY5MKa9OHCDwPhwply4sLU8uHCvmvhwtYH4cIxBuPCvKXjwvpN48L0XOLC&#xD;&#xa;rJzhwhD04MLytOHCW6Tjwr6l4sKE4OHC3g/jwvu848L3OOXCQY/nwmHr58J9RefCqIfmwsqO58Jr&#xD;&#xa;UOjCLurpwowB6cIl/ubCUp3nws4Q6MIcX+nCHVrpwgis5sJ8QubCMLTlwjZS5cKmieXCAqvlwsLg&#xD;&#xa;5MKzc+TCAlblwgEF5sLHlefCbkbnwuyq5cIRWuXCyeTlwmY35sKppuXCxgrmwuYv5sLtP+fCBLfn&#xD;&#xa;wnHm5sIgF+fCZP3mwuJ65sLwBOfC+MTmwv5J5sLQguTCPnHkwtCD5cIlx+bCffbnwjsD5sLdHObC&#xD;&#xa;DSDmwvL55cLh1uXCm4TzwvWfkML/y4XCqbyHwopWi8KPBorCCHyMwi5XksKsBpXCflqawihkn8L+&#xD;&#xa;AqLCC+mjwqkFo8KyLqXC5vylwsoPpcL/3KTCismowl5Fq8I2S6nChAOrwmSirsKVCK/CRlqrwmBt&#xD;&#xa;qsKcE7TC4m27whxCu8IoIrvCvRC6wiIhu8IYxbzCqpK7wtKSu8ITA7vCYI65woCRucLqz7nCIj25&#xD;&#xa;wkrHu8Kanr3CTiq9woz/vcJ2JL7CXvm/wp4ewcJ+scLCDATCwh+pwMKD1MHCzBXCwmStw8L/C8TC&#xD;&#xa;YuXCwkgswsKmKMPCSO3BwkDUwsJDXcLCGBXCwkDEwsLeUMHC4NfDwq50w8LeqsHCqkzDwnxhw8Lh&#xD;&#xa;nMPCIMDDwlpQwsJ/zsLCdrPDwgeBw8JGrMPCHQzDwkDow8Im5cTCD9nDwr6zxMJd9cXCZkbGwrkq&#xD;&#xa;xsJQB8fC9sbHwiK9ycLEdcjCnEjHwlQ5xsKcfcbCwNvGwmLZxsJ9t8fCYF/HwrIXx8Ik28fCHAjH&#xD;&#xa;wmm0xsK9oMfCFXLIwpJ6ycI66cnCk3PIwh9xyMIrncbC0DTHwq0WyMLG8cfCujTJwgN4ycJiFcjC&#xD;&#xa;2pjGwvLRxcLHaMnCQujKwkgiysIY+8nCBY/Jwgl7ycLfrcjCmHjHwnxcyMLJMcrCHCXKwgv9ycLN&#xD;&#xa;l8rC2EPJwoL3yMIRncnCEqTIwsz6yMKME8rC+oTLwlCpzMKWq8rCYIXKwoA7ysJm2cnC3hzKwru/&#xD;&#xa;y8JMGMzCWTTMwhgyy8JfssvChsbMwlPgy8Ji4crC3DzLwtg3y8KG2MvCrtnLwiAWzMKoKsvCrOTK&#xD;&#xa;wrNvzMJeK8zCo0HLwrTWysI758vC7kHMwjZyy8Lbs8rCVrnKwpLiysINNMrCWmXKwgZnysJSDcrC&#xD;&#xa;8CTKwk4NysLNzsnC5iDKwpKjy8JOA8vCfjvKwhy9ysLhTMvClBDKwosXysJ+F8vC7IzLwvjXysJu&#xD;&#xa;QsvClBvLwp7ayMJwZcrCTDvKwv+ZycIjIMjCoSjJwmAcy8KTF8vCVl3JwqAyycI4h8nClnjJwg7a&#xD;&#xa;y8LSr8vC/JDLwopSy8IbxMrCFLzMwrCPy8KYuMrCyOTKwrBTy8LeYsvCV8TLwsDkysIy9srCJIHI&#xD;&#xa;wnilx8JUrsjC0ojLwoGmy8KUg8vCXrPKwotiy8I4ZczCCMbLwhi6zML3OM3CyPvMwhT+y8Jt7svC&#xD;&#xa;nDnMwggjysKuTsnCXBfKwuGnysKqHszCqf3NwlLCysKy58nCFPbKwi4WzMIU5MrC3q3IwiRxysII&#xD;&#xa;LczCosPMwgwuzMLCnsrCZozKwvRmysK0+srCaLPJwrpmysIZlMvCWrLLwhZGy8Ki0srCTKvLwhDu&#xD;&#xa;y8Lu2MvCQvLLwl5GzMKAe8vCvKbLwhgszMJ9lMvCanjLwpZjzcJwt8zCYInLwp5Yy8LYLsvChtPK&#xD;&#xa;wqYKy8LZvcvCvC7LwoqOy8IIzMvC0t7KwsI2y8LT9srCjcvJwga+ysJgiMvCwc/Lwho7zMKq4czC&#xD;&#xa;eg7Nwv7HzcKy8szCPPTMwhCazMJ+QczCw9DMwgXqzcLSPM3CgK3Mwi22zsJiGs7CVoTMwsYDzcKM&#xD;&#xa;n83C0MzNwqYVzsLDk8/CxqnPwjDdzsJ6bc/CNjTOwlC8zsJY3c7Ch0HNwkINzsKSr8/CbovOwl4y&#xD;&#xa;zsLbPs7COq3NwhYUz8K4us7CQILNwqhJzsIKYs7CbM/NwqruzcJm/8/CqnfPwvC0zcLFBM7ChXPO&#xD;&#xa;whSQzcIets7C0EPOwhCozcJB9s3CWS7QwgSXz8JOnc3CJJTOwn6KzsJNmc7C4pzNwlpUzsK4aNHC&#xD;&#xa;6n3PwunXzsJqCtDCOgvQwhSFzsJof87C5yHPwoa/zcJ7ic7C8l3OwlDYz8LCms7CIfPOwhDWzcKL&#xD;&#xa;MM3CS1fOwkLUzsI+4c3Cs6LOwqSS0MJOHtLCWhvRwhh+z8JWUs/CKkDOwixyzsLgNM/CUKHPwlO+&#xD;&#xa;z8JYjNDCFW/RwqUJ0sLi1tTCIjrbwkib4cLR3+PCBBHkwrJZ5cJjFuXCDJzkwkg65MK0C+TCeOrj&#xD;&#xa;wlwU5MLKYeTCdG7jwtSG4sImUuPCK+riwg6Q4sIPieTCyhbkwi3K4sLdo+LCPlniwj4E48IgROTC&#xD;&#xa;HKbjwiM34sLYuePCllnkwsxQ48IA+OPCtmjjwvjS48K1z+TC1Kfjwq9i48LOruPC1EPjwq/k4sLy&#xD;&#xa;1OPCbHflwgrk48INhuLC4JPiwukQ4sLw/uLCoK/jwsIc48IqOOLCKWziwttw48JemePCRr3jwift&#xD;&#xa;48J5K+PCco3iwkip4cK0MOTCw3flwvpB48LytuLCULfiwgSg48L/H+PC6ZbkwqQE5MLvB+PCmAvj&#xD;&#xa;wgaY48IVeuPC6GDkwjiY5MKa9OHCDwPhwply4sLU8uHCvmvhwtYH4cIxBuPCvKXjwvpN48L0XOLC&#xD;&#xa;rJzhwhD04MLytOHCW6Tjwr6l4sKE4OHC3g/jwvu848L3OOXCQY/nwmHr58J9RefCqIfmwsqO58Jr&#xD;&#xa;UOjCLurpwowB6cIl/ubCUp3nws4Q6MIcX+nCHVrpwgis5sJ8QubCMLTlwjZS5cKmieXCAqvlwsLg&#xD;&#xa;5MKzc+TCAlblwgEF5sLHlefCbkbnwuyq5cIRWuXCyeTlwmY35sKppuXCxgrmwuYv5sLtP+fCBLfn&#xD;&#xa;wnHm5sIgF+fCZP3mwuJ65sLwBOfC+MTmwv5J5sLQguTCPnHkwtCD5cIlx+bCffbnwjsD5sLdHObC&#xD;&#xa;DSDmwvL55cLh1uXCm4Tz" leadInLength="0/1"  />
            </Keyframes>
           </Parameter>
           </Parameters>
          </GenericEffect>
          <GenericEffect id="4922" name = "Declipper" >
           <Parameters>
           <InterpolatingParam id="4923" interp="linr"  time="0/1" value="-1" leadInLength="0/1"   name="sensitivity"/>
           </Parameters>
          </GenericEffect>
         </Effects>
         <Attributes>
          <Attribute id="4924" value="" name="ident"/>
          <Attribute id="4925" value="48000" name="sampleRate"/>
          <Attribute id="4926" value="16" name="bitDepth"/>
          <Attribute id="4927" value="1" name="gain"/>
          <Attribute id="4928" value="0" name="mixToMono"/>
         </Attributes>
         <MetaData>
          <entry key="WinSubProjectDisplayName" val=""/>
         </MetaData>
        </AMFile>
        <StitchedMedia id="4929" start="817" duration="46" scalar="1/1" mediaStart="1065/1" mediaDuration="46/1" minMediaStart="0/1" >
         <Transformer>
          <VectorParam id="4930"  name="translation">
           <InterpolatingParam id="4931" interp="linr"  time="0/1" value="0" leadInLength="0/1"  />
           <InterpolatingParam id="4932" interp="linr"  time="0/1" value="0" leadInLength="0/1"  />
           <InterpolatingParam id="4933" interp="linr"  time="0/1" value="0" leadInLength="0/1"  />
          </VectorParam>
          <VectorParam id="4934"  name="rotation">
           <InterpolatingParam id="4935" interp="linr"  time="0/1" value="0" leadInLength="0/1"  />
           <InterpolatingParam id="4936" interp="linr"  time="0/1" value="0" leadInLength="0/1"  />
           <InterpolatingParam id="4937" interp="linr"  time="0/1" value="0" leadInLength="0/1"  />
          </VectorParam>
          <VectorParam id="4938"  name="shear">
           <InterpolatingParam id="4939" interp="linr"  time="0/1" value="0" leadInLength="0/1"  />
           <InterpolatingParam id="4940" interp="linr"  time="0/1" value="0" leadInLength="0/1"  />
           <InterpolatingParam id="4941" interp="linr"  time="0/1" value="0" leadInLength="0/1"  />
          </VectorParam>
          <VectorParam id="4942"  name="scale">
           <InterpolatingParam id="4943" interp="linr"  time="0/1" value="1" leadInLength="0/1"  />
           <InterpolatingParam id="4944" interp="linr"  time="0/1" value="1" leadInLength="0/1"  />
           <InterpolatingParam id="4945" interp="linr"  time="0/1" value="1" leadInLength="0/1"  />
          </VectorParam>
          <VectorParam id="4946"  name="anchor">
           <InterpolatingParam id="4947" interp="linr"  time="0/1" value="0" leadInLength="0/1"  />
           <InterpolatingParam id="4948" interp="linr"  time="0/1" value="0" leadInLength="0/1"  />
           <InterpolatingParam id="4949" interp="linr"  time="0/1" value="0" leadInLength="0/1"  />
          </VectorParam>
         </Transformer>
         <Parameters>
          <InterpolatingParam id="4950" interp="linr"  time="0/1" value="1" leadInLength="0/1"  name="cursorOpacity"/>
          <InterpolatingParam id="4951" interp="linr"  time="0/1" value="1" leadInLength="0/1"  name="cursorScale"/>
          <InterpolatingParam id="4952" interp="linr"  name="volume">
           <Keyframes>
           <Keyframe id="4953"  time="0/1" value="1" leadInLength="0/1"  />
           <Keyframe id="4954"  time="250/1" value="1" leadInLength="0/1"  />
           <Keyframe id="4955"  time="251/1" value="0.99255583126550895" leadInLength="0/1"  />
           <Keyframe id="4956"  time="1065/1" value="0.8188585607940444" leadInLength="0/1"  />
           <Keyframe id="4957"  time="1079/1" value="0.99255583126550895" leadInLength="0/1"  />
           <Keyframe id="4958"  time="1888/1" value="0.99255583126550895" leadInLength="0/1"  />
           <Keyframe id="4959"  time="1889/1" value="1" leadInLength="0/1"  />
           </Keyframes>
          </InterpolatingParam>
          <Parameter id="4960"  name="captions"/>
         </Parameters>
         <Effects>
          <GenericEffect id="4961" name = "NoiseReduction" >
           <Parameters>
           <InterpolatingParam id="4962" interp="linr"  time="0/1" value="20" leadInLength="0/1"   name="denoiserAmount"/>
           <InterpolatingParam id="4963" interp="linr"  time="0/1" value="0" leadInLength="0/1"   name="denoiserThreshold"/>
           <Parameter id="4964"   name="noiseProfile">
            <Keyframes>
            <Keyframe id="4965"  time="0/1" value="FBAAAAIAAABErAAAAQIAADOmYsI/y13CPNeLwsehjcK+No/Cm+aOwlHvjcIja5HCun6XwoKemMJy&#xD;&#xa;lpPCuQeRwhgMlcJGdZvCTjScwgFMncIGh5zCGrOawuO0nMJdJZ3Cybudwo6toMIdraPCs/6jwpY0&#xD;&#xa;psLIUqjCWQmpwonmp8KcE6XCgXGlwqC+psIFHabCBoyownWvqcIkX6jCgnCpwms3qsIW0KfCM7Oj&#xD;&#xa;wnGLosJgcKnCdk6swiIgscKFrbDCtNmowrZmpcIHYqjCCg2pwqUNq8KgHq7ChEGxwhVFs8KU6LLC&#xD;&#xa;dvWzwpVHscI6NrDCMpGwwubcs8Imh7bCPKq6wj7tvMKSbr3ClsG+wq4qwMLXQr7CpAK5whxiuMJp&#xD;&#xa;v7nCwu29wloQvsIXTL3CzjDAwsDTwcL69sHC8urAwtAFwMIkSMLCpJHDwjLOw8JG8sTCmMvDwq7H&#xD;&#xa;wsLOncPC+CDDwkh6wsLU5sPCP23Fwm5Qx8KlYsTCm0XCwnhexcLsTsPCSMPDwjvJw8LMWcHC2XHD&#xD;&#xa;wjj5wsICs8TChWvEwgCywcKDdcHCFnHCwurMxMLlVsTCfrDGwmzqyMKoGsfC7ITIwtqRyMJwzcbC&#xD;&#xa;ppbEwiv5xcIXxsTCzDfCwtSExMKEjcTC8ObDwiJ9yMIQm8vCIkDGwqHyxcIyYcbCyAXIwmyBx8I4&#xD;&#xa;n8PCvyPGwuiKxMJggMfCdL3JwsMhysLi6sXCRa7Ewoykx8Jk/MXC0NfEwtK0xcJQTMTCvvvGwtqJ&#xD;&#xa;xMKmFsTCSbfGwq76x8IQ+sjCsqnIwkJdycIaT8fC0nbHwlf2xsLg/cbCtIHHwsTvxsI0KsbCsqDH&#xD;&#xa;wgLix8JGKcXCyNTDwjDwwsIb98bC6MjJwg6Zy8Kg+cvCaC3HwtIgw8KW7sXC3EHGwmcUxcL++8fC&#xD;&#xa;CWbIwsDoxsJFz8PCJkXFwiD7xcIQDsfC8ljIwrDLxMKkeMLClpHEwiqgyMJcjcjC6krGwl50w8Iy&#xD;&#xa;7sXCWv3HwkQ1xsKUwMPC2K/EwootxMJUqMTCH3LDwuojxcKil8fCjmXIwkLJxcID78TClTvGwhel&#xD;&#xa;xsIca8bC1rbCwk6+wsIQfsfCIlPHwpJExcLWhMbCDNvEwuryxMKklMXCeBDDwolhwcIiasLCQYfE&#xD;&#xa;whUfwsJx4MTCsEnIwkX0xcK+3sbCIqLHwrARx8IWtMTCGAnFwomNxMLfbcTCQIPDwjqww8L+MMTC&#xD;&#xa;mqjHwrBaxMI6YsTCxmvIwqyKycKQaMXCnx7FwkYvx8In6sjCGMzIwuvAxcL8a8XCiBjJwkvwyMKI&#xD;&#xa;qMbCTCTIwvQSy8IxEsvCVT/JwrI3w8LA8sLCCD7EwsxXxMJSjsXCfjXFwqTKxMI/gsPCDozDwtwF&#xD;&#xa;xMISn8bChHvJwlFQyMJYCsbCP4jIwtkBycLiFsrCbCrKwvyTysIWncnC+A3HwuI5x8I8/MbC0hHI&#xD;&#xa;wopJzMLmb83CFkvMwpy/y8Kn7MrCfJrJwuLDyMJKn8bCStTGwpb7ycIMo8nCcivFwsapxcJkx8bC&#xD;&#xa;ALLIwriaycJM3cfC8r/KwlSoy8I4A8vCpFHJwkRrzMIKr87CWD7MwsiJycKW9cfCUjbKwq+YycLi&#xD;&#xa;U8jCROHHwhdWycKaU8nCF7jMwmKaz8L//8zC8tjOwjxezsIUysvCzHLJwiJryMLRm8bCgLjKwsi8&#xD;&#xa;ysIhfszCPETLwqtbyMJGeMfCpRPJwnwZzMJSIs3CqhPMwmDiyMLZYsjCz13KwgwKy8LCi8jCyrTM&#xD;&#xa;wgwxzMK4ZcvC087JwkV2xsLyXsnCjIbLwhwvzcLfrM7CeITKwla3ysLK3cnC/PHFwpScxcIUQ8nC&#xD;&#xa;NJzIwrEsxsJvZcfCXSvIwlKLx8JII8nCvgzKwpnhysJSC8vC9iTKwiA/y8IadczCuDrMwuVaysLO&#xD;&#xa;r8vCXtfJwrZ6ycItucnCtonJwjyTysJkC83CL0nMwkjdyMIBucfCixrLwvSDysKGX8nCsCzMwuas&#xD;&#xa;0cIsnNPCuEvOwtr5y8LMBc7Cr+PTwsQc5MLcOfPCKOj0wjr59cJ0C/fCzg75wkwh+8LmVPnCqz72&#xD;&#xa;wnB+9cLuJvrCtEL4wkp7+MLOfffCDN3zwkaz9sLi8vjCFKr6wgIQ+cI8iPjCBpT4wvR1+MLQI/rC&#xD;&#xa;Ihn8wlQg+sIcLvjCVCz2wsI49MJQ9fbC23H3woy69sL4BfnCIOb2wjwy9cIuGvnCdmb3wj7K9MI+&#xD;&#xa;KPXCJpr2wn7C9cKQDvnCthv7woaP+cLGaPbCTr32wrpN+cIFSPjCDvX4wtD39sJY//TCKGf3wvZI&#xD;&#xa;+cK9YvfCgYf3wjIf+sLMMvfCpjz2wuA6+cII8vbCxDv1wmJG9sLka/rCPrT1wi589cLqjfbC9qP4&#xD;&#xa;wgzJ+MLelPbCGir2wlBC9sKeU/jC/nn3wsYn9sL4QPjCXBj5wopQ+MIaJvnCSB36wgjc+MIMfPfC&#xD;&#xa;W+z1wmYG+MKuxPnCCuD1wjh+9sLDrPfCOPj3wm7h+MJjMvfCxH/2wsXf98KwN/nCKOn5wrLR+sKg&#xD;&#xa;bPvCkFv5wsAu+cL2hffCySz2wmRX+MKiiPjCzFX4wvjB98Jgz/fCxPT4wobP+cL8avjC9r34wnKx&#xD;&#xa;+MK+LPnC3H34wle39cKejfbCNKP2wg5B9sK0H/rCSvz2woqE98JAqfjCBPL4wmKi+MIu2/jCMFD5&#xD;&#xa;wiCM+cKo//nCGqz7wlZN+sKUDfjC0ov4wrIU+sIVpffCP2/3woye98KktPbCTJj2wpH29cL3mvbC&#xD;&#xa;jL/4wti/+MLm3vjCQ9QEwzOmYsI/y13CPNeLwsehjcK+No/Cm+aOwlHvjcIja5HCun6XwoKemMJy&#xD;&#xa;lpPCuQeRwhgMlcJGdZvCTjScwgFMncIGh5zCGrOawuO0nMJdJZ3Cybudwo6toMIdraPCs/6jwpY0&#xD;&#xa;psLIUqjCWQmpwonmp8KcE6XCgXGlwqC+psIFHabCBoyownWvqcIkX6jCgnCpwms3qsIW0KfCM7Oj&#xD;&#xa;wnGLosJgcKnCdk6swiIgscKFrbDCtNmowrZmpcIHYqjCCg2pwqUNq8KgHq7ChEGxwhVFs8KU6LLC&#xD;&#xa;dvWzwpVHscI6NrDCMpGwwubcs8Imh7bCPKq6wj7tvMKSbr3ClsG+wq4qwMLXQr7CpAK5whxiuMJp&#xD;&#xa;v7nCwu29wloQvsIXTL3CzjDAwsDTwcL69sHC8urAwtAFwMIkSMLCpJHDwjLOw8JG8sTCmMvDwq7H&#xD;&#xa;wsLOncPC+CDDwkh6wsLU5sPCP23Fwm5Qx8KlYsTCm0XCwnhexcLsTsPCSMPDwjvJw8LMWcHC2XHD&#xD;&#xa;wjj5wsICs8TChWvEwgCywcKDdcHCFnHCwurMxMLlVsTCfrDGwmzqyMKoGsfC7ITIwtqRyMJwzcbC&#xD;&#xa;ppbEwiv5xcIXxsTCzDfCwtSExMKEjcTC8ObDwiJ9yMIQm8vCIkDGwqHyxcIyYcbCyAXIwmyBx8I4&#xD;&#xa;n8PCvyPGwuiKxMJggMfCdL3JwsMhysLi6sXCRa7Ewoykx8Jk/MXC0NfEwtK0xcJQTMTCvvvGwtqJ&#xD;&#xa;xMKmFsTCSbfGwq76x8IQ+sjCsqnIwkJdycIaT8fC0nbHwlf2xsLg/cbCtIHHwsTvxsI0KsbCsqDH&#xD;&#xa;wgLix8JGKcXCyNTDwjDwwsIb98bC6MjJwg6Zy8Kg+cvCaC3HwtIgw8KW7sXC3EHGwmcUxcL++8fC&#xD;&#xa;CWbIwsDoxsJFz8PCJkXFwiD7xcIQDsfC8ljIwrDLxMKkeMLClpHEwiqgyMJcjcjC6krGwl50w8Iy&#xD;&#xa;7sXCWv3HwkQ1xsKUwMPC2K/EwootxMJUqMTCH3LDwuojxcKil8fCjmXIwkLJxcID78TClTvGwhel&#xD;&#xa;xsIca8bC1rbCwk6+wsIQfsfCIlPHwpJExcLWhMbCDNvEwuryxMKklMXCeBDDwolhwcIiasLCQYfE&#xD;&#xa;whUfwsJx4MTCsEnIwkX0xcK+3sbCIqLHwrARx8IWtMTCGAnFwomNxMLfbcTCQIPDwjqww8L+MMTC&#xD;&#xa;mqjHwrBaxMI6YsTCxmvIwqyKycKQaMXCnx7FwkYvx8In6sjCGMzIwuvAxcL8a8XCiBjJwkvwyMKI&#xD;&#xa;qMbCTCTIwvQSy8IxEsvCVT/JwrI3w8LA8sLCCD7EwsxXxMJSjsXCfjXFwqTKxMI/gsPCDozDwtwF&#xD;&#xa;xMISn8bChHvJwlFQyMJYCsbCP4jIwtkBycLiFsrCbCrKwvyTysIWncnC+A3HwuI5x8I8/MbC0hHI&#xD;&#xa;wopJzMLmb83CFkvMwpy/y8Kn7MrCfJrJwuLDyMJKn8bCStTGwpb7ycIMo8nCcivFwsapxcJkx8bC&#xD;&#xa;ALLIwriaycJM3cfC8r/KwlSoy8I4A8vCpFHJwkRrzMIKr87CWD7MwsiJycKW9cfCUjbKwq+YycLi&#xD;&#xa;U8jCROHHwhdWycKaU8nCF7jMwmKaz8L//8zC8tjOwjxezsIUysvCzHLJwiJryMLRm8bCgLjKwsi8&#xD;&#xa;ysIhfszCPETLwqtbyMJGeMfCpRPJwnwZzMJSIs3CqhPMwmDiyMLZYsjCz13KwgwKy8LCi8jCyrTM&#xD;&#xa;wgwxzMK4ZcvC087JwkV2xsLyXsnCjIbLwhwvzcLfrM7CeITKwla3ysLK3cnC/PHFwpScxcIUQ8nC&#xD;&#xa;NJzIwrEsxsJvZcfCXSvIwlKLx8JII8nCvgzKwpnhysJSC8vC9iTKwiA/y8IadczCuDrMwuVaysLO&#xD;&#xa;r8vCXtfJwrZ6ycItucnCtonJwjyTysJkC83CL0nMwkjdyMIBucfCixrLwvSDysKGX8nCsCzMwuas&#xD;&#xa;0cIsnNPCuEvOwtr5y8LMBc7Cr+PTwsQc5MLcOfPCKOj0wjr59cJ0C/fCzg75wkwh+8LmVPnCqz72&#xD;&#xa;wnB+9cLuJvrCtEL4wkp7+MLOfffCDN3zwkaz9sLi8vjCFKr6wgIQ+cI8iPjCBpT4wvR1+MLQI/rC&#xD;&#xa;Ihn8wlQg+sIcLvjCVCz2wsI49MJQ9fbC23H3woy69sL4BfnCIOb2wjwy9cIuGvnCdmb3wj7K9MI+&#xD;&#xa;KPXCJpr2wn7C9cKQDvnCthv7woaP+cLGaPbCTr32wrpN+cIFSPjCDvX4wtD39sJY//TCKGf3wvZI&#xD;&#xa;+cK9YvfCgYf3wjIf+sLMMvfCpjz2wuA6+cII8vbCxDv1wmJG9sLka/rCPrT1wi589cLqjfbC9qP4&#xD;&#xa;wgzJ+MLelPbCGir2wlBC9sKeU/jC/nn3wsYn9sL4QPjCXBj5wopQ+MIaJvnCSB36wgjc+MIMfPfC&#xD;&#xa;W+z1wmYG+MKuxPnCCuD1wjh+9sLDrPfCOPj3wm7h+MJjMvfCxH/2wsXf98KwN/nCKOn5wrLR+sKg&#xD;&#xa;bPvCkFv5wsAu+cL2hffCySz2wmRX+MKiiPjCzFX4wvjB98Jgz/fCxPT4wobP+cL8avjC9r34wnKx&#xD;&#xa;+MK+LPnC3H34wle39cKejfbCNKP2wg5B9sK0H/rCSvz2woqE98JAqfjCBPL4wmKi+MIu2/jCMFD5&#xD;&#xa;wiCM+cKo//nCGqz7wlZN+sKUDfjC0ov4wrIU+sIVpffCP2/3woye98KktPbCTJj2wpH29cL3mvbC&#xD;&#xa;jL/4wti/+MLm3vjCQ9QE" leadInLength="0/1"  />
            </Keyframes>
           </Parameter>
           </Parameters>
          </GenericEffect>
          <GenericEffect id="4966" name = "WinCompression" >
           <Parameters>
           <InterpolatingParam id="4967" interp="linr"  time="0/1" value="0" leadInLength="0/1"   name="attack"/>
           <InterpolatingParam id="4968" interp="linr"  time="0/1" value="9" leadInLength="0/1"   name="gain"/>
           <Parameter id="4969"   name="preset">
            <Keyframes>
            <Keyframe id="4970"  time="0/1" value="1" leadInLength="0/1"  />
            </Keyframes>
           </Parameter>
           <InterpolatingParam id="4971" interp="linr"  time="0/1" value="10" leadInLength="0/1"   name="ratio"/>
           <InterpolatingParam id="4972" interp="linr"  time="0/1" value="3500" leadInLength="0/1"   name="release"/>
           <InterpolatingParam id="4973" interp="linr"  time="0/1" value="-20" leadInLength="0/1"   name="threshold"/>
           </Parameters>
          </GenericEffect>
          <GenericEffect id="4974" name = "Declipper" >
           <Parameters>
           <InterpolatingParam id="4975" interp="linr"  time="0/1" value="-1" leadInLength="0/1"   name="sensitivity"/>
           </Parameters>
          </GenericEffect>
          <GenericEffect id="4976" name = "Declicker" >
           <Parameters>
           <InterpolatingParam id="4977" interp="linr"  time="0/1" value="3" leadInLength="0/1"   name="sensitivity"/>
           </Parameters>
          </GenericEffect>
         </Effects>
         <Attributes>
          <Attribute id="4978" value="" name="ident"/>
          <Attribute id="4979" value="0" name="mixToMono"/>
         </Attributes>
         <MetaData>
          <entry key="WinSubProjectDisplayName" val=""/>
         </MetaData>
         <ExtraData>
          <Entry key="ZoomPanBin">
           <ZoomPanBin id="4980"  >
            <ZoomPanKeyframes>
            </ZoomPanKeyframes>
           </ZoomPanBin>
          </Entry>
          <Entry key="CursorEffectBin">
           <CursorEffectBin id="4981"  >
            <CursorEffectKeyframes>
            </CursorEffectKeyframes>
           </CursorEffectBin>
          </Entry>
         </ExtraData>
         <GenericTrack id="4982"  >
          <Attributes>
           <Attribute id="4983" value="" name="ident"/>
           <Attribute id="4984" value="0" name="audioMuted"/>
           <Attribute id="4985" value="0" name="videoHidden"/>
          </Attributes>
          <MetaData>
           <entry key="IsLocked" val="False"/>
           <entry key="WinTrackHeight" val="0"/>
          </MetaData>
          <Medias>
           <AMFile id="4986" start="0" duration="582" scalar="1/1" mediaStart="0/1" mediaDuration="582/1" trackNumber="0" src="22" channelNumber="0" >
            <Parameters>
             <InterpolatingParam id="4987" interp="linr"  time="0/1" value="1" leadInLength="0/1"  name="volume"/>
             <Parameter id="4988"  name="captions"/>
            </Parameters>
            <Attributes>
             <Attribute id="4989" value="" name="ident"/>
             <Attribute id="4990" value="44100" name="sampleRate"/>
             <Attribute id="4991" value="16" name="bitDepth"/>
             <Attribute id="4992" value="1" name="gain"/>
             <Attribute id="4993" value="0" name="mixToMono"/>
            </Attributes>
            <MetaData>
             <entry key="WinSubProjectDisplayName" val=""/>
            </MetaData>
           </AMFile>
           <AMFile id="4994" start="582" duration="769" scalar="1/1" mediaStart="971/1" mediaDuration="769/1" trackNumber="0" src="22" channelNumber="0" >
            <Parameters>
             <InterpolatingParam id="4995" interp="linr"  time="0/1" value="1" leadInLength="0/1"  name="volume"/>
             <Parameter id="4996"  name="captions"/>
            </Parameters>
            <Attributes>
             <Attribute id="4997" value="" name="ident"/>
             <Attribute id="4998" value="44100" name="sampleRate"/>
             <Attribute id="4999" value="16" name="bitDepth"/>
             <Attribute id="5000" value="1" name="gain"/>
             <Attribute id="5001" value="0" name="mixToMono"/>
            </Attributes>
            <MetaData>
             <entry key="WinSubProjectDisplayName" val=""/>
            </MetaData>
           </AMFile>
           <AMFile id="5002" start="1351" duration="135" scalar="1/1" mediaStart="1744/1" mediaDuration="135/1" trackNumber="0" src="22" channelNumber="0" >
            <Parameters>
             <InterpolatingParam id="5003" interp="linr"  time="0/1" value="1" leadInLength="0/1"  name="volume"/>
             <Parameter id="5004"  name="captions"/>
            </Parameters>
            <Attributes>
             <Attribute id="5005" value="" name="ident"/>
             <Attribute id="5006" value="44100" name="sampleRate"/>
             <Attribute id="5007" value="16" name="bitDepth"/>
             <Attribute id="5008" value="1" name="gain"/>
             <Attribute id="5009" value="0" name="mixToMono"/>
            </Attributes>
            <MetaData>
             <entry key="WinSubProjectDisplayName" val=""/>
            </MetaData>
           </AMFile>
           <AMFile id="5010" start="1486" duration="165" scalar="1/1" mediaStart="1884/1" mediaDuration="165/1" trackNumber="0" src="22" channelNumber="0" >
            <Parameters>
             <InterpolatingParam id="5011" interp="linr"  time="0/1" value="1" leadInLength="0/1"  name="volume"/>
             <Parameter id="5012"  name="captions"/>
            </Parameters>
            <Attributes>
             <Attribute id="5013" value="" name="ident"/>
             <Attribute id="5014" value="44100" name="sampleRate"/>
             <Attribute id="5015" value="16" name="bitDepth"/>
             <Attribute id="5016" value="1" name="gain"/>
             <Attribute id="5017" value="0" name="mixToMono"/>
            </Attributes>
            <MetaData>
             <entry key="WinSubProjectDisplayName" val=""/>
            </MetaData>
           </AMFile>
           <AMFile id="5018" start="1651" duration="2" scalar="1/1" mediaStart="2164/1" mediaDuration="2/1" trackNumber="0" src="22" channelNumber="0" >
            <Parameters>
             <InterpolatingParam id="5019" interp="linr"  time="0/1" value="1" leadInLength="0/1"  name="volume"/>
             <Parameter id="5020"  name="captions"/>
            </Parameters>
            <Attributes>
             <Attribute id="5021" value="" name="ident"/>
             <Attribute id="5022" value="44100" name="sampleRate"/>
             <Attribute id="5023" value="16" name="bitDepth"/>
             <Attribute id="5024" value="1" name="gain"/>
             <Attribute id="5025" value="0" name="mixToMono"/>
            </Attributes>
            <MetaData>
             <entry key="WinSubProjectDisplayName" val=""/>
            </MetaData>
           </AMFile>
           <AMFile id="5026" start="1653" duration="12072" scalar="1/1" mediaStart="2496/1" mediaDuration="12072/1" trackNumber="0" src="22" channelNumber="0" >
            <Parameters>
             <InterpolatingParam id="5027" interp="linr"  time="0/1" value="1" leadInLength="0/1"  name="volume"/>
             <Parameter id="5028"  name="captions"/>
            </Parameters>
            <Attributes>
             <Attribute id="5029" value="" name="ident"/>
             <Attribute id="5030" value="44100" name="sampleRate"/>
             <Attribute id="5031" value="16" name="bitDepth"/>
             <Attribute id="5032" value="1" name="gain"/>
             <Attribute id="5033" value="0" name="mixToMono"/>
            </Attributes>
            <MetaData>
             <entry key="WinSubProjectDisplayName" val=""/>
            </MetaData>
           </AMFile>
          </Medias>
         </GenericTrack>
        </StitchedMedia>
        <StitchedMedia id="5034" start="863" duration="84" scalar="1/1" mediaStart="1111/1" mediaDuration="84/1" minMediaStart="0/1" >
         <Transformer>
          <VectorParam id="5035"  name="translation">
           <InterpolatingParam id="5036" interp="linr"  time="0/1" value="0" leadInLength="0/1"  />
           <InterpolatingParam id="5037" interp="linr"  time="0/1" value="0" leadInLength="0/1"  />
           <InterpolatingParam id="5038" interp="linr"  time="0/1" value="0" leadInLength="0/1"  />
          </VectorParam>
          <VectorParam id="5039"  name="rotation">
           <InterpolatingParam id="5040" interp="linr"  time="0/1" value="0" leadInLength="0/1"  />
           <InterpolatingParam id="5041" interp="linr"  time="0/1" value="0" leadInLength="0/1"  />
           <InterpolatingParam id="5042" interp="linr"  time="0/1" value="0" leadInLength="0/1"  />
          </VectorParam>
          <VectorParam id="5043"  name="shear">
           <InterpolatingParam id="5044" interp="linr"  time="0/1" value="0" leadInLength="0/1"  />
           <InterpolatingParam id="5045" interp="linr"  time="0/1" value="0" leadInLength="0/1"  />
           <InterpolatingParam id="5046" interp="linr"  time="0/1" value="0" leadInLength="0/1"  />
          </VectorParam>
          <VectorParam id="5047"  name="scale">
           <InterpolatingParam id="5048" interp="linr"  time="0/1" value="1" leadInLength="0/1"  />
           <InterpolatingParam id="5049" interp="linr"  time="0/1" value="1" leadInLength="0/1"  />
           <InterpolatingParam id="5050" interp="linr"  time="0/1" value="1" leadInLength="0/1"  />
          </VectorParam>
          <VectorParam id="5051"  name="anchor">
           <InterpolatingParam id="5052" interp="linr"  time="0/1" value="0" leadInLength="0/1"  />
           <InterpolatingParam id="5053" interp="linr"  time="0/1" value="0" leadInLength="0/1"  />
           <InterpolatingParam id="5054" interp="linr"  time="0/1" value="0" leadInLength="0/1"  />
          </VectorParam>
         </Transformer>
         <Parameters>
          <InterpolatingParam id="5055" interp="linr"  time="0/1" value="1" leadInLength="0/1"  name="cursorOpacity"/>
          <InterpolatingParam id="5056" interp="linr"  time="0/1" value="1" leadInLength="0/1"  name="cursorScale"/>
          <InterpolatingParam id="5057" interp="linr"  name="volume">
           <Keyframes>
           <Keyframe id="5058"  time="0/1" value="1" leadInLength="0/1"  />
           <Keyframe id="5059"  time="250/1" value="1" leadInLength="0/1"  />
           <Keyframe id="5060"  time="251/1" value="0.99255583126550895" leadInLength="0/1"  />
           <Keyframe id="5061"  time="1065/1" value="0.8188585607940444" leadInLength="0/1"  />
           <Keyframe id="5062"  time="1079/1" value="0.99255583126550895" leadInLength="0/1"  />
           <Keyframe id="5063"  time="1888/1" value="0.99255583126550895" leadInLength="0/1"  />
           <Keyframe id="5064"  time="1889/1" value="1" leadInLength="0/1"  />
           </Keyframes>
          </InterpolatingParam>
          <Parameter id="5065"  name="captions"/>
         </Parameters>
         <Effects>
          <GenericEffect id="5066" name = "NoiseReduction" >
           <Parameters>
           <InterpolatingParam id="5067" interp="linr"  time="0/1" value="20" leadInLength="0/1"   name="denoiserAmount"/>
           <InterpolatingParam id="5068" interp="linr"  time="0/1" value="0" leadInLength="0/1"   name="denoiserThreshold"/>
           <Parameter id="5069"   name="noiseProfile">
            <Keyframes>
            <Keyframe id="5070"  time="0/1" value="FBAAAAIAAABErAAAAQIAADOmYsI/y13CPNeLwsehjcK+No/Cm+aOwlHvjcIja5HCun6XwoKemMJy&#xD;&#xa;lpPCuQeRwhgMlcJGdZvCTjScwgFMncIGh5zCGrOawuO0nMJdJZ3Cybudwo6toMIdraPCs/6jwpY0&#xD;&#xa;psLIUqjCWQmpwonmp8KcE6XCgXGlwqC+psIFHabCBoyownWvqcIkX6jCgnCpwms3qsIW0KfCM7Oj&#xD;&#xa;wnGLosJgcKnCdk6swiIgscKFrbDCtNmowrZmpcIHYqjCCg2pwqUNq8KgHq7ChEGxwhVFs8KU6LLC&#xD;&#xa;dvWzwpVHscI6NrDCMpGwwubcs8Imh7bCPKq6wj7tvMKSbr3ClsG+wq4qwMLXQr7CpAK5whxiuMJp&#xD;&#xa;v7nCwu29wloQvsIXTL3CzjDAwsDTwcL69sHC8urAwtAFwMIkSMLCpJHDwjLOw8JG8sTCmMvDwq7H&#xD;&#xa;wsLOncPC+CDDwkh6wsLU5sPCP23Fwm5Qx8KlYsTCm0XCwnhexcLsTsPCSMPDwjvJw8LMWcHC2XHD&#xD;&#xa;wjj5wsICs8TChWvEwgCywcKDdcHCFnHCwurMxMLlVsTCfrDGwmzqyMKoGsfC7ITIwtqRyMJwzcbC&#xD;&#xa;ppbEwiv5xcIXxsTCzDfCwtSExMKEjcTC8ObDwiJ9yMIQm8vCIkDGwqHyxcIyYcbCyAXIwmyBx8I4&#xD;&#xa;n8PCvyPGwuiKxMJggMfCdL3JwsMhysLi6sXCRa7Ewoykx8Jk/MXC0NfEwtK0xcJQTMTCvvvGwtqJ&#xD;&#xa;xMKmFsTCSbfGwq76x8IQ+sjCsqnIwkJdycIaT8fC0nbHwlf2xsLg/cbCtIHHwsTvxsI0KsbCsqDH&#xD;&#xa;wgLix8JGKcXCyNTDwjDwwsIb98bC6MjJwg6Zy8Kg+cvCaC3HwtIgw8KW7sXC3EHGwmcUxcL++8fC&#xD;&#xa;CWbIwsDoxsJFz8PCJkXFwiD7xcIQDsfC8ljIwrDLxMKkeMLClpHEwiqgyMJcjcjC6krGwl50w8Iy&#xD;&#xa;7sXCWv3HwkQ1xsKUwMPC2K/EwootxMJUqMTCH3LDwuojxcKil8fCjmXIwkLJxcID78TClTvGwhel&#xD;&#xa;xsIca8bC1rbCwk6+wsIQfsfCIlPHwpJExcLWhMbCDNvEwuryxMKklMXCeBDDwolhwcIiasLCQYfE&#xD;&#xa;whUfwsJx4MTCsEnIwkX0xcK+3sbCIqLHwrARx8IWtMTCGAnFwomNxMLfbcTCQIPDwjqww8L+MMTC&#xD;&#xa;mqjHwrBaxMI6YsTCxmvIwqyKycKQaMXCnx7FwkYvx8In6sjCGMzIwuvAxcL8a8XCiBjJwkvwyMKI&#xD;&#xa;qMbCTCTIwvQSy8IxEsvCVT/JwrI3w8LA8sLCCD7EwsxXxMJSjsXCfjXFwqTKxMI/gsPCDozDwtwF&#xD;&#xa;xMISn8bChHvJwlFQyMJYCsbCP4jIwtkBycLiFsrCbCrKwvyTysIWncnC+A3HwuI5x8I8/MbC0hHI&#xD;&#xa;wopJzMLmb83CFkvMwpy/y8Kn7MrCfJrJwuLDyMJKn8bCStTGwpb7ycIMo8nCcivFwsapxcJkx8bC&#xD;&#xa;ALLIwriaycJM3cfC8r/KwlSoy8I4A8vCpFHJwkRrzMIKr87CWD7MwsiJycKW9cfCUjbKwq+YycLi&#xD;&#xa;U8jCROHHwhdWycKaU8nCF7jMwmKaz8L//8zC8tjOwjxezsIUysvCzHLJwiJryMLRm8bCgLjKwsi8&#xD;&#xa;ysIhfszCPETLwqtbyMJGeMfCpRPJwnwZzMJSIs3CqhPMwmDiyMLZYsjCz13KwgwKy8LCi8jCyrTM&#xD;&#xa;wgwxzMK4ZcvC087JwkV2xsLyXsnCjIbLwhwvzcLfrM7CeITKwla3ysLK3cnC/PHFwpScxcIUQ8nC&#xD;&#xa;NJzIwrEsxsJvZcfCXSvIwlKLx8JII8nCvgzKwpnhysJSC8vC9iTKwiA/y8IadczCuDrMwuVaysLO&#xD;&#xa;r8vCXtfJwrZ6ycItucnCtonJwjyTysJkC83CL0nMwkjdyMIBucfCixrLwvSDysKGX8nCsCzMwuas&#xD;&#xa;0cIsnNPCuEvOwtr5y8LMBc7Cr+PTwsQc5MLcOfPCKOj0wjr59cJ0C/fCzg75wkwh+8LmVPnCqz72&#xD;&#xa;wnB+9cLuJvrCtEL4wkp7+MLOfffCDN3zwkaz9sLi8vjCFKr6wgIQ+cI8iPjCBpT4wvR1+MLQI/rC&#xD;&#xa;Ihn8wlQg+sIcLvjCVCz2wsI49MJQ9fbC23H3woy69sL4BfnCIOb2wjwy9cIuGvnCdmb3wj7K9MI+&#xD;&#xa;KPXCJpr2wn7C9cKQDvnCthv7woaP+cLGaPbCTr32wrpN+cIFSPjCDvX4wtD39sJY//TCKGf3wvZI&#xD;&#xa;+cK9YvfCgYf3wjIf+sLMMvfCpjz2wuA6+cII8vbCxDv1wmJG9sLka/rCPrT1wi589cLqjfbC9qP4&#xD;&#xa;wgzJ+MLelPbCGir2wlBC9sKeU/jC/nn3wsYn9sL4QPjCXBj5wopQ+MIaJvnCSB36wgjc+MIMfPfC&#xD;&#xa;W+z1wmYG+MKuxPnCCuD1wjh+9sLDrPfCOPj3wm7h+MJjMvfCxH/2wsXf98KwN/nCKOn5wrLR+sKg&#xD;&#xa;bPvCkFv5wsAu+cL2hffCySz2wmRX+MKiiPjCzFX4wvjB98Jgz/fCxPT4wobP+cL8avjC9r34wnKx&#xD;&#xa;+MK+LPnC3H34wle39cKejfbCNKP2wg5B9sK0H/rCSvz2woqE98JAqfjCBPL4wmKi+MIu2/jCMFD5&#xD;&#xa;wiCM+cKo//nCGqz7wlZN+sKUDfjC0ov4wrIU+sIVpffCP2/3woye98KktPbCTJj2wpH29cL3mvbC&#xD;&#xa;jL/4wti/+MLm3vjCQ9QEwzOmYsI/y13CPNeLwsehjcK+No/Cm+aOwlHvjcIja5HCun6XwoKemMJy&#xD;&#xa;lpPCuQeRwhgMlcJGdZvCTjScwgFMncIGh5zCGrOawuO0nMJdJZ3Cybudwo6toMIdraPCs/6jwpY0&#xD;&#xa;psLIUqjCWQmpwonmp8KcE6XCgXGlwqC+psIFHabCBoyownWvqcIkX6jCgnCpwms3qsIW0KfCM7Oj&#xD;&#xa;wnGLosJgcKnCdk6swiIgscKFrbDCtNmowrZmpcIHYqjCCg2pwqUNq8KgHq7ChEGxwhVFs8KU6LLC&#xD;&#xa;dvWzwpVHscI6NrDCMpGwwubcs8Imh7bCPKq6wj7tvMKSbr3ClsG+wq4qwMLXQr7CpAK5whxiuMJp&#xD;&#xa;v7nCwu29wloQvsIXTL3CzjDAwsDTwcL69sHC8urAwtAFwMIkSMLCpJHDwjLOw8JG8sTCmMvDwq7H&#xD;&#xa;wsLOncPC+CDDwkh6wsLU5sPCP23Fwm5Qx8KlYsTCm0XCwnhexcLsTsPCSMPDwjvJw8LMWcHC2XHD&#xD;&#xa;wjj5wsICs8TChWvEwgCywcKDdcHCFnHCwurMxMLlVsTCfrDGwmzqyMKoGsfC7ITIwtqRyMJwzcbC&#xD;&#xa;ppbEwiv5xcIXxsTCzDfCwtSExMKEjcTC8ObDwiJ9yMIQm8vCIkDGwqHyxcIyYcbCyAXIwmyBx8I4&#xD;&#xa;n8PCvyPGwuiKxMJggMfCdL3JwsMhysLi6sXCRa7Ewoykx8Jk/MXC0NfEwtK0xcJQTMTCvvvGwtqJ&#xD;&#xa;xMKmFsTCSbfGwq76x8IQ+sjCsqnIwkJdycIaT8fC0nbHwlf2xsLg/cbCtIHHwsTvxsI0KsbCsqDH&#xD;&#xa;wgLix8JGKcXCyNTDwjDwwsIb98bC6MjJwg6Zy8Kg+cvCaC3HwtIgw8KW7sXC3EHGwmcUxcL++8fC&#xD;&#xa;CWbIwsDoxsJFz8PCJkXFwiD7xcIQDsfC8ljIwrDLxMKkeMLClpHEwiqgyMJcjcjC6krGwl50w8Iy&#xD;&#xa;7sXCWv3HwkQ1xsKUwMPC2K/EwootxMJUqMTCH3LDwuojxcKil8fCjmXIwkLJxcID78TClTvGwhel&#xD;&#xa;xsIca8bC1rbCwk6+wsIQfsfCIlPHwpJExcLWhMbCDNvEwuryxMKklMXCeBDDwolhwcIiasLCQYfE&#xD;&#xa;whUfwsJx4MTCsEnIwkX0xcK+3sbCIqLHwrARx8IWtMTCGAnFwomNxMLfbcTCQIPDwjqww8L+MMTC&#xD;&#xa;mqjHwrBaxMI6YsTCxmvIwqyKycKQaMXCnx7FwkYvx8In6sjCGMzIwuvAxcL8a8XCiBjJwkvwyMKI&#xD;&#xa;qMbCTCTIwvQSy8IxEsvCVT/JwrI3w8LA8sLCCD7EwsxXxMJSjsXCfjXFwqTKxMI/gsPCDozDwtwF&#xD;&#xa;xMISn8bChHvJwlFQyMJYCsbCP4jIwtkBycLiFsrCbCrKwvyTysIWncnC+A3HwuI5x8I8/MbC0hHI&#xD;&#xa;wopJzMLmb83CFkvMwpy/y8Kn7MrCfJrJwuLDyMJKn8bCStTGwpb7ycIMo8nCcivFwsapxcJkx8bC&#xD;&#xa;ALLIwriaycJM3cfC8r/KwlSoy8I4A8vCpFHJwkRrzMIKr87CWD7MwsiJycKW9cfCUjbKwq+YycLi&#xD;&#xa;U8jCROHHwhdWycKaU8nCF7jMwmKaz8L//8zC8tjOwjxezsIUysvCzHLJwiJryMLRm8bCgLjKwsi8&#xD;&#xa;ysIhfszCPETLwqtbyMJGeMfCpRPJwnwZzMJSIs3CqhPMwmDiyMLZYsjCz13KwgwKy8LCi8jCyrTM&#xD;&#xa;wgwxzMK4ZcvC087JwkV2xsLyXsnCjIbLwhwvzcLfrM7CeITKwla3ysLK3cnC/PHFwpScxcIUQ8nC&#xD;&#xa;NJzIwrEsxsJvZcfCXSvIwlKLx8JII8nCvgzKwpnhysJSC8vC9iTKwiA/y8IadczCuDrMwuVaysLO&#xD;&#xa;r8vCXtfJwrZ6ycItucnCtonJwjyTysJkC83CL0nMwkjdyMIBucfCixrLwvSDysKGX8nCsCzMwuas&#xD;&#xa;0cIsnNPCuEvOwtr5y8LMBc7Cr+PTwsQc5MLcOfPCKOj0wjr59cJ0C/fCzg75wkwh+8LmVPnCqz72&#xD;&#xa;wnB+9cLuJvrCtEL4wkp7+MLOfffCDN3zwkaz9sLi8vjCFKr6wgIQ+cI8iPjCBpT4wvR1+MLQI/rC&#xD;&#xa;Ihn8wlQg+sIcLvjCVCz2wsI49MJQ9fbC23H3woy69sL4BfnCIOb2wjwy9cIuGvnCdmb3wj7K9MI+&#xD;&#xa;KPXCJpr2wn7C9cKQDvnCthv7woaP+cLGaPbCTr32wrpN+cIFSPjCDvX4wtD39sJY//TCKGf3wvZI&#xD;&#xa;+cK9YvfCgYf3wjIf+sLMMvfCpjz2wuA6+cII8vbCxDv1wmJG9sLka/rCPrT1wi589cLqjfbC9qP4&#xD;&#xa;wgzJ+MLelPbCGir2wlBC9sKeU/jC/nn3wsYn9sL4QPjCXBj5wopQ+MIaJvnCSB36wgjc+MIMfPfC&#xD;&#xa;W+z1wmYG+MKuxPnCCuD1wjh+9sLDrPfCOPj3wm7h+MJjMvfCxH/2wsXf98KwN/nCKOn5wrLR+sKg&#xD;&#xa;bPvCkFv5wsAu+cL2hffCySz2wmRX+MKiiPjCzFX4wvjB98Jgz/fCxPT4wobP+cL8avjC9r34wnKx&#xD;&#xa;+MK+LPnC3H34wle39cKejfbCNKP2wg5B9sK0H/rCSvz2woqE98JAqfjCBPL4wmKi+MIu2/jCMFD5&#xD;&#xa;wiCM+cKo//nCGqz7wlZN+sKUDfjC0ov4wrIU+sIVpffCP2/3woye98KktPbCTJj2wpH29cL3mvbC&#xD;&#xa;jL/4wti/+MLm3vjCQ9QE" leadInLength="0/1"  />
            </Keyframes>
           </Parameter>
           </Parameters>
          </GenericEffect>
          <GenericEffect id="5071" name = "WinCompression" >
           <Parameters>
           <InterpolatingParam id="5072" interp="linr"  time="0/1" value="0" leadInLength="0/1"   name="attack"/>
           <InterpolatingParam id="5073" interp="linr"  time="0/1" value="9" leadInLength="0/1"   name="gain"/>
           <Parameter id="5074"   name="preset">
            <Keyframes>
            <Keyframe id="5075"  time="0/1" value="1" leadInLength="0/1"  />
            </Keyframes>
           </Parameter>
           <InterpolatingParam id="5076" interp="linr"  time="0/1" value="10" leadInLength="0/1"   name="ratio"/>
           <InterpolatingParam id="5077" interp="linr"  time="0/1" value="3500" leadInLength="0/1"   name="release"/>
           <InterpolatingParam id="5078" interp="linr"  time="0/1" value="-20" leadInLength="0/1"   name="threshold"/>
           </Parameters>
          </GenericEffect>
          <GenericEffect id="5079" name = "Declipper" >
           <Parameters>
           <InterpolatingParam id="5080" interp="linr"  time="0/1" value="-1" leadInLength="0/1"   name="sensitivity"/>
           </Parameters>
          </GenericEffect>
          <GenericEffect id="5081" name = "Declicker" >
           <Parameters>
           <InterpolatingParam id="5082" interp="linr"  time="0/1" value="3" leadInLength="0/1"   name="sensitivity"/>
           </Parameters>
          </GenericEffect>
         </Effects>
         <Attributes>
          <Attribute id="5083" value="" name="ident"/>
          <Attribute id="5084" value="0" name="mixToMono"/>
         </Attributes>
         <MetaData>
          <entry key="WinSubProjectDisplayName" val=""/>
         </MetaData>
         <ExtraData>
          <Entry key="ZoomPanBin">
           <ZoomPanBin id="5085"  >
            <ZoomPanKeyframes>
            </ZoomPanKeyframes>
           </ZoomPanBin>
          </Entry>
          <Entry key="CursorEffectBin">
           <CursorEffectBin id="5086"  >
            <CursorEffectKeyframes>
            </CursorEffectKeyframes>
           </CursorEffectBin>
          </Entry>
         </ExtraData>
         <GenericTrack id="5087"  >
          <Attributes>
           <Attribute id="5088" value="" name="ident"/>
           <Attribute id="5089" value="0" name="audioMuted"/>
           <Attribute id="5090" value="0" name="videoHidden"/>
          </Attributes>
          <MetaData>
           <entry key="IsLocked" val="False"/>
           <entry key="WinTrackHeight" val="0"/>
          </MetaData>
          <Medias>
           <AMFile id="5091" start="0" duration="582" scalar="1/1" mediaStart="0/1" mediaDuration="582/1" trackNumber="0" src="22" channelNumber="0" >
            <Parameters>
             <InterpolatingParam id="5092" interp="linr"  time="0/1" value="1" leadInLength="0/1"  name="volume"/>
             <Parameter id="5093"  name="captions"/>
            </Parameters>
            <Attributes>
             <Attribute id="5094" value="" name="ident"/>
             <Attribute id="5095" value="44100" name="sampleRate"/>
             <Attribute id="5096" value="16" name="bitDepth"/>
             <Attribute id="5097" value="1" name="gain"/>
             <Attribute id="5098" value="0" name="mixToMono"/>
            </Attributes>
            <MetaData>
             <entry key="WinSubProjectDisplayName" val=""/>
            </MetaData>
           </AMFile>
           <AMFile id="5099" start="582" duration="769" scalar="1/1" mediaStart="971/1" mediaDuration="769/1" trackNumber="0" src="22" channelNumber="0" >
            <Parameters>
             <InterpolatingParam id="5100" interp="linr"  time="0/1" value="1" leadInLength="0/1"  name="volume"/>
             <Parameter id="5101"  name="captions"/>
            </Parameters>
            <Attributes>
             <Attribute id="5102" value="" name="ident"/>
             <Attribute id="5103" value="44100" name="sampleRate"/>
             <Attribute id="5104" value="16" name="bitDepth"/>
             <Attribute id="5105" value="1" name="gain"/>
             <Attribute id="5106" value="0" name="mixToMono"/>
            </Attributes>
            <MetaData>
             <entry key="WinSubProjectDisplayName" val=""/>
            </MetaData>
           </AMFile>
           <AMFile id="5107" start="1351" duration="135" scalar="1/1" mediaStart="1744/1" mediaDuration="135/1" trackNumber="0" src="22" channelNumber="0" >
            <Parameters>
             <InterpolatingParam id="5108" interp="linr"  time="0/1" value="1" leadInLength="0/1"  name="volume"/>
             <Parameter id="5109"  name="captions"/>
            </Parameters>
            <Attributes>
             <Attribute id="5110" value="" name="ident"/>
             <Attribute id="5111" value="44100" name="sampleRate"/>
             <Attribute id="5112" value="16" name="bitDepth"/>
             <Attribute id="5113" value="1" name="gain"/>
             <Attribute id="5114" value="0" name="mixToMono"/>
            </Attributes>
            <MetaData>
             <entry key="WinSubProjectDisplayName" val=""/>
            </MetaData>
           </AMFile>
           <AMFile id="5115" start="1486" duration="165" scalar="1/1" mediaStart="1884/1" mediaDuration="165/1" trackNumber="0" src="22" channelNumber="0" >
            <Parameters>
             <InterpolatingParam id="5116" interp="linr"  time="0/1" value="1" leadInLength="0/1"  name="volume"/>
             <Parameter id="5117"  name="captions"/>
            </Parameters>
            <Attributes>
             <Attribute id="5118" value="" name="ident"/>
             <Attribute id="5119" value="44100" name="sampleRate"/>
             <Attribute id="5120" value="16" name="bitDepth"/>
             <Attribute id="5121" value="1" name="gain"/>
             <Attribute id="5122" value="0" name="mixToMono"/>
            </Attributes>
            <MetaData>
             <entry key="WinSubProjectDisplayName" val=""/>
            </MetaData>
           </AMFile>
           <AMFile id="5123" start="1651" duration="2" scalar="1/1" mediaStart="2164/1" mediaDuration="2/1" trackNumber="0" src="22" channelNumber="0" >
            <Parameters>
             <InterpolatingParam id="5124" interp="linr"  time="0/1" value="1" leadInLength="0/1"  name="volume"/>
             <Parameter id="5125"  name="captions"/>
            </Parameters>
            <Attributes>
             <Attribute id="5126" value="" name="ident"/>
             <Attribute id="5127" value="44100" name="sampleRate"/>
             <Attribute id="5128" value="16" name="bitDepth"/>
             <Attribute id="5129" value="1" name="gain"/>
             <Attribute id="5130" value="0" name="mixToMono"/>
            </Attributes>
            <MetaData>
             <entry key="WinSubProjectDisplayName" val=""/>
            </MetaData>
           </AMFile>
           <AMFile id="5131" start="1653" duration="12072" scalar="1/1" mediaStart="2496/1" mediaDuration="12072/1" trackNumber="0" src="22" channelNumber="0" >
            <Parameters>
             <InterpolatingParam id="5132" interp="linr"  time="0/1" value="1" leadInLength="0/1"  name="volume"/>
             <Parameter id="5133"  name="captions"/>
            </Parameters>
            <Attributes>
             <Attribute id="5134" value="" name="ident"/>
             <Attribute id="5135" value="44100" name="sampleRate"/>
             <Attribute id="5136" value="16" name="bitDepth"/>
             <Attribute id="5137" value="1" name="gain"/>
             <Attribute id="5138" value="0" name="mixToMono"/>
            </Attributes>
            <MetaData>
             <entry key="WinSubProjectDisplayName" val=""/>
            </MetaData>
           </AMFile>
          </Medias>
         </GenericTrack>
        </StitchedMedia>
        <StitchedMedia id="5139" start="947" duration="185" scalar="1/1" mediaStart="1198/1" mediaDuration="185/1" minMediaStart="0/1" >
         <Transformer>
          <VectorParam id="5140"  name="translation">
           <InterpolatingParam id="5141" interp="linr"  time="0/1" value="0" leadInLength="0/1"  />
           <InterpolatingParam id="5142" interp="linr"  time="0/1" value="0" leadInLength="0/1"  />
           <InterpolatingParam id="5143" interp="linr"  time="0/1" value="0" leadInLength="0/1"  />
          </VectorParam>
          <VectorParam id="5144"  name="rotation">
           <InterpolatingParam id="5145" interp="linr"  time="0/1" value="0" leadInLength="0/1"  />
           <InterpolatingParam id="5146" interp="linr"  time="0/1" value="0" leadInLength="0/1"  />
           <InterpolatingParam id="5147" interp="linr"  time="0/1" value="0" leadInLength="0/1"  />
          </VectorParam>
          <VectorParam id="5148"  name="shear">
           <InterpolatingParam id="5149" interp="linr"  time="0/1" value="0" leadInLength="0/1"  />
           <InterpolatingParam id="5150" interp="linr"  time="0/1" value="0" leadInLength="0/1"  />
           <InterpolatingParam id="5151" interp="linr"  time="0/1" value="0" leadInLength="0/1"  />
          </VectorParam>
          <VectorParam id="5152"  name="scale">
           <InterpolatingParam id="5153" interp="linr"  time="0/1" value="1" leadInLength="0/1"  />
           <InterpolatingParam id="5154" interp="linr"  time="0/1" value="1" leadInLength="0/1"  />
           <InterpolatingParam id="5155" interp="linr"  time="0/1" value="1" leadInLength="0/1"  />
          </VectorParam>
          <VectorParam id="5156"  name="anchor">
           <InterpolatingParam id="5157" interp="linr"  time="0/1" value="0" leadInLength="0/1"  />
           <InterpolatingParam id="5158" interp="linr"  time="0/1" value="0" leadInLength="0/1"  />
           <InterpolatingParam id="5159" interp="linr"  time="0/1" value="0" leadInLength="0/1"  />
          </VectorParam>
         </Transformer>
         <Parameters>
          <InterpolatingParam id="5160" interp="linr"  time="0/1" value="1" leadInLength="0/1"  name="cursorOpacity"/>
          <InterpolatingParam id="5161" interp="linr"  time="0/1" value="1" leadInLength="0/1"  name="cursorScale"/>
          <InterpolatingParam id="5162" interp="linr"  name="volume">
           <Keyframes>
           <Keyframe id="5163"  time="0/1" value="1" leadInLength="0/1"  />
           <Keyframe id="5164"  time="250/1" value="1" leadInLength="0/1"  />
           <Keyframe id="5165"  time="251/1" value="0.99255583126550895" leadInLength="0/1"  />
           <Keyframe id="5166"  time="1065/1" value="0.8188585607940444" leadInLength="0/1"  />
           <Keyframe id="5167"  time="1079/1" value="0.99255583126550895" leadInLength="0/1"  />
           <Keyframe id="5168"  time="1888/1" value="0.99255583126550895" leadInLength="0/1"  />
           <Keyframe id="5169"  time="1889/1" value="1" leadInLength="0/1"  />
           </Keyframes>
          </InterpolatingParam>
          <Parameter id="5170"  name="captions"/>
         </Parameters>
         <Effects>
          <GenericEffect id="5171" name = "NoiseReduction" >
           <Parameters>
           <InterpolatingParam id="5172" interp="linr"  time="0/1" value="20" leadInLength="0/1"   name="denoiserAmount"/>
           <InterpolatingParam id="5173" interp="linr"  time="0/1" value="0" leadInLength="0/1"   name="denoiserThreshold"/>
           <Parameter id="5174"   name="noiseProfile">
            <Keyframes>
            <Keyframe id="5175"  time="0/1" value="FBAAAAIAAABErAAAAQIAADOmYsI/y13CPNeLwsehjcK+No/Cm+aOwlHvjcIja5HCun6XwoKemMJy&#xD;&#xa;lpPCuQeRwhgMlcJGdZvCTjScwgFMncIGh5zCGrOawuO0nMJdJZ3Cybudwo6toMIdraPCs/6jwpY0&#xD;&#xa;psLIUqjCWQmpwonmp8KcE6XCgXGlwqC+psIFHabCBoyownWvqcIkX6jCgnCpwms3qsIW0KfCM7Oj&#xD;&#xa;wnGLosJgcKnCdk6swiIgscKFrbDCtNmowrZmpcIHYqjCCg2pwqUNq8KgHq7ChEGxwhVFs8KU6LLC&#xD;&#xa;dvWzwpVHscI6NrDCMpGwwubcs8Imh7bCPKq6wj7tvMKSbr3ClsG+wq4qwMLXQr7CpAK5whxiuMJp&#xD;&#xa;v7nCwu29wloQvsIXTL3CzjDAwsDTwcL69sHC8urAwtAFwMIkSMLCpJHDwjLOw8JG8sTCmMvDwq7H&#xD;&#xa;wsLOncPC+CDDwkh6wsLU5sPCP23Fwm5Qx8KlYsTCm0XCwnhexcLsTsPCSMPDwjvJw8LMWcHC2XHD&#xD;&#xa;wjj5wsICs8TChWvEwgCywcKDdcHCFnHCwurMxMLlVsTCfrDGwmzqyMKoGsfC7ITIwtqRyMJwzcbC&#xD;&#xa;ppbEwiv5xcIXxsTCzDfCwtSExMKEjcTC8ObDwiJ9yMIQm8vCIkDGwqHyxcIyYcbCyAXIwmyBx8I4&#xD;&#xa;n8PCvyPGwuiKxMJggMfCdL3JwsMhysLi6sXCRa7Ewoykx8Jk/MXC0NfEwtK0xcJQTMTCvvvGwtqJ&#xD;&#xa;xMKmFsTCSbfGwq76x8IQ+sjCsqnIwkJdycIaT8fC0nbHwlf2xsLg/cbCtIHHwsTvxsI0KsbCsqDH&#xD;&#xa;wgLix8JGKcXCyNTDwjDwwsIb98bC6MjJwg6Zy8Kg+cvCaC3HwtIgw8KW7sXC3EHGwmcUxcL++8fC&#xD;&#xa;CWbIwsDoxsJFz8PCJkXFwiD7xcIQDsfC8ljIwrDLxMKkeMLClpHEwiqgyMJcjcjC6krGwl50w8Iy&#xD;&#xa;7sXCWv3HwkQ1xsKUwMPC2K/EwootxMJUqMTCH3LDwuojxcKil8fCjmXIwkLJxcID78TClTvGwhel&#xD;&#xa;xsIca8bC1rbCwk6+wsIQfsfCIlPHwpJExcLWhMbCDNvEwuryxMKklMXCeBDDwolhwcIiasLCQYfE&#xD;&#xa;whUfwsJx4MTCsEnIwkX0xcK+3sbCIqLHwrARx8IWtMTCGAnFwomNxMLfbcTCQIPDwjqww8L+MMTC&#xD;&#xa;mqjHwrBaxMI6YsTCxmvIwqyKycKQaMXCnx7FwkYvx8In6sjCGMzIwuvAxcL8a8XCiBjJwkvwyMKI&#xD;&#xa;qMbCTCTIwvQSy8IxEsvCVT/JwrI3w8LA8sLCCD7EwsxXxMJSjsXCfjXFwqTKxMI/gsPCDozDwtwF&#xD;&#xa;xMISn8bChHvJwlFQyMJYCsbCP4jIwtkBycLiFsrCbCrKwvyTysIWncnC+A3HwuI5x8I8/MbC0hHI&#xD;&#xa;wopJzMLmb83CFkvMwpy/y8Kn7MrCfJrJwuLDyMJKn8bCStTGwpb7ycIMo8nCcivFwsapxcJkx8bC&#xD;&#xa;ALLIwriaycJM3cfC8r/KwlSoy8I4A8vCpFHJwkRrzMIKr87CWD7MwsiJycKW9cfCUjbKwq+YycLi&#xD;&#xa;U8jCROHHwhdWycKaU8nCF7jMwmKaz8L//8zC8tjOwjxezsIUysvCzHLJwiJryMLRm8bCgLjKwsi8&#xD;&#xa;ysIhfszCPETLwqtbyMJGeMfCpRPJwnwZzMJSIs3CqhPMwmDiyMLZYsjCz13KwgwKy8LCi8jCyrTM&#xD;&#xa;wgwxzMK4ZcvC087JwkV2xsLyXsnCjIbLwhwvzcLfrM7CeITKwla3ysLK3cnC/PHFwpScxcIUQ8nC&#xD;&#xa;NJzIwrEsxsJvZcfCXSvIwlKLx8JII8nCvgzKwpnhysJSC8vC9iTKwiA/y8IadczCuDrMwuVaysLO&#xD;&#xa;r8vCXtfJwrZ6ycItucnCtonJwjyTysJkC83CL0nMwkjdyMIBucfCixrLwvSDysKGX8nCsCzMwuas&#xD;&#xa;0cIsnNPCuEvOwtr5y8LMBc7Cr+PTwsQc5MLcOfPCKOj0wjr59cJ0C/fCzg75wkwh+8LmVPnCqz72&#xD;&#xa;wnB+9cLuJvrCtEL4wkp7+MLOfffCDN3zwkaz9sLi8vjCFKr6wgIQ+cI8iPjCBpT4wvR1+MLQI/rC&#xD;&#xa;Ihn8wlQg+sIcLvjCVCz2wsI49MJQ9fbC23H3woy69sL4BfnCIOb2wjwy9cIuGvnCdmb3wj7K9MI+&#xD;&#xa;KPXCJpr2wn7C9cKQDvnCthv7woaP+cLGaPbCTr32wrpN+cIFSPjCDvX4wtD39sJY//TCKGf3wvZI&#xD;&#xa;+cK9YvfCgYf3wjIf+sLMMvfCpjz2wuA6+cII8vbCxDv1wmJG9sLka/rCPrT1wi589cLqjfbC9qP4&#xD;&#xa;wgzJ+MLelPbCGir2wlBC9sKeU/jC/nn3wsYn9sL4QPjCXBj5wopQ+MIaJvnCSB36wgjc+MIMfPfC&#xD;&#xa;W+z1wmYG+MKuxPnCCuD1wjh+9sLDrPfCOPj3wm7h+MJjMvfCxH/2wsXf98KwN/nCKOn5wrLR+sKg&#xD;&#xa;bPvCkFv5wsAu+cL2hffCySz2wmRX+MKiiPjCzFX4wvjB98Jgz/fCxPT4wobP+cL8avjC9r34wnKx&#xD;&#xa;+MK+LPnC3H34wle39cKejfbCNKP2wg5B9sK0H/rCSvz2woqE98JAqfjCBPL4wmKi+MIu2/jCMFD5&#xD;&#xa;wiCM+cKo//nCGqz7wlZN+sKUDfjC0ov4wrIU+sIVpffCP2/3woye98KktPbCTJj2wpH29cL3mvbC&#xD;&#xa;jL/4wti/+MLm3vjCQ9QEwzOmYsI/y13CPNeLwsehjcK+No/Cm+aOwlHvjcIja5HCun6XwoKemMJy&#xD;&#xa;lpPCuQeRwhgMlcJGdZvCTjScwgFMncIGh5zCGrOawuO0nMJdJZ3Cybudwo6toMIdraPCs/6jwpY0&#xD;&#xa;psLIUqjCWQmpwonmp8KcE6XCgXGlwqC+psIFHabCBoyownWvqcIkX6jCgnCpwms3qsIW0KfCM7Oj&#xD;&#xa;wnGLosJgcKnCdk6swiIgscKFrbDCtNmowrZmpcIHYqjCCg2pwqUNq8KgHq7ChEGxwhVFs8KU6LLC&#xD;&#xa;dvWzwpVHscI6NrDCMpGwwubcs8Imh7bCPKq6wj7tvMKSbr3ClsG+wq4qwMLXQr7CpAK5whxiuMJp&#xD;&#xa;v7nCwu29wloQvsIXTL3CzjDAwsDTwcL69sHC8urAwtAFwMIkSMLCpJHDwjLOw8JG8sTCmMvDwq7H&#xD;&#xa;wsLOncPC+CDDwkh6wsLU5sPCP23Fwm5Qx8KlYsTCm0XCwnhexcLsTsPCSMPDwjvJw8LMWcHC2XHD&#xD;&#xa;wjj5wsICs8TChWvEwgCywcKDdcHCFnHCwurMxMLlVsTCfrDGwmzqyMKoGsfC7ITIwtqRyMJwzcbC&#xD;&#xa;ppbEwiv5xcIXxsTCzDfCwtSExMKEjcTC8ObDwiJ9yMIQm8vCIkDGwqHyxcIyYcbCyAXIwmyBx8I4&#xD;&#xa;n8PCvyPGwuiKxMJggMfCdL3JwsMhysLi6sXCRa7Ewoykx8Jk/MXC0NfEwtK0xcJQTMTCvvvGwtqJ&#xD;&#xa;xMKmFsTCSbfGwq76x8IQ+sjCsqnIwkJdycIaT8fC0nbHwlf2xsLg/cbCtIHHwsTvxsI0KsbCsqDH&#xD;&#xa;wgLix8JGKcXCyNTDwjDwwsIb98bC6MjJwg6Zy8Kg+cvCaC3HwtIgw8KW7sXC3EHGwmcUxcL++8fC&#xD;&#xa;CWbIwsDoxsJFz8PCJkXFwiD7xcIQDsfC8ljIwrDLxMKkeMLClpHEwiqgyMJcjcjC6krGwl50w8Iy&#xD;&#xa;7sXCWv3HwkQ1xsKUwMPC2K/EwootxMJUqMTCH3LDwuojxcKil8fCjmXIwkLJxcID78TClTvGwhel&#xD;&#xa;xsIca8bC1rbCwk6+wsIQfsfCIlPHwpJExcLWhMbCDNvEwuryxMKklMXCeBDDwolhwcIiasLCQYfE&#xD;&#xa;whUfwsJx4MTCsEnIwkX0xcK+3sbCIqLHwrARx8IWtMTCGAnFwomNxMLfbcTCQIPDwjqww8L+MMTC&#xD;&#xa;mqjHwrBaxMI6YsTCxmvIwqyKycKQaMXCnx7FwkYvx8In6sjCGMzIwuvAxcL8a8XCiBjJwkvwyMKI&#xD;&#xa;qMbCTCTIwvQSy8IxEsvCVT/JwrI3w8LA8sLCCD7EwsxXxMJSjsXCfjXFwqTKxMI/gsPCDozDwtwF&#xD;&#xa;xMISn8bChHvJwlFQyMJYCsbCP4jIwtkBycLiFsrCbCrKwvyTysIWncnC+A3HwuI5x8I8/MbC0hHI&#xD;&#xa;wopJzMLmb83CFkvMwpy/y8Kn7MrCfJrJwuLDyMJKn8bCStTGwpb7ycIMo8nCcivFwsapxcJkx8bC&#xD;&#xa;ALLIwriaycJM3cfC8r/KwlSoy8I4A8vCpFHJwkRrzMIKr87CWD7MwsiJycKW9cfCUjbKwq+YycLi&#xD;&#xa;U8jCROHHwhdWycKaU8nCF7jMwmKaz8L//8zC8tjOwjxezsIUysvCzHLJwiJryMLRm8bCgLjKwsi8&#xD;&#xa;ysIhfszCPETLwqtbyMJGeMfCpRPJwnwZzMJSIs3CqhPMwmDiyMLZYsjCz13KwgwKy8LCi8jCyrTM&#xD;&#xa;wgwxzMK4ZcvC087JwkV2xsLyXsnCjIbLwhwvzcLfrM7CeITKwla3ysLK3cnC/PHFwpScxcIUQ8nC&#xD;&#xa;NJzIwrEsxsJvZcfCXSvIwlKLx8JII8nCvgzKwpnhysJSC8vC9iTKwiA/y8IadczCuDrMwuVaysLO&#xD;&#xa;r8vCXtfJwrZ6ycItucnCtonJwjyTysJkC83CL0nMwkjdyMIBucfCixrLwvSDysKGX8nCsCzMwuas&#xD;&#xa;0cIsnNPCuEvOwtr5y8LMBc7Cr+PTwsQc5MLcOfPCKOj0wjr59cJ0C/fCzg75wkwh+8LmVPnCqz72&#xD;&#xa;wnB+9cLuJvrCtEL4wkp7+MLOfffCDN3zwkaz9sLi8vjCFKr6wgIQ+cI8iPjCBpT4wvR1+MLQI/rC&#xD;&#xa;Ihn8wlQg+sIcLvjCVCz2wsI49MJQ9fbC23H3woy69sL4BfnCIOb2wjwy9cIuGvnCdmb3wj7K9MI+&#xD;&#xa;KPXCJpr2wn7C9cKQDvnCthv7woaP+cLGaPbCTr32wrpN+cIFSPjCDvX4wtD39sJY//TCKGf3wvZI&#xD;&#xa;+cK9YvfCgYf3wjIf+sLMMvfCpjz2wuA6+cII8vbCxDv1wmJG9sLka/rCPrT1wi589cLqjfbC9qP4&#xD;&#xa;wgzJ+MLelPbCGir2wlBC9sKeU/jC/nn3wsYn9sL4QPjCXBj5wopQ+MIaJvnCSB36wgjc+MIMfPfC&#xD;&#xa;W+z1wmYG+MKuxPnCCuD1wjh+9sLDrPfCOPj3wm7h+MJjMvfCxH/2wsXf98KwN/nCKOn5wrLR+sKg&#xD;&#xa;bPvCkFv5wsAu+cL2hffCySz2wmRX+MKiiPjCzFX4wvjB98Jgz/fCxPT4wobP+cL8avjC9r34wnKx&#xD;&#xa;+MK+LPnC3H34wle39cKejfbCNKP2wg5B9sK0H/rCSvz2woqE98JAqfjCBPL4wmKi+MIu2/jCMFD5&#xD;&#xa;wiCM+cKo//nCGqz7wlZN+sKUDfjC0ov4wrIU+sIVpffCP2/3woye98KktPbCTJj2wpH29cL3mvbC&#xD;&#xa;jL/4wti/+MLm3vjCQ9QE" leadInLength="0/1"  />
            </Keyframes>
           </Parameter>
           </Parameters>
          </GenericEffect>
          <GenericEffect id="5176" name = "WinCompression" >
           <Parameters>
           <InterpolatingParam id="5177" interp="linr"  time="0/1" value="0" leadInLength="0/1"   name="attack"/>
           <InterpolatingParam id="5178" interp="linr"  time="0/1" value="9" leadInLength="0/1"   name="gain"/>
           <Parameter id="5179"   name="preset">
            <Keyframes>
            <Keyframe id="5180"  time="0/1" value="1" leadInLength="0/1"  />
            </Keyframes>
           </Parameter>
           <InterpolatingParam id="5181" interp="linr"  time="0/1" value="10" leadInLength="0/1"   name="ratio"/>
           <InterpolatingParam id="5182" interp="linr"  time="0/1" value="3500" leadInLength="0/1"   name="release"/>
           <InterpolatingParam id="5183" interp="linr"  time="0/1" value="-20" leadInLength="0/1"   name="threshold"/>
           </Parameters>
          </GenericEffect>
          <GenericEffect id="5184" name = "Declipper" >
           <Parameters>
           <InterpolatingParam id="5185" interp="linr"  time="0/1" value="-1" leadInLength="0/1"   name="sensitivity"/>
           </Parameters>
          </GenericEffect>
          <GenericEffect id="5186" name = "Declicker" >
           <Parameters>
           <InterpolatingParam id="5187" interp="linr"  time="0/1" value="3" leadInLength="0/1"   name="sensitivity"/>
           </Parameters>
          </GenericEffect>
         </Effects>
         <Attributes>
          <Attribute id="5188" value="" name="ident"/>
          <Attribute id="5189" value="0" name="mixToMono"/>
         </Attributes>
         <MetaData>
          <entry key="WinSubProjectDisplayName" val=""/>
         </MetaData>
         <ExtraData>
          <Entry key="ZoomPanBin">
           <ZoomPanBin id="5190"  >
            <ZoomPanKeyframes>
            </ZoomPanKeyframes>
           </ZoomPanBin>
          </Entry>
          <Entry key="CursorEffectBin">
           <CursorEffectBin id="5191"  >
            <CursorEffectKeyframes>
            </CursorEffectKeyframes>
           </CursorEffectBin>
          </Entry>
         </ExtraData>
         <GenericTrack id="5192"  >
          <Attributes>
           <Attribute id="5193" value="" name="ident"/>
           <Attribute id="5194" value="0" name="audioMuted"/>
           <Attribute id="5195" value="0" name="videoHidden"/>
          </Attributes>
          <MetaData>
           <entry key="IsLocked" val="False"/>
           <entry key="WinTrackHeight" val="0"/>
          </MetaData>
          <Medias>
           <AMFile id="5196" start="0" duration="582" scalar="1/1" mediaStart="0/1" mediaDuration="582/1" trackNumber="0" src="22" channelNumber="0" >
            <Parameters>
             <InterpolatingParam id="5197" interp="linr"  time="0/1" value="1" leadInLength="0/1"  name="volume"/>
             <Parameter id="5198"  name="captions"/>
            </Parameters>
            <Attributes>
             <Attribute id="5199" value="" name="ident"/>
             <Attribute id="5200" value="44100" name="sampleRate"/>
             <Attribute id="5201" value="16" name="bitDepth"/>
             <Attribute id="5202" value="1" name="gain"/>
             <Attribute id="5203" value="0" name="mixToMono"/>
            </Attributes>
            <MetaData>
             <entry key="WinSubProjectDisplayName" val=""/>
            </MetaData>
           </AMFile>
           <AMFile id="5204" start="582" duration="769" scalar="1/1" mediaStart="971/1" mediaDuration="769/1" trackNumber="0" src="22" channelNumber="0" >
            <Parameters>
             <InterpolatingParam id="5205" interp="linr"  time="0/1" value="1" leadInLength="0/1"  name="volume"/>
             <Parameter id="5206"  name="captions"/>
            </Parameters>
            <Attributes>
             <Attribute id="5207" value="" name="ident"/>
             <Attribute id="5208" value="44100" name="sampleRate"/>
             <Attribute id="5209" value="16" name="bitDepth"/>
             <Attribute id="5210" value="1" name="gain"/>
             <Attribute id="5211" value="0" name="mixToMono"/>
            </Attributes>
            <MetaData>
             <entry key="WinSubProjectDisplayName" val=""/>
            </MetaData>
           </AMFile>
           <AMFile id="5212" start="1351" duration="135" scalar="1/1" mediaStart="1744/1" mediaDuration="135/1" trackNumber="0" src="22" channelNumber="0" >
            <Parameters>
             <InterpolatingParam id="5213" interp="linr"  time="0/1" value="1" leadInLength="0/1"  name="volume"/>
             <Parameter id="5214"  name="captions"/>
            </Parameters>
            <Attributes>
             <Attribute id="5215" value="" name="ident"/>
             <Attribute id="5216" value="44100" name="sampleRate"/>
             <Attribute id="5217" value="16" name="bitDepth"/>
             <Attribute id="5218" value="1" name="gain"/>
             <Attribute id="5219" value="0" name="mixToMono"/>
            </Attributes>
            <MetaData>
             <entry key="WinSubProjectDisplayName" val=""/>
            </MetaData>
           </AMFile>
           <AMFile id="5220" start="1486" duration="165" scalar="1/1" mediaStart="1884/1" mediaDuration="165/1" trackNumber="0" src="22" channelNumber="0" >
            <Parameters>
             <InterpolatingParam id="5221" interp="linr"  time="0/1" value="1" leadInLength="0/1"  name="volume"/>
             <Parameter id="5222"  name="captions"/>
            </Parameters>
            <Attributes>
             <Attribute id="5223" value="" name="ident"/>
             <Attribute id="5224" value="44100" name="sampleRate"/>
             <Attribute id="5225" value="16" name="bitDepth"/>
             <Attribute id="5226" value="1" name="gain"/>
             <Attribute id="5227" value="0" name="mixToMono"/>
            </Attributes>
            <MetaData>
             <entry key="WinSubProjectDisplayName" val=""/>
            </MetaData>
           </AMFile>
           <AMFile id="5228" start="1651" duration="2" scalar="1/1" mediaStart="2164/1" mediaDuration="2/1" trackNumber="0" src="22" channelNumber="0" >
            <Parameters>
             <InterpolatingParam id="5229" interp="linr"  time="0/1" value="1" leadInLength="0/1"  name="volume"/>
             <Parameter id="5230"  name="captions"/>
            </Parameters>
            <Attributes>
             <Attribute id="5231" value="" name="ident"/>
             <Attribute id="5232" value="44100" name="sampleRate"/>
             <Attribute id="5233" value="16" name="bitDepth"/>
             <Attribute id="5234" value="1" name="gain"/>
             <Attribute id="5235" value="0" name="mixToMono"/>
            </Attributes>
            <MetaData>
             <entry key="WinSubProjectDisplayName" val=""/>
            </MetaData>
           </AMFile>
           <AMFile id="5236" start="1653" duration="12072" scalar="1/1" mediaStart="2496/1" mediaDuration="12072/1" trackNumber="0" src="22" channelNumber="0" >
            <Parameters>
             <InterpolatingParam id="5237" interp="linr"  time="0/1" value="1" leadInLength="0/1"  name="volume"/>
             <Parameter id="5238"  name="captions"/>
            </Parameters>
            <Attributes>
             <Attribute id="5239" value="" name="ident"/>
             <Attribute id="5240" value="44100" name="sampleRate"/>
             <Attribute id="5241" value="16" name="bitDepth"/>
             <Attribute id="5242" value="1" name="gain"/>
             <Attribute id="5243" value="0" name="mixToMono"/>
            </Attributes>
            <MetaData>
             <entry key="WinSubProjectDisplayName" val=""/>
            </MetaData>
           </AMFile>
          </Medias>
         </GenericTrack>
        </StitchedMedia>
        <StitchedMedia id="5244" start="1136" duration="531" scalar="1/1" mediaStart="1387/1" mediaDuration="531/1" minMediaStart="0/1" >
         <Transformer>
          <VectorParam id="5245"  name="translation">
           <InterpolatingParam id="5246" interp="linr"  time="0/1" value="0" leadInLength="0/1"  />
           <InterpolatingParam id="5247" interp="linr"  time="0/1" value="0" leadInLength="0/1"  />
           <InterpolatingParam id="5248" interp="linr"  time="0/1" value="0" leadInLength="0/1"  />
          </VectorParam>
          <VectorParam id="5249"  name="rotation">
           <InterpolatingParam id="5250" interp="linr"  time="0/1" value="0" leadInLength="0/1"  />
           <InterpolatingParam id="5251" interp="linr"  time="0/1" value="0" leadInLength="0/1"  />
           <InterpolatingParam id="5252" interp="linr"  time="0/1" value="0" leadInLength="0/1"  />
          </VectorParam>
          <VectorParam id="5253"  name="shear">
           <InterpolatingParam id="5254" interp="linr"  time="0/1" value="0" leadInLength="0/1"  />
           <InterpolatingParam id="5255" interp="linr"  time="0/1" value="0" leadInLength="0/1"  />
           <InterpolatingParam id="5256" interp="linr"  time="0/1" value="0" leadInLength="0/1"  />
          </VectorParam>
          <VectorParam id="5257"  name="scale">
           <InterpolatingParam id="5258" interp="linr"  time="0/1" value="1" leadInLength="0/1"  />
           <InterpolatingParam id="5259" interp="linr"  time="0/1" value="1" leadInLength="0/1"  />
           <InterpolatingParam id="5260" interp="linr"  time="0/1" value="1" leadInLength="0/1"  />
          </VectorParam>
          <VectorParam id="5261"  name="anchor">
           <InterpolatingParam id="5262" interp="linr"  time="0/1" value="0" leadInLength="0/1"  />
           <InterpolatingParam id="5263" interp="linr"  time="0/1" value="0" leadInLength="0/1"  />
           <InterpolatingParam id="5264" interp="linr"  time="0/1" value="0" leadInLength="0/1"  />
          </VectorParam>
         </Transformer>
         <Parameters>
          <InterpolatingParam id="5265" interp="linr"  time="0/1" value="1" leadInLength="0/1"  name="cursorOpacity"/>
          <InterpolatingParam id="5266" interp="linr"  time="0/1" value="1" leadInLength="0/1"  name="cursorScale"/>
          <InterpolatingParam id="5267" interp="linr"  name="volume">
           <Keyframes>
           <Keyframe id="5268"  time="0/1" value="1" leadInLength="0/1"  />
           <Keyframe id="5269"  time="250/1" value="1" leadInLength="0/1"  />
           <Keyframe id="5270"  time="251/1" value="1.1290322580645158" leadInLength="0/1"  />
           <Keyframe id="5271"  time="1649/1" value="0.99342881480580003" leadInLength="0/1"  />
           <Keyframe id="5272"  time="1658/1" value="0.14888337468982277" leadInLength="0/1"  />
           <Keyframe id="5273"  time="1674/1" value="0.66997518610421691" leadInLength="0/1"  />
           <Keyframe id="5274"  time="1687/1" value="0.83145936724565606" leadInLength="0/1"  />
           <Keyframe id="5275"  time="1707/1" value="0.82603132754342279" leadInLength="0/1"  />
           <Keyframe id="5276"  time="1748/1" value="0.89058622828784029" leadInLength="0/1"  />
           <Keyframe id="5277"  time="1802/1" value="0.94292803970223205" leadInLength="0/1"  />
           <Keyframe id="5278"  time="1817/1" value="1.1290322580645158" leadInLength="0/1"  />
           <Keyframe id="5279"  time="1892/1" value="1.1290322580645158" leadInLength="0/1"  />
           <Keyframe id="5280"  time="1893/1" value="1" leadInLength="0/1"  />
           </Keyframes>
          </InterpolatingParam>
          <Parameter id="5281"  name="captions"/>
         </Parameters>
         <Effects>
          <GenericEffect id="5282" name = "NoiseReduction" >
           <Parameters>
           <InterpolatingParam id="5283" interp="linr"  time="0/1" value="20" leadInLength="0/1"   name="denoiserAmount"/>
           <InterpolatingParam id="5284" interp="linr"  time="0/1" value="0" leadInLength="0/1"   name="denoiserThreshold"/>
           <Parameter id="5285"   name="noiseProfile">
            <Keyframes>
            <Keyframe id="5286"  time="0/1" value="FBAAAAIAAABErAAAAQIAADOmYsI/y13CPNeLwsehjcK+No/Cm+aOwlHvjcIja5HCun6XwoKemMJy&#xD;&#xa;lpPCuQeRwhgMlcJGdZvCTjScwgFMncIGh5zCGrOawuO0nMJdJZ3Cybudwo6toMIdraPCs/6jwpY0&#xD;&#xa;psLIUqjCWQmpwonmp8KcE6XCgXGlwqC+psIFHabCBoyownWvqcIkX6jCgnCpwms3qsIW0KfCM7Oj&#xD;&#xa;wnGLosJgcKnCdk6swiIgscKFrbDCtNmowrZmpcIHYqjCCg2pwqUNq8KgHq7ChEGxwhVFs8KU6LLC&#xD;&#xa;dvWzwpVHscI6NrDCMpGwwubcs8Imh7bCPKq6wj7tvMKSbr3ClsG+wq4qwMLXQr7CpAK5whxiuMJp&#xD;&#xa;v7nCwu29wloQvsIXTL3CzjDAwsDTwcL69sHC8urAwtAFwMIkSMLCpJHDwjLOw8JG8sTCmMvDwq7H&#xD;&#xa;wsLOncPC+CDDwkh6wsLU5sPCP23Fwm5Qx8KlYsTCm0XCwnhexcLsTsPCSMPDwjvJw8LMWcHC2XHD&#xD;&#xa;wjj5wsICs8TChWvEwgCywcKDdcHCFnHCwurMxMLlVsTCfrDGwmzqyMKoGsfC7ITIwtqRyMJwzcbC&#xD;&#xa;ppbEwiv5xcIXxsTCzDfCwtSExMKEjcTC8ObDwiJ9yMIQm8vCIkDGwqHyxcIyYcbCyAXIwmyBx8I4&#xD;&#xa;n8PCvyPGwuiKxMJggMfCdL3JwsMhysLi6sXCRa7Ewoykx8Jk/MXC0NfEwtK0xcJQTMTCvvvGwtqJ&#xD;&#xa;xMKmFsTCSbfGwq76x8IQ+sjCsqnIwkJdycIaT8fC0nbHwlf2xsLg/cbCtIHHwsTvxsI0KsbCsqDH&#xD;&#xa;wgLix8JGKcXCyNTDwjDwwsIb98bC6MjJwg6Zy8Kg+cvCaC3HwtIgw8KW7sXC3EHGwmcUxcL++8fC&#xD;&#xa;CWbIwsDoxsJFz8PCJkXFwiD7xcIQDsfC8ljIwrDLxMKkeMLClpHEwiqgyMJcjcjC6krGwl50w8Iy&#xD;&#xa;7sXCWv3HwkQ1xsKUwMPC2K/EwootxMJUqMTCH3LDwuojxcKil8fCjmXIwkLJxcID78TClTvGwhel&#xD;&#xa;xsIca8bC1rbCwk6+wsIQfsfCIlPHwpJExcLWhMbCDNvEwuryxMKklMXCeBDDwolhwcIiasLCQYfE&#xD;&#xa;whUfwsJx4MTCsEnIwkX0xcK+3sbCIqLHwrARx8IWtMTCGAnFwomNxMLfbcTCQIPDwjqww8L+MMTC&#xD;&#xa;mqjHwrBaxMI6YsTCxmvIwqyKycKQaMXCnx7FwkYvx8In6sjCGMzIwuvAxcL8a8XCiBjJwkvwyMKI&#xD;&#xa;qMbCTCTIwvQSy8IxEsvCVT/JwrI3w8LA8sLCCD7EwsxXxMJSjsXCfjXFwqTKxMI/gsPCDozDwtwF&#xD;&#xa;xMISn8bChHvJwlFQyMJYCsbCP4jIwtkBycLiFsrCbCrKwvyTysIWncnC+A3HwuI5x8I8/MbC0hHI&#xD;&#xa;wopJzMLmb83CFkvMwpy/y8Kn7MrCfJrJwuLDyMJKn8bCStTGwpb7ycIMo8nCcivFwsapxcJkx8bC&#xD;&#xa;ALLIwriaycJM3cfC8r/KwlSoy8I4A8vCpFHJwkRrzMIKr87CWD7MwsiJycKW9cfCUjbKwq+YycLi&#xD;&#xa;U8jCROHHwhdWycKaU8nCF7jMwmKaz8L//8zC8tjOwjxezsIUysvCzHLJwiJryMLRm8bCgLjKwsi8&#xD;&#xa;ysIhfszCPETLwqtbyMJGeMfCpRPJwnwZzMJSIs3CqhPMwmDiyMLZYsjCz13KwgwKy8LCi8jCyrTM&#xD;&#xa;wgwxzMK4ZcvC087JwkV2xsLyXsnCjIbLwhwvzcLfrM7CeITKwla3ysLK3cnC/PHFwpScxcIUQ8nC&#xD;&#xa;NJzIwrEsxsJvZcfCXSvIwlKLx8JII8nCvgzKwpnhysJSC8vC9iTKwiA/y8IadczCuDrMwuVaysLO&#xD;&#xa;r8vCXtfJwrZ6ycItucnCtonJwjyTysJkC83CL0nMwkjdyMIBucfCixrLwvSDysKGX8nCsCzMwuas&#xD;&#xa;0cIsnNPCuEvOwtr5y8LMBc7Cr+PTwsQc5MLcOfPCKOj0wjr59cJ0C/fCzg75wkwh+8LmVPnCqz72&#xD;&#xa;wnB+9cLuJvrCtEL4wkp7+MLOfffCDN3zwkaz9sLi8vjCFKr6wgIQ+cI8iPjCBpT4wvR1+MLQI/rC&#xD;&#xa;Ihn8wlQg+sIcLvjCVCz2wsI49MJQ9fbC23H3woy69sL4BfnCIOb2wjwy9cIuGvnCdmb3wj7K9MI+&#xD;&#xa;KPXCJpr2wn7C9cKQDvnCthv7woaP+cLGaPbCTr32wrpN+cIFSPjCDvX4wtD39sJY//TCKGf3wvZI&#xD;&#xa;+cK9YvfCgYf3wjIf+sLMMvfCpjz2wuA6+cII8vbCxDv1wmJG9sLka/rCPrT1wi589cLqjfbC9qP4&#xD;&#xa;wgzJ+MLelPbCGir2wlBC9sKeU/jC/nn3wsYn9sL4QPjCXBj5wopQ+MIaJvnCSB36wgjc+MIMfPfC&#xD;&#xa;W+z1wmYG+MKuxPnCCuD1wjh+9sLDrPfCOPj3wm7h+MJjMvfCxH/2wsXf98KwN/nCKOn5wrLR+sKg&#xD;&#xa;bPvCkFv5wsAu+cL2hffCySz2wmRX+MKiiPjCzFX4wvjB98Jgz/fCxPT4wobP+cL8avjC9r34wnKx&#xD;&#xa;+MK+LPnC3H34wle39cKejfbCNKP2wg5B9sK0H/rCSvz2woqE98JAqfjCBPL4wmKi+MIu2/jCMFD5&#xD;&#xa;wiCM+cKo//nCGqz7wlZN+sKUDfjC0ov4wrIU+sIVpffCP2/3woye98KktPbCTJj2wpH29cL3mvbC&#xD;&#xa;jL/4wti/+MLm3vjCQ9QEwzOmYsI/y13CPNeLwsehjcK+No/Cm+aOwlHvjcIja5HCun6XwoKemMJy&#xD;&#xa;lpPCuQeRwhgMlcJGdZvCTjScwgFMncIGh5zCGrOawuO0nMJdJZ3Cybudwo6toMIdraPCs/6jwpY0&#xD;&#xa;psLIUqjCWQmpwonmp8KcE6XCgXGlwqC+psIFHabCBoyownWvqcIkX6jCgnCpwms3qsIW0KfCM7Oj&#xD;&#xa;wnGLosJgcKnCdk6swiIgscKFrbDCtNmowrZmpcIHYqjCCg2pwqUNq8KgHq7ChEGxwhVFs8KU6LLC&#xD;&#xa;dvWzwpVHscI6NrDCMpGwwubcs8Imh7bCPKq6wj7tvMKSbr3ClsG+wq4qwMLXQr7CpAK5whxiuMJp&#xD;&#xa;v7nCwu29wloQvsIXTL3CzjDAwsDTwcL69sHC8urAwtAFwMIkSMLCpJHDwjLOw8JG8sTCmMvDwq7H&#xD;&#xa;wsLOncPC+CDDwkh6wsLU5sPCP23Fwm5Qx8KlYsTCm0XCwnhexcLsTsPCSMPDwjvJw8LMWcHC2XHD&#xD;&#xa;wjj5wsICs8TChWvEwgCywcKDdcHCFnHCwurMxMLlVsTCfrDGwmzqyMKoGsfC7ITIwtqRyMJwzcbC&#xD;&#xa;ppbEwiv5xcIXxsTCzDfCwtSExMKEjcTC8ObDwiJ9yMIQm8vCIkDGwqHyxcIyYcbCyAXIwmyBx8I4&#xD;&#xa;n8PCvyPGwuiKxMJggMfCdL3JwsMhysLi6sXCRa7Ewoykx8Jk/MXC0NfEwtK0xcJQTMTCvvvGwtqJ&#xD;&#xa;xMKmFsTCSbfGwq76x8IQ+sjCsqnIwkJdycIaT8fC0nbHwlf2xsLg/cbCtIHHwsTvxsI0KsbCsqDH&#xD;&#xa;wgLix8JGKcXCyNTDwjDwwsIb98bC6MjJwg6Zy8Kg+cvCaC3HwtIgw8KW7sXC3EHGwmcUxcL++8fC&#xD;&#xa;CWbIwsDoxsJFz8PCJkXFwiD7xcIQDsfC8ljIwrDLxMKkeMLClpHEwiqgyMJcjcjC6krGwl50w8Iy&#xD;&#xa;7sXCWv3HwkQ1xsKUwMPC2K/EwootxMJUqMTCH3LDwuojxcKil8fCjmXIwkLJxcID78TClTvGwhel&#xD;&#xa;xsIca8bC1rbCwk6+wsIQfsfCIlPHwpJExcLWhMbCDNvEwuryxMKklMXCeBDDwolhwcIiasLCQYfE&#xD;&#xa;whUfwsJx4MTCsEnIwkX0xcK+3sbCIqLHwrARx8IWtMTCGAnFwomNxMLfbcTCQIPDwjqww8L+MMTC&#xD;&#xa;mqjHwrBaxMI6YsTCxmvIwqyKycKQaMXCnx7FwkYvx8In6sjCGMzIwuvAxcL8a8XCiBjJwkvwyMKI&#xD;&#xa;qMbCTCTIwvQSy8IxEsvCVT/JwrI3w8LA8sLCCD7EwsxXxMJSjsXCfjXFwqTKxMI/gsPCDozDwtwF&#xD;&#xa;xMISn8bChHvJwlFQyMJYCsbCP4jIwtkBycLiFsrCbCrKwvyTysIWncnC+A3HwuI5x8I8/MbC0hHI&#xD;&#xa;wopJzMLmb83CFkvMwpy/y8Kn7MrCfJrJwuLDyMJKn8bCStTGwpb7ycIMo8nCcivFwsapxcJkx8bC&#xD;&#xa;ALLIwriaycJM3cfC8r/KwlSoy8I4A8vCpFHJwkRrzMIKr87CWD7MwsiJycKW9cfCUjbKwq+YycLi&#xD;&#xa;U8jCROHHwhdWycKaU8nCF7jMwmKaz8L//8zC8tjOwjxezsIUysvCzHLJwiJryMLRm8bCgLjKwsi8&#xD;&#xa;ysIhfszCPETLwqtbyMJGeMfCpRPJwnwZzMJSIs3CqhPMwmDiyMLZYsjCz13KwgwKy8LCi8jCyrTM&#xD;&#xa;wgwxzMK4ZcvC087JwkV2xsLyXsnCjIbLwhwvzcLfrM7CeITKwla3ysLK3cnC/PHFwpScxcIUQ8nC&#xD;&#xa;NJzIwrEsxsJvZcfCXSvIwlKLx8JII8nCvgzKwpnhysJSC8vC9iTKwiA/y8IadczCuDrMwuVaysLO&#xD;&#xa;r8vCXtfJwrZ6ycItucnCtonJwjyTysJkC83CL0nMwkjdyMIBucfCixrLwvSDysKGX8nCsCzMwuas&#xD;&#xa;0cIsnNPCuEvOwtr5y8LMBc7Cr+PTwsQc5MLcOfPCKOj0wjr59cJ0C/fCzg75wkwh+8LmVPnCqz72&#xD;&#xa;wnB+9cLuJvrCtEL4wkp7+MLOfffCDN3zwkaz9sLi8vjCFKr6wgIQ+cI8iPjCBpT4wvR1+MLQI/rC&#xD;&#xa;Ihn8wlQg+sIcLvjCVCz2wsI49MJQ9fbC23H3woy69sL4BfnCIOb2wjwy9cIuGvnCdmb3wj7K9MI+&#xD;&#xa;KPXCJpr2wn7C9cKQDvnCthv7woaP+cLGaPbCTr32wrpN+cIFSPjCDvX4wtD39sJY//TCKGf3wvZI&#xD;&#xa;+cK9YvfCgYf3wjIf+sLMMvfCpjz2wuA6+cII8vbCxDv1wmJG9sLka/rCPrT1wi589cLqjfbC9qP4&#xD;&#xa;wgzJ+MLelPbCGir2wlBC9sKeU/jC/nn3wsYn9sL4QPjCXBj5wopQ+MIaJvnCSB36wgjc+MIMfPfC&#xD;&#xa;W+z1wmYG+MKuxPnCCuD1wjh+9sLDrPfCOPj3wm7h+MJjMvfCxH/2wsXf98KwN/nCKOn5wrLR+sKg&#xD;&#xa;bPvCkFv5wsAu+cL2hffCySz2wmRX+MKiiPjCzFX4wvjB98Jgz/fCxPT4wobP+cL8avjC9r34wnKx&#xD;&#xa;+MK+LPnC3H34wle39cKejfbCNKP2wg5B9sK0H/rCSvz2woqE98JAqfjCBPL4wmKi+MIu2/jCMFD5&#xD;&#xa;wiCM+cKo//nCGqz7wlZN+sKUDfjC0ov4wrIU+sIVpffCP2/3woye98KktPbCTJj2wpH29cL3mvbC&#xD;&#xa;jL/4wti/+MLm3vjCQ9QE" leadInLength="0/1"  />
            </Keyframes>
           </Parameter>
           </Parameters>
          </GenericEffect>
          <GenericEffect id="5287" name = "WinCompression" >
           <Parameters>
           <InterpolatingParam id="5288" interp="linr"  time="0/1" value="0" leadInLength="0/1"   name="attack"/>
           <InterpolatingParam id="5289" interp="linr"  time="0/1" value="9" leadInLength="0/1"   name="gain"/>
           <Parameter id="5290"   name="preset">
            <Keyframes>
            <Keyframe id="5291"  time="0/1" value="1" leadInLength="0/1"  />
            </Keyframes>
           </Parameter>
           <InterpolatingParam id="5292" interp="linr"  time="0/1" value="10" leadInLength="0/1"   name="ratio"/>
           <InterpolatingParam id="5293" interp="linr"  time="0/1" value="3500" leadInLength="0/1"   name="release"/>
           <InterpolatingParam id="5294" interp="linr"  time="0/1" value="-20" leadInLength="0/1"   name="threshold"/>
           </Parameters>
          </GenericEffect>
          <GenericEffect id="5295" name = "Declipper" >
           <Parameters>
           <InterpolatingParam id="5296" interp="linr"  time="0/1" value="-1" leadInLength="0/1"   name="sensitivity"/>
           </Parameters>
          </GenericEffect>
          <GenericEffect id="5297" name = "Declicker" >
           <Parameters>
           <InterpolatingParam id="5298" interp="linr"  time="0/1" value="3" leadInLength="0/1"   name="sensitivity"/>
           </Parameters>
          </GenericEffect>
         </Effects>
         <Attributes>
          <Attribute id="5299" value="" name="ident"/>
          <Attribute id="5300" value="0" name="mixToMono"/>
         </Attributes>
         <MetaData>
          <entry key="WinSubProjectDisplayName" val=""/>
         </MetaData>
         <ExtraData>
          <Entry key="ZoomPanBin">
           <ZoomPanBin id="5301"  >
            <ZoomPanKeyframes>
            </ZoomPanKeyframes>
           </ZoomPanBin>
          </Entry>
          <Entry key="CursorEffectBin">
           <CursorEffectBin id="5302"  >
            <CursorEffectKeyframes>
            </CursorEffectKeyframes>
           </CursorEffectBin>
          </Entry>
         </ExtraData>
         <GenericTrack id="5303"  >
          <Attributes>
           <Attribute id="5304" value="" name="ident"/>
           <Attribute id="5305" value="0" name="audioMuted"/>
           <Attribute id="5306" value="0" name="videoHidden"/>
          </Attributes>
          <MetaData>
           <entry key="IsLocked" val="False"/>
           <entry key="WinTrackHeight" val="0"/>
          </MetaData>
          <Medias>
           <AMFile id="5307" start="0" duration="582" scalar="1/1" mediaStart="0/1" mediaDuration="582/1" trackNumber="0" src="22" channelNumber="0" >
            <Parameters>
             <InterpolatingParam id="5308" interp="linr"  time="0/1" value="1" leadInLength="0/1"  name="volume"/>
             <Parameter id="5309"  name="captions"/>
            </Parameters>
            <Attributes>
             <Attribute id="5310" value="" name="ident"/>
             <Attribute id="5311" value="44100" name="sampleRate"/>
             <Attribute id="5312" value="16" name="bitDepth"/>
             <Attribute id="5313" value="1" name="gain"/>
             <Attribute id="5314" value="0" name="mixToMono"/>
            </Attributes>
            <MetaData>
             <entry key="WinSubProjectDisplayName" val=""/>
            </MetaData>
           </AMFile>
           <AMFile id="5315" start="582" duration="908" scalar="1/1" mediaStart="971/1" mediaDuration="908/1" trackNumber="0" src="22" channelNumber="0" >
            <Parameters>
             <InterpolatingParam id="5316" interp="linr"  time="0/1" value="1" leadInLength="0/1"  name="volume"/>
             <Parameter id="5317"  name="captions"/>
            </Parameters>
            <Attributes>
             <Attribute id="5318" value="" name="ident"/>
             <Attribute id="5319" value="44100" name="sampleRate"/>
             <Attribute id="5320" value="16" name="bitDepth"/>
             <Attribute id="5321" value="1" name="gain"/>
             <Attribute id="5322" value="0" name="mixToMono"/>
            </Attributes>
            <MetaData>
             <entry key="WinSubProjectDisplayName" val=""/>
            </MetaData>
           </AMFile>
           <AMFile id="5323" start="1490" duration="165" scalar="1/1" mediaStart="1884/1" mediaDuration="165/1" trackNumber="0" src="22" channelNumber="0" >
            <Parameters>
             <InterpolatingParam id="5324" interp="linr"  time="0/1" value="1" leadInLength="0/1"  name="volume"/>
             <Parameter id="5325"  name="captions"/>
            </Parameters>
            <Attributes>
             <Attribute id="5326" value="" name="ident"/>
             <Attribute id="5327" value="44100" name="sampleRate"/>
             <Attribute id="5328" value="16" name="bitDepth"/>
             <Attribute id="5329" value="1" name="gain"/>
             <Attribute id="5330" value="0" name="mixToMono"/>
            </Attributes>
            <MetaData>
             <entry key="WinSubProjectDisplayName" val=""/>
            </MetaData>
           </AMFile>
           <AMFile id="5331" start="1655" duration="2" scalar="1/1" mediaStart="2164/1" mediaDuration="2/1" trackNumber="0" src="22" channelNumber="0" >
            <Parameters>
             <InterpolatingParam id="5332" interp="linr"  time="0/1" value="1" leadInLength="0/1"  name="volume"/>
             <Parameter id="5333"  name="captions"/>
            </Parameters>
            <Attributes>
             <Attribute id="5334" value="" name="ident"/>
             <Attribute id="5335" value="44100" name="sampleRate"/>
             <Attribute id="5336" value="16" name="bitDepth"/>
             <Attribute id="5337" value="1" name="gain"/>
             <Attribute id="5338" value="0" name="mixToMono"/>
            </Attributes>
            <MetaData>
             <entry key="WinSubProjectDisplayName" val=""/>
            </MetaData>
           </AMFile>
           <AMFile id="5339" start="1657" duration="12072" scalar="1/1" mediaStart="2496/1" mediaDuration="12072/1" trackNumber="0" src="22" channelNumber="0" >
            <Parameters>
             <InterpolatingParam id="5340" interp="linr"  time="0/1" value="1" leadInLength="0/1"  name="volume"/>
             <Parameter id="5341"  name="captions"/>
            </Parameters>
            <Attributes>
             <Attribute id="5342" value="" name="ident"/>
             <Attribute id="5343" value="44100" name="sampleRate"/>
             <Attribute id="5344" value="16" name="bitDepth"/>
             <Attribute id="5345" value="1" name="gain"/>
             <Attribute id="5346" value="0" name="mixToMono"/>
            </Attributes>
            <MetaData>
             <entry key="WinSubProjectDisplayName" val=""/>
            </MetaData>
           </AMFile>
          </Medias>
         </GenericTrack>
        </StitchedMedia>
        <AMFile id="5347" start="1673" duration="200" scalar="1/1" mediaStart="2768/1" mediaDuration="200/1" trackNumber="0" src="22" channelNumber="0" >
         <Parameters>
          <InterpolatingParam id="5348" interp="linr"  name="volume">
           <Keyframes>
           <Keyframe id="5349"  time="0/1" value="1" leadInLength="0/1"  />
           <Keyframe id="5350"  time="2730/1" value="1" leadInLength="0/1"  />
           <Keyframe id="5351"  time="2731/1" value="0.99255583126550895" leadInLength="0/1"  />
           <Keyframe id="5352"  time="2968/1" value="0.99255583126550895" leadInLength="0/1"  />
           <Keyframe id="5353"  time="2969/1" value="1" leadInLength="0/1"  />
           </Keyframes>
          </InterpolatingParam>
          <Parameter id="5354"  name="captions"/>
         </Parameters>
         <Effects>
          <GenericEffect id="5355" name = "NoiseReduction" >
           <Parameters>
           <InterpolatingParam id="5356" interp="linr"  time="0/1" value="20" leadInLength="0/1"   name="denoiserAmount"/>
           <InterpolatingParam id="5357" interp="linr"  time="0/1" value="0" leadInLength="0/1"   name="denoiserThreshold"/>
           <Parameter id="5358"   name="noiseProfile">
            <Keyframes>
            <Keyframe id="5359"  time="0/1" value="FBAAAAIAAABErAAAAQIAADOmYsI/y13CPNeLwsehjcK+No/Cm+aOwlHvjcIja5HCun6XwoKemMJy&#xD;&#xa;lpPCuQeRwhgMlcJGdZvCTjScwgFMncIGh5zCGrOawuO0nMJdJZ3Cybudwo6toMIdraPCs/6jwpY0&#xD;&#xa;psLIUqjCWQmpwonmp8KcE6XCgXGlwqC+psIFHabCBoyownWvqcIkX6jCgnCpwms3qsIW0KfCM7Oj&#xD;&#xa;wnGLosJgcKnCdk6swiIgscKFrbDCtNmowrZmpcIHYqjCCg2pwqUNq8KgHq7ChEGxwhVFs8KU6LLC&#xD;&#xa;dvWzwpVHscI6NrDCMpGwwubcs8Imh7bCPKq6wj7tvMKSbr3ClsG+wq4qwMLXQr7CpAK5whxiuMJp&#xD;&#xa;v7nCwu29wloQvsIXTL3CzjDAwsDTwcL69sHC8urAwtAFwMIkSMLCpJHDwjLOw8JG8sTCmMvDwq7H&#xD;&#xa;wsLOncPC+CDDwkh6wsLU5sPCP23Fwm5Qx8KlYsTCm0XCwnhexcLsTsPCSMPDwjvJw8LMWcHC2XHD&#xD;&#xa;wjj5wsICs8TChWvEwgCywcKDdcHCFnHCwurMxMLlVsTCfrDGwmzqyMKoGsfC7ITIwtqRyMJwzcbC&#xD;&#xa;ppbEwiv5xcIXxsTCzDfCwtSExMKEjcTC8ObDwiJ9yMIQm8vCIkDGwqHyxcIyYcbCyAXIwmyBx8I4&#xD;&#xa;n8PCvyPGwuiKxMJggMfCdL3JwsMhysLi6sXCRa7Ewoykx8Jk/MXC0NfEwtK0xcJQTMTCvvvGwtqJ&#xD;&#xa;xMKmFsTCSbfGwq76x8IQ+sjCsqnIwkJdycIaT8fC0nbHwlf2xsLg/cbCtIHHwsTvxsI0KsbCsqDH&#xD;&#xa;wgLix8JGKcXCyNTDwjDwwsIb98bC6MjJwg6Zy8Kg+cvCaC3HwtIgw8KW7sXC3EHGwmcUxcL++8fC&#xD;&#xa;CWbIwsDoxsJFz8PCJkXFwiD7xcIQDsfC8ljIwrDLxMKkeMLClpHEwiqgyMJcjcjC6krGwl50w8Iy&#xD;&#xa;7sXCWv3HwkQ1xsKUwMPC2K/EwootxMJUqMTCH3LDwuojxcKil8fCjmXIwkLJxcID78TClTvGwhel&#xD;&#xa;xsIca8bC1rbCwk6+wsIQfsfCIlPHwpJExcLWhMbCDNvEwuryxMKklMXCeBDDwolhwcIiasLCQYfE&#xD;&#xa;whUfwsJx4MTCsEnIwkX0xcK+3sbCIqLHwrARx8IWtMTCGAnFwomNxMLfbcTCQIPDwjqww8L+MMTC&#xD;&#xa;mqjHwrBaxMI6YsTCxmvIwqyKycKQaMXCnx7FwkYvx8In6sjCGMzIwuvAxcL8a8XCiBjJwkvwyMKI&#xD;&#xa;qMbCTCTIwvQSy8IxEsvCVT/JwrI3w8LA8sLCCD7EwsxXxMJSjsXCfjXFwqTKxMI/gsPCDozDwtwF&#xD;&#xa;xMISn8bChHvJwlFQyMJYCsbCP4jIwtkBycLiFsrCbCrKwvyTysIWncnC+A3HwuI5x8I8/MbC0hHI&#xD;&#xa;wopJzMLmb83CFkvMwpy/y8Kn7MrCfJrJwuLDyMJKn8bCStTGwpb7ycIMo8nCcivFwsapxcJkx8bC&#xD;&#xa;ALLIwriaycJM3cfC8r/KwlSoy8I4A8vCpFHJwkRrzMIKr87CWD7MwsiJycKW9cfCUjbKwq+YycLi&#xD;&#xa;U8jCROHHwhdWycKaU8nCF7jMwmKaz8L//8zC8tjOwjxezsIUysvCzHLJwiJryMLRm8bCgLjKwsi8&#xD;&#xa;ysIhfszCPETLwqtbyMJGeMfCpRPJwnwZzMJSIs3CqhPMwmDiyMLZYsjCz13KwgwKy8LCi8jCyrTM&#xD;&#xa;wgwxzMK4ZcvC087JwkV2xsLyXsnCjIbLwhwvzcLfrM7CeITKwla3ysLK3cnC/PHFwpScxcIUQ8nC&#xD;&#xa;NJzIwrEsxsJvZcfCXSvIwlKLx8JII8nCvgzKwpnhysJSC8vC9iTKwiA/y8IadczCuDrMwuVaysLO&#xD;&#xa;r8vCXtfJwrZ6ycItucnCtonJwjyTysJkC83CL0nMwkjdyMIBucfCixrLwvSDysKGX8nCsCzMwuas&#xD;&#xa;0cIsnNPCuEvOwtr5y8LMBc7Cr+PTwsQc5MLcOfPCKOj0wjr59cJ0C/fCzg75wkwh+8LmVPnCqz72&#xD;&#xa;wnB+9cLuJvrCtEL4wkp7+MLOfffCDN3zwkaz9sLi8vjCFKr6wgIQ+cI8iPjCBpT4wvR1+MLQI/rC&#xD;&#xa;Ihn8wlQg+sIcLvjCVCz2wsI49MJQ9fbC23H3woy69sL4BfnCIOb2wjwy9cIuGvnCdmb3wj7K9MI+&#xD;&#xa;KPXCJpr2wn7C9cKQDvnCthv7woaP+cLGaPbCTr32wrpN+cIFSPjCDvX4wtD39sJY//TCKGf3wvZI&#xD;&#xa;+cK9YvfCgYf3wjIf+sLMMvfCpjz2wuA6+cII8vbCxDv1wmJG9sLka/rCPrT1wi589cLqjfbC9qP4&#xD;&#xa;wgzJ+MLelPbCGir2wlBC9sKeU/jC/nn3wsYn9sL4QPjCXBj5wopQ+MIaJvnCSB36wgjc+MIMfPfC&#xD;&#xa;W+z1wmYG+MKuxPnCCuD1wjh+9sLDrPfCOPj3wm7h+MJjMvfCxH/2wsXf98KwN/nCKOn5wrLR+sKg&#xD;&#xa;bPvCkFv5wsAu+cL2hffCySz2wmRX+MKiiPjCzFX4wvjB98Jgz/fCxPT4wobP+cL8avjC9r34wnKx&#xD;&#xa;+MK+LPnC3H34wle39cKejfbCNKP2wg5B9sK0H/rCSvz2woqE98JAqfjCBPL4wmKi+MIu2/jCMFD5&#xD;&#xa;wiCM+cKo//nCGqz7wlZN+sKUDfjC0ov4wrIU+sIVpffCP2/3woye98KktPbCTJj2wpH29cL3mvbC&#xD;&#xa;jL/4wti/+MLm3vjCQ9QEwzOmYsI/y13CPNeLwsehjcK+No/Cm+aOwlHvjcIja5HCun6XwoKemMJy&#xD;&#xa;lpPCuQeRwhgMlcJGdZvCTjScwgFMncIGh5zCGrOawuO0nMJdJZ3Cybudwo6toMIdraPCs/6jwpY0&#xD;&#xa;psLIUqjCWQmpwonmp8KcE6XCgXGlwqC+psIFHabCBoyownWvqcIkX6jCgnCpwms3qsIW0KfCM7Oj&#xD;&#xa;wnGLosJgcKnCdk6swiIgscKFrbDCtNmowrZmpcIHYqjCCg2pwqUNq8KgHq7ChEGxwhVFs8KU6LLC&#xD;&#xa;dvWzwpVHscI6NrDCMpGwwubcs8Imh7bCPKq6wj7tvMKSbr3ClsG+wq4qwMLXQr7CpAK5whxiuMJp&#xD;&#xa;v7nCwu29wloQvsIXTL3CzjDAwsDTwcL69sHC8urAwtAFwMIkSMLCpJHDwjLOw8JG8sTCmMvDwq7H&#xD;&#xa;wsLOncPC+CDDwkh6wsLU5sPCP23Fwm5Qx8KlYsTCm0XCwnhexcLsTsPCSMPDwjvJw8LMWcHC2XHD&#xD;&#xa;wjj5wsICs8TChWvEwgCywcKDdcHCFnHCwurMxMLlVsTCfrDGwmzqyMKoGsfC7ITIwtqRyMJwzcbC&#xD;&#xa;ppbEwiv5xcIXxsTCzDfCwtSExMKEjcTC8ObDwiJ9yMIQm8vCIkDGwqHyxcIyYcbCyAXIwmyBx8I4&#xD;&#xa;n8PCvyPGwuiKxMJggMfCdL3JwsMhysLi6sXCRa7Ewoykx8Jk/MXC0NfEwtK0xcJQTMTCvvvGwtqJ&#xD;&#xa;xMKmFsTCSbfGwq76x8IQ+sjCsqnIwkJdycIaT8fC0nbHwlf2xsLg/cbCtIHHwsTvxsI0KsbCsqDH&#xD;&#xa;wgLix8JGKcXCyNTDwjDwwsIb98bC6MjJwg6Zy8Kg+cvCaC3HwtIgw8KW7sXC3EHGwmcUxcL++8fC&#xD;&#xa;CWbIwsDoxsJFz8PCJkXFwiD7xcIQDsfC8ljIwrDLxMKkeMLClpHEwiqgyMJcjcjC6krGwl50w8Iy&#xD;&#xa;7sXCWv3HwkQ1xsKUwMPC2K/EwootxMJUqMTCH3LDwuojxcKil8fCjmXIwkLJxcID78TClTvGwhel&#xD;&#xa;xsIca8bC1rbCwk6+wsIQfsfCIlPHwpJExcLWhMbCDNvEwuryxMKklMXCeBDDwolhwcIiasLCQYfE&#xD;&#xa;whUfwsJx4MTCsEnIwkX0xcK+3sbCIqLHwrARx8IWtMTCGAnFwomNxMLfbcTCQIPDwjqww8L+MMTC&#xD;&#xa;mqjHwrBaxMI6YsTCxmvIwqyKycKQaMXCnx7FwkYvx8In6sjCGMzIwuvAxcL8a8XCiBjJwkvwyMKI&#xD;&#xa;qMbCTCTIwvQSy8IxEsvCVT/JwrI3w8LA8sLCCD7EwsxXxMJSjsXCfjXFwqTKxMI/gsPCDozDwtwF&#xD;&#xa;xMISn8bChHvJwlFQyMJYCsbCP4jIwtkBycLiFsrCbCrKwvyTysIWncnC+A3HwuI5x8I8/MbC0hHI&#xD;&#xa;wopJzMLmb83CFkvMwpy/y8Kn7MrCfJrJwuLDyMJKn8bCStTGwpb7ycIMo8nCcivFwsapxcJkx8bC&#xD;&#xa;ALLIwriaycJM3cfC8r/KwlSoy8I4A8vCpFHJwkRrzMIKr87CWD7MwsiJycKW9cfCUjbKwq+YycLi&#xD;&#xa;U8jCROHHwhdWycKaU8nCF7jMwmKaz8L//8zC8tjOwjxezsIUysvCzHLJwiJryMLRm8bCgLjKwsi8&#xD;&#xa;ysIhfszCPETLwqtbyMJGeMfCpRPJwnwZzMJSIs3CqhPMwmDiyMLZYsjCz13KwgwKy8LCi8jCyrTM&#xD;&#xa;wgwxzMK4ZcvC087JwkV2xsLyXsnCjIbLwhwvzcLfrM7CeITKwla3ysLK3cnC/PHFwpScxcIUQ8nC&#xD;&#xa;NJzIwrEsxsJvZcfCXSvIwlKLx8JII8nCvgzKwpnhysJSC8vC9iTKwiA/y8IadczCuDrMwuVaysLO&#xD;&#xa;r8vCXtfJwrZ6ycItucnCtonJwjyTysJkC83CL0nMwkjdyMIBucfCixrLwvSDysKGX8nCsCzMwuas&#xD;&#xa;0cIsnNPCuEvOwtr5y8LMBc7Cr+PTwsQc5MLcOfPCKOj0wjr59cJ0C/fCzg75wkwh+8LmVPnCqz72&#xD;&#xa;wnB+9cLuJvrCtEL4wkp7+MLOfffCDN3zwkaz9sLi8vjCFKr6wgIQ+cI8iPjCBpT4wvR1+MLQI/rC&#xD;&#xa;Ihn8wlQg+sIcLvjCVCz2wsI49MJQ9fbC23H3woy69sL4BfnCIOb2wjwy9cIuGvnCdmb3wj7K9MI+&#xD;&#xa;KPXCJpr2wn7C9cKQDvnCthv7woaP+cLGaPbCTr32wrpN+cIFSPjCDvX4wtD39sJY//TCKGf3wvZI&#xD;&#xa;+cK9YvfCgYf3wjIf+sLMMvfCpjz2wuA6+cII8vbCxDv1wmJG9sLka/rCPrT1wi589cLqjfbC9qP4&#xD;&#xa;wgzJ+MLelPbCGir2wlBC9sKeU/jC/nn3wsYn9sL4QPjCXBj5wopQ+MIaJvnCSB36wgjc+MIMfPfC&#xD;&#xa;W+z1wmYG+MKuxPnCCuD1wjh+9sLDrPfCOPj3wm7h+MJjMvfCxH/2wsXf98KwN/nCKOn5wrLR+sKg&#xD;&#xa;bPvCkFv5wsAu+cL2hffCySz2wmRX+MKiiPjCzFX4wvjB98Jgz/fCxPT4wobP+cL8avjC9r34wnKx&#xD;&#xa;+MK+LPnC3H34wle39cKejfbCNKP2wg5B9sK0H/rCSvz2woqE98JAqfjCBPL4wmKi+MIu2/jCMFD5&#xD;&#xa;wiCM+cKo//nCGqz7wlZN+sKUDfjC0ov4wrIU+sIVpffCP2/3woye98KktPbCTJj2wpH29cL3mvbC&#xD;&#xa;jL/4wti/+MLm3vjCQ9QE" leadInLength="0/1"  />
            </Keyframes>
           </Parameter>
           </Parameters>
          </GenericEffect>
          <GenericEffect id="5360" name = "WinCompression" >
           <Parameters>
           <InterpolatingParam id="5361" interp="linr"  time="0/1" value="0" leadInLength="0/1"   name="attack"/>
           <InterpolatingParam id="5362" interp="linr"  time="0/1" value="9" leadInLength="0/1"   name="gain"/>
           <Parameter id="5363"   name="preset">
            <Keyframes>
            <Keyframe id="5364"  time="0/1" value="1" leadInLength="0/1"  />
            </Keyframes>
           </Parameter>
           <InterpolatingParam id="5365" interp="linr"  time="0/1" value="10" leadInLength="0/1"   name="ratio"/>
           <InterpolatingParam id="5366" interp="linr"  time="0/1" value="3500" leadInLength="0/1"   name="release"/>
           <InterpolatingParam id="5367" interp="linr"  time="0/1" value="-20" leadInLength="0/1"   name="threshold"/>
           </Parameters>
          </GenericEffect>
          <GenericEffect id="5368" name = "Declipper" >
           <Parameters>
           <InterpolatingParam id="5369" interp="linr"  time="0/1" value="-1" leadInLength="0/1"   name="sensitivity"/>
           </Parameters>
          </GenericEffect>
          <GenericEffect id="5370" name = "Declicker" >
           <Parameters>
           <InterpolatingParam id="5371" interp="linr"  time="0/1" value="3" leadInLength="0/1"   name="sensitivity"/>
           </Parameters>
          </GenericEffect>
         </Effects>
         <Attributes>
          <Attribute id="5372" value="" name="ident"/>
          <Attribute id="5373" value="44100" name="sampleRate"/>
          <Attribute id="5374" value="16" name="bitDepth"/>
          <Attribute id="5375" value="1" name="gain"/>
          <Attribute id="5376" value="0" name="mixToMono"/>
         </Attributes>
         <MetaData>
          <entry key="WinSubProjectDisplayName" val=""/>
         </MetaData>
        </AMFile>
        <StitchedMedia id="5377" start="1880" duration="59" scalar="1/1" mediaStart="3302/1" mediaDuration="59/1" minMediaStart="0/1" >
         <Transformer>
          <VectorParam id="5378"  name="translation">
           <InterpolatingParam id="5379" interp="linr"  time="0/1" value="0" leadInLength="0/1"  />
           <InterpolatingParam id="5380" interp="linr"  time="0/1" value="0" leadInLength="0/1"  />
           <InterpolatingParam id="5381" interp="linr"  time="0/1" value="0" leadInLength="0/1"  />
          </VectorParam>
          <VectorParam id="5382"  name="rotation">
           <InterpolatingParam id="5383" interp="linr"  time="0/1" value="0" leadInLength="0/1"  />
           <InterpolatingParam id="5384" interp="linr"  time="0/1" value="0" leadInLength="0/1"  />
           <InterpolatingParam id="5385" interp="linr"  time="0/1" value="0" leadInLength="0/1"  />
          </VectorParam>
          <VectorParam id="5386"  name="shear">
           <InterpolatingParam id="5387" interp="linr"  time="0/1" value="0" leadInLength="0/1"  />
           <InterpolatingParam id="5388" interp="linr"  time="0/1" value="0" leadInLength="0/1"  />
           <InterpolatingParam id="5389" interp="linr"  time="0/1" value="0" leadInLength="0/1"  />
          </VectorParam>
          <VectorParam id="5390"  name="scale">
           <InterpolatingParam id="5391" interp="linr"  time="0/1" value="1" leadInLength="0/1"  />
           <InterpolatingParam id="5392" interp="linr"  time="0/1" value="1" leadInLength="0/1"  />
           <InterpolatingParam id="5393" interp="linr"  time="0/1" value="1" leadInLength="0/1"  />
          </VectorParam>
          <VectorParam id="5394"  name="anchor">
           <InterpolatingParam id="5395" interp="linr"  time="0/1" value="0" leadInLength="0/1"  />
           <InterpolatingParam id="5396" interp="linr"  time="0/1" value="0" leadInLength="0/1"  />
           <InterpolatingParam id="5397" interp="linr"  time="0/1" value="0" leadInLength="0/1"  />
          </VectorParam>
         </Transformer>
         <Parameters>
          <InterpolatingParam id="5398" interp="linr"  time="0/1" value="1" leadInLength="0/1"  name="cursorOpacity"/>
          <InterpolatingParam id="5399" interp="linr"  time="0/1" value="1" leadInLength="0/1"  name="cursorScale"/>
          <InterpolatingParam id="5400" interp="linr"  name="volume">
           <Keyframes>
           <Keyframe id="5401"  time="0/1" value="1" leadInLength="0/1"  />
           <Keyframe id="5402"  time="3301/1" value="1" leadInLength="0/1"  />
           <Keyframe id="5403"  time="3302/1" value="0.33498759305210879" leadInLength="0/1"  />
           <Keyframe id="5404"  time="3323/1" value="0.90430743780619693" leadInLength="0/1"  />
           <Keyframe id="5405"  time="3347/1" value="1.4055299539170498" leadInLength="0/1"  />
           <Keyframe id="5406"  time="13691/1" value="1.2211981566820271" leadInLength="0/1"  />
           <Keyframe id="5407"  time="13692/1" value="1" leadInLength="0/1"  />
           </Keyframes>
          </InterpolatingParam>
          <Parameter id="5408"  name="captions"/>
         </Parameters>
         <Effects>
          <GenericEffect id="5409" name = "NoiseReduction" >
           <Parameters>
           <InterpolatingParam id="5410" interp="linr"  time="0/1" value="20" leadInLength="0/1"   name="denoiserAmount"/>
           <InterpolatingParam id="5411" interp="linr"  time="0/1" value="0" leadInLength="0/1"   name="denoiserThreshold"/>
           <Parameter id="5412"   name="noiseProfile">
            <Keyframes>
            <Keyframe id="5413"  time="0/1" value="FBAAAAIAAABErAAAAQIAADOmYsI/y13CPNeLwsehjcK+No/Cm+aOwlHvjcIja5HCun6XwoKemMJy&#xD;&#xa;lpPCuQeRwhgMlcJGdZvCTjScwgFMncIGh5zCGrOawuO0nMJdJZ3Cybudwo6toMIdraPCs/6jwpY0&#xD;&#xa;psLIUqjCWQmpwonmp8KcE6XCgXGlwqC+psIFHabCBoyownWvqcIkX6jCgnCpwms3qsIW0KfCM7Oj&#xD;&#xa;wnGLosJgcKnCdk6swiIgscKFrbDCtNmowrZmpcIHYqjCCg2pwqUNq8KgHq7ChEGxwhVFs8KU6LLC&#xD;&#xa;dvWzwpVHscI6NrDCMpGwwubcs8Imh7bCPKq6wj7tvMKSbr3ClsG+wq4qwMLXQr7CpAK5whxiuMJp&#xD;&#xa;v7nCwu29wloQvsIXTL3CzjDAwsDTwcL69sHC8urAwtAFwMIkSMLCpJHDwjLOw8JG8sTCmMvDwq7H&#xD;&#xa;wsLOncPC+CDDwkh6wsLU5sPCP23Fwm5Qx8KlYsTCm0XCwnhexcLsTsPCSMPDwjvJw8LMWcHC2XHD&#xD;&#xa;wjj5wsICs8TChWvEwgCywcKDdcHCFnHCwurMxMLlVsTCfrDGwmzqyMKoGsfC7ITIwtqRyMJwzcbC&#xD;&#xa;ppbEwiv5xcIXxsTCzDfCwtSExMKEjcTC8ObDwiJ9yMIQm8vCIkDGwqHyxcIyYcbCyAXIwmyBx8I4&#xD;&#xa;n8PCvyPGwuiKxMJggMfCdL3JwsMhysLi6sXCRa7Ewoykx8Jk/MXC0NfEwtK0xcJQTMTCvvvGwtqJ&#xD;&#xa;xMKmFsTCSbfGwq76x8IQ+sjCsqnIwkJdycIaT8fC0nbHwlf2xsLg/cbCtIHHwsTvxsI0KsbCsqDH&#xD;&#xa;wgLix8JGKcXCyNTDwjDwwsIb98bC6MjJwg6Zy8Kg+cvCaC3HwtIgw8KW7sXC3EHGwmcUxcL++8fC&#xD;&#xa;CWbIwsDoxsJFz8PCJkXFwiD7xcIQDsfC8ljIwrDLxMKkeMLClpHEwiqgyMJcjcjC6krGwl50w8Iy&#xD;&#xa;7sXCWv3HwkQ1xsKUwMPC2K/EwootxMJUqMTCH3LDwuojxcKil8fCjmXIwkLJxcID78TClTvGwhel&#xD;&#xa;xsIca8bC1rbCwk6+wsIQfsfCIlPHwpJExcLWhMbCDNvEwuryxMKklMXCeBDDwolhwcIiasLCQYfE&#xD;&#xa;whUfwsJx4MTCsEnIwkX0xcK+3sbCIqLHwrARx8IWtMTCGAnFwomNxMLfbcTCQIPDwjqww8L+MMTC&#xD;&#xa;mqjHwrBaxMI6YsTCxmvIwqyKycKQaMXCnx7FwkYvx8In6sjCGMzIwuvAxcL8a8XCiBjJwkvwyMKI&#xD;&#xa;qMbCTCTIwvQSy8IxEsvCVT/JwrI3w8LA8sLCCD7EwsxXxMJSjsXCfjXFwqTKxMI/gsPCDozDwtwF&#xD;&#xa;xMISn8bChHvJwlFQyMJYCsbCP4jIwtkBycLiFsrCbCrKwvyTysIWncnC+A3HwuI5x8I8/MbC0hHI&#xD;&#xa;wopJzMLmb83CFkvMwpy/y8Kn7MrCfJrJwuLDyMJKn8bCStTGwpb7ycIMo8nCcivFwsapxcJkx8bC&#xD;&#xa;ALLIwriaycJM3cfC8r/KwlSoy8I4A8vCpFHJwkRrzMIKr87CWD7MwsiJycKW9cfCUjbKwq+YycLi&#xD;&#xa;U8jCROHHwhdWycKaU8nCF7jMwmKaz8L//8zC8tjOwjxezsIUysvCzHLJwiJryMLRm8bCgLjKwsi8&#xD;&#xa;ysIhfszCPETLwqtbyMJGeMfCpRPJwnwZzMJSIs3CqhPMwmDiyMLZYsjCz13KwgwKy8LCi8jCyrTM&#xD;&#xa;wgwxzMK4ZcvC087JwkV2xsLyXsnCjIbLwhwvzcLfrM7CeITKwla3ysLK3cnC/PHFwpScxcIUQ8nC&#xD;&#xa;NJzIwrEsxsJvZcfCXSvIwlKLx8JII8nCvgzKwpnhysJSC8vC9iTKwiA/y8IadczCuDrMwuVaysLO&#xD;&#xa;r8vCXtfJwrZ6ycItucnCtonJwjyTysJkC83CL0nMwkjdyMIBucfCixrLwvSDysKGX8nCsCzMwuas&#xD;&#xa;0cIsnNPCuEvOwtr5y8LMBc7Cr+PTwsQc5MLcOfPCKOj0wjr59cJ0C/fCzg75wkwh+8LmVPnCqz72&#xD;&#xa;wnB+9cLuJvrCtEL4wkp7+MLOfffCDN3zwkaz9sLi8vjCFKr6wgIQ+cI8iPjCBpT4wvR1+MLQI/rC&#xD;&#xa;Ihn8wlQg+sIcLvjCVCz2wsI49MJQ9fbC23H3woy69sL4BfnCIOb2wjwy9cIuGvnCdmb3wj7K9MI+&#xD;&#xa;KPXCJpr2wn7C9cKQDvnCthv7woaP+cLGaPbCTr32wrpN+cIFSPjCDvX4wtD39sJY//TCKGf3wvZI&#xD;&#xa;+cK9YvfCgYf3wjIf+sLMMvfCpjz2wuA6+cII8vbCxDv1wmJG9sLka/rCPrT1wi589cLqjfbC9qP4&#xD;&#xa;wgzJ+MLelPbCGir2wlBC9sKeU/jC/nn3wsYn9sL4QPjCXBj5wopQ+MIaJvnCSB36wgjc+MIMfPfC&#xD;&#xa;W+z1wmYG+MKuxPnCCuD1wjh+9sLDrPfCOPj3wm7h+MJjMvfCxH/2wsXf98KwN/nCKOn5wrLR+sKg&#xD;&#xa;bPvCkFv5wsAu+cL2hffCySz2wmRX+MKiiPjCzFX4wvjB98Jgz/fCxPT4wobP+cL8avjC9r34wnKx&#xD;&#xa;+MK+LPnC3H34wle39cKejfbCNKP2wg5B9sK0H/rCSvz2woqE98JAqfjCBPL4wmKi+MIu2/jCMFD5&#xD;&#xa;wiCM+cKo//nCGqz7wlZN+sKUDfjC0ov4wrIU+sIVpffCP2/3woye98KktPbCTJj2wpH29cL3mvbC&#xD;&#xa;jL/4wti/+MLm3vjCQ9QEwzOmYsI/y13CPNeLwsehjcK+No/Cm+aOwlHvjcIja5HCun6XwoKemMJy&#xD;&#xa;lpPCuQeRwhgMlcJGdZvCTjScwgFMncIGh5zCGrOawuO0nMJdJZ3Cybudwo6toMIdraPCs/6jwpY0&#xD;&#xa;psLIUqjCWQmpwonmp8KcE6XCgXGlwqC+psIFHabCBoyownWvqcIkX6jCgnCpwms3qsIW0KfCM7Oj&#xD;&#xa;wnGLosJgcKnCdk6swiIgscKFrbDCtNmowrZmpcIHYqjCCg2pwqUNq8KgHq7ChEGxwhVFs8KU6LLC&#xD;&#xa;dvWzwpVHscI6NrDCMpGwwubcs8Imh7bCPKq6wj7tvMKSbr3ClsG+wq4qwMLXQr7CpAK5whxiuMJp&#xD;&#xa;v7nCwu29wloQvsIXTL3CzjDAwsDTwcL69sHC8urAwtAFwMIkSMLCpJHDwjLOw8JG8sTCmMvDwq7H&#xD;&#xa;wsLOncPC+CDDwkh6wsLU5sPCP23Fwm5Qx8KlYsTCm0XCwnhexcLsTsPCSMPDwjvJw8LMWcHC2XHD&#xD;&#xa;wjj5wsICs8TChWvEwgCywcKDdcHCFnHCwurMxMLlVsTCfrDGwmzqyMKoGsfC7ITIwtqRyMJwzcbC&#xD;&#xa;ppbEwiv5xcIXxsTCzDfCwtSExMKEjcTC8ObDwiJ9yMIQm8vCIkDGwqHyxcIyYcbCyAXIwmyBx8I4&#xD;&#xa;n8PCvyPGwuiKxMJggMfCdL3JwsMhysLi6sXCRa7Ewoykx8Jk/MXC0NfEwtK0xcJQTMTCvvvGwtqJ&#xD;&#xa;xMKmFsTCSbfGwq76x8IQ+sjCsqnIwkJdycIaT8fC0nbHwlf2xsLg/cbCtIHHwsTvxsI0KsbCsqDH&#xD;&#xa;wgLix8JGKcXCyNTDwjDwwsIb98bC6MjJwg6Zy8Kg+cvCaC3HwtIgw8KW7sXC3EHGwmcUxcL++8fC&#xD;&#xa;CWbIwsDoxsJFz8PCJkXFwiD7xcIQDsfC8ljIwrDLxMKkeMLClpHEwiqgyMJcjcjC6krGwl50w8Iy&#xD;&#xa;7sXCWv3HwkQ1xsKUwMPC2K/EwootxMJUqMTCH3LDwuojxcKil8fCjmXIwkLJxcID78TClTvGwhel&#xD;&#xa;xsIca8bC1rbCwk6+wsIQfsfCIlPHwpJExcLWhMbCDNvEwuryxMKklMXCeBDDwolhwcIiasLCQYfE&#xD;&#xa;whUfwsJx4MTCsEnIwkX0xcK+3sbCIqLHwrARx8IWtMTCGAnFwomNxMLfbcTCQIPDwjqww8L+MMTC&#xD;&#xa;mqjHwrBaxMI6YsTCxmvIwqyKycKQaMXCnx7FwkYvx8In6sjCGMzIwuvAxcL8a8XCiBjJwkvwyMKI&#xD;&#xa;qMbCTCTIwvQSy8IxEsvCVT/JwrI3w8LA8sLCCD7EwsxXxMJSjsXCfjXFwqTKxMI/gsPCDozDwtwF&#xD;&#xa;xMISn8bChHvJwlFQyMJYCsbCP4jIwtkBycLiFsrCbCrKwvyTysIWncnC+A3HwuI5x8I8/MbC0hHI&#xD;&#xa;wopJzMLmb83CFkvMwpy/y8Kn7MrCfJrJwuLDyMJKn8bCStTGwpb7ycIMo8nCcivFwsapxcJkx8bC&#xD;&#xa;ALLIwriaycJM3cfC8r/KwlSoy8I4A8vCpFHJwkRrzMIKr87CWD7MwsiJycKW9cfCUjbKwq+YycLi&#xD;&#xa;U8jCROHHwhdWycKaU8nCF7jMwmKaz8L//8zC8tjOwjxezsIUysvCzHLJwiJryMLRm8bCgLjKwsi8&#xD;&#xa;ysIhfszCPETLwqtbyMJGeMfCpRPJwnwZzMJSIs3CqhPMwmDiyMLZYsjCz13KwgwKy8LCi8jCyrTM&#xD;&#xa;wgwxzMK4ZcvC087JwkV2xsLyXsnCjIbLwhwvzcLfrM7CeITKwla3ysLK3cnC/PHFwpScxcIUQ8nC&#xD;&#xa;NJzIwrEsxsJvZcfCXSvIwlKLx8JII8nCvgzKwpnhysJSC8vC9iTKwiA/y8IadczCuDrMwuVaysLO&#xD;&#xa;r8vCXtfJwrZ6ycItucnCtonJwjyTysJkC83CL0nMwkjdyMIBucfCixrLwvSDysKGX8nCsCzMwuas&#xD;&#xa;0cIsnNPCuEvOwtr5y8LMBc7Cr+PTwsQc5MLcOfPCKOj0wjr59cJ0C/fCzg75wkwh+8LmVPnCqz72&#xD;&#xa;wnB+9cLuJvrCtEL4wkp7+MLOfffCDN3zwkaz9sLi8vjCFKr6wgIQ+cI8iPjCBpT4wvR1+MLQI/rC&#xD;&#xa;Ihn8wlQg+sIcLvjCVCz2wsI49MJQ9fbC23H3woy69sL4BfnCIOb2wjwy9cIuGvnCdmb3wj7K9MI+&#xD;&#xa;KPXCJpr2wn7C9cKQDvnCthv7woaP+cLGaPbCTr32wrpN+cIFSPjCDvX4wtD39sJY//TCKGf3wvZI&#xD;&#xa;+cK9YvfCgYf3wjIf+sLMMvfCpjz2wuA6+cII8vbCxDv1wmJG9sLka/rCPrT1wi589cLqjfbC9qP4&#xD;&#xa;wgzJ+MLelPbCGir2wlBC9sKeU/jC/nn3wsYn9sL4QPjCXBj5wopQ+MIaJvnCSB36wgjc+MIMfPfC&#xD;&#xa;W+z1wmYG+MKuxPnCCuD1wjh+9sLDrPfCOPj3wm7h+MJjMvfCxH/2wsXf98KwN/nCKOn5wrLR+sKg&#xD;&#xa;bPvCkFv5wsAu+cL2hffCySz2wmRX+MKiiPjCzFX4wvjB98Jgz/fCxPT4wobP+cL8avjC9r34wnKx&#xD;&#xa;+MK+LPnC3H34wle39cKejfbCNKP2wg5B9sK0H/rCSvz2woqE98JAqfjCBPL4wmKi+MIu2/jCMFD5&#xD;&#xa;wiCM+cKo//nCGqz7wlZN+sKUDfjC0ov4wrIU+sIVpffCP2/3woye98KktPbCTJj2wpH29cL3mvbC&#xD;&#xa;jL/4wti/+MLm3vjCQ9QE" leadInLength="0/1"  />
            </Keyframes>
           </Parameter>
           </Parameters>
          </GenericEffect>
          <GenericEffect id="5414" name = "WinCompression" >
           <Parameters>
           <InterpolatingParam id="5415" interp="linr"  time="0/1" value="0" leadInLength="0/1"   name="attack"/>
           <InterpolatingParam id="5416" interp="linr"  time="0/1" value="9" leadInLength="0/1"   name="gain"/>
           <Parameter id="5417"   name="preset">
            <Keyframes>
            <Keyframe id="5418"  time="0/1" value="1" leadInLength="0/1"  />
            </Keyframes>
           </Parameter>
           <InterpolatingParam id="5419" interp="linr"  time="0/1" value="10" leadInLength="0/1"   name="ratio"/>
           <InterpolatingParam id="5420" interp="linr"  time="0/1" value="3500" leadInLength="0/1"   name="release"/>
           <InterpolatingParam id="5421" interp="linr"  time="0/1" value="-20" leadInLength="0/1"   name="threshold"/>
           </Parameters>
          </GenericEffect>
          <GenericEffect id="5422" name = "Declipper" >
           <Parameters>
           <InterpolatingParam id="5423" interp="linr"  time="0/1" value="-1" leadInLength="0/1"   name="sensitivity"/>
           </Parameters>
          </GenericEffect>
          <GenericEffect id="5424" name = "Declicker" >
           <Parameters>
           <InterpolatingParam id="5425" interp="linr"  time="0/1" value="3" leadInLength="0/1"   name="sensitivity"/>
           </Parameters>
          </GenericEffect>
         </Effects>
         <Attributes>
          <Attribute id="5426" value="" name="ident"/>
          <Attribute id="5427" value="0" name="mixToMono"/>
         </Attributes>
         <MetaData>
          <entry key="WinSubProjectDisplayName" val=""/>
         </MetaData>
         <ExtraData>
          <Entry key="ZoomPanBin">
           <ZoomPanBin id="5428"  >
            <ZoomPanKeyframes>
            </ZoomPanKeyframes>
           </ZoomPanBin>
          </Entry>
          <Entry key="CursorEffectBin">
           <CursorEffectBin id="5429"  >
            <CursorEffectKeyframes>
            </CursorEffectKeyframes>
           </CursorEffectBin>
          </Entry>
         </ExtraData>
         <GenericTrack id="5430"  >
          <Attributes>
           <Attribute id="5431" value="" name="ident"/>
           <Attribute id="5432" value="0" name="audioMuted"/>
           <Attribute id="5433" value="0" name="videoHidden"/>
          </Attributes>
          <MetaData>
           <entry key="IsLocked" val="False"/>
           <entry key="WinTrackHeight" val="0"/>
          </MetaData>
          <Medias>
           <AMFile id="5434" start="0" duration="4896" scalar="1/1" mediaStart="0/1" mediaDuration="4896/1" trackNumber="0" src="22" channelNumber="0" >
            <Parameters>
             <InterpolatingParam id="5435" interp="linr"  time="0/1" value="1" leadInLength="0/1"  name="volume"/>
             <Parameter id="5436"  name="captions"/>
            </Parameters>
            <Attributes>
             <Attribute id="5437" value="" name="ident"/>
             <Attribute id="5438" value="44100" name="sampleRate"/>
             <Attribute id="5439" value="16" name="bitDepth"/>
             <Attribute id="5440" value="1" name="gain"/>
             <Attribute id="5441" value="0" name="mixToMono"/>
            </Attributes>
            <MetaData>
             <entry key="WinSubProjectDisplayName" val=""/>
            </MetaData>
           </AMFile>
           <AMFile id="5442" start="4896" duration="411" scalar="1/1" mediaStart="4989/1" mediaDuration="411/1" trackNumber="0" src="22" channelNumber="0" >
            <Parameters>
             <InterpolatingParam id="5443" interp="linr"  time="0/1" value="1" leadInLength="0/1"  name="volume"/>
             <Parameter id="5444"  name="captions"/>
            </Parameters>
            <Attributes>
             <Attribute id="5445" value="" name="ident"/>
             <Attribute id="5446" value="44100" name="sampleRate"/>
             <Attribute id="5447" value="16" name="bitDepth"/>
             <Attribute id="5448" value="1" name="gain"/>
             <Attribute id="5449" value="0" name="mixToMono"/>
            </Attributes>
            <MetaData>
             <entry key="WinSubProjectDisplayName" val=""/>
            </MetaData>
           </AMFile>
           <AMFile id="5450" start="5307" duration="1270" scalar="1/1" mediaStart="5956/1" mediaDuration="1270/1" trackNumber="0" src="22" channelNumber="0" >
            <Parameters>
             <InterpolatingParam id="5451" interp="linr"  time="0/1" value="1" leadInLength="0/1"  name="volume"/>
             <Parameter id="5452"  name="captions"/>
            </Parameters>
            <Attributes>
             <Attribute id="5453" value="" name="ident"/>
             <Attribute id="5454" value="44100" name="sampleRate"/>
             <Attribute id="5455" value="16" name="bitDepth"/>
             <Attribute id="5456" value="1" name="gain"/>
             <Attribute id="5457" value="0" name="mixToMono"/>
            </Attributes>
            <MetaData>
             <entry key="WinSubProjectDisplayName" val=""/>
            </MetaData>
           </AMFile>
           <AMFile id="5458" start="6577" duration="7114" scalar="1/1" mediaStart="7454/1" mediaDuration="7114/1" trackNumber="0" src="22" channelNumber="0" >
            <Parameters>
             <InterpolatingParam id="5459" interp="linr"  time="0/1" value="1" leadInLength="0/1"  name="volume"/>
             <Parameter id="5460"  name="captions"/>
            </Parameters>
            <Attributes>
             <Attribute id="5461" value="" name="ident"/>
             <Attribute id="5462" value="44100" name="sampleRate"/>
             <Attribute id="5463" value="16" name="bitDepth"/>
             <Attribute id="5464" value="1" name="gain"/>
             <Attribute id="5465" value="0" name="mixToMono"/>
            </Attributes>
            <MetaData>
             <entry key="WinSubProjectDisplayName" val=""/>
            </MetaData>
           </AMFile>
          </Medias>
         </GenericTrack>
        </StitchedMedia>
        <StitchedMedia id="5466" start="1939" duration="134" scalar="1/1" mediaStart="3361/1" mediaDuration="134/1" minMediaStart="0/1" >
         <Transformer>
          <VectorParam id="5467"  name="translation">
           <InterpolatingParam id="5468" interp="linr"  time="0/1" value="0" leadInLength="0/1"  />
           <InterpolatingParam id="5469" interp="linr"  time="0/1" value="0" leadInLength="0/1"  />
           <InterpolatingParam id="5470" interp="linr"  time="0/1" value="0" leadInLength="0/1"  />
          </VectorParam>
          <VectorParam id="5471"  name="rotation">
           <InterpolatingParam id="5472" interp="linr"  time="0/1" value="0" leadInLength="0/1"  />
           <InterpolatingParam id="5473" interp="linr"  time="0/1" value="0" leadInLength="0/1"  />
           <InterpolatingParam id="5474" interp="linr"  time="0/1" value="0" leadInLength="0/1"  />
          </VectorParam>
          <VectorParam id="5475"  name="shear">
           <InterpolatingParam id="5476" interp="linr"  time="0/1" value="0" leadInLength="0/1"  />
           <InterpolatingParam id="5477" interp="linr"  time="0/1" value="0" leadInLength="0/1"  />
           <InterpolatingParam id="5478" interp="linr"  time="0/1" value="0" leadInLength="0/1"  />
          </VectorParam>
          <VectorParam id="5479"  name="scale">
           <InterpolatingParam id="5480" interp="linr"  time="0/1" value="1" leadInLength="0/1"  />
           <InterpolatingParam id="5481" interp="linr"  time="0/1" value="1" leadInLength="0/1"  />
           <InterpolatingParam id="5482" interp="linr"  time="0/1" value="1" leadInLength="0/1"  />
          </VectorParam>
          <VectorParam id="5483"  name="anchor">
           <InterpolatingParam id="5484" interp="linr"  time="0/1" value="0" leadInLength="0/1"  />
           <InterpolatingParam id="5485" interp="linr"  time="0/1" value="0" leadInLength="0/1"  />
           <InterpolatingParam id="5486" interp="linr"  time="0/1" value="0" leadInLength="0/1"  />
          </VectorParam>
         </Transformer>
         <Parameters>
          <InterpolatingParam id="5487" interp="linr"  time="0/1" value="1" leadInLength="0/1"  name="cursorOpacity"/>
          <InterpolatingParam id="5488" interp="linr"  time="0/1" value="1" leadInLength="0/1"  name="cursorScale"/>
          <InterpolatingParam id="5489" interp="linr"  name="volume">
           <Keyframes>
           <Keyframe id="5490"  time="0/1" value="1" leadInLength="0/1"  />
           <Keyframe id="5491"  time="3301/1" value="1" leadInLength="0/1"  />
           <Keyframe id="5492"  time="3302/1" value="0.99255583126550873" leadInLength="0/1"  />
           <Keyframe id="5493"  time="13691/1" value="0.99255583126550873" leadInLength="0/1"  />
           <Keyframe id="5494"  time="13692/1" value="1" leadInLength="0/1"  />
           </Keyframes>
          </InterpolatingParam>
          <Parameter id="5495"  name="captions"/>
         </Parameters>
         <Effects>
          <GenericEffect id="5496" name = "NoiseReduction" >
           <Parameters>
           <InterpolatingParam id="5497" interp="linr"  time="0/1" value="20" leadInLength="0/1"   name="denoiserAmount"/>
           <InterpolatingParam id="5498" interp="linr"  time="0/1" value="0" leadInLength="0/1"   name="denoiserThreshold"/>
           <Parameter id="5499"   name="noiseProfile">
            <Keyframes>
            <Keyframe id="5500"  time="0/1" value="FBAAAAIAAABErAAAAQIAADOmYsI/y13CPNeLwsehjcK+No/Cm+aOwlHvjcIja5HCun6XwoKemMJy&#xD;&#xa;lpPCuQeRwhgMlcJGdZvCTjScwgFMncIGh5zCGrOawuO0nMJdJZ3Cybudwo6toMIdraPCs/6jwpY0&#xD;&#xa;psLIUqjCWQmpwonmp8KcE6XCgXGlwqC+psIFHabCBoyownWvqcIkX6jCgnCpwms3qsIW0KfCM7Oj&#xD;&#xa;wnGLosJgcKnCdk6swiIgscKFrbDCtNmowrZmpcIHYqjCCg2pwqUNq8KgHq7ChEGxwhVFs8KU6LLC&#xD;&#xa;dvWzwpVHscI6NrDCMpGwwubcs8Imh7bCPKq6wj7tvMKSbr3ClsG+wq4qwMLXQr7CpAK5whxiuMJp&#xD;&#xa;v7nCwu29wloQvsIXTL3CzjDAwsDTwcL69sHC8urAwtAFwMIkSMLCpJHDwjLOw8JG8sTCmMvDwq7H&#xD;&#xa;wsLOncPC+CDDwkh6wsLU5sPCP23Fwm5Qx8KlYsTCm0XCwnhexcLsTsPCSMPDwjvJw8LMWcHC2XHD&#xD;&#xa;wjj5wsICs8TChWvEwgCywcKDdcHCFnHCwurMxMLlVsTCfrDGwmzqyMKoGsfC7ITIwtqRyMJwzcbC&#xD;&#xa;ppbEwiv5xcIXxsTCzDfCwtSExMKEjcTC8ObDwiJ9yMIQm8vCIkDGwqHyxcIyYcbCyAXIwmyBx8I4&#xD;&#xa;n8PCvyPGwuiKxMJggMfCdL3JwsMhysLi6sXCRa7Ewoykx8Jk/MXC0NfEwtK0xcJQTMTCvvvGwtqJ&#xD;&#xa;xMKmFsTCSbfGwq76x8IQ+sjCsqnIwkJdycIaT8fC0nbHwlf2xsLg/cbCtIHHwsTvxsI0KsbCsqDH&#xD;&#xa;wgLix8JGKcXCyNTDwjDwwsIb98bC6MjJwg6Zy8Kg+cvCaC3HwtIgw8KW7sXC3EHGwmcUxcL++8fC&#xD;&#xa;CWbIwsDoxsJFz8PCJkXFwiD7xcIQDsfC8ljIwrDLxMKkeMLClpHEwiqgyMJcjcjC6krGwl50w8Iy&#xD;&#xa;7sXCWv3HwkQ1xsKUwMPC2K/EwootxMJUqMTCH3LDwuojxcKil8fCjmXIwkLJxcID78TClTvGwhel&#xD;&#xa;xsIca8bC1rbCwk6+wsIQfsfCIlPHwpJExcLWhMbCDNvEwuryxMKklMXCeBDDwolhwcIiasLCQYfE&#xD;&#xa;whUfwsJx4MTCsEnIwkX0xcK+3sbCIqLHwrARx8IWtMTCGAnFwomNxMLfbcTCQIPDwjqww8L+MMTC&#xD;&#xa;mqjHwrBaxMI6YsTCxmvIwqyKycKQaMXCnx7FwkYvx8In6sjCGMzIwuvAxcL8a8XCiBjJwkvwyMKI&#xD;&#xa;qMbCTCTIwvQSy8IxEsvCVT/JwrI3w8LA8sLCCD7EwsxXxMJSjsXCfjXFwqTKxMI/gsPCDozDwtwF&#xD;&#xa;xMISn8bChHvJwlFQyMJYCsbCP4jIwtkBycLiFsrCbCrKwvyTysIWncnC+A3HwuI5x8I8/MbC0hHI&#xD;&#xa;wopJzMLmb83CFkvMwpy/y8Kn7MrCfJrJwuLDyMJKn8bCStTGwpb7ycIMo8nCcivFwsapxcJkx8bC&#xD;&#xa;ALLIwriaycJM3cfC8r/KwlSoy8I4A8vCpFHJwkRrzMIKr87CWD7MwsiJycKW9cfCUjbKwq+YycLi&#xD;&#xa;U8jCROHHwhdWycKaU8nCF7jMwmKaz8L//8zC8tjOwjxezsIUysvCzHLJwiJryMLRm8bCgLjKwsi8&#xD;&#xa;ysIhfszCPETLwqtbyMJGeMfCpRPJwnwZzMJSIs3CqhPMwmDiyMLZYsjCz13KwgwKy8LCi8jCyrTM&#xD;&#xa;wgwxzMK4ZcvC087JwkV2xsLyXsnCjIbLwhwvzcLfrM7CeITKwla3ysLK3cnC/PHFwpScxcIUQ8nC&#xD;&#xa;NJzIwrEsxsJvZcfCXSvIwlKLx8JII8nCvgzKwpnhysJSC8vC9iTKwiA/y8IadczCuDrMwuVaysLO&#xD;&#xa;r8vCXtfJwrZ6ycItucnCtonJwjyTysJkC83CL0nMwkjdyMIBucfCixrLwvSDysKGX8nCsCzMwuas&#xD;&#xa;0cIsnNPCuEvOwtr5y8LMBc7Cr+PTwsQc5MLcOfPCKOj0wjr59cJ0C/fCzg75wkwh+8LmVPnCqz72&#xD;&#xa;wnB+9cLuJvrCtEL4wkp7+MLOfffCDN3zwkaz9sLi8vjCFKr6wgIQ+cI8iPjCBpT4wvR1+MLQI/rC&#xD;&#xa;Ihn8wlQg+sIcLvjCVCz2wsI49MJQ9fbC23H3woy69sL4BfnCIOb2wjwy9cIuGvnCdmb3wj7K9MI+&#xD;&#xa;KPXCJpr2wn7C9cKQDvnCthv7woaP+cLGaPbCTr32wrpN+cIFSPjCDvX4wtD39sJY//TCKGf3wvZI&#xD;&#xa;+cK9YvfCgYf3wjIf+sLMMvfCpjz2wuA6+cII8vbCxDv1wmJG9sLka/rCPrT1wi589cLqjfbC9qP4&#xD;&#xa;wgzJ+MLelPbCGir2wlBC9sKeU/jC/nn3wsYn9sL4QPjCXBj5wopQ+MIaJvnCSB36wgjc+MIMfPfC&#xD;&#xa;W+z1wmYG+MKuxPnCCuD1wjh+9sLDrPfCOPj3wm7h+MJjMvfCxH/2wsXf98KwN/nCKOn5wrLR+sKg&#xD;&#xa;bPvCkFv5wsAu+cL2hffCySz2wmRX+MKiiPjCzFX4wvjB98Jgz/fCxPT4wobP+cL8avjC9r34wnKx&#xD;&#xa;+MK+LPnC3H34wle39cKejfbCNKP2wg5B9sK0H/rCSvz2woqE98JAqfjCBPL4wmKi+MIu2/jCMFD5&#xD;&#xa;wiCM+cKo//nCGqz7wlZN+sKUDfjC0ov4wrIU+sIVpffCP2/3woye98KktPbCTJj2wpH29cL3mvbC&#xD;&#xa;jL/4wti/+MLm3vjCQ9QEwzOmYsI/y13CPNeLwsehjcK+No/Cm+aOwlHvjcIja5HCun6XwoKemMJy&#xD;&#xa;lpPCuQeRwhgMlcJGdZvCTjScwgFMncIGh5zCGrOawuO0nMJdJZ3Cybudwo6toMIdraPCs/6jwpY0&#xD;&#xa;psLIUqjCWQmpwonmp8KcE6XCgXGlwqC+psIFHabCBoyownWvqcIkX6jCgnCpwms3qsIW0KfCM7Oj&#xD;&#xa;wnGLosJgcKnCdk6swiIgscKFrbDCtNmowrZmpcIHYqjCCg2pwqUNq8KgHq7ChEGxwhVFs8KU6LLC&#xD;&#xa;dvWzwpVHscI6NrDCMpGwwubcs8Imh7bCPKq6wj7tvMKSbr3ClsG+wq4qwMLXQr7CpAK5whxiuMJp&#xD;&#xa;v7nCwu29wloQvsIXTL3CzjDAwsDTwcL69sHC8urAwtAFwMIkSMLCpJHDwjLOw8JG8sTCmMvDwq7H&#xD;&#xa;wsLOncPC+CDDwkh6wsLU5sPCP23Fwm5Qx8KlYsTCm0XCwnhexcLsTsPCSMPDwjvJw8LMWcHC2XHD&#xD;&#xa;wjj5wsICs8TChWvEwgCywcKDdcHCFnHCwurMxMLlVsTCfrDGwmzqyMKoGsfC7ITIwtqRyMJwzcbC&#xD;&#xa;ppbEwiv5xcIXxsTCzDfCwtSExMKEjcTC8ObDwiJ9yMIQm8vCIkDGwqHyxcIyYcbCyAXIwmyBx8I4&#xD;&#xa;n8PCvyPGwuiKxMJggMfCdL3JwsMhysLi6sXCRa7Ewoykx8Jk/MXC0NfEwtK0xcJQTMTCvvvGwtqJ&#xD;&#xa;xMKmFsTCSbfGwq76x8IQ+sjCsqnIwkJdycIaT8fC0nbHwlf2xsLg/cbCtIHHwsTvxsI0KsbCsqDH&#xD;&#xa;wgLix8JGKcXCyNTDwjDwwsIb98bC6MjJwg6Zy8Kg+cvCaC3HwtIgw8KW7sXC3EHGwmcUxcL++8fC&#xD;&#xa;CWbIwsDoxsJFz8PCJkXFwiD7xcIQDsfC8ljIwrDLxMKkeMLClpHEwiqgyMJcjcjC6krGwl50w8Iy&#xD;&#xa;7sXCWv3HwkQ1xsKUwMPC2K/EwootxMJUqMTCH3LDwuojxcKil8fCjmXIwkLJxcID78TClTvGwhel&#xD;&#xa;xsIca8bC1rbCwk6+wsIQfsfCIlPHwpJExcLWhMbCDNvEwuryxMKklMXCeBDDwolhwcIiasLCQYfE&#xD;&#xa;whUfwsJx4MTCsEnIwkX0xcK+3sbCIqLHwrARx8IWtMTCGAnFwomNxMLfbcTCQIPDwjqww8L+MMTC&#xD;&#xa;mqjHwrBaxMI6YsTCxmvIwqyKycKQaMXCnx7FwkYvx8In6sjCGMzIwuvAxcL8a8XCiBjJwkvwyMKI&#xD;&#xa;qMbCTCTIwvQSy8IxEsvCVT/JwrI3w8LA8sLCCD7EwsxXxMJSjsXCfjXFwqTKxMI/gsPCDozDwtwF&#xD;&#xa;xMISn8bChHvJwlFQyMJYCsbCP4jIwtkBycLiFsrCbCrKwvyTysIWncnC+A3HwuI5x8I8/MbC0hHI&#xD;&#xa;wopJzMLmb83CFkvMwpy/y8Kn7MrCfJrJwuLDyMJKn8bCStTGwpb7ycIMo8nCcivFwsapxcJkx8bC&#xD;&#xa;ALLIwriaycJM3cfC8r/KwlSoy8I4A8vCpFHJwkRrzMIKr87CWD7MwsiJycKW9cfCUjbKwq+YycLi&#xD;&#xa;U8jCROHHwhdWycKaU8nCF7jMwmKaz8L//8zC8tjOwjxezsIUysvCzHLJwiJryMLRm8bCgLjKwsi8&#xD;&#xa;ysIhfszCPETLwqtbyMJGeMfCpRPJwnwZzMJSIs3CqhPMwmDiyMLZYsjCz13KwgwKy8LCi8jCyrTM&#xD;&#xa;wgwxzMK4ZcvC087JwkV2xsLyXsnCjIbLwhwvzcLfrM7CeITKwla3ysLK3cnC/PHFwpScxcIUQ8nC&#xD;&#xa;NJzIwrEsxsJvZcfCXSvIwlKLx8JII8nCvgzKwpnhysJSC8vC9iTKwiA/y8IadczCuDrMwuVaysLO&#xD;&#xa;r8vCXtfJwrZ6ycItucnCtonJwjyTysJkC83CL0nMwkjdyMIBucfCixrLwvSDysKGX8nCsCzMwuas&#xD;&#xa;0cIsnNPCuEvOwtr5y8LMBc7Cr+PTwsQc5MLcOfPCKOj0wjr59cJ0C/fCzg75wkwh+8LmVPnCqz72&#xD;&#xa;wnB+9cLuJvrCtEL4wkp7+MLOfffCDN3zwkaz9sLi8vjCFKr6wgIQ+cI8iPjCBpT4wvR1+MLQI/rC&#xD;&#xa;Ihn8wlQg+sIcLvjCVCz2wsI49MJQ9fbC23H3woy69sL4BfnCIOb2wjwy9cIuGvnCdmb3wj7K9MI+&#xD;&#xa;KPXCJpr2wn7C9cKQDvnCthv7woaP+cLGaPbCTr32wrpN+cIFSPjCDvX4wtD39sJY//TCKGf3wvZI&#xD;&#xa;+cK9YvfCgYf3wjIf+sLMMvfCpjz2wuA6+cII8vbCxDv1wmJG9sLka/rCPrT1wi589cLqjfbC9qP4&#xD;&#xa;wgzJ+MLelPbCGir2wlBC9sKeU/jC/nn3wsYn9sL4QPjCXBj5wopQ+MIaJvnCSB36wgjc+MIMfPfC&#xD;&#xa;W+z1wmYG+MKuxPnCCuD1wjh+9sLDrPfCOPj3wm7h+MJjMvfCxH/2wsXf98KwN/nCKOn5wrLR+sKg&#xD;&#xa;bPvCkFv5wsAu+cL2hffCySz2wmRX+MKiiPjCzFX4wvjB98Jgz/fCxPT4wobP+cL8avjC9r34wnKx&#xD;&#xa;+MK+LPnC3H34wle39cKejfbCNKP2wg5B9sK0H/rCSvz2woqE98JAqfjCBPL4wmKi+MIu2/jCMFD5&#xD;&#xa;wiCM+cKo//nCGqz7wlZN+sKUDfjC0ov4wrIU+sIVpffCP2/3woye98KktPbCTJj2wpH29cL3mvbC&#xD;&#xa;jL/4wti/+MLm3vjCQ9QE" leadInLength="0/1"  />
            </Keyframes>
           </Parameter>
           </Parameters>
          </GenericEffect>
          <GenericEffect id="5501" name = "WinCompression" >
           <Parameters>
           <InterpolatingParam id="5502" interp="linr"  time="0/1" value="0" leadInLength="0/1"   name="attack"/>
           <InterpolatingParam id="5503" interp="linr"  time="0/1" value="9" leadInLength="0/1"   name="gain"/>
           <Parameter id="5504"   name="preset">
            <Keyframes>
            <Keyframe id="5505"  time="0/1" value="1" leadInLength="0/1"  />
            </Keyframes>
           </Parameter>
           <InterpolatingParam id="5506" interp="linr"  time="0/1" value="10" leadInLength="0/1"   name="ratio"/>
           <InterpolatingParam id="5507" interp="linr"  time="0/1" value="3500" leadInLength="0/1"   name="release"/>
           <InterpolatingParam id="5508" interp="linr"  time="0/1" value="-20" leadInLength="0/1"   name="threshold"/>
           </Parameters>
          </GenericEffect>
          <GenericEffect id="5509" name = "Declipper" >
           <Parameters>
           <InterpolatingParam id="5510" interp="linr"  time="0/1" value="-1" leadInLength="0/1"   name="sensitivity"/>
           </Parameters>
          </GenericEffect>
          <GenericEffect id="5511" name = "Declicker" >
           <Parameters>
           <InterpolatingParam id="5512" interp="linr"  time="0/1" value="3" leadInLength="0/1"   name="sensitivity"/>
           </Parameters>
          </GenericEffect>
         </Effects>
         <Attributes>
          <Attribute id="5513" value="" name="ident"/>
          <Attribute id="5514" value="0" name="mixToMono"/>
         </Attributes>
         <MetaData>
          <entry key="WinSubProjectDisplayName" val=""/>
         </MetaData>
         <ExtraData>
          <Entry key="ZoomPanBin">
           <ZoomPanBin id="5515"  >
            <ZoomPanKeyframes>
            </ZoomPanKeyframes>
           </ZoomPanBin>
          </Entry>
          <Entry key="CursorEffectBin">
           <CursorEffectBin id="5516"  >
            <CursorEffectKeyframes>
            </CursorEffectKeyframes>
           </CursorEffectBin>
          </Entry>
         </ExtraData>
         <GenericTrack id="5517"  >
          <Attributes>
           <Attribute id="5518" value="" name="ident"/>
           <Attribute id="5519" value="0" name="audioMuted"/>
           <Attribute id="5520" value="0" name="videoHidden"/>
          </Attributes>
          <MetaData>
           <entry key="IsLocked" val="False"/>
           <entry key="WinTrackHeight" val="0"/>
          </MetaData>
          <Medias>
           <AMFile id="5521" start="0" duration="4896" scalar="1/1" mediaStart="0/1" mediaDuration="4896/1" trackNumber="0" src="22" channelNumber="0" >
            <Parameters>
             <InterpolatingParam id="5522" interp="linr"  time="0/1" value="1" leadInLength="0/1"  name="volume"/>
             <Parameter id="5523"  name="captions"/>
            </Parameters>
            <Attributes>
             <Attribute id="5524" value="" name="ident"/>
             <Attribute id="5525" value="44100" name="sampleRate"/>
             <Attribute id="5526" value="16" name="bitDepth"/>
             <Attribute id="5527" value="1" name="gain"/>
             <Attribute id="5528" value="0" name="mixToMono"/>
            </Attributes>
            <MetaData>
             <entry key="WinSubProjectDisplayName" val=""/>
            </MetaData>
           </AMFile>
           <AMFile id="5529" start="4896" duration="411" scalar="1/1" mediaStart="4989/1" mediaDuration="411/1" trackNumber="0" src="22" channelNumber="0" >
            <Parameters>
             <InterpolatingParam id="5530" interp="linr"  time="0/1" value="1" leadInLength="0/1"  name="volume"/>
             <Parameter id="5531"  name="captions"/>
            </Parameters>
            <Attributes>
             <Attribute id="5532" value="" name="ident"/>
             <Attribute id="5533" value="44100" name="sampleRate"/>
             <Attribute id="5534" value="16" name="bitDepth"/>
             <Attribute id="5535" value="1" name="gain"/>
             <Attribute id="5536" value="0" name="mixToMono"/>
            </Attributes>
            <MetaData>
             <entry key="WinSubProjectDisplayName" val=""/>
            </MetaData>
           </AMFile>
           <AMFile id="5537" start="5307" duration="1270" scalar="1/1" mediaStart="5956/1" mediaDuration="1270/1" trackNumber="0" src="22" channelNumber="0" >
            <Parameters>
             <InterpolatingParam id="5538" interp="linr"  time="0/1" value="1" leadInLength="0/1"  name="volume"/>
             <Parameter id="5539"  name="captions"/>
            </Parameters>
            <Attributes>
             <Attribute id="5540" value="" name="ident"/>
             <Attribute id="5541" value="44100" name="sampleRate"/>
             <Attribute id="5542" value="16" name="bitDepth"/>
             <Attribute id="5543" value="1" name="gain"/>
             <Attribute id="5544" value="0" name="mixToMono"/>
            </Attributes>
            <MetaData>
             <entry key="WinSubProjectDisplayName" val=""/>
            </MetaData>
           </AMFile>
           <AMFile id="5545" start="6577" duration="7114" scalar="1/1" mediaStart="7454/1" mediaDuration="7114/1" trackNumber="0" src="22" channelNumber="0" >
            <Parameters>
             <InterpolatingParam id="5546" interp="linr"  time="0/1" value="1" leadInLength="0/1"  name="volume"/>
             <Parameter id="5547"  name="captions"/>
            </Parameters>
            <Attributes>
             <Attribute id="5548" value="" name="ident"/>
             <Attribute id="5549" value="44100" name="sampleRate"/>
             <Attribute id="5550" value="16" name="bitDepth"/>
             <Attribute id="5551" value="1" name="gain"/>
             <Attribute id="5552" value="0" name="mixToMono"/>
            </Attributes>
            <MetaData>
             <entry key="WinSubProjectDisplayName" val=""/>
            </MetaData>
           </AMFile>
          </Medias>
         </GenericTrack>
        </StitchedMedia>
        <StitchedMedia id="5553" start="2084" duration="2636" scalar="1/1" mediaStart="3506/1" mediaDuration="2636/1" minMediaStart="0/1" >
         <Transformer>
          <VectorParam id="5554"  name="translation">
           <InterpolatingParam id="5555" interp="linr"  time="0/1" value="0" leadInLength="0/1"  />
           <InterpolatingParam id="5556" interp="linr"  time="0/1" value="0" leadInLength="0/1"  />
           <InterpolatingParam id="5557" interp="linr"  time="0/1" value="0" leadInLength="0/1"  />
          </VectorParam>
          <VectorParam id="5558"  name="rotation">
           <InterpolatingParam id="5559" interp="linr"  time="0/1" value="0" leadInLength="0/1"  />
           <InterpolatingParam id="5560" interp="linr"  time="0/1" value="0" leadInLength="0/1"  />
           <InterpolatingParam id="5561" interp="linr"  time="0/1" value="0" leadInLength="0/1"  />
          </VectorParam>
          <VectorParam id="5562"  name="shear">
           <InterpolatingParam id="5563" interp="linr"  time="0/1" value="0" leadInLength="0/1"  />
           <InterpolatingParam id="5564" interp="linr"  time="0/1" value="0" leadInLength="0/1"  />
           <InterpolatingParam id="5565" interp="linr"  time="0/1" value="0" leadInLength="0/1"  />
          </VectorParam>
          <VectorParam id="5566"  name="scale">
           <InterpolatingParam id="5567" interp="linr"  time="0/1" value="1" leadInLength="0/1"  />
           <InterpolatingParam id="5568" interp="linr"  time="0/1" value="1" leadInLength="0/1"  />
           <InterpolatingParam id="5569" interp="linr"  time="0/1" value="1" leadInLength="0/1"  />
          </VectorParam>
          <VectorParam id="5570"  name="anchor">
           <InterpolatingParam id="5571" interp="linr"  time="0/1" value="0" leadInLength="0/1"  />
           <InterpolatingParam id="5572" interp="linr"  time="0/1" value="0" leadInLength="0/1"  />
           <InterpolatingParam id="5573" interp="linr"  time="0/1" value="0" leadInLength="0/1"  />
          </VectorParam>
         </Transformer>
         <Parameters>
          <InterpolatingParam id="5574" interp="linr"  time="0/1" value="1" leadInLength="0/1"  name="cursorOpacity"/>
          <InterpolatingParam id="5575" interp="linr"  time="0/1" value="1" leadInLength="0/1"  name="cursorScale"/>
          <InterpolatingParam id="5576" interp="linr"  name="volume">
           <Keyframes>
           <Keyframe id="5577"  time="0/1" value="1" leadInLength="0/1"  />
           <Keyframe id="5578"  time="3301/1" value="1" leadInLength="0/1"  />
           <Keyframe id="5579"  time="3302/1" value="1.1290322580645162" leadInLength="0/1"  />
           <Keyframe id="5580"  time="13691/1" value="1.1290322580645162" leadInLength="0/1"  />
           <Keyframe id="5581"  time="13692/1" value="1" leadInLength="0/1"  />
           </Keyframes>
          </InterpolatingParam>
          <Parameter id="5582"  name="captions"/>
         </Parameters>
         <Effects>
          <GenericEffect id="5583" name = "NoiseReduction" >
           <Parameters>
           <InterpolatingParam id="5584" interp="linr"  time="0/1" value="20" leadInLength="0/1"   name="denoiserAmount"/>
           <InterpolatingParam id="5585" interp="linr"  time="0/1" value="0" leadInLength="0/1"   name="denoiserThreshold"/>
           <Parameter id="5586"   name="noiseProfile">
            <Keyframes>
            <Keyframe id="5587"  time="0/1" value="FBAAAAIAAABErAAAAQIAADOmYsI/y13CPNeLwsehjcK+No/Cm+aOwlHvjcIja5HCun6XwoKemMJy&#xD;&#xa;lpPCuQeRwhgMlcJGdZvCTjScwgFMncIGh5zCGrOawuO0nMJdJZ3Cybudwo6toMIdraPCs/6jwpY0&#xD;&#xa;psLIUqjCWQmpwonmp8KcE6XCgXGlwqC+psIFHabCBoyownWvqcIkX6jCgnCpwms3qsIW0KfCM7Oj&#xD;&#xa;wnGLosJgcKnCdk6swiIgscKFrbDCtNmowrZmpcIHYqjCCg2pwqUNq8KgHq7ChEGxwhVFs8KU6LLC&#xD;&#xa;dvWzwpVHscI6NrDCMpGwwubcs8Imh7bCPKq6wj7tvMKSbr3ClsG+wq4qwMLXQr7CpAK5whxiuMJp&#xD;&#xa;v7nCwu29wloQvsIXTL3CzjDAwsDTwcL69sHC8urAwtAFwMIkSMLCpJHDwjLOw8JG8sTCmMvDwq7H&#xD;&#xa;wsLOncPC+CDDwkh6wsLU5sPCP23Fwm5Qx8KlYsTCm0XCwnhexcLsTsPCSMPDwjvJw8LMWcHC2XHD&#xD;&#xa;wjj5wsICs8TChWvEwgCywcKDdcHCFnHCwurMxMLlVsTCfrDGwmzqyMKoGsfC7ITIwtqRyMJwzcbC&#xD;&#xa;ppbEwiv5xcIXxsTCzDfCwtSExMKEjcTC8ObDwiJ9yMIQm8vCIkDGwqHyxcIyYcbCyAXIwmyBx8I4&#xD;&#xa;n8PCvyPGwuiKxMJggMfCdL3JwsMhysLi6sXCRa7Ewoykx8Jk/MXC0NfEwtK0xcJQTMTCvvvGwtqJ&#xD;&#xa;xMKmFsTCSbfGwq76x8IQ+sjCsqnIwkJdycIaT8fC0nbHwlf2xsLg/cbCtIHHwsTvxsI0KsbCsqDH&#xD;&#xa;wgLix8JGKcXCyNTDwjDwwsIb98bC6MjJwg6Zy8Kg+cvCaC3HwtIgw8KW7sXC3EHGwmcUxcL++8fC&#xD;&#xa;CWbIwsDoxsJFz8PCJkXFwiD7xcIQDsfC8ljIwrDLxMKkeMLClpHEwiqgyMJcjcjC6krGwl50w8Iy&#xD;&#xa;7sXCWv3HwkQ1xsKUwMPC2K/EwootxMJUqMTCH3LDwuojxcKil8fCjmXIwkLJxcID78TClTvGwhel&#xD;&#xa;xsIca8bC1rbCwk6+wsIQfsfCIlPHwpJExcLWhMbCDNvEwuryxMKklMXCeBDDwolhwcIiasLCQYfE&#xD;&#xa;whUfwsJx4MTCsEnIwkX0xcK+3sbCIqLHwrARx8IWtMTCGAnFwomNxMLfbcTCQIPDwjqww8L+MMTC&#xD;&#xa;mqjHwrBaxMI6YsTCxmvIwqyKycKQaMXCnx7FwkYvx8In6sjCGMzIwuvAxcL8a8XCiBjJwkvwyMKI&#xD;&#xa;qMbCTCTIwvQSy8IxEsvCVT/JwrI3w8LA8sLCCD7EwsxXxMJSjsXCfjXFwqTKxMI/gsPCDozDwtwF&#xD;&#xa;xMISn8bChHvJwlFQyMJYCsbCP4jIwtkBycLiFsrCbCrKwvyTysIWncnC+A3HwuI5x8I8/MbC0hHI&#xD;&#xa;wopJzMLmb83CFkvMwpy/y8Kn7MrCfJrJwuLDyMJKn8bCStTGwpb7ycIMo8nCcivFwsapxcJkx8bC&#xD;&#xa;ALLIwriaycJM3cfC8r/KwlSoy8I4A8vCpFHJwkRrzMIKr87CWD7MwsiJycKW9cfCUjbKwq+YycLi&#xD;&#xa;U8jCROHHwhdWycKaU8nCF7jMwmKaz8L//8zC8tjOwjxezsIUysvCzHLJwiJryMLRm8bCgLjKwsi8&#xD;&#xa;ysIhfszCPETLwqtbyMJGeMfCpRPJwnwZzMJSIs3CqhPMwmDiyMLZYsjCz13KwgwKy8LCi8jCyrTM&#xD;&#xa;wgwxzMK4ZcvC087JwkV2xsLyXsnCjIbLwhwvzcLfrM7CeITKwla3ysLK3cnC/PHFwpScxcIUQ8nC&#xD;&#xa;NJzIwrEsxsJvZcfCXSvIwlKLx8JII8nCvgzKwpnhysJSC8vC9iTKwiA/y8IadczCuDrMwuVaysLO&#xD;&#xa;r8vCXtfJwrZ6ycItucnCtonJwjyTysJkC83CL0nMwkjdyMIBucfCixrLwvSDysKGX8nCsCzMwuas&#xD;&#xa;0cIsnNPCuEvOwtr5y8LMBc7Cr+PTwsQc5MLcOfPCKOj0wjr59cJ0C/fCzg75wkwh+8LmVPnCqz72&#xD;&#xa;wnB+9cLuJvrCtEL4wkp7+MLOfffCDN3zwkaz9sLi8vjCFKr6wgIQ+cI8iPjCBpT4wvR1+MLQI/rC&#xD;&#xa;Ihn8wlQg+sIcLvjCVCz2wsI49MJQ9fbC23H3woy69sL4BfnCIOb2wjwy9cIuGvnCdmb3wj7K9MI+&#xD;&#xa;KPXCJpr2wn7C9cKQDvnCthv7woaP+cLGaPbCTr32wrpN+cIFSPjCDvX4wtD39sJY//TCKGf3wvZI&#xD;&#xa;+cK9YvfCgYf3wjIf+sLMMvfCpjz2wuA6+cII8vbCxDv1wmJG9sLka/rCPrT1wi589cLqjfbC9qP4&#xD;&#xa;wgzJ+MLelPbCGir2wlBC9sKeU/jC/nn3wsYn9sL4QPjCXBj5wopQ+MIaJvnCSB36wgjc+MIMfPfC&#xD;&#xa;W+z1wmYG+MKuxPnCCuD1wjh+9sLDrPfCOPj3wm7h+MJjMvfCxH/2wsXf98KwN/nCKOn5wrLR+sKg&#xD;&#xa;bPvCkFv5wsAu+cL2hffCySz2wmRX+MKiiPjCzFX4wvjB98Jgz/fCxPT4wobP+cL8avjC9r34wnKx&#xD;&#xa;+MK+LPnC3H34wle39cKejfbCNKP2wg5B9sK0H/rCSvz2woqE98JAqfjCBPL4wmKi+MIu2/jCMFD5&#xD;&#xa;wiCM+cKo//nCGqz7wlZN+sKUDfjC0ov4wrIU+sIVpffCP2/3woye98KktPbCTJj2wpH29cL3mvbC&#xD;&#xa;jL/4wti/+MLm3vjCQ9QEwzOmYsI/y13CPNeLwsehjcK+No/Cm+aOwlHvjcIja5HCun6XwoKemMJy&#xD;&#xa;lpPCuQeRwhgMlcJGdZvCTjScwgFMncIGh5zCGrOawuO0nMJdJZ3Cybudwo6toMIdraPCs/6jwpY0&#xD;&#xa;psLIUqjCWQmpwonmp8KcE6XCgXGlwqC+psIFHabCBoyownWvqcIkX6jCgnCpwms3qsIW0KfCM7Oj&#xD;&#xa;wnGLosJgcKnCdk6swiIgscKFrbDCtNmowrZmpcIHYqjCCg2pwqUNq8KgHq7ChEGxwhVFs8KU6LLC&#xD;&#xa;dvWzwpVHscI6NrDCMpGwwubcs8Imh7bCPKq6wj7tvMKSbr3ClsG+wq4qwMLXQr7CpAK5whxiuMJp&#xD;&#xa;v7nCwu29wloQvsIXTL3CzjDAwsDTwcL69sHC8urAwtAFwMIkSMLCpJHDwjLOw8JG8sTCmMvDwq7H&#xD;&#xa;wsLOncPC+CDDwkh6wsLU5sPCP23Fwm5Qx8KlYsTCm0XCwnhexcLsTsPCSMPDwjvJw8LMWcHC2XHD&#xD;&#xa;wjj5wsICs8TChWvEwgCywcKDdcHCFnHCwurMxMLlVsTCfrDGwmzqyMKoGsfC7ITIwtqRyMJwzcbC&#xD;&#xa;ppbEwiv5xcIXxsTCzDfCwtSExMKEjcTC8ObDwiJ9yMIQm8vCIkDGwqHyxcIyYcbCyAXIwmyBx8I4&#xD;&#xa;n8PCvyPGwuiKxMJggMfCdL3JwsMhysLi6sXCRa7Ewoykx8Jk/MXC0NfEwtK0xcJQTMTCvvvGwtqJ&#xD;&#xa;xMKmFsTCSbfGwq76x8IQ+sjCsqnIwkJdycIaT8fC0nbHwlf2xsLg/cbCtIHHwsTvxsI0KsbCsqDH&#xD;&#xa;wgLix8JGKcXCyNTDwjDwwsIb98bC6MjJwg6Zy8Kg+cvCaC3HwtIgw8KW7sXC3EHGwmcUxcL++8fC&#xD;&#xa;CWbIwsDoxsJFz8PCJkXFwiD7xcIQDsfC8ljIwrDLxMKkeMLClpHEwiqgyMJcjcjC6krGwl50w8Iy&#xD;&#xa;7sXCWv3HwkQ1xsKUwMPC2K/EwootxMJUqMTCH3LDwuojxcKil8fCjmXIwkLJxcID78TClTvGwhel&#xD;&#xa;xsIca8bC1rbCwk6+wsIQfsfCIlPHwpJExcLWhMbCDNvEwuryxMKklMXCeBDDwolhwcIiasLCQYfE&#xD;&#xa;whUfwsJx4MTCsEnIwkX0xcK+3sbCIqLHwrARx8IWtMTCGAnFwomNxMLfbcTCQIPDwjqww8L+MMTC&#xD;&#xa;mqjHwrBaxMI6YsTCxmvIwqyKycKQaMXCnx7FwkYvx8In6sjCGMzIwuvAxcL8a8XCiBjJwkvwyMKI&#xD;&#xa;qMbCTCTIwvQSy8IxEsvCVT/JwrI3w8LA8sLCCD7EwsxXxMJSjsXCfjXFwqTKxMI/gsPCDozDwtwF&#xD;&#xa;xMISn8bChHvJwlFQyMJYCsbCP4jIwtkBycLiFsrCbCrKwvyTysIWncnC+A3HwuI5x8I8/MbC0hHI&#xD;&#xa;wopJzMLmb83CFkvMwpy/y8Kn7MrCfJrJwuLDyMJKn8bCStTGwpb7ycIMo8nCcivFwsapxcJkx8bC&#xD;&#xa;ALLIwriaycJM3cfC8r/KwlSoy8I4A8vCpFHJwkRrzMIKr87CWD7MwsiJycKW9cfCUjbKwq+YycLi&#xD;&#xa;U8jCROHHwhdWycKaU8nCF7jMwmKaz8L//8zC8tjOwjxezsIUysvCzHLJwiJryMLRm8bCgLjKwsi8&#xD;&#xa;ysIhfszCPETLwqtbyMJGeMfCpRPJwnwZzMJSIs3CqhPMwmDiyMLZYsjCz13KwgwKy8LCi8jCyrTM&#xD;&#xa;wgwxzMK4ZcvC087JwkV2xsLyXsnCjIbLwhwvzcLfrM7CeITKwla3ysLK3cnC/PHFwpScxcIUQ8nC&#xD;&#xa;NJzIwrEsxsJvZcfCXSvIwlKLx8JII8nCvgzKwpnhysJSC8vC9iTKwiA/y8IadczCuDrMwuVaysLO&#xD;&#xa;r8vCXtfJwrZ6ycItucnCtonJwjyTysJkC83CL0nMwkjdyMIBucfCixrLwvSDysKGX8nCsCzMwuas&#xD;&#xa;0cIsnNPCuEvOwtr5y8LMBc7Cr+PTwsQc5MLcOfPCKOj0wjr59cJ0C/fCzg75wkwh+8LmVPnCqz72&#xD;&#xa;wnB+9cLuJvrCtEL4wkp7+MLOfffCDN3zwkaz9sLi8vjCFKr6wgIQ+cI8iPjCBpT4wvR1+MLQI/rC&#xD;&#xa;Ihn8wlQg+sIcLvjCVCz2wsI49MJQ9fbC23H3woy69sL4BfnCIOb2wjwy9cIuGvnCdmb3wj7K9MI+&#xD;&#xa;KPXCJpr2wn7C9cKQDvnCthv7woaP+cLGaPbCTr32wrpN+cIFSPjCDvX4wtD39sJY//TCKGf3wvZI&#xD;&#xa;+cK9YvfCgYf3wjIf+sLMMvfCpjz2wuA6+cII8vbCxDv1wmJG9sLka/rCPrT1wi589cLqjfbC9qP4&#xD;&#xa;wgzJ+MLelPbCGir2wlBC9sKeU/jC/nn3wsYn9sL4QPjCXBj5wopQ+MIaJvnCSB36wgjc+MIMfPfC&#xD;&#xa;W+z1wmYG+MKuxPnCCuD1wjh+9sLDrPfCOPj3wm7h+MJjMvfCxH/2wsXf98KwN/nCKOn5wrLR+sKg&#xD;&#xa;bPvCkFv5wsAu+cL2hffCySz2wmRX+MKiiPjCzFX4wvjB98Jgz/fCxPT4wobP+cL8avjC9r34wnKx&#xD;&#xa;+MK+LPnC3H34wle39cKejfbCNKP2wg5B9sK0H/rCSvz2woqE98JAqfjCBPL4wmKi+MIu2/jCMFD5&#xD;&#xa;wiCM+cKo//nCGqz7wlZN+sKUDfjC0ov4wrIU+sIVpffCP2/3woye98KktPbCTJj2wpH29cL3mvbC&#xD;&#xa;jL/4wti/+MLm3vjCQ9QE" leadInLength="0/1"  />
            </Keyframes>
           </Parameter>
           </Parameters>
          </GenericEffect>
          <GenericEffect id="5588" name = "WinCompression" >
           <Parameters>
           <InterpolatingParam id="5589" interp="linr"  time="0/1" value="0" leadInLength="0/1"   name="attack"/>
           <InterpolatingParam id="5590" interp="linr"  time="0/1" value="9" leadInLength="0/1"   name="gain"/>
           <Parameter id="5591"   name="preset">
            <Keyframes>
            <Keyframe id="5592"  time="0/1" value="1" leadInLength="0/1"  />
            </Keyframes>
           </Parameter>
           <InterpolatingParam id="5593" interp="linr"  time="0/1" value="10" leadInLength="0/1"   name="ratio"/>
           <InterpolatingParam id="5594" interp="linr"  time="0/1" value="3500" leadInLength="0/1"   name="release"/>
           <InterpolatingParam id="5595" interp="linr"  time="0/1" value="-20" leadInLength="0/1"   name="threshold"/>
           </Parameters>
          </GenericEffect>
          <GenericEffect id="5596" name = "Declipper" >
           <Parameters>
           <InterpolatingParam id="5597" interp="linr"  time="0/1" value="-1" leadInLength="0/1"   name="sensitivity"/>
           </Parameters>
          </GenericEffect>
          <GenericEffect id="5598" name = "Declicker" >
           <Parameters>
           <InterpolatingParam id="5599" interp="linr"  time="0/1" value="3" leadInLength="0/1"   name="sensitivity"/>
           </Parameters>
          </GenericEffect>
         </Effects>
         <Attributes>
          <Attribute id="5600" value="" name="ident"/>
          <Attribute id="5601" value="0" name="mixToMono"/>
         </Attributes>
         <MetaData>
          <entry key="WinSubProjectDisplayName" val=""/>
         </MetaData>
         <ExtraData>
          <Entry key="ZoomPanBin">
           <ZoomPanBin id="5602"  >
            <ZoomPanKeyframes>
            </ZoomPanKeyframes>
           </ZoomPanBin>
          </Entry>
          <Entry key="CursorEffectBin">
           <CursorEffectBin id="5603"  >
            <CursorEffectKeyframes>
            </CursorEffectKeyframes>
           </CursorEffectBin>
          </Entry>
         </ExtraData>
         <GenericTrack id="5604"  >
          <Attributes>
           <Attribute id="5605" value="" name="ident"/>
           <Attribute id="5606" value="0" name="audioMuted"/>
           <Attribute id="5607" value="0" name="videoHidden"/>
          </Attributes>
          <MetaData>
           <entry key="IsLocked" val="False"/>
           <entry key="WinTrackHeight" val="0"/>
          </MetaData>
          <Medias>
           <AMFile id="5608" start="0" duration="4896" scalar="1/1" mediaStart="0/1" mediaDuration="4896/1" trackNumber="0" src="22" channelNumber="0" >
            <Parameters>
             <InterpolatingParam id="5609" interp="linr"  time="0/1" value="1" leadInLength="0/1"  name="volume"/>
             <Parameter id="5610"  name="captions"/>
            </Parameters>
            <Attributes>
             <Attribute id="5611" value="" name="ident"/>
             <Attribute id="5612" value="44100" name="sampleRate"/>
             <Attribute id="5613" value="16" name="bitDepth"/>
             <Attribute id="5614" value="1" name="gain"/>
             <Attribute id="5615" value="0" name="mixToMono"/>
            </Attributes>
            <MetaData>
             <entry key="WinSubProjectDisplayName" val=""/>
            </MetaData>
           </AMFile>
           <AMFile id="5616" start="4896" duration="411" scalar="1/1" mediaStart="4989/1" mediaDuration="411/1" trackNumber="0" src="22" channelNumber="0" >
            <Parameters>
             <InterpolatingParam id="5617" interp="linr"  time="0/1" value="1" leadInLength="0/1"  name="volume"/>
             <Parameter id="5618"  name="captions"/>
            </Parameters>
            <Attributes>
             <Attribute id="5619" value="" name="ident"/>
             <Attribute id="5620" value="44100" name="sampleRate"/>
             <Attribute id="5621" value="16" name="bitDepth"/>
             <Attribute id="5622" value="1" name="gain"/>
             <Attribute id="5623" value="0" name="mixToMono"/>
            </Attributes>
            <MetaData>
             <entry key="WinSubProjectDisplayName" val=""/>
            </MetaData>
           </AMFile>
           <AMFile id="5624" start="5307" duration="1270" scalar="1/1" mediaStart="5956/1" mediaDuration="1270/1" trackNumber="0" src="22" channelNumber="0" >
            <Parameters>
             <InterpolatingParam id="5625" interp="linr"  time="0/1" value="1" leadInLength="0/1"  name="volume"/>
             <Parameter id="5626"  name="captions"/>
            </Parameters>
            <Attributes>
             <Attribute id="5627" value="" name="ident"/>
             <Attribute id="5628" value="44100" name="sampleRate"/>
             <Attribute id="5629" value="16" name="bitDepth"/>
             <Attribute id="5630" value="1" name="gain"/>
             <Attribute id="5631" value="0" name="mixToMono"/>
            </Attributes>
            <MetaData>
             <entry key="WinSubProjectDisplayName" val=""/>
            </MetaData>
           </AMFile>
           <AMFile id="5632" start="6577" duration="7114" scalar="1/1" mediaStart="7454/1" mediaDuration="7114/1" trackNumber="0" src="22" channelNumber="0" >
            <Parameters>
             <InterpolatingParam id="5633" interp="linr"  time="0/1" value="1" leadInLength="0/1"  name="volume"/>
             <Parameter id="5634"  name="captions"/>
            </Parameters>
            <Attributes>
             <Attribute id="5635" value="" name="ident"/>
             <Attribute id="5636" value="44100" name="sampleRate"/>
             <Attribute id="5637" value="16" name="bitDepth"/>
             <Attribute id="5638" value="1" name="gain"/>
             <Attribute id="5639" value="0" name="mixToMono"/>
            </Attributes>
            <MetaData>
             <entry key="WinSubProjectDisplayName" val=""/>
            </MetaData>
           </AMFile>
          </Medias>
         </GenericTrack>
        </StitchedMedia>
        <StitchedMedia id="5640" start="4720" duration="25" scalar="1/1" mediaStart="6149/1" mediaDuration="25/1" minMediaStart="0/1" >
         <Transformer>
          <VectorParam id="5641"  name="translation">
           <InterpolatingParam id="5642" interp="linr"  time="0/1" value="0" leadInLength="0/1"  />
           <InterpolatingParam id="5643" interp="linr"  time="0/1" value="0" leadInLength="0/1"  />
           <InterpolatingParam id="5644" interp="linr"  time="0/1" value="0" leadInLength="0/1"  />
          </VectorParam>
          <VectorParam id="5645"  name="rotation">
           <InterpolatingParam id="5646" interp="linr"  time="0/1" value="0" leadInLength="0/1"  />
           <InterpolatingParam id="5647" interp="linr"  time="0/1" value="0" leadInLength="0/1"  />
           <InterpolatingParam id="5648" interp="linr"  time="0/1" value="0" leadInLength="0/1"  />
          </VectorParam>
          <VectorParam id="5649"  name="shear">
           <InterpolatingParam id="5650" interp="linr"  time="0/1" value="0" leadInLength="0/1"  />
           <InterpolatingParam id="5651" interp="linr"  time="0/1" value="0" leadInLength="0/1"  />
           <InterpolatingParam id="5652" interp="linr"  time="0/1" value="0" leadInLength="0/1"  />
          </VectorParam>
          <VectorParam id="5653"  name="scale">
           <InterpolatingParam id="5654" interp="linr"  time="0/1" value="1" leadInLength="0/1"  />
           <InterpolatingParam id="5655" interp="linr"  time="0/1" value="1" leadInLength="0/1"  />
           <InterpolatingParam id="5656" interp="linr"  time="0/1" value="1" leadInLength="0/1"  />
          </VectorParam>
          <VectorParam id="5657"  name="anchor">
           <InterpolatingParam id="5658" interp="linr"  time="0/1" value="0" leadInLength="0/1"  />
           <InterpolatingParam id="5659" interp="linr"  time="0/1" value="0" leadInLength="0/1"  />
           <InterpolatingParam id="5660" interp="linr"  time="0/1" value="0" leadInLength="0/1"  />
          </VectorParam>
         </Transformer>
         <Parameters>
          <InterpolatingParam id="5661" interp="linr"  time="0/1" value="1" leadInLength="0/1"  name="cursorOpacity"/>
          <InterpolatingParam id="5662" interp="linr"  time="0/1" value="1" leadInLength="0/1"  name="cursorScale"/>
          <InterpolatingParam id="5663" interp="linr"  name="volume">
           <Keyframes>
           <Keyframe id="5664"  time="0/1" value="1" leadInLength="0/1"  />
           <Keyframe id="5665"  time="3301/1" value="1" leadInLength="0/1"  />
           <Keyframe id="5666"  time="3302/1" value="1.1290322580645162" leadInLength="0/1"  />
           <Keyframe id="5667"  time="13691/1" value="1.1290322580645162" leadInLength="0/1"  />
           <Keyframe id="5668"  time="13692/1" value="1" leadInLength="0/1"  />
           </Keyframes>
          </InterpolatingParam>
          <Parameter id="5669"  name="captions"/>
         </Parameters>
         <Effects>
          <GenericEffect id="5670" name = "NoiseReduction" >
           <Parameters>
           <InterpolatingParam id="5671" interp="linr"  time="0/1" value="20" leadInLength="0/1"   name="denoiserAmount"/>
           <InterpolatingParam id="5672" interp="linr"  time="0/1" value="0" leadInLength="0/1"   name="denoiserThreshold"/>
           <Parameter id="5673"   name="noiseProfile">
            <Keyframes>
            <Keyframe id="5674"  time="0/1" value="FBAAAAIAAABErAAAAQIAADOmYsI/y13CPNeLwsehjcK+No/Cm+aOwlHvjcIja5HCun6XwoKemMJy&#xD;&#xa;lpPCuQeRwhgMlcJGdZvCTjScwgFMncIGh5zCGrOawuO0nMJdJZ3Cybudwo6toMIdraPCs/6jwpY0&#xD;&#xa;psLIUqjCWQmpwonmp8KcE6XCgXGlwqC+psIFHabCBoyownWvqcIkX6jCgnCpwms3qsIW0KfCM7Oj&#xD;&#xa;wnGLosJgcKnCdk6swiIgscKFrbDCtNmowrZmpcIHYqjCCg2pwqUNq8KgHq7ChEGxwhVFs8KU6LLC&#xD;&#xa;dvWzwpVHscI6NrDCMpGwwubcs8Imh7bCPKq6wj7tvMKSbr3ClsG+wq4qwMLXQr7CpAK5whxiuMJp&#xD;&#xa;v7nCwu29wloQvsIXTL3CzjDAwsDTwcL69sHC8urAwtAFwMIkSMLCpJHDwjLOw8JG8sTCmMvDwq7H&#xD;&#xa;wsLOncPC+CDDwkh6wsLU5sPCP23Fwm5Qx8KlYsTCm0XCwnhexcLsTsPCSMPDwjvJw8LMWcHC2XHD&#xD;&#xa;wjj5wsICs8TChWvEwgCywcKDdcHCFnHCwurMxMLlVsTCfrDGwmzqyMKoGsfC7ITIwtqRyMJwzcbC&#xD;&#xa;ppbEwiv5xcIXxsTCzDfCwtSExMKEjcTC8ObDwiJ9yMIQm8vCIkDGwqHyxcIyYcbCyAXIwmyBx8I4&#xD;&#xa;n8PCvyPGwuiKxMJggMfCdL3JwsMhysLi6sXCRa7Ewoykx8Jk/MXC0NfEwtK0xcJQTMTCvvvGwtqJ&#xD;&#xa;xMKmFsTCSbfGwq76x8IQ+sjCsqnIwkJdycIaT8fC0nbHwlf2xsLg/cbCtIHHwsTvxsI0KsbCsqDH&#xD;&#xa;wgLix8JGKcXCyNTDwjDwwsIb98bC6MjJwg6Zy8Kg+cvCaC3HwtIgw8KW7sXC3EHGwmcUxcL++8fC&#xD;&#xa;CWbIwsDoxsJFz8PCJkXFwiD7xcIQDsfC8ljIwrDLxMKkeMLClpHEwiqgyMJcjcjC6krGwl50w8Iy&#xD;&#xa;7sXCWv3HwkQ1xsKUwMPC2K/EwootxMJUqMTCH3LDwuojxcKil8fCjmXIwkLJxcID78TClTvGwhel&#xD;&#xa;xsIca8bC1rbCwk6+wsIQfsfCIlPHwpJExcLWhMbCDNvEwuryxMKklMXCeBDDwolhwcIiasLCQYfE&#xD;&#xa;whUfwsJx4MTCsEnIwkX0xcK+3sbCIqLHwrARx8IWtMTCGAnFwomNxMLfbcTCQIPDwjqww8L+MMTC&#xD;&#xa;mqjHwrBaxMI6YsTCxmvIwqyKycKQaMXCnx7FwkYvx8In6sjCGMzIwuvAxcL8a8XCiBjJwkvwyMKI&#xD;&#xa;qMbCTCTIwvQSy8IxEsvCVT/JwrI3w8LA8sLCCD7EwsxXxMJSjsXCfjXFwqTKxMI/gsPCDozDwtwF&#xD;&#xa;xMISn8bChHvJwlFQyMJYCsbCP4jIwtkBycLiFsrCbCrKwvyTysIWncnC+A3HwuI5x8I8/MbC0hHI&#xD;&#xa;wopJzMLmb83CFkvMwpy/y8Kn7MrCfJrJwuLDyMJKn8bCStTGwpb7ycIMo8nCcivFwsapxcJkx8bC&#xD;&#xa;ALLIwriaycJM3cfC8r/KwlSoy8I4A8vCpFHJwkRrzMIKr87CWD7MwsiJycKW9cfCUjbKwq+YycLi&#xD;&#xa;U8jCROHHwhdWycKaU8nCF7jMwmKaz8L//8zC8tjOwjxezsIUysvCzHLJwiJryMLRm8bCgLjKwsi8&#xD;&#xa;ysIhfszCPETLwqtbyMJGeMfCpRPJwnwZzMJSIs3CqhPMwmDiyMLZYsjCz13KwgwKy8LCi8jCyrTM&#xD;&#xa;wgwxzMK4ZcvC087JwkV2xsLyXsnCjIbLwhwvzcLfrM7CeITKwla3ysLK3cnC/PHFwpScxcIUQ8nC&#xD;&#xa;NJzIwrEsxsJvZcfCXSvIwlKLx8JII8nCvgzKwpnhysJSC8vC9iTKwiA/y8IadczCuDrMwuVaysLO&#xD;&#xa;r8vCXtfJwrZ6ycItucnCtonJwjyTysJkC83CL0nMwkjdyMIBucfCixrLwvSDysKGX8nCsCzMwuas&#xD;&#xa;0cIsnNPCuEvOwtr5y8LMBc7Cr+PTwsQc5MLcOfPCKOj0wjr59cJ0C/fCzg75wkwh+8LmVPnCqz72&#xD;&#xa;wnB+9cLuJvrCtEL4wkp7+MLOfffCDN3zwkaz9sLi8vjCFKr6wgIQ+cI8iPjCBpT4wvR1+MLQI/rC&#xD;&#xa;Ihn8wlQg+sIcLvjCVCz2wsI49MJQ9fbC23H3woy69sL4BfnCIOb2wjwy9cIuGvnCdmb3wj7K9MI+&#xD;&#xa;KPXCJpr2wn7C9cKQDvnCthv7woaP+cLGaPbCTr32wrpN+cIFSPjCDvX4wtD39sJY//TCKGf3wvZI&#xD;&#xa;+cK9YvfCgYf3wjIf+sLMMvfCpjz2wuA6+cII8vbCxDv1wmJG9sLka/rCPrT1wi589cLqjfbC9qP4&#xD;&#xa;wgzJ+MLelPbCGir2wlBC9sKeU/jC/nn3wsYn9sL4QPjCXBj5wopQ+MIaJvnCSB36wgjc+MIMfPfC&#xD;&#xa;W+z1wmYG+MKuxPnCCuD1wjh+9sLDrPfCOPj3wm7h+MJjMvfCxH/2wsXf98KwN/nCKOn5wrLR+sKg&#xD;&#xa;bPvCkFv5wsAu+cL2hffCySz2wmRX+MKiiPjCzFX4wvjB98Jgz/fCxPT4wobP+cL8avjC9r34wnKx&#xD;&#xa;+MK+LPnC3H34wle39cKejfbCNKP2wg5B9sK0H/rCSvz2woqE98JAqfjCBPL4wmKi+MIu2/jCMFD5&#xD;&#xa;wiCM+cKo//nCGqz7wlZN+sKUDfjC0ov4wrIU+sIVpffCP2/3woye98KktPbCTJj2wpH29cL3mvbC&#xD;&#xa;jL/4wti/+MLm3vjCQ9QEwzOmYsI/y13CPNeLwsehjcK+No/Cm+aOwlHvjcIja5HCun6XwoKemMJy&#xD;&#xa;lpPCuQeRwhgMlcJGdZvCTjScwgFMncIGh5zCGrOawuO0nMJdJZ3Cybudwo6toMIdraPCs/6jwpY0&#xD;&#xa;psLIUqjCWQmpwonmp8KcE6XCgXGlwqC+psIFHabCBoyownWvqcIkX6jCgnCpwms3qsIW0KfCM7Oj&#xD;&#xa;wnGLosJgcKnCdk6swiIgscKFrbDCtNmowrZmpcIHYqjCCg2pwqUNq8KgHq7ChEGxwhVFs8KU6LLC&#xD;&#xa;dvWzwpVHscI6NrDCMpGwwubcs8Imh7bCPKq6wj7tvMKSbr3ClsG+wq4qwMLXQr7CpAK5whxiuMJp&#xD;&#xa;v7nCwu29wloQvsIXTL3CzjDAwsDTwcL69sHC8urAwtAFwMIkSMLCpJHDwjLOw8JG8sTCmMvDwq7H&#xD;&#xa;wsLOncPC+CDDwkh6wsLU5sPCP23Fwm5Qx8KlYsTCm0XCwnhexcLsTsPCSMPDwjvJw8LMWcHC2XHD&#xD;&#xa;wjj5wsICs8TChWvEwgCywcKDdcHCFnHCwurMxMLlVsTCfrDGwmzqyMKoGsfC7ITIwtqRyMJwzcbC&#xD;&#xa;ppbEwiv5xcIXxsTCzDfCwtSExMKEjcTC8ObDwiJ9yMIQm8vCIkDGwqHyxcIyYcbCyAXIwmyBx8I4&#xD;&#xa;n8PCvyPGwuiKxMJggMfCdL3JwsMhysLi6sXCRa7Ewoykx8Jk/MXC0NfEwtK0xcJQTMTCvvvGwtqJ&#xD;&#xa;xMKmFsTCSbfGwq76x8IQ+sjCsqnIwkJdycIaT8fC0nbHwlf2xsLg/cbCtIHHwsTvxsI0KsbCsqDH&#xD;&#xa;wgLix8JGKcXCyNTDwjDwwsIb98bC6MjJwg6Zy8Kg+cvCaC3HwtIgw8KW7sXC3EHGwmcUxcL++8fC&#xD;&#xa;CWbIwsDoxsJFz8PCJkXFwiD7xcIQDsfC8ljIwrDLxMKkeMLClpHEwiqgyMJcjcjC6krGwl50w8Iy&#xD;&#xa;7sXCWv3HwkQ1xsKUwMPC2K/EwootxMJUqMTCH3LDwuojxcKil8fCjmXIwkLJxcID78TClTvGwhel&#xD;&#xa;xsIca8bC1rbCwk6+wsIQfsfCIlPHwpJExcLWhMbCDNvEwuryxMKklMXCeBDDwolhwcIiasLCQYfE&#xD;&#xa;whUfwsJx4MTCsEnIwkX0xcK+3sbCIqLHwrARx8IWtMTCGAnFwomNxMLfbcTCQIPDwjqww8L+MMTC&#xD;&#xa;mqjHwrBaxMI6YsTCxmvIwqyKycKQaMXCnx7FwkYvx8In6sjCGMzIwuvAxcL8a8XCiBjJwkvwyMKI&#xD;&#xa;qMbCTCTIwvQSy8IxEsvCVT/JwrI3w8LA8sLCCD7EwsxXxMJSjsXCfjXFwqTKxMI/gsPCDozDwtwF&#xD;&#xa;xMISn8bChHvJwlFQyMJYCsbCP4jIwtkBycLiFsrCbCrKwvyTysIWncnC+A3HwuI5x8I8/MbC0hHI&#xD;&#xa;wopJzMLmb83CFkvMwpy/y8Kn7MrCfJrJwuLDyMJKn8bCStTGwpb7ycIMo8nCcivFwsapxcJkx8bC&#xD;&#xa;ALLIwriaycJM3cfC8r/KwlSoy8I4A8vCpFHJwkRrzMIKr87CWD7MwsiJycKW9cfCUjbKwq+YycLi&#xD;&#xa;U8jCROHHwhdWycKaU8nCF7jMwmKaz8L//8zC8tjOwjxezsIUysvCzHLJwiJryMLRm8bCgLjKwsi8&#xD;&#xa;ysIhfszCPETLwqtbyMJGeMfCpRPJwnwZzMJSIs3CqhPMwmDiyMLZYsjCz13KwgwKy8LCi8jCyrTM&#xD;&#xa;wgwxzMK4ZcvC087JwkV2xsLyXsnCjIbLwhwvzcLfrM7CeITKwla3ysLK3cnC/PHFwpScxcIUQ8nC&#xD;&#xa;NJzIwrEsxsJvZcfCXSvIwlKLx8JII8nCvgzKwpnhysJSC8vC9iTKwiA/y8IadczCuDrMwuVaysLO&#xD;&#xa;r8vCXtfJwrZ6ycItucnCtonJwjyTysJkC83CL0nMwkjdyMIBucfCixrLwvSDysKGX8nCsCzMwuas&#xD;&#xa;0cIsnNPCuEvOwtr5y8LMBc7Cr+PTwsQc5MLcOfPCKOj0wjr59cJ0C/fCzg75wkwh+8LmVPnCqz72&#xD;&#xa;wnB+9cLuJvrCtEL4wkp7+MLOfffCDN3zwkaz9sLi8vjCFKr6wgIQ+cI8iPjCBpT4wvR1+MLQI/rC&#xD;&#xa;Ihn8wlQg+sIcLvjCVCz2wsI49MJQ9fbC23H3woy69sL4BfnCIOb2wjwy9cIuGvnCdmb3wj7K9MI+&#xD;&#xa;KPXCJpr2wn7C9cKQDvnCthv7woaP+cLGaPbCTr32wrpN+cIFSPjCDvX4wtD39sJY//TCKGf3wvZI&#xD;&#xa;+cK9YvfCgYf3wjIf+sLMMvfCpjz2wuA6+cII8vbCxDv1wmJG9sLka/rCPrT1wi589cLqjfbC9qP4&#xD;&#xa;wgzJ+MLelPbCGir2wlBC9sKeU/jC/nn3wsYn9sL4QPjCXBj5wopQ+MIaJvnCSB36wgjc+MIMfPfC&#xD;&#xa;W+z1wmYG+MKuxPnCCuD1wjh+9sLDrPfCOPj3wm7h+MJjMvfCxH/2wsXf98KwN/nCKOn5wrLR+sKg&#xD;&#xa;bPvCkFv5wsAu+cL2hffCySz2wmRX+MKiiPjCzFX4wvjB98Jgz/fCxPT4wobP+cL8avjC9r34wnKx&#xD;&#xa;+MK+LPnC3H34wle39cKejfbCNKP2wg5B9sK0H/rCSvz2woqE98JAqfjCBPL4wmKi+MIu2/jCMFD5&#xD;&#xa;wiCM+cKo//nCGqz7wlZN+sKUDfjC0ov4wrIU+sIVpffCP2/3woye98KktPbCTJj2wpH29cL3mvbC&#xD;&#xa;jL/4wti/+MLm3vjCQ9QE" leadInLength="0/1"  />
            </Keyframes>
           </Parameter>
           </Parameters>
          </GenericEffect>
          <GenericEffect id="5675" name = "WinCompression" >
           <Parameters>
           <InterpolatingParam id="5676" interp="linr"  time="0/1" value="0" leadInLength="0/1"   name="attack"/>
           <InterpolatingParam id="5677" interp="linr"  time="0/1" value="9" leadInLength="0/1"   name="gain"/>
           <Parameter id="5678"   name="preset">
            <Keyframes>
            <Keyframe id="5679"  time="0/1" value="1" leadInLength="0/1"  />
            </Keyframes>
           </Parameter>
           <InterpolatingParam id="5680" interp="linr"  time="0/1" value="10" leadInLength="0/1"   name="ratio"/>
           <InterpolatingParam id="5681" interp="linr"  time="0/1" value="3500" leadInLength="0/1"   name="release"/>
           <InterpolatingParam id="5682" interp="linr"  time="0/1" value="-20" leadInLength="0/1"   name="threshold"/>
           </Parameters>
          </GenericEffect>
          <GenericEffect id="5683" name = "Declipper" >
           <Parameters>
           <InterpolatingParam id="5684" interp="linr"  time="0/1" value="-1" leadInLength="0/1"   name="sensitivity"/>
           </Parameters>
          </GenericEffect>
          <GenericEffect id="5685" name = "Declicker" >
           <Parameters>
           <InterpolatingParam id="5686" interp="linr"  time="0/1" value="3" leadInLength="0/1"   name="sensitivity"/>
           </Parameters>
          </GenericEffect>
         </Effects>
         <Attributes>
          <Attribute id="5687" value="" name="ident"/>
          <Attribute id="5688" value="0" name="mixToMono"/>
         </Attributes>
         <MetaData>
          <entry key="WinSubProjectDisplayName" val=""/>
         </MetaData>
         <ExtraData>
          <Entry key="ZoomPanBin">
           <ZoomPanBin id="5689"  >
            <ZoomPanKeyframes>
            </ZoomPanKeyframes>
           </ZoomPanBin>
          </Entry>
          <Entry key="CursorEffectBin">
           <CursorEffectBin id="5690"  >
            <CursorEffectKeyframes>
            </CursorEffectKeyframes>
           </CursorEffectBin>
          </Entry>
         </ExtraData>
         <GenericTrack id="5691"  >
          <Attributes>
           <Attribute id="5692" value="" name="ident"/>
           <Attribute id="5693" value="0" name="audioMuted"/>
           <Attribute id="5694" value="0" name="videoHidden"/>
          </Attributes>
          <MetaData>
           <entry key="IsLocked" val="False"/>
           <entry key="WinTrackHeight" val="0"/>
          </MetaData>
          <Medias>
           <AMFile id="5695" start="0" duration="4896" scalar="1/1" mediaStart="0/1" mediaDuration="4896/1" trackNumber="0" src="22" channelNumber="0" >
            <Parameters>
             <InterpolatingParam id="5696" interp="linr"  time="0/1" value="1" leadInLength="0/1"  name="volume"/>
             <Parameter id="5697"  name="captions"/>
            </Parameters>
            <Attributes>
             <Attribute id="5698" value="" name="ident"/>
             <Attribute id="5699" value="44100" name="sampleRate"/>
             <Attribute id="5700" value="16" name="bitDepth"/>
             <Attribute id="5701" value="1" name="gain"/>
             <Attribute id="5702" value="0" name="mixToMono"/>
            </Attributes>
            <MetaData>
             <entry key="WinSubProjectDisplayName" val=""/>
            </MetaData>
           </AMFile>
           <AMFile id="5703" start="4896" duration="411" scalar="1/1" mediaStart="4989/1" mediaDuration="411/1" trackNumber="0" src="22" channelNumber="0" >
            <Parameters>
             <InterpolatingParam id="5704" interp="linr"  time="0/1" value="1" leadInLength="0/1"  name="volume"/>
             <Parameter id="5705"  name="captions"/>
            </Parameters>
            <Attributes>
             <Attribute id="5706" value="" name="ident"/>
             <Attribute id="5707" value="44100" name="sampleRate"/>
             <Attribute id="5708" value="16" name="bitDepth"/>
             <Attribute id="5709" value="1" name="gain"/>
             <Attribute id="5710" value="0" name="mixToMono"/>
            </Attributes>
            <MetaData>
             <entry key="WinSubProjectDisplayName" val=""/>
            </MetaData>
           </AMFile>
           <AMFile id="5711" start="5307" duration="1270" scalar="1/1" mediaStart="5956/1" mediaDuration="1270/1" trackNumber="0" src="22" channelNumber="0" >
            <Parameters>
             <InterpolatingParam id="5712" interp="linr"  time="0/1" value="1" leadInLength="0/1"  name="volume"/>
             <Parameter id="5713"  name="captions"/>
            </Parameters>
            <Attributes>
             <Attribute id="5714" value="" name="ident"/>
             <Attribute id="5715" value="44100" name="sampleRate"/>
             <Attribute id="5716" value="16" name="bitDepth"/>
             <Attribute id="5717" value="1" name="gain"/>
             <Attribute id="5718" value="0" name="mixToMono"/>
            </Attributes>
            <MetaData>
             <entry key="WinSubProjectDisplayName" val=""/>
            </MetaData>
           </AMFile>
           <AMFile id="5719" start="6577" duration="7114" scalar="1/1" mediaStart="7454/1" mediaDuration="7114/1" trackNumber="0" src="22" channelNumber="0" >
            <Parameters>
             <InterpolatingParam id="5720" interp="linr"  time="0/1" value="1" leadInLength="0/1"  name="volume"/>
             <Parameter id="5721"  name="captions"/>
            </Parameters>
            <Attributes>
             <Attribute id="5722" value="" name="ident"/>
             <Attribute id="5723" value="44100" name="sampleRate"/>
             <Attribute id="5724" value="16" name="bitDepth"/>
             <Attribute id="5725" value="1" name="gain"/>
             <Attribute id="5726" value="0" name="mixToMono"/>
            </Attributes>
            <MetaData>
             <entry key="WinSubProjectDisplayName" val=""/>
            </MetaData>
           </AMFile>
          </Medias>
         </GenericTrack>
        </StitchedMedia>
        <StitchedMedia id="5727" start="4754" duration="55" scalar="1/1" mediaStart="6186/1" mediaDuration="55/1" minMediaStart="0/1" >
         <Transformer>
          <VectorParam id="5728"  name="translation">
           <InterpolatingParam id="5729" interp="linr"  time="0/1" value="0" leadInLength="0/1"  />
           <InterpolatingParam id="5730" interp="linr"  time="0/1" value="0" leadInLength="0/1"  />
           <InterpolatingParam id="5731" interp="linr"  time="0/1" value="0" leadInLength="0/1"  />
          </VectorParam>
          <VectorParam id="5732"  name="rotation">
           <InterpolatingParam id="5733" interp="linr"  time="0/1" value="0" leadInLength="0/1"  />
           <InterpolatingParam id="5734" interp="linr"  time="0/1" value="0" leadInLength="0/1"  />
           <InterpolatingParam id="5735" interp="linr"  time="0/1" value="0" leadInLength="0/1"  />
          </VectorParam>
          <VectorParam id="5736"  name="shear">
           <InterpolatingParam id="5737" interp="linr"  time="0/1" value="0" leadInLength="0/1"  />
           <InterpolatingParam id="5738" interp="linr"  time="0/1" value="0" leadInLength="0/1"  />
           <InterpolatingParam id="5739" interp="linr"  time="0/1" value="0" leadInLength="0/1"  />
          </VectorParam>
          <VectorParam id="5740"  name="scale">
           <InterpolatingParam id="5741" interp="linr"  time="0/1" value="1" leadInLength="0/1"  />
           <InterpolatingParam id="5742" interp="linr"  time="0/1" value="1" leadInLength="0/1"  />
           <InterpolatingParam id="5743" interp="linr"  time="0/1" value="1" leadInLength="0/1"  />
          </VectorParam>
          <VectorParam id="5744"  name="anchor">
           <InterpolatingParam id="5745" interp="linr"  time="0/1" value="0" leadInLength="0/1"  />
           <InterpolatingParam id="5746" interp="linr"  time="0/1" value="0" leadInLength="0/1"  />
           <InterpolatingParam id="5747" interp="linr"  time="0/1" value="0" leadInLength="0/1"  />
          </VectorParam>
         </Transformer>
         <Parameters>
          <InterpolatingParam id="5748" interp="linr"  time="0/1" value="1" leadInLength="0/1"  name="cursorOpacity"/>
          <InterpolatingParam id="5749" interp="linr"  time="0/1" value="1" leadInLength="0/1"  name="cursorScale"/>
          <InterpolatingParam id="5750" interp="linr"  name="volume">
           <Keyframes>
           <Keyframe id="5751"  time="0/1" value="1" leadInLength="0/1"  />
           <Keyframe id="5752"  time="3301/1" value="1" leadInLength="0/1"  />
           <Keyframe id="5753"  time="3302/1" value="1.1290322580645162" leadInLength="0/1"  />
           <Keyframe id="5754"  time="13691/1" value="1.1290322580645162" leadInLength="0/1"  />
           <Keyframe id="5755"  time="13692/1" value="1" leadInLength="0/1"  />
           </Keyframes>
          </InterpolatingParam>
          <Parameter id="5756"  name="captions"/>
         </Parameters>
         <Effects>
          <GenericEffect id="5757" name = "NoiseReduction" >
           <Parameters>
           <InterpolatingParam id="5758" interp="linr"  time="0/1" value="20" leadInLength="0/1"   name="denoiserAmount"/>
           <InterpolatingParam id="5759" interp="linr"  time="0/1" value="0" leadInLength="0/1"   name="denoiserThreshold"/>
           <Parameter id="5760"   name="noiseProfile">
            <Keyframes>
            <Keyframe id="5761"  time="0/1" value="FBAAAAIAAABErAAAAQIAADOmYsI/y13CPNeLwsehjcK+No/Cm+aOwlHvjcIja5HCun6XwoKemMJy&#xD;&#xa;lpPCuQeRwhgMlcJGdZvCTjScwgFMncIGh5zCGrOawuO0nMJdJZ3Cybudwo6toMIdraPCs/6jwpY0&#xD;&#xa;psLIUqjCWQmpwonmp8KcE6XCgXGlwqC+psIFHabCBoyownWvqcIkX6jCgnCpwms3qsIW0KfCM7Oj&#xD;&#xa;wnGLosJgcKnCdk6swiIgscKFrbDCtNmowrZmpcIHYqjCCg2pwqUNq8KgHq7ChEGxwhVFs8KU6LLC&#xD;&#xa;dvWzwpVHscI6NrDCMpGwwubcs8Imh7bCPKq6wj7tvMKSbr3ClsG+wq4qwMLXQr7CpAK5whxiuMJp&#xD;&#xa;v7nCwu29wloQvsIXTL3CzjDAwsDTwcL69sHC8urAwtAFwMIkSMLCpJHDwjLOw8JG8sTCmMvDwq7H&#xD;&#xa;wsLOncPC+CDDwkh6wsLU5sPCP23Fwm5Qx8KlYsTCm0XCwnhexcLsTsPCSMPDwjvJw8LMWcHC2XHD&#xD;&#xa;wjj5wsICs8TChWvEwgCywcKDdcHCFnHCwurMxMLlVsTCfrDGwmzqyMKoGsfC7ITIwtqRyMJwzcbC&#xD;&#xa;ppbEwiv5xcIXxsTCzDfCwtSExMKEjcTC8ObDwiJ9yMIQm8vCIkDGwqHyxcIyYcbCyAXIwmyBx8I4&#xD;&#xa;n8PCvyPGwuiKxMJggMfCdL3JwsMhysLi6sXCRa7Ewoykx8Jk/MXC0NfEwtK0xcJQTMTCvvvGwtqJ&#xD;&#xa;xMKmFsTCSbfGwq76x8IQ+sjCsqnIwkJdycIaT8fC0nbHwlf2xsLg/cbCtIHHwsTvxsI0KsbCsqDH&#xD;&#xa;wgLix8JGKcXCyNTDwjDwwsIb98bC6MjJwg6Zy8Kg+cvCaC3HwtIgw8KW7sXC3EHGwmcUxcL++8fC&#xD;&#xa;CWbIwsDoxsJFz8PCJkXFwiD7xcIQDsfC8ljIwrDLxMKkeMLClpHEwiqgyMJcjcjC6krGwl50w8Iy&#xD;&#xa;7sXCWv3HwkQ1xsKUwMPC2K/EwootxMJUqMTCH3LDwuojxcKil8fCjmXIwkLJxcID78TClTvGwhel&#xD;&#xa;xsIca8bC1rbCwk6+wsIQfsfCIlPHwpJExcLWhMbCDNvEwuryxMKklMXCeBDDwolhwcIiasLCQYfE&#xD;&#xa;whUfwsJx4MTCsEnIwkX0xcK+3sbCIqLHwrARx8IWtMTCGAnFwomNxMLfbcTCQIPDwjqww8L+MMTC&#xD;&#xa;mqjHwrBaxMI6YsTCxmvIwqyKycKQaMXCnx7FwkYvx8In6sjCGMzIwuvAxcL8a8XCiBjJwkvwyMKI&#xD;&#xa;qMbCTCTIwvQSy8IxEsvCVT/JwrI3w8LA8sLCCD7EwsxXxMJSjsXCfjXFwqTKxMI/gsPCDozDwtwF&#xD;&#xa;xMISn8bChHvJwlFQyMJYCsbCP4jIwtkBycLiFsrCbCrKwvyTysIWncnC+A3HwuI5x8I8/MbC0hHI&#xD;&#xa;wopJzMLmb83CFkvMwpy/y8Kn7MrCfJrJwuLDyMJKn8bCStTGwpb7ycIMo8nCcivFwsapxcJkx8bC&#xD;&#xa;ALLIwriaycJM3cfC8r/KwlSoy8I4A8vCpFHJwkRrzMIKr87CWD7MwsiJycKW9cfCUjbKwq+YycLi&#xD;&#xa;U8jCROHHwhdWycKaU8nCF7jMwmKaz8L//8zC8tjOwjxezsIUysvCzHLJwiJryMLRm8bCgLjKwsi8&#xD;&#xa;ysIhfszCPETLwqtbyMJGeMfCpRPJwnwZzMJSIs3CqhPMwmDiyMLZYsjCz13KwgwKy8LCi8jCyrTM&#xD;&#xa;wgwxzMK4ZcvC087JwkV2xsLyXsnCjIbLwhwvzcLfrM7CeITKwla3ysLK3cnC/PHFwpScxcIUQ8nC&#xD;&#xa;NJzIwrEsxsJvZcfCXSvIwlKLx8JII8nCvgzKwpnhysJSC8vC9iTKwiA/y8IadczCuDrMwuVaysLO&#xD;&#xa;r8vCXtfJwrZ6ycItucnCtonJwjyTysJkC83CL0nMwkjdyMIBucfCixrLwvSDysKGX8nCsCzMwuas&#xD;&#xa;0cIsnNPCuEvOwtr5y8LMBc7Cr+PTwsQc5MLcOfPCKOj0wjr59cJ0C/fCzg75wkwh+8LmVPnCqz72&#xD;&#xa;wnB+9cLuJvrCtEL4wkp7+MLOfffCDN3zwkaz9sLi8vjCFKr6wgIQ+cI8iPjCBpT4wvR1+MLQI/rC&#xD;&#xa;Ihn8wlQg+sIcLvjCVCz2wsI49MJQ9fbC23H3woy69sL4BfnCIOb2wjwy9cIuGvnCdmb3wj7K9MI+&#xD;&#xa;KPXCJpr2wn7C9cKQDvnCthv7woaP+cLGaPbCTr32wrpN+cIFSPjCDvX4wtD39sJY//TCKGf3wvZI&#xD;&#xa;+cK9YvfCgYf3wjIf+sLMMvfCpjz2wuA6+cII8vbCxDv1wmJG9sLka/rCPrT1wi589cLqjfbC9qP4&#xD;&#xa;wgzJ+MLelPbCGir2wlBC9sKeU/jC/nn3wsYn9sL4QPjCXBj5wopQ+MIaJvnCSB36wgjc+MIMfPfC&#xD;&#xa;W+z1wmYG+MKuxPnCCuD1wjh+9sLDrPfCOPj3wm7h+MJjMvfCxH/2wsXf98KwN/nCKOn5wrLR+sKg&#xD;&#xa;bPvCkFv5wsAu+cL2hffCySz2wmRX+MKiiPjCzFX4wvjB98Jgz/fCxPT4wobP+cL8avjC9r34wnKx&#xD;&#xa;+MK+LPnC3H34wle39cKejfbCNKP2wg5B9sK0H/rCSvz2woqE98JAqfjCBPL4wmKi+MIu2/jCMFD5&#xD;&#xa;wiCM+cKo//nCGqz7wlZN+sKUDfjC0ov4wrIU+sIVpffCP2/3woye98KktPbCTJj2wpH29cL3mvbC&#xD;&#xa;jL/4wti/+MLm3vjCQ9QEwzOmYsI/y13CPNeLwsehjcK+No/Cm+aOwlHvjcIja5HCun6XwoKemMJy&#xD;&#xa;lpPCuQeRwhgMlcJGdZvCTjScwgFMncIGh5zCGrOawuO0nMJdJZ3Cybudwo6toMIdraPCs/6jwpY0&#xD;&#xa;psLIUqjCWQmpwonmp8KcE6XCgXGlwqC+psIFHabCBoyownWvqcIkX6jCgnCpwms3qsIW0KfCM7Oj&#xD;&#xa;wnGLosJgcKnCdk6swiIgscKFrbDCtNmowrZmpcIHYqjCCg2pwqUNq8KgHq7ChEGxwhVFs8KU6LLC&#xD;&#xa;dvWzwpVHscI6NrDCMpGwwubcs8Imh7bCPKq6wj7tvMKSbr3ClsG+wq4qwMLXQr7CpAK5whxiuMJp&#xD;&#xa;v7nCwu29wloQvsIXTL3CzjDAwsDTwcL69sHC8urAwtAFwMIkSMLCpJHDwjLOw8JG8sTCmMvDwq7H&#xD;&#xa;wsLOncPC+CDDwkh6wsLU5sPCP23Fwm5Qx8KlYsTCm0XCwnhexcLsTsPCSMPDwjvJw8LMWcHC2XHD&#xD;&#xa;wjj5wsICs8TChWvEwgCywcKDdcHCFnHCwurMxMLlVsTCfrDGwmzqyMKoGsfC7ITIwtqRyMJwzcbC&#xD;&#xa;ppbEwiv5xcIXxsTCzDfCwtSExMKEjcTC8ObDwiJ9yMIQm8vCIkDGwqHyxcIyYcbCyAXIwmyBx8I4&#xD;&#xa;n8PCvyPGwuiKxMJggMfCdL3JwsMhysLi6sXCRa7Ewoykx8Jk/MXC0NfEwtK0xcJQTMTCvvvGwtqJ&#xD;&#xa;xMKmFsTCSbfGwq76x8IQ+sjCsqnIwkJdycIaT8fC0nbHwlf2xsLg/cbCtIHHwsTvxsI0KsbCsqDH&#xD;&#xa;wgLix8JGKcXCyNTDwjDwwsIb98bC6MjJwg6Zy8Kg+cvCaC3HwtIgw8KW7sXC3EHGwmcUxcL++8fC&#xD;&#xa;CWbIwsDoxsJFz8PCJkXFwiD7xcIQDsfC8ljIwrDLxMKkeMLClpHEwiqgyMJcjcjC6krGwl50w8Iy&#xD;&#xa;7sXCWv3HwkQ1xsKUwMPC2K/EwootxMJUqMTCH3LDwuojxcKil8fCjmXIwkLJxcID78TClTvGwhel&#xD;&#xa;xsIca8bC1rbCwk6+wsIQfsfCIlPHwpJExcLWhMbCDNvEwuryxMKklMXCeBDDwolhwcIiasLCQYfE&#xD;&#xa;whUfwsJx4MTCsEnIwkX0xcK+3sbCIqLHwrARx8IWtMTCGAnFwomNxMLfbcTCQIPDwjqww8L+MMTC&#xD;&#xa;mqjHwrBaxMI6YsTCxmvIwqyKycKQaMXCnx7FwkYvx8In6sjCGMzIwuvAxcL8a8XCiBjJwkvwyMKI&#xD;&#xa;qMbCTCTIwvQSy8IxEsvCVT/JwrI3w8LA8sLCCD7EwsxXxMJSjsXCfjXFwqTKxMI/gsPCDozDwtwF&#xD;&#xa;xMISn8bChHvJwlFQyMJYCsbCP4jIwtkBycLiFsrCbCrKwvyTysIWncnC+A3HwuI5x8I8/MbC0hHI&#xD;&#xa;wopJzMLmb83CFkvMwpy/y8Kn7MrCfJrJwuLDyMJKn8bCStTGwpb7ycIMo8nCcivFwsapxcJkx8bC&#xD;&#xa;ALLIwriaycJM3cfC8r/KwlSoy8I4A8vCpFHJwkRrzMIKr87CWD7MwsiJycKW9cfCUjbKwq+YycLi&#xD;&#xa;U8jCROHHwhdWycKaU8nCF7jMwmKaz8L//8zC8tjOwjxezsIUysvCzHLJwiJryMLRm8bCgLjKwsi8&#xD;&#xa;ysIhfszCPETLwqtbyMJGeMfCpRPJwnwZzMJSIs3CqhPMwmDiyMLZYsjCz13KwgwKy8LCi8jCyrTM&#xD;&#xa;wgwxzMK4ZcvC087JwkV2xsLyXsnCjIbLwhwvzcLfrM7CeITKwla3ysLK3cnC/PHFwpScxcIUQ8nC&#xD;&#xa;NJzIwrEsxsJvZcfCXSvIwlKLx8JII8nCvgzKwpnhysJSC8vC9iTKwiA/y8IadczCuDrMwuVaysLO&#xD;&#xa;r8vCXtfJwrZ6ycItucnCtonJwjyTysJkC83CL0nMwkjdyMIBucfCixrLwvSDysKGX8nCsCzMwuas&#xD;&#xa;0cIsnNPCuEvOwtr5y8LMBc7Cr+PTwsQc5MLcOfPCKOj0wjr59cJ0C/fCzg75wkwh+8LmVPnCqz72&#xD;&#xa;wnB+9cLuJvrCtEL4wkp7+MLOfffCDN3zwkaz9sLi8vjCFKr6wgIQ+cI8iPjCBpT4wvR1+MLQI/rC&#xD;&#xa;Ihn8wlQg+sIcLvjCVCz2wsI49MJQ9fbC23H3woy69sL4BfnCIOb2wjwy9cIuGvnCdmb3wj7K9MI+&#xD;&#xa;KPXCJpr2wn7C9cKQDvnCthv7woaP+cLGaPbCTr32wrpN+cIFSPjCDvX4wtD39sJY//TCKGf3wvZI&#xD;&#xa;+cK9YvfCgYf3wjIf+sLMMvfCpjz2wuA6+cII8vbCxDv1wmJG9sLka/rCPrT1wi589cLqjfbC9qP4&#xD;&#xa;wgzJ+MLelPbCGir2wlBC9sKeU/jC/nn3wsYn9sL4QPjCXBj5wopQ+MIaJvnCSB36wgjc+MIMfPfC&#xD;&#xa;W+z1wmYG+MKuxPnCCuD1wjh+9sLDrPfCOPj3wm7h+MJjMvfCxH/2wsXf98KwN/nCKOn5wrLR+sKg&#xD;&#xa;bPvCkFv5wsAu+cL2hffCySz2wmRX+MKiiPjCzFX4wvjB98Jgz/fCxPT4wobP+cL8avjC9r34wnKx&#xD;&#xa;+MK+LPnC3H34wle39cKejfbCNKP2wg5B9sK0H/rCSvz2woqE98JAqfjCBPL4wmKi+MIu2/jCMFD5&#xD;&#xa;wiCM+cKo//nCGqz7wlZN+sKUDfjC0ov4wrIU+sIVpffCP2/3woye98KktPbCTJj2wpH29cL3mvbC&#xD;&#xa;jL/4wti/+MLm3vjCQ9QE" leadInLength="0/1"  />
            </Keyframes>
           </Parameter>
           </Parameters>
          </GenericEffect>
          <GenericEffect id="5762" name = "WinCompression" >
           <Parameters>
           <InterpolatingParam id="5763" interp="linr"  time="0/1" value="0" leadInLength="0/1"   name="attack"/>
           <InterpolatingParam id="5764" interp="linr"  time="0/1" value="9" leadInLength="0/1"   name="gain"/>
           <Parameter id="5765"   name="preset">
            <Keyframes>
            <Keyframe id="5766"  time="0/1" value="1" leadInLength="0/1"  />
            </Keyframes>
           </Parameter>
           <InterpolatingParam id="5767" interp="linr"  time="0/1" value="10" leadInLength="0/1"   name="ratio"/>
           <InterpolatingParam id="5768" interp="linr"  time="0/1" value="3500" leadInLength="0/1"   name="release"/>
           <InterpolatingParam id="5769" interp="linr"  time="0/1" value="-20" leadInLength="0/1"   name="threshold"/>
           </Parameters>
          </GenericEffect>
          <GenericEffect id="5770" name = "Declipper" >
           <Parameters>
           <InterpolatingParam id="5771" interp="linr"  time="0/1" value="-1" leadInLength="0/1"   name="sensitivity"/>
           </Parameters>
          </GenericEffect>
          <GenericEffect id="5772" name = "Declicker" >
           <Parameters>
           <InterpolatingParam id="5773" interp="linr"  time="0/1" value="3" leadInLength="0/1"   name="sensitivity"/>
           </Parameters>
          </GenericEffect>
         </Effects>
         <Attributes>
          <Attribute id="5774" value="" name="ident"/>
          <Attribute id="5775" value="0" name="mixToMono"/>
         </Attributes>
         <MetaData>
          <entry key="WinSubProjectDisplayName" val=""/>
         </MetaData>
         <ExtraData>
          <Entry key="ZoomPanBin">
           <ZoomPanBin id="5776"  >
            <ZoomPanKeyframes>
            </ZoomPanKeyframes>
           </ZoomPanBin>
          </Entry>
          <Entry key="CursorEffectBin">
           <CursorEffectBin id="5777"  >
            <CursorEffectKeyframes>
            </CursorEffectKeyframes>
           </CursorEffectBin>
          </Entry>
         </ExtraData>
         <GenericTrack id="5778"  >
          <Attributes>
           <Attribute id="5779" value="" name="ident"/>
           <Attribute id="5780" value="0" name="audioMuted"/>
           <Attribute id="5781" value="0" name="videoHidden"/>
          </Attributes>
          <MetaData>
           <entry key="IsLocked" val="False"/>
           <entry key="WinTrackHeight" val="0"/>
          </MetaData>
          <Medias>
           <AMFile id="5782" start="0" duration="4896" scalar="1/1" mediaStart="0/1" mediaDuration="4896/1" trackNumber="0" src="22" channelNumber="0" >
            <Parameters>
             <InterpolatingParam id="5783" interp="linr"  time="0/1" value="1" leadInLength="0/1"  name="volume"/>
             <Parameter id="5784"  name="captions"/>
            </Parameters>
            <Attributes>
             <Attribute id="5785" value="" name="ident"/>
             <Attribute id="5786" value="44100" name="sampleRate"/>
             <Attribute id="5787" value="16" name="bitDepth"/>
             <Attribute id="5788" value="1" name="gain"/>
             <Attribute id="5789" value="0" name="mixToMono"/>
            </Attributes>
            <MetaData>
             <entry key="WinSubProjectDisplayName" val=""/>
            </MetaData>
           </AMFile>
           <AMFile id="5790" start="4896" duration="411" scalar="1/1" mediaStart="4989/1" mediaDuration="411/1" trackNumber="0" src="22" channelNumber="0" >
            <Parameters>
             <InterpolatingParam id="5791" interp="linr"  time="0/1" value="1" leadInLength="0/1"  name="volume"/>
             <Parameter id="5792"  name="captions"/>
            </Parameters>
            <Attributes>
             <Attribute id="5793" value="" name="ident"/>
             <Attribute id="5794" value="44100" name="sampleRate"/>
             <Attribute id="5795" value="16" name="bitDepth"/>
             <Attribute id="5796" value="1" name="gain"/>
             <Attribute id="5797" value="0" name="mixToMono"/>
            </Attributes>
            <MetaData>
             <entry key="WinSubProjectDisplayName" val=""/>
            </MetaData>
           </AMFile>
           <AMFile id="5798" start="5307" duration="1270" scalar="1/1" mediaStart="5956/1" mediaDuration="1270/1" trackNumber="0" src="22" channelNumber="0" >
            <Parameters>
             <InterpolatingParam id="5799" interp="linr"  time="0/1" value="1" leadInLength="0/1"  name="volume"/>
             <Parameter id="5800"  name="captions"/>
            </Parameters>
            <Attributes>
             <Attribute id="5801" value="" name="ident"/>
             <Attribute id="5802" value="44100" name="sampleRate"/>
             <Attribute id="5803" value="16" name="bitDepth"/>
             <Attribute id="5804" value="1" name="gain"/>
             <Attribute id="5805" value="0" name="mixToMono"/>
            </Attributes>
            <MetaData>
             <entry key="WinSubProjectDisplayName" val=""/>
            </MetaData>
           </AMFile>
           <AMFile id="5806" start="6577" duration="7114" scalar="1/1" mediaStart="7454/1" mediaDuration="7114/1" trackNumber="0" src="22" channelNumber="0" >
            <Parameters>
             <InterpolatingParam id="5807" interp="linr"  time="0/1" value="1" leadInLength="0/1"  name="volume"/>
             <Parameter id="5808"  name="captions"/>
            </Parameters>
            <Attributes>
             <Attribute id="5809" value="" name="ident"/>
             <Attribute id="5810" value="44100" name="sampleRate"/>
             <Attribute id="5811" value="16" name="bitDepth"/>
             <Attribute id="5812" value="1" name="gain"/>
             <Attribute id="5813" value="0" name="mixToMono"/>
            </Attributes>
            <MetaData>
             <entry key="WinSubProjectDisplayName" val=""/>
            </MetaData>
           </AMFile>
          </Medias>
         </GenericTrack>
        </StitchedMedia>
        <StitchedMedia id="5814" start="4816" duration="81" scalar="1/1" mediaStart="6246/1" mediaDuration="81/1" minMediaStart="0/1" >
         <Transformer>
          <VectorParam id="5815"  name="translation">
           <InterpolatingParam id="5816" interp="linr"  time="0/1" value="0" leadInLength="0/1"  />
           <InterpolatingParam id="5817" interp="linr"  time="0/1" value="0" leadInLength="0/1"  />
           <InterpolatingParam id="5818" interp="linr"  time="0/1" value="0" leadInLength="0/1"  />
          </VectorParam>
          <VectorParam id="5819"  name="rotation">
           <InterpolatingParam id="5820" interp="linr"  time="0/1" value="0" leadInLength="0/1"  />
           <InterpolatingParam id="5821" interp="linr"  time="0/1" value="0" leadInLength="0/1"  />
           <InterpolatingParam id="5822" interp="linr"  time="0/1" value="0" leadInLength="0/1"  />
          </VectorParam>
          <VectorParam id="5823"  name="shear">
           <InterpolatingParam id="5824" interp="linr"  time="0/1" value="0" leadInLength="0/1"  />
           <InterpolatingParam id="5825" interp="linr"  time="0/1" value="0" leadInLength="0/1"  />
           <InterpolatingParam id="5826" interp="linr"  time="0/1" value="0" leadInLength="0/1"  />
          </VectorParam>
          <VectorParam id="5827"  name="scale">
           <InterpolatingParam id="5828" interp="linr"  time="0/1" value="1" leadInLength="0/1"  />
           <InterpolatingParam id="5829" interp="linr"  time="0/1" value="1" leadInLength="0/1"  />
           <InterpolatingParam id="5830" interp="linr"  time="0/1" value="1" leadInLength="0/1"  />
          </VectorParam>
          <VectorParam id="5831"  name="anchor">
           <InterpolatingParam id="5832" interp="linr"  time="0/1" value="0" leadInLength="0/1"  />
           <InterpolatingParam id="5833" interp="linr"  time="0/1" value="0" leadInLength="0/1"  />
           <InterpolatingParam id="5834" interp="linr"  time="0/1" value="0" leadInLength="0/1"  />
          </VectorParam>
         </Transformer>
         <Parameters>
          <InterpolatingParam id="5835" interp="linr"  time="0/1" value="1" leadInLength="0/1"  name="cursorOpacity"/>
          <InterpolatingParam id="5836" interp="linr"  time="0/1" value="1" leadInLength="0/1"  name="cursorScale"/>
          <InterpolatingParam id="5837" interp="linr"  name="volume">
           <Keyframes>
           <Keyframe id="5838"  time="0/1" value="1" leadInLength="0/1"  />
           <Keyframe id="5839"  time="3301/1" value="1" leadInLength="0/1"  />
           <Keyframe id="5840"  time="3302/1" value="1.1290322580645162" leadInLength="0/1"  />
           <Keyframe id="5841"  time="13691/1" value="1.1290322580645162" leadInLength="0/1"  />
           <Keyframe id="5842"  time="13692/1" value="1" leadInLength="0/1"  />
           </Keyframes>
          </InterpolatingParam>
          <Parameter id="5843"  name="captions"/>
         </Parameters>
         <Effects>
          <GenericEffect id="5844" name = "NoiseReduction" >
           <Parameters>
           <InterpolatingParam id="5845" interp="linr"  time="0/1" value="20" leadInLength="0/1"   name="denoiserAmount"/>
           <InterpolatingParam id="5846" interp="linr"  time="0/1" value="0" leadInLength="0/1"   name="denoiserThreshold"/>
           <Parameter id="5847"   name="noiseProfile">
            <Keyframes>
            <Keyframe id="5848"  time="0/1" value="FBAAAAIAAABErAAAAQIAADOmYsI/y13CPNeLwsehjcK+No/Cm+aOwlHvjcIja5HCun6XwoKemMJy&#xD;&#xa;lpPCuQeRwhgMlcJGdZvCTjScwgFMncIGh5zCGrOawuO0nMJdJZ3Cybudwo6toMIdraPCs/6jwpY0&#xD;&#xa;psLIUqjCWQmpwonmp8KcE6XCgXGlwqC+psIFHabCBoyownWvqcIkX6jCgnCpwms3qsIW0KfCM7Oj&#xD;&#xa;wnGLosJgcKnCdk6swiIgscKFrbDCtNmowrZmpcIHYqjCCg2pwqUNq8KgHq7ChEGxwhVFs8KU6LLC&#xD;&#xa;dvWzwpVHscI6NrDCMpGwwubcs8Imh7bCPKq6wj7tvMKSbr3ClsG+wq4qwMLXQr7CpAK5whxiuMJp&#xD;&#xa;v7nCwu29wloQvsIXTL3CzjDAwsDTwcL69sHC8urAwtAFwMIkSMLCpJHDwjLOw8JG8sTCmMvDwq7H&#xD;&#xa;wsLOncPC+CDDwkh6wsLU5sPCP23Fwm5Qx8KlYsTCm0XCwnhexcLsTsPCSMPDwjvJw8LMWcHC2XHD&#xD;&#xa;wjj5wsICs8TChWvEwgCywcKDdcHCFnHCwurMxMLlVsTCfrDGwmzqyMKoGsfC7ITIwtqRyMJwzcbC&#xD;&#xa;ppbEwiv5xcIXxsTCzDfCwtSExMKEjcTC8ObDwiJ9yMIQm8vCIkDGwqHyxcIyYcbCyAXIwmyBx8I4&#xD;&#xa;n8PCvyPGwuiKxMJggMfCdL3JwsMhysLi6sXCRa7Ewoykx8Jk/MXC0NfEwtK0xcJQTMTCvvvGwtqJ&#xD;&#xa;xMKmFsTCSbfGwq76x8IQ+sjCsqnIwkJdycIaT8fC0nbHwlf2xsLg/cbCtIHHwsTvxsI0KsbCsqDH&#xD;&#xa;wgLix8JGKcXCyNTDwjDwwsIb98bC6MjJwg6Zy8Kg+cvCaC3HwtIgw8KW7sXC3EHGwmcUxcL++8fC&#xD;&#xa;CWbIwsDoxsJFz8PCJkXFwiD7xcIQDsfC8ljIwrDLxMKkeMLClpHEwiqgyMJcjcjC6krGwl50w8Iy&#xD;&#xa;7sXCWv3HwkQ1xsKUwMPC2K/EwootxMJUqMTCH3LDwuojxcKil8fCjmXIwkLJxcID78TClTvGwhel&#xD;&#xa;xsIca8bC1rbCwk6+wsIQfsfCIlPHwpJExcLWhMbCDNvEwuryxMKklMXCeBDDwolhwcIiasLCQYfE&#xD;&#xa;whUfwsJx4MTCsEnIwkX0xcK+3sbCIqLHwrARx8IWtMTCGAnFwomNxMLfbcTCQIPDwjqww8L+MMTC&#xD;&#xa;mqjHwrBaxMI6YsTCxmvIwqyKycKQaMXCnx7FwkYvx8In6sjCGMzIwuvAxcL8a8XCiBjJwkvwyMKI&#xD;&#xa;qMbCTCTIwvQSy8IxEsvCVT/JwrI3w8LA8sLCCD7EwsxXxMJSjsXCfjXFwqTKxMI/gsPCDozDwtwF&#xD;&#xa;xMISn8bChHvJwlFQyMJYCsbCP4jIwtkBycLiFsrCbCrKwvyTysIWncnC+A3HwuI5x8I8/MbC0hHI&#xD;&#xa;wopJzMLmb83CFkvMwpy/y8Kn7MrCfJrJwuLDyMJKn8bCStTGwpb7ycIMo8nCcivFwsapxcJkx8bC&#xD;&#xa;ALLIwriaycJM3cfC8r/KwlSoy8I4A8vCpFHJwkRrzMIKr87CWD7MwsiJycKW9cfCUjbKwq+YycLi&#xD;&#xa;U8jCROHHwhdWycKaU8nCF7jMwmKaz8L//8zC8tjOwjxezsIUysvCzHLJwiJryMLRm8bCgLjKwsi8&#xD;&#xa;ysIhfszCPETLwqtbyMJGeMfCpRPJwnwZzMJSIs3CqhPMwmDiyMLZYsjCz13KwgwKy8LCi8jCyrTM&#xD;&#xa;wgwxzMK4ZcvC087JwkV2xsLyXsnCjIbLwhwvzcLfrM7CeITKwla3ysLK3cnC/PHFwpScxcIUQ8nC&#xD;&#xa;NJzIwrEsxsJvZcfCXSvIwlKLx8JII8nCvgzKwpnhysJSC8vC9iTKwiA/y8IadczCuDrMwuVaysLO&#xD;&#xa;r8vCXtfJwrZ6ycItucnCtonJwjyTysJkC83CL0nMwkjdyMIBucfCixrLwvSDysKGX8nCsCzMwuas&#xD;&#xa;0cIsnNPCuEvOwtr5y8LMBc7Cr+PTwsQc5MLcOfPCKOj0wjr59cJ0C/fCzg75wkwh+8LmVPnCqz72&#xD;&#xa;wnB+9cLuJvrCtEL4wkp7+MLOfffCDN3zwkaz9sLi8vjCFKr6wgIQ+cI8iPjCBpT4wvR1+MLQI/rC&#xD;&#xa;Ihn8wlQg+sIcLvjCVCz2wsI49MJQ9fbC23H3woy69sL4BfnCIOb2wjwy9cIuGvnCdmb3wj7K9MI+&#xD;&#xa;KPXCJpr2wn7C9cKQDvnCthv7woaP+cLGaPbCTr32wrpN+cIFSPjCDvX4wtD39sJY//TCKGf3wvZI&#xD;&#xa;+cK9YvfCgYf3wjIf+sLMMvfCpjz2wuA6+cII8vbCxDv1wmJG9sLka/rCPrT1wi589cLqjfbC9qP4&#xD;&#xa;wgzJ+MLelPbCGir2wlBC9sKeU/jC/nn3wsYn9sL4QPjCXBj5wopQ+MIaJvnCSB36wgjc+MIMfPfC&#xD;&#xa;W+z1wmYG+MKuxPnCCuD1wjh+9sLDrPfCOPj3wm7h+MJjMvfCxH/2wsXf98KwN/nCKOn5wrLR+sKg&#xD;&#xa;bPvCkFv5wsAu+cL2hffCySz2wmRX+MKiiPjCzFX4wvjB98Jgz/fCxPT4wobP+cL8avjC9r34wnKx&#xD;&#xa;+MK+LPnC3H34wle39cKejfbCNKP2wg5B9sK0H/rCSvz2woqE98JAqfjCBPL4wmKi+MIu2/jCMFD5&#xD;&#xa;wiCM+cKo//nCGqz7wlZN+sKUDfjC0ov4wrIU+sIVpffCP2/3woye98KktPbCTJj2wpH29cL3mvbC&#xD;&#xa;jL/4wti/+MLm3vjCQ9QEwzOmYsI/y13CPNeLwsehjcK+No/Cm+aOwlHvjcIja5HCun6XwoKemMJy&#xD;&#xa;lpPCuQeRwhgMlcJGdZvCTjScwgFMncIGh5zCGrOawuO0nMJdJZ3Cybudwo6toMIdraPCs/6jwpY0&#xD;&#xa;psLIUqjCWQmpwonmp8KcE6XCgXGlwqC+psIFHabCBoyownWvqcIkX6jCgnCpwms3qsIW0KfCM7Oj&#xD;&#xa;wnGLosJgcKnCdk6swiIgscKFrbDCtNmowrZmpcIHYqjCCg2pwqUNq8KgHq7ChEGxwhVFs8KU6LLC&#xD;&#xa;dvWzwpVHscI6NrDCMpGwwubcs8Imh7bCPKq6wj7tvMKSbr3ClsG+wq4qwMLXQr7CpAK5whxiuMJp&#xD;&#xa;v7nCwu29wloQvsIXTL3CzjDAwsDTwcL69sHC8urAwtAFwMIkSMLCpJHDwjLOw8JG8sTCmMvDwq7H&#xD;&#xa;wsLOncPC+CDDwkh6wsLU5sPCP23Fwm5Qx8KlYsTCm0XCwnhexcLsTsPCSMPDwjvJw8LMWcHC2XHD&#xD;&#xa;wjj5wsICs8TChWvEwgCywcKDdcHCFnHCwurMxMLlVsTCfrDGwmzqyMKoGsfC7ITIwtqRyMJwzcbC&#xD;&#xa;ppbEwiv5xcIXxsTCzDfCwtSExMKEjcTC8ObDwiJ9yMIQm8vCIkDGwqHyxcIyYcbCyAXIwmyBx8I4&#xD;&#xa;n8PCvyPGwuiKxMJggMfCdL3JwsMhysLi6sXCRa7Ewoykx8Jk/MXC0NfEwtK0xcJQTMTCvvvGwtqJ&#xD;&#xa;xMKmFsTCSbfGwq76x8IQ+sjCsqnIwkJdycIaT8fC0nbHwlf2xsLg/cbCtIHHwsTvxsI0KsbCsqDH&#xD;&#xa;wgLix8JGKcXCyNTDwjDwwsIb98bC6MjJwg6Zy8Kg+cvCaC3HwtIgw8KW7sXC3EHGwmcUxcL++8fC&#xD;&#xa;CWbIwsDoxsJFz8PCJkXFwiD7xcIQDsfC8ljIwrDLxMKkeMLClpHEwiqgyMJcjcjC6krGwl50w8Iy&#xD;&#xa;7sXCWv3HwkQ1xsKUwMPC2K/EwootxMJUqMTCH3LDwuojxcKil8fCjmXIwkLJxcID78TClTvGwhel&#xD;&#xa;xsIca8bC1rbCwk6+wsIQfsfCIlPHwpJExcLWhMbCDNvEwuryxMKklMXCeBDDwolhwcIiasLCQYfE&#xD;&#xa;whUfwsJx4MTCsEnIwkX0xcK+3sbCIqLHwrARx8IWtMTCGAnFwomNxMLfbcTCQIPDwjqww8L+MMTC&#xD;&#xa;mqjHwrBaxMI6YsTCxmvIwqyKycKQaMXCnx7FwkYvx8In6sjCGMzIwuvAxcL8a8XCiBjJwkvwyMKI&#xD;&#xa;qMbCTCTIwvQSy8IxEsvCVT/JwrI3w8LA8sLCCD7EwsxXxMJSjsXCfjXFwqTKxMI/gsPCDozDwtwF&#xD;&#xa;xMISn8bChHvJwlFQyMJYCsbCP4jIwtkBycLiFsrCbCrKwvyTysIWncnC+A3HwuI5x8I8/MbC0hHI&#xD;&#xa;wopJzMLmb83CFkvMwpy/y8Kn7MrCfJrJwuLDyMJKn8bCStTGwpb7ycIMo8nCcivFwsapxcJkx8bC&#xD;&#xa;ALLIwriaycJM3cfC8r/KwlSoy8I4A8vCpFHJwkRrzMIKr87CWD7MwsiJycKW9cfCUjbKwq+YycLi&#xD;&#xa;U8jCROHHwhdWycKaU8nCF7jMwmKaz8L//8zC8tjOwjxezsIUysvCzHLJwiJryMLRm8bCgLjKwsi8&#xD;&#xa;ysIhfszCPETLwqtbyMJGeMfCpRPJwnwZzMJSIs3CqhPMwmDiyMLZYsjCz13KwgwKy8LCi8jCyrTM&#xD;&#xa;wgwxzMK4ZcvC087JwkV2xsLyXsnCjIbLwhwvzcLfrM7CeITKwla3ysLK3cnC/PHFwpScxcIUQ8nC&#xD;&#xa;NJzIwrEsxsJvZcfCXSvIwlKLx8JII8nCvgzKwpnhysJSC8vC9iTKwiA/y8IadczCuDrMwuVaysLO&#xD;&#xa;r8vCXtfJwrZ6ycItucnCtonJwjyTysJkC83CL0nMwkjdyMIBucfCixrLwvSDysKGX8nCsCzMwuas&#xD;&#xa;0cIsnNPCuEvOwtr5y8LMBc7Cr+PTwsQc5MLcOfPCKOj0wjr59cJ0C/fCzg75wkwh+8LmVPnCqz72&#xD;&#xa;wnB+9cLuJvrCtEL4wkp7+MLOfffCDN3zwkaz9sLi8vjCFKr6wgIQ+cI8iPjCBpT4wvR1+MLQI/rC&#xD;&#xa;Ihn8wlQg+sIcLvjCVCz2wsI49MJQ9fbC23H3woy69sL4BfnCIOb2wjwy9cIuGvnCdmb3wj7K9MI+&#xD;&#xa;KPXCJpr2wn7C9cKQDvnCthv7woaP+cLGaPbCTr32wrpN+cIFSPjCDvX4wtD39sJY//TCKGf3wvZI&#xD;&#xa;+cK9YvfCgYf3wjIf+sLMMvfCpjz2wuA6+cII8vbCxDv1wmJG9sLka/rCPrT1wi589cLqjfbC9qP4&#xD;&#xa;wgzJ+MLelPbCGir2wlBC9sKeU/jC/nn3wsYn9sL4QPjCXBj5wopQ+MIaJvnCSB36wgjc+MIMfPfC&#xD;&#xa;W+z1wmYG+MKuxPnCCuD1wjh+9sLDrPfCOPj3wm7h+MJjMvfCxH/2wsXf98KwN/nCKOn5wrLR+sKg&#xD;&#xa;bPvCkFv5wsAu+cL2hffCySz2wmRX+MKiiPjCzFX4wvjB98Jgz/fCxPT4wobP+cL8avjC9r34wnKx&#xD;&#xa;+MK+LPnC3H34wle39cKejfbCNKP2wg5B9sK0H/rCSvz2woqE98JAqfjCBPL4wmKi+MIu2/jCMFD5&#xD;&#xa;wiCM+cKo//nCGqz7wlZN+sKUDfjC0ov4wrIU+sIVpffCP2/3woye98KktPbCTJj2wpH29cL3mvbC&#xD;&#xa;jL/4wti/+MLm3vjCQ9QE" leadInLength="0/1"  />
            </Keyframes>
           </Parameter>
           </Parameters>
          </GenericEffect>
          <GenericEffect id="5849" name = "WinCompression" >
           <Parameters>
           <InterpolatingParam id="5850" interp="linr"  time="0/1" value="0" leadInLength="0/1"   name="attack"/>
           <InterpolatingParam id="5851" interp="linr"  time="0/1" value="9" leadInLength="0/1"   name="gain"/>
           <Parameter id="5852"   name="preset">
            <Keyframes>
            <Keyframe id="5853"  time="0/1" value="1" leadInLength="0/1"  />
            </Keyframes>
           </Parameter>
           <InterpolatingParam id="5854" interp="linr"  time="0/1" value="10" leadInLength="0/1"   name="ratio"/>
           <InterpolatingParam id="5855" interp="linr"  time="0/1" value="3500" leadInLength="0/1"   name="release"/>
           <InterpolatingParam id="5856" interp="linr"  time="0/1" value="-20" leadInLength="0/1"   name="threshold"/>
           </Parameters>
          </GenericEffect>
          <GenericEffect id="5857" name = "Declipper" >
           <Parameters>
           <InterpolatingParam id="5858" interp="linr"  time="0/1" value="-1" leadInLength="0/1"   name="sensitivity"/>
           </Parameters>
          </GenericEffect>
          <GenericEffect id="5859" name = "Declicker" >
           <Parameters>
           <InterpolatingParam id="5860" interp="linr"  time="0/1" value="3" leadInLength="0/1"   name="sensitivity"/>
           </Parameters>
          </GenericEffect>
         </Effects>
         <Attributes>
          <Attribute id="5861" value="" name="ident"/>
          <Attribute id="5862" value="0" name="mixToMono"/>
         </Attributes>
         <MetaData>
          <entry key="WinSubProjectDisplayName" val=""/>
         </MetaData>
         <ExtraData>
          <Entry key="ZoomPanBin">
           <ZoomPanBin id="5863"  >
            <ZoomPanKeyframes>
            </ZoomPanKeyframes>
           </ZoomPanBin>
          </Entry>
          <Entry key="CursorEffectBin">
           <CursorEffectBin id="5864"  >
            <CursorEffectKeyframes>
            </CursorEffectKeyframes>
           </CursorEffectBin>
          </Entry>
         </ExtraData>
         <GenericTrack id="5865"  >
          <Attributes>
           <Attribute id="5866" value="" name="ident"/>
           <Attribute id="5867" value="0" name="audioMuted"/>
           <Attribute id="5868" value="0" name="videoHidden"/>
          </Attributes>
          <MetaData>
           <entry key="IsLocked" val="False"/>
           <entry key="WinTrackHeight" val="0"/>
          </MetaData>
          <Medias>
           <AMFile id="5869" start="0" duration="4896" scalar="1/1" mediaStart="0/1" mediaDuration="4896/1" trackNumber="0" src="22" channelNumber="0" >
            <Parameters>
             <InterpolatingParam id="5870" interp="linr"  time="0/1" value="1" leadInLength="0/1"  name="volume"/>
             <Parameter id="5871"  name="captions"/>
            </Parameters>
            <Attributes>
             <Attribute id="5872" value="" name="ident"/>
             <Attribute id="5873" value="44100" name="sampleRate"/>
             <Attribute id="5874" value="16" name="bitDepth"/>
             <Attribute id="5875" value="1" name="gain"/>
             <Attribute id="5876" value="0" name="mixToMono"/>
            </Attributes>
            <MetaData>
             <entry key="WinSubProjectDisplayName" val=""/>
            </MetaData>
           </AMFile>
           <AMFile id="5877" start="4896" duration="411" scalar="1/1" mediaStart="4989/1" mediaDuration="411/1" trackNumber="0" src="22" channelNumber="0" >
            <Parameters>
             <InterpolatingParam id="5878" interp="linr"  time="0/1" value="1" leadInLength="0/1"  name="volume"/>
             <Parameter id="5879"  name="captions"/>
            </Parameters>
            <Attributes>
             <Attribute id="5880" value="" name="ident"/>
             <Attribute id="5881" value="44100" name="sampleRate"/>
             <Attribute id="5882" value="16" name="bitDepth"/>
             <Attribute id="5883" value="1" name="gain"/>
             <Attribute id="5884" value="0" name="mixToMono"/>
            </Attributes>
            <MetaData>
             <entry key="WinSubProjectDisplayName" val=""/>
            </MetaData>
           </AMFile>
           <AMFile id="5885" start="5307" duration="1270" scalar="1/1" mediaStart="5956/1" mediaDuration="1270/1" trackNumber="0" src="22" channelNumber="0" >
            <Parameters>
             <InterpolatingParam id="5886" interp="linr"  time="0/1" value="1" leadInLength="0/1"  name="volume"/>
             <Parameter id="5887"  name="captions"/>
            </Parameters>
            <Attributes>
             <Attribute id="5888" value="" name="ident"/>
             <Attribute id="5889" value="44100" name="sampleRate"/>
             <Attribute id="5890" value="16" name="bitDepth"/>
             <Attribute id="5891" value="1" name="gain"/>
             <Attribute id="5892" value="0" name="mixToMono"/>
            </Attributes>
            <MetaData>
             <entry key="WinSubProjectDisplayName" val=""/>
            </MetaData>
           </AMFile>
           <AMFile id="5893" start="6577" duration="7114" scalar="1/1" mediaStart="7454/1" mediaDuration="7114/1" trackNumber="0" src="22" channelNumber="0" >
            <Parameters>
             <InterpolatingParam id="5894" interp="linr"  time="0/1" value="1" leadInLength="0/1"  name="volume"/>
             <Parameter id="5895"  name="captions"/>
            </Parameters>
            <Attributes>
             <Attribute id="5896" value="" name="ident"/>
             <Attribute id="5897" value="44100" name="sampleRate"/>
             <Attribute id="5898" value="16" name="bitDepth"/>
             <Attribute id="5899" value="1" name="gain"/>
             <Attribute id="5900" value="0" name="mixToMono"/>
            </Attributes>
            <MetaData>
             <entry key="WinSubProjectDisplayName" val=""/>
            </MetaData>
           </AMFile>
          </Medias>
         </GenericTrack>
        </StitchedMedia>
        <StitchedMedia id="5901" start="4905" duration="932" scalar="1/1" mediaStart="6327/1" mediaDuration="932/1" minMediaStart="0/1" >
         <Transformer>
          <VectorParam id="5902"  name="translation">
           <InterpolatingParam id="5903" interp="linr"  time="0/1" value="0" leadInLength="0/1"  />
           <InterpolatingParam id="5904" interp="linr"  time="0/1" value="0" leadInLength="0/1"  />
           <InterpolatingParam id="5905" interp="linr"  time="0/1" value="0" leadInLength="0/1"  />
          </VectorParam>
          <VectorParam id="5906"  name="rotation">
           <InterpolatingParam id="5907" interp="linr"  time="0/1" value="0" leadInLength="0/1"  />
           <InterpolatingParam id="5908" interp="linr"  time="0/1" value="0" leadInLength="0/1"  />
           <InterpolatingParam id="5909" interp="linr"  time="0/1" value="0" leadInLength="0/1"  />
          </VectorParam>
          <VectorParam id="5910"  name="shear">
           <InterpolatingParam id="5911" interp="linr"  time="0/1" value="0" leadInLength="0/1"  />
           <InterpolatingParam id="5912" interp="linr"  time="0/1" value="0" leadInLength="0/1"  />
           <InterpolatingParam id="5913" interp="linr"  time="0/1" value="0" leadInLength="0/1"  />
          </VectorParam>
          <VectorParam id="5914"  name="scale">
           <InterpolatingParam id="5915" interp="linr"  time="0/1" value="1" leadInLength="0/1"  />
           <InterpolatingParam id="5916" interp="linr"  time="0/1" value="1" leadInLength="0/1"  />
           <InterpolatingParam id="5917" interp="linr"  time="0/1" value="1" leadInLength="0/1"  />
          </VectorParam>
          <VectorParam id="5918"  name="anchor">
           <InterpolatingParam id="5919" interp="linr"  time="0/1" value="0" leadInLength="0/1"  />
           <InterpolatingParam id="5920" interp="linr"  time="0/1" value="0" leadInLength="0/1"  />
           <InterpolatingParam id="5921" interp="linr"  time="0/1" value="0" leadInLength="0/1"  />
          </VectorParam>
         </Transformer>
         <Parameters>
          <InterpolatingParam id="5922" interp="linr"  time="0/1" value="1" leadInLength="0/1"  name="cursorOpacity"/>
          <InterpolatingParam id="5923" interp="linr"  time="0/1" value="1" leadInLength="0/1"  name="cursorScale"/>
          <InterpolatingParam id="5924" interp="linr"  name="volume">
           <Keyframes>
           <Keyframe id="5925"  time="0/1" value="1" leadInLength="0/1"  />
           <Keyframe id="5926"  time="3301/1" value="1" leadInLength="0/1"  />
           <Keyframe id="5927"  time="3302/1" value="1.1290322580645162" leadInLength="0/1"  />
           <Keyframe id="5928"  time="13691/1" value="1.1290322580645162" leadInLength="0/1"  />
           <Keyframe id="5929"  time="13692/1" value="1" leadInLength="0/1"  />
           </Keyframes>
          </InterpolatingParam>
          <Parameter id="5930"  name="captions"/>
         </Parameters>
         <Effects>
          <GenericEffect id="5931" name = "NoiseReduction" >
           <Parameters>
           <InterpolatingParam id="5932" interp="linr"  time="0/1" value="20" leadInLength="0/1"   name="denoiserAmount"/>
           <InterpolatingParam id="5933" interp="linr"  time="0/1" value="0" leadInLength="0/1"   name="denoiserThreshold"/>
           <Parameter id="5934"   name="noiseProfile">
            <Keyframes>
            <Keyframe id="5935"  time="0/1" value="FBAAAAIAAABErAAAAQIAADOmYsI/y13CPNeLwsehjcK+No/Cm+aOwlHvjcIja5HCun6XwoKemMJy&#xD;&#xa;lpPCuQeRwhgMlcJGdZvCTjScwgFMncIGh5zCGrOawuO0nMJdJZ3Cybudwo6toMIdraPCs/6jwpY0&#xD;&#xa;psLIUqjCWQmpwonmp8KcE6XCgXGlwqC+psIFHabCBoyownWvqcIkX6jCgnCpwms3qsIW0KfCM7Oj&#xD;&#xa;wnGLosJgcKnCdk6swiIgscKFrbDCtNmowrZmpcIHYqjCCg2pwqUNq8KgHq7ChEGxwhVFs8KU6LLC&#xD;&#xa;dvWzwpVHscI6NrDCMpGwwubcs8Imh7bCPKq6wj7tvMKSbr3ClsG+wq4qwMLXQr7CpAK5whxiuMJp&#xD;&#xa;v7nCwu29wloQvsIXTL3CzjDAwsDTwcL69sHC8urAwtAFwMIkSMLCpJHDwjLOw8JG8sTCmMvDwq7H&#xD;&#xa;wsLOncPC+CDDwkh6wsLU5sPCP23Fwm5Qx8KlYsTCm0XCwnhexcLsTsPCSMPDwjvJw8LMWcHC2XHD&#xD;&#xa;wjj5wsICs8TChWvEwgCywcKDdcHCFnHCwurMxMLlVsTCfrDGwmzqyMKoGsfC7ITIwtqRyMJwzcbC&#xD;&#xa;ppbEwiv5xcIXxsTCzDfCwtSExMKEjcTC8ObDwiJ9yMIQm8vCIkDGwqHyxcIyYcbCyAXIwmyBx8I4&#xD;&#xa;n8PCvyPGwuiKxMJggMfCdL3JwsMhysLi6sXCRa7Ewoykx8Jk/MXC0NfEwtK0xcJQTMTCvvvGwtqJ&#xD;&#xa;xMKmFsTCSbfGwq76x8IQ+sjCsqnIwkJdycIaT8fC0nbHwlf2xsLg/cbCtIHHwsTvxsI0KsbCsqDH&#xD;&#xa;wgLix8JGKcXCyNTDwjDwwsIb98bC6MjJwg6Zy8Kg+cvCaC3HwtIgw8KW7sXC3EHGwmcUxcL++8fC&#xD;&#xa;CWbIwsDoxsJFz8PCJkXFwiD7xcIQDsfC8ljIwrDLxMKkeMLClpHEwiqgyMJcjcjC6krGwl50w8Iy&#xD;&#xa;7sXCWv3HwkQ1xsKUwMPC2K/EwootxMJUqMTCH3LDwuojxcKil8fCjmXIwkLJxcID78TClTvGwhel&#xD;&#xa;xsIca8bC1rbCwk6+wsIQfsfCIlPHwpJExcLWhMbCDNvEwuryxMKklMXCeBDDwolhwcIiasLCQYfE&#xD;&#xa;whUfwsJx4MTCsEnIwkX0xcK+3sbCIqLHwrARx8IWtMTCGAnFwomNxMLfbcTCQIPDwjqww8L+MMTC&#xD;&#xa;mqjHwrBaxMI6YsTCxmvIwqyKycKQaMXCnx7FwkYvx8In6sjCGMzIwuvAxcL8a8XCiBjJwkvwyMKI&#xD;&#xa;qMbCTCTIwvQSy8IxEsvCVT/JwrI3w8LA8sLCCD7EwsxXxMJSjsXCfjXFwqTKxMI/gsPCDozDwtwF&#xD;&#xa;xMISn8bChHvJwlFQyMJYCsbCP4jIwtkBycLiFsrCbCrKwvyTysIWncnC+A3HwuI5x8I8/MbC0hHI&#xD;&#xa;wopJzMLmb83CFkvMwpy/y8Kn7MrCfJrJwuLDyMJKn8bCStTGwpb7ycIMo8nCcivFwsapxcJkx8bC&#xD;&#xa;ALLIwriaycJM3cfC8r/KwlSoy8I4A8vCpFHJwkRrzMIKr87CWD7MwsiJycKW9cfCUjbKwq+YycLi&#xD;&#xa;U8jCROHHwhdWycKaU8nCF7jMwmKaz8L//8zC8tjOwjxezsIUysvCzHLJwiJryMLRm8bCgLjKwsi8&#xD;&#xa;ysIhfszCPETLwqtbyMJGeMfCpRPJwnwZzMJSIs3CqhPMwmDiyMLZYsjCz13KwgwKy8LCi8jCyrTM&#xD;&#xa;wgwxzMK4ZcvC087JwkV2xsLyXsnCjIbLwhwvzcLfrM7CeITKwla3ysLK3cnC/PHFwpScxcIUQ8nC&#xD;&#xa;NJzIwrEsxsJvZcfCXSvIwlKLx8JII8nCvgzKwpnhysJSC8vC9iTKwiA/y8IadczCuDrMwuVaysLO&#xD;&#xa;r8vCXtfJwrZ6ycItucnCtonJwjyTysJkC83CL0nMwkjdyMIBucfCixrLwvSDysKGX8nCsCzMwuas&#xD;&#xa;0cIsnNPCuEvOwtr5y8LMBc7Cr+PTwsQc5MLcOfPCKOj0wjr59cJ0C/fCzg75wkwh+8LmVPnCqz72&#xD;&#xa;wnB+9cLuJvrCtEL4wkp7+MLOfffCDN3zwkaz9sLi8vjCFKr6wgIQ+cI8iPjCBpT4wvR1+MLQI/rC&#xD;&#xa;Ihn8wlQg+sIcLvjCVCz2wsI49MJQ9fbC23H3woy69sL4BfnCIOb2wjwy9cIuGvnCdmb3wj7K9MI+&#xD;&#xa;KPXCJpr2wn7C9cKQDvnCthv7woaP+cLGaPbCTr32wrpN+cIFSPjCDvX4wtD39sJY//TCKGf3wvZI&#xD;&#xa;+cK9YvfCgYf3wjIf+sLMMvfCpjz2wuA6+cII8vbCxDv1wmJG9sLka/rCPrT1wi589cLqjfbC9qP4&#xD;&#xa;wgzJ+MLelPbCGir2wlBC9sKeU/jC/nn3wsYn9sL4QPjCXBj5wopQ+MIaJvnCSB36wgjc+MIMfPfC&#xD;&#xa;W+z1wmYG+MKuxPnCCuD1wjh+9sLDrPfCOPj3wm7h+MJjMvfCxH/2wsXf98KwN/nCKOn5wrLR+sKg&#xD;&#xa;bPvCkFv5wsAu+cL2hffCySz2wmRX+MKiiPjCzFX4wvjB98Jgz/fCxPT4wobP+cL8avjC9r34wnKx&#xD;&#xa;+MK+LPnC3H34wle39cKejfbCNKP2wg5B9sK0H/rCSvz2woqE98JAqfjCBPL4wmKi+MIu2/jCMFD5&#xD;&#xa;wiCM+cKo//nCGqz7wlZN+sKUDfjC0ov4wrIU+sIVpffCP2/3woye98KktPbCTJj2wpH29cL3mvbC&#xD;&#xa;jL/4wti/+MLm3vjCQ9QEwzOmYsI/y13CPNeLwsehjcK+No/Cm+aOwlHvjcIja5HCun6XwoKemMJy&#xD;&#xa;lpPCuQeRwhgMlcJGdZvCTjScwgFMncIGh5zCGrOawuO0nMJdJZ3Cybudwo6toMIdraPCs/6jwpY0&#xD;&#xa;psLIUqjCWQmpwonmp8KcE6XCgXGlwqC+psIFHabCBoyownWvqcIkX6jCgnCpwms3qsIW0KfCM7Oj&#xD;&#xa;wnGLosJgcKnCdk6swiIgscKFrbDCtNmowrZmpcIHYqjCCg2pwqUNq8KgHq7ChEGxwhVFs8KU6LLC&#xD;&#xa;dvWzwpVHscI6NrDCMpGwwubcs8Imh7bCPKq6wj7tvMKSbr3ClsG+wq4qwMLXQr7CpAK5whxiuMJp&#xD;&#xa;v7nCwu29wloQvsIXTL3CzjDAwsDTwcL69sHC8urAwtAFwMIkSMLCpJHDwjLOw8JG8sTCmMvDwq7H&#xD;&#xa;wsLOncPC+CDDwkh6wsLU5sPCP23Fwm5Qx8KlYsTCm0XCwnhexcLsTsPCSMPDwjvJw8LMWcHC2XHD&#xD;&#xa;wjj5wsICs8TChWvEwgCywcKDdcHCFnHCwurMxMLlVsTCfrDGwmzqyMKoGsfC7ITIwtqRyMJwzcbC&#xD;&#xa;ppbEwiv5xcIXxsTCzDfCwtSExMKEjcTC8ObDwiJ9yMIQm8vCIkDGwqHyxcIyYcbCyAXIwmyBx8I4&#xD;&#xa;n8PCvyPGwuiKxMJggMfCdL3JwsMhysLi6sXCRa7Ewoykx8Jk/MXC0NfEwtK0xcJQTMTCvvvGwtqJ&#xD;&#xa;xMKmFsTCSbfGwq76x8IQ+sjCsqnIwkJdycIaT8fC0nbHwlf2xsLg/cbCtIHHwsTvxsI0KsbCsqDH&#xD;&#xa;wgLix8JGKcXCyNTDwjDwwsIb98bC6MjJwg6Zy8Kg+cvCaC3HwtIgw8KW7sXC3EHGwmcUxcL++8fC&#xD;&#xa;CWbIwsDoxsJFz8PCJkXFwiD7xcIQDsfC8ljIwrDLxMKkeMLClpHEwiqgyMJcjcjC6krGwl50w8Iy&#xD;&#xa;7sXCWv3HwkQ1xsKUwMPC2K/EwootxMJUqMTCH3LDwuojxcKil8fCjmXIwkLJxcID78TClTvGwhel&#xD;&#xa;xsIca8bC1rbCwk6+wsIQfsfCIlPHwpJExcLWhMbCDNvEwuryxMKklMXCeBDDwolhwcIiasLCQYfE&#xD;&#xa;whUfwsJx4MTCsEnIwkX0xcK+3sbCIqLHwrARx8IWtMTCGAnFwomNxMLfbcTCQIPDwjqww8L+MMTC&#xD;&#xa;mqjHwrBaxMI6YsTCxmvIwqyKycKQaMXCnx7FwkYvx8In6sjCGMzIwuvAxcL8a8XCiBjJwkvwyMKI&#xD;&#xa;qMbCTCTIwvQSy8IxEsvCVT/JwrI3w8LA8sLCCD7EwsxXxMJSjsXCfjXFwqTKxMI/gsPCDozDwtwF&#xD;&#xa;xMISn8bChHvJwlFQyMJYCsbCP4jIwtkBycLiFsrCbCrKwvyTysIWncnC+A3HwuI5x8I8/MbC0hHI&#xD;&#xa;wopJzMLmb83CFkvMwpy/y8Kn7MrCfJrJwuLDyMJKn8bCStTGwpb7ycIMo8nCcivFwsapxcJkx8bC&#xD;&#xa;ALLIwriaycJM3cfC8r/KwlSoy8I4A8vCpFHJwkRrzMIKr87CWD7MwsiJycKW9cfCUjbKwq+YycLi&#xD;&#xa;U8jCROHHwhdWycKaU8nCF7jMwmKaz8L//8zC8tjOwjxezsIUysvCzHLJwiJryMLRm8bCgLjKwsi8&#xD;&#xa;ysIhfszCPETLwqtbyMJGeMfCpRPJwnwZzMJSIs3CqhPMwmDiyMLZYsjCz13KwgwKy8LCi8jCyrTM&#xD;&#xa;wgwxzMK4ZcvC087JwkV2xsLyXsnCjIbLwhwvzcLfrM7CeITKwla3ysLK3cnC/PHFwpScxcIUQ8nC&#xD;&#xa;NJzIwrEsxsJvZcfCXSvIwlKLx8JII8nCvgzKwpnhysJSC8vC9iTKwiA/y8IadczCuDrMwuVaysLO&#xD;&#xa;r8vCXtfJwrZ6ycItucnCtonJwjyTysJkC83CL0nMwkjdyMIBucfCixrLwvSDysKGX8nCsCzMwuas&#xD;&#xa;0cIsnNPCuEvOwtr5y8LMBc7Cr+PTwsQc5MLcOfPCKOj0wjr59cJ0C/fCzg75wkwh+8LmVPnCqz72&#xD;&#xa;wnB+9cLuJvrCtEL4wkp7+MLOfffCDN3zwkaz9sLi8vjCFKr6wgIQ+cI8iPjCBpT4wvR1+MLQI/rC&#xD;&#xa;Ihn8wlQg+sIcLvjCVCz2wsI49MJQ9fbC23H3woy69sL4BfnCIOb2wjwy9cIuGvnCdmb3wj7K9MI+&#xD;&#xa;KPXCJpr2wn7C9cKQDvnCthv7woaP+cLGaPbCTr32wrpN+cIFSPjCDvX4wtD39sJY//TCKGf3wvZI&#xD;&#xa;+cK9YvfCgYf3wjIf+sLMMvfCpjz2wuA6+cII8vbCxDv1wmJG9sLka/rCPrT1wi589cLqjfbC9qP4&#xD;&#xa;wgzJ+MLelPbCGir2wlBC9sKeU/jC/nn3wsYn9sL4QPjCXBj5wopQ+MIaJvnCSB36wgjc+MIMfPfC&#xD;&#xa;W+z1wmYG+MKuxPnCCuD1wjh+9sLDrPfCOPj3wm7h+MJjMvfCxH/2wsXf98KwN/nCKOn5wrLR+sKg&#xD;&#xa;bPvCkFv5wsAu+cL2hffCySz2wmRX+MKiiPjCzFX4wvjB98Jgz/fCxPT4wobP+cL8avjC9r34wnKx&#xD;&#xa;+MK+LPnC3H34wle39cKejfbCNKP2wg5B9sK0H/rCSvz2woqE98JAqfjCBPL4wmKi+MIu2/jCMFD5&#xD;&#xa;wiCM+cKo//nCGqz7wlZN+sKUDfjC0ov4wrIU+sIVpffCP2/3woye98KktPbCTJj2wpH29cL3mvbC&#xD;&#xa;jL/4wti/+MLm3vjCQ9QE" leadInLength="0/1"  />
            </Keyframes>
           </Parameter>
           </Parameters>
          </GenericEffect>
          <GenericEffect id="5936" name = "WinCompression" >
           <Parameters>
           <InterpolatingParam id="5937" interp="linr"  time="0/1" value="0" leadInLength="0/1"   name="attack"/>
           <InterpolatingParam id="5938" interp="linr"  time="0/1" value="9" leadInLength="0/1"   name="gain"/>
           <Parameter id="5939"   name="preset">
            <Keyframes>
            <Keyframe id="5940"  time="0/1" value="1" leadInLength="0/1"  />
            </Keyframes>
           </Parameter>
           <InterpolatingParam id="5941" interp="linr"  time="0/1" value="10" leadInLength="0/1"   name="ratio"/>
           <InterpolatingParam id="5942" interp="linr"  time="0/1" value="3500" leadInLength="0/1"   name="release"/>
           <InterpolatingParam id="5943" interp="linr"  time="0/1" value="-20" leadInLength="0/1"   name="threshold"/>
           </Parameters>
          </GenericEffect>
          <GenericEffect id="5944" name = "Declipper" >
           <Parameters>
           <InterpolatingParam id="5945" interp="linr"  time="0/1" value="-1" leadInLength="0/1"   name="sensitivity"/>
           </Parameters>
          </GenericEffect>
          <GenericEffect id="5946" name = "Declicker" >
           <Parameters>
           <InterpolatingParam id="5947" interp="linr"  time="0/1" value="3" leadInLength="0/1"   name="sensitivity"/>
           </Parameters>
          </GenericEffect>
         </Effects>
         <Attributes>
          <Attribute id="5948" value="" name="ident"/>
          <Attribute id="5949" value="0" name="mixToMono"/>
         </Attributes>
         <MetaData>
          <entry key="WinSubProjectDisplayName" val=""/>
         </MetaData>
         <ExtraData>
          <Entry key="ZoomPanBin">
           <ZoomPanBin id="5950"  >
            <ZoomPanKeyframes>
            </ZoomPanKeyframes>
           </ZoomPanBin>
          </Entry>
          <Entry key="CursorEffectBin">
           <CursorEffectBin id="5951"  >
            <CursorEffectKeyframes>
            </CursorEffectKeyframes>
           </CursorEffectBin>
          </Entry>
         </ExtraData>
         <GenericTrack id="5952"  >
          <Attributes>
           <Attribute id="5953" value="" name="ident"/>
           <Attribute id="5954" value="0" name="audioMuted"/>
           <Attribute id="5955" value="0" name="videoHidden"/>
          </Attributes>
          <MetaData>
           <entry key="IsLocked" val="False"/>
           <entry key="WinTrackHeight" val="0"/>
          </MetaData>
          <Medias>
           <AMFile id="5956" start="0" duration="4896" scalar="1/1" mediaStart="0/1" mediaDuration="4896/1" trackNumber="0" src="22" channelNumber="0" >
            <Parameters>
             <InterpolatingParam id="5957" interp="linr"  time="0/1" value="1" leadInLength="0/1"  name="volume"/>
             <Parameter id="5958"  name="captions"/>
            </Parameters>
            <Attributes>
             <Attribute id="5959" value="" name="ident"/>
             <Attribute id="5960" value="44100" name="sampleRate"/>
             <Attribute id="5961" value="16" name="bitDepth"/>
             <Attribute id="5962" value="1" name="gain"/>
             <Attribute id="5963" value="0" name="mixToMono"/>
            </Attributes>
            <MetaData>
             <entry key="WinSubProjectDisplayName" val=""/>
            </MetaData>
           </AMFile>
           <AMFile id="5964" start="4896" duration="411" scalar="1/1" mediaStart="4989/1" mediaDuration="411/1" trackNumber="0" src="22" channelNumber="0" >
            <Parameters>
             <InterpolatingParam id="5965" interp="linr"  time="0/1" value="1" leadInLength="0/1"  name="volume"/>
             <Parameter id="5966"  name="captions"/>
            </Parameters>
            <Attributes>
             <Attribute id="5967" value="" name="ident"/>
             <Attribute id="5968" value="44100" name="sampleRate"/>
             <Attribute id="5969" value="16" name="bitDepth"/>
             <Attribute id="5970" value="1" name="gain"/>
             <Attribute id="5971" value="0" name="mixToMono"/>
            </Attributes>
            <MetaData>
             <entry key="WinSubProjectDisplayName" val=""/>
            </MetaData>
           </AMFile>
           <AMFile id="5972" start="5307" duration="1270" scalar="1/1" mediaStart="5956/1" mediaDuration="1270/1" trackNumber="0" src="22" channelNumber="0" >
            <Parameters>
             <InterpolatingParam id="5973" interp="linr"  time="0/1" value="1" leadInLength="0/1"  name="volume"/>
             <Parameter id="5974"  name="captions"/>
            </Parameters>
            <Attributes>
             <Attribute id="5975" value="" name="ident"/>
             <Attribute id="5976" value="44100" name="sampleRate"/>
             <Attribute id="5977" value="16" name="bitDepth"/>
             <Attribute id="5978" value="1" name="gain"/>
             <Attribute id="5979" value="0" name="mixToMono"/>
            </Attributes>
            <MetaData>
             <entry key="WinSubProjectDisplayName" val=""/>
            </MetaData>
           </AMFile>
           <AMFile id="5980" start="6577" duration="7114" scalar="1/1" mediaStart="7454/1" mediaDuration="7114/1" trackNumber="0" src="22" channelNumber="0" >
            <Parameters>
             <InterpolatingParam id="5981" interp="linr"  time="0/1" value="1" leadInLength="0/1"  name="volume"/>
             <Parameter id="5982"  name="captions"/>
            </Parameters>
            <Attributes>
             <Attribute id="5983" value="" name="ident"/>
             <Attribute id="5984" value="44100" name="sampleRate"/>
             <Attribute id="5985" value="16" name="bitDepth"/>
             <Attribute id="5986" value="1" name="gain"/>
             <Attribute id="5987" value="0" name="mixToMono"/>
            </Attributes>
            <MetaData>
             <entry key="WinSubProjectDisplayName" val=""/>
            </MetaData>
           </AMFile>
          </Medias>
         </GenericTrack>
        </StitchedMedia>
        <AMFile id="5988" start="5855" duration="142" scalar="1/1" mediaStart="8136/1" mediaDuration="142/1" trackNumber="0" src="22" channelNumber="0" >
         <Parameters>
          <InterpolatingParam id="5989" interp="linr"  name="volume">
           <Keyframes>
           <Keyframe id="5990"  time="0/1" value="1" leadInLength="0/1"  />
           <Keyframe id="5991"  time="3301/1" value="1" leadInLength="0/1"  />
           <Keyframe id="5992"  time="3302/1" value="0.80000000000000004" leadInLength="0/1"  />
           <Keyframe id="5993"  time="14568/1" value="0.80000000000000004" leadInLength="0/1"  />
           <Keyframe id="5994"  time="14569/1" value="1" leadInLength="0/1"  />
           </Keyframes>
          </InterpolatingParam>
          <Parameter id="5995"  name="captions"/>
         </Parameters>
         <Effects>
          <GenericEffect id="5996" name = "NoiseReduction" >
           <Parameters>
           <InterpolatingParam id="5997" interp="linr"  time="0/1" value="20" leadInLength="0/1"   name="denoiserAmount"/>
           <InterpolatingParam id="5998" interp="linr"  time="0/1" value="0" leadInLength="0/1"   name="denoiserThreshold"/>
           <Parameter id="5999"   name="noiseProfile">
            <Keyframes>
            <Keyframe id="6000"  time="0/1" value="FBAAAAIAAABErAAAAQIAADOmYsI/y13CPNeLwsehjcK+No/Cm+aOwlHvjcIja5HCun6XwoKemMJy&#xD;&#xa;lpPCuQeRwhgMlcJGdZvCTjScwgFMncIGh5zCGrOawuO0nMJdJZ3Cybudwo6toMIdraPCs/6jwpY0&#xD;&#xa;psLIUqjCWQmpwonmp8KcE6XCgXGlwqC+psIFHabCBoyownWvqcIkX6jCgnCpwms3qsIW0KfCM7Oj&#xD;&#xa;wnGLosJgcKnCdk6swiIgscKFrbDCtNmowrZmpcIHYqjCCg2pwqUNq8KgHq7ChEGxwhVFs8KU6LLC&#xD;&#xa;dvWzwpVHscI6NrDCMpGwwubcs8Imh7bCPKq6wj7tvMKSbr3ClsG+wq4qwMLXQr7CpAK5whxiuMJp&#xD;&#xa;v7nCwu29wloQvsIXTL3CzjDAwsDTwcL69sHC8urAwtAFwMIkSMLCpJHDwjLOw8JG8sTCmMvDwq7H&#xD;&#xa;wsLOncPC+CDDwkh6wsLU5sPCP23Fwm5Qx8KlYsTCm0XCwnhexcLsTsPCSMPDwjvJw8LMWcHC2XHD&#xD;&#xa;wjj5wsICs8TChWvEwgCywcKDdcHCFnHCwurMxMLlVsTCfrDGwmzqyMKoGsfC7ITIwtqRyMJwzcbC&#xD;&#xa;ppbEwiv5xcIXxsTCzDfCwtSExMKEjcTC8ObDwiJ9yMIQm8vCIkDGwqHyxcIyYcbCyAXIwmyBx8I4&#xD;&#xa;n8PCvyPGwuiKxMJggMfCdL3JwsMhysLi6sXCRa7Ewoykx8Jk/MXC0NfEwtK0xcJQTMTCvvvGwtqJ&#xD;&#xa;xMKmFsTCSbfGwq76x8IQ+sjCsqnIwkJdycIaT8fC0nbHwlf2xsLg/cbCtIHHwsTvxsI0KsbCsqDH&#xD;&#xa;wgLix8JGKcXCyNTDwjDwwsIb98bC6MjJwg6Zy8Kg+cvCaC3HwtIgw8KW7sXC3EHGwmcUxcL++8fC&#xD;&#xa;CWbIwsDoxsJFz8PCJkXFwiD7xcIQDsfC8ljIwrDLxMKkeMLClpHEwiqgyMJcjcjC6krGwl50w8Iy&#xD;&#xa;7sXCWv3HwkQ1xsKUwMPC2K/EwootxMJUqMTCH3LDwuojxcKil8fCjmXIwkLJxcID78TClTvGwhel&#xD;&#xa;xsIca8bC1rbCwk6+wsIQfsfCIlPHwpJExcLWhMbCDNvEwuryxMKklMXCeBDDwolhwcIiasLCQYfE&#xD;&#xa;whUfwsJx4MTCsEnIwkX0xcK+3sbCIqLHwrARx8IWtMTCGAnFwomNxMLfbcTCQIPDwjqww8L+MMTC&#xD;&#xa;mqjHwrBaxMI6YsTCxmvIwqyKycKQaMXCnx7FwkYvx8In6sjCGMzIwuvAxcL8a8XCiBjJwkvwyMKI&#xD;&#xa;qMbCTCTIwvQSy8IxEsvCVT/JwrI3w8LA8sLCCD7EwsxXxMJSjsXCfjXFwqTKxMI/gsPCDozDwtwF&#xD;&#xa;xMISn8bChHvJwlFQyMJYCsbCP4jIwtkBycLiFsrCbCrKwvyTysIWncnC+A3HwuI5x8I8/MbC0hHI&#xD;&#xa;wopJzMLmb83CFkvMwpy/y8Kn7MrCfJrJwuLDyMJKn8bCStTGwpb7ycIMo8nCcivFwsapxcJkx8bC&#xD;&#xa;ALLIwriaycJM3cfC8r/KwlSoy8I4A8vCpFHJwkRrzMIKr87CWD7MwsiJycKW9cfCUjbKwq+YycLi&#xD;&#xa;U8jCROHHwhdWycKaU8nCF7jMwmKaz8L//8zC8tjOwjxezsIUysvCzHLJwiJryMLRm8bCgLjKwsi8&#xD;&#xa;ysIhfszCPETLwqtbyMJGeMfCpRPJwnwZzMJSIs3CqhPMwmDiyMLZYsjCz13KwgwKy8LCi8jCyrTM&#xD;&#xa;wgwxzMK4ZcvC087JwkV2xsLyXsnCjIbLwhwvzcLfrM7CeITKwla3ysLK3cnC/PHFwpScxcIUQ8nC&#xD;&#xa;NJzIwrEsxsJvZcfCXSvIwlKLx8JII8nCvgzKwpnhysJSC8vC9iTKwiA/y8IadczCuDrMwuVaysLO&#xD;&#xa;r8vCXtfJwrZ6ycItucnCtonJwjyTysJkC83CL0nMwkjdyMIBucfCixrLwvSDysKGX8nCsCzMwuas&#xD;&#xa;0cIsnNPCuEvOwtr5y8LMBc7Cr+PTwsQc5MLcOfPCKOj0wjr59cJ0C/fCzg75wkwh+8LmVPnCqz72&#xD;&#xa;wnB+9cLuJvrCtEL4wkp7+MLOfffCDN3zwkaz9sLi8vjCFKr6wgIQ+cI8iPjCBpT4wvR1+MLQI/rC&#xD;&#xa;Ihn8wlQg+sIcLvjCVCz2wsI49MJQ9fbC23H3woy69sL4BfnCIOb2wjwy9cIuGvnCdmb3wj7K9MI+&#xD;&#xa;KPXCJpr2wn7C9cKQDvnCthv7woaP+cLGaPbCTr32wrpN+cIFSPjCDvX4wtD39sJY//TCKGf3wvZI&#xD;&#xa;+cK9YvfCgYf3wjIf+sLMMvfCpjz2wuA6+cII8vbCxDv1wmJG9sLka/rCPrT1wi589cLqjfbC9qP4&#xD;&#xa;wgzJ+MLelPbCGir2wlBC9sKeU/jC/nn3wsYn9sL4QPjCXBj5wopQ+MIaJvnCSB36wgjc+MIMfPfC&#xD;&#xa;W+z1wmYG+MKuxPnCCuD1wjh+9sLDrPfCOPj3wm7h+MJjMvfCxH/2wsXf98KwN/nCKOn5wrLR+sKg&#xD;&#xa;bPvCkFv5wsAu+cL2hffCySz2wmRX+MKiiPjCzFX4wvjB98Jgz/fCxPT4wobP+cL8avjC9r34wnKx&#xD;&#xa;+MK+LPnC3H34wle39cKejfbCNKP2wg5B9sK0H/rCSvz2woqE98JAqfjCBPL4wmKi+MIu2/jCMFD5&#xD;&#xa;wiCM+cKo//nCGqz7wlZN+sKUDfjC0ov4wrIU+sIVpffCP2/3woye98KktPbCTJj2wpH29cL3mvbC&#xD;&#xa;jL/4wti/+MLm3vjCQ9QEwzOmYsI/y13CPNeLwsehjcK+No/Cm+aOwlHvjcIja5HCun6XwoKemMJy&#xD;&#xa;lpPCuQeRwhgMlcJGdZvCTjScwgFMncIGh5zCGrOawuO0nMJdJZ3Cybudwo6toMIdraPCs/6jwpY0&#xD;&#xa;psLIUqjCWQmpwonmp8KcE6XCgXGlwqC+psIFHabCBoyownWvqcIkX6jCgnCpwms3qsIW0KfCM7Oj&#xD;&#xa;wnGLosJgcKnCdk6swiIgscKFrbDCtNmowrZmpcIHYqjCCg2pwqUNq8KgHq7ChEGxwhVFs8KU6LLC&#xD;&#xa;dvWzwpVHscI6NrDCMpGwwubcs8Imh7bCPKq6wj7tvMKSbr3ClsG+wq4qwMLXQr7CpAK5whxiuMJp&#xD;&#xa;v7nCwu29wloQvsIXTL3CzjDAwsDTwcL69sHC8urAwtAFwMIkSMLCpJHDwjLOw8JG8sTCmMvDwq7H&#xD;&#xa;wsLOncPC+CDDwkh6wsLU5sPCP23Fwm5Qx8KlYsTCm0XCwnhexcLsTsPCSMPDwjvJw8LMWcHC2XHD&#xD;&#xa;wjj5wsICs8TChWvEwgCywcKDdcHCFnHCwurMxMLlVsTCfrDGwmzqyMKoGsfC7ITIwtqRyMJwzcbC&#xD;&#xa;ppbEwiv5xcIXxsTCzDfCwtSExMKEjcTC8ObDwiJ9yMIQm8vCIkDGwqHyxcIyYcbCyAXIwmyBx8I4&#xD;&#xa;n8PCvyPGwuiKxMJggMfCdL3JwsMhysLi6sXCRa7Ewoykx8Jk/MXC0NfEwtK0xcJQTMTCvvvGwtqJ&#xD;&#xa;xMKmFsTCSbfGwq76x8IQ+sjCsqnIwkJdycIaT8fC0nbHwlf2xsLg/cbCtIHHwsTvxsI0KsbCsqDH&#xD;&#xa;wgLix8JGKcXCyNTDwjDwwsIb98bC6MjJwg6Zy8Kg+cvCaC3HwtIgw8KW7sXC3EHGwmcUxcL++8fC&#xD;&#xa;CWbIwsDoxsJFz8PCJkXFwiD7xcIQDsfC8ljIwrDLxMKkeMLClpHEwiqgyMJcjcjC6krGwl50w8Iy&#xD;&#xa;7sXCWv3HwkQ1xsKUwMPC2K/EwootxMJUqMTCH3LDwuojxcKil8fCjmXIwkLJxcID78TClTvGwhel&#xD;&#xa;xsIca8bC1rbCwk6+wsIQfsfCIlPHwpJExcLWhMbCDNvEwuryxMKklMXCeBDDwolhwcIiasLCQYfE&#xD;&#xa;whUfwsJx4MTCsEnIwkX0xcK+3sbCIqLHwrARx8IWtMTCGAnFwomNxMLfbcTCQIPDwjqww8L+MMTC&#xD;&#xa;mqjHwrBaxMI6YsTCxmvIwqyKycKQaMXCnx7FwkYvx8In6sjCGMzIwuvAxcL8a8XCiBjJwkvwyMKI&#xD;&#xa;qMbCTCTIwvQSy8IxEsvCVT/JwrI3w8LA8sLCCD7EwsxXxMJSjsXCfjXFwqTKxMI/gsPCDozDwtwF&#xD;&#xa;xMISn8bChHvJwlFQyMJYCsbCP4jIwtkBycLiFsrCbCrKwvyTysIWncnC+A3HwuI5x8I8/MbC0hHI&#xD;&#xa;wopJzMLmb83CFkvMwpy/y8Kn7MrCfJrJwuLDyMJKn8bCStTGwpb7ycIMo8nCcivFwsapxcJkx8bC&#xD;&#xa;ALLIwriaycJM3cfC8r/KwlSoy8I4A8vCpFHJwkRrzMIKr87CWD7MwsiJycKW9cfCUjbKwq+YycLi&#xD;&#xa;U8jCROHHwhdWycKaU8nCF7jMwmKaz8L//8zC8tjOwjxezsIUysvCzHLJwiJryMLRm8bCgLjKwsi8&#xD;&#xa;ysIhfszCPETLwqtbyMJGeMfCpRPJwnwZzMJSIs3CqhPMwmDiyMLZYsjCz13KwgwKy8LCi8jCyrTM&#xD;&#xa;wgwxzMK4ZcvC087JwkV2xsLyXsnCjIbLwhwvzcLfrM7CeITKwla3ysLK3cnC/PHFwpScxcIUQ8nC&#xD;&#xa;NJzIwrEsxsJvZcfCXSvIwlKLx8JII8nCvgzKwpnhysJSC8vC9iTKwiA/y8IadczCuDrMwuVaysLO&#xD;&#xa;r8vCXtfJwrZ6ycItucnCtonJwjyTysJkC83CL0nMwkjdyMIBucfCixrLwvSDysKGX8nCsCzMwuas&#xD;&#xa;0cIsnNPCuEvOwtr5y8LMBc7Cr+PTwsQc5MLcOfPCKOj0wjr59cJ0C/fCzg75wkwh+8LmVPnCqz72&#xD;&#xa;wnB+9cLuJvrCtEL4wkp7+MLOfffCDN3zwkaz9sLi8vjCFKr6wgIQ+cI8iPjCBpT4wvR1+MLQI/rC&#xD;&#xa;Ihn8wlQg+sIcLvjCVCz2wsI49MJQ9fbC23H3woy69sL4BfnCIOb2wjwy9cIuGvnCdmb3wj7K9MI+&#xD;&#xa;KPXCJpr2wn7C9cKQDvnCthv7woaP+cLGaPbCTr32wrpN+cIFSPjCDvX4wtD39sJY//TCKGf3wvZI&#xD;&#xa;+cK9YvfCgYf3wjIf+sLMMvfCpjz2wuA6+cII8vbCxDv1wmJG9sLka/rCPrT1wi589cLqjfbC9qP4&#xD;&#xa;wgzJ+MLelPbCGir2wlBC9sKeU/jC/nn3wsYn9sL4QPjCXBj5wopQ+MIaJvnCSB36wgjc+MIMfPfC&#xD;&#xa;W+z1wmYG+MKuxPnCCuD1wjh+9sLDrPfCOPj3wm7h+MJjMvfCxH/2wsXf98KwN/nCKOn5wrLR+sKg&#xD;&#xa;bPvCkFv5wsAu+cL2hffCySz2wmRX+MKiiPjCzFX4wvjB98Jgz/fCxPT4wobP+cL8avjC9r34wnKx&#xD;&#xa;+MK+LPnC3H34wle39cKejfbCNKP2wg5B9sK0H/rCSvz2woqE98JAqfjCBPL4wmKi+MIu2/jCMFD5&#xD;&#xa;wiCM+cKo//nCGqz7wlZN+sKUDfjC0ov4wrIU+sIVpffCP2/3woye98KktPbCTJj2wpH29cL3mvbC&#xD;&#xa;jL/4wti/+MLm3vjCQ9QE" leadInLength="0/1"  />
            </Keyframes>
           </Parameter>
           </Parameters>
          </GenericEffect>
          <GenericEffect id="6001" name = "WinCompression" >
           <Parameters>
           <InterpolatingParam id="6002" interp="linr"  time="0/1" value="0" leadInLength="0/1"   name="attack"/>
           <InterpolatingParam id="6003" interp="linr"  time="0/1" value="9" leadInLength="0/1"   name="gain"/>
           <Parameter id="6004"   name="preset">
            <Keyframes>
            <Keyframe id="6005"  time="0/1" value="1" leadInLength="0/1"  />
            </Keyframes>
           </Parameter>
           <InterpolatingParam id="6006" interp="linr"  time="0/1" value="10" leadInLength="0/1"   name="ratio"/>
           <InterpolatingParam id="6007" interp="linr"  time="0/1" value="3500" leadInLength="0/1"   name="release"/>
           <InterpolatingParam id="6008" interp="linr"  time="0/1" value="-20" leadInLength="0/1"   name="threshold"/>
           </Parameters>
          </GenericEffect>
          <GenericEffect id="6009" name = "Declipper" >
           <Parameters>
           <InterpolatingParam id="6010" interp="linr"  time="0/1" value="-1" leadInLength="0/1"   name="sensitivity"/>
           </Parameters>
          </GenericEffect>
          <GenericEffect id="6011" name = "Declicker" >
           <Parameters>
           <InterpolatingParam id="6012" interp="linr"  time="0/1" value="3" leadInLength="0/1"   name="sensitivity"/>
           </Parameters>
          </GenericEffect>
         </Effects>
         <Attributes>
          <Attribute id="6013" value="" name="ident"/>
          <Attribute id="6014" value="44100" name="sampleRate"/>
          <Attribute id="6015" value="16" name="bitDepth"/>
          <Attribute id="6016" value="1" name="gain"/>
          <Attribute id="6017" value="0" name="mixToMono"/>
         </Attributes>
         <MetaData>
          <entry key="WinSubProjectDisplayName" val=""/>
         </MetaData>
        </AMFile>
        <AMFile id="6018" start="6026" duration="99" scalar="1/1" mediaStart="8278/1" mediaDuration="99/1" trackNumber="0" src="22" channelNumber="0" >
         <Parameters>
          <InterpolatingParam id="6019" interp="linr"  name="volume">
           <Keyframes>
           <Keyframe id="6020"  time="0/1" value="1" leadInLength="0/1"  />
           <Keyframe id="6021"  time="3301/1" value="1" leadInLength="0/1"  />
           <Keyframe id="6022"  time="3302/1" value="0.80000000000000004" leadInLength="0/1"  />
           <Keyframe id="6023"  time="14568/1" value="0.80000000000000004" leadInLength="0/1"  />
           <Keyframe id="6024"  time="14569/1" value="1" leadInLength="0/1"  />
           </Keyframes>
          </InterpolatingParam>
          <Parameter id="6025"  name="captions"/>
         </Parameters>
         <Effects>
          <GenericEffect id="6026" name = "NoiseReduction" >
           <Parameters>
           <InterpolatingParam id="6027" interp="linr"  time="0/1" value="20" leadInLength="0/1"   name="denoiserAmount"/>
           <InterpolatingParam id="6028" interp="linr"  time="0/1" value="0" leadInLength="0/1"   name="denoiserThreshold"/>
           <Parameter id="6029"   name="noiseProfile">
            <Keyframes>
            <Keyframe id="6030"  time="0/1" value="FBAAAAIAAABErAAAAQIAADOmYsI/y13CPNeLwsehjcK+No/Cm+aOwlHvjcIja5HCun6XwoKemMJy&#xD;&#xa;lpPCuQeRwhgMlcJGdZvCTjScwgFMncIGh5zCGrOawuO0nMJdJZ3Cybudwo6toMIdraPCs/6jwpY0&#xD;&#xa;psLIUqjCWQmpwonmp8KcE6XCgXGlwqC+psIFHabCBoyownWvqcIkX6jCgnCpwms3qsIW0KfCM7Oj&#xD;&#xa;wnGLosJgcKnCdk6swiIgscKFrbDCtNmowrZmpcIHYqjCCg2pwqUNq8KgHq7ChEGxwhVFs8KU6LLC&#xD;&#xa;dvWzwpVHscI6NrDCMpGwwubcs8Imh7bCPKq6wj7tvMKSbr3ClsG+wq4qwMLXQr7CpAK5whxiuMJp&#xD;&#xa;v7nCwu29wloQvsIXTL3CzjDAwsDTwcL69sHC8urAwtAFwMIkSMLCpJHDwjLOw8JG8sTCmMvDwq7H&#xD;&#xa;wsLOncPC+CDDwkh6wsLU5sPCP23Fwm5Qx8KlYsTCm0XCwnhexcLsTsPCSMPDwjvJw8LMWcHC2XHD&#xD;&#xa;wjj5wsICs8TChWvEwgCywcKDdcHCFnHCwurMxMLlVsTCfrDGwmzqyMKoGsfC7ITIwtqRyMJwzcbC&#xD;&#xa;ppbEwiv5xcIXxsTCzDfCwtSExMKEjcTC8ObDwiJ9yMIQm8vCIkDGwqHyxcIyYcbCyAXIwmyBx8I4&#xD;&#xa;n8PCvyPGwuiKxMJggMfCdL3JwsMhysLi6sXCRa7Ewoykx8Jk/MXC0NfEwtK0xcJQTMTCvvvGwtqJ&#xD;&#xa;xMKmFsTCSbfGwq76x8IQ+sjCsqnIwkJdycIaT8fC0nbHwlf2xsLg/cbCtIHHwsTvxsI0KsbCsqDH&#xD;&#xa;wgLix8JGKcXCyNTDwjDwwsIb98bC6MjJwg6Zy8Kg+cvCaC3HwtIgw8KW7sXC3EHGwmcUxcL++8fC&#xD;&#xa;CWbIwsDoxsJFz8PCJkXFwiD7xcIQDsfC8ljIwrDLxMKkeMLClpHEwiqgyMJcjcjC6krGwl50w8Iy&#xD;&#xa;7sXCWv3HwkQ1xsKUwMPC2K/EwootxMJUqMTCH3LDwuojxcKil8fCjmXIwkLJxcID78TClTvGwhel&#xD;&#xa;xsIca8bC1rbCwk6+wsIQfsfCIlPHwpJExcLWhMbCDNvEwuryxMKklMXCeBDDwolhwcIiasLCQYfE&#xD;&#xa;whUfwsJx4MTCsEnIwkX0xcK+3sbCIqLHwrARx8IWtMTCGAnFwomNxMLfbcTCQIPDwjqww8L+MMTC&#xD;&#xa;mqjHwrBaxMI6YsTCxmvIwqyKycKQaMXCnx7FwkYvx8In6sjCGMzIwuvAxcL8a8XCiBjJwkvwyMKI&#xD;&#xa;qMbCTCTIwvQSy8IxEsvCVT/JwrI3w8LA8sLCCD7EwsxXxMJSjsXCfjXFwqTKxMI/gsPCDozDwtwF&#xD;&#xa;xMISn8bChHvJwlFQyMJYCsbCP4jIwtkBycLiFsrCbCrKwvyTysIWncnC+A3HwuI5x8I8/MbC0hHI&#xD;&#xa;wopJzMLmb83CFkvMwpy/y8Kn7MrCfJrJwuLDyMJKn8bCStTGwpb7ycIMo8nCcivFwsapxcJkx8bC&#xD;&#xa;ALLIwriaycJM3cfC8r/KwlSoy8I4A8vCpFHJwkRrzMIKr87CWD7MwsiJycKW9cfCUjbKwq+YycLi&#xD;&#xa;U8jCROHHwhdWycKaU8nCF7jMwmKaz8L//8zC8tjOwjxezsIUysvCzHLJwiJryMLRm8bCgLjKwsi8&#xD;&#xa;ysIhfszCPETLwqtbyMJGeMfCpRPJwnwZzMJSIs3CqhPMwmDiyMLZYsjCz13KwgwKy8LCi8jCyrTM&#xD;&#xa;wgwxzMK4ZcvC087JwkV2xsLyXsnCjIbLwhwvzcLfrM7CeITKwla3ysLK3cnC/PHFwpScxcIUQ8nC&#xD;&#xa;NJzIwrEsxsJvZcfCXSvIwlKLx8JII8nCvgzKwpnhysJSC8vC9iTKwiA/y8IadczCuDrMwuVaysLO&#xD;&#xa;r8vCXtfJwrZ6ycItucnCtonJwjyTysJkC83CL0nMwkjdyMIBucfCixrLwvSDysKGX8nCsCzMwuas&#xD;&#xa;0cIsnNPCuEvOwtr5y8LMBc7Cr+PTwsQc5MLcOfPCKOj0wjr59cJ0C/fCzg75wkwh+8LmVPnCqz72&#xD;&#xa;wnB+9cLuJvrCtEL4wkp7+MLOfffCDN3zwkaz9sLi8vjCFKr6wgIQ+cI8iPjCBpT4wvR1+MLQI/rC&#xD;&#xa;Ihn8wlQg+sIcLvjCVCz2wsI49MJQ9fbC23H3woy69sL4BfnCIOb2wjwy9cIuGvnCdmb3wj7K9MI+&#xD;&#xa;KPXCJpr2wn7C9cKQDvnCthv7woaP+cLGaPbCTr32wrpN+cIFSPjCDvX4wtD39sJY//TCKGf3wvZI&#xD;&#xa;+cK9YvfCgYf3wjIf+sLMMvfCpjz2wuA6+cII8vbCxDv1wmJG9sLka/rCPrT1wi589cLqjfbC9qP4&#xD;&#xa;wgzJ+MLelPbCGir2wlBC9sKeU/jC/nn3wsYn9sL4QPjCXBj5wopQ+MIaJvnCSB36wgjc+MIMfPfC&#xD;&#xa;W+z1wmYG+MKuxPnCCuD1wjh+9sLDrPfCOPj3wm7h+MJjMvfCxH/2wsXf98KwN/nCKOn5wrLR+sKg&#xD;&#xa;bPvCkFv5wsAu+cL2hffCySz2wmRX+MKiiPjCzFX4wvjB98Jgz/fCxPT4wobP+cL8avjC9r34wnKx&#xD;&#xa;+MK+LPnC3H34wle39cKejfbCNKP2wg5B9sK0H/rCSvz2woqE98JAqfjCBPL4wmKi+MIu2/jCMFD5&#xD;&#xa;wiCM+cKo//nCGqz7wlZN+sKUDfjC0ov4wrIU+sIVpffCP2/3woye98KktPbCTJj2wpH29cL3mvbC&#xD;&#xa;jL/4wti/+MLm3vjCQ9QEwzOmYsI/y13CPNeLwsehjcK+No/Cm+aOwlHvjcIja5HCun6XwoKemMJy&#xD;&#xa;lpPCuQeRwhgMlcJGdZvCTjScwgFMncIGh5zCGrOawuO0nMJdJZ3Cybudwo6toMIdraPCs/6jwpY0&#xD;&#xa;psLIUqjCWQmpwonmp8KcE6XCgXGlwqC+psIFHabCBoyownWvqcIkX6jCgnCpwms3qsIW0KfCM7Oj&#xD;&#xa;wnGLosJgcKnCdk6swiIgscKFrbDCtNmowrZmpcIHYqjCCg2pwqUNq8KgHq7ChEGxwhVFs8KU6LLC&#xD;&#xa;dvWzwpVHscI6NrDCMpGwwubcs8Imh7bCPKq6wj7tvMKSbr3ClsG+wq4qwMLXQr7CpAK5whxiuMJp&#xD;&#xa;v7nCwu29wloQvsIXTL3CzjDAwsDTwcL69sHC8urAwtAFwMIkSMLCpJHDwjLOw8JG8sTCmMvDwq7H&#xD;&#xa;wsLOncPC+CDDwkh6wsLU5sPCP23Fwm5Qx8KlYsTCm0XCwnhexcLsTsPCSMPDwjvJw8LMWcHC2XHD&#xD;&#xa;wjj5wsICs8TChWvEwgCywcKDdcHCFnHCwurMxMLlVsTCfrDGwmzqyMKoGsfC7ITIwtqRyMJwzcbC&#xD;&#xa;ppbEwiv5xcIXxsTCzDfCwtSExMKEjcTC8ObDwiJ9yMIQm8vCIkDGwqHyxcIyYcbCyAXIwmyBx8I4&#xD;&#xa;n8PCvyPGwuiKxMJggMfCdL3JwsMhysLi6sXCRa7Ewoykx8Jk/MXC0NfEwtK0xcJQTMTCvvvGwtqJ&#xD;&#xa;xMKmFsTCSbfGwq76x8IQ+sjCsqnIwkJdycIaT8fC0nbHwlf2xsLg/cbCtIHHwsTvxsI0KsbCsqDH&#xD;&#xa;wgLix8JGKcXCyNTDwjDwwsIb98bC6MjJwg6Zy8Kg+cvCaC3HwtIgw8KW7sXC3EHGwmcUxcL++8fC&#xD;&#xa;CWbIwsDoxsJFz8PCJkXFwiD7xcIQDsfC8ljIwrDLxMKkeMLClpHEwiqgyMJcjcjC6krGwl50w8Iy&#xD;&#xa;7sXCWv3HwkQ1xsKUwMPC2K/EwootxMJUqMTCH3LDwuojxcKil8fCjmXIwkLJxcID78TClTvGwhel&#xD;&#xa;xsIca8bC1rbCwk6+wsIQfsfCIlPHwpJExcLWhMbCDNvEwuryxMKklMXCeBDDwolhwcIiasLCQYfE&#xD;&#xa;whUfwsJx4MTCsEnIwkX0xcK+3sbCIqLHwrARx8IWtMTCGAnFwomNxMLfbcTCQIPDwjqww8L+MMTC&#xD;&#xa;mqjHwrBaxMI6YsTCxmvIwqyKycKQaMXCnx7FwkYvx8In6sjCGMzIwuvAxcL8a8XCiBjJwkvwyMKI&#xD;&#xa;qMbCTCTIwvQSy8IxEsvCVT/JwrI3w8LA8sLCCD7EwsxXxMJSjsXCfjXFwqTKxMI/gsPCDozDwtwF&#xD;&#xa;xMISn8bChHvJwlFQyMJYCsbCP4jIwtkBycLiFsrCbCrKwvyTysIWncnC+A3HwuI5x8I8/MbC0hHI&#xD;&#xa;wopJzMLmb83CFkvMwpy/y8Kn7MrCfJrJwuLDyMJKn8bCStTGwpb7ycIMo8nCcivFwsapxcJkx8bC&#xD;&#xa;ALLIwriaycJM3cfC8r/KwlSoy8I4A8vCpFHJwkRrzMIKr87CWD7MwsiJycKW9cfCUjbKwq+YycLi&#xD;&#xa;U8jCROHHwhdWycKaU8nCF7jMwmKaz8L//8zC8tjOwjxezsIUysvCzHLJwiJryMLRm8bCgLjKwsi8&#xD;&#xa;ysIhfszCPETLwqtbyMJGeMfCpRPJwnwZzMJSIs3CqhPMwmDiyMLZYsjCz13KwgwKy8LCi8jCyrTM&#xD;&#xa;wgwxzMK4ZcvC087JwkV2xsLyXsnCjIbLwhwvzcLfrM7CeITKwla3ysLK3cnC/PHFwpScxcIUQ8nC&#xD;&#xa;NJzIwrEsxsJvZcfCXSvIwlKLx8JII8nCvgzKwpnhysJSC8vC9iTKwiA/y8IadczCuDrMwuVaysLO&#xD;&#xa;r8vCXtfJwrZ6ycItucnCtonJwjyTysJkC83CL0nMwkjdyMIBucfCixrLwvSDysKGX8nCsCzMwuas&#xD;&#xa;0cIsnNPCuEvOwtr5y8LMBc7Cr+PTwsQc5MLcOfPCKOj0wjr59cJ0C/fCzg75wkwh+8LmVPnCqz72&#xD;&#xa;wnB+9cLuJvrCtEL4wkp7+MLOfffCDN3zwkaz9sLi8vjCFKr6wgIQ+cI8iPjCBpT4wvR1+MLQI/rC&#xD;&#xa;Ihn8wlQg+sIcLvjCVCz2wsI49MJQ9fbC23H3woy69sL4BfnCIOb2wjwy9cIuGvnCdmb3wj7K9MI+&#xD;&#xa;KPXCJpr2wn7C9cKQDvnCthv7woaP+cLGaPbCTr32wrpN+cIFSPjCDvX4wtD39sJY//TCKGf3wvZI&#xD;&#xa;+cK9YvfCgYf3wjIf+sLMMvfCpjz2wuA6+cII8vbCxDv1wmJG9sLka/rCPrT1wi589cLqjfbC9qP4&#xD;&#xa;wgzJ+MLelPbCGir2wlBC9sKeU/jC/nn3wsYn9sL4QPjCXBj5wopQ+MIaJvnCSB36wgjc+MIMfPfC&#xD;&#xa;W+z1wmYG+MKuxPnCCuD1wjh+9sLDrPfCOPj3wm7h+MJjMvfCxH/2wsXf98KwN/nCKOn5wrLR+sKg&#xD;&#xa;bPvCkFv5wsAu+cL2hffCySz2wmRX+MKiiPjCzFX4wvjB98Jgz/fCxPT4wobP+cL8avjC9r34wnKx&#xD;&#xa;+MK+LPnC3H34wle39cKejfbCNKP2wg5B9sK0H/rCSvz2woqE98JAqfjCBPL4wmKi+MIu2/jCMFD5&#xD;&#xa;wiCM+cKo//nCGqz7wlZN+sKUDfjC0ov4wrIU+sIVpffCP2/3woye98KktPbCTJj2wpH29cL3mvbC&#xD;&#xa;jL/4wti/+MLm3vjCQ9QE" leadInLength="0/1"  />
            </Keyframes>
           </Parameter>
           </Parameters>
          </GenericEffect>
          <GenericEffect id="6031" name = "WinCompression" >
           <Parameters>
           <InterpolatingParam id="6032" interp="linr"  time="0/1" value="0" leadInLength="0/1"   name="attack"/>
           <InterpolatingParam id="6033" interp="linr"  time="0/1" value="9" leadInLength="0/1"   name="gain"/>
           <Parameter id="6034"   name="preset">
            <Keyframes>
            <Keyframe id="6035"  time="0/1" value="1" leadInLength="0/1"  />
            </Keyframes>
           </Parameter>
           <InterpolatingParam id="6036" interp="linr"  time="0/1" value="10" leadInLength="0/1"   name="ratio"/>
           <InterpolatingParam id="6037" interp="linr"  time="0/1" value="3500" leadInLength="0/1"   name="release"/>
           <InterpolatingParam id="6038" interp="linr"  time="0/1" value="-20" leadInLength="0/1"   name="threshold"/>
           </Parameters>
          </GenericEffect>
          <GenericEffect id="6039" name = "Declipper" >
           <Parameters>
           <InterpolatingParam id="6040" interp="linr"  time="0/1" value="-1" leadInLength="0/1"   name="sensitivity"/>
           </Parameters>
          </GenericEffect>
          <GenericEffect id="6041" name = "Declicker" >
           <Parameters>
           <InterpolatingParam id="6042" interp="linr"  time="0/1" value="3" leadInLength="0/1"   name="sensitivity"/>
           </Parameters>
          </GenericEffect>
         </Effects>
         <Attributes>
          <Attribute id="6043" value="" name="ident"/>
          <Attribute id="6044" value="44100" name="sampleRate"/>
          <Attribute id="6045" value="16" name="bitDepth"/>
          <Attribute id="6046" value="1" name="gain"/>
          <Attribute id="6047" value="0" name="mixToMono"/>
         </Attributes>
         <MetaData>
          <entry key="WinSubProjectDisplayName" val=""/>
         </MetaData>
        </AMFile>
        <StitchedMedia id="6048" start="6147" duration="139" scalar="1/1" mediaStart="8745/1" mediaDuration="139/1" minMediaStart="0/1" >
         <Transformer>
          <VectorParam id="6049"  name="translation">
           <InterpolatingParam id="6050" interp="linr"  time="0/1" value="0" leadInLength="0/1"  />
           <InterpolatingParam id="6051" interp="linr"  time="0/1" value="0" leadInLength="0/1"  />
           <InterpolatingParam id="6052" interp="linr"  time="0/1" value="0" leadInLength="0/1"  />
          </VectorParam>
          <VectorParam id="6053"  name="rotation">
           <InterpolatingParam id="6054" interp="linr"  time="0/1" value="0" leadInLength="0/1"  />
           <InterpolatingParam id="6055" interp="linr"  time="0/1" value="0" leadInLength="0/1"  />
           <InterpolatingParam id="6056" interp="linr"  time="0/1" value="0" leadInLength="0/1"  />
          </VectorParam>
          <VectorParam id="6057"  name="shear">
           <InterpolatingParam id="6058" interp="linr"  time="0/1" value="0" leadInLength="0/1"  />
           <InterpolatingParam id="6059" interp="linr"  time="0/1" value="0" leadInLength="0/1"  />
           <InterpolatingParam id="6060" interp="linr"  time="0/1" value="0" leadInLength="0/1"  />
          </VectorParam>
          <VectorParam id="6061"  name="scale">
           <InterpolatingParam id="6062" interp="linr"  time="0/1" value="1" leadInLength="0/1"  />
           <InterpolatingParam id="6063" interp="linr"  time="0/1" value="1" leadInLength="0/1"  />
           <InterpolatingParam id="6064" interp="linr"  time="0/1" value="1" leadInLength="0/1"  />
          </VectorParam>
          <VectorParam id="6065"  name="anchor">
           <InterpolatingParam id="6066" interp="linr"  time="0/1" value="0" leadInLength="0/1"  />
           <InterpolatingParam id="6067" interp="linr"  time="0/1" value="0" leadInLength="0/1"  />
           <InterpolatingParam id="6068" interp="linr"  time="0/1" value="0" leadInLength="0/1"  />
          </VectorParam>
         </Transformer>
         <Parameters>
          <InterpolatingParam id="6069" interp="linr"  time="0/1" value="1" leadInLength="0/1"  name="cursorOpacity"/>
          <InterpolatingParam id="6070" interp="linr"  time="0/1" value="1" leadInLength="0/1"  name="cursorScale"/>
          <InterpolatingParam id="6071" interp="linr"  name="volume">
           <Keyframes>
           <Keyframe id="6072"  time="0/1" value="1" leadInLength="0/1"  />
           <Keyframe id="6073"  time="3301/1" value="1" leadInLength="0/1"  />
           <Keyframe id="6074"  time="3302/1" value="0.80000000000000004" leadInLength="0/1"  />
           <Keyframe id="6075"  time="14568/1" value="0.80000000000000004" leadInLength="0/1"  />
           <Keyframe id="6076"  time="14569/1" value="1" leadInLength="0/1"  />
           </Keyframes>
          </InterpolatingParam>
          <Parameter id="6077"  name="captions"/>
         </Parameters>
         <Effects>
          <GenericEffect id="6078" name = "NoiseReduction" >
           <Parameters>
           <InterpolatingParam id="6079" interp="linr"  time="0/1" value="20" leadInLength="0/1"   name="denoiserAmount"/>
           <InterpolatingParam id="6080" interp="linr"  time="0/1" value="0" leadInLength="0/1"   name="denoiserThreshold"/>
           <Parameter id="6081"   name="noiseProfile">
            <Keyframes>
            <Keyframe id="6082"  time="0/1" value="FBAAAAIAAABErAAAAQIAADOmYsI/y13CPNeLwsehjcK+No/Cm+aOwlHvjcIja5HCun6XwoKemMJy&#xD;&#xa;lpPCuQeRwhgMlcJGdZvCTjScwgFMncIGh5zCGrOawuO0nMJdJZ3Cybudwo6toMIdraPCs/6jwpY0&#xD;&#xa;psLIUqjCWQmpwonmp8KcE6XCgXGlwqC+psIFHabCBoyownWvqcIkX6jCgnCpwms3qsIW0KfCM7Oj&#xD;&#xa;wnGLosJgcKnCdk6swiIgscKFrbDCtNmowrZmpcIHYqjCCg2pwqUNq8KgHq7ChEGxwhVFs8KU6LLC&#xD;&#xa;dvWzwpVHscI6NrDCMpGwwubcs8Imh7bCPKq6wj7tvMKSbr3ClsG+wq4qwMLXQr7CpAK5whxiuMJp&#xD;&#xa;v7nCwu29wloQvsIXTL3CzjDAwsDTwcL69sHC8urAwtAFwMIkSMLCpJHDwjLOw8JG8sTCmMvDwq7H&#xD;&#xa;wsLOncPC+CDDwkh6wsLU5sPCP23Fwm5Qx8KlYsTCm0XCwnhexcLsTsPCSMPDwjvJw8LMWcHC2XHD&#xD;&#xa;wjj5wsICs8TChWvEwgCywcKDdcHCFnHCwurMxMLlVsTCfrDGwmzqyMKoGsfC7ITIwtqRyMJwzcbC&#xD;&#xa;ppbEwiv5xcIXxsTCzDfCwtSExMKEjcTC8ObDwiJ9yMIQm8vCIkDGwqHyxcIyYcbCyAXIwmyBx8I4&#xD;&#xa;n8PCvyPGwuiKxMJggMfCdL3JwsMhysLi6sXCRa7Ewoykx8Jk/MXC0NfEwtK0xcJQTMTCvvvGwtqJ&#xD;&#xa;xMKmFsTCSbfGwq76x8IQ+sjCsqnIwkJdycIaT8fC0nbHwlf2xsLg/cbCtIHHwsTvxsI0KsbCsqDH&#xD;&#xa;wgLix8JGKcXCyNTDwjDwwsIb98bC6MjJwg6Zy8Kg+cvCaC3HwtIgw8KW7sXC3EHGwmcUxcL++8fC&#xD;&#xa;CWbIwsDoxsJFz8PCJkXFwiD7xcIQDsfC8ljIwrDLxMKkeMLClpHEwiqgyMJcjcjC6krGwl50w8Iy&#xD;&#xa;7sXCWv3HwkQ1xsKUwMPC2K/EwootxMJUqMTCH3LDwuojxcKil8fCjmXIwkLJxcID78TClTvGwhel&#xD;&#xa;xsIca8bC1rbCwk6+wsIQfsfCIlPHwpJExcLWhMbCDNvEwuryxMKklMXCeBDDwolhwcIiasLCQYfE&#xD;&#xa;whUfwsJx4MTCsEnIwkX0xcK+3sbCIqLHwrARx8IWtMTCGAnFwomNxMLfbcTCQIPDwjqww8L+MMTC&#xD;&#xa;mqjHwrBaxMI6YsTCxmvIwqyKycKQaMXCnx7FwkYvx8In6sjCGMzIwuvAxcL8a8XCiBjJwkvwyMKI&#xD;&#xa;qMbCTCTIwvQSy8IxEsvCVT/JwrI3w8LA8sLCCD7EwsxXxMJSjsXCfjXFwqTKxMI/gsPCDozDwtwF&#xD;&#xa;xMISn8bChHvJwlFQyMJYCsbCP4jIwtkBycLiFsrCbCrKwvyTysIWncnC+A3HwuI5x8I8/MbC0hHI&#xD;&#xa;wopJzMLmb83CFkvMwpy/y8Kn7MrCfJrJwuLDyMJKn8bCStTGwpb7ycIMo8nCcivFwsapxcJkx8bC&#xD;&#xa;ALLIwriaycJM3cfC8r/KwlSoy8I4A8vCpFHJwkRrzMIKr87CWD7MwsiJycKW9cfCUjbKwq+YycLi&#xD;&#xa;U8jCROHHwhdWycKaU8nCF7jMwmKaz8L//8zC8tjOwjxezsIUysvCzHLJwiJryMLRm8bCgLjKwsi8&#xD;&#xa;ysIhfszCPETLwqtbyMJGeMfCpRPJwnwZzMJSIs3CqhPMwmDiyMLZYsjCz13KwgwKy8LCi8jCyrTM&#xD;&#xa;wgwxzMK4ZcvC087JwkV2xsLyXsnCjIbLwhwvzcLfrM7CeITKwla3ysLK3cnC/PHFwpScxcIUQ8nC&#xD;&#xa;NJzIwrEsxsJvZcfCXSvIwlKLx8JII8nCvgzKwpnhysJSC8vC9iTKwiA/y8IadczCuDrMwuVaysLO&#xD;&#xa;r8vCXtfJwrZ6ycItucnCtonJwjyTysJkC83CL0nMwkjdyMIBucfCixrLwvSDysKGX8nCsCzMwuas&#xD;&#xa;0cIsnNPCuEvOwtr5y8LMBc7Cr+PTwsQc5MLcOfPCKOj0wjr59cJ0C/fCzg75wkwh+8LmVPnCqz72&#xD;&#xa;wnB+9cLuJvrCtEL4wkp7+MLOfffCDN3zwkaz9sLi8vjCFKr6wgIQ+cI8iPjCBpT4wvR1+MLQI/rC&#xD;&#xa;Ihn8wlQg+sIcLvjCVCz2wsI49MJQ9fbC23H3woy69sL4BfnCIOb2wjwy9cIuGvnCdmb3wj7K9MI+&#xD;&#xa;KPXCJpr2wn7C9cKQDvnCthv7woaP+cLGaPbCTr32wrpN+cIFSPjCDvX4wtD39sJY//TCKGf3wvZI&#xD;&#xa;+cK9YvfCgYf3wjIf+sLMMvfCpjz2wuA6+cII8vbCxDv1wmJG9sLka/rCPrT1wi589cLqjfbC9qP4&#xD;&#xa;wgzJ+MLelPbCGir2wlBC9sKeU/jC/nn3wsYn9sL4QPjCXBj5wopQ+MIaJvnCSB36wgjc+MIMfPfC&#xD;&#xa;W+z1wmYG+MKuxPnCCuD1wjh+9sLDrPfCOPj3wm7h+MJjMvfCxH/2wsXf98KwN/nCKOn5wrLR+sKg&#xD;&#xa;bPvCkFv5wsAu+cL2hffCySz2wmRX+MKiiPjCzFX4wvjB98Jgz/fCxPT4wobP+cL8avjC9r34wnKx&#xD;&#xa;+MK+LPnC3H34wle39cKejfbCNKP2wg5B9sK0H/rCSvz2woqE98JAqfjCBPL4wmKi+MIu2/jCMFD5&#xD;&#xa;wiCM+cKo//nCGqz7wlZN+sKUDfjC0ov4wrIU+sIVpffCP2/3woye98KktPbCTJj2wpH29cL3mvbC&#xD;&#xa;jL/4wti/+MLm3vjCQ9QEwzOmYsI/y13CPNeLwsehjcK+No/Cm+aOwlHvjcIja5HCun6XwoKemMJy&#xD;&#xa;lpPCuQeRwhgMlcJGdZvCTjScwgFMncIGh5zCGrOawuO0nMJdJZ3Cybudwo6toMIdraPCs/6jwpY0&#xD;&#xa;psLIUqjCWQmpwonmp8KcE6XCgXGlwqC+psIFHabCBoyownWvqcIkX6jCgnCpwms3qsIW0KfCM7Oj&#xD;&#xa;wnGLosJgcKnCdk6swiIgscKFrbDCtNmowrZmpcIHYqjCCg2pwqUNq8KgHq7ChEGxwhVFs8KU6LLC&#xD;&#xa;dvWzwpVHscI6NrDCMpGwwubcs8Imh7bCPKq6wj7tvMKSbr3ClsG+wq4qwMLXQr7CpAK5whxiuMJp&#xD;&#xa;v7nCwu29wloQvsIXTL3CzjDAwsDTwcL69sHC8urAwtAFwMIkSMLCpJHDwjLOw8JG8sTCmMvDwq7H&#xD;&#xa;wsLOncPC+CDDwkh6wsLU5sPCP23Fwm5Qx8KlYsTCm0XCwnhexcLsTsPCSMPDwjvJw8LMWcHC2XHD&#xD;&#xa;wjj5wsICs8TChWvEwgCywcKDdcHCFnHCwurMxMLlVsTCfrDGwmzqyMKoGsfC7ITIwtqRyMJwzcbC&#xD;&#xa;ppbEwiv5xcIXxsTCzDfCwtSExMKEjcTC8ObDwiJ9yMIQm8vCIkDGwqHyxcIyYcbCyAXIwmyBx8I4&#xD;&#xa;n8PCvyPGwuiKxMJggMfCdL3JwsMhysLi6sXCRa7Ewoykx8Jk/MXC0NfEwtK0xcJQTMTCvvvGwtqJ&#xD;&#xa;xMKmFsTCSbfGwq76x8IQ+sjCsqnIwkJdycIaT8fC0nbHwlf2xsLg/cbCtIHHwsTvxsI0KsbCsqDH&#xD;&#xa;wgLix8JGKcXCyNTDwjDwwsIb98bC6MjJwg6Zy8Kg+cvCaC3HwtIgw8KW7sXC3EHGwmcUxcL++8fC&#xD;&#xa;CWbIwsDoxsJFz8PCJkXFwiD7xcIQDsfC8ljIwrDLxMKkeMLClpHEwiqgyMJcjcjC6krGwl50w8Iy&#xD;&#xa;7sXCWv3HwkQ1xsKUwMPC2K/EwootxMJUqMTCH3LDwuojxcKil8fCjmXIwkLJxcID78TClTvGwhel&#xD;&#xa;xsIca8bC1rbCwk6+wsIQfsfCIlPHwpJExcLWhMbCDNvEwuryxMKklMXCeBDDwolhwcIiasLCQYfE&#xD;&#xa;whUfwsJx4MTCsEnIwkX0xcK+3sbCIqLHwrARx8IWtMTCGAnFwomNxMLfbcTCQIPDwjqww8L+MMTC&#xD;&#xa;mqjHwrBaxMI6YsTCxmvIwqyKycKQaMXCnx7FwkYvx8In6sjCGMzIwuvAxcL8a8XCiBjJwkvwyMKI&#xD;&#xa;qMbCTCTIwvQSy8IxEsvCVT/JwrI3w8LA8sLCCD7EwsxXxMJSjsXCfjXFwqTKxMI/gsPCDozDwtwF&#xD;&#xa;xMISn8bChHvJwlFQyMJYCsbCP4jIwtkBycLiFsrCbCrKwvyTysIWncnC+A3HwuI5x8I8/MbC0hHI&#xD;&#xa;wopJzMLmb83CFkvMwpy/y8Kn7MrCfJrJwuLDyMJKn8bCStTGwpb7ycIMo8nCcivFwsapxcJkx8bC&#xD;&#xa;ALLIwriaycJM3cfC8r/KwlSoy8I4A8vCpFHJwkRrzMIKr87CWD7MwsiJycKW9cfCUjbKwq+YycLi&#xD;&#xa;U8jCROHHwhdWycKaU8nCF7jMwmKaz8L//8zC8tjOwjxezsIUysvCzHLJwiJryMLRm8bCgLjKwsi8&#xD;&#xa;ysIhfszCPETLwqtbyMJGeMfCpRPJwnwZzMJSIs3CqhPMwmDiyMLZYsjCz13KwgwKy8LCi8jCyrTM&#xD;&#xa;wgwxzMK4ZcvC087JwkV2xsLyXsnCjIbLwhwvzcLfrM7CeITKwla3ysLK3cnC/PHFwpScxcIUQ8nC&#xD;&#xa;NJzIwrEsxsJvZcfCXSvIwlKLx8JII8nCvgzKwpnhysJSC8vC9iTKwiA/y8IadczCuDrMwuVaysLO&#xD;&#xa;r8vCXtfJwrZ6ycItucnCtonJwjyTysJkC83CL0nMwkjdyMIBucfCixrLwvSDysKGX8nCsCzMwuas&#xD;&#xa;0cIsnNPCuEvOwtr5y8LMBc7Cr+PTwsQc5MLcOfPCKOj0wjr59cJ0C/fCzg75wkwh+8LmVPnCqz72&#xD;&#xa;wnB+9cLuJvrCtEL4wkp7+MLOfffCDN3zwkaz9sLi8vjCFKr6wgIQ+cI8iPjCBpT4wvR1+MLQI/rC&#xD;&#xa;Ihn8wlQg+sIcLvjCVCz2wsI49MJQ9fbC23H3woy69sL4BfnCIOb2wjwy9cIuGvnCdmb3wj7K9MI+&#xD;&#xa;KPXCJpr2wn7C9cKQDvnCthv7woaP+cLGaPbCTr32wrpN+cIFSPjCDvX4wtD39sJY//TCKGf3wvZI&#xD;&#xa;+cK9YvfCgYf3wjIf+sLMMvfCpjz2wuA6+cII8vbCxDv1wmJG9sLka/rCPrT1wi589cLqjfbC9qP4&#xD;&#xa;wgzJ+MLelPbCGir2wlBC9sKeU/jC/nn3wsYn9sL4QPjCXBj5wopQ+MIaJvnCSB36wgjc+MIMfPfC&#xD;&#xa;W+z1wmYG+MKuxPnCCuD1wjh+9sLDrPfCOPj3wm7h+MJjMvfCxH/2wsXf98KwN/nCKOn5wrLR+sKg&#xD;&#xa;bPvCkFv5wsAu+cL2hffCySz2wmRX+MKiiPjCzFX4wvjB98Jgz/fCxPT4wobP+cL8avjC9r34wnKx&#xD;&#xa;+MK+LPnC3H34wle39cKejfbCNKP2wg5B9sK0H/rCSvz2woqE98JAqfjCBPL4wmKi+MIu2/jCMFD5&#xD;&#xa;wiCM+cKo//nCGqz7wlZN+sKUDfjC0ov4wrIU+sIVpffCP2/3woye98KktPbCTJj2wpH29cL3mvbC&#xD;&#xa;jL/4wti/+MLm3vjCQ9QE" leadInLength="0/1"  />
            </Keyframes>
           </Parameter>
           </Parameters>
          </GenericEffect>
          <GenericEffect id="6083" name = "WinCompression" >
           <Parameters>
           <InterpolatingParam id="6084" interp="linr"  time="0/1" value="0" leadInLength="0/1"   name="attack"/>
           <InterpolatingParam id="6085" interp="linr"  time="0/1" value="9" leadInLength="0/1"   name="gain"/>
           <Parameter id="6086"   name="preset">
            <Keyframes>
            <Keyframe id="6087"  time="0/1" value="1" leadInLength="0/1"  />
            </Keyframes>
           </Parameter>
           <InterpolatingParam id="6088" interp="linr"  time="0/1" value="10" leadInLength="0/1"   name="ratio"/>
           <InterpolatingParam id="6089" interp="linr"  time="0/1" value="3500" leadInLength="0/1"   name="release"/>
           <InterpolatingParam id="6090" interp="linr"  time="0/1" value="-20" leadInLength="0/1"   name="threshold"/>
           </Parameters>
          </GenericEffect>
          <GenericEffect id="6091" name = "Declipper" >
           <Parameters>
           <InterpolatingParam id="6092" interp="linr"  time="0/1" value="-1" leadInLength="0/1"   name="sensitivity"/>
           </Parameters>
          </GenericEffect>
          <GenericEffect id="6093" name = "Declicker" >
           <Parameters>
           <InterpolatingParam id="6094" interp="linr"  time="0/1" value="3" leadInLength="0/1"   name="sensitivity"/>
           </Parameters>
          </GenericEffect>
         </Effects>
         <Attributes>
          <Attribute id="6095" value="" name="ident"/>
          <Attribute id="6096" value="0" name="mixToMono"/>
         </Attributes>
         <MetaData>
          <entry key="WinSubProjectDisplayName" val=""/>
         </MetaData>
         <ExtraData>
          <Entry key="ZoomPanBin">
           <ZoomPanBin id="6097"  >
            <ZoomPanKeyframes>
            </ZoomPanKeyframes>
           </ZoomPanBin>
          </Entry>
          <Entry key="CursorEffectBin">
           <CursorEffectBin id="6098"  >
            <CursorEffectKeyframes>
            </CursorEffectKeyframes>
           </CursorEffectBin>
          </Entry>
         </ExtraData>
         <GenericTrack id="6099"  >
          <Attributes>
           <Attribute id="6100" value="" name="ident"/>
           <Attribute id="6101" value="0" name="audioMuted"/>
           <Attribute id="6102" value="0" name="videoHidden"/>
          </Attributes>
          <MetaData>
           <entry key="IsLocked" val="False"/>
           <entry key="WinTrackHeight" val="0"/>
          </MetaData>
          <Medias>
           <AMFile id="6103" start="0" duration="8837" scalar="1/1" mediaStart="0/1" mediaDuration="8837/1" trackNumber="0" src="22" channelNumber="0" >
            <Parameters>
             <InterpolatingParam id="6104" interp="linr"  time="0/1" value="1" leadInLength="0/1"  name="volume"/>
             <Parameter id="6105"  name="captions"/>
            </Parameters>
            <Attributes>
             <Attribute id="6106" value="" name="ident"/>
             <Attribute id="6107" value="44100" name="sampleRate"/>
             <Attribute id="6108" value="16" name="bitDepth"/>
             <Attribute id="6109" value="1" name="gain"/>
             <Attribute id="6110" value="0" name="mixToMono"/>
            </Attributes>
            <MetaData>
             <entry key="WinSubProjectDisplayName" val=""/>
            </MetaData>
           </AMFile>
           <AMFile id="6111" start="8837" duration="5731" scalar="1/1" mediaStart="8837/1" mediaDuration="5731/1" trackNumber="0" src="22" channelNumber="0" >
            <Parameters>
             <InterpolatingParam id="6112" interp="linr"  time="0/1" value="1" leadInLength="0/1"  name="volume"/>
             <Parameter id="6113"  name="captions"/>
            </Parameters>
            <Attributes>
             <Attribute id="6114" value="" name="ident"/>
             <Attribute id="6115" value="44100" name="sampleRate"/>
             <Attribute id="6116" value="16" name="bitDepth"/>
             <Attribute id="6117" value="1" name="gain"/>
             <Attribute id="6118" value="0" name="mixToMono"/>
            </Attributes>
            <MetaData>
             <entry key="WinSubProjectDisplayName" val=""/>
            </MetaData>
           </AMFile>
          </Medias>
         </GenericTrack>
        </StitchedMedia>
        <AMFile id="6119" start="6307" duration="130" scalar="1/1" mediaStart="8884/1" mediaDuration="130/1" trackNumber="0" src="22" channelNumber="0" >
         <Parameters>
          <InterpolatingParam id="6120" interp="linr"  name="volume">
           <Keyframes>
           <Keyframe id="6121"  time="0/1" value="1" leadInLength="0/1"  />
           <Keyframe id="6122"  time="3301/1" value="1" leadInLength="0/1"  />
           <Keyframe id="6123"  time="3302/1" value="0.80000000000000004" leadInLength="0/1"  />
           <Keyframe id="6124"  time="14568/1" value="0.80000000000000004" leadInLength="0/1"  />
           <Keyframe id="6125"  time="14569/1" value="1" leadInLength="0/1"  />
           </Keyframes>
          </InterpolatingParam>
          <Parameter id="6126"  name="captions"/>
         </Parameters>
         <Effects>
          <GenericEffect id="6127" name = "NoiseReduction" >
           <Parameters>
           <InterpolatingParam id="6128" interp="linr"  time="0/1" value="20" leadInLength="0/1"   name="denoiserAmount"/>
           <InterpolatingParam id="6129" interp="linr"  time="0/1" value="0" leadInLength="0/1"   name="denoiserThreshold"/>
           <Parameter id="6130"   name="noiseProfile">
            <Keyframes>
            <Keyframe id="6131"  time="0/1" value="FBAAAAIAAABErAAAAQIAADOmYsI/y13CPNeLwsehjcK+No/Cm+aOwlHvjcIja5HCun6XwoKemMJy&#xD;&#xa;lpPCuQeRwhgMlcJGdZvCTjScwgFMncIGh5zCGrOawuO0nMJdJZ3Cybudwo6toMIdraPCs/6jwpY0&#xD;&#xa;psLIUqjCWQmpwonmp8KcE6XCgXGlwqC+psIFHabCBoyownWvqcIkX6jCgnCpwms3qsIW0KfCM7Oj&#xD;&#xa;wnGLosJgcKnCdk6swiIgscKFrbDCtNmowrZmpcIHYqjCCg2pwqUNq8KgHq7ChEGxwhVFs8KU6LLC&#xD;&#xa;dvWzwpVHscI6NrDCMpGwwubcs8Imh7bCPKq6wj7tvMKSbr3ClsG+wq4qwMLXQr7CpAK5whxiuMJp&#xD;&#xa;v7nCwu29wloQvsIXTL3CzjDAwsDTwcL69sHC8urAwtAFwMIkSMLCpJHDwjLOw8JG8sTCmMvDwq7H&#xD;&#xa;wsLOncPC+CDDwkh6wsLU5sPCP23Fwm5Qx8KlYsTCm0XCwnhexcLsTsPCSMPDwjvJw8LMWcHC2XHD&#xD;&#xa;wjj5wsICs8TChWvEwgCywcKDdcHCFnHCwurMxMLlVsTCfrDGwmzqyMKoGsfC7ITIwtqRyMJwzcbC&#xD;&#xa;ppbEwiv5xcIXxsTCzDfCwtSExMKEjcTC8ObDwiJ9yMIQm8vCIkDGwqHyxcIyYcbCyAXIwmyBx8I4&#xD;&#xa;n8PCvyPGwuiKxMJggMfCdL3JwsMhysLi6sXCRa7Ewoykx8Jk/MXC0NfEwtK0xcJQTMTCvvvGwtqJ&#xD;&#xa;xMKmFsTCSbfGwq76x8IQ+sjCsqnIwkJdycIaT8fC0nbHwlf2xsLg/cbCtIHHwsTvxsI0KsbCsqDH&#xD;&#xa;wgLix8JGKcXCyNTDwjDwwsIb98bC6MjJwg6Zy8Kg+cvCaC3HwtIgw8KW7sXC3EHGwmcUxcL++8fC&#xD;&#xa;CWbIwsDoxsJFz8PCJkXFwiD7xcIQDsfC8ljIwrDLxMKkeMLClpHEwiqgyMJcjcjC6krGwl50w8Iy&#xD;&#xa;7sXCWv3HwkQ1xsKUwMPC2K/EwootxMJUqMTCH3LDwuojxcKil8fCjmXIwkLJxcID78TClTvGwhel&#xD;&#xa;xsIca8bC1rbCwk6+wsIQfsfCIlPHwpJExcLWhMbCDNvEwuryxMKklMXCeBDDwolhwcIiasLCQYfE&#xD;&#xa;whUfwsJx4MTCsEnIwkX0xcK+3sbCIqLHwrARx8IWtMTCGAnFwomNxMLfbcTCQIPDwjqww8L+MMTC&#xD;&#xa;mqjHwrBaxMI6YsTCxmvIwqyKycKQaMXCnx7FwkYvx8In6sjCGMzIwuvAxcL8a8XCiBjJwkvwyMKI&#xD;&#xa;qMbCTCTIwvQSy8IxEsvCVT/JwrI3w8LA8sLCCD7EwsxXxMJSjsXCfjXFwqTKxMI/gsPCDozDwtwF&#xD;&#xa;xMISn8bChHvJwlFQyMJYCsbCP4jIwtkBycLiFsrCbCrKwvyTysIWncnC+A3HwuI5x8I8/MbC0hHI&#xD;&#xa;wopJzMLmb83CFkvMwpy/y8Kn7MrCfJrJwuLDyMJKn8bCStTGwpb7ycIMo8nCcivFwsapxcJkx8bC&#xD;&#xa;ALLIwriaycJM3cfC8r/KwlSoy8I4A8vCpFHJwkRrzMIKr87CWD7MwsiJycKW9cfCUjbKwq+YycLi&#xD;&#xa;U8jCROHHwhdWycKaU8nCF7jMwmKaz8L//8zC8tjOwjxezsIUysvCzHLJwiJryMLRm8bCgLjKwsi8&#xD;&#xa;ysIhfszCPETLwqtbyMJGeMfCpRPJwnwZzMJSIs3CqhPMwmDiyMLZYsjCz13KwgwKy8LCi8jCyrTM&#xD;&#xa;wgwxzMK4ZcvC087JwkV2xsLyXsnCjIbLwhwvzcLfrM7CeITKwla3ysLK3cnC/PHFwpScxcIUQ8nC&#xD;&#xa;NJzIwrEsxsJvZcfCXSvIwlKLx8JII8nCvgzKwpnhysJSC8vC9iTKwiA/y8IadczCuDrMwuVaysLO&#xD;&#xa;r8vCXtfJwrZ6ycItucnCtonJwjyTysJkC83CL0nMwkjdyMIBucfCixrLwvSDysKGX8nCsCzMwuas&#xD;&#xa;0cIsnNPCuEvOwtr5y8LMBc7Cr+PTwsQc5MLcOfPCKOj0wjr59cJ0C/fCzg75wkwh+8LmVPnCqz72&#xD;&#xa;wnB+9cLuJvrCtEL4wkp7+MLOfffCDN3zwkaz9sLi8vjCFKr6wgIQ+cI8iPjCBpT4wvR1+MLQI/rC&#xD;&#xa;Ihn8wlQg+sIcLvjCVCz2wsI49MJQ9fbC23H3woy69sL4BfnCIOb2wjwy9cIuGvnCdmb3wj7K9MI+&#xD;&#xa;KPXCJpr2wn7C9cKQDvnCthv7woaP+cLGaPbCTr32wrpN+cIFSPjCDvX4wtD39sJY//TCKGf3wvZI&#xD;&#xa;+cK9YvfCgYf3wjIf+sLMMvfCpjz2wuA6+cII8vbCxDv1wmJG9sLka/rCPrT1wi589cLqjfbC9qP4&#xD;&#xa;wgzJ+MLelPbCGir2wlBC9sKeU/jC/nn3wsYn9sL4QPjCXBj5wopQ+MIaJvnCSB36wgjc+MIMfPfC&#xD;&#xa;W+z1wmYG+MKuxPnCCuD1wjh+9sLDrPfCOPj3wm7h+MJjMvfCxH/2wsXf98KwN/nCKOn5wrLR+sKg&#xD;&#xa;bPvCkFv5wsAu+cL2hffCySz2wmRX+MKiiPjCzFX4wvjB98Jgz/fCxPT4wobP+cL8avjC9r34wnKx&#xD;&#xa;+MK+LPnC3H34wle39cKejfbCNKP2wg5B9sK0H/rCSvz2woqE98JAqfjCBPL4wmKi+MIu2/jCMFD5&#xD;&#xa;wiCM+cKo//nCGqz7wlZN+sKUDfjC0ov4wrIU+sIVpffCP2/3woye98KktPbCTJj2wpH29cL3mvbC&#xD;&#xa;jL/4wti/+MLm3vjCQ9QEwzOmYsI/y13CPNeLwsehjcK+No/Cm+aOwlHvjcIja5HCun6XwoKemMJy&#xD;&#xa;lpPCuQeRwhgMlcJGdZvCTjScwgFMncIGh5zCGrOawuO0nMJdJZ3Cybudwo6toMIdraPCs/6jwpY0&#xD;&#xa;psLIUqjCWQmpwonmp8KcE6XCgXGlwqC+psIFHabCBoyownWvqcIkX6jCgnCpwms3qsIW0KfCM7Oj&#xD;&#xa;wnGLosJgcKnCdk6swiIgscKFrbDCtNmowrZmpcIHYqjCCg2pwqUNq8KgHq7ChEGxwhVFs8KU6LLC&#xD;&#xa;dvWzwpVHscI6NrDCMpGwwubcs8Imh7bCPKq6wj7tvMKSbr3ClsG+wq4qwMLXQr7CpAK5whxiuMJp&#xD;&#xa;v7nCwu29wloQvsIXTL3CzjDAwsDTwcL69sHC8urAwtAFwMIkSMLCpJHDwjLOw8JG8sTCmMvDwq7H&#xD;&#xa;wsLOncPC+CDDwkh6wsLU5sPCP23Fwm5Qx8KlYsTCm0XCwnhexcLsTsPCSMPDwjvJw8LMWcHC2XHD&#xD;&#xa;wjj5wsICs8TChWvEwgCywcKDdcHCFnHCwurMxMLlVsTCfrDGwmzqyMKoGsfC7ITIwtqRyMJwzcbC&#xD;&#xa;ppbEwiv5xcIXxsTCzDfCwtSExMKEjcTC8ObDwiJ9yMIQm8vCIkDGwqHyxcIyYcbCyAXIwmyBx8I4&#xD;&#xa;n8PCvyPGwuiKxMJggMfCdL3JwsMhysLi6sXCRa7Ewoykx8Jk/MXC0NfEwtK0xcJQTMTCvvvGwtqJ&#xD;&#xa;xMKmFsTCSbfGwq76x8IQ+sjCsqnIwkJdycIaT8fC0nbHwlf2xsLg/cbCtIHHwsTvxsI0KsbCsqDH&#xD;&#xa;wgLix8JGKcXCyNTDwjDwwsIb98bC6MjJwg6Zy8Kg+cvCaC3HwtIgw8KW7sXC3EHGwmcUxcL++8fC&#xD;&#xa;CWbIwsDoxsJFz8PCJkXFwiD7xcIQDsfC8ljIwrDLxMKkeMLClpHEwiqgyMJcjcjC6krGwl50w8Iy&#xD;&#xa;7sXCWv3HwkQ1xsKUwMPC2K/EwootxMJUqMTCH3LDwuojxcKil8fCjmXIwkLJxcID78TClTvGwhel&#xD;&#xa;xsIca8bC1rbCwk6+wsIQfsfCIlPHwpJExcLWhMbCDNvEwuryxMKklMXCeBDDwolhwcIiasLCQYfE&#xD;&#xa;whUfwsJx4MTCsEnIwkX0xcK+3sbCIqLHwrARx8IWtMTCGAnFwomNxMLfbcTCQIPDwjqww8L+MMTC&#xD;&#xa;mqjHwrBaxMI6YsTCxmvIwqyKycKQaMXCnx7FwkYvx8In6sjCGMzIwuvAxcL8a8XCiBjJwkvwyMKI&#xD;&#xa;qMbCTCTIwvQSy8IxEsvCVT/JwrI3w8LA8sLCCD7EwsxXxMJSjsXCfjXFwqTKxMI/gsPCDozDwtwF&#xD;&#xa;xMISn8bChHvJwlFQyMJYCsbCP4jIwtkBycLiFsrCbCrKwvyTysIWncnC+A3HwuI5x8I8/MbC0hHI&#xD;&#xa;wopJzMLmb83CFkvMwpy/y8Kn7MrCfJrJwuLDyMJKn8bCStTGwpb7ycIMo8nCcivFwsapxcJkx8bC&#xD;&#xa;ALLIwriaycJM3cfC8r/KwlSoy8I4A8vCpFHJwkRrzMIKr87CWD7MwsiJycKW9cfCUjbKwq+YycLi&#xD;&#xa;U8jCROHHwhdWycKaU8nCF7jMwmKaz8L//8zC8tjOwjxezsIUysvCzHLJwiJryMLRm8bCgLjKwsi8&#xD;&#xa;ysIhfszCPETLwqtbyMJGeMfCpRPJwnwZzMJSIs3CqhPMwmDiyMLZYsjCz13KwgwKy8LCi8jCyrTM&#xD;&#xa;wgwxzMK4ZcvC087JwkV2xsLyXsnCjIbLwhwvzcLfrM7CeITKwla3ysLK3cnC/PHFwpScxcIUQ8nC&#xD;&#xa;NJzIwrEsxsJvZcfCXSvIwlKLx8JII8nCvgzKwpnhysJSC8vC9iTKwiA/y8IadczCuDrMwuVaysLO&#xD;&#xa;r8vCXtfJwrZ6ycItucnCtonJwjyTysJkC83CL0nMwkjdyMIBucfCixrLwvSDysKGX8nCsCzMwuas&#xD;&#xa;0cIsnNPCuEvOwtr5y8LMBc7Cr+PTwsQc5MLcOfPCKOj0wjr59cJ0C/fCzg75wkwh+8LmVPnCqz72&#xD;&#xa;wnB+9cLuJvrCtEL4wkp7+MLOfffCDN3zwkaz9sLi8vjCFKr6wgIQ+cI8iPjCBpT4wvR1+MLQI/rC&#xD;&#xa;Ihn8wlQg+sIcLvjCVCz2wsI49MJQ9fbC23H3woy69sL4BfnCIOb2wjwy9cIuGvnCdmb3wj7K9MI+&#xD;&#xa;KPXCJpr2wn7C9cKQDvnCthv7woaP+cLGaPbCTr32wrpN+cIFSPjCDvX4wtD39sJY//TCKGf3wvZI&#xD;&#xa;+cK9YvfCgYf3wjIf+sLMMvfCpjz2wuA6+cII8vbCxDv1wmJG9sLka/rCPrT1wi589cLqjfbC9qP4&#xD;&#xa;wgzJ+MLelPbCGir2wlBC9sKeU/jC/nn3wsYn9sL4QPjCXBj5wopQ+MIaJvnCSB36wgjc+MIMfPfC&#xD;&#xa;W+z1wmYG+MKuxPnCCuD1wjh+9sLDrPfCOPj3wm7h+MJjMvfCxH/2wsXf98KwN/nCKOn5wrLR+sKg&#xD;&#xa;bPvCkFv5wsAu+cL2hffCySz2wmRX+MKiiPjCzFX4wvjB98Jgz/fCxPT4wobP+cL8avjC9r34wnKx&#xD;&#xa;+MK+LPnC3H34wle39cKejfbCNKP2wg5B9sK0H/rCSvz2woqE98JAqfjCBPL4wmKi+MIu2/jCMFD5&#xD;&#xa;wiCM+cKo//nCGqz7wlZN+sKUDfjC0ov4wrIU+sIVpffCP2/3woye98KktPbCTJj2wpH29cL3mvbC&#xD;&#xa;jL/4wti/+MLm3vjCQ9QE" leadInLength="0/1"  />
            </Keyframes>
           </Parameter>
           </Parameters>
          </GenericEffect>
          <GenericEffect id="6132" name = "WinCompression" >
           <Parameters>
           <InterpolatingParam id="6133" interp="linr"  time="0/1" value="0" leadInLength="0/1"   name="attack"/>
           <InterpolatingParam id="6134" interp="linr"  time="0/1" value="9" leadInLength="0/1"   name="gain"/>
           <Parameter id="6135"   name="preset">
            <Keyframes>
            <Keyframe id="6136"  time="0/1" value="1" leadInLength="0/1"  />
            </Keyframes>
           </Parameter>
           <InterpolatingParam id="6137" interp="linr"  time="0/1" value="10" leadInLength="0/1"   name="ratio"/>
           <InterpolatingParam id="6138" interp="linr"  time="0/1" value="3500" leadInLength="0/1"   name="release"/>
           <InterpolatingParam id="6139" interp="linr"  time="0/1" value="-20" leadInLength="0/1"   name="threshold"/>
           </Parameters>
          </GenericEffect>
          <GenericEffect id="6140" name = "Declipper" >
           <Parameters>
           <InterpolatingParam id="6141" interp="linr"  time="0/1" value="-1" leadInLength="0/1"   name="sensitivity"/>
           </Parameters>
          </GenericEffect>
          <GenericEffect id="6142" name = "Declicker" >
           <Parameters>
           <InterpolatingParam id="6143" interp="linr"  time="0/1" value="3" leadInLength="0/1"   name="sensitivity"/>
           </Parameters>
          </GenericEffect>
         </Effects>
         <Attributes>
          <Attribute id="6144" value="" name="ident"/>
          <Attribute id="6145" value="44100" name="sampleRate"/>
          <Attribute id="6146" value="16" name="bitDepth"/>
          <Attribute id="6147" value="1" name="gain"/>
          <Attribute id="6148" value="0" name="mixToMono"/>
         </Attributes>
         <MetaData>
          <entry key="WinSubProjectDisplayName" val=""/>
         </MetaData>
        </AMFile>
        <StitchedMedia id="6149" start="6459" duration="995" scalar="1/1" mediaStart="9691/1" mediaDuration="995/1" minMediaStart="0/1" >
         <Transformer>
          <VectorParam id="6150"  name="translation">
           <InterpolatingParam id="6151" interp="linr"  time="0/1" value="0" leadInLength="0/1"  />
           <InterpolatingParam id="6152" interp="linr"  time="0/1" value="0" leadInLength="0/1"  />
           <InterpolatingParam id="6153" interp="linr"  time="0/1" value="0" leadInLength="0/1"  />
          </VectorParam>
          <VectorParam id="6154"  name="rotation">
           <InterpolatingParam id="6155" interp="linr"  time="0/1" value="0" leadInLength="0/1"  />
           <InterpolatingParam id="6156" interp="linr"  time="0/1" value="0" leadInLength="0/1"  />
           <InterpolatingParam id="6157" interp="linr"  time="0/1" value="0" leadInLength="0/1"  />
          </VectorParam>
          <VectorParam id="6158"  name="shear">
           <InterpolatingParam id="6159" interp="linr"  time="0/1" value="0" leadInLength="0/1"  />
           <InterpolatingParam id="6160" interp="linr"  time="0/1" value="0" leadInLength="0/1"  />
           <InterpolatingParam id="6161" interp="linr"  time="0/1" value="0" leadInLength="0/1"  />
          </VectorParam>
          <VectorParam id="6162"  name="scale">
           <InterpolatingParam id="6163" interp="linr"  time="0/1" value="1" leadInLength="0/1"  />
           <InterpolatingParam id="6164" interp="linr"  time="0/1" value="1" leadInLength="0/1"  />
           <InterpolatingParam id="6165" interp="linr"  time="0/1" value="1" leadInLength="0/1"  />
          </VectorParam>
          <VectorParam id="6166"  name="anchor">
           <InterpolatingParam id="6167" interp="linr"  time="0/1" value="0" leadInLength="0/1"  />
           <InterpolatingParam id="6168" interp="linr"  time="0/1" value="0" leadInLength="0/1"  />
           <InterpolatingParam id="6169" interp="linr"  time="0/1" value="0" leadInLength="0/1"  />
          </VectorParam>
         </Transformer>
         <Parameters>
          <InterpolatingParam id="6170" interp="linr"  time="0/1" value="1" leadInLength="0/1"  name="cursorOpacity"/>
          <InterpolatingParam id="6171" interp="linr"  time="0/1" value="1" leadInLength="0/1"  name="cursorScale"/>
          <InterpolatingParam id="6172" interp="linr"  name="volume">
           <Keyframes>
           <Keyframe id="6173"  time="0/1" value="1" leadInLength="0/1"  />
           <Keyframe id="6174"  time="3301/1" value="1" leadInLength="0/1"  />
           <Keyframe id="6175"  time="3302/1" value="0.80000000000000004" leadInLength="0/1"  />
           <Keyframe id="6176"  time="14222/1" value="0.80000000000000004" leadInLength="0/1"  />
           <Keyframe id="6177"  time="14223/1" value="1" leadInLength="0/1"  />
           </Keyframes>
          </InterpolatingParam>
          <Parameter id="6178"  name="captions"/>
         </Parameters>
         <Effects>
          <GenericEffect id="6179" name = "NoiseReduction" >
           <Parameters>
           <InterpolatingParam id="6180" interp="linr"  time="0/1" value="20" leadInLength="0/1"   name="denoiserAmount"/>
           <InterpolatingParam id="6181" interp="linr"  time="0/1" value="0" leadInLength="0/1"   name="denoiserThreshold"/>
           <Parameter id="6182"   name="noiseProfile">
            <Keyframes>
            <Keyframe id="6183"  time="0/1" value="FBAAAAIAAABErAAAAQIAADOmYsI/y13CPNeLwsehjcK+No/Cm+aOwlHvjcIja5HCun6XwoKemMJy&#xD;&#xa;lpPCuQeRwhgMlcJGdZvCTjScwgFMncIGh5zCGrOawuO0nMJdJZ3Cybudwo6toMIdraPCs/6jwpY0&#xD;&#xa;psLIUqjCWQmpwonmp8KcE6XCgXGlwqC+psIFHabCBoyownWvqcIkX6jCgnCpwms3qsIW0KfCM7Oj&#xD;&#xa;wnGLosJgcKnCdk6swiIgscKFrbDCtNmowrZmpcIHYqjCCg2pwqUNq8KgHq7ChEGxwhVFs8KU6LLC&#xD;&#xa;dvWzwpVHscI6NrDCMpGwwubcs8Imh7bCPKq6wj7tvMKSbr3ClsG+wq4qwMLXQr7CpAK5whxiuMJp&#xD;&#xa;v7nCwu29wloQvsIXTL3CzjDAwsDTwcL69sHC8urAwtAFwMIkSMLCpJHDwjLOw8JG8sTCmMvDwq7H&#xD;&#xa;wsLOncPC+CDDwkh6wsLU5sPCP23Fwm5Qx8KlYsTCm0XCwnhexcLsTsPCSMPDwjvJw8LMWcHC2XHD&#xD;&#xa;wjj5wsICs8TChWvEwgCywcKDdcHCFnHCwurMxMLlVsTCfrDGwmzqyMKoGsfC7ITIwtqRyMJwzcbC&#xD;&#xa;ppbEwiv5xcIXxsTCzDfCwtSExMKEjcTC8ObDwiJ9yMIQm8vCIkDGwqHyxcIyYcbCyAXIwmyBx8I4&#xD;&#xa;n8PCvyPGwuiKxMJggMfCdL3JwsMhysLi6sXCRa7Ewoykx8Jk/MXC0NfEwtK0xcJQTMTCvvvGwtqJ&#xD;&#xa;xMKmFsTCSbfGwq76x8IQ+sjCsqnIwkJdycIaT8fC0nbHwlf2xsLg/cbCtIHHwsTvxsI0KsbCsqDH&#xD;&#xa;wgLix8JGKcXCyNTDwjDwwsIb98bC6MjJwg6Zy8Kg+cvCaC3HwtIgw8KW7sXC3EHGwmcUxcL++8fC&#xD;&#xa;CWbIwsDoxsJFz8PCJkXFwiD7xcIQDsfC8ljIwrDLxMKkeMLClpHEwiqgyMJcjcjC6krGwl50w8Iy&#xD;&#xa;7sXCWv3HwkQ1xsKUwMPC2K/EwootxMJUqMTCH3LDwuojxcKil8fCjmXIwkLJxcID78TClTvGwhel&#xD;&#xa;xsIca8bC1rbCwk6+wsIQfsfCIlPHwpJExcLWhMbCDNvEwuryxMKklMXCeBDDwolhwcIiasLCQYfE&#xD;&#xa;whUfwsJx4MTCsEnIwkX0xcK+3sbCIqLHwrARx8IWtMTCGAnFwomNxMLfbcTCQIPDwjqww8L+MMTC&#xD;&#xa;mqjHwrBaxMI6YsTCxmvIwqyKycKQaMXCnx7FwkYvx8In6sjCGMzIwuvAxcL8a8XCiBjJwkvwyMKI&#xD;&#xa;qMbCTCTIwvQSy8IxEsvCVT/JwrI3w8LA8sLCCD7EwsxXxMJSjsXCfjXFwqTKxMI/gsPCDozDwtwF&#xD;&#xa;xMISn8bChHvJwlFQyMJYCsbCP4jIwtkBycLiFsrCbCrKwvyTysIWncnC+A3HwuI5x8I8/MbC0hHI&#xD;&#xa;wopJzMLmb83CFkvMwpy/y8Kn7MrCfJrJwuLDyMJKn8bCStTGwpb7ycIMo8nCcivFwsapxcJkx8bC&#xD;&#xa;ALLIwriaycJM3cfC8r/KwlSoy8I4A8vCpFHJwkRrzMIKr87CWD7MwsiJycKW9cfCUjbKwq+YycLi&#xD;&#xa;U8jCROHHwhdWycKaU8nCF7jMwmKaz8L//8zC8tjOwjxezsIUysvCzHLJwiJryMLRm8bCgLjKwsi8&#xD;&#xa;ysIhfszCPETLwqtbyMJGeMfCpRPJwnwZzMJSIs3CqhPMwmDiyMLZYsjCz13KwgwKy8LCi8jCyrTM&#xD;&#xa;wgwxzMK4ZcvC087JwkV2xsLyXsnCjIbLwhwvzcLfrM7CeITKwla3ysLK3cnC/PHFwpScxcIUQ8nC&#xD;&#xa;NJzIwrEsxsJvZcfCXSvIwlKLx8JII8nCvgzKwpnhysJSC8vC9iTKwiA/y8IadczCuDrMwuVaysLO&#xD;&#xa;r8vCXtfJwrZ6ycItucnCtonJwjyTysJkC83CL0nMwkjdyMIBucfCixrLwvSDysKGX8nCsCzMwuas&#xD;&#xa;0cIsnNPCuEvOwtr5y8LMBc7Cr+PTwsQc5MLcOfPCKOj0wjr59cJ0C/fCzg75wkwh+8LmVPnCqz72&#xD;&#xa;wnB+9cLuJvrCtEL4wkp7+MLOfffCDN3zwkaz9sLi8vjCFKr6wgIQ+cI8iPjCBpT4wvR1+MLQI/rC&#xD;&#xa;Ihn8wlQg+sIcLvjCVCz2wsI49MJQ9fbC23H3woy69sL4BfnCIOb2wjwy9cIuGvnCdmb3wj7K9MI+&#xD;&#xa;KPXCJpr2wn7C9cKQDvnCthv7woaP+cLGaPbCTr32wrpN+cIFSPjCDvX4wtD39sJY//TCKGf3wvZI&#xD;&#xa;+cK9YvfCgYf3wjIf+sLMMvfCpjz2wuA6+cII8vbCxDv1wmJG9sLka/rCPrT1wi589cLqjfbC9qP4&#xD;&#xa;wgzJ+MLelPbCGir2wlBC9sKeU/jC/nn3wsYn9sL4QPjCXBj5wopQ+MIaJvnCSB36wgjc+MIMfPfC&#xD;&#xa;W+z1wmYG+MKuxPnCCuD1wjh+9sLDrPfCOPj3wm7h+MJjMvfCxH/2wsXf98KwN/nCKOn5wrLR+sKg&#xD;&#xa;bPvCkFv5wsAu+cL2hffCySz2wmRX+MKiiPjCzFX4wvjB98Jgz/fCxPT4wobP+cL8avjC9r34wnKx&#xD;&#xa;+MK+LPnC3H34wle39cKejfbCNKP2wg5B9sK0H/rCSvz2woqE98JAqfjCBPL4wmKi+MIu2/jCMFD5&#xD;&#xa;wiCM+cKo//nCGqz7wlZN+sKUDfjC0ov4wrIU+sIVpffCP2/3woye98KktPbCTJj2wpH29cL3mvbC&#xD;&#xa;jL/4wti/+MLm3vjCQ9QEwzOmYsI/y13CPNeLwsehjcK+No/Cm+aOwlHvjcIja5HCun6XwoKemMJy&#xD;&#xa;lpPCuQeRwhgMlcJGdZvCTjScwgFMncIGh5zCGrOawuO0nMJdJZ3Cybudwo6toMIdraPCs/6jwpY0&#xD;&#xa;psLIUqjCWQmpwonmp8KcE6XCgXGlwqC+psIFHabCBoyownWvqcIkX6jCgnCpwms3qsIW0KfCM7Oj&#xD;&#xa;wnGLosJgcKnCdk6swiIgscKFrbDCtNmowrZmpcIHYqjCCg2pwqUNq8KgHq7ChEGxwhVFs8KU6LLC&#xD;&#xa;dvWzwpVHscI6NrDCMpGwwubcs8Imh7bCPKq6wj7tvMKSbr3ClsG+wq4qwMLXQr7CpAK5whxiuMJp&#xD;&#xa;v7nCwu29wloQvsIXTL3CzjDAwsDTwcL69sHC8urAwtAFwMIkSMLCpJHDwjLOw8JG8sTCmMvDwq7H&#xD;&#xa;wsLOncPC+CDDwkh6wsLU5sPCP23Fwm5Qx8KlYsTCm0XCwnhexcLsTsPCSMPDwjvJw8LMWcHC2XHD&#xD;&#xa;wjj5wsICs8TChWvEwgCywcKDdcHCFnHCwurMxMLlVsTCfrDGwmzqyMKoGsfC7ITIwtqRyMJwzcbC&#xD;&#xa;ppbEwiv5xcIXxsTCzDfCwtSExMKEjcTC8ObDwiJ9yMIQm8vCIkDGwqHyxcIyYcbCyAXIwmyBx8I4&#xD;&#xa;n8PCvyPGwuiKxMJggMfCdL3JwsMhysLi6sXCRa7Ewoykx8Jk/MXC0NfEwtK0xcJQTMTCvvvGwtqJ&#xD;&#xa;xMKmFsTCSbfGwq76x8IQ+sjCsqnIwkJdycIaT8fC0nbHwlf2xsLg/cbCtIHHwsTvxsI0KsbCsqDH&#xD;&#xa;wgLix8JGKcXCyNTDwjDwwsIb98bC6MjJwg6Zy8Kg+cvCaC3HwtIgw8KW7sXC3EHGwmcUxcL++8fC&#xD;&#xa;CWbIwsDoxsJFz8PCJkXFwiD7xcIQDsfC8ljIwrDLxMKkeMLClpHEwiqgyMJcjcjC6krGwl50w8Iy&#xD;&#xa;7sXCWv3HwkQ1xsKUwMPC2K/EwootxMJUqMTCH3LDwuojxcKil8fCjmXIwkLJxcID78TClTvGwhel&#xD;&#xa;xsIca8bC1rbCwk6+wsIQfsfCIlPHwpJExcLWhMbCDNvEwuryxMKklMXCeBDDwolhwcIiasLCQYfE&#xD;&#xa;whUfwsJx4MTCsEnIwkX0xcK+3sbCIqLHwrARx8IWtMTCGAnFwomNxMLfbcTCQIPDwjqww8L+MMTC&#xD;&#xa;mqjHwrBaxMI6YsTCxmvIwqyKycKQaMXCnx7FwkYvx8In6sjCGMzIwuvAxcL8a8XCiBjJwkvwyMKI&#xD;&#xa;qMbCTCTIwvQSy8IxEsvCVT/JwrI3w8LA8sLCCD7EwsxXxMJSjsXCfjXFwqTKxMI/gsPCDozDwtwF&#xD;&#xa;xMISn8bChHvJwlFQyMJYCsbCP4jIwtkBycLiFsrCbCrKwvyTysIWncnC+A3HwuI5x8I8/MbC0hHI&#xD;&#xa;wopJzMLmb83CFkvMwpy/y8Kn7MrCfJrJwuLDyMJKn8bCStTGwpb7ycIMo8nCcivFwsapxcJkx8bC&#xD;&#xa;ALLIwriaycJM3cfC8r/KwlSoy8I4A8vCpFHJwkRrzMIKr87CWD7MwsiJycKW9cfCUjbKwq+YycLi&#xD;&#xa;U8jCROHHwhdWycKaU8nCF7jMwmKaz8L//8zC8tjOwjxezsIUysvCzHLJwiJryMLRm8bCgLjKwsi8&#xD;&#xa;ysIhfszCPETLwqtbyMJGeMfCpRPJwnwZzMJSIs3CqhPMwmDiyMLZYsjCz13KwgwKy8LCi8jCyrTM&#xD;&#xa;wgwxzMK4ZcvC087JwkV2xsLyXsnCjIbLwhwvzcLfrM7CeITKwla3ysLK3cnC/PHFwpScxcIUQ8nC&#xD;&#xa;NJzIwrEsxsJvZcfCXSvIwlKLx8JII8nCvgzKwpnhysJSC8vC9iTKwiA/y8IadczCuDrMwuVaysLO&#xD;&#xa;r8vCXtfJwrZ6ycItucnCtonJwjyTysJkC83CL0nMwkjdyMIBucfCixrLwvSDysKGX8nCsCzMwuas&#xD;&#xa;0cIsnNPCuEvOwtr5y8LMBc7Cr+PTwsQc5MLcOfPCKOj0wjr59cJ0C/fCzg75wkwh+8LmVPnCqz72&#xD;&#xa;wnB+9cLuJvrCtEL4wkp7+MLOfffCDN3zwkaz9sLi8vjCFKr6wgIQ+cI8iPjCBpT4wvR1+MLQI/rC&#xD;&#xa;Ihn8wlQg+sIcLvjCVCz2wsI49MJQ9fbC23H3woy69sL4BfnCIOb2wjwy9cIuGvnCdmb3wj7K9MI+&#xD;&#xa;KPXCJpr2wn7C9cKQDvnCthv7woaP+cLGaPbCTr32wrpN+cIFSPjCDvX4wtD39sJY//TCKGf3wvZI&#xD;&#xa;+cK9YvfCgYf3wjIf+sLMMvfCpjz2wuA6+cII8vbCxDv1wmJG9sLka/rCPrT1wi589cLqjfbC9qP4&#xD;&#xa;wgzJ+MLelPbCGir2wlBC9sKeU/jC/nn3wsYn9sL4QPjCXBj5wopQ+MIaJvnCSB36wgjc+MIMfPfC&#xD;&#xa;W+z1wmYG+MKuxPnCCuD1wjh+9sLDrPfCOPj3wm7h+MJjMvfCxH/2wsXf98KwN/nCKOn5wrLR+sKg&#xD;&#xa;bPvCkFv5wsAu+cL2hffCySz2wmRX+MKiiPjCzFX4wvjB98Jgz/fCxPT4wobP+cL8avjC9r34wnKx&#xD;&#xa;+MK+LPnC3H34wle39cKejfbCNKP2wg5B9sK0H/rCSvz2woqE98JAqfjCBPL4wmKi+MIu2/jCMFD5&#xD;&#xa;wiCM+cKo//nCGqz7wlZN+sKUDfjC0ov4wrIU+sIVpffCP2/3woye98KktPbCTJj2wpH29cL3mvbC&#xD;&#xa;jL/4wti/+MLm3vjCQ9QE" leadInLength="0/1"  />
            </Keyframes>
           </Parameter>
           </Parameters>
          </GenericEffect>
          <GenericEffect id="6184" name = "WinCompression" >
           <Parameters>
           <InterpolatingParam id="6185" interp="linr"  time="0/1" value="0" leadInLength="0/1"   name="attack"/>
           <InterpolatingParam id="6186" interp="linr"  time="0/1" value="9" leadInLength="0/1"   name="gain"/>
           <Parameter id="6187"   name="preset">
            <Keyframes>
            <Keyframe id="6188"  time="0/1" value="1" leadInLength="0/1"  />
            </Keyframes>
           </Parameter>
           <InterpolatingParam id="6189" interp="linr"  time="0/1" value="10" leadInLength="0/1"   name="ratio"/>
           <InterpolatingParam id="6190" interp="linr"  time="0/1" value="3500" leadInLength="0/1"   name="release"/>
           <InterpolatingParam id="6191" interp="linr"  time="0/1" value="-20" leadInLength="0/1"   name="threshold"/>
           </Parameters>
          </GenericEffect>
          <GenericEffect id="6192" name = "Declipper" >
           <Parameters>
           <InterpolatingParam id="6193" interp="linr"  time="0/1" value="-1" leadInLength="0/1"   name="sensitivity"/>
           </Parameters>
          </GenericEffect>
          <GenericEffect id="6194" name = "Declicker" >
           <Parameters>
           <InterpolatingParam id="6195" interp="linr"  time="0/1" value="3" leadInLength="0/1"   name="sensitivity"/>
           </Parameters>
          </GenericEffect>
         </Effects>
         <Attributes>
          <Attribute id="6196" value="" name="ident"/>
          <Attribute id="6197" value="0" name="mixToMono"/>
         </Attributes>
         <MetaData>
          <entry key="WinSubProjectDisplayName" val=""/>
         </MetaData>
         <ExtraData>
          <Entry key="ZoomPanBin">
           <ZoomPanBin id="6198"  >
            <ZoomPanKeyframes>
            </ZoomPanKeyframes>
           </ZoomPanBin>
          </Entry>
          <Entry key="CursorEffectBin">
           <CursorEffectBin id="6199"  >
            <CursorEffectKeyframes>
            </CursorEffectKeyframes>
           </CursorEffectBin>
          </Entry>
         </ExtraData>
         <GenericTrack id="6200"  >
          <Attributes>
           <Attribute id="6201" value="" name="ident"/>
           <Attribute id="6202" value="0" name="audioMuted"/>
           <Attribute id="6203" value="0" name="videoHidden"/>
          </Attributes>
          <MetaData>
           <entry key="IsLocked" val="False"/>
           <entry key="WinTrackHeight" val="0"/>
          </MetaData>
          <Medias>
           <AMFile id="6204" start="0" duration="10360" scalar="1/1" mediaStart="0/1" mediaDuration="10360/1" trackNumber="0" src="22" channelNumber="0" >
            <Parameters>
             <InterpolatingParam id="6205" interp="linr"  time="0/1" value="1" leadInLength="0/1"  name="volume"/>
             <Parameter id="6206"  name="captions"/>
            </Parameters>
            <Attributes>
             <Attribute id="6207" value="" name="ident"/>
             <Attribute id="6208" value="44100" name="sampleRate"/>
             <Attribute id="6209" value="16" name="bitDepth"/>
             <Attribute id="6210" value="1" name="gain"/>
             <Attribute id="6211" value="0" name="mixToMono"/>
            </Attributes>
            <MetaData>
             <entry key="WinSubProjectDisplayName" val=""/>
            </MetaData>
           </AMFile>
           <AMFile id="6212" start="10360" duration="265" scalar="1/1" mediaStart="10702/1" mediaDuration="265/1" trackNumber="0" src="22" channelNumber="0" >
            <Parameters>
             <InterpolatingParam id="6213" interp="linr"  time="0/1" value="1" leadInLength="0/1"  name="volume"/>
             <Parameter id="6214"  name="captions"/>
            </Parameters>
            <Attributes>
             <Attribute id="6215" value="" name="ident"/>
             <Attribute id="6216" value="44100" name="sampleRate"/>
             <Attribute id="6217" value="16" name="bitDepth"/>
             <Attribute id="6218" value="1" name="gain"/>
             <Attribute id="6219" value="0" name="mixToMono"/>
            </Attributes>
            <MetaData>
             <entry key="WinSubProjectDisplayName" val=""/>
            </MetaData>
           </AMFile>
           <AMFile id="6220" start="10625" duration="3597" scalar="1/1" mediaStart="10971/1" mediaDuration="3597/1" trackNumber="0" src="22" channelNumber="0" >
            <Parameters>
             <InterpolatingParam id="6221" interp="linr"  time="0/1" value="1" leadInLength="0/1"  name="volume"/>
             <Parameter id="6222"  name="captions"/>
            </Parameters>
            <Attributes>
             <Attribute id="6223" value="" name="ident"/>
             <Attribute id="6224" value="44100" name="sampleRate"/>
             <Attribute id="6225" value="16" name="bitDepth"/>
             <Attribute id="6226" value="1" name="gain"/>
             <Attribute id="6227" value="0" name="mixToMono"/>
            </Attributes>
            <MetaData>
             <entry key="WinSubProjectDisplayName" val=""/>
            </MetaData>
           </AMFile>
          </Medias>
         </GenericTrack>
        </StitchedMedia>
        <AMFile id="6228" start="7458" duration="210" scalar="1/1" mediaStart="11524/1" mediaDuration="210/1" trackNumber="0" src="22" channelNumber="0" >
         <Parameters>
          <InterpolatingParam id="6229" interp="linr"  name="volume">
           <Keyframes>
           <Keyframe id="6230"  time="0/1" value="1" leadInLength="0/1"  />
           <Keyframe id="6231"  time="3301/1" value="1" leadInLength="0/1"  />
           <Keyframe id="6232"  time="3302/1" value="0.80000000000000004" leadInLength="0/1"  />
           <Keyframe id="6233"  time="14568/1" value="0.80000000000000004" leadInLength="0/1"  />
           <Keyframe id="6234"  time="14569/1" value="1" leadInLength="0/1"  />
           </Keyframes>
          </InterpolatingParam>
          <Parameter id="6235"  name="captions"/>
         </Parameters>
         <Effects>
          <GenericEffect id="6236" name = "NoiseReduction" >
           <Parameters>
           <InterpolatingParam id="6237" interp="linr"  time="0/1" value="20" leadInLength="0/1"   name="denoiserAmount"/>
           <InterpolatingParam id="6238" interp="linr"  time="0/1" value="0" leadInLength="0/1"   name="denoiserThreshold"/>
           <Parameter id="6239"   name="noiseProfile">
            <Keyframes>
            <Keyframe id="6240"  time="0/1" value="FBAAAAIAAABErAAAAQIAADOmYsI/y13CPNeLwsehjcK+No/Cm+aOwlHvjcIja5HCun6XwoKemMJy&#xD;&#xa;lpPCuQeRwhgMlcJGdZvCTjScwgFMncIGh5zCGrOawuO0nMJdJZ3Cybudwo6toMIdraPCs/6jwpY0&#xD;&#xa;psLIUqjCWQmpwonmp8KcE6XCgXGlwqC+psIFHabCBoyownWvqcIkX6jCgnCpwms3qsIW0KfCM7Oj&#xD;&#xa;wnGLosJgcKnCdk6swiIgscKFrbDCtNmowrZmpcIHYqjCCg2pwqUNq8KgHq7ChEGxwhVFs8KU6LLC&#xD;&#xa;dvWzwpVHscI6NrDCMpGwwubcs8Imh7bCPKq6wj7tvMKSbr3ClsG+wq4qwMLXQr7CpAK5whxiuMJp&#xD;&#xa;v7nCwu29wloQvsIXTL3CzjDAwsDTwcL69sHC8urAwtAFwMIkSMLCpJHDwjLOw8JG8sTCmMvDwq7H&#xD;&#xa;wsLOncPC+CDDwkh6wsLU5sPCP23Fwm5Qx8KlYsTCm0XCwnhexcLsTsPCSMPDwjvJw8LMWcHC2XHD&#xD;&#xa;wjj5wsICs8TChWvEwgCywcKDdcHCFnHCwurMxMLlVsTCfrDGwmzqyMKoGsfC7ITIwtqRyMJwzcbC&#xD;&#xa;ppbEwiv5xcIXxsTCzDfCwtSExMKEjcTC8ObDwiJ9yMIQm8vCIkDGwqHyxcIyYcbCyAXIwmyBx8I4&#xD;&#xa;n8PCvyPGwuiKxMJggMfCdL3JwsMhysLi6sXCRa7Ewoykx8Jk/MXC0NfEwtK0xcJQTMTCvvvGwtqJ&#xD;&#xa;xMKmFsTCSbfGwq76x8IQ+sjCsqnIwkJdycIaT8fC0nbHwlf2xsLg/cbCtIHHwsTvxsI0KsbCsqDH&#xD;&#xa;wgLix8JGKcXCyNTDwjDwwsIb98bC6MjJwg6Zy8Kg+cvCaC3HwtIgw8KW7sXC3EHGwmcUxcL++8fC&#xD;&#xa;CWbIwsDoxsJFz8PCJkXFwiD7xcIQDsfC8ljIwrDLxMKkeMLClpHEwiqgyMJcjcjC6krGwl50w8Iy&#xD;&#xa;7sXCWv3HwkQ1xsKUwMPC2K/EwootxMJUqMTCH3LDwuojxcKil8fCjmXIwkLJxcID78TClTvGwhel&#xD;&#xa;xsIca8bC1rbCwk6+wsIQfsfCIlPHwpJExcLWhMbCDNvEwuryxMKklMXCeBDDwolhwcIiasLCQYfE&#xD;&#xa;whUfwsJx4MTCsEnIwkX0xcK+3sbCIqLHwrARx8IWtMTCGAnFwomNxMLfbcTCQIPDwjqww8L+MMTC&#xD;&#xa;mqjHwrBaxMI6YsTCxmvIwqyKycKQaMXCnx7FwkYvx8In6sjCGMzIwuvAxcL8a8XCiBjJwkvwyMKI&#xD;&#xa;qMbCTCTIwvQSy8IxEsvCVT/JwrI3w8LA8sLCCD7EwsxXxMJSjsXCfjXFwqTKxMI/gsPCDozDwtwF&#xD;&#xa;xMISn8bChHvJwlFQyMJYCsbCP4jIwtkBycLiFsrCbCrKwvyTysIWncnC+A3HwuI5x8I8/MbC0hHI&#xD;&#xa;wopJzMLmb83CFkvMwpy/y8Kn7MrCfJrJwuLDyMJKn8bCStTGwpb7ycIMo8nCcivFwsapxcJkx8bC&#xD;&#xa;ALLIwriaycJM3cfC8r/KwlSoy8I4A8vCpFHJwkRrzMIKr87CWD7MwsiJycKW9cfCUjbKwq+YycLi&#xD;&#xa;U8jCROHHwhdWycKaU8nCF7jMwmKaz8L//8zC8tjOwjxezsIUysvCzHLJwiJryMLRm8bCgLjKwsi8&#xD;&#xa;ysIhfszCPETLwqtbyMJGeMfCpRPJwnwZzMJSIs3CqhPMwmDiyMLZYsjCz13KwgwKy8LCi8jCyrTM&#xD;&#xa;wgwxzMK4ZcvC087JwkV2xsLyXsnCjIbLwhwvzcLfrM7CeITKwla3ysLK3cnC/PHFwpScxcIUQ8nC&#xD;&#xa;NJzIwrEsxsJvZcfCXSvIwlKLx8JII8nCvgzKwpnhysJSC8vC9iTKwiA/y8IadczCuDrMwuVaysLO&#xD;&#xa;r8vCXtfJwrZ6ycItucnCtonJwjyTysJkC83CL0nMwkjdyMIBucfCixrLwvSDysKGX8nCsCzMwuas&#xD;&#xa;0cIsnNPCuEvOwtr5y8LMBc7Cr+PTwsQc5MLcOfPCKOj0wjr59cJ0C/fCzg75wkwh+8LmVPnCqz72&#xD;&#xa;wnB+9cLuJvrCtEL4wkp7+MLOfffCDN3zwkaz9sLi8vjCFKr6wgIQ+cI8iPjCBpT4wvR1+MLQI/rC&#xD;&#xa;Ihn8wlQg+sIcLvjCVCz2wsI49MJQ9fbC23H3woy69sL4BfnCIOb2wjwy9cIuGvnCdmb3wj7K9MI+&#xD;&#xa;KPXCJpr2wn7C9cKQDvnCthv7woaP+cLGaPbCTr32wrpN+cIFSPjCDvX4wtD39sJY//TCKGf3wvZI&#xD;&#xa;+cK9YvfCgYf3wjIf+sLMMvfCpjz2wuA6+cII8vbCxDv1wmJG9sLka/rCPrT1wi589cLqjfbC9qP4&#xD;&#xa;wgzJ+MLelPbCGir2wlBC9sKeU/jC/nn3wsYn9sL4QPjCXBj5wopQ+MIaJvnCSB36wgjc+MIMfPfC&#xD;&#xa;W+z1wmYG+MKuxPnCCuD1wjh+9sLDrPfCOPj3wm7h+MJjMvfCxH/2wsXf98KwN/nCKOn5wrLR+sKg&#xD;&#xa;bPvCkFv5wsAu+cL2hffCySz2wmRX+MKiiPjCzFX4wvjB98Jgz/fCxPT4wobP+cL8avjC9r34wnKx&#xD;&#xa;+MK+LPnC3H34wle39cKejfbCNKP2wg5B9sK0H/rCSvz2woqE98JAqfjCBPL4wmKi+MIu2/jCMFD5&#xD;&#xa;wiCM+cKo//nCGqz7wlZN+sKUDfjC0ov4wrIU+sIVpffCP2/3woye98KktPbCTJj2wpH29cL3mvbC&#xD;&#xa;jL/4wti/+MLm3vjCQ9QEwzOmYsI/y13CPNeLwsehjcK+No/Cm+aOwlHvjcIja5HCun6XwoKemMJy&#xD;&#xa;lpPCuQeRwhgMlcJGdZvCTjScwgFMncIGh5zCGrOawuO0nMJdJZ3Cybudwo6toMIdraPCs/6jwpY0&#xD;&#xa;psLIUqjCWQmpwonmp8KcE6XCgXGlwqC+psIFHabCBoyownWvqcIkX6jCgnCpwms3qsIW0KfCM7Oj&#xD;&#xa;wnGLosJgcKnCdk6swiIgscKFrbDCtNmowrZmpcIHYqjCCg2pwqUNq8KgHq7ChEGxwhVFs8KU6LLC&#xD;&#xa;dvWzwpVHscI6NrDCMpGwwubcs8Imh7bCPKq6wj7tvMKSbr3ClsG+wq4qwMLXQr7CpAK5whxiuMJp&#xD;&#xa;v7nCwu29wloQvsIXTL3CzjDAwsDTwcL69sHC8urAwtAFwMIkSMLCpJHDwjLOw8JG8sTCmMvDwq7H&#xD;&#xa;wsLOncPC+CDDwkh6wsLU5sPCP23Fwm5Qx8KlYsTCm0XCwnhexcLsTsPCSMPDwjvJw8LMWcHC2XHD&#xD;&#xa;wjj5wsICs8TChWvEwgCywcKDdcHCFnHCwurMxMLlVsTCfrDGwmzqyMKoGsfC7ITIwtqRyMJwzcbC&#xD;&#xa;ppbEwiv5xcIXxsTCzDfCwtSExMKEjcTC8ObDwiJ9yMIQm8vCIkDGwqHyxcIyYcbCyAXIwmyBx8I4&#xD;&#xa;n8PCvyPGwuiKxMJggMfCdL3JwsMhysLi6sXCRa7Ewoykx8Jk/MXC0NfEwtK0xcJQTMTCvvvGwtqJ&#xD;&#xa;xMKmFsTCSbfGwq76x8IQ+sjCsqnIwkJdycIaT8fC0nbHwlf2xsLg/cbCtIHHwsTvxsI0KsbCsqDH&#xD;&#xa;wgLix8JGKcXCyNTDwjDwwsIb98bC6MjJwg6Zy8Kg+cvCaC3HwtIgw8KW7sXC3EHGwmcUxcL++8fC&#xD;&#xa;CWbIwsDoxsJFz8PCJkXFwiD7xcIQDsfC8ljIwrDLxMKkeMLClpHEwiqgyMJcjcjC6krGwl50w8Iy&#xD;&#xa;7sXCWv3HwkQ1xsKUwMPC2K/EwootxMJUqMTCH3LDwuojxcKil8fCjmXIwkLJxcID78TClTvGwhel&#xD;&#xa;xsIca8bC1rbCwk6+wsIQfsfCIlPHwpJExcLWhMbCDNvEwuryxMKklMXCeBDDwolhwcIiasLCQYfE&#xD;&#xa;whUfwsJx4MTCsEnIwkX0xcK+3sbCIqLHwrARx8IWtMTCGAnFwomNxMLfbcTCQIPDwjqww8L+MMTC&#xD;&#xa;mqjHwrBaxMI6YsTCxmvIwqyKycKQaMXCnx7FwkYvx8In6sjCGMzIwuvAxcL8a8XCiBjJwkvwyMKI&#xD;&#xa;qMbCTCTIwvQSy8IxEsvCVT/JwrI3w8LA8sLCCD7EwsxXxMJSjsXCfjXFwqTKxMI/gsPCDozDwtwF&#xD;&#xa;xMISn8bChHvJwlFQyMJYCsbCP4jIwtkBycLiFsrCbCrKwvyTysIWncnC+A3HwuI5x8I8/MbC0hHI&#xD;&#xa;wopJzMLmb83CFkvMwpy/y8Kn7MrCfJrJwuLDyMJKn8bCStTGwpb7ycIMo8nCcivFwsapxcJkx8bC&#xD;&#xa;ALLIwriaycJM3cfC8r/KwlSoy8I4A8vCpFHJwkRrzMIKr87CWD7MwsiJycKW9cfCUjbKwq+YycLi&#xD;&#xa;U8jCROHHwhdWycKaU8nCF7jMwmKaz8L//8zC8tjOwjxezsIUysvCzHLJwiJryMLRm8bCgLjKwsi8&#xD;&#xa;ysIhfszCPETLwqtbyMJGeMfCpRPJwnwZzMJSIs3CqhPMwmDiyMLZYsjCz13KwgwKy8LCi8jCyrTM&#xD;&#xa;wgwxzMK4ZcvC087JwkV2xsLyXsnCjIbLwhwvzcLfrM7CeITKwla3ysLK3cnC/PHFwpScxcIUQ8nC&#xD;&#xa;NJzIwrEsxsJvZcfCXSvIwlKLx8JII8nCvgzKwpnhysJSC8vC9iTKwiA/y8IadczCuDrMwuVaysLO&#xD;&#xa;r8vCXtfJwrZ6ycItucnCtonJwjyTysJkC83CL0nMwkjdyMIBucfCixrLwvSDysKGX8nCsCzMwuas&#xD;&#xa;0cIsnNPCuEvOwtr5y8LMBc7Cr+PTwsQc5MLcOfPCKOj0wjr59cJ0C/fCzg75wkwh+8LmVPnCqz72&#xD;&#xa;wnB+9cLuJvrCtEL4wkp7+MLOfffCDN3zwkaz9sLi8vjCFKr6wgIQ+cI8iPjCBpT4wvR1+MLQI/rC&#xD;&#xa;Ihn8wlQg+sIcLvjCVCz2wsI49MJQ9fbC23H3woy69sL4BfnCIOb2wjwy9cIuGvnCdmb3wj7K9MI+&#xD;&#xa;KPXCJpr2wn7C9cKQDvnCthv7woaP+cLGaPbCTr32wrpN+cIFSPjCDvX4wtD39sJY//TCKGf3wvZI&#xD;&#xa;+cK9YvfCgYf3wjIf+sLMMvfCpjz2wuA6+cII8vbCxDv1wmJG9sLka/rCPrT1wi589cLqjfbC9qP4&#xD;&#xa;wgzJ+MLelPbCGir2wlBC9sKeU/jC/nn3wsYn9sL4QPjCXBj5wopQ+MIaJvnCSB36wgjc+MIMfPfC&#xD;&#xa;W+z1wmYG+MKuxPnCCuD1wjh+9sLDrPfCOPj3wm7h+MJjMvfCxH/2wsXf98KwN/nCKOn5wrLR+sKg&#xD;&#xa;bPvCkFv5wsAu+cL2hffCySz2wmRX+MKiiPjCzFX4wvjB98Jgz/fCxPT4wobP+cL8avjC9r34wnKx&#xD;&#xa;+MK+LPnC3H34wle39cKejfbCNKP2wg5B9sK0H/rCSvz2woqE98JAqfjCBPL4wmKi+MIu2/jCMFD5&#xD;&#xa;wiCM+cKo//nCGqz7wlZN+sKUDfjC0ov4wrIU+sIVpffCP2/3woye98KktPbCTJj2wpH29cL3mvbC&#xD;&#xa;jL/4wti/+MLm3vjCQ9QE" leadInLength="0/1"  />
            </Keyframes>
           </Parameter>
           </Parameters>
          </GenericEffect>
          <GenericEffect id="6241" name = "WinCompression" >
           <Parameters>
           <InterpolatingParam id="6242" interp="linr"  time="0/1" value="0" leadInLength="0/1"   name="attack"/>
           <InterpolatingParam id="6243" interp="linr"  time="0/1" value="9" leadInLength="0/1"   name="gain"/>
           <Parameter id="6244"   name="preset">
            <Keyframes>
            <Keyframe id="6245"  time="0/1" value="1" leadInLength="0/1"  />
            </Keyframes>
           </Parameter>
           <InterpolatingParam id="6246" interp="linr"  time="0/1" value="10" leadInLength="0/1"   name="ratio"/>
           <InterpolatingParam id="6247" interp="linr"  time="0/1" value="3500" leadInLength="0/1"   name="release"/>
           <InterpolatingParam id="6248" interp="linr"  time="0/1" value="-20" leadInLength="0/1"   name="threshold"/>
           </Parameters>
          </GenericEffect>
          <GenericEffect id="6249" name = "Declipper" >
           <Parameters>
           <InterpolatingParam id="6250" interp="linr"  time="0/1" value="-1" leadInLength="0/1"   name="sensitivity"/>
           </Parameters>
          </GenericEffect>
          <GenericEffect id="6251" name = "Declicker" >
           <Parameters>
           <InterpolatingParam id="6252" interp="linr"  time="0/1" value="3" leadInLength="0/1"   name="sensitivity"/>
           </Parameters>
          </GenericEffect>
         </Effects>
         <Attributes>
          <Attribute id="6253" value="" name="ident"/>
          <Attribute id="6254" value="44100" name="sampleRate"/>
          <Attribute id="6255" value="16" name="bitDepth"/>
          <Attribute id="6256" value="1" name="gain"/>
          <Attribute id="6257" value="0" name="mixToMono"/>
         </Attributes>
         <MetaData>
          <entry key="WinSubProjectDisplayName" val=""/>
         </MetaData>
        </AMFile>
        <AMFile id="6258" start="7697" duration="102" scalar="1/1" mediaStart="11745/1" mediaDuration="102/1" trackNumber="0" src="22" channelNumber="0" >
         <Parameters>
          <InterpolatingParam id="6259" interp="linr"  name="volume">
           <Keyframes>
           <Keyframe id="6260"  time="0/1" value="1" leadInLength="0/1"  />
           <Keyframe id="6261"  time="3301/1" value="1" leadInLength="0/1"  />
           <Keyframe id="6262"  time="3302/1" value="0.80000000000000004" leadInLength="0/1"  />
           <Keyframe id="6263"  time="14568/1" value="0.80000000000000004" leadInLength="0/1"  />
           <Keyframe id="6264"  time="14569/1" value="1" leadInLength="0/1"  />
           </Keyframes>
          </InterpolatingParam>
          <Parameter id="6265"  name="captions"/>
         </Parameters>
         <Effects>
          <GenericEffect id="6266" name = "NoiseReduction" >
           <Parameters>
           <InterpolatingParam id="6267" interp="linr"  time="0/1" value="20" leadInLength="0/1"   name="denoiserAmount"/>
           <InterpolatingParam id="6268" interp="linr"  time="0/1" value="0" leadInLength="0/1"   name="denoiserThreshold"/>
           <Parameter id="6269"   name="noiseProfile">
            <Keyframes>
            <Keyframe id="6270"  time="0/1" value="FBAAAAIAAABErAAAAQIAADOmYsI/y13CPNeLwsehjcK+No/Cm+aOwlHvjcIja5HCun6XwoKemMJy&#xD;&#xa;lpPCuQeRwhgMlcJGdZvCTjScwgFMncIGh5zCGrOawuO0nMJdJZ3Cybudwo6toMIdraPCs/6jwpY0&#xD;&#xa;psLIUqjCWQmpwonmp8KcE6XCgXGlwqC+psIFHabCBoyownWvqcIkX6jCgnCpwms3qsIW0KfCM7Oj&#xD;&#xa;wnGLosJgcKnCdk6swiIgscKFrbDCtNmowrZmpcIHYqjCCg2pwqUNq8KgHq7ChEGxwhVFs8KU6LLC&#xD;&#xa;dvWzwpVHscI6NrDCMpGwwubcs8Imh7bCPKq6wj7tvMKSbr3ClsG+wq4qwMLXQr7CpAK5whxiuMJp&#xD;&#xa;v7nCwu29wloQvsIXTL3CzjDAwsDTwcL69sHC8urAwtAFwMIkSMLCpJHDwjLOw8JG8sTCmMvDwq7H&#xD;&#xa;wsLOncPC+CDDwkh6wsLU5sPCP23Fwm5Qx8KlYsTCm0XCwnhexcLsTsPCSMPDwjvJw8LMWcHC2XHD&#xD;&#xa;wjj5wsICs8TChWvEwgCywcKDdcHCFnHCwurMxMLlVsTCfrDGwmzqyMKoGsfC7ITIwtqRyMJwzcbC&#xD;&#xa;ppbEwiv5xcIXxsTCzDfCwtSExMKEjcTC8ObDwiJ9yMIQm8vCIkDGwqHyxcIyYcbCyAXIwmyBx8I4&#xD;&#xa;n8PCvyPGwuiKxMJggMfCdL3JwsMhysLi6sXCRa7Ewoykx8Jk/MXC0NfEwtK0xcJQTMTCvvvGwtqJ&#xD;&#xa;xMKmFsTCSbfGwq76x8IQ+sjCsqnIwkJdycIaT8fC0nbHwlf2xsLg/cbCtIHHwsTvxsI0KsbCsqDH&#xD;&#xa;wgLix8JGKcXCyNTDwjDwwsIb98bC6MjJwg6Zy8Kg+cvCaC3HwtIgw8KW7sXC3EHGwmcUxcL++8fC&#xD;&#xa;CWbIwsDoxsJFz8PCJkXFwiD7xcIQDsfC8ljIwrDLxMKkeMLClpHEwiqgyMJcjcjC6krGwl50w8Iy&#xD;&#xa;7sXCWv3HwkQ1xsKUwMPC2K/EwootxMJUqMTCH3LDwuojxcKil8fCjmXIwkLJxcID78TClTvGwhel&#xD;&#xa;xsIca8bC1rbCwk6+wsIQfsfCIlPHwpJExcLWhMbCDNvEwuryxMKklMXCeBDDwolhwcIiasLCQYfE&#xD;&#xa;whUfwsJx4MTCsEnIwkX0xcK+3sbCIqLHwrARx8IWtMTCGAnFwomNxMLfbcTCQIPDwjqww8L+MMTC&#xD;&#xa;mqjHwrBaxMI6YsTCxmvIwqyKycKQaMXCnx7FwkYvx8In6sjCGMzIwuvAxcL8a8XCiBjJwkvwyMKI&#xD;&#xa;qMbCTCTIwvQSy8IxEsvCVT/JwrI3w8LA8sLCCD7EwsxXxMJSjsXCfjXFwqTKxMI/gsPCDozDwtwF&#xD;&#xa;xMISn8bChHvJwlFQyMJYCsbCP4jIwtkBycLiFsrCbCrKwvyTysIWncnC+A3HwuI5x8I8/MbC0hHI&#xD;&#xa;wopJzMLmb83CFkvMwpy/y8Kn7MrCfJrJwuLDyMJKn8bCStTGwpb7ycIMo8nCcivFwsapxcJkx8bC&#xD;&#xa;ALLIwriaycJM3cfC8r/KwlSoy8I4A8vCpFHJwkRrzMIKr87CWD7MwsiJycKW9cfCUjbKwq+YycLi&#xD;&#xa;U8jCROHHwhdWycKaU8nCF7jMwmKaz8L//8zC8tjOwjxezsIUysvCzHLJwiJryMLRm8bCgLjKwsi8&#xD;&#xa;ysIhfszCPETLwqtbyMJGeMfCpRPJwnwZzMJSIs3CqhPMwmDiyMLZYsjCz13KwgwKy8LCi8jCyrTM&#xD;&#xa;wgwxzMK4ZcvC087JwkV2xsLyXsnCjIbLwhwvzcLfrM7CeITKwla3ysLK3cnC/PHFwpScxcIUQ8nC&#xD;&#xa;NJzIwrEsxsJvZcfCXSvIwlKLx8JII8nCvgzKwpnhysJSC8vC9iTKwiA/y8IadczCuDrMwuVaysLO&#xD;&#xa;r8vCXtfJwrZ6ycItucnCtonJwjyTysJkC83CL0nMwkjdyMIBucfCixrLwvSDysKGX8nCsCzMwuas&#xD;&#xa;0cIsnNPCuEvOwtr5y8LMBc7Cr+PTwsQc5MLcOfPCKOj0wjr59cJ0C/fCzg75wkwh+8LmVPnCqz72&#xD;&#xa;wnB+9cLuJvrCtEL4wkp7+MLOfffCDN3zwkaz9sLi8vjCFKr6wgIQ+cI8iPjCBpT4wvR1+MLQI/rC&#xD;&#xa;Ihn8wlQg+sIcLvjCVCz2wsI49MJQ9fbC23H3woy69sL4BfnCIOb2wjwy9cIuGvnCdmb3wj7K9MI+&#xD;&#xa;KPXCJpr2wn7C9cKQDvnCthv7woaP+cLGaPbCTr32wrpN+cIFSPjCDvX4wtD39sJY//TCKGf3wvZI&#xD;&#xa;+cK9YvfCgYf3wjIf+sLMMvfCpjz2wuA6+cII8vbCxDv1wmJG9sLka/rCPrT1wi589cLqjfbC9qP4&#xD;&#xa;wgzJ+MLelPbCGir2wlBC9sKeU/jC/nn3wsYn9sL4QPjCXBj5wopQ+MIaJvnCSB36wgjc+MIMfPfC&#xD;&#xa;W+z1wmYG+MKuxPnCCuD1wjh+9sLDrPfCOPj3wm7h+MJjMvfCxH/2wsXf98KwN/nCKOn5wrLR+sKg&#xD;&#xa;bPvCkFv5wsAu+cL2hffCySz2wmRX+MKiiPjCzFX4wvjB98Jgz/fCxPT4wobP+cL8avjC9r34wnKx&#xD;&#xa;+MK+LPnC3H34wle39cKejfbCNKP2wg5B9sK0H/rCSvz2woqE98JAqfjCBPL4wmKi+MIu2/jCMFD5&#xD;&#xa;wiCM+cKo//nCGqz7wlZN+sKUDfjC0ov4wrIU+sIVpffCP2/3woye98KktPbCTJj2wpH29cL3mvbC&#xD;&#xa;jL/4wti/+MLm3vjCQ9QEwzOmYsI/y13CPNeLwsehjcK+No/Cm+aOwlHvjcIja5HCun6XwoKemMJy&#xD;&#xa;lpPCuQeRwhgMlcJGdZvCTjScwgFMncIGh5zCGrOawuO0nMJdJZ3Cybudwo6toMIdraPCs/6jwpY0&#xD;&#xa;psLIUqjCWQmpwonmp8KcE6XCgXGlwqC+psIFHabCBoyownWvqcIkX6jCgnCpwms3qsIW0KfCM7Oj&#xD;&#xa;wnGLosJgcKnCdk6swiIgscKFrbDCtNmowrZmpcIHYqjCCg2pwqUNq8KgHq7ChEGxwhVFs8KU6LLC&#xD;&#xa;dvWzwpVHscI6NrDCMpGwwubcs8Imh7bCPKq6wj7tvMKSbr3ClsG+wq4qwMLXQr7CpAK5whxiuMJp&#xD;&#xa;v7nCwu29wloQvsIXTL3CzjDAwsDTwcL69sHC8urAwtAFwMIkSMLCpJHDwjLOw8JG8sTCmMvDwq7H&#xD;&#xa;wsLOncPC+CDDwkh6wsLU5sPCP23Fwm5Qx8KlYsTCm0XCwnhexcLsTsPCSMPDwjvJw8LMWcHC2XHD&#xD;&#xa;wjj5wsICs8TChWvEwgCywcKDdcHCFnHCwurMxMLlVsTCfrDGwmzqyMKoGsfC7ITIwtqRyMJwzcbC&#xD;&#xa;ppbEwiv5xcIXxsTCzDfCwtSExMKEjcTC8ObDwiJ9yMIQm8vCIkDGwqHyxcIyYcbCyAXIwmyBx8I4&#xD;&#xa;n8PCvyPGwuiKxMJggMfCdL3JwsMhysLi6sXCRa7Ewoykx8Jk/MXC0NfEwtK0xcJQTMTCvvvGwtqJ&#xD;&#xa;xMKmFsTCSbfGwq76x8IQ+sjCsqnIwkJdycIaT8fC0nbHwlf2xsLg/cbCtIHHwsTvxsI0KsbCsqDH&#xD;&#xa;wgLix8JGKcXCyNTDwjDwwsIb98bC6MjJwg6Zy8Kg+cvCaC3HwtIgw8KW7sXC3EHGwmcUxcL++8fC&#xD;&#xa;CWbIwsDoxsJFz8PCJkXFwiD7xcIQDsfC8ljIwrDLxMKkeMLClpHEwiqgyMJcjcjC6krGwl50w8Iy&#xD;&#xa;7sXCWv3HwkQ1xsKUwMPC2K/EwootxMJUqMTCH3LDwuojxcKil8fCjmXIwkLJxcID78TClTvGwhel&#xD;&#xa;xsIca8bC1rbCwk6+wsIQfsfCIlPHwpJExcLWhMbCDNvEwuryxMKklMXCeBDDwolhwcIiasLCQYfE&#xD;&#xa;whUfwsJx4MTCsEnIwkX0xcK+3sbCIqLHwrARx8IWtMTCGAnFwomNxMLfbcTCQIPDwjqww8L+MMTC&#xD;&#xa;mqjHwrBaxMI6YsTCxmvIwqyKycKQaMXCnx7FwkYvx8In6sjCGMzIwuvAxcL8a8XCiBjJwkvwyMKI&#xD;&#xa;qMbCTCTIwvQSy8IxEsvCVT/JwrI3w8LA8sLCCD7EwsxXxMJSjsXCfjXFwqTKxMI/gsPCDozDwtwF&#xD;&#xa;xMISn8bChHvJwlFQyMJYCsbCP4jIwtkBycLiFsrCbCrKwvyTysIWncnC+A3HwuI5x8I8/MbC0hHI&#xD;&#xa;wopJzMLmb83CFkvMwpy/y8Kn7MrCfJrJwuLDyMJKn8bCStTGwpb7ycIMo8nCcivFwsapxcJkx8bC&#xD;&#xa;ALLIwriaycJM3cfC8r/KwlSoy8I4A8vCpFHJwkRrzMIKr87CWD7MwsiJycKW9cfCUjbKwq+YycLi&#xD;&#xa;U8jCROHHwhdWycKaU8nCF7jMwmKaz8L//8zC8tjOwjxezsIUysvCzHLJwiJryMLRm8bCgLjKwsi8&#xD;&#xa;ysIhfszCPETLwqtbyMJGeMfCpRPJwnwZzMJSIs3CqhPMwmDiyMLZYsjCz13KwgwKy8LCi8jCyrTM&#xD;&#xa;wgwxzMK4ZcvC087JwkV2xsLyXsnCjIbLwhwvzcLfrM7CeITKwla3ysLK3cnC/PHFwpScxcIUQ8nC&#xD;&#xa;NJzIwrEsxsJvZcfCXSvIwlKLx8JII8nCvgzKwpnhysJSC8vC9iTKwiA/y8IadczCuDrMwuVaysLO&#xD;&#xa;r8vCXtfJwrZ6ycItucnCtonJwjyTysJkC83CL0nMwkjdyMIBucfCixrLwvSDysKGX8nCsCzMwuas&#xD;&#xa;0cIsnNPCuEvOwtr5y8LMBc7Cr+PTwsQc5MLcOfPCKOj0wjr59cJ0C/fCzg75wkwh+8LmVPnCqz72&#xD;&#xa;wnB+9cLuJvrCtEL4wkp7+MLOfffCDN3zwkaz9sLi8vjCFKr6wgIQ+cI8iPjCBpT4wvR1+MLQI/rC&#xD;&#xa;Ihn8wlQg+sIcLvjCVCz2wsI49MJQ9fbC23H3woy69sL4BfnCIOb2wjwy9cIuGvnCdmb3wj7K9MI+&#xD;&#xa;KPXCJpr2wn7C9cKQDvnCthv7woaP+cLGaPbCTr32wrpN+cIFSPjCDvX4wtD39sJY//TCKGf3wvZI&#xD;&#xa;+cK9YvfCgYf3wjIf+sLMMvfCpjz2wuA6+cII8vbCxDv1wmJG9sLka/rCPrT1wi589cLqjfbC9qP4&#xD;&#xa;wgzJ+MLelPbCGir2wlBC9sKeU/jC/nn3wsYn9sL4QPjCXBj5wopQ+MIaJvnCSB36wgjc+MIMfPfC&#xD;&#xa;W+z1wmYG+MKuxPnCCuD1wjh+9sLDrPfCOPj3wm7h+MJjMvfCxH/2wsXf98KwN/nCKOn5wrLR+sKg&#xD;&#xa;bPvCkFv5wsAu+cL2hffCySz2wmRX+MKiiPjCzFX4wvjB98Jgz/fCxPT4wobP+cL8avjC9r34wnKx&#xD;&#xa;+MK+LPnC3H34wle39cKejfbCNKP2wg5B9sK0H/rCSvz2woqE98JAqfjCBPL4wmKi+MIu2/jCMFD5&#xD;&#xa;wiCM+cKo//nCGqz7wlZN+sKUDfjC0ov4wrIU+sIVpffCP2/3woye98KktPbCTJj2wpH29cL3mvbC&#xD;&#xa;jL/4wti/+MLm3vjCQ9QE" leadInLength="0/1"  />
            </Keyframes>
           </Parameter>
           </Parameters>
          </GenericEffect>
          <GenericEffect id="6271" name = "WinCompression" >
           <Parameters>
           <InterpolatingParam id="6272" interp="linr"  time="0/1" value="0" leadInLength="0/1"   name="attack"/>
           <InterpolatingParam id="6273" interp="linr"  time="0/1" value="9" leadInLength="0/1"   name="gain"/>
           <Parameter id="6274"   name="preset">
            <Keyframes>
            <Keyframe id="6275"  time="0/1" value="1" leadInLength="0/1"  />
            </Keyframes>
           </Parameter>
           <InterpolatingParam id="6276" interp="linr"  time="0/1" value="10" leadInLength="0/1"   name="ratio"/>
           <InterpolatingParam id="6277" interp="linr"  time="0/1" value="3500" leadInLength="0/1"   name="release"/>
           <InterpolatingParam id="6278" interp="linr"  time="0/1" value="-20" leadInLength="0/1"   name="threshold"/>
           </Parameters>
          </GenericEffect>
          <GenericEffect id="6279" name = "Declipper" >
           <Parameters>
           <InterpolatingParam id="6280" interp="linr"  time="0/1" value="-1" leadInLength="0/1"   name="sensitivity"/>
           </Parameters>
          </GenericEffect>
          <GenericEffect id="6281" name = "Declicker" >
           <Parameters>
           <InterpolatingParam id="6282" interp="linr"  time="0/1" value="3" leadInLength="0/1"   name="sensitivity"/>
           </Parameters>
          </GenericEffect>
         </Effects>
         <Attributes>
          <Attribute id="6283" value="" name="ident"/>
          <Attribute id="6284" value="44100" name="sampleRate"/>
          <Attribute id="6285" value="16" name="bitDepth"/>
          <Attribute id="6286" value="1" name="gain"/>
          <Attribute id="6287" value="0" name="mixToMono"/>
         </Attributes>
         <MetaData>
          <entry key="WinSubProjectDisplayName" val=""/>
         </MetaData>
        </AMFile>
        <AMFile id="6288" start="7813" duration="245" scalar="1/1" mediaStart="11847/1" mediaDuration="245/1" trackNumber="0" src="22" channelNumber="0" >
         <Parameters>
          <InterpolatingParam id="6289" interp="linr"  name="volume">
           <Keyframes>
           <Keyframe id="6290"  time="0/1" value="1" leadInLength="0/1"  />
           <Keyframe id="6291"  time="3301/1" value="1" leadInLength="0/1"  />
           <Keyframe id="6292"  time="3302/1" value="0.80000000000000004" leadInLength="0/1"  />
           <Keyframe id="6293"  time="14568/1" value="0.80000000000000004" leadInLength="0/1"  />
           <Keyframe id="6294"  time="14569/1" value="1" leadInLength="0/1"  />
           </Keyframes>
          </InterpolatingParam>
          <Parameter id="6295"  name="captions"/>
         </Parameters>
         <Effects>
          <GenericEffect id="6296" name = "NoiseReduction" >
           <Parameters>
           <InterpolatingParam id="6297" interp="linr"  time="0/1" value="20" leadInLength="0/1"   name="denoiserAmount"/>
           <InterpolatingParam id="6298" interp="linr"  time="0/1" value="0" leadInLength="0/1"   name="denoiserThreshold"/>
           <Parameter id="6299"   name="noiseProfile">
            <Keyframes>
            <Keyframe id="6300"  time="0/1" value="FBAAAAIAAABErAAAAQIAADOmYsI/y13CPNeLwsehjcK+No/Cm+aOwlHvjcIja5HCun6XwoKemMJy&#xD;&#xa;lpPCuQeRwhgMlcJGdZvCTjScwgFMncIGh5zCGrOawuO0nMJdJZ3Cybudwo6toMIdraPCs/6jwpY0&#xD;&#xa;psLIUqjCWQmpwonmp8KcE6XCgXGlwqC+psIFHabCBoyownWvqcIkX6jCgnCpwms3qsIW0KfCM7Oj&#xD;&#xa;wnGLosJgcKnCdk6swiIgscKFrbDCtNmowrZmpcIHYqjCCg2pwqUNq8KgHq7ChEGxwhVFs8KU6LLC&#xD;&#xa;dvWzwpVHscI6NrDCMpGwwubcs8Imh7bCPKq6wj7tvMKSbr3ClsG+wq4qwMLXQr7CpAK5whxiuMJp&#xD;&#xa;v7nCwu29wloQvsIXTL3CzjDAwsDTwcL69sHC8urAwtAFwMIkSMLCpJHDwjLOw8JG8sTCmMvDwq7H&#xD;&#xa;wsLOncPC+CDDwkh6wsLU5sPCP23Fwm5Qx8KlYsTCm0XCwnhexcLsTsPCSMPDwjvJw8LMWcHC2XHD&#xD;&#xa;wjj5wsICs8TChWvEwgCywcKDdcHCFnHCwurMxMLlVsTCfrDGwmzqyMKoGsfC7ITIwtqRyMJwzcbC&#xD;&#xa;ppbEwiv5xcIXxsTCzDfCwtSExMKEjcTC8ObDwiJ9yMIQm8vCIkDGwqHyxcIyYcbCyAXIwmyBx8I4&#xD;&#xa;n8PCvyPGwuiKxMJggMfCdL3JwsMhysLi6sXCRa7Ewoykx8Jk/MXC0NfEwtK0xcJQTMTCvvvGwtqJ&#xD;&#xa;xMKmFsTCSbfGwq76x8IQ+sjCsqnIwkJdycIaT8fC0nbHwlf2xsLg/cbCtIHHwsTvxsI0KsbCsqDH&#xD;&#xa;wgLix8JGKcXCyNTDwjDwwsIb98bC6MjJwg6Zy8Kg+cvCaC3HwtIgw8KW7sXC3EHGwmcUxcL++8fC&#xD;&#xa;CWbIwsDoxsJFz8PCJkXFwiD7xcIQDsfC8ljIwrDLxMKkeMLClpHEwiqgyMJcjcjC6krGwl50w8Iy&#xD;&#xa;7sXCWv3HwkQ1xsKUwMPC2K/EwootxMJUqMTCH3LDwuojxcKil8fCjmXIwkLJxcID78TClTvGwhel&#xD;&#xa;xsIca8bC1rbCwk6+wsIQfsfCIlPHwpJExcLWhMbCDNvEwuryxMKklMXCeBDDwolhwcIiasLCQYfE&#xD;&#xa;whUfwsJx4MTCsEnIwkX0xcK+3sbCIqLHwrARx8IWtMTCGAnFwomNxMLfbcTCQIPDwjqww8L+MMTC&#xD;&#xa;mqjHwrBaxMI6YsTCxmvIwqyKycKQaMXCnx7FwkYvx8In6sjCGMzIwuvAxcL8a8XCiBjJwkvwyMKI&#xD;&#xa;qMbCTCTIwvQSy8IxEsvCVT/JwrI3w8LA8sLCCD7EwsxXxMJSjsXCfjXFwqTKxMI/gsPCDozDwtwF&#xD;&#xa;xMISn8bChHvJwlFQyMJYCsbCP4jIwtkBycLiFsrCbCrKwvyTysIWncnC+A3HwuI5x8I8/MbC0hHI&#xD;&#xa;wopJzMLmb83CFkvMwpy/y8Kn7MrCfJrJwuLDyMJKn8bCStTGwpb7ycIMo8nCcivFwsapxcJkx8bC&#xD;&#xa;ALLIwriaycJM3cfC8r/KwlSoy8I4A8vCpFHJwkRrzMIKr87CWD7MwsiJycKW9cfCUjbKwq+YycLi&#xD;&#xa;U8jCROHHwhdWycKaU8nCF7jMwmKaz8L//8zC8tjOwjxezsIUysvCzHLJwiJryMLRm8bCgLjKwsi8&#xD;&#xa;ysIhfszCPETLwqtbyMJGeMfCpRPJwnwZzMJSIs3CqhPMwmDiyMLZYsjCz13KwgwKy8LCi8jCyrTM&#xD;&#xa;wgwxzMK4ZcvC087JwkV2xsLyXsnCjIbLwhwvzcLfrM7CeITKwla3ysLK3cnC/PHFwpScxcIUQ8nC&#xD;&#xa;NJzIwrEsxsJvZcfCXSvIwlKLx8JII8nCvgzKwpnhysJSC8vC9iTKwiA/y8IadczCuDrMwuVaysLO&#xD;&#xa;r8vCXtfJwrZ6ycItucnCtonJwjyTysJkC83CL0nMwkjdyMIBucfCixrLwvSDysKGX8nCsCzMwuas&#xD;&#xa;0cIsnNPCuEvOwtr5y8LMBc7Cr+PTwsQc5MLcOfPCKOj0wjr59cJ0C/fCzg75wkwh+8LmVPnCqz72&#xD;&#xa;wnB+9cLuJvrCtEL4wkp7+MLOfffCDN3zwkaz9sLi8vjCFKr6wgIQ+cI8iPjCBpT4wvR1+MLQI/rC&#xD;&#xa;Ihn8wlQg+sIcLvjCVCz2wsI49MJQ9fbC23H3woy69sL4BfnCIOb2wjwy9cIuGvnCdmb3wj7K9MI+&#xD;&#xa;KPXCJpr2wn7C9cKQDvnCthv7woaP+cLGaPbCTr32wrpN+cIFSPjCDvX4wtD39sJY//TCKGf3wvZI&#xD;&#xa;+cK9YvfCgYf3wjIf+sLMMvfCpjz2wuA6+cII8vbCxDv1wmJG9sLka/rCPrT1wi589cLqjfbC9qP4&#xD;&#xa;wgzJ+MLelPbCGir2wlBC9sKeU/jC/nn3wsYn9sL4QPjCXBj5wopQ+MIaJvnCSB36wgjc+MIMfPfC&#xD;&#xa;W+z1wmYG+MKuxPnCCuD1wjh+9sLDrPfCOPj3wm7h+MJjMvfCxH/2wsXf98KwN/nCKOn5wrLR+sKg&#xD;&#xa;bPvCkFv5wsAu+cL2hffCySz2wmRX+MKiiPjCzFX4wvjB98Jgz/fCxPT4wobP+cL8avjC9r34wnKx&#xD;&#xa;+MK+LPnC3H34wle39cKejfbCNKP2wg5B9sK0H/rCSvz2woqE98JAqfjCBPL4wmKi+MIu2/jCMFD5&#xD;&#xa;wiCM+cKo//nCGqz7wlZN+sKUDfjC0ov4wrIU+sIVpffCP2/3woye98KktPbCTJj2wpH29cL3mvbC&#xD;&#xa;jL/4wti/+MLm3vjCQ9QEwzOmYsI/y13CPNeLwsehjcK+No/Cm+aOwlHvjcIja5HCun6XwoKemMJy&#xD;&#xa;lpPCuQeRwhgMlcJGdZvCTjScwgFMncIGh5zCGrOawuO0nMJdJZ3Cybudwo6toMIdraPCs/6jwpY0&#xD;&#xa;psLIUqjCWQmpwonmp8KcE6XCgXGlwqC+psIFHabCBoyownWvqcIkX6jCgnCpwms3qsIW0KfCM7Oj&#xD;&#xa;wnGLosJgcKnCdk6swiIgscKFrbDCtNmowrZmpcIHYqjCCg2pwqUNq8KgHq7ChEGxwhVFs8KU6LLC&#xD;&#xa;dvWzwpVHscI6NrDCMpGwwubcs8Imh7bCPKq6wj7tvMKSbr3ClsG+wq4qwMLXQr7CpAK5whxiuMJp&#xD;&#xa;v7nCwu29wloQvsIXTL3CzjDAwsDTwcL69sHC8urAwtAFwMIkSMLCpJHDwjLOw8JG8sTCmMvDwq7H&#xD;&#xa;wsLOncPC+CDDwkh6wsLU5sPCP23Fwm5Qx8KlYsTCm0XCwnhexcLsTsPCSMPDwjvJw8LMWcHC2XHD&#xD;&#xa;wjj5wsICs8TChWvEwgCywcKDdcHCFnHCwurMxMLlVsTCfrDGwmzqyMKoGsfC7ITIwtqRyMJwzcbC&#xD;&#xa;ppbEwiv5xcIXxsTCzDfCwtSExMKEjcTC8ObDwiJ9yMIQm8vCIkDGwqHyxcIyYcbCyAXIwmyBx8I4&#xD;&#xa;n8PCvyPGwuiKxMJggMfCdL3JwsMhysLi6sXCRa7Ewoykx8Jk/MXC0NfEwtK0xcJQTMTCvvvGwtqJ&#xD;&#xa;xMKmFsTCSbfGwq76x8IQ+sjCsqnIwkJdycIaT8fC0nbHwlf2xsLg/cbCtIHHwsTvxsI0KsbCsqDH&#xD;&#xa;wgLix8JGKcXCyNTDwjDwwsIb98bC6MjJwg6Zy8Kg+cvCaC3HwtIgw8KW7sXC3EHGwmcUxcL++8fC&#xD;&#xa;CWbIwsDoxsJFz8PCJkXFwiD7xcIQDsfC8ljIwrDLxMKkeMLClpHEwiqgyMJcjcjC6krGwl50w8Iy&#xD;&#xa;7sXCWv3HwkQ1xsKUwMPC2K/EwootxMJUqMTCH3LDwuojxcKil8fCjmXIwkLJxcID78TClTvGwhel&#xD;&#xa;xsIca8bC1rbCwk6+wsIQfsfCIlPHwpJExcLWhMbCDNvEwuryxMKklMXCeBDDwolhwcIiasLCQYfE&#xD;&#xa;whUfwsJx4MTCsEnIwkX0xcK+3sbCIqLHwrARx8IWtMTCGAnFwomNxMLfbcTCQIPDwjqww8L+MMTC&#xD;&#xa;mqjHwrBaxMI6YsTCxmvIwqyKycKQaMXCnx7FwkYvx8In6sjCGMzIwuvAxcL8a8XCiBjJwkvwyMKI&#xD;&#xa;qMbCTCTIwvQSy8IxEsvCVT/JwrI3w8LA8sLCCD7EwsxXxMJSjsXCfjXFwqTKxMI/gsPCDozDwtwF&#xD;&#xa;xMISn8bChHvJwlFQyMJYCsbCP4jIwtkBycLiFsrCbCrKwvyTysIWncnC+A3HwuI5x8I8/MbC0hHI&#xD;&#xa;wopJzMLmb83CFkvMwpy/y8Kn7MrCfJrJwuLDyMJKn8bCStTGwpb7ycIMo8nCcivFwsapxcJkx8bC&#xD;&#xa;ALLIwriaycJM3cfC8r/KwlSoy8I4A8vCpFHJwkRrzMIKr87CWD7MwsiJycKW9cfCUjbKwq+YycLi&#xD;&#xa;U8jCROHHwhdWycKaU8nCF7jMwmKaz8L//8zC8tjOwjxezsIUysvCzHLJwiJryMLRm8bCgLjKwsi8&#xD;&#xa;ysIhfszCPETLwqtbyMJGeMfCpRPJwnwZzMJSIs3CqhPMwmDiyMLZYsjCz13KwgwKy8LCi8jCyrTM&#xD;&#xa;wgwxzMK4ZcvC087JwkV2xsLyXsnCjIbLwhwvzcLfrM7CeITKwla3ysLK3cnC/PHFwpScxcIUQ8nC&#xD;&#xa;NJzIwrEsxsJvZcfCXSvIwlKLx8JII8nCvgzKwpnhysJSC8vC9iTKwiA/y8IadczCuDrMwuVaysLO&#xD;&#xa;r8vCXtfJwrZ6ycItucnCtonJwjyTysJkC83CL0nMwkjdyMIBucfCixrLwvSDysKGX8nCsCzMwuas&#xD;&#xa;0cIsnNPCuEvOwtr5y8LMBc7Cr+PTwsQc5MLcOfPCKOj0wjr59cJ0C/fCzg75wkwh+8LmVPnCqz72&#xD;&#xa;wnB+9cLuJvrCtEL4wkp7+MLOfffCDN3zwkaz9sLi8vjCFKr6wgIQ+cI8iPjCBpT4wvR1+MLQI/rC&#xD;&#xa;Ihn8wlQg+sIcLvjCVCz2wsI49MJQ9fbC23H3woy69sL4BfnCIOb2wjwy9cIuGvnCdmb3wj7K9MI+&#xD;&#xa;KPXCJpr2wn7C9cKQDvnCthv7woaP+cLGaPbCTr32wrpN+cIFSPjCDvX4wtD39sJY//TCKGf3wvZI&#xD;&#xa;+cK9YvfCgYf3wjIf+sLMMvfCpjz2wuA6+cII8vbCxDv1wmJG9sLka/rCPrT1wi589cLqjfbC9qP4&#xD;&#xa;wgzJ+MLelPbCGir2wlBC9sKeU/jC/nn3wsYn9sL4QPjCXBj5wopQ+MIaJvnCSB36wgjc+MIMfPfC&#xD;&#xa;W+z1wmYG+MKuxPnCCuD1wjh+9sLDrPfCOPj3wm7h+MJjMvfCxH/2wsXf98KwN/nCKOn5wrLR+sKg&#xD;&#xa;bPvCkFv5wsAu+cL2hffCySz2wmRX+MKiiPjCzFX4wvjB98Jgz/fCxPT4wobP+cL8avjC9r34wnKx&#xD;&#xa;+MK+LPnC3H34wle39cKejfbCNKP2wg5B9sK0H/rCSvz2woqE98JAqfjCBPL4wmKi+MIu2/jCMFD5&#xD;&#xa;wiCM+cKo//nCGqz7wlZN+sKUDfjC0ov4wrIU+sIVpffCP2/3woye98KktPbCTJj2wpH29cL3mvbC&#xD;&#xa;jL/4wti/+MLm3vjCQ9QE" leadInLength="0/1"  />
            </Keyframes>
           </Parameter>
           </Parameters>
          </GenericEffect>
          <GenericEffect id="6301" name = "WinCompression" >
           <Parameters>
           <InterpolatingParam id="6302" interp="linr"  time="0/1" value="0" leadInLength="0/1"   name="attack"/>
           <InterpolatingParam id="6303" interp="linr"  time="0/1" value="9" leadInLength="0/1"   name="gain"/>
           <Parameter id="6304"   name="preset">
            <Keyframes>
            <Keyframe id="6305"  time="0/1" value="1" leadInLength="0/1"  />
            </Keyframes>
           </Parameter>
           <InterpolatingParam id="6306" interp="linr"  time="0/1" value="10" leadInLength="0/1"   name="ratio"/>
           <InterpolatingParam id="6307" interp="linr"  time="0/1" value="3500" leadInLength="0/1"   name="release"/>
           <InterpolatingParam id="6308" interp="linr"  time="0/1" value="-20" leadInLength="0/1"   name="threshold"/>
           </Parameters>
          </GenericEffect>
          <GenericEffect id="6309" name = "Declipper" >
           <Parameters>
           <InterpolatingParam id="6310" interp="linr"  time="0/1" value="-1" leadInLength="0/1"   name="sensitivity"/>
           </Parameters>
          </GenericEffect>
          <GenericEffect id="6311" name = "Declicker" >
           <Parameters>
           <InterpolatingParam id="6312" interp="linr"  time="0/1" value="3" leadInLength="0/1"   name="sensitivity"/>
           </Parameters>
          </GenericEffect>
         </Effects>
         <Attributes>
          <Attribute id="6313" value="" name="ident"/>
          <Attribute id="6314" value="44100" name="sampleRate"/>
          <Attribute id="6315" value="16" name="bitDepth"/>
          <Attribute id="6316" value="1" name="gain"/>
          <Attribute id="6317" value="0" name="mixToMono"/>
         </Attributes>
         <MetaData>
          <entry key="WinSubProjectDisplayName" val=""/>
         </MetaData>
        </AMFile>
        <AMFile id="6318" start="8078" duration="381" scalar="1/1" mediaStart="12124/1" mediaDuration="381/1" trackNumber="0" src="22" channelNumber="0" >
         <Parameters>
          <InterpolatingParam id="6319" interp="linr"  name="volume">
           <Keyframes>
           <Keyframe id="6320"  time="0/1" value="1" leadInLength="0/1"  />
           <Keyframe id="6321"  time="3301/1" value="1" leadInLength="0/1"  />
           <Keyframe id="6322"  time="3302/1" value="0.80000000000000004" leadInLength="0/1"  />
           <Keyframe id="6323"  time="14568/1" value="0.80000000000000004" leadInLength="0/1"  />
           <Keyframe id="6324"  time="14569/1" value="1" leadInLength="0/1"  />
           </Keyframes>
          </InterpolatingParam>
          <Parameter id="6325"  name="captions"/>
         </Parameters>
         <Effects>
          <GenericEffect id="6326" name = "NoiseReduction" >
           <Parameters>
           <InterpolatingParam id="6327" interp="linr"  time="0/1" value="20" leadInLength="0/1"   name="denoiserAmount"/>
           <InterpolatingParam id="6328" interp="linr"  time="0/1" value="0" leadInLength="0/1"   name="denoiserThreshold"/>
           <Parameter id="6329"   name="noiseProfile">
            <Keyframes>
            <Keyframe id="6330"  time="0/1" value="FBAAAAIAAABErAAAAQIAADOmYsI/y13CPNeLwsehjcK+No/Cm+aOwlHvjcIja5HCun6XwoKemMJy&#xD;&#xa;lpPCuQeRwhgMlcJGdZvCTjScwgFMncIGh5zCGrOawuO0nMJdJZ3Cybudwo6toMIdraPCs/6jwpY0&#xD;&#xa;psLIUqjCWQmpwonmp8KcE6XCgXGlwqC+psIFHabCBoyownWvqcIkX6jCgnCpwms3qsIW0KfCM7Oj&#xD;&#xa;wnGLosJgcKnCdk6swiIgscKFrbDCtNmowrZmpcIHYqjCCg2pwqUNq8KgHq7ChEGxwhVFs8KU6LLC&#xD;&#xa;dvWzwpVHscI6NrDCMpGwwubcs8Imh7bCPKq6wj7tvMKSbr3ClsG+wq4qwMLXQr7CpAK5whxiuMJp&#xD;&#xa;v7nCwu29wloQvsIXTL3CzjDAwsDTwcL69sHC8urAwtAFwMIkSMLCpJHDwjLOw8JG8sTCmMvDwq7H&#xD;&#xa;wsLOncPC+CDDwkh6wsLU5sPCP23Fwm5Qx8KlYsTCm0XCwnhexcLsTsPCSMPDwjvJw8LMWcHC2XHD&#xD;&#xa;wjj5wsICs8TChWvEwgCywcKDdcHCFnHCwurMxMLlVsTCfrDGwmzqyMKoGsfC7ITIwtqRyMJwzcbC&#xD;&#xa;ppbEwiv5xcIXxsTCzDfCwtSExMKEjcTC8ObDwiJ9yMIQm8vCIkDGwqHyxcIyYcbCyAXIwmyBx8I4&#xD;&#xa;n8PCvyPGwuiKxMJggMfCdL3JwsMhysLi6sXCRa7Ewoykx8Jk/MXC0NfEwtK0xcJQTMTCvvvGwtqJ&#xD;&#xa;xMKmFsTCSbfGwq76x8IQ+sjCsqnIwkJdycIaT8fC0nbHwlf2xsLg/cbCtIHHwsTvxsI0KsbCsqDH&#xD;&#xa;wgLix8JGKcXCyNTDwjDwwsIb98bC6MjJwg6Zy8Kg+cvCaC3HwtIgw8KW7sXC3EHGwmcUxcL++8fC&#xD;&#xa;CWbIwsDoxsJFz8PCJkXFwiD7xcIQDsfC8ljIwrDLxMKkeMLClpHEwiqgyMJcjcjC6krGwl50w8Iy&#xD;&#xa;7sXCWv3HwkQ1xsKUwMPC2K/EwootxMJUqMTCH3LDwuojxcKil8fCjmXIwkLJxcID78TClTvGwhel&#xD;&#xa;xsIca8bC1rbCwk6+wsIQfsfCIlPHwpJExcLWhMbCDNvEwuryxMKklMXCeBDDwolhwcIiasLCQYfE&#xD;&#xa;whUfwsJx4MTCsEnIwkX0xcK+3sbCIqLHwrARx8IWtMTCGAnFwomNxMLfbcTCQIPDwjqww8L+MMTC&#xD;&#xa;mqjHwrBaxMI6YsTCxmvIwqyKycKQaMXCnx7FwkYvx8In6sjCGMzIwuvAxcL8a8XCiBjJwkvwyMKI&#xD;&#xa;qMbCTCTIwvQSy8IxEsvCVT/JwrI3w8LA8sLCCD7EwsxXxMJSjsXCfjXFwqTKxMI/gsPCDozDwtwF&#xD;&#xa;xMISn8bChHvJwlFQyMJYCsbCP4jIwtkBycLiFsrCbCrKwvyTysIWncnC+A3HwuI5x8I8/MbC0hHI&#xD;&#xa;wopJzMLmb83CFkvMwpy/y8Kn7MrCfJrJwuLDyMJKn8bCStTGwpb7ycIMo8nCcivFwsapxcJkx8bC&#xD;&#xa;ALLIwriaycJM3cfC8r/KwlSoy8I4A8vCpFHJwkRrzMIKr87CWD7MwsiJycKW9cfCUjbKwq+YycLi&#xD;&#xa;U8jCROHHwhdWycKaU8nCF7jMwmKaz8L//8zC8tjOwjxezsIUysvCzHLJwiJryMLRm8bCgLjKwsi8&#xD;&#xa;ysIhfszCPETLwqtbyMJGeMfCpRPJwnwZzMJSIs3CqhPMwmDiyMLZYsjCz13KwgwKy8LCi8jCyrTM&#xD;&#xa;wgwxzMK4ZcvC087JwkV2xsLyXsnCjIbLwhwvzcLfrM7CeITKwla3ysLK3cnC/PHFwpScxcIUQ8nC&#xD;&#xa;NJzIwrEsxsJvZcfCXSvIwlKLx8JII8nCvgzKwpnhysJSC8vC9iTKwiA/y8IadczCuDrMwuVaysLO&#xD;&#xa;r8vCXtfJwrZ6ycItucnCtonJwjyTysJkC83CL0nMwkjdyMIBucfCixrLwvSDysKGX8nCsCzMwuas&#xD;&#xa;0cIsnNPCuEvOwtr5y8LMBc7Cr+PTwsQc5MLcOfPCKOj0wjr59cJ0C/fCzg75wkwh+8LmVPnCqz72&#xD;&#xa;wnB+9cLuJvrCtEL4wkp7+MLOfffCDN3zwkaz9sLi8vjCFKr6wgIQ+cI8iPjCBpT4wvR1+MLQI/rC&#xD;&#xa;Ihn8wlQg+sIcLvjCVCz2wsI49MJQ9fbC23H3woy69sL4BfnCIOb2wjwy9cIuGvnCdmb3wj7K9MI+&#xD;&#xa;KPXCJpr2wn7C9cKQDvnCthv7woaP+cLGaPbCTr32wrpN+cIFSPjCDvX4wtD39sJY//TCKGf3wvZI&#xD;&#xa;+cK9YvfCgYf3wjIf+sLMMvfCpjz2wuA6+cII8vbCxDv1wmJG9sLka/rCPrT1wi589cLqjfbC9qP4&#xD;&#xa;wgzJ+MLelPbCGir2wlBC9sKeU/jC/nn3wsYn9sL4QPjCXBj5wopQ+MIaJvnCSB36wgjc+MIMfPfC&#xD;&#xa;W+z1wmYG+MKuxPnCCuD1wjh+9sLDrPfCOPj3wm7h+MJjMvfCxH/2wsXf98KwN/nCKOn5wrLR+sKg&#xD;&#xa;bPvCkFv5wsAu+cL2hffCySz2wmRX+MKiiPjCzFX4wvjB98Jgz/fCxPT4wobP+cL8avjC9r34wnKx&#xD;&#xa;+MK+LPnC3H34wle39cKejfbCNKP2wg5B9sK0H/rCSvz2woqE98JAqfjCBPL4wmKi+MIu2/jCMFD5&#xD;&#xa;wiCM+cKo//nCGqz7wlZN+sKUDfjC0ov4wrIU+sIVpffCP2/3woye98KktPbCTJj2wpH29cL3mvbC&#xD;&#xa;jL/4wti/+MLm3vjCQ9QEwzOmYsI/y13CPNeLwsehjcK+No/Cm+aOwlHvjcIja5HCun6XwoKemMJy&#xD;&#xa;lpPCuQeRwhgMlcJGdZvCTjScwgFMncIGh5zCGrOawuO0nMJdJZ3Cybudwo6toMIdraPCs/6jwpY0&#xD;&#xa;psLIUqjCWQmpwonmp8KcE6XCgXGlwqC+psIFHabCBoyownWvqcIkX6jCgnCpwms3qsIW0KfCM7Oj&#xD;&#xa;wnGLosJgcKnCdk6swiIgscKFrbDCtNmowrZmpcIHYqjCCg2pwqUNq8KgHq7ChEGxwhVFs8KU6LLC&#xD;&#xa;dvWzwpVHscI6NrDCMpGwwubcs8Imh7bCPKq6wj7tvMKSbr3ClsG+wq4qwMLXQr7CpAK5whxiuMJp&#xD;&#xa;v7nCwu29wloQvsIXTL3CzjDAwsDTwcL69sHC8urAwtAFwMIkSMLCpJHDwjLOw8JG8sTCmMvDwq7H&#xD;&#xa;wsLOncPC+CDDwkh6wsLU5sPCP23Fwm5Qx8KlYsTCm0XCwnhexcLsTsPCSMPDwjvJw8LMWcHC2XHD&#xD;&#xa;wjj5wsICs8TChWvEwgCywcKDdcHCFnHCwurMxMLlVsTCfrDGwmzqyMKoGsfC7ITIwtqRyMJwzcbC&#xD;&#xa;ppbEwiv5xcIXxsTCzDfCwtSExMKEjcTC8ObDwiJ9yMIQm8vCIkDGwqHyxcIyYcbCyAXIwmyBx8I4&#xD;&#xa;n8PCvyPGwuiKxMJggMfCdL3JwsMhysLi6sXCRa7Ewoykx8Jk/MXC0NfEwtK0xcJQTMTCvvvGwtqJ&#xD;&#xa;xMKmFsTCSbfGwq76x8IQ+sjCsqnIwkJdycIaT8fC0nbHwlf2xsLg/cbCtIHHwsTvxsI0KsbCsqDH&#xD;&#xa;wgLix8JGKcXCyNTDwjDwwsIb98bC6MjJwg6Zy8Kg+cvCaC3HwtIgw8KW7sXC3EHGwmcUxcL++8fC&#xD;&#xa;CWbIwsDoxsJFz8PCJkXFwiD7xcIQDsfC8ljIwrDLxMKkeMLClpHEwiqgyMJcjcjC6krGwl50w8Iy&#xD;&#xa;7sXCWv3HwkQ1xsKUwMPC2K/EwootxMJUqMTCH3LDwuojxcKil8fCjmXIwkLJxcID78TClTvGwhel&#xD;&#xa;xsIca8bC1rbCwk6+wsIQfsfCIlPHwpJExcLWhMbCDNvEwuryxMKklMXCeBDDwolhwcIiasLCQYfE&#xD;&#xa;whUfwsJx4MTCsEnIwkX0xcK+3sbCIqLHwrARx8IWtMTCGAnFwomNxMLfbcTCQIPDwjqww8L+MMTC&#xD;&#xa;mqjHwrBaxMI6YsTCxmvIwqyKycKQaMXCnx7FwkYvx8In6sjCGMzIwuvAxcL8a8XCiBjJwkvwyMKI&#xD;&#xa;qMbCTCTIwvQSy8IxEsvCVT/JwrI3w8LA8sLCCD7EwsxXxMJSjsXCfjXFwqTKxMI/gsPCDozDwtwF&#xD;&#xa;xMISn8bChHvJwlFQyMJYCsbCP4jIwtkBycLiFsrCbCrKwvyTysIWncnC+A3HwuI5x8I8/MbC0hHI&#xD;&#xa;wopJzMLmb83CFkvMwpy/y8Kn7MrCfJrJwuLDyMJKn8bCStTGwpb7ycIMo8nCcivFwsapxcJkx8bC&#xD;&#xa;ALLIwriaycJM3cfC8r/KwlSoy8I4A8vCpFHJwkRrzMIKr87CWD7MwsiJycKW9cfCUjbKwq+YycLi&#xD;&#xa;U8jCROHHwhdWycKaU8nCF7jMwmKaz8L//8zC8tjOwjxezsIUysvCzHLJwiJryMLRm8bCgLjKwsi8&#xD;&#xa;ysIhfszCPETLwqtbyMJGeMfCpRPJwnwZzMJSIs3CqhPMwmDiyMLZYsjCz13KwgwKy8LCi8jCyrTM&#xD;&#xa;wgwxzMK4ZcvC087JwkV2xsLyXsnCjIbLwhwvzcLfrM7CeITKwla3ysLK3cnC/PHFwpScxcIUQ8nC&#xD;&#xa;NJzIwrEsxsJvZcfCXSvIwlKLx8JII8nCvgzKwpnhysJSC8vC9iTKwiA/y8IadczCuDrMwuVaysLO&#xD;&#xa;r8vCXtfJwrZ6ycItucnCtonJwjyTysJkC83CL0nMwkjdyMIBucfCixrLwvSDysKGX8nCsCzMwuas&#xD;&#xa;0cIsnNPCuEvOwtr5y8LMBc7Cr+PTwsQc5MLcOfPCKOj0wjr59cJ0C/fCzg75wkwh+8LmVPnCqz72&#xD;&#xa;wnB+9cLuJvrCtEL4wkp7+MLOfffCDN3zwkaz9sLi8vjCFKr6wgIQ+cI8iPjCBpT4wvR1+MLQI/rC&#xD;&#xa;Ihn8wlQg+sIcLvjCVCz2wsI49MJQ9fbC23H3woy69sL4BfnCIOb2wjwy9cIuGvnCdmb3wj7K9MI+&#xD;&#xa;KPXCJpr2wn7C9cKQDvnCthv7woaP+cLGaPbCTr32wrpN+cIFSPjCDvX4wtD39sJY//TCKGf3wvZI&#xD;&#xa;+cK9YvfCgYf3wjIf+sLMMvfCpjz2wuA6+cII8vbCxDv1wmJG9sLka/rCPrT1wi589cLqjfbC9qP4&#xD;&#xa;wgzJ+MLelPbCGir2wlBC9sKeU/jC/nn3wsYn9sL4QPjCXBj5wopQ+MIaJvnCSB36wgjc+MIMfPfC&#xD;&#xa;W+z1wmYG+MKuxPnCCuD1wjh+9sLDrPfCOPj3wm7h+MJjMvfCxH/2wsXf98KwN/nCKOn5wrLR+sKg&#xD;&#xa;bPvCkFv5wsAu+cL2hffCySz2wmRX+MKiiPjCzFX4wvjB98Jgz/fCxPT4wobP+cL8avjC9r34wnKx&#xD;&#xa;+MK+LPnC3H34wle39cKejfbCNKP2wg5B9sK0H/rCSvz2woqE98JAqfjCBPL4wmKi+MIu2/jCMFD5&#xD;&#xa;wiCM+cKo//nCGqz7wlZN+sKUDfjC0ov4wrIU+sIVpffCP2/3woye98KktPbCTJj2wpH29cL3mvbC&#xD;&#xa;jL/4wti/+MLm3vjCQ9QE" leadInLength="0/1"  />
            </Keyframes>
           </Parameter>
           </Parameters>
          </GenericEffect>
          <GenericEffect id="6331" name = "WinCompression" >
           <Parameters>
           <InterpolatingParam id="6332" interp="linr"  time="0/1" value="0" leadInLength="0/1"   name="attack"/>
           <InterpolatingParam id="6333" interp="linr"  time="0/1" value="9" leadInLength="0/1"   name="gain"/>
           <Parameter id="6334"   name="preset">
            <Keyframes>
            <Keyframe id="6335"  time="0/1" value="1" leadInLength="0/1"  />
            </Keyframes>
           </Parameter>
           <InterpolatingParam id="6336" interp="linr"  time="0/1" value="10" leadInLength="0/1"   name="ratio"/>
           <InterpolatingParam id="6337" interp="linr"  time="0/1" value="3500" leadInLength="0/1"   name="release"/>
           <InterpolatingParam id="6338" interp="linr"  time="0/1" value="-20" leadInLength="0/1"   name="threshold"/>
           </Parameters>
          </GenericEffect>
          <GenericEffect id="6339" name = "Declipper" >
           <Parameters>
           <InterpolatingParam id="6340" interp="linr"  time="0/1" value="-1" leadInLength="0/1"   name="sensitivity"/>
           </Parameters>
          </GenericEffect>
          <GenericEffect id="6341" name = "Declicker" >
           <Parameters>
           <InterpolatingParam id="6342" interp="linr"  time="0/1" value="3" leadInLength="0/1"   name="sensitivity"/>
           </Parameters>
          </GenericEffect>
         </Effects>
         <Attributes>
          <Attribute id="6343" value="" name="ident"/>
          <Attribute id="6344" value="44100" name="sampleRate"/>
          <Attribute id="6345" value="16" name="bitDepth"/>
          <Attribute id="6346" value="1" name="gain"/>
          <Attribute id="6347" value="0" name="mixToMono"/>
         </Attributes>
         <MetaData>
          <entry key="WinSubProjectDisplayName" val=""/>
         </MetaData>
        </AMFile>
        <AMFile id="6348" start="8459" duration="33" scalar="1/1" mediaStart="12518/1" mediaDuration="33/1" trackNumber="0" src="22" channelNumber="0" >
         <Parameters>
          <InterpolatingParam id="6349" interp="linr"  name="volume">
           <Keyframes>
           <Keyframe id="6350"  time="0/1" value="1" leadInLength="0/1"  />
           <Keyframe id="6351"  time="3301/1" value="1" leadInLength="0/1"  />
           <Keyframe id="6352"  time="3302/1" value="0.80000000000000004" leadInLength="0/1"  />
           <Keyframe id="6353"  time="14568/1" value="0.80000000000000004" leadInLength="0/1"  />
           <Keyframe id="6354"  time="14569/1" value="1" leadInLength="0/1"  />
           </Keyframes>
          </InterpolatingParam>
          <Parameter id="6355"  name="captions"/>
         </Parameters>
         <Effects>
          <GenericEffect id="6356" name = "NoiseReduction" >
           <Parameters>
           <InterpolatingParam id="6357" interp="linr"  time="0/1" value="20" leadInLength="0/1"   name="denoiserAmount"/>
           <InterpolatingParam id="6358" interp="linr"  time="0/1" value="0" leadInLength="0/1"   name="denoiserThreshold"/>
           <Parameter id="6359"   name="noiseProfile">
            <Keyframes>
            <Keyframe id="6360"  time="0/1" value="FBAAAAIAAABErAAAAQIAADOmYsI/y13CPNeLwsehjcK+No/Cm+aOwlHvjcIja5HCun6XwoKemMJy&#xD;&#xa;lpPCuQeRwhgMlcJGdZvCTjScwgFMncIGh5zCGrOawuO0nMJdJZ3Cybudwo6toMIdraPCs/6jwpY0&#xD;&#xa;psLIUqjCWQmpwonmp8KcE6XCgXGlwqC+psIFHabCBoyownWvqcIkX6jCgnCpwms3qsIW0KfCM7Oj&#xD;&#xa;wnGLosJgcKnCdk6swiIgscKFrbDCtNmowrZmpcIHYqjCCg2pwqUNq8KgHq7ChEGxwhVFs8KU6LLC&#xD;&#xa;dvWzwpVHscI6NrDCMpGwwubcs8Imh7bCPKq6wj7tvMKSbr3ClsG+wq4qwMLXQr7CpAK5whxiuMJp&#xD;&#xa;v7nCwu29wloQvsIXTL3CzjDAwsDTwcL69sHC8urAwtAFwMIkSMLCpJHDwjLOw8JG8sTCmMvDwq7H&#xD;&#xa;wsLOncPC+CDDwkh6wsLU5sPCP23Fwm5Qx8KlYsTCm0XCwnhexcLsTsPCSMPDwjvJw8LMWcHC2XHD&#xD;&#xa;wjj5wsICs8TChWvEwgCywcKDdcHCFnHCwurMxMLlVsTCfrDGwmzqyMKoGsfC7ITIwtqRyMJwzcbC&#xD;&#xa;ppbEwiv5xcIXxsTCzDfCwtSExMKEjcTC8ObDwiJ9yMIQm8vCIkDGwqHyxcIyYcbCyAXIwmyBx8I4&#xD;&#xa;n8PCvyPGwuiKxMJggMfCdL3JwsMhysLi6sXCRa7Ewoykx8Jk/MXC0NfEwtK0xcJQTMTCvvvGwtqJ&#xD;&#xa;xMKmFsTCSbfGwq76x8IQ+sjCsqnIwkJdycIaT8fC0nbHwlf2xsLg/cbCtIHHwsTvxsI0KsbCsqDH&#xD;&#xa;wgLix8JGKcXCyNTDwjDwwsIb98bC6MjJwg6Zy8Kg+cvCaC3HwtIgw8KW7sXC3EHGwmcUxcL++8fC&#xD;&#xa;CWbIwsDoxsJFz8PCJkXFwiD7xcIQDsfC8ljIwrDLxMKkeMLClpHEwiqgyMJcjcjC6krGwl50w8Iy&#xD;&#xa;7sXCWv3HwkQ1xsKUwMPC2K/EwootxMJUqMTCH3LDwuojxcKil8fCjmXIwkLJxcID78TClTvGwhel&#xD;&#xa;xsIca8bC1rbCwk6+wsIQfsfCIlPHwpJExcLWhMbCDNvEwuryxMKklMXCeBDDwolhwcIiasLCQYfE&#xD;&#xa;whUfwsJx4MTCsEnIwkX0xcK+3sbCIqLHwrARx8IWtMTCGAnFwomNxMLfbcTCQIPDwjqww8L+MMTC&#xD;&#xa;mqjHwrBaxMI6YsTCxmvIwqyKycKQaMXCnx7FwkYvx8In6sjCGMzIwuvAxcL8a8XCiBjJwkvwyMKI&#xD;&#xa;qMbCTCTIwvQSy8IxEsvCVT/JwrI3w8LA8sLCCD7EwsxXxMJSjsXCfjXFwqTKxMI/gsPCDozDwtwF&#xD;&#xa;xMISn8bChHvJwlFQyMJYCsbCP4jIwtkBycLiFsrCbCrKwvyTysIWncnC+A3HwuI5x8I8/MbC0hHI&#xD;&#xa;wopJzMLmb83CFkvMwpy/y8Kn7MrCfJrJwuLDyMJKn8bCStTGwpb7ycIMo8nCcivFwsapxcJkx8bC&#xD;&#xa;ALLIwriaycJM3cfC8r/KwlSoy8I4A8vCpFHJwkRrzMIKr87CWD7MwsiJycKW9cfCUjbKwq+YycLi&#xD;&#xa;U8jCROHHwhdWycKaU8nCF7jMwmKaz8L//8zC8tjOwjxezsIUysvCzHLJwiJryMLRm8bCgLjKwsi8&#xD;&#xa;ysIhfszCPETLwqtbyMJGeMfCpRPJwnwZzMJSIs3CqhPMwmDiyMLZYsjCz13KwgwKy8LCi8jCyrTM&#xD;&#xa;wgwxzMK4ZcvC087JwkV2xsLyXsnCjIbLwhwvzcLfrM7CeITKwla3ysLK3cnC/PHFwpScxcIUQ8nC&#xD;&#xa;NJzIwrEsxsJvZcfCXSvIwlKLx8JII8nCvgzKwpnhysJSC8vC9iTKwiA/y8IadczCuDrMwuVaysLO&#xD;&#xa;r8vCXtfJwrZ6ycItucnCtonJwjyTysJkC83CL0nMwkjdyMIBucfCixrLwvSDysKGX8nCsCzMwuas&#xD;&#xa;0cIsnNPCuEvOwtr5y8LMBc7Cr+PTwsQc5MLcOfPCKOj0wjr59cJ0C/fCzg75wkwh+8LmVPnCqz72&#xD;&#xa;wnB+9cLuJvrCtEL4wkp7+MLOfffCDN3zwkaz9sLi8vjCFKr6wgIQ+cI8iPjCBpT4wvR1+MLQI/rC&#xD;&#xa;Ihn8wlQg+sIcLvjCVCz2wsI49MJQ9fbC23H3woy69sL4BfnCIOb2wjwy9cIuGvnCdmb3wj7K9MI+&#xD;&#xa;KPXCJpr2wn7C9cKQDvnCthv7woaP+cLGaPbCTr32wrpN+cIFSPjCDvX4wtD39sJY//TCKGf3wvZI&#xD;&#xa;+cK9YvfCgYf3wjIf+sLMMvfCpjz2wuA6+cII8vbCxDv1wmJG9sLka/rCPrT1wi589cLqjfbC9qP4&#xD;&#xa;wgzJ+MLelPbCGir2wlBC9sKeU/jC/nn3wsYn9sL4QPjCXBj5wopQ+MIaJvnCSB36wgjc+MIMfPfC&#xD;&#xa;W+z1wmYG+MKuxPnCCuD1wjh+9sLDrPfCOPj3wm7h+MJjMvfCxH/2wsXf98KwN/nCKOn5wrLR+sKg&#xD;&#xa;bPvCkFv5wsAu+cL2hffCySz2wmRX+MKiiPjCzFX4wvjB98Jgz/fCxPT4wobP+cL8avjC9r34wnKx&#xD;&#xa;+MK+LPnC3H34wle39cKejfbCNKP2wg5B9sK0H/rCSvz2woqE98JAqfjCBPL4wmKi+MIu2/jCMFD5&#xD;&#xa;wiCM+cKo//nCGqz7wlZN+sKUDfjC0ov4wrIU+sIVpffCP2/3woye98KktPbCTJj2wpH29cL3mvbC&#xD;&#xa;jL/4wti/+MLm3vjCQ9QEwzOmYsI/y13CPNeLwsehjcK+No/Cm+aOwlHvjcIja5HCun6XwoKemMJy&#xD;&#xa;lpPCuQeRwhgMlcJGdZvCTjScwgFMncIGh5zCGrOawuO0nMJdJZ3Cybudwo6toMIdraPCs/6jwpY0&#xD;&#xa;psLIUqjCWQmpwonmp8KcE6XCgXGlwqC+psIFHabCBoyownWvqcIkX6jCgnCpwms3qsIW0KfCM7Oj&#xD;&#xa;wnGLosJgcKnCdk6swiIgscKFrbDCtNmowrZmpcIHYqjCCg2pwqUNq8KgHq7ChEGxwhVFs8KU6LLC&#xD;&#xa;dvWzwpVHscI6NrDCMpGwwubcs8Imh7bCPKq6wj7tvMKSbr3ClsG+wq4qwMLXQr7CpAK5whxiuMJp&#xD;&#xa;v7nCwu29wloQvsIXTL3CzjDAwsDTwcL69sHC8urAwtAFwMIkSMLCpJHDwjLOw8JG8sTCmMvDwq7H&#xD;&#xa;wsLOncPC+CDDwkh6wsLU5sPCP23Fwm5Qx8KlYsTCm0XCwnhexcLsTsPCSMPDwjvJw8LMWcHC2XHD&#xD;&#xa;wjj5wsICs8TChWvEwgCywcKDdcHCFnHCwurMxMLlVsTCfrDGwmzqyMKoGsfC7ITIwtqRyMJwzcbC&#xD;&#xa;ppbEwiv5xcIXxsTCzDfCwtSExMKEjcTC8ObDwiJ9yMIQm8vCIkDGwqHyxcIyYcbCyAXIwmyBx8I4&#xD;&#xa;n8PCvyPGwuiKxMJggMfCdL3JwsMhysLi6sXCRa7Ewoykx8Jk/MXC0NfEwtK0xcJQTMTCvvvGwtqJ&#xD;&#xa;xMKmFsTCSbfGwq76x8IQ+sjCsqnIwkJdycIaT8fC0nbHwlf2xsLg/cbCtIHHwsTvxsI0KsbCsqDH&#xD;&#xa;wgLix8JGKcXCyNTDwjDwwsIb98bC6MjJwg6Zy8Kg+cvCaC3HwtIgw8KW7sXC3EHGwmcUxcL++8fC&#xD;&#xa;CWbIwsDoxsJFz8PCJkXFwiD7xcIQDsfC8ljIwrDLxMKkeMLClpHEwiqgyMJcjcjC6krGwl50w8Iy&#xD;&#xa;7sXCWv3HwkQ1xsKUwMPC2K/EwootxMJUqMTCH3LDwuojxcKil8fCjmXIwkLJxcID78TClTvGwhel&#xD;&#xa;xsIca8bC1rbCwk6+wsIQfsfCIlPHwpJExcLWhMbCDNvEwuryxMKklMXCeBDDwolhwcIiasLCQYfE&#xD;&#xa;whUfwsJx4MTCsEnIwkX0xcK+3sbCIqLHwrARx8IWtMTCGAnFwomNxMLfbcTCQIPDwjqww8L+MMTC&#xD;&#xa;mqjHwrBaxMI6YsTCxmvIwqyKycKQaMXCnx7FwkYvx8In6sjCGMzIwuvAxcL8a8XCiBjJwkvwyMKI&#xD;&#xa;qMbCTCTIwvQSy8IxEsvCVT/JwrI3w8LA8sLCCD7EwsxXxMJSjsXCfjXFwqTKxMI/gsPCDozDwtwF&#xD;&#xa;xMISn8bChHvJwlFQyMJYCsbCP4jIwtkBycLiFsrCbCrKwvyTysIWncnC+A3HwuI5x8I8/MbC0hHI&#xD;&#xa;wopJzMLmb83CFkvMwpy/y8Kn7MrCfJrJwuLDyMJKn8bCStTGwpb7ycIMo8nCcivFwsapxcJkx8bC&#xD;&#xa;ALLIwriaycJM3cfC8r/KwlSoy8I4A8vCpFHJwkRrzMIKr87CWD7MwsiJycKW9cfCUjbKwq+YycLi&#xD;&#xa;U8jCROHHwhdWycKaU8nCF7jMwmKaz8L//8zC8tjOwjxezsIUysvCzHLJwiJryMLRm8bCgLjKwsi8&#xD;&#xa;ysIhfszCPETLwqtbyMJGeMfCpRPJwnwZzMJSIs3CqhPMwmDiyMLZYsjCz13KwgwKy8LCi8jCyrTM&#xD;&#xa;wgwxzMK4ZcvC087JwkV2xsLyXsnCjIbLwhwvzcLfrM7CeITKwla3ysLK3cnC/PHFwpScxcIUQ8nC&#xD;&#xa;NJzIwrEsxsJvZcfCXSvIwlKLx8JII8nCvgzKwpnhysJSC8vC9iTKwiA/y8IadczCuDrMwuVaysLO&#xD;&#xa;r8vCXtfJwrZ6ycItucnCtonJwjyTysJkC83CL0nMwkjdyMIBucfCixrLwvSDysKGX8nCsCzMwuas&#xD;&#xa;0cIsnNPCuEvOwtr5y8LMBc7Cr+PTwsQc5MLcOfPCKOj0wjr59cJ0C/fCzg75wkwh+8LmVPnCqz72&#xD;&#xa;wnB+9cLuJvrCtEL4wkp7+MLOfffCDN3zwkaz9sLi8vjCFKr6wgIQ+cI8iPjCBpT4wvR1+MLQI/rC&#xD;&#xa;Ihn8wlQg+sIcLvjCVCz2wsI49MJQ9fbC23H3woy69sL4BfnCIOb2wjwy9cIuGvnCdmb3wj7K9MI+&#xD;&#xa;KPXCJpr2wn7C9cKQDvnCthv7woaP+cLGaPbCTr32wrpN+cIFSPjCDvX4wtD39sJY//TCKGf3wvZI&#xD;&#xa;+cK9YvfCgYf3wjIf+sLMMvfCpjz2wuA6+cII8vbCxDv1wmJG9sLka/rCPrT1wi589cLqjfbC9qP4&#xD;&#xa;wgzJ+MLelPbCGir2wlBC9sKeU/jC/nn3wsYn9sL4QPjCXBj5wopQ+MIaJvnCSB36wgjc+MIMfPfC&#xD;&#xa;W+z1wmYG+MKuxPnCCuD1wjh+9sLDrPfCOPj3wm7h+MJjMvfCxH/2wsXf98KwN/nCKOn5wrLR+sKg&#xD;&#xa;bPvCkFv5wsAu+cL2hffCySz2wmRX+MKiiPjCzFX4wvjB98Jgz/fCxPT4wobP+cL8avjC9r34wnKx&#xD;&#xa;+MK+LPnC3H34wle39cKejfbCNKP2wg5B9sK0H/rCSvz2woqE98JAqfjCBPL4wmKi+MIu2/jCMFD5&#xD;&#xa;wiCM+cKo//nCGqz7wlZN+sKUDfjC0ov4wrIU+sIVpffCP2/3woye98KktPbCTJj2wpH29cL3mvbC&#xD;&#xa;jL/4wti/+MLm3vjCQ9QE" leadInLength="0/1"  />
            </Keyframes>
           </Parameter>
           </Parameters>
          </GenericEffect>
          <GenericEffect id="6361" name = "WinCompression" >
           <Parameters>
           <InterpolatingParam id="6362" interp="linr"  time="0/1" value="0" leadInLength="0/1"   name="attack"/>
           <InterpolatingParam id="6363" interp="linr"  time="0/1" value="9" leadInLength="0/1"   name="gain"/>
           <Parameter id="6364"   name="preset">
            <Keyframes>
            <Keyframe id="6365"  time="0/1" value="1" leadInLength="0/1"  />
            </Keyframes>
           </Parameter>
           <InterpolatingParam id="6366" interp="linr"  time="0/1" value="10" leadInLength="0/1"   name="ratio"/>
           <InterpolatingParam id="6367" interp="linr"  time="0/1" value="3500" leadInLength="0/1"   name="release"/>
           <InterpolatingParam id="6368" interp="linr"  time="0/1" value="-20" leadInLength="0/1"   name="threshold"/>
           </Parameters>
          </GenericEffect>
          <GenericEffect id="6369" name = "Declipper" >
           <Parameters>
           <InterpolatingParam id="6370" interp="linr"  time="0/1" value="-1" leadInLength="0/1"   name="sensitivity"/>
           </Parameters>
          </GenericEffect>
          <GenericEffect id="6371" name = "Declicker" >
           <Parameters>
           <InterpolatingParam id="6372" interp="linr"  time="0/1" value="3" leadInLength="0/1"   name="sensitivity"/>
           </Parameters>
          </GenericEffect>
         </Effects>
         <Attributes>
          <Attribute id="6373" value="" name="ident"/>
          <Attribute id="6374" value="44100" name="sampleRate"/>
          <Attribute id="6375" value="16" name="bitDepth"/>
          <Attribute id="6376" value="1" name="gain"/>
          <Attribute id="6377" value="0" name="mixToMono"/>
         </Attributes>
         <MetaData>
          <entry key="WinSubProjectDisplayName" val=""/>
         </MetaData>
        </AMFile>
        <AMFile id="6378" start="8498" duration="43" scalar="1/1" mediaStart="14271/1" mediaDuration="43/1" trackNumber="0" src="22" channelNumber="0" >
         <Parameters>
          <InterpolatingParam id="6379" interp="linr"  name="volume">
           <Keyframes>
           <Keyframe id="6380"  time="0/1" value="1" leadInLength="0/1"  />
           <Keyframe id="6381"  time="3301/1" value="1" leadInLength="0/1"  />
           <Keyframe id="6382"  time="3302/1" value="0.80000000000000004" leadInLength="0/1"  />
           <Keyframe id="6383"  time="14568/1" value="0.80000000000000004" leadInLength="0/1"  />
           <Keyframe id="6384"  time="14569/1" value="1" leadInLength="0/1"  />
           </Keyframes>
          </InterpolatingParam>
          <Parameter id="6385"  name="captions"/>
         </Parameters>
         <Effects>
          <GenericEffect id="6386" name = "NoiseReduction" >
           <Parameters>
           <InterpolatingParam id="6387" interp="linr"  time="0/1" value="20" leadInLength="0/1"   name="denoiserAmount"/>
           <InterpolatingParam id="6388" interp="linr"  time="0/1" value="0" leadInLength="0/1"   name="denoiserThreshold"/>
           <Parameter id="6389"   name="noiseProfile">
            <Keyframes>
            <Keyframe id="6390"  time="0/1" value="FBAAAAIAAABErAAAAQIAADOmYsI/y13CPNeLwsehjcK+No/Cm+aOwlHvjcIja5HCun6XwoKemMJy&#xD;&#xa;lpPCuQeRwhgMlcJGdZvCTjScwgFMncIGh5zCGrOawuO0nMJdJZ3Cybudwo6toMIdraPCs/6jwpY0&#xD;&#xa;psLIUqjCWQmpwonmp8KcE6XCgXGlwqC+psIFHabCBoyownWvqcIkX6jCgnCpwms3qsIW0KfCM7Oj&#xD;&#xa;wnGLosJgcKnCdk6swiIgscKFrbDCtNmowrZmpcIHYqjCCg2pwqUNq8KgHq7ChEGxwhVFs8KU6LLC&#xD;&#xa;dvWzwpVHscI6NrDCMpGwwubcs8Imh7bCPKq6wj7tvMKSbr3ClsG+wq4qwMLXQr7CpAK5whxiuMJp&#xD;&#xa;v7nCwu29wloQvsIXTL3CzjDAwsDTwcL69sHC8urAwtAFwMIkSMLCpJHDwjLOw8JG8sTCmMvDwq7H&#xD;&#xa;wsLOncPC+CDDwkh6wsLU5sPCP23Fwm5Qx8KlYsTCm0XCwnhexcLsTsPCSMPDwjvJw8LMWcHC2XHD&#xD;&#xa;wjj5wsICs8TChWvEwgCywcKDdcHCFnHCwurMxMLlVsTCfrDGwmzqyMKoGsfC7ITIwtqRyMJwzcbC&#xD;&#xa;ppbEwiv5xcIXxsTCzDfCwtSExMKEjcTC8ObDwiJ9yMIQm8vCIkDGwqHyxcIyYcbCyAXIwmyBx8I4&#xD;&#xa;n8PCvyPGwuiKxMJggMfCdL3JwsMhysLi6sXCRa7Ewoykx8Jk/MXC0NfEwtK0xcJQTMTCvvvGwtqJ&#xD;&#xa;xMKmFsTCSbfGwq76x8IQ+sjCsqnIwkJdycIaT8fC0nbHwlf2xsLg/cbCtIHHwsTvxsI0KsbCsqDH&#xD;&#xa;wgLix8JGKcXCyNTDwjDwwsIb98bC6MjJwg6Zy8Kg+cvCaC3HwtIgw8KW7sXC3EHGwmcUxcL++8fC&#xD;&#xa;CWbIwsDoxsJFz8PCJkXFwiD7xcIQDsfC8ljIwrDLxMKkeMLClpHEwiqgyMJcjcjC6krGwl50w8Iy&#xD;&#xa;7sXCWv3HwkQ1xsKUwMPC2K/EwootxMJUqMTCH3LDwuojxcKil8fCjmXIwkLJxcID78TClTvGwhel&#xD;&#xa;xsIca8bC1rbCwk6+wsIQfsfCIlPHwpJExcLWhMbCDNvEwuryxMKklMXCeBDDwolhwcIiasLCQYfE&#xD;&#xa;whUfwsJx4MTCsEnIwkX0xcK+3sbCIqLHwrARx8IWtMTCGAnFwomNxMLfbcTCQIPDwjqww8L+MMTC&#xD;&#xa;mqjHwrBaxMI6YsTCxmvIwqyKycKQaMXCnx7FwkYvx8In6sjCGMzIwuvAxcL8a8XCiBjJwkvwyMKI&#xD;&#xa;qMbCTCTIwvQSy8IxEsvCVT/JwrI3w8LA8sLCCD7EwsxXxMJSjsXCfjXFwqTKxMI/gsPCDozDwtwF&#xD;&#xa;xMISn8bChHvJwlFQyMJYCsbCP4jIwtkBycLiFsrCbCrKwvyTysIWncnC+A3HwuI5x8I8/MbC0hHI&#xD;&#xa;wopJzMLmb83CFkvMwpy/y8Kn7MrCfJrJwuLDyMJKn8bCStTGwpb7ycIMo8nCcivFwsapxcJkx8bC&#xD;&#xa;ALLIwriaycJM3cfC8r/KwlSoy8I4A8vCpFHJwkRrzMIKr87CWD7MwsiJycKW9cfCUjbKwq+YycLi&#xD;&#xa;U8jCROHHwhdWycKaU8nCF7jMwmKaz8L//8zC8tjOwjxezsIUysvCzHLJwiJryMLRm8bCgLjKwsi8&#xD;&#xa;ysIhfszCPETLwqtbyMJGeMfCpRPJwnwZzMJSIs3CqhPMwmDiyMLZYsjCz13KwgwKy8LCi8jCyrTM&#xD;&#xa;wgwxzMK4ZcvC087JwkV2xsLyXsnCjIbLwhwvzcLfrM7CeITKwla3ysLK3cnC/PHFwpScxcIUQ8nC&#xD;&#xa;NJzIwrEsxsJvZcfCXSvIwlKLx8JII8nCvgzKwpnhysJSC8vC9iTKwiA/y8IadczCuDrMwuVaysLO&#xD;&#xa;r8vCXtfJwrZ6ycItucnCtonJwjyTysJkC83CL0nMwkjdyMIBucfCixrLwvSDysKGX8nCsCzMwuas&#xD;&#xa;0cIsnNPCuEvOwtr5y8LMBc7Cr+PTwsQc5MLcOfPCKOj0wjr59cJ0C/fCzg75wkwh+8LmVPnCqz72&#xD;&#xa;wnB+9cLuJvrCtEL4wkp7+MLOfffCDN3zwkaz9sLi8vjCFKr6wgIQ+cI8iPjCBpT4wvR1+MLQI/rC&#xD;&#xa;Ihn8wlQg+sIcLvjCVCz2wsI49MJQ9fbC23H3woy69sL4BfnCIOb2wjwy9cIuGvnCdmb3wj7K9MI+&#xD;&#xa;KPXCJpr2wn7C9cKQDvnCthv7woaP+cLGaPbCTr32wrpN+cIFSPjCDvX4wtD39sJY//TCKGf3wvZI&#xD;&#xa;+cK9YvfCgYf3wjIf+sLMMvfCpjz2wuA6+cII8vbCxDv1wmJG9sLka/rCPrT1wi589cLqjfbC9qP4&#xD;&#xa;wgzJ+MLelPbCGir2wlBC9sKeU/jC/nn3wsYn9sL4QPjCXBj5wopQ+MIaJvnCSB36wgjc+MIMfPfC&#xD;&#xa;W+z1wmYG+MKuxPnCCuD1wjh+9sLDrPfCOPj3wm7h+MJjMvfCxH/2wsXf98KwN/nCKOn5wrLR+sKg&#xD;&#xa;bPvCkFv5wsAu+cL2hffCySz2wmRX+MKiiPjCzFX4wvjB98Jgz/fCxPT4wobP+cL8avjC9r34wnKx&#xD;&#xa;+MK+LPnC3H34wle39cKejfbCNKP2wg5B9sK0H/rCSvz2woqE98JAqfjCBPL4wmKi+MIu2/jCMFD5&#xD;&#xa;wiCM+cKo//nCGqz7wlZN+sKUDfjC0ov4wrIU+sIVpffCP2/3woye98KktPbCTJj2wpH29cL3mvbC&#xD;&#xa;jL/4wti/+MLm3vjCQ9QEwzOmYsI/y13CPNeLwsehjcK+No/Cm+aOwlHvjcIja5HCun6XwoKemMJy&#xD;&#xa;lpPCuQeRwhgMlcJGdZvCTjScwgFMncIGh5zCGrOawuO0nMJdJZ3Cybudwo6toMIdraPCs/6jwpY0&#xD;&#xa;psLIUqjCWQmpwonmp8KcE6XCgXGlwqC+psIFHabCBoyownWvqcIkX6jCgnCpwms3qsIW0KfCM7Oj&#xD;&#xa;wnGLosJgcKnCdk6swiIgscKFrbDCtNmowrZmpcIHYqjCCg2pwqUNq8KgHq7ChEGxwhVFs8KU6LLC&#xD;&#xa;dvWzwpVHscI6NrDCMpGwwubcs8Imh7bCPKq6wj7tvMKSbr3ClsG+wq4qwMLXQr7CpAK5whxiuMJp&#xD;&#xa;v7nCwu29wloQvsIXTL3CzjDAwsDTwcL69sHC8urAwtAFwMIkSMLCpJHDwjLOw8JG8sTCmMvDwq7H&#xD;&#xa;wsLOncPC+CDDwkh6wsLU5sPCP23Fwm5Qx8KlYsTCm0XCwnhexcLsTsPCSMPDwjvJw8LMWcHC2XHD&#xD;&#xa;wjj5wsICs8TChWvEwgCywcKDdcHCFnHCwurMxMLlVsTCfrDGwmzqyMKoGsfC7ITIwtqRyMJwzcbC&#xD;&#xa;ppbEwiv5xcIXxsTCzDfCwtSExMKEjcTC8ObDwiJ9yMIQm8vCIkDGwqHyxcIyYcbCyAXIwmyBx8I4&#xD;&#xa;n8PCvyPGwuiKxMJggMfCdL3JwsMhysLi6sXCRa7Ewoykx8Jk/MXC0NfEwtK0xcJQTMTCvvvGwtqJ&#xD;&#xa;xMKmFsTCSbfGwq76x8IQ+sjCsqnIwkJdycIaT8fC0nbHwlf2xsLg/cbCtIHHwsTvxsI0KsbCsqDH&#xD;&#xa;wgLix8JGKcXCyNTDwjDwwsIb98bC6MjJwg6Zy8Kg+cvCaC3HwtIgw8KW7sXC3EHGwmcUxcL++8fC&#xD;&#xa;CWbIwsDoxsJFz8PCJkXFwiD7xcIQDsfC8ljIwrDLxMKkeMLClpHEwiqgyMJcjcjC6krGwl50w8Iy&#xD;&#xa;7sXCWv3HwkQ1xsKUwMPC2K/EwootxMJUqMTCH3LDwuojxcKil8fCjmXIwkLJxcID78TClTvGwhel&#xD;&#xa;xsIca8bC1rbCwk6+wsIQfsfCIlPHwpJExcLWhMbCDNvEwuryxMKklMXCeBDDwolhwcIiasLCQYfE&#xD;&#xa;whUfwsJx4MTCsEnIwkX0xcK+3sbCIqLHwrARx8IWtMTCGAnFwomNxMLfbcTCQIPDwjqww8L+MMTC&#xD;&#xa;mqjHwrBaxMI6YsTCxmvIwqyKycKQaMXCnx7FwkYvx8In6sjCGMzIwuvAxcL8a8XCiBjJwkvwyMKI&#xD;&#xa;qMbCTCTIwvQSy8IxEsvCVT/JwrI3w8LA8sLCCD7EwsxXxMJSjsXCfjXFwqTKxMI/gsPCDozDwtwF&#xD;&#xa;xMISn8bChHvJwlFQyMJYCsbCP4jIwtkBycLiFsrCbCrKwvyTysIWncnC+A3HwuI5x8I8/MbC0hHI&#xD;&#xa;wopJzMLmb83CFkvMwpy/y8Kn7MrCfJrJwuLDyMJKn8bCStTGwpb7ycIMo8nCcivFwsapxcJkx8bC&#xD;&#xa;ALLIwriaycJM3cfC8r/KwlSoy8I4A8vCpFHJwkRrzMIKr87CWD7MwsiJycKW9cfCUjbKwq+YycLi&#xD;&#xa;U8jCROHHwhdWycKaU8nCF7jMwmKaz8L//8zC8tjOwjxezsIUysvCzHLJwiJryMLRm8bCgLjKwsi8&#xD;&#xa;ysIhfszCPETLwqtbyMJGeMfCpRPJwnwZzMJSIs3CqhPMwmDiyMLZYsjCz13KwgwKy8LCi8jCyrTM&#xD;&#xa;wgwxzMK4ZcvC087JwkV2xsLyXsnCjIbLwhwvzcLfrM7CeITKwla3ysLK3cnC/PHFwpScxcIUQ8nC&#xD;&#xa;NJzIwrEsxsJvZcfCXSvIwlKLx8JII8nCvgzKwpnhysJSC8vC9iTKwiA/y8IadczCuDrMwuVaysLO&#xD;&#xa;r8vCXtfJwrZ6ycItucnCtonJwjyTysJkC83CL0nMwkjdyMIBucfCixrLwvSDysKGX8nCsCzMwuas&#xD;&#xa;0cIsnNPCuEvOwtr5y8LMBc7Cr+PTwsQc5MLcOfPCKOj0wjr59cJ0C/fCzg75wkwh+8LmVPnCqz72&#xD;&#xa;wnB+9cLuJvrCtEL4wkp7+MLOfffCDN3zwkaz9sLi8vjCFKr6wgIQ+cI8iPjCBpT4wvR1+MLQI/rC&#xD;&#xa;Ihn8wlQg+sIcLvjCVCz2wsI49MJQ9fbC23H3woy69sL4BfnCIOb2wjwy9cIuGvnCdmb3wj7K9MI+&#xD;&#xa;KPXCJpr2wn7C9cKQDvnCthv7woaP+cLGaPbCTr32wrpN+cIFSPjCDvX4wtD39sJY//TCKGf3wvZI&#xD;&#xa;+cK9YvfCgYf3wjIf+sLMMvfCpjz2wuA6+cII8vbCxDv1wmJG9sLka/rCPrT1wi589cLqjfbC9qP4&#xD;&#xa;wgzJ+MLelPbCGir2wlBC9sKeU/jC/nn3wsYn9sL4QPjCXBj5wopQ+MIaJvnCSB36wgjc+MIMfPfC&#xD;&#xa;W+z1wmYG+MKuxPnCCuD1wjh+9sLDrPfCOPj3wm7h+MJjMvfCxH/2wsXf98KwN/nCKOn5wrLR+sKg&#xD;&#xa;bPvCkFv5wsAu+cL2hffCySz2wmRX+MKiiPjCzFX4wvjB98Jgz/fCxPT4wobP+cL8avjC9r34wnKx&#xD;&#xa;+MK+LPnC3H34wle39cKejfbCNKP2wg5B9sK0H/rCSvz2woqE98JAqfjCBPL4wmKi+MIu2/jCMFD5&#xD;&#xa;wiCM+cKo//nCGqz7wlZN+sKUDfjC0ov4wrIU+sIVpffCP2/3woye98KktPbCTJj2wpH29cL3mvbC&#xD;&#xa;jL/4wti/+MLm3vjCQ9QE" leadInLength="0/1"  />
            </Keyframes>
           </Parameter>
           </Parameters>
          </GenericEffect>
          <GenericEffect id="6391" name = "WinCompression" >
           <Parameters>
           <InterpolatingParam id="6392" interp="linr"  time="0/1" value="0" leadInLength="0/1"   name="attack"/>
           <InterpolatingParam id="6393" interp="linr"  time="0/1" value="9" leadInLength="0/1"   name="gain"/>
           <Parameter id="6394"   name="preset">
            <Keyframes>
            <Keyframe id="6395"  time="0/1" value="1" leadInLength="0/1"  />
            </Keyframes>
           </Parameter>
           <InterpolatingParam id="6396" interp="linr"  time="0/1" value="10" leadInLength="0/1"   name="ratio"/>
           <InterpolatingParam id="6397" interp="linr"  time="0/1" value="3500" leadInLength="0/1"   name="release"/>
           <InterpolatingParam id="6398" interp="linr"  time="0/1" value="-20" leadInLength="0/1"   name="threshold"/>
           </Parameters>
          </GenericEffect>
          <GenericEffect id="6399" name = "Declipper" >
           <Parameters>
           <InterpolatingParam id="6400" interp="linr"  time="0/1" value="-1" leadInLength="0/1"   name="sensitivity"/>
           </Parameters>
          </GenericEffect>
          <GenericEffect id="6401" name = "Declicker" >
           <Parameters>
           <InterpolatingParam id="6402" interp="linr"  time="0/1" value="3" leadInLength="0/1"   name="sensitivity"/>
           </Parameters>
          </GenericEffect>
         </Effects>
         <Attributes>
          <Attribute id="6403" value="" name="ident"/>
          <Attribute id="6404" value="44100" name="sampleRate"/>
          <Attribute id="6405" value="16" name="bitDepth"/>
          <Attribute id="6406" value="1" name="gain"/>
          <Attribute id="6407" value="0" name="mixToMono"/>
         </Attributes>
         <MetaData>
          <entry key="WinSubProjectDisplayName" val=""/>
         </MetaData>
        </AMFile>
        <AMFile id="6408" start="8548" duration="98" scalar="1/1" mediaStart="14314/1" mediaDuration="98/1" trackNumber="0" src="22" channelNumber="0" >
         <Parameters>
          <InterpolatingParam id="6409" interp="linr"  name="volume">
           <Keyframes>
           <Keyframe id="6410"  time="0/1" value="1" leadInLength="0/1"  />
           <Keyframe id="6411"  time="3301/1" value="1" leadInLength="0/1"  />
           <Keyframe id="6412"  time="3302/1" value="0.80000000000000004" leadInLength="0/1"  />
           <Keyframe id="6413"  time="14568/1" value="0.80000000000000004" leadInLength="0/1"  />
           <Keyframe id="6414"  time="14569/1" value="1" leadInLength="0/1"  />
           </Keyframes>
          </InterpolatingParam>
          <Parameter id="6415"  name="captions"/>
         </Parameters>
         <Effects>
          <GenericEffect id="6416" name = "NoiseReduction" >
           <Parameters>
           <InterpolatingParam id="6417" interp="linr"  time="0/1" value="20" leadInLength="0/1"   name="denoiserAmount"/>
           <InterpolatingParam id="6418" interp="linr"  time="0/1" value="0" leadInLength="0/1"   name="denoiserThreshold"/>
           <Parameter id="6419"   name="noiseProfile">
            <Keyframes>
            <Keyframe id="6420"  time="0/1" value="FBAAAAIAAABErAAAAQIAADOmYsI/y13CPNeLwsehjcK+No/Cm+aOwlHvjcIja5HCun6XwoKemMJy&#xD;&#xa;lpPCuQeRwhgMlcJGdZvCTjScwgFMncIGh5zCGrOawuO0nMJdJZ3Cybudwo6toMIdraPCs/6jwpY0&#xD;&#xa;psLIUqjCWQmpwonmp8KcE6XCgXGlwqC+psIFHabCBoyownWvqcIkX6jCgnCpwms3qsIW0KfCM7Oj&#xD;&#xa;wnGLosJgcKnCdk6swiIgscKFrbDCtNmowrZmpcIHYqjCCg2pwqUNq8KgHq7ChEGxwhVFs8KU6LLC&#xD;&#xa;dvWzwpVHscI6NrDCMpGwwubcs8Imh7bCPKq6wj7tvMKSbr3ClsG+wq4qwMLXQr7CpAK5whxiuMJp&#xD;&#xa;v7nCwu29wloQvsIXTL3CzjDAwsDTwcL69sHC8urAwtAFwMIkSMLCpJHDwjLOw8JG8sTCmMvDwq7H&#xD;&#xa;wsLOncPC+CDDwkh6wsLU5sPCP23Fwm5Qx8KlYsTCm0XCwnhexcLsTsPCSMPDwjvJw8LMWcHC2XHD&#xD;&#xa;wjj5wsICs8TChWvEwgCywcKDdcHCFnHCwurMxMLlVsTCfrDGwmzqyMKoGsfC7ITIwtqRyMJwzcbC&#xD;&#xa;ppbEwiv5xcIXxsTCzDfCwtSExMKEjcTC8ObDwiJ9yMIQm8vCIkDGwqHyxcIyYcbCyAXIwmyBx8I4&#xD;&#xa;n8PCvyPGwuiKxMJggMfCdL3JwsMhysLi6sXCRa7Ewoykx8Jk/MXC0NfEwtK0xcJQTMTCvvvGwtqJ&#xD;&#xa;xMKmFsTCSbfGwq76x8IQ+sjCsqnIwkJdycIaT8fC0nbHwlf2xsLg/cbCtIHHwsTvxsI0KsbCsqDH&#xD;&#xa;wgLix8JGKcXCyNTDwjDwwsIb98bC6MjJwg6Zy8Kg+cvCaC3HwtIgw8KW7sXC3EHGwmcUxcL++8fC&#xD;&#xa;CWbIwsDoxsJFz8PCJkXFwiD7xcIQDsfC8ljIwrDLxMKkeMLClpHEwiqgyMJcjcjC6krGwl50w8Iy&#xD;&#xa;7sXCWv3HwkQ1xsKUwMPC2K/EwootxMJUqMTCH3LDwuojxcKil8fCjmXIwkLJxcID78TClTvGwhel&#xD;&#xa;xsIca8bC1rbCwk6+wsIQfsfCIlPHwpJExcLWhMbCDNvEwuryxMKklMXCeBDDwolhwcIiasLCQYfE&#xD;&#xa;whUfwsJx4MTCsEnIwkX0xcK+3sbCIqLHwrARx8IWtMTCGAnFwomNxMLfbcTCQIPDwjqww8L+MMTC&#xD;&#xa;mqjHwrBaxMI6YsTCxmvIwqyKycKQaMXCnx7FwkYvx8In6sjCGMzIwuvAxcL8a8XCiBjJwkvwyMKI&#xD;&#xa;qMbCTCTIwvQSy8IxEsvCVT/JwrI3w8LA8sLCCD7EwsxXxMJSjsXCfjXFwqTKxMI/gsPCDozDwtwF&#xD;&#xa;xMISn8bChHvJwlFQyMJYCsbCP4jIwtkBycLiFsrCbCrKwvyTysIWncnC+A3HwuI5x8I8/MbC0hHI&#xD;&#xa;wopJzMLmb83CFkvMwpy/y8Kn7MrCfJrJwuLDyMJKn8bCStTGwpb7ycIMo8nCcivFwsapxcJkx8bC&#xD;&#xa;ALLIwriaycJM3cfC8r/KwlSoy8I4A8vCpFHJwkRrzMIKr87CWD7MwsiJycKW9cfCUjbKwq+YycLi&#xD;&#xa;U8jCROHHwhdWycKaU8nCF7jMwmKaz8L//8zC8tjOwjxezsIUysvCzHLJwiJryMLRm8bCgLjKwsi8&#xD;&#xa;ysIhfszCPETLwqtbyMJGeMfCpRPJwnwZzMJSIs3CqhPMwmDiyMLZYsjCz13KwgwKy8LCi8jCyrTM&#xD;&#xa;wgwxzMK4ZcvC087JwkV2xsLyXsnCjIbLwhwvzcLfrM7CeITKwla3ysLK3cnC/PHFwpScxcIUQ8nC&#xD;&#xa;NJzIwrEsxsJvZcfCXSvIwlKLx8JII8nCvgzKwpnhysJSC8vC9iTKwiA/y8IadczCuDrMwuVaysLO&#xD;&#xa;r8vCXtfJwrZ6ycItucnCtonJwjyTysJkC83CL0nMwkjdyMIBucfCixrLwvSDysKGX8nCsCzMwuas&#xD;&#xa;0cIsnNPCuEvOwtr5y8LMBc7Cr+PTwsQc5MLcOfPCKOj0wjr59cJ0C/fCzg75wkwh+8LmVPnCqz72&#xD;&#xa;wnB+9cLuJvrCtEL4wkp7+MLOfffCDN3zwkaz9sLi8vjCFKr6wgIQ+cI8iPjCBpT4wvR1+MLQI/rC&#xD;&#xa;Ihn8wlQg+sIcLvjCVCz2wsI49MJQ9fbC23H3woy69sL4BfnCIOb2wjwy9cIuGvnCdmb3wj7K9MI+&#xD;&#xa;KPXCJpr2wn7C9cKQDvnCthv7woaP+cLGaPbCTr32wrpN+cIFSPjCDvX4wtD39sJY//TCKGf3wvZI&#xD;&#xa;+cK9YvfCgYf3wjIf+sLMMvfCpjz2wuA6+cII8vbCxDv1wmJG9sLka/rCPrT1wi589cLqjfbC9qP4&#xD;&#xa;wgzJ+MLelPbCGir2wlBC9sKeU/jC/nn3wsYn9sL4QPjCXBj5wopQ+MIaJvnCSB36wgjc+MIMfPfC&#xD;&#xa;W+z1wmYG+MKuxPnCCuD1wjh+9sLDrPfCOPj3wm7h+MJjMvfCxH/2wsXf98KwN/nCKOn5wrLR+sKg&#xD;&#xa;bPvCkFv5wsAu+cL2hffCySz2wmRX+MKiiPjCzFX4wvjB98Jgz/fCxPT4wobP+cL8avjC9r34wnKx&#xD;&#xa;+MK+LPnC3H34wle39cKejfbCNKP2wg5B9sK0H/rCSvz2woqE98JAqfjCBPL4wmKi+MIu2/jCMFD5&#xD;&#xa;wiCM+cKo//nCGqz7wlZN+sKUDfjC0ov4wrIU+sIVpffCP2/3woye98KktPbCTJj2wpH29cL3mvbC&#xD;&#xa;jL/4wti/+MLm3vjCQ9QEwzOmYsI/y13CPNeLwsehjcK+No/Cm+aOwlHvjcIja5HCun6XwoKemMJy&#xD;&#xa;lpPCuQeRwhgMlcJGdZvCTjScwgFMncIGh5zCGrOawuO0nMJdJZ3Cybudwo6toMIdraPCs/6jwpY0&#xD;&#xa;psLIUqjCWQmpwonmp8KcE6XCgXGlwqC+psIFHabCBoyownWvqcIkX6jCgnCpwms3qsIW0KfCM7Oj&#xD;&#xa;wnGLosJgcKnCdk6swiIgscKFrbDCtNmowrZmpcIHYqjCCg2pwqUNq8KgHq7ChEGxwhVFs8KU6LLC&#xD;&#xa;dvWzwpVHscI6NrDCMpGwwubcs8Imh7bCPKq6wj7tvMKSbr3ClsG+wq4qwMLXQr7CpAK5whxiuMJp&#xD;&#xa;v7nCwu29wloQvsIXTL3CzjDAwsDTwcL69sHC8urAwtAFwMIkSMLCpJHDwjLOw8JG8sTCmMvDwq7H&#xD;&#xa;wsLOncPC+CDDwkh6wsLU5sPCP23Fwm5Qx8KlYsTCm0XCwnhexcLsTsPCSMPDwjvJw8LMWcHC2XHD&#xD;&#xa;wjj5wsICs8TChWvEwgCywcKDdcHCFnHCwurMxMLlVsTCfrDGwmzqyMKoGsfC7ITIwtqRyMJwzcbC&#xD;&#xa;ppbEwiv5xcIXxsTCzDfCwtSExMKEjcTC8ObDwiJ9yMIQm8vCIkDGwqHyxcIyYcbCyAXIwmyBx8I4&#xD;&#xa;n8PCvyPGwuiKxMJggMfCdL3JwsMhysLi6sXCRa7Ewoykx8Jk/MXC0NfEwtK0xcJQTMTCvvvGwtqJ&#xD;&#xa;xMKmFsTCSbfGwq76x8IQ+sjCsqnIwkJdycIaT8fC0nbHwlf2xsLg/cbCtIHHwsTvxsI0KsbCsqDH&#xD;&#xa;wgLix8JGKcXCyNTDwjDwwsIb98bC6MjJwg6Zy8Kg+cvCaC3HwtIgw8KW7sXC3EHGwmcUxcL++8fC&#xD;&#xa;CWbIwsDoxsJFz8PCJkXFwiD7xcIQDsfC8ljIwrDLxMKkeMLClpHEwiqgyMJcjcjC6krGwl50w8Iy&#xD;&#xa;7sXCWv3HwkQ1xsKUwMPC2K/EwootxMJUqMTCH3LDwuojxcKil8fCjmXIwkLJxcID78TClTvGwhel&#xD;&#xa;xsIca8bC1rbCwk6+wsIQfsfCIlPHwpJExcLWhMbCDNvEwuryxMKklMXCeBDDwolhwcIiasLCQYfE&#xD;&#xa;whUfwsJx4MTCsEnIwkX0xcK+3sbCIqLHwrARx8IWtMTCGAnFwomNxMLfbcTCQIPDwjqww8L+MMTC&#xD;&#xa;mqjHwrBaxMI6YsTCxmvIwqyKycKQaMXCnx7FwkYvx8In6sjCGMzIwuvAxcL8a8XCiBjJwkvwyMKI&#xD;&#xa;qMbCTCTIwvQSy8IxEsvCVT/JwrI3w8LA8sLCCD7EwsxXxMJSjsXCfjXFwqTKxMI/gsPCDozDwtwF&#xD;&#xa;xMISn8bChHvJwlFQyMJYCsbCP4jIwtkBycLiFsrCbCrKwvyTysIWncnC+A3HwuI5x8I8/MbC0hHI&#xD;&#xa;wopJzMLmb83CFkvMwpy/y8Kn7MrCfJrJwuLDyMJKn8bCStTGwpb7ycIMo8nCcivFwsapxcJkx8bC&#xD;&#xa;ALLIwriaycJM3cfC8r/KwlSoy8I4A8vCpFHJwkRrzMIKr87CWD7MwsiJycKW9cfCUjbKwq+YycLi&#xD;&#xa;U8jCROHHwhdWycKaU8nCF7jMwmKaz8L//8zC8tjOwjxezsIUysvCzHLJwiJryMLRm8bCgLjKwsi8&#xD;&#xa;ysIhfszCPETLwqtbyMJGeMfCpRPJwnwZzMJSIs3CqhPMwmDiyMLZYsjCz13KwgwKy8LCi8jCyrTM&#xD;&#xa;wgwxzMK4ZcvC087JwkV2xsLyXsnCjIbLwhwvzcLfrM7CeITKwla3ysLK3cnC/PHFwpScxcIUQ8nC&#xD;&#xa;NJzIwrEsxsJvZcfCXSvIwlKLx8JII8nCvgzKwpnhysJSC8vC9iTKwiA/y8IadczCuDrMwuVaysLO&#xD;&#xa;r8vCXtfJwrZ6ycItucnCtonJwjyTysJkC83CL0nMwkjdyMIBucfCixrLwvSDysKGX8nCsCzMwuas&#xD;&#xa;0cIsnNPCuEvOwtr5y8LMBc7Cr+PTwsQc5MLcOfPCKOj0wjr59cJ0C/fCzg75wkwh+8LmVPnCqz72&#xD;&#xa;wnB+9cLuJvrCtEL4wkp7+MLOfffCDN3zwkaz9sLi8vjCFKr6wgIQ+cI8iPjCBpT4wvR1+MLQI/rC&#xD;&#xa;Ihn8wlQg+sIcLvjCVCz2wsI49MJQ9fbC23H3woy69sL4BfnCIOb2wjwy9cIuGvnCdmb3wj7K9MI+&#xD;&#xa;KPXCJpr2wn7C9cKQDvnCthv7woaP+cLGaPbCTr32wrpN+cIFSPjCDvX4wtD39sJY//TCKGf3wvZI&#xD;&#xa;+cK9YvfCgYf3wjIf+sLMMvfCpjz2wuA6+cII8vbCxDv1wmJG9sLka/rCPrT1wi589cLqjfbC9qP4&#xD;&#xa;wgzJ+MLelPbCGir2wlBC9sKeU/jC/nn3wsYn9sL4QPjCXBj5wopQ+MIaJvnCSB36wgjc+MIMfPfC&#xD;&#xa;W+z1wmYG+MKuxPnCCuD1wjh+9sLDrPfCOPj3wm7h+MJjMvfCxH/2wsXf98KwN/nCKOn5wrLR+sKg&#xD;&#xa;bPvCkFv5wsAu+cL2hffCySz2wmRX+MKiiPjCzFX4wvjB98Jgz/fCxPT4wobP+cL8avjC9r34wnKx&#xD;&#xa;+MK+LPnC3H34wle39cKejfbCNKP2wg5B9sK0H/rCSvz2woqE98JAqfjCBPL4wmKi+MIu2/jCMFD5&#xD;&#xa;wiCM+cKo//nCGqz7wlZN+sKUDfjC0ov4wrIU+sIVpffCP2/3woye98KktPbCTJj2wpH29cL3mvbC&#xD;&#xa;jL/4wti/+MLm3vjCQ9QE" leadInLength="0/1"  />
            </Keyframes>
           </Parameter>
           </Parameters>
          </GenericEffect>
          <GenericEffect id="6421" name = "WinCompression" >
           <Parameters>
           <InterpolatingParam id="6422" interp="linr"  time="0/1" value="0" leadInLength="0/1"   name="attack"/>
           <InterpolatingParam id="6423" interp="linr"  time="0/1" value="9" leadInLength="0/1"   name="gain"/>
           <Parameter id="6424"   name="preset">
            <Keyframes>
            <Keyframe id="6425"  time="0/1" value="1" leadInLength="0/1"  />
            </Keyframes>
           </Parameter>
           <InterpolatingParam id="6426" interp="linr"  time="0/1" value="10" leadInLength="0/1"   name="ratio"/>
           <InterpolatingParam id="6427" interp="linr"  time="0/1" value="3500" leadInLength="0/1"   name="release"/>
           <InterpolatingParam id="6428" interp="linr"  time="0/1" value="-20" leadInLength="0/1"   name="threshold"/>
           </Parameters>
          </GenericEffect>
          <GenericEffect id="6429" name = "Declipper" >
           <Parameters>
           <InterpolatingParam id="6430" interp="linr"  time="0/1" value="-1" leadInLength="0/1"   name="sensitivity"/>
           </Parameters>
          </GenericEffect>
          <GenericEffect id="6431" name = "Declicker" >
           <Parameters>
           <InterpolatingParam id="6432" interp="linr"  time="0/1" value="3" leadInLength="0/1"   name="sensitivity"/>
           </Parameters>
          </GenericEffect>
         </Effects>
         <Attributes>
          <Attribute id="6433" value="" name="ident"/>
          <Attribute id="6434" value="44100" name="sampleRate"/>
          <Attribute id="6435" value="16" name="bitDepth"/>
          <Attribute id="6436" value="1" name="gain"/>
          <Attribute id="6437" value="0" name="mixToMono"/>
         </Attributes>
         <MetaData>
          <entry key="WinSubProjectDisplayName" val=""/>
         </MetaData>
        </AMFile>
        <AMFile id="6438" start="8655" duration="38" scalar="1/1" mediaStart="14412/1" mediaDuration="38/1" trackNumber="0" src="22" channelNumber="0" >
         <Parameters>
          <InterpolatingParam id="6439" interp="linr"  name="volume">
           <Keyframes>
           <Keyframe id="6440"  time="0/1" value="1" leadInLength="0/1"  />
           <Keyframe id="6441"  time="3301/1" value="1" leadInLength="0/1"  />
           <Keyframe id="6442"  time="3302/1" value="0.80000000000000004" leadInLength="0/1"  />
           <Keyframe id="6443"  time="14568/1" value="0.80000000000000004" leadInLength="0/1"  />
           <Keyframe id="6444"  time="14569/1" value="1" leadInLength="0/1"  />
           </Keyframes>
          </InterpolatingParam>
          <Parameter id="6445"  name="captions"/>
         </Parameters>
         <Effects>
          <GenericEffect id="6446" name = "NoiseReduction" >
           <Parameters>
           <InterpolatingParam id="6447" interp="linr"  time="0/1" value="20" leadInLength="0/1"   name="denoiserAmount"/>
           <InterpolatingParam id="6448" interp="linr"  time="0/1" value="0" leadInLength="0/1"   name="denoiserThreshold"/>
           <Parameter id="6449"   name="noiseProfile">
            <Keyframes>
            <Keyframe id="6450"  time="0/1" value="FBAAAAIAAABErAAAAQIAADOmYsI/y13CPNeLwsehjcK+No/Cm+aOwlHvjcIja5HCun6XwoKemMJy&#xD;&#xa;lpPCuQeRwhgMlcJGdZvCTjScwgFMncIGh5zCGrOawuO0nMJdJZ3Cybudwo6toMIdraPCs/6jwpY0&#xD;&#xa;psLIUqjCWQmpwonmp8KcE6XCgXGlwqC+psIFHabCBoyownWvqcIkX6jCgnCpwms3qsIW0KfCM7Oj&#xD;&#xa;wnGLosJgcKnCdk6swiIgscKFrbDCtNmowrZmpcIHYqjCCg2pwqUNq8KgHq7ChEGxwhVFs8KU6LLC&#xD;&#xa;dvWzwpVHscI6NrDCMpGwwubcs8Imh7bCPKq6wj7tvMKSbr3ClsG+wq4qwMLXQr7CpAK5whxiuMJp&#xD;&#xa;v7nCwu29wloQvsIXTL3CzjDAwsDTwcL69sHC8urAwtAFwMIkSMLCpJHDwjLOw8JG8sTCmMvDwq7H&#xD;&#xa;wsLOncPC+CDDwkh6wsLU5sPCP23Fwm5Qx8KlYsTCm0XCwnhexcLsTsPCSMPDwjvJw8LMWcHC2XHD&#xD;&#xa;wjj5wsICs8TChWvEwgCywcKDdcHCFnHCwurMxMLlVsTCfrDGwmzqyMKoGsfC7ITIwtqRyMJwzcbC&#xD;&#xa;ppbEwiv5xcIXxsTCzDfCwtSExMKEjcTC8ObDwiJ9yMIQm8vCIkDGwqHyxcIyYcbCyAXIwmyBx8I4&#xD;&#xa;n8PCvyPGwuiKxMJggMfCdL3JwsMhysLi6sXCRa7Ewoykx8Jk/MXC0NfEwtK0xcJQTMTCvvvGwtqJ&#xD;&#xa;xMKmFsTCSbfGwq76x8IQ+sjCsqnIwkJdycIaT8fC0nbHwlf2xsLg/cbCtIHHwsTvxsI0KsbCsqDH&#xD;&#xa;wgLix8JGKcXCyNTDwjDwwsIb98bC6MjJwg6Zy8Kg+cvCaC3HwtIgw8KW7sXC3EHGwmcUxcL++8fC&#xD;&#xa;CWbIwsDoxsJFz8PCJkXFwiD7xcIQDsfC8ljIwrDLxMKkeMLClpHEwiqgyMJcjcjC6krGwl50w8Iy&#xD;&#xa;7sXCWv3HwkQ1xsKUwMPC2K/EwootxMJUqMTCH3LDwuojxcKil8fCjmXIwkLJxcID78TClTvGwhel&#xD;&#xa;xsIca8bC1rbCwk6+wsIQfsfCIlPHwpJExcLWhMbCDNvEwuryxMKklMXCeBDDwolhwcIiasLCQYfE&#xD;&#xa;whUfwsJx4MTCsEnIwkX0xcK+3sbCIqLHwrARx8IWtMTCGAnFwomNxMLfbcTCQIPDwjqww8L+MMTC&#xD;&#xa;mqjHwrBaxMI6YsTCxmvIwqyKycKQaMXCnx7FwkYvx8In6sjCGMzIwuvAxcL8a8XCiBjJwkvwyMKI&#xD;&#xa;qMbCTCTIwvQSy8IxEsvCVT/JwrI3w8LA8sLCCD7EwsxXxMJSjsXCfjXFwqTKxMI/gsPCDozDwtwF&#xD;&#xa;xMISn8bChHvJwlFQyMJYCsbCP4jIwtkBycLiFsrCbCrKwvyTysIWncnC+A3HwuI5x8I8/MbC0hHI&#xD;&#xa;wopJzMLmb83CFkvMwpy/y8Kn7MrCfJrJwuLDyMJKn8bCStTGwpb7ycIMo8nCcivFwsapxcJkx8bC&#xD;&#xa;ALLIwriaycJM3cfC8r/KwlSoy8I4A8vCpFHJwkRrzMIKr87CWD7MwsiJycKW9cfCUjbKwq+YycLi&#xD;&#xa;U8jCROHHwhdWycKaU8nCF7jMwmKaz8L//8zC8tjOwjxezsIUysvCzHLJwiJryMLRm8bCgLjKwsi8&#xD;&#xa;ysIhfszCPETLwqtbyMJGeMfCpRPJwnwZzMJSIs3CqhPMwmDiyMLZYsjCz13KwgwKy8LCi8jCyrTM&#xD;&#xa;wgwxzMK4ZcvC087JwkV2xsLyXsnCjIbLwhwvzcLfrM7CeITKwla3ysLK3cnC/PHFwpScxcIUQ8nC&#xD;&#xa;NJzIwrEsxsJvZcfCXSvIwlKLx8JII8nCvgzKwpnhysJSC8vC9iTKwiA/y8IadczCuDrMwuVaysLO&#xD;&#xa;r8vCXtfJwrZ6ycItucnCtonJwjyTysJkC83CL0nMwkjdyMIBucfCixrLwvSDysKGX8nCsCzMwuas&#xD;&#xa;0cIsnNPCuEvOwtr5y8LMBc7Cr+PTwsQc5MLcOfPCKOj0wjr59cJ0C/fCzg75wkwh+8LmVPnCqz72&#xD;&#xa;wnB+9cLuJvrCtEL4wkp7+MLOfffCDN3zwkaz9sLi8vjCFKr6wgIQ+cI8iPjCBpT4wvR1+MLQI/rC&#xD;&#xa;Ihn8wlQg+sIcLvjCVCz2wsI49MJQ9fbC23H3woy69sL4BfnCIOb2wjwy9cIuGvnCdmb3wj7K9MI+&#xD;&#xa;KPXCJpr2wn7C9cKQDvnCthv7woaP+cLGaPbCTr32wrpN+cIFSPjCDvX4wtD39sJY//TCKGf3wvZI&#xD;&#xa;+cK9YvfCgYf3wjIf+sLMMvfCpjz2wuA6+cII8vbCxDv1wmJG9sLka/rCPrT1wi589cLqjfbC9qP4&#xD;&#xa;wgzJ+MLelPbCGir2wlBC9sKeU/jC/nn3wsYn9sL4QPjCXBj5wopQ+MIaJvnCSB36wgjc+MIMfPfC&#xD;&#xa;W+z1wmYG+MKuxPnCCuD1wjh+9sLDrPfCOPj3wm7h+MJjMvfCxH/2wsXf98KwN/nCKOn5wrLR+sKg&#xD;&#xa;bPvCkFv5wsAu+cL2hffCySz2wmRX+MKiiPjCzFX4wvjB98Jgz/fCxPT4wobP+cL8avjC9r34wnKx&#xD;&#xa;+MK+LPnC3H34wle39cKejfbCNKP2wg5B9sK0H/rCSvz2woqE98JAqfjCBPL4wmKi+MIu2/jCMFD5&#xD;&#xa;wiCM+cKo//nCGqz7wlZN+sKUDfjC0ov4wrIU+sIVpffCP2/3woye98KktPbCTJj2wpH29cL3mvbC&#xD;&#xa;jL/4wti/+MLm3vjCQ9QEwzOmYsI/y13CPNeLwsehjcK+No/Cm+aOwlHvjcIja5HCun6XwoKemMJy&#xD;&#xa;lpPCuQeRwhgMlcJGdZvCTjScwgFMncIGh5zCGrOawuO0nMJdJZ3Cybudwo6toMIdraPCs/6jwpY0&#xD;&#xa;psLIUqjCWQmpwonmp8KcE6XCgXGlwqC+psIFHabCBoyownWvqcIkX6jCgnCpwms3qsIW0KfCM7Oj&#xD;&#xa;wnGLosJgcKnCdk6swiIgscKFrbDCtNmowrZmpcIHYqjCCg2pwqUNq8KgHq7ChEGxwhVFs8KU6LLC&#xD;&#xa;dvWzwpVHscI6NrDCMpGwwubcs8Imh7bCPKq6wj7tvMKSbr3ClsG+wq4qwMLXQr7CpAK5whxiuMJp&#xD;&#xa;v7nCwu29wloQvsIXTL3CzjDAwsDTwcL69sHC8urAwtAFwMIkSMLCpJHDwjLOw8JG8sTCmMvDwq7H&#xD;&#xa;wsLOncPC+CDDwkh6wsLU5sPCP23Fwm5Qx8KlYsTCm0XCwnhexcLsTsPCSMPDwjvJw8LMWcHC2XHD&#xD;&#xa;wjj5wsICs8TChWvEwgCywcKDdcHCFnHCwurMxMLlVsTCfrDGwmzqyMKoGsfC7ITIwtqRyMJwzcbC&#xD;&#xa;ppbEwiv5xcIXxsTCzDfCwtSExMKEjcTC8ObDwiJ9yMIQm8vCIkDGwqHyxcIyYcbCyAXIwmyBx8I4&#xD;&#xa;n8PCvyPGwuiKxMJggMfCdL3JwsMhysLi6sXCRa7Ewoykx8Jk/MXC0NfEwtK0xcJQTMTCvvvGwtqJ&#xD;&#xa;xMKmFsTCSbfGwq76x8IQ+sjCsqnIwkJdycIaT8fC0nbHwlf2xsLg/cbCtIHHwsTvxsI0KsbCsqDH&#xD;&#xa;wgLix8JGKcXCyNTDwjDwwsIb98bC6MjJwg6Zy8Kg+cvCaC3HwtIgw8KW7sXC3EHGwmcUxcL++8fC&#xD;&#xa;CWbIwsDoxsJFz8PCJkXFwiD7xcIQDsfC8ljIwrDLxMKkeMLClpHEwiqgyMJcjcjC6krGwl50w8Iy&#xD;&#xa;7sXCWv3HwkQ1xsKUwMPC2K/EwootxMJUqMTCH3LDwuojxcKil8fCjmXIwkLJxcID78TClTvGwhel&#xD;&#xa;xsIca8bC1rbCwk6+wsIQfsfCIlPHwpJExcLWhMbCDNvEwuryxMKklMXCeBDDwolhwcIiasLCQYfE&#xD;&#xa;whUfwsJx4MTCsEnIwkX0xcK+3sbCIqLHwrARx8IWtMTCGAnFwomNxMLfbcTCQIPDwjqww8L+MMTC&#xD;&#xa;mqjHwrBaxMI6YsTCxmvIwqyKycKQaMXCnx7FwkYvx8In6sjCGMzIwuvAxcL8a8XCiBjJwkvwyMKI&#xD;&#xa;qMbCTCTIwvQSy8IxEsvCVT/JwrI3w8LA8sLCCD7EwsxXxMJSjsXCfjXFwqTKxMI/gsPCDozDwtwF&#xD;&#xa;xMISn8bChHvJwlFQyMJYCsbCP4jIwtkBycLiFsrCbCrKwvyTysIWncnC+A3HwuI5x8I8/MbC0hHI&#xD;&#xa;wopJzMLmb83CFkvMwpy/y8Kn7MrCfJrJwuLDyMJKn8bCStTGwpb7ycIMo8nCcivFwsapxcJkx8bC&#xD;&#xa;ALLIwriaycJM3cfC8r/KwlSoy8I4A8vCpFHJwkRrzMIKr87CWD7MwsiJycKW9cfCUjbKwq+YycLi&#xD;&#xa;U8jCROHHwhdWycKaU8nCF7jMwmKaz8L//8zC8tjOwjxezsIUysvCzHLJwiJryMLRm8bCgLjKwsi8&#xD;&#xa;ysIhfszCPETLwqtbyMJGeMfCpRPJwnwZzMJSIs3CqhPMwmDiyMLZYsjCz13KwgwKy8LCi8jCyrTM&#xD;&#xa;wgwxzMK4ZcvC087JwkV2xsLyXsnCjIbLwhwvzcLfrM7CeITKwla3ysLK3cnC/PHFwpScxcIUQ8nC&#xD;&#xa;NJzIwrEsxsJvZcfCXSvIwlKLx8JII8nCvgzKwpnhysJSC8vC9iTKwiA/y8IadczCuDrMwuVaysLO&#xD;&#xa;r8vCXtfJwrZ6ycItucnCtonJwjyTysJkC83CL0nMwkjdyMIBucfCixrLwvSDysKGX8nCsCzMwuas&#xD;&#xa;0cIsnNPCuEvOwtr5y8LMBc7Cr+PTwsQc5MLcOfPCKOj0wjr59cJ0C/fCzg75wkwh+8LmVPnCqz72&#xD;&#xa;wnB+9cLuJvrCtEL4wkp7+MLOfffCDN3zwkaz9sLi8vjCFKr6wgIQ+cI8iPjCBpT4wvR1+MLQI/rC&#xD;&#xa;Ihn8wlQg+sIcLvjCVCz2wsI49MJQ9fbC23H3woy69sL4BfnCIOb2wjwy9cIuGvnCdmb3wj7K9MI+&#xD;&#xa;KPXCJpr2wn7C9cKQDvnCthv7woaP+cLGaPbCTr32wrpN+cIFSPjCDvX4wtD39sJY//TCKGf3wvZI&#xD;&#xa;+cK9YvfCgYf3wjIf+sLMMvfCpjz2wuA6+cII8vbCxDv1wmJG9sLka/rCPrT1wi589cLqjfbC9qP4&#xD;&#xa;wgzJ+MLelPbCGir2wlBC9sKeU/jC/nn3wsYn9sL4QPjCXBj5wopQ+MIaJvnCSB36wgjc+MIMfPfC&#xD;&#xa;W+z1wmYG+MKuxPnCCuD1wjh+9sLDrPfCOPj3wm7h+MJjMvfCxH/2wsXf98KwN/nCKOn5wrLR+sKg&#xD;&#xa;bPvCkFv5wsAu+cL2hffCySz2wmRX+MKiiPjCzFX4wvjB98Jgz/fCxPT4wobP+cL8avjC9r34wnKx&#xD;&#xa;+MK+LPnC3H34wle39cKejfbCNKP2wg5B9sK0H/rCSvz2woqE98JAqfjCBPL4wmKi+MIu2/jCMFD5&#xD;&#xa;wiCM+cKo//nCGqz7wlZN+sKUDfjC0ov4wrIU+sIVpffCP2/3woye98KktPbCTJj2wpH29cL3mvbC&#xD;&#xa;jL/4wti/+MLm3vjCQ9QE" leadInLength="0/1"  />
            </Keyframes>
           </Parameter>
           </Parameters>
          </GenericEffect>
          <GenericEffect id="6451" name = "WinCompression" >
           <Parameters>
           <InterpolatingParam id="6452" interp="linr"  time="0/1" value="0" leadInLength="0/1"   name="attack"/>
           <InterpolatingParam id="6453" interp="linr"  time="0/1" value="9" leadInLength="0/1"   name="gain"/>
           <Parameter id="6454"   name="preset">
            <Keyframes>
            <Keyframe id="6455"  time="0/1" value="1" leadInLength="0/1"  />
            </Keyframes>
           </Parameter>
           <InterpolatingParam id="6456" interp="linr"  time="0/1" value="10" leadInLength="0/1"   name="ratio"/>
           <InterpolatingParam id="6457" interp="linr"  time="0/1" value="3500" leadInLength="0/1"   name="release"/>
           <InterpolatingParam id="6458" interp="linr"  time="0/1" value="-20" leadInLength="0/1"   name="threshold"/>
           </Parameters>
          </GenericEffect>
          <GenericEffect id="6459" name = "Declipper" >
           <Parameters>
           <InterpolatingParam id="6460" interp="linr"  time="0/1" value="-1" leadInLength="0/1"   name="sensitivity"/>
           </Parameters>
          </GenericEffect>
          <GenericEffect id="6461" name = "Declicker" >
           <Parameters>
           <InterpolatingParam id="6462" interp="linr"  time="0/1" value="3" leadInLength="0/1"   name="sensitivity"/>
           </Parameters>
          </GenericEffect>
         </Effects>
         <Attributes>
          <Attribute id="6463" value="" name="ident"/>
          <Attribute id="6464" value="44100" name="sampleRate"/>
          <Attribute id="6465" value="16" name="bitDepth"/>
          <Attribute id="6466" value="1" name="gain"/>
          <Attribute id="6467" value="0" name="mixToMono"/>
         </Attributes>
         <MetaData>
          <entry key="WinSubProjectDisplayName" val=""/>
         </MetaData>
        </AMFile>
       </Medias>
      </GenericTrack>
      <GenericTrack id="6468"  >
       <Attributes>
        <Attribute id="6469" value="" name="ident"/>
        <Attribute id="6470" value="0" name="audioMuted"/>
        <Attribute id="6471" value="0" name="videoHidden"/>
       </Attributes>
       <MetaData>
        <entry key="IsLocked" val="False"/>
        <entry key="WinTrackHeight" val="62"/>
       </MetaData>
       <Medias>
        <UnifiedMedia id="6472"  >
         <AudioTransition id="6473" start="258" duration="41" >
          <Parameters>
           <InterpolatingParam id="6474" interp="linr"  time="0/1" value="1" leadInLength="0/1"  name="volume"/>
           <Parameter id="6475"  name="captions"/>
          </Parameters>
          <Effects>
           <GenericEffect id="6476" name = "AudioTransition" >
            <Parameters>
            <Parameter id="6477"   name="audioEdgeModType">
             <Keyframes>
             <Keyframe id="6478"  time="0/1" value="0" leadInLength="0/1"  />
             </Keyframes>
            </Parameter>
            <Parameter id="6479"   name="audioTransitionType">
             <Keyframes>
             <Keyframe id="6480"  time="0/1" value="" leadInLength="0/1"  />
             </Keyframes>
            </Parameter>
            </Parameters>
            <MetaData>
            </MetaData>
           </GenericEffect>
          </Effects>
          <Attributes>
           <Attribute id="6481" value="" name="ident"/>
           <Attribute id="6482" value="0" name="sampleRate"/>
           <Attribute id="6483" value="0" name="bitDepth"/>
           <Attribute id="6484" value="1" name="gain"/>
           <Attribute id="6485" value="0" name="mixToMono"/>
          </Attributes>
         </AudioTransition>
         <ImageTransition id="6486" start="258" duration="41" >
          <Transformer>
           <VectorParam id="6487"  name="translation">
            <InterpolatingParam id="6488" interp="linr"  time="0/1" value="0" leadInLength="0/1"  />
            <InterpolatingParam id="6489" interp="linr"  time="0/1" value="0" leadInLength="0/1"  />
            <InterpolatingParam id="6490" interp="linr"  time="0/1" value="0" leadInLength="0/1"  />
           </VectorParam>
           <VectorParam id="6491"  name="rotation">
            <InterpolatingParam id="6492" interp="linr"  time="0/1" value="0" leadInLength="0/1"  />
            <InterpolatingParam id="6493" interp="linr"  time="0/1" value="0" leadInLength="0/1"  />
            <InterpolatingParam id="6494" interp="linr"  time="0/1" value="0" leadInLength="0/1"  />
           </VectorParam>
           <VectorParam id="6495"  name="shear">
            <InterpolatingParam id="6496" interp="linr"  time="0/1" value="0" leadInLength="0/1"  />
            <InterpolatingParam id="6497" interp="linr"  time="0/1" value="0" leadInLength="0/1"  />
            <InterpolatingParam id="6498" interp="linr"  time="0/1" value="0" leadInLength="0/1"  />
           </VectorParam>
           <VectorParam id="6499"  name="scale">
            <InterpolatingParam id="6500" interp="linr"  time="0/1" value="1" leadInLength="0/1"  />
            <InterpolatingParam id="6501" interp="linr"  time="0/1" value="1" leadInLength="0/1"  />
            <InterpolatingParam id="6502" interp="linr"  time="0/1" value="1" leadInLength="0/1"  />
           </VectorParam>
           <VectorParam id="6503"  name="anchor">
            <InterpolatingParam id="6504" interp="linr"  time="0/1" value="0" leadInLength="0/1"  />
            <InterpolatingParam id="6505" interp="linr"  time="0/1" value="0" leadInLength="0/1"  />
            <InterpolatingParam id="6506" interp="linr"  time="0/1" value="0" leadInLength="0/1"  />
           </VectorParam>
          </Transformer>
          <Parameters>
           <VectorParam id="6507"  name="sourceCrop">
            <InterpolatingParam id="6508" interp="linr"  time="0/1" value="0" leadInLength="0/1"  />
            <InterpolatingParam id="6509" interp="linr"  time="0/1" value="0" leadInLength="0/1"  />
            <InterpolatingParam id="6510" interp="linr"  time="0/1" value="0" leadInLength="0/1"  />
            <InterpolatingParam id="6511" interp="linr"  time="0/1" value="0" leadInLength="0/1"  />
           </VectorParam>
           <VectorParam id="6512"  name="geometryCrop">
            <InterpolatingParam id="6513" interp="linr"  time="0/1" value="0" leadInLength="0/1"  />
            <InterpolatingParam id="6514" interp="linr"  time="0/1" value="0" leadInLength="0/1"  />
            <InterpolatingParam id="6515" interp="linr"  time="0/1" value="0" leadInLength="0/1"  />
            <InterpolatingParam id="6516" interp="linr"  time="0/1" value="0" leadInLength="0/1"  />
           </VectorParam>
           <InterpolatingParam id="6517" interp="linr"  time="0/1" value="1" leadInLength="0/1"  name="opacity"/>
          </Parameters>
          <Effects>
           <GenericEffect id="6518" name = "VisualTransition" >
            <Parameters>
            <InterpolatingParam id="6519" interp="linr"  time="0/1" value="0.5" leadInLength="0/1"   name="leftFramePercentage"/>
            <InterpolatingParam id="6520" interp="linr"  time="0/1" value="0.5" leadInLength="0/1"   name="rightFramePercentage"/>
            <Parameter id="6521"   name="visualEdgeModType">
             <Keyframes>
             <Keyframe id="6522"  time="0/1" value="1" leadInLength="0/1"  />
             </Keyframes>
            </Parameter>
            <Parameter id="6523"   name="visualTransitionType">
             <Keyframes>
             <Keyframe id="6524"  time="0/1" value="Fade" leadInLength="0/1"  />
             </Keyframes>
            </Parameter>
            </Parameters>
            <MetaData>
            </MetaData>
           </GenericEffect>
          </Effects>
          <Attributes>
           <Attribute id="6525" value="" name="ident"/>
          </Attributes>
          <ExtraData>
           <Entry key="ZoomPanBin">
            <ZoomPanBin id="6526"  >
             <ZoomPanKeyframes>
             </ZoomPanKeyframes>
            </ZoomPanBin>
           </Entry>
          </ExtraData>
         </ImageTransition>
         <MetaData>
          <entry key="WinSubProjectDisplayName" val=""/>
         </MetaData>
        </UnifiedMedia>
        <IMFile id="6527" start="299" duration="117" scalar="1/1" mediaStart="0/1" mediaDuration="1/1" trackNumber="0" src="23" trimStartSum="23/1" >
         <Transformer>
          <VectorParam id="6528"  name="translation">
           <InterpolatingParam id="6529" interp="linr"  time="-9999999/1" value="0" leadInLength="0/1"  />
           <InterpolatingParam id="6530" interp="linr"  time="-9999999/1" value="0" leadInLength="0/1"  />
           <InterpolatingParam id="6531" interp="linr"  time="-9999999/1" value="0" leadInLength="0/1"  />
          </VectorParam>
          <VectorParam id="6532"  name="rotation">
           <InterpolatingParam id="6533" interp="linr"  time="-9999999/1" value="0" leadInLength="0/1"  />
           <InterpolatingParam id="6534" interp="linr"  time="-9999999/1" value="0" leadInLength="0/1"  />
           <InterpolatingParam id="6535" interp="linr"  time="-9999999/1" value="0" leadInLength="0/1"  />
          </VectorParam>
          <VectorParam id="6536"  name="shear">
           <InterpolatingParam id="6537" interp="linr"  time="-9999999/1" value="0" leadInLength="0/1"  />
           <InterpolatingParam id="6538" interp="linr"  time="-9999999/1" value="0" leadInLength="0/1"  />
           <InterpolatingParam id="6539" interp="linr"  time="-9999999/1" value="0" leadInLength="0/1"  />
          </VectorParam>
          <VectorParam id="6540"  name="scale">
           <InterpolatingParam id="6541" interp="linr"  time="-9999999/1" value="0.703125" leadInLength="0/1"  />
           <InterpolatingParam id="6542" interp="linr"  time="-9999999/1" value="0.703125" leadInLength="0/1"  />
           <InterpolatingParam id="6543" interp="linr"  time="-9999999/1" value="1" leadInLength="0/1"  />
          </VectorParam>
          <VectorParam id="6544"  name="anchor">
           <InterpolatingParam id="6545" interp="linr"  time="0/1" value="0" leadInLength="0/1"  />
           <InterpolatingParam id="6546" interp="linr"  time="0/1" value="0" leadInLength="0/1"  />
           <InterpolatingParam id="6547" interp="linr"  time="0/1" value="0" leadInLength="0/1"  />
          </VectorParam>
         </Transformer>
         <Parameters>
          <VectorParam id="6548"  name="sourceCrop">
           <InterpolatingParam id="6549" interp="linr"  time="0/1" value="0" leadInLength="0/1"  />
           <InterpolatingParam id="6550" interp="linr"  time="0/1" value="0" leadInLength="0/1"  />
           <InterpolatingParam id="6551" interp="linr"  time="0/1" value="0" leadInLength="0/1"  />
           <InterpolatingParam id="6552" interp="linr"  time="0/1" value="0" leadInLength="0/1"  />
          </VectorParam>
          <VectorParam id="6553"  name="geometryCrop">
           <InterpolatingParam id="6554" interp="linr"  time="-9999999/1" value="0" leadInLength="0/1"  />
           <InterpolatingParam id="6555" interp="linr"  time="-9999999/1" value="0" leadInLength="0/1"  />
           <InterpolatingParam id="6556" interp="linr"  time="-9999999/1" value="0" leadInLength="0/1"  />
           <InterpolatingParam id="6557" interp="linr"  time="-9999999/1" value="0" leadInLength="0/1"  />
          </VectorParam>
          <InterpolatingParam id="6558" interp="linr"  time="-9999999/1" value="1" leadInLength="0/1"  name="opacity"/>
         </Parameters>
         <Attributes>
          <Attribute id="6559" value="" name="ident"/>
         </Attributes>
         <MetaData>
          <entry key="WinSubProjectDisplayName" val=""/>
         </MetaData>
         <ExtraData>
          <Entry key="ZoomPanBin">
           <ZoomPanBin id="6560"  >
            <ZoomPanKeyframes>
             <ZoomPanKeyframe id="6561" timeRangeEnd="-9999999/1" timeRangeDuration="0/1" interpolaterName="linr"  />
            </ZoomPanKeyframes>
           </ZoomPanBin>
          </Entry>
         </ExtraData>
        </IMFile>
        <UnifiedMedia id="6562"  >
         <AudioTransition id="6563" start="416" duration="44" >
          <Parameters>
           <InterpolatingParam id="6564" interp="linr"  time="0/1" value="1" leadInLength="0/1"  name="volume"/>
           <Parameter id="6565"  name="captions"/>
          </Parameters>
          <Effects>
           <GenericEffect id="6566" name = "AudioTransition" >
            <Parameters>
            <Parameter id="6567"   name="audioEdgeModType">
             <Keyframes>
             <Keyframe id="6568"  time="0/1" value="0" leadInLength="0/1"  />
             </Keyframes>
            </Parameter>
            <Parameter id="6569"   name="audioTransitionType">
             <Keyframes>
             <Keyframe id="6570"  time="0/1" value="" leadInLength="0/1"  />
             </Keyframes>
            </Parameter>
            </Parameters>
            <MetaData>
            </MetaData>
           </GenericEffect>
          </Effects>
          <Attributes>
           <Attribute id="6571" value="" name="ident"/>
           <Attribute id="6572" value="0" name="sampleRate"/>
           <Attribute id="6573" value="0" name="bitDepth"/>
           <Attribute id="6574" value="1" name="gain"/>
           <Attribute id="6575" value="0" name="mixToMono"/>
          </Attributes>
         </AudioTransition>
         <ImageTransition id="6576" start="416" duration="44" >
          <Transformer>
           <VectorParam id="6577"  name="translation">
            <InterpolatingParam id="6578" interp="linr"  time="0/1" value="0" leadInLength="0/1"  />
            <InterpolatingParam id="6579" interp="linr"  time="0/1" value="0" leadInLength="0/1"  />
            <InterpolatingParam id="6580" interp="linr"  time="0/1" value="0" leadInLength="0/1"  />
           </VectorParam>
           <VectorParam id="6581"  name="rotation">
            <InterpolatingParam id="6582" interp="linr"  time="0/1" value="0" leadInLength="0/1"  />
            <InterpolatingParam id="6583" interp="linr"  time="0/1" value="0" leadInLength="0/1"  />
            <InterpolatingParam id="6584" interp="linr"  time="0/1" value="0" leadInLength="0/1"  />
           </VectorParam>
           <VectorParam id="6585"  name="shear">
            <InterpolatingParam id="6586" interp="linr"  time="0/1" value="0" leadInLength="0/1"  />
            <InterpolatingParam id="6587" interp="linr"  time="0/1" value="0" leadInLength="0/1"  />
            <InterpolatingParam id="6588" interp="linr"  time="0/1" value="0" leadInLength="0/1"  />
           </VectorParam>
           <VectorParam id="6589"  name="scale">
            <InterpolatingParam id="6590" interp="linr"  time="0/1" value="1" leadInLength="0/1"  />
            <InterpolatingParam id="6591" interp="linr"  time="0/1" value="1" leadInLength="0/1"  />
            <InterpolatingParam id="6592" interp="linr"  time="0/1" value="1" leadInLength="0/1"  />
           </VectorParam>
           <VectorParam id="6593"  name="anchor">
            <InterpolatingParam id="6594" interp="linr"  time="0/1" value="0" leadInLength="0/1"  />
            <InterpolatingParam id="6595" interp="linr"  time="0/1" value="0" leadInLength="0/1"  />
            <InterpolatingParam id="6596" interp="linr"  time="0/1" value="0" leadInLength="0/1"  />
           </VectorParam>
          </Transformer>
          <Parameters>
           <VectorParam id="6597"  name="sourceCrop">
            <InterpolatingParam id="6598" interp="linr"  time="0/1" value="0" leadInLength="0/1"  />
            <InterpolatingParam id="6599" interp="linr"  time="0/1" value="0" leadInLength="0/1"  />
            <InterpolatingParam id="6600" interp="linr"  time="0/1" value="0" leadInLength="0/1"  />
            <InterpolatingParam id="6601" interp="linr"  time="0/1" value="0" leadInLength="0/1"  />
           </VectorParam>
           <VectorParam id="6602"  name="geometryCrop">
            <InterpolatingParam id="6603" interp="linr"  time="0/1" value="0" leadInLength="0/1"  />
            <InterpolatingParam id="6604" interp="linr"  time="0/1" value="0" leadInLength="0/1"  />
            <InterpolatingParam id="6605" interp="linr"  time="0/1" value="0" leadInLength="0/1"  />
            <InterpolatingParam id="6606" interp="linr"  time="0/1" value="0" leadInLength="0/1"  />
           </VectorParam>
           <InterpolatingParam id="6607" interp="linr"  time="0/1" value="1" leadInLength="0/1"  name="opacity"/>
          </Parameters>
          <Effects>
           <GenericEffect id="6608" name = "VisualTransition" >
            <Parameters>
            <InterpolatingParam id="6609" interp="linr"  time="0/1" value="0.5" leadInLength="0/1"   name="leftFramePercentage"/>
            <InterpolatingParam id="6610" interp="linr"  time="0/1" value="0.5" leadInLength="0/1"   name="rightFramePercentage"/>
            <Parameter id="6611"   name="visualEdgeModType">
             <Keyframes>
             <Keyframe id="6612"  time="0/1" value="2" leadInLength="0/1"  />
             </Keyframes>
            </Parameter>
            <Parameter id="6613"   name="visualTransitionType">
             <Keyframes>
             <Keyframe id="6614"  time="0/1" value="Glow" leadInLength="0/1"  />
             </Keyframes>
            </Parameter>
            </Parameters>
            <MetaData>
            </MetaData>
           </GenericEffect>
          </Effects>
          <Attributes>
           <Attribute id="6615" value="" name="ident"/>
          </Attributes>
          <ExtraData>
           <Entry key="ZoomPanBin">
            <ZoomPanBin id="6616"  >
             <ZoomPanKeyframes>
             </ZoomPanKeyframes>
            </ZoomPanBin>
           </Entry>
          </ExtraData>
         </ImageTransition>
         <MetaData>
          <entry key="WinSubProjectDisplayName" val=""/>
         </MetaData>
        </UnifiedMedia>
        <Callout id="6617" start="3594" duration="156" scalar="1/1" mediaStart="123/1" mediaDuration="156/1" >
         <Transformer>
          <VectorParam id="6618"  name="translation">
           <InterpolatingParam id="6619" interp="linr"  time="-9999999/1" value="119.70149253741693" leadInLength="0/1"  />
           <InterpolatingParam id="6620" interp="linr"  time="-9999999/1" value="222.69651741288777" leadInLength="0/1"  />
           <InterpolatingParam id="6621" interp="linr"  time="-9999999/1" value="0" leadInLength="0/1"  />
          </VectorParam>
          <VectorParam id="6622"  name="rotation">
           <InterpolatingParam id="6623" interp="linr"  time="-9999999/1" value="0" leadInLength="0/1"  />
           <InterpolatingParam id="6624" interp="linr"  time="-9999999/1" value="0" leadInLength="0/1"  />
           <InterpolatingParam id="6625" interp="linr"  time="-9999999/1" value="0" leadInLength="0/1"  />
          </VectorParam>
          <VectorParam id="6626"  name="shear">
           <InterpolatingParam id="6627" interp="linr"  time="-9999999/1" value="0" leadInLength="0/1"  />
           <InterpolatingParam id="6628" interp="linr"  time="-9999999/1" value="0" leadInLength="0/1"  />
           <InterpolatingParam id="6629" interp="linr"  time="-9999999/1" value="0" leadInLength="0/1"  />
          </VectorParam>
          <VectorParam id="6630"  name="scale">
           <InterpolatingParam id="6631" interp="linr"  time="-9999999/1" value="0.42083333333372369" leadInLength="0/1"  />
           <InterpolatingParam id="6632" interp="linr"  time="-9999999/1" value="0.27407407407355333" leadInLength="0/1"  />
           <InterpolatingParam id="6633" interp="linr"  time="-9999999/1" value="1" leadInLength="0/1"  />
          </VectorParam>
          <VectorParam id="6634"  name="anchor">
           <InterpolatingParam id="6635" interp="linr"  time="0/1" value="0" leadInLength="0/1"  />
           <InterpolatingParam id="6636" interp="linr"  time="0/1" value="0" leadInLength="0/1"  />
           <InterpolatingParam id="6637" interp="linr"  time="0/1" value="0" leadInLength="0/1"  />
          </VectorParam>
         </Transformer>
         <Parameters>
          <VectorParam id="6638"  name="sourceCrop">
           <InterpolatingParam id="6639" interp="linr"  time="0/1" value="0" leadInLength="0/1"  />
           <InterpolatingParam id="6640" interp="linr"  time="0/1" value="0" leadInLength="0/1"  />
           <InterpolatingParam id="6641" interp="linr"  time="0/1" value="0" leadInLength="0/1"  />
           <InterpolatingParam id="6642" interp="linr"  time="0/1" value="0" leadInLength="0/1"  />
          </VectorParam>
          <VectorParam id="6643"  name="geometryCrop">
           <InterpolatingParam id="6644" interp="linr"  time="-9999999/1" value="0" leadInLength="0/1"  />
           <InterpolatingParam id="6645" interp="linr"  time="-9999999/1" value="0" leadInLength="0/1"  />
           <InterpolatingParam id="6646" interp="linr"  time="-9999999/1" value="0" leadInLength="0/1"  />
           <InterpolatingParam id="6647" interp="linr"  time="-9999999/1" value="0" leadInLength="0/1"  />
          </VectorParam>
          <InterpolatingParam id="6648" interp="linr"  time="-9999999/1" value="1" leadInLength="0/1"  name="opacity"/>
         </Parameters>
         <Effects>
          <GenericEffect id="6649" name = "DropShadow" >
           <Parameters>
           <InterpolatingParam id="6650" interp="linr"  time="0/1" value="315" leadInLength="0/1"   name="angle"/>
           <InterpolatingParam id="6651" interp="linr"  time="0/1" value="2" leadInLength="0/1"   name="blur"/>
           <Parameter id="6652"   name="enabled">
            <Keyframes>
            <Keyframe id="6653"  time="0/1" value="1" leadInLength="0/1"  />
            </Keyframes>
           </Parameter>
           <InterpolatingParam id="6654" interp="linr"  time="0/1" value="4" leadInLength="0/1"   name="offset"/>
           <InterpolatingParam id="6655" interp="linr"  time="0/1" value="1" leadInLength="0/1"   name="opacity"/>
           </Parameters>
          </GenericEffect>
         </Effects>
         <Attributes>
          <Attribute id="6656"  name="vectorNode">
           <VectorNode id="6657" kind="TypeWinSVG"  >
            <DoubleParameters>
             <InterpolatingParam id="6658" interp="linr"  time="0/1" value="1" leadInLength="0/1"  name="DrawTime"/>
             <InterpolatingParam id="6659" interp="linr"  time="0/1" value="59" leadInLength="0/1"  name="borderColorBlue"/>
             <InterpolatingParam id="6660" interp="linr"  time="0/1" value="209" leadInLength="0/1"  name="borderColorGreen"/>
             <InterpolatingParam id="6661" interp="linr"  time="0/1" value="127" leadInLength="0/1"  name="borderColorRed"/>
             <InterpolatingParam id="6662" interp="linr"  time="0/1" value="5" leadInLength="0/1"  name="borderWidth"/>
             <InterpolatingParam id="6663" interp="linr"  time="0/1" value="0" leadInLength="0/1"  name="flipOnXAxis"/>
             <InterpolatingParam id="6664" interp="linr"  time="0/1" value="0" leadInLength="0/1"  name="flipOnYAxis"/>
             <InterpolatingParam id="6665" interp="linr"  time="0/1" value="180" leadInLength="0/1"  name="height"/>
             <InterpolatingParam id="6666" interp="linr"  time="0/1" value="320" leadInLength="0/1"  name="width"/>
            </DoubleParameters>
            <StringParameters>
             <Parameter id="6667"  name="filename">
              <Keyframes>
              <Keyframe id="6668"  time="0/1" value="C:\Program Files (x86)\TechSmith\Camtasia Studio 8\Media\Studio\Callouts\anim_drawnoval.svg" leadInLength="0/1"  />
              </Keyframes>
             </Parameter>
             <Parameter id="6669"  name="name">
              <Keyframes>
              <Keyframe id="6670"  time="0/1" value="Sketch Motion Oval" leadInLength="0/1"  />
              </Keyframes>
             </Parameter>
             <Parameter id="6671"  name="xmlContent">
              <Keyframes>
              <Keyframe id="6672"  time="0/1" value="﻿&lt;?xml version=&quot;1.0&quot; encoding=&quot;utf-8&quot;?&gt;&#xa;&lt;!-- Generator: Adobe Illustrator 13.0.2, SVG Export Plug-In . SVG Version: 6.00 Build 14948)  --&gt;&#xa;&lt;!DOCTYPE svg PUBLIC &quot;-//W3C//DTD SVG 1.1//EN&quot; &quot;http://www.w3.org/Graphics/SVG/1.1/DTD/svg11.dtd&quot;&gt;&#xa;&lt;svg version=&quot;1.1&quot; id=&quot;Layer_1&quot; xmlns=&quot;http://www.w3.org/2000/svg&quot; xmlns:xlink=&quot;http://www.w3.org/1999/xlink&quot; x=&quot;0px&quot; y=&quot;0px&quot;&#xa;&#x9; width=&quot;299.75px&quot; height=&quot;214.496px&quot; viewBox=&quot;0 0 299.75 214.496&quot; enable-background=&quot;new 0 0 299.75 214.496&quot;&#xa;&#x9; xml:space=&quot;preserve&quot;&gt;&#xa;&lt;path fill=&quot;none&quot; d=&quot;M142.383,0.35c-26-3-55,14-74,24c-69,38-104,133-16,172c54,24,119,23,175,4c40-13,83-43,70-91&#xa;&#x9;c-25-95-141-116-224-99&quot;/&gt;&#xa;&lt;/svg&gt;&#xa;" leadInLength="0/1"  />
              </Keyframes>
             </Parameter>
            </StringParameters>
           </VectorNode>
          </Attribute>
         </Attributes>
         <MetaData>
          <entry key="WinSubProjectDisplayName" val=""/>
         </MetaData>
         <LeftEdgeMods length="23/1" groupName="DrawPercentageFade">
          <EdgeMod parameter="6658">
           <FadeInFunc id="6673"  />
          </EdgeMod>
         </LeftEdgeMods>
         <RightEdgeMods length="3/1" groupName="OpacityFade">
          <EdgeMod parameter="6648">
           <FadeOutFunc id="6674"  />
          </EdgeMod>
         </RightEdgeMods>
         <ExtraData>
          <Entry key="ZoomPanBin">
           <ZoomPanBin id="6675"  >
            <ZoomPanKeyframes>
             <ZoomPanKeyframe id="6676" timeRangeEnd="-9999999/1" timeRangeDuration="0/1" interpolaterName="linr"  />
            </ZoomPanKeyframes>
           </ZoomPanBin>
          </Entry>
         </ExtraData>
        </Callout>
        <Callout id="6677" start="3977" duration="230" scalar="1/1" mediaStart="56/1" mediaDuration="230/1" >
         <Transformer>
          <VectorParam id="6678"  name="translation">
           <InterpolatingParam id="6679" interp="linr"  >
            <Keyframes>
            <Keyframe id="6680"  time="-9999999/1" value="-552.6666666668234" leadInLength="0/1"  />
            <Keyframe id="6681"  time="135/1" value="-551.70000000015136" leadInLength="1/1"  interpolater="leadin-linr"  />
            <Keyframe id="6682"  time="187/1" value="-520.68166666636637" leadInLength="20/1"  interpolater="leadin-linr"  />
            <Keyframe id="6683"  time="198/1" value="-511.11929824492358" leadInLength="1/1"  interpolater="leadin-linr"  />
            </Keyframes>
           </InterpolatingParam>
           <InterpolatingParam id="6684" interp="linr"  >
            <Keyframes>
            <Keyframe id="6685"  time="-9999999/1" value="-38.333333333465688" leadInLength="0/1"  />
            <Keyframe id="6686"  time="135/1" value="-16.43333333346348" leadInLength="1/1"  interpolater="leadin-linr"  />
            <Keyframe id="6687"  time="187/1" value="45.138333333285146" leadInLength="20/1"  interpolater="leadin-linr"  />
            <Keyframe id="6688"  time="198/1" value="58.168421052611428" leadInLength="1/1"  interpolater="leadin-linr"  />
            </Keyframes>
           </InterpolatingParam>
           <InterpolatingParam id="6689" interp="linr"  >
            <Keyframes>
            <Keyframe id="6690"  time="-9999999/1" value="-3.4106051316488542e-010" leadInLength="0/1"  />
            <Keyframe id="6691"  time="135/1" value="-3.4106051316488542e-010" leadInLength="1/1"  interpolater="leadin-linr"  />
            <Keyframe id="6692"  time="187/1" value="-3.4106051316488536e-010" leadInLength="20/1"  interpolater="leadin-linr"  />
            <Keyframe id="6693"  time="198/1" value="-3.4106051316488542e-010" leadInLength="1/1"  interpolater="leadin-linr"  />
            </Keyframes>
           </InterpolatingParam>
          </VectorParam>
          <VectorParam id="6694"  name="rotation">
           <InterpolatingParam id="6695" interp="linr"  >
            <Keyframes>
            <Keyframe id="6696"  time="-9999999/1" value="0" leadInLength="0/1"  />
            <Keyframe id="6697"  time="135/1" value="0" leadInLength="1/1"  interpolater="leadin-linr"  />
            <Keyframe id="6698"  time="187/1" value="0" leadInLength="20/1"  interpolater="leadin-linr"  />
            <Keyframe id="6699"  time="198/1" value="0" leadInLength="1/1"  interpolater="leadin-linr"  />
            </Keyframes>
           </InterpolatingParam>
           <InterpolatingParam id="6700" interp="linr"  >
            <Keyframes>
            <Keyframe id="6701"  time="-9999999/1" value="0" leadInLength="0/1"  />
            <Keyframe id="6702"  time="135/1" value="0" leadInLength="1/1"  interpolater="leadin-linr"  />
            <Keyframe id="6703"  time="187/1" value="0" leadInLength="20/1"  interpolater="leadin-linr"  />
            <Keyframe id="6704"  time="198/1" value="0" leadInLength="1/1"  interpolater="leadin-linr"  />
            </Keyframes>
           </InterpolatingParam>
           <InterpolatingParam id="6705" interp="linr"  >
            <Keyframes>
            <Keyframe id="6706"  time="-9999999/1" value="0" leadInLength="0/1"  />
            <Keyframe id="6707"  time="135/1" value="0" leadInLength="1/1"  interpolater="leadin-linr"  />
            <Keyframe id="6708"  time="187/1" value="0" leadInLength="20/1"  interpolater="leadin-linr"  />
            <Keyframe id="6709"  time="198/1" value="0" leadInLength="1/1"  interpolater="leadin-linr"  />
            </Keyframes>
           </InterpolatingParam>
          </VectorParam>
          <VectorParam id="6710"  name="shear">
           <InterpolatingParam id="6711" interp="linr"  >
            <Keyframes>
            <Keyframe id="6712"  time="-9999999/1" value="0" leadInLength="0/1"  />
            <Keyframe id="6713"  time="135/1" value="0" leadInLength="1/1"  interpolater="leadin-linr"  />
            <Keyframe id="6714"  time="187/1" value="0" leadInLength="20/1"  interpolater="leadin-linr"  />
            <Keyframe id="6715"  time="198/1" value="0" leadInLength="1/1"  interpolater="leadin-linr"  />
            </Keyframes>
           </InterpolatingParam>
           <InterpolatingParam id="6716" interp="linr"  >
            <Keyframes>
            <Keyframe id="6717"  time="-9999999/1" value="0" leadInLength="0/1"  />
            <Keyframe id="6718"  time="135/1" value="0" leadInLength="1/1"  interpolater="leadin-linr"  />
            <Keyframe id="6719"  time="187/1" value="0" leadInLength="20/1"  interpolater="leadin-linr"  />
            <Keyframe id="6720"  time="198/1" value="0" leadInLength="1/1"  interpolater="leadin-linr"  />
            </Keyframes>
           </InterpolatingParam>
           <InterpolatingParam id="6721" interp="linr"  >
            <Keyframes>
            <Keyframe id="6722"  time="-9999999/1" value="0" leadInLength="0/1"  />
            <Keyframe id="6723"  time="135/1" value="0" leadInLength="1/1"  interpolater="leadin-linr"  />
            <Keyframe id="6724"  time="187/1" value="0" leadInLength="20/1"  interpolater="leadin-linr"  />
            <Keyframe id="6725"  time="198/1" value="0" leadInLength="1/1"  interpolater="leadin-linr"  />
            </Keyframes>
           </InterpolatingParam>
          </VectorParam>
          <VectorParam id="6726"  name="scale">
           <InterpolatingParam id="6727" interp="linr"  >
            <Keyframes>
            <Keyframe id="6728"  time="-9999999/1" value="0.40416666666720619" leadInLength="0/1"  />
            <Keyframe id="6729"  time="135/1" value="0.41020833333390694" leadInLength="1/1"  interpolater="leadin-linr"  />
            <Keyframe id="6730"  time="187/1" value="0.45282291666737695" leadInLength="20/1"  interpolater="leadin-linr"  />
            <Keyframe id="6731"  time="198/1" value="0.46383771929685758" leadInLength="1/1"  interpolater="leadin-linr"  />
            </Keyframes>
           </InterpolatingParam>
           <InterpolatingParam id="6732" interp="linr"  >
            <Keyframes>
            <Keyframe id="6733"  time="-9999999/1" value="1.5074074074077626" leadInLength="0/1"  />
            <Keyframe id="6734"  time="135/1" value="1.5285185185188903" leadInLength="1/1"  interpolater="leadin-linr"  />
            <Keyframe id="6735"  time="187/1" value="1.7874629629615149" leadInLength="20/1"  interpolater="leadin-linr"  />
            <Keyframe id="6736"  time="198/1" value="1.8209746588671016" leadInLength="1/1"  interpolater="leadin-linr"  />
            </Keyframes>
           </InterpolatingParam>
           <InterpolatingParam id="6737" interp="linr"  >
            <Keyframes>
            <Keyframe id="6738"  time="-9999999/1" value="1" leadInLength="0/1"  />
            <Keyframe id="6739"  time="135/1" value="1" leadInLength="1/1"  interpolater="leadin-linr"  />
            <Keyframe id="6740"  time="187/1" value="1" leadInLength="20/1"  interpolater="leadin-linr"  />
            <Keyframe id="6741"  time="198/1" value="1" leadInLength="1/1"  interpolater="leadin-linr"  />
            </Keyframes>
           </InterpolatingParam>
          </VectorParam>
          <VectorParam id="6742"  name="anchor">
           <InterpolatingParam id="6743" interp="linr"  time="0/1" value="0" leadInLength="0/1"  />
           <InterpolatingParam id="6744" interp="linr"  time="0/1" value="0" leadInLength="0/1"  />
           <InterpolatingParam id="6745" interp="linr"  time="0/1" value="0" leadInLength="0/1"  />
          </VectorParam>
         </Transformer>
         <Parameters>
          <VectorParam id="6746"  name="sourceCrop">
           <InterpolatingParam id="6747" interp="linr"  time="0/1" value="0" leadInLength="0/1"  />
           <InterpolatingParam id="6748" interp="linr"  time="0/1" value="0" leadInLength="0/1"  />
           <InterpolatingParam id="6749" interp="linr"  time="0/1" value="0" leadInLength="0/1"  />
           <InterpolatingParam id="6750" interp="linr"  time="0/1" value="0" leadInLength="0/1"  />
          </VectorParam>
          <VectorParam id="6751"  name="geometryCrop">
           <InterpolatingParam id="6752" interp="linr"  >
            <Keyframes>
            <Keyframe id="6753"  time="-9999999/1" value="0" leadInLength="0/1"  />
            <Keyframe id="6754"  time="135/1" value="0" leadInLength="1/1"  interpolater="leadin-linr"  />
            <Keyframe id="6755"  time="187/1" value="0" leadInLength="20/1"  interpolater="leadin-linr"  />
            <Keyframe id="6756"  time="198/1" value="0" leadInLength="1/1"  interpolater="leadin-linr"  />
            </Keyframes>
           </InterpolatingParam>
           <InterpolatingParam id="6757" interp="linr"  >
            <Keyframes>
            <Keyframe id="6758"  time="-9999999/1" value="0" leadInLength="0/1"  />
            <Keyframe id="6759"  time="135/1" value="0" leadInLength="1/1"  interpolater="leadin-linr"  />
            <Keyframe id="6760"  time="187/1" value="0" leadInLength="20/1"  interpolater="leadin-linr"  />
            <Keyframe id="6761"  time="198/1" value="0" leadInLength="1/1"  interpolater="leadin-linr"  />
            </Keyframes>
           </InterpolatingParam>
           <InterpolatingParam id="6762" interp="linr"  >
            <Keyframes>
            <Keyframe id="6763"  time="-9999999/1" value="0" leadInLength="0/1"  />
            <Keyframe id="6764"  time="135/1" value="0" leadInLength="1/1"  interpolater="leadin-linr"  />
            <Keyframe id="6765"  time="187/1" value="0" leadInLength="20/1"  interpolater="leadin-linr"  />
            <Keyframe id="6766"  time="198/1" value="0" leadInLength="1/1"  interpolater="leadin-linr"  />
            </Keyframes>
           </InterpolatingParam>
           <InterpolatingParam id="6767" interp="linr"  >
            <Keyframes>
            <Keyframe id="6768"  time="-9999999/1" value="0" leadInLength="0/1"  />
            <Keyframe id="6769"  time="135/1" value="0" leadInLength="1/1"  interpolater="leadin-linr"  />
            <Keyframe id="6770"  time="187/1" value="0" leadInLength="20/1"  interpolater="leadin-linr"  />
            <Keyframe id="6771"  time="198/1" value="0" leadInLength="1/1"  interpolater="leadin-linr"  />
            </Keyframes>
           </InterpolatingParam>
          </VectorParam>
          <InterpolatingParam id="6772" interp="linr"  name="opacity">
           <Keyframes>
           <Keyframe id="6773"  time="-9999999/1" value="1" leadInLength="0/1"  />
           <Keyframe id="6774"  time="135/1" value="1" leadInLength="1/1"  interpolater="leadin-linr"  />
           <Keyframe id="6775"  time="187/1" value="1" leadInLength="20/1"  interpolater="leadin-linr"  />
           <Keyframe id="6776"  time="198/1" value="1" leadInLength="1/1"  interpolater="leadin-linr"  />
           </Keyframes>
          </InterpolatingParam>
         </Parameters>
         <Effects>
          <GenericEffect id="6777" name = "DropShadow" >
           <Parameters>
           <InterpolatingParam id="6778" interp="linr"  time="0/1" value="315" leadInLength="0/1"   name="angle"/>
           <InterpolatingParam id="6779" interp="linr"  time="0/1" value="2" leadInLength="0/1"   name="blur"/>
           <Parameter id="6780"   name="enabled">
            <Keyframes>
            <Keyframe id="6781"  time="0/1" value="1" leadInLength="0/1"  />
            </Keyframes>
           </Parameter>
           <InterpolatingParam id="6782" interp="linr"  time="0/1" value="4" leadInLength="0/1"   name="offset"/>
           <InterpolatingParam id="6783" interp="linr"  time="0/1" value="1" leadInLength="0/1"   name="opacity"/>
           </Parameters>
          </GenericEffect>
         </Effects>
         <Attributes>
          <Attribute id="6784"  name="vectorNode">
           <VectorNode id="6785" kind="TypeWinSVG"  >
            <DoubleParameters>
             <InterpolatingParam id="6786" interp="linr"  time="0/1" value="1" leadInLength="0/1"  name="DrawTime"/>
             <InterpolatingParam id="6787" interp="linr"  time="0/1" value="0" leadInLength="0/1"  name="borderColorBlue"/>
             <InterpolatingParam id="6788" interp="linr"  time="0/1" value="0" leadInLength="0/1"  name="borderColorGreen"/>
             <InterpolatingParam id="6789" interp="linr"  time="0/1" value="255" leadInLength="0/1"  name="borderColorRed"/>
             <InterpolatingParam id="6790" interp="linr"  time="0/1" value="5" leadInLength="0/1"  name="borderWidth"/>
             <InterpolatingParam id="6791" interp="linr"  time="0/1" value="0" leadInLength="0/1"  name="flipOnXAxis"/>
             <InterpolatingParam id="6792" interp="linr"  time="0/1" value="0" leadInLength="0/1"  name="flipOnYAxis"/>
             <InterpolatingParam id="6793" interp="linr"  time="0/1" value="180" leadInLength="0/1"  name="height"/>
             <InterpolatingParam id="6794" interp="linr"  time="0/1" value="320" leadInLength="0/1"  name="width"/>
            </DoubleParameters>
            <StringParameters>
             <Parameter id="6795"  name="filename">
              <Keyframes>
              <Keyframe id="6796"  time="0/1" value="C:\Program Files (x86)\TechSmith\Camtasia Studio 8\Media\Studio\Callouts\anim_x.svg" leadInLength="0/1"  />
              </Keyframes>
             </Parameter>
             <Parameter id="6797"  name="name">
              <Keyframes>
              <Keyframe id="6798"  time="0/1" value="Sketch Motion X" leadInLength="0/1"  />
              </Keyframes>
             </Parameter>
             <Parameter id="6799"  name="xmlContent">
              <Keyframes>
              <Keyframe id="6800"  time="0/1" value="﻿&lt;?xml version=&quot;1.0&quot; encoding=&quot;utf-8&quot;?&gt;&#xa;&lt;!DOCTYPE svg PUBLIC &quot;-//W3C//DTD SVG 1.1//EN&quot; &quot;http://www.w3.org/Graphics/SVG/1.1/DTD/svg11.dtd&quot;&gt;&#xa;&lt;svg version=&quot;1.1&quot; id=&quot;Layer_1&quot; xmlns=&quot;http://www.w3.org/2000/svg&quot; xmlns:xlink=&quot;http://www.w3.org/1999/xlink&quot; x=&quot;0px&quot; y=&quot;0px&quot;&#xa;&#x9; width=&quot;128px&quot; height=&quot;109px&quot; viewBox=&quot;0 0 128 109&quot; enable-background=&quot;new 0 0 128 109&quot; xml:space=&quot;preserve&quot;&gt;&#xa;&lt;path fill=&quot;none&quot; d=&quot;M0,0 L100,100 M100,0 L0,100&quot;/&gt;&#xa;&lt;/svg&gt;&#xa;" leadInLength="0/1"  />
              </Keyframes>
             </Parameter>
            </StringParameters>
           </VectorNode>
          </Attribute>
         </Attributes>
         <MetaData>
          <entry key="WinSubProjectDisplayName" val=""/>
         </MetaData>
         <LeftEdgeMods length="23/1" groupName="DrawPercentageFade">
          <EdgeMod parameter="6786">
           <FadeInFunc id="6801"  />
          </EdgeMod>
         </LeftEdgeMods>
         <RightEdgeMods length="87/1" groupName="OpacityFade">
          <EdgeMod parameter="6772">
           <FadeOutFunc id="6802"  />
          </EdgeMod>
         </RightEdgeMods>
         <ExtraData>
          <Entry key="ZoomPanBin">
           <ZoomPanBin id="6803"  >
            <ZoomPanKeyframes>
             <ZoomPanKeyframe id="6804" timeRangeEnd="-9999999/1" timeRangeDuration="0/1" interpolaterName="linr"  />
             <ZoomPanKeyframe id="6805" timeRangeEnd="135/1" timeRangeDuration="1/1" interpolaterName="linr"  />
             <ZoomPanKeyframe id="6806" timeRangeEnd="198/1" timeRangeDuration="1/1" interpolaterName="linr"  />
             <ZoomPanKeyframe id="6807" timeRangeEnd="187/1" timeRangeDuration="20/1" interpolaterName="linr"  />
            </ZoomPanKeyframes>
           </ZoomPanBin>
          </Entry>
         </ExtraData>
        </Callout>
        <Callout id="6808" start="4300" duration="78" scalar="1/1" mediaStart="-42/1" mediaDuration="78/1" >
         <Transformer>
          <VectorParam id="6809"  name="translation">
           <InterpolatingParam id="6810" interp="linr"  time="-9999999/1" value="-568.66666666678691" leadInLength="0/1"  />
           <InterpolatingParam id="6811" interp="linr"  time="-9999999/1" value="186.66666666663914" leadInLength="0/1"  />
           <InterpolatingParam id="6812" interp="linr"  time="-9999999/1" value="0" leadInLength="0/1"  />
          </VectorParam>
          <VectorParam id="6813"  name="rotation">
           <InterpolatingParam id="6814" interp="linr"  time="-9999999/1" value="0" leadInLength="0/1"  />
           <InterpolatingParam id="6815" interp="linr"  time="-9999999/1" value="0" leadInLength="0/1"  />
           <InterpolatingParam id="6816" interp="linr"  time="-9999999/1" value="0" leadInLength="0/1"  />
          </VectorParam>
          <VectorParam id="6817"  name="shear">
           <InterpolatingParam id="6818" interp="linr"  time="-9999999/1" value="0" leadInLength="0/1"  />
           <InterpolatingParam id="6819" interp="linr"  time="-9999999/1" value="0" leadInLength="0/1"  />
           <InterpolatingParam id="6820" interp="linr"  time="-9999999/1" value="0" leadInLength="0/1"  />
          </VectorParam>
          <VectorParam id="6821"  name="scale">
           <InterpolatingParam id="6822" interp="linr"  time="-9999999/1" value="0.39583333333287229" leadInLength="0/1"  />
           <InterpolatingParam id="6823" interp="linr"  time="-9999999/1" value="0.33333333333358778" leadInLength="0/1"  />
           <InterpolatingParam id="6824" interp="linr"  time="-9999999/1" value="1" leadInLength="0/1"  />
          </VectorParam>
          <VectorParam id="6825"  name="anchor">
           <InterpolatingParam id="6826" interp="linr"  time="0/1" value="0" leadInLength="0/1"  />
           <InterpolatingParam id="6827" interp="linr"  time="0/1" value="0" leadInLength="0/1"  />
           <InterpolatingParam id="6828" interp="linr"  time="0/1" value="0" leadInLength="0/1"  />
          </VectorParam>
         </Transformer>
         <Parameters>
          <VectorParam id="6829"  name="sourceCrop">
           <InterpolatingParam id="6830" interp="linr"  time="0/1" value="0" leadInLength="0/1"  />
           <InterpolatingParam id="6831" interp="linr"  time="0/1" value="0" leadInLength="0/1"  />
           <InterpolatingParam id="6832" interp="linr"  time="0/1" value="0" leadInLength="0/1"  />
           <InterpolatingParam id="6833" interp="linr"  time="0/1" value="0" leadInLength="0/1"  />
          </VectorParam>
          <VectorParam id="6834"  name="geometryCrop">
           <InterpolatingParam id="6835" interp="linr"  time="-9999999/1" value="0" leadInLength="0/1"  />
           <InterpolatingParam id="6836" interp="linr"  time="-9999999/1" value="0" leadInLength="0/1"  />
           <InterpolatingParam id="6837" interp="linr"  time="-9999999/1" value="0" leadInLength="0/1"  />
           <InterpolatingParam id="6838" interp="linr"  time="-9999999/1" value="0" leadInLength="0/1"  />
          </VectorParam>
          <InterpolatingParam id="6839" interp="linr"  time="-9999999/1" value="1" leadInLength="0/1"  name="opacity"/>
         </Parameters>
         <Effects>
          <GenericEffect id="6840" name = "DropShadow" >
           <Parameters>
           <InterpolatingParam id="6841" interp="linr"  time="0/1" value="315" leadInLength="0/1"   name="angle"/>
           <InterpolatingParam id="6842" interp="linr"  time="0/1" value="2" leadInLength="0/1"   name="blur"/>
           <Parameter id="6843"   name="enabled">
            <Keyframes>
            <Keyframe id="6844"  time="0/1" value="1" leadInLength="0/1"  />
            </Keyframes>
           </Parameter>
           <InterpolatingParam id="6845" interp="linr"  time="0/1" value="4" leadInLength="0/1"   name="offset"/>
           <InterpolatingParam id="6846" interp="linr"  time="0/1" value="1" leadInLength="0/1"   name="opacity"/>
           </Parameters>
          </GenericEffect>
         </Effects>
         <Attributes>
          <Attribute id="6847"  name="vectorNode">
           <VectorNode id="6848" kind="TypeWinSVG"  >
            <DoubleParameters>
             <InterpolatingParam id="6849" interp="linr"  time="0/1" value="1" leadInLength="0/1"  name="DrawTime"/>
             <InterpolatingParam id="6850" interp="linr"  time="0/1" value="38" leadInLength="0/1"  name="borderColorBlue"/>
             <InterpolatingParam id="6851" interp="linr"  time="0/1" value="162" leadInLength="0/1"  name="borderColorGreen"/>
             <InterpolatingParam id="6852" interp="linr"  time="0/1" value="94" leadInLength="0/1"  name="borderColorRed"/>
             <InterpolatingParam id="6853" interp="linr"  time="0/1" value="5" leadInLength="0/1"  name="borderWidth"/>
             <InterpolatingParam id="6854" interp="linr"  time="0/1" value="1" leadInLength="0/1"  name="flipOnXAxis"/>
             <InterpolatingParam id="6855" interp="linr"  time="0/1" value="0" leadInLength="0/1"  name="flipOnYAxis"/>
             <InterpolatingParam id="6856" interp="linr"  time="0/1" value="180" leadInLength="0/1"  name="height"/>
             <InterpolatingParam id="6857" interp="linr"  time="0/1" value="320" leadInLength="0/1"  name="width"/>
            </DoubleParameters>
            <StringParameters>
             <Parameter id="6858"  name="filename">
              <Keyframes>
              <Keyframe id="6859"  time="0/1" value="C:\Program Files (x86)\TechSmith\Camtasia Studio 8\Media\Studio\Callouts\anim_drawnoval.svg" leadInLength="0/1"  />
              </Keyframes>
             </Parameter>
             <Parameter id="6860"  name="name">
              <Keyframes>
              <Keyframe id="6861"  time="0/1" value="Sketch Motion Oval" leadInLength="0/1"  />
              </Keyframes>
             </Parameter>
             <Parameter id="6862"  name="xmlContent">
              <Keyframes>
              <Keyframe id="6863"  time="0/1" value="﻿&lt;?xml version=&quot;1.0&quot; encoding=&quot;utf-8&quot;?&gt;&#xa;&lt;!-- Generator: Adobe Illustrator 13.0.2, SVG Export Plug-In . SVG Version: 6.00 Build 14948)  --&gt;&#xa;&lt;!DOCTYPE svg PUBLIC &quot;-//W3C//DTD SVG 1.1//EN&quot; &quot;http://www.w3.org/Graphics/SVG/1.1/DTD/svg11.dtd&quot;&gt;&#xa;&lt;svg version=&quot;1.1&quot; id=&quot;Layer_1&quot; xmlns=&quot;http://www.w3.org/2000/svg&quot; xmlns:xlink=&quot;http://www.w3.org/1999/xlink&quot; x=&quot;0px&quot; y=&quot;0px&quot;&#xa;&#x9; width=&quot;299.75px&quot; height=&quot;214.496px&quot; viewBox=&quot;0 0 299.75 214.496&quot; enable-background=&quot;new 0 0 299.75 214.496&quot;&#xa;&#x9; xml:space=&quot;preserve&quot;&gt;&#xa;&lt;path fill=&quot;none&quot; d=&quot;M142.383,0.35c-26-3-55,14-74,24c-69,38-104,133-16,172c54,24,119,23,175,4c40-13,83-43,70-91&#xa;&#x9;c-25-95-141-116-224-99&quot;/&gt;&#xa;&lt;/svg&gt;&#xa;" leadInLength="0/1"  />
              </Keyframes>
             </Parameter>
            </StringParameters>
           </VectorNode>
          </Attribute>
         </Attributes>
         <MetaData>
          <entry key="WinSubProjectDisplayName" val=""/>
         </MetaData>
         <LeftEdgeMods length="45/1" groupName="DrawPercentageFade">
          <EdgeMod parameter="6849">
           <FadeInFunc id="6864"  />
          </EdgeMod>
         </LeftEdgeMods>
         <RightEdgeMods length="3/1" groupName="OpacityFade">
          <EdgeMod parameter="6839">
           <FadeOutFunc id="6865"  />
          </EdgeMod>
         </RightEdgeMods>
         <ExtraData>
          <Entry key="ZoomPanBin">
           <ZoomPanBin id="6866"  >
            <ZoomPanKeyframes>
             <ZoomPanKeyframe id="6867" timeRangeEnd="-9999999/1" timeRangeDuration="0/1" interpolaterName="linr"  />
            </ZoomPanKeyframes>
           </ZoomPanBin>
          </Entry>
         </ExtraData>
        </Callout>
        <Callout id="6868" start="7124" duration="183" scalar="1/1" mediaStart="0/1" mediaDuration="183/1" >
         <Transformer>
          <VectorParam id="6869"  name="translation">
           <InterpolatingParam id="6870" interp="linr"  >
            <Keyframes>
            <Keyframe id="6871"  time="-9999999/1" value="-135" leadInLength="0/1"  />
            <Keyframe id="6872"  time="87/1" value="-135" leadInLength="5/1"  interpolater="leadin-linr"  />
            <Keyframe id="6873"  time="101/1" value="-140.44271844693304" leadInLength="1/1"  interpolater="leadin-linr"  />
            <Keyframe id="6874"  time="125/1" value="-139.94860079971252" leadInLength="1/1"  interpolater="leadin-linr"  />
            <Keyframe id="6875"  time="126/1" value="-139.94860079971252" leadInLength="1/1"  interpolater="leadin-linr"  />
            <Keyframe id="6876"  time="128/1" value="-139.94860079971252" leadInLength="1/1"  interpolater="leadin-linr"  />
            <Keyframe id="6877"  time="132/1" value="-139.94860079971252" leadInLength="1/1"  interpolater="leadin-linr"  />
            <Keyframe id="6878"  time="133/1" value="-139.94860079971252" leadInLength="1/1"  interpolater="leadin-linr"  />
            <Keyframe id="6879"  time="177/1" value="-139.94860079971798" leadInLength="27/1"  interpolater="leadin-linr"  />
            </Keyframes>
           </InterpolatingParam>
           <InterpolatingParam id="6880" interp="linr"  >
            <Keyframes>
            <Keyframe id="6881"  time="-9999999/1" value="41.667747825992699" leadInLength="0/1"  />
            <Keyframe id="6882"  time="87/1" value="76.36677459622048" leadInLength="5/1"  interpolater="leadin-linr"  />
            <Keyframe id="6883"  time="101/1" value="107.24533741791281" leadInLength="1/1"  interpolater="leadin-linr"  />
            <Keyframe id="6884"  time="125/1" value="115.57807922973099" leadInLength="1/1"  interpolater="leadin-linr"  />
            <Keyframe id="6885"  time="126/1" value="157.93102040617222" leadInLength="1/1"  interpolater="leadin-linr"  />
            <Keyframe id="6886"  time="128/1" value="187.3427851119676" leadInLength="1/1"  interpolater="leadin-linr"  />
            <Keyframe id="6887"  time="132/1" value="187.3427851119676" leadInLength="1/1"  interpolater="leadin-linr"  />
            <Keyframe id="6888"  time="133/1" value="199.10749099433315" leadInLength="1/1"  interpolater="leadin-linr"  />
            <Keyframe id="6889"  time="177/1" value="418.22513805303845" leadInLength="27/1"  interpolater="leadin-linr"  />
            </Keyframes>
           </InterpolatingParam>
           <InterpolatingParam id="6890" interp="linr"  >
            <Keyframes>
            <Keyframe id="6891"  time="-9999999/1" value="0" leadInLength="0/1"  />
            <Keyframe id="6892"  time="87/1" value="0" leadInLength="5/1"  interpolater="leadin-linr"  />
            <Keyframe id="6893"  time="101/1" value="0" leadInLength="1/1"  interpolater="leadin-linr"  />
            <Keyframe id="6894"  time="125/1" value="0" leadInLength="1/1"  interpolater="leadin-linr"  />
            <Keyframe id="6895"  time="126/1" value="0" leadInLength="1/1"  interpolater="leadin-linr"  />
            <Keyframe id="6896"  time="128/1" value="0" leadInLength="1/1"  interpolater="leadin-linr"  />
            <Keyframe id="6897"  time="132/1" value="0" leadInLength="1/1"  interpolater="leadin-linr"  />
            <Keyframe id="6898"  time="133/1" value="0" leadInLength="1/1"  interpolater="leadin-linr"  />
            <Keyframe id="6899"  time="177/1" value="0" leadInLength="27/1"  interpolater="leadin-linr"  />
            </Keyframes>
           </InterpolatingParam>
          </VectorParam>
          <VectorParam id="6900"  name="rotation">
           <InterpolatingParam id="6901" interp="linr"  >
            <Keyframes>
            <Keyframe id="6902"  time="-9999999/1" value="0" leadInLength="0/1"  />
            <Keyframe id="6903"  time="87/1" value="0" leadInLength="5/1"  interpolater="leadin-linr"  />
            <Keyframe id="6904"  time="101/1" value="0" leadInLength="1/1"  interpolater="leadin-linr"  />
            <Keyframe id="6905"  time="125/1" value="0" leadInLength="1/1"  interpolater="leadin-linr"  />
            <Keyframe id="6906"  time="126/1" value="0" leadInLength="1/1"  interpolater="leadin-linr"  />
            <Keyframe id="6907"  time="128/1" value="0" leadInLength="1/1"  interpolater="leadin-linr"  />
            <Keyframe id="6908"  time="132/1" value="0" leadInLength="1/1"  interpolater="leadin-linr"  />
            <Keyframe id="6909"  time="133/1" value="0" leadInLength="1/1"  interpolater="leadin-linr"  />
            <Keyframe id="6910"  time="177/1" value="0" leadInLength="27/1"  interpolater="leadin-linr"  />
            </Keyframes>
           </InterpolatingParam>
           <InterpolatingParam id="6911" interp="linr"  >
            <Keyframes>
            <Keyframe id="6912"  time="-9999999/1" value="0" leadInLength="0/1"  />
            <Keyframe id="6913"  time="87/1" value="0" leadInLength="5/1"  interpolater="leadin-linr"  />
            <Keyframe id="6914"  time="101/1" value="0" leadInLength="1/1"  interpolater="leadin-linr"  />
            <Keyframe id="6915"  time="125/1" value="0" leadInLength="1/1"  interpolater="leadin-linr"  />
            <Keyframe id="6916"  time="126/1" value="0" leadInLength="1/1"  interpolater="leadin-linr"  />
            <Keyframe id="6917"  time="128/1" value="0" leadInLength="1/1"  interpolater="leadin-linr"  />
            <Keyframe id="6918"  time="132/1" value="0" leadInLength="1/1"  interpolater="leadin-linr"  />
            <Keyframe id="6919"  time="133/1" value="0" leadInLength="1/1"  interpolater="leadin-linr"  />
            <Keyframe id="6920"  time="177/1" value="0" leadInLength="27/1"  interpolater="leadin-linr"  />
            </Keyframes>
           </InterpolatingParam>
           <InterpolatingParam id="6921" interp="linr"  >
            <Keyframes>
            <Keyframe id="6922"  time="-9999999/1" value="0" leadInLength="0/1"  />
            <Keyframe id="6923"  time="87/1" value="0" leadInLength="5/1"  interpolater="leadin-linr"  />
            <Keyframe id="6924"  time="101/1" value="0" leadInLength="1/1"  interpolater="leadin-linr"  />
            <Keyframe id="6925"  time="125/1" value="0" leadInLength="1/1"  interpolater="leadin-linr"  />
            <Keyframe id="6926"  time="126/1" value="0" leadInLength="1/1"  interpolater="leadin-linr"  />
            <Keyframe id="6927"  time="128/1" value="0" leadInLength="1/1"  interpolater="leadin-linr"  />
            <Keyframe id="6928"  time="132/1" value="0" leadInLength="1/1"  interpolater="leadin-linr"  />
            <Keyframe id="6929"  time="133/1" value="0" leadInLength="1/1"  interpolater="leadin-linr"  />
            <Keyframe id="6930"  time="177/1" value="0" leadInLength="27/1"  interpolater="leadin-linr"  />
            </Keyframes>
           </InterpolatingParam>
          </VectorParam>
          <VectorParam id="6931"  name="shear">
           <InterpolatingParam id="6932" interp="linr"  >
            <Keyframes>
            <Keyframe id="6933"  time="-9999999/1" value="0" leadInLength="0/1"  />
            <Keyframe id="6934"  time="87/1" value="0" leadInLength="5/1"  interpolater="leadin-linr"  />
            <Keyframe id="6935"  time="101/1" value="0" leadInLength="1/1"  interpolater="leadin-linr"  />
            <Keyframe id="6936"  time="125/1" value="0" leadInLength="1/1"  interpolater="leadin-linr"  />
            <Keyframe id="6937"  time="126/1" value="0" leadInLength="1/1"  interpolater="leadin-linr"  />
            <Keyframe id="6938"  time="128/1" value="0" leadInLength="1/1"  interpolater="leadin-linr"  />
            <Keyframe id="6939"  time="132/1" value="0" leadInLength="1/1"  interpolater="leadin-linr"  />
            <Keyframe id="6940"  time="133/1" value="0" leadInLength="1/1"  interpolater="leadin-linr"  />
            <Keyframe id="6941"  time="177/1" value="0" leadInLength="27/1"  interpolater="leadin-linr"  />
            </Keyframes>
           </InterpolatingParam>
           <InterpolatingParam id="6942" interp="linr"  >
            <Keyframes>
            <Keyframe id="6943"  time="-9999999/1" value="0" leadInLength="0/1"  />
            <Keyframe id="6944"  time="87/1" value="0" leadInLength="5/1"  interpolater="leadin-linr"  />
            <Keyframe id="6945"  time="101/1" value="0" leadInLength="1/1"  interpolater="leadin-linr"  />
            <Keyframe id="6946"  time="125/1" value="0" leadInLength="1/1"  interpolater="leadin-linr"  />
            <Keyframe id="6947"  time="126/1" value="0" leadInLength="1/1"  interpolater="leadin-linr"  />
            <Keyframe id="6948"  time="128/1" value="0" leadInLength="1/1"  interpolater="leadin-linr"  />
            <Keyframe id="6949"  time="132/1" value="0" leadInLength="1/1"  interpolater="leadin-linr"  />
            <Keyframe id="6950"  time="133/1" value="0" leadInLength="1/1"  interpolater="leadin-linr"  />
            <Keyframe id="6951"  time="177/1" value="0" leadInLength="27/1"  interpolater="leadin-linr"  />
            </Keyframes>
           </InterpolatingParam>
           <InterpolatingParam id="6952" interp="linr"  >
            <Keyframes>
            <Keyframe id="6953"  time="-9999999/1" value="0" leadInLength="0/1"  />
            <Keyframe id="6954"  time="87/1" value="0" leadInLength="5/1"  interpolater="leadin-linr"  />
            <Keyframe id="6955"  time="101/1" value="0" leadInLength="1/1"  interpolater="leadin-linr"  />
            <Keyframe id="6956"  time="125/1" value="0" leadInLength="1/1"  interpolater="leadin-linr"  />
            <Keyframe id="6957"  time="126/1" value="0" leadInLength="1/1"  interpolater="leadin-linr"  />
            <Keyframe id="6958"  time="128/1" value="0" leadInLength="1/1"  interpolater="leadin-linr"  />
            <Keyframe id="6959"  time="132/1" value="0" leadInLength="1/1"  interpolater="leadin-linr"  />
            <Keyframe id="6960"  time="133/1" value="0" leadInLength="1/1"  interpolater="leadin-linr"  />
            <Keyframe id="6961"  time="177/1" value="0" leadInLength="27/1"  interpolater="leadin-linr"  />
            </Keyframes>
           </InterpolatingParam>
          </VectorParam>
          <VectorParam id="6962"  name="scale">
           <InterpolatingParam id="6963" interp="linr"  >
            <Keyframes>
            <Keyframe id="6964"  time="-9999999/1" value="0.36575229158561207" leadInLength="0/1"  />
            <Keyframe id="6965"  time="87/1" value="0.36986007995304027" leadInLength="5/1"  interpolater="leadin-linr"  />
            <Keyframe id="6966"  time="101/1" value="0.33677184465899562" leadInLength="1/1"  interpolater="leadin-linr"  />
            <Keyframe id="6967"  time="125/1" value="0.33677184465946008" leadInLength="1/1"  interpolater="leadin-linr"  />
            <Keyframe id="6968"  time="126/1" value="0.33677184465946008" leadInLength="1/1"  interpolater="leadin-linr"  />
            <Keyframe id="6969"  time="128/1" value="0.33677184465946008" leadInLength="1/1"  interpolater="leadin-linr"  />
            <Keyframe id="6970"  time="132/1" value="0.33677184465946008" leadInLength="1/1"  interpolater="leadin-linr"  />
            <Keyframe id="6971"  time="133/1" value="0.33677184465946008" leadInLength="1/1"  interpolater="leadin-linr"  />
            <Keyframe id="6972"  time="177/1" value="0.3367718446594945" leadInLength="27/1"  interpolater="leadin-linr"  />
            </Keyframes>
           </InterpolatingParam>
           <InterpolatingParam id="6973" interp="linr"  >
            <Keyframes>
            <Keyframe id="6974"  time="-9999999/1" value="0.26191896729391612" leadInLength="0/1"  />
            <Keyframe id="6975"  time="87/1" value="0.26575290310301869" leadInLength="5/1"  interpolater="leadin-linr"  />
            <Keyframe id="6976"  time="101/1" value="0.22653721682801692" leadInLength="1/1"  interpolater="leadin-linr"  />
            <Keyframe id="6977"  time="125/1" value="0.239609112253896" leadInLength="1/1"  interpolater="leadin-linr"  />
            <Keyframe id="6978"  time="126/1" value="0.23960911225435336" leadInLength="1/1"  interpolater="leadin-linr"  />
            <Keyframe id="6979"  time="128/1" value="0.23960911225517917" leadInLength="1/1"  interpolater="leadin-linr"  />
            <Keyframe id="6980"  time="132/1" value="0.23960911225517917" leadInLength="1/1"  interpolater="leadin-linr"  />
            <Keyframe id="6981"  time="133/1" value="0.2396091122552812" leadInLength="1/1"  interpolater="leadin-linr"  />
            <Keyframe id="6982"  time="177/1" value="0.23960911225567411" leadInLength="27/1"  interpolater="leadin-linr"  />
            </Keyframes>
           </InterpolatingParam>
           <InterpolatingParam id="6983" interp="linr"  >
            <Keyframes>
            <Keyframe id="6984"  time="-9999999/1" value="1" leadInLength="0/1"  />
            <Keyframe id="6985"  time="87/1" value="1" leadInLength="5/1"  interpolater="leadin-linr"  />
            <Keyframe id="6986"  time="101/1" value="1" leadInLength="1/1"  interpolater="leadin-linr"  />
            <Keyframe id="6987"  time="125/1" value="1" leadInLength="1/1"  interpolater="leadin-linr"  />
            <Keyframe id="6988"  time="126/1" value="1" leadInLength="1/1"  interpolater="leadin-linr"  />
            <Keyframe id="6989"  time="128/1" value="1" leadInLength="1/1"  interpolater="leadin-linr"  />
            <Keyframe id="6990"  time="132/1" value="1" leadInLength="1/1"  interpolater="leadin-linr"  />
            <Keyframe id="6991"  time="133/1" value="1" leadInLength="1/1"  interpolater="leadin-linr"  />
            <Keyframe id="6992"  time="177/1" value="1" leadInLength="27/1"  interpolater="leadin-linr"  />
            </Keyframes>
           </InterpolatingParam>
          </VectorParam>
          <VectorParam id="6993"  name="anchor">
           <InterpolatingParam id="6994" interp="linr"  time="0/1" value="0" leadInLength="0/1"  />
           <InterpolatingParam id="6995" interp="linr"  time="0/1" value="0" leadInLength="0/1"  />
           <InterpolatingParam id="6996" interp="linr"  time="0/1" value="0" leadInLength="0/1"  />
          </VectorParam>
         </Transformer>
         <Parameters>
          <VectorParam id="6997"  name="sourceCrop">
           <InterpolatingParam id="6998" interp="linr"  time="0/1" value="0" leadInLength="0/1"  />
           <InterpolatingParam id="6999" interp="linr"  time="0/1" value="0" leadInLength="0/1"  />
           <InterpolatingParam id="7000" interp="linr"  time="0/1" value="0" leadInLength="0/1"  />
           <InterpolatingParam id="7001" interp="linr"  time="0/1" value="0" leadInLength="0/1"  />
          </VectorParam>
          <VectorParam id="7002"  name="geometryCrop">
           <InterpolatingParam id="7003" interp="linr"  >
            <Keyframes>
            <Keyframe id="7004"  time="-9999999/1" value="0" leadInLength="0/1"  />
            <Keyframe id="7005"  time="87/1" value="0" leadInLength="5/1"  interpolater="leadin-linr"  />
            <Keyframe id="7006"  time="101/1" value="0" leadInLength="1/1"  interpolater="leadin-linr"  />
            <Keyframe id="7007"  time="125/1" value="0" leadInLength="1/1"  interpolater="leadin-linr"  />
            <Keyframe id="7008"  time="126/1" value="0" leadInLength="1/1"  interpolater="leadin-linr"  />
            <Keyframe id="7009"  time="128/1" value="0" leadInLength="1/1"  interpolater="leadin-linr"  />
            <Keyframe id="7010"  time="132/1" value="0" leadInLength="1/1"  interpolater="leadin-linr"  />
            <Keyframe id="7011"  time="133/1" value="0" leadInLength="1/1"  interpolater="leadin-linr"  />
            <Keyframe id="7012"  time="177/1" value="0" leadInLength="27/1"  interpolater="leadin-linr"  />
            </Keyframes>
           </InterpolatingParam>
           <InterpolatingParam id="7013" interp="linr"  >
            <Keyframes>
            <Keyframe id="7014"  time="-9999999/1" value="0" leadInLength="0/1"  />
            <Keyframe id="7015"  time="87/1" value="0" leadInLength="5/1"  interpolater="leadin-linr"  />
            <Keyframe id="7016"  time="101/1" value="0" leadInLength="1/1"  interpolater="leadin-linr"  />
            <Keyframe id="7017"  time="125/1" value="0" leadInLength="1/1"  interpolater="leadin-linr"  />
            <Keyframe id="7018"  time="126/1" value="0" leadInLength="1/1"  interpolater="leadin-linr"  />
            <Keyframe id="7019"  time="128/1" value="0" leadInLength="1/1"  interpolater="leadin-linr"  />
            <Keyframe id="7020"  time="132/1" value="0" leadInLength="1/1"  interpolater="leadin-linr"  />
            <Keyframe id="7021"  time="133/1" value="0" leadInLength="1/1"  interpolater="leadin-linr"  />
            <Keyframe id="7022"  time="177/1" value="0" leadInLength="27/1"  interpolater="leadin-linr"  />
            </Keyframes>
           </InterpolatingParam>
           <InterpolatingParam id="7023" interp="linr"  >
            <Keyframes>
            <Keyframe id="7024"  time="-9999999/1" value="0" leadInLength="0/1"  />
            <Keyframe id="7025"  time="87/1" value="0" leadInLength="5/1"  interpolater="leadin-linr"  />
            <Keyframe id="7026"  time="101/1" value="0" leadInLength="1/1"  interpolater="leadin-linr"  />
            <Keyframe id="7027"  time="125/1" value="0" leadInLength="1/1"  interpolater="leadin-linr"  />
            <Keyframe id="7028"  time="126/1" value="0" leadInLength="1/1"  interpolater="leadin-linr"  />
            <Keyframe id="7029"  time="128/1" value="0" leadInLength="1/1"  interpolater="leadin-linr"  />
            <Keyframe id="7030"  time="132/1" value="0" leadInLength="1/1"  interpolater="leadin-linr"  />
            <Keyframe id="7031"  time="133/1" value="0" leadInLength="1/1"  interpolater="leadin-linr"  />
            <Keyframe id="7032"  time="177/1" value="0" leadInLength="27/1"  interpolater="leadin-linr"  />
            </Keyframes>
           </InterpolatingParam>
           <InterpolatingParam id="7033" interp="linr"  >
            <Keyframes>
            <Keyframe id="7034"  time="-9999999/1" value="0" leadInLength="0/1"  />
            <Keyframe id="7035"  time="87/1" value="0" leadInLength="5/1"  interpolater="leadin-linr"  />
            <Keyframe id="7036"  time="101/1" value="0" leadInLength="1/1"  interpolater="leadin-linr"  />
            <Keyframe id="7037"  time="125/1" value="0" leadInLength="1/1"  interpolater="leadin-linr"  />
            <Keyframe id="7038"  time="126/1" value="0" leadInLength="1/1"  interpolater="leadin-linr"  />
            <Keyframe id="7039"  time="128/1" value="0" leadInLength="1/1"  interpolater="leadin-linr"  />
            <Keyframe id="7040"  time="132/1" value="0" leadInLength="1/1"  interpolater="leadin-linr"  />
            <Keyframe id="7041"  time="133/1" value="0" leadInLength="1/1"  interpolater="leadin-linr"  />
            <Keyframe id="7042"  time="177/1" value="0" leadInLength="27/1"  interpolater="leadin-linr"  />
            </Keyframes>
           </InterpolatingParam>
          </VectorParam>
          <InterpolatingParam id="7043" interp="linr"  name="opacity">
           <Keyframes>
           <Keyframe id="7044"  time="-9999999/1" value="1" leadInLength="0/1"  />
           <Keyframe id="7045"  time="87/1" value="1" leadInLength="5/1"  interpolater="leadin-linr"  />
           <Keyframe id="7046"  time="101/1" value="1" leadInLength="1/1"  interpolater="leadin-linr"  />
           <Keyframe id="7047"  time="125/1" value="1" leadInLength="1/1"  interpolater="leadin-linr"  />
           <Keyframe id="7048"  time="126/1" value="1" leadInLength="1/1"  interpolater="leadin-linr"  />
           <Keyframe id="7049"  time="128/1" value="1" leadInLength="1/1"  interpolater="leadin-linr"  />
           <Keyframe id="7050"  time="132/1" value="1" leadInLength="1/1"  interpolater="leadin-linr"  />
           <Keyframe id="7051"  time="133/1" value="1" leadInLength="1/1"  interpolater="leadin-linr"  />
           <Keyframe id="7052"  time="177/1" value="1" leadInLength="27/1"  interpolater="leadin-linr"  />
           </Keyframes>
          </InterpolatingParam>
         </Parameters>
         <Effects>
          <GenericEffect id="7053" name = "DropShadow" >
           <Parameters>
           <InterpolatingParam id="7054" interp="linr"  time="0/1" value="315" leadInLength="0/1"   name="angle"/>
           <InterpolatingParam id="7055" interp="linr"  time="0/1" value="2" leadInLength="0/1"   name="blur"/>
           <Parameter id="7056"   name="enabled">
            <Keyframes>
            <Keyframe id="7057"  time="0/1" value="1" leadInLength="0/1"  />
            </Keyframes>
           </Parameter>
           <InterpolatingParam id="7058" interp="linr"  time="0/1" value="4" leadInLength="0/1"   name="offset"/>
           <InterpolatingParam id="7059" interp="linr"  time="0/1" value="1" leadInLength="0/1"   name="opacity"/>
           </Parameters>
          </GenericEffect>
         </Effects>
         <Attributes>
          <Attribute id="7060"  name="vectorNode">
           <VectorNode id="7061" kind="TypeWinSVG"  >
            <DoubleParameters>
             <InterpolatingParam id="7062" interp="linr"  time="0/1" value="1" leadInLength="0/1"  name="DrawTime"/>
             <InterpolatingParam id="7063" interp="linr"  time="0/1" value="0" leadInLength="0/1"  name="borderColorBlue"/>
             <InterpolatingParam id="7064" interp="linr"  time="0/1" value="0" leadInLength="0/1"  name="borderColorGreen"/>
             <InterpolatingParam id="7065" interp="linr"  time="0/1" value="255" leadInLength="0/1"  name="borderColorRed"/>
             <InterpolatingParam id="7066" interp="linr"  time="0/1" value="5" leadInLength="0/1"  name="borderWidth"/>
             <InterpolatingParam id="7067" interp="linr"  time="0/1" value="1" leadInLength="0/1"  name="flipOnXAxis"/>
             <InterpolatingParam id="7068" interp="linr"  time="0/1" value="0" leadInLength="0/1"  name="flipOnYAxis"/>
             <InterpolatingParam id="7069" interp="linr"  time="0/1" value="180" leadInLength="0/1"  name="height"/>
             <InterpolatingParam id="7070" interp="linr"  time="0/1" value="320" leadInLength="0/1"  name="width"/>
            </DoubleParameters>
            <StringParameters>
             <Parameter id="7071"  name="filename">
              <Keyframes>
              <Keyframe id="7072"  time="0/1" value="C:\Program Files (x86)\TechSmith\Camtasia Studio 8\Media\Studio\Callouts\anim_arrow.svg" leadInLength="0/1"  />
              </Keyframes>
             </Parameter>
             <Parameter id="7073"  name="name">
              <Keyframes>
              <Keyframe id="7074"  time="0/1" value="Sketch Motion Arrow" leadInLength="0/1"  />
              </Keyframes>
             </Parameter>
             <Parameter id="7075"  name="xmlContent">
              <Keyframes>
              <Keyframe id="7076"  time="0/1" value="﻿&lt;?xml version=&quot;1.0&quot; encoding=&quot;utf-8&quot;?&gt;&#xa;&lt;!-- Generator: Adobe Illustrator 13.0.2, SVG Export Plug-In . SVG Version: 6.00 Build 14948)  --&gt;&#xa;&lt;!DOCTYPE svg PUBLIC &quot;-//W3C//DTD SVG 1.1//EN&quot; &quot;http://www.w3.org/Graphics/SVG/1.1/DTD/svg11.dtd&quot;&gt;&#xa;&lt;svg version=&quot;1.1&quot; id=&quot;Layer_1&quot; xmlns=&quot;http://www.w3.org/2000/svg&quot; xmlns:xlink=&quot;http://www.w3.org/1999/xlink&quot; x=&quot;0px&quot; y=&quot;0px&quot;&#xa;&#x9; width=&quot;151.268px&quot; height=&quot;53px&quot; viewBox=&quot;0 0 151.268 53&quot; enable-background=&quot;new 0 0 151.268 53&quot; xml:space=&quot;preserve&quot;&gt;&#xa;&lt;path fill=&quot;none&quot; d=&quot;M12.852,24.926c0,0,85.25-8.838,118.688-2.996&quot;/&gt;&#xa;&lt;path fill=&quot;none&quot; d=&quot;M93.169,2.713c0,0,46.52,8.657,49.944,18.729c3.424,10.071-43.753,26.022-43.753,26.022&quot;/&gt;&#xa;&lt;/svg&gt;&#xa;" leadInLength="0/1"  />
              </Keyframes>
             </Parameter>
            </StringParameters>
           </VectorNode>
          </Attribute>
         </Attributes>
         <MetaData>
          <entry key="WinSubProjectDisplayName" val=""/>
         </MetaData>
         <LeftEdgeMods length="30/1" groupName="DrawPercentageFade">
          <EdgeMod parameter="7062">
           <FadeInFunc id="6865"  />
          </EdgeMod>
         </LeftEdgeMods>
         <RightEdgeMods length="30/1" groupName="OpacityFade">
          <EdgeMod parameter="7043">
           <FadeOutFunc id="7077"  />
          </EdgeMod>
         </RightEdgeMods>
         <ExtraData>
          <Entry key="ZoomPanBin">
           <ZoomPanBin id="7078"  >
            <ZoomPanKeyframes>
             <ZoomPanKeyframe id="7079" timeRangeEnd="-9999999/1" timeRangeDuration="0/1" interpolaterName="linr"  />
             <ZoomPanKeyframe id="7080" timeRangeEnd="87/1" timeRangeDuration="5/1" interpolaterName="linr"  />
             <ZoomPanKeyframe id="7081" timeRangeEnd="101/1" timeRangeDuration="1/1" interpolaterName="linr"  />
             <ZoomPanKeyframe id="7082" timeRangeEnd="125/1" timeRangeDuration="1/1" interpolaterName="linr"  />
             <ZoomPanKeyframe id="7083" timeRangeEnd="126/1" timeRangeDuration="1/1" interpolaterName="linr"  />
             <ZoomPanKeyframe id="7084" timeRangeEnd="128/1" timeRangeDuration="1/1" interpolaterName="linr"  />
             <ZoomPanKeyframe id="7085" timeRangeEnd="132/1" timeRangeDuration="1/1" interpolaterName="linr"  />
             <ZoomPanKeyframe id="7086" timeRangeEnd="133/1" timeRangeDuration="1/1" interpolaterName="linr"  />
             <ZoomPanKeyframe id="7087" timeRangeEnd="177/1" timeRangeDuration="27/1" interpolaterName="linr"  />
            </ZoomPanKeyframes>
           </ZoomPanBin>
          </Entry>
         </ExtraData>
        </Callout>
        <Callout id="7088" start="7512" duration="64" scalar="1/1" mediaStart="0/1" mediaDuration="64/1" >
         <Transformer>
          <VectorParam id="7089"  name="translation">
           <InterpolatingParam id="7090" interp="linr"  time="-9999999/1" value="338.90109890094891" leadInLength="0/1"  />
           <InterpolatingParam id="7091" interp="linr"  time="-9999999/1" value="83.076923077016431" leadInLength="0/1"  />
           <InterpolatingParam id="7092" interp="linr"  time="-9999999/1" value="0" leadInLength="0/1"  />
          </VectorParam>
          <VectorParam id="7093"  name="rotation">
           <InterpolatingParam id="7094" interp="linr"  time="-9999999/1" value="0" leadInLength="0/1"  />
           <InterpolatingParam id="7095" interp="linr"  time="-9999999/1" value="0" leadInLength="0/1"  />
           <InterpolatingParam id="7096" interp="linr"  time="-9999999/1" value="0" leadInLength="0/1"  />
          </VectorParam>
          <VectorParam id="7097"  name="shear">
           <InterpolatingParam id="7098" interp="linr"  time="-9999999/1" value="0" leadInLength="0/1"  />
           <InterpolatingParam id="7099" interp="linr"  time="-9999999/1" value="0" leadInLength="0/1"  />
           <InterpolatingParam id="7100" interp="linr"  time="-9999999/1" value="0" leadInLength="0/1"  />
          </VectorParam>
          <VectorParam id="7101"  name="scale">
           <InterpolatingParam id="7102" interp="linr"  time="-9999999/1" value="0.43131868131852463" leadInLength="0/1"  />
           <InterpolatingParam id="7103" interp="linr"  time="-9999999/1" value="0.34798534798515268" leadInLength="0/1"  />
           <InterpolatingParam id="7104" interp="linr"  time="-9999999/1" value="1" leadInLength="0/1"  />
          </VectorParam>
          <VectorParam id="7105"  name="anchor">
           <InterpolatingParam id="7106" interp="linr"  time="0/1" value="0" leadInLength="0/1"  />
           <InterpolatingParam id="7107" interp="linr"  time="0/1" value="0" leadInLength="0/1"  />
           <InterpolatingParam id="7108" interp="linr"  time="0/1" value="0" leadInLength="0/1"  />
          </VectorParam>
         </Transformer>
         <Parameters>
          <VectorParam id="7109"  name="sourceCrop">
           <InterpolatingParam id="7110" interp="linr"  time="0/1" value="0" leadInLength="0/1"  />
           <InterpolatingParam id="7111" interp="linr"  time="0/1" value="0" leadInLength="0/1"  />
           <InterpolatingParam id="7112" interp="linr"  time="0/1" value="0" leadInLength="0/1"  />
           <InterpolatingParam id="7113" interp="linr"  time="0/1" value="0" leadInLength="0/1"  />
          </VectorParam>
          <VectorParam id="7114"  name="geometryCrop">
           <InterpolatingParam id="7115" interp="linr"  time="-9999999/1" value="0" leadInLength="0/1"  />
           <InterpolatingParam id="7116" interp="linr"  time="-9999999/1" value="0" leadInLength="0/1"  />
           <InterpolatingParam id="7117" interp="linr"  time="-9999999/1" value="0" leadInLength="0/1"  />
           <InterpolatingParam id="7118" interp="linr"  time="-9999999/1" value="0" leadInLength="0/1"  />
          </VectorParam>
          <InterpolatingParam id="7119" interp="linr"  time="-9999999/1" value="1" leadInLength="0/1"  name="opacity"/>
         </Parameters>
         <Effects>
          <GenericEffect id="7120" name = "DropShadow" >
           <Parameters>
           <InterpolatingParam id="7121" interp="linr"  time="0/1" value="315" leadInLength="0/1"   name="angle"/>
           <InterpolatingParam id="7122" interp="linr"  time="0/1" value="2" leadInLength="0/1"   name="blur"/>
           <Parameter id="7123"   name="enabled">
            <Keyframes>
            <Keyframe id="7124"  time="0/1" value="1" leadInLength="0/1"  />
            </Keyframes>
           </Parameter>
           <InterpolatingParam id="7125" interp="linr"  time="0/1" value="4" leadInLength="0/1"   name="offset"/>
           <InterpolatingParam id="7126" interp="linr"  time="0/1" value="1" leadInLength="0/1"   name="opacity"/>
           </Parameters>
          </GenericEffect>
         </Effects>
         <Attributes>
          <Attribute id="7127"  name="vectorNode">
           <VectorNode id="7128" kind="TypeWinSVG"  >
            <DoubleParameters>
             <InterpolatingParam id="7129" interp="linr"  time="0/1" value="1" leadInLength="0/1"  name="DrawTime"/>
             <InterpolatingParam id="7130" interp="linr"  time="0/1" value="0" leadInLength="0/1"  name="borderColorBlue"/>
             <InterpolatingParam id="7131" interp="linr"  time="0/1" value="0" leadInLength="0/1"  name="borderColorGreen"/>
             <InterpolatingParam id="7132" interp="linr"  time="0/1" value="255" leadInLength="0/1"  name="borderColorRed"/>
             <InterpolatingParam id="7133" interp="linr"  time="0/1" value="5" leadInLength="0/1"  name="borderWidth"/>
             <InterpolatingParam id="7134" interp="linr"  time="0/1" value="0" leadInLength="0/1"  name="flipOnXAxis"/>
             <InterpolatingParam id="7135" interp="linr"  time="0/1" value="1" leadInLength="0/1"  name="flipOnYAxis"/>
             <InterpolatingParam id="7136" interp="linr"  time="0/1" value="180" leadInLength="0/1"  name="height"/>
             <InterpolatingParam id="7137" interp="linr"  time="0/1" value="320" leadInLength="0/1"  name="width"/>
            </DoubleParameters>
            <StringParameters>
             <Parameter id="7138"  name="filename">
              <Keyframes>
              <Keyframe id="7139"  time="0/1" value="C:\Program Files (x86)\TechSmith\Camtasia Studio 8\Media\Studio\Callouts\anim_arrow.svg" leadInLength="0/1"  />
              </Keyframes>
             </Parameter>
             <Parameter id="7140"  name="name">
              <Keyframes>
              <Keyframe id="7141"  time="0/1" value="Sketch Motion Arrow" leadInLength="0/1"  />
              </Keyframes>
             </Parameter>
             <Parameter id="7142"  name="xmlContent">
              <Keyframes>
              <Keyframe id="7143"  time="0/1" value="﻿&lt;?xml version=&quot;1.0&quot; encoding=&quot;utf-8&quot;?&gt;&#xa;&lt;!-- Generator: Adobe Illustrator 13.0.2, SVG Export Plug-In . SVG Version: 6.00 Build 14948)  --&gt;&#xa;&lt;!DOCTYPE svg PUBLIC &quot;-//W3C//DTD SVG 1.1//EN&quot; &quot;http://www.w3.org/Graphics/SVG/1.1/DTD/svg11.dtd&quot;&gt;&#xa;&lt;svg version=&quot;1.1&quot; id=&quot;Layer_1&quot; xmlns=&quot;http://www.w3.org/2000/svg&quot; xmlns:xlink=&quot;http://www.w3.org/1999/xlink&quot; x=&quot;0px&quot; y=&quot;0px&quot;&#xa;&#x9; width=&quot;151.268px&quot; height=&quot;53px&quot; viewBox=&quot;0 0 151.268 53&quot; enable-background=&quot;new 0 0 151.268 53&quot; xml:space=&quot;preserve&quot;&gt;&#xa;&lt;path fill=&quot;none&quot; d=&quot;M12.852,24.926c0,0,85.25-8.838,118.688-2.996&quot;/&gt;&#xa;&lt;path fill=&quot;none&quot; d=&quot;M93.169,2.713c0,0,46.52,8.657,49.944,18.729c3.424,10.071-43.753,26.022-43.753,26.022&quot;/&gt;&#xa;&lt;/svg&gt;&#xa;" leadInLength="0/1"  />
              </Keyframes>
             </Parameter>
            </StringParameters>
           </VectorNode>
          </Attribute>
         </Attributes>
         <MetaData>
          <entry key="WinSubProjectDisplayName" val=""/>
         </MetaData>
         <LeftEdgeMods length="30/1" groupName="DrawPercentageFade">
          <EdgeMod parameter="7129">
           <FadeInFunc id="7144"  />
          </EdgeMod>
         </LeftEdgeMods>
         <RightEdgeMods length="23/1" groupName="OpacityFade">
          <EdgeMod parameter="7119">
           <FadeOutFunc id="7145"  />
          </EdgeMod>
         </RightEdgeMods>
         <ExtraData>
          <Entry key="ZoomPanBin">
           <ZoomPanBin id="7146"  >
            <ZoomPanKeyframes>
             <ZoomPanKeyframe id="7147" timeRangeEnd="-9999999/1" timeRangeDuration="0/1" interpolaterName="linr"  />
            </ZoomPanKeyframes>
           </ZoomPanBin>
          </Entry>
         </ExtraData>
        </Callout>
        <Callout id="7148" start="7632" duration="31" scalar="1/1" mediaStart="111/1" mediaDuration="31/1" >
         <Transformer>
          <VectorParam id="7149"  name="translation">
           <InterpolatingParam id="7150" interp="linr"  >
            <Keyframes>
            <Keyframe id="7151"  time="-9999999/1" value="432.79411764742588" leadInLength="0/1"  />
            <Keyframe id="7152"  time="114/1" value="432.79411764742582" leadInLength="3/1"  interpolater="leadin-linr"  />
            <Keyframe id="7153"  time="118/1" value="439.85294117685055" leadInLength="4/1"  interpolater="leadin-linr"  />
            <Keyframe id="7154"  time="126/1" value="438.67647058862588" leadInLength="8/1"  interpolater="leadin-linr"  />
            <Keyframe id="7155"  time="130/1" value="438.67647058862588" leadInLength="4/1"  interpolater="leadin-linr"  />
            </Keyframes>
           </InterpolatingParam>
           <InterpolatingParam id="7156" interp="linr"  >
            <Keyframes>
            <Keyframe id="7157"  time="-9999999/1" value="-192.40196078417762" leadInLength="0/1"  />
            <Keyframe id="7158"  time="114/1" value="-82.99019607825457" leadInLength="3/1"  interpolater="leadin-linr"  />
            <Keyframe id="7159"  time="118/1" value="197.00980392183928" leadInLength="4/1"  interpolater="leadin-linr"  />
            <Keyframe id="7160"  time="126/1" value="222.8921568630158" leadInLength="8/1"  interpolater="leadin-linr"  />
            <Keyframe id="7161"  time="130/1" value="472.30392156899342" leadInLength="4/1"  interpolater="leadin-linr"  />
            </Keyframes>
           </InterpolatingParam>
           <InterpolatingParam id="7162" interp="linr"  >
            <Keyframes>
            <Keyframe id="7163"  time="-9999999/1" value="0" leadInLength="0/1"  />
            <Keyframe id="7164"  time="114/1" value="0" leadInLength="3/1"  interpolater="leadin-linr"  />
            <Keyframe id="7165"  time="118/1" value="0" leadInLength="4/1"  interpolater="leadin-linr"  />
            <Keyframe id="7166"  time="126/1" value="0" leadInLength="8/1"  interpolater="leadin-linr"  />
            <Keyframe id="7167"  time="130/1" value="0" leadInLength="4/1"  interpolater="leadin-linr"  />
            </Keyframes>
           </InterpolatingParam>
          </VectorParam>
          <VectorParam id="7168"  name="rotation">
           <InterpolatingParam id="7169" interp="linr"  >
            <Keyframes>
            <Keyframe id="7170"  time="-9999999/1" value="0" leadInLength="0/1"  />
            <Keyframe id="7171"  time="114/1" value="0" leadInLength="3/1"  interpolater="leadin-linr"  />
            <Keyframe id="7172"  time="118/1" value="0" leadInLength="4/1"  interpolater="leadin-linr"  />
            <Keyframe id="7173"  time="126/1" value="0" leadInLength="8/1"  interpolater="leadin-linr"  />
            <Keyframe id="7174"  time="130/1" value="0" leadInLength="4/1"  interpolater="leadin-linr"  />
            </Keyframes>
           </InterpolatingParam>
           <InterpolatingParam id="7175" interp="linr"  >
            <Keyframes>
            <Keyframe id="7176"  time="-9999999/1" value="0" leadInLength="0/1"  />
            <Keyframe id="7177"  time="114/1" value="0" leadInLength="3/1"  interpolater="leadin-linr"  />
            <Keyframe id="7178"  time="118/1" value="0" leadInLength="4/1"  interpolater="leadin-linr"  />
            <Keyframe id="7179"  time="126/1" value="0" leadInLength="8/1"  interpolater="leadin-linr"  />
            <Keyframe id="7180"  time="130/1" value="0" leadInLength="4/1"  interpolater="leadin-linr"  />
            </Keyframes>
           </InterpolatingParam>
           <InterpolatingParam id="7181" interp="linr"  >
            <Keyframes>
            <Keyframe id="7182"  time="-9999999/1" value="0" leadInLength="0/1"  />
            <Keyframe id="7183"  time="114/1" value="0" leadInLength="3/1"  interpolater="leadin-linr"  />
            <Keyframe id="7184"  time="118/1" value="0" leadInLength="4/1"  interpolater="leadin-linr"  />
            <Keyframe id="7185"  time="126/1" value="0" leadInLength="8/1"  interpolater="leadin-linr"  />
            <Keyframe id="7186"  time="130/1" value="0" leadInLength="4/1"  interpolater="leadin-linr"  />
            </Keyframes>
           </InterpolatingParam>
          </VectorParam>
          <VectorParam id="7187"  name="shear">
           <InterpolatingParam id="7188" interp="linr"  >
            <Keyframes>
            <Keyframe id="7189"  time="-9999999/1" value="0" leadInLength="0/1"  />
            <Keyframe id="7190"  time="114/1" value="0" leadInLength="3/1"  interpolater="leadin-linr"  />
            <Keyframe id="7191"  time="118/1" value="0" leadInLength="4/1"  interpolater="leadin-linr"  />
            <Keyframe id="7192"  time="126/1" value="0" leadInLength="8/1"  interpolater="leadin-linr"  />
            <Keyframe id="7193"  time="130/1" value="0" leadInLength="4/1"  interpolater="leadin-linr"  />
            </Keyframes>
           </InterpolatingParam>
           <InterpolatingParam id="7194" interp="linr"  >
            <Keyframes>
            <Keyframe id="7195"  time="-9999999/1" value="0" leadInLength="0/1"  />
            <Keyframe id="7196"  time="114/1" value="0" leadInLength="3/1"  interpolater="leadin-linr"  />
            <Keyframe id="7197"  time="118/1" value="0" leadInLength="4/1"  interpolater="leadin-linr"  />
            <Keyframe id="7198"  time="126/1" value="0" leadInLength="8/1"  interpolater="leadin-linr"  />
            <Keyframe id="7199"  time="130/1" value="0" leadInLength="4/1"  interpolater="leadin-linr"  />
            </Keyframes>
           </InterpolatingParam>
           <InterpolatingParam id="7200" interp="linr"  >
            <Keyframes>
            <Keyframe id="7201"  time="-9999999/1" value="0" leadInLength="0/1"  />
            <Keyframe id="7202"  time="114/1" value="0" leadInLength="3/1"  interpolater="leadin-linr"  />
            <Keyframe id="7203"  time="118/1" value="0" leadInLength="4/1"  interpolater="leadin-linr"  />
            <Keyframe id="7204"  time="126/1" value="0" leadInLength="8/1"  interpolater="leadin-linr"  />
            <Keyframe id="7205"  time="130/1" value="0" leadInLength="4/1"  interpolater="leadin-linr"  />
            </Keyframes>
           </InterpolatingParam>
          </VectorParam>
          <VectorParam id="7206"  name="scale">
           <InterpolatingParam id="7207" interp="linr"  >
            <Keyframes>
            <Keyframe id="7208"  time="-9999999/1" value="0.4531249999982353" leadInLength="0/1"  />
            <Keyframe id="7209"  time="114/1" value="0.4531249999982353" leadInLength="3/1"  interpolater="leadin-linr"  />
            <Keyframe id="7210"  time="118/1" value="0.4531249999982353" leadInLength="4/1"  interpolater="leadin-linr"  />
            <Keyframe id="7211"  time="126/1" value="0.4531249999982353" leadInLength="8/1"  interpolater="leadin-linr"  />
            <Keyframe id="7212"  time="130/1" value="0.4531249999982353" leadInLength="4/1"  interpolater="leadin-linr"  />
            </Keyframes>
           </InterpolatingParam>
           <InterpolatingParam id="7213" interp="linr"  >
            <Keyframes>
            <Keyframe id="7214"  time="-9999999/1" value="0.3611111111111614" leadInLength="0/1"  />
            <Keyframe id="7215"  time="114/1" value="0.3611111111111614" leadInLength="3/1"  interpolater="leadin-linr"  />
            <Keyframe id="7216"  time="118/1" value="0.3611111111111614" leadInLength="4/1"  interpolater="leadin-linr"  />
            <Keyframe id="7217"  time="126/1" value="0.3611111111111614" leadInLength="8/1"  interpolater="leadin-linr"  />
            <Keyframe id="7218"  time="130/1" value="0.3611111111111614" leadInLength="4/1"  interpolater="leadin-linr"  />
            </Keyframes>
           </InterpolatingParam>
           <InterpolatingParam id="7219" interp="linr"  >
            <Keyframes>
            <Keyframe id="7220"  time="-9999999/1" value="1" leadInLength="0/1"  />
            <Keyframe id="7221"  time="114/1" value="1" leadInLength="3/1"  interpolater="leadin-linr"  />
            <Keyframe id="7222"  time="118/1" value="1" leadInLength="4/1"  interpolater="leadin-linr"  />
            <Keyframe id="7223"  time="126/1" value="1" leadInLength="8/1"  interpolater="leadin-linr"  />
            <Keyframe id="7224"  time="130/1" value="1" leadInLength="4/1"  interpolater="leadin-linr"  />
            </Keyframes>
           </InterpolatingParam>
          </VectorParam>
          <VectorParam id="7225"  name="anchor">
           <InterpolatingParam id="7226" interp="linr"  time="0/1" value="0" leadInLength="0/1"  />
           <InterpolatingParam id="7227" interp="linr"  time="0/1" value="0" leadInLength="0/1"  />
           <InterpolatingParam id="7228" interp="linr"  time="0/1" value="0" leadInLength="0/1"  />
          </VectorParam>
         </Transformer>
         <Parameters>
          <VectorParam id="7229"  name="sourceCrop">
           <InterpolatingParam id="7230" interp="linr"  time="0/1" value="0" leadInLength="0/1"  />
           <InterpolatingParam id="7231" interp="linr"  time="0/1" value="0" leadInLength="0/1"  />
           <InterpolatingParam id="7232" interp="linr"  time="0/1" value="0" leadInLength="0/1"  />
           <InterpolatingParam id="7233" interp="linr"  time="0/1" value="0" leadInLength="0/1"  />
          </VectorParam>
          <VectorParam id="7234"  name="geometryCrop">
           <InterpolatingParam id="7235" interp="linr"  >
            <Keyframes>
            <Keyframe id="7236"  time="-9999999/1" value="0" leadInLength="0/1"  />
            <Keyframe id="7237"  time="114/1" value="0" leadInLength="3/1"  interpolater="leadin-linr"  />
            <Keyframe id="7238"  time="118/1" value="0" leadInLength="4/1"  interpolater="leadin-linr"  />
            <Keyframe id="7239"  time="126/1" value="0" leadInLength="8/1"  interpolater="leadin-linr"  />
            <Keyframe id="7240"  time="130/1" value="0" leadInLength="4/1"  interpolater="leadin-linr"  />
            </Keyframes>
           </InterpolatingParam>
           <InterpolatingParam id="7241" interp="linr"  >
            <Keyframes>
            <Keyframe id="7242"  time="-9999999/1" value="0" leadInLength="0/1"  />
            <Keyframe id="7243"  time="114/1" value="0" leadInLength="3/1"  interpolater="leadin-linr"  />
            <Keyframe id="7244"  time="118/1" value="0" leadInLength="4/1"  interpolater="leadin-linr"  />
            <Keyframe id="7245"  time="126/1" value="0" leadInLength="8/1"  interpolater="leadin-linr"  />
            <Keyframe id="7246"  time="130/1" value="0" leadInLength="4/1"  interpolater="leadin-linr"  />
            </Keyframes>
           </InterpolatingParam>
           <InterpolatingParam id="7247" interp="linr"  >
            <Keyframes>
            <Keyframe id="7248"  time="-9999999/1" value="0" leadInLength="0/1"  />
            <Keyframe id="7249"  time="114/1" value="0" leadInLength="3/1"  interpolater="leadin-linr"  />
            <Keyframe id="7250"  time="118/1" value="0" leadInLength="4/1"  interpolater="leadin-linr"  />
            <Keyframe id="7251"  time="126/1" value="0" leadInLength="8/1"  interpolater="leadin-linr"  />
            <Keyframe id="7252"  time="130/1" value="0" leadInLength="4/1"  interpolater="leadin-linr"  />
            </Keyframes>
           </InterpolatingParam>
           <InterpolatingParam id="7253" interp="linr"  >
            <Keyframes>
            <Keyframe id="7254"  time="-9999999/1" value="0" leadInLength="0/1"  />
            <Keyframe id="7255"  time="114/1" value="0" leadInLength="3/1"  interpolater="leadin-linr"  />
            <Keyframe id="7256"  time="118/1" value="0" leadInLength="4/1"  interpolater="leadin-linr"  />
            <Keyframe id="7257"  time="126/1" value="0" leadInLength="8/1"  interpolater="leadin-linr"  />
            <Keyframe id="7258"  time="130/1" value="0" leadInLength="4/1"  interpolater="leadin-linr"  />
            </Keyframes>
           </InterpolatingParam>
          </VectorParam>
          <InterpolatingParam id="7259" interp="linr"  name="opacity">
           <Keyframes>
           <Keyframe id="7260"  time="-9999999/1" value="1" leadInLength="0/1"  />
           <Keyframe id="7261"  time="114/1" value="1" leadInLength="3/1"  interpolater="leadin-linr"  />
           <Keyframe id="7262"  time="118/1" value="1" leadInLength="4/1"  interpolater="leadin-linr"  />
           <Keyframe id="7263"  time="126/1" value="1" leadInLength="8/1"  interpolater="leadin-linr"  />
           <Keyframe id="7264"  time="130/1" value="1" leadInLength="4/1"  interpolater="leadin-linr"  />
           </Keyframes>
          </InterpolatingParam>
         </Parameters>
         <Effects>
          <GenericEffect id="7265" name = "DropShadow" >
           <Parameters>
           <InterpolatingParam id="7266" interp="linr"  time="0/1" value="315" leadInLength="0/1"   name="angle"/>
           <InterpolatingParam id="7267" interp="linr"  time="0/1" value="2" leadInLength="0/1"   name="blur"/>
           <Parameter id="7268"   name="enabled">
            <Keyframes>
            <Keyframe id="7269"  time="0/1" value="1" leadInLength="0/1"  />
            </Keyframes>
           </Parameter>
           <InterpolatingParam id="7270" interp="linr"  time="0/1" value="4" leadInLength="0/1"   name="offset"/>
           <InterpolatingParam id="7271" interp="linr"  time="0/1" value="1" leadInLength="0/1"   name="opacity"/>
           </Parameters>
          </GenericEffect>
         </Effects>
         <Attributes>
          <Attribute id="7272"  name="vectorNode">
           <VectorNode id="7273" kind="TypeWinSVG"  >
            <DoubleParameters>
             <InterpolatingParam id="7274" interp="linr"  time="0/1" value="1" leadInLength="0/1"  name="DrawTime"/>
             <InterpolatingParam id="7275" interp="linr"  time="0/1" value="59" leadInLength="0/1"  name="borderColorBlue"/>
             <InterpolatingParam id="7276" interp="linr"  time="0/1" value="209" leadInLength="0/1"  name="borderColorGreen"/>
             <InterpolatingParam id="7277" interp="linr"  time="0/1" value="127" leadInLength="0/1"  name="borderColorRed"/>
             <InterpolatingParam id="7278" interp="linr"  time="0/1" value="5" leadInLength="0/1"  name="borderWidth"/>
             <InterpolatingParam id="7279" interp="linr"  time="0/1" value="0" leadInLength="0/1"  name="flipOnXAxis"/>
             <InterpolatingParam id="7280" interp="linr"  time="0/1" value="1" leadInLength="0/1"  name="flipOnYAxis"/>
             <InterpolatingParam id="7281" interp="linr"  time="0/1" value="180" leadInLength="0/1"  name="height"/>
             <InterpolatingParam id="7282" interp="linr"  time="0/1" value="320" leadInLength="0/1"  name="width"/>
            </DoubleParameters>
            <StringParameters>
             <Parameter id="7283"  name="filename">
              <Keyframes>
              <Keyframe id="7284"  time="0/1" value="C:\Program Files (x86)\TechSmith\Camtasia Studio 8\Media\Studio\Callouts\anim_drawnsquare.svg" leadInLength="0/1"  />
              </Keyframes>
             </Parameter>
             <Parameter id="7285"  name="name">
              <Keyframes>
              <Keyframe id="7286"  time="0/1" value="Sketch Motion Rectangle" leadInLength="0/1"  />
              </Keyframes>
             </Parameter>
             <Parameter id="7287"  name="xmlContent">
              <Keyframes>
              <Keyframe id="7288"  time="0/1" value="﻿&lt;?xml version=&quot;1.0&quot; encoding=&quot;utf-8&quot;?&gt;&#xa;&lt;!-- Generator: Adobe Illustrator 13.0.2, SVG Export Plug-In . SVG Version: 6.00 Build 14948)  --&gt;&#xa;&lt;!DOCTYPE svg PUBLIC &quot;-//W3C//DTD SVG 1.1//EN&quot; &quot;http://www.w3.org/Graphics/SVG/1.1/DTD/svg11.dtd&quot;&gt;&#xa;&lt;svg version=&quot;1.1&quot; id=&quot;Layer_1&quot; xmlns=&quot;http://www.w3.org/2000/svg&quot; xmlns:xlink=&quot;http://www.w3.org/1999/xlink&quot; x=&quot;0px&quot; y=&quot;0px&quot;&#xa;&#x9; width=&quot;296.633px&quot; height=&quot;227.883px&quot; viewBox=&quot;0 0 296.633 227.883&quot; enable-background=&quot;new 0 0 296.633 227.883&quot;&#xa;&#x9; xml:space=&quot;preserve&quot;&gt;&#xa;&lt;path fill=&quot;none&quot; d=&quot;M2.662,1.793c8.266,53.25,2.802,171.963,5.305,226.067&quot;/&gt;&#xa;&lt;path fill=&quot;none&quot; d=&quot;M1.031,222.146c67.199-9.078,213.034,6.17,279.931-5.306&quot;/&gt;&#xa;&lt;path fill=&quot;none&quot; d=&quot;M290.581,0.007c-0.5,33.125-2.356,191.708-11.658,223.363&quot;/&gt;&#xa;&lt;path fill=&quot;none&quot; d=&quot;M0.07,10.703C127.409-7.206,237.174,4.794,296.602,8.604&quot;/&gt;&#xa;&lt;/svg&gt;&#xa;" leadInLength="0/1"  />
              </Keyframes>
             </Parameter>
            </StringParameters>
           </VectorNode>
          </Attribute>
         </Attributes>
         <MetaData>
          <entry key="WinSubProjectDisplayName" val=""/>
         </MetaData>
         <LeftEdgeMods length="17/1" groupName="DrawPercentageFade">
          <EdgeMod parameter="7274">
           <FadeInFunc id="7289"  />
          </EdgeMod>
         </LeftEdgeMods>
         <RightEdgeMods length="3/1" groupName="OpacityFade">
          <EdgeMod parameter="7259">
           <FadeOutFunc id="7290"  />
          </EdgeMod>
         </RightEdgeMods>
         <ExtraData>
          <Entry key="ZoomPanBin">
           <ZoomPanBin id="7291"  >
            <ZoomPanKeyframes>
             <ZoomPanKeyframe id="7292" timeRangeEnd="-9999999/1" timeRangeDuration="0/1" interpolaterName="linr"  />
             <ZoomPanKeyframe id="7293" timeRangeEnd="114/1" timeRangeDuration="3/1" interpolaterName="linr"  />
             <ZoomPanKeyframe id="7294" timeRangeEnd="118/1" timeRangeDuration="4/1" interpolaterName="linr"  />
             <ZoomPanKeyframe id="7295" timeRangeEnd="126/1" timeRangeDuration="8/1" interpolaterName="linr"  />
             <ZoomPanKeyframe id="7296" timeRangeEnd="130/1" timeRangeDuration="4/1" interpolaterName="linr"  />
            </ZoomPanKeyframes>
           </ZoomPanBin>
          </Entry>
         </ExtraData>
        </Callout>
        <Callout id="7297" start="7692" duration="25" scalar="1/1" mediaStart="76/1" mediaDuration="25/1" >
         <Transformer>
          <VectorParam id="7298"  name="translation">
           <InterpolatingParam id="7299" interp="linr"  >
            <Keyframes>
            <Keyframe id="7300"  time="-9999999/1" value="75.677655677847838" leadInLength="0/1"  />
            <Keyframe id="7301"  time="83/1" value="72.49999999990311" leadInLength="1/1"  interpolater="leadin-linr"  />
            <Keyframe id="7302"  time="85/1" value="75.833333333613027" leadInLength="2/1"  interpolater="leadin-linr"  />
            <Keyframe id="7303"  time="89/1" value="68.333333333603719" leadInLength="4/1"  interpolater="leadin-linr"  />
            </Keyframes>
           </InterpolatingParam>
           <InterpolatingParam id="7304" interp="linr"  >
            <Keyframes>
            <Keyframe id="7305"  time="-9999999/1" value="173.07692307705281" leadInLength="0/1"  />
            <Keyframe id="7306"  time="83/1" value="220.83333333353863" leadInLength="1/1"  interpolater="leadin-linr"  />
            <Keyframe id="7307"  time="85/1" value="322.50000000019895" leadInLength="2/1"  interpolater="leadin-linr"  />
            <Keyframe id="7308"  time="89/1" value="338.33333333350424" leadInLength="4/1"  interpolater="leadin-linr"  />
            </Keyframes>
           </InterpolatingParam>
           <InterpolatingParam id="7309" interp="linr"  >
            <Keyframes>
            <Keyframe id="7310"  time="-9999999/1" value="0" leadInLength="0/1"  />
            <Keyframe id="7311"  time="83/1" value="-3.4106051316482886e-010" leadInLength="1/1"  interpolater="leadin-linr"  />
            <Keyframe id="7312"  time="85/1" value="0" leadInLength="2/1"  interpolater="leadin-linr"  />
            <Keyframe id="7313"  time="89/1" value="0" leadInLength="4/1"  interpolater="leadin-linr"  />
            </Keyframes>
           </InterpolatingParam>
          </VectorParam>
          <VectorParam id="7314"  name="rotation">
           <InterpolatingParam id="7315" interp="linr"  >
            <Keyframes>
            <Keyframe id="7316"  time="-9999999/1" value="0" leadInLength="0/1"  />
            <Keyframe id="7317"  time="83/1" value="0" leadInLength="1/1"  interpolater="leadin-linr"  />
            <Keyframe id="7318"  time="85/1" value="0" leadInLength="2/1"  interpolater="leadin-linr"  />
            <Keyframe id="7319"  time="89/1" value="0" leadInLength="4/1"  interpolater="leadin-linr"  />
            </Keyframes>
           </InterpolatingParam>
           <InterpolatingParam id="7320" interp="linr"  >
            <Keyframes>
            <Keyframe id="7321"  time="-9999999/1" value="0" leadInLength="0/1"  />
            <Keyframe id="7322"  time="83/1" value="0" leadInLength="1/1"  interpolater="leadin-linr"  />
            <Keyframe id="7323"  time="85/1" value="0" leadInLength="2/1"  interpolater="leadin-linr"  />
            <Keyframe id="7324"  time="89/1" value="0" leadInLength="4/1"  interpolater="leadin-linr"  />
            </Keyframes>
           </InterpolatingParam>
           <InterpolatingParam id="7325" interp="linr"  >
            <Keyframes>
            <Keyframe id="7326"  time="-9999999/1" value="0" leadInLength="0/1"  />
            <Keyframe id="7327"  time="83/1" value="0" leadInLength="1/1"  interpolater="leadin-linr"  />
            <Keyframe id="7328"  time="85/1" value="0" leadInLength="2/1"  interpolater="leadin-linr"  />
            <Keyframe id="7329"  time="89/1" value="0" leadInLength="4/1"  interpolater="leadin-linr"  />
            </Keyframes>
           </InterpolatingParam>
          </VectorParam>
          <VectorParam id="7330"  name="shear">
           <InterpolatingParam id="7331" interp="linr"  >
            <Keyframes>
            <Keyframe id="7332"  time="-9999999/1" value="0" leadInLength="0/1"  />
            <Keyframe id="7333"  time="83/1" value="0" leadInLength="1/1"  interpolater="leadin-linr"  />
            <Keyframe id="7334"  time="85/1" value="0" leadInLength="2/1"  interpolater="leadin-linr"  />
            <Keyframe id="7335"  time="89/1" value="0" leadInLength="4/1"  interpolater="leadin-linr"  />
            </Keyframes>
           </InterpolatingParam>
           <InterpolatingParam id="7336" interp="linr"  >
            <Keyframes>
            <Keyframe id="7337"  time="-9999999/1" value="0" leadInLength="0/1"  />
            <Keyframe id="7338"  time="83/1" value="0" leadInLength="1/1"  interpolater="leadin-linr"  />
            <Keyframe id="7339"  time="85/1" value="0" leadInLength="2/1"  interpolater="leadin-linr"  />
            <Keyframe id="7340"  time="89/1" value="0" leadInLength="4/1"  interpolater="leadin-linr"  />
            </Keyframes>
           </InterpolatingParam>
           <InterpolatingParam id="7341" interp="linr"  >
            <Keyframes>
            <Keyframe id="7342"  time="-9999999/1" value="0" leadInLength="0/1"  />
            <Keyframe id="7343"  time="83/1" value="0" leadInLength="1/1"  interpolater="leadin-linr"  />
            <Keyframe id="7344"  time="85/1" value="0" leadInLength="2/1"  interpolater="leadin-linr"  />
            <Keyframe id="7345"  time="89/1" value="0" leadInLength="4/1"  interpolater="leadin-linr"  />
            </Keyframes>
           </InterpolatingParam>
          </VectorParam>
          <VectorParam id="7346"  name="scale">
           <InterpolatingParam id="7347" interp="linr"  >
            <Keyframes>
            <Keyframe id="7348"  time="-9999999/1" value="0.43131868131889972" leadInLength="0/1"  />
            <Keyframe id="7349"  time="83/1" value="0.4531249999983496" leadInLength="1/1"  interpolater="leadin-linr"  />
            <Keyframe id="7350"  time="85/1" value="0.45312499999847078" leadInLength="2/1"  interpolater="leadin-linr"  />
            <Keyframe id="7351"  time="89/1" value="0.45312499999835304" leadInLength="4/1"  interpolater="leadin-linr"  />
            </Keyframes>
           </InterpolatingParam>
           <InterpolatingParam id="7352" interp="linr"  >
            <Keyframes>
            <Keyframe id="7353"  time="-9999999/1" value="0.34798534798528047" leadInLength="0/1"  />
            <Keyframe id="7354"  time="83/1" value="0.361111111111795" leadInLength="1/1"  interpolater="leadin-linr"  />
            <Keyframe id="7355"  time="85/1" value="0.36111111111182409" leadInLength="2/1"  interpolater="leadin-linr"  />
            <Keyframe id="7356"  time="89/1" value="0.36111111111149274" leadInLength="4/1"  interpolater="leadin-linr"  />
            </Keyframes>
           </InterpolatingParam>
           <InterpolatingParam id="7357" interp="linr"  >
            <Keyframes>
            <Keyframe id="7358"  time="-9999999/1" value="1" leadInLength="0/1"  />
            <Keyframe id="7359"  time="83/1" value="1" leadInLength="1/1"  interpolater="leadin-linr"  />
            <Keyframe id="7360"  time="85/1" value="1" leadInLength="2/1"  interpolater="leadin-linr"  />
            <Keyframe id="7361"  time="89/1" value="1" leadInLength="4/1"  interpolater="leadin-linr"  />
            </Keyframes>
           </InterpolatingParam>
          </VectorParam>
          <VectorParam id="7362"  name="anchor">
           <InterpolatingParam id="7363" interp="linr"  time="0/1" value="0" leadInLength="0/1"  />
           <InterpolatingParam id="7364" interp="linr"  time="0/1" value="0" leadInLength="0/1"  />
           <InterpolatingParam id="7365" interp="linr"  time="0/1" value="0" leadInLength="0/1"  />
          </VectorParam>
         </Transformer>
         <Parameters>
          <VectorParam id="7366"  name="sourceCrop">
           <InterpolatingParam id="7367" interp="linr"  time="0/1" value="0" leadInLength="0/1"  />
           <InterpolatingParam id="7368" interp="linr"  time="0/1" value="0" leadInLength="0/1"  />
           <InterpolatingParam id="7369" interp="linr"  time="0/1" value="0" leadInLength="0/1"  />
           <InterpolatingParam id="7370" interp="linr"  time="0/1" value="0" leadInLength="0/1"  />
          </VectorParam>
          <VectorParam id="7371"  name="geometryCrop">
           <InterpolatingParam id="7372" interp="linr"  >
            <Keyframes>
            <Keyframe id="7373"  time="-9999999/1" value="0" leadInLength="0/1"  />
            <Keyframe id="7374"  time="83/1" value="0" leadInLength="1/1"  interpolater="leadin-linr"  />
            <Keyframe id="7375"  time="85/1" value="0" leadInLength="2/1"  interpolater="leadin-linr"  />
            <Keyframe id="7376"  time="89/1" value="0" leadInLength="4/1"  interpolater="leadin-linr"  />
            </Keyframes>
           </InterpolatingParam>
           <InterpolatingParam id="7377" interp="linr"  >
            <Keyframes>
            <Keyframe id="7378"  time="-9999999/1" value="0" leadInLength="0/1"  />
            <Keyframe id="7379"  time="83/1" value="0" leadInLength="1/1"  interpolater="leadin-linr"  />
            <Keyframe id="7380"  time="85/1" value="0" leadInLength="2/1"  interpolater="leadin-linr"  />
            <Keyframe id="7381"  time="89/1" value="0" leadInLength="4/1"  interpolater="leadin-linr"  />
            </Keyframes>
           </InterpolatingParam>
           <InterpolatingParam id="7382" interp="linr"  >
            <Keyframes>
            <Keyframe id="7383"  time="-9999999/1" value="0" leadInLength="0/1"  />
            <Keyframe id="7384"  time="83/1" value="0" leadInLength="1/1"  interpolater="leadin-linr"  />
            <Keyframe id="7385"  time="85/1" value="0" leadInLength="2/1"  interpolater="leadin-linr"  />
            <Keyframe id="7386"  time="89/1" value="0" leadInLength="4/1"  interpolater="leadin-linr"  />
            </Keyframes>
           </InterpolatingParam>
           <InterpolatingParam id="7387" interp="linr"  >
            <Keyframes>
            <Keyframe id="7388"  time="-9999999/1" value="0" leadInLength="0/1"  />
            <Keyframe id="7389"  time="83/1" value="0" leadInLength="1/1"  interpolater="leadin-linr"  />
            <Keyframe id="7390"  time="85/1" value="0" leadInLength="2/1"  interpolater="leadin-linr"  />
            <Keyframe id="7391"  time="89/1" value="0" leadInLength="4/1"  interpolater="leadin-linr"  />
            </Keyframes>
           </InterpolatingParam>
          </VectorParam>
          <InterpolatingParam id="7392" interp="linr"  name="opacity">
           <Keyframes>
           <Keyframe id="7393"  time="-9999999/1" value="1" leadInLength="0/1"  />
           <Keyframe id="7394"  time="83/1" value="1" leadInLength="1/1"  interpolater="leadin-linr"  />
           <Keyframe id="7395"  time="85/1" value="1" leadInLength="2/1"  interpolater="leadin-linr"  />
           <Keyframe id="7396"  time="89/1" value="1" leadInLength="4/1"  interpolater="leadin-linr"  />
           </Keyframes>
          </InterpolatingParam>
         </Parameters>
         <Effects>
          <GenericEffect id="7397" name = "DropShadow" >
           <Parameters>
           <InterpolatingParam id="7398" interp="linr"  time="0/1" value="315" leadInLength="0/1"   name="angle"/>
           <InterpolatingParam id="7399" interp="linr"  time="0/1" value="2" leadInLength="0/1"   name="blur"/>
           <Parameter id="7400"   name="enabled">
            <Keyframes>
            <Keyframe id="7401"  time="0/1" value="1" leadInLength="0/1"  />
            </Keyframes>
           </Parameter>
           <InterpolatingParam id="7402" interp="linr"  time="0/1" value="4" leadInLength="0/1"   name="offset"/>
           <InterpolatingParam id="7403" interp="linr"  time="0/1" value="1" leadInLength="0/1"   name="opacity"/>
           </Parameters>
          </GenericEffect>
         </Effects>
         <Attributes>
          <Attribute id="7404"  name="vectorNode">
           <VectorNode id="7405" kind="TypeWinSVG"  >
            <DoubleParameters>
             <InterpolatingParam id="7406" interp="linr"  time="0/1" value="1" leadInLength="0/1"  name="DrawTime"/>
             <InterpolatingParam id="7407" interp="linr"  time="0/1" value="0" leadInLength="0/1"  name="borderColorBlue"/>
             <InterpolatingParam id="7408" interp="linr"  time="0/1" value="0" leadInLength="0/1"  name="borderColorGreen"/>
             <InterpolatingParam id="7409" interp="linr"  time="0/1" value="255" leadInLength="0/1"  name="borderColorRed"/>
             <InterpolatingParam id="7410" interp="linr"  time="0/1" value="5" leadInLength="0/1"  name="borderWidth"/>
             <InterpolatingParam id="7411" interp="linr"  time="0/1" value="0" leadInLength="0/1"  name="flipOnXAxis"/>
             <InterpolatingParam id="7412" interp="linr"  time="0/1" value="1" leadInLength="0/1"  name="flipOnYAxis"/>
             <InterpolatingParam id="7413" interp="linr"  time="0/1" value="180" leadInLength="0/1"  name="height"/>
             <InterpolatingParam id="7414" interp="linr"  time="0/1" value="320" leadInLength="0/1"  name="width"/>
            </DoubleParameters>
            <StringParameters>
             <Parameter id="7415"  name="filename">
              <Keyframes>
              <Keyframe id="7416"  time="0/1" value="C:\Program Files (x86)\TechSmith\Camtasia Studio 8\Media\Studio\Callouts\anim_arrow.svg" leadInLength="0/1"  />
              </Keyframes>
             </Parameter>
             <Parameter id="7417"  name="name">
              <Keyframes>
              <Keyframe id="7418"  time="0/1" value="Sketch Motion Arrow" leadInLength="0/1"  />
              </Keyframes>
             </Parameter>
             <Parameter id="7419"  name="xmlContent">
              <Keyframes>
              <Keyframe id="7420"  time="0/1" value="﻿&lt;?xml version=&quot;1.0&quot; encoding=&quot;utf-8&quot;?&gt;&#xa;&lt;!-- Generator: Adobe Illustrator 13.0.2, SVG Export Plug-In . SVG Version: 6.00 Build 14948)  --&gt;&#xa;&lt;!DOCTYPE svg PUBLIC &quot;-//W3C//DTD SVG 1.1//EN&quot; &quot;http://www.w3.org/Graphics/SVG/1.1/DTD/svg11.dtd&quot;&gt;&#xa;&lt;svg version=&quot;1.1&quot; id=&quot;Layer_1&quot; xmlns=&quot;http://www.w3.org/2000/svg&quot; xmlns:xlink=&quot;http://www.w3.org/1999/xlink&quot; x=&quot;0px&quot; y=&quot;0px&quot;&#xa;&#x9; width=&quot;151.268px&quot; height=&quot;53px&quot; viewBox=&quot;0 0 151.268 53&quot; enable-background=&quot;new 0 0 151.268 53&quot; xml:space=&quot;preserve&quot;&gt;&#xa;&lt;path fill=&quot;none&quot; d=&quot;M12.852,24.926c0,0,85.25-8.838,118.688-2.996&quot;/&gt;&#xa;&lt;path fill=&quot;none&quot; d=&quot;M93.169,2.713c0,0,46.52,8.657,49.944,18.729c3.424,10.071-43.753,26.022-43.753,26.022&quot;/&gt;&#xa;&lt;/svg&gt;&#xa;" leadInLength="0/1"  />
              </Keyframes>
             </Parameter>
            </StringParameters>
           </VectorNode>
          </Attribute>
         </Attributes>
         <MetaData>
          <entry key="WinSubProjectDisplayName" val=""/>
         </MetaData>
         <LeftEdgeMods length="3/1" groupName="DrawPercentageFade">
          <EdgeMod parameter="7406">
           <FadeInFunc id="7421"  />
          </EdgeMod>
         </LeftEdgeMods>
         <RightEdgeMods length="3/1" groupName="OpacityFade">
          <EdgeMod parameter="7392">
           <FadeOutFunc id="7290"  />
          </EdgeMod>
         </RightEdgeMods>
         <ExtraData>
          <Entry key="ZoomPanBin">
           <ZoomPanBin id="7422"  >
            <ZoomPanKeyframes>
             <ZoomPanKeyframe id="7423" timeRangeEnd="-9999999/1" timeRangeDuration="0/1" interpolaterName="linr"  />
             <ZoomPanKeyframe id="7424" timeRangeEnd="83/1" timeRangeDuration="1/1" interpolaterName="linr"  />
             <ZoomPanKeyframe id="7425" timeRangeEnd="85/1" timeRangeDuration="2/1" interpolaterName="linr"  />
             <ZoomPanKeyframe id="7426" timeRangeEnd="89/1" timeRangeDuration="4/1" interpolaterName="linr"  />
            </ZoomPanKeyframes>
           </ZoomPanBin>
          </Entry>
         </ExtraData>
        </Callout>
        <Callout id="7427" start="7877" duration="32" scalar="1/1" mediaStart="5/1" mediaDuration="32/1" >
         <Transformer>
          <VectorParam id="7428"  name="translation">
           <InterpolatingParam id="7429" interp="linr"  >
            <Keyframes>
            <Keyframe id="7430"  time="-9999999/1" value="438.33333333401583" leadInLength="0/1"  />
            <Keyframe id="7431"  time="3/1" value="421.66666666732164" leadInLength="1/1"  interpolater="leadin-linr"  />
            <Keyframe id="7432"  time="8/1" value="420.71428571490486" leadInLength="2/1"  interpolater="leadin-linr"  />
            <Keyframe id="7433"  time="9/1" value="425.35714285780853" leadInLength="1/1"  interpolater="leadin-linr"  />
            <Keyframe id="7434"  time="10/1" value="430.00000000071219" leadInLength="1/1"  interpolater="leadin-linr"  />
            </Keyframes>
           </InterpolatingParam>
           <InterpolatingParam id="7435" interp="linr"  >
            <Keyframes>
            <Keyframe id="7436"  time="-9999999/1" value="-80.000000000293738" leadInLength="0/1"  />
            <Keyframe id="7437"  time="3/1" value="-208.33333333370044" leadInLength="1/1"  interpolater="leadin-linr"  />
            <Keyframe id="7438"  time="8/1" value="-174.76190476237295" leadInLength="2/1"  interpolater="leadin-linr"  />
            <Keyframe id="7439"  time="9/1" value="-108.2142857146745" leadInLength="1/1"  interpolater="leadin-linr"  />
            <Keyframe id="7440"  time="10/1" value="-85.000000000328995" leadInLength="1/1"  interpolater="leadin-linr"  />
            </Keyframes>
           </InterpolatingParam>
           <InterpolatingParam id="7441" interp="linr"  >
            <Keyframes>
            <Keyframe id="7442"  time="-9999999/1" value="0" leadInLength="0/1"  />
            <Keyframe id="7443"  time="3/1" value="0" leadInLength="1/1"  interpolater="leadin-linr"  />
            <Keyframe id="7444"  time="8/1" value="0" leadInLength="2/1"  interpolater="leadin-linr"  />
            <Keyframe id="7445"  time="9/1" value="0" leadInLength="1/1"  interpolater="leadin-linr"  />
            <Keyframe id="7446"  time="10/1" value="0" leadInLength="1/1"  interpolater="leadin-linr"  />
            </Keyframes>
           </InterpolatingParam>
          </VectorParam>
          <VectorParam id="7447"  name="rotation">
           <InterpolatingParam id="7448" interp="linr"  >
            <Keyframes>
            <Keyframe id="7449"  time="-9999999/1" value="0" leadInLength="0/1"  />
            <Keyframe id="7450"  time="3/1" value="0" leadInLength="1/1"  interpolater="leadin-linr"  />
            <Keyframe id="7451"  time="8/1" value="0" leadInLength="2/1"  interpolater="leadin-linr"  />
            <Keyframe id="7452"  time="9/1" value="0" leadInLength="1/1"  interpolater="leadin-linr"  />
            <Keyframe id="7453"  time="10/1" value="0" leadInLength="1/1"  interpolater="leadin-linr"  />
            </Keyframes>
           </InterpolatingParam>
           <InterpolatingParam id="7454" interp="linr"  >
            <Keyframes>
            <Keyframe id="7455"  time="-9999999/1" value="0" leadInLength="0/1"  />
            <Keyframe id="7456"  time="3/1" value="0" leadInLength="1/1"  interpolater="leadin-linr"  />
            <Keyframe id="7457"  time="8/1" value="0" leadInLength="2/1"  interpolater="leadin-linr"  />
            <Keyframe id="7458"  time="9/1" value="0" leadInLength="1/1"  interpolater="leadin-linr"  />
            <Keyframe id="7459"  time="10/1" value="0" leadInLength="1/1"  interpolater="leadin-linr"  />
            </Keyframes>
           </InterpolatingParam>
           <InterpolatingParam id="7460" interp="linr"  >
            <Keyframes>
            <Keyframe id="7461"  time="-9999999/1" value="0" leadInLength="0/1"  />
            <Keyframe id="7462"  time="3/1" value="0" leadInLength="1/1"  interpolater="leadin-linr"  />
            <Keyframe id="7463"  time="8/1" value="0" leadInLength="2/1"  interpolater="leadin-linr"  />
            <Keyframe id="7464"  time="9/1" value="0" leadInLength="1/1"  interpolater="leadin-linr"  />
            <Keyframe id="7465"  time="10/1" value="0" leadInLength="1/1"  interpolater="leadin-linr"  />
            </Keyframes>
           </InterpolatingParam>
          </VectorParam>
          <VectorParam id="7466"  name="shear">
           <InterpolatingParam id="7467" interp="linr"  >
            <Keyframes>
            <Keyframe id="7468"  time="-9999999/1" value="0" leadInLength="0/1"  />
            <Keyframe id="7469"  time="3/1" value="0" leadInLength="1/1"  interpolater="leadin-linr"  />
            <Keyframe id="7470"  time="8/1" value="0" leadInLength="2/1"  interpolater="leadin-linr"  />
            <Keyframe id="7471"  time="9/1" value="0" leadInLength="1/1"  interpolater="leadin-linr"  />
            <Keyframe id="7472"  time="10/1" value="0" leadInLength="1/1"  interpolater="leadin-linr"  />
            </Keyframes>
           </InterpolatingParam>
           <InterpolatingParam id="7473" interp="linr"  >
            <Keyframes>
            <Keyframe id="7474"  time="-9999999/1" value="0" leadInLength="0/1"  />
            <Keyframe id="7475"  time="3/1" value="0" leadInLength="1/1"  interpolater="leadin-linr"  />
            <Keyframe id="7476"  time="8/1" value="0" leadInLength="2/1"  interpolater="leadin-linr"  />
            <Keyframe id="7477"  time="9/1" value="0" leadInLength="1/1"  interpolater="leadin-linr"  />
            <Keyframe id="7478"  time="10/1" value="0" leadInLength="1/1"  interpolater="leadin-linr"  />
            </Keyframes>
           </InterpolatingParam>
           <InterpolatingParam id="7479" interp="linr"  >
            <Keyframes>
            <Keyframe id="7480"  time="-9999999/1" value="0" leadInLength="0/1"  />
            <Keyframe id="7481"  time="3/1" value="0" leadInLength="1/1"  interpolater="leadin-linr"  />
            <Keyframe id="7482"  time="8/1" value="0" leadInLength="2/1"  interpolater="leadin-linr"  />
            <Keyframe id="7483"  time="9/1" value="0" leadInLength="1/1"  interpolater="leadin-linr"  />
            <Keyframe id="7484"  time="10/1" value="0" leadInLength="1/1"  interpolater="leadin-linr"  />
            </Keyframes>
           </InterpolatingParam>
          </VectorParam>
          <VectorParam id="7485"  name="scale">
           <InterpolatingParam id="7486" interp="linr"  >
            <Keyframes>
            <Keyframe id="7487"  time="-9999999/1" value="0.51041666666924246" leadInLength="0/1"  />
            <Keyframe id="7488"  time="3/1" value="0.51041666666924257" leadInLength="1/1"  interpolater="leadin-linr"  />
            <Keyframe id="7489"  time="8/1" value="0.51041666666931584" leadInLength="2/1"  interpolater="leadin-linr"  />
            <Keyframe id="7490"  time="9/1" value="0.51041666666927921" leadInLength="1/1"  interpolater="leadin-linr"  />
            <Keyframe id="7491"  time="10/1" value="0.51041666666924257" leadInLength="1/1"  interpolater="leadin-linr"  />
            </Keyframes>
           </InterpolatingParam>
           <InterpolatingParam id="7492" interp="linr"  >
            <Keyframes>
            <Keyframe id="7493"  time="-9999999/1" value="0.3148148148151772" leadInLength="0/1"  />
            <Keyframe id="7494"  time="3/1" value="0.31481481481562873" leadInLength="1/1"  interpolater="leadin-linr"  />
            <Keyframe id="7495"  time="8/1" value="0.31481481481684476" leadInLength="2/1"  interpolater="leadin-linr"  />
            <Keyframe id="7496"  time="9/1" value="0.31481481481623674" leadInLength="1/1"  interpolater="leadin-linr"  />
            <Keyframe id="7497"  time="10/1" value="0.31481481481562873" leadInLength="1/1"  interpolater="leadin-linr"  />
            </Keyframes>
           </InterpolatingParam>
           <InterpolatingParam id="7498" interp="linr"  >
            <Keyframes>
            <Keyframe id="7499"  time="-9999999/1" value="1" leadInLength="0/1"  />
            <Keyframe id="7500"  time="3/1" value="1" leadInLength="1/1"  interpolater="leadin-linr"  />
            <Keyframe id="7501"  time="8/1" value="1" leadInLength="2/1"  interpolater="leadin-linr"  />
            <Keyframe id="7502"  time="9/1" value="1" leadInLength="1/1"  interpolater="leadin-linr"  />
            <Keyframe id="7503"  time="10/1" value="1" leadInLength="1/1"  interpolater="leadin-linr"  />
            </Keyframes>
           </InterpolatingParam>
          </VectorParam>
          <VectorParam id="7504"  name="anchor">
           <InterpolatingParam id="7505" interp="linr"  time="0/1" value="0" leadInLength="0/1"  />
           <InterpolatingParam id="7506" interp="linr"  time="0/1" value="0" leadInLength="0/1"  />
           <InterpolatingParam id="7507" interp="linr"  time="0/1" value="0" leadInLength="0/1"  />
          </VectorParam>
         </Transformer>
         <Parameters>
          <VectorParam id="7508"  name="sourceCrop">
           <InterpolatingParam id="7509" interp="linr"  time="0/1" value="0" leadInLength="0/1"  />
           <InterpolatingParam id="7510" interp="linr"  time="0/1" value="0" leadInLength="0/1"  />
           <InterpolatingParam id="7511" interp="linr"  time="0/1" value="0" leadInLength="0/1"  />
           <InterpolatingParam id="7512" interp="linr"  time="0/1" value="0" leadInLength="0/1"  />
          </VectorParam>
          <VectorParam id="7513"  name="geometryCrop">
           <InterpolatingParam id="7514" interp="linr"  >
            <Keyframes>
            <Keyframe id="7515"  time="-9999999/1" value="0" leadInLength="0/1"  />
            <Keyframe id="7516"  time="3/1" value="0" leadInLength="1/1"  interpolater="leadin-linr"  />
            <Keyframe id="7517"  time="8/1" value="0" leadInLength="2/1"  interpolater="leadin-linr"  />
            <Keyframe id="7518"  time="9/1" value="0" leadInLength="1/1"  interpolater="leadin-linr"  />
            <Keyframe id="7519"  time="10/1" value="0" leadInLength="1/1"  interpolater="leadin-linr"  />
            </Keyframes>
           </InterpolatingParam>
           <InterpolatingParam id="7520" interp="linr"  >
            <Keyframes>
            <Keyframe id="7521"  time="-9999999/1" value="0" leadInLength="0/1"  />
            <Keyframe id="7522"  time="3/1" value="0" leadInLength="1/1"  interpolater="leadin-linr"  />
            <Keyframe id="7523"  time="8/1" value="0" leadInLength="2/1"  interpolater="leadin-linr"  />
            <Keyframe id="7524"  time="9/1" value="0" leadInLength="1/1"  interpolater="leadin-linr"  />
            <Keyframe id="7525"  time="10/1" value="0" leadInLength="1/1"  interpolater="leadin-linr"  />
            </Keyframes>
           </InterpolatingParam>
           <InterpolatingParam id="7526" interp="linr"  >
            <Keyframes>
            <Keyframe id="7527"  time="-9999999/1" value="0" leadInLength="0/1"  />
            <Keyframe id="7528"  time="3/1" value="0" leadInLength="1/1"  interpolater="leadin-linr"  />
            <Keyframe id="7529"  time="8/1" value="0" leadInLength="2/1"  interpolater="leadin-linr"  />
            <Keyframe id="7530"  time="9/1" value="0" leadInLength="1/1"  interpolater="leadin-linr"  />
            <Keyframe id="7531"  time="10/1" value="0" leadInLength="1/1"  interpolater="leadin-linr"  />
            </Keyframes>
           </InterpolatingParam>
           <InterpolatingParam id="7532" interp="linr"  >
            <Keyframes>
            <Keyframe id="7533"  time="-9999999/1" value="0" leadInLength="0/1"  />
            <Keyframe id="7534"  time="3/1" value="0" leadInLength="1/1"  interpolater="leadin-linr"  />
            <Keyframe id="7535"  time="8/1" value="0" leadInLength="2/1"  interpolater="leadin-linr"  />
            <Keyframe id="7536"  time="9/1" value="0" leadInLength="1/1"  interpolater="leadin-linr"  />
            <Keyframe id="7537"  time="10/1" value="0" leadInLength="1/1"  interpolater="leadin-linr"  />
            </Keyframes>
           </InterpolatingParam>
          </VectorParam>
          <InterpolatingParam id="7538" interp="linr"  name="opacity">
           <Keyframes>
           <Keyframe id="7539"  time="-9999999/1" value="1" leadInLength="0/1"  />
           <Keyframe id="7540"  time="3/1" value="1" leadInLength="1/1"  interpolater="leadin-linr"  />
           <Keyframe id="7541"  time="8/1" value="1" leadInLength="2/1"  interpolater="leadin-linr"  />
           <Keyframe id="7542"  time="9/1" value="1" leadInLength="1/1"  interpolater="leadin-linr"  />
           <Keyframe id="7543"  time="10/1" value="1" leadInLength="1/1"  interpolater="leadin-linr"  />
           </Keyframes>
          </InterpolatingParam>
         </Parameters>
         <Effects>
          <GenericEffect id="7544" name = "DropShadow" >
           <Parameters>
           <InterpolatingParam id="7545" interp="linr"  time="0/1" value="315" leadInLength="0/1"   name="angle"/>
           <InterpolatingParam id="7546" interp="linr"  time="0/1" value="2" leadInLength="0/1"   name="blur"/>
           <Parameter id="7547"   name="enabled">
            <Keyframes>
            <Keyframe id="7548"  time="0/1" value="1" leadInLength="0/1"  />
            </Keyframes>
           </Parameter>
           <InterpolatingParam id="7549" interp="linr"  time="0/1" value="4" leadInLength="0/1"   name="offset"/>
           <InterpolatingParam id="7550" interp="linr"  time="0/1" value="1" leadInLength="0/1"   name="opacity"/>
           </Parameters>
          </GenericEffect>
         </Effects>
         <Attributes>
          <Attribute id="7551"  name="vectorNode">
           <VectorNode id="7552" kind="TypeWinSVG"  >
            <DoubleParameters>
             <InterpolatingParam id="7553" interp="linr"  time="0/1" value="1" leadInLength="0/1"  name="DrawTime"/>
             <InterpolatingParam id="7554" interp="linr"  time="0/1" value="59" leadInLength="0/1"  name="borderColorBlue"/>
             <InterpolatingParam id="7555" interp="linr"  time="0/1" value="209" leadInLength="0/1"  name="borderColorGreen"/>
             <InterpolatingParam id="7556" interp="linr"  time="0/1" value="127" leadInLength="0/1"  name="borderColorRed"/>
             <InterpolatingParam id="7557" interp="linr"  time="0/1" value="5" leadInLength="0/1"  name="borderWidth"/>
             <InterpolatingParam id="7558" interp="linr"  time="0/1" value="0" leadInLength="0/1"  name="flipOnXAxis"/>
             <InterpolatingParam id="7559" interp="linr"  time="0/1" value="1" leadInLength="0/1"  name="flipOnYAxis"/>
             <InterpolatingParam id="7560" interp="linr"  time="0/1" value="180" leadInLength="0/1"  name="height"/>
             <InterpolatingParam id="7561" interp="linr"  time="0/1" value="320" leadInLength="0/1"  name="width"/>
            </DoubleParameters>
            <StringParameters>
             <Parameter id="7562"  name="filename">
              <Keyframes>
              <Keyframe id="7563"  time="0/1" value="C:\Program Files (x86)\TechSmith\Camtasia Studio 8\Media\Studio\Callouts\anim_drawnsquare.svg" leadInLength="0/1"  />
              </Keyframes>
             </Parameter>
             <Parameter id="7564"  name="name">
              <Keyframes>
              <Keyframe id="7565"  time="0/1" value="Sketch Motion Rectangle" leadInLength="0/1"  />
              </Keyframes>
             </Parameter>
             <Parameter id="7566"  name="xmlContent">
              <Keyframes>
              <Keyframe id="7567"  time="0/1" value="﻿&lt;?xml version=&quot;1.0&quot; encoding=&quot;utf-8&quot;?&gt;&#xa;&lt;!-- Generator: Adobe Illustrator 13.0.2, SVG Export Plug-In . SVG Version: 6.00 Build 14948)  --&gt;&#xa;&lt;!DOCTYPE svg PUBLIC &quot;-//W3C//DTD SVG 1.1//EN&quot; &quot;http://www.w3.org/Graphics/SVG/1.1/DTD/svg11.dtd&quot;&gt;&#xa;&lt;svg version=&quot;1.1&quot; id=&quot;Layer_1&quot; xmlns=&quot;http://www.w3.org/2000/svg&quot; xmlns:xlink=&quot;http://www.w3.org/1999/xlink&quot; x=&quot;0px&quot; y=&quot;0px&quot;&#xa;&#x9; width=&quot;296.633px&quot; height=&quot;227.883px&quot; viewBox=&quot;0 0 296.633 227.883&quot; enable-background=&quot;new 0 0 296.633 227.883&quot;&#xa;&#x9; xml:space=&quot;preserve&quot;&gt;&#xa;&lt;path fill=&quot;none&quot; d=&quot;M2.662,1.793c8.266,53.25,2.802,171.963,5.305,226.067&quot;/&gt;&#xa;&lt;path fill=&quot;none&quot; d=&quot;M1.031,222.146c67.199-9.078,213.034,6.17,279.931-5.306&quot;/&gt;&#xa;&lt;path fill=&quot;none&quot; d=&quot;M290.581,0.007c-0.5,33.125-2.356,191.708-11.658,223.363&quot;/&gt;&#xa;&lt;path fill=&quot;none&quot; d=&quot;M0.07,10.703C127.409-7.206,237.174,4.794,296.602,8.604&quot;/&gt;&#xa;&lt;/svg&gt;&#xa;" leadInLength="0/1"  />
              </Keyframes>
             </Parameter>
            </StringParameters>
           </VectorNode>
          </Attribute>
         </Attributes>
         <MetaData>
          <entry key="WinSubProjectDisplayName" val=""/>
         </MetaData>
         <LeftEdgeMods length="3/1" groupName="DrawPercentageFade">
          <EdgeMod parameter="7553">
           <FadeInFunc id="6673"  />
          </EdgeMod>
         </LeftEdgeMods>
         <RightEdgeMods length="3/1" groupName="OpacityFade">
          <EdgeMod parameter="7538">
           <FadeOutFunc id="7568"  />
          </EdgeMod>
         </RightEdgeMods>
         <ExtraData>
          <Entry key="ZoomPanBin">
           <ZoomPanBin id="7569"  >
            <ZoomPanKeyframes>
             <ZoomPanKeyframe id="7570" timeRangeEnd="-9999999/1" timeRangeDuration="0/1" interpolaterName="linr"  />
             <ZoomPanKeyframe id="7571" timeRangeEnd="10/1" timeRangeDuration="1/1" interpolaterName="linr"  />
             <ZoomPanKeyframe id="7572" timeRangeEnd="3/1" timeRangeDuration="1/1" interpolaterName="linr"  />
             <ZoomPanKeyframe id="7573" timeRangeEnd="8/1" timeRangeDuration="2/1" interpolaterName="linr"  />
             <ZoomPanKeyframe id="7574" timeRangeEnd="9/1" timeRangeDuration="1/1" interpolaterName="linr"  />
            </ZoomPanKeyframes>
           </ZoomPanBin>
          </Entry>
         </ExtraData>
        </Callout>
        <Callout id="7575" start="7980" duration="20" scalar="1/1" mediaStart="0/1" mediaDuration="20/1" >
         <Transformer>
          <VectorParam id="7576"  name="translation">
           <InterpolatingParam id="7577" interp="linr"  time="-9999999/1" value="-88.333333333028918" leadInLength="0/1"  />
           <InterpolatingParam id="7578" interp="linr"  time="-9999999/1" value="-305.83333333324242" leadInLength="0/1"  />
           <InterpolatingParam id="7579" interp="linr"  time="-9999999/1" value="0" leadInLength="0/1"  />
          </VectorParam>
          <VectorParam id="7580"  name="rotation">
           <InterpolatingParam id="7581" interp="linr"  time="-9999999/1" value="0" leadInLength="0/1"  />
           <InterpolatingParam id="7582" interp="linr"  time="-9999999/1" value="0" leadInLength="0/1"  />
           <InterpolatingParam id="7583" interp="linr"  time="-9999999/1" value="0" leadInLength="0/1"  />
          </VectorParam>
          <VectorParam id="7584"  name="shear">
           <InterpolatingParam id="7585" interp="linr"  time="-9999999/1" value="0" leadInLength="0/1"  />
           <InterpolatingParam id="7586" interp="linr"  time="-9999999/1" value="0" leadInLength="0/1"  />
           <InterpolatingParam id="7587" interp="linr"  time="-9999999/1" value="0" leadInLength="0/1"  />
          </VectorParam>
          <VectorParam id="7588"  name="scale">
           <InterpolatingParam id="7589" interp="linr"  time="-9999999/1" value="0.40624999999905359" leadInLength="0/1"  />
           <InterpolatingParam id="7590" interp="linr"  time="-9999999/1" value="0.2870370370371112" leadInLength="0/1"  />
           <InterpolatingParam id="7591" interp="linr"  time="-9999999/1" value="1" leadInLength="0/1"  />
          </VectorParam>
          <VectorParam id="7592"  name="anchor">
           <InterpolatingParam id="7593" interp="linr"  time="0/1" value="0" leadInLength="0/1"  />
           <InterpolatingParam id="7594" interp="linr"  time="0/1" value="0" leadInLength="0/1"  />
           <InterpolatingParam id="7595" interp="linr"  time="0/1" value="0" leadInLength="0/1"  />
          </VectorParam>
         </Transformer>
         <Parameters>
          <VectorParam id="7596"  name="sourceCrop">
           <InterpolatingParam id="7597" interp="linr"  time="0/1" value="0" leadInLength="0/1"  />
           <InterpolatingParam id="7598" interp="linr"  time="0/1" value="0" leadInLength="0/1"  />
           <InterpolatingParam id="7599" interp="linr"  time="0/1" value="0" leadInLength="0/1"  />
           <InterpolatingParam id="7600" interp="linr"  time="0/1" value="0" leadInLength="0/1"  />
          </VectorParam>
          <VectorParam id="7601"  name="geometryCrop">
           <InterpolatingParam id="7602" interp="linr"  time="-9999999/1" value="0" leadInLength="0/1"  />
           <InterpolatingParam id="7603" interp="linr"  time="-9999999/1" value="0" leadInLength="0/1"  />
           <InterpolatingParam id="7604" interp="linr"  time="-9999999/1" value="0" leadInLength="0/1"  />
           <InterpolatingParam id="7605" interp="linr"  time="-9999999/1" value="0" leadInLength="0/1"  />
          </VectorParam>
          <InterpolatingParam id="7606" interp="linr"  time="-9999999/1" value="1" leadInLength="0/1"  name="opacity"/>
         </Parameters>
         <Effects>
          <GenericEffect id="7607" name = "DropShadow" >
           <Parameters>
           <InterpolatingParam id="7608" interp="linr"  time="0/1" value="315" leadInLength="0/1"   name="angle"/>
           <InterpolatingParam id="7609" interp="linr"  time="0/1" value="2" leadInLength="0/1"   name="blur"/>
           <Parameter id="7610"   name="enabled">
            <Keyframes>
            <Keyframe id="7611"  time="0/1" value="1" leadInLength="0/1"  />
            </Keyframes>
           </Parameter>
           <InterpolatingParam id="7612" interp="linr"  time="0/1" value="4" leadInLength="0/1"   name="offset"/>
           <InterpolatingParam id="7613" interp="linr"  time="0/1" value="1" leadInLength="0/1"   name="opacity"/>
           </Parameters>
          </GenericEffect>
         </Effects>
         <Attributes>
          <Attribute id="7614"  name="vectorNode">
           <VectorNode id="7615" kind="TypeWinSVG"  >
            <DoubleParameters>
             <InterpolatingParam id="7616" interp="linr"  time="0/1" value="1" leadInLength="0/1"  name="DrawTime"/>
             <InterpolatingParam id="7617" interp="linr"  time="0/1" value="59" leadInLength="0/1"  name="borderColorBlue"/>
             <InterpolatingParam id="7618" interp="linr"  time="0/1" value="209" leadInLength="0/1"  name="borderColorGreen"/>
             <InterpolatingParam id="7619" interp="linr"  time="0/1" value="127" leadInLength="0/1"  name="borderColorRed"/>
             <InterpolatingParam id="7620" interp="linr"  time="0/1" value="5" leadInLength="0/1"  name="borderWidth"/>
             <InterpolatingParam id="7621" interp="linr"  time="0/1" value="0" leadInLength="0/1"  name="flipOnXAxis"/>
             <InterpolatingParam id="7622" interp="linr"  time="0/1" value="1" leadInLength="0/1"  name="flipOnYAxis"/>
             <InterpolatingParam id="7623" interp="linr"  time="0/1" value="180" leadInLength="0/1"  name="height"/>
             <InterpolatingParam id="7624" interp="linr"  time="0/1" value="320" leadInLength="0/1"  name="width"/>
            </DoubleParameters>
            <StringParameters>
             <Parameter id="7625"  name="filename">
              <Keyframes>
              <Keyframe id="7626"  time="0/1" value="C:\Program Files (x86)\TechSmith\Camtasia Studio 8\Media\Studio\Callouts\anim_drawnsquare.svg" leadInLength="0/1"  />
              </Keyframes>
             </Parameter>
             <Parameter id="7627"  name="name">
              <Keyframes>
              <Keyframe id="7628"  time="0/1" value="Sketch Motion Rectangle" leadInLength="0/1"  />
              </Keyframes>
             </Parameter>
             <Parameter id="7629"  name="xmlContent">
              <Keyframes>
              <Keyframe id="7630"  time="0/1" value="﻿&lt;?xml version=&quot;1.0&quot; encoding=&quot;utf-8&quot;?&gt;&#xa;&lt;!-- Generator: Adobe Illustrator 13.0.2, SVG Export Plug-In . SVG Version: 6.00 Build 14948)  --&gt;&#xa;&lt;!DOCTYPE svg PUBLIC &quot;-//W3C//DTD SVG 1.1//EN&quot; &quot;http://www.w3.org/Graphics/SVG/1.1/DTD/svg11.dtd&quot;&gt;&#xa;&lt;svg version=&quot;1.1&quot; id=&quot;Layer_1&quot; xmlns=&quot;http://www.w3.org/2000/svg&quot; xmlns:xlink=&quot;http://www.w3.org/1999/xlink&quot; x=&quot;0px&quot; y=&quot;0px&quot;&#xa;&#x9; width=&quot;296.633px&quot; height=&quot;227.883px&quot; viewBox=&quot;0 0 296.633 227.883&quot; enable-background=&quot;new 0 0 296.633 227.883&quot;&#xa;&#x9; xml:space=&quot;preserve&quot;&gt;&#xa;&lt;path fill=&quot;none&quot; d=&quot;M2.662,1.793c8.266,53.25,2.802,171.963,5.305,226.067&quot;/&gt;&#xa;&lt;path fill=&quot;none&quot; d=&quot;M1.031,222.146c67.199-9.078,213.034,6.17,279.931-5.306&quot;/&gt;&#xa;&lt;path fill=&quot;none&quot; d=&quot;M290.581,0.007c-0.5,33.125-2.356,191.708-11.658,223.363&quot;/&gt;&#xa;&lt;path fill=&quot;none&quot; d=&quot;M0.07,10.703C127.409-7.206,237.174,4.794,296.602,8.604&quot;/&gt;&#xa;&lt;/svg&gt;&#xa;" leadInLength="0/1"  />
              </Keyframes>
             </Parameter>
            </StringParameters>
           </VectorNode>
          </Attribute>
         </Attributes>
         <MetaData>
          <entry key="WinSubProjectDisplayName" val=""/>
         </MetaData>
         <LeftEdgeMods length="3/1" groupName="DrawPercentageFade">
          <EdgeMod parameter="7616">
           <FadeInFunc id="7631"  />
          </EdgeMod>
         </LeftEdgeMods>
         <RightEdgeMods length="3/1" groupName="OpacityFade">
          <EdgeMod parameter="7606">
           <FadeOutFunc id="7144"  />
          </EdgeMod>
         </RightEdgeMods>
         <ExtraData>
          <Entry key="ZoomPanBin">
           <ZoomPanBin id="7632"  >
            <ZoomPanKeyframes>
             <ZoomPanKeyframe id="7633" timeRangeEnd="-9999999/1" timeRangeDuration="0/1" interpolaterName="linr"  />
            </ZoomPanKeyframes>
           </ZoomPanBin>
          </Entry>
         </ExtraData>
        </Callout>
       </Medias>
      </GenericTrack>
      <GenericTrack id="7634"  >
       <Attributes>
        <Attribute id="7635" value="" name="ident"/>
        <Attribute id="7636" value="0" name="audioMuted"/>
        <Attribute id="7637" value="0" name="videoHidden"/>
       </Attributes>
       <MetaData>
        <entry key="IsLocked" val="False"/>
        <entry key="WinTrackHeight" val="62"/>
       </MetaData>
       <Medias>
        <Callout id="7638" start="3658" duration="92" scalar="1/1" mediaStart="133/1" mediaDuration="92/1" >
         <Transformer>
          <VectorParam id="7639"  name="translation">
           <InterpolatingParam id="7640" interp="linr"  >
            <Keyframes>
            <Keyframe id="7641"  time="-9999999/1" value="-385.99999999997584" leadInLength="0/1"  />
            <Keyframe id="7642"  time="166/1" value="-265.99999999996351" leadInLength="11/1"  interpolater="leadin-linr"  />
            <Keyframe id="7643"  time="195/1" value="-299.3333333332244" leadInLength="8/1"  interpolater="leadin-linr"  />
            <Keyframe id="7644"  time="219/1" value="-272.66666666665867" leadInLength="17/1"  interpolater="leadin-linr"  />
            </Keyframes>
           </InterpolatingParam>
           <InterpolatingParam id="7645" interp="linr"  >
            <Keyframes>
            <Keyframe id="7646"  time="-9999999/1" value="142.66666666661831" leadInLength="0/1"  />
            <Keyframe id="7647"  time="166/1" value="18.66666666661645" leadInLength="11/1"  interpolater="leadin-linr"  />
            <Keyframe id="7648"  time="195/1" value="-33.333333333394854" leadInLength="8/1"  interpolater="leadin-linr"  />
            <Keyframe id="7649"  time="219/1" value="-106.66666666670645" leadInLength="17/1"  interpolater="leadin-linr"  />
            </Keyframes>
           </InterpolatingParam>
           <InterpolatingParam id="7650" interp="linr"  >
            <Keyframes>
            <Keyframe id="7651"  time="-9999999/1" value="0" leadInLength="0/1"  />
            <Keyframe id="7652"  time="166/1" value="0" leadInLength="11/1"  interpolater="leadin-linr"  />
            <Keyframe id="7653"  time="195/1" value="0" leadInLength="8/1"  interpolater="leadin-linr"  />
            <Keyframe id="7654"  time="219/1" value="0" leadInLength="17/1"  interpolater="leadin-linr"  />
            </Keyframes>
           </InterpolatingParam>
          </VectorParam>
          <VectorParam id="7655"  name="rotation">
           <InterpolatingParam id="7656" interp="linr"  >
            <Keyframes>
            <Keyframe id="7657"  time="-9999999/1" value="0" leadInLength="0/1"  />
            <Keyframe id="7658"  time="166/1" value="0" leadInLength="11/1"  interpolater="leadin-linr"  />
            <Keyframe id="7659"  time="195/1" value="0" leadInLength="8/1"  interpolater="leadin-linr"  />
            <Keyframe id="7660"  time="219/1" value="0" leadInLength="17/1"  interpolater="leadin-linr"  />
            </Keyframes>
           </InterpolatingParam>
           <InterpolatingParam id="7661" interp="linr"  >
            <Keyframes>
            <Keyframe id="7662"  time="-9999999/1" value="0" leadInLength="0/1"  />
            <Keyframe id="7663"  time="166/1" value="0" leadInLength="11/1"  interpolater="leadin-linr"  />
            <Keyframe id="7664"  time="195/1" value="0" leadInLength="8/1"  interpolater="leadin-linr"  />
            <Keyframe id="7665"  time="219/1" value="0" leadInLength="17/1"  interpolater="leadin-linr"  />
            </Keyframes>
           </InterpolatingParam>
           <InterpolatingParam id="7666" interp="linr"  >
            <Keyframes>
            <Keyframe id="7667"  time="-9999999/1" value="0" leadInLength="0/1"  />
            <Keyframe id="7668"  time="166/1" value="0" leadInLength="11/1"  interpolater="leadin-linr"  />
            <Keyframe id="7669"  time="195/1" value="0" leadInLength="8/1"  interpolater="leadin-linr"  />
            <Keyframe id="7670"  time="219/1" value="0" leadInLength="17/1"  interpolater="leadin-linr"  />
            </Keyframes>
           </InterpolatingParam>
          </VectorParam>
          <VectorParam id="7671"  name="shear">
           <InterpolatingParam id="7672" interp="linr"  >
            <Keyframes>
            <Keyframe id="7673"  time="-9999999/1" value="0" leadInLength="0/1"  />
            <Keyframe id="7674"  time="166/1" value="0" leadInLength="11/1"  interpolater="leadin-linr"  />
            <Keyframe id="7675"  time="195/1" value="0" leadInLength="8/1"  interpolater="leadin-linr"  />
            <Keyframe id="7676"  time="219/1" value="0" leadInLength="17/1"  interpolater="leadin-linr"  />
            </Keyframes>
           </InterpolatingParam>
           <InterpolatingParam id="7677" interp="linr"  >
            <Keyframes>
            <Keyframe id="7678"  time="-9999999/1" value="0" leadInLength="0/1"  />
            <Keyframe id="7679"  time="166/1" value="0" leadInLength="11/1"  interpolater="leadin-linr"  />
            <Keyframe id="7680"  time="195/1" value="0" leadInLength="8/1"  interpolater="leadin-linr"  />
            <Keyframe id="7681"  time="219/1" value="0" leadInLength="17/1"  interpolater="leadin-linr"  />
            </Keyframes>
           </InterpolatingParam>
           <InterpolatingParam id="7682" interp="linr"  >
            <Keyframes>
            <Keyframe id="7683"  time="-9999999/1" value="0" leadInLength="0/1"  />
            <Keyframe id="7684"  time="166/1" value="0" leadInLength="11/1"  interpolater="leadin-linr"  />
            <Keyframe id="7685"  time="195/1" value="0" leadInLength="8/1"  interpolater="leadin-linr"  />
            <Keyframe id="7686"  time="219/1" value="0" leadInLength="17/1"  interpolater="leadin-linr"  />
            </Keyframes>
           </InterpolatingParam>
          </VectorParam>
          <VectorParam id="7687"  name="scale">
           <InterpolatingParam id="7688" interp="linr"  >
            <Keyframes>
            <Keyframe id="7689"  time="-9999999/1" value="0.42083333333372369" leadInLength="0/1"  />
            <Keyframe id="7690"  time="166/1" value="0.42083333333372369" leadInLength="11/1"  interpolater="leadin-linr"  />
            <Keyframe id="7691"  time="195/1" value="0.42083333333372369" leadInLength="8/1"  interpolater="leadin-linr"  />
            <Keyframe id="7692"  time="219/1" value="0.42083333333372369" leadInLength="17/1"  interpolater="leadin-linr"  />
            </Keyframes>
           </InterpolatingParam>
           <InterpolatingParam id="7693" interp="linr"  >
            <Keyframes>
            <Keyframe id="7694"  time="-9999999/1" value="0.27407407407355333" leadInLength="0/1"  />
            <Keyframe id="7695"  time="166/1" value="0.27407407407355333" leadInLength="11/1"  interpolater="leadin-linr"  />
            <Keyframe id="7696"  time="195/1" value="0.27407407407355333" leadInLength="8/1"  interpolater="leadin-linr"  />
            <Keyframe id="7697"  time="219/1" value="0.27407407407355333" leadInLength="17/1"  interpolater="leadin-linr"  />
            </Keyframes>
           </InterpolatingParam>
           <InterpolatingParam id="7698" interp="linr"  >
            <Keyframes>
            <Keyframe id="7699"  time="-9999999/1" value="1" leadInLength="0/1"  />
            <Keyframe id="7700"  time="166/1" value="1" leadInLength="11/1"  interpolater="leadin-linr"  />
            <Keyframe id="7701"  time="195/1" value="1" leadInLength="8/1"  interpolater="leadin-linr"  />
            <Keyframe id="7702"  time="219/1" value="1" leadInLength="17/1"  interpolater="leadin-linr"  />
            </Keyframes>
           </InterpolatingParam>
          </VectorParam>
          <VectorParam id="7703"  name="anchor">
           <InterpolatingParam id="7704" interp="linr"  time="0/1" value="0" leadInLength="0/1"  />
           <InterpolatingParam id="7705" interp="linr"  time="0/1" value="0" leadInLength="0/1"  />
           <InterpolatingParam id="7706" interp="linr"  time="0/1" value="0" leadInLength="0/1"  />
          </VectorParam>
         </Transformer>
         <Parameters>
          <VectorParam id="7707"  name="sourceCrop">
           <InterpolatingParam id="7708" interp="linr"  time="0/1" value="0" leadInLength="0/1"  />
           <InterpolatingParam id="7709" interp="linr"  time="0/1" value="0" leadInLength="0/1"  />
           <InterpolatingParam id="7710" interp="linr"  time="0/1" value="0" leadInLength="0/1"  />
           <InterpolatingParam id="7711" interp="linr"  time="0/1" value="0" leadInLength="0/1"  />
          </VectorParam>
          <VectorParam id="7712"  name="geometryCrop">
           <InterpolatingParam id="7713" interp="linr"  >
            <Keyframes>
            <Keyframe id="7714"  time="-9999999/1" value="0" leadInLength="0/1"  />
            <Keyframe id="7715"  time="166/1" value="0" leadInLength="11/1"  interpolater="leadin-linr"  />
            <Keyframe id="7716"  time="195/1" value="0" leadInLength="8/1"  interpolater="leadin-linr"  />
            <Keyframe id="7717"  time="219/1" value="0" leadInLength="17/1"  interpolater="leadin-linr"  />
            </Keyframes>
           </InterpolatingParam>
           <InterpolatingParam id="7718" interp="linr"  >
            <Keyframes>
            <Keyframe id="7719"  time="-9999999/1" value="0" leadInLength="0/1"  />
            <Keyframe id="7720"  time="166/1" value="0" leadInLength="11/1"  interpolater="leadin-linr"  />
            <Keyframe id="7721"  time="195/1" value="0" leadInLength="8/1"  interpolater="leadin-linr"  />
            <Keyframe id="7722"  time="219/1" value="0" leadInLength="17/1"  interpolater="leadin-linr"  />
            </Keyframes>
           </InterpolatingParam>
           <InterpolatingParam id="7723" interp="linr"  >
            <Keyframes>
            <Keyframe id="7724"  time="-9999999/1" value="0" leadInLength="0/1"  />
            <Keyframe id="7725"  time="166/1" value="0" leadInLength="11/1"  interpolater="leadin-linr"  />
            <Keyframe id="7726"  time="195/1" value="0" leadInLength="8/1"  interpolater="leadin-linr"  />
            <Keyframe id="7727"  time="219/1" value="0" leadInLength="17/1"  interpolater="leadin-linr"  />
            </Keyframes>
           </InterpolatingParam>
           <InterpolatingParam id="7728" interp="linr"  >
            <Keyframes>
            <Keyframe id="7729"  time="-9999999/1" value="0" leadInLength="0/1"  />
            <Keyframe id="7730"  time="166/1" value="0" leadInLength="11/1"  interpolater="leadin-linr"  />
            <Keyframe id="7731"  time="195/1" value="0" leadInLength="8/1"  interpolater="leadin-linr"  />
            <Keyframe id="7732"  time="219/1" value="0" leadInLength="17/1"  interpolater="leadin-linr"  />
            </Keyframes>
           </InterpolatingParam>
          </VectorParam>
          <InterpolatingParam id="7733" interp="linr"  name="opacity">
           <Keyframes>
           <Keyframe id="7734"  time="-9999999/1" value="1" leadInLength="0/1"  />
           <Keyframe id="7735"  time="166/1" value="1" leadInLength="11/1"  interpolater="leadin-linr"  />
           <Keyframe id="7736"  time="195/1" value="1" leadInLength="8/1"  interpolater="leadin-linr"  />
           <Keyframe id="7737"  time="219/1" value="1" leadInLength="17/1"  interpolater="leadin-linr"  />
           </Keyframes>
          </InterpolatingParam>
         </Parameters>
         <Effects>
          <GenericEffect id="7738" name = "DropShadow" >
           <Parameters>
           <InterpolatingParam id="7739" interp="linr"  time="0/1" value="315" leadInLength="0/1"   name="angle"/>
           <InterpolatingParam id="7740" interp="linr"  time="0/1" value="2" leadInLength="0/1"   name="blur"/>
           <Parameter id="7741"   name="enabled">
            <Keyframes>
            <Keyframe id="7742"  time="0/1" value="1" leadInLength="0/1"  />
            </Keyframes>
           </Parameter>
           <InterpolatingParam id="7743" interp="linr"  time="0/1" value="4" leadInLength="0/1"   name="offset"/>
           <InterpolatingParam id="7744" interp="linr"  time="0/1" value="1" leadInLength="0/1"   name="opacity"/>
           </Parameters>
          </GenericEffect>
         </Effects>
         <Attributes>
          <Attribute id="7745"  name="vectorNode">
           <VectorNode id="7746" kind="TypeWinSVG"  >
            <DoubleParameters>
             <InterpolatingParam id="7747" interp="linr"  time="0/1" value="1" leadInLength="0/1"  name="DrawTime"/>
             <InterpolatingParam id="7748" interp="linr"  time="0/1" value="0" leadInLength="0/1"  name="borderColorBlue"/>
             <InterpolatingParam id="7749" interp="linr"  time="0/1" value="0" leadInLength="0/1"  name="borderColorGreen"/>
             <InterpolatingParam id="7750" interp="linr"  time="0/1" value="255" leadInLength="0/1"  name="borderColorRed"/>
             <InterpolatingParam id="7751" interp="linr"  time="0/1" value="5" leadInLength="0/1"  name="borderWidth"/>
             <InterpolatingParam id="7752" interp="linr"  time="0/1" value="1" leadInLength="0/1"  name="flipOnXAxis"/>
             <InterpolatingParam id="7753" interp="linr"  time="0/1" value="0" leadInLength="0/1"  name="flipOnYAxis"/>
             <InterpolatingParam id="7754" interp="linr"  time="0/1" value="180" leadInLength="0/1"  name="height"/>
             <InterpolatingParam id="7755" interp="linr"  time="0/1" value="320" leadInLength="0/1"  name="width"/>
            </DoubleParameters>
            <StringParameters>
             <Parameter id="7756"  name="filename">
              <Keyframes>
              <Keyframe id="7757"  time="0/1" value="C:\Program Files (x86)\TechSmith\Camtasia Studio 8\Media\Studio\Callouts\anim_arrow.svg" leadInLength="0/1"  />
              </Keyframes>
             </Parameter>
             <Parameter id="7758"  name="name">
              <Keyframes>
              <Keyframe id="7759"  time="0/1" value="Sketch Motion Arrow" leadInLength="0/1"  />
              </Keyframes>
             </Parameter>
             <Parameter id="7760"  name="xmlContent">
              <Keyframes>
              <Keyframe id="7761"  time="0/1" value="﻿&lt;?xml version=&quot;1.0&quot; encoding=&quot;utf-8&quot;?&gt;&#xa;&lt;!-- Generator: Adobe Illustrator 13.0.2, SVG Export Plug-In . SVG Version: 6.00 Build 14948)  --&gt;&#xa;&lt;!DOCTYPE svg PUBLIC &quot;-//W3C//DTD SVG 1.1//EN&quot; &quot;http://www.w3.org/Graphics/SVG/1.1/DTD/svg11.dtd&quot;&gt;&#xa;&lt;svg version=&quot;1.1&quot; id=&quot;Layer_1&quot; xmlns=&quot;http://www.w3.org/2000/svg&quot; xmlns:xlink=&quot;http://www.w3.org/1999/xlink&quot; x=&quot;0px&quot; y=&quot;0px&quot;&#xa;&#x9; width=&quot;151.268px&quot; height=&quot;53px&quot; viewBox=&quot;0 0 151.268 53&quot; enable-background=&quot;new 0 0 151.268 53&quot; xml:space=&quot;preserve&quot;&gt;&#xa;&lt;path fill=&quot;none&quot; d=&quot;M12.852,24.926c0,0,85.25-8.838,118.688-2.996&quot;/&gt;&#xa;&lt;path fill=&quot;none&quot; d=&quot;M93.169,2.713c0,0,46.52,8.657,49.944,18.729c3.424,10.071-43.753,26.022-43.753,26.022&quot;/&gt;&#xa;&lt;/svg&gt;&#xa;" leadInLength="0/1"  />
              </Keyframes>
             </Parameter>
            </StringParameters>
           </VectorNode>
          </Attribute>
         </Attributes>
         <MetaData>
          <entry key="WinSubProjectDisplayName" val=""/>
         </MetaData>
         <LeftEdgeMods length="3/1" groupName="DrawPercentageFade">
          <EdgeMod parameter="7747">
           <FadeInFunc id="7762"  />
          </EdgeMod>
         </LeftEdgeMods>
         <RightEdgeMods length="3/1" groupName="OpacityFade">
          <EdgeMod parameter="7733">
           <FadeOutFunc id="7763"  />
          </EdgeMod>
         </RightEdgeMods>
         <ExtraData>
          <Entry key="ZoomPanBin">
           <ZoomPanBin id="7764"  >
            <ZoomPanKeyframes>
             <ZoomPanKeyframe id="7765" timeRangeEnd="-9999999/1" timeRangeDuration="0/1" interpolaterName="linr"  />
             <ZoomPanKeyframe id="7766" timeRangeEnd="166/1" timeRangeDuration="11/1" interpolaterName="linr"  />
             <ZoomPanKeyframe id="7767" timeRangeEnd="195/1" timeRangeDuration="8/1" interpolaterName="linr"  />
             <ZoomPanKeyframe id="7768" timeRangeEnd="219/1" timeRangeDuration="17/1" interpolaterName="linr"  />
            </ZoomPanKeyframes>
           </ZoomPanBin>
          </Entry>
         </ExtraData>
        </Callout>
        <Callout id="7769" start="7454" duration="112" scalar="1/1" mediaStart="0/1" mediaDuration="112/1" >
         <Transformer>
          <VectorParam id="7770"  name="translation">
           <InterpolatingParam id="7771" interp="linr"  time="-9999999/1" value="-257.5824175825374" leadInLength="0/1"  />
           <InterpolatingParam id="7772" interp="linr"  time="-9999999/1" value="154.9450549451291" leadInLength="0/1"  />
           <InterpolatingParam id="7773" interp="linr"  time="-9999999/1" value="0" leadInLength="0/1"  />
          </VectorParam>
          <VectorParam id="7774"  name="rotation">
           <InterpolatingParam id="7775" interp="linr"  time="-9999999/1" value="0" leadInLength="0/1"  />
           <InterpolatingParam id="7776" interp="linr"  time="-9999999/1" value="0" leadInLength="0/1"  />
           <InterpolatingParam id="7777" interp="linr"  time="-9999999/1" value="0" leadInLength="0/1"  />
          </VectorParam>
          <VectorParam id="7778"  name="shear">
           <InterpolatingParam id="7779" interp="linr"  time="-9999999/1" value="0" leadInLength="0/1"  />
           <InterpolatingParam id="7780" interp="linr"  time="-9999999/1" value="0" leadInLength="0/1"  />
           <InterpolatingParam id="7781" interp="linr"  time="-9999999/1" value="0" leadInLength="0/1"  />
          </VectorParam>
          <VectorParam id="7782"  name="scale">
           <InterpolatingParam id="7783" interp="linr"  time="-9999999/1" value="0.43131868131852463" leadInLength="0/1"  />
           <InterpolatingParam id="7784" interp="linr"  time="-9999999/1" value="0.34798534798515268" leadInLength="0/1"  />
           <InterpolatingParam id="7785" interp="linr"  time="-9999999/1" value="1" leadInLength="0/1"  />
          </VectorParam>
          <VectorParam id="7786"  name="anchor">
           <InterpolatingParam id="7787" interp="linr"  time="0/1" value="0" leadInLength="0/1"  />
           <InterpolatingParam id="7788" interp="linr"  time="0/1" value="0" leadInLength="0/1"  />
           <InterpolatingParam id="7789" interp="linr"  time="0/1" value="0" leadInLength="0/1"  />
          </VectorParam>
         </Transformer>
         <Parameters>
          <VectorParam id="7790"  name="sourceCrop">
           <InterpolatingParam id="7791" interp="linr"  time="0/1" value="0" leadInLength="0/1"  />
           <InterpolatingParam id="7792" interp="linr"  time="0/1" value="0" leadInLength="0/1"  />
           <InterpolatingParam id="7793" interp="linr"  time="0/1" value="0" leadInLength="0/1"  />
           <InterpolatingParam id="7794" interp="linr"  time="0/1" value="0" leadInLength="0/1"  />
          </VectorParam>
          <VectorParam id="7795"  name="geometryCrop">
           <InterpolatingParam id="7796" interp="linr"  time="-9999999/1" value="0" leadInLength="0/1"  />
           <InterpolatingParam id="7797" interp="linr"  time="-9999999/1" value="0" leadInLength="0/1"  />
           <InterpolatingParam id="7798" interp="linr"  time="-9999999/1" value="0" leadInLength="0/1"  />
           <InterpolatingParam id="7799" interp="linr"  time="-9999999/1" value="0" leadInLength="0/1"  />
          </VectorParam>
          <InterpolatingParam id="7800" interp="linr"  time="-9999999/1" value="1" leadInLength="0/1"  name="opacity"/>
         </Parameters>
         <Effects>
          <GenericEffect id="7801" name = "DropShadow" >
           <Parameters>
           <InterpolatingParam id="7802" interp="linr"  time="0/1" value="315" leadInLength="0/1"   name="angle"/>
           <InterpolatingParam id="7803" interp="linr"  time="0/1" value="2" leadInLength="0/1"   name="blur"/>
           <Parameter id="7804"   name="enabled">
            <Keyframes>
            <Keyframe id="7805"  time="0/1" value="1" leadInLength="0/1"  />
            </Keyframes>
           </Parameter>
           <InterpolatingParam id="7806" interp="linr"  time="0/1" value="4" leadInLength="0/1"   name="offset"/>
           <InterpolatingParam id="7807" interp="linr"  time="0/1" value="1" leadInLength="0/1"   name="opacity"/>
           </Parameters>
          </GenericEffect>
         </Effects>
         <Attributes>
          <Attribute id="7808"  name="vectorNode">
           <VectorNode id="7809" kind="TypeWinSVG"  >
            <DoubleParameters>
             <InterpolatingParam id="7810" interp="linr"  time="0/1" value="1" leadInLength="0/1"  name="DrawTime"/>
             <InterpolatingParam id="7811" interp="linr"  time="0/1" value="0" leadInLength="0/1"  name="borderColorBlue"/>
             <InterpolatingParam id="7812" interp="linr"  time="0/1" value="0" leadInLength="0/1"  name="borderColorGreen"/>
             <InterpolatingParam id="7813" interp="linr"  time="0/1" value="255" leadInLength="0/1"  name="borderColorRed"/>
             <InterpolatingParam id="7814" interp="linr"  time="0/1" value="5" leadInLength="0/1"  name="borderWidth"/>
             <InterpolatingParam id="7815" interp="linr"  time="0/1" value="1" leadInLength="0/1"  name="flipOnXAxis"/>
             <InterpolatingParam id="7816" interp="linr"  time="0/1" value="0" leadInLength="0/1"  name="flipOnYAxis"/>
             <InterpolatingParam id="7817" interp="linr"  time="0/1" value="180" leadInLength="0/1"  name="height"/>
             <InterpolatingParam id="7818" interp="linr"  time="0/1" value="320" leadInLength="0/1"  name="width"/>
            </DoubleParameters>
            <StringParameters>
             <Parameter id="7819"  name="filename">
              <Keyframes>
              <Keyframe id="7820"  time="0/1" value="C:\Program Files (x86)\TechSmith\Camtasia Studio 8\Media\Studio\Callouts\anim_arrow.svg" leadInLength="0/1"  />
              </Keyframes>
             </Parameter>
             <Parameter id="7821"  name="name">
              <Keyframes>
              <Keyframe id="7822"  time="0/1" value="Sketch Motion Arrow" leadInLength="0/1"  />
              </Keyframes>
             </Parameter>
             <Parameter id="7823"  name="xmlContent">
              <Keyframes>
              <Keyframe id="7824"  time="0/1" value="﻿&lt;?xml version=&quot;1.0&quot; encoding=&quot;utf-8&quot;?&gt;&#xa;&lt;!-- Generator: Adobe Illustrator 13.0.2, SVG Export Plug-In . SVG Version: 6.00 Build 14948)  --&gt;&#xa;&lt;!DOCTYPE svg PUBLIC &quot;-//W3C//DTD SVG 1.1//EN&quot; &quot;http://www.w3.org/Graphics/SVG/1.1/DTD/svg11.dtd&quot;&gt;&#xa;&lt;svg version=&quot;1.1&quot; id=&quot;Layer_1&quot; xmlns=&quot;http://www.w3.org/2000/svg&quot; xmlns:xlink=&quot;http://www.w3.org/1999/xlink&quot; x=&quot;0px&quot; y=&quot;0px&quot;&#xa;&#x9; width=&quot;151.268px&quot; height=&quot;53px&quot; viewBox=&quot;0 0 151.268 53&quot; enable-background=&quot;new 0 0 151.268 53&quot; xml:space=&quot;preserve&quot;&gt;&#xa;&lt;path fill=&quot;none&quot; d=&quot;M12.852,24.926c0,0,85.25-8.838,118.688-2.996&quot;/&gt;&#xa;&lt;path fill=&quot;none&quot; d=&quot;M93.169,2.713c0,0,46.52,8.657,49.944,18.729c3.424,10.071-43.753,26.022-43.753,26.022&quot;/&gt;&#xa;&lt;/svg&gt;&#xa;" leadInLength="0/1"  />
              </Keyframes>
             </Parameter>
            </StringParameters>
           </VectorNode>
          </Attribute>
         </Attributes>
         <MetaData>
          <entry key="WinSubProjectDisplayName" val=""/>
         </MetaData>
         <LeftEdgeMods length="30/1" groupName="DrawPercentageFade">
          <EdgeMod parameter="7810">
           <FadeInFunc id="7077"  />
          </EdgeMod>
         </LeftEdgeMods>
         <RightEdgeMods length="30/1" groupName="OpacityFade">
          <EdgeMod parameter="7800">
           <FadeOutFunc id="7825"  />
          </EdgeMod>
         </RightEdgeMods>
         <ExtraData>
          <Entry key="ZoomPanBin">
           <ZoomPanBin id="7826"  >
            <ZoomPanKeyframes>
             <ZoomPanKeyframe id="7827" timeRangeEnd="-9999999/1" timeRangeDuration="0/1" interpolaterName="linr"  />
            </ZoomPanKeyframes>
           </ZoomPanBin>
          </Entry>
         </ExtraData>
        </Callout>
        <Callout id="7828" start="7594" duration="36" scalar="1/1" mediaStart="151/1" mediaDuration="36/1" >
         <Transformer>
          <VectorParam id="7829"  name="translation">
           <InterpolatingParam id="7830" interp="linr"  >
            <Keyframes>
            <Keyframe id="7831"  time="-9999999/1" value="332.96703296698189" leadInLength="0/1"  />
            <Keyframe id="7832"  time="167/1" value="329.01098901094599" leadInLength="1/1"  interpolater="leadin-linr"  />
            <Keyframe id="7833"  time="175/1" value="329.01098901094599" leadInLength="8/1"  interpolater="leadin-linr"  />
            <Keyframe id="7834"  time="185/1" value="324.01098901095833" leadInLength="1/1"  interpolater="leadin-linr"  />
            <Keyframe id="7835"  time="187/1" value="324.01098901095833" leadInLength="2/1"  interpolater="leadin-linr"  />
            </Keyframes>
           </InterpolatingParam>
           <InterpolatingParam id="7836" interp="linr"  >
            <Keyframes>
            <Keyframe id="7837"  time="-9999999/1" value="72.857142857253962" leadInLength="0/1"  />
            <Keyframe id="7838"  time="167/1" value="157.2527472528904" leadInLength="1/1"  interpolater="leadin-linr"  />
            <Keyframe id="7839"  time="175/1" value="231.09890109908912" leadInLength="8/1"  interpolater="leadin-linr"  />
            <Keyframe id="7840"  time="185/1" value="276.09890109902494" leadInLength="1/1"  interpolater="leadin-linr"  />
            <Keyframe id="7841"  time="187/1" value="324.4322344324213" leadInLength="2/1"  interpolater="leadin-linr"  />
            </Keyframes>
           </InterpolatingParam>
           <InterpolatingParam id="7842" interp="linr"  >
            <Keyframes>
            <Keyframe id="7843"  time="-9999999/1" value="-3.4106051316482875e-010" leadInLength="0/1"  />
            <Keyframe id="7844"  time="167/1" value="-3.4106051316482875e-010" leadInLength="1/1"  interpolater="leadin-linr"  />
            <Keyframe id="7845"  time="175/1" value="-3.4106051316482875e-010" leadInLength="8/1"  interpolater="leadin-linr"  />
            <Keyframe id="7846"  time="185/1" value="-3.410605131648287e-010" leadInLength="1/1"  interpolater="leadin-linr"  />
            <Keyframe id="7847"  time="187/1" value="-3.410605131648287e-010" leadInLength="2/1"  interpolater="leadin-linr"  />
            </Keyframes>
           </InterpolatingParam>
          </VectorParam>
          <VectorParam id="7848"  name="rotation">
           <InterpolatingParam id="7849" interp="linr"  >
            <Keyframes>
            <Keyframe id="7850"  time="-9999999/1" value="0" leadInLength="0/1"  />
            <Keyframe id="7851"  time="167/1" value="0" leadInLength="1/1"  interpolater="leadin-linr"  />
            <Keyframe id="7852"  time="175/1" value="0" leadInLength="8/1"  interpolater="leadin-linr"  />
            <Keyframe id="7853"  time="185/1" value="0" leadInLength="1/1"  interpolater="leadin-linr"  />
            <Keyframe id="7854"  time="187/1" value="0" leadInLength="2/1"  interpolater="leadin-linr"  />
            </Keyframes>
           </InterpolatingParam>
           <InterpolatingParam id="7855" interp="linr"  >
            <Keyframes>
            <Keyframe id="7856"  time="-9999999/1" value="0" leadInLength="0/1"  />
            <Keyframe id="7857"  time="167/1" value="0" leadInLength="1/1"  interpolater="leadin-linr"  />
            <Keyframe id="7858"  time="175/1" value="0" leadInLength="8/1"  interpolater="leadin-linr"  />
            <Keyframe id="7859"  time="185/1" value="0" leadInLength="1/1"  interpolater="leadin-linr"  />
            <Keyframe id="7860"  time="187/1" value="0" leadInLength="2/1"  interpolater="leadin-linr"  />
            </Keyframes>
           </InterpolatingParam>
           <InterpolatingParam id="7861" interp="linr"  >
            <Keyframes>
            <Keyframe id="7862"  time="-9999999/1" value="0" leadInLength="0/1"  />
            <Keyframe id="7863"  time="167/1" value="0" leadInLength="1/1"  interpolater="leadin-linr"  />
            <Keyframe id="7864"  time="175/1" value="0" leadInLength="8/1"  interpolater="leadin-linr"  />
            <Keyframe id="7865"  time="185/1" value="0" leadInLength="1/1"  interpolater="leadin-linr"  />
            <Keyframe id="7866"  time="187/1" value="0" leadInLength="2/1"  interpolater="leadin-linr"  />
            </Keyframes>
           </InterpolatingParam>
          </VectorParam>
          <VectorParam id="7867"  name="shear">
           <InterpolatingParam id="7868" interp="linr"  >
            <Keyframes>
            <Keyframe id="7869"  time="-9999999/1" value="0" leadInLength="0/1"  />
            <Keyframe id="7870"  time="167/1" value="0" leadInLength="1/1"  interpolater="leadin-linr"  />
            <Keyframe id="7871"  time="175/1" value="0" leadInLength="8/1"  interpolater="leadin-linr"  />
            <Keyframe id="7872"  time="185/1" value="0" leadInLength="1/1"  interpolater="leadin-linr"  />
            <Keyframe id="7873"  time="187/1" value="0" leadInLength="2/1"  interpolater="leadin-linr"  />
            </Keyframes>
           </InterpolatingParam>
           <InterpolatingParam id="7874" interp="linr"  >
            <Keyframes>
            <Keyframe id="7875"  time="-9999999/1" value="0" leadInLength="0/1"  />
            <Keyframe id="7876"  time="167/1" value="0" leadInLength="1/1"  interpolater="leadin-linr"  />
            <Keyframe id="7877"  time="175/1" value="0" leadInLength="8/1"  interpolater="leadin-linr"  />
            <Keyframe id="7878"  time="185/1" value="0" leadInLength="1/1"  interpolater="leadin-linr"  />
            <Keyframe id="7879"  time="187/1" value="0" leadInLength="2/1"  interpolater="leadin-linr"  />
            </Keyframes>
           </InterpolatingParam>
           <InterpolatingParam id="7880" interp="linr"  >
            <Keyframes>
            <Keyframe id="7881"  time="-9999999/1" value="0" leadInLength="0/1"  />
            <Keyframe id="7882"  time="167/1" value="0" leadInLength="1/1"  interpolater="leadin-linr"  />
            <Keyframe id="7883"  time="175/1" value="0" leadInLength="8/1"  interpolater="leadin-linr"  />
            <Keyframe id="7884"  time="185/1" value="0" leadInLength="1/1"  interpolater="leadin-linr"  />
            <Keyframe id="7885"  time="187/1" value="0" leadInLength="2/1"  interpolater="leadin-linr"  />
            </Keyframes>
           </InterpolatingParam>
          </VectorParam>
          <VectorParam id="7886"  name="scale">
           <InterpolatingParam id="7887" interp="linr"  >
            <Keyframes>
            <Keyframe id="7888"  time="-9999999/1" value="0.49313186813171711" leadInLength="0/1"  />
            <Keyframe id="7889"  time="167/1" value="0.49313186813171711" leadInLength="1/1"  interpolater="leadin-linr"  />
            <Keyframe id="7890"  time="175/1" value="0.49313186813171711" leadInLength="8/1"  interpolater="leadin-linr"  />
            <Keyframe id="7891"  time="185/1" value="0.49313186813171711" leadInLength="1/1"  interpolater="leadin-linr"  />
            <Keyframe id="7892"  time="187/1" value="0.49313186813171711" leadInLength="2/1"  interpolater="leadin-linr"  />
            </Keyframes>
           </InterpolatingParam>
           <InterpolatingParam id="7893" interp="linr"  >
            <Keyframes>
            <Keyframe id="7894"  time="-9999999/1" value="0.42124542124491582" leadInLength="0/1"  />
            <Keyframe id="7895"  time="167/1" value="0.42124542124491582" leadInLength="1/1"  interpolater="leadin-linr"  />
            <Keyframe id="7896"  time="175/1" value="0.42124542124491582" leadInLength="8/1"  interpolater="leadin-linr"  />
            <Keyframe id="7897"  time="185/1" value="0.42124542124542891" leadInLength="1/1"  interpolater="leadin-linr"  />
            <Keyframe id="7898"  time="187/1" value="0.42124542124477293" leadInLength="2/1"  interpolater="leadin-linr"  />
            </Keyframes>
           </InterpolatingParam>
           <InterpolatingParam id="7899" interp="linr"  >
            <Keyframes>
            <Keyframe id="7900"  time="-9999999/1" value="1" leadInLength="0/1"  />
            <Keyframe id="7901"  time="167/1" value="1" leadInLength="1/1"  interpolater="leadin-linr"  />
            <Keyframe id="7902"  time="175/1" value="1" leadInLength="8/1"  interpolater="leadin-linr"  />
            <Keyframe id="7903"  time="185/1" value="1" leadInLength="1/1"  interpolater="leadin-linr"  />
            <Keyframe id="7904"  time="187/1" value="1" leadInLength="2/1"  interpolater="leadin-linr"  />
            </Keyframes>
           </InterpolatingParam>
          </VectorParam>
          <VectorParam id="7905"  name="anchor">
           <InterpolatingParam id="7906" interp="linr"  time="0/1" value="0" leadInLength="0/1"  />
           <InterpolatingParam id="7907" interp="linr"  time="0/1" value="0" leadInLength="0/1"  />
           <InterpolatingParam id="7908" interp="linr"  time="0/1" value="0" leadInLength="0/1"  />
          </VectorParam>
         </Transformer>
         <Parameters>
          <VectorParam id="7909"  name="sourceCrop">
           <InterpolatingParam id="7910" interp="linr"  time="0/1" value="0" leadInLength="0/1"  />
           <InterpolatingParam id="7911" interp="linr"  time="0/1" value="0" leadInLength="0/1"  />
           <InterpolatingParam id="7912" interp="linr"  time="0/1" value="0" leadInLength="0/1"  />
           <InterpolatingParam id="7913" interp="linr"  time="0/1" value="0" leadInLength="0/1"  />
          </VectorParam>
          <VectorParam id="7914"  name="geometryCrop">
           <InterpolatingParam id="7915" interp="linr"  >
            <Keyframes>
            <Keyframe id="7916"  time="-9999999/1" value="0" leadInLength="0/1"  />
            <Keyframe id="7917"  time="167/1" value="0" leadInLength="1/1"  interpolater="leadin-linr"  />
            <Keyframe id="7918"  time="175/1" value="0" leadInLength="8/1"  interpolater="leadin-linr"  />
            <Keyframe id="7919"  time="185/1" value="0" leadInLength="1/1"  interpolater="leadin-linr"  />
            <Keyframe id="7920"  time="187/1" value="0" leadInLength="2/1"  interpolater="leadin-linr"  />
            </Keyframes>
           </InterpolatingParam>
           <InterpolatingParam id="7921" interp="linr"  >
            <Keyframes>
            <Keyframe id="7922"  time="-9999999/1" value="0" leadInLength="0/1"  />
            <Keyframe id="7923"  time="167/1" value="0" leadInLength="1/1"  interpolater="leadin-linr"  />
            <Keyframe id="7924"  time="175/1" value="0" leadInLength="8/1"  interpolater="leadin-linr"  />
            <Keyframe id="7925"  time="185/1" value="0" leadInLength="1/1"  interpolater="leadin-linr"  />
            <Keyframe id="7926"  time="187/1" value="0" leadInLength="2/1"  interpolater="leadin-linr"  />
            </Keyframes>
           </InterpolatingParam>
           <InterpolatingParam id="7927" interp="linr"  >
            <Keyframes>
            <Keyframe id="7928"  time="-9999999/1" value="0" leadInLength="0/1"  />
            <Keyframe id="7929"  time="167/1" value="0" leadInLength="1/1"  interpolater="leadin-linr"  />
            <Keyframe id="7930"  time="175/1" value="0" leadInLength="8/1"  interpolater="leadin-linr"  />
            <Keyframe id="7931"  time="185/1" value="0" leadInLength="1/1"  interpolater="leadin-linr"  />
            <Keyframe id="7932"  time="187/1" value="0" leadInLength="2/1"  interpolater="leadin-linr"  />
            </Keyframes>
           </InterpolatingParam>
           <InterpolatingParam id="7933" interp="linr"  >
            <Keyframes>
            <Keyframe id="7934"  time="-9999999/1" value="0" leadInLength="0/1"  />
            <Keyframe id="7935"  time="167/1" value="0" leadInLength="1/1"  interpolater="leadin-linr"  />
            <Keyframe id="7936"  time="175/1" value="0" leadInLength="8/1"  interpolater="leadin-linr"  />
            <Keyframe id="7937"  time="185/1" value="0" leadInLength="1/1"  interpolater="leadin-linr"  />
            <Keyframe id="7938"  time="187/1" value="0" leadInLength="2/1"  interpolater="leadin-linr"  />
            </Keyframes>
           </InterpolatingParam>
          </VectorParam>
          <InterpolatingParam id="7939" interp="linr"  name="opacity">
           <Keyframes>
           <Keyframe id="7940"  time="-9999999/1" value="1" leadInLength="0/1"  />
           <Keyframe id="7941"  time="167/1" value="1" leadInLength="1/1"  interpolater="leadin-linr"  />
           <Keyframe id="7942"  time="175/1" value="1" leadInLength="8/1"  interpolater="leadin-linr"  />
           <Keyframe id="7943"  time="185/1" value="1" leadInLength="1/1"  interpolater="leadin-linr"  />
           <Keyframe id="7944"  time="187/1" value="1" leadInLength="2/1"  interpolater="leadin-linr"  />
           </Keyframes>
          </InterpolatingParam>
         </Parameters>
         <Effects>
          <GenericEffect id="7945" name = "DropShadow" >
           <Parameters>
           <InterpolatingParam id="7946" interp="linr"  time="0/1" value="315" leadInLength="0/1"   name="angle"/>
           <InterpolatingParam id="7947" interp="linr"  time="0/1" value="2" leadInLength="0/1"   name="blur"/>
           <Parameter id="7948"   name="enabled">
            <Keyframes>
            <Keyframe id="7949"  time="0/1" value="1" leadInLength="0/1"  />
            </Keyframes>
           </Parameter>
           <InterpolatingParam id="7950" interp="linr"  time="0/1" value="4" leadInLength="0/1"   name="offset"/>
           <InterpolatingParam id="7951" interp="linr"  time="0/1" value="1" leadInLength="0/1"   name="opacity"/>
           </Parameters>
          </GenericEffect>
         </Effects>
         <Attributes>
          <Attribute id="7952"  name="vectorNode">
           <VectorNode id="7953" kind="TypeWinSVG"  >
            <DoubleParameters>
             <InterpolatingParam id="7954" interp="linr"  time="0/1" value="1" leadInLength="0/1"  name="DrawTime"/>
             <InterpolatingParam id="7955" interp="linr"  time="0/1" value="59" leadInLength="0/1"  name="borderColorBlue"/>
             <InterpolatingParam id="7956" interp="linr"  time="0/1" value="209" leadInLength="0/1"  name="borderColorGreen"/>
             <InterpolatingParam id="7957" interp="linr"  time="0/1" value="127" leadInLength="0/1"  name="borderColorRed"/>
             <InterpolatingParam id="7958" interp="linr"  time="0/1" value="5" leadInLength="0/1"  name="borderWidth"/>
             <InterpolatingParam id="7959" interp="linr"  time="0/1" value="0" leadInLength="0/1"  name="flipOnXAxis"/>
             <InterpolatingParam id="7960" interp="linr"  time="0/1" value="1" leadInLength="0/1"  name="flipOnYAxis"/>
             <InterpolatingParam id="7961" interp="linr"  time="0/1" value="180" leadInLength="0/1"  name="height"/>
             <InterpolatingParam id="7962" interp="linr"  time="0/1" value="320" leadInLength="0/1"  name="width"/>
            </DoubleParameters>
            <StringParameters>
             <Parameter id="7963"  name="filename">
              <Keyframes>
              <Keyframe id="7964"  time="0/1" value="C:\Program Files (x86)\TechSmith\Camtasia Studio 8\Media\Studio\Callouts\anim_drawnsquare.svg" leadInLength="0/1"  />
              </Keyframes>
             </Parameter>
             <Parameter id="7965"  name="name">
              <Keyframes>
              <Keyframe id="7966"  time="0/1" value="Sketch Motion Rectangle" leadInLength="0/1"  />
              </Keyframes>
             </Parameter>
             <Parameter id="7967"  name="xmlContent">
              <Keyframes>
              <Keyframe id="7968"  time="0/1" value="﻿&lt;?xml version=&quot;1.0&quot; encoding=&quot;utf-8&quot;?&gt;&#xa;&lt;!-- Generator: Adobe Illustrator 13.0.2, SVG Export Plug-In . SVG Version: 6.00 Build 14948)  --&gt;&#xa;&lt;!DOCTYPE svg PUBLIC &quot;-//W3C//DTD SVG 1.1//EN&quot; &quot;http://www.w3.org/Graphics/SVG/1.1/DTD/svg11.dtd&quot;&gt;&#xa;&lt;svg version=&quot;1.1&quot; id=&quot;Layer_1&quot; xmlns=&quot;http://www.w3.org/2000/svg&quot; xmlns:xlink=&quot;http://www.w3.org/1999/xlink&quot; x=&quot;0px&quot; y=&quot;0px&quot;&#xa;&#x9; width=&quot;296.633px&quot; height=&quot;227.883px&quot; viewBox=&quot;0 0 296.633 227.883&quot; enable-background=&quot;new 0 0 296.633 227.883&quot;&#xa;&#x9; xml:space=&quot;preserve&quot;&gt;&#xa;&lt;path fill=&quot;none&quot; d=&quot;M2.662,1.793c8.266,53.25,2.802,171.963,5.305,226.067&quot;/&gt;&#xa;&lt;path fill=&quot;none&quot; d=&quot;M1.031,222.146c67.199-9.078,213.034,6.17,279.931-5.306&quot;/&gt;&#xa;&lt;path fill=&quot;none&quot; d=&quot;M290.581,0.007c-0.5,33.125-2.356,191.708-11.658,223.363&quot;/&gt;&#xa;&lt;path fill=&quot;none&quot; d=&quot;M0.07,10.703C127.409-7.206,237.174,4.794,296.602,8.604&quot;/&gt;&#xa;&lt;/svg&gt;&#xa;" leadInLength="0/1"  />
              </Keyframes>
             </Parameter>
            </StringParameters>
           </VectorNode>
          </Attribute>
         </Attributes>
         <MetaData>
          <entry key="WinSubProjectDisplayName" val=""/>
         </MetaData>
         <LeftEdgeMods length="15/1" groupName="DrawPercentageFade">
          <EdgeMod parameter="7954">
           <FadeInFunc id="6802"  />
          </EdgeMod>
         </LeftEdgeMods>
         <RightEdgeMods length="0/1" groupName="OpacityFade">
          <EdgeMod parameter="7939">
           <FadeOutFunc id="7969"  />
          </EdgeMod>
         </RightEdgeMods>
         <ExtraData>
          <Entry key="ZoomPanBin">
           <ZoomPanBin id="7970"  >
            <ZoomPanKeyframes>
             <ZoomPanKeyframe id="7971" timeRangeEnd="-9999999/1" timeRangeDuration="0/1" interpolaterName="linr"  />
             <ZoomPanKeyframe id="7972" timeRangeEnd="167/1" timeRangeDuration="1/1" interpolaterName="linr"  />
             <ZoomPanKeyframe id="7973" timeRangeEnd="175/1" timeRangeDuration="8/1" interpolaterName="linr"  />
             <ZoomPanKeyframe id="7974" timeRangeEnd="185/1" timeRangeDuration="1/1" interpolaterName="linr"  />
             <ZoomPanKeyframe id="7975" timeRangeEnd="187/1" timeRangeDuration="2/1" interpolaterName="leadin-linr"  />
            </ZoomPanKeyframes>
           </ZoomPanBin>
          </Entry>
         </ExtraData>
        </Callout>
        <Callout id="7976" start="7692" duration="25" scalar="1/1" mediaStart="117/1" mediaDuration="25/1" >
         <Transformer>
          <VectorParam id="7977"  name="translation">
           <InterpolatingParam id="7978" interp="linr"  >
            <Keyframes>
            <Keyframe id="7979"  time="-9999999/1" value="-342.49999999979309" leadInLength="0/1"  />
            <Keyframe id="7980"  time="124/1" value="-342.499999999794" leadInLength="1/1"  interpolater="leadin-linr"  />
            <Keyframe id="7981"  time="126/1" value="-342.49999999979315" leadInLength="2/1"  interpolater="leadin-linr"  />
            <Keyframe id="7982"  time="130/1" value="-342.49999999979309" leadInLength="4/1"  interpolater="leadin-linr"  />
            </Keyframes>
           </InterpolatingParam>
           <InterpolatingParam id="7983" interp="linr"  >
            <Keyframes>
            <Keyframe id="7984"  time="-9999999/1" value="-124.16666666651234" leadInLength="0/1"  />
            <Keyframe id="7985"  time="124/1" value="-75.833333333108428" leadInLength="1/1"  interpolater="leadin-linr"  />
            <Keyframe id="7986"  time="126/1" value="19.166666666828149" leadInLength="2/1"  interpolater="leadin-linr"  />
            <Keyframe id="7987"  time="130/1" value="40.833333333495865" leadInLength="4/1"  interpolater="leadin-linr"  />
            </Keyframes>
           </InterpolatingParam>
           <InterpolatingParam id="7988" interp="linr"  >
            <Keyframes>
            <Keyframe id="7989"  time="-9999999/1" value="0" leadInLength="0/1"  />
            <Keyframe id="7990"  time="124/1" value="0" leadInLength="1/1"  interpolater="leadin-linr"  />
            <Keyframe id="7991"  time="126/1" value="0" leadInLength="2/1"  interpolater="leadin-linr"  />
            <Keyframe id="7992"  time="130/1" value="0" leadInLength="4/1"  interpolater="leadin-linr"  />
            </Keyframes>
           </InterpolatingParam>
          </VectorParam>
          <VectorParam id="7993"  name="rotation">
           <InterpolatingParam id="7994" interp="linr"  >
            <Keyframes>
            <Keyframe id="7995"  time="-9999999/1" value="0" leadInLength="0/1"  />
            <Keyframe id="7996"  time="124/1" value="0" leadInLength="1/1"  interpolater="leadin-linr"  />
            <Keyframe id="7997"  time="126/1" value="0" leadInLength="2/1"  interpolater="leadin-linr"  />
            <Keyframe id="7998"  time="130/1" value="0" leadInLength="4/1"  interpolater="leadin-linr"  />
            </Keyframes>
           </InterpolatingParam>
           <InterpolatingParam id="7999" interp="linr"  >
            <Keyframes>
            <Keyframe id="8000"  time="-9999999/1" value="0" leadInLength="0/1"  />
            <Keyframe id="8001"  time="124/1" value="0" leadInLength="1/1"  interpolater="leadin-linr"  />
            <Keyframe id="8002"  time="126/1" value="0" leadInLength="2/1"  interpolater="leadin-linr"  />
            <Keyframe id="8003"  time="130/1" value="0" leadInLength="4/1"  interpolater="leadin-linr"  />
            </Keyframes>
           </InterpolatingParam>
           <InterpolatingParam id="8004" interp="linr"  >
            <Keyframes>
            <Keyframe id="8005"  time="-9999999/1" value="0" leadInLength="0/1"  />
            <Keyframe id="8006"  time="124/1" value="0" leadInLength="1/1"  interpolater="leadin-linr"  />
            <Keyframe id="8007"  time="126/1" value="0" leadInLength="2/1"  interpolater="leadin-linr"  />
            <Keyframe id="8008"  time="130/1" value="0" leadInLength="4/1"  interpolater="leadin-linr"  />
            </Keyframes>
           </InterpolatingParam>
          </VectorParam>
          <VectorParam id="8009"  name="shear">
           <InterpolatingParam id="8010" interp="linr"  >
            <Keyframes>
            <Keyframe id="8011"  time="-9999999/1" value="0" leadInLength="0/1"  />
            <Keyframe id="8012"  time="124/1" value="0" leadInLength="1/1"  interpolater="leadin-linr"  />
            <Keyframe id="8013"  time="126/1" value="0" leadInLength="2/1"  interpolater="leadin-linr"  />
            <Keyframe id="8014"  time="130/1" value="0" leadInLength="4/1"  interpolater="leadin-linr"  />
            </Keyframes>
           </InterpolatingParam>
           <InterpolatingParam id="8015" interp="linr"  >
            <Keyframes>
            <Keyframe id="8016"  time="-9999999/1" value="0" leadInLength="0/1"  />
            <Keyframe id="8017"  time="124/1" value="0" leadInLength="1/1"  interpolater="leadin-linr"  />
            <Keyframe id="8018"  time="126/1" value="0" leadInLength="2/1"  interpolater="leadin-linr"  />
            <Keyframe id="8019"  time="130/1" value="0" leadInLength="4/1"  interpolater="leadin-linr"  />
            </Keyframes>
           </InterpolatingParam>
           <InterpolatingParam id="8020" interp="linr"  >
            <Keyframes>
            <Keyframe id="8021"  time="-9999999/1" value="0" leadInLength="0/1"  />
            <Keyframe id="8022"  time="124/1" value="0" leadInLength="1/1"  interpolater="leadin-linr"  />
            <Keyframe id="8023"  time="126/1" value="0" leadInLength="2/1"  interpolater="leadin-linr"  />
            <Keyframe id="8024"  time="130/1" value="0" leadInLength="4/1"  interpolater="leadin-linr"  />
            </Keyframes>
           </InterpolatingParam>
          </VectorParam>
          <VectorParam id="8025"  name="scale">
           <InterpolatingParam id="8026" interp="linr"  >
            <Keyframes>
            <Keyframe id="8027"  time="-9999999/1" value="0.4531249999982353" leadInLength="0/1"  />
            <Keyframe id="8028"  time="124/1" value="0.45312499999824063" leadInLength="1/1"  interpolater="leadin-linr"  />
            <Keyframe id="8029"  time="126/1" value="0.4531249999982353" leadInLength="2/1"  interpolater="leadin-linr"  />
            <Keyframe id="8030"  time="130/1" value="0.4531249999982353" leadInLength="4/1"  interpolater="leadin-linr"  />
            </Keyframes>
           </InterpolatingParam>
           <InterpolatingParam id="8031" interp="linr"  >
            <Keyframes>
            <Keyframe id="8032"  time="-9999999/1" value="0.3611111111111614" leadInLength="0/1"  />
            <Keyframe id="8033"  time="124/1" value="0.36111111111049482" leadInLength="1/1"  interpolater="leadin-linr"  />
            <Keyframe id="8034"  time="126/1" value="0.3611111111111614" leadInLength="2/1"  interpolater="leadin-linr"  />
            <Keyframe id="8035"  time="130/1" value="0.3611111111111614" leadInLength="4/1"  interpolater="leadin-linr"  />
            </Keyframes>
           </InterpolatingParam>
           <InterpolatingParam id="8036" interp="linr"  >
            <Keyframes>
            <Keyframe id="8037"  time="-9999999/1" value="1" leadInLength="0/1"  />
            <Keyframe id="8038"  time="124/1" value="1" leadInLength="1/1"  interpolater="leadin-linr"  />
            <Keyframe id="8039"  time="126/1" value="1" leadInLength="2/1"  interpolater="leadin-linr"  />
            <Keyframe id="8040"  time="130/1" value="1" leadInLength="4/1"  interpolater="leadin-linr"  />
            </Keyframes>
           </InterpolatingParam>
          </VectorParam>
          <VectorParam id="8041"  name="anchor">
           <InterpolatingParam id="8042" interp="linr"  time="0/1" value="0" leadInLength="0/1"  />
           <InterpolatingParam id="8043" interp="linr"  time="0/1" value="0" leadInLength="0/1"  />
           <InterpolatingParam id="8044" interp="linr"  time="0/1" value="0" leadInLength="0/1"  />
          </VectorParam>
         </Transformer>
         <Parameters>
          <VectorParam id="8045"  name="sourceCrop">
           <InterpolatingParam id="8046" interp="linr"  time="0/1" value="0" leadInLength="0/1"  />
           <InterpolatingParam id="8047" interp="linr"  time="0/1" value="0" leadInLength="0/1"  />
           <InterpolatingParam id="8048" interp="linr"  time="0/1" value="0" leadInLength="0/1"  />
           <InterpolatingParam id="8049" interp="linr"  time="0/1" value="0" leadInLength="0/1"  />
          </VectorParam>
          <VectorParam id="8050"  name="geometryCrop">
           <InterpolatingParam id="8051" interp="linr"  >
            <Keyframes>
            <Keyframe id="8052"  time="-9999999/1" value="0" leadInLength="0/1"  />
            <Keyframe id="8053"  time="124/1" value="0" leadInLength="1/1"  interpolater="leadin-linr"  />
            <Keyframe id="8054"  time="126/1" value="0" leadInLength="2/1"  interpolater="leadin-linr"  />
            <Keyframe id="8055"  time="130/1" value="0" leadInLength="4/1"  interpolater="leadin-linr"  />
            </Keyframes>
           </InterpolatingParam>
           <InterpolatingParam id="8056" interp="linr"  >
            <Keyframes>
            <Keyframe id="8057"  time="-9999999/1" value="0" leadInLength="0/1"  />
            <Keyframe id="8058"  time="124/1" value="0" leadInLength="1/1"  interpolater="leadin-linr"  />
            <Keyframe id="8059"  time="126/1" value="0" leadInLength="2/1"  interpolater="leadin-linr"  />
            <Keyframe id="8060"  time="130/1" value="0" leadInLength="4/1"  interpolater="leadin-linr"  />
            </Keyframes>
           </InterpolatingParam>
           <InterpolatingParam id="8061" interp="linr"  >
            <Keyframes>
            <Keyframe id="8062"  time="-9999999/1" value="0" leadInLength="0/1"  />
            <Keyframe id="8063"  time="124/1" value="0" leadInLength="1/1"  interpolater="leadin-linr"  />
            <Keyframe id="8064"  time="126/1" value="0" leadInLength="2/1"  interpolater="leadin-linr"  />
            <Keyframe id="8065"  time="130/1" value="0" leadInLength="4/1"  interpolater="leadin-linr"  />
            </Keyframes>
           </InterpolatingParam>
           <InterpolatingParam id="8066" interp="linr"  >
            <Keyframes>
            <Keyframe id="8067"  time="-9999999/1" value="0" leadInLength="0/1"  />
            <Keyframe id="8068"  time="124/1" value="0" leadInLength="1/1"  interpolater="leadin-linr"  />
            <Keyframe id="8069"  time="126/1" value="0" leadInLength="2/1"  interpolater="leadin-linr"  />
            <Keyframe id="8070"  time="130/1" value="0" leadInLength="4/1"  interpolater="leadin-linr"  />
            </Keyframes>
           </InterpolatingParam>
          </VectorParam>
          <InterpolatingParam id="8071" interp="linr"  name="opacity">
           <Keyframes>
           <Keyframe id="8072"  time="-9999999/1" value="1" leadInLength="0/1"  />
           <Keyframe id="8073"  time="124/1" value="1" leadInLength="1/1"  interpolater="leadin-linr"  />
           <Keyframe id="8074"  time="126/1" value="1" leadInLength="2/1"  interpolater="leadin-linr"  />
           <Keyframe id="8075"  time="130/1" value="1" leadInLength="4/1"  interpolater="leadin-linr"  />
           </Keyframes>
          </InterpolatingParam>
         </Parameters>
         <Effects>
          <GenericEffect id="8076" name = "DropShadow" >
           <Parameters>
           <InterpolatingParam id="8077" interp="linr"  time="0/1" value="315" leadInLength="0/1"   name="angle"/>
           <InterpolatingParam id="8078" interp="linr"  time="0/1" value="2" leadInLength="0/1"   name="blur"/>
           <Parameter id="8079"   name="enabled">
            <Keyframes>
            <Keyframe id="8080"  time="0/1" value="1" leadInLength="0/1"  />
            </Keyframes>
           </Parameter>
           <InterpolatingParam id="8081" interp="linr"  time="0/1" value="4" leadInLength="0/1"   name="offset"/>
           <InterpolatingParam id="8082" interp="linr"  time="0/1" value="1" leadInLength="0/1"   name="opacity"/>
           </Parameters>
          </GenericEffect>
         </Effects>
         <Attributes>
          <Attribute id="8083"  name="vectorNode">
           <VectorNode id="8084" kind="TypeWinSVG"  >
            <DoubleParameters>
             <InterpolatingParam id="8085" interp="linr"  time="0/1" value="1" leadInLength="0/1"  name="DrawTime"/>
             <InterpolatingParam id="8086" interp="linr"  time="0/1" value="59" leadInLength="0/1"  name="borderColorBlue"/>
             <InterpolatingParam id="8087" interp="linr"  time="0/1" value="209" leadInLength="0/1"  name="borderColorGreen"/>
             <InterpolatingParam id="8088" interp="linr"  time="0/1" value="127" leadInLength="0/1"  name="borderColorRed"/>
             <InterpolatingParam id="8089" interp="linr"  time="0/1" value="5" leadInLength="0/1"  name="borderWidth"/>
             <InterpolatingParam id="8090" interp="linr"  time="0/1" value="0" leadInLength="0/1"  name="flipOnXAxis"/>
             <InterpolatingParam id="8091" interp="linr"  time="0/1" value="1" leadInLength="0/1"  name="flipOnYAxis"/>
             <InterpolatingParam id="8092" interp="linr"  time="0/1" value="180" leadInLength="0/1"  name="height"/>
             <InterpolatingParam id="8093" interp="linr"  time="0/1" value="320" leadInLength="0/1"  name="width"/>
            </DoubleParameters>
            <StringParameters>
             <Parameter id="8094"  name="filename">
              <Keyframes>
              <Keyframe id="8095"  time="0/1" value="C:\Program Files (x86)\TechSmith\Camtasia Studio 8\Media\Studio\Callouts\anim_drawnsquare.svg" leadInLength="0/1"  />
              </Keyframes>
             </Parameter>
             <Parameter id="8096"  name="name">
              <Keyframes>
              <Keyframe id="8097"  time="0/1" value="Sketch Motion Rectangle" leadInLength="0/1"  />
              </Keyframes>
             </Parameter>
             <Parameter id="8098"  name="xmlContent">
              <Keyframes>
              <Keyframe id="8099"  time="0/1" value="﻿&lt;?xml version=&quot;1.0&quot; encoding=&quot;utf-8&quot;?&gt;&#xa;&lt;!-- Generator: Adobe Illustrator 13.0.2, SVG Export Plug-In . SVG Version: 6.00 Build 14948)  --&gt;&#xa;&lt;!DOCTYPE svg PUBLIC &quot;-//W3C//DTD SVG 1.1//EN&quot; &quot;http://www.w3.org/Graphics/SVG/1.1/DTD/svg11.dtd&quot;&gt;&#xa;&lt;svg version=&quot;1.1&quot; id=&quot;Layer_1&quot; xmlns=&quot;http://www.w3.org/2000/svg&quot; xmlns:xlink=&quot;http://www.w3.org/1999/xlink&quot; x=&quot;0px&quot; y=&quot;0px&quot;&#xa;&#x9; width=&quot;296.633px&quot; height=&quot;227.883px&quot; viewBox=&quot;0 0 296.633 227.883&quot; enable-background=&quot;new 0 0 296.633 227.883&quot;&#xa;&#x9; xml:space=&quot;preserve&quot;&gt;&#xa;&lt;path fill=&quot;none&quot; d=&quot;M2.662,1.793c8.266,53.25,2.802,171.963,5.305,226.067&quot;/&gt;&#xa;&lt;path fill=&quot;none&quot; d=&quot;M1.031,222.146c67.199-9.078,213.034,6.17,279.931-5.306&quot;/&gt;&#xa;&lt;path fill=&quot;none&quot; d=&quot;M290.581,0.007c-0.5,33.125-2.356,191.708-11.658,223.363&quot;/&gt;&#xa;&lt;path fill=&quot;none&quot; d=&quot;M0.07,10.703C127.409-7.206,237.174,4.794,296.602,8.604&quot;/&gt;&#xa;&lt;/svg&gt;&#xa;" leadInLength="0/1"  />
              </Keyframes>
             </Parameter>
            </StringParameters>
           </VectorNode>
          </Attribute>
         </Attributes>
         <MetaData>
          <entry key="WinSubProjectDisplayName" val=""/>
         </MetaData>
         <LeftEdgeMods length="3/1" groupName="DrawPercentageFade">
          <EdgeMod parameter="8085">
           <FadeInFunc id="8100"  />
          </EdgeMod>
         </LeftEdgeMods>
         <RightEdgeMods length="3/1" groupName="OpacityFade">
          <EdgeMod parameter="8071">
           <FadeOutFunc id="6802"  />
          </EdgeMod>
         </RightEdgeMods>
         <ExtraData>
          <Entry key="ZoomPanBin">
           <ZoomPanBin id="8101"  >
            <ZoomPanKeyframes>
             <ZoomPanKeyframe id="8102" timeRangeEnd="-9999999/1" timeRangeDuration="0/1" interpolaterName="linr"  />
             <ZoomPanKeyframe id="8103" timeRangeEnd="124/1" timeRangeDuration="1/1" interpolaterName="linr"  />
             <ZoomPanKeyframe id="8104" timeRangeEnd="126/1" timeRangeDuration="2/1" interpolaterName="linr"  />
             <ZoomPanKeyframe id="8105" timeRangeEnd="130/1" timeRangeDuration="4/1" interpolaterName="linr"  />
            </ZoomPanKeyframes>
           </ZoomPanBin>
          </Entry>
         </ExtraData>
        </Callout>
       </Medias>
      </GenericTrack>
      <GenericTrack id="8106"  >
       <Attributes>
        <Attribute id="8107" value="" name="ident"/>
        <Attribute id="8108" value="0" name="audioMuted"/>
        <Attribute id="8109" value="0" name="videoHidden"/>
       </Attributes>
       <MetaData>
        <entry key="IsLocked" val="False"/>
        <entry key="WinTrackHeight" val="62"/>
       </MetaData>
       <Medias>
       </Medias>
      </GenericTrack>
     </Tracks>
    </GenericMixer>
   <CaptionAttributes id="8110"  >
    <Attribute id="8111" value="1" name="captionsEnabled"/>
    <Attribute id="8112" value="Arial" name="captionsFontName"/>
    <Attribute id="8113" value="28" name="captionsFontSize"/>
    <Attribute id="8114" value="(0,0,0,255)" name="captionsBackgroundColor"/>
    <Attribute id="8115" value="(255,255,255,255)" name="captionsForegroundColor"/>
    <Attribute id="8116" value="en" name="lang"/>
    <Attribute id="8117" value="0" name="captionsAlignment"/>
    <Attribute id="8118" value="1" name="captionsDefaultFontSize"/>
    <Attribute id="8119" value="0.5" name="captionsOpacity"/>
    <Attribute id="8120" value="1" name="captionsBackgroundEnabled"/>
    <Attribute id="8121" value="1" name="captionsBackgroundOnlyAroundText"/>
   </CaptionAttributes>
   <Parameters>
    <VectorParam id="8122"  name="eyePosition">
     <InterpolatingParam id="8123" interp="linr"  time="0/1" value="0" leadInLength="0/1"  />
     <InterpolatingParam id="8124" interp="linr"  time="0/1" value="0" leadInLength="0/1"  />
     <InterpolatingParam id="8125" interp="linr"  time="0/1" value="3000" leadInLength="0/1"  />
    </VectorParam>
    <VectorParam id="8126"  name="eyeLookAtPosition">
     <InterpolatingParam id="8127" interp="linr"  time="0/1" value="0" leadInLength="0/1"  />
     <InterpolatingParam id="8128" interp="linr"  time="0/1" value="0" leadInLength="0/1"  />
     <InterpolatingParam id="8129" interp="linr"  time="0/1" value="0" leadInLength="0/1"  />
    </VectorParam>
    <VectorParam id="8130"  name="eyeUpVector">
     <InterpolatingParam id="8131" interp="linr"  time="0/1" value="0" leadInLength="0/1"  />
     <InterpolatingParam id="8132" interp="linr"  time="0/1" value="1" leadInLength="0/1"  />
     <InterpolatingParam id="8133" interp="linr"  time="0/1" value="0" leadInLength="0/1"  />
    </VectorParam>
    <InterpolatingParam id="8134" interp="linr"  time="0/1" value="0.23885785" leadInLength="0/1"  name="fov"/>
    <InterpolatingParam id="8135" interp="linr"  time="0/1" value="1.5" leadInLength="0/1"  name="nearClipDistance"/>
    <InterpolatingParam id="8136" interp="linr"  time="0/1" value="6000" leadInLength="0/1"  name="farClipDistance"/>
   </Parameters>
  </Timeline>
 </Project>
</GoProject>
</CSMLData>

</Project_Data>
