<?xml version="1.0"?>
<Project_Data Version="8.00">
<Project_Settings>
<ProfileName>MP4 with Smart Player (up to 1080p)</ProfileName>
<ProjectWidth>1280</ProjectWidth>
<ProjectHeight>720</ProjectHeight>
<IsCustomProject>1</IsCustomProject>
<SavedProjectSettings>1</SavedProjectSettings>
<LastFlashTemplate>-1</LastFlashTemplate>
</Project_Settings>


<AutoSaveFile>C:\Users\auto1\AppData\Local\TechSmith\Camtasia Studio\8.0\Auto-Saves\Untitled4774ccd9.autosave.camproj</AutoSaveFile>

<ProjectID>0A9434B6-7B76-44AB-8EB9-FA55AC88F745</ProjectID>

<PowerPointProject>0</PowerPointProject>

<PowerPointFilename></PowerPointFilename>


<Project_Notes>
</Project_Notes>

<Project_MetaData>
<Project_MetaData_Object>
<FieldArrayKey>8</FieldArrayKey>
<Value>Bobby Demo</Value>
</Project_MetaData_Object>
<Project_MetaData_Object>
<FieldArrayKey>13</FieldArrayKey>
<Value>2024-08-12 09:53:37 PM</Value>
</Project_MetaData_Object>
<Project_MetaData_Object>
<FieldArrayKey>16</FieldArrayKey>
<Value>ENU</Value>
</Project_MetaData_Object>
</Project_MetaData>

<CSMLData>
<GoProject id="1" version="3.0" >
 <Project id="2" editRate="30/1" version="3.0" >
  <Author></Author>
  <Comment></Comment>
  <System></System>
  <SourceBin id="3"  >
    <Source id="4" src="C:\syntax-free-research\CloudyDemo\Videos\Syntax-Locked vs Syntax-Free_ Script - Airtable - Google Chrome - 12 August 2024.mp4" lastMod="20240813T025938" rect="(0,0,1920,1080)" >
      <SourceTrack range="(0,3104666667)" type="0" editRate="10000000/1" trackRect="(0,0,1920,1080)" sampleRate="10000000/333371" bitDepth="24" numChannels="0" filename="" metaData="" />
      <SourceTrack range="(0,3104666667)" type="2" editRate="10000000/1" trackRect="(0,0,0,0)" sampleRate="44100/1" bitDepth="16" numChannels="1" filename="" metaData="" />
    </Source>
    <Source id="5" src="C:\syntax-free-research\CloudyDemo\Marshmallow Madness\7-vw-bus.png" lastMod="20240813T211331" rect="(0,0,1024,1024)" >
      <SourceTrack range="(0,1)" type="1" editRate="10000000/1" trackRect="(0,0,1024,1024)" sampleRate="0/1" bitDepth="32" numChannels="0" filename="" metaData="" />
    </Source>
    <Source id="6" src="C:\syntax-free-research\CloudyDemo\Marshmallow Madness\3-Crispy.png" lastMod="20240813T211933" rect="(0,0,1024,1024)" >
      <SourceTrack range="(0,1)" type="1" editRate="10000000/1" trackRect="(0,0,1024,1024)" sampleRate="0/1" bitDepth="32" numChannels="0" filename="" metaData="" />
    </Source>
    <Source id="7" src="C:\syntax-free-research\CloudyDemo\Videos\Full Script v2 (mp3cut.net).m4a" lastMod="20240814T164129" rect="(0,0,0,0)" >
      <SourceTrack range="(0,6865666667)" type="2" editRate="10000000/1" trackRect="(0,0,0,0)" sampleRate="48000/1" bitDepth="16" numChannels="2" filename="" metaData="" />
    </Source>
    <Source id="8" src="C:\syntax-free-research\CloudyDemo\bobby-demo-study-results.png" lastMod="20240813T225751" rect="(0,0,2102,1100)" >
      <SourceTrack range="(0,1)" type="1" editRate="10000000/1" trackRect="(0,0,2102,1100)" sampleRate="0/1" bitDepth="32" numChannels="0" filename="" metaData="" />
    </Source>
    <Source id="9" src="C:\syntax-free-research\CloudyDemo\Videos\Bobby crispy take2 audio (mp3cut.net).m4a" lastMod="20240824T155607" rect="(0,0,0,0)" >
      <SourceTrack range="(0,3181333333)" type="2" editRate="10000000/1" trackRect="(0,0,0,0)" sampleRate="44100/1" bitDepth="16" numChannels="1" filename="" metaData="" />
    </Source>
    <Source id="10" src="C:\syntax-free-research\CloudyDemo\Videos\Final reveal audio 3 (mp3cut.net).m4a" lastMod="20240824T184951" rect="(0,0,0,0)" >
      <SourceTrack range="(0,790333333)" type="2" editRate="10000000/1" trackRect="(0,0,0,0)" sampleRate="48000/1" bitDepth="16" numChannels="1" filename="" metaData="" />
    </Source>
    <Source id="11" src="C:\syntax-free-research\CloudyDemo\Videos\Full script v3 take 1 (mp3cut.net).m4a" lastMod="20240824T230905" rect="(0,0,0,0)" >
      <SourceTrack range="(0,3433000000)" type="2" editRate="10000000/1" trackRect="(0,0,0,0)" sampleRate="48000/1" bitDepth="16" numChannels="1" filename="" metaData="" />
    </Source>
    <Source id="12" src="C:\syntax-free-research\CloudyDemo\Marshmallow Madness\2-Charlie.png" lastMod="20240824T215352" rect="(0,0,1024,1024)" >
      <SourceTrack range="(0,1)" type="1" editRate="10000000/1" trackRect="(0,0,1024,1024)" sampleRate="0/1" bitDepth="32" numChannels="0" filename="" metaData="" />
    </Source>
    <Source id="13" src="C:\syntax-free-research\CloudyDemo\Marshmallow Madness\4-Charlie.png" lastMod="20240824T215352" rect="(0,0,1024,1024)" >
      <SourceTrack range="(0,1)" type="1" editRate="10000000/1" trackRect="(0,0,1024,1024)" sampleRate="0/1" bitDepth="32" numChannels="0" filename="" metaData="" />
    </Source>
    <Source id="14" src="C:\syntax-free-research\CloudyDemo\Marshmallow Madness\5-Crispy.png" lastMod="20240824T222143" rect="(0,0,1024,1024)" >
      <SourceTrack range="(0,1)" type="1" editRate="10000000/1" trackRect="(0,0,1024,1024)" sampleRate="0/1" bitDepth="32" numChannels="0" filename="" metaData="" />
    </Source>
    <Source id="15" src="C:\syntax-free-research\CloudyDemo\Videos\Full script v3 take 2 (mp3cut.net).m4a" lastMod="20240825T150130" rect="(0,0,0,0)" >
      <SourceTrack range="(0,3999666667)" type="2" editRate="10000000/1" trackRect="(0,0,0,0)" sampleRate="48000/1" bitDepth="16" numChannels="1" filename="" metaData="" />
    </Source>
    <Source id="16" src="C:\syntax-free-research\CloudyDemo\ReRecorded-Trimmed-In-Loom\01. - English prompt - Clean - no responses.mp4" lastMod="20240825T190421" rect="(0,0,1920,1080)" >
      <SourceTrack range="(0,423333333)" type="0" editRate="10000000/1" trackRect="(0,0,1920,1080)" sampleRate="5000000/166753" bitDepth="24" numChannels="0" filename="" metaData="" />
      <SourceTrack range="(0,423333333)" type="2" editRate="10000000/1" trackRect="(0,0,0,0)" sampleRate="44100/1" bitDepth="16" numChannels="1" filename="" metaData="" />
    </Source>
    <Source id="17" src="C:\syntax-free-research\CloudyDemo\ReRecorded-Trimmed-In-Loom\02. English Response.mp4" lastMod="20240825T190445" rect="(0,0,1920,1080)" >
      <SourceTrack range="(0,71333333)" type="0" editRate="10000000/1" trackRect="(0,0,1920,1080)" sampleRate="10000000/335071" bitDepth="24" numChannels="0" filename="" metaData="" />
      <SourceTrack range="(0,71333333)" type="2" editRate="10000000/1" trackRect="(0,0,0,0)" sampleRate="44100/1" bitDepth="16" numChannels="1" filename="" metaData="" />
    </Source>
    <Source id="18" src="C:\syntax-free-research\CloudyDemo\ReRecorded-Trimmed-In-Loom\03. Finding all the Charlies + Charlie as actually... (cut off).mp4" lastMod="20240825T190453" rect="(0,0,1920,1080)" >
      <SourceTrack range="(0,219666667)" type="0" editRate="10000000/1" trackRect="(0,0,1920,1080)" sampleRate="5000000/166831" bitDepth="24" numChannels="0" filename="" metaData="" />
      <SourceTrack range="(0,219666667)" type="2" editRate="10000000/1" trackRect="(0,0,0,0)" sampleRate="44100/1" bitDepth="16" numChannels="1" filename="" metaData="" />
    </Source>
    <Source id="19" src="C:\syntax-free-research\CloudyDemo\ReRecorded-Trimmed-In-Loom\04. Charlie is crispy Prompt and response - english.mp4" lastMod="20240825T190501" rect="(0,0,1920,1080)" >
      <SourceTrack range="(0,256666667)" type="0" editRate="10000000/1" trackRect="(0,0,1920,1080)" sampleRate="10000000/333433" bitDepth="24" numChannels="0" filename="" metaData="" />
      <SourceTrack range="(0,256666667)" type="2" editRate="10000000/1" trackRect="(0,0,0,0)" sampleRate="44100/1" bitDepth="16" numChannels="1" filename="" metaData="" />
    </Source>
    <Source id="20" src="C:\syntax-free-research\CloudyDemo\ReRecorded-Trimmed-In-Loom\5-6. No - hes still puffy, his NAME is now Crispy.mp4" lastMod="20240825T190513" rect="(0,0,1920,1080)" >
      <SourceTrack range="(0,408333333)" type="0" editRate="10000000/1" trackRect="(0,0,1920,1080)" sampleRate="10000000/333513" bitDepth="24" numChannels="0" filename="" metaData="" />
      <SourceTrack range="(0,408333333)" type="2" editRate="10000000/1" trackRect="(0,0,0,0)" sampleRate="44100/1" bitDepth="16" numChannels="1" filename="" metaData="" />
    </Source>
    <Source id="21" src="C:\syntax-free-research\CloudyDemo\ReRecorded-Trimmed-In-Loom\07. 2 full pages of text.mp4" lastMod="20240825T190519" rect="(0,0,1920,1080)" >
      <SourceTrack range="(0,169333333)" type="0" editRate="10000000/1" trackRect="(0,0,1920,1080)" sampleRate="5000000/169559" bitDepth="24" numChannels="0" filename="" metaData="" />
      <SourceTrack range="(0,169333333)" type="2" editRate="10000000/1" trackRect="(0,0,0,0)" sampleRate="48000/1" bitDepth="16" numChannels="1" filename="" metaData="" />
    </Source>
    <Source id="22" src="C:\syntax-free-research\CloudyDemo\ReRecorded-Trimmed-In-Loom\08. Not a description - JSON response.mp4" lastMod="20240825T190525" rect="(0,0,1920,1080)" >
      <SourceTrack range="(0,823333333)" type="0" editRate="10000000/1" trackRect="(0,0,1920,1080)" sampleRate="10000000/337283" bitDepth="24" numChannels="0" filename="" metaData="" />
      <SourceTrack range="(0,823333333)" type="2" editRate="10000000/1" trackRect="(0,0,0,0)" sampleRate="48000/1" bitDepth="16" numChannels="1" filename="" metaData="" />
    </Source>
    <Source id="23" src="C:\syntax-free-research\CloudyDemo\ReRecorded-Trimmed-In-Loom\09. CHarlie is crispy - JSON .mp4" lastMod="20240825T190532" rect="(0,0,1920,1080)" >
      <SourceTrack range="(0,373000000)" type="0" editRate="10000000/1" trackRect="(0,0,1920,1080)" sampleRate="5000000/168201" bitDepth="24" numChannels="0" filename="" metaData="" />
      <SourceTrack range="(0,373000000)" type="2" editRate="10000000/1" trackRect="(0,0,0,0)" sampleRate="48000/1" bitDepth="16" numChannels="1" filename="" metaData="" />
    </Source>
    <Source id="24" src="C:\syntax-free-research\CloudyDemo\ReRecorded-Trimmed-In-Loom\10. JSON mistake.mp4" lastMod="20240825T190541" rect="(0,0,1920,1080)" >
      <SourceTrack range="(0,663000000)" type="0" editRate="10000000/1" trackRect="(0,0,1920,1080)" sampleRate="1250000/42221" bitDepth="24" numChannels="0" filename="" metaData="" />
      <SourceTrack range="(0,663000000)" type="2" editRate="10000000/1" trackRect="(0,0,0,0)" sampleRate="48000/1" bitDepth="16" numChannels="1" filename="" metaData="" />
    </Source>
    <Source id="25" src="C:\syntax-free-research\CloudyDemo\ReRecorded-Trimmed-In-Loom\11. This is the game.  Ready to describe..mp4" lastMod="20240825T190548" rect="(0,0,1920,1080)" >
      <SourceTrack range="(0,569000000)" type="0" editRate="10000000/1" trackRect="(0,0,1920,1080)" sampleRate="1250000/41683" bitDepth="24" numChannels="0" filename="" metaData="" />
      <SourceTrack range="(0,569000000)" type="2" editRate="10000000/1" trackRect="(0,0,0,0)" sampleRate="44100/1" bitDepth="16" numChannels="1" filename="" metaData="" />
    </Source>
    <Source id="26" src="C:\syntax-free-research\CloudyDemo\ReRecorded-Trimmed-In-Loom\12. Punchline.mp4" lastMod="20240825T190554" rect="(0,0,1920,1080)" >
      <SourceTrack range="(0,984000000)" type="0" editRate="10000000/1" trackRect="(0,0,1920,1080)" sampleRate="10000000/333373" bitDepth="24" numChannels="0" filename="" metaData="" />
      <SourceTrack range="(0,984000000)" type="2" editRate="10000000/1" trackRect="(0,0,0,0)" sampleRate="44100/1" bitDepth="16" numChannels="1" filename="" metaData="" />
    </Source>
    <Source id="27" src="C:\syntax-free-research\CloudyDemo\ReRecorded-Trimmed-In-Loom\13. Highlighting camp before correction.mp4" lastMod="20240825T190603" rect="(0,0,1920,1080)" >
      <SourceTrack range="(0,396000000)" type="0" editRate="10000000/1" trackRect="(0,0,1920,1080)" sampleRate="2500000/86853" bitDepth="24" numChannels="0" filename="" metaData="" />
      <SourceTrack range="(0,396000000)" type="2" editRate="10000000/1" trackRect="(0,0,0,0)" sampleRate="48000/1" bitDepth="16" numChannels="1" filename="" metaData="" />
    </Source>
    <Source id="28" src="C:\syntax-free-research\CloudyDemo\Videos\Full script v4.m4a" lastMod="20240826T141435" rect="(0,0,0,0)" >
      <SourceTrack range="(0,4821666667)" type="2" editRate="10000000/1" trackRect="(0,0,0,0)" sampleRate="48000/1" bitDepth="16" numChannels="1" filename="" metaData="" />
    </Source>
    <Source id="29" src="C:\syntax-free-research\CloudyDemo\Videos\Full script v4 (mp3cut.net).m4a" lastMod="20240826T142042" rect="(0,0,0,0)" >
      <SourceTrack range="(0,4548666667)" type="2" editRate="10000000/1" trackRect="(0,0,0,0)" sampleRate="48000/1" bitDepth="16" numChannels="1" filename="" metaData="" />
    </Source>
  </SourceBin>
  <Timeline id="30"  >
   <Attributes>
    <Attribute id="31" value="1280" name="width"/>
    <Attribute id="32" value="720" name="height"/>
    <Attribute id="33" value="(0,0,0,255)" name="backgroundColor"/>
   </Attributes>
    <GenericMixer id="34"  name="Unified Mixer">
     <MetaData>
      <entry key="MixerType" val="TimelineMixer"/>
     </MetaData>
     <Tracks>
      <GenericTrack id="35"  >
       <Attributes>
        <Attribute id="36" value="Video" name="ident"/>
        <Attribute id="37" value="0" name="audioMuted"/>
        <Attribute id="38" value="0" name="videoHidden"/>
       </Attributes>
       <MetaData>
        <entry key="IsLocked" val="False"/>
        <entry key="WinTrackHeight" val="62"/>
       </MetaData>
       <Medias>
        <VMFile id="39" start="0" duration="345" scalar="1/1" mediaStart="0/1" mediaDuration="345/1" trackNumber="0" src="4" >
         <Transformer>
          <VectorParam id="40"  name="translation">
           <InterpolatingParam id="41" interp="linr"  time="-9999999/1" value="1.1482370609883218e-010" leadInLength="0/1"  interpolater="leadin-linr"  />
           <InterpolatingParam id="42" interp="linr"  time="-9999999/1" value="6.1315101144524916e-011" leadInLength="0/1"  interpolater="leadin-linr"  />
           <InterpolatingParam id="43" interp="linr"  time="-9999999/1" value="0" leadInLength="0/1"  interpolater="leadin-linr"  />
          </VectorParam>
          <VectorParam id="44"  name="rotation">
           <InterpolatingParam id="45" interp="linr"  time="-9999999/1" value="0" leadInLength="0/1"  interpolater="leadin-linr"  />
           <InterpolatingParam id="46" interp="linr"  time="-9999999/1" value="0" leadInLength="0/1"  interpolater="leadin-linr"  />
           <InterpolatingParam id="47" interp="linr"  time="-9999999/1" value="0" leadInLength="0/1"  interpolater="leadin-linr"  />
          </VectorParam>
          <VectorParam id="48"  name="shear">
           <InterpolatingParam id="49" interp="linr"  time="-9999999/1" value="0" leadInLength="0/1"  interpolater="leadin-linr"  />
           <InterpolatingParam id="50" interp="linr"  time="-9999999/1" value="0" leadInLength="0/1"  interpolater="leadin-linr"  />
           <InterpolatingParam id="51" interp="linr"  time="-9999999/1" value="0" leadInLength="0/1"  interpolater="leadin-linr"  />
          </VectorParam>
          <VectorParam id="52"  name="scale">
           <InterpolatingParam id="53" interp="linr"  time="-9999999/1" value="0.66666666666666663" leadInLength="0/1"  interpolater="leadin-linr"  />
           <InterpolatingParam id="54" interp="linr"  time="-9999999/1" value="0.66666666666666663" leadInLength="0/1"  interpolater="leadin-linr"  />
           <InterpolatingParam id="55" interp="linr"  time="-9999999/1" value="1" leadInLength="0/1"  interpolater="leadin-linr"  />
          </VectorParam>
          <VectorParam id="56"  name="anchor">
           <InterpolatingParam id="57" interp="linr"  time="0/1" value="0" leadInLength="0/1"  />
           <InterpolatingParam id="58" interp="linr"  time="0/1" value="0" leadInLength="0/1"  />
           <InterpolatingParam id="59" interp="linr"  time="0/1" value="0" leadInLength="0/1"  />
          </VectorParam>
         </Transformer>
         <Parameters>
          <VectorParam id="60"  name="sourceCrop">
           <InterpolatingParam id="61" interp="linr"  time="0/1" value="0" leadInLength="0/1"  />
           <InterpolatingParam id="62" interp="linr"  time="0/1" value="0" leadInLength="0/1"  />
           <InterpolatingParam id="63" interp="linr"  time="0/1" value="0" leadInLength="0/1"  />
           <InterpolatingParam id="64" interp="linr"  time="0/1" value="0" leadInLength="0/1"  />
          </VectorParam>
          <VectorParam id="65"  name="geometryCrop">
           <InterpolatingParam id="66" interp="linr"  time="-9999999/1" value="0" leadInLength="0/1"  interpolater="leadin-linr"  />
           <InterpolatingParam id="67" interp="linr"  time="-9999999/1" value="0" leadInLength="0/1"  interpolater="leadin-linr"  />
           <InterpolatingParam id="68" interp="linr"  time="-9999999/1" value="0" leadInLength="0/1"  interpolater="leadin-linr"  />
           <InterpolatingParam id="69" interp="linr"  time="-9999999/1" value="0" leadInLength="0/1"  interpolater="leadin-linr"  />
          </VectorParam>
          <InterpolatingParam id="70" interp="linr"  time="-9999999/1" value="1" leadInLength="0/1"  interpolater="leadin-linr"  name="opacity"/>
         </Parameters>
         <Attributes>
          <Attribute id="71" value="" name="ident"/>
         </Attributes>
         <MetaData>
          <entry key="WinSubProjectDisplayName" val=""/>
         </MetaData>
         <ExtraData>
          <Entry key="ZoomPanBin">
           <ZoomPanBin id="72"  >
            <ZoomPanKeyframes>
             <ZoomPanKeyframe id="73" timeRangeEnd="-9999999/1" timeRangeDuration="0/1" interpolaterName="leadin-linr"  />
            </ZoomPanKeyframes>
           </ZoomPanBin>
          </Entry>
         </ExtraData>
        </VMFile>
        <VMFile id="74" start="345" duration="200" scalar="1/1" mediaStart="328/1" mediaDuration="200/1" trackNumber="0" src="4" >
         <Transformer>
          <VectorParam id="75"  name="translation">
           <InterpolatingParam id="76" interp="linr"  time="-9999999/1" value="1.1482370609883218e-010" leadInLength="0/1"  interpolater="leadin-linr"  />
           <InterpolatingParam id="77" interp="linr"  time="-9999999/1" value="6.1315101144524916e-011" leadInLength="0/1"  interpolater="leadin-linr"  />
           <InterpolatingParam id="78" interp="linr"  time="-9999999/1" value="0" leadInLength="0/1"  interpolater="leadin-linr"  />
          </VectorParam>
          <VectorParam id="79"  name="rotation">
           <InterpolatingParam id="80" interp="linr"  time="-9999999/1" value="0" leadInLength="0/1"  interpolater="leadin-linr"  />
           <InterpolatingParam id="81" interp="linr"  time="-9999999/1" value="0" leadInLength="0/1"  interpolater="leadin-linr"  />
           <InterpolatingParam id="82" interp="linr"  time="-9999999/1" value="0" leadInLength="0/1"  interpolater="leadin-linr"  />
          </VectorParam>
          <VectorParam id="83"  name="shear">
           <InterpolatingParam id="84" interp="linr"  time="-9999999/1" value="0" leadInLength="0/1"  interpolater="leadin-linr"  />
           <InterpolatingParam id="85" interp="linr"  time="-9999999/1" value="0" leadInLength="0/1"  interpolater="leadin-linr"  />
           <InterpolatingParam id="86" interp="linr"  time="-9999999/1" value="0" leadInLength="0/1"  interpolater="leadin-linr"  />
          </VectorParam>
          <VectorParam id="87"  name="scale">
           <InterpolatingParam id="88" interp="linr"  time="-9999999/1" value="0.66666666666666663" leadInLength="0/1"  interpolater="leadin-linr"  />
           <InterpolatingParam id="89" interp="linr"  time="-9999999/1" value="0.66666666666666663" leadInLength="0/1"  interpolater="leadin-linr"  />
           <InterpolatingParam id="90" interp="linr"  time="-9999999/1" value="1" leadInLength="0/1"  interpolater="leadin-linr"  />
          </VectorParam>
          <VectorParam id="91"  name="anchor">
           <InterpolatingParam id="92" interp="linr"  time="0/1" value="0" leadInLength="0/1"  />
           <InterpolatingParam id="93" interp="linr"  time="0/1" value="0" leadInLength="0/1"  />
           <InterpolatingParam id="94" interp="linr"  time="0/1" value="0" leadInLength="0/1"  />
          </VectorParam>
         </Transformer>
         <Parameters>
          <VectorParam id="95"  name="sourceCrop">
           <InterpolatingParam id="96" interp="linr"  time="0/1" value="0" leadInLength="0/1"  />
           <InterpolatingParam id="97" interp="linr"  time="0/1" value="0" leadInLength="0/1"  />
           <InterpolatingParam id="98" interp="linr"  time="0/1" value="0" leadInLength="0/1"  />
           <InterpolatingParam id="99" interp="linr"  time="0/1" value="0" leadInLength="0/1"  />
          </VectorParam>
          <VectorParam id="100"  name="geometryCrop">
           <InterpolatingParam id="101" interp="linr"  time="-9999999/1" value="0" leadInLength="0/1"  interpolater="leadin-linr"  />
           <InterpolatingParam id="102" interp="linr"  time="-9999999/1" value="0" leadInLength="0/1"  interpolater="leadin-linr"  />
           <InterpolatingParam id="103" interp="linr"  time="-9999999/1" value="0" leadInLength="0/1"  interpolater="leadin-linr"  />
           <InterpolatingParam id="104" interp="linr"  time="-9999999/1" value="0" leadInLength="0/1"  interpolater="leadin-linr"  />
          </VectorParam>
          <InterpolatingParam id="105" interp="linr"  time="-9999999/1" value="1" leadInLength="0/1"  interpolater="leadin-linr"  name="opacity"/>
         </Parameters>
         <Attributes>
          <Attribute id="106" value="" name="ident"/>
         </Attributes>
         <MetaData>
          <entry key="WinSubProjectDisplayName" val=""/>
         </MetaData>
         <ExtraData>
          <Entry key="ZoomPanBin">
           <ZoomPanBin id="107"  >
            <ZoomPanKeyframes>
             <ZoomPanKeyframe id="108" timeRangeEnd="-9999999/1" timeRangeDuration="0/1" interpolaterName="leadin-linr"  />
            </ZoomPanKeyframes>
           </ZoomPanBin>
          </Entry>
         </ExtraData>
        </VMFile>
        <VMFile id="109" start="545" duration="47" scalar="860/791" mediaStart="770/1" mediaDuration="37177/860" trackNumber="0" src="4" >
         <Transformer>
          <VectorParam id="110"  name="translation">
           <InterpolatingParam id="111" interp="linr"  >
            <Keyframes>
            <Keyframe id="112"  time="-9999999/1" value="7.3669070843607187e-011" leadInLength="0/1"  interpolater="leadin-linr"  />
            <Keyframe id="113"  time="743673/860" value="100.49742857147456" leadInLength="11074/215"  interpolater="leadin-linr"  />
            <Keyframe id="114"  time="531223/430" value="-99.502571428509924" leadInLength="49833/860"  interpolater="leadin-linr"  />
            <Keyframe id="115"  time="1268897/860" value="7.3669070843607187e-011" leadInLength="84637/860"  interpolater="leadin-linr"  />
            </Keyframes>
           </InterpolatingParam>
           <InterpolatingParam id="116" interp="linr"  >
            <Keyframes>
            <Keyframe id="117"  time="-9999999/1" value="7.3972235744198159e-011" leadInLength="0/1"  interpolater="leadin-linr"  />
            <Keyframe id="118"  time="743673/860" value="-37.958375000196092" leadInLength="11074/215"  interpolater="leadin-linr"  />
            <Keyframe id="119"  time="531223/430" value="-35.101232143051995" leadInLength="49833/860"  interpolater="leadin-linr"  />
            <Keyframe id="120"  time="1268897/860" value="7.3972235744198159e-011" leadInLength="84637/860"  interpolater="leadin-linr"  />
            </Keyframes>
           </InterpolatingParam>
           <InterpolatingParam id="121" interp="linr"  >
            <Keyframes>
            <Keyframe id="122"  time="-9999999/1" value="0" leadInLength="0/1"  interpolater="leadin-linr"  />
            <Keyframe id="123"  time="743673/860" value="0" leadInLength="11074/215"  interpolater="leadin-linr"  />
            <Keyframe id="124"  time="531223/430" value="0" leadInLength="49833/860"  interpolater="leadin-linr"  />
            <Keyframe id="125"  time="1268897/860" value="0" leadInLength="84637/860"  interpolater="leadin-linr"  />
            </Keyframes>
           </InterpolatingParam>
          </VectorParam>
          <VectorParam id="126"  name="rotation">
           <InterpolatingParam id="127" interp="linr"  >
            <Keyframes>
            <Keyframe id="128"  time="-9999999/1" value="0" leadInLength="0/1"  interpolater="leadin-linr"  />
            <Keyframe id="129"  time="743673/860" value="0" leadInLength="11074/215"  interpolater="leadin-linr"  />
            <Keyframe id="130"  time="531223/430" value="0" leadInLength="49833/860"  interpolater="leadin-linr"  />
            <Keyframe id="131"  time="1268897/860" value="0" leadInLength="84637/860"  interpolater="leadin-linr"  />
            </Keyframes>
           </InterpolatingParam>
           <InterpolatingParam id="132" interp="linr"  >
            <Keyframes>
            <Keyframe id="133"  time="-9999999/1" value="0" leadInLength="0/1"  interpolater="leadin-linr"  />
            <Keyframe id="134"  time="743673/860" value="0" leadInLength="11074/215"  interpolater="leadin-linr"  />
            <Keyframe id="135"  time="531223/430" value="0" leadInLength="49833/860"  interpolater="leadin-linr"  />
            <Keyframe id="136"  time="1268897/860" value="0" leadInLength="84637/860"  interpolater="leadin-linr"  />
            </Keyframes>
           </InterpolatingParam>
           <InterpolatingParam id="137" interp="linr"  >
            <Keyframes>
            <Keyframe id="138"  time="-9999999/1" value="0" leadInLength="0/1"  interpolater="leadin-linr"  />
            <Keyframe id="139"  time="743673/860" value="0" leadInLength="11074/215"  interpolater="leadin-linr"  />
            <Keyframe id="140"  time="531223/430" value="0" leadInLength="49833/860"  interpolater="leadin-linr"  />
            <Keyframe id="141"  time="1268897/860" value="0" leadInLength="84637/860"  interpolater="leadin-linr"  />
            </Keyframes>
           </InterpolatingParam>
          </VectorParam>
          <VectorParam id="142"  name="shear">
           <InterpolatingParam id="143" interp="linr"  >
            <Keyframes>
            <Keyframe id="144"  time="-9999999/1" value="0" leadInLength="0/1"  interpolater="leadin-linr"  />
            <Keyframe id="145"  time="743673/860" value="0" leadInLength="11074/215"  interpolater="leadin-linr"  />
            <Keyframe id="146"  time="531223/430" value="0" leadInLength="49833/860"  interpolater="leadin-linr"  />
            <Keyframe id="147"  time="1268897/860" value="0" leadInLength="84637/860"  interpolater="leadin-linr"  />
            </Keyframes>
           </InterpolatingParam>
           <InterpolatingParam id="148" interp="linr"  >
            <Keyframes>
            <Keyframe id="149"  time="-9999999/1" value="0" leadInLength="0/1"  interpolater="leadin-linr"  />
            <Keyframe id="150"  time="743673/860" value="0" leadInLength="11074/215"  interpolater="leadin-linr"  />
            <Keyframe id="151"  time="531223/430" value="0" leadInLength="49833/860"  interpolater="leadin-linr"  />
            <Keyframe id="152"  time="1268897/860" value="0" leadInLength="84637/860"  interpolater="leadin-linr"  />
            </Keyframes>
           </InterpolatingParam>
           <InterpolatingParam id="153" interp="linr"  >
            <Keyframes>
            <Keyframe id="154"  time="-9999999/1" value="0" leadInLength="0/1"  interpolater="leadin-linr"  />
            <Keyframe id="155"  time="743673/860" value="0" leadInLength="11074/215"  interpolater="leadin-linr"  />
            <Keyframe id="156"  time="531223/430" value="0" leadInLength="49833/860"  interpolater="leadin-linr"  />
            <Keyframe id="157"  time="1268897/860" value="0" leadInLength="84637/860"  interpolater="leadin-linr"  />
            </Keyframes>
           </InterpolatingParam>
          </VectorParam>
          <VectorParam id="158"  name="scale">
           <InterpolatingParam id="159" interp="linr"  >
            <Keyframes>
            <Keyframe id="160"  time="-9999999/1" value="0.66666666666666663" leadInLength="0/1"  interpolater="leadin-linr"  />
            <Keyframe id="161"  time="743673/860" value="0.79516101190484045" leadInLength="11074/215"  interpolater="leadin-linr"  />
            <Keyframe id="162"  time="531223/430" value="0.79516101190484045" leadInLength="49833/860"  interpolater="leadin-linr"  />
            <Keyframe id="163"  time="1268897/860" value="0.66666666666666663" leadInLength="84637/860"  interpolater="leadin-linr"  />
            </Keyframes>
           </InterpolatingParam>
           <InterpolatingParam id="164" interp="linr"  >
            <Keyframes>
            <Keyframe id="165"  time="-9999999/1" value="0.66666666666666663" leadInLength="0/1"  interpolater="leadin-linr"  />
            <Keyframe id="166"  time="743673/860" value="0.79516101190484079" leadInLength="11074/215"  interpolater="leadin-linr"  />
            <Keyframe id="167"  time="531223/430" value="0.79516101190484079" leadInLength="49833/860"  interpolater="leadin-linr"  />
            <Keyframe id="168"  time="1268897/860" value="0.66666666666666663" leadInLength="84637/860"  interpolater="leadin-linr"  />
            </Keyframes>
           </InterpolatingParam>
           <InterpolatingParam id="169" interp="linr"  >
            <Keyframes>
            <Keyframe id="170"  time="-9999999/1" value="1" leadInLength="0/1"  interpolater="leadin-linr"  />
            <Keyframe id="171"  time="743673/860" value="1" leadInLength="11074/215"  interpolater="leadin-linr"  />
            <Keyframe id="172"  time="531223/430" value="1" leadInLength="49833/860"  interpolater="leadin-linr"  />
            <Keyframe id="173"  time="1268897/860" value="1" leadInLength="84637/860"  interpolater="leadin-linr"  />
            </Keyframes>
           </InterpolatingParam>
          </VectorParam>
          <VectorParam id="174"  name="anchor">
           <InterpolatingParam id="175" interp="linr"  time="0/1" value="0" leadInLength="0/1"  />
           <InterpolatingParam id="176" interp="linr"  time="0/1" value="0" leadInLength="0/1"  />
           <InterpolatingParam id="177" interp="linr"  time="0/1" value="0" leadInLength="0/1"  />
          </VectorParam>
         </Transformer>
         <Parameters>
          <VectorParam id="178"  name="sourceCrop">
           <InterpolatingParam id="179" interp="linr"  time="0/1" value="0" leadInLength="0/1"  />
           <InterpolatingParam id="180" interp="linr"  time="0/1" value="0" leadInLength="0/1"  />
           <InterpolatingParam id="181" interp="linr"  time="0/1" value="0" leadInLength="0/1"  />
           <InterpolatingParam id="182" interp="linr"  time="0/1" value="0" leadInLength="0/1"  />
          </VectorParam>
          <VectorParam id="183"  name="geometryCrop">
           <InterpolatingParam id="184" interp="linr"  >
            <Keyframes>
            <Keyframe id="185"  time="-9999999/1" value="0" leadInLength="0/1"  interpolater="leadin-linr"  />
            <Keyframe id="186"  time="743673/860" value="0" leadInLength="11074/215"  interpolater="leadin-linr"  />
            <Keyframe id="187"  time="531223/430" value="0" leadInLength="49833/860"  interpolater="leadin-linr"  />
            <Keyframe id="188"  time="1268897/860" value="0" leadInLength="84637/860"  interpolater="leadin-linr"  />
            </Keyframes>
           </InterpolatingParam>
           <InterpolatingParam id="189" interp="linr"  >
            <Keyframes>
            <Keyframe id="190"  time="-9999999/1" value="0" leadInLength="0/1"  interpolater="leadin-linr"  />
            <Keyframe id="191"  time="743673/860" value="0" leadInLength="11074/215"  interpolater="leadin-linr"  />
            <Keyframe id="192"  time="531223/430" value="0" leadInLength="49833/860"  interpolater="leadin-linr"  />
            <Keyframe id="193"  time="1268897/860" value="0" leadInLength="84637/860"  interpolater="leadin-linr"  />
            </Keyframes>
           </InterpolatingParam>
           <InterpolatingParam id="194" interp="linr"  >
            <Keyframes>
            <Keyframe id="195"  time="-9999999/1" value="0" leadInLength="0/1"  interpolater="leadin-linr"  />
            <Keyframe id="196"  time="743673/860" value="0" leadInLength="11074/215"  interpolater="leadin-linr"  />
            <Keyframe id="197"  time="531223/430" value="0" leadInLength="49833/860"  interpolater="leadin-linr"  />
            <Keyframe id="198"  time="1268897/860" value="0" leadInLength="84637/860"  interpolater="leadin-linr"  />
            </Keyframes>
           </InterpolatingParam>
           <InterpolatingParam id="199" interp="linr"  >
            <Keyframes>
            <Keyframe id="200"  time="-9999999/1" value="0" leadInLength="0/1"  interpolater="leadin-linr"  />
            <Keyframe id="201"  time="743673/860" value="0" leadInLength="11074/215"  interpolater="leadin-linr"  />
            <Keyframe id="202"  time="531223/430" value="0" leadInLength="49833/860"  interpolater="leadin-linr"  />
            <Keyframe id="203"  time="1268897/860" value="0" leadInLength="84637/860"  interpolater="leadin-linr"  />
            </Keyframes>
           </InterpolatingParam>
          </VectorParam>
          <InterpolatingParam id="204" interp="linr"  name="opacity">
           <Keyframes>
           <Keyframe id="205"  time="-9999999/1" value="1" leadInLength="0/1"  interpolater="leadin-linr"  />
           <Keyframe id="206"  time="743673/860" value="1" leadInLength="11074/215"  interpolater="leadin-linr"  />
           <Keyframe id="207"  time="531223/430" value="1" leadInLength="49833/860"  interpolater="leadin-linr"  />
           <Keyframe id="208"  time="1268897/860" value="1" leadInLength="84637/860"  interpolater="leadin-linr"  />
           </Keyframes>
          </InterpolatingParam>
         </Parameters>
         <Attributes>
          <Attribute id="209" value="" name="ident"/>
         </Attributes>
         <MetaData>
          <entry key="WinSubProjectDisplayName" val=""/>
         </MetaData>
         <ExtraData>
          <Entry key="ZoomPanBin">
           <ZoomPanBin id="210"  >
            <ZoomPanKeyframes>
             <ZoomPanKeyframe id="211" timeRangeEnd="-9999999/1" timeRangeDuration="0/1" interpolaterName="leadin-linr"  />
             <ZoomPanKeyframe id="212" timeRangeEnd="743673/860" timeRangeDuration="11074/215" interpolaterName="linr"  />
             <ZoomPanKeyframe id="213" timeRangeEnd="1268897/860" timeRangeDuration="84637/860" interpolaterName="linr"  />
             <ZoomPanKeyframe id="214" timeRangeEnd="531223/430" timeRangeDuration="49833/860" interpolaterName="linr"  />
            </ZoomPanKeyframes>
           </ZoomPanBin>
          </Entry>
         </ExtraData>
        </VMFile>
        <VMFile id="215" start="592" duration="435" scalar="93525/77518" mediaStart="137977/172" mediaDuration="77518/215" trackNumber="0" src="4" >
         <Transformer>
          <VectorParam id="216"  name="translation">
           <InterpolatingParam id="217" interp="linr"  >
            <Keyframes>
            <Keyframe id="218"  time="-9999999/1" value="7.3669070843607187e-011" leadInLength="0/1"  interpolater="leadin-linr"  />
            <Keyframe id="219"  time="304130911/374100" value="15.226883116952516" leadInLength="852698/93525"  interpolater="leadin-linr"  />
            <Keyframe id="220"  time="4311405/4988" value="100.49742857147456" leadInLength="4806116/93525"  interpolater="leadin-linr"  />
            <Keyframe id="221"  time="462267631/374100" value="-99.502571428509924" leadInLength="1085252/18705"  interpolater="leadin-linr"  />
            <Keyframe id="222"  time="19030291/12900" value="7.3669070843607187e-011" leadInLength="9147124/93525"  interpolater="leadin-linr"  />
            </Keyframes>
           </InterpolatingParam>
           <InterpolatingParam id="223" interp="linr"  >
            <Keyframes>
            <Keyframe id="224"  time="-9999999/1" value="7.3972235744198159e-011" leadInLength="0/1"  interpolater="leadin-linr"  />
            <Keyframe id="225"  time="304130911/374100" value="-5.751268939360858" leadInLength="852698/93525"  interpolater="leadin-linr"  />
            <Keyframe id="226"  time="4311405/4988" value="-37.958375000196092" leadInLength="4806116/93525"  interpolater="leadin-linr"  />
            <Keyframe id="227"  time="462267631/374100" value="-35.101232143051995" leadInLength="1085252/18705"  interpolater="leadin-linr"  />
            <Keyframe id="228"  time="19030291/12900" value="7.3972235744198159e-011" leadInLength="9147124/93525"  interpolater="leadin-linr"  />
            </Keyframes>
           </InterpolatingParam>
           <InterpolatingParam id="229" interp="linr"  >
            <Keyframes>
            <Keyframe id="230"  time="-9999999/1" value="0" leadInLength="0/1"  interpolater="leadin-linr"  />
            <Keyframe id="231"  time="304130911/374100" value="0" leadInLength="852698/93525"  interpolater="leadin-linr"  />
            <Keyframe id="232"  time="4311405/4988" value="0" leadInLength="4806116/93525"  interpolater="leadin-linr"  />
            <Keyframe id="233"  time="462267631/374100" value="0" leadInLength="1085252/18705"  interpolater="leadin-linr"  />
            <Keyframe id="234"  time="19030291/12900" value="0" leadInLength="9147124/93525"  interpolater="leadin-linr"  />
            </Keyframes>
           </InterpolatingParam>
          </VectorParam>
          <VectorParam id="235"  name="rotation">
           <InterpolatingParam id="236" interp="linr"  >
            <Keyframes>
            <Keyframe id="237"  time="-9999999/1" value="0" leadInLength="0/1"  interpolater="leadin-linr"  />
            <Keyframe id="238"  time="304130911/374100" value="0" leadInLength="852698/93525"  interpolater="leadin-linr"  />
            <Keyframe id="239"  time="4311405/4988" value="0" leadInLength="4806116/93525"  interpolater="leadin-linr"  />
            <Keyframe id="240"  time="462267631/374100" value="0" leadInLength="1085252/18705"  interpolater="leadin-linr"  />
            <Keyframe id="241"  time="19030291/12900" value="0" leadInLength="9147124/93525"  interpolater="leadin-linr"  />
            </Keyframes>
           </InterpolatingParam>
           <InterpolatingParam id="242" interp="linr"  >
            <Keyframes>
            <Keyframe id="243"  time="-9999999/1" value="0" leadInLength="0/1"  interpolater="leadin-linr"  />
            <Keyframe id="244"  time="304130911/374100" value="0" leadInLength="852698/93525"  interpolater="leadin-linr"  />
            <Keyframe id="245"  time="4311405/4988" value="0" leadInLength="4806116/93525"  interpolater="leadin-linr"  />
            <Keyframe id="246"  time="462267631/374100" value="0" leadInLength="1085252/18705"  interpolater="leadin-linr"  />
            <Keyframe id="247"  time="19030291/12900" value="0" leadInLength="9147124/93525"  interpolater="leadin-linr"  />
            </Keyframes>
           </InterpolatingParam>
           <InterpolatingParam id="248" interp="linr"  >
            <Keyframes>
            <Keyframe id="249"  time="-9999999/1" value="0" leadInLength="0/1"  interpolater="leadin-linr"  />
            <Keyframe id="250"  time="304130911/374100" value="0" leadInLength="852698/93525"  interpolater="leadin-linr"  />
            <Keyframe id="251"  time="4311405/4988" value="0" leadInLength="4806116/93525"  interpolater="leadin-linr"  />
            <Keyframe id="252"  time="462267631/374100" value="0" leadInLength="1085252/18705"  interpolater="leadin-linr"  />
            <Keyframe id="253"  time="19030291/12900" value="0" leadInLength="9147124/93525"  interpolater="leadin-linr"  />
            </Keyframes>
           </InterpolatingParam>
          </VectorParam>
          <VectorParam id="254"  name="shear">
           <InterpolatingParam id="255" interp="linr"  >
            <Keyframes>
            <Keyframe id="256"  time="-9999999/1" value="0" leadInLength="0/1"  interpolater="leadin-linr"  />
            <Keyframe id="257"  time="304130911/374100" value="0" leadInLength="852698/93525"  interpolater="leadin-linr"  />
            <Keyframe id="258"  time="4311405/4988" value="0" leadInLength="4806116/93525"  interpolater="leadin-linr"  />
            <Keyframe id="259"  time="462267631/374100" value="0" leadInLength="1085252/18705"  interpolater="leadin-linr"  />
            <Keyframe id="260"  time="19030291/12900" value="0" leadInLength="9147124/93525"  interpolater="leadin-linr"  />
            </Keyframes>
           </InterpolatingParam>
           <InterpolatingParam id="261" interp="linr"  >
            <Keyframes>
            <Keyframe id="262"  time="-9999999/1" value="0" leadInLength="0/1"  interpolater="leadin-linr"  />
            <Keyframe id="263"  time="304130911/374100" value="0" leadInLength="852698/93525"  interpolater="leadin-linr"  />
            <Keyframe id="264"  time="4311405/4988" value="0" leadInLength="4806116/93525"  interpolater="leadin-linr"  />
            <Keyframe id="265"  time="462267631/374100" value="0" leadInLength="1085252/18705"  interpolater="leadin-linr"  />
            <Keyframe id="266"  time="19030291/12900" value="0" leadInLength="9147124/93525"  interpolater="leadin-linr"  />
            </Keyframes>
           </InterpolatingParam>
           <InterpolatingParam id="267" interp="linr"  >
            <Keyframes>
            <Keyframe id="268"  time="-9999999/1" value="0" leadInLength="0/1"  interpolater="leadin-linr"  />
            <Keyframe id="269"  time="304130911/374100" value="0" leadInLength="852698/93525"  interpolater="leadin-linr"  />
            <Keyframe id="270"  time="4311405/4988" value="0" leadInLength="4806116/93525"  interpolater="leadin-linr"  />
            <Keyframe id="271"  time="462267631/374100" value="0" leadInLength="1085252/18705"  interpolater="leadin-linr"  />
            <Keyframe id="272"  time="19030291/12900" value="0" leadInLength="9147124/93525"  interpolater="leadin-linr"  />
            </Keyframes>
           </InterpolatingParam>
          </VectorParam>
          <VectorParam id="273"  name="scale">
           <InterpolatingParam id="274" interp="linr"  >
            <Keyframes>
            <Keyframe id="275"  time="-9999999/1" value="0.66666666666666663" leadInLength="0/1"  interpolater="leadin-linr"  />
            <Keyframe id="276"  time="304130911/374100" value="0.68613550685426872" leadInLength="852698/93525"  interpolater="leadin-linr"  />
            <Keyframe id="277"  time="4311405/4988" value="0.79516101190484045" leadInLength="4806116/93525"  interpolater="leadin-linr"  />
            <Keyframe id="278"  time="462267631/374100" value="0.79516101190484045" leadInLength="1085252/18705"  interpolater="leadin-linr"  />
            <Keyframe id="279"  time="19030291/12900" value="0.66666666666666663" leadInLength="9147124/93525"  interpolater="leadin-linr"  />
            </Keyframes>
           </InterpolatingParam>
           <InterpolatingParam id="280" interp="linr"  >
            <Keyframes>
            <Keyframe id="281"  time="-9999999/1" value="0.66666666666666663" leadInLength="0/1"  interpolater="leadin-linr"  />
            <Keyframe id="282"  time="304130911/374100" value="0.68613550685426872" leadInLength="852698/93525"  interpolater="leadin-linr"  />
            <Keyframe id="283"  time="4311405/4988" value="0.79516101190484079" leadInLength="4806116/93525"  interpolater="leadin-linr"  />
            <Keyframe id="284"  time="462267631/374100" value="0.79516101190484079" leadInLength="1085252/18705"  interpolater="leadin-linr"  />
            <Keyframe id="285"  time="19030291/12900" value="0.66666666666666663" leadInLength="9147124/93525"  interpolater="leadin-linr"  />
            </Keyframes>
           </InterpolatingParam>
           <InterpolatingParam id="286" interp="linr"  >
            <Keyframes>
            <Keyframe id="287"  time="-9999999/1" value="1" leadInLength="0/1"  interpolater="leadin-linr"  />
            <Keyframe id="288"  time="304130911/374100" value="1" leadInLength="852698/93525"  interpolater="leadin-linr"  />
            <Keyframe id="289"  time="4311405/4988" value="1" leadInLength="4806116/93525"  interpolater="leadin-linr"  />
            <Keyframe id="290"  time="462267631/374100" value="1" leadInLength="1085252/18705"  interpolater="leadin-linr"  />
            <Keyframe id="291"  time="19030291/12900" value="1" leadInLength="9147124/93525"  interpolater="leadin-linr"  />
            </Keyframes>
           </InterpolatingParam>
          </VectorParam>
          <VectorParam id="292"  name="anchor">
           <InterpolatingParam id="293" interp="linr"  time="0/1" value="0" leadInLength="0/1"  />
           <InterpolatingParam id="294" interp="linr"  time="0/1" value="0" leadInLength="0/1"  />
           <InterpolatingParam id="295" interp="linr"  time="0/1" value="0" leadInLength="0/1"  />
          </VectorParam>
         </Transformer>
         <Parameters>
          <VectorParam id="296"  name="sourceCrop">
           <InterpolatingParam id="297" interp="linr"  time="0/1" value="0" leadInLength="0/1"  />
           <InterpolatingParam id="298" interp="linr"  time="0/1" value="0" leadInLength="0/1"  />
           <InterpolatingParam id="299" interp="linr"  time="0/1" value="0" leadInLength="0/1"  />
           <InterpolatingParam id="300" interp="linr"  time="0/1" value="0" leadInLength="0/1"  />
          </VectorParam>
          <VectorParam id="301"  name="geometryCrop">
           <InterpolatingParam id="302" interp="linr"  >
            <Keyframes>
            <Keyframe id="303"  time="-9999999/1" value="0" leadInLength="0/1"  interpolater="leadin-linr"  />
            <Keyframe id="304"  time="304130911/374100" value="0" leadInLength="852698/93525"  interpolater="leadin-linr"  />
            <Keyframe id="305"  time="4311405/4988" value="0" leadInLength="4806116/93525"  interpolater="leadin-linr"  />
            <Keyframe id="306"  time="462267631/374100" value="0" leadInLength="1085252/18705"  interpolater="leadin-linr"  />
            <Keyframe id="307"  time="19030291/12900" value="0" leadInLength="9147124/93525"  interpolater="leadin-linr"  />
            </Keyframes>
           </InterpolatingParam>
           <InterpolatingParam id="308" interp="linr"  >
            <Keyframes>
            <Keyframe id="309"  time="-9999999/1" value="0" leadInLength="0/1"  interpolater="leadin-linr"  />
            <Keyframe id="310"  time="304130911/374100" value="0" leadInLength="852698/93525"  interpolater="leadin-linr"  />
            <Keyframe id="311"  time="4311405/4988" value="0" leadInLength="4806116/93525"  interpolater="leadin-linr"  />
            <Keyframe id="312"  time="462267631/374100" value="0" leadInLength="1085252/18705"  interpolater="leadin-linr"  />
            <Keyframe id="313"  time="19030291/12900" value="0" leadInLength="9147124/93525"  interpolater="leadin-linr"  />
            </Keyframes>
           </InterpolatingParam>
           <InterpolatingParam id="314" interp="linr"  >
            <Keyframes>
            <Keyframe id="315"  time="-9999999/1" value="0" leadInLength="0/1"  interpolater="leadin-linr"  />
            <Keyframe id="316"  time="304130911/374100" value="0" leadInLength="852698/93525"  interpolater="leadin-linr"  />
            <Keyframe id="317"  time="4311405/4988" value="0" leadInLength="4806116/93525"  interpolater="leadin-linr"  />
            <Keyframe id="318"  time="462267631/374100" value="0" leadInLength="1085252/18705"  interpolater="leadin-linr"  />
            <Keyframe id="319"  time="19030291/12900" value="0" leadInLength="9147124/93525"  interpolater="leadin-linr"  />
            </Keyframes>
           </InterpolatingParam>
           <InterpolatingParam id="320" interp="linr"  >
            <Keyframes>
            <Keyframe id="321"  time="-9999999/1" value="0" leadInLength="0/1"  interpolater="leadin-linr"  />
            <Keyframe id="322"  time="304130911/374100" value="0" leadInLength="852698/93525"  interpolater="leadin-linr"  />
            <Keyframe id="323"  time="4311405/4988" value="0" leadInLength="4806116/93525"  interpolater="leadin-linr"  />
            <Keyframe id="324"  time="462267631/374100" value="0" leadInLength="1085252/18705"  interpolater="leadin-linr"  />
            <Keyframe id="325"  time="19030291/12900" value="0" leadInLength="9147124/93525"  interpolater="leadin-linr"  />
            </Keyframes>
           </InterpolatingParam>
          </VectorParam>
          <InterpolatingParam id="326" interp="linr"  name="opacity">
           <Keyframes>
           <Keyframe id="327"  time="-9999999/1" value="1" leadInLength="0/1"  interpolater="leadin-linr"  />
           <Keyframe id="328"  time="304130911/374100" value="1" leadInLength="852698/93525"  interpolater="leadin-linr"  />
           <Keyframe id="329"  time="4311405/4988" value="1" leadInLength="4806116/93525"  interpolater="leadin-linr"  />
           <Keyframe id="330"  time="462267631/374100" value="1" leadInLength="1085252/18705"  interpolater="leadin-linr"  />
           <Keyframe id="331"  time="19030291/12900" value="1" leadInLength="9147124/93525"  interpolater="leadin-linr"  />
           </Keyframes>
          </InterpolatingParam>
         </Parameters>
         <Attributes>
          <Attribute id="332" value="" name="ident"/>
         </Attributes>
         <MetaData>
          <entry key="WinSubProjectDisplayName" val=""/>
         </MetaData>
         <ExtraData>
          <Entry key="ZoomPanBin">
           <ZoomPanBin id="333"  >
            <ZoomPanKeyframes>
             <ZoomPanKeyframe id="334" timeRangeEnd="-9999999/1" timeRangeDuration="0/1" interpolaterName="leadin-linr"  />
             <ZoomPanKeyframe id="335" timeRangeEnd="4311405/4988" timeRangeDuration="4806116/93525" interpolaterName="linr"  />
             <ZoomPanKeyframe id="336" timeRangeEnd="19030291/12900" timeRangeDuration="9147124/93525" interpolaterName="linr"  />
             <ZoomPanKeyframe id="337" timeRangeEnd="462267631/374100" timeRangeDuration="1085252/18705" interpolaterName="linr"  />
             <ZoomPanKeyframe id="338" timeRangeEnd="304130911/374100" timeRangeDuration="852698/93525" interpolaterName="linr"  />
            </ZoomPanKeyframes>
           </ZoomPanBin>
          </Entry>
         </ExtraData>
        </VMFile>
        <VMFile id="339" start="1027" duration="384" scalar="344000/342503" mediaStart="999957/860" mediaDuration="2055018/5375" trackNumber="0" src="4" >
         <Transformer>
          <VectorParam id="340"  name="translation">
           <InterpolatingParam id="341" interp="linr"  >
            <Keyframes>
            <Keyframe id="342"  time="-9999999/1" value="7.3669070843607187e-011" leadInLength="0/1"  interpolater="leadin-linr"  />
            <Keyframe id="343"  time="280449253/344000" value="15.226883116952516" leadInLength="3082527/344000"  interpolater="leadin-linr"  />
            <Keyframe id="344"  time="298259409/344000" value="100.49742857147456" leadInLength="4452539/86000"  interpolater="leadin-linr"  />
            <Keyframe id="345"  time="424985519/344000" value="-99.502571428509924" leadInLength="20207677/344000"  interpolater="leadin-linr"  />
            <Keyframe id="346"  time="5901497/4000" value="7.3669070843607187e-011" leadInLength="33907797/344000"  interpolater="leadin-linr"  />
            </Keyframes>
           </InterpolatingParam>
           <InterpolatingParam id="347" interp="linr"  >
            <Keyframes>
            <Keyframe id="348"  time="-9999999/1" value="7.3972235744198159e-011" leadInLength="0/1"  interpolater="leadin-linr"  />
            <Keyframe id="349"  time="280449253/344000" value="-5.751268939360858" leadInLength="3082527/344000"  interpolater="leadin-linr"  />
            <Keyframe id="350"  time="298259409/344000" value="-37.958375000196092" leadInLength="4452539/86000"  interpolater="leadin-linr"  />
            <Keyframe id="351"  time="424985519/344000" value="-35.101232143051995" leadInLength="20207677/344000"  interpolater="leadin-linr"  />
            <Keyframe id="352"  time="5901497/4000" value="7.3972235744198159e-011" leadInLength="33907797/344000"  interpolater="leadin-linr"  />
            </Keyframes>
           </InterpolatingParam>
           <InterpolatingParam id="353" interp="linr"  >
            <Keyframes>
            <Keyframe id="354"  time="-9999999/1" value="0" leadInLength="0/1"  interpolater="leadin-linr"  />
            <Keyframe id="355"  time="280449253/344000" value="0" leadInLength="3082527/344000"  interpolater="leadin-linr"  />
            <Keyframe id="356"  time="298259409/344000" value="0" leadInLength="4452539/86000"  interpolater="leadin-linr"  />
            <Keyframe id="357"  time="424985519/344000" value="0" leadInLength="20207677/344000"  interpolater="leadin-linr"  />
            <Keyframe id="358"  time="5901497/4000" value="0" leadInLength="33907797/344000"  interpolater="leadin-linr"  />
            </Keyframes>
           </InterpolatingParam>
          </VectorParam>
          <VectorParam id="359"  name="rotation">
           <InterpolatingParam id="360" interp="linr"  >
            <Keyframes>
            <Keyframe id="361"  time="-9999999/1" value="0" leadInLength="0/1"  interpolater="leadin-linr"  />
            <Keyframe id="362"  time="280449253/344000" value="0" leadInLength="3082527/344000"  interpolater="leadin-linr"  />
            <Keyframe id="363"  time="298259409/344000" value="0" leadInLength="4452539/86000"  interpolater="leadin-linr"  />
            <Keyframe id="364"  time="424985519/344000" value="0" leadInLength="20207677/344000"  interpolater="leadin-linr"  />
            <Keyframe id="365"  time="5901497/4000" value="0" leadInLength="33907797/344000"  interpolater="leadin-linr"  />
            </Keyframes>
           </InterpolatingParam>
           <InterpolatingParam id="366" interp="linr"  >
            <Keyframes>
            <Keyframe id="367"  time="-9999999/1" value="0" leadInLength="0/1"  interpolater="leadin-linr"  />
            <Keyframe id="368"  time="280449253/344000" value="0" leadInLength="3082527/344000"  interpolater="leadin-linr"  />
            <Keyframe id="369"  time="298259409/344000" value="0" leadInLength="4452539/86000"  interpolater="leadin-linr"  />
            <Keyframe id="370"  time="424985519/344000" value="0" leadInLength="20207677/344000"  interpolater="leadin-linr"  />
            <Keyframe id="371"  time="5901497/4000" value="0" leadInLength="33907797/344000"  interpolater="leadin-linr"  />
            </Keyframes>
           </InterpolatingParam>
           <InterpolatingParam id="372" interp="linr"  >
            <Keyframes>
            <Keyframe id="373"  time="-9999999/1" value="0" leadInLength="0/1"  interpolater="leadin-linr"  />
            <Keyframe id="374"  time="280449253/344000" value="0" leadInLength="3082527/344000"  interpolater="leadin-linr"  />
            <Keyframe id="375"  time="298259409/344000" value="0" leadInLength="4452539/86000"  interpolater="leadin-linr"  />
            <Keyframe id="376"  time="424985519/344000" value="0" leadInLength="20207677/344000"  interpolater="leadin-linr"  />
            <Keyframe id="377"  time="5901497/4000" value="0" leadInLength="33907797/344000"  interpolater="leadin-linr"  />
            </Keyframes>
           </InterpolatingParam>
          </VectorParam>
          <VectorParam id="378"  name="shear">
           <InterpolatingParam id="379" interp="linr"  >
            <Keyframes>
            <Keyframe id="380"  time="-9999999/1" value="0" leadInLength="0/1"  interpolater="leadin-linr"  />
            <Keyframe id="381"  time="280449253/344000" value="0" leadInLength="3082527/344000"  interpolater="leadin-linr"  />
            <Keyframe id="382"  time="298259409/344000" value="0" leadInLength="4452539/86000"  interpolater="leadin-linr"  />
            <Keyframe id="383"  time="424985519/344000" value="0" leadInLength="20207677/344000"  interpolater="leadin-linr"  />
            <Keyframe id="384"  time="5901497/4000" value="0" leadInLength="33907797/344000"  interpolater="leadin-linr"  />
            </Keyframes>
           </InterpolatingParam>
           <InterpolatingParam id="385" interp="linr"  >
            <Keyframes>
            <Keyframe id="386"  time="-9999999/1" value="0" leadInLength="0/1"  interpolater="leadin-linr"  />
            <Keyframe id="387"  time="280449253/344000" value="0" leadInLength="3082527/344000"  interpolater="leadin-linr"  />
            <Keyframe id="388"  time="298259409/344000" value="0" leadInLength="4452539/86000"  interpolater="leadin-linr"  />
            <Keyframe id="389"  time="424985519/344000" value="0" leadInLength="20207677/344000"  interpolater="leadin-linr"  />
            <Keyframe id="390"  time="5901497/4000" value="0" leadInLength="33907797/344000"  interpolater="leadin-linr"  />
            </Keyframes>
           </InterpolatingParam>
           <InterpolatingParam id="391" interp="linr"  >
            <Keyframes>
            <Keyframe id="392"  time="-9999999/1" value="0" leadInLength="0/1"  interpolater="leadin-linr"  />
            <Keyframe id="393"  time="280449253/344000" value="0" leadInLength="3082527/344000"  interpolater="leadin-linr"  />
            <Keyframe id="394"  time="298259409/344000" value="0" leadInLength="4452539/86000"  interpolater="leadin-linr"  />
            <Keyframe id="395"  time="424985519/344000" value="0" leadInLength="20207677/344000"  interpolater="leadin-linr"  />
            <Keyframe id="396"  time="5901497/4000" value="0" leadInLength="33907797/344000"  interpolater="leadin-linr"  />
            </Keyframes>
           </InterpolatingParam>
          </VectorParam>
          <VectorParam id="397"  name="scale">
           <InterpolatingParam id="398" interp="linr"  >
            <Keyframes>
            <Keyframe id="399"  time="-9999999/1" value="0.66666666666666663" leadInLength="0/1"  interpolater="leadin-linr"  />
            <Keyframe id="400"  time="280449253/344000" value="0.68613550685426872" leadInLength="3082527/344000"  interpolater="leadin-linr"  />
            <Keyframe id="401"  time="298259409/344000" value="0.79516101190484045" leadInLength="4452539/86000"  interpolater="leadin-linr"  />
            <Keyframe id="402"  time="424985519/344000" value="0.79516101190484045" leadInLength="20207677/344000"  interpolater="leadin-linr"  />
            <Keyframe id="403"  time="5901497/4000" value="0.66666666666666663" leadInLength="33907797/344000"  interpolater="leadin-linr"  />
            </Keyframes>
           </InterpolatingParam>
           <InterpolatingParam id="404" interp="linr"  >
            <Keyframes>
            <Keyframe id="405"  time="-9999999/1" value="0.66666666666666663" leadInLength="0/1"  interpolater="leadin-linr"  />
            <Keyframe id="406"  time="280449253/344000" value="0.68613550685426872" leadInLength="3082527/344000"  interpolater="leadin-linr"  />
            <Keyframe id="407"  time="298259409/344000" value="0.79516101190484079" leadInLength="4452539/86000"  interpolater="leadin-linr"  />
            <Keyframe id="408"  time="424985519/344000" value="0.79516101190484079" leadInLength="20207677/344000"  interpolater="leadin-linr"  />
            <Keyframe id="409"  time="5901497/4000" value="0.66666666666666663" leadInLength="33907797/344000"  interpolater="leadin-linr"  />
            </Keyframes>
           </InterpolatingParam>
           <InterpolatingParam id="410" interp="linr"  >
            <Keyframes>
            <Keyframe id="411"  time="-9999999/1" value="1" leadInLength="0/1"  interpolater="leadin-linr"  />
            <Keyframe id="412"  time="280449253/344000" value="1" leadInLength="3082527/344000"  interpolater="leadin-linr"  />
            <Keyframe id="413"  time="298259409/344000" value="1" leadInLength="4452539/86000"  interpolater="leadin-linr"  />
            <Keyframe id="414"  time="424985519/344000" value="1" leadInLength="20207677/344000"  interpolater="leadin-linr"  />
            <Keyframe id="415"  time="5901497/4000" value="1" leadInLength="33907797/344000"  interpolater="leadin-linr"  />
            </Keyframes>
           </InterpolatingParam>
          </VectorParam>
          <VectorParam id="416"  name="anchor">
           <InterpolatingParam id="417" interp="linr"  time="0/1" value="0" leadInLength="0/1"  />
           <InterpolatingParam id="418" interp="linr"  time="0/1" value="0" leadInLength="0/1"  />
           <InterpolatingParam id="419" interp="linr"  time="0/1" value="0" leadInLength="0/1"  />
          </VectorParam>
         </Transformer>
         <Parameters>
          <VectorParam id="420"  name="sourceCrop">
           <InterpolatingParam id="421" interp="linr"  time="0/1" value="0" leadInLength="0/1"  />
           <InterpolatingParam id="422" interp="linr"  time="0/1" value="0" leadInLength="0/1"  />
           <InterpolatingParam id="423" interp="linr"  time="0/1" value="0" leadInLength="0/1"  />
           <InterpolatingParam id="424" interp="linr"  time="0/1" value="0" leadInLength="0/1"  />
          </VectorParam>
          <VectorParam id="425"  name="geometryCrop">
           <InterpolatingParam id="426" interp="linr"  >
            <Keyframes>
            <Keyframe id="427"  time="-9999999/1" value="0" leadInLength="0/1"  interpolater="leadin-linr"  />
            <Keyframe id="428"  time="280449253/344000" value="0" leadInLength="3082527/344000"  interpolater="leadin-linr"  />
            <Keyframe id="429"  time="298259409/344000" value="0" leadInLength="4452539/86000"  interpolater="leadin-linr"  />
            <Keyframe id="430"  time="424985519/344000" value="0" leadInLength="20207677/344000"  interpolater="leadin-linr"  />
            <Keyframe id="431"  time="5901497/4000" value="0" leadInLength="33907797/344000"  interpolater="leadin-linr"  />
            </Keyframes>
           </InterpolatingParam>
           <InterpolatingParam id="432" interp="linr"  >
            <Keyframes>
            <Keyframe id="433"  time="-9999999/1" value="0" leadInLength="0/1"  interpolater="leadin-linr"  />
            <Keyframe id="434"  time="280449253/344000" value="0" leadInLength="3082527/344000"  interpolater="leadin-linr"  />
            <Keyframe id="435"  time="298259409/344000" value="0" leadInLength="4452539/86000"  interpolater="leadin-linr"  />
            <Keyframe id="436"  time="424985519/344000" value="0" leadInLength="20207677/344000"  interpolater="leadin-linr"  />
            <Keyframe id="437"  time="5901497/4000" value="0" leadInLength="33907797/344000"  interpolater="leadin-linr"  />
            </Keyframes>
           </InterpolatingParam>
           <InterpolatingParam id="438" interp="linr"  >
            <Keyframes>
            <Keyframe id="439"  time="-9999999/1" value="0" leadInLength="0/1"  interpolater="leadin-linr"  />
            <Keyframe id="440"  time="280449253/344000" value="0" leadInLength="3082527/344000"  interpolater="leadin-linr"  />
            <Keyframe id="441"  time="298259409/344000" value="0" leadInLength="4452539/86000"  interpolater="leadin-linr"  />
            <Keyframe id="442"  time="424985519/344000" value="0" leadInLength="20207677/344000"  interpolater="leadin-linr"  />
            <Keyframe id="443"  time="5901497/4000" value="0" leadInLength="33907797/344000"  interpolater="leadin-linr"  />
            </Keyframes>
           </InterpolatingParam>
           <InterpolatingParam id="444" interp="linr"  >
            <Keyframes>
            <Keyframe id="445"  time="-9999999/1" value="0" leadInLength="0/1"  interpolater="leadin-linr"  />
            <Keyframe id="446"  time="280449253/344000" value="0" leadInLength="3082527/344000"  interpolater="leadin-linr"  />
            <Keyframe id="447"  time="298259409/344000" value="0" leadInLength="4452539/86000"  interpolater="leadin-linr"  />
            <Keyframe id="448"  time="424985519/344000" value="0" leadInLength="20207677/344000"  interpolater="leadin-linr"  />
            <Keyframe id="449"  time="5901497/4000" value="0" leadInLength="33907797/344000"  interpolater="leadin-linr"  />
            </Keyframes>
           </InterpolatingParam>
          </VectorParam>
          <InterpolatingParam id="450" interp="linr"  name="opacity">
           <Keyframes>
           <Keyframe id="451"  time="-9999999/1" value="1" leadInLength="0/1"  interpolater="leadin-linr"  />
           <Keyframe id="452"  time="280449253/344000" value="1" leadInLength="3082527/344000"  interpolater="leadin-linr"  />
           <Keyframe id="453"  time="298259409/344000" value="1" leadInLength="4452539/86000"  interpolater="leadin-linr"  />
           <Keyframe id="454"  time="424985519/344000" value="1" leadInLength="20207677/344000"  interpolater="leadin-linr"  />
           <Keyframe id="455"  time="5901497/4000" value="1" leadInLength="33907797/344000"  interpolater="leadin-linr"  />
           </Keyframes>
          </InterpolatingParam>
         </Parameters>
         <Attributes>
          <Attribute id="456" value="" name="ident"/>
         </Attributes>
         <MetaData>
          <entry key="WinSubProjectDisplayName" val=""/>
         </MetaData>
         <ExtraData>
          <Entry key="ZoomPanBin">
           <ZoomPanBin id="457"  >
            <ZoomPanKeyframes>
             <ZoomPanKeyframe id="458" timeRangeEnd="-9999999/1" timeRangeDuration="0/1" interpolaterName="leadin-linr"  />
             <ZoomPanKeyframe id="459" timeRangeEnd="298259409/344000" timeRangeDuration="4452539/86000" interpolaterName="linr"  />
             <ZoomPanKeyframe id="460" timeRangeEnd="5901497/4000" timeRangeDuration="33907797/344000" interpolaterName="linr"  />
             <ZoomPanKeyframe id="461" timeRangeEnd="424985519/344000" timeRangeDuration="20207677/344000" interpolaterName="linr"  />
             <ZoomPanKeyframe id="462" timeRangeEnd="280449253/344000" timeRangeDuration="3082527/344000" interpolaterName="linr"  />
            </ZoomPanKeyframes>
           </ZoomPanBin>
          </Entry>
         </ExtraData>
        </VMFile>
        <UnifiedMedia id="463"  >
         <AudioTransition id="464" start="1411" duration="16" >
          <Parameters>
           <InterpolatingParam id="465" interp="linr"  time="0/1" value="1" leadInLength="0/1"  name="volume"/>
           <Parameter id="466"  name="captions"/>
          </Parameters>
          <Effects>
           <GenericEffect id="467" name = "AudioTransition" >
            <Parameters>
            <Parameter id="468"   name="audioEdgeModType">
             <Keyframes>
             <Keyframe id="469"  time="0/1" value="0" leadInLength="0/1"  />
             </Keyframes>
            </Parameter>
            <Parameter id="470"   name="audioTransitionType">
             <Keyframes>
             <Keyframe id="471"  time="0/1" value="" leadInLength="0/1"  />
             </Keyframes>
            </Parameter>
            </Parameters>
            <MetaData>
            </MetaData>
           </GenericEffect>
          </Effects>
          <Attributes>
           <Attribute id="472" value="" name="ident"/>
           <Attribute id="473" value="0" name="sampleRate"/>
           <Attribute id="474" value="0" name="bitDepth"/>
           <Attribute id="475" value="1" name="gain"/>
           <Attribute id="476" value="0" name="mixToMono"/>
          </Attributes>
         </AudioTransition>
         <ImageTransition id="477" start="1411" duration="16" >
          <Transformer>
           <VectorParam id="478"  name="translation">
            <InterpolatingParam id="479" interp="linr"  time="0/1" value="0" leadInLength="0/1"  />
            <InterpolatingParam id="480" interp="linr"  time="0/1" value="0" leadInLength="0/1"  />
            <InterpolatingParam id="481" interp="linr"  time="0/1" value="0" leadInLength="0/1"  />
           </VectorParam>
           <VectorParam id="482"  name="rotation">
            <InterpolatingParam id="483" interp="linr"  time="0/1" value="0" leadInLength="0/1"  />
            <InterpolatingParam id="484" interp="linr"  time="0/1" value="0" leadInLength="0/1"  />
            <InterpolatingParam id="485" interp="linr"  time="0/1" value="0" leadInLength="0/1"  />
           </VectorParam>
           <VectorParam id="486"  name="shear">
            <InterpolatingParam id="487" interp="linr"  time="0/1" value="0" leadInLength="0/1"  />
            <InterpolatingParam id="488" interp="linr"  time="0/1" value="0" leadInLength="0/1"  />
            <InterpolatingParam id="489" interp="linr"  time="0/1" value="0" leadInLength="0/1"  />
           </VectorParam>
           <VectorParam id="490"  name="scale">
            <InterpolatingParam id="491" interp="linr"  time="0/1" value="1" leadInLength="0/1"  />
            <InterpolatingParam id="492" interp="linr"  time="0/1" value="1" leadInLength="0/1"  />
            <InterpolatingParam id="493" interp="linr"  time="0/1" value="1" leadInLength="0/1"  />
           </VectorParam>
           <VectorParam id="494"  name="anchor">
            <InterpolatingParam id="495" interp="linr"  time="0/1" value="0" leadInLength="0/1"  />
            <InterpolatingParam id="496" interp="linr"  time="0/1" value="0" leadInLength="0/1"  />
            <InterpolatingParam id="497" interp="linr"  time="0/1" value="0" leadInLength="0/1"  />
           </VectorParam>
          </Transformer>
          <Parameters>
           <VectorParam id="498"  name="sourceCrop">
            <InterpolatingParam id="499" interp="linr"  time="0/1" value="0" leadInLength="0/1"  />
            <InterpolatingParam id="500" interp="linr"  time="0/1" value="0" leadInLength="0/1"  />
            <InterpolatingParam id="501" interp="linr"  time="0/1" value="0" leadInLength="0/1"  />
            <InterpolatingParam id="502" interp="linr"  time="0/1" value="0" leadInLength="0/1"  />
           </VectorParam>
           <VectorParam id="503"  name="geometryCrop">
            <InterpolatingParam id="504" interp="linr"  time="0/1" value="0" leadInLength="0/1"  />
            <InterpolatingParam id="505" interp="linr"  time="0/1" value="0" leadInLength="0/1"  />
            <InterpolatingParam id="506" interp="linr"  time="0/1" value="0" leadInLength="0/1"  />
            <InterpolatingParam id="507" interp="linr"  time="0/1" value="0" leadInLength="0/1"  />
           </VectorParam>
           <InterpolatingParam id="508" interp="linr"  time="0/1" value="1" leadInLength="0/1"  name="opacity"/>
          </Parameters>
          <Effects>
           <GenericEffect id="509" name = "VisualTransition" >
            <Parameters>
            <InterpolatingParam id="510" interp="linr"  time="0/1" value="0.5" leadInLength="0/1"   name="leftFramePercentage"/>
            <InterpolatingParam id="511" interp="linr"  time="0/1" value="0.5" leadInLength="0/1"   name="rightFramePercentage"/>
            <Parameter id="512"   name="visualEdgeModType">
             <Keyframes>
             <Keyframe id="513"  time="0/1" value="2" leadInLength="0/1"  />
             </Keyframes>
            </Parameter>
            <Parameter id="514"   name="visualTransitionType">
             <Keyframes>
             <Keyframe id="515"  time="0/1" value="GradientWipe" leadInLength="0/1"  />
             </Keyframes>
            </Parameter>
            </Parameters>
            <MetaData>
            </MetaData>
           </GenericEffect>
          </Effects>
          <Attributes>
           <Attribute id="516" value="" name="ident"/>
          </Attributes>
          <ExtraData>
           <Entry key="ZoomPanBin">
            <ZoomPanBin id="517"  >
             <ZoomPanKeyframes>
             </ZoomPanKeyframes>
            </ZoomPanBin>
           </Entry>
          </ExtraData>
         </ImageTransition>
         <MetaData>
          <entry key="WinSubProjectDisplayName" val=""/>
         </MetaData>
        </UnifiedMedia>
        <UnifiedMedia id="518"  >
         <AudioTransition id="519" start="1427" duration="30" >
          <Parameters>
           <InterpolatingParam id="520" interp="linr"  time="0/1" value="1" leadInLength="0/1"  name="volume"/>
           <Parameter id="521"  name="captions"/>
          </Parameters>
          <Effects>
           <GenericEffect id="522" name = "AudioTransition" >
            <Parameters>
            <Parameter id="523"   name="audioEdgeModType">
             <Keyframes>
             <Keyframe id="524"  time="0/1" value="0" leadInLength="0/1"  />
             </Keyframes>
            </Parameter>
            <Parameter id="525"   name="audioTransitionType">
             <Keyframes>
             <Keyframe id="526"  time="0/1" value="" leadInLength="0/1"  />
             </Keyframes>
            </Parameter>
            </Parameters>
            <MetaData>
            </MetaData>
           </GenericEffect>
          </Effects>
          <Attributes>
           <Attribute id="527" value="" name="ident"/>
           <Attribute id="528" value="0" name="sampleRate"/>
           <Attribute id="529" value="0" name="bitDepth"/>
           <Attribute id="530" value="1" name="gain"/>
           <Attribute id="531" value="0" name="mixToMono"/>
          </Attributes>
         </AudioTransition>
         <ImageTransition id="532" start="1427" duration="30" >
          <Transformer>
           <VectorParam id="533"  name="translation">
            <InterpolatingParam id="534" interp="linr"  time="0/1" value="0" leadInLength="0/1"  />
            <InterpolatingParam id="535" interp="linr"  time="0/1" value="0" leadInLength="0/1"  />
            <InterpolatingParam id="536" interp="linr"  time="0/1" value="0" leadInLength="0/1"  />
           </VectorParam>
           <VectorParam id="537"  name="rotation">
            <InterpolatingParam id="538" interp="linr"  time="0/1" value="0" leadInLength="0/1"  />
            <InterpolatingParam id="539" interp="linr"  time="0/1" value="0" leadInLength="0/1"  />
            <InterpolatingParam id="540" interp="linr"  time="0/1" value="0" leadInLength="0/1"  />
           </VectorParam>
           <VectorParam id="541"  name="shear">
            <InterpolatingParam id="542" interp="linr"  time="0/1" value="0" leadInLength="0/1"  />
            <InterpolatingParam id="543" interp="linr"  time="0/1" value="0" leadInLength="0/1"  />
            <InterpolatingParam id="544" interp="linr"  time="0/1" value="0" leadInLength="0/1"  />
           </VectorParam>
           <VectorParam id="545"  name="scale">
            <InterpolatingParam id="546" interp="linr"  time="0/1" value="1" leadInLength="0/1"  />
            <InterpolatingParam id="547" interp="linr"  time="0/1" value="1" leadInLength="0/1"  />
            <InterpolatingParam id="548" interp="linr"  time="0/1" value="1" leadInLength="0/1"  />
           </VectorParam>
           <VectorParam id="549"  name="anchor">
            <InterpolatingParam id="550" interp="linr"  time="0/1" value="0" leadInLength="0/1"  />
            <InterpolatingParam id="551" interp="linr"  time="0/1" value="0" leadInLength="0/1"  />
            <InterpolatingParam id="552" interp="linr"  time="0/1" value="0" leadInLength="0/1"  />
           </VectorParam>
          </Transformer>
          <Parameters>
           <VectorParam id="553"  name="sourceCrop">
            <InterpolatingParam id="554" interp="linr"  time="0/1" value="0" leadInLength="0/1"  />
            <InterpolatingParam id="555" interp="linr"  time="0/1" value="0" leadInLength="0/1"  />
            <InterpolatingParam id="556" interp="linr"  time="0/1" value="0" leadInLength="0/1"  />
            <InterpolatingParam id="557" interp="linr"  time="0/1" value="0" leadInLength="0/1"  />
           </VectorParam>
           <VectorParam id="558"  name="geometryCrop">
            <InterpolatingParam id="559" interp="linr"  time="0/1" value="0" leadInLength="0/1"  />
            <InterpolatingParam id="560" interp="linr"  time="0/1" value="0" leadInLength="0/1"  />
            <InterpolatingParam id="561" interp="linr"  time="0/1" value="0" leadInLength="0/1"  />
            <InterpolatingParam id="562" interp="linr"  time="0/1" value="0" leadInLength="0/1"  />
           </VectorParam>
           <InterpolatingParam id="563" interp="linr"  time="0/1" value="1" leadInLength="0/1"  name="opacity"/>
          </Parameters>
          <Effects>
           <GenericEffect id="564" name = "VisualTransition" >
            <Parameters>
            <InterpolatingParam id="565" interp="linr"  time="0/1" value="0.5" leadInLength="0/1"   name="leftFramePercentage"/>
            <InterpolatingParam id="566" interp="linr"  time="0/1" value="0.5" leadInLength="0/1"   name="rightFramePercentage"/>
            <Parameter id="567"   name="visualEdgeModType">
             <Keyframes>
             <Keyframe id="568"  time="0/1" value="1" leadInLength="0/1"  />
             </Keyframes>
            </Parameter>
            <Parameter id="569"   name="visualTransitionType">
             <Keyframes>
             <Keyframe id="570"  time="0/1" value="Fade" leadInLength="0/1"  />
             </Keyframes>
            </Parameter>
            </Parameters>
            <MetaData>
            </MetaData>
           </GenericEffect>
          </Effects>
          <Attributes>
           <Attribute id="571" value="" name="ident"/>
          </Attributes>
          <ExtraData>
           <Entry key="ZoomPanBin">
            <ZoomPanBin id="572"  >
             <ZoomPanKeyframes>
             </ZoomPanKeyframes>
            </ZoomPanBin>
           </Entry>
          </ExtraData>
         </ImageTransition>
         <MetaData>
          <entry key="WinSubProjectDisplayName" val=""/>
         </MetaData>
        </UnifiedMedia>
        <IMFile id="573" start="1457" duration="75" scalar="35/67" mediaStart="0/1" mediaDuration="1/1" trackNumber="0" src="12" trimStartSum="402/7" >
         <Transformer>
          <VectorParam id="574"  name="translation">
           <InterpolatingParam id="575" interp="linr"  time="-9999999/1" value="0" leadInLength="0/1"  />
           <InterpolatingParam id="576" interp="linr"  time="-9999999/1" value="0" leadInLength="0/1"  />
           <InterpolatingParam id="577" interp="linr"  time="-9999999/1" value="0" leadInLength="0/1"  />
          </VectorParam>
          <VectorParam id="578"  name="rotation">
           <InterpolatingParam id="579" interp="linr"  time="-9999999/1" value="0" leadInLength="0/1"  />
           <InterpolatingParam id="580" interp="linr"  time="-9999999/1" value="0" leadInLength="0/1"  />
           <InterpolatingParam id="581" interp="linr"  time="-9999999/1" value="0" leadInLength="0/1"  />
          </VectorParam>
          <VectorParam id="582"  name="shear">
           <InterpolatingParam id="583" interp="linr"  time="-9999999/1" value="0" leadInLength="0/1"  />
           <InterpolatingParam id="584" interp="linr"  time="-9999999/1" value="0" leadInLength="0/1"  />
           <InterpolatingParam id="585" interp="linr"  time="-9999999/1" value="0" leadInLength="0/1"  />
          </VectorParam>
          <VectorParam id="586"  name="scale">
           <InterpolatingParam id="587" interp="linr"  time="-9999999/1" value="0.703125" leadInLength="0/1"  />
           <InterpolatingParam id="588" interp="linr"  time="-9999999/1" value="0.703125" leadInLength="0/1"  />
           <InterpolatingParam id="589" interp="linr"  time="-9999999/1" value="1" leadInLength="0/1"  />
          </VectorParam>
          <VectorParam id="590"  name="anchor">
           <InterpolatingParam id="591" interp="linr"  time="0/1" value="0" leadInLength="0/1"  />
           <InterpolatingParam id="592" interp="linr"  time="0/1" value="0" leadInLength="0/1"  />
           <InterpolatingParam id="593" interp="linr"  time="0/1" value="0" leadInLength="0/1"  />
          </VectorParam>
         </Transformer>
         <Parameters>
          <VectorParam id="594"  name="sourceCrop">
           <InterpolatingParam id="595" interp="linr"  time="0/1" value="0" leadInLength="0/1"  />
           <InterpolatingParam id="596" interp="linr"  time="0/1" value="0" leadInLength="0/1"  />
           <InterpolatingParam id="597" interp="linr"  time="0/1" value="0" leadInLength="0/1"  />
           <InterpolatingParam id="598" interp="linr"  time="0/1" value="0" leadInLength="0/1"  />
          </VectorParam>
          <VectorParam id="599"  name="geometryCrop">
           <InterpolatingParam id="600" interp="linr"  time="-9999999/1" value="0" leadInLength="0/1"  />
           <InterpolatingParam id="601" interp="linr"  time="-9999999/1" value="0" leadInLength="0/1"  />
           <InterpolatingParam id="602" interp="linr"  time="-9999999/1" value="0" leadInLength="0/1"  />
           <InterpolatingParam id="603" interp="linr"  time="-9999999/1" value="0" leadInLength="0/1"  />
          </VectorParam>
          <InterpolatingParam id="604" interp="linr"  time="-9999999/1" value="1" leadInLength="0/1"  name="opacity"/>
         </Parameters>
         <Attributes>
          <Attribute id="605" value="" name="ident"/>
         </Attributes>
         <MetaData>
          <entry key="WinSubProjectDisplayName" val=""/>
         </MetaData>
         <ExtraData>
          <Entry key="ZoomPanBin">
           <ZoomPanBin id="606"  >
            <ZoomPanKeyframes>
             <ZoomPanKeyframe id="607" timeRangeEnd="-9999999/1" timeRangeDuration="0/1" interpolaterName="linr"  />
            </ZoomPanKeyframes>
           </ZoomPanBin>
          </Entry>
         </ExtraData>
        </IMFile>
        <VMFile id="608" start="1532" duration="120" scalar="109880/192933" mediaStart="7485113/4387" mediaDuration="578799/2747" trackNumber="0" src="4" >
         <Transformer>
          <VectorParam id="609"  name="translation">
           <InterpolatingParam id="610" interp="linr"  time="-9999999/1" value="3.0650927990593132e-011" leadInLength="0/1"  interpolater="leadin-linr"  />
           <InterpolatingParam id="611" interp="linr"  time="-9999999/1" value="-3.5546084594291928e-011" leadInLength="0/1"  interpolater="leadin-linr"  />
           <InterpolatingParam id="612" interp="linr"  time="-9999999/1" value="0" leadInLength="0/1"  interpolater="leadin-linr"  />
          </VectorParam>
          <VectorParam id="613"  name="rotation">
           <InterpolatingParam id="614" interp="linr"  time="-9999999/1" value="0" leadInLength="0/1"  interpolater="leadin-linr"  />
           <InterpolatingParam id="615" interp="linr"  time="-9999999/1" value="0" leadInLength="0/1"  interpolater="leadin-linr"  />
           <InterpolatingParam id="616" interp="linr"  time="-9999999/1" value="0" leadInLength="0/1"  interpolater="leadin-linr"  />
          </VectorParam>
          <VectorParam id="617"  name="shear">
           <InterpolatingParam id="618" interp="linr"  time="-9999999/1" value="0" leadInLength="0/1"  interpolater="leadin-linr"  />
           <InterpolatingParam id="619" interp="linr"  time="-9999999/1" value="0" leadInLength="0/1"  interpolater="leadin-linr"  />
           <InterpolatingParam id="620" interp="linr"  time="-9999999/1" value="0" leadInLength="0/1"  interpolater="leadin-linr"  />
          </VectorParam>
          <VectorParam id="621"  name="scale">
           <InterpolatingParam id="622" interp="linr"  time="-9999999/1" value="0.66666666666666663" leadInLength="0/1"  interpolater="leadin-linr"  />
           <InterpolatingParam id="623" interp="linr"  time="-9999999/1" value="0.66666666666666663" leadInLength="0/1"  interpolater="leadin-linr"  />
           <InterpolatingParam id="624" interp="linr"  time="-9999999/1" value="1" leadInLength="0/1"  interpolater="leadin-linr"  />
          </VectorParam>
          <VectorParam id="625"  name="anchor">
           <InterpolatingParam id="626" interp="linr"  time="0/1" value="0" leadInLength="0/1"  />
           <InterpolatingParam id="627" interp="linr"  time="0/1" value="0" leadInLength="0/1"  />
           <InterpolatingParam id="628" interp="linr"  time="0/1" value="0" leadInLength="0/1"  />
          </VectorParam>
         </Transformer>
         <Parameters>
          <VectorParam id="629"  name="sourceCrop">
           <InterpolatingParam id="630" interp="linr"  time="0/1" value="0" leadInLength="0/1"  />
           <InterpolatingParam id="631" interp="linr"  time="0/1" value="0" leadInLength="0/1"  />
           <InterpolatingParam id="632" interp="linr"  time="0/1" value="0" leadInLength="0/1"  />
           <InterpolatingParam id="633" interp="linr"  time="0/1" value="0" leadInLength="0/1"  />
          </VectorParam>
          <VectorParam id="634"  name="geometryCrop">
           <InterpolatingParam id="635" interp="linr"  time="-9999999/1" value="0" leadInLength="0/1"  interpolater="leadin-linr"  />
           <InterpolatingParam id="636" interp="linr"  time="-9999999/1" value="0" leadInLength="0/1"  interpolater="leadin-linr"  />
           <InterpolatingParam id="637" interp="linr"  time="-9999999/1" value="0" leadInLength="0/1"  interpolater="leadin-linr"  />
           <InterpolatingParam id="638" interp="linr"  time="-9999999/1" value="0" leadInLength="0/1"  interpolater="leadin-linr"  />
          </VectorParam>
          <InterpolatingParam id="639" interp="linr"  time="-9999999/1" value="1" leadInLength="0/1"  interpolater="leadin-linr"  name="opacity"/>
         </Parameters>
         <Attributes>
          <Attribute id="640" value="" name="ident"/>
         </Attributes>
         <MetaData>
          <entry key="WinSubProjectDisplayName" val=""/>
         </MetaData>
         <ExtraData>
          <Entry key="ZoomPanBin">
           <ZoomPanBin id="641"  >
            <ZoomPanKeyframes>
             <ZoomPanKeyframe id="642" timeRangeEnd="-9999999/1" timeRangeDuration="0/1" interpolaterName="leadin-linr"  />
            </ZoomPanKeyframes>
           </ZoomPanBin>
          </Entry>
         </ExtraData>
        </VMFile>
        <VMFile id="643" start="1652" duration="128" scalar="242112/43757" mediaStart="24288188/11349" mediaDuration="87514/3783" trackNumber="0" src="4" >
         <Transformer>
          <VectorParam id="644"  name="translation">
           <InterpolatingParam id="645" interp="linr"  >
            <Keyframes>
            <Keyframe id="646"  time="-9999999/1" value="3.2088109946926124e-011" leadInLength="0/1"  interpolater="leadin-linr"  />
            <Keyframe id="647"  time="1674031913/726336" value="319.99995324957945" leadInLength="7132391/242112"  interpolater="leadin-linr"  />
            </Keyframes>
           </InterpolatingParam>
           <InterpolatingParam id="648" interp="linr"  >
            <Keyframes>
            <Keyframe id="649"  time="-9999999/1" value="1.8033574633591343e-011" leadInLength="0/1"  interpolater="leadin-linr"  />
            <Keyframe id="650"  time="1674031913/726336" value="179.99998358814588" leadInLength="7132391/242112"  interpolater="leadin-linr"  />
            </Keyframes>
           </InterpolatingParam>
           <InterpolatingParam id="651" interp="linr"  >
            <Keyframes>
            <Keyframe id="652"  time="-9999999/1" value="0" leadInLength="0/1"  interpolater="leadin-linr"  />
            <Keyframe id="653"  time="1674031913/726336" value="0" leadInLength="7132391/242112"  interpolater="leadin-linr"  />
            </Keyframes>
           </InterpolatingParam>
          </VectorParam>
          <VectorParam id="654"  name="rotation">
           <InterpolatingParam id="655" interp="linr"  >
            <Keyframes>
            <Keyframe id="656"  time="-9999999/1" value="0" leadInLength="0/1"  interpolater="leadin-linr"  />
            <Keyframe id="657"  time="1674031913/726336" value="0" leadInLength="7132391/242112"  interpolater="leadin-linr"  />
            </Keyframes>
           </InterpolatingParam>
           <InterpolatingParam id="658" interp="linr"  >
            <Keyframes>
            <Keyframe id="659"  time="-9999999/1" value="0" leadInLength="0/1"  interpolater="leadin-linr"  />
            <Keyframe id="660"  time="1674031913/726336" value="0" leadInLength="7132391/242112"  interpolater="leadin-linr"  />
            </Keyframes>
           </InterpolatingParam>
           <InterpolatingParam id="661" interp="linr"  >
            <Keyframes>
            <Keyframe id="662"  time="-9999999/1" value="0" leadInLength="0/1"  interpolater="leadin-linr"  />
            <Keyframe id="663"  time="1674031913/726336" value="0" leadInLength="7132391/242112"  interpolater="leadin-linr"  />
            </Keyframes>
           </InterpolatingParam>
          </VectorParam>
          <VectorParam id="664"  name="shear">
           <InterpolatingParam id="665" interp="linr"  >
            <Keyframes>
            <Keyframe id="666"  time="-9999999/1" value="0" leadInLength="0/1"  interpolater="leadin-linr"  />
            <Keyframe id="667"  time="1674031913/726336" value="0" leadInLength="7132391/242112"  interpolater="leadin-linr"  />
            </Keyframes>
           </InterpolatingParam>
           <InterpolatingParam id="668" interp="linr"  >
            <Keyframes>
            <Keyframe id="669"  time="-9999999/1" value="0" leadInLength="0/1"  interpolater="leadin-linr"  />
            <Keyframe id="670"  time="1674031913/726336" value="0" leadInLength="7132391/242112"  interpolater="leadin-linr"  />
            </Keyframes>
           </InterpolatingParam>
           <InterpolatingParam id="671" interp="linr"  >
            <Keyframes>
            <Keyframe id="672"  time="-9999999/1" value="0" leadInLength="0/1"  interpolater="leadin-linr"  />
            <Keyframe id="673"  time="1674031913/726336" value="0" leadInLength="7132391/242112"  interpolater="leadin-linr"  />
            </Keyframes>
           </InterpolatingParam>
          </VectorParam>
          <VectorParam id="674"  name="scale">
           <InterpolatingParam id="675" interp="linr"  >
            <Keyframes>
            <Keyframe id="676"  time="-9999999/1" value="0.66666666666670005" leadInLength="0/1"  interpolater="leadin-linr"  />
            <Keyframe id="677"  time="1674031913/726336" value="0.99999995130173924" leadInLength="7132391/242112"  interpolater="leadin-linr"  />
            </Keyframes>
           </InterpolatingParam>
           <InterpolatingParam id="678" interp="linr"  >
            <Keyframes>
            <Keyframe id="679"  time="-9999999/1" value="0.66666666666670027" leadInLength="0/1"  interpolater="leadin-linr"  />
            <Keyframe id="680"  time="1674031913/726336" value="0.99999996960752957" leadInLength="7132391/242112"  interpolater="leadin-linr"  />
            </Keyframes>
           </InterpolatingParam>
           <InterpolatingParam id="681" interp="linr"  >
            <Keyframes>
            <Keyframe id="682"  time="-9999999/1" value="1" leadInLength="0/1"  interpolater="leadin-linr"  />
            <Keyframe id="683"  time="1674031913/726336" value="0.99999999999999967" leadInLength="7132391/242112"  interpolater="leadin-linr"  />
            </Keyframes>
           </InterpolatingParam>
          </VectorParam>
          <VectorParam id="684"  name="anchor">
           <InterpolatingParam id="685" interp="linr"  time="0/1" value="0" leadInLength="0/1"  />
           <InterpolatingParam id="686" interp="linr"  time="0/1" value="0" leadInLength="0/1"  />
           <InterpolatingParam id="687" interp="linr"  time="0/1" value="0" leadInLength="0/1"  />
          </VectorParam>
         </Transformer>
         <Parameters>
          <VectorParam id="688"  name="sourceCrop">
           <InterpolatingParam id="689" interp="linr"  time="0/1" value="0" leadInLength="0/1"  />
           <InterpolatingParam id="690" interp="linr"  time="0/1" value="0" leadInLength="0/1"  />
           <InterpolatingParam id="691" interp="linr"  time="0/1" value="0" leadInLength="0/1"  />
           <InterpolatingParam id="692" interp="linr"  time="0/1" value="0" leadInLength="0/1"  />
          </VectorParam>
          <VectorParam id="693"  name="geometryCrop">
           <InterpolatingParam id="694" interp="linr"  >
            <Keyframes>
            <Keyframe id="695"  time="-9999999/1" value="0" leadInLength="0/1"  interpolater="leadin-linr"  />
            <Keyframe id="696"  time="1674031913/726336" value="0" leadInLength="7132391/242112"  interpolater="leadin-linr"  />
            </Keyframes>
           </InterpolatingParam>
           <InterpolatingParam id="697" interp="linr"  >
            <Keyframes>
            <Keyframe id="698"  time="-9999999/1" value="0" leadInLength="0/1"  interpolater="leadin-linr"  />
            <Keyframe id="699"  time="1674031913/726336" value="0" leadInLength="7132391/242112"  interpolater="leadin-linr"  />
            </Keyframes>
           </InterpolatingParam>
           <InterpolatingParam id="700" interp="linr"  >
            <Keyframes>
            <Keyframe id="701"  time="-9999999/1" value="0" leadInLength="0/1"  interpolater="leadin-linr"  />
            <Keyframe id="702"  time="1674031913/726336" value="0" leadInLength="7132391/242112"  interpolater="leadin-linr"  />
            </Keyframes>
           </InterpolatingParam>
           <InterpolatingParam id="703" interp="linr"  >
            <Keyframes>
            <Keyframe id="704"  time="-9999999/1" value="0" leadInLength="0/1"  interpolater="leadin-linr"  />
            <Keyframe id="705"  time="1674031913/726336" value="0" leadInLength="7132391/242112"  interpolater="leadin-linr"  />
            </Keyframes>
           </InterpolatingParam>
          </VectorParam>
          <InterpolatingParam id="706" interp="linr"  name="opacity">
           <Keyframes>
           <Keyframe id="707"  time="-9999999/1" value="1" leadInLength="0/1"  interpolater="leadin-linr"  />
           <Keyframe id="708"  time="1674031913/726336" value="1" leadInLength="7132391/242112"  interpolater="leadin-linr"  />
           </Keyframes>
          </InterpolatingParam>
         </Parameters>
         <Attributes>
          <Attribute id="709" value="" name="ident"/>
         </Attributes>
         <MetaData>
          <entry key="WinSubProjectDisplayName" val=""/>
         </MetaData>
         <ExtraData>
          <Entry key="ZoomPanBin">
           <ZoomPanBin id="710"  >
            <ZoomPanKeyframes>
             <ZoomPanKeyframe id="711" timeRangeEnd="-9999999/1" timeRangeDuration="0/1" interpolaterName="leadin-linr"  />
             <ZoomPanKeyframe id="712" timeRangeEnd="1674031913/726336" timeRangeDuration="7132391/242112" interpolaterName="linr"  />
            </ZoomPanKeyframes>
           </ZoomPanBin>
          </Entry>
         </ExtraData>
        </VMFile>
        <IMFile id="713" start="1780" duration="119" scalar="27/10" mediaStart="0/1" mediaDuration="1/1" trackNumber="0" src="12" trimStartSum="0/1" >
         <Transformer>
          <VectorParam id="714"  name="translation">
           <InterpolatingParam id="715" interp="linr"  time="-9999999/1" value="0" leadInLength="0/1"  />
           <InterpolatingParam id="716" interp="linr"  time="-9999999/1" value="0" leadInLength="0/1"  />
           <InterpolatingParam id="717" interp="linr"  time="-9999999/1" value="0" leadInLength="0/1"  />
          </VectorParam>
          <VectorParam id="718"  name="rotation">
           <InterpolatingParam id="719" interp="linr"  time="-9999999/1" value="0" leadInLength="0/1"  />
           <InterpolatingParam id="720" interp="linr"  time="-9999999/1" value="0" leadInLength="0/1"  />
           <InterpolatingParam id="721" interp="linr"  time="-9999999/1" value="0" leadInLength="0/1"  />
          </VectorParam>
          <VectorParam id="722"  name="shear">
           <InterpolatingParam id="723" interp="linr"  time="-9999999/1" value="0" leadInLength="0/1"  />
           <InterpolatingParam id="724" interp="linr"  time="-9999999/1" value="0" leadInLength="0/1"  />
           <InterpolatingParam id="725" interp="linr"  time="-9999999/1" value="0" leadInLength="0/1"  />
          </VectorParam>
          <VectorParam id="726"  name="scale">
           <InterpolatingParam id="727" interp="linr"  time="-9999999/1" value="0.703125" leadInLength="0/1"  />
           <InterpolatingParam id="728" interp="linr"  time="-9999999/1" value="0.703125" leadInLength="0/1"  />
           <InterpolatingParam id="729" interp="linr"  time="-9999999/1" value="1" leadInLength="0/1"  />
          </VectorParam>
          <VectorParam id="730"  name="anchor">
           <InterpolatingParam id="731" interp="linr"  time="0/1" value="0" leadInLength="0/1"  />
           <InterpolatingParam id="732" interp="linr"  time="0/1" value="0" leadInLength="0/1"  />
           <InterpolatingParam id="733" interp="linr"  time="0/1" value="0" leadInLength="0/1"  />
          </VectorParam>
         </Transformer>
         <Parameters>
          <VectorParam id="734"  name="sourceCrop">
           <InterpolatingParam id="735" interp="linr"  time="0/1" value="0" leadInLength="0/1"  />
           <InterpolatingParam id="736" interp="linr"  time="0/1" value="0" leadInLength="0/1"  />
           <InterpolatingParam id="737" interp="linr"  time="0/1" value="0" leadInLength="0/1"  />
           <InterpolatingParam id="738" interp="linr"  time="0/1" value="0" leadInLength="0/1"  />
          </VectorParam>
          <VectorParam id="739"  name="geometryCrop">
           <InterpolatingParam id="740" interp="linr"  time="-9999999/1" value="0" leadInLength="0/1"  />
           <InterpolatingParam id="741" interp="linr"  time="-9999999/1" value="0" leadInLength="0/1"  />
           <InterpolatingParam id="742" interp="linr"  time="-9999999/1" value="0" leadInLength="0/1"  />
           <InterpolatingParam id="743" interp="linr"  time="-9999999/1" value="0" leadInLength="0/1"  />
          </VectorParam>
          <InterpolatingParam id="744" interp="linr"  time="-9999999/1" value="1" leadInLength="0/1"  name="opacity"/>
         </Parameters>
         <Attributes>
          <Attribute id="745" value="" name="ident"/>
         </Attributes>
         <MetaData>
          <entry key="WinSubProjectDisplayName" val=""/>
         </MetaData>
         <ExtraData>
          <Entry key="ZoomPanBin">
           <ZoomPanBin id="746"  >
            <ZoomPanKeyframes>
             <ZoomPanKeyframe id="747" timeRangeEnd="-9999999/1" timeRangeDuration="0/1" interpolaterName="linr"  />
            </ZoomPanKeyframes>
           </ZoomPanBin>
          </Entry>
         </ExtraData>
        </IMFile>
        <UnifiedMedia id="748"  >
         <AMFile id="749" start="1899" duration="44" scalar="1/1" mediaStart="0/1" mediaDuration="44/1" trackNumber="1" src="16" channelNumber="0" >
          <Parameters>
           <InterpolatingParam id="750" interp="linr"  name="volume">
            <Keyframes>
            <Keyframe id="751"  time="-1/1" value="1" leadInLength="0/1"  />
            <Keyframe id="752"  time="0/1" value="0" leadInLength="0/1"  />
            <Keyframe id="753"  time="1269/1" value="0" leadInLength="0/1"  />
            <Keyframe id="754"  time="1270/1" value="1" leadInLength="0/1"  />
            </Keyframes>
           </InterpolatingParam>
           <Parameter id="755"  name="captions"/>
          </Parameters>
          <Attributes>
           <Attribute id="756" value="" name="ident"/>
           <Attribute id="757" value="44100" name="sampleRate"/>
           <Attribute id="758" value="16" name="bitDepth"/>
           <Attribute id="759" value="1" name="gain"/>
           <Attribute id="760" value="0" name="mixToMono"/>
          </Attributes>
         </AMFile>
         <VMFile id="761" start="1899" duration="44" scalar="1/1" mediaStart="0/1" mediaDuration="44/1" trackNumber="0" src="16" >
          <Transformer>
           <VectorParam id="762"  name="translation">
            <InterpolatingParam id="763" interp="linr"  >
             <Keyframes>
             <Keyframe id="764"  time="-9999999/1" value="-1335.1111111113491" leadInLength="0/1"  />
             <Keyframe id="765"  time="17/1" value="-1056.739429695501" leadInLength="17/1"  interpolater="leadin-linr"  />
             <Keyframe id="766"  time="37/1" value="-189.69034362068885" leadInLength="20/1"  interpolater="leadin-linr"  />
             </Keyframes>
            </InterpolatingParam>
            <InterpolatingParam id="767" interp="linr"  >
             <Keyframes>
             <Keyframe id="768"  time="-9999999/1" value="26.000000000059504" leadInLength="0/1"  />
             <Keyframe id="769"  time="17/1" value="31.000000000084999" leadInLength="17/1"  interpolater="leadin-linr"  />
             <Keyframe id="770"  time="37/1" value="31.000000000024674" leadInLength="20/1"  interpolater="leadin-linr"  />
             </Keyframes>
            </InterpolatingParam>
            <InterpolatingParam id="771" interp="linr"  >
             <Keyframes>
             <Keyframe id="772"  time="-9999999/1" value="-6.8212102632988488e-010" leadInLength="0/1"  />
             <Keyframe id="773"  time="17/1" value="-6.8212102632988488e-010" leadInLength="17/1"  interpolater="leadin-linr"  />
             <Keyframe id="774"  time="37/1" value="-3.4106051316494244e-010" leadInLength="20/1"  interpolater="leadin-linr"  />
             </Keyframes>
            </InterpolatingParam>
           </VectorParam>
           <VectorParam id="775"  name="rotation">
            <InterpolatingParam id="776" interp="linr"  >
             <Keyframes>
             <Keyframe id="777"  time="-9999999/1" value="0" leadInLength="0/1"  />
             <Keyframe id="778"  time="17/1" value="0" leadInLength="17/1"  interpolater="leadin-linr"  />
             <Keyframe id="779"  time="37/1" value="0" leadInLength="20/1"  interpolater="leadin-linr"  />
             </Keyframes>
            </InterpolatingParam>
            <InterpolatingParam id="780" interp="linr"  >
             <Keyframes>
             <Keyframe id="781"  time="-9999999/1" value="0" leadInLength="0/1"  />
             <Keyframe id="782"  time="17/1" value="0" leadInLength="17/1"  interpolater="leadin-linr"  />
             <Keyframe id="783"  time="37/1" value="0" leadInLength="20/1"  interpolater="leadin-linr"  />
             </Keyframes>
            </InterpolatingParam>
            <InterpolatingParam id="784" interp="linr"  >
             <Keyframes>
             <Keyframe id="785"  time="-9999999/1" value="0" leadInLength="0/1"  />
             <Keyframe id="786"  time="17/1" value="0" leadInLength="17/1"  interpolater="leadin-linr"  />
             <Keyframe id="787"  time="37/1" value="0" leadInLength="20/1"  interpolater="leadin-linr"  />
             </Keyframes>
            </InterpolatingParam>
           </VectorParam>
           <VectorParam id="788"  name="shear">
            <InterpolatingParam id="789" interp="linr"  >
             <Keyframes>
             <Keyframe id="790"  time="-9999999/1" value="0" leadInLength="0/1"  />
             <Keyframe id="791"  time="17/1" value="0" leadInLength="17/1"  interpolater="leadin-linr"  />
             <Keyframe id="792"  time="37/1" value="0" leadInLength="20/1"  interpolater="leadin-linr"  />
             </Keyframes>
            </InterpolatingParam>
            <InterpolatingParam id="793" interp="linr"  >
             <Keyframes>
             <Keyframe id="794"  time="-9999999/1" value="0" leadInLength="0/1"  />
             <Keyframe id="795"  time="17/1" value="0" leadInLength="17/1"  interpolater="leadin-linr"  />
             <Keyframe id="796"  time="37/1" value="0" leadInLength="20/1"  interpolater="leadin-linr"  />
             </Keyframes>
            </InterpolatingParam>
            <InterpolatingParam id="797" interp="linr"  >
             <Keyframes>
             <Keyframe id="798"  time="-9999999/1" value="0" leadInLength="0/1"  />
             <Keyframe id="799"  time="17/1" value="0" leadInLength="17/1"  interpolater="leadin-linr"  />
             <Keyframe id="800"  time="37/1" value="0" leadInLength="20/1"  interpolater="leadin-linr"  />
             </Keyframes>
            </InterpolatingParam>
           </VectorParam>
           <VectorParam id="801"  name="scale">
            <InterpolatingParam id="802" interp="linr"  >
             <Keyframes>
             <Keyframe id="803"  time="-9999999/1" value="0.7240740740741245" leadInLength="0/1"  />
             <Keyframe id="804"  time="17/1" value="0.7240740740741245" leadInLength="17/1"  interpolater="leadin-linr"  />
             <Keyframe id="805"  time="37/1" value="0.7240740740741245" leadInLength="20/1"  interpolater="leadin-linr"  />
             </Keyframes>
            </InterpolatingParam>
            <InterpolatingParam id="806" interp="linr"  >
             <Keyframes>
             <Keyframe id="807"  time="-9999999/1" value="0.7240740740741245" leadInLength="0/1"  />
             <Keyframe id="808"  time="17/1" value="0.7240740740741245" leadInLength="17/1"  interpolater="leadin-linr"  />
             <Keyframe id="809"  time="37/1" value="0.7240740740741245" leadInLength="20/1"  interpolater="leadin-linr"  />
             </Keyframes>
            </InterpolatingParam>
            <InterpolatingParam id="810" interp="linr"  >
             <Keyframes>
             <Keyframe id="811"  time="-9999999/1" value="1" leadInLength="0/1"  />
             <Keyframe id="812"  time="17/1" value="1" leadInLength="17/1"  interpolater="leadin-linr"  />
             <Keyframe id="813"  time="37/1" value="1" leadInLength="20/1"  interpolater="leadin-linr"  />
             </Keyframes>
            </InterpolatingParam>
           </VectorParam>
           <VectorParam id="814"  name="anchor">
            <InterpolatingParam id="815" interp="linr"  time="0/1" value="0" leadInLength="0/1"  />
            <InterpolatingParam id="816" interp="linr"  time="0/1" value="0" leadInLength="0/1"  />
            <InterpolatingParam id="817" interp="linr"  time="0/1" value="0" leadInLength="0/1"  />
           </VectorParam>
          </Transformer>
          <Parameters>
           <VectorParam id="818"  name="sourceCrop">
            <InterpolatingParam id="819" interp="linr"  time="0/1" value="0" leadInLength="0/1"  />
            <InterpolatingParam id="820" interp="linr"  time="0/1" value="0" leadInLength="0/1"  />
            <InterpolatingParam id="821" interp="linr"  time="0/1" value="0" leadInLength="0/1"  />
            <InterpolatingParam id="822" interp="linr"  time="0/1" value="0" leadInLength="0/1"  />
           </VectorParam>
           <VectorParam id="823"  name="geometryCrop">
            <InterpolatingParam id="824" interp="linr"  >
             <Keyframes>
             <Keyframe id="825"  time="-9999999/1" value="0" leadInLength="0/1"  />
             <Keyframe id="826"  time="17/1" value="0" leadInLength="17/1"  interpolater="leadin-linr"  />
             <Keyframe id="827"  time="37/1" value="0" leadInLength="20/1"  interpolater="leadin-linr"  />
             </Keyframes>
            </InterpolatingParam>
            <InterpolatingParam id="828" interp="linr"  >
             <Keyframes>
             <Keyframe id="829"  time="-9999999/1" value="0" leadInLength="0/1"  />
             <Keyframe id="830"  time="17/1" value="0" leadInLength="17/1"  interpolater="leadin-linr"  />
             <Keyframe id="831"  time="37/1" value="0" leadInLength="20/1"  interpolater="leadin-linr"  />
             </Keyframes>
            </InterpolatingParam>
            <InterpolatingParam id="832" interp="linr"  >
             <Keyframes>
             <Keyframe id="833"  time="-9999999/1" value="0" leadInLength="0/1"  />
             <Keyframe id="834"  time="17/1" value="0" leadInLength="17/1"  interpolater="leadin-linr"  />
             <Keyframe id="835"  time="37/1" value="0" leadInLength="20/1"  interpolater="leadin-linr"  />
             </Keyframes>
            </InterpolatingParam>
            <InterpolatingParam id="836" interp="linr"  >
             <Keyframes>
             <Keyframe id="837"  time="-9999999/1" value="0" leadInLength="0/1"  />
             <Keyframe id="838"  time="17/1" value="0" leadInLength="17/1"  interpolater="leadin-linr"  />
             <Keyframe id="839"  time="37/1" value="0" leadInLength="20/1"  interpolater="leadin-linr"  />
             </Keyframes>
            </InterpolatingParam>
           </VectorParam>
           <InterpolatingParam id="840" interp="linr"  name="opacity">
            <Keyframes>
            <Keyframe id="841"  time="-9999999/1" value="1" leadInLength="0/1"  />
            <Keyframe id="842"  time="17/1" value="1" leadInLength="17/1"  interpolater="leadin-linr"  />
            <Keyframe id="843"  time="37/1" value="1" leadInLength="20/1"  interpolater="leadin-linr"  />
            </Keyframes>
           </InterpolatingParam>
          </Parameters>
          <Attributes>
           <Attribute id="844" value="" name="ident"/>
          </Attributes>
          <ExtraData>
           <Entry key="ZoomPanBin">
            <ZoomPanBin id="845"  >
             <ZoomPanKeyframes>
              <ZoomPanKeyframe id="846" timeRangeEnd="-9999999/1" timeRangeDuration="0/1" interpolaterName="linr"  />
              <ZoomPanKeyframe id="847" timeRangeEnd="17/1" timeRangeDuration="17/1" interpolaterName="linr"  />
              <ZoomPanKeyframe id="848" timeRangeEnd="37/1" timeRangeDuration="20/1" interpolaterName="linr"  />
             </ZoomPanKeyframes>
            </ZoomPanBin>
           </Entry>
          </ExtraData>
         </VMFile>
         <MetaData>
          <entry key="WinSubProjectDisplayName" val=""/>
         </MetaData>
        </UnifiedMedia>
        <StitchedMedia id="849" start="1943" duration="198" scalar="239976/490301" mediaStart="52675/1212" mediaDuration="490301/1212" minMediaStart="0/1" >
         <Transformer>
          <VectorParam id="850"  name="translation">
           <InterpolatingParam id="851" interp="linr"  >
            <Keyframes>
            <Keyframe id="852"  time="-9999999/1" value="-1335.1111111113491" leadInLength="0/1"  />
            <Keyframe id="853"  time="457849/21816" value="-1056.739429695501" leadInLength="490301/29997"  interpolater="leadin-linr"  />
            <Keyframe id="854"  time="9939349/239976" value="-189.69034362068885" leadInLength="2451505/119988"  interpolater="leadin-linr"  />
            </Keyframes>
           </InterpolatingParam>
           <InterpolatingParam id="855" interp="linr"  >
            <Keyframes>
            <Keyframe id="856"  time="-9999999/1" value="26.000000000059504" leadInLength="0/1"  />
            <Keyframe id="857"  time="457849/21816" value="31.000000000084999" leadInLength="490301/29997"  interpolater="leadin-linr"  />
            <Keyframe id="858"  time="9939349/239976" value="31.000000000024674" leadInLength="2451505/119988"  interpolater="leadin-linr"  />
            </Keyframes>
           </InterpolatingParam>
           <InterpolatingParam id="859" interp="linr"  >
            <Keyframes>
            <Keyframe id="860"  time="-9999999/1" value="-6.8212102632988488e-010" leadInLength="0/1"  />
            <Keyframe id="861"  time="457849/21816" value="-6.8212102632988488e-010" leadInLength="490301/29997"  interpolater="leadin-linr"  />
            <Keyframe id="862"  time="9939349/239976" value="-3.4106051316494244e-010" leadInLength="2451505/119988"  interpolater="leadin-linr"  />
            </Keyframes>
           </InterpolatingParam>
          </VectorParam>
          <VectorParam id="863"  name="rotation">
           <InterpolatingParam id="864" interp="linr"  >
            <Keyframes>
            <Keyframe id="865"  time="-9999999/1" value="0" leadInLength="0/1"  />
            <Keyframe id="866"  time="457849/21816" value="0" leadInLength="490301/29997"  interpolater="leadin-linr"  />
            <Keyframe id="867"  time="9939349/239976" value="0" leadInLength="2451505/119988"  interpolater="leadin-linr"  />
            </Keyframes>
           </InterpolatingParam>
           <InterpolatingParam id="868" interp="linr"  >
            <Keyframes>
            <Keyframe id="869"  time="-9999999/1" value="0" leadInLength="0/1"  />
            <Keyframe id="870"  time="457849/21816" value="0" leadInLength="490301/29997"  interpolater="leadin-linr"  />
            <Keyframe id="871"  time="9939349/239976" value="0" leadInLength="2451505/119988"  interpolater="leadin-linr"  />
            </Keyframes>
           </InterpolatingParam>
           <InterpolatingParam id="872" interp="linr"  >
            <Keyframes>
            <Keyframe id="873"  time="-9999999/1" value="0" leadInLength="0/1"  />
            <Keyframe id="874"  time="457849/21816" value="0" leadInLength="490301/29997"  interpolater="leadin-linr"  />
            <Keyframe id="875"  time="9939349/239976" value="0" leadInLength="2451505/119988"  interpolater="leadin-linr"  />
            </Keyframes>
           </InterpolatingParam>
          </VectorParam>
          <VectorParam id="876"  name="shear">
           <InterpolatingParam id="877" interp="linr"  >
            <Keyframes>
            <Keyframe id="878"  time="-9999999/1" value="0" leadInLength="0/1"  />
            <Keyframe id="879"  time="457849/21816" value="0" leadInLength="490301/29997"  interpolater="leadin-linr"  />
            <Keyframe id="880"  time="9939349/239976" value="0" leadInLength="2451505/119988"  interpolater="leadin-linr"  />
            </Keyframes>
           </InterpolatingParam>
           <InterpolatingParam id="881" interp="linr"  >
            <Keyframes>
            <Keyframe id="882"  time="-9999999/1" value="0" leadInLength="0/1"  />
            <Keyframe id="883"  time="457849/21816" value="0" leadInLength="490301/29997"  interpolater="leadin-linr"  />
            <Keyframe id="884"  time="9939349/239976" value="0" leadInLength="2451505/119988"  interpolater="leadin-linr"  />
            </Keyframes>
           </InterpolatingParam>
           <InterpolatingParam id="885" interp="linr"  >
            <Keyframes>
            <Keyframe id="886"  time="-9999999/1" value="0" leadInLength="0/1"  />
            <Keyframe id="887"  time="457849/21816" value="0" leadInLength="490301/29997"  interpolater="leadin-linr"  />
            <Keyframe id="888"  time="9939349/239976" value="0" leadInLength="2451505/119988"  interpolater="leadin-linr"  />
            </Keyframes>
           </InterpolatingParam>
          </VectorParam>
          <VectorParam id="889"  name="scale">
           <InterpolatingParam id="890" interp="linr"  >
            <Keyframes>
            <Keyframe id="891"  time="-9999999/1" value="0.7240740740741245" leadInLength="0/1"  />
            <Keyframe id="892"  time="457849/21816" value="0.7240740740741245" leadInLength="490301/29997"  interpolater="leadin-linr"  />
            <Keyframe id="893"  time="9939349/239976" value="0.7240740740741245" leadInLength="2451505/119988"  interpolater="leadin-linr"  />
            </Keyframes>
           </InterpolatingParam>
           <InterpolatingParam id="894" interp="linr"  >
            <Keyframes>
            <Keyframe id="895"  time="-9999999/1" value="0.7240740740741245" leadInLength="0/1"  />
            <Keyframe id="896"  time="457849/21816" value="0.7240740740741245" leadInLength="490301/29997"  interpolater="leadin-linr"  />
            <Keyframe id="897"  time="9939349/239976" value="0.7240740740741245" leadInLength="2451505/119988"  interpolater="leadin-linr"  />
            </Keyframes>
           </InterpolatingParam>
           <InterpolatingParam id="898" interp="linr"  >
            <Keyframes>
            <Keyframe id="899"  time="-9999999/1" value="1" leadInLength="0/1"  />
            <Keyframe id="900"  time="457849/21816" value="1" leadInLength="490301/29997"  interpolater="leadin-linr"  />
            <Keyframe id="901"  time="9939349/239976" value="1" leadInLength="2451505/119988"  interpolater="leadin-linr"  />
            </Keyframes>
           </InterpolatingParam>
          </VectorParam>
          <VectorParam id="902"  name="anchor">
           <InterpolatingParam id="903" interp="linr"  time="0/1" value="0" leadInLength="0/1"  />
           <InterpolatingParam id="904" interp="linr"  time="0/1" value="0" leadInLength="0/1"  />
           <InterpolatingParam id="905" interp="linr"  time="0/1" value="0" leadInLength="0/1"  />
          </VectorParam>
         </Transformer>
         <Parameters>
          <VectorParam id="906"  name="sourceCrop">
           <InterpolatingParam id="907" interp="linr"  time="0/1" value="0" leadInLength="0/1"  />
           <InterpolatingParam id="908" interp="linr"  time="0/1" value="0" leadInLength="0/1"  />
           <InterpolatingParam id="909" interp="linr"  time="0/1" value="0" leadInLength="0/1"  />
           <InterpolatingParam id="910" interp="linr"  time="0/1" value="0" leadInLength="0/1"  />
          </VectorParam>
          <VectorParam id="911"  name="geometryCrop">
           <InterpolatingParam id="912" interp="linr"  >
            <Keyframes>
            <Keyframe id="913"  time="-9999999/1" value="0" leadInLength="0/1"  />
            <Keyframe id="914"  time="457849/21816" value="0" leadInLength="490301/29997"  interpolater="leadin-linr"  />
            <Keyframe id="915"  time="9939349/239976" value="0" leadInLength="2451505/119988"  interpolater="leadin-linr"  />
            </Keyframes>
           </InterpolatingParam>
           <InterpolatingParam id="916" interp="linr"  >
            <Keyframes>
            <Keyframe id="917"  time="-9999999/1" value="0" leadInLength="0/1"  />
            <Keyframe id="918"  time="457849/21816" value="0" leadInLength="490301/29997"  interpolater="leadin-linr"  />
            <Keyframe id="919"  time="9939349/239976" value="0" leadInLength="2451505/119988"  interpolater="leadin-linr"  />
            </Keyframes>
           </InterpolatingParam>
           <InterpolatingParam id="920" interp="linr"  >
            <Keyframes>
            <Keyframe id="921"  time="-9999999/1" value="0" leadInLength="0/1"  />
            <Keyframe id="922"  time="457849/21816" value="0" leadInLength="490301/29997"  interpolater="leadin-linr"  />
            <Keyframe id="923"  time="9939349/239976" value="0" leadInLength="2451505/119988"  interpolater="leadin-linr"  />
            </Keyframes>
           </InterpolatingParam>
           <InterpolatingParam id="924" interp="linr"  >
            <Keyframes>
            <Keyframe id="925"  time="-9999999/1" value="0" leadInLength="0/1"  />
            <Keyframe id="926"  time="457849/21816" value="0" leadInLength="490301/29997"  interpolater="leadin-linr"  />
            <Keyframe id="927"  time="9939349/239976" value="0" leadInLength="2451505/119988"  interpolater="leadin-linr"  />
            </Keyframes>
           </InterpolatingParam>
          </VectorParam>
          <InterpolatingParam id="928" interp="linr"  name="opacity">
           <Keyframes>
           <Keyframe id="929"  time="-9999999/1" value="1" leadInLength="0/1"  />
           <Keyframe id="930"  time="457849/21816" value="1" leadInLength="490301/29997"  interpolater="leadin-linr"  />
           <Keyframe id="931"  time="9939349/239976" value="1" leadInLength="2451505/119988"  interpolater="leadin-linr"  />
           </Keyframes>
          </InterpolatingParam>
          <InterpolatingParam id="932" interp="linr"  time="0/1" value="1" leadInLength="0/1"  name="cursorOpacity"/>
          <InterpolatingParam id="933" interp="linr"  time="0/1" value="1" leadInLength="0/1"  name="cursorScale"/>
          <InterpolatingParam id="934" interp="linr"  name="volume">
           <Keyframes>
           <Keyframe id="935"  time="-1/1" value="1" leadInLength="0/1"  />
           <Keyframe id="936"  time="0/1" value="0" leadInLength="0/1"  />
           <Keyframe id="937"  time="210998/303" value="0" leadInLength="0/1"  />
           <Keyframe id="938"  time="211301/303" value="1" leadInLength="0/1"  />
           </Keyframes>
          </InterpolatingParam>
          <Parameter id="939"  name="captions"/>
         </Parameters>
         <Attributes>
          <Attribute id="940" value="" name="ident"/>
          <Attribute id="941" value="0" name="mixToMono"/>
         </Attributes>
         <MetaData>
          <entry key="WinSubProjectDisplayName" val=""/>
         </MetaData>
         <ExtraData>
          <Entry key="ZoomPanBin">
           <ZoomPanBin id="942"  >
            <ZoomPanKeyframes>
             <ZoomPanKeyframe id="943" timeRangeEnd="-9999999/1" timeRangeDuration="0/1" interpolaterName="linr"  />
             <ZoomPanKeyframe id="944" timeRangeEnd="457849/21816" timeRangeDuration="490301/29997" interpolaterName="linr"  />
             <ZoomPanKeyframe id="945" timeRangeEnd="9939349/239976" timeRangeDuration="2451505/119988" interpolaterName="linr"  />
            </ZoomPanKeyframes>
           </ZoomPanBin>
          </Entry>
          <Entry key="CursorEffectBin">
           <CursorEffectBin id="946"  >
            <CursorEffectKeyframes>
            </CursorEffectKeyframes>
           </CursorEffectBin>
          </Entry>
         </ExtraData>
         <GenericTrack id="947"  >
          <Attributes>
           <Attribute id="948" value="" name="ident"/>
           <Attribute id="949" value="0" name="audioMuted"/>
           <Attribute id="950" value="0" name="videoHidden"/>
          </Attributes>
          <MetaData>
           <entry key="IsLocked" val="False"/>
           <entry key="WinTrackHeight" val="0"/>
          </MetaData>
          <Medias>
           <UnifiedMedia id="951"  >
            <AMFile id="952" start="0" duration="86" scalar="1/1" mediaStart="0/1" mediaDuration="86/1" trackNumber="1" src="16" channelNumber="0" >
             <Parameters>
              <InterpolatingParam id="953" interp="linr"  time="0/1" value="1" leadInLength="0/1"  name="volume"/>
              <Parameter id="954"  name="captions"/>
             </Parameters>
             <Attributes>
              <Attribute id="955" value="" name="ident"/>
              <Attribute id="956" value="44100" name="sampleRate"/>
              <Attribute id="957" value="16" name="bitDepth"/>
              <Attribute id="958" value="1" name="gain"/>
              <Attribute id="959" value="0" name="mixToMono"/>
             </Attributes>
            </AMFile>
            <VMFile id="960" start="0" duration="86" scalar="1/1" mediaStart="0/1" mediaDuration="86/1" trackNumber="0" src="16" >
             <Transformer>
              <VectorParam id="961"  name="translation">
               <InterpolatingParam id="962" interp="linr"  time="-9999999/1" value="0" leadInLength="0/1"  />
               <InterpolatingParam id="963" interp="linr"  time="-9999999/1" value="0" leadInLength="0/1"  />
               <InterpolatingParam id="964" interp="linr"  time="-9999999/1" value="0" leadInLength="0/1"  />
              </VectorParam>
              <VectorParam id="965"  name="rotation">
               <InterpolatingParam id="966" interp="linr"  time="-9999999/1" value="0" leadInLength="0/1"  />
               <InterpolatingParam id="967" interp="linr"  time="-9999999/1" value="0" leadInLength="0/1"  />
               <InterpolatingParam id="968" interp="linr"  time="-9999999/1" value="0" leadInLength="0/1"  />
              </VectorParam>
              <VectorParam id="969"  name="shear">
               <InterpolatingParam id="970" interp="linr"  time="-9999999/1" value="0" leadInLength="0/1"  />
               <InterpolatingParam id="971" interp="linr"  time="-9999999/1" value="0" leadInLength="0/1"  />
               <InterpolatingParam id="972" interp="linr"  time="-9999999/1" value="0" leadInLength="0/1"  />
              </VectorParam>
              <VectorParam id="973"  name="scale">
               <InterpolatingParam id="974" interp="linr"  time="-9999999/1" value="1" leadInLength="0/1"  />
               <InterpolatingParam id="975" interp="linr"  time="-9999999/1" value="1" leadInLength="0/1"  />
               <InterpolatingParam id="976" interp="linr"  time="-9999999/1" value="1" leadInLength="0/1"  />
              </VectorParam>
              <VectorParam id="977"  name="anchor">
               <InterpolatingParam id="978" interp="linr"  time="0/1" value="0" leadInLength="0/1"  />
               <InterpolatingParam id="979" interp="linr"  time="0/1" value="0" leadInLength="0/1"  />
               <InterpolatingParam id="980" interp="linr"  time="0/1" value="0" leadInLength="0/1"  />
              </VectorParam>
             </Transformer>
             <Parameters>
              <VectorParam id="981"  name="sourceCrop">
               <InterpolatingParam id="982" interp="linr"  time="0/1" value="0" leadInLength="0/1"  />
               <InterpolatingParam id="983" interp="linr"  time="0/1" value="0" leadInLength="0/1"  />
               <InterpolatingParam id="984" interp="linr"  time="0/1" value="0" leadInLength="0/1"  />
               <InterpolatingParam id="985" interp="linr"  time="0/1" value="0" leadInLength="0/1"  />
              </VectorParam>
              <VectorParam id="986"  name="geometryCrop">
               <InterpolatingParam id="987" interp="linr"  time="-9999999/1" value="0" leadInLength="0/1"  />
               <InterpolatingParam id="988" interp="linr"  time="-9999999/1" value="0" leadInLength="0/1"  />
               <InterpolatingParam id="989" interp="linr"  time="-9999999/1" value="0" leadInLength="0/1"  />
               <InterpolatingParam id="990" interp="linr"  time="-9999999/1" value="0" leadInLength="0/1"  />
              </VectorParam>
              <InterpolatingParam id="991" interp="linr"  time="-9999999/1" value="1" leadInLength="0/1"  name="opacity"/>
             </Parameters>
             <Attributes>
              <Attribute id="992" value="" name="ident"/>
             </Attributes>
             <ExtraData>
              <Entry key="ZoomPanBin">
               <ZoomPanBin id="993"  >
                <ZoomPanKeyframes>
                 <ZoomPanKeyframe id="994" timeRangeEnd="-9999999/1" timeRangeDuration="0/1" interpolaterName="linr"  />
                </ZoomPanKeyframes>
               </ZoomPanBin>
              </Entry>
             </ExtraData>
            </VMFile>
            <MetaData>
             <entry key="WinSubProjectDisplayName" val=""/>
            </MetaData>
           </UnifiedMedia>
           <UnifiedMedia id="995"  >
            <AMFile id="996" start="86" duration="64" scalar="1/1" mediaStart="153/1" mediaDuration="64/1" trackNumber="1" src="16" channelNumber="0" >
             <Parameters>
              <InterpolatingParam id="997" interp="linr"  time="0/1" value="1" leadInLength="0/1"  name="volume"/>
              <Parameter id="998"  name="captions"/>
             </Parameters>
             <Attributes>
              <Attribute id="999" value="" name="ident"/>
              <Attribute id="1000" value="44100" name="sampleRate"/>
              <Attribute id="1001" value="16" name="bitDepth"/>
              <Attribute id="1002" value="1" name="gain"/>
              <Attribute id="1003" value="0" name="mixToMono"/>
             </Attributes>
            </AMFile>
            <VMFile id="1004" start="86" duration="64" scalar="1/1" mediaStart="153/1" mediaDuration="64/1" trackNumber="0" src="16" >
             <Transformer>
              <VectorParam id="1005"  name="translation">
               <InterpolatingParam id="1006" interp="linr"  time="-9999999/1" value="0" leadInLength="0/1"  />
               <InterpolatingParam id="1007" interp="linr"  time="-9999999/1" value="0" leadInLength="0/1"  />
               <InterpolatingParam id="1008" interp="linr"  time="-9999999/1" value="0" leadInLength="0/1"  />
              </VectorParam>
              <VectorParam id="1009"  name="rotation">
               <InterpolatingParam id="1010" interp="linr"  time="-9999999/1" value="0" leadInLength="0/1"  />
               <InterpolatingParam id="1011" interp="linr"  time="-9999999/1" value="0" leadInLength="0/1"  />
               <InterpolatingParam id="1012" interp="linr"  time="-9999999/1" value="0" leadInLength="0/1"  />
              </VectorParam>
              <VectorParam id="1013"  name="shear">
               <InterpolatingParam id="1014" interp="linr"  time="-9999999/1" value="0" leadInLength="0/1"  />
               <InterpolatingParam id="1015" interp="linr"  time="-9999999/1" value="0" leadInLength="0/1"  />
               <InterpolatingParam id="1016" interp="linr"  time="-9999999/1" value="0" leadInLength="0/1"  />
              </VectorParam>
              <VectorParam id="1017"  name="scale">
               <InterpolatingParam id="1018" interp="linr"  time="-9999999/1" value="1" leadInLength="0/1"  />
               <InterpolatingParam id="1019" interp="linr"  time="-9999999/1" value="1" leadInLength="0/1"  />
               <InterpolatingParam id="1020" interp="linr"  time="-9999999/1" value="1" leadInLength="0/1"  />
              </VectorParam>
              <VectorParam id="1021"  name="anchor">
               <InterpolatingParam id="1022" interp="linr"  time="0/1" value="0" leadInLength="0/1"  />
               <InterpolatingParam id="1023" interp="linr"  time="0/1" value="0" leadInLength="0/1"  />
               <InterpolatingParam id="1024" interp="linr"  time="0/1" value="0" leadInLength="0/1"  />
              </VectorParam>
             </Transformer>
             <Parameters>
              <VectorParam id="1025"  name="sourceCrop">
               <InterpolatingParam id="1026" interp="linr"  time="0/1" value="0" leadInLength="0/1"  />
               <InterpolatingParam id="1027" interp="linr"  time="0/1" value="0" leadInLength="0/1"  />
               <InterpolatingParam id="1028" interp="linr"  time="0/1" value="0" leadInLength="0/1"  />
               <InterpolatingParam id="1029" interp="linr"  time="0/1" value="0" leadInLength="0/1"  />
              </VectorParam>
              <VectorParam id="1030"  name="geometryCrop">
               <InterpolatingParam id="1031" interp="linr"  time="-9999999/1" value="0" leadInLength="0/1"  />
               <InterpolatingParam id="1032" interp="linr"  time="-9999999/1" value="0" leadInLength="0/1"  />
               <InterpolatingParam id="1033" interp="linr"  time="-9999999/1" value="0" leadInLength="0/1"  />
               <InterpolatingParam id="1034" interp="linr"  time="-9999999/1" value="0" leadInLength="0/1"  />
              </VectorParam>
              <InterpolatingParam id="1035" interp="linr"  time="-9999999/1" value="1" leadInLength="0/1"  name="opacity"/>
             </Parameters>
             <Attributes>
              <Attribute id="1036" value="" name="ident"/>
             </Attributes>
             <ExtraData>
              <Entry key="ZoomPanBin">
               <ZoomPanBin id="1037"  >
                <ZoomPanKeyframes>
                 <ZoomPanKeyframe id="1038" timeRangeEnd="-9999999/1" timeRangeDuration="0/1" interpolaterName="linr"  />
                </ZoomPanKeyframes>
               </ZoomPanBin>
              </Entry>
             </ExtraData>
            </VMFile>
            <MetaData>
             <entry key="WinSubProjectDisplayName" val=""/>
            </MetaData>
           </UnifiedMedia>
           <UnifiedMedia id="1039"  >
            <AMFile id="1040" start="150" duration="81" scalar="1/1" mediaStart="347/1" mediaDuration="81/1" trackNumber="1" src="16" channelNumber="0" >
             <Parameters>
              <InterpolatingParam id="1041" interp="linr"  time="0/1" value="1" leadInLength="0/1"  name="volume"/>
              <Parameter id="1042"  name="captions"/>
             </Parameters>
             <Attributes>
              <Attribute id="1043" value="" name="ident"/>
              <Attribute id="1044" value="44100" name="sampleRate"/>
              <Attribute id="1045" value="16" name="bitDepth"/>
              <Attribute id="1046" value="1" name="gain"/>
              <Attribute id="1047" value="0" name="mixToMono"/>
             </Attributes>
            </AMFile>
            <VMFile id="1048" start="150" duration="81" scalar="1/1" mediaStart="347/1" mediaDuration="81/1" trackNumber="0" src="16" >
             <Transformer>
              <VectorParam id="1049"  name="translation">
               <InterpolatingParam id="1050" interp="linr"  time="-9999999/1" value="0" leadInLength="0/1"  />
               <InterpolatingParam id="1051" interp="linr"  time="-9999999/1" value="0" leadInLength="0/1"  />
               <InterpolatingParam id="1052" interp="linr"  time="-9999999/1" value="0" leadInLength="0/1"  />
              </VectorParam>
              <VectorParam id="1053"  name="rotation">
               <InterpolatingParam id="1054" interp="linr"  time="-9999999/1" value="0" leadInLength="0/1"  />
               <InterpolatingParam id="1055" interp="linr"  time="-9999999/1" value="0" leadInLength="0/1"  />
               <InterpolatingParam id="1056" interp="linr"  time="-9999999/1" value="0" leadInLength="0/1"  />
              </VectorParam>
              <VectorParam id="1057"  name="shear">
               <InterpolatingParam id="1058" interp="linr"  time="-9999999/1" value="0" leadInLength="0/1"  />
               <InterpolatingParam id="1059" interp="linr"  time="-9999999/1" value="0" leadInLength="0/1"  />
               <InterpolatingParam id="1060" interp="linr"  time="-9999999/1" value="0" leadInLength="0/1"  />
              </VectorParam>
              <VectorParam id="1061"  name="scale">
               <InterpolatingParam id="1062" interp="linr"  time="-9999999/1" value="1" leadInLength="0/1"  />
               <InterpolatingParam id="1063" interp="linr"  time="-9999999/1" value="1" leadInLength="0/1"  />
               <InterpolatingParam id="1064" interp="linr"  time="-9999999/1" value="1" leadInLength="0/1"  />
              </VectorParam>
              <VectorParam id="1065"  name="anchor">
               <InterpolatingParam id="1066" interp="linr"  time="0/1" value="0" leadInLength="0/1"  />
               <InterpolatingParam id="1067" interp="linr"  time="0/1" value="0" leadInLength="0/1"  />
               <InterpolatingParam id="1068" interp="linr"  time="0/1" value="0" leadInLength="0/1"  />
              </VectorParam>
             </Transformer>
             <Parameters>
              <VectorParam id="1069"  name="sourceCrop">
               <InterpolatingParam id="1070" interp="linr"  time="0/1" value="0" leadInLength="0/1"  />
               <InterpolatingParam id="1071" interp="linr"  time="0/1" value="0" leadInLength="0/1"  />
               <InterpolatingParam id="1072" interp="linr"  time="0/1" value="0" leadInLength="0/1"  />
               <InterpolatingParam id="1073" interp="linr"  time="0/1" value="0" leadInLength="0/1"  />
              </VectorParam>
              <VectorParam id="1074"  name="geometryCrop">
               <InterpolatingParam id="1075" interp="linr"  time="-9999999/1" value="0" leadInLength="0/1"  />
               <InterpolatingParam id="1076" interp="linr"  time="-9999999/1" value="0" leadInLength="0/1"  />
               <InterpolatingParam id="1077" interp="linr"  time="-9999999/1" value="0" leadInLength="0/1"  />
               <InterpolatingParam id="1078" interp="linr"  time="-9999999/1" value="0" leadInLength="0/1"  />
              </VectorParam>
              <InterpolatingParam id="1079" interp="linr"  time="-9999999/1" value="1" leadInLength="0/1"  name="opacity"/>
             </Parameters>
             <Attributes>
              <Attribute id="1080" value="" name="ident"/>
             </Attributes>
             <ExtraData>
              <Entry key="ZoomPanBin">
               <ZoomPanBin id="1081"  >
                <ZoomPanKeyframes>
                 <ZoomPanKeyframe id="1082" timeRangeEnd="-9999999/1" timeRangeDuration="0/1" interpolaterName="linr"  />
                </ZoomPanKeyframes>
               </ZoomPanBin>
              </Entry>
             </ExtraData>
            </VMFile>
            <MetaData>
             <entry key="WinSubProjectDisplayName" val=""/>
            </MetaData>
           </UnifiedMedia>
           <UnifiedMedia id="1083"  >
            <AMFile id="1084" start="231" duration="138" scalar="1/1" mediaStart="547/1" mediaDuration="138/1" trackNumber="1" src="16" channelNumber="0" >
             <Parameters>
              <InterpolatingParam id="1085" interp="linr"  time="0/1" value="1" leadInLength="0/1"  name="volume"/>
              <Parameter id="1086"  name="captions"/>
             </Parameters>
             <Attributes>
              <Attribute id="1087" value="" name="ident"/>
              <Attribute id="1088" value="44100" name="sampleRate"/>
              <Attribute id="1089" value="16" name="bitDepth"/>
              <Attribute id="1090" value="1" name="gain"/>
              <Attribute id="1091" value="0" name="mixToMono"/>
             </Attributes>
            </AMFile>
            <VMFile id="1092" start="231" duration="138" scalar="1/1" mediaStart="547/1" mediaDuration="138/1" trackNumber="0" src="16" >
             <Transformer>
              <VectorParam id="1093"  name="translation">
               <InterpolatingParam id="1094" interp="linr"  time="-9999999/1" value="0" leadInLength="0/1"  />
               <InterpolatingParam id="1095" interp="linr"  time="-9999999/1" value="0" leadInLength="0/1"  />
               <InterpolatingParam id="1096" interp="linr"  time="-9999999/1" value="0" leadInLength="0/1"  />
              </VectorParam>
              <VectorParam id="1097"  name="rotation">
               <InterpolatingParam id="1098" interp="linr"  time="-9999999/1" value="0" leadInLength="0/1"  />
               <InterpolatingParam id="1099" interp="linr"  time="-9999999/1" value="0" leadInLength="0/1"  />
               <InterpolatingParam id="1100" interp="linr"  time="-9999999/1" value="0" leadInLength="0/1"  />
              </VectorParam>
              <VectorParam id="1101"  name="shear">
               <InterpolatingParam id="1102" interp="linr"  time="-9999999/1" value="0" leadInLength="0/1"  />
               <InterpolatingParam id="1103" interp="linr"  time="-9999999/1" value="0" leadInLength="0/1"  />
               <InterpolatingParam id="1104" interp="linr"  time="-9999999/1" value="0" leadInLength="0/1"  />
              </VectorParam>
              <VectorParam id="1105"  name="scale">
               <InterpolatingParam id="1106" interp="linr"  time="-9999999/1" value="1" leadInLength="0/1"  />
               <InterpolatingParam id="1107" interp="linr"  time="-9999999/1" value="1" leadInLength="0/1"  />
               <InterpolatingParam id="1108" interp="linr"  time="-9999999/1" value="1" leadInLength="0/1"  />
              </VectorParam>
              <VectorParam id="1109"  name="anchor">
               <InterpolatingParam id="1110" interp="linr"  time="0/1" value="0" leadInLength="0/1"  />
               <InterpolatingParam id="1111" interp="linr"  time="0/1" value="0" leadInLength="0/1"  />
               <InterpolatingParam id="1112" interp="linr"  time="0/1" value="0" leadInLength="0/1"  />
              </VectorParam>
             </Transformer>
             <Parameters>
              <VectorParam id="1113"  name="sourceCrop">
               <InterpolatingParam id="1114" interp="linr"  time="0/1" value="0" leadInLength="0/1"  />
               <InterpolatingParam id="1115" interp="linr"  time="0/1" value="0" leadInLength="0/1"  />
               <InterpolatingParam id="1116" interp="linr"  time="0/1" value="0" leadInLength="0/1"  />
               <InterpolatingParam id="1117" interp="linr"  time="0/1" value="0" leadInLength="0/1"  />
              </VectorParam>
              <VectorParam id="1118"  name="geometryCrop">
               <InterpolatingParam id="1119" interp="linr"  time="-9999999/1" value="0" leadInLength="0/1"  />
               <InterpolatingParam id="1120" interp="linr"  time="-9999999/1" value="0" leadInLength="0/1"  />
               <InterpolatingParam id="1121" interp="linr"  time="-9999999/1" value="0" leadInLength="0/1"  />
               <InterpolatingParam id="1122" interp="linr"  time="-9999999/1" value="0" leadInLength="0/1"  />
              </VectorParam>
              <InterpolatingParam id="1123" interp="linr"  time="-9999999/1" value="1" leadInLength="0/1"  name="opacity"/>
             </Parameters>
             <Attributes>
              <Attribute id="1124" value="" name="ident"/>
             </Attributes>
             <ExtraData>
              <Entry key="ZoomPanBin">
               <ZoomPanBin id="1125"  >
                <ZoomPanKeyframes>
                 <ZoomPanKeyframe id="1126" timeRangeEnd="-9999999/1" timeRangeDuration="0/1" interpolaterName="linr"  />
                </ZoomPanKeyframes>
               </ZoomPanBin>
              </Entry>
             </ExtraData>
            </VMFile>
            <MetaData>
             <entry key="WinSubProjectDisplayName" val=""/>
            </MetaData>
           </UnifiedMedia>
           <UnifiedMedia id="1127"  >
            <AMFile id="1128" start="369" duration="329" scalar="1/1" mediaStart="940/1" mediaDuration="329/1" trackNumber="1" src="16" channelNumber="0" >
             <Parameters>
              <InterpolatingParam id="1129" interp="linr"  time="0/1" value="1" leadInLength="0/1"  name="volume"/>
              <Parameter id="1130"  name="captions"/>
             </Parameters>
             <Attributes>
              <Attribute id="1131" value="" name="ident"/>
              <Attribute id="1132" value="44100" name="sampleRate"/>
              <Attribute id="1133" value="16" name="bitDepth"/>
              <Attribute id="1134" value="1" name="gain"/>
              <Attribute id="1135" value="0" name="mixToMono"/>
             </Attributes>
            </AMFile>
            <VMFile id="1136" start="369" duration="329" scalar="1/1" mediaStart="940/1" mediaDuration="329/1" trackNumber="0" src="16" >
             <Transformer>
              <VectorParam id="1137"  name="translation">
               <InterpolatingParam id="1138" interp="linr"  time="-9999999/1" value="0" leadInLength="0/1"  />
               <InterpolatingParam id="1139" interp="linr"  time="-9999999/1" value="0" leadInLength="0/1"  />
               <InterpolatingParam id="1140" interp="linr"  time="-9999999/1" value="0" leadInLength="0/1"  />
              </VectorParam>
              <VectorParam id="1141"  name="rotation">
               <InterpolatingParam id="1142" interp="linr"  time="-9999999/1" value="0" leadInLength="0/1"  />
               <InterpolatingParam id="1143" interp="linr"  time="-9999999/1" value="0" leadInLength="0/1"  />
               <InterpolatingParam id="1144" interp="linr"  time="-9999999/1" value="0" leadInLength="0/1"  />
              </VectorParam>
              <VectorParam id="1145"  name="shear">
               <InterpolatingParam id="1146" interp="linr"  time="-9999999/1" value="0" leadInLength="0/1"  />
               <InterpolatingParam id="1147" interp="linr"  time="-9999999/1" value="0" leadInLength="0/1"  />
               <InterpolatingParam id="1148" interp="linr"  time="-9999999/1" value="0" leadInLength="0/1"  />
              </VectorParam>
              <VectorParam id="1149"  name="scale">
               <InterpolatingParam id="1150" interp="linr"  time="-9999999/1" value="1" leadInLength="0/1"  />
               <InterpolatingParam id="1151" interp="linr"  time="-9999999/1" value="1" leadInLength="0/1"  />
               <InterpolatingParam id="1152" interp="linr"  time="-9999999/1" value="1" leadInLength="0/1"  />
              </VectorParam>
              <VectorParam id="1153"  name="anchor">
               <InterpolatingParam id="1154" interp="linr"  time="0/1" value="0" leadInLength="0/1"  />
               <InterpolatingParam id="1155" interp="linr"  time="0/1" value="0" leadInLength="0/1"  />
               <InterpolatingParam id="1156" interp="linr"  time="0/1" value="0" leadInLength="0/1"  />
              </VectorParam>
             </Transformer>
             <Parameters>
              <VectorParam id="1157"  name="sourceCrop">
               <InterpolatingParam id="1158" interp="linr"  time="0/1" value="0" leadInLength="0/1"  />
               <InterpolatingParam id="1159" interp="linr"  time="0/1" value="0" leadInLength="0/1"  />
               <InterpolatingParam id="1160" interp="linr"  time="0/1" value="0" leadInLength="0/1"  />
               <InterpolatingParam id="1161" interp="linr"  time="0/1" value="0" leadInLength="0/1"  />
              </VectorParam>
              <VectorParam id="1162"  name="geometryCrop">
               <InterpolatingParam id="1163" interp="linr"  time="-9999999/1" value="0" leadInLength="0/1"  />
               <InterpolatingParam id="1164" interp="linr"  time="-9999999/1" value="0" leadInLength="0/1"  />
               <InterpolatingParam id="1165" interp="linr"  time="-9999999/1" value="0" leadInLength="0/1"  />
               <InterpolatingParam id="1166" interp="linr"  time="-9999999/1" value="0" leadInLength="0/1"  />
              </VectorParam>
              <InterpolatingParam id="1167" interp="linr"  time="-9999999/1" value="1" leadInLength="0/1"  name="opacity"/>
             </Parameters>
             <Attributes>
              <Attribute id="1168" value="" name="ident"/>
             </Attributes>
             <ExtraData>
              <Entry key="ZoomPanBin">
               <ZoomPanBin id="1169"  >
                <ZoomPanKeyframes>
                 <ZoomPanKeyframe id="1170" timeRangeEnd="-9999999/1" timeRangeDuration="0/1" interpolaterName="linr"  />
                </ZoomPanKeyframes>
               </ZoomPanBin>
              </Entry>
             </ExtraData>
            </VMFile>
            <MetaData>
             <entry key="WinSubProjectDisplayName" val=""/>
            </MetaData>
           </UnifiedMedia>
          </Medias>
         </GenericTrack>
        </StitchedMedia>
        <StitchedMedia id="1171" start="2141" duration="71" scalar="42/85" mediaStart="0/1" mediaDuration="6035/42" minMediaStart="0/1" >
         <Transformer>
          <VectorParam id="1172"  name="translation">
           <InterpolatingParam id="1173" interp="linr"  time="-9999999/1" value="-206.88888888895221" leadInLength="0/1"  />
           <InterpolatingParam id="1174" interp="linr"  time="-9999999/1" value="30.999999999860361" leadInLength="0/1"  />
           <InterpolatingParam id="1175" interp="linr"  time="-9999999/1" value="0" leadInLength="0/1"  />
          </VectorParam>
          <VectorParam id="1176"  name="rotation">
           <InterpolatingParam id="1177" interp="linr"  time="-9999999/1" value="0" leadInLength="0/1"  />
           <InterpolatingParam id="1178" interp="linr"  time="-9999999/1" value="0" leadInLength="0/1"  />
           <InterpolatingParam id="1179" interp="linr"  time="-9999999/1" value="0" leadInLength="0/1"  />
          </VectorParam>
          <VectorParam id="1180"  name="shear">
           <InterpolatingParam id="1181" interp="linr"  time="-9999999/1" value="0" leadInLength="0/1"  />
           <InterpolatingParam id="1182" interp="linr"  time="-9999999/1" value="0" leadInLength="0/1"  />
           <InterpolatingParam id="1183" interp="linr"  time="-9999999/1" value="0" leadInLength="0/1"  />
          </VectorParam>
          <VectorParam id="1184"  name="scale">
           <InterpolatingParam id="1185" interp="linr"  time="-9999999/1" value="0.72407407407406388" leadInLength="0/1"  />
           <InterpolatingParam id="1186" interp="linr"  time="-9999999/1" value="0.72407407407406399" leadInLength="0/1"  />
           <InterpolatingParam id="1187" interp="linr"  time="-9999999/1" value="1" leadInLength="0/1"  />
          </VectorParam>
          <VectorParam id="1188"  name="anchor">
           <InterpolatingParam id="1189" interp="linr"  time="0/1" value="0" leadInLength="0/1"  />
           <InterpolatingParam id="1190" interp="linr"  time="0/1" value="0" leadInLength="0/1"  />
           <InterpolatingParam id="1191" interp="linr"  time="0/1" value="0" leadInLength="0/1"  />
          </VectorParam>
         </Transformer>
         <Parameters>
          <VectorParam id="1192"  name="sourceCrop">
           <InterpolatingParam id="1193" interp="linr"  time="0/1" value="0" leadInLength="0/1"  />
           <InterpolatingParam id="1194" interp="linr"  time="0/1" value="0" leadInLength="0/1"  />
           <InterpolatingParam id="1195" interp="linr"  time="0/1" value="0" leadInLength="0/1"  />
           <InterpolatingParam id="1196" interp="linr"  time="0/1" value="0" leadInLength="0/1"  />
          </VectorParam>
          <VectorParam id="1197"  name="geometryCrop">
           <InterpolatingParam id="1198" interp="linr"  time="-9999999/1" value="0" leadInLength="0/1"  />
           <InterpolatingParam id="1199" interp="linr"  time="-9999999/1" value="0" leadInLength="0/1"  />
           <InterpolatingParam id="1200" interp="linr"  time="-9999999/1" value="0" leadInLength="0/1"  />
           <InterpolatingParam id="1201" interp="linr"  time="-9999999/1" value="0" leadInLength="0/1"  />
          </VectorParam>
          <InterpolatingParam id="1202" interp="linr"  time="-9999999/1" value="1" leadInLength="0/1"  name="opacity"/>
          <InterpolatingParam id="1203" interp="linr"  time="0/1" value="1" leadInLength="0/1"  name="cursorOpacity"/>
          <InterpolatingParam id="1204" interp="linr"  time="0/1" value="1" leadInLength="0/1"  name="cursorScale"/>
          <InterpolatingParam id="1205" interp="linr"  name="volume">
           <Keyframes>
           <Keyframe id="1206"  time="-1/1" value="1" leadInLength="0/1"  />
           <Keyframe id="1207"  time="0/1" value="0" leadInLength="0/1"  />
           <Keyframe id="1208"  time="144/1" value="0" leadInLength="0/1"  />
           <Keyframe id="1209"  time="145/1" value="1" leadInLength="0/1"  />
           </Keyframes>
          </InterpolatingParam>
          <Parameter id="1210"  name="captions"/>
         </Parameters>
         <Attributes>
          <Attribute id="1211" value="" name="ident"/>
          <Attribute id="1212" value="0" name="mixToMono"/>
         </Attributes>
         <MetaData>
          <entry key="WinSubProjectDisplayName" val=""/>
         </MetaData>
         <ExtraData>
          <Entry key="ZoomPanBin">
           <ZoomPanBin id="1213"  >
            <ZoomPanKeyframes>
             <ZoomPanKeyframe id="1214" timeRangeEnd="-9999999/1" timeRangeDuration="0/1" interpolaterName="linr"  />
            </ZoomPanKeyframes>
           </ZoomPanBin>
          </Entry>
          <Entry key="CursorEffectBin">
           <CursorEffectBin id="1215"  >
            <CursorEffectKeyframes>
            </CursorEffectKeyframes>
           </CursorEffectBin>
          </Entry>
         </ExtraData>
         <GenericTrack id="1216"  >
          <Attributes>
           <Attribute id="1217" value="" name="ident"/>
           <Attribute id="1218" value="0" name="audioMuted"/>
           <Attribute id="1219" value="0" name="videoHidden"/>
          </Attributes>
          <MetaData>
           <entry key="IsLocked" val="False"/>
           <entry key="WinTrackHeight" val="0"/>
          </MetaData>
          <Medias>
           <UnifiedMedia id="1220"  >
            <AMFile id="1221" start="0" duration="33" scalar="1/1" mediaStart="0/1" mediaDuration="33/1" trackNumber="1" src="17" channelNumber="0" >
             <Parameters>
              <InterpolatingParam id="1222" interp="linr"  time="0/1" value="1" leadInLength="0/1"  name="volume"/>
              <Parameter id="1223"  name="captions"/>
             </Parameters>
             <Attributes>
              <Attribute id="1224" value="" name="ident"/>
              <Attribute id="1225" value="44100" name="sampleRate"/>
              <Attribute id="1226" value="16" name="bitDepth"/>
              <Attribute id="1227" value="1" name="gain"/>
              <Attribute id="1228" value="0" name="mixToMono"/>
             </Attributes>
            </AMFile>
            <VMFile id="1229" start="0" duration="33" scalar="1/1" mediaStart="0/1" mediaDuration="33/1" trackNumber="0" src="17" >
             <Transformer>
              <VectorParam id="1230"  name="translation">
               <InterpolatingParam id="1231" interp="linr"  time="-9999999/1" value="0" leadInLength="0/1"  />
               <InterpolatingParam id="1232" interp="linr"  time="-9999999/1" value="0" leadInLength="0/1"  />
               <InterpolatingParam id="1233" interp="linr"  time="-9999999/1" value="0" leadInLength="0/1"  />
              </VectorParam>
              <VectorParam id="1234"  name="rotation">
               <InterpolatingParam id="1235" interp="linr"  time="-9999999/1" value="0" leadInLength="0/1"  />
               <InterpolatingParam id="1236" interp="linr"  time="-9999999/1" value="0" leadInLength="0/1"  />
               <InterpolatingParam id="1237" interp="linr"  time="-9999999/1" value="0" leadInLength="0/1"  />
              </VectorParam>
              <VectorParam id="1238"  name="shear">
               <InterpolatingParam id="1239" interp="linr"  time="-9999999/1" value="0" leadInLength="0/1"  />
               <InterpolatingParam id="1240" interp="linr"  time="-9999999/1" value="0" leadInLength="0/1"  />
               <InterpolatingParam id="1241" interp="linr"  time="-9999999/1" value="0" leadInLength="0/1"  />
              </VectorParam>
              <VectorParam id="1242"  name="scale">
               <InterpolatingParam id="1243" interp="linr"  time="-9999999/1" value="1" leadInLength="0/1"  />
               <InterpolatingParam id="1244" interp="linr"  time="-9999999/1" value="1" leadInLength="0/1"  />
               <InterpolatingParam id="1245" interp="linr"  time="-9999999/1" value="1" leadInLength="0/1"  />
              </VectorParam>
              <VectorParam id="1246"  name="anchor">
               <InterpolatingParam id="1247" interp="linr"  time="0/1" value="0" leadInLength="0/1"  />
               <InterpolatingParam id="1248" interp="linr"  time="0/1" value="0" leadInLength="0/1"  />
               <InterpolatingParam id="1249" interp="linr"  time="0/1" value="0" leadInLength="0/1"  />
              </VectorParam>
             </Transformer>
             <Parameters>
              <VectorParam id="1250"  name="sourceCrop">
               <InterpolatingParam id="1251" interp="linr"  time="0/1" value="0" leadInLength="0/1"  />
               <InterpolatingParam id="1252" interp="linr"  time="0/1" value="0" leadInLength="0/1"  />
               <InterpolatingParam id="1253" interp="linr"  time="0/1" value="0" leadInLength="0/1"  />
               <InterpolatingParam id="1254" interp="linr"  time="0/1" value="0" leadInLength="0/1"  />
              </VectorParam>
              <VectorParam id="1255"  name="geometryCrop">
               <InterpolatingParam id="1256" interp="linr"  time="-9999999/1" value="0" leadInLength="0/1"  />
               <InterpolatingParam id="1257" interp="linr"  time="-9999999/1" value="0" leadInLength="0/1"  />
               <InterpolatingParam id="1258" interp="linr"  time="-9999999/1" value="0" leadInLength="0/1"  />
               <InterpolatingParam id="1259" interp="linr"  time="-9999999/1" value="0" leadInLength="0/1"  />
              </VectorParam>
              <InterpolatingParam id="1260" interp="linr"  time="-9999999/1" value="1" leadInLength="0/1"  name="opacity"/>
             </Parameters>
             <Attributes>
              <Attribute id="1261" value="" name="ident"/>
             </Attributes>
             <ExtraData>
              <Entry key="ZoomPanBin">
               <ZoomPanBin id="1262"  >
                <ZoomPanKeyframes>
                 <ZoomPanKeyframe id="1263" timeRangeEnd="-9999999/1" timeRangeDuration="0/1" interpolaterName="linr"  />
                </ZoomPanKeyframes>
               </ZoomPanBin>
              </Entry>
             </ExtraData>
            </VMFile>
            <MetaData>
             <entry key="WinSubProjectDisplayName" val=""/>
            </MetaData>
           </UnifiedMedia>
           <UnifiedMedia id="1264"  >
            <AMFile id="1265" start="33" duration="40" scalar="1/1" mediaStart="64/1" mediaDuration="40/1" trackNumber="1" src="17" channelNumber="0" >
             <Parameters>
              <InterpolatingParam id="1266" interp="linr"  time="0/1" value="1" leadInLength="0/1"  name="volume"/>
              <Parameter id="1267"  name="captions"/>
             </Parameters>
             <Attributes>
              <Attribute id="1268" value="" name="ident"/>
              <Attribute id="1269" value="44100" name="sampleRate"/>
              <Attribute id="1270" value="16" name="bitDepth"/>
              <Attribute id="1271" value="1" name="gain"/>
              <Attribute id="1272" value="0" name="mixToMono"/>
             </Attributes>
            </AMFile>
            <VMFile id="1273" start="33" duration="40" scalar="1/1" mediaStart="64/1" mediaDuration="40/1" trackNumber="0" src="17" >
             <Transformer>
              <VectorParam id="1274"  name="translation">
               <InterpolatingParam id="1275" interp="linr"  time="-9999999/1" value="0" leadInLength="0/1"  />
               <InterpolatingParam id="1276" interp="linr"  time="-9999999/1" value="0" leadInLength="0/1"  />
               <InterpolatingParam id="1277" interp="linr"  time="-9999999/1" value="0" leadInLength="0/1"  />
              </VectorParam>
              <VectorParam id="1278"  name="rotation">
               <InterpolatingParam id="1279" interp="linr"  time="-9999999/1" value="0" leadInLength="0/1"  />
               <InterpolatingParam id="1280" interp="linr"  time="-9999999/1" value="0" leadInLength="0/1"  />
               <InterpolatingParam id="1281" interp="linr"  time="-9999999/1" value="0" leadInLength="0/1"  />
              </VectorParam>
              <VectorParam id="1282"  name="shear">
               <InterpolatingParam id="1283" interp="linr"  time="-9999999/1" value="0" leadInLength="0/1"  />
               <InterpolatingParam id="1284" interp="linr"  time="-9999999/1" value="0" leadInLength="0/1"  />
               <InterpolatingParam id="1285" interp="linr"  time="-9999999/1" value="0" leadInLength="0/1"  />
              </VectorParam>
              <VectorParam id="1286"  name="scale">
               <InterpolatingParam id="1287" interp="linr"  time="-9999999/1" value="1" leadInLength="0/1"  />
               <InterpolatingParam id="1288" interp="linr"  time="-9999999/1" value="1" leadInLength="0/1"  />
               <InterpolatingParam id="1289" interp="linr"  time="-9999999/1" value="1" leadInLength="0/1"  />
              </VectorParam>
              <VectorParam id="1290"  name="anchor">
               <InterpolatingParam id="1291" interp="linr"  time="0/1" value="0" leadInLength="0/1"  />
               <InterpolatingParam id="1292" interp="linr"  time="0/1" value="0" leadInLength="0/1"  />
               <InterpolatingParam id="1293" interp="linr"  time="0/1" value="0" leadInLength="0/1"  />
              </VectorParam>
             </Transformer>
             <Parameters>
              <VectorParam id="1294"  name="sourceCrop">
               <InterpolatingParam id="1295" interp="linr"  time="0/1" value="0" leadInLength="0/1"  />
               <InterpolatingParam id="1296" interp="linr"  time="0/1" value="0" leadInLength="0/1"  />
               <InterpolatingParam id="1297" interp="linr"  time="0/1" value="0" leadInLength="0/1"  />
               <InterpolatingParam id="1298" interp="linr"  time="0/1" value="0" leadInLength="0/1"  />
              </VectorParam>
              <VectorParam id="1299"  name="geometryCrop">
               <InterpolatingParam id="1300" interp="linr"  time="-9999999/1" value="0" leadInLength="0/1"  />
               <InterpolatingParam id="1301" interp="linr"  time="-9999999/1" value="0" leadInLength="0/1"  />
               <InterpolatingParam id="1302" interp="linr"  time="-9999999/1" value="0" leadInLength="0/1"  />
               <InterpolatingParam id="1303" interp="linr"  time="-9999999/1" value="0" leadInLength="0/1"  />
              </VectorParam>
              <InterpolatingParam id="1304" interp="linr"  time="-9999999/1" value="1" leadInLength="0/1"  name="opacity"/>
             </Parameters>
             <Attributes>
              <Attribute id="1305" value="" name="ident"/>
             </Attributes>
             <ExtraData>
              <Entry key="ZoomPanBin">
               <ZoomPanBin id="1306"  >
                <ZoomPanKeyframes>
                 <ZoomPanKeyframe id="1307" timeRangeEnd="-9999999/1" timeRangeDuration="0/1" interpolaterName="linr"  />
                </ZoomPanKeyframes>
               </ZoomPanBin>
              </Entry>
             </ExtraData>
            </VMFile>
            <MetaData>
             <entry key="WinSubProjectDisplayName" val=""/>
            </MetaData>
           </UnifiedMedia>
           <UnifiedMedia id="1308"  >
            <AMFile id="1309" start="73" duration="71" scalar="1/1" mediaStart="142/1" mediaDuration="71/1" trackNumber="1" src="17" channelNumber="0" >
             <Parameters>
              <InterpolatingParam id="1310" interp="linr"  time="0/1" value="1" leadInLength="0/1"  name="volume"/>
              <Parameter id="1311"  name="captions"/>
             </Parameters>
             <Attributes>
              <Attribute id="1312" value="" name="ident"/>
              <Attribute id="1313" value="44100" name="sampleRate"/>
              <Attribute id="1314" value="16" name="bitDepth"/>
              <Attribute id="1315" value="1" name="gain"/>
              <Attribute id="1316" value="0" name="mixToMono"/>
             </Attributes>
            </AMFile>
            <VMFile id="1317" start="73" duration="71" scalar="1/1" mediaStart="142/1" mediaDuration="71/1" trackNumber="0" src="17" >
             <Transformer>
              <VectorParam id="1318"  name="translation">
               <InterpolatingParam id="1319" interp="linr"  time="-9999999/1" value="0" leadInLength="0/1"  />
               <InterpolatingParam id="1320" interp="linr"  time="-9999999/1" value="0" leadInLength="0/1"  />
               <InterpolatingParam id="1321" interp="linr"  time="-9999999/1" value="0" leadInLength="0/1"  />
              </VectorParam>
              <VectorParam id="1322"  name="rotation">
               <InterpolatingParam id="1323" interp="linr"  time="-9999999/1" value="0" leadInLength="0/1"  />
               <InterpolatingParam id="1324" interp="linr"  time="-9999999/1" value="0" leadInLength="0/1"  />
               <InterpolatingParam id="1325" interp="linr"  time="-9999999/1" value="0" leadInLength="0/1"  />
              </VectorParam>
              <VectorParam id="1326"  name="shear">
               <InterpolatingParam id="1327" interp="linr"  time="-9999999/1" value="0" leadInLength="0/1"  />
               <InterpolatingParam id="1328" interp="linr"  time="-9999999/1" value="0" leadInLength="0/1"  />
               <InterpolatingParam id="1329" interp="linr"  time="-9999999/1" value="0" leadInLength="0/1"  />
              </VectorParam>
              <VectorParam id="1330"  name="scale">
               <InterpolatingParam id="1331" interp="linr"  time="-9999999/1" value="1" leadInLength="0/1"  />
               <InterpolatingParam id="1332" interp="linr"  time="-9999999/1" value="1" leadInLength="0/1"  />
               <InterpolatingParam id="1333" interp="linr"  time="-9999999/1" value="1" leadInLength="0/1"  />
              </VectorParam>
              <VectorParam id="1334"  name="anchor">
               <InterpolatingParam id="1335" interp="linr"  time="0/1" value="0" leadInLength="0/1"  />
               <InterpolatingParam id="1336" interp="linr"  time="0/1" value="0" leadInLength="0/1"  />
               <InterpolatingParam id="1337" interp="linr"  time="0/1" value="0" leadInLength="0/1"  />
              </VectorParam>
             </Transformer>
             <Parameters>
              <VectorParam id="1338"  name="sourceCrop">
               <InterpolatingParam id="1339" interp="linr"  time="0/1" value="0" leadInLength="0/1"  />
               <InterpolatingParam id="1340" interp="linr"  time="0/1" value="0" leadInLength="0/1"  />
               <InterpolatingParam id="1341" interp="linr"  time="0/1" value="0" leadInLength="0/1"  />
               <InterpolatingParam id="1342" interp="linr"  time="0/1" value="0" leadInLength="0/1"  />
              </VectorParam>
              <VectorParam id="1343"  name="geometryCrop">
               <InterpolatingParam id="1344" interp="linr"  time="-9999999/1" value="0" leadInLength="0/1"  />
               <InterpolatingParam id="1345" interp="linr"  time="-9999999/1" value="0" leadInLength="0/1"  />
               <InterpolatingParam id="1346" interp="linr"  time="-9999999/1" value="0" leadInLength="0/1"  />
               <InterpolatingParam id="1347" interp="linr"  time="-9999999/1" value="0" leadInLength="0/1"  />
              </VectorParam>
              <InterpolatingParam id="1348" interp="linr"  time="-9999999/1" value="1" leadInLength="0/1"  name="opacity"/>
             </Parameters>
             <Attributes>
              <Attribute id="1349" value="" name="ident"/>
             </Attributes>
             <ExtraData>
              <Entry key="ZoomPanBin">
               <ZoomPanBin id="1350"  >
                <ZoomPanKeyframes>
                 <ZoomPanKeyframe id="1351" timeRangeEnd="-9999999/1" timeRangeDuration="0/1" interpolaterName="linr"  />
                </ZoomPanKeyframes>
               </ZoomPanBin>
              </Entry>
             </ExtraData>
            </VMFile>
            <MetaData>
             <entry key="WinSubProjectDisplayName" val=""/>
            </MetaData>
           </UnifiedMedia>
          </Medias>
         </GenericTrack>
        </StitchedMedia>
        <StitchedMedia id="1352" start="2212" duration="199" scalar="32039/16036" mediaStart="21960/161" mediaDuration="16036/161" minMediaStart="0/1" >
         <Transformer>
          <VectorParam id="1353"  name="translation">
           <InterpolatingParam id="1354" interp="linr"  time="-9999999/1" value="-206.00000000000074" leadInLength="0/1"  />
           <InterpolatingParam id="1355" interp="linr"  time="-9999999/1" value="30.375000000134179" leadInLength="0/1"  />
           <InterpolatingParam id="1356" interp="linr"  time="-9999999/1" value="0" leadInLength="0/1"  />
          </VectorParam>
          <VectorParam id="1357"  name="rotation">
           <InterpolatingParam id="1358" interp="linr"  time="-9999999/1" value="0" leadInLength="0/1"  />
           <InterpolatingParam id="1359" interp="linr"  time="-9999999/1" value="0" leadInLength="0/1"  />
           <InterpolatingParam id="1360" interp="linr"  time="-9999999/1" value="0" leadInLength="0/1"  />
          </VectorParam>
          <VectorParam id="1361"  name="shear">
           <InterpolatingParam id="1362" interp="linr"  time="-9999999/1" value="0" leadInLength="0/1"  />
           <InterpolatingParam id="1363" interp="linr"  time="-9999999/1" value="0" leadInLength="0/1"  />
           <InterpolatingParam id="1364" interp="linr"  time="-9999999/1" value="0" leadInLength="0/1"  />
          </VectorParam>
          <VectorParam id="1365"  name="scale">
           <InterpolatingParam id="1366" interp="linr"  time="-9999999/1" value="0.72291666666681864" leadInLength="0/1"  />
           <InterpolatingParam id="1367" interp="linr"  time="-9999999/1" value="0.72291666666681864" leadInLength="0/1"  />
           <InterpolatingParam id="1368" interp="linr"  time="-9999999/1" value="1" leadInLength="0/1"  />
          </VectorParam>
          <VectorParam id="1369"  name="anchor">
           <InterpolatingParam id="1370" interp="linr"  time="0/1" value="0" leadInLength="0/1"  />
           <InterpolatingParam id="1371" interp="linr"  time="0/1" value="0" leadInLength="0/1"  />
           <InterpolatingParam id="1372" interp="linr"  time="0/1" value="0" leadInLength="0/1"  />
          </VectorParam>
         </Transformer>
         <Parameters>
          <VectorParam id="1373"  name="sourceCrop">
           <InterpolatingParam id="1374" interp="linr"  time="0/1" value="0" leadInLength="0/1"  />
           <InterpolatingParam id="1375" interp="linr"  time="0/1" value="0" leadInLength="0/1"  />
           <InterpolatingParam id="1376" interp="linr"  time="0/1" value="0" leadInLength="0/1"  />
           <InterpolatingParam id="1377" interp="linr"  time="0/1" value="0" leadInLength="0/1"  />
          </VectorParam>
          <VectorParam id="1378"  name="geometryCrop">
           <InterpolatingParam id="1379" interp="linr"  time="-9999999/1" value="0" leadInLength="0/1"  />
           <InterpolatingParam id="1380" interp="linr"  time="-9999999/1" value="0" leadInLength="0/1"  />
           <InterpolatingParam id="1381" interp="linr"  time="-9999999/1" value="0" leadInLength="0/1"  />
           <InterpolatingParam id="1382" interp="linr"  time="-9999999/1" value="0" leadInLength="0/1"  />
          </VectorParam>
          <InterpolatingParam id="1383" interp="linr"  time="-9999999/1" value="1" leadInLength="0/1"  name="opacity"/>
          <InterpolatingParam id="1384" interp="linr"  time="0/1" value="1" leadInLength="0/1"  name="cursorOpacity"/>
          <InterpolatingParam id="1385" interp="linr"  time="0/1" value="1" leadInLength="0/1"  name="cursorScale"/>
          <InterpolatingParam id="1386" interp="linr"  time="0/1" value="0" leadInLength="0/1"  name="volume"/>
          <Parameter id="1387"  name="captions"/>
         </Parameters>
         <Attributes>
          <Attribute id="1388" value="" name="ident"/>
          <Attribute id="1389" value="0" name="mixToMono"/>
         </Attributes>
         <MetaData>
          <entry key="WinSubProjectDisplayName" val=""/>
         </MetaData>
         <ExtraData>
          <Entry key="ZoomPanBin">
           <ZoomPanBin id="1390"  >
            <ZoomPanKeyframes>
             <ZoomPanKeyframe id="1391" timeRangeEnd="-9999999/1" timeRangeDuration="0/1" interpolaterName="linr"  />
            </ZoomPanKeyframes>
           </ZoomPanBin>
          </Entry>
          <Entry key="CursorEffectBin">
           <CursorEffectBin id="1392"  >
            <CursorEffectKeyframes>
            </CursorEffectKeyframes>
           </CursorEffectBin>
          </Entry>
         </ExtraData>
         <GenericTrack id="1393"  >
          <Attributes>
           <Attribute id="1394" value="" name="ident"/>
           <Attribute id="1395" value="0" name="audioMuted"/>
           <Attribute id="1396" value="0" name="videoHidden"/>
          </Attributes>
          <MetaData>
           <entry key="IsLocked" val="False"/>
           <entry key="WinTrackHeight" val="0"/>
          </MetaData>
          <Medias>
           <UnifiedMedia id="1397"  >
            <AMFile id="1398" start="0" duration="191" scalar="1/1" mediaStart="0/1" mediaDuration="191/1" trackNumber="1" src="18" channelNumber="0" >
             <Parameters>
              <InterpolatingParam id="1399" interp="linr"  time="0/1" value="1" leadInLength="0/1"  name="volume"/>
              <Parameter id="1400"  name="captions"/>
             </Parameters>
             <Attributes>
              <Attribute id="1401" value="" name="ident"/>
              <Attribute id="1402" value="44100" name="sampleRate"/>
              <Attribute id="1403" value="16" name="bitDepth"/>
              <Attribute id="1404" value="1" name="gain"/>
              <Attribute id="1405" value="0" name="mixToMono"/>
             </Attributes>
            </AMFile>
            <VMFile id="1406" start="0" duration="191" scalar="1/1" mediaStart="0/1" mediaDuration="191/1" trackNumber="0" src="18" >
             <Transformer>
              <VectorParam id="1407"  name="translation">
               <InterpolatingParam id="1408" interp="linr"  time="-9999999/1" value="0" leadInLength="0/1"  />
               <InterpolatingParam id="1409" interp="linr"  time="-9999999/1" value="0" leadInLength="0/1"  />
               <InterpolatingParam id="1410" interp="linr"  time="-9999999/1" value="0" leadInLength="0/1"  />
              </VectorParam>
              <VectorParam id="1411"  name="rotation">
               <InterpolatingParam id="1412" interp="linr"  time="-9999999/1" value="0" leadInLength="0/1"  />
               <InterpolatingParam id="1413" interp="linr"  time="-9999999/1" value="0" leadInLength="0/1"  />
               <InterpolatingParam id="1414" interp="linr"  time="-9999999/1" value="0" leadInLength="0/1"  />
              </VectorParam>
              <VectorParam id="1415"  name="shear">
               <InterpolatingParam id="1416" interp="linr"  time="-9999999/1" value="0" leadInLength="0/1"  />
               <InterpolatingParam id="1417" interp="linr"  time="-9999999/1" value="0" leadInLength="0/1"  />
               <InterpolatingParam id="1418" interp="linr"  time="-9999999/1" value="0" leadInLength="0/1"  />
              </VectorParam>
              <VectorParam id="1419"  name="scale">
               <InterpolatingParam id="1420" interp="linr"  time="-9999999/1" value="1" leadInLength="0/1"  />
               <InterpolatingParam id="1421" interp="linr"  time="-9999999/1" value="1" leadInLength="0/1"  />
               <InterpolatingParam id="1422" interp="linr"  time="-9999999/1" value="1" leadInLength="0/1"  />
              </VectorParam>
              <VectorParam id="1423"  name="anchor">
               <InterpolatingParam id="1424" interp="linr"  time="0/1" value="0" leadInLength="0/1"  />
               <InterpolatingParam id="1425" interp="linr"  time="0/1" value="0" leadInLength="0/1"  />
               <InterpolatingParam id="1426" interp="linr"  time="0/1" value="0" leadInLength="0/1"  />
              </VectorParam>
             </Transformer>
             <Parameters>
              <VectorParam id="1427"  name="sourceCrop">
               <InterpolatingParam id="1428" interp="linr"  time="0/1" value="0" leadInLength="0/1"  />
               <InterpolatingParam id="1429" interp="linr"  time="0/1" value="0" leadInLength="0/1"  />
               <InterpolatingParam id="1430" interp="linr"  time="0/1" value="0" leadInLength="0/1"  />
               <InterpolatingParam id="1431" interp="linr"  time="0/1" value="0" leadInLength="0/1"  />
              </VectorParam>
              <VectorParam id="1432"  name="geometryCrop">
               <InterpolatingParam id="1433" interp="linr"  time="-9999999/1" value="0" leadInLength="0/1"  />
               <InterpolatingParam id="1434" interp="linr"  time="-9999999/1" value="0" leadInLength="0/1"  />
               <InterpolatingParam id="1435" interp="linr"  time="-9999999/1" value="0" leadInLength="0/1"  />
               <InterpolatingParam id="1436" interp="linr"  time="-9999999/1" value="0" leadInLength="0/1"  />
              </VectorParam>
              <InterpolatingParam id="1437" interp="linr"  time="-9999999/1" value="1" leadInLength="0/1"  name="opacity"/>
             </Parameters>
             <Attributes>
              <Attribute id="1438" value="" name="ident"/>
             </Attributes>
             <ExtraData>
              <Entry key="ZoomPanBin">
               <ZoomPanBin id="1439"  >
                <ZoomPanKeyframes>
                 <ZoomPanKeyframe id="1440" timeRangeEnd="-9999999/1" timeRangeDuration="0/1" interpolaterName="linr"  />
                </ZoomPanKeyframes>
               </ZoomPanBin>
              </Entry>
             </ExtraData>
            </VMFile>
            <MetaData>
             <entry key="WinSubProjectDisplayName" val=""/>
            </MetaData>
           </UnifiedMedia>
           <UnifiedMedia id="1441"  >
            <AMFile id="1442" start="191" duration="311" scalar="1/1" mediaStart="348/1" mediaDuration="311/1" trackNumber="1" src="18" channelNumber="0" >
             <Parameters>
              <InterpolatingParam id="1443" interp="linr"  time="0/1" value="1" leadInLength="0/1"  name="volume"/>
              <Parameter id="1444"  name="captions"/>
             </Parameters>
             <Attributes>
              <Attribute id="1445" value="" name="ident"/>
              <Attribute id="1446" value="44100" name="sampleRate"/>
              <Attribute id="1447" value="16" name="bitDepth"/>
              <Attribute id="1448" value="1" name="gain"/>
              <Attribute id="1449" value="0" name="mixToMono"/>
             </Attributes>
            </AMFile>
            <VMFile id="1450" start="191" duration="311" scalar="1/1" mediaStart="348/1" mediaDuration="311/1" trackNumber="0" src="18" >
             <Transformer>
              <VectorParam id="1451"  name="translation">
               <InterpolatingParam id="1452" interp="linr"  time="-9999999/1" value="0" leadInLength="0/1"  />
               <InterpolatingParam id="1453" interp="linr"  time="-9999999/1" value="0" leadInLength="0/1"  />
               <InterpolatingParam id="1454" interp="linr"  time="-9999999/1" value="0" leadInLength="0/1"  />
              </VectorParam>
              <VectorParam id="1455"  name="rotation">
               <InterpolatingParam id="1456" interp="linr"  time="-9999999/1" value="0" leadInLength="0/1"  />
               <InterpolatingParam id="1457" interp="linr"  time="-9999999/1" value="0" leadInLength="0/1"  />
               <InterpolatingParam id="1458" interp="linr"  time="-9999999/1" value="0" leadInLength="0/1"  />
              </VectorParam>
              <VectorParam id="1459"  name="shear">
               <InterpolatingParam id="1460" interp="linr"  time="-9999999/1" value="0" leadInLength="0/1"  />
               <InterpolatingParam id="1461" interp="linr"  time="-9999999/1" value="0" leadInLength="0/1"  />
               <InterpolatingParam id="1462" interp="linr"  time="-9999999/1" value="0" leadInLength="0/1"  />
              </VectorParam>
              <VectorParam id="1463"  name="scale">
               <InterpolatingParam id="1464" interp="linr"  time="-9999999/1" value="1" leadInLength="0/1"  />
               <InterpolatingParam id="1465" interp="linr"  time="-9999999/1" value="1" leadInLength="0/1"  />
               <InterpolatingParam id="1466" interp="linr"  time="-9999999/1" value="1" leadInLength="0/1"  />
              </VectorParam>
              <VectorParam id="1467"  name="anchor">
               <InterpolatingParam id="1468" interp="linr"  time="0/1" value="0" leadInLength="0/1"  />
               <InterpolatingParam id="1469" interp="linr"  time="0/1" value="0" leadInLength="0/1"  />
               <InterpolatingParam id="1470" interp="linr"  time="0/1" value="0" leadInLength="0/1"  />
              </VectorParam>
             </Transformer>
             <Parameters>
              <VectorParam id="1471"  name="sourceCrop">
               <InterpolatingParam id="1472" interp="linr"  time="0/1" value="0" leadInLength="0/1"  />
               <InterpolatingParam id="1473" interp="linr"  time="0/1" value="0" leadInLength="0/1"  />
               <InterpolatingParam id="1474" interp="linr"  time="0/1" value="0" leadInLength="0/1"  />
               <InterpolatingParam id="1475" interp="linr"  time="0/1" value="0" leadInLength="0/1"  />
              </VectorParam>
              <VectorParam id="1476"  name="geometryCrop">
               <InterpolatingParam id="1477" interp="linr"  time="-9999999/1" value="0" leadInLength="0/1"  />
               <InterpolatingParam id="1478" interp="linr"  time="-9999999/1" value="0" leadInLength="0/1"  />
               <InterpolatingParam id="1479" interp="linr"  time="-9999999/1" value="0" leadInLength="0/1"  />
               <InterpolatingParam id="1480" interp="linr"  time="-9999999/1" value="0" leadInLength="0/1"  />
              </VectorParam>
              <InterpolatingParam id="1481" interp="linr"  time="-9999999/1" value="1" leadInLength="0/1"  name="opacity"/>
             </Parameters>
             <Attributes>
              <Attribute id="1482" value="" name="ident"/>
             </Attributes>
             <ExtraData>
              <Entry key="ZoomPanBin">
               <ZoomPanBin id="1483"  >
                <ZoomPanKeyframes>
                 <ZoomPanKeyframe id="1484" timeRangeEnd="-9999999/1" timeRangeDuration="0/1" interpolaterName="linr"  />
                </ZoomPanKeyframes>
               </ZoomPanBin>
              </Entry>
             </ExtraData>
            </VMFile>
            <MetaData>
             <entry key="WinSubProjectDisplayName" val=""/>
            </MetaData>
           </UnifiedMedia>
          </Medias>
         </GenericTrack>
        </StitchedMedia>
        <StitchedMedia id="1485" start="2411" duration="199" scalar="32039/16036" mediaStart="21960/161" mediaDuration="16036/161" minMediaStart="0/1" >
         <Transformer>
          <VectorParam id="1486"  name="translation">
           <InterpolatingParam id="1487" interp="linr"  time="-9999999/1" value="-206.00000000000074" leadInLength="0/1"  />
           <InterpolatingParam id="1488" interp="linr"  time="-9999999/1" value="30.375000000134179" leadInLength="0/1"  />
           <InterpolatingParam id="1489" interp="linr"  time="-9999999/1" value="0" leadInLength="0/1"  />
          </VectorParam>
          <VectorParam id="1490"  name="rotation">
           <InterpolatingParam id="1491" interp="linr"  time="-9999999/1" value="0" leadInLength="0/1"  />
           <InterpolatingParam id="1492" interp="linr"  time="-9999999/1" value="0" leadInLength="0/1"  />
           <InterpolatingParam id="1493" interp="linr"  time="-9999999/1" value="0" leadInLength="0/1"  />
          </VectorParam>
          <VectorParam id="1494"  name="shear">
           <InterpolatingParam id="1495" interp="linr"  time="-9999999/1" value="0" leadInLength="0/1"  />
           <InterpolatingParam id="1496" interp="linr"  time="-9999999/1" value="0" leadInLength="0/1"  />
           <InterpolatingParam id="1497" interp="linr"  time="-9999999/1" value="0" leadInLength="0/1"  />
          </VectorParam>
          <VectorParam id="1498"  name="scale">
           <InterpolatingParam id="1499" interp="linr"  time="-9999999/1" value="0.72291666666681864" leadInLength="0/1"  />
           <InterpolatingParam id="1500" interp="linr"  time="-9999999/1" value="0.72291666666681864" leadInLength="0/1"  />
           <InterpolatingParam id="1501" interp="linr"  time="-9999999/1" value="1" leadInLength="0/1"  />
          </VectorParam>
          <VectorParam id="1502"  name="anchor">
           <InterpolatingParam id="1503" interp="linr"  time="0/1" value="0" leadInLength="0/1"  />
           <InterpolatingParam id="1504" interp="linr"  time="0/1" value="0" leadInLength="0/1"  />
           <InterpolatingParam id="1505" interp="linr"  time="0/1" value="0" leadInLength="0/1"  />
          </VectorParam>
         </Transformer>
         <Parameters>
          <VectorParam id="1506"  name="sourceCrop">
           <InterpolatingParam id="1507" interp="linr"  time="0/1" value="0" leadInLength="0/1"  />
           <InterpolatingParam id="1508" interp="linr"  time="0/1" value="0" leadInLength="0/1"  />
           <InterpolatingParam id="1509" interp="linr"  time="0/1" value="0" leadInLength="0/1"  />
           <InterpolatingParam id="1510" interp="linr"  time="0/1" value="0" leadInLength="0/1"  />
          </VectorParam>
          <VectorParam id="1511"  name="geometryCrop">
           <InterpolatingParam id="1512" interp="linr"  time="-9999999/1" value="0" leadInLength="0/1"  />
           <InterpolatingParam id="1513" interp="linr"  time="-9999999/1" value="0" leadInLength="0/1"  />
           <InterpolatingParam id="1514" interp="linr"  time="-9999999/1" value="0" leadInLength="0/1"  />
           <InterpolatingParam id="1515" interp="linr"  time="-9999999/1" value="0" leadInLength="0/1"  />
          </VectorParam>
          <InterpolatingParam id="1516" interp="linr"  time="-9999999/1" value="1" leadInLength="0/1"  name="opacity"/>
          <InterpolatingParam id="1517" interp="linr"  time="0/1" value="1" leadInLength="0/1"  name="cursorOpacity"/>
          <InterpolatingParam id="1518" interp="linr"  time="0/1" value="1" leadInLength="0/1"  name="cursorScale"/>
          <InterpolatingParam id="1519" interp="linr"  time="0/1" value="0" leadInLength="0/1"  name="volume"/>
          <Parameter id="1520"  name="captions"/>
         </Parameters>
         <Attributes>
          <Attribute id="1521" value="" name="ident"/>
          <Attribute id="1522" value="0" name="mixToMono"/>
         </Attributes>
         <MetaData>
          <entry key="WinSubProjectDisplayName" val=""/>
         </MetaData>
         <ExtraData>
          <Entry key="ZoomPanBin">
           <ZoomPanBin id="1523"  >
            <ZoomPanKeyframes>
             <ZoomPanKeyframe id="1524" timeRangeEnd="-9999999/1" timeRangeDuration="0/1" interpolaterName="linr"  />
            </ZoomPanKeyframes>
           </ZoomPanBin>
          </Entry>
          <Entry key="CursorEffectBin">
           <CursorEffectBin id="1525"  >
            <CursorEffectKeyframes>
            </CursorEffectKeyframes>
           </CursorEffectBin>
          </Entry>
         </ExtraData>
         <GenericTrack id="1526"  >
          <Attributes>
           <Attribute id="1527" value="" name="ident"/>
           <Attribute id="1528" value="0" name="audioMuted"/>
           <Attribute id="1529" value="0" name="videoHidden"/>
          </Attributes>
          <MetaData>
           <entry key="IsLocked" val="False"/>
           <entry key="WinTrackHeight" val="0"/>
          </MetaData>
          <Medias>
           <UnifiedMedia id="1530"  >
            <AMFile id="1531" start="0" duration="191" scalar="1/1" mediaStart="0/1" mediaDuration="191/1" trackNumber="1" src="18" channelNumber="0" >
             <Parameters>
              <InterpolatingParam id="1532" interp="linr"  time="0/1" value="1" leadInLength="0/1"  name="volume"/>
              <Parameter id="1533"  name="captions"/>
             </Parameters>
             <Attributes>
              <Attribute id="1534" value="" name="ident"/>
              <Attribute id="1535" value="44100" name="sampleRate"/>
              <Attribute id="1536" value="16" name="bitDepth"/>
              <Attribute id="1537" value="1" name="gain"/>
              <Attribute id="1538" value="0" name="mixToMono"/>
             </Attributes>
            </AMFile>
            <VMFile id="1539" start="0" duration="191" scalar="1/1" mediaStart="0/1" mediaDuration="191/1" trackNumber="0" src="18" >
             <Transformer>
              <VectorParam id="1540"  name="translation">
               <InterpolatingParam id="1541" interp="linr"  time="-9999999/1" value="0" leadInLength="0/1"  />
               <InterpolatingParam id="1542" interp="linr"  time="-9999999/1" value="0" leadInLength="0/1"  />
               <InterpolatingParam id="1543" interp="linr"  time="-9999999/1" value="0" leadInLength="0/1"  />
              </VectorParam>
              <VectorParam id="1544"  name="rotation">
               <InterpolatingParam id="1545" interp="linr"  time="-9999999/1" value="0" leadInLength="0/1"  />
               <InterpolatingParam id="1546" interp="linr"  time="-9999999/1" value="0" leadInLength="0/1"  />
               <InterpolatingParam id="1547" interp="linr"  time="-9999999/1" value="0" leadInLength="0/1"  />
              </VectorParam>
              <VectorParam id="1548"  name="shear">
               <InterpolatingParam id="1549" interp="linr"  time="-9999999/1" value="0" leadInLength="0/1"  />
               <InterpolatingParam id="1550" interp="linr"  time="-9999999/1" value="0" leadInLength="0/1"  />
               <InterpolatingParam id="1551" interp="linr"  time="-9999999/1" value="0" leadInLength="0/1"  />
              </VectorParam>
              <VectorParam id="1552"  name="scale">
               <InterpolatingParam id="1553" interp="linr"  time="-9999999/1" value="1" leadInLength="0/1"  />
               <InterpolatingParam id="1554" interp="linr"  time="-9999999/1" value="1" leadInLength="0/1"  />
               <InterpolatingParam id="1555" interp="linr"  time="-9999999/1" value="1" leadInLength="0/1"  />
              </VectorParam>
              <VectorParam id="1556"  name="anchor">
               <InterpolatingParam id="1557" interp="linr"  time="0/1" value="0" leadInLength="0/1"  />
               <InterpolatingParam id="1558" interp="linr"  time="0/1" value="0" leadInLength="0/1"  />
               <InterpolatingParam id="1559" interp="linr"  time="0/1" value="0" leadInLength="0/1"  />
              </VectorParam>
             </Transformer>
             <Parameters>
              <VectorParam id="1560"  name="sourceCrop">
               <InterpolatingParam id="1561" interp="linr"  time="0/1" value="0" leadInLength="0/1"  />
               <InterpolatingParam id="1562" interp="linr"  time="0/1" value="0" leadInLength="0/1"  />
               <InterpolatingParam id="1563" interp="linr"  time="0/1" value="0" leadInLength="0/1"  />
               <InterpolatingParam id="1564" interp="linr"  time="0/1" value="0" leadInLength="0/1"  />
              </VectorParam>
              <VectorParam id="1565"  name="geometryCrop">
               <InterpolatingParam id="1566" interp="linr"  time="-9999999/1" value="0" leadInLength="0/1"  />
               <InterpolatingParam id="1567" interp="linr"  time="-9999999/1" value="0" leadInLength="0/1"  />
               <InterpolatingParam id="1568" interp="linr"  time="-9999999/1" value="0" leadInLength="0/1"  />
               <InterpolatingParam id="1569" interp="linr"  time="-9999999/1" value="0" leadInLength="0/1"  />
              </VectorParam>
              <InterpolatingParam id="1570" interp="linr"  time="-9999999/1" value="1" leadInLength="0/1"  name="opacity"/>
             </Parameters>
             <Attributes>
              <Attribute id="1571" value="" name="ident"/>
             </Attributes>
             <ExtraData>
              <Entry key="ZoomPanBin">
               <ZoomPanBin id="1572"  >
                <ZoomPanKeyframes>
                 <ZoomPanKeyframe id="1573" timeRangeEnd="-9999999/1" timeRangeDuration="0/1" interpolaterName="linr"  />
                </ZoomPanKeyframes>
               </ZoomPanBin>
              </Entry>
             </ExtraData>
            </VMFile>
            <MetaData>
             <entry key="WinSubProjectDisplayName" val=""/>
            </MetaData>
           </UnifiedMedia>
           <UnifiedMedia id="1574"  >
            <AMFile id="1575" start="191" duration="311" scalar="1/1" mediaStart="348/1" mediaDuration="311/1" trackNumber="1" src="18" channelNumber="0" >
             <Parameters>
              <InterpolatingParam id="1576" interp="linr"  time="0/1" value="1" leadInLength="0/1"  name="volume"/>
              <Parameter id="1577"  name="captions"/>
             </Parameters>
             <Attributes>
              <Attribute id="1578" value="" name="ident"/>
              <Attribute id="1579" value="44100" name="sampleRate"/>
              <Attribute id="1580" value="16" name="bitDepth"/>
              <Attribute id="1581" value="1" name="gain"/>
              <Attribute id="1582" value="0" name="mixToMono"/>
             </Attributes>
            </AMFile>
            <VMFile id="1583" start="191" duration="311" scalar="1/1" mediaStart="348/1" mediaDuration="311/1" trackNumber="0" src="18" >
             <Transformer>
              <VectorParam id="1584"  name="translation">
               <InterpolatingParam id="1585" interp="linr"  time="-9999999/1" value="0" leadInLength="0/1"  />
               <InterpolatingParam id="1586" interp="linr"  time="-9999999/1" value="0" leadInLength="0/1"  />
               <InterpolatingParam id="1587" interp="linr"  time="-9999999/1" value="0" leadInLength="0/1"  />
              </VectorParam>
              <VectorParam id="1588"  name="rotation">
               <InterpolatingParam id="1589" interp="linr"  time="-9999999/1" value="0" leadInLength="0/1"  />
               <InterpolatingParam id="1590" interp="linr"  time="-9999999/1" value="0" leadInLength="0/1"  />
               <InterpolatingParam id="1591" interp="linr"  time="-9999999/1" value="0" leadInLength="0/1"  />
              </VectorParam>
              <VectorParam id="1592"  name="shear">
               <InterpolatingParam id="1593" interp="linr"  time="-9999999/1" value="0" leadInLength="0/1"  />
               <InterpolatingParam id="1594" interp="linr"  time="-9999999/1" value="0" leadInLength="0/1"  />
               <InterpolatingParam id="1595" interp="linr"  time="-9999999/1" value="0" leadInLength="0/1"  />
              </VectorParam>
              <VectorParam id="1596"  name="scale">
               <InterpolatingParam id="1597" interp="linr"  time="-9999999/1" value="1" leadInLength="0/1"  />
               <InterpolatingParam id="1598" interp="linr"  time="-9999999/1" value="1" leadInLength="0/1"  />
               <InterpolatingParam id="1599" interp="linr"  time="-9999999/1" value="1" leadInLength="0/1"  />
              </VectorParam>
              <VectorParam id="1600"  name="anchor">
               <InterpolatingParam id="1601" interp="linr"  time="0/1" value="0" leadInLength="0/1"  />
               <InterpolatingParam id="1602" interp="linr"  time="0/1" value="0" leadInLength="0/1"  />
               <InterpolatingParam id="1603" interp="linr"  time="0/1" value="0" leadInLength="0/1"  />
              </VectorParam>
             </Transformer>
             <Parameters>
              <VectorParam id="1604"  name="sourceCrop">
               <InterpolatingParam id="1605" interp="linr"  time="0/1" value="0" leadInLength="0/1"  />
               <InterpolatingParam id="1606" interp="linr"  time="0/1" value="0" leadInLength="0/1"  />
               <InterpolatingParam id="1607" interp="linr"  time="0/1" value="0" leadInLength="0/1"  />
               <InterpolatingParam id="1608" interp="linr"  time="0/1" value="0" leadInLength="0/1"  />
              </VectorParam>
              <VectorParam id="1609"  name="geometryCrop">
               <InterpolatingParam id="1610" interp="linr"  time="-9999999/1" value="0" leadInLength="0/1"  />
               <InterpolatingParam id="1611" interp="linr"  time="-9999999/1" value="0" leadInLength="0/1"  />
               <InterpolatingParam id="1612" interp="linr"  time="-9999999/1" value="0" leadInLength="0/1"  />
               <InterpolatingParam id="1613" interp="linr"  time="-9999999/1" value="0" leadInLength="0/1"  />
              </VectorParam>
              <InterpolatingParam id="1614" interp="linr"  time="-9999999/1" value="1" leadInLength="0/1"  name="opacity"/>
             </Parameters>
             <Attributes>
              <Attribute id="1615" value="" name="ident"/>
             </Attributes>
             <ExtraData>
              <Entry key="ZoomPanBin">
               <ZoomPanBin id="1616"  >
                <ZoomPanKeyframes>
                 <ZoomPanKeyframe id="1617" timeRangeEnd="-9999999/1" timeRangeDuration="0/1" interpolaterName="linr"  />
                </ZoomPanKeyframes>
               </ZoomPanBin>
              </Entry>
             </ExtraData>
            </VMFile>
            <MetaData>
             <entry key="WinSubProjectDisplayName" val=""/>
            </MetaData>
           </UnifiedMedia>
          </Medias>
         </GenericTrack>
        </StitchedMedia>
        <StitchedMedia id="1618" start="2610" duration="243" scalar="32039/16036" mediaStart="21960/161" mediaDuration="3896748/32039" minMediaStart="0/1" >
         <Transformer>
          <VectorParam id="1619"  name="translation">
           <InterpolatingParam id="1620" interp="linr"  time="-9999999/1" value="-206.00000000000074" leadInLength="0/1"  />
           <InterpolatingParam id="1621" interp="linr"  time="-9999999/1" value="30.375000000134179" leadInLength="0/1"  />
           <InterpolatingParam id="1622" interp="linr"  time="-9999999/1" value="0" leadInLength="0/1"  />
          </VectorParam>
          <VectorParam id="1623"  name="rotation">
           <InterpolatingParam id="1624" interp="linr"  time="-9999999/1" value="0" leadInLength="0/1"  />
           <InterpolatingParam id="1625" interp="linr"  time="-9999999/1" value="0" leadInLength="0/1"  />
           <InterpolatingParam id="1626" interp="linr"  time="-9999999/1" value="0" leadInLength="0/1"  />
          </VectorParam>
          <VectorParam id="1627"  name="shear">
           <InterpolatingParam id="1628" interp="linr"  time="-9999999/1" value="0" leadInLength="0/1"  />
           <InterpolatingParam id="1629" interp="linr"  time="-9999999/1" value="0" leadInLength="0/1"  />
           <InterpolatingParam id="1630" interp="linr"  time="-9999999/1" value="0" leadInLength="0/1"  />
          </VectorParam>
          <VectorParam id="1631"  name="scale">
           <InterpolatingParam id="1632" interp="linr"  time="-9999999/1" value="0.72291666666681864" leadInLength="0/1"  />
           <InterpolatingParam id="1633" interp="linr"  time="-9999999/1" value="0.72291666666681864" leadInLength="0/1"  />
           <InterpolatingParam id="1634" interp="linr"  time="-9999999/1" value="1" leadInLength="0/1"  />
          </VectorParam>
          <VectorParam id="1635"  name="anchor">
           <InterpolatingParam id="1636" interp="linr"  time="0/1" value="0" leadInLength="0/1"  />
           <InterpolatingParam id="1637" interp="linr"  time="0/1" value="0" leadInLength="0/1"  />
           <InterpolatingParam id="1638" interp="linr"  time="0/1" value="0" leadInLength="0/1"  />
          </VectorParam>
         </Transformer>
         <Parameters>
          <VectorParam id="1639"  name="sourceCrop">
           <InterpolatingParam id="1640" interp="linr"  time="0/1" value="0" leadInLength="0/1"  />
           <InterpolatingParam id="1641" interp="linr"  time="0/1" value="0" leadInLength="0/1"  />
           <InterpolatingParam id="1642" interp="linr"  time="0/1" value="0" leadInLength="0/1"  />
           <InterpolatingParam id="1643" interp="linr"  time="0/1" value="0" leadInLength="0/1"  />
          </VectorParam>
          <VectorParam id="1644"  name="geometryCrop">
           <InterpolatingParam id="1645" interp="linr"  time="-9999999/1" value="0" leadInLength="0/1"  />
           <InterpolatingParam id="1646" interp="linr"  time="-9999999/1" value="0" leadInLength="0/1"  />
           <InterpolatingParam id="1647" interp="linr"  time="-9999999/1" value="0" leadInLength="0/1"  />
           <InterpolatingParam id="1648" interp="linr"  time="-9999999/1" value="0" leadInLength="0/1"  />
          </VectorParam>
          <InterpolatingParam id="1649" interp="linr"  time="-9999999/1" value="1" leadInLength="0/1"  name="opacity"/>
          <InterpolatingParam id="1650" interp="linr"  time="0/1" value="1" leadInLength="0/1"  name="cursorOpacity"/>
          <InterpolatingParam id="1651" interp="linr"  time="0/1" value="1" leadInLength="0/1"  name="cursorScale"/>
          <InterpolatingParam id="1652" interp="linr"  time="0/1" value="0" leadInLength="0/1"  name="volume"/>
          <Parameter id="1653"  name="captions"/>
         </Parameters>
         <Attributes>
          <Attribute id="1654" value="" name="ident"/>
          <Attribute id="1655" value="0" name="mixToMono"/>
         </Attributes>
         <MetaData>
          <entry key="WinSubProjectDisplayName" val=""/>
         </MetaData>
         <ExtraData>
          <Entry key="ZoomPanBin">
           <ZoomPanBin id="1656"  >
            <ZoomPanKeyframes>
             <ZoomPanKeyframe id="1657" timeRangeEnd="-9999999/1" timeRangeDuration="0/1" interpolaterName="linr"  />
            </ZoomPanKeyframes>
           </ZoomPanBin>
          </Entry>
          <Entry key="CursorEffectBin">
           <CursorEffectBin id="1658"  >
            <CursorEffectKeyframes>
            </CursorEffectKeyframes>
           </CursorEffectBin>
          </Entry>
         </ExtraData>
         <GenericTrack id="1659"  >
          <Attributes>
           <Attribute id="1660" value="" name="ident"/>
           <Attribute id="1661" value="0" name="audioMuted"/>
           <Attribute id="1662" value="0" name="videoHidden"/>
          </Attributes>
          <MetaData>
           <entry key="IsLocked" val="False"/>
           <entry key="WinTrackHeight" val="0"/>
          </MetaData>
          <Medias>
           <UnifiedMedia id="1663"  >
            <AMFile id="1664" start="0" duration="191" scalar="1/1" mediaStart="0/1" mediaDuration="191/1" trackNumber="1" src="18" channelNumber="0" >
             <Parameters>
              <InterpolatingParam id="1665" interp="linr"  time="0/1" value="1" leadInLength="0/1"  name="volume"/>
              <Parameter id="1666"  name="captions"/>
             </Parameters>
             <Attributes>
              <Attribute id="1667" value="" name="ident"/>
              <Attribute id="1668" value="44100" name="sampleRate"/>
              <Attribute id="1669" value="16" name="bitDepth"/>
              <Attribute id="1670" value="1" name="gain"/>
              <Attribute id="1671" value="0" name="mixToMono"/>
             </Attributes>
            </AMFile>
            <VMFile id="1672" start="0" duration="191" scalar="1/1" mediaStart="0/1" mediaDuration="191/1" trackNumber="0" src="18" >
             <Transformer>
              <VectorParam id="1673"  name="translation">
               <InterpolatingParam id="1674" interp="linr"  time="-9999999/1" value="0" leadInLength="0/1"  />
               <InterpolatingParam id="1675" interp="linr"  time="-9999999/1" value="0" leadInLength="0/1"  />
               <InterpolatingParam id="1676" interp="linr"  time="-9999999/1" value="0" leadInLength="0/1"  />
              </VectorParam>
              <VectorParam id="1677"  name="rotation">
               <InterpolatingParam id="1678" interp="linr"  time="-9999999/1" value="0" leadInLength="0/1"  />
               <InterpolatingParam id="1679" interp="linr"  time="-9999999/1" value="0" leadInLength="0/1"  />
               <InterpolatingParam id="1680" interp="linr"  time="-9999999/1" value="0" leadInLength="0/1"  />
              </VectorParam>
              <VectorParam id="1681"  name="shear">
               <InterpolatingParam id="1682" interp="linr"  time="-9999999/1" value="0" leadInLength="0/1"  />
               <InterpolatingParam id="1683" interp="linr"  time="-9999999/1" value="0" leadInLength="0/1"  />
               <InterpolatingParam id="1684" interp="linr"  time="-9999999/1" value="0" leadInLength="0/1"  />
              </VectorParam>
              <VectorParam id="1685"  name="scale">
               <InterpolatingParam id="1686" interp="linr"  time="-9999999/1" value="1" leadInLength="0/1"  />
               <InterpolatingParam id="1687" interp="linr"  time="-9999999/1" value="1" leadInLength="0/1"  />
               <InterpolatingParam id="1688" interp="linr"  time="-9999999/1" value="1" leadInLength="0/1"  />
              </VectorParam>
              <VectorParam id="1689"  name="anchor">
               <InterpolatingParam id="1690" interp="linr"  time="0/1" value="0" leadInLength="0/1"  />
               <InterpolatingParam id="1691" interp="linr"  time="0/1" value="0" leadInLength="0/1"  />
               <InterpolatingParam id="1692" interp="linr"  time="0/1" value="0" leadInLength="0/1"  />
              </VectorParam>
             </Transformer>
             <Parameters>
              <VectorParam id="1693"  name="sourceCrop">
               <InterpolatingParam id="1694" interp="linr"  time="0/1" value="0" leadInLength="0/1"  />
               <InterpolatingParam id="1695" interp="linr"  time="0/1" value="0" leadInLength="0/1"  />
               <InterpolatingParam id="1696" interp="linr"  time="0/1" value="0" leadInLength="0/1"  />
               <InterpolatingParam id="1697" interp="linr"  time="0/1" value="0" leadInLength="0/1"  />
              </VectorParam>
              <VectorParam id="1698"  name="geometryCrop">
               <InterpolatingParam id="1699" interp="linr"  time="-9999999/1" value="0" leadInLength="0/1"  />
               <InterpolatingParam id="1700" interp="linr"  time="-9999999/1" value="0" leadInLength="0/1"  />
               <InterpolatingParam id="1701" interp="linr"  time="-9999999/1" value="0" leadInLength="0/1"  />
               <InterpolatingParam id="1702" interp="linr"  time="-9999999/1" value="0" leadInLength="0/1"  />
              </VectorParam>
              <InterpolatingParam id="1703" interp="linr"  time="-9999999/1" value="1" leadInLength="0/1"  name="opacity"/>
             </Parameters>
             <Attributes>
              <Attribute id="1704" value="" name="ident"/>
             </Attributes>
             <ExtraData>
              <Entry key="ZoomPanBin">
               <ZoomPanBin id="1705"  >
                <ZoomPanKeyframes>
                 <ZoomPanKeyframe id="1706" timeRangeEnd="-9999999/1" timeRangeDuration="0/1" interpolaterName="linr"  />
                </ZoomPanKeyframes>
               </ZoomPanBin>
              </Entry>
             </ExtraData>
            </VMFile>
            <MetaData>
             <entry key="WinSubProjectDisplayName" val=""/>
            </MetaData>
           </UnifiedMedia>
           <UnifiedMedia id="1707"  >
            <AMFile id="1708" start="191" duration="311" scalar="1/1" mediaStart="348/1" mediaDuration="311/1" trackNumber="1" src="18" channelNumber="0" >
             <Parameters>
              <InterpolatingParam id="1709" interp="linr"  time="0/1" value="1" leadInLength="0/1"  name="volume"/>
              <Parameter id="1710"  name="captions"/>
             </Parameters>
             <Attributes>
              <Attribute id="1711" value="" name="ident"/>
              <Attribute id="1712" value="44100" name="sampleRate"/>
              <Attribute id="1713" value="16" name="bitDepth"/>
              <Attribute id="1714" value="1" name="gain"/>
              <Attribute id="1715" value="0" name="mixToMono"/>
             </Attributes>
            </AMFile>
            <VMFile id="1716" start="191" duration="311" scalar="1/1" mediaStart="348/1" mediaDuration="311/1" trackNumber="0" src="18" >
             <Transformer>
              <VectorParam id="1717"  name="translation">
               <InterpolatingParam id="1718" interp="linr"  time="-9999999/1" value="0" leadInLength="0/1"  />
               <InterpolatingParam id="1719" interp="linr"  time="-9999999/1" value="0" leadInLength="0/1"  />
               <InterpolatingParam id="1720" interp="linr"  time="-9999999/1" value="0" leadInLength="0/1"  />
              </VectorParam>
              <VectorParam id="1721"  name="rotation">
               <InterpolatingParam id="1722" interp="linr"  time="-9999999/1" value="0" leadInLength="0/1"  />
               <InterpolatingParam id="1723" interp="linr"  time="-9999999/1" value="0" leadInLength="0/1"  />
               <InterpolatingParam id="1724" interp="linr"  time="-9999999/1" value="0" leadInLength="0/1"  />
              </VectorParam>
              <VectorParam id="1725"  name="shear">
               <InterpolatingParam id="1726" interp="linr"  time="-9999999/1" value="0" leadInLength="0/1"  />
               <InterpolatingParam id="1727" interp="linr"  time="-9999999/1" value="0" leadInLength="0/1"  />
               <InterpolatingParam id="1728" interp="linr"  time="-9999999/1" value="0" leadInLength="0/1"  />
              </VectorParam>
              <VectorParam id="1729"  name="scale">
               <InterpolatingParam id="1730" interp="linr"  time="-9999999/1" value="1" leadInLength="0/1"  />
               <InterpolatingParam id="1731" interp="linr"  time="-9999999/1" value="1" leadInLength="0/1"  />
               <InterpolatingParam id="1732" interp="linr"  time="-9999999/1" value="1" leadInLength="0/1"  />
              </VectorParam>
              <VectorParam id="1733"  name="anchor">
               <InterpolatingParam id="1734" interp="linr"  time="0/1" value="0" leadInLength="0/1"  />
               <InterpolatingParam id="1735" interp="linr"  time="0/1" value="0" leadInLength="0/1"  />
               <InterpolatingParam id="1736" interp="linr"  time="0/1" value="0" leadInLength="0/1"  />
              </VectorParam>
             </Transformer>
             <Parameters>
              <VectorParam id="1737"  name="sourceCrop">
               <InterpolatingParam id="1738" interp="linr"  time="0/1" value="0" leadInLength="0/1"  />
               <InterpolatingParam id="1739" interp="linr"  time="0/1" value="0" leadInLength="0/1"  />
               <InterpolatingParam id="1740" interp="linr"  time="0/1" value="0" leadInLength="0/1"  />
               <InterpolatingParam id="1741" interp="linr"  time="0/1" value="0" leadInLength="0/1"  />
              </VectorParam>
              <VectorParam id="1742"  name="geometryCrop">
               <InterpolatingParam id="1743" interp="linr"  time="-9999999/1" value="0" leadInLength="0/1"  />
               <InterpolatingParam id="1744" interp="linr"  time="-9999999/1" value="0" leadInLength="0/1"  />
               <InterpolatingParam id="1745" interp="linr"  time="-9999999/1" value="0" leadInLength="0/1"  />
               <InterpolatingParam id="1746" interp="linr"  time="-9999999/1" value="0" leadInLength="0/1"  />
              </VectorParam>
              <InterpolatingParam id="1747" interp="linr"  time="-9999999/1" value="1" leadInLength="0/1"  name="opacity"/>
             </Parameters>
             <Attributes>
              <Attribute id="1748" value="" name="ident"/>
             </Attributes>
             <ExtraData>
              <Entry key="ZoomPanBin">
               <ZoomPanBin id="1749"  >
                <ZoomPanKeyframes>
                 <ZoomPanKeyframe id="1750" timeRangeEnd="-9999999/1" timeRangeDuration="0/1" interpolaterName="linr"  />
                </ZoomPanKeyframes>
               </ZoomPanBin>
              </Entry>
             </ExtraData>
            </VMFile>
            <MetaData>
             <entry key="WinSubProjectDisplayName" val=""/>
            </MetaData>
           </UnifiedMedia>
          </Medias>
         </GenericTrack>
        </StitchedMedia>
        <StitchedMedia id="1751" start="2853" duration="223" scalar="32039/16036" mediaStart="8266788/32039" mediaDuration="3576028/32039" minMediaStart="0/1" >
         <Transformer>
          <VectorParam id="1752"  name="translation">
           <InterpolatingParam id="1753" interp="linr"  >
            <Keyframes>
            <Keyframe id="1754"  time="-9999999/1" value="-206.00000000000074" leadInLength="0/1"  />
            <Keyframe id="1755"  time="11634348/32039" value="-341.77777777791005" leadInLength="3335488/32039"  interpolater="leadin-linr"  />
            </Keyframes>
           </InterpolatingParam>
           <InterpolatingParam id="1756" interp="linr"  >
            <Keyframes>
            <Keyframe id="1757"  time="-9999999/1" value="30.375000000134179" leadInLength="0/1"  />
            <Keyframe id="1758"  time="11634348/32039" value="11.37499999984836" leadInLength="3335488/32039"  interpolater="leadin-linr"  />
            </Keyframes>
           </InterpolatingParam>
           <InterpolatingParam id="1759" interp="linr"  >
            <Keyframes>
            <Keyframe id="1760"  time="-9999999/1" value="0" leadInLength="0/1"  />
            <Keyframe id="1761"  time="11634348/32039" value="-3.4106051316482886e-010" leadInLength="3335488/32039"  interpolater="leadin-linr"  />
            </Keyframes>
           </InterpolatingParam>
          </VectorParam>
          <VectorParam id="1762"  name="rotation">
           <InterpolatingParam id="1763" interp="linr"  >
            <Keyframes>
            <Keyframe id="1764"  time="-9999999/1" value="0" leadInLength="0/1"  />
            <Keyframe id="1765"  time="11634348/32039" value="0" leadInLength="3335488/32039"  interpolater="leadin-linr"  />
            </Keyframes>
           </InterpolatingParam>
           <InterpolatingParam id="1766" interp="linr"  >
            <Keyframes>
            <Keyframe id="1767"  time="-9999999/1" value="0" leadInLength="0/1"  />
            <Keyframe id="1768"  time="11634348/32039" value="0" leadInLength="3335488/32039"  interpolater="leadin-linr"  />
            </Keyframes>
           </InterpolatingParam>
           <InterpolatingParam id="1769" interp="linr"  >
            <Keyframes>
            <Keyframe id="1770"  time="-9999999/1" value="0" leadInLength="0/1"  />
            <Keyframe id="1771"  time="11634348/32039" value="0" leadInLength="3335488/32039"  interpolater="leadin-linr"  />
            </Keyframes>
           </InterpolatingParam>
          </VectorParam>
          <VectorParam id="1772"  name="shear">
           <InterpolatingParam id="1773" interp="linr"  >
            <Keyframes>
            <Keyframe id="1774"  time="-9999999/1" value="0" leadInLength="0/1"  />
            <Keyframe id="1775"  time="11634348/32039" value="0" leadInLength="3335488/32039"  interpolater="leadin-linr"  />
            </Keyframes>
           </InterpolatingParam>
           <InterpolatingParam id="1776" interp="linr"  >
            <Keyframes>
            <Keyframe id="1777"  time="-9999999/1" value="0" leadInLength="0/1"  />
            <Keyframe id="1778"  time="11634348/32039" value="0" leadInLength="3335488/32039"  interpolater="leadin-linr"  />
            </Keyframes>
           </InterpolatingParam>
           <InterpolatingParam id="1779" interp="linr"  >
            <Keyframes>
            <Keyframe id="1780"  time="-9999999/1" value="0" leadInLength="0/1"  />
            <Keyframe id="1781"  time="11634348/32039" value="0" leadInLength="3335488/32039"  interpolater="leadin-linr"  />
            </Keyframes>
           </InterpolatingParam>
          </VectorParam>
          <VectorParam id="1782"  name="scale">
           <InterpolatingParam id="1783" interp="linr"  >
            <Keyframes>
            <Keyframe id="1784"  time="-9999999/1" value="0.72291666666681864" leadInLength="0/1"  />
            <Keyframe id="1785"  time="11634348/32039" value="0.68773148148143548" leadInLength="3335488/32039"  interpolater="leadin-linr"  />
            </Keyframes>
           </InterpolatingParam>
           <InterpolatingParam id="1786" interp="linr"  >
            <Keyframes>
            <Keyframe id="1787"  time="-9999999/1" value="0.72291666666681864" leadInLength="0/1"  />
            <Keyframe id="1788"  time="11634348/32039" value="0.6877314814814357" leadInLength="3335488/32039"  interpolater="leadin-linr"  />
            </Keyframes>
           </InterpolatingParam>
           <InterpolatingParam id="1789" interp="linr"  >
            <Keyframes>
            <Keyframe id="1790"  time="-9999999/1" value="1" leadInLength="0/1"  />
            <Keyframe id="1791"  time="11634348/32039" value="1" leadInLength="3335488/32039"  interpolater="leadin-linr"  />
            </Keyframes>
           </InterpolatingParam>
          </VectorParam>
          <VectorParam id="1792"  name="anchor">
           <InterpolatingParam id="1793" interp="linr"  time="0/1" value="0" leadInLength="0/1"  />
           <InterpolatingParam id="1794" interp="linr"  time="0/1" value="0" leadInLength="0/1"  />
           <InterpolatingParam id="1795" interp="linr"  time="0/1" value="0" leadInLength="0/1"  />
          </VectorParam>
         </Transformer>
         <Parameters>
          <VectorParam id="1796"  name="sourceCrop">
           <InterpolatingParam id="1797" interp="linr"  time="0/1" value="0" leadInLength="0/1"  />
           <InterpolatingParam id="1798" interp="linr"  time="0/1" value="0" leadInLength="0/1"  />
           <InterpolatingParam id="1799" interp="linr"  time="0/1" value="0" leadInLength="0/1"  />
           <InterpolatingParam id="1800" interp="linr"  time="0/1" value="0" leadInLength="0/1"  />
          </VectorParam>
          <VectorParam id="1801"  name="geometryCrop">
           <InterpolatingParam id="1802" interp="linr"  >
            <Keyframes>
            <Keyframe id="1803"  time="-9999999/1" value="0" leadInLength="0/1"  />
            <Keyframe id="1804"  time="11634348/32039" value="0" leadInLength="3335488/32039"  interpolater="leadin-linr"  />
            </Keyframes>
           </InterpolatingParam>
           <InterpolatingParam id="1805" interp="linr"  >
            <Keyframes>
            <Keyframe id="1806"  time="-9999999/1" value="0" leadInLength="0/1"  />
            <Keyframe id="1807"  time="11634348/32039" value="0" leadInLength="3335488/32039"  interpolater="leadin-linr"  />
            </Keyframes>
           </InterpolatingParam>
           <InterpolatingParam id="1808" interp="linr"  >
            <Keyframes>
            <Keyframe id="1809"  time="-9999999/1" value="0" leadInLength="0/1"  />
            <Keyframe id="1810"  time="11634348/32039" value="0" leadInLength="3335488/32039"  interpolater="leadin-linr"  />
            </Keyframes>
           </InterpolatingParam>
           <InterpolatingParam id="1811" interp="linr"  >
            <Keyframes>
            <Keyframe id="1812"  time="-9999999/1" value="0" leadInLength="0/1"  />
            <Keyframe id="1813"  time="11634348/32039" value="0" leadInLength="3335488/32039"  interpolater="leadin-linr"  />
            </Keyframes>
           </InterpolatingParam>
          </VectorParam>
          <InterpolatingParam id="1814" interp="linr"  name="opacity">
           <Keyframes>
           <Keyframe id="1815"  time="-9999999/1" value="1" leadInLength="0/1"  />
           <Keyframe id="1816"  time="11634348/32039" value="1" leadInLength="3335488/32039"  interpolater="leadin-linr"  />
           </Keyframes>
          </InterpolatingParam>
          <InterpolatingParam id="1817" interp="linr"  time="0/1" value="1" leadInLength="0/1"  name="cursorOpacity"/>
          <InterpolatingParam id="1818" interp="linr"  time="0/1" value="1" leadInLength="0/1"  name="cursorScale"/>
          <InterpolatingParam id="1819" interp="linr"  time="0/1" value="0" leadInLength="0/1"  name="volume"/>
          <Parameter id="1820"  name="captions"/>
         </Parameters>
         <Attributes>
          <Attribute id="1821" value="" name="ident"/>
          <Attribute id="1822" value="0" name="mixToMono"/>
         </Attributes>
         <MetaData>
          <entry key="WinSubProjectDisplayName" val=""/>
         </MetaData>
         <ExtraData>
          <Entry key="ZoomPanBin">
           <ZoomPanBin id="1823"  >
            <ZoomPanKeyframes>
             <ZoomPanKeyframe id="1824" timeRangeEnd="-9999999/1" timeRangeDuration="0/1" interpolaterName="linr"  />
             <ZoomPanKeyframe id="1825" timeRangeEnd="11634348/32039" timeRangeDuration="3335488/32039" interpolaterName="linr"  />
            </ZoomPanKeyframes>
           </ZoomPanBin>
          </Entry>
          <Entry key="CursorEffectBin">
           <CursorEffectBin id="1826"  >
            <CursorEffectKeyframes>
            </CursorEffectKeyframes>
           </CursorEffectBin>
          </Entry>
         </ExtraData>
         <GenericTrack id="1827"  >
          <Attributes>
           <Attribute id="1828" value="" name="ident"/>
           <Attribute id="1829" value="0" name="audioMuted"/>
           <Attribute id="1830" value="0" name="videoHidden"/>
          </Attributes>
          <MetaData>
           <entry key="IsLocked" val="False"/>
           <entry key="WinTrackHeight" val="0"/>
          </MetaData>
          <Medias>
           <UnifiedMedia id="1831"  >
            <AMFile id="1832" start="0" duration="191" scalar="1/1" mediaStart="0/1" mediaDuration="191/1" trackNumber="1" src="18" channelNumber="0" >
             <Parameters>
              <InterpolatingParam id="1833" interp="linr"  time="0/1" value="1" leadInLength="0/1"  name="volume"/>
              <Parameter id="1834"  name="captions"/>
             </Parameters>
             <Attributes>
              <Attribute id="1835" value="" name="ident"/>
              <Attribute id="1836" value="44100" name="sampleRate"/>
              <Attribute id="1837" value="16" name="bitDepth"/>
              <Attribute id="1838" value="1" name="gain"/>
              <Attribute id="1839" value="0" name="mixToMono"/>
             </Attributes>
            </AMFile>
            <VMFile id="1840" start="0" duration="191" scalar="1/1" mediaStart="0/1" mediaDuration="191/1" trackNumber="0" src="18" >
             <Transformer>
              <VectorParam id="1841"  name="translation">
               <InterpolatingParam id="1842" interp="linr"  time="-9999999/1" value="0" leadInLength="0/1"  />
               <InterpolatingParam id="1843" interp="linr"  time="-9999999/1" value="0" leadInLength="0/1"  />
               <InterpolatingParam id="1844" interp="linr"  time="-9999999/1" value="0" leadInLength="0/1"  />
              </VectorParam>
              <VectorParam id="1845"  name="rotation">
               <InterpolatingParam id="1846" interp="linr"  time="-9999999/1" value="0" leadInLength="0/1"  />
               <InterpolatingParam id="1847" interp="linr"  time="-9999999/1" value="0" leadInLength="0/1"  />
               <InterpolatingParam id="1848" interp="linr"  time="-9999999/1" value="0" leadInLength="0/1"  />
              </VectorParam>
              <VectorParam id="1849"  name="shear">
               <InterpolatingParam id="1850" interp="linr"  time="-9999999/1" value="0" leadInLength="0/1"  />
               <InterpolatingParam id="1851" interp="linr"  time="-9999999/1" value="0" leadInLength="0/1"  />
               <InterpolatingParam id="1852" interp="linr"  time="-9999999/1" value="0" leadInLength="0/1"  />
              </VectorParam>
              <VectorParam id="1853"  name="scale">
               <InterpolatingParam id="1854" interp="linr"  time="-9999999/1" value="1" leadInLength="0/1"  />
               <InterpolatingParam id="1855" interp="linr"  time="-9999999/1" value="1" leadInLength="0/1"  />
               <InterpolatingParam id="1856" interp="linr"  time="-9999999/1" value="1" leadInLength="0/1"  />
              </VectorParam>
              <VectorParam id="1857"  name="anchor">
               <InterpolatingParam id="1858" interp="linr"  time="0/1" value="0" leadInLength="0/1"  />
               <InterpolatingParam id="1859" interp="linr"  time="0/1" value="0" leadInLength="0/1"  />
               <InterpolatingParam id="1860" interp="linr"  time="0/1" value="0" leadInLength="0/1"  />
              </VectorParam>
             </Transformer>
             <Parameters>
              <VectorParam id="1861"  name="sourceCrop">
               <InterpolatingParam id="1862" interp="linr"  time="0/1" value="0" leadInLength="0/1"  />
               <InterpolatingParam id="1863" interp="linr"  time="0/1" value="0" leadInLength="0/1"  />
               <InterpolatingParam id="1864" interp="linr"  time="0/1" value="0" leadInLength="0/1"  />
               <InterpolatingParam id="1865" interp="linr"  time="0/1" value="0" leadInLength="0/1"  />
              </VectorParam>
              <VectorParam id="1866"  name="geometryCrop">
               <InterpolatingParam id="1867" interp="linr"  time="-9999999/1" value="0" leadInLength="0/1"  />
               <InterpolatingParam id="1868" interp="linr"  time="-9999999/1" value="0" leadInLength="0/1"  />
               <InterpolatingParam id="1869" interp="linr"  time="-9999999/1" value="0" leadInLength="0/1"  />
               <InterpolatingParam id="1870" interp="linr"  time="-9999999/1" value="0" leadInLength="0/1"  />
              </VectorParam>
              <InterpolatingParam id="1871" interp="linr"  time="-9999999/1" value="1" leadInLength="0/1"  name="opacity"/>
             </Parameters>
             <Attributes>
              <Attribute id="1872" value="" name="ident"/>
             </Attributes>
             <ExtraData>
              <Entry key="ZoomPanBin">
               <ZoomPanBin id="1873"  >
                <ZoomPanKeyframes>
                 <ZoomPanKeyframe id="1874" timeRangeEnd="-9999999/1" timeRangeDuration="0/1" interpolaterName="linr"  />
                </ZoomPanKeyframes>
               </ZoomPanBin>
              </Entry>
             </ExtraData>
            </VMFile>
            <MetaData>
             <entry key="WinSubProjectDisplayName" val=""/>
            </MetaData>
           </UnifiedMedia>
           <UnifiedMedia id="1875"  >
            <AMFile id="1876" start="191" duration="311" scalar="1/1" mediaStart="348/1" mediaDuration="311/1" trackNumber="1" src="18" channelNumber="0" >
             <Parameters>
              <InterpolatingParam id="1877" interp="linr"  time="0/1" value="1" leadInLength="0/1"  name="volume"/>
              <Parameter id="1878"  name="captions"/>
             </Parameters>
             <Attributes>
              <Attribute id="1879" value="" name="ident"/>
              <Attribute id="1880" value="44100" name="sampleRate"/>
              <Attribute id="1881" value="16" name="bitDepth"/>
              <Attribute id="1882" value="1" name="gain"/>
              <Attribute id="1883" value="0" name="mixToMono"/>
             </Attributes>
            </AMFile>
            <VMFile id="1884" start="191" duration="311" scalar="1/1" mediaStart="348/1" mediaDuration="311/1" trackNumber="0" src="18" >
             <Transformer>
              <VectorParam id="1885"  name="translation">
               <InterpolatingParam id="1886" interp="linr"  time="-9999999/1" value="0" leadInLength="0/1"  />
               <InterpolatingParam id="1887" interp="linr"  time="-9999999/1" value="0" leadInLength="0/1"  />
               <InterpolatingParam id="1888" interp="linr"  time="-9999999/1" value="0" leadInLength="0/1"  />
              </VectorParam>
              <VectorParam id="1889"  name="rotation">
               <InterpolatingParam id="1890" interp="linr"  time="-9999999/1" value="0" leadInLength="0/1"  />
               <InterpolatingParam id="1891" interp="linr"  time="-9999999/1" value="0" leadInLength="0/1"  />
               <InterpolatingParam id="1892" interp="linr"  time="-9999999/1" value="0" leadInLength="0/1"  />
              </VectorParam>
              <VectorParam id="1893"  name="shear">
               <InterpolatingParam id="1894" interp="linr"  time="-9999999/1" value="0" leadInLength="0/1"  />
               <InterpolatingParam id="1895" interp="linr"  time="-9999999/1" value="0" leadInLength="0/1"  />
               <InterpolatingParam id="1896" interp="linr"  time="-9999999/1" value="0" leadInLength="0/1"  />
              </VectorParam>
              <VectorParam id="1897"  name="scale">
               <InterpolatingParam id="1898" interp="linr"  time="-9999999/1" value="1" leadInLength="0/1"  />
               <InterpolatingParam id="1899" interp="linr"  time="-9999999/1" value="1" leadInLength="0/1"  />
               <InterpolatingParam id="1900" interp="linr"  time="-9999999/1" value="1" leadInLength="0/1"  />
              </VectorParam>
              <VectorParam id="1901"  name="anchor">
               <InterpolatingParam id="1902" interp="linr"  time="0/1" value="0" leadInLength="0/1"  />
               <InterpolatingParam id="1903" interp="linr"  time="0/1" value="0" leadInLength="0/1"  />
               <InterpolatingParam id="1904" interp="linr"  time="0/1" value="0" leadInLength="0/1"  />
              </VectorParam>
             </Transformer>
             <Parameters>
              <VectorParam id="1905"  name="sourceCrop">
               <InterpolatingParam id="1906" interp="linr"  time="0/1" value="0" leadInLength="0/1"  />
               <InterpolatingParam id="1907" interp="linr"  time="0/1" value="0" leadInLength="0/1"  />
               <InterpolatingParam id="1908" interp="linr"  time="0/1" value="0" leadInLength="0/1"  />
               <InterpolatingParam id="1909" interp="linr"  time="0/1" value="0" leadInLength="0/1"  />
              </VectorParam>
              <VectorParam id="1910"  name="geometryCrop">
               <InterpolatingParam id="1911" interp="linr"  time="-9999999/1" value="0" leadInLength="0/1"  />
               <InterpolatingParam id="1912" interp="linr"  time="-9999999/1" value="0" leadInLength="0/1"  />
               <InterpolatingParam id="1913" interp="linr"  time="-9999999/1" value="0" leadInLength="0/1"  />
               <InterpolatingParam id="1914" interp="linr"  time="-9999999/1" value="0" leadInLength="0/1"  />
              </VectorParam>
              <InterpolatingParam id="1915" interp="linr"  time="-9999999/1" value="1" leadInLength="0/1"  name="opacity"/>
             </Parameters>
             <Attributes>
              <Attribute id="1916" value="" name="ident"/>
             </Attributes>
             <ExtraData>
              <Entry key="ZoomPanBin">
               <ZoomPanBin id="1917"  >
                <ZoomPanKeyframes>
                 <ZoomPanKeyframe id="1918" timeRangeEnd="-9999999/1" timeRangeDuration="0/1" interpolaterName="linr"  />
                </ZoomPanKeyframes>
               </ZoomPanBin>
              </Entry>
             </ExtraData>
            </VMFile>
            <MetaData>
             <entry key="WinSubProjectDisplayName" val=""/>
            </MetaData>
           </UnifiedMedia>
          </Medias>
         </GenericTrack>
        </StitchedMedia>
        <StitchedMedia id="1919" start="3076" duration="93" scalar="32039/16036" mediaStart="11842816/32039" mediaDuration="1491348/32039" minMediaStart="0/1" >
         <Transformer>
          <VectorParam id="1920"  name="translation">
           <InterpolatingParam id="1921" interp="linr"  >
            <Keyframes>
            <Keyframe id="1922"  time="-9999999/1" value="-206.00000000000074" leadInLength="0/1"  />
            <Keyframe id="1923"  time="11634348/32039" value="-341.77777777791005" leadInLength="3335488/32039"  interpolater="leadin-linr"  />
            </Keyframes>
           </InterpolatingParam>
           <InterpolatingParam id="1924" interp="linr"  >
            <Keyframes>
            <Keyframe id="1925"  time="-9999999/1" value="30.375000000134179" leadInLength="0/1"  />
            <Keyframe id="1926"  time="11634348/32039" value="11.37499999984836" leadInLength="3335488/32039"  interpolater="leadin-linr"  />
            </Keyframes>
           </InterpolatingParam>
           <InterpolatingParam id="1927" interp="linr"  >
            <Keyframes>
            <Keyframe id="1928"  time="-9999999/1" value="0" leadInLength="0/1"  />
            <Keyframe id="1929"  time="11634348/32039" value="-3.4106051316482886e-010" leadInLength="3335488/32039"  interpolater="leadin-linr"  />
            </Keyframes>
           </InterpolatingParam>
          </VectorParam>
          <VectorParam id="1930"  name="rotation">
           <InterpolatingParam id="1931" interp="linr"  >
            <Keyframes>
            <Keyframe id="1932"  time="-9999999/1" value="0" leadInLength="0/1"  />
            <Keyframe id="1933"  time="11634348/32039" value="0" leadInLength="3335488/32039"  interpolater="leadin-linr"  />
            </Keyframes>
           </InterpolatingParam>
           <InterpolatingParam id="1934" interp="linr"  >
            <Keyframes>
            <Keyframe id="1935"  time="-9999999/1" value="0" leadInLength="0/1"  />
            <Keyframe id="1936"  time="11634348/32039" value="0" leadInLength="3335488/32039"  interpolater="leadin-linr"  />
            </Keyframes>
           </InterpolatingParam>
           <InterpolatingParam id="1937" interp="linr"  >
            <Keyframes>
            <Keyframe id="1938"  time="-9999999/1" value="0" leadInLength="0/1"  />
            <Keyframe id="1939"  time="11634348/32039" value="0" leadInLength="3335488/32039"  interpolater="leadin-linr"  />
            </Keyframes>
           </InterpolatingParam>
          </VectorParam>
          <VectorParam id="1940"  name="shear">
           <InterpolatingParam id="1941" interp="linr"  >
            <Keyframes>
            <Keyframe id="1942"  time="-9999999/1" value="0" leadInLength="0/1"  />
            <Keyframe id="1943"  time="11634348/32039" value="0" leadInLength="3335488/32039"  interpolater="leadin-linr"  />
            </Keyframes>
           </InterpolatingParam>
           <InterpolatingParam id="1944" interp="linr"  >
            <Keyframes>
            <Keyframe id="1945"  time="-9999999/1" value="0" leadInLength="0/1"  />
            <Keyframe id="1946"  time="11634348/32039" value="0" leadInLength="3335488/32039"  interpolater="leadin-linr"  />
            </Keyframes>
           </InterpolatingParam>
           <InterpolatingParam id="1947" interp="linr"  >
            <Keyframes>
            <Keyframe id="1948"  time="-9999999/1" value="0" leadInLength="0/1"  />
            <Keyframe id="1949"  time="11634348/32039" value="0" leadInLength="3335488/32039"  interpolater="leadin-linr"  />
            </Keyframes>
           </InterpolatingParam>
          </VectorParam>
          <VectorParam id="1950"  name="scale">
           <InterpolatingParam id="1951" interp="linr"  >
            <Keyframes>
            <Keyframe id="1952"  time="-9999999/1" value="0.72291666666681864" leadInLength="0/1"  />
            <Keyframe id="1953"  time="11634348/32039" value="0.68773148148143548" leadInLength="3335488/32039"  interpolater="leadin-linr"  />
            </Keyframes>
           </InterpolatingParam>
           <InterpolatingParam id="1954" interp="linr"  >
            <Keyframes>
            <Keyframe id="1955"  time="-9999999/1" value="0.72291666666681864" leadInLength="0/1"  />
            <Keyframe id="1956"  time="11634348/32039" value="0.6877314814814357" leadInLength="3335488/32039"  interpolater="leadin-linr"  />
            </Keyframes>
           </InterpolatingParam>
           <InterpolatingParam id="1957" interp="linr"  >
            <Keyframes>
            <Keyframe id="1958"  time="-9999999/1" value="1" leadInLength="0/1"  />
            <Keyframe id="1959"  time="11634348/32039" value="1" leadInLength="3335488/32039"  interpolater="leadin-linr"  />
            </Keyframes>
           </InterpolatingParam>
          </VectorParam>
          <VectorParam id="1960"  name="anchor">
           <InterpolatingParam id="1961" interp="linr"  time="0/1" value="0" leadInLength="0/1"  />
           <InterpolatingParam id="1962" interp="linr"  time="0/1" value="0" leadInLength="0/1"  />
           <InterpolatingParam id="1963" interp="linr"  time="0/1" value="0" leadInLength="0/1"  />
          </VectorParam>
         </Transformer>
         <Parameters>
          <VectorParam id="1964"  name="sourceCrop">
           <InterpolatingParam id="1965" interp="linr"  time="0/1" value="0" leadInLength="0/1"  />
           <InterpolatingParam id="1966" interp="linr"  time="0/1" value="0" leadInLength="0/1"  />
           <InterpolatingParam id="1967" interp="linr"  time="0/1" value="0" leadInLength="0/1"  />
           <InterpolatingParam id="1968" interp="linr"  time="0/1" value="0" leadInLength="0/1"  />
          </VectorParam>
          <VectorParam id="1969"  name="geometryCrop">
           <InterpolatingParam id="1970" interp="linr"  >
            <Keyframes>
            <Keyframe id="1971"  time="-9999999/1" value="0" leadInLength="0/1"  />
            <Keyframe id="1972"  time="11634348/32039" value="0" leadInLength="3335488/32039"  interpolater="leadin-linr"  />
            </Keyframes>
           </InterpolatingParam>
           <InterpolatingParam id="1973" interp="linr"  >
            <Keyframes>
            <Keyframe id="1974"  time="-9999999/1" value="0" leadInLength="0/1"  />
            <Keyframe id="1975"  time="11634348/32039" value="0" leadInLength="3335488/32039"  interpolater="leadin-linr"  />
            </Keyframes>
           </InterpolatingParam>
           <InterpolatingParam id="1976" interp="linr"  >
            <Keyframes>
            <Keyframe id="1977"  time="-9999999/1" value="0" leadInLength="0/1"  />
            <Keyframe id="1978"  time="11634348/32039" value="0" leadInLength="3335488/32039"  interpolater="leadin-linr"  />
            </Keyframes>
           </InterpolatingParam>
           <InterpolatingParam id="1979" interp="linr"  >
            <Keyframes>
            <Keyframe id="1980"  time="-9999999/1" value="0" leadInLength="0/1"  />
            <Keyframe id="1981"  time="11634348/32039" value="0" leadInLength="3335488/32039"  interpolater="leadin-linr"  />
            </Keyframes>
           </InterpolatingParam>
          </VectorParam>
          <InterpolatingParam id="1982" interp="linr"  name="opacity">
           <Keyframes>
           <Keyframe id="1983"  time="-9999999/1" value="1" leadInLength="0/1"  />
           <Keyframe id="1984"  time="11634348/32039" value="1" leadInLength="3335488/32039"  interpolater="leadin-linr"  />
           </Keyframes>
          </InterpolatingParam>
          <InterpolatingParam id="1985" interp="linr"  time="0/1" value="1" leadInLength="0/1"  name="cursorOpacity"/>
          <InterpolatingParam id="1986" interp="linr"  time="0/1" value="1" leadInLength="0/1"  name="cursorScale"/>
          <InterpolatingParam id="1987" interp="linr"  time="0/1" value="0" leadInLength="0/1"  name="volume"/>
          <Parameter id="1988"  name="captions"/>
         </Parameters>
         <Attributes>
          <Attribute id="1989" value="" name="ident"/>
          <Attribute id="1990" value="0" name="mixToMono"/>
         </Attributes>
         <MetaData>
          <entry key="WinSubProjectDisplayName" val=""/>
         </MetaData>
         <ExtraData>
          <Entry key="ZoomPanBin">
           <ZoomPanBin id="1991"  >
            <ZoomPanKeyframes>
             <ZoomPanKeyframe id="1992" timeRangeEnd="-9999999/1" timeRangeDuration="0/1" interpolaterName="linr"  />
             <ZoomPanKeyframe id="1993" timeRangeEnd="11634348/32039" timeRangeDuration="3335488/32039" interpolaterName="linr"  />
            </ZoomPanKeyframes>
           </ZoomPanBin>
          </Entry>
          <Entry key="CursorEffectBin">
           <CursorEffectBin id="1994"  >
            <CursorEffectKeyframes>
            </CursorEffectKeyframes>
           </CursorEffectBin>
          </Entry>
         </ExtraData>
         <GenericTrack id="1995"  >
          <Attributes>
           <Attribute id="1996" value="" name="ident"/>
           <Attribute id="1997" value="0" name="audioMuted"/>
           <Attribute id="1998" value="0" name="videoHidden"/>
          </Attributes>
          <MetaData>
           <entry key="IsLocked" val="False"/>
           <entry key="WinTrackHeight" val="0"/>
          </MetaData>
          <Medias>
           <UnifiedMedia id="1999"  >
            <AMFile id="2000" start="0" duration="191" scalar="1/1" mediaStart="0/1" mediaDuration="191/1" trackNumber="1" src="18" channelNumber="0" >
             <Parameters>
              <InterpolatingParam id="2001" interp="linr"  time="0/1" value="1" leadInLength="0/1"  name="volume"/>
              <Parameter id="2002"  name="captions"/>
             </Parameters>
             <Attributes>
              <Attribute id="2003" value="" name="ident"/>
              <Attribute id="2004" value="44100" name="sampleRate"/>
              <Attribute id="2005" value="16" name="bitDepth"/>
              <Attribute id="2006" value="1" name="gain"/>
              <Attribute id="2007" value="0" name="mixToMono"/>
             </Attributes>
            </AMFile>
            <VMFile id="2008" start="0" duration="191" scalar="1/1" mediaStart="0/1" mediaDuration="191/1" trackNumber="0" src="18" >
             <Transformer>
              <VectorParam id="2009"  name="translation">
               <InterpolatingParam id="2010" interp="linr"  time="-9999999/1" value="0" leadInLength="0/1"  />
               <InterpolatingParam id="2011" interp="linr"  time="-9999999/1" value="0" leadInLength="0/1"  />
               <InterpolatingParam id="2012" interp="linr"  time="-9999999/1" value="0" leadInLength="0/1"  />
              </VectorParam>
              <VectorParam id="2013"  name="rotation">
               <InterpolatingParam id="2014" interp="linr"  time="-9999999/1" value="0" leadInLength="0/1"  />
               <InterpolatingParam id="2015" interp="linr"  time="-9999999/1" value="0" leadInLength="0/1"  />
               <InterpolatingParam id="2016" interp="linr"  time="-9999999/1" value="0" leadInLength="0/1"  />
              </VectorParam>
              <VectorParam id="2017"  name="shear">
               <InterpolatingParam id="2018" interp="linr"  time="-9999999/1" value="0" leadInLength="0/1"  />
               <InterpolatingParam id="2019" interp="linr"  time="-9999999/1" value="0" leadInLength="0/1"  />
               <InterpolatingParam id="2020" interp="linr"  time="-9999999/1" value="0" leadInLength="0/1"  />
              </VectorParam>
              <VectorParam id="2021"  name="scale">
               <InterpolatingParam id="2022" interp="linr"  time="-9999999/1" value="1" leadInLength="0/1"  />
               <InterpolatingParam id="2023" interp="linr"  time="-9999999/1" value="1" leadInLength="0/1"  />
               <InterpolatingParam id="2024" interp="linr"  time="-9999999/1" value="1" leadInLength="0/1"  />
              </VectorParam>
              <VectorParam id="2025"  name="anchor">
               <InterpolatingParam id="2026" interp="linr"  time="0/1" value="0" leadInLength="0/1"  />
               <InterpolatingParam id="2027" interp="linr"  time="0/1" value="0" leadInLength="0/1"  />
               <InterpolatingParam id="2028" interp="linr"  time="0/1" value="0" leadInLength="0/1"  />
              </VectorParam>
             </Transformer>
             <Parameters>
              <VectorParam id="2029"  name="sourceCrop">
               <InterpolatingParam id="2030" interp="linr"  time="0/1" value="0" leadInLength="0/1"  />
               <InterpolatingParam id="2031" interp="linr"  time="0/1" value="0" leadInLength="0/1"  />
               <InterpolatingParam id="2032" interp="linr"  time="0/1" value="0" leadInLength="0/1"  />
               <InterpolatingParam id="2033" interp="linr"  time="0/1" value="0" leadInLength="0/1"  />
              </VectorParam>
              <VectorParam id="2034"  name="geometryCrop">
               <InterpolatingParam id="2035" interp="linr"  time="-9999999/1" value="0" leadInLength="0/1"  />
               <InterpolatingParam id="2036" interp="linr"  time="-9999999/1" value="0" leadInLength="0/1"  />
               <InterpolatingParam id="2037" interp="linr"  time="-9999999/1" value="0" leadInLength="0/1"  />
               <InterpolatingParam id="2038" interp="linr"  time="-9999999/1" value="0" leadInLength="0/1"  />
              </VectorParam>
              <InterpolatingParam id="2039" interp="linr"  time="-9999999/1" value="1" leadInLength="0/1"  name="opacity"/>
             </Parameters>
             <Attributes>
              <Attribute id="2040" value="" name="ident"/>
             </Attributes>
             <ExtraData>
              <Entry key="ZoomPanBin">
               <ZoomPanBin id="2041"  >
                <ZoomPanKeyframes>
                 <ZoomPanKeyframe id="2042" timeRangeEnd="-9999999/1" timeRangeDuration="0/1" interpolaterName="linr"  />
                </ZoomPanKeyframes>
               </ZoomPanBin>
              </Entry>
             </ExtraData>
            </VMFile>
            <MetaData>
             <entry key="WinSubProjectDisplayName" val=""/>
            </MetaData>
           </UnifiedMedia>
           <UnifiedMedia id="2043"  >
            <AMFile id="2044" start="191" duration="311" scalar="1/1" mediaStart="348/1" mediaDuration="311/1" trackNumber="1" src="18" channelNumber="0" >
             <Parameters>
              <InterpolatingParam id="2045" interp="linr"  time="0/1" value="1" leadInLength="0/1"  name="volume"/>
              <Parameter id="2046"  name="captions"/>
             </Parameters>
             <Attributes>
              <Attribute id="2047" value="" name="ident"/>
              <Attribute id="2048" value="44100" name="sampleRate"/>
              <Attribute id="2049" value="16" name="bitDepth"/>
              <Attribute id="2050" value="1" name="gain"/>
              <Attribute id="2051" value="0" name="mixToMono"/>
             </Attributes>
            </AMFile>
            <VMFile id="2052" start="191" duration="311" scalar="1/1" mediaStart="348/1" mediaDuration="311/1" trackNumber="0" src="18" >
             <Transformer>
              <VectorParam id="2053"  name="translation">
               <InterpolatingParam id="2054" interp="linr"  time="-9999999/1" value="0" leadInLength="0/1"  />
               <InterpolatingParam id="2055" interp="linr"  time="-9999999/1" value="0" leadInLength="0/1"  />
               <InterpolatingParam id="2056" interp="linr"  time="-9999999/1" value="0" leadInLength="0/1"  />
              </VectorParam>
              <VectorParam id="2057"  name="rotation">
               <InterpolatingParam id="2058" interp="linr"  time="-9999999/1" value="0" leadInLength="0/1"  />
               <InterpolatingParam id="2059" interp="linr"  time="-9999999/1" value="0" leadInLength="0/1"  />
               <InterpolatingParam id="2060" interp="linr"  time="-9999999/1" value="0" leadInLength="0/1"  />
              </VectorParam>
              <VectorParam id="2061"  name="shear">
               <InterpolatingParam id="2062" interp="linr"  time="-9999999/1" value="0" leadInLength="0/1"  />
               <InterpolatingParam id="2063" interp="linr"  time="-9999999/1" value="0" leadInLength="0/1"  />
               <InterpolatingParam id="2064" interp="linr"  time="-9999999/1" value="0" leadInLength="0/1"  />
              </VectorParam>
              <VectorParam id="2065"  name="scale">
               <InterpolatingParam id="2066" interp="linr"  time="-9999999/1" value="1" leadInLength="0/1"  />
               <InterpolatingParam id="2067" interp="linr"  time="-9999999/1" value="1" leadInLength="0/1"  />
               <InterpolatingParam id="2068" interp="linr"  time="-9999999/1" value="1" leadInLength="0/1"  />
              </VectorParam>
              <VectorParam id="2069"  name="anchor">
               <InterpolatingParam id="2070" interp="linr"  time="0/1" value="0" leadInLength="0/1"  />
               <InterpolatingParam id="2071" interp="linr"  time="0/1" value="0" leadInLength="0/1"  />
               <InterpolatingParam id="2072" interp="linr"  time="0/1" value="0" leadInLength="0/1"  />
              </VectorParam>
             </Transformer>
             <Parameters>
              <VectorParam id="2073"  name="sourceCrop">
               <InterpolatingParam id="2074" interp="linr"  time="0/1" value="0" leadInLength="0/1"  />
               <InterpolatingParam id="2075" interp="linr"  time="0/1" value="0" leadInLength="0/1"  />
               <InterpolatingParam id="2076" interp="linr"  time="0/1" value="0" leadInLength="0/1"  />
               <InterpolatingParam id="2077" interp="linr"  time="0/1" value="0" leadInLength="0/1"  />
              </VectorParam>
              <VectorParam id="2078"  name="geometryCrop">
               <InterpolatingParam id="2079" interp="linr"  time="-9999999/1" value="0" leadInLength="0/1"  />
               <InterpolatingParam id="2080" interp="linr"  time="-9999999/1" value="0" leadInLength="0/1"  />
               <InterpolatingParam id="2081" interp="linr"  time="-9999999/1" value="0" leadInLength="0/1"  />
               <InterpolatingParam id="2082" interp="linr"  time="-9999999/1" value="0" leadInLength="0/1"  />
              </VectorParam>
              <InterpolatingParam id="2083" interp="linr"  time="-9999999/1" value="1" leadInLength="0/1"  name="opacity"/>
             </Parameters>
             <Attributes>
              <Attribute id="2084" value="" name="ident"/>
             </Attributes>
             <ExtraData>
              <Entry key="ZoomPanBin">
               <ZoomPanBin id="2085"  >
                <ZoomPanKeyframes>
                 <ZoomPanKeyframe id="2086" timeRangeEnd="-9999999/1" timeRangeDuration="0/1" interpolaterName="linr"  />
                </ZoomPanKeyframes>
               </ZoomPanBin>
              </Entry>
             </ExtraData>
            </VMFile>
            <MetaData>
             <entry key="WinSubProjectDisplayName" val=""/>
            </MetaData>
           </UnifiedMedia>
          </Medias>
         </GenericTrack>
        </StitchedMedia>
        <StitchedMedia id="2087" start="3169" duration="93" scalar="32039/16036" mediaStart="11842816/32039" mediaDuration="1491348/32039" minMediaStart="0/1" >
         <Transformer>
          <VectorParam id="2088"  name="translation">
           <InterpolatingParam id="2089" interp="linr"  >
            <Keyframes>
            <Keyframe id="2090"  time="-9999999/1" value="-206.00000000000074" leadInLength="0/1"  />
            <Keyframe id="2091"  time="11634348/32039" value="-341.77777777791005" leadInLength="3335488/32039"  interpolater="leadin-linr"  />
            </Keyframes>
           </InterpolatingParam>
           <InterpolatingParam id="2092" interp="linr"  >
            <Keyframes>
            <Keyframe id="2093"  time="-9999999/1" value="30.375000000134179" leadInLength="0/1"  />
            <Keyframe id="2094"  time="11634348/32039" value="11.37499999984836" leadInLength="3335488/32039"  interpolater="leadin-linr"  />
            </Keyframes>
           </InterpolatingParam>
           <InterpolatingParam id="2095" interp="linr"  >
            <Keyframes>
            <Keyframe id="2096"  time="-9999999/1" value="0" leadInLength="0/1"  />
            <Keyframe id="2097"  time="11634348/32039" value="-3.4106051316482886e-010" leadInLength="3335488/32039"  interpolater="leadin-linr"  />
            </Keyframes>
           </InterpolatingParam>
          </VectorParam>
          <VectorParam id="2098"  name="rotation">
           <InterpolatingParam id="2099" interp="linr"  >
            <Keyframes>
            <Keyframe id="2100"  time="-9999999/1" value="0" leadInLength="0/1"  />
            <Keyframe id="2101"  time="11634348/32039" value="0" leadInLength="3335488/32039"  interpolater="leadin-linr"  />
            </Keyframes>
           </InterpolatingParam>
           <InterpolatingParam id="2102" interp="linr"  >
            <Keyframes>
            <Keyframe id="2103"  time="-9999999/1" value="0" leadInLength="0/1"  />
            <Keyframe id="2104"  time="11634348/32039" value="0" leadInLength="3335488/32039"  interpolater="leadin-linr"  />
            </Keyframes>
           </InterpolatingParam>
           <InterpolatingParam id="2105" interp="linr"  >
            <Keyframes>
            <Keyframe id="2106"  time="-9999999/1" value="0" leadInLength="0/1"  />
            <Keyframe id="2107"  time="11634348/32039" value="0" leadInLength="3335488/32039"  interpolater="leadin-linr"  />
            </Keyframes>
           </InterpolatingParam>
          </VectorParam>
          <VectorParam id="2108"  name="shear">
           <InterpolatingParam id="2109" interp="linr"  >
            <Keyframes>
            <Keyframe id="2110"  time="-9999999/1" value="0" leadInLength="0/1"  />
            <Keyframe id="2111"  time="11634348/32039" value="0" leadInLength="3335488/32039"  interpolater="leadin-linr"  />
            </Keyframes>
           </InterpolatingParam>
           <InterpolatingParam id="2112" interp="linr"  >
            <Keyframes>
            <Keyframe id="2113"  time="-9999999/1" value="0" leadInLength="0/1"  />
            <Keyframe id="2114"  time="11634348/32039" value="0" leadInLength="3335488/32039"  interpolater="leadin-linr"  />
            </Keyframes>
           </InterpolatingParam>
           <InterpolatingParam id="2115" interp="linr"  >
            <Keyframes>
            <Keyframe id="2116"  time="-9999999/1" value="0" leadInLength="0/1"  />
            <Keyframe id="2117"  time="11634348/32039" value="0" leadInLength="3335488/32039"  interpolater="leadin-linr"  />
            </Keyframes>
           </InterpolatingParam>
          </VectorParam>
          <VectorParam id="2118"  name="scale">
           <InterpolatingParam id="2119" interp="linr"  >
            <Keyframes>
            <Keyframe id="2120"  time="-9999999/1" value="0.72291666666681864" leadInLength="0/1"  />
            <Keyframe id="2121"  time="11634348/32039" value="0.68773148148143548" leadInLength="3335488/32039"  interpolater="leadin-linr"  />
            </Keyframes>
           </InterpolatingParam>
           <InterpolatingParam id="2122" interp="linr"  >
            <Keyframes>
            <Keyframe id="2123"  time="-9999999/1" value="0.72291666666681864" leadInLength="0/1"  />
            <Keyframe id="2124"  time="11634348/32039" value="0.6877314814814357" leadInLength="3335488/32039"  interpolater="leadin-linr"  />
            </Keyframes>
           </InterpolatingParam>
           <InterpolatingParam id="2125" interp="linr"  >
            <Keyframes>
            <Keyframe id="2126"  time="-9999999/1" value="1" leadInLength="0/1"  />
            <Keyframe id="2127"  time="11634348/32039" value="1" leadInLength="3335488/32039"  interpolater="leadin-linr"  />
            </Keyframes>
           </InterpolatingParam>
          </VectorParam>
          <VectorParam id="2128"  name="anchor">
           <InterpolatingParam id="2129" interp="linr"  time="0/1" value="0" leadInLength="0/1"  />
           <InterpolatingParam id="2130" interp="linr"  time="0/1" value="0" leadInLength="0/1"  />
           <InterpolatingParam id="2131" interp="linr"  time="0/1" value="0" leadInLength="0/1"  />
          </VectorParam>
         </Transformer>
         <Parameters>
          <VectorParam id="2132"  name="sourceCrop">
           <InterpolatingParam id="2133" interp="linr"  time="0/1" value="0" leadInLength="0/1"  />
           <InterpolatingParam id="2134" interp="linr"  time="0/1" value="0" leadInLength="0/1"  />
           <InterpolatingParam id="2135" interp="linr"  time="0/1" value="0" leadInLength="0/1"  />
           <InterpolatingParam id="2136" interp="linr"  time="0/1" value="0" leadInLength="0/1"  />
          </VectorParam>
          <VectorParam id="2137"  name="geometryCrop">
           <InterpolatingParam id="2138" interp="linr"  >
            <Keyframes>
            <Keyframe id="2139"  time="-9999999/1" value="0" leadInLength="0/1"  />
            <Keyframe id="2140"  time="11634348/32039" value="0" leadInLength="3335488/32039"  interpolater="leadin-linr"  />
            </Keyframes>
           </InterpolatingParam>
           <InterpolatingParam id="2141" interp="linr"  >
            <Keyframes>
            <Keyframe id="2142"  time="-9999999/1" value="0" leadInLength="0/1"  />
            <Keyframe id="2143"  time="11634348/32039" value="0" leadInLength="3335488/32039"  interpolater="leadin-linr"  />
            </Keyframes>
           </InterpolatingParam>
           <InterpolatingParam id="2144" interp="linr"  >
            <Keyframes>
            <Keyframe id="2145"  time="-9999999/1" value="0" leadInLength="0/1"  />
            <Keyframe id="2146"  time="11634348/32039" value="0" leadInLength="3335488/32039"  interpolater="leadin-linr"  />
            </Keyframes>
           </InterpolatingParam>
           <InterpolatingParam id="2147" interp="linr"  >
            <Keyframes>
            <Keyframe id="2148"  time="-9999999/1" value="0" leadInLength="0/1"  />
            <Keyframe id="2149"  time="11634348/32039" value="0" leadInLength="3335488/32039"  interpolater="leadin-linr"  />
            </Keyframes>
           </InterpolatingParam>
          </VectorParam>
          <InterpolatingParam id="2150" interp="linr"  name="opacity">
           <Keyframes>
           <Keyframe id="2151"  time="-9999999/1" value="1" leadInLength="0/1"  />
           <Keyframe id="2152"  time="11634348/32039" value="1" leadInLength="3335488/32039"  interpolater="leadin-linr"  />
           </Keyframes>
          </InterpolatingParam>
          <InterpolatingParam id="2153" interp="linr"  time="0/1" value="1" leadInLength="0/1"  name="cursorOpacity"/>
          <InterpolatingParam id="2154" interp="linr"  time="0/1" value="1" leadInLength="0/1"  name="cursorScale"/>
          <InterpolatingParam id="2155" interp="linr"  time="0/1" value="0" leadInLength="0/1"  name="volume"/>
          <Parameter id="2156"  name="captions"/>
         </Parameters>
         <Attributes>
          <Attribute id="2157" value="" name="ident"/>
          <Attribute id="2158" value="0" name="mixToMono"/>
         </Attributes>
         <MetaData>
          <entry key="WinSubProjectDisplayName" val=""/>
         </MetaData>
         <ExtraData>
          <Entry key="ZoomPanBin">
           <ZoomPanBin id="2159"  >
            <ZoomPanKeyframes>
             <ZoomPanKeyframe id="2160" timeRangeEnd="-9999999/1" timeRangeDuration="0/1" interpolaterName="linr"  />
             <ZoomPanKeyframe id="2161" timeRangeEnd="11634348/32039" timeRangeDuration="3335488/32039" interpolaterName="linr"  />
            </ZoomPanKeyframes>
           </ZoomPanBin>
          </Entry>
          <Entry key="CursorEffectBin">
           <CursorEffectBin id="2162"  >
            <CursorEffectKeyframes>
            </CursorEffectKeyframes>
           </CursorEffectBin>
          </Entry>
         </ExtraData>
         <GenericTrack id="2163"  >
          <Attributes>
           <Attribute id="2164" value="" name="ident"/>
           <Attribute id="2165" value="0" name="audioMuted"/>
           <Attribute id="2166" value="0" name="videoHidden"/>
          </Attributes>
          <MetaData>
           <entry key="IsLocked" val="False"/>
           <entry key="WinTrackHeight" val="0"/>
          </MetaData>
          <Medias>
           <UnifiedMedia id="2167"  >
            <AMFile id="2168" start="0" duration="191" scalar="1/1" mediaStart="0/1" mediaDuration="191/1" trackNumber="1" src="18" channelNumber="0" >
             <Parameters>
              <InterpolatingParam id="2169" interp="linr"  time="0/1" value="1" leadInLength="0/1"  name="volume"/>
              <Parameter id="2170"  name="captions"/>
             </Parameters>
             <Attributes>
              <Attribute id="2171" value="" name="ident"/>
              <Attribute id="2172" value="44100" name="sampleRate"/>
              <Attribute id="2173" value="16" name="bitDepth"/>
              <Attribute id="2174" value="1" name="gain"/>
              <Attribute id="2175" value="0" name="mixToMono"/>
             </Attributes>
            </AMFile>
            <VMFile id="2176" start="0" duration="191" scalar="1/1" mediaStart="0/1" mediaDuration="191/1" trackNumber="0" src="18" >
             <Transformer>
              <VectorParam id="2177"  name="translation">
               <InterpolatingParam id="2178" interp="linr"  time="-9999999/1" value="0" leadInLength="0/1"  />
               <InterpolatingParam id="2179" interp="linr"  time="-9999999/1" value="0" leadInLength="0/1"  />
               <InterpolatingParam id="2180" interp="linr"  time="-9999999/1" value="0" leadInLength="0/1"  />
              </VectorParam>
              <VectorParam id="2181"  name="rotation">
               <InterpolatingParam id="2182" interp="linr"  time="-9999999/1" value="0" leadInLength="0/1"  />
               <InterpolatingParam id="2183" interp="linr"  time="-9999999/1" value="0" leadInLength="0/1"  />
               <InterpolatingParam id="2184" interp="linr"  time="-9999999/1" value="0" leadInLength="0/1"  />
              </VectorParam>
              <VectorParam id="2185"  name="shear">
               <InterpolatingParam id="2186" interp="linr"  time="-9999999/1" value="0" leadInLength="0/1"  />
               <InterpolatingParam id="2187" interp="linr"  time="-9999999/1" value="0" leadInLength="0/1"  />
               <InterpolatingParam id="2188" interp="linr"  time="-9999999/1" value="0" leadInLength="0/1"  />
              </VectorParam>
              <VectorParam id="2189"  name="scale">
               <InterpolatingParam id="2190" interp="linr"  time="-9999999/1" value="1" leadInLength="0/1"  />
               <InterpolatingParam id="2191" interp="linr"  time="-9999999/1" value="1" leadInLength="0/1"  />
               <InterpolatingParam id="2192" interp="linr"  time="-9999999/1" value="1" leadInLength="0/1"  />
              </VectorParam>
              <VectorParam id="2193"  name="anchor">
               <InterpolatingParam id="2194" interp="linr"  time="0/1" value="0" leadInLength="0/1"  />
               <InterpolatingParam id="2195" interp="linr"  time="0/1" value="0" leadInLength="0/1"  />
               <InterpolatingParam id="2196" interp="linr"  time="0/1" value="0" leadInLength="0/1"  />
              </VectorParam>
             </Transformer>
             <Parameters>
              <VectorParam id="2197"  name="sourceCrop">
               <InterpolatingParam id="2198" interp="linr"  time="0/1" value="0" leadInLength="0/1"  />
               <InterpolatingParam id="2199" interp="linr"  time="0/1" value="0" leadInLength="0/1"  />
               <InterpolatingParam id="2200" interp="linr"  time="0/1" value="0" leadInLength="0/1"  />
               <InterpolatingParam id="2201" interp="linr"  time="0/1" value="0" leadInLength="0/1"  />
              </VectorParam>
              <VectorParam id="2202"  name="geometryCrop">
               <InterpolatingParam id="2203" interp="linr"  time="-9999999/1" value="0" leadInLength="0/1"  />
               <InterpolatingParam id="2204" interp="linr"  time="-9999999/1" value="0" leadInLength="0/1"  />
               <InterpolatingParam id="2205" interp="linr"  time="-9999999/1" value="0" leadInLength="0/1"  />
               <InterpolatingParam id="2206" interp="linr"  time="-9999999/1" value="0" leadInLength="0/1"  />
              </VectorParam>
              <InterpolatingParam id="2207" interp="linr"  time="-9999999/1" value="1" leadInLength="0/1"  name="opacity"/>
             </Parameters>
             <Attributes>
              <Attribute id="2208" value="" name="ident"/>
             </Attributes>
             <ExtraData>
              <Entry key="ZoomPanBin">
               <ZoomPanBin id="2209"  >
                <ZoomPanKeyframes>
                 <ZoomPanKeyframe id="2210" timeRangeEnd="-9999999/1" timeRangeDuration="0/1" interpolaterName="linr"  />
                </ZoomPanKeyframes>
               </ZoomPanBin>
              </Entry>
             </ExtraData>
            </VMFile>
            <MetaData>
             <entry key="WinSubProjectDisplayName" val=""/>
            </MetaData>
           </UnifiedMedia>
           <UnifiedMedia id="2211"  >
            <AMFile id="2212" start="191" duration="311" scalar="1/1" mediaStart="348/1" mediaDuration="311/1" trackNumber="1" src="18" channelNumber="0" >
             <Parameters>
              <InterpolatingParam id="2213" interp="linr"  time="0/1" value="1" leadInLength="0/1"  name="volume"/>
              <Parameter id="2214"  name="captions"/>
             </Parameters>
             <Attributes>
              <Attribute id="2215" value="" name="ident"/>
              <Attribute id="2216" value="44100" name="sampleRate"/>
              <Attribute id="2217" value="16" name="bitDepth"/>
              <Attribute id="2218" value="1" name="gain"/>
              <Attribute id="2219" value="0" name="mixToMono"/>
             </Attributes>
            </AMFile>
            <VMFile id="2220" start="191" duration="311" scalar="1/1" mediaStart="348/1" mediaDuration="311/1" trackNumber="0" src="18" >
             <Transformer>
              <VectorParam id="2221"  name="translation">
               <InterpolatingParam id="2222" interp="linr"  time="-9999999/1" value="0" leadInLength="0/1"  />
               <InterpolatingParam id="2223" interp="linr"  time="-9999999/1" value="0" leadInLength="0/1"  />
               <InterpolatingParam id="2224" interp="linr"  time="-9999999/1" value="0" leadInLength="0/1"  />
              </VectorParam>
              <VectorParam id="2225"  name="rotation">
               <InterpolatingParam id="2226" interp="linr"  time="-9999999/1" value="0" leadInLength="0/1"  />
               <InterpolatingParam id="2227" interp="linr"  time="-9999999/1" value="0" leadInLength="0/1"  />
               <InterpolatingParam id="2228" interp="linr"  time="-9999999/1" value="0" leadInLength="0/1"  />
              </VectorParam>
              <VectorParam id="2229"  name="shear">
               <InterpolatingParam id="2230" interp="linr"  time="-9999999/1" value="0" leadInLength="0/1"  />
               <InterpolatingParam id="2231" interp="linr"  time="-9999999/1" value="0" leadInLength="0/1"  />
               <InterpolatingParam id="2232" interp="linr"  time="-9999999/1" value="0" leadInLength="0/1"  />
              </VectorParam>
              <VectorParam id="2233"  name="scale">
               <InterpolatingParam id="2234" interp="linr"  time="-9999999/1" value="1" leadInLength="0/1"  />
               <InterpolatingParam id="2235" interp="linr"  time="-9999999/1" value="1" leadInLength="0/1"  />
               <InterpolatingParam id="2236" interp="linr"  time="-9999999/1" value="1" leadInLength="0/1"  />
              </VectorParam>
              <VectorParam id="2237"  name="anchor">
               <InterpolatingParam id="2238" interp="linr"  time="0/1" value="0" leadInLength="0/1"  />
               <InterpolatingParam id="2239" interp="linr"  time="0/1" value="0" leadInLength="0/1"  />
               <InterpolatingParam id="2240" interp="linr"  time="0/1" value="0" leadInLength="0/1"  />
              </VectorParam>
             </Transformer>
             <Parameters>
              <VectorParam id="2241"  name="sourceCrop">
               <InterpolatingParam id="2242" interp="linr"  time="0/1" value="0" leadInLength="0/1"  />
               <InterpolatingParam id="2243" interp="linr"  time="0/1" value="0" leadInLength="0/1"  />
               <InterpolatingParam id="2244" interp="linr"  time="0/1" value="0" leadInLength="0/1"  />
               <InterpolatingParam id="2245" interp="linr"  time="0/1" value="0" leadInLength="0/1"  />
              </VectorParam>
              <VectorParam id="2246"  name="geometryCrop">
               <InterpolatingParam id="2247" interp="linr"  time="-9999999/1" value="0" leadInLength="0/1"  />
               <InterpolatingParam id="2248" interp="linr"  time="-9999999/1" value="0" leadInLength="0/1"  />
               <InterpolatingParam id="2249" interp="linr"  time="-9999999/1" value="0" leadInLength="0/1"  />
               <InterpolatingParam id="2250" interp="linr"  time="-9999999/1" value="0" leadInLength="0/1"  />
              </VectorParam>
              <InterpolatingParam id="2251" interp="linr"  time="-9999999/1" value="1" leadInLength="0/1"  name="opacity"/>
             </Parameters>
             <Attributes>
              <Attribute id="2252" value="" name="ident"/>
             </Attributes>
             <ExtraData>
              <Entry key="ZoomPanBin">
               <ZoomPanBin id="2253"  >
                <ZoomPanKeyframes>
                 <ZoomPanKeyframe id="2254" timeRangeEnd="-9999999/1" timeRangeDuration="0/1" interpolaterName="linr"  />
                </ZoomPanKeyframes>
               </ZoomPanBin>
              </Entry>
             </ExtraData>
            </VMFile>
            <MetaData>
             <entry key="WinSubProjectDisplayName" val=""/>
            </MetaData>
           </UnifiedMedia>
          </Medias>
         </GenericTrack>
        </StitchedMedia>
        <StitchedMedia id="2255" start="3262" duration="93" scalar="32039/16036" mediaStart="11842816/32039" mediaDuration="1491348/32039" minMediaStart="0/1" >
         <Transformer>
          <VectorParam id="2256"  name="translation">
           <InterpolatingParam id="2257" interp="linr"  >
            <Keyframes>
            <Keyframe id="2258"  time="-9999999/1" value="-206.00000000000074" leadInLength="0/1"  />
            <Keyframe id="2259"  time="11634348/32039" value="-343.44444444449442" leadInLength="3335488/32039"  interpolater="leadin-linr"  />
            </Keyframes>
           </InterpolatingParam>
           <InterpolatingParam id="2260" interp="linr"  >
            <Keyframes>
            <Keyframe id="2261"  time="-9999999/1" value="30.375000000134179" leadInLength="0/1"  />
            <Keyframe id="2262"  time="11634348/32039" value="7.6249999999647606" leadInLength="3335488/32039"  interpolater="leadin-linr"  />
            </Keyframes>
           </InterpolatingParam>
           <InterpolatingParam id="2263" interp="linr"  >
            <Keyframes>
            <Keyframe id="2264"  time="-9999999/1" value="0" leadInLength="0/1"  />
            <Keyframe id="2265"  time="11634348/32039" value="-3.4106051316482886e-010" leadInLength="3335488/32039"  interpolater="leadin-linr"  />
            </Keyframes>
           </InterpolatingParam>
          </VectorParam>
          <VectorParam id="2266"  name="rotation">
           <InterpolatingParam id="2267" interp="linr"  >
            <Keyframes>
            <Keyframe id="2268"  time="-9999999/1" value="0" leadInLength="0/1"  />
            <Keyframe id="2269"  time="11634348/32039" value="0" leadInLength="3335488/32039"  interpolater="leadin-linr"  />
            </Keyframes>
           </InterpolatingParam>
           <InterpolatingParam id="2270" interp="linr"  >
            <Keyframes>
            <Keyframe id="2271"  time="-9999999/1" value="0" leadInLength="0/1"  />
            <Keyframe id="2272"  time="11634348/32039" value="0" leadInLength="3335488/32039"  interpolater="leadin-linr"  />
            </Keyframes>
           </InterpolatingParam>
           <InterpolatingParam id="2273" interp="linr"  >
            <Keyframes>
            <Keyframe id="2274"  time="-9999999/1" value="0" leadInLength="0/1"  />
            <Keyframe id="2275"  time="11634348/32039" value="0" leadInLength="3335488/32039"  interpolater="leadin-linr"  />
            </Keyframes>
           </InterpolatingParam>
          </VectorParam>
          <VectorParam id="2276"  name="shear">
           <InterpolatingParam id="2277" interp="linr"  >
            <Keyframes>
            <Keyframe id="2278"  time="-9999999/1" value="0" leadInLength="0/1"  />
            <Keyframe id="2279"  time="11634348/32039" value="0" leadInLength="3335488/32039"  interpolater="leadin-linr"  />
            </Keyframes>
           </InterpolatingParam>
           <InterpolatingParam id="2280" interp="linr"  >
            <Keyframes>
            <Keyframe id="2281"  time="-9999999/1" value="0" leadInLength="0/1"  />
            <Keyframe id="2282"  time="11634348/32039" value="0" leadInLength="3335488/32039"  interpolater="leadin-linr"  />
            </Keyframes>
           </InterpolatingParam>
           <InterpolatingParam id="2283" interp="linr"  >
            <Keyframes>
            <Keyframe id="2284"  time="-9999999/1" value="0" leadInLength="0/1"  />
            <Keyframe id="2285"  time="11634348/32039" value="0" leadInLength="3335488/32039"  interpolater="leadin-linr"  />
            </Keyframes>
           </InterpolatingParam>
          </VectorParam>
          <VectorParam id="2286"  name="scale">
           <InterpolatingParam id="2287" interp="linr"  >
            <Keyframes>
            <Keyframe id="2288"  time="-9999999/1" value="0.72291666666681864" leadInLength="0/1"  />
            <Keyframe id="2289"  time="11634348/32039" value="0.68078703703705368" leadInLength="3335488/32039"  interpolater="leadin-linr"  />
            </Keyframes>
           </InterpolatingParam>
           <InterpolatingParam id="2290" interp="linr"  >
            <Keyframes>
            <Keyframe id="2291"  time="-9999999/1" value="0.72291666666681864" leadInLength="0/1"  />
            <Keyframe id="2292"  time="11634348/32039" value="0.68078703703705412" leadInLength="3335488/32039"  interpolater="leadin-linr"  />
            </Keyframes>
           </InterpolatingParam>
           <InterpolatingParam id="2293" interp="linr"  >
            <Keyframes>
            <Keyframe id="2294"  time="-9999999/1" value="1" leadInLength="0/1"  />
            <Keyframe id="2295"  time="11634348/32039" value="1" leadInLength="3335488/32039"  interpolater="leadin-linr"  />
            </Keyframes>
           </InterpolatingParam>
          </VectorParam>
          <VectorParam id="2296"  name="anchor">
           <InterpolatingParam id="2297" interp="linr"  time="0/1" value="0" leadInLength="0/1"  />
           <InterpolatingParam id="2298" interp="linr"  time="0/1" value="0" leadInLength="0/1"  />
           <InterpolatingParam id="2299" interp="linr"  time="0/1" value="0" leadInLength="0/1"  />
          </VectorParam>
         </Transformer>
         <Parameters>
          <VectorParam id="2300"  name="sourceCrop">
           <InterpolatingParam id="2301" interp="linr"  time="0/1" value="0" leadInLength="0/1"  />
           <InterpolatingParam id="2302" interp="linr"  time="0/1" value="0" leadInLength="0/1"  />
           <InterpolatingParam id="2303" interp="linr"  time="0/1" value="0" leadInLength="0/1"  />
           <InterpolatingParam id="2304" interp="linr"  time="0/1" value="0" leadInLength="0/1"  />
          </VectorParam>
          <VectorParam id="2305"  name="geometryCrop">
           <InterpolatingParam id="2306" interp="linr"  >
            <Keyframes>
            <Keyframe id="2307"  time="-9999999/1" value="0" leadInLength="0/1"  />
            <Keyframe id="2308"  time="11634348/32039" value="0" leadInLength="3335488/32039"  interpolater="leadin-linr"  />
            </Keyframes>
           </InterpolatingParam>
           <InterpolatingParam id="2309" interp="linr"  >
            <Keyframes>
            <Keyframe id="2310"  time="-9999999/1" value="0" leadInLength="0/1"  />
            <Keyframe id="2311"  time="11634348/32039" value="0" leadInLength="3335488/32039"  interpolater="leadin-linr"  />
            </Keyframes>
           </InterpolatingParam>
           <InterpolatingParam id="2312" interp="linr"  >
            <Keyframes>
            <Keyframe id="2313"  time="-9999999/1" value="0" leadInLength="0/1"  />
            <Keyframe id="2314"  time="11634348/32039" value="0" leadInLength="3335488/32039"  interpolater="leadin-linr"  />
            </Keyframes>
           </InterpolatingParam>
           <InterpolatingParam id="2315" interp="linr"  >
            <Keyframes>
            <Keyframe id="2316"  time="-9999999/1" value="0" leadInLength="0/1"  />
            <Keyframe id="2317"  time="11634348/32039" value="0" leadInLength="3335488/32039"  interpolater="leadin-linr"  />
            </Keyframes>
           </InterpolatingParam>
          </VectorParam>
          <InterpolatingParam id="2318" interp="linr"  name="opacity">
           <Keyframes>
           <Keyframe id="2319"  time="-9999999/1" value="1" leadInLength="0/1"  />
           <Keyframe id="2320"  time="11634348/32039" value="1" leadInLength="3335488/32039"  interpolater="leadin-linr"  />
           </Keyframes>
          </InterpolatingParam>
          <InterpolatingParam id="2321" interp="linr"  time="0/1" value="1" leadInLength="0/1"  name="cursorOpacity"/>
          <InterpolatingParam id="2322" interp="linr"  time="0/1" value="1" leadInLength="0/1"  name="cursorScale"/>
          <InterpolatingParam id="2323" interp="linr"  time="0/1" value="0" leadInLength="0/1"  name="volume"/>
          <Parameter id="2324"  name="captions"/>
         </Parameters>
         <Attributes>
          <Attribute id="2325" value="" name="ident"/>
          <Attribute id="2326" value="0" name="mixToMono"/>
         </Attributes>
         <MetaData>
          <entry key="WinSubProjectDisplayName" val=""/>
         </MetaData>
         <ExtraData>
          <Entry key="ZoomPanBin">
           <ZoomPanBin id="2327"  >
            <ZoomPanKeyframes>
             <ZoomPanKeyframe id="2328" timeRangeEnd="-9999999/1" timeRangeDuration="0/1" interpolaterName="linr"  />
             <ZoomPanKeyframe id="2329" timeRangeEnd="11634348/32039" timeRangeDuration="3335488/32039" interpolaterName="linr"  />
            </ZoomPanKeyframes>
           </ZoomPanBin>
          </Entry>
          <Entry key="CursorEffectBin">
           <CursorEffectBin id="2330"  >
            <CursorEffectKeyframes>
            </CursorEffectKeyframes>
           </CursorEffectBin>
          </Entry>
         </ExtraData>
         <GenericTrack id="2331"  >
          <Attributes>
           <Attribute id="2332" value="" name="ident"/>
           <Attribute id="2333" value="0" name="audioMuted"/>
           <Attribute id="2334" value="0" name="videoHidden"/>
          </Attributes>
          <MetaData>
           <entry key="IsLocked" val="False"/>
           <entry key="WinTrackHeight" val="0"/>
          </MetaData>
          <Medias>
           <UnifiedMedia id="2335"  >
            <AMFile id="2336" start="0" duration="191" scalar="1/1" mediaStart="0/1" mediaDuration="191/1" trackNumber="1" src="18" channelNumber="0" >
             <Parameters>
              <InterpolatingParam id="2337" interp="linr"  time="0/1" value="1" leadInLength="0/1"  name="volume"/>
              <Parameter id="2338"  name="captions"/>
             </Parameters>
             <Attributes>
              <Attribute id="2339" value="" name="ident"/>
              <Attribute id="2340" value="44100" name="sampleRate"/>
              <Attribute id="2341" value="16" name="bitDepth"/>
              <Attribute id="2342" value="1" name="gain"/>
              <Attribute id="2343" value="0" name="mixToMono"/>
             </Attributes>
            </AMFile>
            <VMFile id="2344" start="0" duration="191" scalar="1/1" mediaStart="0/1" mediaDuration="191/1" trackNumber="0" src="18" >
             <Transformer>
              <VectorParam id="2345"  name="translation">
               <InterpolatingParam id="2346" interp="linr"  time="-9999999/1" value="0" leadInLength="0/1"  />
               <InterpolatingParam id="2347" interp="linr"  time="-9999999/1" value="0" leadInLength="0/1"  />
               <InterpolatingParam id="2348" interp="linr"  time="-9999999/1" value="0" leadInLength="0/1"  />
              </VectorParam>
              <VectorParam id="2349"  name="rotation">
               <InterpolatingParam id="2350" interp="linr"  time="-9999999/1" value="0" leadInLength="0/1"  />
               <InterpolatingParam id="2351" interp="linr"  time="-9999999/1" value="0" leadInLength="0/1"  />
               <InterpolatingParam id="2352" interp="linr"  time="-9999999/1" value="0" leadInLength="0/1"  />
              </VectorParam>
              <VectorParam id="2353"  name="shear">
               <InterpolatingParam id="2354" interp="linr"  time="-9999999/1" value="0" leadInLength="0/1"  />
               <InterpolatingParam id="2355" interp="linr"  time="-9999999/1" value="0" leadInLength="0/1"  />
               <InterpolatingParam id="2356" interp="linr"  time="-9999999/1" value="0" leadInLength="0/1"  />
              </VectorParam>
              <VectorParam id="2357"  name="scale">
               <InterpolatingParam id="2358" interp="linr"  time="-9999999/1" value="1" leadInLength="0/1"  />
               <InterpolatingParam id="2359" interp="linr"  time="-9999999/1" value="1" leadInLength="0/1"  />
               <InterpolatingParam id="2360" interp="linr"  time="-9999999/1" value="1" leadInLength="0/1"  />
              </VectorParam>
              <VectorParam id="2361"  name="anchor">
               <InterpolatingParam id="2362" interp="linr"  time="0/1" value="0" leadInLength="0/1"  />
               <InterpolatingParam id="2363" interp="linr"  time="0/1" value="0" leadInLength="0/1"  />
               <InterpolatingParam id="2364" interp="linr"  time="0/1" value="0" leadInLength="0/1"  />
              </VectorParam>
             </Transformer>
             <Parameters>
              <VectorParam id="2365"  name="sourceCrop">
               <InterpolatingParam id="2366" interp="linr"  time="0/1" value="0" leadInLength="0/1"  />
               <InterpolatingParam id="2367" interp="linr"  time="0/1" value="0" leadInLength="0/1"  />
               <InterpolatingParam id="2368" interp="linr"  time="0/1" value="0" leadInLength="0/1"  />
               <InterpolatingParam id="2369" interp="linr"  time="0/1" value="0" leadInLength="0/1"  />
              </VectorParam>
              <VectorParam id="2370"  name="geometryCrop">
               <InterpolatingParam id="2371" interp="linr"  time="-9999999/1" value="0" leadInLength="0/1"  />
               <InterpolatingParam id="2372" interp="linr"  time="-9999999/1" value="0" leadInLength="0/1"  />
               <InterpolatingParam id="2373" interp="linr"  time="-9999999/1" value="0" leadInLength="0/1"  />
               <InterpolatingParam id="2374" interp="linr"  time="-9999999/1" value="0" leadInLength="0/1"  />
              </VectorParam>
              <InterpolatingParam id="2375" interp="linr"  time="-9999999/1" value="1" leadInLength="0/1"  name="opacity"/>
             </Parameters>
             <Attributes>
              <Attribute id="2376" value="" name="ident"/>
             </Attributes>
             <ExtraData>
              <Entry key="ZoomPanBin">
               <ZoomPanBin id="2377"  >
                <ZoomPanKeyframes>
                 <ZoomPanKeyframe id="2378" timeRangeEnd="-9999999/1" timeRangeDuration="0/1" interpolaterName="linr"  />
                </ZoomPanKeyframes>
               </ZoomPanBin>
              </Entry>
             </ExtraData>
            </VMFile>
            <MetaData>
             <entry key="WinSubProjectDisplayName" val=""/>
            </MetaData>
           </UnifiedMedia>
           <UnifiedMedia id="2379"  >
            <AMFile id="2380" start="191" duration="311" scalar="1/1" mediaStart="348/1" mediaDuration="311/1" trackNumber="1" src="18" channelNumber="0" >
             <Parameters>
              <InterpolatingParam id="2381" interp="linr"  time="0/1" value="1" leadInLength="0/1"  name="volume"/>
              <Parameter id="2382"  name="captions"/>
             </Parameters>
             <Attributes>
              <Attribute id="2383" value="" name="ident"/>
              <Attribute id="2384" value="44100" name="sampleRate"/>
              <Attribute id="2385" value="16" name="bitDepth"/>
              <Attribute id="2386" value="1" name="gain"/>
              <Attribute id="2387" value="0" name="mixToMono"/>
             </Attributes>
            </AMFile>
            <VMFile id="2388" start="191" duration="311" scalar="1/1" mediaStart="348/1" mediaDuration="311/1" trackNumber="0" src="18" >
             <Transformer>
              <VectorParam id="2389"  name="translation">
               <InterpolatingParam id="2390" interp="linr"  time="-9999999/1" value="0" leadInLength="0/1"  />
               <InterpolatingParam id="2391" interp="linr"  time="-9999999/1" value="0" leadInLength="0/1"  />
               <InterpolatingParam id="2392" interp="linr"  time="-9999999/1" value="0" leadInLength="0/1"  />
              </VectorParam>
              <VectorParam id="2393"  name="rotation">
               <InterpolatingParam id="2394" interp="linr"  time="-9999999/1" value="0" leadInLength="0/1"  />
               <InterpolatingParam id="2395" interp="linr"  time="-9999999/1" value="0" leadInLength="0/1"  />
               <InterpolatingParam id="2396" interp="linr"  time="-9999999/1" value="0" leadInLength="0/1"  />
              </VectorParam>
              <VectorParam id="2397"  name="shear">
               <InterpolatingParam id="2398" interp="linr"  time="-9999999/1" value="0" leadInLength="0/1"  />
               <InterpolatingParam id="2399" interp="linr"  time="-9999999/1" value="0" leadInLength="0/1"  />
               <InterpolatingParam id="2400" interp="linr"  time="-9999999/1" value="0" leadInLength="0/1"  />
              </VectorParam>
              <VectorParam id="2401"  name="scale">
               <InterpolatingParam id="2402" interp="linr"  time="-9999999/1" value="1" leadInLength="0/1"  />
               <InterpolatingParam id="2403" interp="linr"  time="-9999999/1" value="1" leadInLength="0/1"  />
               <InterpolatingParam id="2404" interp="linr"  time="-9999999/1" value="1" leadInLength="0/1"  />
              </VectorParam>
              <VectorParam id="2405"  name="anchor">
               <InterpolatingParam id="2406" interp="linr"  time="0/1" value="0" leadInLength="0/1"  />
               <InterpolatingParam id="2407" interp="linr"  time="0/1" value="0" leadInLength="0/1"  />
               <InterpolatingParam id="2408" interp="linr"  time="0/1" value="0" leadInLength="0/1"  />
              </VectorParam>
             </Transformer>
             <Parameters>
              <VectorParam id="2409"  name="sourceCrop">
               <InterpolatingParam id="2410" interp="linr"  time="0/1" value="0" leadInLength="0/1"  />
               <InterpolatingParam id="2411" interp="linr"  time="0/1" value="0" leadInLength="0/1"  />
               <InterpolatingParam id="2412" interp="linr"  time="0/1" value="0" leadInLength="0/1"  />
               <InterpolatingParam id="2413" interp="linr"  time="0/1" value="0" leadInLength="0/1"  />
              </VectorParam>
              <VectorParam id="2414"  name="geometryCrop">
               <InterpolatingParam id="2415" interp="linr"  time="-9999999/1" value="0" leadInLength="0/1"  />
               <InterpolatingParam id="2416" interp="linr"  time="-9999999/1" value="0" leadInLength="0/1"  />
               <InterpolatingParam id="2417" interp="linr"  time="-9999999/1" value="0" leadInLength="0/1"  />
               <InterpolatingParam id="2418" interp="linr"  time="-9999999/1" value="0" leadInLength="0/1"  />
              </VectorParam>
              <InterpolatingParam id="2419" interp="linr"  time="-9999999/1" value="1" leadInLength="0/1"  name="opacity"/>
             </Parameters>
             <Attributes>
              <Attribute id="2420" value="" name="ident"/>
             </Attributes>
             <ExtraData>
              <Entry key="ZoomPanBin">
               <ZoomPanBin id="2421"  >
                <ZoomPanKeyframes>
                 <ZoomPanKeyframe id="2422" timeRangeEnd="-9999999/1" timeRangeDuration="0/1" interpolaterName="linr"  />
                </ZoomPanKeyframes>
               </ZoomPanBin>
              </Entry>
             </ExtraData>
            </VMFile>
            <MetaData>
             <entry key="WinSubProjectDisplayName" val=""/>
            </MetaData>
           </UnifiedMedia>
          </Medias>
         </GenericTrack>
        </StitchedMedia>
        <StitchedMedia id="2423" start="3355" duration="279" scalar="831315933/418797307" mediaStart="11842816/32039" mediaDuration="418797307/2979627" minMediaStart="0/1" >
         <Transformer>
          <VectorParam id="2424"  name="translation">
           <InterpolatingParam id="2425" interp="linr"  >
            <Keyframes>
            <Keyframe id="2426"  time="-9999999/1" value="-206.00000000000074" leadInLength="0/1"  />
            <Keyframe id="2427"  time="302678776375/831315933" value="-343.44444444449442" leadInLength="418797307/4016019"  interpolater="leadin-linr"  />
            <Keyframe id="2428"  time="383087859319/831315933" value="-180.50000000001364" leadInLength="5444364991/118759419"  interpolater="leadin-linr"  />
            </Keyframes>
           </InterpolatingParam>
           <InterpolatingParam id="2429" interp="linr"  >
            <Keyframes>
            <Keyframe id="2430"  time="-9999999/1" value="30.375000000134179" leadInLength="0/1"  />
            <Keyframe id="2431"  time="302678776375/831315933" value="7.6249999999647606" leadInLength="418797307/4016019"  interpolater="leadin-linr"  />
            <Keyframe id="2432"  time="383087859319/831315933" value="99.281249999985249" leadInLength="5444364991/118759419"  interpolater="leadin-linr"  />
            </Keyframes>
           </InterpolatingParam>
           <InterpolatingParam id="2433" interp="linr"  >
            <Keyframes>
            <Keyframe id="2434"  time="-9999999/1" value="0" leadInLength="0/1"  />
            <Keyframe id="2435"  time="302678776375/831315933" value="-3.4106051316482886e-010" leadInLength="418797307/4016019"  interpolater="leadin-linr"  />
            <Keyframe id="2436"  time="383087859319/831315933" value="-3.4106051316482886e-010" leadInLength="5444364991/118759419"  interpolater="leadin-linr"  />
            </Keyframes>
           </InterpolatingParam>
          </VectorParam>
          <VectorParam id="2437"  name="rotation">
           <InterpolatingParam id="2438" interp="linr"  >
            <Keyframes>
            <Keyframe id="2439"  time="-9999999/1" value="0" leadInLength="0/1"  />
            <Keyframe id="2440"  time="302678776375/831315933" value="0" leadInLength="418797307/4016019"  interpolater="leadin-linr"  />
            <Keyframe id="2441"  time="383087859319/831315933" value="0" leadInLength="5444364991/118759419"  interpolater="leadin-linr"  />
            </Keyframes>
           </InterpolatingParam>
           <InterpolatingParam id="2442" interp="linr"  >
            <Keyframes>
            <Keyframe id="2443"  time="-9999999/1" value="0" leadInLength="0/1"  />
            <Keyframe id="2444"  time="302678776375/831315933" value="0" leadInLength="418797307/4016019"  interpolater="leadin-linr"  />
            <Keyframe id="2445"  time="383087859319/831315933" value="0" leadInLength="5444364991/118759419"  interpolater="leadin-linr"  />
            </Keyframes>
           </InterpolatingParam>
           <InterpolatingParam id="2446" interp="linr"  >
            <Keyframes>
            <Keyframe id="2447"  time="-9999999/1" value="0" leadInLength="0/1"  />
            <Keyframe id="2448"  time="302678776375/831315933" value="0" leadInLength="418797307/4016019"  interpolater="leadin-linr"  />
            <Keyframe id="2449"  time="383087859319/831315933" value="0" leadInLength="5444364991/118759419"  interpolater="leadin-linr"  />
            </Keyframes>
           </InterpolatingParam>
          </VectorParam>
          <VectorParam id="2450"  name="shear">
           <InterpolatingParam id="2451" interp="linr"  >
            <Keyframes>
            <Keyframe id="2452"  time="-9999999/1" value="0" leadInLength="0/1"  />
            <Keyframe id="2453"  time="302678776375/831315933" value="0" leadInLength="418797307/4016019"  interpolater="leadin-linr"  />
            <Keyframe id="2454"  time="383087859319/831315933" value="0" leadInLength="5444364991/118759419"  interpolater="leadin-linr"  />
            </Keyframes>
           </InterpolatingParam>
           <InterpolatingParam id="2455" interp="linr"  >
            <Keyframes>
            <Keyframe id="2456"  time="-9999999/1" value="0" leadInLength="0/1"  />
            <Keyframe id="2457"  time="302678776375/831315933" value="0" leadInLength="418797307/4016019"  interpolater="leadin-linr"  />
            <Keyframe id="2458"  time="383087859319/831315933" value="0" leadInLength="5444364991/118759419"  interpolater="leadin-linr"  />
            </Keyframes>
           </InterpolatingParam>
           <InterpolatingParam id="2459" interp="linr"  >
            <Keyframes>
            <Keyframe id="2460"  time="-9999999/1" value="0" leadInLength="0/1"  />
            <Keyframe id="2461"  time="302678776375/831315933" value="0" leadInLength="418797307/4016019"  interpolater="leadin-linr"  />
            <Keyframe id="2462"  time="383087859319/831315933" value="0" leadInLength="5444364991/118759419"  interpolater="leadin-linr"  />
            </Keyframes>
           </InterpolatingParam>
          </VectorParam>
          <VectorParam id="2463"  name="scale">
           <InterpolatingParam id="2464" interp="linr"  >
            <Keyframes>
            <Keyframe id="2465"  time="-9999999/1" value="0.72291666666681864" leadInLength="0/1"  />
            <Keyframe id="2466"  time="302678776375/831315933" value="0.68078703703705368" leadInLength="418797307/4016019"  interpolater="leadin-linr"  />
            <Keyframe id="2467"  time="383087859319/831315933" value="0.8505208333333879" leadInLength="5444364991/118759419"  interpolater="leadin-linr"  />
            </Keyframes>
           </InterpolatingParam>
           <InterpolatingParam id="2468" interp="linr"  >
            <Keyframes>
            <Keyframe id="2469"  time="-9999999/1" value="0.72291666666681864" leadInLength="0/1"  />
            <Keyframe id="2470"  time="302678776375/831315933" value="0.68078703703705412" leadInLength="418797307/4016019"  interpolater="leadin-linr"  />
            <Keyframe id="2471"  time="383087859319/831315933" value="0.85052083333338846" leadInLength="5444364991/118759419"  interpolater="leadin-linr"  />
            </Keyframes>
           </InterpolatingParam>
           <InterpolatingParam id="2472" interp="linr"  >
            <Keyframes>
            <Keyframe id="2473"  time="-9999999/1" value="1" leadInLength="0/1"  />
            <Keyframe id="2474"  time="302678776375/831315933" value="1" leadInLength="418797307/4016019"  interpolater="leadin-linr"  />
            <Keyframe id="2475"  time="383087859319/831315933" value="1" leadInLength="5444364991/118759419"  interpolater="leadin-linr"  />
            </Keyframes>
           </InterpolatingParam>
          </VectorParam>
          <VectorParam id="2476"  name="anchor">
           <InterpolatingParam id="2477" interp="linr"  time="0/1" value="0" leadInLength="0/1"  />
           <InterpolatingParam id="2478" interp="linr"  time="0/1" value="0" leadInLength="0/1"  />
           <InterpolatingParam id="2479" interp="linr"  time="0/1" value="0" leadInLength="0/1"  />
          </VectorParam>
         </Transformer>
         <Parameters>
          <VectorParam id="2480"  name="sourceCrop">
           <InterpolatingParam id="2481" interp="linr"  time="0/1" value="0" leadInLength="0/1"  />
           <InterpolatingParam id="2482" interp="linr"  time="0/1" value="0" leadInLength="0/1"  />
           <InterpolatingParam id="2483" interp="linr"  time="0/1" value="0" leadInLength="0/1"  />
           <InterpolatingParam id="2484" interp="linr"  time="0/1" value="0" leadInLength="0/1"  />
          </VectorParam>
          <VectorParam id="2485"  name="geometryCrop">
           <InterpolatingParam id="2486" interp="linr"  >
            <Keyframes>
            <Keyframe id="2487"  time="-9999999/1" value="0" leadInLength="0/1"  />
            <Keyframe id="2488"  time="302678776375/831315933" value="0" leadInLength="418797307/4016019"  interpolater="leadin-linr"  />
            <Keyframe id="2489"  time="383087859319/831315933" value="0" leadInLength="5444364991/118759419"  interpolater="leadin-linr"  />
            </Keyframes>
           </InterpolatingParam>
           <InterpolatingParam id="2490" interp="linr"  >
            <Keyframes>
            <Keyframe id="2491"  time="-9999999/1" value="0" leadInLength="0/1"  />
            <Keyframe id="2492"  time="302678776375/831315933" value="0" leadInLength="418797307/4016019"  interpolater="leadin-linr"  />
            <Keyframe id="2493"  time="383087859319/831315933" value="0" leadInLength="5444364991/118759419"  interpolater="leadin-linr"  />
            </Keyframes>
           </InterpolatingParam>
           <InterpolatingParam id="2494" interp="linr"  >
            <Keyframes>
            <Keyframe id="2495"  time="-9999999/1" value="0" leadInLength="0/1"  />
            <Keyframe id="2496"  time="302678776375/831315933" value="0" leadInLength="418797307/4016019"  interpolater="leadin-linr"  />
            <Keyframe id="2497"  time="383087859319/831315933" value="0" leadInLength="5444364991/118759419"  interpolater="leadin-linr"  />
            </Keyframes>
           </InterpolatingParam>
           <InterpolatingParam id="2498" interp="linr"  >
            <Keyframes>
            <Keyframe id="2499"  time="-9999999/1" value="0" leadInLength="0/1"  />
            <Keyframe id="2500"  time="302678776375/831315933" value="0" leadInLength="418797307/4016019"  interpolater="leadin-linr"  />
            <Keyframe id="2501"  time="383087859319/831315933" value="0" leadInLength="5444364991/118759419"  interpolater="leadin-linr"  />
            </Keyframes>
           </InterpolatingParam>
          </VectorParam>
          <InterpolatingParam id="2502" interp="linr"  name="opacity">
           <Keyframes>
           <Keyframe id="2503"  time="-9999999/1" value="1" leadInLength="0/1"  />
           <Keyframe id="2504"  time="302678776375/831315933" value="1" leadInLength="418797307/4016019"  interpolater="leadin-linr"  />
           <Keyframe id="2505"  time="383087859319/831315933" value="1" leadInLength="5444364991/118759419"  interpolater="leadin-linr"  />
           </Keyframes>
          </InterpolatingParam>
          <InterpolatingParam id="2506" interp="linr"  time="0/1" value="1" leadInLength="0/1"  name="cursorOpacity"/>
          <InterpolatingParam id="2507" interp="linr"  time="0/1" value="1" leadInLength="0/1"  name="cursorScale"/>
          <InterpolatingParam id="2508" interp="linr"  time="0/1" value="0" leadInLength="0/1"  name="volume"/>
          <Parameter id="2509"  name="captions"/>
         </Parameters>
         <Attributes>
          <Attribute id="2510" value="" name="ident"/>
          <Attribute id="2511" value="0" name="mixToMono"/>
         </Attributes>
         <MetaData>
          <entry key="WinSubProjectDisplayName" val=""/>
         </MetaData>
         <ExtraData>
          <Entry key="ZoomPanBin">
           <ZoomPanBin id="2512"  >
            <ZoomPanKeyframes>
             <ZoomPanKeyframe id="2513" timeRangeEnd="-9999999/1" timeRangeDuration="0/1" interpolaterName="linr"  />
             <ZoomPanKeyframe id="2514" timeRangeEnd="302678776375/831315933" timeRangeDuration="418797307/4016019" interpolaterName="linr"  />
             <ZoomPanKeyframe id="2515" timeRangeEnd="383087859319/831315933" timeRangeDuration="5444364991/118759419" interpolaterName="linr"  />
            </ZoomPanKeyframes>
           </ZoomPanBin>
          </Entry>
          <Entry key="CursorEffectBin">
           <CursorEffectBin id="2516"  >
            <CursorEffectKeyframes>
            </CursorEffectKeyframes>
           </CursorEffectBin>
          </Entry>
         </ExtraData>
         <GenericTrack id="2517"  >
          <Attributes>
           <Attribute id="2518" value="" name="ident"/>
           <Attribute id="2519" value="0" name="audioMuted"/>
           <Attribute id="2520" value="0" name="videoHidden"/>
          </Attributes>
          <MetaData>
           <entry key="IsLocked" val="False"/>
           <entry key="WinTrackHeight" val="0"/>
          </MetaData>
          <Medias>
           <UnifiedMedia id="2521"  >
            <AMFile id="2522" start="0" duration="191" scalar="1/1" mediaStart="0/1" mediaDuration="191/1" trackNumber="1" src="18" channelNumber="0" >
             <Parameters>
              <InterpolatingParam id="2523" interp="linr"  time="0/1" value="1" leadInLength="0/1"  name="volume"/>
              <Parameter id="2524"  name="captions"/>
             </Parameters>
             <Attributes>
              <Attribute id="2525" value="" name="ident"/>
              <Attribute id="2526" value="44100" name="sampleRate"/>
              <Attribute id="2527" value="16" name="bitDepth"/>
              <Attribute id="2528" value="1" name="gain"/>
              <Attribute id="2529" value="0" name="mixToMono"/>
             </Attributes>
            </AMFile>
            <VMFile id="2530" start="0" duration="191" scalar="1/1" mediaStart="0/1" mediaDuration="191/1" trackNumber="0" src="18" >
             <Transformer>
              <VectorParam id="2531"  name="translation">
               <InterpolatingParam id="2532" interp="linr"  time="-9999999/1" value="0" leadInLength="0/1"  />
               <InterpolatingParam id="2533" interp="linr"  time="-9999999/1" value="0" leadInLength="0/1"  />
               <InterpolatingParam id="2534" interp="linr"  time="-9999999/1" value="0" leadInLength="0/1"  />
              </VectorParam>
              <VectorParam id="2535"  name="rotation">
               <InterpolatingParam id="2536" interp="linr"  time="-9999999/1" value="0" leadInLength="0/1"  />
               <InterpolatingParam id="2537" interp="linr"  time="-9999999/1" value="0" leadInLength="0/1"  />
               <InterpolatingParam id="2538" interp="linr"  time="-9999999/1" value="0" leadInLength="0/1"  />
              </VectorParam>
              <VectorParam id="2539"  name="shear">
               <InterpolatingParam id="2540" interp="linr"  time="-9999999/1" value="0" leadInLength="0/1"  />
               <InterpolatingParam id="2541" interp="linr"  time="-9999999/1" value="0" leadInLength="0/1"  />
               <InterpolatingParam id="2542" interp="linr"  time="-9999999/1" value="0" leadInLength="0/1"  />
              </VectorParam>
              <VectorParam id="2543"  name="scale">
               <InterpolatingParam id="2544" interp="linr"  time="-9999999/1" value="1" leadInLength="0/1"  />
               <InterpolatingParam id="2545" interp="linr"  time="-9999999/1" value="1" leadInLength="0/1"  />
               <InterpolatingParam id="2546" interp="linr"  time="-9999999/1" value="1" leadInLength="0/1"  />
              </VectorParam>
              <VectorParam id="2547"  name="anchor">
               <InterpolatingParam id="2548" interp="linr"  time="0/1" value="0" leadInLength="0/1"  />
               <InterpolatingParam id="2549" interp="linr"  time="0/1" value="0" leadInLength="0/1"  />
               <InterpolatingParam id="2550" interp="linr"  time="0/1" value="0" leadInLength="0/1"  />
              </VectorParam>
             </Transformer>
             <Parameters>
              <VectorParam id="2551"  name="sourceCrop">
               <InterpolatingParam id="2552" interp="linr"  time="0/1" value="0" leadInLength="0/1"  />
               <InterpolatingParam id="2553" interp="linr"  time="0/1" value="0" leadInLength="0/1"  />
               <InterpolatingParam id="2554" interp="linr"  time="0/1" value="0" leadInLength="0/1"  />
               <InterpolatingParam id="2555" interp="linr"  time="0/1" value="0" leadInLength="0/1"  />
              </VectorParam>
              <VectorParam id="2556"  name="geometryCrop">
               <InterpolatingParam id="2557" interp="linr"  time="-9999999/1" value="0" leadInLength="0/1"  />
               <InterpolatingParam id="2558" interp="linr"  time="-9999999/1" value="0" leadInLength="0/1"  />
               <InterpolatingParam id="2559" interp="linr"  time="-9999999/1" value="0" leadInLength="0/1"  />
               <InterpolatingParam id="2560" interp="linr"  time="-9999999/1" value="0" leadInLength="0/1"  />
              </VectorParam>
              <InterpolatingParam id="2561" interp="linr"  time="-9999999/1" value="1" leadInLength="0/1"  name="opacity"/>
             </Parameters>
             <Attributes>
              <Attribute id="2562" value="" name="ident"/>
             </Attributes>
             <ExtraData>
              <Entry key="ZoomPanBin">
               <ZoomPanBin id="2563"  >
                <ZoomPanKeyframes>
                 <ZoomPanKeyframe id="2564" timeRangeEnd="-9999999/1" timeRangeDuration="0/1" interpolaterName="linr"  />
                </ZoomPanKeyframes>
               </ZoomPanBin>
              </Entry>
             </ExtraData>
            </VMFile>
            <MetaData>
             <entry key="WinSubProjectDisplayName" val=""/>
            </MetaData>
           </UnifiedMedia>
           <UnifiedMedia id="2565"  >
            <AMFile id="2566" start="191" duration="226" scalar="1/1" mediaStart="348/1" mediaDuration="226/1" trackNumber="1" src="18" channelNumber="0" >
             <Parameters>
              <InterpolatingParam id="2567" interp="linr"  time="0/1" value="1" leadInLength="0/1"  name="volume"/>
              <Parameter id="2568"  name="captions"/>
             </Parameters>
             <Attributes>
              <Attribute id="2569" value="" name="ident"/>
              <Attribute id="2570" value="44100" name="sampleRate"/>
              <Attribute id="2571" value="16" name="bitDepth"/>
              <Attribute id="2572" value="1" name="gain"/>
              <Attribute id="2573" value="0" name="mixToMono"/>
             </Attributes>
            </AMFile>
            <VMFile id="2574" start="191" duration="226" scalar="1/1" mediaStart="348/1" mediaDuration="226/1" trackNumber="0" src="18" >
             <Transformer>
              <VectorParam id="2575"  name="translation">
               <InterpolatingParam id="2576" interp="linr"  time="-9999999/1" value="0" leadInLength="0/1"  />
               <InterpolatingParam id="2577" interp="linr"  time="-9999999/1" value="0" leadInLength="0/1"  />
               <InterpolatingParam id="2578" interp="linr"  time="-9999999/1" value="0" leadInLength="0/1"  />
              </VectorParam>
              <VectorParam id="2579"  name="rotation">
               <InterpolatingParam id="2580" interp="linr"  time="-9999999/1" value="0" leadInLength="0/1"  />
               <InterpolatingParam id="2581" interp="linr"  time="-9999999/1" value="0" leadInLength="0/1"  />
               <InterpolatingParam id="2582" interp="linr"  time="-9999999/1" value="0" leadInLength="0/1"  />
              </VectorParam>
              <VectorParam id="2583"  name="shear">
               <InterpolatingParam id="2584" interp="linr"  time="-9999999/1" value="0" leadInLength="0/1"  />
               <InterpolatingParam id="2585" interp="linr"  time="-9999999/1" value="0" leadInLength="0/1"  />
               <InterpolatingParam id="2586" interp="linr"  time="-9999999/1" value="0" leadInLength="0/1"  />
              </VectorParam>
              <VectorParam id="2587"  name="scale">
               <InterpolatingParam id="2588" interp="linr"  time="-9999999/1" value="1" leadInLength="0/1"  />
               <InterpolatingParam id="2589" interp="linr"  time="-9999999/1" value="1" leadInLength="0/1"  />
               <InterpolatingParam id="2590" interp="linr"  time="-9999999/1" value="1" leadInLength="0/1"  />
              </VectorParam>
              <VectorParam id="2591"  name="anchor">
               <InterpolatingParam id="2592" interp="linr"  time="0/1" value="0" leadInLength="0/1"  />
               <InterpolatingParam id="2593" interp="linr"  time="0/1" value="0" leadInLength="0/1"  />
               <InterpolatingParam id="2594" interp="linr"  time="0/1" value="0" leadInLength="0/1"  />
              </VectorParam>
             </Transformer>
             <Parameters>
              <VectorParam id="2595"  name="sourceCrop">
               <InterpolatingParam id="2596" interp="linr"  time="0/1" value="0" leadInLength="0/1"  />
               <InterpolatingParam id="2597" interp="linr"  time="0/1" value="0" leadInLength="0/1"  />
               <InterpolatingParam id="2598" interp="linr"  time="0/1" value="0" leadInLength="0/1"  />
               <InterpolatingParam id="2599" interp="linr"  time="0/1" value="0" leadInLength="0/1"  />
              </VectorParam>
              <VectorParam id="2600"  name="geometryCrop">
               <InterpolatingParam id="2601" interp="linr"  time="-9999999/1" value="0" leadInLength="0/1"  />
               <InterpolatingParam id="2602" interp="linr"  time="-9999999/1" value="0" leadInLength="0/1"  />
               <InterpolatingParam id="2603" interp="linr"  time="-9999999/1" value="0" leadInLength="0/1"  />
               <InterpolatingParam id="2604" interp="linr"  time="-9999999/1" value="0" leadInLength="0/1"  />
              </VectorParam>
              <InterpolatingParam id="2605" interp="linr"  time="-9999999/1" value="1" leadInLength="0/1"  name="opacity"/>
             </Parameters>
             <Attributes>
              <Attribute id="2606" value="" name="ident"/>
             </Attributes>
             <ExtraData>
              <Entry key="ZoomPanBin">
               <ZoomPanBin id="2607"  >
                <ZoomPanKeyframes>
                 <ZoomPanKeyframe id="2608" timeRangeEnd="-9999999/1" timeRangeDuration="0/1" interpolaterName="linr"  />
                </ZoomPanKeyframes>
               </ZoomPanBin>
              </Entry>
             </ExtraData>
            </VMFile>
            <MetaData>
             <entry key="WinSubProjectDisplayName" val=""/>
            </MetaData>
           </UnifiedMedia>
           <UnifiedMedia id="2609"  >
            <AMFile id="2610" start="417" duration="47" scalar="1/1" mediaStart="526/1" mediaDuration="47/1" trackNumber="1" src="18" channelNumber="0" >
             <Parameters>
              <InterpolatingParam id="2611" interp="linr"  time="0/1" value="1" leadInLength="0/1"  name="volume"/>
              <Parameter id="2612"  name="captions"/>
             </Parameters>
             <Attributes>
              <Attribute id="2613" value="" name="ident"/>
              <Attribute id="2614" value="44100" name="sampleRate"/>
              <Attribute id="2615" value="16" name="bitDepth"/>
              <Attribute id="2616" value="1" name="gain"/>
              <Attribute id="2617" value="0" name="mixToMono"/>
             </Attributes>
            </AMFile>
            <VMFile id="2618" start="417" duration="47" scalar="1/1" mediaStart="526/1" mediaDuration="47/1" trackNumber="0" src="18" >
             <Transformer>
              <VectorParam id="2619"  name="translation">
               <InterpolatingParam id="2620" interp="linr"  time="-9999999/1" value="0" leadInLength="0/1"  />
               <InterpolatingParam id="2621" interp="linr"  time="-9999999/1" value="0" leadInLength="0/1"  />
               <InterpolatingParam id="2622" interp="linr"  time="-9999999/1" value="0" leadInLength="0/1"  />
              </VectorParam>
              <VectorParam id="2623"  name="rotation">
               <InterpolatingParam id="2624" interp="linr"  time="-9999999/1" value="0" leadInLength="0/1"  />
               <InterpolatingParam id="2625" interp="linr"  time="-9999999/1" value="0" leadInLength="0/1"  />
               <InterpolatingParam id="2626" interp="linr"  time="-9999999/1" value="0" leadInLength="0/1"  />
              </VectorParam>
              <VectorParam id="2627"  name="shear">
               <InterpolatingParam id="2628" interp="linr"  time="-9999999/1" value="0" leadInLength="0/1"  />
               <InterpolatingParam id="2629" interp="linr"  time="-9999999/1" value="0" leadInLength="0/1"  />
               <InterpolatingParam id="2630" interp="linr"  time="-9999999/1" value="0" leadInLength="0/1"  />
              </VectorParam>
              <VectorParam id="2631"  name="scale">
               <InterpolatingParam id="2632" interp="linr"  time="-9999999/1" value="1" leadInLength="0/1"  />
               <InterpolatingParam id="2633" interp="linr"  time="-9999999/1" value="1" leadInLength="0/1"  />
               <InterpolatingParam id="2634" interp="linr"  time="-9999999/1" value="1" leadInLength="0/1"  />
              </VectorParam>
              <VectorParam id="2635"  name="anchor">
               <InterpolatingParam id="2636" interp="linr"  time="0/1" value="0" leadInLength="0/1"  />
               <InterpolatingParam id="2637" interp="linr"  time="0/1" value="0" leadInLength="0/1"  />
               <InterpolatingParam id="2638" interp="linr"  time="0/1" value="0" leadInLength="0/1"  />
              </VectorParam>
             </Transformer>
             <Parameters>
              <VectorParam id="2639"  name="sourceCrop">
               <InterpolatingParam id="2640" interp="linr"  time="0/1" value="0" leadInLength="0/1"  />
               <InterpolatingParam id="2641" interp="linr"  time="0/1" value="0" leadInLength="0/1"  />
               <InterpolatingParam id="2642" interp="linr"  time="0/1" value="0" leadInLength="0/1"  />
               <InterpolatingParam id="2643" interp="linr"  time="0/1" value="0" leadInLength="0/1"  />
              </VectorParam>
              <VectorParam id="2644"  name="geometryCrop">
               <InterpolatingParam id="2645" interp="linr"  time="-9999999/1" value="0" leadInLength="0/1"  />
               <InterpolatingParam id="2646" interp="linr"  time="-9999999/1" value="0" leadInLength="0/1"  />
               <InterpolatingParam id="2647" interp="linr"  time="-9999999/1" value="0" leadInLength="0/1"  />
               <InterpolatingParam id="2648" interp="linr"  time="-9999999/1" value="0" leadInLength="0/1"  />
              </VectorParam>
              <InterpolatingParam id="2649" interp="linr"  time="-9999999/1" value="1" leadInLength="0/1"  name="opacity"/>
             </Parameters>
             <Attributes>
              <Attribute id="2650" value="" name="ident"/>
             </Attributes>
             <ExtraData>
              <Entry key="ZoomPanBin">
               <ZoomPanBin id="2651"  >
                <ZoomPanKeyframes>
                 <ZoomPanKeyframe id="2652" timeRangeEnd="-9999999/1" timeRangeDuration="0/1" interpolaterName="linr"  />
                </ZoomPanKeyframes>
               </ZoomPanBin>
              </Entry>
             </ExtraData>
            </VMFile>
            <MetaData>
             <entry key="WinSubProjectDisplayName" val=""/>
            </MetaData>
           </UnifiedMedia>
           <UnifiedMedia id="2653"  >
            <AMFile id="2654" start="464" duration="133" scalar="1/1" mediaStart="526/1" mediaDuration="133/1" trackNumber="1" src="18" channelNumber="0" >
             <Parameters>
              <InterpolatingParam id="2655" interp="linr"  time="0/1" value="1" leadInLength="0/1"  name="volume"/>
              <Parameter id="2656"  name="captions"/>
             </Parameters>
             <Attributes>
              <Attribute id="2657" value="" name="ident"/>
              <Attribute id="2658" value="44100" name="sampleRate"/>
              <Attribute id="2659" value="16" name="bitDepth"/>
              <Attribute id="2660" value="1" name="gain"/>
              <Attribute id="2661" value="0" name="mixToMono"/>
             </Attributes>
            </AMFile>
            <VMFile id="2662" start="464" duration="133" scalar="1/1" mediaStart="526/1" mediaDuration="133/1" trackNumber="0" src="18" >
             <Transformer>
              <VectorParam id="2663"  name="translation">
               <InterpolatingParam id="2664" interp="linr"  time="-9999999/1" value="0" leadInLength="0/1"  />
               <InterpolatingParam id="2665" interp="linr"  time="-9999999/1" value="0" leadInLength="0/1"  />
               <InterpolatingParam id="2666" interp="linr"  time="-9999999/1" value="0" leadInLength="0/1"  />
              </VectorParam>
              <VectorParam id="2667"  name="rotation">
               <InterpolatingParam id="2668" interp="linr"  time="-9999999/1" value="0" leadInLength="0/1"  />
               <InterpolatingParam id="2669" interp="linr"  time="-9999999/1" value="0" leadInLength="0/1"  />
               <InterpolatingParam id="2670" interp="linr"  time="-9999999/1" value="0" leadInLength="0/1"  />
              </VectorParam>
              <VectorParam id="2671"  name="shear">
               <InterpolatingParam id="2672" interp="linr"  time="-9999999/1" value="0" leadInLength="0/1"  />
               <InterpolatingParam id="2673" interp="linr"  time="-9999999/1" value="0" leadInLength="0/1"  />
               <InterpolatingParam id="2674" interp="linr"  time="-9999999/1" value="0" leadInLength="0/1"  />
              </VectorParam>
              <VectorParam id="2675"  name="scale">
               <InterpolatingParam id="2676" interp="linr"  time="-9999999/1" value="1" leadInLength="0/1"  />
               <InterpolatingParam id="2677" interp="linr"  time="-9999999/1" value="1" leadInLength="0/1"  />
               <InterpolatingParam id="2678" interp="linr"  time="-9999999/1" value="1" leadInLength="0/1"  />
              </VectorParam>
              <VectorParam id="2679"  name="anchor">
               <InterpolatingParam id="2680" interp="linr"  time="0/1" value="0" leadInLength="0/1"  />
               <InterpolatingParam id="2681" interp="linr"  time="0/1" value="0" leadInLength="0/1"  />
               <InterpolatingParam id="2682" interp="linr"  time="0/1" value="0" leadInLength="0/1"  />
              </VectorParam>
             </Transformer>
             <Parameters>
              <VectorParam id="2683"  name="sourceCrop">
               <InterpolatingParam id="2684" interp="linr"  time="0/1" value="0" leadInLength="0/1"  />
               <InterpolatingParam id="2685" interp="linr"  time="0/1" value="0" leadInLength="0/1"  />
               <InterpolatingParam id="2686" interp="linr"  time="0/1" value="0" leadInLength="0/1"  />
               <InterpolatingParam id="2687" interp="linr"  time="0/1" value="0" leadInLength="0/1"  />
              </VectorParam>
              <VectorParam id="2688"  name="geometryCrop">
               <InterpolatingParam id="2689" interp="linr"  time="-9999999/1" value="0" leadInLength="0/1"  />
               <InterpolatingParam id="2690" interp="linr"  time="-9999999/1" value="0" leadInLength="0/1"  />
               <InterpolatingParam id="2691" interp="linr"  time="-9999999/1" value="0" leadInLength="0/1"  />
               <InterpolatingParam id="2692" interp="linr"  time="-9999999/1" value="0" leadInLength="0/1"  />
              </VectorParam>
              <InterpolatingParam id="2693" interp="linr"  time="-9999999/1" value="1" leadInLength="0/1"  name="opacity"/>
             </Parameters>
             <Attributes>
              <Attribute id="2694" value="" name="ident"/>
             </Attributes>
             <ExtraData>
              <Entry key="ZoomPanBin">
               <ZoomPanBin id="2695"  >
                <ZoomPanKeyframes>
                 <ZoomPanKeyframe id="2696" timeRangeEnd="-9999999/1" timeRangeDuration="0/1" interpolaterName="linr"  />
                </ZoomPanKeyframes>
               </ZoomPanBin>
              </Entry>
             </ExtraData>
            </VMFile>
            <MetaData>
             <entry key="WinSubProjectDisplayName" val=""/>
            </MetaData>
           </UnifiedMedia>
          </Medias>
         </GenericTrack>
        </StitchedMedia>
        <UnifiedMedia id="2697"  >
         <AMFile id="2698" start="3634" duration="97" scalar="97/226" mediaStart="44/1" mediaDuration="226/1" trackNumber="1" src="19" channelNumber="0" >
          <Parameters>
           <InterpolatingParam id="2699" interp="linr"  name="volume">
            <Keyframes>
            <Keyframe id="2700"  time="-1/1" value="1" leadInLength="0/1"  />
            <Keyframe id="2701"  time="0/1" value="0" leadInLength="0/1"  />
            <Keyframe id="2702"  time="770/1" value="0" leadInLength="0/1"  />
            <Keyframe id="2703"  time="771/1" value="1" leadInLength="0/1"  />
            </Keyframes>
           </InterpolatingParam>
           <Parameter id="2704"  name="captions"/>
          </Parameters>
          <Attributes>
           <Attribute id="2705" value="" name="ident"/>
           <Attribute id="2706" value="44100" name="sampleRate"/>
           <Attribute id="2707" value="16" name="bitDepth"/>
           <Attribute id="2708" value="1" name="gain"/>
           <Attribute id="2709" value="0" name="mixToMono"/>
          </Attributes>
         </AMFile>
         <VMFile id="2710" start="3634" duration="97" scalar="97/226" mediaStart="44/1" mediaDuration="226/1" trackNumber="0" src="19" >
          <Transformer>
           <VectorParam id="2711"  name="translation">
            <InterpolatingParam id="2712" interp="linr"  >
             <Keyframes>
             <Keyframe id="2713"  time="-9999999/1" value="-180.7777777776173" leadInLength="0/1"  />
             <Keyframe id="2714"  time="72746/97" value="-331.33333333297389" leadInLength="20340/97"  interpolater="leadin-linr"  />
             </Keyframes>
            </InterpolatingParam>
            <InterpolatingParam id="2715" interp="linr"  >
             <Keyframes>
             <Keyframe id="2716"  time="-9999999/1" value="99.437499999898421" leadInLength="0/1"  />
             <Keyframe id="2717"  time="72746/97" value="-40.000000000155062" leadInLength="20340/97"  interpolater="leadin-linr"  />
             </Keyframes>
            </InterpolatingParam>
            <InterpolatingParam id="2718" interp="linr"  >
             <Keyframes>
             <Keyframe id="2719"  time="-9999999/1" value="-3.4106051316488588e-010" leadInLength="0/1"  />
             <Keyframe id="2720"  time="72746/97" value="0" leadInLength="20340/97"  interpolater="leadin-linr"  />
             </Keyframes>
            </InterpolatingParam>
           </VectorParam>
           <VectorParam id="2721"  name="rotation">
            <InterpolatingParam id="2722" interp="linr"  >
             <Keyframes>
             <Keyframe id="2723"  time="-9999999/1" value="0" leadInLength="0/1"  />
             <Keyframe id="2724"  time="72746/97" value="0" leadInLength="20340/97"  interpolater="leadin-linr"  />
             </Keyframes>
            </InterpolatingParam>
            <InterpolatingParam id="2725" interp="linr"  >
             <Keyframes>
             <Keyframe id="2726"  time="-9999999/1" value="0" leadInLength="0/1"  />
             <Keyframe id="2727"  time="72746/97" value="0" leadInLength="20340/97"  interpolater="leadin-linr"  />
             </Keyframes>
            </InterpolatingParam>
            <InterpolatingParam id="2728" interp="linr"  >
             <Keyframes>
             <Keyframe id="2729"  time="-9999999/1" value="0" leadInLength="0/1"  />
             <Keyframe id="2730"  time="72746/97" value="0" leadInLength="20340/97"  interpolater="leadin-linr"  />
             </Keyframes>
            </InterpolatingParam>
           </VectorParam>
           <VectorParam id="2731"  name="shear">
            <InterpolatingParam id="2732" interp="linr"  >
             <Keyframes>
             <Keyframe id="2733"  time="-9999999/1" value="0" leadInLength="0/1"  />
             <Keyframe id="2734"  time="72746/97" value="0" leadInLength="20340/97"  interpolater="leadin-linr"  />
             </Keyframes>
            </InterpolatingParam>
            <InterpolatingParam id="2735" interp="linr"  >
             <Keyframes>
             <Keyframe id="2736"  time="-9999999/1" value="0" leadInLength="0/1"  />
             <Keyframe id="2737"  time="72746/97" value="0" leadInLength="20340/97"  interpolater="leadin-linr"  />
             </Keyframes>
            </InterpolatingParam>
            <InterpolatingParam id="2738" interp="linr"  >
             <Keyframes>
             <Keyframe id="2739"  time="-9999999/1" value="0" leadInLength="0/1"  />
             <Keyframe id="2740"  time="72746/97" value="0" leadInLength="20340/97"  interpolater="leadin-linr"  />
             </Keyframes>
            </InterpolatingParam>
           </VectorParam>
           <VectorParam id="2741"  name="scale">
            <InterpolatingParam id="2742" interp="linr"  >
             <Keyframes>
             <Keyframe id="2743"  time="-9999999/1" value="0.85081018518511831" leadInLength="0/1"  />
             <Keyframe id="2744"  time="72746/97" value="0.59259259259246078" leadInLength="20340/97"  interpolater="leadin-linr"  />
             </Keyframes>
            </InterpolatingParam>
            <InterpolatingParam id="2745" interp="linr"  >
             <Keyframes>
             <Keyframe id="2746"  time="-9999999/1" value="0.85081018518511864" leadInLength="0/1"  />
             <Keyframe id="2747"  time="72746/97" value="0.59259259259246089" leadInLength="20340/97"  interpolater="leadin-linr"  />
             </Keyframes>
            </InterpolatingParam>
            <InterpolatingParam id="2748" interp="linr"  >
             <Keyframes>
             <Keyframe id="2749"  time="-9999999/1" value="1" leadInLength="0/1"  />
             <Keyframe id="2750"  time="72746/97" value="1" leadInLength="20340/97"  interpolater="leadin-linr"  />
             </Keyframes>
            </InterpolatingParam>
           </VectorParam>
           <VectorParam id="2751"  name="anchor">
            <InterpolatingParam id="2752" interp="linr"  time="0/1" value="0" leadInLength="0/1"  />
            <InterpolatingParam id="2753" interp="linr"  time="0/1" value="0" leadInLength="0/1"  />
            <InterpolatingParam id="2754" interp="linr"  time="0/1" value="0" leadInLength="0/1"  />
           </VectorParam>
          </Transformer>
          <Parameters>
           <VectorParam id="2755"  name="sourceCrop">
            <InterpolatingParam id="2756" interp="linr"  time="0/1" value="0" leadInLength="0/1"  />
            <InterpolatingParam id="2757" interp="linr"  time="0/1" value="0" leadInLength="0/1"  />
            <InterpolatingParam id="2758" interp="linr"  time="0/1" value="0" leadInLength="0/1"  />
            <InterpolatingParam id="2759" interp="linr"  time="0/1" value="0" leadInLength="0/1"  />
           </VectorParam>
           <VectorParam id="2760"  name="geometryCrop">
            <InterpolatingParam id="2761" interp="linr"  >
             <Keyframes>
             <Keyframe id="2762"  time="-9999999/1" value="0" leadInLength="0/1"  />
             <Keyframe id="2763"  time="72746/97" value="0" leadInLength="20340/97"  interpolater="leadin-linr"  />
             </Keyframes>
            </InterpolatingParam>
            <InterpolatingParam id="2764" interp="linr"  >
             <Keyframes>
             <Keyframe id="2765"  time="-9999999/1" value="0" leadInLength="0/1"  />
             <Keyframe id="2766"  time="72746/97" value="0" leadInLength="20340/97"  interpolater="leadin-linr"  />
             </Keyframes>
            </InterpolatingParam>
            <InterpolatingParam id="2767" interp="linr"  >
             <Keyframes>
             <Keyframe id="2768"  time="-9999999/1" value="0" leadInLength="0/1"  />
             <Keyframe id="2769"  time="72746/97" value="0" leadInLength="20340/97"  interpolater="leadin-linr"  />
             </Keyframes>
            </InterpolatingParam>
            <InterpolatingParam id="2770" interp="linr"  >
             <Keyframes>
             <Keyframe id="2771"  time="-9999999/1" value="0" leadInLength="0/1"  />
             <Keyframe id="2772"  time="72746/97" value="0" leadInLength="20340/97"  interpolater="leadin-linr"  />
             </Keyframes>
            </InterpolatingParam>
           </VectorParam>
           <InterpolatingParam id="2773" interp="linr"  name="opacity">
            <Keyframes>
            <Keyframe id="2774"  time="-9999999/1" value="1" leadInLength="0/1"  />
            <Keyframe id="2775"  time="72746/97" value="1" leadInLength="20340/97"  interpolater="leadin-linr"  />
            </Keyframes>
           </InterpolatingParam>
          </Parameters>
          <Attributes>
           <Attribute id="2776" value="" name="ident"/>
          </Attributes>
          <ExtraData>
           <Entry key="ZoomPanBin">
            <ZoomPanBin id="2777"  >
             <ZoomPanKeyframes>
              <ZoomPanKeyframe id="2778" timeRangeEnd="-9999999/1" timeRangeDuration="0/1" interpolaterName="linr"  />
              <ZoomPanKeyframe id="2779" timeRangeEnd="72746/97" timeRangeDuration="20340/97" interpolaterName="linr"  />
             </ZoomPanKeyframes>
            </ZoomPanBin>
           </Entry>
          </ExtraData>
         </VMFile>
         <MetaData>
          <entry key="WinSubProjectDisplayName" val=""/>
         </MetaData>
        </UnifiedMedia>
        <StitchedMedia id="2780" start="3731" duration="222" scalar="238906129/371701943" mediaStart="17729741/78407" mediaDuration="82517831346/238906129" minMediaStart="0/1" >
         <Transformer>
          <VectorParam id="2781"  name="translation">
           <InterpolatingParam id="2782" interp="linr"  time="-9999999/1" value="-201.46236559124395" leadInLength="0/1"  />
           <InterpolatingParam id="2783" interp="linr"  time="-9999999/1" value="49.548387096828996" leadInLength="0/1"  />
           <InterpolatingParam id="2784" interp="linr"  time="-9999999/1" value="-3.4106051316482886e-010" leadInLength="0/1"  />
          </VectorParam>
          <VectorParam id="2785"  name="rotation">
           <InterpolatingParam id="2786" interp="linr"  time="-9999999/1" value="0" leadInLength="0/1"  />
           <InterpolatingParam id="2787" interp="linr"  time="-9999999/1" value="0" leadInLength="0/1"  />
           <InterpolatingParam id="2788" interp="linr"  time="-9999999/1" value="0" leadInLength="0/1"  />
          </VectorParam>
          <VectorParam id="2789"  name="shear">
           <InterpolatingParam id="2790" interp="linr"  time="-9999999/1" value="0" leadInLength="0/1"  />
           <InterpolatingParam id="2791" interp="linr"  time="-9999999/1" value="0" leadInLength="0/1"  />
           <InterpolatingParam id="2792" interp="linr"  time="-9999999/1" value="0" leadInLength="0/1"  />
          </VectorParam>
          <VectorParam id="2793"  name="scale">
           <InterpolatingParam id="2794" interp="linr"  time="-9999999/1" value="0.75842293906815683" leadInLength="0/1"  />
           <InterpolatingParam id="2795" interp="linr"  time="-9999999/1" value="0.75842293906815694" leadInLength="0/1"  />
           <InterpolatingParam id="2796" interp="linr"  time="-9999999/1" value="1" leadInLength="0/1"  />
          </VectorParam>
          <VectorParam id="2797"  name="anchor">
           <InterpolatingParam id="2798" interp="linr"  time="0/1" value="0" leadInLength="0/1"  />
           <InterpolatingParam id="2799" interp="linr"  time="0/1" value="0" leadInLength="0/1"  />
           <InterpolatingParam id="2800" interp="linr"  time="0/1" value="0" leadInLength="0/1"  />
          </VectorParam>
         </Transformer>
         <Parameters>
          <VectorParam id="2801"  name="sourceCrop">
           <InterpolatingParam id="2802" interp="linr"  time="0/1" value="0" leadInLength="0/1"  />
           <InterpolatingParam id="2803" interp="linr"  time="0/1" value="0" leadInLength="0/1"  />
           <InterpolatingParam id="2804" interp="linr"  time="0/1" value="0" leadInLength="0/1"  />
           <InterpolatingParam id="2805" interp="linr"  time="0/1" value="0" leadInLength="0/1"  />
          </VectorParam>
          <VectorParam id="2806"  name="geometryCrop">
           <InterpolatingParam id="2807" interp="linr"  time="-9999999/1" value="0" leadInLength="0/1"  />
           <InterpolatingParam id="2808" interp="linr"  time="-9999999/1" value="0" leadInLength="0/1"  />
           <InterpolatingParam id="2809" interp="linr"  time="-9999999/1" value="0" leadInLength="0/1"  />
           <InterpolatingParam id="2810" interp="linr"  time="-9999999/1" value="0" leadInLength="0/1"  />
          </VectorParam>
          <InterpolatingParam id="2811" interp="linr"  time="-9999999/1" value="1" leadInLength="0/1"  name="opacity"/>
          <InterpolatingParam id="2812" interp="linr"  time="0/1" value="1" leadInLength="0/1"  name="cursorOpacity"/>
          <InterpolatingParam id="2813" interp="linr"  time="0/1" value="1" leadInLength="0/1"  name="cursorScale"/>
          <InterpolatingParam id="2814" interp="linr"  name="volume">
           <Keyframes>
           <Keyframe id="2815"  time="-1/2" value="1" leadInLength="0/1"  />
           <Keyframe id="2816"  time="0/1" value="0" leadInLength="0/1"  />
           <Keyframe id="2817"  time="404698471/616055" value="0" leadInLength="0/1"  />
           <Keyframe id="2818"  time="810012997/1232110" value="1" leadInLength="0/1"  />
           </Keyframes>
          </InterpolatingParam>
          <Parameter id="2819"  name="captions"/>
         </Parameters>
         <Attributes>
          <Attribute id="2820" value="" name="ident"/>
          <Attribute id="2821" value="0" name="mixToMono"/>
         </Attributes>
         <MetaData>
          <entry key="WinSubProjectDisplayName" val=""/>
         </MetaData>
         <ExtraData>
          <Entry key="ZoomPanBin">
           <ZoomPanBin id="2822"  >
            <ZoomPanKeyframes>
             <ZoomPanKeyframe id="2823" timeRangeEnd="-9999999/1" timeRangeDuration="0/1" interpolaterName="linr"  />
            </ZoomPanKeyframes>
           </ZoomPanBin>
          </Entry>
          <Entry key="CursorEffectBin">
           <CursorEffectBin id="2824"  >
            <CursorEffectKeyframes>
            </CursorEffectKeyframes>
           </CursorEffectBin>
          </Entry>
         </ExtraData>
         <GenericTrack id="2825"  >
          <Attributes>
           <Attribute id="2826" value="" name="ident"/>
           <Attribute id="2827" value="0" name="audioMuted"/>
           <Attribute id="2828" value="0" name="videoHidden"/>
          </Attributes>
          <MetaData>
           <entry key="IsLocked" val="False"/>
           <entry key="WinTrackHeight" val="0"/>
          </MetaData>
          <Medias>
           <UnifiedMedia id="2829"  >
            <AMFile id="2830" start="0" duration="323" scalar="1/1" mediaStart="0/1" mediaDuration="323/1" trackNumber="1" src="19" channelNumber="0" >
             <Parameters>
              <InterpolatingParam id="2831" interp="linr"  time="0/1" value="1" leadInLength="0/1"  name="volume"/>
              <Parameter id="2832"  name="captions"/>
             </Parameters>
             <Attributes>
              <Attribute id="2833" value="" name="ident"/>
              <Attribute id="2834" value="44100" name="sampleRate"/>
              <Attribute id="2835" value="16" name="bitDepth"/>
              <Attribute id="2836" value="1" name="gain"/>
              <Attribute id="2837" value="0" name="mixToMono"/>
             </Attributes>
            </AMFile>
            <VMFile id="2838" start="0" duration="323" scalar="1/1" mediaStart="0/1" mediaDuration="323/1" trackNumber="0" src="19" >
             <Transformer>
              <VectorParam id="2839"  name="translation">
               <InterpolatingParam id="2840" interp="linr"  time="-9999999/1" value="0" leadInLength="0/1"  />
               <InterpolatingParam id="2841" interp="linr"  time="-9999999/1" value="0" leadInLength="0/1"  />
               <InterpolatingParam id="2842" interp="linr"  time="-9999999/1" value="0" leadInLength="0/1"  />
              </VectorParam>
              <VectorParam id="2843"  name="rotation">
               <InterpolatingParam id="2844" interp="linr"  time="-9999999/1" value="0" leadInLength="0/1"  />
               <InterpolatingParam id="2845" interp="linr"  time="-9999999/1" value="0" leadInLength="0/1"  />
               <InterpolatingParam id="2846" interp="linr"  time="-9999999/1" value="0" leadInLength="0/1"  />
              </VectorParam>
              <VectorParam id="2847"  name="shear">
               <InterpolatingParam id="2848" interp="linr"  time="-9999999/1" value="0" leadInLength="0/1"  />
               <InterpolatingParam id="2849" interp="linr"  time="-9999999/1" value="0" leadInLength="0/1"  />
               <InterpolatingParam id="2850" interp="linr"  time="-9999999/1" value="0" leadInLength="0/1"  />
              </VectorParam>
              <VectorParam id="2851"  name="scale">
               <InterpolatingParam id="2852" interp="linr"  time="-9999999/1" value="1" leadInLength="0/1"  />
               <InterpolatingParam id="2853" interp="linr"  time="-9999999/1" value="1" leadInLength="0/1"  />
               <InterpolatingParam id="2854" interp="linr"  time="-9999999/1" value="1" leadInLength="0/1"  />
              </VectorParam>
              <VectorParam id="2855"  name="anchor">
               <InterpolatingParam id="2856" interp="linr"  time="0/1" value="0" leadInLength="0/1"  />
               <InterpolatingParam id="2857" interp="linr"  time="0/1" value="0" leadInLength="0/1"  />
               <InterpolatingParam id="2858" interp="linr"  time="0/1" value="0" leadInLength="0/1"  />
              </VectorParam>
             </Transformer>
             <Parameters>
              <VectorParam id="2859"  name="sourceCrop">
               <InterpolatingParam id="2860" interp="linr"  time="0/1" value="0" leadInLength="0/1"  />
               <InterpolatingParam id="2861" interp="linr"  time="0/1" value="0" leadInLength="0/1"  />
               <InterpolatingParam id="2862" interp="linr"  time="0/1" value="0" leadInLength="0/1"  />
               <InterpolatingParam id="2863" interp="linr"  time="0/1" value="0" leadInLength="0/1"  />
              </VectorParam>
              <VectorParam id="2864"  name="geometryCrop">
               <InterpolatingParam id="2865" interp="linr"  time="-9999999/1" value="0" leadInLength="0/1"  />
               <InterpolatingParam id="2866" interp="linr"  time="-9999999/1" value="0" leadInLength="0/1"  />
               <InterpolatingParam id="2867" interp="linr"  time="-9999999/1" value="0" leadInLength="0/1"  />
               <InterpolatingParam id="2868" interp="linr"  time="-9999999/1" value="0" leadInLength="0/1"  />
              </VectorParam>
              <InterpolatingParam id="2869" interp="linr"  time="-9999999/1" value="1" leadInLength="0/1"  name="opacity"/>
             </Parameters>
             <Attributes>
              <Attribute id="2870" value="" name="ident"/>
             </Attributes>
             <ExtraData>
              <Entry key="ZoomPanBin">
               <ZoomPanBin id="2871"  >
                <ZoomPanKeyframes>
                 <ZoomPanKeyframe id="2872" timeRangeEnd="-9999999/1" timeRangeDuration="0/1" interpolaterName="linr"  />
                </ZoomPanKeyframes>
               </ZoomPanBin>
              </Entry>
             </ExtraData>
            </VMFile>
            <MetaData>
             <entry key="WinSubProjectDisplayName" val=""/>
            </MetaData>
           </UnifiedMedia>
           <UnifiedMedia id="2873"  >
            <AMFile id="2874" start="323" duration="187" scalar="1/1" mediaStart="437/1" mediaDuration="187/1" trackNumber="1" src="19" channelNumber="0" >
             <Parameters>
              <InterpolatingParam id="2875" interp="linr"  time="0/1" value="1" leadInLength="0/1"  name="volume"/>
              <Parameter id="2876"  name="captions"/>
             </Parameters>
             <Attributes>
              <Attribute id="2877" value="" name="ident"/>
              <Attribute id="2878" value="44100" name="sampleRate"/>
              <Attribute id="2879" value="16" name="bitDepth"/>
              <Attribute id="2880" value="1" name="gain"/>
              <Attribute id="2881" value="0" name="mixToMono"/>
             </Attributes>
            </AMFile>
            <VMFile id="2882" start="323" duration="187" scalar="1/1" mediaStart="437/1" mediaDuration="187/1" trackNumber="0" src="19" >
             <Transformer>
              <VectorParam id="2883"  name="translation">
               <InterpolatingParam id="2884" interp="linr"  time="-9999999/1" value="0" leadInLength="0/1"  />
               <InterpolatingParam id="2885" interp="linr"  time="-9999999/1" value="0" leadInLength="0/1"  />
               <InterpolatingParam id="2886" interp="linr"  time="-9999999/1" value="0" leadInLength="0/1"  />
              </VectorParam>
              <VectorParam id="2887"  name="rotation">
               <InterpolatingParam id="2888" interp="linr"  time="-9999999/1" value="0" leadInLength="0/1"  />
               <InterpolatingParam id="2889" interp="linr"  time="-9999999/1" value="0" leadInLength="0/1"  />
               <InterpolatingParam id="2890" interp="linr"  time="-9999999/1" value="0" leadInLength="0/1"  />
              </VectorParam>
              <VectorParam id="2891"  name="shear">
               <InterpolatingParam id="2892" interp="linr"  time="-9999999/1" value="0" leadInLength="0/1"  />
               <InterpolatingParam id="2893" interp="linr"  time="-9999999/1" value="0" leadInLength="0/1"  />
               <InterpolatingParam id="2894" interp="linr"  time="-9999999/1" value="0" leadInLength="0/1"  />
              </VectorParam>
              <VectorParam id="2895"  name="scale">
               <InterpolatingParam id="2896" interp="linr"  time="-9999999/1" value="1" leadInLength="0/1"  />
               <InterpolatingParam id="2897" interp="linr"  time="-9999999/1" value="1" leadInLength="0/1"  />
               <InterpolatingParam id="2898" interp="linr"  time="-9999999/1" value="1" leadInLength="0/1"  />
              </VectorParam>
              <VectorParam id="2899"  name="anchor">
               <InterpolatingParam id="2900" interp="linr"  time="0/1" value="0" leadInLength="0/1"  />
               <InterpolatingParam id="2901" interp="linr"  time="0/1" value="0" leadInLength="0/1"  />
               <InterpolatingParam id="2902" interp="linr"  time="0/1" value="0" leadInLength="0/1"  />
              </VectorParam>
             </Transformer>
             <Parameters>
              <VectorParam id="2903"  name="sourceCrop">
               <InterpolatingParam id="2904" interp="linr"  time="0/1" value="0" leadInLength="0/1"  />
               <InterpolatingParam id="2905" interp="linr"  time="0/1" value="0" leadInLength="0/1"  />
               <InterpolatingParam id="2906" interp="linr"  time="0/1" value="0" leadInLength="0/1"  />
               <InterpolatingParam id="2907" interp="linr"  time="0/1" value="0" leadInLength="0/1"  />
              </VectorParam>
              <VectorParam id="2908"  name="geometryCrop">
               <InterpolatingParam id="2909" interp="linr"  time="-9999999/1" value="0" leadInLength="0/1"  />
               <InterpolatingParam id="2910" interp="linr"  time="-9999999/1" value="0" leadInLength="0/1"  />
               <InterpolatingParam id="2911" interp="linr"  time="-9999999/1" value="0" leadInLength="0/1"  />
               <InterpolatingParam id="2912" interp="linr"  time="-9999999/1" value="0" leadInLength="0/1"  />
              </VectorParam>
              <InterpolatingParam id="2913" interp="linr"  time="-9999999/1" value="1" leadInLength="0/1"  name="opacity"/>
             </Parameters>
             <Attributes>
              <Attribute id="2914" value="" name="ident"/>
             </Attributes>
             <ExtraData>
              <Entry key="ZoomPanBin">
               <ZoomPanBin id="2915"  >
                <ZoomPanKeyframes>
                 <ZoomPanKeyframe id="2916" timeRangeEnd="-9999999/1" timeRangeDuration="0/1" interpolaterName="linr"  />
                </ZoomPanKeyframes>
               </ZoomPanBin>
              </Entry>
             </ExtraData>
            </VMFile>
            <MetaData>
             <entry key="WinSubProjectDisplayName" val=""/>
            </MetaData>
           </UnifiedMedia>
           <UnifiedMedia id="2917"  >
            <AMFile id="2918" start="510" duration="148" scalar="1/1" mediaStart="622/1" mediaDuration="148/1" trackNumber="1" src="19" channelNumber="0" >
             <Parameters>
              <InterpolatingParam id="2919" interp="linr"  time="0/1" value="1" leadInLength="0/1"  name="volume"/>
              <Parameter id="2920"  name="captions"/>
             </Parameters>
             <Attributes>
              <Attribute id="2921" value="" name="ident"/>
              <Attribute id="2922" value="44100" name="sampleRate"/>
              <Attribute id="2923" value="16" name="bitDepth"/>
              <Attribute id="2924" value="1" name="gain"/>
              <Attribute id="2925" value="0" name="mixToMono"/>
             </Attributes>
            </AMFile>
            <VMFile id="2926" start="510" duration="148" scalar="1/1" mediaStart="622/1" mediaDuration="148/1" trackNumber="0" src="19" >
             <Transformer>
              <VectorParam id="2927"  name="translation">
               <InterpolatingParam id="2928" interp="linr"  time="-9999999/1" value="0" leadInLength="0/1"  />
               <InterpolatingParam id="2929" interp="linr"  time="-9999999/1" value="0" leadInLength="0/1"  />
               <InterpolatingParam id="2930" interp="linr"  time="-9999999/1" value="0" leadInLength="0/1"  />
              </VectorParam>
              <VectorParam id="2931"  name="rotation">
               <InterpolatingParam id="2932" interp="linr"  time="-9999999/1" value="0" leadInLength="0/1"  />
               <InterpolatingParam id="2933" interp="linr"  time="-9999999/1" value="0" leadInLength="0/1"  />
               <InterpolatingParam id="2934" interp="linr"  time="-9999999/1" value="0" leadInLength="0/1"  />
              </VectorParam>
              <VectorParam id="2935"  name="shear">
               <InterpolatingParam id="2936" interp="linr"  time="-9999999/1" value="0" leadInLength="0/1"  />
               <InterpolatingParam id="2937" interp="linr"  time="-9999999/1" value="0" leadInLength="0/1"  />
               <InterpolatingParam id="2938" interp="linr"  time="-9999999/1" value="0" leadInLength="0/1"  />
              </VectorParam>
              <VectorParam id="2939"  name="scale">
               <InterpolatingParam id="2940" interp="linr"  time="-9999999/1" value="1" leadInLength="0/1"  />
               <InterpolatingParam id="2941" interp="linr"  time="-9999999/1" value="1" leadInLength="0/1"  />
               <InterpolatingParam id="2942" interp="linr"  time="-9999999/1" value="1" leadInLength="0/1"  />
              </VectorParam>
              <VectorParam id="2943"  name="anchor">
               <InterpolatingParam id="2944" interp="linr"  time="0/1" value="0" leadInLength="0/1"  />
               <InterpolatingParam id="2945" interp="linr"  time="0/1" value="0" leadInLength="0/1"  />
               <InterpolatingParam id="2946" interp="linr"  time="0/1" value="0" leadInLength="0/1"  />
              </VectorParam>
             </Transformer>
             <Parameters>
              <VectorParam id="2947"  name="sourceCrop">
               <InterpolatingParam id="2948" interp="linr"  time="0/1" value="0" leadInLength="0/1"  />
               <InterpolatingParam id="2949" interp="linr"  time="0/1" value="0" leadInLength="0/1"  />
               <InterpolatingParam id="2950" interp="linr"  time="0/1" value="0" leadInLength="0/1"  />
               <InterpolatingParam id="2951" interp="linr"  time="0/1" value="0" leadInLength="0/1"  />
              </VectorParam>
              <VectorParam id="2952"  name="geometryCrop">
               <InterpolatingParam id="2953" interp="linr"  time="-9999999/1" value="0" leadInLength="0/1"  />
               <InterpolatingParam id="2954" interp="linr"  time="-9999999/1" value="0" leadInLength="0/1"  />
               <InterpolatingParam id="2955" interp="linr"  time="-9999999/1" value="0" leadInLength="0/1"  />
               <InterpolatingParam id="2956" interp="linr"  time="-9999999/1" value="0" leadInLength="0/1"  />
              </VectorParam>
              <InterpolatingParam id="2957" interp="linr"  time="-9999999/1" value="1" leadInLength="0/1"  name="opacity"/>
             </Parameters>
             <Attributes>
              <Attribute id="2958" value="" name="ident"/>
             </Attributes>
             <ExtraData>
              <Entry key="ZoomPanBin">
               <ZoomPanBin id="2959"  >
                <ZoomPanKeyframes>
                 <ZoomPanKeyframe id="2960" timeRangeEnd="-9999999/1" timeRangeDuration="0/1" interpolaterName="linr"  />
                </ZoomPanKeyframes>
               </ZoomPanBin>
              </Entry>
             </ExtraData>
            </VMFile>
            <MetaData>
             <entry key="WinSubProjectDisplayName" val=""/>
            </MetaData>
           </UnifiedMedia>
          </Medias>
         </GenericTrack>
        </StitchedMedia>
        <StitchedMedia id="2961" start="3953" duration="470" scalar="1905232941297/956408627371" mediaStart="5936537051/10387223" mediaDuration="449512054864370/1905232941297" minMediaStart="0/1" >
         <Transformer>
          <VectorParam id="2962"  name="translation">
           <InterpolatingParam id="2963" interp="linr"  >
            <Keyframes>
            <Keyframe id="2964"  time="-9999999/1" value="-201.46236559124978" leadInLength="0/1"  />
            <Keyframe id="2965"  time="13282270681406123/20957562354267" value="-340.77419354828788" leadInLength="44951205486437/1905232941297"  interpolater="leadin-linr"  />
            </Keyframes>
           </InterpolatingParam>
           <InterpolatingParam id="2966" interp="linr"  >
            <Keyframes>
            <Keyframe id="2967"  time="-9999999/1" value="49.548387096771542" leadInLength="0/1"  />
            <Keyframe id="2968"  time="13282270681406123/20957562354267" value="2.685483870975605" leadInLength="44951205486437/1905232941297"  interpolater="leadin-linr"  />
            </Keyframes>
           </InterpolatingParam>
           <InterpolatingParam id="2969" interp="linr"  >
            <Keyframes>
            <Keyframe id="2970"  time="-9999999/1" value="-3.4106051316482886e-010" leadInLength="0/1"  />
            <Keyframe id="2971"  time="13282270681406123/20957562354267" value="-3.4106051316482886e-010" leadInLength="44951205486437/1905232941297"  interpolater="leadin-linr"  />
            </Keyframes>
           </InterpolatingParam>
          </VectorParam>
          <VectorParam id="2972"  name="rotation">
           <InterpolatingParam id="2973" interp="linr"  >
            <Keyframes>
            <Keyframe id="2974"  time="-9999999/1" value="0" leadInLength="0/1"  />
            <Keyframe id="2975"  time="13282270681406123/20957562354267" value="0" leadInLength="44951205486437/1905232941297"  interpolater="leadin-linr"  />
            </Keyframes>
           </InterpolatingParam>
           <InterpolatingParam id="2976" interp="linr"  >
            <Keyframes>
            <Keyframe id="2977"  time="-9999999/1" value="0" leadInLength="0/1"  />
            <Keyframe id="2978"  time="13282270681406123/20957562354267" value="0" leadInLength="44951205486437/1905232941297"  interpolater="leadin-linr"  />
            </Keyframes>
           </InterpolatingParam>
           <InterpolatingParam id="2979" interp="linr"  >
            <Keyframes>
            <Keyframe id="2980"  time="-9999999/1" value="0" leadInLength="0/1"  />
            <Keyframe id="2981"  time="13282270681406123/20957562354267" value="0" leadInLength="44951205486437/1905232941297"  interpolater="leadin-linr"  />
            </Keyframes>
           </InterpolatingParam>
          </VectorParam>
          <VectorParam id="2982"  name="shear">
           <InterpolatingParam id="2983" interp="linr"  >
            <Keyframes>
            <Keyframe id="2984"  time="-9999999/1" value="0" leadInLength="0/1"  />
            <Keyframe id="2985"  time="13282270681406123/20957562354267" value="0" leadInLength="44951205486437/1905232941297"  interpolater="leadin-linr"  />
            </Keyframes>
           </InterpolatingParam>
           <InterpolatingParam id="2986" interp="linr"  >
            <Keyframes>
            <Keyframe id="2987"  time="-9999999/1" value="0" leadInLength="0/1"  />
            <Keyframe id="2988"  time="13282270681406123/20957562354267" value="0" leadInLength="44951205486437/1905232941297"  interpolater="leadin-linr"  />
            </Keyframes>
           </InterpolatingParam>
           <InterpolatingParam id="2989" interp="linr"  >
            <Keyframes>
            <Keyframe id="2990"  time="-9999999/1" value="0" leadInLength="0/1"  />
            <Keyframe id="2991"  time="13282270681406123/20957562354267" value="0" leadInLength="44951205486437/1905232941297"  interpolater="leadin-linr"  />
            </Keyframes>
           </InterpolatingParam>
          </VectorParam>
          <VectorParam id="2992"  name="scale">
           <InterpolatingParam id="2993" interp="linr"  >
            <Keyframes>
            <Keyframe id="2994"  time="-9999999/1" value="0.75842293906823721" leadInLength="0/1"  />
            <Keyframe id="2995"  time="13282270681406123/20957562354267" value="0.67163978494622667" leadInLength="44951205486437/1905232941297"  interpolater="leadin-linr"  />
            </Keyframes>
           </InterpolatingParam>
           <InterpolatingParam id="2996" interp="linr"  >
            <Keyframes>
            <Keyframe id="2997"  time="-9999999/1" value="0.75842293906823743" leadInLength="0/1"  />
            <Keyframe id="2998"  time="13282270681406123/20957562354267" value="0.67163978494622689" leadInLength="44951205486437/1905232941297"  interpolater="leadin-linr"  />
            </Keyframes>
           </InterpolatingParam>
           <InterpolatingParam id="2999" interp="linr"  >
            <Keyframes>
            <Keyframe id="3000"  time="-9999999/1" value="1" leadInLength="0/1"  />
            <Keyframe id="3001"  time="13282270681406123/20957562354267" value="1" leadInLength="44951205486437/1905232941297"  interpolater="leadin-linr"  />
            </Keyframes>
           </InterpolatingParam>
          </VectorParam>
          <VectorParam id="3002"  name="anchor">
           <InterpolatingParam id="3003" interp="linr"  time="0/1" value="0" leadInLength="0/1"  />
           <InterpolatingParam id="3004" interp="linr"  time="0/1" value="0" leadInLength="0/1"  />
           <InterpolatingParam id="3005" interp="linr"  time="0/1" value="0" leadInLength="0/1"  />
          </VectorParam>
         </Transformer>
         <Parameters>
          <VectorParam id="3006"  name="sourceCrop">
           <InterpolatingParam id="3007" interp="linr"  time="0/1" value="0" leadInLength="0/1"  />
           <InterpolatingParam id="3008" interp="linr"  time="0/1" value="0" leadInLength="0/1"  />
           <InterpolatingParam id="3009" interp="linr"  time="0/1" value="0" leadInLength="0/1"  />
           <InterpolatingParam id="3010" interp="linr"  time="0/1" value="0" leadInLength="0/1"  />
          </VectorParam>
          <VectorParam id="3011"  name="geometryCrop">
           <InterpolatingParam id="3012" interp="linr"  >
            <Keyframes>
            <Keyframe id="3013"  time="-9999999/1" value="0" leadInLength="0/1"  />
            <Keyframe id="3014"  time="13282270681406123/20957562354267" value="0" leadInLength="44951205486437/1905232941297"  interpolater="leadin-linr"  />
            </Keyframes>
           </InterpolatingParam>
           <InterpolatingParam id="3015" interp="linr"  >
            <Keyframes>
            <Keyframe id="3016"  time="-9999999/1" value="0" leadInLength="0/1"  />
            <Keyframe id="3017"  time="13282270681406123/20957562354267" value="0" leadInLength="44951205486437/1905232941297"  interpolater="leadin-linr"  />
            </Keyframes>
           </InterpolatingParam>
           <InterpolatingParam id="3018" interp="linr"  >
            <Keyframes>
            <Keyframe id="3019"  time="-9999999/1" value="0" leadInLength="0/1"  />
            <Keyframe id="3020"  time="13282270681406123/20957562354267" value="0" leadInLength="44951205486437/1905232941297"  interpolater="leadin-linr"  />
            </Keyframes>
           </InterpolatingParam>
           <InterpolatingParam id="3021" interp="linr"  >
            <Keyframes>
            <Keyframe id="3022"  time="-9999999/1" value="0" leadInLength="0/1"  />
            <Keyframe id="3023"  time="13282270681406123/20957562354267" value="0" leadInLength="44951205486437/1905232941297"  interpolater="leadin-linr"  />
            </Keyframes>
           </InterpolatingParam>
          </VectorParam>
          <InterpolatingParam id="3024" interp="linr"  name="opacity">
           <Keyframes>
           <Keyframe id="3025"  time="-9999999/1" value="1" leadInLength="0/1"  />
           <Keyframe id="3026"  time="13282270681406123/20957562354267" value="1" leadInLength="44951205486437/1905232941297"  interpolater="leadin-linr"  />
           </Keyframes>
          </InterpolatingParam>
          <InterpolatingParam id="3027" interp="linr"  time="0/1" value="1" leadInLength="0/1"  name="cursorOpacity"/>
          <InterpolatingParam id="3028" interp="linr"  time="0/1" value="1" leadInLength="0/1"  name="cursorScale"/>
          <InterpolatingParam id="3029" interp="linr"  name="volume">
           <Keyframes>
           <Keyframe id="3030"  time="-1/2" value="1" leadInLength="0/1"  />
           <Keyframe id="3031"  time="0/1" value="0" leadInLength="0/1"  />
           <Keyframe id="3032"  time="404698471/616055" value="0" leadInLength="0/1"  />
           <Keyframe id="3033"  time="80565695565830/122558844177" value="0" leadInLength="0/1"  />
           <Keyframe id="3034"  time="422663134927997/635077647099" value="0" leadInLength="0/1"  />
           <Keyframe id="3035"  time="151654406505664/204264740295" value="0" leadInLength="0/1"  />
           <Keyframe id="3036"  time="91086190466911/122558844177" value="0" leadInLength="0/1"  />
           <Keyframe id="3037"  time="45425829348365/60483585438" value="0" leadInLength="0/1"  />
           <Keyframe id="3038"  time="7353188942623/8881075665" value="0" leadInLength="0/1"  />
           <Keyframe id="3039"  time="14715258960911/17762151330" value="1" leadInLength="0/1"  />
           </Keyframes>
          </InterpolatingParam>
          <Parameter id="3040"  name="captions"/>
         </Parameters>
         <Attributes>
          <Attribute id="3041" value="" name="ident"/>
          <Attribute id="3042" value="0" name="mixToMono"/>
         </Attributes>
         <MetaData>
          <entry key="WinSubProjectDisplayName" val=""/>
         </MetaData>
         <ExtraData>
          <Entry key="ZoomPanBin">
           <ZoomPanBin id="3043"  >
            <ZoomPanKeyframes>
             <ZoomPanKeyframe id="3044" timeRangeEnd="-9999999/1" timeRangeDuration="0/1" interpolaterName="linr"  />
             <ZoomPanKeyframe id="3045" timeRangeEnd="13282270681406123/20957562354267" timeRangeDuration="44951205486437/1905232941297" interpolaterName="linr"  />
            </ZoomPanKeyframes>
           </ZoomPanBin>
          </Entry>
          <Entry key="CursorEffectBin">
           <CursorEffectBin id="3046"  >
            <CursorEffectKeyframes>
            </CursorEffectKeyframes>
           </CursorEffectBin>
          </Entry>
         </ExtraData>
         <GenericTrack id="3047"  >
          <Attributes>
           <Attribute id="3048" value="" name="ident"/>
           <Attribute id="3049" value="0" name="audioMuted"/>
           <Attribute id="3050" value="0" name="videoHidden"/>
          </Attributes>
          <MetaData>
           <entry key="IsLocked" val="False"/>
           <entry key="WinTrackHeight" val="0"/>
          </MetaData>
          <Medias>
           <UnifiedMedia id="3051"  >
            <AMFile id="3052" start="0" duration="323" scalar="1/1" mediaStart="0/1" mediaDuration="323/1" trackNumber="1" src="19" channelNumber="0" >
             <Parameters>
              <InterpolatingParam id="3053" interp="linr"  time="0/1" value="1" leadInLength="0/1"  name="volume"/>
              <Parameter id="3054"  name="captions"/>
             </Parameters>
             <Attributes>
              <Attribute id="3055" value="" name="ident"/>
              <Attribute id="3056" value="44100" name="sampleRate"/>
              <Attribute id="3057" value="16" name="bitDepth"/>
              <Attribute id="3058" value="1" name="gain"/>
              <Attribute id="3059" value="0" name="mixToMono"/>
             </Attributes>
            </AMFile>
            <VMFile id="3060" start="0" duration="323" scalar="1/1" mediaStart="0/1" mediaDuration="323/1" trackNumber="0" src="19" >
             <Transformer>
              <VectorParam id="3061"  name="translation">
               <InterpolatingParam id="3062" interp="linr"  time="-9999999/1" value="0" leadInLength="0/1"  />
               <InterpolatingParam id="3063" interp="linr"  time="-9999999/1" value="0" leadInLength="0/1"  />
               <InterpolatingParam id="3064" interp="linr"  time="-9999999/1" value="0" leadInLength="0/1"  />
              </VectorParam>
              <VectorParam id="3065"  name="rotation">
               <InterpolatingParam id="3066" interp="linr"  time="-9999999/1" value="0" leadInLength="0/1"  />
               <InterpolatingParam id="3067" interp="linr"  time="-9999999/1" value="0" leadInLength="0/1"  />
               <InterpolatingParam id="3068" interp="linr"  time="-9999999/1" value="0" leadInLength="0/1"  />
              </VectorParam>
              <VectorParam id="3069"  name="shear">
               <InterpolatingParam id="3070" interp="linr"  time="-9999999/1" value="0" leadInLength="0/1"  />
               <InterpolatingParam id="3071" interp="linr"  time="-9999999/1" value="0" leadInLength="0/1"  />
               <InterpolatingParam id="3072" interp="linr"  time="-9999999/1" value="0" leadInLength="0/1"  />
              </VectorParam>
              <VectorParam id="3073"  name="scale">
               <InterpolatingParam id="3074" interp="linr"  time="-9999999/1" value="1" leadInLength="0/1"  />
               <InterpolatingParam id="3075" interp="linr"  time="-9999999/1" value="1" leadInLength="0/1"  />
               <InterpolatingParam id="3076" interp="linr"  time="-9999999/1" value="1" leadInLength="0/1"  />
              </VectorParam>
              <VectorParam id="3077"  name="anchor">
               <InterpolatingParam id="3078" interp="linr"  time="0/1" value="0" leadInLength="0/1"  />
               <InterpolatingParam id="3079" interp="linr"  time="0/1" value="0" leadInLength="0/1"  />
               <InterpolatingParam id="3080" interp="linr"  time="0/1" value="0" leadInLength="0/1"  />
              </VectorParam>
             </Transformer>
             <Parameters>
              <VectorParam id="3081"  name="sourceCrop">
               <InterpolatingParam id="3082" interp="linr"  time="0/1" value="0" leadInLength="0/1"  />
               <InterpolatingParam id="3083" interp="linr"  time="0/1" value="0" leadInLength="0/1"  />
               <InterpolatingParam id="3084" interp="linr"  time="0/1" value="0" leadInLength="0/1"  />
               <InterpolatingParam id="3085" interp="linr"  time="0/1" value="0" leadInLength="0/1"  />
              </VectorParam>
              <VectorParam id="3086"  name="geometryCrop">
               <InterpolatingParam id="3087" interp="linr"  time="-9999999/1" value="0" leadInLength="0/1"  />
               <InterpolatingParam id="3088" interp="linr"  time="-9999999/1" value="0" leadInLength="0/1"  />
               <InterpolatingParam id="3089" interp="linr"  time="-9999999/1" value="0" leadInLength="0/1"  />
               <InterpolatingParam id="3090" interp="linr"  time="-9999999/1" value="0" leadInLength="0/1"  />
              </VectorParam>
              <InterpolatingParam id="3091" interp="linr"  time="-9999999/1" value="1" leadInLength="0/1"  name="opacity"/>
             </Parameters>
             <Attributes>
              <Attribute id="3092" value="" name="ident"/>
             </Attributes>
             <ExtraData>
              <Entry key="ZoomPanBin">
               <ZoomPanBin id="3093"  >
                <ZoomPanKeyframes>
                 <ZoomPanKeyframe id="3094" timeRangeEnd="-9999999/1" timeRangeDuration="0/1" interpolaterName="linr"  />
                </ZoomPanKeyframes>
               </ZoomPanBin>
              </Entry>
             </ExtraData>
            </VMFile>
            <MetaData>
             <entry key="WinSubProjectDisplayName" val=""/>
            </MetaData>
           </UnifiedMedia>
           <UnifiedMedia id="3095"  >
            <AMFile id="3096" start="323" duration="187" scalar="1/1" mediaStart="437/1" mediaDuration="187/1" trackNumber="1" src="19" channelNumber="0" >
             <Parameters>
              <InterpolatingParam id="3097" interp="linr"  time="0/1" value="1" leadInLength="0/1"  name="volume"/>
              <Parameter id="3098"  name="captions"/>
             </Parameters>
             <Attributes>
              <Attribute id="3099" value="" name="ident"/>
              <Attribute id="3100" value="44100" name="sampleRate"/>
              <Attribute id="3101" value="16" name="bitDepth"/>
              <Attribute id="3102" value="1" name="gain"/>
              <Attribute id="3103" value="0" name="mixToMono"/>
             </Attributes>
            </AMFile>
            <VMFile id="3104" start="323" duration="187" scalar="1/1" mediaStart="437/1" mediaDuration="187/1" trackNumber="0" src="19" >
             <Transformer>
              <VectorParam id="3105"  name="translation">
               <InterpolatingParam id="3106" interp="linr"  time="-9999999/1" value="0" leadInLength="0/1"  />
               <InterpolatingParam id="3107" interp="linr"  time="-9999999/1" value="0" leadInLength="0/1"  />
               <InterpolatingParam id="3108" interp="linr"  time="-9999999/1" value="0" leadInLength="0/1"  />
              </VectorParam>
              <VectorParam id="3109"  name="rotation">
               <InterpolatingParam id="3110" interp="linr"  time="-9999999/1" value="0" leadInLength="0/1"  />
               <InterpolatingParam id="3111" interp="linr"  time="-9999999/1" value="0" leadInLength="0/1"  />
               <InterpolatingParam id="3112" interp="linr"  time="-9999999/1" value="0" leadInLength="0/1"  />
              </VectorParam>
              <VectorParam id="3113"  name="shear">
               <InterpolatingParam id="3114" interp="linr"  time="-9999999/1" value="0" leadInLength="0/1"  />
               <InterpolatingParam id="3115" interp="linr"  time="-9999999/1" value="0" leadInLength="0/1"  />
               <InterpolatingParam id="3116" interp="linr"  time="-9999999/1" value="0" leadInLength="0/1"  />
              </VectorParam>
              <VectorParam id="3117"  name="scale">
               <InterpolatingParam id="3118" interp="linr"  time="-9999999/1" value="1" leadInLength="0/1"  />
               <InterpolatingParam id="3119" interp="linr"  time="-9999999/1" value="1" leadInLength="0/1"  />
               <InterpolatingParam id="3120" interp="linr"  time="-9999999/1" value="1" leadInLength="0/1"  />
              </VectorParam>
              <VectorParam id="3121"  name="anchor">
               <InterpolatingParam id="3122" interp="linr"  time="0/1" value="0" leadInLength="0/1"  />
               <InterpolatingParam id="3123" interp="linr"  time="0/1" value="0" leadInLength="0/1"  />
               <InterpolatingParam id="3124" interp="linr"  time="0/1" value="0" leadInLength="0/1"  />
              </VectorParam>
             </Transformer>
             <Parameters>
              <VectorParam id="3125"  name="sourceCrop">
               <InterpolatingParam id="3126" interp="linr"  time="0/1" value="0" leadInLength="0/1"  />
               <InterpolatingParam id="3127" interp="linr"  time="0/1" value="0" leadInLength="0/1"  />
               <InterpolatingParam id="3128" interp="linr"  time="0/1" value="0" leadInLength="0/1"  />
               <InterpolatingParam id="3129" interp="linr"  time="0/1" value="0" leadInLength="0/1"  />
              </VectorParam>
              <VectorParam id="3130"  name="geometryCrop">
               <InterpolatingParam id="3131" interp="linr"  time="-9999999/1" value="0" leadInLength="0/1"  />
               <InterpolatingParam id="3132" interp="linr"  time="-9999999/1" value="0" leadInLength="0/1"  />
               <InterpolatingParam id="3133" interp="linr"  time="-9999999/1" value="0" leadInLength="0/1"  />
               <InterpolatingParam id="3134" interp="linr"  time="-9999999/1" value="0" leadInLength="0/1"  />
              </VectorParam>
              <InterpolatingParam id="3135" interp="linr"  time="-9999999/1" value="1" leadInLength="0/1"  name="opacity"/>
             </Parameters>
             <Attributes>
              <Attribute id="3136" value="" name="ident"/>
             </Attributes>
             <ExtraData>
              <Entry key="ZoomPanBin">
               <ZoomPanBin id="3137"  >
                <ZoomPanKeyframes>
                 <ZoomPanKeyframe id="3138" timeRangeEnd="-9999999/1" timeRangeDuration="0/1" interpolaterName="linr"  />
                </ZoomPanKeyframes>
               </ZoomPanBin>
              </Entry>
             </ExtraData>
            </VMFile>
            <MetaData>
             <entry key="WinSubProjectDisplayName" val=""/>
            </MetaData>
           </UnifiedMedia>
           <UnifiedMedia id="3139"  >
            <AMFile id="3140" start="510" duration="148" scalar="1/1" mediaStart="622/1" mediaDuration="148/1" trackNumber="1" src="19" channelNumber="0" >
             <Parameters>
              <InterpolatingParam id="3141" interp="linr"  time="0/1" value="1" leadInLength="0/1"  name="volume"/>
              <Parameter id="3142"  name="captions"/>
             </Parameters>
             <Attributes>
              <Attribute id="3143" value="" name="ident"/>
              <Attribute id="3144" value="44100" name="sampleRate"/>
              <Attribute id="3145" value="16" name="bitDepth"/>
              <Attribute id="3146" value="1" name="gain"/>
              <Attribute id="3147" value="0" name="mixToMono"/>
             </Attributes>
            </AMFile>
            <VMFile id="3148" start="510" duration="148" scalar="1/1" mediaStart="622/1" mediaDuration="148/1" trackNumber="0" src="19" >
             <Transformer>
              <VectorParam id="3149"  name="translation">
               <InterpolatingParam id="3150" interp="linr"  time="-9999999/1" value="0" leadInLength="0/1"  />
               <InterpolatingParam id="3151" interp="linr"  time="-9999999/1" value="0" leadInLength="0/1"  />
               <InterpolatingParam id="3152" interp="linr"  time="-9999999/1" value="0" leadInLength="0/1"  />
              </VectorParam>
              <VectorParam id="3153"  name="rotation">
               <InterpolatingParam id="3154" interp="linr"  time="-9999999/1" value="0" leadInLength="0/1"  />
               <InterpolatingParam id="3155" interp="linr"  time="-9999999/1" value="0" leadInLength="0/1"  />
               <InterpolatingParam id="3156" interp="linr"  time="-9999999/1" value="0" leadInLength="0/1"  />
              </VectorParam>
              <VectorParam id="3157"  name="shear">
               <InterpolatingParam id="3158" interp="linr"  time="-9999999/1" value="0" leadInLength="0/1"  />
               <InterpolatingParam id="3159" interp="linr"  time="-9999999/1" value="0" leadInLength="0/1"  />
               <InterpolatingParam id="3160" interp="linr"  time="-9999999/1" value="0" leadInLength="0/1"  />
              </VectorParam>
              <VectorParam id="3161"  name="scale">
               <InterpolatingParam id="3162" interp="linr"  time="-9999999/1" value="1" leadInLength="0/1"  />
               <InterpolatingParam id="3163" interp="linr"  time="-9999999/1" value="1" leadInLength="0/1"  />
               <InterpolatingParam id="3164" interp="linr"  time="-9999999/1" value="1" leadInLength="0/1"  />
              </VectorParam>
              <VectorParam id="3165"  name="anchor">
               <InterpolatingParam id="3166" interp="linr"  time="0/1" value="0" leadInLength="0/1"  />
               <InterpolatingParam id="3167" interp="linr"  time="0/1" value="0" leadInLength="0/1"  />
               <InterpolatingParam id="3168" interp="linr"  time="0/1" value="0" leadInLength="0/1"  />
              </VectorParam>
             </Transformer>
             <Parameters>
              <VectorParam id="3169"  name="sourceCrop">
               <InterpolatingParam id="3170" interp="linr"  time="0/1" value="0" leadInLength="0/1"  />
               <InterpolatingParam id="3171" interp="linr"  time="0/1" value="0" leadInLength="0/1"  />
               <InterpolatingParam id="3172" interp="linr"  time="0/1" value="0" leadInLength="0/1"  />
               <InterpolatingParam id="3173" interp="linr"  time="0/1" value="0" leadInLength="0/1"  />
              </VectorParam>
              <VectorParam id="3174"  name="geometryCrop">
               <InterpolatingParam id="3175" interp="linr"  time="-9999999/1" value="0" leadInLength="0/1"  />
               <InterpolatingParam id="3176" interp="linr"  time="-9999999/1" value="0" leadInLength="0/1"  />
               <InterpolatingParam id="3177" interp="linr"  time="-9999999/1" value="0" leadInLength="0/1"  />
               <InterpolatingParam id="3178" interp="linr"  time="-9999999/1" value="0" leadInLength="0/1"  />
              </VectorParam>
              <InterpolatingParam id="3179" interp="linr"  time="-9999999/1" value="1" leadInLength="0/1"  name="opacity"/>
             </Parameters>
             <Attributes>
              <Attribute id="3180" value="" name="ident"/>
             </Attributes>
             <ExtraData>
              <Entry key="ZoomPanBin">
               <ZoomPanBin id="3181"  >
                <ZoomPanKeyframes>
                 <ZoomPanKeyframe id="3182" timeRangeEnd="-9999999/1" timeRangeDuration="0/1" interpolaterName="linr"  />
                </ZoomPanKeyframes>
               </ZoomPanBin>
              </Entry>
             </ExtraData>
            </VMFile>
            <MetaData>
             <entry key="WinSubProjectDisplayName" val=""/>
            </MetaData>
           </UnifiedMedia>
           <UnifiedMedia id="3183"  >
            <AMFile id="3184" start="658" duration="87" scalar="1/1" mediaStart="683/1" mediaDuration="87/1" trackNumber="1" src="19" channelNumber="0" >
             <Parameters>
              <InterpolatingParam id="3185" interp="linr"  time="0/1" value="1" leadInLength="0/1"  name="volume"/>
              <Parameter id="3186"  name="captions"/>
             </Parameters>
             <Attributes>
              <Attribute id="3187" value="" name="ident"/>
              <Attribute id="3188" value="44100" name="sampleRate"/>
              <Attribute id="3189" value="16" name="bitDepth"/>
              <Attribute id="3190" value="1" name="gain"/>
              <Attribute id="3191" value="0" name="mixToMono"/>
             </Attributes>
            </AMFile>
            <VMFile id="3192" start="658" duration="87" scalar="1/1" mediaStart="683/1" mediaDuration="87/1" trackNumber="0" src="19" >
             <Transformer>
              <VectorParam id="3193"  name="translation">
               <InterpolatingParam id="3194" interp="linr"  time="-9999999/1" value="0" leadInLength="0/1"  />
               <InterpolatingParam id="3195" interp="linr"  time="-9999999/1" value="0" leadInLength="0/1"  />
               <InterpolatingParam id="3196" interp="linr"  time="-9999999/1" value="0" leadInLength="0/1"  />
              </VectorParam>
              <VectorParam id="3197"  name="rotation">
               <InterpolatingParam id="3198" interp="linr"  time="-9999999/1" value="0" leadInLength="0/1"  />
               <InterpolatingParam id="3199" interp="linr"  time="-9999999/1" value="0" leadInLength="0/1"  />
               <InterpolatingParam id="3200" interp="linr"  time="-9999999/1" value="0" leadInLength="0/1"  />
              </VectorParam>
              <VectorParam id="3201"  name="shear">
               <InterpolatingParam id="3202" interp="linr"  time="-9999999/1" value="0" leadInLength="0/1"  />
               <InterpolatingParam id="3203" interp="linr"  time="-9999999/1" value="0" leadInLength="0/1"  />
               <InterpolatingParam id="3204" interp="linr"  time="-9999999/1" value="0" leadInLength="0/1"  />
              </VectorParam>
              <VectorParam id="3205"  name="scale">
               <InterpolatingParam id="3206" interp="linr"  time="-9999999/1" value="1" leadInLength="0/1"  />
               <InterpolatingParam id="3207" interp="linr"  time="-9999999/1" value="1" leadInLength="0/1"  />
               <InterpolatingParam id="3208" interp="linr"  time="-9999999/1" value="1" leadInLength="0/1"  />
              </VectorParam>
              <VectorParam id="3209"  name="anchor">
               <InterpolatingParam id="3210" interp="linr"  time="0/1" value="0" leadInLength="0/1"  />
               <InterpolatingParam id="3211" interp="linr"  time="0/1" value="0" leadInLength="0/1"  />
               <InterpolatingParam id="3212" interp="linr"  time="0/1" value="0" leadInLength="0/1"  />
              </VectorParam>
             </Transformer>
             <Parameters>
              <VectorParam id="3213"  name="sourceCrop">
               <InterpolatingParam id="3214" interp="linr"  time="0/1" value="0" leadInLength="0/1"  />
               <InterpolatingParam id="3215" interp="linr"  time="0/1" value="0" leadInLength="0/1"  />
               <InterpolatingParam id="3216" interp="linr"  time="0/1" value="0" leadInLength="0/1"  />
               <InterpolatingParam id="3217" interp="linr"  time="0/1" value="0" leadInLength="0/1"  />
              </VectorParam>
              <VectorParam id="3218"  name="geometryCrop">
               <InterpolatingParam id="3219" interp="linr"  time="-9999999/1" value="0" leadInLength="0/1"  />
               <InterpolatingParam id="3220" interp="linr"  time="-9999999/1" value="0" leadInLength="0/1"  />
               <InterpolatingParam id="3221" interp="linr"  time="-9999999/1" value="0" leadInLength="0/1"  />
               <InterpolatingParam id="3222" interp="linr"  time="-9999999/1" value="0" leadInLength="0/1"  />
              </VectorParam>
              <InterpolatingParam id="3223" interp="linr"  time="-9999999/1" value="1" leadInLength="0/1"  name="opacity"/>
             </Parameters>
             <Attributes>
              <Attribute id="3224" value="" name="ident"/>
             </Attributes>
             <ExtraData>
              <Entry key="ZoomPanBin">
               <ZoomPanBin id="3225"  >
                <ZoomPanKeyframes>
                 <ZoomPanKeyframe id="3226" timeRangeEnd="-9999999/1" timeRangeDuration="0/1" interpolaterName="linr"  />
                </ZoomPanKeyframes>
               </ZoomPanBin>
              </Entry>
             </ExtraData>
            </VMFile>
            <MetaData>
             <entry key="WinSubProjectDisplayName" val=""/>
            </MetaData>
           </UnifiedMedia>
           <UnifiedMedia id="3227"  >
            <AMFile id="3228" start="745" duration="87" scalar="1/1" mediaStart="683/1" mediaDuration="87/1" trackNumber="1" src="19" channelNumber="0" >
             <Parameters>
              <InterpolatingParam id="3229" interp="linr"  time="0/1" value="1" leadInLength="0/1"  name="volume"/>
              <Parameter id="3230"  name="captions"/>
             </Parameters>
             <Attributes>
              <Attribute id="3231" value="" name="ident"/>
              <Attribute id="3232" value="44100" name="sampleRate"/>
              <Attribute id="3233" value="16" name="bitDepth"/>
              <Attribute id="3234" value="1" name="gain"/>
              <Attribute id="3235" value="0" name="mixToMono"/>
             </Attributes>
            </AMFile>
            <VMFile id="3236" start="745" duration="87" scalar="1/1" mediaStart="683/1" mediaDuration="87/1" trackNumber="0" src="19" >
             <Transformer>
              <VectorParam id="3237"  name="translation">
               <InterpolatingParam id="3238" interp="linr"  time="-9999999/1" value="0" leadInLength="0/1"  />
               <InterpolatingParam id="3239" interp="linr"  time="-9999999/1" value="0" leadInLength="0/1"  />
               <InterpolatingParam id="3240" interp="linr"  time="-9999999/1" value="0" leadInLength="0/1"  />
              </VectorParam>
              <VectorParam id="3241"  name="rotation">
               <InterpolatingParam id="3242" interp="linr"  time="-9999999/1" value="0" leadInLength="0/1"  />
               <InterpolatingParam id="3243" interp="linr"  time="-9999999/1" value="0" leadInLength="0/1"  />
               <InterpolatingParam id="3244" interp="linr"  time="-9999999/1" value="0" leadInLength="0/1"  />
              </VectorParam>
              <VectorParam id="3245"  name="shear">
               <InterpolatingParam id="3246" interp="linr"  time="-9999999/1" value="0" leadInLength="0/1"  />
               <InterpolatingParam id="3247" interp="linr"  time="-9999999/1" value="0" leadInLength="0/1"  />
               <InterpolatingParam id="3248" interp="linr"  time="-9999999/1" value="0" leadInLength="0/1"  />
              </VectorParam>
              <VectorParam id="3249"  name="scale">
               <InterpolatingParam id="3250" interp="linr"  time="-9999999/1" value="1" leadInLength="0/1"  />
               <InterpolatingParam id="3251" interp="linr"  time="-9999999/1" value="1" leadInLength="0/1"  />
               <InterpolatingParam id="3252" interp="linr"  time="-9999999/1" value="1" leadInLength="0/1"  />
              </VectorParam>
              <VectorParam id="3253"  name="anchor">
               <InterpolatingParam id="3254" interp="linr"  time="0/1" value="0" leadInLength="0/1"  />
               <InterpolatingParam id="3255" interp="linr"  time="0/1" value="0" leadInLength="0/1"  />
               <InterpolatingParam id="3256" interp="linr"  time="0/1" value="0" leadInLength="0/1"  />
              </VectorParam>
             </Transformer>
             <Parameters>
              <VectorParam id="3257"  name="sourceCrop">
               <InterpolatingParam id="3258" interp="linr"  time="0/1" value="0" leadInLength="0/1"  />
               <InterpolatingParam id="3259" interp="linr"  time="0/1" value="0" leadInLength="0/1"  />
               <InterpolatingParam id="3260" interp="linr"  time="0/1" value="0" leadInLength="0/1"  />
               <InterpolatingParam id="3261" interp="linr"  time="0/1" value="0" leadInLength="0/1"  />
              </VectorParam>
              <VectorParam id="3262"  name="geometryCrop">
               <InterpolatingParam id="3263" interp="linr"  time="-9999999/1" value="0" leadInLength="0/1"  />
               <InterpolatingParam id="3264" interp="linr"  time="-9999999/1" value="0" leadInLength="0/1"  />
               <InterpolatingParam id="3265" interp="linr"  time="-9999999/1" value="0" leadInLength="0/1"  />
               <InterpolatingParam id="3266" interp="linr"  time="-9999999/1" value="0" leadInLength="0/1"  />
              </VectorParam>
              <InterpolatingParam id="3267" interp="linr"  time="-9999999/1" value="1" leadInLength="0/1"  name="opacity"/>
             </Parameters>
             <Attributes>
              <Attribute id="3268" value="" name="ident"/>
             </Attributes>
             <ExtraData>
              <Entry key="ZoomPanBin">
               <ZoomPanBin id="3269"  >
                <ZoomPanKeyframes>
                 <ZoomPanKeyframe id="3270" timeRangeEnd="-9999999/1" timeRangeDuration="0/1" interpolaterName="linr"  />
                </ZoomPanKeyframes>
               </ZoomPanBin>
              </Entry>
             </ExtraData>
            </VMFile>
            <MetaData>
             <entry key="WinSubProjectDisplayName" val=""/>
            </MetaData>
           </UnifiedMedia>
          </Medias>
         </GenericTrack>
        </StitchedMedia>
        <StitchedMedia id="3271" start="4423" duration="80" scalar="10027/6846" mediaStart="0/1" mediaDuration="547680/10027" minMediaStart="0/1" >
         <Transformer>
          <VectorParam id="3272"  name="translation">
           <InterpolatingParam id="3273" interp="linr"  >
            <Keyframes>
            <Keyframe id="3274"  time="-9999999/1" value="-342.55555555560295" leadInLength="0/1"  />
            <Keyframe id="3275"  time="451836/10027" value="-272.77777777791243" leadInLength="171150/10027"  interpolater="leadin-linr"  />
            </Keyframes>
           </InterpolatingParam>
           <InterpolatingParam id="3276" interp="linr"  >
            <Keyframes>
            <Keyframe id="3277"  time="-9999999/1" value="1.9374999999622275" leadInLength="0/1"  />
            <Keyframe id="3278"  time="451836/10027" value="69.312500000292061" leadInLength="171150/10027"  interpolater="leadin-linr"  />
            </Keyframes>
           </InterpolatingParam>
           <InterpolatingParam id="3279" interp="linr"  >
            <Keyframes>
            <Keyframe id="3280"  time="-9999999/1" value="-3.4106051316482901e-010" leadInLength="0/1"  />
            <Keyframe id="3281"  time="451836/10027" value="-3.4106051316482906e-010" leadInLength="171150/10027"  interpolater="leadin-linr"  />
            </Keyframes>
           </InterpolatingParam>
          </VectorParam>
          <VectorParam id="3282"  name="rotation">
           <InterpolatingParam id="3283" interp="linr"  >
            <Keyframes>
            <Keyframe id="3284"  time="-9999999/1" value="0" leadInLength="0/1"  />
            <Keyframe id="3285"  time="451836/10027" value="0" leadInLength="171150/10027"  interpolater="leadin-linr"  />
            </Keyframes>
           </InterpolatingParam>
           <InterpolatingParam id="3286" interp="linr"  >
            <Keyframes>
            <Keyframe id="3287"  time="-9999999/1" value="0" leadInLength="0/1"  />
            <Keyframe id="3288"  time="451836/10027" value="0" leadInLength="171150/10027"  interpolater="leadin-linr"  />
            </Keyframes>
           </InterpolatingParam>
           <InterpolatingParam id="3289" interp="linr"  >
            <Keyframes>
            <Keyframe id="3290"  time="-9999999/1" value="0" leadInLength="0/1"  />
            <Keyframe id="3291"  time="451836/10027" value="0" leadInLength="171150/10027"  interpolater="leadin-linr"  />
            </Keyframes>
           </InterpolatingParam>
          </VectorParam>
          <VectorParam id="3292"  name="shear">
           <InterpolatingParam id="3293" interp="linr"  >
            <Keyframes>
            <Keyframe id="3294"  time="-9999999/1" value="0" leadInLength="0/1"  />
            <Keyframe id="3295"  time="451836/10027" value="0" leadInLength="171150/10027"  interpolater="leadin-linr"  />
            </Keyframes>
           </InterpolatingParam>
           <InterpolatingParam id="3296" interp="linr"  >
            <Keyframes>
            <Keyframe id="3297"  time="-9999999/1" value="0" leadInLength="0/1"  />
            <Keyframe id="3298"  time="451836/10027" value="0" leadInLength="171150/10027"  interpolater="leadin-linr"  />
            </Keyframes>
           </InterpolatingParam>
           <InterpolatingParam id="3299" interp="linr"  >
            <Keyframes>
            <Keyframe id="3300"  time="-9999999/1" value="0" leadInLength="0/1"  />
            <Keyframe id="3301"  time="451836/10027" value="0" leadInLength="171150/10027"  interpolater="leadin-linr"  />
            </Keyframes>
           </InterpolatingParam>
          </VectorParam>
          <VectorParam id="3302"  name="scale">
           <InterpolatingParam id="3303" interp="linr"  >
            <Keyframes>
            <Keyframe id="3304"  time="-9999999/1" value="0.67025462962959093" leadInLength="0/1"  />
            <Keyframe id="3305"  time="451836/10027" value="0.7950231481482789" leadInLength="171150/10027"  interpolater="leadin-linr"  />
            </Keyframes>
           </InterpolatingParam>
           <InterpolatingParam id="3306" interp="linr"  >
            <Keyframes>
            <Keyframe id="3307"  time="-9999999/1" value="0.67025462962959115" leadInLength="0/1"  />
            <Keyframe id="3308"  time="451836/10027" value="0.79502314814827935" leadInLength="171150/10027"  interpolater="leadin-linr"  />
            </Keyframes>
           </InterpolatingParam>
           <InterpolatingParam id="3309" interp="linr"  >
            <Keyframes>
            <Keyframe id="3310"  time="-9999999/1" value="1" leadInLength="0/1"  />
            <Keyframe id="3311"  time="451836/10027" value="1" leadInLength="171150/10027"  interpolater="leadin-linr"  />
            </Keyframes>
           </InterpolatingParam>
          </VectorParam>
          <VectorParam id="3312"  name="anchor">
           <InterpolatingParam id="3313" interp="linr"  time="0/1" value="0" leadInLength="0/1"  />
           <InterpolatingParam id="3314" interp="linr"  time="0/1" value="0" leadInLength="0/1"  />
           <InterpolatingParam id="3315" interp="linr"  time="0/1" value="0" leadInLength="0/1"  />
          </VectorParam>
         </Transformer>
         <Parameters>
          <VectorParam id="3316"  name="sourceCrop">
           <InterpolatingParam id="3317" interp="linr"  time="0/1" value="0" leadInLength="0/1"  />
           <InterpolatingParam id="3318" interp="linr"  time="0/1" value="0" leadInLength="0/1"  />
           <InterpolatingParam id="3319" interp="linr"  time="0/1" value="0" leadInLength="0/1"  />
           <InterpolatingParam id="3320" interp="linr"  time="0/1" value="0" leadInLength="0/1"  />
          </VectorParam>
          <VectorParam id="3321"  name="geometryCrop">
           <InterpolatingParam id="3322" interp="linr"  >
            <Keyframes>
            <Keyframe id="3323"  time="-9999999/1" value="0" leadInLength="0/1"  />
            <Keyframe id="3324"  time="451836/10027" value="0" leadInLength="171150/10027"  interpolater="leadin-linr"  />
            </Keyframes>
           </InterpolatingParam>
           <InterpolatingParam id="3325" interp="linr"  >
            <Keyframes>
            <Keyframe id="3326"  time="-9999999/1" value="0" leadInLength="0/1"  />
            <Keyframe id="3327"  time="451836/10027" value="0" leadInLength="171150/10027"  interpolater="leadin-linr"  />
            </Keyframes>
           </InterpolatingParam>
           <InterpolatingParam id="3328" interp="linr"  >
            <Keyframes>
            <Keyframe id="3329"  time="-9999999/1" value="0" leadInLength="0/1"  />
            <Keyframe id="3330"  time="451836/10027" value="0" leadInLength="171150/10027"  interpolater="leadin-linr"  />
            </Keyframes>
           </InterpolatingParam>
           <InterpolatingParam id="3331" interp="linr"  >
            <Keyframes>
            <Keyframe id="3332"  time="-9999999/1" value="0" leadInLength="0/1"  />
            <Keyframe id="3333"  time="451836/10027" value="0" leadInLength="171150/10027"  interpolater="leadin-linr"  />
            </Keyframes>
           </InterpolatingParam>
          </VectorParam>
          <InterpolatingParam id="3334" interp="linr"  name="opacity">
           <Keyframes>
           <Keyframe id="3335"  time="-9999999/1" value="1" leadInLength="0/1"  />
           <Keyframe id="3336"  time="451836/10027" value="1" leadInLength="171150/10027"  interpolater="leadin-linr"  />
           </Keyframes>
          </InterpolatingParam>
          <InterpolatingParam id="3337" interp="linr"  time="0/1" value="1" leadInLength="0/1"  name="cursorOpacity"/>
          <InterpolatingParam id="3338" interp="linr"  time="0/1" value="1" leadInLength="0/1"  name="cursorScale"/>
          <InterpolatingParam id="3339" interp="linr"  name="volume">
           <Keyframes>
           <Keyframe id="3340"  time="-1/1" value="1" leadInLength="0/1"  />
           <Keyframe id="3341"  time="0/1" value="0" leadInLength="0/1"  />
           <Keyframe id="3342"  time="432482/379" value="0" leadInLength="0/1"  />
           <Keyframe id="3343"  time="432861/379" value="1" leadInLength="0/1"  />
           </Keyframes>
          </InterpolatingParam>
          <Parameter id="3344"  name="captions"/>
         </Parameters>
         <Attributes>
          <Attribute id="3345" value="" name="ident"/>
          <Attribute id="3346" value="0" name="mixToMono"/>
         </Attributes>
         <MetaData>
          <entry key="WinSubProjectDisplayName" val=""/>
         </MetaData>
         <ExtraData>
          <Entry key="ZoomPanBin">
           <ZoomPanBin id="3347"  >
            <ZoomPanKeyframes>
             <ZoomPanKeyframe id="3348" timeRangeEnd="-9999999/1" timeRangeDuration="0/1" interpolaterName="linr"  />
             <ZoomPanKeyframe id="3349" timeRangeEnd="451836/10027" timeRangeDuration="171150/10027" interpolaterName="linr"  />
            </ZoomPanKeyframes>
           </ZoomPanBin>
          </Entry>
          <Entry key="CursorEffectBin">
           <CursorEffectBin id="3350"  >
            <CursorEffectKeyframes>
            </CursorEffectKeyframes>
           </CursorEffectBin>
          </Entry>
         </ExtraData>
         <GenericTrack id="3351"  >
          <Attributes>
           <Attribute id="3352" value="" name="ident"/>
           <Attribute id="3353" value="0" name="audioMuted"/>
           <Attribute id="3354" value="0" name="videoHidden"/>
          </Attributes>
          <MetaData>
           <entry key="IsLocked" val="False"/>
           <entry key="WinTrackHeight" val="0"/>
          </MetaData>
          <Medias>
           <UnifiedMedia id="3355"  >
            <AMFile id="3356" start="0" duration="14" scalar="1/1" mediaStart="0/1" mediaDuration="14/1" trackNumber="1" src="20" channelNumber="0" >
             <Parameters>
              <InterpolatingParam id="3357" interp="linr"  time="0/1" value="1" leadInLength="0/1"  name="volume"/>
              <Parameter id="3358"  name="captions"/>
             </Parameters>
             <Attributes>
              <Attribute id="3359" value="" name="ident"/>
              <Attribute id="3360" value="44100" name="sampleRate"/>
              <Attribute id="3361" value="16" name="bitDepth"/>
              <Attribute id="3362" value="1" name="gain"/>
              <Attribute id="3363" value="0" name="mixToMono"/>
             </Attributes>
            </AMFile>
            <VMFile id="3364" start="0" duration="14" scalar="1/1" mediaStart="0/1" mediaDuration="14/1" trackNumber="0" src="20" >
             <Transformer>
              <VectorParam id="3365"  name="translation">
               <InterpolatingParam id="3366" interp="linr"  time="-9999999/1" value="0" leadInLength="0/1"  />
               <InterpolatingParam id="3367" interp="linr"  time="-9999999/1" value="0" leadInLength="0/1"  />
               <InterpolatingParam id="3368" interp="linr"  time="-9999999/1" value="0" leadInLength="0/1"  />
              </VectorParam>
              <VectorParam id="3369"  name="rotation">
               <InterpolatingParam id="3370" interp="linr"  time="-9999999/1" value="0" leadInLength="0/1"  />
               <InterpolatingParam id="3371" interp="linr"  time="-9999999/1" value="0" leadInLength="0/1"  />
               <InterpolatingParam id="3372" interp="linr"  time="-9999999/1" value="0" leadInLength="0/1"  />
              </VectorParam>
              <VectorParam id="3373"  name="shear">
               <InterpolatingParam id="3374" interp="linr"  time="-9999999/1" value="0" leadInLength="0/1"  />
               <InterpolatingParam id="3375" interp="linr"  time="-9999999/1" value="0" leadInLength="0/1"  />
               <InterpolatingParam id="3376" interp="linr"  time="-9999999/1" value="0" leadInLength="0/1"  />
              </VectorParam>
              <VectorParam id="3377"  name="scale">
               <InterpolatingParam id="3378" interp="linr"  time="-9999999/1" value="1" leadInLength="0/1"  />
               <InterpolatingParam id="3379" interp="linr"  time="-9999999/1" value="1" leadInLength="0/1"  />
               <InterpolatingParam id="3380" interp="linr"  time="-9999999/1" value="1" leadInLength="0/1"  />
              </VectorParam>
              <VectorParam id="3381"  name="anchor">
               <InterpolatingParam id="3382" interp="linr"  time="0/1" value="0" leadInLength="0/1"  />
               <InterpolatingParam id="3383" interp="linr"  time="0/1" value="0" leadInLength="0/1"  />
               <InterpolatingParam id="3384" interp="linr"  time="0/1" value="0" leadInLength="0/1"  />
              </VectorParam>
             </Transformer>
             <Parameters>
              <VectorParam id="3385"  name="sourceCrop">
               <InterpolatingParam id="3386" interp="linr"  time="0/1" value="0" leadInLength="0/1"  />
               <InterpolatingParam id="3387" interp="linr"  time="0/1" value="0" leadInLength="0/1"  />
               <InterpolatingParam id="3388" interp="linr"  time="0/1" value="0" leadInLength="0/1"  />
               <InterpolatingParam id="3389" interp="linr"  time="0/1" value="0" leadInLength="0/1"  />
              </VectorParam>
              <VectorParam id="3390"  name="geometryCrop">
               <InterpolatingParam id="3391" interp="linr"  time="-9999999/1" value="0" leadInLength="0/1"  />
               <InterpolatingParam id="3392" interp="linr"  time="-9999999/1" value="0" leadInLength="0/1"  />
               <InterpolatingParam id="3393" interp="linr"  time="-9999999/1" value="0" leadInLength="0/1"  />
               <InterpolatingParam id="3394" interp="linr"  time="-9999999/1" value="0" leadInLength="0/1"  />
              </VectorParam>
              <InterpolatingParam id="3395" interp="linr"  time="-9999999/1" value="1" leadInLength="0/1"  name="opacity"/>
             </Parameters>
             <Attributes>
              <Attribute id="3396" value="" name="ident"/>
             </Attributes>
             <ExtraData>
              <Entry key="ZoomPanBin">
               <ZoomPanBin id="3397"  >
                <ZoomPanKeyframes>
                 <ZoomPanKeyframe id="3398" timeRangeEnd="-9999999/1" timeRangeDuration="0/1" interpolaterName="linr"  />
                </ZoomPanKeyframes>
               </ZoomPanBin>
              </Entry>
             </ExtraData>
            </VMFile>
            <MetaData>
             <entry key="WinSubProjectDisplayName" val=""/>
            </MetaData>
           </UnifiedMedia>
           <UnifiedMedia id="3399"  >
            <AMFile id="3400" start="14" duration="1127" scalar="1/1" mediaStart="97/1" mediaDuration="1127/1" trackNumber="1" src="20" channelNumber="0" >
             <Parameters>
              <InterpolatingParam id="3401" interp="linr"  time="0/1" value="1" leadInLength="0/1"  name="volume"/>
              <Parameter id="3402"  name="captions"/>
             </Parameters>
             <Attributes>
              <Attribute id="3403" value="" name="ident"/>
              <Attribute id="3404" value="44100" name="sampleRate"/>
              <Attribute id="3405" value="16" name="bitDepth"/>
              <Attribute id="3406" value="1" name="gain"/>
              <Attribute id="3407" value="0" name="mixToMono"/>
             </Attributes>
            </AMFile>
            <VMFile id="3408" start="14" duration="1127" scalar="1/1" mediaStart="97/1" mediaDuration="1127/1" trackNumber="0" src="20" >
             <Transformer>
              <VectorParam id="3409"  name="translation">
               <InterpolatingParam id="3410" interp="linr"  time="-9999999/1" value="0" leadInLength="0/1"  />
               <InterpolatingParam id="3411" interp="linr"  time="-9999999/1" value="0" leadInLength="0/1"  />
               <InterpolatingParam id="3412" interp="linr"  time="-9999999/1" value="0" leadInLength="0/1"  />
              </VectorParam>
              <VectorParam id="3413"  name="rotation">
               <InterpolatingParam id="3414" interp="linr"  time="-9999999/1" value="0" leadInLength="0/1"  />
               <InterpolatingParam id="3415" interp="linr"  time="-9999999/1" value="0" leadInLength="0/1"  />
               <InterpolatingParam id="3416" interp="linr"  time="-9999999/1" value="0" leadInLength="0/1"  />
              </VectorParam>
              <VectorParam id="3417"  name="shear">
               <InterpolatingParam id="3418" interp="linr"  time="-9999999/1" value="0" leadInLength="0/1"  />
               <InterpolatingParam id="3419" interp="linr"  time="-9999999/1" value="0" leadInLength="0/1"  />
               <InterpolatingParam id="3420" interp="linr"  time="-9999999/1" value="0" leadInLength="0/1"  />
              </VectorParam>
              <VectorParam id="3421"  name="scale">
               <InterpolatingParam id="3422" interp="linr"  time="-9999999/1" value="1" leadInLength="0/1"  />
               <InterpolatingParam id="3423" interp="linr"  time="-9999999/1" value="1" leadInLength="0/1"  />
               <InterpolatingParam id="3424" interp="linr"  time="-9999999/1" value="1" leadInLength="0/1"  />
              </VectorParam>
              <VectorParam id="3425"  name="anchor">
               <InterpolatingParam id="3426" interp="linr"  time="0/1" value="0" leadInLength="0/1"  />
               <InterpolatingParam id="3427" interp="linr"  time="0/1" value="0" leadInLength="0/1"  />
               <InterpolatingParam id="3428" interp="linr"  time="0/1" value="0" leadInLength="0/1"  />
              </VectorParam>
             </Transformer>
             <Parameters>
              <VectorParam id="3429"  name="sourceCrop">
               <InterpolatingParam id="3430" interp="linr"  time="0/1" value="0" leadInLength="0/1"  />
               <InterpolatingParam id="3431" interp="linr"  time="0/1" value="0" leadInLength="0/1"  />
               <InterpolatingParam id="3432" interp="linr"  time="0/1" value="0" leadInLength="0/1"  />
               <InterpolatingParam id="3433" interp="linr"  time="0/1" value="0" leadInLength="0/1"  />
              </VectorParam>
              <VectorParam id="3434"  name="geometryCrop">
               <InterpolatingParam id="3435" interp="linr"  time="-9999999/1" value="0" leadInLength="0/1"  />
               <InterpolatingParam id="3436" interp="linr"  time="-9999999/1" value="0" leadInLength="0/1"  />
               <InterpolatingParam id="3437" interp="linr"  time="-9999999/1" value="0" leadInLength="0/1"  />
               <InterpolatingParam id="3438" interp="linr"  time="-9999999/1" value="0" leadInLength="0/1"  />
              </VectorParam>
              <InterpolatingParam id="3439" interp="linr"  time="-9999999/1" value="1" leadInLength="0/1"  name="opacity"/>
             </Parameters>
             <Attributes>
              <Attribute id="3440" value="" name="ident"/>
             </Attributes>
             <ExtraData>
              <Entry key="ZoomPanBin">
               <ZoomPanBin id="3441"  >
                <ZoomPanKeyframes>
                 <ZoomPanKeyframe id="3442" timeRangeEnd="-9999999/1" timeRangeDuration="0/1" interpolaterName="linr"  />
                </ZoomPanKeyframes>
               </ZoomPanBin>
              </Entry>
             </ExtraData>
            </VMFile>
            <MetaData>
             <entry key="WinSubProjectDisplayName" val=""/>
            </MetaData>
           </UnifiedMedia>
          </Medias>
         </GenericTrack>
        </StitchedMedia>
        <StitchedMedia id="3443" start="4503" duration="255" scalar="110297/219072" mediaStart="547680/10027" mediaDuration="55863360/110297" minMediaStart="0/1" >
         <Transformer>
          <VectorParam id="3444"  name="translation">
           <InterpolatingParam id="3445" interp="linr"  >
            <Keyframes>
            <Keyframe id="3446"  time="-9999999/1" value="-199.00000000003945" leadInLength="0/1"  />
            <Keyframe id="3447"  time="4710048/110297" value="-257.45238095173067" leadInLength="3067008/110297"  interpolater="leadin-linr"  />
            </Keyframes>
           </InterpolatingParam>
           <InterpolatingParam id="3448" interp="linr"  >
            <Keyframes>
            <Keyframe id="3449"  time="-9999999/1" value="57.937500000074209" leadInLength="0/1"  />
            <Keyframe id="3450"  time="4710048/110297" value="79.05803571451824" leadInLength="3067008/110297"  interpolater="leadin-linr"  />
            </Keyframes>
           </InterpolatingParam>
           <InterpolatingParam id="3451" interp="linr"  >
            <Keyframes>
            <Keyframe id="3452"  time="-9999999/1" value="-3.4106051316482901e-010" leadInLength="0/1"  />
            <Keyframe id="3453"  time="4710048/110297" value="-3.4106051316482906e-010" leadInLength="3067008/110297"  interpolater="leadin-linr"  />
            </Keyframes>
           </InterpolatingParam>
          </VectorParam>
          <VectorParam id="3454"  name="rotation">
           <InterpolatingParam id="3455" interp="linr"  >
            <Keyframes>
            <Keyframe id="3456"  time="-9999999/1" value="0" leadInLength="0/1"  />
            <Keyframe id="3457"  time="4710048/110297" value="0" leadInLength="3067008/110297"  interpolater="leadin-linr"  />
            </Keyframes>
           </InterpolatingParam>
           <InterpolatingParam id="3458" interp="linr"  >
            <Keyframes>
            <Keyframe id="3459"  time="-9999999/1" value="0" leadInLength="0/1"  />
            <Keyframe id="3460"  time="4710048/110297" value="0" leadInLength="3067008/110297"  interpolater="leadin-linr"  />
            </Keyframes>
           </InterpolatingParam>
           <InterpolatingParam id="3461" interp="linr"  >
            <Keyframes>
            <Keyframe id="3462"  time="-9999999/1" value="0" leadInLength="0/1"  />
            <Keyframe id="3463"  time="4710048/110297" value="0" leadInLength="3067008/110297"  interpolater="leadin-linr"  />
            </Keyframes>
           </InterpolatingParam>
          </VectorParam>
          <VectorParam id="3464"  name="shear">
           <InterpolatingParam id="3465" interp="linr"  >
            <Keyframes>
            <Keyframe id="3466"  time="-9999999/1" value="0" leadInLength="0/1"  />
            <Keyframe id="3467"  time="4710048/110297" value="0" leadInLength="3067008/110297"  interpolater="leadin-linr"  />
            </Keyframes>
           </InterpolatingParam>
           <InterpolatingParam id="3468" interp="linr"  >
            <Keyframes>
            <Keyframe id="3469"  time="-9999999/1" value="0" leadInLength="0/1"  />
            <Keyframe id="3470"  time="4710048/110297" value="0" leadInLength="3067008/110297"  interpolater="leadin-linr"  />
            </Keyframes>
           </InterpolatingParam>
           <InterpolatingParam id="3471" interp="linr"  >
            <Keyframes>
            <Keyframe id="3472"  time="-9999999/1" value="0" leadInLength="0/1"  />
            <Keyframe id="3473"  time="4710048/110297" value="0" leadInLength="3067008/110297"  interpolater="leadin-linr"  />
            </Keyframes>
           </InterpolatingParam>
          </VectorParam>
          <VectorParam id="3474"  name="scale">
           <InterpolatingParam id="3475" interp="linr"  >
            <Keyframes>
            <Keyframe id="3476"  time="-9999999/1" value="0.77395833333339403" leadInLength="0/1"  />
            <Keyframe id="3477"  time="4710048/110297" value="0.81307043650846467" leadInLength="3067008/110297"  interpolater="leadin-linr"  />
            </Keyframes>
           </InterpolatingParam>
           <InterpolatingParam id="3478" interp="linr"  >
            <Keyframes>
            <Keyframe id="3479"  time="-9999999/1" value="0.77395833333339425" leadInLength="0/1"  />
            <Keyframe id="3480"  time="4710048/110297" value="0.81307043650846522" leadInLength="3067008/110297"  interpolater="leadin-linr"  />
            </Keyframes>
           </InterpolatingParam>
           <InterpolatingParam id="3481" interp="linr"  >
            <Keyframes>
            <Keyframe id="3482"  time="-9999999/1" value="1" leadInLength="0/1"  />
            <Keyframe id="3483"  time="4710048/110297" value="1" leadInLength="3067008/110297"  interpolater="leadin-linr"  />
            </Keyframes>
           </InterpolatingParam>
          </VectorParam>
          <VectorParam id="3484"  name="anchor">
           <InterpolatingParam id="3485" interp="linr"  time="0/1" value="0" leadInLength="0/1"  />
           <InterpolatingParam id="3486" interp="linr"  time="0/1" value="0" leadInLength="0/1"  />
           <InterpolatingParam id="3487" interp="linr"  time="0/1" value="0" leadInLength="0/1"  />
          </VectorParam>
         </Transformer>
         <Parameters>
          <VectorParam id="3488"  name="sourceCrop">
           <InterpolatingParam id="3489" interp="linr"  time="0/1" value="0" leadInLength="0/1"  />
           <InterpolatingParam id="3490" interp="linr"  time="0/1" value="0" leadInLength="0/1"  />
           <InterpolatingParam id="3491" interp="linr"  time="0/1" value="0" leadInLength="0/1"  />
           <InterpolatingParam id="3492" interp="linr"  time="0/1" value="0" leadInLength="0/1"  />
          </VectorParam>
          <VectorParam id="3493"  name="geometryCrop">
           <InterpolatingParam id="3494" interp="linr"  >
            <Keyframes>
            <Keyframe id="3495"  time="-9999999/1" value="0" leadInLength="0/1"  />
            <Keyframe id="3496"  time="4710048/110297" value="0" leadInLength="3067008/110297"  interpolater="leadin-linr"  />
            </Keyframes>
           </InterpolatingParam>
           <InterpolatingParam id="3497" interp="linr"  >
            <Keyframes>
            <Keyframe id="3498"  time="-9999999/1" value="0" leadInLength="0/1"  />
            <Keyframe id="3499"  time="4710048/110297" value="0" leadInLength="3067008/110297"  interpolater="leadin-linr"  />
            </Keyframes>
           </InterpolatingParam>
           <InterpolatingParam id="3500" interp="linr"  >
            <Keyframes>
            <Keyframe id="3501"  time="-9999999/1" value="0" leadInLength="0/1"  />
            <Keyframe id="3502"  time="4710048/110297" value="0" leadInLength="3067008/110297"  interpolater="leadin-linr"  />
            </Keyframes>
           </InterpolatingParam>
           <InterpolatingParam id="3503" interp="linr"  >
            <Keyframes>
            <Keyframe id="3504"  time="-9999999/1" value="0" leadInLength="0/1"  />
            <Keyframe id="3505"  time="4710048/110297" value="0" leadInLength="3067008/110297"  interpolater="leadin-linr"  />
            </Keyframes>
           </InterpolatingParam>
          </VectorParam>
          <InterpolatingParam id="3506" interp="linr"  name="opacity">
           <Keyframes>
           <Keyframe id="3507"  time="-9999999/1" value="1" leadInLength="0/1"  />
           <Keyframe id="3508"  time="4710048/110297" value="1" leadInLength="3067008/110297"  interpolater="leadin-linr"  />
           </Keyframes>
          </InterpolatingParam>
          <InterpolatingParam id="3509" interp="linr"  time="0/1" value="1" leadInLength="0/1"  name="cursorOpacity"/>
          <InterpolatingParam id="3510" interp="linr"  time="0/1" value="1" leadInLength="0/1"  name="cursorScale"/>
          <InterpolatingParam id="3511" interp="linr"  name="volume">
           <Keyframes>
           <Keyframe id="3512"  time="-1/1" value="1" leadInLength="0/1"  />
           <Keyframe id="3513"  time="0/1" value="0" leadInLength="0/1"  />
           <Keyframe id="3514"  time="432482/379" value="0" leadInLength="0/1"  />
           <Keyframe id="3515"  time="432861/379" value="1" leadInLength="0/1"  />
           </Keyframes>
          </InterpolatingParam>
          <Parameter id="3516"  name="captions"/>
         </Parameters>
         <Attributes>
          <Attribute id="3517" value="" name="ident"/>
          <Attribute id="3518" value="0" name="mixToMono"/>
         </Attributes>
         <MetaData>
          <entry key="WinSubProjectDisplayName" val=""/>
         </MetaData>
         <ExtraData>
          <Entry key="ZoomPanBin">
           <ZoomPanBin id="3519"  >
            <ZoomPanKeyframes>
             <ZoomPanKeyframe id="3520" timeRangeEnd="-9999999/1" timeRangeDuration="0/1" interpolaterName="linr"  />
             <ZoomPanKeyframe id="3521" timeRangeEnd="4710048/110297" timeRangeDuration="3067008/110297" interpolaterName="linr"  />
            </ZoomPanKeyframes>
           </ZoomPanBin>
          </Entry>
          <Entry key="CursorEffectBin">
           <CursorEffectBin id="3522"  >
            <CursorEffectKeyframes>
            </CursorEffectKeyframes>
           </CursorEffectBin>
          </Entry>
         </ExtraData>
         <GenericTrack id="3523"  >
          <Attributes>
           <Attribute id="3524" value="" name="ident"/>
           <Attribute id="3525" value="0" name="audioMuted"/>
           <Attribute id="3526" value="0" name="videoHidden"/>
          </Attributes>
          <MetaData>
           <entry key="IsLocked" val="False"/>
           <entry key="WinTrackHeight" val="0"/>
          </MetaData>
          <Medias>
           <UnifiedMedia id="3527"  >
            <AMFile id="3528" start="0" duration="14" scalar="1/1" mediaStart="0/1" mediaDuration="14/1" trackNumber="1" src="20" channelNumber="0" >
             <Parameters>
              <InterpolatingParam id="3529" interp="linr"  time="0/1" value="1" leadInLength="0/1"  name="volume"/>
              <Parameter id="3530"  name="captions"/>
             </Parameters>
             <Attributes>
              <Attribute id="3531" value="" name="ident"/>
              <Attribute id="3532" value="44100" name="sampleRate"/>
              <Attribute id="3533" value="16" name="bitDepth"/>
              <Attribute id="3534" value="1" name="gain"/>
              <Attribute id="3535" value="0" name="mixToMono"/>
             </Attributes>
            </AMFile>
            <VMFile id="3536" start="0" duration="14" scalar="1/1" mediaStart="0/1" mediaDuration="14/1" trackNumber="0" src="20" >
             <Transformer>
              <VectorParam id="3537"  name="translation">
               <InterpolatingParam id="3538" interp="linr"  time="-9999999/1" value="0" leadInLength="0/1"  />
               <InterpolatingParam id="3539" interp="linr"  time="-9999999/1" value="0" leadInLength="0/1"  />
               <InterpolatingParam id="3540" interp="linr"  time="-9999999/1" value="0" leadInLength="0/1"  />
              </VectorParam>
              <VectorParam id="3541"  name="rotation">
               <InterpolatingParam id="3542" interp="linr"  time="-9999999/1" value="0" leadInLength="0/1"  />
               <InterpolatingParam id="3543" interp="linr"  time="-9999999/1" value="0" leadInLength="0/1"  />
               <InterpolatingParam id="3544" interp="linr"  time="-9999999/1" value="0" leadInLength="0/1"  />
              </VectorParam>
              <VectorParam id="3545"  name="shear">
               <InterpolatingParam id="3546" interp="linr"  time="-9999999/1" value="0" leadInLength="0/1"  />
               <InterpolatingParam id="3547" interp="linr"  time="-9999999/1" value="0" leadInLength="0/1"  />
               <InterpolatingParam id="3548" interp="linr"  time="-9999999/1" value="0" leadInLength="0/1"  />
              </VectorParam>
              <VectorParam id="3549"  name="scale">
               <InterpolatingParam id="3550" interp="linr"  time="-9999999/1" value="1" leadInLength="0/1"  />
               <InterpolatingParam id="3551" interp="linr"  time="-9999999/1" value="1" leadInLength="0/1"  />
               <InterpolatingParam id="3552" interp="linr"  time="-9999999/1" value="1" leadInLength="0/1"  />
              </VectorParam>
              <VectorParam id="3553"  name="anchor">
               <InterpolatingParam id="3554" interp="linr"  time="0/1" value="0" leadInLength="0/1"  />
               <InterpolatingParam id="3555" interp="linr"  time="0/1" value="0" leadInLength="0/1"  />
               <InterpolatingParam id="3556" interp="linr"  time="0/1" value="0" leadInLength="0/1"  />
              </VectorParam>
             </Transformer>
             <Parameters>
              <VectorParam id="3557"  name="sourceCrop">
               <InterpolatingParam id="3558" interp="linr"  time="0/1" value="0" leadInLength="0/1"  />
               <InterpolatingParam id="3559" interp="linr"  time="0/1" value="0" leadInLength="0/1"  />
               <InterpolatingParam id="3560" interp="linr"  time="0/1" value="0" leadInLength="0/1"  />
               <InterpolatingParam id="3561" interp="linr"  time="0/1" value="0" leadInLength="0/1"  />
              </VectorParam>
              <VectorParam id="3562"  name="geometryCrop">
               <InterpolatingParam id="3563" interp="linr"  time="-9999999/1" value="0" leadInLength="0/1"  />
               <InterpolatingParam id="3564" interp="linr"  time="-9999999/1" value="0" leadInLength="0/1"  />
               <InterpolatingParam id="3565" interp="linr"  time="-9999999/1" value="0" leadInLength="0/1"  />
               <InterpolatingParam id="3566" interp="linr"  time="-9999999/1" value="0" leadInLength="0/1"  />
              </VectorParam>
              <InterpolatingParam id="3567" interp="linr"  time="-9999999/1" value="1" leadInLength="0/1"  name="opacity"/>
             </Parameters>
             <Attributes>
              <Attribute id="3568" value="" name="ident"/>
             </Attributes>
             <ExtraData>
              <Entry key="ZoomPanBin">
               <ZoomPanBin id="3569"  >
                <ZoomPanKeyframes>
                 <ZoomPanKeyframe id="3570" timeRangeEnd="-9999999/1" timeRangeDuration="0/1" interpolaterName="linr"  />
                </ZoomPanKeyframes>
               </ZoomPanBin>
              </Entry>
             </ExtraData>
            </VMFile>
            <MetaData>
             <entry key="WinSubProjectDisplayName" val=""/>
            </MetaData>
           </UnifiedMedia>
           <UnifiedMedia id="3571"  >
            <AMFile id="3572" start="14" duration="1127" scalar="1/1" mediaStart="97/1" mediaDuration="1127/1" trackNumber="1" src="20" channelNumber="0" >
             <Parameters>
              <InterpolatingParam id="3573" interp="linr"  time="0/1" value="1" leadInLength="0/1"  name="volume"/>
              <Parameter id="3574"  name="captions"/>
             </Parameters>
             <Attributes>
              <Attribute id="3575" value="" name="ident"/>
              <Attribute id="3576" value="44100" name="sampleRate"/>
              <Attribute id="3577" value="16" name="bitDepth"/>
              <Attribute id="3578" value="1" name="gain"/>
              <Attribute id="3579" value="0" name="mixToMono"/>
             </Attributes>
            </AMFile>
            <VMFile id="3580" start="14" duration="1127" scalar="1/1" mediaStart="97/1" mediaDuration="1127/1" trackNumber="0" src="20" >
             <Transformer>
              <VectorParam id="3581"  name="translation">
               <InterpolatingParam id="3582" interp="linr"  time="-9999999/1" value="0" leadInLength="0/1"  />
               <InterpolatingParam id="3583" interp="linr"  time="-9999999/1" value="0" leadInLength="0/1"  />
               <InterpolatingParam id="3584" interp="linr"  time="-9999999/1" value="0" leadInLength="0/1"  />
              </VectorParam>
              <VectorParam id="3585"  name="rotation">
               <InterpolatingParam id="3586" interp="linr"  time="-9999999/1" value="0" leadInLength="0/1"  />
               <InterpolatingParam id="3587" interp="linr"  time="-9999999/1" value="0" leadInLength="0/1"  />
               <InterpolatingParam id="3588" interp="linr"  time="-9999999/1" value="0" leadInLength="0/1"  />
              </VectorParam>
              <VectorParam id="3589"  name="shear">
               <InterpolatingParam id="3590" interp="linr"  time="-9999999/1" value="0" leadInLength="0/1"  />
               <InterpolatingParam id="3591" interp="linr"  time="-9999999/1" value="0" leadInLength="0/1"  />
               <InterpolatingParam id="3592" interp="linr"  time="-9999999/1" value="0" leadInLength="0/1"  />
              </VectorParam>
              <VectorParam id="3593"  name="scale">
               <InterpolatingParam id="3594" interp="linr"  time="-9999999/1" value="1" leadInLength="0/1"  />
               <InterpolatingParam id="3595" interp="linr"  time="-9999999/1" value="1" leadInLength="0/1"  />
               <InterpolatingParam id="3596" interp="linr"  time="-9999999/1" value="1" leadInLength="0/1"  />
              </VectorParam>
              <VectorParam id="3597"  name="anchor">
               <InterpolatingParam id="3598" interp="linr"  time="0/1" value="0" leadInLength="0/1"  />
               <InterpolatingParam id="3599" interp="linr"  time="0/1" value="0" leadInLength="0/1"  />
               <InterpolatingParam id="3600" interp="linr"  time="0/1" value="0" leadInLength="0/1"  />
              </VectorParam>
             </Transformer>
             <Parameters>
              <VectorParam id="3601"  name="sourceCrop">
               <InterpolatingParam id="3602" interp="linr"  time="0/1" value="0" leadInLength="0/1"  />
               <InterpolatingParam id="3603" interp="linr"  time="0/1" value="0" leadInLength="0/1"  />
               <InterpolatingParam id="3604" interp="linr"  time="0/1" value="0" leadInLength="0/1"  />
               <InterpolatingParam id="3605" interp="linr"  time="0/1" value="0" leadInLength="0/1"  />
              </VectorParam>
              <VectorParam id="3606"  name="geometryCrop">
               <InterpolatingParam id="3607" interp="linr"  time="-9999999/1" value="0" leadInLength="0/1"  />
               <InterpolatingParam id="3608" interp="linr"  time="-9999999/1" value="0" leadInLength="0/1"  />
               <InterpolatingParam id="3609" interp="linr"  time="-9999999/1" value="0" leadInLength="0/1"  />
               <InterpolatingParam id="3610" interp="linr"  time="-9999999/1" value="0" leadInLength="0/1"  />
              </VectorParam>
              <InterpolatingParam id="3611" interp="linr"  time="-9999999/1" value="1" leadInLength="0/1"  name="opacity"/>
             </Parameters>
             <Attributes>
              <Attribute id="3612" value="" name="ident"/>
             </Attributes>
             <ExtraData>
              <Entry key="ZoomPanBin">
               <ZoomPanBin id="3613"  >
                <ZoomPanKeyframes>
                 <ZoomPanKeyframe id="3614" timeRangeEnd="-9999999/1" timeRangeDuration="0/1" interpolaterName="linr"  />
                </ZoomPanKeyframes>
               </ZoomPanBin>
              </Entry>
             </ExtraData>
            </VMFile>
            <MetaData>
             <entry key="WinSubProjectDisplayName" val=""/>
            </MetaData>
           </UnifiedMedia>
          </Medias>
         </GenericTrack>
        </StitchedMedia>
        <UnifiedMedia id="3615"  >
         <AMFile id="3616" start="4758" duration="168" scalar="84/137" mediaStart="0/1" mediaDuration="274/1" trackNumber="1" src="21" channelNumber="0" >
          <Parameters>
           <InterpolatingParam id="3617" interp="linr"  name="volume">
            <Keyframes>
            <Keyframe id="3618"  time="-1/1" value="1" leadInLength="0/1"  />
            <Keyframe id="3619"  time="0/1" value="0" leadInLength="0/1"  />
            <Keyframe id="3620"  time="507/1" value="0" leadInLength="0/1"  />
            <Keyframe id="3621"  time="508/1" value="1" leadInLength="0/1"  />
            </Keyframes>
           </InterpolatingParam>
           <Parameter id="3622"  name="captions"/>
          </Parameters>
          <Attributes>
           <Attribute id="3623" value="" name="ident"/>
           <Attribute id="3624" value="48000" name="sampleRate"/>
           <Attribute id="3625" value="16" name="bitDepth"/>
           <Attribute id="3626" value="1" name="gain"/>
           <Attribute id="3627" value="0" name="mixToMono"/>
          </Attributes>
         </AMFile>
         <VMFile id="3628" start="4758" duration="168" scalar="84/137" mediaStart="0/1" mediaDuration="274/1" trackNumber="0" src="21" >
          <Transformer>
           <VectorParam id="3629"  name="translation">
            <InterpolatingParam id="3630" interp="linr"  >
             <Keyframes>
             <Keyframe id="3631"  time="-9999999/1" value="-276.57407407314457" leadInLength="0/1"  />
             <Keyframe id="3632"  time="22879/84" value="-311.69312169216414" leadInLength="685/7"  interpolater="leadin-linr"  />
             </Keyframes>
            </InterpolatingParam>
            <InterpolatingParam id="3633" interp="linr"  >
             <Keyframes>
             <Keyframe id="3634"  time="-9999999/1" value="63.319940476414565" leadInLength="0/1"  />
             <Keyframe id="3635"  time="22879/84" value="-16.077380952250934" leadInLength="685/7"  interpolater="leadin-linr"  />
             </Keyframes>
            </InterpolatingParam>
            <InterpolatingParam id="3636" interp="linr"  >
             <Keyframes>
             <Keyframe id="3637"  time="-9999999/1" value="-6.8212102632960126e-010" leadInLength="0/1"  />
             <Keyframe id="3638"  time="22879/84" value="-3.4106051316465872e-010" leadInLength="685/7"  interpolater="leadin-linr"  />
             </Keyframes>
            </InterpolatingParam>
           </VectorParam>
           <VectorParam id="3639"  name="rotation">
            <InterpolatingParam id="3640" interp="linr"  >
             <Keyframes>
             <Keyframe id="3641"  time="-9999999/1" value="0" leadInLength="0/1"  />
             <Keyframe id="3642"  time="22879/84" value="0" leadInLength="685/7"  interpolater="leadin-linr"  />
             </Keyframes>
            </InterpolatingParam>
            <InterpolatingParam id="3643" interp="linr"  >
             <Keyframes>
             <Keyframe id="3644"  time="-9999999/1" value="0" leadInLength="0/1"  />
             <Keyframe id="3645"  time="22879/84" value="0" leadInLength="685/7"  interpolater="leadin-linr"  />
             </Keyframes>
            </InterpolatingParam>
            <InterpolatingParam id="3646" interp="linr"  >
             <Keyframes>
             <Keyframe id="3647"  time="-9999999/1" value="0" leadInLength="0/1"  />
             <Keyframe id="3648"  time="22879/84" value="0" leadInLength="685/7"  interpolater="leadin-linr"  />
             </Keyframes>
            </InterpolatingParam>
           </VectorParam>
           <VectorParam id="3649"  name="shear">
            <InterpolatingParam id="3650" interp="linr"  >
             <Keyframes>
             <Keyframe id="3651"  time="-9999999/1" value="0" leadInLength="0/1"  />
             <Keyframe id="3652"  time="22879/84" value="0" leadInLength="685/7"  interpolater="leadin-linr"  />
             </Keyframes>
            </InterpolatingParam>
            <InterpolatingParam id="3653" interp="linr"  >
             <Keyframes>
             <Keyframe id="3654"  time="-9999999/1" value="0" leadInLength="0/1"  />
             <Keyframe id="3655"  time="22879/84" value="0" leadInLength="685/7"  interpolater="leadin-linr"  />
             </Keyframes>
            </InterpolatingParam>
            <InterpolatingParam id="3656" interp="linr"  >
             <Keyframes>
             <Keyframe id="3657"  time="-9999999/1" value="0" leadInLength="0/1"  />
             <Keyframe id="3658"  time="22879/84" value="0" leadInLength="685/7"  interpolater="leadin-linr"  />
             </Keyframes>
            </InterpolatingParam>
           </VectorParam>
           <VectorParam id="3659"  name="scale">
            <InterpolatingParam id="3660" interp="linr"  >
             <Keyframes>
             <Keyframe id="3661"  time="-9999999/1" value="0.78392581569736597" leadInLength="0/1"  />
             <Keyframe id="3662"  time="22879/84" value="0.63689373897745927" leadInLength="685/7"  interpolater="leadin-linr"  />
             </Keyframes>
            </InterpolatingParam>
            <InterpolatingParam id="3663" interp="linr"  >
             <Keyframes>
             <Keyframe id="3664"  time="-9999999/1" value="0.78392581569736675" leadInLength="0/1"  />
             <Keyframe id="3665"  time="22879/84" value="0.63689373897746004" leadInLength="685/7"  interpolater="leadin-linr"  />
             </Keyframes>
            </InterpolatingParam>
            <InterpolatingParam id="3666" interp="linr"  >
             <Keyframes>
             <Keyframe id="3667"  time="-9999999/1" value="1" leadInLength="0/1"  />
             <Keyframe id="3668"  time="22879/84" value="1" leadInLength="685/7"  interpolater="leadin-linr"  />
             </Keyframes>
            </InterpolatingParam>
           </VectorParam>
           <VectorParam id="3669"  name="anchor">
            <InterpolatingParam id="3670" interp="linr"  time="0/1" value="0" leadInLength="0/1"  />
            <InterpolatingParam id="3671" interp="linr"  time="0/1" value="0" leadInLength="0/1"  />
            <InterpolatingParam id="3672" interp="linr"  time="0/1" value="0" leadInLength="0/1"  />
           </VectorParam>
          </Transformer>
          <Parameters>
           <VectorParam id="3673"  name="sourceCrop">
            <InterpolatingParam id="3674" interp="linr"  time="0/1" value="0" leadInLength="0/1"  />
            <InterpolatingParam id="3675" interp="linr"  time="0/1" value="0" leadInLength="0/1"  />
            <InterpolatingParam id="3676" interp="linr"  time="0/1" value="0" leadInLength="0/1"  />
            <InterpolatingParam id="3677" interp="linr"  time="0/1" value="0" leadInLength="0/1"  />
           </VectorParam>
           <VectorParam id="3678"  name="geometryCrop">
            <InterpolatingParam id="3679" interp="linr"  >
             <Keyframes>
             <Keyframe id="3680"  time="-9999999/1" value="0" leadInLength="0/1"  />
             <Keyframe id="3681"  time="22879/84" value="0" leadInLength="685/7"  interpolater="leadin-linr"  />
             </Keyframes>
            </InterpolatingParam>
            <InterpolatingParam id="3682" interp="linr"  >
             <Keyframes>
             <Keyframe id="3683"  time="-9999999/1" value="0" leadInLength="0/1"  />
             <Keyframe id="3684"  time="22879/84" value="0" leadInLength="685/7"  interpolater="leadin-linr"  />
             </Keyframes>
            </InterpolatingParam>
            <InterpolatingParam id="3685" interp="linr"  >
             <Keyframes>
             <Keyframe id="3686"  time="-9999999/1" value="0" leadInLength="0/1"  />
             <Keyframe id="3687"  time="22879/84" value="0" leadInLength="685/7"  interpolater="leadin-linr"  />
             </Keyframes>
            </InterpolatingParam>
            <InterpolatingParam id="3688" interp="linr"  >
             <Keyframes>
             <Keyframe id="3689"  time="-9999999/1" value="0" leadInLength="0/1"  />
             <Keyframe id="3690"  time="22879/84" value="0" leadInLength="685/7"  interpolater="leadin-linr"  />
             </Keyframes>
            </InterpolatingParam>
           </VectorParam>
           <InterpolatingParam id="3691" interp="linr"  name="opacity">
            <Keyframes>
            <Keyframe id="3692"  time="-9999999/1" value="1" leadInLength="0/1"  />
            <Keyframe id="3693"  time="22879/84" value="1" leadInLength="685/7"  interpolater="leadin-linr"  />
            </Keyframes>
           </InterpolatingParam>
          </Parameters>
          <Attributes>
           <Attribute id="3694" value="" name="ident"/>
          </Attributes>
          <ExtraData>
           <Entry key="ZoomPanBin">
            <ZoomPanBin id="3695"  >
             <ZoomPanKeyframes>
              <ZoomPanKeyframe id="3696" timeRangeEnd="-9999999/1" timeRangeDuration="0/1" interpolaterName="linr"  />
              <ZoomPanKeyframe id="3697" timeRangeEnd="22879/84" timeRangeDuration="685/7" interpolaterName="linr"  />
             </ZoomPanKeyframes>
            </ZoomPanBin>
           </Entry>
          </ExtraData>
         </VMFile>
         <MetaData>
          <entry key="WinSubProjectDisplayName" val=""/>
         </MetaData>
        </UnifiedMedia>
        <UnifiedMedia id="3698"  >
         <AMFile id="3699" start="4926" duration="181" scalar="120727/227138" mediaStart="797583/667" mediaDuration="227138/667" trackNumber="1" src="22" channelNumber="0" >
          <Parameters>
           <InterpolatingParam id="3700" interp="linr"  name="volume">
            <Keyframes>
            <Keyframe id="3701"  time="-1/1" value="1" leadInLength="0/1"  />
            <Keyframe id="3702"  time="0/1" value="0" leadInLength="0/1"  />
            <Keyframe id="3703"  time="2469/1" value="0" leadInLength="0/1"  />
            <Keyframe id="3704"  time="2470/1" value="1" leadInLength="0/1"  />
            </Keyframes>
           </InterpolatingParam>
           <Parameter id="3705"  name="captions"/>
          </Parameters>
          <Attributes>
           <Attribute id="3706" value="" name="ident"/>
           <Attribute id="3707" value="48000" name="sampleRate"/>
           <Attribute id="3708" value="16" name="bitDepth"/>
           <Attribute id="3709" value="1" name="gain"/>
           <Attribute id="3710" value="0" name="mixToMono"/>
          </Attributes>
         </AMFile>
         <VMFile id="3711" start="4926" duration="181" scalar="120727/227138" mediaStart="797583/667" mediaDuration="227138/667" trackNumber="0" src="22" >
          <Transformer>
           <VectorParam id="3712"  name="translation">
            <InterpolatingParam id="3713" interp="linr"  time="-9999999/1" value="-321.08465608434346" leadInLength="0/1"  />
            <InterpolatingParam id="3714" interp="linr"  time="-9999999/1" value="-20.30952380938113" leadInLength="0/1"  />
            <InterpolatingParam id="3715" interp="linr"  time="-9999999/1" value="-3.4106051316488578e-010" leadInLength="0/1"  />
           </VectorParam>
           <VectorParam id="3716"  name="rotation">
            <InterpolatingParam id="3717" interp="linr"  time="-9999999/1" value="0" leadInLength="0/1"  />
            <InterpolatingParam id="3718" interp="linr"  time="-9999999/1" value="0" leadInLength="0/1"  />
            <InterpolatingParam id="3719" interp="linr"  time="-9999999/1" value="0" leadInLength="0/1"  />
           </VectorParam>
           <VectorParam id="3720"  name="shear">
            <InterpolatingParam id="3721" interp="linr"  time="-9999999/1" value="0" leadInLength="0/1"  />
            <InterpolatingParam id="3722" interp="linr"  time="-9999999/1" value="0" leadInLength="0/1"  />
            <InterpolatingParam id="3723" interp="linr"  time="-9999999/1" value="0" leadInLength="0/1"  />
           </VectorParam>
           <VectorParam id="3724"  name="scale">
            <InterpolatingParam id="3725" interp="linr"  time="-9999999/1" value="0.63646384479723905" leadInLength="0/1"  />
            <InterpolatingParam id="3726" interp="linr"  time="-9999999/1" value="0.63646384479723905" leadInLength="0/1"  />
            <InterpolatingParam id="3727" interp="linr"  time="-9999999/1" value="1" leadInLength="0/1"  />
           </VectorParam>
           <VectorParam id="3728"  name="anchor">
            <InterpolatingParam id="3729" interp="linr"  time="0/1" value="0" leadInLength="0/1"  />
            <InterpolatingParam id="3730" interp="linr"  time="0/1" value="0" leadInLength="0/1"  />
            <InterpolatingParam id="3731" interp="linr"  time="0/1" value="0" leadInLength="0/1"  />
           </VectorParam>
          </Transformer>
          <Parameters>
           <VectorParam id="3732"  name="sourceCrop">
            <InterpolatingParam id="3733" interp="linr"  time="0/1" value="0" leadInLength="0/1"  />
            <InterpolatingParam id="3734" interp="linr"  time="0/1" value="0" leadInLength="0/1"  />
            <InterpolatingParam id="3735" interp="linr"  time="0/1" value="0" leadInLength="0/1"  />
            <InterpolatingParam id="3736" interp="linr"  time="0/1" value="0" leadInLength="0/1"  />
           </VectorParam>
           <VectorParam id="3737"  name="geometryCrop">
            <InterpolatingParam id="3738" interp="linr"  time="-9999999/1" value="0" leadInLength="0/1"  />
            <InterpolatingParam id="3739" interp="linr"  time="-9999999/1" value="0" leadInLength="0/1"  />
            <InterpolatingParam id="3740" interp="linr"  time="-9999999/1" value="0" leadInLength="0/1"  />
            <InterpolatingParam id="3741" interp="linr"  time="-9999999/1" value="0" leadInLength="0/1"  />
           </VectorParam>
           <InterpolatingParam id="3742" interp="linr"  time="-9999999/1" value="1" leadInLength="0/1"  name="opacity"/>
          </Parameters>
          <Attributes>
           <Attribute id="3743" value="" name="ident"/>
          </Attributes>
          <ExtraData>
           <Entry key="ZoomPanBin">
            <ZoomPanBin id="3744"  >
             <ZoomPanKeyframes>
              <ZoomPanKeyframe id="3745" timeRangeEnd="-9999999/1" timeRangeDuration="0/1" interpolaterName="linr"  />
             </ZoomPanKeyframes>
            </ZoomPanBin>
           </Entry>
          </ExtraData>
         </VMFile>
         <MetaData>
          <entry key="WinSubProjectDisplayName" val=""/>
         </MetaData>
        </UnifiedMedia>
        <UnifiedMedia id="3746"  >
         <AMFile id="3747" start="5107" duration="53" scalar="611639/622102" mediaStart="1255696973/611639" mediaDuration="32971406/611639" trackNumber="1" src="22" channelNumber="0" >
          <Parameters>
           <InterpolatingParam id="3748" interp="linr"  name="volume">
            <Keyframes>
            <Keyframe id="3749"  time="-1/1" value="1" leadInLength="0/1"  />
            <Keyframe id="3750"  time="0/1" value="0" leadInLength="0/1"  />
            <Keyframe id="3751"  time="2469/1" value="0" leadInLength="0/1"  />
            <Keyframe id="3752"  time="2470/1" value="1" leadInLength="0/1"  />
            </Keyframes>
           </InterpolatingParam>
           <Parameter id="3753"  name="captions"/>
          </Parameters>
          <Attributes>
           <Attribute id="3754" value="" name="ident"/>
           <Attribute id="3755" value="48000" name="sampleRate"/>
           <Attribute id="3756" value="16" name="bitDepth"/>
           <Attribute id="3757" value="1" name="gain"/>
           <Attribute id="3758" value="0" name="mixToMono"/>
          </Attributes>
         </AMFile>
         <VMFile id="3759" start="5107" duration="53" scalar="611639/622102" mediaStart="1255696973/611639" mediaDuration="32971406/611639" trackNumber="0" src="22" >
          <Transformer>
           <VectorParam id="3760"  name="translation">
            <InterpolatingParam id="3761" interp="linr"  time="-9999999/1" value="-321.08465608435461" leadInLength="0/1"  />
            <InterpolatingParam id="3762" interp="linr"  time="-9999999/1" value="-20.309523809382494" leadInLength="0/1"  />
            <InterpolatingParam id="3763" interp="linr"  time="-9999999/1" value="-1.0339757656912846e-025" leadInLength="0/1"  />
           </VectorParam>
           <VectorParam id="3764"  name="rotation">
            <InterpolatingParam id="3765" interp="linr"  time="-9999999/1" value="0" leadInLength="0/1"  />
            <InterpolatingParam id="3766" interp="linr"  time="-9999999/1" value="0" leadInLength="0/1"  />
            <InterpolatingParam id="3767" interp="linr"  time="-9999999/1" value="0" leadInLength="0/1"  />
           </VectorParam>
           <VectorParam id="3768"  name="shear">
            <InterpolatingParam id="3769" interp="linr"  time="-9999999/1" value="0" leadInLength="0/1"  />
            <InterpolatingParam id="3770" interp="linr"  time="-9999999/1" value="0" leadInLength="0/1"  />
            <InterpolatingParam id="3771" interp="linr"  time="-9999999/1" value="0" leadInLength="0/1"  />
           </VectorParam>
           <VectorParam id="3772"  name="scale">
            <InterpolatingParam id="3773" interp="linr"  time="-9999999/1" value="0.63646384479724427" leadInLength="0/1"  />
            <InterpolatingParam id="3774" interp="linr"  time="-9999999/1" value="0.63646384479724416" leadInLength="0/1"  />
            <InterpolatingParam id="3775" interp="linr"  time="-9999999/1" value="1" leadInLength="0/1"  />
           </VectorParam>
           <VectorParam id="3776"  name="anchor">
            <InterpolatingParam id="3777" interp="linr"  time="0/1" value="0" leadInLength="0/1"  />
            <InterpolatingParam id="3778" interp="linr"  time="0/1" value="0" leadInLength="0/1"  />
            <InterpolatingParam id="3779" interp="linr"  time="0/1" value="0" leadInLength="0/1"  />
           </VectorParam>
          </Transformer>
          <Parameters>
           <VectorParam id="3780"  name="sourceCrop">
            <InterpolatingParam id="3781" interp="linr"  time="0/1" value="0" leadInLength="0/1"  />
            <InterpolatingParam id="3782" interp="linr"  time="0/1" value="0" leadInLength="0/1"  />
            <InterpolatingParam id="3783" interp="linr"  time="0/1" value="0" leadInLength="0/1"  />
            <InterpolatingParam id="3784" interp="linr"  time="0/1" value="0" leadInLength="0/1"  />
           </VectorParam>
           <VectorParam id="3785"  name="geometryCrop">
            <InterpolatingParam id="3786" interp="linr"  time="-9999999/1" value="0" leadInLength="0/1"  />
            <InterpolatingParam id="3787" interp="linr"  time="-9999999/1" value="0" leadInLength="0/1"  />
            <InterpolatingParam id="3788" interp="linr"  time="-9999999/1" value="0" leadInLength="0/1"  />
            <InterpolatingParam id="3789" interp="linr"  time="-9999999/1" value="0" leadInLength="0/1"  />
           </VectorParam>
           <InterpolatingParam id="3790" interp="linr"  time="-9999999/1" value="1" leadInLength="0/1"  name="opacity"/>
          </Parameters>
          <Attributes>
           <Attribute id="3791" value="" name="ident"/>
          </Attributes>
          <ExtraData>
           <Entry key="ZoomPanBin">
            <ZoomPanBin id="3792"  >
             <ZoomPanKeyframes>
              <ZoomPanKeyframe id="3793" timeRangeEnd="-9999999/1" timeRangeDuration="0/1" interpolaterName="linr"  />
             </ZoomPanKeyframes>
            </ZoomPanBin>
           </Entry>
          </ExtraData>
         </VMFile>
         <MetaData>
          <entry key="WinSubProjectDisplayName" val=""/>
         </MetaData>
        </UnifiedMedia>
        <UnifiedMedia id="3794"  >
         <AMFile id="3795" start="5160" duration="270" scalar="611639/622102" mediaStart="1342169151/611639" mediaDuration="167967540/611639" trackNumber="1" src="22" channelNumber="0" >
          <Parameters>
           <InterpolatingParam id="3796" interp="linr"  name="volume">
            <Keyframes>
            <Keyframe id="3797"  time="-1/1" value="1" leadInLength="0/1"  />
            <Keyframe id="3798"  time="0/1" value="0" leadInLength="0/1"  />
            <Keyframe id="3799"  time="2469/1" value="0" leadInLength="0/1"  />
            <Keyframe id="3800"  time="2470/1" value="1" leadInLength="0/1"  />
            </Keyframes>
           </InterpolatingParam>
           <Parameter id="3801"  name="captions"/>
          </Parameters>
          <Attributes>
           <Attribute id="3802" value="" name="ident"/>
           <Attribute id="3803" value="48000" name="sampleRate"/>
           <Attribute id="3804" value="16" name="bitDepth"/>
           <Attribute id="3805" value="1" name="gain"/>
           <Attribute id="3806" value="0" name="mixToMono"/>
          </Attributes>
         </AMFile>
         <VMFile id="3807" start="5160" duration="270" scalar="611639/622102" mediaStart="1342169151/611639" mediaDuration="167967540/611639" trackNumber="0" src="22" >
          <Transformer>
           <VectorParam id="3808"  name="translation">
            <InterpolatingParam id="3809" interp="linr"  >
             <Keyframes>
             <Keyframe id="3810"  time="-9999999/1" value="-322.75132275098309" leadInLength="0/1"  />
             <Keyframe id="3811"  time="1498938855/611639" value="-113.9002589209725" leadInLength="60343894/611639"  interpolater="leadin-linr"  />
             </Keyframes>
            </InterpolatingParam>
            <InterpolatingParam id="3812" interp="linr"  >
             <Keyframes>
             <Keyframe id="3813"  time="-9999999/1" value="-20.309523809383233" leadInLength="0/1"  />
             <Keyframe id="3814"  time="1498938855/611639" value="187.08675278640453" leadInLength="60343894/611639"  interpolater="leadin-linr"  />
             </Keyframes>
            </InterpolatingParam>
            <InterpolatingParam id="3815" interp="linr"  >
             <Keyframes>
             <Keyframe id="3816"  time="-9999999/1" value="-1.0339757656912846e-025" leadInLength="0/1"  />
             <Keyframe id="3817"  time="1498938855/611639" value="-1.0339757656912846e-025" leadInLength="60343894/611639"  interpolater="leadin-linr"  />
             </Keyframes>
            </InterpolatingParam>
           </VectorParam>
           <VectorParam id="3818"  name="rotation">
            <InterpolatingParam id="3819" interp="linr"  >
             <Keyframes>
             <Keyframe id="3820"  time="-9999999/1" value="0" leadInLength="0/1"  />
             <Keyframe id="3821"  time="1498938855/611639" value="0" leadInLength="60343894/611639"  interpolater="leadin-linr"  />
             </Keyframes>
            </InterpolatingParam>
            <InterpolatingParam id="3822" interp="linr"  >
             <Keyframes>
             <Keyframe id="3823"  time="-9999999/1" value="0" leadInLength="0/1"  />
             <Keyframe id="3824"  time="1498938855/611639" value="0" leadInLength="60343894/611639"  interpolater="leadin-linr"  />
             </Keyframes>
            </InterpolatingParam>
            <InterpolatingParam id="3825" interp="linr"  >
             <Keyframes>
             <Keyframe id="3826"  time="-9999999/1" value="0" leadInLength="0/1"  />
             <Keyframe id="3827"  time="1498938855/611639" value="0" leadInLength="60343894/611639"  interpolater="leadin-linr"  />
             </Keyframes>
            </InterpolatingParam>
           </VectorParam>
           <VectorParam id="3828"  name="shear">
            <InterpolatingParam id="3829" interp="linr"  >
             <Keyframes>
             <Keyframe id="3830"  time="-9999999/1" value="0" leadInLength="0/1"  />
             <Keyframe id="3831"  time="1498938855/611639" value="0" leadInLength="60343894/611639"  interpolater="leadin-linr"  />
             </Keyframes>
            </InterpolatingParam>
            <InterpolatingParam id="3832" interp="linr"  >
             <Keyframes>
             <Keyframe id="3833"  time="-9999999/1" value="0" leadInLength="0/1"  />
             <Keyframe id="3834"  time="1498938855/611639" value="0" leadInLength="60343894/611639"  interpolater="leadin-linr"  />
             </Keyframes>
            </InterpolatingParam>
            <InterpolatingParam id="3835" interp="linr"  >
             <Keyframes>
             <Keyframe id="3836"  time="-9999999/1" value="0" leadInLength="0/1"  />
             <Keyframe id="3837"  time="1498938855/611639" value="0" leadInLength="60343894/611639"  interpolater="leadin-linr"  />
             </Keyframes>
            </InterpolatingParam>
           </VectorParam>
           <VectorParam id="3838"  name="scale">
            <InterpolatingParam id="3839" interp="linr"  >
             <Keyframes>
             <Keyframe id="3840"  time="-9999999/1" value="0.63646384479724427" leadInLength="0/1"  />
             <Keyframe id="3841"  time="1498938855/611639" value="1.0463781473979425" leadInLength="60343894/611639"  interpolater="leadin-linr"  />
             </Keyframes>
            </InterpolatingParam>
            <InterpolatingParam id="3842" interp="linr"  >
             <Keyframes>
             <Keyframe id="3843"  time="-9999999/1" value="0.63646384479724416" leadInLength="0/1"  />
             <Keyframe id="3844"  time="1498938855/611639" value="1.0463781473979428" leadInLength="60343894/611639"  interpolater="leadin-linr"  />
             </Keyframes>
            </InterpolatingParam>
            <InterpolatingParam id="3845" interp="linr"  >
             <Keyframes>
             <Keyframe id="3846"  time="-9999999/1" value="1" leadInLength="0/1"  />
             <Keyframe id="3847"  time="1498938855/611639" value="1" leadInLength="60343894/611639"  interpolater="leadin-linr"  />
             </Keyframes>
            </InterpolatingParam>
           </VectorParam>
           <VectorParam id="3848"  name="anchor">
            <InterpolatingParam id="3849" interp="linr"  time="0/1" value="0" leadInLength="0/1"  />
            <InterpolatingParam id="3850" interp="linr"  time="0/1" value="0" leadInLength="0/1"  />
            <InterpolatingParam id="3851" interp="linr"  time="0/1" value="0" leadInLength="0/1"  />
           </VectorParam>
          </Transformer>
          <Parameters>
           <VectorParam id="3852"  name="sourceCrop">
            <InterpolatingParam id="3853" interp="linr"  time="0/1" value="0" leadInLength="0/1"  />
            <InterpolatingParam id="3854" interp="linr"  time="0/1" value="0" leadInLength="0/1"  />
            <InterpolatingParam id="3855" interp="linr"  time="0/1" value="0" leadInLength="0/1"  />
            <InterpolatingParam id="3856" interp="linr"  time="0/1" value="0" leadInLength="0/1"  />
           </VectorParam>
           <VectorParam id="3857"  name="geometryCrop">
            <InterpolatingParam id="3858" interp="linr"  >
             <Keyframes>
             <Keyframe id="3859"  time="-9999999/1" value="0" leadInLength="0/1"  />
             <Keyframe id="3860"  time="1498938855/611639" value="0" leadInLength="60343894/611639"  interpolater="leadin-linr"  />
             </Keyframes>
            </InterpolatingParam>
            <InterpolatingParam id="3861" interp="linr"  >
             <Keyframes>
             <Keyframe id="3862"  time="-9999999/1" value="0" leadInLength="0/1"  />
             <Keyframe id="3863"  time="1498938855/611639" value="0" leadInLength="60343894/611639"  interpolater="leadin-linr"  />
             </Keyframes>
            </InterpolatingParam>
            <InterpolatingParam id="3864" interp="linr"  >
             <Keyframes>
             <Keyframe id="3865"  time="-9999999/1" value="0" leadInLength="0/1"  />
             <Keyframe id="3866"  time="1498938855/611639" value="0" leadInLength="60343894/611639"  interpolater="leadin-linr"  />
             </Keyframes>
            </InterpolatingParam>
            <InterpolatingParam id="3867" interp="linr"  >
             <Keyframes>
             <Keyframe id="3868"  time="-9999999/1" value="0" leadInLength="0/1"  />
             <Keyframe id="3869"  time="1498938855/611639" value="0" leadInLength="60343894/611639"  interpolater="leadin-linr"  />
             </Keyframes>
            </InterpolatingParam>
           </VectorParam>
           <InterpolatingParam id="3870" interp="linr"  name="opacity">
            <Keyframes>
            <Keyframe id="3871"  time="-9999999/1" value="1" leadInLength="0/1"  />
            <Keyframe id="3872"  time="1498938855/611639" value="1" leadInLength="60343894/611639"  interpolater="leadin-linr"  />
            </Keyframes>
           </InterpolatingParam>
          </Parameters>
          <Attributes>
           <Attribute id="3873" value="" name="ident"/>
          </Attributes>
          <ExtraData>
           <Entry key="ZoomPanBin">
            <ZoomPanBin id="3874"  >
             <ZoomPanKeyframes>
              <ZoomPanKeyframe id="3875" timeRangeEnd="-9999999/1" timeRangeDuration="0/1" interpolaterName="linr"  />
              <ZoomPanKeyframe id="3876" timeRangeEnd="1498938855/611639" timeRangeDuration="60343894/611639" interpolaterName="linr"  />
             </ZoomPanKeyframes>
            </ZoomPanBin>
           </Entry>
          </ExtraData>
         </VMFile>
         <MetaData>
          <entry key="WinSubProjectDisplayName" val=""/>
         </MetaData>
        </UnifiedMedia>
        <UnifiedMedia id="3877"  >
         <AMFile id="3878" start="5430" duration="344" scalar="208/329" mediaStart="0/1" mediaDuration="14147/26" trackNumber="1" src="23" channelNumber="0" >
          <Parameters>
           <InterpolatingParam id="3879" interp="linr"  name="volume">
            <Keyframes>
            <Keyframe id="3880"  time="-1/1" value="1" leadInLength="0/1"  />
            <Keyframe id="3881"  time="0/1" value="0" leadInLength="0/1"  />
            <Keyframe id="3882"  time="1119/1" value="0" leadInLength="0/1"  />
            <Keyframe id="3883"  time="1120/1" value="1" leadInLength="0/1"  />
            </Keyframes>
           </InterpolatingParam>
           <Parameter id="3884"  name="captions"/>
          </Parameters>
          <Attributes>
           <Attribute id="3885" value="" name="ident"/>
           <Attribute id="3886" value="48000" name="sampleRate"/>
           <Attribute id="3887" value="16" name="bitDepth"/>
           <Attribute id="3888" value="1" name="gain"/>
           <Attribute id="3889" value="0" name="mixToMono"/>
          </Attributes>
         </AMFile>
         <VMFile id="3890" start="5430" duration="344" scalar="208/329" mediaStart="0/1" mediaDuration="14147/26" trackNumber="0" src="23" >
          <Transformer>
           <VectorParam id="3891"  name="translation">
            <InterpolatingParam id="3892" interp="linr"  time="-9999999/1" value="-110.60475064798476" leadInLength="0/1"  />
            <InterpolatingParam id="3893" interp="linr"  time="-9999999/1" value="186.99404761885216" leadInLength="0/1"  />
            <InterpolatingParam id="3894" interp="linr"  time="-9999999/1" value="-3.410605131648287e-010" leadInLength="0/1"  />
           </VectorParam>
           <VectorParam id="3895"  name="rotation">
            <InterpolatingParam id="3896" interp="linr"  time="-9999999/1" value="0" leadInLength="0/1"  />
            <InterpolatingParam id="3897" interp="linr"  time="-9999999/1" value="0" leadInLength="0/1"  />
            <InterpolatingParam id="3898" interp="linr"  time="-9999999/1" value="0" leadInLength="0/1"  />
           </VectorParam>
           <VectorParam id="3899"  name="shear">
            <InterpolatingParam id="3900" interp="linr"  time="-9999999/1" value="0" leadInLength="0/1"  />
            <InterpolatingParam id="3901" interp="linr"  time="-9999999/1" value="0" leadInLength="0/1"  />
            <InterpolatingParam id="3902" interp="linr"  time="-9999999/1" value="0" leadInLength="0/1"  />
           </VectorParam>
           <VectorParam id="3903"  name="scale">
            <InterpolatingParam id="3904" interp="linr"  time="-9999999/1" value="1.061100088183585" leadInLength="0/1"  />
            <InterpolatingParam id="3905" interp="linr"  time="-9999999/1" value="1.0611000881835855" leadInLength="0/1"  />
            <InterpolatingParam id="3906" interp="linr"  time="-9999999/1" value="1" leadInLength="0/1"  />
           </VectorParam>
           <VectorParam id="3907"  name="anchor">
            <InterpolatingParam id="3908" interp="linr"  time="0/1" value="0" leadInLength="0/1"  />
            <InterpolatingParam id="3909" interp="linr"  time="0/1" value="0" leadInLength="0/1"  />
            <InterpolatingParam id="3910" interp="linr"  time="0/1" value="0" leadInLength="0/1"  />
           </VectorParam>
          </Transformer>
          <Parameters>
           <VectorParam id="3911"  name="sourceCrop">
            <InterpolatingParam id="3912" interp="linr"  time="0/1" value="0" leadInLength="0/1"  />
            <InterpolatingParam id="3913" interp="linr"  time="0/1" value="0" leadInLength="0/1"  />
            <InterpolatingParam id="3914" interp="linr"  time="0/1" value="0" leadInLength="0/1"  />
            <InterpolatingParam id="3915" interp="linr"  time="0/1" value="0" leadInLength="0/1"  />
           </VectorParam>
           <VectorParam id="3916"  name="geometryCrop">
            <InterpolatingParam id="3917" interp="linr"  time="-9999999/1" value="0" leadInLength="0/1"  />
            <InterpolatingParam id="3918" interp="linr"  time="-9999999/1" value="0" leadInLength="0/1"  />
            <InterpolatingParam id="3919" interp="linr"  time="-9999999/1" value="0" leadInLength="0/1"  />
            <InterpolatingParam id="3920" interp="linr"  time="-9999999/1" value="0" leadInLength="0/1"  />
           </VectorParam>
           <InterpolatingParam id="3921" interp="linr"  time="-9999999/1" value="1" leadInLength="0/1"  name="opacity"/>
          </Parameters>
          <Attributes>
           <Attribute id="3922" value="" name="ident"/>
          </Attributes>
          <ExtraData>
           <Entry key="ZoomPanBin">
            <ZoomPanBin id="3923"  >
             <ZoomPanKeyframes>
              <ZoomPanKeyframe id="3924" timeRangeEnd="-9999999/1" timeRangeDuration="0/1" interpolaterName="linr"  />
             </ZoomPanKeyframes>
            </ZoomPanBin>
           </Entry>
          </ExtraData>
         </VMFile>
         <MetaData>
          <entry key="WinSubProjectDisplayName" val=""/>
         </MetaData>
        </UnifiedMedia>
        <UnifiedMedia id="3925"  >
         <AMFile id="3926" start="5774" duration="180" scalar="90/167" mediaStart="658/1" mediaDuration="334/1" trackNumber="1" src="23" channelNumber="0" >
          <Parameters>
           <InterpolatingParam id="3927" interp="linr"  name="volume">
            <Keyframes>
            <Keyframe id="3928"  time="-1/1" value="1" leadInLength="0/1"  />
            <Keyframe id="3929"  time="0/1" value="0" leadInLength="0/1"  />
            <Keyframe id="3930"  time="1119/1" value="0" leadInLength="0/1"  />
            <Keyframe id="3931"  time="1120/1" value="1" leadInLength="0/1"  />
            </Keyframes>
           </InterpolatingParam>
           <Parameter id="3932"  name="captions"/>
          </Parameters>
          <Attributes>
           <Attribute id="3933" value="" name="ident"/>
           <Attribute id="3934" value="48000" name="sampleRate"/>
           <Attribute id="3935" value="16" name="bitDepth"/>
           <Attribute id="3936" value="1" name="gain"/>
           <Attribute id="3937" value="0" name="mixToMono"/>
          </Attributes>
         </AMFile>
         <VMFile id="3938" start="5774" duration="180" scalar="90/167" mediaStart="658/1" mediaDuration="334/1" trackNumber="0" src="23" >
          <Transformer>
           <VectorParam id="3939"  name="translation">
            <InterpolatingParam id="3940" interp="linr"  time="-9999999/1" value="-110.60475064798476" leadInLength="0/1"  />
            <InterpolatingParam id="3941" interp="linr"  time="-9999999/1" value="186.99404761885222" leadInLength="0/1"  />
            <InterpolatingParam id="3942" interp="linr"  time="-9999999/1" value="-3.410605131648287e-010" leadInLength="0/1"  />
           </VectorParam>
           <VectorParam id="3943"  name="rotation">
            <InterpolatingParam id="3944" interp="linr"  time="-9999999/1" value="0" leadInLength="0/1"  />
            <InterpolatingParam id="3945" interp="linr"  time="-9999999/1" value="0" leadInLength="0/1"  />
            <InterpolatingParam id="3946" interp="linr"  time="-9999999/1" value="0" leadInLength="0/1"  />
           </VectorParam>
           <VectorParam id="3947"  name="shear">
            <InterpolatingParam id="3948" interp="linr"  time="-9999999/1" value="0" leadInLength="0/1"  />
            <InterpolatingParam id="3949" interp="linr"  time="-9999999/1" value="0" leadInLength="0/1"  />
            <InterpolatingParam id="3950" interp="linr"  time="-9999999/1" value="0" leadInLength="0/1"  />
           </VectorParam>
           <VectorParam id="3951"  name="scale">
            <InterpolatingParam id="3952" interp="linr"  time="-9999999/1" value="1.061100088183585" leadInLength="0/1"  />
            <InterpolatingParam id="3953" interp="linr"  time="-9999999/1" value="1.0611000881835855" leadInLength="0/1"  />
            <InterpolatingParam id="3954" interp="linr"  time="-9999999/1" value="1" leadInLength="0/1"  />
           </VectorParam>
           <VectorParam id="3955"  name="anchor">
            <InterpolatingParam id="3956" interp="linr"  time="0/1" value="0" leadInLength="0/1"  />
            <InterpolatingParam id="3957" interp="linr"  time="0/1" value="0" leadInLength="0/1"  />
            <InterpolatingParam id="3958" interp="linr"  time="0/1" value="0" leadInLength="0/1"  />
           </VectorParam>
          </Transformer>
          <Parameters>
           <VectorParam id="3959"  name="sourceCrop">
            <InterpolatingParam id="3960" interp="linr"  time="0/1" value="0" leadInLength="0/1"  />
            <InterpolatingParam id="3961" interp="linr"  time="0/1" value="0" leadInLength="0/1"  />
            <InterpolatingParam id="3962" interp="linr"  time="0/1" value="0" leadInLength="0/1"  />
            <InterpolatingParam id="3963" interp="linr"  time="0/1" value="0" leadInLength="0/1"  />
           </VectorParam>
           <VectorParam id="3964"  name="geometryCrop">
            <InterpolatingParam id="3965" interp="linr"  time="-9999999/1" value="0" leadInLength="0/1"  />
            <InterpolatingParam id="3966" interp="linr"  time="-9999999/1" value="0" leadInLength="0/1"  />
            <InterpolatingParam id="3967" interp="linr"  time="-9999999/1" value="0" leadInLength="0/1"  />
            <InterpolatingParam id="3968" interp="linr"  time="-9999999/1" value="0" leadInLength="0/1"  />
           </VectorParam>
           <InterpolatingParam id="3969" interp="linr"  time="-9999999/1" value="1" leadInLength="0/1"  name="opacity"/>
          </Parameters>
          <Attributes>
           <Attribute id="3970" value="" name="ident"/>
          </Attributes>
          <ExtraData>
           <Entry key="ZoomPanBin">
            <ZoomPanBin id="3971"  >
             <ZoomPanKeyframes>
              <ZoomPanKeyframe id="3972" timeRangeEnd="-9999999/1" timeRangeDuration="0/1" interpolaterName="linr"  />
             </ZoomPanKeyframes>
            </ZoomPanBin>
           </Entry>
          </ExtraData>
         </VMFile>
         <MetaData>
          <entry key="WinSubProjectDisplayName" val=""/>
         </MetaData>
        </UnifiedMedia>
        <UnifiedMedia id="3973"  >
         <AMFile id="3974" start="5954" duration="270" scalar="288152073/265158803" mediaStart="455/1" mediaDuration="2651588030/10672299" trackNumber="1" src="24" channelNumber="0" >
          <Parameters>
           <InterpolatingParam id="3975" interp="linr"  name="volume">
            <Keyframes>
            <Keyframe id="3976"  time="-1/1" value="1" leadInLength="0/1"  />
            <Keyframe id="3977"  time="0/1" value="0" leadInLength="0/1"  />
            <Keyframe id="3978"  time="1989/1" value="0" leadInLength="0/1"  />
            <Keyframe id="3979"  time="1990/1" value="1" leadInLength="0/1"  />
            </Keyframes>
           </InterpolatingParam>
           <Parameter id="3980"  name="captions"/>
          </Parameters>
          <Attributes>
           <Attribute id="3981" value="" name="ident"/>
           <Attribute id="3982" value="48000" name="sampleRate"/>
           <Attribute id="3983" value="16" name="bitDepth"/>
           <Attribute id="3984" value="1" name="gain"/>
           <Attribute id="3985" value="0" name="mixToMono"/>
          </Attributes>
         </AMFile>
         <VMFile id="3986" start="5954" duration="270" scalar="288152073/265158803" mediaStart="455/1" mediaDuration="2651588030/10672299" trackNumber="0" src="24" >
          <Transformer>
           <VectorParam id="3987"  name="translation">
            <InterpolatingParam id="3988" interp="linr"  time="-9999999/1" value="-112.13120567456131" leadInLength="0/1"  />
            <InterpolatingParam id="3989" interp="linr"  time="-9999999/1" value="186.65624999968878" leadInLength="0/1"  />
            <InterpolatingParam id="3990" interp="linr"  time="-9999999/1" value="1.1353053907290305e-022" leadInLength="0/1"  />
           </VectorParam>
           <VectorParam id="3991"  name="rotation">
            <InterpolatingParam id="3992" interp="linr"  time="-9999999/1" value="0" leadInLength="0/1"  />
            <InterpolatingParam id="3993" interp="linr"  time="-9999999/1" value="0" leadInLength="0/1"  />
            <InterpolatingParam id="3994" interp="linr"  time="-9999999/1" value="0" leadInLength="0/1"  />
           </VectorParam>
           <VectorParam id="3995"  name="shear">
            <InterpolatingParam id="3996" interp="linr"  time="-9999999/1" value="0" leadInLength="0/1"  />
            <InterpolatingParam id="3997" interp="linr"  time="-9999999/1" value="0" leadInLength="0/1"  />
            <InterpolatingParam id="3998" interp="linr"  time="-9999999/1" value="0" leadInLength="0/1"  />
           </VectorParam>
           <VectorParam id="3999"  name="scale">
            <InterpolatingParam id="4000" interp="linr"  time="-9999999/1" value="1.0543016975308059" leadInLength="0/1"  />
            <InterpolatingParam id="4001" interp="linr"  time="-9999999/1" value="1.0543016975308064" leadInLength="0/1"  />
            <InterpolatingParam id="4002" interp="linr"  time="-9999999/1" value="1" leadInLength="0/1"  />
           </VectorParam>
           <VectorParam id="4003"  name="anchor">
            <InterpolatingParam id="4004" interp="linr"  time="0/1" value="0" leadInLength="0/1"  />
            <InterpolatingParam id="4005" interp="linr"  time="0/1" value="0" leadInLength="0/1"  />
            <InterpolatingParam id="4006" interp="linr"  time="0/1" value="0" leadInLength="0/1"  />
           </VectorParam>
          </Transformer>
          <Parameters>
           <VectorParam id="4007"  name="sourceCrop">
            <InterpolatingParam id="4008" interp="linr"  time="0/1" value="0" leadInLength="0/1"  />
            <InterpolatingParam id="4009" interp="linr"  time="0/1" value="0" leadInLength="0/1"  />
            <InterpolatingParam id="4010" interp="linr"  time="0/1" value="0" leadInLength="0/1"  />
            <InterpolatingParam id="4011" interp="linr"  time="0/1" value="0" leadInLength="0/1"  />
           </VectorParam>
           <VectorParam id="4012"  name="geometryCrop">
            <InterpolatingParam id="4013" interp="linr"  time="-9999999/1" value="0" leadInLength="0/1"  />
            <InterpolatingParam id="4014" interp="linr"  time="-9999999/1" value="0" leadInLength="0/1"  />
            <InterpolatingParam id="4015" interp="linr"  time="-9999999/1" value="0" leadInLength="0/1"  />
            <InterpolatingParam id="4016" interp="linr"  time="-9999999/1" value="0" leadInLength="0/1"  />
           </VectorParam>
           <InterpolatingParam id="4017" interp="linr"  time="-9999999/1" value="1" leadInLength="0/1"  name="opacity"/>
          </Parameters>
          <Attributes>
           <Attribute id="4018" value="" name="ident"/>
          </Attributes>
          <ExtraData>
           <Entry key="ZoomPanBin">
            <ZoomPanBin id="4019"  >
             <ZoomPanKeyframes>
              <ZoomPanKeyframe id="4020" timeRangeEnd="-9999999/1" timeRangeDuration="0/1" interpolaterName="linr"  />
             </ZoomPanKeyframes>
            </ZoomPanBin>
           </Entry>
          </ExtraData>
         </VMFile>
         <MetaData>
          <entry key="WinSubProjectDisplayName" val=""/>
         </MetaData>
        </UnifiedMedia>
        <UnifiedMedia id="4021"  >
         <AMFile id="4022" start="6224" duration="146" scalar="54656629715/107236250394" mediaStart="2419082353051/2246162865" mediaDuration="214472500788/748720955" trackNumber="1" src="24" channelNumber="0" >
          <Parameters>
           <InterpolatingParam id="4023" interp="linr"  name="volume">
            <Keyframes>
            <Keyframe id="4024"  time="-1/1" value="1" leadInLength="0/1"  />
            <Keyframe id="4025"  time="0/1" value="0" leadInLength="0/1"  />
            <Keyframe id="4026"  time="1989/1" value="0" leadInLength="0/1"  />
            <Keyframe id="4027"  time="1990/1" value="1" leadInLength="0/1"  />
            </Keyframes>
           </InterpolatingParam>
           <Parameter id="4028"  name="captions"/>
          </Parameters>
          <Attributes>
           <Attribute id="4029" value="" name="ident"/>
           <Attribute id="4030" value="48000" name="sampleRate"/>
           <Attribute id="4031" value="16" name="bitDepth"/>
           <Attribute id="4032" value="1" name="gain"/>
           <Attribute id="4033" value="0" name="mixToMono"/>
          </Attributes>
         </AMFile>
         <VMFile id="4034" start="6224" duration="146" scalar="54656629715/107236250394" mediaStart="2419082353051/2246162865" mediaDuration="214472500788/748720955" trackNumber="0" src="24" >
          <Transformer>
           <VectorParam id="4035"  name="translation">
            <InterpolatingParam id="4036" interp="linr"  time="-9999999/1" value="-112.13120567456131" leadInLength="0/1"  />
            <InterpolatingParam id="4037" interp="linr"  time="-9999999/1" value="186.65624999968878" leadInLength="0/1"  />
            <InterpolatingParam id="4038" interp="linr"  time="-9999999/1" value="1.1353053907290305e-022" leadInLength="0/1"  />
           </VectorParam>
           <VectorParam id="4039"  name="rotation">
            <InterpolatingParam id="4040" interp="linr"  time="-9999999/1" value="0" leadInLength="0/1"  />
            <InterpolatingParam id="4041" interp="linr"  time="-9999999/1" value="0" leadInLength="0/1"  />
            <InterpolatingParam id="4042" interp="linr"  time="-9999999/1" value="0" leadInLength="0/1"  />
           </VectorParam>
           <VectorParam id="4043"  name="shear">
            <InterpolatingParam id="4044" interp="linr"  time="-9999999/1" value="0" leadInLength="0/1"  />
            <InterpolatingParam id="4045" interp="linr"  time="-9999999/1" value="0" leadInLength="0/1"  />
            <InterpolatingParam id="4046" interp="linr"  time="-9999999/1" value="0" leadInLength="0/1"  />
           </VectorParam>
           <VectorParam id="4047"  name="scale">
            <InterpolatingParam id="4048" interp="linr"  time="-9999999/1" value="1.0543016975308059" leadInLength="0/1"  />
            <InterpolatingParam id="4049" interp="linr"  time="-9999999/1" value="1.0543016975308064" leadInLength="0/1"  />
            <InterpolatingParam id="4050" interp="linr"  time="-9999999/1" value="1" leadInLength="0/1"  />
           </VectorParam>
           <VectorParam id="4051"  name="anchor">
            <InterpolatingParam id="4052" interp="linr"  time="0/1" value="0" leadInLength="0/1"  />
            <InterpolatingParam id="4053" interp="linr"  time="0/1" value="0" leadInLength="0/1"  />
            <InterpolatingParam id="4054" interp="linr"  time="0/1" value="0" leadInLength="0/1"  />
           </VectorParam>
          </Transformer>
          <Parameters>
           <VectorParam id="4055"  name="sourceCrop">
            <InterpolatingParam id="4056" interp="linr"  time="0/1" value="0" leadInLength="0/1"  />
            <InterpolatingParam id="4057" interp="linr"  time="0/1" value="0" leadInLength="0/1"  />
            <InterpolatingParam id="4058" interp="linr"  time="0/1" value="0" leadInLength="0/1"  />
            <InterpolatingParam id="4059" interp="linr"  time="0/1" value="0" leadInLength="0/1"  />
           </VectorParam>
           <VectorParam id="4060"  name="geometryCrop">
            <InterpolatingParam id="4061" interp="linr"  time="-9999999/1" value="0" leadInLength="0/1"  />
            <InterpolatingParam id="4062" interp="linr"  time="-9999999/1" value="0" leadInLength="0/1"  />
            <InterpolatingParam id="4063" interp="linr"  time="-9999999/1" value="0" leadInLength="0/1"  />
            <InterpolatingParam id="4064" interp="linr"  time="-9999999/1" value="0" leadInLength="0/1"  />
           </VectorParam>
           <InterpolatingParam id="4065" interp="linr"  time="-9999999/1" value="1" leadInLength="0/1"  name="opacity"/>
          </Parameters>
          <Attributes>
           <Attribute id="4066" value="" name="ident"/>
          </Attributes>
          <ExtraData>
           <Entry key="ZoomPanBin">
            <ZoomPanBin id="4067"  >
             <ZoomPanKeyframes>
              <ZoomPanKeyframe id="4068" timeRangeEnd="-9999999/1" timeRangeDuration="0/1" interpolaterName="linr"  />
             </ZoomPanKeyframes>
            </ZoomPanBin>
           </Entry>
          </ExtraData>
         </VMFile>
         <MetaData>
          <entry key="WinSubProjectDisplayName" val=""/>
         </MetaData>
        </UnifiedMedia>
        <UnifiedMedia id="4069"  >
         <AMFile id="4070" start="6370" duration="24" scalar="12492703575/18749358719" mediaStart="254501057629/181053675" mediaDuration="149994869752/4164234525" trackNumber="1" src="24" channelNumber="0" >
          <Parameters>
           <InterpolatingParam id="4071" interp="linr"  name="volume">
            <Keyframes>
            <Keyframe id="4072"  time="-1/1" value="1" leadInLength="0/1"  />
            <Keyframe id="4073"  time="0/1" value="0" leadInLength="0/1"  />
            <Keyframe id="4074"  time="1989/1" value="0" leadInLength="0/1"  />
            <Keyframe id="4075"  time="1990/1" value="1" leadInLength="0/1"  />
            </Keyframes>
           </InterpolatingParam>
           <Parameter id="4076"  name="captions"/>
          </Parameters>
          <Attributes>
           <Attribute id="4077" value="" name="ident"/>
           <Attribute id="4078" value="48000" name="sampleRate"/>
           <Attribute id="4079" value="16" name="bitDepth"/>
           <Attribute id="4080" value="1" name="gain"/>
           <Attribute id="4081" value="0" name="mixToMono"/>
          </Attributes>
         </AMFile>
         <VMFile id="4082" start="6370" duration="24" scalar="12492703575/18749358719" mediaStart="254501057629/181053675" mediaDuration="149994869752/4164234525" trackNumber="0" src="24" >
          <Transformer>
           <VectorParam id="4083"  name="translation">
            <InterpolatingParam id="4084" interp="linr"  time="-9999999/1" value="-112.13120567456131" leadInLength="0/1"  />
            <InterpolatingParam id="4085" interp="linr"  time="-9999999/1" value="186.65624999968878" leadInLength="0/1"  />
            <InterpolatingParam id="4086" interp="linr"  time="-9999999/1" value="1.1353053907290305e-022" leadInLength="0/1"  />
           </VectorParam>
           <VectorParam id="4087"  name="rotation">
            <InterpolatingParam id="4088" interp="linr"  time="-9999999/1" value="0" leadInLength="0/1"  />
            <InterpolatingParam id="4089" interp="linr"  time="-9999999/1" value="0" leadInLength="0/1"  />
            <InterpolatingParam id="4090" interp="linr"  time="-9999999/1" value="0" leadInLength="0/1"  />
           </VectorParam>
           <VectorParam id="4091"  name="shear">
            <InterpolatingParam id="4092" interp="linr"  time="-9999999/1" value="0" leadInLength="0/1"  />
            <InterpolatingParam id="4093" interp="linr"  time="-9999999/1" value="0" leadInLength="0/1"  />
            <InterpolatingParam id="4094" interp="linr"  time="-9999999/1" value="0" leadInLength="0/1"  />
           </VectorParam>
           <VectorParam id="4095"  name="scale">
            <InterpolatingParam id="4096" interp="linr"  time="-9999999/1" value="1.0543016975308059" leadInLength="0/1"  />
            <InterpolatingParam id="4097" interp="linr"  time="-9999999/1" value="1.0543016975308064" leadInLength="0/1"  />
            <InterpolatingParam id="4098" interp="linr"  time="-9999999/1" value="1" leadInLength="0/1"  />
           </VectorParam>
           <VectorParam id="4099"  name="anchor">
            <InterpolatingParam id="4100" interp="linr"  time="0/1" value="0" leadInLength="0/1"  />
            <InterpolatingParam id="4101" interp="linr"  time="0/1" value="0" leadInLength="0/1"  />
            <InterpolatingParam id="4102" interp="linr"  time="0/1" value="0" leadInLength="0/1"  />
           </VectorParam>
          </Transformer>
          <Parameters>
           <VectorParam id="4103"  name="sourceCrop">
            <InterpolatingParam id="4104" interp="linr"  time="0/1" value="0" leadInLength="0/1"  />
            <InterpolatingParam id="4105" interp="linr"  time="0/1" value="0" leadInLength="0/1"  />
            <InterpolatingParam id="4106" interp="linr"  time="0/1" value="0" leadInLength="0/1"  />
            <InterpolatingParam id="4107" interp="linr"  time="0/1" value="0" leadInLength="0/1"  />
           </VectorParam>
           <VectorParam id="4108"  name="geometryCrop">
            <InterpolatingParam id="4109" interp="linr"  time="-9999999/1" value="0" leadInLength="0/1"  />
            <InterpolatingParam id="4110" interp="linr"  time="-9999999/1" value="0" leadInLength="0/1"  />
            <InterpolatingParam id="4111" interp="linr"  time="-9999999/1" value="0" leadInLength="0/1"  />
            <InterpolatingParam id="4112" interp="linr"  time="-9999999/1" value="0" leadInLength="0/1"  />
           </VectorParam>
           <InterpolatingParam id="4113" interp="linr"  time="-9999999/1" value="1" leadInLength="0/1"  name="opacity"/>
          </Parameters>
          <Attributes>
           <Attribute id="4114" value="" name="ident"/>
          </Attributes>
          <ExtraData>
           <Entry key="ZoomPanBin">
            <ZoomPanBin id="4115"  >
             <ZoomPanKeyframes>
              <ZoomPanKeyframe id="4116" timeRangeEnd="-9999999/1" timeRangeDuration="0/1" interpolaterName="linr"  />
             </ZoomPanKeyframes>
            </ZoomPanBin>
           </Entry>
          </ExtraData>
         </VMFile>
         <MetaData>
          <entry key="WinSubProjectDisplayName" val=""/>
         </MetaData>
        </UnifiedMedia>
        <UnifiedMedia id="4117"  >
         <AMFile id="4118" start="6394" duration="89" scalar="18119047111/19893218800" mediaStart="2001173065073/1388078175" mediaDuration="19893218800/203584799" trackNumber="1" src="24" channelNumber="0" >
          <Parameters>
           <InterpolatingParam id="4119" interp="linr"  name="volume">
            <Keyframes>
            <Keyframe id="4120"  time="-1/1" value="1" leadInLength="0/1"  />
            <Keyframe id="4121"  time="0/1" value="0" leadInLength="0/1"  />
            <Keyframe id="4122"  time="1989/1" value="0" leadInLength="0/1"  />
            <Keyframe id="4123"  time="1990/1" value="1" leadInLength="0/1"  />
            </Keyframes>
           </InterpolatingParam>
           <Parameter id="4124"  name="captions"/>
          </Parameters>
          <Attributes>
           <Attribute id="4125" value="" name="ident"/>
           <Attribute id="4126" value="48000" name="sampleRate"/>
           <Attribute id="4127" value="16" name="bitDepth"/>
           <Attribute id="4128" value="1" name="gain"/>
           <Attribute id="4129" value="0" name="mixToMono"/>
          </Attributes>
         </AMFile>
         <VMFile id="4130" start="6394" duration="89" scalar="18119047111/19893218800" mediaStart="2001173065073/1388078175" mediaDuration="19893218800/203584799" trackNumber="0" src="24" >
          <Transformer>
           <VectorParam id="4131"  name="translation">
            <InterpolatingParam id="4132" interp="linr"  time="-9999999/1" value="-112.13120567456131" leadInLength="0/1"  />
            <InterpolatingParam id="4133" interp="linr"  time="-9999999/1" value="186.65624999968878" leadInLength="0/1"  />
            <InterpolatingParam id="4134" interp="linr"  time="-9999999/1" value="1.1353053907290305e-022" leadInLength="0/1"  />
           </VectorParam>
           <VectorParam id="4135"  name="rotation">
            <InterpolatingParam id="4136" interp="linr"  time="-9999999/1" value="0" leadInLength="0/1"  />
            <InterpolatingParam id="4137" interp="linr"  time="-9999999/1" value="0" leadInLength="0/1"  />
            <InterpolatingParam id="4138" interp="linr"  time="-9999999/1" value="0" leadInLength="0/1"  />
           </VectorParam>
           <VectorParam id="4139"  name="shear">
            <InterpolatingParam id="4140" interp="linr"  time="-9999999/1" value="0" leadInLength="0/1"  />
            <InterpolatingParam id="4141" interp="linr"  time="-9999999/1" value="0" leadInLength="0/1"  />
            <InterpolatingParam id="4142" interp="linr"  time="-9999999/1" value="0" leadInLength="0/1"  />
           </VectorParam>
           <VectorParam id="4143"  name="scale">
            <InterpolatingParam id="4144" interp="linr"  time="-9999999/1" value="1.0543016975308059" leadInLength="0/1"  />
            <InterpolatingParam id="4145" interp="linr"  time="-9999999/1" value="1.0543016975308064" leadInLength="0/1"  />
            <InterpolatingParam id="4146" interp="linr"  time="-9999999/1" value="1" leadInLength="0/1"  />
           </VectorParam>
           <VectorParam id="4147"  name="anchor">
            <InterpolatingParam id="4148" interp="linr"  time="0/1" value="0" leadInLength="0/1"  />
            <InterpolatingParam id="4149" interp="linr"  time="0/1" value="0" leadInLength="0/1"  />
            <InterpolatingParam id="4150" interp="linr"  time="0/1" value="0" leadInLength="0/1"  />
           </VectorParam>
          </Transformer>
          <Parameters>
           <VectorParam id="4151"  name="sourceCrop">
            <InterpolatingParam id="4152" interp="linr"  time="0/1" value="0" leadInLength="0/1"  />
            <InterpolatingParam id="4153" interp="linr"  time="0/1" value="0" leadInLength="0/1"  />
            <InterpolatingParam id="4154" interp="linr"  time="0/1" value="0" leadInLength="0/1"  />
            <InterpolatingParam id="4155" interp="linr"  time="0/1" value="0" leadInLength="0/1"  />
           </VectorParam>
           <VectorParam id="4156"  name="geometryCrop">
            <InterpolatingParam id="4157" interp="linr"  time="-9999999/1" value="0" leadInLength="0/1"  />
            <InterpolatingParam id="4158" interp="linr"  time="-9999999/1" value="0" leadInLength="0/1"  />
            <InterpolatingParam id="4159" interp="linr"  time="-9999999/1" value="0" leadInLength="0/1"  />
            <InterpolatingParam id="4160" interp="linr"  time="-9999999/1" value="0" leadInLength="0/1"  />
           </VectorParam>
           <InterpolatingParam id="4161" interp="linr"  time="-9999999/1" value="1" leadInLength="0/1"  name="opacity"/>
          </Parameters>
          <Attributes>
           <Attribute id="4162" value="" name="ident"/>
          </Attributes>
          <ExtraData>
           <Entry key="ZoomPanBin">
            <ZoomPanBin id="4163"  >
             <ZoomPanKeyframes>
              <ZoomPanKeyframe id="4164" timeRangeEnd="-9999999/1" timeRangeDuration="0/1" interpolaterName="linr"  />
             </ZoomPanKeyframes>
            </ZoomPanBin>
           </Entry>
          </ExtraData>
         </VMFile>
         <MetaData>
          <entry key="WinSubProjectDisplayName" val=""/>
         </MetaData>
        </UnifiedMedia>
        <UnifiedMedia id="4165"  >
         <AMFile id="4166" start="6483" duration="125" scalar="203584799/397864376" mediaStart="25444483958803/15268859925" mediaDuration="49733047000/203584799" trackNumber="1" src="24" channelNumber="0" >
          <Parameters>
           <InterpolatingParam id="4167" interp="linr"  name="volume">
            <Keyframes>
            <Keyframe id="4168"  time="-1/1" value="1" leadInLength="0/1"  />
            <Keyframe id="4169"  time="0/1" value="0" leadInLength="0/1"  />
            <Keyframe id="4170"  time="1989/1" value="0" leadInLength="0/1"  />
            <Keyframe id="4171"  time="1990/1" value="1" leadInLength="0/1"  />
            </Keyframes>
           </InterpolatingParam>
           <Parameter id="4172"  name="captions"/>
          </Parameters>
          <Attributes>
           <Attribute id="4173" value="" name="ident"/>
           <Attribute id="4174" value="48000" name="sampleRate"/>
           <Attribute id="4175" value="16" name="bitDepth"/>
           <Attribute id="4176" value="1" name="gain"/>
           <Attribute id="4177" value="0" name="mixToMono"/>
          </Attributes>
         </AMFile>
         <VMFile id="4178" start="6483" duration="125" scalar="203584799/397864376" mediaStart="25444483958803/15268859925" mediaDuration="49733047000/203584799" trackNumber="0" src="24" >
          <Transformer>
           <VectorParam id="4179"  name="translation">
            <InterpolatingParam id="4180" interp="linr"  time="-9999999/1" value="-112.13120567456131" leadInLength="0/1"  />
            <InterpolatingParam id="4181" interp="linr"  time="-9999999/1" value="186.65624999968878" leadInLength="0/1"  />
            <InterpolatingParam id="4182" interp="linr"  time="-9999999/1" value="1.1353053907290305e-022" leadInLength="0/1"  />
           </VectorParam>
           <VectorParam id="4183"  name="rotation">
            <InterpolatingParam id="4184" interp="linr"  time="-9999999/1" value="0" leadInLength="0/1"  />
            <InterpolatingParam id="4185" interp="linr"  time="-9999999/1" value="0" leadInLength="0/1"  />
            <InterpolatingParam id="4186" interp="linr"  time="-9999999/1" value="0" leadInLength="0/1"  />
           </VectorParam>
           <VectorParam id="4187"  name="shear">
            <InterpolatingParam id="4188" interp="linr"  time="-9999999/1" value="0" leadInLength="0/1"  />
            <InterpolatingParam id="4189" interp="linr"  time="-9999999/1" value="0" leadInLength="0/1"  />
            <InterpolatingParam id="4190" interp="linr"  time="-9999999/1" value="0" leadInLength="0/1"  />
           </VectorParam>
           <VectorParam id="4191"  name="scale">
            <InterpolatingParam id="4192" interp="linr"  time="-9999999/1" value="1.0543016975308059" leadInLength="0/1"  />
            <InterpolatingParam id="4193" interp="linr"  time="-9999999/1" value="1.0543016975308064" leadInLength="0/1"  />
            <InterpolatingParam id="4194" interp="linr"  time="-9999999/1" value="1" leadInLength="0/1"  />
           </VectorParam>
           <VectorParam id="4195"  name="anchor">
            <InterpolatingParam id="4196" interp="linr"  time="0/1" value="0" leadInLength="0/1"  />
            <InterpolatingParam id="4197" interp="linr"  time="0/1" value="0" leadInLength="0/1"  />
            <InterpolatingParam id="4198" interp="linr"  time="0/1" value="0" leadInLength="0/1"  />
           </VectorParam>
          </Transformer>
          <Parameters>
           <VectorParam id="4199"  name="sourceCrop">
            <InterpolatingParam id="4200" interp="linr"  time="0/1" value="0" leadInLength="0/1"  />
            <InterpolatingParam id="4201" interp="linr"  time="0/1" value="0" leadInLength="0/1"  />
            <InterpolatingParam id="4202" interp="linr"  time="0/1" value="0" leadInLength="0/1"  />
            <InterpolatingParam id="4203" interp="linr"  time="0/1" value="0" leadInLength="0/1"  />
           </VectorParam>
           <VectorParam id="4204"  name="geometryCrop">
            <InterpolatingParam id="4205" interp="linr"  time="-9999999/1" value="0" leadInLength="0/1"  />
            <InterpolatingParam id="4206" interp="linr"  time="-9999999/1" value="0" leadInLength="0/1"  />
            <InterpolatingParam id="4207" interp="linr"  time="-9999999/1" value="0" leadInLength="0/1"  />
            <InterpolatingParam id="4208" interp="linr"  time="-9999999/1" value="0" leadInLength="0/1"  />
           </VectorParam>
           <InterpolatingParam id="4209" interp="linr"  time="-9999999/1" value="1" leadInLength="0/1"  name="opacity"/>
          </Parameters>
          <Attributes>
           <Attribute id="4210" value="" name="ident"/>
          </Attributes>
          <ExtraData>
           <Entry key="ZoomPanBin">
            <ZoomPanBin id="4211"  >
             <ZoomPanKeyframes>
              <ZoomPanKeyframe id="4212" timeRangeEnd="-9999999/1" timeRangeDuration="0/1" interpolaterName="linr"  />
             </ZoomPanKeyframes>
            </ZoomPanBin>
           </Entry>
          </ExtraData>
         </VMFile>
         <MetaData>
          <entry key="WinSubProjectDisplayName" val=""/>
         </MetaData>
        </UnifiedMedia>
        <UnifiedMedia id="4213"  >
         <AMFile id="4214" start="6608" duration="54" scalar="54/107" mediaStart="87/1" mediaDuration="107/1" trackNumber="1" src="25" channelNumber="0" >
          <Parameters>
           <InterpolatingParam id="4215" interp="linr"  name="volume">
            <Keyframes>
            <Keyframe id="4216"  time="-1/1" value="1" leadInLength="0/1"  />
            <Keyframe id="4217"  time="0/1" value="0" leadInLength="0/1"  />
            <Keyframe id="4218"  time="1707/1" value="0" leadInLength="0/1"  />
            <Keyframe id="4219"  time="1708/1" value="1" leadInLength="0/1"  />
            </Keyframes>
           </InterpolatingParam>
           <Parameter id="4220"  name="captions"/>
          </Parameters>
          <Attributes>
           <Attribute id="4221" value="" name="ident"/>
           <Attribute id="4222" value="44100" name="sampleRate"/>
           <Attribute id="4223" value="16" name="bitDepth"/>
           <Attribute id="4224" value="1" name="gain"/>
           <Attribute id="4225" value="0" name="mixToMono"/>
          </Attributes>
         </AMFile>
         <VMFile id="4226" start="6608" duration="54" scalar="54/107" mediaStart="87/1" mediaDuration="107/1" trackNumber="0" src="25" >
          <Transformer>
           <VectorParam id="4227"  name="translation">
            <InterpolatingParam id="4228" interp="linr"  time="-9999999/1" value="-86.130417652112584" leadInLength="0/1"  />
            <InterpolatingParam id="4229" interp="linr"  time="-9999999/1" value="223.94835992917251" leadInLength="0/1"  />
            <InterpolatingParam id="4230" interp="linr"  time="-9999999/1" value="0" leadInLength="0/1"  />
           </VectorParam>
           <VectorParam id="4231"  name="rotation">
            <InterpolatingParam id="4232" interp="linr"  time="-9999999/1" value="0" leadInLength="0/1"  />
            <InterpolatingParam id="4233" interp="linr"  time="-9999999/1" value="0" leadInLength="0/1"  />
            <InterpolatingParam id="4234" interp="linr"  time="-9999999/1" value="0" leadInLength="0/1"  />
           </VectorParam>
           <VectorParam id="4235"  name="shear">
            <InterpolatingParam id="4236" interp="linr"  time="-9999999/1" value="0" leadInLength="0/1"  />
            <InterpolatingParam id="4237" interp="linr"  time="-9999999/1" value="0" leadInLength="0/1"  />
            <InterpolatingParam id="4238" interp="linr"  time="-9999999/1" value="0" leadInLength="0/1"  />
           </VectorParam>
           <VectorParam id="4239"  name="scale">
            <InterpolatingParam id="4240" interp="linr"  time="-9999999/1" value="1.0813858517210821" leadInLength="0/1"  />
            <InterpolatingParam id="4241" interp="linr"  time="-9999999/1" value="1.0813858517210824" leadInLength="0/1"  />
            <InterpolatingParam id="4242" interp="linr"  time="-9999999/1" value="1" leadInLength="0/1"  />
           </VectorParam>
           <VectorParam id="4243"  name="anchor">
            <InterpolatingParam id="4244" interp="linr"  time="0/1" value="0" leadInLength="0/1"  />
            <InterpolatingParam id="4245" interp="linr"  time="0/1" value="0" leadInLength="0/1"  />
            <InterpolatingParam id="4246" interp="linr"  time="0/1" value="0" leadInLength="0/1"  />
           </VectorParam>
          </Transformer>
          <Parameters>
           <VectorParam id="4247"  name="sourceCrop">
            <InterpolatingParam id="4248" interp="linr"  time="0/1" value="0" leadInLength="0/1"  />
            <InterpolatingParam id="4249" interp="linr"  time="0/1" value="0" leadInLength="0/1"  />
            <InterpolatingParam id="4250" interp="linr"  time="0/1" value="0" leadInLength="0/1"  />
            <InterpolatingParam id="4251" interp="linr"  time="0/1" value="0" leadInLength="0/1"  />
           </VectorParam>
           <VectorParam id="4252"  name="geometryCrop">
            <InterpolatingParam id="4253" interp="linr"  time="-9999999/1" value="0" leadInLength="0/1"  />
            <InterpolatingParam id="4254" interp="linr"  time="-9999999/1" value="0" leadInLength="0/1"  />
            <InterpolatingParam id="4255" interp="linr"  time="-9999999/1" value="0" leadInLength="0/1"  />
            <InterpolatingParam id="4256" interp="linr"  time="-9999999/1" value="0" leadInLength="0/1"  />
           </VectorParam>
           <InterpolatingParam id="4257" interp="linr"  time="-9999999/1" value="1" leadInLength="0/1"  name="opacity"/>
          </Parameters>
          <Attributes>
           <Attribute id="4258" value="" name="ident"/>
          </Attributes>
          <ExtraData>
           <Entry key="ZoomPanBin">
            <ZoomPanBin id="4259"  >
             <ZoomPanKeyframes>
              <ZoomPanKeyframe id="4260" timeRangeEnd="-9999999/1" timeRangeDuration="0/1" interpolaterName="linr"  />
             </ZoomPanKeyframes>
            </ZoomPanBin>
           </Entry>
          </ExtraData>
         </VMFile>
         <MetaData>
          <entry key="WinSubProjectDisplayName" val=""/>
         </MetaData>
        </UnifiedMedia>
        <StitchedMedia id="4261" start="6662" duration="153" scalar="1364620/686553" mediaStart="9028/31" mediaDuration="105042609/1364620" minMediaStart="0/1" >
         <Transformer>
          <VectorParam id="4262"  name="translation">
           <InterpolatingParam id="4263" interp="linr"  time="-9999999/1" value="-36.857142857101223" leadInLength="0/1"  />
           <InterpolatingParam id="4264" interp="linr"  time="-9999999/1" value="196.2321428573905" leadInLength="0/1"  />
           <InterpolatingParam id="4265" interp="linr"  time="-9999999/1" value="0" leadInLength="0/1"  />
          </VectorParam>
          <VectorParam id="4266"  name="rotation">
           <InterpolatingParam id="4267" interp="linr"  time="-9999999/1" value="0" leadInLength="0/1"  />
           <InterpolatingParam id="4268" interp="linr"  time="-9999999/1" value="0" leadInLength="0/1"  />
           <InterpolatingParam id="4269" interp="linr"  time="-9999999/1" value="0" leadInLength="0/1"  />
          </VectorParam>
          <VectorParam id="4270"  name="shear">
           <InterpolatingParam id="4271" interp="linr"  time="-9999999/1" value="0" leadInLength="0/1"  />
           <InterpolatingParam id="4272" interp="linr"  time="-9999999/1" value="0" leadInLength="0/1"  />
           <InterpolatingParam id="4273" interp="linr"  time="-9999999/1" value="0" leadInLength="0/1"  />
          </VectorParam>
          <VectorParam id="4274"  name="scale">
           <InterpolatingParam id="4275" interp="linr"  time="-9999999/1" value="1.0300595238099823" leadInLength="0/1"  />
           <InterpolatingParam id="4276" interp="linr"  time="-9999999/1" value="1.0300595238099826" leadInLength="0/1"  />
           <InterpolatingParam id="4277" interp="linr"  time="-9999999/1" value="1" leadInLength="0/1"  />
          </VectorParam>
          <VectorParam id="4278"  name="anchor">
           <InterpolatingParam id="4279" interp="linr"  time="0/1" value="0" leadInLength="0/1"  />
           <InterpolatingParam id="4280" interp="linr"  time="0/1" value="0" leadInLength="0/1"  />
           <InterpolatingParam id="4281" interp="linr"  time="0/1" value="0" leadInLength="0/1"  />
          </VectorParam>
         </Transformer>
         <Parameters>
          <VectorParam id="4282"  name="sourceCrop">
           <InterpolatingParam id="4283" interp="linr"  time="0/1" value="0" leadInLength="0/1"  />
           <InterpolatingParam id="4284" interp="linr"  time="0/1" value="0" leadInLength="0/1"  />
           <InterpolatingParam id="4285" interp="linr"  time="0/1" value="0" leadInLength="0/1"  />
           <InterpolatingParam id="4286" interp="linr"  time="0/1" value="0" leadInLength="0/1"  />
          </VectorParam>
          <VectorParam id="4287"  name="geometryCrop">
           <InterpolatingParam id="4288" interp="linr"  time="-9999999/1" value="0" leadInLength="0/1"  />
           <InterpolatingParam id="4289" interp="linr"  time="-9999999/1" value="0" leadInLength="0/1"  />
           <InterpolatingParam id="4290" interp="linr"  time="-9999999/1" value="0" leadInLength="0/1"  />
           <InterpolatingParam id="4291" interp="linr"  time="-9999999/1" value="0" leadInLength="0/1"  />
          </VectorParam>
          <InterpolatingParam id="4292" interp="linr"  time="-9999999/1" value="1" leadInLength="0/1"  name="opacity"/>
          <InterpolatingParam id="4293" interp="linr"  time="0/1" value="1" leadInLength="0/1"  name="cursorOpacity"/>
          <InterpolatingParam id="4294" interp="linr"  time="0/1" value="1" leadInLength="0/1"  name="cursorScale"/>
          <InterpolatingParam id="4295" interp="linr"  name="volume">
           <Keyframes>
           <Keyframe id="4296"  time="-1/1" value="1" leadInLength="0/1"  />
           <Keyframe id="4297"  time="0/1" value="0" leadInLength="0/1"  />
           <Keyframe id="4298"  time="2435356789/1582519" value="0" leadInLength="0/1"  />
           <Keyframe id="4299"  time="2436939308/1582519" value="1" leadInLength="0/1"  />
           </Keyframes>
          </InterpolatingParam>
          <Parameter id="4300"  name="captions"/>
         </Parameters>
         <Attributes>
          <Attribute id="4301" value="" name="ident"/>
          <Attribute id="4302" value="0" name="mixToMono"/>
         </Attributes>
         <MetaData>
          <entry key="WinSubProjectDisplayName" val=""/>
         </MetaData>
         <ExtraData>
          <Entry key="ZoomPanBin">
           <ZoomPanBin id="4303"  >
            <ZoomPanKeyframes>
             <ZoomPanKeyframe id="4304" timeRangeEnd="-9999999/1" timeRangeDuration="0/1" interpolaterName="linr"  />
            </ZoomPanKeyframes>
           </ZoomPanBin>
          </Entry>
          <Entry key="CursorEffectBin">
           <CursorEffectBin id="4305"  >
            <CursorEffectKeyframes>
            </CursorEffectKeyframes>
           </CursorEffectBin>
          </Entry>
         </ExtraData>
         <GenericTrack id="4306"  >
          <Attributes>
           <Attribute id="4307" value="" name="ident"/>
           <Attribute id="4308" value="0" name="audioMuted"/>
           <Attribute id="4309" value="0" name="videoHidden"/>
          </Attributes>
          <MetaData>
           <entry key="IsLocked" val="False"/>
           <entry key="WinTrackHeight" val="0"/>
          </MetaData>
          <Medias>
           <UnifiedMedia id="4310"  >
            <AMFile id="4311" start="0" duration="352" scalar="1/1" mediaStart="0/1" mediaDuration="352/1" trackNumber="1" src="25" channelNumber="0" >
             <Parameters>
              <InterpolatingParam id="4312" interp="linr"  time="0/1" value="1" leadInLength="0/1"  name="volume"/>
              <Parameter id="4313"  name="captions"/>
             </Parameters>
             <Attributes>
              <Attribute id="4314" value="" name="ident"/>
              <Attribute id="4315" value="44100" name="sampleRate"/>
              <Attribute id="4316" value="16" name="bitDepth"/>
              <Attribute id="4317" value="1" name="gain"/>
              <Attribute id="4318" value="0" name="mixToMono"/>
             </Attributes>
            </AMFile>
            <VMFile id="4319" start="0" duration="352" scalar="1/1" mediaStart="0/1" mediaDuration="352/1" trackNumber="0" src="25" >
             <Transformer>
              <VectorParam id="4320"  name="translation">
               <InterpolatingParam id="4321" interp="linr"  time="-9999999/1" value="0" leadInLength="0/1"  />
               <InterpolatingParam id="4322" interp="linr"  time="-9999999/1" value="0" leadInLength="0/1"  />
               <InterpolatingParam id="4323" interp="linr"  time="-9999999/1" value="0" leadInLength="0/1"  />
              </VectorParam>
              <VectorParam id="4324"  name="rotation">
               <InterpolatingParam id="4325" interp="linr"  time="-9999999/1" value="0" leadInLength="0/1"  />
               <InterpolatingParam id="4326" interp="linr"  time="-9999999/1" value="0" leadInLength="0/1"  />
               <InterpolatingParam id="4327" interp="linr"  time="-9999999/1" value="0" leadInLength="0/1"  />
              </VectorParam>
              <VectorParam id="4328"  name="shear">
               <InterpolatingParam id="4329" interp="linr"  time="-9999999/1" value="0" leadInLength="0/1"  />
               <InterpolatingParam id="4330" interp="linr"  time="-9999999/1" value="0" leadInLength="0/1"  />
               <InterpolatingParam id="4331" interp="linr"  time="-9999999/1" value="0" leadInLength="0/1"  />
              </VectorParam>
              <VectorParam id="4332"  name="scale">
               <InterpolatingParam id="4333" interp="linr"  time="-9999999/1" value="1" leadInLength="0/1"  />
               <InterpolatingParam id="4334" interp="linr"  time="-9999999/1" value="1" leadInLength="0/1"  />
               <InterpolatingParam id="4335" interp="linr"  time="-9999999/1" value="1" leadInLength="0/1"  />
              </VectorParam>
              <VectorParam id="4336"  name="anchor">
               <InterpolatingParam id="4337" interp="linr"  time="0/1" value="0" leadInLength="0/1"  />
               <InterpolatingParam id="4338" interp="linr"  time="0/1" value="0" leadInLength="0/1"  />
               <InterpolatingParam id="4339" interp="linr"  time="0/1" value="0" leadInLength="0/1"  />
              </VectorParam>
             </Transformer>
             <Parameters>
              <VectorParam id="4340"  name="sourceCrop">
               <InterpolatingParam id="4341" interp="linr"  time="0/1" value="0" leadInLength="0/1"  />
               <InterpolatingParam id="4342" interp="linr"  time="0/1" value="0" leadInLength="0/1"  />
               <InterpolatingParam id="4343" interp="linr"  time="0/1" value="0" leadInLength="0/1"  />
               <InterpolatingParam id="4344" interp="linr"  time="0/1" value="0" leadInLength="0/1"  />
              </VectorParam>
              <VectorParam id="4345"  name="geometryCrop">
               <InterpolatingParam id="4346" interp="linr"  time="-9999999/1" value="0" leadInLength="0/1"  />
               <InterpolatingParam id="4347" interp="linr"  time="-9999999/1" value="0" leadInLength="0/1"  />
               <InterpolatingParam id="4348" interp="linr"  time="-9999999/1" value="0" leadInLength="0/1"  />
               <InterpolatingParam id="4349" interp="linr"  time="-9999999/1" value="0" leadInLength="0/1"  />
              </VectorParam>
              <InterpolatingParam id="4350" interp="linr"  time="-9999999/1" value="1" leadInLength="0/1"  name="opacity"/>
             </Parameters>
             <Attributes>
              <Attribute id="4351" value="" name="ident"/>
             </Attributes>
             <ExtraData>
              <Entry key="ZoomPanBin">
               <ZoomPanBin id="4352"  >
                <ZoomPanKeyframes>
                 <ZoomPanKeyframe id="4353" timeRangeEnd="-9999999/1" timeRangeDuration="0/1" interpolaterName="linr"  />
                </ZoomPanKeyframes>
               </ZoomPanBin>
              </Entry>
             </ExtraData>
            </VMFile>
            <MetaData>
             <entry key="WinSubProjectDisplayName" val=""/>
            </MetaData>
           </UnifiedMedia>
           <UnifiedMedia id="4354"  >
            <AMFile id="4355" start="352" duration="78" scalar="1/1" mediaStart="467/1" mediaDuration="78/1" trackNumber="1" src="25" channelNumber="0" >
             <Parameters>
              <InterpolatingParam id="4356" interp="linr"  time="0/1" value="1" leadInLength="0/1"  name="volume"/>
              <Parameter id="4357"  name="captions"/>
             </Parameters>
             <Attributes>
              <Attribute id="4358" value="" name="ident"/>
              <Attribute id="4359" value="44100" name="sampleRate"/>
              <Attribute id="4360" value="16" name="bitDepth"/>
              <Attribute id="4361" value="1" name="gain"/>
              <Attribute id="4362" value="0" name="mixToMono"/>
             </Attributes>
            </AMFile>
            <VMFile id="4363" start="352" duration="78" scalar="1/1" mediaStart="467/1" mediaDuration="78/1" trackNumber="0" src="25" >
             <Transformer>
              <VectorParam id="4364"  name="translation">
               <InterpolatingParam id="4365" interp="linr"  time="-9999999/1" value="0" leadInLength="0/1"  />
               <InterpolatingParam id="4366" interp="linr"  time="-9999999/1" value="0" leadInLength="0/1"  />
               <InterpolatingParam id="4367" interp="linr"  time="-9999999/1" value="0" leadInLength="0/1"  />
              </VectorParam>
              <VectorParam id="4368"  name="rotation">
               <InterpolatingParam id="4369" interp="linr"  time="-9999999/1" value="0" leadInLength="0/1"  />
               <InterpolatingParam id="4370" interp="linr"  time="-9999999/1" value="0" leadInLength="0/1"  />
               <InterpolatingParam id="4371" interp="linr"  time="-9999999/1" value="0" leadInLength="0/1"  />
              </VectorParam>
              <VectorParam id="4372"  name="shear">
               <InterpolatingParam id="4373" interp="linr"  time="-9999999/1" value="0" leadInLength="0/1"  />
               <InterpolatingParam id="4374" interp="linr"  time="-9999999/1" value="0" leadInLength="0/1"  />
               <InterpolatingParam id="4375" interp="linr"  time="-9999999/1" value="0" leadInLength="0/1"  />
              </VectorParam>
              <VectorParam id="4376"  name="scale">
               <InterpolatingParam id="4377" interp="linr"  time="-9999999/1" value="1" leadInLength="0/1"  />
               <InterpolatingParam id="4378" interp="linr"  time="-9999999/1" value="1" leadInLength="0/1"  />
               <InterpolatingParam id="4379" interp="linr"  time="-9999999/1" value="1" leadInLength="0/1"  />
              </VectorParam>
              <VectorParam id="4380"  name="anchor">
               <InterpolatingParam id="4381" interp="linr"  time="0/1" value="0" leadInLength="0/1"  />
               <InterpolatingParam id="4382" interp="linr"  time="0/1" value="0" leadInLength="0/1"  />
               <InterpolatingParam id="4383" interp="linr"  time="0/1" value="0" leadInLength="0/1"  />
              </VectorParam>
             </Transformer>
             <Parameters>
              <VectorParam id="4384"  name="sourceCrop">
               <InterpolatingParam id="4385" interp="linr"  time="0/1" value="0" leadInLength="0/1"  />
               <InterpolatingParam id="4386" interp="linr"  time="0/1" value="0" leadInLength="0/1"  />
               <InterpolatingParam id="4387" interp="linr"  time="0/1" value="0" leadInLength="0/1"  />
               <InterpolatingParam id="4388" interp="linr"  time="0/1" value="0" leadInLength="0/1"  />
              </VectorParam>
              <VectorParam id="4389"  name="geometryCrop">
               <InterpolatingParam id="4390" interp="linr"  time="-9999999/1" value="0" leadInLength="0/1"  />
               <InterpolatingParam id="4391" interp="linr"  time="-9999999/1" value="0" leadInLength="0/1"  />
               <InterpolatingParam id="4392" interp="linr"  time="-9999999/1" value="0" leadInLength="0/1"  />
               <InterpolatingParam id="4393" interp="linr"  time="-9999999/1" value="0" leadInLength="0/1"  />
              </VectorParam>
              <InterpolatingParam id="4394" interp="linr"  time="-9999999/1" value="1" leadInLength="0/1"  name="opacity"/>
             </Parameters>
             <Attributes>
              <Attribute id="4395" value="" name="ident"/>
             </Attributes>
             <ExtraData>
              <Entry key="ZoomPanBin">
               <ZoomPanBin id="4396"  >
                <ZoomPanKeyframes>
                 <ZoomPanKeyframe id="4397" timeRangeEnd="-9999999/1" timeRangeDuration="0/1" interpolaterName="linr"  />
                </ZoomPanKeyframes>
               </ZoomPanBin>
              </Entry>
             </ExtraData>
            </VMFile>
            <MetaData>
             <entry key="WinSubProjectDisplayName" val=""/>
            </MetaData>
           </UnifiedMedia>
           <UnifiedMedia id="4398"  >
            <AMFile id="4399" start="430" duration="1109" scalar="1/1" mediaStart="596/1" mediaDuration="1109/1" trackNumber="1" src="25" channelNumber="0" >
             <Parameters>
              <InterpolatingParam id="4400" interp="linr"  time="0/1" value="1" leadInLength="0/1"  name="volume"/>
              <Parameter id="4401"  name="captions"/>
             </Parameters>
             <Attributes>
              <Attribute id="4402" value="" name="ident"/>
              <Attribute id="4403" value="44100" name="sampleRate"/>
              <Attribute id="4404" value="16" name="bitDepth"/>
              <Attribute id="4405" value="1" name="gain"/>
              <Attribute id="4406" value="0" name="mixToMono"/>
             </Attributes>
            </AMFile>
            <VMFile id="4407" start="430" duration="1109" scalar="1/1" mediaStart="596/1" mediaDuration="1109/1" trackNumber="0" src="25" >
             <Transformer>
              <VectorParam id="4408"  name="translation">
               <InterpolatingParam id="4409" interp="linr"  time="-9999999/1" value="0" leadInLength="0/1"  />
               <InterpolatingParam id="4410" interp="linr"  time="-9999999/1" value="0" leadInLength="0/1"  />
               <InterpolatingParam id="4411" interp="linr"  time="-9999999/1" value="0" leadInLength="0/1"  />
              </VectorParam>
              <VectorParam id="4412"  name="rotation">
               <InterpolatingParam id="4413" interp="linr"  time="-9999999/1" value="0" leadInLength="0/1"  />
               <InterpolatingParam id="4414" interp="linr"  time="-9999999/1" value="0" leadInLength="0/1"  />
               <InterpolatingParam id="4415" interp="linr"  time="-9999999/1" value="0" leadInLength="0/1"  />
              </VectorParam>
              <VectorParam id="4416"  name="shear">
               <InterpolatingParam id="4417" interp="linr"  time="-9999999/1" value="0" leadInLength="0/1"  />
               <InterpolatingParam id="4418" interp="linr"  time="-9999999/1" value="0" leadInLength="0/1"  />
               <InterpolatingParam id="4419" interp="linr"  time="-9999999/1" value="0" leadInLength="0/1"  />
              </VectorParam>
              <VectorParam id="4420"  name="scale">
               <InterpolatingParam id="4421" interp="linr"  time="-9999999/1" value="1" leadInLength="0/1"  />
               <InterpolatingParam id="4422" interp="linr"  time="-9999999/1" value="1" leadInLength="0/1"  />
               <InterpolatingParam id="4423" interp="linr"  time="-9999999/1" value="1" leadInLength="0/1"  />
              </VectorParam>
              <VectorParam id="4424"  name="anchor">
               <InterpolatingParam id="4425" interp="linr"  time="0/1" value="0" leadInLength="0/1"  />
               <InterpolatingParam id="4426" interp="linr"  time="0/1" value="0" leadInLength="0/1"  />
               <InterpolatingParam id="4427" interp="linr"  time="0/1" value="0" leadInLength="0/1"  />
              </VectorParam>
             </Transformer>
             <Parameters>
              <VectorParam id="4428"  name="sourceCrop">
               <InterpolatingParam id="4429" interp="linr"  time="0/1" value="0" leadInLength="0/1"  />
               <InterpolatingParam id="4430" interp="linr"  time="0/1" value="0" leadInLength="0/1"  />
               <InterpolatingParam id="4431" interp="linr"  time="0/1" value="0" leadInLength="0/1"  />
               <InterpolatingParam id="4432" interp="linr"  time="0/1" value="0" leadInLength="0/1"  />
              </VectorParam>
              <VectorParam id="4433"  name="geometryCrop">
               <InterpolatingParam id="4434" interp="linr"  time="-9999999/1" value="0" leadInLength="0/1"  />
               <InterpolatingParam id="4435" interp="linr"  time="-9999999/1" value="0" leadInLength="0/1"  />
               <InterpolatingParam id="4436" interp="linr"  time="-9999999/1" value="0" leadInLength="0/1"  />
               <InterpolatingParam id="4437" interp="linr"  time="-9999999/1" value="0" leadInLength="0/1"  />
              </VectorParam>
              <InterpolatingParam id="4438" interp="linr"  time="-9999999/1" value="1" leadInLength="0/1"  name="opacity"/>
             </Parameters>
             <Attributes>
              <Attribute id="4439" value="" name="ident"/>
             </Attributes>
             <ExtraData>
              <Entry key="ZoomPanBin">
               <ZoomPanBin id="4440"  >
                <ZoomPanKeyframes>
                 <ZoomPanKeyframe id="4441" timeRangeEnd="-9999999/1" timeRangeDuration="0/1" interpolaterName="linr"  />
                </ZoomPanKeyframes>
               </ZoomPanBin>
              </Entry>
             </ExtraData>
            </VMFile>
            <MetaData>
             <entry key="WinSubProjectDisplayName" val=""/>
            </MetaData>
           </UnifiedMedia>
          </Medias>
         </GenericTrack>
        </StitchedMedia>
        <StitchedMedia id="4442" start="6815" duration="82" scalar="6658025/5263573" mediaStart="3584198539/6658025" mediaDuration="431612986/6658025" minMediaStart="0/1" >
         <Transformer>
          <VectorParam id="4443"  name="translation">
           <InterpolatingParam id="4444" interp="linr"  time="-9999999/1" value="-36.857142857101223" leadInLength="0/1"  />
           <InterpolatingParam id="4445" interp="linr"  time="-9999999/1" value="196.2321428573905" leadInLength="0/1"  />
           <InterpolatingParam id="4446" interp="linr"  time="-9999999/1" value="0" leadInLength="0/1"  />
          </VectorParam>
          <VectorParam id="4447"  name="rotation">
           <InterpolatingParam id="4448" interp="linr"  time="-9999999/1" value="0" leadInLength="0/1"  />
           <InterpolatingParam id="4449" interp="linr"  time="-9999999/1" value="0" leadInLength="0/1"  />
           <InterpolatingParam id="4450" interp="linr"  time="-9999999/1" value="0" leadInLength="0/1"  />
          </VectorParam>
          <VectorParam id="4451"  name="shear">
           <InterpolatingParam id="4452" interp="linr"  time="-9999999/1" value="0" leadInLength="0/1"  />
           <InterpolatingParam id="4453" interp="linr"  time="-9999999/1" value="0" leadInLength="0/1"  />
           <InterpolatingParam id="4454" interp="linr"  time="-9999999/1" value="0" leadInLength="0/1"  />
          </VectorParam>
          <VectorParam id="4455"  name="scale">
           <InterpolatingParam id="4456" interp="linr"  time="-9999999/1" value="1.0300595238099823" leadInLength="0/1"  />
           <InterpolatingParam id="4457" interp="linr"  time="-9999999/1" value="1.0300595238099826" leadInLength="0/1"  />
           <InterpolatingParam id="4458" interp="linr"  time="-9999999/1" value="1" leadInLength="0/1"  />
          </VectorParam>
          <VectorParam id="4459"  name="anchor">
           <InterpolatingParam id="4460" interp="linr"  time="0/1" value="0" leadInLength="0/1"  />
           <InterpolatingParam id="4461" interp="linr"  time="0/1" value="0" leadInLength="0/1"  />
           <InterpolatingParam id="4462" interp="linr"  time="0/1" value="0" leadInLength="0/1"  />
          </VectorParam>
         </Transformer>
         <Parameters>
          <VectorParam id="4463"  name="sourceCrop">
           <InterpolatingParam id="4464" interp="linr"  time="0/1" value="0" leadInLength="0/1"  />
           <InterpolatingParam id="4465" interp="linr"  time="0/1" value="0" leadInLength="0/1"  />
           <InterpolatingParam id="4466" interp="linr"  time="0/1" value="0" leadInLength="0/1"  />
           <InterpolatingParam id="4467" interp="linr"  time="0/1" value="0" leadInLength="0/1"  />
          </VectorParam>
          <VectorParam id="4468"  name="geometryCrop">
           <InterpolatingParam id="4469" interp="linr"  time="-9999999/1" value="0" leadInLength="0/1"  />
           <InterpolatingParam id="4470" interp="linr"  time="-9999999/1" value="0" leadInLength="0/1"  />
           <InterpolatingParam id="4471" interp="linr"  time="-9999999/1" value="0" leadInLength="0/1"  />
           <InterpolatingParam id="4472" interp="linr"  time="-9999999/1" value="0" leadInLength="0/1"  />
          </VectorParam>
          <InterpolatingParam id="4473" interp="linr"  time="-9999999/1" value="1" leadInLength="0/1"  name="opacity"/>
          <InterpolatingParam id="4474" interp="linr"  time="0/1" value="1" leadInLength="0/1"  name="cursorOpacity"/>
          <InterpolatingParam id="4475" interp="linr"  time="0/1" value="1" leadInLength="0/1"  name="cursorScale"/>
          <InterpolatingParam id="4476" interp="linr"  name="volume">
           <Keyframes>
           <Keyframe id="4477"  time="-1/1" value="1" leadInLength="0/1"  />
           <Keyframe id="4478"  time="0/1" value="0" leadInLength="0/1"  />
           <Keyframe id="4479"  time="2435356789/1582519" value="0" leadInLength="0/1"  />
           <Keyframe id="4480"  time="2436939308/1582519" value="1" leadInLength="0/1"  />
           </Keyframes>
          </InterpolatingParam>
          <Parameter id="4481"  name="captions"/>
         </Parameters>
         <Attributes>
          <Attribute id="4482" value="" name="ident"/>
          <Attribute id="4483" value="0" name="mixToMono"/>
         </Attributes>
         <MetaData>
          <entry key="WinSubProjectDisplayName" val=""/>
         </MetaData>
         <ExtraData>
          <Entry key="ZoomPanBin">
           <ZoomPanBin id="4484"  >
            <ZoomPanKeyframes>
             <ZoomPanKeyframe id="4485" timeRangeEnd="-9999999/1" timeRangeDuration="0/1" interpolaterName="linr"  />
            </ZoomPanKeyframes>
           </ZoomPanBin>
          </Entry>
          <Entry key="CursorEffectBin">
           <CursorEffectBin id="4486"  >
            <CursorEffectKeyframes>
            </CursorEffectKeyframes>
           </CursorEffectBin>
          </Entry>
         </ExtraData>
         <GenericTrack id="4487"  >
          <Attributes>
           <Attribute id="4488" value="" name="ident"/>
           <Attribute id="4489" value="0" name="audioMuted"/>
           <Attribute id="4490" value="0" name="videoHidden"/>
          </Attributes>
          <MetaData>
           <entry key="IsLocked" val="False"/>
           <entry key="WinTrackHeight" val="0"/>
          </MetaData>
          <Medias>
           <UnifiedMedia id="4491"  >
            <AMFile id="4492" start="0" duration="352" scalar="1/1" mediaStart="0/1" mediaDuration="352/1" trackNumber="1" src="25" channelNumber="0" >
             <Parameters>
              <InterpolatingParam id="4493" interp="linr"  time="0/1" value="1" leadInLength="0/1"  name="volume"/>
              <Parameter id="4494"  name="captions"/>
             </Parameters>
             <Attributes>
              <Attribute id="4495" value="" name="ident"/>
              <Attribute id="4496" value="44100" name="sampleRate"/>
              <Attribute id="4497" value="16" name="bitDepth"/>
              <Attribute id="4498" value="1" name="gain"/>
              <Attribute id="4499" value="0" name="mixToMono"/>
             </Attributes>
            </AMFile>
            <VMFile id="4500" start="0" duration="352" scalar="1/1" mediaStart="0/1" mediaDuration="352/1" trackNumber="0" src="25" >
             <Transformer>
              <VectorParam id="4501"  name="translation">
               <InterpolatingParam id="4502" interp="linr"  time="-9999999/1" value="0" leadInLength="0/1"  />
               <InterpolatingParam id="4503" interp="linr"  time="-9999999/1" value="0" leadInLength="0/1"  />
               <InterpolatingParam id="4504" interp="linr"  time="-9999999/1" value="0" leadInLength="0/1"  />
              </VectorParam>
              <VectorParam id="4505"  name="rotation">
               <InterpolatingParam id="4506" interp="linr"  time="-9999999/1" value="0" leadInLength="0/1"  />
               <InterpolatingParam id="4507" interp="linr"  time="-9999999/1" value="0" leadInLength="0/1"  />
               <InterpolatingParam id="4508" interp="linr"  time="-9999999/1" value="0" leadInLength="0/1"  />
              </VectorParam>
              <VectorParam id="4509"  name="shear">
               <InterpolatingParam id="4510" interp="linr"  time="-9999999/1" value="0" leadInLength="0/1"  />
               <InterpolatingParam id="4511" interp="linr"  time="-9999999/1" value="0" leadInLength="0/1"  />
               <InterpolatingParam id="4512" interp="linr"  time="-9999999/1" value="0" leadInLength="0/1"  />
              </VectorParam>
              <VectorParam id="4513"  name="scale">
               <InterpolatingParam id="4514" interp="linr"  time="-9999999/1" value="1" leadInLength="0/1"  />
               <InterpolatingParam id="4515" interp="linr"  time="-9999999/1" value="1" leadInLength="0/1"  />
               <InterpolatingParam id="4516" interp="linr"  time="-9999999/1" value="1" leadInLength="0/1"  />
              </VectorParam>
              <VectorParam id="4517"  name="anchor">
               <InterpolatingParam id="4518" interp="linr"  time="0/1" value="0" leadInLength="0/1"  />
               <InterpolatingParam id="4519" interp="linr"  time="0/1" value="0" leadInLength="0/1"  />
               <InterpolatingParam id="4520" interp="linr"  time="0/1" value="0" leadInLength="0/1"  />
              </VectorParam>
             </Transformer>
             <Parameters>
              <VectorParam id="4521"  name="sourceCrop">
               <InterpolatingParam id="4522" interp="linr"  time="0/1" value="0" leadInLength="0/1"  />
               <InterpolatingParam id="4523" interp="linr"  time="0/1" value="0" leadInLength="0/1"  />
               <InterpolatingParam id="4524" interp="linr"  time="0/1" value="0" leadInLength="0/1"  />
               <InterpolatingParam id="4525" interp="linr"  time="0/1" value="0" leadInLength="0/1"  />
              </VectorParam>
              <VectorParam id="4526"  name="geometryCrop">
               <InterpolatingParam id="4527" interp="linr"  time="-9999999/1" value="0" leadInLength="0/1"  />
               <InterpolatingParam id="4528" interp="linr"  time="-9999999/1" value="0" leadInLength="0/1"  />
               <InterpolatingParam id="4529" interp="linr"  time="-9999999/1" value="0" leadInLength="0/1"  />
               <InterpolatingParam id="4530" interp="linr"  time="-9999999/1" value="0" leadInLength="0/1"  />
              </VectorParam>
              <InterpolatingParam id="4531" interp="linr"  time="-9999999/1" value="1" leadInLength="0/1"  name="opacity"/>
             </Parameters>
             <Attributes>
              <Attribute id="4532" value="" name="ident"/>
             </Attributes>
             <ExtraData>
              <Entry key="ZoomPanBin">
               <ZoomPanBin id="4533"  >
                <ZoomPanKeyframes>
                 <ZoomPanKeyframe id="4534" timeRangeEnd="-9999999/1" timeRangeDuration="0/1" interpolaterName="linr"  />
                </ZoomPanKeyframes>
               </ZoomPanBin>
              </Entry>
             </ExtraData>
            </VMFile>
            <MetaData>
             <entry key="WinSubProjectDisplayName" val=""/>
            </MetaData>
           </UnifiedMedia>
           <UnifiedMedia id="4535"  >
            <AMFile id="4536" start="352" duration="78" scalar="1/1" mediaStart="467/1" mediaDuration="78/1" trackNumber="1" src="25" channelNumber="0" >
             <Parameters>
              <InterpolatingParam id="4537" interp="linr"  time="0/1" value="1" leadInLength="0/1"  name="volume"/>
              <Parameter id="4538"  name="captions"/>
             </Parameters>
             <Attributes>
              <Attribute id="4539" value="" name="ident"/>
              <Attribute id="4540" value="44100" name="sampleRate"/>
              <Attribute id="4541" value="16" name="bitDepth"/>
              <Attribute id="4542" value="1" name="gain"/>
              <Attribute id="4543" value="0" name="mixToMono"/>
             </Attributes>
            </AMFile>
            <VMFile id="4544" start="352" duration="78" scalar="1/1" mediaStart="467/1" mediaDuration="78/1" trackNumber="0" src="25" >
             <Transformer>
              <VectorParam id="4545"  name="translation">
               <InterpolatingParam id="4546" interp="linr"  time="-9999999/1" value="0" leadInLength="0/1"  />
               <InterpolatingParam id="4547" interp="linr"  time="-9999999/1" value="0" leadInLength="0/1"  />
               <InterpolatingParam id="4548" interp="linr"  time="-9999999/1" value="0" leadInLength="0/1"  />
              </VectorParam>
              <VectorParam id="4549"  name="rotation">
               <InterpolatingParam id="4550" interp="linr"  time="-9999999/1" value="0" leadInLength="0/1"  />
               <InterpolatingParam id="4551" interp="linr"  time="-9999999/1" value="0" leadInLength="0/1"  />
               <InterpolatingParam id="4552" interp="linr"  time="-9999999/1" value="0" leadInLength="0/1"  />
              </VectorParam>
              <VectorParam id="4553"  name="shear">
               <InterpolatingParam id="4554" interp="linr"  time="-9999999/1" value="0" leadInLength="0/1"  />
               <InterpolatingParam id="4555" interp="linr"  time="-9999999/1" value="0" leadInLength="0/1"  />
               <InterpolatingParam id="4556" interp="linr"  time="-9999999/1" value="0" leadInLength="0/1"  />
              </VectorParam>
              <VectorParam id="4557"  name="scale">
               <InterpolatingParam id="4558" interp="linr"  time="-9999999/1" value="1" leadInLength="0/1"  />
               <InterpolatingParam id="4559" interp="linr"  time="-9999999/1" value="1" leadInLength="0/1"  />
               <InterpolatingParam id="4560" interp="linr"  time="-9999999/1" value="1" leadInLength="0/1"  />
              </VectorParam>
              <VectorParam id="4561"  name="anchor">
               <InterpolatingParam id="4562" interp="linr"  time="0/1" value="0" leadInLength="0/1"  />
               <InterpolatingParam id="4563" interp="linr"  time="0/1" value="0" leadInLength="0/1"  />
               <InterpolatingParam id="4564" interp="linr"  time="0/1" value="0" leadInLength="0/1"  />
              </VectorParam>
             </Transformer>
             <Parameters>
              <VectorParam id="4565"  name="sourceCrop">
               <InterpolatingParam id="4566" interp="linr"  time="0/1" value="0" leadInLength="0/1"  />
               <InterpolatingParam id="4567" interp="linr"  time="0/1" value="0" leadInLength="0/1"  />
               <InterpolatingParam id="4568" interp="linr"  time="0/1" value="0" leadInLength="0/1"  />
               <InterpolatingParam id="4569" interp="linr"  time="0/1" value="0" leadInLength="0/1"  />
              </VectorParam>
              <VectorParam id="4570"  name="geometryCrop">
               <InterpolatingParam id="4571" interp="linr"  time="-9999999/1" value="0" leadInLength="0/1"  />
               <InterpolatingParam id="4572" interp="linr"  time="-9999999/1" value="0" leadInLength="0/1"  />
               <InterpolatingParam id="4573" interp="linr"  time="-9999999/1" value="0" leadInLength="0/1"  />
               <InterpolatingParam id="4574" interp="linr"  time="-9999999/1" value="0" leadInLength="0/1"  />
              </VectorParam>
              <InterpolatingParam id="4575" interp="linr"  time="-9999999/1" value="1" leadInLength="0/1"  name="opacity"/>
             </Parameters>
             <Attributes>
              <Attribute id="4576" value="" name="ident"/>
             </Attributes>
             <ExtraData>
              <Entry key="ZoomPanBin">
               <ZoomPanBin id="4577"  >
                <ZoomPanKeyframes>
                 <ZoomPanKeyframe id="4578" timeRangeEnd="-9999999/1" timeRangeDuration="0/1" interpolaterName="linr"  />
                </ZoomPanKeyframes>
               </ZoomPanBin>
              </Entry>
             </ExtraData>
            </VMFile>
            <MetaData>
             <entry key="WinSubProjectDisplayName" val=""/>
            </MetaData>
           </UnifiedMedia>
           <UnifiedMedia id="4579"  >
            <AMFile id="4580" start="430" duration="1109" scalar="1/1" mediaStart="596/1" mediaDuration="1109/1" trackNumber="1" src="25" channelNumber="0" >
             <Parameters>
              <InterpolatingParam id="4581" interp="linr"  time="0/1" value="1" leadInLength="0/1"  name="volume"/>
              <Parameter id="4582"  name="captions"/>
             </Parameters>
             <Attributes>
              <Attribute id="4583" value="" name="ident"/>
              <Attribute id="4584" value="44100" name="sampleRate"/>
              <Attribute id="4585" value="16" name="bitDepth"/>
              <Attribute id="4586" value="1" name="gain"/>
              <Attribute id="4587" value="0" name="mixToMono"/>
             </Attributes>
            </AMFile>
            <VMFile id="4588" start="430" duration="1109" scalar="1/1" mediaStart="596/1" mediaDuration="1109/1" trackNumber="0" src="25" >
             <Transformer>
              <VectorParam id="4589"  name="translation">
               <InterpolatingParam id="4590" interp="linr"  time="-9999999/1" value="0" leadInLength="0/1"  />
               <InterpolatingParam id="4591" interp="linr"  time="-9999999/1" value="0" leadInLength="0/1"  />
               <InterpolatingParam id="4592" interp="linr"  time="-9999999/1" value="0" leadInLength="0/1"  />
              </VectorParam>
              <VectorParam id="4593"  name="rotation">
               <InterpolatingParam id="4594" interp="linr"  time="-9999999/1" value="0" leadInLength="0/1"  />
               <InterpolatingParam id="4595" interp="linr"  time="-9999999/1" value="0" leadInLength="0/1"  />
               <InterpolatingParam id="4596" interp="linr"  time="-9999999/1" value="0" leadInLength="0/1"  />
              </VectorParam>
              <VectorParam id="4597"  name="shear">
               <InterpolatingParam id="4598" interp="linr"  time="-9999999/1" value="0" leadInLength="0/1"  />
               <InterpolatingParam id="4599" interp="linr"  time="-9999999/1" value="0" leadInLength="0/1"  />
               <InterpolatingParam id="4600" interp="linr"  time="-9999999/1" value="0" leadInLength="0/1"  />
              </VectorParam>
              <VectorParam id="4601"  name="scale">
               <InterpolatingParam id="4602" interp="linr"  time="-9999999/1" value="1" leadInLength="0/1"  />
               <InterpolatingParam id="4603" interp="linr"  time="-9999999/1" value="1" leadInLength="0/1"  />
               <InterpolatingParam id="4604" interp="linr"  time="-9999999/1" value="1" leadInLength="0/1"  />
              </VectorParam>
              <VectorParam id="4605"  name="anchor">
               <InterpolatingParam id="4606" interp="linr"  time="0/1" value="0" leadInLength="0/1"  />
               <InterpolatingParam id="4607" interp="linr"  time="0/1" value="0" leadInLength="0/1"  />
               <InterpolatingParam id="4608" interp="linr"  time="0/1" value="0" leadInLength="0/1"  />
              </VectorParam>
             </Transformer>
             <Parameters>
              <VectorParam id="4609"  name="sourceCrop">
               <InterpolatingParam id="4610" interp="linr"  time="0/1" value="0" leadInLength="0/1"  />
               <InterpolatingParam id="4611" interp="linr"  time="0/1" value="0" leadInLength="0/1"  />
               <InterpolatingParam id="4612" interp="linr"  time="0/1" value="0" leadInLength="0/1"  />
               <InterpolatingParam id="4613" interp="linr"  time="0/1" value="0" leadInLength="0/1"  />
              </VectorParam>
              <VectorParam id="4614"  name="geometryCrop">
               <InterpolatingParam id="4615" interp="linr"  time="-9999999/1" value="0" leadInLength="0/1"  />
               <InterpolatingParam id="4616" interp="linr"  time="-9999999/1" value="0" leadInLength="0/1"  />
               <InterpolatingParam id="4617" interp="linr"  time="-9999999/1" value="0" leadInLength="0/1"  />
               <InterpolatingParam id="4618" interp="linr"  time="-9999999/1" value="0" leadInLength="0/1"  />
              </VectorParam>
              <InterpolatingParam id="4619" interp="linr"  time="-9999999/1" value="1" leadInLength="0/1"  name="opacity"/>
             </Parameters>
             <Attributes>
              <Attribute id="4620" value="" name="ident"/>
             </Attributes>
             <ExtraData>
              <Entry key="ZoomPanBin">
               <ZoomPanBin id="4621"  >
                <ZoomPanKeyframes>
                 <ZoomPanKeyframe id="4622" timeRangeEnd="-9999999/1" timeRangeDuration="0/1" interpolaterName="linr"  />
                </ZoomPanKeyframes>
               </ZoomPanBin>
              </Entry>
             </ExtraData>
            </VMFile>
            <MetaData>
             <entry key="WinSubProjectDisplayName" val=""/>
            </MetaData>
           </UnifiedMedia>
          </Medias>
         </GenericTrack>
        </StitchedMedia>
        <StitchedMedia id="4623" start="6897" duration="158" scalar="106873021822160/54414375372061" mediaStart="30911866129305/33820576526" mediaDuration="54414375372061/676411530520" minMediaStart="0/1" >
         <Transformer>
          <VectorParam id="4624"  name="translation">
           <InterpolatingParam id="4625" interp="linr"  >
            <Keyframes>
            <Keyframe id="4626"  time="-9999999/1" value="-8.7301587307694177" leadInLength="0/1"  />
            <Keyframe id="4627"  time="98388883848440593/106873021822160" value="-21.587301587191547" leadInLength="163243126116183/26718255455540"  interpolater="leadin-linr"  />
            </Keyframes>
           </InterpolatingParam>
           <InterpolatingParam id="4628" interp="linr"  >
            <Keyframes>
            <Keyframe id="4629"  time="-9999999/1" value="4.9107142860577895" leadInLength="0/1"  />
            <Keyframe id="4630"  time="98388883848440593/106873021822160" value="12.142857142795222" leadInLength="163243126116183/26718255455540"  interpolater="leadin-linr"  />
            </Keyframes>
           </InterpolatingParam>
           <InterpolatingParam id="4631" interp="linr"  >
            <Keyframes>
            <Keyframe id="4632"  time="-9999999/1" value="0" leadInLength="0/1"  />
            <Keyframe id="4633"  time="98388883848440593/106873021822160" value="0" leadInLength="163243126116183/26718255455540"  interpolater="leadin-linr"  />
            </Keyframes>
           </InterpolatingParam>
          </VectorParam>
          <VectorParam id="4634"  name="rotation">
           <InterpolatingParam id="4635" interp="linr"  >
            <Keyframes>
            <Keyframe id="4636"  time="-9999999/1" value="0" leadInLength="0/1"  />
            <Keyframe id="4637"  time="98388883848440593/106873021822160" value="0" leadInLength="163243126116183/26718255455540"  interpolater="leadin-linr"  />
            </Keyframes>
           </InterpolatingParam>
           <InterpolatingParam id="4638" interp="linr"  >
            <Keyframes>
            <Keyframe id="4639"  time="-9999999/1" value="0" leadInLength="0/1"  />
            <Keyframe id="4640"  time="98388883848440593/106873021822160" value="0" leadInLength="163243126116183/26718255455540"  interpolater="leadin-linr"  />
            </Keyframes>
           </InterpolatingParam>
           <InterpolatingParam id="4641" interp="linr"  >
            <Keyframes>
            <Keyframe id="4642"  time="-9999999/1" value="0" leadInLength="0/1"  />
            <Keyframe id="4643"  time="98388883848440593/106873021822160" value="0" leadInLength="163243126116183/26718255455540"  interpolater="leadin-linr"  />
            </Keyframes>
           </InterpolatingParam>
          </VectorParam>
          <VectorParam id="4644"  name="shear">
           <InterpolatingParam id="4645" interp="linr"  >
            <Keyframes>
            <Keyframe id="4646"  time="-9999999/1" value="0" leadInLength="0/1"  />
            <Keyframe id="4647"  time="98388883848440593/106873021822160" value="0" leadInLength="163243126116183/26718255455540"  interpolater="leadin-linr"  />
            </Keyframes>
           </InterpolatingParam>
           <InterpolatingParam id="4648" interp="linr"  >
            <Keyframes>
            <Keyframe id="4649"  time="-9999999/1" value="0" leadInLength="0/1"  />
            <Keyframe id="4650"  time="98388883848440593/106873021822160" value="0" leadInLength="163243126116183/26718255455540"  interpolater="leadin-linr"  />
            </Keyframes>
           </InterpolatingParam>
           <InterpolatingParam id="4651" interp="linr"  >
            <Keyframes>
            <Keyframe id="4652"  time="-9999999/1" value="0" leadInLength="0/1"  />
            <Keyframe id="4653"  time="98388883848440593/106873021822160" value="0" leadInLength="163243126116183/26718255455540"  interpolater="leadin-linr"  />
            </Keyframes>
           </InterpolatingParam>
          </VectorParam>
          <VectorParam id="4654"  name="scale">
           <InterpolatingParam id="4655" interp="linr"  >
            <Keyframes>
            <Keyframe id="4656"  time="-9999999/1" value="0.89269179894154183" leadInLength="0/1"  />
            <Keyframe id="4657"  time="98388883848440593/106873021822160" value="1.1888227513230085" leadInLength="163243126116183/26718255455540"  interpolater="leadin-linr"  />
            </Keyframes>
           </InterpolatingParam>
           <InterpolatingParam id="4658" interp="linr"  >
            <Keyframes>
            <Keyframe id="4659"  time="-9999999/1" value="0.89269179894154205" leadInLength="0/1"  />
            <Keyframe id="4660"  time="98388883848440593/106873021822160" value="1.188822751323009" leadInLength="163243126116183/26718255455540"  interpolater="leadin-linr"  />
            </Keyframes>
           </InterpolatingParam>
           <InterpolatingParam id="4661" interp="linr"  >
            <Keyframes>
            <Keyframe id="4662"  time="-9999999/1" value="1" leadInLength="0/1"  />
            <Keyframe id="4663"  time="98388883848440593/106873021822160" value="1" leadInLength="163243126116183/26718255455540"  interpolater="leadin-linr"  />
            </Keyframes>
           </InterpolatingParam>
          </VectorParam>
          <VectorParam id="4664"  name="anchor">
           <InterpolatingParam id="4665" interp="linr"  >
            <Keyframes>
            <Keyframe id="4666"  time="0/1" value="0" leadInLength="0/1"  />
            <Keyframe id="4667"  time="969/1" value="0" leadInLength="0/1"  />
            </Keyframes>
           </InterpolatingParam>
           <InterpolatingParam id="4668" interp="linr"  >
            <Keyframes>
            <Keyframe id="4669"  time="0/1" value="0" leadInLength="0/1"  />
            <Keyframe id="4670"  time="969/1" value="0" leadInLength="0/1"  />
            </Keyframes>
           </InterpolatingParam>
           <InterpolatingParam id="4671" interp="linr"  >
            <Keyframes>
            <Keyframe id="4672"  time="0/1" value="0" leadInLength="0/1"  />
            <Keyframe id="4673"  time="969/1" value="0" leadInLength="0/1"  />
            </Keyframes>
           </InterpolatingParam>
          </VectorParam>
         </Transformer>
         <Parameters>
          <VectorParam id="4674"  name="sourceCrop">
           <InterpolatingParam id="4675" interp="linr"  >
            <Keyframes>
            <Keyframe id="4676"  time="0/1" value="0" leadInLength="0/1"  />
            <Keyframe id="4677"  time="969/1" value="0" leadInLength="0/1"  />
            </Keyframes>
           </InterpolatingParam>
           <InterpolatingParam id="4678" interp="linr"  >
            <Keyframes>
            <Keyframe id="4679"  time="0/1" value="0" leadInLength="0/1"  />
            <Keyframe id="4680"  time="969/1" value="0" leadInLength="0/1"  />
            </Keyframes>
           </InterpolatingParam>
           <InterpolatingParam id="4681" interp="linr"  >
            <Keyframes>
            <Keyframe id="4682"  time="0/1" value="0" leadInLength="0/1"  />
            <Keyframe id="4683"  time="969/1" value="0" leadInLength="0/1"  />
            </Keyframes>
           </InterpolatingParam>
           <InterpolatingParam id="4684" interp="linr"  >
            <Keyframes>
            <Keyframe id="4685"  time="0/1" value="0" leadInLength="0/1"  />
            <Keyframe id="4686"  time="969/1" value="0" leadInLength="0/1"  />
            </Keyframes>
           </InterpolatingParam>
          </VectorParam>
          <VectorParam id="4687"  name="geometryCrop">
           <InterpolatingParam id="4688" interp="linr"  >
            <Keyframes>
            <Keyframe id="4689"  time="-9999999/1" value="0" leadInLength="0/1"  />
            <Keyframe id="4690"  time="98388883848440593/106873021822160" value="0" leadInLength="163243126116183/26718255455540"  interpolater="leadin-linr"  />
            </Keyframes>
           </InterpolatingParam>
           <InterpolatingParam id="4691" interp="linr"  >
            <Keyframes>
            <Keyframe id="4692"  time="-9999999/1" value="0" leadInLength="0/1"  />
            <Keyframe id="4693"  time="98388883848440593/106873021822160" value="0" leadInLength="163243126116183/26718255455540"  interpolater="leadin-linr"  />
            </Keyframes>
           </InterpolatingParam>
           <InterpolatingParam id="4694" interp="linr"  >
            <Keyframes>
            <Keyframe id="4695"  time="-9999999/1" value="0" leadInLength="0/1"  />
            <Keyframe id="4696"  time="98388883848440593/106873021822160" value="0" leadInLength="163243126116183/26718255455540"  interpolater="leadin-linr"  />
            </Keyframes>
           </InterpolatingParam>
           <InterpolatingParam id="4697" interp="linr"  >
            <Keyframes>
            <Keyframe id="4698"  time="-9999999/1" value="0" leadInLength="0/1"  />
            <Keyframe id="4699"  time="98388883848440593/106873021822160" value="0" leadInLength="163243126116183/26718255455540"  interpolater="leadin-linr"  />
            </Keyframes>
           </InterpolatingParam>
          </VectorParam>
          <InterpolatingParam id="4700" interp="linr"  name="opacity">
           <Keyframes>
           <Keyframe id="4701"  time="-9999999/1" value="1" leadInLength="0/1"  />
           <Keyframe id="4702"  time="98388883848440593/106873021822160" value="1" leadInLength="163243126116183/26718255455540"  interpolater="leadin-linr"  />
           </Keyframes>
          </InterpolatingParam>
          <InterpolatingParam id="4703" interp="linr"  time="0/1" value="1" leadInLength="0/1"  name="cursorOpacity"/>
          <InterpolatingParam id="4704" interp="linr"  time="0/1" value="1" leadInLength="0/1"  name="cursorScale"/>
          <InterpolatingParam id="4705" interp="linr"  name="volume">
           <Keyframes>
           <Keyframe id="4706"  time="-1/1" value="1" leadInLength="0/1"  />
           <Keyframe id="4707"  time="0/1" value="0" leadInLength="0/1"  />
           <Keyframe id="4708"  time="8563382913651/4973614195" value="0" leadInLength="0/1"  />
           <Keyframe id="4709"  time="8568356527846/4973614195" value="1" leadInLength="0/1"  />
           </Keyframes>
          </InterpolatingParam>
          <Parameter id="4710"  name="captions"/>
         </Parameters>
         <Attributes>
          <Attribute id="4711" value="" name="ident"/>
          <Attribute id="4712" value="0" name="mixToMono"/>
         </Attributes>
         <MetaData>
          <entry key="WinSubProjectDisplayName" val=""/>
         </MetaData>
         <ExtraData>
          <Entry key="ZoomPanBin">
           <ZoomPanBin id="4713"  >
            <ZoomPanKeyframes>
             <ZoomPanKeyframe id="4714" timeRangeEnd="-9999999/1" timeRangeDuration="0/1" interpolaterName="linr"  />
             <ZoomPanKeyframe id="4715" timeRangeEnd="98388883848440593/106873021822160" timeRangeDuration="163243126116183/26718255455540" interpolaterName="linr"  />
            </ZoomPanKeyframes>
           </ZoomPanBin>
          </Entry>
          <Entry key="CursorEffectBin">
           <CursorEffectBin id="4716"  >
            <CursorEffectKeyframes>
            </CursorEffectKeyframes>
           </CursorEffectBin>
          </Entry>
         </ExtraData>
         <GenericTrack id="4717"  >
          <Attributes>
           <Attribute id="4718" value="" name="ident"/>
           <Attribute id="4719" value="0" name="audioMuted"/>
           <Attribute id="4720" value="0" name="videoHidden"/>
          </Attributes>
          <MetaData>
           <entry key="IsLocked" val="False"/>
           <entry key="WinTrackHeight" val="0"/>
          </MetaData>
          <Medias>
           <UnifiedMedia id="4721"  >
            <AMFile id="4722" start="0" duration="969" scalar="1/1" mediaStart="0/1" mediaDuration="969/1" trackNumber="1" src="25" channelNumber="0" >
             <Parameters>
              <InterpolatingParam id="4723" interp="linr"  time="0/1" value="1" leadInLength="0/1"  name="volume"/>
              <Parameter id="4724"  name="captions"/>
             </Parameters>
             <Attributes>
              <Attribute id="4725" value="" name="ident"/>
              <Attribute id="4726" value="44100" name="sampleRate"/>
              <Attribute id="4727" value="16" name="bitDepth"/>
              <Attribute id="4728" value="1" name="gain"/>
              <Attribute id="4729" value="0" name="mixToMono"/>
             </Attributes>
            </AMFile>
            <VMFile id="4730" start="0" duration="969" scalar="1/1" mediaStart="0/1" mediaDuration="969/1" trackNumber="0" src="25" >
             <Transformer>
              <VectorParam id="4731"  name="translation">
               <InterpolatingParam id="4732" interp="linr"  time="-9999999/1" value="0" leadInLength="0/1"  />
               <InterpolatingParam id="4733" interp="linr"  time="-9999999/1" value="0" leadInLength="0/1"  />
               <InterpolatingParam id="4734" interp="linr"  time="-9999999/1" value="0" leadInLength="0/1"  />
              </VectorParam>
              <VectorParam id="4735"  name="rotation">
               <InterpolatingParam id="4736" interp="linr"  time="-9999999/1" value="0" leadInLength="0/1"  />
               <InterpolatingParam id="4737" interp="linr"  time="-9999999/1" value="0" leadInLength="0/1"  />
               <InterpolatingParam id="4738" interp="linr"  time="-9999999/1" value="0" leadInLength="0/1"  />
              </VectorParam>
              <VectorParam id="4739"  name="shear">
               <InterpolatingParam id="4740" interp="linr"  time="-9999999/1" value="0" leadInLength="0/1"  />
               <InterpolatingParam id="4741" interp="linr"  time="-9999999/1" value="0" leadInLength="0/1"  />
               <InterpolatingParam id="4742" interp="linr"  time="-9999999/1" value="0" leadInLength="0/1"  />
              </VectorParam>
              <VectorParam id="4743"  name="scale">
               <InterpolatingParam id="4744" interp="linr"  time="-9999999/1" value="1" leadInLength="0/1"  />
               <InterpolatingParam id="4745" interp="linr"  time="-9999999/1" value="1" leadInLength="0/1"  />
               <InterpolatingParam id="4746" interp="linr"  time="-9999999/1" value="1" leadInLength="0/1"  />
              </VectorParam>
              <VectorParam id="4747"  name="anchor">
               <InterpolatingParam id="4748" interp="linr"  time="0/1" value="0" leadInLength="0/1"  />
               <InterpolatingParam id="4749" interp="linr"  time="0/1" value="0" leadInLength="0/1"  />
               <InterpolatingParam id="4750" interp="linr"  time="0/1" value="0" leadInLength="0/1"  />
              </VectorParam>
             </Transformer>
             <Parameters>
              <VectorParam id="4751"  name="sourceCrop">
               <InterpolatingParam id="4752" interp="linr"  time="0/1" value="0" leadInLength="0/1"  />
               <InterpolatingParam id="4753" interp="linr"  time="0/1" value="0" leadInLength="0/1"  />
               <InterpolatingParam id="4754" interp="linr"  time="0/1" value="0" leadInLength="0/1"  />
               <InterpolatingParam id="4755" interp="linr"  time="0/1" value="0" leadInLength="0/1"  />
              </VectorParam>
              <VectorParam id="4756"  name="geometryCrop">
               <InterpolatingParam id="4757" interp="linr"  time="-9999999/1" value="0" leadInLength="0/1"  />
               <InterpolatingParam id="4758" interp="linr"  time="-9999999/1" value="0" leadInLength="0/1"  />
               <InterpolatingParam id="4759" interp="linr"  time="-9999999/1" value="0" leadInLength="0/1"  />
               <InterpolatingParam id="4760" interp="linr"  time="-9999999/1" value="0" leadInLength="0/1"  />
              </VectorParam>
              <InterpolatingParam id="4761" interp="linr"  time="-9999999/1" value="1" leadInLength="0/1"  name="opacity"/>
             </Parameters>
             <Attributes>
              <Attribute id="4762" value="" name="ident"/>
             </Attributes>
             <ExtraData>
              <Entry key="ZoomPanBin">
               <ZoomPanBin id="4763"  >
                <ZoomPanKeyframes>
                 <ZoomPanKeyframe id="4764" timeRangeEnd="-9999999/1" timeRangeDuration="0/1" interpolaterName="linr"  />
                </ZoomPanKeyframes>
               </ZoomPanBin>
              </Entry>
             </ExtraData>
            </VMFile>
            <MetaData>
             <entry key="WinSubProjectDisplayName" val=""/>
            </MetaData>
           </UnifiedMedia>
           <IMFile id="4765" start="969" duration="16" scalar="1/1" mediaStart="969/1" mediaDuration="1/1" trackNumber="0" src="25" trimStartSum="0/1" >
            <Transformer>
             <VectorParam id="4766"  name="translation">
              <InterpolatingParam id="4767" interp="linr"  time="-9999999/1" value="0" leadInLength="0/1"  />
              <InterpolatingParam id="4768" interp="linr"  time="-9999999/1" value="0" leadInLength="0/1"  />
              <InterpolatingParam id="4769" interp="linr"  time="-9999999/1" value="0" leadInLength="0/1"  />
             </VectorParam>
             <VectorParam id="4770"  name="rotation">
              <InterpolatingParam id="4771" interp="linr"  time="-9999999/1" value="0" leadInLength="0/1"  />
              <InterpolatingParam id="4772" interp="linr"  time="-9999999/1" value="0" leadInLength="0/1"  />
              <InterpolatingParam id="4773" interp="linr"  time="-9999999/1" value="0" leadInLength="0/1"  />
             </VectorParam>
             <VectorParam id="4774"  name="shear">
              <InterpolatingParam id="4775" interp="linr"  time="-9999999/1" value="0" leadInLength="0/1"  />
              <InterpolatingParam id="4776" interp="linr"  time="-9999999/1" value="0" leadInLength="0/1"  />
              <InterpolatingParam id="4777" interp="linr"  time="-9999999/1" value="0" leadInLength="0/1"  />
             </VectorParam>
             <VectorParam id="4778"  name="scale">
              <InterpolatingParam id="4779" interp="linr"  time="-9999999/1" value="1" leadInLength="0/1"  />
              <InterpolatingParam id="4780" interp="linr"  time="-9999999/1" value="1" leadInLength="0/1"  />
              <InterpolatingParam id="4781" interp="linr"  time="-9999999/1" value="1" leadInLength="0/1"  />
             </VectorParam>
             <VectorParam id="4782"  name="anchor">
              <InterpolatingParam id="4783" interp="linr"  time="0/1" value="0" leadInLength="0/1"  />
              <InterpolatingParam id="4784" interp="linr"  time="0/1" value="0" leadInLength="0/1"  />
              <InterpolatingParam id="4785" interp="linr"  time="0/1" value="0" leadInLength="0/1"  />
             </VectorParam>
            </Transformer>
            <Parameters>
             <VectorParam id="4786"  name="sourceCrop">
              <InterpolatingParam id="4787" interp="linr"  time="0/1" value="0" leadInLength="0/1"  />
              <InterpolatingParam id="4788" interp="linr"  time="0/1" value="0" leadInLength="0/1"  />
              <InterpolatingParam id="4789" interp="linr"  time="0/1" value="0" leadInLength="0/1"  />
              <InterpolatingParam id="4790" interp="linr"  time="0/1" value="0" leadInLength="0/1"  />
             </VectorParam>
             <VectorParam id="4791"  name="geometryCrop">
              <InterpolatingParam id="4792" interp="linr"  time="-9999999/1" value="0" leadInLength="0/1"  />
              <InterpolatingParam id="4793" interp="linr"  time="-9999999/1" value="0" leadInLength="0/1"  />
              <InterpolatingParam id="4794" interp="linr"  time="-9999999/1" value="0" leadInLength="0/1"  />
              <InterpolatingParam id="4795" interp="linr"  time="-9999999/1" value="0" leadInLength="0/1"  />
             </VectorParam>
             <InterpolatingParam id="4796" interp="linr"  time="-9999999/1" value="1" leadInLength="0/1"  name="opacity"/>
            </Parameters>
            <Attributes>
             <Attribute id="4797" value="" name="ident"/>
            </Attributes>
            <MetaData>
             <entry key="WinSubProjectDisplayName" val=""/>
            </MetaData>
            <ExtraData>
             <Entry key="ZoomPanBin">
              <ZoomPanBin id="4798"  >
               <ZoomPanKeyframes>
                <ZoomPanKeyframe id="4799" timeRangeEnd="-9999999/1" timeRangeDuration="0/1" interpolaterName="linr"  />
               </ZoomPanKeyframes>
              </ZoomPanBin>
             </Entry>
            </ExtraData>
           </IMFile>
           <UnifiedMedia id="4800"  >
            <AMFile id="4801" start="985" duration="737" scalar="1/1" mediaStart="969/1" mediaDuration="737/1" trackNumber="1" src="25" channelNumber="0" >
             <Parameters>
              <InterpolatingParam id="4802" interp="linr"  time="0/1" value="1" leadInLength="0/1"  name="volume"/>
              <Parameter id="4803"  name="captions"/>
             </Parameters>
             <Attributes>
              <Attribute id="4804" value="" name="ident"/>
              <Attribute id="4805" value="44100" name="sampleRate"/>
              <Attribute id="4806" value="16" name="bitDepth"/>
              <Attribute id="4807" value="1" name="gain"/>
              <Attribute id="4808" value="0" name="mixToMono"/>
             </Attributes>
            </AMFile>
            <VMFile id="4809" start="985" duration="737" scalar="1/1" mediaStart="969/1" mediaDuration="737/1" trackNumber="0" src="25" >
             <Transformer>
              <VectorParam id="4810"  name="translation">
               <InterpolatingParam id="4811" interp="linr"  time="-9999999/1" value="0" leadInLength="0/1"  />
               <InterpolatingParam id="4812" interp="linr"  time="-9999999/1" value="0" leadInLength="0/1"  />
               <InterpolatingParam id="4813" interp="linr"  time="-9999999/1" value="0" leadInLength="0/1"  />
              </VectorParam>
              <VectorParam id="4814"  name="rotation">
               <InterpolatingParam id="4815" interp="linr"  time="-9999999/1" value="0" leadInLength="0/1"  />
               <InterpolatingParam id="4816" interp="linr"  time="-9999999/1" value="0" leadInLength="0/1"  />
               <InterpolatingParam id="4817" interp="linr"  time="-9999999/1" value="0" leadInLength="0/1"  />
              </VectorParam>
              <VectorParam id="4818"  name="shear">
               <InterpolatingParam id="4819" interp="linr"  time="-9999999/1" value="0" leadInLength="0/1"  />
               <InterpolatingParam id="4820" interp="linr"  time="-9999999/1" value="0" leadInLength="0/1"  />
               <InterpolatingParam id="4821" interp="linr"  time="-9999999/1" value="0" leadInLength="0/1"  />
              </VectorParam>
              <VectorParam id="4822"  name="scale">
               <InterpolatingParam id="4823" interp="linr"  time="-9999999/1" value="1" leadInLength="0/1"  />
               <InterpolatingParam id="4824" interp="linr"  time="-9999999/1" value="1" leadInLength="0/1"  />
               <InterpolatingParam id="4825" interp="linr"  time="-9999999/1" value="1" leadInLength="0/1"  />
              </VectorParam>
              <VectorParam id="4826"  name="anchor">
               <InterpolatingParam id="4827" interp="linr"  time="0/1" value="0" leadInLength="0/1"  />
               <InterpolatingParam id="4828" interp="linr"  time="0/1" value="0" leadInLength="0/1"  />
               <InterpolatingParam id="4829" interp="linr"  time="0/1" value="0" leadInLength="0/1"  />
              </VectorParam>
             </Transformer>
             <Parameters>
              <VectorParam id="4830"  name="sourceCrop">
               <InterpolatingParam id="4831" interp="linr"  time="0/1" value="0" leadInLength="0/1"  />
               <InterpolatingParam id="4832" interp="linr"  time="0/1" value="0" leadInLength="0/1"  />
               <InterpolatingParam id="4833" interp="linr"  time="0/1" value="0" leadInLength="0/1"  />
               <InterpolatingParam id="4834" interp="linr"  time="0/1" value="0" leadInLength="0/1"  />
              </VectorParam>
              <VectorParam id="4835"  name="geometryCrop">
               <InterpolatingParam id="4836" interp="linr"  time="-9999999/1" value="0" leadInLength="0/1"  />
               <InterpolatingParam id="4837" interp="linr"  time="-9999999/1" value="0" leadInLength="0/1"  />
               <InterpolatingParam id="4838" interp="linr"  time="-9999999/1" value="0" leadInLength="0/1"  />
               <InterpolatingParam id="4839" interp="linr"  time="-9999999/1" value="0" leadInLength="0/1"  />
              </VectorParam>
              <InterpolatingParam id="4840" interp="linr"  time="-9999999/1" value="1" leadInLength="0/1"  name="opacity"/>
             </Parameters>
             <Attributes>
              <Attribute id="4841" value="" name="ident"/>
             </Attributes>
             <ExtraData>
              <Entry key="ZoomPanBin">
               <ZoomPanBin id="4842"  >
                <ZoomPanKeyframes>
                 <ZoomPanKeyframe id="4843" timeRangeEnd="-9999999/1" timeRangeDuration="0/1" interpolaterName="linr"  />
                </ZoomPanKeyframes>
               </ZoomPanBin>
              </Entry>
             </ExtraData>
            </VMFile>
            <MetaData>
             <entry key="WinSubProjectDisplayName" val=""/>
            </MetaData>
           </UnifiedMedia>
          </Medias>
         </GenericTrack>
        </StitchedMedia>
        <UnifiedMedia id="4844"  >
         <AMFile id="4845" start="7055" duration="136" scalar="2299799203768/2950471803825" mediaStart="18169724135226/16910288263" mediaDuration="2950471803825/16910288263" trackNumber="1" src="25" channelNumber="0" >
          <Parameters>
           <InterpolatingParam id="4846" interp="linr"  name="volume">
            <Keyframes>
            <Keyframe id="4847"  time="-1/1" value="1" leadInLength="0/1"  />
            <Keyframe id="4848"  time="0/1" value="0" leadInLength="0/1"  />
            <Keyframe id="4849"  time="1707/1" value="0" leadInLength="0/1"  />
            <Keyframe id="4850"  time="1708/1" value="1" leadInLength="0/1"  />
            </Keyframes>
           </InterpolatingParam>
           <Parameter id="4851"  name="captions"/>
          </Parameters>
          <Attributes>
           <Attribute id="4852" value="" name="ident"/>
           <Attribute id="4853" value="44100" name="sampleRate"/>
           <Attribute id="4854" value="16" name="bitDepth"/>
           <Attribute id="4855" value="1" name="gain"/>
           <Attribute id="4856" value="0" name="mixToMono"/>
          </Attributes>
         </AMFile>
         <VMFile id="4857" start="7055" duration="136" scalar="2299799203768/2950471803825" mediaStart="18169724135226/16910288263" mediaDuration="2950471803825/16910288263" trackNumber="0" src="25" >
          <Transformer>
           <VectorParam id="4858"  name="translation">
            <InterpolatingParam id="4859" interp="linr"  >
             <Keyframes>
             <Keyframe id="4860"  time="-9999999/1" value="-8.7301587307694177" leadInLength="0/1"  />
             <Keyframe id="4861"  time="1108670953630893/1149899601884" value="-21.587301587191547" leadInLength="2950471803825/104536327444"  interpolater="leadin-linr"  />
             </Keyframes>
            </InterpolatingParam>
            <InterpolatingParam id="4862" interp="linr"  >
             <Keyframes>
             <Keyframe id="4863"  time="-9999999/1" value="4.9107142860577895" leadInLength="0/1"  />
             <Keyframe id="4864"  time="1108670953630893/1149899601884" value="12.142857142795222" leadInLength="2950471803825/104536327444"  interpolater="leadin-linr"  />
             </Keyframes>
            </InterpolatingParam>
            <InterpolatingParam id="4865" interp="linr"  >
             <Keyframes>
             <Keyframe id="4866"  time="-9999999/1" value="0" leadInLength="0/1"  />
             <Keyframe id="4867"  time="1108670953630893/1149899601884" value="0" leadInLength="2950471803825/104536327444"  interpolater="leadin-linr"  />
             </Keyframes>
            </InterpolatingParam>
           </VectorParam>
           <VectorParam id="4868"  name="rotation">
            <InterpolatingParam id="4869" interp="linr"  >
             <Keyframes>
             <Keyframe id="4870"  time="-9999999/1" value="0" leadInLength="0/1"  />
             <Keyframe id="4871"  time="1108670953630893/1149899601884" value="0" leadInLength="2950471803825/104536327444"  interpolater="leadin-linr"  />
             </Keyframes>
            </InterpolatingParam>
            <InterpolatingParam id="4872" interp="linr"  >
             <Keyframes>
             <Keyframe id="4873"  time="-9999999/1" value="0" leadInLength="0/1"  />
             <Keyframe id="4874"  time="1108670953630893/1149899601884" value="0" leadInLength="2950471803825/104536327444"  interpolater="leadin-linr"  />
             </Keyframes>
            </InterpolatingParam>
            <InterpolatingParam id="4875" interp="linr"  >
             <Keyframes>
             <Keyframe id="4876"  time="-9999999/1" value="0" leadInLength="0/1"  />
             <Keyframe id="4877"  time="1108670953630893/1149899601884" value="0" leadInLength="2950471803825/104536327444"  interpolater="leadin-linr"  />
             </Keyframes>
            </InterpolatingParam>
           </VectorParam>
           <VectorParam id="4878"  name="shear">
            <InterpolatingParam id="4879" interp="linr"  >
             <Keyframes>
             <Keyframe id="4880"  time="-9999999/1" value="0" leadInLength="0/1"  />
             <Keyframe id="4881"  time="1108670953630893/1149899601884" value="0" leadInLength="2950471803825/104536327444"  interpolater="leadin-linr"  />
             </Keyframes>
            </InterpolatingParam>
            <InterpolatingParam id="4882" interp="linr"  >
             <Keyframes>
             <Keyframe id="4883"  time="-9999999/1" value="0" leadInLength="0/1"  />
             <Keyframe id="4884"  time="1108670953630893/1149899601884" value="0" leadInLength="2950471803825/104536327444"  interpolater="leadin-linr"  />
             </Keyframes>
            </InterpolatingParam>
            <InterpolatingParam id="4885" interp="linr"  >
             <Keyframes>
             <Keyframe id="4886"  time="-9999999/1" value="0" leadInLength="0/1"  />
             <Keyframe id="4887"  time="1108670953630893/1149899601884" value="0" leadInLength="2950471803825/104536327444"  interpolater="leadin-linr"  />
             </Keyframes>
            </InterpolatingParam>
           </VectorParam>
           <VectorParam id="4888"  name="scale">
            <InterpolatingParam id="4889" interp="linr"  >
             <Keyframes>
             <Keyframe id="4890"  time="-9999999/1" value="0.89269179894154183" leadInLength="0/1"  />
             <Keyframe id="4891"  time="1108670953630893/1149899601884" value="1.1888227513230085" leadInLength="2950471803825/104536327444"  interpolater="leadin-linr"  />
             </Keyframes>
            </InterpolatingParam>
            <InterpolatingParam id="4892" interp="linr"  >
             <Keyframes>
             <Keyframe id="4893"  time="-9999999/1" value="0.89269179894154205" leadInLength="0/1"  />
             <Keyframe id="4894"  time="1108670953630893/1149899601884" value="1.188822751323009" leadInLength="2950471803825/104536327444"  interpolater="leadin-linr"  />
             </Keyframes>
            </InterpolatingParam>
            <InterpolatingParam id="4895" interp="linr"  >
             <Keyframes>
             <Keyframe id="4896"  time="-9999999/1" value="1" leadInLength="0/1"  />
             <Keyframe id="4897"  time="1108670953630893/1149899601884" value="1" leadInLength="2950471803825/104536327444"  interpolater="leadin-linr"  />
             </Keyframes>
            </InterpolatingParam>
           </VectorParam>
           <VectorParam id="4898"  name="anchor">
            <InterpolatingParam id="4899" interp="linr"  time="0/1" value="0" leadInLength="0/1"  />
            <InterpolatingParam id="4900" interp="linr"  time="0/1" value="0" leadInLength="0/1"  />
            <InterpolatingParam id="4901" interp="linr"  time="0/1" value="0" leadInLength="0/1"  />
           </VectorParam>
          </Transformer>
          <Parameters>
           <VectorParam id="4902"  name="sourceCrop">
            <InterpolatingParam id="4903" interp="linr"  time="0/1" value="0" leadInLength="0/1"  />
            <InterpolatingParam id="4904" interp="linr"  time="0/1" value="0" leadInLength="0/1"  />
            <InterpolatingParam id="4905" interp="linr"  time="0/1" value="0" leadInLength="0/1"  />
            <InterpolatingParam id="4906" interp="linr"  time="0/1" value="0" leadInLength="0/1"  />
           </VectorParam>
           <VectorParam id="4907"  name="geometryCrop">
            <InterpolatingParam id="4908" interp="linr"  >
             <Keyframes>
             <Keyframe id="4909"  time="-9999999/1" value="0" leadInLength="0/1"  />
             <Keyframe id="4910"  time="1108670953630893/1149899601884" value="0" leadInLength="2950471803825/104536327444"  interpolater="leadin-linr"  />
             </Keyframes>
            </InterpolatingParam>
            <InterpolatingParam id="4911" interp="linr"  >
             <Keyframes>
             <Keyframe id="4912"  time="-9999999/1" value="0" leadInLength="0/1"  />
             <Keyframe id="4913"  time="1108670953630893/1149899601884" value="0" leadInLength="2950471803825/104536327444"  interpolater="leadin-linr"  />
             </Keyframes>
            </InterpolatingParam>
            <InterpolatingParam id="4914" interp="linr"  >
             <Keyframes>
             <Keyframe id="4915"  time="-9999999/1" value="0" leadInLength="0/1"  />
             <Keyframe id="4916"  time="1108670953630893/1149899601884" value="0" leadInLength="2950471803825/104536327444"  interpolater="leadin-linr"  />
             </Keyframes>
            </InterpolatingParam>
            <InterpolatingParam id="4917" interp="linr"  >
             <Keyframes>
             <Keyframe id="4918"  time="-9999999/1" value="0" leadInLength="0/1"  />
             <Keyframe id="4919"  time="1108670953630893/1149899601884" value="0" leadInLength="2950471803825/104536327444"  interpolater="leadin-linr"  />
             </Keyframes>
            </InterpolatingParam>
           </VectorParam>
           <InterpolatingParam id="4920" interp="linr"  name="opacity">
            <Keyframes>
            <Keyframe id="4921"  time="-9999999/1" value="1" leadInLength="0/1"  />
            <Keyframe id="4922"  time="1108670953630893/1149899601884" value="1" leadInLength="2950471803825/104536327444"  interpolater="leadin-linr"  />
            </Keyframes>
           </InterpolatingParam>
          </Parameters>
          <Attributes>
           <Attribute id="4923" value="" name="ident"/>
          </Attributes>
          <ExtraData>
           <Entry key="ZoomPanBin">
            <ZoomPanBin id="4924"  >
             <ZoomPanKeyframes>
              <ZoomPanKeyframe id="4925" timeRangeEnd="-9999999/1" timeRangeDuration="0/1" interpolaterName="linr"  />
              <ZoomPanKeyframe id="4926" timeRangeEnd="1108670953630893/1149899601884" timeRangeDuration="2950471803825/104536327444" interpolaterName="linr"  />
             </ZoomPanKeyframes>
            </ZoomPanBin>
           </Entry>
          </ExtraData>
         </VMFile>
         <MetaData>
          <entry key="WinSubProjectDisplayName" val=""/>
         </MetaData>
        </UnifiedMedia>
        <UnifiedMedia id="4927"  >
         <AMFile id="4928" start="7191" duration="107" scalar="71/139" mediaStart="4865/71" mediaDuration="14873/71" trackNumber="1" src="26" channelNumber="0" >
          <Parameters>
           <InterpolatingParam id="4929" interp="linr"  name="volume">
            <Keyframes>
            <Keyframe id="4930"  time="-1/1" value="1" leadInLength="0/1"  />
            <Keyframe id="4931"  time="0/1" value="0" leadInLength="0/1"  />
            </Keyframes>
           </InterpolatingParam>
           <Parameter id="4932"  name="captions"/>
          </Parameters>
          <Attributes>
           <Attribute id="4933" value="" name="ident"/>
           <Attribute id="4934" value="44100" name="sampleRate"/>
           <Attribute id="4935" value="16" name="bitDepth"/>
           <Attribute id="4936" value="1" name="gain"/>
           <Attribute id="4937" value="0" name="mixToMono"/>
          </Attributes>
         </AMFile>
         <VMFile id="4938" start="7191" duration="107" scalar="71/139" mediaStart="4865/71" mediaDuration="14873/71" trackNumber="0" src="26" >
          <Transformer>
           <VectorParam id="4939"  name="translation">
            <InterpolatingParam id="4940" interp="linr"  time="-9999999/1" value="-2.8571428574254583" leadInLength="0/1"  />
            <InterpolatingParam id="4941" interp="linr"  time="-9999999/1" value="213.7500000000648" leadInLength="0/1"  />
            <InterpolatingParam id="4942" interp="linr"  time="-9999999/1" value="0" leadInLength="0/1"  />
           </VectorParam>
           <VectorParam id="4943"  name="rotation">
            <InterpolatingParam id="4944" interp="linr"  time="-9999999/1" value="0" leadInLength="0/1"  />
            <InterpolatingParam id="4945" interp="linr"  time="-9999999/1" value="0" leadInLength="0/1"  />
            <InterpolatingParam id="4946" interp="linr"  time="-9999999/1" value="0" leadInLength="0/1"  />
           </VectorParam>
           <VectorParam id="4947"  name="shear">
            <InterpolatingParam id="4948" interp="linr"  time="-9999999/1" value="0" leadInLength="0/1"  />
            <InterpolatingParam id="4949" interp="linr"  time="-9999999/1" value="0" leadInLength="0/1"  />
            <InterpolatingParam id="4950" interp="linr"  time="-9999999/1" value="0" leadInLength="0/1"  />
           </VectorParam>
           <VectorParam id="4951"  name="scale">
            <InterpolatingParam id="4952" interp="linr"  time="-9999999/1" value="1.0625000000001199" leadInLength="0/1"  />
            <InterpolatingParam id="4953" interp="linr"  time="-9999999/1" value="1.0625000000001203" leadInLength="0/1"  />
            <InterpolatingParam id="4954" interp="linr"  time="-9999999/1" value="1" leadInLength="0/1"  />
           </VectorParam>
           <VectorParam id="4955"  name="anchor">
            <InterpolatingParam id="4956" interp="linr"  time="0/1" value="0" leadInLength="0/1"  />
            <InterpolatingParam id="4957" interp="linr"  time="0/1" value="0" leadInLength="0/1"  />
            <InterpolatingParam id="4958" interp="linr"  time="0/1" value="0" leadInLength="0/1"  />
           </VectorParam>
          </Transformer>
          <Parameters>
           <VectorParam id="4959"  name="sourceCrop">
            <InterpolatingParam id="4960" interp="linr"  time="0/1" value="0" leadInLength="0/1"  />
            <InterpolatingParam id="4961" interp="linr"  time="0/1" value="0" leadInLength="0/1"  />
            <InterpolatingParam id="4962" interp="linr"  time="0/1" value="0" leadInLength="0/1"  />
            <InterpolatingParam id="4963" interp="linr"  time="0/1" value="0" leadInLength="0/1"  />
           </VectorParam>
           <VectorParam id="4964"  name="geometryCrop">
            <InterpolatingParam id="4965" interp="linr"  time="-9999999/1" value="0" leadInLength="0/1"  />
            <InterpolatingParam id="4966" interp="linr"  time="-9999999/1" value="0" leadInLength="0/1"  />
            <InterpolatingParam id="4967" interp="linr"  time="-9999999/1" value="0" leadInLength="0/1"  />
            <InterpolatingParam id="4968" interp="linr"  time="-9999999/1" value="0" leadInLength="0/1"  />
           </VectorParam>
           <InterpolatingParam id="4969" interp="linr"  time="-9999999/1" value="1" leadInLength="0/1"  name="opacity"/>
          </Parameters>
          <Attributes>
           <Attribute id="4970" value="" name="ident"/>
          </Attributes>
          <ExtraData>
           <Entry key="ZoomPanBin">
            <ZoomPanBin id="4971"  >
             <ZoomPanKeyframes>
              <ZoomPanKeyframe id="4972" timeRangeEnd="-9999999/1" timeRangeDuration="0/1" interpolaterName="linr"  />
             </ZoomPanKeyframes>
            </ZoomPanBin>
           </Entry>
          </ExtraData>
         </VMFile>
         <MetaData>
          <entry key="WinSubProjectDisplayName" val=""/>
         </MetaData>
        </UnifiedMedia>
        <StitchedMedia id="4973" start="7298" duration="1" scalar="1733/3391" mediaStart="0/1" mediaDuration="3391/1733" minMediaStart="-108000/1" >
         <Transformer>
          <VectorParam id="4974"  name="translation">
           <InterpolatingParam id="4975" interp="linr"  time="-9999999/1" value="-2.8571428574254583" leadInLength="0/1"  interpolater="leadin-linr"  />
           <InterpolatingParam id="4976" interp="linr"  time="-9999999/1" value="213.7500000000648" leadInLength="0/1"  interpolater="leadin-linr"  />
           <InterpolatingParam id="4977" interp="linr"  time="-9999999/1" value="0" leadInLength="0/1"  interpolater="leadin-linr"  />
          </VectorParam>
          <VectorParam id="4978"  name="rotation">
           <InterpolatingParam id="4979" interp="linr"  time="-9999999/1" value="0" leadInLength="0/1"  interpolater="leadin-linr"  />
           <InterpolatingParam id="4980" interp="linr"  time="-9999999/1" value="0" leadInLength="0/1"  interpolater="leadin-linr"  />
           <InterpolatingParam id="4981" interp="linr"  time="-9999999/1" value="0" leadInLength="0/1"  interpolater="leadin-linr"  />
          </VectorParam>
          <VectorParam id="4982"  name="shear">
           <InterpolatingParam id="4983" interp="linr"  time="-9999999/1" value="0" leadInLength="0/1"  interpolater="leadin-linr"  />
           <InterpolatingParam id="4984" interp="linr"  time="-9999999/1" value="0" leadInLength="0/1"  interpolater="leadin-linr"  />
           <InterpolatingParam id="4985" interp="linr"  time="-9999999/1" value="0" leadInLength="0/1"  interpolater="leadin-linr"  />
          </VectorParam>
          <VectorParam id="4986"  name="scale">
           <InterpolatingParam id="4987" interp="linr"  time="-9999999/1" value="1.0625000000001199" leadInLength="0/1"  interpolater="leadin-linr"  />
           <InterpolatingParam id="4988" interp="linr"  time="-9999999/1" value="1.0625000000001203" leadInLength="0/1"  interpolater="leadin-linr"  />
           <InterpolatingParam id="4989" interp="linr"  time="-9999999/1" value="1" leadInLength="0/1"  interpolater="leadin-linr"  />
          </VectorParam>
          <VectorParam id="4990"  name="anchor">
           <InterpolatingParam id="4991" interp="linr"  time="971338490/18995283" value="0" leadInLength="0/1"  />
           <InterpolatingParam id="4992" interp="linr"  time="971338490/18995283" value="0" leadInLength="0/1"  />
           <InterpolatingParam id="4993" interp="linr"  time="971338490/18995283" value="0" leadInLength="0/1"  />
          </VectorParam>
         </Transformer>
         <Parameters>
          <VectorParam id="4994"  name="sourceCrop">
           <InterpolatingParam id="4995" interp="linr"  time="971338490/18995283" value="0" leadInLength="0/1"  />
           <InterpolatingParam id="4996" interp="linr"  time="971338490/18995283" value="0" leadInLength="0/1"  />
           <InterpolatingParam id="4997" interp="linr"  time="971338490/18995283" value="0" leadInLength="0/1"  />
           <InterpolatingParam id="4998" interp="linr"  time="971338490/18995283" value="0" leadInLength="0/1"  />
          </VectorParam>
          <VectorParam id="4999"  name="geometryCrop">
           <InterpolatingParam id="5000" interp="linr"  time="-9999999/1" value="0" leadInLength="0/1"  interpolater="leadin-linr"  />
           <InterpolatingParam id="5001" interp="linr"  time="-9999999/1" value="0" leadInLength="0/1"  interpolater="leadin-linr"  />
           <InterpolatingParam id="5002" interp="linr"  time="-9999999/1" value="0" leadInLength="0/1"  interpolater="leadin-linr"  />
           <InterpolatingParam id="5003" interp="linr"  time="-9999999/1" value="0" leadInLength="0/1"  interpolater="leadin-linr"  />
          </VectorParam>
          <InterpolatingParam id="5004" interp="linr"  time="-9999999/1" value="1" leadInLength="0/1"  interpolater="leadin-linr"  name="opacity"/>
          <InterpolatingParam id="5005" interp="linr"  time="0/1" value="1" leadInLength="0/1"  name="cursorOpacity"/>
          <InterpolatingParam id="5006" interp="linr"  time="0/1" value="1" leadInLength="0/1"  name="cursorScale"/>
          <InterpolatingParam id="5007" interp="linr"  name="volume">
           <Keyframes>
           <Keyframe id="5008"  time="-108000/1" value="0" leadInLength="0/1"  />
           <Keyframe id="5009"  time="0/1" value="0" leadInLength="0/1"  />
           <Keyframe id="5010"  time="2561728/53811" value="0" leadInLength="0/1"  />
           </Keyframes>
          </InterpolatingParam>
          <Parameter id="5011"  name="captions"/>
         </Parameters>
         <Attributes>
          <Attribute id="5012" value="" name="ident"/>
          <Attribute id="5013" value="0" name="mixToMono"/>
         </Attributes>
         <MetaData>
          <entry key="WinSubProjectDisplayName" val=""/>
         </MetaData>
         <ExtraData>
          <Entry key="ZoomPanBin">
           <ZoomPanBin id="5014"  >
            <ZoomPanKeyframes>
             <ZoomPanKeyframe id="5015" timeRangeEnd="-9999999/1" timeRangeDuration="0/1" interpolaterName="linr"  />
            </ZoomPanKeyframes>
           </ZoomPanBin>
          </Entry>
          <Entry key="CursorEffectBin">
           <CursorEffectBin id="5016"  >
            <CursorEffectKeyframes>
            </CursorEffectKeyframes>
           </CursorEffectBin>
          </Entry>
         </ExtraData>
         <GenericTrack id="5017"  >
          <Attributes>
           <Attribute id="5018" value="" name="ident"/>
           <Attribute id="5019" value="0" name="audioMuted"/>
           <Attribute id="5020" value="0" name="videoHidden"/>
          </Attributes>
          <MetaData>
           <entry key="IsLocked" val="False"/>
           <entry key="WinTrackHeight" val="0"/>
          </MetaData>
          <Medias>
           <IMFile id="5021" start="-108000" duration="108048" scalar="1/1" mediaStart="575/1" mediaDuration="1/1" trackNumber="0" src="26" trimStartSum="-108000/1" >
            <Transformer>
             <VectorParam id="5022"  name="translation">
              <InterpolatingParam id="5023" interp="linr"  time="-9999999/1" value="0" leadInLength="0/1"  />
              <InterpolatingParam id="5024" interp="linr"  time="-9999999/1" value="0" leadInLength="0/1"  />
              <InterpolatingParam id="5025" interp="linr"  time="-9999999/1" value="0" leadInLength="0/1"  />
             </VectorParam>
             <VectorParam id="5026"  name="rotation">
              <InterpolatingParam id="5027" interp="linr"  time="-9999999/1" value="0" leadInLength="0/1"  />
              <InterpolatingParam id="5028" interp="linr"  time="-9999999/1" value="0" leadInLength="0/1"  />
              <InterpolatingParam id="5029" interp="linr"  time="-9999999/1" value="0" leadInLength="0/1"  />
             </VectorParam>
             <VectorParam id="5030"  name="shear">
              <InterpolatingParam id="5031" interp="linr"  time="-9999999/1" value="0" leadInLength="0/1"  />
              <InterpolatingParam id="5032" interp="linr"  time="-9999999/1" value="0" leadInLength="0/1"  />
              <InterpolatingParam id="5033" interp="linr"  time="-9999999/1" value="0" leadInLength="0/1"  />
             </VectorParam>
             <VectorParam id="5034"  name="scale">
              <InterpolatingParam id="5035" interp="linr"  time="-9999999/1" value="1" leadInLength="0/1"  />
              <InterpolatingParam id="5036" interp="linr"  time="-9999999/1" value="1" leadInLength="0/1"  />
              <InterpolatingParam id="5037" interp="linr"  time="-9999999/1" value="1" leadInLength="0/1"  />
             </VectorParam>
             <VectorParam id="5038"  name="anchor">
              <InterpolatingParam id="5039" interp="linr"  time="0/1" value="0" leadInLength="0/1"  />
              <InterpolatingParam id="5040" interp="linr"  time="0/1" value="0" leadInLength="0/1"  />
              <InterpolatingParam id="5041" interp="linr"  time="0/1" value="0" leadInLength="0/1"  />
             </VectorParam>
            </Transformer>
            <Parameters>
             <VectorParam id="5042"  name="sourceCrop">
              <InterpolatingParam id="5043" interp="linr"  time="0/1" value="0" leadInLength="0/1"  />
              <InterpolatingParam id="5044" interp="linr"  time="0/1" value="0" leadInLength="0/1"  />
              <InterpolatingParam id="5045" interp="linr"  time="0/1" value="0" leadInLength="0/1"  />
              <InterpolatingParam id="5046" interp="linr"  time="0/1" value="0" leadInLength="0/1"  />
             </VectorParam>
             <VectorParam id="5047"  name="geometryCrop">
              <InterpolatingParam id="5048" interp="linr"  time="-9999999/1" value="0" leadInLength="0/1"  />
              <InterpolatingParam id="5049" interp="linr"  time="-9999999/1" value="0" leadInLength="0/1"  />
              <InterpolatingParam id="5050" interp="linr"  time="-9999999/1" value="0" leadInLength="0/1"  />
              <InterpolatingParam id="5051" interp="linr"  time="-9999999/1" value="0" leadInLength="0/1"  />
             </VectorParam>
             <InterpolatingParam id="5052" interp="linr"  time="-9999999/1" value="1" leadInLength="0/1"  name="opacity"/>
            </Parameters>
            <Attributes>
             <Attribute id="5053" value="" name="ident"/>
            </Attributes>
            <MetaData>
             <entry key="WinSubProjectDisplayName" val=""/>
            </MetaData>
            <ExtraData>
             <Entry key="ZoomPanBin">
              <ZoomPanBin id="5054"  >
               <ZoomPanKeyframes>
               </ZoomPanKeyframes>
              </ZoomPanBin>
             </Entry>
            </ExtraData>
           </IMFile>
           <UnifiedMedia id="5055"  >
            <AMFile id="5056" start="48" duration="4" scalar="1/1" mediaStart="575/1" mediaDuration="4/1" trackNumber="1" src="26" channelNumber="0" >
             <Parameters>
              <InterpolatingParam id="5057" interp="linr"  time="0/1" value="1" leadInLength="0/1"  name="volume"/>
              <Parameter id="5058"  name="captions"/>
             </Parameters>
             <Attributes>
              <Attribute id="5059" value="" name="ident"/>
              <Attribute id="5060" value="44100" name="sampleRate"/>
              <Attribute id="5061" value="16" name="bitDepth"/>
              <Attribute id="5062" value="1" name="gain"/>
              <Attribute id="5063" value="0" name="mixToMono"/>
             </Attributes>
            </AMFile>
            <VMFile id="5064" start="48" duration="4" scalar="1/1" mediaStart="575/1" mediaDuration="4/1" trackNumber="0" src="26" >
             <Transformer>
              <VectorParam id="5065"  name="translation">
               <InterpolatingParam id="5066" interp="linr"  time="-9999999/1" value="0" leadInLength="0/1"  />
               <InterpolatingParam id="5067" interp="linr"  time="-9999999/1" value="0" leadInLength="0/1"  />
               <InterpolatingParam id="5068" interp="linr"  time="-9999999/1" value="0" leadInLength="0/1"  />
              </VectorParam>
              <VectorParam id="5069"  name="rotation">
               <InterpolatingParam id="5070" interp="linr"  time="-9999999/1" value="0" leadInLength="0/1"  />
               <InterpolatingParam id="5071" interp="linr"  time="-9999999/1" value="0" leadInLength="0/1"  />
               <InterpolatingParam id="5072" interp="linr"  time="-9999999/1" value="0" leadInLength="0/1"  />
              </VectorParam>
              <VectorParam id="5073"  name="shear">
               <InterpolatingParam id="5074" interp="linr"  time="-9999999/1" value="0" leadInLength="0/1"  />
               <InterpolatingParam id="5075" interp="linr"  time="-9999999/1" value="0" leadInLength="0/1"  />
               <InterpolatingParam id="5076" interp="linr"  time="-9999999/1" value="0" leadInLength="0/1"  />
              </VectorParam>
              <VectorParam id="5077"  name="scale">
               <InterpolatingParam id="5078" interp="linr"  time="-9999999/1" value="1" leadInLength="0/1"  />
               <InterpolatingParam id="5079" interp="linr"  time="-9999999/1" value="1" leadInLength="0/1"  />
               <InterpolatingParam id="5080" interp="linr"  time="-9999999/1" value="1" leadInLength="0/1"  />
              </VectorParam>
              <VectorParam id="5081"  name="anchor">
               <InterpolatingParam id="5082" interp="linr"  time="0/1" value="0" leadInLength="0/1"  />
               <InterpolatingParam id="5083" interp="linr"  time="0/1" value="0" leadInLength="0/1"  />
               <InterpolatingParam id="5084" interp="linr"  time="0/1" value="0" leadInLength="0/1"  />
              </VectorParam>
             </Transformer>
             <Parameters>
              <VectorParam id="5085"  name="sourceCrop">
               <InterpolatingParam id="5086" interp="linr"  time="0/1" value="0" leadInLength="0/1"  />
               <InterpolatingParam id="5087" interp="linr"  time="0/1" value="0" leadInLength="0/1"  />
               <InterpolatingParam id="5088" interp="linr"  time="0/1" value="0" leadInLength="0/1"  />
               <InterpolatingParam id="5089" interp="linr"  time="0/1" value="0" leadInLength="0/1"  />
              </VectorParam>
              <VectorParam id="5090"  name="geometryCrop">
               <InterpolatingParam id="5091" interp="linr"  time="-9999999/1" value="0" leadInLength="0/1"  />
               <InterpolatingParam id="5092" interp="linr"  time="-9999999/1" value="0" leadInLength="0/1"  />
               <InterpolatingParam id="5093" interp="linr"  time="-9999999/1" value="0" leadInLength="0/1"  />
               <InterpolatingParam id="5094" interp="linr"  time="-9999999/1" value="0" leadInLength="0/1"  />
              </VectorParam>
              <InterpolatingParam id="5095" interp="linr"  time="-9999999/1" value="1" leadInLength="0/1"  name="opacity"/>
             </Parameters>
             <Attributes>
              <Attribute id="5096" value="" name="ident"/>
             </Attributes>
             <ExtraData>
              <Entry key="ZoomPanBin">
               <ZoomPanBin id="5097"  >
                <ZoomPanKeyframes>
                </ZoomPanKeyframes>
               </ZoomPanBin>
              </Entry>
             </ExtraData>
            </VMFile>
            <MetaData>
             <entry key="WinSubProjectDisplayName" val=""/>
            </MetaData>
           </UnifiedMedia>
           <IMFile id="5098" start="52" duration="964" scalar="1/1" mediaStart="578/1" mediaDuration="1/1" trackNumber="0" src="26" trimStartSum="0/1" >
            <Transformer>
             <VectorParam id="5099"  name="translation">
              <InterpolatingParam id="5100" interp="linr"  time="-9999999/1" value="0" leadInLength="0/1"  />
              <InterpolatingParam id="5101" interp="linr"  time="-9999999/1" value="0" leadInLength="0/1"  />
              <InterpolatingParam id="5102" interp="linr"  time="-9999999/1" value="0" leadInLength="0/1"  />
             </VectorParam>
             <VectorParam id="5103"  name="rotation">
              <InterpolatingParam id="5104" interp="linr"  time="-9999999/1" value="0" leadInLength="0/1"  />
              <InterpolatingParam id="5105" interp="linr"  time="-9999999/1" value="0" leadInLength="0/1"  />
              <InterpolatingParam id="5106" interp="linr"  time="-9999999/1" value="0" leadInLength="0/1"  />
             </VectorParam>
             <VectorParam id="5107"  name="shear">
              <InterpolatingParam id="5108" interp="linr"  time="-9999999/1" value="0" leadInLength="0/1"  />
              <InterpolatingParam id="5109" interp="linr"  time="-9999999/1" value="0" leadInLength="0/1"  />
              <InterpolatingParam id="5110" interp="linr"  time="-9999999/1" value="0" leadInLength="0/1"  />
             </VectorParam>
             <VectorParam id="5111"  name="scale">
              <InterpolatingParam id="5112" interp="linr"  time="-9999999/1" value="1" leadInLength="0/1"  />
              <InterpolatingParam id="5113" interp="linr"  time="-9999999/1" value="1" leadInLength="0/1"  />
              <InterpolatingParam id="5114" interp="linr"  time="-9999999/1" value="1" leadInLength="0/1"  />
             </VectorParam>
             <VectorParam id="5115"  name="anchor">
              <InterpolatingParam id="5116" interp="linr"  time="0/1" value="0" leadInLength="0/1"  />
              <InterpolatingParam id="5117" interp="linr"  time="0/1" value="0" leadInLength="0/1"  />
              <InterpolatingParam id="5118" interp="linr"  time="0/1" value="0" leadInLength="0/1"  />
             </VectorParam>
            </Transformer>
            <Parameters>
             <VectorParam id="5119"  name="sourceCrop">
              <InterpolatingParam id="5120" interp="linr"  time="0/1" value="0" leadInLength="0/1"  />
              <InterpolatingParam id="5121" interp="linr"  time="0/1" value="0" leadInLength="0/1"  />
              <InterpolatingParam id="5122" interp="linr"  time="0/1" value="0" leadInLength="0/1"  />
              <InterpolatingParam id="5123" interp="linr"  time="0/1" value="0" leadInLength="0/1"  />
             </VectorParam>
             <VectorParam id="5124"  name="geometryCrop">
              <InterpolatingParam id="5125" interp="linr"  time="-9999999/1" value="0" leadInLength="0/1"  />
              <InterpolatingParam id="5126" interp="linr"  time="-9999999/1" value="0" leadInLength="0/1"  />
              <InterpolatingParam id="5127" interp="linr"  time="-9999999/1" value="0" leadInLength="0/1"  />
              <InterpolatingParam id="5128" interp="linr"  time="-9999999/1" value="0" leadInLength="0/1"  />
             </VectorParam>
             <InterpolatingParam id="5129" interp="linr"  time="-9999999/1" value="1" leadInLength="0/1"  name="opacity"/>
            </Parameters>
            <Attributes>
             <Attribute id="5130" value="" name="ident"/>
            </Attributes>
            <MetaData>
             <entry key="WinSubProjectDisplayName" val=""/>
            </MetaData>
            <ExtraData>
             <Entry key="ZoomPanBin">
              <ZoomPanBin id="5131"  >
               <ZoomPanKeyframes>
               </ZoomPanKeyframes>
              </ZoomPanBin>
             </Entry>
            </ExtraData>
           </IMFile>
           <UnifiedMedia id="5132"  >
            <AMFile id="5133" start="1016" duration="2375" scalar="1/1" mediaStart="577/1" mediaDuration="2375/1" trackNumber="1" src="26" channelNumber="0" >
             <Parameters>
              <InterpolatingParam id="5134" interp="linr"  time="0/1" value="1" leadInLength="0/1"  name="volume"/>
              <Parameter id="5135"  name="captions"/>
             </Parameters>
             <Attributes>
              <Attribute id="5136" value="" name="ident"/>
              <Attribute id="5137" value="44100" name="sampleRate"/>
              <Attribute id="5138" value="16" name="bitDepth"/>
              <Attribute id="5139" value="1" name="gain"/>
              <Attribute id="5140" value="0" name="mixToMono"/>
             </Attributes>
            </AMFile>
            <VMFile id="5141" start="1016" duration="2375" scalar="1/1" mediaStart="577/1" mediaDuration="2375/1" trackNumber="0" src="26" >
             <Transformer>
              <VectorParam id="5142"  name="translation">
               <InterpolatingParam id="5143" interp="linr"  time="-9999999/1" value="0" leadInLength="0/1"  />
               <InterpolatingParam id="5144" interp="linr"  time="-9999999/1" value="0" leadInLength="0/1"  />
               <InterpolatingParam id="5145" interp="linr"  time="-9999999/1" value="0" leadInLength="0/1"  />
              </VectorParam>
              <VectorParam id="5146"  name="rotation">
               <InterpolatingParam id="5147" interp="linr"  time="-9999999/1" value="0" leadInLength="0/1"  />
               <InterpolatingParam id="5148" interp="linr"  time="-9999999/1" value="0" leadInLength="0/1"  />
               <InterpolatingParam id="5149" interp="linr"  time="-9999999/1" value="0" leadInLength="0/1"  />
              </VectorParam>
              <VectorParam id="5150"  name="shear">
               <InterpolatingParam id="5151" interp="linr"  time="-9999999/1" value="0" leadInLength="0/1"  />
               <InterpolatingParam id="5152" interp="linr"  time="-9999999/1" value="0" leadInLength="0/1"  />
               <InterpolatingParam id="5153" interp="linr"  time="-9999999/1" value="0" leadInLength="0/1"  />
              </VectorParam>
              <VectorParam id="5154"  name="scale">
               <InterpolatingParam id="5155" interp="linr"  time="-9999999/1" value="1" leadInLength="0/1"  />
               <InterpolatingParam id="5156" interp="linr"  time="-9999999/1" value="1" leadInLength="0/1"  />
               <InterpolatingParam id="5157" interp="linr"  time="-9999999/1" value="1" leadInLength="0/1"  />
              </VectorParam>
              <VectorParam id="5158"  name="anchor">
               <InterpolatingParam id="5159" interp="linr"  time="0/1" value="0" leadInLength="0/1"  />
               <InterpolatingParam id="5160" interp="linr"  time="0/1" value="0" leadInLength="0/1"  />
               <InterpolatingParam id="5161" interp="linr"  time="0/1" value="0" leadInLength="0/1"  />
              </VectorParam>
             </Transformer>
             <Parameters>
              <VectorParam id="5162"  name="sourceCrop">
               <InterpolatingParam id="5163" interp="linr"  time="0/1" value="0" leadInLength="0/1"  />
               <InterpolatingParam id="5164" interp="linr"  time="0/1" value="0" leadInLength="0/1"  />
               <InterpolatingParam id="5165" interp="linr"  time="0/1" value="0" leadInLength="0/1"  />
               <InterpolatingParam id="5166" interp="linr"  time="0/1" value="0" leadInLength="0/1"  />
              </VectorParam>
              <VectorParam id="5167"  name="geometryCrop">
               <InterpolatingParam id="5168" interp="linr"  time="-9999999/1" value="0" leadInLength="0/1"  />
               <InterpolatingParam id="5169" interp="linr"  time="-9999999/1" value="0" leadInLength="0/1"  />
               <InterpolatingParam id="5170" interp="linr"  time="-9999999/1" value="0" leadInLength="0/1"  />
               <InterpolatingParam id="5171" interp="linr"  time="-9999999/1" value="0" leadInLength="0/1"  />
              </VectorParam>
              <InterpolatingParam id="5172" interp="linr"  time="-9999999/1" value="1" leadInLength="0/1"  name="opacity"/>
             </Parameters>
             <Attributes>
              <Attribute id="5173" value="" name="ident"/>
             </Attributes>
             <ExtraData>
              <Entry key="ZoomPanBin">
               <ZoomPanBin id="5174"  >
                <ZoomPanKeyframes>
                </ZoomPanKeyframes>
               </ZoomPanBin>
              </Entry>
             </ExtraData>
            </VMFile>
            <MetaData>
             <entry key="WinSubProjectDisplayName" val=""/>
            </MetaData>
           </UnifiedMedia>
          </Medias>
         </GenericTrack>
        </StitchedMedia>
        <StitchedMedia id="5175" start="7299" duration="140" scalar="16708125/8647991" mediaStart="15431659/24225" mediaDuration="34591964/477375" minMediaStart="0/1" >
         <Transformer>
          <VectorParam id="5176"  name="translation">
           <InterpolatingParam id="5177" interp="linr"  time="-9999999/1" value="-64.054283290940219" leadInLength="0/1"  />
           <InterpolatingParam id="5178" interp="linr"  time="-9999999/1" value="316.33587786259488" leadInLength="0/1"  />
           <InterpolatingParam id="5179" interp="linr"  time="-9999999/1" value="0" leadInLength="0/1"  />
          </VectorParam>
          <VectorParam id="5180"  name="rotation">
           <InterpolatingParam id="5181" interp="linr"  time="-9999999/1" value="0" leadInLength="0/1"  />
           <InterpolatingParam id="5182" interp="linr"  time="-9999999/1" value="0" leadInLength="0/1"  />
           <InterpolatingParam id="5183" interp="linr"  time="-9999999/1" value="0" leadInLength="0/1"  />
          </VectorParam>
          <VectorParam id="5184"  name="shear">
           <InterpolatingParam id="5185" interp="linr"  time="-9999999/1" value="0" leadInLength="0/1"  />
           <InterpolatingParam id="5186" interp="linr"  time="-9999999/1" value="0" leadInLength="0/1"  />
           <InterpolatingParam id="5187" interp="linr"  time="-9999999/1" value="0" leadInLength="0/1"  />
          </VectorParam>
          <VectorParam id="5188"  name="scale">
           <InterpolatingParam id="5189" interp="linr"  time="-9999999/1" value="1.2524738478938717" leadInLength="0/1"  />
           <InterpolatingParam id="5190" interp="linr"  time="-9999999/1" value="1.2524738478938722" leadInLength="0/1"  />
           <InterpolatingParam id="5191" interp="linr"  time="-9999999/1" value="1" leadInLength="0/1"  />
          </VectorParam>
          <VectorParam id="5192"  name="anchor">
           <InterpolatingParam id="5193" interp="linr"  >
            <Keyframes>
            <Keyframe id="5194"  time="0/1" value="0" leadInLength="0/1"  />
            <Keyframe id="5195"  time="553/1" value="0" leadInLength="0/1"  />
            </Keyframes>
           </InterpolatingParam>
           <InterpolatingParam id="5196" interp="linr"  >
            <Keyframes>
            <Keyframe id="5197"  time="0/1" value="0" leadInLength="0/1"  />
            <Keyframe id="5198"  time="553/1" value="0" leadInLength="0/1"  />
            </Keyframes>
           </InterpolatingParam>
           <InterpolatingParam id="5199" interp="linr"  >
            <Keyframes>
            <Keyframe id="5200"  time="0/1" value="0" leadInLength="0/1"  />
            <Keyframe id="5201"  time="553/1" value="0" leadInLength="0/1"  />
            </Keyframes>
           </InterpolatingParam>
          </VectorParam>
         </Transformer>
         <Parameters>
          <VectorParam id="5202"  name="sourceCrop">
           <InterpolatingParam id="5203" interp="linr"  >
            <Keyframes>
            <Keyframe id="5204"  time="0/1" value="0" leadInLength="0/1"  />
            <Keyframe id="5205"  time="553/1" value="0" leadInLength="0/1"  />
            </Keyframes>
           </InterpolatingParam>
           <InterpolatingParam id="5206" interp="linr"  >
            <Keyframes>
            <Keyframe id="5207"  time="0/1" value="0" leadInLength="0/1"  />
            <Keyframe id="5208"  time="553/1" value="0" leadInLength="0/1"  />
            </Keyframes>
           </InterpolatingParam>
           <InterpolatingParam id="5209" interp="linr"  >
            <Keyframes>
            <Keyframe id="5210"  time="0/1" value="0" leadInLength="0/1"  />
            <Keyframe id="5211"  time="553/1" value="0" leadInLength="0/1"  />
            </Keyframes>
           </InterpolatingParam>
           <InterpolatingParam id="5212" interp="linr"  >
            <Keyframes>
            <Keyframe id="5213"  time="0/1" value="0" leadInLength="0/1"  />
            <Keyframe id="5214"  time="553/1" value="0" leadInLength="0/1"  />
            </Keyframes>
           </InterpolatingParam>
          </VectorParam>
          <VectorParam id="5215"  name="geometryCrop">
           <InterpolatingParam id="5216" interp="linr"  time="-9999999/1" value="0" leadInLength="0/1"  />
           <InterpolatingParam id="5217" interp="linr"  time="-9999999/1" value="0" leadInLength="0/1"  />
           <InterpolatingParam id="5218" interp="linr"  time="-9999999/1" value="0" leadInLength="0/1"  />
           <InterpolatingParam id="5219" interp="linr"  time="-9999999/1" value="0" leadInLength="0/1"  />
          </VectorParam>
          <InterpolatingParam id="5220" interp="linr"  time="-9999999/1" value="1" leadInLength="0/1"  name="opacity"/>
          <InterpolatingParam id="5221" interp="linr"  time="0/1" value="1" leadInLength="0/1"  name="cursorOpacity"/>
          <InterpolatingParam id="5222" interp="linr"  time="0/1" value="1" leadInLength="0/1"  name="cursorScale"/>
          <InterpolatingParam id="5223" interp="linr"  name="volume">
           <Keyframes>
           <Keyframe id="5224"  time="0/1" value="1" leadInLength="0/1"  />
           <Keyframe id="5225"  time="324224/589" value="1" leadInLength="0/1"  />
           <Keyframe id="5226"  time="2928481/5301" value="0" leadInLength="0/1"  />
           <Keyframe id="5227"  time="18123508/18259" value="0" leadInLength="0/1"  />
           <Keyframe id="5228"  time="163435987/164331" value="1" leadInLength="0/1"  />
           <Keyframe id="5229"  time="54481039/54777" value="1" leadInLength="0/1"  />
           </Keyframes>
          </InterpolatingParam>
          <Parameter id="5230"  name="captions"/>
         </Parameters>
         <Attributes>
          <Attribute id="5231" value="" name="ident"/>
          <Attribute id="5232" value="0" name="mixToMono"/>
         </Attributes>
         <MetaData>
          <entry key="WinSubProjectDisplayName" val=""/>
         </MetaData>
         <ExtraData>
          <Entry key="ZoomPanBin">
           <ZoomPanBin id="5233"  >
            <ZoomPanKeyframes>
             <ZoomPanKeyframe id="5234" timeRangeEnd="-9999999/1" timeRangeDuration="0/1" interpolaterName="linr"  />
            </ZoomPanKeyframes>
           </ZoomPanBin>
          </Entry>
          <Entry key="CursorEffectBin">
           <CursorEffectBin id="5235"  >
            <CursorEffectKeyframes>
            </CursorEffectKeyframes>
           </CursorEffectBin>
          </Entry>
         </ExtraData>
         <GenericTrack id="5236"  >
          <Attributes>
           <Attribute id="5237" value="" name="ident"/>
           <Attribute id="5238" value="0" name="audioMuted"/>
           <Attribute id="5239" value="0" name="videoHidden"/>
          </Attributes>
          <MetaData>
           <entry key="IsLocked" val="False"/>
           <entry key="WinTrackHeight" val="0"/>
          </MetaData>
          <Medias>
           <UnifiedMedia id="5240"  >
            <AMFile id="5241" start="0" duration="553" scalar="1/1" mediaStart="0/1" mediaDuration="553/1" trackNumber="1" src="27" channelNumber="0" >
             <Parameters>
              <InterpolatingParam id="5242" interp="linr"  time="0/1" value="1" leadInLength="0/1"  name="volume"/>
              <Parameter id="5243"  name="captions"/>
             </Parameters>
             <Attributes>
              <Attribute id="5244" value="" name="ident"/>
              <Attribute id="5245" value="48000" name="sampleRate"/>
              <Attribute id="5246" value="16" name="bitDepth"/>
              <Attribute id="5247" value="1" name="gain"/>
              <Attribute id="5248" value="0" name="mixToMono"/>
             </Attributes>
            </AMFile>
            <VMFile id="5249" start="0" duration="553" scalar="1/1" mediaStart="0/1" mediaDuration="553/1" trackNumber="0" src="27" >
             <Transformer>
              <VectorParam id="5250"  name="translation">
               <InterpolatingParam id="5251" interp="linr"  time="-9999999/1" value="0" leadInLength="0/1"  />
               <InterpolatingParam id="5252" interp="linr"  time="-9999999/1" value="0" leadInLength="0/1"  />
               <InterpolatingParam id="5253" interp="linr"  time="-9999999/1" value="0" leadInLength="0/1"  />
              </VectorParam>
              <VectorParam id="5254"  name="rotation">
               <InterpolatingParam id="5255" interp="linr"  time="-9999999/1" value="0" leadInLength="0/1"  />
               <InterpolatingParam id="5256" interp="linr"  time="-9999999/1" value="0" leadInLength="0/1"  />
               <InterpolatingParam id="5257" interp="linr"  time="-9999999/1" value="0" leadInLength="0/1"  />
              </VectorParam>
              <VectorParam id="5258"  name="shear">
               <InterpolatingParam id="5259" interp="linr"  time="-9999999/1" value="0" leadInLength="0/1"  />
               <InterpolatingParam id="5260" interp="linr"  time="-9999999/1" value="0" leadInLength="0/1"  />
               <InterpolatingParam id="5261" interp="linr"  time="-9999999/1" value="0" leadInLength="0/1"  />
              </VectorParam>
              <VectorParam id="5262"  name="scale">
               <InterpolatingParam id="5263" interp="linr"  time="-9999999/1" value="1" leadInLength="0/1"  />
               <InterpolatingParam id="5264" interp="linr"  time="-9999999/1" value="1" leadInLength="0/1"  />
               <InterpolatingParam id="5265" interp="linr"  time="-9999999/1" value="1" leadInLength="0/1"  />
              </VectorParam>
              <VectorParam id="5266"  name="anchor">
               <InterpolatingParam id="5267" interp="linr"  time="0/1" value="0" leadInLength="0/1"  />
               <InterpolatingParam id="5268" interp="linr"  time="0/1" value="0" leadInLength="0/1"  />
               <InterpolatingParam id="5269" interp="linr"  time="0/1" value="0" leadInLength="0/1"  />
              </VectorParam>
             </Transformer>
             <Parameters>
              <VectorParam id="5270"  name="sourceCrop">
               <InterpolatingParam id="5271" interp="linr"  time="0/1" value="0" leadInLength="0/1"  />
               <InterpolatingParam id="5272" interp="linr"  time="0/1" value="0" leadInLength="0/1"  />
               <InterpolatingParam id="5273" interp="linr"  time="0/1" value="0" leadInLength="0/1"  />
               <InterpolatingParam id="5274" interp="linr"  time="0/1" value="0" leadInLength="0/1"  />
              </VectorParam>
              <VectorParam id="5275"  name="geometryCrop">
               <InterpolatingParam id="5276" interp="linr"  time="-9999999/1" value="0" leadInLength="0/1"  />
               <InterpolatingParam id="5277" interp="linr"  time="-9999999/1" value="0" leadInLength="0/1"  />
               <InterpolatingParam id="5278" interp="linr"  time="-9999999/1" value="0" leadInLength="0/1"  />
               <InterpolatingParam id="5279" interp="linr"  time="-9999999/1" value="0" leadInLength="0/1"  />
              </VectorParam>
              <InterpolatingParam id="5280" interp="linr"  time="-9999999/1" value="1" leadInLength="0/1"  name="opacity"/>
             </Parameters>
             <Attributes>
              <Attribute id="5281" value="" name="ident"/>
             </Attributes>
             <ExtraData>
              <Entry key="ZoomPanBin">
               <ZoomPanBin id="5282"  >
                <ZoomPanKeyframes>
                 <ZoomPanKeyframe id="5283" timeRangeEnd="-9999999/1" timeRangeDuration="0/1" interpolaterName="linr"  />
                </ZoomPanKeyframes>
               </ZoomPanBin>
              </Entry>
             </ExtraData>
            </VMFile>
            <MetaData>
             <entry key="WinSubProjectDisplayName" val=""/>
            </MetaData>
           </UnifiedMedia>
           <IMFile id="5284" start="553" duration="225" scalar="1/1" mediaStart="554/1" mediaDuration="1/1" trackNumber="0" src="27" trimStartSum="0/1" >
            <Transformer>
             <VectorParam id="5285"  name="translation">
              <InterpolatingParam id="5286" interp="linr"  time="-9999999/1" value="0" leadInLength="0/1"  />
              <InterpolatingParam id="5287" interp="linr"  time="-9999999/1" value="0" leadInLength="0/1"  />
              <InterpolatingParam id="5288" interp="linr"  time="-9999999/1" value="0" leadInLength="0/1"  />
             </VectorParam>
             <VectorParam id="5289"  name="rotation">
              <InterpolatingParam id="5290" interp="linr"  time="-9999999/1" value="0" leadInLength="0/1"  />
              <InterpolatingParam id="5291" interp="linr"  time="-9999999/1" value="0" leadInLength="0/1"  />
              <InterpolatingParam id="5292" interp="linr"  time="-9999999/1" value="0" leadInLength="0/1"  />
             </VectorParam>
             <VectorParam id="5293"  name="shear">
              <InterpolatingParam id="5294" interp="linr"  time="-9999999/1" value="0" leadInLength="0/1"  />
              <InterpolatingParam id="5295" interp="linr"  time="-9999999/1" value="0" leadInLength="0/1"  />
              <InterpolatingParam id="5296" interp="linr"  time="-9999999/1" value="0" leadInLength="0/1"  />
             </VectorParam>
             <VectorParam id="5297"  name="scale">
              <InterpolatingParam id="5298" interp="linr"  time="-9999999/1" value="1" leadInLength="0/1"  />
              <InterpolatingParam id="5299" interp="linr"  time="-9999999/1" value="1" leadInLength="0/1"  />
              <InterpolatingParam id="5300" interp="linr"  time="-9999999/1" value="1" leadInLength="0/1"  />
             </VectorParam>
             <VectorParam id="5301"  name="anchor">
              <InterpolatingParam id="5302" interp="linr"  time="0/1" value="0" leadInLength="0/1"  />
              <InterpolatingParam id="5303" interp="linr"  time="0/1" value="0" leadInLength="0/1"  />
              <InterpolatingParam id="5304" interp="linr"  time="0/1" value="0" leadInLength="0/1"  />
             </VectorParam>
            </Transformer>
            <Parameters>
             <VectorParam id="5305"  name="sourceCrop">
              <InterpolatingParam id="5306" interp="linr"  time="0/1" value="0" leadInLength="0/1"  />
              <InterpolatingParam id="5307" interp="linr"  time="0/1" value="0" leadInLength="0/1"  />
              <InterpolatingParam id="5308" interp="linr"  time="0/1" value="0" leadInLength="0/1"  />
              <InterpolatingParam id="5309" interp="linr"  time="0/1" value="0" leadInLength="0/1"  />
             </VectorParam>
             <VectorParam id="5310"  name="geometryCrop">
              <InterpolatingParam id="5311" interp="linr"  time="-9999999/1" value="0" leadInLength="0/1"  />
              <InterpolatingParam id="5312" interp="linr"  time="-9999999/1" value="0" leadInLength="0/1"  />
              <InterpolatingParam id="5313" interp="linr"  time="-9999999/1" value="0" leadInLength="0/1"  />
              <InterpolatingParam id="5314" interp="linr"  time="-9999999/1" value="0" leadInLength="0/1"  />
             </VectorParam>
             <InterpolatingParam id="5315" interp="linr"  time="-9999999/1" value="1" leadInLength="0/1"  name="opacity"/>
            </Parameters>
            <Attributes>
             <Attribute id="5316" value="" name="ident"/>
            </Attributes>
            <MetaData>
             <entry key="WinSubProjectDisplayName" val=""/>
            </MetaData>
            <ExtraData>
             <Entry key="ZoomPanBin">
              <ZoomPanBin id="5317"  >
               <ZoomPanKeyframes>
                <ZoomPanKeyframe id="5318" timeRangeEnd="-9999999/1" timeRangeDuration="0/1" interpolaterName="linr"  />
               </ZoomPanKeyframes>
              </ZoomPanBin>
             </Entry>
            </ExtraData>
           </IMFile>
           <UnifiedMedia id="5319"  >
            <AMFile id="5320" start="778" duration="635" scalar="1/1" mediaStart="552/1" mediaDuration="635/1" trackNumber="1" src="27" channelNumber="0" >
             <Parameters>
              <InterpolatingParam id="5321" interp="linr"  time="0/1" value="1" leadInLength="0/1"  name="volume"/>
              <Parameter id="5322"  name="captions"/>
             </Parameters>
             <Attributes>
              <Attribute id="5323" value="" name="ident"/>
              <Attribute id="5324" value="48000" name="sampleRate"/>
              <Attribute id="5325" value="16" name="bitDepth"/>
              <Attribute id="5326" value="1" name="gain"/>
              <Attribute id="5327" value="0" name="mixToMono"/>
             </Attributes>
            </AMFile>
            <VMFile id="5328" start="778" duration="635" scalar="1/1" mediaStart="552/1" mediaDuration="635/1" trackNumber="0" src="27" >
             <Transformer>
              <VectorParam id="5329"  name="translation">
               <InterpolatingParam id="5330" interp="linr"  time="-9999999/1" value="0" leadInLength="0/1"  />
               <InterpolatingParam id="5331" interp="linr"  time="-9999999/1" value="0" leadInLength="0/1"  />
               <InterpolatingParam id="5332" interp="linr"  time="-9999999/1" value="0" leadInLength="0/1"  />
              </VectorParam>
              <VectorParam id="5333"  name="rotation">
               <InterpolatingParam id="5334" interp="linr"  time="-9999999/1" value="0" leadInLength="0/1"  />
               <InterpolatingParam id="5335" interp="linr"  time="-9999999/1" value="0" leadInLength="0/1"  />
               <InterpolatingParam id="5336" interp="linr"  time="-9999999/1" value="0" leadInLength="0/1"  />
              </VectorParam>
              <VectorParam id="5337"  name="shear">
               <InterpolatingParam id="5338" interp="linr"  time="-9999999/1" value="0" leadInLength="0/1"  />
               <InterpolatingParam id="5339" interp="linr"  time="-9999999/1" value="0" leadInLength="0/1"  />
               <InterpolatingParam id="5340" interp="linr"  time="-9999999/1" value="0" leadInLength="0/1"  />
              </VectorParam>
              <VectorParam id="5341"  name="scale">
               <InterpolatingParam id="5342" interp="linr"  time="-9999999/1" value="1" leadInLength="0/1"  />
               <InterpolatingParam id="5343" interp="linr"  time="-9999999/1" value="1" leadInLength="0/1"  />
               <InterpolatingParam id="5344" interp="linr"  time="-9999999/1" value="1" leadInLength="0/1"  />
              </VectorParam>
              <VectorParam id="5345"  name="anchor">
               <InterpolatingParam id="5346" interp="linr"  time="0/1" value="0" leadInLength="0/1"  />
               <InterpolatingParam id="5347" interp="linr"  time="0/1" value="0" leadInLength="0/1"  />
               <InterpolatingParam id="5348" interp="linr"  time="0/1" value="0" leadInLength="0/1"  />
              </VectorParam>
             </Transformer>
             <Parameters>
              <VectorParam id="5349"  name="sourceCrop">
               <InterpolatingParam id="5350" interp="linr"  time="0/1" value="0" leadInLength="0/1"  />
               <InterpolatingParam id="5351" interp="linr"  time="0/1" value="0" leadInLength="0/1"  />
               <InterpolatingParam id="5352" interp="linr"  time="0/1" value="0" leadInLength="0/1"  />
               <InterpolatingParam id="5353" interp="linr"  time="0/1" value="0" leadInLength="0/1"  />
              </VectorParam>
              <VectorParam id="5354"  name="geometryCrop">
               <InterpolatingParam id="5355" interp="linr"  time="-9999999/1" value="0" leadInLength="0/1"  />
               <InterpolatingParam id="5356" interp="linr"  time="-9999999/1" value="0" leadInLength="0/1"  />
               <InterpolatingParam id="5357" interp="linr"  time="-9999999/1" value="0" leadInLength="0/1"  />
               <InterpolatingParam id="5358" interp="linr"  time="-9999999/1" value="0" leadInLength="0/1"  />
              </VectorParam>
              <InterpolatingParam id="5359" interp="linr"  time="-9999999/1" value="1" leadInLength="0/1"  name="opacity"/>
             </Parameters>
             <Attributes>
              <Attribute id="5360" value="" name="ident"/>
             </Attributes>
             <ExtraData>
              <Entry key="ZoomPanBin">
               <ZoomPanBin id="5361"  >
                <ZoomPanKeyframes>
                 <ZoomPanKeyframe id="5362" timeRangeEnd="-9999999/1" timeRangeDuration="0/1" interpolaterName="linr"  />
                </ZoomPanKeyframes>
               </ZoomPanBin>
              </Entry>
             </ExtraData>
            </VMFile>
            <MetaData>
             <entry key="WinSubProjectDisplayName" val=""/>
            </MetaData>
           </UnifiedMedia>
          </Medias>
         </GenericTrack>
        </StitchedMedia>
        <StitchedMedia id="5363" start="7439" duration="34" scalar="169218/86285" mediaStart="550832/711" mediaDuration="86285/4977" minMediaStart="0/1" >
         <Transformer>
          <VectorParam id="5364"  name="translation">
           <InterpolatingParam id="5365" interp="linr"  >
            <Keyframes>
            <Keyframe id="5366"  time="-9999999/1" value="-64.054283290940219" leadInLength="0/1"  />
            <Keyframe id="5367"  time="137569391/169218" value="-68.05428329093462" leadInLength="86285/84609"  interpolater="leadin-linr"  />
            </Keyframes>
           </InterpolatingParam>
           <InterpolatingParam id="5368" interp="linr"  >
            <Keyframes>
            <Keyframe id="5369"  time="-9999999/1" value="316.33587786259488" leadInLength="0/1"  />
            <Keyframe id="5370"  time="137569391/169218" value="164.33587786261597" leadInLength="86285/84609"  interpolater="leadin-linr"  />
            </Keyframes>
           </InterpolatingParam>
           <InterpolatingParam id="5371" interp="linr"  >
            <Keyframes>
            <Keyframe id="5372"  time="-9999999/1" value="0" leadInLength="0/1"  />
            <Keyframe id="5373"  time="137569391/169218" value="0" leadInLength="86285/84609"  interpolater="leadin-linr"  />
            </Keyframes>
           </InterpolatingParam>
          </VectorParam>
          <VectorParam id="5374"  name="rotation">
           <InterpolatingParam id="5375" interp="linr"  >
            <Keyframes>
            <Keyframe id="5376"  time="-9999999/1" value="0" leadInLength="0/1"  />
            <Keyframe id="5377"  time="137569391/169218" value="0" leadInLength="86285/84609"  interpolater="leadin-linr"  />
            </Keyframes>
           </InterpolatingParam>
           <InterpolatingParam id="5378" interp="linr"  >
            <Keyframes>
            <Keyframe id="5379"  time="-9999999/1" value="0" leadInLength="0/1"  />
            <Keyframe id="5380"  time="137569391/169218" value="0" leadInLength="86285/84609"  interpolater="leadin-linr"  />
            </Keyframes>
           </InterpolatingParam>
           <InterpolatingParam id="5381" interp="linr"  >
            <Keyframes>
            <Keyframe id="5382"  time="-9999999/1" value="0" leadInLength="0/1"  />
            <Keyframe id="5383"  time="137569391/169218" value="0" leadInLength="86285/84609"  interpolater="leadin-linr"  />
            </Keyframes>
           </InterpolatingParam>
          </VectorParam>
          <VectorParam id="5384"  name="shear">
           <InterpolatingParam id="5385" interp="linr"  >
            <Keyframes>
            <Keyframe id="5386"  time="-9999999/1" value="0" leadInLength="0/1"  />
            <Keyframe id="5387"  time="137569391/169218" value="0" leadInLength="86285/84609"  interpolater="leadin-linr"  />
            </Keyframes>
           </InterpolatingParam>
           <InterpolatingParam id="5388" interp="linr"  >
            <Keyframes>
            <Keyframe id="5389"  time="-9999999/1" value="0" leadInLength="0/1"  />
            <Keyframe id="5390"  time="137569391/169218" value="0" leadInLength="86285/84609"  interpolater="leadin-linr"  />
            </Keyframes>
           </InterpolatingParam>
           <InterpolatingParam id="5391" interp="linr"  >
            <Keyframes>
            <Keyframe id="5392"  time="-9999999/1" value="0" leadInLength="0/1"  />
            <Keyframe id="5393"  time="137569391/169218" value="0" leadInLength="86285/84609"  interpolater="leadin-linr"  />
            </Keyframes>
           </InterpolatingParam>
          </VectorParam>
          <VectorParam id="5394"  name="scale">
           <InterpolatingParam id="5395" interp="linr"  >
            <Keyframes>
            <Keyframe id="5396"  time="-9999999/1" value="1.2524738478938717" leadInLength="0/1"  />
            <Keyframe id="5397"  time="137569391/169218" value="1.2524738478938717" leadInLength="86285/84609"  interpolater="leadin-linr"  />
            </Keyframes>
           </InterpolatingParam>
           <InterpolatingParam id="5398" interp="linr"  >
            <Keyframes>
            <Keyframe id="5399"  time="-9999999/1" value="1.2524738478938722" leadInLength="0/1"  />
            <Keyframe id="5400"  time="137569391/169218" value="1.2524738478938722" leadInLength="86285/84609"  interpolater="leadin-linr"  />
            </Keyframes>
           </InterpolatingParam>
           <InterpolatingParam id="5401" interp="linr"  >
            <Keyframes>
            <Keyframe id="5402"  time="-9999999/1" value="1" leadInLength="0/1"  />
            <Keyframe id="5403"  time="137569391/169218" value="1" leadInLength="86285/84609"  interpolater="leadin-linr"  />
            </Keyframes>
           </InterpolatingParam>
          </VectorParam>
          <VectorParam id="5404"  name="anchor">
           <InterpolatingParam id="5405" interp="linr"  >
            <Keyframes>
            <Keyframe id="5406"  time="0/1" value="0" leadInLength="0/1"  />
            <Keyframe id="5407"  time="553/1" value="0" leadInLength="0/1"  />
            <Keyframe id="5408"  time="667882178348/857091805" value="0" leadInLength="0/1"  />
            </Keyframes>
           </InterpolatingParam>
           <InterpolatingParam id="5409" interp="linr"  >
            <Keyframes>
            <Keyframe id="5410"  time="0/1" value="0" leadInLength="0/1"  />
            <Keyframe id="5411"  time="553/1" value="0" leadInLength="0/1"  />
            <Keyframe id="5412"  time="667882178348/857091805" value="0" leadInLength="0/1"  />
            </Keyframes>
           </InterpolatingParam>
           <InterpolatingParam id="5413" interp="linr"  >
            <Keyframes>
            <Keyframe id="5414"  time="0/1" value="0" leadInLength="0/1"  />
            <Keyframe id="5415"  time="553/1" value="0" leadInLength="0/1"  />
            <Keyframe id="5416"  time="667882178348/857091805" value="0" leadInLength="0/1"  />
            </Keyframes>
           </InterpolatingParam>
          </VectorParam>
         </Transformer>
         <Parameters>
          <VectorParam id="5417"  name="sourceCrop">
           <InterpolatingParam id="5418" interp="linr"  >
            <Keyframes>
            <Keyframe id="5419"  time="0/1" value="0" leadInLength="0/1"  />
            <Keyframe id="5420"  time="553/1" value="0" leadInLength="0/1"  />
            <Keyframe id="5421"  time="667882178348/857091805" value="0" leadInLength="0/1"  />
            </Keyframes>
           </InterpolatingParam>
           <InterpolatingParam id="5422" interp="linr"  >
            <Keyframes>
            <Keyframe id="5423"  time="0/1" value="0" leadInLength="0/1"  />
            <Keyframe id="5424"  time="553/1" value="0" leadInLength="0/1"  />
            <Keyframe id="5425"  time="667882178348/857091805" value="0" leadInLength="0/1"  />
            </Keyframes>
           </InterpolatingParam>
           <InterpolatingParam id="5426" interp="linr"  >
            <Keyframes>
            <Keyframe id="5427"  time="0/1" value="0" leadInLength="0/1"  />
            <Keyframe id="5428"  time="553/1" value="0" leadInLength="0/1"  />
            <Keyframe id="5429"  time="667882178348/857091805" value="0" leadInLength="0/1"  />
            </Keyframes>
           </InterpolatingParam>
           <InterpolatingParam id="5430" interp="linr"  >
            <Keyframes>
            <Keyframe id="5431"  time="0/1" value="0" leadInLength="0/1"  />
            <Keyframe id="5432"  time="553/1" value="0" leadInLength="0/1"  />
            <Keyframe id="5433"  time="667882178348/857091805" value="0" leadInLength="0/1"  />
            </Keyframes>
           </InterpolatingParam>
          </VectorParam>
          <VectorParam id="5434"  name="geometryCrop">
           <InterpolatingParam id="5435" interp="linr"  >
            <Keyframes>
            <Keyframe id="5436"  time="-9999999/1" value="0" leadInLength="0/1"  />
            <Keyframe id="5437"  time="137569391/169218" value="0" leadInLength="86285/84609"  interpolater="leadin-linr"  />
            </Keyframes>
           </InterpolatingParam>
           <InterpolatingParam id="5438" interp="linr"  >
            <Keyframes>
            <Keyframe id="5439"  time="-9999999/1" value="0" leadInLength="0/1"  />
            <Keyframe id="5440"  time="137569391/169218" value="0" leadInLength="86285/84609"  interpolater="leadin-linr"  />
            </Keyframes>
           </InterpolatingParam>
           <InterpolatingParam id="5441" interp="linr"  >
            <Keyframes>
            <Keyframe id="5442"  time="-9999999/1" value="0" leadInLength="0/1"  />
            <Keyframe id="5443"  time="137569391/169218" value="0" leadInLength="86285/84609"  interpolater="leadin-linr"  />
            </Keyframes>
           </InterpolatingParam>
           <InterpolatingParam id="5444" interp="linr"  >
            <Keyframes>
            <Keyframe id="5445"  time="-9999999/1" value="0" leadInLength="0/1"  />
            <Keyframe id="5446"  time="137569391/169218" value="0" leadInLength="86285/84609"  interpolater="leadin-linr"  />
            </Keyframes>
           </InterpolatingParam>
          </VectorParam>
          <InterpolatingParam id="5447" interp="linr"  name="opacity">
           <Keyframes>
           <Keyframe id="5448"  time="-9999999/1" value="1" leadInLength="0/1"  />
           <Keyframe id="5449"  time="137569391/169218" value="1" leadInLength="86285/84609"  interpolater="leadin-linr"  />
           </Keyframes>
          </InterpolatingParam>
          <InterpolatingParam id="5450" interp="linr"  time="0/1" value="1" leadInLength="0/1"  name="cursorOpacity"/>
          <InterpolatingParam id="5451" interp="linr"  time="0/1" value="1" leadInLength="0/1"  name="cursorScale"/>
          <InterpolatingParam id="5452" interp="linr"  name="volume">
           <Keyframes>
           <Keyframe id="5453"  time="0/1" value="1" leadInLength="0/1"  />
           <Keyframe id="5454"  time="324224/589" value="1" leadInLength="0/1"  />
           <Keyframe id="5455"  time="2928481/5301" value="0" leadInLength="0/1"  />
           <Keyframe id="5456"  time="577058556860702243/597804557278755" value="0" leadInLength="0/1"  />
           <Keyframe id="5457"  time="1154114671011336733/1193166404489757" value="1" leadInLength="0/1"  />
           <Keyframe id="5458"  time="1154114617437490769/1193112830643793" value="1" leadInLength="0/1"  />
           </Keyframes>
          </InterpolatingParam>
          <Parameter id="5459"  name="captions"/>
         </Parameters>
         <Attributes>
          <Attribute id="5460" value="" name="ident"/>
          <Attribute id="5461" value="0" name="mixToMono"/>
         </Attributes>
         <MetaData>
          <entry key="WinSubProjectDisplayName" val=""/>
         </MetaData>
         <ExtraData>
          <Entry key="ZoomPanBin">
           <ZoomPanBin id="5462"  >
            <ZoomPanKeyframes>
             <ZoomPanKeyframe id="5463" timeRangeEnd="-9999999/1" timeRangeDuration="0/1" interpolaterName="linr"  />
             <ZoomPanKeyframe id="5464" timeRangeEnd="137569391/169218" timeRangeDuration="86285/84609" interpolaterName="linr"  />
            </ZoomPanKeyframes>
           </ZoomPanBin>
          </Entry>
          <Entry key="CursorEffectBin">
           <CursorEffectBin id="5465"  >
            <CursorEffectKeyframes>
            </CursorEffectKeyframes>
           </CursorEffectBin>
          </Entry>
         </ExtraData>
         <GenericTrack id="5466"  >
          <Attributes>
           <Attribute id="5467" value="" name="ident"/>
           <Attribute id="5468" value="0" name="audioMuted"/>
           <Attribute id="5469" value="0" name="videoHidden"/>
          </Attributes>
          <MetaData>
           <entry key="IsLocked" val="False"/>
           <entry key="WinTrackHeight" val="0"/>
          </MetaData>
          <Medias>
           <UnifiedMedia id="5470"  >
            <AMFile id="5471" start="0" duration="553" scalar="1/1" mediaStart="0/1" mediaDuration="553/1" trackNumber="1" src="27" channelNumber="0" >
             <Parameters>
              <InterpolatingParam id="5472" interp="linr"  time="0/1" value="1" leadInLength="0/1"  name="volume"/>
              <Parameter id="5473"  name="captions"/>
             </Parameters>
             <Attributes>
              <Attribute id="5474" value="" name="ident"/>
              <Attribute id="5475" value="48000" name="sampleRate"/>
              <Attribute id="5476" value="16" name="bitDepth"/>
              <Attribute id="5477" value="1" name="gain"/>
              <Attribute id="5478" value="0" name="mixToMono"/>
             </Attributes>
            </AMFile>
            <VMFile id="5479" start="0" duration="553" scalar="1/1" mediaStart="0/1" mediaDuration="553/1" trackNumber="0" src="27" >
             <Transformer>
              <VectorParam id="5480"  name="translation">
               <InterpolatingParam id="5481" interp="linr"  time="-9999999/1" value="0" leadInLength="0/1"  />
               <InterpolatingParam id="5482" interp="linr"  time="-9999999/1" value="0" leadInLength="0/1"  />
               <InterpolatingParam id="5483" interp="linr"  time="-9999999/1" value="0" leadInLength="0/1"  />
              </VectorParam>
              <VectorParam id="5484"  name="rotation">
               <InterpolatingParam id="5485" interp="linr"  time="-9999999/1" value="0" leadInLength="0/1"  />
               <InterpolatingParam id="5486" interp="linr"  time="-9999999/1" value="0" leadInLength="0/1"  />
               <InterpolatingParam id="5487" interp="linr"  time="-9999999/1" value="0" leadInLength="0/1"  />
              </VectorParam>
              <VectorParam id="5488"  name="shear">
               <InterpolatingParam id="5489" interp="linr"  time="-9999999/1" value="0" leadInLength="0/1"  />
               <InterpolatingParam id="5490" interp="linr"  time="-9999999/1" value="0" leadInLength="0/1"  />
               <InterpolatingParam id="5491" interp="linr"  time="-9999999/1" value="0" leadInLength="0/1"  />
              </VectorParam>
              <VectorParam id="5492"  name="scale">
               <InterpolatingParam id="5493" interp="linr"  time="-9999999/1" value="1" leadInLength="0/1"  />
               <InterpolatingParam id="5494" interp="linr"  time="-9999999/1" value="1" leadInLength="0/1"  />
               <InterpolatingParam id="5495" interp="linr"  time="-9999999/1" value="1" leadInLength="0/1"  />
              </VectorParam>
              <VectorParam id="5496"  name="anchor">
               <InterpolatingParam id="5497" interp="linr"  time="0/1" value="0" leadInLength="0/1"  />
               <InterpolatingParam id="5498" interp="linr"  time="0/1" value="0" leadInLength="0/1"  />
               <InterpolatingParam id="5499" interp="linr"  time="0/1" value="0" leadInLength="0/1"  />
              </VectorParam>
             </Transformer>
             <Parameters>
              <VectorParam id="5500"  name="sourceCrop">
               <InterpolatingParam id="5501" interp="linr"  time="0/1" value="0" leadInLength="0/1"  />
               <InterpolatingParam id="5502" interp="linr"  time="0/1" value="0" leadInLength="0/1"  />
               <InterpolatingParam id="5503" interp="linr"  time="0/1" value="0" leadInLength="0/1"  />
               <InterpolatingParam id="5504" interp="linr"  time="0/1" value="0" leadInLength="0/1"  />
              </VectorParam>
              <VectorParam id="5505"  name="geometryCrop">
               <InterpolatingParam id="5506" interp="linr"  time="-9999999/1" value="0" leadInLength="0/1"  />
               <InterpolatingParam id="5507" interp="linr"  time="-9999999/1" value="0" leadInLength="0/1"  />
               <InterpolatingParam id="5508" interp="linr"  time="-9999999/1" value="0" leadInLength="0/1"  />
               <InterpolatingParam id="5509" interp="linr"  time="-9999999/1" value="0" leadInLength="0/1"  />
              </VectorParam>
              <InterpolatingParam id="5510" interp="linr"  time="-9999999/1" value="1" leadInLength="0/1"  name="opacity"/>
             </Parameters>
             <Attributes>
              <Attribute id="5511" value="" name="ident"/>
             </Attributes>
             <ExtraData>
              <Entry key="ZoomPanBin">
               <ZoomPanBin id="5512"  >
                <ZoomPanKeyframes>
                 <ZoomPanKeyframe id="5513" timeRangeEnd="-9999999/1" timeRangeDuration="0/1" interpolaterName="linr"  />
                </ZoomPanKeyframes>
               </ZoomPanBin>
              </Entry>
             </ExtraData>
            </VMFile>
            <MetaData>
             <entry key="WinSubProjectDisplayName" val=""/>
            </MetaData>
           </UnifiedMedia>
           <IMFile id="5514" start="553" duration="225" scalar="1/1" mediaStart="554/1" mediaDuration="1/1" trackNumber="0" src="27" trimStartSum="0/1" >
            <Transformer>
             <VectorParam id="5515"  name="translation">
              <InterpolatingParam id="5516" interp="linr"  time="-9999999/1" value="0" leadInLength="0/1"  />
              <InterpolatingParam id="5517" interp="linr"  time="-9999999/1" value="0" leadInLength="0/1"  />
              <InterpolatingParam id="5518" interp="linr"  time="-9999999/1" value="0" leadInLength="0/1"  />
             </VectorParam>
             <VectorParam id="5519"  name="rotation">
              <InterpolatingParam id="5520" interp="linr"  time="-9999999/1" value="0" leadInLength="0/1"  />
              <InterpolatingParam id="5521" interp="linr"  time="-9999999/1" value="0" leadInLength="0/1"  />
              <InterpolatingParam id="5522" interp="linr"  time="-9999999/1" value="0" leadInLength="0/1"  />
             </VectorParam>
             <VectorParam id="5523"  name="shear">
              <InterpolatingParam id="5524" interp="linr"  time="-9999999/1" value="0" leadInLength="0/1"  />
              <InterpolatingParam id="5525" interp="linr"  time="-9999999/1" value="0" leadInLength="0/1"  />
              <InterpolatingParam id="5526" interp="linr"  time="-9999999/1" value="0" leadInLength="0/1"  />
             </VectorParam>
             <VectorParam id="5527"  name="scale">
              <InterpolatingParam id="5528" interp="linr"  time="-9999999/1" value="1" leadInLength="0/1"  />
              <InterpolatingParam id="5529" interp="linr"  time="-9999999/1" value="1" leadInLength="0/1"  />
              <InterpolatingParam id="5530" interp="linr"  time="-9999999/1" value="1" leadInLength="0/1"  />
             </VectorParam>
             <VectorParam id="5531"  name="anchor">
              <InterpolatingParam id="5532" interp="linr"  time="0/1" value="0" leadInLength="0/1"  />
              <InterpolatingParam id="5533" interp="linr"  time="0/1" value="0" leadInLength="0/1"  />
              <InterpolatingParam id="5534" interp="linr"  time="0/1" value="0" leadInLength="0/1"  />
             </VectorParam>
            </Transformer>
            <Parameters>
             <VectorParam id="5535"  name="sourceCrop">
              <InterpolatingParam id="5536" interp="linr"  time="0/1" value="0" leadInLength="0/1"  />
              <InterpolatingParam id="5537" interp="linr"  time="0/1" value="0" leadInLength="0/1"  />
              <InterpolatingParam id="5538" interp="linr"  time="0/1" value="0" leadInLength="0/1"  />
              <InterpolatingParam id="5539" interp="linr"  time="0/1" value="0" leadInLength="0/1"  />
             </VectorParam>
             <VectorParam id="5540"  name="geometryCrop">
              <InterpolatingParam id="5541" interp="linr"  time="-9999999/1" value="0" leadInLength="0/1"  />
              <InterpolatingParam id="5542" interp="linr"  time="-9999999/1" value="0" leadInLength="0/1"  />
              <InterpolatingParam id="5543" interp="linr"  time="-9999999/1" value="0" leadInLength="0/1"  />
              <InterpolatingParam id="5544" interp="linr"  time="-9999999/1" value="0" leadInLength="0/1"  />
             </VectorParam>
             <InterpolatingParam id="5545" interp="linr"  time="-9999999/1" value="1" leadInLength="0/1"  name="opacity"/>
            </Parameters>
            <Attributes>
             <Attribute id="5546" value="" name="ident"/>
            </Attributes>
            <MetaData>
             <entry key="WinSubProjectDisplayName" val=""/>
            </MetaData>
            <ExtraData>
             <Entry key="ZoomPanBin">
              <ZoomPanBin id="5547"  >
               <ZoomPanKeyframes>
                <ZoomPanKeyframe id="5548" timeRangeEnd="-9999999/1" timeRangeDuration="0/1" interpolaterName="linr"  />
               </ZoomPanKeyframes>
              </ZoomPanBin>
             </Entry>
            </ExtraData>
           </IMFile>
           <UnifiedMedia id="5549"  >
            <AMFile id="5550" start="778" duration="2" scalar="1/1" mediaStart="552/1" mediaDuration="2/1" trackNumber="1" src="27" channelNumber="0" >
             <Parameters>
              <InterpolatingParam id="5551" interp="linr"  time="0/1" value="1" leadInLength="0/1"  name="volume"/>
              <Parameter id="5552"  name="captions"/>
             </Parameters>
             <Attributes>
              <Attribute id="5553" value="" name="ident"/>
              <Attribute id="5554" value="48000" name="sampleRate"/>
              <Attribute id="5555" value="16" name="bitDepth"/>
              <Attribute id="5556" value="1" name="gain"/>
              <Attribute id="5557" value="0" name="mixToMono"/>
             </Attributes>
            </AMFile>
            <VMFile id="5558" start="778" duration="2" scalar="1/1" mediaStart="552/1" mediaDuration="2/1" trackNumber="0" src="27" >
             <Transformer>
              <VectorParam id="5559"  name="translation">
               <InterpolatingParam id="5560" interp="linr"  time="-9999999/1" value="0" leadInLength="0/1"  />
               <InterpolatingParam id="5561" interp="linr"  time="-9999999/1" value="0" leadInLength="0/1"  />
               <InterpolatingParam id="5562" interp="linr"  time="-9999999/1" value="0" leadInLength="0/1"  />
              </VectorParam>
              <VectorParam id="5563"  name="rotation">
               <InterpolatingParam id="5564" interp="linr"  time="-9999999/1" value="0" leadInLength="0/1"  />
               <InterpolatingParam id="5565" interp="linr"  time="-9999999/1" value="0" leadInLength="0/1"  />
               <InterpolatingParam id="5566" interp="linr"  time="-9999999/1" value="0" leadInLength="0/1"  />
              </VectorParam>
              <VectorParam id="5567"  name="shear">
               <InterpolatingParam id="5568" interp="linr"  time="-9999999/1" value="0" leadInLength="0/1"  />
               <InterpolatingParam id="5569" interp="linr"  time="-9999999/1" value="0" leadInLength="0/1"  />
               <InterpolatingParam id="5570" interp="linr"  time="-9999999/1" value="0" leadInLength="0/1"  />
              </VectorParam>
              <VectorParam id="5571"  name="scale">
               <InterpolatingParam id="5572" interp="linr"  time="-9999999/1" value="1" leadInLength="0/1"  />
               <InterpolatingParam id="5573" interp="linr"  time="-9999999/1" value="1" leadInLength="0/1"  />
               <InterpolatingParam id="5574" interp="linr"  time="-9999999/1" value="1" leadInLength="0/1"  />
              </VectorParam>
              <VectorParam id="5575"  name="anchor">
               <InterpolatingParam id="5576" interp="linr"  time="0/1" value="0" leadInLength="0/1"  />
               <InterpolatingParam id="5577" interp="linr"  time="0/1" value="0" leadInLength="0/1"  />
               <InterpolatingParam id="5578" interp="linr"  time="0/1" value="0" leadInLength="0/1"  />
              </VectorParam>
             </Transformer>
             <Parameters>
              <VectorParam id="5579"  name="sourceCrop">
               <InterpolatingParam id="5580" interp="linr"  time="0/1" value="0" leadInLength="0/1"  />
               <InterpolatingParam id="5581" interp="linr"  time="0/1" value="0" leadInLength="0/1"  />
               <InterpolatingParam id="5582" interp="linr"  time="0/1" value="0" leadInLength="0/1"  />
               <InterpolatingParam id="5583" interp="linr"  time="0/1" value="0" leadInLength="0/1"  />
              </VectorParam>
              <VectorParam id="5584"  name="geometryCrop">
               <InterpolatingParam id="5585" interp="linr"  time="-9999999/1" value="0" leadInLength="0/1"  />
               <InterpolatingParam id="5586" interp="linr"  time="-9999999/1" value="0" leadInLength="0/1"  />
               <InterpolatingParam id="5587" interp="linr"  time="-9999999/1" value="0" leadInLength="0/1"  />
               <InterpolatingParam id="5588" interp="linr"  time="-9999999/1" value="0" leadInLength="0/1"  />
              </VectorParam>
              <InterpolatingParam id="5589" interp="linr"  time="-9999999/1" value="1" leadInLength="0/1"  name="opacity"/>
             </Parameters>
             <Attributes>
              <Attribute id="5590" value="" name="ident"/>
             </Attributes>
             <ExtraData>
              <Entry key="ZoomPanBin">
               <ZoomPanBin id="5591"  >
                <ZoomPanKeyframes>
                 <ZoomPanKeyframe id="5592" timeRangeEnd="-9999999/1" timeRangeDuration="0/1" interpolaterName="linr"  />
                </ZoomPanKeyframes>
               </ZoomPanBin>
              </Entry>
             </ExtraData>
            </VMFile>
            <MetaData>
             <entry key="WinSubProjectDisplayName" val=""/>
            </MetaData>
           </UnifiedMedia>
           <IMFile id="5593" start="780" duration="17" scalar="1/1" mediaStart="553/1" mediaDuration="1/1" trackNumber="0" src="27" trimStartSum="0/1" >
            <Transformer>
             <VectorParam id="5594"  name="translation">
              <InterpolatingParam id="5595" interp="linr"  time="-9999999/1" value="0" leadInLength="0/1"  />
              <InterpolatingParam id="5596" interp="linr"  time="-9999999/1" value="0" leadInLength="0/1"  />
              <InterpolatingParam id="5597" interp="linr"  time="-9999999/1" value="0" leadInLength="0/1"  />
             </VectorParam>
             <VectorParam id="5598"  name="rotation">
              <InterpolatingParam id="5599" interp="linr"  time="-9999999/1" value="0" leadInLength="0/1"  />
              <InterpolatingParam id="5600" interp="linr"  time="-9999999/1" value="0" leadInLength="0/1"  />
              <InterpolatingParam id="5601" interp="linr"  time="-9999999/1" value="0" leadInLength="0/1"  />
             </VectorParam>
             <VectorParam id="5602"  name="shear">
              <InterpolatingParam id="5603" interp="linr"  time="-9999999/1" value="0" leadInLength="0/1"  />
              <InterpolatingParam id="5604" interp="linr"  time="-9999999/1" value="0" leadInLength="0/1"  />
              <InterpolatingParam id="5605" interp="linr"  time="-9999999/1" value="0" leadInLength="0/1"  />
             </VectorParam>
             <VectorParam id="5606"  name="scale">
              <InterpolatingParam id="5607" interp="linr"  time="-9999999/1" value="1" leadInLength="0/1"  />
              <InterpolatingParam id="5608" interp="linr"  time="-9999999/1" value="1" leadInLength="0/1"  />
              <InterpolatingParam id="5609" interp="linr"  time="-9999999/1" value="1" leadInLength="0/1"  />
             </VectorParam>
             <VectorParam id="5610"  name="anchor">
              <InterpolatingParam id="5611" interp="linr"  time="0/1" value="0" leadInLength="0/1"  />
              <InterpolatingParam id="5612" interp="linr"  time="0/1" value="0" leadInLength="0/1"  />
              <InterpolatingParam id="5613" interp="linr"  time="0/1" value="0" leadInLength="0/1"  />
             </VectorParam>
            </Transformer>
            <Parameters>
             <VectorParam id="5614"  name="sourceCrop">
              <InterpolatingParam id="5615" interp="linr"  time="0/1" value="0" leadInLength="0/1"  />
              <InterpolatingParam id="5616" interp="linr"  time="0/1" value="0" leadInLength="0/1"  />
              <InterpolatingParam id="5617" interp="linr"  time="0/1" value="0" leadInLength="0/1"  />
              <InterpolatingParam id="5618" interp="linr"  time="0/1" value="0" leadInLength="0/1"  />
             </VectorParam>
             <VectorParam id="5619"  name="geometryCrop">
              <InterpolatingParam id="5620" interp="linr"  time="-9999999/1" value="0" leadInLength="0/1"  />
              <InterpolatingParam id="5621" interp="linr"  time="-9999999/1" value="0" leadInLength="0/1"  />
              <InterpolatingParam id="5622" interp="linr"  time="-9999999/1" value="0" leadInLength="0/1"  />
              <InterpolatingParam id="5623" interp="linr"  time="-9999999/1" value="0" leadInLength="0/1"  />
             </VectorParam>
             <InterpolatingParam id="5624" interp="linr"  time="-9999999/1" value="1" leadInLength="0/1"  name="opacity"/>
            </Parameters>
            <Attributes>
             <Attribute id="5625" value="" name="ident"/>
            </Attributes>
            <MetaData>
             <entry key="WinSubProjectDisplayName" val=""/>
            </MetaData>
            <ExtraData>
             <Entry key="ZoomPanBin">
              <ZoomPanBin id="5626"  >
               <ZoomPanKeyframes>
                <ZoomPanKeyframe id="5627" timeRangeEnd="-9999999/1" timeRangeDuration="0/1" interpolaterName="linr"  />
               </ZoomPanKeyframes>
              </ZoomPanBin>
             </Entry>
            </ExtraData>
           </IMFile>
           <UnifiedMedia id="5628"  >
            <AMFile id="5629" start="797" duration="45" scalar="1/1" mediaStart="553/1" mediaDuration="45/1" trackNumber="1" src="27" channelNumber="0" >
             <Parameters>
              <InterpolatingParam id="5630" interp="linr"  time="0/1" value="1" leadInLength="0/1"  name="volume"/>
              <Parameter id="5631"  name="captions"/>
             </Parameters>
             <Attributes>
              <Attribute id="5632" value="" name="ident"/>
              <Attribute id="5633" value="48000" name="sampleRate"/>
              <Attribute id="5634" value="16" name="bitDepth"/>
              <Attribute id="5635" value="1" name="gain"/>
              <Attribute id="5636" value="0" name="mixToMono"/>
             </Attributes>
            </AMFile>
            <VMFile id="5637" start="797" duration="45" scalar="1/1" mediaStart="553/1" mediaDuration="45/1" trackNumber="0" src="27" >
             <Transformer>
              <VectorParam id="5638"  name="translation">
               <InterpolatingParam id="5639" interp="linr"  time="-9999999/1" value="0" leadInLength="0/1"  />
               <InterpolatingParam id="5640" interp="linr"  time="-9999999/1" value="0" leadInLength="0/1"  />
               <InterpolatingParam id="5641" interp="linr"  time="-9999999/1" value="0" leadInLength="0/1"  />
              </VectorParam>
              <VectorParam id="5642"  name="rotation">
               <InterpolatingParam id="5643" interp="linr"  time="-9999999/1" value="0" leadInLength="0/1"  />
               <InterpolatingParam id="5644" interp="linr"  time="-9999999/1" value="0" leadInLength="0/1"  />
               <InterpolatingParam id="5645" interp="linr"  time="-9999999/1" value="0" leadInLength="0/1"  />
              </VectorParam>
              <VectorParam id="5646"  name="shear">
               <InterpolatingParam id="5647" interp="linr"  time="-9999999/1" value="0" leadInLength="0/1"  />
               <InterpolatingParam id="5648" interp="linr"  time="-9999999/1" value="0" leadInLength="0/1"  />
               <InterpolatingParam id="5649" interp="linr"  time="-9999999/1" value="0" leadInLength="0/1"  />
              </VectorParam>
              <VectorParam id="5650"  name="scale">
               <InterpolatingParam id="5651" interp="linr"  time="-9999999/1" value="1" leadInLength="0/1"  />
               <InterpolatingParam id="5652" interp="linr"  time="-9999999/1" value="1" leadInLength="0/1"  />
               <InterpolatingParam id="5653" interp="linr"  time="-9999999/1" value="1" leadInLength="0/1"  />
              </VectorParam>
              <VectorParam id="5654"  name="anchor">
               <InterpolatingParam id="5655" interp="linr"  time="0/1" value="0" leadInLength="0/1"  />
               <InterpolatingParam id="5656" interp="linr"  time="0/1" value="0" leadInLength="0/1"  />
               <InterpolatingParam id="5657" interp="linr"  time="0/1" value="0" leadInLength="0/1"  />
              </VectorParam>
             </Transformer>
             <Parameters>
              <VectorParam id="5658"  name="sourceCrop">
               <InterpolatingParam id="5659" interp="linr"  time="0/1" value="0" leadInLength="0/1"  />
               <InterpolatingParam id="5660" interp="linr"  time="0/1" value="0" leadInLength="0/1"  />
               <InterpolatingParam id="5661" interp="linr"  time="0/1" value="0" leadInLength="0/1"  />
               <InterpolatingParam id="5662" interp="linr"  time="0/1" value="0" leadInLength="0/1"  />
              </VectorParam>
              <VectorParam id="5663"  name="geometryCrop">
               <InterpolatingParam id="5664" interp="linr"  time="-9999999/1" value="0" leadInLength="0/1"  />
               <InterpolatingParam id="5665" interp="linr"  time="-9999999/1" value="0" leadInLength="0/1"  />
               <InterpolatingParam id="5666" interp="linr"  time="-9999999/1" value="0" leadInLength="0/1"  />
               <InterpolatingParam id="5667" interp="linr"  time="-9999999/1" value="0" leadInLength="0/1"  />
              </VectorParam>
              <InterpolatingParam id="5668" interp="linr"  time="-9999999/1" value="1" leadInLength="0/1"  name="opacity"/>
             </Parameters>
             <Attributes>
              <Attribute id="5669" value="" name="ident"/>
             </Attributes>
             <ExtraData>
              <Entry key="ZoomPanBin">
               <ZoomPanBin id="5670"  >
                <ZoomPanKeyframes>
                 <ZoomPanKeyframe id="5671" timeRangeEnd="-9999999/1" timeRangeDuration="0/1" interpolaterName="linr"  />
                </ZoomPanKeyframes>
               </ZoomPanBin>
              </Entry>
             </ExtraData>
            </VMFile>
            <MetaData>
             <entry key="WinSubProjectDisplayName" val=""/>
            </MetaData>
           </UnifiedMedia>
           <UnifiedMedia id="5672"  >
            <AMFile id="5673" start="842" duration="547" scalar="1/1" mediaStart="641/1" mediaDuration="547/1" trackNumber="1" src="27" channelNumber="0" >
             <Parameters>
              <InterpolatingParam id="5674" interp="linr"  time="0/1" value="1" leadInLength="0/1"  name="volume"/>
              <Parameter id="5675"  name="captions"/>
             </Parameters>
             <Attributes>
              <Attribute id="5676" value="" name="ident"/>
              <Attribute id="5677" value="48000" name="sampleRate"/>
              <Attribute id="5678" value="16" name="bitDepth"/>
              <Attribute id="5679" value="1" name="gain"/>
              <Attribute id="5680" value="0" name="mixToMono"/>
             </Attributes>
            </AMFile>
            <VMFile id="5681" start="842" duration="547" scalar="1/1" mediaStart="641/1" mediaDuration="547/1" trackNumber="0" src="27" >
             <Transformer>
              <VectorParam id="5682"  name="translation">
               <InterpolatingParam id="5683" interp="linr"  time="-9999999/1" value="0" leadInLength="0/1"  />
               <InterpolatingParam id="5684" interp="linr"  time="-9999999/1" value="0" leadInLength="0/1"  />
               <InterpolatingParam id="5685" interp="linr"  time="-9999999/1" value="0" leadInLength="0/1"  />
              </VectorParam>
              <VectorParam id="5686"  name="rotation">
               <InterpolatingParam id="5687" interp="linr"  time="-9999999/1" value="0" leadInLength="0/1"  />
               <InterpolatingParam id="5688" interp="linr"  time="-9999999/1" value="0" leadInLength="0/1"  />
               <InterpolatingParam id="5689" interp="linr"  time="-9999999/1" value="0" leadInLength="0/1"  />
              </VectorParam>
              <VectorParam id="5690"  name="shear">
               <InterpolatingParam id="5691" interp="linr"  time="-9999999/1" value="0" leadInLength="0/1"  />
               <InterpolatingParam id="5692" interp="linr"  time="-9999999/1" value="0" leadInLength="0/1"  />
               <InterpolatingParam id="5693" interp="linr"  time="-9999999/1" value="0" leadInLength="0/1"  />
              </VectorParam>
              <VectorParam id="5694"  name="scale">
               <InterpolatingParam id="5695" interp="linr"  time="-9999999/1" value="1" leadInLength="0/1"  />
               <InterpolatingParam id="5696" interp="linr"  time="-9999999/1" value="1" leadInLength="0/1"  />
               <InterpolatingParam id="5697" interp="linr"  time="-9999999/1" value="1" leadInLength="0/1"  />
              </VectorParam>
              <VectorParam id="5698"  name="anchor">
               <InterpolatingParam id="5699" interp="linr"  time="0/1" value="0" leadInLength="0/1"  />
               <InterpolatingParam id="5700" interp="linr"  time="0/1" value="0" leadInLength="0/1"  />
               <InterpolatingParam id="5701" interp="linr"  time="0/1" value="0" leadInLength="0/1"  />
              </VectorParam>
             </Transformer>
             <Parameters>
              <VectorParam id="5702"  name="sourceCrop">
               <InterpolatingParam id="5703" interp="linr"  time="0/1" value="0" leadInLength="0/1"  />
               <InterpolatingParam id="5704" interp="linr"  time="0/1" value="0" leadInLength="0/1"  />
               <InterpolatingParam id="5705" interp="linr"  time="0/1" value="0" leadInLength="0/1"  />
               <InterpolatingParam id="5706" interp="linr"  time="0/1" value="0" leadInLength="0/1"  />
              </VectorParam>
              <VectorParam id="5707"  name="geometryCrop">
               <InterpolatingParam id="5708" interp="linr"  time="-9999999/1" value="0" leadInLength="0/1"  />
               <InterpolatingParam id="5709" interp="linr"  time="-9999999/1" value="0" leadInLength="0/1"  />
               <InterpolatingParam id="5710" interp="linr"  time="-9999999/1" value="0" leadInLength="0/1"  />
               <InterpolatingParam id="5711" interp="linr"  time="-9999999/1" value="0" leadInLength="0/1"  />
              </VectorParam>
              <InterpolatingParam id="5712" interp="linr"  time="-9999999/1" value="1" leadInLength="0/1"  name="opacity"/>
             </Parameters>
             <Attributes>
              <Attribute id="5713" value="" name="ident"/>
             </Attributes>
             <ExtraData>
              <Entry key="ZoomPanBin">
               <ZoomPanBin id="5714"  >
                <ZoomPanKeyframes>
                 <ZoomPanKeyframe id="5715" timeRangeEnd="-9999999/1" timeRangeDuration="0/1" interpolaterName="linr"  />
                </ZoomPanKeyframes>
               </ZoomPanBin>
              </Entry>
             </ExtraData>
            </VMFile>
            <MetaData>
             <entry key="WinSubProjectDisplayName" val=""/>
            </MetaData>
           </UnifiedMedia>
          </Medias>
         </GenericTrack>
        </StitchedMedia>
        <StitchedMedia id="5716" start="7473" duration="160" scalar="15427652490000/16336542810277" mediaStart="16721653966841/21427295125" mediaDuration="32673085620554/192845656125" minMediaStart="0/1" >
         <Transformer>
          <VectorParam id="5717"  name="translation">
           <InterpolatingParam id="5718" interp="linr"  time="-9999999/1" value="-64.054283290940219" leadInLength="0/1"  />
           <InterpolatingParam id="5719" interp="linr"  time="-9999999/1" value="316.33587786259488" leadInLength="0/1"  />
           <InterpolatingParam id="5720" interp="linr"  time="-9999999/1" value="0" leadInLength="0/1"  />
          </VectorParam>
          <VectorParam id="5721"  name="rotation">
           <InterpolatingParam id="5722" interp="linr"  time="-9999999/1" value="0" leadInLength="0/1"  />
           <InterpolatingParam id="5723" interp="linr"  time="-9999999/1" value="0" leadInLength="0/1"  />
           <InterpolatingParam id="5724" interp="linr"  time="-9999999/1" value="0" leadInLength="0/1"  />
          </VectorParam>
          <VectorParam id="5725"  name="shear">
           <InterpolatingParam id="5726" interp="linr"  time="-9999999/1" value="0" leadInLength="0/1"  />
           <InterpolatingParam id="5727" interp="linr"  time="-9999999/1" value="0" leadInLength="0/1"  />
           <InterpolatingParam id="5728" interp="linr"  time="-9999999/1" value="0" leadInLength="0/1"  />
          </VectorParam>
          <VectorParam id="5729"  name="scale">
           <InterpolatingParam id="5730" interp="linr"  time="-9999999/1" value="1.2524738478938717" leadInLength="0/1"  />
           <InterpolatingParam id="5731" interp="linr"  time="-9999999/1" value="1.2524738478938722" leadInLength="0/1"  />
           <InterpolatingParam id="5732" interp="linr"  time="-9999999/1" value="1" leadInLength="0/1"  />
          </VectorParam>
          <VectorParam id="5733"  name="anchor">
           <InterpolatingParam id="5734" interp="linr"  >
            <Keyframes>
            <Keyframe id="5735"  time="0/1" value="0" leadInLength="0/1"  />
            <Keyframe id="5736"  time="553/1" value="0" leadInLength="0/1"  />
            </Keyframes>
           </InterpolatingParam>
           <InterpolatingParam id="5737" interp="linr"  >
            <Keyframes>
            <Keyframe id="5738"  time="0/1" value="0" leadInLength="0/1"  />
            <Keyframe id="5739"  time="553/1" value="0" leadInLength="0/1"  />
            </Keyframes>
           </InterpolatingParam>
           <InterpolatingParam id="5740" interp="linr"  >
            <Keyframes>
            <Keyframe id="5741"  time="0/1" value="0" leadInLength="0/1"  />
            <Keyframe id="5742"  time="553/1" value="0" leadInLength="0/1"  />
            </Keyframes>
           </InterpolatingParam>
          </VectorParam>
         </Transformer>
         <Parameters>
          <VectorParam id="5743"  name="sourceCrop">
           <InterpolatingParam id="5744" interp="linr"  >
            <Keyframes>
            <Keyframe id="5745"  time="0/1" value="0" leadInLength="0/1"  />
            <Keyframe id="5746"  time="553/1" value="0" leadInLength="0/1"  />
            </Keyframes>
           </InterpolatingParam>
           <InterpolatingParam id="5747" interp="linr"  >
            <Keyframes>
            <Keyframe id="5748"  time="0/1" value="0" leadInLength="0/1"  />
            <Keyframe id="5749"  time="553/1" value="0" leadInLength="0/1"  />
            </Keyframes>
           </InterpolatingParam>
           <InterpolatingParam id="5750" interp="linr"  >
            <Keyframes>
            <Keyframe id="5751"  time="0/1" value="0" leadInLength="0/1"  />
            <Keyframe id="5752"  time="553/1" value="0" leadInLength="0/1"  />
            </Keyframes>
           </InterpolatingParam>
           <InterpolatingParam id="5753" interp="linr"  >
            <Keyframes>
            <Keyframe id="5754"  time="0/1" value="0" leadInLength="0/1"  />
            <Keyframe id="5755"  time="553/1" value="0" leadInLength="0/1"  />
            </Keyframes>
           </InterpolatingParam>
          </VectorParam>
          <VectorParam id="5756"  name="geometryCrop">
           <InterpolatingParam id="5757" interp="linr"  time="-9999999/1" value="0" leadInLength="0/1"  />
           <InterpolatingParam id="5758" interp="linr"  time="-9999999/1" value="0" leadInLength="0/1"  />
           <InterpolatingParam id="5759" interp="linr"  time="-9999999/1" value="0" leadInLength="0/1"  />
           <InterpolatingParam id="5760" interp="linr"  time="-9999999/1" value="0" leadInLength="0/1"  />
          </VectorParam>
          <InterpolatingParam id="5761" interp="linr"  time="-9999999/1" value="1" leadInLength="0/1"  name="opacity"/>
          <InterpolatingParam id="5762" interp="linr"  time="0/1" value="1" leadInLength="0/1"  name="cursorOpacity"/>
          <InterpolatingParam id="5763" interp="linr"  time="0/1" value="1" leadInLength="0/1"  name="cursorScale"/>
          <InterpolatingParam id="5764" interp="linr"  name="volume">
           <Keyframes>
           <Keyframe id="5765"  time="0/1" value="1" leadInLength="0/1"  />
           <Keyframe id="5766"  time="324224/589" value="1" leadInLength="0/1"  />
           <Keyframe id="5767"  time="2928481/5301" value="0" leadInLength="0/1"  />
           <Keyframe id="5768"  time="394882386575309/416459945025" value="0" leadInLength="0/1"  />
           <Keyframe id="5769"  time="43967171488826/46273327225" value="1" leadInLength="0/1"  />
           <Keyframe id="5770"  time="395722612780184/416459945025" value="1" leadInLength="0/1"  />
           </Keyframes>
          </InterpolatingParam>
          <Parameter id="5771"  name="captions"/>
         </Parameters>
         <Attributes>
          <Attribute id="5772" value="" name="ident"/>
          <Attribute id="5773" value="0" name="mixToMono"/>
         </Attributes>
         <MetaData>
          <entry key="WinSubProjectDisplayName" val=""/>
         </MetaData>
         <ExtraData>
          <Entry key="ZoomPanBin">
           <ZoomPanBin id="5774"  >
            <ZoomPanKeyframes>
             <ZoomPanKeyframe id="5775" timeRangeEnd="-9999999/1" timeRangeDuration="0/1" interpolaterName="linr"  />
            </ZoomPanKeyframes>
           </ZoomPanBin>
          </Entry>
          <Entry key="CursorEffectBin">
           <CursorEffectBin id="5776"  >
            <CursorEffectKeyframes>
            </CursorEffectKeyframes>
           </CursorEffectBin>
          </Entry>
         </ExtraData>
         <GenericTrack id="5777"  >
          <Attributes>
           <Attribute id="5778" value="" name="ident"/>
           <Attribute id="5779" value="0" name="audioMuted"/>
           <Attribute id="5780" value="0" name="videoHidden"/>
          </Attributes>
          <MetaData>
           <entry key="IsLocked" val="False"/>
           <entry key="WinTrackHeight" val="0"/>
          </MetaData>
          <Medias>
           <UnifiedMedia id="5781"  >
            <AMFile id="5782" start="0" duration="553" scalar="1/1" mediaStart="0/1" mediaDuration="553/1" trackNumber="1" src="27" channelNumber="0" >
             <Parameters>
              <InterpolatingParam id="5783" interp="linr"  time="0/1" value="1" leadInLength="0/1"  name="volume"/>
              <Parameter id="5784"  name="captions"/>
             </Parameters>
             <Attributes>
              <Attribute id="5785" value="" name="ident"/>
              <Attribute id="5786" value="48000" name="sampleRate"/>
              <Attribute id="5787" value="16" name="bitDepth"/>
              <Attribute id="5788" value="1" name="gain"/>
              <Attribute id="5789" value="0" name="mixToMono"/>
             </Attributes>
            </AMFile>
            <VMFile id="5790" start="0" duration="553" scalar="1/1" mediaStart="0/1" mediaDuration="553/1" trackNumber="0" src="27" >
             <Transformer>
              <VectorParam id="5791"  name="translation">
               <InterpolatingParam id="5792" interp="linr"  time="-9999999/1" value="0" leadInLength="0/1"  />
               <InterpolatingParam id="5793" interp="linr"  time="-9999999/1" value="0" leadInLength="0/1"  />
               <InterpolatingParam id="5794" interp="linr"  time="-9999999/1" value="0" leadInLength="0/1"  />
              </VectorParam>
              <VectorParam id="5795"  name="rotation">
               <InterpolatingParam id="5796" interp="linr"  time="-9999999/1" value="0" leadInLength="0/1"  />
               <InterpolatingParam id="5797" interp="linr"  time="-9999999/1" value="0" leadInLength="0/1"  />
               <InterpolatingParam id="5798" interp="linr"  time="-9999999/1" value="0" leadInLength="0/1"  />
              </VectorParam>
              <VectorParam id="5799"  name="shear">
               <InterpolatingParam id="5800" interp="linr"  time="-9999999/1" value="0" leadInLength="0/1"  />
               <InterpolatingParam id="5801" interp="linr"  time="-9999999/1" value="0" leadInLength="0/1"  />
               <InterpolatingParam id="5802" interp="linr"  time="-9999999/1" value="0" leadInLength="0/1"  />
              </VectorParam>
              <VectorParam id="5803"  name="scale">
               <InterpolatingParam id="5804" interp="linr"  time="-9999999/1" value="1" leadInLength="0/1"  />
               <InterpolatingParam id="5805" interp="linr"  time="-9999999/1" value="1" leadInLength="0/1"  />
               <InterpolatingParam id="5806" interp="linr"  time="-9999999/1" value="1" leadInLength="0/1"  />
              </VectorParam>
              <VectorParam id="5807"  name="anchor">
               <InterpolatingParam id="5808" interp="linr"  time="0/1" value="0" leadInLength="0/1"  />
               <InterpolatingParam id="5809" interp="linr"  time="0/1" value="0" leadInLength="0/1"  />
               <InterpolatingParam id="5810" interp="linr"  time="0/1" value="0" leadInLength="0/1"  />
              </VectorParam>
             </Transformer>
             <Parameters>
              <VectorParam id="5811"  name="sourceCrop">
               <InterpolatingParam id="5812" interp="linr"  time="0/1" value="0" leadInLength="0/1"  />
               <InterpolatingParam id="5813" interp="linr"  time="0/1" value="0" leadInLength="0/1"  />
               <InterpolatingParam id="5814" interp="linr"  time="0/1" value="0" leadInLength="0/1"  />
               <InterpolatingParam id="5815" interp="linr"  time="0/1" value="0" leadInLength="0/1"  />
              </VectorParam>
              <VectorParam id="5816"  name="geometryCrop">
               <InterpolatingParam id="5817" interp="linr"  time="-9999999/1" value="0" leadInLength="0/1"  />
               <InterpolatingParam id="5818" interp="linr"  time="-9999999/1" value="0" leadInLength="0/1"  />
               <InterpolatingParam id="5819" interp="linr"  time="-9999999/1" value="0" leadInLength="0/1"  />
               <InterpolatingParam id="5820" interp="linr"  time="-9999999/1" value="0" leadInLength="0/1"  />
              </VectorParam>
              <InterpolatingParam id="5821" interp="linr"  time="-9999999/1" value="1" leadInLength="0/1"  name="opacity"/>
             </Parameters>
             <Attributes>
              <Attribute id="5822" value="" name="ident"/>
             </Attributes>
             <ExtraData>
              <Entry key="ZoomPanBin">
               <ZoomPanBin id="5823"  >
                <ZoomPanKeyframes>
                 <ZoomPanKeyframe id="5824" timeRangeEnd="-9999999/1" timeRangeDuration="0/1" interpolaterName="linr"  />
                </ZoomPanKeyframes>
               </ZoomPanBin>
              </Entry>
             </ExtraData>
            </VMFile>
            <MetaData>
             <entry key="WinSubProjectDisplayName" val=""/>
            </MetaData>
           </UnifiedMedia>
           <IMFile id="5825" start="553" duration="225" scalar="1/1" mediaStart="554/1" mediaDuration="1/1" trackNumber="0" src="27" trimStartSum="0/1" >
            <Transformer>
             <VectorParam id="5826"  name="translation">
              <InterpolatingParam id="5827" interp="linr"  time="-9999999/1" value="0" leadInLength="0/1"  />
              <InterpolatingParam id="5828" interp="linr"  time="-9999999/1" value="0" leadInLength="0/1"  />
              <InterpolatingParam id="5829" interp="linr"  time="-9999999/1" value="0" leadInLength="0/1"  />
             </VectorParam>
             <VectorParam id="5830"  name="rotation">
              <InterpolatingParam id="5831" interp="linr"  time="-9999999/1" value="0" leadInLength="0/1"  />
              <InterpolatingParam id="5832" interp="linr"  time="-9999999/1" value="0" leadInLength="0/1"  />
              <InterpolatingParam id="5833" interp="linr"  time="-9999999/1" value="0" leadInLength="0/1"  />
             </VectorParam>
             <VectorParam id="5834"  name="shear">
              <InterpolatingParam id="5835" interp="linr"  time="-9999999/1" value="0" leadInLength="0/1"  />
              <InterpolatingParam id="5836" interp="linr"  time="-9999999/1" value="0" leadInLength="0/1"  />
              <InterpolatingParam id="5837" interp="linr"  time="-9999999/1" value="0" leadInLength="0/1"  />
             </VectorParam>
             <VectorParam id="5838"  name="scale">
              <InterpolatingParam id="5839" interp="linr"  time="-9999999/1" value="1" leadInLength="0/1"  />
              <InterpolatingParam id="5840" interp="linr"  time="-9999999/1" value="1" leadInLength="0/1"  />
              <InterpolatingParam id="5841" interp="linr"  time="-9999999/1" value="1" leadInLength="0/1"  />
             </VectorParam>
             <VectorParam id="5842"  name="anchor">
              <InterpolatingParam id="5843" interp="linr"  time="0/1" value="0" leadInLength="0/1"  />
              <InterpolatingParam id="5844" interp="linr"  time="0/1" value="0" leadInLength="0/1"  />
              <InterpolatingParam id="5845" interp="linr"  time="0/1" value="0" leadInLength="0/1"  />
             </VectorParam>
            </Transformer>
            <Parameters>
             <VectorParam id="5846"  name="sourceCrop">
              <InterpolatingParam id="5847" interp="linr"  time="0/1" value="0" leadInLength="0/1"  />
              <InterpolatingParam id="5848" interp="linr"  time="0/1" value="0" leadInLength="0/1"  />
              <InterpolatingParam id="5849" interp="linr"  time="0/1" value="0" leadInLength="0/1"  />
              <InterpolatingParam id="5850" interp="linr"  time="0/1" value="0" leadInLength="0/1"  />
             </VectorParam>
             <VectorParam id="5851"  name="geometryCrop">
              <InterpolatingParam id="5852" interp="linr"  time="-9999999/1" value="0" leadInLength="0/1"  />
              <InterpolatingParam id="5853" interp="linr"  time="-9999999/1" value="0" leadInLength="0/1"  />
              <InterpolatingParam id="5854" interp="linr"  time="-9999999/1" value="0" leadInLength="0/1"  />
              <InterpolatingParam id="5855" interp="linr"  time="-9999999/1" value="0" leadInLength="0/1"  />
             </VectorParam>
             <InterpolatingParam id="5856" interp="linr"  time="-9999999/1" value="1" leadInLength="0/1"  name="opacity"/>
            </Parameters>
            <Attributes>
             <Attribute id="5857" value="" name="ident"/>
            </Attributes>
            <MetaData>
             <entry key="WinSubProjectDisplayName" val=""/>
            </MetaData>
            <ExtraData>
             <Entry key="ZoomPanBin">
              <ZoomPanBin id="5858"  >
               <ZoomPanKeyframes>
                <ZoomPanKeyframe id="5859" timeRangeEnd="-9999999/1" timeRangeDuration="0/1" interpolaterName="linr"  />
               </ZoomPanKeyframes>
              </ZoomPanBin>
             </Entry>
            </ExtraData>
           </IMFile>
           <UnifiedMedia id="5860"  >
            <AMFile id="5861" start="778" duration="46" scalar="1/1" mediaStart="552/1" mediaDuration="46/1" trackNumber="1" src="27" channelNumber="0" >
             <Parameters>
              <InterpolatingParam id="5862" interp="linr"  time="0/1" value="1" leadInLength="0/1"  name="volume"/>
              <Parameter id="5863"  name="captions"/>
             </Parameters>
             <Attributes>
              <Attribute id="5864" value="" name="ident"/>
              <Attribute id="5865" value="48000" name="sampleRate"/>
              <Attribute id="5866" value="16" name="bitDepth"/>
              <Attribute id="5867" value="1" name="gain"/>
              <Attribute id="5868" value="0" name="mixToMono"/>
             </Attributes>
            </AMFile>
            <VMFile id="5869" start="778" duration="46" scalar="1/1" mediaStart="552/1" mediaDuration="46/1" trackNumber="0" src="27" >
             <Transformer>
              <VectorParam id="5870"  name="translation">
               <InterpolatingParam id="5871" interp="linr"  time="-9999999/1" value="0" leadInLength="0/1"  />
               <InterpolatingParam id="5872" interp="linr"  time="-9999999/1" value="0" leadInLength="0/1"  />
               <InterpolatingParam id="5873" interp="linr"  time="-9999999/1" value="0" leadInLength="0/1"  />
              </VectorParam>
              <VectorParam id="5874"  name="rotation">
               <InterpolatingParam id="5875" interp="linr"  time="-9999999/1" value="0" leadInLength="0/1"  />
               <InterpolatingParam id="5876" interp="linr"  time="-9999999/1" value="0" leadInLength="0/1"  />
               <InterpolatingParam id="5877" interp="linr"  time="-9999999/1" value="0" leadInLength="0/1"  />
              </VectorParam>
              <VectorParam id="5878"  name="shear">
               <InterpolatingParam id="5879" interp="linr"  time="-9999999/1" value="0" leadInLength="0/1"  />
               <InterpolatingParam id="5880" interp="linr"  time="-9999999/1" value="0" leadInLength="0/1"  />
               <InterpolatingParam id="5881" interp="linr"  time="-9999999/1" value="0" leadInLength="0/1"  />
              </VectorParam>
              <VectorParam id="5882"  name="scale">
               <InterpolatingParam id="5883" interp="linr"  time="-9999999/1" value="1" leadInLength="0/1"  />
               <InterpolatingParam id="5884" interp="linr"  time="-9999999/1" value="1" leadInLength="0/1"  />
               <InterpolatingParam id="5885" interp="linr"  time="-9999999/1" value="1" leadInLength="0/1"  />
              </VectorParam>
              <VectorParam id="5886"  name="anchor">
               <InterpolatingParam id="5887" interp="linr"  time="0/1" value="0" leadInLength="0/1"  />
               <InterpolatingParam id="5888" interp="linr"  time="0/1" value="0" leadInLength="0/1"  />
               <InterpolatingParam id="5889" interp="linr"  time="0/1" value="0" leadInLength="0/1"  />
              </VectorParam>
             </Transformer>
             <Parameters>
              <VectorParam id="5890"  name="sourceCrop">
               <InterpolatingParam id="5891" interp="linr"  time="0/1" value="0" leadInLength="0/1"  />
               <InterpolatingParam id="5892" interp="linr"  time="0/1" value="0" leadInLength="0/1"  />
               <InterpolatingParam id="5893" interp="linr"  time="0/1" value="0" leadInLength="0/1"  />
               <InterpolatingParam id="5894" interp="linr"  time="0/1" value="0" leadInLength="0/1"  />
              </VectorParam>
              <VectorParam id="5895"  name="geometryCrop">
               <InterpolatingParam id="5896" interp="linr"  time="-9999999/1" value="0" leadInLength="0/1"  />
               <InterpolatingParam id="5897" interp="linr"  time="-9999999/1" value="0" leadInLength="0/1"  />
               <InterpolatingParam id="5898" interp="linr"  time="-9999999/1" value="0" leadInLength="0/1"  />
               <InterpolatingParam id="5899" interp="linr"  time="-9999999/1" value="0" leadInLength="0/1"  />
              </VectorParam>
              <InterpolatingParam id="5900" interp="linr"  time="-9999999/1" value="1" leadInLength="0/1"  name="opacity"/>
             </Parameters>
             <Attributes>
              <Attribute id="5901" value="" name="ident"/>
             </Attributes>
             <ExtraData>
              <Entry key="ZoomPanBin">
               <ZoomPanBin id="5902"  >
                <ZoomPanKeyframes>
                 <ZoomPanKeyframe id="5903" timeRangeEnd="-9999999/1" timeRangeDuration="0/1" interpolaterName="linr"  />
                </ZoomPanKeyframes>
               </ZoomPanBin>
              </Entry>
             </ExtraData>
            </VMFile>
            <MetaData>
             <entry key="WinSubProjectDisplayName" val=""/>
            </MetaData>
           </UnifiedMedia>
           <UnifiedMedia id="5904"  >
            <AMFile id="5905" start="824" duration="547" scalar="1/1" mediaStart="641/1" mediaDuration="547/1" trackNumber="1" src="27" channelNumber="0" >
             <Parameters>
              <InterpolatingParam id="5906" interp="linr"  time="0/1" value="1" leadInLength="0/1"  name="volume"/>
              <Parameter id="5907"  name="captions"/>
             </Parameters>
             <Attributes>
              <Attribute id="5908" value="" name="ident"/>
              <Attribute id="5909" value="48000" name="sampleRate"/>
              <Attribute id="5910" value="16" name="bitDepth"/>
              <Attribute id="5911" value="1" name="gain"/>
              <Attribute id="5912" value="0" name="mixToMono"/>
             </Attributes>
            </AMFile>
            <VMFile id="5913" start="824" duration="547" scalar="1/1" mediaStart="641/1" mediaDuration="547/1" trackNumber="0" src="27" >
             <Transformer>
              <VectorParam id="5914"  name="translation">
               <InterpolatingParam id="5915" interp="linr"  time="-9999999/1" value="0" leadInLength="0/1"  />
               <InterpolatingParam id="5916" interp="linr"  time="-9999999/1" value="0" leadInLength="0/1"  />
               <InterpolatingParam id="5917" interp="linr"  time="-9999999/1" value="0" leadInLength="0/1"  />
              </VectorParam>
              <VectorParam id="5918"  name="rotation">
               <InterpolatingParam id="5919" interp="linr"  time="-9999999/1" value="0" leadInLength="0/1"  />
               <InterpolatingParam id="5920" interp="linr"  time="-9999999/1" value="0" leadInLength="0/1"  />
               <InterpolatingParam id="5921" interp="linr"  time="-9999999/1" value="0" leadInLength="0/1"  />
              </VectorParam>
              <VectorParam id="5922"  name="shear">
               <InterpolatingParam id="5923" interp="linr"  time="-9999999/1" value="0" leadInLength="0/1"  />
               <InterpolatingParam id="5924" interp="linr"  time="-9999999/1" value="0" leadInLength="0/1"  />
               <InterpolatingParam id="5925" interp="linr"  time="-9999999/1" value="0" leadInLength="0/1"  />
              </VectorParam>
              <VectorParam id="5926"  name="scale">
               <InterpolatingParam id="5927" interp="linr"  time="-9999999/1" value="1" leadInLength="0/1"  />
               <InterpolatingParam id="5928" interp="linr"  time="-9999999/1" value="1" leadInLength="0/1"  />
               <InterpolatingParam id="5929" interp="linr"  time="-9999999/1" value="1" leadInLength="0/1"  />
              </VectorParam>
              <VectorParam id="5930"  name="anchor">
               <InterpolatingParam id="5931" interp="linr"  time="0/1" value="0" leadInLength="0/1"  />
               <InterpolatingParam id="5932" interp="linr"  time="0/1" value="0" leadInLength="0/1"  />
               <InterpolatingParam id="5933" interp="linr"  time="0/1" value="0" leadInLength="0/1"  />
              </VectorParam>
             </Transformer>
             <Parameters>
              <VectorParam id="5934"  name="sourceCrop">
               <InterpolatingParam id="5935" interp="linr"  time="0/1" value="0" leadInLength="0/1"  />
               <InterpolatingParam id="5936" interp="linr"  time="0/1" value="0" leadInLength="0/1"  />
               <InterpolatingParam id="5937" interp="linr"  time="0/1" value="0" leadInLength="0/1"  />
               <InterpolatingParam id="5938" interp="linr"  time="0/1" value="0" leadInLength="0/1"  />
              </VectorParam>
              <VectorParam id="5939"  name="geometryCrop">
               <InterpolatingParam id="5940" interp="linr"  time="-9999999/1" value="0" leadInLength="0/1"  />
               <InterpolatingParam id="5941" interp="linr"  time="-9999999/1" value="0" leadInLength="0/1"  />
               <InterpolatingParam id="5942" interp="linr"  time="-9999999/1" value="0" leadInLength="0/1"  />
               <InterpolatingParam id="5943" interp="linr"  time="-9999999/1" value="0" leadInLength="0/1"  />
              </VectorParam>
              <InterpolatingParam id="5944" interp="linr"  time="-9999999/1" value="1" leadInLength="0/1"  name="opacity"/>
             </Parameters>
             <Attributes>
              <Attribute id="5945" value="" name="ident"/>
             </Attributes>
             <ExtraData>
              <Entry key="ZoomPanBin">
               <ZoomPanBin id="5946"  >
                <ZoomPanKeyframes>
                 <ZoomPanKeyframe id="5947" timeRangeEnd="-9999999/1" timeRangeDuration="0/1" interpolaterName="linr"  />
                </ZoomPanKeyframes>
               </ZoomPanBin>
              </Entry>
             </ExtraData>
            </VMFile>
            <MetaData>
             <entry key="WinSubProjectDisplayName" val=""/>
            </MetaData>
           </UnifiedMedia>
          </Medias>
         </GenericTrack>
        </StitchedMedia>
        <StitchedMedia id="5948" start="7633" duration="134" scalar="18014398509481984/13202951179823889" mediaStart="1667378015849026112/962680174287975" mediaDuration="450359962737049600/4585679781356641" minMediaStart="-172800/1" >
         <Transformer>
          <VectorParam id="5949"  name="translation">
           <InterpolatingParam id="5950" interp="linr"  time="-9999999/1" value="-354.31746031734724" leadInLength="0/1"  />
           <InterpolatingParam id="5951" interp="linr"  time="-9999999/1" value="-189.61309523789603" leadInLength="0/1"  />
           <InterpolatingParam id="5952" interp="linr"  time="-9999999/1" value="0" leadInLength="0/1"  />
          </VectorParam>
          <VectorParam id="5953"  name="rotation">
           <InterpolatingParam id="5954" interp="linr"  time="-9999999/1" value="0" leadInLength="0/1"  />
           <InterpolatingParam id="5955" interp="linr"  time="-9999999/1" value="0" leadInLength="0/1"  />
           <InterpolatingParam id="5956" interp="linr"  time="-9999999/1" value="0" leadInLength="0/1"  />
          </VectorParam>
          <VectorParam id="5957"  name="shear">
           <InterpolatingParam id="5958" interp="linr"  time="-9999999/1" value="0" leadInLength="0/1"  />
           <InterpolatingParam id="5959" interp="linr"  time="-9999999/1" value="0" leadInLength="0/1"  />
           <InterpolatingParam id="5960" interp="linr"  time="-9999999/1" value="0" leadInLength="0/1"  />
          </VectorParam>
          <VectorParam id="5961"  name="scale">
           <InterpolatingParam id="5962" interp="linr"  time="-9999999/1" value="1.5217923280424808" leadInLength="0/1"  />
           <InterpolatingParam id="5963" interp="linr"  time="-9999999/1" value="1.5217923280424808" leadInLength="0/1"  />
           <InterpolatingParam id="5964" interp="linr"  time="-9999999/1" value="1" leadInLength="0/1"  />
          </VectorParam>
          <VectorParam id="5965"  name="anchor">
           <InterpolatingParam id="5966" interp="linr"  >
            <Keyframes>
            <Keyframe id="5967"  time="0/1" value="0" leadInLength="0/1"  />
            <Keyframe id="5968"  time="18190/353" value="0" leadInLength="0/1"  />
            </Keyframes>
           </InterpolatingParam>
           <InterpolatingParam id="5969" interp="linr"  >
            <Keyframes>
            <Keyframe id="5970"  time="0/1" value="0" leadInLength="0/1"  />
            <Keyframe id="5971"  time="18190/353" value="0" leadInLength="0/1"  />
            </Keyframes>
           </InterpolatingParam>
           <InterpolatingParam id="5972" interp="linr"  >
            <Keyframes>
            <Keyframe id="5973"  time="0/1" value="0" leadInLength="0/1"  />
            <Keyframe id="5974"  time="18190/353" value="0" leadInLength="0/1"  />
            </Keyframes>
           </InterpolatingParam>
          </VectorParam>
         </Transformer>
         <Parameters>
          <VectorParam id="5975"  name="sourceCrop">
           <InterpolatingParam id="5976" interp="linr"  >
            <Keyframes>
            <Keyframe id="5977"  time="0/1" value="0" leadInLength="0/1"  />
            <Keyframe id="5978"  time="18190/353" value="0" leadInLength="0/1"  />
            </Keyframes>
           </InterpolatingParam>
           <InterpolatingParam id="5979" interp="linr"  >
            <Keyframes>
            <Keyframe id="5980"  time="0/1" value="0" leadInLength="0/1"  />
            <Keyframe id="5981"  time="18190/353" value="0" leadInLength="0/1"  />
            </Keyframes>
           </InterpolatingParam>
           <InterpolatingParam id="5982" interp="linr"  >
            <Keyframes>
            <Keyframe id="5983"  time="0/1" value="0" leadInLength="0/1"  />
            <Keyframe id="5984"  time="18190/353" value="0" leadInLength="0/1"  />
            </Keyframes>
           </InterpolatingParam>
           <InterpolatingParam id="5985" interp="linr"  >
            <Keyframes>
            <Keyframe id="5986"  time="0/1" value="0" leadInLength="0/1"  />
            <Keyframe id="5987"  time="18190/353" value="0" leadInLength="0/1"  />
            </Keyframes>
           </InterpolatingParam>
          </VectorParam>
          <VectorParam id="5988"  name="geometryCrop">
           <InterpolatingParam id="5989" interp="linr"  time="-9999999/1" value="0" leadInLength="0/1"  />
           <InterpolatingParam id="5990" interp="linr"  time="-9999999/1" value="0" leadInLength="0/1"  />
           <InterpolatingParam id="5991" interp="linr"  time="-9999999/1" value="0" leadInLength="0/1"  />
           <InterpolatingParam id="5992" interp="linr"  time="-9999999/1" value="0" leadInLength="0/1"  />
          </VectorParam>
          <InterpolatingParam id="5993" interp="linr"  time="-9999999/1" value="1" leadInLength="0/1"  name="opacity"/>
          <InterpolatingParam id="5994" interp="linr"  time="0/1" value="1" leadInLength="0/1"  name="cursorOpacity"/>
          <InterpolatingParam id="5995" interp="linr"  time="0/1" value="1" leadInLength="0/1"  name="cursorScale"/>
          <InterpolatingParam id="5996" interp="linr"  name="volume">
           <Keyframes>
           <Keyframe id="5997"  time="-172800/1" value="0" leadInLength="0/1"  />
           <Keyframe id="5998"  time="48/1" value="0" leadInLength="0/1"  />
           </Keyframes>
          </InterpolatingParam>
          <Parameter id="5999"  name="captions"/>
         </Parameters>
         <Attributes>
          <Attribute id="6000" value="" name="ident"/>
          <Attribute id="6001" value="0" name="mixToMono"/>
         </Attributes>
         <MetaData>
          <entry key="WinSubProjectDisplayName" val=""/>
         </MetaData>
         <ExtraData>
          <Entry key="ZoomPanBin">
           <ZoomPanBin id="6002"  >
            <ZoomPanKeyframes>
             <ZoomPanKeyframe id="6003" timeRangeEnd="-9999999/1" timeRangeDuration="0/1" interpolaterName="linr"  />
            </ZoomPanKeyframes>
           </ZoomPanBin>
          </Entry>
          <Entry key="CursorEffectBin">
           <CursorEffectBin id="6004"  >
            <CursorEffectKeyframes>
            </CursorEffectKeyframes>
           </CursorEffectBin>
          </Entry>
         </ExtraData>
         <GenericTrack id="6005"  >
          <Attributes>
           <Attribute id="6006" value="" name="ident"/>
           <Attribute id="6007" value="0" name="audioMuted"/>
           <Attribute id="6008" value="0" name="videoHidden"/>
          </Attributes>
          <MetaData>
           <entry key="IsLocked" val="False"/>
           <entry key="WinTrackHeight" val="0"/>
          </MetaData>
          <Medias>
           <IMFile id="6009" start="-172800" duration="172848" scalar="1/1" mediaStart="575/1" mediaDuration="1/1" trackNumber="0" src="26" trimStartSum="-172800/1" >
            <Transformer>
             <VectorParam id="6010"  name="translation">
              <InterpolatingParam id="6011" interp="linr"  time="-9999999/1" value="0" leadInLength="0/1"  />
              <InterpolatingParam id="6012" interp="linr"  time="-9999999/1" value="0" leadInLength="0/1"  />
              <InterpolatingParam id="6013" interp="linr"  time="-9999999/1" value="0" leadInLength="0/1"  />
             </VectorParam>
             <VectorParam id="6014"  name="rotation">
              <InterpolatingParam id="6015" interp="linr"  time="-9999999/1" value="0" leadInLength="0/1"  />
              <InterpolatingParam id="6016" interp="linr"  time="-9999999/1" value="0" leadInLength="0/1"  />
              <InterpolatingParam id="6017" interp="linr"  time="-9999999/1" value="0" leadInLength="0/1"  />
             </VectorParam>
             <VectorParam id="6018"  name="shear">
              <InterpolatingParam id="6019" interp="linr"  time="-9999999/1" value="0" leadInLength="0/1"  />
              <InterpolatingParam id="6020" interp="linr"  time="-9999999/1" value="0" leadInLength="0/1"  />
              <InterpolatingParam id="6021" interp="linr"  time="-9999999/1" value="0" leadInLength="0/1"  />
             </VectorParam>
             <VectorParam id="6022"  name="scale">
              <InterpolatingParam id="6023" interp="linr"  time="-9999999/1" value="1" leadInLength="0/1"  />
              <InterpolatingParam id="6024" interp="linr"  time="-9999999/1" value="1" leadInLength="0/1"  />
              <InterpolatingParam id="6025" interp="linr"  time="-9999999/1" value="1" leadInLength="0/1"  />
             </VectorParam>
             <VectorParam id="6026"  name="anchor">
              <InterpolatingParam id="6027" interp="linr"  time="0/1" value="0" leadInLength="0/1"  />
              <InterpolatingParam id="6028" interp="linr"  time="0/1" value="0" leadInLength="0/1"  />
              <InterpolatingParam id="6029" interp="linr"  time="0/1" value="0" leadInLength="0/1"  />
             </VectorParam>
            </Transformer>
            <Parameters>
             <VectorParam id="6030"  name="sourceCrop">
              <InterpolatingParam id="6031" interp="linr"  time="0/1" value="0" leadInLength="0/1"  />
              <InterpolatingParam id="6032" interp="linr"  time="0/1" value="0" leadInLength="0/1"  />
              <InterpolatingParam id="6033" interp="linr"  time="0/1" value="0" leadInLength="0/1"  />
              <InterpolatingParam id="6034" interp="linr"  time="0/1" value="0" leadInLength="0/1"  />
             </VectorParam>
             <VectorParam id="6035"  name="geometryCrop">
              <InterpolatingParam id="6036" interp="linr"  time="-9999999/1" value="0" leadInLength="0/1"  />
              <InterpolatingParam id="6037" interp="linr"  time="-9999999/1" value="0" leadInLength="0/1"  />
              <InterpolatingParam id="6038" interp="linr"  time="-9999999/1" value="0" leadInLength="0/1"  />
              <InterpolatingParam id="6039" interp="linr"  time="-9999999/1" value="0" leadInLength="0/1"  />
             </VectorParam>
             <InterpolatingParam id="6040" interp="linr"  time="-9999999/1" value="1" leadInLength="0/1"  name="opacity"/>
            </Parameters>
            <Attributes>
             <Attribute id="6041" value="" name="ident"/>
            </Attributes>
            <MetaData>
             <entry key="WinSubProjectDisplayName" val=""/>
            </MetaData>
            <ExtraData>
             <Entry key="ZoomPanBin">
              <ZoomPanBin id="6042"  >
               <ZoomPanKeyframes>
                <ZoomPanKeyframe id="6043" timeRangeEnd="-9999999/1" timeRangeDuration="0/1" interpolaterName="linr"  />
               </ZoomPanKeyframes>
              </ZoomPanBin>
             </Entry>
            </ExtraData>
           </IMFile>
           <UnifiedMedia id="6044"  >
            <AMFile id="6045" start="48" duration="4" scalar="1/1" mediaStart="575/1" mediaDuration="4/1" trackNumber="1" src="26" channelNumber="0" >
             <Parameters>
              <InterpolatingParam id="6046" interp="linr"  time="0/1" value="1" leadInLength="0/1"  name="volume"/>
              <Parameter id="6047"  name="captions"/>
             </Parameters>
             <Attributes>
              <Attribute id="6048" value="" name="ident"/>
              <Attribute id="6049" value="44100" name="sampleRate"/>
              <Attribute id="6050" value="16" name="bitDepth"/>
              <Attribute id="6051" value="1" name="gain"/>
              <Attribute id="6052" value="0" name="mixToMono"/>
             </Attributes>
            </AMFile>
            <VMFile id="6053" start="48" duration="4" scalar="1/1" mediaStart="575/1" mediaDuration="4/1" trackNumber="0" src="26" >
             <Transformer>
              <VectorParam id="6054"  name="translation">
               <InterpolatingParam id="6055" interp="linr"  time="-9999999/1" value="0" leadInLength="0/1"  />
               <InterpolatingParam id="6056" interp="linr"  time="-9999999/1" value="0" leadInLength="0/1"  />
               <InterpolatingParam id="6057" interp="linr"  time="-9999999/1" value="0" leadInLength="0/1"  />
              </VectorParam>
              <VectorParam id="6058"  name="rotation">
               <InterpolatingParam id="6059" interp="linr"  time="-9999999/1" value="0" leadInLength="0/1"  />
               <InterpolatingParam id="6060" interp="linr"  time="-9999999/1" value="0" leadInLength="0/1"  />
               <InterpolatingParam id="6061" interp="linr"  time="-9999999/1" value="0" leadInLength="0/1"  />
              </VectorParam>
              <VectorParam id="6062"  name="shear">
               <InterpolatingParam id="6063" interp="linr"  time="-9999999/1" value="0" leadInLength="0/1"  />
               <InterpolatingParam id="6064" interp="linr"  time="-9999999/1" value="0" leadInLength="0/1"  />
               <InterpolatingParam id="6065" interp="linr"  time="-9999999/1" value="0" leadInLength="0/1"  />
              </VectorParam>
              <VectorParam id="6066"  name="scale">
               <InterpolatingParam id="6067" interp="linr"  time="-9999999/1" value="1" leadInLength="0/1"  />
               <InterpolatingParam id="6068" interp="linr"  time="-9999999/1" value="1" leadInLength="0/1"  />
               <InterpolatingParam id="6069" interp="linr"  time="-9999999/1" value="1" leadInLength="0/1"  />
              </VectorParam>
              <VectorParam id="6070"  name="anchor">
               <InterpolatingParam id="6071" interp="linr"  time="0/1" value="0" leadInLength="0/1"  />
               <InterpolatingParam id="6072" interp="linr"  time="0/1" value="0" leadInLength="0/1"  />
               <InterpolatingParam id="6073" interp="linr"  time="0/1" value="0" leadInLength="0/1"  />
              </VectorParam>
             </Transformer>
             <Parameters>
              <VectorParam id="6074"  name="sourceCrop">
               <InterpolatingParam id="6075" interp="linr"  time="0/1" value="0" leadInLength="0/1"  />
               <InterpolatingParam id="6076" interp="linr"  time="0/1" value="0" leadInLength="0/1"  />
               <InterpolatingParam id="6077" interp="linr"  time="0/1" value="0" leadInLength="0/1"  />
               <InterpolatingParam id="6078" interp="linr"  time="0/1" value="0" leadInLength="0/1"  />
              </VectorParam>
              <VectorParam id="6079"  name="geometryCrop">
               <InterpolatingParam id="6080" interp="linr"  time="-9999999/1" value="0" leadInLength="0/1"  />
               <InterpolatingParam id="6081" interp="linr"  time="-9999999/1" value="0" leadInLength="0/1"  />
               <InterpolatingParam id="6082" interp="linr"  time="-9999999/1" value="0" leadInLength="0/1"  />
               <InterpolatingParam id="6083" interp="linr"  time="-9999999/1" value="0" leadInLength="0/1"  />
              </VectorParam>
              <InterpolatingParam id="6084" interp="linr"  time="-9999999/1" value="1" leadInLength="0/1"  name="opacity"/>
             </Parameters>
             <Attributes>
              <Attribute id="6085" value="" name="ident"/>
             </Attributes>
             <ExtraData>
              <Entry key="ZoomPanBin">
               <ZoomPanBin id="6086"  >
                <ZoomPanKeyframes>
                 <ZoomPanKeyframe id="6087" timeRangeEnd="-9999999/1" timeRangeDuration="0/1" interpolaterName="linr"  />
                </ZoomPanKeyframes>
               </ZoomPanBin>
              </Entry>
             </ExtraData>
            </VMFile>
            <MetaData>
             <entry key="WinSubProjectDisplayName" val=""/>
            </MetaData>
           </UnifiedMedia>
           <IMFile id="6088" start="52" duration="964" scalar="1/1" mediaStart="578/1" mediaDuration="1/1" trackNumber="0" src="26" trimStartSum="0/1" >
            <Transformer>
             <VectorParam id="6089"  name="translation">
              <InterpolatingParam id="6090" interp="linr"  time="-9999999/1" value="0" leadInLength="0/1"  />
              <InterpolatingParam id="6091" interp="linr"  time="-9999999/1" value="0" leadInLength="0/1"  />
              <InterpolatingParam id="6092" interp="linr"  time="-9999999/1" value="0" leadInLength="0/1"  />
             </VectorParam>
             <VectorParam id="6093"  name="rotation">
              <InterpolatingParam id="6094" interp="linr"  time="-9999999/1" value="0" leadInLength="0/1"  />
              <InterpolatingParam id="6095" interp="linr"  time="-9999999/1" value="0" leadInLength="0/1"  />
              <InterpolatingParam id="6096" interp="linr"  time="-9999999/1" value="0" leadInLength="0/1"  />
             </VectorParam>
             <VectorParam id="6097"  name="shear">
              <InterpolatingParam id="6098" interp="linr"  time="-9999999/1" value="0" leadInLength="0/1"  />
              <InterpolatingParam id="6099" interp="linr"  time="-9999999/1" value="0" leadInLength="0/1"  />
              <InterpolatingParam id="6100" interp="linr"  time="-9999999/1" value="0" leadInLength="0/1"  />
             </VectorParam>
             <VectorParam id="6101"  name="scale">
              <InterpolatingParam id="6102" interp="linr"  time="-9999999/1" value="1" leadInLength="0/1"  />
              <InterpolatingParam id="6103" interp="linr"  time="-9999999/1" value="1" leadInLength="0/1"  />
              <InterpolatingParam id="6104" interp="linr"  time="-9999999/1" value="1" leadInLength="0/1"  />
             </VectorParam>
             <VectorParam id="6105"  name="anchor">
              <InterpolatingParam id="6106" interp="linr"  time="0/1" value="0" leadInLength="0/1"  />
              <InterpolatingParam id="6107" interp="linr"  time="0/1" value="0" leadInLength="0/1"  />
              <InterpolatingParam id="6108" interp="linr"  time="0/1" value="0" leadInLength="0/1"  />
             </VectorParam>
            </Transformer>
            <Parameters>
             <VectorParam id="6109"  name="sourceCrop">
              <InterpolatingParam id="6110" interp="linr"  time="0/1" value="0" leadInLength="0/1"  />
              <InterpolatingParam id="6111" interp="linr"  time="0/1" value="0" leadInLength="0/1"  />
              <InterpolatingParam id="6112" interp="linr"  time="0/1" value="0" leadInLength="0/1"  />
              <InterpolatingParam id="6113" interp="linr"  time="0/1" value="0" leadInLength="0/1"  />
             </VectorParam>
             <VectorParam id="6114"  name="geometryCrop">
              <InterpolatingParam id="6115" interp="linr"  time="-9999999/1" value="0" leadInLength="0/1"  />
              <InterpolatingParam id="6116" interp="linr"  time="-9999999/1" value="0" leadInLength="0/1"  />
              <InterpolatingParam id="6117" interp="linr"  time="-9999999/1" value="0" leadInLength="0/1"  />
              <InterpolatingParam id="6118" interp="linr"  time="-9999999/1" value="0" leadInLength="0/1"  />
             </VectorParam>
             <InterpolatingParam id="6119" interp="linr"  time="-9999999/1" value="1" leadInLength="0/1"  name="opacity"/>
            </Parameters>
            <Attributes>
             <Attribute id="6120" value="" name="ident"/>
            </Attributes>
            <MetaData>
             <entry key="WinSubProjectDisplayName" val=""/>
            </MetaData>
            <ExtraData>
             <Entry key="ZoomPanBin">
              <ZoomPanBin id="6121"  >
               <ZoomPanKeyframes>
                <ZoomPanKeyframe id="6122" timeRangeEnd="-9999999/1" timeRangeDuration="0/1" interpolaterName="linr"  />
               </ZoomPanKeyframes>
              </ZoomPanBin>
             </Entry>
            </ExtraData>
           </IMFile>
           <UnifiedMedia id="6123"  >
            <AMFile id="6124" start="1016" duration="2375" scalar="1/1" mediaStart="577/1" mediaDuration="2375/1" trackNumber="1" src="26" channelNumber="0" >
             <Parameters>
              <InterpolatingParam id="6125" interp="linr"  time="0/1" value="1" leadInLength="0/1"  name="volume"/>
              <Parameter id="6126"  name="captions"/>
             </Parameters>
             <Attributes>
              <Attribute id="6127" value="" name="ident"/>
              <Attribute id="6128" value="44100" name="sampleRate"/>
              <Attribute id="6129" value="16" name="bitDepth"/>
              <Attribute id="6130" value="1" name="gain"/>
              <Attribute id="6131" value="0" name="mixToMono"/>
             </Attributes>
            </AMFile>
            <VMFile id="6132" start="1016" duration="2375" scalar="1/1" mediaStart="577/1" mediaDuration="2375/1" trackNumber="0" src="26" >
             <Transformer>
              <VectorParam id="6133"  name="translation">
               <InterpolatingParam id="6134" interp="linr"  time="-9999999/1" value="0" leadInLength="0/1"  />
               <InterpolatingParam id="6135" interp="linr"  time="-9999999/1" value="0" leadInLength="0/1"  />
               <InterpolatingParam id="6136" interp="linr"  time="-9999999/1" value="0" leadInLength="0/1"  />
              </VectorParam>
              <VectorParam id="6137"  name="rotation">
               <InterpolatingParam id="6138" interp="linr"  time="-9999999/1" value="0" leadInLength="0/1"  />
               <InterpolatingParam id="6139" interp="linr"  time="-9999999/1" value="0" leadInLength="0/1"  />
               <InterpolatingParam id="6140" interp="linr"  time="-9999999/1" value="0" leadInLength="0/1"  />
              </VectorParam>
              <VectorParam id="6141"  name="shear">
               <InterpolatingParam id="6142" interp="linr"  time="-9999999/1" value="0" leadInLength="0/1"  />
               <InterpolatingParam id="6143" interp="linr"  time="-9999999/1" value="0" leadInLength="0/1"  />
               <InterpolatingParam id="6144" interp="linr"  time="-9999999/1" value="0" leadInLength="0/1"  />
              </VectorParam>
              <VectorParam id="6145"  name="scale">
               <InterpolatingParam id="6146" interp="linr"  time="-9999999/1" value="1" leadInLength="0/1"  />
               <InterpolatingParam id="6147" interp="linr"  time="-9999999/1" value="1" leadInLength="0/1"  />
               <InterpolatingParam id="6148" interp="linr"  time="-9999999/1" value="1" leadInLength="0/1"  />
              </VectorParam>
              <VectorParam id="6149"  name="anchor">
               <InterpolatingParam id="6150" interp="linr"  time="0/1" value="0" leadInLength="0/1"  />
               <InterpolatingParam id="6151" interp="linr"  time="0/1" value="0" leadInLength="0/1"  />
               <InterpolatingParam id="6152" interp="linr"  time="0/1" value="0" leadInLength="0/1"  />
              </VectorParam>
             </Transformer>
             <Parameters>
              <VectorParam id="6153"  name="sourceCrop">
               <InterpolatingParam id="6154" interp="linr"  time="0/1" value="0" leadInLength="0/1"  />
               <InterpolatingParam id="6155" interp="linr"  time="0/1" value="0" leadInLength="0/1"  />
               <InterpolatingParam id="6156" interp="linr"  time="0/1" value="0" leadInLength="0/1"  />
               <InterpolatingParam id="6157" interp="linr"  time="0/1" value="0" leadInLength="0/1"  />
              </VectorParam>
              <VectorParam id="6158"  name="geometryCrop">
               <InterpolatingParam id="6159" interp="linr"  time="-9999999/1" value="0" leadInLength="0/1"  />
               <InterpolatingParam id="6160" interp="linr"  time="-9999999/1" value="0" leadInLength="0/1"  />
               <InterpolatingParam id="6161" interp="linr"  time="-9999999/1" value="0" leadInLength="0/1"  />
               <InterpolatingParam id="6162" interp="linr"  time="-9999999/1" value="0" leadInLength="0/1"  />
              </VectorParam>
              <InterpolatingParam id="6163" interp="linr"  time="-9999999/1" value="1" leadInLength="0/1"  name="opacity"/>
             </Parameters>
             <Attributes>
              <Attribute id="6164" value="" name="ident"/>
             </Attributes>
             <ExtraData>
              <Entry key="ZoomPanBin">
               <ZoomPanBin id="6165"  >
                <ZoomPanKeyframes>
                 <ZoomPanKeyframe id="6166" timeRangeEnd="-9999999/1" timeRangeDuration="0/1" interpolaterName="linr"  />
                </ZoomPanKeyframes>
               </ZoomPanBin>
              </Entry>
             </ExtraData>
            </VMFile>
            <MetaData>
             <entry key="WinSubProjectDisplayName" val=""/>
            </MetaData>
           </UnifiedMedia>
          </Medias>
         </GenericTrack>
        </StitchedMedia>
        <StitchedMedia id="6167" start="7767" duration="87" scalar="788163712420673/1548112371908608" mediaStart="144115188075855872/78741716577593" mediaDuration="134685776356048896/788163712420673" minMediaStart="-172800/1" >
         <Transformer>
          <VectorParam id="6168"  name="translation">
           <InterpolatingParam id="6169" interp="linr"  time="-9999999/1" value="79.460317460351561" leadInLength="0/1"  />
           <InterpolatingParam id="6170" interp="linr"  time="-9999999/1" value="-141.44642857116625" leadInLength="0/1"  />
           <InterpolatingParam id="6171" interp="linr"  time="-9999999/1" value="0" leadInLength="0/1"  />
          </VectorParam>
          <VectorParam id="6172"  name="rotation">
           <InterpolatingParam id="6173" interp="linr"  time="-9999999/1" value="0" leadInLength="0/1"  />
           <InterpolatingParam id="6174" interp="linr"  time="-9999999/1" value="0" leadInLength="0/1"  />
           <InterpolatingParam id="6175" interp="linr"  time="-9999999/1" value="0" leadInLength="0/1"  />
          </VectorParam>
          <VectorParam id="6176"  name="shear">
           <InterpolatingParam id="6177" interp="linr"  time="-9999999/1" value="0" leadInLength="0/1"  />
           <InterpolatingParam id="6178" interp="linr"  time="-9999999/1" value="0" leadInLength="0/1"  />
           <InterpolatingParam id="6179" interp="linr"  time="-9999999/1" value="0" leadInLength="0/1"  />
          </VectorParam>
          <VectorParam id="6180"  name="scale">
           <InterpolatingParam id="6181" interp="linr"  time="-9999999/1" value="1.3930886243387159" leadInLength="0/1"  />
           <InterpolatingParam id="6182" interp="linr"  time="-9999999/1" value="1.3930886243387157" leadInLength="0/1"  />
           <InterpolatingParam id="6183" interp="linr"  time="-9999999/1" value="1" leadInLength="0/1"  />
          </VectorParam>
          <VectorParam id="6184"  name="anchor">
           <InterpolatingParam id="6185" interp="linr"  >
            <Keyframes>
            <Keyframe id="6186"  time="0/1" value="0" leadInLength="0/1"  />
            <Keyframe id="6187"  time="18190/353" value="0" leadInLength="0/1"  />
            </Keyframes>
           </InterpolatingParam>
           <InterpolatingParam id="6188" interp="linr"  >
            <Keyframes>
            <Keyframe id="6189"  time="0/1" value="0" leadInLength="0/1"  />
            <Keyframe id="6190"  time="18190/353" value="0" leadInLength="0/1"  />
            </Keyframes>
           </InterpolatingParam>
           <InterpolatingParam id="6191" interp="linr"  >
            <Keyframes>
            <Keyframe id="6192"  time="0/1" value="0" leadInLength="0/1"  />
            <Keyframe id="6193"  time="18190/353" value="0" leadInLength="0/1"  />
            </Keyframes>
           </InterpolatingParam>
          </VectorParam>
         </Transformer>
         <Parameters>
          <VectorParam id="6194"  name="sourceCrop">
           <InterpolatingParam id="6195" interp="linr"  >
            <Keyframes>
            <Keyframe id="6196"  time="0/1" value="0" leadInLength="0/1"  />
            <Keyframe id="6197"  time="18190/353" value="0" leadInLength="0/1"  />
            </Keyframes>
           </InterpolatingParam>
           <InterpolatingParam id="6198" interp="linr"  >
            <Keyframes>
            <Keyframe id="6199"  time="0/1" value="0" leadInLength="0/1"  />
            <Keyframe id="6200"  time="18190/353" value="0" leadInLength="0/1"  />
            </Keyframes>
           </InterpolatingParam>
           <InterpolatingParam id="6201" interp="linr"  >
            <Keyframes>
            <Keyframe id="6202"  time="0/1" value="0" leadInLength="0/1"  />
            <Keyframe id="6203"  time="18190/353" value="0" leadInLength="0/1"  />
            </Keyframes>
           </InterpolatingParam>
           <InterpolatingParam id="6204" interp="linr"  >
            <Keyframes>
            <Keyframe id="6205"  time="0/1" value="0" leadInLength="0/1"  />
            <Keyframe id="6206"  time="18190/353" value="0" leadInLength="0/1"  />
            </Keyframes>
           </InterpolatingParam>
          </VectorParam>
          <VectorParam id="6207"  name="geometryCrop">
           <InterpolatingParam id="6208" interp="linr"  time="-9999999/1" value="0" leadInLength="0/1"  />
           <InterpolatingParam id="6209" interp="linr"  time="-9999999/1" value="0" leadInLength="0/1"  />
           <InterpolatingParam id="6210" interp="linr"  time="-9999999/1" value="0" leadInLength="0/1"  />
           <InterpolatingParam id="6211" interp="linr"  time="-9999999/1" value="0" leadInLength="0/1"  />
          </VectorParam>
          <InterpolatingParam id="6212" interp="linr"  time="-9999999/1" value="1" leadInLength="0/1"  name="opacity"/>
          <InterpolatingParam id="6213" interp="linr"  time="0/1" value="1" leadInLength="0/1"  name="cursorOpacity"/>
          <InterpolatingParam id="6214" interp="linr"  time="0/1" value="1" leadInLength="0/1"  name="cursorScale"/>
          <InterpolatingParam id="6215" interp="linr"  name="volume">
           <Keyframes>
           <Keyframe id="6216"  time="-172800/1" value="0" leadInLength="0/1"  />
           <Keyframe id="6217"  time="48/1" value="0" leadInLength="0/1"  />
           </Keyframes>
          </InterpolatingParam>
          <Parameter id="6218"  name="captions"/>
         </Parameters>
         <Attributes>
          <Attribute id="6219" value="" name="ident"/>
          <Attribute id="6220" value="0" name="mixToMono"/>
         </Attributes>
         <MetaData>
          <entry key="WinSubProjectDisplayName" val=""/>
         </MetaData>
         <ExtraData>
          <Entry key="ZoomPanBin">
           <ZoomPanBin id="6221"  >
            <ZoomPanKeyframes>
             <ZoomPanKeyframe id="6222" timeRangeEnd="-9999999/1" timeRangeDuration="0/1" interpolaterName="linr"  />
            </ZoomPanKeyframes>
           </ZoomPanBin>
          </Entry>
          <Entry key="CursorEffectBin">
           <CursorEffectBin id="6223"  >
            <CursorEffectKeyframes>
            </CursorEffectKeyframes>
           </CursorEffectBin>
          </Entry>
         </ExtraData>
         <GenericTrack id="6224"  >
          <Attributes>
           <Attribute id="6225" value="" name="ident"/>
           <Attribute id="6226" value="0" name="audioMuted"/>
           <Attribute id="6227" value="0" name="videoHidden"/>
          </Attributes>
          <MetaData>
           <entry key="IsLocked" val="False"/>
           <entry key="WinTrackHeight" val="0"/>
          </MetaData>
          <Medias>
           <IMFile id="6228" start="-172800" duration="172848" scalar="1/1" mediaStart="575/1" mediaDuration="1/1" trackNumber="0" src="26" trimStartSum="-172800/1" >
            <Transformer>
             <VectorParam id="6229"  name="translation">
              <InterpolatingParam id="6230" interp="linr"  time="-9999999/1" value="0" leadInLength="0/1"  />
              <InterpolatingParam id="6231" interp="linr"  time="-9999999/1" value="0" leadInLength="0/1"  />
              <InterpolatingParam id="6232" interp="linr"  time="-9999999/1" value="0" leadInLength="0/1"  />
             </VectorParam>
             <VectorParam id="6233"  name="rotation">
              <InterpolatingParam id="6234" interp="linr"  time="-9999999/1" value="0" leadInLength="0/1"  />
              <InterpolatingParam id="6235" interp="linr"  time="-9999999/1" value="0" leadInLength="0/1"  />
              <InterpolatingParam id="6236" interp="linr"  time="-9999999/1" value="0" leadInLength="0/1"  />
             </VectorParam>
             <VectorParam id="6237"  name="shear">
              <InterpolatingParam id="6238" interp="linr"  time="-9999999/1" value="0" leadInLength="0/1"  />
              <InterpolatingParam id="6239" interp="linr"  time="-9999999/1" value="0" leadInLength="0/1"  />
              <InterpolatingParam id="6240" interp="linr"  time="-9999999/1" value="0" leadInLength="0/1"  />
             </VectorParam>
             <VectorParam id="6241"  name="scale">
              <InterpolatingParam id="6242" interp="linr"  time="-9999999/1" value="1" leadInLength="0/1"  />
              <InterpolatingParam id="6243" interp="linr"  time="-9999999/1" value="1" leadInLength="0/1"  />
              <InterpolatingParam id="6244" interp="linr"  time="-9999999/1" value="1" leadInLength="0/1"  />
             </VectorParam>
             <VectorParam id="6245"  name="anchor">
              <InterpolatingParam id="6246" interp="linr"  time="0/1" value="0" leadInLength="0/1"  />
              <InterpolatingParam id="6247" interp="linr"  time="0/1" value="0" leadInLength="0/1"  />
              <InterpolatingParam id="6248" interp="linr"  time="0/1" value="0" leadInLength="0/1"  />
             </VectorParam>
            </Transformer>
            <Parameters>
             <VectorParam id="6249"  name="sourceCrop">
              <InterpolatingParam id="6250" interp="linr"  time="0/1" value="0" leadInLength="0/1"  />
              <InterpolatingParam id="6251" interp="linr"  time="0/1" value="0" leadInLength="0/1"  />
              <InterpolatingParam id="6252" interp="linr"  time="0/1" value="0" leadInLength="0/1"  />
              <InterpolatingParam id="6253" interp="linr"  time="0/1" value="0" leadInLength="0/1"  />
             </VectorParam>
             <VectorParam id="6254"  name="geometryCrop">
              <InterpolatingParam id="6255" interp="linr"  time="-9999999/1" value="0" leadInLength="0/1"  />
              <InterpolatingParam id="6256" interp="linr"  time="-9999999/1" value="0" leadInLength="0/1"  />
              <InterpolatingParam id="6257" interp="linr"  time="-9999999/1" value="0" leadInLength="0/1"  />
              <InterpolatingParam id="6258" interp="linr"  time="-9999999/1" value="0" leadInLength="0/1"  />
             </VectorParam>
             <InterpolatingParam id="6259" interp="linr"  time="-9999999/1" value="1" leadInLength="0/1"  name="opacity"/>
            </Parameters>
            <Attributes>
             <Attribute id="6260" value="" name="ident"/>
            </Attributes>
            <MetaData>
             <entry key="WinSubProjectDisplayName" val=""/>
            </MetaData>
            <ExtraData>
             <Entry key="ZoomPanBin">
              <ZoomPanBin id="6261"  >
               <ZoomPanKeyframes>
                <ZoomPanKeyframe id="6262" timeRangeEnd="-9999999/1" timeRangeDuration="0/1" interpolaterName="linr"  />
               </ZoomPanKeyframes>
              </ZoomPanBin>
             </Entry>
            </ExtraData>
           </IMFile>
           <UnifiedMedia id="6263"  >
            <AMFile id="6264" start="48" duration="4" scalar="1/1" mediaStart="575/1" mediaDuration="4/1" trackNumber="1" src="26" channelNumber="0" >
             <Parameters>
              <InterpolatingParam id="6265" interp="linr"  time="0/1" value="1" leadInLength="0/1"  name="volume"/>
              <Parameter id="6266"  name="captions"/>
             </Parameters>
             <Attributes>
              <Attribute id="6267" value="" name="ident"/>
              <Attribute id="6268" value="44100" name="sampleRate"/>
              <Attribute id="6269" value="16" name="bitDepth"/>
              <Attribute id="6270" value="1" name="gain"/>
              <Attribute id="6271" value="0" name="mixToMono"/>
             </Attributes>
            </AMFile>
            <VMFile id="6272" start="48" duration="4" scalar="1/1" mediaStart="575/1" mediaDuration="4/1" trackNumber="0" src="26" >
             <Transformer>
              <VectorParam id="6273"  name="translation">
               <InterpolatingParam id="6274" interp="linr"  time="-9999999/1" value="0" leadInLength="0/1"  />
               <InterpolatingParam id="6275" interp="linr"  time="-9999999/1" value="0" leadInLength="0/1"  />
               <InterpolatingParam id="6276" interp="linr"  time="-9999999/1" value="0" leadInLength="0/1"  />
              </VectorParam>
              <VectorParam id="6277"  name="rotation">
               <InterpolatingParam id="6278" interp="linr"  time="-9999999/1" value="0" leadInLength="0/1"  />
               <InterpolatingParam id="6279" interp="linr"  time="-9999999/1" value="0" leadInLength="0/1"  />
               <InterpolatingParam id="6280" interp="linr"  time="-9999999/1" value="0" leadInLength="0/1"  />
              </VectorParam>
              <VectorParam id="6281"  name="shear">
               <InterpolatingParam id="6282" interp="linr"  time="-9999999/1" value="0" leadInLength="0/1"  />
               <InterpolatingParam id="6283" interp="linr"  time="-9999999/1" value="0" leadInLength="0/1"  />
               <InterpolatingParam id="6284" interp="linr"  time="-9999999/1" value="0" leadInLength="0/1"  />
              </VectorParam>
              <VectorParam id="6285"  name="scale">
               <InterpolatingParam id="6286" interp="linr"  time="-9999999/1" value="1" leadInLength="0/1"  />
               <InterpolatingParam id="6287" interp="linr"  time="-9999999/1" value="1" leadInLength="0/1"  />
               <InterpolatingParam id="6288" interp="linr"  time="-9999999/1" value="1" leadInLength="0/1"  />
              </VectorParam>
              <VectorParam id="6289"  name="anchor">
               <InterpolatingParam id="6290" interp="linr"  time="0/1" value="0" leadInLength="0/1"  />
               <InterpolatingParam id="6291" interp="linr"  time="0/1" value="0" leadInLength="0/1"  />
               <InterpolatingParam id="6292" interp="linr"  time="0/1" value="0" leadInLength="0/1"  />
              </VectorParam>
             </Transformer>
             <Parameters>
              <VectorParam id="6293"  name="sourceCrop">
               <InterpolatingParam id="6294" interp="linr"  time="0/1" value="0" leadInLength="0/1"  />
               <InterpolatingParam id="6295" interp="linr"  time="0/1" value="0" leadInLength="0/1"  />
               <InterpolatingParam id="6296" interp="linr"  time="0/1" value="0" leadInLength="0/1"  />
               <InterpolatingParam id="6297" interp="linr"  time="0/1" value="0" leadInLength="0/1"  />
              </VectorParam>
              <VectorParam id="6298"  name="geometryCrop">
               <InterpolatingParam id="6299" interp="linr"  time="-9999999/1" value="0" leadInLength="0/1"  />
               <InterpolatingParam id="6300" interp="linr"  time="-9999999/1" value="0" leadInLength="0/1"  />
               <InterpolatingParam id="6301" interp="linr"  time="-9999999/1" value="0" leadInLength="0/1"  />
               <InterpolatingParam id="6302" interp="linr"  time="-9999999/1" value="0" leadInLength="0/1"  />
              </VectorParam>
              <InterpolatingParam id="6303" interp="linr"  time="-9999999/1" value="1" leadInLength="0/1"  name="opacity"/>
             </Parameters>
             <Attributes>
              <Attribute id="6304" value="" name="ident"/>
             </Attributes>
             <ExtraData>
              <Entry key="ZoomPanBin">
               <ZoomPanBin id="6305"  >
                <ZoomPanKeyframes>
                 <ZoomPanKeyframe id="6306" timeRangeEnd="-9999999/1" timeRangeDuration="0/1" interpolaterName="linr"  />
                </ZoomPanKeyframes>
               </ZoomPanBin>
              </Entry>
             </ExtraData>
            </VMFile>
            <MetaData>
             <entry key="WinSubProjectDisplayName" val=""/>
            </MetaData>
           </UnifiedMedia>
           <IMFile id="6307" start="52" duration="964" scalar="1/1" mediaStart="578/1" mediaDuration="1/1" trackNumber="0" src="26" trimStartSum="0/1" >
            <Transformer>
             <VectorParam id="6308"  name="translation">
              <InterpolatingParam id="6309" interp="linr"  time="-9999999/1" value="0" leadInLength="0/1"  />
              <InterpolatingParam id="6310" interp="linr"  time="-9999999/1" value="0" leadInLength="0/1"  />
              <InterpolatingParam id="6311" interp="linr"  time="-9999999/1" value="0" leadInLength="0/1"  />
             </VectorParam>
             <VectorParam id="6312"  name="rotation">
              <InterpolatingParam id="6313" interp="linr"  time="-9999999/1" value="0" leadInLength="0/1"  />
              <InterpolatingParam id="6314" interp="linr"  time="-9999999/1" value="0" leadInLength="0/1"  />
              <InterpolatingParam id="6315" interp="linr"  time="-9999999/1" value="0" leadInLength="0/1"  />
             </VectorParam>
             <VectorParam id="6316"  name="shear">
              <InterpolatingParam id="6317" interp="linr"  time="-9999999/1" value="0" leadInLength="0/1"  />
              <InterpolatingParam id="6318" interp="linr"  time="-9999999/1" value="0" leadInLength="0/1"  />
              <InterpolatingParam id="6319" interp="linr"  time="-9999999/1" value="0" leadInLength="0/1"  />
             </VectorParam>
             <VectorParam id="6320"  name="scale">
              <InterpolatingParam id="6321" interp="linr"  time="-9999999/1" value="1" leadInLength="0/1"  />
              <InterpolatingParam id="6322" interp="linr"  time="-9999999/1" value="1" leadInLength="0/1"  />
              <InterpolatingParam id="6323" interp="linr"  time="-9999999/1" value="1" leadInLength="0/1"  />
             </VectorParam>
             <VectorParam id="6324"  name="anchor">
              <InterpolatingParam id="6325" interp="linr"  time="0/1" value="0" leadInLength="0/1"  />
              <InterpolatingParam id="6326" interp="linr"  time="0/1" value="0" leadInLength="0/1"  />
              <InterpolatingParam id="6327" interp="linr"  time="0/1" value="0" leadInLength="0/1"  />
             </VectorParam>
            </Transformer>
            <Parameters>
             <VectorParam id="6328"  name="sourceCrop">
              <InterpolatingParam id="6329" interp="linr"  time="0/1" value="0" leadInLength="0/1"  />
              <InterpolatingParam id="6330" interp="linr"  time="0/1" value="0" leadInLength="0/1"  />
              <InterpolatingParam id="6331" interp="linr"  time="0/1" value="0" leadInLength="0/1"  />
              <InterpolatingParam id="6332" interp="linr"  time="0/1" value="0" leadInLength="0/1"  />
             </VectorParam>
             <VectorParam id="6333"  name="geometryCrop">
              <InterpolatingParam id="6334" interp="linr"  time="-9999999/1" value="0" leadInLength="0/1"  />
              <InterpolatingParam id="6335" interp="linr"  time="-9999999/1" value="0" leadInLength="0/1"  />
              <InterpolatingParam id="6336" interp="linr"  time="-9999999/1" value="0" leadInLength="0/1"  />
              <InterpolatingParam id="6337" interp="linr"  time="-9999999/1" value="0" leadInLength="0/1"  />
             </VectorParam>
             <InterpolatingParam id="6338" interp="linr"  time="-9999999/1" value="1" leadInLength="0/1"  name="opacity"/>
            </Parameters>
            <Attributes>
             <Attribute id="6339" value="" name="ident"/>
            </Attributes>
            <MetaData>
             <entry key="WinSubProjectDisplayName" val=""/>
            </MetaData>
            <ExtraData>
             <Entry key="ZoomPanBin">
              <ZoomPanBin id="6340"  >
               <ZoomPanKeyframes>
                <ZoomPanKeyframe id="6341" timeRangeEnd="-9999999/1" timeRangeDuration="0/1" interpolaterName="linr"  />
               </ZoomPanKeyframes>
              </ZoomPanBin>
             </Entry>
            </ExtraData>
           </IMFile>
           <UnifiedMedia id="6342"  >
            <AMFile id="6343" start="1016" duration="2375" scalar="1/1" mediaStart="577/1" mediaDuration="2375/1" trackNumber="1" src="26" channelNumber="0" >
             <Parameters>
              <InterpolatingParam id="6344" interp="linr"  time="0/1" value="1" leadInLength="0/1"  name="volume"/>
              <Parameter id="6345"  name="captions"/>
             </Parameters>
             <Attributes>
              <Attribute id="6346" value="" name="ident"/>
              <Attribute id="6347" value="44100" name="sampleRate"/>
              <Attribute id="6348" value="16" name="bitDepth"/>
              <Attribute id="6349" value="1" name="gain"/>
              <Attribute id="6350" value="0" name="mixToMono"/>
             </Attributes>
            </AMFile>
            <VMFile id="6351" start="1016" duration="2375" scalar="1/1" mediaStart="577/1" mediaDuration="2375/1" trackNumber="0" src="26" >
             <Transformer>
              <VectorParam id="6352"  name="translation">
               <InterpolatingParam id="6353" interp="linr"  time="-9999999/1" value="0" leadInLength="0/1"  />
               <InterpolatingParam id="6354" interp="linr"  time="-9999999/1" value="0" leadInLength="0/1"  />
               <InterpolatingParam id="6355" interp="linr"  time="-9999999/1" value="0" leadInLength="0/1"  />
              </VectorParam>
              <VectorParam id="6356"  name="rotation">
               <InterpolatingParam id="6357" interp="linr"  time="-9999999/1" value="0" leadInLength="0/1"  />
               <InterpolatingParam id="6358" interp="linr"  time="-9999999/1" value="0" leadInLength="0/1"  />
               <InterpolatingParam id="6359" interp="linr"  time="-9999999/1" value="0" leadInLength="0/1"  />
              </VectorParam>
              <VectorParam id="6360"  name="shear">
               <InterpolatingParam id="6361" interp="linr"  time="-9999999/1" value="0" leadInLength="0/1"  />
               <InterpolatingParam id="6362" interp="linr"  time="-9999999/1" value="0" leadInLength="0/1"  />
               <InterpolatingParam id="6363" interp="linr"  time="-9999999/1" value="0" leadInLength="0/1"  />
              </VectorParam>
              <VectorParam id="6364"  name="scale">
               <InterpolatingParam id="6365" interp="linr"  time="-9999999/1" value="1" leadInLength="0/1"  />
               <InterpolatingParam id="6366" interp="linr"  time="-9999999/1" value="1" leadInLength="0/1"  />
               <InterpolatingParam id="6367" interp="linr"  time="-9999999/1" value="1" leadInLength="0/1"  />
              </VectorParam>
              <VectorParam id="6368"  name="anchor">
               <InterpolatingParam id="6369" interp="linr"  time="0/1" value="0" leadInLength="0/1"  />
               <InterpolatingParam id="6370" interp="linr"  time="0/1" value="0" leadInLength="0/1"  />
               <InterpolatingParam id="6371" interp="linr"  time="0/1" value="0" leadInLength="0/1"  />
              </VectorParam>
             </Transformer>
             <Parameters>
              <VectorParam id="6372"  name="sourceCrop">
               <InterpolatingParam id="6373" interp="linr"  time="0/1" value="0" leadInLength="0/1"  />
               <InterpolatingParam id="6374" interp="linr"  time="0/1" value="0" leadInLength="0/1"  />
               <InterpolatingParam id="6375" interp="linr"  time="0/1" value="0" leadInLength="0/1"  />
               <InterpolatingParam id="6376" interp="linr"  time="0/1" value="0" leadInLength="0/1"  />
              </VectorParam>
              <VectorParam id="6377"  name="geometryCrop">
               <InterpolatingParam id="6378" interp="linr"  time="-9999999/1" value="0" leadInLength="0/1"  />
               <InterpolatingParam id="6379" interp="linr"  time="-9999999/1" value="0" leadInLength="0/1"  />
               <InterpolatingParam id="6380" interp="linr"  time="-9999999/1" value="0" leadInLength="0/1"  />
               <InterpolatingParam id="6381" interp="linr"  time="-9999999/1" value="0" leadInLength="0/1"  />
              </VectorParam>
              <InterpolatingParam id="6382" interp="linr"  time="-9999999/1" value="1" leadInLength="0/1"  name="opacity"/>
             </Parameters>
             <Attributes>
              <Attribute id="6383" value="" name="ident"/>
             </Attributes>
             <ExtraData>
              <Entry key="ZoomPanBin">
               <ZoomPanBin id="6384"  >
                <ZoomPanKeyframes>
                 <ZoomPanKeyframe id="6385" timeRangeEnd="-9999999/1" timeRangeDuration="0/1" interpolaterName="linr"  />
                </ZoomPanKeyframes>
               </ZoomPanBin>
              </Entry>
             </ExtraData>
            </VMFile>
            <MetaData>
             <entry key="WinSubProjectDisplayName" val=""/>
            </MetaData>
           </UnifiedMedia>
          </Medias>
         </GenericTrack>
        </StitchedMedia>
        <StitchedMedia id="6386" start="7854" duration="59" scalar="788163712420673/1548112371908608" mediaStart="1152921504606846976/552287924507825" mediaDuration="91338629942607872/788163712420673" minMediaStart="-172800/1" >
         <Transformer>
          <VectorParam id="6387"  name="translation">
           <InterpolatingParam id="6388" interp="linr"  time="-9999999/1" value="79.460317460351561" leadInLength="0/1"  />
           <InterpolatingParam id="6389" interp="linr"  time="-9999999/1" value="-141.44642857116625" leadInLength="0/1"  />
           <InterpolatingParam id="6390" interp="linr"  time="-9999999/1" value="0" leadInLength="0/1"  />
          </VectorParam>
          <VectorParam id="6391"  name="rotation">
           <InterpolatingParam id="6392" interp="linr"  time="-9999999/1" value="0" leadInLength="0/1"  />
           <InterpolatingParam id="6393" interp="linr"  time="-9999999/1" value="0" leadInLength="0/1"  />
           <InterpolatingParam id="6394" interp="linr"  time="-9999999/1" value="0" leadInLength="0/1"  />
          </VectorParam>
          <VectorParam id="6395"  name="shear">
           <InterpolatingParam id="6396" interp="linr"  time="-9999999/1" value="0" leadInLength="0/1"  />
           <InterpolatingParam id="6397" interp="linr"  time="-9999999/1" value="0" leadInLength="0/1"  />
           <InterpolatingParam id="6398" interp="linr"  time="-9999999/1" value="0" leadInLength="0/1"  />
          </VectorParam>
          <VectorParam id="6399"  name="scale">
           <InterpolatingParam id="6400" interp="linr"  time="-9999999/1" value="1.3930886243387159" leadInLength="0/1"  />
           <InterpolatingParam id="6401" interp="linr"  time="-9999999/1" value="1.3930886243387157" leadInLength="0/1"  />
           <InterpolatingParam id="6402" interp="linr"  time="-9999999/1" value="1" leadInLength="0/1"  />
          </VectorParam>
          <VectorParam id="6403"  name="anchor">
           <InterpolatingParam id="6404" interp="linr"  >
            <Keyframes>
            <Keyframe id="6405"  time="0/1" value="0" leadInLength="0/1"  />
            <Keyframe id="6406"  time="18190/353" value="0" leadInLength="0/1"  />
            </Keyframes>
           </InterpolatingParam>
           <InterpolatingParam id="6407" interp="linr"  >
            <Keyframes>
            <Keyframe id="6408"  time="0/1" value="0" leadInLength="0/1"  />
            <Keyframe id="6409"  time="18190/353" value="0" leadInLength="0/1"  />
            </Keyframes>
           </InterpolatingParam>
           <InterpolatingParam id="6410" interp="linr"  >
            <Keyframes>
            <Keyframe id="6411"  time="0/1" value="0" leadInLength="0/1"  />
            <Keyframe id="6412"  time="18190/353" value="0" leadInLength="0/1"  />
            </Keyframes>
           </InterpolatingParam>
          </VectorParam>
         </Transformer>
         <Parameters>
          <VectorParam id="6413"  name="sourceCrop">
           <InterpolatingParam id="6414" interp="linr"  >
            <Keyframes>
            <Keyframe id="6415"  time="0/1" value="0" leadInLength="0/1"  />
            <Keyframe id="6416"  time="18190/353" value="0" leadInLength="0/1"  />
            </Keyframes>
           </InterpolatingParam>
           <InterpolatingParam id="6417" interp="linr"  >
            <Keyframes>
            <Keyframe id="6418"  time="0/1" value="0" leadInLength="0/1"  />
            <Keyframe id="6419"  time="18190/353" value="0" leadInLength="0/1"  />
            </Keyframes>
           </InterpolatingParam>
           <InterpolatingParam id="6420" interp="linr"  >
            <Keyframes>
            <Keyframe id="6421"  time="0/1" value="0" leadInLength="0/1"  />
            <Keyframe id="6422"  time="18190/353" value="0" leadInLength="0/1"  />
            </Keyframes>
           </InterpolatingParam>
           <InterpolatingParam id="6423" interp="linr"  >
            <Keyframes>
            <Keyframe id="6424"  time="0/1" value="0" leadInLength="0/1"  />
            <Keyframe id="6425"  time="18190/353" value="0" leadInLength="0/1"  />
            </Keyframes>
           </InterpolatingParam>
          </VectorParam>
          <VectorParam id="6426"  name="geometryCrop">
           <InterpolatingParam id="6427" interp="linr"  time="-9999999/1" value="0" leadInLength="0/1"  />
           <InterpolatingParam id="6428" interp="linr"  time="-9999999/1" value="0" leadInLength="0/1"  />
           <InterpolatingParam id="6429" interp="linr"  time="-9999999/1" value="0" leadInLength="0/1"  />
           <InterpolatingParam id="6430" interp="linr"  time="-9999999/1" value="0" leadInLength="0/1"  />
          </VectorParam>
          <InterpolatingParam id="6431" interp="linr"  time="-9999999/1" value="1" leadInLength="0/1"  name="opacity"/>
          <InterpolatingParam id="6432" interp="linr"  time="0/1" value="1" leadInLength="0/1"  name="cursorOpacity"/>
          <InterpolatingParam id="6433" interp="linr"  time="0/1" value="1" leadInLength="0/1"  name="cursorScale"/>
          <InterpolatingParam id="6434" interp="linr"  name="volume">
           <Keyframes>
           <Keyframe id="6435"  time="-172800/1" value="0" leadInLength="0/1"  />
           <Keyframe id="6436"  time="48/1" value="0" leadInLength="0/1"  />
           </Keyframes>
          </InterpolatingParam>
          <Parameter id="6437"  name="captions"/>
         </Parameters>
         <Attributes>
          <Attribute id="6438" value="" name="ident"/>
          <Attribute id="6439" value="0" name="mixToMono"/>
         </Attributes>
         <MetaData>
          <entry key="WinSubProjectDisplayName" val=""/>
         </MetaData>
         <ExtraData>
          <Entry key="ZoomPanBin">
           <ZoomPanBin id="6440"  >
            <ZoomPanKeyframes>
             <ZoomPanKeyframe id="6441" timeRangeEnd="-9999999/1" timeRangeDuration="0/1" interpolaterName="linr"  />
            </ZoomPanKeyframes>
           </ZoomPanBin>
          </Entry>
          <Entry key="CursorEffectBin">
           <CursorEffectBin id="6442"  >
            <CursorEffectKeyframes>
            </CursorEffectKeyframes>
           </CursorEffectBin>
          </Entry>
         </ExtraData>
         <GenericTrack id="6443"  >
          <Attributes>
           <Attribute id="6444" value="" name="ident"/>
           <Attribute id="6445" value="0" name="audioMuted"/>
           <Attribute id="6446" value="0" name="videoHidden"/>
          </Attributes>
          <MetaData>
           <entry key="IsLocked" val="False"/>
           <entry key="WinTrackHeight" val="0"/>
          </MetaData>
          <Medias>
           <IMFile id="6447" start="-172800" duration="172848" scalar="1/1" mediaStart="575/1" mediaDuration="1/1" trackNumber="0" src="26" trimStartSum="-172800/1" >
            <Transformer>
             <VectorParam id="6448"  name="translation">
              <InterpolatingParam id="6449" interp="linr"  time="-9999999/1" value="0" leadInLength="0/1"  />
              <InterpolatingParam id="6450" interp="linr"  time="-9999999/1" value="0" leadInLength="0/1"  />
              <InterpolatingParam id="6451" interp="linr"  time="-9999999/1" value="0" leadInLength="0/1"  />
             </VectorParam>
             <VectorParam id="6452"  name="rotation">
              <InterpolatingParam id="6453" interp="linr"  time="-9999999/1" value="0" leadInLength="0/1"  />
              <InterpolatingParam id="6454" interp="linr"  time="-9999999/1" value="0" leadInLength="0/1"  />
              <InterpolatingParam id="6455" interp="linr"  time="-9999999/1" value="0" leadInLength="0/1"  />
             </VectorParam>
             <VectorParam id="6456"  name="shear">
              <InterpolatingParam id="6457" interp="linr"  time="-9999999/1" value="0" leadInLength="0/1"  />
              <InterpolatingParam id="6458" interp="linr"  time="-9999999/1" value="0" leadInLength="0/1"  />
              <InterpolatingParam id="6459" interp="linr"  time="-9999999/1" value="0" leadInLength="0/1"  />
             </VectorParam>
             <VectorParam id="6460"  name="scale">
              <InterpolatingParam id="6461" interp="linr"  time="-9999999/1" value="1" leadInLength="0/1"  />
              <InterpolatingParam id="6462" interp="linr"  time="-9999999/1" value="1" leadInLength="0/1"  />
              <InterpolatingParam id="6463" interp="linr"  time="-9999999/1" value="1" leadInLength="0/1"  />
             </VectorParam>
             <VectorParam id="6464"  name="anchor">
              <InterpolatingParam id="6465" interp="linr"  time="0/1" value="0" leadInLength="0/1"  />
              <InterpolatingParam id="6466" interp="linr"  time="0/1" value="0" leadInLength="0/1"  />
              <InterpolatingParam id="6467" interp="linr"  time="0/1" value="0" leadInLength="0/1"  />
             </VectorParam>
            </Transformer>
            <Parameters>
             <VectorParam id="6468"  name="sourceCrop">
              <InterpolatingParam id="6469" interp="linr"  time="0/1" value="0" leadInLength="0/1"  />
              <InterpolatingParam id="6470" interp="linr"  time="0/1" value="0" leadInLength="0/1"  />
              <InterpolatingParam id="6471" interp="linr"  time="0/1" value="0" leadInLength="0/1"  />
              <InterpolatingParam id="6472" interp="linr"  time="0/1" value="0" leadInLength="0/1"  />
             </VectorParam>
             <VectorParam id="6473"  name="geometryCrop">
              <InterpolatingParam id="6474" interp="linr"  time="-9999999/1" value="0" leadInLength="0/1"  />
              <InterpolatingParam id="6475" interp="linr"  time="-9999999/1" value="0" leadInLength="0/1"  />
              <InterpolatingParam id="6476" interp="linr"  time="-9999999/1" value="0" leadInLength="0/1"  />
              <InterpolatingParam id="6477" interp="linr"  time="-9999999/1" value="0" leadInLength="0/1"  />
             </VectorParam>
             <InterpolatingParam id="6478" interp="linr"  time="-9999999/1" value="1" leadInLength="0/1"  name="opacity"/>
            </Parameters>
            <Attributes>
             <Attribute id="6479" value="" name="ident"/>
            </Attributes>
            <MetaData>
             <entry key="WinSubProjectDisplayName" val=""/>
            </MetaData>
            <ExtraData>
             <Entry key="ZoomPanBin">
              <ZoomPanBin id="6480"  >
               <ZoomPanKeyframes>
                <ZoomPanKeyframe id="6481" timeRangeEnd="-9999999/1" timeRangeDuration="0/1" interpolaterName="linr"  />
               </ZoomPanKeyframes>
              </ZoomPanBin>
             </Entry>
            </ExtraData>
           </IMFile>
           <UnifiedMedia id="6482"  >
            <AMFile id="6483" start="48" duration="4" scalar="1/1" mediaStart="575/1" mediaDuration="4/1" trackNumber="1" src="26" channelNumber="0" >
             <Parameters>
              <InterpolatingParam id="6484" interp="linr"  time="0/1" value="1" leadInLength="0/1"  name="volume"/>
              <Parameter id="6485"  name="captions"/>
             </Parameters>
             <Attributes>
              <Attribute id="6486" value="" name="ident"/>
              <Attribute id="6487" value="44100" name="sampleRate"/>
              <Attribute id="6488" value="16" name="bitDepth"/>
              <Attribute id="6489" value="1" name="gain"/>
              <Attribute id="6490" value="0" name="mixToMono"/>
             </Attributes>
            </AMFile>
            <VMFile id="6491" start="48" duration="4" scalar="1/1" mediaStart="575/1" mediaDuration="4/1" trackNumber="0" src="26" >
             <Transformer>
              <VectorParam id="6492"  name="translation">
               <InterpolatingParam id="6493" interp="linr"  time="-9999999/1" value="0" leadInLength="0/1"  />
               <InterpolatingParam id="6494" interp="linr"  time="-9999999/1" value="0" leadInLength="0/1"  />
               <InterpolatingParam id="6495" interp="linr"  time="-9999999/1" value="0" leadInLength="0/1"  />
              </VectorParam>
              <VectorParam id="6496"  name="rotation">
               <InterpolatingParam id="6497" interp="linr"  time="-9999999/1" value="0" leadInLength="0/1"  />
               <InterpolatingParam id="6498" interp="linr"  time="-9999999/1" value="0" leadInLength="0/1"  />
               <InterpolatingParam id="6499" interp="linr"  time="-9999999/1" value="0" leadInLength="0/1"  />
              </VectorParam>
              <VectorParam id="6500"  name="shear">
               <InterpolatingParam id="6501" interp="linr"  time="-9999999/1" value="0" leadInLength="0/1"  />
               <InterpolatingParam id="6502" interp="linr"  time="-9999999/1" value="0" leadInLength="0/1"  />
               <InterpolatingParam id="6503" interp="linr"  time="-9999999/1" value="0" leadInLength="0/1"  />
              </VectorParam>
              <VectorParam id="6504"  name="scale">
               <InterpolatingParam id="6505" interp="linr"  time="-9999999/1" value="1" leadInLength="0/1"  />
               <InterpolatingParam id="6506" interp="linr"  time="-9999999/1" value="1" leadInLength="0/1"  />
               <InterpolatingParam id="6507" interp="linr"  time="-9999999/1" value="1" leadInLength="0/1"  />
              </VectorParam>
              <VectorParam id="6508"  name="anchor">
               <InterpolatingParam id="6509" interp="linr"  time="0/1" value="0" leadInLength="0/1"  />
               <InterpolatingParam id="6510" interp="linr"  time="0/1" value="0" leadInLength="0/1"  />
               <InterpolatingParam id="6511" interp="linr"  time="0/1" value="0" leadInLength="0/1"  />
              </VectorParam>
             </Transformer>
             <Parameters>
              <VectorParam id="6512"  name="sourceCrop">
               <InterpolatingParam id="6513" interp="linr"  time="0/1" value="0" leadInLength="0/1"  />
               <InterpolatingParam id="6514" interp="linr"  time="0/1" value="0" leadInLength="0/1"  />
               <InterpolatingParam id="6515" interp="linr"  time="0/1" value="0" leadInLength="0/1"  />
               <InterpolatingParam id="6516" interp="linr"  time="0/1" value="0" leadInLength="0/1"  />
              </VectorParam>
              <VectorParam id="6517"  name="geometryCrop">
               <InterpolatingParam id="6518" interp="linr"  time="-9999999/1" value="0" leadInLength="0/1"  />
               <InterpolatingParam id="6519" interp="linr"  time="-9999999/1" value="0" leadInLength="0/1"  />
               <InterpolatingParam id="6520" interp="linr"  time="-9999999/1" value="0" leadInLength="0/1"  />
               <InterpolatingParam id="6521" interp="linr"  time="-9999999/1" value="0" leadInLength="0/1"  />
              </VectorParam>
              <InterpolatingParam id="6522" interp="linr"  time="-9999999/1" value="1" leadInLength="0/1"  name="opacity"/>
             </Parameters>
             <Attributes>
              <Attribute id="6523" value="" name="ident"/>
             </Attributes>
             <ExtraData>
              <Entry key="ZoomPanBin">
               <ZoomPanBin id="6524"  >
                <ZoomPanKeyframes>
                 <ZoomPanKeyframe id="6525" timeRangeEnd="-9999999/1" timeRangeDuration="0/1" interpolaterName="linr"  />
                </ZoomPanKeyframes>
               </ZoomPanBin>
              </Entry>
             </ExtraData>
            </VMFile>
            <MetaData>
             <entry key="WinSubProjectDisplayName" val=""/>
            </MetaData>
           </UnifiedMedia>
           <IMFile id="6526" start="52" duration="964" scalar="1/1" mediaStart="578/1" mediaDuration="1/1" trackNumber="0" src="26" trimStartSum="0/1" >
            <Transformer>
             <VectorParam id="6527"  name="translation">
              <InterpolatingParam id="6528" interp="linr"  time="-9999999/1" value="0" leadInLength="0/1"  />
              <InterpolatingParam id="6529" interp="linr"  time="-9999999/1" value="0" leadInLength="0/1"  />
              <InterpolatingParam id="6530" interp="linr"  time="-9999999/1" value="0" leadInLength="0/1"  />
             </VectorParam>
             <VectorParam id="6531"  name="rotation">
              <InterpolatingParam id="6532" interp="linr"  time="-9999999/1" value="0" leadInLength="0/1"  />
              <InterpolatingParam id="6533" interp="linr"  time="-9999999/1" value="0" leadInLength="0/1"  />
              <InterpolatingParam id="6534" interp="linr"  time="-9999999/1" value="0" leadInLength="0/1"  />
             </VectorParam>
             <VectorParam id="6535"  name="shear">
              <InterpolatingParam id="6536" interp="linr"  time="-9999999/1" value="0" leadInLength="0/1"  />
              <InterpolatingParam id="6537" interp="linr"  time="-9999999/1" value="0" leadInLength="0/1"  />
              <InterpolatingParam id="6538" interp="linr"  time="-9999999/1" value="0" leadInLength="0/1"  />
             </VectorParam>
             <VectorParam id="6539"  name="scale">
              <InterpolatingParam id="6540" interp="linr"  time="-9999999/1" value="1" leadInLength="0/1"  />
              <InterpolatingParam id="6541" interp="linr"  time="-9999999/1" value="1" leadInLength="0/1"  />
              <InterpolatingParam id="6542" interp="linr"  time="-9999999/1" value="1" leadInLength="0/1"  />
             </VectorParam>
             <VectorParam id="6543"  name="anchor">
              <InterpolatingParam id="6544" interp="linr"  time="0/1" value="0" leadInLength="0/1"  />
              <InterpolatingParam id="6545" interp="linr"  time="0/1" value="0" leadInLength="0/1"  />
              <InterpolatingParam id="6546" interp="linr"  time="0/1" value="0" leadInLength="0/1"  />
             </VectorParam>
            </Transformer>
            <Parameters>
             <VectorParam id="6547"  name="sourceCrop">
              <InterpolatingParam id="6548" interp="linr"  time="0/1" value="0" leadInLength="0/1"  />
              <InterpolatingParam id="6549" interp="linr"  time="0/1" value="0" leadInLength="0/1"  />
              <InterpolatingParam id="6550" interp="linr"  time="0/1" value="0" leadInLength="0/1"  />
              <InterpolatingParam id="6551" interp="linr"  time="0/1" value="0" leadInLength="0/1"  />
             </VectorParam>
             <VectorParam id="6552"  name="geometryCrop">
              <InterpolatingParam id="6553" interp="linr"  time="-9999999/1" value="0" leadInLength="0/1"  />
              <InterpolatingParam id="6554" interp="linr"  time="-9999999/1" value="0" leadInLength="0/1"  />
              <InterpolatingParam id="6555" interp="linr"  time="-9999999/1" value="0" leadInLength="0/1"  />
              <InterpolatingParam id="6556" interp="linr"  time="-9999999/1" value="0" leadInLength="0/1"  />
             </VectorParam>
             <InterpolatingParam id="6557" interp="linr"  time="-9999999/1" value="1" leadInLength="0/1"  name="opacity"/>
            </Parameters>
            <Attributes>
             <Attribute id="6558" value="" name="ident"/>
            </Attributes>
            <MetaData>
             <entry key="WinSubProjectDisplayName" val=""/>
            </MetaData>
            <ExtraData>
             <Entry key="ZoomPanBin">
              <ZoomPanBin id="6559"  >
               <ZoomPanKeyframes>
                <ZoomPanKeyframe id="6560" timeRangeEnd="-9999999/1" timeRangeDuration="0/1" interpolaterName="linr"  />
               </ZoomPanKeyframes>
              </ZoomPanBin>
             </Entry>
            </ExtraData>
           </IMFile>
           <UnifiedMedia id="6561"  >
            <AMFile id="6562" start="1016" duration="2375" scalar="1/1" mediaStart="577/1" mediaDuration="2375/1" trackNumber="1" src="26" channelNumber="0" >
             <Parameters>
              <InterpolatingParam id="6563" interp="linr"  time="0/1" value="1" leadInLength="0/1"  name="volume"/>
              <Parameter id="6564"  name="captions"/>
             </Parameters>
             <Attributes>
              <Attribute id="6565" value="" name="ident"/>
              <Attribute id="6566" value="44100" name="sampleRate"/>
              <Attribute id="6567" value="16" name="bitDepth"/>
              <Attribute id="6568" value="1" name="gain"/>
              <Attribute id="6569" value="0" name="mixToMono"/>
             </Attributes>
            </AMFile>
            <VMFile id="6570" start="1016" duration="2375" scalar="1/1" mediaStart="577/1" mediaDuration="2375/1" trackNumber="0" src="26" >
             <Transformer>
              <VectorParam id="6571"  name="translation">
               <InterpolatingParam id="6572" interp="linr"  time="-9999999/1" value="0" leadInLength="0/1"  />
               <InterpolatingParam id="6573" interp="linr"  time="-9999999/1" value="0" leadInLength="0/1"  />
               <InterpolatingParam id="6574" interp="linr"  time="-9999999/1" value="0" leadInLength="0/1"  />
              </VectorParam>
              <VectorParam id="6575"  name="rotation">
               <InterpolatingParam id="6576" interp="linr"  time="-9999999/1" value="0" leadInLength="0/1"  />
               <InterpolatingParam id="6577" interp="linr"  time="-9999999/1" value="0" leadInLength="0/1"  />
               <InterpolatingParam id="6578" interp="linr"  time="-9999999/1" value="0" leadInLength="0/1"  />
              </VectorParam>
              <VectorParam id="6579"  name="shear">
               <InterpolatingParam id="6580" interp="linr"  time="-9999999/1" value="0" leadInLength="0/1"  />
               <InterpolatingParam id="6581" interp="linr"  time="-9999999/1" value="0" leadInLength="0/1"  />
               <InterpolatingParam id="6582" interp="linr"  time="-9999999/1" value="0" leadInLength="0/1"  />
              </VectorParam>
              <VectorParam id="6583"  name="scale">
               <InterpolatingParam id="6584" interp="linr"  time="-9999999/1" value="1" leadInLength="0/1"  />
               <InterpolatingParam id="6585" interp="linr"  time="-9999999/1" value="1" leadInLength="0/1"  />
               <InterpolatingParam id="6586" interp="linr"  time="-9999999/1" value="1" leadInLength="0/1"  />
              </VectorParam>
              <VectorParam id="6587"  name="anchor">
               <InterpolatingParam id="6588" interp="linr"  time="0/1" value="0" leadInLength="0/1"  />
               <InterpolatingParam id="6589" interp="linr"  time="0/1" value="0" leadInLength="0/1"  />
               <InterpolatingParam id="6590" interp="linr"  time="0/1" value="0" leadInLength="0/1"  />
              </VectorParam>
             </Transformer>
             <Parameters>
              <VectorParam id="6591"  name="sourceCrop">
               <InterpolatingParam id="6592" interp="linr"  time="0/1" value="0" leadInLength="0/1"  />
               <InterpolatingParam id="6593" interp="linr"  time="0/1" value="0" leadInLength="0/1"  />
               <InterpolatingParam id="6594" interp="linr"  time="0/1" value="0" leadInLength="0/1"  />
               <InterpolatingParam id="6595" interp="linr"  time="0/1" value="0" leadInLength="0/1"  />
              </VectorParam>
              <VectorParam id="6596"  name="geometryCrop">
               <InterpolatingParam id="6597" interp="linr"  time="-9999999/1" value="0" leadInLength="0/1"  />
               <InterpolatingParam id="6598" interp="linr"  time="-9999999/1" value="0" leadInLength="0/1"  />
               <InterpolatingParam id="6599" interp="linr"  time="-9999999/1" value="0" leadInLength="0/1"  />
               <InterpolatingParam id="6600" interp="linr"  time="-9999999/1" value="0" leadInLength="0/1"  />
              </VectorParam>
              <InterpolatingParam id="6601" interp="linr"  time="-9999999/1" value="1" leadInLength="0/1"  name="opacity"/>
             </Parameters>
             <Attributes>
              <Attribute id="6602" value="" name="ident"/>
             </Attributes>
             <ExtraData>
              <Entry key="ZoomPanBin">
               <ZoomPanBin id="6603"  >
                <ZoomPanKeyframes>
                 <ZoomPanKeyframe id="6604" timeRangeEnd="-9999999/1" timeRangeDuration="0/1" interpolaterName="linr"  />
                </ZoomPanKeyframes>
               </ZoomPanBin>
              </Entry>
             </ExtraData>
            </VMFile>
            <MetaData>
             <entry key="WinSubProjectDisplayName" val=""/>
            </MetaData>
           </UnifiedMedia>
          </Medias>
         </GenericTrack>
        </StitchedMedia>
        <StitchedMedia id="6605" start="7913" duration="621" scalar="2471603/2759574" mediaStart="178888/107461" mediaDuration="74508498/107461" minMediaStart="-22945393112/107461" >
         <Transformer>
          <VectorParam id="6606"  name="translation">
           <InterpolatingParam id="6607" interp="linr"  >
            <Keyframes>
            <Keyframe id="6608"  time="-9999999/1" value="11.957671957194174" leadInLength="0/1"  />
            <Keyframe id="6609"  time="3667606/60283" value="-28.042328043265275" leadInLength="132459552/2471603"  interpolater="leadin-linr"  />
            </Keyframes>
           </InterpolatingParam>
           <InterpolatingParam id="6610" interp="linr"  >
            <Keyframes>
            <Keyframe id="6611"  time="-9999999/1" value="-206.91666666655766" leadInLength="0/1"  />
            <Keyframe id="6612"  time="3667606/60283" value="-158.70238095254203" leadInLength="132459552/2471603"  interpolater="leadin-linr"  />
            </Keyframes>
           </InterpolatingParam>
           <InterpolatingParam id="6613" interp="linr"  >
            <Keyframes>
            <Keyframe id="6614"  time="-9999999/1" value="0" leadInLength="0/1"  />
            <Keyframe id="6615"  time="3667606/60283" value="0" leadInLength="132459552/2471603"  interpolater="leadin-linr"  />
            </Keyframes>
           </InterpolatingParam>
          </VectorParam>
          <VectorParam id="6616"  name="rotation">
           <InterpolatingParam id="6617" interp="linr"  >
            <Keyframes>
            <Keyframe id="6618"  time="-9999999/1" value="0" leadInLength="0/1"  />
            <Keyframe id="6619"  time="3667606/60283" value="0" leadInLength="132459552/2471603"  interpolater="leadin-linr"  />
            </Keyframes>
           </InterpolatingParam>
           <InterpolatingParam id="6620" interp="linr"  >
            <Keyframes>
            <Keyframe id="6621"  time="-9999999/1" value="0" leadInLength="0/1"  />
            <Keyframe id="6622"  time="3667606/60283" value="0" leadInLength="132459552/2471603"  interpolater="leadin-linr"  />
            </Keyframes>
           </InterpolatingParam>
           <InterpolatingParam id="6623" interp="linr"  >
            <Keyframes>
            <Keyframe id="6624"  time="-9999999/1" value="0" leadInLength="0/1"  />
            <Keyframe id="6625"  time="3667606/60283" value="0" leadInLength="132459552/2471603"  interpolater="leadin-linr"  />
            </Keyframes>
           </InterpolatingParam>
          </VectorParam>
          <VectorParam id="6626"  name="shear">
           <InterpolatingParam id="6627" interp="linr"  >
            <Keyframes>
            <Keyframe id="6628"  time="-9999999/1" value="0" leadInLength="0/1"  />
            <Keyframe id="6629"  time="3667606/60283" value="0" leadInLength="132459552/2471603"  interpolater="leadin-linr"  />
            </Keyframes>
           </InterpolatingParam>
           <InterpolatingParam id="6630" interp="linr"  >
            <Keyframes>
            <Keyframe id="6631"  time="-9999999/1" value="0" leadInLength="0/1"  />
            <Keyframe id="6632"  time="3667606/60283" value="0" leadInLength="132459552/2471603"  interpolater="leadin-linr"  />
            </Keyframes>
           </InterpolatingParam>
           <InterpolatingParam id="6633" interp="linr"  >
            <Keyframes>
            <Keyframe id="6634"  time="-9999999/1" value="0" leadInLength="0/1"  />
            <Keyframe id="6635"  time="3667606/60283" value="0" leadInLength="132459552/2471603"  interpolater="leadin-linr"  />
            </Keyframes>
           </InterpolatingParam>
          </VectorParam>
          <VectorParam id="6636"  name="scale">
           <InterpolatingParam id="6637" interp="linr"  >
            <Keyframes>
            <Keyframe id="6638"  time="-9999999/1" value="1.3882495590828201" leadInLength="0/1"  />
            <Keyframe id="6639"  time="3667606/60283" value="1.3822971781299738" leadInLength="132459552/2471603"  interpolater="leadin-linr"  />
            </Keyframes>
           </InterpolatingParam>
           <InterpolatingParam id="6640" interp="linr"  >
            <Keyframes>
            <Keyframe id="6641"  time="-9999999/1" value="1.3882495590828217" leadInLength="0/1"  />
            <Keyframe id="6642"  time="3667606/60283" value="1.3822971781299753" leadInLength="132459552/2471603"  interpolater="leadin-linr"  />
            </Keyframes>
           </InterpolatingParam>
           <InterpolatingParam id="6643" interp="linr"  >
            <Keyframes>
            <Keyframe id="6644"  time="-9999999/1" value="1" leadInLength="0/1"  />
            <Keyframe id="6645"  time="3667606/60283" value="1" leadInLength="132459552/2471603"  interpolater="leadin-linr"  />
            </Keyframes>
           </InterpolatingParam>
          </VectorParam>
          <VectorParam id="6646"  name="anchor">
           <InterpolatingParam id="6647" interp="linr"  time="0/1" value="0" leadInLength="0/1"  />
           <InterpolatingParam id="6648" interp="linr"  time="0/1" value="0" leadInLength="0/1"  />
           <InterpolatingParam id="6649" interp="linr"  time="0/1" value="0" leadInLength="0/1"  />
          </VectorParam>
         </Transformer>
         <Parameters>
          <VectorParam id="6650"  name="sourceCrop">
           <InterpolatingParam id="6651" interp="linr"  time="0/1" value="0" leadInLength="0/1"  />
           <InterpolatingParam id="6652" interp="linr"  time="0/1" value="0" leadInLength="0/1"  />
           <InterpolatingParam id="6653" interp="linr"  time="0/1" value="0" leadInLength="0/1"  />
           <InterpolatingParam id="6654" interp="linr"  time="0/1" value="0" leadInLength="0/1"  />
          </VectorParam>
          <VectorParam id="6655"  name="geometryCrop">
           <InterpolatingParam id="6656" interp="linr"  >
            <Keyframes>
            <Keyframe id="6657"  time="-9999999/1" value="0" leadInLength="0/1"  />
            <Keyframe id="6658"  time="3667606/60283" value="0" leadInLength="132459552/2471603"  interpolater="leadin-linr"  />
            </Keyframes>
           </InterpolatingParam>
           <InterpolatingParam id="6659" interp="linr"  >
            <Keyframes>
            <Keyframe id="6660"  time="-9999999/1" value="0" leadInLength="0/1"  />
            <Keyframe id="6661"  time="3667606/60283" value="0" leadInLength="132459552/2471603"  interpolater="leadin-linr"  />
            </Keyframes>
           </InterpolatingParam>
           <InterpolatingParam id="6662" interp="linr"  >
            <Keyframes>
            <Keyframe id="6663"  time="-9999999/1" value="0" leadInLength="0/1"  />
            <Keyframe id="6664"  time="3667606/60283" value="0" leadInLength="132459552/2471603"  interpolater="leadin-linr"  />
            </Keyframes>
           </InterpolatingParam>
           <InterpolatingParam id="6665" interp="linr"  >
            <Keyframes>
            <Keyframe id="6666"  time="-9999999/1" value="0" leadInLength="0/1"  />
            <Keyframe id="6667"  time="3667606/60283" value="0" leadInLength="132459552/2471603"  interpolater="leadin-linr"  />
            </Keyframes>
           </InterpolatingParam>
          </VectorParam>
          <InterpolatingParam id="6668" interp="linr"  name="opacity">
           <Keyframes>
           <Keyframe id="6669"  time="-9999999/1" value="1" leadInLength="0/1"  />
           <Keyframe id="6670"  time="3667606/60283" value="1" leadInLength="132459552/2471603"  interpolater="leadin-linr"  />
           </Keyframes>
          </InterpolatingParam>
          <InterpolatingParam id="6671" interp="linr"  time="0/1" value="1" leadInLength="0/1"  name="cursorOpacity"/>
          <InterpolatingParam id="6672" interp="linr"  time="0/1" value="1" leadInLength="0/1"  name="cursorScale"/>
          <InterpolatingParam id="6673" interp="linr"  name="volume">
           <Keyframes>
           <Keyframe id="6674"  time="-22945393112/107461" value="0" leadInLength="0/1"  />
           <Keyframe id="6675"  time="160857/2621" value="0" leadInLength="0/1"  />
           <Keyframe id="6676"  time="63/1" value="0" leadInLength="0/1"  />
           </Keyframes>
          </InterpolatingParam>
          <Parameter id="6677"  name="captions"/>
         </Parameters>
         <Attributes>
          <Attribute id="6678" value="" name="ident"/>
          <Attribute id="6679" value="0" name="mixToMono"/>
         </Attributes>
         <MetaData>
          <entry key="WinSubProjectDisplayName" val=""/>
         </MetaData>
         <ExtraData>
          <Entry key="ZoomPanBin">
           <ZoomPanBin id="6680"  >
            <ZoomPanKeyframes>
             <ZoomPanKeyframe id="6681" timeRangeEnd="-9999999/1" timeRangeDuration="0/1" interpolaterName="linr"  />
             <ZoomPanKeyframe id="6682" timeRangeEnd="3667606/60283" timeRangeDuration="132459552/2471603" interpolaterName="linr"  />
            </ZoomPanKeyframes>
           </ZoomPanBin>
          </Entry>
          <Entry key="CursorEffectBin">
           <CursorEffectBin id="6683"  >
            <CursorEffectKeyframes>
            </CursorEffectKeyframes>
           </CursorEffectBin>
          </Entry>
         </ExtraData>
         <GenericTrack id="6684"  >
          <Attributes>
           <Attribute id="6685" value="" name="ident"/>
           <Attribute id="6686" value="0" name="audioMuted"/>
           <Attribute id="6687" value="0" name="videoHidden"/>
          </Attributes>
          <MetaData>
           <entry key="IsLocked" val="False"/>
           <entry key="WinTrackHeight" val="0"/>
          </MetaData>
          <Medias>
           <IMFile id="6688" start="-213523" duration="213585" scalar="1/1" mediaStart="2318/1" mediaDuration="1/1" trackNumber="0" src="26" trimStartSum="-213523/1" >
            <Transformer>
             <VectorParam id="6689"  name="translation">
              <InterpolatingParam id="6690" interp="linr"  time="-9999999/1" value="0" leadInLength="0/1"  />
              <InterpolatingParam id="6691" interp="linr"  time="-9999999/1" value="0" leadInLength="0/1"  />
              <InterpolatingParam id="6692" interp="linr"  time="-9999999/1" value="0" leadInLength="0/1"  />
             </VectorParam>
             <VectorParam id="6693"  name="rotation">
              <InterpolatingParam id="6694" interp="linr"  time="-9999999/1" value="0" leadInLength="0/1"  />
              <InterpolatingParam id="6695" interp="linr"  time="-9999999/1" value="0" leadInLength="0/1"  />
              <InterpolatingParam id="6696" interp="linr"  time="-9999999/1" value="0" leadInLength="0/1"  />
             </VectorParam>
             <VectorParam id="6697"  name="shear">
              <InterpolatingParam id="6698" interp="linr"  time="-9999999/1" value="0" leadInLength="0/1"  />
              <InterpolatingParam id="6699" interp="linr"  time="-9999999/1" value="0" leadInLength="0/1"  />
              <InterpolatingParam id="6700" interp="linr"  time="-9999999/1" value="0" leadInLength="0/1"  />
             </VectorParam>
             <VectorParam id="6701"  name="scale">
              <InterpolatingParam id="6702" interp="linr"  time="-9999999/1" value="1" leadInLength="0/1"  />
              <InterpolatingParam id="6703" interp="linr"  time="-9999999/1" value="1" leadInLength="0/1"  />
              <InterpolatingParam id="6704" interp="linr"  time="-9999999/1" value="1" leadInLength="0/1"  />
             </VectorParam>
             <VectorParam id="6705"  name="anchor">
              <InterpolatingParam id="6706" interp="linr"  time="0/1" value="0" leadInLength="0/1"  />
              <InterpolatingParam id="6707" interp="linr"  time="0/1" value="0" leadInLength="0/1"  />
              <InterpolatingParam id="6708" interp="linr"  time="0/1" value="0" leadInLength="0/1"  />
             </VectorParam>
            </Transformer>
            <Parameters>
             <VectorParam id="6709"  name="sourceCrop">
              <InterpolatingParam id="6710" interp="linr"  time="0/1" value="0" leadInLength="0/1"  />
              <InterpolatingParam id="6711" interp="linr"  time="0/1" value="0" leadInLength="0/1"  />
              <InterpolatingParam id="6712" interp="linr"  time="0/1" value="0" leadInLength="0/1"  />
              <InterpolatingParam id="6713" interp="linr"  time="0/1" value="0" leadInLength="0/1"  />
             </VectorParam>
             <VectorParam id="6714"  name="geometryCrop">
              <InterpolatingParam id="6715" interp="linr"  time="-9999999/1" value="0" leadInLength="0/1"  />
              <InterpolatingParam id="6716" interp="linr"  time="-9999999/1" value="0" leadInLength="0/1"  />
              <InterpolatingParam id="6717" interp="linr"  time="-9999999/1" value="0" leadInLength="0/1"  />
              <InterpolatingParam id="6718" interp="linr"  time="-9999999/1" value="0" leadInLength="0/1"  />
             </VectorParam>
             <InterpolatingParam id="6719" interp="linr"  time="-9999999/1" value="1" leadInLength="0/1"  name="opacity"/>
            </Parameters>
            <Attributes>
             <Attribute id="6720" value="" name="ident"/>
            </Attributes>
            <MetaData>
             <entry key="WinSubProjectDisplayName" val=""/>
            </MetaData>
            <ExtraData>
             <Entry key="ZoomPanBin">
              <ZoomPanBin id="6721"  >
               <ZoomPanKeyframes>
                <ZoomPanKeyframe id="6722" timeRangeEnd="-9999999/1" timeRangeDuration="0/1" interpolaterName="linr"  />
               </ZoomPanKeyframes>
              </ZoomPanBin>
             </Entry>
            </ExtraData>
           </IMFile>
           <UnifiedMedia id="6723"  >
            <AMFile id="6724" start="62" duration="634" scalar="1/1" mediaStart="2317/1" mediaDuration="634/1" trackNumber="1" src="26" channelNumber="0" >
             <Parameters>
              <InterpolatingParam id="6725" interp="linr"  time="0/1" value="1" leadInLength="0/1"  name="volume"/>
              <Parameter id="6726"  name="captions"/>
             </Parameters>
             <Attributes>
              <Attribute id="6727" value="" name="ident"/>
              <Attribute id="6728" value="44100" name="sampleRate"/>
              <Attribute id="6729" value="16" name="bitDepth"/>
              <Attribute id="6730" value="1" name="gain"/>
              <Attribute id="6731" value="0" name="mixToMono"/>
             </Attributes>
            </AMFile>
            <VMFile id="6732" start="62" duration="634" scalar="1/1" mediaStart="2317/1" mediaDuration="634/1" trackNumber="0" src="26" >
             <Transformer>
              <VectorParam id="6733"  name="translation">
               <InterpolatingParam id="6734" interp="linr"  time="-9999999/1" value="0" leadInLength="0/1"  />
               <InterpolatingParam id="6735" interp="linr"  time="-9999999/1" value="0" leadInLength="0/1"  />
               <InterpolatingParam id="6736" interp="linr"  time="-9999999/1" value="0" leadInLength="0/1"  />
              </VectorParam>
              <VectorParam id="6737"  name="rotation">
               <InterpolatingParam id="6738" interp="linr"  time="-9999999/1" value="0" leadInLength="0/1"  />
               <InterpolatingParam id="6739" interp="linr"  time="-9999999/1" value="0" leadInLength="0/1"  />
               <InterpolatingParam id="6740" interp="linr"  time="-9999999/1" value="0" leadInLength="0/1"  />
              </VectorParam>
              <VectorParam id="6741"  name="shear">
               <InterpolatingParam id="6742" interp="linr"  time="-9999999/1" value="0" leadInLength="0/1"  />
               <InterpolatingParam id="6743" interp="linr"  time="-9999999/1" value="0" leadInLength="0/1"  />
               <InterpolatingParam id="6744" interp="linr"  time="-9999999/1" value="0" leadInLength="0/1"  />
              </VectorParam>
              <VectorParam id="6745"  name="scale">
               <InterpolatingParam id="6746" interp="linr"  time="-9999999/1" value="1" leadInLength="0/1"  />
               <InterpolatingParam id="6747" interp="linr"  time="-9999999/1" value="1" leadInLength="0/1"  />
               <InterpolatingParam id="6748" interp="linr"  time="-9999999/1" value="1" leadInLength="0/1"  />
              </VectorParam>
              <VectorParam id="6749"  name="anchor">
               <InterpolatingParam id="6750" interp="linr"  time="0/1" value="0" leadInLength="0/1"  />
               <InterpolatingParam id="6751" interp="linr"  time="0/1" value="0" leadInLength="0/1"  />
               <InterpolatingParam id="6752" interp="linr"  time="0/1" value="0" leadInLength="0/1"  />
              </VectorParam>
             </Transformer>
             <Parameters>
              <VectorParam id="6753"  name="sourceCrop">
               <InterpolatingParam id="6754" interp="linr"  time="0/1" value="0" leadInLength="0/1"  />
               <InterpolatingParam id="6755" interp="linr"  time="0/1" value="0" leadInLength="0/1"  />
               <InterpolatingParam id="6756" interp="linr"  time="0/1" value="0" leadInLength="0/1"  />
               <InterpolatingParam id="6757" interp="linr"  time="0/1" value="0" leadInLength="0/1"  />
              </VectorParam>
              <VectorParam id="6758"  name="geometryCrop">
               <InterpolatingParam id="6759" interp="linr"  time="-9999999/1" value="0" leadInLength="0/1"  />
               <InterpolatingParam id="6760" interp="linr"  time="-9999999/1" value="0" leadInLength="0/1"  />
               <InterpolatingParam id="6761" interp="linr"  time="-9999999/1" value="0" leadInLength="0/1"  />
               <InterpolatingParam id="6762" interp="linr"  time="-9999999/1" value="0" leadInLength="0/1"  />
              </VectorParam>
              <InterpolatingParam id="6763" interp="linr"  time="-9999999/1" value="1" leadInLength="0/1"  name="opacity"/>
             </Parameters>
             <Attributes>
              <Attribute id="6764" value="" name="ident"/>
             </Attributes>
             <ExtraData>
              <Entry key="ZoomPanBin">
               <ZoomPanBin id="6765"  >
                <ZoomPanKeyframes>
                 <ZoomPanKeyframe id="6766" timeRangeEnd="-9999999/1" timeRangeDuration="0/1" interpolaterName="linr"  />
                </ZoomPanKeyframes>
               </ZoomPanBin>
              </Entry>
             </ExtraData>
            </VMFile>
            <MetaData>
             <entry key="WinSubProjectDisplayName" val=""/>
            </MetaData>
           </UnifiedMedia>
          </Medias>
         </GenericTrack>
        </StitchedMedia>
        <VMFile id="6767" start="8534" duration="148" scalar="9007199254740992/18300570016637655" mediaStart="36028797018963968/4179908750635" mediaDuration="677121090615593235/2251799813685248" trackNumber="0" src="4" >
         <Transformer>
          <VectorParam id="6768"  name="translation">
           <InterpolatingParam id="6769" interp="linr"  >
            <Keyframes>
            <Keyframe id="6770"  time="-9999999/1" value="-7.1167960413731635e-011" leadInLength="0/1"  interpolater="leadin-linr"  />
            <Keyframe id="6771"  time="1152921504606846976/366717721562809" value="5.5654680863881367e-010" leadInLength="1152921504606846976/5731782449161017"  interpolater="leadin-linr"  />
            <Keyframe id="6772"  time="1152921504606846976/241943692210127" value="7.4408035288797691e-011" leadInLength="144115188075855872/4728720520560593"  interpolater="leadin-linr"  />
            <Keyframe id="6773"  time="288230376151711744/49336893193065" value="637.46031746043502" leadInLength="144115188075855872/5066486272023893"  interpolater="leadin-linr"  />
            <Keyframe id="6774"  time="1152921504606846976/190267223926189" value="-1.5187323977675214e-010" leadInLength="72057594037927936/2728107992627485"  interpolater="leadin-linr"  />
            </Keyframes>
           </InterpolatingParam>
           <InterpolatingParam id="6775" interp="linr"  >
            <Keyframes>
            <Keyframe id="6776"  time="-9999999/1" value="4.2888359530479647e-011" leadInLength="0/1"  interpolater="leadin-linr"  />
            <Keyframe id="6777"  time="1152921504606846976/366717721562809" value="-2.7188917783860234e-011" leadInLength="1152921504606846976/5731782449161017"  interpolater="leadin-linr"  />
            <Keyframe id="6778"  time="1152921504606846976/241943692210127" value="1.3588419278676156e-010" leadInLength="144115188075855872/4728720520560593"  interpolater="leadin-linr"  />
            <Keyframe id="6779"  time="288230376151711744/49336893193065" value="-250.00000000029172" leadInLength="144115188075855872/5066486272023893"  interpolater="leadin-linr"  />
            <Keyframe id="6780"  time="1152921504606846976/190267223926189" value="5.541285948612186e-011" leadInLength="72057594037927936/2728107992627485"  interpolater="leadin-linr"  />
            </Keyframes>
           </InterpolatingParam>
           <InterpolatingParam id="6781" interp="linr"  >
            <Keyframes>
            <Keyframe id="6782"  time="-9999999/1" value="0" leadInLength="0/1"  interpolater="leadin-linr"  />
            <Keyframe id="6783"  time="1152921504606846976/366717721562809" value="-6.8212102632977114e-010" leadInLength="1152921504606846976/5731782449161017"  interpolater="leadin-linr"  />
            <Keyframe id="6784"  time="1152921504606846976/241943692210127" value="-3.4106051316488526e-010" leadInLength="144115188075855872/4728720520560593"  interpolater="leadin-linr"  />
            <Keyframe id="6785"  time="288230376151711744/49336893193065" value="-3.4106051316488526e-010" leadInLength="144115188075855872/5066486272023893"  interpolater="leadin-linr"  />
            <Keyframe id="6786"  time="1152921504606846976/190267223926189" value="4.1359030627651384e-025" leadInLength="72057594037927936/2728107992627485"  interpolater="leadin-linr"  />
            </Keyframes>
           </InterpolatingParam>
          </VectorParam>
          <VectorParam id="6787"  name="rotation">
           <InterpolatingParam id="6788" interp="linr"  >
            <Keyframes>
            <Keyframe id="6789"  time="-9999999/1" value="0" leadInLength="0/1"  interpolater="leadin-linr"  />
            <Keyframe id="6790"  time="1152921504606846976/366717721562809" value="0" leadInLength="1152921504606846976/5731782449161017"  interpolater="leadin-linr"  />
            <Keyframe id="6791"  time="1152921504606846976/241943692210127" value="0" leadInLength="144115188075855872/4728720520560593"  interpolater="leadin-linr"  />
            <Keyframe id="6792"  time="288230376151711744/49336893193065" value="0" leadInLength="144115188075855872/5066486272023893"  interpolater="leadin-linr"  />
            <Keyframe id="6793"  time="1152921504606846976/190267223926189" value="0" leadInLength="72057594037927936/2728107992627485"  interpolater="leadin-linr"  />
            </Keyframes>
           </InterpolatingParam>
           <InterpolatingParam id="6794" interp="linr"  >
            <Keyframes>
            <Keyframe id="6795"  time="-9999999/1" value="0" leadInLength="0/1"  interpolater="leadin-linr"  />
            <Keyframe id="6796"  time="1152921504606846976/366717721562809" value="0" leadInLength="1152921504606846976/5731782449161017"  interpolater="leadin-linr"  />
            <Keyframe id="6797"  time="1152921504606846976/241943692210127" value="0" leadInLength="144115188075855872/4728720520560593"  interpolater="leadin-linr"  />
            <Keyframe id="6798"  time="288230376151711744/49336893193065" value="0" leadInLength="144115188075855872/5066486272023893"  interpolater="leadin-linr"  />
            <Keyframe id="6799"  time="1152921504606846976/190267223926189" value="0" leadInLength="72057594037927936/2728107992627485"  interpolater="leadin-linr"  />
            </Keyframes>
           </InterpolatingParam>
           <InterpolatingParam id="6800" interp="linr"  >
            <Keyframes>
            <Keyframe id="6801"  time="-9999999/1" value="0" leadInLength="0/1"  interpolater="leadin-linr"  />
            <Keyframe id="6802"  time="1152921504606846976/366717721562809" value="0" leadInLength="1152921504606846976/5731782449161017"  interpolater="leadin-linr"  />
            <Keyframe id="6803"  time="1152921504606846976/241943692210127" value="0" leadInLength="144115188075855872/4728720520560593"  interpolater="leadin-linr"  />
            <Keyframe id="6804"  time="288230376151711744/49336893193065" value="0" leadInLength="144115188075855872/5066486272023893"  interpolater="leadin-linr"  />
            <Keyframe id="6805"  time="1152921504606846976/190267223926189" value="0" leadInLength="72057594037927936/2728107992627485"  interpolater="leadin-linr"  />
            </Keyframes>
           </InterpolatingParam>
          </VectorParam>
          <VectorParam id="6806"  name="shear">
           <InterpolatingParam id="6807" interp="linr"  >
            <Keyframes>
            <Keyframe id="6808"  time="-9999999/1" value="0" leadInLength="0/1"  interpolater="leadin-linr"  />
            <Keyframe id="6809"  time="1152921504606846976/366717721562809" value="0" leadInLength="1152921504606846976/5731782449161017"  interpolater="leadin-linr"  />
            <Keyframe id="6810"  time="1152921504606846976/241943692210127" value="0" leadInLength="144115188075855872/4728720520560593"  interpolater="leadin-linr"  />
            <Keyframe id="6811"  time="288230376151711744/49336893193065" value="0" leadInLength="144115188075855872/5066486272023893"  interpolater="leadin-linr"  />
            <Keyframe id="6812"  time="1152921504606846976/190267223926189" value="0" leadInLength="72057594037927936/2728107992627485"  interpolater="leadin-linr"  />
            </Keyframes>
           </InterpolatingParam>
           <InterpolatingParam id="6813" interp="linr"  >
            <Keyframes>
            <Keyframe id="6814"  time="-9999999/1" value="0" leadInLength="0/1"  interpolater="leadin-linr"  />
            <Keyframe id="6815"  time="1152921504606846976/366717721562809" value="0" leadInLength="1152921504606846976/5731782449161017"  interpolater="leadin-linr"  />
            <Keyframe id="6816"  time="1152921504606846976/241943692210127" value="0" leadInLength="144115188075855872/4728720520560593"  interpolater="leadin-linr"  />
            <Keyframe id="6817"  time="288230376151711744/49336893193065" value="0" leadInLength="144115188075855872/5066486272023893"  interpolater="leadin-linr"  />
            <Keyframe id="6818"  time="1152921504606846976/190267223926189" value="0" leadInLength="72057594037927936/2728107992627485"  interpolater="leadin-linr"  />
            </Keyframes>
           </InterpolatingParam>
           <InterpolatingParam id="6819" interp="linr"  >
            <Keyframes>
            <Keyframe id="6820"  time="-9999999/1" value="0" leadInLength="0/1"  interpolater="leadin-linr"  />
            <Keyframe id="6821"  time="1152921504606846976/366717721562809" value="0" leadInLength="1152921504606846976/5731782449161017"  interpolater="leadin-linr"  />
            <Keyframe id="6822"  time="1152921504606846976/241943692210127" value="0" leadInLength="144115188075855872/4728720520560593"  interpolater="leadin-linr"  />
            <Keyframe id="6823"  time="288230376151711744/49336893193065" value="0" leadInLength="144115188075855872/5066486272023893"  interpolater="leadin-linr"  />
            <Keyframe id="6824"  time="1152921504606846976/190267223926189" value="0" leadInLength="72057594037927936/2728107992627485"  interpolater="leadin-linr"  />
            </Keyframes>
           </InterpolatingParam>
          </VectorParam>
          <VectorParam id="6825"  name="scale">
           <InterpolatingParam id="6826" interp="linr"  >
            <Keyframes>
            <Keyframe id="6827"  time="-9999999/1" value="0.66666666666665186" leadInLength="0/1"  interpolater="leadin-linr"  />
            <Keyframe id="6828"  time="1152921504606846976/366717721562809" value="0.66666666666705388" leadInLength="1152921504606846976/5731782449161017"  interpolater="leadin-linr"  />
            <Keyframe id="6829"  time="1152921504606846976/241943692210127" value="0.66666666666655605" leadInLength="144115188075855872/4728720520560593"  interpolater="leadin-linr"  />
            <Keyframe id="6830"  time="288230376151711744/49336893193065" value="1.3306878306877652" leadInLength="144115188075855872/5066486272023893"  interpolater="leadin-linr"  />
            <Keyframe id="6831"  time="1152921504606846976/190267223926189" value="0.66666666666645868" leadInLength="72057594037927936/2728107992627485"  interpolater="leadin-linr"  />
            </Keyframes>
           </InterpolatingParam>
           <InterpolatingParam id="6832" interp="linr"  >
            <Keyframes>
            <Keyframe id="6833"  time="-9999999/1" value="0.6666666666666522" leadInLength="0/1"  interpolater="leadin-linr"  />
            <Keyframe id="6834"  time="1152921504606846976/366717721562809" value="0.66666666666705443" leadInLength="1152921504606846976/5731782449161017"  interpolater="leadin-linr"  />
            <Keyframe id="6835"  time="1152921504606846976/241943692210127" value="0.66666666666655749" leadInLength="144115188075855872/4728720520560593"  interpolater="leadin-linr"  />
            <Keyframe id="6836"  time="288230376151711744/49336893193065" value="1.3306878306877681" leadInLength="144115188075855872/5066486272023893"  interpolater="leadin-linr"  />
            <Keyframe id="6837"  time="1152921504606846976/190267223926189" value="0.66666666666646024" leadInLength="72057594037927936/2728107992627485"  interpolater="leadin-linr"  />
            </Keyframes>
           </InterpolatingParam>
           <InterpolatingParam id="6838" interp="linr"  >
            <Keyframes>
            <Keyframe id="6839"  time="-9999999/1" value="1" leadInLength="0/1"  interpolater="leadin-linr"  />
            <Keyframe id="6840"  time="1152921504606846976/366717721562809" value="1" leadInLength="1152921504606846976/5731782449161017"  interpolater="leadin-linr"  />
            <Keyframe id="6841"  time="1152921504606846976/241943692210127" value="1" leadInLength="144115188075855872/4728720520560593"  interpolater="leadin-linr"  />
            <Keyframe id="6842"  time="288230376151711744/49336893193065" value="1" leadInLength="144115188075855872/5066486272023893"  interpolater="leadin-linr"  />
            <Keyframe id="6843"  time="1152921504606846976/190267223926189" value="1" leadInLength="72057594037927936/2728107992627485"  interpolater="leadin-linr"  />
            </Keyframes>
           </InterpolatingParam>
          </VectorParam>
          <VectorParam id="6844"  name="anchor">
           <InterpolatingParam id="6845" interp="linr"  time="0/1" value="0" leadInLength="0/1"  />
           <InterpolatingParam id="6846" interp="linr"  time="0/1" value="0" leadInLength="0/1"  />
           <InterpolatingParam id="6847" interp="linr"  time="0/1" value="0" leadInLength="0/1"  />
          </VectorParam>
         </Transformer>
         <Parameters>
          <VectorParam id="6848"  name="sourceCrop">
           <InterpolatingParam id="6849" interp="linr"  time="0/1" value="0" leadInLength="0/1"  />
           <InterpolatingParam id="6850" interp="linr"  time="0/1" value="0" leadInLength="0/1"  />
           <InterpolatingParam id="6851" interp="linr"  time="0/1" value="0" leadInLength="0/1"  />
           <InterpolatingParam id="6852" interp="linr"  time="0/1" value="0" leadInLength="0/1"  />
          </VectorParam>
          <VectorParam id="6853"  name="geometryCrop">
           <InterpolatingParam id="6854" interp="linr"  >
            <Keyframes>
            <Keyframe id="6855"  time="-9999999/1" value="0" leadInLength="0/1"  interpolater="leadin-linr"  />
            <Keyframe id="6856"  time="1152921504606846976/366717721562809" value="0" leadInLength="1152921504606846976/5731782449161017"  interpolater="leadin-linr"  />
            <Keyframe id="6857"  time="1152921504606846976/241943692210127" value="0" leadInLength="144115188075855872/4728720520560593"  interpolater="leadin-linr"  />
            <Keyframe id="6858"  time="288230376151711744/49336893193065" value="0" leadInLength="144115188075855872/5066486272023893"  interpolater="leadin-linr"  />
            <Keyframe id="6859"  time="1152921504606846976/190267223926189" value="0" leadInLength="72057594037927936/2728107992627485"  interpolater="leadin-linr"  />
            </Keyframes>
           </InterpolatingParam>
           <InterpolatingParam id="6860" interp="linr"  >
            <Keyframes>
            <Keyframe id="6861"  time="-9999999/1" value="0" leadInLength="0/1"  interpolater="leadin-linr"  />
            <Keyframe id="6862"  time="1152921504606846976/366717721562809" value="0" leadInLength="1152921504606846976/5731782449161017"  interpolater="leadin-linr"  />
            <Keyframe id="6863"  time="1152921504606846976/241943692210127" value="0" leadInLength="144115188075855872/4728720520560593"  interpolater="leadin-linr"  />
            <Keyframe id="6864"  time="288230376151711744/49336893193065" value="0" leadInLength="144115188075855872/5066486272023893"  interpolater="leadin-linr"  />
            <Keyframe id="6865"  time="1152921504606846976/190267223926189" value="0" leadInLength="72057594037927936/2728107992627485"  interpolater="leadin-linr"  />
            </Keyframes>
           </InterpolatingParam>
           <InterpolatingParam id="6866" interp="linr"  >
            <Keyframes>
            <Keyframe id="6867"  time="-9999999/1" value="0" leadInLength="0/1"  interpolater="leadin-linr"  />
            <Keyframe id="6868"  time="1152921504606846976/366717721562809" value="0" leadInLength="1152921504606846976/5731782449161017"  interpolater="leadin-linr"  />
            <Keyframe id="6869"  time="1152921504606846976/241943692210127" value="0" leadInLength="144115188075855872/4728720520560593"  interpolater="leadin-linr"  />
            <Keyframe id="6870"  time="288230376151711744/49336893193065" value="0" leadInLength="144115188075855872/5066486272023893"  interpolater="leadin-linr"  />
            <Keyframe id="6871"  time="1152921504606846976/190267223926189" value="0" leadInLength="72057594037927936/2728107992627485"  interpolater="leadin-linr"  />
            </Keyframes>
           </InterpolatingParam>
           <InterpolatingParam id="6872" interp="linr"  >
            <Keyframes>
            <Keyframe id="6873"  time="-9999999/1" value="0" leadInLength="0/1"  interpolater="leadin-linr"  />
            <Keyframe id="6874"  time="1152921504606846976/366717721562809" value="0" leadInLength="1152921504606846976/5731782449161017"  interpolater="leadin-linr"  />
            <Keyframe id="6875"  time="1152921504606846976/241943692210127" value="0" leadInLength="144115188075855872/4728720520560593"  interpolater="leadin-linr"  />
            <Keyframe id="6876"  time="288230376151711744/49336893193065" value="0" leadInLength="144115188075855872/5066486272023893"  interpolater="leadin-linr"  />
            <Keyframe id="6877"  time="1152921504606846976/190267223926189" value="0" leadInLength="72057594037927936/2728107992627485"  interpolater="leadin-linr"  />
            </Keyframes>
           </InterpolatingParam>
          </VectorParam>
          <InterpolatingParam id="6878" interp="linr"  name="opacity">
           <Keyframes>
           <Keyframe id="6879"  time="-9999999/1" value="1" leadInLength="0/1"  interpolater="leadin-linr"  />
           <Keyframe id="6880"  time="1152921504606846976/366717721562809" value="1" leadInLength="1152921504606846976/5731782449161017"  interpolater="leadin-linr"  />
           <Keyframe id="6881"  time="1152921504606846976/241943692210127" value="1" leadInLength="144115188075855872/4728720520560593"  interpolater="leadin-linr"  />
           <Keyframe id="6882"  time="288230376151711744/49336893193065" value="1" leadInLength="144115188075855872/5066486272023893"  interpolater="leadin-linr"  />
           <Keyframe id="6883"  time="1152921504606846976/190267223926189" value="1" leadInLength="72057594037927936/2728107992627485"  interpolater="leadin-linr"  />
           </Keyframes>
          </InterpolatingParam>
         </Parameters>
         <Attributes>
          <Attribute id="6884" value="" name="ident"/>
         </Attributes>
         <MetaData>
          <entry key="WinSubProjectDisplayName" val=""/>
         </MetaData>
         <ExtraData>
          <Entry key="ZoomPanBin">
           <ZoomPanBin id="6885"  >
            <ZoomPanKeyframes>
             <ZoomPanKeyframe id="6886" timeRangeEnd="-9999999/1" timeRangeDuration="0/1" interpolaterName="leadin-linr"  />
             <ZoomPanKeyframe id="6887" timeRangeEnd="1152921504606846976/366717721562809" timeRangeDuration="1152921504606846976/5731782449161017" interpolaterName="linr"  />
             <ZoomPanKeyframe id="6888" timeRangeEnd="1152921504606846976/241943692210127" timeRangeDuration="144115188075855872/4728720520560593" interpolaterName="linr"  />
             <ZoomPanKeyframe id="6889" timeRangeEnd="1152921504606846976/190267223926189" timeRangeDuration="72057594037927936/2728107992627485" interpolaterName="linr"  />
             <ZoomPanKeyframe id="6890" timeRangeEnd="288230376151711744/49336893193065" timeRangeDuration="144115188075855872/5066486272023893" interpolaterName="linr"  />
            </ZoomPanKeyframes>
           </ZoomPanBin>
          </Entry>
         </ExtraData>
        </VMFile>
        <UnifiedMedia id="6891"  >
         <AudioTransition id="6892" start="8682" duration="15" >
          <Parameters>
           <InterpolatingParam id="6893" interp="linr"  time="0/1" value="1" leadInLength="0/1"  name="volume"/>
           <Parameter id="6894"  name="captions"/>
          </Parameters>
          <Effects>
           <GenericEffect id="6895" name = "AudioTransition" >
            <Parameters>
            <Parameter id="6896"   name="audioEdgeModType">
             <Keyframes>
             <Keyframe id="6897"  time="0/1" value="0" leadInLength="0/1"  />
             </Keyframes>
            </Parameter>
            <Parameter id="6898"   name="audioTransitionType">
             <Keyframes>
             <Keyframe id="6899"  time="0/1" value="" leadInLength="0/1"  />
             </Keyframes>
            </Parameter>
            </Parameters>
            <MetaData>
            </MetaData>
           </GenericEffect>
          </Effects>
          <Attributes>
           <Attribute id="6900" value="" name="ident"/>
           <Attribute id="6901" value="0" name="sampleRate"/>
           <Attribute id="6902" value="0" name="bitDepth"/>
           <Attribute id="6903" value="1" name="gain"/>
           <Attribute id="6904" value="0" name="mixToMono"/>
          </Attributes>
         </AudioTransition>
         <ImageTransition id="6905" start="8682" duration="15" >
          <Transformer>
           <VectorParam id="6906"  name="translation">
            <InterpolatingParam id="6907" interp="linr"  time="0/1" value="0" leadInLength="0/1"  />
            <InterpolatingParam id="6908" interp="linr"  time="0/1" value="0" leadInLength="0/1"  />
            <InterpolatingParam id="6909" interp="linr"  time="0/1" value="0" leadInLength="0/1"  />
           </VectorParam>
           <VectorParam id="6910"  name="rotation">
            <InterpolatingParam id="6911" interp="linr"  time="0/1" value="0" leadInLength="0/1"  />
            <InterpolatingParam id="6912" interp="linr"  time="0/1" value="0" leadInLength="0/1"  />
            <InterpolatingParam id="6913" interp="linr"  time="0/1" value="0" leadInLength="0/1"  />
           </VectorParam>
           <VectorParam id="6914"  name="shear">
            <InterpolatingParam id="6915" interp="linr"  time="0/1" value="0" leadInLength="0/1"  />
            <InterpolatingParam id="6916" interp="linr"  time="0/1" value="0" leadInLength="0/1"  />
            <InterpolatingParam id="6917" interp="linr"  time="0/1" value="0" leadInLength="0/1"  />
           </VectorParam>
           <VectorParam id="6918"  name="scale">
            <InterpolatingParam id="6919" interp="linr"  time="0/1" value="1" leadInLength="0/1"  />
            <InterpolatingParam id="6920" interp="linr"  time="0/1" value="1" leadInLength="0/1"  />
            <InterpolatingParam id="6921" interp="linr"  time="0/1" value="1" leadInLength="0/1"  />
           </VectorParam>
           <VectorParam id="6922"  name="anchor">
            <InterpolatingParam id="6923" interp="linr"  time="0/1" value="0" leadInLength="0/1"  />
            <InterpolatingParam id="6924" interp="linr"  time="0/1" value="0" leadInLength="0/1"  />
            <InterpolatingParam id="6925" interp="linr"  time="0/1" value="0" leadInLength="0/1"  />
           </VectorParam>
          </Transformer>
          <Parameters>
           <VectorParam id="6926"  name="sourceCrop">
            <InterpolatingParam id="6927" interp="linr"  time="0/1" value="0" leadInLength="0/1"  />
            <InterpolatingParam id="6928" interp="linr"  time="0/1" value="0" leadInLength="0/1"  />
            <InterpolatingParam id="6929" interp="linr"  time="0/1" value="0" leadInLength="0/1"  />
            <InterpolatingParam id="6930" interp="linr"  time="0/1" value="0" leadInLength="0/1"  />
           </VectorParam>
           <VectorParam id="6931"  name="geometryCrop">
            <InterpolatingParam id="6932" interp="linr"  time="0/1" value="0" leadInLength="0/1"  />
            <InterpolatingParam id="6933" interp="linr"  time="0/1" value="0" leadInLength="0/1"  />
            <InterpolatingParam id="6934" interp="linr"  time="0/1" value="0" leadInLength="0/1"  />
            <InterpolatingParam id="6935" interp="linr"  time="0/1" value="0" leadInLength="0/1"  />
           </VectorParam>
           <InterpolatingParam id="6936" interp="linr"  time="0/1" value="1" leadInLength="0/1"  name="opacity"/>
          </Parameters>
          <Effects>
           <GenericEffect id="6937" name = "VisualTransition" >
            <Parameters>
            <InterpolatingParam id="6938" interp="linr"  time="0/1" value="0.5" leadInLength="0/1"   name="leftFramePercentage"/>
            <InterpolatingParam id="6939" interp="linr"  time="0/1" value="0.5" leadInLength="0/1"   name="rightFramePercentage"/>
            <Parameter id="6940"   name="visualEdgeModType">
             <Keyframes>
             <Keyframe id="6941"  time="0/1" value="2" leadInLength="0/1"  />
             </Keyframes>
            </Parameter>
            <Parameter id="6942"   name="visualTransitionType">
             <Keyframes>
             <Keyframe id="6943"  time="0/1" value="RandomDissolve" leadInLength="0/1"  />
             </Keyframes>
            </Parameter>
            </Parameters>
            <MetaData>
            </MetaData>
           </GenericEffect>
          </Effects>
          <Attributes>
           <Attribute id="6944" value="" name="ident"/>
          </Attributes>
          <ExtraData>
           <Entry key="ZoomPanBin">
            <ZoomPanBin id="6945"  >
             <ZoomPanKeyframes>
             </ZoomPanKeyframes>
            </ZoomPanBin>
           </Entry>
          </ExtraData>
         </ImageTransition>
         <MetaData>
          <entry key="WinSubProjectDisplayName" val=""/>
         </MetaData>
        </UnifiedMedia>
        <UnifiedMedia id="6946"  >
         <AudioTransition id="6947" start="8697" duration="15" >
          <Parameters>
           <InterpolatingParam id="6948" interp="linr"  time="0/1" value="1" leadInLength="0/1"  name="volume"/>
           <Parameter id="6949"  name="captions"/>
          </Parameters>
          <Effects>
           <GenericEffect id="6950" name = "AudioTransition" >
            <Parameters>
            <Parameter id="6951"   name="audioEdgeModType">
             <Keyframes>
             <Keyframe id="6952"  time="0/1" value="0" leadInLength="0/1"  />
             </Keyframes>
            </Parameter>
            <Parameter id="6953"   name="audioTransitionType">
             <Keyframes>
             <Keyframe id="6954"  time="0/1" value="" leadInLength="0/1"  />
             </Keyframes>
            </Parameter>
            </Parameters>
            <MetaData>
            </MetaData>
           </GenericEffect>
          </Effects>
          <Attributes>
           <Attribute id="6955" value="" name="ident"/>
           <Attribute id="6956" value="0" name="sampleRate"/>
           <Attribute id="6957" value="0" name="bitDepth"/>
           <Attribute id="6958" value="1" name="gain"/>
           <Attribute id="6959" value="0" name="mixToMono"/>
          </Attributes>
         </AudioTransition>
         <ImageTransition id="6960" start="8697" duration="15" >
          <Transformer>
           <VectorParam id="6961"  name="translation">
            <InterpolatingParam id="6962" interp="linr"  time="0/1" value="0" leadInLength="0/1"  />
            <InterpolatingParam id="6963" interp="linr"  time="0/1" value="0" leadInLength="0/1"  />
            <InterpolatingParam id="6964" interp="linr"  time="0/1" value="0" leadInLength="0/1"  />
           </VectorParam>
           <VectorParam id="6965"  name="rotation">
            <InterpolatingParam id="6966" interp="linr"  time="0/1" value="0" leadInLength="0/1"  />
            <InterpolatingParam id="6967" interp="linr"  time="0/1" value="0" leadInLength="0/1"  />
            <InterpolatingParam id="6968" interp="linr"  time="0/1" value="0" leadInLength="0/1"  />
           </VectorParam>
           <VectorParam id="6969"  name="shear">
            <InterpolatingParam id="6970" interp="linr"  time="0/1" value="0" leadInLength="0/1"  />
            <InterpolatingParam id="6971" interp="linr"  time="0/1" value="0" leadInLength="0/1"  />
            <InterpolatingParam id="6972" interp="linr"  time="0/1" value="0" leadInLength="0/1"  />
           </VectorParam>
           <VectorParam id="6973"  name="scale">
            <InterpolatingParam id="6974" interp="linr"  time="0/1" value="1" leadInLength="0/1"  />
            <InterpolatingParam id="6975" interp="linr"  time="0/1" value="1" leadInLength="0/1"  />
            <InterpolatingParam id="6976" interp="linr"  time="0/1" value="1" leadInLength="0/1"  />
           </VectorParam>
           <VectorParam id="6977"  name="anchor">
            <InterpolatingParam id="6978" interp="linr"  time="0/1" value="0" leadInLength="0/1"  />
            <InterpolatingParam id="6979" interp="linr"  time="0/1" value="0" leadInLength="0/1"  />
            <InterpolatingParam id="6980" interp="linr"  time="0/1" value="0" leadInLength="0/1"  />
           </VectorParam>
          </Transformer>
          <Parameters>
           <VectorParam id="6981"  name="sourceCrop">
            <InterpolatingParam id="6982" interp="linr"  time="0/1" value="0" leadInLength="0/1"  />
            <InterpolatingParam id="6983" interp="linr"  time="0/1" value="0" leadInLength="0/1"  />
            <InterpolatingParam id="6984" interp="linr"  time="0/1" value="0" leadInLength="0/1"  />
            <InterpolatingParam id="6985" interp="linr"  time="0/1" value="0" leadInLength="0/1"  />
           </VectorParam>
           <VectorParam id="6986"  name="geometryCrop">
            <InterpolatingParam id="6987" interp="linr"  time="0/1" value="0" leadInLength="0/1"  />
            <InterpolatingParam id="6988" interp="linr"  time="0/1" value="0" leadInLength="0/1"  />
            <InterpolatingParam id="6989" interp="linr"  time="0/1" value="0" leadInLength="0/1"  />
            <InterpolatingParam id="6990" interp="linr"  time="0/1" value="0" leadInLength="0/1"  />
           </VectorParam>
           <InterpolatingParam id="6991" interp="linr"  time="0/1" value="1" leadInLength="0/1"  name="opacity"/>
          </Parameters>
          <Effects>
           <GenericEffect id="6992" name = "VisualTransition" >
            <Parameters>
            <InterpolatingParam id="6993" interp="linr"  time="0/1" value="0.5" leadInLength="0/1"   name="leftFramePercentage"/>
            <InterpolatingParam id="6994" interp="linr"  time="0/1" value="0.5" leadInLength="0/1"   name="rightFramePercentage"/>
            <Parameter id="6995"   name="visualEdgeModType">
             <Keyframes>
             <Keyframe id="6996"  time="0/1" value="1" leadInLength="0/1"  />
             </Keyframes>
            </Parameter>
            <Parameter id="6997"   name="visualTransitionType">
             <Keyframes>
             <Keyframe id="6998"  time="0/1" value="RandomDissolve" leadInLength="0/1"  />
             </Keyframes>
            </Parameter>
            </Parameters>
            <MetaData>
            </MetaData>
           </GenericEffect>
          </Effects>
          <Attributes>
           <Attribute id="6999" value="" name="ident"/>
          </Attributes>
          <ExtraData>
           <Entry key="ZoomPanBin">
            <ZoomPanBin id="7000"  >
             <ZoomPanKeyframes>
             </ZoomPanKeyframes>
            </ZoomPanBin>
           </Entry>
          </ExtraData>
         </ImageTransition>
         <MetaData>
          <entry key="WinSubProjectDisplayName" val=""/>
         </MetaData>
        </UnifiedMedia>
        <VMFile id="7001" start="8712" duration="253" scalar="36028797018963968/36431787372740445" mediaStart="1152921504606846976/128301435698501" mediaDuration="9217242205303332585/36028797018963968" trackNumber="0" src="4" >
         <Transformer>
          <VectorParam id="7002"  name="translation">
           <InterpolatingParam id="7003" interp="linr"  >
            <Keyframes>
            <Keyframe id="7004"  time="-9999999/1" value="-7.1167960413731635e-011" leadInLength="0/1"  interpolater="leadin-linr"  />
            <Keyframe id="7005"  time="576460752303423488/184097774686973" value="5.5654680863881367e-010" leadInLength="576460752303423488/2864744871920385"  interpolater="leadin-linr"  />
            <Keyframe id="7006"  time="1152921504606846976/242659335267337" value="7.4408035288797691e-011" leadInLength="144115188075855872/4597453463804995"  interpolater="leadin-linr"  />
            <Keyframe id="7007"  time="1152921504606846976/197718044645153" value="637.46031746043502" leadInLength="144115188075855872/4750701912600539"  interpolater="leadin-linr"  />
            <Keyframe id="7008"  time="1152921504606846976/190643271173219" value="-1.5187323977675214e-010" leadInLength="144115188075855872/5090037763501341"  interpolater="leadin-linr"  />
            </Keyframes>
           </InterpolatingParam>
           <InterpolatingParam id="7009" interp="linr"  >
            <Keyframes>
            <Keyframe id="7010"  time="-9999999/1" value="4.2888359530479647e-011" leadInLength="0/1"  interpolater="leadin-linr"  />
            <Keyframe id="7011"  time="576460752303423488/184097774686973" value="-2.7188917783860234e-011" leadInLength="576460752303423488/2864744871920385"  interpolater="leadin-linr"  />
            <Keyframe id="7012"  time="1152921504606846976/242659335267337" value="1.3588419278676156e-010" leadInLength="144115188075855872/4597453463804995"  interpolater="leadin-linr"  />
            <Keyframe id="7013"  time="1152921504606846976/197718044645153" value="-250.00000000029172" leadInLength="144115188075855872/4750701912600539"  interpolater="leadin-linr"  />
            <Keyframe id="7014"  time="1152921504606846976/190643271173219" value="5.541285948612186e-011" leadInLength="144115188075855872/5090037763501341"  interpolater="leadin-linr"  />
            </Keyframes>
           </InterpolatingParam>
           <InterpolatingParam id="7015" interp="linr"  >
            <Keyframes>
            <Keyframe id="7016"  time="-9999999/1" value="0" leadInLength="0/1"  interpolater="leadin-linr"  />
            <Keyframe id="7017"  time="576460752303423488/184097774686973" value="-6.8212102632977114e-010" leadInLength="576460752303423488/2864744871920385"  interpolater="leadin-linr"  />
            <Keyframe id="7018"  time="1152921504606846976/242659335267337" value="-3.4106051316488526e-010" leadInLength="144115188075855872/4597453463804995"  interpolater="leadin-linr"  />
            <Keyframe id="7019"  time="1152921504606846976/197718044645153" value="-3.4106051316488526e-010" leadInLength="144115188075855872/4750701912600539"  interpolater="leadin-linr"  />
            <Keyframe id="7020"  time="1152921504606846976/190643271173219" value="4.1359030627651384e-025" leadInLength="144115188075855872/5090037763501341"  interpolater="leadin-linr"  />
            </Keyframes>
           </InterpolatingParam>
          </VectorParam>
          <VectorParam id="7021"  name="rotation">
           <InterpolatingParam id="7022" interp="linr"  >
            <Keyframes>
            <Keyframe id="7023"  time="-9999999/1" value="0" leadInLength="0/1"  interpolater="leadin-linr"  />
            <Keyframe id="7024"  time="576460752303423488/184097774686973" value="0" leadInLength="576460752303423488/2864744871920385"  interpolater="leadin-linr"  />
            <Keyframe id="7025"  time="1152921504606846976/242659335267337" value="0" leadInLength="144115188075855872/4597453463804995"  interpolater="leadin-linr"  />
            <Keyframe id="7026"  time="1152921504606846976/197718044645153" value="0" leadInLength="144115188075855872/4750701912600539"  interpolater="leadin-linr"  />
            <Keyframe id="7027"  time="1152921504606846976/190643271173219" value="0" leadInLength="144115188075855872/5090037763501341"  interpolater="leadin-linr"  />
            </Keyframes>
           </InterpolatingParam>
           <InterpolatingParam id="7028" interp="linr"  >
            <Keyframes>
            <Keyframe id="7029"  time="-9999999/1" value="0" leadInLength="0/1"  interpolater="leadin-linr"  />
            <Keyframe id="7030"  time="576460752303423488/184097774686973" value="0" leadInLength="576460752303423488/2864744871920385"  interpolater="leadin-linr"  />
            <Keyframe id="7031"  time="1152921504606846976/242659335267337" value="0" leadInLength="144115188075855872/4597453463804995"  interpolater="leadin-linr"  />
            <Keyframe id="7032"  time="1152921504606846976/197718044645153" value="0" leadInLength="144115188075855872/4750701912600539"  interpolater="leadin-linr"  />
            <Keyframe id="7033"  time="1152921504606846976/190643271173219" value="0" leadInLength="144115188075855872/5090037763501341"  interpolater="leadin-linr"  />
            </Keyframes>
           </InterpolatingParam>
           <InterpolatingParam id="7034" interp="linr"  >
            <Keyframes>
            <Keyframe id="7035"  time="-9999999/1" value="0" leadInLength="0/1"  interpolater="leadin-linr"  />
            <Keyframe id="7036"  time="576460752303423488/184097774686973" value="0" leadInLength="576460752303423488/2864744871920385"  interpolater="leadin-linr"  />
            <Keyframe id="7037"  time="1152921504606846976/242659335267337" value="0" leadInLength="144115188075855872/4597453463804995"  interpolater="leadin-linr"  />
            <Keyframe id="7038"  time="1152921504606846976/197718044645153" value="0" leadInLength="144115188075855872/4750701912600539"  interpolater="leadin-linr"  />
            <Keyframe id="7039"  time="1152921504606846976/190643271173219" value="0" leadInLength="144115188075855872/5090037763501341"  interpolater="leadin-linr"  />
            </Keyframes>
           </InterpolatingParam>
          </VectorParam>
          <VectorParam id="7040"  name="shear">
           <InterpolatingParam id="7041" interp="linr"  >
            <Keyframes>
            <Keyframe id="7042"  time="-9999999/1" value="0" leadInLength="0/1"  interpolater="leadin-linr"  />
            <Keyframe id="7043"  time="576460752303423488/184097774686973" value="0" leadInLength="576460752303423488/2864744871920385"  interpolater="leadin-linr"  />
            <Keyframe id="7044"  time="1152921504606846976/242659335267337" value="0" leadInLength="144115188075855872/4597453463804995"  interpolater="leadin-linr"  />
            <Keyframe id="7045"  time="1152921504606846976/197718044645153" value="0" leadInLength="144115188075855872/4750701912600539"  interpolater="leadin-linr"  />
            <Keyframe id="7046"  time="1152921504606846976/190643271173219" value="0" leadInLength="144115188075855872/5090037763501341"  interpolater="leadin-linr"  />
            </Keyframes>
           </InterpolatingParam>
           <InterpolatingParam id="7047" interp="linr"  >
            <Keyframes>
            <Keyframe id="7048"  time="-9999999/1" value="0" leadInLength="0/1"  interpolater="leadin-linr"  />
            <Keyframe id="7049"  time="576460752303423488/184097774686973" value="0" leadInLength="576460752303423488/2864744871920385"  interpolater="leadin-linr"  />
            <Keyframe id="7050"  time="1152921504606846976/242659335267337" value="0" leadInLength="144115188075855872/4597453463804995"  interpolater="leadin-linr"  />
            <Keyframe id="7051"  time="1152921504606846976/197718044645153" value="0" leadInLength="144115188075855872/4750701912600539"  interpolater="leadin-linr"  />
            <Keyframe id="7052"  time="1152921504606846976/190643271173219" value="0" leadInLength="144115188075855872/5090037763501341"  interpolater="leadin-linr"  />
            </Keyframes>
           </InterpolatingParam>
           <InterpolatingParam id="7053" interp="linr"  >
            <Keyframes>
            <Keyframe id="7054"  time="-9999999/1" value="0" leadInLength="0/1"  interpolater="leadin-linr"  />
            <Keyframe id="7055"  time="576460752303423488/184097774686973" value="0" leadInLength="576460752303423488/2864744871920385"  interpolater="leadin-linr"  />
            <Keyframe id="7056"  time="1152921504606846976/242659335267337" value="0" leadInLength="144115188075855872/4597453463804995"  interpolater="leadin-linr"  />
            <Keyframe id="7057"  time="1152921504606846976/197718044645153" value="0" leadInLength="144115188075855872/4750701912600539"  interpolater="leadin-linr"  />
            <Keyframe id="7058"  time="1152921504606846976/190643271173219" value="0" leadInLength="144115188075855872/5090037763501341"  interpolater="leadin-linr"  />
            </Keyframes>
           </InterpolatingParam>
          </VectorParam>
          <VectorParam id="7059"  name="scale">
           <InterpolatingParam id="7060" interp="linr"  >
            <Keyframes>
            <Keyframe id="7061"  time="-9999999/1" value="0.66666666666665186" leadInLength="0/1"  interpolater="leadin-linr"  />
            <Keyframe id="7062"  time="576460752303423488/184097774686973" value="0.66666666666705388" leadInLength="576460752303423488/2864744871920385"  interpolater="leadin-linr"  />
            <Keyframe id="7063"  time="1152921504606846976/242659335267337" value="0.66666666666655605" leadInLength="144115188075855872/4597453463804995"  interpolater="leadin-linr"  />
            <Keyframe id="7064"  time="1152921504606846976/197718044645153" value="1.3306878306877652" leadInLength="144115188075855872/4750701912600539"  interpolater="leadin-linr"  />
            <Keyframe id="7065"  time="1152921504606846976/190643271173219" value="0.66666666666645868" leadInLength="144115188075855872/5090037763501341"  interpolater="leadin-linr"  />
            </Keyframes>
           </InterpolatingParam>
           <InterpolatingParam id="7066" interp="linr"  >
            <Keyframes>
            <Keyframe id="7067"  time="-9999999/1" value="0.6666666666666522" leadInLength="0/1"  interpolater="leadin-linr"  />
            <Keyframe id="7068"  time="576460752303423488/184097774686973" value="0.66666666666705443" leadInLength="576460752303423488/2864744871920385"  interpolater="leadin-linr"  />
            <Keyframe id="7069"  time="1152921504606846976/242659335267337" value="0.66666666666655749" leadInLength="144115188075855872/4597453463804995"  interpolater="leadin-linr"  />
            <Keyframe id="7070"  time="1152921504606846976/197718044645153" value="1.3306878306877681" leadInLength="144115188075855872/4750701912600539"  interpolater="leadin-linr"  />
            <Keyframe id="7071"  time="1152921504606846976/190643271173219" value="0.66666666666646024" leadInLength="144115188075855872/5090037763501341"  interpolater="leadin-linr"  />
            </Keyframes>
           </InterpolatingParam>
           <InterpolatingParam id="7072" interp="linr"  >
            <Keyframes>
            <Keyframe id="7073"  time="-9999999/1" value="1" leadInLength="0/1"  interpolater="leadin-linr"  />
            <Keyframe id="7074"  time="576460752303423488/184097774686973" value="1" leadInLength="576460752303423488/2864744871920385"  interpolater="leadin-linr"  />
            <Keyframe id="7075"  time="1152921504606846976/242659335267337" value="1" leadInLength="144115188075855872/4597453463804995"  interpolater="leadin-linr"  />
            <Keyframe id="7076"  time="1152921504606846976/197718044645153" value="1" leadInLength="144115188075855872/4750701912600539"  interpolater="leadin-linr"  />
            <Keyframe id="7077"  time="1152921504606846976/190643271173219" value="1" leadInLength="144115188075855872/5090037763501341"  interpolater="leadin-linr"  />
            </Keyframes>
           </InterpolatingParam>
          </VectorParam>
          <VectorParam id="7078"  name="anchor">
           <InterpolatingParam id="7079" interp="linr"  time="0/1" value="0" leadInLength="0/1"  />
           <InterpolatingParam id="7080" interp="linr"  time="0/1" value="0" leadInLength="0/1"  />
           <InterpolatingParam id="7081" interp="linr"  time="0/1" value="0" leadInLength="0/1"  />
          </VectorParam>
         </Transformer>
         <Parameters>
          <VectorParam id="7082"  name="sourceCrop">
           <InterpolatingParam id="7083" interp="linr"  time="0/1" value="0" leadInLength="0/1"  />
           <InterpolatingParam id="7084" interp="linr"  time="0/1" value="0" leadInLength="0/1"  />
           <InterpolatingParam id="7085" interp="linr"  time="0/1" value="0" leadInLength="0/1"  />
           <InterpolatingParam id="7086" interp="linr"  time="0/1" value="0" leadInLength="0/1"  />
          </VectorParam>
          <VectorParam id="7087"  name="geometryCrop">
           <InterpolatingParam id="7088" interp="linr"  >
            <Keyframes>
            <Keyframe id="7089"  time="-9999999/1" value="0" leadInLength="0/1"  interpolater="leadin-linr"  />
            <Keyframe id="7090"  time="576460752303423488/184097774686973" value="0" leadInLength="576460752303423488/2864744871920385"  interpolater="leadin-linr"  />
            <Keyframe id="7091"  time="1152921504606846976/242659335267337" value="0" leadInLength="144115188075855872/4597453463804995"  interpolater="leadin-linr"  />
            <Keyframe id="7092"  time="1152921504606846976/197718044645153" value="0" leadInLength="144115188075855872/4750701912600539"  interpolater="leadin-linr"  />
            <Keyframe id="7093"  time="1152921504606846976/190643271173219" value="0" leadInLength="144115188075855872/5090037763501341"  interpolater="leadin-linr"  />
            </Keyframes>
           </InterpolatingParam>
           <InterpolatingParam id="7094" interp="linr"  >
            <Keyframes>
            <Keyframe id="7095"  time="-9999999/1" value="0" leadInLength="0/1"  interpolater="leadin-linr"  />
            <Keyframe id="7096"  time="576460752303423488/184097774686973" value="0" leadInLength="576460752303423488/2864744871920385"  interpolater="leadin-linr"  />
            <Keyframe id="7097"  time="1152921504606846976/242659335267337" value="0" leadInLength="144115188075855872/4597453463804995"  interpolater="leadin-linr"  />
            <Keyframe id="7098"  time="1152921504606846976/197718044645153" value="0" leadInLength="144115188075855872/4750701912600539"  interpolater="leadin-linr"  />
            <Keyframe id="7099"  time="1152921504606846976/190643271173219" value="0" leadInLength="144115188075855872/5090037763501341"  interpolater="leadin-linr"  />
            </Keyframes>
           </InterpolatingParam>
           <InterpolatingParam id="7100" interp="linr"  >
            <Keyframes>
            <Keyframe id="7101"  time="-9999999/1" value="0" leadInLength="0/1"  interpolater="leadin-linr"  />
            <Keyframe id="7102"  time="576460752303423488/184097774686973" value="0" leadInLength="576460752303423488/2864744871920385"  interpolater="leadin-linr"  />
            <Keyframe id="7103"  time="1152921504606846976/242659335267337" value="0" leadInLength="144115188075855872/4597453463804995"  interpolater="leadin-linr"  />
            <Keyframe id="7104"  time="1152921504606846976/197718044645153" value="0" leadInLength="144115188075855872/4750701912600539"  interpolater="leadin-linr"  />
            <Keyframe id="7105"  time="1152921504606846976/190643271173219" value="0" leadInLength="144115188075855872/5090037763501341"  interpolater="leadin-linr"  />
            </Keyframes>
           </InterpolatingParam>
           <InterpolatingParam id="7106" interp="linr"  >
            <Keyframes>
            <Keyframe id="7107"  time="-9999999/1" value="0" leadInLength="0/1"  interpolater="leadin-linr"  />
            <Keyframe id="7108"  time="576460752303423488/184097774686973" value="0" leadInLength="576460752303423488/2864744871920385"  interpolater="leadin-linr"  />
            <Keyframe id="7109"  time="1152921504606846976/242659335267337" value="0" leadInLength="144115188075855872/4597453463804995"  interpolater="leadin-linr"  />
            <Keyframe id="7110"  time="1152921504606846976/197718044645153" value="0" leadInLength="144115188075855872/4750701912600539"  interpolater="leadin-linr"  />
            <Keyframe id="7111"  time="1152921504606846976/190643271173219" value="0" leadInLength="144115188075855872/5090037763501341"  interpolater="leadin-linr"  />
            </Keyframes>
           </InterpolatingParam>
          </VectorParam>
          <InterpolatingParam id="7112" interp="linr"  name="opacity">
           <Keyframes>
           <Keyframe id="7113"  time="-9999999/1" value="1" leadInLength="0/1"  interpolater="leadin-linr"  />
           <Keyframe id="7114"  time="576460752303423488/184097774686973" value="1" leadInLength="576460752303423488/2864744871920385"  interpolater="leadin-linr"  />
           <Keyframe id="7115"  time="1152921504606846976/242659335267337" value="1" leadInLength="144115188075855872/4597453463804995"  interpolater="leadin-linr"  />
           <Keyframe id="7116"  time="1152921504606846976/197718044645153" value="1" leadInLength="144115188075855872/4750701912600539"  interpolater="leadin-linr"  />
           <Keyframe id="7117"  time="1152921504606846976/190643271173219" value="1" leadInLength="144115188075855872/5090037763501341"  interpolater="leadin-linr"  />
           </Keyframes>
          </InterpolatingParam>
         </Parameters>
         <Attributes>
          <Attribute id="7118" value="" name="ident"/>
         </Attributes>
         <MetaData>
          <entry key="WinSubProjectDisplayName" val=""/>
         </MetaData>
         <ExtraData>
          <Entry key="ZoomPanBin">
           <ZoomPanBin id="7119"  >
            <ZoomPanKeyframes>
             <ZoomPanKeyframe id="7120" timeRangeEnd="-9999999/1" timeRangeDuration="0/1" interpolaterName="leadin-linr"  />
             <ZoomPanKeyframe id="7121" timeRangeEnd="576460752303423488/184097774686973" timeRangeDuration="576460752303423488/2864744871920385" interpolaterName="linr"  />
             <ZoomPanKeyframe id="7122" timeRangeEnd="1152921504606846976/242659335267337" timeRangeDuration="144115188075855872/4597453463804995" interpolaterName="linr"  />
             <ZoomPanKeyframe id="7123" timeRangeEnd="1152921504606846976/190643271173219" timeRangeDuration="144115188075855872/5090037763501341" interpolaterName="linr"  />
             <ZoomPanKeyframe id="7124" timeRangeEnd="1152921504606846976/197718044645153" timeRangeDuration="144115188075855872/4750701912600539" interpolaterName="linr"  />
            </ZoomPanKeyframes>
           </ZoomPanBin>
          </Entry>
         </ExtraData>
        </VMFile>
       </Medias>
      </GenericTrack>
      <GenericTrack id="7125"  >
       <Attributes>
        <Attribute id="7126" value="Audio" name="ident"/>
        <Attribute id="7127" value="0" name="audioMuted"/>
        <Attribute id="7128" value="0" name="videoHidden"/>
       </Attributes>
       <MetaData>
        <entry key="IsLocked" val="False"/>
        <entry key="WinTrackHeight" val="62"/>
       </MetaData>
       <Medias>
        <StitchedMedia id="7129" start="0" duration="345" scalar="1/1" mediaStart="44/1" mediaDuration="345/1" minMediaStart="0/1" >
         <Transformer>
          <VectorParam id="7130"  name="translation">
           <InterpolatingParam id="7131" interp="linr"  time="0/1" value="0" leadInLength="0/1"  />
           <InterpolatingParam id="7132" interp="linr"  time="0/1" value="0" leadInLength="0/1"  />
           <InterpolatingParam id="7133" interp="linr"  time="0/1" value="0" leadInLength="0/1"  />
          </VectorParam>
          <VectorParam id="7134"  name="rotation">
           <InterpolatingParam id="7135" interp="linr"  time="0/1" value="0" leadInLength="0/1"  />
           <InterpolatingParam id="7136" interp="linr"  time="0/1" value="0" leadInLength="0/1"  />
           <InterpolatingParam id="7137" interp="linr"  time="0/1" value="0" leadInLength="0/1"  />
          </VectorParam>
          <VectorParam id="7138"  name="shear">
           <InterpolatingParam id="7139" interp="linr"  time="0/1" value="0" leadInLength="0/1"  />
           <InterpolatingParam id="7140" interp="linr"  time="0/1" value="0" leadInLength="0/1"  />
           <InterpolatingParam id="7141" interp="linr"  time="0/1" value="0" leadInLength="0/1"  />
          </VectorParam>
          <VectorParam id="7142"  name="scale">
           <InterpolatingParam id="7143" interp="linr"  time="0/1" value="1" leadInLength="0/1"  />
           <InterpolatingParam id="7144" interp="linr"  time="0/1" value="1" leadInLength="0/1"  />
           <InterpolatingParam id="7145" interp="linr"  time="0/1" value="1" leadInLength="0/1"  />
          </VectorParam>
          <VectorParam id="7146"  name="anchor">
           <InterpolatingParam id="7147" interp="linr"  time="0/1" value="0" leadInLength="0/1"  />
           <InterpolatingParam id="7148" interp="linr"  time="0/1" value="0" leadInLength="0/1"  />
           <InterpolatingParam id="7149" interp="linr"  time="0/1" value="0" leadInLength="0/1"  />
          </VectorParam>
         </Transformer>
         <Parameters>
          <InterpolatingParam id="7150" interp="linr"  time="0/1" value="1" leadInLength="0/1"  name="cursorOpacity"/>
          <InterpolatingParam id="7151" interp="linr"  time="0/1" value="1" leadInLength="0/1"  name="cursorScale"/>
          <InterpolatingParam id="7152" interp="linr"  time="0/1" value="1.5625" leadInLength="0/1"  name="volume"/>
          <Parameter id="7153"  name="captions"/>
         </Parameters>
         <Effects>
          <GenericEffect id="7154" name = "WinCompression" >
           <Parameters>
           <InterpolatingParam id="7155" interp="linr"  time="0/1" value="0" leadInLength="0/1"   name="attack"/>
           <InterpolatingParam id="7156" interp="linr"  time="0/1" value="9" leadInLength="0/1"   name="gain"/>
           <Parameter id="7157"   name="preset">
            <Keyframes>
            <Keyframe id="7158"  time="0/1" value="1" leadInLength="0/1"  />
            </Keyframes>
           </Parameter>
           <InterpolatingParam id="7159" interp="linr"  time="0/1" value="10" leadInLength="0/1"   name="ratio"/>
           <InterpolatingParam id="7160" interp="linr"  time="0/1" value="3500" leadInLength="0/1"   name="release"/>
           <InterpolatingParam id="7161" interp="linr"  time="0/1" value="-20" leadInLength="0/1"   name="threshold"/>
           </Parameters>
          </GenericEffect>
          <GenericEffect id="7162" name = "NoiseReduction" >
           <Parameters>
           <InterpolatingParam id="7163" interp="linr"  time="0/1" value="20" leadInLength="0/1"   name="denoiserAmount"/>
           <InterpolatingParam id="7164" interp="linr"  time="0/1" value="0" leadInLength="0/1"   name="denoiserThreshold"/>
           <Parameter id="7165"   name="noiseProfile">
            <Keyframes>
            <Keyframe id="7166"  time="0/1" value="FBAAAAIAAABErAAAAQIAAIA/l8JLuYTCrOB9wgsMfMJoG4LCaWeFwkohjMJdoYvCYv6LwlnvjcKf&#xD;&#xa;nYzChXWPwlcejsL6fo/C5OmQwgVTj8IVMI/COiWRwoWFkcJ2tYzC8I6MwuQbjcJvEo/ClwGRwheQ&#xD;&#xa;lsK8+pbCN5qVwlielcJ905rCmu+fwst0ncIC/JvCdIWdws3snsKxC5zCfh2cwniFnMJRypzCtRag&#xD;&#xa;wuoCosJQt6DCzoegwhY9ocIWN6PCsNqkwrSlpMJ6maTCYpCkwmLvo8Li+KPCyEamwnBNqMLMcqrC&#xD;&#xa;v2GswoS+q8Kk86vCVACuwnvUr8JxZa/CqHqswrdXq8LqT6zCZsuswhZxrMLBX67CnmqvwpYyrsKc&#xD;&#xa;pq3CJFGvwghrsMK3y6/CXoCtwmWZr8ICi7DCgRezwogSs8Joq7LCm0Sxwuz/scIfibTCOOK1wlIM&#xD;&#xa;t8K87LfCj3K3wqDYs8KT1bLCVsW0wnZ0tcJGhLXCfPe0ws/ntcLGXrbCzAG1wtXdtcKxxrTC1Ay1&#xD;&#xa;wquGtcLjELbC8Zi2wl7rtsJBYbbCMF+1wrEutMKuibTCSFa1wpvktMIu3rTCtGe4wjaduMIKErfC&#xD;&#xa;SLa1wvS/tsJmZrjCdn63whjft8Ie47rCfdi5wmjpt8KKCLjCXmC5wsOQt8JDGbfCK4m4wmpvuMLL&#xD;&#xa;nLjC80q4wjUVusKunLjC1Be5wg4cuMLxCbjCwfW4wmi7ucIOdbvCbLG6whqdusKYErrCbpC4wmq0&#xD;&#xa;ucIoWrvCaNe6ws4iu8LSc7zCUNa7wuJZvMIwLL3CWe28wps2v8J2l77Cv3W+wvgavsKAwrzCQCy8&#xD;&#xa;wgBRu8Km8brChSa6wuM4u8IaaL3Cf5y9wg4hvMLur7vCIpO9wm0fvcIGNLzC7Le8wvKgvMKQrLzC&#xD;&#xa;p6+9wtYtvsJcxbzCQC29wjDqvcKeNbzCH2W8wpbZvsLCTL7CnjO+wuIsvsJs67vCwLq9wiKhvsLs&#xD;&#xa;o73C5Du9wqqhvcLwKr7C2kq/wqEMv8LVCb7Cpla+wsXpvMIs6bvC/fO8wueCvsIM4b3CxtC+wmTo&#xD;&#xa;vcI+arzCTNe8wiFNv8IvKL/Cpg+/woK1v8L4i7/CNv2+wmsVv8KWj77CVym+wnAlv8Joa8DCFDzA&#xD;&#xa;wiQYwcLSIcHCxILAwuxKvsJYm77CPoHAwiYPwcLuy77CcQa+wrB4vcKwYLzCxKW8worIvcIlzr/C&#xD;&#xa;OMC+wuRDvcJGZ7zCxFi9wuQzvMLPbbvCwIe+wm7bvcLm9L3COH6+wuuJvMK2B73CYb+9wqbxvMK/&#xD;&#xa;mL7CqIe9wvCavMKs7L3Ckau8wkpavMKt9LzCF8S+wmgKvsKCy73ClrG+wmIovcIns73Cmg+/wgw7&#xD;&#xa;wMI607/CpEq/wmwVvcJLsLvCMD68wuxdvcIeI7/C+bS+wpxfvsJyxsDC1tO/wmtrv8LNnb/CQiK+&#xD;&#xa;wlz7vcLa6L/CUMXBwtrQwcIAw8HCNJHBwvphwMKqc7/CSkW/wjkvwMK8ccHCHmDBwlKAwcKu+MDC&#xD;&#xa;zErCwuqgwsLa+MLC753DwmjuxcLEWMfCkePFwo47xsKnX8XC7tTCwuf3wsL+HcLCTcTBwmg6w8Is&#xD;&#xa;RMPC+qjDwiyGxMLi58TCnWvFwpjsxsKzCMbCyCTDwpM2wcJWGMPCvuDFwh42xsIfyMTCeLTFwuH7&#xD;&#xa;xMJctcfCVv3HwpTGx8J8b8jCqhjHwrgkx8LXNsfCZkLGwnxSxcL8csXCbu7FwsaQyMLa68fCo0XH&#xD;&#xa;woruxMJGHsbCORbJwry2yMLIUsfCxlfGwmLoxcLSPMnCYPDJwkw3yMKc7crC8vDLwug2y8Lu28vC&#xD;&#xa;OKvMwvLpysKGj8rCtNXLwrMay8KdGMrCUr3JwgIVy8J64MvCkbTJwjh4x8JGI8bCvBXHwnoPycKN&#xD;&#xa;Ss3CuC/Nwuywy8IkJ8zCx9/KwnB5ycKnk8nCenLJwnN6ycKc+sjCLFzJwuTrzMJkJM/CY5vOwoYO&#xD;&#xa;zsLU987CVKfNwiZZzcJQxNDCICHVwi0d18Kc29jCIF/YwtKo2MKeBNvCwpTawmY/2sJXPdvCZZXY&#xD;&#xa;whB818IQNdjCDF3XwtWC1sIGF9fCfFfXwkBy2MJ6+9nC1hfZwi5k2cJlfNjCnEPYwm/N1cKGOdXC&#xD;&#xa;Yk/XwgXL2MJSytfCgpTWwqTT1sJOGtnCrF/ZwtcT2cK08NjCscHZwpQ72sLJ/NrCy3zYwmCk18LE&#xD;&#xa;O9fC6hbYwtYU2cJN/dnC1EbZwrw/2cIqyNbCDr7Xwvb02cLQ+dnCaJvXwuYO18KSodnC1NnawtJJ&#xD;&#xa;18ISLtjC90nawoel2cIwl9jCi0XZwih328Ks7NjC5KzZwqui2cJw0tjCukLYws+O2MJaqtrCUuXa&#xD;&#xa;wviX2MIKxtfCnqXXwhjI2MJwAtvCIFvcwgCL2cJ0/djCdyXawh9H2cJ+ntfCy4TXwhqF2MJ68NnC&#xD;&#xa;CzvYwljT2cIkP9vCIs/bwjpB2sK2A9rCXt/awjZH2sIfltvCKWPcwjp53MKrGd3CaBPewj/03MJm&#xD;&#xa;U97CphfgwlJp3cKQpt3Crxjewm7d28Kq/9vCNNXcwqY728IUH9vCkirbwgIt28KK19zCjmzdwoBH&#xD;&#xa;3MIAUtvCUq3bwo8f28Ig09jCiyfZwhbx2sLWe9zCvgzbwmwI2sI2nNvC0lvdwg6128I8PNvCLufa&#xD;&#xa;wkyK28KkitzCJIDcwmAO28L0TNrCDHXawjla28IQkdzCoCDcwjRI3MJVUdvCtujZwnCs2sK8Yd3C&#xD;&#xa;iGbbwuSB2cImFNvCCI7rwoA/l8JLuYTCrOB9wgsMfMJoG4LCaWeFwkohjMJdoYvCYv6LwlnvjcKf&#xD;&#xa;nYzChXWPwlcejsL6fo/C5OmQwgVTj8IVMI/COiWRwoWFkcJ2tYzC8I6MwuQbjcJvEo/ClwGRwheQ&#xD;&#xa;lsK8+pbCN5qVwlielcJ905rCmu+fwst0ncIC/JvCdIWdws3snsKxC5zCfh2cwniFnMJRypzCtRag&#xD;&#xa;wuoCosJQt6DCzoegwhY9ocIWN6PCsNqkwrSlpMJ6maTCYpCkwmLvo8Li+KPCyEamwnBNqMLMcqrC&#xD;&#xa;v2GswoS+q8Kk86vCVACuwnvUr8JxZa/CqHqswrdXq8LqT6zCZsuswhZxrMLBX67CnmqvwpYyrsKc&#xD;&#xa;pq3CJFGvwghrsMK3y6/CXoCtwmWZr8ICi7DCgRezwogSs8Joq7LCm0Sxwuz/scIfibTCOOK1wlIM&#xD;&#xa;t8K87LfCj3K3wqDYs8KT1bLCVsW0wnZ0tcJGhLXCfPe0ws/ntcLGXrbCzAG1wtXdtcKxxrTC1Ay1&#xD;&#xa;wquGtcLjELbC8Zi2wl7rtsJBYbbCMF+1wrEutMKuibTCSFa1wpvktMIu3rTCtGe4wjaduMIKErfC&#xD;&#xa;SLa1wvS/tsJmZrjCdn63whjft8Ie47rCfdi5wmjpt8KKCLjCXmC5wsOQt8JDGbfCK4m4wmpvuMLL&#xD;&#xa;nLjC80q4wjUVusKunLjC1Be5wg4cuMLxCbjCwfW4wmi7ucIOdbvCbLG6whqdusKYErrCbpC4wmq0&#xD;&#xa;ucIoWrvCaNe6ws4iu8LSc7zCUNa7wuJZvMIwLL3CWe28wps2v8J2l77Cv3W+wvgavsKAwrzCQCy8&#xD;&#xa;wgBRu8Km8brChSa6wuM4u8IaaL3Cf5y9wg4hvMLur7vCIpO9wm0fvcIGNLzC7Le8wvKgvMKQrLzC&#xD;&#xa;p6+9wtYtvsJcxbzCQC29wjDqvcKeNbzCH2W8wpbZvsLCTL7CnjO+wuIsvsJs67vCwLq9wiKhvsLs&#xD;&#xa;o73C5Du9wqqhvcLwKr7C2kq/wqEMv8LVCb7Cpla+wsXpvMIs6bvC/fO8wueCvsIM4b3CxtC+wmTo&#xD;&#xa;vcI+arzCTNe8wiFNv8IvKL/Cpg+/woK1v8L4i7/CNv2+wmsVv8KWj77CVym+wnAlv8Joa8DCFDzA&#xD;&#xa;wiQYwcLSIcHCxILAwuxKvsJYm77CPoHAwiYPwcLuy77CcQa+wrB4vcKwYLzCxKW8worIvcIlzr/C&#xD;&#xa;OMC+wuRDvcJGZ7zCxFi9wuQzvMLPbbvCwIe+wm7bvcLm9L3COH6+wuuJvMK2B73CYb+9wqbxvMK/&#xD;&#xa;mL7CqIe9wvCavMKs7L3Ckau8wkpavMKt9LzCF8S+wmgKvsKCy73ClrG+wmIovcIns73Cmg+/wgw7&#xD;&#xa;wMI607/CpEq/wmwVvcJLsLvCMD68wuxdvcIeI7/C+bS+wpxfvsJyxsDC1tO/wmtrv8LNnb/CQiK+&#xD;&#xa;wlz7vcLa6L/CUMXBwtrQwcIAw8HCNJHBwvphwMKqc7/CSkW/wjkvwMK8ccHCHmDBwlKAwcKu+MDC&#xD;&#xa;zErCwuqgwsLa+MLC753DwmjuxcLEWMfCkePFwo47xsKnX8XC7tTCwuf3wsL+HcLCTcTBwmg6w8Is&#xD;&#xa;RMPC+qjDwiyGxMLi58TCnWvFwpjsxsKzCMbCyCTDwpM2wcJWGMPCvuDFwh42xsIfyMTCeLTFwuH7&#xD;&#xa;xMJctcfCVv3HwpTGx8J8b8jCqhjHwrgkx8LXNsfCZkLGwnxSxcL8csXCbu7FwsaQyMLa68fCo0XH&#xD;&#xa;woruxMJGHsbCORbJwry2yMLIUsfCxlfGwmLoxcLSPMnCYPDJwkw3yMKc7crC8vDLwug2y8Lu28vC&#xD;&#xa;OKvMwvLpysKGj8rCtNXLwrMay8KdGMrCUr3JwgIVy8J64MvCkbTJwjh4x8JGI8bCvBXHwnoPycKN&#xD;&#xa;Ss3CuC/Nwuywy8IkJ8zCx9/KwnB5ycKnk8nCenLJwnN6ycKc+sjCLFzJwuTrzMJkJM/CY5vOwoYO&#xD;&#xa;zsLU987CVKfNwiZZzcJQxNDCICHVwi0d18Kc29jCIF/YwtKo2MKeBNvCwpTawmY/2sJXPdvCZZXY&#xD;&#xa;whB818IQNdjCDF3XwtWC1sIGF9fCfFfXwkBy2MJ6+9nC1hfZwi5k2cJlfNjCnEPYwm/N1cKGOdXC&#xD;&#xa;Yk/XwgXL2MJSytfCgpTWwqTT1sJOGtnCrF/ZwtcT2cK08NjCscHZwpQ72sLJ/NrCy3zYwmCk18LE&#xD;&#xa;O9fC6hbYwtYU2cJN/dnC1EbZwrw/2cIqyNbCDr7Xwvb02cLQ+dnCaJvXwuYO18KSodnC1NnawtJJ&#xD;&#xa;18ISLtjC90nawoel2cIwl9jCi0XZwih328Ks7NjC5KzZwqui2cJw0tjCukLYws+O2MJaqtrCUuXa&#xD;&#xa;wviX2MIKxtfCnqXXwhjI2MJwAtvCIFvcwgCL2cJ0/djCdyXawh9H2cJ+ntfCy4TXwhqF2MJ68NnC&#xD;&#xa;CzvYwljT2cIkP9vCIs/bwjpB2sK2A9rCXt/awjZH2sIfltvCKWPcwjp53MKrGd3CaBPewj/03MJm&#xD;&#xa;U97CphfgwlJp3cKQpt3Crxjewm7d28Kq/9vCNNXcwqY728IUH9vCkirbwgIt28KK19zCjmzdwoBH&#xD;&#xa;3MIAUtvCUq3bwo8f28Ig09jCiyfZwhbx2sLWe9zCvgzbwmwI2sI2nNvC0lvdwg6128I8PNvCLufa&#xD;&#xa;wkyK28KkitzCJIDcwmAO28L0TNrCDHXawjla28IQkdzCoCDcwjRI3MJVUdvCtujZwnCs2sK8Yd3C&#xD;&#xa;iGbbwuSB2cImFNvCCI7r" leadInLength="0/1"  />
            </Keyframes>
           </Parameter>
           </Parameters>
          </GenericEffect>
          <GenericEffect id="7167" name = "Declipper" >
           <Parameters>
           <InterpolatingParam id="7168" interp="linr"  time="0/1" value="-1" leadInLength="0/1"   name="sensitivity"/>
           </Parameters>
          </GenericEffect>
          <GenericEffect id="7169" name = "Declicker" >
           <Parameters>
           <InterpolatingParam id="7170" interp="linr"  time="0/1" value="3" leadInLength="0/1"   name="sensitivity"/>
           </Parameters>
          </GenericEffect>
         </Effects>
         <Attributes>
          <Attribute id="7171" value="" name="ident"/>
          <Attribute id="7172" value="0" name="mixToMono"/>
         </Attributes>
         <MetaData>
          <entry key="WinSubProjectDisplayName" val=""/>
         </MetaData>
         <ExtraData>
          <Entry key="ZoomPanBin">
           <ZoomPanBin id="7173"  >
            <ZoomPanKeyframes>
            </ZoomPanKeyframes>
           </ZoomPanBin>
          </Entry>
          <Entry key="CursorEffectBin">
           <CursorEffectBin id="7174"  >
            <CursorEffectKeyframes>
            </CursorEffectKeyframes>
           </CursorEffectBin>
          </Entry>
         </ExtraData>
         <GenericTrack id="7175"  >
          <Attributes>
           <Attribute id="7176" value="" name="ident"/>
           <Attribute id="7177" value="0" name="audioMuted"/>
           <Attribute id="7178" value="0" name="videoHidden"/>
          </Attributes>
          <MetaData>
           <entry key="IsLocked" val="False"/>
           <entry key="WinTrackHeight" val="0"/>
          </MetaData>
          <Medias>
           <AMFile id="7179" start="0" duration="117" scalar="1/1" mediaStart="0/1" mediaDuration="117/1" trackNumber="0" src="29" channelNumber="0" >
            <Parameters>
             <InterpolatingParam id="7180" interp="linr"  time="0/1" value="1" leadInLength="0/1"  name="volume"/>
             <Parameter id="7181"  name="captions"/>
            </Parameters>
            <Attributes>
             <Attribute id="7182" value="" name="ident"/>
             <Attribute id="7183" value="48000" name="sampleRate"/>
             <Attribute id="7184" value="16" name="bitDepth"/>
             <Attribute id="7185" value="1" name="gain"/>
             <Attribute id="7186" value="0" name="mixToMono"/>
            </Attributes>
            <MetaData>
             <entry key="WinSubProjectDisplayName" val=""/>
            </MetaData>
           </AMFile>
           <AMFile id="7187" start="117" duration="13515" scalar="1/1" mediaStart="131/1" mediaDuration="13515/1" trackNumber="0" src="29" channelNumber="0" >
            <Parameters>
             <InterpolatingParam id="7188" interp="linr"  time="0/1" value="1" leadInLength="0/1"  name="volume"/>
             <Parameter id="7189"  name="captions"/>
            </Parameters>
            <Attributes>
             <Attribute id="7190" value="" name="ident"/>
             <Attribute id="7191" value="48000" name="sampleRate"/>
             <Attribute id="7192" value="16" name="bitDepth"/>
             <Attribute id="7193" value="1" name="gain"/>
             <Attribute id="7194" value="0" name="mixToMono"/>
            </Attributes>
            <MetaData>
             <entry key="WinSubProjectDisplayName" val=""/>
            </MetaData>
           </AMFile>
          </Medias>
         </GenericTrack>
        </StitchedMedia>
        <AMFile id="7195" start="362" duration="230" scalar="1/1" mediaStart="415/1" mediaDuration="230/1" trackNumber="0" src="29" channelNumber="0" >
         <Parameters>
          <InterpolatingParam id="7196" interp="linr"  name="volume">
           <Keyframes>
           <Keyframe id="7197"  time="0/1" value="1.5625" leadInLength="0/1"  />
           <Keyframe id="7198"  time="415/1" value="1.5625" leadInLength="0/1"  />
           </Keyframes>
          </InterpolatingParam>
          <Parameter id="7199"  name="captions"/>
         </Parameters>
         <Effects>
          <GenericEffect id="7200" name = "WinCompression" >
           <Parameters>
           <InterpolatingParam id="7201" interp="linr"  time="0/1" value="0" leadInLength="0/1"   name="attack"/>
           <InterpolatingParam id="7202" interp="linr"  time="0/1" value="9" leadInLength="0/1"   name="gain"/>
           <Parameter id="7203"   name="preset">
            <Keyframes>
            <Keyframe id="7204"  time="0/1" value="1" leadInLength="0/1"  />
            </Keyframes>
           </Parameter>
           <InterpolatingParam id="7205" interp="linr"  time="0/1" value="10" leadInLength="0/1"   name="ratio"/>
           <InterpolatingParam id="7206" interp="linr"  time="0/1" value="3500" leadInLength="0/1"   name="release"/>
           <InterpolatingParam id="7207" interp="linr"  time="0/1" value="-20" leadInLength="0/1"   name="threshold"/>
           </Parameters>
          </GenericEffect>
          <GenericEffect id="7208" name = "NoiseReduction" >
           <Parameters>
           <InterpolatingParam id="7209" interp="linr"  time="0/1" value="20" leadInLength="0/1"   name="denoiserAmount"/>
           <InterpolatingParam id="7210" interp="linr"  time="0/1" value="0" leadInLength="0/1"   name="denoiserThreshold"/>
           <Parameter id="7211"   name="noiseProfile">
            <Keyframes>
            <Keyframe id="7212"  time="0/1" value="FBAAAAIAAABErAAAAQIAAIA/l8JLuYTCrOB9wgsMfMJoG4LCaWeFwkohjMJdoYvCYv6LwlnvjcKf&#xD;&#xa;nYzChXWPwlcejsL6fo/C5OmQwgVTj8IVMI/COiWRwoWFkcJ2tYzC8I6MwuQbjcJvEo/ClwGRwheQ&#xD;&#xa;lsK8+pbCN5qVwlielcJ905rCmu+fwst0ncIC/JvCdIWdws3snsKxC5zCfh2cwniFnMJRypzCtRag&#xD;&#xa;wuoCosJQt6DCzoegwhY9ocIWN6PCsNqkwrSlpMJ6maTCYpCkwmLvo8Li+KPCyEamwnBNqMLMcqrC&#xD;&#xa;v2GswoS+q8Kk86vCVACuwnvUr8JxZa/CqHqswrdXq8LqT6zCZsuswhZxrMLBX67CnmqvwpYyrsKc&#xD;&#xa;pq3CJFGvwghrsMK3y6/CXoCtwmWZr8ICi7DCgRezwogSs8Joq7LCm0Sxwuz/scIfibTCOOK1wlIM&#xD;&#xa;t8K87LfCj3K3wqDYs8KT1bLCVsW0wnZ0tcJGhLXCfPe0ws/ntcLGXrbCzAG1wtXdtcKxxrTC1Ay1&#xD;&#xa;wquGtcLjELbC8Zi2wl7rtsJBYbbCMF+1wrEutMKuibTCSFa1wpvktMIu3rTCtGe4wjaduMIKErfC&#xD;&#xa;SLa1wvS/tsJmZrjCdn63whjft8Ie47rCfdi5wmjpt8KKCLjCXmC5wsOQt8JDGbfCK4m4wmpvuMLL&#xD;&#xa;nLjC80q4wjUVusKunLjC1Be5wg4cuMLxCbjCwfW4wmi7ucIOdbvCbLG6whqdusKYErrCbpC4wmq0&#xD;&#xa;ucIoWrvCaNe6ws4iu8LSc7zCUNa7wuJZvMIwLL3CWe28wps2v8J2l77Cv3W+wvgavsKAwrzCQCy8&#xD;&#xa;wgBRu8Km8brChSa6wuM4u8IaaL3Cf5y9wg4hvMLur7vCIpO9wm0fvcIGNLzC7Le8wvKgvMKQrLzC&#xD;&#xa;p6+9wtYtvsJcxbzCQC29wjDqvcKeNbzCH2W8wpbZvsLCTL7CnjO+wuIsvsJs67vCwLq9wiKhvsLs&#xD;&#xa;o73C5Du9wqqhvcLwKr7C2kq/wqEMv8LVCb7Cpla+wsXpvMIs6bvC/fO8wueCvsIM4b3CxtC+wmTo&#xD;&#xa;vcI+arzCTNe8wiFNv8IvKL/Cpg+/woK1v8L4i7/CNv2+wmsVv8KWj77CVym+wnAlv8Joa8DCFDzA&#xD;&#xa;wiQYwcLSIcHCxILAwuxKvsJYm77CPoHAwiYPwcLuy77CcQa+wrB4vcKwYLzCxKW8worIvcIlzr/C&#xD;&#xa;OMC+wuRDvcJGZ7zCxFi9wuQzvMLPbbvCwIe+wm7bvcLm9L3COH6+wuuJvMK2B73CYb+9wqbxvMK/&#xD;&#xa;mL7CqIe9wvCavMKs7L3Ckau8wkpavMKt9LzCF8S+wmgKvsKCy73ClrG+wmIovcIns73Cmg+/wgw7&#xD;&#xa;wMI607/CpEq/wmwVvcJLsLvCMD68wuxdvcIeI7/C+bS+wpxfvsJyxsDC1tO/wmtrv8LNnb/CQiK+&#xD;&#xa;wlz7vcLa6L/CUMXBwtrQwcIAw8HCNJHBwvphwMKqc7/CSkW/wjkvwMK8ccHCHmDBwlKAwcKu+MDC&#xD;&#xa;zErCwuqgwsLa+MLC753DwmjuxcLEWMfCkePFwo47xsKnX8XC7tTCwuf3wsL+HcLCTcTBwmg6w8Is&#xD;&#xa;RMPC+qjDwiyGxMLi58TCnWvFwpjsxsKzCMbCyCTDwpM2wcJWGMPCvuDFwh42xsIfyMTCeLTFwuH7&#xD;&#xa;xMJctcfCVv3HwpTGx8J8b8jCqhjHwrgkx8LXNsfCZkLGwnxSxcL8csXCbu7FwsaQyMLa68fCo0XH&#xD;&#xa;woruxMJGHsbCORbJwry2yMLIUsfCxlfGwmLoxcLSPMnCYPDJwkw3yMKc7crC8vDLwug2y8Lu28vC&#xD;&#xa;OKvMwvLpysKGj8rCtNXLwrMay8KdGMrCUr3JwgIVy8J64MvCkbTJwjh4x8JGI8bCvBXHwnoPycKN&#xD;&#xa;Ss3CuC/Nwuywy8IkJ8zCx9/KwnB5ycKnk8nCenLJwnN6ycKc+sjCLFzJwuTrzMJkJM/CY5vOwoYO&#xD;&#xa;zsLU987CVKfNwiZZzcJQxNDCICHVwi0d18Kc29jCIF/YwtKo2MKeBNvCwpTawmY/2sJXPdvCZZXY&#xD;&#xa;whB818IQNdjCDF3XwtWC1sIGF9fCfFfXwkBy2MJ6+9nC1hfZwi5k2cJlfNjCnEPYwm/N1cKGOdXC&#xD;&#xa;Yk/XwgXL2MJSytfCgpTWwqTT1sJOGtnCrF/ZwtcT2cK08NjCscHZwpQ72sLJ/NrCy3zYwmCk18LE&#xD;&#xa;O9fC6hbYwtYU2cJN/dnC1EbZwrw/2cIqyNbCDr7Xwvb02cLQ+dnCaJvXwuYO18KSodnC1NnawtJJ&#xD;&#xa;18ISLtjC90nawoel2cIwl9jCi0XZwih328Ks7NjC5KzZwqui2cJw0tjCukLYws+O2MJaqtrCUuXa&#xD;&#xa;wviX2MIKxtfCnqXXwhjI2MJwAtvCIFvcwgCL2cJ0/djCdyXawh9H2cJ+ntfCy4TXwhqF2MJ68NnC&#xD;&#xa;CzvYwljT2cIkP9vCIs/bwjpB2sK2A9rCXt/awjZH2sIfltvCKWPcwjp53MKrGd3CaBPewj/03MJm&#xD;&#xa;U97CphfgwlJp3cKQpt3Crxjewm7d28Kq/9vCNNXcwqY728IUH9vCkirbwgIt28KK19zCjmzdwoBH&#xD;&#xa;3MIAUtvCUq3bwo8f28Ig09jCiyfZwhbx2sLWe9zCvgzbwmwI2sI2nNvC0lvdwg6128I8PNvCLufa&#xD;&#xa;wkyK28KkitzCJIDcwmAO28L0TNrCDHXawjla28IQkdzCoCDcwjRI3MJVUdvCtujZwnCs2sK8Yd3C&#xD;&#xa;iGbbwuSB2cImFNvCCI7rwoA/l8JLuYTCrOB9wgsMfMJoG4LCaWeFwkohjMJdoYvCYv6LwlnvjcKf&#xD;&#xa;nYzChXWPwlcejsL6fo/C5OmQwgVTj8IVMI/COiWRwoWFkcJ2tYzC8I6MwuQbjcJvEo/ClwGRwheQ&#xD;&#xa;lsK8+pbCN5qVwlielcJ905rCmu+fwst0ncIC/JvCdIWdws3snsKxC5zCfh2cwniFnMJRypzCtRag&#xD;&#xa;wuoCosJQt6DCzoegwhY9ocIWN6PCsNqkwrSlpMJ6maTCYpCkwmLvo8Li+KPCyEamwnBNqMLMcqrC&#xD;&#xa;v2GswoS+q8Kk86vCVACuwnvUr8JxZa/CqHqswrdXq8LqT6zCZsuswhZxrMLBX67CnmqvwpYyrsKc&#xD;&#xa;pq3CJFGvwghrsMK3y6/CXoCtwmWZr8ICi7DCgRezwogSs8Joq7LCm0Sxwuz/scIfibTCOOK1wlIM&#xD;&#xa;t8K87LfCj3K3wqDYs8KT1bLCVsW0wnZ0tcJGhLXCfPe0ws/ntcLGXrbCzAG1wtXdtcKxxrTC1Ay1&#xD;&#xa;wquGtcLjELbC8Zi2wl7rtsJBYbbCMF+1wrEutMKuibTCSFa1wpvktMIu3rTCtGe4wjaduMIKErfC&#xD;&#xa;SLa1wvS/tsJmZrjCdn63whjft8Ie47rCfdi5wmjpt8KKCLjCXmC5wsOQt8JDGbfCK4m4wmpvuMLL&#xD;&#xa;nLjC80q4wjUVusKunLjC1Be5wg4cuMLxCbjCwfW4wmi7ucIOdbvCbLG6whqdusKYErrCbpC4wmq0&#xD;&#xa;ucIoWrvCaNe6ws4iu8LSc7zCUNa7wuJZvMIwLL3CWe28wps2v8J2l77Cv3W+wvgavsKAwrzCQCy8&#xD;&#xa;wgBRu8Km8brChSa6wuM4u8IaaL3Cf5y9wg4hvMLur7vCIpO9wm0fvcIGNLzC7Le8wvKgvMKQrLzC&#xD;&#xa;p6+9wtYtvsJcxbzCQC29wjDqvcKeNbzCH2W8wpbZvsLCTL7CnjO+wuIsvsJs67vCwLq9wiKhvsLs&#xD;&#xa;o73C5Du9wqqhvcLwKr7C2kq/wqEMv8LVCb7Cpla+wsXpvMIs6bvC/fO8wueCvsIM4b3CxtC+wmTo&#xD;&#xa;vcI+arzCTNe8wiFNv8IvKL/Cpg+/woK1v8L4i7/CNv2+wmsVv8KWj77CVym+wnAlv8Joa8DCFDzA&#xD;&#xa;wiQYwcLSIcHCxILAwuxKvsJYm77CPoHAwiYPwcLuy77CcQa+wrB4vcKwYLzCxKW8worIvcIlzr/C&#xD;&#xa;OMC+wuRDvcJGZ7zCxFi9wuQzvMLPbbvCwIe+wm7bvcLm9L3COH6+wuuJvMK2B73CYb+9wqbxvMK/&#xD;&#xa;mL7CqIe9wvCavMKs7L3Ckau8wkpavMKt9LzCF8S+wmgKvsKCy73ClrG+wmIovcIns73Cmg+/wgw7&#xD;&#xa;wMI607/CpEq/wmwVvcJLsLvCMD68wuxdvcIeI7/C+bS+wpxfvsJyxsDC1tO/wmtrv8LNnb/CQiK+&#xD;&#xa;wlz7vcLa6L/CUMXBwtrQwcIAw8HCNJHBwvphwMKqc7/CSkW/wjkvwMK8ccHCHmDBwlKAwcKu+MDC&#xD;&#xa;zErCwuqgwsLa+MLC753DwmjuxcLEWMfCkePFwo47xsKnX8XC7tTCwuf3wsL+HcLCTcTBwmg6w8Is&#xD;&#xa;RMPC+qjDwiyGxMLi58TCnWvFwpjsxsKzCMbCyCTDwpM2wcJWGMPCvuDFwh42xsIfyMTCeLTFwuH7&#xD;&#xa;xMJctcfCVv3HwpTGx8J8b8jCqhjHwrgkx8LXNsfCZkLGwnxSxcL8csXCbu7FwsaQyMLa68fCo0XH&#xD;&#xa;woruxMJGHsbCORbJwry2yMLIUsfCxlfGwmLoxcLSPMnCYPDJwkw3yMKc7crC8vDLwug2y8Lu28vC&#xD;&#xa;OKvMwvLpysKGj8rCtNXLwrMay8KdGMrCUr3JwgIVy8J64MvCkbTJwjh4x8JGI8bCvBXHwnoPycKN&#xD;&#xa;Ss3CuC/Nwuywy8IkJ8zCx9/KwnB5ycKnk8nCenLJwnN6ycKc+sjCLFzJwuTrzMJkJM/CY5vOwoYO&#xD;&#xa;zsLU987CVKfNwiZZzcJQxNDCICHVwi0d18Kc29jCIF/YwtKo2MKeBNvCwpTawmY/2sJXPdvCZZXY&#xD;&#xa;whB818IQNdjCDF3XwtWC1sIGF9fCfFfXwkBy2MJ6+9nC1hfZwi5k2cJlfNjCnEPYwm/N1cKGOdXC&#xD;&#xa;Yk/XwgXL2MJSytfCgpTWwqTT1sJOGtnCrF/ZwtcT2cK08NjCscHZwpQ72sLJ/NrCy3zYwmCk18LE&#xD;&#xa;O9fC6hbYwtYU2cJN/dnC1EbZwrw/2cIqyNbCDr7Xwvb02cLQ+dnCaJvXwuYO18KSodnC1NnawtJJ&#xD;&#xa;18ISLtjC90nawoel2cIwl9jCi0XZwih328Ks7NjC5KzZwqui2cJw0tjCukLYws+O2MJaqtrCUuXa&#xD;&#xa;wviX2MIKxtfCnqXXwhjI2MJwAtvCIFvcwgCL2cJ0/djCdyXawh9H2cJ+ntfCy4TXwhqF2MJ68NnC&#xD;&#xa;CzvYwljT2cIkP9vCIs/bwjpB2sK2A9rCXt/awjZH2sIfltvCKWPcwjp53MKrGd3CaBPewj/03MJm&#xD;&#xa;U97CphfgwlJp3cKQpt3Crxjewm7d28Kq/9vCNNXcwqY728IUH9vCkirbwgIt28KK19zCjmzdwoBH&#xD;&#xa;3MIAUtvCUq3bwo8f28Ig09jCiyfZwhbx2sLWe9zCvgzbwmwI2sI2nNvC0lvdwg6128I8PNvCLufa&#xD;&#xa;wkyK28KkitzCJIDcwmAO28L0TNrCDHXawjla28IQkdzCoCDcwjRI3MJVUdvCtujZwnCs2sK8Yd3C&#xD;&#xa;iGbbwuSB2cImFNvCCI7r" leadInLength="0/1"  />
            </Keyframes>
           </Parameter>
           </Parameters>
          </GenericEffect>
          <GenericEffect id="7213" name = "Declipper" >
           <Parameters>
           <InterpolatingParam id="7214" interp="linr"  time="0/1" value="-1" leadInLength="0/1"   name="sensitivity"/>
           </Parameters>
          </GenericEffect>
          <GenericEffect id="7215" name = "Declicker" >
           <Parameters>
           <InterpolatingParam id="7216" interp="linr"  time="0/1" value="3" leadInLength="0/1"   name="sensitivity"/>
           </Parameters>
          </GenericEffect>
         </Effects>
         <Attributes>
          <Attribute id="7217" value="" name="ident"/>
          <Attribute id="7218" value="48000" name="sampleRate"/>
          <Attribute id="7219" value="16" name="bitDepth"/>
          <Attribute id="7220" value="1" name="gain"/>
          <Attribute id="7221" value="0" name="mixToMono"/>
         </Attributes>
         <MetaData>
          <entry key="WinSubProjectDisplayName" val=""/>
         </MetaData>
        </AMFile>
        <StitchedMedia id="7222" start="604" duration="396" scalar="1/1" mediaStart="983/1" mediaDuration="396/1" minMediaStart="0/1" >
         <Transformer>
          <VectorParam id="7223"  name="translation">
           <InterpolatingParam id="7224" interp="linr"  time="0/1" value="0" leadInLength="0/1"  />
           <InterpolatingParam id="7225" interp="linr"  time="0/1" value="0" leadInLength="0/1"  />
           <InterpolatingParam id="7226" interp="linr"  time="0/1" value="0" leadInLength="0/1"  />
          </VectorParam>
          <VectorParam id="7227"  name="rotation">
           <InterpolatingParam id="7228" interp="linr"  time="0/1" value="0" leadInLength="0/1"  />
           <InterpolatingParam id="7229" interp="linr"  time="0/1" value="0" leadInLength="0/1"  />
           <InterpolatingParam id="7230" interp="linr"  time="0/1" value="0" leadInLength="0/1"  />
          </VectorParam>
          <VectorParam id="7231"  name="shear">
           <InterpolatingParam id="7232" interp="linr"  time="0/1" value="0" leadInLength="0/1"  />
           <InterpolatingParam id="7233" interp="linr"  time="0/1" value="0" leadInLength="0/1"  />
           <InterpolatingParam id="7234" interp="linr"  time="0/1" value="0" leadInLength="0/1"  />
          </VectorParam>
          <VectorParam id="7235"  name="scale">
           <InterpolatingParam id="7236" interp="linr"  time="0/1" value="1" leadInLength="0/1"  />
           <InterpolatingParam id="7237" interp="linr"  time="0/1" value="1" leadInLength="0/1"  />
           <InterpolatingParam id="7238" interp="linr"  time="0/1" value="1" leadInLength="0/1"  />
          </VectorParam>
          <VectorParam id="7239"  name="anchor">
           <InterpolatingParam id="7240" interp="linr"  time="0/1" value="0" leadInLength="0/1"  />
           <InterpolatingParam id="7241" interp="linr"  time="0/1" value="0" leadInLength="0/1"  />
           <InterpolatingParam id="7242" interp="linr"  time="0/1" value="0" leadInLength="0/1"  />
          </VectorParam>
         </Transformer>
         <Parameters>
          <InterpolatingParam id="7243" interp="linr"  time="0/1" value="1" leadInLength="0/1"  name="cursorOpacity"/>
          <InterpolatingParam id="7244" interp="linr"  time="0/1" value="1" leadInLength="0/1"  name="cursorScale"/>
          <InterpolatingParam id="7245" interp="linr"  time="0/1" value="1.5625" leadInLength="0/1"  name="volume"/>
          <Parameter id="7246"  name="captions"/>
         </Parameters>
         <Effects>
          <GenericEffect id="7247" name = "WinCompression" >
           <Parameters>
           <InterpolatingParam id="7248" interp="linr"  time="0/1" value="0" leadInLength="0/1"   name="attack"/>
           <InterpolatingParam id="7249" interp="linr"  time="0/1" value="9" leadInLength="0/1"   name="gain"/>
           <Parameter id="7250"   name="preset">
            <Keyframes>
            <Keyframe id="7251"  time="0/1" value="1" leadInLength="0/1"  />
            </Keyframes>
           </Parameter>
           <InterpolatingParam id="7252" interp="linr"  time="0/1" value="10" leadInLength="0/1"   name="ratio"/>
           <InterpolatingParam id="7253" interp="linr"  time="0/1" value="3500" leadInLength="0/1"   name="release"/>
           <InterpolatingParam id="7254" interp="linr"  time="0/1" value="-20" leadInLength="0/1"   name="threshold"/>
           </Parameters>
          </GenericEffect>
          <GenericEffect id="7255" name = "NoiseReduction" >
           <Parameters>
           <InterpolatingParam id="7256" interp="linr"  time="0/1" value="20" leadInLength="0/1"   name="denoiserAmount"/>
           <InterpolatingParam id="7257" interp="linr"  time="0/1" value="0" leadInLength="0/1"   name="denoiserThreshold"/>
           <Parameter id="7258"   name="noiseProfile">
            <Keyframes>
            <Keyframe id="7259"  time="0/1" value="FBAAAAIAAABErAAAAQIAAIA/l8JLuYTCrOB9wgsMfMJoG4LCaWeFwkohjMJdoYvCYv6LwlnvjcKf&#xD;&#xa;nYzChXWPwlcejsL6fo/C5OmQwgVTj8IVMI/COiWRwoWFkcJ2tYzC8I6MwuQbjcJvEo/ClwGRwheQ&#xD;&#xa;lsK8+pbCN5qVwlielcJ905rCmu+fwst0ncIC/JvCdIWdws3snsKxC5zCfh2cwniFnMJRypzCtRag&#xD;&#xa;wuoCosJQt6DCzoegwhY9ocIWN6PCsNqkwrSlpMJ6maTCYpCkwmLvo8Li+KPCyEamwnBNqMLMcqrC&#xD;&#xa;v2GswoS+q8Kk86vCVACuwnvUr8JxZa/CqHqswrdXq8LqT6zCZsuswhZxrMLBX67CnmqvwpYyrsKc&#xD;&#xa;pq3CJFGvwghrsMK3y6/CXoCtwmWZr8ICi7DCgRezwogSs8Joq7LCm0Sxwuz/scIfibTCOOK1wlIM&#xD;&#xa;t8K87LfCj3K3wqDYs8KT1bLCVsW0wnZ0tcJGhLXCfPe0ws/ntcLGXrbCzAG1wtXdtcKxxrTC1Ay1&#xD;&#xa;wquGtcLjELbC8Zi2wl7rtsJBYbbCMF+1wrEutMKuibTCSFa1wpvktMIu3rTCtGe4wjaduMIKErfC&#xD;&#xa;SLa1wvS/tsJmZrjCdn63whjft8Ie47rCfdi5wmjpt8KKCLjCXmC5wsOQt8JDGbfCK4m4wmpvuMLL&#xD;&#xa;nLjC80q4wjUVusKunLjC1Be5wg4cuMLxCbjCwfW4wmi7ucIOdbvCbLG6whqdusKYErrCbpC4wmq0&#xD;&#xa;ucIoWrvCaNe6ws4iu8LSc7zCUNa7wuJZvMIwLL3CWe28wps2v8J2l77Cv3W+wvgavsKAwrzCQCy8&#xD;&#xa;wgBRu8Km8brChSa6wuM4u8IaaL3Cf5y9wg4hvMLur7vCIpO9wm0fvcIGNLzC7Le8wvKgvMKQrLzC&#xD;&#xa;p6+9wtYtvsJcxbzCQC29wjDqvcKeNbzCH2W8wpbZvsLCTL7CnjO+wuIsvsJs67vCwLq9wiKhvsLs&#xD;&#xa;o73C5Du9wqqhvcLwKr7C2kq/wqEMv8LVCb7Cpla+wsXpvMIs6bvC/fO8wueCvsIM4b3CxtC+wmTo&#xD;&#xa;vcI+arzCTNe8wiFNv8IvKL/Cpg+/woK1v8L4i7/CNv2+wmsVv8KWj77CVym+wnAlv8Joa8DCFDzA&#xD;&#xa;wiQYwcLSIcHCxILAwuxKvsJYm77CPoHAwiYPwcLuy77CcQa+wrB4vcKwYLzCxKW8worIvcIlzr/C&#xD;&#xa;OMC+wuRDvcJGZ7zCxFi9wuQzvMLPbbvCwIe+wm7bvcLm9L3COH6+wuuJvMK2B73CYb+9wqbxvMK/&#xD;&#xa;mL7CqIe9wvCavMKs7L3Ckau8wkpavMKt9LzCF8S+wmgKvsKCy73ClrG+wmIovcIns73Cmg+/wgw7&#xD;&#xa;wMI607/CpEq/wmwVvcJLsLvCMD68wuxdvcIeI7/C+bS+wpxfvsJyxsDC1tO/wmtrv8LNnb/CQiK+&#xD;&#xa;wlz7vcLa6L/CUMXBwtrQwcIAw8HCNJHBwvphwMKqc7/CSkW/wjkvwMK8ccHCHmDBwlKAwcKu+MDC&#xD;&#xa;zErCwuqgwsLa+MLC753DwmjuxcLEWMfCkePFwo47xsKnX8XC7tTCwuf3wsL+HcLCTcTBwmg6w8Is&#xD;&#xa;RMPC+qjDwiyGxMLi58TCnWvFwpjsxsKzCMbCyCTDwpM2wcJWGMPCvuDFwh42xsIfyMTCeLTFwuH7&#xD;&#xa;xMJctcfCVv3HwpTGx8J8b8jCqhjHwrgkx8LXNsfCZkLGwnxSxcL8csXCbu7FwsaQyMLa68fCo0XH&#xD;&#xa;woruxMJGHsbCORbJwry2yMLIUsfCxlfGwmLoxcLSPMnCYPDJwkw3yMKc7crC8vDLwug2y8Lu28vC&#xD;&#xa;OKvMwvLpysKGj8rCtNXLwrMay8KdGMrCUr3JwgIVy8J64MvCkbTJwjh4x8JGI8bCvBXHwnoPycKN&#xD;&#xa;Ss3CuC/Nwuywy8IkJ8zCx9/KwnB5ycKnk8nCenLJwnN6ycKc+sjCLFzJwuTrzMJkJM/CY5vOwoYO&#xD;&#xa;zsLU987CVKfNwiZZzcJQxNDCICHVwi0d18Kc29jCIF/YwtKo2MKeBNvCwpTawmY/2sJXPdvCZZXY&#xD;&#xa;whB818IQNdjCDF3XwtWC1sIGF9fCfFfXwkBy2MJ6+9nC1hfZwi5k2cJlfNjCnEPYwm/N1cKGOdXC&#xD;&#xa;Yk/XwgXL2MJSytfCgpTWwqTT1sJOGtnCrF/ZwtcT2cK08NjCscHZwpQ72sLJ/NrCy3zYwmCk18LE&#xD;&#xa;O9fC6hbYwtYU2cJN/dnC1EbZwrw/2cIqyNbCDr7Xwvb02cLQ+dnCaJvXwuYO18KSodnC1NnawtJJ&#xD;&#xa;18ISLtjC90nawoel2cIwl9jCi0XZwih328Ks7NjC5KzZwqui2cJw0tjCukLYws+O2MJaqtrCUuXa&#xD;&#xa;wviX2MIKxtfCnqXXwhjI2MJwAtvCIFvcwgCL2cJ0/djCdyXawh9H2cJ+ntfCy4TXwhqF2MJ68NnC&#xD;&#xa;CzvYwljT2cIkP9vCIs/bwjpB2sK2A9rCXt/awjZH2sIfltvCKWPcwjp53MKrGd3CaBPewj/03MJm&#xD;&#xa;U97CphfgwlJp3cKQpt3Crxjewm7d28Kq/9vCNNXcwqY728IUH9vCkirbwgIt28KK19zCjmzdwoBH&#xD;&#xa;3MIAUtvCUq3bwo8f28Ig09jCiyfZwhbx2sLWe9zCvgzbwmwI2sI2nNvC0lvdwg6128I8PNvCLufa&#xD;&#xa;wkyK28KkitzCJIDcwmAO28L0TNrCDHXawjla28IQkdzCoCDcwjRI3MJVUdvCtujZwnCs2sK8Yd3C&#xD;&#xa;iGbbwuSB2cImFNvCCI7rwoA/l8JLuYTCrOB9wgsMfMJoG4LCaWeFwkohjMJdoYvCYv6LwlnvjcKf&#xD;&#xa;nYzChXWPwlcejsL6fo/C5OmQwgVTj8IVMI/COiWRwoWFkcJ2tYzC8I6MwuQbjcJvEo/ClwGRwheQ&#xD;&#xa;lsK8+pbCN5qVwlielcJ905rCmu+fwst0ncIC/JvCdIWdws3snsKxC5zCfh2cwniFnMJRypzCtRag&#xD;&#xa;wuoCosJQt6DCzoegwhY9ocIWN6PCsNqkwrSlpMJ6maTCYpCkwmLvo8Li+KPCyEamwnBNqMLMcqrC&#xD;&#xa;v2GswoS+q8Kk86vCVACuwnvUr8JxZa/CqHqswrdXq8LqT6zCZsuswhZxrMLBX67CnmqvwpYyrsKc&#xD;&#xa;pq3CJFGvwghrsMK3y6/CXoCtwmWZr8ICi7DCgRezwogSs8Joq7LCm0Sxwuz/scIfibTCOOK1wlIM&#xD;&#xa;t8K87LfCj3K3wqDYs8KT1bLCVsW0wnZ0tcJGhLXCfPe0ws/ntcLGXrbCzAG1wtXdtcKxxrTC1Ay1&#xD;&#xa;wquGtcLjELbC8Zi2wl7rtsJBYbbCMF+1wrEutMKuibTCSFa1wpvktMIu3rTCtGe4wjaduMIKErfC&#xD;&#xa;SLa1wvS/tsJmZrjCdn63whjft8Ie47rCfdi5wmjpt8KKCLjCXmC5wsOQt8JDGbfCK4m4wmpvuMLL&#xD;&#xa;nLjC80q4wjUVusKunLjC1Be5wg4cuMLxCbjCwfW4wmi7ucIOdbvCbLG6whqdusKYErrCbpC4wmq0&#xD;&#xa;ucIoWrvCaNe6ws4iu8LSc7zCUNa7wuJZvMIwLL3CWe28wps2v8J2l77Cv3W+wvgavsKAwrzCQCy8&#xD;&#xa;wgBRu8Km8brChSa6wuM4u8IaaL3Cf5y9wg4hvMLur7vCIpO9wm0fvcIGNLzC7Le8wvKgvMKQrLzC&#xD;&#xa;p6+9wtYtvsJcxbzCQC29wjDqvcKeNbzCH2W8wpbZvsLCTL7CnjO+wuIsvsJs67vCwLq9wiKhvsLs&#xD;&#xa;o73C5Du9wqqhvcLwKr7C2kq/wqEMv8LVCb7Cpla+wsXpvMIs6bvC/fO8wueCvsIM4b3CxtC+wmTo&#xD;&#xa;vcI+arzCTNe8wiFNv8IvKL/Cpg+/woK1v8L4i7/CNv2+wmsVv8KWj77CVym+wnAlv8Joa8DCFDzA&#xD;&#xa;wiQYwcLSIcHCxILAwuxKvsJYm77CPoHAwiYPwcLuy77CcQa+wrB4vcKwYLzCxKW8worIvcIlzr/C&#xD;&#xa;OMC+wuRDvcJGZ7zCxFi9wuQzvMLPbbvCwIe+wm7bvcLm9L3COH6+wuuJvMK2B73CYb+9wqbxvMK/&#xD;&#xa;mL7CqIe9wvCavMKs7L3Ckau8wkpavMKt9LzCF8S+wmgKvsKCy73ClrG+wmIovcIns73Cmg+/wgw7&#xD;&#xa;wMI607/CpEq/wmwVvcJLsLvCMD68wuxdvcIeI7/C+bS+wpxfvsJyxsDC1tO/wmtrv8LNnb/CQiK+&#xD;&#xa;wlz7vcLa6L/CUMXBwtrQwcIAw8HCNJHBwvphwMKqc7/CSkW/wjkvwMK8ccHCHmDBwlKAwcKu+MDC&#xD;&#xa;zErCwuqgwsLa+MLC753DwmjuxcLEWMfCkePFwo47xsKnX8XC7tTCwuf3wsL+HcLCTcTBwmg6w8Is&#xD;&#xa;RMPC+qjDwiyGxMLi58TCnWvFwpjsxsKzCMbCyCTDwpM2wcJWGMPCvuDFwh42xsIfyMTCeLTFwuH7&#xD;&#xa;xMJctcfCVv3HwpTGx8J8b8jCqhjHwrgkx8LXNsfCZkLGwnxSxcL8csXCbu7FwsaQyMLa68fCo0XH&#xD;&#xa;woruxMJGHsbCORbJwry2yMLIUsfCxlfGwmLoxcLSPMnCYPDJwkw3yMKc7crC8vDLwug2y8Lu28vC&#xD;&#xa;OKvMwvLpysKGj8rCtNXLwrMay8KdGMrCUr3JwgIVy8J64MvCkbTJwjh4x8JGI8bCvBXHwnoPycKN&#xD;&#xa;Ss3CuC/Nwuywy8IkJ8zCx9/KwnB5ycKnk8nCenLJwnN6ycKc+sjCLFzJwuTrzMJkJM/CY5vOwoYO&#xD;&#xa;zsLU987CVKfNwiZZzcJQxNDCICHVwi0d18Kc29jCIF/YwtKo2MKeBNvCwpTawmY/2sJXPdvCZZXY&#xD;&#xa;whB818IQNdjCDF3XwtWC1sIGF9fCfFfXwkBy2MJ6+9nC1hfZwi5k2cJlfNjCnEPYwm/N1cKGOdXC&#xD;&#xa;Yk/XwgXL2MJSytfCgpTWwqTT1sJOGtnCrF/ZwtcT2cK08NjCscHZwpQ72sLJ/NrCy3zYwmCk18LE&#xD;&#xa;O9fC6hbYwtYU2cJN/dnC1EbZwrw/2cIqyNbCDr7Xwvb02cLQ+dnCaJvXwuYO18KSodnC1NnawtJJ&#xD;&#xa;18ISLtjC90nawoel2cIwl9jCi0XZwih328Ks7NjC5KzZwqui2cJw0tjCukLYws+O2MJaqtrCUuXa&#xD;&#xa;wviX2MIKxtfCnqXXwhjI2MJwAtvCIFvcwgCL2cJ0/djCdyXawh9H2cJ+ntfCy4TXwhqF2MJ68NnC&#xD;&#xa;CzvYwljT2cIkP9vCIs/bwjpB2sK2A9rCXt/awjZH2sIfltvCKWPcwjp53MKrGd3CaBPewj/03MJm&#xD;&#xa;U97CphfgwlJp3cKQpt3Crxjewm7d28Kq/9vCNNXcwqY728IUH9vCkirbwgIt28KK19zCjmzdwoBH&#xD;&#xa;3MIAUtvCUq3bwo8f28Ig09jCiyfZwhbx2sLWe9zCvgzbwmwI2sI2nNvC0lvdwg6128I8PNvCLufa&#xD;&#xa;wkyK28KkitzCJIDcwmAO28L0TNrCDHXawjla28IQkdzCoCDcwjRI3MJVUdvCtujZwnCs2sK8Yd3C&#xD;&#xa;iGbbwuSB2cImFNvCCI7r" leadInLength="0/1"  />
            </Keyframes>
           </Parameter>
           </Parameters>
          </GenericEffect>
          <GenericEffect id="7260" name = "Declipper" >
           <Parameters>
           <InterpolatingParam id="7261" interp="linr"  time="0/1" value="-1" leadInLength="0/1"   name="sensitivity"/>
           </Parameters>
          </GenericEffect>
          <GenericEffect id="7262" name = "Declicker" >
           <Parameters>
           <InterpolatingParam id="7263" interp="linr"  time="0/1" value="3" leadInLength="0/1"   name="sensitivity"/>
           </Parameters>
          </GenericEffect>
         </Effects>
         <Attributes>
          <Attribute id="7264" value="" name="ident"/>
          <Attribute id="7265" value="0" name="mixToMono"/>
         </Attributes>
         <MetaData>
          <entry key="WinSubProjectDisplayName" val=""/>
         </MetaData>
         <ExtraData>
          <Entry key="ZoomPanBin">
           <ZoomPanBin id="7266"  >
            <ZoomPanKeyframes>
            </ZoomPanKeyframes>
           </ZoomPanBin>
          </Entry>
          <Entry key="CursorEffectBin">
           <CursorEffectBin id="7267"  >
            <CursorEffectKeyframes>
            </CursorEffectKeyframes>
           </CursorEffectBin>
          </Entry>
         </ExtraData>
         <GenericTrack id="7268"  >
          <Attributes>
           <Attribute id="7269" value="" name="ident"/>
           <Attribute id="7270" value="0" name="audioMuted"/>
           <Attribute id="7271" value="0" name="videoHidden"/>
          </Attributes>
          <MetaData>
           <entry key="IsLocked" val="False"/>
           <entry key="WinTrackHeight" val="0"/>
          </MetaData>
          <Medias>
           <AMFile id="7272" start="0" duration="117" scalar="1/1" mediaStart="0/1" mediaDuration="117/1" trackNumber="0" src="29" channelNumber="0" >
            <Parameters>
             <InterpolatingParam id="7273" interp="linr"  time="0/1" value="1" leadInLength="0/1"  name="volume"/>
             <Parameter id="7274"  name="captions"/>
            </Parameters>
            <Attributes>
             <Attribute id="7275" value="" name="ident"/>
             <Attribute id="7276" value="48000" name="sampleRate"/>
             <Attribute id="7277" value="16" name="bitDepth"/>
             <Attribute id="7278" value="1" name="gain"/>
             <Attribute id="7279" value="0" name="mixToMono"/>
            </Attributes>
            <MetaData>
             <entry key="WinSubProjectDisplayName" val=""/>
            </MetaData>
           </AMFile>
           <AMFile id="7280" start="117" duration="272" scalar="1/1" mediaStart="131/1" mediaDuration="272/1" trackNumber="0" src="29" channelNumber="0" >
            <Parameters>
             <InterpolatingParam id="7281" interp="linr"  time="0/1" value="1" leadInLength="0/1"  name="volume"/>
             <Parameter id="7282"  name="captions"/>
            </Parameters>
            <Attributes>
             <Attribute id="7283" value="" name="ident"/>
             <Attribute id="7284" value="48000" name="sampleRate"/>
             <Attribute id="7285" value="16" name="bitDepth"/>
             <Attribute id="7286" value="1" name="gain"/>
             <Attribute id="7287" value="0" name="mixToMono"/>
            </Attributes>
            <MetaData>
             <entry key="WinSubProjectDisplayName" val=""/>
            </MetaData>
           </AMFile>
           <AMFile id="7288" start="389" duration="13231" scalar="1/1" mediaStart="415/1" mediaDuration="13231/1" trackNumber="0" src="29" channelNumber="0" >
            <Parameters>
             <InterpolatingParam id="7289" interp="linr"  time="0/1" value="1" leadInLength="0/1"  name="volume"/>
             <Parameter id="7290"  name="captions"/>
            </Parameters>
            <Attributes>
             <Attribute id="7291" value="" name="ident"/>
             <Attribute id="7292" value="48000" name="sampleRate"/>
             <Attribute id="7293" value="16" name="bitDepth"/>
             <Attribute id="7294" value="1" name="gain"/>
             <Attribute id="7295" value="0" name="mixToMono"/>
            </Attributes>
            <MetaData>
             <entry key="WinSubProjectDisplayName" val=""/>
            </MetaData>
           </AMFile>
          </Medias>
         </GenericTrack>
        </StitchedMedia>
        <StitchedMedia id="7296" start="1000" duration="21" scalar="1/1" mediaStart="1385/1" mediaDuration="21/1" minMediaStart="0/1" >
         <Transformer>
          <VectorParam id="7297"  name="translation">
           <InterpolatingParam id="7298" interp="linr"  time="0/1" value="0" leadInLength="0/1"  />
           <InterpolatingParam id="7299" interp="linr"  time="0/1" value="0" leadInLength="0/1"  />
           <InterpolatingParam id="7300" interp="linr"  time="0/1" value="0" leadInLength="0/1"  />
          </VectorParam>
          <VectorParam id="7301"  name="rotation">
           <InterpolatingParam id="7302" interp="linr"  time="0/1" value="0" leadInLength="0/1"  />
           <InterpolatingParam id="7303" interp="linr"  time="0/1" value="0" leadInLength="0/1"  />
           <InterpolatingParam id="7304" interp="linr"  time="0/1" value="0" leadInLength="0/1"  />
          </VectorParam>
          <VectorParam id="7305"  name="shear">
           <InterpolatingParam id="7306" interp="linr"  time="0/1" value="0" leadInLength="0/1"  />
           <InterpolatingParam id="7307" interp="linr"  time="0/1" value="0" leadInLength="0/1"  />
           <InterpolatingParam id="7308" interp="linr"  time="0/1" value="0" leadInLength="0/1"  />
          </VectorParam>
          <VectorParam id="7309"  name="scale">
           <InterpolatingParam id="7310" interp="linr"  time="0/1" value="1" leadInLength="0/1"  />
           <InterpolatingParam id="7311" interp="linr"  time="0/1" value="1" leadInLength="0/1"  />
           <InterpolatingParam id="7312" interp="linr"  time="0/1" value="1" leadInLength="0/1"  />
          </VectorParam>
          <VectorParam id="7313"  name="anchor">
           <InterpolatingParam id="7314" interp="linr"  time="0/1" value="0" leadInLength="0/1"  />
           <InterpolatingParam id="7315" interp="linr"  time="0/1" value="0" leadInLength="0/1"  />
           <InterpolatingParam id="7316" interp="linr"  time="0/1" value="0" leadInLength="0/1"  />
          </VectorParam>
         </Transformer>
         <Parameters>
          <InterpolatingParam id="7317" interp="linr"  time="0/1" value="1" leadInLength="0/1"  name="cursorOpacity"/>
          <InterpolatingParam id="7318" interp="linr"  time="0/1" value="1" leadInLength="0/1"  name="cursorScale"/>
          <InterpolatingParam id="7319" interp="linr"  time="0/1" value="1.5625" leadInLength="0/1"  name="volume"/>
          <Parameter id="7320"  name="captions"/>
         </Parameters>
         <Effects>
          <GenericEffect id="7321" name = "WinCompression" >
           <Parameters>
           <InterpolatingParam id="7322" interp="linr"  time="0/1" value="0" leadInLength="0/1"   name="attack"/>
           <InterpolatingParam id="7323" interp="linr"  time="0/1" value="9" leadInLength="0/1"   name="gain"/>
           <Parameter id="7324"   name="preset">
            <Keyframes>
            <Keyframe id="7325"  time="0/1" value="1" leadInLength="0/1"  />
            </Keyframes>
           </Parameter>
           <InterpolatingParam id="7326" interp="linr"  time="0/1" value="10" leadInLength="0/1"   name="ratio"/>
           <InterpolatingParam id="7327" interp="linr"  time="0/1" value="3500" leadInLength="0/1"   name="release"/>
           <InterpolatingParam id="7328" interp="linr"  time="0/1" value="-20" leadInLength="0/1"   name="threshold"/>
           </Parameters>
          </GenericEffect>
          <GenericEffect id="7329" name = "NoiseReduction" >
           <Parameters>
           <InterpolatingParam id="7330" interp="linr"  time="0/1" value="20" leadInLength="0/1"   name="denoiserAmount"/>
           <InterpolatingParam id="7331" interp="linr"  time="0/1" value="0" leadInLength="0/1"   name="denoiserThreshold"/>
           <Parameter id="7332"   name="noiseProfile">
            <Keyframes>
            <Keyframe id="7333"  time="0/1" value="FBAAAAIAAABErAAAAQIAAIA/l8JLuYTCrOB9wgsMfMJoG4LCaWeFwkohjMJdoYvCYv6LwlnvjcKf&#xD;&#xa;nYzChXWPwlcejsL6fo/C5OmQwgVTj8IVMI/COiWRwoWFkcJ2tYzC8I6MwuQbjcJvEo/ClwGRwheQ&#xD;&#xa;lsK8+pbCN5qVwlielcJ905rCmu+fwst0ncIC/JvCdIWdws3snsKxC5zCfh2cwniFnMJRypzCtRag&#xD;&#xa;wuoCosJQt6DCzoegwhY9ocIWN6PCsNqkwrSlpMJ6maTCYpCkwmLvo8Li+KPCyEamwnBNqMLMcqrC&#xD;&#xa;v2GswoS+q8Kk86vCVACuwnvUr8JxZa/CqHqswrdXq8LqT6zCZsuswhZxrMLBX67CnmqvwpYyrsKc&#xD;&#xa;pq3CJFGvwghrsMK3y6/CXoCtwmWZr8ICi7DCgRezwogSs8Joq7LCm0Sxwuz/scIfibTCOOK1wlIM&#xD;&#xa;t8K87LfCj3K3wqDYs8KT1bLCVsW0wnZ0tcJGhLXCfPe0ws/ntcLGXrbCzAG1wtXdtcKxxrTC1Ay1&#xD;&#xa;wquGtcLjELbC8Zi2wl7rtsJBYbbCMF+1wrEutMKuibTCSFa1wpvktMIu3rTCtGe4wjaduMIKErfC&#xD;&#xa;SLa1wvS/tsJmZrjCdn63whjft8Ie47rCfdi5wmjpt8KKCLjCXmC5wsOQt8JDGbfCK4m4wmpvuMLL&#xD;&#xa;nLjC80q4wjUVusKunLjC1Be5wg4cuMLxCbjCwfW4wmi7ucIOdbvCbLG6whqdusKYErrCbpC4wmq0&#xD;&#xa;ucIoWrvCaNe6ws4iu8LSc7zCUNa7wuJZvMIwLL3CWe28wps2v8J2l77Cv3W+wvgavsKAwrzCQCy8&#xD;&#xa;wgBRu8Km8brChSa6wuM4u8IaaL3Cf5y9wg4hvMLur7vCIpO9wm0fvcIGNLzC7Le8wvKgvMKQrLzC&#xD;&#xa;p6+9wtYtvsJcxbzCQC29wjDqvcKeNbzCH2W8wpbZvsLCTL7CnjO+wuIsvsJs67vCwLq9wiKhvsLs&#xD;&#xa;o73C5Du9wqqhvcLwKr7C2kq/wqEMv8LVCb7Cpla+wsXpvMIs6bvC/fO8wueCvsIM4b3CxtC+wmTo&#xD;&#xa;vcI+arzCTNe8wiFNv8IvKL/Cpg+/woK1v8L4i7/CNv2+wmsVv8KWj77CVym+wnAlv8Joa8DCFDzA&#xD;&#xa;wiQYwcLSIcHCxILAwuxKvsJYm77CPoHAwiYPwcLuy77CcQa+wrB4vcKwYLzCxKW8worIvcIlzr/C&#xD;&#xa;OMC+wuRDvcJGZ7zCxFi9wuQzvMLPbbvCwIe+wm7bvcLm9L3COH6+wuuJvMK2B73CYb+9wqbxvMK/&#xD;&#xa;mL7CqIe9wvCavMKs7L3Ckau8wkpavMKt9LzCF8S+wmgKvsKCy73ClrG+wmIovcIns73Cmg+/wgw7&#xD;&#xa;wMI607/CpEq/wmwVvcJLsLvCMD68wuxdvcIeI7/C+bS+wpxfvsJyxsDC1tO/wmtrv8LNnb/CQiK+&#xD;&#xa;wlz7vcLa6L/CUMXBwtrQwcIAw8HCNJHBwvphwMKqc7/CSkW/wjkvwMK8ccHCHmDBwlKAwcKu+MDC&#xD;&#xa;zErCwuqgwsLa+MLC753DwmjuxcLEWMfCkePFwo47xsKnX8XC7tTCwuf3wsL+HcLCTcTBwmg6w8Is&#xD;&#xa;RMPC+qjDwiyGxMLi58TCnWvFwpjsxsKzCMbCyCTDwpM2wcJWGMPCvuDFwh42xsIfyMTCeLTFwuH7&#xD;&#xa;xMJctcfCVv3HwpTGx8J8b8jCqhjHwrgkx8LXNsfCZkLGwnxSxcL8csXCbu7FwsaQyMLa68fCo0XH&#xD;&#xa;woruxMJGHsbCORbJwry2yMLIUsfCxlfGwmLoxcLSPMnCYPDJwkw3yMKc7crC8vDLwug2y8Lu28vC&#xD;&#xa;OKvMwvLpysKGj8rCtNXLwrMay8KdGMrCUr3JwgIVy8J64MvCkbTJwjh4x8JGI8bCvBXHwnoPycKN&#xD;&#xa;Ss3CuC/Nwuywy8IkJ8zCx9/KwnB5ycKnk8nCenLJwnN6ycKc+sjCLFzJwuTrzMJkJM/CY5vOwoYO&#xD;&#xa;zsLU987CVKfNwiZZzcJQxNDCICHVwi0d18Kc29jCIF/YwtKo2MKeBNvCwpTawmY/2sJXPdvCZZXY&#xD;&#xa;whB818IQNdjCDF3XwtWC1sIGF9fCfFfXwkBy2MJ6+9nC1hfZwi5k2cJlfNjCnEPYwm/N1cKGOdXC&#xD;&#xa;Yk/XwgXL2MJSytfCgpTWwqTT1sJOGtnCrF/ZwtcT2cK08NjCscHZwpQ72sLJ/NrCy3zYwmCk18LE&#xD;&#xa;O9fC6hbYwtYU2cJN/dnC1EbZwrw/2cIqyNbCDr7Xwvb02cLQ+dnCaJvXwuYO18KSodnC1NnawtJJ&#xD;&#xa;18ISLtjC90nawoel2cIwl9jCi0XZwih328Ks7NjC5KzZwqui2cJw0tjCukLYws+O2MJaqtrCUuXa&#xD;&#xa;wviX2MIKxtfCnqXXwhjI2MJwAtvCIFvcwgCL2cJ0/djCdyXawh9H2cJ+ntfCy4TXwhqF2MJ68NnC&#xD;&#xa;CzvYwljT2cIkP9vCIs/bwjpB2sK2A9rCXt/awjZH2sIfltvCKWPcwjp53MKrGd3CaBPewj/03MJm&#xD;&#xa;U97CphfgwlJp3cKQpt3Crxjewm7d28Kq/9vCNNXcwqY728IUH9vCkirbwgIt28KK19zCjmzdwoBH&#xD;&#xa;3MIAUtvCUq3bwo8f28Ig09jCiyfZwhbx2sLWe9zCvgzbwmwI2sI2nNvC0lvdwg6128I8PNvCLufa&#xD;&#xa;wkyK28KkitzCJIDcwmAO28L0TNrCDHXawjla28IQkdzCoCDcwjRI3MJVUdvCtujZwnCs2sK8Yd3C&#xD;&#xa;iGbbwuSB2cImFNvCCI7rwoA/l8JLuYTCrOB9wgsMfMJoG4LCaWeFwkohjMJdoYvCYv6LwlnvjcKf&#xD;&#xa;nYzChXWPwlcejsL6fo/C5OmQwgVTj8IVMI/COiWRwoWFkcJ2tYzC8I6MwuQbjcJvEo/ClwGRwheQ&#xD;&#xa;lsK8+pbCN5qVwlielcJ905rCmu+fwst0ncIC/JvCdIWdws3snsKxC5zCfh2cwniFnMJRypzCtRag&#xD;&#xa;wuoCosJQt6DCzoegwhY9ocIWN6PCsNqkwrSlpMJ6maTCYpCkwmLvo8Li+KPCyEamwnBNqMLMcqrC&#xD;&#xa;v2GswoS+q8Kk86vCVACuwnvUr8JxZa/CqHqswrdXq8LqT6zCZsuswhZxrMLBX67CnmqvwpYyrsKc&#xD;&#xa;pq3CJFGvwghrsMK3y6/CXoCtwmWZr8ICi7DCgRezwogSs8Joq7LCm0Sxwuz/scIfibTCOOK1wlIM&#xD;&#xa;t8K87LfCj3K3wqDYs8KT1bLCVsW0wnZ0tcJGhLXCfPe0ws/ntcLGXrbCzAG1wtXdtcKxxrTC1Ay1&#xD;&#xa;wquGtcLjELbC8Zi2wl7rtsJBYbbCMF+1wrEutMKuibTCSFa1wpvktMIu3rTCtGe4wjaduMIKErfC&#xD;&#xa;SLa1wvS/tsJmZrjCdn63whjft8Ie47rCfdi5wmjpt8KKCLjCXmC5wsOQt8JDGbfCK4m4wmpvuMLL&#xD;&#xa;nLjC80q4wjUVusKunLjC1Be5wg4cuMLxCbjCwfW4wmi7ucIOdbvCbLG6whqdusKYErrCbpC4wmq0&#xD;&#xa;ucIoWrvCaNe6ws4iu8LSc7zCUNa7wuJZvMIwLL3CWe28wps2v8J2l77Cv3W+wvgavsKAwrzCQCy8&#xD;&#xa;wgBRu8Km8brChSa6wuM4u8IaaL3Cf5y9wg4hvMLur7vCIpO9wm0fvcIGNLzC7Le8wvKgvMKQrLzC&#xD;&#xa;p6+9wtYtvsJcxbzCQC29wjDqvcKeNbzCH2W8wpbZvsLCTL7CnjO+wuIsvsJs67vCwLq9wiKhvsLs&#xD;&#xa;o73C5Du9wqqhvcLwKr7C2kq/wqEMv8LVCb7Cpla+wsXpvMIs6bvC/fO8wueCvsIM4b3CxtC+wmTo&#xD;&#xa;vcI+arzCTNe8wiFNv8IvKL/Cpg+/woK1v8L4i7/CNv2+wmsVv8KWj77CVym+wnAlv8Joa8DCFDzA&#xD;&#xa;wiQYwcLSIcHCxILAwuxKvsJYm77CPoHAwiYPwcLuy77CcQa+wrB4vcKwYLzCxKW8worIvcIlzr/C&#xD;&#xa;OMC+wuRDvcJGZ7zCxFi9wuQzvMLPbbvCwIe+wm7bvcLm9L3COH6+wuuJvMK2B73CYb+9wqbxvMK/&#xD;&#xa;mL7CqIe9wvCavMKs7L3Ckau8wkpavMKt9LzCF8S+wmgKvsKCy73ClrG+wmIovcIns73Cmg+/wgw7&#xD;&#xa;wMI607/CpEq/wmwVvcJLsLvCMD68wuxdvcIeI7/C+bS+wpxfvsJyxsDC1tO/wmtrv8LNnb/CQiK+&#xD;&#xa;wlz7vcLa6L/CUMXBwtrQwcIAw8HCNJHBwvphwMKqc7/CSkW/wjkvwMK8ccHCHmDBwlKAwcKu+MDC&#xD;&#xa;zErCwuqgwsLa+MLC753DwmjuxcLEWMfCkePFwo47xsKnX8XC7tTCwuf3wsL+HcLCTcTBwmg6w8Is&#xD;&#xa;RMPC+qjDwiyGxMLi58TCnWvFwpjsxsKzCMbCyCTDwpM2wcJWGMPCvuDFwh42xsIfyMTCeLTFwuH7&#xD;&#xa;xMJctcfCVv3HwpTGx8J8b8jCqhjHwrgkx8LXNsfCZkLGwnxSxcL8csXCbu7FwsaQyMLa68fCo0XH&#xD;&#xa;woruxMJGHsbCORbJwry2yMLIUsfCxlfGwmLoxcLSPMnCYPDJwkw3yMKc7crC8vDLwug2y8Lu28vC&#xD;&#xa;OKvMwvLpysKGj8rCtNXLwrMay8KdGMrCUr3JwgIVy8J64MvCkbTJwjh4x8JGI8bCvBXHwnoPycKN&#xD;&#xa;Ss3CuC/Nwuywy8IkJ8zCx9/KwnB5ycKnk8nCenLJwnN6ycKc+sjCLFzJwuTrzMJkJM/CY5vOwoYO&#xD;&#xa;zsLU987CVKfNwiZZzcJQxNDCICHVwi0d18Kc29jCIF/YwtKo2MKeBNvCwpTawmY/2sJXPdvCZZXY&#xD;&#xa;whB818IQNdjCDF3XwtWC1sIGF9fCfFfXwkBy2MJ6+9nC1hfZwi5k2cJlfNjCnEPYwm/N1cKGOdXC&#xD;&#xa;Yk/XwgXL2MJSytfCgpTWwqTT1sJOGtnCrF/ZwtcT2cK08NjCscHZwpQ72sLJ/NrCy3zYwmCk18LE&#xD;&#xa;O9fC6hbYwtYU2cJN/dnC1EbZwrw/2cIqyNbCDr7Xwvb02cLQ+dnCaJvXwuYO18KSodnC1NnawtJJ&#xD;&#xa;18ISLtjC90nawoel2cIwl9jCi0XZwih328Ks7NjC5KzZwqui2cJw0tjCukLYws+O2MJaqtrCUuXa&#xD;&#xa;wviX2MIKxtfCnqXXwhjI2MJwAtvCIFvcwgCL2cJ0/djCdyXawh9H2cJ+ntfCy4TXwhqF2MJ68NnC&#xD;&#xa;CzvYwljT2cIkP9vCIs/bwjpB2sK2A9rCXt/awjZH2sIfltvCKWPcwjp53MKrGd3CaBPewj/03MJm&#xD;&#xa;U97CphfgwlJp3cKQpt3Crxjewm7d28Kq/9vCNNXcwqY728IUH9vCkirbwgIt28KK19zCjmzdwoBH&#xD;&#xa;3MIAUtvCUq3bwo8f28Ig09jCiyfZwhbx2sLWe9zCvgzbwmwI2sI2nNvC0lvdwg6128I8PNvCLufa&#xD;&#xa;wkyK28KkitzCJIDcwmAO28L0TNrCDHXawjla28IQkdzCoCDcwjRI3MJVUdvCtujZwnCs2sK8Yd3C&#xD;&#xa;iGbbwuSB2cImFNvCCI7r" leadInLength="0/1"  />
            </Keyframes>
           </Parameter>
           </Parameters>
          </GenericEffect>
          <GenericEffect id="7334" name = "Declipper" >
           <Parameters>
           <InterpolatingParam id="7335" interp="linr"  time="0/1" value="-1" leadInLength="0/1"   name="sensitivity"/>
           </Parameters>
          </GenericEffect>
          <GenericEffect id="7336" name = "Declicker" >
           <Parameters>
           <InterpolatingParam id="7337" interp="linr"  time="0/1" value="3" leadInLength="0/1"   name="sensitivity"/>
           </Parameters>
          </GenericEffect>
         </Effects>
         <Attributes>
          <Attribute id="7338" value="" name="ident"/>
          <Attribute id="7339" value="0" name="mixToMono"/>
         </Attributes>
         <MetaData>
          <entry key="WinSubProjectDisplayName" val=""/>
         </MetaData>
         <ExtraData>
          <Entry key="ZoomPanBin">
           <ZoomPanBin id="7340"  >
            <ZoomPanKeyframes>
            </ZoomPanKeyframes>
           </ZoomPanBin>
          </Entry>
          <Entry key="CursorEffectBin">
           <CursorEffectBin id="7341"  >
            <CursorEffectKeyframes>
            </CursorEffectKeyframes>
           </CursorEffectBin>
          </Entry>
         </ExtraData>
         <GenericTrack id="7342"  >
          <Attributes>
           <Attribute id="7343" value="" name="ident"/>
           <Attribute id="7344" value="0" name="audioMuted"/>
           <Attribute id="7345" value="0" name="videoHidden"/>
          </Attributes>
          <MetaData>
           <entry key="IsLocked" val="False"/>
           <entry key="WinTrackHeight" val="0"/>
          </MetaData>
          <Medias>
           <AMFile id="7346" start="0" duration="117" scalar="1/1" mediaStart="0/1" mediaDuration="117/1" trackNumber="0" src="29" channelNumber="0" >
            <Parameters>
             <InterpolatingParam id="7347" interp="linr"  time="0/1" value="1" leadInLength="0/1"  name="volume"/>
             <Parameter id="7348"  name="captions"/>
            </Parameters>
            <Attributes>
             <Attribute id="7349" value="" name="ident"/>
             <Attribute id="7350" value="48000" name="sampleRate"/>
             <Attribute id="7351" value="16" name="bitDepth"/>
             <Attribute id="7352" value="1" name="gain"/>
             <Attribute id="7353" value="0" name="mixToMono"/>
            </Attributes>
            <MetaData>
             <entry key="WinSubProjectDisplayName" val=""/>
            </MetaData>
           </AMFile>
           <AMFile id="7354" start="117" duration="272" scalar="1/1" mediaStart="131/1" mediaDuration="272/1" trackNumber="0" src="29" channelNumber="0" >
            <Parameters>
             <InterpolatingParam id="7355" interp="linr"  time="0/1" value="1" leadInLength="0/1"  name="volume"/>
             <Parameter id="7356"  name="captions"/>
            </Parameters>
            <Attributes>
             <Attribute id="7357" value="" name="ident"/>
             <Attribute id="7358" value="48000" name="sampleRate"/>
             <Attribute id="7359" value="16" name="bitDepth"/>
             <Attribute id="7360" value="1" name="gain"/>
             <Attribute id="7361" value="0" name="mixToMono"/>
            </Attributes>
            <MetaData>
             <entry key="WinSubProjectDisplayName" val=""/>
            </MetaData>
           </AMFile>
           <AMFile id="7362" start="389" duration="13231" scalar="1/1" mediaStart="415/1" mediaDuration="13231/1" trackNumber="0" src="29" channelNumber="0" >
            <Parameters>
             <InterpolatingParam id="7363" interp="linr"  time="0/1" value="1" leadInLength="0/1"  name="volume"/>
             <Parameter id="7364"  name="captions"/>
            </Parameters>
            <Attributes>
             <Attribute id="7365" value="" name="ident"/>
             <Attribute id="7366" value="48000" name="sampleRate"/>
             <Attribute id="7367" value="16" name="bitDepth"/>
             <Attribute id="7368" value="1" name="gain"/>
             <Attribute id="7369" value="0" name="mixToMono"/>
            </Attributes>
            <MetaData>
             <entry key="WinSubProjectDisplayName" val=""/>
            </MetaData>
           </AMFile>
          </Medias>
         </GenericTrack>
        </StitchedMedia>
        <StitchedMedia id="7370" start="1037" duration="817" scalar="1/1" mediaStart="1431/1" mediaDuration="817/1" minMediaStart="0/1" >
         <Transformer>
          <VectorParam id="7371"  name="translation">
           <InterpolatingParam id="7372" interp="linr"  time="0/1" value="0" leadInLength="0/1"  />
           <InterpolatingParam id="7373" interp="linr"  time="0/1" value="0" leadInLength="0/1"  />
           <InterpolatingParam id="7374" interp="linr"  time="0/1" value="0" leadInLength="0/1"  />
          </VectorParam>
          <VectorParam id="7375"  name="rotation">
           <InterpolatingParam id="7376" interp="linr"  time="0/1" value="0" leadInLength="0/1"  />
           <InterpolatingParam id="7377" interp="linr"  time="0/1" value="0" leadInLength="0/1"  />
           <InterpolatingParam id="7378" interp="linr"  time="0/1" value="0" leadInLength="0/1"  />
          </VectorParam>
          <VectorParam id="7379"  name="shear">
           <InterpolatingParam id="7380" interp="linr"  time="0/1" value="0" leadInLength="0/1"  />
           <InterpolatingParam id="7381" interp="linr"  time="0/1" value="0" leadInLength="0/1"  />
           <InterpolatingParam id="7382" interp="linr"  time="0/1" value="0" leadInLength="0/1"  />
          </VectorParam>
          <VectorParam id="7383"  name="scale">
           <InterpolatingParam id="7384" interp="linr"  time="0/1" value="1" leadInLength="0/1"  />
           <InterpolatingParam id="7385" interp="linr"  time="0/1" value="1" leadInLength="0/1"  />
           <InterpolatingParam id="7386" interp="linr"  time="0/1" value="1" leadInLength="0/1"  />
          </VectorParam>
          <VectorParam id="7387"  name="anchor">
           <InterpolatingParam id="7388" interp="linr"  time="0/1" value="0" leadInLength="0/1"  />
           <InterpolatingParam id="7389" interp="linr"  time="0/1" value="0" leadInLength="0/1"  />
           <InterpolatingParam id="7390" interp="linr"  time="0/1" value="0" leadInLength="0/1"  />
          </VectorParam>
         </Transformer>
         <Parameters>
          <InterpolatingParam id="7391" interp="linr"  time="0/1" value="1" leadInLength="0/1"  name="cursorOpacity"/>
          <InterpolatingParam id="7392" interp="linr"  time="0/1" value="1" leadInLength="0/1"  name="cursorScale"/>
          <InterpolatingParam id="7393" interp="linr"  time="0/1" value="1.5625" leadInLength="0/1"  name="volume"/>
          <Parameter id="7394"  name="captions"/>
         </Parameters>
         <Effects>
          <GenericEffect id="7395" name = "WinCompression" >
           <Parameters>
           <InterpolatingParam id="7396" interp="linr"  time="0/1" value="0" leadInLength="0/1"   name="attack"/>
           <InterpolatingParam id="7397" interp="linr"  time="0/1" value="9" leadInLength="0/1"   name="gain"/>
           <Parameter id="7398"   name="preset">
            <Keyframes>
            <Keyframe id="7399"  time="0/1" value="1" leadInLength="0/1"  />
            </Keyframes>
           </Parameter>
           <InterpolatingParam id="7400" interp="linr"  time="0/1" value="10" leadInLength="0/1"   name="ratio"/>
           <InterpolatingParam id="7401" interp="linr"  time="0/1" value="3500" leadInLength="0/1"   name="release"/>
           <InterpolatingParam id="7402" interp="linr"  time="0/1" value="-20" leadInLength="0/1"   name="threshold"/>
           </Parameters>
          </GenericEffect>
          <GenericEffect id="7403" name = "NoiseReduction" >
           <Parameters>
           <InterpolatingParam id="7404" interp="linr"  time="0/1" value="20" leadInLength="0/1"   name="denoiserAmount"/>
           <InterpolatingParam id="7405" interp="linr"  time="0/1" value="0" leadInLength="0/1"   name="denoiserThreshold"/>
           <Parameter id="7406"   name="noiseProfile">
            <Keyframes>
            <Keyframe id="7407"  time="0/1" value="FBAAAAIAAABErAAAAQIAAIA/l8JLuYTCrOB9wgsMfMJoG4LCaWeFwkohjMJdoYvCYv6LwlnvjcKf&#xD;&#xa;nYzChXWPwlcejsL6fo/C5OmQwgVTj8IVMI/COiWRwoWFkcJ2tYzC8I6MwuQbjcJvEo/ClwGRwheQ&#xD;&#xa;lsK8+pbCN5qVwlielcJ905rCmu+fwst0ncIC/JvCdIWdws3snsKxC5zCfh2cwniFnMJRypzCtRag&#xD;&#xa;wuoCosJQt6DCzoegwhY9ocIWN6PCsNqkwrSlpMJ6maTCYpCkwmLvo8Li+KPCyEamwnBNqMLMcqrC&#xD;&#xa;v2GswoS+q8Kk86vCVACuwnvUr8JxZa/CqHqswrdXq8LqT6zCZsuswhZxrMLBX67CnmqvwpYyrsKc&#xD;&#xa;pq3CJFGvwghrsMK3y6/CXoCtwmWZr8ICi7DCgRezwogSs8Joq7LCm0Sxwuz/scIfibTCOOK1wlIM&#xD;&#xa;t8K87LfCj3K3wqDYs8KT1bLCVsW0wnZ0tcJGhLXCfPe0ws/ntcLGXrbCzAG1wtXdtcKxxrTC1Ay1&#xD;&#xa;wquGtcLjELbC8Zi2wl7rtsJBYbbCMF+1wrEutMKuibTCSFa1wpvktMIu3rTCtGe4wjaduMIKErfC&#xD;&#xa;SLa1wvS/tsJmZrjCdn63whjft8Ie47rCfdi5wmjpt8KKCLjCXmC5wsOQt8JDGbfCK4m4wmpvuMLL&#xD;&#xa;nLjC80q4wjUVusKunLjC1Be5wg4cuMLxCbjCwfW4wmi7ucIOdbvCbLG6whqdusKYErrCbpC4wmq0&#xD;&#xa;ucIoWrvCaNe6ws4iu8LSc7zCUNa7wuJZvMIwLL3CWe28wps2v8J2l77Cv3W+wvgavsKAwrzCQCy8&#xD;&#xa;wgBRu8Km8brChSa6wuM4u8IaaL3Cf5y9wg4hvMLur7vCIpO9wm0fvcIGNLzC7Le8wvKgvMKQrLzC&#xD;&#xa;p6+9wtYtvsJcxbzCQC29wjDqvcKeNbzCH2W8wpbZvsLCTL7CnjO+wuIsvsJs67vCwLq9wiKhvsLs&#xD;&#xa;o73C5Du9wqqhvcLwKr7C2kq/wqEMv8LVCb7Cpla+wsXpvMIs6bvC/fO8wueCvsIM4b3CxtC+wmTo&#xD;&#xa;vcI+arzCTNe8wiFNv8IvKL/Cpg+/woK1v8L4i7/CNv2+wmsVv8KWj77CVym+wnAlv8Joa8DCFDzA&#xD;&#xa;wiQYwcLSIcHCxILAwuxKvsJYm77CPoHAwiYPwcLuy77CcQa+wrB4vcKwYLzCxKW8worIvcIlzr/C&#xD;&#xa;OMC+wuRDvcJGZ7zCxFi9wuQzvMLPbbvCwIe+wm7bvcLm9L3COH6+wuuJvMK2B73CYb+9wqbxvMK/&#xD;&#xa;mL7CqIe9wvCavMKs7L3Ckau8wkpavMKt9LzCF8S+wmgKvsKCy73ClrG+wmIovcIns73Cmg+/wgw7&#xD;&#xa;wMI607/CpEq/wmwVvcJLsLvCMD68wuxdvcIeI7/C+bS+wpxfvsJyxsDC1tO/wmtrv8LNnb/CQiK+&#xD;&#xa;wlz7vcLa6L/CUMXBwtrQwcIAw8HCNJHBwvphwMKqc7/CSkW/wjkvwMK8ccHCHmDBwlKAwcKu+MDC&#xD;&#xa;zErCwuqgwsLa+MLC753DwmjuxcLEWMfCkePFwo47xsKnX8XC7tTCwuf3wsL+HcLCTcTBwmg6w8Is&#xD;&#xa;RMPC+qjDwiyGxMLi58TCnWvFwpjsxsKzCMbCyCTDwpM2wcJWGMPCvuDFwh42xsIfyMTCeLTFwuH7&#xD;&#xa;xMJctcfCVv3HwpTGx8J8b8jCqhjHwrgkx8LXNsfCZkLGwnxSxcL8csXCbu7FwsaQyMLa68fCo0XH&#xD;&#xa;woruxMJGHsbCORbJwry2yMLIUsfCxlfGwmLoxcLSPMnCYPDJwkw3yMKc7crC8vDLwug2y8Lu28vC&#xD;&#xa;OKvMwvLpysKGj8rCtNXLwrMay8KdGMrCUr3JwgIVy8J64MvCkbTJwjh4x8JGI8bCvBXHwnoPycKN&#xD;&#xa;Ss3CuC/Nwuywy8IkJ8zCx9/KwnB5ycKnk8nCenLJwnN6ycKc+sjCLFzJwuTrzMJkJM/CY5vOwoYO&#xD;&#xa;zsLU987CVKfNwiZZzcJQxNDCICHVwi0d18Kc29jCIF/YwtKo2MKeBNvCwpTawmY/2sJXPdvCZZXY&#xD;&#xa;whB818IQNdjCDF3XwtWC1sIGF9fCfFfXwkBy2MJ6+9nC1hfZwi5k2cJlfNjCnEPYwm/N1cKGOdXC&#xD;&#xa;Yk/XwgXL2MJSytfCgpTWwqTT1sJOGtnCrF/ZwtcT2cK08NjCscHZwpQ72sLJ/NrCy3zYwmCk18LE&#xD;&#xa;O9fC6hbYwtYU2cJN/dnC1EbZwrw/2cIqyNbCDr7Xwvb02cLQ+dnCaJvXwuYO18KSodnC1NnawtJJ&#xD;&#xa;18ISLtjC90nawoel2cIwl9jCi0XZwih328Ks7NjC5KzZwqui2cJw0tjCukLYws+O2MJaqtrCUuXa&#xD;&#xa;wviX2MIKxtfCnqXXwhjI2MJwAtvCIFvcwgCL2cJ0/djCdyXawh9H2cJ+ntfCy4TXwhqF2MJ68NnC&#xD;&#xa;CzvYwljT2cIkP9vCIs/bwjpB2sK2A9rCXt/awjZH2sIfltvCKWPcwjp53MKrGd3CaBPewj/03MJm&#xD;&#xa;U97CphfgwlJp3cKQpt3Crxjewm7d28Kq/9vCNNXcwqY728IUH9vCkirbwgIt28KK19zCjmzdwoBH&#xD;&#xa;3MIAUtvCUq3bwo8f28Ig09jCiyfZwhbx2sLWe9zCvgzbwmwI2sI2nNvC0lvdwg6128I8PNvCLufa&#xD;&#xa;wkyK28KkitzCJIDcwmAO28L0TNrCDHXawjla28IQkdzCoCDcwjRI3MJVUdvCtujZwnCs2sK8Yd3C&#xD;&#xa;iGbbwuSB2cImFNvCCI7rwoA/l8JLuYTCrOB9wgsMfMJoG4LCaWeFwkohjMJdoYvCYv6LwlnvjcKf&#xD;&#xa;nYzChXWPwlcejsL6fo/C5OmQwgVTj8IVMI/COiWRwoWFkcJ2tYzC8I6MwuQbjcJvEo/ClwGRwheQ&#xD;&#xa;lsK8+pbCN5qVwlielcJ905rCmu+fwst0ncIC/JvCdIWdws3snsKxC5zCfh2cwniFnMJRypzCtRag&#xD;&#xa;wuoCosJQt6DCzoegwhY9ocIWN6PCsNqkwrSlpMJ6maTCYpCkwmLvo8Li+KPCyEamwnBNqMLMcqrC&#xD;&#xa;v2GswoS+q8Kk86vCVACuwnvUr8JxZa/CqHqswrdXq8LqT6zCZsuswhZxrMLBX67CnmqvwpYyrsKc&#xD;&#xa;pq3CJFGvwghrsMK3y6/CXoCtwmWZr8ICi7DCgRezwogSs8Joq7LCm0Sxwuz/scIfibTCOOK1wlIM&#xD;&#xa;t8K87LfCj3K3wqDYs8KT1bLCVsW0wnZ0tcJGhLXCfPe0ws/ntcLGXrbCzAG1wtXdtcKxxrTC1Ay1&#xD;&#xa;wquGtcLjELbC8Zi2wl7rtsJBYbbCMF+1wrEutMKuibTCSFa1wpvktMIu3rTCtGe4wjaduMIKErfC&#xD;&#xa;SLa1wvS/tsJmZrjCdn63whjft8Ie47rCfdi5wmjpt8KKCLjCXmC5wsOQt8JDGbfCK4m4wmpvuMLL&#xD;&#xa;nLjC80q4wjUVusKunLjC1Be5wg4cuMLxCbjCwfW4wmi7ucIOdbvCbLG6whqdusKYErrCbpC4wmq0&#xD;&#xa;ucIoWrvCaNe6ws4iu8LSc7zCUNa7wuJZvMIwLL3CWe28wps2v8J2l77Cv3W+wvgavsKAwrzCQCy8&#xD;&#xa;wgBRu8Km8brChSa6wuM4u8IaaL3Cf5y9wg4hvMLur7vCIpO9wm0fvcIGNLzC7Le8wvKgvMKQrLzC&#xD;&#xa;p6+9wtYtvsJcxbzCQC29wjDqvcKeNbzCH2W8wpbZvsLCTL7CnjO+wuIsvsJs67vCwLq9wiKhvsLs&#xD;&#xa;o73C5Du9wqqhvcLwKr7C2kq/wqEMv8LVCb7Cpla+wsXpvMIs6bvC/fO8wueCvsIM4b3CxtC+wmTo&#xD;&#xa;vcI+arzCTNe8wiFNv8IvKL/Cpg+/woK1v8L4i7/CNv2+wmsVv8KWj77CVym+wnAlv8Joa8DCFDzA&#xD;&#xa;wiQYwcLSIcHCxILAwuxKvsJYm77CPoHAwiYPwcLuy77CcQa+wrB4vcKwYLzCxKW8worIvcIlzr/C&#xD;&#xa;OMC+wuRDvcJGZ7zCxFi9wuQzvMLPbbvCwIe+wm7bvcLm9L3COH6+wuuJvMK2B73CYb+9wqbxvMK/&#xD;&#xa;mL7CqIe9wvCavMKs7L3Ckau8wkpavMKt9LzCF8S+wmgKvsKCy73ClrG+wmIovcIns73Cmg+/wgw7&#xD;&#xa;wMI607/CpEq/wmwVvcJLsLvCMD68wuxdvcIeI7/C+bS+wpxfvsJyxsDC1tO/wmtrv8LNnb/CQiK+&#xD;&#xa;wlz7vcLa6L/CUMXBwtrQwcIAw8HCNJHBwvphwMKqc7/CSkW/wjkvwMK8ccHCHmDBwlKAwcKu+MDC&#xD;&#xa;zErCwuqgwsLa+MLC753DwmjuxcLEWMfCkePFwo47xsKnX8XC7tTCwuf3wsL+HcLCTcTBwmg6w8Is&#xD;&#xa;RMPC+qjDwiyGxMLi58TCnWvFwpjsxsKzCMbCyCTDwpM2wcJWGMPCvuDFwh42xsIfyMTCeLTFwuH7&#xD;&#xa;xMJctcfCVv3HwpTGx8J8b8jCqhjHwrgkx8LXNsfCZkLGwnxSxcL8csXCbu7FwsaQyMLa68fCo0XH&#xD;&#xa;woruxMJGHsbCORbJwry2yMLIUsfCxlfGwmLoxcLSPMnCYPDJwkw3yMKc7crC8vDLwug2y8Lu28vC&#xD;&#xa;OKvMwvLpysKGj8rCtNXLwrMay8KdGMrCUr3JwgIVy8J64MvCkbTJwjh4x8JGI8bCvBXHwnoPycKN&#xD;&#xa;Ss3CuC/Nwuywy8IkJ8zCx9/KwnB5ycKnk8nCenLJwnN6ycKc+sjCLFzJwuTrzMJkJM/CY5vOwoYO&#xD;&#xa;zsLU987CVKfNwiZZzcJQxNDCICHVwi0d18Kc29jCIF/YwtKo2MKeBNvCwpTawmY/2sJXPdvCZZXY&#xD;&#xa;whB818IQNdjCDF3XwtWC1sIGF9fCfFfXwkBy2MJ6+9nC1hfZwi5k2cJlfNjCnEPYwm/N1cKGOdXC&#xD;&#xa;Yk/XwgXL2MJSytfCgpTWwqTT1sJOGtnCrF/ZwtcT2cK08NjCscHZwpQ72sLJ/NrCy3zYwmCk18LE&#xD;&#xa;O9fC6hbYwtYU2cJN/dnC1EbZwrw/2cIqyNbCDr7Xwvb02cLQ+dnCaJvXwuYO18KSodnC1NnawtJJ&#xD;&#xa;18ISLtjC90nawoel2cIwl9jCi0XZwih328Ks7NjC5KzZwqui2cJw0tjCukLYws+O2MJaqtrCUuXa&#xD;&#xa;wviX2MIKxtfCnqXXwhjI2MJwAtvCIFvcwgCL2cJ0/djCdyXawh9H2cJ+ntfCy4TXwhqF2MJ68NnC&#xD;&#xa;CzvYwljT2cIkP9vCIs/bwjpB2sK2A9rCXt/awjZH2sIfltvCKWPcwjp53MKrGd3CaBPewj/03MJm&#xD;&#xa;U97CphfgwlJp3cKQpt3Crxjewm7d28Kq/9vCNNXcwqY728IUH9vCkirbwgIt28KK19zCjmzdwoBH&#xD;&#xa;3MIAUtvCUq3bwo8f28Ig09jCiyfZwhbx2sLWe9zCvgzbwmwI2sI2nNvC0lvdwg6128I8PNvCLufa&#xD;&#xa;wkyK28KkitzCJIDcwmAO28L0TNrCDHXawjla28IQkdzCoCDcwjRI3MJVUdvCtujZwnCs2sK8Yd3C&#xD;&#xa;iGbbwuSB2cImFNvCCI7r" leadInLength="0/1"  />
            </Keyframes>
           </Parameter>
           </Parameters>
          </GenericEffect>
          <GenericEffect id="7408" name = "Declipper" >
           <Parameters>
           <InterpolatingParam id="7409" interp="linr"  time="0/1" value="-1" leadInLength="0/1"   name="sensitivity"/>
           </Parameters>
          </GenericEffect>
          <GenericEffect id="7410" name = "Declicker" >
           <Parameters>
           <InterpolatingParam id="7411" interp="linr"  time="0/1" value="3" leadInLength="0/1"   name="sensitivity"/>
           </Parameters>
          </GenericEffect>
         </Effects>
         <Attributes>
          <Attribute id="7412" value="" name="ident"/>
          <Attribute id="7413" value="0" name="mixToMono"/>
         </Attributes>
         <MetaData>
          <entry key="WinSubProjectDisplayName" val=""/>
         </MetaData>
         <ExtraData>
          <Entry key="ZoomPanBin">
           <ZoomPanBin id="7414"  >
            <ZoomPanKeyframes>
            </ZoomPanKeyframes>
           </ZoomPanBin>
          </Entry>
          <Entry key="CursorEffectBin">
           <CursorEffectBin id="7415"  >
            <CursorEffectKeyframes>
            </CursorEffectKeyframes>
           </CursorEffectBin>
          </Entry>
         </ExtraData>
         <GenericTrack id="7416"  >
          <Attributes>
           <Attribute id="7417" value="" name="ident"/>
           <Attribute id="7418" value="0" name="audioMuted"/>
           <Attribute id="7419" value="0" name="videoHidden"/>
          </Attributes>
          <MetaData>
           <entry key="IsLocked" val="False"/>
           <entry key="WinTrackHeight" val="0"/>
          </MetaData>
          <Medias>
           <AMFile id="7420" start="0" duration="117" scalar="1/1" mediaStart="0/1" mediaDuration="117/1" trackNumber="0" src="29" channelNumber="0" >
            <Parameters>
             <InterpolatingParam id="7421" interp="linr"  time="0/1" value="1" leadInLength="0/1"  name="volume"/>
             <Parameter id="7422"  name="captions"/>
            </Parameters>
            <Attributes>
             <Attribute id="7423" value="" name="ident"/>
             <Attribute id="7424" value="48000" name="sampleRate"/>
             <Attribute id="7425" value="16" name="bitDepth"/>
             <Attribute id="7426" value="1" name="gain"/>
             <Attribute id="7427" value="0" name="mixToMono"/>
            </Attributes>
            <MetaData>
             <entry key="WinSubProjectDisplayName" val=""/>
            </MetaData>
           </AMFile>
           <AMFile id="7428" start="117" duration="272" scalar="1/1" mediaStart="131/1" mediaDuration="272/1" trackNumber="0" src="29" channelNumber="0" >
            <Parameters>
             <InterpolatingParam id="7429" interp="linr"  time="0/1" value="1" leadInLength="0/1"  name="volume"/>
             <Parameter id="7430"  name="captions"/>
            </Parameters>
            <Attributes>
             <Attribute id="7431" value="" name="ident"/>
             <Attribute id="7432" value="48000" name="sampleRate"/>
             <Attribute id="7433" value="16" name="bitDepth"/>
             <Attribute id="7434" value="1" name="gain"/>
             <Attribute id="7435" value="0" name="mixToMono"/>
            </Attributes>
            <MetaData>
             <entry key="WinSubProjectDisplayName" val=""/>
            </MetaData>
           </AMFile>
           <AMFile id="7436" start="389" duration="1309" scalar="1/1" mediaStart="415/1" mediaDuration="1309/1" trackNumber="0" src="29" channelNumber="0" >
            <Parameters>
             <InterpolatingParam id="7437" interp="linr"  time="0/1" value="1" leadInLength="0/1"  name="volume"/>
             <Parameter id="7438"  name="captions"/>
            </Parameters>
            <Attributes>
             <Attribute id="7439" value="" name="ident"/>
             <Attribute id="7440" value="48000" name="sampleRate"/>
             <Attribute id="7441" value="16" name="bitDepth"/>
             <Attribute id="7442" value="1" name="gain"/>
             <Attribute id="7443" value="0" name="mixToMono"/>
            </Attributes>
            <MetaData>
             <entry key="WinSubProjectDisplayName" val=""/>
            </MetaData>
           </AMFile>
           <AMFile id="7444" start="1698" duration="103" scalar="1/1" mediaStart="1734/1" mediaDuration="103/1" trackNumber="0" src="29" channelNumber="0" >
            <Parameters>
             <InterpolatingParam id="7445" interp="linr"  time="0/1" value="1" leadInLength="0/1"  name="volume"/>
             <Parameter id="7446"  name="captions"/>
            </Parameters>
            <Attributes>
             <Attribute id="7447" value="" name="ident"/>
             <Attribute id="7448" value="48000" name="sampleRate"/>
             <Attribute id="7449" value="16" name="bitDepth"/>
             <Attribute id="7450" value="1" name="gain"/>
             <Attribute id="7451" value="0" name="mixToMono"/>
            </Attributes>
            <MetaData>
             <entry key="WinSubProjectDisplayName" val=""/>
            </MetaData>
           </AMFile>
           <AMFile id="7452" start="1801" duration="245" scalar="1/1" mediaStart="2164/1" mediaDuration="245/1" trackNumber="0" src="29" channelNumber="0" >
            <Parameters>
             <InterpolatingParam id="7453" interp="linr"  time="0/1" value="1" leadInLength="0/1"  name="volume"/>
             <Parameter id="7454"  name="captions"/>
            </Parameters>
            <Attributes>
             <Attribute id="7455" value="" name="ident"/>
             <Attribute id="7456" value="48000" name="sampleRate"/>
             <Attribute id="7457" value="16" name="bitDepth"/>
             <Attribute id="7458" value="1" name="gain"/>
             <Attribute id="7459" value="0" name="mixToMono"/>
            </Attributes>
            <MetaData>
             <entry key="WinSubProjectDisplayName" val=""/>
            </MetaData>
           </AMFile>
           <AMFile id="7460" start="2046" duration="11009" scalar="1/1" mediaStart="2637/1" mediaDuration="11009/1" trackNumber="0" src="29" channelNumber="0" >
            <Parameters>
             <InterpolatingParam id="7461" interp="linr"  time="0/1" value="1" leadInLength="0/1"  name="volume"/>
             <Parameter id="7462"  name="captions"/>
            </Parameters>
            <Attributes>
             <Attribute id="7463" value="" name="ident"/>
             <Attribute id="7464" value="48000" name="sampleRate"/>
             <Attribute id="7465" value="16" name="bitDepth"/>
             <Attribute id="7466" value="1" name="gain"/>
             <Attribute id="7467" value="0" name="mixToMono"/>
            </Attributes>
            <MetaData>
             <entry key="WinSubProjectDisplayName" val=""/>
            </MetaData>
           </AMFile>
          </Medias>
         </GenericTrack>
        </StitchedMedia>
        <StitchedMedia id="7468" start="1865" duration="34" scalar="1/1" mediaStart="2856/1" mediaDuration="34/1" minMediaStart="0/1" >
         <Transformer>
          <VectorParam id="7469"  name="translation">
           <InterpolatingParam id="7470" interp="linr"  time="0/1" value="0" leadInLength="0/1"  />
           <InterpolatingParam id="7471" interp="linr"  time="0/1" value="0" leadInLength="0/1"  />
           <InterpolatingParam id="7472" interp="linr"  time="0/1" value="0" leadInLength="0/1"  />
          </VectorParam>
          <VectorParam id="7473"  name="rotation">
           <InterpolatingParam id="7474" interp="linr"  time="0/1" value="0" leadInLength="0/1"  />
           <InterpolatingParam id="7475" interp="linr"  time="0/1" value="0" leadInLength="0/1"  />
           <InterpolatingParam id="7476" interp="linr"  time="0/1" value="0" leadInLength="0/1"  />
          </VectorParam>
          <VectorParam id="7477"  name="shear">
           <InterpolatingParam id="7478" interp="linr"  time="0/1" value="0" leadInLength="0/1"  />
           <InterpolatingParam id="7479" interp="linr"  time="0/1" value="0" leadInLength="0/1"  />
           <InterpolatingParam id="7480" interp="linr"  time="0/1" value="0" leadInLength="0/1"  />
          </VectorParam>
          <VectorParam id="7481"  name="scale">
           <InterpolatingParam id="7482" interp="linr"  time="0/1" value="1" leadInLength="0/1"  />
           <InterpolatingParam id="7483" interp="linr"  time="0/1" value="1" leadInLength="0/1"  />
           <InterpolatingParam id="7484" interp="linr"  time="0/1" value="1" leadInLength="0/1"  />
          </VectorParam>
          <VectorParam id="7485"  name="anchor">
           <InterpolatingParam id="7486" interp="linr"  time="0/1" value="0" leadInLength="0/1"  />
           <InterpolatingParam id="7487" interp="linr"  time="0/1" value="0" leadInLength="0/1"  />
           <InterpolatingParam id="7488" interp="linr"  time="0/1" value="0" leadInLength="0/1"  />
          </VectorParam>
         </Transformer>
         <Parameters>
          <InterpolatingParam id="7489" interp="linr"  time="0/1" value="1" leadInLength="0/1"  name="cursorOpacity"/>
          <InterpolatingParam id="7490" interp="linr"  time="0/1" value="1" leadInLength="0/1"  name="cursorScale"/>
          <InterpolatingParam id="7491" interp="linr"  name="volume">
           <Keyframes>
           <Keyframe id="7492"  time="0/1" value="1.5625" leadInLength="0/1"  />
           <Keyframe id="7493"  time="2856/1" value="1.5625" leadInLength="0/1"  />
           </Keyframes>
          </InterpolatingParam>
          <Parameter id="7494"  name="captions"/>
         </Parameters>
         <Effects>
          <GenericEffect id="7495" name = "WinCompression" >
           <Parameters>
           <InterpolatingParam id="7496" interp="linr"  time="0/1" value="0" leadInLength="0/1"   name="attack"/>
           <InterpolatingParam id="7497" interp="linr"  time="0/1" value="9" leadInLength="0/1"   name="gain"/>
           <Parameter id="7498"   name="preset">
            <Keyframes>
            <Keyframe id="7499"  time="0/1" value="1" leadInLength="0/1"  />
            </Keyframes>
           </Parameter>
           <InterpolatingParam id="7500" interp="linr"  time="0/1" value="10" leadInLength="0/1"   name="ratio"/>
           <InterpolatingParam id="7501" interp="linr"  time="0/1" value="3500" leadInLength="0/1"   name="release"/>
           <InterpolatingParam id="7502" interp="linr"  time="0/1" value="-20" leadInLength="0/1"   name="threshold"/>
           </Parameters>
          </GenericEffect>
          <GenericEffect id="7503" name = "NoiseReduction" >
           <Parameters>
           <InterpolatingParam id="7504" interp="linr"  time="0/1" value="20" leadInLength="0/1"   name="denoiserAmount"/>
           <InterpolatingParam id="7505" interp="linr"  time="0/1" value="0" leadInLength="0/1"   name="denoiserThreshold"/>
           <Parameter id="7506"   name="noiseProfile">
            <Keyframes>
            <Keyframe id="7507"  time="0/1" value="FBAAAAIAAABErAAAAQIAAIA/l8JLuYTCrOB9wgsMfMJoG4LCaWeFwkohjMJdoYvCYv6LwlnvjcKf&#xD;&#xa;nYzChXWPwlcejsL6fo/C5OmQwgVTj8IVMI/COiWRwoWFkcJ2tYzC8I6MwuQbjcJvEo/ClwGRwheQ&#xD;&#xa;lsK8+pbCN5qVwlielcJ905rCmu+fwst0ncIC/JvCdIWdws3snsKxC5zCfh2cwniFnMJRypzCtRag&#xD;&#xa;wuoCosJQt6DCzoegwhY9ocIWN6PCsNqkwrSlpMJ6maTCYpCkwmLvo8Li+KPCyEamwnBNqMLMcqrC&#xD;&#xa;v2GswoS+q8Kk86vCVACuwnvUr8JxZa/CqHqswrdXq8LqT6zCZsuswhZxrMLBX67CnmqvwpYyrsKc&#xD;&#xa;pq3CJFGvwghrsMK3y6/CXoCtwmWZr8ICi7DCgRezwogSs8Joq7LCm0Sxwuz/scIfibTCOOK1wlIM&#xD;&#xa;t8K87LfCj3K3wqDYs8KT1bLCVsW0wnZ0tcJGhLXCfPe0ws/ntcLGXrbCzAG1wtXdtcKxxrTC1Ay1&#xD;&#xa;wquGtcLjELbC8Zi2wl7rtsJBYbbCMF+1wrEutMKuibTCSFa1wpvktMIu3rTCtGe4wjaduMIKErfC&#xD;&#xa;SLa1wvS/tsJmZrjCdn63whjft8Ie47rCfdi5wmjpt8KKCLjCXmC5wsOQt8JDGbfCK4m4wmpvuMLL&#xD;&#xa;nLjC80q4wjUVusKunLjC1Be5wg4cuMLxCbjCwfW4wmi7ucIOdbvCbLG6whqdusKYErrCbpC4wmq0&#xD;&#xa;ucIoWrvCaNe6ws4iu8LSc7zCUNa7wuJZvMIwLL3CWe28wps2v8J2l77Cv3W+wvgavsKAwrzCQCy8&#xD;&#xa;wgBRu8Km8brChSa6wuM4u8IaaL3Cf5y9wg4hvMLur7vCIpO9wm0fvcIGNLzC7Le8wvKgvMKQrLzC&#xD;&#xa;p6+9wtYtvsJcxbzCQC29wjDqvcKeNbzCH2W8wpbZvsLCTL7CnjO+wuIsvsJs67vCwLq9wiKhvsLs&#xD;&#xa;o73C5Du9wqqhvcLwKr7C2kq/wqEMv8LVCb7Cpla+wsXpvMIs6bvC/fO8wueCvsIM4b3CxtC+wmTo&#xD;&#xa;vcI+arzCTNe8wiFNv8IvKL/Cpg+/woK1v8L4i7/CNv2+wmsVv8KWj77CVym+wnAlv8Joa8DCFDzA&#xD;&#xa;wiQYwcLSIcHCxILAwuxKvsJYm77CPoHAwiYPwcLuy77CcQa+wrB4vcKwYLzCxKW8worIvcIlzr/C&#xD;&#xa;OMC+wuRDvcJGZ7zCxFi9wuQzvMLPbbvCwIe+wm7bvcLm9L3COH6+wuuJvMK2B73CYb+9wqbxvMK/&#xD;&#xa;mL7CqIe9wvCavMKs7L3Ckau8wkpavMKt9LzCF8S+wmgKvsKCy73ClrG+wmIovcIns73Cmg+/wgw7&#xD;&#xa;wMI607/CpEq/wmwVvcJLsLvCMD68wuxdvcIeI7/C+bS+wpxfvsJyxsDC1tO/wmtrv8LNnb/CQiK+&#xD;&#xa;wlz7vcLa6L/CUMXBwtrQwcIAw8HCNJHBwvphwMKqc7/CSkW/wjkvwMK8ccHCHmDBwlKAwcKu+MDC&#xD;&#xa;zErCwuqgwsLa+MLC753DwmjuxcLEWMfCkePFwo47xsKnX8XC7tTCwuf3wsL+HcLCTcTBwmg6w8Is&#xD;&#xa;RMPC+qjDwiyGxMLi58TCnWvFwpjsxsKzCMbCyCTDwpM2wcJWGMPCvuDFwh42xsIfyMTCeLTFwuH7&#xD;&#xa;xMJctcfCVv3HwpTGx8J8b8jCqhjHwrgkx8LXNsfCZkLGwnxSxcL8csXCbu7FwsaQyMLa68fCo0XH&#xD;&#xa;woruxMJGHsbCORbJwry2yMLIUsfCxlfGwmLoxcLSPMnCYPDJwkw3yMKc7crC8vDLwug2y8Lu28vC&#xD;&#xa;OKvMwvLpysKGj8rCtNXLwrMay8KdGMrCUr3JwgIVy8J64MvCkbTJwjh4x8JGI8bCvBXHwnoPycKN&#xD;&#xa;Ss3CuC/Nwuywy8IkJ8zCx9/KwnB5ycKnk8nCenLJwnN6ycKc+sjCLFzJwuTrzMJkJM/CY5vOwoYO&#xD;&#xa;zsLU987CVKfNwiZZzcJQxNDCICHVwi0d18Kc29jCIF/YwtKo2MKeBNvCwpTawmY/2sJXPdvCZZXY&#xD;&#xa;whB818IQNdjCDF3XwtWC1sIGF9fCfFfXwkBy2MJ6+9nC1hfZwi5k2cJlfNjCnEPYwm/N1cKGOdXC&#xD;&#xa;Yk/XwgXL2MJSytfCgpTWwqTT1sJOGtnCrF/ZwtcT2cK08NjCscHZwpQ72sLJ/NrCy3zYwmCk18LE&#xD;&#xa;O9fC6hbYwtYU2cJN/dnC1EbZwrw/2cIqyNbCDr7Xwvb02cLQ+dnCaJvXwuYO18KSodnC1NnawtJJ&#xD;&#xa;18ISLtjC90nawoel2cIwl9jCi0XZwih328Ks7NjC5KzZwqui2cJw0tjCukLYws+O2MJaqtrCUuXa&#xD;&#xa;wviX2MIKxtfCnqXXwhjI2MJwAtvCIFvcwgCL2cJ0/djCdyXawh9H2cJ+ntfCy4TXwhqF2MJ68NnC&#xD;&#xa;CzvYwljT2cIkP9vCIs/bwjpB2sK2A9rCXt/awjZH2sIfltvCKWPcwjp53MKrGd3CaBPewj/03MJm&#xD;&#xa;U97CphfgwlJp3cKQpt3Crxjewm7d28Kq/9vCNNXcwqY728IUH9vCkirbwgIt28KK19zCjmzdwoBH&#xD;&#xa;3MIAUtvCUq3bwo8f28Ig09jCiyfZwhbx2sLWe9zCvgzbwmwI2sI2nNvC0lvdwg6128I8PNvCLufa&#xD;&#xa;wkyK28KkitzCJIDcwmAO28L0TNrCDHXawjla28IQkdzCoCDcwjRI3MJVUdvCtujZwnCs2sK8Yd3C&#xD;&#xa;iGbbwuSB2cImFNvCCI7rwoA/l8JLuYTCrOB9wgsMfMJoG4LCaWeFwkohjMJdoYvCYv6LwlnvjcKf&#xD;&#xa;nYzChXWPwlcejsL6fo/C5OmQwgVTj8IVMI/COiWRwoWFkcJ2tYzC8I6MwuQbjcJvEo/ClwGRwheQ&#xD;&#xa;lsK8+pbCN5qVwlielcJ905rCmu+fwst0ncIC/JvCdIWdws3snsKxC5zCfh2cwniFnMJRypzCtRag&#xD;&#xa;wuoCosJQt6DCzoegwhY9ocIWN6PCsNqkwrSlpMJ6maTCYpCkwmLvo8Li+KPCyEamwnBNqMLMcqrC&#xD;&#xa;v2GswoS+q8Kk86vCVACuwnvUr8JxZa/CqHqswrdXq8LqT6zCZsuswhZxrMLBX67CnmqvwpYyrsKc&#xD;&#xa;pq3CJFGvwghrsMK3y6/CXoCtwmWZr8ICi7DCgRezwogSs8Joq7LCm0Sxwuz/scIfibTCOOK1wlIM&#xD;&#xa;t8K87LfCj3K3wqDYs8KT1bLCVsW0wnZ0tcJGhLXCfPe0ws/ntcLGXrbCzAG1wtXdtcKxxrTC1Ay1&#xD;&#xa;wquGtcLjELbC8Zi2wl7rtsJBYbbCMF+1wrEutMKuibTCSFa1wpvktMIu3rTCtGe4wjaduMIKErfC&#xD;&#xa;SLa1wvS/tsJmZrjCdn63whjft8Ie47rCfdi5wmjpt8KKCLjCXmC5wsOQt8JDGbfCK4m4wmpvuMLL&#xD;&#xa;nLjC80q4wjUVusKunLjC1Be5wg4cuMLxCbjCwfW4wmi7ucIOdbvCbLG6whqdusKYErrCbpC4wmq0&#xD;&#xa;ucIoWrvCaNe6ws4iu8LSc7zCUNa7wuJZvMIwLL3CWe28wps2v8J2l77Cv3W+wvgavsKAwrzCQCy8&#xD;&#xa;wgBRu8Km8brChSa6wuM4u8IaaL3Cf5y9wg4hvMLur7vCIpO9wm0fvcIGNLzC7Le8wvKgvMKQrLzC&#xD;&#xa;p6+9wtYtvsJcxbzCQC29wjDqvcKeNbzCH2W8wpbZvsLCTL7CnjO+wuIsvsJs67vCwLq9wiKhvsLs&#xD;&#xa;o73C5Du9wqqhvcLwKr7C2kq/wqEMv8LVCb7Cpla+wsXpvMIs6bvC/fO8wueCvsIM4b3CxtC+wmTo&#xD;&#xa;vcI+arzCTNe8wiFNv8IvKL/Cpg+/woK1v8L4i7/CNv2+wmsVv8KWj77CVym+wnAlv8Joa8DCFDzA&#xD;&#xa;wiQYwcLSIcHCxILAwuxKvsJYm77CPoHAwiYPwcLuy77CcQa+wrB4vcKwYLzCxKW8worIvcIlzr/C&#xD;&#xa;OMC+wuRDvcJGZ7zCxFi9wuQzvMLPbbvCwIe+wm7bvcLm9L3COH6+wuuJvMK2B73CYb+9wqbxvMK/&#xD;&#xa;mL7CqIe9wvCavMKs7L3Ckau8wkpavMKt9LzCF8S+wmgKvsKCy73ClrG+wmIovcIns73Cmg+/wgw7&#xD;&#xa;wMI607/CpEq/wmwVvcJLsLvCMD68wuxdvcIeI7/C+bS+wpxfvsJyxsDC1tO/wmtrv8LNnb/CQiK+&#xD;&#xa;wlz7vcLa6L/CUMXBwtrQwcIAw8HCNJHBwvphwMKqc7/CSkW/wjkvwMK8ccHCHmDBwlKAwcKu+MDC&#xD;&#xa;zErCwuqgwsLa+MLC753DwmjuxcLEWMfCkePFwo47xsKnX8XC7tTCwuf3wsL+HcLCTcTBwmg6w8Is&#xD;&#xa;RMPC+qjDwiyGxMLi58TCnWvFwpjsxsKzCMbCyCTDwpM2wcJWGMPCvuDFwh42xsIfyMTCeLTFwuH7&#xD;&#xa;xMJctcfCVv3HwpTGx8J8b8jCqhjHwrgkx8LXNsfCZkLGwnxSxcL8csXCbu7FwsaQyMLa68fCo0XH&#xD;&#xa;woruxMJGHsbCORbJwry2yMLIUsfCxlfGwmLoxcLSPMnCYPDJwkw3yMKc7crC8vDLwug2y8Lu28vC&#xD;&#xa;OKvMwvLpysKGj8rCtNXLwrMay8KdGMrCUr3JwgIVy8J64MvCkbTJwjh4x8JGI8bCvBXHwnoPycKN&#xD;&#xa;Ss3CuC/Nwuywy8IkJ8zCx9/KwnB5ycKnk8nCenLJwnN6ycKc+sjCLFzJwuTrzMJkJM/CY5vOwoYO&#xD;&#xa;zsLU987CVKfNwiZZzcJQxNDCICHVwi0d18Kc29jCIF/YwtKo2MKeBNvCwpTawmY/2sJXPdvCZZXY&#xD;&#xa;whB818IQNdjCDF3XwtWC1sIGF9fCfFfXwkBy2MJ6+9nC1hfZwi5k2cJlfNjCnEPYwm/N1cKGOdXC&#xD;&#xa;Yk/XwgXL2MJSytfCgpTWwqTT1sJOGtnCrF/ZwtcT2cK08NjCscHZwpQ72sLJ/NrCy3zYwmCk18LE&#xD;&#xa;O9fC6hbYwtYU2cJN/dnC1EbZwrw/2cIqyNbCDr7Xwvb02cLQ+dnCaJvXwuYO18KSodnC1NnawtJJ&#xD;&#xa;18ISLtjC90nawoel2cIwl9jCi0XZwih328Ks7NjC5KzZwqui2cJw0tjCukLYws+O2MJaqtrCUuXa&#xD;&#xa;wviX2MIKxtfCnqXXwhjI2MJwAtvCIFvcwgCL2cJ0/djCdyXawh9H2cJ+ntfCy4TXwhqF2MJ68NnC&#xD;&#xa;CzvYwljT2cIkP9vCIs/bwjpB2sK2A9rCXt/awjZH2sIfltvCKWPcwjp53MKrGd3CaBPewj/03MJm&#xD;&#xa;U97CphfgwlJp3cKQpt3Crxjewm7d28Kq/9vCNNXcwqY728IUH9vCkirbwgIt28KK19zCjmzdwoBH&#xD;&#xa;3MIAUtvCUq3bwo8f28Ig09jCiyfZwhbx2sLWe9zCvgzbwmwI2sI2nNvC0lvdwg6128I8PNvCLufa&#xD;&#xa;wkyK28KkitzCJIDcwmAO28L0TNrCDHXawjla28IQkdzCoCDcwjRI3MJVUdvCtujZwnCs2sK8Yd3C&#xD;&#xa;iGbbwuSB2cImFNvCCI7r" leadInLength="0/1"  />
            </Keyframes>
           </Parameter>
           </Parameters>
          </GenericEffect>
          <GenericEffect id="7508" name = "Declipper" >
           <Parameters>
           <InterpolatingParam id="7509" interp="linr"  time="0/1" value="-1" leadInLength="0/1"   name="sensitivity"/>
           </Parameters>
          </GenericEffect>
          <GenericEffect id="7510" name = "Declicker" >
           <Parameters>
           <InterpolatingParam id="7511" interp="linr"  time="0/1" value="3" leadInLength="0/1"   name="sensitivity"/>
           </Parameters>
          </GenericEffect>
         </Effects>
         <Attributes>
          <Attribute id="7512" value="" name="ident"/>
          <Attribute id="7513" value="0" name="mixToMono"/>
         </Attributes>
         <MetaData>
          <entry key="WinSubProjectDisplayName" val=""/>
         </MetaData>
         <ExtraData>
          <Entry key="ZoomPanBin">
           <ZoomPanBin id="7514"  >
            <ZoomPanKeyframes>
            </ZoomPanKeyframes>
           </ZoomPanBin>
          </Entry>
          <Entry key="CursorEffectBin">
           <CursorEffectBin id="7515"  >
            <CursorEffectKeyframes>
            </CursorEffectKeyframes>
           </CursorEffectBin>
          </Entry>
         </ExtraData>
         <GenericTrack id="7516"  >
          <Attributes>
           <Attribute id="7517" value="" name="ident"/>
           <Attribute id="7518" value="0" name="audioMuted"/>
           <Attribute id="7519" value="0" name="videoHidden"/>
          </Attributes>
          <MetaData>
           <entry key="IsLocked" val="False"/>
           <entry key="WinTrackHeight" val="0"/>
          </MetaData>
          <Medias>
           <AMFile id="7520" start="0" duration="3041" scalar="1/1" mediaStart="0/1" mediaDuration="3041/1" trackNumber="0" src="29" channelNumber="0" >
            <Parameters>
             <InterpolatingParam id="7521" interp="linr"  time="0/1" value="1" leadInLength="0/1"  name="volume"/>
             <Parameter id="7522"  name="captions"/>
            </Parameters>
            <Attributes>
             <Attribute id="7523" value="" name="ident"/>
             <Attribute id="7524" value="48000" name="sampleRate"/>
             <Attribute id="7525" value="16" name="bitDepth"/>
             <Attribute id="7526" value="1" name="gain"/>
             <Attribute id="7527" value="0" name="mixToMono"/>
            </Attributes>
            <MetaData>
             <entry key="WinSubProjectDisplayName" val=""/>
            </MetaData>
           </AMFile>
           <AMFile id="7528" start="3041" duration="215" scalar="1/1" mediaStart="3054/1" mediaDuration="215/1" trackNumber="0" src="29" channelNumber="0" >
            <Parameters>
             <InterpolatingParam id="7529" interp="linr"  time="0/1" value="1" leadInLength="0/1"  name="volume"/>
             <Parameter id="7530"  name="captions"/>
            </Parameters>
            <Attributes>
             <Attribute id="7531" value="" name="ident"/>
             <Attribute id="7532" value="48000" name="sampleRate"/>
             <Attribute id="7533" value="16" name="bitDepth"/>
             <Attribute id="7534" value="1" name="gain"/>
             <Attribute id="7535" value="0" name="mixToMono"/>
            </Attributes>
            <MetaData>
             <entry key="WinSubProjectDisplayName" val=""/>
            </MetaData>
           </AMFile>
           <AMFile id="7536" start="3256" duration="155" scalar="1/1" mediaStart="3288/1" mediaDuration="155/1" trackNumber="0" src="29" channelNumber="0" >
            <Parameters>
             <InterpolatingParam id="7537" interp="linr"  time="0/1" value="1" leadInLength="0/1"  name="volume"/>
             <Parameter id="7538"  name="captions"/>
            </Parameters>
            <Attributes>
             <Attribute id="7539" value="" name="ident"/>
             <Attribute id="7540" value="48000" name="sampleRate"/>
             <Attribute id="7541" value="16" name="bitDepth"/>
             <Attribute id="7542" value="1" name="gain"/>
             <Attribute id="7543" value="0" name="mixToMono"/>
            </Attributes>
            <MetaData>
             <entry key="WinSubProjectDisplayName" val=""/>
            </MetaData>
           </AMFile>
           <AMFile id="7544" start="3411" duration="103" scalar="1/1" mediaStart="3450/1" mediaDuration="103/1" trackNumber="0" src="29" channelNumber="0" >
            <Parameters>
             <InterpolatingParam id="7545" interp="linr"  time="0/1" value="1" leadInLength="0/1"  name="volume"/>
             <Parameter id="7546"  name="captions"/>
            </Parameters>
            <Attributes>
             <Attribute id="7547" value="" name="ident"/>
             <Attribute id="7548" value="48000" name="sampleRate"/>
             <Attribute id="7549" value="16" name="bitDepth"/>
             <Attribute id="7550" value="1" name="gain"/>
             <Attribute id="7551" value="0" name="mixToMono"/>
            </Attributes>
            <MetaData>
             <entry key="WinSubProjectDisplayName" val=""/>
            </MetaData>
           </AMFile>
           <AMFile id="7552" start="3514" duration="10082" scalar="1/1" mediaStart="3564/1" mediaDuration="10082/1" trackNumber="0" src="29" channelNumber="0" >
            <Parameters>
             <InterpolatingParam id="7553" interp="linr"  time="0/1" value="1" leadInLength="0/1"  name="volume"/>
             <Parameter id="7554"  name="captions"/>
            </Parameters>
            <Attributes>
             <Attribute id="7555" value="" name="ident"/>
             <Attribute id="7556" value="48000" name="sampleRate"/>
             <Attribute id="7557" value="16" name="bitDepth"/>
             <Attribute id="7558" value="1" name="gain"/>
             <Attribute id="7559" value="0" name="mixToMono"/>
            </Attributes>
            <MetaData>
             <entry key="WinSubProjectDisplayName" val=""/>
            </MetaData>
           </AMFile>
          </Medias>
         </GenericTrack>
        </StitchedMedia>
        <StitchedMedia id="7560" start="1899" duration="360" scalar="1/1" mediaStart="2282/1" mediaDuration="360/1" minMediaStart="0/1" >
         <Transformer>
          <VectorParam id="7561"  name="translation">
           <InterpolatingParam id="7562" interp="linr"  time="0/1" value="0" leadInLength="0/1"  />
           <InterpolatingParam id="7563" interp="linr"  time="0/1" value="0" leadInLength="0/1"  />
           <InterpolatingParam id="7564" interp="linr"  time="0/1" value="0" leadInLength="0/1"  />
          </VectorParam>
          <VectorParam id="7565"  name="rotation">
           <InterpolatingParam id="7566" interp="linr"  time="0/1" value="0" leadInLength="0/1"  />
           <InterpolatingParam id="7567" interp="linr"  time="0/1" value="0" leadInLength="0/1"  />
           <InterpolatingParam id="7568" interp="linr"  time="0/1" value="0" leadInLength="0/1"  />
          </VectorParam>
          <VectorParam id="7569"  name="shear">
           <InterpolatingParam id="7570" interp="linr"  time="0/1" value="0" leadInLength="0/1"  />
           <InterpolatingParam id="7571" interp="linr"  time="0/1" value="0" leadInLength="0/1"  />
           <InterpolatingParam id="7572" interp="linr"  time="0/1" value="0" leadInLength="0/1"  />
          </VectorParam>
          <VectorParam id="7573"  name="scale">
           <InterpolatingParam id="7574" interp="linr"  time="0/1" value="1" leadInLength="0/1"  />
           <InterpolatingParam id="7575" interp="linr"  time="0/1" value="1" leadInLength="0/1"  />
           <InterpolatingParam id="7576" interp="linr"  time="0/1" value="1" leadInLength="0/1"  />
          </VectorParam>
          <VectorParam id="7577"  name="anchor">
           <InterpolatingParam id="7578" interp="linr"  time="0/1" value="0" leadInLength="0/1"  />
           <InterpolatingParam id="7579" interp="linr"  time="0/1" value="0" leadInLength="0/1"  />
           <InterpolatingParam id="7580" interp="linr"  time="0/1" value="0" leadInLength="0/1"  />
          </VectorParam>
         </Transformer>
         <Parameters>
          <InterpolatingParam id="7581" interp="linr"  time="0/1" value="1" leadInLength="0/1"  name="cursorOpacity"/>
          <InterpolatingParam id="7582" interp="linr"  time="0/1" value="1" leadInLength="0/1"  name="cursorScale"/>
          <InterpolatingParam id="7583" interp="linr"  time="0/1" value="1.5625" leadInLength="0/1"  name="volume"/>
          <Parameter id="7584"  name="captions"/>
         </Parameters>
         <Effects>
          <GenericEffect id="7585" name = "WinCompression" >
           <Parameters>
           <InterpolatingParam id="7586" interp="linr"  time="0/1" value="0" leadInLength="0/1"   name="attack"/>
           <InterpolatingParam id="7587" interp="linr"  time="0/1" value="9" leadInLength="0/1"   name="gain"/>
           <Parameter id="7588"   name="preset">
            <Keyframes>
            <Keyframe id="7589"  time="0/1" value="1" leadInLength="0/1"  />
            </Keyframes>
           </Parameter>
           <InterpolatingParam id="7590" interp="linr"  time="0/1" value="10" leadInLength="0/1"   name="ratio"/>
           <InterpolatingParam id="7591" interp="linr"  time="0/1" value="3500" leadInLength="0/1"   name="release"/>
           <InterpolatingParam id="7592" interp="linr"  time="0/1" value="-20" leadInLength="0/1"   name="threshold"/>
           </Parameters>
          </GenericEffect>
          <GenericEffect id="7593" name = "NoiseReduction" >
           <Parameters>
           <InterpolatingParam id="7594" interp="linr"  time="0/1" value="20" leadInLength="0/1"   name="denoiserAmount"/>
           <InterpolatingParam id="7595" interp="linr"  time="0/1" value="0" leadInLength="0/1"   name="denoiserThreshold"/>
           <Parameter id="7596"   name="noiseProfile">
            <Keyframes>
            <Keyframe id="7597"  time="0/1" value="FBAAAAIAAABErAAAAQIAAIA/l8JLuYTCrOB9wgsMfMJoG4LCaWeFwkohjMJdoYvCYv6LwlnvjcKf&#xD;&#xa;nYzChXWPwlcejsL6fo/C5OmQwgVTj8IVMI/COiWRwoWFkcJ2tYzC8I6MwuQbjcJvEo/ClwGRwheQ&#xD;&#xa;lsK8+pbCN5qVwlielcJ905rCmu+fwst0ncIC/JvCdIWdws3snsKxC5zCfh2cwniFnMJRypzCtRag&#xD;&#xa;wuoCosJQt6DCzoegwhY9ocIWN6PCsNqkwrSlpMJ6maTCYpCkwmLvo8Li+KPCyEamwnBNqMLMcqrC&#xD;&#xa;v2GswoS+q8Kk86vCVACuwnvUr8JxZa/CqHqswrdXq8LqT6zCZsuswhZxrMLBX67CnmqvwpYyrsKc&#xD;&#xa;pq3CJFGvwghrsMK3y6/CXoCtwmWZr8ICi7DCgRezwogSs8Joq7LCm0Sxwuz/scIfibTCOOK1wlIM&#xD;&#xa;t8K87LfCj3K3wqDYs8KT1bLCVsW0wnZ0tcJGhLXCfPe0ws/ntcLGXrbCzAG1wtXdtcKxxrTC1Ay1&#xD;&#xa;wquGtcLjELbC8Zi2wl7rtsJBYbbCMF+1wrEutMKuibTCSFa1wpvktMIu3rTCtGe4wjaduMIKErfC&#xD;&#xa;SLa1wvS/tsJmZrjCdn63whjft8Ie47rCfdi5wmjpt8KKCLjCXmC5wsOQt8JDGbfCK4m4wmpvuMLL&#xD;&#xa;nLjC80q4wjUVusKunLjC1Be5wg4cuMLxCbjCwfW4wmi7ucIOdbvCbLG6whqdusKYErrCbpC4wmq0&#xD;&#xa;ucIoWrvCaNe6ws4iu8LSc7zCUNa7wuJZvMIwLL3CWe28wps2v8J2l77Cv3W+wvgavsKAwrzCQCy8&#xD;&#xa;wgBRu8Km8brChSa6wuM4u8IaaL3Cf5y9wg4hvMLur7vCIpO9wm0fvcIGNLzC7Le8wvKgvMKQrLzC&#xD;&#xa;p6+9wtYtvsJcxbzCQC29wjDqvcKeNbzCH2W8wpbZvsLCTL7CnjO+wuIsvsJs67vCwLq9wiKhvsLs&#xD;&#xa;o73C5Du9wqqhvcLwKr7C2kq/wqEMv8LVCb7Cpla+wsXpvMIs6bvC/fO8wueCvsIM4b3CxtC+wmTo&#xD;&#xa;vcI+arzCTNe8wiFNv8IvKL/Cpg+/woK1v8L4i7/CNv2+wmsVv8KWj77CVym+wnAlv8Joa8DCFDzA&#xD;&#xa;wiQYwcLSIcHCxILAwuxKvsJYm77CPoHAwiYPwcLuy77CcQa+wrB4vcKwYLzCxKW8worIvcIlzr/C&#xD;&#xa;OMC+wuRDvcJGZ7zCxFi9wuQzvMLPbbvCwIe+wm7bvcLm9L3COH6+wuuJvMK2B73CYb+9wqbxvMK/&#xD;&#xa;mL7CqIe9wvCavMKs7L3Ckau8wkpavMKt9LzCF8S+wmgKvsKCy73ClrG+wmIovcIns73Cmg+/wgw7&#xD;&#xa;wMI607/CpEq/wmwVvcJLsLvCMD68wuxdvcIeI7/C+bS+wpxfvsJyxsDC1tO/wmtrv8LNnb/CQiK+&#xD;&#xa;wlz7vcLa6L/CUMXBwtrQwcIAw8HCNJHBwvphwMKqc7/CSkW/wjkvwMK8ccHCHmDBwlKAwcKu+MDC&#xD;&#xa;zErCwuqgwsLa+MLC753DwmjuxcLEWMfCkePFwo47xsKnX8XC7tTCwuf3wsL+HcLCTcTBwmg6w8Is&#xD;&#xa;RMPC+qjDwiyGxMLi58TCnWvFwpjsxsKzCMbCyCTDwpM2wcJWGMPCvuDFwh42xsIfyMTCeLTFwuH7&#xD;&#xa;xMJctcfCVv3HwpTGx8J8b8jCqhjHwrgkx8LXNsfCZkLGwnxSxcL8csXCbu7FwsaQyMLa68fCo0XH&#xD;&#xa;woruxMJGHsbCORbJwry2yMLIUsfCxlfGwmLoxcLSPMnCYPDJwkw3yMKc7crC8vDLwug2y8Lu28vC&#xD;&#xa;OKvMwvLpysKGj8rCtNXLwrMay8KdGMrCUr3JwgIVy8J64MvCkbTJwjh4x8JGI8bCvBXHwnoPycKN&#xD;&#xa;Ss3CuC/Nwuywy8IkJ8zCx9/KwnB5ycKnk8nCenLJwnN6ycKc+sjCLFzJwuTrzMJkJM/CY5vOwoYO&#xD;&#xa;zsLU987CVKfNwiZZzcJQxNDCICHVwi0d18Kc29jCIF/YwtKo2MKeBNvCwpTawmY/2sJXPdvCZZXY&#xD;&#xa;whB818IQNdjCDF3XwtWC1sIGF9fCfFfXwkBy2MJ6+9nC1hfZwi5k2cJlfNjCnEPYwm/N1cKGOdXC&#xD;&#xa;Yk/XwgXL2MJSytfCgpTWwqTT1sJOGtnCrF/ZwtcT2cK08NjCscHZwpQ72sLJ/NrCy3zYwmCk18LE&#xD;&#xa;O9fC6hbYwtYU2cJN/dnC1EbZwrw/2cIqyNbCDr7Xwvb02cLQ+dnCaJvXwuYO18KSodnC1NnawtJJ&#xD;&#xa;18ISLtjC90nawoel2cIwl9jCi0XZwih328Ks7NjC5KzZwqui2cJw0tjCukLYws+O2MJaqtrCUuXa&#xD;&#xa;wviX2MIKxtfCnqXXwhjI2MJwAtvCIFvcwgCL2cJ0/djCdyXawh9H2cJ+ntfCy4TXwhqF2MJ68NnC&#xD;&#xa;CzvYwljT2cIkP9vCIs/bwjpB2sK2A9rCXt/awjZH2sIfltvCKWPcwjp53MKrGd3CaBPewj/03MJm&#xD;&#xa;U97CphfgwlJp3cKQpt3Crxjewm7d28Kq/9vCNNXcwqY728IUH9vCkirbwgIt28KK19zCjmzdwoBH&#xD;&#xa;3MIAUtvCUq3bwo8f28Ig09jCiyfZwhbx2sLWe9zCvgzbwmwI2sI2nNvC0lvdwg6128I8PNvCLufa&#xD;&#xa;wkyK28KkitzCJIDcwmAO28L0TNrCDHXawjla28IQkdzCoCDcwjRI3MJVUdvCtujZwnCs2sK8Yd3C&#xD;&#xa;iGbbwuSB2cImFNvCCI7rwoA/l8JLuYTCrOB9wgsMfMJoG4LCaWeFwkohjMJdoYvCYv6LwlnvjcKf&#xD;&#xa;nYzChXWPwlcejsL6fo/C5OmQwgVTj8IVMI/COiWRwoWFkcJ2tYzC8I6MwuQbjcJvEo/ClwGRwheQ&#xD;&#xa;lsK8+pbCN5qVwlielcJ905rCmu+fwst0ncIC/JvCdIWdws3snsKxC5zCfh2cwniFnMJRypzCtRag&#xD;&#xa;wuoCosJQt6DCzoegwhY9ocIWN6PCsNqkwrSlpMJ6maTCYpCkwmLvo8Li+KPCyEamwnBNqMLMcqrC&#xD;&#xa;v2GswoS+q8Kk86vCVACuwnvUr8JxZa/CqHqswrdXq8LqT6zCZsuswhZxrMLBX67CnmqvwpYyrsKc&#xD;&#xa;pq3CJFGvwghrsMK3y6/CXoCtwmWZr8ICi7DCgRezwogSs8Joq7LCm0Sxwuz/scIfibTCOOK1wlIM&#xD;&#xa;t8K87LfCj3K3wqDYs8KT1bLCVsW0wnZ0tcJGhLXCfPe0ws/ntcLGXrbCzAG1wtXdtcKxxrTC1Ay1&#xD;&#xa;wquGtcLjELbC8Zi2wl7rtsJBYbbCMF+1wrEutMKuibTCSFa1wpvktMIu3rTCtGe4wjaduMIKErfC&#xD;&#xa;SLa1wvS/tsJmZrjCdn63whjft8Ie47rCfdi5wmjpt8KKCLjCXmC5wsOQt8JDGbfCK4m4wmpvuMLL&#xD;&#xa;nLjC80q4wjUVusKunLjC1Be5wg4cuMLxCbjCwfW4wmi7ucIOdbvCbLG6whqdusKYErrCbpC4wmq0&#xD;&#xa;ucIoWrvCaNe6ws4iu8LSc7zCUNa7wuJZvMIwLL3CWe28wps2v8J2l77Cv3W+wvgavsKAwrzCQCy8&#xD;&#xa;wgBRu8Km8brChSa6wuM4u8IaaL3Cf5y9wg4hvMLur7vCIpO9wm0fvcIGNLzC7Le8wvKgvMKQrLzC&#xD;&#xa;p6+9wtYtvsJcxbzCQC29wjDqvcKeNbzCH2W8wpbZvsLCTL7CnjO+wuIsvsJs67vCwLq9wiKhvsLs&#xD;&#xa;o73C5Du9wqqhvcLwKr7C2kq/wqEMv8LVCb7Cpla+wsXpvMIs6bvC/fO8wueCvsIM4b3CxtC+wmTo&#xD;&#xa;vcI+arzCTNe8wiFNv8IvKL/Cpg+/woK1v8L4i7/CNv2+wmsVv8KWj77CVym+wnAlv8Joa8DCFDzA&#xD;&#xa;wiQYwcLSIcHCxILAwuxKvsJYm77CPoHAwiYPwcLuy77CcQa+wrB4vcKwYLzCxKW8worIvcIlzr/C&#xD;&#xa;OMC+wuRDvcJGZ7zCxFi9wuQzvMLPbbvCwIe+wm7bvcLm9L3COH6+wuuJvMK2B73CYb+9wqbxvMK/&#xD;&#xa;mL7CqIe9wvCavMKs7L3Ckau8wkpavMKt9LzCF8S+wmgKvsKCy73ClrG+wmIovcIns73Cmg+/wgw7&#xD;&#xa;wMI607/CpEq/wmwVvcJLsLvCMD68wuxdvcIeI7/C+bS+wpxfvsJyxsDC1tO/wmtrv8LNnb/CQiK+&#xD;&#xa;wlz7vcLa6L/CUMXBwtrQwcIAw8HCNJHBwvphwMKqc7/CSkW/wjkvwMK8ccHCHmDBwlKAwcKu+MDC&#xD;&#xa;zErCwuqgwsLa+MLC753DwmjuxcLEWMfCkePFwo47xsKnX8XC7tTCwuf3wsL+HcLCTcTBwmg6w8Is&#xD;&#xa;RMPC+qjDwiyGxMLi58TCnWvFwpjsxsKzCMbCyCTDwpM2wcJWGMPCvuDFwh42xsIfyMTCeLTFwuH7&#xD;&#xa;xMJctcfCVv3HwpTGx8J8b8jCqhjHwrgkx8LXNsfCZkLGwnxSxcL8csXCbu7FwsaQyMLa68fCo0XH&#xD;&#xa;woruxMJGHsbCORbJwry2yMLIUsfCxlfGwmLoxcLSPMnCYPDJwkw3yMKc7crC8vDLwug2y8Lu28vC&#xD;&#xa;OKvMwvLpysKGj8rCtNXLwrMay8KdGMrCUr3JwgIVy8J64MvCkbTJwjh4x8JGI8bCvBXHwnoPycKN&#xD;&#xa;Ss3CuC/Nwuywy8IkJ8zCx9/KwnB5ycKnk8nCenLJwnN6ycKc+sjCLFzJwuTrzMJkJM/CY5vOwoYO&#xD;&#xa;zsLU987CVKfNwiZZzcJQxNDCICHVwi0d18Kc29jCIF/YwtKo2MKeBNvCwpTawmY/2sJXPdvCZZXY&#xD;&#xa;whB818IQNdjCDF3XwtWC1sIGF9fCfFfXwkBy2MJ6+9nC1hfZwi5k2cJlfNjCnEPYwm/N1cKGOdXC&#xD;&#xa;Yk/XwgXL2MJSytfCgpTWwqTT1sJOGtnCrF/ZwtcT2cK08NjCscHZwpQ72sLJ/NrCy3zYwmCk18LE&#xD;&#xa;O9fC6hbYwtYU2cJN/dnC1EbZwrw/2cIqyNbCDr7Xwvb02cLQ+dnCaJvXwuYO18KSodnC1NnawtJJ&#xD;&#xa;18ISLtjC90nawoel2cIwl9jCi0XZwih328Ks7NjC5KzZwqui2cJw0tjCukLYws+O2MJaqtrCUuXa&#xD;&#xa;wviX2MIKxtfCnqXXwhjI2MJwAtvCIFvcwgCL2cJ0/djCdyXawh9H2cJ+ntfCy4TXwhqF2MJ68NnC&#xD;&#xa;CzvYwljT2cIkP9vCIs/bwjpB2sK2A9rCXt/awjZH2sIfltvCKWPcwjp53MKrGd3CaBPewj/03MJm&#xD;&#xa;U97CphfgwlJp3cKQpt3Crxjewm7d28Kq/9vCNNXcwqY728IUH9vCkirbwgIt28KK19zCjmzdwoBH&#xD;&#xa;3MIAUtvCUq3bwo8f28Ig09jCiyfZwhbx2sLWe9zCvgzbwmwI2sI2nNvC0lvdwg6128I8PNvCLufa&#xD;&#xa;wkyK28KkitzCJIDcwmAO28L0TNrCDHXawjla28IQkdzCoCDcwjRI3MJVUdvCtujZwnCs2sK8Yd3C&#xD;&#xa;iGbbwuSB2cImFNvCCI7r" leadInLength="0/1"  />
            </Keyframes>
           </Parameter>
           </Parameters>
          </GenericEffect>
          <GenericEffect id="7598" name = "Declipper" >
           <Parameters>
           <InterpolatingParam id="7599" interp="linr"  time="0/1" value="-1" leadInLength="0/1"   name="sensitivity"/>
           </Parameters>
          </GenericEffect>
          <GenericEffect id="7600" name = "Declicker" >
           <Parameters>
           <InterpolatingParam id="7601" interp="linr"  time="0/1" value="3" leadInLength="0/1"   name="sensitivity"/>
           </Parameters>
          </GenericEffect>
         </Effects>
         <Attributes>
          <Attribute id="7602" value="" name="ident"/>
          <Attribute id="7603" value="0" name="mixToMono"/>
         </Attributes>
         <MetaData>
          <entry key="WinSubProjectDisplayName" val=""/>
         </MetaData>
         <ExtraData>
          <Entry key="ZoomPanBin">
           <ZoomPanBin id="7604"  >
            <ZoomPanKeyframes>
            </ZoomPanKeyframes>
           </ZoomPanBin>
          </Entry>
          <Entry key="CursorEffectBin">
           <CursorEffectBin id="7605"  >
            <CursorEffectKeyframes>
            </CursorEffectKeyframes>
           </CursorEffectBin>
          </Entry>
         </ExtraData>
         <GenericTrack id="7606"  >
          <Attributes>
           <Attribute id="7607" value="" name="ident"/>
           <Attribute id="7608" value="0" name="audioMuted"/>
           <Attribute id="7609" value="0" name="videoHidden"/>
          </Attributes>
          <MetaData>
           <entry key="IsLocked" val="False"/>
           <entry key="WinTrackHeight" val="0"/>
          </MetaData>
          <Medias>
           <AMFile id="7610" start="0" duration="117" scalar="1/1" mediaStart="0/1" mediaDuration="117/1" trackNumber="0" src="29" channelNumber="0" >
            <Parameters>
             <InterpolatingParam id="7611" interp="linr"  time="0/1" value="1" leadInLength="0/1"  name="volume"/>
             <Parameter id="7612"  name="captions"/>
            </Parameters>
            <Attributes>
             <Attribute id="7613" value="" name="ident"/>
             <Attribute id="7614" value="48000" name="sampleRate"/>
             <Attribute id="7615" value="16" name="bitDepth"/>
             <Attribute id="7616" value="1" name="gain"/>
             <Attribute id="7617" value="0" name="mixToMono"/>
            </Attributes>
            <MetaData>
             <entry key="WinSubProjectDisplayName" val=""/>
            </MetaData>
           </AMFile>
           <AMFile id="7618" start="117" duration="272" scalar="1/1" mediaStart="131/1" mediaDuration="272/1" trackNumber="0" src="29" channelNumber="0" >
            <Parameters>
             <InterpolatingParam id="7619" interp="linr"  time="0/1" value="1" leadInLength="0/1"  name="volume"/>
             <Parameter id="7620"  name="captions"/>
            </Parameters>
            <Attributes>
             <Attribute id="7621" value="" name="ident"/>
             <Attribute id="7622" value="48000" name="sampleRate"/>
             <Attribute id="7623" value="16" name="bitDepth"/>
             <Attribute id="7624" value="1" name="gain"/>
             <Attribute id="7625" value="0" name="mixToMono"/>
            </Attributes>
            <MetaData>
             <entry key="WinSubProjectDisplayName" val=""/>
            </MetaData>
           </AMFile>
           <AMFile id="7626" start="389" duration="1309" scalar="1/1" mediaStart="415/1" mediaDuration="1309/1" trackNumber="0" src="29" channelNumber="0" >
            <Parameters>
             <InterpolatingParam id="7627" interp="linr"  time="0/1" value="1" leadInLength="0/1"  name="volume"/>
             <Parameter id="7628"  name="captions"/>
            </Parameters>
            <Attributes>
             <Attribute id="7629" value="" name="ident"/>
             <Attribute id="7630" value="48000" name="sampleRate"/>
             <Attribute id="7631" value="16" name="bitDepth"/>
             <Attribute id="7632" value="1" name="gain"/>
             <Attribute id="7633" value="0" name="mixToMono"/>
            </Attributes>
            <MetaData>
             <entry key="WinSubProjectDisplayName" val=""/>
            </MetaData>
           </AMFile>
           <AMFile id="7634" start="1698" duration="103" scalar="1/1" mediaStart="1734/1" mediaDuration="103/1" trackNumber="0" src="29" channelNumber="0" >
            <Parameters>
             <InterpolatingParam id="7635" interp="linr"  time="0/1" value="1" leadInLength="0/1"  name="volume"/>
             <Parameter id="7636"  name="captions"/>
            </Parameters>
            <Attributes>
             <Attribute id="7637" value="" name="ident"/>
             <Attribute id="7638" value="48000" name="sampleRate"/>
             <Attribute id="7639" value="16" name="bitDepth"/>
             <Attribute id="7640" value="1" name="gain"/>
             <Attribute id="7641" value="0" name="mixToMono"/>
            </Attributes>
            <MetaData>
             <entry key="WinSubProjectDisplayName" val=""/>
            </MetaData>
           </AMFile>
           <AMFile id="7642" start="1801" duration="245" scalar="1/1" mediaStart="2164/1" mediaDuration="245/1" trackNumber="0" src="29" channelNumber="0" >
            <Parameters>
             <InterpolatingParam id="7643" interp="linr"  time="0/1" value="1" leadInLength="0/1"  name="volume"/>
             <Parameter id="7644"  name="captions"/>
            </Parameters>
            <Attributes>
             <Attribute id="7645" value="" name="ident"/>
             <Attribute id="7646" value="48000" name="sampleRate"/>
             <Attribute id="7647" value="16" name="bitDepth"/>
             <Attribute id="7648" value="1" name="gain"/>
             <Attribute id="7649" value="0" name="mixToMono"/>
            </Attributes>
            <MetaData>
             <entry key="WinSubProjectDisplayName" val=""/>
            </MetaData>
           </AMFile>
           <AMFile id="7650" start="2046" duration="202" scalar="1/1" mediaStart="2637/1" mediaDuration="202/1" trackNumber="0" src="29" channelNumber="0" >
            <Parameters>
             <InterpolatingParam id="7651" interp="linr"  time="0/1" value="1" leadInLength="0/1"  name="volume"/>
             <Parameter id="7652"  name="captions"/>
            </Parameters>
            <Attributes>
             <Attribute id="7653" value="" name="ident"/>
             <Attribute id="7654" value="48000" name="sampleRate"/>
             <Attribute id="7655" value="16" name="bitDepth"/>
             <Attribute id="7656" value="1" name="gain"/>
             <Attribute id="7657" value="0" name="mixToMono"/>
            </Attributes>
            <MetaData>
             <entry key="WinSubProjectDisplayName" val=""/>
            </MetaData>
           </AMFile>
           <AMFile id="7658" start="2248" duration="185" scalar="1/1" mediaStart="2856/1" mediaDuration="185/1" trackNumber="0" src="29" channelNumber="0" >
            <Parameters>
             <InterpolatingParam id="7659" interp="linr"  time="0/1" value="1" leadInLength="0/1"  name="volume"/>
             <Parameter id="7660"  name="captions"/>
            </Parameters>
            <Attributes>
             <Attribute id="7661" value="" name="ident"/>
             <Attribute id="7662" value="48000" name="sampleRate"/>
             <Attribute id="7663" value="16" name="bitDepth"/>
             <Attribute id="7664" value="1" name="gain"/>
             <Attribute id="7665" value="0" name="mixToMono"/>
            </Attributes>
            <MetaData>
             <entry key="WinSubProjectDisplayName" val=""/>
            </MetaData>
           </AMFile>
           <AMFile id="7666" start="2433" duration="10592" scalar="1/1" mediaStart="3054/1" mediaDuration="10592/1" trackNumber="0" src="29" channelNumber="0" >
            <Parameters>
             <InterpolatingParam id="7667" interp="linr"  time="0/1" value="1" leadInLength="0/1"  name="volume"/>
             <Parameter id="7668"  name="captions"/>
            </Parameters>
            <Attributes>
             <Attribute id="7669" value="" name="ident"/>
             <Attribute id="7670" value="48000" name="sampleRate"/>
             <Attribute id="7671" value="16" name="bitDepth"/>
             <Attribute id="7672" value="1" name="gain"/>
             <Attribute id="7673" value="0" name="mixToMono"/>
            </Attributes>
            <MetaData>
             <entry key="WinSubProjectDisplayName" val=""/>
            </MetaData>
           </AMFile>
          </Medias>
         </GenericTrack>
        </StitchedMedia>
        <StitchedMedia id="7674" start="2285" duration="21" scalar="1/1" mediaStart="3296/1" mediaDuration="21/1" minMediaStart="0/1" >
         <Transformer>
          <VectorParam id="7675"  name="translation">
           <InterpolatingParam id="7676" interp="linr"  time="0/1" value="0" leadInLength="0/1"  />
           <InterpolatingParam id="7677" interp="linr"  time="0/1" value="0" leadInLength="0/1"  />
           <InterpolatingParam id="7678" interp="linr"  time="0/1" value="0" leadInLength="0/1"  />
          </VectorParam>
          <VectorParam id="7679"  name="rotation">
           <InterpolatingParam id="7680" interp="linr"  time="0/1" value="0" leadInLength="0/1"  />
           <InterpolatingParam id="7681" interp="linr"  time="0/1" value="0" leadInLength="0/1"  />
           <InterpolatingParam id="7682" interp="linr"  time="0/1" value="0" leadInLength="0/1"  />
          </VectorParam>
          <VectorParam id="7683"  name="shear">
           <InterpolatingParam id="7684" interp="linr"  time="0/1" value="0" leadInLength="0/1"  />
           <InterpolatingParam id="7685" interp="linr"  time="0/1" value="0" leadInLength="0/1"  />
           <InterpolatingParam id="7686" interp="linr"  time="0/1" value="0" leadInLength="0/1"  />
          </VectorParam>
          <VectorParam id="7687"  name="scale">
           <InterpolatingParam id="7688" interp="linr"  time="0/1" value="1" leadInLength="0/1"  />
           <InterpolatingParam id="7689" interp="linr"  time="0/1" value="1" leadInLength="0/1"  />
           <InterpolatingParam id="7690" interp="linr"  time="0/1" value="1" leadInLength="0/1"  />
          </VectorParam>
          <VectorParam id="7691"  name="anchor">
           <InterpolatingParam id="7692" interp="linr"  time="0/1" value="0" leadInLength="0/1"  />
           <InterpolatingParam id="7693" interp="linr"  time="0/1" value="0" leadInLength="0/1"  />
           <InterpolatingParam id="7694" interp="linr"  time="0/1" value="0" leadInLength="0/1"  />
          </VectorParam>
         </Transformer>
         <Parameters>
          <InterpolatingParam id="7695" interp="linr"  time="0/1" value="1" leadInLength="0/1"  name="cursorOpacity"/>
          <InterpolatingParam id="7696" interp="linr"  time="0/1" value="1" leadInLength="0/1"  name="cursorScale"/>
          <InterpolatingParam id="7697" interp="linr"  name="volume">
           <Keyframes>
           <Keyframe id="7698"  time="0/1" value="1.5625" leadInLength="0/1"  />
           <Keyframe id="7699"  time="3288/1" value="1.5625" leadInLength="0/1"  />
           </Keyframes>
          </InterpolatingParam>
          <Parameter id="7700"  name="captions"/>
         </Parameters>
         <Effects>
          <GenericEffect id="7701" name = "WinCompression" >
           <Parameters>
           <InterpolatingParam id="7702" interp="linr"  time="0/1" value="0" leadInLength="0/1"   name="attack"/>
           <InterpolatingParam id="7703" interp="linr"  time="0/1" value="9" leadInLength="0/1"   name="gain"/>
           <Parameter id="7704"   name="preset">
            <Keyframes>
            <Keyframe id="7705"  time="0/1" value="1" leadInLength="0/1"  />
            </Keyframes>
           </Parameter>
           <InterpolatingParam id="7706" interp="linr"  time="0/1" value="10" leadInLength="0/1"   name="ratio"/>
           <InterpolatingParam id="7707" interp="linr"  time="0/1" value="3500" leadInLength="0/1"   name="release"/>
           <InterpolatingParam id="7708" interp="linr"  time="0/1" value="-20" leadInLength="0/1"   name="threshold"/>
           </Parameters>
          </GenericEffect>
          <GenericEffect id="7709" name = "NoiseReduction" >
           <Parameters>
           <InterpolatingParam id="7710" interp="linr"  time="0/1" value="20" leadInLength="0/1"   name="denoiserAmount"/>
           <InterpolatingParam id="7711" interp="linr"  time="0/1" value="0" leadInLength="0/1"   name="denoiserThreshold"/>
           <Parameter id="7712"   name="noiseProfile">
            <Keyframes>
            <Keyframe id="7713"  time="0/1" value="FBAAAAIAAABErAAAAQIAAIA/l8JLuYTCrOB9wgsMfMJoG4LCaWeFwkohjMJdoYvCYv6LwlnvjcKf&#xD;&#xa;nYzChXWPwlcejsL6fo/C5OmQwgVTj8IVMI/COiWRwoWFkcJ2tYzC8I6MwuQbjcJvEo/ClwGRwheQ&#xD;&#xa;lsK8+pbCN5qVwlielcJ905rCmu+fwst0ncIC/JvCdIWdws3snsKxC5zCfh2cwniFnMJRypzCtRag&#xD;&#xa;wuoCosJQt6DCzoegwhY9ocIWN6PCsNqkwrSlpMJ6maTCYpCkwmLvo8Li+KPCyEamwnBNqMLMcqrC&#xD;&#xa;v2GswoS+q8Kk86vCVACuwnvUr8JxZa/CqHqswrdXq8LqT6zCZsuswhZxrMLBX67CnmqvwpYyrsKc&#xD;&#xa;pq3CJFGvwghrsMK3y6/CXoCtwmWZr8ICi7DCgRezwogSs8Joq7LCm0Sxwuz/scIfibTCOOK1wlIM&#xD;&#xa;t8K87LfCj3K3wqDYs8KT1bLCVsW0wnZ0tcJGhLXCfPe0ws/ntcLGXrbCzAG1wtXdtcKxxrTC1Ay1&#xD;&#xa;wquGtcLjELbC8Zi2wl7rtsJBYbbCMF+1wrEutMKuibTCSFa1wpvktMIu3rTCtGe4wjaduMIKErfC&#xD;&#xa;SLa1wvS/tsJmZrjCdn63whjft8Ie47rCfdi5wmjpt8KKCLjCXmC5wsOQt8JDGbfCK4m4wmpvuMLL&#xD;&#xa;nLjC80q4wjUVusKunLjC1Be5wg4cuMLxCbjCwfW4wmi7ucIOdbvCbLG6whqdusKYErrCbpC4wmq0&#xD;&#xa;ucIoWrvCaNe6ws4iu8LSc7zCUNa7wuJZvMIwLL3CWe28wps2v8J2l77Cv3W+wvgavsKAwrzCQCy8&#xD;&#xa;wgBRu8Km8brChSa6wuM4u8IaaL3Cf5y9wg4hvMLur7vCIpO9wm0fvcIGNLzC7Le8wvKgvMKQrLzC&#xD;&#xa;p6+9wtYtvsJcxbzCQC29wjDqvcKeNbzCH2W8wpbZvsLCTL7CnjO+wuIsvsJs67vCwLq9wiKhvsLs&#xD;&#xa;o73C5Du9wqqhvcLwKr7C2kq/wqEMv8LVCb7Cpla+wsXpvMIs6bvC/fO8wueCvsIM4b3CxtC+wmTo&#xD;&#xa;vcI+arzCTNe8wiFNv8IvKL/Cpg+/woK1v8L4i7/CNv2+wmsVv8KWj77CVym+wnAlv8Joa8DCFDzA&#xD;&#xa;wiQYwcLSIcHCxILAwuxKvsJYm77CPoHAwiYPwcLuy77CcQa+wrB4vcKwYLzCxKW8worIvcIlzr/C&#xD;&#xa;OMC+wuRDvcJGZ7zCxFi9wuQzvMLPbbvCwIe+wm7bvcLm9L3COH6+wuuJvMK2B73CYb+9wqbxvMK/&#xD;&#xa;mL7CqIe9wvCavMKs7L3Ckau8wkpavMKt9LzCF8S+wmgKvsKCy73ClrG+wmIovcIns73Cmg+/wgw7&#xD;&#xa;wMI607/CpEq/wmwVvcJLsLvCMD68wuxdvcIeI7/C+bS+wpxfvsJyxsDC1tO/wmtrv8LNnb/CQiK+&#xD;&#xa;wlz7vcLa6L/CUMXBwtrQwcIAw8HCNJHBwvphwMKqc7/CSkW/wjkvwMK8ccHCHmDBwlKAwcKu+MDC&#xD;&#xa;zErCwuqgwsLa+MLC753DwmjuxcLEWMfCkePFwo47xsKnX8XC7tTCwuf3wsL+HcLCTcTBwmg6w8Is&#xD;&#xa;RMPC+qjDwiyGxMLi58TCnWvFwpjsxsKzCMbCyCTDwpM2wcJWGMPCvuDFwh42xsIfyMTCeLTFwuH7&#xD;&#xa;xMJctcfCVv3HwpTGx8J8b8jCqhjHwrgkx8LXNsfCZkLGwnxSxcL8csXCbu7FwsaQyMLa68fCo0XH&#xD;&#xa;woruxMJGHsbCORbJwry2yMLIUsfCxlfGwmLoxcLSPMnCYPDJwkw3yMKc7crC8vDLwug2y8Lu28vC&#xD;&#xa;OKvMwvLpysKGj8rCtNXLwrMay8KdGMrCUr3JwgIVy8J64MvCkbTJwjh4x8JGI8bCvBXHwnoPycKN&#xD;&#xa;Ss3CuC/Nwuywy8IkJ8zCx9/KwnB5ycKnk8nCenLJwnN6ycKc+sjCLFzJwuTrzMJkJM/CY5vOwoYO&#xD;&#xa;zsLU987CVKfNwiZZzcJQxNDCICHVwi0d18Kc29jCIF/YwtKo2MKeBNvCwpTawmY/2sJXPdvCZZXY&#xD;&#xa;whB818IQNdjCDF3XwtWC1sIGF9fCfFfXwkBy2MJ6+9nC1hfZwi5k2cJlfNjCnEPYwm/N1cKGOdXC&#xD;&#xa;Yk/XwgXL2MJSytfCgpTWwqTT1sJOGtnCrF/ZwtcT2cK08NjCscHZwpQ72sLJ/NrCy3zYwmCk18LE&#xD;&#xa;O9fC6hbYwtYU2cJN/dnC1EbZwrw/2cIqyNbCDr7Xwvb02cLQ+dnCaJvXwuYO18KSodnC1NnawtJJ&#xD;&#xa;18ISLtjC90nawoel2cIwl9jCi0XZwih328Ks7NjC5KzZwqui2cJw0tjCukLYws+O2MJaqtrCUuXa&#xD;&#xa;wviX2MIKxtfCnqXXwhjI2MJwAtvCIFvcwgCL2cJ0/djCdyXawh9H2cJ+ntfCy4TXwhqF2MJ68NnC&#xD;&#xa;CzvYwljT2cIkP9vCIs/bwjpB2sK2A9rCXt/awjZH2sIfltvCKWPcwjp53MKrGd3CaBPewj/03MJm&#xD;&#xa;U97CphfgwlJp3cKQpt3Crxjewm7d28Kq/9vCNNXcwqY728IUH9vCkirbwgIt28KK19zCjmzdwoBH&#xD;&#xa;3MIAUtvCUq3bwo8f28Ig09jCiyfZwhbx2sLWe9zCvgzbwmwI2sI2nNvC0lvdwg6128I8PNvCLufa&#xD;&#xa;wkyK28KkitzCJIDcwmAO28L0TNrCDHXawjla28IQkdzCoCDcwjRI3MJVUdvCtujZwnCs2sK8Yd3C&#xD;&#xa;iGbbwuSB2cImFNvCCI7rwoA/l8JLuYTCrOB9wgsMfMJoG4LCaWeFwkohjMJdoYvCYv6LwlnvjcKf&#xD;&#xa;nYzChXWPwlcejsL6fo/C5OmQwgVTj8IVMI/COiWRwoWFkcJ2tYzC8I6MwuQbjcJvEo/ClwGRwheQ&#xD;&#xa;lsK8+pbCN5qVwlielcJ905rCmu+fwst0ncIC/JvCdIWdws3snsKxC5zCfh2cwniFnMJRypzCtRag&#xD;&#xa;wuoCosJQt6DCzoegwhY9ocIWN6PCsNqkwrSlpMJ6maTCYpCkwmLvo8Li+KPCyEamwnBNqMLMcqrC&#xD;&#xa;v2GswoS+q8Kk86vCVACuwnvUr8JxZa/CqHqswrdXq8LqT6zCZsuswhZxrMLBX67CnmqvwpYyrsKc&#xD;&#xa;pq3CJFGvwghrsMK3y6/CXoCtwmWZr8ICi7DCgRezwogSs8Joq7LCm0Sxwuz/scIfibTCOOK1wlIM&#xD;&#xa;t8K87LfCj3K3wqDYs8KT1bLCVsW0wnZ0tcJGhLXCfPe0ws/ntcLGXrbCzAG1wtXdtcKxxrTC1Ay1&#xD;&#xa;wquGtcLjELbC8Zi2wl7rtsJBYbbCMF+1wrEutMKuibTCSFa1wpvktMIu3rTCtGe4wjaduMIKErfC&#xD;&#xa;SLa1wvS/tsJmZrjCdn63whjft8Ie47rCfdi5wmjpt8KKCLjCXmC5wsOQt8JDGbfCK4m4wmpvuMLL&#xD;&#xa;nLjC80q4wjUVusKunLjC1Be5wg4cuMLxCbjCwfW4wmi7ucIOdbvCbLG6whqdusKYErrCbpC4wmq0&#xD;&#xa;ucIoWrvCaNe6ws4iu8LSc7zCUNa7wuJZvMIwLL3CWe28wps2v8J2l77Cv3W+wvgavsKAwrzCQCy8&#xD;&#xa;wgBRu8Km8brChSa6wuM4u8IaaL3Cf5y9wg4hvMLur7vCIpO9wm0fvcIGNLzC7Le8wvKgvMKQrLzC&#xD;&#xa;p6+9wtYtvsJcxbzCQC29wjDqvcKeNbzCH2W8wpbZvsLCTL7CnjO+wuIsvsJs67vCwLq9wiKhvsLs&#xD;&#xa;o73C5Du9wqqhvcLwKr7C2kq/wqEMv8LVCb7Cpla+wsXpvMIs6bvC/fO8wueCvsIM4b3CxtC+wmTo&#xD;&#xa;vcI+arzCTNe8wiFNv8IvKL/Cpg+/woK1v8L4i7/CNv2+wmsVv8KWj77CVym+wnAlv8Joa8DCFDzA&#xD;&#xa;wiQYwcLSIcHCxILAwuxKvsJYm77CPoHAwiYPwcLuy77CcQa+wrB4vcKwYLzCxKW8worIvcIlzr/C&#xD;&#xa;OMC+wuRDvcJGZ7zCxFi9wuQzvMLPbbvCwIe+wm7bvcLm9L3COH6+wuuJvMK2B73CYb+9wqbxvMK/&#xD;&#xa;mL7CqIe9wvCavMKs7L3Ckau8wkpavMKt9LzCF8S+wmgKvsKCy73ClrG+wmIovcIns73Cmg+/wgw7&#xD;&#xa;wMI607/CpEq/wmwVvcJLsLvCMD68wuxdvcIeI7/C+bS+wpxfvsJyxsDC1tO/wmtrv8LNnb/CQiK+&#xD;&#xa;wlz7vcLa6L/CUMXBwtrQwcIAw8HCNJHBwvphwMKqc7/CSkW/wjkvwMK8ccHCHmDBwlKAwcKu+MDC&#xD;&#xa;zErCwuqgwsLa+MLC753DwmjuxcLEWMfCkePFwo47xsKnX8XC7tTCwuf3wsL+HcLCTcTBwmg6w8Is&#xD;&#xa;RMPC+qjDwiyGxMLi58TCnWvFwpjsxsKzCMbCyCTDwpM2wcJWGMPCvuDFwh42xsIfyMTCeLTFwuH7&#xD;&#xa;xMJctcfCVv3HwpTGx8J8b8jCqhjHwrgkx8LXNsfCZkLGwnxSxcL8csXCbu7FwsaQyMLa68fCo0XH&#xD;&#xa;woruxMJGHsbCORbJwry2yMLIUsfCxlfGwmLoxcLSPMnCYPDJwkw3yMKc7crC8vDLwug2y8Lu28vC&#xD;&#xa;OKvMwvLpysKGj8rCtNXLwrMay8KdGMrCUr3JwgIVy8J64MvCkbTJwjh4x8JGI8bCvBXHwnoPycKN&#xD;&#xa;Ss3CuC/Nwuywy8IkJ8zCx9/KwnB5ycKnk8nCenLJwnN6ycKc+sjCLFzJwuTrzMJkJM/CY5vOwoYO&#xD;&#xa;zsLU987CVKfNwiZZzcJQxNDCICHVwi0d18Kc29jCIF/YwtKo2MKeBNvCwpTawmY/2sJXPdvCZZXY&#xD;&#xa;whB818IQNdjCDF3XwtWC1sIGF9fCfFfXwkBy2MJ6+9nC1hfZwi5k2cJlfNjCnEPYwm/N1cKGOdXC&#xD;&#xa;Yk/XwgXL2MJSytfCgpTWwqTT1sJOGtnCrF/ZwtcT2cK08NjCscHZwpQ72sLJ/NrCy3zYwmCk18LE&#xD;&#xa;O9fC6hbYwtYU2cJN/dnC1EbZwrw/2cIqyNbCDr7Xwvb02cLQ+dnCaJvXwuYO18KSodnC1NnawtJJ&#xD;&#xa;18ISLtjC90nawoel2cIwl9jCi0XZwih328Ks7NjC5KzZwqui2cJw0tjCukLYws+O2MJaqtrCUuXa&#xD;&#xa;wviX2MIKxtfCnqXXwhjI2MJwAtvCIFvcwgCL2cJ0/djCdyXawh9H2cJ+ntfCy4TXwhqF2MJ68NnC&#xD;&#xa;CzvYwljT2cIkP9vCIs/bwjpB2sK2A9rCXt/awjZH2sIfltvCKWPcwjp53MKrGd3CaBPewj/03MJm&#xD;&#xa;U97CphfgwlJp3cKQpt3Crxjewm7d28Kq/9vCNNXcwqY728IUH9vCkirbwgIt28KK19zCjmzdwoBH&#xD;&#xa;3MIAUtvCUq3bwo8f28Ig09jCiyfZwhbx2sLWe9zCvgzbwmwI2sI2nNvC0lvdwg6128I8PNvCLufa&#xD;&#xa;wkyK28KkitzCJIDcwmAO28L0TNrCDHXawjla28IQkdzCoCDcwjRI3MJVUdvCtujZwnCs2sK8Yd3C&#xD;&#xa;iGbbwuSB2cImFNvCCI7r" leadInLength="0/1"  />
            </Keyframes>
           </Parameter>
           </Parameters>
          </GenericEffect>
          <GenericEffect id="7714" name = "Declipper" >
           <Parameters>
           <InterpolatingParam id="7715" interp="linr"  time="0/1" value="-1" leadInLength="0/1"   name="sensitivity"/>
           </Parameters>
          </GenericEffect>
          <GenericEffect id="7716" name = "Declicker" >
           <Parameters>
           <InterpolatingParam id="7717" interp="linr"  time="0/1" value="3" leadInLength="0/1"   name="sensitivity"/>
           </Parameters>
          </GenericEffect>
         </Effects>
         <Attributes>
          <Attribute id="7718" value="" name="ident"/>
          <Attribute id="7719" value="0" name="mixToMono"/>
         </Attributes>
         <MetaData>
          <entry key="WinSubProjectDisplayName" val=""/>
         </MetaData>
         <ExtraData>
          <Entry key="ZoomPanBin">
           <ZoomPanBin id="7720"  >
            <ZoomPanKeyframes>
            </ZoomPanKeyframes>
           </ZoomPanBin>
          </Entry>
          <Entry key="CursorEffectBin">
           <CursorEffectBin id="7721"  >
            <CursorEffectKeyframes>
            </CursorEffectKeyframes>
           </CursorEffectBin>
          </Entry>
         </ExtraData>
         <GenericTrack id="7722"  >
          <Attributes>
           <Attribute id="7723" value="" name="ident"/>
           <Attribute id="7724" value="0" name="audioMuted"/>
           <Attribute id="7725" value="0" name="videoHidden"/>
          </Attributes>
          <MetaData>
           <entry key="IsLocked" val="False"/>
           <entry key="WinTrackHeight" val="0"/>
          </MetaData>
          <Medias>
           <AMFile id="7726" start="0" duration="3443" scalar="1/1" mediaStart="0/1" mediaDuration="3443/1" trackNumber="0" src="29" channelNumber="0" >
            <Parameters>
             <InterpolatingParam id="7727" interp="linr"  time="0/1" value="1" leadInLength="0/1"  name="volume"/>
             <Parameter id="7728"  name="captions"/>
            </Parameters>
            <Attributes>
             <Attribute id="7729" value="" name="ident"/>
             <Attribute id="7730" value="48000" name="sampleRate"/>
             <Attribute id="7731" value="16" name="bitDepth"/>
             <Attribute id="7732" value="1" name="gain"/>
             <Attribute id="7733" value="0" name="mixToMono"/>
            </Attributes>
            <MetaData>
             <entry key="WinSubProjectDisplayName" val=""/>
            </MetaData>
           </AMFile>
           <AMFile id="7734" start="3443" duration="103" scalar="1/1" mediaStart="3450/1" mediaDuration="103/1" trackNumber="0" src="29" channelNumber="0" >
            <Parameters>
             <InterpolatingParam id="7735" interp="linr"  time="0/1" value="1" leadInLength="0/1"  name="volume"/>
             <Parameter id="7736"  name="captions"/>
            </Parameters>
            <Attributes>
             <Attribute id="7737" value="" name="ident"/>
             <Attribute id="7738" value="48000" name="sampleRate"/>
             <Attribute id="7739" value="16" name="bitDepth"/>
             <Attribute id="7740" value="1" name="gain"/>
             <Attribute id="7741" value="0" name="mixToMono"/>
            </Attributes>
            <MetaData>
             <entry key="WinSubProjectDisplayName" val=""/>
            </MetaData>
           </AMFile>
           <AMFile id="7742" start="3546" duration="10082" scalar="1/1" mediaStart="3564/1" mediaDuration="10082/1" trackNumber="0" src="29" channelNumber="0" >
            <Parameters>
             <InterpolatingParam id="7743" interp="linr"  time="0/1" value="1" leadInLength="0/1"  name="volume"/>
             <Parameter id="7744"  name="captions"/>
            </Parameters>
            <Attributes>
             <Attribute id="7745" value="" name="ident"/>
             <Attribute id="7746" value="48000" name="sampleRate"/>
             <Attribute id="7747" value="16" name="bitDepth"/>
             <Attribute id="7748" value="1" name="gain"/>
             <Attribute id="7749" value="0" name="mixToMono"/>
            </Attributes>
            <MetaData>
             <entry key="WinSubProjectDisplayName" val=""/>
            </MetaData>
           </AMFile>
          </Medias>
         </GenericTrack>
        </StitchedMedia>
        <StitchedMedia id="7750" start="2306" duration="366" scalar="1/1" mediaStart="3329/1" mediaDuration="366/1" minMediaStart="0/1" >
         <Transformer>
          <VectorParam id="7751"  name="translation">
           <InterpolatingParam id="7752" interp="linr"  time="0/1" value="0" leadInLength="0/1"  />
           <InterpolatingParam id="7753" interp="linr"  time="0/1" value="0" leadInLength="0/1"  />
           <InterpolatingParam id="7754" interp="linr"  time="0/1" value="0" leadInLength="0/1"  />
          </VectorParam>
          <VectorParam id="7755"  name="rotation">
           <InterpolatingParam id="7756" interp="linr"  time="0/1" value="0" leadInLength="0/1"  />
           <InterpolatingParam id="7757" interp="linr"  time="0/1" value="0" leadInLength="0/1"  />
           <InterpolatingParam id="7758" interp="linr"  time="0/1" value="0" leadInLength="0/1"  />
          </VectorParam>
          <VectorParam id="7759"  name="shear">
           <InterpolatingParam id="7760" interp="linr"  time="0/1" value="0" leadInLength="0/1"  />
           <InterpolatingParam id="7761" interp="linr"  time="0/1" value="0" leadInLength="0/1"  />
           <InterpolatingParam id="7762" interp="linr"  time="0/1" value="0" leadInLength="0/1"  />
          </VectorParam>
          <VectorParam id="7763"  name="scale">
           <InterpolatingParam id="7764" interp="linr"  time="0/1" value="1" leadInLength="0/1"  />
           <InterpolatingParam id="7765" interp="linr"  time="0/1" value="1" leadInLength="0/1"  />
           <InterpolatingParam id="7766" interp="linr"  time="0/1" value="1" leadInLength="0/1"  />
          </VectorParam>
          <VectorParam id="7767"  name="anchor">
           <InterpolatingParam id="7768" interp="linr"  time="0/1" value="0" leadInLength="0/1"  />
           <InterpolatingParam id="7769" interp="linr"  time="0/1" value="0" leadInLength="0/1"  />
           <InterpolatingParam id="7770" interp="linr"  time="0/1" value="0" leadInLength="0/1"  />
          </VectorParam>
         </Transformer>
         <Parameters>
          <InterpolatingParam id="7771" interp="linr"  time="0/1" value="1" leadInLength="0/1"  name="cursorOpacity"/>
          <InterpolatingParam id="7772" interp="linr"  time="0/1" value="1" leadInLength="0/1"  name="cursorScale"/>
          <InterpolatingParam id="7773" interp="linr"  name="volume">
           <Keyframes>
           <Keyframe id="7774"  time="0/1" value="1.5625" leadInLength="0/1"  />
           <Keyframe id="7775"  time="3288/1" value="1.5625" leadInLength="0/1"  />
           </Keyframes>
          </InterpolatingParam>
          <Parameter id="7776"  name="captions"/>
         </Parameters>
         <Effects>
          <GenericEffect id="7777" name = "WinCompression" >
           <Parameters>
           <InterpolatingParam id="7778" interp="linr"  time="0/1" value="0" leadInLength="0/1"   name="attack"/>
           <InterpolatingParam id="7779" interp="linr"  time="0/1" value="9" leadInLength="0/1"   name="gain"/>
           <Parameter id="7780"   name="preset">
            <Keyframes>
            <Keyframe id="7781"  time="0/1" value="1" leadInLength="0/1"  />
            </Keyframes>
           </Parameter>
           <InterpolatingParam id="7782" interp="linr"  time="0/1" value="10" leadInLength="0/1"   name="ratio"/>
           <InterpolatingParam id="7783" interp="linr"  time="0/1" value="3500" leadInLength="0/1"   name="release"/>
           <InterpolatingParam id="7784" interp="linr"  time="0/1" value="-20" leadInLength="0/1"   name="threshold"/>
           </Parameters>
          </GenericEffect>
          <GenericEffect id="7785" name = "NoiseReduction" >
           <Parameters>
           <InterpolatingParam id="7786" interp="linr"  time="0/1" value="20" leadInLength="0/1"   name="denoiserAmount"/>
           <InterpolatingParam id="7787" interp="linr"  time="0/1" value="0" leadInLength="0/1"   name="denoiserThreshold"/>
           <Parameter id="7788"   name="noiseProfile">
            <Keyframes>
            <Keyframe id="7789"  time="0/1" value="FBAAAAIAAABErAAAAQIAAIA/l8JLuYTCrOB9wgsMfMJoG4LCaWeFwkohjMJdoYvCYv6LwlnvjcKf&#xD;&#xa;nYzChXWPwlcejsL6fo/C5OmQwgVTj8IVMI/COiWRwoWFkcJ2tYzC8I6MwuQbjcJvEo/ClwGRwheQ&#xD;&#xa;lsK8+pbCN5qVwlielcJ905rCmu+fwst0ncIC/JvCdIWdws3snsKxC5zCfh2cwniFnMJRypzCtRag&#xD;&#xa;wuoCosJQt6DCzoegwhY9ocIWN6PCsNqkwrSlpMJ6maTCYpCkwmLvo8Li+KPCyEamwnBNqMLMcqrC&#xD;&#xa;v2GswoS+q8Kk86vCVACuwnvUr8JxZa/CqHqswrdXq8LqT6zCZsuswhZxrMLBX67CnmqvwpYyrsKc&#xD;&#xa;pq3CJFGvwghrsMK3y6/CXoCtwmWZr8ICi7DCgRezwogSs8Joq7LCm0Sxwuz/scIfibTCOOK1wlIM&#xD;&#xa;t8K87LfCj3K3wqDYs8KT1bLCVsW0wnZ0tcJGhLXCfPe0ws/ntcLGXrbCzAG1wtXdtcKxxrTC1Ay1&#xD;&#xa;wquGtcLjELbC8Zi2wl7rtsJBYbbCMF+1wrEutMKuibTCSFa1wpvktMIu3rTCtGe4wjaduMIKErfC&#xD;&#xa;SLa1wvS/tsJmZrjCdn63whjft8Ie47rCfdi5wmjpt8KKCLjCXmC5wsOQt8JDGbfCK4m4wmpvuMLL&#xD;&#xa;nLjC80q4wjUVusKunLjC1Be5wg4cuMLxCbjCwfW4wmi7ucIOdbvCbLG6whqdusKYErrCbpC4wmq0&#xD;&#xa;ucIoWrvCaNe6ws4iu8LSc7zCUNa7wuJZvMIwLL3CWe28wps2v8J2l77Cv3W+wvgavsKAwrzCQCy8&#xD;&#xa;wgBRu8Km8brChSa6wuM4u8IaaL3Cf5y9wg4hvMLur7vCIpO9wm0fvcIGNLzC7Le8wvKgvMKQrLzC&#xD;&#xa;p6+9wtYtvsJcxbzCQC29wjDqvcKeNbzCH2W8wpbZvsLCTL7CnjO+wuIsvsJs67vCwLq9wiKhvsLs&#xD;&#xa;o73C5Du9wqqhvcLwKr7C2kq/wqEMv8LVCb7Cpla+wsXpvMIs6bvC/fO8wueCvsIM4b3CxtC+wmTo&#xD;&#xa;vcI+arzCTNe8wiFNv8IvKL/Cpg+/woK1v8L4i7/CNv2+wmsVv8KWj77CVym+wnAlv8Joa8DCFDzA&#xD;&#xa;wiQYwcLSIcHCxILAwuxKvsJYm77CPoHAwiYPwcLuy77CcQa+wrB4vcKwYLzCxKW8worIvcIlzr/C&#xD;&#xa;OMC+wuRDvcJGZ7zCxFi9wuQzvMLPbbvCwIe+wm7bvcLm9L3COH6+wuuJvMK2B73CYb+9wqbxvMK/&#xD;&#xa;mL7CqIe9wvCavMKs7L3Ckau8wkpavMKt9LzCF8S+wmgKvsKCy73ClrG+wmIovcIns73Cmg+/wgw7&#xD;&#xa;wMI607/CpEq/wmwVvcJLsLvCMD68wuxdvcIeI7/C+bS+wpxfvsJyxsDC1tO/wmtrv8LNnb/CQiK+&#xD;&#xa;wlz7vcLa6L/CUMXBwtrQwcIAw8HCNJHBwvphwMKqc7/CSkW/wjkvwMK8ccHCHmDBwlKAwcKu+MDC&#xD;&#xa;zErCwuqgwsLa+MLC753DwmjuxcLEWMfCkePFwo47xsKnX8XC7tTCwuf3wsL+HcLCTcTBwmg6w8Is&#xD;&#xa;RMPC+qjDwiyGxMLi58TCnWvFwpjsxsKzCMbCyCTDwpM2wcJWGMPCvuDFwh42xsIfyMTCeLTFwuH7&#xD;&#xa;xMJctcfCVv3HwpTGx8J8b8jCqhjHwrgkx8LXNsfCZkLGwnxSxcL8csXCbu7FwsaQyMLa68fCo0XH&#xD;&#xa;woruxMJGHsbCORbJwry2yMLIUsfCxlfGwmLoxcLSPMnCYPDJwkw3yMKc7crC8vDLwug2y8Lu28vC&#xD;&#xa;OKvMwvLpysKGj8rCtNXLwrMay8KdGMrCUr3JwgIVy8J64MvCkbTJwjh4x8JGI8bCvBXHwnoPycKN&#xD;&#xa;Ss3CuC/Nwuywy8IkJ8zCx9/KwnB5ycKnk8nCenLJwnN6ycKc+sjCLFzJwuTrzMJkJM/CY5vOwoYO&#xD;&#xa;zsLU987CVKfNwiZZzcJQxNDCICHVwi0d18Kc29jCIF/YwtKo2MKeBNvCwpTawmY/2sJXPdvCZZXY&#xD;&#xa;whB818IQNdjCDF3XwtWC1sIGF9fCfFfXwkBy2MJ6+9nC1hfZwi5k2cJlfNjCnEPYwm/N1cKGOdXC&#xD;&#xa;Yk/XwgXL2MJSytfCgpTWwqTT1sJOGtnCrF/ZwtcT2cK08NjCscHZwpQ72sLJ/NrCy3zYwmCk18LE&#xD;&#xa;O9fC6hbYwtYU2cJN/dnC1EbZwrw/2cIqyNbCDr7Xwvb02cLQ+dnCaJvXwuYO18KSodnC1NnawtJJ&#xD;&#xa;18ISLtjC90nawoel2cIwl9jCi0XZwih328Ks7NjC5KzZwqui2cJw0tjCukLYws+O2MJaqtrCUuXa&#xD;&#xa;wviX2MIKxtfCnqXXwhjI2MJwAtvCIFvcwgCL2cJ0/djCdyXawh9H2cJ+ntfCy4TXwhqF2MJ68NnC&#xD;&#xa;CzvYwljT2cIkP9vCIs/bwjpB2sK2A9rCXt/awjZH2sIfltvCKWPcwjp53MKrGd3CaBPewj/03MJm&#xD;&#xa;U97CphfgwlJp3cKQpt3Crxjewm7d28Kq/9vCNNXcwqY728IUH9vCkirbwgIt28KK19zCjmzdwoBH&#xD;&#xa;3MIAUtvCUq3bwo8f28Ig09jCiyfZwhbx2sLWe9zCvgzbwmwI2sI2nNvC0lvdwg6128I8PNvCLufa&#xD;&#xa;wkyK28KkitzCJIDcwmAO28L0TNrCDHXawjla28IQkdzCoCDcwjRI3MJVUdvCtujZwnCs2sK8Yd3C&#xD;&#xa;iGbbwuSB2cImFNvCCI7rwoA/l8JLuYTCrOB9wgsMfMJoG4LCaWeFwkohjMJdoYvCYv6LwlnvjcKf&#xD;&#xa;nYzChXWPwlcejsL6fo/C5OmQwgVTj8IVMI/COiWRwoWFkcJ2tYzC8I6MwuQbjcJvEo/ClwGRwheQ&#xD;&#xa;lsK8+pbCN5qVwlielcJ905rCmu+fwst0ncIC/JvCdIWdws3snsKxC5zCfh2cwniFnMJRypzCtRag&#xD;&#xa;wuoCosJQt6DCzoegwhY9ocIWN6PCsNqkwrSlpMJ6maTCYpCkwmLvo8Li+KPCyEamwnBNqMLMcqrC&#xD;&#xa;v2GswoS+q8Kk86vCVACuwnvUr8JxZa/CqHqswrdXq8LqT6zCZsuswhZxrMLBX67CnmqvwpYyrsKc&#xD;&#xa;pq3CJFGvwghrsMK3y6/CXoCtwmWZr8ICi7DCgRezwogSs8Joq7LCm0Sxwuz/scIfibTCOOK1wlIM&#xD;&#xa;t8K87LfCj3K3wqDYs8KT1bLCVsW0wnZ0tcJGhLXCfPe0ws/ntcLGXrbCzAG1wtXdtcKxxrTC1Ay1&#xD;&#xa;wquGtcLjELbC8Zi2wl7rtsJBYbbCMF+1wrEutMKuibTCSFa1wpvktMIu3rTCtGe4wjaduMIKErfC&#xD;&#xa;SLa1wvS/tsJmZrjCdn63whjft8Ie47rCfdi5wmjpt8KKCLjCXmC5wsOQt8JDGbfCK4m4wmpvuMLL&#xD;&#xa;nLjC80q4wjUVusKunLjC1Be5wg4cuMLxCbjCwfW4wmi7ucIOdbvCbLG6whqdusKYErrCbpC4wmq0&#xD;&#xa;ucIoWrvCaNe6ws4iu8LSc7zCUNa7wuJZvMIwLL3CWe28wps2v8J2l77Cv3W+wvgavsKAwrzCQCy8&#xD;&#xa;wgBRu8Km8brChSa6wuM4u8IaaL3Cf5y9wg4hvMLur7vCIpO9wm0fvcIGNLzC7Le8wvKgvMKQrLzC&#xD;&#xa;p6+9wtYtvsJcxbzCQC29wjDqvcKeNbzCH2W8wpbZvsLCTL7CnjO+wuIsvsJs67vCwLq9wiKhvsLs&#xD;&#xa;o73C5Du9wqqhvcLwKr7C2kq/wqEMv8LVCb7Cpla+wsXpvMIs6bvC/fO8wueCvsIM4b3CxtC+wmTo&#xD;&#xa;vcI+arzCTNe8wiFNv8IvKL/Cpg+/woK1v8L4i7/CNv2+wmsVv8KWj77CVym+wnAlv8Joa8DCFDzA&#xD;&#xa;wiQYwcLSIcHCxILAwuxKvsJYm77CPoHAwiYPwcLuy77CcQa+wrB4vcKwYLzCxKW8worIvcIlzr/C&#xD;&#xa;OMC+wuRDvcJGZ7zCxFi9wuQzvMLPbbvCwIe+wm7bvcLm9L3COH6+wuuJvMK2B73CYb+9wqbxvMK/&#xD;&#xa;mL7CqIe9wvCavMKs7L3Ckau8wkpavMKt9LzCF8S+wmgKvsKCy73ClrG+wmIovcIns73Cmg+/wgw7&#xD;&#xa;wMI607/CpEq/wmwVvcJLsLvCMD68wuxdvcIeI7/C+bS+wpxfvsJyxsDC1tO/wmtrv8LNnb/CQiK+&#xD;&#xa;wlz7vcLa6L/CUMXBwtrQwcIAw8HCNJHBwvphwMKqc7/CSkW/wjkvwMK8ccHCHmDBwlKAwcKu+MDC&#xD;&#xa;zErCwuqgwsLa+MLC753DwmjuxcLEWMfCkePFwo47xsKnX8XC7tTCwuf3wsL+HcLCTcTBwmg6w8Is&#xD;&#xa;RMPC+qjDwiyGxMLi58TCnWvFwpjsxsKzCMbCyCTDwpM2wcJWGMPCvuDFwh42xsIfyMTCeLTFwuH7&#xD;&#xa;xMJctcfCVv3HwpTGx8J8b8jCqhjHwrgkx8LXNsfCZkLGwnxSxcL8csXCbu7FwsaQyMLa68fCo0XH&#xD;&#xa;woruxMJGHsbCORbJwry2yMLIUsfCxlfGwmLoxcLSPMnCYPDJwkw3yMKc7crC8vDLwug2y8Lu28vC&#xD;&#xa;OKvMwvLpysKGj8rCtNXLwrMay8KdGMrCUr3JwgIVy8J64MvCkbTJwjh4x8JGI8bCvBXHwnoPycKN&#xD;&#xa;Ss3CuC/Nwuywy8IkJ8zCx9/KwnB5ycKnk8nCenLJwnN6ycKc+sjCLFzJwuTrzMJkJM/CY5vOwoYO&#xD;&#xa;zsLU987CVKfNwiZZzcJQxNDCICHVwi0d18Kc29jCIF/YwtKo2MKeBNvCwpTawmY/2sJXPdvCZZXY&#xD;&#xa;whB818IQNdjCDF3XwtWC1sIGF9fCfFfXwkBy2MJ6+9nC1hfZwi5k2cJlfNjCnEPYwm/N1cKGOdXC&#xD;&#xa;Yk/XwgXL2MJSytfCgpTWwqTT1sJOGtnCrF/ZwtcT2cK08NjCscHZwpQ72sLJ/NrCy3zYwmCk18LE&#xD;&#xa;O9fC6hbYwtYU2cJN/dnC1EbZwrw/2cIqyNbCDr7Xwvb02cLQ+dnCaJvXwuYO18KSodnC1NnawtJJ&#xD;&#xa;18ISLtjC90nawoel2cIwl9jCi0XZwih328Ks7NjC5KzZwqui2cJw0tjCukLYws+O2MJaqtrCUuXa&#xD;&#xa;wviX2MIKxtfCnqXXwhjI2MJwAtvCIFvcwgCL2cJ0/djCdyXawh9H2cJ+ntfCy4TXwhqF2MJ68NnC&#xD;&#xa;CzvYwljT2cIkP9vCIs/bwjpB2sK2A9rCXt/awjZH2sIfltvCKWPcwjp53MKrGd3CaBPewj/03MJm&#xD;&#xa;U97CphfgwlJp3cKQpt3Crxjewm7d28Kq/9vCNNXcwqY728IUH9vCkirbwgIt28KK19zCjmzdwoBH&#xD;&#xa;3MIAUtvCUq3bwo8f28Ig09jCiyfZwhbx2sLWe9zCvgzbwmwI2sI2nNvC0lvdwg6128I8PNvCLufa&#xD;&#xa;wkyK28KkitzCJIDcwmAO28L0TNrCDHXawjla28IQkdzCoCDcwjRI3MJVUdvCtujZwnCs2sK8Yd3C&#xD;&#xa;iGbbwuSB2cImFNvCCI7r" leadInLength="0/1"  />
            </Keyframes>
           </Parameter>
           </Parameters>
          </GenericEffect>
          <GenericEffect id="7790" name = "Declipper" >
           <Parameters>
           <InterpolatingParam id="7791" interp="linr"  time="0/1" value="-1" leadInLength="0/1"   name="sensitivity"/>
           </Parameters>
          </GenericEffect>
          <GenericEffect id="7792" name = "Declicker" >
           <Parameters>
           <InterpolatingParam id="7793" interp="linr"  time="0/1" value="3" leadInLength="0/1"   name="sensitivity"/>
           </Parameters>
          </GenericEffect>
         </Effects>
         <Attributes>
          <Attribute id="7794" value="" name="ident"/>
          <Attribute id="7795" value="0" name="mixToMono"/>
         </Attributes>
         <MetaData>
          <entry key="WinSubProjectDisplayName" val=""/>
         </MetaData>
         <ExtraData>
          <Entry key="ZoomPanBin">
           <ZoomPanBin id="7796"  >
            <ZoomPanKeyframes>
            </ZoomPanKeyframes>
           </ZoomPanBin>
          </Entry>
          <Entry key="CursorEffectBin">
           <CursorEffectBin id="7797"  >
            <CursorEffectKeyframes>
            </CursorEffectKeyframes>
           </CursorEffectBin>
          </Entry>
         </ExtraData>
         <GenericTrack id="7798"  >
          <Attributes>
           <Attribute id="7799" value="" name="ident"/>
           <Attribute id="7800" value="0" name="audioMuted"/>
           <Attribute id="7801" value="0" name="videoHidden"/>
          </Attributes>
          <MetaData>
           <entry key="IsLocked" val="False"/>
           <entry key="WinTrackHeight" val="0"/>
          </MetaData>
          <Medias>
           <AMFile id="7802" start="0" duration="3443" scalar="1/1" mediaStart="0/1" mediaDuration="3443/1" trackNumber="0" src="29" channelNumber="0" >
            <Parameters>
             <InterpolatingParam id="7803" interp="linr"  time="0/1" value="1" leadInLength="0/1"  name="volume"/>
             <Parameter id="7804"  name="captions"/>
            </Parameters>
            <Attributes>
             <Attribute id="7805" value="" name="ident"/>
             <Attribute id="7806" value="48000" name="sampleRate"/>
             <Attribute id="7807" value="16" name="bitDepth"/>
             <Attribute id="7808" value="1" name="gain"/>
             <Attribute id="7809" value="0" name="mixToMono"/>
            </Attributes>
            <MetaData>
             <entry key="WinSubProjectDisplayName" val=""/>
            </MetaData>
           </AMFile>
           <AMFile id="7810" start="3443" duration="103" scalar="1/1" mediaStart="3450/1" mediaDuration="103/1" trackNumber="0" src="29" channelNumber="0" >
            <Parameters>
             <InterpolatingParam id="7811" interp="linr"  time="0/1" value="1" leadInLength="0/1"  name="volume"/>
             <Parameter id="7812"  name="captions"/>
            </Parameters>
            <Attributes>
             <Attribute id="7813" value="" name="ident"/>
             <Attribute id="7814" value="48000" name="sampleRate"/>
             <Attribute id="7815" value="16" name="bitDepth"/>
             <Attribute id="7816" value="1" name="gain"/>
             <Attribute id="7817" value="0" name="mixToMono"/>
            </Attributes>
            <MetaData>
             <entry key="WinSubProjectDisplayName" val=""/>
            </MetaData>
           </AMFile>
           <AMFile id="7818" start="3546" duration="10082" scalar="1/1" mediaStart="3564/1" mediaDuration="10082/1" trackNumber="0" src="29" channelNumber="0" >
            <Parameters>
             <InterpolatingParam id="7819" interp="linr"  time="0/1" value="1" leadInLength="0/1"  name="volume"/>
             <Parameter id="7820"  name="captions"/>
            </Parameters>
            <Attributes>
             <Attribute id="7821" value="" name="ident"/>
             <Attribute id="7822" value="48000" name="sampleRate"/>
             <Attribute id="7823" value="16" name="bitDepth"/>
             <Attribute id="7824" value="1" name="gain"/>
             <Attribute id="7825" value="0" name="mixToMono"/>
            </Attributes>
            <MetaData>
             <entry key="WinSubProjectDisplayName" val=""/>
            </MetaData>
           </AMFile>
          </Medias>
         </GenericTrack>
        </StitchedMedia>
        <StitchedMedia id="7826" start="2672" duration="142" scalar="1/1" mediaStart="3087/1" mediaDuration="142/1" minMediaStart="0/1" >
         <Transformer>
          <VectorParam id="7827"  name="translation">
           <InterpolatingParam id="7828" interp="linr"  time="0/1" value="0" leadInLength="0/1"  />
           <InterpolatingParam id="7829" interp="linr"  time="0/1" value="0" leadInLength="0/1"  />
           <InterpolatingParam id="7830" interp="linr"  time="0/1" value="0" leadInLength="0/1"  />
          </VectorParam>
          <VectorParam id="7831"  name="rotation">
           <InterpolatingParam id="7832" interp="linr"  time="0/1" value="0" leadInLength="0/1"  />
           <InterpolatingParam id="7833" interp="linr"  time="0/1" value="0" leadInLength="0/1"  />
           <InterpolatingParam id="7834" interp="linr"  time="0/1" value="0" leadInLength="0/1"  />
          </VectorParam>
          <VectorParam id="7835"  name="shear">
           <InterpolatingParam id="7836" interp="linr"  time="0/1" value="0" leadInLength="0/1"  />
           <InterpolatingParam id="7837" interp="linr"  time="0/1" value="0" leadInLength="0/1"  />
           <InterpolatingParam id="7838" interp="linr"  time="0/1" value="0" leadInLength="0/1"  />
          </VectorParam>
          <VectorParam id="7839"  name="scale">
           <InterpolatingParam id="7840" interp="linr"  time="0/1" value="1" leadInLength="0/1"  />
           <InterpolatingParam id="7841" interp="linr"  time="0/1" value="1" leadInLength="0/1"  />
           <InterpolatingParam id="7842" interp="linr"  time="0/1" value="1" leadInLength="0/1"  />
          </VectorParam>
          <VectorParam id="7843"  name="anchor">
           <InterpolatingParam id="7844" interp="linr"  time="0/1" value="0" leadInLength="0/1"  />
           <InterpolatingParam id="7845" interp="linr"  time="0/1" value="0" leadInLength="0/1"  />
           <InterpolatingParam id="7846" interp="linr"  time="0/1" value="0" leadInLength="0/1"  />
          </VectorParam>
         </Transformer>
         <Parameters>
          <InterpolatingParam id="7847" interp="linr"  time="0/1" value="1" leadInLength="0/1"  name="cursorOpacity"/>
          <InterpolatingParam id="7848" interp="linr"  time="0/1" value="1" leadInLength="0/1"  name="cursorScale"/>
          <InterpolatingParam id="7849" interp="linr"  time="0/1" value="1.5625" leadInLength="0/1"  name="volume"/>
          <Parameter id="7850"  name="captions"/>
         </Parameters>
         <Effects>
          <GenericEffect id="7851" name = "WinCompression" >
           <Parameters>
           <InterpolatingParam id="7852" interp="linr"  time="0/1" value="0" leadInLength="0/1"   name="attack"/>
           <InterpolatingParam id="7853" interp="linr"  time="0/1" value="9" leadInLength="0/1"   name="gain"/>
           <Parameter id="7854"   name="preset">
            <Keyframes>
            <Keyframe id="7855"  time="0/1" value="1" leadInLength="0/1"  />
            </Keyframes>
           </Parameter>
           <InterpolatingParam id="7856" interp="linr"  time="0/1" value="10" leadInLength="0/1"   name="ratio"/>
           <InterpolatingParam id="7857" interp="linr"  time="0/1" value="3500" leadInLength="0/1"   name="release"/>
           <InterpolatingParam id="7858" interp="linr"  time="0/1" value="-20" leadInLength="0/1"   name="threshold"/>
           </Parameters>
          </GenericEffect>
          <GenericEffect id="7859" name = "NoiseReduction" >
           <Parameters>
           <InterpolatingParam id="7860" interp="linr"  time="0/1" value="20" leadInLength="0/1"   name="denoiserAmount"/>
           <InterpolatingParam id="7861" interp="linr"  time="0/1" value="0" leadInLength="0/1"   name="denoiserThreshold"/>
           <Parameter id="7862"   name="noiseProfile">
            <Keyframes>
            <Keyframe id="7863"  time="0/1" value="FBAAAAIAAABErAAAAQIAAIA/l8JLuYTCrOB9wgsMfMJoG4LCaWeFwkohjMJdoYvCYv6LwlnvjcKf&#xD;&#xa;nYzChXWPwlcejsL6fo/C5OmQwgVTj8IVMI/COiWRwoWFkcJ2tYzC8I6MwuQbjcJvEo/ClwGRwheQ&#xD;&#xa;lsK8+pbCN5qVwlielcJ905rCmu+fwst0ncIC/JvCdIWdws3snsKxC5zCfh2cwniFnMJRypzCtRag&#xD;&#xa;wuoCosJQt6DCzoegwhY9ocIWN6PCsNqkwrSlpMJ6maTCYpCkwmLvo8Li+KPCyEamwnBNqMLMcqrC&#xD;&#xa;v2GswoS+q8Kk86vCVACuwnvUr8JxZa/CqHqswrdXq8LqT6zCZsuswhZxrMLBX67CnmqvwpYyrsKc&#xD;&#xa;pq3CJFGvwghrsMK3y6/CXoCtwmWZr8ICi7DCgRezwogSs8Joq7LCm0Sxwuz/scIfibTCOOK1wlIM&#xD;&#xa;t8K87LfCj3K3wqDYs8KT1bLCVsW0wnZ0tcJGhLXCfPe0ws/ntcLGXrbCzAG1wtXdtcKxxrTC1Ay1&#xD;&#xa;wquGtcLjELbC8Zi2wl7rtsJBYbbCMF+1wrEutMKuibTCSFa1wpvktMIu3rTCtGe4wjaduMIKErfC&#xD;&#xa;SLa1wvS/tsJmZrjCdn63whjft8Ie47rCfdi5wmjpt8KKCLjCXmC5wsOQt8JDGbfCK4m4wmpvuMLL&#xD;&#xa;nLjC80q4wjUVusKunLjC1Be5wg4cuMLxCbjCwfW4wmi7ucIOdbvCbLG6whqdusKYErrCbpC4wmq0&#xD;&#xa;ucIoWrvCaNe6ws4iu8LSc7zCUNa7wuJZvMIwLL3CWe28wps2v8J2l77Cv3W+wvgavsKAwrzCQCy8&#xD;&#xa;wgBRu8Km8brChSa6wuM4u8IaaL3Cf5y9wg4hvMLur7vCIpO9wm0fvcIGNLzC7Le8wvKgvMKQrLzC&#xD;&#xa;p6+9wtYtvsJcxbzCQC29wjDqvcKeNbzCH2W8wpbZvsLCTL7CnjO+wuIsvsJs67vCwLq9wiKhvsLs&#xD;&#xa;o73C5Du9wqqhvcLwKr7C2kq/wqEMv8LVCb7Cpla+wsXpvMIs6bvC/fO8wueCvsIM4b3CxtC+wmTo&#xD;&#xa;vcI+arzCTNe8wiFNv8IvKL/Cpg+/woK1v8L4i7/CNv2+wmsVv8KWj77CVym+wnAlv8Joa8DCFDzA&#xD;&#xa;wiQYwcLSIcHCxILAwuxKvsJYm77CPoHAwiYPwcLuy77CcQa+wrB4vcKwYLzCxKW8worIvcIlzr/C&#xD;&#xa;OMC+wuRDvcJGZ7zCxFi9wuQzvMLPbbvCwIe+wm7bvcLm9L3COH6+wuuJvMK2B73CYb+9wqbxvMK/&#xD;&#xa;mL7CqIe9wvCavMKs7L3Ckau8wkpavMKt9LzCF8S+wmgKvsKCy73ClrG+wmIovcIns73Cmg+/wgw7&#xD;&#xa;wMI607/CpEq/wmwVvcJLsLvCMD68wuxdvcIeI7/C+bS+wpxfvsJyxsDC1tO/wmtrv8LNnb/CQiK+&#xD;&#xa;wlz7vcLa6L/CUMXBwtrQwcIAw8HCNJHBwvphwMKqc7/CSkW/wjkvwMK8ccHCHmDBwlKAwcKu+MDC&#xD;&#xa;zErCwuqgwsLa+MLC753DwmjuxcLEWMfCkePFwo47xsKnX8XC7tTCwuf3wsL+HcLCTcTBwmg6w8Is&#xD;&#xa;RMPC+qjDwiyGxMLi58TCnWvFwpjsxsKzCMbCyCTDwpM2wcJWGMPCvuDFwh42xsIfyMTCeLTFwuH7&#xD;&#xa;xMJctcfCVv3HwpTGx8J8b8jCqhjHwrgkx8LXNsfCZkLGwnxSxcL8csXCbu7FwsaQyMLa68fCo0XH&#xD;&#xa;woruxMJGHsbCORbJwry2yMLIUsfCxlfGwmLoxcLSPMnCYPDJwkw3yMKc7crC8vDLwug2y8Lu28vC&#xD;&#xa;OKvMwvLpysKGj8rCtNXLwrMay8KdGMrCUr3JwgIVy8J64MvCkbTJwjh4x8JGI8bCvBXHwnoPycKN&#xD;&#xa;Ss3CuC/Nwuywy8IkJ8zCx9/KwnB5ycKnk8nCenLJwnN6ycKc+sjCLFzJwuTrzMJkJM/CY5vOwoYO&#xD;&#xa;zsLU987CVKfNwiZZzcJQxNDCICHVwi0d18Kc29jCIF/YwtKo2MKeBNvCwpTawmY/2sJXPdvCZZXY&#xD;&#xa;whB818IQNdjCDF3XwtWC1sIGF9fCfFfXwkBy2MJ6+9nC1hfZwi5k2cJlfNjCnEPYwm/N1cKGOdXC&#xD;&#xa;Yk/XwgXL2MJSytfCgpTWwqTT1sJOGtnCrF/ZwtcT2cK08NjCscHZwpQ72sLJ/NrCy3zYwmCk18LE&#xD;&#xa;O9fC6hbYwtYU2cJN/dnC1EbZwrw/2cIqyNbCDr7Xwvb02cLQ+dnCaJvXwuYO18KSodnC1NnawtJJ&#xD;&#xa;18ISLtjC90nawoel2cIwl9jCi0XZwih328Ks7NjC5KzZwqui2cJw0tjCukLYws+O2MJaqtrCUuXa&#xD;&#xa;wviX2MIKxtfCnqXXwhjI2MJwAtvCIFvcwgCL2cJ0/djCdyXawh9H2cJ+ntfCy4TXwhqF2MJ68NnC&#xD;&#xa;CzvYwljT2cIkP9vCIs/bwjpB2sK2A9rCXt/awjZH2sIfltvCKWPcwjp53MKrGd3CaBPewj/03MJm&#xD;&#xa;U97CphfgwlJp3cKQpt3Crxjewm7d28Kq/9vCNNXcwqY728IUH9vCkirbwgIt28KK19zCjmzdwoBH&#xD;&#xa;3MIAUtvCUq3bwo8f28Ig09jCiyfZwhbx2sLWe9zCvgzbwmwI2sI2nNvC0lvdwg6128I8PNvCLufa&#xD;&#xa;wkyK28KkitzCJIDcwmAO28L0TNrCDHXawjla28IQkdzCoCDcwjRI3MJVUdvCtujZwnCs2sK8Yd3C&#xD;&#xa;iGbbwuSB2cImFNvCCI7rwoA/l8JLuYTCrOB9wgsMfMJoG4LCaWeFwkohjMJdoYvCYv6LwlnvjcKf&#xD;&#xa;nYzChXWPwlcejsL6fo/C5OmQwgVTj8IVMI/COiWRwoWFkcJ2tYzC8I6MwuQbjcJvEo/ClwGRwheQ&#xD;&#xa;lsK8+pbCN5qVwlielcJ905rCmu+fwst0ncIC/JvCdIWdws3snsKxC5zCfh2cwniFnMJRypzCtRag&#xD;&#xa;wuoCosJQt6DCzoegwhY9ocIWN6PCsNqkwrSlpMJ6maTCYpCkwmLvo8Li+KPCyEamwnBNqMLMcqrC&#xD;&#xa;v2GswoS+q8Kk86vCVACuwnvUr8JxZa/CqHqswrdXq8LqT6zCZsuswhZxrMLBX67CnmqvwpYyrsKc&#xD;&#xa;pq3CJFGvwghrsMK3y6/CXoCtwmWZr8ICi7DCgRezwogSs8Joq7LCm0Sxwuz/scIfibTCOOK1wlIM&#xD;&#xa;t8K87LfCj3K3wqDYs8KT1bLCVsW0wnZ0tcJGhLXCfPe0ws/ntcLGXrbCzAG1wtXdtcKxxrTC1Ay1&#xD;&#xa;wquGtcLjELbC8Zi2wl7rtsJBYbbCMF+1wrEutMKuibTCSFa1wpvktMIu3rTCtGe4wjaduMIKErfC&#xD;&#xa;SLa1wvS/tsJmZrjCdn63whjft8Ie47rCfdi5wmjpt8KKCLjCXmC5wsOQt8JDGbfCK4m4wmpvuMLL&#xD;&#xa;nLjC80q4wjUVusKunLjC1Be5wg4cuMLxCbjCwfW4wmi7ucIOdbvCbLG6whqdusKYErrCbpC4wmq0&#xD;&#xa;ucIoWrvCaNe6ws4iu8LSc7zCUNa7wuJZvMIwLL3CWe28wps2v8J2l77Cv3W+wvgavsKAwrzCQCy8&#xD;&#xa;wgBRu8Km8brChSa6wuM4u8IaaL3Cf5y9wg4hvMLur7vCIpO9wm0fvcIGNLzC7Le8wvKgvMKQrLzC&#xD;&#xa;p6+9wtYtvsJcxbzCQC29wjDqvcKeNbzCH2W8wpbZvsLCTL7CnjO+wuIsvsJs67vCwLq9wiKhvsLs&#xD;&#xa;o73C5Du9wqqhvcLwKr7C2kq/wqEMv8LVCb7Cpla+wsXpvMIs6bvC/fO8wueCvsIM4b3CxtC+wmTo&#xD;&#xa;vcI+arzCTNe8wiFNv8IvKL/Cpg+/woK1v8L4i7/CNv2+wmsVv8KWj77CVym+wnAlv8Joa8DCFDzA&#xD;&#xa;wiQYwcLSIcHCxILAwuxKvsJYm77CPoHAwiYPwcLuy77CcQa+wrB4vcKwYLzCxKW8worIvcIlzr/C&#xD;&#xa;OMC+wuRDvcJGZ7zCxFi9wuQzvMLPbbvCwIe+wm7bvcLm9L3COH6+wuuJvMK2B73CYb+9wqbxvMK/&#xD;&#xa;mL7CqIe9wvCavMKs7L3Ckau8wkpavMKt9LzCF8S+wmgKvsKCy73ClrG+wmIovcIns73Cmg+/wgw7&#xD;&#xa;wMI607/CpEq/wmwVvcJLsLvCMD68wuxdvcIeI7/C+bS+wpxfvsJyxsDC1tO/wmtrv8LNnb/CQiK+&#xD;&#xa;wlz7vcLa6L/CUMXBwtrQwcIAw8HCNJHBwvphwMKqc7/CSkW/wjkvwMK8ccHCHmDBwlKAwcKu+MDC&#xD;&#xa;zErCwuqgwsLa+MLC753DwmjuxcLEWMfCkePFwo47xsKnX8XC7tTCwuf3wsL+HcLCTcTBwmg6w8Is&#xD;&#xa;RMPC+qjDwiyGxMLi58TCnWvFwpjsxsKzCMbCyCTDwpM2wcJWGMPCvuDFwh42xsIfyMTCeLTFwuH7&#xD;&#xa;xMJctcfCVv3HwpTGx8J8b8jCqhjHwrgkx8LXNsfCZkLGwnxSxcL8csXCbu7FwsaQyMLa68fCo0XH&#xD;&#xa;woruxMJGHsbCORbJwry2yMLIUsfCxlfGwmLoxcLSPMnCYPDJwkw3yMKc7crC8vDLwug2y8Lu28vC&#xD;&#xa;OKvMwvLpysKGj8rCtNXLwrMay8KdGMrCUr3JwgIVy8J64MvCkbTJwjh4x8JGI8bCvBXHwnoPycKN&#xD;&#xa;Ss3CuC/Nwuywy8IkJ8zCx9/KwnB5ycKnk8nCenLJwnN6ycKc+sjCLFzJwuTrzMJkJM/CY5vOwoYO&#xD;&#xa;zsLU987CVKfNwiZZzcJQxNDCICHVwi0d18Kc29jCIF/YwtKo2MKeBNvCwpTawmY/2sJXPdvCZZXY&#xD;&#xa;whB818IQNdjCDF3XwtWC1sIGF9fCfFfXwkBy2MJ6+9nC1hfZwi5k2cJlfNjCnEPYwm/N1cKGOdXC&#xD;&#xa;Yk/XwgXL2MJSytfCgpTWwqTT1sJOGtnCrF/ZwtcT2cK08NjCscHZwpQ72sLJ/NrCy3zYwmCk18LE&#xD;&#xa;O9fC6hbYwtYU2cJN/dnC1EbZwrw/2cIqyNbCDr7Xwvb02cLQ+dnCaJvXwuYO18KSodnC1NnawtJJ&#xD;&#xa;18ISLtjC90nawoel2cIwl9jCi0XZwih328Ks7NjC5KzZwqui2cJw0tjCukLYws+O2MJaqtrCUuXa&#xD;&#xa;wviX2MIKxtfCnqXXwhjI2MJwAtvCIFvcwgCL2cJ0/djCdyXawh9H2cJ+ntfCy4TXwhqF2MJ68NnC&#xD;&#xa;CzvYwljT2cIkP9vCIs/bwjpB2sK2A9rCXt/awjZH2sIfltvCKWPcwjp53MKrGd3CaBPewj/03MJm&#xD;&#xa;U97CphfgwlJp3cKQpt3Crxjewm7d28Kq/9vCNNXcwqY728IUH9vCkirbwgIt28KK19zCjmzdwoBH&#xD;&#xa;3MIAUtvCUq3bwo8f28Ig09jCiyfZwhbx2sLWe9zCvgzbwmwI2sI2nNvC0lvdwg6128I8PNvCLufa&#xD;&#xa;wkyK28KkitzCJIDcwmAO28L0TNrCDHXawjla28IQkdzCoCDcwjRI3MJVUdvCtujZwnCs2sK8Yd3C&#xD;&#xa;iGbbwuSB2cImFNvCCI7r" leadInLength="0/1"  />
            </Keyframes>
           </Parameter>
           </Parameters>
          </GenericEffect>
          <GenericEffect id="7864" name = "Declipper" >
           <Parameters>
           <InterpolatingParam id="7865" interp="linr"  time="0/1" value="-1" leadInLength="0/1"   name="sensitivity"/>
           </Parameters>
          </GenericEffect>
          <GenericEffect id="7866" name = "Declicker" >
           <Parameters>
           <InterpolatingParam id="7867" interp="linr"  time="0/1" value="3" leadInLength="0/1"   name="sensitivity"/>
           </Parameters>
          </GenericEffect>
         </Effects>
         <Attributes>
          <Attribute id="7868" value="" name="ident"/>
          <Attribute id="7869" value="0" name="mixToMono"/>
         </Attributes>
         <MetaData>
          <entry key="WinSubProjectDisplayName" val=""/>
         </MetaData>
         <ExtraData>
          <Entry key="ZoomPanBin">
           <ZoomPanBin id="7870"  >
            <ZoomPanKeyframes>
            </ZoomPanKeyframes>
           </ZoomPanBin>
          </Entry>
          <Entry key="CursorEffectBin">
           <CursorEffectBin id="7871"  >
            <CursorEffectKeyframes>
            </CursorEffectKeyframes>
           </CursorEffectBin>
          </Entry>
         </ExtraData>
         <GenericTrack id="7872"  >
          <Attributes>
           <Attribute id="7873" value="" name="ident"/>
           <Attribute id="7874" value="0" name="audioMuted"/>
           <Attribute id="7875" value="0" name="videoHidden"/>
          </Attributes>
          <MetaData>
           <entry key="IsLocked" val="False"/>
           <entry key="WinTrackHeight" val="0"/>
          </MetaData>
          <Medias>
           <AMFile id="7876" start="0" duration="117" scalar="1/1" mediaStart="0/1" mediaDuration="117/1" trackNumber="0" src="29" channelNumber="0" >
            <Parameters>
             <InterpolatingParam id="7877" interp="linr"  time="0/1" value="1" leadInLength="0/1"  name="volume"/>
             <Parameter id="7878"  name="captions"/>
            </Parameters>
            <Attributes>
             <Attribute id="7879" value="" name="ident"/>
             <Attribute id="7880" value="48000" name="sampleRate"/>
             <Attribute id="7881" value="16" name="bitDepth"/>
             <Attribute id="7882" value="1" name="gain"/>
             <Attribute id="7883" value="0" name="mixToMono"/>
            </Attributes>
            <MetaData>
             <entry key="WinSubProjectDisplayName" val=""/>
            </MetaData>
           </AMFile>
           <AMFile id="7884" start="117" duration="272" scalar="1/1" mediaStart="131/1" mediaDuration="272/1" trackNumber="0" src="29" channelNumber="0" >
            <Parameters>
             <InterpolatingParam id="7885" interp="linr"  time="0/1" value="1" leadInLength="0/1"  name="volume"/>
             <Parameter id="7886"  name="captions"/>
            </Parameters>
            <Attributes>
             <Attribute id="7887" value="" name="ident"/>
             <Attribute id="7888" value="48000" name="sampleRate"/>
             <Attribute id="7889" value="16" name="bitDepth"/>
             <Attribute id="7890" value="1" name="gain"/>
             <Attribute id="7891" value="0" name="mixToMono"/>
            </Attributes>
            <MetaData>
             <entry key="WinSubProjectDisplayName" val=""/>
            </MetaData>
           </AMFile>
           <AMFile id="7892" start="389" duration="1309" scalar="1/1" mediaStart="415/1" mediaDuration="1309/1" trackNumber="0" src="29" channelNumber="0" >
            <Parameters>
             <InterpolatingParam id="7893" interp="linr"  time="0/1" value="1" leadInLength="0/1"  name="volume"/>
             <Parameter id="7894"  name="captions"/>
            </Parameters>
            <Attributes>
             <Attribute id="7895" value="" name="ident"/>
             <Attribute id="7896" value="48000" name="sampleRate"/>
             <Attribute id="7897" value="16" name="bitDepth"/>
             <Attribute id="7898" value="1" name="gain"/>
             <Attribute id="7899" value="0" name="mixToMono"/>
            </Attributes>
            <MetaData>
             <entry key="WinSubProjectDisplayName" val=""/>
            </MetaData>
           </AMFile>
           <AMFile id="7900" start="1698" duration="103" scalar="1/1" mediaStart="1734/1" mediaDuration="103/1" trackNumber="0" src="29" channelNumber="0" >
            <Parameters>
             <InterpolatingParam id="7901" interp="linr"  time="0/1" value="1" leadInLength="0/1"  name="volume"/>
             <Parameter id="7902"  name="captions"/>
            </Parameters>
            <Attributes>
             <Attribute id="7903" value="" name="ident"/>
             <Attribute id="7904" value="48000" name="sampleRate"/>
             <Attribute id="7905" value="16" name="bitDepth"/>
             <Attribute id="7906" value="1" name="gain"/>
             <Attribute id="7907" value="0" name="mixToMono"/>
            </Attributes>
            <MetaData>
             <entry key="WinSubProjectDisplayName" val=""/>
            </MetaData>
           </AMFile>
           <AMFile id="7908" start="1801" duration="245" scalar="1/1" mediaStart="2164/1" mediaDuration="245/1" trackNumber="0" src="29" channelNumber="0" >
            <Parameters>
             <InterpolatingParam id="7909" interp="linr"  time="0/1" value="1" leadInLength="0/1"  name="volume"/>
             <Parameter id="7910"  name="captions"/>
            </Parameters>
            <Attributes>
             <Attribute id="7911" value="" name="ident"/>
             <Attribute id="7912" value="48000" name="sampleRate"/>
             <Attribute id="7913" value="16" name="bitDepth"/>
             <Attribute id="7914" value="1" name="gain"/>
             <Attribute id="7915" value="0" name="mixToMono"/>
            </Attributes>
            <MetaData>
             <entry key="WinSubProjectDisplayName" val=""/>
            </MetaData>
           </AMFile>
           <AMFile id="7916" start="2046" duration="202" scalar="1/1" mediaStart="2637/1" mediaDuration="202/1" trackNumber="0" src="29" channelNumber="0" >
            <Parameters>
             <InterpolatingParam id="7917" interp="linr"  time="0/1" value="1" leadInLength="0/1"  name="volume"/>
             <Parameter id="7918"  name="captions"/>
            </Parameters>
            <Attributes>
             <Attribute id="7919" value="" name="ident"/>
             <Attribute id="7920" value="48000" name="sampleRate"/>
             <Attribute id="7921" value="16" name="bitDepth"/>
             <Attribute id="7922" value="1" name="gain"/>
             <Attribute id="7923" value="0" name="mixToMono"/>
            </Attributes>
            <MetaData>
             <entry key="WinSubProjectDisplayName" val=""/>
            </MetaData>
           </AMFile>
           <AMFile id="7924" start="2248" duration="185" scalar="1/1" mediaStart="2856/1" mediaDuration="185/1" trackNumber="0" src="29" channelNumber="0" >
            <Parameters>
             <InterpolatingParam id="7925" interp="linr"  time="0/1" value="1" leadInLength="0/1"  name="volume"/>
             <Parameter id="7926"  name="captions"/>
            </Parameters>
            <Attributes>
             <Attribute id="7927" value="" name="ident"/>
             <Attribute id="7928" value="48000" name="sampleRate"/>
             <Attribute id="7929" value="16" name="bitDepth"/>
             <Attribute id="7930" value="1" name="gain"/>
             <Attribute id="7931" value="0" name="mixToMono"/>
            </Attributes>
            <MetaData>
             <entry key="WinSubProjectDisplayName" val=""/>
            </MetaData>
           </AMFile>
           <AMFile id="7932" start="2433" duration="215" scalar="1/1" mediaStart="3054/1" mediaDuration="215/1" trackNumber="0" src="29" channelNumber="0" >
            <Parameters>
             <InterpolatingParam id="7933" interp="linr"  time="0/1" value="1" leadInLength="0/1"  name="volume"/>
             <Parameter id="7934"  name="captions"/>
            </Parameters>
            <Attributes>
             <Attribute id="7935" value="" name="ident"/>
             <Attribute id="7936" value="48000" name="sampleRate"/>
             <Attribute id="7937" value="16" name="bitDepth"/>
             <Attribute id="7938" value="1" name="gain"/>
             <Attribute id="7939" value="0" name="mixToMono"/>
            </Attributes>
            <MetaData>
             <entry key="WinSubProjectDisplayName" val=""/>
            </MetaData>
           </AMFile>
           <AMFile id="7940" start="2648" duration="155" scalar="1/1" mediaStart="3288/1" mediaDuration="155/1" trackNumber="0" src="29" channelNumber="0" >
            <Parameters>
             <InterpolatingParam id="7941" interp="linr"  time="0/1" value="1" leadInLength="0/1"  name="volume"/>
             <Parameter id="7942"  name="captions"/>
            </Parameters>
            <Attributes>
             <Attribute id="7943" value="" name="ident"/>
             <Attribute id="7944" value="48000" name="sampleRate"/>
             <Attribute id="7945" value="16" name="bitDepth"/>
             <Attribute id="7946" value="1" name="gain"/>
             <Attribute id="7947" value="0" name="mixToMono"/>
            </Attributes>
            <MetaData>
             <entry key="WinSubProjectDisplayName" val=""/>
            </MetaData>
           </AMFile>
           <AMFile id="7948" start="2803" duration="103" scalar="1/1" mediaStart="3450/1" mediaDuration="103/1" trackNumber="0" src="29" channelNumber="0" >
            <Parameters>
             <InterpolatingParam id="7949" interp="linr"  time="0/1" value="1" leadInLength="0/1"  name="volume"/>
             <Parameter id="7950"  name="captions"/>
            </Parameters>
            <Attributes>
             <Attribute id="7951" value="" name="ident"/>
             <Attribute id="7952" value="48000" name="sampleRate"/>
             <Attribute id="7953" value="16" name="bitDepth"/>
             <Attribute id="7954" value="1" name="gain"/>
             <Attribute id="7955" value="0" name="mixToMono"/>
            </Attributes>
            <MetaData>
             <entry key="WinSubProjectDisplayName" val=""/>
            </MetaData>
           </AMFile>
           <AMFile id="7956" start="2906" duration="10082" scalar="1/1" mediaStart="3564/1" mediaDuration="10082/1" trackNumber="0" src="29" channelNumber="0" >
            <Parameters>
             <InterpolatingParam id="7957" interp="linr"  time="0/1" value="1" leadInLength="0/1"  name="volume"/>
             <Parameter id="7958"  name="captions"/>
            </Parameters>
            <Attributes>
             <Attribute id="7959" value="" name="ident"/>
             <Attribute id="7960" value="48000" name="sampleRate"/>
             <Attribute id="7961" value="16" name="bitDepth"/>
             <Attribute id="7962" value="1" name="gain"/>
             <Attribute id="7963" value="0" name="mixToMono"/>
            </Attributes>
            <MetaData>
             <entry key="WinSubProjectDisplayName" val=""/>
            </MetaData>
           </AMFile>
          </Medias>
         </GenericTrack>
        </StitchedMedia>
        <StitchedMedia id="7964" start="2814" duration="544" scalar="1/1" mediaStart="3346/1" mediaDuration="544/1" minMediaStart="0/1" >
         <Transformer>
          <VectorParam id="7965"  name="translation">
           <InterpolatingParam id="7966" interp="linr"  time="0/1" value="0" leadInLength="0/1"  />
           <InterpolatingParam id="7967" interp="linr"  time="0/1" value="0" leadInLength="0/1"  />
           <InterpolatingParam id="7968" interp="linr"  time="0/1" value="0" leadInLength="0/1"  />
          </VectorParam>
          <VectorParam id="7969"  name="rotation">
           <InterpolatingParam id="7970" interp="linr"  time="0/1" value="0" leadInLength="0/1"  />
           <InterpolatingParam id="7971" interp="linr"  time="0/1" value="0" leadInLength="0/1"  />
           <InterpolatingParam id="7972" interp="linr"  time="0/1" value="0" leadInLength="0/1"  />
          </VectorParam>
          <VectorParam id="7973"  name="shear">
           <InterpolatingParam id="7974" interp="linr"  time="0/1" value="0" leadInLength="0/1"  />
           <InterpolatingParam id="7975" interp="linr"  time="0/1" value="0" leadInLength="0/1"  />
           <InterpolatingParam id="7976" interp="linr"  time="0/1" value="0" leadInLength="0/1"  />
          </VectorParam>
          <VectorParam id="7977"  name="scale">
           <InterpolatingParam id="7978" interp="linr"  time="0/1" value="1" leadInLength="0/1"  />
           <InterpolatingParam id="7979" interp="linr"  time="0/1" value="1" leadInLength="0/1"  />
           <InterpolatingParam id="7980" interp="linr"  time="0/1" value="1" leadInLength="0/1"  />
          </VectorParam>
          <VectorParam id="7981"  name="anchor">
           <InterpolatingParam id="7982" interp="linr"  time="0/1" value="0" leadInLength="0/1"  />
           <InterpolatingParam id="7983" interp="linr"  time="0/1" value="0" leadInLength="0/1"  />
           <InterpolatingParam id="7984" interp="linr"  time="0/1" value="0" leadInLength="0/1"  />
          </VectorParam>
         </Transformer>
         <Parameters>
          <InterpolatingParam id="7985" interp="linr"  time="0/1" value="1" leadInLength="0/1"  name="cursorOpacity"/>
          <InterpolatingParam id="7986" interp="linr"  time="0/1" value="1" leadInLength="0/1"  name="cursorScale"/>
          <InterpolatingParam id="7987" interp="linr"  time="0/1" value="1.5625" leadInLength="0/1"  name="volume"/>
          <Parameter id="7988"  name="captions"/>
         </Parameters>
         <Effects>
          <GenericEffect id="7989" name = "WinCompression" >
           <Parameters>
           <InterpolatingParam id="7990" interp="linr"  time="0/1" value="0" leadInLength="0/1"   name="attack"/>
           <InterpolatingParam id="7991" interp="linr"  time="0/1" value="9" leadInLength="0/1"   name="gain"/>
           <Parameter id="7992"   name="preset">
            <Keyframes>
            <Keyframe id="7993"  time="0/1" value="1" leadInLength="0/1"  />
            </Keyframes>
           </Parameter>
           <InterpolatingParam id="7994" interp="linr"  time="0/1" value="10" leadInLength="0/1"   name="ratio"/>
           <InterpolatingParam id="7995" interp="linr"  time="0/1" value="3500" leadInLength="0/1"   name="release"/>
           <InterpolatingParam id="7996" interp="linr"  time="0/1" value="-20" leadInLength="0/1"   name="threshold"/>
           </Parameters>
          </GenericEffect>
          <GenericEffect id="7997" name = "NoiseReduction" >
           <Parameters>
           <InterpolatingParam id="7998" interp="linr"  time="0/1" value="20" leadInLength="0/1"   name="denoiserAmount"/>
           <InterpolatingParam id="7999" interp="linr"  time="0/1" value="0" leadInLength="0/1"   name="denoiserThreshold"/>
           <Parameter id="8000"   name="noiseProfile">
            <Keyframes>
            <Keyframe id="8001"  time="0/1" value="FBAAAAIAAABErAAAAQIAAIA/l8JLuYTCrOB9wgsMfMJoG4LCaWeFwkohjMJdoYvCYv6LwlnvjcKf&#xD;&#xa;nYzChXWPwlcejsL6fo/C5OmQwgVTj8IVMI/COiWRwoWFkcJ2tYzC8I6MwuQbjcJvEo/ClwGRwheQ&#xD;&#xa;lsK8+pbCN5qVwlielcJ905rCmu+fwst0ncIC/JvCdIWdws3snsKxC5zCfh2cwniFnMJRypzCtRag&#xD;&#xa;wuoCosJQt6DCzoegwhY9ocIWN6PCsNqkwrSlpMJ6maTCYpCkwmLvo8Li+KPCyEamwnBNqMLMcqrC&#xD;&#xa;v2GswoS+q8Kk86vCVACuwnvUr8JxZa/CqHqswrdXq8LqT6zCZsuswhZxrMLBX67CnmqvwpYyrsKc&#xD;&#xa;pq3CJFGvwghrsMK3y6/CXoCtwmWZr8ICi7DCgRezwogSs8Joq7LCm0Sxwuz/scIfibTCOOK1wlIM&#xD;&#xa;t8K87LfCj3K3wqDYs8KT1bLCVsW0wnZ0tcJGhLXCfPe0ws/ntcLGXrbCzAG1wtXdtcKxxrTC1Ay1&#xD;&#xa;wquGtcLjELbC8Zi2wl7rtsJBYbbCMF+1wrEutMKuibTCSFa1wpvktMIu3rTCtGe4wjaduMIKErfC&#xD;&#xa;SLa1wvS/tsJmZrjCdn63whjft8Ie47rCfdi5wmjpt8KKCLjCXmC5wsOQt8JDGbfCK4m4wmpvuMLL&#xD;&#xa;nLjC80q4wjUVusKunLjC1Be5wg4cuMLxCbjCwfW4wmi7ucIOdbvCbLG6whqdusKYErrCbpC4wmq0&#xD;&#xa;ucIoWrvCaNe6ws4iu8LSc7zCUNa7wuJZvMIwLL3CWe28wps2v8J2l77Cv3W+wvgavsKAwrzCQCy8&#xD;&#xa;wgBRu8Km8brChSa6wuM4u8IaaL3Cf5y9wg4hvMLur7vCIpO9wm0fvcIGNLzC7Le8wvKgvMKQrLzC&#xD;&#xa;p6+9wtYtvsJcxbzCQC29wjDqvcKeNbzCH2W8wpbZvsLCTL7CnjO+wuIsvsJs67vCwLq9wiKhvsLs&#xD;&#xa;o73C5Du9wqqhvcLwKr7C2kq/wqEMv8LVCb7Cpla+wsXpvMIs6bvC/fO8wueCvsIM4b3CxtC+wmTo&#xD;&#xa;vcI+arzCTNe8wiFNv8IvKL/Cpg+/woK1v8L4i7/CNv2+wmsVv8KWj77CVym+wnAlv8Joa8DCFDzA&#xD;&#xa;wiQYwcLSIcHCxILAwuxKvsJYm77CPoHAwiYPwcLuy77CcQa+wrB4vcKwYLzCxKW8worIvcIlzr/C&#xD;&#xa;OMC+wuRDvcJGZ7zCxFi9wuQzvMLPbbvCwIe+wm7bvcLm9L3COH6+wuuJvMK2B73CYb+9wqbxvMK/&#xD;&#xa;mL7CqIe9wvCavMKs7L3Ckau8wkpavMKt9LzCF8S+wmgKvsKCy73ClrG+wmIovcIns73Cmg+/wgw7&#xD;&#xa;wMI607/CpEq/wmwVvcJLsLvCMD68wuxdvcIeI7/C+bS+wpxfvsJyxsDC1tO/wmtrv8LNnb/CQiK+&#xD;&#xa;wlz7vcLa6L/CUMXBwtrQwcIAw8HCNJHBwvphwMKqc7/CSkW/wjkvwMK8ccHCHmDBwlKAwcKu+MDC&#xD;&#xa;zErCwuqgwsLa+MLC753DwmjuxcLEWMfCkePFwo47xsKnX8XC7tTCwuf3wsL+HcLCTcTBwmg6w8Is&#xD;&#xa;RMPC+qjDwiyGxMLi58TCnWvFwpjsxsKzCMbCyCTDwpM2wcJWGMPCvuDFwh42xsIfyMTCeLTFwuH7&#xD;&#xa;xMJctcfCVv3HwpTGx8J8b8jCqhjHwrgkx8LXNsfCZkLGwnxSxcL8csXCbu7FwsaQyMLa68fCo0XH&#xD;&#xa;woruxMJGHsbCORbJwry2yMLIUsfCxlfGwmLoxcLSPMnCYPDJwkw3yMKc7crC8vDLwug2y8Lu28vC&#xD;&#xa;OKvMwvLpysKGj8rCtNXLwrMay8KdGMrCUr3JwgIVy8J64MvCkbTJwjh4x8JGI8bCvBXHwnoPycKN&#xD;&#xa;Ss3CuC/Nwuywy8IkJ8zCx9/KwnB5ycKnk8nCenLJwnN6ycKc+sjCLFzJwuTrzMJkJM/CY5vOwoYO&#xD;&#xa;zsLU987CVKfNwiZZzcJQxNDCICHVwi0d18Kc29jCIF/YwtKo2MKeBNvCwpTawmY/2sJXPdvCZZXY&#xD;&#xa;whB818IQNdjCDF3XwtWC1sIGF9fCfFfXwkBy2MJ6+9nC1hfZwi5k2cJlfNjCnEPYwm/N1cKGOdXC&#xD;&#xa;Yk/XwgXL2MJSytfCgpTWwqTT1sJOGtnCrF/ZwtcT2cK08NjCscHZwpQ72sLJ/NrCy3zYwmCk18LE&#xD;&#xa;O9fC6hbYwtYU2cJN/dnC1EbZwrw/2cIqyNbCDr7Xwvb02cLQ+dnCaJvXwuYO18KSodnC1NnawtJJ&#xD;&#xa;18ISLtjC90nawoel2cIwl9jCi0XZwih328Ks7NjC5KzZwqui2cJw0tjCukLYws+O2MJaqtrCUuXa&#xD;&#xa;wviX2MIKxtfCnqXXwhjI2MJwAtvCIFvcwgCL2cJ0/djCdyXawh9H2cJ+ntfCy4TXwhqF2MJ68NnC&#xD;&#xa;CzvYwljT2cIkP9vCIs/bwjpB2sK2A9rCXt/awjZH2sIfltvCKWPcwjp53MKrGd3CaBPewj/03MJm&#xD;&#xa;U97CphfgwlJp3cKQpt3Crxjewm7d28Kq/9vCNNXcwqY728IUH9vCkirbwgIt28KK19zCjmzdwoBH&#xD;&#xa;3MIAUtvCUq3bwo8f28Ig09jCiyfZwhbx2sLWe9zCvgzbwmwI2sI2nNvC0lvdwg6128I8PNvCLufa&#xD;&#xa;wkyK28KkitzCJIDcwmAO28L0TNrCDHXawjla28IQkdzCoCDcwjRI3MJVUdvCtujZwnCs2sK8Yd3C&#xD;&#xa;iGbbwuSB2cImFNvCCI7rwoA/l8JLuYTCrOB9wgsMfMJoG4LCaWeFwkohjMJdoYvCYv6LwlnvjcKf&#xD;&#xa;nYzChXWPwlcejsL6fo/C5OmQwgVTj8IVMI/COiWRwoWFkcJ2tYzC8I6MwuQbjcJvEo/ClwGRwheQ&#xD;&#xa;lsK8+pbCN5qVwlielcJ905rCmu+fwst0ncIC/JvCdIWdws3snsKxC5zCfh2cwniFnMJRypzCtRag&#xD;&#xa;wuoCosJQt6DCzoegwhY9ocIWN6PCsNqkwrSlpMJ6maTCYpCkwmLvo8Li+KPCyEamwnBNqMLMcqrC&#xD;&#xa;v2GswoS+q8Kk86vCVACuwnvUr8JxZa/CqHqswrdXq8LqT6zCZsuswhZxrMLBX67CnmqvwpYyrsKc&#xD;&#xa;pq3CJFGvwghrsMK3y6/CXoCtwmWZr8ICi7DCgRezwogSs8Joq7LCm0Sxwuz/scIfibTCOOK1wlIM&#xD;&#xa;t8K87LfCj3K3wqDYs8KT1bLCVsW0wnZ0tcJGhLXCfPe0ws/ntcLGXrbCzAG1wtXdtcKxxrTC1Ay1&#xD;&#xa;wquGtcLjELbC8Zi2wl7rtsJBYbbCMF+1wrEutMKuibTCSFa1wpvktMIu3rTCtGe4wjaduMIKErfC&#xD;&#xa;SLa1wvS/tsJmZrjCdn63whjft8Ie47rCfdi5wmjpt8KKCLjCXmC5wsOQt8JDGbfCK4m4wmpvuMLL&#xD;&#xa;nLjC80q4wjUVusKunLjC1Be5wg4cuMLxCbjCwfW4wmi7ucIOdbvCbLG6whqdusKYErrCbpC4wmq0&#xD;&#xa;ucIoWrvCaNe6ws4iu8LSc7zCUNa7wuJZvMIwLL3CWe28wps2v8J2l77Cv3W+wvgavsKAwrzCQCy8&#xD;&#xa;wgBRu8Km8brChSa6wuM4u8IaaL3Cf5y9wg4hvMLur7vCIpO9wm0fvcIGNLzC7Le8wvKgvMKQrLzC&#xD;&#xa;p6+9wtYtvsJcxbzCQC29wjDqvcKeNbzCH2W8wpbZvsLCTL7CnjO+wuIsvsJs67vCwLq9wiKhvsLs&#xD;&#xa;o73C5Du9wqqhvcLwKr7C2kq/wqEMv8LVCb7Cpla+wsXpvMIs6bvC/fO8wueCvsIM4b3CxtC+wmTo&#xD;&#xa;vcI+arzCTNe8wiFNv8IvKL/Cpg+/woK1v8L4i7/CNv2+wmsVv8KWj77CVym+wnAlv8Joa8DCFDzA&#xD;&#xa;wiQYwcLSIcHCxILAwuxKvsJYm77CPoHAwiYPwcLuy77CcQa+wrB4vcKwYLzCxKW8worIvcIlzr/C&#xD;&#xa;OMC+wuRDvcJGZ7zCxFi9wuQzvMLPbbvCwIe+wm7bvcLm9L3COH6+wuuJvMK2B73CYb+9wqbxvMK/&#xD;&#xa;mL7CqIe9wvCavMKs7L3Ckau8wkpavMKt9LzCF8S+wmgKvsKCy73ClrG+wmIovcIns73Cmg+/wgw7&#xD;&#xa;wMI607/CpEq/wmwVvcJLsLvCMD68wuxdvcIeI7/C+bS+wpxfvsJyxsDC1tO/wmtrv8LNnb/CQiK+&#xD;&#xa;wlz7vcLa6L/CUMXBwtrQwcIAw8HCNJHBwvphwMKqc7/CSkW/wjkvwMK8ccHCHmDBwlKAwcKu+MDC&#xD;&#xa;zErCwuqgwsLa+MLC753DwmjuxcLEWMfCkePFwo47xsKnX8XC7tTCwuf3wsL+HcLCTcTBwmg6w8Is&#xD;&#xa;RMPC+qjDwiyGxMLi58TCnWvFwpjsxsKzCMbCyCTDwpM2wcJWGMPCvuDFwh42xsIfyMTCeLTFwuH7&#xD;&#xa;xMJctcfCVv3HwpTGx8J8b8jCqhjHwrgkx8LXNsfCZkLGwnxSxcL8csXCbu7FwsaQyMLa68fCo0XH&#xD;&#xa;woruxMJGHsbCORbJwry2yMLIUsfCxlfGwmLoxcLSPMnCYPDJwkw3yMKc7crC8vDLwug2y8Lu28vC&#xD;&#xa;OKvMwvLpysKGj8rCtNXLwrMay8KdGMrCUr3JwgIVy8J64MvCkbTJwjh4x8JGI8bCvBXHwnoPycKN&#xD;&#xa;Ss3CuC/Nwuywy8IkJ8zCx9/KwnB5ycKnk8nCenLJwnN6ycKc+sjCLFzJwuTrzMJkJM/CY5vOwoYO&#xD;&#xa;zsLU987CVKfNwiZZzcJQxNDCICHVwi0d18Kc29jCIF/YwtKo2MKeBNvCwpTawmY/2sJXPdvCZZXY&#xD;&#xa;whB818IQNdjCDF3XwtWC1sIGF9fCfFfXwkBy2MJ6+9nC1hfZwi5k2cJlfNjCnEPYwm/N1cKGOdXC&#xD;&#xa;Yk/XwgXL2MJSytfCgpTWwqTT1sJOGtnCrF/ZwtcT2cK08NjCscHZwpQ72sLJ/NrCy3zYwmCk18LE&#xD;&#xa;O9fC6hbYwtYU2cJN/dnC1EbZwrw/2cIqyNbCDr7Xwvb02cLQ+dnCaJvXwuYO18KSodnC1NnawtJJ&#xD;&#xa;18ISLtjC90nawoel2cIwl9jCi0XZwih328Ks7NjC5KzZwqui2cJw0tjCukLYws+O2MJaqtrCUuXa&#xD;&#xa;wviX2MIKxtfCnqXXwhjI2MJwAtvCIFvcwgCL2cJ0/djCdyXawh9H2cJ+ntfCy4TXwhqF2MJ68NnC&#xD;&#xa;CzvYwljT2cIkP9vCIs/bwjpB2sK2A9rCXt/awjZH2sIfltvCKWPcwjp53MKrGd3CaBPewj/03MJm&#xD;&#xa;U97CphfgwlJp3cKQpt3Crxjewm7d28Kq/9vCNNXcwqY728IUH9vCkirbwgIt28KK19zCjmzdwoBH&#xD;&#xa;3MIAUtvCUq3bwo8f28Ig09jCiyfZwhbx2sLWe9zCvgzbwmwI2sI2nNvC0lvdwg6128I8PNvCLufa&#xD;&#xa;wkyK28KkitzCJIDcwmAO28L0TNrCDHXawjla28IQkdzCoCDcwjRI3MJVUdvCtujZwnCs2sK8Yd3C&#xD;&#xa;iGbbwuSB2cImFNvCCI7r" leadInLength="0/1"  />
            </Keyframes>
           </Parameter>
           </Parameters>
          </GenericEffect>
          <GenericEffect id="8002" name = "Declipper" >
           <Parameters>
           <InterpolatingParam id="8003" interp="linr"  time="0/1" value="-1" leadInLength="0/1"   name="sensitivity"/>
           </Parameters>
          </GenericEffect>
          <GenericEffect id="8004" name = "Declicker" >
           <Parameters>
           <InterpolatingParam id="8005" interp="linr"  time="0/1" value="3" leadInLength="0/1"   name="sensitivity"/>
           </Parameters>
          </GenericEffect>
         </Effects>
         <Attributes>
          <Attribute id="8006" value="" name="ident"/>
          <Attribute id="8007" value="0" name="mixToMono"/>
         </Attributes>
         <MetaData>
          <entry key="WinSubProjectDisplayName" val=""/>
         </MetaData>
         <ExtraData>
          <Entry key="ZoomPanBin">
           <ZoomPanBin id="8008"  >
            <ZoomPanKeyframes>
            </ZoomPanKeyframes>
           </ZoomPanBin>
          </Entry>
          <Entry key="CursorEffectBin">
           <CursorEffectBin id="8009"  >
            <CursorEffectKeyframes>
            </CursorEffectKeyframes>
           </CursorEffectBin>
          </Entry>
         </ExtraData>
         <GenericTrack id="8010"  >
          <Attributes>
           <Attribute id="8011" value="" name="ident"/>
           <Attribute id="8012" value="0" name="audioMuted"/>
           <Attribute id="8013" value="0" name="videoHidden"/>
          </Attributes>
          <MetaData>
           <entry key="IsLocked" val="False"/>
           <entry key="WinTrackHeight" val="0"/>
          </MetaData>
          <Medias>
           <AMFile id="8014" start="0" duration="117" scalar="1/1" mediaStart="0/1" mediaDuration="117/1" trackNumber="0" src="29" channelNumber="0" >
            <Parameters>
             <InterpolatingParam id="8015" interp="linr"  time="0/1" value="1" leadInLength="0/1"  name="volume"/>
             <Parameter id="8016"  name="captions"/>
            </Parameters>
            <Attributes>
             <Attribute id="8017" value="" name="ident"/>
             <Attribute id="8018" value="48000" name="sampleRate"/>
             <Attribute id="8019" value="16" name="bitDepth"/>
             <Attribute id="8020" value="1" name="gain"/>
             <Attribute id="8021" value="0" name="mixToMono"/>
            </Attributes>
            <MetaData>
             <entry key="WinSubProjectDisplayName" val=""/>
            </MetaData>
           </AMFile>
           <AMFile id="8022" start="117" duration="272" scalar="1/1" mediaStart="131/1" mediaDuration="272/1" trackNumber="0" src="29" channelNumber="0" >
            <Parameters>
             <InterpolatingParam id="8023" interp="linr"  time="0/1" value="1" leadInLength="0/1"  name="volume"/>
             <Parameter id="8024"  name="captions"/>
            </Parameters>
            <Attributes>
             <Attribute id="8025" value="" name="ident"/>
             <Attribute id="8026" value="48000" name="sampleRate"/>
             <Attribute id="8027" value="16" name="bitDepth"/>
             <Attribute id="8028" value="1" name="gain"/>
             <Attribute id="8029" value="0" name="mixToMono"/>
            </Attributes>
            <MetaData>
             <entry key="WinSubProjectDisplayName" val=""/>
            </MetaData>
           </AMFile>
           <AMFile id="8030" start="389" duration="1309" scalar="1/1" mediaStart="415/1" mediaDuration="1309/1" trackNumber="0" src="29" channelNumber="0" >
            <Parameters>
             <InterpolatingParam id="8031" interp="linr"  time="0/1" value="1" leadInLength="0/1"  name="volume"/>
             <Parameter id="8032"  name="captions"/>
            </Parameters>
            <Attributes>
             <Attribute id="8033" value="" name="ident"/>
             <Attribute id="8034" value="48000" name="sampleRate"/>
             <Attribute id="8035" value="16" name="bitDepth"/>
             <Attribute id="8036" value="1" name="gain"/>
             <Attribute id="8037" value="0" name="mixToMono"/>
            </Attributes>
            <MetaData>
             <entry key="WinSubProjectDisplayName" val=""/>
            </MetaData>
           </AMFile>
           <AMFile id="8038" start="1698" duration="103" scalar="1/1" mediaStart="1734/1" mediaDuration="103/1" trackNumber="0" src="29" channelNumber="0" >
            <Parameters>
             <InterpolatingParam id="8039" interp="linr"  time="0/1" value="1" leadInLength="0/1"  name="volume"/>
             <Parameter id="8040"  name="captions"/>
            </Parameters>
            <Attributes>
             <Attribute id="8041" value="" name="ident"/>
             <Attribute id="8042" value="48000" name="sampleRate"/>
             <Attribute id="8043" value="16" name="bitDepth"/>
             <Attribute id="8044" value="1" name="gain"/>
             <Attribute id="8045" value="0" name="mixToMono"/>
            </Attributes>
            <MetaData>
             <entry key="WinSubProjectDisplayName" val=""/>
            </MetaData>
           </AMFile>
           <AMFile id="8046" start="1801" duration="245" scalar="1/1" mediaStart="2164/1" mediaDuration="245/1" trackNumber="0" src="29" channelNumber="0" >
            <Parameters>
             <InterpolatingParam id="8047" interp="linr"  time="0/1" value="1" leadInLength="0/1"  name="volume"/>
             <Parameter id="8048"  name="captions"/>
            </Parameters>
            <Attributes>
             <Attribute id="8049" value="" name="ident"/>
             <Attribute id="8050" value="48000" name="sampleRate"/>
             <Attribute id="8051" value="16" name="bitDepth"/>
             <Attribute id="8052" value="1" name="gain"/>
             <Attribute id="8053" value="0" name="mixToMono"/>
            </Attributes>
            <MetaData>
             <entry key="WinSubProjectDisplayName" val=""/>
            </MetaData>
           </AMFile>
           <AMFile id="8054" start="2046" duration="202" scalar="1/1" mediaStart="2637/1" mediaDuration="202/1" trackNumber="0" src="29" channelNumber="0" >
            <Parameters>
             <InterpolatingParam id="8055" interp="linr"  time="0/1" value="1" leadInLength="0/1"  name="volume"/>
             <Parameter id="8056"  name="captions"/>
            </Parameters>
            <Attributes>
             <Attribute id="8057" value="" name="ident"/>
             <Attribute id="8058" value="48000" name="sampleRate"/>
             <Attribute id="8059" value="16" name="bitDepth"/>
             <Attribute id="8060" value="1" name="gain"/>
             <Attribute id="8061" value="0" name="mixToMono"/>
            </Attributes>
            <MetaData>
             <entry key="WinSubProjectDisplayName" val=""/>
            </MetaData>
           </AMFile>
           <AMFile id="8062" start="2248" duration="185" scalar="1/1" mediaStart="2856/1" mediaDuration="185/1" trackNumber="0" src="29" channelNumber="0" >
            <Parameters>
             <InterpolatingParam id="8063" interp="linr"  time="0/1" value="1" leadInLength="0/1"  name="volume"/>
             <Parameter id="8064"  name="captions"/>
            </Parameters>
            <Attributes>
             <Attribute id="8065" value="" name="ident"/>
             <Attribute id="8066" value="48000" name="sampleRate"/>
             <Attribute id="8067" value="16" name="bitDepth"/>
             <Attribute id="8068" value="1" name="gain"/>
             <Attribute id="8069" value="0" name="mixToMono"/>
            </Attributes>
            <MetaData>
             <entry key="WinSubProjectDisplayName" val=""/>
            </MetaData>
           </AMFile>
           <AMFile id="8070" start="2433" duration="215" scalar="1/1" mediaStart="3054/1" mediaDuration="215/1" trackNumber="0" src="29" channelNumber="0" >
            <Parameters>
             <InterpolatingParam id="8071" interp="linr"  time="0/1" value="1" leadInLength="0/1"  name="volume"/>
             <Parameter id="8072"  name="captions"/>
            </Parameters>
            <Attributes>
             <Attribute id="8073" value="" name="ident"/>
             <Attribute id="8074" value="48000" name="sampleRate"/>
             <Attribute id="8075" value="16" name="bitDepth"/>
             <Attribute id="8076" value="1" name="gain"/>
             <Attribute id="8077" value="0" name="mixToMono"/>
            </Attributes>
            <MetaData>
             <entry key="WinSubProjectDisplayName" val=""/>
            </MetaData>
           </AMFile>
           <AMFile id="8078" start="2648" duration="155" scalar="1/1" mediaStart="3288/1" mediaDuration="155/1" trackNumber="0" src="29" channelNumber="0" >
            <Parameters>
             <InterpolatingParam id="8079" interp="linr"  time="0/1" value="1" leadInLength="0/1"  name="volume"/>
             <Parameter id="8080"  name="captions"/>
            </Parameters>
            <Attributes>
             <Attribute id="8081" value="" name="ident"/>
             <Attribute id="8082" value="48000" name="sampleRate"/>
             <Attribute id="8083" value="16" name="bitDepth"/>
             <Attribute id="8084" value="1" name="gain"/>
             <Attribute id="8085" value="0" name="mixToMono"/>
            </Attributes>
            <MetaData>
             <entry key="WinSubProjectDisplayName" val=""/>
            </MetaData>
           </AMFile>
           <AMFile id="8086" start="2803" duration="103" scalar="1/1" mediaStart="3450/1" mediaDuration="103/1" trackNumber="0" src="29" channelNumber="0" >
            <Parameters>
             <InterpolatingParam id="8087" interp="linr"  time="0/1" value="1" leadInLength="0/1"  name="volume"/>
             <Parameter id="8088"  name="captions"/>
            </Parameters>
            <Attributes>
             <Attribute id="8089" value="" name="ident"/>
             <Attribute id="8090" value="48000" name="sampleRate"/>
             <Attribute id="8091" value="16" name="bitDepth"/>
             <Attribute id="8092" value="1" name="gain"/>
             <Attribute id="8093" value="0" name="mixToMono"/>
            </Attributes>
            <MetaData>
             <entry key="WinSubProjectDisplayName" val=""/>
            </MetaData>
           </AMFile>
           <AMFile id="8094" start="2906" duration="10082" scalar="1/1" mediaStart="3564/1" mediaDuration="10082/1" trackNumber="0" src="29" channelNumber="0" >
            <Parameters>
             <InterpolatingParam id="8095" interp="linr"  time="0/1" value="1" leadInLength="0/1"  name="volume"/>
             <Parameter id="8096"  name="captions"/>
            </Parameters>
            <Attributes>
             <Attribute id="8097" value="" name="ident"/>
             <Attribute id="8098" value="48000" name="sampleRate"/>
             <Attribute id="8099" value="16" name="bitDepth"/>
             <Attribute id="8100" value="1" name="gain"/>
             <Attribute id="8101" value="0" name="mixToMono"/>
            </Attributes>
            <MetaData>
             <entry key="WinSubProjectDisplayName" val=""/>
            </MetaData>
           </AMFile>
          </Medias>
         </GenericTrack>
        </StitchedMedia>
        <StitchedMedia id="8102" start="3358" duration="343" scalar="1/1" mediaStart="4135/1" mediaDuration="343/1" minMediaStart="0/1" >
         <Transformer>
          <VectorParam id="8103"  name="translation">
           <InterpolatingParam id="8104" interp="linr"  time="0/1" value="0" leadInLength="0/1"  />
           <InterpolatingParam id="8105" interp="linr"  time="0/1" value="0" leadInLength="0/1"  />
           <InterpolatingParam id="8106" interp="linr"  time="0/1" value="0" leadInLength="0/1"  />
          </VectorParam>
          <VectorParam id="8107"  name="rotation">
           <InterpolatingParam id="8108" interp="linr"  time="0/1" value="0" leadInLength="0/1"  />
           <InterpolatingParam id="8109" interp="linr"  time="0/1" value="0" leadInLength="0/1"  />
           <InterpolatingParam id="8110" interp="linr"  time="0/1" value="0" leadInLength="0/1"  />
          </VectorParam>
          <VectorParam id="8111"  name="shear">
           <InterpolatingParam id="8112" interp="linr"  time="0/1" value="0" leadInLength="0/1"  />
           <InterpolatingParam id="8113" interp="linr"  time="0/1" value="0" leadInLength="0/1"  />
           <InterpolatingParam id="8114" interp="linr"  time="0/1" value="0" leadInLength="0/1"  />
          </VectorParam>
          <VectorParam id="8115"  name="scale">
           <InterpolatingParam id="8116" interp="linr"  time="0/1" value="1" leadInLength="0/1"  />
           <InterpolatingParam id="8117" interp="linr"  time="0/1" value="1" leadInLength="0/1"  />
           <InterpolatingParam id="8118" interp="linr"  time="0/1" value="1" leadInLength="0/1"  />
          </VectorParam>
          <VectorParam id="8119"  name="anchor">
           <InterpolatingParam id="8120" interp="linr"  time="0/1" value="0" leadInLength="0/1"  />
           <InterpolatingParam id="8121" interp="linr"  time="0/1" value="0" leadInLength="0/1"  />
           <InterpolatingParam id="8122" interp="linr"  time="0/1" value="0" leadInLength="0/1"  />
          </VectorParam>
         </Transformer>
         <Parameters>
          <InterpolatingParam id="8123" interp="linr"  time="0/1" value="1" leadInLength="0/1"  name="cursorOpacity"/>
          <InterpolatingParam id="8124" interp="linr"  time="0/1" value="1" leadInLength="0/1"  name="cursorScale"/>
          <InterpolatingParam id="8125" interp="linr"  time="0/1" value="1.5625" leadInLength="0/1"  name="volume"/>
          <Parameter id="8126"  name="captions"/>
         </Parameters>
         <Effects>
          <GenericEffect id="8127" name = "WinCompression" >
           <Parameters>
           <InterpolatingParam id="8128" interp="linr"  time="0/1" value="0" leadInLength="0/1"   name="attack"/>
           <InterpolatingParam id="8129" interp="linr"  time="0/1" value="9" leadInLength="0/1"   name="gain"/>
           <Parameter id="8130"   name="preset">
            <Keyframes>
            <Keyframe id="8131"  time="0/1" value="1" leadInLength="0/1"  />
            </Keyframes>
           </Parameter>
           <InterpolatingParam id="8132" interp="linr"  time="0/1" value="10" leadInLength="0/1"   name="ratio"/>
           <InterpolatingParam id="8133" interp="linr"  time="0/1" value="3500" leadInLength="0/1"   name="release"/>
           <InterpolatingParam id="8134" interp="linr"  time="0/1" value="-20" leadInLength="0/1"   name="threshold"/>
           </Parameters>
          </GenericEffect>
          <GenericEffect id="8135" name = "NoiseReduction" >
           <Parameters>
           <InterpolatingParam id="8136" interp="linr"  time="0/1" value="20" leadInLength="0/1"   name="denoiserAmount"/>
           <InterpolatingParam id="8137" interp="linr"  time="0/1" value="0" leadInLength="0/1"   name="denoiserThreshold"/>
           <Parameter id="8138"   name="noiseProfile">
            <Keyframes>
            <Keyframe id="8139"  time="0/1" value="FBAAAAIAAABErAAAAQIAAIA/l8JLuYTCrOB9wgsMfMJoG4LCaWeFwkohjMJdoYvCYv6LwlnvjcKf&#xD;&#xa;nYzChXWPwlcejsL6fo/C5OmQwgVTj8IVMI/COiWRwoWFkcJ2tYzC8I6MwuQbjcJvEo/ClwGRwheQ&#xD;&#xa;lsK8+pbCN5qVwlielcJ905rCmu+fwst0ncIC/JvCdIWdws3snsKxC5zCfh2cwniFnMJRypzCtRag&#xD;&#xa;wuoCosJQt6DCzoegwhY9ocIWN6PCsNqkwrSlpMJ6maTCYpCkwmLvo8Li+KPCyEamwnBNqMLMcqrC&#xD;&#xa;v2GswoS+q8Kk86vCVACuwnvUr8JxZa/CqHqswrdXq8LqT6zCZsuswhZxrMLBX67CnmqvwpYyrsKc&#xD;&#xa;pq3CJFGvwghrsMK3y6/CXoCtwmWZr8ICi7DCgRezwogSs8Joq7LCm0Sxwuz/scIfibTCOOK1wlIM&#xD;&#xa;t8K87LfCj3K3wqDYs8KT1bLCVsW0wnZ0tcJGhLXCfPe0ws/ntcLGXrbCzAG1wtXdtcKxxrTC1Ay1&#xD;&#xa;wquGtcLjELbC8Zi2wl7rtsJBYbbCMF+1wrEutMKuibTCSFa1wpvktMIu3rTCtGe4wjaduMIKErfC&#xD;&#xa;SLa1wvS/tsJmZrjCdn63whjft8Ie47rCfdi5wmjpt8KKCLjCXmC5wsOQt8JDGbfCK4m4wmpvuMLL&#xD;&#xa;nLjC80q4wjUVusKunLjC1Be5wg4cuMLxCbjCwfW4wmi7ucIOdbvCbLG6whqdusKYErrCbpC4wmq0&#xD;&#xa;ucIoWrvCaNe6ws4iu8LSc7zCUNa7wuJZvMIwLL3CWe28wps2v8J2l77Cv3W+wvgavsKAwrzCQCy8&#xD;&#xa;wgBRu8Km8brChSa6wuM4u8IaaL3Cf5y9wg4hvMLur7vCIpO9wm0fvcIGNLzC7Le8wvKgvMKQrLzC&#xD;&#xa;p6+9wtYtvsJcxbzCQC29wjDqvcKeNbzCH2W8wpbZvsLCTL7CnjO+wuIsvsJs67vCwLq9wiKhvsLs&#xD;&#xa;o73C5Du9wqqhvcLwKr7C2kq/wqEMv8LVCb7Cpla+wsXpvMIs6bvC/fO8wueCvsIM4b3CxtC+wmTo&#xD;&#xa;vcI+arzCTNe8wiFNv8IvKL/Cpg+/woK1v8L4i7/CNv2+wmsVv8KWj77CVym+wnAlv8Joa8DCFDzA&#xD;&#xa;wiQYwcLSIcHCxILAwuxKvsJYm77CPoHAwiYPwcLuy77CcQa+wrB4vcKwYLzCxKW8worIvcIlzr/C&#xD;&#xa;OMC+wuRDvcJGZ7zCxFi9wuQzvMLPbbvCwIe+wm7bvcLm9L3COH6+wuuJvMK2B73CYb+9wqbxvMK/&#xD;&#xa;mL7CqIe9wvCavMKs7L3Ckau8wkpavMKt9LzCF8S+wmgKvsKCy73ClrG+wmIovcIns73Cmg+/wgw7&#xD;&#xa;wMI607/CpEq/wmwVvcJLsLvCMD68wuxdvcIeI7/C+bS+wpxfvsJyxsDC1tO/wmtrv8LNnb/CQiK+&#xD;&#xa;wlz7vcLa6L/CUMXBwtrQwcIAw8HCNJHBwvphwMKqc7/CSkW/wjkvwMK8ccHCHmDBwlKAwcKu+MDC&#xD;&#xa;zErCwuqgwsLa+MLC753DwmjuxcLEWMfCkePFwo47xsKnX8XC7tTCwuf3wsL+HcLCTcTBwmg6w8Is&#xD;&#xa;RMPC+qjDwiyGxMLi58TCnWvFwpjsxsKzCMbCyCTDwpM2wcJWGMPCvuDFwh42xsIfyMTCeLTFwuH7&#xD;&#xa;xMJctcfCVv3HwpTGx8J8b8jCqhjHwrgkx8LXNsfCZkLGwnxSxcL8csXCbu7FwsaQyMLa68fCo0XH&#xD;&#xa;woruxMJGHsbCORbJwry2yMLIUsfCxlfGwmLoxcLSPMnCYPDJwkw3yMKc7crC8vDLwug2y8Lu28vC&#xD;&#xa;OKvMwvLpysKGj8rCtNXLwrMay8KdGMrCUr3JwgIVy8J64MvCkbTJwjh4x8JGI8bCvBXHwnoPycKN&#xD;&#xa;Ss3CuC/Nwuywy8IkJ8zCx9/KwnB5ycKnk8nCenLJwnN6ycKc+sjCLFzJwuTrzMJkJM/CY5vOwoYO&#xD;&#xa;zsLU987CVKfNwiZZzcJQxNDCICHVwi0d18Kc29jCIF/YwtKo2MKeBNvCwpTawmY/2sJXPdvCZZXY&#xD;&#xa;whB818IQNdjCDF3XwtWC1sIGF9fCfFfXwkBy2MJ6+9nC1hfZwi5k2cJlfNjCnEPYwm/N1cKGOdXC&#xD;&#xa;Yk/XwgXL2MJSytfCgpTWwqTT1sJOGtnCrF/ZwtcT2cK08NjCscHZwpQ72sLJ/NrCy3zYwmCk18LE&#xD;&#xa;O9fC6hbYwtYU2cJN/dnC1EbZwrw/2cIqyNbCDr7Xwvb02cLQ+dnCaJvXwuYO18KSodnC1NnawtJJ&#xD;&#xa;18ISLtjC90nawoel2cIwl9jCi0XZwih328Ks7NjC5KzZwqui2cJw0tjCukLYws+O2MJaqtrCUuXa&#xD;&#xa;wviX2MIKxtfCnqXXwhjI2MJwAtvCIFvcwgCL2cJ0/djCdyXawh9H2cJ+ntfCy4TXwhqF2MJ68NnC&#xD;&#xa;CzvYwljT2cIkP9vCIs/bwjpB2sK2A9rCXt/awjZH2sIfltvCKWPcwjp53MKrGd3CaBPewj/03MJm&#xD;&#xa;U97CphfgwlJp3cKQpt3Crxjewm7d28Kq/9vCNNXcwqY728IUH9vCkirbwgIt28KK19zCjmzdwoBH&#xD;&#xa;3MIAUtvCUq3bwo8f28Ig09jCiyfZwhbx2sLWe9zCvgzbwmwI2sI2nNvC0lvdwg6128I8PNvCLufa&#xD;&#xa;wkyK28KkitzCJIDcwmAO28L0TNrCDHXawjla28IQkdzCoCDcwjRI3MJVUdvCtujZwnCs2sK8Yd3C&#xD;&#xa;iGbbwuSB2cImFNvCCI7rwoA/l8JLuYTCrOB9wgsMfMJoG4LCaWeFwkohjMJdoYvCYv6LwlnvjcKf&#xD;&#xa;nYzChXWPwlcejsL6fo/C5OmQwgVTj8IVMI/COiWRwoWFkcJ2tYzC8I6MwuQbjcJvEo/ClwGRwheQ&#xD;&#xa;lsK8+pbCN5qVwlielcJ905rCmu+fwst0ncIC/JvCdIWdws3snsKxC5zCfh2cwniFnMJRypzCtRag&#xD;&#xa;wuoCosJQt6DCzoegwhY9ocIWN6PCsNqkwrSlpMJ6maTCYpCkwmLvo8Li+KPCyEamwnBNqMLMcqrC&#xD;&#xa;v2GswoS+q8Kk86vCVACuwnvUr8JxZa/CqHqswrdXq8LqT6zCZsuswhZxrMLBX67CnmqvwpYyrsKc&#xD;&#xa;pq3CJFGvwghrsMK3y6/CXoCtwmWZr8ICi7DCgRezwogSs8Joq7LCm0Sxwuz/scIfibTCOOK1wlIM&#xD;&#xa;t8K87LfCj3K3wqDYs8KT1bLCVsW0wnZ0tcJGhLXCfPe0ws/ntcLGXrbCzAG1wtXdtcKxxrTC1Ay1&#xD;&#xa;wquGtcLjELbC8Zi2wl7rtsJBYbbCMF+1wrEutMKuibTCSFa1wpvktMIu3rTCtGe4wjaduMIKErfC&#xD;&#xa;SLa1wvS/tsJmZrjCdn63whjft8Ie47rCfdi5wmjpt8KKCLjCXmC5wsOQt8JDGbfCK4m4wmpvuMLL&#xD;&#xa;nLjC80q4wjUVusKunLjC1Be5wg4cuMLxCbjCwfW4wmi7ucIOdbvCbLG6whqdusKYErrCbpC4wmq0&#xD;&#xa;ucIoWrvCaNe6ws4iu8LSc7zCUNa7wuJZvMIwLL3CWe28wps2v8J2l77Cv3W+wvgavsKAwrzCQCy8&#xD;&#xa;wgBRu8Km8brChSa6wuM4u8IaaL3Cf5y9wg4hvMLur7vCIpO9wm0fvcIGNLzC7Le8wvKgvMKQrLzC&#xD;&#xa;p6+9wtYtvsJcxbzCQC29wjDqvcKeNbzCH2W8wpbZvsLCTL7CnjO+wuIsvsJs67vCwLq9wiKhvsLs&#xD;&#xa;o73C5Du9wqqhvcLwKr7C2kq/wqEMv8LVCb7Cpla+wsXpvMIs6bvC/fO8wueCvsIM4b3CxtC+wmTo&#xD;&#xa;vcI+arzCTNe8wiFNv8IvKL/Cpg+/woK1v8L4i7/CNv2+wmsVv8KWj77CVym+wnAlv8Joa8DCFDzA&#xD;&#xa;wiQYwcLSIcHCxILAwuxKvsJYm77CPoHAwiYPwcLuy77CcQa+wrB4vcKwYLzCxKW8worIvcIlzr/C&#xD;&#xa;OMC+wuRDvcJGZ7zCxFi9wuQzvMLPbbvCwIe+wm7bvcLm9L3COH6+wuuJvMK2B73CYb+9wqbxvMK/&#xD;&#xa;mL7CqIe9wvCavMKs7L3Ckau8wkpavMKt9LzCF8S+wmgKvsKCy73ClrG+wmIovcIns73Cmg+/wgw7&#xD;&#xa;wMI607/CpEq/wmwVvcJLsLvCMD68wuxdvcIeI7/C+bS+wpxfvsJyxsDC1tO/wmtrv8LNnb/CQiK+&#xD;&#xa;wlz7vcLa6L/CUMXBwtrQwcIAw8HCNJHBwvphwMKqc7/CSkW/wjkvwMK8ccHCHmDBwlKAwcKu+MDC&#xD;&#xa;zErCwuqgwsLa+MLC753DwmjuxcLEWMfCkePFwo47xsKnX8XC7tTCwuf3wsL+HcLCTcTBwmg6w8Is&#xD;&#xa;RMPC+qjDwiyGxMLi58TCnWvFwpjsxsKzCMbCyCTDwpM2wcJWGMPCvuDFwh42xsIfyMTCeLTFwuH7&#xD;&#xa;xMJctcfCVv3HwpTGx8J8b8jCqhjHwrgkx8LXNsfCZkLGwnxSxcL8csXCbu7FwsaQyMLa68fCo0XH&#xD;&#xa;woruxMJGHsbCORbJwry2yMLIUsfCxlfGwmLoxcLSPMnCYPDJwkw3yMKc7crC8vDLwug2y8Lu28vC&#xD;&#xa;OKvMwvLpysKGj8rCtNXLwrMay8KdGMrCUr3JwgIVy8J64MvCkbTJwjh4x8JGI8bCvBXHwnoPycKN&#xD;&#xa;Ss3CuC/Nwuywy8IkJ8zCx9/KwnB5ycKnk8nCenLJwnN6ycKc+sjCLFzJwuTrzMJkJM/CY5vOwoYO&#xD;&#xa;zsLU987CVKfNwiZZzcJQxNDCICHVwi0d18Kc29jCIF/YwtKo2MKeBNvCwpTawmY/2sJXPdvCZZXY&#xD;&#xa;whB818IQNdjCDF3XwtWC1sIGF9fCfFfXwkBy2MJ6+9nC1hfZwi5k2cJlfNjCnEPYwm/N1cKGOdXC&#xD;&#xa;Yk/XwgXL2MJSytfCgpTWwqTT1sJOGtnCrF/ZwtcT2cK08NjCscHZwpQ72sLJ/NrCy3zYwmCk18LE&#xD;&#xa;O9fC6hbYwtYU2cJN/dnC1EbZwrw/2cIqyNbCDr7Xwvb02cLQ+dnCaJvXwuYO18KSodnC1NnawtJJ&#xD;&#xa;18ISLtjC90nawoel2cIwl9jCi0XZwih328Ks7NjC5KzZwqui2cJw0tjCukLYws+O2MJaqtrCUuXa&#xD;&#xa;wviX2MIKxtfCnqXXwhjI2MJwAtvCIFvcwgCL2cJ0/djCdyXawh9H2cJ+ntfCy4TXwhqF2MJ68NnC&#xD;&#xa;CzvYwljT2cIkP9vCIs/bwjpB2sK2A9rCXt/awjZH2sIfltvCKWPcwjp53MKrGd3CaBPewj/03MJm&#xD;&#xa;U97CphfgwlJp3cKQpt3Crxjewm7d28Kq/9vCNNXcwqY728IUH9vCkirbwgIt28KK19zCjmzdwoBH&#xD;&#xa;3MIAUtvCUq3bwo8f28Ig09jCiyfZwhbx2sLWe9zCvgzbwmwI2sI2nNvC0lvdwg6128I8PNvCLufa&#xD;&#xa;wkyK28KkitzCJIDcwmAO28L0TNrCDHXawjla28IQkdzCoCDcwjRI3MJVUdvCtujZwnCs2sK8Yd3C&#xD;&#xa;iGbbwuSB2cImFNvCCI7r" leadInLength="0/1"  />
            </Keyframes>
           </Parameter>
           </Parameters>
          </GenericEffect>
          <GenericEffect id="8140" name = "Declipper" >
           <Parameters>
           <InterpolatingParam id="8141" interp="linr"  time="0/1" value="-1" leadInLength="0/1"   name="sensitivity"/>
           </Parameters>
          </GenericEffect>
          <GenericEffect id="8142" name = "Declicker" >
           <Parameters>
           <InterpolatingParam id="8143" interp="linr"  time="0/1" value="3" leadInLength="0/1"   name="sensitivity"/>
           </Parameters>
          </GenericEffect>
         </Effects>
         <Attributes>
          <Attribute id="8144" value="" name="ident"/>
          <Attribute id="8145" value="0" name="mixToMono"/>
         </Attributes>
         <MetaData>
          <entry key="WinSubProjectDisplayName" val=""/>
         </MetaData>
         <ExtraData>
          <Entry key="ZoomPanBin">
           <ZoomPanBin id="8146"  >
            <ZoomPanKeyframes>
            </ZoomPanKeyframes>
           </ZoomPanBin>
          </Entry>
          <Entry key="CursorEffectBin">
           <CursorEffectBin id="8147"  >
            <CursorEffectKeyframes>
            </CursorEffectKeyframes>
           </CursorEffectBin>
          </Entry>
         </ExtraData>
         <GenericTrack id="8148"  >
          <Attributes>
           <Attribute id="8149" value="" name="ident"/>
           <Attribute id="8150" value="0" name="audioMuted"/>
           <Attribute id="8151" value="0" name="videoHidden"/>
          </Attributes>
          <MetaData>
           <entry key="IsLocked" val="False"/>
           <entry key="WinTrackHeight" val="0"/>
          </MetaData>
          <Medias>
           <AMFile id="8152" start="0" duration="117" scalar="1/1" mediaStart="0/1" mediaDuration="117/1" trackNumber="0" src="29" channelNumber="0" >
            <Parameters>
             <InterpolatingParam id="8153" interp="linr"  time="0/1" value="1" leadInLength="0/1"  name="volume"/>
             <Parameter id="8154"  name="captions"/>
            </Parameters>
            <Attributes>
             <Attribute id="8155" value="" name="ident"/>
             <Attribute id="8156" value="48000" name="sampleRate"/>
             <Attribute id="8157" value="16" name="bitDepth"/>
             <Attribute id="8158" value="1" name="gain"/>
             <Attribute id="8159" value="0" name="mixToMono"/>
            </Attributes>
            <MetaData>
             <entry key="WinSubProjectDisplayName" val=""/>
            </MetaData>
           </AMFile>
           <AMFile id="8160" start="117" duration="272" scalar="1/1" mediaStart="131/1" mediaDuration="272/1" trackNumber="0" src="29" channelNumber="0" >
            <Parameters>
             <InterpolatingParam id="8161" interp="linr"  time="0/1" value="1" leadInLength="0/1"  name="volume"/>
             <Parameter id="8162"  name="captions"/>
            </Parameters>
            <Attributes>
             <Attribute id="8163" value="" name="ident"/>
             <Attribute id="8164" value="48000" name="sampleRate"/>
             <Attribute id="8165" value="16" name="bitDepth"/>
             <Attribute id="8166" value="1" name="gain"/>
             <Attribute id="8167" value="0" name="mixToMono"/>
            </Attributes>
            <MetaData>
             <entry key="WinSubProjectDisplayName" val=""/>
            </MetaData>
           </AMFile>
           <AMFile id="8168" start="389" duration="1309" scalar="1/1" mediaStart="415/1" mediaDuration="1309/1" trackNumber="0" src="29" channelNumber="0" >
            <Parameters>
             <InterpolatingParam id="8169" interp="linr"  time="0/1" value="1" leadInLength="0/1"  name="volume"/>
             <Parameter id="8170"  name="captions"/>
            </Parameters>
            <Attributes>
             <Attribute id="8171" value="" name="ident"/>
             <Attribute id="8172" value="48000" name="sampleRate"/>
             <Attribute id="8173" value="16" name="bitDepth"/>
             <Attribute id="8174" value="1" name="gain"/>
             <Attribute id="8175" value="0" name="mixToMono"/>
            </Attributes>
            <MetaData>
             <entry key="WinSubProjectDisplayName" val=""/>
            </MetaData>
           </AMFile>
           <AMFile id="8176" start="1698" duration="103" scalar="1/1" mediaStart="1734/1" mediaDuration="103/1" trackNumber="0" src="29" channelNumber="0" >
            <Parameters>
             <InterpolatingParam id="8177" interp="linr"  time="0/1" value="1" leadInLength="0/1"  name="volume"/>
             <Parameter id="8178"  name="captions"/>
            </Parameters>
            <Attributes>
             <Attribute id="8179" value="" name="ident"/>
             <Attribute id="8180" value="48000" name="sampleRate"/>
             <Attribute id="8181" value="16" name="bitDepth"/>
             <Attribute id="8182" value="1" name="gain"/>
             <Attribute id="8183" value="0" name="mixToMono"/>
            </Attributes>
            <MetaData>
             <entry key="WinSubProjectDisplayName" val=""/>
            </MetaData>
           </AMFile>
           <AMFile id="8184" start="1801" duration="245" scalar="1/1" mediaStart="2164/1" mediaDuration="245/1" trackNumber="0" src="29" channelNumber="0" >
            <Parameters>
             <InterpolatingParam id="8185" interp="linr"  time="0/1" value="1" leadInLength="0/1"  name="volume"/>
             <Parameter id="8186"  name="captions"/>
            </Parameters>
            <Attributes>
             <Attribute id="8187" value="" name="ident"/>
             <Attribute id="8188" value="48000" name="sampleRate"/>
             <Attribute id="8189" value="16" name="bitDepth"/>
             <Attribute id="8190" value="1" name="gain"/>
             <Attribute id="8191" value="0" name="mixToMono"/>
            </Attributes>
            <MetaData>
             <entry key="WinSubProjectDisplayName" val=""/>
            </MetaData>
           </AMFile>
           <AMFile id="8192" start="2046" duration="202" scalar="1/1" mediaStart="2637/1" mediaDuration="202/1" trackNumber="0" src="29" channelNumber="0" >
            <Parameters>
             <InterpolatingParam id="8193" interp="linr"  time="0/1" value="1" leadInLength="0/1"  name="volume"/>
             <Parameter id="8194"  name="captions"/>
            </Parameters>
            <Attributes>
             <Attribute id="8195" value="" name="ident"/>
             <Attribute id="8196" value="48000" name="sampleRate"/>
             <Attribute id="8197" value="16" name="bitDepth"/>
             <Attribute id="8198" value="1" name="gain"/>
             <Attribute id="8199" value="0" name="mixToMono"/>
            </Attributes>
            <MetaData>
             <entry key="WinSubProjectDisplayName" val=""/>
            </MetaData>
           </AMFile>
           <AMFile id="8200" start="2248" duration="185" scalar="1/1" mediaStart="2856/1" mediaDuration="185/1" trackNumber="0" src="29" channelNumber="0" >
            <Parameters>
             <InterpolatingParam id="8201" interp="linr"  time="0/1" value="1" leadInLength="0/1"  name="volume"/>
             <Parameter id="8202"  name="captions"/>
            </Parameters>
            <Attributes>
             <Attribute id="8203" value="" name="ident"/>
             <Attribute id="8204" value="48000" name="sampleRate"/>
             <Attribute id="8205" value="16" name="bitDepth"/>
             <Attribute id="8206" value="1" name="gain"/>
             <Attribute id="8207" value="0" name="mixToMono"/>
            </Attributes>
            <MetaData>
             <entry key="WinSubProjectDisplayName" val=""/>
            </MetaData>
           </AMFile>
           <AMFile id="8208" start="2433" duration="215" scalar="1/1" mediaStart="3054/1" mediaDuration="215/1" trackNumber="0" src="29" channelNumber="0" >
            <Parameters>
             <InterpolatingParam id="8209" interp="linr"  time="0/1" value="1" leadInLength="0/1"  name="volume"/>
             <Parameter id="8210"  name="captions"/>
            </Parameters>
            <Attributes>
             <Attribute id="8211" value="" name="ident"/>
             <Attribute id="8212" value="48000" name="sampleRate"/>
             <Attribute id="8213" value="16" name="bitDepth"/>
             <Attribute id="8214" value="1" name="gain"/>
             <Attribute id="8215" value="0" name="mixToMono"/>
            </Attributes>
            <MetaData>
             <entry key="WinSubProjectDisplayName" val=""/>
            </MetaData>
           </AMFile>
           <AMFile id="8216" start="2648" duration="155" scalar="1/1" mediaStart="3288/1" mediaDuration="155/1" trackNumber="0" src="29" channelNumber="0" >
            <Parameters>
             <InterpolatingParam id="8217" interp="linr"  time="0/1" value="1" leadInLength="0/1"  name="volume"/>
             <Parameter id="8218"  name="captions"/>
            </Parameters>
            <Attributes>
             <Attribute id="8219" value="" name="ident"/>
             <Attribute id="8220" value="48000" name="sampleRate"/>
             <Attribute id="8221" value="16" name="bitDepth"/>
             <Attribute id="8222" value="1" name="gain"/>
             <Attribute id="8223" value="0" name="mixToMono"/>
            </Attributes>
            <MetaData>
             <entry key="WinSubProjectDisplayName" val=""/>
            </MetaData>
           </AMFile>
           <AMFile id="8224" start="2803" duration="103" scalar="1/1" mediaStart="3450/1" mediaDuration="103/1" trackNumber="0" src="29" channelNumber="0" >
            <Parameters>
             <InterpolatingParam id="8225" interp="linr"  time="0/1" value="1" leadInLength="0/1"  name="volume"/>
             <Parameter id="8226"  name="captions"/>
            </Parameters>
            <Attributes>
             <Attribute id="8227" value="" name="ident"/>
             <Attribute id="8228" value="48000" name="sampleRate"/>
             <Attribute id="8229" value="16" name="bitDepth"/>
             <Attribute id="8230" value="1" name="gain"/>
             <Attribute id="8231" value="0" name="mixToMono"/>
            </Attributes>
            <MetaData>
             <entry key="WinSubProjectDisplayName" val=""/>
            </MetaData>
           </AMFile>
           <AMFile id="8232" start="2906" duration="10082" scalar="1/1" mediaStart="3564/1" mediaDuration="10082/1" trackNumber="0" src="29" channelNumber="0" >
            <Parameters>
             <InterpolatingParam id="8233" interp="linr"  time="0/1" value="1" leadInLength="0/1"  name="volume"/>
             <Parameter id="8234"  name="captions"/>
            </Parameters>
            <Attributes>
             <Attribute id="8235" value="" name="ident"/>
             <Attribute id="8236" value="48000" name="sampleRate"/>
             <Attribute id="8237" value="16" name="bitDepth"/>
             <Attribute id="8238" value="1" name="gain"/>
             <Attribute id="8239" value="0" name="mixToMono"/>
            </Attributes>
            <MetaData>
             <entry key="WinSubProjectDisplayName" val=""/>
            </MetaData>
           </AMFile>
          </Medias>
         </GenericTrack>
        </StitchedMedia>
        <StitchedMedia id="8240" start="3701" duration="2266" scalar="1/1" mediaStart="4816/1" mediaDuration="2266/1" minMediaStart="0/1" >
         <Transformer>
          <VectorParam id="8241"  name="translation">
           <InterpolatingParam id="8242" interp="linr"  time="0/1" value="0" leadInLength="0/1"  />
           <InterpolatingParam id="8243" interp="linr"  time="0/1" value="0" leadInLength="0/1"  />
           <InterpolatingParam id="8244" interp="linr"  time="0/1" value="0" leadInLength="0/1"  />
          </VectorParam>
          <VectorParam id="8245"  name="rotation">
           <InterpolatingParam id="8246" interp="linr"  time="0/1" value="0" leadInLength="0/1"  />
           <InterpolatingParam id="8247" interp="linr"  time="0/1" value="0" leadInLength="0/1"  />
           <InterpolatingParam id="8248" interp="linr"  time="0/1" value="0" leadInLength="0/1"  />
          </VectorParam>
          <VectorParam id="8249"  name="shear">
           <InterpolatingParam id="8250" interp="linr"  time="0/1" value="0" leadInLength="0/1"  />
           <InterpolatingParam id="8251" interp="linr"  time="0/1" value="0" leadInLength="0/1"  />
           <InterpolatingParam id="8252" interp="linr"  time="0/1" value="0" leadInLength="0/1"  />
          </VectorParam>
          <VectorParam id="8253"  name="scale">
           <InterpolatingParam id="8254" interp="linr"  time="0/1" value="1" leadInLength="0/1"  />
           <InterpolatingParam id="8255" interp="linr"  time="0/1" value="1" leadInLength="0/1"  />
           <InterpolatingParam id="8256" interp="linr"  time="0/1" value="1" leadInLength="0/1"  />
          </VectorParam>
          <VectorParam id="8257"  name="anchor">
           <InterpolatingParam id="8258" interp="linr"  time="0/1" value="0" leadInLength="0/1"  />
           <InterpolatingParam id="8259" interp="linr"  time="0/1" value="0" leadInLength="0/1"  />
           <InterpolatingParam id="8260" interp="linr"  time="0/1" value="0" leadInLength="0/1"  />
          </VectorParam>
         </Transformer>
         <Parameters>
          <InterpolatingParam id="8261" interp="linr"  time="0/1" value="1" leadInLength="0/1"  name="cursorOpacity"/>
          <InterpolatingParam id="8262" interp="linr"  time="0/1" value="1" leadInLength="0/1"  name="cursorScale"/>
          <InterpolatingParam id="8263" interp="linr"  time="0/1" value="1.5625" leadInLength="0/1"  name="volume"/>
          <Parameter id="8264"  name="captions"/>
         </Parameters>
         <Effects>
          <GenericEffect id="8265" name = "WinCompression" >
           <Parameters>
           <InterpolatingParam id="8266" interp="linr"  time="0/1" value="0" leadInLength="0/1"   name="attack"/>
           <InterpolatingParam id="8267" interp="linr"  time="0/1" value="9" leadInLength="0/1"   name="gain"/>
           <Parameter id="8268"   name="preset">
            <Keyframes>
            <Keyframe id="8269"  time="0/1" value="1" leadInLength="0/1"  />
            </Keyframes>
           </Parameter>
           <InterpolatingParam id="8270" interp="linr"  time="0/1" value="10" leadInLength="0/1"   name="ratio"/>
           <InterpolatingParam id="8271" interp="linr"  time="0/1" value="3500" leadInLength="0/1"   name="release"/>
           <InterpolatingParam id="8272" interp="linr"  time="0/1" value="-20" leadInLength="0/1"   name="threshold"/>
           </Parameters>
          </GenericEffect>
          <GenericEffect id="8273" name = "NoiseReduction" >
           <Parameters>
           <InterpolatingParam id="8274" interp="linr"  time="0/1" value="20" leadInLength="0/1"   name="denoiserAmount"/>
           <InterpolatingParam id="8275" interp="linr"  time="0/1" value="0" leadInLength="0/1"   name="denoiserThreshold"/>
           <Parameter id="8276"   name="noiseProfile">
            <Keyframes>
            <Keyframe id="8277"  time="0/1" value="FBAAAAIAAABErAAAAQIAAIA/l8JLuYTCrOB9wgsMfMJoG4LCaWeFwkohjMJdoYvCYv6LwlnvjcKf&#xD;&#xa;nYzChXWPwlcejsL6fo/C5OmQwgVTj8IVMI/COiWRwoWFkcJ2tYzC8I6MwuQbjcJvEo/ClwGRwheQ&#xD;&#xa;lsK8+pbCN5qVwlielcJ905rCmu+fwst0ncIC/JvCdIWdws3snsKxC5zCfh2cwniFnMJRypzCtRag&#xD;&#xa;wuoCosJQt6DCzoegwhY9ocIWN6PCsNqkwrSlpMJ6maTCYpCkwmLvo8Li+KPCyEamwnBNqMLMcqrC&#xD;&#xa;v2GswoS+q8Kk86vCVACuwnvUr8JxZa/CqHqswrdXq8LqT6zCZsuswhZxrMLBX67CnmqvwpYyrsKc&#xD;&#xa;pq3CJFGvwghrsMK3y6/CXoCtwmWZr8ICi7DCgRezwogSs8Joq7LCm0Sxwuz/scIfibTCOOK1wlIM&#xD;&#xa;t8K87LfCj3K3wqDYs8KT1bLCVsW0wnZ0tcJGhLXCfPe0ws/ntcLGXrbCzAG1wtXdtcKxxrTC1Ay1&#xD;&#xa;wquGtcLjELbC8Zi2wl7rtsJBYbbCMF+1wrEutMKuibTCSFa1wpvktMIu3rTCtGe4wjaduMIKErfC&#xD;&#xa;SLa1wvS/tsJmZrjCdn63whjft8Ie47rCfdi5wmjpt8KKCLjCXmC5wsOQt8JDGbfCK4m4wmpvuMLL&#xD;&#xa;nLjC80q4wjUVusKunLjC1Be5wg4cuMLxCbjCwfW4wmi7ucIOdbvCbLG6whqdusKYErrCbpC4wmq0&#xD;&#xa;ucIoWrvCaNe6ws4iu8LSc7zCUNa7wuJZvMIwLL3CWe28wps2v8J2l77Cv3W+wvgavsKAwrzCQCy8&#xD;&#xa;wgBRu8Km8brChSa6wuM4u8IaaL3Cf5y9wg4hvMLur7vCIpO9wm0fvcIGNLzC7Le8wvKgvMKQrLzC&#xD;&#xa;p6+9wtYtvsJcxbzCQC29wjDqvcKeNbzCH2W8wpbZvsLCTL7CnjO+wuIsvsJs67vCwLq9wiKhvsLs&#xD;&#xa;o73C5Du9wqqhvcLwKr7C2kq/wqEMv8LVCb7Cpla+wsXpvMIs6bvC/fO8wueCvsIM4b3CxtC+wmTo&#xD;&#xa;vcI+arzCTNe8wiFNv8IvKL/Cpg+/woK1v8L4i7/CNv2+wmsVv8KWj77CVym+wnAlv8Joa8DCFDzA&#xD;&#xa;wiQYwcLSIcHCxILAwuxKvsJYm77CPoHAwiYPwcLuy77CcQa+wrB4vcKwYLzCxKW8worIvcIlzr/C&#xD;&#xa;OMC+wuRDvcJGZ7zCxFi9wuQzvMLPbbvCwIe+wm7bvcLm9L3COH6+wuuJvMK2B73CYb+9wqbxvMK/&#xD;&#xa;mL7CqIe9wvCavMKs7L3Ckau8wkpavMKt9LzCF8S+wmgKvsKCy73ClrG+wmIovcIns73Cmg+/wgw7&#xD;&#xa;wMI607/CpEq/wmwVvcJLsLvCMD68wuxdvcIeI7/C+bS+wpxfvsJyxsDC1tO/wmtrv8LNnb/CQiK+&#xD;&#xa;wlz7vcLa6L/CUMXBwtrQwcIAw8HCNJHBwvphwMKqc7/CSkW/wjkvwMK8ccHCHmDBwlKAwcKu+MDC&#xD;&#xa;zErCwuqgwsLa+MLC753DwmjuxcLEWMfCkePFwo47xsKnX8XC7tTCwuf3wsL+HcLCTcTBwmg6w8Is&#xD;&#xa;RMPC+qjDwiyGxMLi58TCnWvFwpjsxsKzCMbCyCTDwpM2wcJWGMPCvuDFwh42xsIfyMTCeLTFwuH7&#xD;&#xa;xMJctcfCVv3HwpTGx8J8b8jCqhjHwrgkx8LXNsfCZkLGwnxSxcL8csXCbu7FwsaQyMLa68fCo0XH&#xD;&#xa;woruxMJGHsbCORbJwry2yMLIUsfCxlfGwmLoxcLSPMnCYPDJwkw3yMKc7crC8vDLwug2y8Lu28vC&#xD;&#xa;OKvMwvLpysKGj8rCtNXLwrMay8KdGMrCUr3JwgIVy8J64MvCkbTJwjh4x8JGI8bCvBXHwnoPycKN&#xD;&#xa;Ss3CuC/Nwuywy8IkJ8zCx9/KwnB5ycKnk8nCenLJwnN6ycKc+sjCLFzJwuTrzMJkJM/CY5vOwoYO&#xD;&#xa;zsLU987CVKfNwiZZzcJQxNDCICHVwi0d18Kc29jCIF/YwtKo2MKeBNvCwpTawmY/2sJXPdvCZZXY&#xD;&#xa;whB818IQNdjCDF3XwtWC1sIGF9fCfFfXwkBy2MJ6+9nC1hfZwi5k2cJlfNjCnEPYwm/N1cKGOdXC&#xD;&#xa;Yk/XwgXL2MJSytfCgpTWwqTT1sJOGtnCrF/ZwtcT2cK08NjCscHZwpQ72sLJ/NrCy3zYwmCk18LE&#xD;&#xa;O9fC6hbYwtYU2cJN/dnC1EbZwrw/2cIqyNbCDr7Xwvb02cLQ+dnCaJvXwuYO18KSodnC1NnawtJJ&#xD;&#xa;18ISLtjC90nawoel2cIwl9jCi0XZwih328Ks7NjC5KzZwqui2cJw0tjCukLYws+O2MJaqtrCUuXa&#xD;&#xa;wviX2MIKxtfCnqXXwhjI2MJwAtvCIFvcwgCL2cJ0/djCdyXawh9H2cJ+ntfCy4TXwhqF2MJ68NnC&#xD;&#xa;CzvYwljT2cIkP9vCIs/bwjpB2sK2A9rCXt/awjZH2sIfltvCKWPcwjp53MKrGd3CaBPewj/03MJm&#xD;&#xa;U97CphfgwlJp3cKQpt3Crxjewm7d28Kq/9vCNNXcwqY728IUH9vCkirbwgIt28KK19zCjmzdwoBH&#xD;&#xa;3MIAUtvCUq3bwo8f28Ig09jCiyfZwhbx2sLWe9zCvgzbwmwI2sI2nNvC0lvdwg6128I8PNvCLufa&#xD;&#xa;wkyK28KkitzCJIDcwmAO28L0TNrCDHXawjla28IQkdzCoCDcwjRI3MJVUdvCtujZwnCs2sK8Yd3C&#xD;&#xa;iGbbwuSB2cImFNvCCI7rwoA/l8JLuYTCrOB9wgsMfMJoG4LCaWeFwkohjMJdoYvCYv6LwlnvjcKf&#xD;&#xa;nYzChXWPwlcejsL6fo/C5OmQwgVTj8IVMI/COiWRwoWFkcJ2tYzC8I6MwuQbjcJvEo/ClwGRwheQ&#xD;&#xa;lsK8+pbCN5qVwlielcJ905rCmu+fwst0ncIC/JvCdIWdws3snsKxC5zCfh2cwniFnMJRypzCtRag&#xD;&#xa;wuoCosJQt6DCzoegwhY9ocIWN6PCsNqkwrSlpMJ6maTCYpCkwmLvo8Li+KPCyEamwnBNqMLMcqrC&#xD;&#xa;v2GswoS+q8Kk86vCVACuwnvUr8JxZa/CqHqswrdXq8LqT6zCZsuswhZxrMLBX67CnmqvwpYyrsKc&#xD;&#xa;pq3CJFGvwghrsMK3y6/CXoCtwmWZr8ICi7DCgRezwogSs8Joq7LCm0Sxwuz/scIfibTCOOK1wlIM&#xD;&#xa;t8K87LfCj3K3wqDYs8KT1bLCVsW0wnZ0tcJGhLXCfPe0ws/ntcLGXrbCzAG1wtXdtcKxxrTC1Ay1&#xD;&#xa;wquGtcLjELbC8Zi2wl7rtsJBYbbCMF+1wrEutMKuibTCSFa1wpvktMIu3rTCtGe4wjaduMIKErfC&#xD;&#xa;SLa1wvS/tsJmZrjCdn63whjft8Ie47rCfdi5wmjpt8KKCLjCXmC5wsOQt8JDGbfCK4m4wmpvuMLL&#xD;&#xa;nLjC80q4wjUVusKunLjC1Be5wg4cuMLxCbjCwfW4wmi7ucIOdbvCbLG6whqdusKYErrCbpC4wmq0&#xD;&#xa;ucIoWrvCaNe6ws4iu8LSc7zCUNa7wuJZvMIwLL3CWe28wps2v8J2l77Cv3W+wvgavsKAwrzCQCy8&#xD;&#xa;wgBRu8Km8brChSa6wuM4u8IaaL3Cf5y9wg4hvMLur7vCIpO9wm0fvcIGNLzC7Le8wvKgvMKQrLzC&#xD;&#xa;p6+9wtYtvsJcxbzCQC29wjDqvcKeNbzCH2W8wpbZvsLCTL7CnjO+wuIsvsJs67vCwLq9wiKhvsLs&#xD;&#xa;o73C5Du9wqqhvcLwKr7C2kq/wqEMv8LVCb7Cpla+wsXpvMIs6bvC/fO8wueCvsIM4b3CxtC+wmTo&#xD;&#xa;vcI+arzCTNe8wiFNv8IvKL/Cpg+/woK1v8L4i7/CNv2+wmsVv8KWj77CVym+wnAlv8Joa8DCFDzA&#xD;&#xa;wiQYwcLSIcHCxILAwuxKvsJYm77CPoHAwiYPwcLuy77CcQa+wrB4vcKwYLzCxKW8worIvcIlzr/C&#xD;&#xa;OMC+wuRDvcJGZ7zCxFi9wuQzvMLPbbvCwIe+wm7bvcLm9L3COH6+wuuJvMK2B73CYb+9wqbxvMK/&#xD;&#xa;mL7CqIe9wvCavMKs7L3Ckau8wkpavMKt9LzCF8S+wmgKvsKCy73ClrG+wmIovcIns73Cmg+/wgw7&#xD;&#xa;wMI607/CpEq/wmwVvcJLsLvCMD68wuxdvcIeI7/C+bS+wpxfvsJyxsDC1tO/wmtrv8LNnb/CQiK+&#xD;&#xa;wlz7vcLa6L/CUMXBwtrQwcIAw8HCNJHBwvphwMKqc7/CSkW/wjkvwMK8ccHCHmDBwlKAwcKu+MDC&#xD;&#xa;zErCwuqgwsLa+MLC753DwmjuxcLEWMfCkePFwo47xsKnX8XC7tTCwuf3wsL+HcLCTcTBwmg6w8Is&#xD;&#xa;RMPC+qjDwiyGxMLi58TCnWvFwpjsxsKzCMbCyCTDwpM2wcJWGMPCvuDFwh42xsIfyMTCeLTFwuH7&#xD;&#xa;xMJctcfCVv3HwpTGx8J8b8jCqhjHwrgkx8LXNsfCZkLGwnxSxcL8csXCbu7FwsaQyMLa68fCo0XH&#xD;&#xa;woruxMJGHsbCORbJwry2yMLIUsfCxlfGwmLoxcLSPMnCYPDJwkw3yMKc7crC8vDLwug2y8Lu28vC&#xD;&#xa;OKvMwvLpysKGj8rCtNXLwrMay8KdGMrCUr3JwgIVy8J64MvCkbTJwjh4x8JGI8bCvBXHwnoPycKN&#xD;&#xa;Ss3CuC/Nwuywy8IkJ8zCx9/KwnB5ycKnk8nCenLJwnN6ycKc+sjCLFzJwuTrzMJkJM/CY5vOwoYO&#xD;&#xa;zsLU987CVKfNwiZZzcJQxNDCICHVwi0d18Kc29jCIF/YwtKo2MKeBNvCwpTawmY/2sJXPdvCZZXY&#xD;&#xa;whB818IQNdjCDF3XwtWC1sIGF9fCfFfXwkBy2MJ6+9nC1hfZwi5k2cJlfNjCnEPYwm/N1cKGOdXC&#xD;&#xa;Yk/XwgXL2MJSytfCgpTWwqTT1sJOGtnCrF/ZwtcT2cK08NjCscHZwpQ72sLJ/NrCy3zYwmCk18LE&#xD;&#xa;O9fC6hbYwtYU2cJN/dnC1EbZwrw/2cIqyNbCDr7Xwvb02cLQ+dnCaJvXwuYO18KSodnC1NnawtJJ&#xD;&#xa;18ISLtjC90nawoel2cIwl9jCi0XZwih328Ks7NjC5KzZwqui2cJw0tjCukLYws+O2MJaqtrCUuXa&#xD;&#xa;wviX2MIKxtfCnqXXwhjI2MJwAtvCIFvcwgCL2cJ0/djCdyXawh9H2cJ+ntfCy4TXwhqF2MJ68NnC&#xD;&#xa;CzvYwljT2cIkP9vCIs/bwjpB2sK2A9rCXt/awjZH2sIfltvCKWPcwjp53MKrGd3CaBPewj/03MJm&#xD;&#xa;U97CphfgwlJp3cKQpt3Crxjewm7d28Kq/9vCNNXcwqY728IUH9vCkirbwgIt28KK19zCjmzdwoBH&#xD;&#xa;3MIAUtvCUq3bwo8f28Ig09jCiyfZwhbx2sLWe9zCvgzbwmwI2sI2nNvC0lvdwg6128I8PNvCLufa&#xD;&#xa;wkyK28KkitzCJIDcwmAO28L0TNrCDHXawjla28IQkdzCoCDcwjRI3MJVUdvCtujZwnCs2sK8Yd3C&#xD;&#xa;iGbbwuSB2cImFNvCCI7r" leadInLength="0/1"  />
            </Keyframes>
           </Parameter>
           </Parameters>
          </GenericEffect>
          <GenericEffect id="8278" name = "Declipper" >
           <Parameters>
           <InterpolatingParam id="8279" interp="linr"  time="0/1" value="-1" leadInLength="0/1"   name="sensitivity"/>
           </Parameters>
          </GenericEffect>
          <GenericEffect id="8280" name = "Declicker" >
           <Parameters>
           <InterpolatingParam id="8281" interp="linr"  time="0/1" value="3" leadInLength="0/1"   name="sensitivity"/>
           </Parameters>
          </GenericEffect>
         </Effects>
         <Attributes>
          <Attribute id="8282" value="" name="ident"/>
          <Attribute id="8283" value="0" name="mixToMono"/>
         </Attributes>
         <MetaData>
          <entry key="WinSubProjectDisplayName" val=""/>
         </MetaData>
         <ExtraData>
          <Entry key="ZoomPanBin">
           <ZoomPanBin id="8284"  >
            <ZoomPanKeyframes>
            </ZoomPanKeyframes>
           </ZoomPanBin>
          </Entry>
          <Entry key="CursorEffectBin">
           <CursorEffectBin id="8285"  >
            <CursorEffectKeyframes>
            </CursorEffectKeyframes>
           </CursorEffectBin>
          </Entry>
         </ExtraData>
         <GenericTrack id="8286"  >
          <Attributes>
           <Attribute id="8287" value="" name="ident"/>
           <Attribute id="8288" value="0" name="audioMuted"/>
           <Attribute id="8289" value="0" name="videoHidden"/>
          </Attributes>
          <MetaData>
           <entry key="IsLocked" val="False"/>
           <entry key="WinTrackHeight" val="0"/>
          </MetaData>
          <Medias>
           <AMFile id="8290" start="0" duration="117" scalar="1/1" mediaStart="0/1" mediaDuration="117/1" trackNumber="0" src="29" channelNumber="0" >
            <Parameters>
             <InterpolatingParam id="8291" interp="linr"  time="0/1" value="1" leadInLength="0/1"  name="volume"/>
             <Parameter id="8292"  name="captions"/>
            </Parameters>
            <Attributes>
             <Attribute id="8293" value="" name="ident"/>
             <Attribute id="8294" value="48000" name="sampleRate"/>
             <Attribute id="8295" value="16" name="bitDepth"/>
             <Attribute id="8296" value="1" name="gain"/>
             <Attribute id="8297" value="0" name="mixToMono"/>
            </Attributes>
            <MetaData>
             <entry key="WinSubProjectDisplayName" val=""/>
            </MetaData>
           </AMFile>
           <AMFile id="8298" start="117" duration="272" scalar="1/1" mediaStart="131/1" mediaDuration="272/1" trackNumber="0" src="29" channelNumber="0" >
            <Parameters>
             <InterpolatingParam id="8299" interp="linr"  time="0/1" value="1" leadInLength="0/1"  name="volume"/>
             <Parameter id="8300"  name="captions"/>
            </Parameters>
            <Attributes>
             <Attribute id="8301" value="" name="ident"/>
             <Attribute id="8302" value="48000" name="sampleRate"/>
             <Attribute id="8303" value="16" name="bitDepth"/>
             <Attribute id="8304" value="1" name="gain"/>
             <Attribute id="8305" value="0" name="mixToMono"/>
            </Attributes>
            <MetaData>
             <entry key="WinSubProjectDisplayName" val=""/>
            </MetaData>
           </AMFile>
           <AMFile id="8306" start="389" duration="1309" scalar="1/1" mediaStart="415/1" mediaDuration="1309/1" trackNumber="0" src="29" channelNumber="0" >
            <Parameters>
             <InterpolatingParam id="8307" interp="linr"  time="0/1" value="1" leadInLength="0/1"  name="volume"/>
             <Parameter id="8308"  name="captions"/>
            </Parameters>
            <Attributes>
             <Attribute id="8309" value="" name="ident"/>
             <Attribute id="8310" value="48000" name="sampleRate"/>
             <Attribute id="8311" value="16" name="bitDepth"/>
             <Attribute id="8312" value="1" name="gain"/>
             <Attribute id="8313" value="0" name="mixToMono"/>
            </Attributes>
            <MetaData>
             <entry key="WinSubProjectDisplayName" val=""/>
            </MetaData>
           </AMFile>
           <AMFile id="8314" start="1698" duration="103" scalar="1/1" mediaStart="1734/1" mediaDuration="103/1" trackNumber="0" src="29" channelNumber="0" >
            <Parameters>
             <InterpolatingParam id="8315" interp="linr"  time="0/1" value="1" leadInLength="0/1"  name="volume"/>
             <Parameter id="8316"  name="captions"/>
            </Parameters>
            <Attributes>
             <Attribute id="8317" value="" name="ident"/>
             <Attribute id="8318" value="48000" name="sampleRate"/>
             <Attribute id="8319" value="16" name="bitDepth"/>
             <Attribute id="8320" value="1" name="gain"/>
             <Attribute id="8321" value="0" name="mixToMono"/>
            </Attributes>
            <MetaData>
             <entry key="WinSubProjectDisplayName" val=""/>
            </MetaData>
           </AMFile>
           <AMFile id="8322" start="1801" duration="245" scalar="1/1" mediaStart="2164/1" mediaDuration="245/1" trackNumber="0" src="29" channelNumber="0" >
            <Parameters>
             <InterpolatingParam id="8323" interp="linr"  time="0/1" value="1" leadInLength="0/1"  name="volume"/>
             <Parameter id="8324"  name="captions"/>
            </Parameters>
            <Attributes>
             <Attribute id="8325" value="" name="ident"/>
             <Attribute id="8326" value="48000" name="sampleRate"/>
             <Attribute id="8327" value="16" name="bitDepth"/>
             <Attribute id="8328" value="1" name="gain"/>
             <Attribute id="8329" value="0" name="mixToMono"/>
            </Attributes>
            <MetaData>
             <entry key="WinSubProjectDisplayName" val=""/>
            </MetaData>
           </AMFile>
           <AMFile id="8330" start="2046" duration="202" scalar="1/1" mediaStart="2637/1" mediaDuration="202/1" trackNumber="0" src="29" channelNumber="0" >
            <Parameters>
             <InterpolatingParam id="8331" interp="linr"  time="0/1" value="1" leadInLength="0/1"  name="volume"/>
             <Parameter id="8332"  name="captions"/>
            </Parameters>
            <Attributes>
             <Attribute id="8333" value="" name="ident"/>
             <Attribute id="8334" value="48000" name="sampleRate"/>
             <Attribute id="8335" value="16" name="bitDepth"/>
             <Attribute id="8336" value="1" name="gain"/>
             <Attribute id="8337" value="0" name="mixToMono"/>
            </Attributes>
            <MetaData>
             <entry key="WinSubProjectDisplayName" val=""/>
            </MetaData>
           </AMFile>
           <AMFile id="8338" start="2248" duration="185" scalar="1/1" mediaStart="2856/1" mediaDuration="185/1" trackNumber="0" src="29" channelNumber="0" >
            <Parameters>
             <InterpolatingParam id="8339" interp="linr"  time="0/1" value="1" leadInLength="0/1"  name="volume"/>
             <Parameter id="8340"  name="captions"/>
            </Parameters>
            <Attributes>
             <Attribute id="8341" value="" name="ident"/>
             <Attribute id="8342" value="48000" name="sampleRate"/>
             <Attribute id="8343" value="16" name="bitDepth"/>
             <Attribute id="8344" value="1" name="gain"/>
             <Attribute id="8345" value="0" name="mixToMono"/>
            </Attributes>
            <MetaData>
             <entry key="WinSubProjectDisplayName" val=""/>
            </MetaData>
           </AMFile>
           <AMFile id="8346" start="2433" duration="215" scalar="1/1" mediaStart="3054/1" mediaDuration="215/1" trackNumber="0" src="29" channelNumber="0" >
            <Parameters>
             <InterpolatingParam id="8347" interp="linr"  time="0/1" value="1" leadInLength="0/1"  name="volume"/>
             <Parameter id="8348"  name="captions"/>
            </Parameters>
            <Attributes>
             <Attribute id="8349" value="" name="ident"/>
             <Attribute id="8350" value="48000" name="sampleRate"/>
             <Attribute id="8351" value="16" name="bitDepth"/>
             <Attribute id="8352" value="1" name="gain"/>
             <Attribute id="8353" value="0" name="mixToMono"/>
            </Attributes>
            <MetaData>
             <entry key="WinSubProjectDisplayName" val=""/>
            </MetaData>
           </AMFile>
           <AMFile id="8354" start="2648" duration="155" scalar="1/1" mediaStart="3288/1" mediaDuration="155/1" trackNumber="0" src="29" channelNumber="0" >
            <Parameters>
             <InterpolatingParam id="8355" interp="linr"  time="0/1" value="1" leadInLength="0/1"  name="volume"/>
             <Parameter id="8356"  name="captions"/>
            </Parameters>
            <Attributes>
             <Attribute id="8357" value="" name="ident"/>
             <Attribute id="8358" value="48000" name="sampleRate"/>
             <Attribute id="8359" value="16" name="bitDepth"/>
             <Attribute id="8360" value="1" name="gain"/>
             <Attribute id="8361" value="0" name="mixToMono"/>
            </Attributes>
            <MetaData>
             <entry key="WinSubProjectDisplayName" val=""/>
            </MetaData>
           </AMFile>
           <AMFile id="8362" start="2803" duration="103" scalar="1/1" mediaStart="3450/1" mediaDuration="103/1" trackNumber="0" src="29" channelNumber="0" >
            <Parameters>
             <InterpolatingParam id="8363" interp="linr"  time="0/1" value="1" leadInLength="0/1"  name="volume"/>
             <Parameter id="8364"  name="captions"/>
            </Parameters>
            <Attributes>
             <Attribute id="8365" value="" name="ident"/>
             <Attribute id="8366" value="48000" name="sampleRate"/>
             <Attribute id="8367" value="16" name="bitDepth"/>
             <Attribute id="8368" value="1" name="gain"/>
             <Attribute id="8369" value="0" name="mixToMono"/>
            </Attributes>
            <MetaData>
             <entry key="WinSubProjectDisplayName" val=""/>
            </MetaData>
           </AMFile>
           <AMFile id="8370" start="2906" duration="2683" scalar="1/1" mediaStart="3564/1" mediaDuration="2683/1" trackNumber="0" src="29" channelNumber="0" >
            <Parameters>
             <InterpolatingParam id="8371" interp="linr"  time="0/1" value="1" leadInLength="0/1"  name="volume"/>
             <Parameter id="8372"  name="captions"/>
            </Parameters>
            <Attributes>
             <Attribute id="8373" value="" name="ident"/>
             <Attribute id="8374" value="48000" name="sampleRate"/>
             <Attribute id="8375" value="16" name="bitDepth"/>
             <Attribute id="8376" value="1" name="gain"/>
             <Attribute id="8377" value="0" name="mixToMono"/>
            </Attributes>
            <MetaData>
             <entry key="WinSubProjectDisplayName" val=""/>
            </MetaData>
           </AMFile>
           <AMFile id="8378" start="5589" duration="143" scalar="1/1" mediaStart="6247/1" mediaDuration="143/1" trackNumber="0" src="29" channelNumber="0" >
            <Parameters>
             <InterpolatingParam id="8379" interp="linr"  time="0/1" value="1" leadInLength="0/1"  name="volume"/>
             <Parameter id="8380"  name="captions"/>
            </Parameters>
            <Attributes>
             <Attribute id="8381" value="" name="ident"/>
             <Attribute id="8382" value="48000" name="sampleRate"/>
             <Attribute id="8383" value="16" name="bitDepth"/>
             <Attribute id="8384" value="1" name="gain"/>
             <Attribute id="8385" value="0" name="mixToMono"/>
            </Attributes>
            <MetaData>
             <entry key="WinSubProjectDisplayName" val=""/>
            </MetaData>
           </AMFile>
           <AMFile id="8386" start="5732" duration="285" scalar="1/1" mediaStart="6413/1" mediaDuration="285/1" trackNumber="0" src="29" channelNumber="0" >
            <Parameters>
             <InterpolatingParam id="8387" interp="linr"  time="0/1" value="1" leadInLength="0/1"  name="volume"/>
             <Parameter id="8388"  name="captions"/>
            </Parameters>
            <Attributes>
             <Attribute id="8389" value="" name="ident"/>
             <Attribute id="8390" value="48000" name="sampleRate"/>
             <Attribute id="8391" value="16" name="bitDepth"/>
             <Attribute id="8392" value="1" name="gain"/>
             <Attribute id="8393" value="0" name="mixToMono"/>
            </Attributes>
            <MetaData>
             <entry key="WinSubProjectDisplayName" val=""/>
            </MetaData>
           </AMFile>
           <AMFile id="8394" start="6017" duration="102" scalar="1/1" mediaStart="6729/1" mediaDuration="102/1" trackNumber="0" src="29" channelNumber="0" >
            <Parameters>
             <InterpolatingParam id="8395" interp="linr"  time="0/1" value="1" leadInLength="0/1"  name="volume"/>
             <Parameter id="8396"  name="captions"/>
            </Parameters>
            <Attributes>
             <Attribute id="8397" value="" name="ident"/>
             <Attribute id="8398" value="48000" name="sampleRate"/>
             <Attribute id="8399" value="16" name="bitDepth"/>
             <Attribute id="8400" value="1" name="gain"/>
             <Attribute id="8401" value="0" name="mixToMono"/>
            </Attributes>
            <MetaData>
             <entry key="WinSubProjectDisplayName" val=""/>
            </MetaData>
           </AMFile>
           <AMFile id="8402" start="6119" duration="234" scalar="1/1" mediaStart="6848/1" mediaDuration="234/1" trackNumber="0" src="29" channelNumber="0" >
            <Parameters>
             <InterpolatingParam id="8403" interp="linr"  time="0/1" value="1" leadInLength="0/1"  name="volume"/>
             <Parameter id="8404"  name="captions"/>
            </Parameters>
            <Attributes>
             <Attribute id="8405" value="" name="ident"/>
             <Attribute id="8406" value="48000" name="sampleRate"/>
             <Attribute id="8407" value="16" name="bitDepth"/>
             <Attribute id="8408" value="1" name="gain"/>
             <Attribute id="8409" value="0" name="mixToMono"/>
            </Attributes>
            <MetaData>
             <entry key="WinSubProjectDisplayName" val=""/>
            </MetaData>
           </AMFile>
           <AMFile id="8410" start="6353" duration="107" scalar="1/1" mediaStart="7089/1" mediaDuration="107/1" trackNumber="0" src="29" channelNumber="0" >
            <Parameters>
             <InterpolatingParam id="8411" interp="linr"  time="0/1" value="1" leadInLength="0/1"  name="volume"/>
             <Parameter id="8412"  name="captions"/>
            </Parameters>
            <Attributes>
             <Attribute id="8413" value="" name="ident"/>
             <Attribute id="8414" value="48000" name="sampleRate"/>
             <Attribute id="8415" value="16" name="bitDepth"/>
             <Attribute id="8416" value="1" name="gain"/>
             <Attribute id="8417" value="0" name="mixToMono"/>
            </Attributes>
            <MetaData>
             <entry key="WinSubProjectDisplayName" val=""/>
            </MetaData>
           </AMFile>
           <AMFile id="8418" start="6460" duration="67" scalar="1/1" mediaStart="7207/1" mediaDuration="67/1" trackNumber="0" src="29" channelNumber="0" >
            <Parameters>
             <InterpolatingParam id="8419" interp="linr"  time="0/1" value="1" leadInLength="0/1"  name="volume"/>
             <Parameter id="8420"  name="captions"/>
            </Parameters>
            <Attributes>
             <Attribute id="8421" value="" name="ident"/>
             <Attribute id="8422" value="48000" name="sampleRate"/>
             <Attribute id="8423" value="16" name="bitDepth"/>
             <Attribute id="8424" value="1" name="gain"/>
             <Attribute id="8425" value="0" name="mixToMono"/>
            </Attributes>
            <MetaData>
             <entry key="WinSubProjectDisplayName" val=""/>
            </MetaData>
           </AMFile>
           <AMFile id="8426" start="6527" duration="226" scalar="1/1" mediaStart="7297/1" mediaDuration="226/1" trackNumber="0" src="29" channelNumber="0" >
            <Parameters>
             <InterpolatingParam id="8427" interp="linr"  time="0/1" value="1" leadInLength="0/1"  name="volume"/>
             <Parameter id="8428"  name="captions"/>
            </Parameters>
            <Attributes>
             <Attribute id="8429" value="" name="ident"/>
             <Attribute id="8430" value="48000" name="sampleRate"/>
             <Attribute id="8431" value="16" name="bitDepth"/>
             <Attribute id="8432" value="1" name="gain"/>
             <Attribute id="8433" value="0" name="mixToMono"/>
            </Attributes>
            <MetaData>
             <entry key="WinSubProjectDisplayName" val=""/>
            </MetaData>
           </AMFile>
           <AMFile id="8434" start="6753" duration="117" scalar="1/1" mediaStart="7540/1" mediaDuration="117/1" trackNumber="0" src="29" channelNumber="0" >
            <Parameters>
             <InterpolatingParam id="8435" interp="linr"  time="0/1" value="1" leadInLength="0/1"  name="volume"/>
             <Parameter id="8436"  name="captions"/>
            </Parameters>
            <Attributes>
             <Attribute id="8437" value="" name="ident"/>
             <Attribute id="8438" value="48000" name="sampleRate"/>
             <Attribute id="8439" value="16" name="bitDepth"/>
             <Attribute id="8440" value="1" name="gain"/>
             <Attribute id="8441" value="0" name="mixToMono"/>
            </Attributes>
            <MetaData>
             <entry key="WinSubProjectDisplayName" val=""/>
            </MetaData>
           </AMFile>
           <AMFile id="8442" start="6870" duration="52" scalar="1/1" mediaStart="7796/1" mediaDuration="52/1" trackNumber="0" src="29" channelNumber="0" >
            <Parameters>
             <InterpolatingParam id="8443" interp="linr"  time="0/1" value="1" leadInLength="0/1"  name="volume"/>
             <Parameter id="8444"  name="captions"/>
            </Parameters>
            <Attributes>
             <Attribute id="8445" value="" name="ident"/>
             <Attribute id="8446" value="48000" name="sampleRate"/>
             <Attribute id="8447" value="16" name="bitDepth"/>
             <Attribute id="8448" value="1" name="gain"/>
             <Attribute id="8449" value="0" name="mixToMono"/>
            </Attributes>
            <MetaData>
             <entry key="WinSubProjectDisplayName" val=""/>
            </MetaData>
           </AMFile>
           <AMFile id="8450" start="6922" duration="100" scalar="1/1" mediaStart="8187/1" mediaDuration="100/1" trackNumber="0" src="29" channelNumber="0" >
            <Parameters>
             <InterpolatingParam id="8451" interp="linr"  time="0/1" value="1" leadInLength="0/1"  name="volume"/>
             <Parameter id="8452"  name="captions"/>
            </Parameters>
            <Attributes>
             <Attribute id="8453" value="" name="ident"/>
             <Attribute id="8454" value="48000" name="sampleRate"/>
             <Attribute id="8455" value="16" name="bitDepth"/>
             <Attribute id="8456" value="1" name="gain"/>
             <Attribute id="8457" value="0" name="mixToMono"/>
            </Attributes>
            <MetaData>
             <entry key="WinSubProjectDisplayName" val=""/>
            </MetaData>
           </AMFile>
           <AMFile id="8458" start="7022" duration="5343" scalar="1/1" mediaStart="8303/1" mediaDuration="5343/1" trackNumber="0" src="29" channelNumber="0" >
            <Parameters>
             <InterpolatingParam id="8459" interp="linr"  time="0/1" value="1" leadInLength="0/1"  name="volume"/>
             <Parameter id="8460"  name="captions"/>
            </Parameters>
            <Attributes>
             <Attribute id="8461" value="" name="ident"/>
             <Attribute id="8462" value="48000" name="sampleRate"/>
             <Attribute id="8463" value="16" name="bitDepth"/>
             <Attribute id="8464" value="1" name="gain"/>
             <Attribute id="8465" value="0" name="mixToMono"/>
            </Attributes>
            <MetaData>
             <entry key="WinSubProjectDisplayName" val=""/>
            </MetaData>
           </AMFile>
          </Medias>
         </GenericTrack>
        </StitchedMedia>
        <StitchedMedia id="8466" start="5983" duration="367" scalar="1/1" mediaStart="7102/1" mediaDuration="367/1" minMediaStart="0/1" >
         <Transformer>
          <VectorParam id="8467"  name="translation">
           <InterpolatingParam id="8468" interp="linr"  time="0/1" value="0" leadInLength="0/1"  />
           <InterpolatingParam id="8469" interp="linr"  time="0/1" value="0" leadInLength="0/1"  />
           <InterpolatingParam id="8470" interp="linr"  time="0/1" value="0" leadInLength="0/1"  />
          </VectorParam>
          <VectorParam id="8471"  name="rotation">
           <InterpolatingParam id="8472" interp="linr"  time="0/1" value="0" leadInLength="0/1"  />
           <InterpolatingParam id="8473" interp="linr"  time="0/1" value="0" leadInLength="0/1"  />
           <InterpolatingParam id="8474" interp="linr"  time="0/1" value="0" leadInLength="0/1"  />
          </VectorParam>
          <VectorParam id="8475"  name="shear">
           <InterpolatingParam id="8476" interp="linr"  time="0/1" value="0" leadInLength="0/1"  />
           <InterpolatingParam id="8477" interp="linr"  time="0/1" value="0" leadInLength="0/1"  />
           <InterpolatingParam id="8478" interp="linr"  time="0/1" value="0" leadInLength="0/1"  />
          </VectorParam>
          <VectorParam id="8479"  name="scale">
           <InterpolatingParam id="8480" interp="linr"  time="0/1" value="1" leadInLength="0/1"  />
           <InterpolatingParam id="8481" interp="linr"  time="0/1" value="1" leadInLength="0/1"  />
           <InterpolatingParam id="8482" interp="linr"  time="0/1" value="1" leadInLength="0/1"  />
          </VectorParam>
          <VectorParam id="8483"  name="anchor">
           <InterpolatingParam id="8484" interp="linr"  time="0/1" value="0" leadInLength="0/1"  />
           <InterpolatingParam id="8485" interp="linr"  time="0/1" value="0" leadInLength="0/1"  />
           <InterpolatingParam id="8486" interp="linr"  time="0/1" value="0" leadInLength="0/1"  />
          </VectorParam>
         </Transformer>
         <Parameters>
          <InterpolatingParam id="8487" interp="linr"  time="0/1" value="1" leadInLength="0/1"  name="cursorOpacity"/>
          <InterpolatingParam id="8488" interp="linr"  time="0/1" value="1" leadInLength="0/1"  name="cursorScale"/>
          <InterpolatingParam id="8489" interp="linr"  time="0/1" value="1.5625" leadInLength="0/1"  name="volume"/>
          <Parameter id="8490"  name="captions"/>
         </Parameters>
         <Effects>
          <GenericEffect id="8491" name = "WinCompression" >
           <Parameters>
           <InterpolatingParam id="8492" interp="linr"  time="0/1" value="0" leadInLength="0/1"   name="attack"/>
           <InterpolatingParam id="8493" interp="linr"  time="0/1" value="9" leadInLength="0/1"   name="gain"/>
           <Parameter id="8494"   name="preset">
            <Keyframes>
            <Keyframe id="8495"  time="0/1" value="1" leadInLength="0/1"  />
            </Keyframes>
           </Parameter>
           <InterpolatingParam id="8496" interp="linr"  time="0/1" value="10" leadInLength="0/1"   name="ratio"/>
           <InterpolatingParam id="8497" interp="linr"  time="0/1" value="3500" leadInLength="0/1"   name="release"/>
           <InterpolatingParam id="8498" interp="linr"  time="0/1" value="-20" leadInLength="0/1"   name="threshold"/>
           </Parameters>
          </GenericEffect>
          <GenericEffect id="8499" name = "NoiseReduction" >
           <Parameters>
           <InterpolatingParam id="8500" interp="linr"  time="0/1" value="20" leadInLength="0/1"   name="denoiserAmount"/>
           <InterpolatingParam id="8501" interp="linr"  time="0/1" value="0" leadInLength="0/1"   name="denoiserThreshold"/>
           <Parameter id="8502"   name="noiseProfile">
            <Keyframes>
            <Keyframe id="8503"  time="0/1" value="FBAAAAIAAABErAAAAQIAAIA/l8JLuYTCrOB9wgsMfMJoG4LCaWeFwkohjMJdoYvCYv6LwlnvjcKf&#xD;&#xa;nYzChXWPwlcejsL6fo/C5OmQwgVTj8IVMI/COiWRwoWFkcJ2tYzC8I6MwuQbjcJvEo/ClwGRwheQ&#xD;&#xa;lsK8+pbCN5qVwlielcJ905rCmu+fwst0ncIC/JvCdIWdws3snsKxC5zCfh2cwniFnMJRypzCtRag&#xD;&#xa;wuoCosJQt6DCzoegwhY9ocIWN6PCsNqkwrSlpMJ6maTCYpCkwmLvo8Li+KPCyEamwnBNqMLMcqrC&#xD;&#xa;v2GswoS+q8Kk86vCVACuwnvUr8JxZa/CqHqswrdXq8LqT6zCZsuswhZxrMLBX67CnmqvwpYyrsKc&#xD;&#xa;pq3CJFGvwghrsMK3y6/CXoCtwmWZr8ICi7DCgRezwogSs8Joq7LCm0Sxwuz/scIfibTCOOK1wlIM&#xD;&#xa;t8K87LfCj3K3wqDYs8KT1bLCVsW0wnZ0tcJGhLXCfPe0ws/ntcLGXrbCzAG1wtXdtcKxxrTC1Ay1&#xD;&#xa;wquGtcLjELbC8Zi2wl7rtsJBYbbCMF+1wrEutMKuibTCSFa1wpvktMIu3rTCtGe4wjaduMIKErfC&#xD;&#xa;SLa1wvS/tsJmZrjCdn63whjft8Ie47rCfdi5wmjpt8KKCLjCXmC5wsOQt8JDGbfCK4m4wmpvuMLL&#xD;&#xa;nLjC80q4wjUVusKunLjC1Be5wg4cuMLxCbjCwfW4wmi7ucIOdbvCbLG6whqdusKYErrCbpC4wmq0&#xD;&#xa;ucIoWrvCaNe6ws4iu8LSc7zCUNa7wuJZvMIwLL3CWe28wps2v8J2l77Cv3W+wvgavsKAwrzCQCy8&#xD;&#xa;wgBRu8Km8brChSa6wuM4u8IaaL3Cf5y9wg4hvMLur7vCIpO9wm0fvcIGNLzC7Le8wvKgvMKQrLzC&#xD;&#xa;p6+9wtYtvsJcxbzCQC29wjDqvcKeNbzCH2W8wpbZvsLCTL7CnjO+wuIsvsJs67vCwLq9wiKhvsLs&#xD;&#xa;o73C5Du9wqqhvcLwKr7C2kq/wqEMv8LVCb7Cpla+wsXpvMIs6bvC/fO8wueCvsIM4b3CxtC+wmTo&#xD;&#xa;vcI+arzCTNe8wiFNv8IvKL/Cpg+/woK1v8L4i7/CNv2+wmsVv8KWj77CVym+wnAlv8Joa8DCFDzA&#xD;&#xa;wiQYwcLSIcHCxILAwuxKvsJYm77CPoHAwiYPwcLuy77CcQa+wrB4vcKwYLzCxKW8worIvcIlzr/C&#xD;&#xa;OMC+wuRDvcJGZ7zCxFi9wuQzvMLPbbvCwIe+wm7bvcLm9L3COH6+wuuJvMK2B73CYb+9wqbxvMK/&#xD;&#xa;mL7CqIe9wvCavMKs7L3Ckau8wkpavMKt9LzCF8S+wmgKvsKCy73ClrG+wmIovcIns73Cmg+/wgw7&#xD;&#xa;wMI607/CpEq/wmwVvcJLsLvCMD68wuxdvcIeI7/C+bS+wpxfvsJyxsDC1tO/wmtrv8LNnb/CQiK+&#xD;&#xa;wlz7vcLa6L/CUMXBwtrQwcIAw8HCNJHBwvphwMKqc7/CSkW/wjkvwMK8ccHCHmDBwlKAwcKu+MDC&#xD;&#xa;zErCwuqgwsLa+MLC753DwmjuxcLEWMfCkePFwo47xsKnX8XC7tTCwuf3wsL+HcLCTcTBwmg6w8Is&#xD;&#xa;RMPC+qjDwiyGxMLi58TCnWvFwpjsxsKzCMbCyCTDwpM2wcJWGMPCvuDFwh42xsIfyMTCeLTFwuH7&#xD;&#xa;xMJctcfCVv3HwpTGx8J8b8jCqhjHwrgkx8LXNsfCZkLGwnxSxcL8csXCbu7FwsaQyMLa68fCo0XH&#xD;&#xa;woruxMJGHsbCORbJwry2yMLIUsfCxlfGwmLoxcLSPMnCYPDJwkw3yMKc7crC8vDLwug2y8Lu28vC&#xD;&#xa;OKvMwvLpysKGj8rCtNXLwrMay8KdGMrCUr3JwgIVy8J64MvCkbTJwjh4x8JGI8bCvBXHwnoPycKN&#xD;&#xa;Ss3CuC/Nwuywy8IkJ8zCx9/KwnB5ycKnk8nCenLJwnN6ycKc+sjCLFzJwuTrzMJkJM/CY5vOwoYO&#xD;&#xa;zsLU987CVKfNwiZZzcJQxNDCICHVwi0d18Kc29jCIF/YwtKo2MKeBNvCwpTawmY/2sJXPdvCZZXY&#xD;&#xa;whB818IQNdjCDF3XwtWC1sIGF9fCfFfXwkBy2MJ6+9nC1hfZwi5k2cJlfNjCnEPYwm/N1cKGOdXC&#xD;&#xa;Yk/XwgXL2MJSytfCgpTWwqTT1sJOGtnCrF/ZwtcT2cK08NjCscHZwpQ72sLJ/NrCy3zYwmCk18LE&#xD;&#xa;O9fC6hbYwtYU2cJN/dnC1EbZwrw/2cIqyNbCDr7Xwvb02cLQ+dnCaJvXwuYO18KSodnC1NnawtJJ&#xD;&#xa;18ISLtjC90nawoel2cIwl9jCi0XZwih328Ks7NjC5KzZwqui2cJw0tjCukLYws+O2MJaqtrCUuXa&#xD;&#xa;wviX2MIKxtfCnqXXwhjI2MJwAtvCIFvcwgCL2cJ0/djCdyXawh9H2cJ+ntfCy4TXwhqF2MJ68NnC&#xD;&#xa;CzvYwljT2cIkP9vCIs/bwjpB2sK2A9rCXt/awjZH2sIfltvCKWPcwjp53MKrGd3CaBPewj/03MJm&#xD;&#xa;U97CphfgwlJp3cKQpt3Crxjewm7d28Kq/9vCNNXcwqY728IUH9vCkirbwgIt28KK19zCjmzdwoBH&#xD;&#xa;3MIAUtvCUq3bwo8f28Ig09jCiyfZwhbx2sLWe9zCvgzbwmwI2sI2nNvC0lvdwg6128I8PNvCLufa&#xD;&#xa;wkyK28KkitzCJIDcwmAO28L0TNrCDHXawjla28IQkdzCoCDcwjRI3MJVUdvCtujZwnCs2sK8Yd3C&#xD;&#xa;iGbbwuSB2cImFNvCCI7rwoA/l8JLuYTCrOB9wgsMfMJoG4LCaWeFwkohjMJdoYvCYv6LwlnvjcKf&#xD;&#xa;nYzChXWPwlcejsL6fo/C5OmQwgVTj8IVMI/COiWRwoWFkcJ2tYzC8I6MwuQbjcJvEo/ClwGRwheQ&#xD;&#xa;lsK8+pbCN5qVwlielcJ905rCmu+fwst0ncIC/JvCdIWdws3snsKxC5zCfh2cwniFnMJRypzCtRag&#xD;&#xa;wuoCosJQt6DCzoegwhY9ocIWN6PCsNqkwrSlpMJ6maTCYpCkwmLvo8Li+KPCyEamwnBNqMLMcqrC&#xD;&#xa;v2GswoS+q8Kk86vCVACuwnvUr8JxZa/CqHqswrdXq8LqT6zCZsuswhZxrMLBX67CnmqvwpYyrsKc&#xD;&#xa;pq3CJFGvwghrsMK3y6/CXoCtwmWZr8ICi7DCgRezwogSs8Joq7LCm0Sxwuz/scIfibTCOOK1wlIM&#xD;&#xa;t8K87LfCj3K3wqDYs8KT1bLCVsW0wnZ0tcJGhLXCfPe0ws/ntcLGXrbCzAG1wtXdtcKxxrTC1Ay1&#xD;&#xa;wquGtcLjELbC8Zi2wl7rtsJBYbbCMF+1wrEutMKuibTCSFa1wpvktMIu3rTCtGe4wjaduMIKErfC&#xD;&#xa;SLa1wvS/tsJmZrjCdn63whjft8Ie47rCfdi5wmjpt8KKCLjCXmC5wsOQt8JDGbfCK4m4wmpvuMLL&#xD;&#xa;nLjC80q4wjUVusKunLjC1Be5wg4cuMLxCbjCwfW4wmi7ucIOdbvCbLG6whqdusKYErrCbpC4wmq0&#xD;&#xa;ucIoWrvCaNe6ws4iu8LSc7zCUNa7wuJZvMIwLL3CWe28wps2v8J2l77Cv3W+wvgavsKAwrzCQCy8&#xD;&#xa;wgBRu8Km8brChSa6wuM4u8IaaL3Cf5y9wg4hvMLur7vCIpO9wm0fvcIGNLzC7Le8wvKgvMKQrLzC&#xD;&#xa;p6+9wtYtvsJcxbzCQC29wjDqvcKeNbzCH2W8wpbZvsLCTL7CnjO+wuIsvsJs67vCwLq9wiKhvsLs&#xD;&#xa;o73C5Du9wqqhvcLwKr7C2kq/wqEMv8LVCb7Cpla+wsXpvMIs6bvC/fO8wueCvsIM4b3CxtC+wmTo&#xD;&#xa;vcI+arzCTNe8wiFNv8IvKL/Cpg+/woK1v8L4i7/CNv2+wmsVv8KWj77CVym+wnAlv8Joa8DCFDzA&#xD;&#xa;wiQYwcLSIcHCxILAwuxKvsJYm77CPoHAwiYPwcLuy77CcQa+wrB4vcKwYLzCxKW8worIvcIlzr/C&#xD;&#xa;OMC+wuRDvcJGZ7zCxFi9wuQzvMLPbbvCwIe+wm7bvcLm9L3COH6+wuuJvMK2B73CYb+9wqbxvMK/&#xD;&#xa;mL7CqIe9wvCavMKs7L3Ckau8wkpavMKt9LzCF8S+wmgKvsKCy73ClrG+wmIovcIns73Cmg+/wgw7&#xD;&#xa;wMI607/CpEq/wmwVvcJLsLvCMD68wuxdvcIeI7/C+bS+wpxfvsJyxsDC1tO/wmtrv8LNnb/CQiK+&#xD;&#xa;wlz7vcLa6L/CUMXBwtrQwcIAw8HCNJHBwvphwMKqc7/CSkW/wjkvwMK8ccHCHmDBwlKAwcKu+MDC&#xD;&#xa;zErCwuqgwsLa+MLC753DwmjuxcLEWMfCkePFwo47xsKnX8XC7tTCwuf3wsL+HcLCTcTBwmg6w8Is&#xD;&#xa;RMPC+qjDwiyGxMLi58TCnWvFwpjsxsKzCMbCyCTDwpM2wcJWGMPCvuDFwh42xsIfyMTCeLTFwuH7&#xD;&#xa;xMJctcfCVv3HwpTGx8J8b8jCqhjHwrgkx8LXNsfCZkLGwnxSxcL8csXCbu7FwsaQyMLa68fCo0XH&#xD;&#xa;woruxMJGHsbCORbJwry2yMLIUsfCxlfGwmLoxcLSPMnCYPDJwkw3yMKc7crC8vDLwug2y8Lu28vC&#xD;&#xa;OKvMwvLpysKGj8rCtNXLwrMay8KdGMrCUr3JwgIVy8J64MvCkbTJwjh4x8JGI8bCvBXHwnoPycKN&#xD;&#xa;Ss3CuC/Nwuywy8IkJ8zCx9/KwnB5ycKnk8nCenLJwnN6ycKc+sjCLFzJwuTrzMJkJM/CY5vOwoYO&#xD;&#xa;zsLU987CVKfNwiZZzcJQxNDCICHVwi0d18Kc29jCIF/YwtKo2MKeBNvCwpTawmY/2sJXPdvCZZXY&#xD;&#xa;whB818IQNdjCDF3XwtWC1sIGF9fCfFfXwkBy2MJ6+9nC1hfZwi5k2cJlfNjCnEPYwm/N1cKGOdXC&#xD;&#xa;Yk/XwgXL2MJSytfCgpTWwqTT1sJOGtnCrF/ZwtcT2cK08NjCscHZwpQ72sLJ/NrCy3zYwmCk18LE&#xD;&#xa;O9fC6hbYwtYU2cJN/dnC1EbZwrw/2cIqyNbCDr7Xwvb02cLQ+dnCaJvXwuYO18KSodnC1NnawtJJ&#xD;&#xa;18ISLtjC90nawoel2cIwl9jCi0XZwih328Ks7NjC5KzZwqui2cJw0tjCukLYws+O2MJaqtrCUuXa&#xD;&#xa;wviX2MIKxtfCnqXXwhjI2MJwAtvCIFvcwgCL2cJ0/djCdyXawh9H2cJ+ntfCy4TXwhqF2MJ68NnC&#xD;&#xa;CzvYwljT2cIkP9vCIs/bwjpB2sK2A9rCXt/awjZH2sIfltvCKWPcwjp53MKrGd3CaBPewj/03MJm&#xD;&#xa;U97CphfgwlJp3cKQpt3Crxjewm7d28Kq/9vCNNXcwqY728IUH9vCkirbwgIt28KK19zCjmzdwoBH&#xD;&#xa;3MIAUtvCUq3bwo8f28Ig09jCiyfZwhbx2sLWe9zCvgzbwmwI2sI2nNvC0lvdwg6128I8PNvCLufa&#xD;&#xa;wkyK28KkitzCJIDcwmAO28L0TNrCDHXawjla28IQkdzCoCDcwjRI3MJVUdvCtujZwnCs2sK8Yd3C&#xD;&#xa;iGbbwuSB2cImFNvCCI7r" leadInLength="0/1"  />
            </Keyframes>
           </Parameter>
           </Parameters>
          </GenericEffect>
          <GenericEffect id="8504" name = "Declipper" >
           <Parameters>
           <InterpolatingParam id="8505" interp="linr"  time="0/1" value="-1" leadInLength="0/1"   name="sensitivity"/>
           </Parameters>
          </GenericEffect>
          <GenericEffect id="8506" name = "Declicker" >
           <Parameters>
           <InterpolatingParam id="8507" interp="linr"  time="0/1" value="3" leadInLength="0/1"   name="sensitivity"/>
           </Parameters>
          </GenericEffect>
         </Effects>
         <Attributes>
          <Attribute id="8508" value="" name="ident"/>
          <Attribute id="8509" value="0" name="mixToMono"/>
         </Attributes>
         <MetaData>
          <entry key="WinSubProjectDisplayName" val=""/>
         </MetaData>
         <ExtraData>
          <Entry key="ZoomPanBin">
           <ZoomPanBin id="8510"  >
            <ZoomPanKeyframes>
            </ZoomPanKeyframes>
           </ZoomPanBin>
          </Entry>
          <Entry key="CursorEffectBin">
           <CursorEffectBin id="8511"  >
            <CursorEffectKeyframes>
            </CursorEffectKeyframes>
           </CursorEffectBin>
          </Entry>
         </ExtraData>
         <GenericTrack id="8512"  >
          <Attributes>
           <Attribute id="8513" value="" name="ident"/>
           <Attribute id="8514" value="0" name="audioMuted"/>
           <Attribute id="8515" value="0" name="videoHidden"/>
          </Attributes>
          <MetaData>
           <entry key="IsLocked" val="False"/>
           <entry key="WinTrackHeight" val="0"/>
          </MetaData>
          <Medias>
           <AMFile id="8516" start="0" duration="117" scalar="1/1" mediaStart="0/1" mediaDuration="117/1" trackNumber="0" src="29" channelNumber="0" >
            <Parameters>
             <InterpolatingParam id="8517" interp="linr"  time="0/1" value="1" leadInLength="0/1"  name="volume"/>
             <Parameter id="8518"  name="captions"/>
            </Parameters>
            <Attributes>
             <Attribute id="8519" value="" name="ident"/>
             <Attribute id="8520" value="48000" name="sampleRate"/>
             <Attribute id="8521" value="16" name="bitDepth"/>
             <Attribute id="8522" value="1" name="gain"/>
             <Attribute id="8523" value="0" name="mixToMono"/>
            </Attributes>
            <MetaData>
             <entry key="WinSubProjectDisplayName" val=""/>
            </MetaData>
           </AMFile>
           <AMFile id="8524" start="117" duration="272" scalar="1/1" mediaStart="131/1" mediaDuration="272/1" trackNumber="0" src="29" channelNumber="0" >
            <Parameters>
             <InterpolatingParam id="8525" interp="linr"  time="0/1" value="1" leadInLength="0/1"  name="volume"/>
             <Parameter id="8526"  name="captions"/>
            </Parameters>
            <Attributes>
             <Attribute id="8527" value="" name="ident"/>
             <Attribute id="8528" value="48000" name="sampleRate"/>
             <Attribute id="8529" value="16" name="bitDepth"/>
             <Attribute id="8530" value="1" name="gain"/>
             <Attribute id="8531" value="0" name="mixToMono"/>
            </Attributes>
            <MetaData>
             <entry key="WinSubProjectDisplayName" val=""/>
            </MetaData>
           </AMFile>
           <AMFile id="8532" start="389" duration="1309" scalar="1/1" mediaStart="415/1" mediaDuration="1309/1" trackNumber="0" src="29" channelNumber="0" >
            <Parameters>
             <InterpolatingParam id="8533" interp="linr"  time="0/1" value="1" leadInLength="0/1"  name="volume"/>
             <Parameter id="8534"  name="captions"/>
            </Parameters>
            <Attributes>
             <Attribute id="8535" value="" name="ident"/>
             <Attribute id="8536" value="48000" name="sampleRate"/>
             <Attribute id="8537" value="16" name="bitDepth"/>
             <Attribute id="8538" value="1" name="gain"/>
             <Attribute id="8539" value="0" name="mixToMono"/>
            </Attributes>
            <MetaData>
             <entry key="WinSubProjectDisplayName" val=""/>
            </MetaData>
           </AMFile>
           <AMFile id="8540" start="1698" duration="103" scalar="1/1" mediaStart="1734/1" mediaDuration="103/1" trackNumber="0" src="29" channelNumber="0" >
            <Parameters>
             <InterpolatingParam id="8541" interp="linr"  time="0/1" value="1" leadInLength="0/1"  name="volume"/>
             <Parameter id="8542"  name="captions"/>
            </Parameters>
            <Attributes>
             <Attribute id="8543" value="" name="ident"/>
             <Attribute id="8544" value="48000" name="sampleRate"/>
             <Attribute id="8545" value="16" name="bitDepth"/>
             <Attribute id="8546" value="1" name="gain"/>
             <Attribute id="8547" value="0" name="mixToMono"/>
            </Attributes>
            <MetaData>
             <entry key="WinSubProjectDisplayName" val=""/>
            </MetaData>
           </AMFile>
           <AMFile id="8548" start="1801" duration="245" scalar="1/1" mediaStart="2164/1" mediaDuration="245/1" trackNumber="0" src="29" channelNumber="0" >
            <Parameters>
             <InterpolatingParam id="8549" interp="linr"  time="0/1" value="1" leadInLength="0/1"  name="volume"/>
             <Parameter id="8550"  name="captions"/>
            </Parameters>
            <Attributes>
             <Attribute id="8551" value="" name="ident"/>
             <Attribute id="8552" value="48000" name="sampleRate"/>
             <Attribute id="8553" value="16" name="bitDepth"/>
             <Attribute id="8554" value="1" name="gain"/>
             <Attribute id="8555" value="0" name="mixToMono"/>
            </Attributes>
            <MetaData>
             <entry key="WinSubProjectDisplayName" val=""/>
            </MetaData>
           </AMFile>
           <AMFile id="8556" start="2046" duration="202" scalar="1/1" mediaStart="2637/1" mediaDuration="202/1" trackNumber="0" src="29" channelNumber="0" >
            <Parameters>
             <InterpolatingParam id="8557" interp="linr"  time="0/1" value="1" leadInLength="0/1"  name="volume"/>
             <Parameter id="8558"  name="captions"/>
            </Parameters>
            <Attributes>
             <Attribute id="8559" value="" name="ident"/>
             <Attribute id="8560" value="48000" name="sampleRate"/>
             <Attribute id="8561" value="16" name="bitDepth"/>
             <Attribute id="8562" value="1" name="gain"/>
             <Attribute id="8563" value="0" name="mixToMono"/>
            </Attributes>
            <MetaData>
             <entry key="WinSubProjectDisplayName" val=""/>
            </MetaData>
           </AMFile>
           <AMFile id="8564" start="2248" duration="185" scalar="1/1" mediaStart="2856/1" mediaDuration="185/1" trackNumber="0" src="29" channelNumber="0" >
            <Parameters>
             <InterpolatingParam id="8565" interp="linr"  time="0/1" value="1" leadInLength="0/1"  name="volume"/>
             <Parameter id="8566"  name="captions"/>
            </Parameters>
            <Attributes>
             <Attribute id="8567" value="" name="ident"/>
             <Attribute id="8568" value="48000" name="sampleRate"/>
             <Attribute id="8569" value="16" name="bitDepth"/>
             <Attribute id="8570" value="1" name="gain"/>
             <Attribute id="8571" value="0" name="mixToMono"/>
            </Attributes>
            <MetaData>
             <entry key="WinSubProjectDisplayName" val=""/>
            </MetaData>
           </AMFile>
           <AMFile id="8572" start="2433" duration="215" scalar="1/1" mediaStart="3054/1" mediaDuration="215/1" trackNumber="0" src="29" channelNumber="0" >
            <Parameters>
             <InterpolatingParam id="8573" interp="linr"  time="0/1" value="1" leadInLength="0/1"  name="volume"/>
             <Parameter id="8574"  name="captions"/>
            </Parameters>
            <Attributes>
             <Attribute id="8575" value="" name="ident"/>
             <Attribute id="8576" value="48000" name="sampleRate"/>
             <Attribute id="8577" value="16" name="bitDepth"/>
             <Attribute id="8578" value="1" name="gain"/>
             <Attribute id="8579" value="0" name="mixToMono"/>
            </Attributes>
            <MetaData>
             <entry key="WinSubProjectDisplayName" val=""/>
            </MetaData>
           </AMFile>
           <AMFile id="8580" start="2648" duration="155" scalar="1/1" mediaStart="3288/1" mediaDuration="155/1" trackNumber="0" src="29" channelNumber="0" >
            <Parameters>
             <InterpolatingParam id="8581" interp="linr"  time="0/1" value="1" leadInLength="0/1"  name="volume"/>
             <Parameter id="8582"  name="captions"/>
            </Parameters>
            <Attributes>
             <Attribute id="8583" value="" name="ident"/>
             <Attribute id="8584" value="48000" name="sampleRate"/>
             <Attribute id="8585" value="16" name="bitDepth"/>
             <Attribute id="8586" value="1" name="gain"/>
             <Attribute id="8587" value="0" name="mixToMono"/>
            </Attributes>
            <MetaData>
             <entry key="WinSubProjectDisplayName" val=""/>
            </MetaData>
           </AMFile>
           <AMFile id="8588" start="2803" duration="103" scalar="1/1" mediaStart="3450/1" mediaDuration="103/1" trackNumber="0" src="29" channelNumber="0" >
            <Parameters>
             <InterpolatingParam id="8589" interp="linr"  time="0/1" value="1" leadInLength="0/1"  name="volume"/>
             <Parameter id="8590"  name="captions"/>
            </Parameters>
            <Attributes>
             <Attribute id="8591" value="" name="ident"/>
             <Attribute id="8592" value="48000" name="sampleRate"/>
             <Attribute id="8593" value="16" name="bitDepth"/>
             <Attribute id="8594" value="1" name="gain"/>
             <Attribute id="8595" value="0" name="mixToMono"/>
            </Attributes>
            <MetaData>
             <entry key="WinSubProjectDisplayName" val=""/>
            </MetaData>
           </AMFile>
           <AMFile id="8596" start="2906" duration="2683" scalar="1/1" mediaStart="3564/1" mediaDuration="2683/1" trackNumber="0" src="29" channelNumber="0" >
            <Parameters>
             <InterpolatingParam id="8597" interp="linr"  time="0/1" value="1" leadInLength="0/1"  name="volume"/>
             <Parameter id="8598"  name="captions"/>
            </Parameters>
            <Attributes>
             <Attribute id="8599" value="" name="ident"/>
             <Attribute id="8600" value="48000" name="sampleRate"/>
             <Attribute id="8601" value="16" name="bitDepth"/>
             <Attribute id="8602" value="1" name="gain"/>
             <Attribute id="8603" value="0" name="mixToMono"/>
            </Attributes>
            <MetaData>
             <entry key="WinSubProjectDisplayName" val=""/>
            </MetaData>
           </AMFile>
           <AMFile id="8604" start="5589" duration="143" scalar="1/1" mediaStart="6247/1" mediaDuration="143/1" trackNumber="0" src="29" channelNumber="0" >
            <Parameters>
             <InterpolatingParam id="8605" interp="linr"  time="0/1" value="1" leadInLength="0/1"  name="volume"/>
             <Parameter id="8606"  name="captions"/>
            </Parameters>
            <Attributes>
             <Attribute id="8607" value="" name="ident"/>
             <Attribute id="8608" value="48000" name="sampleRate"/>
             <Attribute id="8609" value="16" name="bitDepth"/>
             <Attribute id="8610" value="1" name="gain"/>
             <Attribute id="8611" value="0" name="mixToMono"/>
            </Attributes>
            <MetaData>
             <entry key="WinSubProjectDisplayName" val=""/>
            </MetaData>
           </AMFile>
           <AMFile id="8612" start="5732" duration="285" scalar="1/1" mediaStart="6413/1" mediaDuration="285/1" trackNumber="0" src="29" channelNumber="0" >
            <Parameters>
             <InterpolatingParam id="8613" interp="linr"  time="0/1" value="1" leadInLength="0/1"  name="volume"/>
             <Parameter id="8614"  name="captions"/>
            </Parameters>
            <Attributes>
             <Attribute id="8615" value="" name="ident"/>
             <Attribute id="8616" value="48000" name="sampleRate"/>
             <Attribute id="8617" value="16" name="bitDepth"/>
             <Attribute id="8618" value="1" name="gain"/>
             <Attribute id="8619" value="0" name="mixToMono"/>
            </Attributes>
            <MetaData>
             <entry key="WinSubProjectDisplayName" val=""/>
            </MetaData>
           </AMFile>
           <AMFile id="8620" start="6017" duration="102" scalar="1/1" mediaStart="6729/1" mediaDuration="102/1" trackNumber="0" src="29" channelNumber="0" >
            <Parameters>
             <InterpolatingParam id="8621" interp="linr"  time="0/1" value="1" leadInLength="0/1"  name="volume"/>
             <Parameter id="8622"  name="captions"/>
            </Parameters>
            <Attributes>
             <Attribute id="8623" value="" name="ident"/>
             <Attribute id="8624" value="48000" name="sampleRate"/>
             <Attribute id="8625" value="16" name="bitDepth"/>
             <Attribute id="8626" value="1" name="gain"/>
             <Attribute id="8627" value="0" name="mixToMono"/>
            </Attributes>
            <MetaData>
             <entry key="WinSubProjectDisplayName" val=""/>
            </MetaData>
           </AMFile>
           <AMFile id="8628" start="6119" duration="234" scalar="1/1" mediaStart="6848/1" mediaDuration="234/1" trackNumber="0" src="29" channelNumber="0" >
            <Parameters>
             <InterpolatingParam id="8629" interp="linr"  time="0/1" value="1" leadInLength="0/1"  name="volume"/>
             <Parameter id="8630"  name="captions"/>
            </Parameters>
            <Attributes>
             <Attribute id="8631" value="" name="ident"/>
             <Attribute id="8632" value="48000" name="sampleRate"/>
             <Attribute id="8633" value="16" name="bitDepth"/>
             <Attribute id="8634" value="1" name="gain"/>
             <Attribute id="8635" value="0" name="mixToMono"/>
            </Attributes>
            <MetaData>
             <entry key="WinSubProjectDisplayName" val=""/>
            </MetaData>
           </AMFile>
           <AMFile id="8636" start="6353" duration="107" scalar="1/1" mediaStart="7089/1" mediaDuration="107/1" trackNumber="0" src="29" channelNumber="0" >
            <Parameters>
             <InterpolatingParam id="8637" interp="linr"  time="0/1" value="1" leadInLength="0/1"  name="volume"/>
             <Parameter id="8638"  name="captions"/>
            </Parameters>
            <Attributes>
             <Attribute id="8639" value="" name="ident"/>
             <Attribute id="8640" value="48000" name="sampleRate"/>
             <Attribute id="8641" value="16" name="bitDepth"/>
             <Attribute id="8642" value="1" name="gain"/>
             <Attribute id="8643" value="0" name="mixToMono"/>
            </Attributes>
            <MetaData>
             <entry key="WinSubProjectDisplayName" val=""/>
            </MetaData>
           </AMFile>
           <AMFile id="8644" start="6460" duration="67" scalar="1/1" mediaStart="7207/1" mediaDuration="67/1" trackNumber="0" src="29" channelNumber="0" >
            <Parameters>
             <InterpolatingParam id="8645" interp="linr"  time="0/1" value="1" leadInLength="0/1"  name="volume"/>
             <Parameter id="8646"  name="captions"/>
            </Parameters>
            <Attributes>
             <Attribute id="8647" value="" name="ident"/>
             <Attribute id="8648" value="48000" name="sampleRate"/>
             <Attribute id="8649" value="16" name="bitDepth"/>
             <Attribute id="8650" value="1" name="gain"/>
             <Attribute id="8651" value="0" name="mixToMono"/>
            </Attributes>
            <MetaData>
             <entry key="WinSubProjectDisplayName" val=""/>
            </MetaData>
           </AMFile>
           <AMFile id="8652" start="6527" duration="226" scalar="1/1" mediaStart="7297/1" mediaDuration="226/1" trackNumber="0" src="29" channelNumber="0" >
            <Parameters>
             <InterpolatingParam id="8653" interp="linr"  time="0/1" value="1" leadInLength="0/1"  name="volume"/>
             <Parameter id="8654"  name="captions"/>
            </Parameters>
            <Attributes>
             <Attribute id="8655" value="" name="ident"/>
             <Attribute id="8656" value="48000" name="sampleRate"/>
             <Attribute id="8657" value="16" name="bitDepth"/>
             <Attribute id="8658" value="1" name="gain"/>
             <Attribute id="8659" value="0" name="mixToMono"/>
            </Attributes>
            <MetaData>
             <entry key="WinSubProjectDisplayName" val=""/>
            </MetaData>
           </AMFile>
           <AMFile id="8660" start="6753" duration="117" scalar="1/1" mediaStart="7540/1" mediaDuration="117/1" trackNumber="0" src="29" channelNumber="0" >
            <Parameters>
             <InterpolatingParam id="8661" interp="linr"  time="0/1" value="1" leadInLength="0/1"  name="volume"/>
             <Parameter id="8662"  name="captions"/>
            </Parameters>
            <Attributes>
             <Attribute id="8663" value="" name="ident"/>
             <Attribute id="8664" value="48000" name="sampleRate"/>
             <Attribute id="8665" value="16" name="bitDepth"/>
             <Attribute id="8666" value="1" name="gain"/>
             <Attribute id="8667" value="0" name="mixToMono"/>
            </Attributes>
            <MetaData>
             <entry key="WinSubProjectDisplayName" val=""/>
            </MetaData>
           </AMFile>
           <AMFile id="8668" start="6870" duration="52" scalar="1/1" mediaStart="7796/1" mediaDuration="52/1" trackNumber="0" src="29" channelNumber="0" >
            <Parameters>
             <InterpolatingParam id="8669" interp="linr"  time="0/1" value="1" leadInLength="0/1"  name="volume"/>
             <Parameter id="8670"  name="captions"/>
            </Parameters>
            <Attributes>
             <Attribute id="8671" value="" name="ident"/>
             <Attribute id="8672" value="48000" name="sampleRate"/>
             <Attribute id="8673" value="16" name="bitDepth"/>
             <Attribute id="8674" value="1" name="gain"/>
             <Attribute id="8675" value="0" name="mixToMono"/>
            </Attributes>
            <MetaData>
             <entry key="WinSubProjectDisplayName" val=""/>
            </MetaData>
           </AMFile>
           <AMFile id="8676" start="6922" duration="100" scalar="1/1" mediaStart="8187/1" mediaDuration="100/1" trackNumber="0" src="29" channelNumber="0" >
            <Parameters>
             <InterpolatingParam id="8677" interp="linr"  time="0/1" value="1" leadInLength="0/1"  name="volume"/>
             <Parameter id="8678"  name="captions"/>
            </Parameters>
            <Attributes>
             <Attribute id="8679" value="" name="ident"/>
             <Attribute id="8680" value="48000" name="sampleRate"/>
             <Attribute id="8681" value="16" name="bitDepth"/>
             <Attribute id="8682" value="1" name="gain"/>
             <Attribute id="8683" value="0" name="mixToMono"/>
            </Attributes>
            <MetaData>
             <entry key="WinSubProjectDisplayName" val=""/>
            </MetaData>
           </AMFile>
           <AMFile id="8684" start="7022" duration="362" scalar="1/1" mediaStart="8303/1" mediaDuration="362/1" trackNumber="0" src="29" channelNumber="0" >
            <Parameters>
             <InterpolatingParam id="8685" interp="linr"  time="0/1" value="1" leadInLength="0/1"  name="volume"/>
             <Parameter id="8686"  name="captions"/>
            </Parameters>
            <Attributes>
             <Attribute id="8687" value="" name="ident"/>
             <Attribute id="8688" value="48000" name="sampleRate"/>
             <Attribute id="8689" value="16" name="bitDepth"/>
             <Attribute id="8690" value="1" name="gain"/>
             <Attribute id="8691" value="0" name="mixToMono"/>
            </Attributes>
            <MetaData>
             <entry key="WinSubProjectDisplayName" val=""/>
            </MetaData>
           </AMFile>
           <AMFile id="8692" start="7384" duration="4973" scalar="1/1" mediaStart="8673/1" mediaDuration="4973/1" trackNumber="0" src="29" channelNumber="0" >
            <Parameters>
             <InterpolatingParam id="8693" interp="linr"  time="0/1" value="1" leadInLength="0/1"  name="volume"/>
             <Parameter id="8694"  name="captions"/>
            </Parameters>
            <Attributes>
             <Attribute id="8695" value="" name="ident"/>
             <Attribute id="8696" value="48000" name="sampleRate"/>
             <Attribute id="8697" value="16" name="bitDepth"/>
             <Attribute id="8698" value="1" name="gain"/>
             <Attribute id="8699" value="0" name="mixToMono"/>
            </Attributes>
            <MetaData>
             <entry key="WinSubProjectDisplayName" val=""/>
            </MetaData>
           </AMFile>
          </Medias>
         </GenericTrack>
        </StitchedMedia>
        <AMFile id="8700" start="6405" duration="146" scalar="1/1" mediaStart="8769/1" mediaDuration="146/1" trackNumber="0" src="29" channelNumber="0" >
         <Parameters>
          <InterpolatingParam id="8701" interp="linr"  name="volume">
           <Keyframes>
           <Keyframe id="8702"  time="0/1" value="1.5625" leadInLength="0/1"  />
           <Keyframe id="8703"  time="8769/1" value="1.5625" leadInLength="0/1"  />
           </Keyframes>
          </InterpolatingParam>
          <Parameter id="8704"  name="captions"/>
         </Parameters>
         <Effects>
          <GenericEffect id="8705" name = "WinCompression" >
           <Parameters>
           <InterpolatingParam id="8706" interp="linr"  time="0/1" value="0" leadInLength="0/1"   name="attack"/>
           <InterpolatingParam id="8707" interp="linr"  time="0/1" value="9" leadInLength="0/1"   name="gain"/>
           <Parameter id="8708"   name="preset">
            <Keyframes>
            <Keyframe id="8709"  time="0/1" value="1" leadInLength="0/1"  />
            </Keyframes>
           </Parameter>
           <InterpolatingParam id="8710" interp="linr"  time="0/1" value="10" leadInLength="0/1"   name="ratio"/>
           <InterpolatingParam id="8711" interp="linr"  time="0/1" value="3500" leadInLength="0/1"   name="release"/>
           <InterpolatingParam id="8712" interp="linr"  time="0/1" value="-20" leadInLength="0/1"   name="threshold"/>
           </Parameters>
          </GenericEffect>
          <GenericEffect id="8713" name = "NoiseReduction" >
           <Parameters>
           <InterpolatingParam id="8714" interp="linr"  time="0/1" value="20" leadInLength="0/1"   name="denoiserAmount"/>
           <InterpolatingParam id="8715" interp="linr"  time="0/1" value="0" leadInLength="0/1"   name="denoiserThreshold"/>
           <Parameter id="8716"   name="noiseProfile">
            <Keyframes>
            <Keyframe id="8717"  time="0/1" value="FBAAAAIAAABErAAAAQIAAIA/l8JLuYTCrOB9wgsMfMJoG4LCaWeFwkohjMJdoYvCYv6LwlnvjcKf&#xD;&#xa;nYzChXWPwlcejsL6fo/C5OmQwgVTj8IVMI/COiWRwoWFkcJ2tYzC8I6MwuQbjcJvEo/ClwGRwheQ&#xD;&#xa;lsK8+pbCN5qVwlielcJ905rCmu+fwst0ncIC/JvCdIWdws3snsKxC5zCfh2cwniFnMJRypzCtRag&#xD;&#xa;wuoCosJQt6DCzoegwhY9ocIWN6PCsNqkwrSlpMJ6maTCYpCkwmLvo8Li+KPCyEamwnBNqMLMcqrC&#xD;&#xa;v2GswoS+q8Kk86vCVACuwnvUr8JxZa/CqHqswrdXq8LqT6zCZsuswhZxrMLBX67CnmqvwpYyrsKc&#xD;&#xa;pq3CJFGvwghrsMK3y6/CXoCtwmWZr8ICi7DCgRezwogSs8Joq7LCm0Sxwuz/scIfibTCOOK1wlIM&#xD;&#xa;t8K87LfCj3K3wqDYs8KT1bLCVsW0wnZ0tcJGhLXCfPe0ws/ntcLGXrbCzAG1wtXdtcKxxrTC1Ay1&#xD;&#xa;wquGtcLjELbC8Zi2wl7rtsJBYbbCMF+1wrEutMKuibTCSFa1wpvktMIu3rTCtGe4wjaduMIKErfC&#xD;&#xa;SLa1wvS/tsJmZrjCdn63whjft8Ie47rCfdi5wmjpt8KKCLjCXmC5wsOQt8JDGbfCK4m4wmpvuMLL&#xD;&#xa;nLjC80q4wjUVusKunLjC1Be5wg4cuMLxCbjCwfW4wmi7ucIOdbvCbLG6whqdusKYErrCbpC4wmq0&#xD;&#xa;ucIoWrvCaNe6ws4iu8LSc7zCUNa7wuJZvMIwLL3CWe28wps2v8J2l77Cv3W+wvgavsKAwrzCQCy8&#xD;&#xa;wgBRu8Km8brChSa6wuM4u8IaaL3Cf5y9wg4hvMLur7vCIpO9wm0fvcIGNLzC7Le8wvKgvMKQrLzC&#xD;&#xa;p6+9wtYtvsJcxbzCQC29wjDqvcKeNbzCH2W8wpbZvsLCTL7CnjO+wuIsvsJs67vCwLq9wiKhvsLs&#xD;&#xa;o73C5Du9wqqhvcLwKr7C2kq/wqEMv8LVCb7Cpla+wsXpvMIs6bvC/fO8wueCvsIM4b3CxtC+wmTo&#xD;&#xa;vcI+arzCTNe8wiFNv8IvKL/Cpg+/woK1v8L4i7/CNv2+wmsVv8KWj77CVym+wnAlv8Joa8DCFDzA&#xD;&#xa;wiQYwcLSIcHCxILAwuxKvsJYm77CPoHAwiYPwcLuy77CcQa+wrB4vcKwYLzCxKW8worIvcIlzr/C&#xD;&#xa;OMC+wuRDvcJGZ7zCxFi9wuQzvMLPbbvCwIe+wm7bvcLm9L3COH6+wuuJvMK2B73CYb+9wqbxvMK/&#xD;&#xa;mL7CqIe9wvCavMKs7L3Ckau8wkpavMKt9LzCF8S+wmgKvsKCy73ClrG+wmIovcIns73Cmg+/wgw7&#xD;&#xa;wMI607/CpEq/wmwVvcJLsLvCMD68wuxdvcIeI7/C+bS+wpxfvsJyxsDC1tO/wmtrv8LNnb/CQiK+&#xD;&#xa;wlz7vcLa6L/CUMXBwtrQwcIAw8HCNJHBwvphwMKqc7/CSkW/wjkvwMK8ccHCHmDBwlKAwcKu+MDC&#xD;&#xa;zErCwuqgwsLa+MLC753DwmjuxcLEWMfCkePFwo47xsKnX8XC7tTCwuf3wsL+HcLCTcTBwmg6w8Is&#xD;&#xa;RMPC+qjDwiyGxMLi58TCnWvFwpjsxsKzCMbCyCTDwpM2wcJWGMPCvuDFwh42xsIfyMTCeLTFwuH7&#xD;&#xa;xMJctcfCVv3HwpTGx8J8b8jCqhjHwrgkx8LXNsfCZkLGwnxSxcL8csXCbu7FwsaQyMLa68fCo0XH&#xD;&#xa;woruxMJGHsbCORbJwry2yMLIUsfCxlfGwmLoxcLSPMnCYPDJwkw3yMKc7crC8vDLwug2y8Lu28vC&#xD;&#xa;OKvMwvLpysKGj8rCtNXLwrMay8KdGMrCUr3JwgIVy8J64MvCkbTJwjh4x8JGI8bCvBXHwnoPycKN&#xD;&#xa;Ss3CuC/Nwuywy8IkJ8zCx9/KwnB5ycKnk8nCenLJwnN6ycKc+sjCLFzJwuTrzMJkJM/CY5vOwoYO&#xD;&#xa;zsLU987CVKfNwiZZzcJQxNDCICHVwi0d18Kc29jCIF/YwtKo2MKeBNvCwpTawmY/2sJXPdvCZZXY&#xD;&#xa;whB818IQNdjCDF3XwtWC1sIGF9fCfFfXwkBy2MJ6+9nC1hfZwi5k2cJlfNjCnEPYwm/N1cKGOdXC&#xD;&#xa;Yk/XwgXL2MJSytfCgpTWwqTT1sJOGtnCrF/ZwtcT2cK08NjCscHZwpQ72sLJ/NrCy3zYwmCk18LE&#xD;&#xa;O9fC6hbYwtYU2cJN/dnC1EbZwrw/2cIqyNbCDr7Xwvb02cLQ+dnCaJvXwuYO18KSodnC1NnawtJJ&#xD;&#xa;18ISLtjC90nawoel2cIwl9jCi0XZwih328Ks7NjC5KzZwqui2cJw0tjCukLYws+O2MJaqtrCUuXa&#xD;&#xa;wviX2MIKxtfCnqXXwhjI2MJwAtvCIFvcwgCL2cJ0/djCdyXawh9H2cJ+ntfCy4TXwhqF2MJ68NnC&#xD;&#xa;CzvYwljT2cIkP9vCIs/bwjpB2sK2A9rCXt/awjZH2sIfltvCKWPcwjp53MKrGd3CaBPewj/03MJm&#xD;&#xa;U97CphfgwlJp3cKQpt3Crxjewm7d28Kq/9vCNNXcwqY728IUH9vCkirbwgIt28KK19zCjmzdwoBH&#xD;&#xa;3MIAUtvCUq3bwo8f28Ig09jCiyfZwhbx2sLWe9zCvgzbwmwI2sI2nNvC0lvdwg6128I8PNvCLufa&#xD;&#xa;wkyK28KkitzCJIDcwmAO28L0TNrCDHXawjla28IQkdzCoCDcwjRI3MJVUdvCtujZwnCs2sK8Yd3C&#xD;&#xa;iGbbwuSB2cImFNvCCI7rwoA/l8JLuYTCrOB9wgsMfMJoG4LCaWeFwkohjMJdoYvCYv6LwlnvjcKf&#xD;&#xa;nYzChXWPwlcejsL6fo/C5OmQwgVTj8IVMI/COiWRwoWFkcJ2tYzC8I6MwuQbjcJvEo/ClwGRwheQ&#xD;&#xa;lsK8+pbCN5qVwlielcJ905rCmu+fwst0ncIC/JvCdIWdws3snsKxC5zCfh2cwniFnMJRypzCtRag&#xD;&#xa;wuoCosJQt6DCzoegwhY9ocIWN6PCsNqkwrSlpMJ6maTCYpCkwmLvo8Li+KPCyEamwnBNqMLMcqrC&#xD;&#xa;v2GswoS+q8Kk86vCVACuwnvUr8JxZa/CqHqswrdXq8LqT6zCZsuswhZxrMLBX67CnmqvwpYyrsKc&#xD;&#xa;pq3CJFGvwghrsMK3y6/CXoCtwmWZr8ICi7DCgRezwogSs8Joq7LCm0Sxwuz/scIfibTCOOK1wlIM&#xD;&#xa;t8K87LfCj3K3wqDYs8KT1bLCVsW0wnZ0tcJGhLXCfPe0ws/ntcLGXrbCzAG1wtXdtcKxxrTC1Ay1&#xD;&#xa;wquGtcLjELbC8Zi2wl7rtsJBYbbCMF+1wrEutMKuibTCSFa1wpvktMIu3rTCtGe4wjaduMIKErfC&#xD;&#xa;SLa1wvS/tsJmZrjCdn63whjft8Ie47rCfdi5wmjpt8KKCLjCXmC5wsOQt8JDGbfCK4m4wmpvuMLL&#xD;&#xa;nLjC80q4wjUVusKunLjC1Be5wg4cuMLxCbjCwfW4wmi7ucIOdbvCbLG6whqdusKYErrCbpC4wmq0&#xD;&#xa;ucIoWrvCaNe6ws4iu8LSc7zCUNa7wuJZvMIwLL3CWe28wps2v8J2l77Cv3W+wvgavsKAwrzCQCy8&#xD;&#xa;wgBRu8Km8brChSa6wuM4u8IaaL3Cf5y9wg4hvMLur7vCIpO9wm0fvcIGNLzC7Le8wvKgvMKQrLzC&#xD;&#xa;p6+9wtYtvsJcxbzCQC29wjDqvcKeNbzCH2W8wpbZvsLCTL7CnjO+wuIsvsJs67vCwLq9wiKhvsLs&#xD;&#xa;o73C5Du9wqqhvcLwKr7C2kq/wqEMv8LVCb7Cpla+wsXpvMIs6bvC/fO8wueCvsIM4b3CxtC+wmTo&#xD;&#xa;vcI+arzCTNe8wiFNv8IvKL/Cpg+/woK1v8L4i7/CNv2+wmsVv8KWj77CVym+wnAlv8Joa8DCFDzA&#xD;&#xa;wiQYwcLSIcHCxILAwuxKvsJYm77CPoHAwiYPwcLuy77CcQa+wrB4vcKwYLzCxKW8worIvcIlzr/C&#xD;&#xa;OMC+wuRDvcJGZ7zCxFi9wuQzvMLPbbvCwIe+wm7bvcLm9L3COH6+wuuJvMK2B73CYb+9wqbxvMK/&#xD;&#xa;mL7CqIe9wvCavMKs7L3Ckau8wkpavMKt9LzCF8S+wmgKvsKCy73ClrG+wmIovcIns73Cmg+/wgw7&#xD;&#xa;wMI607/CpEq/wmwVvcJLsLvCMD68wuxdvcIeI7/C+bS+wpxfvsJyxsDC1tO/wmtrv8LNnb/CQiK+&#xD;&#xa;wlz7vcLa6L/CUMXBwtrQwcIAw8HCNJHBwvphwMKqc7/CSkW/wjkvwMK8ccHCHmDBwlKAwcKu+MDC&#xD;&#xa;zErCwuqgwsLa+MLC753DwmjuxcLEWMfCkePFwo47xsKnX8XC7tTCwuf3wsL+HcLCTcTBwmg6w8Is&#xD;&#xa;RMPC+qjDwiyGxMLi58TCnWvFwpjsxsKzCMbCyCTDwpM2wcJWGMPCvuDFwh42xsIfyMTCeLTFwuH7&#xD;&#xa;xMJctcfCVv3HwpTGx8J8b8jCqhjHwrgkx8LXNsfCZkLGwnxSxcL8csXCbu7FwsaQyMLa68fCo0XH&#xD;&#xa;woruxMJGHsbCORbJwry2yMLIUsfCxlfGwmLoxcLSPMnCYPDJwkw3yMKc7crC8vDLwug2y8Lu28vC&#xD;&#xa;OKvMwvLpysKGj8rCtNXLwrMay8KdGMrCUr3JwgIVy8J64MvCkbTJwjh4x8JGI8bCvBXHwnoPycKN&#xD;&#xa;Ss3CuC/Nwuywy8IkJ8zCx9/KwnB5ycKnk8nCenLJwnN6ycKc+sjCLFzJwuTrzMJkJM/CY5vOwoYO&#xD;&#xa;zsLU987CVKfNwiZZzcJQxNDCICHVwi0d18Kc29jCIF/YwtKo2MKeBNvCwpTawmY/2sJXPdvCZZXY&#xD;&#xa;whB818IQNdjCDF3XwtWC1sIGF9fCfFfXwkBy2MJ6+9nC1hfZwi5k2cJlfNjCnEPYwm/N1cKGOdXC&#xD;&#xa;Yk/XwgXL2MJSytfCgpTWwqTT1sJOGtnCrF/ZwtcT2cK08NjCscHZwpQ72sLJ/NrCy3zYwmCk18LE&#xD;&#xa;O9fC6hbYwtYU2cJN/dnC1EbZwrw/2cIqyNbCDr7Xwvb02cLQ+dnCaJvXwuYO18KSodnC1NnawtJJ&#xD;&#xa;18ISLtjC90nawoel2cIwl9jCi0XZwih328Ks7NjC5KzZwqui2cJw0tjCukLYws+O2MJaqtrCUuXa&#xD;&#xa;wviX2MIKxtfCnqXXwhjI2MJwAtvCIFvcwgCL2cJ0/djCdyXawh9H2cJ+ntfCy4TXwhqF2MJ68NnC&#xD;&#xa;CzvYwljT2cIkP9vCIs/bwjpB2sK2A9rCXt/awjZH2sIfltvCKWPcwjp53MKrGd3CaBPewj/03MJm&#xD;&#xa;U97CphfgwlJp3cKQpt3Crxjewm7d28Kq/9vCNNXcwqY728IUH9vCkirbwgIt28KK19zCjmzdwoBH&#xD;&#xa;3MIAUtvCUq3bwo8f28Ig09jCiyfZwhbx2sLWe9zCvgzbwmwI2sI2nNvC0lvdwg6128I8PNvCLufa&#xD;&#xa;wkyK28KkitzCJIDcwmAO28L0TNrCDHXawjla28IQkdzCoCDcwjRI3MJVUdvCtujZwnCs2sK8Yd3C&#xD;&#xa;iGbbwuSB2cImFNvCCI7r" leadInLength="0/1"  />
            </Keyframes>
           </Parameter>
           </Parameters>
          </GenericEffect>
          <GenericEffect id="8718" name = "Declipper" >
           <Parameters>
           <InterpolatingParam id="8719" interp="linr"  time="0/1" value="-1" leadInLength="0/1"   name="sensitivity"/>
           </Parameters>
          </GenericEffect>
          <GenericEffect id="8720" name = "Declicker" >
           <Parameters>
           <InterpolatingParam id="8721" interp="linr"  time="0/1" value="3" leadInLength="0/1"   name="sensitivity"/>
           </Parameters>
          </GenericEffect>
         </Effects>
         <Attributes>
          <Attribute id="8722" value="" name="ident"/>
          <Attribute id="8723" value="48000" name="sampleRate"/>
          <Attribute id="8724" value="16" name="bitDepth"/>
          <Attribute id="8725" value="1" name="gain"/>
          <Attribute id="8726" value="0" name="mixToMono"/>
         </Attributes>
         <MetaData>
          <entry key="WinSubProjectDisplayName" val=""/>
         </MetaData>
        </AMFile>
        <StitchedMedia id="8727" start="6563" duration="390" scalar="1/1" mediaStart="7849/1" mediaDuration="390/1" minMediaStart="0/1" >
         <Transformer>
          <VectorParam id="8728"  name="translation">
           <InterpolatingParam id="8729" interp="linr"  time="0/1" value="0" leadInLength="0/1"  />
           <InterpolatingParam id="8730" interp="linr"  time="0/1" value="0" leadInLength="0/1"  />
           <InterpolatingParam id="8731" interp="linr"  time="0/1" value="0" leadInLength="0/1"  />
          </VectorParam>
          <VectorParam id="8732"  name="rotation">
           <InterpolatingParam id="8733" interp="linr"  time="0/1" value="0" leadInLength="0/1"  />
           <InterpolatingParam id="8734" interp="linr"  time="0/1" value="0" leadInLength="0/1"  />
           <InterpolatingParam id="8735" interp="linr"  time="0/1" value="0" leadInLength="0/1"  />
          </VectorParam>
          <VectorParam id="8736"  name="shear">
           <InterpolatingParam id="8737" interp="linr"  time="0/1" value="0" leadInLength="0/1"  />
           <InterpolatingParam id="8738" interp="linr"  time="0/1" value="0" leadInLength="0/1"  />
           <InterpolatingParam id="8739" interp="linr"  time="0/1" value="0" leadInLength="0/1"  />
          </VectorParam>
          <VectorParam id="8740"  name="scale">
           <InterpolatingParam id="8741" interp="linr"  time="0/1" value="1" leadInLength="0/1"  />
           <InterpolatingParam id="8742" interp="linr"  time="0/1" value="1" leadInLength="0/1"  />
           <InterpolatingParam id="8743" interp="linr"  time="0/1" value="1" leadInLength="0/1"  />
          </VectorParam>
          <VectorParam id="8744"  name="anchor">
           <InterpolatingParam id="8745" interp="linr"  time="0/1" value="0" leadInLength="0/1"  />
           <InterpolatingParam id="8746" interp="linr"  time="0/1" value="0" leadInLength="0/1"  />
           <InterpolatingParam id="8747" interp="linr"  time="0/1" value="0" leadInLength="0/1"  />
          </VectorParam>
         </Transformer>
         <Parameters>
          <InterpolatingParam id="8748" interp="linr"  time="0/1" value="1" leadInLength="0/1"  name="cursorOpacity"/>
          <InterpolatingParam id="8749" interp="linr"  time="0/1" value="1" leadInLength="0/1"  name="cursorScale"/>
          <InterpolatingParam id="8750" interp="linr"  time="0/1" value="1.5625" leadInLength="0/1"  name="volume"/>
          <Parameter id="8751"  name="captions"/>
         </Parameters>
         <Effects>
          <GenericEffect id="8752" name = "WinCompression" >
           <Parameters>
           <InterpolatingParam id="8753" interp="linr"  time="0/1" value="0" leadInLength="0/1"   name="attack"/>
           <InterpolatingParam id="8754" interp="linr"  time="0/1" value="9" leadInLength="0/1"   name="gain"/>
           <Parameter id="8755"   name="preset">
            <Keyframes>
            <Keyframe id="8756"  time="0/1" value="1" leadInLength="0/1"  />
            </Keyframes>
           </Parameter>
           <InterpolatingParam id="8757" interp="linr"  time="0/1" value="10" leadInLength="0/1"   name="ratio"/>
           <InterpolatingParam id="8758" interp="linr"  time="0/1" value="3500" leadInLength="0/1"   name="release"/>
           <InterpolatingParam id="8759" interp="linr"  time="0/1" value="-20" leadInLength="0/1"   name="threshold"/>
           </Parameters>
          </GenericEffect>
          <GenericEffect id="8760" name = "NoiseReduction" >
           <Parameters>
           <InterpolatingParam id="8761" interp="linr"  time="0/1" value="20" leadInLength="0/1"   name="denoiserAmount"/>
           <InterpolatingParam id="8762" interp="linr"  time="0/1" value="0" leadInLength="0/1"   name="denoiserThreshold"/>
           <Parameter id="8763"   name="noiseProfile">
            <Keyframes>
            <Keyframe id="8764"  time="0/1" value="FBAAAAIAAABErAAAAQIAAIA/l8JLuYTCrOB9wgsMfMJoG4LCaWeFwkohjMJdoYvCYv6LwlnvjcKf&#xD;&#xa;nYzChXWPwlcejsL6fo/C5OmQwgVTj8IVMI/COiWRwoWFkcJ2tYzC8I6MwuQbjcJvEo/ClwGRwheQ&#xD;&#xa;lsK8+pbCN5qVwlielcJ905rCmu+fwst0ncIC/JvCdIWdws3snsKxC5zCfh2cwniFnMJRypzCtRag&#xD;&#xa;wuoCosJQt6DCzoegwhY9ocIWN6PCsNqkwrSlpMJ6maTCYpCkwmLvo8Li+KPCyEamwnBNqMLMcqrC&#xD;&#xa;v2GswoS+q8Kk86vCVACuwnvUr8JxZa/CqHqswrdXq8LqT6zCZsuswhZxrMLBX67CnmqvwpYyrsKc&#xD;&#xa;pq3CJFGvwghrsMK3y6/CXoCtwmWZr8ICi7DCgRezwogSs8Joq7LCm0Sxwuz/scIfibTCOOK1wlIM&#xD;&#xa;t8K87LfCj3K3wqDYs8KT1bLCVsW0wnZ0tcJGhLXCfPe0ws/ntcLGXrbCzAG1wtXdtcKxxrTC1Ay1&#xD;&#xa;wquGtcLjELbC8Zi2wl7rtsJBYbbCMF+1wrEutMKuibTCSFa1wpvktMIu3rTCtGe4wjaduMIKErfC&#xD;&#xa;SLa1wvS/tsJmZrjCdn63whjft8Ie47rCfdi5wmjpt8KKCLjCXmC5wsOQt8JDGbfCK4m4wmpvuMLL&#xD;&#xa;nLjC80q4wjUVusKunLjC1Be5wg4cuMLxCbjCwfW4wmi7ucIOdbvCbLG6whqdusKYErrCbpC4wmq0&#xD;&#xa;ucIoWrvCaNe6ws4iu8LSc7zCUNa7wuJZvMIwLL3CWe28wps2v8J2l77Cv3W+wvgavsKAwrzCQCy8&#xD;&#xa;wgBRu8Km8brChSa6wuM4u8IaaL3Cf5y9wg4hvMLur7vCIpO9wm0fvcIGNLzC7Le8wvKgvMKQrLzC&#xD;&#xa;p6+9wtYtvsJcxbzCQC29wjDqvcKeNbzCH2W8wpbZvsLCTL7CnjO+wuIsvsJs67vCwLq9wiKhvsLs&#xD;&#xa;o73C5Du9wqqhvcLwKr7C2kq/wqEMv8LVCb7Cpla+wsXpvMIs6bvC/fO8wueCvsIM4b3CxtC+wmTo&#xD;&#xa;vcI+arzCTNe8wiFNv8IvKL/Cpg+/woK1v8L4i7/CNv2+wmsVv8KWj77CVym+wnAlv8Joa8DCFDzA&#xD;&#xa;wiQYwcLSIcHCxILAwuxKvsJYm77CPoHAwiYPwcLuy77CcQa+wrB4vcKwYLzCxKW8worIvcIlzr/C&#xD;&#xa;OMC+wuRDvcJGZ7zCxFi9wuQzvMLPbbvCwIe+wm7bvcLm9L3COH6+wuuJvMK2B73CYb+9wqbxvMK/&#xD;&#xa;mL7CqIe9wvCavMKs7L3Ckau8wkpavMKt9LzCF8S+wmgKvsKCy73ClrG+wmIovcIns73Cmg+/wgw7&#xD;&#xa;wMI607/CpEq/wmwVvcJLsLvCMD68wuxdvcIeI7/C+bS+wpxfvsJyxsDC1tO/wmtrv8LNnb/CQiK+&#xD;&#xa;wlz7vcLa6L/CUMXBwtrQwcIAw8HCNJHBwvphwMKqc7/CSkW/wjkvwMK8ccHCHmDBwlKAwcKu+MDC&#xD;&#xa;zErCwuqgwsLa+MLC753DwmjuxcLEWMfCkePFwo47xsKnX8XC7tTCwuf3wsL+HcLCTcTBwmg6w8Is&#xD;&#xa;RMPC+qjDwiyGxMLi58TCnWvFwpjsxsKzCMbCyCTDwpM2wcJWGMPCvuDFwh42xsIfyMTCeLTFwuH7&#xD;&#xa;xMJctcfCVv3HwpTGx8J8b8jCqhjHwrgkx8LXNsfCZkLGwnxSxcL8csXCbu7FwsaQyMLa68fCo0XH&#xD;&#xa;woruxMJGHsbCORbJwry2yMLIUsfCxlfGwmLoxcLSPMnCYPDJwkw3yMKc7crC8vDLwug2y8Lu28vC&#xD;&#xa;OKvMwvLpysKGj8rCtNXLwrMay8KdGMrCUr3JwgIVy8J64MvCkbTJwjh4x8JGI8bCvBXHwnoPycKN&#xD;&#xa;Ss3CuC/Nwuywy8IkJ8zCx9/KwnB5ycKnk8nCenLJwnN6ycKc+sjCLFzJwuTrzMJkJM/CY5vOwoYO&#xD;&#xa;zsLU987CVKfNwiZZzcJQxNDCICHVwi0d18Kc29jCIF/YwtKo2MKeBNvCwpTawmY/2sJXPdvCZZXY&#xD;&#xa;whB818IQNdjCDF3XwtWC1sIGF9fCfFfXwkBy2MJ6+9nC1hfZwi5k2cJlfNjCnEPYwm/N1cKGOdXC&#xD;&#xa;Yk/XwgXL2MJSytfCgpTWwqTT1sJOGtnCrF/ZwtcT2cK08NjCscHZwpQ72sLJ/NrCy3zYwmCk18LE&#xD;&#xa;O9fC6hbYwtYU2cJN/dnC1EbZwrw/2cIqyNbCDr7Xwvb02cLQ+dnCaJvXwuYO18KSodnC1NnawtJJ&#xD;&#xa;18ISLtjC90nawoel2cIwl9jCi0XZwih328Ks7NjC5KzZwqui2cJw0tjCukLYws+O2MJaqtrCUuXa&#xD;&#xa;wviX2MIKxtfCnqXXwhjI2MJwAtvCIFvcwgCL2cJ0/djCdyXawh9H2cJ+ntfCy4TXwhqF2MJ68NnC&#xD;&#xa;CzvYwljT2cIkP9vCIs/bwjpB2sK2A9rCXt/awjZH2sIfltvCKWPcwjp53MKrGd3CaBPewj/03MJm&#xD;&#xa;U97CphfgwlJp3cKQpt3Crxjewm7d28Kq/9vCNNXcwqY728IUH9vCkirbwgIt28KK19zCjmzdwoBH&#xD;&#xa;3MIAUtvCUq3bwo8f28Ig09jCiyfZwhbx2sLWe9zCvgzbwmwI2sI2nNvC0lvdwg6128I8PNvCLufa&#xD;&#xa;wkyK28KkitzCJIDcwmAO28L0TNrCDHXawjla28IQkdzCoCDcwjRI3MJVUdvCtujZwnCs2sK8Yd3C&#xD;&#xa;iGbbwuSB2cImFNvCCI7rwoA/l8JLuYTCrOB9wgsMfMJoG4LCaWeFwkohjMJdoYvCYv6LwlnvjcKf&#xD;&#xa;nYzChXWPwlcejsL6fo/C5OmQwgVTj8IVMI/COiWRwoWFkcJ2tYzC8I6MwuQbjcJvEo/ClwGRwheQ&#xD;&#xa;lsK8+pbCN5qVwlielcJ905rCmu+fwst0ncIC/JvCdIWdws3snsKxC5zCfh2cwniFnMJRypzCtRag&#xD;&#xa;wuoCosJQt6DCzoegwhY9ocIWN6PCsNqkwrSlpMJ6maTCYpCkwmLvo8Li+KPCyEamwnBNqMLMcqrC&#xD;&#xa;v2GswoS+q8Kk86vCVACuwnvUr8JxZa/CqHqswrdXq8LqT6zCZsuswhZxrMLBX67CnmqvwpYyrsKc&#xD;&#xa;pq3CJFGvwghrsMK3y6/CXoCtwmWZr8ICi7DCgRezwogSs8Joq7LCm0Sxwuz/scIfibTCOOK1wlIM&#xD;&#xa;t8K87LfCj3K3wqDYs8KT1bLCVsW0wnZ0tcJGhLXCfPe0ws/ntcLGXrbCzAG1wtXdtcKxxrTC1Ay1&#xD;&#xa;wquGtcLjELbC8Zi2wl7rtsJBYbbCMF+1wrEutMKuibTCSFa1wpvktMIu3rTCtGe4wjaduMIKErfC&#xD;&#xa;SLa1wvS/tsJmZrjCdn63whjft8Ie47rCfdi5wmjpt8KKCLjCXmC5wsOQt8JDGbfCK4m4wmpvuMLL&#xD;&#xa;nLjC80q4wjUVusKunLjC1Be5wg4cuMLxCbjCwfW4wmi7ucIOdbvCbLG6whqdusKYErrCbpC4wmq0&#xD;&#xa;ucIoWrvCaNe6ws4iu8LSc7zCUNa7wuJZvMIwLL3CWe28wps2v8J2l77Cv3W+wvgavsKAwrzCQCy8&#xD;&#xa;wgBRu8Km8brChSa6wuM4u8IaaL3Cf5y9wg4hvMLur7vCIpO9wm0fvcIGNLzC7Le8wvKgvMKQrLzC&#xD;&#xa;p6+9wtYtvsJcxbzCQC29wjDqvcKeNbzCH2W8wpbZvsLCTL7CnjO+wuIsvsJs67vCwLq9wiKhvsLs&#xD;&#xa;o73C5Du9wqqhvcLwKr7C2kq/wqEMv8LVCb7Cpla+wsXpvMIs6bvC/fO8wueCvsIM4b3CxtC+wmTo&#xD;&#xa;vcI+arzCTNe8wiFNv8IvKL/Cpg+/woK1v8L4i7/CNv2+wmsVv8KWj77CVym+wnAlv8Joa8DCFDzA&#xD;&#xa;wiQYwcLSIcHCxILAwuxKvsJYm77CPoHAwiYPwcLuy77CcQa+wrB4vcKwYLzCxKW8worIvcIlzr/C&#xD;&#xa;OMC+wuRDvcJGZ7zCxFi9wuQzvMLPbbvCwIe+wm7bvcLm9L3COH6+wuuJvMK2B73CYb+9wqbxvMK/&#xD;&#xa;mL7CqIe9wvCavMKs7L3Ckau8wkpavMKt9LzCF8S+wmgKvsKCy73ClrG+wmIovcIns73Cmg+/wgw7&#xD;&#xa;wMI607/CpEq/wmwVvcJLsLvCMD68wuxdvcIeI7/C+bS+wpxfvsJyxsDC1tO/wmtrv8LNnb/CQiK+&#xD;&#xa;wlz7vcLa6L/CUMXBwtrQwcIAw8HCNJHBwvphwMKqc7/CSkW/wjkvwMK8ccHCHmDBwlKAwcKu+MDC&#xD;&#xa;zErCwuqgwsLa+MLC753DwmjuxcLEWMfCkePFwo47xsKnX8XC7tTCwuf3wsL+HcLCTcTBwmg6w8Is&#xD;&#xa;RMPC+qjDwiyGxMLi58TCnWvFwpjsxsKzCMbCyCTDwpM2wcJWGMPCvuDFwh42xsIfyMTCeLTFwuH7&#xD;&#xa;xMJctcfCVv3HwpTGx8J8b8jCqhjHwrgkx8LXNsfCZkLGwnxSxcL8csXCbu7FwsaQyMLa68fCo0XH&#xD;&#xa;woruxMJGHsbCORbJwry2yMLIUsfCxlfGwmLoxcLSPMnCYPDJwkw3yMKc7crC8vDLwug2y8Lu28vC&#xD;&#xa;OKvMwvLpysKGj8rCtNXLwrMay8KdGMrCUr3JwgIVy8J64MvCkbTJwjh4x8JGI8bCvBXHwnoPycKN&#xD;&#xa;Ss3CuC/Nwuywy8IkJ8zCx9/KwnB5ycKnk8nCenLJwnN6ycKc+sjCLFzJwuTrzMJkJM/CY5vOwoYO&#xD;&#xa;zsLU987CVKfNwiZZzcJQxNDCICHVwi0d18Kc29jCIF/YwtKo2MKeBNvCwpTawmY/2sJXPdvCZZXY&#xD;&#xa;whB818IQNdjCDF3XwtWC1sIGF9fCfFfXwkBy2MJ6+9nC1hfZwi5k2cJlfNjCnEPYwm/N1cKGOdXC&#xD;&#xa;Yk/XwgXL2MJSytfCgpTWwqTT1sJOGtnCrF/ZwtcT2cK08NjCscHZwpQ72sLJ/NrCy3zYwmCk18LE&#xD;&#xa;O9fC6hbYwtYU2cJN/dnC1EbZwrw/2cIqyNbCDr7Xwvb02cLQ+dnCaJvXwuYO18KSodnC1NnawtJJ&#xD;&#xa;18ISLtjC90nawoel2cIwl9jCi0XZwih328Ks7NjC5KzZwqui2cJw0tjCukLYws+O2MJaqtrCUuXa&#xD;&#xa;wviX2MIKxtfCnqXXwhjI2MJwAtvCIFvcwgCL2cJ0/djCdyXawh9H2cJ+ntfCy4TXwhqF2MJ68NnC&#xD;&#xa;CzvYwljT2cIkP9vCIs/bwjpB2sK2A9rCXt/awjZH2sIfltvCKWPcwjp53MKrGd3CaBPewj/03MJm&#xD;&#xa;U97CphfgwlJp3cKQpt3Crxjewm7d28Kq/9vCNNXcwqY728IUH9vCkirbwgIt28KK19zCjmzdwoBH&#xD;&#xa;3MIAUtvCUq3bwo8f28Ig09jCiyfZwhbx2sLWe9zCvgzbwmwI2sI2nNvC0lvdwg6128I8PNvCLufa&#xD;&#xa;wkyK28KkitzCJIDcwmAO28L0TNrCDHXawjla28IQkdzCoCDcwjRI3MJVUdvCtujZwnCs2sK8Yd3C&#xD;&#xa;iGbbwuSB2cImFNvCCI7r" leadInLength="0/1"  />
            </Keyframes>
           </Parameter>
           </Parameters>
          </GenericEffect>
          <GenericEffect id="8765" name = "Declipper" >
           <Parameters>
           <InterpolatingParam id="8766" interp="linr"  time="0/1" value="-1" leadInLength="0/1"   name="sensitivity"/>
           </Parameters>
          </GenericEffect>
          <GenericEffect id="8767" name = "Declicker" >
           <Parameters>
           <InterpolatingParam id="8768" interp="linr"  time="0/1" value="3" leadInLength="0/1"   name="sensitivity"/>
           </Parameters>
          </GenericEffect>
         </Effects>
         <Attributes>
          <Attribute id="8769" value="" name="ident"/>
          <Attribute id="8770" value="0" name="mixToMono"/>
         </Attributes>
         <MetaData>
          <entry key="WinSubProjectDisplayName" val=""/>
         </MetaData>
         <ExtraData>
          <Entry key="ZoomPanBin">
           <ZoomPanBin id="8771"  >
            <ZoomPanKeyframes>
            </ZoomPanKeyframes>
           </ZoomPanBin>
          </Entry>
          <Entry key="CursorEffectBin">
           <CursorEffectBin id="8772"  >
            <CursorEffectKeyframes>
            </CursorEffectKeyframes>
           </CursorEffectBin>
          </Entry>
         </ExtraData>
         <GenericTrack id="8773"  >
          <Attributes>
           <Attribute id="8774" value="" name="ident"/>
           <Attribute id="8775" value="0" name="audioMuted"/>
           <Attribute id="8776" value="0" name="videoHidden"/>
          </Attributes>
          <MetaData>
           <entry key="IsLocked" val="False"/>
           <entry key="WinTrackHeight" val="0"/>
          </MetaData>
          <Medias>
           <AMFile id="8777" start="0" duration="117" scalar="1/1" mediaStart="0/1" mediaDuration="117/1" trackNumber="0" src="29" channelNumber="0" >
            <Parameters>
             <InterpolatingParam id="8778" interp="linr"  time="0/1" value="1" leadInLength="0/1"  name="volume"/>
             <Parameter id="8779"  name="captions"/>
            </Parameters>
            <Attributes>
             <Attribute id="8780" value="" name="ident"/>
             <Attribute id="8781" value="48000" name="sampleRate"/>
             <Attribute id="8782" value="16" name="bitDepth"/>
             <Attribute id="8783" value="1" name="gain"/>
             <Attribute id="8784" value="0" name="mixToMono"/>
            </Attributes>
            <MetaData>
             <entry key="WinSubProjectDisplayName" val=""/>
            </MetaData>
           </AMFile>
           <AMFile id="8785" start="117" duration="272" scalar="1/1" mediaStart="131/1" mediaDuration="272/1" trackNumber="0" src="29" channelNumber="0" >
            <Parameters>
             <InterpolatingParam id="8786" interp="linr"  time="0/1" value="1" leadInLength="0/1"  name="volume"/>
             <Parameter id="8787"  name="captions"/>
            </Parameters>
            <Attributes>
             <Attribute id="8788" value="" name="ident"/>
             <Attribute id="8789" value="48000" name="sampleRate"/>
             <Attribute id="8790" value="16" name="bitDepth"/>
             <Attribute id="8791" value="1" name="gain"/>
             <Attribute id="8792" value="0" name="mixToMono"/>
            </Attributes>
            <MetaData>
             <entry key="WinSubProjectDisplayName" val=""/>
            </MetaData>
           </AMFile>
           <AMFile id="8793" start="389" duration="1309" scalar="1/1" mediaStart="415/1" mediaDuration="1309/1" trackNumber="0" src="29" channelNumber="0" >
            <Parameters>
             <InterpolatingParam id="8794" interp="linr"  time="0/1" value="1" leadInLength="0/1"  name="volume"/>
             <Parameter id="8795"  name="captions"/>
            </Parameters>
            <Attributes>
             <Attribute id="8796" value="" name="ident"/>
             <Attribute id="8797" value="48000" name="sampleRate"/>
             <Attribute id="8798" value="16" name="bitDepth"/>
             <Attribute id="8799" value="1" name="gain"/>
             <Attribute id="8800" value="0" name="mixToMono"/>
            </Attributes>
            <MetaData>
             <entry key="WinSubProjectDisplayName" val=""/>
            </MetaData>
           </AMFile>
           <AMFile id="8801" start="1698" duration="103" scalar="1/1" mediaStart="1734/1" mediaDuration="103/1" trackNumber="0" src="29" channelNumber="0" >
            <Parameters>
             <InterpolatingParam id="8802" interp="linr"  time="0/1" value="1" leadInLength="0/1"  name="volume"/>
             <Parameter id="8803"  name="captions"/>
            </Parameters>
            <Attributes>
             <Attribute id="8804" value="" name="ident"/>
             <Attribute id="8805" value="48000" name="sampleRate"/>
             <Attribute id="8806" value="16" name="bitDepth"/>
             <Attribute id="8807" value="1" name="gain"/>
             <Attribute id="8808" value="0" name="mixToMono"/>
            </Attributes>
            <MetaData>
             <entry key="WinSubProjectDisplayName" val=""/>
            </MetaData>
           </AMFile>
           <AMFile id="8809" start="1801" duration="245" scalar="1/1" mediaStart="2164/1" mediaDuration="245/1" trackNumber="0" src="29" channelNumber="0" >
            <Parameters>
             <InterpolatingParam id="8810" interp="linr"  time="0/1" value="1" leadInLength="0/1"  name="volume"/>
             <Parameter id="8811"  name="captions"/>
            </Parameters>
            <Attributes>
             <Attribute id="8812" value="" name="ident"/>
             <Attribute id="8813" value="48000" name="sampleRate"/>
             <Attribute id="8814" value="16" name="bitDepth"/>
             <Attribute id="8815" value="1" name="gain"/>
             <Attribute id="8816" value="0" name="mixToMono"/>
            </Attributes>
            <MetaData>
             <entry key="WinSubProjectDisplayName" val=""/>
            </MetaData>
           </AMFile>
           <AMFile id="8817" start="2046" duration="202" scalar="1/1" mediaStart="2637/1" mediaDuration="202/1" trackNumber="0" src="29" channelNumber="0" >
            <Parameters>
             <InterpolatingParam id="8818" interp="linr"  time="0/1" value="1" leadInLength="0/1"  name="volume"/>
             <Parameter id="8819"  name="captions"/>
            </Parameters>
            <Attributes>
             <Attribute id="8820" value="" name="ident"/>
             <Attribute id="8821" value="48000" name="sampleRate"/>
             <Attribute id="8822" value="16" name="bitDepth"/>
             <Attribute id="8823" value="1" name="gain"/>
             <Attribute id="8824" value="0" name="mixToMono"/>
            </Attributes>
            <MetaData>
             <entry key="WinSubProjectDisplayName" val=""/>
            </MetaData>
           </AMFile>
           <AMFile id="8825" start="2248" duration="185" scalar="1/1" mediaStart="2856/1" mediaDuration="185/1" trackNumber="0" src="29" channelNumber="0" >
            <Parameters>
             <InterpolatingParam id="8826" interp="linr"  time="0/1" value="1" leadInLength="0/1"  name="volume"/>
             <Parameter id="8827"  name="captions"/>
            </Parameters>
            <Attributes>
             <Attribute id="8828" value="" name="ident"/>
             <Attribute id="8829" value="48000" name="sampleRate"/>
             <Attribute id="8830" value="16" name="bitDepth"/>
             <Attribute id="8831" value="1" name="gain"/>
             <Attribute id="8832" value="0" name="mixToMono"/>
            </Attributes>
            <MetaData>
             <entry key="WinSubProjectDisplayName" val=""/>
            </MetaData>
           </AMFile>
           <AMFile id="8833" start="2433" duration="215" scalar="1/1" mediaStart="3054/1" mediaDuration="215/1" trackNumber="0" src="29" channelNumber="0" >
            <Parameters>
             <InterpolatingParam id="8834" interp="linr"  time="0/1" value="1" leadInLength="0/1"  name="volume"/>
             <Parameter id="8835"  name="captions"/>
            </Parameters>
            <Attributes>
             <Attribute id="8836" value="" name="ident"/>
             <Attribute id="8837" value="48000" name="sampleRate"/>
             <Attribute id="8838" value="16" name="bitDepth"/>
             <Attribute id="8839" value="1" name="gain"/>
             <Attribute id="8840" value="0" name="mixToMono"/>
            </Attributes>
            <MetaData>
             <entry key="WinSubProjectDisplayName" val=""/>
            </MetaData>
           </AMFile>
           <AMFile id="8841" start="2648" duration="155" scalar="1/1" mediaStart="3288/1" mediaDuration="155/1" trackNumber="0" src="29" channelNumber="0" >
            <Parameters>
             <InterpolatingParam id="8842" interp="linr"  time="0/1" value="1" leadInLength="0/1"  name="volume"/>
             <Parameter id="8843"  name="captions"/>
            </Parameters>
            <Attributes>
             <Attribute id="8844" value="" name="ident"/>
             <Attribute id="8845" value="48000" name="sampleRate"/>
             <Attribute id="8846" value="16" name="bitDepth"/>
             <Attribute id="8847" value="1" name="gain"/>
             <Attribute id="8848" value="0" name="mixToMono"/>
            </Attributes>
            <MetaData>
             <entry key="WinSubProjectDisplayName" val=""/>
            </MetaData>
           </AMFile>
           <AMFile id="8849" start="2803" duration="103" scalar="1/1" mediaStart="3450/1" mediaDuration="103/1" trackNumber="0" src="29" channelNumber="0" >
            <Parameters>
             <InterpolatingParam id="8850" interp="linr"  time="0/1" value="1" leadInLength="0/1"  name="volume"/>
             <Parameter id="8851"  name="captions"/>
            </Parameters>
            <Attributes>
             <Attribute id="8852" value="" name="ident"/>
             <Attribute id="8853" value="48000" name="sampleRate"/>
             <Attribute id="8854" value="16" name="bitDepth"/>
             <Attribute id="8855" value="1" name="gain"/>
             <Attribute id="8856" value="0" name="mixToMono"/>
            </Attributes>
            <MetaData>
             <entry key="WinSubProjectDisplayName" val=""/>
            </MetaData>
           </AMFile>
           <AMFile id="8857" start="2906" duration="2683" scalar="1/1" mediaStart="3564/1" mediaDuration="2683/1" trackNumber="0" src="29" channelNumber="0" >
            <Parameters>
             <InterpolatingParam id="8858" interp="linr"  time="0/1" value="1" leadInLength="0/1"  name="volume"/>
             <Parameter id="8859"  name="captions"/>
            </Parameters>
            <Attributes>
             <Attribute id="8860" value="" name="ident"/>
             <Attribute id="8861" value="48000" name="sampleRate"/>
             <Attribute id="8862" value="16" name="bitDepth"/>
             <Attribute id="8863" value="1" name="gain"/>
             <Attribute id="8864" value="0" name="mixToMono"/>
            </Attributes>
            <MetaData>
             <entry key="WinSubProjectDisplayName" val=""/>
            </MetaData>
           </AMFile>
           <AMFile id="8865" start="5589" duration="143" scalar="1/1" mediaStart="6247/1" mediaDuration="143/1" trackNumber="0" src="29" channelNumber="0" >
            <Parameters>
             <InterpolatingParam id="8866" interp="linr"  time="0/1" value="1" leadInLength="0/1"  name="volume"/>
             <Parameter id="8867"  name="captions"/>
            </Parameters>
            <Attributes>
             <Attribute id="8868" value="" name="ident"/>
             <Attribute id="8869" value="48000" name="sampleRate"/>
             <Attribute id="8870" value="16" name="bitDepth"/>
             <Attribute id="8871" value="1" name="gain"/>
             <Attribute id="8872" value="0" name="mixToMono"/>
            </Attributes>
            <MetaData>
             <entry key="WinSubProjectDisplayName" val=""/>
            </MetaData>
           </AMFile>
           <AMFile id="8873" start="5732" duration="285" scalar="1/1" mediaStart="6413/1" mediaDuration="285/1" trackNumber="0" src="29" channelNumber="0" >
            <Parameters>
             <InterpolatingParam id="8874" interp="linr"  time="0/1" value="1" leadInLength="0/1"  name="volume"/>
             <Parameter id="8875"  name="captions"/>
            </Parameters>
            <Attributes>
             <Attribute id="8876" value="" name="ident"/>
             <Attribute id="8877" value="48000" name="sampleRate"/>
             <Attribute id="8878" value="16" name="bitDepth"/>
             <Attribute id="8879" value="1" name="gain"/>
             <Attribute id="8880" value="0" name="mixToMono"/>
            </Attributes>
            <MetaData>
             <entry key="WinSubProjectDisplayName" val=""/>
            </MetaData>
           </AMFile>
           <AMFile id="8881" start="6017" duration="102" scalar="1/1" mediaStart="6729/1" mediaDuration="102/1" trackNumber="0" src="29" channelNumber="0" >
            <Parameters>
             <InterpolatingParam id="8882" interp="linr"  time="0/1" value="1" leadInLength="0/1"  name="volume"/>
             <Parameter id="8883"  name="captions"/>
            </Parameters>
            <Attributes>
             <Attribute id="8884" value="" name="ident"/>
             <Attribute id="8885" value="48000" name="sampleRate"/>
             <Attribute id="8886" value="16" name="bitDepth"/>
             <Attribute id="8887" value="1" name="gain"/>
             <Attribute id="8888" value="0" name="mixToMono"/>
            </Attributes>
            <MetaData>
             <entry key="WinSubProjectDisplayName" val=""/>
            </MetaData>
           </AMFile>
           <AMFile id="8889" start="6119" duration="234" scalar="1/1" mediaStart="6848/1" mediaDuration="234/1" trackNumber="0" src="29" channelNumber="0" >
            <Parameters>
             <InterpolatingParam id="8890" interp="linr"  time="0/1" value="1" leadInLength="0/1"  name="volume"/>
             <Parameter id="8891"  name="captions"/>
            </Parameters>
            <Attributes>
             <Attribute id="8892" value="" name="ident"/>
             <Attribute id="8893" value="48000" name="sampleRate"/>
             <Attribute id="8894" value="16" name="bitDepth"/>
             <Attribute id="8895" value="1" name="gain"/>
             <Attribute id="8896" value="0" name="mixToMono"/>
            </Attributes>
            <MetaData>
             <entry key="WinSubProjectDisplayName" val=""/>
            </MetaData>
           </AMFile>
           <AMFile id="8897" start="6353" duration="107" scalar="1/1" mediaStart="7089/1" mediaDuration="107/1" trackNumber="0" src="29" channelNumber="0" >
            <Parameters>
             <InterpolatingParam id="8898" interp="linr"  time="0/1" value="1" leadInLength="0/1"  name="volume"/>
             <Parameter id="8899"  name="captions"/>
            </Parameters>
            <Attributes>
             <Attribute id="8900" value="" name="ident"/>
             <Attribute id="8901" value="48000" name="sampleRate"/>
             <Attribute id="8902" value="16" name="bitDepth"/>
             <Attribute id="8903" value="1" name="gain"/>
             <Attribute id="8904" value="0" name="mixToMono"/>
            </Attributes>
            <MetaData>
             <entry key="WinSubProjectDisplayName" val=""/>
            </MetaData>
           </AMFile>
           <AMFile id="8905" start="6460" duration="67" scalar="1/1" mediaStart="7207/1" mediaDuration="67/1" trackNumber="0" src="29" channelNumber="0" >
            <Parameters>
             <InterpolatingParam id="8906" interp="linr"  time="0/1" value="1" leadInLength="0/1"  name="volume"/>
             <Parameter id="8907"  name="captions"/>
            </Parameters>
            <Attributes>
             <Attribute id="8908" value="" name="ident"/>
             <Attribute id="8909" value="48000" name="sampleRate"/>
             <Attribute id="8910" value="16" name="bitDepth"/>
             <Attribute id="8911" value="1" name="gain"/>
             <Attribute id="8912" value="0" name="mixToMono"/>
            </Attributes>
            <MetaData>
             <entry key="WinSubProjectDisplayName" val=""/>
            </MetaData>
           </AMFile>
           <AMFile id="8913" start="6527" duration="226" scalar="1/1" mediaStart="7297/1" mediaDuration="226/1" trackNumber="0" src="29" channelNumber="0" >
            <Parameters>
             <InterpolatingParam id="8914" interp="linr"  time="0/1" value="1" leadInLength="0/1"  name="volume"/>
             <Parameter id="8915"  name="captions"/>
            </Parameters>
            <Attributes>
             <Attribute id="8916" value="" name="ident"/>
             <Attribute id="8917" value="48000" name="sampleRate"/>
             <Attribute id="8918" value="16" name="bitDepth"/>
             <Attribute id="8919" value="1" name="gain"/>
             <Attribute id="8920" value="0" name="mixToMono"/>
            </Attributes>
            <MetaData>
             <entry key="WinSubProjectDisplayName" val=""/>
            </MetaData>
           </AMFile>
           <AMFile id="8921" start="6753" duration="117" scalar="1/1" mediaStart="7540/1" mediaDuration="117/1" trackNumber="0" src="29" channelNumber="0" >
            <Parameters>
             <InterpolatingParam id="8922" interp="linr"  time="0/1" value="1" leadInLength="0/1"  name="volume"/>
             <Parameter id="8923"  name="captions"/>
            </Parameters>
            <Attributes>
             <Attribute id="8924" value="" name="ident"/>
             <Attribute id="8925" value="48000" name="sampleRate"/>
             <Attribute id="8926" value="16" name="bitDepth"/>
             <Attribute id="8927" value="1" name="gain"/>
             <Attribute id="8928" value="0" name="mixToMono"/>
            </Attributes>
            <MetaData>
             <entry key="WinSubProjectDisplayName" val=""/>
            </MetaData>
           </AMFile>
           <AMFile id="8929" start="6870" duration="52" scalar="1/1" mediaStart="7796/1" mediaDuration="52/1" trackNumber="0" src="29" channelNumber="0" >
            <Parameters>
             <InterpolatingParam id="8930" interp="linr"  time="0/1" value="1" leadInLength="0/1"  name="volume"/>
             <Parameter id="8931"  name="captions"/>
            </Parameters>
            <Attributes>
             <Attribute id="8932" value="" name="ident"/>
             <Attribute id="8933" value="48000" name="sampleRate"/>
             <Attribute id="8934" value="16" name="bitDepth"/>
             <Attribute id="8935" value="1" name="gain"/>
             <Attribute id="8936" value="0" name="mixToMono"/>
            </Attributes>
            <MetaData>
             <entry key="WinSubProjectDisplayName" val=""/>
            </MetaData>
           </AMFile>
           <AMFile id="8937" start="6922" duration="100" scalar="1/1" mediaStart="8187/1" mediaDuration="100/1" trackNumber="0" src="29" channelNumber="0" >
            <Parameters>
             <InterpolatingParam id="8938" interp="linr"  time="0/1" value="1" leadInLength="0/1"  name="volume"/>
             <Parameter id="8939"  name="captions"/>
            </Parameters>
            <Attributes>
             <Attribute id="8940" value="" name="ident"/>
             <Attribute id="8941" value="48000" name="sampleRate"/>
             <Attribute id="8942" value="16" name="bitDepth"/>
             <Attribute id="8943" value="1" name="gain"/>
             <Attribute id="8944" value="0" name="mixToMono"/>
            </Attributes>
            <MetaData>
             <entry key="WinSubProjectDisplayName" val=""/>
            </MetaData>
           </AMFile>
           <AMFile id="8945" start="7022" duration="1377" scalar="1/1" mediaStart="8303/1" mediaDuration="1377/1" trackNumber="0" src="29" channelNumber="0" >
            <Parameters>
             <InterpolatingParam id="8946" interp="linr"  time="0/1" value="1" leadInLength="0/1"  name="volume"/>
             <Parameter id="8947"  name="captions"/>
            </Parameters>
            <Attributes>
             <Attribute id="8948" value="" name="ident"/>
             <Attribute id="8949" value="48000" name="sampleRate"/>
             <Attribute id="8950" value="16" name="bitDepth"/>
             <Attribute id="8951" value="1" name="gain"/>
             <Attribute id="8952" value="0" name="mixToMono"/>
            </Attributes>
            <MetaData>
             <entry key="WinSubProjectDisplayName" val=""/>
            </MetaData>
           </AMFile>
           <AMFile id="8953" start="8399" duration="3717" scalar="1/1" mediaStart="9929/1" mediaDuration="3717/1" trackNumber="0" src="29" channelNumber="0" >
            <Parameters>
             <InterpolatingParam id="8954" interp="linr"  time="0/1" value="1" leadInLength="0/1"  name="volume"/>
             <Parameter id="8955"  name="captions"/>
            </Parameters>
            <Attributes>
             <Attribute id="8956" value="" name="ident"/>
             <Attribute id="8957" value="48000" name="sampleRate"/>
             <Attribute id="8958" value="16" name="bitDepth"/>
             <Attribute id="8959" value="1" name="gain"/>
             <Attribute id="8960" value="0" name="mixToMono"/>
            </Attributes>
            <MetaData>
             <entry key="WinSubProjectDisplayName" val=""/>
            </MetaData>
           </AMFile>
          </Medias>
         </GenericTrack>
        </StitchedMedia>
        <StitchedMedia id="8961" start="6953" duration="398" scalar="1/1" mediaStart="8266/1" mediaDuration="398/1" minMediaStart="0/1" >
         <Transformer>
          <VectorParam id="8962"  name="translation">
           <InterpolatingParam id="8963" interp="linr"  time="0/1" value="0" leadInLength="0/1"  />
           <InterpolatingParam id="8964" interp="linr"  time="0/1" value="0" leadInLength="0/1"  />
           <InterpolatingParam id="8965" interp="linr"  time="0/1" value="0" leadInLength="0/1"  />
          </VectorParam>
          <VectorParam id="8966"  name="rotation">
           <InterpolatingParam id="8967" interp="linr"  time="0/1" value="0" leadInLength="0/1"  />
           <InterpolatingParam id="8968" interp="linr"  time="0/1" value="0" leadInLength="0/1"  />
           <InterpolatingParam id="8969" interp="linr"  time="0/1" value="0" leadInLength="0/1"  />
          </VectorParam>
          <VectorParam id="8970"  name="shear">
           <InterpolatingParam id="8971" interp="linr"  time="0/1" value="0" leadInLength="0/1"  />
           <InterpolatingParam id="8972" interp="linr"  time="0/1" value="0" leadInLength="0/1"  />
           <InterpolatingParam id="8973" interp="linr"  time="0/1" value="0" leadInLength="0/1"  />
          </VectorParam>
          <VectorParam id="8974"  name="scale">
           <InterpolatingParam id="8975" interp="linr"  time="0/1" value="1" leadInLength="0/1"  />
           <InterpolatingParam id="8976" interp="linr"  time="0/1" value="1" leadInLength="0/1"  />
           <InterpolatingParam id="8977" interp="linr"  time="0/1" value="1" leadInLength="0/1"  />
          </VectorParam>
          <VectorParam id="8978"  name="anchor">
           <InterpolatingParam id="8979" interp="linr"  time="0/1" value="0" leadInLength="0/1"  />
           <InterpolatingParam id="8980" interp="linr"  time="0/1" value="0" leadInLength="0/1"  />
           <InterpolatingParam id="8981" interp="linr"  time="0/1" value="0" leadInLength="0/1"  />
          </VectorParam>
         </Transformer>
         <Parameters>
          <InterpolatingParam id="8982" interp="linr"  time="0/1" value="1" leadInLength="0/1"  name="cursorOpacity"/>
          <InterpolatingParam id="8983" interp="linr"  time="0/1" value="1" leadInLength="0/1"  name="cursorScale"/>
          <InterpolatingParam id="8984" interp="linr"  time="0/1" value="1.5625" leadInLength="0/1"  name="volume"/>
          <Parameter id="8985"  name="captions"/>
         </Parameters>
         <Effects>
          <GenericEffect id="8986" name = "WinCompression" >
           <Parameters>
           <InterpolatingParam id="8987" interp="linr"  time="0/1" value="0" leadInLength="0/1"   name="attack"/>
           <InterpolatingParam id="8988" interp="linr"  time="0/1" value="9" leadInLength="0/1"   name="gain"/>
           <Parameter id="8989"   name="preset">
            <Keyframes>
            <Keyframe id="8990"  time="0/1" value="1" leadInLength="0/1"  />
            </Keyframes>
           </Parameter>
           <InterpolatingParam id="8991" interp="linr"  time="0/1" value="10" leadInLength="0/1"   name="ratio"/>
           <InterpolatingParam id="8992" interp="linr"  time="0/1" value="3500" leadInLength="0/1"   name="release"/>
           <InterpolatingParam id="8993" interp="linr"  time="0/1" value="-20" leadInLength="0/1"   name="threshold"/>
           </Parameters>
          </GenericEffect>
          <GenericEffect id="8994" name = "NoiseReduction" >
           <Parameters>
           <InterpolatingParam id="8995" interp="linr"  time="0/1" value="20" leadInLength="0/1"   name="denoiserAmount"/>
           <InterpolatingParam id="8996" interp="linr"  time="0/1" value="0" leadInLength="0/1"   name="denoiserThreshold"/>
           <Parameter id="8997"   name="noiseProfile">
            <Keyframes>
            <Keyframe id="8998"  time="0/1" value="FBAAAAIAAABErAAAAQIAAIA/l8JLuYTCrOB9wgsMfMJoG4LCaWeFwkohjMJdoYvCYv6LwlnvjcKf&#xD;&#xa;nYzChXWPwlcejsL6fo/C5OmQwgVTj8IVMI/COiWRwoWFkcJ2tYzC8I6MwuQbjcJvEo/ClwGRwheQ&#xD;&#xa;lsK8+pbCN5qVwlielcJ905rCmu+fwst0ncIC/JvCdIWdws3snsKxC5zCfh2cwniFnMJRypzCtRag&#xD;&#xa;wuoCosJQt6DCzoegwhY9ocIWN6PCsNqkwrSlpMJ6maTCYpCkwmLvo8Li+KPCyEamwnBNqMLMcqrC&#xD;&#xa;v2GswoS+q8Kk86vCVACuwnvUr8JxZa/CqHqswrdXq8LqT6zCZsuswhZxrMLBX67CnmqvwpYyrsKc&#xD;&#xa;pq3CJFGvwghrsMK3y6/CXoCtwmWZr8ICi7DCgRezwogSs8Joq7LCm0Sxwuz/scIfibTCOOK1wlIM&#xD;&#xa;t8K87LfCj3K3wqDYs8KT1bLCVsW0wnZ0tcJGhLXCfPe0ws/ntcLGXrbCzAG1wtXdtcKxxrTC1Ay1&#xD;&#xa;wquGtcLjELbC8Zi2wl7rtsJBYbbCMF+1wrEutMKuibTCSFa1wpvktMIu3rTCtGe4wjaduMIKErfC&#xD;&#xa;SLa1wvS/tsJmZrjCdn63whjft8Ie47rCfdi5wmjpt8KKCLjCXmC5wsOQt8JDGbfCK4m4wmpvuMLL&#xD;&#xa;nLjC80q4wjUVusKunLjC1Be5wg4cuMLxCbjCwfW4wmi7ucIOdbvCbLG6whqdusKYErrCbpC4wmq0&#xD;&#xa;ucIoWrvCaNe6ws4iu8LSc7zCUNa7wuJZvMIwLL3CWe28wps2v8J2l77Cv3W+wvgavsKAwrzCQCy8&#xD;&#xa;wgBRu8Km8brChSa6wuM4u8IaaL3Cf5y9wg4hvMLur7vCIpO9wm0fvcIGNLzC7Le8wvKgvMKQrLzC&#xD;&#xa;p6+9wtYtvsJcxbzCQC29wjDqvcKeNbzCH2W8wpbZvsLCTL7CnjO+wuIsvsJs67vCwLq9wiKhvsLs&#xD;&#xa;o73C5Du9wqqhvcLwKr7C2kq/wqEMv8LVCb7Cpla+wsXpvMIs6bvC/fO8wueCvsIM4b3CxtC+wmTo&#xD;&#xa;vcI+arzCTNe8wiFNv8IvKL/Cpg+/woK1v8L4i7/CNv2+wmsVv8KWj77CVym+wnAlv8Joa8DCFDzA&#xD;&#xa;wiQYwcLSIcHCxILAwuxKvsJYm77CPoHAwiYPwcLuy77CcQa+wrB4vcKwYLzCxKW8worIvcIlzr/C&#xD;&#xa;OMC+wuRDvcJGZ7zCxFi9wuQzvMLPbbvCwIe+wm7bvcLm9L3COH6+wuuJvMK2B73CYb+9wqbxvMK/&#xD;&#xa;mL7CqIe9wvCavMKs7L3Ckau8wkpavMKt9LzCF8S+wmgKvsKCy73ClrG+wmIovcIns73Cmg+/wgw7&#xD;&#xa;wMI607/CpEq/wmwVvcJLsLvCMD68wuxdvcIeI7/C+bS+wpxfvsJyxsDC1tO/wmtrv8LNnb/CQiK+&#xD;&#xa;wlz7vcLa6L/CUMXBwtrQwcIAw8HCNJHBwvphwMKqc7/CSkW/wjkvwMK8ccHCHmDBwlKAwcKu+MDC&#xD;&#xa;zErCwuqgwsLa+MLC753DwmjuxcLEWMfCkePFwo47xsKnX8XC7tTCwuf3wsL+HcLCTcTBwmg6w8Is&#xD;&#xa;RMPC+qjDwiyGxMLi58TCnWvFwpjsxsKzCMbCyCTDwpM2wcJWGMPCvuDFwh42xsIfyMTCeLTFwuH7&#xD;&#xa;xMJctcfCVv3HwpTGx8J8b8jCqhjHwrgkx8LXNsfCZkLGwnxSxcL8csXCbu7FwsaQyMLa68fCo0XH&#xD;&#xa;woruxMJGHsbCORbJwry2yMLIUsfCxlfGwmLoxcLSPMnCYPDJwkw3yMKc7crC8vDLwug2y8Lu28vC&#xD;&#xa;OKvMwvLpysKGj8rCtNXLwrMay8KdGMrCUr3JwgIVy8J64MvCkbTJwjh4x8JGI8bCvBXHwnoPycKN&#xD;&#xa;Ss3CuC/Nwuywy8IkJ8zCx9/KwnB5ycKnk8nCenLJwnN6ycKc+sjCLFzJwuTrzMJkJM/CY5vOwoYO&#xD;&#xa;zsLU987CVKfNwiZZzcJQxNDCICHVwi0d18Kc29jCIF/YwtKo2MKeBNvCwpTawmY/2sJXPdvCZZXY&#xD;&#xa;whB818IQNdjCDF3XwtWC1sIGF9fCfFfXwkBy2MJ6+9nC1hfZwi5k2cJlfNjCnEPYwm/N1cKGOdXC&#xD;&#xa;Yk/XwgXL2MJSytfCgpTWwqTT1sJOGtnCrF/ZwtcT2cK08NjCscHZwpQ72sLJ/NrCy3zYwmCk18LE&#xD;&#xa;O9fC6hbYwtYU2cJN/dnC1EbZwrw/2cIqyNbCDr7Xwvb02cLQ+dnCaJvXwuYO18KSodnC1NnawtJJ&#xD;&#xa;18ISLtjC90nawoel2cIwl9jCi0XZwih328Ks7NjC5KzZwqui2cJw0tjCukLYws+O2MJaqtrCUuXa&#xD;&#xa;wviX2MIKxtfCnqXXwhjI2MJwAtvCIFvcwgCL2cJ0/djCdyXawh9H2cJ+ntfCy4TXwhqF2MJ68NnC&#xD;&#xa;CzvYwljT2cIkP9vCIs/bwjpB2sK2A9rCXt/awjZH2sIfltvCKWPcwjp53MKrGd3CaBPewj/03MJm&#xD;&#xa;U97CphfgwlJp3cKQpt3Crxjewm7d28Kq/9vCNNXcwqY728IUH9vCkirbwgIt28KK19zCjmzdwoBH&#xD;&#xa;3MIAUtvCUq3bwo8f28Ig09jCiyfZwhbx2sLWe9zCvgzbwmwI2sI2nNvC0lvdwg6128I8PNvCLufa&#xD;&#xa;wkyK28KkitzCJIDcwmAO28L0TNrCDHXawjla28IQkdzCoCDcwjRI3MJVUdvCtujZwnCs2sK8Yd3C&#xD;&#xa;iGbbwuSB2cImFNvCCI7rwoA/l8JLuYTCrOB9wgsMfMJoG4LCaWeFwkohjMJdoYvCYv6LwlnvjcKf&#xD;&#xa;nYzChXWPwlcejsL6fo/C5OmQwgVTj8IVMI/COiWRwoWFkcJ2tYzC8I6MwuQbjcJvEo/ClwGRwheQ&#xD;&#xa;lsK8+pbCN5qVwlielcJ905rCmu+fwst0ncIC/JvCdIWdws3snsKxC5zCfh2cwniFnMJRypzCtRag&#xD;&#xa;wuoCosJQt6DCzoegwhY9ocIWN6PCsNqkwrSlpMJ6maTCYpCkwmLvo8Li+KPCyEamwnBNqMLMcqrC&#xD;&#xa;v2GswoS+q8Kk86vCVACuwnvUr8JxZa/CqHqswrdXq8LqT6zCZsuswhZxrMLBX67CnmqvwpYyrsKc&#xD;&#xa;pq3CJFGvwghrsMK3y6/CXoCtwmWZr8ICi7DCgRezwogSs8Joq7LCm0Sxwuz/scIfibTCOOK1wlIM&#xD;&#xa;t8K87LfCj3K3wqDYs8KT1bLCVsW0wnZ0tcJGhLXCfPe0ws/ntcLGXrbCzAG1wtXdtcKxxrTC1Ay1&#xD;&#xa;wquGtcLjELbC8Zi2wl7rtsJBYbbCMF+1wrEutMKuibTCSFa1wpvktMIu3rTCtGe4wjaduMIKErfC&#xD;&#xa;SLa1wvS/tsJmZrjCdn63whjft8Ie47rCfdi5wmjpt8KKCLjCXmC5wsOQt8JDGbfCK4m4wmpvuMLL&#xD;&#xa;nLjC80q4wjUVusKunLjC1Be5wg4cuMLxCbjCwfW4wmi7ucIOdbvCbLG6whqdusKYErrCbpC4wmq0&#xD;&#xa;ucIoWrvCaNe6ws4iu8LSc7zCUNa7wuJZvMIwLL3CWe28wps2v8J2l77Cv3W+wvgavsKAwrzCQCy8&#xD;&#xa;wgBRu8Km8brChSa6wuM4u8IaaL3Cf5y9wg4hvMLur7vCIpO9wm0fvcIGNLzC7Le8wvKgvMKQrLzC&#xD;&#xa;p6+9wtYtvsJcxbzCQC29wjDqvcKeNbzCH2W8wpbZvsLCTL7CnjO+wuIsvsJs67vCwLq9wiKhvsLs&#xD;&#xa;o73C5Du9wqqhvcLwKr7C2kq/wqEMv8LVCb7Cpla+wsXpvMIs6bvC/fO8wueCvsIM4b3CxtC+wmTo&#xD;&#xa;vcI+arzCTNe8wiFNv8IvKL/Cpg+/woK1v8L4i7/CNv2+wmsVv8KWj77CVym+wnAlv8Joa8DCFDzA&#xD;&#xa;wiQYwcLSIcHCxILAwuxKvsJYm77CPoHAwiYPwcLuy77CcQa+wrB4vcKwYLzCxKW8worIvcIlzr/C&#xD;&#xa;OMC+wuRDvcJGZ7zCxFi9wuQzvMLPbbvCwIe+wm7bvcLm9L3COH6+wuuJvMK2B73CYb+9wqbxvMK/&#xD;&#xa;mL7CqIe9wvCavMKs7L3Ckau8wkpavMKt9LzCF8S+wmgKvsKCy73ClrG+wmIovcIns73Cmg+/wgw7&#xD;&#xa;wMI607/CpEq/wmwVvcJLsLvCMD68wuxdvcIeI7/C+bS+wpxfvsJyxsDC1tO/wmtrv8LNnb/CQiK+&#xD;&#xa;wlz7vcLa6L/CUMXBwtrQwcIAw8HCNJHBwvphwMKqc7/CSkW/wjkvwMK8ccHCHmDBwlKAwcKu+MDC&#xD;&#xa;zErCwuqgwsLa+MLC753DwmjuxcLEWMfCkePFwo47xsKnX8XC7tTCwuf3wsL+HcLCTcTBwmg6w8Is&#xD;&#xa;RMPC+qjDwiyGxMLi58TCnWvFwpjsxsKzCMbCyCTDwpM2wcJWGMPCvuDFwh42xsIfyMTCeLTFwuH7&#xD;&#xa;xMJctcfCVv3HwpTGx8J8b8jCqhjHwrgkx8LXNsfCZkLGwnxSxcL8csXCbu7FwsaQyMLa68fCo0XH&#xD;&#xa;woruxMJGHsbCORbJwry2yMLIUsfCxlfGwmLoxcLSPMnCYPDJwkw3yMKc7crC8vDLwug2y8Lu28vC&#xD;&#xa;OKvMwvLpysKGj8rCtNXLwrMay8KdGMrCUr3JwgIVy8J64MvCkbTJwjh4x8JGI8bCvBXHwnoPycKN&#xD;&#xa;Ss3CuC/Nwuywy8IkJ8zCx9/KwnB5ycKnk8nCenLJwnN6ycKc+sjCLFzJwuTrzMJkJM/CY5vOwoYO&#xD;&#xa;zsLU987CVKfNwiZZzcJQxNDCICHVwi0d18Kc29jCIF/YwtKo2MKeBNvCwpTawmY/2sJXPdvCZZXY&#xD;&#xa;whB818IQNdjCDF3XwtWC1sIGF9fCfFfXwkBy2MJ6+9nC1hfZwi5k2cJlfNjCnEPYwm/N1cKGOdXC&#xD;&#xa;Yk/XwgXL2MJSytfCgpTWwqTT1sJOGtnCrF/ZwtcT2cK08NjCscHZwpQ72sLJ/NrCy3zYwmCk18LE&#xD;&#xa;O9fC6hbYwtYU2cJN/dnC1EbZwrw/2cIqyNbCDr7Xwvb02cLQ+dnCaJvXwuYO18KSodnC1NnawtJJ&#xD;&#xa;18ISLtjC90nawoel2cIwl9jCi0XZwih328Ks7NjC5KzZwqui2cJw0tjCukLYws+O2MJaqtrCUuXa&#xD;&#xa;wviX2MIKxtfCnqXXwhjI2MJwAtvCIFvcwgCL2cJ0/djCdyXawh9H2cJ+ntfCy4TXwhqF2MJ68NnC&#xD;&#xa;CzvYwljT2cIkP9vCIs/bwjpB2sK2A9rCXt/awjZH2sIfltvCKWPcwjp53MKrGd3CaBPewj/03MJm&#xD;&#xa;U97CphfgwlJp3cKQpt3Crxjewm7d28Kq/9vCNNXcwqY728IUH9vCkirbwgIt28KK19zCjmzdwoBH&#xD;&#xa;3MIAUtvCUq3bwo8f28Ig09jCiyfZwhbx2sLWe9zCvgzbwmwI2sI2nNvC0lvdwg6128I8PNvCLufa&#xD;&#xa;wkyK28KkitzCJIDcwmAO28L0TNrCDHXawjla28IQkdzCoCDcwjRI3MJVUdvCtujZwnCs2sK8Yd3C&#xD;&#xa;iGbbwuSB2cImFNvCCI7r" leadInLength="0/1"  />
            </Keyframes>
           </Parameter>
           </Parameters>
          </GenericEffect>
          <GenericEffect id="8999" name = "Declipper" >
           <Parameters>
           <InterpolatingParam id="9000" interp="linr"  time="0/1" value="-1" leadInLength="0/1"   name="sensitivity"/>
           </Parameters>
          </GenericEffect>
          <GenericEffect id="9001" name = "Declicker" >
           <Parameters>
           <InterpolatingParam id="9002" interp="linr"  time="0/1" value="3" leadInLength="0/1"   name="sensitivity"/>
           </Parameters>
          </GenericEffect>
         </Effects>
         <Attributes>
          <Attribute id="9003" value="" name="ident"/>
          <Attribute id="9004" value="0" name="mixToMono"/>
         </Attributes>
         <MetaData>
          <entry key="WinSubProjectDisplayName" val=""/>
         </MetaData>
         <ExtraData>
          <Entry key="ZoomPanBin">
           <ZoomPanBin id="9005"  >
            <ZoomPanKeyframes>
            </ZoomPanKeyframes>
           </ZoomPanBin>
          </Entry>
          <Entry key="CursorEffectBin">
           <CursorEffectBin id="9006"  >
            <CursorEffectKeyframes>
            </CursorEffectKeyframes>
           </CursorEffectBin>
          </Entry>
         </ExtraData>
         <GenericTrack id="9007"  >
          <Attributes>
           <Attribute id="9008" value="" name="ident"/>
           <Attribute id="9009" value="0" name="audioMuted"/>
           <Attribute id="9010" value="0" name="videoHidden"/>
          </Attributes>
          <MetaData>
           <entry key="IsLocked" val="False"/>
           <entry key="WinTrackHeight" val="0"/>
          </MetaData>
          <Medias>
           <AMFile id="9011" start="0" duration="117" scalar="1/1" mediaStart="0/1" mediaDuration="117/1" trackNumber="0" src="29" channelNumber="0" >
            <Parameters>
             <InterpolatingParam id="9012" interp="linr"  time="0/1" value="1" leadInLength="0/1"  name="volume"/>
             <Parameter id="9013"  name="captions"/>
            </Parameters>
            <Attributes>
             <Attribute id="9014" value="" name="ident"/>
             <Attribute id="9015" value="48000" name="sampleRate"/>
             <Attribute id="9016" value="16" name="bitDepth"/>
             <Attribute id="9017" value="1" name="gain"/>
             <Attribute id="9018" value="0" name="mixToMono"/>
            </Attributes>
            <MetaData>
             <entry key="WinSubProjectDisplayName" val=""/>
            </MetaData>
           </AMFile>
           <AMFile id="9019" start="117" duration="272" scalar="1/1" mediaStart="131/1" mediaDuration="272/1" trackNumber="0" src="29" channelNumber="0" >
            <Parameters>
             <InterpolatingParam id="9020" interp="linr"  time="0/1" value="1" leadInLength="0/1"  name="volume"/>
             <Parameter id="9021"  name="captions"/>
            </Parameters>
            <Attributes>
             <Attribute id="9022" value="" name="ident"/>
             <Attribute id="9023" value="48000" name="sampleRate"/>
             <Attribute id="9024" value="16" name="bitDepth"/>
             <Attribute id="9025" value="1" name="gain"/>
             <Attribute id="9026" value="0" name="mixToMono"/>
            </Attributes>
            <MetaData>
             <entry key="WinSubProjectDisplayName" val=""/>
            </MetaData>
           </AMFile>
           <AMFile id="9027" start="389" duration="1309" scalar="1/1" mediaStart="415/1" mediaDuration="1309/1" trackNumber="0" src="29" channelNumber="0" >
            <Parameters>
             <InterpolatingParam id="9028" interp="linr"  time="0/1" value="1" leadInLength="0/1"  name="volume"/>
             <Parameter id="9029"  name="captions"/>
            </Parameters>
            <Attributes>
             <Attribute id="9030" value="" name="ident"/>
             <Attribute id="9031" value="48000" name="sampleRate"/>
             <Attribute id="9032" value="16" name="bitDepth"/>
             <Attribute id="9033" value="1" name="gain"/>
             <Attribute id="9034" value="0" name="mixToMono"/>
            </Attributes>
            <MetaData>
             <entry key="WinSubProjectDisplayName" val=""/>
            </MetaData>
           </AMFile>
           <AMFile id="9035" start="1698" duration="103" scalar="1/1" mediaStart="1734/1" mediaDuration="103/1" trackNumber="0" src="29" channelNumber="0" >
            <Parameters>
             <InterpolatingParam id="9036" interp="linr"  time="0/1" value="1" leadInLength="0/1"  name="volume"/>
             <Parameter id="9037"  name="captions"/>
            </Parameters>
            <Attributes>
             <Attribute id="9038" value="" name="ident"/>
             <Attribute id="9039" value="48000" name="sampleRate"/>
             <Attribute id="9040" value="16" name="bitDepth"/>
             <Attribute id="9041" value="1" name="gain"/>
             <Attribute id="9042" value="0" name="mixToMono"/>
            </Attributes>
            <MetaData>
             <entry key="WinSubProjectDisplayName" val=""/>
            </MetaData>
           </AMFile>
           <AMFile id="9043" start="1801" duration="245" scalar="1/1" mediaStart="2164/1" mediaDuration="245/1" trackNumber="0" src="29" channelNumber="0" >
            <Parameters>
             <InterpolatingParam id="9044" interp="linr"  time="0/1" value="1" leadInLength="0/1"  name="volume"/>
             <Parameter id="9045"  name="captions"/>
            </Parameters>
            <Attributes>
             <Attribute id="9046" value="" name="ident"/>
             <Attribute id="9047" value="48000" name="sampleRate"/>
             <Attribute id="9048" value="16" name="bitDepth"/>
             <Attribute id="9049" value="1" name="gain"/>
             <Attribute id="9050" value="0" name="mixToMono"/>
            </Attributes>
            <MetaData>
             <entry key="WinSubProjectDisplayName" val=""/>
            </MetaData>
           </AMFile>
           <AMFile id="9051" start="2046" duration="202" scalar="1/1" mediaStart="2637/1" mediaDuration="202/1" trackNumber="0" src="29" channelNumber="0" >
            <Parameters>
             <InterpolatingParam id="9052" interp="linr"  time="0/1" value="1" leadInLength="0/1"  name="volume"/>
             <Parameter id="9053"  name="captions"/>
            </Parameters>
            <Attributes>
             <Attribute id="9054" value="" name="ident"/>
             <Attribute id="9055" value="48000" name="sampleRate"/>
             <Attribute id="9056" value="16" name="bitDepth"/>
             <Attribute id="9057" value="1" name="gain"/>
             <Attribute id="9058" value="0" name="mixToMono"/>
            </Attributes>
            <MetaData>
             <entry key="WinSubProjectDisplayName" val=""/>
            </MetaData>
           </AMFile>
           <AMFile id="9059" start="2248" duration="185" scalar="1/1" mediaStart="2856/1" mediaDuration="185/1" trackNumber="0" src="29" channelNumber="0" >
            <Parameters>
             <InterpolatingParam id="9060" interp="linr"  time="0/1" value="1" leadInLength="0/1"  name="volume"/>
             <Parameter id="9061"  name="captions"/>
            </Parameters>
            <Attributes>
             <Attribute id="9062" value="" name="ident"/>
             <Attribute id="9063" value="48000" name="sampleRate"/>
             <Attribute id="9064" value="16" name="bitDepth"/>
             <Attribute id="9065" value="1" name="gain"/>
             <Attribute id="9066" value="0" name="mixToMono"/>
            </Attributes>
            <MetaData>
             <entry key="WinSubProjectDisplayName" val=""/>
            </MetaData>
           </AMFile>
           <AMFile id="9067" start="2433" duration="215" scalar="1/1" mediaStart="3054/1" mediaDuration="215/1" trackNumber="0" src="29" channelNumber="0" >
            <Parameters>
             <InterpolatingParam id="9068" interp="linr"  time="0/1" value="1" leadInLength="0/1"  name="volume"/>
             <Parameter id="9069"  name="captions"/>
            </Parameters>
            <Attributes>
             <Attribute id="9070" value="" name="ident"/>
             <Attribute id="9071" value="48000" name="sampleRate"/>
             <Attribute id="9072" value="16" name="bitDepth"/>
             <Attribute id="9073" value="1" name="gain"/>
             <Attribute id="9074" value="0" name="mixToMono"/>
            </Attributes>
            <MetaData>
             <entry key="WinSubProjectDisplayName" val=""/>
            </MetaData>
           </AMFile>
           <AMFile id="9075" start="2648" duration="155" scalar="1/1" mediaStart="3288/1" mediaDuration="155/1" trackNumber="0" src="29" channelNumber="0" >
            <Parameters>
             <InterpolatingParam id="9076" interp="linr"  time="0/1" value="1" leadInLength="0/1"  name="volume"/>
             <Parameter id="9077"  name="captions"/>
            </Parameters>
            <Attributes>
             <Attribute id="9078" value="" name="ident"/>
             <Attribute id="9079" value="48000" name="sampleRate"/>
             <Attribute id="9080" value="16" name="bitDepth"/>
             <Attribute id="9081" value="1" name="gain"/>
             <Attribute id="9082" value="0" name="mixToMono"/>
            </Attributes>
            <MetaData>
             <entry key="WinSubProjectDisplayName" val=""/>
            </MetaData>
           </AMFile>
           <AMFile id="9083" start="2803" duration="103" scalar="1/1" mediaStart="3450/1" mediaDuration="103/1" trackNumber="0" src="29" channelNumber="0" >
            <Parameters>
             <InterpolatingParam id="9084" interp="linr"  time="0/1" value="1" leadInLength="0/1"  name="volume"/>
             <Parameter id="9085"  name="captions"/>
            </Parameters>
            <Attributes>
             <Attribute id="9086" value="" name="ident"/>
             <Attribute id="9087" value="48000" name="sampleRate"/>
             <Attribute id="9088" value="16" name="bitDepth"/>
             <Attribute id="9089" value="1" name="gain"/>
             <Attribute id="9090" value="0" name="mixToMono"/>
            </Attributes>
            <MetaData>
             <entry key="WinSubProjectDisplayName" val=""/>
            </MetaData>
           </AMFile>
           <AMFile id="9091" start="2906" duration="2683" scalar="1/1" mediaStart="3564/1" mediaDuration="2683/1" trackNumber="0" src="29" channelNumber="0" >
            <Parameters>
             <InterpolatingParam id="9092" interp="linr"  time="0/1" value="1" leadInLength="0/1"  name="volume"/>
             <Parameter id="9093"  name="captions"/>
            </Parameters>
            <Attributes>
             <Attribute id="9094" value="" name="ident"/>
             <Attribute id="9095" value="48000" name="sampleRate"/>
             <Attribute id="9096" value="16" name="bitDepth"/>
             <Attribute id="9097" value="1" name="gain"/>
             <Attribute id="9098" value="0" name="mixToMono"/>
            </Attributes>
            <MetaData>
             <entry key="WinSubProjectDisplayName" val=""/>
            </MetaData>
           </AMFile>
           <AMFile id="9099" start="5589" duration="143" scalar="1/1" mediaStart="6247/1" mediaDuration="143/1" trackNumber="0" src="29" channelNumber="0" >
            <Parameters>
             <InterpolatingParam id="9100" interp="linr"  time="0/1" value="1" leadInLength="0/1"  name="volume"/>
             <Parameter id="9101"  name="captions"/>
            </Parameters>
            <Attributes>
             <Attribute id="9102" value="" name="ident"/>
             <Attribute id="9103" value="48000" name="sampleRate"/>
             <Attribute id="9104" value="16" name="bitDepth"/>
             <Attribute id="9105" value="1" name="gain"/>
             <Attribute id="9106" value="0" name="mixToMono"/>
            </Attributes>
            <MetaData>
             <entry key="WinSubProjectDisplayName" val=""/>
            </MetaData>
           </AMFile>
           <AMFile id="9107" start="5732" duration="285" scalar="1/1" mediaStart="6413/1" mediaDuration="285/1" trackNumber="0" src="29" channelNumber="0" >
            <Parameters>
             <InterpolatingParam id="9108" interp="linr"  time="0/1" value="1" leadInLength="0/1"  name="volume"/>
             <Parameter id="9109"  name="captions"/>
            </Parameters>
            <Attributes>
             <Attribute id="9110" value="" name="ident"/>
             <Attribute id="9111" value="48000" name="sampleRate"/>
             <Attribute id="9112" value="16" name="bitDepth"/>
             <Attribute id="9113" value="1" name="gain"/>
             <Attribute id="9114" value="0" name="mixToMono"/>
            </Attributes>
            <MetaData>
             <entry key="WinSubProjectDisplayName" val=""/>
            </MetaData>
           </AMFile>
           <AMFile id="9115" start="6017" duration="102" scalar="1/1" mediaStart="6729/1" mediaDuration="102/1" trackNumber="0" src="29" channelNumber="0" >
            <Parameters>
             <InterpolatingParam id="9116" interp="linr"  time="0/1" value="1" leadInLength="0/1"  name="volume"/>
             <Parameter id="9117"  name="captions"/>
            </Parameters>
            <Attributes>
             <Attribute id="9118" value="" name="ident"/>
             <Attribute id="9119" value="48000" name="sampleRate"/>
             <Attribute id="9120" value="16" name="bitDepth"/>
             <Attribute id="9121" value="1" name="gain"/>
             <Attribute id="9122" value="0" name="mixToMono"/>
            </Attributes>
            <MetaData>
             <entry key="WinSubProjectDisplayName" val=""/>
            </MetaData>
           </AMFile>
           <AMFile id="9123" start="6119" duration="234" scalar="1/1" mediaStart="6848/1" mediaDuration="234/1" trackNumber="0" src="29" channelNumber="0" >
            <Parameters>
             <InterpolatingParam id="9124" interp="linr"  time="0/1" value="1" leadInLength="0/1"  name="volume"/>
             <Parameter id="9125"  name="captions"/>
            </Parameters>
            <Attributes>
             <Attribute id="9126" value="" name="ident"/>
             <Attribute id="9127" value="48000" name="sampleRate"/>
             <Attribute id="9128" value="16" name="bitDepth"/>
             <Attribute id="9129" value="1" name="gain"/>
             <Attribute id="9130" value="0" name="mixToMono"/>
            </Attributes>
            <MetaData>
             <entry key="WinSubProjectDisplayName" val=""/>
            </MetaData>
           </AMFile>
           <AMFile id="9131" start="6353" duration="107" scalar="1/1" mediaStart="7089/1" mediaDuration="107/1" trackNumber="0" src="29" channelNumber="0" >
            <Parameters>
             <InterpolatingParam id="9132" interp="linr"  time="0/1" value="1" leadInLength="0/1"  name="volume"/>
             <Parameter id="9133"  name="captions"/>
            </Parameters>
            <Attributes>
             <Attribute id="9134" value="" name="ident"/>
             <Attribute id="9135" value="48000" name="sampleRate"/>
             <Attribute id="9136" value="16" name="bitDepth"/>
             <Attribute id="9137" value="1" name="gain"/>
             <Attribute id="9138" value="0" name="mixToMono"/>
            </Attributes>
            <MetaData>
             <entry key="WinSubProjectDisplayName" val=""/>
            </MetaData>
           </AMFile>
           <AMFile id="9139" start="6460" duration="67" scalar="1/1" mediaStart="7207/1" mediaDuration="67/1" trackNumber="0" src="29" channelNumber="0" >
            <Parameters>
             <InterpolatingParam id="9140" interp="linr"  time="0/1" value="1" leadInLength="0/1"  name="volume"/>
             <Parameter id="9141"  name="captions"/>
            </Parameters>
            <Attributes>
             <Attribute id="9142" value="" name="ident"/>
             <Attribute id="9143" value="48000" name="sampleRate"/>
             <Attribute id="9144" value="16" name="bitDepth"/>
             <Attribute id="9145" value="1" name="gain"/>
             <Attribute id="9146" value="0" name="mixToMono"/>
            </Attributes>
            <MetaData>
             <entry key="WinSubProjectDisplayName" val=""/>
            </MetaData>
           </AMFile>
           <AMFile id="9147" start="6527" duration="226" scalar="1/1" mediaStart="7297/1" mediaDuration="226/1" trackNumber="0" src="29" channelNumber="0" >
            <Parameters>
             <InterpolatingParam id="9148" interp="linr"  time="0/1" value="1" leadInLength="0/1"  name="volume"/>
             <Parameter id="9149"  name="captions"/>
            </Parameters>
            <Attributes>
             <Attribute id="9150" value="" name="ident"/>
             <Attribute id="9151" value="48000" name="sampleRate"/>
             <Attribute id="9152" value="16" name="bitDepth"/>
             <Attribute id="9153" value="1" name="gain"/>
             <Attribute id="9154" value="0" name="mixToMono"/>
            </Attributes>
            <MetaData>
             <entry key="WinSubProjectDisplayName" val=""/>
            </MetaData>
           </AMFile>
           <AMFile id="9155" start="6753" duration="117" scalar="1/1" mediaStart="7540/1" mediaDuration="117/1" trackNumber="0" src="29" channelNumber="0" >
            <Parameters>
             <InterpolatingParam id="9156" interp="linr"  time="0/1" value="1" leadInLength="0/1"  name="volume"/>
             <Parameter id="9157"  name="captions"/>
            </Parameters>
            <Attributes>
             <Attribute id="9158" value="" name="ident"/>
             <Attribute id="9159" value="48000" name="sampleRate"/>
             <Attribute id="9160" value="16" name="bitDepth"/>
             <Attribute id="9161" value="1" name="gain"/>
             <Attribute id="9162" value="0" name="mixToMono"/>
            </Attributes>
            <MetaData>
             <entry key="WinSubProjectDisplayName" val=""/>
            </MetaData>
           </AMFile>
           <AMFile id="9163" start="6870" duration="52" scalar="1/1" mediaStart="7796/1" mediaDuration="52/1" trackNumber="0" src="29" channelNumber="0" >
            <Parameters>
             <InterpolatingParam id="9164" interp="linr"  time="0/1" value="1" leadInLength="0/1"  name="volume"/>
             <Parameter id="9165"  name="captions"/>
            </Parameters>
            <Attributes>
             <Attribute id="9166" value="" name="ident"/>
             <Attribute id="9167" value="48000" name="sampleRate"/>
             <Attribute id="9168" value="16" name="bitDepth"/>
             <Attribute id="9169" value="1" name="gain"/>
             <Attribute id="9170" value="0" name="mixToMono"/>
            </Attributes>
            <MetaData>
             <entry key="WinSubProjectDisplayName" val=""/>
            </MetaData>
           </AMFile>
           <AMFile id="9171" start="6922" duration="100" scalar="1/1" mediaStart="8187/1" mediaDuration="100/1" trackNumber="0" src="29" channelNumber="0" >
            <Parameters>
             <InterpolatingParam id="9172" interp="linr"  time="0/1" value="1" leadInLength="0/1"  name="volume"/>
             <Parameter id="9173"  name="captions"/>
            </Parameters>
            <Attributes>
             <Attribute id="9174" value="" name="ident"/>
             <Attribute id="9175" value="48000" name="sampleRate"/>
             <Attribute id="9176" value="16" name="bitDepth"/>
             <Attribute id="9177" value="1" name="gain"/>
             <Attribute id="9178" value="0" name="mixToMono"/>
            </Attributes>
            <MetaData>
             <entry key="WinSubProjectDisplayName" val=""/>
            </MetaData>
           </AMFile>
           <AMFile id="9179" start="7022" duration="1377" scalar="1/1" mediaStart="8303/1" mediaDuration="1377/1" trackNumber="0" src="29" channelNumber="0" >
            <Parameters>
             <InterpolatingParam id="9180" interp="linr"  time="0/1" value="1" leadInLength="0/1"  name="volume"/>
             <Parameter id="9181"  name="captions"/>
            </Parameters>
            <Attributes>
             <Attribute id="9182" value="" name="ident"/>
             <Attribute id="9183" value="48000" name="sampleRate"/>
             <Attribute id="9184" value="16" name="bitDepth"/>
             <Attribute id="9185" value="1" name="gain"/>
             <Attribute id="9186" value="0" name="mixToMono"/>
            </Attributes>
            <MetaData>
             <entry key="WinSubProjectDisplayName" val=""/>
            </MetaData>
           </AMFile>
           <AMFile id="9187" start="8399" duration="3717" scalar="1/1" mediaStart="9929/1" mediaDuration="3717/1" trackNumber="0" src="29" channelNumber="0" >
            <Parameters>
             <InterpolatingParam id="9188" interp="linr"  time="0/1" value="1" leadInLength="0/1"  name="volume"/>
             <Parameter id="9189"  name="captions"/>
            </Parameters>
            <Attributes>
             <Attribute id="9190" value="" name="ident"/>
             <Attribute id="9191" value="48000" name="sampleRate"/>
             <Attribute id="9192" value="16" name="bitDepth"/>
             <Attribute id="9193" value="1" name="gain"/>
             <Attribute id="9194" value="0" name="mixToMono"/>
            </Attributes>
            <MetaData>
             <entry key="WinSubProjectDisplayName" val=""/>
            </MetaData>
           </AMFile>
          </Medias>
         </GenericTrack>
        </StitchedMedia>
        <StitchedMedia id="9195" start="7351" duration="510" scalar="1/1" mediaStart="9323/1" mediaDuration="510/1" minMediaStart="0/1" >
         <Transformer>
          <VectorParam id="9196"  name="translation">
           <InterpolatingParam id="9197" interp="linr"  time="0/1" value="0" leadInLength="0/1"  />
           <InterpolatingParam id="9198" interp="linr"  time="0/1" value="0" leadInLength="0/1"  />
           <InterpolatingParam id="9199" interp="linr"  time="0/1" value="0" leadInLength="0/1"  />
          </VectorParam>
          <VectorParam id="9200"  name="rotation">
           <InterpolatingParam id="9201" interp="linr"  time="0/1" value="0" leadInLength="0/1"  />
           <InterpolatingParam id="9202" interp="linr"  time="0/1" value="0" leadInLength="0/1"  />
           <InterpolatingParam id="9203" interp="linr"  time="0/1" value="0" leadInLength="0/1"  />
          </VectorParam>
          <VectorParam id="9204"  name="shear">
           <InterpolatingParam id="9205" interp="linr"  time="0/1" value="0" leadInLength="0/1"  />
           <InterpolatingParam id="9206" interp="linr"  time="0/1" value="0" leadInLength="0/1"  />
           <InterpolatingParam id="9207" interp="linr"  time="0/1" value="0" leadInLength="0/1"  />
          </VectorParam>
          <VectorParam id="9208"  name="scale">
           <InterpolatingParam id="9209" interp="linr"  time="0/1" value="1" leadInLength="0/1"  />
           <InterpolatingParam id="9210" interp="linr"  time="0/1" value="1" leadInLength="0/1"  />
           <InterpolatingParam id="9211" interp="linr"  time="0/1" value="1" leadInLength="0/1"  />
          </VectorParam>
          <VectorParam id="9212"  name="anchor">
           <InterpolatingParam id="9213" interp="linr"  time="0/1" value="0" leadInLength="0/1"  />
           <InterpolatingParam id="9214" interp="linr"  time="0/1" value="0" leadInLength="0/1"  />
           <InterpolatingParam id="9215" interp="linr"  time="0/1" value="0" leadInLength="0/1"  />
          </VectorParam>
         </Transformer>
         <Parameters>
          <InterpolatingParam id="9216" interp="linr"  time="0/1" value="1" leadInLength="0/1"  name="cursorOpacity"/>
          <InterpolatingParam id="9217" interp="linr"  time="0/1" value="1" leadInLength="0/1"  name="cursorScale"/>
          <InterpolatingParam id="9218" interp="linr"  time="0/1" value="1.5625" leadInLength="0/1"  name="volume"/>
          <Parameter id="9219"  name="captions"/>
         </Parameters>
         <Effects>
          <GenericEffect id="9220" name = "WinCompression" >
           <Parameters>
           <InterpolatingParam id="9221" interp="linr"  time="0/1" value="0" leadInLength="0/1"   name="attack"/>
           <InterpolatingParam id="9222" interp="linr"  time="0/1" value="9" leadInLength="0/1"   name="gain"/>
           <Parameter id="9223"   name="preset">
            <Keyframes>
            <Keyframe id="9224"  time="0/1" value="1" leadInLength="0/1"  />
            </Keyframes>
           </Parameter>
           <InterpolatingParam id="9225" interp="linr"  time="0/1" value="10" leadInLength="0/1"   name="ratio"/>
           <InterpolatingParam id="9226" interp="linr"  time="0/1" value="3500" leadInLength="0/1"   name="release"/>
           <InterpolatingParam id="9227" interp="linr"  time="0/1" value="-20" leadInLength="0/1"   name="threshold"/>
           </Parameters>
          </GenericEffect>
          <GenericEffect id="9228" name = "NoiseReduction" >
           <Parameters>
           <InterpolatingParam id="9229" interp="linr"  time="0/1" value="20" leadInLength="0/1"   name="denoiserAmount"/>
           <InterpolatingParam id="9230" interp="linr"  time="0/1" value="0" leadInLength="0/1"   name="denoiserThreshold"/>
           <Parameter id="9231"   name="noiseProfile">
            <Keyframes>
            <Keyframe id="9232"  time="0/1" value="FBAAAAIAAABErAAAAQIAAIA/l8JLuYTCrOB9wgsMfMJoG4LCaWeFwkohjMJdoYvCYv6LwlnvjcKf&#xD;&#xa;nYzChXWPwlcejsL6fo/C5OmQwgVTj8IVMI/COiWRwoWFkcJ2tYzC8I6MwuQbjcJvEo/ClwGRwheQ&#xD;&#xa;lsK8+pbCN5qVwlielcJ905rCmu+fwst0ncIC/JvCdIWdws3snsKxC5zCfh2cwniFnMJRypzCtRag&#xD;&#xa;wuoCosJQt6DCzoegwhY9ocIWN6PCsNqkwrSlpMJ6maTCYpCkwmLvo8Li+KPCyEamwnBNqMLMcqrC&#xD;&#xa;v2GswoS+q8Kk86vCVACuwnvUr8JxZa/CqHqswrdXq8LqT6zCZsuswhZxrMLBX67CnmqvwpYyrsKc&#xD;&#xa;pq3CJFGvwghrsMK3y6/CXoCtwmWZr8ICi7DCgRezwogSs8Joq7LCm0Sxwuz/scIfibTCOOK1wlIM&#xD;&#xa;t8K87LfCj3K3wqDYs8KT1bLCVsW0wnZ0tcJGhLXCfPe0ws/ntcLGXrbCzAG1wtXdtcKxxrTC1Ay1&#xD;&#xa;wquGtcLjELbC8Zi2wl7rtsJBYbbCMF+1wrEutMKuibTCSFa1wpvktMIu3rTCtGe4wjaduMIKErfC&#xD;&#xa;SLa1wvS/tsJmZrjCdn63whjft8Ie47rCfdi5wmjpt8KKCLjCXmC5wsOQt8JDGbfCK4m4wmpvuMLL&#xD;&#xa;nLjC80q4wjUVusKunLjC1Be5wg4cuMLxCbjCwfW4wmi7ucIOdbvCbLG6whqdusKYErrCbpC4wmq0&#xD;&#xa;ucIoWrvCaNe6ws4iu8LSc7zCUNa7wuJZvMIwLL3CWe28wps2v8J2l77Cv3W+wvgavsKAwrzCQCy8&#xD;&#xa;wgBRu8Km8brChSa6wuM4u8IaaL3Cf5y9wg4hvMLur7vCIpO9wm0fvcIGNLzC7Le8wvKgvMKQrLzC&#xD;&#xa;p6+9wtYtvsJcxbzCQC29wjDqvcKeNbzCH2W8wpbZvsLCTL7CnjO+wuIsvsJs67vCwLq9wiKhvsLs&#xD;&#xa;o73C5Du9wqqhvcLwKr7C2kq/wqEMv8LVCb7Cpla+wsXpvMIs6bvC/fO8wueCvsIM4b3CxtC+wmTo&#xD;&#xa;vcI+arzCTNe8wiFNv8IvKL/Cpg+/woK1v8L4i7/CNv2+wmsVv8KWj77CVym+wnAlv8Joa8DCFDzA&#xD;&#xa;wiQYwcLSIcHCxILAwuxKvsJYm77CPoHAwiYPwcLuy77CcQa+wrB4vcKwYLzCxKW8worIvcIlzr/C&#xD;&#xa;OMC+wuRDvcJGZ7zCxFi9wuQzvMLPbbvCwIe+wm7bvcLm9L3COH6+wuuJvMK2B73CYb+9wqbxvMK/&#xD;&#xa;mL7CqIe9wvCavMKs7L3Ckau8wkpavMKt9LzCF8S+wmgKvsKCy73ClrG+wmIovcIns73Cmg+/wgw7&#xD;&#xa;wMI607/CpEq/wmwVvcJLsLvCMD68wuxdvcIeI7/C+bS+wpxfvsJyxsDC1tO/wmtrv8LNnb/CQiK+&#xD;&#xa;wlz7vcLa6L/CUMXBwtrQwcIAw8HCNJHBwvphwMKqc7/CSkW/wjkvwMK8ccHCHmDBwlKAwcKu+MDC&#xD;&#xa;zErCwuqgwsLa+MLC753DwmjuxcLEWMfCkePFwo47xsKnX8XC7tTCwuf3wsL+HcLCTcTBwmg6w8Is&#xD;&#xa;RMPC+qjDwiyGxMLi58TCnWvFwpjsxsKzCMbCyCTDwpM2wcJWGMPCvuDFwh42xsIfyMTCeLTFwuH7&#xD;&#xa;xMJctcfCVv3HwpTGx8J8b8jCqhjHwrgkx8LXNsfCZkLGwnxSxcL8csXCbu7FwsaQyMLa68fCo0XH&#xD;&#xa;woruxMJGHsbCORbJwry2yMLIUsfCxlfGwmLoxcLSPMnCYPDJwkw3yMKc7crC8vDLwug2y8Lu28vC&#xD;&#xa;OKvMwvLpysKGj8rCtNXLwrMay8KdGMrCUr3JwgIVy8J64MvCkbTJwjh4x8JGI8bCvBXHwnoPycKN&#xD;&#xa;Ss3CuC/Nwuywy8IkJ8zCx9/KwnB5ycKnk8nCenLJwnN6ycKc+sjCLFzJwuTrzMJkJM/CY5vOwoYO&#xD;&#xa;zsLU987CVKfNwiZZzcJQxNDCICHVwi0d18Kc29jCIF/YwtKo2MKeBNvCwpTawmY/2sJXPdvCZZXY&#xD;&#xa;whB818IQNdjCDF3XwtWC1sIGF9fCfFfXwkBy2MJ6+9nC1hfZwi5k2cJlfNjCnEPYwm/N1cKGOdXC&#xD;&#xa;Yk/XwgXL2MJSytfCgpTWwqTT1sJOGtnCrF/ZwtcT2cK08NjCscHZwpQ72sLJ/NrCy3zYwmCk18LE&#xD;&#xa;O9fC6hbYwtYU2cJN/dnC1EbZwrw/2cIqyNbCDr7Xwvb02cLQ+dnCaJvXwuYO18KSodnC1NnawtJJ&#xD;&#xa;18ISLtjC90nawoel2cIwl9jCi0XZwih328Ks7NjC5KzZwqui2cJw0tjCukLYws+O2MJaqtrCUuXa&#xD;&#xa;wviX2MIKxtfCnqXXwhjI2MJwAtvCIFvcwgCL2cJ0/djCdyXawh9H2cJ+ntfCy4TXwhqF2MJ68NnC&#xD;&#xa;CzvYwljT2cIkP9vCIs/bwjpB2sK2A9rCXt/awjZH2sIfltvCKWPcwjp53MKrGd3CaBPewj/03MJm&#xD;&#xa;U97CphfgwlJp3cKQpt3Crxjewm7d28Kq/9vCNNXcwqY728IUH9vCkirbwgIt28KK19zCjmzdwoBH&#xD;&#xa;3MIAUtvCUq3bwo8f28Ig09jCiyfZwhbx2sLWe9zCvgzbwmwI2sI2nNvC0lvdwg6128I8PNvCLufa&#xD;&#xa;wkyK28KkitzCJIDcwmAO28L0TNrCDHXawjla28IQkdzCoCDcwjRI3MJVUdvCtujZwnCs2sK8Yd3C&#xD;&#xa;iGbbwuSB2cImFNvCCI7rwoA/l8JLuYTCrOB9wgsMfMJoG4LCaWeFwkohjMJdoYvCYv6LwlnvjcKf&#xD;&#xa;nYzChXWPwlcejsL6fo/C5OmQwgVTj8IVMI/COiWRwoWFkcJ2tYzC8I6MwuQbjcJvEo/ClwGRwheQ&#xD;&#xa;lsK8+pbCN5qVwlielcJ905rCmu+fwst0ncIC/JvCdIWdws3snsKxC5zCfh2cwniFnMJRypzCtRag&#xD;&#xa;wuoCosJQt6DCzoegwhY9ocIWN6PCsNqkwrSlpMJ6maTCYpCkwmLvo8Li+KPCyEamwnBNqMLMcqrC&#xD;&#xa;v2GswoS+q8Kk86vCVACuwnvUr8JxZa/CqHqswrdXq8LqT6zCZsuswhZxrMLBX67CnmqvwpYyrsKc&#xD;&#xa;pq3CJFGvwghrsMK3y6/CXoCtwmWZr8ICi7DCgRezwogSs8Joq7LCm0Sxwuz/scIfibTCOOK1wlIM&#xD;&#xa;t8K87LfCj3K3wqDYs8KT1bLCVsW0wnZ0tcJGhLXCfPe0ws/ntcLGXrbCzAG1wtXdtcKxxrTC1Ay1&#xD;&#xa;wquGtcLjELbC8Zi2wl7rtsJBYbbCMF+1wrEutMKuibTCSFa1wpvktMIu3rTCtGe4wjaduMIKErfC&#xD;&#xa;SLa1wvS/tsJmZrjCdn63whjft8Ie47rCfdi5wmjpt8KKCLjCXmC5wsOQt8JDGbfCK4m4wmpvuMLL&#xD;&#xa;nLjC80q4wjUVusKunLjC1Be5wg4cuMLxCbjCwfW4wmi7ucIOdbvCbLG6whqdusKYErrCbpC4wmq0&#xD;&#xa;ucIoWrvCaNe6ws4iu8LSc7zCUNa7wuJZvMIwLL3CWe28wps2v8J2l77Cv3W+wvgavsKAwrzCQCy8&#xD;&#xa;wgBRu8Km8brChSa6wuM4u8IaaL3Cf5y9wg4hvMLur7vCIpO9wm0fvcIGNLzC7Le8wvKgvMKQrLzC&#xD;&#xa;p6+9wtYtvsJcxbzCQC29wjDqvcKeNbzCH2W8wpbZvsLCTL7CnjO+wuIsvsJs67vCwLq9wiKhvsLs&#xD;&#xa;o73C5Du9wqqhvcLwKr7C2kq/wqEMv8LVCb7Cpla+wsXpvMIs6bvC/fO8wueCvsIM4b3CxtC+wmTo&#xD;&#xa;vcI+arzCTNe8wiFNv8IvKL/Cpg+/woK1v8L4i7/CNv2+wmsVv8KWj77CVym+wnAlv8Joa8DCFDzA&#xD;&#xa;wiQYwcLSIcHCxILAwuxKvsJYm77CPoHAwiYPwcLuy77CcQa+wrB4vcKwYLzCxKW8worIvcIlzr/C&#xD;&#xa;OMC+wuRDvcJGZ7zCxFi9wuQzvMLPbbvCwIe+wm7bvcLm9L3COH6+wuuJvMK2B73CYb+9wqbxvMK/&#xD;&#xa;mL7CqIe9wvCavMKs7L3Ckau8wkpavMKt9LzCF8S+wmgKvsKCy73ClrG+wmIovcIns73Cmg+/wgw7&#xD;&#xa;wMI607/CpEq/wmwVvcJLsLvCMD68wuxdvcIeI7/C+bS+wpxfvsJyxsDC1tO/wmtrv8LNnb/CQiK+&#xD;&#xa;wlz7vcLa6L/CUMXBwtrQwcIAw8HCNJHBwvphwMKqc7/CSkW/wjkvwMK8ccHCHmDBwlKAwcKu+MDC&#xD;&#xa;zErCwuqgwsLa+MLC753DwmjuxcLEWMfCkePFwo47xsKnX8XC7tTCwuf3wsL+HcLCTcTBwmg6w8Is&#xD;&#xa;RMPC+qjDwiyGxMLi58TCnWvFwpjsxsKzCMbCyCTDwpM2wcJWGMPCvuDFwh42xsIfyMTCeLTFwuH7&#xD;&#xa;xMJctcfCVv3HwpTGx8J8b8jCqhjHwrgkx8LXNsfCZkLGwnxSxcL8csXCbu7FwsaQyMLa68fCo0XH&#xD;&#xa;woruxMJGHsbCORbJwry2yMLIUsfCxlfGwmLoxcLSPMnCYPDJwkw3yMKc7crC8vDLwug2y8Lu28vC&#xD;&#xa;OKvMwvLpysKGj8rCtNXLwrMay8KdGMrCUr3JwgIVy8J64MvCkbTJwjh4x8JGI8bCvBXHwnoPycKN&#xD;&#xa;Ss3CuC/Nwuywy8IkJ8zCx9/KwnB5ycKnk8nCenLJwnN6ycKc+sjCLFzJwuTrzMJkJM/CY5vOwoYO&#xD;&#xa;zsLU987CVKfNwiZZzcJQxNDCICHVwi0d18Kc29jCIF/YwtKo2MKeBNvCwpTawmY/2sJXPdvCZZXY&#xD;&#xa;whB818IQNdjCDF3XwtWC1sIGF9fCfFfXwkBy2MJ6+9nC1hfZwi5k2cJlfNjCnEPYwm/N1cKGOdXC&#xD;&#xa;Yk/XwgXL2MJSytfCgpTWwqTT1sJOGtnCrF/ZwtcT2cK08NjCscHZwpQ72sLJ/NrCy3zYwmCk18LE&#xD;&#xa;O9fC6hbYwtYU2cJN/dnC1EbZwrw/2cIqyNbCDr7Xwvb02cLQ+dnCaJvXwuYO18KSodnC1NnawtJJ&#xD;&#xa;18ISLtjC90nawoel2cIwl9jCi0XZwih328Ks7NjC5KzZwqui2cJw0tjCukLYws+O2MJaqtrCUuXa&#xD;&#xa;wviX2MIKxtfCnqXXwhjI2MJwAtvCIFvcwgCL2cJ0/djCdyXawh9H2cJ+ntfCy4TXwhqF2MJ68NnC&#xD;&#xa;CzvYwljT2cIkP9vCIs/bwjpB2sK2A9rCXt/awjZH2sIfltvCKWPcwjp53MKrGd3CaBPewj/03MJm&#xD;&#xa;U97CphfgwlJp3cKQpt3Crxjewm7d28Kq/9vCNNXcwqY728IUH9vCkirbwgIt28KK19zCjmzdwoBH&#xD;&#xa;3MIAUtvCUq3bwo8f28Ig09jCiyfZwhbx2sLWe9zCvgzbwmwI2sI2nNvC0lvdwg6128I8PNvCLufa&#xD;&#xa;wkyK28KkitzCJIDcwmAO28L0TNrCDHXawjla28IQkdzCoCDcwjRI3MJVUdvCtujZwnCs2sK8Yd3C&#xD;&#xa;iGbbwuSB2cImFNvCCI7r" leadInLength="0/1"  />
            </Keyframes>
           </Parameter>
           </Parameters>
          </GenericEffect>
          <GenericEffect id="9233" name = "Declipper" >
           <Parameters>
           <InterpolatingParam id="9234" interp="linr"  time="0/1" value="-1" leadInLength="0/1"   name="sensitivity"/>
           </Parameters>
          </GenericEffect>
          <GenericEffect id="9235" name = "Declicker" >
           <Parameters>
           <InterpolatingParam id="9236" interp="linr"  time="0/1" value="3" leadInLength="0/1"   name="sensitivity"/>
           </Parameters>
          </GenericEffect>
         </Effects>
         <Attributes>
          <Attribute id="9237" value="" name="ident"/>
          <Attribute id="9238" value="0" name="mixToMono"/>
         </Attributes>
         <MetaData>
          <entry key="WinSubProjectDisplayName" val=""/>
         </MetaData>
         <ExtraData>
          <Entry key="ZoomPanBin">
           <ZoomPanBin id="9239"  >
            <ZoomPanKeyframes>
            </ZoomPanKeyframes>
           </ZoomPanBin>
          </Entry>
          <Entry key="CursorEffectBin">
           <CursorEffectBin id="9240"  >
            <CursorEffectKeyframes>
            </CursorEffectKeyframes>
           </CursorEffectBin>
          </Entry>
         </ExtraData>
         <GenericTrack id="9241"  >
          <Attributes>
           <Attribute id="9242" value="" name="ident"/>
           <Attribute id="9243" value="0" name="audioMuted"/>
           <Attribute id="9244" value="0" name="videoHidden"/>
          </Attributes>
          <MetaData>
           <entry key="IsLocked" val="False"/>
           <entry key="WinTrackHeight" val="0"/>
          </MetaData>
          <Medias>
           <AMFile id="9245" start="0" duration="117" scalar="1/1" mediaStart="0/1" mediaDuration="117/1" trackNumber="0" src="29" channelNumber="0" >
            <Parameters>
             <InterpolatingParam id="9246" interp="linr"  time="0/1" value="1" leadInLength="0/1"  name="volume"/>
             <Parameter id="9247"  name="captions"/>
            </Parameters>
            <Attributes>
             <Attribute id="9248" value="" name="ident"/>
             <Attribute id="9249" value="48000" name="sampleRate"/>
             <Attribute id="9250" value="16" name="bitDepth"/>
             <Attribute id="9251" value="1" name="gain"/>
             <Attribute id="9252" value="0" name="mixToMono"/>
            </Attributes>
            <MetaData>
             <entry key="WinSubProjectDisplayName" val=""/>
            </MetaData>
           </AMFile>
           <AMFile id="9253" start="117" duration="272" scalar="1/1" mediaStart="131/1" mediaDuration="272/1" trackNumber="0" src="29" channelNumber="0" >
            <Parameters>
             <InterpolatingParam id="9254" interp="linr"  time="0/1" value="1" leadInLength="0/1"  name="volume"/>
             <Parameter id="9255"  name="captions"/>
            </Parameters>
            <Attributes>
             <Attribute id="9256" value="" name="ident"/>
             <Attribute id="9257" value="48000" name="sampleRate"/>
             <Attribute id="9258" value="16" name="bitDepth"/>
             <Attribute id="9259" value="1" name="gain"/>
             <Attribute id="9260" value="0" name="mixToMono"/>
            </Attributes>
            <MetaData>
             <entry key="WinSubProjectDisplayName" val=""/>
            </MetaData>
           </AMFile>
           <AMFile id="9261" start="389" duration="1309" scalar="1/1" mediaStart="415/1" mediaDuration="1309/1" trackNumber="0" src="29" channelNumber="0" >
            <Parameters>
             <InterpolatingParam id="9262" interp="linr"  time="0/1" value="1" leadInLength="0/1"  name="volume"/>
             <Parameter id="9263"  name="captions"/>
            </Parameters>
            <Attributes>
             <Attribute id="9264" value="" name="ident"/>
             <Attribute id="9265" value="48000" name="sampleRate"/>
             <Attribute id="9266" value="16" name="bitDepth"/>
             <Attribute id="9267" value="1" name="gain"/>
             <Attribute id="9268" value="0" name="mixToMono"/>
            </Attributes>
            <MetaData>
             <entry key="WinSubProjectDisplayName" val=""/>
            </MetaData>
           </AMFile>
           <AMFile id="9269" start="1698" duration="103" scalar="1/1" mediaStart="1734/1" mediaDuration="103/1" trackNumber="0" src="29" channelNumber="0" >
            <Parameters>
             <InterpolatingParam id="9270" interp="linr"  time="0/1" value="1" leadInLength="0/1"  name="volume"/>
             <Parameter id="9271"  name="captions"/>
            </Parameters>
            <Attributes>
             <Attribute id="9272" value="" name="ident"/>
             <Attribute id="9273" value="48000" name="sampleRate"/>
             <Attribute id="9274" value="16" name="bitDepth"/>
             <Attribute id="9275" value="1" name="gain"/>
             <Attribute id="9276" value="0" name="mixToMono"/>
            </Attributes>
            <MetaData>
             <entry key="WinSubProjectDisplayName" val=""/>
            </MetaData>
           </AMFile>
           <AMFile id="9277" start="1801" duration="245" scalar="1/1" mediaStart="2164/1" mediaDuration="245/1" trackNumber="0" src="29" channelNumber="0" >
            <Parameters>
             <InterpolatingParam id="9278" interp="linr"  time="0/1" value="1" leadInLength="0/1"  name="volume"/>
             <Parameter id="9279"  name="captions"/>
            </Parameters>
            <Attributes>
             <Attribute id="9280" value="" name="ident"/>
             <Attribute id="9281" value="48000" name="sampleRate"/>
             <Attribute id="9282" value="16" name="bitDepth"/>
             <Attribute id="9283" value="1" name="gain"/>
             <Attribute id="9284" value="0" name="mixToMono"/>
            </Attributes>
            <MetaData>
             <entry key="WinSubProjectDisplayName" val=""/>
            </MetaData>
           </AMFile>
           <AMFile id="9285" start="2046" duration="202" scalar="1/1" mediaStart="2637/1" mediaDuration="202/1" trackNumber="0" src="29" channelNumber="0" >
            <Parameters>
             <InterpolatingParam id="9286" interp="linr"  time="0/1" value="1" leadInLength="0/1"  name="volume"/>
             <Parameter id="9287"  name="captions"/>
            </Parameters>
            <Attributes>
             <Attribute id="9288" value="" name="ident"/>
             <Attribute id="9289" value="48000" name="sampleRate"/>
             <Attribute id="9290" value="16" name="bitDepth"/>
             <Attribute id="9291" value="1" name="gain"/>
             <Attribute id="9292" value="0" name="mixToMono"/>
            </Attributes>
            <MetaData>
             <entry key="WinSubProjectDisplayName" val=""/>
            </MetaData>
           </AMFile>
           <AMFile id="9293" start="2248" duration="185" scalar="1/1" mediaStart="2856/1" mediaDuration="185/1" trackNumber="0" src="29" channelNumber="0" >
            <Parameters>
             <InterpolatingParam id="9294" interp="linr"  time="0/1" value="1" leadInLength="0/1"  name="volume"/>
             <Parameter id="9295"  name="captions"/>
            </Parameters>
            <Attributes>
             <Attribute id="9296" value="" name="ident"/>
             <Attribute id="9297" value="48000" name="sampleRate"/>
             <Attribute id="9298" value="16" name="bitDepth"/>
             <Attribute id="9299" value="1" name="gain"/>
             <Attribute id="9300" value="0" name="mixToMono"/>
            </Attributes>
            <MetaData>
             <entry key="WinSubProjectDisplayName" val=""/>
            </MetaData>
           </AMFile>
           <AMFile id="9301" start="2433" duration="215" scalar="1/1" mediaStart="3054/1" mediaDuration="215/1" trackNumber="0" src="29" channelNumber="0" >
            <Parameters>
             <InterpolatingParam id="9302" interp="linr"  time="0/1" value="1" leadInLength="0/1"  name="volume"/>
             <Parameter id="9303"  name="captions"/>
            </Parameters>
            <Attributes>
             <Attribute id="9304" value="" name="ident"/>
             <Attribute id="9305" value="48000" name="sampleRate"/>
             <Attribute id="9306" value="16" name="bitDepth"/>
             <Attribute id="9307" value="1" name="gain"/>
             <Attribute id="9308" value="0" name="mixToMono"/>
            </Attributes>
            <MetaData>
             <entry key="WinSubProjectDisplayName" val=""/>
            </MetaData>
           </AMFile>
           <AMFile id="9309" start="2648" duration="155" scalar="1/1" mediaStart="3288/1" mediaDuration="155/1" trackNumber="0" src="29" channelNumber="0" >
            <Parameters>
             <InterpolatingParam id="9310" interp="linr"  time="0/1" value="1" leadInLength="0/1"  name="volume"/>
             <Parameter id="9311"  name="captions"/>
            </Parameters>
            <Attributes>
             <Attribute id="9312" value="" name="ident"/>
             <Attribute id="9313" value="48000" name="sampleRate"/>
             <Attribute id="9314" value="16" name="bitDepth"/>
             <Attribute id="9315" value="1" name="gain"/>
             <Attribute id="9316" value="0" name="mixToMono"/>
            </Attributes>
            <MetaData>
             <entry key="WinSubProjectDisplayName" val=""/>
            </MetaData>
           </AMFile>
           <AMFile id="9317" start="2803" duration="103" scalar="1/1" mediaStart="3450/1" mediaDuration="103/1" trackNumber="0" src="29" channelNumber="0" >
            <Parameters>
             <InterpolatingParam id="9318" interp="linr"  time="0/1" value="1" leadInLength="0/1"  name="volume"/>
             <Parameter id="9319"  name="captions"/>
            </Parameters>
            <Attributes>
             <Attribute id="9320" value="" name="ident"/>
             <Attribute id="9321" value="48000" name="sampleRate"/>
             <Attribute id="9322" value="16" name="bitDepth"/>
             <Attribute id="9323" value="1" name="gain"/>
             <Attribute id="9324" value="0" name="mixToMono"/>
            </Attributes>
            <MetaData>
             <entry key="WinSubProjectDisplayName" val=""/>
            </MetaData>
           </AMFile>
           <AMFile id="9325" start="2906" duration="2683" scalar="1/1" mediaStart="3564/1" mediaDuration="2683/1" trackNumber="0" src="29" channelNumber="0" >
            <Parameters>
             <InterpolatingParam id="9326" interp="linr"  time="0/1" value="1" leadInLength="0/1"  name="volume"/>
             <Parameter id="9327"  name="captions"/>
            </Parameters>
            <Attributes>
             <Attribute id="9328" value="" name="ident"/>
             <Attribute id="9329" value="48000" name="sampleRate"/>
             <Attribute id="9330" value="16" name="bitDepth"/>
             <Attribute id="9331" value="1" name="gain"/>
             <Attribute id="9332" value="0" name="mixToMono"/>
            </Attributes>
            <MetaData>
             <entry key="WinSubProjectDisplayName" val=""/>
            </MetaData>
           </AMFile>
           <AMFile id="9333" start="5589" duration="143" scalar="1/1" mediaStart="6247/1" mediaDuration="143/1" trackNumber="0" src="29" channelNumber="0" >
            <Parameters>
             <InterpolatingParam id="9334" interp="linr"  time="0/1" value="1" leadInLength="0/1"  name="volume"/>
             <Parameter id="9335"  name="captions"/>
            </Parameters>
            <Attributes>
             <Attribute id="9336" value="" name="ident"/>
             <Attribute id="9337" value="48000" name="sampleRate"/>
             <Attribute id="9338" value="16" name="bitDepth"/>
             <Attribute id="9339" value="1" name="gain"/>
             <Attribute id="9340" value="0" name="mixToMono"/>
            </Attributes>
            <MetaData>
             <entry key="WinSubProjectDisplayName" val=""/>
            </MetaData>
           </AMFile>
           <AMFile id="9341" start="5732" duration="285" scalar="1/1" mediaStart="6413/1" mediaDuration="285/1" trackNumber="0" src="29" channelNumber="0" >
            <Parameters>
             <InterpolatingParam id="9342" interp="linr"  time="0/1" value="1" leadInLength="0/1"  name="volume"/>
             <Parameter id="9343"  name="captions"/>
            </Parameters>
            <Attributes>
             <Attribute id="9344" value="" name="ident"/>
             <Attribute id="9345" value="48000" name="sampleRate"/>
             <Attribute id="9346" value="16" name="bitDepth"/>
             <Attribute id="9347" value="1" name="gain"/>
             <Attribute id="9348" value="0" name="mixToMono"/>
            </Attributes>
            <MetaData>
             <entry key="WinSubProjectDisplayName" val=""/>
            </MetaData>
           </AMFile>
           <AMFile id="9349" start="6017" duration="102" scalar="1/1" mediaStart="6729/1" mediaDuration="102/1" trackNumber="0" src="29" channelNumber="0" >
            <Parameters>
             <InterpolatingParam id="9350" interp="linr"  time="0/1" value="1" leadInLength="0/1"  name="volume"/>
             <Parameter id="9351"  name="captions"/>
            </Parameters>
            <Attributes>
             <Attribute id="9352" value="" name="ident"/>
             <Attribute id="9353" value="48000" name="sampleRate"/>
             <Attribute id="9354" value="16" name="bitDepth"/>
             <Attribute id="9355" value="1" name="gain"/>
             <Attribute id="9356" value="0" name="mixToMono"/>
            </Attributes>
            <MetaData>
             <entry key="WinSubProjectDisplayName" val=""/>
            </MetaData>
           </AMFile>
           <AMFile id="9357" start="6119" duration="234" scalar="1/1" mediaStart="6848/1" mediaDuration="234/1" trackNumber="0" src="29" channelNumber="0" >
            <Parameters>
             <InterpolatingParam id="9358" interp="linr"  time="0/1" value="1" leadInLength="0/1"  name="volume"/>
             <Parameter id="9359"  name="captions"/>
            </Parameters>
            <Attributes>
             <Attribute id="9360" value="" name="ident"/>
             <Attribute id="9361" value="48000" name="sampleRate"/>
             <Attribute id="9362" value="16" name="bitDepth"/>
             <Attribute id="9363" value="1" name="gain"/>
             <Attribute id="9364" value="0" name="mixToMono"/>
            </Attributes>
            <MetaData>
             <entry key="WinSubProjectDisplayName" val=""/>
            </MetaData>
           </AMFile>
           <AMFile id="9365" start="6353" duration="107" scalar="1/1" mediaStart="7089/1" mediaDuration="107/1" trackNumber="0" src="29" channelNumber="0" >
            <Parameters>
             <InterpolatingParam id="9366" interp="linr"  time="0/1" value="1" leadInLength="0/1"  name="volume"/>
             <Parameter id="9367"  name="captions"/>
            </Parameters>
            <Attributes>
             <Attribute id="9368" value="" name="ident"/>
             <Attribute id="9369" value="48000" name="sampleRate"/>
             <Attribute id="9370" value="16" name="bitDepth"/>
             <Attribute id="9371" value="1" name="gain"/>
             <Attribute id="9372" value="0" name="mixToMono"/>
            </Attributes>
            <MetaData>
             <entry key="WinSubProjectDisplayName" val=""/>
            </MetaData>
           </AMFile>
           <AMFile id="9373" start="6460" duration="67" scalar="1/1" mediaStart="7207/1" mediaDuration="67/1" trackNumber="0" src="29" channelNumber="0" >
            <Parameters>
             <InterpolatingParam id="9374" interp="linr"  time="0/1" value="1" leadInLength="0/1"  name="volume"/>
             <Parameter id="9375"  name="captions"/>
            </Parameters>
            <Attributes>
             <Attribute id="9376" value="" name="ident"/>
             <Attribute id="9377" value="48000" name="sampleRate"/>
             <Attribute id="9378" value="16" name="bitDepth"/>
             <Attribute id="9379" value="1" name="gain"/>
             <Attribute id="9380" value="0" name="mixToMono"/>
            </Attributes>
            <MetaData>
             <entry key="WinSubProjectDisplayName" val=""/>
            </MetaData>
           </AMFile>
           <AMFile id="9381" start="6527" duration="226" scalar="1/1" mediaStart="7297/1" mediaDuration="226/1" trackNumber="0" src="29" channelNumber="0" >
            <Parameters>
             <InterpolatingParam id="9382" interp="linr"  time="0/1" value="1" leadInLength="0/1"  name="volume"/>
             <Parameter id="9383"  name="captions"/>
            </Parameters>
            <Attributes>
             <Attribute id="9384" value="" name="ident"/>
             <Attribute id="9385" value="48000" name="sampleRate"/>
             <Attribute id="9386" value="16" name="bitDepth"/>
             <Attribute id="9387" value="1" name="gain"/>
             <Attribute id="9388" value="0" name="mixToMono"/>
            </Attributes>
            <MetaData>
             <entry key="WinSubProjectDisplayName" val=""/>
            </MetaData>
           </AMFile>
           <AMFile id="9389" start="6753" duration="117" scalar="1/1" mediaStart="7540/1" mediaDuration="117/1" trackNumber="0" src="29" channelNumber="0" >
            <Parameters>
             <InterpolatingParam id="9390" interp="linr"  time="0/1" value="1" leadInLength="0/1"  name="volume"/>
             <Parameter id="9391"  name="captions"/>
            </Parameters>
            <Attributes>
             <Attribute id="9392" value="" name="ident"/>
             <Attribute id="9393" value="48000" name="sampleRate"/>
             <Attribute id="9394" value="16" name="bitDepth"/>
             <Attribute id="9395" value="1" name="gain"/>
             <Attribute id="9396" value="0" name="mixToMono"/>
            </Attributes>
            <MetaData>
             <entry key="WinSubProjectDisplayName" val=""/>
            </MetaData>
           </AMFile>
           <AMFile id="9397" start="6870" duration="52" scalar="1/1" mediaStart="7796/1" mediaDuration="52/1" trackNumber="0" src="29" channelNumber="0" >
            <Parameters>
             <InterpolatingParam id="9398" interp="linr"  time="0/1" value="1" leadInLength="0/1"  name="volume"/>
             <Parameter id="9399"  name="captions"/>
            </Parameters>
            <Attributes>
             <Attribute id="9400" value="" name="ident"/>
             <Attribute id="9401" value="48000" name="sampleRate"/>
             <Attribute id="9402" value="16" name="bitDepth"/>
             <Attribute id="9403" value="1" name="gain"/>
             <Attribute id="9404" value="0" name="mixToMono"/>
            </Attributes>
            <MetaData>
             <entry key="WinSubProjectDisplayName" val=""/>
            </MetaData>
           </AMFile>
           <AMFile id="9405" start="6922" duration="100" scalar="1/1" mediaStart="8187/1" mediaDuration="100/1" trackNumber="0" src="29" channelNumber="0" >
            <Parameters>
             <InterpolatingParam id="9406" interp="linr"  time="0/1" value="1" leadInLength="0/1"  name="volume"/>
             <Parameter id="9407"  name="captions"/>
            </Parameters>
            <Attributes>
             <Attribute id="9408" value="" name="ident"/>
             <Attribute id="9409" value="48000" name="sampleRate"/>
             <Attribute id="9410" value="16" name="bitDepth"/>
             <Attribute id="9411" value="1" name="gain"/>
             <Attribute id="9412" value="0" name="mixToMono"/>
            </Attributes>
            <MetaData>
             <entry key="WinSubProjectDisplayName" val=""/>
            </MetaData>
           </AMFile>
           <AMFile id="9413" start="7022" duration="1377" scalar="1/1" mediaStart="8303/1" mediaDuration="1377/1" trackNumber="0" src="29" channelNumber="0" >
            <Parameters>
             <InterpolatingParam id="9414" interp="linr"  time="0/1" value="1" leadInLength="0/1"  name="volume"/>
             <Parameter id="9415"  name="captions"/>
            </Parameters>
            <Attributes>
             <Attribute id="9416" value="" name="ident"/>
             <Attribute id="9417" value="48000" name="sampleRate"/>
             <Attribute id="9418" value="16" name="bitDepth"/>
             <Attribute id="9419" value="1" name="gain"/>
             <Attribute id="9420" value="0" name="mixToMono"/>
            </Attributes>
            <MetaData>
             <entry key="WinSubProjectDisplayName" val=""/>
            </MetaData>
           </AMFile>
           <AMFile id="9421" start="8399" duration="3717" scalar="1/1" mediaStart="9929/1" mediaDuration="3717/1" trackNumber="0" src="29" channelNumber="0" >
            <Parameters>
             <InterpolatingParam id="9422" interp="linr"  time="0/1" value="1" leadInLength="0/1"  name="volume"/>
             <Parameter id="9423"  name="captions"/>
            </Parameters>
            <Attributes>
             <Attribute id="9424" value="" name="ident"/>
             <Attribute id="9425" value="48000" name="sampleRate"/>
             <Attribute id="9426" value="16" name="bitDepth"/>
             <Attribute id="9427" value="1" name="gain"/>
             <Attribute id="9428" value="0" name="mixToMono"/>
            </Attributes>
            <MetaData>
             <entry key="WinSubProjectDisplayName" val=""/>
            </MetaData>
           </AMFile>
          </Medias>
         </GenericTrack>
        </StitchedMedia>
        <StitchedMedia id="9429" start="7861" duration="122" scalar="1/1" mediaStart="9840/1" mediaDuration="122/1" minMediaStart="0/1" >
         <Transformer>
          <VectorParam id="9430"  name="translation">
           <InterpolatingParam id="9431" interp="linr"  time="0/1" value="0" leadInLength="0/1"  />
           <InterpolatingParam id="9432" interp="linr"  time="0/1" value="0" leadInLength="0/1"  />
           <InterpolatingParam id="9433" interp="linr"  time="0/1" value="0" leadInLength="0/1"  />
          </VectorParam>
          <VectorParam id="9434"  name="rotation">
           <InterpolatingParam id="9435" interp="linr"  time="0/1" value="0" leadInLength="0/1"  />
           <InterpolatingParam id="9436" interp="linr"  time="0/1" value="0" leadInLength="0/1"  />
           <InterpolatingParam id="9437" interp="linr"  time="0/1" value="0" leadInLength="0/1"  />
          </VectorParam>
          <VectorParam id="9438"  name="shear">
           <InterpolatingParam id="9439" interp="linr"  time="0/1" value="0" leadInLength="0/1"  />
           <InterpolatingParam id="9440" interp="linr"  time="0/1" value="0" leadInLength="0/1"  />
           <InterpolatingParam id="9441" interp="linr"  time="0/1" value="0" leadInLength="0/1"  />
          </VectorParam>
          <VectorParam id="9442"  name="scale">
           <InterpolatingParam id="9443" interp="linr"  time="0/1" value="1" leadInLength="0/1"  />
           <InterpolatingParam id="9444" interp="linr"  time="0/1" value="1" leadInLength="0/1"  />
           <InterpolatingParam id="9445" interp="linr"  time="0/1" value="1" leadInLength="0/1"  />
          </VectorParam>
          <VectorParam id="9446"  name="anchor">
           <InterpolatingParam id="9447" interp="linr"  time="0/1" value="0" leadInLength="0/1"  />
           <InterpolatingParam id="9448" interp="linr"  time="0/1" value="0" leadInLength="0/1"  />
           <InterpolatingParam id="9449" interp="linr"  time="0/1" value="0" leadInLength="0/1"  />
          </VectorParam>
         </Transformer>
         <Parameters>
          <InterpolatingParam id="9450" interp="linr"  time="0/1" value="1" leadInLength="0/1"  name="cursorOpacity"/>
          <InterpolatingParam id="9451" interp="linr"  time="0/1" value="1" leadInLength="0/1"  name="cursorScale"/>
          <InterpolatingParam id="9452" interp="linr"  time="0/1" value="1.5625" leadInLength="0/1"  name="volume"/>
          <Parameter id="9453"  name="captions"/>
         </Parameters>
         <Effects>
          <GenericEffect id="9454" name = "WinCompression" >
           <Parameters>
           <InterpolatingParam id="9455" interp="linr"  time="0/1" value="0" leadInLength="0/1"   name="attack"/>
           <InterpolatingParam id="9456" interp="linr"  time="0/1" value="9" leadInLength="0/1"   name="gain"/>
           <Parameter id="9457"   name="preset">
            <Keyframes>
            <Keyframe id="9458"  time="0/1" value="1" leadInLength="0/1"  />
            </Keyframes>
           </Parameter>
           <InterpolatingParam id="9459" interp="linr"  time="0/1" value="10" leadInLength="0/1"   name="ratio"/>
           <InterpolatingParam id="9460" interp="linr"  time="0/1" value="3500" leadInLength="0/1"   name="release"/>
           <InterpolatingParam id="9461" interp="linr"  time="0/1" value="-20" leadInLength="0/1"   name="threshold"/>
           </Parameters>
          </GenericEffect>
          <GenericEffect id="9462" name = "NoiseReduction" >
           <Parameters>
           <InterpolatingParam id="9463" interp="linr"  time="0/1" value="20" leadInLength="0/1"   name="denoiserAmount"/>
           <InterpolatingParam id="9464" interp="linr"  time="0/1" value="0" leadInLength="0/1"   name="denoiserThreshold"/>
           <Parameter id="9465"   name="noiseProfile">
            <Keyframes>
            <Keyframe id="9466"  time="0/1" value="FBAAAAIAAABErAAAAQIAAIA/l8JLuYTCrOB9wgsMfMJoG4LCaWeFwkohjMJdoYvCYv6LwlnvjcKf&#xD;&#xa;nYzChXWPwlcejsL6fo/C5OmQwgVTj8IVMI/COiWRwoWFkcJ2tYzC8I6MwuQbjcJvEo/ClwGRwheQ&#xD;&#xa;lsK8+pbCN5qVwlielcJ905rCmu+fwst0ncIC/JvCdIWdws3snsKxC5zCfh2cwniFnMJRypzCtRag&#xD;&#xa;wuoCosJQt6DCzoegwhY9ocIWN6PCsNqkwrSlpMJ6maTCYpCkwmLvo8Li+KPCyEamwnBNqMLMcqrC&#xD;&#xa;v2GswoS+q8Kk86vCVACuwnvUr8JxZa/CqHqswrdXq8LqT6zCZsuswhZxrMLBX67CnmqvwpYyrsKc&#xD;&#xa;pq3CJFGvwghrsMK3y6/CXoCtwmWZr8ICi7DCgRezwogSs8Joq7LCm0Sxwuz/scIfibTCOOK1wlIM&#xD;&#xa;t8K87LfCj3K3wqDYs8KT1bLCVsW0wnZ0tcJGhLXCfPe0ws/ntcLGXrbCzAG1wtXdtcKxxrTC1Ay1&#xD;&#xa;wquGtcLjELbC8Zi2wl7rtsJBYbbCMF+1wrEutMKuibTCSFa1wpvktMIu3rTCtGe4wjaduMIKErfC&#xD;&#xa;SLa1wvS/tsJmZrjCdn63whjft8Ie47rCfdi5wmjpt8KKCLjCXmC5wsOQt8JDGbfCK4m4wmpvuMLL&#xD;&#xa;nLjC80q4wjUVusKunLjC1Be5wg4cuMLxCbjCwfW4wmi7ucIOdbvCbLG6whqdusKYErrCbpC4wmq0&#xD;&#xa;ucIoWrvCaNe6ws4iu8LSc7zCUNa7wuJZvMIwLL3CWe28wps2v8J2l77Cv3W+wvgavsKAwrzCQCy8&#xD;&#xa;wgBRu8Km8brChSa6wuM4u8IaaL3Cf5y9wg4hvMLur7vCIpO9wm0fvcIGNLzC7Le8wvKgvMKQrLzC&#xD;&#xa;p6+9wtYtvsJcxbzCQC29wjDqvcKeNbzCH2W8wpbZvsLCTL7CnjO+wuIsvsJs67vCwLq9wiKhvsLs&#xD;&#xa;o73C5Du9wqqhvcLwKr7C2kq/wqEMv8LVCb7Cpla+wsXpvMIs6bvC/fO8wueCvsIM4b3CxtC+wmTo&#xD;&#xa;vcI+arzCTNe8wiFNv8IvKL/Cpg+/woK1v8L4i7/CNv2+wmsVv8KWj77CVym+wnAlv8Joa8DCFDzA&#xD;&#xa;wiQYwcLSIcHCxILAwuxKvsJYm77CPoHAwiYPwcLuy77CcQa+wrB4vcKwYLzCxKW8worIvcIlzr/C&#xD;&#xa;OMC+wuRDvcJGZ7zCxFi9wuQzvMLPbbvCwIe+wm7bvcLm9L3COH6+wuuJvMK2B73CYb+9wqbxvMK/&#xD;&#xa;mL7CqIe9wvCavMKs7L3Ckau8wkpavMKt9LzCF8S+wmgKvsKCy73ClrG+wmIovcIns73Cmg+/wgw7&#xD;&#xa;wMI607/CpEq/wmwVvcJLsLvCMD68wuxdvcIeI7/C+bS+wpxfvsJyxsDC1tO/wmtrv8LNnb/CQiK+&#xD;&#xa;wlz7vcLa6L/CUMXBwtrQwcIAw8HCNJHBwvphwMKqc7/CSkW/wjkvwMK8ccHCHmDBwlKAwcKu+MDC&#xD;&#xa;zErCwuqgwsLa+MLC753DwmjuxcLEWMfCkePFwo47xsKnX8XC7tTCwuf3wsL+HcLCTcTBwmg6w8Is&#xD;&#xa;RMPC+qjDwiyGxMLi58TCnWvFwpjsxsKzCMbCyCTDwpM2wcJWGMPCvuDFwh42xsIfyMTCeLTFwuH7&#xD;&#xa;xMJctcfCVv3HwpTGx8J8b8jCqhjHwrgkx8LXNsfCZkLGwnxSxcL8csXCbu7FwsaQyMLa68fCo0XH&#xD;&#xa;woruxMJGHsbCORbJwry2yMLIUsfCxlfGwmLoxcLSPMnCYPDJwkw3yMKc7crC8vDLwug2y8Lu28vC&#xD;&#xa;OKvMwvLpysKGj8rCtNXLwrMay8KdGMrCUr3JwgIVy8J64MvCkbTJwjh4x8JGI8bCvBXHwnoPycKN&#xD;&#xa;Ss3CuC/Nwuywy8IkJ8zCx9/KwnB5ycKnk8nCenLJwnN6ycKc+sjCLFzJwuTrzMJkJM/CY5vOwoYO&#xD;&#xa;zsLU987CVKfNwiZZzcJQxNDCICHVwi0d18Kc29jCIF/YwtKo2MKeBNvCwpTawmY/2sJXPdvCZZXY&#xD;&#xa;whB818IQNdjCDF3XwtWC1sIGF9fCfFfXwkBy2MJ6+9nC1hfZwi5k2cJlfNjCnEPYwm/N1cKGOdXC&#xD;&#xa;Yk/XwgXL2MJSytfCgpTWwqTT1sJOGtnCrF/ZwtcT2cK08NjCscHZwpQ72sLJ/NrCy3zYwmCk18LE&#xD;&#xa;O9fC6hbYwtYU2cJN/dnC1EbZwrw/2cIqyNbCDr7Xwvb02cLQ+dnCaJvXwuYO18KSodnC1NnawtJJ&#xD;&#xa;18ISLtjC90nawoel2cIwl9jCi0XZwih328Ks7NjC5KzZwqui2cJw0tjCukLYws+O2MJaqtrCUuXa&#xD;&#xa;wviX2MIKxtfCnqXXwhjI2MJwAtvCIFvcwgCL2cJ0/djCdyXawh9H2cJ+ntfCy4TXwhqF2MJ68NnC&#xD;&#xa;CzvYwljT2cIkP9vCIs/bwjpB2sK2A9rCXt/awjZH2sIfltvCKWPcwjp53MKrGd3CaBPewj/03MJm&#xD;&#xa;U97CphfgwlJp3cKQpt3Crxjewm7d28Kq/9vCNNXcwqY728IUH9vCkirbwgIt28KK19zCjmzdwoBH&#xD;&#xa;3MIAUtvCUq3bwo8f28Ig09jCiyfZwhbx2sLWe9zCvgzbwmwI2sI2nNvC0lvdwg6128I8PNvCLufa&#xD;&#xa;wkyK28KkitzCJIDcwmAO28L0TNrCDHXawjla28IQkdzCoCDcwjRI3MJVUdvCtujZwnCs2sK8Yd3C&#xD;&#xa;iGbbwuSB2cImFNvCCI7rwoA/l8JLuYTCrOB9wgsMfMJoG4LCaWeFwkohjMJdoYvCYv6LwlnvjcKf&#xD;&#xa;nYzChXWPwlcejsL6fo/C5OmQwgVTj8IVMI/COiWRwoWFkcJ2tYzC8I6MwuQbjcJvEo/ClwGRwheQ&#xD;&#xa;lsK8+pbCN5qVwlielcJ905rCmu+fwst0ncIC/JvCdIWdws3snsKxC5zCfh2cwniFnMJRypzCtRag&#xD;&#xa;wuoCosJQt6DCzoegwhY9ocIWN6PCsNqkwrSlpMJ6maTCYpCkwmLvo8Li+KPCyEamwnBNqMLMcqrC&#xD;&#xa;v2GswoS+q8Kk86vCVACuwnvUr8JxZa/CqHqswrdXq8LqT6zCZsuswhZxrMLBX67CnmqvwpYyrsKc&#xD;&#xa;pq3CJFGvwghrsMK3y6/CXoCtwmWZr8ICi7DCgRezwogSs8Joq7LCm0Sxwuz/scIfibTCOOK1wlIM&#xD;&#xa;t8K87LfCj3K3wqDYs8KT1bLCVsW0wnZ0tcJGhLXCfPe0ws/ntcLGXrbCzAG1wtXdtcKxxrTC1Ay1&#xD;&#xa;wquGtcLjELbC8Zi2wl7rtsJBYbbCMF+1wrEutMKuibTCSFa1wpvktMIu3rTCtGe4wjaduMIKErfC&#xD;&#xa;SLa1wvS/tsJmZrjCdn63whjft8Ie47rCfdi5wmjpt8KKCLjCXmC5wsOQt8JDGbfCK4m4wmpvuMLL&#xD;&#xa;nLjC80q4wjUVusKunLjC1Be5wg4cuMLxCbjCwfW4wmi7ucIOdbvCbLG6whqdusKYErrCbpC4wmq0&#xD;&#xa;ucIoWrvCaNe6ws4iu8LSc7zCUNa7wuJZvMIwLL3CWe28wps2v8J2l77Cv3W+wvgavsKAwrzCQCy8&#xD;&#xa;wgBRu8Km8brChSa6wuM4u8IaaL3Cf5y9wg4hvMLur7vCIpO9wm0fvcIGNLzC7Le8wvKgvMKQrLzC&#xD;&#xa;p6+9wtYtvsJcxbzCQC29wjDqvcKeNbzCH2W8wpbZvsLCTL7CnjO+wuIsvsJs67vCwLq9wiKhvsLs&#xD;&#xa;o73C5Du9wqqhvcLwKr7C2kq/wqEMv8LVCb7Cpla+wsXpvMIs6bvC/fO8wueCvsIM4b3CxtC+wmTo&#xD;&#xa;vcI+arzCTNe8wiFNv8IvKL/Cpg+/woK1v8L4i7/CNv2+wmsVv8KWj77CVym+wnAlv8Joa8DCFDzA&#xD;&#xa;wiQYwcLSIcHCxILAwuxKvsJYm77CPoHAwiYPwcLuy77CcQa+wrB4vcKwYLzCxKW8worIvcIlzr/C&#xD;&#xa;OMC+wuRDvcJGZ7zCxFi9wuQzvMLPbbvCwIe+wm7bvcLm9L3COH6+wuuJvMK2B73CYb+9wqbxvMK/&#xD;&#xa;mL7CqIe9wvCavMKs7L3Ckau8wkpavMKt9LzCF8S+wmgKvsKCy73ClrG+wmIovcIns73Cmg+/wgw7&#xD;&#xa;wMI607/CpEq/wmwVvcJLsLvCMD68wuxdvcIeI7/C+bS+wpxfvsJyxsDC1tO/wmtrv8LNnb/CQiK+&#xD;&#xa;wlz7vcLa6L/CUMXBwtrQwcIAw8HCNJHBwvphwMKqc7/CSkW/wjkvwMK8ccHCHmDBwlKAwcKu+MDC&#xD;&#xa;zErCwuqgwsLa+MLC753DwmjuxcLEWMfCkePFwo47xsKnX8XC7tTCwuf3wsL+HcLCTcTBwmg6w8Is&#xD;&#xa;RMPC+qjDwiyGxMLi58TCnWvFwpjsxsKzCMbCyCTDwpM2wcJWGMPCvuDFwh42xsIfyMTCeLTFwuH7&#xD;&#xa;xMJctcfCVv3HwpTGx8J8b8jCqhjHwrgkx8LXNsfCZkLGwnxSxcL8csXCbu7FwsaQyMLa68fCo0XH&#xD;&#xa;woruxMJGHsbCORbJwry2yMLIUsfCxlfGwmLoxcLSPMnCYPDJwkw3yMKc7crC8vDLwug2y8Lu28vC&#xD;&#xa;OKvMwvLpysKGj8rCtNXLwrMay8KdGMrCUr3JwgIVy8J64MvCkbTJwjh4x8JGI8bCvBXHwnoPycKN&#xD;&#xa;Ss3CuC/Nwuywy8IkJ8zCx9/KwnB5ycKnk8nCenLJwnN6ycKc+sjCLFzJwuTrzMJkJM/CY5vOwoYO&#xD;&#xa;zsLU987CVKfNwiZZzcJQxNDCICHVwi0d18Kc29jCIF/YwtKo2MKeBNvCwpTawmY/2sJXPdvCZZXY&#xD;&#xa;whB818IQNdjCDF3XwtWC1sIGF9fCfFfXwkBy2MJ6+9nC1hfZwi5k2cJlfNjCnEPYwm/N1cKGOdXC&#xD;&#xa;Yk/XwgXL2MJSytfCgpTWwqTT1sJOGtnCrF/ZwtcT2cK08NjCscHZwpQ72sLJ/NrCy3zYwmCk18LE&#xD;&#xa;O9fC6hbYwtYU2cJN/dnC1EbZwrw/2cIqyNbCDr7Xwvb02cLQ+dnCaJvXwuYO18KSodnC1NnawtJJ&#xD;&#xa;18ISLtjC90nawoel2cIwl9jCi0XZwih328Ks7NjC5KzZwqui2cJw0tjCukLYws+O2MJaqtrCUuXa&#xD;&#xa;wviX2MIKxtfCnqXXwhjI2MJwAtvCIFvcwgCL2cJ0/djCdyXawh9H2cJ+ntfCy4TXwhqF2MJ68NnC&#xD;&#xa;CzvYwljT2cIkP9vCIs/bwjpB2sK2A9rCXt/awjZH2sIfltvCKWPcwjp53MKrGd3CaBPewj/03MJm&#xD;&#xa;U97CphfgwlJp3cKQpt3Crxjewm7d28Kq/9vCNNXcwqY728IUH9vCkirbwgIt28KK19zCjmzdwoBH&#xD;&#xa;3MIAUtvCUq3bwo8f28Ig09jCiyfZwhbx2sLWe9zCvgzbwmwI2sI2nNvC0lvdwg6128I8PNvCLufa&#xD;&#xa;wkyK28KkitzCJIDcwmAO28L0TNrCDHXawjla28IQkdzCoCDcwjRI3MJVUdvCtujZwnCs2sK8Yd3C&#xD;&#xa;iGbbwuSB2cImFNvCCI7r" leadInLength="0/1"  />
            </Keyframes>
           </Parameter>
           </Parameters>
          </GenericEffect>
          <GenericEffect id="9467" name = "Declipper" >
           <Parameters>
           <InterpolatingParam id="9468" interp="linr"  time="0/1" value="-1" leadInLength="0/1"   name="sensitivity"/>
           </Parameters>
          </GenericEffect>
          <GenericEffect id="9469" name = "Declicker" >
           <Parameters>
           <InterpolatingParam id="9470" interp="linr"  time="0/1" value="3" leadInLength="0/1"   name="sensitivity"/>
           </Parameters>
          </GenericEffect>
         </Effects>
         <Attributes>
          <Attribute id="9471" value="" name="ident"/>
          <Attribute id="9472" value="0" name="mixToMono"/>
         </Attributes>
         <MetaData>
          <entry key="WinSubProjectDisplayName" val=""/>
         </MetaData>
         <ExtraData>
          <Entry key="ZoomPanBin">
           <ZoomPanBin id="9473"  >
            <ZoomPanKeyframes>
            </ZoomPanKeyframes>
           </ZoomPanBin>
          </Entry>
          <Entry key="CursorEffectBin">
           <CursorEffectBin id="9474"  >
            <CursorEffectKeyframes>
            </CursorEffectKeyframes>
           </CursorEffectBin>
          </Entry>
         </ExtraData>
         <GenericTrack id="9475"  >
          <Attributes>
           <Attribute id="9476" value="" name="ident"/>
           <Attribute id="9477" value="0" name="audioMuted"/>
           <Attribute id="9478" value="0" name="videoHidden"/>
          </Attributes>
          <MetaData>
           <entry key="IsLocked" val="False"/>
           <entry key="WinTrackHeight" val="0"/>
          </MetaData>
          <Medias>
           <AMFile id="9479" start="0" duration="117" scalar="1/1" mediaStart="0/1" mediaDuration="117/1" trackNumber="0" src="29" channelNumber="0" >
            <Parameters>
             <InterpolatingParam id="9480" interp="linr"  time="0/1" value="1" leadInLength="0/1"  name="volume"/>
             <Parameter id="9481"  name="captions"/>
            </Parameters>
            <Attributes>
             <Attribute id="9482" value="" name="ident"/>
             <Attribute id="9483" value="48000" name="sampleRate"/>
             <Attribute id="9484" value="16" name="bitDepth"/>
             <Attribute id="9485" value="1" name="gain"/>
             <Attribute id="9486" value="0" name="mixToMono"/>
            </Attributes>
            <MetaData>
             <entry key="WinSubProjectDisplayName" val=""/>
            </MetaData>
           </AMFile>
           <AMFile id="9487" start="117" duration="272" scalar="1/1" mediaStart="131/1" mediaDuration="272/1" trackNumber="0" src="29" channelNumber="0" >
            <Parameters>
             <InterpolatingParam id="9488" interp="linr"  time="0/1" value="1" leadInLength="0/1"  name="volume"/>
             <Parameter id="9489"  name="captions"/>
            </Parameters>
            <Attributes>
             <Attribute id="9490" value="" name="ident"/>
             <Attribute id="9491" value="48000" name="sampleRate"/>
             <Attribute id="9492" value="16" name="bitDepth"/>
             <Attribute id="9493" value="1" name="gain"/>
             <Attribute id="9494" value="0" name="mixToMono"/>
            </Attributes>
            <MetaData>
             <entry key="WinSubProjectDisplayName" val=""/>
            </MetaData>
           </AMFile>
           <AMFile id="9495" start="389" duration="1309" scalar="1/1" mediaStart="415/1" mediaDuration="1309/1" trackNumber="0" src="29" channelNumber="0" >
            <Parameters>
             <InterpolatingParam id="9496" interp="linr"  time="0/1" value="1" leadInLength="0/1"  name="volume"/>
             <Parameter id="9497"  name="captions"/>
            </Parameters>
            <Attributes>
             <Attribute id="9498" value="" name="ident"/>
             <Attribute id="9499" value="48000" name="sampleRate"/>
             <Attribute id="9500" value="16" name="bitDepth"/>
             <Attribute id="9501" value="1" name="gain"/>
             <Attribute id="9502" value="0" name="mixToMono"/>
            </Attributes>
            <MetaData>
             <entry key="WinSubProjectDisplayName" val=""/>
            </MetaData>
           </AMFile>
           <AMFile id="9503" start="1698" duration="103" scalar="1/1" mediaStart="1734/1" mediaDuration="103/1" trackNumber="0" src="29" channelNumber="0" >
            <Parameters>
             <InterpolatingParam id="9504" interp="linr"  time="0/1" value="1" leadInLength="0/1"  name="volume"/>
             <Parameter id="9505"  name="captions"/>
            </Parameters>
            <Attributes>
             <Attribute id="9506" value="" name="ident"/>
             <Attribute id="9507" value="48000" name="sampleRate"/>
             <Attribute id="9508" value="16" name="bitDepth"/>
             <Attribute id="9509" value="1" name="gain"/>
             <Attribute id="9510" value="0" name="mixToMono"/>
            </Attributes>
            <MetaData>
             <entry key="WinSubProjectDisplayName" val=""/>
            </MetaData>
           </AMFile>
           <AMFile id="9511" start="1801" duration="245" scalar="1/1" mediaStart="2164/1" mediaDuration="245/1" trackNumber="0" src="29" channelNumber="0" >
            <Parameters>
             <InterpolatingParam id="9512" interp="linr"  time="0/1" value="1" leadInLength="0/1"  name="volume"/>
             <Parameter id="9513"  name="captions"/>
            </Parameters>
            <Attributes>
             <Attribute id="9514" value="" name="ident"/>
             <Attribute id="9515" value="48000" name="sampleRate"/>
             <Attribute id="9516" value="16" name="bitDepth"/>
             <Attribute id="9517" value="1" name="gain"/>
             <Attribute id="9518" value="0" name="mixToMono"/>
            </Attributes>
            <MetaData>
             <entry key="WinSubProjectDisplayName" val=""/>
            </MetaData>
           </AMFile>
           <AMFile id="9519" start="2046" duration="202" scalar="1/1" mediaStart="2637/1" mediaDuration="202/1" trackNumber="0" src="29" channelNumber="0" >
            <Parameters>
             <InterpolatingParam id="9520" interp="linr"  time="0/1" value="1" leadInLength="0/1"  name="volume"/>
             <Parameter id="9521"  name="captions"/>
            </Parameters>
            <Attributes>
             <Attribute id="9522" value="" name="ident"/>
             <Attribute id="9523" value="48000" name="sampleRate"/>
             <Attribute id="9524" value="16" name="bitDepth"/>
             <Attribute id="9525" value="1" name="gain"/>
             <Attribute id="9526" value="0" name="mixToMono"/>
            </Attributes>
            <MetaData>
             <entry key="WinSubProjectDisplayName" val=""/>
            </MetaData>
           </AMFile>
           <AMFile id="9527" start="2248" duration="185" scalar="1/1" mediaStart="2856/1" mediaDuration="185/1" trackNumber="0" src="29" channelNumber="0" >
            <Parameters>
             <InterpolatingParam id="9528" interp="linr"  time="0/1" value="1" leadInLength="0/1"  name="volume"/>
             <Parameter id="9529"  name="captions"/>
            </Parameters>
            <Attributes>
             <Attribute id="9530" value="" name="ident"/>
             <Attribute id="9531" value="48000" name="sampleRate"/>
             <Attribute id="9532" value="16" name="bitDepth"/>
             <Attribute id="9533" value="1" name="gain"/>
             <Attribute id="9534" value="0" name="mixToMono"/>
            </Attributes>
            <MetaData>
             <entry key="WinSubProjectDisplayName" val=""/>
            </MetaData>
           </AMFile>
           <AMFile id="9535" start="2433" duration="215" scalar="1/1" mediaStart="3054/1" mediaDuration="215/1" trackNumber="0" src="29" channelNumber="0" >
            <Parameters>
             <InterpolatingParam id="9536" interp="linr"  time="0/1" value="1" leadInLength="0/1"  name="volume"/>
             <Parameter id="9537"  name="captions"/>
            </Parameters>
            <Attributes>
             <Attribute id="9538" value="" name="ident"/>
             <Attribute id="9539" value="48000" name="sampleRate"/>
             <Attribute id="9540" value="16" name="bitDepth"/>
             <Attribute id="9541" value="1" name="gain"/>
             <Attribute id="9542" value="0" name="mixToMono"/>
            </Attributes>
            <MetaData>
             <entry key="WinSubProjectDisplayName" val=""/>
            </MetaData>
           </AMFile>
           <AMFile id="9543" start="2648" duration="155" scalar="1/1" mediaStart="3288/1" mediaDuration="155/1" trackNumber="0" src="29" channelNumber="0" >
            <Parameters>
             <InterpolatingParam id="9544" interp="linr"  time="0/1" value="1" leadInLength="0/1"  name="volume"/>
             <Parameter id="9545"  name="captions"/>
            </Parameters>
            <Attributes>
             <Attribute id="9546" value="" name="ident"/>
             <Attribute id="9547" value="48000" name="sampleRate"/>
             <Attribute id="9548" value="16" name="bitDepth"/>
             <Attribute id="9549" value="1" name="gain"/>
             <Attribute id="9550" value="0" name="mixToMono"/>
            </Attributes>
            <MetaData>
             <entry key="WinSubProjectDisplayName" val=""/>
            </MetaData>
           </AMFile>
           <AMFile id="9551" start="2803" duration="103" scalar="1/1" mediaStart="3450/1" mediaDuration="103/1" trackNumber="0" src="29" channelNumber="0" >
            <Parameters>
             <InterpolatingParam id="9552" interp="linr"  time="0/1" value="1" leadInLength="0/1"  name="volume"/>
             <Parameter id="9553"  name="captions"/>
            </Parameters>
            <Attributes>
             <Attribute id="9554" value="" name="ident"/>
             <Attribute id="9555" value="48000" name="sampleRate"/>
             <Attribute id="9556" value="16" name="bitDepth"/>
             <Attribute id="9557" value="1" name="gain"/>
             <Attribute id="9558" value="0" name="mixToMono"/>
            </Attributes>
            <MetaData>
             <entry key="WinSubProjectDisplayName" val=""/>
            </MetaData>
           </AMFile>
           <AMFile id="9559" start="2906" duration="2683" scalar="1/1" mediaStart="3564/1" mediaDuration="2683/1" trackNumber="0" src="29" channelNumber="0" >
            <Parameters>
             <InterpolatingParam id="9560" interp="linr"  time="0/1" value="1" leadInLength="0/1"  name="volume"/>
             <Parameter id="9561"  name="captions"/>
            </Parameters>
            <Attributes>
             <Attribute id="9562" value="" name="ident"/>
             <Attribute id="9563" value="48000" name="sampleRate"/>
             <Attribute id="9564" value="16" name="bitDepth"/>
             <Attribute id="9565" value="1" name="gain"/>
             <Attribute id="9566" value="0" name="mixToMono"/>
            </Attributes>
            <MetaData>
             <entry key="WinSubProjectDisplayName" val=""/>
            </MetaData>
           </AMFile>
           <AMFile id="9567" start="5589" duration="143" scalar="1/1" mediaStart="6247/1" mediaDuration="143/1" trackNumber="0" src="29" channelNumber="0" >
            <Parameters>
             <InterpolatingParam id="9568" interp="linr"  time="0/1" value="1" leadInLength="0/1"  name="volume"/>
             <Parameter id="9569"  name="captions"/>
            </Parameters>
            <Attributes>
             <Attribute id="9570" value="" name="ident"/>
             <Attribute id="9571" value="48000" name="sampleRate"/>
             <Attribute id="9572" value="16" name="bitDepth"/>
             <Attribute id="9573" value="1" name="gain"/>
             <Attribute id="9574" value="0" name="mixToMono"/>
            </Attributes>
            <MetaData>
             <entry key="WinSubProjectDisplayName" val=""/>
            </MetaData>
           </AMFile>
           <AMFile id="9575" start="5732" duration="285" scalar="1/1" mediaStart="6413/1" mediaDuration="285/1" trackNumber="0" src="29" channelNumber="0" >
            <Parameters>
             <InterpolatingParam id="9576" interp="linr"  time="0/1" value="1" leadInLength="0/1"  name="volume"/>
             <Parameter id="9577"  name="captions"/>
            </Parameters>
            <Attributes>
             <Attribute id="9578" value="" name="ident"/>
             <Attribute id="9579" value="48000" name="sampleRate"/>
             <Attribute id="9580" value="16" name="bitDepth"/>
             <Attribute id="9581" value="1" name="gain"/>
             <Attribute id="9582" value="0" name="mixToMono"/>
            </Attributes>
            <MetaData>
             <entry key="WinSubProjectDisplayName" val=""/>
            </MetaData>
           </AMFile>
           <AMFile id="9583" start="6017" duration="102" scalar="1/1" mediaStart="6729/1" mediaDuration="102/1" trackNumber="0" src="29" channelNumber="0" >
            <Parameters>
             <InterpolatingParam id="9584" interp="linr"  time="0/1" value="1" leadInLength="0/1"  name="volume"/>
             <Parameter id="9585"  name="captions"/>
            </Parameters>
            <Attributes>
             <Attribute id="9586" value="" name="ident"/>
             <Attribute id="9587" value="48000" name="sampleRate"/>
             <Attribute id="9588" value="16" name="bitDepth"/>
             <Attribute id="9589" value="1" name="gain"/>
             <Attribute id="9590" value="0" name="mixToMono"/>
            </Attributes>
            <MetaData>
             <entry key="WinSubProjectDisplayName" val=""/>
            </MetaData>
           </AMFile>
           <AMFile id="9591" start="6119" duration="234" scalar="1/1" mediaStart="6848/1" mediaDuration="234/1" trackNumber="0" src="29" channelNumber="0" >
            <Parameters>
             <InterpolatingParam id="9592" interp="linr"  time="0/1" value="1" leadInLength="0/1"  name="volume"/>
             <Parameter id="9593"  name="captions"/>
            </Parameters>
            <Attributes>
             <Attribute id="9594" value="" name="ident"/>
             <Attribute id="9595" value="48000" name="sampleRate"/>
             <Attribute id="9596" value="16" name="bitDepth"/>
             <Attribute id="9597" value="1" name="gain"/>
             <Attribute id="9598" value="0" name="mixToMono"/>
            </Attributes>
            <MetaData>
             <entry key="WinSubProjectDisplayName" val=""/>
            </MetaData>
           </AMFile>
           <AMFile id="9599" start="6353" duration="107" scalar="1/1" mediaStart="7089/1" mediaDuration="107/1" trackNumber="0" src="29" channelNumber="0" >
            <Parameters>
             <InterpolatingParam id="9600" interp="linr"  time="0/1" value="1" leadInLength="0/1"  name="volume"/>
             <Parameter id="9601"  name="captions"/>
            </Parameters>
            <Attributes>
             <Attribute id="9602" value="" name="ident"/>
             <Attribute id="9603" value="48000" name="sampleRate"/>
             <Attribute id="9604" value="16" name="bitDepth"/>
             <Attribute id="9605" value="1" name="gain"/>
             <Attribute id="9606" value="0" name="mixToMono"/>
            </Attributes>
            <MetaData>
             <entry key="WinSubProjectDisplayName" val=""/>
            </MetaData>
           </AMFile>
           <AMFile id="9607" start="6460" duration="67" scalar="1/1" mediaStart="7207/1" mediaDuration="67/1" trackNumber="0" src="29" channelNumber="0" >
            <Parameters>
             <InterpolatingParam id="9608" interp="linr"  time="0/1" value="1" leadInLength="0/1"  name="volume"/>
             <Parameter id="9609"  name="captions"/>
            </Parameters>
            <Attributes>
             <Attribute id="9610" value="" name="ident"/>
             <Attribute id="9611" value="48000" name="sampleRate"/>
             <Attribute id="9612" value="16" name="bitDepth"/>
             <Attribute id="9613" value="1" name="gain"/>
             <Attribute id="9614" value="0" name="mixToMono"/>
            </Attributes>
            <MetaData>
             <entry key="WinSubProjectDisplayName" val=""/>
            </MetaData>
           </AMFile>
           <AMFile id="9615" start="6527" duration="226" scalar="1/1" mediaStart="7297/1" mediaDuration="226/1" trackNumber="0" src="29" channelNumber="0" >
            <Parameters>
             <InterpolatingParam id="9616" interp="linr"  time="0/1" value="1" leadInLength="0/1"  name="volume"/>
             <Parameter id="9617"  name="captions"/>
            </Parameters>
            <Attributes>
             <Attribute id="9618" value="" name="ident"/>
             <Attribute id="9619" value="48000" name="sampleRate"/>
             <Attribute id="9620" value="16" name="bitDepth"/>
             <Attribute id="9621" value="1" name="gain"/>
             <Attribute id="9622" value="0" name="mixToMono"/>
            </Attributes>
            <MetaData>
             <entry key="WinSubProjectDisplayName" val=""/>
            </MetaData>
           </AMFile>
           <AMFile id="9623" start="6753" duration="117" scalar="1/1" mediaStart="7540/1" mediaDuration="117/1" trackNumber="0" src="29" channelNumber="0" >
            <Parameters>
             <InterpolatingParam id="9624" interp="linr"  time="0/1" value="1" leadInLength="0/1"  name="volume"/>
             <Parameter id="9625"  name="captions"/>
            </Parameters>
            <Attributes>
             <Attribute id="9626" value="" name="ident"/>
             <Attribute id="9627" value="48000" name="sampleRate"/>
             <Attribute id="9628" value="16" name="bitDepth"/>
             <Attribute id="9629" value="1" name="gain"/>
             <Attribute id="9630" value="0" name="mixToMono"/>
            </Attributes>
            <MetaData>
             <entry key="WinSubProjectDisplayName" val=""/>
            </MetaData>
           </AMFile>
           <AMFile id="9631" start="6870" duration="52" scalar="1/1" mediaStart="7796/1" mediaDuration="52/1" trackNumber="0" src="29" channelNumber="0" >
            <Parameters>
             <InterpolatingParam id="9632" interp="linr"  time="0/1" value="1" leadInLength="0/1"  name="volume"/>
             <Parameter id="9633"  name="captions"/>
            </Parameters>
            <Attributes>
             <Attribute id="9634" value="" name="ident"/>
             <Attribute id="9635" value="48000" name="sampleRate"/>
             <Attribute id="9636" value="16" name="bitDepth"/>
             <Attribute id="9637" value="1" name="gain"/>
             <Attribute id="9638" value="0" name="mixToMono"/>
            </Attributes>
            <MetaData>
             <entry key="WinSubProjectDisplayName" val=""/>
            </MetaData>
           </AMFile>
           <AMFile id="9639" start="6922" duration="100" scalar="1/1" mediaStart="8187/1" mediaDuration="100/1" trackNumber="0" src="29" channelNumber="0" >
            <Parameters>
             <InterpolatingParam id="9640" interp="linr"  time="0/1" value="1" leadInLength="0/1"  name="volume"/>
             <Parameter id="9641"  name="captions"/>
            </Parameters>
            <Attributes>
             <Attribute id="9642" value="" name="ident"/>
             <Attribute id="9643" value="48000" name="sampleRate"/>
             <Attribute id="9644" value="16" name="bitDepth"/>
             <Attribute id="9645" value="1" name="gain"/>
             <Attribute id="9646" value="0" name="mixToMono"/>
            </Attributes>
            <MetaData>
             <entry key="WinSubProjectDisplayName" val=""/>
            </MetaData>
           </AMFile>
           <AMFile id="9647" start="7022" duration="1377" scalar="1/1" mediaStart="8303/1" mediaDuration="1377/1" trackNumber="0" src="29" channelNumber="0" >
            <Parameters>
             <InterpolatingParam id="9648" interp="linr"  time="0/1" value="1" leadInLength="0/1"  name="volume"/>
             <Parameter id="9649"  name="captions"/>
            </Parameters>
            <Attributes>
             <Attribute id="9650" value="" name="ident"/>
             <Attribute id="9651" value="48000" name="sampleRate"/>
             <Attribute id="9652" value="16" name="bitDepth"/>
             <Attribute id="9653" value="1" name="gain"/>
             <Attribute id="9654" value="0" name="mixToMono"/>
            </Attributes>
            <MetaData>
             <entry key="WinSubProjectDisplayName" val=""/>
            </MetaData>
           </AMFile>
           <AMFile id="9655" start="8399" duration="3717" scalar="1/1" mediaStart="9929/1" mediaDuration="3717/1" trackNumber="0" src="29" channelNumber="0" >
            <Parameters>
             <InterpolatingParam id="9656" interp="linr"  time="0/1" value="1" leadInLength="0/1"  name="volume"/>
             <Parameter id="9657"  name="captions"/>
            </Parameters>
            <Attributes>
             <Attribute id="9658" value="" name="ident"/>
             <Attribute id="9659" value="48000" name="sampleRate"/>
             <Attribute id="9660" value="16" name="bitDepth"/>
             <Attribute id="9661" value="1" name="gain"/>
             <Attribute id="9662" value="0" name="mixToMono"/>
            </Attributes>
            <MetaData>
             <entry key="WinSubProjectDisplayName" val=""/>
            </MetaData>
           </AMFile>
          </Medias>
         </GenericTrack>
        </StitchedMedia>
        <StitchedMedia id="9663" start="7983" duration="408" scalar="1/1" mediaStart="10098/1" mediaDuration="408/1" minMediaStart="0/1" >
         <Transformer>
          <VectorParam id="9664"  name="translation">
           <InterpolatingParam id="9665" interp="linr"  time="0/1" value="0" leadInLength="0/1"  />
           <InterpolatingParam id="9666" interp="linr"  time="0/1" value="0" leadInLength="0/1"  />
           <InterpolatingParam id="9667" interp="linr"  time="0/1" value="0" leadInLength="0/1"  />
          </VectorParam>
          <VectorParam id="9668"  name="rotation">
           <InterpolatingParam id="9669" interp="linr"  time="0/1" value="0" leadInLength="0/1"  />
           <InterpolatingParam id="9670" interp="linr"  time="0/1" value="0" leadInLength="0/1"  />
           <InterpolatingParam id="9671" interp="linr"  time="0/1" value="0" leadInLength="0/1"  />
          </VectorParam>
          <VectorParam id="9672"  name="shear">
           <InterpolatingParam id="9673" interp="linr"  time="0/1" value="0" leadInLength="0/1"  />
           <InterpolatingParam id="9674" interp="linr"  time="0/1" value="0" leadInLength="0/1"  />
           <InterpolatingParam id="9675" interp="linr"  time="0/1" value="0" leadInLength="0/1"  />
          </VectorParam>
          <VectorParam id="9676"  name="scale">
           <InterpolatingParam id="9677" interp="linr"  time="0/1" value="1" leadInLength="0/1"  />
           <InterpolatingParam id="9678" interp="linr"  time="0/1" value="1" leadInLength="0/1"  />
           <InterpolatingParam id="9679" interp="linr"  time="0/1" value="1" leadInLength="0/1"  />
          </VectorParam>
          <VectorParam id="9680"  name="anchor">
           <InterpolatingParam id="9681" interp="linr"  time="0/1" value="0" leadInLength="0/1"  />
           <InterpolatingParam id="9682" interp="linr"  time="0/1" value="0" leadInLength="0/1"  />
           <InterpolatingParam id="9683" interp="linr"  time="0/1" value="0" leadInLength="0/1"  />
          </VectorParam>
         </Transformer>
         <Parameters>
          <InterpolatingParam id="9684" interp="linr"  time="0/1" value="1" leadInLength="0/1"  name="cursorOpacity"/>
          <InterpolatingParam id="9685" interp="linr"  time="0/1" value="1" leadInLength="0/1"  name="cursorScale"/>
          <InterpolatingParam id="9686" interp="linr"  time="0/1" value="1.5625" leadInLength="0/1"  name="volume"/>
          <Parameter id="9687"  name="captions"/>
         </Parameters>
         <Effects>
          <GenericEffect id="9688" name = "WinCompression" >
           <Parameters>
           <InterpolatingParam id="9689" interp="linr"  time="0/1" value="0" leadInLength="0/1"   name="attack"/>
           <InterpolatingParam id="9690" interp="linr"  time="0/1" value="9" leadInLength="0/1"   name="gain"/>
           <Parameter id="9691"   name="preset">
            <Keyframes>
            <Keyframe id="9692"  time="0/1" value="1" leadInLength="0/1"  />
            </Keyframes>
           </Parameter>
           <InterpolatingParam id="9693" interp="linr"  time="0/1" value="10" leadInLength="0/1"   name="ratio"/>
           <InterpolatingParam id="9694" interp="linr"  time="0/1" value="3500" leadInLength="0/1"   name="release"/>
           <InterpolatingParam id="9695" interp="linr"  time="0/1" value="-20" leadInLength="0/1"   name="threshold"/>
           </Parameters>
          </GenericEffect>
          <GenericEffect id="9696" name = "NoiseReduction" >
           <Parameters>
           <InterpolatingParam id="9697" interp="linr"  time="0/1" value="20" leadInLength="0/1"   name="denoiserAmount"/>
           <InterpolatingParam id="9698" interp="linr"  time="0/1" value="0" leadInLength="0/1"   name="denoiserThreshold"/>
           <Parameter id="9699"   name="noiseProfile">
            <Keyframes>
            <Keyframe id="9700"  time="0/1" value="FBAAAAIAAABErAAAAQIAAIA/l8JLuYTCrOB9wgsMfMJoG4LCaWeFwkohjMJdoYvCYv6LwlnvjcKf&#xD;&#xa;nYzChXWPwlcejsL6fo/C5OmQwgVTj8IVMI/COiWRwoWFkcJ2tYzC8I6MwuQbjcJvEo/ClwGRwheQ&#xD;&#xa;lsK8+pbCN5qVwlielcJ905rCmu+fwst0ncIC/JvCdIWdws3snsKxC5zCfh2cwniFnMJRypzCtRag&#xD;&#xa;wuoCosJQt6DCzoegwhY9ocIWN6PCsNqkwrSlpMJ6maTCYpCkwmLvo8Li+KPCyEamwnBNqMLMcqrC&#xD;&#xa;v2GswoS+q8Kk86vCVACuwnvUr8JxZa/CqHqswrdXq8LqT6zCZsuswhZxrMLBX67CnmqvwpYyrsKc&#xD;&#xa;pq3CJFGvwghrsMK3y6/CXoCtwmWZr8ICi7DCgRezwogSs8Joq7LCm0Sxwuz/scIfibTCOOK1wlIM&#xD;&#xa;t8K87LfCj3K3wqDYs8KT1bLCVsW0wnZ0tcJGhLXCfPe0ws/ntcLGXrbCzAG1wtXdtcKxxrTC1Ay1&#xD;&#xa;wquGtcLjELbC8Zi2wl7rtsJBYbbCMF+1wrEutMKuibTCSFa1wpvktMIu3rTCtGe4wjaduMIKErfC&#xD;&#xa;SLa1wvS/tsJmZrjCdn63whjft8Ie47rCfdi5wmjpt8KKCLjCXmC5wsOQt8JDGbfCK4m4wmpvuMLL&#xD;&#xa;nLjC80q4wjUVusKunLjC1Be5wg4cuMLxCbjCwfW4wmi7ucIOdbvCbLG6whqdusKYErrCbpC4wmq0&#xD;&#xa;ucIoWrvCaNe6ws4iu8LSc7zCUNa7wuJZvMIwLL3CWe28wps2v8J2l77Cv3W+wvgavsKAwrzCQCy8&#xD;&#xa;wgBRu8Km8brChSa6wuM4u8IaaL3Cf5y9wg4hvMLur7vCIpO9wm0fvcIGNLzC7Le8wvKgvMKQrLzC&#xD;&#xa;p6+9wtYtvsJcxbzCQC29wjDqvcKeNbzCH2W8wpbZvsLCTL7CnjO+wuIsvsJs67vCwLq9wiKhvsLs&#xD;&#xa;o73C5Du9wqqhvcLwKr7C2kq/wqEMv8LVCb7Cpla+wsXpvMIs6bvC/fO8wueCvsIM4b3CxtC+wmTo&#xD;&#xa;vcI+arzCTNe8wiFNv8IvKL/Cpg+/woK1v8L4i7/CNv2+wmsVv8KWj77CVym+wnAlv8Joa8DCFDzA&#xD;&#xa;wiQYwcLSIcHCxILAwuxKvsJYm77CPoHAwiYPwcLuy77CcQa+wrB4vcKwYLzCxKW8worIvcIlzr/C&#xD;&#xa;OMC+wuRDvcJGZ7zCxFi9wuQzvMLPbbvCwIe+wm7bvcLm9L3COH6+wuuJvMK2B73CYb+9wqbxvMK/&#xD;&#xa;mL7CqIe9wvCavMKs7L3Ckau8wkpavMKt9LzCF8S+wmgKvsKCy73ClrG+wmIovcIns73Cmg+/wgw7&#xD;&#xa;wMI607/CpEq/wmwVvcJLsLvCMD68wuxdvcIeI7/C+bS+wpxfvsJyxsDC1tO/wmtrv8LNnb/CQiK+&#xD;&#xa;wlz7vcLa6L/CUMXBwtrQwcIAw8HCNJHBwvphwMKqc7/CSkW/wjkvwMK8ccHCHmDBwlKAwcKu+MDC&#xD;&#xa;zErCwuqgwsLa+MLC753DwmjuxcLEWMfCkePFwo47xsKnX8XC7tTCwuf3wsL+HcLCTcTBwmg6w8Is&#xD;&#xa;RMPC+qjDwiyGxMLi58TCnWvFwpjsxsKzCMbCyCTDwpM2wcJWGMPCvuDFwh42xsIfyMTCeLTFwuH7&#xD;&#xa;xMJctcfCVv3HwpTGx8J8b8jCqhjHwrgkx8LXNsfCZkLGwnxSxcL8csXCbu7FwsaQyMLa68fCo0XH&#xD;&#xa;woruxMJGHsbCORbJwry2yMLIUsfCxlfGwmLoxcLSPMnCYPDJwkw3yMKc7crC8vDLwug2y8Lu28vC&#xD;&#xa;OKvMwvLpysKGj8rCtNXLwrMay8KdGMrCUr3JwgIVy8J64MvCkbTJwjh4x8JGI8bCvBXHwnoPycKN&#xD;&#xa;Ss3CuC/Nwuywy8IkJ8zCx9/KwnB5ycKnk8nCenLJwnN6ycKc+sjCLFzJwuTrzMJkJM/CY5vOwoYO&#xD;&#xa;zsLU987CVKfNwiZZzcJQxNDCICHVwi0d18Kc29jCIF/YwtKo2MKeBNvCwpTawmY/2sJXPdvCZZXY&#xD;&#xa;whB818IQNdjCDF3XwtWC1sIGF9fCfFfXwkBy2MJ6+9nC1hfZwi5k2cJlfNjCnEPYwm/N1cKGOdXC&#xD;&#xa;Yk/XwgXL2MJSytfCgpTWwqTT1sJOGtnCrF/ZwtcT2cK08NjCscHZwpQ72sLJ/NrCy3zYwmCk18LE&#xD;&#xa;O9fC6hbYwtYU2cJN/dnC1EbZwrw/2cIqyNbCDr7Xwvb02cLQ+dnCaJvXwuYO18KSodnC1NnawtJJ&#xD;&#xa;18ISLtjC90nawoel2cIwl9jCi0XZwih328Ks7NjC5KzZwqui2cJw0tjCukLYws+O2MJaqtrCUuXa&#xD;&#xa;wviX2MIKxtfCnqXXwhjI2MJwAtvCIFvcwgCL2cJ0/djCdyXawh9H2cJ+ntfCy4TXwhqF2MJ68NnC&#xD;&#xa;CzvYwljT2cIkP9vCIs/bwjpB2sK2A9rCXt/awjZH2sIfltvCKWPcwjp53MKrGd3CaBPewj/03MJm&#xD;&#xa;U97CphfgwlJp3cKQpt3Crxjewm7d28Kq/9vCNNXcwqY728IUH9vCkirbwgIt28KK19zCjmzdwoBH&#xD;&#xa;3MIAUtvCUq3bwo8f28Ig09jCiyfZwhbx2sLWe9zCvgzbwmwI2sI2nNvC0lvdwg6128I8PNvCLufa&#xD;&#xa;wkyK28KkitzCJIDcwmAO28L0TNrCDHXawjla28IQkdzCoCDcwjRI3MJVUdvCtujZwnCs2sK8Yd3C&#xD;&#xa;iGbbwuSB2cImFNvCCI7rwoA/l8JLuYTCrOB9wgsMfMJoG4LCaWeFwkohjMJdoYvCYv6LwlnvjcKf&#xD;&#xa;nYzChXWPwlcejsL6fo/C5OmQwgVTj8IVMI/COiWRwoWFkcJ2tYzC8I6MwuQbjcJvEo/ClwGRwheQ&#xD;&#xa;lsK8+pbCN5qVwlielcJ905rCmu+fwst0ncIC/JvCdIWdws3snsKxC5zCfh2cwniFnMJRypzCtRag&#xD;&#xa;wuoCosJQt6DCzoegwhY9ocIWN6PCsNqkwrSlpMJ6maTCYpCkwmLvo8Li+KPCyEamwnBNqMLMcqrC&#xD;&#xa;v2GswoS+q8Kk86vCVACuwnvUr8JxZa/CqHqswrdXq8LqT6zCZsuswhZxrMLBX67CnmqvwpYyrsKc&#xD;&#xa;pq3CJFGvwghrsMK3y6/CXoCtwmWZr8ICi7DCgRezwogSs8Joq7LCm0Sxwuz/scIfibTCOOK1wlIM&#xD;&#xa;t8K87LfCj3K3wqDYs8KT1bLCVsW0wnZ0tcJGhLXCfPe0ws/ntcLGXrbCzAG1wtXdtcKxxrTC1Ay1&#xD;&#xa;wquGtcLjELbC8Zi2wl7rtsJBYbbCMF+1wrEutMKuibTCSFa1wpvktMIu3rTCtGe4wjaduMIKErfC&#xD;&#xa;SLa1wvS/tsJmZrjCdn63whjft8Ie47rCfdi5wmjpt8KKCLjCXmC5wsOQt8JDGbfCK4m4wmpvuMLL&#xD;&#xa;nLjC80q4wjUVusKunLjC1Be5wg4cuMLxCbjCwfW4wmi7ucIOdbvCbLG6whqdusKYErrCbpC4wmq0&#xD;&#xa;ucIoWrvCaNe6ws4iu8LSc7zCUNa7wuJZvMIwLL3CWe28wps2v8J2l77Cv3W+wvgavsKAwrzCQCy8&#xD;&#xa;wgBRu8Km8brChSa6wuM4u8IaaL3Cf5y9wg4hvMLur7vCIpO9wm0fvcIGNLzC7Le8wvKgvMKQrLzC&#xD;&#xa;p6+9wtYtvsJcxbzCQC29wjDqvcKeNbzCH2W8wpbZvsLCTL7CnjO+wuIsvsJs67vCwLq9wiKhvsLs&#xD;&#xa;o73C5Du9wqqhvcLwKr7C2kq/wqEMv8LVCb7Cpla+wsXpvMIs6bvC/fO8wueCvsIM4b3CxtC+wmTo&#xD;&#xa;vcI+arzCTNe8wiFNv8IvKL/Cpg+/woK1v8L4i7/CNv2+wmsVv8KWj77CVym+wnAlv8Joa8DCFDzA&#xD;&#xa;wiQYwcLSIcHCxILAwuxKvsJYm77CPoHAwiYPwcLuy77CcQa+wrB4vcKwYLzCxKW8worIvcIlzr/C&#xD;&#xa;OMC+wuRDvcJGZ7zCxFi9wuQzvMLPbbvCwIe+wm7bvcLm9L3COH6+wuuJvMK2B73CYb+9wqbxvMK/&#xD;&#xa;mL7CqIe9wvCavMKs7L3Ckau8wkpavMKt9LzCF8S+wmgKvsKCy73ClrG+wmIovcIns73Cmg+/wgw7&#xD;&#xa;wMI607/CpEq/wmwVvcJLsLvCMD68wuxdvcIeI7/C+bS+wpxfvsJyxsDC1tO/wmtrv8LNnb/CQiK+&#xD;&#xa;wlz7vcLa6L/CUMXBwtrQwcIAw8HCNJHBwvphwMKqc7/CSkW/wjkvwMK8ccHCHmDBwlKAwcKu+MDC&#xD;&#xa;zErCwuqgwsLa+MLC753DwmjuxcLEWMfCkePFwo47xsKnX8XC7tTCwuf3wsL+HcLCTcTBwmg6w8Is&#xD;&#xa;RMPC+qjDwiyGxMLi58TCnWvFwpjsxsKzCMbCyCTDwpM2wcJWGMPCvuDFwh42xsIfyMTCeLTFwuH7&#xD;&#xa;xMJctcfCVv3HwpTGx8J8b8jCqhjHwrgkx8LXNsfCZkLGwnxSxcL8csXCbu7FwsaQyMLa68fCo0XH&#xD;&#xa;woruxMJGHsbCORbJwry2yMLIUsfCxlfGwmLoxcLSPMnCYPDJwkw3yMKc7crC8vDLwug2y8Lu28vC&#xD;&#xa;OKvMwvLpysKGj8rCtNXLwrMay8KdGMrCUr3JwgIVy8J64MvCkbTJwjh4x8JGI8bCvBXHwnoPycKN&#xD;&#xa;Ss3CuC/Nwuywy8IkJ8zCx9/KwnB5ycKnk8nCenLJwnN6ycKc+sjCLFzJwuTrzMJkJM/CY5vOwoYO&#xD;&#xa;zsLU987CVKfNwiZZzcJQxNDCICHVwi0d18Kc29jCIF/YwtKo2MKeBNvCwpTawmY/2sJXPdvCZZXY&#xD;&#xa;whB818IQNdjCDF3XwtWC1sIGF9fCfFfXwkBy2MJ6+9nC1hfZwi5k2cJlfNjCnEPYwm/N1cKGOdXC&#xD;&#xa;Yk/XwgXL2MJSytfCgpTWwqTT1sJOGtnCrF/ZwtcT2cK08NjCscHZwpQ72sLJ/NrCy3zYwmCk18LE&#xD;&#xa;O9fC6hbYwtYU2cJN/dnC1EbZwrw/2cIqyNbCDr7Xwvb02cLQ+dnCaJvXwuYO18KSodnC1NnawtJJ&#xD;&#xa;18ISLtjC90nawoel2cIwl9jCi0XZwih328Ks7NjC5KzZwqui2cJw0tjCukLYws+O2MJaqtrCUuXa&#xD;&#xa;wviX2MIKxtfCnqXXwhjI2MJwAtvCIFvcwgCL2cJ0/djCdyXawh9H2cJ+ntfCy4TXwhqF2MJ68NnC&#xD;&#xa;CzvYwljT2cIkP9vCIs/bwjpB2sK2A9rCXt/awjZH2sIfltvCKWPcwjp53MKrGd3CaBPewj/03MJm&#xD;&#xa;U97CphfgwlJp3cKQpt3Crxjewm7d28Kq/9vCNNXcwqY728IUH9vCkirbwgIt28KK19zCjmzdwoBH&#xD;&#xa;3MIAUtvCUq3bwo8f28Ig09jCiyfZwhbx2sLWe9zCvgzbwmwI2sI2nNvC0lvdwg6128I8PNvCLufa&#xD;&#xa;wkyK28KkitzCJIDcwmAO28L0TNrCDHXawjla28IQkdzCoCDcwjRI3MJVUdvCtujZwnCs2sK8Yd3C&#xD;&#xa;iGbbwuSB2cImFNvCCI7r" leadInLength="0/1"  />
            </Keyframes>
           </Parameter>
           </Parameters>
          </GenericEffect>
          <GenericEffect id="9701" name = "Declipper" >
           <Parameters>
           <InterpolatingParam id="9702" interp="linr"  time="0/1" value="-1" leadInLength="0/1"   name="sensitivity"/>
           </Parameters>
          </GenericEffect>
          <GenericEffect id="9703" name = "Declicker" >
           <Parameters>
           <InterpolatingParam id="9704" interp="linr"  time="0/1" value="3" leadInLength="0/1"   name="sensitivity"/>
           </Parameters>
          </GenericEffect>
         </Effects>
         <Attributes>
          <Attribute id="9705" value="" name="ident"/>
          <Attribute id="9706" value="0" name="mixToMono"/>
         </Attributes>
         <MetaData>
          <entry key="WinSubProjectDisplayName" val=""/>
         </MetaData>
         <ExtraData>
          <Entry key="ZoomPanBin">
           <ZoomPanBin id="9707"  >
            <ZoomPanKeyframes>
            </ZoomPanKeyframes>
           </ZoomPanBin>
          </Entry>
          <Entry key="CursorEffectBin">
           <CursorEffectBin id="9708"  >
            <CursorEffectKeyframes>
            </CursorEffectKeyframes>
           </CursorEffectBin>
          </Entry>
         </ExtraData>
         <GenericTrack id="9709"  >
          <Attributes>
           <Attribute id="9710" value="" name="ident"/>
           <Attribute id="9711" value="0" name="audioMuted"/>
           <Attribute id="9712" value="0" name="videoHidden"/>
          </Attributes>
          <MetaData>
           <entry key="IsLocked" val="False"/>
           <entry key="WinTrackHeight" val="0"/>
          </MetaData>
          <Medias>
           <AMFile id="9713" start="0" duration="117" scalar="1/1" mediaStart="0/1" mediaDuration="117/1" trackNumber="0" src="29" channelNumber="0" >
            <Parameters>
             <InterpolatingParam id="9714" interp="linr"  time="0/1" value="1" leadInLength="0/1"  name="volume"/>
             <Parameter id="9715"  name="captions"/>
            </Parameters>
            <Attributes>
             <Attribute id="9716" value="" name="ident"/>
             <Attribute id="9717" value="48000" name="sampleRate"/>
             <Attribute id="9718" value="16" name="bitDepth"/>
             <Attribute id="9719" value="1" name="gain"/>
             <Attribute id="9720" value="0" name="mixToMono"/>
            </Attributes>
            <MetaData>
             <entry key="WinSubProjectDisplayName" val=""/>
            </MetaData>
           </AMFile>
           <AMFile id="9721" start="117" duration="272" scalar="1/1" mediaStart="131/1" mediaDuration="272/1" trackNumber="0" src="29" channelNumber="0" >
            <Parameters>
             <InterpolatingParam id="9722" interp="linr"  time="0/1" value="1" leadInLength="0/1"  name="volume"/>
             <Parameter id="9723"  name="captions"/>
            </Parameters>
            <Attributes>
             <Attribute id="9724" value="" name="ident"/>
             <Attribute id="9725" value="48000" name="sampleRate"/>
             <Attribute id="9726" value="16" name="bitDepth"/>
             <Attribute id="9727" value="1" name="gain"/>
             <Attribute id="9728" value="0" name="mixToMono"/>
            </Attributes>
            <MetaData>
             <entry key="WinSubProjectDisplayName" val=""/>
            </MetaData>
           </AMFile>
           <AMFile id="9729" start="389" duration="1309" scalar="1/1" mediaStart="415/1" mediaDuration="1309/1" trackNumber="0" src="29" channelNumber="0" >
            <Parameters>
             <InterpolatingParam id="9730" interp="linr"  time="0/1" value="1" leadInLength="0/1"  name="volume"/>
             <Parameter id="9731"  name="captions"/>
            </Parameters>
            <Attributes>
             <Attribute id="9732" value="" name="ident"/>
             <Attribute id="9733" value="48000" name="sampleRate"/>
             <Attribute id="9734" value="16" name="bitDepth"/>
             <Attribute id="9735" value="1" name="gain"/>
             <Attribute id="9736" value="0" name="mixToMono"/>
            </Attributes>
            <MetaData>
             <entry key="WinSubProjectDisplayName" val=""/>
            </MetaData>
           </AMFile>
           <AMFile id="9737" start="1698" duration="103" scalar="1/1" mediaStart="1734/1" mediaDuration="103/1" trackNumber="0" src="29" channelNumber="0" >
            <Parameters>
             <InterpolatingParam id="9738" interp="linr"  time="0/1" value="1" leadInLength="0/1"  name="volume"/>
             <Parameter id="9739"  name="captions"/>
            </Parameters>
            <Attributes>
             <Attribute id="9740" value="" name="ident"/>
             <Attribute id="9741" value="48000" name="sampleRate"/>
             <Attribute id="9742" value="16" name="bitDepth"/>
             <Attribute id="9743" value="1" name="gain"/>
             <Attribute id="9744" value="0" name="mixToMono"/>
            </Attributes>
            <MetaData>
             <entry key="WinSubProjectDisplayName" val=""/>
            </MetaData>
           </AMFile>
           <AMFile id="9745" start="1801" duration="245" scalar="1/1" mediaStart="2164/1" mediaDuration="245/1" trackNumber="0" src="29" channelNumber="0" >
            <Parameters>
             <InterpolatingParam id="9746" interp="linr"  time="0/1" value="1" leadInLength="0/1"  name="volume"/>
             <Parameter id="9747"  name="captions"/>
            </Parameters>
            <Attributes>
             <Attribute id="9748" value="" name="ident"/>
             <Attribute id="9749" value="48000" name="sampleRate"/>
             <Attribute id="9750" value="16" name="bitDepth"/>
             <Attribute id="9751" value="1" name="gain"/>
             <Attribute id="9752" value="0" name="mixToMono"/>
            </Attributes>
            <MetaData>
             <entry key="WinSubProjectDisplayName" val=""/>
            </MetaData>
           </AMFile>
           <AMFile id="9753" start="2046" duration="202" scalar="1/1" mediaStart="2637/1" mediaDuration="202/1" trackNumber="0" src="29" channelNumber="0" >
            <Parameters>
             <InterpolatingParam id="9754" interp="linr"  time="0/1" value="1" leadInLength="0/1"  name="volume"/>
             <Parameter id="9755"  name="captions"/>
            </Parameters>
            <Attributes>
             <Attribute id="9756" value="" name="ident"/>
             <Attribute id="9757" value="48000" name="sampleRate"/>
             <Attribute id="9758" value="16" name="bitDepth"/>
             <Attribute id="9759" value="1" name="gain"/>
             <Attribute id="9760" value="0" name="mixToMono"/>
            </Attributes>
            <MetaData>
             <entry key="WinSubProjectDisplayName" val=""/>
            </MetaData>
           </AMFile>
           <AMFile id="9761" start="2248" duration="185" scalar="1/1" mediaStart="2856/1" mediaDuration="185/1" trackNumber="0" src="29" channelNumber="0" >
            <Parameters>
             <InterpolatingParam id="9762" interp="linr"  time="0/1" value="1" leadInLength="0/1"  name="volume"/>
             <Parameter id="9763"  name="captions"/>
            </Parameters>
            <Attributes>
             <Attribute id="9764" value="" name="ident"/>
             <Attribute id="9765" value="48000" name="sampleRate"/>
             <Attribute id="9766" value="16" name="bitDepth"/>
             <Attribute id="9767" value="1" name="gain"/>
             <Attribute id="9768" value="0" name="mixToMono"/>
            </Attributes>
            <MetaData>
             <entry key="WinSubProjectDisplayName" val=""/>
            </MetaData>
           </AMFile>
           <AMFile id="9769" start="2433" duration="215" scalar="1/1" mediaStart="3054/1" mediaDuration="215/1" trackNumber="0" src="29" channelNumber="0" >
            <Parameters>
             <InterpolatingParam id="9770" interp="linr"  time="0/1" value="1" leadInLength="0/1"  name="volume"/>
             <Parameter id="9771"  name="captions"/>
            </Parameters>
            <Attributes>
             <Attribute id="9772" value="" name="ident"/>
             <Attribute id="9773" value="48000" name="sampleRate"/>
             <Attribute id="9774" value="16" name="bitDepth"/>
             <Attribute id="9775" value="1" name="gain"/>
             <Attribute id="9776" value="0" name="mixToMono"/>
            </Attributes>
            <MetaData>
             <entry key="WinSubProjectDisplayName" val=""/>
            </MetaData>
           </AMFile>
           <AMFile id="9777" start="2648" duration="155" scalar="1/1" mediaStart="3288/1" mediaDuration="155/1" trackNumber="0" src="29" channelNumber="0" >
            <Parameters>
             <InterpolatingParam id="9778" interp="linr"  time="0/1" value="1" leadInLength="0/1"  name="volume"/>
             <Parameter id="9779"  name="captions"/>
            </Parameters>
            <Attributes>
             <Attribute id="9780" value="" name="ident"/>
             <Attribute id="9781" value="48000" name="sampleRate"/>
             <Attribute id="9782" value="16" name="bitDepth"/>
             <Attribute id="9783" value="1" name="gain"/>
             <Attribute id="9784" value="0" name="mixToMono"/>
            </Attributes>
            <MetaData>
             <entry key="WinSubProjectDisplayName" val=""/>
            </MetaData>
           </AMFile>
           <AMFile id="9785" start="2803" duration="103" scalar="1/1" mediaStart="3450/1" mediaDuration="103/1" trackNumber="0" src="29" channelNumber="0" >
            <Parameters>
             <InterpolatingParam id="9786" interp="linr"  time="0/1" value="1" leadInLength="0/1"  name="volume"/>
             <Parameter id="9787"  name="captions"/>
            </Parameters>
            <Attributes>
             <Attribute id="9788" value="" name="ident"/>
             <Attribute id="9789" value="48000" name="sampleRate"/>
             <Attribute id="9790" value="16" name="bitDepth"/>
             <Attribute id="9791" value="1" name="gain"/>
             <Attribute id="9792" value="0" name="mixToMono"/>
            </Attributes>
            <MetaData>
             <entry key="WinSubProjectDisplayName" val=""/>
            </MetaData>
           </AMFile>
           <AMFile id="9793" start="2906" duration="2683" scalar="1/1" mediaStart="3564/1" mediaDuration="2683/1" trackNumber="0" src="29" channelNumber="0" >
            <Parameters>
             <InterpolatingParam id="9794" interp="linr"  time="0/1" value="1" leadInLength="0/1"  name="volume"/>
             <Parameter id="9795"  name="captions"/>
            </Parameters>
            <Attributes>
             <Attribute id="9796" value="" name="ident"/>
             <Attribute id="9797" value="48000" name="sampleRate"/>
             <Attribute id="9798" value="16" name="bitDepth"/>
             <Attribute id="9799" value="1" name="gain"/>
             <Attribute id="9800" value="0" name="mixToMono"/>
            </Attributes>
            <MetaData>
             <entry key="WinSubProjectDisplayName" val=""/>
            </MetaData>
           </AMFile>
           <AMFile id="9801" start="5589" duration="143" scalar="1/1" mediaStart="6247/1" mediaDuration="143/1" trackNumber="0" src="29" channelNumber="0" >
            <Parameters>
             <InterpolatingParam id="9802" interp="linr"  time="0/1" value="1" leadInLength="0/1"  name="volume"/>
             <Parameter id="9803"  name="captions"/>
            </Parameters>
            <Attributes>
             <Attribute id="9804" value="" name="ident"/>
             <Attribute id="9805" value="48000" name="sampleRate"/>
             <Attribute id="9806" value="16" name="bitDepth"/>
             <Attribute id="9807" value="1" name="gain"/>
             <Attribute id="9808" value="0" name="mixToMono"/>
            </Attributes>
            <MetaData>
             <entry key="WinSubProjectDisplayName" val=""/>
            </MetaData>
           </AMFile>
           <AMFile id="9809" start="5732" duration="285" scalar="1/1" mediaStart="6413/1" mediaDuration="285/1" trackNumber="0" src="29" channelNumber="0" >
            <Parameters>
             <InterpolatingParam id="9810" interp="linr"  time="0/1" value="1" leadInLength="0/1"  name="volume"/>
             <Parameter id="9811"  name="captions"/>
            </Parameters>
            <Attributes>
             <Attribute id="9812" value="" name="ident"/>
             <Attribute id="9813" value="48000" name="sampleRate"/>
             <Attribute id="9814" value="16" name="bitDepth"/>
             <Attribute id="9815" value="1" name="gain"/>
             <Attribute id="9816" value="0" name="mixToMono"/>
            </Attributes>
            <MetaData>
             <entry key="WinSubProjectDisplayName" val=""/>
            </MetaData>
           </AMFile>
           <AMFile id="9817" start="6017" duration="102" scalar="1/1" mediaStart="6729/1" mediaDuration="102/1" trackNumber="0" src="29" channelNumber="0" >
            <Parameters>
             <InterpolatingParam id="9818" interp="linr"  time="0/1" value="1" leadInLength="0/1"  name="volume"/>
             <Parameter id="9819"  name="captions"/>
            </Parameters>
            <Attributes>
             <Attribute id="9820" value="" name="ident"/>
             <Attribute id="9821" value="48000" name="sampleRate"/>
             <Attribute id="9822" value="16" name="bitDepth"/>
             <Attribute id="9823" value="1" name="gain"/>
             <Attribute id="9824" value="0" name="mixToMono"/>
            </Attributes>
            <MetaData>
             <entry key="WinSubProjectDisplayName" val=""/>
            </MetaData>
           </AMFile>
           <AMFile id="9825" start="6119" duration="234" scalar="1/1" mediaStart="6848/1" mediaDuration="234/1" trackNumber="0" src="29" channelNumber="0" >
            <Parameters>
             <InterpolatingParam id="9826" interp="linr"  time="0/1" value="1" leadInLength="0/1"  name="volume"/>
             <Parameter id="9827"  name="captions"/>
            </Parameters>
            <Attributes>
             <Attribute id="9828" value="" name="ident"/>
             <Attribute id="9829" value="48000" name="sampleRate"/>
             <Attribute id="9830" value="16" name="bitDepth"/>
             <Attribute id="9831" value="1" name="gain"/>
             <Attribute id="9832" value="0" name="mixToMono"/>
            </Attributes>
            <MetaData>
             <entry key="WinSubProjectDisplayName" val=""/>
            </MetaData>
           </AMFile>
           <AMFile id="9833" start="6353" duration="107" scalar="1/1" mediaStart="7089/1" mediaDuration="107/1" trackNumber="0" src="29" channelNumber="0" >
            <Parameters>
             <InterpolatingParam id="9834" interp="linr"  time="0/1" value="1" leadInLength="0/1"  name="volume"/>
             <Parameter id="9835"  name="captions"/>
            </Parameters>
            <Attributes>
             <Attribute id="9836" value="" name="ident"/>
             <Attribute id="9837" value="48000" name="sampleRate"/>
             <Attribute id="9838" value="16" name="bitDepth"/>
             <Attribute id="9839" value="1" name="gain"/>
             <Attribute id="9840" value="0" name="mixToMono"/>
            </Attributes>
            <MetaData>
             <entry key="WinSubProjectDisplayName" val=""/>
            </MetaData>
           </AMFile>
           <AMFile id="9841" start="6460" duration="67" scalar="1/1" mediaStart="7207/1" mediaDuration="67/1" trackNumber="0" src="29" channelNumber="0" >
            <Parameters>
             <InterpolatingParam id="9842" interp="linr"  time="0/1" value="1" leadInLength="0/1"  name="volume"/>
             <Parameter id="9843"  name="captions"/>
            </Parameters>
            <Attributes>
             <Attribute id="9844" value="" name="ident"/>
             <Attribute id="9845" value="48000" name="sampleRate"/>
             <Attribute id="9846" value="16" name="bitDepth"/>
             <Attribute id="9847" value="1" name="gain"/>
             <Attribute id="9848" value="0" name="mixToMono"/>
            </Attributes>
            <MetaData>
             <entry key="WinSubProjectDisplayName" val=""/>
            </MetaData>
           </AMFile>
           <AMFile id="9849" start="6527" duration="226" scalar="1/1" mediaStart="7297/1" mediaDuration="226/1" trackNumber="0" src="29" channelNumber="0" >
            <Parameters>
             <InterpolatingParam id="9850" interp="linr"  time="0/1" value="1" leadInLength="0/1"  name="volume"/>
             <Parameter id="9851"  name="captions"/>
            </Parameters>
            <Attributes>
             <Attribute id="9852" value="" name="ident"/>
             <Attribute id="9853" value="48000" name="sampleRate"/>
             <Attribute id="9854" value="16" name="bitDepth"/>
             <Attribute id="9855" value="1" name="gain"/>
             <Attribute id="9856" value="0" name="mixToMono"/>
            </Attributes>
            <MetaData>
             <entry key="WinSubProjectDisplayName" val=""/>
            </MetaData>
           </AMFile>
           <AMFile id="9857" start="6753" duration="117" scalar="1/1" mediaStart="7540/1" mediaDuration="117/1" trackNumber="0" src="29" channelNumber="0" >
            <Parameters>
             <InterpolatingParam id="9858" interp="linr"  time="0/1" value="1" leadInLength="0/1"  name="volume"/>
             <Parameter id="9859"  name="captions"/>
            </Parameters>
            <Attributes>
             <Attribute id="9860" value="" name="ident"/>
             <Attribute id="9861" value="48000" name="sampleRate"/>
             <Attribute id="9862" value="16" name="bitDepth"/>
             <Attribute id="9863" value="1" name="gain"/>
             <Attribute id="9864" value="0" name="mixToMono"/>
            </Attributes>
            <MetaData>
             <entry key="WinSubProjectDisplayName" val=""/>
            </MetaData>
           </AMFile>
           <AMFile id="9865" start="6870" duration="52" scalar="1/1" mediaStart="7796/1" mediaDuration="52/1" trackNumber="0" src="29" channelNumber="0" >
            <Parameters>
             <InterpolatingParam id="9866" interp="linr"  time="0/1" value="1" leadInLength="0/1"  name="volume"/>
             <Parameter id="9867"  name="captions"/>
            </Parameters>
            <Attributes>
             <Attribute id="9868" value="" name="ident"/>
             <Attribute id="9869" value="48000" name="sampleRate"/>
             <Attribute id="9870" value="16" name="bitDepth"/>
             <Attribute id="9871" value="1" name="gain"/>
             <Attribute id="9872" value="0" name="mixToMono"/>
            </Attributes>
            <MetaData>
             <entry key="WinSubProjectDisplayName" val=""/>
            </MetaData>
           </AMFile>
           <AMFile id="9873" start="6922" duration="100" scalar="1/1" mediaStart="8187/1" mediaDuration="100/1" trackNumber="0" src="29" channelNumber="0" >
            <Parameters>
             <InterpolatingParam id="9874" interp="linr"  time="0/1" value="1" leadInLength="0/1"  name="volume"/>
             <Parameter id="9875"  name="captions"/>
            </Parameters>
            <Attributes>
             <Attribute id="9876" value="" name="ident"/>
             <Attribute id="9877" value="48000" name="sampleRate"/>
             <Attribute id="9878" value="16" name="bitDepth"/>
             <Attribute id="9879" value="1" name="gain"/>
             <Attribute id="9880" value="0" name="mixToMono"/>
            </Attributes>
            <MetaData>
             <entry key="WinSubProjectDisplayName" val=""/>
            </MetaData>
           </AMFile>
           <AMFile id="9881" start="7022" duration="1377" scalar="1/1" mediaStart="8303/1" mediaDuration="1377/1" trackNumber="0" src="29" channelNumber="0" >
            <Parameters>
             <InterpolatingParam id="9882" interp="linr"  time="0/1" value="1" leadInLength="0/1"  name="volume"/>
             <Parameter id="9883"  name="captions"/>
            </Parameters>
            <Attributes>
             <Attribute id="9884" value="" name="ident"/>
             <Attribute id="9885" value="48000" name="sampleRate"/>
             <Attribute id="9886" value="16" name="bitDepth"/>
             <Attribute id="9887" value="1" name="gain"/>
             <Attribute id="9888" value="0" name="mixToMono"/>
            </Attributes>
            <MetaData>
             <entry key="WinSubProjectDisplayName" val=""/>
            </MetaData>
           </AMFile>
           <AMFile id="9889" start="8399" duration="3717" scalar="1/1" mediaStart="9929/1" mediaDuration="3717/1" trackNumber="0" src="29" channelNumber="0" >
            <Parameters>
             <InterpolatingParam id="9890" interp="linr"  time="0/1" value="1" leadInLength="0/1"  name="volume"/>
             <Parameter id="9891"  name="captions"/>
            </Parameters>
            <Attributes>
             <Attribute id="9892" value="" name="ident"/>
             <Attribute id="9893" value="48000" name="sampleRate"/>
             <Attribute id="9894" value="16" name="bitDepth"/>
             <Attribute id="9895" value="1" name="gain"/>
             <Attribute id="9896" value="0" name="mixToMono"/>
            </Attributes>
            <MetaData>
             <entry key="WinSubProjectDisplayName" val=""/>
            </MetaData>
           </AMFile>
          </Medias>
         </GenericTrack>
        </StitchedMedia>
        <StitchedMedia id="9897" start="8391" duration="293" scalar="1/1" mediaStart="11439/1" mediaDuration="293/1" minMediaStart="0/1" >
         <Transformer>
          <VectorParam id="9898"  name="translation">
           <InterpolatingParam id="9899" interp="linr"  time="0/1" value="0" leadInLength="0/1"  />
           <InterpolatingParam id="9900" interp="linr"  time="0/1" value="0" leadInLength="0/1"  />
           <InterpolatingParam id="9901" interp="linr"  time="0/1" value="0" leadInLength="0/1"  />
          </VectorParam>
          <VectorParam id="9902"  name="rotation">
           <InterpolatingParam id="9903" interp="linr"  time="0/1" value="0" leadInLength="0/1"  />
           <InterpolatingParam id="9904" interp="linr"  time="0/1" value="0" leadInLength="0/1"  />
           <InterpolatingParam id="9905" interp="linr"  time="0/1" value="0" leadInLength="0/1"  />
          </VectorParam>
          <VectorParam id="9906"  name="shear">
           <InterpolatingParam id="9907" interp="linr"  time="0/1" value="0" leadInLength="0/1"  />
           <InterpolatingParam id="9908" interp="linr"  time="0/1" value="0" leadInLength="0/1"  />
           <InterpolatingParam id="9909" interp="linr"  time="0/1" value="0" leadInLength="0/1"  />
          </VectorParam>
          <VectorParam id="9910"  name="scale">
           <InterpolatingParam id="9911" interp="linr"  time="0/1" value="1" leadInLength="0/1"  />
           <InterpolatingParam id="9912" interp="linr"  time="0/1" value="1" leadInLength="0/1"  />
           <InterpolatingParam id="9913" interp="linr"  time="0/1" value="1" leadInLength="0/1"  />
          </VectorParam>
          <VectorParam id="9914"  name="anchor">
           <InterpolatingParam id="9915" interp="linr"  time="0/1" value="0" leadInLength="0/1"  />
           <InterpolatingParam id="9916" interp="linr"  time="0/1" value="0" leadInLength="0/1"  />
           <InterpolatingParam id="9917" interp="linr"  time="0/1" value="0" leadInLength="0/1"  />
          </VectorParam>
         </Transformer>
         <Parameters>
          <InterpolatingParam id="9918" interp="linr"  time="0/1" value="1" leadInLength="0/1"  name="cursorOpacity"/>
          <InterpolatingParam id="9919" interp="linr"  time="0/1" value="1" leadInLength="0/1"  name="cursorScale"/>
          <InterpolatingParam id="9920" interp="linr"  time="0/1" value="1.5625" leadInLength="0/1"  name="volume"/>
          <Parameter id="9921"  name="captions"/>
         </Parameters>
         <Effects>
          <GenericEffect id="9922" name = "WinCompression" >
           <Parameters>
           <InterpolatingParam id="9923" interp="linr"  time="0/1" value="0" leadInLength="0/1"   name="attack"/>
           <InterpolatingParam id="9924" interp="linr"  time="0/1" value="9" leadInLength="0/1"   name="gain"/>
           <Parameter id="9925"   name="preset">
            <Keyframes>
            <Keyframe id="9926"  time="0/1" value="1" leadInLength="0/1"  />
            </Keyframes>
           </Parameter>
           <InterpolatingParam id="9927" interp="linr"  time="0/1" value="10" leadInLength="0/1"   name="ratio"/>
           <InterpolatingParam id="9928" interp="linr"  time="0/1" value="3500" leadInLength="0/1"   name="release"/>
           <InterpolatingParam id="9929" interp="linr"  time="0/1" value="-20" leadInLength="0/1"   name="threshold"/>
           </Parameters>
          </GenericEffect>
          <GenericEffect id="9930" name = "NoiseReduction" >
           <Parameters>
           <InterpolatingParam id="9931" interp="linr"  time="0/1" value="20" leadInLength="0/1"   name="denoiserAmount"/>
           <InterpolatingParam id="9932" interp="linr"  time="0/1" value="0" leadInLength="0/1"   name="denoiserThreshold"/>
           <Parameter id="9933"   name="noiseProfile">
            <Keyframes>
            <Keyframe id="9934"  time="0/1" value="FBAAAAIAAABErAAAAQIAAIA/l8JLuYTCrOB9wgsMfMJoG4LCaWeFwkohjMJdoYvCYv6LwlnvjcKf&#xD;&#xa;nYzChXWPwlcejsL6fo/C5OmQwgVTj8IVMI/COiWRwoWFkcJ2tYzC8I6MwuQbjcJvEo/ClwGRwheQ&#xD;&#xa;lsK8+pbCN5qVwlielcJ905rCmu+fwst0ncIC/JvCdIWdws3snsKxC5zCfh2cwniFnMJRypzCtRag&#xD;&#xa;wuoCosJQt6DCzoegwhY9ocIWN6PCsNqkwrSlpMJ6maTCYpCkwmLvo8Li+KPCyEamwnBNqMLMcqrC&#xD;&#xa;v2GswoS+q8Kk86vCVACuwnvUr8JxZa/CqHqswrdXq8LqT6zCZsuswhZxrMLBX67CnmqvwpYyrsKc&#xD;&#xa;pq3CJFGvwghrsMK3y6/CXoCtwmWZr8ICi7DCgRezwogSs8Joq7LCm0Sxwuz/scIfibTCOOK1wlIM&#xD;&#xa;t8K87LfCj3K3wqDYs8KT1bLCVsW0wnZ0tcJGhLXCfPe0ws/ntcLGXrbCzAG1wtXdtcKxxrTC1Ay1&#xD;&#xa;wquGtcLjELbC8Zi2wl7rtsJBYbbCMF+1wrEutMKuibTCSFa1wpvktMIu3rTCtGe4wjaduMIKErfC&#xD;&#xa;SLa1wvS/tsJmZrjCdn63whjft8Ie47rCfdi5wmjpt8KKCLjCXmC5wsOQt8JDGbfCK4m4wmpvuMLL&#xD;&#xa;nLjC80q4wjUVusKunLjC1Be5wg4cuMLxCbjCwfW4wmi7ucIOdbvCbLG6whqdusKYErrCbpC4wmq0&#xD;&#xa;ucIoWrvCaNe6ws4iu8LSc7zCUNa7wuJZvMIwLL3CWe28wps2v8J2l77Cv3W+wvgavsKAwrzCQCy8&#xD;&#xa;wgBRu8Km8brChSa6wuM4u8IaaL3Cf5y9wg4hvMLur7vCIpO9wm0fvcIGNLzC7Le8wvKgvMKQrLzC&#xD;&#xa;p6+9wtYtvsJcxbzCQC29wjDqvcKeNbzCH2W8wpbZvsLCTL7CnjO+wuIsvsJs67vCwLq9wiKhvsLs&#xD;&#xa;o73C5Du9wqqhvcLwKr7C2kq/wqEMv8LVCb7Cpla+wsXpvMIs6bvC/fO8wueCvsIM4b3CxtC+wmTo&#xD;&#xa;vcI+arzCTNe8wiFNv8IvKL/Cpg+/woK1v8L4i7/CNv2+wmsVv8KWj77CVym+wnAlv8Joa8DCFDzA&#xD;&#xa;wiQYwcLSIcHCxILAwuxKvsJYm77CPoHAwiYPwcLuy77CcQa+wrB4vcKwYLzCxKW8worIvcIlzr/C&#xD;&#xa;OMC+wuRDvcJGZ7zCxFi9wuQzvMLPbbvCwIe+wm7bvcLm9L3COH6+wuuJvMK2B73CYb+9wqbxvMK/&#xD;&#xa;mL7CqIe9wvCavMKs7L3Ckau8wkpavMKt9LzCF8S+wmgKvsKCy73ClrG+wmIovcIns73Cmg+/wgw7&#xD;&#xa;wMI607/CpEq/wmwVvcJLsLvCMD68wuxdvcIeI7/C+bS+wpxfvsJyxsDC1tO/wmtrv8LNnb/CQiK+&#xD;&#xa;wlz7vcLa6L/CUMXBwtrQwcIAw8HCNJHBwvphwMKqc7/CSkW/wjkvwMK8ccHCHmDBwlKAwcKu+MDC&#xD;&#xa;zErCwuqgwsLa+MLC753DwmjuxcLEWMfCkePFwo47xsKnX8XC7tTCwuf3wsL+HcLCTcTBwmg6w8Is&#xD;&#xa;RMPC+qjDwiyGxMLi58TCnWvFwpjsxsKzCMbCyCTDwpM2wcJWGMPCvuDFwh42xsIfyMTCeLTFwuH7&#xD;&#xa;xMJctcfCVv3HwpTGx8J8b8jCqhjHwrgkx8LXNsfCZkLGwnxSxcL8csXCbu7FwsaQyMLa68fCo0XH&#xD;&#xa;woruxMJGHsbCORbJwry2yMLIUsfCxlfGwmLoxcLSPMnCYPDJwkw3yMKc7crC8vDLwug2y8Lu28vC&#xD;&#xa;OKvMwvLpysKGj8rCtNXLwrMay8KdGMrCUr3JwgIVy8J64MvCkbTJwjh4x8JGI8bCvBXHwnoPycKN&#xD;&#xa;Ss3CuC/Nwuywy8IkJ8zCx9/KwnB5ycKnk8nCenLJwnN6ycKc+sjCLFzJwuTrzMJkJM/CY5vOwoYO&#xD;&#xa;zsLU987CVKfNwiZZzcJQxNDCICHVwi0d18Kc29jCIF/YwtKo2MKeBNvCwpTawmY/2sJXPdvCZZXY&#xD;&#xa;whB818IQNdjCDF3XwtWC1sIGF9fCfFfXwkBy2MJ6+9nC1hfZwi5k2cJlfNjCnEPYwm/N1cKGOdXC&#xD;&#xa;Yk/XwgXL2MJSytfCgpTWwqTT1sJOGtnCrF/ZwtcT2cK08NjCscHZwpQ72sLJ/NrCy3zYwmCk18LE&#xD;&#xa;O9fC6hbYwtYU2cJN/dnC1EbZwrw/2cIqyNbCDr7Xwvb02cLQ+dnCaJvXwuYO18KSodnC1NnawtJJ&#xD;&#xa;18ISLtjC90nawoel2cIwl9jCi0XZwih328Ks7NjC5KzZwqui2cJw0tjCukLYws+O2MJaqtrCUuXa&#xD;&#xa;wviX2MIKxtfCnqXXwhjI2MJwAtvCIFvcwgCL2cJ0/djCdyXawh9H2cJ+ntfCy4TXwhqF2MJ68NnC&#xD;&#xa;CzvYwljT2cIkP9vCIs/bwjpB2sK2A9rCXt/awjZH2sIfltvCKWPcwjp53MKrGd3CaBPewj/03MJm&#xD;&#xa;U97CphfgwlJp3cKQpt3Crxjewm7d28Kq/9vCNNXcwqY728IUH9vCkirbwgIt28KK19zCjmzdwoBH&#xD;&#xa;3MIAUtvCUq3bwo8f28Ig09jCiyfZwhbx2sLWe9zCvgzbwmwI2sI2nNvC0lvdwg6128I8PNvCLufa&#xD;&#xa;wkyK28KkitzCJIDcwmAO28L0TNrCDHXawjla28IQkdzCoCDcwjRI3MJVUdvCtujZwnCs2sK8Yd3C&#xD;&#xa;iGbbwuSB2cImFNvCCI7rwoA/l8JLuYTCrOB9wgsMfMJoG4LCaWeFwkohjMJdoYvCYv6LwlnvjcKf&#xD;&#xa;nYzChXWPwlcejsL6fo/C5OmQwgVTj8IVMI/COiWRwoWFkcJ2tYzC8I6MwuQbjcJvEo/ClwGRwheQ&#xD;&#xa;lsK8+pbCN5qVwlielcJ905rCmu+fwst0ncIC/JvCdIWdws3snsKxC5zCfh2cwniFnMJRypzCtRag&#xD;&#xa;wuoCosJQt6DCzoegwhY9ocIWN6PCsNqkwrSlpMJ6maTCYpCkwmLvo8Li+KPCyEamwnBNqMLMcqrC&#xD;&#xa;v2GswoS+q8Kk86vCVACuwnvUr8JxZa/CqHqswrdXq8LqT6zCZsuswhZxrMLBX67CnmqvwpYyrsKc&#xD;&#xa;pq3CJFGvwghrsMK3y6/CXoCtwmWZr8ICi7DCgRezwogSs8Joq7LCm0Sxwuz/scIfibTCOOK1wlIM&#xD;&#xa;t8K87LfCj3K3wqDYs8KT1bLCVsW0wnZ0tcJGhLXCfPe0ws/ntcLGXrbCzAG1wtXdtcKxxrTC1Ay1&#xD;&#xa;wquGtcLjELbC8Zi2wl7rtsJBYbbCMF+1wrEutMKuibTCSFa1wpvktMIu3rTCtGe4wjaduMIKErfC&#xD;&#xa;SLa1wvS/tsJmZrjCdn63whjft8Ie47rCfdi5wmjpt8KKCLjCXmC5wsOQt8JDGbfCK4m4wmpvuMLL&#xD;&#xa;nLjC80q4wjUVusKunLjC1Be5wg4cuMLxCbjCwfW4wmi7ucIOdbvCbLG6whqdusKYErrCbpC4wmq0&#xD;&#xa;ucIoWrvCaNe6ws4iu8LSc7zCUNa7wuJZvMIwLL3CWe28wps2v8J2l77Cv3W+wvgavsKAwrzCQCy8&#xD;&#xa;wgBRu8Km8brChSa6wuM4u8IaaL3Cf5y9wg4hvMLur7vCIpO9wm0fvcIGNLzC7Le8wvKgvMKQrLzC&#xD;&#xa;p6+9wtYtvsJcxbzCQC29wjDqvcKeNbzCH2W8wpbZvsLCTL7CnjO+wuIsvsJs67vCwLq9wiKhvsLs&#xD;&#xa;o73C5Du9wqqhvcLwKr7C2kq/wqEMv8LVCb7Cpla+wsXpvMIs6bvC/fO8wueCvsIM4b3CxtC+wmTo&#xD;&#xa;vcI+arzCTNe8wiFNv8IvKL/Cpg+/woK1v8L4i7/CNv2+wmsVv8KWj77CVym+wnAlv8Joa8DCFDzA&#xD;&#xa;wiQYwcLSIcHCxILAwuxKvsJYm77CPoHAwiYPwcLuy77CcQa+wrB4vcKwYLzCxKW8worIvcIlzr/C&#xD;&#xa;OMC+wuRDvcJGZ7zCxFi9wuQzvMLPbbvCwIe+wm7bvcLm9L3COH6+wuuJvMK2B73CYb+9wqbxvMK/&#xD;&#xa;mL7CqIe9wvCavMKs7L3Ckau8wkpavMKt9LzCF8S+wmgKvsKCy73ClrG+wmIovcIns73Cmg+/wgw7&#xD;&#xa;wMI607/CpEq/wmwVvcJLsLvCMD68wuxdvcIeI7/C+bS+wpxfvsJyxsDC1tO/wmtrv8LNnb/CQiK+&#xD;&#xa;wlz7vcLa6L/CUMXBwtrQwcIAw8HCNJHBwvphwMKqc7/CSkW/wjkvwMK8ccHCHmDBwlKAwcKu+MDC&#xD;&#xa;zErCwuqgwsLa+MLC753DwmjuxcLEWMfCkePFwo47xsKnX8XC7tTCwuf3wsL+HcLCTcTBwmg6w8Is&#xD;&#xa;RMPC+qjDwiyGxMLi58TCnWvFwpjsxsKzCMbCyCTDwpM2wcJWGMPCvuDFwh42xsIfyMTCeLTFwuH7&#xD;&#xa;xMJctcfCVv3HwpTGx8J8b8jCqhjHwrgkx8LXNsfCZkLGwnxSxcL8csXCbu7FwsaQyMLa68fCo0XH&#xD;&#xa;woruxMJGHsbCORbJwry2yMLIUsfCxlfGwmLoxcLSPMnCYPDJwkw3yMKc7crC8vDLwug2y8Lu28vC&#xD;&#xa;OKvMwvLpysKGj8rCtNXLwrMay8KdGMrCUr3JwgIVy8J64MvCkbTJwjh4x8JGI8bCvBXHwnoPycKN&#xD;&#xa;Ss3CuC/Nwuywy8IkJ8zCx9/KwnB5ycKnk8nCenLJwnN6ycKc+sjCLFzJwuTrzMJkJM/CY5vOwoYO&#xD;&#xa;zsLU987CVKfNwiZZzcJQxNDCICHVwi0d18Kc29jCIF/YwtKo2MKeBNvCwpTawmY/2sJXPdvCZZXY&#xD;&#xa;whB818IQNdjCDF3XwtWC1sIGF9fCfFfXwkBy2MJ6+9nC1hfZwi5k2cJlfNjCnEPYwm/N1cKGOdXC&#xD;&#xa;Yk/XwgXL2MJSytfCgpTWwqTT1sJOGtnCrF/ZwtcT2cK08NjCscHZwpQ72sLJ/NrCy3zYwmCk18LE&#xD;&#xa;O9fC6hbYwtYU2cJN/dnC1EbZwrw/2cIqyNbCDr7Xwvb02cLQ+dnCaJvXwuYO18KSodnC1NnawtJJ&#xD;&#xa;18ISLtjC90nawoel2cIwl9jCi0XZwih328Ks7NjC5KzZwqui2cJw0tjCukLYws+O2MJaqtrCUuXa&#xD;&#xa;wviX2MIKxtfCnqXXwhjI2MJwAtvCIFvcwgCL2cJ0/djCdyXawh9H2cJ+ntfCy4TXwhqF2MJ68NnC&#xD;&#xa;CzvYwljT2cIkP9vCIs/bwjpB2sK2A9rCXt/awjZH2sIfltvCKWPcwjp53MKrGd3CaBPewj/03MJm&#xD;&#xa;U97CphfgwlJp3cKQpt3Crxjewm7d28Kq/9vCNNXcwqY728IUH9vCkirbwgIt28KK19zCjmzdwoBH&#xD;&#xa;3MIAUtvCUq3bwo8f28Ig09jCiyfZwhbx2sLWe9zCvgzbwmwI2sI2nNvC0lvdwg6128I8PNvCLufa&#xD;&#xa;wkyK28KkitzCJIDcwmAO28L0TNrCDHXawjla28IQkdzCoCDcwjRI3MJVUdvCtujZwnCs2sK8Yd3C&#xD;&#xa;iGbbwuSB2cImFNvCCI7r" leadInLength="0/1"  />
            </Keyframes>
           </Parameter>
           </Parameters>
          </GenericEffect>
          <GenericEffect id="9935" name = "Declipper" >
           <Parameters>
           <InterpolatingParam id="9936" interp="linr"  time="0/1" value="-1" leadInLength="0/1"   name="sensitivity"/>
           </Parameters>
          </GenericEffect>
          <GenericEffect id="9937" name = "Declicker" >
           <Parameters>
           <InterpolatingParam id="9938" interp="linr"  time="0/1" value="3" leadInLength="0/1"   name="sensitivity"/>
           </Parameters>
          </GenericEffect>
         </Effects>
         <Attributes>
          <Attribute id="9939" value="" name="ident"/>
          <Attribute id="9940" value="0" name="mixToMono"/>
         </Attributes>
         <MetaData>
          <entry key="WinSubProjectDisplayName" val=""/>
         </MetaData>
         <ExtraData>
          <Entry key="ZoomPanBin">
           <ZoomPanBin id="9941"  >
            <ZoomPanKeyframes>
            </ZoomPanKeyframes>
           </ZoomPanBin>
          </Entry>
          <Entry key="CursorEffectBin">
           <CursorEffectBin id="9942"  >
            <CursorEffectKeyframes>
            </CursorEffectKeyframes>
           </CursorEffectBin>
          </Entry>
         </ExtraData>
         <GenericTrack id="9943"  >
          <Attributes>
           <Attribute id="9944" value="" name="ident"/>
           <Attribute id="9945" value="0" name="audioMuted"/>
           <Attribute id="9946" value="0" name="videoHidden"/>
          </Attributes>
          <MetaData>
           <entry key="IsLocked" val="False"/>
           <entry key="WinTrackHeight" val="0"/>
          </MetaData>
          <Medias>
           <AMFile id="9947" start="0" duration="117" scalar="1/1" mediaStart="0/1" mediaDuration="117/1" trackNumber="0" src="29" channelNumber="0" >
            <Parameters>
             <InterpolatingParam id="9948" interp="linr"  time="0/1" value="1" leadInLength="0/1"  name="volume"/>
             <Parameter id="9949"  name="captions"/>
            </Parameters>
            <Attributes>
             <Attribute id="9950" value="" name="ident"/>
             <Attribute id="9951" value="48000" name="sampleRate"/>
             <Attribute id="9952" value="16" name="bitDepth"/>
             <Attribute id="9953" value="1" name="gain"/>
             <Attribute id="9954" value="0" name="mixToMono"/>
            </Attributes>
            <MetaData>
             <entry key="WinSubProjectDisplayName" val=""/>
            </MetaData>
           </AMFile>
           <AMFile id="9955" start="117" duration="272" scalar="1/1" mediaStart="131/1" mediaDuration="272/1" trackNumber="0" src="29" channelNumber="0" >
            <Parameters>
             <InterpolatingParam id="9956" interp="linr"  time="0/1" value="1" leadInLength="0/1"  name="volume"/>
             <Parameter id="9957"  name="captions"/>
            </Parameters>
            <Attributes>
             <Attribute id="9958" value="" name="ident"/>
             <Attribute id="9959" value="48000" name="sampleRate"/>
             <Attribute id="9960" value="16" name="bitDepth"/>
             <Attribute id="9961" value="1" name="gain"/>
             <Attribute id="9962" value="0" name="mixToMono"/>
            </Attributes>
            <MetaData>
             <entry key="WinSubProjectDisplayName" val=""/>
            </MetaData>
           </AMFile>
           <AMFile id="9963" start="389" duration="1309" scalar="1/1" mediaStart="415/1" mediaDuration="1309/1" trackNumber="0" src="29" channelNumber="0" >
            <Parameters>
             <InterpolatingParam id="9964" interp="linr"  time="0/1" value="1" leadInLength="0/1"  name="volume"/>
             <Parameter id="9965"  name="captions"/>
            </Parameters>
            <Attributes>
             <Attribute id="9966" value="" name="ident"/>
             <Attribute id="9967" value="48000" name="sampleRate"/>
             <Attribute id="9968" value="16" name="bitDepth"/>
             <Attribute id="9969" value="1" name="gain"/>
             <Attribute id="9970" value="0" name="mixToMono"/>
            </Attributes>
            <MetaData>
             <entry key="WinSubProjectDisplayName" val=""/>
            </MetaData>
           </AMFile>
           <AMFile id="9971" start="1698" duration="103" scalar="1/1" mediaStart="1734/1" mediaDuration="103/1" trackNumber="0" src="29" channelNumber="0" >
            <Parameters>
             <InterpolatingParam id="9972" interp="linr"  time="0/1" value="1" leadInLength="0/1"  name="volume"/>
             <Parameter id="9973"  name="captions"/>
            </Parameters>
            <Attributes>
             <Attribute id="9974" value="" name="ident"/>
             <Attribute id="9975" value="48000" name="sampleRate"/>
             <Attribute id="9976" value="16" name="bitDepth"/>
             <Attribute id="9977" value="1" name="gain"/>
             <Attribute id="9978" value="0" name="mixToMono"/>
            </Attributes>
            <MetaData>
             <entry key="WinSubProjectDisplayName" val=""/>
            </MetaData>
           </AMFile>
           <AMFile id="9979" start="1801" duration="245" scalar="1/1" mediaStart="2164/1" mediaDuration="245/1" trackNumber="0" src="29" channelNumber="0" >
            <Parameters>
             <InterpolatingParam id="9980" interp="linr"  time="0/1" value="1" leadInLength="0/1"  name="volume"/>
             <Parameter id="9981"  name="captions"/>
            </Parameters>
            <Attributes>
             <Attribute id="9982" value="" name="ident"/>
             <Attribute id="9983" value="48000" name="sampleRate"/>
             <Attribute id="9984" value="16" name="bitDepth"/>
             <Attribute id="9985" value="1" name="gain"/>
             <Attribute id="9986" value="0" name="mixToMono"/>
            </Attributes>
            <MetaData>
             <entry key="WinSubProjectDisplayName" val=""/>
            </MetaData>
           </AMFile>
           <AMFile id="9987" start="2046" duration="202" scalar="1/1" mediaStart="2637/1" mediaDuration="202/1" trackNumber="0" src="29" channelNumber="0" >
            <Parameters>
             <InterpolatingParam id="9988" interp="linr"  time="0/1" value="1" leadInLength="0/1"  name="volume"/>
             <Parameter id="9989"  name="captions"/>
            </Parameters>
            <Attributes>
             <Attribute id="9990" value="" name="ident"/>
             <Attribute id="9991" value="48000" name="sampleRate"/>
             <Attribute id="9992" value="16" name="bitDepth"/>
             <Attribute id="9993" value="1" name="gain"/>
             <Attribute id="9994" value="0" name="mixToMono"/>
            </Attributes>
            <MetaData>
             <entry key="WinSubProjectDisplayName" val=""/>
            </MetaData>
           </AMFile>
           <AMFile id="9995" start="2248" duration="185" scalar="1/1" mediaStart="2856/1" mediaDuration="185/1" trackNumber="0" src="29" channelNumber="0" >
            <Parameters>
             <InterpolatingParam id="9996" interp="linr"  time="0/1" value="1" leadInLength="0/1"  name="volume"/>
             <Parameter id="9997"  name="captions"/>
            </Parameters>
            <Attributes>
             <Attribute id="9998" value="" name="ident"/>
             <Attribute id="9999" value="48000" name="sampleRate"/>
             <Attribute id="10000" value="16" name="bitDepth"/>
             <Attribute id="10001" value="1" name="gain"/>
             <Attribute id="10002" value="0" name="mixToMono"/>
            </Attributes>
            <MetaData>
             <entry key="WinSubProjectDisplayName" val=""/>
            </MetaData>
           </AMFile>
           <AMFile id="10003" start="2433" duration="215" scalar="1/1" mediaStart="3054/1" mediaDuration="215/1" trackNumber="0" src="29" channelNumber="0" >
            <Parameters>
             <InterpolatingParam id="10004" interp="linr"  time="0/1" value="1" leadInLength="0/1"  name="volume"/>
             <Parameter id="10005"  name="captions"/>
            </Parameters>
            <Attributes>
             <Attribute id="10006" value="" name="ident"/>
             <Attribute id="10007" value="48000" name="sampleRate"/>
             <Attribute id="10008" value="16" name="bitDepth"/>
             <Attribute id="10009" value="1" name="gain"/>
             <Attribute id="10010" value="0" name="mixToMono"/>
            </Attributes>
            <MetaData>
             <entry key="WinSubProjectDisplayName" val=""/>
            </MetaData>
           </AMFile>
           <AMFile id="10011" start="2648" duration="155" scalar="1/1" mediaStart="3288/1" mediaDuration="155/1" trackNumber="0" src="29" channelNumber="0" >
            <Parameters>
             <InterpolatingParam id="10012" interp="linr"  time="0/1" value="1" leadInLength="0/1"  name="volume"/>
             <Parameter id="10013"  name="captions"/>
            </Parameters>
            <Attributes>
             <Attribute id="10014" value="" name="ident"/>
             <Attribute id="10015" value="48000" name="sampleRate"/>
             <Attribute id="10016" value="16" name="bitDepth"/>
             <Attribute id="10017" value="1" name="gain"/>
             <Attribute id="10018" value="0" name="mixToMono"/>
            </Attributes>
            <MetaData>
             <entry key="WinSubProjectDisplayName" val=""/>
            </MetaData>
           </AMFile>
           <AMFile id="10019" start="2803" duration="103" scalar="1/1" mediaStart="3450/1" mediaDuration="103/1" trackNumber="0" src="29" channelNumber="0" >
            <Parameters>
             <InterpolatingParam id="10020" interp="linr"  time="0/1" value="1" leadInLength="0/1"  name="volume"/>
             <Parameter id="10021"  name="captions"/>
            </Parameters>
            <Attributes>
             <Attribute id="10022" value="" name="ident"/>
             <Attribute id="10023" value="48000" name="sampleRate"/>
             <Attribute id="10024" value="16" name="bitDepth"/>
             <Attribute id="10025" value="1" name="gain"/>
             <Attribute id="10026" value="0" name="mixToMono"/>
            </Attributes>
            <MetaData>
             <entry key="WinSubProjectDisplayName" val=""/>
            </MetaData>
           </AMFile>
           <AMFile id="10027" start="2906" duration="2683" scalar="1/1" mediaStart="3564/1" mediaDuration="2683/1" trackNumber="0" src="29" channelNumber="0" >
            <Parameters>
             <InterpolatingParam id="10028" interp="linr"  time="0/1" value="1" leadInLength="0/1"  name="volume"/>
             <Parameter id="10029"  name="captions"/>
            </Parameters>
            <Attributes>
             <Attribute id="10030" value="" name="ident"/>
             <Attribute id="10031" value="48000" name="sampleRate"/>
             <Attribute id="10032" value="16" name="bitDepth"/>
             <Attribute id="10033" value="1" name="gain"/>
             <Attribute id="10034" value="0" name="mixToMono"/>
            </Attributes>
            <MetaData>
             <entry key="WinSubProjectDisplayName" val=""/>
            </MetaData>
           </AMFile>
           <AMFile id="10035" start="5589" duration="143" scalar="1/1" mediaStart="6247/1" mediaDuration="143/1" trackNumber="0" src="29" channelNumber="0" >
            <Parameters>
             <InterpolatingParam id="10036" interp="linr"  time="0/1" value="1" leadInLength="0/1"  name="volume"/>
             <Parameter id="10037"  name="captions"/>
            </Parameters>
            <Attributes>
             <Attribute id="10038" value="" name="ident"/>
             <Attribute id="10039" value="48000" name="sampleRate"/>
             <Attribute id="10040" value="16" name="bitDepth"/>
             <Attribute id="10041" value="1" name="gain"/>
             <Attribute id="10042" value="0" name="mixToMono"/>
            </Attributes>
            <MetaData>
             <entry key="WinSubProjectDisplayName" val=""/>
            </MetaData>
           </AMFile>
           <AMFile id="10043" start="5732" duration="285" scalar="1/1" mediaStart="6413/1" mediaDuration="285/1" trackNumber="0" src="29" channelNumber="0" >
            <Parameters>
             <InterpolatingParam id="10044" interp="linr"  time="0/1" value="1" leadInLength="0/1"  name="volume"/>
             <Parameter id="10045"  name="captions"/>
            </Parameters>
            <Attributes>
             <Attribute id="10046" value="" name="ident"/>
             <Attribute id="10047" value="48000" name="sampleRate"/>
             <Attribute id="10048" value="16" name="bitDepth"/>
             <Attribute id="10049" value="1" name="gain"/>
             <Attribute id="10050" value="0" name="mixToMono"/>
            </Attributes>
            <MetaData>
             <entry key="WinSubProjectDisplayName" val=""/>
            </MetaData>
           </AMFile>
           <AMFile id="10051" start="6017" duration="102" scalar="1/1" mediaStart="6729/1" mediaDuration="102/1" trackNumber="0" src="29" channelNumber="0" >
            <Parameters>
             <InterpolatingParam id="10052" interp="linr"  time="0/1" value="1" leadInLength="0/1"  name="volume"/>
             <Parameter id="10053"  name="captions"/>
            </Parameters>
            <Attributes>
             <Attribute id="10054" value="" name="ident"/>
             <Attribute id="10055" value="48000" name="sampleRate"/>
             <Attribute id="10056" value="16" name="bitDepth"/>
             <Attribute id="10057" value="1" name="gain"/>
             <Attribute id="10058" value="0" name="mixToMono"/>
            </Attributes>
            <MetaData>
             <entry key="WinSubProjectDisplayName" val=""/>
            </MetaData>
           </AMFile>
           <AMFile id="10059" start="6119" duration="234" scalar="1/1" mediaStart="6848/1" mediaDuration="234/1" trackNumber="0" src="29" channelNumber="0" >
            <Parameters>
             <InterpolatingParam id="10060" interp="linr"  time="0/1" value="1" leadInLength="0/1"  name="volume"/>
             <Parameter id="10061"  name="captions"/>
            </Parameters>
            <Attributes>
             <Attribute id="10062" value="" name="ident"/>
             <Attribute id="10063" value="48000" name="sampleRate"/>
             <Attribute id="10064" value="16" name="bitDepth"/>
             <Attribute id="10065" value="1" name="gain"/>
             <Attribute id="10066" value="0" name="mixToMono"/>
            </Attributes>
            <MetaData>
             <entry key="WinSubProjectDisplayName" val=""/>
            </MetaData>
           </AMFile>
           <AMFile id="10067" start="6353" duration="107" scalar="1/1" mediaStart="7089/1" mediaDuration="107/1" trackNumber="0" src="29" channelNumber="0" >
            <Parameters>
             <InterpolatingParam id="10068" interp="linr"  time="0/1" value="1" leadInLength="0/1"  name="volume"/>
             <Parameter id="10069"  name="captions"/>
            </Parameters>
            <Attributes>
             <Attribute id="10070" value="" name="ident"/>
             <Attribute id="10071" value="48000" name="sampleRate"/>
             <Attribute id="10072" value="16" name="bitDepth"/>
             <Attribute id="10073" value="1" name="gain"/>
             <Attribute id="10074" value="0" name="mixToMono"/>
            </Attributes>
            <MetaData>
             <entry key="WinSubProjectDisplayName" val=""/>
            </MetaData>
           </AMFile>
           <AMFile id="10075" start="6460" duration="67" scalar="1/1" mediaStart="7207/1" mediaDuration="67/1" trackNumber="0" src="29" channelNumber="0" >
            <Parameters>
             <InterpolatingParam id="10076" interp="linr"  time="0/1" value="1" leadInLength="0/1"  name="volume"/>
             <Parameter id="10077"  name="captions"/>
            </Parameters>
            <Attributes>
             <Attribute id="10078" value="" name="ident"/>
             <Attribute id="10079" value="48000" name="sampleRate"/>
             <Attribute id="10080" value="16" name="bitDepth"/>
             <Attribute id="10081" value="1" name="gain"/>
             <Attribute id="10082" value="0" name="mixToMono"/>
            </Attributes>
            <MetaData>
             <entry key="WinSubProjectDisplayName" val=""/>
            </MetaData>
           </AMFile>
           <AMFile id="10083" start="6527" duration="226" scalar="1/1" mediaStart="7297/1" mediaDuration="226/1" trackNumber="0" src="29" channelNumber="0" >
            <Parameters>
             <InterpolatingParam id="10084" interp="linr"  time="0/1" value="1" leadInLength="0/1"  name="volume"/>
             <Parameter id="10085"  name="captions"/>
            </Parameters>
            <Attributes>
             <Attribute id="10086" value="" name="ident"/>
             <Attribute id="10087" value="48000" name="sampleRate"/>
             <Attribute id="10088" value="16" name="bitDepth"/>
             <Attribute id="10089" value="1" name="gain"/>
             <Attribute id="10090" value="0" name="mixToMono"/>
            </Attributes>
            <MetaData>
             <entry key="WinSubProjectDisplayName" val=""/>
            </MetaData>
           </AMFile>
           <AMFile id="10091" start="6753" duration="117" scalar="1/1" mediaStart="7540/1" mediaDuration="117/1" trackNumber="0" src="29" channelNumber="0" >
            <Parameters>
             <InterpolatingParam id="10092" interp="linr"  time="0/1" value="1" leadInLength="0/1"  name="volume"/>
             <Parameter id="10093"  name="captions"/>
            </Parameters>
            <Attributes>
             <Attribute id="10094" value="" name="ident"/>
             <Attribute id="10095" value="48000" name="sampleRate"/>
             <Attribute id="10096" value="16" name="bitDepth"/>
             <Attribute id="10097" value="1" name="gain"/>
             <Attribute id="10098" value="0" name="mixToMono"/>
            </Attributes>
            <MetaData>
             <entry key="WinSubProjectDisplayName" val=""/>
            </MetaData>
           </AMFile>
           <AMFile id="10099" start="6870" duration="52" scalar="1/1" mediaStart="7796/1" mediaDuration="52/1" trackNumber="0" src="29" channelNumber="0" >
            <Parameters>
             <InterpolatingParam id="10100" interp="linr"  time="0/1" value="1" leadInLength="0/1"  name="volume"/>
             <Parameter id="10101"  name="captions"/>
            </Parameters>
            <Attributes>
             <Attribute id="10102" value="" name="ident"/>
             <Attribute id="10103" value="48000" name="sampleRate"/>
             <Attribute id="10104" value="16" name="bitDepth"/>
             <Attribute id="10105" value="1" name="gain"/>
             <Attribute id="10106" value="0" name="mixToMono"/>
            </Attributes>
            <MetaData>
             <entry key="WinSubProjectDisplayName" val=""/>
            </MetaData>
           </AMFile>
           <AMFile id="10107" start="6922" duration="100" scalar="1/1" mediaStart="8187/1" mediaDuration="100/1" trackNumber="0" src="29" channelNumber="0" >
            <Parameters>
             <InterpolatingParam id="10108" interp="linr"  time="0/1" value="1" leadInLength="0/1"  name="volume"/>
             <Parameter id="10109"  name="captions"/>
            </Parameters>
            <Attributes>
             <Attribute id="10110" value="" name="ident"/>
             <Attribute id="10111" value="48000" name="sampleRate"/>
             <Attribute id="10112" value="16" name="bitDepth"/>
             <Attribute id="10113" value="1" name="gain"/>
             <Attribute id="10114" value="0" name="mixToMono"/>
            </Attributes>
            <MetaData>
             <entry key="WinSubProjectDisplayName" val=""/>
            </MetaData>
           </AMFile>
           <AMFile id="10115" start="7022" duration="1377" scalar="1/1" mediaStart="8303/1" mediaDuration="1377/1" trackNumber="0" src="29" channelNumber="0" >
            <Parameters>
             <InterpolatingParam id="10116" interp="linr"  time="0/1" value="1" leadInLength="0/1"  name="volume"/>
             <Parameter id="10117"  name="captions"/>
            </Parameters>
            <Attributes>
             <Attribute id="10118" value="" name="ident"/>
             <Attribute id="10119" value="48000" name="sampleRate"/>
             <Attribute id="10120" value="16" name="bitDepth"/>
             <Attribute id="10121" value="1" name="gain"/>
             <Attribute id="10122" value="0" name="mixToMono"/>
            </Attributes>
            <MetaData>
             <entry key="WinSubProjectDisplayName" val=""/>
            </MetaData>
           </AMFile>
           <AMFile id="10123" start="8399" duration="3717" scalar="1/1" mediaStart="9929/1" mediaDuration="3717/1" trackNumber="0" src="29" channelNumber="0" >
            <Parameters>
             <InterpolatingParam id="10124" interp="linr"  time="0/1" value="1" leadInLength="0/1"  name="volume"/>
             <Parameter id="10125"  name="captions"/>
            </Parameters>
            <Attributes>
             <Attribute id="10126" value="" name="ident"/>
             <Attribute id="10127" value="48000" name="sampleRate"/>
             <Attribute id="10128" value="16" name="bitDepth"/>
             <Attribute id="10129" value="1" name="gain"/>
             <Attribute id="10130" value="0" name="mixToMono"/>
            </Attributes>
            <MetaData>
             <entry key="WinSubProjectDisplayName" val=""/>
            </MetaData>
           </AMFile>
          </Medias>
         </GenericTrack>
        </StitchedMedia>
        <StitchedMedia id="10131" start="8684" duration="251" scalar="1/1" mediaStart="11768/1" mediaDuration="251/1" minMediaStart="0/1" >
         <Transformer>
          <VectorParam id="10132"  name="translation">
           <InterpolatingParam id="10133" interp="linr"  time="0/1" value="0" leadInLength="0/1"  />
           <InterpolatingParam id="10134" interp="linr"  time="0/1" value="0" leadInLength="0/1"  />
           <InterpolatingParam id="10135" interp="linr"  time="0/1" value="0" leadInLength="0/1"  />
          </VectorParam>
          <VectorParam id="10136"  name="rotation">
           <InterpolatingParam id="10137" interp="linr"  time="0/1" value="0" leadInLength="0/1"  />
           <InterpolatingParam id="10138" interp="linr"  time="0/1" value="0" leadInLength="0/1"  />
           <InterpolatingParam id="10139" interp="linr"  time="0/1" value="0" leadInLength="0/1"  />
          </VectorParam>
          <VectorParam id="10140"  name="shear">
           <InterpolatingParam id="10141" interp="linr"  time="0/1" value="0" leadInLength="0/1"  />
           <InterpolatingParam id="10142" interp="linr"  time="0/1" value="0" leadInLength="0/1"  />
           <InterpolatingParam id="10143" interp="linr"  time="0/1" value="0" leadInLength="0/1"  />
          </VectorParam>
          <VectorParam id="10144"  name="scale">
           <InterpolatingParam id="10145" interp="linr"  time="0/1" value="1" leadInLength="0/1"  />
           <InterpolatingParam id="10146" interp="linr"  time="0/1" value="1" leadInLength="0/1"  />
           <InterpolatingParam id="10147" interp="linr"  time="0/1" value="1" leadInLength="0/1"  />
          </VectorParam>
          <VectorParam id="10148"  name="anchor">
           <InterpolatingParam id="10149" interp="linr"  time="0/1" value="0" leadInLength="0/1"  />
           <InterpolatingParam id="10150" interp="linr"  time="0/1" value="0" leadInLength="0/1"  />
           <InterpolatingParam id="10151" interp="linr"  time="0/1" value="0" leadInLength="0/1"  />
          </VectorParam>
         </Transformer>
         <Parameters>
          <InterpolatingParam id="10152" interp="linr"  time="0/1" value="1" leadInLength="0/1"  name="cursorOpacity"/>
          <InterpolatingParam id="10153" interp="linr"  time="0/1" value="1" leadInLength="0/1"  name="cursorScale"/>
          <InterpolatingParam id="10154" interp="linr"  time="0/1" value="1.5625" leadInLength="0/1"  name="volume"/>
          <Parameter id="10155"  name="captions"/>
         </Parameters>
         <Effects>
          <GenericEffect id="10156" name = "WinCompression" >
           <Parameters>
           <InterpolatingParam id="10157" interp="linr"  time="0/1" value="0" leadInLength="0/1"   name="attack"/>
           <InterpolatingParam id="10158" interp="linr"  time="0/1" value="9" leadInLength="0/1"   name="gain"/>
           <Parameter id="10159"   name="preset">
            <Keyframes>
            <Keyframe id="10160"  time="0/1" value="1" leadInLength="0/1"  />
            </Keyframes>
           </Parameter>
           <InterpolatingParam id="10161" interp="linr"  time="0/1" value="10" leadInLength="0/1"   name="ratio"/>
           <InterpolatingParam id="10162" interp="linr"  time="0/1" value="3500" leadInLength="0/1"   name="release"/>
           <InterpolatingParam id="10163" interp="linr"  time="0/1" value="-20" leadInLength="0/1"   name="threshold"/>
           </Parameters>
          </GenericEffect>
          <GenericEffect id="10164" name = "NoiseReduction" >
           <Parameters>
           <InterpolatingParam id="10165" interp="linr"  time="0/1" value="20" leadInLength="0/1"   name="denoiserAmount"/>
           <InterpolatingParam id="10166" interp="linr"  time="0/1" value="0" leadInLength="0/1"   name="denoiserThreshold"/>
           <Parameter id="10167"   name="noiseProfile">
            <Keyframes>
            <Keyframe id="10168"  time="0/1" value="FBAAAAIAAABErAAAAQIAAIA/l8JLuYTCrOB9wgsMfMJoG4LCaWeFwkohjMJdoYvCYv6LwlnvjcKf&#xD;&#xa;nYzChXWPwlcejsL6fo/C5OmQwgVTj8IVMI/COiWRwoWFkcJ2tYzC8I6MwuQbjcJvEo/ClwGRwheQ&#xD;&#xa;lsK8+pbCN5qVwlielcJ905rCmu+fwst0ncIC/JvCdIWdws3snsKxC5zCfh2cwniFnMJRypzCtRag&#xD;&#xa;wuoCosJQt6DCzoegwhY9ocIWN6PCsNqkwrSlpMJ6maTCYpCkwmLvo8Li+KPCyEamwnBNqMLMcqrC&#xD;&#xa;v2GswoS+q8Kk86vCVACuwnvUr8JxZa/CqHqswrdXq8LqT6zCZsuswhZxrMLBX67CnmqvwpYyrsKc&#xD;&#xa;pq3CJFGvwghrsMK3y6/CXoCtwmWZr8ICi7DCgRezwogSs8Joq7LCm0Sxwuz/scIfibTCOOK1wlIM&#xD;&#xa;t8K87LfCj3K3wqDYs8KT1bLCVsW0wnZ0tcJGhLXCfPe0ws/ntcLGXrbCzAG1wtXdtcKxxrTC1Ay1&#xD;&#xa;wquGtcLjELbC8Zi2wl7rtsJBYbbCMF+1wrEutMKuibTCSFa1wpvktMIu3rTCtGe4wjaduMIKErfC&#xD;&#xa;SLa1wvS/tsJmZrjCdn63whjft8Ie47rCfdi5wmjpt8KKCLjCXmC5wsOQt8JDGbfCK4m4wmpvuMLL&#xD;&#xa;nLjC80q4wjUVusKunLjC1Be5wg4cuMLxCbjCwfW4wmi7ucIOdbvCbLG6whqdusKYErrCbpC4wmq0&#xD;&#xa;ucIoWrvCaNe6ws4iu8LSc7zCUNa7wuJZvMIwLL3CWe28wps2v8J2l77Cv3W+wvgavsKAwrzCQCy8&#xD;&#xa;wgBRu8Km8brChSa6wuM4u8IaaL3Cf5y9wg4hvMLur7vCIpO9wm0fvcIGNLzC7Le8wvKgvMKQrLzC&#xD;&#xa;p6+9wtYtvsJcxbzCQC29wjDqvcKeNbzCH2W8wpbZvsLCTL7CnjO+wuIsvsJs67vCwLq9wiKhvsLs&#xD;&#xa;o73C5Du9wqqhvcLwKr7C2kq/wqEMv8LVCb7Cpla+wsXpvMIs6bvC/fO8wueCvsIM4b3CxtC+wmTo&#xD;&#xa;vcI+arzCTNe8wiFNv8IvKL/Cpg+/woK1v8L4i7/CNv2+wmsVv8KWj77CVym+wnAlv8Joa8DCFDzA&#xD;&#xa;wiQYwcLSIcHCxILAwuxKvsJYm77CPoHAwiYPwcLuy77CcQa+wrB4vcKwYLzCxKW8worIvcIlzr/C&#xD;&#xa;OMC+wuRDvcJGZ7zCxFi9wuQzvMLPbbvCwIe+wm7bvcLm9L3COH6+wuuJvMK2B73CYb+9wqbxvMK/&#xD;&#xa;mL7CqIe9wvCavMKs7L3Ckau8wkpavMKt9LzCF8S+wmgKvsKCy73ClrG+wmIovcIns73Cmg+/wgw7&#xD;&#xa;wMI607/CpEq/wmwVvcJLsLvCMD68wuxdvcIeI7/C+bS+wpxfvsJyxsDC1tO/wmtrv8LNnb/CQiK+&#xD;&#xa;wlz7vcLa6L/CUMXBwtrQwcIAw8HCNJHBwvphwMKqc7/CSkW/wjkvwMK8ccHCHmDBwlKAwcKu+MDC&#xD;&#xa;zErCwuqgwsLa+MLC753DwmjuxcLEWMfCkePFwo47xsKnX8XC7tTCwuf3wsL+HcLCTcTBwmg6w8Is&#xD;&#xa;RMPC+qjDwiyGxMLi58TCnWvFwpjsxsKzCMbCyCTDwpM2wcJWGMPCvuDFwh42xsIfyMTCeLTFwuH7&#xD;&#xa;xMJctcfCVv3HwpTGx8J8b8jCqhjHwrgkx8LXNsfCZkLGwnxSxcL8csXCbu7FwsaQyMLa68fCo0XH&#xD;&#xa;woruxMJGHsbCORbJwry2yMLIUsfCxlfGwmLoxcLSPMnCYPDJwkw3yMKc7crC8vDLwug2y8Lu28vC&#xD;&#xa;OKvMwvLpysKGj8rCtNXLwrMay8KdGMrCUr3JwgIVy8J64MvCkbTJwjh4x8JGI8bCvBXHwnoPycKN&#xD;&#xa;Ss3CuC/Nwuywy8IkJ8zCx9/KwnB5ycKnk8nCenLJwnN6ycKc+sjCLFzJwuTrzMJkJM/CY5vOwoYO&#xD;&#xa;zsLU987CVKfNwiZZzcJQxNDCICHVwi0d18Kc29jCIF/YwtKo2MKeBNvCwpTawmY/2sJXPdvCZZXY&#xD;&#xa;whB818IQNdjCDF3XwtWC1sIGF9fCfFfXwkBy2MJ6+9nC1hfZwi5k2cJlfNjCnEPYwm/N1cKGOdXC&#xD;&#xa;Yk/XwgXL2MJSytfCgpTWwqTT1sJOGtnCrF/ZwtcT2cK08NjCscHZwpQ72sLJ/NrCy3zYwmCk18LE&#xD;&#xa;O9fC6hbYwtYU2cJN/dnC1EbZwrw/2cIqyNbCDr7Xwvb02cLQ+dnCaJvXwuYO18KSodnC1NnawtJJ&#xD;&#xa;18ISLtjC90nawoel2cIwl9jCi0XZwih328Ks7NjC5KzZwqui2cJw0tjCukLYws+O2MJaqtrCUuXa&#xD;&#xa;wviX2MIKxtfCnqXXwhjI2MJwAtvCIFvcwgCL2cJ0/djCdyXawh9H2cJ+ntfCy4TXwhqF2MJ68NnC&#xD;&#xa;CzvYwljT2cIkP9vCIs/bwjpB2sK2A9rCXt/awjZH2sIfltvCKWPcwjp53MKrGd3CaBPewj/03MJm&#xD;&#xa;U97CphfgwlJp3cKQpt3Crxjewm7d28Kq/9vCNNXcwqY728IUH9vCkirbwgIt28KK19zCjmzdwoBH&#xD;&#xa;3MIAUtvCUq3bwo8f28Ig09jCiyfZwhbx2sLWe9zCvgzbwmwI2sI2nNvC0lvdwg6128I8PNvCLufa&#xD;&#xa;wkyK28KkitzCJIDcwmAO28L0TNrCDHXawjla28IQkdzCoCDcwjRI3MJVUdvCtujZwnCs2sK8Yd3C&#xD;&#xa;iGbbwuSB2cImFNvCCI7rwoA/l8JLuYTCrOB9wgsMfMJoG4LCaWeFwkohjMJdoYvCYv6LwlnvjcKf&#xD;&#xa;nYzChXWPwlcejsL6fo/C5OmQwgVTj8IVMI/COiWRwoWFkcJ2tYzC8I6MwuQbjcJvEo/ClwGRwheQ&#xD;&#xa;lsK8+pbCN5qVwlielcJ905rCmu+fwst0ncIC/JvCdIWdws3snsKxC5zCfh2cwniFnMJRypzCtRag&#xD;&#xa;wuoCosJQt6DCzoegwhY9ocIWN6PCsNqkwrSlpMJ6maTCYpCkwmLvo8Li+KPCyEamwnBNqMLMcqrC&#xD;&#xa;v2GswoS+q8Kk86vCVACuwnvUr8JxZa/CqHqswrdXq8LqT6zCZsuswhZxrMLBX67CnmqvwpYyrsKc&#xD;&#xa;pq3CJFGvwghrsMK3y6/CXoCtwmWZr8ICi7DCgRezwogSs8Joq7LCm0Sxwuz/scIfibTCOOK1wlIM&#xD;&#xa;t8K87LfCj3K3wqDYs8KT1bLCVsW0wnZ0tcJGhLXCfPe0ws/ntcLGXrbCzAG1wtXdtcKxxrTC1Ay1&#xD;&#xa;wquGtcLjELbC8Zi2wl7rtsJBYbbCMF+1wrEutMKuibTCSFa1wpvktMIu3rTCtGe4wjaduMIKErfC&#xD;&#xa;SLa1wvS/tsJmZrjCdn63whjft8Ie47rCfdi5wmjpt8KKCLjCXmC5wsOQt8JDGbfCK4m4wmpvuMLL&#xD;&#xa;nLjC80q4wjUVusKunLjC1Be5wg4cuMLxCbjCwfW4wmi7ucIOdbvCbLG6whqdusKYErrCbpC4wmq0&#xD;&#xa;ucIoWrvCaNe6ws4iu8LSc7zCUNa7wuJZvMIwLL3CWe28wps2v8J2l77Cv3W+wvgavsKAwrzCQCy8&#xD;&#xa;wgBRu8Km8brChSa6wuM4u8IaaL3Cf5y9wg4hvMLur7vCIpO9wm0fvcIGNLzC7Le8wvKgvMKQrLzC&#xD;&#xa;p6+9wtYtvsJcxbzCQC29wjDqvcKeNbzCH2W8wpbZvsLCTL7CnjO+wuIsvsJs67vCwLq9wiKhvsLs&#xD;&#xa;o73C5Du9wqqhvcLwKr7C2kq/wqEMv8LVCb7Cpla+wsXpvMIs6bvC/fO8wueCvsIM4b3CxtC+wmTo&#xD;&#xa;vcI+arzCTNe8wiFNv8IvKL/Cpg+/woK1v8L4i7/CNv2+wmsVv8KWj77CVym+wnAlv8Joa8DCFDzA&#xD;&#xa;wiQYwcLSIcHCxILAwuxKvsJYm77CPoHAwiYPwcLuy77CcQa+wrB4vcKwYLzCxKW8worIvcIlzr/C&#xD;&#xa;OMC+wuRDvcJGZ7zCxFi9wuQzvMLPbbvCwIe+wm7bvcLm9L3COH6+wuuJvMK2B73CYb+9wqbxvMK/&#xD;&#xa;mL7CqIe9wvCavMKs7L3Ckau8wkpavMKt9LzCF8S+wmgKvsKCy73ClrG+wmIovcIns73Cmg+/wgw7&#xD;&#xa;wMI607/CpEq/wmwVvcJLsLvCMD68wuxdvcIeI7/C+bS+wpxfvsJyxsDC1tO/wmtrv8LNnb/CQiK+&#xD;&#xa;wlz7vcLa6L/CUMXBwtrQwcIAw8HCNJHBwvphwMKqc7/CSkW/wjkvwMK8ccHCHmDBwlKAwcKu+MDC&#xD;&#xa;zErCwuqgwsLa+MLC753DwmjuxcLEWMfCkePFwo47xsKnX8XC7tTCwuf3wsL+HcLCTcTBwmg6w8Is&#xD;&#xa;RMPC+qjDwiyGxMLi58TCnWvFwpjsxsKzCMbCyCTDwpM2wcJWGMPCvuDFwh42xsIfyMTCeLTFwuH7&#xD;&#xa;xMJctcfCVv3HwpTGx8J8b8jCqhjHwrgkx8LXNsfCZkLGwnxSxcL8csXCbu7FwsaQyMLa68fCo0XH&#xD;&#xa;woruxMJGHsbCORbJwry2yMLIUsfCxlfGwmLoxcLSPMnCYPDJwkw3yMKc7crC8vDLwug2y8Lu28vC&#xD;&#xa;OKvMwvLpysKGj8rCtNXLwrMay8KdGMrCUr3JwgIVy8J64MvCkbTJwjh4x8JGI8bCvBXHwnoPycKN&#xD;&#xa;Ss3CuC/Nwuywy8IkJ8zCx9/KwnB5ycKnk8nCenLJwnN6ycKc+sjCLFzJwuTrzMJkJM/CY5vOwoYO&#xD;&#xa;zsLU987CVKfNwiZZzcJQxNDCICHVwi0d18Kc29jCIF/YwtKo2MKeBNvCwpTawmY/2sJXPdvCZZXY&#xD;&#xa;whB818IQNdjCDF3XwtWC1sIGF9fCfFfXwkBy2MJ6+9nC1hfZwi5k2cJlfNjCnEPYwm/N1cKGOdXC&#xD;&#xa;Yk/XwgXL2MJSytfCgpTWwqTT1sJOGtnCrF/ZwtcT2cK08NjCscHZwpQ72sLJ/NrCy3zYwmCk18LE&#xD;&#xa;O9fC6hbYwtYU2cJN/dnC1EbZwrw/2cIqyNbCDr7Xwvb02cLQ+dnCaJvXwuYO18KSodnC1NnawtJJ&#xD;&#xa;18ISLtjC90nawoel2cIwl9jCi0XZwih328Ks7NjC5KzZwqui2cJw0tjCukLYws+O2MJaqtrCUuXa&#xD;&#xa;wviX2MIKxtfCnqXXwhjI2MJwAtvCIFvcwgCL2cJ0/djCdyXawh9H2cJ+ntfCy4TXwhqF2MJ68NnC&#xD;&#xa;CzvYwljT2cIkP9vCIs/bwjpB2sK2A9rCXt/awjZH2sIfltvCKWPcwjp53MKrGd3CaBPewj/03MJm&#xD;&#xa;U97CphfgwlJp3cKQpt3Crxjewm7d28Kq/9vCNNXcwqY728IUH9vCkirbwgIt28KK19zCjmzdwoBH&#xD;&#xa;3MIAUtvCUq3bwo8f28Ig09jCiyfZwhbx2sLWe9zCvgzbwmwI2sI2nNvC0lvdwg6128I8PNvCLufa&#xD;&#xa;wkyK28KkitzCJIDcwmAO28L0TNrCDHXawjla28IQkdzCoCDcwjRI3MJVUdvCtujZwnCs2sK8Yd3C&#xD;&#xa;iGbbwuSB2cImFNvCCI7r" leadInLength="0/1"  />
            </Keyframes>
           </Parameter>
           </Parameters>
          </GenericEffect>
          <GenericEffect id="10169" name = "Declipper" >
           <Parameters>
           <InterpolatingParam id="10170" interp="linr"  time="0/1" value="-1" leadInLength="0/1"   name="sensitivity"/>
           </Parameters>
          </GenericEffect>
          <GenericEffect id="10171" name = "Declicker" >
           <Parameters>
           <InterpolatingParam id="10172" interp="linr"  time="0/1" value="3" leadInLength="0/1"   name="sensitivity"/>
           </Parameters>
          </GenericEffect>
         </Effects>
         <Attributes>
          <Attribute id="10173" value="" name="ident"/>
          <Attribute id="10174" value="0" name="mixToMono"/>
         </Attributes>
         <MetaData>
          <entry key="WinSubProjectDisplayName" val=""/>
         </MetaData>
         <ExtraData>
          <Entry key="ZoomPanBin">
           <ZoomPanBin id="10175"  >
            <ZoomPanKeyframes>
            </ZoomPanKeyframes>
           </ZoomPanBin>
          </Entry>
          <Entry key="CursorEffectBin">
           <CursorEffectBin id="10176"  >
            <CursorEffectKeyframes>
            </CursorEffectKeyframes>
           </CursorEffectBin>
          </Entry>
         </ExtraData>
         <GenericTrack id="10177"  >
          <Attributes>
           <Attribute id="10178" value="" name="ident"/>
           <Attribute id="10179" value="0" name="audioMuted"/>
           <Attribute id="10180" value="0" name="videoHidden"/>
          </Attributes>
          <MetaData>
           <entry key="IsLocked" val="False"/>
           <entry key="WinTrackHeight" val="0"/>
          </MetaData>
          <Medias>
           <AMFile id="10181" start="0" duration="117" scalar="1/1" mediaStart="0/1" mediaDuration="117/1" trackNumber="0" src="29" channelNumber="0" >
            <Parameters>
             <InterpolatingParam id="10182" interp="linr"  time="0/1" value="1" leadInLength="0/1"  name="volume"/>
             <Parameter id="10183"  name="captions"/>
            </Parameters>
            <Attributes>
             <Attribute id="10184" value="" name="ident"/>
             <Attribute id="10185" value="48000" name="sampleRate"/>
             <Attribute id="10186" value="16" name="bitDepth"/>
             <Attribute id="10187" value="1" name="gain"/>
             <Attribute id="10188" value="0" name="mixToMono"/>
            </Attributes>
            <MetaData>
             <entry key="WinSubProjectDisplayName" val=""/>
            </MetaData>
           </AMFile>
           <AMFile id="10189" start="117" duration="272" scalar="1/1" mediaStart="131/1" mediaDuration="272/1" trackNumber="0" src="29" channelNumber="0" >
            <Parameters>
             <InterpolatingParam id="10190" interp="linr"  time="0/1" value="1" leadInLength="0/1"  name="volume"/>
             <Parameter id="10191"  name="captions"/>
            </Parameters>
            <Attributes>
             <Attribute id="10192" value="" name="ident"/>
             <Attribute id="10193" value="48000" name="sampleRate"/>
             <Attribute id="10194" value="16" name="bitDepth"/>
             <Attribute id="10195" value="1" name="gain"/>
             <Attribute id="10196" value="0" name="mixToMono"/>
            </Attributes>
            <MetaData>
             <entry key="WinSubProjectDisplayName" val=""/>
            </MetaData>
           </AMFile>
           <AMFile id="10197" start="389" duration="1309" scalar="1/1" mediaStart="415/1" mediaDuration="1309/1" trackNumber="0" src="29" channelNumber="0" >
            <Parameters>
             <InterpolatingParam id="10198" interp="linr"  time="0/1" value="1" leadInLength="0/1"  name="volume"/>
             <Parameter id="10199"  name="captions"/>
            </Parameters>
            <Attributes>
             <Attribute id="10200" value="" name="ident"/>
             <Attribute id="10201" value="48000" name="sampleRate"/>
             <Attribute id="10202" value="16" name="bitDepth"/>
             <Attribute id="10203" value="1" name="gain"/>
             <Attribute id="10204" value="0" name="mixToMono"/>
            </Attributes>
            <MetaData>
             <entry key="WinSubProjectDisplayName" val=""/>
            </MetaData>
           </AMFile>
           <AMFile id="10205" start="1698" duration="103" scalar="1/1" mediaStart="1734/1" mediaDuration="103/1" trackNumber="0" src="29" channelNumber="0" >
            <Parameters>
             <InterpolatingParam id="10206" interp="linr"  time="0/1" value="1" leadInLength="0/1"  name="volume"/>
             <Parameter id="10207"  name="captions"/>
            </Parameters>
            <Attributes>
             <Attribute id="10208" value="" name="ident"/>
             <Attribute id="10209" value="48000" name="sampleRate"/>
             <Attribute id="10210" value="16" name="bitDepth"/>
             <Attribute id="10211" value="1" name="gain"/>
             <Attribute id="10212" value="0" name="mixToMono"/>
            </Attributes>
            <MetaData>
             <entry key="WinSubProjectDisplayName" val=""/>
            </MetaData>
           </AMFile>
           <AMFile id="10213" start="1801" duration="245" scalar="1/1" mediaStart="2164/1" mediaDuration="245/1" trackNumber="0" src="29" channelNumber="0" >
            <Parameters>
             <InterpolatingParam id="10214" interp="linr"  time="0/1" value="1" leadInLength="0/1"  name="volume"/>
             <Parameter id="10215"  name="captions"/>
            </Parameters>
            <Attributes>
             <Attribute id="10216" value="" name="ident"/>
             <Attribute id="10217" value="48000" name="sampleRate"/>
             <Attribute id="10218" value="16" name="bitDepth"/>
             <Attribute id="10219" value="1" name="gain"/>
             <Attribute id="10220" value="0" name="mixToMono"/>
            </Attributes>
            <MetaData>
             <entry key="WinSubProjectDisplayName" val=""/>
            </MetaData>
           </AMFile>
           <AMFile id="10221" start="2046" duration="202" scalar="1/1" mediaStart="2637/1" mediaDuration="202/1" trackNumber="0" src="29" channelNumber="0" >
            <Parameters>
             <InterpolatingParam id="10222" interp="linr"  time="0/1" value="1" leadInLength="0/1"  name="volume"/>
             <Parameter id="10223"  name="captions"/>
            </Parameters>
            <Attributes>
             <Attribute id="10224" value="" name="ident"/>
             <Attribute id="10225" value="48000" name="sampleRate"/>
             <Attribute id="10226" value="16" name="bitDepth"/>
             <Attribute id="10227" value="1" name="gain"/>
             <Attribute id="10228" value="0" name="mixToMono"/>
            </Attributes>
            <MetaData>
             <entry key="WinSubProjectDisplayName" val=""/>
            </MetaData>
           </AMFile>
           <AMFile id="10229" start="2248" duration="185" scalar="1/1" mediaStart="2856/1" mediaDuration="185/1" trackNumber="0" src="29" channelNumber="0" >
            <Parameters>
             <InterpolatingParam id="10230" interp="linr"  time="0/1" value="1" leadInLength="0/1"  name="volume"/>
             <Parameter id="10231"  name="captions"/>
            </Parameters>
            <Attributes>
             <Attribute id="10232" value="" name="ident"/>
             <Attribute id="10233" value="48000" name="sampleRate"/>
             <Attribute id="10234" value="16" name="bitDepth"/>
             <Attribute id="10235" value="1" name="gain"/>
             <Attribute id="10236" value="0" name="mixToMono"/>
            </Attributes>
            <MetaData>
             <entry key="WinSubProjectDisplayName" val=""/>
            </MetaData>
           </AMFile>
           <AMFile id="10237" start="2433" duration="215" scalar="1/1" mediaStart="3054/1" mediaDuration="215/1" trackNumber="0" src="29" channelNumber="0" >
            <Parameters>
             <InterpolatingParam id="10238" interp="linr"  time="0/1" value="1" leadInLength="0/1"  name="volume"/>
             <Parameter id="10239"  name="captions"/>
            </Parameters>
            <Attributes>
             <Attribute id="10240" value="" name="ident"/>
             <Attribute id="10241" value="48000" name="sampleRate"/>
             <Attribute id="10242" value="16" name="bitDepth"/>
             <Attribute id="10243" value="1" name="gain"/>
             <Attribute id="10244" value="0" name="mixToMono"/>
            </Attributes>
            <MetaData>
             <entry key="WinSubProjectDisplayName" val=""/>
            </MetaData>
           </AMFile>
           <AMFile id="10245" start="2648" duration="155" scalar="1/1" mediaStart="3288/1" mediaDuration="155/1" trackNumber="0" src="29" channelNumber="0" >
            <Parameters>
             <InterpolatingParam id="10246" interp="linr"  time="0/1" value="1" leadInLength="0/1"  name="volume"/>
             <Parameter id="10247"  name="captions"/>
            </Parameters>
            <Attributes>
             <Attribute id="10248" value="" name="ident"/>
             <Attribute id="10249" value="48000" name="sampleRate"/>
             <Attribute id="10250" value="16" name="bitDepth"/>
             <Attribute id="10251" value="1" name="gain"/>
             <Attribute id="10252" value="0" name="mixToMono"/>
            </Attributes>
            <MetaData>
             <entry key="WinSubProjectDisplayName" val=""/>
            </MetaData>
           </AMFile>
           <AMFile id="10253" start="2803" duration="103" scalar="1/1" mediaStart="3450/1" mediaDuration="103/1" trackNumber="0" src="29" channelNumber="0" >
            <Parameters>
             <InterpolatingParam id="10254" interp="linr"  time="0/1" value="1" leadInLength="0/1"  name="volume"/>
             <Parameter id="10255"  name="captions"/>
            </Parameters>
            <Attributes>
             <Attribute id="10256" value="" name="ident"/>
             <Attribute id="10257" value="48000" name="sampleRate"/>
             <Attribute id="10258" value="16" name="bitDepth"/>
             <Attribute id="10259" value="1" name="gain"/>
             <Attribute id="10260" value="0" name="mixToMono"/>
            </Attributes>
            <MetaData>
             <entry key="WinSubProjectDisplayName" val=""/>
            </MetaData>
           </AMFile>
           <AMFile id="10261" start="2906" duration="2683" scalar="1/1" mediaStart="3564/1" mediaDuration="2683/1" trackNumber="0" src="29" channelNumber="0" >
            <Parameters>
             <InterpolatingParam id="10262" interp="linr"  time="0/1" value="1" leadInLength="0/1"  name="volume"/>
             <Parameter id="10263"  name="captions"/>
            </Parameters>
            <Attributes>
             <Attribute id="10264" value="" name="ident"/>
             <Attribute id="10265" value="48000" name="sampleRate"/>
             <Attribute id="10266" value="16" name="bitDepth"/>
             <Attribute id="10267" value="1" name="gain"/>
             <Attribute id="10268" value="0" name="mixToMono"/>
            </Attributes>
            <MetaData>
             <entry key="WinSubProjectDisplayName" val=""/>
            </MetaData>
           </AMFile>
           <AMFile id="10269" start="5589" duration="143" scalar="1/1" mediaStart="6247/1" mediaDuration="143/1" trackNumber="0" src="29" channelNumber="0" >
            <Parameters>
             <InterpolatingParam id="10270" interp="linr"  time="0/1" value="1" leadInLength="0/1"  name="volume"/>
             <Parameter id="10271"  name="captions"/>
            </Parameters>
            <Attributes>
             <Attribute id="10272" value="" name="ident"/>
             <Attribute id="10273" value="48000" name="sampleRate"/>
             <Attribute id="10274" value="16" name="bitDepth"/>
             <Attribute id="10275" value="1" name="gain"/>
             <Attribute id="10276" value="0" name="mixToMono"/>
            </Attributes>
            <MetaData>
             <entry key="WinSubProjectDisplayName" val=""/>
            </MetaData>
           </AMFile>
           <AMFile id="10277" start="5732" duration="285" scalar="1/1" mediaStart="6413/1" mediaDuration="285/1" trackNumber="0" src="29" channelNumber="0" >
            <Parameters>
             <InterpolatingParam id="10278" interp="linr"  time="0/1" value="1" leadInLength="0/1"  name="volume"/>
             <Parameter id="10279"  name="captions"/>
            </Parameters>
            <Attributes>
             <Attribute id="10280" value="" name="ident"/>
             <Attribute id="10281" value="48000" name="sampleRate"/>
             <Attribute id="10282" value="16" name="bitDepth"/>
             <Attribute id="10283" value="1" name="gain"/>
             <Attribute id="10284" value="0" name="mixToMono"/>
            </Attributes>
            <MetaData>
             <entry key="WinSubProjectDisplayName" val=""/>
            </MetaData>
           </AMFile>
           <AMFile id="10285" start="6017" duration="102" scalar="1/1" mediaStart="6729/1" mediaDuration="102/1" trackNumber="0" src="29" channelNumber="0" >
            <Parameters>
             <InterpolatingParam id="10286" interp="linr"  time="0/1" value="1" leadInLength="0/1"  name="volume"/>
             <Parameter id="10287"  name="captions"/>
            </Parameters>
            <Attributes>
             <Attribute id="10288" value="" name="ident"/>
             <Attribute id="10289" value="48000" name="sampleRate"/>
             <Attribute id="10290" value="16" name="bitDepth"/>
             <Attribute id="10291" value="1" name="gain"/>
             <Attribute id="10292" value="0" name="mixToMono"/>
            </Attributes>
            <MetaData>
             <entry key="WinSubProjectDisplayName" val=""/>
            </MetaData>
           </AMFile>
           <AMFile id="10293" start="6119" duration="234" scalar="1/1" mediaStart="6848/1" mediaDuration="234/1" trackNumber="0" src="29" channelNumber="0" >
            <Parameters>
             <InterpolatingParam id="10294" interp="linr"  time="0/1" value="1" leadInLength="0/1"  name="volume"/>
             <Parameter id="10295"  name="captions"/>
            </Parameters>
            <Attributes>
             <Attribute id="10296" value="" name="ident"/>
             <Attribute id="10297" value="48000" name="sampleRate"/>
             <Attribute id="10298" value="16" name="bitDepth"/>
             <Attribute id="10299" value="1" name="gain"/>
             <Attribute id="10300" value="0" name="mixToMono"/>
            </Attributes>
            <MetaData>
             <entry key="WinSubProjectDisplayName" val=""/>
            </MetaData>
           </AMFile>
           <AMFile id="10301" start="6353" duration="107" scalar="1/1" mediaStart="7089/1" mediaDuration="107/1" trackNumber="0" src="29" channelNumber="0" >
            <Parameters>
             <InterpolatingParam id="10302" interp="linr"  time="0/1" value="1" leadInLength="0/1"  name="volume"/>
             <Parameter id="10303"  name="captions"/>
            </Parameters>
            <Attributes>
             <Attribute id="10304" value="" name="ident"/>
             <Attribute id="10305" value="48000" name="sampleRate"/>
             <Attribute id="10306" value="16" name="bitDepth"/>
             <Attribute id="10307" value="1" name="gain"/>
             <Attribute id="10308" value="0" name="mixToMono"/>
            </Attributes>
            <MetaData>
             <entry key="WinSubProjectDisplayName" val=""/>
            </MetaData>
           </AMFile>
           <AMFile id="10309" start="6460" duration="67" scalar="1/1" mediaStart="7207/1" mediaDuration="67/1" trackNumber="0" src="29" channelNumber="0" >
            <Parameters>
             <InterpolatingParam id="10310" interp="linr"  time="0/1" value="1" leadInLength="0/1"  name="volume"/>
             <Parameter id="10311"  name="captions"/>
            </Parameters>
            <Attributes>
             <Attribute id="10312" value="" name="ident"/>
             <Attribute id="10313" value="48000" name="sampleRate"/>
             <Attribute id="10314" value="16" name="bitDepth"/>
             <Attribute id="10315" value="1" name="gain"/>
             <Attribute id="10316" value="0" name="mixToMono"/>
            </Attributes>
            <MetaData>
             <entry key="WinSubProjectDisplayName" val=""/>
            </MetaData>
           </AMFile>
           <AMFile id="10317" start="6527" duration="226" scalar="1/1" mediaStart="7297/1" mediaDuration="226/1" trackNumber="0" src="29" channelNumber="0" >
            <Parameters>
             <InterpolatingParam id="10318" interp="linr"  time="0/1" value="1" leadInLength="0/1"  name="volume"/>
             <Parameter id="10319"  name="captions"/>
            </Parameters>
            <Attributes>
             <Attribute id="10320" value="" name="ident"/>
             <Attribute id="10321" value="48000" name="sampleRate"/>
             <Attribute id="10322" value="16" name="bitDepth"/>
             <Attribute id="10323" value="1" name="gain"/>
             <Attribute id="10324" value="0" name="mixToMono"/>
            </Attributes>
            <MetaData>
             <entry key="WinSubProjectDisplayName" val=""/>
            </MetaData>
           </AMFile>
           <AMFile id="10325" start="6753" duration="117" scalar="1/1" mediaStart="7540/1" mediaDuration="117/1" trackNumber="0" src="29" channelNumber="0" >
            <Parameters>
             <InterpolatingParam id="10326" interp="linr"  time="0/1" value="1" leadInLength="0/1"  name="volume"/>
             <Parameter id="10327"  name="captions"/>
            </Parameters>
            <Attributes>
             <Attribute id="10328" value="" name="ident"/>
             <Attribute id="10329" value="48000" name="sampleRate"/>
             <Attribute id="10330" value="16" name="bitDepth"/>
             <Attribute id="10331" value="1" name="gain"/>
             <Attribute id="10332" value="0" name="mixToMono"/>
            </Attributes>
            <MetaData>
             <entry key="WinSubProjectDisplayName" val=""/>
            </MetaData>
           </AMFile>
           <AMFile id="10333" start="6870" duration="52" scalar="1/1" mediaStart="7796/1" mediaDuration="52/1" trackNumber="0" src="29" channelNumber="0" >
            <Parameters>
             <InterpolatingParam id="10334" interp="linr"  time="0/1" value="1" leadInLength="0/1"  name="volume"/>
             <Parameter id="10335"  name="captions"/>
            </Parameters>
            <Attributes>
             <Attribute id="10336" value="" name="ident"/>
             <Attribute id="10337" value="48000" name="sampleRate"/>
             <Attribute id="10338" value="16" name="bitDepth"/>
             <Attribute id="10339" value="1" name="gain"/>
             <Attribute id="10340" value="0" name="mixToMono"/>
            </Attributes>
            <MetaData>
             <entry key="WinSubProjectDisplayName" val=""/>
            </MetaData>
           </AMFile>
           <AMFile id="10341" start="6922" duration="100" scalar="1/1" mediaStart="8187/1" mediaDuration="100/1" trackNumber="0" src="29" channelNumber="0" >
            <Parameters>
             <InterpolatingParam id="10342" interp="linr"  time="0/1" value="1" leadInLength="0/1"  name="volume"/>
             <Parameter id="10343"  name="captions"/>
            </Parameters>
            <Attributes>
             <Attribute id="10344" value="" name="ident"/>
             <Attribute id="10345" value="48000" name="sampleRate"/>
             <Attribute id="10346" value="16" name="bitDepth"/>
             <Attribute id="10347" value="1" name="gain"/>
             <Attribute id="10348" value="0" name="mixToMono"/>
            </Attributes>
            <MetaData>
             <entry key="WinSubProjectDisplayName" val=""/>
            </MetaData>
           </AMFile>
           <AMFile id="10349" start="7022" duration="1377" scalar="1/1" mediaStart="8303/1" mediaDuration="1377/1" trackNumber="0" src="29" channelNumber="0" >
            <Parameters>
             <InterpolatingParam id="10350" interp="linr"  time="0/1" value="1" leadInLength="0/1"  name="volume"/>
             <Parameter id="10351"  name="captions"/>
            </Parameters>
            <Attributes>
             <Attribute id="10352" value="" name="ident"/>
             <Attribute id="10353" value="48000" name="sampleRate"/>
             <Attribute id="10354" value="16" name="bitDepth"/>
             <Attribute id="10355" value="1" name="gain"/>
             <Attribute id="10356" value="0" name="mixToMono"/>
            </Attributes>
            <MetaData>
             <entry key="WinSubProjectDisplayName" val=""/>
            </MetaData>
           </AMFile>
           <AMFile id="10357" start="8399" duration="3717" scalar="1/1" mediaStart="9929/1" mediaDuration="3717/1" trackNumber="0" src="29" channelNumber="0" >
            <Parameters>
             <InterpolatingParam id="10358" interp="linr"  time="0/1" value="1" leadInLength="0/1"  name="volume"/>
             <Parameter id="10359"  name="captions"/>
            </Parameters>
            <Attributes>
             <Attribute id="10360" value="" name="ident"/>
             <Attribute id="10361" value="48000" name="sampleRate"/>
             <Attribute id="10362" value="16" name="bitDepth"/>
             <Attribute id="10363" value="1" name="gain"/>
             <Attribute id="10364" value="0" name="mixToMono"/>
            </Attributes>
            <MetaData>
             <entry key="WinSubProjectDisplayName" val=""/>
            </MetaData>
           </AMFile>
          </Medias>
         </GenericTrack>
        </StitchedMedia>
       </Medias>
      </GenericTrack>
      <GenericTrack id="10365"  >
       <Attributes>
        <Attribute id="10366" value="Photos" name="ident"/>
        <Attribute id="10367" value="0" name="audioMuted"/>
        <Attribute id="10368" value="0" name="videoHidden"/>
       </Attributes>
       <MetaData>
        <entry key="IsLocked" val="False"/>
        <entry key="WinTrackHeight" val="62"/>
       </MetaData>
       <Medias>
        <IMFile id="10369" start="1899" duration="954" scalar="1/1" mediaStart="0/1" mediaDuration="1/1" trackNumber="0" src="12" trimStartSum="41/1" >
         <Transformer>
          <VectorParam id="10370"  name="translation">
           <InterpolatingParam id="10371" interp="linr"  >
            <Keyframes>
            <Keyframe id="10372"  time="-9999999/1" value="-1.6283185842329244" leadInLength="0/1"  />
            <Keyframe id="10373"  time="78/1" value="594.45302555481453" leadInLength="20/1"  interpolater="leadin-linr"  />
            </Keyframes>
           </InterpolatingParam>
           <InterpolatingParam id="10374" interp="linr"  >
            <Keyframes>
            <Keyframe id="10375"  time="-9999999/1" value="8.2221562891504618e-011" leadInLength="0/1"  />
            <Keyframe id="10376"  time="78/1" value="9.6245011960149895e-011" leadInLength="20/1"  interpolater="leadin-linr"  />
            </Keyframes>
           </InterpolatingParam>
           <InterpolatingParam id="10377" interp="linr"  >
            <Keyframes>
            <Keyframe id="10378"  time="-9999999/1" value="0" leadInLength="0/1"  />
            <Keyframe id="10379"  time="78/1" value="0" leadInLength="20/1"  interpolater="leadin-linr"  />
            </Keyframes>
           </InterpolatingParam>
          </VectorParam>
          <VectorParam id="10380"  name="rotation">
           <InterpolatingParam id="10381" interp="linr"  >
            <Keyframes>
            <Keyframe id="10382"  time="-9999999/1" value="0" leadInLength="0/1"  />
            <Keyframe id="10383"  time="78/1" value="0" leadInLength="20/1"  interpolater="leadin-linr"  />
            </Keyframes>
           </InterpolatingParam>
           <InterpolatingParam id="10384" interp="linr"  >
            <Keyframes>
            <Keyframe id="10385"  time="-9999999/1" value="0" leadInLength="0/1"  />
            <Keyframe id="10386"  time="78/1" value="0" leadInLength="20/1"  interpolater="leadin-linr"  />
            </Keyframes>
           </InterpolatingParam>
           <InterpolatingParam id="10387" interp="linr"  >
            <Keyframes>
            <Keyframe id="10388"  time="-9999999/1" value="0" leadInLength="0/1"  />
            <Keyframe id="10389"  time="78/1" value="0" leadInLength="20/1"  interpolater="leadin-linr"  />
            </Keyframes>
           </InterpolatingParam>
          </VectorParam>
          <VectorParam id="10390"  name="shear">
           <InterpolatingParam id="10391" interp="linr"  >
            <Keyframes>
            <Keyframe id="10392"  time="-9999999/1" value="0" leadInLength="0/1"  />
            <Keyframe id="10393"  time="78/1" value="0" leadInLength="20/1"  interpolater="leadin-linr"  />
            </Keyframes>
           </InterpolatingParam>
           <InterpolatingParam id="10394" interp="linr"  >
            <Keyframes>
            <Keyframe id="10395"  time="-9999999/1" value="0" leadInLength="0/1"  />
            <Keyframe id="10396"  time="78/1" value="0" leadInLength="20/1"  interpolater="leadin-linr"  />
            </Keyframes>
           </InterpolatingParam>
           <InterpolatingParam id="10397" interp="linr"  >
            <Keyframes>
            <Keyframe id="10398"  time="-9999999/1" value="0" leadInLength="0/1"  />
            <Keyframe id="10399"  time="78/1" value="0" leadInLength="20/1"  interpolater="leadin-linr"  />
            </Keyframes>
           </InterpolatingParam>
          </VectorParam>
          <VectorParam id="10400"  name="scale">
           <InterpolatingParam id="10401" interp="linr"  >
            <Keyframes>
            <Keyframe id="10402"  time="-9999999/1" value="0.703125" leadInLength="0/1"  />
            <Keyframe id="10403"  time="78/1" value="0.703125" leadInLength="20/1"  interpolater="leadin-linr"  />
            </Keyframes>
           </InterpolatingParam>
           <InterpolatingParam id="10404" interp="linr"  >
            <Keyframes>
            <Keyframe id="10405"  time="-9999999/1" value="0.703125" leadInLength="0/1"  />
            <Keyframe id="10406"  time="78/1" value="0.703125" leadInLength="20/1"  interpolater="leadin-linr"  />
            </Keyframes>
           </InterpolatingParam>
           <InterpolatingParam id="10407" interp="linr"  >
            <Keyframes>
            <Keyframe id="10408"  time="-9999999/1" value="1" leadInLength="0/1"  />
            <Keyframe id="10409"  time="78/1" value="1" leadInLength="20/1"  interpolater="leadin-linr"  />
            </Keyframes>
           </InterpolatingParam>
          </VectorParam>
          <VectorParam id="10410"  name="anchor">
           <InterpolatingParam id="10411" interp="linr"  time="0/1" value="0" leadInLength="0/1"  />
           <InterpolatingParam id="10412" interp="linr"  time="0/1" value="0" leadInLength="0/1"  />
           <InterpolatingParam id="10413" interp="linr"  time="0/1" value="0" leadInLength="0/1"  />
          </VectorParam>
         </Transformer>
         <Parameters>
          <VectorParam id="10414"  name="sourceCrop">
           <InterpolatingParam id="10415" interp="linr"  time="0/1" value="0" leadInLength="0/1"  />
           <InterpolatingParam id="10416" interp="linr"  time="0/1" value="0" leadInLength="0/1"  />
           <InterpolatingParam id="10417" interp="linr"  time="0/1" value="0" leadInLength="0/1"  />
           <InterpolatingParam id="10418" interp="linr"  time="0/1" value="0" leadInLength="0/1"  />
          </VectorParam>
          <VectorParam id="10419"  name="geometryCrop">
           <InterpolatingParam id="10420" interp="linr"  >
            <Keyframes>
            <Keyframe id="10421"  time="-9999999/1" value="0" leadInLength="0/1"  />
            <Keyframe id="10422"  time="78/1" value="0" leadInLength="20/1"  interpolater="leadin-linr"  />
            </Keyframes>
           </InterpolatingParam>
           <InterpolatingParam id="10423" interp="linr"  >
            <Keyframes>
            <Keyframe id="10424"  time="-9999999/1" value="0" leadInLength="0/1"  />
            <Keyframe id="10425"  time="78/1" value="0" leadInLength="20/1"  interpolater="leadin-linr"  />
            </Keyframes>
           </InterpolatingParam>
           <InterpolatingParam id="10426" interp="linr"  >
            <Keyframes>
            <Keyframe id="10427"  time="-9999999/1" value="0" leadInLength="0/1"  />
            <Keyframe id="10428"  time="78/1" value="0" leadInLength="20/1"  interpolater="leadin-linr"  />
            </Keyframes>
           </InterpolatingParam>
           <InterpolatingParam id="10429" interp="linr"  >
            <Keyframes>
            <Keyframe id="10430"  time="-9999999/1" value="0" leadInLength="0/1"  />
            <Keyframe id="10431"  time="78/1" value="0" leadInLength="20/1"  interpolater="leadin-linr"  />
            </Keyframes>
           </InterpolatingParam>
          </VectorParam>
          <InterpolatingParam id="10432" interp="linr"  name="opacity">
           <Keyframes>
           <Keyframe id="10433"  time="-9999999/1" value="1" leadInLength="0/1"  />
           <Keyframe id="10434"  time="78/1" value="1" leadInLength="20/1"  interpolater="leadin-linr"  />
           </Keyframes>
          </InterpolatingParam>
         </Parameters>
         <Attributes>
          <Attribute id="10435" value="" name="ident"/>
         </Attributes>
         <MetaData>
          <entry key="WinSubProjectDisplayName" val=""/>
         </MetaData>
         <ExtraData>
          <Entry key="ZoomPanBin">
           <ZoomPanBin id="10436"  >
            <ZoomPanKeyframes>
             <ZoomPanKeyframe id="10437" timeRangeEnd="-9999999/1" timeRangeDuration="0/1" interpolaterName="linr"  />
             <ZoomPanKeyframe id="10438" timeRangeEnd="78/1" timeRangeDuration="20/1" interpolaterName="linr"  />
            </ZoomPanKeyframes>
           </ZoomPanBin>
          </Entry>
         </ExtraData>
        </IMFile>
        <IMFile id="10439" start="2853" duration="331" scalar="1/1" mediaStart="0/1" mediaDuration="1/1" trackNumber="0" src="12" trimStartSum="724/1" >
         <Transformer>
          <VectorParam id="10440"  name="translation">
           <InterpolatingParam id="10441" interp="linr"  >
            <Keyframes>
            <Keyframe id="10442"  time="-9999999/1" value="565.51110863743156" leadInLength="0/1"  />
            <Keyframe id="10443"  time="166/1" value="358.83404155467923" leadInLength="139/1"  interpolater="leadin-linr"  />
            <Keyframe id="10444"  time="602/1" value="682.78316370691266" leadInLength="175/1"  interpolater="leadin-linr"  />
            <Keyframe id="10445"  time="934/1" value="359.9999999998368" leadInLength="210/1"  interpolater="leadin-linr"  />
            </Keyframes>
           </InterpolatingParam>
           <InterpolatingParam id="10446" interp="linr"  >
            <Keyframes>
            <Keyframe id="10447"  time="-9999999/1" value="-2.1902479829805088e-011" leadInLength="0/1"  />
            <Keyframe id="10448"  time="166/1" value="-50.546021840897481" leadInLength="139/1"  interpolater="leadin-linr"  />
            <Keyframe id="10449"  time="602/1" value="55.600624025029539" leadInLength="175/1"  interpolater="leadin-linr"  />
            <Keyframe id="10450"  time="934/1" value="6.524913942485e-011" leadInLength="210/1"  interpolater="leadin-linr"  />
            </Keyframes>
           </InterpolatingParam>
           <InterpolatingParam id="10451" interp="linr"  >
            <Keyframes>
            <Keyframe id="10452"  time="-9999999/1" value="0" leadInLength="0/1"  />
            <Keyframe id="10453"  time="166/1" value="0" leadInLength="139/1"  interpolater="leadin-linr"  />
            <Keyframe id="10454"  time="602/1" value="0" leadInLength="175/1"  interpolater="leadin-linr"  />
            <Keyframe id="10455"  time="934/1" value="0" leadInLength="210/1"  interpolater="leadin-linr"  />
            </Keyframes>
           </InterpolatingParam>
          </VectorParam>
          <VectorParam id="10456"  name="rotation">
           <InterpolatingParam id="10457" interp="linr"  >
            <Keyframes>
            <Keyframe id="10458"  time="-9999999/1" value="0" leadInLength="0/1"  />
            <Keyframe id="10459"  time="166/1" value="0" leadInLength="139/1"  interpolater="leadin-linr"  />
            <Keyframe id="10460"  time="602/1" value="0" leadInLength="175/1"  interpolater="leadin-linr"  />
            <Keyframe id="10461"  time="934/1" value="0" leadInLength="210/1"  interpolater="leadin-linr"  />
            </Keyframes>
           </InterpolatingParam>
           <InterpolatingParam id="10462" interp="linr"  >
            <Keyframes>
            <Keyframe id="10463"  time="-9999999/1" value="0" leadInLength="0/1"  />
            <Keyframe id="10464"  time="166/1" value="0" leadInLength="139/1"  interpolater="leadin-linr"  />
            <Keyframe id="10465"  time="602/1" value="0" leadInLength="175/1"  interpolater="leadin-linr"  />
            <Keyframe id="10466"  time="934/1" value="0" leadInLength="210/1"  interpolater="leadin-linr"  />
            </Keyframes>
           </InterpolatingParam>
           <InterpolatingParam id="10467" interp="linr"  >
            <Keyframes>
            <Keyframe id="10468"  time="-9999999/1" value="0" leadInLength="0/1"  />
            <Keyframe id="10469"  time="166/1" value="0" leadInLength="139/1"  interpolater="leadin-linr"  />
            <Keyframe id="10470"  time="602/1" value="0" leadInLength="175/1"  interpolater="leadin-linr"  />
            <Keyframe id="10471"  time="934/1" value="0" leadInLength="210/1"  interpolater="leadin-linr"  />
            </Keyframes>
           </InterpolatingParam>
          </VectorParam>
          <VectorParam id="10472"  name="shear">
           <InterpolatingParam id="10473" interp="linr"  >
            <Keyframes>
            <Keyframe id="10474"  time="-9999999/1" value="0" leadInLength="0/1"  />
            <Keyframe id="10475"  time="166/1" value="0" leadInLength="139/1"  interpolater="leadin-linr"  />
            <Keyframe id="10476"  time="602/1" value="0" leadInLength="175/1"  interpolater="leadin-linr"  />
            <Keyframe id="10477"  time="934/1" value="0" leadInLength="210/1"  interpolater="leadin-linr"  />
            </Keyframes>
           </InterpolatingParam>
           <InterpolatingParam id="10478" interp="linr"  >
            <Keyframes>
            <Keyframe id="10479"  time="-9999999/1" value="0" leadInLength="0/1"  />
            <Keyframe id="10480"  time="166/1" value="0" leadInLength="139/1"  interpolater="leadin-linr"  />
            <Keyframe id="10481"  time="602/1" value="0" leadInLength="175/1"  interpolater="leadin-linr"  />
            <Keyframe id="10482"  time="934/1" value="0" leadInLength="210/1"  interpolater="leadin-linr"  />
            </Keyframes>
           </InterpolatingParam>
           <InterpolatingParam id="10483" interp="linr"  >
            <Keyframes>
            <Keyframe id="10484"  time="-9999999/1" value="0" leadInLength="0/1"  />
            <Keyframe id="10485"  time="166/1" value="0" leadInLength="139/1"  interpolater="leadin-linr"  />
            <Keyframe id="10486"  time="602/1" value="0" leadInLength="175/1"  interpolater="leadin-linr"  />
            <Keyframe id="10487"  time="934/1" value="0" leadInLength="210/1"  interpolater="leadin-linr"  />
            </Keyframes>
           </InterpolatingParam>
          </VectorParam>
          <VectorParam id="10488"  name="scale">
           <InterpolatingParam id="10489" interp="linr"  >
            <Keyframes>
            <Keyframe id="10490"  time="-9999999/1" value="0.703125" leadInLength="0/1"  />
            <Keyframe id="10491"  time="166/1" value="0.703125" leadInLength="139/1"  interpolater="leadin-linr"  />
            <Keyframe id="10492"  time="602/1" value="0.81171996879883901" leadInLength="175/1"  interpolater="leadin-linr"  />
            <Keyframe id="10493"  time="934/1" value="0.70312499999995892" leadInLength="210/1"  interpolater="leadin-linr"  />
            </Keyframes>
           </InterpolatingParam>
           <InterpolatingParam id="10494" interp="linr"  >
            <Keyframes>
            <Keyframe id="10495"  time="-9999999/1" value="0.703125" leadInLength="0/1"  />
            <Keyframe id="10496"  time="166/1" value="0.703125" leadInLength="139/1"  interpolater="leadin-linr"  />
            <Keyframe id="10497"  time="602/1" value="0.81171996879883901" leadInLength="175/1"  interpolater="leadin-linr"  />
            <Keyframe id="10498"  time="934/1" value="0.70312499999995892" leadInLength="210/1"  interpolater="leadin-linr"  />
            </Keyframes>
           </InterpolatingParam>
           <InterpolatingParam id="10499" interp="linr"  >
            <Keyframes>
            <Keyframe id="10500"  time="-9999999/1" value="1" leadInLength="0/1"  />
            <Keyframe id="10501"  time="166/1" value="1" leadInLength="139/1"  interpolater="leadin-linr"  />
            <Keyframe id="10502"  time="602/1" value="1" leadInLength="175/1"  interpolater="leadin-linr"  />
            <Keyframe id="10503"  time="934/1" value="1" leadInLength="210/1"  interpolater="leadin-linr"  />
            </Keyframes>
           </InterpolatingParam>
          </VectorParam>
          <VectorParam id="10504"  name="anchor">
           <InterpolatingParam id="10505" interp="linr"  time="0/1" value="0" leadInLength="0/1"  />
           <InterpolatingParam id="10506" interp="linr"  time="0/1" value="0" leadInLength="0/1"  />
           <InterpolatingParam id="10507" interp="linr"  time="0/1" value="0" leadInLength="0/1"  />
          </VectorParam>
         </Transformer>
         <Parameters>
          <VectorParam id="10508"  name="sourceCrop">
           <InterpolatingParam id="10509" interp="linr"  time="0/1" value="0" leadInLength="0/1"  />
           <InterpolatingParam id="10510" interp="linr"  time="0/1" value="0" leadInLength="0/1"  />
           <InterpolatingParam id="10511" interp="linr"  time="0/1" value="0" leadInLength="0/1"  />
           <InterpolatingParam id="10512" interp="linr"  time="0/1" value="0" leadInLength="0/1"  />
          </VectorParam>
          <VectorParam id="10513"  name="geometryCrop">
           <InterpolatingParam id="10514" interp="linr"  >
            <Keyframes>
            <Keyframe id="10515"  time="-9999999/1" value="0" leadInLength="0/1"  />
            <Keyframe id="10516"  time="166/1" value="0" leadInLength="139/1"  interpolater="leadin-linr"  />
            <Keyframe id="10517"  time="602/1" value="0" leadInLength="175/1"  interpolater="leadin-linr"  />
            <Keyframe id="10518"  time="934/1" value="0" leadInLength="210/1"  interpolater="leadin-linr"  />
            </Keyframes>
           </InterpolatingParam>
           <InterpolatingParam id="10519" interp="linr"  >
            <Keyframes>
            <Keyframe id="10520"  time="-9999999/1" value="0" leadInLength="0/1"  />
            <Keyframe id="10521"  time="166/1" value="0" leadInLength="139/1"  interpolater="leadin-linr"  />
            <Keyframe id="10522"  time="602/1" value="0" leadInLength="175/1"  interpolater="leadin-linr"  />
            <Keyframe id="10523"  time="934/1" value="0" leadInLength="210/1"  interpolater="leadin-linr"  />
            </Keyframes>
           </InterpolatingParam>
           <InterpolatingParam id="10524" interp="linr"  >
            <Keyframes>
            <Keyframe id="10525"  time="-9999999/1" value="0" leadInLength="0/1"  />
            <Keyframe id="10526"  time="166/1" value="0" leadInLength="139/1"  interpolater="leadin-linr"  />
            <Keyframe id="10527"  time="602/1" value="0" leadInLength="175/1"  interpolater="leadin-linr"  />
            <Keyframe id="10528"  time="934/1" value="0" leadInLength="210/1"  interpolater="leadin-linr"  />
            </Keyframes>
           </InterpolatingParam>
           <InterpolatingParam id="10529" interp="linr"  >
            <Keyframes>
            <Keyframe id="10530"  time="-9999999/1" value="0" leadInLength="0/1"  />
            <Keyframe id="10531"  time="166/1" value="0" leadInLength="139/1"  interpolater="leadin-linr"  />
            <Keyframe id="10532"  time="602/1" value="0" leadInLength="175/1"  interpolater="leadin-linr"  />
            <Keyframe id="10533"  time="934/1" value="0" leadInLength="210/1"  interpolater="leadin-linr"  />
            </Keyframes>
           </InterpolatingParam>
          </VectorParam>
          <InterpolatingParam id="10534" interp="linr"  name="opacity">
           <Keyframes>
           <Keyframe id="10535"  time="-9999999/1" value="1" leadInLength="0/1"  />
           <Keyframe id="10536"  time="166/1" value="1" leadInLength="139/1"  interpolater="leadin-linr"  />
           <Keyframe id="10537"  time="602/1" value="1" leadInLength="175/1"  interpolater="leadin-linr"  />
           <Keyframe id="10538"  time="934/1" value="1" leadInLength="210/1"  interpolater="leadin-linr"  />
           </Keyframes>
          </InterpolatingParam>
         </Parameters>
         <Attributes>
          <Attribute id="10539" value="" name="ident"/>
         </Attributes>
         <MetaData>
          <entry key="WinSubProjectDisplayName" val=""/>
         </MetaData>
         <ExtraData>
          <Entry key="ZoomPanBin">
           <ZoomPanBin id="10540"  >
            <ZoomPanKeyframes>
             <ZoomPanKeyframe id="10541" timeRangeEnd="-9999999/1" timeRangeDuration="0/1" interpolaterName="linr"  />
             <ZoomPanKeyframe id="10542" timeRangeEnd="166/1" timeRangeDuration="139/1" interpolaterName="linr"  />
             <ZoomPanKeyframe id="10543" timeRangeEnd="602/1" timeRangeDuration="175/1" interpolaterName="linr"  />
             <ZoomPanKeyframe id="10544" timeRangeEnd="934/1" timeRangeDuration="210/1" interpolaterName="linr"  />
            </ZoomPanKeyframes>
           </ZoomPanBin>
          </Entry>
         </ExtraData>
        </IMFile>
        <UnifiedMedia id="10545"  >
         <AudioTransition id="10546" start="3184" duration="13" >
          <Parameters>
           <InterpolatingParam id="10547" interp="linr"  time="0/1" value="1" leadInLength="0/1"  name="volume"/>
           <Parameter id="10548"  name="captions"/>
          </Parameters>
          <Effects>
           <GenericEffect id="10549" name = "AudioTransition" >
            <Parameters>
            <Parameter id="10550"   name="audioEdgeModType">
             <Keyframes>
             <Keyframe id="10551"  time="0/1" value="0" leadInLength="0/1"  />
             </Keyframes>
            </Parameter>
            <Parameter id="10552"   name="audioTransitionType">
             <Keyframes>
             <Keyframe id="10553"  time="0/1" value="" leadInLength="0/1"  />
             </Keyframes>
            </Parameter>
            </Parameters>
            <MetaData>
            </MetaData>
           </GenericEffect>
          </Effects>
          <Attributes>
           <Attribute id="10554" value="" name="ident"/>
           <Attribute id="10555" value="0" name="sampleRate"/>
           <Attribute id="10556" value="0" name="bitDepth"/>
           <Attribute id="10557" value="1" name="gain"/>
           <Attribute id="10558" value="0" name="mixToMono"/>
          </Attributes>
         </AudioTransition>
         <ImageTransition id="10559" start="3184" duration="13" >
          <Transformer>
           <VectorParam id="10560"  name="translation">
            <InterpolatingParam id="10561" interp="linr"  time="0/1" value="0" leadInLength="0/1"  />
            <InterpolatingParam id="10562" interp="linr"  time="0/1" value="0" leadInLength="0/1"  />
            <InterpolatingParam id="10563" interp="linr"  time="0/1" value="0" leadInLength="0/1"  />
           </VectorParam>
           <VectorParam id="10564"  name="rotation">
            <InterpolatingParam id="10565" interp="linr"  time="0/1" value="0" leadInLength="0/1"  />
            <InterpolatingParam id="10566" interp="linr"  time="0/1" value="0" leadInLength="0/1"  />
            <InterpolatingParam id="10567" interp="linr"  time="0/1" value="0" leadInLength="0/1"  />
           </VectorParam>
           <VectorParam id="10568"  name="shear">
            <InterpolatingParam id="10569" interp="linr"  time="0/1" value="0" leadInLength="0/1"  />
            <InterpolatingParam id="10570" interp="linr"  time="0/1" value="0" leadInLength="0/1"  />
            <InterpolatingParam id="10571" interp="linr"  time="0/1" value="0" leadInLength="0/1"  />
           </VectorParam>
           <VectorParam id="10572"  name="scale">
            <InterpolatingParam id="10573" interp="linr"  time="0/1" value="1" leadInLength="0/1"  />
            <InterpolatingParam id="10574" interp="linr"  time="0/1" value="1" leadInLength="0/1"  />
            <InterpolatingParam id="10575" interp="linr"  time="0/1" value="1" leadInLength="0/1"  />
           </VectorParam>
           <VectorParam id="10576"  name="anchor">
            <InterpolatingParam id="10577" interp="linr"  time="0/1" value="0" leadInLength="0/1"  />
            <InterpolatingParam id="10578" interp="linr"  time="0/1" value="0" leadInLength="0/1"  />
            <InterpolatingParam id="10579" interp="linr"  time="0/1" value="0" leadInLength="0/1"  />
           </VectorParam>
          </Transformer>
          <Parameters>
           <VectorParam id="10580"  name="sourceCrop">
            <InterpolatingParam id="10581" interp="linr"  time="0/1" value="0" leadInLength="0/1"  />
            <InterpolatingParam id="10582" interp="linr"  time="0/1" value="0" leadInLength="0/1"  />
            <InterpolatingParam id="10583" interp="linr"  time="0/1" value="0" leadInLength="0/1"  />
            <InterpolatingParam id="10584" interp="linr"  time="0/1" value="0" leadInLength="0/1"  />
           </VectorParam>
           <VectorParam id="10585"  name="geometryCrop">
            <InterpolatingParam id="10586" interp="linr"  time="0/1" value="0" leadInLength="0/1"  />
            <InterpolatingParam id="10587" interp="linr"  time="0/1" value="0" leadInLength="0/1"  />
            <InterpolatingParam id="10588" interp="linr"  time="0/1" value="0" leadInLength="0/1"  />
            <InterpolatingParam id="10589" interp="linr"  time="0/1" value="0" leadInLength="0/1"  />
           </VectorParam>
           <InterpolatingParam id="10590" interp="linr"  time="0/1" value="1" leadInLength="0/1"  name="opacity"/>
          </Parameters>
          <Effects>
           <GenericEffect id="10591" name = "VisualTransition" >
            <Parameters>
            <InterpolatingParam id="10592" interp="linr"  time="0/1" value="0.5" leadInLength="0/1"   name="leftFramePercentage"/>
            <InterpolatingParam id="10593" interp="linr"  time="0/1" value="0.5" leadInLength="0/1"   name="rightFramePercentage"/>
            <Parameter id="10594"   name="visualEdgeModType">
             <Keyframes>
             <Keyframe id="10595"  time="0/1" value="1" leadInLength="0/1"  />
             </Keyframes>
            </Parameter>
            <Parameter id="10596"   name="visualTransitionType">
             <Keyframes>
             <Keyframe id="10597"  time="0/1" value="RandomBars" leadInLength="0/1"  />
             </Keyframes>
            </Parameter>
            </Parameters>
            <MetaData>
            </MetaData>
           </GenericEffect>
          </Effects>
          <Attributes>
           <Attribute id="10598" value="" name="ident"/>
          </Attributes>
          <ExtraData>
           <Entry key="ZoomPanBin">
            <ZoomPanBin id="10599"  >
             <ZoomPanKeyframes>
             </ZoomPanKeyframes>
            </ZoomPanBin>
           </Entry>
          </ExtraData>
         </ImageTransition>
         <MetaData>
          <entry key="WinSubProjectDisplayName" val=""/>
         </MetaData>
        </UnifiedMedia>
        <IMFile id="10600" start="3197" duration="173" scalar="1/1" mediaStart="0/1" mediaDuration="1/1" trackNumber="0" src="5" trimStartSum="17/1" >
         <Transformer>
          <VectorParam id="10601"  name="translation">
           <InterpolatingParam id="10602" interp="linr"  time="-9999999/1" value="395.03816793897352" leadInLength="0/1"  />
           <InterpolatingParam id="10603" interp="linr"  time="-9999999/1" value="19.923664122269969" leadInLength="0/1"  />
           <InterpolatingParam id="10604" interp="linr"  time="-9999999/1" value="0" leadInLength="0/1"  />
          </VectorParam>
          <VectorParam id="10605"  name="rotation">
           <InterpolatingParam id="10606" interp="linr"  time="-9999999/1" value="0" leadInLength="0/1"  />
           <InterpolatingParam id="10607" interp="linr"  time="-9999999/1" value="0" leadInLength="0/1"  />
           <InterpolatingParam id="10608" interp="linr"  time="-9999999/1" value="0" leadInLength="0/1"  />
          </VectorParam>
          <VectorParam id="10609"  name="shear">
           <InterpolatingParam id="10610" interp="linr"  time="-9999999/1" value="0" leadInLength="0/1"  />
           <InterpolatingParam id="10611" interp="linr"  time="-9999999/1" value="0" leadInLength="0/1"  />
           <InterpolatingParam id="10612" interp="linr"  time="-9999999/1" value="0" leadInLength="0/1"  />
          </VectorParam>
          <VectorParam id="10613"  name="scale">
           <InterpolatingParam id="10614" interp="linr"  time="-9999999/1" value="0.77155892175575236" leadInLength="0/1"  />
           <InterpolatingParam id="10615" interp="linr"  time="-9999999/1" value="0.77155892175575236" leadInLength="0/1"  />
           <InterpolatingParam id="10616" interp="linr"  time="-9999999/1" value="1" leadInLength="0/1"  />
          </VectorParam>
          <VectorParam id="10617"  name="anchor">
           <InterpolatingParam id="10618" interp="linr"  time="0/1" value="0" leadInLength="0/1"  />
           <InterpolatingParam id="10619" interp="linr"  time="0/1" value="0" leadInLength="0/1"  />
           <InterpolatingParam id="10620" interp="linr"  time="0/1" value="0" leadInLength="0/1"  />
          </VectorParam>
         </Transformer>
         <Parameters>
          <VectorParam id="10621"  name="sourceCrop">
           <InterpolatingParam id="10622" interp="linr"  time="0/1" value="0" leadInLength="0/1"  />
           <InterpolatingParam id="10623" interp="linr"  time="0/1" value="0" leadInLength="0/1"  />
           <InterpolatingParam id="10624" interp="linr"  time="0/1" value="0" leadInLength="0/1"  />
           <InterpolatingParam id="10625" interp="linr"  time="0/1" value="0" leadInLength="0/1"  />
          </VectorParam>
          <VectorParam id="10626"  name="geometryCrop">
           <InterpolatingParam id="10627" interp="linr"  time="-9999999/1" value="0" leadInLength="0/1"  />
           <InterpolatingParam id="10628" interp="linr"  time="-9999999/1" value="71.234782608763908" leadInLength="0/1"  />
           <InterpolatingParam id="10629" interp="linr"  time="-9999999/1" value="90.824347826046846" leadInLength="0/1"  />
           <InterpolatingParam id="10630" interp="linr"  time="-9999999/1" value="19.58956521712247" leadInLength="0/1"  />
          </VectorParam>
          <InterpolatingParam id="10631" interp="linr"  time="-9999999/1" value="1" leadInLength="0/1"  name="opacity"/>
         </Parameters>
         <Attributes>
          <Attribute id="10632" value="" name="ident"/>
         </Attributes>
         <MetaData>
          <entry key="WinSubProjectDisplayName" val=""/>
         </MetaData>
         <ExtraData>
          <Entry key="ZoomPanBin">
           <ZoomPanBin id="10633"  >
            <ZoomPanKeyframes>
             <ZoomPanKeyframe id="10634" timeRangeEnd="-9999999/1" timeRangeDuration="0/1" interpolaterName="linr"  />
            </ZoomPanKeyframes>
           </ZoomPanBin>
          </Entry>
         </ExtraData>
        </IMFile>
        <UnifiedMedia id="10635"  >
         <AudioTransition id="10636" start="3370" duration="15" >
          <Parameters>
           <InterpolatingParam id="10637" interp="linr"  time="0/1" value="1" leadInLength="0/1"  name="volume"/>
           <Parameter id="10638"  name="captions"/>
          </Parameters>
          <Effects>
           <GenericEffect id="10639" name = "AudioTransition" >
            <Parameters>
            <Parameter id="10640"   name="audioEdgeModType">
             <Keyframes>
             <Keyframe id="10641"  time="0/1" value="0" leadInLength="0/1"  />
             </Keyframes>
            </Parameter>
            <Parameter id="10642"   name="audioTransitionType">
             <Keyframes>
             <Keyframe id="10643"  time="0/1" value="" leadInLength="0/1"  />
             </Keyframes>
            </Parameter>
            </Parameters>
            <MetaData>
            </MetaData>
           </GenericEffect>
          </Effects>
          <Attributes>
           <Attribute id="10644" value="" name="ident"/>
           <Attribute id="10645" value="0" name="sampleRate"/>
           <Attribute id="10646" value="0" name="bitDepth"/>
           <Attribute id="10647" value="1" name="gain"/>
           <Attribute id="10648" value="0" name="mixToMono"/>
          </Attributes>
         </AudioTransition>
         <ImageTransition id="10649" start="3370" duration="15" >
          <Transformer>
           <VectorParam id="10650"  name="translation">
            <InterpolatingParam id="10651" interp="linr"  time="0/1" value="0" leadInLength="0/1"  />
            <InterpolatingParam id="10652" interp="linr"  time="0/1" value="0" leadInLength="0/1"  />
            <InterpolatingParam id="10653" interp="linr"  time="0/1" value="0" leadInLength="0/1"  />
           </VectorParam>
           <VectorParam id="10654"  name="rotation">
            <InterpolatingParam id="10655" interp="linr"  time="0/1" value="0" leadInLength="0/1"  />
            <InterpolatingParam id="10656" interp="linr"  time="0/1" value="0" leadInLength="0/1"  />
            <InterpolatingParam id="10657" interp="linr"  time="0/1" value="0" leadInLength="0/1"  />
           </VectorParam>
           <VectorParam id="10658"  name="shear">
            <InterpolatingParam id="10659" interp="linr"  time="0/1" value="0" leadInLength="0/1"  />
            <InterpolatingParam id="10660" interp="linr"  time="0/1" value="0" leadInLength="0/1"  />
            <InterpolatingParam id="10661" interp="linr"  time="0/1" value="0" leadInLength="0/1"  />
           </VectorParam>
           <VectorParam id="10662"  name="scale">
            <InterpolatingParam id="10663" interp="linr"  time="0/1" value="1" leadInLength="0/1"  />
            <InterpolatingParam id="10664" interp="linr"  time="0/1" value="1" leadInLength="0/1"  />
            <InterpolatingParam id="10665" interp="linr"  time="0/1" value="1" leadInLength="0/1"  />
           </VectorParam>
           <VectorParam id="10666"  name="anchor">
            <InterpolatingParam id="10667" interp="linr"  time="0/1" value="0" leadInLength="0/1"  />
            <InterpolatingParam id="10668" interp="linr"  time="0/1" value="0" leadInLength="0/1"  />
            <InterpolatingParam id="10669" interp="linr"  time="0/1" value="0" leadInLength="0/1"  />
           </VectorParam>
          </Transformer>
          <Parameters>
           <VectorParam id="10670"  name="sourceCrop">
            <InterpolatingParam id="10671" interp="linr"  time="0/1" value="0" leadInLength="0/1"  />
            <InterpolatingParam id="10672" interp="linr"  time="0/1" value="0" leadInLength="0/1"  />
            <InterpolatingParam id="10673" interp="linr"  time="0/1" value="0" leadInLength="0/1"  />
            <InterpolatingParam id="10674" interp="linr"  time="0/1" value="0" leadInLength="0/1"  />
           </VectorParam>
           <VectorParam id="10675"  name="geometryCrop">
            <InterpolatingParam id="10676" interp="linr"  time="0/1" value="0" leadInLength="0/1"  />
            <InterpolatingParam id="10677" interp="linr"  time="0/1" value="0" leadInLength="0/1"  />
            <InterpolatingParam id="10678" interp="linr"  time="0/1" value="0" leadInLength="0/1"  />
            <InterpolatingParam id="10679" interp="linr"  time="0/1" value="0" leadInLength="0/1"  />
           </VectorParam>
           <InterpolatingParam id="10680" interp="linr"  time="0/1" value="1" leadInLength="0/1"  name="opacity"/>
          </Parameters>
          <Effects>
           <GenericEffect id="10681" name = "VisualTransition" >
            <Parameters>
            <InterpolatingParam id="10682" interp="linr"  time="0/1" value="0.5" leadInLength="0/1"   name="leftFramePercentage"/>
            <InterpolatingParam id="10683" interp="linr"  time="0/1" value="0.5" leadInLength="0/1"   name="rightFramePercentage"/>
            <Parameter id="10684"   name="visualEdgeModType">
             <Keyframes>
             <Keyframe id="10685"  time="0/1" value="2" leadInLength="0/1"  />
             </Keyframes>
            </Parameter>
            <Parameter id="10686"   name="visualTransitionType">
             <Keyframes>
             <Keyframe id="10687"  time="0/1" value="CheckerBoard" leadInLength="0/1"  />
             </Keyframes>
            </Parameter>
            </Parameters>
            <MetaData>
            </MetaData>
           </GenericEffect>
          </Effects>
          <Attributes>
           <Attribute id="10688" value="" name="ident"/>
          </Attributes>
          <ExtraData>
           <Entry key="ZoomPanBin">
            <ZoomPanBin id="10689"  >
             <ZoomPanKeyframes>
             </ZoomPanKeyframes>
            </ZoomPanBin>
           </Entry>
          </ExtraData>
         </ImageTransition>
         <MetaData>
          <entry key="WinSubProjectDisplayName" val=""/>
         </MetaData>
        </UnifiedMedia>
        <IMFile id="10690" start="4008" duration="261" scalar="1/1" mediaStart="0/1" mediaDuration="1/1" trackNumber="0" src="12" trimStartSum="453/1" >
         <Transformer>
          <VectorParam id="10691"  name="translation">
           <InterpolatingParam id="10692" interp="linr"  >
            <Keyframes>
            <Keyframe id="10693"  time="-9999999/1" value="335.00000000005662" leadInLength="0/1"  />
            <Keyframe id="10694"  time="189/1" value="675.84920634837158" leadInLength="98/1"  interpolater="leadin-linr"  />
            <Keyframe id="10695"  time="522/1" value="359.99999999991564" leadInLength="47/1"  interpolater="leadin-linr"  />
            </Keyframes>
           </InterpolatingParam>
           <InterpolatingParam id="10696" interp="linr"  >
            <Keyframes>
            <Keyframe id="10697"  time="-9999999/1" value="-25.000000000008104" leadInLength="0/1"  />
            <Keyframe id="10698"  time="189/1" value="51.999999999783839" leadInLength="98/1"  interpolater="leadin-linr"  />
            <Keyframe id="10699"  time="522/1" value="8.1325168821422267e-011" leadInLength="47/1"  interpolater="leadin-linr"  />
            </Keyframes>
           </InterpolatingParam>
           <InterpolatingParam id="10700" interp="linr"  >
            <Keyframes>
            <Keyframe id="10701"  time="-9999999/1" value="0" leadInLength="0/1"  />
            <Keyframe id="10702"  time="189/1" value="-3.4106051316482886e-010" leadInLength="98/1"  interpolater="leadin-linr"  />
            <Keyframe id="10703"  time="522/1" value="0" leadInLength="47/1"  interpolater="leadin-linr"  />
            </Keyframes>
           </InterpolatingParam>
          </VectorParam>
          <VectorParam id="10704"  name="rotation">
           <InterpolatingParam id="10705" interp="linr"  >
            <Keyframes>
            <Keyframe id="10706"  time="-9999999/1" value="0" leadInLength="0/1"  />
            <Keyframe id="10707"  time="189/1" value="0" leadInLength="98/1"  interpolater="leadin-linr"  />
            <Keyframe id="10708"  time="522/1" value="0" leadInLength="47/1"  interpolater="leadin-linr"  />
            </Keyframes>
           </InterpolatingParam>
           <InterpolatingParam id="10709" interp="linr"  >
            <Keyframes>
            <Keyframe id="10710"  time="-9999999/1" value="0" leadInLength="0/1"  />
            <Keyframe id="10711"  time="189/1" value="0" leadInLength="98/1"  interpolater="leadin-linr"  />
            <Keyframe id="10712"  time="522/1" value="0" leadInLength="47/1"  interpolater="leadin-linr"  />
            </Keyframes>
           </InterpolatingParam>
           <InterpolatingParam id="10713" interp="linr"  >
            <Keyframes>
            <Keyframe id="10714"  time="-9999999/1" value="0" leadInLength="0/1"  />
            <Keyframe id="10715"  time="189/1" value="0" leadInLength="98/1"  interpolater="leadin-linr"  />
            <Keyframe id="10716"  time="522/1" value="0" leadInLength="47/1"  interpolater="leadin-linr"  />
            </Keyframes>
           </InterpolatingParam>
          </VectorParam>
          <VectorParam id="10717"  name="shear">
           <InterpolatingParam id="10718" interp="linr"  >
            <Keyframes>
            <Keyframe id="10719"  time="-9999999/1" value="0" leadInLength="0/1"  />
            <Keyframe id="10720"  time="189/1" value="0" leadInLength="98/1"  interpolater="leadin-linr"  />
            <Keyframe id="10721"  time="522/1" value="0" leadInLength="47/1"  interpolater="leadin-linr"  />
            </Keyframes>
           </InterpolatingParam>
           <InterpolatingParam id="10722" interp="linr"  >
            <Keyframes>
            <Keyframe id="10723"  time="-9999999/1" value="0" leadInLength="0/1"  />
            <Keyframe id="10724"  time="189/1" value="0" leadInLength="98/1"  interpolater="leadin-linr"  />
            <Keyframe id="10725"  time="522/1" value="0" leadInLength="47/1"  interpolater="leadin-linr"  />
            </Keyframes>
           </InterpolatingParam>
           <InterpolatingParam id="10726" interp="linr"  >
            <Keyframes>
            <Keyframe id="10727"  time="-9999999/1" value="0" leadInLength="0/1"  />
            <Keyframe id="10728"  time="189/1" value="0" leadInLength="98/1"  interpolater="leadin-linr"  />
            <Keyframe id="10729"  time="522/1" value="0" leadInLength="47/1"  interpolater="leadin-linr"  />
            </Keyframes>
           </InterpolatingParam>
          </VectorParam>
          <VectorParam id="10730"  name="scale">
           <InterpolatingParam id="10731" interp="linr"  >
            <Keyframes>
            <Keyframe id="10732"  time="-9999999/1" value="0.65429687500015188" leadInLength="0/1"  />
            <Keyframe id="10733"  time="189/1" value="0.80468750000009148" leadInLength="98/1"  interpolater="leadin-linr"  />
            <Keyframe id="10734"  time="522/1" value="0.70312500000006561" leadInLength="47/1"  interpolater="leadin-linr"  />
            </Keyframes>
           </InterpolatingParam>
           <InterpolatingParam id="10735" interp="linr"  >
            <Keyframes>
            <Keyframe id="10736"  time="-9999999/1" value="0.65429687500015188" leadInLength="0/1"  />
            <Keyframe id="10737"  time="189/1" value="0.80468750000009148" leadInLength="98/1"  interpolater="leadin-linr"  />
            <Keyframe id="10738"  time="522/1" value="0.70312500000006561" leadInLength="47/1"  interpolater="leadin-linr"  />
            </Keyframes>
           </InterpolatingParam>
           <InterpolatingParam id="10739" interp="linr"  >
            <Keyframes>
            <Keyframe id="10740"  time="-9999999/1" value="1" leadInLength="0/1"  />
            <Keyframe id="10741"  time="189/1" value="1" leadInLength="98/1"  interpolater="leadin-linr"  />
            <Keyframe id="10742"  time="522/1" value="1" leadInLength="47/1"  interpolater="leadin-linr"  />
            </Keyframes>
           </InterpolatingParam>
          </VectorParam>
          <VectorParam id="10743"  name="anchor">
           <InterpolatingParam id="10744" interp="linr"  time="0/1" value="0" leadInLength="0/1"  />
           <InterpolatingParam id="10745" interp="linr"  time="0/1" value="0" leadInLength="0/1"  />
           <InterpolatingParam id="10746" interp="linr"  time="0/1" value="0" leadInLength="0/1"  />
          </VectorParam>
         </Transformer>
         <Parameters>
          <VectorParam id="10747"  name="sourceCrop">
           <InterpolatingParam id="10748" interp="linr"  time="0/1" value="0" leadInLength="0/1"  />
           <InterpolatingParam id="10749" interp="linr"  time="0/1" value="0" leadInLength="0/1"  />
           <InterpolatingParam id="10750" interp="linr"  time="0/1" value="0" leadInLength="0/1"  />
           <InterpolatingParam id="10751" interp="linr"  time="0/1" value="0" leadInLength="0/1"  />
          </VectorParam>
          <VectorParam id="10752"  name="geometryCrop">
           <InterpolatingParam id="10753" interp="linr"  >
            <Keyframes>
            <Keyframe id="10754"  time="-9999999/1" value="0" leadInLength="0/1"  />
            <Keyframe id="10755"  time="189/1" value="0" leadInLength="98/1"  interpolater="leadin-linr"  />
            <Keyframe id="10756"  time="522/1" value="0" leadInLength="47/1"  interpolater="leadin-linr"  />
            </Keyframes>
           </InterpolatingParam>
           <InterpolatingParam id="10757" interp="linr"  >
            <Keyframes>
            <Keyframe id="10758"  time="-9999999/1" value="0" leadInLength="0/1"  />
            <Keyframe id="10759"  time="189/1" value="0" leadInLength="98/1"  interpolater="leadin-linr"  />
            <Keyframe id="10760"  time="522/1" value="0" leadInLength="47/1"  interpolater="leadin-linr"  />
            </Keyframes>
           </InterpolatingParam>
           <InterpolatingParam id="10761" interp="linr"  >
            <Keyframes>
            <Keyframe id="10762"  time="-9999999/1" value="0" leadInLength="0/1"  />
            <Keyframe id="10763"  time="189/1" value="0" leadInLength="98/1"  interpolater="leadin-linr"  />
            <Keyframe id="10764"  time="522/1" value="0" leadInLength="47/1"  interpolater="leadin-linr"  />
            </Keyframes>
           </InterpolatingParam>
           <InterpolatingParam id="10765" interp="linr"  >
            <Keyframes>
            <Keyframe id="10766"  time="-9999999/1" value="0" leadInLength="0/1"  />
            <Keyframe id="10767"  time="189/1" value="0" leadInLength="98/1"  interpolater="leadin-linr"  />
            <Keyframe id="10768"  time="522/1" value="0" leadInLength="47/1"  interpolater="leadin-linr"  />
            </Keyframes>
           </InterpolatingParam>
          </VectorParam>
          <InterpolatingParam id="10769" interp="linr"  name="opacity">
           <Keyframes>
           <Keyframe id="10770"  time="-9999999/1" value="1" leadInLength="0/1"  />
           <Keyframe id="10771"  time="189/1" value="1" leadInLength="98/1"  interpolater="leadin-linr"  />
           <Keyframe id="10772"  time="522/1" value="1" leadInLength="47/1"  interpolater="leadin-linr"  />
           </Keyframes>
          </InterpolatingParam>
         </Parameters>
         <Attributes>
          <Attribute id="10773" value="" name="ident"/>
         </Attributes>
         <MetaData>
          <entry key="WinSubProjectDisplayName" val=""/>
         </MetaData>
         <ExtraData>
          <Entry key="ZoomPanBin">
           <ZoomPanBin id="10774"  >
            <ZoomPanKeyframes>
             <ZoomPanKeyframe id="10775" timeRangeEnd="-9999999/1" timeRangeDuration="0/1" interpolaterName="linr"  />
             <ZoomPanKeyframe id="10776" timeRangeEnd="189/1" timeRangeDuration="98/1" interpolaterName="linr"  />
             <ZoomPanKeyframe id="10777" timeRangeEnd="522/1" timeRangeDuration="47/1" interpolaterName="linr"  />
            </ZoomPanKeyframes>
           </ZoomPanBin>
          </Entry>
         </ExtraData>
        </IMFile>
        <UnifiedMedia id="10778"  >
         <AudioTransition id="10779" start="4269" duration="51" >
          <Parameters>
           <InterpolatingParam id="10780" interp="linr"  time="0/1" value="1" leadInLength="0/1"  name="volume"/>
           <Parameter id="10781"  name="captions"/>
          </Parameters>
          <Effects>
           <GenericEffect id="10782" name = "AudioTransition" >
            <Parameters>
            <Parameter id="10783"   name="audioEdgeModType">
             <Keyframes>
             <Keyframe id="10784"  time="0/1" value="0" leadInLength="0/1"  />
             </Keyframes>
            </Parameter>
            <Parameter id="10785"   name="audioTransitionType">
             <Keyframes>
             <Keyframe id="10786"  time="0/1" value="" leadInLength="0/1"  />
             </Keyframes>
            </Parameter>
            </Parameters>
            <MetaData>
            </MetaData>
           </GenericEffect>
          </Effects>
          <Attributes>
           <Attribute id="10787" value="" name="ident"/>
           <Attribute id="10788" value="0" name="sampleRate"/>
           <Attribute id="10789" value="0" name="bitDepth"/>
           <Attribute id="10790" value="1" name="gain"/>
           <Attribute id="10791" value="0" name="mixToMono"/>
          </Attributes>
         </AudioTransition>
         <ImageTransition id="10792" start="4269" duration="51" >
          <Transformer>
           <VectorParam id="10793"  name="translation">
            <InterpolatingParam id="10794" interp="linr"  time="0/1" value="0" leadInLength="0/1"  />
            <InterpolatingParam id="10795" interp="linr"  time="0/1" value="0" leadInLength="0/1"  />
            <InterpolatingParam id="10796" interp="linr"  time="0/1" value="0" leadInLength="0/1"  />
           </VectorParam>
           <VectorParam id="10797"  name="rotation">
            <InterpolatingParam id="10798" interp="linr"  time="0/1" value="0" leadInLength="0/1"  />
            <InterpolatingParam id="10799" interp="linr"  time="0/1" value="0" leadInLength="0/1"  />
            <InterpolatingParam id="10800" interp="linr"  time="0/1" value="0" leadInLength="0/1"  />
           </VectorParam>
           <VectorParam id="10801"  name="shear">
            <InterpolatingParam id="10802" interp="linr"  time="0/1" value="0" leadInLength="0/1"  />
            <InterpolatingParam id="10803" interp="linr"  time="0/1" value="0" leadInLength="0/1"  />
            <InterpolatingParam id="10804" interp="linr"  time="0/1" value="0" leadInLength="0/1"  />
           </VectorParam>
           <VectorParam id="10805"  name="scale">
            <InterpolatingParam id="10806" interp="linr"  time="0/1" value="1" leadInLength="0/1"  />
            <InterpolatingParam id="10807" interp="linr"  time="0/1" value="1" leadInLength="0/1"  />
            <InterpolatingParam id="10808" interp="linr"  time="0/1" value="1" leadInLength="0/1"  />
           </VectorParam>
           <VectorParam id="10809"  name="anchor">
            <InterpolatingParam id="10810" interp="linr"  time="0/1" value="0" leadInLength="0/1"  />
            <InterpolatingParam id="10811" interp="linr"  time="0/1" value="0" leadInLength="0/1"  />
            <InterpolatingParam id="10812" interp="linr"  time="0/1" value="0" leadInLength="0/1"  />
           </VectorParam>
          </Transformer>
          <Parameters>
           <VectorParam id="10813"  name="sourceCrop">
            <InterpolatingParam id="10814" interp="linr"  time="0/1" value="0" leadInLength="0/1"  />
            <InterpolatingParam id="10815" interp="linr"  time="0/1" value="0" leadInLength="0/1"  />
            <InterpolatingParam id="10816" interp="linr"  time="0/1" value="0" leadInLength="0/1"  />
            <InterpolatingParam id="10817" interp="linr"  time="0/1" value="0" leadInLength="0/1"  />
           </VectorParam>
           <VectorParam id="10818"  name="geometryCrop">
            <InterpolatingParam id="10819" interp="linr"  time="0/1" value="0" leadInLength="0/1"  />
            <InterpolatingParam id="10820" interp="linr"  time="0/1" value="0" leadInLength="0/1"  />
            <InterpolatingParam id="10821" interp="linr"  time="0/1" value="0" leadInLength="0/1"  />
            <InterpolatingParam id="10822" interp="linr"  time="0/1" value="0" leadInLength="0/1"  />
           </VectorParam>
           <InterpolatingParam id="10823" interp="linr"  time="0/1" value="1" leadInLength="0/1"  name="opacity"/>
          </Parameters>
          <Effects>
           <GenericEffect id="10824" name = "VisualTransition" >
            <Parameters>
            <InterpolatingParam id="10825" interp="linr"  time="0/1" value="0.5" leadInLength="0/1"   name="leftFramePercentage"/>
            <InterpolatingParam id="10826" interp="linr"  time="0/1" value="0.5" leadInLength="0/1"   name="rightFramePercentage"/>
            <Parameter id="10827"   name="visualEdgeModType">
             <Keyframes>
             <Keyframe id="10828"  time="0/1" value="2" leadInLength="0/1"  />
             </Keyframes>
            </Parameter>
            <Parameter id="10829"   name="visualTransitionType">
             <Keyframes>
             <Keyframe id="10830"  time="0/1" value="RadialBlur" leadInLength="0/1"  />
             </Keyframes>
            </Parameter>
            </Parameters>
            <MetaData>
            </MetaData>
           </GenericEffect>
          </Effects>
          <Attributes>
           <Attribute id="10831" value="" name="ident"/>
          </Attributes>
          <ExtraData>
           <Entry key="ZoomPanBin">
            <ZoomPanBin id="10832"  >
             <ZoomPanKeyframes>
             </ZoomPanKeyframes>
            </ZoomPanBin>
           </Entry>
          </ExtraData>
         </ImageTransition>
         <MetaData>
          <entry key="WinSubProjectDisplayName" val=""/>
         </MetaData>
        </UnifiedMedia>
        <IMFile id="10833" start="4464" duration="164" scalar="1/1" mediaStart="0/1" mediaDuration="1/1" trackNumber="0" src="14" trimStartSum="196/1" >
         <Transformer>
          <VectorParam id="10834"  name="translation">
           <InterpolatingParam id="10835" interp="linr"  >
            <Keyframes>
            <Keyframe id="10836"  time="-9999999/1" value="361.66666666673035" leadInLength="0/1"  />
            <Keyframe id="10837"  time="221/1" value="523.0952380962932" leadInLength="25/1"  interpolater="leadin-linr"  />
            </Keyframes>
           </InterpolatingParam>
           <InterpolatingParam id="10838" interp="linr"  >
            <Keyframes>
            <Keyframe id="10839"  time="-9999999/1" value="-3.1309399517450363e-011" leadInLength="0/1"  />
            <Keyframe id="10840"  time="221/1" value="-4.8896442450541144e-011" leadInLength="25/1"  interpolater="leadin-linr"  />
            </Keyframes>
           </InterpolatingParam>
           <InterpolatingParam id="10841" interp="linr"  >
            <Keyframes>
            <Keyframe id="10842"  time="-9999999/1" value="0" leadInLength="0/1"  />
            <Keyframe id="10843"  time="221/1" value="0" leadInLength="25/1"  interpolater="leadin-linr"  />
            </Keyframes>
           </InterpolatingParam>
          </VectorParam>
          <VectorParam id="10844"  name="rotation">
           <InterpolatingParam id="10845" interp="linr"  >
            <Keyframes>
            <Keyframe id="10846"  time="-9999999/1" value="0" leadInLength="0/1"  />
            <Keyframe id="10847"  time="221/1" value="0" leadInLength="25/1"  interpolater="leadin-linr"  />
            </Keyframes>
           </InterpolatingParam>
           <InterpolatingParam id="10848" interp="linr"  >
            <Keyframes>
            <Keyframe id="10849"  time="-9999999/1" value="0" leadInLength="0/1"  />
            <Keyframe id="10850"  time="221/1" value="0" leadInLength="25/1"  interpolater="leadin-linr"  />
            </Keyframes>
           </InterpolatingParam>
           <InterpolatingParam id="10851" interp="linr"  >
            <Keyframes>
            <Keyframe id="10852"  time="-9999999/1" value="0" leadInLength="0/1"  />
            <Keyframe id="10853"  time="221/1" value="0" leadInLength="25/1"  interpolater="leadin-linr"  />
            </Keyframes>
           </InterpolatingParam>
          </VectorParam>
          <VectorParam id="10854"  name="shear">
           <InterpolatingParam id="10855" interp="linr"  >
            <Keyframes>
            <Keyframe id="10856"  time="-9999999/1" value="0" leadInLength="0/1"  />
            <Keyframe id="10857"  time="221/1" value="0" leadInLength="25/1"  interpolater="leadin-linr"  />
            </Keyframes>
           </InterpolatingParam>
           <InterpolatingParam id="10858" interp="linr"  >
            <Keyframes>
            <Keyframe id="10859"  time="-9999999/1" value="0" leadInLength="0/1"  />
            <Keyframe id="10860"  time="221/1" value="0" leadInLength="25/1"  interpolater="leadin-linr"  />
            </Keyframes>
           </InterpolatingParam>
           <InterpolatingParam id="10861" interp="linr"  >
            <Keyframes>
            <Keyframe id="10862"  time="-9999999/1" value="0" leadInLength="0/1"  />
            <Keyframe id="10863"  time="221/1" value="0" leadInLength="25/1"  interpolater="leadin-linr"  />
            </Keyframes>
           </InterpolatingParam>
          </VectorParam>
          <VectorParam id="10864"  name="scale">
           <InterpolatingParam id="10865" interp="linr"  >
            <Keyframes>
            <Keyframe id="10866"  time="-9999999/1" value="0.70638020833348081" leadInLength="0/1"  />
            <Keyframe id="10867"  time="221/1" value="0.70638020833348081" leadInLength="25/1"  interpolater="leadin-linr"  />
            </Keyframes>
           </InterpolatingParam>
           <InterpolatingParam id="10868" interp="linr"  >
            <Keyframes>
            <Keyframe id="10869"  time="-9999999/1" value="0.70638020833348081" leadInLength="0/1"  />
            <Keyframe id="10870"  time="221/1" value="0.70638020833348081" leadInLength="25/1"  interpolater="leadin-linr"  />
            </Keyframes>
           </InterpolatingParam>
           <InterpolatingParam id="10871" interp="linr"  >
            <Keyframes>
            <Keyframe id="10872"  time="-9999999/1" value="1" leadInLength="0/1"  />
            <Keyframe id="10873"  time="221/1" value="1" leadInLength="25/1"  interpolater="leadin-linr"  />
            </Keyframes>
           </InterpolatingParam>
          </VectorParam>
          <VectorParam id="10874"  name="anchor">
           <InterpolatingParam id="10875" interp="linr"  time="0/1" value="0" leadInLength="0/1"  />
           <InterpolatingParam id="10876" interp="linr"  time="0/1" value="0" leadInLength="0/1"  />
           <InterpolatingParam id="10877" interp="linr"  time="0/1" value="0" leadInLength="0/1"  />
          </VectorParam>
         </Transformer>
         <Parameters>
          <VectorParam id="10878"  name="sourceCrop">
           <InterpolatingParam id="10879" interp="linr"  time="0/1" value="0" leadInLength="0/1"  />
           <InterpolatingParam id="10880" interp="linr"  time="0/1" value="0" leadInLength="0/1"  />
           <InterpolatingParam id="10881" interp="linr"  time="0/1" value="0" leadInLength="0/1"  />
           <InterpolatingParam id="10882" interp="linr"  time="0/1" value="0" leadInLength="0/1"  />
          </VectorParam>
          <VectorParam id="10883"  name="geometryCrop">
           <InterpolatingParam id="10884" interp="linr"  >
            <Keyframes>
            <Keyframe id="10885"  time="-9999999/1" value="0" leadInLength="0/1"  />
            <Keyframe id="10886"  time="221/1" value="0" leadInLength="25/1"  interpolater="leadin-linr"  />
            </Keyframes>
           </InterpolatingParam>
           <InterpolatingParam id="10887" interp="linr"  >
            <Keyframes>
            <Keyframe id="10888"  time="-9999999/1" value="0" leadInLength="0/1"  />
            <Keyframe id="10889"  time="221/1" value="0" leadInLength="25/1"  interpolater="leadin-linr"  />
            </Keyframes>
           </InterpolatingParam>
           <InterpolatingParam id="10890" interp="linr"  >
            <Keyframes>
            <Keyframe id="10891"  time="-9999999/1" value="0" leadInLength="0/1"  />
            <Keyframe id="10892"  time="221/1" value="0" leadInLength="25/1"  interpolater="leadin-linr"  />
            </Keyframes>
           </InterpolatingParam>
           <InterpolatingParam id="10893" interp="linr"  >
            <Keyframes>
            <Keyframe id="10894"  time="-9999999/1" value="0" leadInLength="0/1"  />
            <Keyframe id="10895"  time="221/1" value="0" leadInLength="25/1"  interpolater="leadin-linr"  />
            </Keyframes>
           </InterpolatingParam>
          </VectorParam>
          <InterpolatingParam id="10896" interp="linr"  name="opacity">
           <Keyframes>
           <Keyframe id="10897"  time="-9999999/1" value="1" leadInLength="0/1"  />
           <Keyframe id="10898"  time="221/1" value="1" leadInLength="25/1"  interpolater="leadin-linr"  />
           </Keyframes>
          </InterpolatingParam>
         </Parameters>
         <Attributes>
          <Attribute id="10899" value="" name="ident"/>
         </Attributes>
         <MetaData>
          <entry key="WinSubProjectDisplayName" val=""/>
         </MetaData>
         <ExtraData>
          <Entry key="ZoomPanBin">
           <ZoomPanBin id="10900"  >
            <ZoomPanKeyframes>
             <ZoomPanKeyframe id="10901" timeRangeEnd="-9999999/1" timeRangeDuration="0/1" interpolaterName="linr"  />
             <ZoomPanKeyframe id="10902" timeRangeEnd="221/1" timeRangeDuration="25/1" interpolaterName="linr"  />
            </ZoomPanKeyframes>
           </ZoomPanBin>
          </Entry>
         </ExtraData>
        </IMFile>
        <IMFile id="10903" start="4981" duration="329" scalar="1/1" mediaStart="0/1" mediaDuration="1/1" trackNumber="0" src="12" trimStartSum="0/1" >
         <Transformer>
          <VectorParam id="10904"  name="translation">
           <InterpolatingParam id="10905" interp="linr"  >
            <Keyframes>
            <Keyframe id="10906"  time="-9999999/1" value="348.09160305338963" leadInLength="0/1"  />
            <Keyframe id="10907"  time="968/1" value="916.62299999999993" leadInLength="96/1"  interpolater="leadin-linr"  />
            </Keyframes>
           </InterpolatingParam>
           <InterpolatingParam id="10908" interp="linr"  >
            <Keyframes>
            <Keyframe id="10909"  time="-9999999/1" value="-2.7424257309495393e-011" leadInLength="0/1"  />
            <Keyframe id="10910"  time="968/1" value="4.0961668980579131e-011" leadInLength="96/1"  interpolater="leadin-linr"  />
            </Keyframes>
           </InterpolatingParam>
           <InterpolatingParam id="10911" interp="linr"  >
            <Keyframes>
            <Keyframe id="10912"  time="-9999999/1" value="-3.4106051316488547e-010" leadInLength="0/1"  />
            <Keyframe id="10913"  time="968/1" value="-1.0262265131648857e-009" leadInLength="96/1"  interpolater="leadin-linr"  />
            </Keyframes>
           </InterpolatingParam>
          </VectorParam>
          <VectorParam id="10914"  name="rotation">
           <InterpolatingParam id="10915" interp="linr"  >
            <Keyframes>
            <Keyframe id="10916"  time="-9999999/1" value="0" leadInLength="0/1"  />
            <Keyframe id="10917"  time="968/1" value="0" leadInLength="96/1"  interpolater="leadin-linr"  />
            </Keyframes>
           </InterpolatingParam>
           <InterpolatingParam id="10918" interp="linr"  >
            <Keyframes>
            <Keyframe id="10919"  time="-9999999/1" value="0" leadInLength="0/1"  />
            <Keyframe id="10920"  time="968/1" value="0" leadInLength="96/1"  interpolater="leadin-linr"  />
            </Keyframes>
           </InterpolatingParam>
           <InterpolatingParam id="10921" interp="linr"  >
            <Keyframes>
            <Keyframe id="10922"  time="-9999999/1" value="0" leadInLength="0/1"  />
            <Keyframe id="10923"  time="968/1" value="0" leadInLength="96/1"  interpolater="leadin-linr"  />
            </Keyframes>
           </InterpolatingParam>
          </VectorParam>
          <VectorParam id="10924"  name="shear">
           <InterpolatingParam id="10925" interp="linr"  >
            <Keyframes>
            <Keyframe id="10926"  time="-9999999/1" value="0" leadInLength="0/1"  />
            <Keyframe id="10927"  time="968/1" value="0" leadInLength="96/1"  interpolater="leadin-linr"  />
            </Keyframes>
           </InterpolatingParam>
           <InterpolatingParam id="10928" interp="linr"  >
            <Keyframes>
            <Keyframe id="10929"  time="-9999999/1" value="0" leadInLength="0/1"  />
            <Keyframe id="10930"  time="968/1" value="0" leadInLength="96/1"  interpolater="leadin-linr"  />
            </Keyframes>
           </InterpolatingParam>
           <InterpolatingParam id="10931" interp="linr"  >
            <Keyframes>
            <Keyframe id="10932"  time="-9999999/1" value="0" leadInLength="0/1"  />
            <Keyframe id="10933"  time="968/1" value="0" leadInLength="96/1"  interpolater="leadin-linr"  />
            </Keyframes>
           </InterpolatingParam>
          </VectorParam>
          <VectorParam id="10934"  name="scale">
           <InterpolatingParam id="10935" interp="linr"  >
            <Keyframes>
            <Keyframe id="10936"  time="-9999999/1" value="0.70312499999996725" leadInLength="0/1"  />
            <Keyframe id="10937"  time="968/1" value="0.703125" leadInLength="96/1"  interpolater="leadin-linr"  />
            </Keyframes>
           </InterpolatingParam>
           <InterpolatingParam id="10938" interp="linr"  >
            <Keyframes>
            <Keyframe id="10939"  time="-9999999/1" value="0.70312499999996725" leadInLength="0/1"  />
            <Keyframe id="10940"  time="968/1" value="0.703125" leadInLength="96/1"  interpolater="leadin-linr"  />
            </Keyframes>
           </InterpolatingParam>
           <InterpolatingParam id="10941" interp="linr"  >
            <Keyframes>
            <Keyframe id="10942"  time="-9999999/1" value="1" leadInLength="0/1"  />
            <Keyframe id="10943"  time="968/1" value="1" leadInLength="96/1"  interpolater="leadin-linr"  />
            </Keyframes>
           </InterpolatingParam>
          </VectorParam>
          <VectorParam id="10944"  name="anchor">
           <InterpolatingParam id="10945" interp="linr"  time="0/1" value="0" leadInLength="0/1"  />
           <InterpolatingParam id="10946" interp="linr"  time="0/1" value="0" leadInLength="0/1"  />
           <InterpolatingParam id="10947" interp="linr"  time="0/1" value="0" leadInLength="0/1"  />
          </VectorParam>
         </Transformer>
         <Parameters>
          <VectorParam id="10948"  name="sourceCrop">
           <InterpolatingParam id="10949" interp="linr"  time="0/1" value="0" leadInLength="0/1"  />
           <InterpolatingParam id="10950" interp="linr"  time="0/1" value="0" leadInLength="0/1"  />
           <InterpolatingParam id="10951" interp="linr"  time="0/1" value="0" leadInLength="0/1"  />
           <InterpolatingParam id="10952" interp="linr"  time="0/1" value="0" leadInLength="0/1"  />
          </VectorParam>
          <VectorParam id="10953"  name="geometryCrop">
           <InterpolatingParam id="10954" interp="linr"  >
            <Keyframes>
            <Keyframe id="10955"  time="-9999999/1" value="0" leadInLength="0/1"  />
            <Keyframe id="10956"  time="968/1" value="0" leadInLength="96/1"  interpolater="leadin-linr"  />
            </Keyframes>
           </InterpolatingParam>
           <InterpolatingParam id="10957" interp="linr"  >
            <Keyframes>
            <Keyframe id="10958"  time="-9999999/1" value="0" leadInLength="0/1"  />
            <Keyframe id="10959"  time="968/1" value="0" leadInLength="96/1"  interpolater="leadin-linr"  />
            </Keyframes>
           </InterpolatingParam>
           <InterpolatingParam id="10960" interp="linr"  >
            <Keyframes>
            <Keyframe id="10961"  time="-9999999/1" value="0" leadInLength="0/1"  />
            <Keyframe id="10962"  time="968/1" value="0" leadInLength="96/1"  interpolater="leadin-linr"  />
            </Keyframes>
           </InterpolatingParam>
           <InterpolatingParam id="10963" interp="linr"  >
            <Keyframes>
            <Keyframe id="10964"  time="-9999999/1" value="0" leadInLength="0/1"  />
            <Keyframe id="10965"  time="968/1" value="0" leadInLength="96/1"  interpolater="leadin-linr"  />
            </Keyframes>
           </InterpolatingParam>
          </VectorParam>
          <InterpolatingParam id="10966" interp="linr"  name="opacity">
           <Keyframes>
           <Keyframe id="10967"  time="-9999999/1" value="1" leadInLength="0/1"  />
           <Keyframe id="10968"  time="968/1" value="1" leadInLength="96/1"  interpolater="leadin-linr"  />
           </Keyframes>
          </InterpolatingParam>
         </Parameters>
         <Attributes>
          <Attribute id="10969" value="" name="ident"/>
         </Attributes>
         <MetaData>
          <entry key="WinSubProjectDisplayName" val=""/>
         </MetaData>
         <ExtraData>
          <Entry key="ZoomPanBin">
           <ZoomPanBin id="10970"  >
            <ZoomPanKeyframes>
             <ZoomPanKeyframe id="10971" timeRangeEnd="-9999999/1" timeRangeDuration="0/1" interpolaterName="linr"  />
             <ZoomPanKeyframe id="10972" timeRangeEnd="968/1" timeRangeDuration="96/1" interpolaterName="linr"  />
            </ZoomPanKeyframes>
           </ZoomPanBin>
          </Entry>
         </ExtraData>
        </IMFile>
        <UnifiedMedia id="10973"  >
         <AudioTransition id="10974" start="5310" duration="62" >
          <Parameters>
           <InterpolatingParam id="10975" interp="linr"  time="0/1" value="1" leadInLength="0/1"  name="volume"/>
           <Parameter id="10976"  name="captions"/>
          </Parameters>
          <Effects>
           <GenericEffect id="10977" name = "AudioTransition" >
            <Parameters>
            <Parameter id="10978"   name="audioEdgeModType">
             <Keyframes>
             <Keyframe id="10979"  time="0/1" value="0" leadInLength="0/1"  />
             </Keyframes>
            </Parameter>
            <Parameter id="10980"   name="audioTransitionType">
             <Keyframes>
             <Keyframe id="10981"  time="0/1" value="" leadInLength="0/1"  />
             </Keyframes>
            </Parameter>
            </Parameters>
            <MetaData>
            </MetaData>
           </GenericEffect>
          </Effects>
          <Attributes>
           <Attribute id="10982" value="" name="ident"/>
           <Attribute id="10983" value="0" name="sampleRate"/>
           <Attribute id="10984" value="0" name="bitDepth"/>
           <Attribute id="10985" value="1" name="gain"/>
           <Attribute id="10986" value="0" name="mixToMono"/>
          </Attributes>
         </AudioTransition>
         <ImageTransition id="10987" start="5310" duration="62" >
          <Transformer>
           <VectorParam id="10988"  name="translation">
            <InterpolatingParam id="10989" interp="linr"  time="0/1" value="0" leadInLength="0/1"  />
            <InterpolatingParam id="10990" interp="linr"  time="0/1" value="0" leadInLength="0/1"  />
            <InterpolatingParam id="10991" interp="linr"  time="0/1" value="0" leadInLength="0/1"  />
           </VectorParam>
           <VectorParam id="10992"  name="rotation">
            <InterpolatingParam id="10993" interp="linr"  time="0/1" value="0" leadInLength="0/1"  />
            <InterpolatingParam id="10994" interp="linr"  time="0/1" value="0" leadInLength="0/1"  />
            <InterpolatingParam id="10995" interp="linr"  time="0/1" value="0" leadInLength="0/1"  />
           </VectorParam>
           <VectorParam id="10996"  name="shear">
            <InterpolatingParam id="10997" interp="linr"  time="0/1" value="0" leadInLength="0/1"  />
            <InterpolatingParam id="10998" interp="linr"  time="0/1" value="0" leadInLength="0/1"  />
            <InterpolatingParam id="10999" interp="linr"  time="0/1" value="0" leadInLength="0/1"  />
           </VectorParam>
           <VectorParam id="11000"  name="scale">
            <InterpolatingParam id="11001" interp="linr"  time="0/1" value="1" leadInLength="0/1"  />
            <InterpolatingParam id="11002" interp="linr"  time="0/1" value="1" leadInLength="0/1"  />
            <InterpolatingParam id="11003" interp="linr"  time="0/1" value="1" leadInLength="0/1"  />
           </VectorParam>
           <VectorParam id="11004"  name="anchor">
            <InterpolatingParam id="11005" interp="linr"  time="0/1" value="0" leadInLength="0/1"  />
            <InterpolatingParam id="11006" interp="linr"  time="0/1" value="0" leadInLength="0/1"  />
            <InterpolatingParam id="11007" interp="linr"  time="0/1" value="0" leadInLength="0/1"  />
           </VectorParam>
          </Transformer>
          <Parameters>
           <VectorParam id="11008"  name="sourceCrop">
            <InterpolatingParam id="11009" interp="linr"  time="0/1" value="0" leadInLength="0/1"  />
            <InterpolatingParam id="11010" interp="linr"  time="0/1" value="0" leadInLength="0/1"  />
            <InterpolatingParam id="11011" interp="linr"  time="0/1" value="0" leadInLength="0/1"  />
            <InterpolatingParam id="11012" interp="linr"  time="0/1" value="0" leadInLength="0/1"  />
           </VectorParam>
           <VectorParam id="11013"  name="geometryCrop">
            <InterpolatingParam id="11014" interp="linr"  time="0/1" value="0" leadInLength="0/1"  />
            <InterpolatingParam id="11015" interp="linr"  time="0/1" value="0" leadInLength="0/1"  />
            <InterpolatingParam id="11016" interp="linr"  time="0/1" value="0" leadInLength="0/1"  />
            <InterpolatingParam id="11017" interp="linr"  time="0/1" value="0" leadInLength="0/1"  />
           </VectorParam>
           <InterpolatingParam id="11018" interp="linr"  time="0/1" value="1" leadInLength="0/1"  name="opacity"/>
          </Parameters>
          <Effects>
           <GenericEffect id="11019" name = "VisualTransition" >
            <Parameters>
            <InterpolatingParam id="11020" interp="linr"  time="0/1" value="0.5" leadInLength="0/1"   name="leftFramePercentage"/>
            <InterpolatingParam id="11021" interp="linr"  time="0/1" value="0.5" leadInLength="0/1"   name="rightFramePercentage"/>
            <Parameter id="11022"   name="visualEdgeModType">
             <Keyframes>
             <Keyframe id="11023"  time="0/1" value="1" leadInLength="0/1"  />
             </Keyframes>
            </Parameter>
            <Parameter id="11024"   name="visualTransitionType">
             <Keyframes>
             <Keyframe id="11025"  time="0/1" value="Fade" leadInLength="0/1"  />
             </Keyframes>
            </Parameter>
            </Parameters>
            <MetaData>
            </MetaData>
           </GenericEffect>
          </Effects>
          <Attributes>
           <Attribute id="11026" value="" name="ident"/>
          </Attributes>
          <ExtraData>
           <Entry key="ZoomPanBin">
            <ZoomPanBin id="11027"  >
             <ZoomPanKeyframes>
             </ZoomPanKeyframes>
            </ZoomPanBin>
           </Entry>
          </ExtraData>
         </ImageTransition>
         <MetaData>
          <entry key="WinSubProjectDisplayName" val=""/>
         </MetaData>
        </UnifiedMedia>
        <IMFile id="11028" start="5372" duration="49" scalar="1/1" mediaStart="0/1" mediaDuration="1/1" trackNumber="0" src="12" trimStartSum="37/1" >
         <Transformer>
          <VectorParam id="11029"  name="translation">
           <InterpolatingParam id="11030" interp="linr"  >
            <Keyframes>
            <Keyframe id="11031"  time="-9999999/1" value="-97.196928389507974" leadInLength="0/1"  />
            <Keyframe id="11032"  time="78/1" value="257.21973827708393" leadInLength="96/1"  interpolater="leadin-linr"  />
            </Keyframes>
           </InterpolatingParam>
           <InterpolatingParam id="11033" interp="linr"  >
            <Keyframes>
            <Keyframe id="11034"  time="-9999999/1" value="-65.194616900858037" leadInLength="0/1"  />
            <Keyframe id="11035"  time="78/1" value="114.54034896400233" leadInLength="96/1"  interpolater="leadin-linr"  />
            </Keyframes>
           </InterpolatingParam>
           <InterpolatingParam id="11036" interp="linr"  >
            <Keyframes>
            <Keyframe id="11037"  time="-9999999/1" value="0" leadInLength="0/1"  />
            <Keyframe id="11038"  time="78/1" value="0" leadInLength="96/1"  interpolater="leadin-linr"  />
            </Keyframes>
           </InterpolatingParam>
          </VectorParam>
          <VectorParam id="11039"  name="rotation">
           <InterpolatingParam id="11040" interp="linr"  >
            <Keyframes>
            <Keyframe id="11041"  time="-9999999/1" value="0" leadInLength="0/1"  />
            <Keyframe id="11042"  time="78/1" value="0" leadInLength="96/1"  interpolater="leadin-linr"  />
            </Keyframes>
           </InterpolatingParam>
           <InterpolatingParam id="11043" interp="linr"  >
            <Keyframes>
            <Keyframe id="11044"  time="-9999999/1" value="0" leadInLength="0/1"  />
            <Keyframe id="11045"  time="78/1" value="0" leadInLength="96/1"  interpolater="leadin-linr"  />
            </Keyframes>
           </InterpolatingParam>
           <InterpolatingParam id="11046" interp="linr"  >
            <Keyframes>
            <Keyframe id="11047"  time="-9999999/1" value="0" leadInLength="0/1"  />
            <Keyframe id="11048"  time="78/1" value="0" leadInLength="96/1"  interpolater="leadin-linr"  />
            </Keyframes>
           </InterpolatingParam>
          </VectorParam>
          <VectorParam id="11049"  name="shear">
           <InterpolatingParam id="11050" interp="linr"  >
            <Keyframes>
            <Keyframe id="11051"  time="-9999999/1" value="0" leadInLength="0/1"  />
            <Keyframe id="11052"  time="78/1" value="0" leadInLength="96/1"  interpolater="leadin-linr"  />
            </Keyframes>
           </InterpolatingParam>
           <InterpolatingParam id="11053" interp="linr"  >
            <Keyframes>
            <Keyframe id="11054"  time="-9999999/1" value="0" leadInLength="0/1"  />
            <Keyframe id="11055"  time="78/1" value="0" leadInLength="96/1"  interpolater="leadin-linr"  />
            </Keyframes>
           </InterpolatingParam>
           <InterpolatingParam id="11056" interp="linr"  >
            <Keyframes>
            <Keyframe id="11057"  time="-9999999/1" value="0" leadInLength="0/1"  />
            <Keyframe id="11058"  time="78/1" value="0" leadInLength="96/1"  interpolater="leadin-linr"  />
            </Keyframes>
           </InterpolatingParam>
          </VectorParam>
          <VectorParam id="11059"  name="scale">
           <InterpolatingParam id="11060" interp="linr"  >
            <Keyframes>
            <Keyframe id="11061"  time="-9999999/1" value="0.1526797428774776" leadInLength="0/1"  />
            <Keyframe id="11062"  time="78/1" value="0.25277739912748615" leadInLength="96/1"  interpolater="leadin-linr"  />
            </Keyframes>
           </InterpolatingParam>
           <InterpolatingParam id="11063" interp="linr"  >
            <Keyframes>
            <Keyframe id="11064"  time="-9999999/1" value="0.1526797428774776" leadInLength="0/1"  />
            <Keyframe id="11065"  time="78/1" value="0.25277739912748615" leadInLength="96/1"  interpolater="leadin-linr"  />
            </Keyframes>
           </InterpolatingParam>
           <InterpolatingParam id="11066" interp="linr"  >
            <Keyframes>
            <Keyframe id="11067"  time="-9999999/1" value="1" leadInLength="0/1"  />
            <Keyframe id="11068"  time="78/1" value="1" leadInLength="96/1"  interpolater="leadin-linr"  />
            </Keyframes>
           </InterpolatingParam>
          </VectorParam>
          <VectorParam id="11069"  name="anchor">
           <InterpolatingParam id="11070" interp="linr"  time="0/1" value="0" leadInLength="0/1"  />
           <InterpolatingParam id="11071" interp="linr"  time="0/1" value="0" leadInLength="0/1"  />
           <InterpolatingParam id="11072" interp="linr"  time="0/1" value="0" leadInLength="0/1"  />
          </VectorParam>
         </Transformer>
         <Parameters>
          <VectorParam id="11073"  name="sourceCrop">
           <InterpolatingParam id="11074" interp="linr"  time="0/1" value="0" leadInLength="0/1"  />
           <InterpolatingParam id="11075" interp="linr"  time="0/1" value="0" leadInLength="0/1"  />
           <InterpolatingParam id="11076" interp="linr"  time="0/1" value="0" leadInLength="0/1"  />
           <InterpolatingParam id="11077" interp="linr"  time="0/1" value="0" leadInLength="0/1"  />
          </VectorParam>
          <VectorParam id="11078"  name="geometryCrop">
           <InterpolatingParam id="11079" interp="linr"  >
            <Keyframes>
            <Keyframe id="11080"  time="-9999999/1" value="0" leadInLength="0/1"  />
            <Keyframe id="11081"  time="78/1" value="0" leadInLength="96/1"  interpolater="leadin-linr"  />
            </Keyframes>
           </InterpolatingParam>
           <InterpolatingParam id="11082" interp="linr"  >
            <Keyframes>
            <Keyframe id="11083"  time="-9999999/1" value="0" leadInLength="0/1"  />
            <Keyframe id="11084"  time="78/1" value="0" leadInLength="96/1"  interpolater="leadin-linr"  />
            </Keyframes>
           </InterpolatingParam>
           <InterpolatingParam id="11085" interp="linr"  >
            <Keyframes>
            <Keyframe id="11086"  time="-9999999/1" value="0" leadInLength="0/1"  />
            <Keyframe id="11087"  time="78/1" value="0" leadInLength="96/1"  interpolater="leadin-linr"  />
            </Keyframes>
           </InterpolatingParam>
           <InterpolatingParam id="11088" interp="linr"  >
            <Keyframes>
            <Keyframe id="11089"  time="-9999999/1" value="0" leadInLength="0/1"  />
            <Keyframe id="11090"  time="78/1" value="0" leadInLength="96/1"  interpolater="leadin-linr"  />
            </Keyframes>
           </InterpolatingParam>
          </VectorParam>
          <InterpolatingParam id="11091" interp="linr"  name="opacity">
           <Keyframes>
           <Keyframe id="11092"  time="-9999999/1" value="1" leadInLength="0/1"  />
           <Keyframe id="11093"  time="78/1" value="1" leadInLength="96/1"  interpolater="leadin-linr"  />
           </Keyframes>
          </InterpolatingParam>
         </Parameters>
         <Attributes>
          <Attribute id="11094" value="" name="ident"/>
         </Attributes>
         <MetaData>
          <entry key="WinSubProjectDisplayName" val=""/>
         </MetaData>
         <ExtraData>
          <Entry key="ZoomPanBin">
           <ZoomPanBin id="11095"  >
            <ZoomPanKeyframes>
             <ZoomPanKeyframe id="11096" timeRangeEnd="-9999999/1" timeRangeDuration="0/1" interpolaterName="linr"  />
             <ZoomPanKeyframe id="11097" timeRangeEnd="78/1" timeRangeDuration="96/1" interpolaterName="linr"  />
            </ZoomPanKeyframes>
           </ZoomPanBin>
          </Entry>
         </ExtraData>
        </IMFile>
        <IMFile id="11098" start="5421" duration="49" scalar="1/1" mediaStart="0/1" mediaDuration="1/1" trackNumber="0" src="12" trimStartSum="86/1" >
         <Transformer>
          <VectorParam id="11099"  name="translation">
           <InterpolatingParam id="11100" interp="linr"  >
            <Keyframes>
            <Keyframe id="11101"  time="-9999999/1" value="-97.196928389507974" leadInLength="0/1"  />
            <Keyframe id="11102"  time="78/1" value="257.21973827708393" leadInLength="96/1"  interpolater="leadin-linr"  />
            </Keyframes>
           </InterpolatingParam>
           <InterpolatingParam id="11103" interp="linr"  >
            <Keyframes>
            <Keyframe id="11104"  time="-9999999/1" value="-65.194616900858037" leadInLength="0/1"  />
            <Keyframe id="11105"  time="78/1" value="114.54034896400233" leadInLength="96/1"  interpolater="leadin-linr"  />
            </Keyframes>
           </InterpolatingParam>
           <InterpolatingParam id="11106" interp="linr"  >
            <Keyframes>
            <Keyframe id="11107"  time="-9999999/1" value="0" leadInLength="0/1"  />
            <Keyframe id="11108"  time="78/1" value="0" leadInLength="96/1"  interpolater="leadin-linr"  />
            </Keyframes>
           </InterpolatingParam>
          </VectorParam>
          <VectorParam id="11109"  name="rotation">
           <InterpolatingParam id="11110" interp="linr"  >
            <Keyframes>
            <Keyframe id="11111"  time="-9999999/1" value="0" leadInLength="0/1"  />
            <Keyframe id="11112"  time="78/1" value="0" leadInLength="96/1"  interpolater="leadin-linr"  />
            </Keyframes>
           </InterpolatingParam>
           <InterpolatingParam id="11113" interp="linr"  >
            <Keyframes>
            <Keyframe id="11114"  time="-9999999/1" value="0" leadInLength="0/1"  />
            <Keyframe id="11115"  time="78/1" value="0" leadInLength="96/1"  interpolater="leadin-linr"  />
            </Keyframes>
           </InterpolatingParam>
           <InterpolatingParam id="11116" interp="linr"  >
            <Keyframes>
            <Keyframe id="11117"  time="-9999999/1" value="0" leadInLength="0/1"  />
            <Keyframe id="11118"  time="78/1" value="0" leadInLength="96/1"  interpolater="leadin-linr"  />
            </Keyframes>
           </InterpolatingParam>
          </VectorParam>
          <VectorParam id="11119"  name="shear">
           <InterpolatingParam id="11120" interp="linr"  >
            <Keyframes>
            <Keyframe id="11121"  time="-9999999/1" value="0" leadInLength="0/1"  />
            <Keyframe id="11122"  time="78/1" value="0" leadInLength="96/1"  interpolater="leadin-linr"  />
            </Keyframes>
           </InterpolatingParam>
           <InterpolatingParam id="11123" interp="linr"  >
            <Keyframes>
            <Keyframe id="11124"  time="-9999999/1" value="0" leadInLength="0/1"  />
            <Keyframe id="11125"  time="78/1" value="0" leadInLength="96/1"  interpolater="leadin-linr"  />
            </Keyframes>
           </InterpolatingParam>
           <InterpolatingParam id="11126" interp="linr"  >
            <Keyframes>
            <Keyframe id="11127"  time="-9999999/1" value="0" leadInLength="0/1"  />
            <Keyframe id="11128"  time="78/1" value="0" leadInLength="96/1"  interpolater="leadin-linr"  />
            </Keyframes>
           </InterpolatingParam>
          </VectorParam>
          <VectorParam id="11129"  name="scale">
           <InterpolatingParam id="11130" interp="linr"  >
            <Keyframes>
            <Keyframe id="11131"  time="-9999999/1" value="0.1526797428774776" leadInLength="0/1"  />
            <Keyframe id="11132"  time="78/1" value="0.25277739912748615" leadInLength="96/1"  interpolater="leadin-linr"  />
            </Keyframes>
           </InterpolatingParam>
           <InterpolatingParam id="11133" interp="linr"  >
            <Keyframes>
            <Keyframe id="11134"  time="-9999999/1" value="0.1526797428774776" leadInLength="0/1"  />
            <Keyframe id="11135"  time="78/1" value="0.25277739912748615" leadInLength="96/1"  interpolater="leadin-linr"  />
            </Keyframes>
           </InterpolatingParam>
           <InterpolatingParam id="11136" interp="linr"  >
            <Keyframes>
            <Keyframe id="11137"  time="-9999999/1" value="1" leadInLength="0/1"  />
            <Keyframe id="11138"  time="78/1" value="1" leadInLength="96/1"  interpolater="leadin-linr"  />
            </Keyframes>
           </InterpolatingParam>
          </VectorParam>
          <VectorParam id="11139"  name="anchor">
           <InterpolatingParam id="11140" interp="linr"  time="0/1" value="0" leadInLength="0/1"  />
           <InterpolatingParam id="11141" interp="linr"  time="0/1" value="0" leadInLength="0/1"  />
           <InterpolatingParam id="11142" interp="linr"  time="0/1" value="0" leadInLength="0/1"  />
          </VectorParam>
         </Transformer>
         <Parameters>
          <VectorParam id="11143"  name="sourceCrop">
           <InterpolatingParam id="11144" interp="linr"  time="0/1" value="0" leadInLength="0/1"  />
           <InterpolatingParam id="11145" interp="linr"  time="0/1" value="0" leadInLength="0/1"  />
           <InterpolatingParam id="11146" interp="linr"  time="0/1" value="0" leadInLength="0/1"  />
           <InterpolatingParam id="11147" interp="linr"  time="0/1" value="0" leadInLength="0/1"  />
          </VectorParam>
          <VectorParam id="11148"  name="geometryCrop">
           <InterpolatingParam id="11149" interp="linr"  >
            <Keyframes>
            <Keyframe id="11150"  time="-9999999/1" value="0" leadInLength="0/1"  />
            <Keyframe id="11151"  time="78/1" value="0" leadInLength="96/1"  interpolater="leadin-linr"  />
            </Keyframes>
           </InterpolatingParam>
           <InterpolatingParam id="11152" interp="linr"  >
            <Keyframes>
            <Keyframe id="11153"  time="-9999999/1" value="0" leadInLength="0/1"  />
            <Keyframe id="11154"  time="78/1" value="0" leadInLength="96/1"  interpolater="leadin-linr"  />
            </Keyframes>
           </InterpolatingParam>
           <InterpolatingParam id="11155" interp="linr"  >
            <Keyframes>
            <Keyframe id="11156"  time="-9999999/1" value="0" leadInLength="0/1"  />
            <Keyframe id="11157"  time="78/1" value="0" leadInLength="96/1"  interpolater="leadin-linr"  />
            </Keyframes>
           </InterpolatingParam>
           <InterpolatingParam id="11158" interp="linr"  >
            <Keyframes>
            <Keyframe id="11159"  time="-9999999/1" value="0" leadInLength="0/1"  />
            <Keyframe id="11160"  time="78/1" value="0" leadInLength="96/1"  interpolater="leadin-linr"  />
            </Keyframes>
           </InterpolatingParam>
          </VectorParam>
          <InterpolatingParam id="11161" interp="linr"  name="opacity">
           <Keyframes>
           <Keyframe id="11162"  time="-9999999/1" value="1" leadInLength="0/1"  />
           <Keyframe id="11163"  time="78/1" value="1" leadInLength="96/1"  interpolater="leadin-linr"  />
           </Keyframes>
          </InterpolatingParam>
         </Parameters>
         <Attributes>
          <Attribute id="11164" value="" name="ident"/>
         </Attributes>
         <MetaData>
          <entry key="WinSubProjectDisplayName" val=""/>
         </MetaData>
         <ExtraData>
          <Entry key="ZoomPanBin">
           <ZoomPanBin id="11165"  >
            <ZoomPanKeyframes>
             <ZoomPanKeyframe id="11166" timeRangeEnd="-9999999/1" timeRangeDuration="0/1" interpolaterName="linr"  />
             <ZoomPanKeyframe id="11167" timeRangeEnd="78/1" timeRangeDuration="96/1" interpolaterName="linr"  />
            </ZoomPanKeyframes>
           </ZoomPanBin>
          </Entry>
         </ExtraData>
        </IMFile>
        <UnifiedMedia id="11168"  >
         <AudioTransition id="11169" start="5470" duration="15" >
          <Parameters>
           <InterpolatingParam id="11170" interp="linr"  time="0/1" value="1" leadInLength="0/1"  name="volume"/>
           <Parameter id="11171"  name="captions"/>
          </Parameters>
          <Effects>
           <GenericEffect id="11172" name = "AudioTransition" >
            <Parameters>
            <Parameter id="11173"   name="audioEdgeModType">
             <Keyframes>
             <Keyframe id="11174"  time="0/1" value="0" leadInLength="0/1"  />
             </Keyframes>
            </Parameter>
            <Parameter id="11175"   name="audioTransitionType">
             <Keyframes>
             <Keyframe id="11176"  time="0/1" value="" leadInLength="0/1"  />
             </Keyframes>
            </Parameter>
            </Parameters>
            <MetaData>
            </MetaData>
           </GenericEffect>
          </Effects>
          <Attributes>
           <Attribute id="11177" value="" name="ident"/>
           <Attribute id="11178" value="0" name="sampleRate"/>
           <Attribute id="11179" value="0" name="bitDepth"/>
           <Attribute id="11180" value="1" name="gain"/>
           <Attribute id="11181" value="0" name="mixToMono"/>
          </Attributes>
         </AudioTransition>
         <ImageTransition id="11182" start="5470" duration="15" >
          <Transformer>
           <VectorParam id="11183"  name="translation">
            <InterpolatingParam id="11184" interp="linr"  time="0/1" value="0" leadInLength="0/1"  />
            <InterpolatingParam id="11185" interp="linr"  time="0/1" value="0" leadInLength="0/1"  />
            <InterpolatingParam id="11186" interp="linr"  time="0/1" value="0" leadInLength="0/1"  />
           </VectorParam>
           <VectorParam id="11187"  name="rotation">
            <InterpolatingParam id="11188" interp="linr"  time="0/1" value="0" leadInLength="0/1"  />
            <InterpolatingParam id="11189" interp="linr"  time="0/1" value="0" leadInLength="0/1"  />
            <InterpolatingParam id="11190" interp="linr"  time="0/1" value="0" leadInLength="0/1"  />
           </VectorParam>
           <VectorParam id="11191"  name="shear">
            <InterpolatingParam id="11192" interp="linr"  time="0/1" value="0" leadInLength="0/1"  />
            <InterpolatingParam id="11193" interp="linr"  time="0/1" value="0" leadInLength="0/1"  />
            <InterpolatingParam id="11194" interp="linr"  time="0/1" value="0" leadInLength="0/1"  />
           </VectorParam>
           <VectorParam id="11195"  name="scale">
            <InterpolatingParam id="11196" interp="linr"  time="0/1" value="1" leadInLength="0/1"  />
            <InterpolatingParam id="11197" interp="linr"  time="0/1" value="1" leadInLength="0/1"  />
            <InterpolatingParam id="11198" interp="linr"  time="0/1" value="1" leadInLength="0/1"  />
           </VectorParam>
           <VectorParam id="11199"  name="anchor">
            <InterpolatingParam id="11200" interp="linr"  time="0/1" value="0" leadInLength="0/1"  />
            <InterpolatingParam id="11201" interp="linr"  time="0/1" value="0" leadInLength="0/1"  />
            <InterpolatingParam id="11202" interp="linr"  time="0/1" value="0" leadInLength="0/1"  />
           </VectorParam>
          </Transformer>
          <Parameters>
           <VectorParam id="11203"  name="sourceCrop">
            <InterpolatingParam id="11204" interp="linr"  time="0/1" value="0" leadInLength="0/1"  />
            <InterpolatingParam id="11205" interp="linr"  time="0/1" value="0" leadInLength="0/1"  />
            <InterpolatingParam id="11206" interp="linr"  time="0/1" value="0" leadInLength="0/1"  />
            <InterpolatingParam id="11207" interp="linr"  time="0/1" value="0" leadInLength="0/1"  />
           </VectorParam>
           <VectorParam id="11208"  name="geometryCrop">
            <InterpolatingParam id="11209" interp="linr"  time="0/1" value="0" leadInLength="0/1"  />
            <InterpolatingParam id="11210" interp="linr"  time="0/1" value="0" leadInLength="0/1"  />
            <InterpolatingParam id="11211" interp="linr"  time="0/1" value="0" leadInLength="0/1"  />
            <InterpolatingParam id="11212" interp="linr"  time="0/1" value="0" leadInLength="0/1"  />
           </VectorParam>
           <InterpolatingParam id="11213" interp="linr"  time="0/1" value="1" leadInLength="0/1"  name="opacity"/>
          </Parameters>
          <Effects>
           <GenericEffect id="11214" name = "VisualTransition" >
            <Parameters>
            <InterpolatingParam id="11215" interp="linr"  time="0/1" value="0.5" leadInLength="0/1"   name="leftFramePercentage"/>
            <InterpolatingParam id="11216" interp="linr"  time="0/1" value="0.5" leadInLength="0/1"   name="rightFramePercentage"/>
            <Parameter id="11217"   name="visualEdgeModType">
             <Keyframes>
             <Keyframe id="11218"  time="0/1" value="2" leadInLength="0/1"  />
             </Keyframes>
            </Parameter>
            <Parameter id="11219"   name="visualTransitionType">
             <Keyframes>
             <Keyframe id="11220"  time="0/1" value="Fade" leadInLength="0/1"  />
             </Keyframes>
            </Parameter>
            </Parameters>
            <MetaData>
            </MetaData>
           </GenericEffect>
          </Effects>
          <Attributes>
           <Attribute id="11221" value="" name="ident"/>
          </Attributes>
          <ExtraData>
           <Entry key="ZoomPanBin">
            <ZoomPanBin id="11222"  >
             <ZoomPanKeyframes>
             </ZoomPanKeyframes>
            </ZoomPanBin>
           </Entry>
          </ExtraData>
         </ImageTransition>
         <MetaData>
          <entry key="WinSubProjectDisplayName" val=""/>
         </MetaData>
        </UnifiedMedia>
        <UnifiedMedia id="11223"  >
         <AudioTransition id="11224" start="5635" duration="30" >
          <Parameters>
           <InterpolatingParam id="11225" interp="linr"  time="0/1" value="1" leadInLength="0/1"  name="volume"/>
           <Parameter id="11226"  name="captions"/>
          </Parameters>
          <Effects>
           <GenericEffect id="11227" name = "AudioTransition" >
            <Parameters>
            <Parameter id="11228"   name="audioEdgeModType">
             <Keyframes>
             <Keyframe id="11229"  time="0/1" value="0" leadInLength="0/1"  />
             </Keyframes>
            </Parameter>
            <Parameter id="11230"   name="audioTransitionType">
             <Keyframes>
             <Keyframe id="11231"  time="0/1" value="" leadInLength="0/1"  />
             </Keyframes>
            </Parameter>
            </Parameters>
            <MetaData>
            </MetaData>
           </GenericEffect>
          </Effects>
          <Attributes>
           <Attribute id="11232" value="" name="ident"/>
           <Attribute id="11233" value="0" name="sampleRate"/>
           <Attribute id="11234" value="0" name="bitDepth"/>
           <Attribute id="11235" value="1" name="gain"/>
           <Attribute id="11236" value="0" name="mixToMono"/>
          </Attributes>
         </AudioTransition>
         <ImageTransition id="11237" start="5635" duration="30" >
          <Transformer>
           <VectorParam id="11238"  name="translation">
            <InterpolatingParam id="11239" interp="linr"  time="0/1" value="0" leadInLength="0/1"  />
            <InterpolatingParam id="11240" interp="linr"  time="0/1" value="0" leadInLength="0/1"  />
            <InterpolatingParam id="11241" interp="linr"  time="0/1" value="0" leadInLength="0/1"  />
           </VectorParam>
           <VectorParam id="11242"  name="rotation">
            <InterpolatingParam id="11243" interp="linr"  time="0/1" value="0" leadInLength="0/1"  />
            <InterpolatingParam id="11244" interp="linr"  time="0/1" value="0" leadInLength="0/1"  />
            <InterpolatingParam id="11245" interp="linr"  time="0/1" value="0" leadInLength="0/1"  />
           </VectorParam>
           <VectorParam id="11246"  name="shear">
            <InterpolatingParam id="11247" interp="linr"  time="0/1" value="0" leadInLength="0/1"  />
            <InterpolatingParam id="11248" interp="linr"  time="0/1" value="0" leadInLength="0/1"  />
            <InterpolatingParam id="11249" interp="linr"  time="0/1" value="0" leadInLength="0/1"  />
           </VectorParam>
           <VectorParam id="11250"  name="scale">
            <InterpolatingParam id="11251" interp="linr"  time="0/1" value="1" leadInLength="0/1"  />
            <InterpolatingParam id="11252" interp="linr"  time="0/1" value="1" leadInLength="0/1"  />
            <InterpolatingParam id="11253" interp="linr"  time="0/1" value="1" leadInLength="0/1"  />
           </VectorParam>
           <VectorParam id="11254"  name="anchor">
            <InterpolatingParam id="11255" interp="linr"  time="0/1" value="0" leadInLength="0/1"  />
            <InterpolatingParam id="11256" interp="linr"  time="0/1" value="0" leadInLength="0/1"  />
            <InterpolatingParam id="11257" interp="linr"  time="0/1" value="0" leadInLength="0/1"  />
           </VectorParam>
          </Transformer>
          <Parameters>
           <VectorParam id="11258"  name="sourceCrop">
            <InterpolatingParam id="11259" interp="linr"  time="0/1" value="0" leadInLength="0/1"  />
            <InterpolatingParam id="11260" interp="linr"  time="0/1" value="0" leadInLength="0/1"  />
            <InterpolatingParam id="11261" interp="linr"  time="0/1" value="0" leadInLength="0/1"  />
            <InterpolatingParam id="11262" interp="linr"  time="0/1" value="0" leadInLength="0/1"  />
           </VectorParam>
           <VectorParam id="11263"  name="geometryCrop">
            <InterpolatingParam id="11264" interp="linr"  time="0/1" value="0" leadInLength="0/1"  />
            <InterpolatingParam id="11265" interp="linr"  time="0/1" value="0" leadInLength="0/1"  />
            <InterpolatingParam id="11266" interp="linr"  time="0/1" value="0" leadInLength="0/1"  />
            <InterpolatingParam id="11267" interp="linr"  time="0/1" value="0" leadInLength="0/1"  />
           </VectorParam>
           <InterpolatingParam id="11268" interp="linr"  time="0/1" value="1" leadInLength="0/1"  name="opacity"/>
          </Parameters>
          <Effects>
           <GenericEffect id="11269" name = "VisualTransition" >
            <Parameters>
            <InterpolatingParam id="11270" interp="linr"  time="0/1" value="0.5" leadInLength="0/1"   name="leftFramePercentage"/>
            <InterpolatingParam id="11271" interp="linr"  time="0/1" value="0.5" leadInLength="0/1"   name="rightFramePercentage"/>
            <Parameter id="11272"   name="visualEdgeModType">
             <Keyframes>
             <Keyframe id="11273"  time="0/1" value="1" leadInLength="0/1"  />
             </Keyframes>
            </Parameter>
            <Parameter id="11274"   name="visualTransitionType">
             <Keyframes>
             <Keyframe id="11275"  time="0/1" value="Fade" leadInLength="0/1"  />
             </Keyframes>
            </Parameter>
            </Parameters>
            <MetaData>
            </MetaData>
           </GenericEffect>
          </Effects>
          <Attributes>
           <Attribute id="11276" value="" name="ident"/>
          </Attributes>
          <ExtraData>
           <Entry key="ZoomPanBin">
            <ZoomPanBin id="11277"  >
             <ZoomPanKeyframes>
             </ZoomPanKeyframes>
            </ZoomPanBin>
           </Entry>
          </ExtraData>
         </ImageTransition>
         <MetaData>
          <entry key="WinSubProjectDisplayName" val=""/>
         </MetaData>
        </UnifiedMedia>
        <IMFile id="11278" start="5665" duration="173" scalar="1/1" mediaStart="0/1" mediaDuration="1/1" trackNumber="0" src="12" trimStartSum="116/1" >
         <Transformer>
          <VectorParam id="11279"  name="translation">
           <InterpolatingParam id="11280" interp="linr"  >
            <Keyframes>
            <Keyframe id="11281"  time="-9999999/1" value="-97.196928389507974" leadInLength="0/1"  />
            <Keyframe id="11282"  time="78/1" value="257.21973827708393" leadInLength="96/1"  interpolater="leadin-linr"  />
            </Keyframes>
           </InterpolatingParam>
           <InterpolatingParam id="11283" interp="linr"  >
            <Keyframes>
            <Keyframe id="11284"  time="-9999999/1" value="-65.194616900858037" leadInLength="0/1"  />
            <Keyframe id="11285"  time="78/1" value="114.54034896400233" leadInLength="96/1"  interpolater="leadin-linr"  />
            </Keyframes>
           </InterpolatingParam>
           <InterpolatingParam id="11286" interp="linr"  >
            <Keyframes>
            <Keyframe id="11287"  time="-9999999/1" value="0" leadInLength="0/1"  />
            <Keyframe id="11288"  time="78/1" value="0" leadInLength="96/1"  interpolater="leadin-linr"  />
            </Keyframes>
           </InterpolatingParam>
          </VectorParam>
          <VectorParam id="11289"  name="rotation">
           <InterpolatingParam id="11290" interp="linr"  >
            <Keyframes>
            <Keyframe id="11291"  time="-9999999/1" value="0" leadInLength="0/1"  />
            <Keyframe id="11292"  time="78/1" value="0" leadInLength="96/1"  interpolater="leadin-linr"  />
            </Keyframes>
           </InterpolatingParam>
           <InterpolatingParam id="11293" interp="linr"  >
            <Keyframes>
            <Keyframe id="11294"  time="-9999999/1" value="0" leadInLength="0/1"  />
            <Keyframe id="11295"  time="78/1" value="0" leadInLength="96/1"  interpolater="leadin-linr"  />
            </Keyframes>
           </InterpolatingParam>
           <InterpolatingParam id="11296" interp="linr"  >
            <Keyframes>
            <Keyframe id="11297"  time="-9999999/1" value="0" leadInLength="0/1"  />
            <Keyframe id="11298"  time="78/1" value="0" leadInLength="96/1"  interpolater="leadin-linr"  />
            </Keyframes>
           </InterpolatingParam>
          </VectorParam>
          <VectorParam id="11299"  name="shear">
           <InterpolatingParam id="11300" interp="linr"  >
            <Keyframes>
            <Keyframe id="11301"  time="-9999999/1" value="0" leadInLength="0/1"  />
            <Keyframe id="11302"  time="78/1" value="0" leadInLength="96/1"  interpolater="leadin-linr"  />
            </Keyframes>
           </InterpolatingParam>
           <InterpolatingParam id="11303" interp="linr"  >
            <Keyframes>
            <Keyframe id="11304"  time="-9999999/1" value="0" leadInLength="0/1"  />
            <Keyframe id="11305"  time="78/1" value="0" leadInLength="96/1"  interpolater="leadin-linr"  />
            </Keyframes>
           </InterpolatingParam>
           <InterpolatingParam id="11306" interp="linr"  >
            <Keyframes>
            <Keyframe id="11307"  time="-9999999/1" value="0" leadInLength="0/1"  />
            <Keyframe id="11308"  time="78/1" value="0" leadInLength="96/1"  interpolater="leadin-linr"  />
            </Keyframes>
           </InterpolatingParam>
          </VectorParam>
          <VectorParam id="11309"  name="scale">
           <InterpolatingParam id="11310" interp="linr"  >
            <Keyframes>
            <Keyframe id="11311"  time="-9999999/1" value="0.1526797428774776" leadInLength="0/1"  />
            <Keyframe id="11312"  time="78/1" value="0.25277739912748615" leadInLength="96/1"  interpolater="leadin-linr"  />
            </Keyframes>
           </InterpolatingParam>
           <InterpolatingParam id="11313" interp="linr"  >
            <Keyframes>
            <Keyframe id="11314"  time="-9999999/1" value="0.1526797428774776" leadInLength="0/1"  />
            <Keyframe id="11315"  time="78/1" value="0.25277739912748615" leadInLength="96/1"  interpolater="leadin-linr"  />
            </Keyframes>
           </InterpolatingParam>
           <InterpolatingParam id="11316" interp="linr"  >
            <Keyframes>
            <Keyframe id="11317"  time="-9999999/1" value="1" leadInLength="0/1"  />
            <Keyframe id="11318"  time="78/1" value="1" leadInLength="96/1"  interpolater="leadin-linr"  />
            </Keyframes>
           </InterpolatingParam>
          </VectorParam>
          <VectorParam id="11319"  name="anchor">
           <InterpolatingParam id="11320" interp="linr"  time="0/1" value="0" leadInLength="0/1"  />
           <InterpolatingParam id="11321" interp="linr"  time="0/1" value="0" leadInLength="0/1"  />
           <InterpolatingParam id="11322" interp="linr"  time="0/1" value="0" leadInLength="0/1"  />
          </VectorParam>
         </Transformer>
         <Parameters>
          <VectorParam id="11323"  name="sourceCrop">
           <InterpolatingParam id="11324" interp="linr"  time="0/1" value="0" leadInLength="0/1"  />
           <InterpolatingParam id="11325" interp="linr"  time="0/1" value="0" leadInLength="0/1"  />
           <InterpolatingParam id="11326" interp="linr"  time="0/1" value="0" leadInLength="0/1"  />
           <InterpolatingParam id="11327" interp="linr"  time="0/1" value="0" leadInLength="0/1"  />
          </VectorParam>
          <VectorParam id="11328"  name="geometryCrop">
           <InterpolatingParam id="11329" interp="linr"  >
            <Keyframes>
            <Keyframe id="11330"  time="-9999999/1" value="0" leadInLength="0/1"  />
            <Keyframe id="11331"  time="78/1" value="0" leadInLength="96/1"  interpolater="leadin-linr"  />
            </Keyframes>
           </InterpolatingParam>
           <InterpolatingParam id="11332" interp="linr"  >
            <Keyframes>
            <Keyframe id="11333"  time="-9999999/1" value="0" leadInLength="0/1"  />
            <Keyframe id="11334"  time="78/1" value="0" leadInLength="96/1"  interpolater="leadin-linr"  />
            </Keyframes>
           </InterpolatingParam>
           <InterpolatingParam id="11335" interp="linr"  >
            <Keyframes>
            <Keyframe id="11336"  time="-9999999/1" value="0" leadInLength="0/1"  />
            <Keyframe id="11337"  time="78/1" value="0" leadInLength="96/1"  interpolater="leadin-linr"  />
            </Keyframes>
           </InterpolatingParam>
           <InterpolatingParam id="11338" interp="linr"  >
            <Keyframes>
            <Keyframe id="11339"  time="-9999999/1" value="0" leadInLength="0/1"  />
            <Keyframe id="11340"  time="78/1" value="0" leadInLength="96/1"  interpolater="leadin-linr"  />
            </Keyframes>
           </InterpolatingParam>
          </VectorParam>
          <InterpolatingParam id="11341" interp="linr"  name="opacity">
           <Keyframes>
           <Keyframe id="11342"  time="-9999999/1" value="1" leadInLength="0/1"  />
           <Keyframe id="11343"  time="78/1" value="1" leadInLength="96/1"  interpolater="leadin-linr"  />
           </Keyframes>
          </InterpolatingParam>
         </Parameters>
         <Attributes>
          <Attribute id="11344" value="" name="ident"/>
         </Attributes>
         <MetaData>
          <entry key="WinSubProjectDisplayName" val=""/>
         </MetaData>
         <ExtraData>
          <Entry key="ZoomPanBin">
           <ZoomPanBin id="11345"  >
            <ZoomPanKeyframes>
             <ZoomPanKeyframe id="11346" timeRangeEnd="-9999999/1" timeRangeDuration="0/1" interpolaterName="linr"  />
             <ZoomPanKeyframe id="11347" timeRangeEnd="78/1" timeRangeDuration="96/1" interpolaterName="linr"  />
            </ZoomPanKeyframes>
           </ZoomPanBin>
          </Entry>
         </ExtraData>
        </IMFile>
        <UnifiedMedia id="11348"  >
         <AudioTransition id="11349" start="5838" duration="15" >
          <Parameters>
           <InterpolatingParam id="11350" interp="linr"  time="0/1" value="1" leadInLength="0/1"  name="volume"/>
           <Parameter id="11351"  name="captions"/>
          </Parameters>
          <Effects>
           <GenericEffect id="11352" name = "AudioTransition" >
            <Parameters>
            <Parameter id="11353"   name="audioEdgeModType">
             <Keyframes>
             <Keyframe id="11354"  time="0/1" value="0" leadInLength="0/1"  />
             </Keyframes>
            </Parameter>
            <Parameter id="11355"   name="audioTransitionType">
             <Keyframes>
             <Keyframe id="11356"  time="0/1" value="" leadInLength="0/1"  />
             </Keyframes>
            </Parameter>
            </Parameters>
            <MetaData>
            </MetaData>
           </GenericEffect>
          </Effects>
          <Attributes>
           <Attribute id="11357" value="" name="ident"/>
           <Attribute id="11358" value="0" name="sampleRate"/>
           <Attribute id="11359" value="0" name="bitDepth"/>
           <Attribute id="11360" value="1" name="gain"/>
           <Attribute id="11361" value="0" name="mixToMono"/>
          </Attributes>
         </AudioTransition>
         <ImageTransition id="11362" start="5838" duration="15" >
          <Transformer>
           <VectorParam id="11363"  name="translation">
            <InterpolatingParam id="11364" interp="linr"  time="0/1" value="0" leadInLength="0/1"  />
            <InterpolatingParam id="11365" interp="linr"  time="0/1" value="0" leadInLength="0/1"  />
            <InterpolatingParam id="11366" interp="linr"  time="0/1" value="0" leadInLength="0/1"  />
           </VectorParam>
           <VectorParam id="11367"  name="rotation">
            <InterpolatingParam id="11368" interp="linr"  time="0/1" value="0" leadInLength="0/1"  />
            <InterpolatingParam id="11369" interp="linr"  time="0/1" value="0" leadInLength="0/1"  />
            <InterpolatingParam id="11370" interp="linr"  time="0/1" value="0" leadInLength="0/1"  />
           </VectorParam>
           <VectorParam id="11371"  name="shear">
            <InterpolatingParam id="11372" interp="linr"  time="0/1" value="0" leadInLength="0/1"  />
            <InterpolatingParam id="11373" interp="linr"  time="0/1" value="0" leadInLength="0/1"  />
            <InterpolatingParam id="11374" interp="linr"  time="0/1" value="0" leadInLength="0/1"  />
           </VectorParam>
           <VectorParam id="11375"  name="scale">
            <InterpolatingParam id="11376" interp="linr"  time="0/1" value="1" leadInLength="0/1"  />
            <InterpolatingParam id="11377" interp="linr"  time="0/1" value="1" leadInLength="0/1"  />
            <InterpolatingParam id="11378" interp="linr"  time="0/1" value="1" leadInLength="0/1"  />
           </VectorParam>
           <VectorParam id="11379"  name="anchor">
            <InterpolatingParam id="11380" interp="linr"  time="0/1" value="0" leadInLength="0/1"  />
            <InterpolatingParam id="11381" interp="linr"  time="0/1" value="0" leadInLength="0/1"  />
            <InterpolatingParam id="11382" interp="linr"  time="0/1" value="0" leadInLength="0/1"  />
           </VectorParam>
          </Transformer>
          <Parameters>
           <VectorParam id="11383"  name="sourceCrop">
            <InterpolatingParam id="11384" interp="linr"  time="0/1" value="0" leadInLength="0/1"  />
            <InterpolatingParam id="11385" interp="linr"  time="0/1" value="0" leadInLength="0/1"  />
            <InterpolatingParam id="11386" interp="linr"  time="0/1" value="0" leadInLength="0/1"  />
            <InterpolatingParam id="11387" interp="linr"  time="0/1" value="0" leadInLength="0/1"  />
           </VectorParam>
           <VectorParam id="11388"  name="geometryCrop">
            <InterpolatingParam id="11389" interp="linr"  time="0/1" value="0" leadInLength="0/1"  />
            <InterpolatingParam id="11390" interp="linr"  time="0/1" value="0" leadInLength="0/1"  />
            <InterpolatingParam id="11391" interp="linr"  time="0/1" value="0" leadInLength="0/1"  />
            <InterpolatingParam id="11392" interp="linr"  time="0/1" value="0" leadInLength="0/1"  />
           </VectorParam>
           <InterpolatingParam id="11393" interp="linr"  time="0/1" value="1" leadInLength="0/1"  name="opacity"/>
          </Parameters>
          <Effects>
           <GenericEffect id="11394" name = "VisualTransition" >
            <Parameters>
            <InterpolatingParam id="11395" interp="linr"  time="0/1" value="0.5" leadInLength="0/1"   name="leftFramePercentage"/>
            <InterpolatingParam id="11396" interp="linr"  time="0/1" value="0.5" leadInLength="0/1"   name="rightFramePercentage"/>
            <Parameter id="11397"   name="visualEdgeModType">
             <Keyframes>
             <Keyframe id="11398"  time="0/1" value="2" leadInLength="0/1"  />
             </Keyframes>
            </Parameter>
            <Parameter id="11399"   name="visualTransitionType">
             <Keyframes>
             <Keyframe id="11400"  time="0/1" value="Fade" leadInLength="0/1"  />
             </Keyframes>
            </Parameter>
            </Parameters>
            <MetaData>
            </MetaData>
           </GenericEffect>
          </Effects>
          <Attributes>
           <Attribute id="11401" value="" name="ident"/>
          </Attributes>
          <ExtraData>
           <Entry key="ZoomPanBin">
            <ZoomPanBin id="11402"  >
             <ZoomPanKeyframes>
             </ZoomPanKeyframes>
            </ZoomPanBin>
           </Entry>
          </ExtraData>
         </ImageTransition>
         <MetaData>
          <entry key="WinSubProjectDisplayName" val=""/>
         </MetaData>
        </UnifiedMedia>
        <IMFile id="11403" start="5853" duration="670" scalar="1/1" mediaStart="0/1" mediaDuration="1/1" trackNumber="0" src="12" trimStartSum="872/1" >
         <Transformer>
          <VectorParam id="11404"  name="translation">
           <InterpolatingParam id="11405" interp="linr"  >
            <Keyframes>
            <Keyframe id="11406"  time="-9999999/1" value="348.09160305338963" leadInLength="0/1"  />
            <Keyframe id="11407"  time="968/1" value="916.62299999999993" leadInLength="96/1"  interpolater="leadin-linr"  />
            </Keyframes>
           </InterpolatingParam>
           <InterpolatingParam id="11408" interp="linr"  >
            <Keyframes>
            <Keyframe id="11409"  time="-9999999/1" value="-2.7424257309495393e-011" leadInLength="0/1"  />
            <Keyframe id="11410"  time="968/1" value="4.0961668980579131e-011" leadInLength="96/1"  interpolater="leadin-linr"  />
            </Keyframes>
           </InterpolatingParam>
           <InterpolatingParam id="11411" interp="linr"  >
            <Keyframes>
            <Keyframe id="11412"  time="-9999999/1" value="-3.4106051316488547e-010" leadInLength="0/1"  />
            <Keyframe id="11413"  time="968/1" value="-1.0262265131648857e-009" leadInLength="96/1"  interpolater="leadin-linr"  />
            </Keyframes>
           </InterpolatingParam>
          </VectorParam>
          <VectorParam id="11414"  name="rotation">
           <InterpolatingParam id="11415" interp="linr"  >
            <Keyframes>
            <Keyframe id="11416"  time="-9999999/1" value="0" leadInLength="0/1"  />
            <Keyframe id="11417"  time="968/1" value="0" leadInLength="96/1"  interpolater="leadin-linr"  />
            </Keyframes>
           </InterpolatingParam>
           <InterpolatingParam id="11418" interp="linr"  >
            <Keyframes>
            <Keyframe id="11419"  time="-9999999/1" value="0" leadInLength="0/1"  />
            <Keyframe id="11420"  time="968/1" value="0" leadInLength="96/1"  interpolater="leadin-linr"  />
            </Keyframes>
           </InterpolatingParam>
           <InterpolatingParam id="11421" interp="linr"  >
            <Keyframes>
            <Keyframe id="11422"  time="-9999999/1" value="0" leadInLength="0/1"  />
            <Keyframe id="11423"  time="968/1" value="0" leadInLength="96/1"  interpolater="leadin-linr"  />
            </Keyframes>
           </InterpolatingParam>
          </VectorParam>
          <VectorParam id="11424"  name="shear">
           <InterpolatingParam id="11425" interp="linr"  >
            <Keyframes>
            <Keyframe id="11426"  time="-9999999/1" value="0" leadInLength="0/1"  />
            <Keyframe id="11427"  time="968/1" value="0" leadInLength="96/1"  interpolater="leadin-linr"  />
            </Keyframes>
           </InterpolatingParam>
           <InterpolatingParam id="11428" interp="linr"  >
            <Keyframes>
            <Keyframe id="11429"  time="-9999999/1" value="0" leadInLength="0/1"  />
            <Keyframe id="11430"  time="968/1" value="0" leadInLength="96/1"  interpolater="leadin-linr"  />
            </Keyframes>
           </InterpolatingParam>
           <InterpolatingParam id="11431" interp="linr"  >
            <Keyframes>
            <Keyframe id="11432"  time="-9999999/1" value="0" leadInLength="0/1"  />
            <Keyframe id="11433"  time="968/1" value="0" leadInLength="96/1"  interpolater="leadin-linr"  />
            </Keyframes>
           </InterpolatingParam>
          </VectorParam>
          <VectorParam id="11434"  name="scale">
           <InterpolatingParam id="11435" interp="linr"  >
            <Keyframes>
            <Keyframe id="11436"  time="-9999999/1" value="0.70312499999996725" leadInLength="0/1"  />
            <Keyframe id="11437"  time="968/1" value="0.703125" leadInLength="96/1"  interpolater="leadin-linr"  />
            </Keyframes>
           </InterpolatingParam>
           <InterpolatingParam id="11438" interp="linr"  >
            <Keyframes>
            <Keyframe id="11439"  time="-9999999/1" value="0.70312499999996725" leadInLength="0/1"  />
            <Keyframe id="11440"  time="968/1" value="0.703125" leadInLength="96/1"  interpolater="leadin-linr"  />
            </Keyframes>
           </InterpolatingParam>
           <InterpolatingParam id="11441" interp="linr"  >
            <Keyframes>
            <Keyframe id="11442"  time="-9999999/1" value="1" leadInLength="0/1"  />
            <Keyframe id="11443"  time="968/1" value="1" leadInLength="96/1"  interpolater="leadin-linr"  />
            </Keyframes>
           </InterpolatingParam>
          </VectorParam>
          <VectorParam id="11444"  name="anchor">
           <InterpolatingParam id="11445" interp="linr"  time="0/1" value="0" leadInLength="0/1"  />
           <InterpolatingParam id="11446" interp="linr"  time="0/1" value="0" leadInLength="0/1"  />
           <InterpolatingParam id="11447" interp="linr"  time="0/1" value="0" leadInLength="0/1"  />
          </VectorParam>
         </Transformer>
         <Parameters>
          <VectorParam id="11448"  name="sourceCrop">
           <InterpolatingParam id="11449" interp="linr"  time="0/1" value="0" leadInLength="0/1"  />
           <InterpolatingParam id="11450" interp="linr"  time="0/1" value="0" leadInLength="0/1"  />
           <InterpolatingParam id="11451" interp="linr"  time="0/1" value="0" leadInLength="0/1"  />
           <InterpolatingParam id="11452" interp="linr"  time="0/1" value="0" leadInLength="0/1"  />
          </VectorParam>
          <VectorParam id="11453"  name="geometryCrop">
           <InterpolatingParam id="11454" interp="linr"  >
            <Keyframes>
            <Keyframe id="11455"  time="-9999999/1" value="0" leadInLength="0/1"  />
            <Keyframe id="11456"  time="968/1" value="0" leadInLength="96/1"  interpolater="leadin-linr"  />
            </Keyframes>
           </InterpolatingParam>
           <InterpolatingParam id="11457" interp="linr"  >
            <Keyframes>
            <Keyframe id="11458"  time="-9999999/1" value="0" leadInLength="0/1"  />
            <Keyframe id="11459"  time="968/1" value="0" leadInLength="96/1"  interpolater="leadin-linr"  />
            </Keyframes>
           </InterpolatingParam>
           <InterpolatingParam id="11460" interp="linr"  >
            <Keyframes>
            <Keyframe id="11461"  time="-9999999/1" value="0" leadInLength="0/1"  />
            <Keyframe id="11462"  time="968/1" value="0" leadInLength="96/1"  interpolater="leadin-linr"  />
            </Keyframes>
           </InterpolatingParam>
           <InterpolatingParam id="11463" interp="linr"  >
            <Keyframes>
            <Keyframe id="11464"  time="-9999999/1" value="0" leadInLength="0/1"  />
            <Keyframe id="11465"  time="968/1" value="0" leadInLength="96/1"  interpolater="leadin-linr"  />
            </Keyframes>
           </InterpolatingParam>
          </VectorParam>
          <InterpolatingParam id="11466" interp="linr"  name="opacity">
           <Keyframes>
           <Keyframe id="11467"  time="-9999999/1" value="1" leadInLength="0/1"  />
           <Keyframe id="11468"  time="968/1" value="1" leadInLength="96/1"  interpolater="leadin-linr"  />
           </Keyframes>
          </InterpolatingParam>
         </Parameters>
         <Attributes>
          <Attribute id="11469" value="" name="ident"/>
         </Attributes>
         <MetaData>
          <entry key="WinSubProjectDisplayName" val=""/>
         </MetaData>
         <ExtraData>
          <Entry key="ZoomPanBin">
           <ZoomPanBin id="11470"  >
            <ZoomPanKeyframes>
             <ZoomPanKeyframe id="11471" timeRangeEnd="-9999999/1" timeRangeDuration="0/1" interpolaterName="linr"  />
             <ZoomPanKeyframe id="11472" timeRangeEnd="968/1" timeRangeDuration="96/1" interpolaterName="linr"  />
            </ZoomPanKeyframes>
           </ZoomPanBin>
          </Entry>
         </ExtraData>
        </IMFile>
        <UnifiedMedia id="11473"  >
         <AudioTransition id="11474" start="6523" duration="15" >
          <Parameters>
           <InterpolatingParam id="11475" interp="linr"  time="0/1" value="1" leadInLength="0/1"  name="volume"/>
           <Parameter id="11476"  name="captions"/>
          </Parameters>
          <Effects>
           <GenericEffect id="11477" name = "AudioTransition" >
            <Parameters>
            <Parameter id="11478"   name="audioEdgeModType">
             <Keyframes>
             <Keyframe id="11479"  time="0/1" value="0" leadInLength="0/1"  />
             </Keyframes>
            </Parameter>
            <Parameter id="11480"   name="audioTransitionType">
             <Keyframes>
             <Keyframe id="11481"  time="0/1" value="" leadInLength="0/1"  />
             </Keyframes>
            </Parameter>
            </Parameters>
            <MetaData>
            </MetaData>
           </GenericEffect>
          </Effects>
          <Attributes>
           <Attribute id="11482" value="" name="ident"/>
           <Attribute id="11483" value="0" name="sampleRate"/>
           <Attribute id="11484" value="0" name="bitDepth"/>
           <Attribute id="11485" value="1" name="gain"/>
           <Attribute id="11486" value="0" name="mixToMono"/>
          </Attributes>
         </AudioTransition>
         <ImageTransition id="11487" start="6523" duration="15" >
          <Transformer>
           <VectorParam id="11488"  name="translation">
            <InterpolatingParam id="11489" interp="linr"  time="0/1" value="0" leadInLength="0/1"  />
            <InterpolatingParam id="11490" interp="linr"  time="0/1" value="0" leadInLength="0/1"  />
            <InterpolatingParam id="11491" interp="linr"  time="0/1" value="0" leadInLength="0/1"  />
           </VectorParam>
           <VectorParam id="11492"  name="rotation">
            <InterpolatingParam id="11493" interp="linr"  time="0/1" value="0" leadInLength="0/1"  />
            <InterpolatingParam id="11494" interp="linr"  time="0/1" value="0" leadInLength="0/1"  />
            <InterpolatingParam id="11495" interp="linr"  time="0/1" value="0" leadInLength="0/1"  />
           </VectorParam>
           <VectorParam id="11496"  name="shear">
            <InterpolatingParam id="11497" interp="linr"  time="0/1" value="0" leadInLength="0/1"  />
            <InterpolatingParam id="11498" interp="linr"  time="0/1" value="0" leadInLength="0/1"  />
            <InterpolatingParam id="11499" interp="linr"  time="0/1" value="0" leadInLength="0/1"  />
           </VectorParam>
           <VectorParam id="11500"  name="scale">
            <InterpolatingParam id="11501" interp="linr"  time="0/1" value="1" leadInLength="0/1"  />
            <InterpolatingParam id="11502" interp="linr"  time="0/1" value="1" leadInLength="0/1"  />
            <InterpolatingParam id="11503" interp="linr"  time="0/1" value="1" leadInLength="0/1"  />
           </VectorParam>
           <VectorParam id="11504"  name="anchor">
            <InterpolatingParam id="11505" interp="linr"  time="0/1" value="0" leadInLength="0/1"  />
            <InterpolatingParam id="11506" interp="linr"  time="0/1" value="0" leadInLength="0/1"  />
            <InterpolatingParam id="11507" interp="linr"  time="0/1" value="0" leadInLength="0/1"  />
           </VectorParam>
          </Transformer>
          <Parameters>
           <VectorParam id="11508"  name="sourceCrop">
            <InterpolatingParam id="11509" interp="linr"  time="0/1" value="0" leadInLength="0/1"  />
            <InterpolatingParam id="11510" interp="linr"  time="0/1" value="0" leadInLength="0/1"  />
            <InterpolatingParam id="11511" interp="linr"  time="0/1" value="0" leadInLength="0/1"  />
            <InterpolatingParam id="11512" interp="linr"  time="0/1" value="0" leadInLength="0/1"  />
           </VectorParam>
           <VectorParam id="11513"  name="geometryCrop">
            <InterpolatingParam id="11514" interp="linr"  time="0/1" value="0" leadInLength="0/1"  />
            <InterpolatingParam id="11515" interp="linr"  time="0/1" value="0" leadInLength="0/1"  />
            <InterpolatingParam id="11516" interp="linr"  time="0/1" value="0" leadInLength="0/1"  />
            <InterpolatingParam id="11517" interp="linr"  time="0/1" value="0" leadInLength="0/1"  />
           </VectorParam>
           <InterpolatingParam id="11518" interp="linr"  time="0/1" value="1" leadInLength="0/1"  name="opacity"/>
          </Parameters>
          <Effects>
           <GenericEffect id="11519" name = "VisualTransition" >
            <Parameters>
            <InterpolatingParam id="11520" interp="linr"  time="0/1" value="0.5" leadInLength="0/1"   name="leftFramePercentage"/>
            <InterpolatingParam id="11521" interp="linr"  time="0/1" value="0.5" leadInLength="0/1"   name="rightFramePercentage"/>
            <Parameter id="11522"   name="visualEdgeModType">
             <Keyframes>
             <Keyframe id="11523"  time="0/1" value="2" leadInLength="0/1"  />
             </Keyframes>
            </Parameter>
            <Parameter id="11524"   name="visualTransitionType">
             <Keyframes>
             <Keyframe id="11525"  time="0/1" value="Fade" leadInLength="0/1"  />
             </Keyframes>
            </Parameter>
            </Parameters>
            <MetaData>
            </MetaData>
           </GenericEffect>
          </Effects>
          <Attributes>
           <Attribute id="11526" value="" name="ident"/>
          </Attributes>
          <ExtraData>
           <Entry key="ZoomPanBin">
            <ZoomPanBin id="11527"  >
             <ZoomPanKeyframes>
             </ZoomPanKeyframes>
            </ZoomPanBin>
           </Entry>
          </ExtraData>
         </ImageTransition>
         <MetaData>
          <entry key="WinSubProjectDisplayName" val=""/>
         </MetaData>
        </UnifiedMedia>
       </Medias>
      </GenericTrack>
      <GenericTrack id="11528"  >
       <Attributes>
        <Attribute id="11529" value="" name="ident"/>
        <Attribute id="11530" value="0" name="audioMuted"/>
        <Attribute id="11531" value="0" name="videoHidden"/>
       </Attributes>
       <MetaData>
        <entry key="IsLocked" val="False"/>
        <entry key="WinTrackHeight" val="62"/>
       </MetaData>
       <Medias>
        <UnifiedMedia id="11532"  >
         <AudioTransition id="11533" start="3347" duration="38" >
          <Parameters>
           <InterpolatingParam id="11534" interp="linr"  time="0/1" value="1" leadInLength="0/1"  name="volume"/>
           <Parameter id="11535"  name="captions"/>
          </Parameters>
          <Effects>
           <GenericEffect id="11536" name = "AudioTransition" >
            <Parameters>
            <Parameter id="11537"   name="audioEdgeModType">
             <Keyframes>
             <Keyframe id="11538"  time="0/1" value="0" leadInLength="0/1"  />
             </Keyframes>
            </Parameter>
            <Parameter id="11539"   name="audioTransitionType">
             <Keyframes>
             <Keyframe id="11540"  time="0/1" value="" leadInLength="0/1"  />
             </Keyframes>
            </Parameter>
            </Parameters>
            <MetaData>
            </MetaData>
           </GenericEffect>
          </Effects>
          <Attributes>
           <Attribute id="11541" value="" name="ident"/>
           <Attribute id="11542" value="0" name="sampleRate"/>
           <Attribute id="11543" value="0" name="bitDepth"/>
           <Attribute id="11544" value="1" name="gain"/>
           <Attribute id="11545" value="0" name="mixToMono"/>
          </Attributes>
         </AudioTransition>
         <ImageTransition id="11546" start="3347" duration="38" >
          <Transformer>
           <VectorParam id="11547"  name="translation">
            <InterpolatingParam id="11548" interp="linr"  time="0/1" value="0" leadInLength="0/1"  />
            <InterpolatingParam id="11549" interp="linr"  time="0/1" value="0" leadInLength="0/1"  />
            <InterpolatingParam id="11550" interp="linr"  time="0/1" value="0" leadInLength="0/1"  />
           </VectorParam>
           <VectorParam id="11551"  name="rotation">
            <InterpolatingParam id="11552" interp="linr"  time="0/1" value="0" leadInLength="0/1"  />
            <InterpolatingParam id="11553" interp="linr"  time="0/1" value="0" leadInLength="0/1"  />
            <InterpolatingParam id="11554" interp="linr"  time="0/1" value="0" leadInLength="0/1"  />
           </VectorParam>
           <VectorParam id="11555"  name="shear">
            <InterpolatingParam id="11556" interp="linr"  time="0/1" value="0" leadInLength="0/1"  />
            <InterpolatingParam id="11557" interp="linr"  time="0/1" value="0" leadInLength="0/1"  />
            <InterpolatingParam id="11558" interp="linr"  time="0/1" value="0" leadInLength="0/1"  />
           </VectorParam>
           <VectorParam id="11559"  name="scale">
            <InterpolatingParam id="11560" interp="linr"  time="0/1" value="1" leadInLength="0/1"  />
            <InterpolatingParam id="11561" interp="linr"  time="0/1" value="1" leadInLength="0/1"  />
            <InterpolatingParam id="11562" interp="linr"  time="0/1" value="1" leadInLength="0/1"  />
           </VectorParam>
           <VectorParam id="11563"  name="anchor">
            <InterpolatingParam id="11564" interp="linr"  time="0/1" value="0" leadInLength="0/1"  />
            <InterpolatingParam id="11565" interp="linr"  time="0/1" value="0" leadInLength="0/1"  />
            <InterpolatingParam id="11566" interp="linr"  time="0/1" value="0" leadInLength="0/1"  />
           </VectorParam>
          </Transformer>
          <Parameters>
           <VectorParam id="11567"  name="sourceCrop">
            <InterpolatingParam id="11568" interp="linr"  time="0/1" value="0" leadInLength="0/1"  />
            <InterpolatingParam id="11569" interp="linr"  time="0/1" value="0" leadInLength="0/1"  />
            <InterpolatingParam id="11570" interp="linr"  time="0/1" value="0" leadInLength="0/1"  />
            <InterpolatingParam id="11571" interp="linr"  time="0/1" value="0" leadInLength="0/1"  />
           </VectorParam>
           <VectorParam id="11572"  name="geometryCrop">
            <InterpolatingParam id="11573" interp="linr"  time="0/1" value="0" leadInLength="0/1"  />
            <InterpolatingParam id="11574" interp="linr"  time="0/1" value="0" leadInLength="0/1"  />
            <InterpolatingParam id="11575" interp="linr"  time="0/1" value="0" leadInLength="0/1"  />
            <InterpolatingParam id="11576" interp="linr"  time="0/1" value="0" leadInLength="0/1"  />
           </VectorParam>
           <InterpolatingParam id="11577" interp="linr"  time="0/1" value="1" leadInLength="0/1"  name="opacity"/>
          </Parameters>
          <Effects>
           <GenericEffect id="11578" name = "VisualTransition" >
            <Parameters>
            <InterpolatingParam id="11579" interp="linr"  time="0/1" value="0.5" leadInLength="0/1"   name="leftFramePercentage"/>
            <InterpolatingParam id="11580" interp="linr"  time="0/1" value="0.5" leadInLength="0/1"   name="rightFramePercentage"/>
            <Parameter id="11581"   name="visualEdgeModType">
             <Keyframes>
             <Keyframe id="11582"  time="0/1" value="1" leadInLength="0/1"  />
             </Keyframes>
            </Parameter>
            <Parameter id="11583"   name="visualTransitionType">
             <Keyframes>
             <Keyframe id="11584"  time="0/1" value="CheckerBoard" leadInLength="0/1"  />
             </Keyframes>
            </Parameter>
            </Parameters>
            <MetaData>
            </MetaData>
           </GenericEffect>
          </Effects>
          <Attributes>
           <Attribute id="11585" value="" name="ident"/>
          </Attributes>
          <ExtraData>
           <Entry key="ZoomPanBin">
            <ZoomPanBin id="11586"  >
             <ZoomPanKeyframes>
             </ZoomPanKeyframes>
            </ZoomPanBin>
           </Entry>
          </ExtraData>
         </ImageTransition>
         <MetaData>
          <entry key="WinSubProjectDisplayName" val=""/>
         </MetaData>
        </UnifiedMedia>
        <IMFile id="11587" start="3385" duration="623" scalar="1/1" mediaStart="0/1" mediaDuration="1/1" trackNumber="0" src="12" trimStartSum="38/1" >
         <Transformer>
          <VectorParam id="11588"  name="translation">
           <InterpolatingParam id="11589" interp="linr"  >
            <Keyframes>
            <Keyframe id="11590"  time="-9999999/1" value="360.00000000015257" leadInLength="0/1"  />
            <Keyframe id="11591"  time="189/1" value="677.45161290325291" leadInLength="96/1"  interpolater="leadin-linr"  />
            </Keyframes>
           </InterpolatingParam>
           <InterpolatingParam id="11592" interp="linr"  >
            <Keyframes>
            <Keyframe id="11593"  time="-9999999/1" value="8.7851503849378787e-011" leadInLength="0/1"  />
            <Keyframe id="11594"  time="189/1" value="52.54838709702905" leadInLength="96/1"  interpolater="leadin-linr"  />
            </Keyframes>
           </InterpolatingParam>
           <InterpolatingParam id="11595" interp="linr"  >
            <Keyframes>
            <Keyframe id="11596"  time="-9999999/1" value="0" leadInLength="0/1"  />
            <Keyframe id="11597"  time="189/1" value="0" leadInLength="96/1"  interpolater="leadin-linr"  />
            </Keyframes>
           </InterpolatingParam>
          </VectorParam>
          <VectorParam id="11598"  name="rotation">
           <InterpolatingParam id="11599" interp="linr"  >
            <Keyframes>
            <Keyframe id="11600"  time="-9999999/1" value="0" leadInLength="0/1"  />
            <Keyframe id="11601"  time="189/1" value="0" leadInLength="96/1"  interpolater="leadin-linr"  />
            </Keyframes>
           </InterpolatingParam>
           <InterpolatingParam id="11602" interp="linr"  >
            <Keyframes>
            <Keyframe id="11603"  time="-9999999/1" value="0" leadInLength="0/1"  />
            <Keyframe id="11604"  time="189/1" value="0" leadInLength="96/1"  interpolater="leadin-linr"  />
            </Keyframes>
           </InterpolatingParam>
           <InterpolatingParam id="11605" interp="linr"  >
            <Keyframes>
            <Keyframe id="11606"  time="-9999999/1" value="0" leadInLength="0/1"  />
            <Keyframe id="11607"  time="189/1" value="0" leadInLength="96/1"  interpolater="leadin-linr"  />
            </Keyframes>
           </InterpolatingParam>
          </VectorParam>
          <VectorParam id="11608"  name="shear">
           <InterpolatingParam id="11609" interp="linr"  >
            <Keyframes>
            <Keyframe id="11610"  time="-9999999/1" value="0" leadInLength="0/1"  />
            <Keyframe id="11611"  time="189/1" value="0" leadInLength="96/1"  interpolater="leadin-linr"  />
            </Keyframes>
           </InterpolatingParam>
           <InterpolatingParam id="11612" interp="linr"  >
            <Keyframes>
            <Keyframe id="11613"  time="-9999999/1" value="0" leadInLength="0/1"  />
            <Keyframe id="11614"  time="189/1" value="0" leadInLength="96/1"  interpolater="leadin-linr"  />
            </Keyframes>
           </InterpolatingParam>
           <InterpolatingParam id="11615" interp="linr"  >
            <Keyframes>
            <Keyframe id="11616"  time="-9999999/1" value="0" leadInLength="0/1"  />
            <Keyframe id="11617"  time="189/1" value="0" leadInLength="96/1"  interpolater="leadin-linr"  />
            </Keyframes>
           </InterpolatingParam>
          </VectorParam>
          <VectorParam id="11618"  name="scale">
           <InterpolatingParam id="11619" interp="linr"  >
            <Keyframes>
            <Keyframe id="11620"  time="-9999999/1" value="0.70312500000033928" leadInLength="0/1"  />
            <Keyframe id="11621"  time="189/1" value="0.80966481854878547" leadInLength="96/1"  interpolater="leadin-linr"  />
            </Keyframes>
           </InterpolatingParam>
           <InterpolatingParam id="11622" interp="linr"  >
            <Keyframes>
            <Keyframe id="11623"  time="-9999999/1" value="0.70312500000033928" leadInLength="0/1"  />
            <Keyframe id="11624"  time="189/1" value="0.80966481854878547" leadInLength="96/1"  interpolater="leadin-linr"  />
            </Keyframes>
           </InterpolatingParam>
           <InterpolatingParam id="11625" interp="linr"  >
            <Keyframes>
            <Keyframe id="11626"  time="-9999999/1" value="1" leadInLength="0/1"  />
            <Keyframe id="11627"  time="189/1" value="1" leadInLength="96/1"  interpolater="leadin-linr"  />
            </Keyframes>
           </InterpolatingParam>
          </VectorParam>
          <VectorParam id="11628"  name="anchor">
           <InterpolatingParam id="11629" interp="linr"  time="0/1" value="0" leadInLength="0/1"  />
           <InterpolatingParam id="11630" interp="linr"  time="0/1" value="0" leadInLength="0/1"  />
           <InterpolatingParam id="11631" interp="linr"  time="0/1" value="0" leadInLength="0/1"  />
          </VectorParam>
         </Transformer>
         <Parameters>
          <VectorParam id="11632"  name="sourceCrop">
           <InterpolatingParam id="11633" interp="linr"  time="0/1" value="0" leadInLength="0/1"  />
           <InterpolatingParam id="11634" interp="linr"  time="0/1" value="0" leadInLength="0/1"  />
           <InterpolatingParam id="11635" interp="linr"  time="0/1" value="0" leadInLength="0/1"  />
           <InterpolatingParam id="11636" interp="linr"  time="0/1" value="0" leadInLength="0/1"  />
          </VectorParam>
          <VectorParam id="11637"  name="geometryCrop">
           <InterpolatingParam id="11638" interp="linr"  >
            <Keyframes>
            <Keyframe id="11639"  time="-9999999/1" value="0" leadInLength="0/1"  />
            <Keyframe id="11640"  time="189/1" value="0" leadInLength="96/1"  interpolater="leadin-linr"  />
            </Keyframes>
           </InterpolatingParam>
           <InterpolatingParam id="11641" interp="linr"  >
            <Keyframes>
            <Keyframe id="11642"  time="-9999999/1" value="0" leadInLength="0/1"  />
            <Keyframe id="11643"  time="189/1" value="0" leadInLength="96/1"  interpolater="leadin-linr"  />
            </Keyframes>
           </InterpolatingParam>
           <InterpolatingParam id="11644" interp="linr"  >
            <Keyframes>
            <Keyframe id="11645"  time="-9999999/1" value="0" leadInLength="0/1"  />
            <Keyframe id="11646"  time="189/1" value="0" leadInLength="96/1"  interpolater="leadin-linr"  />
            </Keyframes>
           </InterpolatingParam>
           <InterpolatingParam id="11647" interp="linr"  >
            <Keyframes>
            <Keyframe id="11648"  time="-9999999/1" value="0" leadInLength="0/1"  />
            <Keyframe id="11649"  time="189/1" value="0" leadInLength="96/1"  interpolater="leadin-linr"  />
            </Keyframes>
           </InterpolatingParam>
          </VectorParam>
          <InterpolatingParam id="11650" interp="linr"  name="opacity">
           <Keyframes>
           <Keyframe id="11651"  time="-9999999/1" value="1" leadInLength="0/1"  />
           <Keyframe id="11652"  time="189/1" value="1" leadInLength="96/1"  interpolater="leadin-linr"  />
           </Keyframes>
          </InterpolatingParam>
         </Parameters>
         <Attributes>
          <Attribute id="11653" value="" name="ident"/>
         </Attributes>
         <MetaData>
          <entry key="WinSubProjectDisplayName" val=""/>
         </MetaData>
         <ExtraData>
          <Entry key="ZoomPanBin">
           <ZoomPanBin id="11654"  >
            <ZoomPanKeyframes>
             <ZoomPanKeyframe id="11655" timeRangeEnd="-9999999/1" timeRangeDuration="0/1" interpolaterName="linr"  />
             <ZoomPanKeyframe id="11656" timeRangeEnd="189/1" timeRangeDuration="96/1" interpolaterName="linr"  />
            </ZoomPanKeyframes>
           </ZoomPanBin>
          </Entry>
         </ExtraData>
        </IMFile>
        <UnifiedMedia id="11657"  >
         <AudioTransition id="11658" start="4253" duration="27" >
          <Parameters>
           <InterpolatingParam id="11659" interp="linr"  time="0/1" value="1" leadInLength="0/1"  name="volume"/>
           <Parameter id="11660"  name="captions"/>
          </Parameters>
          <Effects>
           <GenericEffect id="11661" name = "AudioTransition" >
            <Parameters>
            <Parameter id="11662"   name="audioEdgeModType">
             <Keyframes>
             <Keyframe id="11663"  time="0/1" value="0" leadInLength="0/1"  />
             </Keyframes>
            </Parameter>
            <Parameter id="11664"   name="audioTransitionType">
             <Keyframes>
             <Keyframe id="11665"  time="0/1" value="" leadInLength="0/1"  />
             </Keyframes>
            </Parameter>
            </Parameters>
            <MetaData>
            </MetaData>
           </GenericEffect>
          </Effects>
          <Attributes>
           <Attribute id="11666" value="" name="ident"/>
           <Attribute id="11667" value="0" name="sampleRate"/>
           <Attribute id="11668" value="0" name="bitDepth"/>
           <Attribute id="11669" value="1" name="gain"/>
           <Attribute id="11670" value="0" name="mixToMono"/>
          </Attributes>
         </AudioTransition>
         <ImageTransition id="11671" start="4253" duration="27" >
          <Transformer>
           <VectorParam id="11672"  name="translation">
            <InterpolatingParam id="11673" interp="linr"  time="0/1" value="0" leadInLength="0/1"  />
            <InterpolatingParam id="11674" interp="linr"  time="0/1" value="0" leadInLength="0/1"  />
            <InterpolatingParam id="11675" interp="linr"  time="0/1" value="0" leadInLength="0/1"  />
           </VectorParam>
           <VectorParam id="11676"  name="rotation">
            <InterpolatingParam id="11677" interp="linr"  time="0/1" value="0" leadInLength="0/1"  />
            <InterpolatingParam id="11678" interp="linr"  time="0/1" value="0" leadInLength="0/1"  />
            <InterpolatingParam id="11679" interp="linr"  time="0/1" value="0" leadInLength="0/1"  />
           </VectorParam>
           <VectorParam id="11680"  name="shear">
            <InterpolatingParam id="11681" interp="linr"  time="0/1" value="0" leadInLength="0/1"  />
            <InterpolatingParam id="11682" interp="linr"  time="0/1" value="0" leadInLength="0/1"  />
            <InterpolatingParam id="11683" interp="linr"  time="0/1" value="0" leadInLength="0/1"  />
           </VectorParam>
           <VectorParam id="11684"  name="scale">
            <InterpolatingParam id="11685" interp="linr"  time="0/1" value="1" leadInLength="0/1"  />
            <InterpolatingParam id="11686" interp="linr"  time="0/1" value="1" leadInLength="0/1"  />
            <InterpolatingParam id="11687" interp="linr"  time="0/1" value="1" leadInLength="0/1"  />
           </VectorParam>
           <VectorParam id="11688"  name="anchor">
            <InterpolatingParam id="11689" interp="linr"  time="0/1" value="0" leadInLength="0/1"  />
            <InterpolatingParam id="11690" interp="linr"  time="0/1" value="0" leadInLength="0/1"  />
            <InterpolatingParam id="11691" interp="linr"  time="0/1" value="0" leadInLength="0/1"  />
           </VectorParam>
          </Transformer>
          <Parameters>
           <VectorParam id="11692"  name="sourceCrop">
            <InterpolatingParam id="11693" interp="linr"  time="0/1" value="0" leadInLength="0/1"  />
            <InterpolatingParam id="11694" interp="linr"  time="0/1" value="0" leadInLength="0/1"  />
            <InterpolatingParam id="11695" interp="linr"  time="0/1" value="0" leadInLength="0/1"  />
            <InterpolatingParam id="11696" interp="linr"  time="0/1" value="0" leadInLength="0/1"  />
           </VectorParam>
           <VectorParam id="11697"  name="geometryCrop">
            <InterpolatingParam id="11698" interp="linr"  time="0/1" value="0" leadInLength="0/1"  />
            <InterpolatingParam id="11699" interp="linr"  time="0/1" value="0" leadInLength="0/1"  />
            <InterpolatingParam id="11700" interp="linr"  time="0/1" value="0" leadInLength="0/1"  />
            <InterpolatingParam id="11701" interp="linr"  time="0/1" value="0" leadInLength="0/1"  />
           </VectorParam>
           <InterpolatingParam id="11702" interp="linr"  time="0/1" value="1" leadInLength="0/1"  name="opacity"/>
          </Parameters>
          <Effects>
           <GenericEffect id="11703" name = "VisualTransition" >
            <Parameters>
            <InterpolatingParam id="11704" interp="linr"  time="0/1" value="0.5" leadInLength="0/1"   name="leftFramePercentage"/>
            <InterpolatingParam id="11705" interp="linr"  time="0/1" value="0.5" leadInLength="0/1"   name="rightFramePercentage"/>
            <Parameter id="11706"   name="visualEdgeModType">
             <Keyframes>
             <Keyframe id="11707"  time="0/1" value="1" leadInLength="0/1"  />
             </Keyframes>
            </Parameter>
            <Parameter id="11708"   name="visualTransitionType">
             <Keyframes>
             <Keyframe id="11709"  time="0/1" value="RadialBlur" leadInLength="0/1"  />
             </Keyframes>
            </Parameter>
            </Parameters>
            <MetaData>
            </MetaData>
           </GenericEffect>
          </Effects>
          <Attributes>
           <Attribute id="11710" value="" name="ident"/>
          </Attributes>
          <ExtraData>
           <Entry key="ZoomPanBin">
            <ZoomPanBin id="11711"  >
             <ZoomPanKeyframes>
             </ZoomPanKeyframes>
            </ZoomPanBin>
           </Entry>
          </ExtraData>
         </ImageTransition>
         <MetaData>
          <entry key="WinSubProjectDisplayName" val=""/>
         </MetaData>
        </UnifiedMedia>
        <IMFile id="11712" start="4280" duration="184" scalar="1/1" mediaStart="0/1" mediaDuration="1/1" trackNumber="0" src="14" trimStartSum="12/1" >
         <Transformer>
          <VectorParam id="11713"  name="translation">
           <InterpolatingParam id="11714" interp="linr"  time="-9999999/1" value="361.6666666667208" leadInLength="0/1"  />
           <InterpolatingParam id="11715" interp="linr"  time="-9999999/1" value="1.6666666669992338" leadInLength="0/1"  />
           <InterpolatingParam id="11716" interp="linr"  time="-9999999/1" value="0" leadInLength="0/1"  />
          </VectorParam>
          <VectorParam id="11717"  name="rotation">
           <InterpolatingParam id="11718" interp="linr"  time="-9999999/1" value="0" leadInLength="0/1"  />
           <InterpolatingParam id="11719" interp="linr"  time="-9999999/1" value="0" leadInLength="0/1"  />
           <InterpolatingParam id="11720" interp="linr"  time="-9999999/1" value="0" leadInLength="0/1"  />
          </VectorParam>
          <VectorParam id="11721"  name="shear">
           <InterpolatingParam id="11722" interp="linr"  time="-9999999/1" value="0" leadInLength="0/1"  />
           <InterpolatingParam id="11723" interp="linr"  time="-9999999/1" value="0" leadInLength="0/1"  />
           <InterpolatingParam id="11724" interp="linr"  time="-9999999/1" value="0" leadInLength="0/1"  />
          </VectorParam>
          <VectorParam id="11725"  name="scale">
           <InterpolatingParam id="11726" interp="linr"  time="-9999999/1" value="0.70638020833348081" leadInLength="0/1"  />
           <InterpolatingParam id="11727" interp="linr"  time="-9999999/1" value="0.70638020833348081" leadInLength="0/1"  />
           <InterpolatingParam id="11728" interp="linr"  time="-9999999/1" value="1" leadInLength="0/1"  />
          </VectorParam>
          <VectorParam id="11729"  name="anchor">
           <InterpolatingParam id="11730" interp="linr"  time="0/1" value="0" leadInLength="0/1"  />
           <InterpolatingParam id="11731" interp="linr"  time="0/1" value="0" leadInLength="0/1"  />
           <InterpolatingParam id="11732" interp="linr"  time="0/1" value="0" leadInLength="0/1"  />
          </VectorParam>
         </Transformer>
         <Parameters>
          <VectorParam id="11733"  name="sourceCrop">
           <InterpolatingParam id="11734" interp="linr"  time="0/1" value="0" leadInLength="0/1"  />
           <InterpolatingParam id="11735" interp="linr"  time="0/1" value="0" leadInLength="0/1"  />
           <InterpolatingParam id="11736" interp="linr"  time="0/1" value="0" leadInLength="0/1"  />
           <InterpolatingParam id="11737" interp="linr"  time="0/1" value="0" leadInLength="0/1"  />
          </VectorParam>
          <VectorParam id="11738"  name="geometryCrop">
           <InterpolatingParam id="11739" interp="linr"  time="-9999999/1" value="0" leadInLength="0/1"  />
           <InterpolatingParam id="11740" interp="linr"  time="-9999999/1" value="0" leadInLength="0/1"  />
           <InterpolatingParam id="11741" interp="linr"  time="-9999999/1" value="0" leadInLength="0/1"  />
           <InterpolatingParam id="11742" interp="linr"  time="-9999999/1" value="0" leadInLength="0/1"  />
          </VectorParam>
          <InterpolatingParam id="11743" interp="linr"  time="-9999999/1" value="1" leadInLength="0/1"  name="opacity"/>
         </Parameters>
         <Attributes>
          <Attribute id="11744" value="" name="ident"/>
         </Attributes>
         <MetaData>
          <entry key="WinSubProjectDisplayName" val=""/>
         </MetaData>
         <ExtraData>
          <Entry key="ZoomPanBin">
           <ZoomPanBin id="11745"  >
            <ZoomPanKeyframes>
             <ZoomPanKeyframe id="11746" timeRangeEnd="-9999999/1" timeRangeDuration="0/1" interpolaterName="linr"  />
            </ZoomPanKeyframes>
           </ZoomPanBin>
          </Entry>
         </ExtraData>
        </IMFile>
        <UnifiedMedia id="11747"  >
         <AudioTransition id="11748" start="4581" duration="45" >
          <Parameters>
           <InterpolatingParam id="11749" interp="linr"  time="0/1" value="1" leadInLength="0/1"  name="volume"/>
           <Parameter id="11750"  name="captions"/>
          </Parameters>
          <Effects>
           <GenericEffect id="11751" name = "AudioTransition" >
            <Parameters>
            <Parameter id="11752"   name="audioEdgeModType">
             <Keyframes>
             <Keyframe id="11753"  time="0/1" value="0" leadInLength="0/1"  />
             </Keyframes>
            </Parameter>
            <Parameter id="11754"   name="audioTransitionType">
             <Keyframes>
             <Keyframe id="11755"  time="0/1" value="" leadInLength="0/1"  />
             </Keyframes>
            </Parameter>
            </Parameters>
            <MetaData>
            </MetaData>
           </GenericEffect>
          </Effects>
          <Attributes>
           <Attribute id="11756" value="" name="ident"/>
           <Attribute id="11757" value="0" name="sampleRate"/>
           <Attribute id="11758" value="0" name="bitDepth"/>
           <Attribute id="11759" value="1" name="gain"/>
           <Attribute id="11760" value="0" name="mixToMono"/>
          </Attributes>
         </AudioTransition>
         <ImageTransition id="11761" start="4581" duration="45" >
          <Transformer>
           <VectorParam id="11762"  name="translation">
            <InterpolatingParam id="11763" interp="linr"  time="0/1" value="0" leadInLength="0/1"  />
            <InterpolatingParam id="11764" interp="linr"  time="0/1" value="0" leadInLength="0/1"  />
            <InterpolatingParam id="11765" interp="linr"  time="0/1" value="0" leadInLength="0/1"  />
           </VectorParam>
           <VectorParam id="11766"  name="rotation">
            <InterpolatingParam id="11767" interp="linr"  time="0/1" value="0" leadInLength="0/1"  />
            <InterpolatingParam id="11768" interp="linr"  time="0/1" value="0" leadInLength="0/1"  />
            <InterpolatingParam id="11769" interp="linr"  time="0/1" value="0" leadInLength="0/1"  />
           </VectorParam>
           <VectorParam id="11770"  name="shear">
            <InterpolatingParam id="11771" interp="linr"  time="0/1" value="0" leadInLength="0/1"  />
            <InterpolatingParam id="11772" interp="linr"  time="0/1" value="0" leadInLength="0/1"  />
            <InterpolatingParam id="11773" interp="linr"  time="0/1" value="0" leadInLength="0/1"  />
           </VectorParam>
           <VectorParam id="11774"  name="scale">
            <InterpolatingParam id="11775" interp="linr"  time="0/1" value="1" leadInLength="0/1"  />
            <InterpolatingParam id="11776" interp="linr"  time="0/1" value="1" leadInLength="0/1"  />
            <InterpolatingParam id="11777" interp="linr"  time="0/1" value="1" leadInLength="0/1"  />
           </VectorParam>
           <VectorParam id="11778"  name="anchor">
            <InterpolatingParam id="11779" interp="linr"  time="0/1" value="0" leadInLength="0/1"  />
            <InterpolatingParam id="11780" interp="linr"  time="0/1" value="0" leadInLength="0/1"  />
            <InterpolatingParam id="11781" interp="linr"  time="0/1" value="0" leadInLength="0/1"  />
           </VectorParam>
          </Transformer>
          <Parameters>
           <VectorParam id="11782"  name="sourceCrop">
            <InterpolatingParam id="11783" interp="linr"  time="0/1" value="0" leadInLength="0/1"  />
            <InterpolatingParam id="11784" interp="linr"  time="0/1" value="0" leadInLength="0/1"  />
            <InterpolatingParam id="11785" interp="linr"  time="0/1" value="0" leadInLength="0/1"  />
            <InterpolatingParam id="11786" interp="linr"  time="0/1" value="0" leadInLength="0/1"  />
           </VectorParam>
           <VectorParam id="11787"  name="geometryCrop">
            <InterpolatingParam id="11788" interp="linr"  time="0/1" value="0" leadInLength="0/1"  />
            <InterpolatingParam id="11789" interp="linr"  time="0/1" value="0" leadInLength="0/1"  />
            <InterpolatingParam id="11790" interp="linr"  time="0/1" value="0" leadInLength="0/1"  />
            <InterpolatingParam id="11791" interp="linr"  time="0/1" value="0" leadInLength="0/1"  />
           </VectorParam>
           <InterpolatingParam id="11792" interp="linr"  time="0/1" value="1" leadInLength="0/1"  name="opacity"/>
          </Parameters>
          <Effects>
           <GenericEffect id="11793" name = "VisualTransition" >
            <Parameters>
            <InterpolatingParam id="11794" interp="linr"  time="0/1" value="0.5" leadInLength="0/1"   name="leftFramePercentage"/>
            <InterpolatingParam id="11795" interp="linr"  time="0/1" value="0.5" leadInLength="0/1"   name="rightFramePercentage"/>
            <Parameter id="11796"   name="visualEdgeModType">
             <Keyframes>
             <Keyframe id="11797"  time="0/1" value="1" leadInLength="0/1"  />
             </Keyframes>
            </Parameter>
            <Parameter id="11798"   name="visualTransitionType">
             <Keyframes>
             <Keyframe id="11799"  time="0/1" value="RandomDissolve" leadInLength="0/1"  />
             </Keyframes>
            </Parameter>
            </Parameters>
            <MetaData>
            </MetaData>
           </GenericEffect>
          </Effects>
          <Attributes>
           <Attribute id="11800" value="" name="ident"/>
          </Attributes>
          <ExtraData>
           <Entry key="ZoomPanBin">
            <ZoomPanBin id="11801"  >
             <ZoomPanKeyframes>
             </ZoomPanKeyframes>
            </ZoomPanBin>
           </Entry>
          </ExtraData>
         </ImageTransition>
         <MetaData>
          <entry key="WinSubProjectDisplayName" val=""/>
         </MetaData>
        </UnifiedMedia>
        <IMFile id="11802" start="4626" duration="300" scalar="1/1" mediaStart="0/1" mediaDuration="1/1" trackNumber="0" src="6" trimStartSum="63/1" >
         <Transformer>
          <VectorParam id="11803"  name="translation">
           <InterpolatingParam id="11804" interp="linr"  >
            <Keyframes>
            <Keyframe id="11805"  time="-9999999/1" value="521.42857142938681" leadInLength="0/1"  />
            <Keyframe id="11806"  time="357/1" value="362.00000000016877" leadInLength="60/1"  interpolater="leadin-linr"  />
            <Keyframe id="11807"  time="460/1" value="1274.7194878408757" leadInLength="10/1"  interpolater="leadin-linr"  />
            </Keyframes>
           </InterpolatingParam>
           <InterpolatingParam id="11808" interp="linr"  >
            <Keyframes>
            <Keyframe id="11809"  time="-9999999/1" value="-1.6666666666238461" leadInLength="0/1"  />
            <Keyframe id="11810"  time="357/1" value="-1.9999999998030056" leadInLength="60/1"  interpolater="leadin-linr"  />
            <Keyframe id="11811"  time="460/1" value="-281.90327473946309" leadInLength="10/1"  interpolater="leadin-linr"  />
            </Keyframes>
           </InterpolatingParam>
           <InterpolatingParam id="11812" interp="linr"  >
            <Keyframes>
            <Keyframe id="11813"  time="-9999999/1" value="-3.4106051316482886e-010" leadInLength="0/1"  />
            <Keyframe id="11814"  time="357/1" value="3.380153300116278e-010" leadInLength="60/1"  interpolater="leadin-linr"  />
            <Keyframe id="11815"  time="460/1" value="3.3801533001168358e-010" leadInLength="10/1"  interpolater="leadin-linr"  />
            </Keyframes>
           </InterpolatingParam>
          </VectorParam>
          <VectorParam id="11816"  name="rotation">
           <InterpolatingParam id="11817" interp="linr"  >
            <Keyframes>
            <Keyframe id="11818"  time="-9999999/1" value="0" leadInLength="0/1"  />
            <Keyframe id="11819"  time="357/1" value="0" leadInLength="60/1"  interpolater="leadin-linr"  />
            <Keyframe id="11820"  time="460/1" value="0" leadInLength="10/1"  interpolater="leadin-linr"  />
            </Keyframes>
           </InterpolatingParam>
           <InterpolatingParam id="11821" interp="linr"  >
            <Keyframes>
            <Keyframe id="11822"  time="-9999999/1" value="0" leadInLength="0/1"  />
            <Keyframe id="11823"  time="357/1" value="0" leadInLength="60/1"  interpolater="leadin-linr"  />
            <Keyframe id="11824"  time="460/1" value="0" leadInLength="10/1"  interpolater="leadin-linr"  />
            </Keyframes>
           </InterpolatingParam>
           <InterpolatingParam id="11825" interp="linr"  >
            <Keyframes>
            <Keyframe id="11826"  time="-9999999/1" value="0" leadInLength="0/1"  />
            <Keyframe id="11827"  time="357/1" value="0" leadInLength="60/1"  interpolater="leadin-linr"  />
            <Keyframe id="11828"  time="460/1" value="0" leadInLength="10/1"  interpolater="leadin-linr"  />
            </Keyframes>
           </InterpolatingParam>
          </VectorParam>
          <VectorParam id="11829"  name="shear">
           <InterpolatingParam id="11830" interp="linr"  >
            <Keyframes>
            <Keyframe id="11831"  time="-9999999/1" value="0" leadInLength="0/1"  />
            <Keyframe id="11832"  time="357/1" value="0" leadInLength="60/1"  interpolater="leadin-linr"  />
            <Keyframe id="11833"  time="460/1" value="0" leadInLength="10/1"  interpolater="leadin-linr"  />
            </Keyframes>
           </InterpolatingParam>
           <InterpolatingParam id="11834" interp="linr"  >
            <Keyframes>
            <Keyframe id="11835"  time="-9999999/1" value="0" leadInLength="0/1"  />
            <Keyframe id="11836"  time="357/1" value="0" leadInLength="60/1"  interpolater="leadin-linr"  />
            <Keyframe id="11837"  time="460/1" value="0" leadInLength="10/1"  interpolater="leadin-linr"  />
            </Keyframes>
           </InterpolatingParam>
           <InterpolatingParam id="11838" interp="linr"  >
            <Keyframes>
            <Keyframe id="11839"  time="-9999999/1" value="0" leadInLength="0/1"  />
            <Keyframe id="11840"  time="357/1" value="0" leadInLength="60/1"  interpolater="leadin-linr"  />
            <Keyframe id="11841"  time="460/1" value="0" leadInLength="10/1"  interpolater="leadin-linr"  />
            </Keyframes>
           </InterpolatingParam>
          </VectorParam>
          <VectorParam id="11842"  name="scale">
           <InterpolatingParam id="11843" interp="linr"  >
            <Keyframes>
            <Keyframe id="11844"  time="-9999999/1" value="0.70312500000013956" leadInLength="0/1"  />
            <Keyframe id="11845"  time="357/1" value="0.70703124999994305" leadInLength="60/1"  interpolater="leadin-linr"  />
            <Keyframe id="11846"  time="460/1" value="1.2537173334752911" leadInLength="10/1"  interpolater="leadin-linr"  />
            </Keyframes>
           </InterpolatingParam>
           <InterpolatingParam id="11847" interp="linr"  >
            <Keyframes>
            <Keyframe id="11848"  time="-9999999/1" value="0.70312500000013956" leadInLength="0/1"  />
            <Keyframe id="11849"  time="357/1" value="0.70703124999994305" leadInLength="60/1"  interpolater="leadin-linr"  />
            <Keyframe id="11850"  time="460/1" value="1.2537173334752911" leadInLength="10/1"  interpolater="leadin-linr"  />
            </Keyframes>
           </InterpolatingParam>
           <InterpolatingParam id="11851" interp="linr"  >
            <Keyframes>
            <Keyframe id="11852"  time="-9999999/1" value="1" leadInLength="0/1"  />
            <Keyframe id="11853"  time="357/1" value="1" leadInLength="60/1"  interpolater="leadin-linr"  />
            <Keyframe id="11854"  time="460/1" value="0.99999999999999978" leadInLength="10/1"  interpolater="leadin-linr"  />
            </Keyframes>
           </InterpolatingParam>
          </VectorParam>
          <VectorParam id="11855"  name="anchor">
           <InterpolatingParam id="11856" interp="linr"  time="0/1" value="0" leadInLength="0/1"  />
           <InterpolatingParam id="11857" interp="linr"  time="0/1" value="0" leadInLength="0/1"  />
           <InterpolatingParam id="11858" interp="linr"  time="0/1" value="0" leadInLength="0/1"  />
          </VectorParam>
         </Transformer>
         <Parameters>
          <VectorParam id="11859"  name="sourceCrop">
           <InterpolatingParam id="11860" interp="linr"  time="0/1" value="0" leadInLength="0/1"  />
           <InterpolatingParam id="11861" interp="linr"  time="0/1" value="0" leadInLength="0/1"  />
           <InterpolatingParam id="11862" interp="linr"  time="0/1" value="0" leadInLength="0/1"  />
           <InterpolatingParam id="11863" interp="linr"  time="0/1" value="0" leadInLength="0/1"  />
          </VectorParam>
          <VectorParam id="11864"  name="geometryCrop">
           <InterpolatingParam id="11865" interp="linr"  >
            <Keyframes>
            <Keyframe id="11866"  time="-9999999/1" value="0" leadInLength="0/1"  />
            <Keyframe id="11867"  time="357/1" value="0" leadInLength="60/1"  interpolater="leadin-linr"  />
            <Keyframe id="11868"  time="460/1" value="0" leadInLength="10/1"  interpolater="leadin-linr"  />
            </Keyframes>
           </InterpolatingParam>
           <InterpolatingParam id="11869" interp="linr"  >
            <Keyframes>
            <Keyframe id="11870"  time="-9999999/1" value="0" leadInLength="0/1"  />
            <Keyframe id="11871"  time="357/1" value="0" leadInLength="60/1"  interpolater="leadin-linr"  />
            <Keyframe id="11872"  time="460/1" value="0" leadInLength="10/1"  interpolater="leadin-linr"  />
            </Keyframes>
           </InterpolatingParam>
           <InterpolatingParam id="11873" interp="linr"  >
            <Keyframes>
            <Keyframe id="11874"  time="-9999999/1" value="0" leadInLength="0/1"  />
            <Keyframe id="11875"  time="357/1" value="0" leadInLength="60/1"  interpolater="leadin-linr"  />
            <Keyframe id="11876"  time="460/1" value="0" leadInLength="10/1"  interpolater="leadin-linr"  />
            </Keyframes>
           </InterpolatingParam>
           <InterpolatingParam id="11877" interp="linr"  >
            <Keyframes>
            <Keyframe id="11878"  time="-9999999/1" value="0" leadInLength="0/1"  />
            <Keyframe id="11879"  time="357/1" value="0" leadInLength="60/1"  interpolater="leadin-linr"  />
            <Keyframe id="11880"  time="460/1" value="0" leadInLength="10/1"  interpolater="leadin-linr"  />
            </Keyframes>
           </InterpolatingParam>
          </VectorParam>
          <InterpolatingParam id="11881" interp="linr"  name="opacity">
           <Keyframes>
           <Keyframe id="11882"  time="-9999999/1" value="1" leadInLength="0/1"  />
           <Keyframe id="11883"  time="357/1" value="1" leadInLength="60/1"  interpolater="leadin-linr"  />
           <Keyframe id="11884"  time="460/1" value="1" leadInLength="10/1"  interpolater="leadin-linr"  />
           </Keyframes>
          </InterpolatingParam>
         </Parameters>
         <Attributes>
          <Attribute id="11885" value="" name="ident"/>
         </Attributes>
         <MetaData>
          <entry key="WinSubProjectDisplayName" val=""/>
         </MetaData>
         <ExtraData>
          <Entry key="ZoomPanBin">
           <ZoomPanBin id="11886"  >
            <ZoomPanKeyframes>
             <ZoomPanKeyframe id="11887" timeRangeEnd="-9999999/1" timeRangeDuration="0/1" interpolaterName="linr"  />
             <ZoomPanKeyframe id="11888" timeRangeEnd="357/1" timeRangeDuration="60/1" interpolaterName="linr"  />
             <ZoomPanKeyframe id="11889" timeRangeEnd="460/1" timeRangeDuration="10/1" interpolaterName="linr"  />
            </ZoomPanKeyframes>
           </ZoomPanBin>
          </Entry>
         </ExtraData>
        </IMFile>
        <UnifiedMedia id="11890"  >
         <AudioTransition id="11891" start="5459" duration="15" >
          <Parameters>
           <InterpolatingParam id="11892" interp="linr"  time="0/1" value="1" leadInLength="0/1"  name="volume"/>
           <Parameter id="11893"  name="captions"/>
          </Parameters>
          <Effects>
           <GenericEffect id="11894" name = "AudioTransition" >
            <Parameters>
            <Parameter id="11895"   name="audioEdgeModType">
             <Keyframes>
             <Keyframe id="11896"  time="0/1" value="0" leadInLength="0/1"  />
             </Keyframes>
            </Parameter>
            <Parameter id="11897"   name="audioTransitionType">
             <Keyframes>
             <Keyframe id="11898"  time="0/1" value="" leadInLength="0/1"  />
             </Keyframes>
            </Parameter>
            </Parameters>
            <MetaData>
            </MetaData>
           </GenericEffect>
          </Effects>
          <Attributes>
           <Attribute id="11899" value="" name="ident"/>
           <Attribute id="11900" value="0" name="sampleRate"/>
           <Attribute id="11901" value="0" name="bitDepth"/>
           <Attribute id="11902" value="1" name="gain"/>
           <Attribute id="11903" value="0" name="mixToMono"/>
          </Attributes>
         </AudioTransition>
         <ImageTransition id="11904" start="5459" duration="15" >
          <Transformer>
           <VectorParam id="11905"  name="translation">
            <InterpolatingParam id="11906" interp="linr"  time="0/1" value="0" leadInLength="0/1"  />
            <InterpolatingParam id="11907" interp="linr"  time="0/1" value="0" leadInLength="0/1"  />
            <InterpolatingParam id="11908" interp="linr"  time="0/1" value="0" leadInLength="0/1"  />
           </VectorParam>
           <VectorParam id="11909"  name="rotation">
            <InterpolatingParam id="11910" interp="linr"  time="0/1" value="0" leadInLength="0/1"  />
            <InterpolatingParam id="11911" interp="linr"  time="0/1" value="0" leadInLength="0/1"  />
            <InterpolatingParam id="11912" interp="linr"  time="0/1" value="0" leadInLength="0/1"  />
           </VectorParam>
           <VectorParam id="11913"  name="shear">
            <InterpolatingParam id="11914" interp="linr"  time="0/1" value="0" leadInLength="0/1"  />
            <InterpolatingParam id="11915" interp="linr"  time="0/1" value="0" leadInLength="0/1"  />
            <InterpolatingParam id="11916" interp="linr"  time="0/1" value="0" leadInLength="0/1"  />
           </VectorParam>
           <VectorParam id="11917"  name="scale">
            <InterpolatingParam id="11918" interp="linr"  time="0/1" value="1" leadInLength="0/1"  />
            <InterpolatingParam id="11919" interp="linr"  time="0/1" value="1" leadInLength="0/1"  />
            <InterpolatingParam id="11920" interp="linr"  time="0/1" value="1" leadInLength="0/1"  />
           </VectorParam>
           <VectorParam id="11921"  name="anchor">
            <InterpolatingParam id="11922" interp="linr"  time="0/1" value="0" leadInLength="0/1"  />
            <InterpolatingParam id="11923" interp="linr"  time="0/1" value="0" leadInLength="0/1"  />
            <InterpolatingParam id="11924" interp="linr"  time="0/1" value="0" leadInLength="0/1"  />
           </VectorParam>
          </Transformer>
          <Parameters>
           <VectorParam id="11925"  name="sourceCrop">
            <InterpolatingParam id="11926" interp="linr"  time="0/1" value="0" leadInLength="0/1"  />
            <InterpolatingParam id="11927" interp="linr"  time="0/1" value="0" leadInLength="0/1"  />
            <InterpolatingParam id="11928" interp="linr"  time="0/1" value="0" leadInLength="0/1"  />
            <InterpolatingParam id="11929" interp="linr"  time="0/1" value="0" leadInLength="0/1"  />
           </VectorParam>
           <VectorParam id="11930"  name="geometryCrop">
            <InterpolatingParam id="11931" interp="linr"  time="0/1" value="0" leadInLength="0/1"  />
            <InterpolatingParam id="11932" interp="linr"  time="0/1" value="0" leadInLength="0/1"  />
            <InterpolatingParam id="11933" interp="linr"  time="0/1" value="0" leadInLength="0/1"  />
            <InterpolatingParam id="11934" interp="linr"  time="0/1" value="0" leadInLength="0/1"  />
           </VectorParam>
           <InterpolatingParam id="11935" interp="linr"  time="0/1" value="1" leadInLength="0/1"  name="opacity"/>
          </Parameters>
          <Effects>
           <GenericEffect id="11936" name = "VisualTransition" >
            <Parameters>
            <InterpolatingParam id="11937" interp="linr"  time="0/1" value="0.5" leadInLength="0/1"   name="leftFramePercentage"/>
            <InterpolatingParam id="11938" interp="linr"  time="0/1" value="0.5" leadInLength="0/1"   name="rightFramePercentage"/>
            <Parameter id="11939"   name="visualEdgeModType">
             <Keyframes>
             <Keyframe id="11940"  time="0/1" value="1" leadInLength="0/1"  />
             </Keyframes>
            </Parameter>
            <Parameter id="11941"   name="visualTransitionType">
             <Keyframes>
             <Keyframe id="11942"  time="0/1" value="Fade" leadInLength="0/1"  />
             </Keyframes>
            </Parameter>
            </Parameters>
            <MetaData>
            </MetaData>
           </GenericEffect>
          </Effects>
          <Attributes>
           <Attribute id="11943" value="" name="ident"/>
          </Attributes>
          <ExtraData>
           <Entry key="ZoomPanBin">
            <ZoomPanBin id="11944"  >
             <ZoomPanKeyframes>
             </ZoomPanKeyframes>
            </ZoomPanBin>
           </Entry>
          </ExtraData>
         </ImageTransition>
         <MetaData>
          <entry key="WinSubProjectDisplayName" val=""/>
         </MetaData>
        </UnifiedMedia>
        <IMFile id="11945" start="5474" duration="150" scalar="1/1" mediaStart="0/1" mediaDuration="1/1" trackNumber="0" src="12" trimStartSum="0/1" >
         <Transformer>
          <VectorParam id="11946"  name="translation">
           <InterpolatingParam id="11947" interp="linr"  time="-9999999/1" value="-410.61068702270444" leadInLength="0/1"  />
           <InterpolatingParam id="11948" interp="linr"  time="-9999999/1" value="114.05852417299909" leadInLength="0/1"  />
           <InterpolatingParam id="11949" interp="linr"  time="-9999999/1" value="0" leadInLength="0/1"  />
          </VectorParam>
          <VectorParam id="11950"  name="rotation">
           <InterpolatingParam id="11951" interp="linr"  time="-9999999/1" value="0" leadInLength="0/1"  />
           <InterpolatingParam id="11952" interp="linr"  time="-9999999/1" value="0" leadInLength="0/1"  />
           <InterpolatingParam id="11953" interp="linr"  time="-9999999/1" value="0" leadInLength="0/1"  />
          </VectorParam>
          <VectorParam id="11954"  name="shear">
           <InterpolatingParam id="11955" interp="linr"  time="-9999999/1" value="0" leadInLength="0/1"  />
           <InterpolatingParam id="11956" interp="linr"  time="-9999999/1" value="0" leadInLength="0/1"  />
           <InterpolatingParam id="11957" interp="linr"  time="-9999999/1" value="0" leadInLength="0/1"  />
          </VectorParam>
          <VectorParam id="11958"  name="scale">
           <InterpolatingParam id="11959" interp="linr"  time="-9999999/1" value="0.26096334287567041" leadInLength="0/1"  />
           <InterpolatingParam id="11960" interp="linr"  time="-9999999/1" value="0.26096334287567041" leadInLength="0/1"  />
           <InterpolatingParam id="11961" interp="linr"  time="-9999999/1" value="1" leadInLength="0/1"  />
          </VectorParam>
          <VectorParam id="11962"  name="anchor">
           <InterpolatingParam id="11963" interp="linr"  time="0/1" value="0" leadInLength="0/1"  />
           <InterpolatingParam id="11964" interp="linr"  time="0/1" value="0" leadInLength="0/1"  />
           <InterpolatingParam id="11965" interp="linr"  time="0/1" value="0" leadInLength="0/1"  />
          </VectorParam>
         </Transformer>
         <Parameters>
          <VectorParam id="11966"  name="sourceCrop">
           <InterpolatingParam id="11967" interp="linr"  time="0/1" value="0" leadInLength="0/1"  />
           <InterpolatingParam id="11968" interp="linr"  time="0/1" value="0" leadInLength="0/1"  />
           <InterpolatingParam id="11969" interp="linr"  time="0/1" value="0" leadInLength="0/1"  />
           <InterpolatingParam id="11970" interp="linr"  time="0/1" value="0" leadInLength="0/1"  />
          </VectorParam>
          <VectorParam id="11971"  name="geometryCrop">
           <InterpolatingParam id="11972" interp="linr"  time="-9999999/1" value="0" leadInLength="0/1"  />
           <InterpolatingParam id="11973" interp="linr"  time="-9999999/1" value="0" leadInLength="0/1"  />
           <InterpolatingParam id="11974" interp="linr"  time="-9999999/1" value="0" leadInLength="0/1"  />
           <InterpolatingParam id="11975" interp="linr"  time="-9999999/1" value="0" leadInLength="0/1"  />
          </VectorParam>
          <InterpolatingParam id="11976" interp="linr"  time="-9999999/1" value="1" leadInLength="0/1"  name="opacity"/>
         </Parameters>
         <Attributes>
          <Attribute id="11977" value="" name="ident"/>
         </Attributes>
         <MetaData>
          <entry key="WinSubProjectDisplayName" val=""/>
         </MetaData>
         <ExtraData>
          <Entry key="ZoomPanBin">
           <ZoomPanBin id="11978"  >
            <ZoomPanKeyframes>
             <ZoomPanKeyframe id="11979" timeRangeEnd="-9999999/1" timeRangeDuration="0/1" interpolaterName="linr"  />
            </ZoomPanKeyframes>
           </ZoomPanBin>
          </Entry>
         </ExtraData>
        </IMFile>
        <UnifiedMedia id="11980"  >
         <AudioTransition id="11981" start="5624" duration="30" >
          <Parameters>
           <InterpolatingParam id="11982" interp="linr"  time="0/1" value="1" leadInLength="0/1"  name="volume"/>
           <Parameter id="11983"  name="captions"/>
          </Parameters>
          <Effects>
           <GenericEffect id="11984" name = "AudioTransition" >
            <Parameters>
            <Parameter id="11985"   name="audioEdgeModType">
             <Keyframes>
             <Keyframe id="11986"  time="0/1" value="0" leadInLength="0/1"  />
             </Keyframes>
            </Parameter>
            <Parameter id="11987"   name="audioTransitionType">
             <Keyframes>
             <Keyframe id="11988"  time="0/1" value="" leadInLength="0/1"  />
             </Keyframes>
            </Parameter>
            </Parameters>
            <MetaData>
            </MetaData>
           </GenericEffect>
          </Effects>
          <Attributes>
           <Attribute id="11989" value="" name="ident"/>
           <Attribute id="11990" value="0" name="sampleRate"/>
           <Attribute id="11991" value="0" name="bitDepth"/>
           <Attribute id="11992" value="1" name="gain"/>
           <Attribute id="11993" value="0" name="mixToMono"/>
          </Attributes>
         </AudioTransition>
         <ImageTransition id="11994" start="5624" duration="30" >
          <Transformer>
           <VectorParam id="11995"  name="translation">
            <InterpolatingParam id="11996" interp="linr"  time="0/1" value="0" leadInLength="0/1"  />
            <InterpolatingParam id="11997" interp="linr"  time="0/1" value="0" leadInLength="0/1"  />
            <InterpolatingParam id="11998" interp="linr"  time="0/1" value="0" leadInLength="0/1"  />
           </VectorParam>
           <VectorParam id="11999"  name="rotation">
            <InterpolatingParam id="12000" interp="linr"  time="0/1" value="0" leadInLength="0/1"  />
            <InterpolatingParam id="12001" interp="linr"  time="0/1" value="0" leadInLength="0/1"  />
            <InterpolatingParam id="12002" interp="linr"  time="0/1" value="0" leadInLength="0/1"  />
           </VectorParam>
           <VectorParam id="12003"  name="shear">
            <InterpolatingParam id="12004" interp="linr"  time="0/1" value="0" leadInLength="0/1"  />
            <InterpolatingParam id="12005" interp="linr"  time="0/1" value="0" leadInLength="0/1"  />
            <InterpolatingParam id="12006" interp="linr"  time="0/1" value="0" leadInLength="0/1"  />
           </VectorParam>
           <VectorParam id="12007"  name="scale">
            <InterpolatingParam id="12008" interp="linr"  time="0/1" value="1" leadInLength="0/1"  />
            <InterpolatingParam id="12009" interp="linr"  time="0/1" value="1" leadInLength="0/1"  />
            <InterpolatingParam id="12010" interp="linr"  time="0/1" value="1" leadInLength="0/1"  />
           </VectorParam>
           <VectorParam id="12011"  name="anchor">
            <InterpolatingParam id="12012" interp="linr"  time="0/1" value="0" leadInLength="0/1"  />
            <InterpolatingParam id="12013" interp="linr"  time="0/1" value="0" leadInLength="0/1"  />
            <InterpolatingParam id="12014" interp="linr"  time="0/1" value="0" leadInLength="0/1"  />
           </VectorParam>
          </Transformer>
          <Parameters>
           <VectorParam id="12015"  name="sourceCrop">
            <InterpolatingParam id="12016" interp="linr"  time="0/1" value="0" leadInLength="0/1"  />
            <InterpolatingParam id="12017" interp="linr"  time="0/1" value="0" leadInLength="0/1"  />
            <InterpolatingParam id="12018" interp="linr"  time="0/1" value="0" leadInLength="0/1"  />
            <InterpolatingParam id="12019" interp="linr"  time="0/1" value="0" leadInLength="0/1"  />
           </VectorParam>
           <VectorParam id="12020"  name="geometryCrop">
            <InterpolatingParam id="12021" interp="linr"  time="0/1" value="0" leadInLength="0/1"  />
            <InterpolatingParam id="12022" interp="linr"  time="0/1" value="0" leadInLength="0/1"  />
            <InterpolatingParam id="12023" interp="linr"  time="0/1" value="0" leadInLength="0/1"  />
            <InterpolatingParam id="12024" interp="linr"  time="0/1" value="0" leadInLength="0/1"  />
           </VectorParam>
           <InterpolatingParam id="12025" interp="linr"  time="0/1" value="1" leadInLength="0/1"  name="opacity"/>
          </Parameters>
          <Effects>
           <GenericEffect id="12026" name = "VisualTransition" >
            <Parameters>
            <InterpolatingParam id="12027" interp="linr"  time="0/1" value="0.5" leadInLength="0/1"   name="leftFramePercentage"/>
            <InterpolatingParam id="12028" interp="linr"  time="0/1" value="0.5" leadInLength="0/1"   name="rightFramePercentage"/>
            <Parameter id="12029"   name="visualEdgeModType">
             <Keyframes>
             <Keyframe id="12030"  time="0/1" value="2" leadInLength="0/1"  />
             </Keyframes>
            </Parameter>
            <Parameter id="12031"   name="visualTransitionType">
             <Keyframes>
             <Keyframe id="12032"  time="0/1" value="Fade" leadInLength="0/1"  />
             </Keyframes>
            </Parameter>
            </Parameters>
            <MetaData>
            </MetaData>
           </GenericEffect>
          </Effects>
          <Attributes>
           <Attribute id="12033" value="" name="ident"/>
          </Attributes>
          <ExtraData>
           <Entry key="ZoomPanBin">
            <ZoomPanBin id="12034"  >
             <ZoomPanKeyframes>
             </ZoomPanKeyframes>
            </ZoomPanBin>
           </Entry>
          </ExtraData>
         </ImageTransition>
         <MetaData>
          <entry key="WinSubProjectDisplayName" val=""/>
         </MetaData>
        </UnifiedMedia>
        <UnifiedMedia id="12035"  >
         <AudioTransition id="12036" start="5987" duration="237" >
          <Parameters>
           <InterpolatingParam id="12037" interp="linr"  time="0/1" value="1" leadInLength="0/1"  name="volume"/>
           <Parameter id="12038"  name="captions"/>
          </Parameters>
          <Effects>
           <GenericEffect id="12039" name = "AudioTransition" >
            <Parameters>
            <Parameter id="12040"   name="audioEdgeModType">
             <Keyframes>
             <Keyframe id="12041"  time="0/1" value="0" leadInLength="0/1"  />
             </Keyframes>
            </Parameter>
            <Parameter id="12042"   name="audioTransitionType">
             <Keyframes>
             <Keyframe id="12043"  time="0/1" value="" leadInLength="0/1"  />
             </Keyframes>
            </Parameter>
            </Parameters>
            <MetaData>
            </MetaData>
           </GenericEffect>
          </Effects>
          <Attributes>
           <Attribute id="12044" value="" name="ident"/>
           <Attribute id="12045" value="0" name="sampleRate"/>
           <Attribute id="12046" value="0" name="bitDepth"/>
           <Attribute id="12047" value="1" name="gain"/>
           <Attribute id="12048" value="0" name="mixToMono"/>
          </Attributes>
         </AudioTransition>
         <ImageTransition id="12049" start="5987" duration="237" >
          <Transformer>
           <VectorParam id="12050"  name="translation">
            <InterpolatingParam id="12051" interp="linr"  time="0/1" value="0" leadInLength="0/1"  />
            <InterpolatingParam id="12052" interp="linr"  time="0/1" value="0" leadInLength="0/1"  />
            <InterpolatingParam id="12053" interp="linr"  time="0/1" value="0" leadInLength="0/1"  />
           </VectorParam>
           <VectorParam id="12054"  name="rotation">
            <InterpolatingParam id="12055" interp="linr"  time="0/1" value="0" leadInLength="0/1"  />
            <InterpolatingParam id="12056" interp="linr"  time="0/1" value="0" leadInLength="0/1"  />
            <InterpolatingParam id="12057" interp="linr"  time="0/1" value="0" leadInLength="0/1"  />
           </VectorParam>
           <VectorParam id="12058"  name="shear">
            <InterpolatingParam id="12059" interp="linr"  time="0/1" value="0" leadInLength="0/1"  />
            <InterpolatingParam id="12060" interp="linr"  time="0/1" value="0" leadInLength="0/1"  />
            <InterpolatingParam id="12061" interp="linr"  time="0/1" value="0" leadInLength="0/1"  />
           </VectorParam>
           <VectorParam id="12062"  name="scale">
            <InterpolatingParam id="12063" interp="linr"  time="0/1" value="1" leadInLength="0/1"  />
            <InterpolatingParam id="12064" interp="linr"  time="0/1" value="1" leadInLength="0/1"  />
            <InterpolatingParam id="12065" interp="linr"  time="0/1" value="1" leadInLength="0/1"  />
           </VectorParam>
           <VectorParam id="12066"  name="anchor">
            <InterpolatingParam id="12067" interp="linr"  time="0/1" value="0" leadInLength="0/1"  />
            <InterpolatingParam id="12068" interp="linr"  time="0/1" value="0" leadInLength="0/1"  />
            <InterpolatingParam id="12069" interp="linr"  time="0/1" value="0" leadInLength="0/1"  />
           </VectorParam>
          </Transformer>
          <Parameters>
           <VectorParam id="12070"  name="sourceCrop">
            <InterpolatingParam id="12071" interp="linr"  time="0/1" value="0" leadInLength="0/1"  />
            <InterpolatingParam id="12072" interp="linr"  time="0/1" value="0" leadInLength="0/1"  />
            <InterpolatingParam id="12073" interp="linr"  time="0/1" value="0" leadInLength="0/1"  />
            <InterpolatingParam id="12074" interp="linr"  time="0/1" value="0" leadInLength="0/1"  />
           </VectorParam>
           <VectorParam id="12075"  name="geometryCrop">
            <InterpolatingParam id="12076" interp="linr"  time="0/1" value="0" leadInLength="0/1"  />
            <InterpolatingParam id="12077" interp="linr"  time="0/1" value="0" leadInLength="0/1"  />
            <InterpolatingParam id="12078" interp="linr"  time="0/1" value="0" leadInLength="0/1"  />
            <InterpolatingParam id="12079" interp="linr"  time="0/1" value="0" leadInLength="0/1"  />
           </VectorParam>
           <InterpolatingParam id="12080" interp="linr"  time="0/1" value="1" leadInLength="0/1"  name="opacity"/>
          </Parameters>
          <Effects>
           <GenericEffect id="12081" name = "VisualTransition" >
            <Parameters>
            <InterpolatingParam id="12082" interp="linr"  time="0/1" value="0.5" leadInLength="0/1"   name="leftFramePercentage"/>
            <InterpolatingParam id="12083" interp="linr"  time="0/1" value="0.5" leadInLength="0/1"   name="rightFramePercentage"/>
            <Parameter id="12084"   name="visualEdgeModType">
             <Keyframes>
             <Keyframe id="12085"  time="0/1" value="1" leadInLength="0/1"  />
             </Keyframes>
            </Parameter>
            <Parameter id="12086"   name="visualTransitionType">
             <Keyframes>
             <Keyframe id="12087"  time="0/1" value="Fade" leadInLength="0/1"  />
             </Keyframes>
            </Parameter>
            </Parameters>
            <MetaData>
            </MetaData>
           </GenericEffect>
          </Effects>
          <Attributes>
           <Attribute id="12088" value="" name="ident"/>
          </Attributes>
          <ExtraData>
           <Entry key="ZoomPanBin">
            <ZoomPanBin id="12089"  >
             <ZoomPanKeyframes>
             </ZoomPanKeyframes>
            </ZoomPanBin>
           </Entry>
          </ExtraData>
         </ImageTransition>
         <MetaData>
          <entry key="WinSubProjectDisplayName" val=""/>
         </MetaData>
        </UnifiedMedia>
        <IMFile id="12090" start="6224" duration="33" scalar="1/1" mediaStart="0/1" mediaDuration="1/1" trackNumber="0" src="14" trimStartSum="112/1" >
         <Transformer>
          <VectorParam id="12091"  name="translation">
           <InterpolatingParam id="12092" interp="linr"  time="-9999999/1" value="238.30788804075581" leadInLength="0/1"  />
           <InterpolatingParam id="12093" interp="linr"  time="-9999999/1" value="17.544529262235987" leadInLength="0/1"  />
           <InterpolatingParam id="12094" interp="linr"  time="-9999999/1" value="0" leadInLength="0/1"  />
          </VectorParam>
          <VectorParam id="12095"  name="rotation">
           <InterpolatingParam id="12096" interp="linr"  time="-9999999/1" value="0" leadInLength="0/1"  />
           <InterpolatingParam id="12097" interp="linr"  time="-9999999/1" value="0" leadInLength="0/1"  />
           <InterpolatingParam id="12098" interp="linr"  time="-9999999/1" value="0" leadInLength="0/1"  />
          </VectorParam>
          <VectorParam id="12099"  name="shear">
           <InterpolatingParam id="12100" interp="linr"  time="-9999999/1" value="0" leadInLength="0/1"  />
           <InterpolatingParam id="12101" interp="linr"  time="-9999999/1" value="0" leadInLength="0/1"  />
           <InterpolatingParam id="12102" interp="linr"  time="-9999999/1" value="0" leadInLength="0/1"  />
          </VectorParam>
          <VectorParam id="12103"  name="scale">
           <InterpolatingParam id="12104" interp="linr"  time="-9999999/1" value="0.28891837627276229" leadInLength="0/1"  />
           <InterpolatingParam id="12105" interp="linr"  time="-9999999/1" value="0.28891837627276229" leadInLength="0/1"  />
           <InterpolatingParam id="12106" interp="linr"  time="-9999999/1" value="1" leadInLength="0/1"  />
          </VectorParam>
          <VectorParam id="12107"  name="anchor">
           <InterpolatingParam id="12108" interp="linr"  time="0/1" value="0" leadInLength="0/1"  />
           <InterpolatingParam id="12109" interp="linr"  time="0/1" value="0" leadInLength="0/1"  />
           <InterpolatingParam id="12110" interp="linr"  time="0/1" value="0" leadInLength="0/1"  />
          </VectorParam>
         </Transformer>
         <Parameters>
          <VectorParam id="12111"  name="sourceCrop">
           <InterpolatingParam id="12112" interp="linr"  time="0/1" value="0" leadInLength="0/1"  />
           <InterpolatingParam id="12113" interp="linr"  time="0/1" value="0" leadInLength="0/1"  />
           <InterpolatingParam id="12114" interp="linr"  time="0/1" value="0" leadInLength="0/1"  />
           <InterpolatingParam id="12115" interp="linr"  time="0/1" value="0" leadInLength="0/1"  />
          </VectorParam>
          <VectorParam id="12116"  name="geometryCrop">
           <InterpolatingParam id="12117" interp="linr"  time="-9999999/1" value="0" leadInLength="0/1"  />
           <InterpolatingParam id="12118" interp="linr"  time="-9999999/1" value="0" leadInLength="0/1"  />
           <InterpolatingParam id="12119" interp="linr"  time="-9999999/1" value="0" leadInLength="0/1"  />
           <InterpolatingParam id="12120" interp="linr"  time="-9999999/1" value="0" leadInLength="0/1"  />
          </VectorParam>
          <InterpolatingParam id="12121" interp="linr"  time="-9999999/1" value="1" leadInLength="0/1"  name="opacity"/>
         </Parameters>
         <Attributes>
          <Attribute id="12122" value="" name="ident"/>
         </Attributes>
         <MetaData>
          <entry key="WinSubProjectDisplayName" val=""/>
         </MetaData>
         <ExtraData>
          <Entry key="ZoomPanBin">
           <ZoomPanBin id="12123"  >
            <ZoomPanKeyframes>
             <ZoomPanKeyframe id="12124" timeRangeEnd="-9999999/1" timeRangeDuration="0/1" interpolaterName="linr"  />
            </ZoomPanKeyframes>
           </ZoomPanBin>
          </Entry>
         </ExtraData>
        </IMFile>
        <UnifiedMedia id="12125"  >
         <AudioTransition id="12126" start="6257" duration="113" >
          <Parameters>
           <InterpolatingParam id="12127" interp="linr"  time="0/1" value="1" leadInLength="0/1"  name="volume"/>
           <Parameter id="12128"  name="captions"/>
          </Parameters>
          <Effects>
           <GenericEffect id="12129" name = "AudioTransition" >
            <Parameters>
            <Parameter id="12130"   name="audioEdgeModType">
             <Keyframes>
             <Keyframe id="12131"  time="0/1" value="0" leadInLength="0/1"  />
             </Keyframes>
            </Parameter>
            <Parameter id="12132"   name="audioTransitionType">
             <Keyframes>
             <Keyframe id="12133"  time="0/1" value="" leadInLength="0/1"  />
             </Keyframes>
            </Parameter>
            </Parameters>
            <MetaData>
            </MetaData>
           </GenericEffect>
          </Effects>
          <Attributes>
           <Attribute id="12134" value="" name="ident"/>
           <Attribute id="12135" value="0" name="sampleRate"/>
           <Attribute id="12136" value="0" name="bitDepth"/>
           <Attribute id="12137" value="1" name="gain"/>
           <Attribute id="12138" value="0" name="mixToMono"/>
          </Attributes>
         </AudioTransition>
         <ImageTransition id="12139" start="6257" duration="113" >
          <Transformer>
           <VectorParam id="12140"  name="translation">
            <InterpolatingParam id="12141" interp="linr"  time="0/1" value="0" leadInLength="0/1"  />
            <InterpolatingParam id="12142" interp="linr"  time="0/1" value="0" leadInLength="0/1"  />
            <InterpolatingParam id="12143" interp="linr"  time="0/1" value="0" leadInLength="0/1"  />
           </VectorParam>
           <VectorParam id="12144"  name="rotation">
            <InterpolatingParam id="12145" interp="linr"  time="0/1" value="0" leadInLength="0/1"  />
            <InterpolatingParam id="12146" interp="linr"  time="0/1" value="0" leadInLength="0/1"  />
            <InterpolatingParam id="12147" interp="linr"  time="0/1" value="0" leadInLength="0/1"  />
           </VectorParam>
           <VectorParam id="12148"  name="shear">
            <InterpolatingParam id="12149" interp="linr"  time="0/1" value="0" leadInLength="0/1"  />
            <InterpolatingParam id="12150" interp="linr"  time="0/1" value="0" leadInLength="0/1"  />
            <InterpolatingParam id="12151" interp="linr"  time="0/1" value="0" leadInLength="0/1"  />
           </VectorParam>
           <VectorParam id="12152"  name="scale">
            <InterpolatingParam id="12153" interp="linr"  time="0/1" value="1" leadInLength="0/1"  />
            <InterpolatingParam id="12154" interp="linr"  time="0/1" value="1" leadInLength="0/1"  />
            <InterpolatingParam id="12155" interp="linr"  time="0/1" value="1" leadInLength="0/1"  />
           </VectorParam>
           <VectorParam id="12156"  name="anchor">
            <InterpolatingParam id="12157" interp="linr"  time="0/1" value="0" leadInLength="0/1"  />
            <InterpolatingParam id="12158" interp="linr"  time="0/1" value="0" leadInLength="0/1"  />
            <InterpolatingParam id="12159" interp="linr"  time="0/1" value="0" leadInLength="0/1"  />
           </VectorParam>
          </Transformer>
          <Parameters>
           <VectorParam id="12160"  name="sourceCrop">
            <InterpolatingParam id="12161" interp="linr"  time="0/1" value="0" leadInLength="0/1"  />
            <InterpolatingParam id="12162" interp="linr"  time="0/1" value="0" leadInLength="0/1"  />
            <InterpolatingParam id="12163" interp="linr"  time="0/1" value="0" leadInLength="0/1"  />
            <InterpolatingParam id="12164" interp="linr"  time="0/1" value="0" leadInLength="0/1"  />
           </VectorParam>
           <VectorParam id="12165"  name="geometryCrop">
            <InterpolatingParam id="12166" interp="linr"  time="0/1" value="0" leadInLength="0/1"  />
            <InterpolatingParam id="12167" interp="linr"  time="0/1" value="0" leadInLength="0/1"  />
            <InterpolatingParam id="12168" interp="linr"  time="0/1" value="0" leadInLength="0/1"  />
            <InterpolatingParam id="12169" interp="linr"  time="0/1" value="0" leadInLength="0/1"  />
           </VectorParam>
           <InterpolatingParam id="12170" interp="linr"  time="0/1" value="1" leadInLength="0/1"  name="opacity"/>
          </Parameters>
          <Effects>
           <GenericEffect id="12171" name = "VisualTransition" >
            <Parameters>
            <InterpolatingParam id="12172" interp="linr"  time="0/1" value="0.5" leadInLength="0/1"   name="leftFramePercentage"/>
            <InterpolatingParam id="12173" interp="linr"  time="0/1" value="0.5" leadInLength="0/1"   name="rightFramePercentage"/>
            <Parameter id="12174"   name="visualEdgeModType">
             <Keyframes>
             <Keyframe id="12175"  time="0/1" value="2" leadInLength="0/1"  />
             </Keyframes>
            </Parameter>
            <Parameter id="12176"   name="visualTransitionType">
             <Keyframes>
             <Keyframe id="12177"  time="0/1" value="Fade" leadInLength="0/1"  />
             </Keyframes>
            </Parameter>
            </Parameters>
            <MetaData>
            </MetaData>
           </GenericEffect>
          </Effects>
          <Attributes>
           <Attribute id="12178" value="" name="ident"/>
          </Attributes>
          <ExtraData>
           <Entry key="ZoomPanBin">
            <ZoomPanBin id="12179"  >
             <ZoomPanKeyframes>
             </ZoomPanKeyframes>
            </ZoomPanBin>
           </Entry>
          </ExtraData>
         </ImageTransition>
         <MetaData>
          <entry key="WinSubProjectDisplayName" val=""/>
         </MetaData>
        </UnifiedMedia>
        <UnifiedMedia id="12180"  >
         <AudioTransition id="12181" start="6483" duration="80" >
          <Parameters>
           <InterpolatingParam id="12182" interp="linr"  time="0/1" value="1" leadInLength="0/1"  name="volume"/>
           <Parameter id="12183"  name="captions"/>
          </Parameters>
          <Effects>
           <GenericEffect id="12184" name = "AudioTransition" >
            <Parameters>
            <Parameter id="12185"   name="audioEdgeModType">
             <Keyframes>
             <Keyframe id="12186"  time="0/1" value="0" leadInLength="0/1"  />
             </Keyframes>
            </Parameter>
            <Parameter id="12187"   name="audioTransitionType">
             <Keyframes>
             <Keyframe id="12188"  time="0/1" value="" leadInLength="0/1"  />
             </Keyframes>
            </Parameter>
            </Parameters>
            <MetaData>
            </MetaData>
           </GenericEffect>
          </Effects>
          <Attributes>
           <Attribute id="12189" value="" name="ident"/>
           <Attribute id="12190" value="0" name="sampleRate"/>
           <Attribute id="12191" value="0" name="bitDepth"/>
           <Attribute id="12192" value="1" name="gain"/>
           <Attribute id="12193" value="0" name="mixToMono"/>
          </Attributes>
         </AudioTransition>
         <ImageTransition id="12194" start="6483" duration="80" >
          <Transformer>
           <VectorParam id="12195"  name="translation">
            <InterpolatingParam id="12196" interp="linr"  time="0/1" value="0" leadInLength="0/1"  />
            <InterpolatingParam id="12197" interp="linr"  time="0/1" value="0" leadInLength="0/1"  />
            <InterpolatingParam id="12198" interp="linr"  time="0/1" value="0" leadInLength="0/1"  />
           </VectorParam>
           <VectorParam id="12199"  name="rotation">
            <InterpolatingParam id="12200" interp="linr"  time="0/1" value="0" leadInLength="0/1"  />
            <InterpolatingParam id="12201" interp="linr"  time="0/1" value="0" leadInLength="0/1"  />
            <InterpolatingParam id="12202" interp="linr"  time="0/1" value="0" leadInLength="0/1"  />
           </VectorParam>
           <VectorParam id="12203"  name="shear">
            <InterpolatingParam id="12204" interp="linr"  time="0/1" value="0" leadInLength="0/1"  />
            <InterpolatingParam id="12205" interp="linr"  time="0/1" value="0" leadInLength="0/1"  />
            <InterpolatingParam id="12206" interp="linr"  time="0/1" value="0" leadInLength="0/1"  />
           </VectorParam>
           <VectorParam id="12207"  name="scale">
            <InterpolatingParam id="12208" interp="linr"  time="0/1" value="1" leadInLength="0/1"  />
            <InterpolatingParam id="12209" interp="linr"  time="0/1" value="1" leadInLength="0/1"  />
            <InterpolatingParam id="12210" interp="linr"  time="0/1" value="1" leadInLength="0/1"  />
           </VectorParam>
           <VectorParam id="12211"  name="anchor">
            <InterpolatingParam id="12212" interp="linr"  time="0/1" value="0" leadInLength="0/1"  />
            <InterpolatingParam id="12213" interp="linr"  time="0/1" value="0" leadInLength="0/1"  />
            <InterpolatingParam id="12214" interp="linr"  time="0/1" value="0" leadInLength="0/1"  />
           </VectorParam>
          </Transformer>
          <Parameters>
           <VectorParam id="12215"  name="sourceCrop">
            <InterpolatingParam id="12216" interp="linr"  time="0/1" value="0" leadInLength="0/1"  />
            <InterpolatingParam id="12217" interp="linr"  time="0/1" value="0" leadInLength="0/1"  />
            <InterpolatingParam id="12218" interp="linr"  time="0/1" value="0" leadInLength="0/1"  />
            <InterpolatingParam id="12219" interp="linr"  time="0/1" value="0" leadInLength="0/1"  />
           </VectorParam>
           <VectorParam id="12220"  name="geometryCrop">
            <InterpolatingParam id="12221" interp="linr"  time="0/1" value="0" leadInLength="0/1"  />
            <InterpolatingParam id="12222" interp="linr"  time="0/1" value="0" leadInLength="0/1"  />
            <InterpolatingParam id="12223" interp="linr"  time="0/1" value="0" leadInLength="0/1"  />
            <InterpolatingParam id="12224" interp="linr"  time="0/1" value="0" leadInLength="0/1"  />
           </VectorParam>
           <InterpolatingParam id="12225" interp="linr"  time="0/1" value="1" leadInLength="0/1"  name="opacity"/>
          </Parameters>
          <Effects>
           <GenericEffect id="12226" name = "VisualTransition" >
            <Parameters>
            <InterpolatingParam id="12227" interp="linr"  time="0/1" value="0.5" leadInLength="0/1"   name="leftFramePercentage"/>
            <InterpolatingParam id="12228" interp="linr"  time="0/1" value="0.5" leadInLength="0/1"   name="rightFramePercentage"/>
            <Parameter id="12229"   name="visualEdgeModType">
             <Keyframes>
             <Keyframe id="12230"  time="0/1" value="1" leadInLength="0/1"  />
             </Keyframes>
            </Parameter>
            <Parameter id="12231"   name="visualTransitionType">
             <Keyframes>
             <Keyframe id="12232"  time="0/1" value="Fade" leadInLength="0/1"  />
             </Keyframes>
            </Parameter>
            </Parameters>
            <MetaData>
            </MetaData>
           </GenericEffect>
          </Effects>
          <Attributes>
           <Attribute id="12233" value="" name="ident"/>
          </Attributes>
          <ExtraData>
           <Entry key="ZoomPanBin">
            <ZoomPanBin id="12234"  >
             <ZoomPanKeyframes>
             </ZoomPanKeyframes>
            </ZoomPanBin>
           </Entry>
          </ExtraData>
         </ImageTransition>
         <MetaData>
          <entry key="WinSubProjectDisplayName" val=""/>
         </MetaData>
        </UnifiedMedia>
        <IMFile id="12235" start="6563" duration="45" scalar="1/1" mediaStart="0/1" mediaDuration="1/1" trackNumber="0" src="6" trimStartSum="1980/1" >
         <Transformer>
          <VectorParam id="12236"  name="translation">
           <InterpolatingParam id="12237" interp="linr"  >
            <Keyframes>
            <Keyframe id="12238"  time="-9999999/1" value="521.42857142938681" leadInLength="0/1"  />
            <Keyframe id="12239"  time="245/1" value="249.53546099226651" leadInLength="60/1"  interpolater="leadin-linr"  />
            </Keyframes>
           </InterpolatingParam>
           <InterpolatingParam id="12240" interp="linr"  >
            <Keyframes>
            <Keyframe id="12241"  time="-9999999/1" value="-1.6666666666238461" leadInLength="0/1"  />
            <Keyframe id="12242"  time="245/1" value="-3.1845193149138153e-011" leadInLength="60/1"  interpolater="leadin-linr"  />
            </Keyframes>
           </InterpolatingParam>
           <InterpolatingParam id="12243" interp="linr"  >
            <Keyframes>
            <Keyframe id="12244"  time="-9999999/1" value="-3.4106051316482886e-010" leadInLength="0/1"  />
            <Keyframe id="12245"  time="245/1" value="3.3801533001162775e-010" leadInLength="60/1"  interpolater="leadin-linr"  />
            </Keyframes>
           </InterpolatingParam>
          </VectorParam>
          <VectorParam id="12246"  name="rotation">
           <InterpolatingParam id="12247" interp="linr"  >
            <Keyframes>
            <Keyframe id="12248"  time="-9999999/1" value="0" leadInLength="0/1"  />
            <Keyframe id="12249"  time="245/1" value="0" leadInLength="60/1"  interpolater="leadin-linr"  />
            </Keyframes>
           </InterpolatingParam>
           <InterpolatingParam id="12250" interp="linr"  >
            <Keyframes>
            <Keyframe id="12251"  time="-9999999/1" value="0" leadInLength="0/1"  />
            <Keyframe id="12252"  time="245/1" value="0" leadInLength="60/1"  interpolater="leadin-linr"  />
            </Keyframes>
           </InterpolatingParam>
           <InterpolatingParam id="12253" interp="linr"  >
            <Keyframes>
            <Keyframe id="12254"  time="-9999999/1" value="0" leadInLength="0/1"  />
            <Keyframe id="12255"  time="245/1" value="0" leadInLength="60/1"  interpolater="leadin-linr"  />
            </Keyframes>
           </InterpolatingParam>
          </VectorParam>
          <VectorParam id="12256"  name="shear">
           <InterpolatingParam id="12257" interp="linr"  >
            <Keyframes>
            <Keyframe id="12258"  time="-9999999/1" value="0" leadInLength="0/1"  />
            <Keyframe id="12259"  time="245/1" value="0" leadInLength="60/1"  interpolater="leadin-linr"  />
            </Keyframes>
           </InterpolatingParam>
           <InterpolatingParam id="12260" interp="linr"  >
            <Keyframes>
            <Keyframe id="12261"  time="-9999999/1" value="0" leadInLength="0/1"  />
            <Keyframe id="12262"  time="245/1" value="0" leadInLength="60/1"  interpolater="leadin-linr"  />
            </Keyframes>
           </InterpolatingParam>
           <InterpolatingParam id="12263" interp="linr"  >
            <Keyframes>
            <Keyframe id="12264"  time="-9999999/1" value="0" leadInLength="0/1"  />
            <Keyframe id="12265"  time="245/1" value="0" leadInLength="60/1"  interpolater="leadin-linr"  />
            </Keyframes>
           </InterpolatingParam>
          </VectorParam>
          <VectorParam id="12266"  name="scale">
           <InterpolatingParam id="12267" interp="linr"  >
            <Keyframes>
            <Keyframe id="12268"  time="-9999999/1" value="0.70312500000013956" leadInLength="0/1"  />
            <Keyframe id="12269"  time="245/1" value="0.25855796755738925" leadInLength="60/1"  interpolater="leadin-linr"  />
            </Keyframes>
           </InterpolatingParam>
           <InterpolatingParam id="12270" interp="linr"  >
            <Keyframes>
            <Keyframe id="12271"  time="-9999999/1" value="0.70312500000013956" leadInLength="0/1"  />
            <Keyframe id="12272"  time="245/1" value="0.25855796755738925" leadInLength="60/1"  interpolater="leadin-linr"  />
            </Keyframes>
           </InterpolatingParam>
           <InterpolatingParam id="12273" interp="linr"  >
            <Keyframes>
            <Keyframe id="12274"  time="-9999999/1" value="1" leadInLength="0/1"  />
            <Keyframe id="12275"  time="245/1" value="1" leadInLength="60/1"  interpolater="leadin-linr"  />
            </Keyframes>
           </InterpolatingParam>
          </VectorParam>
          <VectorParam id="12276"  name="anchor">
           <InterpolatingParam id="12277" interp="linr"  time="0/1" value="0" leadInLength="0/1"  />
           <InterpolatingParam id="12278" interp="linr"  time="0/1" value="0" leadInLength="0/1"  />
           <InterpolatingParam id="12279" interp="linr"  time="0/1" value="0" leadInLength="0/1"  />
          </VectorParam>
         </Transformer>
         <Parameters>
          <VectorParam id="12280"  name="sourceCrop">
           <InterpolatingParam id="12281" interp="linr"  time="0/1" value="0" leadInLength="0/1"  />
           <InterpolatingParam id="12282" interp="linr"  time="0/1" value="0" leadInLength="0/1"  />
           <InterpolatingParam id="12283" interp="linr"  time="0/1" value="0" leadInLength="0/1"  />
           <InterpolatingParam id="12284" interp="linr"  time="0/1" value="0" leadInLength="0/1"  />
          </VectorParam>
          <VectorParam id="12285"  name="geometryCrop">
           <InterpolatingParam id="12286" interp="linr"  >
            <Keyframes>
            <Keyframe id="12287"  time="-9999999/1" value="0" leadInLength="0/1"  />
            <Keyframe id="12288"  time="245/1" value="0" leadInLength="60/1"  interpolater="leadin-linr"  />
            </Keyframes>
           </InterpolatingParam>
           <InterpolatingParam id="12289" interp="linr"  >
            <Keyframes>
            <Keyframe id="12290"  time="-9999999/1" value="0" leadInLength="0/1"  />
            <Keyframe id="12291"  time="245/1" value="0" leadInLength="60/1"  interpolater="leadin-linr"  />
            </Keyframes>
           </InterpolatingParam>
           <InterpolatingParam id="12292" interp="linr"  >
            <Keyframes>
            <Keyframe id="12293"  time="-9999999/1" value="0" leadInLength="0/1"  />
            <Keyframe id="12294"  time="245/1" value="0" leadInLength="60/1"  interpolater="leadin-linr"  />
            </Keyframes>
           </InterpolatingParam>
           <InterpolatingParam id="12295" interp="linr"  >
            <Keyframes>
            <Keyframe id="12296"  time="-9999999/1" value="0" leadInLength="0/1"  />
            <Keyframe id="12297"  time="245/1" value="0" leadInLength="60/1"  interpolater="leadin-linr"  />
            </Keyframes>
           </InterpolatingParam>
          </VectorParam>
          <InterpolatingParam id="12298" interp="linr"  name="opacity">
           <Keyframes>
           <Keyframe id="12299"  time="-9999999/1" value="1" leadInLength="0/1"  />
           <Keyframe id="12300"  time="245/1" value="1" leadInLength="60/1"  interpolater="leadin-linr"  />
           </Keyframes>
          </InterpolatingParam>
         </Parameters>
         <Attributes>
          <Attribute id="12301" value="" name="ident"/>
         </Attributes>
         <MetaData>
          <entry key="WinSubProjectDisplayName" val=""/>
         </MetaData>
         <ExtraData>
          <Entry key="ZoomPanBin">
           <ZoomPanBin id="12302"  >
            <ZoomPanKeyframes>
             <ZoomPanKeyframe id="12303" timeRangeEnd="-9999999/1" timeRangeDuration="0/1" interpolaterName="linr"  />
             <ZoomPanKeyframe id="12304" timeRangeEnd="245/1" timeRangeDuration="60/1" interpolaterName="linr"  />
            </ZoomPanKeyframes>
           </ZoomPanBin>
          </Entry>
         </ExtraData>
        </IMFile>
        <IMFile id="12305" start="6608" duration="18" scalar="1/1" mediaStart="0/1" mediaDuration="1/1" trackNumber="0" src="6" trimStartSum="2025/1" >
         <Transformer>
          <VectorParam id="12306"  name="translation">
           <InterpolatingParam id="12307" interp="linr"  >
            <Keyframes>
            <Keyframe id="12308"  time="-9999999/1" value="521.42857142938681" leadInLength="0/1"  />
            <Keyframe id="12309"  time="245/1" value="289.53546099241231" leadInLength="60/1"  interpolater="leadin-linr"  />
            </Keyframes>
           </InterpolatingParam>
           <InterpolatingParam id="12310" interp="linr"  >
            <Keyframes>
            <Keyframe id="12311"  time="-9999999/1" value="-1.6666666666238461" leadInLength="0/1"  />
            <Keyframe id="12312"  time="245/1" value="36.666666666630405" leadInLength="60/1"  interpolater="leadin-linr"  />
            </Keyframes>
           </InterpolatingParam>
           <InterpolatingParam id="12313" interp="linr"  >
            <Keyframes>
            <Keyframe id="12314"  time="-9999999/1" value="-3.4106051316482886e-010" leadInLength="0/1"  />
            <Keyframe id="12315"  time="245/1" value="3.3801533001162775e-010" leadInLength="60/1"  interpolater="leadin-linr"  />
            </Keyframes>
           </InterpolatingParam>
          </VectorParam>
          <VectorParam id="12316"  name="rotation">
           <InterpolatingParam id="12317" interp="linr"  >
            <Keyframes>
            <Keyframe id="12318"  time="-9999999/1" value="0" leadInLength="0/1"  />
            <Keyframe id="12319"  time="245/1" value="0" leadInLength="60/1"  interpolater="leadin-linr"  />
            </Keyframes>
           </InterpolatingParam>
           <InterpolatingParam id="12320" interp="linr"  >
            <Keyframes>
            <Keyframe id="12321"  time="-9999999/1" value="0" leadInLength="0/1"  />
            <Keyframe id="12322"  time="245/1" value="0" leadInLength="60/1"  interpolater="leadin-linr"  />
            </Keyframes>
           </InterpolatingParam>
           <InterpolatingParam id="12323" interp="linr"  >
            <Keyframes>
            <Keyframe id="12324"  time="-9999999/1" value="0" leadInLength="0/1"  />
            <Keyframe id="12325"  time="245/1" value="0" leadInLength="60/1"  interpolater="leadin-linr"  />
            </Keyframes>
           </InterpolatingParam>
          </VectorParam>
          <VectorParam id="12326"  name="shear">
           <InterpolatingParam id="12327" interp="linr"  >
            <Keyframes>
            <Keyframe id="12328"  time="-9999999/1" value="0" leadInLength="0/1"  />
            <Keyframe id="12329"  time="245/1" value="0" leadInLength="60/1"  interpolater="leadin-linr"  />
            </Keyframes>
           </InterpolatingParam>
           <InterpolatingParam id="12330" interp="linr"  >
            <Keyframes>
            <Keyframe id="12331"  time="-9999999/1" value="0" leadInLength="0/1"  />
            <Keyframe id="12332"  time="245/1" value="0" leadInLength="60/1"  interpolater="leadin-linr"  />
            </Keyframes>
           </InterpolatingParam>
           <InterpolatingParam id="12333" interp="linr"  >
            <Keyframes>
            <Keyframe id="12334"  time="-9999999/1" value="0" leadInLength="0/1"  />
            <Keyframe id="12335"  time="245/1" value="0" leadInLength="60/1"  interpolater="leadin-linr"  />
            </Keyframes>
           </InterpolatingParam>
          </VectorParam>
          <VectorParam id="12336"  name="scale">
           <InterpolatingParam id="12337" interp="linr"  >
            <Keyframes>
            <Keyframe id="12338"  time="-9999999/1" value="0.70312500000013956" leadInLength="0/1"  />
            <Keyframe id="12339"  time="245/1" value="0.25855796755738925" leadInLength="60/1"  interpolater="leadin-linr"  />
            </Keyframes>
           </InterpolatingParam>
           <InterpolatingParam id="12340" interp="linr"  >
            <Keyframes>
            <Keyframe id="12341"  time="-9999999/1" value="0.70312500000013956" leadInLength="0/1"  />
            <Keyframe id="12342"  time="245/1" value="0.25855796755738925" leadInLength="60/1"  interpolater="leadin-linr"  />
            </Keyframes>
           </InterpolatingParam>
           <InterpolatingParam id="12343" interp="linr"  >
            <Keyframes>
            <Keyframe id="12344"  time="-9999999/1" value="1" leadInLength="0/1"  />
            <Keyframe id="12345"  time="245/1" value="1" leadInLength="60/1"  interpolater="leadin-linr"  />
            </Keyframes>
           </InterpolatingParam>
          </VectorParam>
          <VectorParam id="12346"  name="anchor">
           <InterpolatingParam id="12347" interp="linr"  time="0/1" value="0" leadInLength="0/1"  />
           <InterpolatingParam id="12348" interp="linr"  time="0/1" value="0" leadInLength="0/1"  />
           <InterpolatingParam id="12349" interp="linr"  time="0/1" value="0" leadInLength="0/1"  />
          </VectorParam>
         </Transformer>
         <Parameters>
          <VectorParam id="12350"  name="sourceCrop">
           <InterpolatingParam id="12351" interp="linr"  time="0/1" value="0" leadInLength="0/1"  />
           <InterpolatingParam id="12352" interp="linr"  time="0/1" value="0" leadInLength="0/1"  />
           <InterpolatingParam id="12353" interp="linr"  time="0/1" value="0" leadInLength="0/1"  />
           <InterpolatingParam id="12354" interp="linr"  time="0/1" value="0" leadInLength="0/1"  />
          </VectorParam>
          <VectorParam id="12355"  name="geometryCrop">
           <InterpolatingParam id="12356" interp="linr"  >
            <Keyframes>
            <Keyframe id="12357"  time="-9999999/1" value="0" leadInLength="0/1"  />
            <Keyframe id="12358"  time="245/1" value="0" leadInLength="60/1"  interpolater="leadin-linr"  />
            </Keyframes>
           </InterpolatingParam>
           <InterpolatingParam id="12359" interp="linr"  >
            <Keyframes>
            <Keyframe id="12360"  time="-9999999/1" value="0" leadInLength="0/1"  />
            <Keyframe id="12361"  time="245/1" value="0" leadInLength="60/1"  interpolater="leadin-linr"  />
            </Keyframes>
           </InterpolatingParam>
           <InterpolatingParam id="12362" interp="linr"  >
            <Keyframes>
            <Keyframe id="12363"  time="-9999999/1" value="0" leadInLength="0/1"  />
            <Keyframe id="12364"  time="245/1" value="0" leadInLength="60/1"  interpolater="leadin-linr"  />
            </Keyframes>
           </InterpolatingParam>
           <InterpolatingParam id="12365" interp="linr"  >
            <Keyframes>
            <Keyframe id="12366"  time="-9999999/1" value="0" leadInLength="0/1"  />
            <Keyframe id="12367"  time="245/1" value="0" leadInLength="60/1"  interpolater="leadin-linr"  />
            </Keyframes>
           </InterpolatingParam>
          </VectorParam>
          <InterpolatingParam id="12368" interp="linr"  name="opacity">
           <Keyframes>
           <Keyframe id="12369"  time="-9999999/1" value="1" leadInLength="0/1"  />
           <Keyframe id="12370"  time="245/1" value="1" leadInLength="60/1"  interpolater="leadin-linr"  />
           </Keyframes>
          </InterpolatingParam>
         </Parameters>
         <Attributes>
          <Attribute id="12371" value="" name="ident"/>
         </Attributes>
         <MetaData>
          <entry key="WinSubProjectDisplayName" val=""/>
         </MetaData>
         <ExtraData>
          <Entry key="ZoomPanBin">
           <ZoomPanBin id="12372"  >
            <ZoomPanKeyframes>
             <ZoomPanKeyframe id="12373" timeRangeEnd="-9999999/1" timeRangeDuration="0/1" interpolaterName="linr"  />
             <ZoomPanKeyframe id="12374" timeRangeEnd="245/1" timeRangeDuration="60/1" interpolaterName="linr"  />
            </ZoomPanKeyframes>
           </ZoomPanBin>
          </Entry>
         </ExtraData>
        </IMFile>
        <UnifiedMedia id="12375"  >
         <AudioTransition id="12376" start="6626" duration="30" >
          <Parameters>
           <InterpolatingParam id="12377" interp="linr"  time="0/1" value="1" leadInLength="0/1"  name="volume"/>
           <Parameter id="12378"  name="captions"/>
          </Parameters>
          <Effects>
           <GenericEffect id="12379" name = "AudioTransition" >
            <Parameters>
            <Parameter id="12380"   name="audioEdgeModType">
             <Keyframes>
             <Keyframe id="12381"  time="0/1" value="0" leadInLength="0/1"  />
             </Keyframes>
            </Parameter>
            <Parameter id="12382"   name="audioTransitionType">
             <Keyframes>
             <Keyframe id="12383"  time="0/1" value="" leadInLength="0/1"  />
             </Keyframes>
            </Parameter>
            </Parameters>
            <MetaData>
            </MetaData>
           </GenericEffect>
          </Effects>
          <Attributes>
           <Attribute id="12384" value="" name="ident"/>
           <Attribute id="12385" value="0" name="sampleRate"/>
           <Attribute id="12386" value="0" name="bitDepth"/>
           <Attribute id="12387" value="1" name="gain"/>
           <Attribute id="12388" value="0" name="mixToMono"/>
          </Attributes>
         </AudioTransition>
         <ImageTransition id="12389" start="6626" duration="30" >
          <Transformer>
           <VectorParam id="12390"  name="translation">
            <InterpolatingParam id="12391" interp="linr"  time="0/1" value="0" leadInLength="0/1"  />
            <InterpolatingParam id="12392" interp="linr"  time="0/1" value="0" leadInLength="0/1"  />
            <InterpolatingParam id="12393" interp="linr"  time="0/1" value="0" leadInLength="0/1"  />
           </VectorParam>
           <VectorParam id="12394"  name="rotation">
            <InterpolatingParam id="12395" interp="linr"  time="0/1" value="0" leadInLength="0/1"  />
            <InterpolatingParam id="12396" interp="linr"  time="0/1" value="0" leadInLength="0/1"  />
            <InterpolatingParam id="12397" interp="linr"  time="0/1" value="0" leadInLength="0/1"  />
           </VectorParam>
           <VectorParam id="12398"  name="shear">
            <InterpolatingParam id="12399" interp="linr"  time="0/1" value="0" leadInLength="0/1"  />
            <InterpolatingParam id="12400" interp="linr"  time="0/1" value="0" leadInLength="0/1"  />
            <InterpolatingParam id="12401" interp="linr"  time="0/1" value="0" leadInLength="0/1"  />
           </VectorParam>
           <VectorParam id="12402"  name="scale">
            <InterpolatingParam id="12403" interp="linr"  time="0/1" value="1" leadInLength="0/1"  />
            <InterpolatingParam id="12404" interp="linr"  time="0/1" value="1" leadInLength="0/1"  />
            <InterpolatingParam id="12405" interp="linr"  time="0/1" value="1" leadInLength="0/1"  />
           </VectorParam>
           <VectorParam id="12406"  name="anchor">
            <InterpolatingParam id="12407" interp="linr"  time="0/1" value="0" leadInLength="0/1"  />
            <InterpolatingParam id="12408" interp="linr"  time="0/1" value="0" leadInLength="0/1"  />
            <InterpolatingParam id="12409" interp="linr"  time="0/1" value="0" leadInLength="0/1"  />
           </VectorParam>
          </Transformer>
          <Parameters>
           <VectorParam id="12410"  name="sourceCrop">
            <InterpolatingParam id="12411" interp="linr"  time="0/1" value="0" leadInLength="0/1"  />
            <InterpolatingParam id="12412" interp="linr"  time="0/1" value="0" leadInLength="0/1"  />
            <InterpolatingParam id="12413" interp="linr"  time="0/1" value="0" leadInLength="0/1"  />
            <InterpolatingParam id="12414" interp="linr"  time="0/1" value="0" leadInLength="0/1"  />
           </VectorParam>
           <VectorParam id="12415"  name="geometryCrop">
            <InterpolatingParam id="12416" interp="linr"  time="0/1" value="0" leadInLength="0/1"  />
            <InterpolatingParam id="12417" interp="linr"  time="0/1" value="0" leadInLength="0/1"  />
            <InterpolatingParam id="12418" interp="linr"  time="0/1" value="0" leadInLength="0/1"  />
            <InterpolatingParam id="12419" interp="linr"  time="0/1" value="0" leadInLength="0/1"  />
           </VectorParam>
           <InterpolatingParam id="12420" interp="linr"  time="0/1" value="1" leadInLength="0/1"  name="opacity"/>
          </Parameters>
          <Effects>
           <GenericEffect id="12421" name = "VisualTransition" >
            <Parameters>
            <InterpolatingParam id="12422" interp="linr"  time="0/1" value="0.5" leadInLength="0/1"   name="leftFramePercentage"/>
            <InterpolatingParam id="12423" interp="linr"  time="0/1" value="0.5" leadInLength="0/1"   name="rightFramePercentage"/>
            <Parameter id="12424"   name="visualEdgeModType">
             <Keyframes>
             <Keyframe id="12425"  time="0/1" value="2" leadInLength="0/1"  />
             </Keyframes>
            </Parameter>
            <Parameter id="12426"   name="visualTransitionType">
             <Keyframes>
             <Keyframe id="12427"  time="0/1" value="Fade" leadInLength="0/1"  />
             </Keyframes>
            </Parameter>
            </Parameters>
            <MetaData>
            </MetaData>
           </GenericEffect>
          </Effects>
          <Attributes>
           <Attribute id="12428" value="" name="ident"/>
          </Attributes>
          <ExtraData>
           <Entry key="ZoomPanBin">
            <ZoomPanBin id="12429"  >
             <ZoomPanKeyframes>
             </ZoomPanKeyframes>
            </ZoomPanBin>
           </Entry>
          </ExtraData>
         </ImageTransition>
         <MetaData>
          <entry key="WinSubProjectDisplayName" val=""/>
         </MetaData>
        </UnifiedMedia>
        <UnifiedMedia id="12430"  >
         <AudioTransition id="12431" start="8378" duration="43" >
          <Parameters>
           <InterpolatingParam id="12432" interp="linr"  time="0/1" value="1" leadInLength="0/1"  name="volume"/>
           <Parameter id="12433"  name="captions"/>
          </Parameters>
          <Effects>
           <GenericEffect id="12434" name = "AudioTransition" >
            <Parameters>
            <Parameter id="12435"   name="audioEdgeModType">
             <Keyframes>
             <Keyframe id="12436"  time="0/1" value="0" leadInLength="0/1"  />
             </Keyframes>
            </Parameter>
            <Parameter id="12437"   name="audioTransitionType">
             <Keyframes>
             <Keyframe id="12438"  time="0/1" value="" leadInLength="0/1"  />
             </Keyframes>
            </Parameter>
            </Parameters>
            <MetaData>
            </MetaData>
           </GenericEffect>
          </Effects>
          <Attributes>
           <Attribute id="12439" value="" name="ident"/>
           <Attribute id="12440" value="0" name="sampleRate"/>
           <Attribute id="12441" value="0" name="bitDepth"/>
           <Attribute id="12442" value="1" name="gain"/>
           <Attribute id="12443" value="0" name="mixToMono"/>
          </Attributes>
         </AudioTransition>
         <ImageTransition id="12444" start="8378" duration="43" >
          <Transformer>
           <VectorParam id="12445"  name="translation">
            <InterpolatingParam id="12446" interp="linr"  time="0/1" value="0" leadInLength="0/1"  />
            <InterpolatingParam id="12447" interp="linr"  time="0/1" value="0" leadInLength="0/1"  />
            <InterpolatingParam id="12448" interp="linr"  time="0/1" value="0" leadInLength="0/1"  />
           </VectorParam>
           <VectorParam id="12449"  name="rotation">
            <InterpolatingParam id="12450" interp="linr"  time="0/1" value="0" leadInLength="0/1"  />
            <InterpolatingParam id="12451" interp="linr"  time="0/1" value="0" leadInLength="0/1"  />
            <InterpolatingParam id="12452" interp="linr"  time="0/1" value="0" leadInLength="0/1"  />
           </VectorParam>
           <VectorParam id="12453"  name="shear">
            <InterpolatingParam id="12454" interp="linr"  time="0/1" value="0" leadInLength="0/1"  />
            <InterpolatingParam id="12455" interp="linr"  time="0/1" value="0" leadInLength="0/1"  />
            <InterpolatingParam id="12456" interp="linr"  time="0/1" value="0" leadInLength="0/1"  />
           </VectorParam>
           <VectorParam id="12457"  name="scale">
            <InterpolatingParam id="12458" interp="linr"  time="0/1" value="1" leadInLength="0/1"  />
            <InterpolatingParam id="12459" interp="linr"  time="0/1" value="1" leadInLength="0/1"  />
            <InterpolatingParam id="12460" interp="linr"  time="0/1" value="1" leadInLength="0/1"  />
           </VectorParam>
           <VectorParam id="12461"  name="anchor">
            <InterpolatingParam id="12462" interp="linr"  time="0/1" value="0" leadInLength="0/1"  />
            <InterpolatingParam id="12463" interp="linr"  time="0/1" value="0" leadInLength="0/1"  />
            <InterpolatingParam id="12464" interp="linr"  time="0/1" value="0" leadInLength="0/1"  />
           </VectorParam>
          </Transformer>
          <Parameters>
           <VectorParam id="12465"  name="sourceCrop">
            <InterpolatingParam id="12466" interp="linr"  time="0/1" value="0" leadInLength="0/1"  />
            <InterpolatingParam id="12467" interp="linr"  time="0/1" value="0" leadInLength="0/1"  />
            <InterpolatingParam id="12468" interp="linr"  time="0/1" value="0" leadInLength="0/1"  />
            <InterpolatingParam id="12469" interp="linr"  time="0/1" value="0" leadInLength="0/1"  />
           </VectorParam>
           <VectorParam id="12470"  name="geometryCrop">
            <InterpolatingParam id="12471" interp="linr"  time="0/1" value="0" leadInLength="0/1"  />
            <InterpolatingParam id="12472" interp="linr"  time="0/1" value="0" leadInLength="0/1"  />
            <InterpolatingParam id="12473" interp="linr"  time="0/1" value="0" leadInLength="0/1"  />
            <InterpolatingParam id="12474" interp="linr"  time="0/1" value="0" leadInLength="0/1"  />
           </VectorParam>
           <InterpolatingParam id="12475" interp="linr"  time="0/1" value="1" leadInLength="0/1"  name="opacity"/>
          </Parameters>
          <Effects>
           <GenericEffect id="12476" name = "VisualTransition" >
            <Parameters>
            <InterpolatingParam id="12477" interp="linr"  time="0/1" value="0.5" leadInLength="0/1"   name="leftFramePercentage"/>
            <InterpolatingParam id="12478" interp="linr"  time="0/1" value="0.5" leadInLength="0/1"   name="rightFramePercentage"/>
            <Parameter id="12479"   name="visualEdgeModType">
             <Keyframes>
             <Keyframe id="12480"  time="0/1" value="1" leadInLength="0/1"  />
             </Keyframes>
            </Parameter>
            <Parameter id="12481"   name="visualTransitionType">
             <Keyframes>
             <Keyframe id="12482"  time="0/1" value="GradientWipe" leadInLength="0/1"  />
             </Keyframes>
            </Parameter>
            </Parameters>
            <MetaData>
            </MetaData>
           </GenericEffect>
          </Effects>
          <Attributes>
           <Attribute id="12483" value="" name="ident"/>
          </Attributes>
          <ExtraData>
           <Entry key="ZoomPanBin">
            <ZoomPanBin id="12484"  >
             <ZoomPanKeyframes>
             </ZoomPanKeyframes>
            </ZoomPanBin>
           </Entry>
          </ExtraData>
         </ImageTransition>
         <MetaData>
          <entry key="WinSubProjectDisplayName" val=""/>
         </MetaData>
        </UnifiedMedia>
        <VMFile id="12485" start="8421" duration="152" scalar="1405123083739594752/926696275421169925" mediaStart="144115188075855872/16893039670449" mediaDuration="576460752303423488/5750466890704809" trackNumber="0" src="4" >
         <Transformer>
          <VectorParam id="12486"  name="translation">
           <InterpolatingParam id="12487" interp="linr"  >
            <Keyframes>
            <Keyframe id="12488"  time="-9999999/1" value="-7.1167960413731635e-011" leadInLength="0/1"  interpolater="leadin-linr"  />
            <Keyframe id="12489"  time="1152921504606846976/367459631745945" value="5.5654680863881367e-010" leadInLength="288230376151711744/1418946375628557"  interpolater="leadin-linr"  />
            <Keyframe id="12490"  time="1152921504606846976/242347418852773" value="7.4408035288797691e-011" leadInLength="144115188075855872/4552452955143039"  interpolater="leadin-linr"  />
            <Keyframe id="12491"  time="576460752303423488/98772096911159" value="637.46031746043502" leadInLength="144115188075855872/4750385692316899"  interpolater="leadin-linr"  />
            <Keyframe id="12492"  time="288230376151711744/47615798672467" value="-1.5187323977675214e-010" leadInLength="144115188075855872/4966312314701017"  interpolater="leadin-linr"  />
            </Keyframes>
           </InterpolatingParam>
           <InterpolatingParam id="12493" interp="linr"  >
            <Keyframes>
            <Keyframe id="12494"  time="-9999999/1" value="4.2888359530479647e-011" leadInLength="0/1"  interpolater="leadin-linr"  />
            <Keyframe id="12495"  time="1152921504606846976/367459631745945" value="-2.7188917783860234e-011" leadInLength="288230376151711744/1418946375628557"  interpolater="leadin-linr"  />
            <Keyframe id="12496"  time="1152921504606846976/242347418852773" value="1.3588419278676156e-010" leadInLength="144115188075855872/4552452955143039"  interpolater="leadin-linr"  />
            <Keyframe id="12497"  time="576460752303423488/98772096911159" value="-250.00000000029172" leadInLength="144115188075855872/4750385692316899"  interpolater="leadin-linr"  />
            <Keyframe id="12498"  time="288230376151711744/47615798672467" value="5.541285948612186e-011" leadInLength="144115188075855872/4966312314701017"  interpolater="leadin-linr"  />
            </Keyframes>
           </InterpolatingParam>
           <InterpolatingParam id="12499" interp="linr"  >
            <Keyframes>
            <Keyframe id="12500"  time="-9999999/1" value="0" leadInLength="0/1"  interpolater="leadin-linr"  />
            <Keyframe id="12501"  time="1152921504606846976/367459631745945" value="-6.8212102632977114e-010" leadInLength="288230376151711744/1418946375628557"  interpolater="leadin-linr"  />
            <Keyframe id="12502"  time="1152921504606846976/242347418852773" value="-3.4106051316488526e-010" leadInLength="144115188075855872/4552452955143039"  interpolater="leadin-linr"  />
            <Keyframe id="12503"  time="576460752303423488/98772096911159" value="-3.4106051316488526e-010" leadInLength="144115188075855872/4750385692316899"  interpolater="leadin-linr"  />
            <Keyframe id="12504"  time="288230376151711744/47615798672467" value="4.1359030627651384e-025" leadInLength="144115188075855872/4966312314701017"  interpolater="leadin-linr"  />
            </Keyframes>
           </InterpolatingParam>
          </VectorParam>
          <VectorParam id="12505"  name="rotation">
           <InterpolatingParam id="12506" interp="linr"  >
            <Keyframes>
            <Keyframe id="12507"  time="-9999999/1" value="0" leadInLength="0/1"  interpolater="leadin-linr"  />
            <Keyframe id="12508"  time="1152921504606846976/367459631745945" value="0" leadInLength="288230376151711744/1418946375628557"  interpolater="leadin-linr"  />
            <Keyframe id="12509"  time="1152921504606846976/242347418852773" value="0" leadInLength="144115188075855872/4552452955143039"  interpolater="leadin-linr"  />
            <Keyframe id="12510"  time="576460752303423488/98772096911159" value="0" leadInLength="144115188075855872/4750385692316899"  interpolater="leadin-linr"  />
            <Keyframe id="12511"  time="288230376151711744/47615798672467" value="0" leadInLength="144115188075855872/4966312314701017"  interpolater="leadin-linr"  />
            </Keyframes>
           </InterpolatingParam>
           <InterpolatingParam id="12512" interp="linr"  >
            <Keyframes>
            <Keyframe id="12513"  time="-9999999/1" value="0" leadInLength="0/1"  interpolater="leadin-linr"  />
            <Keyframe id="12514"  time="1152921504606846976/367459631745945" value="0" leadInLength="288230376151711744/1418946375628557"  interpolater="leadin-linr"  />
            <Keyframe id="12515"  time="1152921504606846976/242347418852773" value="0" leadInLength="144115188075855872/4552452955143039"  interpolater="leadin-linr"  />
            <Keyframe id="12516"  time="576460752303423488/98772096911159" value="0" leadInLength="144115188075855872/4750385692316899"  interpolater="leadin-linr"  />
            <Keyframe id="12517"  time="288230376151711744/47615798672467" value="0" leadInLength="144115188075855872/4966312314701017"  interpolater="leadin-linr"  />
            </Keyframes>
           </InterpolatingParam>
           <InterpolatingParam id="12518" interp="linr"  >
            <Keyframes>
            <Keyframe id="12519"  time="-9999999/1" value="0" leadInLength="0/1"  interpolater="leadin-linr"  />
            <Keyframe id="12520"  time="1152921504606846976/367459631745945" value="0" leadInLength="288230376151711744/1418946375628557"  interpolater="leadin-linr"  />
            <Keyframe id="12521"  time="1152921504606846976/242347418852773" value="0" leadInLength="144115188075855872/4552452955143039"  interpolater="leadin-linr"  />
            <Keyframe id="12522"  time="576460752303423488/98772096911159" value="0" leadInLength="144115188075855872/4750385692316899"  interpolater="leadin-linr"  />
            <Keyframe id="12523"  time="288230376151711744/47615798672467" value="0" leadInLength="144115188075855872/4966312314701017"  interpolater="leadin-linr"  />
            </Keyframes>
           </InterpolatingParam>
          </VectorParam>
          <VectorParam id="12524"  name="shear">
           <InterpolatingParam id="12525" interp="linr"  >
            <Keyframes>
            <Keyframe id="12526"  time="-9999999/1" value="0" leadInLength="0/1"  interpolater="leadin-linr"  />
            <Keyframe id="12527"  time="1152921504606846976/367459631745945" value="0" leadInLength="288230376151711744/1418946375628557"  interpolater="leadin-linr"  />
            <Keyframe id="12528"  time="1152921504606846976/242347418852773" value="0" leadInLength="144115188075855872/4552452955143039"  interpolater="leadin-linr"  />
            <Keyframe id="12529"  time="576460752303423488/98772096911159" value="0" leadInLength="144115188075855872/4750385692316899"  interpolater="leadin-linr"  />
            <Keyframe id="12530"  time="288230376151711744/47615798672467" value="0" leadInLength="144115188075855872/4966312314701017"  interpolater="leadin-linr"  />
            </Keyframes>
           </InterpolatingParam>
           <InterpolatingParam id="12531" interp="linr"  >
            <Keyframes>
            <Keyframe id="12532"  time="-9999999/1" value="0" leadInLength="0/1"  interpolater="leadin-linr"  />
            <Keyframe id="12533"  time="1152921504606846976/367459631745945" value="0" leadInLength="288230376151711744/1418946375628557"  interpolater="leadin-linr"  />
            <Keyframe id="12534"  time="1152921504606846976/242347418852773" value="0" leadInLength="144115188075855872/4552452955143039"  interpolater="leadin-linr"  />
            <Keyframe id="12535"  time="576460752303423488/98772096911159" value="0" leadInLength="144115188075855872/4750385692316899"  interpolater="leadin-linr"  />
            <Keyframe id="12536"  time="288230376151711744/47615798672467" value="0" leadInLength="144115188075855872/4966312314701017"  interpolater="leadin-linr"  />
            </Keyframes>
           </InterpolatingParam>
           <InterpolatingParam id="12537" interp="linr"  >
            <Keyframes>
            <Keyframe id="12538"  time="-9999999/1" value="0" leadInLength="0/1"  interpolater="leadin-linr"  />
            <Keyframe id="12539"  time="1152921504606846976/367459631745945" value="0" leadInLength="288230376151711744/1418946375628557"  interpolater="leadin-linr"  />
            <Keyframe id="12540"  time="1152921504606846976/242347418852773" value="0" leadInLength="144115188075855872/4552452955143039"  interpolater="leadin-linr"  />
            <Keyframe id="12541"  time="576460752303423488/98772096911159" value="0" leadInLength="144115188075855872/4750385692316899"  interpolater="leadin-linr"  />
            <Keyframe id="12542"  time="288230376151711744/47615798672467" value="0" leadInLength="144115188075855872/4966312314701017"  interpolater="leadin-linr"  />
            </Keyframes>
           </InterpolatingParam>
          </VectorParam>
          <VectorParam id="12543"  name="scale">
           <InterpolatingParam id="12544" interp="linr"  >
            <Keyframes>
            <Keyframe id="12545"  time="-9999999/1" value="0.66666666666665186" leadInLength="0/1"  interpolater="leadin-linr"  />
            <Keyframe id="12546"  time="1152921504606846976/367459631745945" value="0.66666666666705388" leadInLength="288230376151711744/1418946375628557"  interpolater="leadin-linr"  />
            <Keyframe id="12547"  time="1152921504606846976/242347418852773" value="0.66666666666655605" leadInLength="144115188075855872/4552452955143039"  interpolater="leadin-linr"  />
            <Keyframe id="12548"  time="576460752303423488/98772096911159" value="1.3306878306877652" leadInLength="144115188075855872/4750385692316899"  interpolater="leadin-linr"  />
            <Keyframe id="12549"  time="288230376151711744/47615798672467" value="0.66666666666645868" leadInLength="144115188075855872/4966312314701017"  interpolater="leadin-linr"  />
            </Keyframes>
           </InterpolatingParam>
           <InterpolatingParam id="12550" interp="linr"  >
            <Keyframes>
            <Keyframe id="12551"  time="-9999999/1" value="0.6666666666666522" leadInLength="0/1"  interpolater="leadin-linr"  />
            <Keyframe id="12552"  time="1152921504606846976/367459631745945" value="0.66666666666705443" leadInLength="288230376151711744/1418946375628557"  interpolater="leadin-linr"  />
            <Keyframe id="12553"  time="1152921504606846976/242347418852773" value="0.66666666666655749" leadInLength="144115188075855872/4552452955143039"  interpolater="leadin-linr"  />
            <Keyframe id="12554"  time="576460752303423488/98772096911159" value="1.3306878306877681" leadInLength="144115188075855872/4750385692316899"  interpolater="leadin-linr"  />
            <Keyframe id="12555"  time="288230376151711744/47615798672467" value="0.66666666666646024" leadInLength="144115188075855872/4966312314701017"  interpolater="leadin-linr"  />
            </Keyframes>
           </InterpolatingParam>
           <InterpolatingParam id="12556" interp="linr"  >
            <Keyframes>
            <Keyframe id="12557"  time="-9999999/1" value="1" leadInLength="0/1"  interpolater="leadin-linr"  />
            <Keyframe id="12558"  time="1152921504606846976/367459631745945" value="1" leadInLength="288230376151711744/1418946375628557"  interpolater="leadin-linr"  />
            <Keyframe id="12559"  time="1152921504606846976/242347418852773" value="1" leadInLength="144115188075855872/4552452955143039"  interpolater="leadin-linr"  />
            <Keyframe id="12560"  time="576460752303423488/98772096911159" value="1" leadInLength="144115188075855872/4750385692316899"  interpolater="leadin-linr"  />
            <Keyframe id="12561"  time="288230376151711744/47615798672467" value="1" leadInLength="144115188075855872/4966312314701017"  interpolater="leadin-linr"  />
            </Keyframes>
           </InterpolatingParam>
          </VectorParam>
          <VectorParam id="12562"  name="anchor">
           <InterpolatingParam id="12563" interp="linr"  time="0/1" value="0" leadInLength="0/1"  />
           <InterpolatingParam id="12564" interp="linr"  time="0/1" value="0" leadInLength="0/1"  />
           <InterpolatingParam id="12565" interp="linr"  time="0/1" value="0" leadInLength="0/1"  />
          </VectorParam>
         </Transformer>
         <Parameters>
          <VectorParam id="12566"  name="sourceCrop">
           <InterpolatingParam id="12567" interp="linr"  time="0/1" value="0" leadInLength="0/1"  />
           <InterpolatingParam id="12568" interp="linr"  time="0/1" value="0" leadInLength="0/1"  />
           <InterpolatingParam id="12569" interp="linr"  time="0/1" value="0" leadInLength="0/1"  />
           <InterpolatingParam id="12570" interp="linr"  time="0/1" value="0" leadInLength="0/1"  />
          </VectorParam>
          <VectorParam id="12571"  name="geometryCrop">
           <InterpolatingParam id="12572" interp="linr"  >
            <Keyframes>
            <Keyframe id="12573"  time="-9999999/1" value="0" leadInLength="0/1"  interpolater="leadin-linr"  />
            <Keyframe id="12574"  time="1152921504606846976/367459631745945" value="0" leadInLength="288230376151711744/1418946375628557"  interpolater="leadin-linr"  />
            <Keyframe id="12575"  time="1152921504606846976/242347418852773" value="0" leadInLength="144115188075855872/4552452955143039"  interpolater="leadin-linr"  />
            <Keyframe id="12576"  time="576460752303423488/98772096911159" value="0" leadInLength="144115188075855872/4750385692316899"  interpolater="leadin-linr"  />
            <Keyframe id="12577"  time="288230376151711744/47615798672467" value="0" leadInLength="144115188075855872/4966312314701017"  interpolater="leadin-linr"  />
            </Keyframes>
           </InterpolatingParam>
           <InterpolatingParam id="12578" interp="linr"  >
            <Keyframes>
            <Keyframe id="12579"  time="-9999999/1" value="0" leadInLength="0/1"  interpolater="leadin-linr"  />
            <Keyframe id="12580"  time="1152921504606846976/367459631745945" value="0" leadInLength="288230376151711744/1418946375628557"  interpolater="leadin-linr"  />
            <Keyframe id="12581"  time="1152921504606846976/242347418852773" value="0" leadInLength="144115188075855872/4552452955143039"  interpolater="leadin-linr"  />
            <Keyframe id="12582"  time="576460752303423488/98772096911159" value="0" leadInLength="144115188075855872/4750385692316899"  interpolater="leadin-linr"  />
            <Keyframe id="12583"  time="288230376151711744/47615798672467" value="0" leadInLength="144115188075855872/4966312314701017"  interpolater="leadin-linr"  />
            </Keyframes>
           </InterpolatingParam>
           <InterpolatingParam id="12584" interp="linr"  >
            <Keyframes>
            <Keyframe id="12585"  time="-9999999/1" value="0" leadInLength="0/1"  interpolater="leadin-linr"  />
            <Keyframe id="12586"  time="1152921504606846976/367459631745945" value="0" leadInLength="288230376151711744/1418946375628557"  interpolater="leadin-linr"  />
            <Keyframe id="12587"  time="1152921504606846976/242347418852773" value="0" leadInLength="144115188075855872/4552452955143039"  interpolater="leadin-linr"  />
            <Keyframe id="12588"  time="576460752303423488/98772096911159" value="0" leadInLength="144115188075855872/4750385692316899"  interpolater="leadin-linr"  />
            <Keyframe id="12589"  time="288230376151711744/47615798672467" value="0" leadInLength="144115188075855872/4966312314701017"  interpolater="leadin-linr"  />
            </Keyframes>
           </InterpolatingParam>
           <InterpolatingParam id="12590" interp="linr"  >
            <Keyframes>
            <Keyframe id="12591"  time="-9999999/1" value="0" leadInLength="0/1"  interpolater="leadin-linr"  />
            <Keyframe id="12592"  time="1152921504606846976/367459631745945" value="0" leadInLength="288230376151711744/1418946375628557"  interpolater="leadin-linr"  />
            <Keyframe id="12593"  time="1152921504606846976/242347418852773" value="0" leadInLength="144115188075855872/4552452955143039"  interpolater="leadin-linr"  />
            <Keyframe id="12594"  time="576460752303423488/98772096911159" value="0" leadInLength="144115188075855872/4750385692316899"  interpolater="leadin-linr"  />
            <Keyframe id="12595"  time="288230376151711744/47615798672467" value="0" leadInLength="144115188075855872/4966312314701017"  interpolater="leadin-linr"  />
            </Keyframes>
           </InterpolatingParam>
          </VectorParam>
          <InterpolatingParam id="12596" interp="linr"  name="opacity">
           <Keyframes>
           <Keyframe id="12597"  time="-9999999/1" value="1" leadInLength="0/1"  interpolater="leadin-linr"  />
           <Keyframe id="12598"  time="1152921504606846976/367459631745945" value="1" leadInLength="288230376151711744/1418946375628557"  interpolater="leadin-linr"  />
           <Keyframe id="12599"  time="1152921504606846976/242347418852773" value="1" leadInLength="144115188075855872/4552452955143039"  interpolater="leadin-linr"  />
           <Keyframe id="12600"  time="576460752303423488/98772096911159" value="1" leadInLength="144115188075855872/4750385692316899"  interpolater="leadin-linr"  />
           <Keyframe id="12601"  time="288230376151711744/47615798672467" value="1" leadInLength="144115188075855872/4966312314701017"  interpolater="leadin-linr"  />
           </Keyframes>
          </InterpolatingParam>
         </Parameters>
         <Attributes>
          <Attribute id="12602" value="" name="ident"/>
         </Attributes>
         <MetaData>
          <entry key="WinSubProjectDisplayName" val=""/>
         </MetaData>
         <ExtraData>
          <Entry key="ZoomPanBin">
           <ZoomPanBin id="12603"  >
            <ZoomPanKeyframes>
             <ZoomPanKeyframe id="12604" timeRangeEnd="-9999999/1" timeRangeDuration="0/1" interpolaterName="leadin-linr"  />
             <ZoomPanKeyframe id="12605" timeRangeEnd="1152921504606846976/367459631745945" timeRangeDuration="288230376151711744/1418946375628557" interpolaterName="linr"  />
             <ZoomPanKeyframe id="12606" timeRangeEnd="1152921504606846976/242347418852773" timeRangeDuration="144115188075855872/4552452955143039" interpolaterName="linr"  />
             <ZoomPanKeyframe id="12607" timeRangeEnd="288230376151711744/47615798672467" timeRangeDuration="144115188075855872/4966312314701017" interpolaterName="linr"  />
             <ZoomPanKeyframe id="12608" timeRangeEnd="576460752303423488/98772096911159" timeRangeDuration="144115188075855872/4750385692316899" interpolaterName="linr"  />
            </ZoomPanKeyframes>
           </ZoomPanBin>
          </Entry>
         </ExtraData>
        </VMFile>
       </Medias>
      </GenericTrack>
      <GenericTrack id="12609"  >
       <Attributes>
        <Attribute id="12610" value="" name="ident"/>
        <Attribute id="12611" value="0" name="audioMuted"/>
        <Attribute id="12612" value="0" name="videoHidden"/>
       </Attributes>
       <MetaData>
        <entry key="IsLocked" val="False"/>
        <entry key="WinTrackHeight" val="62"/>
       </MetaData>
       <Medias>
       </Medias>
      </GenericTrack>
     </Tracks>
    </GenericMixer>
   <CaptionAttributes id="12613"  >
    <Attribute id="12614" value="1" name="captionsEnabled"/>
    <Attribute id="12615" value="Arial" name="captionsFontName"/>
    <Attribute id="12616" value="28" name="captionsFontSize"/>
    <Attribute id="12617" value="(0,0,0,255)" name="captionsBackgroundColor"/>
    <Attribute id="12618" value="(255,255,255,255)" name="captionsForegroundColor"/>
    <Attribute id="12619" value="en" name="lang"/>
    <Attribute id="12620" value="0" name="captionsAlignment"/>
    <Attribute id="12621" value="1" name="captionsDefaultFontSize"/>
    <Attribute id="12622" value="0.5" name="captionsOpacity"/>
    <Attribute id="12623" value="1" name="captionsBackgroundEnabled"/>
    <Attribute id="12624" value="1" name="captionsBackgroundOnlyAroundText"/>
   </CaptionAttributes>
   <Parameters>
    <VectorParam id="12625"  name="eyePosition">
     <InterpolatingParam id="12626" interp="linr"  time="0/1" value="0" leadInLength="0/1"  />
     <InterpolatingParam id="12627" interp="linr"  time="0/1" value="0" leadInLength="0/1"  />
     <InterpolatingParam id="12628" interp="linr"  time="0/1" value="3000" leadInLength="0/1"  />
    </VectorParam>
    <VectorParam id="12629"  name="eyeLookAtPosition">
     <InterpolatingParam id="12630" interp="linr"  time="0/1" value="0" leadInLength="0/1"  />
     <InterpolatingParam id="12631" interp="linr"  time="0/1" value="0" leadInLength="0/1"  />
     <InterpolatingParam id="12632" interp="linr"  time="0/1" value="0" leadInLength="0/1"  />
    </VectorParam>
    <VectorParam id="12633"  name="eyeUpVector">
     <InterpolatingParam id="12634" interp="linr"  time="0/1" value="0" leadInLength="0/1"  />
     <InterpolatingParam id="12635" interp="linr"  time="0/1" value="1" leadInLength="0/1"  />
     <InterpolatingParam id="12636" interp="linr"  time="0/1" value="0" leadInLength="0/1"  />
    </VectorParam>
    <InterpolatingParam id="12637" interp="linr"  time="0/1" value="0.23885785" leadInLength="0/1"  name="fov"/>
    <InterpolatingParam id="12638" interp="linr"  time="0/1" value="1.5" leadInLength="0/1"  name="nearClipDistance"/>
    <InterpolatingParam id="12639" interp="linr"  time="0/1" value="6000" leadInLength="0/1"  name="farClipDistance"/>
   </Parameters>
  </Timeline>
 </Project>
</GoProject>
</CSMLData>

</Project_Data>
