<?xml version="1.0"?>
<Project_Data Version="8.00">
<Project_Settings>
<ProfileName>MP4 with Smart Player (up to 1080p)</ProfileName>
<ProjectWidth>1280</ProjectWidth>
<ProjectHeight>720</ProjectHeight>
<IsCustomProject>1</IsCustomProject>
<SavedProjectSettings>1</SavedProjectSettings>
<LastFlashTemplate>-1</LastFlashTemplate>
</Project_Settings>


<AutoSaveFile>C:\Users\auto1\AppData\Local\TechSmith\Camtasia Studio\8.0\Auto-Saves\charlie-crispy-demo3f82e066.autosave.camproj</AutoSaveFile>

<ProjectID>27595564-6594-4E49-9874-A6FC62037B6E</ProjectID>

<PowerPointProject>0</PowerPointProject>

<PowerPointFilename></PowerPointFilename>


<Project_Notes>
</Project_Notes>

<Project_MetaData>
<Project_MetaData_Object>
<FieldArrayKey>8</FieldArrayKey>
<Value>charlie-crispy-demo</Value>
</Project_MetaData_Object>
<Project_MetaData_Object>
<FieldArrayKey>13</FieldArrayKey>
<Value>2024-08-12 09:53:37 PM</Value>
</Project_MetaData_Object>
<Project_MetaData_Object>
<FieldArrayKey>16</FieldArrayKey>
<Value>ENU</Value>
</Project_MetaData_Object>
</Project_MetaData>

<CSMLData>
<GoProject id="1" version="3.0" >
 <Project id="2" editRate="30/1" version="3.0" >
  <Author></Author>
  <Comment></Comment>
  <System></System>
  <SourceBin id="3"  >
    <Source id="4" src="C:\syntax-free-research\CloudyDemo\Videos\Syntax-Locked vs Syntax-Free_ Script - Airtable - Google Chrome - 12 August 2024.mp4" lastMod="20240813T025938" rect="(0,0,1920,1080)" >
      <SourceTrack range="(0,3104666667)" type="0" editRate="10000000/1" trackRect="(0,0,1920,1080)" sampleRate="10000000/333371" bitDepth="24" numChannels="0" filename="" metaData="" />
      <SourceTrack range="(0,3104666667)" type="2" editRate="10000000/1" trackRect="(0,0,0,0)" sampleRate="44100/1" bitDepth="16" numChannels="1" filename="" metaData="" />
    </Source>
    <Source id="5" src="C:\syntax-free-research\CloudyDemo\Marshmallow Madness\7-vw-bus.png" lastMod="20240813T211331" rect="(0,0,1024,1024)" >
      <SourceTrack range="(0,1)" type="1" editRate="10000000/1" trackRect="(0,0,1024,1024)" sampleRate="0/1" bitDepth="32" numChannels="0" filename="" metaData="" />
    </Source>
    <Source id="6" src="C:\syntax-free-research\CloudyDemo\Marshmallow Madness\3-Crispy.png" lastMod="20240813T211933" rect="(0,0,1024,1024)" >
      <SourceTrack range="(0,1)" type="1" editRate="10000000/1" trackRect="(0,0,1024,1024)" sampleRate="0/1" bitDepth="32" numChannels="0" filename="" metaData="" />
    </Source>
    <Source id="7" src="C:\syntax-free-research\CloudyDemo\Videos\Full Script v2 (mp3cut.net).m4a" lastMod="20240814T164129" rect="(0,0,0,0)" >
      <SourceTrack range="(0,6865666667)" type="2" editRate="10000000/1" trackRect="(0,0,0,0)" sampleRate="48000/1" bitDepth="16" numChannels="2" filename="" metaData="" />
    </Source>
    <Source id="8" src="C:\syntax-free-research\CloudyDemo\bobby-demo-study-results.png" lastMod="20240813T225751" rect="(0,0,2102,1100)" >
      <SourceTrack range="(0,1)" type="1" editRate="10000000/1" trackRect="(0,0,2102,1100)" sampleRate="0/1" bitDepth="32" numChannels="0" filename="" metaData="" />
    </Source>
    <Source id="9" src="C:\syntax-free-research\CloudyDemo\Videos\Bobby crispy take2 audio (mp3cut.net).m4a" lastMod="20240824T155607" rect="(0,0,0,0)" >
      <SourceTrack range="(0,3181333333)" type="2" editRate="10000000/1" trackRect="(0,0,0,0)" sampleRate="44100/1" bitDepth="16" numChannels="1" filename="" metaData="" />
    </Source>
    <Source id="10" src="C:\syntax-free-research\CloudyDemo\Videos\Final reveal audio 3 (mp3cut.net).m4a" lastMod="20240824T184951" rect="(0,0,0,0)" >
      <SourceTrack range="(0,790333333)" type="2" editRate="10000000/1" trackRect="(0,0,0,0)" sampleRate="48000/1" bitDepth="16" numChannels="1" filename="" metaData="" />
    </Source>
    <Source id="11" src="C:\syntax-free-research\CloudyDemo\Videos\Full script v3 take 1 (mp3cut.net).m4a" lastMod="20240824T230905" rect="(0,0,0,0)" >
      <SourceTrack range="(0,3433000000)" type="2" editRate="10000000/1" trackRect="(0,0,0,0)" sampleRate="48000/1" bitDepth="16" numChannels="1" filename="" metaData="" />
    </Source>
    <Source id="12" src="C:\syntax-free-research\CloudyDemo\Marshmallow Madness\2-Charlie.png" lastMod="20240824T215352" rect="(0,0,1024,1024)" >
      <SourceTrack range="(0,1)" type="1" editRate="10000000/1" trackRect="(0,0,1024,1024)" sampleRate="0/1" bitDepth="32" numChannels="0" filename="" metaData="" />
    </Source>
    <Source id="13" src="C:\syntax-free-research\CloudyDemo\Marshmallow Madness\4-Charlie.png" lastMod="20240824T215352" rect="(0,0,1024,1024)" >
      <SourceTrack range="(0,1)" type="1" editRate="10000000/1" trackRect="(0,0,1024,1024)" sampleRate="0/1" bitDepth="32" numChannels="0" filename="" metaData="" />
    </Source>
    <Source id="14" src="C:\syntax-free-research\CloudyDemo\Marshmallow Madness\5-Crispy.png" lastMod="20240824T222143" rect="(0,0,1024,1024)" >
      <SourceTrack range="(0,1)" type="1" editRate="10000000/1" trackRect="(0,0,1024,1024)" sampleRate="0/1" bitDepth="32" numChannels="0" filename="" metaData="" />
    </Source>
    <Source id="15" src="C:\syntax-free-research\CloudyDemo\Videos\Full script v3 take 2 (mp3cut.net).m4a" lastMod="20240825T150130" rect="(0,0,0,0)" >
      <SourceTrack range="(0,3999666667)" type="2" editRate="10000000/1" trackRect="(0,0,0,0)" sampleRate="48000/1" bitDepth="16" numChannels="1" filename="" metaData="" />
    </Source>
    <Source id="16" src="C:\syntax-free-research\CloudyDemo\ReRecorded-Trimmed-In-Loom\01. - English prompt - Clean - no responses.mp4" lastMod="20240825T190421" rect="(0,0,1920,1080)" >
      <SourceTrack range="(0,423333333)" type="0" editRate="10000000/1" trackRect="(0,0,1920,1080)" sampleRate="5000000/166753" bitDepth="24" numChannels="0" filename="" metaData="" />
      <SourceTrack range="(0,423333333)" type="2" editRate="10000000/1" trackRect="(0,0,0,0)" sampleRate="44100/1" bitDepth="16" numChannels="1" filename="" metaData="" />
    </Source>
    <Source id="17" src="C:\syntax-free-research\CloudyDemo\ReRecorded-Trimmed-In-Loom\02. English Response.mp4" lastMod="20240825T190445" rect="(0,0,1920,1080)" >
      <SourceTrack range="(0,71333333)" type="0" editRate="10000000/1" trackRect="(0,0,1920,1080)" sampleRate="10000000/335071" bitDepth="24" numChannels="0" filename="" metaData="" />
      <SourceTrack range="(0,71333333)" type="2" editRate="10000000/1" trackRect="(0,0,0,0)" sampleRate="44100/1" bitDepth="16" numChannels="1" filename="" metaData="" />
    </Source>
    <Source id="18" src="C:\syntax-free-research\CloudyDemo\ReRecorded-Trimmed-In-Loom\03. Finding all the Charlies + Charlie as actually... (cut off).mp4" lastMod="20240825T190453" rect="(0,0,1920,1080)" >
      <SourceTrack range="(0,219666667)" type="0" editRate="10000000/1" trackRect="(0,0,1920,1080)" sampleRate="5000000/166831" bitDepth="24" numChannels="0" filename="" metaData="" />
      <SourceTrack range="(0,219666667)" type="2" editRate="10000000/1" trackRect="(0,0,0,0)" sampleRate="44100/1" bitDepth="16" numChannels="1" filename="" metaData="" />
    </Source>
    <Source id="19" src="C:\syntax-free-research\CloudyDemo\ReRecorded-Trimmed-In-Loom\04. Charlie is crispy Prompt and response - english.mp4" lastMod="20240825T190501" rect="(0,0,1920,1080)" >
      <SourceTrack range="(0,256666667)" type="0" editRate="10000000/1" trackRect="(0,0,1920,1080)" sampleRate="10000000/333433" bitDepth="24" numChannels="0" filename="" metaData="" />
      <SourceTrack range="(0,256666667)" type="2" editRate="10000000/1" trackRect="(0,0,0,0)" sampleRate="44100/1" bitDepth="16" numChannels="1" filename="" metaData="" />
    </Source>
    <Source id="20" src="C:\syntax-free-research\CloudyDemo\ReRecorded-Trimmed-In-Loom\5-6. No - hes still puffy, his NAME is now Crispy.mp4" lastMod="20240825T190513" rect="(0,0,1920,1080)" >
      <SourceTrack range="(0,408333333)" type="0" editRate="10000000/1" trackRect="(0,0,1920,1080)" sampleRate="10000000/333513" bitDepth="24" numChannels="0" filename="" metaData="" />
      <SourceTrack range="(0,408333333)" type="2" editRate="10000000/1" trackRect="(0,0,0,0)" sampleRate="44100/1" bitDepth="16" numChannels="1" filename="" metaData="" />
    </Source>
    <Source id="21" src="C:\syntax-free-research\CloudyDemo\ReRecorded-Trimmed-In-Loom\07. 2 full pages of text.mp4" lastMod="20240825T190519" rect="(0,0,1920,1080)" >
      <SourceTrack range="(0,169333333)" type="0" editRate="10000000/1" trackRect="(0,0,1920,1080)" sampleRate="5000000/169559" bitDepth="24" numChannels="0" filename="" metaData="" />
      <SourceTrack range="(0,169333333)" type="2" editRate="10000000/1" trackRect="(0,0,0,0)" sampleRate="48000/1" bitDepth="16" numChannels="1" filename="" metaData="" />
    </Source>
    <Source id="22" src="C:\syntax-free-research\CloudyDemo\ReRecorded-Trimmed-In-Loom\08. Not a description - JSON response.mp4" lastMod="20240825T190525" rect="(0,0,1920,1080)" >
      <SourceTrack range="(0,823333333)" type="0" editRate="10000000/1" trackRect="(0,0,1920,1080)" sampleRate="10000000/337283" bitDepth="24" numChannels="0" filename="" metaData="" />
      <SourceTrack range="(0,823333333)" type="2" editRate="10000000/1" trackRect="(0,0,0,0)" sampleRate="48000/1" bitDepth="16" numChannels="1" filename="" metaData="" />
    </Source>
    <Source id="23" src="C:\syntax-free-research\CloudyDemo\ReRecorded-Trimmed-In-Loom\09. CHarlie is crispy - JSON .mp4" lastMod="20240825T190532" rect="(0,0,1920,1080)" >
      <SourceTrack range="(0,373000000)" type="0" editRate="10000000/1" trackRect="(0,0,1920,1080)" sampleRate="5000000/168201" bitDepth="24" numChannels="0" filename="" metaData="" />
      <SourceTrack range="(0,373000000)" type="2" editRate="10000000/1" trackRect="(0,0,0,0)" sampleRate="48000/1" bitDepth="16" numChannels="1" filename="" metaData="" />
    </Source>
    <Source id="24" src="C:\syntax-free-research\CloudyDemo\ReRecorded-Trimmed-In-Loom\10. JSON mistake.mp4" lastMod="20240825T190541" rect="(0,0,1920,1080)" >
      <SourceTrack range="(0,663000000)" type="0" editRate="10000000/1" trackRect="(0,0,1920,1080)" sampleRate="1250000/42221" bitDepth="24" numChannels="0" filename="" metaData="" />
      <SourceTrack range="(0,663000000)" type="2" editRate="10000000/1" trackRect="(0,0,0,0)" sampleRate="48000/1" bitDepth="16" numChannels="1" filename="" metaData="" />
    </Source>
    <Source id="25" src="C:\syntax-free-research\CloudyDemo\ReRecorded-Trimmed-In-Loom\11. This is the game.  Ready to describe..mp4" lastMod="20240825T190548" rect="(0,0,1920,1080)" >
      <SourceTrack range="(0,569000000)" type="0" editRate="10000000/1" trackRect="(0,0,1920,1080)" sampleRate="1250000/41683" bitDepth="24" numChannels="0" filename="" metaData="" />
      <SourceTrack range="(0,569000000)" type="2" editRate="10000000/1" trackRect="(0,0,0,0)" sampleRate="44100/1" bitDepth="16" numChannels="1" filename="" metaData="" />
    </Source>
    <Source id="26" src="C:\syntax-free-research\CloudyDemo\ReRecorded-Trimmed-In-Loom\12. Punchline.mp4" lastMod="20240825T190554" rect="(0,0,1920,1080)" >
      <SourceTrack range="(0,984000000)" type="0" editRate="10000000/1" trackRect="(0,0,1920,1080)" sampleRate="10000000/333373" bitDepth="24" numChannels="0" filename="" metaData="" />
      <SourceTrack range="(0,984000000)" type="2" editRate="10000000/1" trackRect="(0,0,0,0)" sampleRate="44100/1" bitDepth="16" numChannels="1" filename="" metaData="" />
    </Source>
    <Source id="27" src="C:\syntax-free-research\CloudyDemo\ReRecorded-Trimmed-In-Loom\13. Highlighting camp before correction.mp4" lastMod="20240825T190603" rect="(0,0,1920,1080)" >
      <SourceTrack range="(0,396000000)" type="0" editRate="10000000/1" trackRect="(0,0,1920,1080)" sampleRate="2500000/86853" bitDepth="24" numChannels="0" filename="" metaData="" />
      <SourceTrack range="(0,396000000)" type="2" editRate="10000000/1" trackRect="(0,0,0,0)" sampleRate="48000/1" bitDepth="16" numChannels="1" filename="" metaData="" />
    </Source>
    <Source id="28" src="C:\syntax-free-research\CloudyDemo\Videos\Full script v4.m4a" lastMod="20240826T141435" rect="(0,0,0,0)" >
      <SourceTrack range="(0,4821666667)" type="2" editRate="10000000/1" trackRect="(0,0,0,0)" sampleRate="48000/1" bitDepth="16" numChannels="1" filename="" metaData="" />
    </Source>
    <Source id="29" src="C:\syntax-free-research\CloudyDemo\Videos\Full script v4 (mp3cut.net).m4a" lastMod="20240826T142042" rect="(0,0,0,0)" >
      <SourceTrack range="(0,4548666667)" type="2" editRate="10000000/1" trackRect="(0,0,0,0)" sampleRate="48000/1" bitDepth="16" numChannels="1" filename="" metaData="" />
    </Source>
  </SourceBin>
  <Timeline id="30"  >
   <Attributes>
    <Attribute id="31" value="1280" name="width"/>
    <Attribute id="32" value="720" name="height"/>
    <Attribute id="33" value="(0,0,0,255)" name="backgroundColor"/>
   </Attributes>
    <GenericMixer id="34"  name="Unified Mixer">
     <MetaData>
      <entry key="MixerType" val="TimelineMixer"/>
     </MetaData>
     <Tracks>
      <GenericTrack id="35"  >
       <Attributes>
        <Attribute id="36" value="Video" name="ident"/>
        <Attribute id="37" value="0" name="audioMuted"/>
        <Attribute id="38" value="0" name="videoHidden"/>
       </Attributes>
       <MetaData>
        <entry key="IsLocked" val="False"/>
        <entry key="WinTrackHeight" val="62"/>
       </MetaData>
       <Medias>
        <VMFile id="39" start="0" duration="345" scalar="1/1" mediaStart="0/1" mediaDuration="345/1" trackNumber="0" src="4" >
         <Transformer>
          <VectorParam id="40"  name="translation">
           <InterpolatingParam id="41" interp="linr"  time="-9999999/1" value="1.1482370609883218e-010" leadInLength="0/1"  interpolater="leadin-linr"  />
           <InterpolatingParam id="42" interp="linr"  time="-9999999/1" value="6.1315101144524916e-011" leadInLength="0/1"  interpolater="leadin-linr"  />
           <InterpolatingParam id="43" interp="linr"  time="-9999999/1" value="0" leadInLength="0/1"  interpolater="leadin-linr"  />
          </VectorParam>
          <VectorParam id="44"  name="rotation">
           <InterpolatingParam id="45" interp="linr"  time="-9999999/1" value="0" leadInLength="0/1"  interpolater="leadin-linr"  />
           <InterpolatingParam id="46" interp="linr"  time="-9999999/1" value="0" leadInLength="0/1"  interpolater="leadin-linr"  />
           <InterpolatingParam id="47" interp="linr"  time="-9999999/1" value="0" leadInLength="0/1"  interpolater="leadin-linr"  />
          </VectorParam>
          <VectorParam id="48"  name="shear">
           <InterpolatingParam id="49" interp="linr"  time="-9999999/1" value="0" leadInLength="0/1"  interpolater="leadin-linr"  />
           <InterpolatingParam id="50" interp="linr"  time="-9999999/1" value="0" leadInLength="0/1"  interpolater="leadin-linr"  />
           <InterpolatingParam id="51" interp="linr"  time="-9999999/1" value="0" leadInLength="0/1"  interpolater="leadin-linr"  />
          </VectorParam>
          <VectorParam id="52"  name="scale">
           <InterpolatingParam id="53" interp="linr"  time="-9999999/1" value="0.66666666666666663" leadInLength="0/1"  interpolater="leadin-linr"  />
           <InterpolatingParam id="54" interp="linr"  time="-9999999/1" value="0.66666666666666663" leadInLength="0/1"  interpolater="leadin-linr"  />
           <InterpolatingParam id="55" interp="linr"  time="-9999999/1" value="1" leadInLength="0/1"  interpolater="leadin-linr"  />
          </VectorParam>
          <VectorParam id="56"  name="anchor">
           <InterpolatingParam id="57" interp="linr"  time="0/1" value="0" leadInLength="0/1"  />
           <InterpolatingParam id="58" interp="linr"  time="0/1" value="0" leadInLength="0/1"  />
           <InterpolatingParam id="59" interp="linr"  time="0/1" value="0" leadInLength="0/1"  />
          </VectorParam>
         </Transformer>
         <Parameters>
          <VectorParam id="60"  name="sourceCrop">
           <InterpolatingParam id="61" interp="linr"  time="0/1" value="0" leadInLength="0/1"  />
           <InterpolatingParam id="62" interp="linr"  time="0/1" value="0" leadInLength="0/1"  />
           <InterpolatingParam id="63" interp="linr"  time="0/1" value="0" leadInLength="0/1"  />
           <InterpolatingParam id="64" interp="linr"  time="0/1" value="0" leadInLength="0/1"  />
          </VectorParam>
          <VectorParam id="65"  name="geometryCrop">
           <InterpolatingParam id="66" interp="linr"  time="-9999999/1" value="0" leadInLength="0/1"  interpolater="leadin-linr"  />
           <InterpolatingParam id="67" interp="linr"  time="-9999999/1" value="0" leadInLength="0/1"  interpolater="leadin-linr"  />
           <InterpolatingParam id="68" interp="linr"  time="-9999999/1" value="0" leadInLength="0/1"  interpolater="leadin-linr"  />
           <InterpolatingParam id="69" interp="linr"  time="-9999999/1" value="0" leadInLength="0/1"  interpolater="leadin-linr"  />
          </VectorParam>
          <InterpolatingParam id="70" interp="linr"  time="-9999999/1" value="1" leadInLength="0/1"  interpolater="leadin-linr"  name="opacity"/>
         </Parameters>
         <Attributes>
          <Attribute id="71" value="" name="ident"/>
         </Attributes>
         <MetaData>
          <entry key="WinSubProjectDisplayName" val=""/>
         </MetaData>
         <ExtraData>
          <Entry key="ZoomPanBin">
           <ZoomPanBin id="72"  >
            <ZoomPanKeyframes>
             <ZoomPanKeyframe id="73" timeRangeEnd="-9999999/1" timeRangeDuration="0/1" interpolaterName="leadin-linr"  />
            </ZoomPanKeyframes>
           </ZoomPanBin>
          </Entry>
         </ExtraData>
        </VMFile>
        <VMFile id="74" start="345" duration="200" scalar="1/1" mediaStart="328/1" mediaDuration="200/1" trackNumber="0" src="4" >
         <Transformer>
          <VectorParam id="75"  name="translation">
           <InterpolatingParam id="76" interp="linr"  time="-9999999/1" value="1.1482370609883218e-010" leadInLength="0/1"  interpolater="leadin-linr"  />
           <InterpolatingParam id="77" interp="linr"  time="-9999999/1" value="6.1315101144524916e-011" leadInLength="0/1"  interpolater="leadin-linr"  />
           <InterpolatingParam id="78" interp="linr"  time="-9999999/1" value="0" leadInLength="0/1"  interpolater="leadin-linr"  />
          </VectorParam>
          <VectorParam id="79"  name="rotation">
           <InterpolatingParam id="80" interp="linr"  time="-9999999/1" value="0" leadInLength="0/1"  interpolater="leadin-linr"  />
           <InterpolatingParam id="81" interp="linr"  time="-9999999/1" value="0" leadInLength="0/1"  interpolater="leadin-linr"  />
           <InterpolatingParam id="82" interp="linr"  time="-9999999/1" value="0" leadInLength="0/1"  interpolater="leadin-linr"  />
          </VectorParam>
          <VectorParam id="83"  name="shear">
           <InterpolatingParam id="84" interp="linr"  time="-9999999/1" value="0" leadInLength="0/1"  interpolater="leadin-linr"  />
           <InterpolatingParam id="85" interp="linr"  time="-9999999/1" value="0" leadInLength="0/1"  interpolater="leadin-linr"  />
           <InterpolatingParam id="86" interp="linr"  time="-9999999/1" value="0" leadInLength="0/1"  interpolater="leadin-linr"  />
          </VectorParam>
          <VectorParam id="87"  name="scale">
           <InterpolatingParam id="88" interp="linr"  time="-9999999/1" value="0.66666666666666663" leadInLength="0/1"  interpolater="leadin-linr"  />
           <InterpolatingParam id="89" interp="linr"  time="-9999999/1" value="0.66666666666666663" leadInLength="0/1"  interpolater="leadin-linr"  />
           <InterpolatingParam id="90" interp="linr"  time="-9999999/1" value="1" leadInLength="0/1"  interpolater="leadin-linr"  />
          </VectorParam>
          <VectorParam id="91"  name="anchor">
           <InterpolatingParam id="92" interp="linr"  time="0/1" value="0" leadInLength="0/1"  />
           <InterpolatingParam id="93" interp="linr"  time="0/1" value="0" leadInLength="0/1"  />
           <InterpolatingParam id="94" interp="linr"  time="0/1" value="0" leadInLength="0/1"  />
          </VectorParam>
         </Transformer>
         <Parameters>
          <VectorParam id="95"  name="sourceCrop">
           <InterpolatingParam id="96" interp="linr"  time="0/1" value="0" leadInLength="0/1"  />
           <InterpolatingParam id="97" interp="linr"  time="0/1" value="0" leadInLength="0/1"  />
           <InterpolatingParam id="98" interp="linr"  time="0/1" value="0" leadInLength="0/1"  />
           <InterpolatingParam id="99" interp="linr"  time="0/1" value="0" leadInLength="0/1"  />
          </VectorParam>
          <VectorParam id="100"  name="geometryCrop">
           <InterpolatingParam id="101" interp="linr"  time="-9999999/1" value="0" leadInLength="0/1"  interpolater="leadin-linr"  />
           <InterpolatingParam id="102" interp="linr"  time="-9999999/1" value="0" leadInLength="0/1"  interpolater="leadin-linr"  />
           <InterpolatingParam id="103" interp="linr"  time="-9999999/1" value="0" leadInLength="0/1"  interpolater="leadin-linr"  />
           <InterpolatingParam id="104" interp="linr"  time="-9999999/1" value="0" leadInLength="0/1"  interpolater="leadin-linr"  />
          </VectorParam>
          <InterpolatingParam id="105" interp="linr"  time="-9999999/1" value="1" leadInLength="0/1"  interpolater="leadin-linr"  name="opacity"/>
         </Parameters>
         <Attributes>
          <Attribute id="106" value="" name="ident"/>
         </Attributes>
         <MetaData>
          <entry key="WinSubProjectDisplayName" val=""/>
         </MetaData>
         <ExtraData>
          <Entry key="ZoomPanBin">
           <ZoomPanBin id="107"  >
            <ZoomPanKeyframes>
             <ZoomPanKeyframe id="108" timeRangeEnd="-9999999/1" timeRangeDuration="0/1" interpolaterName="leadin-linr"  />
            </ZoomPanKeyframes>
           </ZoomPanBin>
          </Entry>
         </ExtraData>
        </VMFile>
        <VMFile id="109" start="545" duration="47" scalar="860/791" mediaStart="770/1" mediaDuration="37177/860" trackNumber="0" src="4" >
         <Transformer>
          <VectorParam id="110"  name="translation">
           <InterpolatingParam id="111" interp="linr"  >
            <Keyframes>
            <Keyframe id="112"  time="-9999999/1" value="7.3669070843607187e-011" leadInLength="0/1"  interpolater="leadin-linr"  />
            <Keyframe id="113"  time="743673/860" value="100.49742857147456" leadInLength="11074/215"  interpolater="leadin-linr"  />
            <Keyframe id="114"  time="531223/430" value="-99.502571428509924" leadInLength="49833/860"  interpolater="leadin-linr"  />
            <Keyframe id="115"  time="1268897/860" value="7.3669070843607187e-011" leadInLength="84637/860"  interpolater="leadin-linr"  />
            </Keyframes>
           </InterpolatingParam>
           <InterpolatingParam id="116" interp="linr"  >
            <Keyframes>
            <Keyframe id="117"  time="-9999999/1" value="7.3972235744198159e-011" leadInLength="0/1"  interpolater="leadin-linr"  />
            <Keyframe id="118"  time="743673/860" value="-37.958375000196092" leadInLength="11074/215"  interpolater="leadin-linr"  />
            <Keyframe id="119"  time="531223/430" value="-35.101232143051995" leadInLength="49833/860"  interpolater="leadin-linr"  />
            <Keyframe id="120"  time="1268897/860" value="7.3972235744198159e-011" leadInLength="84637/860"  interpolater="leadin-linr"  />
            </Keyframes>
           </InterpolatingParam>
           <InterpolatingParam id="121" interp="linr"  >
            <Keyframes>
            <Keyframe id="122"  time="-9999999/1" value="0" leadInLength="0/1"  interpolater="leadin-linr"  />
            <Keyframe id="123"  time="743673/860" value="0" leadInLength="11074/215"  interpolater="leadin-linr"  />
            <Keyframe id="124"  time="531223/430" value="0" leadInLength="49833/860"  interpolater="leadin-linr"  />
            <Keyframe id="125"  time="1268897/860" value="0" leadInLength="84637/860"  interpolater="leadin-linr"  />
            </Keyframes>
           </InterpolatingParam>
          </VectorParam>
          <VectorParam id="126"  name="rotation">
           <InterpolatingParam id="127" interp="linr"  >
            <Keyframes>
            <Keyframe id="128"  time="-9999999/1" value="0" leadInLength="0/1"  interpolater="leadin-linr"  />
            <Keyframe id="129"  time="743673/860" value="0" leadInLength="11074/215"  interpolater="leadin-linr"  />
            <Keyframe id="130"  time="531223/430" value="0" leadInLength="49833/860"  interpolater="leadin-linr"  />
            <Keyframe id="131"  time="1268897/860" value="0" leadInLength="84637/860"  interpolater="leadin-linr"  />
            </Keyframes>
           </InterpolatingParam>
           <InterpolatingParam id="132" interp="linr"  >
            <Keyframes>
            <Keyframe id="133"  time="-9999999/1" value="0" leadInLength="0/1"  interpolater="leadin-linr"  />
            <Keyframe id="134"  time="743673/860" value="0" leadInLength="11074/215"  interpolater="leadin-linr"  />
            <Keyframe id="135"  time="531223/430" value="0" leadInLength="49833/860"  interpolater="leadin-linr"  />
            <Keyframe id="136"  time="1268897/860" value="0" leadInLength="84637/860"  interpolater="leadin-linr"  />
            </Keyframes>
           </InterpolatingParam>
           <InterpolatingParam id="137" interp="linr"  >
            <Keyframes>
            <Keyframe id="138"  time="-9999999/1" value="0" leadInLength="0/1"  interpolater="leadin-linr"  />
            <Keyframe id="139"  time="743673/860" value="0" leadInLength="11074/215"  interpolater="leadin-linr"  />
            <Keyframe id="140"  time="531223/430" value="0" leadInLength="49833/860"  interpolater="leadin-linr"  />
            <Keyframe id="141"  time="1268897/860" value="0" leadInLength="84637/860"  interpolater="leadin-linr"  />
            </Keyframes>
           </InterpolatingParam>
          </VectorParam>
          <VectorParam id="142"  name="shear">
           <InterpolatingParam id="143" interp="linr"  >
            <Keyframes>
            <Keyframe id="144"  time="-9999999/1" value="0" leadInLength="0/1"  interpolater="leadin-linr"  />
            <Keyframe id="145"  time="743673/860" value="0" leadInLength="11074/215"  interpolater="leadin-linr"  />
            <Keyframe id="146"  time="531223/430" value="0" leadInLength="49833/860"  interpolater="leadin-linr"  />
            <Keyframe id="147"  time="1268897/860" value="0" leadInLength="84637/860"  interpolater="leadin-linr"  />
            </Keyframes>
           </InterpolatingParam>
           <InterpolatingParam id="148" interp="linr"  >
            <Keyframes>
            <Keyframe id="149"  time="-9999999/1" value="0" leadInLength="0/1"  interpolater="leadin-linr"  />
            <Keyframe id="150"  time="743673/860" value="0" leadInLength="11074/215"  interpolater="leadin-linr"  />
            <Keyframe id="151"  time="531223/430" value="0" leadInLength="49833/860"  interpolater="leadin-linr"  />
            <Keyframe id="152"  time="1268897/860" value="0" leadInLength="84637/860"  interpolater="leadin-linr"  />
            </Keyframes>
           </InterpolatingParam>
           <InterpolatingParam id="153" interp="linr"  >
            <Keyframes>
            <Keyframe id="154"  time="-9999999/1" value="0" leadInLength="0/1"  interpolater="leadin-linr"  />
            <Keyframe id="155"  time="743673/860" value="0" leadInLength="11074/215"  interpolater="leadin-linr"  />
            <Keyframe id="156"  time="531223/430" value="0" leadInLength="49833/860"  interpolater="leadin-linr"  />
            <Keyframe id="157"  time="1268897/860" value="0" leadInLength="84637/860"  interpolater="leadin-linr"  />
            </Keyframes>
           </InterpolatingParam>
          </VectorParam>
          <VectorParam id="158"  name="scale">
           <InterpolatingParam id="159" interp="linr"  >
            <Keyframes>
            <Keyframe id="160"  time="-9999999/1" value="0.66666666666666663" leadInLength="0/1"  interpolater="leadin-linr"  />
            <Keyframe id="161"  time="743673/860" value="0.79516101190484045" leadInLength="11074/215"  interpolater="leadin-linr"  />
            <Keyframe id="162"  time="531223/430" value="0.79516101190484045" leadInLength="49833/860"  interpolater="leadin-linr"  />
            <Keyframe id="163"  time="1268897/860" value="0.66666666666666663" leadInLength="84637/860"  interpolater="leadin-linr"  />
            </Keyframes>
           </InterpolatingParam>
           <InterpolatingParam id="164" interp="linr"  >
            <Keyframes>
            <Keyframe id="165"  time="-9999999/1" value="0.66666666666666663" leadInLength="0/1"  interpolater="leadin-linr"  />
            <Keyframe id="166"  time="743673/860" value="0.79516101190484079" leadInLength="11074/215"  interpolater="leadin-linr"  />
            <Keyframe id="167"  time="531223/430" value="0.79516101190484079" leadInLength="49833/860"  interpolater="leadin-linr"  />
            <Keyframe id="168"  time="1268897/860" value="0.66666666666666663" leadInLength="84637/860"  interpolater="leadin-linr"  />
            </Keyframes>
           </InterpolatingParam>
           <InterpolatingParam id="169" interp="linr"  >
            <Keyframes>
            <Keyframe id="170"  time="-9999999/1" value="1" leadInLength="0/1"  interpolater="leadin-linr"  />
            <Keyframe id="171"  time="743673/860" value="1" leadInLength="11074/215"  interpolater="leadin-linr"  />
            <Keyframe id="172"  time="531223/430" value="1" leadInLength="49833/860"  interpolater="leadin-linr"  />
            <Keyframe id="173"  time="1268897/860" value="1" leadInLength="84637/860"  interpolater="leadin-linr"  />
            </Keyframes>
           </InterpolatingParam>
          </VectorParam>
          <VectorParam id="174"  name="anchor">
           <InterpolatingParam id="175" interp="linr"  time="0/1" value="0" leadInLength="0/1"  />
           <InterpolatingParam id="176" interp="linr"  time="0/1" value="0" leadInLength="0/1"  />
           <InterpolatingParam id="177" interp="linr"  time="0/1" value="0" leadInLength="0/1"  />
          </VectorParam>
         </Transformer>
         <Parameters>
          <VectorParam id="178"  name="sourceCrop">
           <InterpolatingParam id="179" interp="linr"  time="0/1" value="0" leadInLength="0/1"  />
           <InterpolatingParam id="180" interp="linr"  time="0/1" value="0" leadInLength="0/1"  />
           <InterpolatingParam id="181" interp="linr"  time="0/1" value="0" leadInLength="0/1"  />
           <InterpolatingParam id="182" interp="linr"  time="0/1" value="0" leadInLength="0/1"  />
          </VectorParam>
          <VectorParam id="183"  name="geometryCrop">
           <InterpolatingParam id="184" interp="linr"  >
            <Keyframes>
            <Keyframe id="185"  time="-9999999/1" value="0" leadInLength="0/1"  interpolater="leadin-linr"  />
            <Keyframe id="186"  time="743673/860" value="0" leadInLength="11074/215"  interpolater="leadin-linr"  />
            <Keyframe id="187"  time="531223/430" value="0" leadInLength="49833/860"  interpolater="leadin-linr"  />
            <Keyframe id="188"  time="1268897/860" value="0" leadInLength="84637/860"  interpolater="leadin-linr"  />
            </Keyframes>
           </InterpolatingParam>
           <InterpolatingParam id="189" interp="linr"  >
            <Keyframes>
            <Keyframe id="190"  time="-9999999/1" value="0" leadInLength="0/1"  interpolater="leadin-linr"  />
            <Keyframe id="191"  time="743673/860" value="0" leadInLength="11074/215"  interpolater="leadin-linr"  />
            <Keyframe id="192"  time="531223/430" value="0" leadInLength="49833/860"  interpolater="leadin-linr"  />
            <Keyframe id="193"  time="1268897/860" value="0" leadInLength="84637/860"  interpolater="leadin-linr"  />
            </Keyframes>
           </InterpolatingParam>
           <InterpolatingParam id="194" interp="linr"  >
            <Keyframes>
            <Keyframe id="195"  time="-9999999/1" value="0" leadInLength="0/1"  interpolater="leadin-linr"  />
            <Keyframe id="196"  time="743673/860" value="0" leadInLength="11074/215"  interpolater="leadin-linr"  />
            <Keyframe id="197"  time="531223/430" value="0" leadInLength="49833/860"  interpolater="leadin-linr"  />
            <Keyframe id="198"  time="1268897/860" value="0" leadInLength="84637/860"  interpolater="leadin-linr"  />
            </Keyframes>
           </InterpolatingParam>
           <InterpolatingParam id="199" interp="linr"  >
            <Keyframes>
            <Keyframe id="200"  time="-9999999/1" value="0" leadInLength="0/1"  interpolater="leadin-linr"  />
            <Keyframe id="201"  time="743673/860" value="0" leadInLength="11074/215"  interpolater="leadin-linr"  />
            <Keyframe id="202"  time="531223/430" value="0" leadInLength="49833/860"  interpolater="leadin-linr"  />
            <Keyframe id="203"  time="1268897/860" value="0" leadInLength="84637/860"  interpolater="leadin-linr"  />
            </Keyframes>
           </InterpolatingParam>
          </VectorParam>
          <InterpolatingParam id="204" interp="linr"  name="opacity">
           <Keyframes>
           <Keyframe id="205"  time="-9999999/1" value="1" leadInLength="0/1"  interpolater="leadin-linr"  />
           <Keyframe id="206"  time="743673/860" value="1" leadInLength="11074/215"  interpolater="leadin-linr"  />
           <Keyframe id="207"  time="531223/430" value="1" leadInLength="49833/860"  interpolater="leadin-linr"  />
           <Keyframe id="208"  time="1268897/860" value="1" leadInLength="84637/860"  interpolater="leadin-linr"  />
           </Keyframes>
          </InterpolatingParam>
         </Parameters>
         <Attributes>
          <Attribute id="209" value="" name="ident"/>
         </Attributes>
         <MetaData>
          <entry key="WinSubProjectDisplayName" val=""/>
         </MetaData>
         <ExtraData>
          <Entry key="ZoomPanBin">
           <ZoomPanBin id="210"  >
            <ZoomPanKeyframes>
             <ZoomPanKeyframe id="211" timeRangeEnd="-9999999/1" timeRangeDuration="0/1" interpolaterName="leadin-linr"  />
             <ZoomPanKeyframe id="212" timeRangeEnd="743673/860" timeRangeDuration="11074/215" interpolaterName="linr"  />
             <ZoomPanKeyframe id="213" timeRangeEnd="1268897/860" timeRangeDuration="84637/860" interpolaterName="linr"  />
             <ZoomPanKeyframe id="214" timeRangeEnd="531223/430" timeRangeDuration="49833/860" interpolaterName="linr"  />
            </ZoomPanKeyframes>
           </ZoomPanBin>
          </Entry>
         </ExtraData>
        </VMFile>
        <VMFile id="215" start="592" duration="435" scalar="93525/77518" mediaStart="137977/172" mediaDuration="77518/215" trackNumber="0" src="4" >
         <Transformer>
          <VectorParam id="216"  name="translation">
           <InterpolatingParam id="217" interp="linr"  >
            <Keyframes>
            <Keyframe id="218"  time="-9999999/1" value="7.3669070843607187e-011" leadInLength="0/1"  interpolater="leadin-linr"  />
            <Keyframe id="219"  time="304130911/374100" value="15.226883116952516" leadInLength="852698/93525"  interpolater="leadin-linr"  />
            <Keyframe id="220"  time="4311405/4988" value="100.49742857147456" leadInLength="4806116/93525"  interpolater="leadin-linr"  />
            <Keyframe id="221"  time="462267631/374100" value="-99.502571428509924" leadInLength="1085252/18705"  interpolater="leadin-linr"  />
            <Keyframe id="222"  time="19030291/12900" value="7.3669070843607187e-011" leadInLength="9147124/93525"  interpolater="leadin-linr"  />
            </Keyframes>
           </InterpolatingParam>
           <InterpolatingParam id="223" interp="linr"  >
            <Keyframes>
            <Keyframe id="224"  time="-9999999/1" value="7.3972235744198159e-011" leadInLength="0/1"  interpolater="leadin-linr"  />
            <Keyframe id="225"  time="304130911/374100" value="-5.751268939360858" leadInLength="852698/93525"  interpolater="leadin-linr"  />
            <Keyframe id="226"  time="4311405/4988" value="-37.958375000196092" leadInLength="4806116/93525"  interpolater="leadin-linr"  />
            <Keyframe id="227"  time="462267631/374100" value="-35.101232143051995" leadInLength="1085252/18705"  interpolater="leadin-linr"  />
            <Keyframe id="228"  time="19030291/12900" value="7.3972235744198159e-011" leadInLength="9147124/93525"  interpolater="leadin-linr"  />
            </Keyframes>
           </InterpolatingParam>
           <InterpolatingParam id="229" interp="linr"  >
            <Keyframes>
            <Keyframe id="230"  time="-9999999/1" value="0" leadInLength="0/1"  interpolater="leadin-linr"  />
            <Keyframe id="231"  time="304130911/374100" value="0" leadInLength="852698/93525"  interpolater="leadin-linr"  />
            <Keyframe id="232"  time="4311405/4988" value="0" leadInLength="4806116/93525"  interpolater="leadin-linr"  />
            <Keyframe id="233"  time="462267631/374100" value="0" leadInLength="1085252/18705"  interpolater="leadin-linr"  />
            <Keyframe id="234"  time="19030291/12900" value="0" leadInLength="9147124/93525"  interpolater="leadin-linr"  />
            </Keyframes>
           </InterpolatingParam>
          </VectorParam>
          <VectorParam id="235"  name="rotation">
           <InterpolatingParam id="236" interp="linr"  >
            <Keyframes>
            <Keyframe id="237"  time="-9999999/1" value="0" leadInLength="0/1"  interpolater="leadin-linr"  />
            <Keyframe id="238"  time="304130911/374100" value="0" leadInLength="852698/93525"  interpolater="leadin-linr"  />
            <Keyframe id="239"  time="4311405/4988" value="0" leadInLength="4806116/93525"  interpolater="leadin-linr"  />
            <Keyframe id="240"  time="462267631/374100" value="0" leadInLength="1085252/18705"  interpolater="leadin-linr"  />
            <Keyframe id="241"  time="19030291/12900" value="0" leadInLength="9147124/93525"  interpolater="leadin-linr"  />
            </Keyframes>
           </InterpolatingParam>
           <InterpolatingParam id="242" interp="linr"  >
            <Keyframes>
            <Keyframe id="243"  time="-9999999/1" value="0" leadInLength="0/1"  interpolater="leadin-linr"  />
            <Keyframe id="244"  time="304130911/374100" value="0" leadInLength="852698/93525"  interpolater="leadin-linr"  />
            <Keyframe id="245"  time="4311405/4988" value="0" leadInLength="4806116/93525"  interpolater="leadin-linr"  />
            <Keyframe id="246"  time="462267631/374100" value="0" leadInLength="1085252/18705"  interpolater="leadin-linr"  />
            <Keyframe id="247"  time="19030291/12900" value="0" leadInLength="9147124/93525"  interpolater="leadin-linr"  />
            </Keyframes>
           </InterpolatingParam>
           <InterpolatingParam id="248" interp="linr"  >
            <Keyframes>
            <Keyframe id="249"  time="-9999999/1" value="0" leadInLength="0/1"  interpolater="leadin-linr"  />
            <Keyframe id="250"  time="304130911/374100" value="0" leadInLength="852698/93525"  interpolater="leadin-linr"  />
            <Keyframe id="251"  time="4311405/4988" value="0" leadInLength="4806116/93525"  interpolater="leadin-linr"  />
            <Keyframe id="252"  time="462267631/374100" value="0" leadInLength="1085252/18705"  interpolater="leadin-linr"  />
            <Keyframe id="253"  time="19030291/12900" value="0" leadInLength="9147124/93525"  interpolater="leadin-linr"  />
            </Keyframes>
           </InterpolatingParam>
          </VectorParam>
          <VectorParam id="254"  name="shear">
           <InterpolatingParam id="255" interp="linr"  >
            <Keyframes>
            <Keyframe id="256"  time="-9999999/1" value="0" leadInLength="0/1"  interpolater="leadin-linr"  />
            <Keyframe id="257"  time="304130911/374100" value="0" leadInLength="852698/93525"  interpolater="leadin-linr"  />
            <Keyframe id="258"  time="4311405/4988" value="0" leadInLength="4806116/93525"  interpolater="leadin-linr"  />
            <Keyframe id="259"  time="462267631/374100" value="0" leadInLength="1085252/18705"  interpolater="leadin-linr"  />
            <Keyframe id="260"  time="19030291/12900" value="0" leadInLength="9147124/93525"  interpolater="leadin-linr"  />
            </Keyframes>
           </InterpolatingParam>
           <InterpolatingParam id="261" interp="linr"  >
            <Keyframes>
            <Keyframe id="262"  time="-9999999/1" value="0" leadInLength="0/1"  interpolater="leadin-linr"  />
            <Keyframe id="263"  time="304130911/374100" value="0" leadInLength="852698/93525"  interpolater="leadin-linr"  />
            <Keyframe id="264"  time="4311405/4988" value="0" leadInLength="4806116/93525"  interpolater="leadin-linr"  />
            <Keyframe id="265"  time="462267631/374100" value="0" leadInLength="1085252/18705"  interpolater="leadin-linr"  />
            <Keyframe id="266"  time="19030291/12900" value="0" leadInLength="9147124/93525"  interpolater="leadin-linr"  />
            </Keyframes>
           </InterpolatingParam>
           <InterpolatingParam id="267" interp="linr"  >
            <Keyframes>
            <Keyframe id="268"  time="-9999999/1" value="0" leadInLength="0/1"  interpolater="leadin-linr"  />
            <Keyframe id="269"  time="304130911/374100" value="0" leadInLength="852698/93525"  interpolater="leadin-linr"  />
            <Keyframe id="270"  time="4311405/4988" value="0" leadInLength="4806116/93525"  interpolater="leadin-linr"  />
            <Keyframe id="271"  time="462267631/374100" value="0" leadInLength="1085252/18705"  interpolater="leadin-linr"  />
            <Keyframe id="272"  time="19030291/12900" value="0" leadInLength="9147124/93525"  interpolater="leadin-linr"  />
            </Keyframes>
           </InterpolatingParam>
          </VectorParam>
          <VectorParam id="273"  name="scale">
           <InterpolatingParam id="274" interp="linr"  >
            <Keyframes>
            <Keyframe id="275"  time="-9999999/1" value="0.66666666666666663" leadInLength="0/1"  interpolater="leadin-linr"  />
            <Keyframe id="276"  time="304130911/374100" value="0.68613550685426872" leadInLength="852698/93525"  interpolater="leadin-linr"  />
            <Keyframe id="277"  time="4311405/4988" value="0.79516101190484045" leadInLength="4806116/93525"  interpolater="leadin-linr"  />
            <Keyframe id="278"  time="462267631/374100" value="0.79516101190484045" leadInLength="1085252/18705"  interpolater="leadin-linr"  />
            <Keyframe id="279"  time="19030291/12900" value="0.66666666666666663" leadInLength="9147124/93525"  interpolater="leadin-linr"  />
            </Keyframes>
           </InterpolatingParam>
           <InterpolatingParam id="280" interp="linr"  >
            <Keyframes>
            <Keyframe id="281"  time="-9999999/1" value="0.66666666666666663" leadInLength="0/1"  interpolater="leadin-linr"  />
            <Keyframe id="282"  time="304130911/374100" value="0.68613550685426872" leadInLength="852698/93525"  interpolater="leadin-linr"  />
            <Keyframe id="283"  time="4311405/4988" value="0.79516101190484079" leadInLength="4806116/93525"  interpolater="leadin-linr"  />
            <Keyframe id="284"  time="462267631/374100" value="0.79516101190484079" leadInLength="1085252/18705"  interpolater="leadin-linr"  />
            <Keyframe id="285"  time="19030291/12900" value="0.66666666666666663" leadInLength="9147124/93525"  interpolater="leadin-linr"  />
            </Keyframes>
           </InterpolatingParam>
           <InterpolatingParam id="286" interp="linr"  >
            <Keyframes>
            <Keyframe id="287"  time="-9999999/1" value="1" leadInLength="0/1"  interpolater="leadin-linr"  />
            <Keyframe id="288"  time="304130911/374100" value="1" leadInLength="852698/93525"  interpolater="leadin-linr"  />
            <Keyframe id="289"  time="4311405/4988" value="1" leadInLength="4806116/93525"  interpolater="leadin-linr"  />
            <Keyframe id="290"  time="462267631/374100" value="1" leadInLength="1085252/18705"  interpolater="leadin-linr"  />
            <Keyframe id="291"  time="19030291/12900" value="1" leadInLength="9147124/93525"  interpolater="leadin-linr"  />
            </Keyframes>
           </InterpolatingParam>
          </VectorParam>
          <VectorParam id="292"  name="anchor">
           <InterpolatingParam id="293" interp="linr"  time="0/1" value="0" leadInLength="0/1"  />
           <InterpolatingParam id="294" interp="linr"  time="0/1" value="0" leadInLength="0/1"  />
           <InterpolatingParam id="295" interp="linr"  time="0/1" value="0" leadInLength="0/1"  />
          </VectorParam>
         </Transformer>
         <Parameters>
          <VectorParam id="296"  name="sourceCrop">
           <InterpolatingParam id="297" interp="linr"  time="0/1" value="0" leadInLength="0/1"  />
           <InterpolatingParam id="298" interp="linr"  time="0/1" value="0" leadInLength="0/1"  />
           <InterpolatingParam id="299" interp="linr"  time="0/1" value="0" leadInLength="0/1"  />
           <InterpolatingParam id="300" interp="linr"  time="0/1" value="0" leadInLength="0/1"  />
          </VectorParam>
          <VectorParam id="301"  name="geometryCrop">
           <InterpolatingParam id="302" interp="linr"  >
            <Keyframes>
            <Keyframe id="303"  time="-9999999/1" value="0" leadInLength="0/1"  interpolater="leadin-linr"  />
            <Keyframe id="304"  time="304130911/374100" value="0" leadInLength="852698/93525"  interpolater="leadin-linr"  />
            <Keyframe id="305"  time="4311405/4988" value="0" leadInLength="4806116/93525"  interpolater="leadin-linr"  />
            <Keyframe id="306"  time="462267631/374100" value="0" leadInLength="1085252/18705"  interpolater="leadin-linr"  />
            <Keyframe id="307"  time="19030291/12900" value="0" leadInLength="9147124/93525"  interpolater="leadin-linr"  />
            </Keyframes>
           </InterpolatingParam>
           <InterpolatingParam id="308" interp="linr"  >
            <Keyframes>
            <Keyframe id="309"  time="-9999999/1" value="0" leadInLength="0/1"  interpolater="leadin-linr"  />
            <Keyframe id="310"  time="304130911/374100" value="0" leadInLength="852698/93525"  interpolater="leadin-linr"  />
            <Keyframe id="311"  time="4311405/4988" value="0" leadInLength="4806116/93525"  interpolater="leadin-linr"  />
            <Keyframe id="312"  time="462267631/374100" value="0" leadInLength="1085252/18705"  interpolater="leadin-linr"  />
            <Keyframe id="313"  time="19030291/12900" value="0" leadInLength="9147124/93525"  interpolater="leadin-linr"  />
            </Keyframes>
           </InterpolatingParam>
           <InterpolatingParam id="314" interp="linr"  >
            <Keyframes>
            <Keyframe id="315"  time="-9999999/1" value="0" leadInLength="0/1"  interpolater="leadin-linr"  />
            <Keyframe id="316"  time="304130911/374100" value="0" leadInLength="852698/93525"  interpolater="leadin-linr"  />
            <Keyframe id="317"  time="4311405/4988" value="0" leadInLength="4806116/93525"  interpolater="leadin-linr"  />
            <Keyframe id="318"  time="462267631/374100" value="0" leadInLength="1085252/18705"  interpolater="leadin-linr"  />
            <Keyframe id="319"  time="19030291/12900" value="0" leadInLength="9147124/93525"  interpolater="leadin-linr"  />
            </Keyframes>
           </InterpolatingParam>
           <InterpolatingParam id="320" interp="linr"  >
            <Keyframes>
            <Keyframe id="321"  time="-9999999/1" value="0" leadInLength="0/1"  interpolater="leadin-linr"  />
            <Keyframe id="322"  time="304130911/374100" value="0" leadInLength="852698/93525"  interpolater="leadin-linr"  />
            <Keyframe id="323"  time="4311405/4988" value="0" leadInLength="4806116/93525"  interpolater="leadin-linr"  />
            <Keyframe id="324"  time="462267631/374100" value="0" leadInLength="1085252/18705"  interpolater="leadin-linr"  />
            <Keyframe id="325"  time="19030291/12900" value="0" leadInLength="9147124/93525"  interpolater="leadin-linr"  />
            </Keyframes>
           </InterpolatingParam>
          </VectorParam>
          <InterpolatingParam id="326" interp="linr"  name="opacity">
           <Keyframes>
           <Keyframe id="327"  time="-9999999/1" value="1" leadInLength="0/1"  interpolater="leadin-linr"  />
           <Keyframe id="328"  time="304130911/374100" value="1" leadInLength="852698/93525"  interpolater="leadin-linr"  />
           <Keyframe id="329"  time="4311405/4988" value="1" leadInLength="4806116/93525"  interpolater="leadin-linr"  />
           <Keyframe id="330"  time="462267631/374100" value="1" leadInLength="1085252/18705"  interpolater="leadin-linr"  />
           <Keyframe id="331"  time="19030291/12900" value="1" leadInLength="9147124/93525"  interpolater="leadin-linr"  />
           </Keyframes>
          </InterpolatingParam>
         </Parameters>
         <Attributes>
          <Attribute id="332" value="" name="ident"/>
         </Attributes>
         <MetaData>
          <entry key="WinSubProjectDisplayName" val=""/>
         </MetaData>
         <ExtraData>
          <Entry key="ZoomPanBin">
           <ZoomPanBin id="333"  >
            <ZoomPanKeyframes>
             <ZoomPanKeyframe id="334" timeRangeEnd="-9999999/1" timeRangeDuration="0/1" interpolaterName="leadin-linr"  />
             <ZoomPanKeyframe id="335" timeRangeEnd="4311405/4988" timeRangeDuration="4806116/93525" interpolaterName="linr"  />
             <ZoomPanKeyframe id="336" timeRangeEnd="19030291/12900" timeRangeDuration="9147124/93525" interpolaterName="linr"  />
             <ZoomPanKeyframe id="337" timeRangeEnd="462267631/374100" timeRangeDuration="1085252/18705" interpolaterName="linr"  />
             <ZoomPanKeyframe id="338" timeRangeEnd="304130911/374100" timeRangeDuration="852698/93525" interpolaterName="linr"  />
            </ZoomPanKeyframes>
           </ZoomPanBin>
          </Entry>
         </ExtraData>
        </VMFile>
        <VMFile id="339" start="1027" duration="384" scalar="344000/342503" mediaStart="999957/860" mediaDuration="2055018/5375" trackNumber="0" src="4" >
         <Transformer>
          <VectorParam id="340"  name="translation">
           <InterpolatingParam id="341" interp="linr"  >
            <Keyframes>
            <Keyframe id="342"  time="-9999999/1" value="7.3669070843607187e-011" leadInLength="0/1"  interpolater="leadin-linr"  />
            <Keyframe id="343"  time="280449253/344000" value="15.226883116952516" leadInLength="3082527/344000"  interpolater="leadin-linr"  />
            <Keyframe id="344"  time="298259409/344000" value="100.49742857147456" leadInLength="4452539/86000"  interpolater="leadin-linr"  />
            <Keyframe id="345"  time="424985519/344000" value="-99.502571428509924" leadInLength="20207677/344000"  interpolater="leadin-linr"  />
            <Keyframe id="346"  time="5901497/4000" value="7.3669070843607187e-011" leadInLength="33907797/344000"  interpolater="leadin-linr"  />
            </Keyframes>
           </InterpolatingParam>
           <InterpolatingParam id="347" interp="linr"  >
            <Keyframes>
            <Keyframe id="348"  time="-9999999/1" value="7.3972235744198159e-011" leadInLength="0/1"  interpolater="leadin-linr"  />
            <Keyframe id="349"  time="280449253/344000" value="-5.751268939360858" leadInLength="3082527/344000"  interpolater="leadin-linr"  />
            <Keyframe id="350"  time="298259409/344000" value="-37.958375000196092" leadInLength="4452539/86000"  interpolater="leadin-linr"  />
            <Keyframe id="351"  time="424985519/344000" value="-35.101232143051995" leadInLength="20207677/344000"  interpolater="leadin-linr"  />
            <Keyframe id="352"  time="5901497/4000" value="7.3972235744198159e-011" leadInLength="33907797/344000"  interpolater="leadin-linr"  />
            </Keyframes>
           </InterpolatingParam>
           <InterpolatingParam id="353" interp="linr"  >
            <Keyframes>
            <Keyframe id="354"  time="-9999999/1" value="0" leadInLength="0/1"  interpolater="leadin-linr"  />
            <Keyframe id="355"  time="280449253/344000" value="0" leadInLength="3082527/344000"  interpolater="leadin-linr"  />
            <Keyframe id="356"  time="298259409/344000" value="0" leadInLength="4452539/86000"  interpolater="leadin-linr"  />
            <Keyframe id="357"  time="424985519/344000" value="0" leadInLength="20207677/344000"  interpolater="leadin-linr"  />
            <Keyframe id="358"  time="5901497/4000" value="0" leadInLength="33907797/344000"  interpolater="leadin-linr"  />
            </Keyframes>
           </InterpolatingParam>
          </VectorParam>
          <VectorParam id="359"  name="rotation">
           <InterpolatingParam id="360" interp="linr"  >
            <Keyframes>
            <Keyframe id="361"  time="-9999999/1" value="0" leadInLength="0/1"  interpolater="leadin-linr"  />
            <Keyframe id="362"  time="280449253/344000" value="0" leadInLength="3082527/344000"  interpolater="leadin-linr"  />
            <Keyframe id="363"  time="298259409/344000" value="0" leadInLength="4452539/86000"  interpolater="leadin-linr"  />
            <Keyframe id="364"  time="424985519/344000" value="0" leadInLength="20207677/344000"  interpolater="leadin-linr"  />
            <Keyframe id="365"  time="5901497/4000" value="0" leadInLength="33907797/344000"  interpolater="leadin-linr"  />
            </Keyframes>
           </InterpolatingParam>
           <InterpolatingParam id="366" interp="linr"  >
            <Keyframes>
            <Keyframe id="367"  time="-9999999/1" value="0" leadInLength="0/1"  interpolater="leadin-linr"  />
            <Keyframe id="368"  time="280449253/344000" value="0" leadInLength="3082527/344000"  interpolater="leadin-linr"  />
            <Keyframe id="369"  time="298259409/344000" value="0" leadInLength="4452539/86000"  interpolater="leadin-linr"  />
            <Keyframe id="370"  time="424985519/344000" value="0" leadInLength="20207677/344000"  interpolater="leadin-linr"  />
            <Keyframe id="371"  time="5901497/4000" value="0" leadInLength="33907797/344000"  interpolater="leadin-linr"  />
            </Keyframes>
           </InterpolatingParam>
           <InterpolatingParam id="372" interp="linr"  >
            <Keyframes>
            <Keyframe id="373"  time="-9999999/1" value="0" leadInLength="0/1"  interpolater="leadin-linr"  />
            <Keyframe id="374"  time="280449253/344000" value="0" leadInLength="3082527/344000"  interpolater="leadin-linr"  />
            <Keyframe id="375"  time="298259409/344000" value="0" leadInLength="4452539/86000"  interpolater="leadin-linr"  />
            <Keyframe id="376"  time="424985519/344000" value="0" leadInLength="20207677/344000"  interpolater="leadin-linr"  />
            <Keyframe id="377"  time="5901497/4000" value="0" leadInLength="33907797/344000"  interpolater="leadin-linr"  />
            </Keyframes>
           </InterpolatingParam>
          </VectorParam>
          <VectorParam id="378"  name="shear">
           <InterpolatingParam id="379" interp="linr"  >
            <Keyframes>
            <Keyframe id="380"  time="-9999999/1" value="0" leadInLength="0/1"  interpolater="leadin-linr"  />
            <Keyframe id="381"  time="280449253/344000" value="0" leadInLength="3082527/344000"  interpolater="leadin-linr"  />
            <Keyframe id="382"  time="298259409/344000" value="0" leadInLength="4452539/86000"  interpolater="leadin-linr"  />
            <Keyframe id="383"  time="424985519/344000" value="0" leadInLength="20207677/344000"  interpolater="leadin-linr"  />
            <Keyframe id="384"  time="5901497/4000" value="0" leadInLength="33907797/344000"  interpolater="leadin-linr"  />
            </Keyframes>
           </InterpolatingParam>
           <InterpolatingParam id="385" interp="linr"  >
            <Keyframes>
            <Keyframe id="386"  time="-9999999/1" value="0" leadInLength="0/1"  interpolater="leadin-linr"  />
            <Keyframe id="387"  time="280449253/344000" value="0" leadInLength="3082527/344000"  interpolater="leadin-linr"  />
            <Keyframe id="388"  time="298259409/344000" value="0" leadInLength="4452539/86000"  interpolater="leadin-linr"  />
            <Keyframe id="389"  time="424985519/344000" value="0" leadInLength="20207677/344000"  interpolater="leadin-linr"  />
            <Keyframe id="390"  time="5901497/4000" value="0" leadInLength="33907797/344000"  interpolater="leadin-linr"  />
            </Keyframes>
           </InterpolatingParam>
           <InterpolatingParam id="391" interp="linr"  >
            <Keyframes>
            <Keyframe id="392"  time="-9999999/1" value="0" leadInLength="0/1"  interpolater="leadin-linr"  />
            <Keyframe id="393"  time="280449253/344000" value="0" leadInLength="3082527/344000"  interpolater="leadin-linr"  />
            <Keyframe id="394"  time="298259409/344000" value="0" leadInLength="4452539/86000"  interpolater="leadin-linr"  />
            <Keyframe id="395"  time="424985519/344000" value="0" leadInLength="20207677/344000"  interpolater="leadin-linr"  />
            <Keyframe id="396"  time="5901497/4000" value="0" leadInLength="33907797/344000"  interpolater="leadin-linr"  />
            </Keyframes>
           </InterpolatingParam>
          </VectorParam>
          <VectorParam id="397"  name="scale">
           <InterpolatingParam id="398" interp="linr"  >
            <Keyframes>
            <Keyframe id="399"  time="-9999999/1" value="0.66666666666666663" leadInLength="0/1"  interpolater="leadin-linr"  />
            <Keyframe id="400"  time="280449253/344000" value="0.68613550685426872" leadInLength="3082527/344000"  interpolater="leadin-linr"  />
            <Keyframe id="401"  time="298259409/344000" value="0.79516101190484045" leadInLength="4452539/86000"  interpolater="leadin-linr"  />
            <Keyframe id="402"  time="424985519/344000" value="0.79516101190484045" leadInLength="20207677/344000"  interpolater="leadin-linr"  />
            <Keyframe id="403"  time="5901497/4000" value="0.66666666666666663" leadInLength="33907797/344000"  interpolater="leadin-linr"  />
            </Keyframes>
           </InterpolatingParam>
           <InterpolatingParam id="404" interp="linr"  >
            <Keyframes>
            <Keyframe id="405"  time="-9999999/1" value="0.66666666666666663" leadInLength="0/1"  interpolater="leadin-linr"  />
            <Keyframe id="406"  time="280449253/344000" value="0.68613550685426872" leadInLength="3082527/344000"  interpolater="leadin-linr"  />
            <Keyframe id="407"  time="298259409/344000" value="0.79516101190484079" leadInLength="4452539/86000"  interpolater="leadin-linr"  />
            <Keyframe id="408"  time="424985519/344000" value="0.79516101190484079" leadInLength="20207677/344000"  interpolater="leadin-linr"  />
            <Keyframe id="409"  time="5901497/4000" value="0.66666666666666663" leadInLength="33907797/344000"  interpolater="leadin-linr"  />
            </Keyframes>
           </InterpolatingParam>
           <InterpolatingParam id="410" interp="linr"  >
            <Keyframes>
            <Keyframe id="411"  time="-9999999/1" value="1" leadInLength="0/1"  interpolater="leadin-linr"  />
            <Keyframe id="412"  time="280449253/344000" value="1" leadInLength="3082527/344000"  interpolater="leadin-linr"  />
            <Keyframe id="413"  time="298259409/344000" value="1" leadInLength="4452539/86000"  interpolater="leadin-linr"  />
            <Keyframe id="414"  time="424985519/344000" value="1" leadInLength="20207677/344000"  interpolater="leadin-linr"  />
            <Keyframe id="415"  time="5901497/4000" value="1" leadInLength="33907797/344000"  interpolater="leadin-linr"  />
            </Keyframes>
           </InterpolatingParam>
          </VectorParam>
          <VectorParam id="416"  name="anchor">
           <InterpolatingParam id="417" interp="linr"  time="0/1" value="0" leadInLength="0/1"  />
           <InterpolatingParam id="418" interp="linr"  time="0/1" value="0" leadInLength="0/1"  />
           <InterpolatingParam id="419" interp="linr"  time="0/1" value="0" leadInLength="0/1"  />
          </VectorParam>
         </Transformer>
         <Parameters>
          <VectorParam id="420"  name="sourceCrop">
           <InterpolatingParam id="421" interp="linr"  time="0/1" value="0" leadInLength="0/1"  />
           <InterpolatingParam id="422" interp="linr"  time="0/1" value="0" leadInLength="0/1"  />
           <InterpolatingParam id="423" interp="linr"  time="0/1" value="0" leadInLength="0/1"  />
           <InterpolatingParam id="424" interp="linr"  time="0/1" value="0" leadInLength="0/1"  />
          </VectorParam>
          <VectorParam id="425"  name="geometryCrop">
           <InterpolatingParam id="426" interp="linr"  >
            <Keyframes>
            <Keyframe id="427"  time="-9999999/1" value="0" leadInLength="0/1"  interpolater="leadin-linr"  />
            <Keyframe id="428"  time="280449253/344000" value="0" leadInLength="3082527/344000"  interpolater="leadin-linr"  />
            <Keyframe id="429"  time="298259409/344000" value="0" leadInLength="4452539/86000"  interpolater="leadin-linr"  />
            <Keyframe id="430"  time="424985519/344000" value="0" leadInLength="20207677/344000"  interpolater="leadin-linr"  />
            <Keyframe id="431"  time="5901497/4000" value="0" leadInLength="33907797/344000"  interpolater="leadin-linr"  />
            </Keyframes>
           </InterpolatingParam>
           <InterpolatingParam id="432" interp="linr"  >
            <Keyframes>
            <Keyframe id="433"  time="-9999999/1" value="0" leadInLength="0/1"  interpolater="leadin-linr"  />
            <Keyframe id="434"  time="280449253/344000" value="0" leadInLength="3082527/344000"  interpolater="leadin-linr"  />
            <Keyframe id="435"  time="298259409/344000" value="0" leadInLength="4452539/86000"  interpolater="leadin-linr"  />
            <Keyframe id="436"  time="424985519/344000" value="0" leadInLength="20207677/344000"  interpolater="leadin-linr"  />
            <Keyframe id="437"  time="5901497/4000" value="0" leadInLength="33907797/344000"  interpolater="leadin-linr"  />
            </Keyframes>
           </InterpolatingParam>
           <InterpolatingParam id="438" interp="linr"  >
            <Keyframes>
            <Keyframe id="439"  time="-9999999/1" value="0" leadInLength="0/1"  interpolater="leadin-linr"  />
            <Keyframe id="440"  time="280449253/344000" value="0" leadInLength="3082527/344000"  interpolater="leadin-linr"  />
            <Keyframe id="441"  time="298259409/344000" value="0" leadInLength="4452539/86000"  interpolater="leadin-linr"  />
            <Keyframe id="442"  time="424985519/344000" value="0" leadInLength="20207677/344000"  interpolater="leadin-linr"  />
            <Keyframe id="443"  time="5901497/4000" value="0" leadInLength="33907797/344000"  interpolater="leadin-linr"  />
            </Keyframes>
           </InterpolatingParam>
           <InterpolatingParam id="444" interp="linr"  >
            <Keyframes>
            <Keyframe id="445"  time="-9999999/1" value="0" leadInLength="0/1"  interpolater="leadin-linr"  />
            <Keyframe id="446"  time="280449253/344000" value="0" leadInLength="3082527/344000"  interpolater="leadin-linr"  />
            <Keyframe id="447"  time="298259409/344000" value="0" leadInLength="4452539/86000"  interpolater="leadin-linr"  />
            <Keyframe id="448"  time="424985519/344000" value="0" leadInLength="20207677/344000"  interpolater="leadin-linr"  />
            <Keyframe id="449"  time="5901497/4000" value="0" leadInLength="33907797/344000"  interpolater="leadin-linr"  />
            </Keyframes>
           </InterpolatingParam>
          </VectorParam>
          <InterpolatingParam id="450" interp="linr"  name="opacity">
           <Keyframes>
           <Keyframe id="451"  time="-9999999/1" value="1" leadInLength="0/1"  interpolater="leadin-linr"  />
           <Keyframe id="452"  time="280449253/344000" value="1" leadInLength="3082527/344000"  interpolater="leadin-linr"  />
           <Keyframe id="453"  time="298259409/344000" value="1" leadInLength="4452539/86000"  interpolater="leadin-linr"  />
           <Keyframe id="454"  time="424985519/344000" value="1" leadInLength="20207677/344000"  interpolater="leadin-linr"  />
           <Keyframe id="455"  time="5901497/4000" value="1" leadInLength="33907797/344000"  interpolater="leadin-linr"  />
           </Keyframes>
          </InterpolatingParam>
         </Parameters>
         <Attributes>
          <Attribute id="456" value="" name="ident"/>
         </Attributes>
         <MetaData>
          <entry key="WinSubProjectDisplayName" val=""/>
         </MetaData>
         <ExtraData>
          <Entry key="ZoomPanBin">
           <ZoomPanBin id="457"  >
            <ZoomPanKeyframes>
             <ZoomPanKeyframe id="458" timeRangeEnd="-9999999/1" timeRangeDuration="0/1" interpolaterName="leadin-linr"  />
             <ZoomPanKeyframe id="459" timeRangeEnd="298259409/344000" timeRangeDuration="4452539/86000" interpolaterName="linr"  />
             <ZoomPanKeyframe id="460" timeRangeEnd="5901497/4000" timeRangeDuration="33907797/344000" interpolaterName="linr"  />
             <ZoomPanKeyframe id="461" timeRangeEnd="424985519/344000" timeRangeDuration="20207677/344000" interpolaterName="linr"  />
             <ZoomPanKeyframe id="462" timeRangeEnd="280449253/344000" timeRangeDuration="3082527/344000" interpolaterName="linr"  />
            </ZoomPanKeyframes>
           </ZoomPanBin>
          </Entry>
         </ExtraData>
        </VMFile>
        <UnifiedMedia id="463"  >
         <AudioTransition id="464" start="1411" duration="16" >
          <Parameters>
           <InterpolatingParam id="465" interp="linr"  time="0/1" value="1" leadInLength="0/1"  name="volume"/>
           <Parameter id="466"  name="captions"/>
          </Parameters>
          <Effects>
           <GenericEffect id="467" name = "AudioTransition" >
            <Parameters>
            <Parameter id="468"   name="audioEdgeModType">
             <Keyframes>
             <Keyframe id="469"  time="0/1" value="0" leadInLength="0/1"  />
             </Keyframes>
            </Parameter>
            <Parameter id="470"   name="audioTransitionType">
             <Keyframes>
             <Keyframe id="471"  time="0/1" value="" leadInLength="0/1"  />
             </Keyframes>
            </Parameter>
            </Parameters>
            <MetaData>
            </MetaData>
           </GenericEffect>
          </Effects>
          <Attributes>
           <Attribute id="472" value="" name="ident"/>
           <Attribute id="473" value="0" name="sampleRate"/>
           <Attribute id="474" value="0" name="bitDepth"/>
           <Attribute id="475" value="1" name="gain"/>
           <Attribute id="476" value="0" name="mixToMono"/>
          </Attributes>
         </AudioTransition>
         <ImageTransition id="477" start="1411" duration="16" >
          <Transformer>
           <VectorParam id="478"  name="translation">
            <InterpolatingParam id="479" interp="linr"  time="0/1" value="0" leadInLength="0/1"  />
            <InterpolatingParam id="480" interp="linr"  time="0/1" value="0" leadInLength="0/1"  />
            <InterpolatingParam id="481" interp="linr"  time="0/1" value="0" leadInLength="0/1"  />
           </VectorParam>
           <VectorParam id="482"  name="rotation">
            <InterpolatingParam id="483" interp="linr"  time="0/1" value="0" leadInLength="0/1"  />
            <InterpolatingParam id="484" interp="linr"  time="0/1" value="0" leadInLength="0/1"  />
            <InterpolatingParam id="485" interp="linr"  time="0/1" value="0" leadInLength="0/1"  />
           </VectorParam>
           <VectorParam id="486"  name="shear">
            <InterpolatingParam id="487" interp="linr"  time="0/1" value="0" leadInLength="0/1"  />
            <InterpolatingParam id="488" interp="linr"  time="0/1" value="0" leadInLength="0/1"  />
            <InterpolatingParam id="489" interp="linr"  time="0/1" value="0" leadInLength="0/1"  />
           </VectorParam>
           <VectorParam id="490"  name="scale">
            <InterpolatingParam id="491" interp="linr"  time="0/1" value="1" leadInLength="0/1"  />
            <InterpolatingParam id="492" interp="linr"  time="0/1" value="1" leadInLength="0/1"  />
            <InterpolatingParam id="493" interp="linr"  time="0/1" value="1" leadInLength="0/1"  />
           </VectorParam>
           <VectorParam id="494"  name="anchor">
            <InterpolatingParam id="495" interp="linr"  time="0/1" value="0" leadInLength="0/1"  />
            <InterpolatingParam id="496" interp="linr"  time="0/1" value="0" leadInLength="0/1"  />
            <InterpolatingParam id="497" interp="linr"  time="0/1" value="0" leadInLength="0/1"  />
           </VectorParam>
          </Transformer>
          <Parameters>
           <VectorParam id="498"  name="sourceCrop">
            <InterpolatingParam id="499" interp="linr"  time="0/1" value="0" leadInLength="0/1"  />
            <InterpolatingParam id="500" interp="linr"  time="0/1" value="0" leadInLength="0/1"  />
            <InterpolatingParam id="501" interp="linr"  time="0/1" value="0" leadInLength="0/1"  />
            <InterpolatingParam id="502" interp="linr"  time="0/1" value="0" leadInLength="0/1"  />
           </VectorParam>
           <VectorParam id="503"  name="geometryCrop">
            <InterpolatingParam id="504" interp="linr"  time="0/1" value="0" leadInLength="0/1"  />
            <InterpolatingParam id="505" interp="linr"  time="0/1" value="0" leadInLength="0/1"  />
            <InterpolatingParam id="506" interp="linr"  time="0/1" value="0" leadInLength="0/1"  />
            <InterpolatingParam id="507" interp="linr"  time="0/1" value="0" leadInLength="0/1"  />
           </VectorParam>
           <InterpolatingParam id="508" interp="linr"  time="0/1" value="1" leadInLength="0/1"  name="opacity"/>
          </Parameters>
          <Effects>
           <GenericEffect id="509" name = "VisualTransition" >
            <Parameters>
            <InterpolatingParam id="510" interp="linr"  time="0/1" value="0.5" leadInLength="0/1"   name="leftFramePercentage"/>
            <InterpolatingParam id="511" interp="linr"  time="0/1" value="0.5" leadInLength="0/1"   name="rightFramePercentage"/>
            <Parameter id="512"   name="visualEdgeModType">
             <Keyframes>
             <Keyframe id="513"  time="0/1" value="2" leadInLength="0/1"  />
             </Keyframes>
            </Parameter>
            <Parameter id="514"   name="visualTransitionType">
             <Keyframes>
             <Keyframe id="515"  time="0/1" value="GradientWipe" leadInLength="0/1"  />
             </Keyframes>
            </Parameter>
            </Parameters>
            <MetaData>
            </MetaData>
           </GenericEffect>
          </Effects>
          <Attributes>
           <Attribute id="516" value="" name="ident"/>
          </Attributes>
          <ExtraData>
           <Entry key="ZoomPanBin">
            <ZoomPanBin id="517"  >
             <ZoomPanKeyframes>
             </ZoomPanKeyframes>
            </ZoomPanBin>
           </Entry>
          </ExtraData>
         </ImageTransition>
         <MetaData>
          <entry key="WinSubProjectDisplayName" val=""/>
         </MetaData>
        </UnifiedMedia>
        <UnifiedMedia id="518"  >
         <AudioTransition id="519" start="1427" duration="30" >
          <Parameters>
           <InterpolatingParam id="520" interp="linr"  time="0/1" value="1" leadInLength="0/1"  name="volume"/>
           <Parameter id="521"  name="captions"/>
          </Parameters>
          <Effects>
           <GenericEffect id="522" name = "AudioTransition" >
            <Parameters>
            <Parameter id="523"   name="audioEdgeModType">
             <Keyframes>
             <Keyframe id="524"  time="0/1" value="0" leadInLength="0/1"  />
             </Keyframes>
            </Parameter>
            <Parameter id="525"   name="audioTransitionType">
             <Keyframes>
             <Keyframe id="526"  time="0/1" value="" leadInLength="0/1"  />
             </Keyframes>
            </Parameter>
            </Parameters>
            <MetaData>
            </MetaData>
           </GenericEffect>
          </Effects>
          <Attributes>
           <Attribute id="527" value="" name="ident"/>
           <Attribute id="528" value="0" name="sampleRate"/>
           <Attribute id="529" value="0" name="bitDepth"/>
           <Attribute id="530" value="1" name="gain"/>
           <Attribute id="531" value="0" name="mixToMono"/>
          </Attributes>
         </AudioTransition>
         <ImageTransition id="532" start="1427" duration="30" >
          <Transformer>
           <VectorParam id="533"  name="translation">
            <InterpolatingParam id="534" interp="linr"  time="0/1" value="0" leadInLength="0/1"  />
            <InterpolatingParam id="535" interp="linr"  time="0/1" value="0" leadInLength="0/1"  />
            <InterpolatingParam id="536" interp="linr"  time="0/1" value="0" leadInLength="0/1"  />
           </VectorParam>
           <VectorParam id="537"  name="rotation">
            <InterpolatingParam id="538" interp="linr"  time="0/1" value="0" leadInLength="0/1"  />
            <InterpolatingParam id="539" interp="linr"  time="0/1" value="0" leadInLength="0/1"  />
            <InterpolatingParam id="540" interp="linr"  time="0/1" value="0" leadInLength="0/1"  />
           </VectorParam>
           <VectorParam id="541"  name="shear">
            <InterpolatingParam id="542" interp="linr"  time="0/1" value="0" leadInLength="0/1"  />
            <InterpolatingParam id="543" interp="linr"  time="0/1" value="0" leadInLength="0/1"  />
            <InterpolatingParam id="544" interp="linr"  time="0/1" value="0" leadInLength="0/1"  />
           </VectorParam>
           <VectorParam id="545"  name="scale">
            <InterpolatingParam id="546" interp="linr"  time="0/1" value="1" leadInLength="0/1"  />
            <InterpolatingParam id="547" interp="linr"  time="0/1" value="1" leadInLength="0/1"  />
            <InterpolatingParam id="548" interp="linr"  time="0/1" value="1" leadInLength="0/1"  />
           </VectorParam>
           <VectorParam id="549"  name="anchor">
            <InterpolatingParam id="550" interp="linr"  time="0/1" value="0" leadInLength="0/1"  />
            <InterpolatingParam id="551" interp="linr"  time="0/1" value="0" leadInLength="0/1"  />
            <InterpolatingParam id="552" interp="linr"  time="0/1" value="0" leadInLength="0/1"  />
           </VectorParam>
          </Transformer>
          <Parameters>
           <VectorParam id="553"  name="sourceCrop">
            <InterpolatingParam id="554" interp="linr"  time="0/1" value="0" leadInLength="0/1"  />
            <InterpolatingParam id="555" interp="linr"  time="0/1" value="0" leadInLength="0/1"  />
            <InterpolatingParam id="556" interp="linr"  time="0/1" value="0" leadInLength="0/1"  />
            <InterpolatingParam id="557" interp="linr"  time="0/1" value="0" leadInLength="0/1"  />
           </VectorParam>
           <VectorParam id="558"  name="geometryCrop">
            <InterpolatingParam id="559" interp="linr"  time="0/1" value="0" leadInLength="0/1"  />
            <InterpolatingParam id="560" interp="linr"  time="0/1" value="0" leadInLength="0/1"  />
            <InterpolatingParam id="561" interp="linr"  time="0/1" value="0" leadInLength="0/1"  />
            <InterpolatingParam id="562" interp="linr"  time="0/1" value="0" leadInLength="0/1"  />
           </VectorParam>
           <InterpolatingParam id="563" interp="linr"  time="0/1" value="1" leadInLength="0/1"  name="opacity"/>
          </Parameters>
          <Effects>
           <GenericEffect id="564" name = "VisualTransition" >
            <Parameters>
            <InterpolatingParam id="565" interp="linr"  time="0/1" value="0.5" leadInLength="0/1"   name="leftFramePercentage"/>
            <InterpolatingParam id="566" interp="linr"  time="0/1" value="0.5" leadInLength="0/1"   name="rightFramePercentage"/>
            <Parameter id="567"   name="visualEdgeModType">
             <Keyframes>
             <Keyframe id="568"  time="0/1" value="1" leadInLength="0/1"  />
             </Keyframes>
            </Parameter>
            <Parameter id="569"   name="visualTransitionType">
             <Keyframes>
             <Keyframe id="570"  time="0/1" value="Fade" leadInLength="0/1"  />
             </Keyframes>
            </Parameter>
            </Parameters>
            <MetaData>
            </MetaData>
           </GenericEffect>
          </Effects>
          <Attributes>
           <Attribute id="571" value="" name="ident"/>
          </Attributes>
          <ExtraData>
           <Entry key="ZoomPanBin">
            <ZoomPanBin id="572"  >
             <ZoomPanKeyframes>
             </ZoomPanKeyframes>
            </ZoomPanBin>
           </Entry>
          </ExtraData>
         </ImageTransition>
         <MetaData>
          <entry key="WinSubProjectDisplayName" val=""/>
         </MetaData>
        </UnifiedMedia>
        <IMFile id="573" start="1457" duration="75" scalar="35/67" mediaStart="0/1" mediaDuration="1/1" trackNumber="0" src="12" trimStartSum="402/7" >
         <Transformer>
          <VectorParam id="574"  name="translation">
           <InterpolatingParam id="575" interp="linr"  time="-9999999/1" value="0" leadInLength="0/1"  />
           <InterpolatingParam id="576" interp="linr"  time="-9999999/1" value="0" leadInLength="0/1"  />
           <InterpolatingParam id="577" interp="linr"  time="-9999999/1" value="0" leadInLength="0/1"  />
          </VectorParam>
          <VectorParam id="578"  name="rotation">
           <InterpolatingParam id="579" interp="linr"  time="-9999999/1" value="0" leadInLength="0/1"  />
           <InterpolatingParam id="580" interp="linr"  time="-9999999/1" value="0" leadInLength="0/1"  />
           <InterpolatingParam id="581" interp="linr"  time="-9999999/1" value="0" leadInLength="0/1"  />
          </VectorParam>
          <VectorParam id="582"  name="shear">
           <InterpolatingParam id="583" interp="linr"  time="-9999999/1" value="0" leadInLength="0/1"  />
           <InterpolatingParam id="584" interp="linr"  time="-9999999/1" value="0" leadInLength="0/1"  />
           <InterpolatingParam id="585" interp="linr"  time="-9999999/1" value="0" leadInLength="0/1"  />
          </VectorParam>
          <VectorParam id="586"  name="scale">
           <InterpolatingParam id="587" interp="linr"  time="-9999999/1" value="0.703125" leadInLength="0/1"  />
           <InterpolatingParam id="588" interp="linr"  time="-9999999/1" value="0.703125" leadInLength="0/1"  />
           <InterpolatingParam id="589" interp="linr"  time="-9999999/1" value="1" leadInLength="0/1"  />
          </VectorParam>
          <VectorParam id="590"  name="anchor">
           <InterpolatingParam id="591" interp="linr"  time="0/1" value="0" leadInLength="0/1"  />
           <InterpolatingParam id="592" interp="linr"  time="0/1" value="0" leadInLength="0/1"  />
           <InterpolatingParam id="593" interp="linr"  time="0/1" value="0" leadInLength="0/1"  />
          </VectorParam>
         </Transformer>
         <Parameters>
          <VectorParam id="594"  name="sourceCrop">
           <InterpolatingParam id="595" interp="linr"  time="0/1" value="0" leadInLength="0/1"  />
           <InterpolatingParam id="596" interp="linr"  time="0/1" value="0" leadInLength="0/1"  />
           <InterpolatingParam id="597" interp="linr"  time="0/1" value="0" leadInLength="0/1"  />
           <InterpolatingParam id="598" interp="linr"  time="0/1" value="0" leadInLength="0/1"  />
          </VectorParam>
          <VectorParam id="599"  name="geometryCrop">
           <InterpolatingParam id="600" interp="linr"  time="-9999999/1" value="0" leadInLength="0/1"  />
           <InterpolatingParam id="601" interp="linr"  time="-9999999/1" value="0" leadInLength="0/1"  />
           <InterpolatingParam id="602" interp="linr"  time="-9999999/1" value="0" leadInLength="0/1"  />
           <InterpolatingParam id="603" interp="linr"  time="-9999999/1" value="0" leadInLength="0/1"  />
          </VectorParam>
          <InterpolatingParam id="604" interp="linr"  time="-9999999/1" value="1" leadInLength="0/1"  name="opacity"/>
         </Parameters>
         <Attributes>
          <Attribute id="605" value="" name="ident"/>
         </Attributes>
         <MetaData>
          <entry key="WinSubProjectDisplayName" val=""/>
         </MetaData>
         <ExtraData>
          <Entry key="ZoomPanBin">
           <ZoomPanBin id="606"  >
            <ZoomPanKeyframes>
             <ZoomPanKeyframe id="607" timeRangeEnd="-9999999/1" timeRangeDuration="0/1" interpolaterName="linr"  />
            </ZoomPanKeyframes>
           </ZoomPanBin>
          </Entry>
         </ExtraData>
        </IMFile>
        <VMFile id="608" start="1532" duration="120" scalar="109880/192933" mediaStart="7485113/4387" mediaDuration="578799/2747" trackNumber="0" src="4" >
         <Transformer>
          <VectorParam id="609"  name="translation">
           <InterpolatingParam id="610" interp="linr"  time="-9999999/1" value="3.0650927990593132e-011" leadInLength="0/1"  interpolater="leadin-linr"  />
           <InterpolatingParam id="611" interp="linr"  time="-9999999/1" value="-3.5546084594291928e-011" leadInLength="0/1"  interpolater="leadin-linr"  />
           <InterpolatingParam id="612" interp="linr"  time="-9999999/1" value="0" leadInLength="0/1"  interpolater="leadin-linr"  />
          </VectorParam>
          <VectorParam id="613"  name="rotation">
           <InterpolatingParam id="614" interp="linr"  time="-9999999/1" value="0" leadInLength="0/1"  interpolater="leadin-linr"  />
           <InterpolatingParam id="615" interp="linr"  time="-9999999/1" value="0" leadInLength="0/1"  interpolater="leadin-linr"  />
           <InterpolatingParam id="616" interp="linr"  time="-9999999/1" value="0" leadInLength="0/1"  interpolater="leadin-linr"  />
          </VectorParam>
          <VectorParam id="617"  name="shear">
           <InterpolatingParam id="618" interp="linr"  time="-9999999/1" value="0" leadInLength="0/1"  interpolater="leadin-linr"  />
           <InterpolatingParam id="619" interp="linr"  time="-9999999/1" value="0" leadInLength="0/1"  interpolater="leadin-linr"  />
           <InterpolatingParam id="620" interp="linr"  time="-9999999/1" value="0" leadInLength="0/1"  interpolater="leadin-linr"  />
          </VectorParam>
          <VectorParam id="621"  name="scale">
           <InterpolatingParam id="622" interp="linr"  time="-9999999/1" value="0.66666666666666663" leadInLength="0/1"  interpolater="leadin-linr"  />
           <InterpolatingParam id="623" interp="linr"  time="-9999999/1" value="0.66666666666666663" leadInLength="0/1"  interpolater="leadin-linr"  />
           <InterpolatingParam id="624" interp="linr"  time="-9999999/1" value="1" leadInLength="0/1"  interpolater="leadin-linr"  />
          </VectorParam>
          <VectorParam id="625"  name="anchor">
           <InterpolatingParam id="626" interp="linr"  time="0/1" value="0" leadInLength="0/1"  />
           <InterpolatingParam id="627" interp="linr"  time="0/1" value="0" leadInLength="0/1"  />
           <InterpolatingParam id="628" interp="linr"  time="0/1" value="0" leadInLength="0/1"  />
          </VectorParam>
         </Transformer>
         <Parameters>
          <VectorParam id="629"  name="sourceCrop">
           <InterpolatingParam id="630" interp="linr"  time="0/1" value="0" leadInLength="0/1"  />
           <InterpolatingParam id="631" interp="linr"  time="0/1" value="0" leadInLength="0/1"  />
           <InterpolatingParam id="632" interp="linr"  time="0/1" value="0" leadInLength="0/1"  />
           <InterpolatingParam id="633" interp="linr"  time="0/1" value="0" leadInLength="0/1"  />
          </VectorParam>
          <VectorParam id="634"  name="geometryCrop">
           <InterpolatingParam id="635" interp="linr"  time="-9999999/1" value="0" leadInLength="0/1"  interpolater="leadin-linr"  />
           <InterpolatingParam id="636" interp="linr"  time="-9999999/1" value="0" leadInLength="0/1"  interpolater="leadin-linr"  />
           <InterpolatingParam id="637" interp="linr"  time="-9999999/1" value="0" leadInLength="0/1"  interpolater="leadin-linr"  />
           <InterpolatingParam id="638" interp="linr"  time="-9999999/1" value="0" leadInLength="0/1"  interpolater="leadin-linr"  />
          </VectorParam>
          <InterpolatingParam id="639" interp="linr"  time="-9999999/1" value="1" leadInLength="0/1"  interpolater="leadin-linr"  name="opacity"/>
         </Parameters>
         <Attributes>
          <Attribute id="640" value="" name="ident"/>
         </Attributes>
         <MetaData>
          <entry key="WinSubProjectDisplayName" val=""/>
         </MetaData>
         <ExtraData>
          <Entry key="ZoomPanBin">
           <ZoomPanBin id="641"  >
            <ZoomPanKeyframes>
             <ZoomPanKeyframe id="642" timeRangeEnd="-9999999/1" timeRangeDuration="0/1" interpolaterName="leadin-linr"  />
            </ZoomPanKeyframes>
           </ZoomPanBin>
          </Entry>
         </ExtraData>
        </VMFile>
        <VMFile id="643" start="1652" duration="128" scalar="242112/43757" mediaStart="24288188/11349" mediaDuration="87514/3783" trackNumber="0" src="4" >
         <Transformer>
          <VectorParam id="644"  name="translation">
           <InterpolatingParam id="645" interp="linr"  >
            <Keyframes>
            <Keyframe id="646"  time="-9999999/1" value="3.2088109946926124e-011" leadInLength="0/1"  interpolater="leadin-linr"  />
            <Keyframe id="647"  time="1674031913/726336" value="319.99995324957945" leadInLength="7132391/242112"  interpolater="leadin-linr"  />
            </Keyframes>
           </InterpolatingParam>
           <InterpolatingParam id="648" interp="linr"  >
            <Keyframes>
            <Keyframe id="649"  time="-9999999/1" value="1.8033574633591343e-011" leadInLength="0/1"  interpolater="leadin-linr"  />
            <Keyframe id="650"  time="1674031913/726336" value="179.99998358814588" leadInLength="7132391/242112"  interpolater="leadin-linr"  />
            </Keyframes>
           </InterpolatingParam>
           <InterpolatingParam id="651" interp="linr"  >
            <Keyframes>
            <Keyframe id="652"  time="-9999999/1" value="0" leadInLength="0/1"  interpolater="leadin-linr"  />
            <Keyframe id="653"  time="1674031913/726336" value="0" leadInLength="7132391/242112"  interpolater="leadin-linr"  />
            </Keyframes>
           </InterpolatingParam>
          </VectorParam>
          <VectorParam id="654"  name="rotation">
           <InterpolatingParam id="655" interp="linr"  >
            <Keyframes>
            <Keyframe id="656"  time="-9999999/1" value="0" leadInLength="0/1"  interpolater="leadin-linr"  />
            <Keyframe id="657"  time="1674031913/726336" value="0" leadInLength="7132391/242112"  interpolater="leadin-linr"  />
            </Keyframes>
           </InterpolatingParam>
           <InterpolatingParam id="658" interp="linr"  >
            <Keyframes>
            <Keyframe id="659"  time="-9999999/1" value="0" leadInLength="0/1"  interpolater="leadin-linr"  />
            <Keyframe id="660"  time="1674031913/726336" value="0" leadInLength="7132391/242112"  interpolater="leadin-linr"  />
            </Keyframes>
           </InterpolatingParam>
           <InterpolatingParam id="661" interp="linr"  >
            <Keyframes>
            <Keyframe id="662"  time="-9999999/1" value="0" leadInLength="0/1"  interpolater="leadin-linr"  />
            <Keyframe id="663"  time="1674031913/726336" value="0" leadInLength="7132391/242112"  interpolater="leadin-linr"  />
            </Keyframes>
           </InterpolatingParam>
          </VectorParam>
          <VectorParam id="664"  name="shear">
           <InterpolatingParam id="665" interp="linr"  >
            <Keyframes>
            <Keyframe id="666"  time="-9999999/1" value="0" leadInLength="0/1"  interpolater="leadin-linr"  />
            <Keyframe id="667"  time="1674031913/726336" value="0" leadInLength="7132391/242112"  interpolater="leadin-linr"  />
            </Keyframes>
           </InterpolatingParam>
           <InterpolatingParam id="668" interp="linr"  >
            <Keyframes>
            <Keyframe id="669"  time="-9999999/1" value="0" leadInLength="0/1"  interpolater="leadin-linr"  />
            <Keyframe id="670"  time="1674031913/726336" value="0" leadInLength="7132391/242112"  interpolater="leadin-linr"  />
            </Keyframes>
           </InterpolatingParam>
           <InterpolatingParam id="671" interp="linr"  >
            <Keyframes>
            <Keyframe id="672"  time="-9999999/1" value="0" leadInLength="0/1"  interpolater="leadin-linr"  />
            <Keyframe id="673"  time="1674031913/726336" value="0" leadInLength="7132391/242112"  interpolater="leadin-linr"  />
            </Keyframes>
           </InterpolatingParam>
          </VectorParam>
          <VectorParam id="674"  name="scale">
           <InterpolatingParam id="675" interp="linr"  >
            <Keyframes>
            <Keyframe id="676"  time="-9999999/1" value="0.66666666666670005" leadInLength="0/1"  interpolater="leadin-linr"  />
            <Keyframe id="677"  time="1674031913/726336" value="0.99999995130173924" leadInLength="7132391/242112"  interpolater="leadin-linr"  />
            </Keyframes>
           </InterpolatingParam>
           <InterpolatingParam id="678" interp="linr"  >
            <Keyframes>
            <Keyframe id="679"  time="-9999999/1" value="0.66666666666670027" leadInLength="0/1"  interpolater="leadin-linr"  />
            <Keyframe id="680"  time="1674031913/726336" value="0.99999996960752957" leadInLength="7132391/242112"  interpolater="leadin-linr"  />
            </Keyframes>
           </InterpolatingParam>
           <InterpolatingParam id="681" interp="linr"  >
            <Keyframes>
            <Keyframe id="682"  time="-9999999/1" value="1" leadInLength="0/1"  interpolater="leadin-linr"  />
            <Keyframe id="683"  time="1674031913/726336" value="0.99999999999999967" leadInLength="7132391/242112"  interpolater="leadin-linr"  />
            </Keyframes>
           </InterpolatingParam>
          </VectorParam>
          <VectorParam id="684"  name="anchor">
           <InterpolatingParam id="685" interp="linr"  time="0/1" value="0" leadInLength="0/1"  />
           <InterpolatingParam id="686" interp="linr"  time="0/1" value="0" leadInLength="0/1"  />
           <InterpolatingParam id="687" interp="linr"  time="0/1" value="0" leadInLength="0/1"  />
          </VectorParam>
         </Transformer>
         <Parameters>
          <VectorParam id="688"  name="sourceCrop">
           <InterpolatingParam id="689" interp="linr"  time="0/1" value="0" leadInLength="0/1"  />
           <InterpolatingParam id="690" interp="linr"  time="0/1" value="0" leadInLength="0/1"  />
           <InterpolatingParam id="691" interp="linr"  time="0/1" value="0" leadInLength="0/1"  />
           <InterpolatingParam id="692" interp="linr"  time="0/1" value="0" leadInLength="0/1"  />
          </VectorParam>
          <VectorParam id="693"  name="geometryCrop">
           <InterpolatingParam id="694" interp="linr"  >
            <Keyframes>
            <Keyframe id="695"  time="-9999999/1" value="0" leadInLength="0/1"  interpolater="leadin-linr"  />
            <Keyframe id="696"  time="1674031913/726336" value="0" leadInLength="7132391/242112"  interpolater="leadin-linr"  />
            </Keyframes>
           </InterpolatingParam>
           <InterpolatingParam id="697" interp="linr"  >
            <Keyframes>
            <Keyframe id="698"  time="-9999999/1" value="0" leadInLength="0/1"  interpolater="leadin-linr"  />
            <Keyframe id="699"  time="1674031913/726336" value="0" leadInLength="7132391/242112"  interpolater="leadin-linr"  />
            </Keyframes>
           </InterpolatingParam>
           <InterpolatingParam id="700" interp="linr"  >
            <Keyframes>
            <Keyframe id="701"  time="-9999999/1" value="0" leadInLength="0/1"  interpolater="leadin-linr"  />
            <Keyframe id="702"  time="1674031913/726336" value="0" leadInLength="7132391/242112"  interpolater="leadin-linr"  />
            </Keyframes>
           </InterpolatingParam>
           <InterpolatingParam id="703" interp="linr"  >
            <Keyframes>
            <Keyframe id="704"  time="-9999999/1" value="0" leadInLength="0/1"  interpolater="leadin-linr"  />
            <Keyframe id="705"  time="1674031913/726336" value="0" leadInLength="7132391/242112"  interpolater="leadin-linr"  />
            </Keyframes>
           </InterpolatingParam>
          </VectorParam>
          <InterpolatingParam id="706" interp="linr"  name="opacity">
           <Keyframes>
           <Keyframe id="707"  time="-9999999/1" value="1" leadInLength="0/1"  interpolater="leadin-linr"  />
           <Keyframe id="708"  time="1674031913/726336" value="1" leadInLength="7132391/242112"  interpolater="leadin-linr"  />
           </Keyframes>
          </InterpolatingParam>
         </Parameters>
         <Attributes>
          <Attribute id="709" value="" name="ident"/>
         </Attributes>
         <MetaData>
          <entry key="WinSubProjectDisplayName" val=""/>
         </MetaData>
         <ExtraData>
          <Entry key="ZoomPanBin">
           <ZoomPanBin id="710"  >
            <ZoomPanKeyframes>
             <ZoomPanKeyframe id="711" timeRangeEnd="-9999999/1" timeRangeDuration="0/1" interpolaterName="leadin-linr"  />
             <ZoomPanKeyframe id="712" timeRangeEnd="1674031913/726336" timeRangeDuration="7132391/242112" interpolaterName="linr"  />
            </ZoomPanKeyframes>
           </ZoomPanBin>
          </Entry>
         </ExtraData>
        </VMFile>
        <IMFile id="713" start="1780" duration="119" scalar="27/10" mediaStart="0/1" mediaDuration="1/1" trackNumber="0" src="12" trimStartSum="0/1" >
         <Transformer>
          <VectorParam id="714"  name="translation">
           <InterpolatingParam id="715" interp="linr"  time="-9999999/1" value="0" leadInLength="0/1"  />
           <InterpolatingParam id="716" interp="linr"  time="-9999999/1" value="0" leadInLength="0/1"  />
           <InterpolatingParam id="717" interp="linr"  time="-9999999/1" value="0" leadInLength="0/1"  />
          </VectorParam>
          <VectorParam id="718"  name="rotation">
           <InterpolatingParam id="719" interp="linr"  time="-9999999/1" value="0" leadInLength="0/1"  />
           <InterpolatingParam id="720" interp="linr"  time="-9999999/1" value="0" leadInLength="0/1"  />
           <InterpolatingParam id="721" interp="linr"  time="-9999999/1" value="0" leadInLength="0/1"  />
          </VectorParam>
          <VectorParam id="722"  name="shear">
           <InterpolatingParam id="723" interp="linr"  time="-9999999/1" value="0" leadInLength="0/1"  />
           <InterpolatingParam id="724" interp="linr"  time="-9999999/1" value="0" leadInLength="0/1"  />
           <InterpolatingParam id="725" interp="linr"  time="-9999999/1" value="0" leadInLength="0/1"  />
          </VectorParam>
          <VectorParam id="726"  name="scale">
           <InterpolatingParam id="727" interp="linr"  time="-9999999/1" value="0.703125" leadInLength="0/1"  />
           <InterpolatingParam id="728" interp="linr"  time="-9999999/1" value="0.703125" leadInLength="0/1"  />
           <InterpolatingParam id="729" interp="linr"  time="-9999999/1" value="1" leadInLength="0/1"  />
          </VectorParam>
          <VectorParam id="730"  name="anchor">
           <InterpolatingParam id="731" interp="linr"  time="0/1" value="0" leadInLength="0/1"  />
           <InterpolatingParam id="732" interp="linr"  time="0/1" value="0" leadInLength="0/1"  />
           <InterpolatingParam id="733" interp="linr"  time="0/1" value="0" leadInLength="0/1"  />
          </VectorParam>
         </Transformer>
         <Parameters>
          <VectorParam id="734"  name="sourceCrop">
           <InterpolatingParam id="735" interp="linr"  time="0/1" value="0" leadInLength="0/1"  />
           <InterpolatingParam id="736" interp="linr"  time="0/1" value="0" leadInLength="0/1"  />
           <InterpolatingParam id="737" interp="linr"  time="0/1" value="0" leadInLength="0/1"  />
           <InterpolatingParam id="738" interp="linr"  time="0/1" value="0" leadInLength="0/1"  />
          </VectorParam>
          <VectorParam id="739"  name="geometryCrop">
           <InterpolatingParam id="740" interp="linr"  time="-9999999/1" value="0" leadInLength="0/1"  />
           <InterpolatingParam id="741" interp="linr"  time="-9999999/1" value="0" leadInLength="0/1"  />
           <InterpolatingParam id="742" interp="linr"  time="-9999999/1" value="0" leadInLength="0/1"  />
           <InterpolatingParam id="743" interp="linr"  time="-9999999/1" value="0" leadInLength="0/1"  />
          </VectorParam>
          <InterpolatingParam id="744" interp="linr"  time="-9999999/1" value="1" leadInLength="0/1"  name="opacity"/>
         </Parameters>
         <Attributes>
          <Attribute id="745" value="" name="ident"/>
         </Attributes>
         <MetaData>
          <entry key="WinSubProjectDisplayName" val=""/>
         </MetaData>
         <ExtraData>
          <Entry key="ZoomPanBin">
           <ZoomPanBin id="746"  >
            <ZoomPanKeyframes>
             <ZoomPanKeyframe id="747" timeRangeEnd="-9999999/1" timeRangeDuration="0/1" interpolaterName="linr"  />
            </ZoomPanKeyframes>
           </ZoomPanBin>
          </Entry>
         </ExtraData>
        </IMFile>
        <UnifiedMedia id="748"  >
         <AMFile id="749" start="1899" duration="44" scalar="1/1" mediaStart="0/1" mediaDuration="44/1" trackNumber="1" src="16" channelNumber="0" >
          <Parameters>
           <InterpolatingParam id="750" interp="linr"  name="volume">
            <Keyframes>
            <Keyframe id="751"  time="-1/1" value="1" leadInLength="0/1"  />
            <Keyframe id="752"  time="0/1" value="0" leadInLength="0/1"  />
            <Keyframe id="753"  time="1269/1" value="0" leadInLength="0/1"  />
            <Keyframe id="754"  time="1270/1" value="1" leadInLength="0/1"  />
            </Keyframes>
           </InterpolatingParam>
           <Parameter id="755"  name="captions"/>
          </Parameters>
          <Attributes>
           <Attribute id="756" value="" name="ident"/>
           <Attribute id="757" value="44100" name="sampleRate"/>
           <Attribute id="758" value="16" name="bitDepth"/>
           <Attribute id="759" value="1" name="gain"/>
           <Attribute id="760" value="0" name="mixToMono"/>
          </Attributes>
         </AMFile>
         <VMFile id="761" start="1899" duration="44" scalar="1/1" mediaStart="0/1" mediaDuration="44/1" trackNumber="0" src="16" >
          <Transformer>
           <VectorParam id="762"  name="translation">
            <InterpolatingParam id="763" interp="linr"  >
             <Keyframes>
             <Keyframe id="764"  time="-9999999/1" value="-1335.1111111113491" leadInLength="0/1"  />
             <Keyframe id="765"  time="17/1" value="-1056.739429695501" leadInLength="17/1"  interpolater="leadin-linr"  />
             <Keyframe id="766"  time="37/1" value="-189.69034362068885" leadInLength="20/1"  interpolater="leadin-linr"  />
             </Keyframes>
            </InterpolatingParam>
            <InterpolatingParam id="767" interp="linr"  >
             <Keyframes>
             <Keyframe id="768"  time="-9999999/1" value="26.000000000059504" leadInLength="0/1"  />
             <Keyframe id="769"  time="17/1" value="31.000000000084999" leadInLength="17/1"  interpolater="leadin-linr"  />
             <Keyframe id="770"  time="37/1" value="31.000000000024674" leadInLength="20/1"  interpolater="leadin-linr"  />
             </Keyframes>
            </InterpolatingParam>
            <InterpolatingParam id="771" interp="linr"  >
             <Keyframes>
             <Keyframe id="772"  time="-9999999/1" value="-6.8212102632988488e-010" leadInLength="0/1"  />
             <Keyframe id="773"  time="17/1" value="-6.8212102632988488e-010" leadInLength="17/1"  interpolater="leadin-linr"  />
             <Keyframe id="774"  time="37/1" value="-3.4106051316494244e-010" leadInLength="20/1"  interpolater="leadin-linr"  />
             </Keyframes>
            </InterpolatingParam>
           </VectorParam>
           <VectorParam id="775"  name="rotation">
            <InterpolatingParam id="776" interp="linr"  >
             <Keyframes>
             <Keyframe id="777"  time="-9999999/1" value="0" leadInLength="0/1"  />
             <Keyframe id="778"  time="17/1" value="0" leadInLength="17/1"  interpolater="leadin-linr"  />
             <Keyframe id="779"  time="37/1" value="0" leadInLength="20/1"  interpolater="leadin-linr"  />
             </Keyframes>
            </InterpolatingParam>
            <InterpolatingParam id="780" interp="linr"  >
             <Keyframes>
             <Keyframe id="781"  time="-9999999/1" value="0" leadInLength="0/1"  />
             <Keyframe id="782"  time="17/1" value="0" leadInLength="17/1"  interpolater="leadin-linr"  />
             <Keyframe id="783"  time="37/1" value="0" leadInLength="20/1"  interpolater="leadin-linr"  />
             </Keyframes>
            </InterpolatingParam>
            <InterpolatingParam id="784" interp="linr"  >
             <Keyframes>
             <Keyframe id="785"  time="-9999999/1" value="0" leadInLength="0/1"  />
             <Keyframe id="786"  time="17/1" value="0" leadInLength="17/1"  interpolater="leadin-linr"  />
             <Keyframe id="787"  time="37/1" value="0" leadInLength="20/1"  interpolater="leadin-linr"  />
             </Keyframes>
            </InterpolatingParam>
           </VectorParam>
           <VectorParam id="788"  name="shear">
            <InterpolatingParam id="789" interp="linr"  >
             <Keyframes>
             <Keyframe id="790"  time="-9999999/1" value="0" leadInLength="0/1"  />
             <Keyframe id="791"  time="17/1" value="0" leadInLength="17/1"  interpolater="leadin-linr"  />
             <Keyframe id="792"  time="37/1" value="0" leadInLength="20/1"  interpolater="leadin-linr"  />
             </Keyframes>
            </InterpolatingParam>
            <InterpolatingParam id="793" interp="linr"  >
             <Keyframes>
             <Keyframe id="794"  time="-9999999/1" value="0" leadInLength="0/1"  />
             <Keyframe id="795"  time="17/1" value="0" leadInLength="17/1"  interpolater="leadin-linr"  />
             <Keyframe id="796"  time="37/1" value="0" leadInLength="20/1"  interpolater="leadin-linr"  />
             </Keyframes>
            </InterpolatingParam>
            <InterpolatingParam id="797" interp="linr"  >
             <Keyframes>
             <Keyframe id="798"  time="-9999999/1" value="0" leadInLength="0/1"  />
             <Keyframe id="799"  time="17/1" value="0" leadInLength="17/1"  interpolater="leadin-linr"  />
             <Keyframe id="800"  time="37/1" value="0" leadInLength="20/1"  interpolater="leadin-linr"  />
             </Keyframes>
            </InterpolatingParam>
           </VectorParam>
           <VectorParam id="801"  name="scale">
            <InterpolatingParam id="802" interp="linr"  >
             <Keyframes>
             <Keyframe id="803"  time="-9999999/1" value="0.7240740740741245" leadInLength="0/1"  />
             <Keyframe id="804"  time="17/1" value="0.7240740740741245" leadInLength="17/1"  interpolater="leadin-linr"  />
             <Keyframe id="805"  time="37/1" value="0.7240740740741245" leadInLength="20/1"  interpolater="leadin-linr"  />
             </Keyframes>
            </InterpolatingParam>
            <InterpolatingParam id="806" interp="linr"  >
             <Keyframes>
             <Keyframe id="807"  time="-9999999/1" value="0.7240740740741245" leadInLength="0/1"  />
             <Keyframe id="808"  time="17/1" value="0.7240740740741245" leadInLength="17/1"  interpolater="leadin-linr"  />
             <Keyframe id="809"  time="37/1" value="0.7240740740741245" leadInLength="20/1"  interpolater="leadin-linr"  />
             </Keyframes>
            </InterpolatingParam>
            <InterpolatingParam id="810" interp="linr"  >
             <Keyframes>
             <Keyframe id="811"  time="-9999999/1" value="1" leadInLength="0/1"  />
             <Keyframe id="812"  time="17/1" value="1" leadInLength="17/1"  interpolater="leadin-linr"  />
             <Keyframe id="813"  time="37/1" value="1" leadInLength="20/1"  interpolater="leadin-linr"  />
             </Keyframes>
            </InterpolatingParam>
           </VectorParam>
           <VectorParam id="814"  name="anchor">
            <InterpolatingParam id="815" interp="linr"  time="0/1" value="0" leadInLength="0/1"  />
            <InterpolatingParam id="816" interp="linr"  time="0/1" value="0" leadInLength="0/1"  />
            <InterpolatingParam id="817" interp="linr"  time="0/1" value="0" leadInLength="0/1"  />
           </VectorParam>
          </Transformer>
          <Parameters>
           <VectorParam id="818"  name="sourceCrop">
            <InterpolatingParam id="819" interp="linr"  time="0/1" value="0" leadInLength="0/1"  />
            <InterpolatingParam id="820" interp="linr"  time="0/1" value="0" leadInLength="0/1"  />
            <InterpolatingParam id="821" interp="linr"  time="0/1" value="0" leadInLength="0/1"  />
            <InterpolatingParam id="822" interp="linr"  time="0/1" value="0" leadInLength="0/1"  />
           </VectorParam>
           <VectorParam id="823"  name="geometryCrop">
            <InterpolatingParam id="824" interp="linr"  >
             <Keyframes>
             <Keyframe id="825"  time="-9999999/1" value="0" leadInLength="0/1"  />
             <Keyframe id="826"  time="17/1" value="0" leadInLength="17/1"  interpolater="leadin-linr"  />
             <Keyframe id="827"  time="37/1" value="0" leadInLength="20/1"  interpolater="leadin-linr"  />
             </Keyframes>
            </InterpolatingParam>
            <InterpolatingParam id="828" interp="linr"  >
             <Keyframes>
             <Keyframe id="829"  time="-9999999/1" value="0" leadInLength="0/1"  />
             <Keyframe id="830"  time="17/1" value="0" leadInLength="17/1"  interpolater="leadin-linr"  />
             <Keyframe id="831"  time="37/1" value="0" leadInLength="20/1"  interpolater="leadin-linr"  />
             </Keyframes>
            </InterpolatingParam>
            <InterpolatingParam id="832" interp="linr"  >
             <Keyframes>
             <Keyframe id="833"  time="-9999999/1" value="0" leadInLength="0/1"  />
             <Keyframe id="834"  time="17/1" value="0" leadInLength="17/1"  interpolater="leadin-linr"  />
             <Keyframe id="835"  time="37/1" value="0" leadInLength="20/1"  interpolater="leadin-linr"  />
             </Keyframes>
            </InterpolatingParam>
            <InterpolatingParam id="836" interp="linr"  >
             <Keyframes>
             <Keyframe id="837"  time="-9999999/1" value="0" leadInLength="0/1"  />
             <Keyframe id="838"  time="17/1" value="0" leadInLength="17/1"  interpolater="leadin-linr"  />
             <Keyframe id="839"  time="37/1" value="0" leadInLength="20/1"  interpolater="leadin-linr"  />
             </Keyframes>
            </InterpolatingParam>
           </VectorParam>
           <InterpolatingParam id="840" interp="linr"  name="opacity">
            <Keyframes>
            <Keyframe id="841"  time="-9999999/1" value="1" leadInLength="0/1"  />
            <Keyframe id="842"  time="17/1" value="1" leadInLength="17/1"  interpolater="leadin-linr"  />
            <Keyframe id="843"  time="37/1" value="1" leadInLength="20/1"  interpolater="leadin-linr"  />
            </Keyframes>
           </InterpolatingParam>
          </Parameters>
          <Attributes>
           <Attribute id="844" value="" name="ident"/>
          </Attributes>
          <ExtraData>
           <Entry key="ZoomPanBin">
            <ZoomPanBin id="845"  >
             <ZoomPanKeyframes>
              <ZoomPanKeyframe id="846" timeRangeEnd="-9999999/1" timeRangeDuration="0/1" interpolaterName="linr"  />
              <ZoomPanKeyframe id="847" timeRangeEnd="17/1" timeRangeDuration="17/1" interpolaterName="linr"  />
              <ZoomPanKeyframe id="848" timeRangeEnd="37/1" timeRangeDuration="20/1" interpolaterName="linr"  />
             </ZoomPanKeyframes>
            </ZoomPanBin>
           </Entry>
          </ExtraData>
         </VMFile>
         <MetaData>
          <entry key="WinSubProjectDisplayName" val=""/>
         </MetaData>
        </UnifiedMedia>
        <StitchedMedia id="849" start="1943" duration="91" scalar="97461/200006" mediaStart="989/21" mediaDuration="200006/1071" minMediaStart="0/1" >
         <Transformer>
          <VectorParam id="850"  name="translation">
           <InterpolatingParam id="851" interp="linr"  >
            <Keyframes>
            <Keyframe id="852"  time="-9999999/1" value="-1335.1111111113491" leadInLength="0/1"  />
            <Keyframe id="853"  time="455701/13923" value="-189.69034362084736" leadInLength="1600048/97461"  interpolater="leadin-linr"  />
            </Keyframes>
           </InterpolatingParam>
           <InterpolatingParam id="854" interp="linr"  >
            <Keyframes>
            <Keyframe id="855"  time="-9999999/1" value="26.000000000059504" leadInLength="0/1"  />
            <Keyframe id="856"  time="455701/13923" value="31.000000000171198" leadInLength="1600048/97461"  interpolater="leadin-linr"  />
            </Keyframes>
           </InterpolatingParam>
           <InterpolatingParam id="857" interp="linr"  >
            <Keyframes>
            <Keyframe id="858"  time="-9999999/1" value="-6.8212102632988488e-010" leadInLength="0/1"  />
            <Keyframe id="859"  time="455701/13923" value="-6.8212102632965585e-010" leadInLength="1600048/97461"  interpolater="leadin-linr"  />
            </Keyframes>
           </InterpolatingParam>
          </VectorParam>
          <VectorParam id="860"  name="rotation">
           <InterpolatingParam id="861" interp="linr"  >
            <Keyframes>
            <Keyframe id="862"  time="-9999999/1" value="0" leadInLength="0/1"  />
            <Keyframe id="863"  time="455701/13923" value="0" leadInLength="1600048/97461"  interpolater="leadin-linr"  />
            </Keyframes>
           </InterpolatingParam>
           <InterpolatingParam id="864" interp="linr"  >
            <Keyframes>
            <Keyframe id="865"  time="-9999999/1" value="0" leadInLength="0/1"  />
            <Keyframe id="866"  time="455701/13923" value="0" leadInLength="1600048/97461"  interpolater="leadin-linr"  />
            </Keyframes>
           </InterpolatingParam>
           <InterpolatingParam id="867" interp="linr"  >
            <Keyframes>
            <Keyframe id="868"  time="-9999999/1" value="0" leadInLength="0/1"  />
            <Keyframe id="869"  time="455701/13923" value="0" leadInLength="1600048/97461"  interpolater="leadin-linr"  />
            </Keyframes>
           </InterpolatingParam>
          </VectorParam>
          <VectorParam id="870"  name="shear">
           <InterpolatingParam id="871" interp="linr"  >
            <Keyframes>
            <Keyframe id="872"  time="-9999999/1" value="0" leadInLength="0/1"  />
            <Keyframe id="873"  time="455701/13923" value="0" leadInLength="1600048/97461"  interpolater="leadin-linr"  />
            </Keyframes>
           </InterpolatingParam>
           <InterpolatingParam id="874" interp="linr"  >
            <Keyframes>
            <Keyframe id="875"  time="-9999999/1" value="0" leadInLength="0/1"  />
            <Keyframe id="876"  time="455701/13923" value="0" leadInLength="1600048/97461"  interpolater="leadin-linr"  />
            </Keyframes>
           </InterpolatingParam>
           <InterpolatingParam id="877" interp="linr"  >
            <Keyframes>
            <Keyframe id="878"  time="-9999999/1" value="0" leadInLength="0/1"  />
            <Keyframe id="879"  time="455701/13923" value="0" leadInLength="1600048/97461"  interpolater="leadin-linr"  />
            </Keyframes>
           </InterpolatingParam>
          </VectorParam>
          <VectorParam id="880"  name="scale">
           <InterpolatingParam id="881" interp="linr"  >
            <Keyframes>
            <Keyframe id="882"  time="-9999999/1" value="0.7240740740741245" leadInLength="0/1"  />
            <Keyframe id="883"  time="455701/13923" value="0.7240740740741245" leadInLength="1600048/97461"  interpolater="leadin-linr"  />
            </Keyframes>
           </InterpolatingParam>
           <InterpolatingParam id="884" interp="linr"  >
            <Keyframes>
            <Keyframe id="885"  time="-9999999/1" value="0.7240740740741245" leadInLength="0/1"  />
            <Keyframe id="886"  time="455701/13923" value="0.7240740740741245" leadInLength="1600048/97461"  interpolater="leadin-linr"  />
            </Keyframes>
           </InterpolatingParam>
           <InterpolatingParam id="887" interp="linr"  >
            <Keyframes>
            <Keyframe id="888"  time="-9999999/1" value="1" leadInLength="0/1"  />
            <Keyframe id="889"  time="455701/13923" value="1" leadInLength="1600048/97461"  interpolater="leadin-linr"  />
            </Keyframes>
           </InterpolatingParam>
          </VectorParam>
          <VectorParam id="890"  name="anchor">
           <InterpolatingParam id="891" interp="linr"  time="0/1" value="0" leadInLength="0/1"  />
           <InterpolatingParam id="892" interp="linr"  time="0/1" value="0" leadInLength="0/1"  />
           <InterpolatingParam id="893" interp="linr"  time="0/1" value="0" leadInLength="0/1"  />
          </VectorParam>
         </Transformer>
         <Parameters>
          <VectorParam id="894"  name="sourceCrop">
           <InterpolatingParam id="895" interp="linr"  time="0/1" value="0" leadInLength="0/1"  />
           <InterpolatingParam id="896" interp="linr"  time="0/1" value="0" leadInLength="0/1"  />
           <InterpolatingParam id="897" interp="linr"  time="0/1" value="0" leadInLength="0/1"  />
           <InterpolatingParam id="898" interp="linr"  time="0/1" value="0" leadInLength="0/1"  />
          </VectorParam>
          <VectorParam id="899"  name="geometryCrop">
           <InterpolatingParam id="900" interp="linr"  >
            <Keyframes>
            <Keyframe id="901"  time="-9999999/1" value="0" leadInLength="0/1"  />
            <Keyframe id="902"  time="455701/13923" value="0" leadInLength="1600048/97461"  interpolater="leadin-linr"  />
            </Keyframes>
           </InterpolatingParam>
           <InterpolatingParam id="903" interp="linr"  >
            <Keyframes>
            <Keyframe id="904"  time="-9999999/1" value="0" leadInLength="0/1"  />
            <Keyframe id="905"  time="455701/13923" value="0" leadInLength="1600048/97461"  interpolater="leadin-linr"  />
            </Keyframes>
           </InterpolatingParam>
           <InterpolatingParam id="906" interp="linr"  >
            <Keyframes>
            <Keyframe id="907"  time="-9999999/1" value="0" leadInLength="0/1"  />
            <Keyframe id="908"  time="455701/13923" value="0" leadInLength="1600048/97461"  interpolater="leadin-linr"  />
            </Keyframes>
           </InterpolatingParam>
           <InterpolatingParam id="909" interp="linr"  >
            <Keyframes>
            <Keyframe id="910"  time="-9999999/1" value="0" leadInLength="0/1"  />
            <Keyframe id="911"  time="455701/13923" value="0" leadInLength="1600048/97461"  interpolater="leadin-linr"  />
            </Keyframes>
           </InterpolatingParam>
          </VectorParam>
          <InterpolatingParam id="912" interp="linr"  name="opacity">
           <Keyframes>
           <Keyframe id="913"  time="-9999999/1" value="1" leadInLength="0/1"  />
           <Keyframe id="914"  time="455701/13923" value="1" leadInLength="1600048/97461"  interpolater="leadin-linr"  />
           </Keyframes>
          </InterpolatingParam>
          <InterpolatingParam id="915" interp="linr"  time="0/1" value="1" leadInLength="0/1"  name="cursorOpacity"/>
          <InterpolatingParam id="916" interp="linr"  time="0/1" value="1" leadInLength="0/1"  name="cursorScale"/>
          <InterpolatingParam id="917" interp="linr"  name="volume">
           <Keyframes>
           <Keyframe id="918"  time="-1/1" value="1" leadInLength="0/1"  />
           <Keyframe id="919"  time="0/1" value="0" leadInLength="0/1"  />
           <Keyframe id="920"  time="162623/1071" value="0" leadInLength="0/1"  />
           </Keyframes>
          </InterpolatingParam>
          <Parameter id="921"  name="captions"/>
         </Parameters>
         <Attributes>
          <Attribute id="922" value="" name="ident"/>
          <Attribute id="923" value="0" name="mixToMono"/>
         </Attributes>
         <MetaData>
          <entry key="WinSubProjectDisplayName" val=""/>
         </MetaData>
         <ExtraData>
          <Entry key="ZoomPanBin">
           <ZoomPanBin id="924"  >
            <ZoomPanKeyframes>
             <ZoomPanKeyframe id="925" timeRangeEnd="-9999999/1" timeRangeDuration="0/1" interpolaterName="linr"  />
             <ZoomPanKeyframe id="926" timeRangeEnd="455701/13923" timeRangeDuration="1600048/97461" interpolaterName="linr"  />
            </ZoomPanKeyframes>
           </ZoomPanBin>
          </Entry>
          <Entry key="CursorEffectBin">
           <CursorEffectBin id="927"  >
            <CursorEffectKeyframes>
            </CursorEffectKeyframes>
           </CursorEffectBin>
          </Entry>
         </ExtraData>
         <GenericTrack id="928"  >
          <Attributes>
           <Attribute id="929" value="" name="ident"/>
           <Attribute id="930" value="0" name="audioMuted"/>
           <Attribute id="931" value="0" name="videoHidden"/>
          </Attributes>
          <MetaData>
           <entry key="IsLocked" val="False"/>
           <entry key="WinTrackHeight" val="0"/>
          </MetaData>
          <Medias>
           <UnifiedMedia id="932"  >
            <AMFile id="933" start="0" duration="86" scalar="1/1" mediaStart="0/1" mediaDuration="86/1" trackNumber="1" src="16" channelNumber="0" >
             <Parameters>
              <InterpolatingParam id="934" interp="linr"  time="0/1" value="1" leadInLength="0/1"  name="volume"/>
              <Parameter id="935"  name="captions"/>
             </Parameters>
             <Attributes>
              <Attribute id="936" value="" name="ident"/>
              <Attribute id="937" value="44100" name="sampleRate"/>
              <Attribute id="938" value="16" name="bitDepth"/>
              <Attribute id="939" value="1" name="gain"/>
              <Attribute id="940" value="0" name="mixToMono"/>
             </Attributes>
            </AMFile>
            <VMFile id="941" start="0" duration="86" scalar="1/1" mediaStart="0/1" mediaDuration="86/1" trackNumber="0" src="16" >
             <Transformer>
              <VectorParam id="942"  name="translation">
               <InterpolatingParam id="943" interp="linr"  time="-9999999/1" value="0" leadInLength="0/1"  />
               <InterpolatingParam id="944" interp="linr"  time="-9999999/1" value="0" leadInLength="0/1"  />
               <InterpolatingParam id="945" interp="linr"  time="-9999999/1" value="0" leadInLength="0/1"  />
              </VectorParam>
              <VectorParam id="946"  name="rotation">
               <InterpolatingParam id="947" interp="linr"  time="-9999999/1" value="0" leadInLength="0/1"  />
               <InterpolatingParam id="948" interp="linr"  time="-9999999/1" value="0" leadInLength="0/1"  />
               <InterpolatingParam id="949" interp="linr"  time="-9999999/1" value="0" leadInLength="0/1"  />
              </VectorParam>
              <VectorParam id="950"  name="shear">
               <InterpolatingParam id="951" interp="linr"  time="-9999999/1" value="0" leadInLength="0/1"  />
               <InterpolatingParam id="952" interp="linr"  time="-9999999/1" value="0" leadInLength="0/1"  />
               <InterpolatingParam id="953" interp="linr"  time="-9999999/1" value="0" leadInLength="0/1"  />
              </VectorParam>
              <VectorParam id="954"  name="scale">
               <InterpolatingParam id="955" interp="linr"  time="-9999999/1" value="1" leadInLength="0/1"  />
               <InterpolatingParam id="956" interp="linr"  time="-9999999/1" value="1" leadInLength="0/1"  />
               <InterpolatingParam id="957" interp="linr"  time="-9999999/1" value="1" leadInLength="0/1"  />
              </VectorParam>
              <VectorParam id="958"  name="anchor">
               <InterpolatingParam id="959" interp="linr"  time="0/1" value="0" leadInLength="0/1"  />
               <InterpolatingParam id="960" interp="linr"  time="0/1" value="0" leadInLength="0/1"  />
               <InterpolatingParam id="961" interp="linr"  time="0/1" value="0" leadInLength="0/1"  />
              </VectorParam>
             </Transformer>
             <Parameters>
              <VectorParam id="962"  name="sourceCrop">
               <InterpolatingParam id="963" interp="linr"  time="0/1" value="0" leadInLength="0/1"  />
               <InterpolatingParam id="964" interp="linr"  time="0/1" value="0" leadInLength="0/1"  />
               <InterpolatingParam id="965" interp="linr"  time="0/1" value="0" leadInLength="0/1"  />
               <InterpolatingParam id="966" interp="linr"  time="0/1" value="0" leadInLength="0/1"  />
              </VectorParam>
              <VectorParam id="967"  name="geometryCrop">
               <InterpolatingParam id="968" interp="linr"  time="-9999999/1" value="0" leadInLength="0/1"  />
               <InterpolatingParam id="969" interp="linr"  time="-9999999/1" value="0" leadInLength="0/1"  />
               <InterpolatingParam id="970" interp="linr"  time="-9999999/1" value="0" leadInLength="0/1"  />
               <InterpolatingParam id="971" interp="linr"  time="-9999999/1" value="0" leadInLength="0/1"  />
              </VectorParam>
              <InterpolatingParam id="972" interp="linr"  time="-9999999/1" value="1" leadInLength="0/1"  name="opacity"/>
             </Parameters>
             <Attributes>
              <Attribute id="973" value="" name="ident"/>
             </Attributes>
             <ExtraData>
              <Entry key="ZoomPanBin">
               <ZoomPanBin id="974"  >
                <ZoomPanKeyframes>
                 <ZoomPanKeyframe id="975" timeRangeEnd="-9999999/1" timeRangeDuration="0/1" interpolaterName="linr"  />
                </ZoomPanKeyframes>
               </ZoomPanBin>
              </Entry>
             </ExtraData>
            </VMFile>
            <MetaData>
             <entry key="WinSubProjectDisplayName" val=""/>
            </MetaData>
           </UnifiedMedia>
           <UnifiedMedia id="976"  >
            <AMFile id="977" start="86" duration="66" scalar="1/1" mediaStart="152/1" mediaDuration="66/1" trackNumber="1" src="16" channelNumber="0" >
             <Parameters>
              <InterpolatingParam id="978" interp="linr"  time="0/1" value="1" leadInLength="0/1"  name="volume"/>
              <Parameter id="979"  name="captions"/>
             </Parameters>
             <Attributes>
              <Attribute id="980" value="" name="ident"/>
              <Attribute id="981" value="44100" name="sampleRate"/>
              <Attribute id="982" value="16" name="bitDepth"/>
              <Attribute id="983" value="1" name="gain"/>
              <Attribute id="984" value="0" name="mixToMono"/>
             </Attributes>
            </AMFile>
            <VMFile id="985" start="86" duration="66" scalar="1/1" mediaStart="152/1" mediaDuration="66/1" trackNumber="0" src="16" >
             <Transformer>
              <VectorParam id="986"  name="translation">
               <InterpolatingParam id="987" interp="linr"  time="-9999999/1" value="0" leadInLength="0/1"  />
               <InterpolatingParam id="988" interp="linr"  time="-9999999/1" value="0" leadInLength="0/1"  />
               <InterpolatingParam id="989" interp="linr"  time="-9999999/1" value="0" leadInLength="0/1"  />
              </VectorParam>
              <VectorParam id="990"  name="rotation">
               <InterpolatingParam id="991" interp="linr"  time="-9999999/1" value="0" leadInLength="0/1"  />
               <InterpolatingParam id="992" interp="linr"  time="-9999999/1" value="0" leadInLength="0/1"  />
               <InterpolatingParam id="993" interp="linr"  time="-9999999/1" value="0" leadInLength="0/1"  />
              </VectorParam>
              <VectorParam id="994"  name="shear">
               <InterpolatingParam id="995" interp="linr"  time="-9999999/1" value="0" leadInLength="0/1"  />
               <InterpolatingParam id="996" interp="linr"  time="-9999999/1" value="0" leadInLength="0/1"  />
               <InterpolatingParam id="997" interp="linr"  time="-9999999/1" value="0" leadInLength="0/1"  />
              </VectorParam>
              <VectorParam id="998"  name="scale">
               <InterpolatingParam id="999" interp="linr"  time="-9999999/1" value="1" leadInLength="0/1"  />
               <InterpolatingParam id="1000" interp="linr"  time="-9999999/1" value="1" leadInLength="0/1"  />
               <InterpolatingParam id="1001" interp="linr"  time="-9999999/1" value="1" leadInLength="0/1"  />
              </VectorParam>
              <VectorParam id="1002"  name="anchor">
               <InterpolatingParam id="1003" interp="linr"  time="0/1" value="0" leadInLength="0/1"  />
               <InterpolatingParam id="1004" interp="linr"  time="0/1" value="0" leadInLength="0/1"  />
               <InterpolatingParam id="1005" interp="linr"  time="0/1" value="0" leadInLength="0/1"  />
              </VectorParam>
             </Transformer>
             <Parameters>
              <VectorParam id="1006"  name="sourceCrop">
               <InterpolatingParam id="1007" interp="linr"  time="0/1" value="0" leadInLength="0/1"  />
               <InterpolatingParam id="1008" interp="linr"  time="0/1" value="0" leadInLength="0/1"  />
               <InterpolatingParam id="1009" interp="linr"  time="0/1" value="0" leadInLength="0/1"  />
               <InterpolatingParam id="1010" interp="linr"  time="0/1" value="0" leadInLength="0/1"  />
              </VectorParam>
              <VectorParam id="1011"  name="geometryCrop">
               <InterpolatingParam id="1012" interp="linr"  time="-9999999/1" value="0" leadInLength="0/1"  />
               <InterpolatingParam id="1013" interp="linr"  time="-9999999/1" value="0" leadInLength="0/1"  />
               <InterpolatingParam id="1014" interp="linr"  time="-9999999/1" value="0" leadInLength="0/1"  />
               <InterpolatingParam id="1015" interp="linr"  time="-9999999/1" value="0" leadInLength="0/1"  />
              </VectorParam>
              <InterpolatingParam id="1016" interp="linr"  time="-9999999/1" value="1" leadInLength="0/1"  name="opacity"/>
             </Parameters>
             <Attributes>
              <Attribute id="1017" value="" name="ident"/>
             </Attributes>
             <ExtraData>
              <Entry key="ZoomPanBin">
               <ZoomPanBin id="1018"  >
                <ZoomPanKeyframes>
                 <ZoomPanKeyframe id="1019" timeRangeEnd="-9999999/1" timeRangeDuration="0/1" interpolaterName="linr"  />
                </ZoomPanKeyframes>
               </ZoomPanBin>
              </Entry>
             </ExtraData>
            </VMFile>
            <MetaData>
             <entry key="WinSubProjectDisplayName" val=""/>
            </MetaData>
           </UnifiedMedia>
           <UnifiedMedia id="1020"  >
            <AMFile id="1021" start="152" duration="922" scalar="1/1" mediaStart="345/1" mediaDuration="922/1" trackNumber="1" src="16" channelNumber="0" >
             <Parameters>
              <InterpolatingParam id="1022" interp="linr"  time="0/1" value="1" leadInLength="0/1"  name="volume"/>
              <Parameter id="1023"  name="captions"/>
             </Parameters>
             <Attributes>
              <Attribute id="1024" value="" name="ident"/>
              <Attribute id="1025" value="44100" name="sampleRate"/>
              <Attribute id="1026" value="16" name="bitDepth"/>
              <Attribute id="1027" value="1" name="gain"/>
              <Attribute id="1028" value="0" name="mixToMono"/>
             </Attributes>
            </AMFile>
            <VMFile id="1029" start="152" duration="922" scalar="1/1" mediaStart="345/1" mediaDuration="922/1" trackNumber="0" src="16" >
             <Transformer>
              <VectorParam id="1030"  name="translation">
               <InterpolatingParam id="1031" interp="linr"  time="-9999999/1" value="0" leadInLength="0/1"  />
               <InterpolatingParam id="1032" interp="linr"  time="-9999999/1" value="0" leadInLength="0/1"  />
               <InterpolatingParam id="1033" interp="linr"  time="-9999999/1" value="0" leadInLength="0/1"  />
              </VectorParam>
              <VectorParam id="1034"  name="rotation">
               <InterpolatingParam id="1035" interp="linr"  time="-9999999/1" value="0" leadInLength="0/1"  />
               <InterpolatingParam id="1036" interp="linr"  time="-9999999/1" value="0" leadInLength="0/1"  />
               <InterpolatingParam id="1037" interp="linr"  time="-9999999/1" value="0" leadInLength="0/1"  />
              </VectorParam>
              <VectorParam id="1038"  name="shear">
               <InterpolatingParam id="1039" interp="linr"  time="-9999999/1" value="0" leadInLength="0/1"  />
               <InterpolatingParam id="1040" interp="linr"  time="-9999999/1" value="0" leadInLength="0/1"  />
               <InterpolatingParam id="1041" interp="linr"  time="-9999999/1" value="0" leadInLength="0/1"  />
              </VectorParam>
              <VectorParam id="1042"  name="scale">
               <InterpolatingParam id="1043" interp="linr"  time="-9999999/1" value="1" leadInLength="0/1"  />
               <InterpolatingParam id="1044" interp="linr"  time="-9999999/1" value="1" leadInLength="0/1"  />
               <InterpolatingParam id="1045" interp="linr"  time="-9999999/1" value="1" leadInLength="0/1"  />
              </VectorParam>
              <VectorParam id="1046"  name="anchor">
               <InterpolatingParam id="1047" interp="linr"  time="0/1" value="0" leadInLength="0/1"  />
               <InterpolatingParam id="1048" interp="linr"  time="0/1" value="0" leadInLength="0/1"  />
               <InterpolatingParam id="1049" interp="linr"  time="0/1" value="0" leadInLength="0/1"  />
              </VectorParam>
             </Transformer>
             <Parameters>
              <VectorParam id="1050"  name="sourceCrop">
               <InterpolatingParam id="1051" interp="linr"  time="0/1" value="0" leadInLength="0/1"  />
               <InterpolatingParam id="1052" interp="linr"  time="0/1" value="0" leadInLength="0/1"  />
               <InterpolatingParam id="1053" interp="linr"  time="0/1" value="0" leadInLength="0/1"  />
               <InterpolatingParam id="1054" interp="linr"  time="0/1" value="0" leadInLength="0/1"  />
              </VectorParam>
              <VectorParam id="1055"  name="geometryCrop">
               <InterpolatingParam id="1056" interp="linr"  time="-9999999/1" value="0" leadInLength="0/1"  />
               <InterpolatingParam id="1057" interp="linr"  time="-9999999/1" value="0" leadInLength="0/1"  />
               <InterpolatingParam id="1058" interp="linr"  time="-9999999/1" value="0" leadInLength="0/1"  />
               <InterpolatingParam id="1059" interp="linr"  time="-9999999/1" value="0" leadInLength="0/1"  />
              </VectorParam>
              <InterpolatingParam id="1060" interp="linr"  time="-9999999/1" value="1" leadInLength="0/1"  name="opacity"/>
             </Parameters>
             <Attributes>
              <Attribute id="1061" value="" name="ident"/>
             </Attributes>
             <ExtraData>
              <Entry key="ZoomPanBin">
               <ZoomPanBin id="1062"  >
                <ZoomPanKeyframes>
                 <ZoomPanKeyframe id="1063" timeRangeEnd="-9999999/1" timeRangeDuration="0/1" interpolaterName="linr"  />
                </ZoomPanKeyframes>
               </ZoomPanBin>
              </Entry>
             </ExtraData>
            </VMFile>
            <MetaData>
             <entry key="WinSubProjectDisplayName" val=""/>
            </MetaData>
           </UnifiedMedia>
          </Medias>
         </GenericTrack>
        </StitchedMedia>
        <UnifiedMedia id="1064"  >
         <AMFile id="1065" start="2034" duration="68" scalar="177/361" mediaStart="547/1" mediaDuration="24548/177" trackNumber="1" src="16" channelNumber="0" >
          <Parameters>
           <InterpolatingParam id="1066" interp="linr"  name="volume">
            <Keyframes>
            <Keyframe id="1067"  time="0/1" value="0" leadInLength="0/1"  />
            <Keyframe id="1068"  time="547/1" value="0" leadInLength="0/1"  />
            </Keyframes>
           </InterpolatingParam>
           <Parameter id="1069"  name="captions"/>
          </Parameters>
          <Attributes>
           <Attribute id="1070" value="" name="ident"/>
           <Attribute id="1071" value="44100" name="sampleRate"/>
           <Attribute id="1072" value="16" name="bitDepth"/>
           <Attribute id="1073" value="1" name="gain"/>
           <Attribute id="1074" value="0" name="mixToMono"/>
          </Attributes>
         </AMFile>
         <VMFile id="1075" start="2034" duration="68" scalar="177/361" mediaStart="547/1" mediaDuration="24548/177" trackNumber="0" src="16" >
          <Transformer>
           <VectorParam id="1076"  name="translation">
            <InterpolatingParam id="1077" interp="linr"  time="-9999999/1" value="-189.69034362068885" leadInLength="0/1"  interpolater="leadin-linr"  />
            <InterpolatingParam id="1078" interp="linr"  time="-9999999/1" value="31.000000000024674" leadInLength="0/1"  interpolater="leadin-linr"  />
            <InterpolatingParam id="1079" interp="linr"  time="-9999999/1" value="-3.4106051316494244e-010" leadInLength="0/1"  interpolater="leadin-linr"  />
           </VectorParam>
           <VectorParam id="1080"  name="rotation">
            <InterpolatingParam id="1081" interp="linr"  time="-9999999/1" value="0" leadInLength="0/1"  interpolater="leadin-linr"  />
            <InterpolatingParam id="1082" interp="linr"  time="-9999999/1" value="0" leadInLength="0/1"  interpolater="leadin-linr"  />
            <InterpolatingParam id="1083" interp="linr"  time="-9999999/1" value="0" leadInLength="0/1"  interpolater="leadin-linr"  />
           </VectorParam>
           <VectorParam id="1084"  name="shear">
            <InterpolatingParam id="1085" interp="linr"  time="-9999999/1" value="0" leadInLength="0/1"  interpolater="leadin-linr"  />
            <InterpolatingParam id="1086" interp="linr"  time="-9999999/1" value="0" leadInLength="0/1"  interpolater="leadin-linr"  />
            <InterpolatingParam id="1087" interp="linr"  time="-9999999/1" value="0" leadInLength="0/1"  interpolater="leadin-linr"  />
           </VectorParam>
           <VectorParam id="1088"  name="scale">
            <InterpolatingParam id="1089" interp="linr"  time="-9999999/1" value="0.7240740740741245" leadInLength="0/1"  interpolater="leadin-linr"  />
            <InterpolatingParam id="1090" interp="linr"  time="-9999999/1" value="0.7240740740741245" leadInLength="0/1"  interpolater="leadin-linr"  />
            <InterpolatingParam id="1091" interp="linr"  time="-9999999/1" value="1" leadInLength="0/1"  interpolater="leadin-linr"  />
           </VectorParam>
           <VectorParam id="1092"  name="anchor">
            <InterpolatingParam id="1093" interp="linr"  time="0/1" value="0" leadInLength="0/1"  />
            <InterpolatingParam id="1094" interp="linr"  time="0/1" value="0" leadInLength="0/1"  />
            <InterpolatingParam id="1095" interp="linr"  time="0/1" value="0" leadInLength="0/1"  />
           </VectorParam>
          </Transformer>
          <Parameters>
           <VectorParam id="1096"  name="sourceCrop">
            <InterpolatingParam id="1097" interp="linr"  time="0/1" value="0" leadInLength="0/1"  />
            <InterpolatingParam id="1098" interp="linr"  time="0/1" value="0" leadInLength="0/1"  />
            <InterpolatingParam id="1099" interp="linr"  time="0/1" value="0" leadInLength="0/1"  />
            <InterpolatingParam id="1100" interp="linr"  time="0/1" value="0" leadInLength="0/1"  />
           </VectorParam>
           <VectorParam id="1101"  name="geometryCrop">
            <InterpolatingParam id="1102" interp="linr"  time="-9999999/1" value="0" leadInLength="0/1"  interpolater="leadin-linr"  />
            <InterpolatingParam id="1103" interp="linr"  time="-9999999/1" value="0" leadInLength="0/1"  interpolater="leadin-linr"  />
            <InterpolatingParam id="1104" interp="linr"  time="-9999999/1" value="0" leadInLength="0/1"  interpolater="leadin-linr"  />
            <InterpolatingParam id="1105" interp="linr"  time="-9999999/1" value="0" leadInLength="0/1"  interpolater="leadin-linr"  />
           </VectorParam>
           <InterpolatingParam id="1106" interp="linr"  time="-9999999/1" value="1" leadInLength="0/1"  interpolater="leadin-linr"  name="opacity"/>
          </Parameters>
          <Attributes>
           <Attribute id="1107" value="" name="ident"/>
          </Attributes>
          <ExtraData>
           <Entry key="ZoomPanBin">
            <ZoomPanBin id="1108"  >
             <ZoomPanKeyframes>
              <ZoomPanKeyframe id="1109" timeRangeEnd="-9999999/1" timeRangeDuration="0/1" interpolaterName="linr"  />
             </ZoomPanKeyframes>
            </ZoomPanBin>
           </Entry>
          </ExtraData>
         </VMFile>
         <MetaData>
          <entry key="WinSubProjectDisplayName" val=""/>
         </MetaData>
        </UnifiedMedia>
        <UnifiedMedia id="1110"  >
         <AMFile id="1111" start="2102" duration="39" scalar="23/47" mediaStart="940/1" mediaDuration="1833/23" trackNumber="1" src="16" channelNumber="0" >
          <Parameters>
           <InterpolatingParam id="1112" interp="linr"  name="volume">
            <Keyframes>
            <Keyframe id="1113"  time="0/1" value="0" leadInLength="0/1"  />
            <Keyframe id="1114"  time="940/1" value="0" leadInLength="0/1"  />
            <Keyframe id="1115"  time="384011/303" value="0" leadInLength="0/1"  />
            <Keyframe id="1116"  time="384314/303" value="1" leadInLength="0/1"  />
            </Keyframes>
           </InterpolatingParam>
           <Parameter id="1117"  name="captions"/>
          </Parameters>
          <Attributes>
           <Attribute id="1118" value="" name="ident"/>
           <Attribute id="1119" value="44100" name="sampleRate"/>
           <Attribute id="1120" value="16" name="bitDepth"/>
           <Attribute id="1121" value="1" name="gain"/>
           <Attribute id="1122" value="0" name="mixToMono"/>
          </Attributes>
         </AMFile>
         <VMFile id="1123" start="2102" duration="39" scalar="23/47" mediaStart="940/1" mediaDuration="1833/23" trackNumber="0" src="16" >
          <Transformer>
           <VectorParam id="1124"  name="translation">
            <InterpolatingParam id="1125" interp="linr"  time="-9999999/1" value="-189.69034362068885" leadInLength="0/1"  interpolater="leadin-linr"  />
            <InterpolatingParam id="1126" interp="linr"  time="-9999999/1" value="31.000000000024674" leadInLength="0/1"  interpolater="leadin-linr"  />
            <InterpolatingParam id="1127" interp="linr"  time="-9999999/1" value="-3.4106051316494244e-010" leadInLength="0/1"  interpolater="leadin-linr"  />
           </VectorParam>
           <VectorParam id="1128"  name="rotation">
            <InterpolatingParam id="1129" interp="linr"  time="-9999999/1" value="0" leadInLength="0/1"  interpolater="leadin-linr"  />
            <InterpolatingParam id="1130" interp="linr"  time="-9999999/1" value="0" leadInLength="0/1"  interpolater="leadin-linr"  />
            <InterpolatingParam id="1131" interp="linr"  time="-9999999/1" value="0" leadInLength="0/1"  interpolater="leadin-linr"  />
           </VectorParam>
           <VectorParam id="1132"  name="shear">
            <InterpolatingParam id="1133" interp="linr"  time="-9999999/1" value="0" leadInLength="0/1"  interpolater="leadin-linr"  />
            <InterpolatingParam id="1134" interp="linr"  time="-9999999/1" value="0" leadInLength="0/1"  interpolater="leadin-linr"  />
            <InterpolatingParam id="1135" interp="linr"  time="-9999999/1" value="0" leadInLength="0/1"  interpolater="leadin-linr"  />
           </VectorParam>
           <VectorParam id="1136"  name="scale">
            <InterpolatingParam id="1137" interp="linr"  time="-9999999/1" value="0.7240740740741245" leadInLength="0/1"  interpolater="leadin-linr"  />
            <InterpolatingParam id="1138" interp="linr"  time="-9999999/1" value="0.7240740740741245" leadInLength="0/1"  interpolater="leadin-linr"  />
            <InterpolatingParam id="1139" interp="linr"  time="-9999999/1" value="1" leadInLength="0/1"  interpolater="leadin-linr"  />
           </VectorParam>
           <VectorParam id="1140"  name="anchor">
            <InterpolatingParam id="1141" interp="linr"  time="0/1" value="0" leadInLength="0/1"  />
            <InterpolatingParam id="1142" interp="linr"  time="0/1" value="0" leadInLength="0/1"  />
            <InterpolatingParam id="1143" interp="linr"  time="0/1" value="0" leadInLength="0/1"  />
           </VectorParam>
          </Transformer>
          <Parameters>
           <VectorParam id="1144"  name="sourceCrop">
            <InterpolatingParam id="1145" interp="linr"  time="0/1" value="0" leadInLength="0/1"  />
            <InterpolatingParam id="1146" interp="linr"  time="0/1" value="0" leadInLength="0/1"  />
            <InterpolatingParam id="1147" interp="linr"  time="0/1" value="0" leadInLength="0/1"  />
            <InterpolatingParam id="1148" interp="linr"  time="0/1" value="0" leadInLength="0/1"  />
           </VectorParam>
           <VectorParam id="1149"  name="geometryCrop">
            <InterpolatingParam id="1150" interp="linr"  time="-9999999/1" value="0" leadInLength="0/1"  interpolater="leadin-linr"  />
            <InterpolatingParam id="1151" interp="linr"  time="-9999999/1" value="0" leadInLength="0/1"  interpolater="leadin-linr"  />
            <InterpolatingParam id="1152" interp="linr"  time="-9999999/1" value="0" leadInLength="0/1"  interpolater="leadin-linr"  />
            <InterpolatingParam id="1153" interp="linr"  time="-9999999/1" value="0" leadInLength="0/1"  interpolater="leadin-linr"  />
           </VectorParam>
           <InterpolatingParam id="1154" interp="linr"  time="-9999999/1" value="1" leadInLength="0/1"  interpolater="leadin-linr"  name="opacity"/>
          </Parameters>
          <Attributes>
           <Attribute id="1155" value="" name="ident"/>
          </Attributes>
          <ExtraData>
           <Entry key="ZoomPanBin">
            <ZoomPanBin id="1156"  >
             <ZoomPanKeyframes>
              <ZoomPanKeyframe id="1157" timeRangeEnd="-9999999/1" timeRangeDuration="0/1" interpolaterName="linr"  />
             </ZoomPanKeyframes>
            </ZoomPanBin>
           </Entry>
          </ExtraData>
         </VMFile>
         <MetaData>
          <entry key="WinSubProjectDisplayName" val=""/>
         </MetaData>
        </UnifiedMedia>
        <UnifiedMedia id="1158"  >
         <AMFile id="1159" start="2141" duration="16" scalar="16/33" mediaStart="0/1" mediaDuration="33/1" trackNumber="1" src="17" channelNumber="0" >
          <Parameters>
           <InterpolatingParam id="1160" interp="linr"  name="volume">
            <Keyframes>
            <Keyframe id="1161"  time="-1/1" value="1" leadInLength="0/1"  />
            <Keyframe id="1162"  time="0/1" value="0" leadInLength="0/1"  />
            </Keyframes>
           </InterpolatingParam>
           <Parameter id="1163"  name="captions"/>
          </Parameters>
          <Attributes>
           <Attribute id="1164" value="" name="ident"/>
           <Attribute id="1165" value="44100" name="sampleRate"/>
           <Attribute id="1166" value="16" name="bitDepth"/>
           <Attribute id="1167" value="1" name="gain"/>
           <Attribute id="1168" value="0" name="mixToMono"/>
          </Attributes>
         </AMFile>
         <VMFile id="1169" start="2141" duration="16" scalar="16/33" mediaStart="0/1" mediaDuration="33/1" trackNumber="0" src="17" >
          <Transformer>
           <VectorParam id="1170"  name="translation">
            <InterpolatingParam id="1171" interp="linr"  time="-9999999/1" value="-206.88888888895221" leadInLength="0/1"  />
            <InterpolatingParam id="1172" interp="linr"  time="-9999999/1" value="30.999999999860361" leadInLength="0/1"  />
            <InterpolatingParam id="1173" interp="linr"  time="-9999999/1" value="0" leadInLength="0/1"  />
           </VectorParam>
           <VectorParam id="1174"  name="rotation">
            <InterpolatingParam id="1175" interp="linr"  time="-9999999/1" value="0" leadInLength="0/1"  />
            <InterpolatingParam id="1176" interp="linr"  time="-9999999/1" value="0" leadInLength="0/1"  />
            <InterpolatingParam id="1177" interp="linr"  time="-9999999/1" value="0" leadInLength="0/1"  />
           </VectorParam>
           <VectorParam id="1178"  name="shear">
            <InterpolatingParam id="1179" interp="linr"  time="-9999999/1" value="0" leadInLength="0/1"  />
            <InterpolatingParam id="1180" interp="linr"  time="-9999999/1" value="0" leadInLength="0/1"  />
            <InterpolatingParam id="1181" interp="linr"  time="-9999999/1" value="0" leadInLength="0/1"  />
           </VectorParam>
           <VectorParam id="1182"  name="scale">
            <InterpolatingParam id="1183" interp="linr"  time="-9999999/1" value="0.72407407407406388" leadInLength="0/1"  />
            <InterpolatingParam id="1184" interp="linr"  time="-9999999/1" value="0.72407407407406399" leadInLength="0/1"  />
            <InterpolatingParam id="1185" interp="linr"  time="-9999999/1" value="1" leadInLength="0/1"  />
           </VectorParam>
           <VectorParam id="1186"  name="anchor">
            <InterpolatingParam id="1187" interp="linr"  time="0/1" value="0" leadInLength="0/1"  />
            <InterpolatingParam id="1188" interp="linr"  time="0/1" value="0" leadInLength="0/1"  />
            <InterpolatingParam id="1189" interp="linr"  time="0/1" value="0" leadInLength="0/1"  />
           </VectorParam>
          </Transformer>
          <Parameters>
           <VectorParam id="1190"  name="sourceCrop">
            <InterpolatingParam id="1191" interp="linr"  time="0/1" value="0" leadInLength="0/1"  />
            <InterpolatingParam id="1192" interp="linr"  time="0/1" value="0" leadInLength="0/1"  />
            <InterpolatingParam id="1193" interp="linr"  time="0/1" value="0" leadInLength="0/1"  />
            <InterpolatingParam id="1194" interp="linr"  time="0/1" value="0" leadInLength="0/1"  />
           </VectorParam>
           <VectorParam id="1195"  name="geometryCrop">
            <InterpolatingParam id="1196" interp="linr"  time="-9999999/1" value="0" leadInLength="0/1"  />
            <InterpolatingParam id="1197" interp="linr"  time="-9999999/1" value="0" leadInLength="0/1"  />
            <InterpolatingParam id="1198" interp="linr"  time="-9999999/1" value="0" leadInLength="0/1"  />
            <InterpolatingParam id="1199" interp="linr"  time="-9999999/1" value="0" leadInLength="0/1"  />
           </VectorParam>
           <InterpolatingParam id="1200" interp="linr"  time="-9999999/1" value="1" leadInLength="0/1"  name="opacity"/>
          </Parameters>
          <Attributes>
           <Attribute id="1201" value="" name="ident"/>
          </Attributes>
          <ExtraData>
           <Entry key="ZoomPanBin">
            <ZoomPanBin id="1202"  >
             <ZoomPanKeyframes>
              <ZoomPanKeyframe id="1203" timeRangeEnd="-9999999/1" timeRangeDuration="0/1" interpolaterName="linr"  />
             </ZoomPanKeyframes>
            </ZoomPanBin>
           </Entry>
          </ExtraData>
         </VMFile>
         <MetaData>
          <entry key="WinSubProjectDisplayName" val=""/>
         </MetaData>
        </UnifiedMedia>
        <UnifiedMedia id="1204"  >
         <AMFile id="1205" start="2157" duration="20" scalar="73/149" mediaStart="64/1" mediaDuration="2980/73" trackNumber="1" src="17" channelNumber="0" >
          <Parameters>
           <InterpolatingParam id="1206" interp="linr"  name="volume">
            <Keyframes>
            <Keyframe id="1207"  time="0/1" value="0" leadInLength="0/1"  />
            <Keyframe id="1208"  time="64/1" value="0" leadInLength="0/1"  />
            </Keyframes>
           </InterpolatingParam>
           <Parameter id="1209"  name="captions"/>
          </Parameters>
          <Attributes>
           <Attribute id="1210" value="" name="ident"/>
           <Attribute id="1211" value="44100" name="sampleRate"/>
           <Attribute id="1212" value="16" name="bitDepth"/>
           <Attribute id="1213" value="1" name="gain"/>
           <Attribute id="1214" value="0" name="mixToMono"/>
          </Attributes>
         </AMFile>
         <VMFile id="1215" start="2157" duration="20" scalar="73/149" mediaStart="64/1" mediaDuration="2980/73" trackNumber="0" src="17" >
          <Transformer>
           <VectorParam id="1216"  name="translation">
            <InterpolatingParam id="1217" interp="linr"  time="-9999999/1" value="-206.88888888895221" leadInLength="0/1"  interpolater="leadin-linr"  />
            <InterpolatingParam id="1218" interp="linr"  time="-9999999/1" value="30.999999999860361" leadInLength="0/1"  interpolater="leadin-linr"  />
            <InterpolatingParam id="1219" interp="linr"  time="-9999999/1" value="0" leadInLength="0/1"  interpolater="leadin-linr"  />
           </VectorParam>
           <VectorParam id="1220"  name="rotation">
            <InterpolatingParam id="1221" interp="linr"  time="-9999999/1" value="0" leadInLength="0/1"  interpolater="leadin-linr"  />
            <InterpolatingParam id="1222" interp="linr"  time="-9999999/1" value="0" leadInLength="0/1"  interpolater="leadin-linr"  />
            <InterpolatingParam id="1223" interp="linr"  time="-9999999/1" value="0" leadInLength="0/1"  interpolater="leadin-linr"  />
           </VectorParam>
           <VectorParam id="1224"  name="shear">
            <InterpolatingParam id="1225" interp="linr"  time="-9999999/1" value="0" leadInLength="0/1"  interpolater="leadin-linr"  />
            <InterpolatingParam id="1226" interp="linr"  time="-9999999/1" value="0" leadInLength="0/1"  interpolater="leadin-linr"  />
            <InterpolatingParam id="1227" interp="linr"  time="-9999999/1" value="0" leadInLength="0/1"  interpolater="leadin-linr"  />
           </VectorParam>
           <VectorParam id="1228"  name="scale">
            <InterpolatingParam id="1229" interp="linr"  time="-9999999/1" value="0.72407407407406388" leadInLength="0/1"  interpolater="leadin-linr"  />
            <InterpolatingParam id="1230" interp="linr"  time="-9999999/1" value="0.72407407407406399" leadInLength="0/1"  interpolater="leadin-linr"  />
            <InterpolatingParam id="1231" interp="linr"  time="-9999999/1" value="1" leadInLength="0/1"  interpolater="leadin-linr"  />
           </VectorParam>
           <VectorParam id="1232"  name="anchor">
            <InterpolatingParam id="1233" interp="linr"  time="0/1" value="0" leadInLength="0/1"  />
            <InterpolatingParam id="1234" interp="linr"  time="0/1" value="0" leadInLength="0/1"  />
            <InterpolatingParam id="1235" interp="linr"  time="0/1" value="0" leadInLength="0/1"  />
           </VectorParam>
          </Transformer>
          <Parameters>
           <VectorParam id="1236"  name="sourceCrop">
            <InterpolatingParam id="1237" interp="linr"  time="0/1" value="0" leadInLength="0/1"  />
            <InterpolatingParam id="1238" interp="linr"  time="0/1" value="0" leadInLength="0/1"  />
            <InterpolatingParam id="1239" interp="linr"  time="0/1" value="0" leadInLength="0/1"  />
            <InterpolatingParam id="1240" interp="linr"  time="0/1" value="0" leadInLength="0/1"  />
           </VectorParam>
           <VectorParam id="1241"  name="geometryCrop">
            <InterpolatingParam id="1242" interp="linr"  time="-9999999/1" value="0" leadInLength="0/1"  interpolater="leadin-linr"  />
            <InterpolatingParam id="1243" interp="linr"  time="-9999999/1" value="0" leadInLength="0/1"  interpolater="leadin-linr"  />
            <InterpolatingParam id="1244" interp="linr"  time="-9999999/1" value="0" leadInLength="0/1"  interpolater="leadin-linr"  />
            <InterpolatingParam id="1245" interp="linr"  time="-9999999/1" value="0" leadInLength="0/1"  interpolater="leadin-linr"  />
           </VectorParam>
           <InterpolatingParam id="1246" interp="linr"  time="-9999999/1" value="1" leadInLength="0/1"  interpolater="leadin-linr"  name="opacity"/>
          </Parameters>
          <Attributes>
           <Attribute id="1247" value="" name="ident"/>
          </Attributes>
          <ExtraData>
           <Entry key="ZoomPanBin">
            <ZoomPanBin id="1248"  >
             <ZoomPanKeyframes>
              <ZoomPanKeyframe id="1249" timeRangeEnd="-9999999/1" timeRangeDuration="0/1" interpolaterName="linr"  />
             </ZoomPanKeyframes>
            </ZoomPanBin>
           </Entry>
          </ExtraData>
         </VMFile>
         <MetaData>
          <entry key="WinSubProjectDisplayName" val=""/>
         </MetaData>
        </UnifiedMedia>
        <UnifiedMedia id="1250"  >
         <AMFile id="1251" start="2177" duration="35" scalar="35/71" mediaStart="142/1" mediaDuration="71/1" trackNumber="1" src="17" channelNumber="0" >
          <Parameters>
           <InterpolatingParam id="1252" interp="linr"  name="volume">
            <Keyframes>
            <Keyframe id="1253"  time="0/1" value="0" leadInLength="0/1"  />
            <Keyframe id="1254"  time="142/1" value="0" leadInLength="0/1"  />
            <Keyframe id="1255"  time="213/1" value="0" leadInLength="0/1"  />
            <Keyframe id="1256"  time="214/1" value="1" leadInLength="0/1"  />
            </Keyframes>
           </InterpolatingParam>
           <Parameter id="1257"  name="captions"/>
          </Parameters>
          <Attributes>
           <Attribute id="1258" value="" name="ident"/>
           <Attribute id="1259" value="44100" name="sampleRate"/>
           <Attribute id="1260" value="16" name="bitDepth"/>
           <Attribute id="1261" value="1" name="gain"/>
           <Attribute id="1262" value="0" name="mixToMono"/>
          </Attributes>
         </AMFile>
         <VMFile id="1263" start="2177" duration="35" scalar="35/71" mediaStart="142/1" mediaDuration="71/1" trackNumber="0" src="17" >
          <Transformer>
           <VectorParam id="1264"  name="translation">
            <InterpolatingParam id="1265" interp="linr"  time="-9999999/1" value="-206.88888888895221" leadInLength="0/1"  interpolater="leadin-linr"  />
            <InterpolatingParam id="1266" interp="linr"  time="-9999999/1" value="30.999999999860361" leadInLength="0/1"  interpolater="leadin-linr"  />
            <InterpolatingParam id="1267" interp="linr"  time="-9999999/1" value="0" leadInLength="0/1"  interpolater="leadin-linr"  />
           </VectorParam>
           <VectorParam id="1268"  name="rotation">
            <InterpolatingParam id="1269" interp="linr"  time="-9999999/1" value="0" leadInLength="0/1"  interpolater="leadin-linr"  />
            <InterpolatingParam id="1270" interp="linr"  time="-9999999/1" value="0" leadInLength="0/1"  interpolater="leadin-linr"  />
            <InterpolatingParam id="1271" interp="linr"  time="-9999999/1" value="0" leadInLength="0/1"  interpolater="leadin-linr"  />
           </VectorParam>
           <VectorParam id="1272"  name="shear">
            <InterpolatingParam id="1273" interp="linr"  time="-9999999/1" value="0" leadInLength="0/1"  interpolater="leadin-linr"  />
            <InterpolatingParam id="1274" interp="linr"  time="-9999999/1" value="0" leadInLength="0/1"  interpolater="leadin-linr"  />
            <InterpolatingParam id="1275" interp="linr"  time="-9999999/1" value="0" leadInLength="0/1"  interpolater="leadin-linr"  />
           </VectorParam>
           <VectorParam id="1276"  name="scale">
            <InterpolatingParam id="1277" interp="linr"  time="-9999999/1" value="0.72407407407406388" leadInLength="0/1"  interpolater="leadin-linr"  />
            <InterpolatingParam id="1278" interp="linr"  time="-9999999/1" value="0.72407407407406399" leadInLength="0/1"  interpolater="leadin-linr"  />
            <InterpolatingParam id="1279" interp="linr"  time="-9999999/1" value="1" leadInLength="0/1"  interpolater="leadin-linr"  />
           </VectorParam>
           <VectorParam id="1280"  name="anchor">
            <InterpolatingParam id="1281" interp="linr"  time="0/1" value="0" leadInLength="0/1"  />
            <InterpolatingParam id="1282" interp="linr"  time="0/1" value="0" leadInLength="0/1"  />
            <InterpolatingParam id="1283" interp="linr"  time="0/1" value="0" leadInLength="0/1"  />
           </VectorParam>
          </Transformer>
          <Parameters>
           <VectorParam id="1284"  name="sourceCrop">
            <InterpolatingParam id="1285" interp="linr"  time="0/1" value="0" leadInLength="0/1"  />
            <InterpolatingParam id="1286" interp="linr"  time="0/1" value="0" leadInLength="0/1"  />
            <InterpolatingParam id="1287" interp="linr"  time="0/1" value="0" leadInLength="0/1"  />
            <InterpolatingParam id="1288" interp="linr"  time="0/1" value="0" leadInLength="0/1"  />
           </VectorParam>
           <VectorParam id="1289"  name="geometryCrop">
            <InterpolatingParam id="1290" interp="linr"  time="-9999999/1" value="0" leadInLength="0/1"  interpolater="leadin-linr"  />
            <InterpolatingParam id="1291" interp="linr"  time="-9999999/1" value="0" leadInLength="0/1"  interpolater="leadin-linr"  />
            <InterpolatingParam id="1292" interp="linr"  time="-9999999/1" value="0" leadInLength="0/1"  interpolater="leadin-linr"  />
            <InterpolatingParam id="1293" interp="linr"  time="-9999999/1" value="0" leadInLength="0/1"  interpolater="leadin-linr"  />
           </VectorParam>
           <InterpolatingParam id="1294" interp="linr"  time="-9999999/1" value="1" leadInLength="0/1"  interpolater="leadin-linr"  name="opacity"/>
          </Parameters>
          <Attributes>
           <Attribute id="1295" value="" name="ident"/>
          </Attributes>
          <ExtraData>
           <Entry key="ZoomPanBin">
            <ZoomPanBin id="1296"  >
             <ZoomPanKeyframes>
              <ZoomPanKeyframe id="1297" timeRangeEnd="-9999999/1" timeRangeDuration="0/1" interpolaterName="linr"  />
             </ZoomPanKeyframes>
            </ZoomPanBin>
           </Entry>
          </ExtraData>
         </VMFile>
         <MetaData>
          <entry key="WinSubProjectDisplayName" val=""/>
         </MetaData>
        </UnifiedMedia>
        <UnifiedMedia id="1298"  >
         <AMFile id="1299" start="2212" duration="109" scalar="2/1" mediaStart="273/2" mediaDuration="109/2" trackNumber="1" src="18" channelNumber="0" >
          <Parameters>
           <InterpolatingParam id="1300" interp="linr"  time="0/1" value="0" leadInLength="0/1"  name="volume"/>
           <Parameter id="1301"  name="captions"/>
          </Parameters>
          <Attributes>
           <Attribute id="1302" value="" name="ident"/>
           <Attribute id="1303" value="44100" name="sampleRate"/>
           <Attribute id="1304" value="16" name="bitDepth"/>
           <Attribute id="1305" value="1" name="gain"/>
           <Attribute id="1306" value="0" name="mixToMono"/>
          </Attributes>
         </AMFile>
         <VMFile id="1307" start="2212" duration="109" scalar="2/1" mediaStart="273/2" mediaDuration="109/2" trackNumber="0" src="18" >
          <Transformer>
           <VectorParam id="1308"  name="translation">
            <InterpolatingParam id="1309" interp="linr"  time="-9999999/1" value="-206.00000000000074" leadInLength="0/1"  />
            <InterpolatingParam id="1310" interp="linr"  time="-9999999/1" value="30.375000000134179" leadInLength="0/1"  />
            <InterpolatingParam id="1311" interp="linr"  time="-9999999/1" value="0" leadInLength="0/1"  />
           </VectorParam>
           <VectorParam id="1312"  name="rotation">
            <InterpolatingParam id="1313" interp="linr"  time="-9999999/1" value="0" leadInLength="0/1"  />
            <InterpolatingParam id="1314" interp="linr"  time="-9999999/1" value="0" leadInLength="0/1"  />
            <InterpolatingParam id="1315" interp="linr"  time="-9999999/1" value="0" leadInLength="0/1"  />
           </VectorParam>
           <VectorParam id="1316"  name="shear">
            <InterpolatingParam id="1317" interp="linr"  time="-9999999/1" value="0" leadInLength="0/1"  />
            <InterpolatingParam id="1318" interp="linr"  time="-9999999/1" value="0" leadInLength="0/1"  />
            <InterpolatingParam id="1319" interp="linr"  time="-9999999/1" value="0" leadInLength="0/1"  />
           </VectorParam>
           <VectorParam id="1320"  name="scale">
            <InterpolatingParam id="1321" interp="linr"  time="-9999999/1" value="0.72291666666681864" leadInLength="0/1"  />
            <InterpolatingParam id="1322" interp="linr"  time="-9999999/1" value="0.72291666666681864" leadInLength="0/1"  />
            <InterpolatingParam id="1323" interp="linr"  time="-9999999/1" value="1" leadInLength="0/1"  />
           </VectorParam>
           <VectorParam id="1324"  name="anchor">
            <InterpolatingParam id="1325" interp="linr"  time="0/1" value="0" leadInLength="0/1"  />
            <InterpolatingParam id="1326" interp="linr"  time="0/1" value="0" leadInLength="0/1"  />
            <InterpolatingParam id="1327" interp="linr"  time="0/1" value="0" leadInLength="0/1"  />
           </VectorParam>
          </Transformer>
          <Parameters>
           <VectorParam id="1328"  name="sourceCrop">
            <InterpolatingParam id="1329" interp="linr"  time="0/1" value="0" leadInLength="0/1"  />
            <InterpolatingParam id="1330" interp="linr"  time="0/1" value="0" leadInLength="0/1"  />
            <InterpolatingParam id="1331" interp="linr"  time="0/1" value="0" leadInLength="0/1"  />
            <InterpolatingParam id="1332" interp="linr"  time="0/1" value="0" leadInLength="0/1"  />
           </VectorParam>
           <VectorParam id="1333"  name="geometryCrop">
            <InterpolatingParam id="1334" interp="linr"  time="-9999999/1" value="0" leadInLength="0/1"  />
            <InterpolatingParam id="1335" interp="linr"  time="-9999999/1" value="0" leadInLength="0/1"  />
            <InterpolatingParam id="1336" interp="linr"  time="-9999999/1" value="0" leadInLength="0/1"  />
            <InterpolatingParam id="1337" interp="linr"  time="-9999999/1" value="0" leadInLength="0/1"  />
           </VectorParam>
           <InterpolatingParam id="1338" interp="linr"  time="-9999999/1" value="1" leadInLength="0/1"  name="opacity"/>
          </Parameters>
          <Attributes>
           <Attribute id="1339" value="" name="ident"/>
          </Attributes>
          <ExtraData>
           <Entry key="ZoomPanBin">
            <ZoomPanBin id="1340"  >
             <ZoomPanKeyframes>
              <ZoomPanKeyframe id="1341" timeRangeEnd="-9999999/1" timeRangeDuration="0/1" interpolaterName="linr"  />
             </ZoomPanKeyframes>
            </ZoomPanBin>
           </Entry>
          </ExtraData>
         </VMFile>
         <MetaData>
          <entry key="WinSubProjectDisplayName" val=""/>
         </MetaData>
        </UnifiedMedia>
        <UnifiedMedia id="1342"  >
         <AMFile id="1343" start="2321" duration="90" scalar="621/311" mediaStart="348/1" mediaDuration="3110/69" trackNumber="1" src="18" channelNumber="0" >
          <Parameters>
           <InterpolatingParam id="1344" interp="linr"  name="volume">
            <Keyframes>
            <Keyframe id="1345"  time="0/1" value="0" leadInLength="0/1"  />
            <Keyframe id="1346"  time="348/1" value="0" leadInLength="0/1"  />
            </Keyframes>
           </InterpolatingParam>
           <Parameter id="1347"  name="captions"/>
          </Parameters>
          <Attributes>
           <Attribute id="1348" value="" name="ident"/>
           <Attribute id="1349" value="44100" name="sampleRate"/>
           <Attribute id="1350" value="16" name="bitDepth"/>
           <Attribute id="1351" value="1" name="gain"/>
           <Attribute id="1352" value="0" name="mixToMono"/>
          </Attributes>
         </AMFile>
         <VMFile id="1353" start="2321" duration="90" scalar="621/311" mediaStart="348/1" mediaDuration="3110/69" trackNumber="0" src="18" >
          <Transformer>
           <VectorParam id="1354"  name="translation">
            <InterpolatingParam id="1355" interp="linr"  time="-9999999/1" value="-206.00000000000074" leadInLength="0/1"  interpolater="leadin-linr"  />
            <InterpolatingParam id="1356" interp="linr"  time="-9999999/1" value="30.375000000134179" leadInLength="0/1"  interpolater="leadin-linr"  />
            <InterpolatingParam id="1357" interp="linr"  time="-9999999/1" value="0" leadInLength="0/1"  interpolater="leadin-linr"  />
           </VectorParam>
           <VectorParam id="1358"  name="rotation">
            <InterpolatingParam id="1359" interp="linr"  time="-9999999/1" value="0" leadInLength="0/1"  interpolater="leadin-linr"  />
            <InterpolatingParam id="1360" interp="linr"  time="-9999999/1" value="0" leadInLength="0/1"  interpolater="leadin-linr"  />
            <InterpolatingParam id="1361" interp="linr"  time="-9999999/1" value="0" leadInLength="0/1"  interpolater="leadin-linr"  />
           </VectorParam>
           <VectorParam id="1362"  name="shear">
            <InterpolatingParam id="1363" interp="linr"  time="-9999999/1" value="0" leadInLength="0/1"  interpolater="leadin-linr"  />
            <InterpolatingParam id="1364" interp="linr"  time="-9999999/1" value="0" leadInLength="0/1"  interpolater="leadin-linr"  />
            <InterpolatingParam id="1365" interp="linr"  time="-9999999/1" value="0" leadInLength="0/1"  interpolater="leadin-linr"  />
           </VectorParam>
           <VectorParam id="1366"  name="scale">
            <InterpolatingParam id="1367" interp="linr"  time="-9999999/1" value="0.72291666666681864" leadInLength="0/1"  interpolater="leadin-linr"  />
            <InterpolatingParam id="1368" interp="linr"  time="-9999999/1" value="0.72291666666681864" leadInLength="0/1"  interpolater="leadin-linr"  />
            <InterpolatingParam id="1369" interp="linr"  time="-9999999/1" value="1" leadInLength="0/1"  interpolater="leadin-linr"  />
           </VectorParam>
           <VectorParam id="1370"  name="anchor">
            <InterpolatingParam id="1371" interp="linr"  time="0/1" value="0" leadInLength="0/1"  />
            <InterpolatingParam id="1372" interp="linr"  time="0/1" value="0" leadInLength="0/1"  />
            <InterpolatingParam id="1373" interp="linr"  time="0/1" value="0" leadInLength="0/1"  />
           </VectorParam>
          </Transformer>
          <Parameters>
           <VectorParam id="1374"  name="sourceCrop">
            <InterpolatingParam id="1375" interp="linr"  time="0/1" value="0" leadInLength="0/1"  />
            <InterpolatingParam id="1376" interp="linr"  time="0/1" value="0" leadInLength="0/1"  />
            <InterpolatingParam id="1377" interp="linr"  time="0/1" value="0" leadInLength="0/1"  />
            <InterpolatingParam id="1378" interp="linr"  time="0/1" value="0" leadInLength="0/1"  />
           </VectorParam>
           <VectorParam id="1379"  name="geometryCrop">
            <InterpolatingParam id="1380" interp="linr"  time="-9999999/1" value="0" leadInLength="0/1"  interpolater="leadin-linr"  />
            <InterpolatingParam id="1381" interp="linr"  time="-9999999/1" value="0" leadInLength="0/1"  interpolater="leadin-linr"  />
            <InterpolatingParam id="1382" interp="linr"  time="-9999999/1" value="0" leadInLength="0/1"  interpolater="leadin-linr"  />
            <InterpolatingParam id="1383" interp="linr"  time="-9999999/1" value="0" leadInLength="0/1"  interpolater="leadin-linr"  />
           </VectorParam>
           <InterpolatingParam id="1384" interp="linr"  time="-9999999/1" value="1" leadInLength="0/1"  interpolater="leadin-linr"  name="opacity"/>
          </Parameters>
          <Attributes>
           <Attribute id="1385" value="" name="ident"/>
          </Attributes>
          <ExtraData>
           <Entry key="ZoomPanBin">
            <ZoomPanBin id="1386"  >
             <ZoomPanKeyframes>
              <ZoomPanKeyframe id="1387" timeRangeEnd="-9999999/1" timeRangeDuration="0/1" interpolaterName="linr"  />
             </ZoomPanKeyframes>
            </ZoomPanBin>
           </Entry>
          </ExtraData>
         </VMFile>
         <MetaData>
          <entry key="WinSubProjectDisplayName" val=""/>
         </MetaData>
        </UnifiedMedia>
        <UnifiedMedia id="1388"  >
         <AMFile id="1389" start="2411" duration="109" scalar="2/1" mediaStart="273/2" mediaDuration="109/2" trackNumber="1" src="18" channelNumber="0" >
          <Parameters>
           <InterpolatingParam id="1390" interp="linr"  time="0/1" value="0" leadInLength="0/1"  name="volume"/>
           <Parameter id="1391"  name="captions"/>
          </Parameters>
          <Attributes>
           <Attribute id="1392" value="" name="ident"/>
           <Attribute id="1393" value="44100" name="sampleRate"/>
           <Attribute id="1394" value="16" name="bitDepth"/>
           <Attribute id="1395" value="1" name="gain"/>
           <Attribute id="1396" value="0" name="mixToMono"/>
          </Attributes>
         </AMFile>
         <VMFile id="1397" start="2411" duration="109" scalar="2/1" mediaStart="273/2" mediaDuration="109/2" trackNumber="0" src="18" >
          <Transformer>
           <VectorParam id="1398"  name="translation">
            <InterpolatingParam id="1399" interp="linr"  time="-9999999/1" value="-206.00000000000074" leadInLength="0/1"  />
            <InterpolatingParam id="1400" interp="linr"  time="-9999999/1" value="30.375000000134179" leadInLength="0/1"  />
            <InterpolatingParam id="1401" interp="linr"  time="-9999999/1" value="0" leadInLength="0/1"  />
           </VectorParam>
           <VectorParam id="1402"  name="rotation">
            <InterpolatingParam id="1403" interp="linr"  time="-9999999/1" value="0" leadInLength="0/1"  />
            <InterpolatingParam id="1404" interp="linr"  time="-9999999/1" value="0" leadInLength="0/1"  />
            <InterpolatingParam id="1405" interp="linr"  time="-9999999/1" value="0" leadInLength="0/1"  />
           </VectorParam>
           <VectorParam id="1406"  name="shear">
            <InterpolatingParam id="1407" interp="linr"  time="-9999999/1" value="0" leadInLength="0/1"  />
            <InterpolatingParam id="1408" interp="linr"  time="-9999999/1" value="0" leadInLength="0/1"  />
            <InterpolatingParam id="1409" interp="linr"  time="-9999999/1" value="0" leadInLength="0/1"  />
           </VectorParam>
           <VectorParam id="1410"  name="scale">
            <InterpolatingParam id="1411" interp="linr"  time="-9999999/1" value="0.72291666666681864" leadInLength="0/1"  />
            <InterpolatingParam id="1412" interp="linr"  time="-9999999/1" value="0.72291666666681864" leadInLength="0/1"  />
            <InterpolatingParam id="1413" interp="linr"  time="-9999999/1" value="1" leadInLength="0/1"  />
           </VectorParam>
           <VectorParam id="1414"  name="anchor">
            <InterpolatingParam id="1415" interp="linr"  time="0/1" value="0" leadInLength="0/1"  />
            <InterpolatingParam id="1416" interp="linr"  time="0/1" value="0" leadInLength="0/1"  />
            <InterpolatingParam id="1417" interp="linr"  time="0/1" value="0" leadInLength="0/1"  />
           </VectorParam>
          </Transformer>
          <Parameters>
           <VectorParam id="1418"  name="sourceCrop">
            <InterpolatingParam id="1419" interp="linr"  time="0/1" value="0" leadInLength="0/1"  />
            <InterpolatingParam id="1420" interp="linr"  time="0/1" value="0" leadInLength="0/1"  />
            <InterpolatingParam id="1421" interp="linr"  time="0/1" value="0" leadInLength="0/1"  />
            <InterpolatingParam id="1422" interp="linr"  time="0/1" value="0" leadInLength="0/1"  />
           </VectorParam>
           <VectorParam id="1423"  name="geometryCrop">
            <InterpolatingParam id="1424" interp="linr"  time="-9999999/1" value="0" leadInLength="0/1"  />
            <InterpolatingParam id="1425" interp="linr"  time="-9999999/1" value="0" leadInLength="0/1"  />
            <InterpolatingParam id="1426" interp="linr"  time="-9999999/1" value="0" leadInLength="0/1"  />
            <InterpolatingParam id="1427" interp="linr"  time="-9999999/1" value="0" leadInLength="0/1"  />
           </VectorParam>
           <InterpolatingParam id="1428" interp="linr"  time="-9999999/1" value="1" leadInLength="0/1"  name="opacity"/>
          </Parameters>
          <Attributes>
           <Attribute id="1429" value="" name="ident"/>
          </Attributes>
          <ExtraData>
           <Entry key="ZoomPanBin">
            <ZoomPanBin id="1430"  >
             <ZoomPanKeyframes>
              <ZoomPanKeyframe id="1431" timeRangeEnd="-9999999/1" timeRangeDuration="0/1" interpolaterName="linr"  />
             </ZoomPanKeyframes>
            </ZoomPanBin>
           </Entry>
          </ExtraData>
         </VMFile>
         <MetaData>
          <entry key="WinSubProjectDisplayName" val=""/>
         </MetaData>
        </UnifiedMedia>
        <UnifiedMedia id="1432"  >
         <AMFile id="1433" start="2520" duration="90" scalar="621/311" mediaStart="348/1" mediaDuration="3110/69" trackNumber="1" src="18" channelNumber="0" >
          <Parameters>
           <InterpolatingParam id="1434" interp="linr"  name="volume">
            <Keyframes>
            <Keyframe id="1435"  time="0/1" value="0" leadInLength="0/1"  />
            <Keyframe id="1436"  time="348/1" value="0" leadInLength="0/1"  />
            </Keyframes>
           </InterpolatingParam>
           <Parameter id="1437"  name="captions"/>
          </Parameters>
          <Attributes>
           <Attribute id="1438" value="" name="ident"/>
           <Attribute id="1439" value="44100" name="sampleRate"/>
           <Attribute id="1440" value="16" name="bitDepth"/>
           <Attribute id="1441" value="1" name="gain"/>
           <Attribute id="1442" value="0" name="mixToMono"/>
          </Attributes>
         </AMFile>
         <VMFile id="1443" start="2520" duration="90" scalar="621/311" mediaStart="348/1" mediaDuration="3110/69" trackNumber="0" src="18" >
          <Transformer>
           <VectorParam id="1444"  name="translation">
            <InterpolatingParam id="1445" interp="linr"  time="-9999999/1" value="-206.00000000000074" leadInLength="0/1"  interpolater="leadin-linr"  />
            <InterpolatingParam id="1446" interp="linr"  time="-9999999/1" value="30.375000000134179" leadInLength="0/1"  interpolater="leadin-linr"  />
            <InterpolatingParam id="1447" interp="linr"  time="-9999999/1" value="0" leadInLength="0/1"  interpolater="leadin-linr"  />
           </VectorParam>
           <VectorParam id="1448"  name="rotation">
            <InterpolatingParam id="1449" interp="linr"  time="-9999999/1" value="0" leadInLength="0/1"  interpolater="leadin-linr"  />
            <InterpolatingParam id="1450" interp="linr"  time="-9999999/1" value="0" leadInLength="0/1"  interpolater="leadin-linr"  />
            <InterpolatingParam id="1451" interp="linr"  time="-9999999/1" value="0" leadInLength="0/1"  interpolater="leadin-linr"  />
           </VectorParam>
           <VectorParam id="1452"  name="shear">
            <InterpolatingParam id="1453" interp="linr"  time="-9999999/1" value="0" leadInLength="0/1"  interpolater="leadin-linr"  />
            <InterpolatingParam id="1454" interp="linr"  time="-9999999/1" value="0" leadInLength="0/1"  interpolater="leadin-linr"  />
            <InterpolatingParam id="1455" interp="linr"  time="-9999999/1" value="0" leadInLength="0/1"  interpolater="leadin-linr"  />
           </VectorParam>
           <VectorParam id="1456"  name="scale">
            <InterpolatingParam id="1457" interp="linr"  time="-9999999/1" value="0.72291666666681864" leadInLength="0/1"  interpolater="leadin-linr"  />
            <InterpolatingParam id="1458" interp="linr"  time="-9999999/1" value="0.72291666666681864" leadInLength="0/1"  interpolater="leadin-linr"  />
            <InterpolatingParam id="1459" interp="linr"  time="-9999999/1" value="1" leadInLength="0/1"  interpolater="leadin-linr"  />
           </VectorParam>
           <VectorParam id="1460"  name="anchor">
            <InterpolatingParam id="1461" interp="linr"  time="0/1" value="0" leadInLength="0/1"  />
            <InterpolatingParam id="1462" interp="linr"  time="0/1" value="0" leadInLength="0/1"  />
            <InterpolatingParam id="1463" interp="linr"  time="0/1" value="0" leadInLength="0/1"  />
           </VectorParam>
          </Transformer>
          <Parameters>
           <VectorParam id="1464"  name="sourceCrop">
            <InterpolatingParam id="1465" interp="linr"  time="0/1" value="0" leadInLength="0/1"  />
            <InterpolatingParam id="1466" interp="linr"  time="0/1" value="0" leadInLength="0/1"  />
            <InterpolatingParam id="1467" interp="linr"  time="0/1" value="0" leadInLength="0/1"  />
            <InterpolatingParam id="1468" interp="linr"  time="0/1" value="0" leadInLength="0/1"  />
           </VectorParam>
           <VectorParam id="1469"  name="geometryCrop">
            <InterpolatingParam id="1470" interp="linr"  time="-9999999/1" value="0" leadInLength="0/1"  interpolater="leadin-linr"  />
            <InterpolatingParam id="1471" interp="linr"  time="-9999999/1" value="0" leadInLength="0/1"  interpolater="leadin-linr"  />
            <InterpolatingParam id="1472" interp="linr"  time="-9999999/1" value="0" leadInLength="0/1"  interpolater="leadin-linr"  />
            <InterpolatingParam id="1473" interp="linr"  time="-9999999/1" value="0" leadInLength="0/1"  interpolater="leadin-linr"  />
           </VectorParam>
           <InterpolatingParam id="1474" interp="linr"  time="-9999999/1" value="1" leadInLength="0/1"  interpolater="leadin-linr"  name="opacity"/>
          </Parameters>
          <Attributes>
           <Attribute id="1475" value="" name="ident"/>
          </Attributes>
          <ExtraData>
           <Entry key="ZoomPanBin">
            <ZoomPanBin id="1476"  >
             <ZoomPanKeyframes>
              <ZoomPanKeyframe id="1477" timeRangeEnd="-9999999/1" timeRangeDuration="0/1" interpolaterName="linr"  />
             </ZoomPanKeyframes>
            </ZoomPanBin>
           </Entry>
          </ExtraData>
         </VMFile>
         <MetaData>
          <entry key="WinSubProjectDisplayName" val=""/>
         </MetaData>
        </UnifiedMedia>
        <UnifiedMedia id="1478"  >
         <AMFile id="1479" start="2610" duration="109" scalar="2/1" mediaStart="273/2" mediaDuration="109/2" trackNumber="1" src="18" channelNumber="0" >
          <Parameters>
           <InterpolatingParam id="1480" interp="linr"  time="0/1" value="0" leadInLength="0/1"  name="volume"/>
           <Parameter id="1481"  name="captions"/>
          </Parameters>
          <Attributes>
           <Attribute id="1482" value="" name="ident"/>
           <Attribute id="1483" value="44100" name="sampleRate"/>
           <Attribute id="1484" value="16" name="bitDepth"/>
           <Attribute id="1485" value="1" name="gain"/>
           <Attribute id="1486" value="0" name="mixToMono"/>
          </Attributes>
         </AMFile>
         <VMFile id="1487" start="2610" duration="109" scalar="2/1" mediaStart="273/2" mediaDuration="109/2" trackNumber="0" src="18" >
          <Transformer>
           <VectorParam id="1488"  name="translation">
            <InterpolatingParam id="1489" interp="linr"  time="-9999999/1" value="-206.00000000000074" leadInLength="0/1"  />
            <InterpolatingParam id="1490" interp="linr"  time="-9999999/1" value="30.375000000134179" leadInLength="0/1"  />
            <InterpolatingParam id="1491" interp="linr"  time="-9999999/1" value="0" leadInLength="0/1"  />
           </VectorParam>
           <VectorParam id="1492"  name="rotation">
            <InterpolatingParam id="1493" interp="linr"  time="-9999999/1" value="0" leadInLength="0/1"  />
            <InterpolatingParam id="1494" interp="linr"  time="-9999999/1" value="0" leadInLength="0/1"  />
            <InterpolatingParam id="1495" interp="linr"  time="-9999999/1" value="0" leadInLength="0/1"  />
           </VectorParam>
           <VectorParam id="1496"  name="shear">
            <InterpolatingParam id="1497" interp="linr"  time="-9999999/1" value="0" leadInLength="0/1"  />
            <InterpolatingParam id="1498" interp="linr"  time="-9999999/1" value="0" leadInLength="0/1"  />
            <InterpolatingParam id="1499" interp="linr"  time="-9999999/1" value="0" leadInLength="0/1"  />
           </VectorParam>
           <VectorParam id="1500"  name="scale">
            <InterpolatingParam id="1501" interp="linr"  time="-9999999/1" value="0.72291666666681864" leadInLength="0/1"  />
            <InterpolatingParam id="1502" interp="linr"  time="-9999999/1" value="0.72291666666681864" leadInLength="0/1"  />
            <InterpolatingParam id="1503" interp="linr"  time="-9999999/1" value="1" leadInLength="0/1"  />
           </VectorParam>
           <VectorParam id="1504"  name="anchor">
            <InterpolatingParam id="1505" interp="linr"  time="0/1" value="0" leadInLength="0/1"  />
            <InterpolatingParam id="1506" interp="linr"  time="0/1" value="0" leadInLength="0/1"  />
            <InterpolatingParam id="1507" interp="linr"  time="0/1" value="0" leadInLength="0/1"  />
           </VectorParam>
          </Transformer>
          <Parameters>
           <VectorParam id="1508"  name="sourceCrop">
            <InterpolatingParam id="1509" interp="linr"  time="0/1" value="0" leadInLength="0/1"  />
            <InterpolatingParam id="1510" interp="linr"  time="0/1" value="0" leadInLength="0/1"  />
            <InterpolatingParam id="1511" interp="linr"  time="0/1" value="0" leadInLength="0/1"  />
            <InterpolatingParam id="1512" interp="linr"  time="0/1" value="0" leadInLength="0/1"  />
           </VectorParam>
           <VectorParam id="1513"  name="geometryCrop">
            <InterpolatingParam id="1514" interp="linr"  time="-9999999/1" value="0" leadInLength="0/1"  />
            <InterpolatingParam id="1515" interp="linr"  time="-9999999/1" value="0" leadInLength="0/1"  />
            <InterpolatingParam id="1516" interp="linr"  time="-9999999/1" value="0" leadInLength="0/1"  />
            <InterpolatingParam id="1517" interp="linr"  time="-9999999/1" value="0" leadInLength="0/1"  />
           </VectorParam>
           <InterpolatingParam id="1518" interp="linr"  time="-9999999/1" value="1" leadInLength="0/1"  name="opacity"/>
          </Parameters>
          <Attributes>
           <Attribute id="1519" value="" name="ident"/>
          </Attributes>
          <ExtraData>
           <Entry key="ZoomPanBin">
            <ZoomPanBin id="1520"  >
             <ZoomPanKeyframes>
              <ZoomPanKeyframe id="1521" timeRangeEnd="-9999999/1" timeRangeDuration="0/1" interpolaterName="linr"  />
             </ZoomPanKeyframes>
            </ZoomPanBin>
           </Entry>
          </ExtraData>
         </VMFile>
         <MetaData>
          <entry key="WinSubProjectDisplayName" val=""/>
         </MetaData>
        </UnifiedMedia>
        <UnifiedMedia id="1522"  >
         <AMFile id="1523" start="2719" duration="134" scalar="621/311" mediaStart="348/1" mediaDuration="41674/621" trackNumber="1" src="18" channelNumber="0" >
          <Parameters>
           <InterpolatingParam id="1524" interp="linr"  name="volume">
            <Keyframes>
            <Keyframe id="1525"  time="0/1" value="0" leadInLength="0/1"  />
            <Keyframe id="1526"  time="348/1" value="0" leadInLength="0/1"  />
            </Keyframes>
           </InterpolatingParam>
           <Parameter id="1527"  name="captions"/>
          </Parameters>
          <Attributes>
           <Attribute id="1528" value="" name="ident"/>
           <Attribute id="1529" value="44100" name="sampleRate"/>
           <Attribute id="1530" value="16" name="bitDepth"/>
           <Attribute id="1531" value="1" name="gain"/>
           <Attribute id="1532" value="0" name="mixToMono"/>
          </Attributes>
         </AMFile>
         <VMFile id="1533" start="2719" duration="134" scalar="621/311" mediaStart="348/1" mediaDuration="41674/621" trackNumber="0" src="18" >
          <Transformer>
           <VectorParam id="1534"  name="translation">
            <InterpolatingParam id="1535" interp="linr"  time="-9999999/1" value="-206.00000000000074" leadInLength="0/1"  interpolater="leadin-linr"  />
            <InterpolatingParam id="1536" interp="linr"  time="-9999999/1" value="30.375000000134179" leadInLength="0/1"  interpolater="leadin-linr"  />
            <InterpolatingParam id="1537" interp="linr"  time="-9999999/1" value="0" leadInLength="0/1"  interpolater="leadin-linr"  />
           </VectorParam>
           <VectorParam id="1538"  name="rotation">
            <InterpolatingParam id="1539" interp="linr"  time="-9999999/1" value="0" leadInLength="0/1"  interpolater="leadin-linr"  />
            <InterpolatingParam id="1540" interp="linr"  time="-9999999/1" value="0" leadInLength="0/1"  interpolater="leadin-linr"  />
            <InterpolatingParam id="1541" interp="linr"  time="-9999999/1" value="0" leadInLength="0/1"  interpolater="leadin-linr"  />
           </VectorParam>
           <VectorParam id="1542"  name="shear">
            <InterpolatingParam id="1543" interp="linr"  time="-9999999/1" value="0" leadInLength="0/1"  interpolater="leadin-linr"  />
            <InterpolatingParam id="1544" interp="linr"  time="-9999999/1" value="0" leadInLength="0/1"  interpolater="leadin-linr"  />
            <InterpolatingParam id="1545" interp="linr"  time="-9999999/1" value="0" leadInLength="0/1"  interpolater="leadin-linr"  />
           </VectorParam>
           <VectorParam id="1546"  name="scale">
            <InterpolatingParam id="1547" interp="linr"  time="-9999999/1" value="0.72291666666681864" leadInLength="0/1"  interpolater="leadin-linr"  />
            <InterpolatingParam id="1548" interp="linr"  time="-9999999/1" value="0.72291666666681864" leadInLength="0/1"  interpolater="leadin-linr"  />
            <InterpolatingParam id="1549" interp="linr"  time="-9999999/1" value="1" leadInLength="0/1"  interpolater="leadin-linr"  />
           </VectorParam>
           <VectorParam id="1550"  name="anchor">
            <InterpolatingParam id="1551" interp="linr"  time="0/1" value="0" leadInLength="0/1"  />
            <InterpolatingParam id="1552" interp="linr"  time="0/1" value="0" leadInLength="0/1"  />
            <InterpolatingParam id="1553" interp="linr"  time="0/1" value="0" leadInLength="0/1"  />
           </VectorParam>
          </Transformer>
          <Parameters>
           <VectorParam id="1554"  name="sourceCrop">
            <InterpolatingParam id="1555" interp="linr"  time="0/1" value="0" leadInLength="0/1"  />
            <InterpolatingParam id="1556" interp="linr"  time="0/1" value="0" leadInLength="0/1"  />
            <InterpolatingParam id="1557" interp="linr"  time="0/1" value="0" leadInLength="0/1"  />
            <InterpolatingParam id="1558" interp="linr"  time="0/1" value="0" leadInLength="0/1"  />
           </VectorParam>
           <VectorParam id="1559"  name="geometryCrop">
            <InterpolatingParam id="1560" interp="linr"  time="-9999999/1" value="0" leadInLength="0/1"  interpolater="leadin-linr"  />
            <InterpolatingParam id="1561" interp="linr"  time="-9999999/1" value="0" leadInLength="0/1"  interpolater="leadin-linr"  />
            <InterpolatingParam id="1562" interp="linr"  time="-9999999/1" value="0" leadInLength="0/1"  interpolater="leadin-linr"  />
            <InterpolatingParam id="1563" interp="linr"  time="-9999999/1" value="0" leadInLength="0/1"  interpolater="leadin-linr"  />
           </VectorParam>
           <InterpolatingParam id="1564" interp="linr"  time="-9999999/1" value="1" leadInLength="0/1"  interpolater="leadin-linr"  name="opacity"/>
          </Parameters>
          <Attributes>
           <Attribute id="1565" value="" name="ident"/>
          </Attributes>
          <ExtraData>
           <Entry key="ZoomPanBin">
            <ZoomPanBin id="1566"  >
             <ZoomPanKeyframes>
              <ZoomPanKeyframe id="1567" timeRangeEnd="-9999999/1" timeRangeDuration="0/1" interpolaterName="linr"  />
             </ZoomPanKeyframes>
            </ZoomPanBin>
           </Entry>
          </ExtraData>
         </VMFile>
         <MetaData>
          <entry key="WinSubProjectDisplayName" val=""/>
         </MetaData>
        </UnifiedMedia>
        <StitchedMedia id="1568" start="2853" duration="223" scalar="32039/16036" mediaStart="8266788/32039" mediaDuration="3576028/32039" minMediaStart="0/1" >
         <Transformer>
          <VectorParam id="1569"  name="translation">
           <InterpolatingParam id="1570" interp="linr"  >
            <Keyframes>
            <Keyframe id="1571"  time="-9999999/1" value="-206.00000000000074" leadInLength="0/1"  />
            <Keyframe id="1572"  time="11634348/32039" value="-341.77777777791005" leadInLength="3335488/32039"  interpolater="leadin-linr"  />
            </Keyframes>
           </InterpolatingParam>
           <InterpolatingParam id="1573" interp="linr"  >
            <Keyframes>
            <Keyframe id="1574"  time="-9999999/1" value="30.375000000134179" leadInLength="0/1"  />
            <Keyframe id="1575"  time="11634348/32039" value="11.37499999984836" leadInLength="3335488/32039"  interpolater="leadin-linr"  />
            </Keyframes>
           </InterpolatingParam>
           <InterpolatingParam id="1576" interp="linr"  >
            <Keyframes>
            <Keyframe id="1577"  time="-9999999/1" value="0" leadInLength="0/1"  />
            <Keyframe id="1578"  time="11634348/32039" value="-3.4106051316482886e-010" leadInLength="3335488/32039"  interpolater="leadin-linr"  />
            </Keyframes>
           </InterpolatingParam>
          </VectorParam>
          <VectorParam id="1579"  name="rotation">
           <InterpolatingParam id="1580" interp="linr"  >
            <Keyframes>
            <Keyframe id="1581"  time="-9999999/1" value="0" leadInLength="0/1"  />
            <Keyframe id="1582"  time="11634348/32039" value="0" leadInLength="3335488/32039"  interpolater="leadin-linr"  />
            </Keyframes>
           </InterpolatingParam>
           <InterpolatingParam id="1583" interp="linr"  >
            <Keyframes>
            <Keyframe id="1584"  time="-9999999/1" value="0" leadInLength="0/1"  />
            <Keyframe id="1585"  time="11634348/32039" value="0" leadInLength="3335488/32039"  interpolater="leadin-linr"  />
            </Keyframes>
           </InterpolatingParam>
           <InterpolatingParam id="1586" interp="linr"  >
            <Keyframes>
            <Keyframe id="1587"  time="-9999999/1" value="0" leadInLength="0/1"  />
            <Keyframe id="1588"  time="11634348/32039" value="0" leadInLength="3335488/32039"  interpolater="leadin-linr"  />
            </Keyframes>
           </InterpolatingParam>
          </VectorParam>
          <VectorParam id="1589"  name="shear">
           <InterpolatingParam id="1590" interp="linr"  >
            <Keyframes>
            <Keyframe id="1591"  time="-9999999/1" value="0" leadInLength="0/1"  />
            <Keyframe id="1592"  time="11634348/32039" value="0" leadInLength="3335488/32039"  interpolater="leadin-linr"  />
            </Keyframes>
           </InterpolatingParam>
           <InterpolatingParam id="1593" interp="linr"  >
            <Keyframes>
            <Keyframe id="1594"  time="-9999999/1" value="0" leadInLength="0/1"  />
            <Keyframe id="1595"  time="11634348/32039" value="0" leadInLength="3335488/32039"  interpolater="leadin-linr"  />
            </Keyframes>
           </InterpolatingParam>
           <InterpolatingParam id="1596" interp="linr"  >
            <Keyframes>
            <Keyframe id="1597"  time="-9999999/1" value="0" leadInLength="0/1"  />
            <Keyframe id="1598"  time="11634348/32039" value="0" leadInLength="3335488/32039"  interpolater="leadin-linr"  />
            </Keyframes>
           </InterpolatingParam>
          </VectorParam>
          <VectorParam id="1599"  name="scale">
           <InterpolatingParam id="1600" interp="linr"  >
            <Keyframes>
            <Keyframe id="1601"  time="-9999999/1" value="0.72291666666681864" leadInLength="0/1"  />
            <Keyframe id="1602"  time="11634348/32039" value="0.68773148148143548" leadInLength="3335488/32039"  interpolater="leadin-linr"  />
            </Keyframes>
           </InterpolatingParam>
           <InterpolatingParam id="1603" interp="linr"  >
            <Keyframes>
            <Keyframe id="1604"  time="-9999999/1" value="0.72291666666681864" leadInLength="0/1"  />
            <Keyframe id="1605"  time="11634348/32039" value="0.6877314814814357" leadInLength="3335488/32039"  interpolater="leadin-linr"  />
            </Keyframes>
           </InterpolatingParam>
           <InterpolatingParam id="1606" interp="linr"  >
            <Keyframes>
            <Keyframe id="1607"  time="-9999999/1" value="1" leadInLength="0/1"  />
            <Keyframe id="1608"  time="11634348/32039" value="1" leadInLength="3335488/32039"  interpolater="leadin-linr"  />
            </Keyframes>
           </InterpolatingParam>
          </VectorParam>
          <VectorParam id="1609"  name="anchor">
           <InterpolatingParam id="1610" interp="linr"  time="0/1" value="0" leadInLength="0/1"  />
           <InterpolatingParam id="1611" interp="linr"  time="0/1" value="0" leadInLength="0/1"  />
           <InterpolatingParam id="1612" interp="linr"  time="0/1" value="0" leadInLength="0/1"  />
          </VectorParam>
         </Transformer>
         <Parameters>
          <VectorParam id="1613"  name="sourceCrop">
           <InterpolatingParam id="1614" interp="linr"  time="0/1" value="0" leadInLength="0/1"  />
           <InterpolatingParam id="1615" interp="linr"  time="0/1" value="0" leadInLength="0/1"  />
           <InterpolatingParam id="1616" interp="linr"  time="0/1" value="0" leadInLength="0/1"  />
           <InterpolatingParam id="1617" interp="linr"  time="0/1" value="0" leadInLength="0/1"  />
          </VectorParam>
          <VectorParam id="1618"  name="geometryCrop">
           <InterpolatingParam id="1619" interp="linr"  >
            <Keyframes>
            <Keyframe id="1620"  time="-9999999/1" value="0" leadInLength="0/1"  />
            <Keyframe id="1621"  time="11634348/32039" value="0" leadInLength="3335488/32039"  interpolater="leadin-linr"  />
            </Keyframes>
           </InterpolatingParam>
           <InterpolatingParam id="1622" interp="linr"  >
            <Keyframes>
            <Keyframe id="1623"  time="-9999999/1" value="0" leadInLength="0/1"  />
            <Keyframe id="1624"  time="11634348/32039" value="0" leadInLength="3335488/32039"  interpolater="leadin-linr"  />
            </Keyframes>
           </InterpolatingParam>
           <InterpolatingParam id="1625" interp="linr"  >
            <Keyframes>
            <Keyframe id="1626"  time="-9999999/1" value="0" leadInLength="0/1"  />
            <Keyframe id="1627"  time="11634348/32039" value="0" leadInLength="3335488/32039"  interpolater="leadin-linr"  />
            </Keyframes>
           </InterpolatingParam>
           <InterpolatingParam id="1628" interp="linr"  >
            <Keyframes>
            <Keyframe id="1629"  time="-9999999/1" value="0" leadInLength="0/1"  />
            <Keyframe id="1630"  time="11634348/32039" value="0" leadInLength="3335488/32039"  interpolater="leadin-linr"  />
            </Keyframes>
           </InterpolatingParam>
          </VectorParam>
          <InterpolatingParam id="1631" interp="linr"  name="opacity">
           <Keyframes>
           <Keyframe id="1632"  time="-9999999/1" value="1" leadInLength="0/1"  />
           <Keyframe id="1633"  time="11634348/32039" value="1" leadInLength="3335488/32039"  interpolater="leadin-linr"  />
           </Keyframes>
          </InterpolatingParam>
          <InterpolatingParam id="1634" interp="linr"  time="0/1" value="1" leadInLength="0/1"  name="cursorOpacity"/>
          <InterpolatingParam id="1635" interp="linr"  time="0/1" value="1" leadInLength="0/1"  name="cursorScale"/>
          <InterpolatingParam id="1636" interp="linr"  time="0/1" value="0" leadInLength="0/1"  name="volume"/>
          <Parameter id="1637"  name="captions"/>
         </Parameters>
         <Attributes>
          <Attribute id="1638" value="" name="ident"/>
          <Attribute id="1639" value="0" name="mixToMono"/>
         </Attributes>
         <MetaData>
          <entry key="WinSubProjectDisplayName" val=""/>
         </MetaData>
         <ExtraData>
          <Entry key="ZoomPanBin">
           <ZoomPanBin id="1640"  >
            <ZoomPanKeyframes>
             <ZoomPanKeyframe id="1641" timeRangeEnd="11634348/32039" timeRangeDuration="3335488/32039" interpolaterName="linr"  />
             <ZoomPanKeyframe id="1642" timeRangeEnd="-9999999/1" timeRangeDuration="0/1" interpolaterName="linr"  />
            </ZoomPanKeyframes>
           </ZoomPanBin>
          </Entry>
          <Entry key="CursorEffectBin">
           <CursorEffectBin id="1643"  >
            <CursorEffectKeyframes>
            </CursorEffectKeyframes>
           </CursorEffectBin>
          </Entry>
         </ExtraData>
         <GenericTrack id="1644"  >
          <Attributes>
           <Attribute id="1645" value="" name="ident"/>
           <Attribute id="1646" value="0" name="audioMuted"/>
           <Attribute id="1647" value="0" name="videoHidden"/>
          </Attributes>
          <MetaData>
           <entry key="IsLocked" val="False"/>
           <entry key="WinTrackHeight" val="0"/>
          </MetaData>
          <Medias>
           <UnifiedMedia id="1648"  >
            <AMFile id="1649" start="0" duration="191" scalar="1/1" mediaStart="0/1" mediaDuration="191/1" trackNumber="1" src="18" channelNumber="0" >
             <Parameters>
              <InterpolatingParam id="1650" interp="linr"  time="0/1" value="1" leadInLength="0/1"  name="volume"/>
              <Parameter id="1651"  name="captions"/>
             </Parameters>
             <Attributes>
              <Attribute id="1652" value="" name="ident"/>
              <Attribute id="1653" value="44100" name="sampleRate"/>
              <Attribute id="1654" value="16" name="bitDepth"/>
              <Attribute id="1655" value="1" name="gain"/>
              <Attribute id="1656" value="0" name="mixToMono"/>
             </Attributes>
            </AMFile>
            <VMFile id="1657" start="0" duration="191" scalar="1/1" mediaStart="0/1" mediaDuration="191/1" trackNumber="0" src="18" >
             <Transformer>
              <VectorParam id="1658"  name="translation">
               <InterpolatingParam id="1659" interp="linr"  time="-9999999/1" value="0" leadInLength="0/1"  />
               <InterpolatingParam id="1660" interp="linr"  time="-9999999/1" value="0" leadInLength="0/1"  />
               <InterpolatingParam id="1661" interp="linr"  time="-9999999/1" value="0" leadInLength="0/1"  />
              </VectorParam>
              <VectorParam id="1662"  name="rotation">
               <InterpolatingParam id="1663" interp="linr"  time="-9999999/1" value="0" leadInLength="0/1"  />
               <InterpolatingParam id="1664" interp="linr"  time="-9999999/1" value="0" leadInLength="0/1"  />
               <InterpolatingParam id="1665" interp="linr"  time="-9999999/1" value="0" leadInLength="0/1"  />
              </VectorParam>
              <VectorParam id="1666"  name="shear">
               <InterpolatingParam id="1667" interp="linr"  time="-9999999/1" value="0" leadInLength="0/1"  />
               <InterpolatingParam id="1668" interp="linr"  time="-9999999/1" value="0" leadInLength="0/1"  />
               <InterpolatingParam id="1669" interp="linr"  time="-9999999/1" value="0" leadInLength="0/1"  />
              </VectorParam>
              <VectorParam id="1670"  name="scale">
               <InterpolatingParam id="1671" interp="linr"  time="-9999999/1" value="1" leadInLength="0/1"  />
               <InterpolatingParam id="1672" interp="linr"  time="-9999999/1" value="1" leadInLength="0/1"  />
               <InterpolatingParam id="1673" interp="linr"  time="-9999999/1" value="1" leadInLength="0/1"  />
              </VectorParam>
              <VectorParam id="1674"  name="anchor">
               <InterpolatingParam id="1675" interp="linr"  time="0/1" value="0" leadInLength="0/1"  />
               <InterpolatingParam id="1676" interp="linr"  time="0/1" value="0" leadInLength="0/1"  />
               <InterpolatingParam id="1677" interp="linr"  time="0/1" value="0" leadInLength="0/1"  />
              </VectorParam>
             </Transformer>
             <Parameters>
              <VectorParam id="1678"  name="sourceCrop">
               <InterpolatingParam id="1679" interp="linr"  time="0/1" value="0" leadInLength="0/1"  />
               <InterpolatingParam id="1680" interp="linr"  time="0/1" value="0" leadInLength="0/1"  />
               <InterpolatingParam id="1681" interp="linr"  time="0/1" value="0" leadInLength="0/1"  />
               <InterpolatingParam id="1682" interp="linr"  time="0/1" value="0" leadInLength="0/1"  />
              </VectorParam>
              <VectorParam id="1683"  name="geometryCrop">
               <InterpolatingParam id="1684" interp="linr"  time="-9999999/1" value="0" leadInLength="0/1"  />
               <InterpolatingParam id="1685" interp="linr"  time="-9999999/1" value="0" leadInLength="0/1"  />
               <InterpolatingParam id="1686" interp="linr"  time="-9999999/1" value="0" leadInLength="0/1"  />
               <InterpolatingParam id="1687" interp="linr"  time="-9999999/1" value="0" leadInLength="0/1"  />
              </VectorParam>
              <InterpolatingParam id="1688" interp="linr"  time="-9999999/1" value="1" leadInLength="0/1"  name="opacity"/>
             </Parameters>
             <Attributes>
              <Attribute id="1689" value="" name="ident"/>
             </Attributes>
             <ExtraData>
              <Entry key="ZoomPanBin">
               <ZoomPanBin id="1690"  >
                <ZoomPanKeyframes>
                 <ZoomPanKeyframe id="1691" timeRangeEnd="-9999999/1" timeRangeDuration="0/1" interpolaterName="linr"  />
                </ZoomPanKeyframes>
               </ZoomPanBin>
              </Entry>
             </ExtraData>
            </VMFile>
            <MetaData>
             <entry key="WinSubProjectDisplayName" val=""/>
            </MetaData>
           </UnifiedMedia>
           <UnifiedMedia id="1692"  >
            <AMFile id="1693" start="191" duration="311" scalar="1/1" mediaStart="348/1" mediaDuration="311/1" trackNumber="1" src="18" channelNumber="0" >
             <Parameters>
              <InterpolatingParam id="1694" interp="linr"  time="0/1" value="1" leadInLength="0/1"  name="volume"/>
              <Parameter id="1695"  name="captions"/>
             </Parameters>
             <Attributes>
              <Attribute id="1696" value="" name="ident"/>
              <Attribute id="1697" value="44100" name="sampleRate"/>
              <Attribute id="1698" value="16" name="bitDepth"/>
              <Attribute id="1699" value="1" name="gain"/>
              <Attribute id="1700" value="0" name="mixToMono"/>
             </Attributes>
            </AMFile>
            <VMFile id="1701" start="191" duration="311" scalar="1/1" mediaStart="348/1" mediaDuration="311/1" trackNumber="0" src="18" >
             <Transformer>
              <VectorParam id="1702"  name="translation">
               <InterpolatingParam id="1703" interp="linr"  time="-9999999/1" value="0" leadInLength="0/1"  />
               <InterpolatingParam id="1704" interp="linr"  time="-9999999/1" value="0" leadInLength="0/1"  />
               <InterpolatingParam id="1705" interp="linr"  time="-9999999/1" value="0" leadInLength="0/1"  />
              </VectorParam>
              <VectorParam id="1706"  name="rotation">
               <InterpolatingParam id="1707" interp="linr"  time="-9999999/1" value="0" leadInLength="0/1"  />
               <InterpolatingParam id="1708" interp="linr"  time="-9999999/1" value="0" leadInLength="0/1"  />
               <InterpolatingParam id="1709" interp="linr"  time="-9999999/1" value="0" leadInLength="0/1"  />
              </VectorParam>
              <VectorParam id="1710"  name="shear">
               <InterpolatingParam id="1711" interp="linr"  time="-9999999/1" value="0" leadInLength="0/1"  />
               <InterpolatingParam id="1712" interp="linr"  time="-9999999/1" value="0" leadInLength="0/1"  />
               <InterpolatingParam id="1713" interp="linr"  time="-9999999/1" value="0" leadInLength="0/1"  />
              </VectorParam>
              <VectorParam id="1714"  name="scale">
               <InterpolatingParam id="1715" interp="linr"  time="-9999999/1" value="1" leadInLength="0/1"  />
               <InterpolatingParam id="1716" interp="linr"  time="-9999999/1" value="1" leadInLength="0/1"  />
               <InterpolatingParam id="1717" interp="linr"  time="-9999999/1" value="1" leadInLength="0/1"  />
              </VectorParam>
              <VectorParam id="1718"  name="anchor">
               <InterpolatingParam id="1719" interp="linr"  time="0/1" value="0" leadInLength="0/1"  />
               <InterpolatingParam id="1720" interp="linr"  time="0/1" value="0" leadInLength="0/1"  />
               <InterpolatingParam id="1721" interp="linr"  time="0/1" value="0" leadInLength="0/1"  />
              </VectorParam>
             </Transformer>
             <Parameters>
              <VectorParam id="1722"  name="sourceCrop">
               <InterpolatingParam id="1723" interp="linr"  time="0/1" value="0" leadInLength="0/1"  />
               <InterpolatingParam id="1724" interp="linr"  time="0/1" value="0" leadInLength="0/1"  />
               <InterpolatingParam id="1725" interp="linr"  time="0/1" value="0" leadInLength="0/1"  />
               <InterpolatingParam id="1726" interp="linr"  time="0/1" value="0" leadInLength="0/1"  />
              </VectorParam>
              <VectorParam id="1727"  name="geometryCrop">
               <InterpolatingParam id="1728" interp="linr"  time="-9999999/1" value="0" leadInLength="0/1"  />
               <InterpolatingParam id="1729" interp="linr"  time="-9999999/1" value="0" leadInLength="0/1"  />
               <InterpolatingParam id="1730" interp="linr"  time="-9999999/1" value="0" leadInLength="0/1"  />
               <InterpolatingParam id="1731" interp="linr"  time="-9999999/1" value="0" leadInLength="0/1"  />
              </VectorParam>
              <InterpolatingParam id="1732" interp="linr"  time="-9999999/1" value="1" leadInLength="0/1"  name="opacity"/>
             </Parameters>
             <Attributes>
              <Attribute id="1733" value="" name="ident"/>
             </Attributes>
             <ExtraData>
              <Entry key="ZoomPanBin">
               <ZoomPanBin id="1734"  >
                <ZoomPanKeyframes>
                 <ZoomPanKeyframe id="1735" timeRangeEnd="-9999999/1" timeRangeDuration="0/1" interpolaterName="linr"  />
                </ZoomPanKeyframes>
               </ZoomPanBin>
              </Entry>
             </ExtraData>
            </VMFile>
            <MetaData>
             <entry key="WinSubProjectDisplayName" val=""/>
            </MetaData>
           </UnifiedMedia>
          </Medias>
         </GenericTrack>
        </StitchedMedia>
        <StitchedMedia id="1736" start="3076" duration="93" scalar="32039/16036" mediaStart="11842816/32039" mediaDuration="1491348/32039" minMediaStart="0/1" >
         <Transformer>
          <VectorParam id="1737"  name="translation">
           <InterpolatingParam id="1738" interp="linr"  >
            <Keyframes>
            <Keyframe id="1739"  time="-9999999/1" value="-206.00000000000074" leadInLength="0/1"  />
            <Keyframe id="1740"  time="11634348/32039" value="-341.77777777791005" leadInLength="3335488/32039"  interpolater="leadin-linr"  />
            </Keyframes>
           </InterpolatingParam>
           <InterpolatingParam id="1741" interp="linr"  >
            <Keyframes>
            <Keyframe id="1742"  time="-9999999/1" value="30.375000000134179" leadInLength="0/1"  />
            <Keyframe id="1743"  time="11634348/32039" value="11.37499999984836" leadInLength="3335488/32039"  interpolater="leadin-linr"  />
            </Keyframes>
           </InterpolatingParam>
           <InterpolatingParam id="1744" interp="linr"  >
            <Keyframes>
            <Keyframe id="1745"  time="-9999999/1" value="0" leadInLength="0/1"  />
            <Keyframe id="1746"  time="11634348/32039" value="-3.4106051316482886e-010" leadInLength="3335488/32039"  interpolater="leadin-linr"  />
            </Keyframes>
           </InterpolatingParam>
          </VectorParam>
          <VectorParam id="1747"  name="rotation">
           <InterpolatingParam id="1748" interp="linr"  >
            <Keyframes>
            <Keyframe id="1749"  time="-9999999/1" value="0" leadInLength="0/1"  />
            <Keyframe id="1750"  time="11634348/32039" value="0" leadInLength="3335488/32039"  interpolater="leadin-linr"  />
            </Keyframes>
           </InterpolatingParam>
           <InterpolatingParam id="1751" interp="linr"  >
            <Keyframes>
            <Keyframe id="1752"  time="-9999999/1" value="0" leadInLength="0/1"  />
            <Keyframe id="1753"  time="11634348/32039" value="0" leadInLength="3335488/32039"  interpolater="leadin-linr"  />
            </Keyframes>
           </InterpolatingParam>
           <InterpolatingParam id="1754" interp="linr"  >
            <Keyframes>
            <Keyframe id="1755"  time="-9999999/1" value="0" leadInLength="0/1"  />
            <Keyframe id="1756"  time="11634348/32039" value="0" leadInLength="3335488/32039"  interpolater="leadin-linr"  />
            </Keyframes>
           </InterpolatingParam>
          </VectorParam>
          <VectorParam id="1757"  name="shear">
           <InterpolatingParam id="1758" interp="linr"  >
            <Keyframes>
            <Keyframe id="1759"  time="-9999999/1" value="0" leadInLength="0/1"  />
            <Keyframe id="1760"  time="11634348/32039" value="0" leadInLength="3335488/32039"  interpolater="leadin-linr"  />
            </Keyframes>
           </InterpolatingParam>
           <InterpolatingParam id="1761" interp="linr"  >
            <Keyframes>
            <Keyframe id="1762"  time="-9999999/1" value="0" leadInLength="0/1"  />
            <Keyframe id="1763"  time="11634348/32039" value="0" leadInLength="3335488/32039"  interpolater="leadin-linr"  />
            </Keyframes>
           </InterpolatingParam>
           <InterpolatingParam id="1764" interp="linr"  >
            <Keyframes>
            <Keyframe id="1765"  time="-9999999/1" value="0" leadInLength="0/1"  />
            <Keyframe id="1766"  time="11634348/32039" value="0" leadInLength="3335488/32039"  interpolater="leadin-linr"  />
            </Keyframes>
           </InterpolatingParam>
          </VectorParam>
          <VectorParam id="1767"  name="scale">
           <InterpolatingParam id="1768" interp="linr"  >
            <Keyframes>
            <Keyframe id="1769"  time="-9999999/1" value="0.72291666666681864" leadInLength="0/1"  />
            <Keyframe id="1770"  time="11634348/32039" value="0.68773148148143548" leadInLength="3335488/32039"  interpolater="leadin-linr"  />
            </Keyframes>
           </InterpolatingParam>
           <InterpolatingParam id="1771" interp="linr"  >
            <Keyframes>
            <Keyframe id="1772"  time="-9999999/1" value="0.72291666666681864" leadInLength="0/1"  />
            <Keyframe id="1773"  time="11634348/32039" value="0.6877314814814357" leadInLength="3335488/32039"  interpolater="leadin-linr"  />
            </Keyframes>
           </InterpolatingParam>
           <InterpolatingParam id="1774" interp="linr"  >
            <Keyframes>
            <Keyframe id="1775"  time="-9999999/1" value="1" leadInLength="0/1"  />
            <Keyframe id="1776"  time="11634348/32039" value="1" leadInLength="3335488/32039"  interpolater="leadin-linr"  />
            </Keyframes>
           </InterpolatingParam>
          </VectorParam>
          <VectorParam id="1777"  name="anchor">
           <InterpolatingParam id="1778" interp="linr"  time="0/1" value="0" leadInLength="0/1"  />
           <InterpolatingParam id="1779" interp="linr"  time="0/1" value="0" leadInLength="0/1"  />
           <InterpolatingParam id="1780" interp="linr"  time="0/1" value="0" leadInLength="0/1"  />
          </VectorParam>
         </Transformer>
         <Parameters>
          <VectorParam id="1781"  name="sourceCrop">
           <InterpolatingParam id="1782" interp="linr"  time="0/1" value="0" leadInLength="0/1"  />
           <InterpolatingParam id="1783" interp="linr"  time="0/1" value="0" leadInLength="0/1"  />
           <InterpolatingParam id="1784" interp="linr"  time="0/1" value="0" leadInLength="0/1"  />
           <InterpolatingParam id="1785" interp="linr"  time="0/1" value="0" leadInLength="0/1"  />
          </VectorParam>
          <VectorParam id="1786"  name="geometryCrop">
           <InterpolatingParam id="1787" interp="linr"  >
            <Keyframes>
            <Keyframe id="1788"  time="-9999999/1" value="0" leadInLength="0/1"  />
            <Keyframe id="1789"  time="11634348/32039" value="0" leadInLength="3335488/32039"  interpolater="leadin-linr"  />
            </Keyframes>
           </InterpolatingParam>
           <InterpolatingParam id="1790" interp="linr"  >
            <Keyframes>
            <Keyframe id="1791"  time="-9999999/1" value="0" leadInLength="0/1"  />
            <Keyframe id="1792"  time="11634348/32039" value="0" leadInLength="3335488/32039"  interpolater="leadin-linr"  />
            </Keyframes>
           </InterpolatingParam>
           <InterpolatingParam id="1793" interp="linr"  >
            <Keyframes>
            <Keyframe id="1794"  time="-9999999/1" value="0" leadInLength="0/1"  />
            <Keyframe id="1795"  time="11634348/32039" value="0" leadInLength="3335488/32039"  interpolater="leadin-linr"  />
            </Keyframes>
           </InterpolatingParam>
           <InterpolatingParam id="1796" interp="linr"  >
            <Keyframes>
            <Keyframe id="1797"  time="-9999999/1" value="0" leadInLength="0/1"  />
            <Keyframe id="1798"  time="11634348/32039" value="0" leadInLength="3335488/32039"  interpolater="leadin-linr"  />
            </Keyframes>
           </InterpolatingParam>
          </VectorParam>
          <InterpolatingParam id="1799" interp="linr"  name="opacity">
           <Keyframes>
           <Keyframe id="1800"  time="-9999999/1" value="1" leadInLength="0/1"  />
           <Keyframe id="1801"  time="11634348/32039" value="1" leadInLength="3335488/32039"  interpolater="leadin-linr"  />
           </Keyframes>
          </InterpolatingParam>
          <InterpolatingParam id="1802" interp="linr"  time="0/1" value="1" leadInLength="0/1"  name="cursorOpacity"/>
          <InterpolatingParam id="1803" interp="linr"  time="0/1" value="1" leadInLength="0/1"  name="cursorScale"/>
          <InterpolatingParam id="1804" interp="linr"  time="0/1" value="0" leadInLength="0/1"  name="volume"/>
          <Parameter id="1805"  name="captions"/>
         </Parameters>
         <Attributes>
          <Attribute id="1806" value="" name="ident"/>
          <Attribute id="1807" value="0" name="mixToMono"/>
         </Attributes>
         <MetaData>
          <entry key="WinSubProjectDisplayName" val=""/>
         </MetaData>
         <ExtraData>
          <Entry key="ZoomPanBin">
           <ZoomPanBin id="1808"  >
            <ZoomPanKeyframes>
             <ZoomPanKeyframe id="1809" timeRangeEnd="11634348/32039" timeRangeDuration="3335488/32039" interpolaterName="linr"  />
             <ZoomPanKeyframe id="1810" timeRangeEnd="-9999999/1" timeRangeDuration="0/1" interpolaterName="linr"  />
            </ZoomPanKeyframes>
           </ZoomPanBin>
          </Entry>
          <Entry key="CursorEffectBin">
           <CursorEffectBin id="1811"  >
            <CursorEffectKeyframes>
            </CursorEffectKeyframes>
           </CursorEffectBin>
          </Entry>
         </ExtraData>
         <GenericTrack id="1812"  >
          <Attributes>
           <Attribute id="1813" value="" name="ident"/>
           <Attribute id="1814" value="0" name="audioMuted"/>
           <Attribute id="1815" value="0" name="videoHidden"/>
          </Attributes>
          <MetaData>
           <entry key="IsLocked" val="False"/>
           <entry key="WinTrackHeight" val="0"/>
          </MetaData>
          <Medias>
           <UnifiedMedia id="1816"  >
            <AMFile id="1817" start="0" duration="191" scalar="1/1" mediaStart="0/1" mediaDuration="191/1" trackNumber="1" src="18" channelNumber="0" >
             <Parameters>
              <InterpolatingParam id="1818" interp="linr"  time="0/1" value="1" leadInLength="0/1"  name="volume"/>
              <Parameter id="1819"  name="captions"/>
             </Parameters>
             <Attributes>
              <Attribute id="1820" value="" name="ident"/>
              <Attribute id="1821" value="44100" name="sampleRate"/>
              <Attribute id="1822" value="16" name="bitDepth"/>
              <Attribute id="1823" value="1" name="gain"/>
              <Attribute id="1824" value="0" name="mixToMono"/>
             </Attributes>
            </AMFile>
            <VMFile id="1825" start="0" duration="191" scalar="1/1" mediaStart="0/1" mediaDuration="191/1" trackNumber="0" src="18" >
             <Transformer>
              <VectorParam id="1826"  name="translation">
               <InterpolatingParam id="1827" interp="linr"  time="-9999999/1" value="0" leadInLength="0/1"  />
               <InterpolatingParam id="1828" interp="linr"  time="-9999999/1" value="0" leadInLength="0/1"  />
               <InterpolatingParam id="1829" interp="linr"  time="-9999999/1" value="0" leadInLength="0/1"  />
              </VectorParam>
              <VectorParam id="1830"  name="rotation">
               <InterpolatingParam id="1831" interp="linr"  time="-9999999/1" value="0" leadInLength="0/1"  />
               <InterpolatingParam id="1832" interp="linr"  time="-9999999/1" value="0" leadInLength="0/1"  />
               <InterpolatingParam id="1833" interp="linr"  time="-9999999/1" value="0" leadInLength="0/1"  />
              </VectorParam>
              <VectorParam id="1834"  name="shear">
               <InterpolatingParam id="1835" interp="linr"  time="-9999999/1" value="0" leadInLength="0/1"  />
               <InterpolatingParam id="1836" interp="linr"  time="-9999999/1" value="0" leadInLength="0/1"  />
               <InterpolatingParam id="1837" interp="linr"  time="-9999999/1" value="0" leadInLength="0/1"  />
              </VectorParam>
              <VectorParam id="1838"  name="scale">
               <InterpolatingParam id="1839" interp="linr"  time="-9999999/1" value="1" leadInLength="0/1"  />
               <InterpolatingParam id="1840" interp="linr"  time="-9999999/1" value="1" leadInLength="0/1"  />
               <InterpolatingParam id="1841" interp="linr"  time="-9999999/1" value="1" leadInLength="0/1"  />
              </VectorParam>
              <VectorParam id="1842"  name="anchor">
               <InterpolatingParam id="1843" interp="linr"  time="0/1" value="0" leadInLength="0/1"  />
               <InterpolatingParam id="1844" interp="linr"  time="0/1" value="0" leadInLength="0/1"  />
               <InterpolatingParam id="1845" interp="linr"  time="0/1" value="0" leadInLength="0/1"  />
              </VectorParam>
             </Transformer>
             <Parameters>
              <VectorParam id="1846"  name="sourceCrop">
               <InterpolatingParam id="1847" interp="linr"  time="0/1" value="0" leadInLength="0/1"  />
               <InterpolatingParam id="1848" interp="linr"  time="0/1" value="0" leadInLength="0/1"  />
               <InterpolatingParam id="1849" interp="linr"  time="0/1" value="0" leadInLength="0/1"  />
               <InterpolatingParam id="1850" interp="linr"  time="0/1" value="0" leadInLength="0/1"  />
              </VectorParam>
              <VectorParam id="1851"  name="geometryCrop">
               <InterpolatingParam id="1852" interp="linr"  time="-9999999/1" value="0" leadInLength="0/1"  />
               <InterpolatingParam id="1853" interp="linr"  time="-9999999/1" value="0" leadInLength="0/1"  />
               <InterpolatingParam id="1854" interp="linr"  time="-9999999/1" value="0" leadInLength="0/1"  />
               <InterpolatingParam id="1855" interp="linr"  time="-9999999/1" value="0" leadInLength="0/1"  />
              </VectorParam>
              <InterpolatingParam id="1856" interp="linr"  time="-9999999/1" value="1" leadInLength="0/1"  name="opacity"/>
             </Parameters>
             <Attributes>
              <Attribute id="1857" value="" name="ident"/>
             </Attributes>
             <ExtraData>
              <Entry key="ZoomPanBin">
               <ZoomPanBin id="1858"  >
                <ZoomPanKeyframes>
                 <ZoomPanKeyframe id="1859" timeRangeEnd="-9999999/1" timeRangeDuration="0/1" interpolaterName="linr"  />
                </ZoomPanKeyframes>
               </ZoomPanBin>
              </Entry>
             </ExtraData>
            </VMFile>
            <MetaData>
             <entry key="WinSubProjectDisplayName" val=""/>
            </MetaData>
           </UnifiedMedia>
           <UnifiedMedia id="1860"  >
            <AMFile id="1861" start="191" duration="311" scalar="1/1" mediaStart="348/1" mediaDuration="311/1" trackNumber="1" src="18" channelNumber="0" >
             <Parameters>
              <InterpolatingParam id="1862" interp="linr"  time="0/1" value="1" leadInLength="0/1"  name="volume"/>
              <Parameter id="1863"  name="captions"/>
             </Parameters>
             <Attributes>
              <Attribute id="1864" value="" name="ident"/>
              <Attribute id="1865" value="44100" name="sampleRate"/>
              <Attribute id="1866" value="16" name="bitDepth"/>
              <Attribute id="1867" value="1" name="gain"/>
              <Attribute id="1868" value="0" name="mixToMono"/>
             </Attributes>
            </AMFile>
            <VMFile id="1869" start="191" duration="311" scalar="1/1" mediaStart="348/1" mediaDuration="311/1" trackNumber="0" src="18" >
             <Transformer>
              <VectorParam id="1870"  name="translation">
               <InterpolatingParam id="1871" interp="linr"  time="-9999999/1" value="0" leadInLength="0/1"  />
               <InterpolatingParam id="1872" interp="linr"  time="-9999999/1" value="0" leadInLength="0/1"  />
               <InterpolatingParam id="1873" interp="linr"  time="-9999999/1" value="0" leadInLength="0/1"  />
              </VectorParam>
              <VectorParam id="1874"  name="rotation">
               <InterpolatingParam id="1875" interp="linr"  time="-9999999/1" value="0" leadInLength="0/1"  />
               <InterpolatingParam id="1876" interp="linr"  time="-9999999/1" value="0" leadInLength="0/1"  />
               <InterpolatingParam id="1877" interp="linr"  time="-9999999/1" value="0" leadInLength="0/1"  />
              </VectorParam>
              <VectorParam id="1878"  name="shear">
               <InterpolatingParam id="1879" interp="linr"  time="-9999999/1" value="0" leadInLength="0/1"  />
               <InterpolatingParam id="1880" interp="linr"  time="-9999999/1" value="0" leadInLength="0/1"  />
               <InterpolatingParam id="1881" interp="linr"  time="-9999999/1" value="0" leadInLength="0/1"  />
              </VectorParam>
              <VectorParam id="1882"  name="scale">
               <InterpolatingParam id="1883" interp="linr"  time="-9999999/1" value="1" leadInLength="0/1"  />
               <InterpolatingParam id="1884" interp="linr"  time="-9999999/1" value="1" leadInLength="0/1"  />
               <InterpolatingParam id="1885" interp="linr"  time="-9999999/1" value="1" leadInLength="0/1"  />
              </VectorParam>
              <VectorParam id="1886"  name="anchor">
               <InterpolatingParam id="1887" interp="linr"  time="0/1" value="0" leadInLength="0/1"  />
               <InterpolatingParam id="1888" interp="linr"  time="0/1" value="0" leadInLength="0/1"  />
               <InterpolatingParam id="1889" interp="linr"  time="0/1" value="0" leadInLength="0/1"  />
              </VectorParam>
             </Transformer>
             <Parameters>
              <VectorParam id="1890"  name="sourceCrop">
               <InterpolatingParam id="1891" interp="linr"  time="0/1" value="0" leadInLength="0/1"  />
               <InterpolatingParam id="1892" interp="linr"  time="0/1" value="0" leadInLength="0/1"  />
               <InterpolatingParam id="1893" interp="linr"  time="0/1" value="0" leadInLength="0/1"  />
               <InterpolatingParam id="1894" interp="linr"  time="0/1" value="0" leadInLength="0/1"  />
              </VectorParam>
              <VectorParam id="1895"  name="geometryCrop">
               <InterpolatingParam id="1896" interp="linr"  time="-9999999/1" value="0" leadInLength="0/1"  />
               <InterpolatingParam id="1897" interp="linr"  time="-9999999/1" value="0" leadInLength="0/1"  />
               <InterpolatingParam id="1898" interp="linr"  time="-9999999/1" value="0" leadInLength="0/1"  />
               <InterpolatingParam id="1899" interp="linr"  time="-9999999/1" value="0" leadInLength="0/1"  />
              </VectorParam>
              <InterpolatingParam id="1900" interp="linr"  time="-9999999/1" value="1" leadInLength="0/1"  name="opacity"/>
             </Parameters>
             <Attributes>
              <Attribute id="1901" value="" name="ident"/>
             </Attributes>
             <ExtraData>
              <Entry key="ZoomPanBin">
               <ZoomPanBin id="1902"  >
                <ZoomPanKeyframes>
                 <ZoomPanKeyframe id="1903" timeRangeEnd="-9999999/1" timeRangeDuration="0/1" interpolaterName="linr"  />
                </ZoomPanKeyframes>
               </ZoomPanBin>
              </Entry>
             </ExtraData>
            </VMFile>
            <MetaData>
             <entry key="WinSubProjectDisplayName" val=""/>
            </MetaData>
           </UnifiedMedia>
          </Medias>
         </GenericTrack>
        </StitchedMedia>
        <StitchedMedia id="1904" start="3169" duration="93" scalar="32039/16036" mediaStart="11842816/32039" mediaDuration="1491348/32039" minMediaStart="0/1" >
         <Transformer>
          <VectorParam id="1905"  name="translation">
           <InterpolatingParam id="1906" interp="linr"  >
            <Keyframes>
            <Keyframe id="1907"  time="-9999999/1" value="-206.00000000000074" leadInLength="0/1"  />
            <Keyframe id="1908"  time="11634348/32039" value="-341.77777777791005" leadInLength="3335488/32039"  interpolater="leadin-linr"  />
            </Keyframes>
           </InterpolatingParam>
           <InterpolatingParam id="1909" interp="linr"  >
            <Keyframes>
            <Keyframe id="1910"  time="-9999999/1" value="30.375000000134179" leadInLength="0/1"  />
            <Keyframe id="1911"  time="11634348/32039" value="11.37499999984836" leadInLength="3335488/32039"  interpolater="leadin-linr"  />
            </Keyframes>
           </InterpolatingParam>
           <InterpolatingParam id="1912" interp="linr"  >
            <Keyframes>
            <Keyframe id="1913"  time="-9999999/1" value="0" leadInLength="0/1"  />
            <Keyframe id="1914"  time="11634348/32039" value="-3.4106051316482886e-010" leadInLength="3335488/32039"  interpolater="leadin-linr"  />
            </Keyframes>
           </InterpolatingParam>
          </VectorParam>
          <VectorParam id="1915"  name="rotation">
           <InterpolatingParam id="1916" interp="linr"  >
            <Keyframes>
            <Keyframe id="1917"  time="-9999999/1" value="0" leadInLength="0/1"  />
            <Keyframe id="1918"  time="11634348/32039" value="0" leadInLength="3335488/32039"  interpolater="leadin-linr"  />
            </Keyframes>
           </InterpolatingParam>
           <InterpolatingParam id="1919" interp="linr"  >
            <Keyframes>
            <Keyframe id="1920"  time="-9999999/1" value="0" leadInLength="0/1"  />
            <Keyframe id="1921"  time="11634348/32039" value="0" leadInLength="3335488/32039"  interpolater="leadin-linr"  />
            </Keyframes>
           </InterpolatingParam>
           <InterpolatingParam id="1922" interp="linr"  >
            <Keyframes>
            <Keyframe id="1923"  time="-9999999/1" value="0" leadInLength="0/1"  />
            <Keyframe id="1924"  time="11634348/32039" value="0" leadInLength="3335488/32039"  interpolater="leadin-linr"  />
            </Keyframes>
           </InterpolatingParam>
          </VectorParam>
          <VectorParam id="1925"  name="shear">
           <InterpolatingParam id="1926" interp="linr"  >
            <Keyframes>
            <Keyframe id="1927"  time="-9999999/1" value="0" leadInLength="0/1"  />
            <Keyframe id="1928"  time="11634348/32039" value="0" leadInLength="3335488/32039"  interpolater="leadin-linr"  />
            </Keyframes>
           </InterpolatingParam>
           <InterpolatingParam id="1929" interp="linr"  >
            <Keyframes>
            <Keyframe id="1930"  time="-9999999/1" value="0" leadInLength="0/1"  />
            <Keyframe id="1931"  time="11634348/32039" value="0" leadInLength="3335488/32039"  interpolater="leadin-linr"  />
            </Keyframes>
           </InterpolatingParam>
           <InterpolatingParam id="1932" interp="linr"  >
            <Keyframes>
            <Keyframe id="1933"  time="-9999999/1" value="0" leadInLength="0/1"  />
            <Keyframe id="1934"  time="11634348/32039" value="0" leadInLength="3335488/32039"  interpolater="leadin-linr"  />
            </Keyframes>
           </InterpolatingParam>
          </VectorParam>
          <VectorParam id="1935"  name="scale">
           <InterpolatingParam id="1936" interp="linr"  >
            <Keyframes>
            <Keyframe id="1937"  time="-9999999/1" value="0.72291666666681864" leadInLength="0/1"  />
            <Keyframe id="1938"  time="11634348/32039" value="0.68773148148143548" leadInLength="3335488/32039"  interpolater="leadin-linr"  />
            </Keyframes>
           </InterpolatingParam>
           <InterpolatingParam id="1939" interp="linr"  >
            <Keyframes>
            <Keyframe id="1940"  time="-9999999/1" value="0.72291666666681864" leadInLength="0/1"  />
            <Keyframe id="1941"  time="11634348/32039" value="0.6877314814814357" leadInLength="3335488/32039"  interpolater="leadin-linr"  />
            </Keyframes>
           </InterpolatingParam>
           <InterpolatingParam id="1942" interp="linr"  >
            <Keyframes>
            <Keyframe id="1943"  time="-9999999/1" value="1" leadInLength="0/1"  />
            <Keyframe id="1944"  time="11634348/32039" value="1" leadInLength="3335488/32039"  interpolater="leadin-linr"  />
            </Keyframes>
           </InterpolatingParam>
          </VectorParam>
          <VectorParam id="1945"  name="anchor">
           <InterpolatingParam id="1946" interp="linr"  time="0/1" value="0" leadInLength="0/1"  />
           <InterpolatingParam id="1947" interp="linr"  time="0/1" value="0" leadInLength="0/1"  />
           <InterpolatingParam id="1948" interp="linr"  time="0/1" value="0" leadInLength="0/1"  />
          </VectorParam>
         </Transformer>
         <Parameters>
          <VectorParam id="1949"  name="sourceCrop">
           <InterpolatingParam id="1950" interp="linr"  time="0/1" value="0" leadInLength="0/1"  />
           <InterpolatingParam id="1951" interp="linr"  time="0/1" value="0" leadInLength="0/1"  />
           <InterpolatingParam id="1952" interp="linr"  time="0/1" value="0" leadInLength="0/1"  />
           <InterpolatingParam id="1953" interp="linr"  time="0/1" value="0" leadInLength="0/1"  />
          </VectorParam>
          <VectorParam id="1954"  name="geometryCrop">
           <InterpolatingParam id="1955" interp="linr"  >
            <Keyframes>
            <Keyframe id="1956"  time="-9999999/1" value="0" leadInLength="0/1"  />
            <Keyframe id="1957"  time="11634348/32039" value="0" leadInLength="3335488/32039"  interpolater="leadin-linr"  />
            </Keyframes>
           </InterpolatingParam>
           <InterpolatingParam id="1958" interp="linr"  >
            <Keyframes>
            <Keyframe id="1959"  time="-9999999/1" value="0" leadInLength="0/1"  />
            <Keyframe id="1960"  time="11634348/32039" value="0" leadInLength="3335488/32039"  interpolater="leadin-linr"  />
            </Keyframes>
           </InterpolatingParam>
           <InterpolatingParam id="1961" interp="linr"  >
            <Keyframes>
            <Keyframe id="1962"  time="-9999999/1" value="0" leadInLength="0/1"  />
            <Keyframe id="1963"  time="11634348/32039" value="0" leadInLength="3335488/32039"  interpolater="leadin-linr"  />
            </Keyframes>
           </InterpolatingParam>
           <InterpolatingParam id="1964" interp="linr"  >
            <Keyframes>
            <Keyframe id="1965"  time="-9999999/1" value="0" leadInLength="0/1"  />
            <Keyframe id="1966"  time="11634348/32039" value="0" leadInLength="3335488/32039"  interpolater="leadin-linr"  />
            </Keyframes>
           </InterpolatingParam>
          </VectorParam>
          <InterpolatingParam id="1967" interp="linr"  name="opacity">
           <Keyframes>
           <Keyframe id="1968"  time="-9999999/1" value="1" leadInLength="0/1"  />
           <Keyframe id="1969"  time="11634348/32039" value="1" leadInLength="3335488/32039"  interpolater="leadin-linr"  />
           </Keyframes>
          </InterpolatingParam>
          <InterpolatingParam id="1970" interp="linr"  time="0/1" value="1" leadInLength="0/1"  name="cursorOpacity"/>
          <InterpolatingParam id="1971" interp="linr"  time="0/1" value="1" leadInLength="0/1"  name="cursorScale"/>
          <InterpolatingParam id="1972" interp="linr"  time="0/1" value="0" leadInLength="0/1"  name="volume"/>
          <Parameter id="1973"  name="captions"/>
         </Parameters>
         <Attributes>
          <Attribute id="1974" value="" name="ident"/>
          <Attribute id="1975" value="0" name="mixToMono"/>
         </Attributes>
         <MetaData>
          <entry key="WinSubProjectDisplayName" val=""/>
         </MetaData>
         <ExtraData>
          <Entry key="ZoomPanBin">
           <ZoomPanBin id="1976"  >
            <ZoomPanKeyframes>
             <ZoomPanKeyframe id="1977" timeRangeEnd="11634348/32039" timeRangeDuration="3335488/32039" interpolaterName="linr"  />
             <ZoomPanKeyframe id="1978" timeRangeEnd="-9999999/1" timeRangeDuration="0/1" interpolaterName="linr"  />
            </ZoomPanKeyframes>
           </ZoomPanBin>
          </Entry>
          <Entry key="CursorEffectBin">
           <CursorEffectBin id="1979"  >
            <CursorEffectKeyframes>
            </CursorEffectKeyframes>
           </CursorEffectBin>
          </Entry>
         </ExtraData>
         <GenericTrack id="1980"  >
          <Attributes>
           <Attribute id="1981" value="" name="ident"/>
           <Attribute id="1982" value="0" name="audioMuted"/>
           <Attribute id="1983" value="0" name="videoHidden"/>
          </Attributes>
          <MetaData>
           <entry key="IsLocked" val="False"/>
           <entry key="WinTrackHeight" val="0"/>
          </MetaData>
          <Medias>
           <UnifiedMedia id="1984"  >
            <AMFile id="1985" start="0" duration="191" scalar="1/1" mediaStart="0/1" mediaDuration="191/1" trackNumber="1" src="18" channelNumber="0" >
             <Parameters>
              <InterpolatingParam id="1986" interp="linr"  time="0/1" value="1" leadInLength="0/1"  name="volume"/>
              <Parameter id="1987"  name="captions"/>
             </Parameters>
             <Attributes>
              <Attribute id="1988" value="" name="ident"/>
              <Attribute id="1989" value="44100" name="sampleRate"/>
              <Attribute id="1990" value="16" name="bitDepth"/>
              <Attribute id="1991" value="1" name="gain"/>
              <Attribute id="1992" value="0" name="mixToMono"/>
             </Attributes>
            </AMFile>
            <VMFile id="1993" start="0" duration="191" scalar="1/1" mediaStart="0/1" mediaDuration="191/1" trackNumber="0" src="18" >
             <Transformer>
              <VectorParam id="1994"  name="translation">
               <InterpolatingParam id="1995" interp="linr"  time="-9999999/1" value="0" leadInLength="0/1"  />
               <InterpolatingParam id="1996" interp="linr"  time="-9999999/1" value="0" leadInLength="0/1"  />
               <InterpolatingParam id="1997" interp="linr"  time="-9999999/1" value="0" leadInLength="0/1"  />
              </VectorParam>
              <VectorParam id="1998"  name="rotation">
               <InterpolatingParam id="1999" interp="linr"  time="-9999999/1" value="0" leadInLength="0/1"  />
               <InterpolatingParam id="2000" interp="linr"  time="-9999999/1" value="0" leadInLength="0/1"  />
               <InterpolatingParam id="2001" interp="linr"  time="-9999999/1" value="0" leadInLength="0/1"  />
              </VectorParam>
              <VectorParam id="2002"  name="shear">
               <InterpolatingParam id="2003" interp="linr"  time="-9999999/1" value="0" leadInLength="0/1"  />
               <InterpolatingParam id="2004" interp="linr"  time="-9999999/1" value="0" leadInLength="0/1"  />
               <InterpolatingParam id="2005" interp="linr"  time="-9999999/1" value="0" leadInLength="0/1"  />
              </VectorParam>
              <VectorParam id="2006"  name="scale">
               <InterpolatingParam id="2007" interp="linr"  time="-9999999/1" value="1" leadInLength="0/1"  />
               <InterpolatingParam id="2008" interp="linr"  time="-9999999/1" value="1" leadInLength="0/1"  />
               <InterpolatingParam id="2009" interp="linr"  time="-9999999/1" value="1" leadInLength="0/1"  />
              </VectorParam>
              <VectorParam id="2010"  name="anchor">
               <InterpolatingParam id="2011" interp="linr"  time="0/1" value="0" leadInLength="0/1"  />
               <InterpolatingParam id="2012" interp="linr"  time="0/1" value="0" leadInLength="0/1"  />
               <InterpolatingParam id="2013" interp="linr"  time="0/1" value="0" leadInLength="0/1"  />
              </VectorParam>
             </Transformer>
             <Parameters>
              <VectorParam id="2014"  name="sourceCrop">
               <InterpolatingParam id="2015" interp="linr"  time="0/1" value="0" leadInLength="0/1"  />
               <InterpolatingParam id="2016" interp="linr"  time="0/1" value="0" leadInLength="0/1"  />
               <InterpolatingParam id="2017" interp="linr"  time="0/1" value="0" leadInLength="0/1"  />
               <InterpolatingParam id="2018" interp="linr"  time="0/1" value="0" leadInLength="0/1"  />
              </VectorParam>
              <VectorParam id="2019"  name="geometryCrop">
               <InterpolatingParam id="2020" interp="linr"  time="-9999999/1" value="0" leadInLength="0/1"  />
               <InterpolatingParam id="2021" interp="linr"  time="-9999999/1" value="0" leadInLength="0/1"  />
               <InterpolatingParam id="2022" interp="linr"  time="-9999999/1" value="0" leadInLength="0/1"  />
               <InterpolatingParam id="2023" interp="linr"  time="-9999999/1" value="0" leadInLength="0/1"  />
              </VectorParam>
              <InterpolatingParam id="2024" interp="linr"  time="-9999999/1" value="1" leadInLength="0/1"  name="opacity"/>
             </Parameters>
             <Attributes>
              <Attribute id="2025" value="" name="ident"/>
             </Attributes>
             <ExtraData>
              <Entry key="ZoomPanBin">
               <ZoomPanBin id="2026"  >
                <ZoomPanKeyframes>
                 <ZoomPanKeyframe id="2027" timeRangeEnd="-9999999/1" timeRangeDuration="0/1" interpolaterName="linr"  />
                </ZoomPanKeyframes>
               </ZoomPanBin>
              </Entry>
             </ExtraData>
            </VMFile>
            <MetaData>
             <entry key="WinSubProjectDisplayName" val=""/>
            </MetaData>
           </UnifiedMedia>
           <UnifiedMedia id="2028"  >
            <AMFile id="2029" start="191" duration="311" scalar="1/1" mediaStart="348/1" mediaDuration="311/1" trackNumber="1" src="18" channelNumber="0" >
             <Parameters>
              <InterpolatingParam id="2030" interp="linr"  time="0/1" value="1" leadInLength="0/1"  name="volume"/>
              <Parameter id="2031"  name="captions"/>
             </Parameters>
             <Attributes>
              <Attribute id="2032" value="" name="ident"/>
              <Attribute id="2033" value="44100" name="sampleRate"/>
              <Attribute id="2034" value="16" name="bitDepth"/>
              <Attribute id="2035" value="1" name="gain"/>
              <Attribute id="2036" value="0" name="mixToMono"/>
             </Attributes>
            </AMFile>
            <VMFile id="2037" start="191" duration="311" scalar="1/1" mediaStart="348/1" mediaDuration="311/1" trackNumber="0" src="18" >
             <Transformer>
              <VectorParam id="2038"  name="translation">
               <InterpolatingParam id="2039" interp="linr"  time="-9999999/1" value="0" leadInLength="0/1"  />
               <InterpolatingParam id="2040" interp="linr"  time="-9999999/1" value="0" leadInLength="0/1"  />
               <InterpolatingParam id="2041" interp="linr"  time="-9999999/1" value="0" leadInLength="0/1"  />
              </VectorParam>
              <VectorParam id="2042"  name="rotation">
               <InterpolatingParam id="2043" interp="linr"  time="-9999999/1" value="0" leadInLength="0/1"  />
               <InterpolatingParam id="2044" interp="linr"  time="-9999999/1" value="0" leadInLength="0/1"  />
               <InterpolatingParam id="2045" interp="linr"  time="-9999999/1" value="0" leadInLength="0/1"  />
              </VectorParam>
              <VectorParam id="2046"  name="shear">
               <InterpolatingParam id="2047" interp="linr"  time="-9999999/1" value="0" leadInLength="0/1"  />
               <InterpolatingParam id="2048" interp="linr"  time="-9999999/1" value="0" leadInLength="0/1"  />
               <InterpolatingParam id="2049" interp="linr"  time="-9999999/1" value="0" leadInLength="0/1"  />
              </VectorParam>
              <VectorParam id="2050"  name="scale">
               <InterpolatingParam id="2051" interp="linr"  time="-9999999/1" value="1" leadInLength="0/1"  />
               <InterpolatingParam id="2052" interp="linr"  time="-9999999/1" value="1" leadInLength="0/1"  />
               <InterpolatingParam id="2053" interp="linr"  time="-9999999/1" value="1" leadInLength="0/1"  />
              </VectorParam>
              <VectorParam id="2054"  name="anchor">
               <InterpolatingParam id="2055" interp="linr"  time="0/1" value="0" leadInLength="0/1"  />
               <InterpolatingParam id="2056" interp="linr"  time="0/1" value="0" leadInLength="0/1"  />
               <InterpolatingParam id="2057" interp="linr"  time="0/1" value="0" leadInLength="0/1"  />
              </VectorParam>
             </Transformer>
             <Parameters>
              <VectorParam id="2058"  name="sourceCrop">
               <InterpolatingParam id="2059" interp="linr"  time="0/1" value="0" leadInLength="0/1"  />
               <InterpolatingParam id="2060" interp="linr"  time="0/1" value="0" leadInLength="0/1"  />
               <InterpolatingParam id="2061" interp="linr"  time="0/1" value="0" leadInLength="0/1"  />
               <InterpolatingParam id="2062" interp="linr"  time="0/1" value="0" leadInLength="0/1"  />
              </VectorParam>
              <VectorParam id="2063"  name="geometryCrop">
               <InterpolatingParam id="2064" interp="linr"  time="-9999999/1" value="0" leadInLength="0/1"  />
               <InterpolatingParam id="2065" interp="linr"  time="-9999999/1" value="0" leadInLength="0/1"  />
               <InterpolatingParam id="2066" interp="linr"  time="-9999999/1" value="0" leadInLength="0/1"  />
               <InterpolatingParam id="2067" interp="linr"  time="-9999999/1" value="0" leadInLength="0/1"  />
              </VectorParam>
              <InterpolatingParam id="2068" interp="linr"  time="-9999999/1" value="1" leadInLength="0/1"  name="opacity"/>
             </Parameters>
             <Attributes>
              <Attribute id="2069" value="" name="ident"/>
             </Attributes>
             <ExtraData>
              <Entry key="ZoomPanBin">
               <ZoomPanBin id="2070"  >
                <ZoomPanKeyframes>
                 <ZoomPanKeyframe id="2071" timeRangeEnd="-9999999/1" timeRangeDuration="0/1" interpolaterName="linr"  />
                </ZoomPanKeyframes>
               </ZoomPanBin>
              </Entry>
             </ExtraData>
            </VMFile>
            <MetaData>
             <entry key="WinSubProjectDisplayName" val=""/>
            </MetaData>
           </UnifiedMedia>
          </Medias>
         </GenericTrack>
        </StitchedMedia>
        <StitchedMedia id="2072" start="3262" duration="93" scalar="32039/16036" mediaStart="11842816/32039" mediaDuration="1491348/32039" minMediaStart="0/1" >
         <Transformer>
          <VectorParam id="2073"  name="translation">
           <InterpolatingParam id="2074" interp="linr"  >
            <Keyframes>
            <Keyframe id="2075"  time="-9999999/1" value="-206.00000000000074" leadInLength="0/1"  />
            <Keyframe id="2076"  time="11634348/32039" value="-343.44444444449442" leadInLength="3335488/32039"  interpolater="leadin-linr"  />
            </Keyframes>
           </InterpolatingParam>
           <InterpolatingParam id="2077" interp="linr"  >
            <Keyframes>
            <Keyframe id="2078"  time="-9999999/1" value="30.375000000134179" leadInLength="0/1"  />
            <Keyframe id="2079"  time="11634348/32039" value="7.6249999999647606" leadInLength="3335488/32039"  interpolater="leadin-linr"  />
            </Keyframes>
           </InterpolatingParam>
           <InterpolatingParam id="2080" interp="linr"  >
            <Keyframes>
            <Keyframe id="2081"  time="-9999999/1" value="0" leadInLength="0/1"  />
            <Keyframe id="2082"  time="11634348/32039" value="-3.4106051316482886e-010" leadInLength="3335488/32039"  interpolater="leadin-linr"  />
            </Keyframes>
           </InterpolatingParam>
          </VectorParam>
          <VectorParam id="2083"  name="rotation">
           <InterpolatingParam id="2084" interp="linr"  >
            <Keyframes>
            <Keyframe id="2085"  time="-9999999/1" value="0" leadInLength="0/1"  />
            <Keyframe id="2086"  time="11634348/32039" value="0" leadInLength="3335488/32039"  interpolater="leadin-linr"  />
            </Keyframes>
           </InterpolatingParam>
           <InterpolatingParam id="2087" interp="linr"  >
            <Keyframes>
            <Keyframe id="2088"  time="-9999999/1" value="0" leadInLength="0/1"  />
            <Keyframe id="2089"  time="11634348/32039" value="0" leadInLength="3335488/32039"  interpolater="leadin-linr"  />
            </Keyframes>
           </InterpolatingParam>
           <InterpolatingParam id="2090" interp="linr"  >
            <Keyframes>
            <Keyframe id="2091"  time="-9999999/1" value="0" leadInLength="0/1"  />
            <Keyframe id="2092"  time="11634348/32039" value="0" leadInLength="3335488/32039"  interpolater="leadin-linr"  />
            </Keyframes>
           </InterpolatingParam>
          </VectorParam>
          <VectorParam id="2093"  name="shear">
           <InterpolatingParam id="2094" interp="linr"  >
            <Keyframes>
            <Keyframe id="2095"  time="-9999999/1" value="0" leadInLength="0/1"  />
            <Keyframe id="2096"  time="11634348/32039" value="0" leadInLength="3335488/32039"  interpolater="leadin-linr"  />
            </Keyframes>
           </InterpolatingParam>
           <InterpolatingParam id="2097" interp="linr"  >
            <Keyframes>
            <Keyframe id="2098"  time="-9999999/1" value="0" leadInLength="0/1"  />
            <Keyframe id="2099"  time="11634348/32039" value="0" leadInLength="3335488/32039"  interpolater="leadin-linr"  />
            </Keyframes>
           </InterpolatingParam>
           <InterpolatingParam id="2100" interp="linr"  >
            <Keyframes>
            <Keyframe id="2101"  time="-9999999/1" value="0" leadInLength="0/1"  />
            <Keyframe id="2102"  time="11634348/32039" value="0" leadInLength="3335488/32039"  interpolater="leadin-linr"  />
            </Keyframes>
           </InterpolatingParam>
          </VectorParam>
          <VectorParam id="2103"  name="scale">
           <InterpolatingParam id="2104" interp="linr"  >
            <Keyframes>
            <Keyframe id="2105"  time="-9999999/1" value="0.72291666666681864" leadInLength="0/1"  />
            <Keyframe id="2106"  time="11634348/32039" value="0.68078703703705368" leadInLength="3335488/32039"  interpolater="leadin-linr"  />
            </Keyframes>
           </InterpolatingParam>
           <InterpolatingParam id="2107" interp="linr"  >
            <Keyframes>
            <Keyframe id="2108"  time="-9999999/1" value="0.72291666666681864" leadInLength="0/1"  />
            <Keyframe id="2109"  time="11634348/32039" value="0.68078703703705412" leadInLength="3335488/32039"  interpolater="leadin-linr"  />
            </Keyframes>
           </InterpolatingParam>
           <InterpolatingParam id="2110" interp="linr"  >
            <Keyframes>
            <Keyframe id="2111"  time="-9999999/1" value="1" leadInLength="0/1"  />
            <Keyframe id="2112"  time="11634348/32039" value="1" leadInLength="3335488/32039"  interpolater="leadin-linr"  />
            </Keyframes>
           </InterpolatingParam>
          </VectorParam>
          <VectorParam id="2113"  name="anchor">
           <InterpolatingParam id="2114" interp="linr"  time="0/1" value="0" leadInLength="0/1"  />
           <InterpolatingParam id="2115" interp="linr"  time="0/1" value="0" leadInLength="0/1"  />
           <InterpolatingParam id="2116" interp="linr"  time="0/1" value="0" leadInLength="0/1"  />
          </VectorParam>
         </Transformer>
         <Parameters>
          <VectorParam id="2117"  name="sourceCrop">
           <InterpolatingParam id="2118" interp="linr"  time="0/1" value="0" leadInLength="0/1"  />
           <InterpolatingParam id="2119" interp="linr"  time="0/1" value="0" leadInLength="0/1"  />
           <InterpolatingParam id="2120" interp="linr"  time="0/1" value="0" leadInLength="0/1"  />
           <InterpolatingParam id="2121" interp="linr"  time="0/1" value="0" leadInLength="0/1"  />
          </VectorParam>
          <VectorParam id="2122"  name="geometryCrop">
           <InterpolatingParam id="2123" interp="linr"  >
            <Keyframes>
            <Keyframe id="2124"  time="-9999999/1" value="0" leadInLength="0/1"  />
            <Keyframe id="2125"  time="11634348/32039" value="0" leadInLength="3335488/32039"  interpolater="leadin-linr"  />
            </Keyframes>
           </InterpolatingParam>
           <InterpolatingParam id="2126" interp="linr"  >
            <Keyframes>
            <Keyframe id="2127"  time="-9999999/1" value="0" leadInLength="0/1"  />
            <Keyframe id="2128"  time="11634348/32039" value="0" leadInLength="3335488/32039"  interpolater="leadin-linr"  />
            </Keyframes>
           </InterpolatingParam>
           <InterpolatingParam id="2129" interp="linr"  >
            <Keyframes>
            <Keyframe id="2130"  time="-9999999/1" value="0" leadInLength="0/1"  />
            <Keyframe id="2131"  time="11634348/32039" value="0" leadInLength="3335488/32039"  interpolater="leadin-linr"  />
            </Keyframes>
           </InterpolatingParam>
           <InterpolatingParam id="2132" interp="linr"  >
            <Keyframes>
            <Keyframe id="2133"  time="-9999999/1" value="0" leadInLength="0/1"  />
            <Keyframe id="2134"  time="11634348/32039" value="0" leadInLength="3335488/32039"  interpolater="leadin-linr"  />
            </Keyframes>
           </InterpolatingParam>
          </VectorParam>
          <InterpolatingParam id="2135" interp="linr"  name="opacity">
           <Keyframes>
           <Keyframe id="2136"  time="-9999999/1" value="1" leadInLength="0/1"  />
           <Keyframe id="2137"  time="11634348/32039" value="1" leadInLength="3335488/32039"  interpolater="leadin-linr"  />
           </Keyframes>
          </InterpolatingParam>
          <InterpolatingParam id="2138" interp="linr"  time="0/1" value="1" leadInLength="0/1"  name="cursorOpacity"/>
          <InterpolatingParam id="2139" interp="linr"  time="0/1" value="1" leadInLength="0/1"  name="cursorScale"/>
          <InterpolatingParam id="2140" interp="linr"  time="0/1" value="0" leadInLength="0/1"  name="volume"/>
          <Parameter id="2141"  name="captions"/>
         </Parameters>
         <Attributes>
          <Attribute id="2142" value="" name="ident"/>
          <Attribute id="2143" value="0" name="mixToMono"/>
         </Attributes>
         <MetaData>
          <entry key="WinSubProjectDisplayName" val=""/>
         </MetaData>
         <ExtraData>
          <Entry key="ZoomPanBin">
           <ZoomPanBin id="2144"  >
            <ZoomPanKeyframes>
             <ZoomPanKeyframe id="2145" timeRangeEnd="11634348/32039" timeRangeDuration="3335488/32039" interpolaterName="linr"  />
             <ZoomPanKeyframe id="2146" timeRangeEnd="-9999999/1" timeRangeDuration="0/1" interpolaterName="linr"  />
            </ZoomPanKeyframes>
           </ZoomPanBin>
          </Entry>
          <Entry key="CursorEffectBin">
           <CursorEffectBin id="2147"  >
            <CursorEffectKeyframes>
            </CursorEffectKeyframes>
           </CursorEffectBin>
          </Entry>
         </ExtraData>
         <GenericTrack id="2148"  >
          <Attributes>
           <Attribute id="2149" value="" name="ident"/>
           <Attribute id="2150" value="0" name="audioMuted"/>
           <Attribute id="2151" value="0" name="videoHidden"/>
          </Attributes>
          <MetaData>
           <entry key="IsLocked" val="False"/>
           <entry key="WinTrackHeight" val="0"/>
          </MetaData>
          <Medias>
           <UnifiedMedia id="2152"  >
            <AMFile id="2153" start="0" duration="191" scalar="1/1" mediaStart="0/1" mediaDuration="191/1" trackNumber="1" src="18" channelNumber="0" >
             <Parameters>
              <InterpolatingParam id="2154" interp="linr"  time="0/1" value="1" leadInLength="0/1"  name="volume"/>
              <Parameter id="2155"  name="captions"/>
             </Parameters>
             <Attributes>
              <Attribute id="2156" value="" name="ident"/>
              <Attribute id="2157" value="44100" name="sampleRate"/>
              <Attribute id="2158" value="16" name="bitDepth"/>
              <Attribute id="2159" value="1" name="gain"/>
              <Attribute id="2160" value="0" name="mixToMono"/>
             </Attributes>
            </AMFile>
            <VMFile id="2161" start="0" duration="191" scalar="1/1" mediaStart="0/1" mediaDuration="191/1" trackNumber="0" src="18" >
             <Transformer>
              <VectorParam id="2162"  name="translation">
               <InterpolatingParam id="2163" interp="linr"  time="-9999999/1" value="0" leadInLength="0/1"  />
               <InterpolatingParam id="2164" interp="linr"  time="-9999999/1" value="0" leadInLength="0/1"  />
               <InterpolatingParam id="2165" interp="linr"  time="-9999999/1" value="0" leadInLength="0/1"  />
              </VectorParam>
              <VectorParam id="2166"  name="rotation">
               <InterpolatingParam id="2167" interp="linr"  time="-9999999/1" value="0" leadInLength="0/1"  />
               <InterpolatingParam id="2168" interp="linr"  time="-9999999/1" value="0" leadInLength="0/1"  />
               <InterpolatingParam id="2169" interp="linr"  time="-9999999/1" value="0" leadInLength="0/1"  />
              </VectorParam>
              <VectorParam id="2170"  name="shear">
               <InterpolatingParam id="2171" interp="linr"  time="-9999999/1" value="0" leadInLength="0/1"  />
               <InterpolatingParam id="2172" interp="linr"  time="-9999999/1" value="0" leadInLength="0/1"  />
               <InterpolatingParam id="2173" interp="linr"  time="-9999999/1" value="0" leadInLength="0/1"  />
              </VectorParam>
              <VectorParam id="2174"  name="scale">
               <InterpolatingParam id="2175" interp="linr"  time="-9999999/1" value="1" leadInLength="0/1"  />
               <InterpolatingParam id="2176" interp="linr"  time="-9999999/1" value="1" leadInLength="0/1"  />
               <InterpolatingParam id="2177" interp="linr"  time="-9999999/1" value="1" leadInLength="0/1"  />
              </VectorParam>
              <VectorParam id="2178"  name="anchor">
               <InterpolatingParam id="2179" interp="linr"  time="0/1" value="0" leadInLength="0/1"  />
               <InterpolatingParam id="2180" interp="linr"  time="0/1" value="0" leadInLength="0/1"  />
               <InterpolatingParam id="2181" interp="linr"  time="0/1" value="0" leadInLength="0/1"  />
              </VectorParam>
             </Transformer>
             <Parameters>
              <VectorParam id="2182"  name="sourceCrop">
               <InterpolatingParam id="2183" interp="linr"  time="0/1" value="0" leadInLength="0/1"  />
               <InterpolatingParam id="2184" interp="linr"  time="0/1" value="0" leadInLength="0/1"  />
               <InterpolatingParam id="2185" interp="linr"  time="0/1" value="0" leadInLength="0/1"  />
               <InterpolatingParam id="2186" interp="linr"  time="0/1" value="0" leadInLength="0/1"  />
              </VectorParam>
              <VectorParam id="2187"  name="geometryCrop">
               <InterpolatingParam id="2188" interp="linr"  time="-9999999/1" value="0" leadInLength="0/1"  />
               <InterpolatingParam id="2189" interp="linr"  time="-9999999/1" value="0" leadInLength="0/1"  />
               <InterpolatingParam id="2190" interp="linr"  time="-9999999/1" value="0" leadInLength="0/1"  />
               <InterpolatingParam id="2191" interp="linr"  time="-9999999/1" value="0" leadInLength="0/1"  />
              </VectorParam>
              <InterpolatingParam id="2192" interp="linr"  time="-9999999/1" value="1" leadInLength="0/1"  name="opacity"/>
             </Parameters>
             <Attributes>
              <Attribute id="2193" value="" name="ident"/>
             </Attributes>
             <ExtraData>
              <Entry key="ZoomPanBin">
               <ZoomPanBin id="2194"  >
                <ZoomPanKeyframes>
                 <ZoomPanKeyframe id="2195" timeRangeEnd="-9999999/1" timeRangeDuration="0/1" interpolaterName="linr"  />
                </ZoomPanKeyframes>
               </ZoomPanBin>
              </Entry>
             </ExtraData>
            </VMFile>
            <MetaData>
             <entry key="WinSubProjectDisplayName" val=""/>
            </MetaData>
           </UnifiedMedia>
           <UnifiedMedia id="2196"  >
            <AMFile id="2197" start="191" duration="311" scalar="1/1" mediaStart="348/1" mediaDuration="311/1" trackNumber="1" src="18" channelNumber="0" >
             <Parameters>
              <InterpolatingParam id="2198" interp="linr"  time="0/1" value="1" leadInLength="0/1"  name="volume"/>
              <Parameter id="2199"  name="captions"/>
             </Parameters>
             <Attributes>
              <Attribute id="2200" value="" name="ident"/>
              <Attribute id="2201" value="44100" name="sampleRate"/>
              <Attribute id="2202" value="16" name="bitDepth"/>
              <Attribute id="2203" value="1" name="gain"/>
              <Attribute id="2204" value="0" name="mixToMono"/>
             </Attributes>
            </AMFile>
            <VMFile id="2205" start="191" duration="311" scalar="1/1" mediaStart="348/1" mediaDuration="311/1" trackNumber="0" src="18" >
             <Transformer>
              <VectorParam id="2206"  name="translation">
               <InterpolatingParam id="2207" interp="linr"  time="-9999999/1" value="0" leadInLength="0/1"  />
               <InterpolatingParam id="2208" interp="linr"  time="-9999999/1" value="0" leadInLength="0/1"  />
               <InterpolatingParam id="2209" interp="linr"  time="-9999999/1" value="0" leadInLength="0/1"  />
              </VectorParam>
              <VectorParam id="2210"  name="rotation">
               <InterpolatingParam id="2211" interp="linr"  time="-9999999/1" value="0" leadInLength="0/1"  />
               <InterpolatingParam id="2212" interp="linr"  time="-9999999/1" value="0" leadInLength="0/1"  />
               <InterpolatingParam id="2213" interp="linr"  time="-9999999/1" value="0" leadInLength="0/1"  />
              </VectorParam>
              <VectorParam id="2214"  name="shear">
               <InterpolatingParam id="2215" interp="linr"  time="-9999999/1" value="0" leadInLength="0/1"  />
               <InterpolatingParam id="2216" interp="linr"  time="-9999999/1" value="0" leadInLength="0/1"  />
               <InterpolatingParam id="2217" interp="linr"  time="-9999999/1" value="0" leadInLength="0/1"  />
              </VectorParam>
              <VectorParam id="2218"  name="scale">
               <InterpolatingParam id="2219" interp="linr"  time="-9999999/1" value="1" leadInLength="0/1"  />
               <InterpolatingParam id="2220" interp="linr"  time="-9999999/1" value="1" leadInLength="0/1"  />
               <InterpolatingParam id="2221" interp="linr"  time="-9999999/1" value="1" leadInLength="0/1"  />
              </VectorParam>
              <VectorParam id="2222"  name="anchor">
               <InterpolatingParam id="2223" interp="linr"  time="0/1" value="0" leadInLength="0/1"  />
               <InterpolatingParam id="2224" interp="linr"  time="0/1" value="0" leadInLength="0/1"  />
               <InterpolatingParam id="2225" interp="linr"  time="0/1" value="0" leadInLength="0/1"  />
              </VectorParam>
             </Transformer>
             <Parameters>
              <VectorParam id="2226"  name="sourceCrop">
               <InterpolatingParam id="2227" interp="linr"  time="0/1" value="0" leadInLength="0/1"  />
               <InterpolatingParam id="2228" interp="linr"  time="0/1" value="0" leadInLength="0/1"  />
               <InterpolatingParam id="2229" interp="linr"  time="0/1" value="0" leadInLength="0/1"  />
               <InterpolatingParam id="2230" interp="linr"  time="0/1" value="0" leadInLength="0/1"  />
              </VectorParam>
              <VectorParam id="2231"  name="geometryCrop">
               <InterpolatingParam id="2232" interp="linr"  time="-9999999/1" value="0" leadInLength="0/1"  />
               <InterpolatingParam id="2233" interp="linr"  time="-9999999/1" value="0" leadInLength="0/1"  />
               <InterpolatingParam id="2234" interp="linr"  time="-9999999/1" value="0" leadInLength="0/1"  />
               <InterpolatingParam id="2235" interp="linr"  time="-9999999/1" value="0" leadInLength="0/1"  />
              </VectorParam>
              <InterpolatingParam id="2236" interp="linr"  time="-9999999/1" value="1" leadInLength="0/1"  name="opacity"/>
             </Parameters>
             <Attributes>
              <Attribute id="2237" value="" name="ident"/>
             </Attributes>
             <ExtraData>
              <Entry key="ZoomPanBin">
               <ZoomPanBin id="2238"  >
                <ZoomPanKeyframes>
                 <ZoomPanKeyframe id="2239" timeRangeEnd="-9999999/1" timeRangeDuration="0/1" interpolaterName="linr"  />
                </ZoomPanKeyframes>
               </ZoomPanBin>
              </Entry>
             </ExtraData>
            </VMFile>
            <MetaData>
             <entry key="WinSubProjectDisplayName" val=""/>
            </MetaData>
           </UnifiedMedia>
          </Medias>
         </GenericTrack>
        </StitchedMedia>
        <StitchedMedia id="2240" start="3355" duration="93" scalar="276/139" mediaStart="34055/92" mediaDuration="4309/92" minMediaStart="0/1" >
         <Transformer>
          <VectorParam id="2241"  name="translation">
           <InterpolatingParam id="2242" interp="linr"  >
            <Keyframes>
            <Keyframe id="2243"  time="-9999999/1" value="-206.00000000000074" leadInLength="0/1"  />
            <Keyframe id="2244"  time="100775/276" value="-343.44444444449442" leadInLength="417/4"  interpolater="leadin-linr"  />
            </Keyframes>
           </InterpolatingParam>
           <InterpolatingParam id="2245" interp="linr"  >
            <Keyframes>
            <Keyframe id="2246"  time="-9999999/1" value="30.375000000134179" leadInLength="0/1"  />
            <Keyframe id="2247"  time="100775/276" value="7.6249999999647606" leadInLength="417/4"  interpolater="leadin-linr"  />
            </Keyframes>
           </InterpolatingParam>
           <InterpolatingParam id="2248" interp="linr"  >
            <Keyframes>
            <Keyframe id="2249"  time="-9999999/1" value="0" leadInLength="0/1"  />
            <Keyframe id="2250"  time="100775/276" value="-3.4106051316482886e-010" leadInLength="417/4"  interpolater="leadin-linr"  />
            </Keyframes>
           </InterpolatingParam>
          </VectorParam>
          <VectorParam id="2251"  name="rotation">
           <InterpolatingParam id="2252" interp="linr"  >
            <Keyframes>
            <Keyframe id="2253"  time="-9999999/1" value="0" leadInLength="0/1"  />
            <Keyframe id="2254"  time="100775/276" value="0" leadInLength="417/4"  interpolater="leadin-linr"  />
            </Keyframes>
           </InterpolatingParam>
           <InterpolatingParam id="2255" interp="linr"  >
            <Keyframes>
            <Keyframe id="2256"  time="-9999999/1" value="0" leadInLength="0/1"  />
            <Keyframe id="2257"  time="100775/276" value="0" leadInLength="417/4"  interpolater="leadin-linr"  />
            </Keyframes>
           </InterpolatingParam>
           <InterpolatingParam id="2258" interp="linr"  >
            <Keyframes>
            <Keyframe id="2259"  time="-9999999/1" value="0" leadInLength="0/1"  />
            <Keyframe id="2260"  time="100775/276" value="0" leadInLength="417/4"  interpolater="leadin-linr"  />
            </Keyframes>
           </InterpolatingParam>
          </VectorParam>
          <VectorParam id="2261"  name="shear">
           <InterpolatingParam id="2262" interp="linr"  >
            <Keyframes>
            <Keyframe id="2263"  time="-9999999/1" value="0" leadInLength="0/1"  />
            <Keyframe id="2264"  time="100775/276" value="0" leadInLength="417/4"  interpolater="leadin-linr"  />
            </Keyframes>
           </InterpolatingParam>
           <InterpolatingParam id="2265" interp="linr"  >
            <Keyframes>
            <Keyframe id="2266"  time="-9999999/1" value="0" leadInLength="0/1"  />
            <Keyframe id="2267"  time="100775/276" value="0" leadInLength="417/4"  interpolater="leadin-linr"  />
            </Keyframes>
           </InterpolatingParam>
           <InterpolatingParam id="2268" interp="linr"  >
            <Keyframes>
            <Keyframe id="2269"  time="-9999999/1" value="0" leadInLength="0/1"  />
            <Keyframe id="2270"  time="100775/276" value="0" leadInLength="417/4"  interpolater="leadin-linr"  />
            </Keyframes>
           </InterpolatingParam>
          </VectorParam>
          <VectorParam id="2271"  name="scale">
           <InterpolatingParam id="2272" interp="linr"  >
            <Keyframes>
            <Keyframe id="2273"  time="-9999999/1" value="0.72291666666681864" leadInLength="0/1"  />
            <Keyframe id="2274"  time="100775/276" value="0.68078703703705368" leadInLength="417/4"  interpolater="leadin-linr"  />
            </Keyframes>
           </InterpolatingParam>
           <InterpolatingParam id="2275" interp="linr"  >
            <Keyframes>
            <Keyframe id="2276"  time="-9999999/1" value="0.72291666666681864" leadInLength="0/1"  />
            <Keyframe id="2277"  time="100775/276" value="0.68078703703705412" leadInLength="417/4"  interpolater="leadin-linr"  />
            </Keyframes>
           </InterpolatingParam>
           <InterpolatingParam id="2278" interp="linr"  >
            <Keyframes>
            <Keyframe id="2279"  time="-9999999/1" value="1" leadInLength="0/1"  />
            <Keyframe id="2280"  time="100775/276" value="1" leadInLength="417/4"  interpolater="leadin-linr"  />
            </Keyframes>
           </InterpolatingParam>
          </VectorParam>
          <VectorParam id="2281"  name="anchor">
           <InterpolatingParam id="2282" interp="linr"  time="0/1" value="0" leadInLength="0/1"  />
           <InterpolatingParam id="2283" interp="linr"  time="0/1" value="0" leadInLength="0/1"  />
           <InterpolatingParam id="2284" interp="linr"  time="0/1" value="0" leadInLength="0/1"  />
          </VectorParam>
         </Transformer>
         <Parameters>
          <VectorParam id="2285"  name="sourceCrop">
           <InterpolatingParam id="2286" interp="linr"  time="0/1" value="0" leadInLength="0/1"  />
           <InterpolatingParam id="2287" interp="linr"  time="0/1" value="0" leadInLength="0/1"  />
           <InterpolatingParam id="2288" interp="linr"  time="0/1" value="0" leadInLength="0/1"  />
           <InterpolatingParam id="2289" interp="linr"  time="0/1" value="0" leadInLength="0/1"  />
          </VectorParam>
          <VectorParam id="2290"  name="geometryCrop">
           <InterpolatingParam id="2291" interp="linr"  >
            <Keyframes>
            <Keyframe id="2292"  time="-9999999/1" value="0" leadInLength="0/1"  />
            <Keyframe id="2293"  time="100775/276" value="0" leadInLength="417/4"  interpolater="leadin-linr"  />
            </Keyframes>
           </InterpolatingParam>
           <InterpolatingParam id="2294" interp="linr"  >
            <Keyframes>
            <Keyframe id="2295"  time="-9999999/1" value="0" leadInLength="0/1"  />
            <Keyframe id="2296"  time="100775/276" value="0" leadInLength="417/4"  interpolater="leadin-linr"  />
            </Keyframes>
           </InterpolatingParam>
           <InterpolatingParam id="2297" interp="linr"  >
            <Keyframes>
            <Keyframe id="2298"  time="-9999999/1" value="0" leadInLength="0/1"  />
            <Keyframe id="2299"  time="100775/276" value="0" leadInLength="417/4"  interpolater="leadin-linr"  />
            </Keyframes>
           </InterpolatingParam>
           <InterpolatingParam id="2300" interp="linr"  >
            <Keyframes>
            <Keyframe id="2301"  time="-9999999/1" value="0" leadInLength="0/1"  />
            <Keyframe id="2302"  time="100775/276" value="0" leadInLength="417/4"  interpolater="leadin-linr"  />
            </Keyframes>
           </InterpolatingParam>
          </VectorParam>
          <InterpolatingParam id="2303" interp="linr"  name="opacity">
           <Keyframes>
           <Keyframe id="2304"  time="-9999999/1" value="1" leadInLength="0/1"  />
           <Keyframe id="2305"  time="100775/276" value="1" leadInLength="417/4"  interpolater="leadin-linr"  />
           </Keyframes>
          </InterpolatingParam>
          <InterpolatingParam id="2306" interp="linr"  time="0/1" value="1" leadInLength="0/1"  name="cursorOpacity"/>
          <InterpolatingParam id="2307" interp="linr"  time="0/1" value="1" leadInLength="0/1"  name="cursorScale"/>
          <InterpolatingParam id="2308" interp="linr"  time="0/1" value="0" leadInLength="0/1"  name="volume"/>
          <Parameter id="2309"  name="captions"/>
         </Parameters>
         <Attributes>
          <Attribute id="2310" value="" name="ident"/>
          <Attribute id="2311" value="0" name="mixToMono"/>
         </Attributes>
         <MetaData>
          <entry key="WinSubProjectDisplayName" val=""/>
         </MetaData>
         <ExtraData>
          <Entry key="ZoomPanBin">
           <ZoomPanBin id="2312"  >
            <ZoomPanKeyframes>
             <ZoomPanKeyframe id="2313" timeRangeEnd="-9999999/1" timeRangeDuration="0/1" interpolaterName="linr"  />
             <ZoomPanKeyframe id="2314" timeRangeEnd="100775/276" timeRangeDuration="417/4" interpolaterName="linr"  />
            </ZoomPanKeyframes>
           </ZoomPanBin>
          </Entry>
          <Entry key="CursorEffectBin">
           <CursorEffectBin id="2315"  >
            <CursorEffectKeyframes>
            </CursorEffectKeyframes>
           </CursorEffectBin>
          </Entry>
         </ExtraData>
         <GenericTrack id="2316"  >
          <Attributes>
           <Attribute id="2317" value="" name="ident"/>
           <Attribute id="2318" value="0" name="audioMuted"/>
           <Attribute id="2319" value="0" name="videoHidden"/>
          </Attributes>
          <MetaData>
           <entry key="IsLocked" val="False"/>
           <entry key="WinTrackHeight" val="0"/>
          </MetaData>
          <Medias>
           <UnifiedMedia id="2320"  >
            <AMFile id="2321" start="0" duration="191" scalar="1/1" mediaStart="0/1" mediaDuration="191/1" trackNumber="1" src="18" channelNumber="0" >
             <Parameters>
              <InterpolatingParam id="2322" interp="linr"  time="0/1" value="1" leadInLength="0/1"  name="volume"/>
              <Parameter id="2323"  name="captions"/>
             </Parameters>
             <Attributes>
              <Attribute id="2324" value="" name="ident"/>
              <Attribute id="2325" value="44100" name="sampleRate"/>
              <Attribute id="2326" value="16" name="bitDepth"/>
              <Attribute id="2327" value="1" name="gain"/>
              <Attribute id="2328" value="0" name="mixToMono"/>
             </Attributes>
            </AMFile>
            <VMFile id="2329" start="0" duration="191" scalar="1/1" mediaStart="0/1" mediaDuration="191/1" trackNumber="0" src="18" >
             <Transformer>
              <VectorParam id="2330"  name="translation">
               <InterpolatingParam id="2331" interp="linr"  time="-9999999/1" value="0" leadInLength="0/1"  />
               <InterpolatingParam id="2332" interp="linr"  time="-9999999/1" value="0" leadInLength="0/1"  />
               <InterpolatingParam id="2333" interp="linr"  time="-9999999/1" value="0" leadInLength="0/1"  />
              </VectorParam>
              <VectorParam id="2334"  name="rotation">
               <InterpolatingParam id="2335" interp="linr"  time="-9999999/1" value="0" leadInLength="0/1"  />
               <InterpolatingParam id="2336" interp="linr"  time="-9999999/1" value="0" leadInLength="0/1"  />
               <InterpolatingParam id="2337" interp="linr"  time="-9999999/1" value="0" leadInLength="0/1"  />
              </VectorParam>
              <VectorParam id="2338"  name="shear">
               <InterpolatingParam id="2339" interp="linr"  time="-9999999/1" value="0" leadInLength="0/1"  />
               <InterpolatingParam id="2340" interp="linr"  time="-9999999/1" value="0" leadInLength="0/1"  />
               <InterpolatingParam id="2341" interp="linr"  time="-9999999/1" value="0" leadInLength="0/1"  />
              </VectorParam>
              <VectorParam id="2342"  name="scale">
               <InterpolatingParam id="2343" interp="linr"  time="-9999999/1" value="1" leadInLength="0/1"  />
               <InterpolatingParam id="2344" interp="linr"  time="-9999999/1" value="1" leadInLength="0/1"  />
               <InterpolatingParam id="2345" interp="linr"  time="-9999999/1" value="1" leadInLength="0/1"  />
              </VectorParam>
              <VectorParam id="2346"  name="anchor">
               <InterpolatingParam id="2347" interp="linr"  time="0/1" value="0" leadInLength="0/1"  />
               <InterpolatingParam id="2348" interp="linr"  time="0/1" value="0" leadInLength="0/1"  />
               <InterpolatingParam id="2349" interp="linr"  time="0/1" value="0" leadInLength="0/1"  />
              </VectorParam>
             </Transformer>
             <Parameters>
              <VectorParam id="2350"  name="sourceCrop">
               <InterpolatingParam id="2351" interp="linr"  time="0/1" value="0" leadInLength="0/1"  />
               <InterpolatingParam id="2352" interp="linr"  time="0/1" value="0" leadInLength="0/1"  />
               <InterpolatingParam id="2353" interp="linr"  time="0/1" value="0" leadInLength="0/1"  />
               <InterpolatingParam id="2354" interp="linr"  time="0/1" value="0" leadInLength="0/1"  />
              </VectorParam>
              <VectorParam id="2355"  name="geometryCrop">
               <InterpolatingParam id="2356" interp="linr"  time="-9999999/1" value="0" leadInLength="0/1"  />
               <InterpolatingParam id="2357" interp="linr"  time="-9999999/1" value="0" leadInLength="0/1"  />
               <InterpolatingParam id="2358" interp="linr"  time="-9999999/1" value="0" leadInLength="0/1"  />
               <InterpolatingParam id="2359" interp="linr"  time="-9999999/1" value="0" leadInLength="0/1"  />
              </VectorParam>
              <InterpolatingParam id="2360" interp="linr"  time="-9999999/1" value="1" leadInLength="0/1"  name="opacity"/>
             </Parameters>
             <Attributes>
              <Attribute id="2361" value="" name="ident"/>
             </Attributes>
             <ExtraData>
              <Entry key="ZoomPanBin">
               <ZoomPanBin id="2362"  >
                <ZoomPanKeyframes>
                </ZoomPanKeyframes>
               </ZoomPanBin>
              </Entry>
             </ExtraData>
            </VMFile>
            <MetaData>
             <entry key="WinSubProjectDisplayName" val=""/>
            </MetaData>
           </UnifiedMedia>
           <UnifiedMedia id="2363"  >
            <AMFile id="2364" start="191" duration="311" scalar="1/1" mediaStart="348/1" mediaDuration="311/1" trackNumber="1" src="18" channelNumber="0" >
             <Parameters>
              <InterpolatingParam id="2365" interp="linr"  time="0/1" value="1" leadInLength="0/1"  name="volume"/>
              <Parameter id="2366"  name="captions"/>
             </Parameters>
             <Attributes>
              <Attribute id="2367" value="" name="ident"/>
              <Attribute id="2368" value="44100" name="sampleRate"/>
              <Attribute id="2369" value="16" name="bitDepth"/>
              <Attribute id="2370" value="1" name="gain"/>
              <Attribute id="2371" value="0" name="mixToMono"/>
             </Attributes>
            </AMFile>
            <VMFile id="2372" start="191" duration="311" scalar="1/1" mediaStart="348/1" mediaDuration="311/1" trackNumber="0" src="18" >
             <Transformer>
              <VectorParam id="2373"  name="translation">
               <InterpolatingParam id="2374" interp="linr"  time="-9999999/1" value="0" leadInLength="0/1"  />
               <InterpolatingParam id="2375" interp="linr"  time="-9999999/1" value="0" leadInLength="0/1"  />
               <InterpolatingParam id="2376" interp="linr"  time="-9999999/1" value="0" leadInLength="0/1"  />
              </VectorParam>
              <VectorParam id="2377"  name="rotation">
               <InterpolatingParam id="2378" interp="linr"  time="-9999999/1" value="0" leadInLength="0/1"  />
               <InterpolatingParam id="2379" interp="linr"  time="-9999999/1" value="0" leadInLength="0/1"  />
               <InterpolatingParam id="2380" interp="linr"  time="-9999999/1" value="0" leadInLength="0/1"  />
              </VectorParam>
              <VectorParam id="2381"  name="shear">
               <InterpolatingParam id="2382" interp="linr"  time="-9999999/1" value="0" leadInLength="0/1"  />
               <InterpolatingParam id="2383" interp="linr"  time="-9999999/1" value="0" leadInLength="0/1"  />
               <InterpolatingParam id="2384" interp="linr"  time="-9999999/1" value="0" leadInLength="0/1"  />
              </VectorParam>
              <VectorParam id="2385"  name="scale">
               <InterpolatingParam id="2386" interp="linr"  time="-9999999/1" value="1" leadInLength="0/1"  />
               <InterpolatingParam id="2387" interp="linr"  time="-9999999/1" value="1" leadInLength="0/1"  />
               <InterpolatingParam id="2388" interp="linr"  time="-9999999/1" value="1" leadInLength="0/1"  />
              </VectorParam>
              <VectorParam id="2389"  name="anchor">
               <InterpolatingParam id="2390" interp="linr"  time="0/1" value="0" leadInLength="0/1"  />
               <InterpolatingParam id="2391" interp="linr"  time="0/1" value="0" leadInLength="0/1"  />
               <InterpolatingParam id="2392" interp="linr"  time="0/1" value="0" leadInLength="0/1"  />
              </VectorParam>
             </Transformer>
             <Parameters>
              <VectorParam id="2393"  name="sourceCrop">
               <InterpolatingParam id="2394" interp="linr"  time="0/1" value="0" leadInLength="0/1"  />
               <InterpolatingParam id="2395" interp="linr"  time="0/1" value="0" leadInLength="0/1"  />
               <InterpolatingParam id="2396" interp="linr"  time="0/1" value="0" leadInLength="0/1"  />
               <InterpolatingParam id="2397" interp="linr"  time="0/1" value="0" leadInLength="0/1"  />
              </VectorParam>
              <VectorParam id="2398"  name="geometryCrop">
               <InterpolatingParam id="2399" interp="linr"  time="-9999999/1" value="0" leadInLength="0/1"  />
               <InterpolatingParam id="2400" interp="linr"  time="-9999999/1" value="0" leadInLength="0/1"  />
               <InterpolatingParam id="2401" interp="linr"  time="-9999999/1" value="0" leadInLength="0/1"  />
               <InterpolatingParam id="2402" interp="linr"  time="-9999999/1" value="0" leadInLength="0/1"  />
              </VectorParam>
              <InterpolatingParam id="2403" interp="linr"  time="-9999999/1" value="1" leadInLength="0/1"  name="opacity"/>
             </Parameters>
             <Attributes>
              <Attribute id="2404" value="" name="ident"/>
             </Attributes>
             <ExtraData>
              <Entry key="ZoomPanBin">
               <ZoomPanBin id="2405"  >
                <ZoomPanKeyframes>
                </ZoomPanKeyframes>
               </ZoomPanBin>
              </Entry>
             </ExtraData>
            </VMFile>
            <MetaData>
             <entry key="WinSubProjectDisplayName" val=""/>
            </MetaData>
           </UnifiedMedia>
          </Medias>
         </GenericTrack>
        </StitchedMedia>
        <UnifiedMedia id="2406"  >
         <AMFile id="2407" start="3448" duration="94" scalar="264/133" mediaStart="526/1" mediaDuration="6251/132" trackNumber="1" src="18" channelNumber="0" >
          <Parameters>
           <InterpolatingParam id="2408" interp="linr"  name="volume">
            <Keyframes>
            <Keyframe id="2409"  time="0/1" value="0" leadInLength="0/1"  />
            <Keyframe id="2410"  time="526/1" value="0" leadInLength="0/1"  />
            </Keyframes>
           </InterpolatingParam>
           <Parameter id="2411"  name="captions"/>
          </Parameters>
          <Attributes>
           <Attribute id="2412" value="" name="ident"/>
           <Attribute id="2413" value="44100" name="sampleRate"/>
           <Attribute id="2414" value="16" name="bitDepth"/>
           <Attribute id="2415" value="1" name="gain"/>
           <Attribute id="2416" value="0" name="mixToMono"/>
          </Attributes>
         </AMFile>
         <VMFile id="2417" start="3448" duration="94" scalar="264/133" mediaStart="526/1" mediaDuration="6251/132" trackNumber="0" src="18" >
          <Transformer>
           <VectorParam id="2418"  name="translation">
            <InterpolatingParam id="2419" interp="linr"  >
             <Keyframes>
             <Keyframe id="2420"  time="-9999999/1" value="-343.44444444449442" leadInLength="0/1"  interpolater="leadin-linr"  />
             <Keyframe id="2421"  time="817119253777/1439062500" value="-180.5" leadInLength="60172378777/1439062500"  interpolater="leadin-linr"  />
             </Keyframes>
            </InterpolatingParam>
            <InterpolatingParam id="2422" interp="linr"  >
             <Keyframes>
             <Keyframe id="2423"  time="-9999999/1" value="7.6249999999647606" leadInLength="0/1"  interpolater="leadin-linr"  />
             <Keyframe id="2424"  time="817119253777/1439062500" value="99.281199999999998" leadInLength="60172378777/1439062500"  interpolater="leadin-linr"  />
             </Keyframes>
            </InterpolatingParam>
            <InterpolatingParam id="2425" interp="linr"  >
             <Keyframes>
             <Keyframe id="2426"  time="-9999999/1" value="-3.4106051316482886e-010" leadInLength="0/1"  interpolater="leadin-linr"  />
             <Keyframe id="2427"  time="817119253777/1439062500" value="-3.4106100000000002e-010" leadInLength="60172378777/1439062500"  interpolater="leadin-linr"  />
             </Keyframes>
            </InterpolatingParam>
           </VectorParam>
           <VectorParam id="2428"  name="rotation">
            <InterpolatingParam id="2429" interp="linr"  >
             <Keyframes>
             <Keyframe id="2430"  time="-9999999/1" value="0" leadInLength="0/1"  interpolater="leadin-linr"  />
             <Keyframe id="2431"  time="817119253777/1439062500" value="0" leadInLength="60172378777/1439062500"  interpolater="leadin-linr"  />
             </Keyframes>
            </InterpolatingParam>
            <InterpolatingParam id="2432" interp="linr"  >
             <Keyframes>
             <Keyframe id="2433"  time="-9999999/1" value="0" leadInLength="0/1"  interpolater="leadin-linr"  />
             <Keyframe id="2434"  time="817119253777/1439062500" value="0" leadInLength="60172378777/1439062500"  interpolater="leadin-linr"  />
             </Keyframes>
            </InterpolatingParam>
            <InterpolatingParam id="2435" interp="linr"  >
             <Keyframes>
             <Keyframe id="2436"  time="-9999999/1" value="0" leadInLength="0/1"  interpolater="leadin-linr"  />
             <Keyframe id="2437"  time="817119253777/1439062500" value="0" leadInLength="60172378777/1439062500"  interpolater="leadin-linr"  />
             </Keyframes>
            </InterpolatingParam>
           </VectorParam>
           <VectorParam id="2438"  name="shear">
            <InterpolatingParam id="2439" interp="linr"  >
             <Keyframes>
             <Keyframe id="2440"  time="-9999999/1" value="0" leadInLength="0/1"  interpolater="leadin-linr"  />
             <Keyframe id="2441"  time="817119253777/1439062500" value="0" leadInLength="60172378777/1439062500"  interpolater="leadin-linr"  />
             </Keyframes>
            </InterpolatingParam>
            <InterpolatingParam id="2442" interp="linr"  >
             <Keyframes>
             <Keyframe id="2443"  time="-9999999/1" value="0" leadInLength="0/1"  interpolater="leadin-linr"  />
             <Keyframe id="2444"  time="817119253777/1439062500" value="0" leadInLength="60172378777/1439062500"  interpolater="leadin-linr"  />
             </Keyframes>
            </InterpolatingParam>
            <InterpolatingParam id="2445" interp="linr"  >
             <Keyframes>
             <Keyframe id="2446"  time="-9999999/1" value="0" leadInLength="0/1"  interpolater="leadin-linr"  />
             <Keyframe id="2447"  time="817119253777/1439062500" value="0" leadInLength="60172378777/1439062500"  interpolater="leadin-linr"  />
             </Keyframes>
            </InterpolatingParam>
           </VectorParam>
           <VectorParam id="2448"  name="scale">
            <InterpolatingParam id="2449" interp="linr"  >
             <Keyframes>
             <Keyframe id="2450"  time="-9999999/1" value="0.68078703703705368" leadInLength="0/1"  interpolater="leadin-linr"  />
             <Keyframe id="2451"  time="817119253777/1439062500" value="0.85052099999999997" leadInLength="60172378777/1439062500"  interpolater="leadin-linr"  />
             </Keyframes>
            </InterpolatingParam>
            <InterpolatingParam id="2452" interp="linr"  >
             <Keyframes>
             <Keyframe id="2453"  time="-9999999/1" value="0.68078703703705412" leadInLength="0/1"  interpolater="leadin-linr"  />
             <Keyframe id="2454"  time="817119253777/1439062500" value="0.85052099999999997" leadInLength="60172378777/1439062500"  interpolater="leadin-linr"  />
             </Keyframes>
            </InterpolatingParam>
            <InterpolatingParam id="2455" interp="linr"  >
             <Keyframes>
             <Keyframe id="2456"  time="-9999999/1" value="1" leadInLength="0/1"  interpolater="leadin-linr"  />
             <Keyframe id="2457"  time="817119253777/1439062500" value="1" leadInLength="60172378777/1439062500"  interpolater="leadin-linr"  />
             </Keyframes>
            </InterpolatingParam>
           </VectorParam>
           <VectorParam id="2458"  name="anchor">
            <InterpolatingParam id="2459" interp="linr"  time="0/1" value="0" leadInLength="0/1"  />
            <InterpolatingParam id="2460" interp="linr"  time="0/1" value="0" leadInLength="0/1"  />
            <InterpolatingParam id="2461" interp="linr"  time="0/1" value="0" leadInLength="0/1"  />
           </VectorParam>
          </Transformer>
          <Parameters>
           <VectorParam id="2462"  name="sourceCrop">
            <InterpolatingParam id="2463" interp="linr"  time="0/1" value="0" leadInLength="0/1"  />
            <InterpolatingParam id="2464" interp="linr"  time="0/1" value="0" leadInLength="0/1"  />
            <InterpolatingParam id="2465" interp="linr"  time="0/1" value="0" leadInLength="0/1"  />
            <InterpolatingParam id="2466" interp="linr"  time="0/1" value="0" leadInLength="0/1"  />
           </VectorParam>
           <VectorParam id="2467"  name="geometryCrop">
            <InterpolatingParam id="2468" interp="linr"  >
             <Keyframes>
             <Keyframe id="2469"  time="-9999999/1" value="0" leadInLength="0/1"  interpolater="leadin-linr"  />
             <Keyframe id="2470"  time="817119253777/1439062500" value="0" leadInLength="60172378777/1439062500"  interpolater="leadin-linr"  />
             </Keyframes>
            </InterpolatingParam>
            <InterpolatingParam id="2471" interp="linr"  >
             <Keyframes>
             <Keyframe id="2472"  time="-9999999/1" value="0" leadInLength="0/1"  interpolater="leadin-linr"  />
             <Keyframe id="2473"  time="817119253777/1439062500" value="0" leadInLength="60172378777/1439062500"  interpolater="leadin-linr"  />
             </Keyframes>
            </InterpolatingParam>
            <InterpolatingParam id="2474" interp="linr"  >
             <Keyframes>
             <Keyframe id="2475"  time="-9999999/1" value="0" leadInLength="0/1"  interpolater="leadin-linr"  />
             <Keyframe id="2476"  time="817119253777/1439062500" value="0" leadInLength="60172378777/1439062500"  interpolater="leadin-linr"  />
             </Keyframes>
            </InterpolatingParam>
            <InterpolatingParam id="2477" interp="linr"  >
             <Keyframes>
             <Keyframe id="2478"  time="-9999999/1" value="0" leadInLength="0/1"  interpolater="leadin-linr"  />
             <Keyframe id="2479"  time="817119253777/1439062500" value="0" leadInLength="60172378777/1439062500"  interpolater="leadin-linr"  />
             </Keyframes>
            </InterpolatingParam>
           </VectorParam>
           <InterpolatingParam id="2480" interp="linr"  name="opacity">
            <Keyframes>
            <Keyframe id="2481"  time="-9999999/1" value="1" leadInLength="0/1"  interpolater="leadin-linr"  />
            <Keyframe id="2482"  time="817119253777/1439062500" value="1" leadInLength="60172378777/1439062500"  interpolater="leadin-linr"  />
            </Keyframes>
           </InterpolatingParam>
          </Parameters>
          <Attributes>
           <Attribute id="2483" value="" name="ident"/>
          </Attributes>
          <ExtraData>
           <Entry key="ZoomPanBin">
            <ZoomPanBin id="2484"  >
             <ZoomPanKeyframes>
              <ZoomPanKeyframe id="2485" timeRangeEnd="-9999999/1" timeRangeDuration="0/1" interpolaterName="linr"  />
              <ZoomPanKeyframe id="2486" timeRangeEnd="817119253777/1439062500" timeRangeDuration="60172378777/1439062500" interpolaterName="linr"  />
             </ZoomPanKeyframes>
            </ZoomPanBin>
           </Entry>
          </ExtraData>
         </VMFile>
         <MetaData>
          <entry key="WinSubProjectDisplayName" val=""/>
         </MetaData>
        </UnifiedMedia>
        <UnifiedMedia id="2487"  >
         <AMFile id="2488" start="3542" duration="92" scalar="264/133" mediaStart="526/1" mediaDuration="3059/66" trackNumber="1" src="18" channelNumber="0" >
          <Parameters>
           <InterpolatingParam id="2489" interp="linr"  name="volume">
            <Keyframes>
            <Keyframe id="2490"  time="0/1" value="0" leadInLength="0/1"  />
            <Keyframe id="2491"  time="526/1" value="0" leadInLength="0/1"  />
            </Keyframes>
           </InterpolatingParam>
           <Parameter id="2492"  name="captions"/>
          </Parameters>
          <Attributes>
           <Attribute id="2493" value="" name="ident"/>
           <Attribute id="2494" value="44100" name="sampleRate"/>
           <Attribute id="2495" value="16" name="bitDepth"/>
           <Attribute id="2496" value="1" name="gain"/>
           <Attribute id="2497" value="0" name="mixToMono"/>
          </Attributes>
         </AMFile>
         <VMFile id="2498" start="3542" duration="92" scalar="264/133" mediaStart="526/1" mediaDuration="3059/66" trackNumber="0" src="18" >
          <Transformer>
           <VectorParam id="2499"  name="translation">
            <InterpolatingParam id="2500" interp="linr"  time="-9999999/1" value="-180.50000000001364" leadInLength="0/1"  interpolater="leadin-linr"  />
            <InterpolatingParam id="2501" interp="linr"  time="-9999999/1" value="99.281249999985249" leadInLength="0/1"  interpolater="leadin-linr"  />
            <InterpolatingParam id="2502" interp="linr"  time="-9999999/1" value="-3.4106051316482886e-010" leadInLength="0/1"  interpolater="leadin-linr"  />
           </VectorParam>
           <VectorParam id="2503"  name="rotation">
            <InterpolatingParam id="2504" interp="linr"  time="-9999999/1" value="0" leadInLength="0/1"  interpolater="leadin-linr"  />
            <InterpolatingParam id="2505" interp="linr"  time="-9999999/1" value="0" leadInLength="0/1"  interpolater="leadin-linr"  />
            <InterpolatingParam id="2506" interp="linr"  time="-9999999/1" value="0" leadInLength="0/1"  interpolater="leadin-linr"  />
           </VectorParam>
           <VectorParam id="2507"  name="shear">
            <InterpolatingParam id="2508" interp="linr"  time="-9999999/1" value="0" leadInLength="0/1"  interpolater="leadin-linr"  />
            <InterpolatingParam id="2509" interp="linr"  time="-9999999/1" value="0" leadInLength="0/1"  interpolater="leadin-linr"  />
            <InterpolatingParam id="2510" interp="linr"  time="-9999999/1" value="0" leadInLength="0/1"  interpolater="leadin-linr"  />
           </VectorParam>
           <VectorParam id="2511"  name="scale">
            <InterpolatingParam id="2512" interp="linr"  time="-9999999/1" value="0.8505208333333879" leadInLength="0/1"  interpolater="leadin-linr"  />
            <InterpolatingParam id="2513" interp="linr"  time="-9999999/1" value="0.85052083333338846" leadInLength="0/1"  interpolater="leadin-linr"  />
            <InterpolatingParam id="2514" interp="linr"  time="-9999999/1" value="1" leadInLength="0/1"  interpolater="leadin-linr"  />
           </VectorParam>
           <VectorParam id="2515"  name="anchor">
            <InterpolatingParam id="2516" interp="linr"  time="0/1" value="0" leadInLength="0/1"  />
            <InterpolatingParam id="2517" interp="linr"  time="0/1" value="0" leadInLength="0/1"  />
            <InterpolatingParam id="2518" interp="linr"  time="0/1" value="0" leadInLength="0/1"  />
           </VectorParam>
          </Transformer>
          <Parameters>
           <VectorParam id="2519"  name="sourceCrop">
            <InterpolatingParam id="2520" interp="linr"  time="0/1" value="0" leadInLength="0/1"  />
            <InterpolatingParam id="2521" interp="linr"  time="0/1" value="0" leadInLength="0/1"  />
            <InterpolatingParam id="2522" interp="linr"  time="0/1" value="0" leadInLength="0/1"  />
            <InterpolatingParam id="2523" interp="linr"  time="0/1" value="0" leadInLength="0/1"  />
           </VectorParam>
           <VectorParam id="2524"  name="geometryCrop">
            <InterpolatingParam id="2525" interp="linr"  time="-9999999/1" value="0" leadInLength="0/1"  interpolater="leadin-linr"  />
            <InterpolatingParam id="2526" interp="linr"  time="-9999999/1" value="0" leadInLength="0/1"  interpolater="leadin-linr"  />
            <InterpolatingParam id="2527" interp="linr"  time="-9999999/1" value="0" leadInLength="0/1"  interpolater="leadin-linr"  />
            <InterpolatingParam id="2528" interp="linr"  time="-9999999/1" value="0" leadInLength="0/1"  interpolater="leadin-linr"  />
           </VectorParam>
           <InterpolatingParam id="2529" interp="linr"  time="-9999999/1" value="1" leadInLength="0/1"  interpolater="leadin-linr"  name="opacity"/>
          </Parameters>
          <Attributes>
           <Attribute id="2530" value="" name="ident"/>
          </Attributes>
          <ExtraData>
           <Entry key="ZoomPanBin">
            <ZoomPanBin id="2531"  >
             <ZoomPanKeyframes>
              <ZoomPanKeyframe id="2532" timeRangeEnd="-9999999/1" timeRangeDuration="0/1" interpolaterName="linr"  />
             </ZoomPanKeyframes>
            </ZoomPanBin>
           </Entry>
          </ExtraData>
         </VMFile>
         <MetaData>
          <entry key="WinSubProjectDisplayName" val=""/>
         </MetaData>
        </UnifiedMedia>
        <UnifiedMedia id="2533"  >
         <AMFile id="2534" start="3634" duration="97" scalar="97/226" mediaStart="44/1" mediaDuration="226/1" trackNumber="1" src="19" channelNumber="0" >
          <Parameters>
           <InterpolatingParam id="2535" interp="linr"  name="volume">
            <Keyframes>
            <Keyframe id="2536"  time="-1/1" value="1" leadInLength="0/1"  />
            <Keyframe id="2537"  time="0/1" value="0" leadInLength="0/1"  />
            <Keyframe id="2538"  time="770/1" value="0" leadInLength="0/1"  />
            <Keyframe id="2539"  time="771/1" value="1" leadInLength="0/1"  />
            </Keyframes>
           </InterpolatingParam>
           <Parameter id="2540"  name="captions"/>
          </Parameters>
          <Attributes>
           <Attribute id="2541" value="" name="ident"/>
           <Attribute id="2542" value="44100" name="sampleRate"/>
           <Attribute id="2543" value="16" name="bitDepth"/>
           <Attribute id="2544" value="1" name="gain"/>
           <Attribute id="2545" value="0" name="mixToMono"/>
          </Attributes>
         </AMFile>
         <VMFile id="2546" start="3634" duration="97" scalar="97/226" mediaStart="44/1" mediaDuration="226/1" trackNumber="0" src="19" >
          <Transformer>
           <VectorParam id="2547"  name="translation">
            <InterpolatingParam id="2548" interp="linr"  >
             <Keyframes>
             <Keyframe id="2549"  time="-9999999/1" value="-180.7777777776173" leadInLength="0/1"  />
             <Keyframe id="2550"  time="72746/97" value="-331.33333333297389" leadInLength="20340/97"  interpolater="leadin-linr"  />
             </Keyframes>
            </InterpolatingParam>
            <InterpolatingParam id="2551" interp="linr"  >
             <Keyframes>
             <Keyframe id="2552"  time="-9999999/1" value="99.437499999898421" leadInLength="0/1"  />
             <Keyframe id="2553"  time="72746/97" value="-40.000000000155062" leadInLength="20340/97"  interpolater="leadin-linr"  />
             </Keyframes>
            </InterpolatingParam>
            <InterpolatingParam id="2554" interp="linr"  >
             <Keyframes>
             <Keyframe id="2555"  time="-9999999/1" value="-3.4106051316488588e-010" leadInLength="0/1"  />
             <Keyframe id="2556"  time="72746/97" value="0" leadInLength="20340/97"  interpolater="leadin-linr"  />
             </Keyframes>
            </InterpolatingParam>
           </VectorParam>
           <VectorParam id="2557"  name="rotation">
            <InterpolatingParam id="2558" interp="linr"  >
             <Keyframes>
             <Keyframe id="2559"  time="-9999999/1" value="0" leadInLength="0/1"  />
             <Keyframe id="2560"  time="72746/97" value="0" leadInLength="20340/97"  interpolater="leadin-linr"  />
             </Keyframes>
            </InterpolatingParam>
            <InterpolatingParam id="2561" interp="linr"  >
             <Keyframes>
             <Keyframe id="2562"  time="-9999999/1" value="0" leadInLength="0/1"  />
             <Keyframe id="2563"  time="72746/97" value="0" leadInLength="20340/97"  interpolater="leadin-linr"  />
             </Keyframes>
            </InterpolatingParam>
            <InterpolatingParam id="2564" interp="linr"  >
             <Keyframes>
             <Keyframe id="2565"  time="-9999999/1" value="0" leadInLength="0/1"  />
             <Keyframe id="2566"  time="72746/97" value="0" leadInLength="20340/97"  interpolater="leadin-linr"  />
             </Keyframes>
            </InterpolatingParam>
           </VectorParam>
           <VectorParam id="2567"  name="shear">
            <InterpolatingParam id="2568" interp="linr"  >
             <Keyframes>
             <Keyframe id="2569"  time="-9999999/1" value="0" leadInLength="0/1"  />
             <Keyframe id="2570"  time="72746/97" value="0" leadInLength="20340/97"  interpolater="leadin-linr"  />
             </Keyframes>
            </InterpolatingParam>
            <InterpolatingParam id="2571" interp="linr"  >
             <Keyframes>
             <Keyframe id="2572"  time="-9999999/1" value="0" leadInLength="0/1"  />
             <Keyframe id="2573"  time="72746/97" value="0" leadInLength="20340/97"  interpolater="leadin-linr"  />
             </Keyframes>
            </InterpolatingParam>
            <InterpolatingParam id="2574" interp="linr"  >
             <Keyframes>
             <Keyframe id="2575"  time="-9999999/1" value="0" leadInLength="0/1"  />
             <Keyframe id="2576"  time="72746/97" value="0" leadInLength="20340/97"  interpolater="leadin-linr"  />
             </Keyframes>
            </InterpolatingParam>
           </VectorParam>
           <VectorParam id="2577"  name="scale">
            <InterpolatingParam id="2578" interp="linr"  >
             <Keyframes>
             <Keyframe id="2579"  time="-9999999/1" value="0.85081018518511831" leadInLength="0/1"  />
             <Keyframe id="2580"  time="72746/97" value="0.59259259259246078" leadInLength="20340/97"  interpolater="leadin-linr"  />
             </Keyframes>
            </InterpolatingParam>
            <InterpolatingParam id="2581" interp="linr"  >
             <Keyframes>
             <Keyframe id="2582"  time="-9999999/1" value="0.85081018518511864" leadInLength="0/1"  />
             <Keyframe id="2583"  time="72746/97" value="0.59259259259246089" leadInLength="20340/97"  interpolater="leadin-linr"  />
             </Keyframes>
            </InterpolatingParam>
            <InterpolatingParam id="2584" interp="linr"  >
             <Keyframes>
             <Keyframe id="2585"  time="-9999999/1" value="1" leadInLength="0/1"  />
             <Keyframe id="2586"  time="72746/97" value="1" leadInLength="20340/97"  interpolater="leadin-linr"  />
             </Keyframes>
            </InterpolatingParam>
           </VectorParam>
           <VectorParam id="2587"  name="anchor">
            <InterpolatingParam id="2588" interp="linr"  time="0/1" value="0" leadInLength="0/1"  />
            <InterpolatingParam id="2589" interp="linr"  time="0/1" value="0" leadInLength="0/1"  />
            <InterpolatingParam id="2590" interp="linr"  time="0/1" value="0" leadInLength="0/1"  />
           </VectorParam>
          </Transformer>
          <Parameters>
           <VectorParam id="2591"  name="sourceCrop">
            <InterpolatingParam id="2592" interp="linr"  time="0/1" value="0" leadInLength="0/1"  />
            <InterpolatingParam id="2593" interp="linr"  time="0/1" value="0" leadInLength="0/1"  />
            <InterpolatingParam id="2594" interp="linr"  time="0/1" value="0" leadInLength="0/1"  />
            <InterpolatingParam id="2595" interp="linr"  time="0/1" value="0" leadInLength="0/1"  />
           </VectorParam>
           <VectorParam id="2596"  name="geometryCrop">
            <InterpolatingParam id="2597" interp="linr"  >
             <Keyframes>
             <Keyframe id="2598"  time="-9999999/1" value="0" leadInLength="0/1"  />
             <Keyframe id="2599"  time="72746/97" value="0" leadInLength="20340/97"  interpolater="leadin-linr"  />
             </Keyframes>
            </InterpolatingParam>
            <InterpolatingParam id="2600" interp="linr"  >
             <Keyframes>
             <Keyframe id="2601"  time="-9999999/1" value="0" leadInLength="0/1"  />
             <Keyframe id="2602"  time="72746/97" value="0" leadInLength="20340/97"  interpolater="leadin-linr"  />
             </Keyframes>
            </InterpolatingParam>
            <InterpolatingParam id="2603" interp="linr"  >
             <Keyframes>
             <Keyframe id="2604"  time="-9999999/1" value="0" leadInLength="0/1"  />
             <Keyframe id="2605"  time="72746/97" value="0" leadInLength="20340/97"  interpolater="leadin-linr"  />
             </Keyframes>
            </InterpolatingParam>
            <InterpolatingParam id="2606" interp="linr"  >
             <Keyframes>
             <Keyframe id="2607"  time="-9999999/1" value="0" leadInLength="0/1"  />
             <Keyframe id="2608"  time="72746/97" value="0" leadInLength="20340/97"  interpolater="leadin-linr"  />
             </Keyframes>
            </InterpolatingParam>
           </VectorParam>
           <InterpolatingParam id="2609" interp="linr"  name="opacity">
            <Keyframes>
            <Keyframe id="2610"  time="-9999999/1" value="1" leadInLength="0/1"  />
            <Keyframe id="2611"  time="72746/97" value="1" leadInLength="20340/97"  interpolater="leadin-linr"  />
            </Keyframes>
           </InterpolatingParam>
          </Parameters>
          <Attributes>
           <Attribute id="2612" value="" name="ident"/>
          </Attributes>
          <ExtraData>
           <Entry key="ZoomPanBin">
            <ZoomPanBin id="2613"  >
             <ZoomPanKeyframes>
              <ZoomPanKeyframe id="2614" timeRangeEnd="-9999999/1" timeRangeDuration="0/1" interpolaterName="linr"  />
              <ZoomPanKeyframe id="2615" timeRangeEnd="72746/97" timeRangeDuration="20340/97" interpolaterName="linr"  />
             </ZoomPanKeyframes>
            </ZoomPanBin>
           </Entry>
          </ExtraData>
         </VMFile>
         <MetaData>
          <entry key="WinSubProjectDisplayName" val=""/>
         </MetaData>
        </UnifiedMedia>
        <StitchedMedia id="2616" start="3731" duration="182" scalar="164/255" mediaStart="18615/82" mediaDuration="23205/82" minMediaStart="0/1" >
         <Transformer>
          <VectorParam id="2617"  name="translation">
           <InterpolatingParam id="2618" interp="linr"  time="-9999999/1" value="-201.46236559124395" leadInLength="0/1"  />
           <InterpolatingParam id="2619" interp="linr"  time="-9999999/1" value="49.548387096828996" leadInLength="0/1"  />
           <InterpolatingParam id="2620" interp="linr"  time="-9999999/1" value="-3.4106051316482886e-010" leadInLength="0/1"  />
          </VectorParam>
          <VectorParam id="2621"  name="rotation">
           <InterpolatingParam id="2622" interp="linr"  time="-9999999/1" value="0" leadInLength="0/1"  />
           <InterpolatingParam id="2623" interp="linr"  time="-9999999/1" value="0" leadInLength="0/1"  />
           <InterpolatingParam id="2624" interp="linr"  time="-9999999/1" value="0" leadInLength="0/1"  />
          </VectorParam>
          <VectorParam id="2625"  name="shear">
           <InterpolatingParam id="2626" interp="linr"  time="-9999999/1" value="0" leadInLength="0/1"  />
           <InterpolatingParam id="2627" interp="linr"  time="-9999999/1" value="0" leadInLength="0/1"  />
           <InterpolatingParam id="2628" interp="linr"  time="-9999999/1" value="0" leadInLength="0/1"  />
          </VectorParam>
          <VectorParam id="2629"  name="scale">
           <InterpolatingParam id="2630" interp="linr"  time="-9999999/1" value="0.75842293906815683" leadInLength="0/1"  />
           <InterpolatingParam id="2631" interp="linr"  time="-9999999/1" value="0.75842293906815694" leadInLength="0/1"  />
           <InterpolatingParam id="2632" interp="linr"  time="-9999999/1" value="1" leadInLength="0/1"  />
          </VectorParam>
          <VectorParam id="2633"  name="anchor">
           <InterpolatingParam id="2634" interp="linr"  time="0/1" value="0" leadInLength="0/1"  />
           <InterpolatingParam id="2635" interp="linr"  time="0/1" value="0" leadInLength="0/1"  />
           <InterpolatingParam id="2636" interp="linr"  time="0/1" value="0" leadInLength="0/1"  />
          </VectorParam>
         </Transformer>
         <Parameters>
          <VectorParam id="2637"  name="sourceCrop">
           <InterpolatingParam id="2638" interp="linr"  time="0/1" value="0" leadInLength="0/1"  />
           <InterpolatingParam id="2639" interp="linr"  time="0/1" value="0" leadInLength="0/1"  />
           <InterpolatingParam id="2640" interp="linr"  time="0/1" value="0" leadInLength="0/1"  />
           <InterpolatingParam id="2641" interp="linr"  time="0/1" value="0" leadInLength="0/1"  />
          </VectorParam>
          <VectorParam id="2642"  name="geometryCrop">
           <InterpolatingParam id="2643" interp="linr"  time="-9999999/1" value="0" leadInLength="0/1"  />
           <InterpolatingParam id="2644" interp="linr"  time="-9999999/1" value="0" leadInLength="0/1"  />
           <InterpolatingParam id="2645" interp="linr"  time="-9999999/1" value="0" leadInLength="0/1"  />
           <InterpolatingParam id="2646" interp="linr"  time="-9999999/1" value="0" leadInLength="0/1"  />
          </VectorParam>
          <InterpolatingParam id="2647" interp="linr"  time="-9999999/1" value="1" leadInLength="0/1"  name="opacity"/>
          <InterpolatingParam id="2648" interp="linr"  time="0/1" value="1" leadInLength="0/1"  name="cursorOpacity"/>
          <InterpolatingParam id="2649" interp="linr"  time="0/1" value="1" leadInLength="0/1"  name="cursorScale"/>
          <InterpolatingParam id="2650" interp="linr"  name="volume">
           <Keyframes>
           <Keyframe id="2651"  time="-1/2" value="1" leadInLength="0/1"  />
           <Keyframe id="2652"  time="0/1" value="0" leadInLength="0/1"  />
           </Keyframes>
          </InterpolatingParam>
          <Parameter id="2653"  name="captions"/>
         </Parameters>
         <Attributes>
          <Attribute id="2654" value="" name="ident"/>
          <Attribute id="2655" value="0" name="mixToMono"/>
         </Attributes>
         <MetaData>
          <entry key="WinSubProjectDisplayName" val=""/>
         </MetaData>
         <ExtraData>
          <Entry key="ZoomPanBin">
           <ZoomPanBin id="2656"  >
            <ZoomPanKeyframes>
             <ZoomPanKeyframe id="2657" timeRangeEnd="-9999999/1" timeRangeDuration="0/1" interpolaterName="linr"  />
            </ZoomPanKeyframes>
           </ZoomPanBin>
          </Entry>
          <Entry key="CursorEffectBin">
           <CursorEffectBin id="2658"  >
            <CursorEffectKeyframes>
            </CursorEffectKeyframes>
           </CursorEffectBin>
          </Entry>
         </ExtraData>
         <GenericTrack id="2659"  >
          <Attributes>
           <Attribute id="2660" value="" name="ident"/>
           <Attribute id="2661" value="0" name="audioMuted"/>
           <Attribute id="2662" value="0" name="videoHidden"/>
          </Attributes>
          <MetaData>
           <entry key="IsLocked" val="False"/>
           <entry key="WinTrackHeight" val="0"/>
          </MetaData>
          <Medias>
           <UnifiedMedia id="2663"  >
            <AMFile id="2664" start="0" duration="323" scalar="1/1" mediaStart="0/1" mediaDuration="323/1" trackNumber="1" src="19" channelNumber="0" >
             <Parameters>
              <InterpolatingParam id="2665" interp="linr"  time="0/1" value="1" leadInLength="0/1"  name="volume"/>
              <Parameter id="2666"  name="captions"/>
             </Parameters>
             <Attributes>
              <Attribute id="2667" value="" name="ident"/>
              <Attribute id="2668" value="44100" name="sampleRate"/>
              <Attribute id="2669" value="16" name="bitDepth"/>
              <Attribute id="2670" value="1" name="gain"/>
              <Attribute id="2671" value="0" name="mixToMono"/>
             </Attributes>
            </AMFile>
            <VMFile id="2672" start="0" duration="323" scalar="1/1" mediaStart="0/1" mediaDuration="323/1" trackNumber="0" src="19" >
             <Transformer>
              <VectorParam id="2673"  name="translation">
               <InterpolatingParam id="2674" interp="linr"  time="-9999999/1" value="0" leadInLength="0/1"  />
               <InterpolatingParam id="2675" interp="linr"  time="-9999999/1" value="0" leadInLength="0/1"  />
               <InterpolatingParam id="2676" interp="linr"  time="-9999999/1" value="0" leadInLength="0/1"  />
              </VectorParam>
              <VectorParam id="2677"  name="rotation">
               <InterpolatingParam id="2678" interp="linr"  time="-9999999/1" value="0" leadInLength="0/1"  />
               <InterpolatingParam id="2679" interp="linr"  time="-9999999/1" value="0" leadInLength="0/1"  />
               <InterpolatingParam id="2680" interp="linr"  time="-9999999/1" value="0" leadInLength="0/1"  />
              </VectorParam>
              <VectorParam id="2681"  name="shear">
               <InterpolatingParam id="2682" interp="linr"  time="-9999999/1" value="0" leadInLength="0/1"  />
               <InterpolatingParam id="2683" interp="linr"  time="-9999999/1" value="0" leadInLength="0/1"  />
               <InterpolatingParam id="2684" interp="linr"  time="-9999999/1" value="0" leadInLength="0/1"  />
              </VectorParam>
              <VectorParam id="2685"  name="scale">
               <InterpolatingParam id="2686" interp="linr"  time="-9999999/1" value="1" leadInLength="0/1"  />
               <InterpolatingParam id="2687" interp="linr"  time="-9999999/1" value="1" leadInLength="0/1"  />
               <InterpolatingParam id="2688" interp="linr"  time="-9999999/1" value="1" leadInLength="0/1"  />
              </VectorParam>
              <VectorParam id="2689"  name="anchor">
               <InterpolatingParam id="2690" interp="linr"  time="0/1" value="0" leadInLength="0/1"  />
               <InterpolatingParam id="2691" interp="linr"  time="0/1" value="0" leadInLength="0/1"  />
               <InterpolatingParam id="2692" interp="linr"  time="0/1" value="0" leadInLength="0/1"  />
              </VectorParam>
             </Transformer>
             <Parameters>
              <VectorParam id="2693"  name="sourceCrop">
               <InterpolatingParam id="2694" interp="linr"  time="0/1" value="0" leadInLength="0/1"  />
               <InterpolatingParam id="2695" interp="linr"  time="0/1" value="0" leadInLength="0/1"  />
               <InterpolatingParam id="2696" interp="linr"  time="0/1" value="0" leadInLength="0/1"  />
               <InterpolatingParam id="2697" interp="linr"  time="0/1" value="0" leadInLength="0/1"  />
              </VectorParam>
              <VectorParam id="2698"  name="geometryCrop">
               <InterpolatingParam id="2699" interp="linr"  time="-9999999/1" value="0" leadInLength="0/1"  />
               <InterpolatingParam id="2700" interp="linr"  time="-9999999/1" value="0" leadInLength="0/1"  />
               <InterpolatingParam id="2701" interp="linr"  time="-9999999/1" value="0" leadInLength="0/1"  />
               <InterpolatingParam id="2702" interp="linr"  time="-9999999/1" value="0" leadInLength="0/1"  />
              </VectorParam>
              <InterpolatingParam id="2703" interp="linr"  time="-9999999/1" value="1" leadInLength="0/1"  name="opacity"/>
             </Parameters>
             <Attributes>
              <Attribute id="2704" value="" name="ident"/>
             </Attributes>
             <ExtraData>
              <Entry key="ZoomPanBin">
               <ZoomPanBin id="2705"  >
                <ZoomPanKeyframes>
                </ZoomPanKeyframes>
               </ZoomPanBin>
              </Entry>
             </ExtraData>
            </VMFile>
            <MetaData>
             <entry key="WinSubProjectDisplayName" val=""/>
            </MetaData>
           </UnifiedMedia>
           <UnifiedMedia id="2706"  >
            <AMFile id="2707" start="323" duration="333" scalar="1/1" mediaStart="437/1" mediaDuration="333/1" trackNumber="1" src="19" channelNumber="0" >
             <Parameters>
              <InterpolatingParam id="2708" interp="linr"  time="0/1" value="1" leadInLength="0/1"  name="volume"/>
              <Parameter id="2709"  name="captions"/>
             </Parameters>
             <Attributes>
              <Attribute id="2710" value="" name="ident"/>
              <Attribute id="2711" value="44100" name="sampleRate"/>
              <Attribute id="2712" value="16" name="bitDepth"/>
              <Attribute id="2713" value="1" name="gain"/>
              <Attribute id="2714" value="0" name="mixToMono"/>
             </Attributes>
            </AMFile>
            <VMFile id="2715" start="323" duration="333" scalar="1/1" mediaStart="437/1" mediaDuration="333/1" trackNumber="0" src="19" >
             <Transformer>
              <VectorParam id="2716"  name="translation">
               <InterpolatingParam id="2717" interp="linr"  time="-9999999/1" value="0" leadInLength="0/1"  />
               <InterpolatingParam id="2718" interp="linr"  time="-9999999/1" value="0" leadInLength="0/1"  />
               <InterpolatingParam id="2719" interp="linr"  time="-9999999/1" value="0" leadInLength="0/1"  />
              </VectorParam>
              <VectorParam id="2720"  name="rotation">
               <InterpolatingParam id="2721" interp="linr"  time="-9999999/1" value="0" leadInLength="0/1"  />
               <InterpolatingParam id="2722" interp="linr"  time="-9999999/1" value="0" leadInLength="0/1"  />
               <InterpolatingParam id="2723" interp="linr"  time="-9999999/1" value="0" leadInLength="0/1"  />
              </VectorParam>
              <VectorParam id="2724"  name="shear">
               <InterpolatingParam id="2725" interp="linr"  time="-9999999/1" value="0" leadInLength="0/1"  />
               <InterpolatingParam id="2726" interp="linr"  time="-9999999/1" value="0" leadInLength="0/1"  />
               <InterpolatingParam id="2727" interp="linr"  time="-9999999/1" value="0" leadInLength="0/1"  />
              </VectorParam>
              <VectorParam id="2728"  name="scale">
               <InterpolatingParam id="2729" interp="linr"  time="-9999999/1" value="1" leadInLength="0/1"  />
               <InterpolatingParam id="2730" interp="linr"  time="-9999999/1" value="1" leadInLength="0/1"  />
               <InterpolatingParam id="2731" interp="linr"  time="-9999999/1" value="1" leadInLength="0/1"  />
              </VectorParam>
              <VectorParam id="2732"  name="anchor">
               <InterpolatingParam id="2733" interp="linr"  time="0/1" value="0" leadInLength="0/1"  />
               <InterpolatingParam id="2734" interp="linr"  time="0/1" value="0" leadInLength="0/1"  />
               <InterpolatingParam id="2735" interp="linr"  time="0/1" value="0" leadInLength="0/1"  />
              </VectorParam>
             </Transformer>
             <Parameters>
              <VectorParam id="2736"  name="sourceCrop">
               <InterpolatingParam id="2737" interp="linr"  time="0/1" value="0" leadInLength="0/1"  />
               <InterpolatingParam id="2738" interp="linr"  time="0/1" value="0" leadInLength="0/1"  />
               <InterpolatingParam id="2739" interp="linr"  time="0/1" value="0" leadInLength="0/1"  />
               <InterpolatingParam id="2740" interp="linr"  time="0/1" value="0" leadInLength="0/1"  />
              </VectorParam>
              <VectorParam id="2741"  name="geometryCrop">
               <InterpolatingParam id="2742" interp="linr"  time="-9999999/1" value="0" leadInLength="0/1"  />
               <InterpolatingParam id="2743" interp="linr"  time="-9999999/1" value="0" leadInLength="0/1"  />
               <InterpolatingParam id="2744" interp="linr"  time="-9999999/1" value="0" leadInLength="0/1"  />
               <InterpolatingParam id="2745" interp="linr"  time="-9999999/1" value="0" leadInLength="0/1"  />
              </VectorParam>
              <InterpolatingParam id="2746" interp="linr"  time="-9999999/1" value="1" leadInLength="0/1"  name="opacity"/>
             </Parameters>
             <Attributes>
              <Attribute id="2747" value="" name="ident"/>
             </Attributes>
             <ExtraData>
              <Entry key="ZoomPanBin">
               <ZoomPanBin id="2748"  >
                <ZoomPanKeyframes>
                </ZoomPanKeyframes>
               </ZoomPanBin>
              </Entry>
             </ExtraData>
            </VMFile>
            <MetaData>
             <entry key="WinSubProjectDisplayName" val=""/>
            </MetaData>
           </UnifiedMedia>
          </Medias>
         </GenericTrack>
        </StitchedMedia>
        <UnifiedMedia id="2749"  >
         <AMFile id="2750" start="3913" duration="40" scalar="95/148" mediaStart="622/1" mediaDuration="1184/19" trackNumber="1" src="19" channelNumber="0" >
          <Parameters>
           <InterpolatingParam id="2751" interp="linr"  name="volume">
            <Keyframes>
            <Keyframe id="2752"  time="0/1" value="0" leadInLength="0/1"  />
            <Keyframe id="2753"  time="622/1" value="0" leadInLength="0/1"  />
            <Keyframe id="2754"  time="473696631/616055" value="0" leadInLength="0/1"  />
            <Keyframe id="2755"  time="948009317/1232110" value="1" leadInLength="0/1"  />
            </Keyframes>
           </InterpolatingParam>
           <Parameter id="2756"  name="captions"/>
          </Parameters>
          <Attributes>
           <Attribute id="2757" value="" name="ident"/>
           <Attribute id="2758" value="44100" name="sampleRate"/>
           <Attribute id="2759" value="16" name="bitDepth"/>
           <Attribute id="2760" value="1" name="gain"/>
           <Attribute id="2761" value="0" name="mixToMono"/>
          </Attributes>
         </AMFile>
         <VMFile id="2762" start="3913" duration="40" scalar="95/148" mediaStart="622/1" mediaDuration="1184/19" trackNumber="0" src="19" >
          <Transformer>
           <VectorParam id="2763"  name="translation">
            <InterpolatingParam id="2764" interp="linr"  time="-9999999/1" value="-201.46236559124395" leadInLength="0/1"  interpolater="leadin-linr"  />
            <InterpolatingParam id="2765" interp="linr"  time="-9999999/1" value="49.548387096828996" leadInLength="0/1"  interpolater="leadin-linr"  />
            <InterpolatingParam id="2766" interp="linr"  time="-9999999/1" value="-3.4106051316482886e-010" leadInLength="0/1"  interpolater="leadin-linr"  />
           </VectorParam>
           <VectorParam id="2767"  name="rotation">
            <InterpolatingParam id="2768" interp="linr"  time="-9999999/1" value="0" leadInLength="0/1"  interpolater="leadin-linr"  />
            <InterpolatingParam id="2769" interp="linr"  time="-9999999/1" value="0" leadInLength="0/1"  interpolater="leadin-linr"  />
            <InterpolatingParam id="2770" interp="linr"  time="-9999999/1" value="0" leadInLength="0/1"  interpolater="leadin-linr"  />
           </VectorParam>
           <VectorParam id="2771"  name="shear">
            <InterpolatingParam id="2772" interp="linr"  time="-9999999/1" value="0" leadInLength="0/1"  interpolater="leadin-linr"  />
            <InterpolatingParam id="2773" interp="linr"  time="-9999999/1" value="0" leadInLength="0/1"  interpolater="leadin-linr"  />
            <InterpolatingParam id="2774" interp="linr"  time="-9999999/1" value="0" leadInLength="0/1"  interpolater="leadin-linr"  />
           </VectorParam>
           <VectorParam id="2775"  name="scale">
            <InterpolatingParam id="2776" interp="linr"  time="-9999999/1" value="0.75842293906815683" leadInLength="0/1"  interpolater="leadin-linr"  />
            <InterpolatingParam id="2777" interp="linr"  time="-9999999/1" value="0.75842293906815694" leadInLength="0/1"  interpolater="leadin-linr"  />
            <InterpolatingParam id="2778" interp="linr"  time="-9999999/1" value="1" leadInLength="0/1"  interpolater="leadin-linr"  />
           </VectorParam>
           <VectorParam id="2779"  name="anchor">
            <InterpolatingParam id="2780" interp="linr"  time="0/1" value="0" leadInLength="0/1"  />
            <InterpolatingParam id="2781" interp="linr"  time="0/1" value="0" leadInLength="0/1"  />
            <InterpolatingParam id="2782" interp="linr"  time="0/1" value="0" leadInLength="0/1"  />
           </VectorParam>
          </Transformer>
          <Parameters>
           <VectorParam id="2783"  name="sourceCrop">
            <InterpolatingParam id="2784" interp="linr"  time="0/1" value="0" leadInLength="0/1"  />
            <InterpolatingParam id="2785" interp="linr"  time="0/1" value="0" leadInLength="0/1"  />
            <InterpolatingParam id="2786" interp="linr"  time="0/1" value="0" leadInLength="0/1"  />
            <InterpolatingParam id="2787" interp="linr"  time="0/1" value="0" leadInLength="0/1"  />
           </VectorParam>
           <VectorParam id="2788"  name="geometryCrop">
            <InterpolatingParam id="2789" interp="linr"  time="-9999999/1" value="0" leadInLength="0/1"  interpolater="leadin-linr"  />
            <InterpolatingParam id="2790" interp="linr"  time="-9999999/1" value="0" leadInLength="0/1"  interpolater="leadin-linr"  />
            <InterpolatingParam id="2791" interp="linr"  time="-9999999/1" value="0" leadInLength="0/1"  interpolater="leadin-linr"  />
            <InterpolatingParam id="2792" interp="linr"  time="-9999999/1" value="0" leadInLength="0/1"  interpolater="leadin-linr"  />
           </VectorParam>
           <InterpolatingParam id="2793" interp="linr"  time="-9999999/1" value="1" leadInLength="0/1"  interpolater="leadin-linr"  name="opacity"/>
          </Parameters>
          <Attributes>
           <Attribute id="2794" value="" name="ident"/>
          </Attributes>
          <ExtraData>
           <Entry key="ZoomPanBin">
            <ZoomPanBin id="2795"  >
             <ZoomPanKeyframes>
              <ZoomPanKeyframe id="2796" timeRangeEnd="-9999999/1" timeRangeDuration="0/1" interpolaterName="linr"  />
             </ZoomPanKeyframes>
            </ZoomPanBin>
           </Entry>
          </ExtraData>
         </VMFile>
         <MetaData>
          <entry key="WinSubProjectDisplayName" val=""/>
         </MetaData>
        </UnifiedMedia>
        <StitchedMedia id="2797" start="3953" duration="470" scalar="1905232941297/956408627371" mediaStart="5936537051/10387223" mediaDuration="449512054864370/1905232941297" minMediaStart="0/1" >
         <Transformer>
          <VectorParam id="2798"  name="translation">
           <InterpolatingParam id="2799" interp="linr"  >
            <Keyframes>
            <Keyframe id="2800"  time="-9999999/1" value="-201.46236559124978" leadInLength="0/1"  />
            <Keyframe id="2801"  time="13282270681406123/20957562354267" value="-340.77419354828788" leadInLength="44951205486437/1905232941297"  interpolater="leadin-linr"  />
            </Keyframes>
           </InterpolatingParam>
           <InterpolatingParam id="2802" interp="linr"  >
            <Keyframes>
            <Keyframe id="2803"  time="-9999999/1" value="49.548387096771542" leadInLength="0/1"  />
            <Keyframe id="2804"  time="13282270681406123/20957562354267" value="2.685483870975605" leadInLength="44951205486437/1905232941297"  interpolater="leadin-linr"  />
            </Keyframes>
           </InterpolatingParam>
           <InterpolatingParam id="2805" interp="linr"  >
            <Keyframes>
            <Keyframe id="2806"  time="-9999999/1" value="-3.4106051316482886e-010" leadInLength="0/1"  />
            <Keyframe id="2807"  time="13282270681406123/20957562354267" value="-3.4106051316482886e-010" leadInLength="44951205486437/1905232941297"  interpolater="leadin-linr"  />
            </Keyframes>
           </InterpolatingParam>
          </VectorParam>
          <VectorParam id="2808"  name="rotation">
           <InterpolatingParam id="2809" interp="linr"  >
            <Keyframes>
            <Keyframe id="2810"  time="-9999999/1" value="0" leadInLength="0/1"  />
            <Keyframe id="2811"  time="13282270681406123/20957562354267" value="0" leadInLength="44951205486437/1905232941297"  interpolater="leadin-linr"  />
            </Keyframes>
           </InterpolatingParam>
           <InterpolatingParam id="2812" interp="linr"  >
            <Keyframes>
            <Keyframe id="2813"  time="-9999999/1" value="0" leadInLength="0/1"  />
            <Keyframe id="2814"  time="13282270681406123/20957562354267" value="0" leadInLength="44951205486437/1905232941297"  interpolater="leadin-linr"  />
            </Keyframes>
           </InterpolatingParam>
           <InterpolatingParam id="2815" interp="linr"  >
            <Keyframes>
            <Keyframe id="2816"  time="-9999999/1" value="0" leadInLength="0/1"  />
            <Keyframe id="2817"  time="13282270681406123/20957562354267" value="0" leadInLength="44951205486437/1905232941297"  interpolater="leadin-linr"  />
            </Keyframes>
           </InterpolatingParam>
          </VectorParam>
          <VectorParam id="2818"  name="shear">
           <InterpolatingParam id="2819" interp="linr"  >
            <Keyframes>
            <Keyframe id="2820"  time="-9999999/1" value="0" leadInLength="0/1"  />
            <Keyframe id="2821"  time="13282270681406123/20957562354267" value="0" leadInLength="44951205486437/1905232941297"  interpolater="leadin-linr"  />
            </Keyframes>
           </InterpolatingParam>
           <InterpolatingParam id="2822" interp="linr"  >
            <Keyframes>
            <Keyframe id="2823"  time="-9999999/1" value="0" leadInLength="0/1"  />
            <Keyframe id="2824"  time="13282270681406123/20957562354267" value="0" leadInLength="44951205486437/1905232941297"  interpolater="leadin-linr"  />
            </Keyframes>
           </InterpolatingParam>
           <InterpolatingParam id="2825" interp="linr"  >
            <Keyframes>
            <Keyframe id="2826"  time="-9999999/1" value="0" leadInLength="0/1"  />
            <Keyframe id="2827"  time="13282270681406123/20957562354267" value="0" leadInLength="44951205486437/1905232941297"  interpolater="leadin-linr"  />
            </Keyframes>
           </InterpolatingParam>
          </VectorParam>
          <VectorParam id="2828"  name="scale">
           <InterpolatingParam id="2829" interp="linr"  >
            <Keyframes>
            <Keyframe id="2830"  time="-9999999/1" value="0.75842293906823721" leadInLength="0/1"  />
            <Keyframe id="2831"  time="13282270681406123/20957562354267" value="0.67163978494622667" leadInLength="44951205486437/1905232941297"  interpolater="leadin-linr"  />
            </Keyframes>
           </InterpolatingParam>
           <InterpolatingParam id="2832" interp="linr"  >
            <Keyframes>
            <Keyframe id="2833"  time="-9999999/1" value="0.75842293906823743" leadInLength="0/1"  />
            <Keyframe id="2834"  time="13282270681406123/20957562354267" value="0.67163978494622689" leadInLength="44951205486437/1905232941297"  interpolater="leadin-linr"  />
            </Keyframes>
           </InterpolatingParam>
           <InterpolatingParam id="2835" interp="linr"  >
            <Keyframes>
            <Keyframe id="2836"  time="-9999999/1" value="1" leadInLength="0/1"  />
            <Keyframe id="2837"  time="13282270681406123/20957562354267" value="1" leadInLength="44951205486437/1905232941297"  interpolater="leadin-linr"  />
            </Keyframes>
           </InterpolatingParam>
          </VectorParam>
          <VectorParam id="2838"  name="anchor">
           <InterpolatingParam id="2839" interp="linr"  time="0/1" value="0" leadInLength="0/1"  />
           <InterpolatingParam id="2840" interp="linr"  time="0/1" value="0" leadInLength="0/1"  />
           <InterpolatingParam id="2841" interp="linr"  time="0/1" value="0" leadInLength="0/1"  />
          </VectorParam>
         </Transformer>
         <Parameters>
          <VectorParam id="2842"  name="sourceCrop">
           <InterpolatingParam id="2843" interp="linr"  time="0/1" value="0" leadInLength="0/1"  />
           <InterpolatingParam id="2844" interp="linr"  time="0/1" value="0" leadInLength="0/1"  />
           <InterpolatingParam id="2845" interp="linr"  time="0/1" value="0" leadInLength="0/1"  />
           <InterpolatingParam id="2846" interp="linr"  time="0/1" value="0" leadInLength="0/1"  />
          </VectorParam>
          <VectorParam id="2847"  name="geometryCrop">
           <InterpolatingParam id="2848" interp="linr"  >
            <Keyframes>
            <Keyframe id="2849"  time="-9999999/1" value="0" leadInLength="0/1"  />
            <Keyframe id="2850"  time="13282270681406123/20957562354267" value="0" leadInLength="44951205486437/1905232941297"  interpolater="leadin-linr"  />
            </Keyframes>
           </InterpolatingParam>
           <InterpolatingParam id="2851" interp="linr"  >
            <Keyframes>
            <Keyframe id="2852"  time="-9999999/1" value="0" leadInLength="0/1"  />
            <Keyframe id="2853"  time="13282270681406123/20957562354267" value="0" leadInLength="44951205486437/1905232941297"  interpolater="leadin-linr"  />
            </Keyframes>
           </InterpolatingParam>
           <InterpolatingParam id="2854" interp="linr"  >
            <Keyframes>
            <Keyframe id="2855"  time="-9999999/1" value="0" leadInLength="0/1"  />
            <Keyframe id="2856"  time="13282270681406123/20957562354267" value="0" leadInLength="44951205486437/1905232941297"  interpolater="leadin-linr"  />
            </Keyframes>
           </InterpolatingParam>
           <InterpolatingParam id="2857" interp="linr"  >
            <Keyframes>
            <Keyframe id="2858"  time="-9999999/1" value="0" leadInLength="0/1"  />
            <Keyframe id="2859"  time="13282270681406123/20957562354267" value="0" leadInLength="44951205486437/1905232941297"  interpolater="leadin-linr"  />
            </Keyframes>
           </InterpolatingParam>
          </VectorParam>
          <InterpolatingParam id="2860" interp="linr"  name="opacity">
           <Keyframes>
           <Keyframe id="2861"  time="-9999999/1" value="1" leadInLength="0/1"  />
           <Keyframe id="2862"  time="13282270681406123/20957562354267" value="1" leadInLength="44951205486437/1905232941297"  interpolater="leadin-linr"  />
           </Keyframes>
          </InterpolatingParam>
          <InterpolatingParam id="2863" interp="linr"  time="0/1" value="1" leadInLength="0/1"  name="cursorOpacity"/>
          <InterpolatingParam id="2864" interp="linr"  time="0/1" value="1" leadInLength="0/1"  name="cursorScale"/>
          <InterpolatingParam id="2865" interp="linr"  name="volume">
           <Keyframes>
           <Keyframe id="2866"  time="-1/2" value="1" leadInLength="0/1"  />
           <Keyframe id="2867"  time="0/1" value="0" leadInLength="0/1"  />
           <Keyframe id="2868"  time="404698471/616055" value="0" leadInLength="0/1"  />
           <Keyframe id="2869"  time="80565695565830/122558844177" value="0" leadInLength="0/1"  />
           <Keyframe id="2870"  time="422663134927997/635077647099" value="0" leadInLength="0/1"  />
           <Keyframe id="2871"  time="151654406505664/204264740295" value="0" leadInLength="0/1"  />
           <Keyframe id="2872"  time="91086190466911/122558844177" value="0" leadInLength="0/1"  />
           <Keyframe id="2873"  time="45425829348365/60483585438" value="0" leadInLength="0/1"  />
           <Keyframe id="2874"  time="7353188942623/8881075665" value="0" leadInLength="0/1"  />
           <Keyframe id="2875"  time="14715258960911/17762151330" value="1" leadInLength="0/1"  />
           </Keyframes>
          </InterpolatingParam>
          <Parameter id="2876"  name="captions"/>
         </Parameters>
         <Attributes>
          <Attribute id="2877" value="" name="ident"/>
          <Attribute id="2878" value="0" name="mixToMono"/>
         </Attributes>
         <MetaData>
          <entry key="WinSubProjectDisplayName" val=""/>
         </MetaData>
         <ExtraData>
          <Entry key="ZoomPanBin">
           <ZoomPanBin id="2879"  >
            <ZoomPanKeyframes>
             <ZoomPanKeyframe id="2880" timeRangeEnd="-9999999/1" timeRangeDuration="0/1" interpolaterName="linr"  />
             <ZoomPanKeyframe id="2881" timeRangeEnd="13282270681406123/20957562354267" timeRangeDuration="44951205486437/1905232941297" interpolaterName="linr"  />
            </ZoomPanKeyframes>
           </ZoomPanBin>
          </Entry>
          <Entry key="CursorEffectBin">
           <CursorEffectBin id="2882"  >
            <CursorEffectKeyframes>
            </CursorEffectKeyframes>
           </CursorEffectBin>
          </Entry>
         </ExtraData>
         <GenericTrack id="2883"  >
          <Attributes>
           <Attribute id="2884" value="" name="ident"/>
           <Attribute id="2885" value="0" name="audioMuted"/>
           <Attribute id="2886" value="0" name="videoHidden"/>
          </Attributes>
          <MetaData>
           <entry key="IsLocked" val="False"/>
           <entry key="WinTrackHeight" val="0"/>
          </MetaData>
          <Medias>
           <UnifiedMedia id="2887"  >
            <AMFile id="2888" start="0" duration="323" scalar="1/1" mediaStart="0/1" mediaDuration="323/1" trackNumber="1" src="19" channelNumber="0" >
             <Parameters>
              <InterpolatingParam id="2889" interp="linr"  time="0/1" value="1" leadInLength="0/1"  name="volume"/>
              <Parameter id="2890"  name="captions"/>
             </Parameters>
             <Attributes>
              <Attribute id="2891" value="" name="ident"/>
              <Attribute id="2892" value="44100" name="sampleRate"/>
              <Attribute id="2893" value="16" name="bitDepth"/>
              <Attribute id="2894" value="1" name="gain"/>
              <Attribute id="2895" value="0" name="mixToMono"/>
             </Attributes>
            </AMFile>
            <VMFile id="2896" start="0" duration="323" scalar="1/1" mediaStart="0/1" mediaDuration="323/1" trackNumber="0" src="19" >
             <Transformer>
              <VectorParam id="2897"  name="translation">
               <InterpolatingParam id="2898" interp="linr"  time="-9999999/1" value="0" leadInLength="0/1"  />
               <InterpolatingParam id="2899" interp="linr"  time="-9999999/1" value="0" leadInLength="0/1"  />
               <InterpolatingParam id="2900" interp="linr"  time="-9999999/1" value="0" leadInLength="0/1"  />
              </VectorParam>
              <VectorParam id="2901"  name="rotation">
               <InterpolatingParam id="2902" interp="linr"  time="-9999999/1" value="0" leadInLength="0/1"  />
               <InterpolatingParam id="2903" interp="linr"  time="-9999999/1" value="0" leadInLength="0/1"  />
               <InterpolatingParam id="2904" interp="linr"  time="-9999999/1" value="0" leadInLength="0/1"  />
              </VectorParam>
              <VectorParam id="2905"  name="shear">
               <InterpolatingParam id="2906" interp="linr"  time="-9999999/1" value="0" leadInLength="0/1"  />
               <InterpolatingParam id="2907" interp="linr"  time="-9999999/1" value="0" leadInLength="0/1"  />
               <InterpolatingParam id="2908" interp="linr"  time="-9999999/1" value="0" leadInLength="0/1"  />
              </VectorParam>
              <VectorParam id="2909"  name="scale">
               <InterpolatingParam id="2910" interp="linr"  time="-9999999/1" value="1" leadInLength="0/1"  />
               <InterpolatingParam id="2911" interp="linr"  time="-9999999/1" value="1" leadInLength="0/1"  />
               <InterpolatingParam id="2912" interp="linr"  time="-9999999/1" value="1" leadInLength="0/1"  />
              </VectorParam>
              <VectorParam id="2913"  name="anchor">
               <InterpolatingParam id="2914" interp="linr"  time="0/1" value="0" leadInLength="0/1"  />
               <InterpolatingParam id="2915" interp="linr"  time="0/1" value="0" leadInLength="0/1"  />
               <InterpolatingParam id="2916" interp="linr"  time="0/1" value="0" leadInLength="0/1"  />
              </VectorParam>
             </Transformer>
             <Parameters>
              <VectorParam id="2917"  name="sourceCrop">
               <InterpolatingParam id="2918" interp="linr"  time="0/1" value="0" leadInLength="0/1"  />
               <InterpolatingParam id="2919" interp="linr"  time="0/1" value="0" leadInLength="0/1"  />
               <InterpolatingParam id="2920" interp="linr"  time="0/1" value="0" leadInLength="0/1"  />
               <InterpolatingParam id="2921" interp="linr"  time="0/1" value="0" leadInLength="0/1"  />
              </VectorParam>
              <VectorParam id="2922"  name="geometryCrop">
               <InterpolatingParam id="2923" interp="linr"  time="-9999999/1" value="0" leadInLength="0/1"  />
               <InterpolatingParam id="2924" interp="linr"  time="-9999999/1" value="0" leadInLength="0/1"  />
               <InterpolatingParam id="2925" interp="linr"  time="-9999999/1" value="0" leadInLength="0/1"  />
               <InterpolatingParam id="2926" interp="linr"  time="-9999999/1" value="0" leadInLength="0/1"  />
              </VectorParam>
              <InterpolatingParam id="2927" interp="linr"  time="-9999999/1" value="1" leadInLength="0/1"  name="opacity"/>
             </Parameters>
             <Attributes>
              <Attribute id="2928" value="" name="ident"/>
             </Attributes>
             <ExtraData>
              <Entry key="ZoomPanBin">
               <ZoomPanBin id="2929"  >
                <ZoomPanKeyframes>
                 <ZoomPanKeyframe id="2930" timeRangeEnd="-9999999/1" timeRangeDuration="0/1" interpolaterName="linr"  />
                </ZoomPanKeyframes>
               </ZoomPanBin>
              </Entry>
             </ExtraData>
            </VMFile>
            <MetaData>
             <entry key="WinSubProjectDisplayName" val=""/>
            </MetaData>
           </UnifiedMedia>
           <UnifiedMedia id="2931"  >
            <AMFile id="2932" start="323" duration="187" scalar="1/1" mediaStart="437/1" mediaDuration="187/1" trackNumber="1" src="19" channelNumber="0" >
             <Parameters>
              <InterpolatingParam id="2933" interp="linr"  time="0/1" value="1" leadInLength="0/1"  name="volume"/>
              <Parameter id="2934"  name="captions"/>
             </Parameters>
             <Attributes>
              <Attribute id="2935" value="" name="ident"/>
              <Attribute id="2936" value="44100" name="sampleRate"/>
              <Attribute id="2937" value="16" name="bitDepth"/>
              <Attribute id="2938" value="1" name="gain"/>
              <Attribute id="2939" value="0" name="mixToMono"/>
             </Attributes>
            </AMFile>
            <VMFile id="2940" start="323" duration="187" scalar="1/1" mediaStart="437/1" mediaDuration="187/1" trackNumber="0" src="19" >
             <Transformer>
              <VectorParam id="2941"  name="translation">
               <InterpolatingParam id="2942" interp="linr"  time="-9999999/1" value="0" leadInLength="0/1"  />
               <InterpolatingParam id="2943" interp="linr"  time="-9999999/1" value="0" leadInLength="0/1"  />
               <InterpolatingParam id="2944" interp="linr"  time="-9999999/1" value="0" leadInLength="0/1"  />
              </VectorParam>
              <VectorParam id="2945"  name="rotation">
               <InterpolatingParam id="2946" interp="linr"  time="-9999999/1" value="0" leadInLength="0/1"  />
               <InterpolatingParam id="2947" interp="linr"  time="-9999999/1" value="0" leadInLength="0/1"  />
               <InterpolatingParam id="2948" interp="linr"  time="-9999999/1" value="0" leadInLength="0/1"  />
              </VectorParam>
              <VectorParam id="2949"  name="shear">
               <InterpolatingParam id="2950" interp="linr"  time="-9999999/1" value="0" leadInLength="0/1"  />
               <InterpolatingParam id="2951" interp="linr"  time="-9999999/1" value="0" leadInLength="0/1"  />
               <InterpolatingParam id="2952" interp="linr"  time="-9999999/1" value="0" leadInLength="0/1"  />
              </VectorParam>
              <VectorParam id="2953"  name="scale">
               <InterpolatingParam id="2954" interp="linr"  time="-9999999/1" value="1" leadInLength="0/1"  />
               <InterpolatingParam id="2955" interp="linr"  time="-9999999/1" value="1" leadInLength="0/1"  />
               <InterpolatingParam id="2956" interp="linr"  time="-9999999/1" value="1" leadInLength="0/1"  />
              </VectorParam>
              <VectorParam id="2957"  name="anchor">
               <InterpolatingParam id="2958" interp="linr"  time="0/1" value="0" leadInLength="0/1"  />
               <InterpolatingParam id="2959" interp="linr"  time="0/1" value="0" leadInLength="0/1"  />
               <InterpolatingParam id="2960" interp="linr"  time="0/1" value="0" leadInLength="0/1"  />
              </VectorParam>
             </Transformer>
             <Parameters>
              <VectorParam id="2961"  name="sourceCrop">
               <InterpolatingParam id="2962" interp="linr"  time="0/1" value="0" leadInLength="0/1"  />
               <InterpolatingParam id="2963" interp="linr"  time="0/1" value="0" leadInLength="0/1"  />
               <InterpolatingParam id="2964" interp="linr"  time="0/1" value="0" leadInLength="0/1"  />
               <InterpolatingParam id="2965" interp="linr"  time="0/1" value="0" leadInLength="0/1"  />
              </VectorParam>
              <VectorParam id="2966"  name="geometryCrop">
               <InterpolatingParam id="2967" interp="linr"  time="-9999999/1" value="0" leadInLength="0/1"  />
               <InterpolatingParam id="2968" interp="linr"  time="-9999999/1" value="0" leadInLength="0/1"  />
               <InterpolatingParam id="2969" interp="linr"  time="-9999999/1" value="0" leadInLength="0/1"  />
               <InterpolatingParam id="2970" interp="linr"  time="-9999999/1" value="0" leadInLength="0/1"  />
              </VectorParam>
              <InterpolatingParam id="2971" interp="linr"  time="-9999999/1" value="1" leadInLength="0/1"  name="opacity"/>
             </Parameters>
             <Attributes>
              <Attribute id="2972" value="" name="ident"/>
             </Attributes>
             <ExtraData>
              <Entry key="ZoomPanBin">
               <ZoomPanBin id="2973"  >
                <ZoomPanKeyframes>
                 <ZoomPanKeyframe id="2974" timeRangeEnd="-9999999/1" timeRangeDuration="0/1" interpolaterName="linr"  />
                </ZoomPanKeyframes>
               </ZoomPanBin>
              </Entry>
             </ExtraData>
            </VMFile>
            <MetaData>
             <entry key="WinSubProjectDisplayName" val=""/>
            </MetaData>
           </UnifiedMedia>
           <UnifiedMedia id="2975"  >
            <AMFile id="2976" start="510" duration="148" scalar="1/1" mediaStart="622/1" mediaDuration="148/1" trackNumber="1" src="19" channelNumber="0" >
             <Parameters>
              <InterpolatingParam id="2977" interp="linr"  time="0/1" value="1" leadInLength="0/1"  name="volume"/>
              <Parameter id="2978"  name="captions"/>
             </Parameters>
             <Attributes>
              <Attribute id="2979" value="" name="ident"/>
              <Attribute id="2980" value="44100" name="sampleRate"/>
              <Attribute id="2981" value="16" name="bitDepth"/>
              <Attribute id="2982" value="1" name="gain"/>
              <Attribute id="2983" value="0" name="mixToMono"/>
             </Attributes>
            </AMFile>
            <VMFile id="2984" start="510" duration="148" scalar="1/1" mediaStart="622/1" mediaDuration="148/1" trackNumber="0" src="19" >
             <Transformer>
              <VectorParam id="2985"  name="translation">
               <InterpolatingParam id="2986" interp="linr"  time="-9999999/1" value="0" leadInLength="0/1"  />
               <InterpolatingParam id="2987" interp="linr"  time="-9999999/1" value="0" leadInLength="0/1"  />
               <InterpolatingParam id="2988" interp="linr"  time="-9999999/1" value="0" leadInLength="0/1"  />
              </VectorParam>
              <VectorParam id="2989"  name="rotation">
               <InterpolatingParam id="2990" interp="linr"  time="-9999999/1" value="0" leadInLength="0/1"  />
               <InterpolatingParam id="2991" interp="linr"  time="-9999999/1" value="0" leadInLength="0/1"  />
               <InterpolatingParam id="2992" interp="linr"  time="-9999999/1" value="0" leadInLength="0/1"  />
              </VectorParam>
              <VectorParam id="2993"  name="shear">
               <InterpolatingParam id="2994" interp="linr"  time="-9999999/1" value="0" leadInLength="0/1"  />
               <InterpolatingParam id="2995" interp="linr"  time="-9999999/1" value="0" leadInLength="0/1"  />
               <InterpolatingParam id="2996" interp="linr"  time="-9999999/1" value="0" leadInLength="0/1"  />
              </VectorParam>
              <VectorParam id="2997"  name="scale">
               <InterpolatingParam id="2998" interp="linr"  time="-9999999/1" value="1" leadInLength="0/1"  />
               <InterpolatingParam id="2999" interp="linr"  time="-9999999/1" value="1" leadInLength="0/1"  />
               <InterpolatingParam id="3000" interp="linr"  time="-9999999/1" value="1" leadInLength="0/1"  />
              </VectorParam>
              <VectorParam id="3001"  name="anchor">
               <InterpolatingParam id="3002" interp="linr"  time="0/1" value="0" leadInLength="0/1"  />
               <InterpolatingParam id="3003" interp="linr"  time="0/1" value="0" leadInLength="0/1"  />
               <InterpolatingParam id="3004" interp="linr"  time="0/1" value="0" leadInLength="0/1"  />
              </VectorParam>
             </Transformer>
             <Parameters>
              <VectorParam id="3005"  name="sourceCrop">
               <InterpolatingParam id="3006" interp="linr"  time="0/1" value="0" leadInLength="0/1"  />
               <InterpolatingParam id="3007" interp="linr"  time="0/1" value="0" leadInLength="0/1"  />
               <InterpolatingParam id="3008" interp="linr"  time="0/1" value="0" leadInLength="0/1"  />
               <InterpolatingParam id="3009" interp="linr"  time="0/1" value="0" leadInLength="0/1"  />
              </VectorParam>
              <VectorParam id="3010"  name="geometryCrop">
               <InterpolatingParam id="3011" interp="linr"  time="-9999999/1" value="0" leadInLength="0/1"  />
               <InterpolatingParam id="3012" interp="linr"  time="-9999999/1" value="0" leadInLength="0/1"  />
               <InterpolatingParam id="3013" interp="linr"  time="-9999999/1" value="0" leadInLength="0/1"  />
               <InterpolatingParam id="3014" interp="linr"  time="-9999999/1" value="0" leadInLength="0/1"  />
              </VectorParam>
              <InterpolatingParam id="3015" interp="linr"  time="-9999999/1" value="1" leadInLength="0/1"  name="opacity"/>
             </Parameters>
             <Attributes>
              <Attribute id="3016" value="" name="ident"/>
             </Attributes>
             <ExtraData>
              <Entry key="ZoomPanBin">
               <ZoomPanBin id="3017"  >
                <ZoomPanKeyframes>
                 <ZoomPanKeyframe id="3018" timeRangeEnd="-9999999/1" timeRangeDuration="0/1" interpolaterName="linr"  />
                </ZoomPanKeyframes>
               </ZoomPanBin>
              </Entry>
             </ExtraData>
            </VMFile>
            <MetaData>
             <entry key="WinSubProjectDisplayName" val=""/>
            </MetaData>
           </UnifiedMedia>
           <UnifiedMedia id="3019"  >
            <AMFile id="3020" start="658" duration="87" scalar="1/1" mediaStart="683/1" mediaDuration="87/1" trackNumber="1" src="19" channelNumber="0" >
             <Parameters>
              <InterpolatingParam id="3021" interp="linr"  time="0/1" value="1" leadInLength="0/1"  name="volume"/>
              <Parameter id="3022"  name="captions"/>
             </Parameters>
             <Attributes>
              <Attribute id="3023" value="" name="ident"/>
              <Attribute id="3024" value="44100" name="sampleRate"/>
              <Attribute id="3025" value="16" name="bitDepth"/>
              <Attribute id="3026" value="1" name="gain"/>
              <Attribute id="3027" value="0" name="mixToMono"/>
             </Attributes>
            </AMFile>
            <VMFile id="3028" start="658" duration="87" scalar="1/1" mediaStart="683/1" mediaDuration="87/1" trackNumber="0" src="19" >
             <Transformer>
              <VectorParam id="3029"  name="translation">
               <InterpolatingParam id="3030" interp="linr"  time="-9999999/1" value="0" leadInLength="0/1"  />
               <InterpolatingParam id="3031" interp="linr"  time="-9999999/1" value="0" leadInLength="0/1"  />
               <InterpolatingParam id="3032" interp="linr"  time="-9999999/1" value="0" leadInLength="0/1"  />
              </VectorParam>
              <VectorParam id="3033"  name="rotation">
               <InterpolatingParam id="3034" interp="linr"  time="-9999999/1" value="0" leadInLength="0/1"  />
               <InterpolatingParam id="3035" interp="linr"  time="-9999999/1" value="0" leadInLength="0/1"  />
               <InterpolatingParam id="3036" interp="linr"  time="-9999999/1" value="0" leadInLength="0/1"  />
              </VectorParam>
              <VectorParam id="3037"  name="shear">
               <InterpolatingParam id="3038" interp="linr"  time="-9999999/1" value="0" leadInLength="0/1"  />
               <InterpolatingParam id="3039" interp="linr"  time="-9999999/1" value="0" leadInLength="0/1"  />
               <InterpolatingParam id="3040" interp="linr"  time="-9999999/1" value="0" leadInLength="0/1"  />
              </VectorParam>
              <VectorParam id="3041"  name="scale">
               <InterpolatingParam id="3042" interp="linr"  time="-9999999/1" value="1" leadInLength="0/1"  />
               <InterpolatingParam id="3043" interp="linr"  time="-9999999/1" value="1" leadInLength="0/1"  />
               <InterpolatingParam id="3044" interp="linr"  time="-9999999/1" value="1" leadInLength="0/1"  />
              </VectorParam>
              <VectorParam id="3045"  name="anchor">
               <InterpolatingParam id="3046" interp="linr"  time="0/1" value="0" leadInLength="0/1"  />
               <InterpolatingParam id="3047" interp="linr"  time="0/1" value="0" leadInLength="0/1"  />
               <InterpolatingParam id="3048" interp="linr"  time="0/1" value="0" leadInLength="0/1"  />
              </VectorParam>
             </Transformer>
             <Parameters>
              <VectorParam id="3049"  name="sourceCrop">
               <InterpolatingParam id="3050" interp="linr"  time="0/1" value="0" leadInLength="0/1"  />
               <InterpolatingParam id="3051" interp="linr"  time="0/1" value="0" leadInLength="0/1"  />
               <InterpolatingParam id="3052" interp="linr"  time="0/1" value="0" leadInLength="0/1"  />
               <InterpolatingParam id="3053" interp="linr"  time="0/1" value="0" leadInLength="0/1"  />
              </VectorParam>
              <VectorParam id="3054"  name="geometryCrop">
               <InterpolatingParam id="3055" interp="linr"  time="-9999999/1" value="0" leadInLength="0/1"  />
               <InterpolatingParam id="3056" interp="linr"  time="-9999999/1" value="0" leadInLength="0/1"  />
               <InterpolatingParam id="3057" interp="linr"  time="-9999999/1" value="0" leadInLength="0/1"  />
               <InterpolatingParam id="3058" interp="linr"  time="-9999999/1" value="0" leadInLength="0/1"  />
              </VectorParam>
              <InterpolatingParam id="3059" interp="linr"  time="-9999999/1" value="1" leadInLength="0/1"  name="opacity"/>
             </Parameters>
             <Attributes>
              <Attribute id="3060" value="" name="ident"/>
             </Attributes>
             <ExtraData>
              <Entry key="ZoomPanBin">
               <ZoomPanBin id="3061"  >
                <ZoomPanKeyframes>
                 <ZoomPanKeyframe id="3062" timeRangeEnd="-9999999/1" timeRangeDuration="0/1" interpolaterName="linr"  />
                </ZoomPanKeyframes>
               </ZoomPanBin>
              </Entry>
             </ExtraData>
            </VMFile>
            <MetaData>
             <entry key="WinSubProjectDisplayName" val=""/>
            </MetaData>
           </UnifiedMedia>
           <UnifiedMedia id="3063"  >
            <AMFile id="3064" start="745" duration="87" scalar="1/1" mediaStart="683/1" mediaDuration="87/1" trackNumber="1" src="19" channelNumber="0" >
             <Parameters>
              <InterpolatingParam id="3065" interp="linr"  time="0/1" value="1" leadInLength="0/1"  name="volume"/>
              <Parameter id="3066"  name="captions"/>
             </Parameters>
             <Attributes>
              <Attribute id="3067" value="" name="ident"/>
              <Attribute id="3068" value="44100" name="sampleRate"/>
              <Attribute id="3069" value="16" name="bitDepth"/>
              <Attribute id="3070" value="1" name="gain"/>
              <Attribute id="3071" value="0" name="mixToMono"/>
             </Attributes>
            </AMFile>
            <VMFile id="3072" start="745" duration="87" scalar="1/1" mediaStart="683/1" mediaDuration="87/1" trackNumber="0" src="19" >
             <Transformer>
              <VectorParam id="3073"  name="translation">
               <InterpolatingParam id="3074" interp="linr"  time="-9999999/1" value="0" leadInLength="0/1"  />
               <InterpolatingParam id="3075" interp="linr"  time="-9999999/1" value="0" leadInLength="0/1"  />
               <InterpolatingParam id="3076" interp="linr"  time="-9999999/1" value="0" leadInLength="0/1"  />
              </VectorParam>
              <VectorParam id="3077"  name="rotation">
               <InterpolatingParam id="3078" interp="linr"  time="-9999999/1" value="0" leadInLength="0/1"  />
               <InterpolatingParam id="3079" interp="linr"  time="-9999999/1" value="0" leadInLength="0/1"  />
               <InterpolatingParam id="3080" interp="linr"  time="-9999999/1" value="0" leadInLength="0/1"  />
              </VectorParam>
              <VectorParam id="3081"  name="shear">
               <InterpolatingParam id="3082" interp="linr"  time="-9999999/1" value="0" leadInLength="0/1"  />
               <InterpolatingParam id="3083" interp="linr"  time="-9999999/1" value="0" leadInLength="0/1"  />
               <InterpolatingParam id="3084" interp="linr"  time="-9999999/1" value="0" leadInLength="0/1"  />
              </VectorParam>
              <VectorParam id="3085"  name="scale">
               <InterpolatingParam id="3086" interp="linr"  time="-9999999/1" value="1" leadInLength="0/1"  />
               <InterpolatingParam id="3087" interp="linr"  time="-9999999/1" value="1" leadInLength="0/1"  />
               <InterpolatingParam id="3088" interp="linr"  time="-9999999/1" value="1" leadInLength="0/1"  />
              </VectorParam>
              <VectorParam id="3089"  name="anchor">
               <InterpolatingParam id="3090" interp="linr"  time="0/1" value="0" leadInLength="0/1"  />
               <InterpolatingParam id="3091" interp="linr"  time="0/1" value="0" leadInLength="0/1"  />
               <InterpolatingParam id="3092" interp="linr"  time="0/1" value="0" leadInLength="0/1"  />
              </VectorParam>
             </Transformer>
             <Parameters>
              <VectorParam id="3093"  name="sourceCrop">
               <InterpolatingParam id="3094" interp="linr"  time="0/1" value="0" leadInLength="0/1"  />
               <InterpolatingParam id="3095" interp="linr"  time="0/1" value="0" leadInLength="0/1"  />
               <InterpolatingParam id="3096" interp="linr"  time="0/1" value="0" leadInLength="0/1"  />
               <InterpolatingParam id="3097" interp="linr"  time="0/1" value="0" leadInLength="0/1"  />
              </VectorParam>
              <VectorParam id="3098"  name="geometryCrop">
               <InterpolatingParam id="3099" interp="linr"  time="-9999999/1" value="0" leadInLength="0/1"  />
               <InterpolatingParam id="3100" interp="linr"  time="-9999999/1" value="0" leadInLength="0/1"  />
               <InterpolatingParam id="3101" interp="linr"  time="-9999999/1" value="0" leadInLength="0/1"  />
               <InterpolatingParam id="3102" interp="linr"  time="-9999999/1" value="0" leadInLength="0/1"  />
              </VectorParam>
              <InterpolatingParam id="3103" interp="linr"  time="-9999999/1" value="1" leadInLength="0/1"  name="opacity"/>
             </Parameters>
             <Attributes>
              <Attribute id="3104" value="" name="ident"/>
             </Attributes>
             <ExtraData>
              <Entry key="ZoomPanBin">
               <ZoomPanBin id="3105"  >
                <ZoomPanKeyframes>
                 <ZoomPanKeyframe id="3106" timeRangeEnd="-9999999/1" timeRangeDuration="0/1" interpolaterName="linr"  />
                </ZoomPanKeyframes>
               </ZoomPanBin>
              </Entry>
             </ExtraData>
            </VMFile>
            <MetaData>
             <entry key="WinSubProjectDisplayName" val=""/>
            </MetaData>
           </UnifiedMedia>
          </Medias>
         </GenericTrack>
        </StitchedMedia>
        <StitchedMedia id="3107" start="4423" duration="80" scalar="10027/6846" mediaStart="0/1" mediaDuration="547680/10027" minMediaStart="0/1" >
         <Transformer>
          <VectorParam id="3108"  name="translation">
           <InterpolatingParam id="3109" interp="linr"  >
            <Keyframes>
            <Keyframe id="3110"  time="-9999999/1" value="-342.55555555560295" leadInLength="0/1"  />
            <Keyframe id="3111"  time="451836/10027" value="-272.77777777791243" leadInLength="171150/10027"  interpolater="leadin-linr"  />
            </Keyframes>
           </InterpolatingParam>
           <InterpolatingParam id="3112" interp="linr"  >
            <Keyframes>
            <Keyframe id="3113"  time="-9999999/1" value="1.9374999999622275" leadInLength="0/1"  />
            <Keyframe id="3114"  time="451836/10027" value="69.312500000292061" leadInLength="171150/10027"  interpolater="leadin-linr"  />
            </Keyframes>
           </InterpolatingParam>
           <InterpolatingParam id="3115" interp="linr"  >
            <Keyframes>
            <Keyframe id="3116"  time="-9999999/1" value="-3.4106051316482901e-010" leadInLength="0/1"  />
            <Keyframe id="3117"  time="451836/10027" value="-3.4106051316482906e-010" leadInLength="171150/10027"  interpolater="leadin-linr"  />
            </Keyframes>
           </InterpolatingParam>
          </VectorParam>
          <VectorParam id="3118"  name="rotation">
           <InterpolatingParam id="3119" interp="linr"  >
            <Keyframes>
            <Keyframe id="3120"  time="-9999999/1" value="0" leadInLength="0/1"  />
            <Keyframe id="3121"  time="451836/10027" value="0" leadInLength="171150/10027"  interpolater="leadin-linr"  />
            </Keyframes>
           </InterpolatingParam>
           <InterpolatingParam id="3122" interp="linr"  >
            <Keyframes>
            <Keyframe id="3123"  time="-9999999/1" value="0" leadInLength="0/1"  />
            <Keyframe id="3124"  time="451836/10027" value="0" leadInLength="171150/10027"  interpolater="leadin-linr"  />
            </Keyframes>
           </InterpolatingParam>
           <InterpolatingParam id="3125" interp="linr"  >
            <Keyframes>
            <Keyframe id="3126"  time="-9999999/1" value="0" leadInLength="0/1"  />
            <Keyframe id="3127"  time="451836/10027" value="0" leadInLength="171150/10027"  interpolater="leadin-linr"  />
            </Keyframes>
           </InterpolatingParam>
          </VectorParam>
          <VectorParam id="3128"  name="shear">
           <InterpolatingParam id="3129" interp="linr"  >
            <Keyframes>
            <Keyframe id="3130"  time="-9999999/1" value="0" leadInLength="0/1"  />
            <Keyframe id="3131"  time="451836/10027" value="0" leadInLength="171150/10027"  interpolater="leadin-linr"  />
            </Keyframes>
           </InterpolatingParam>
           <InterpolatingParam id="3132" interp="linr"  >
            <Keyframes>
            <Keyframe id="3133"  time="-9999999/1" value="0" leadInLength="0/1"  />
            <Keyframe id="3134"  time="451836/10027" value="0" leadInLength="171150/10027"  interpolater="leadin-linr"  />
            </Keyframes>
           </InterpolatingParam>
           <InterpolatingParam id="3135" interp="linr"  >
            <Keyframes>
            <Keyframe id="3136"  time="-9999999/1" value="0" leadInLength="0/1"  />
            <Keyframe id="3137"  time="451836/10027" value="0" leadInLength="171150/10027"  interpolater="leadin-linr"  />
            </Keyframes>
           </InterpolatingParam>
          </VectorParam>
          <VectorParam id="3138"  name="scale">
           <InterpolatingParam id="3139" interp="linr"  >
            <Keyframes>
            <Keyframe id="3140"  time="-9999999/1" value="0.67025462962959093" leadInLength="0/1"  />
            <Keyframe id="3141"  time="451836/10027" value="0.7950231481482789" leadInLength="171150/10027"  interpolater="leadin-linr"  />
            </Keyframes>
           </InterpolatingParam>
           <InterpolatingParam id="3142" interp="linr"  >
            <Keyframes>
            <Keyframe id="3143"  time="-9999999/1" value="0.67025462962959115" leadInLength="0/1"  />
            <Keyframe id="3144"  time="451836/10027" value="0.79502314814827935" leadInLength="171150/10027"  interpolater="leadin-linr"  />
            </Keyframes>
           </InterpolatingParam>
           <InterpolatingParam id="3145" interp="linr"  >
            <Keyframes>
            <Keyframe id="3146"  time="-9999999/1" value="1" leadInLength="0/1"  />
            <Keyframe id="3147"  time="451836/10027" value="1" leadInLength="171150/10027"  interpolater="leadin-linr"  />
            </Keyframes>
           </InterpolatingParam>
          </VectorParam>
          <VectorParam id="3148"  name="anchor">
           <InterpolatingParam id="3149" interp="linr"  time="0/1" value="0" leadInLength="0/1"  />
           <InterpolatingParam id="3150" interp="linr"  time="0/1" value="0" leadInLength="0/1"  />
           <InterpolatingParam id="3151" interp="linr"  time="0/1" value="0" leadInLength="0/1"  />
          </VectorParam>
         </Transformer>
         <Parameters>
          <VectorParam id="3152"  name="sourceCrop">
           <InterpolatingParam id="3153" interp="linr"  time="0/1" value="0" leadInLength="0/1"  />
           <InterpolatingParam id="3154" interp="linr"  time="0/1" value="0" leadInLength="0/1"  />
           <InterpolatingParam id="3155" interp="linr"  time="0/1" value="0" leadInLength="0/1"  />
           <InterpolatingParam id="3156" interp="linr"  time="0/1" value="0" leadInLength="0/1"  />
          </VectorParam>
          <VectorParam id="3157"  name="geometryCrop">
           <InterpolatingParam id="3158" interp="linr"  >
            <Keyframes>
            <Keyframe id="3159"  time="-9999999/1" value="0" leadInLength="0/1"  />
            <Keyframe id="3160"  time="451836/10027" value="0" leadInLength="171150/10027"  interpolater="leadin-linr"  />
            </Keyframes>
           </InterpolatingParam>
           <InterpolatingParam id="3161" interp="linr"  >
            <Keyframes>
            <Keyframe id="3162"  time="-9999999/1" value="0" leadInLength="0/1"  />
            <Keyframe id="3163"  time="451836/10027" value="0" leadInLength="171150/10027"  interpolater="leadin-linr"  />
            </Keyframes>
           </InterpolatingParam>
           <InterpolatingParam id="3164" interp="linr"  >
            <Keyframes>
            <Keyframe id="3165"  time="-9999999/1" value="0" leadInLength="0/1"  />
            <Keyframe id="3166"  time="451836/10027" value="0" leadInLength="171150/10027"  interpolater="leadin-linr"  />
            </Keyframes>
           </InterpolatingParam>
           <InterpolatingParam id="3167" interp="linr"  >
            <Keyframes>
            <Keyframe id="3168"  time="-9999999/1" value="0" leadInLength="0/1"  />
            <Keyframe id="3169"  time="451836/10027" value="0" leadInLength="171150/10027"  interpolater="leadin-linr"  />
            </Keyframes>
           </InterpolatingParam>
          </VectorParam>
          <InterpolatingParam id="3170" interp="linr"  name="opacity">
           <Keyframes>
           <Keyframe id="3171"  time="-9999999/1" value="1" leadInLength="0/1"  />
           <Keyframe id="3172"  time="451836/10027" value="1" leadInLength="171150/10027"  interpolater="leadin-linr"  />
           </Keyframes>
          </InterpolatingParam>
          <InterpolatingParam id="3173" interp="linr"  time="0/1" value="1" leadInLength="0/1"  name="cursorOpacity"/>
          <InterpolatingParam id="3174" interp="linr"  time="0/1" value="1" leadInLength="0/1"  name="cursorScale"/>
          <InterpolatingParam id="3175" interp="linr"  name="volume">
           <Keyframes>
           <Keyframe id="3176"  time="-1/1" value="1" leadInLength="0/1"  />
           <Keyframe id="3177"  time="0/1" value="0" leadInLength="0/1"  />
           <Keyframe id="3178"  time="432482/379" value="0" leadInLength="0/1"  />
           <Keyframe id="3179"  time="432861/379" value="1" leadInLength="0/1"  />
           </Keyframes>
          </InterpolatingParam>
          <Parameter id="3180"  name="captions"/>
         </Parameters>
         <Attributes>
          <Attribute id="3181" value="" name="ident"/>
          <Attribute id="3182" value="0" name="mixToMono"/>
         </Attributes>
         <MetaData>
          <entry key="WinSubProjectDisplayName" val=""/>
         </MetaData>
         <ExtraData>
          <Entry key="ZoomPanBin">
           <ZoomPanBin id="3183"  >
            <ZoomPanKeyframes>
             <ZoomPanKeyframe id="3184" timeRangeEnd="-9999999/1" timeRangeDuration="0/1" interpolaterName="linr"  />
             <ZoomPanKeyframe id="3185" timeRangeEnd="451836/10027" timeRangeDuration="171150/10027" interpolaterName="linr"  />
            </ZoomPanKeyframes>
           </ZoomPanBin>
          </Entry>
          <Entry key="CursorEffectBin">
           <CursorEffectBin id="3186"  >
            <CursorEffectKeyframes>
            </CursorEffectKeyframes>
           </CursorEffectBin>
          </Entry>
         </ExtraData>
         <GenericTrack id="3187"  >
          <Attributes>
           <Attribute id="3188" value="" name="ident"/>
           <Attribute id="3189" value="0" name="audioMuted"/>
           <Attribute id="3190" value="0" name="videoHidden"/>
          </Attributes>
          <MetaData>
           <entry key="IsLocked" val="False"/>
           <entry key="WinTrackHeight" val="0"/>
          </MetaData>
          <Medias>
           <UnifiedMedia id="3191"  >
            <AMFile id="3192" start="0" duration="14" scalar="1/1" mediaStart="0/1" mediaDuration="14/1" trackNumber="1" src="20" channelNumber="0" >
             <Parameters>
              <InterpolatingParam id="3193" interp="linr"  time="0/1" value="1" leadInLength="0/1"  name="volume"/>
              <Parameter id="3194"  name="captions"/>
             </Parameters>
             <Attributes>
              <Attribute id="3195" value="" name="ident"/>
              <Attribute id="3196" value="44100" name="sampleRate"/>
              <Attribute id="3197" value="16" name="bitDepth"/>
              <Attribute id="3198" value="1" name="gain"/>
              <Attribute id="3199" value="0" name="mixToMono"/>
             </Attributes>
            </AMFile>
            <VMFile id="3200" start="0" duration="14" scalar="1/1" mediaStart="0/1" mediaDuration="14/1" trackNumber="0" src="20" >
             <Transformer>
              <VectorParam id="3201"  name="translation">
               <InterpolatingParam id="3202" interp="linr"  time="-9999999/1" value="0" leadInLength="0/1"  />
               <InterpolatingParam id="3203" interp="linr"  time="-9999999/1" value="0" leadInLength="0/1"  />
               <InterpolatingParam id="3204" interp="linr"  time="-9999999/1" value="0" leadInLength="0/1"  />
              </VectorParam>
              <VectorParam id="3205"  name="rotation">
               <InterpolatingParam id="3206" interp="linr"  time="-9999999/1" value="0" leadInLength="0/1"  />
               <InterpolatingParam id="3207" interp="linr"  time="-9999999/1" value="0" leadInLength="0/1"  />
               <InterpolatingParam id="3208" interp="linr"  time="-9999999/1" value="0" leadInLength="0/1"  />
              </VectorParam>
              <VectorParam id="3209"  name="shear">
               <InterpolatingParam id="3210" interp="linr"  time="-9999999/1" value="0" leadInLength="0/1"  />
               <InterpolatingParam id="3211" interp="linr"  time="-9999999/1" value="0" leadInLength="0/1"  />
               <InterpolatingParam id="3212" interp="linr"  time="-9999999/1" value="0" leadInLength="0/1"  />
              </VectorParam>
              <VectorParam id="3213"  name="scale">
               <InterpolatingParam id="3214" interp="linr"  time="-9999999/1" value="1" leadInLength="0/1"  />
               <InterpolatingParam id="3215" interp="linr"  time="-9999999/1" value="1" leadInLength="0/1"  />
               <InterpolatingParam id="3216" interp="linr"  time="-9999999/1" value="1" leadInLength="0/1"  />
              </VectorParam>
              <VectorParam id="3217"  name="anchor">
               <InterpolatingParam id="3218" interp="linr"  time="0/1" value="0" leadInLength="0/1"  />
               <InterpolatingParam id="3219" interp="linr"  time="0/1" value="0" leadInLength="0/1"  />
               <InterpolatingParam id="3220" interp="linr"  time="0/1" value="0" leadInLength="0/1"  />
              </VectorParam>
             </Transformer>
             <Parameters>
              <VectorParam id="3221"  name="sourceCrop">
               <InterpolatingParam id="3222" interp="linr"  time="0/1" value="0" leadInLength="0/1"  />
               <InterpolatingParam id="3223" interp="linr"  time="0/1" value="0" leadInLength="0/1"  />
               <InterpolatingParam id="3224" interp="linr"  time="0/1" value="0" leadInLength="0/1"  />
               <InterpolatingParam id="3225" interp="linr"  time="0/1" value="0" leadInLength="0/1"  />
              </VectorParam>
              <VectorParam id="3226"  name="geometryCrop">
               <InterpolatingParam id="3227" interp="linr"  time="-9999999/1" value="0" leadInLength="0/1"  />
               <InterpolatingParam id="3228" interp="linr"  time="-9999999/1" value="0" leadInLength="0/1"  />
               <InterpolatingParam id="3229" interp="linr"  time="-9999999/1" value="0" leadInLength="0/1"  />
               <InterpolatingParam id="3230" interp="linr"  time="-9999999/1" value="0" leadInLength="0/1"  />
              </VectorParam>
              <InterpolatingParam id="3231" interp="linr"  time="-9999999/1" value="1" leadInLength="0/1"  name="opacity"/>
             </Parameters>
             <Attributes>
              <Attribute id="3232" value="" name="ident"/>
             </Attributes>
             <ExtraData>
              <Entry key="ZoomPanBin">
               <ZoomPanBin id="3233"  >
                <ZoomPanKeyframes>
                 <ZoomPanKeyframe id="3234" timeRangeEnd="-9999999/1" timeRangeDuration="0/1" interpolaterName="linr"  />
                </ZoomPanKeyframes>
               </ZoomPanBin>
              </Entry>
             </ExtraData>
            </VMFile>
            <MetaData>
             <entry key="WinSubProjectDisplayName" val=""/>
            </MetaData>
           </UnifiedMedia>
           <UnifiedMedia id="3235"  >
            <AMFile id="3236" start="14" duration="1127" scalar="1/1" mediaStart="97/1" mediaDuration="1127/1" trackNumber="1" src="20" channelNumber="0" >
             <Parameters>
              <InterpolatingParam id="3237" interp="linr"  time="0/1" value="1" leadInLength="0/1"  name="volume"/>
              <Parameter id="3238"  name="captions"/>
             </Parameters>
             <Attributes>
              <Attribute id="3239" value="" name="ident"/>
              <Attribute id="3240" value="44100" name="sampleRate"/>
              <Attribute id="3241" value="16" name="bitDepth"/>
              <Attribute id="3242" value="1" name="gain"/>
              <Attribute id="3243" value="0" name="mixToMono"/>
             </Attributes>
            </AMFile>
            <VMFile id="3244" start="14" duration="1127" scalar="1/1" mediaStart="97/1" mediaDuration="1127/1" trackNumber="0" src="20" >
             <Transformer>
              <VectorParam id="3245"  name="translation">
               <InterpolatingParam id="3246" interp="linr"  time="-9999999/1" value="0" leadInLength="0/1"  />
               <InterpolatingParam id="3247" interp="linr"  time="-9999999/1" value="0" leadInLength="0/1"  />
               <InterpolatingParam id="3248" interp="linr"  time="-9999999/1" value="0" leadInLength="0/1"  />
              </VectorParam>
              <VectorParam id="3249"  name="rotation">
               <InterpolatingParam id="3250" interp="linr"  time="-9999999/1" value="0" leadInLength="0/1"  />
               <InterpolatingParam id="3251" interp="linr"  time="-9999999/1" value="0" leadInLength="0/1"  />
               <InterpolatingParam id="3252" interp="linr"  time="-9999999/1" value="0" leadInLength="0/1"  />
              </VectorParam>
              <VectorParam id="3253"  name="shear">
               <InterpolatingParam id="3254" interp="linr"  time="-9999999/1" value="0" leadInLength="0/1"  />
               <InterpolatingParam id="3255" interp="linr"  time="-9999999/1" value="0" leadInLength="0/1"  />
               <InterpolatingParam id="3256" interp="linr"  time="-9999999/1" value="0" leadInLength="0/1"  />
              </VectorParam>
              <VectorParam id="3257"  name="scale">
               <InterpolatingParam id="3258" interp="linr"  time="-9999999/1" value="1" leadInLength="0/1"  />
               <InterpolatingParam id="3259" interp="linr"  time="-9999999/1" value="1" leadInLength="0/1"  />
               <InterpolatingParam id="3260" interp="linr"  time="-9999999/1" value="1" leadInLength="0/1"  />
              </VectorParam>
              <VectorParam id="3261"  name="anchor">
               <InterpolatingParam id="3262" interp="linr"  time="0/1" value="0" leadInLength="0/1"  />
               <InterpolatingParam id="3263" interp="linr"  time="0/1" value="0" leadInLength="0/1"  />
               <InterpolatingParam id="3264" interp="linr"  time="0/1" value="0" leadInLength="0/1"  />
              </VectorParam>
             </Transformer>
             <Parameters>
              <VectorParam id="3265"  name="sourceCrop">
               <InterpolatingParam id="3266" interp="linr"  time="0/1" value="0" leadInLength="0/1"  />
               <InterpolatingParam id="3267" interp="linr"  time="0/1" value="0" leadInLength="0/1"  />
               <InterpolatingParam id="3268" interp="linr"  time="0/1" value="0" leadInLength="0/1"  />
               <InterpolatingParam id="3269" interp="linr"  time="0/1" value="0" leadInLength="0/1"  />
              </VectorParam>
              <VectorParam id="3270"  name="geometryCrop">
               <InterpolatingParam id="3271" interp="linr"  time="-9999999/1" value="0" leadInLength="0/1"  />
               <InterpolatingParam id="3272" interp="linr"  time="-9999999/1" value="0" leadInLength="0/1"  />
               <InterpolatingParam id="3273" interp="linr"  time="-9999999/1" value="0" leadInLength="0/1"  />
               <InterpolatingParam id="3274" interp="linr"  time="-9999999/1" value="0" leadInLength="0/1"  />
              </VectorParam>
              <InterpolatingParam id="3275" interp="linr"  time="-9999999/1" value="1" leadInLength="0/1"  name="opacity"/>
             </Parameters>
             <Attributes>
              <Attribute id="3276" value="" name="ident"/>
             </Attributes>
             <ExtraData>
              <Entry key="ZoomPanBin">
               <ZoomPanBin id="3277"  >
                <ZoomPanKeyframes>
                 <ZoomPanKeyframe id="3278" timeRangeEnd="-9999999/1" timeRangeDuration="0/1" interpolaterName="linr"  />
                </ZoomPanKeyframes>
               </ZoomPanBin>
              </Entry>
             </ExtraData>
            </VMFile>
            <MetaData>
             <entry key="WinSubProjectDisplayName" val=""/>
            </MetaData>
           </UnifiedMedia>
          </Medias>
         </GenericTrack>
        </StitchedMedia>
        <StitchedMedia id="3279" start="4503" duration="255" scalar="110297/219072" mediaStart="547680/10027" mediaDuration="55863360/110297" minMediaStart="0/1" >
         <Transformer>
          <VectorParam id="3280"  name="translation">
           <InterpolatingParam id="3281" interp="linr"  >
            <Keyframes>
            <Keyframe id="3282"  time="-9999999/1" value="-199.00000000003945" leadInLength="0/1"  />
            <Keyframe id="3283"  time="4710048/110297" value="-257.45238095173067" leadInLength="3067008/110297"  interpolater="leadin-linr"  />
            </Keyframes>
           </InterpolatingParam>
           <InterpolatingParam id="3284" interp="linr"  >
            <Keyframes>
            <Keyframe id="3285"  time="-9999999/1" value="57.937500000074209" leadInLength="0/1"  />
            <Keyframe id="3286"  time="4710048/110297" value="79.05803571451824" leadInLength="3067008/110297"  interpolater="leadin-linr"  />
            </Keyframes>
           </InterpolatingParam>
           <InterpolatingParam id="3287" interp="linr"  >
            <Keyframes>
            <Keyframe id="3288"  time="-9999999/1" value="-3.4106051316482901e-010" leadInLength="0/1"  />
            <Keyframe id="3289"  time="4710048/110297" value="-3.4106051316482906e-010" leadInLength="3067008/110297"  interpolater="leadin-linr"  />
            </Keyframes>
           </InterpolatingParam>
          </VectorParam>
          <VectorParam id="3290"  name="rotation">
           <InterpolatingParam id="3291" interp="linr"  >
            <Keyframes>
            <Keyframe id="3292"  time="-9999999/1" value="0" leadInLength="0/1"  />
            <Keyframe id="3293"  time="4710048/110297" value="0" leadInLength="3067008/110297"  interpolater="leadin-linr"  />
            </Keyframes>
           </InterpolatingParam>
           <InterpolatingParam id="3294" interp="linr"  >
            <Keyframes>
            <Keyframe id="3295"  time="-9999999/1" value="0" leadInLength="0/1"  />
            <Keyframe id="3296"  time="4710048/110297" value="0" leadInLength="3067008/110297"  interpolater="leadin-linr"  />
            </Keyframes>
           </InterpolatingParam>
           <InterpolatingParam id="3297" interp="linr"  >
            <Keyframes>
            <Keyframe id="3298"  time="-9999999/1" value="0" leadInLength="0/1"  />
            <Keyframe id="3299"  time="4710048/110297" value="0" leadInLength="3067008/110297"  interpolater="leadin-linr"  />
            </Keyframes>
           </InterpolatingParam>
          </VectorParam>
          <VectorParam id="3300"  name="shear">
           <InterpolatingParam id="3301" interp="linr"  >
            <Keyframes>
            <Keyframe id="3302"  time="-9999999/1" value="0" leadInLength="0/1"  />
            <Keyframe id="3303"  time="4710048/110297" value="0" leadInLength="3067008/110297"  interpolater="leadin-linr"  />
            </Keyframes>
           </InterpolatingParam>
           <InterpolatingParam id="3304" interp="linr"  >
            <Keyframes>
            <Keyframe id="3305"  time="-9999999/1" value="0" leadInLength="0/1"  />
            <Keyframe id="3306"  time="4710048/110297" value="0" leadInLength="3067008/110297"  interpolater="leadin-linr"  />
            </Keyframes>
           </InterpolatingParam>
           <InterpolatingParam id="3307" interp="linr"  >
            <Keyframes>
            <Keyframe id="3308"  time="-9999999/1" value="0" leadInLength="0/1"  />
            <Keyframe id="3309"  time="4710048/110297" value="0" leadInLength="3067008/110297"  interpolater="leadin-linr"  />
            </Keyframes>
           </InterpolatingParam>
          </VectorParam>
          <VectorParam id="3310"  name="scale">
           <InterpolatingParam id="3311" interp="linr"  >
            <Keyframes>
            <Keyframe id="3312"  time="-9999999/1" value="0.77395833333339403" leadInLength="0/1"  />
            <Keyframe id="3313"  time="4710048/110297" value="0.81307043650846467" leadInLength="3067008/110297"  interpolater="leadin-linr"  />
            </Keyframes>
           </InterpolatingParam>
           <InterpolatingParam id="3314" interp="linr"  >
            <Keyframes>
            <Keyframe id="3315"  time="-9999999/1" value="0.77395833333339425" leadInLength="0/1"  />
            <Keyframe id="3316"  time="4710048/110297" value="0.81307043650846522" leadInLength="3067008/110297"  interpolater="leadin-linr"  />
            </Keyframes>
           </InterpolatingParam>
           <InterpolatingParam id="3317" interp="linr"  >
            <Keyframes>
            <Keyframe id="3318"  time="-9999999/1" value="1" leadInLength="0/1"  />
            <Keyframe id="3319"  time="4710048/110297" value="1" leadInLength="3067008/110297"  interpolater="leadin-linr"  />
            </Keyframes>
           </InterpolatingParam>
          </VectorParam>
          <VectorParam id="3320"  name="anchor">
           <InterpolatingParam id="3321" interp="linr"  time="0/1" value="0" leadInLength="0/1"  />
           <InterpolatingParam id="3322" interp="linr"  time="0/1" value="0" leadInLength="0/1"  />
           <InterpolatingParam id="3323" interp="linr"  time="0/1" value="0" leadInLength="0/1"  />
          </VectorParam>
         </Transformer>
         <Parameters>
          <VectorParam id="3324"  name="sourceCrop">
           <InterpolatingParam id="3325" interp="linr"  time="0/1" value="0" leadInLength="0/1"  />
           <InterpolatingParam id="3326" interp="linr"  time="0/1" value="0" leadInLength="0/1"  />
           <InterpolatingParam id="3327" interp="linr"  time="0/1" value="0" leadInLength="0/1"  />
           <InterpolatingParam id="3328" interp="linr"  time="0/1" value="0" leadInLength="0/1"  />
          </VectorParam>
          <VectorParam id="3329"  name="geometryCrop">
           <InterpolatingParam id="3330" interp="linr"  >
            <Keyframes>
            <Keyframe id="3331"  time="-9999999/1" value="0" leadInLength="0/1"  />
            <Keyframe id="3332"  time="4710048/110297" value="0" leadInLength="3067008/110297"  interpolater="leadin-linr"  />
            </Keyframes>
           </InterpolatingParam>
           <InterpolatingParam id="3333" interp="linr"  >
            <Keyframes>
            <Keyframe id="3334"  time="-9999999/1" value="0" leadInLength="0/1"  />
            <Keyframe id="3335"  time="4710048/110297" value="0" leadInLength="3067008/110297"  interpolater="leadin-linr"  />
            </Keyframes>
           </InterpolatingParam>
           <InterpolatingParam id="3336" interp="linr"  >
            <Keyframes>
            <Keyframe id="3337"  time="-9999999/1" value="0" leadInLength="0/1"  />
            <Keyframe id="3338"  time="4710048/110297" value="0" leadInLength="3067008/110297"  interpolater="leadin-linr"  />
            </Keyframes>
           </InterpolatingParam>
           <InterpolatingParam id="3339" interp="linr"  >
            <Keyframes>
            <Keyframe id="3340"  time="-9999999/1" value="0" leadInLength="0/1"  />
            <Keyframe id="3341"  time="4710048/110297" value="0" leadInLength="3067008/110297"  interpolater="leadin-linr"  />
            </Keyframes>
           </InterpolatingParam>
          </VectorParam>
          <InterpolatingParam id="3342" interp="linr"  name="opacity">
           <Keyframes>
           <Keyframe id="3343"  time="-9999999/1" value="1" leadInLength="0/1"  />
           <Keyframe id="3344"  time="4710048/110297" value="1" leadInLength="3067008/110297"  interpolater="leadin-linr"  />
           </Keyframes>
          </InterpolatingParam>
          <InterpolatingParam id="3345" interp="linr"  time="0/1" value="1" leadInLength="0/1"  name="cursorOpacity"/>
          <InterpolatingParam id="3346" interp="linr"  time="0/1" value="1" leadInLength="0/1"  name="cursorScale"/>
          <InterpolatingParam id="3347" interp="linr"  name="volume">
           <Keyframes>
           <Keyframe id="3348"  time="-1/1" value="1" leadInLength="0/1"  />
           <Keyframe id="3349"  time="0/1" value="0" leadInLength="0/1"  />
           <Keyframe id="3350"  time="432482/379" value="0" leadInLength="0/1"  />
           <Keyframe id="3351"  time="432861/379" value="1" leadInLength="0/1"  />
           </Keyframes>
          </InterpolatingParam>
          <Parameter id="3352"  name="captions"/>
         </Parameters>
         <Attributes>
          <Attribute id="3353" value="" name="ident"/>
          <Attribute id="3354" value="0" name="mixToMono"/>
         </Attributes>
         <MetaData>
          <entry key="WinSubProjectDisplayName" val=""/>
         </MetaData>
         <ExtraData>
          <Entry key="ZoomPanBin">
           <ZoomPanBin id="3355"  >
            <ZoomPanKeyframes>
             <ZoomPanKeyframe id="3356" timeRangeEnd="-9999999/1" timeRangeDuration="0/1" interpolaterName="linr"  />
             <ZoomPanKeyframe id="3357" timeRangeEnd="4710048/110297" timeRangeDuration="3067008/110297" interpolaterName="linr"  />
            </ZoomPanKeyframes>
           </ZoomPanBin>
          </Entry>
          <Entry key="CursorEffectBin">
           <CursorEffectBin id="3358"  >
            <CursorEffectKeyframes>
            </CursorEffectKeyframes>
           </CursorEffectBin>
          </Entry>
         </ExtraData>
         <GenericTrack id="3359"  >
          <Attributes>
           <Attribute id="3360" value="" name="ident"/>
           <Attribute id="3361" value="0" name="audioMuted"/>
           <Attribute id="3362" value="0" name="videoHidden"/>
          </Attributes>
          <MetaData>
           <entry key="IsLocked" val="False"/>
           <entry key="WinTrackHeight" val="0"/>
          </MetaData>
          <Medias>
           <UnifiedMedia id="3363"  >
            <AMFile id="3364" start="0" duration="14" scalar="1/1" mediaStart="0/1" mediaDuration="14/1" trackNumber="1" src="20" channelNumber="0" >
             <Parameters>
              <InterpolatingParam id="3365" interp="linr"  time="0/1" value="1" leadInLength="0/1"  name="volume"/>
              <Parameter id="3366"  name="captions"/>
             </Parameters>
             <Attributes>
              <Attribute id="3367" value="" name="ident"/>
              <Attribute id="3368" value="44100" name="sampleRate"/>
              <Attribute id="3369" value="16" name="bitDepth"/>
              <Attribute id="3370" value="1" name="gain"/>
              <Attribute id="3371" value="0" name="mixToMono"/>
             </Attributes>
            </AMFile>
            <VMFile id="3372" start="0" duration="14" scalar="1/1" mediaStart="0/1" mediaDuration="14/1" trackNumber="0" src="20" >
             <Transformer>
              <VectorParam id="3373"  name="translation">
               <InterpolatingParam id="3374" interp="linr"  time="-9999999/1" value="0" leadInLength="0/1"  />
               <InterpolatingParam id="3375" interp="linr"  time="-9999999/1" value="0" leadInLength="0/1"  />
               <InterpolatingParam id="3376" interp="linr"  time="-9999999/1" value="0" leadInLength="0/1"  />
              </VectorParam>
              <VectorParam id="3377"  name="rotation">
               <InterpolatingParam id="3378" interp="linr"  time="-9999999/1" value="0" leadInLength="0/1"  />
               <InterpolatingParam id="3379" interp="linr"  time="-9999999/1" value="0" leadInLength="0/1"  />
               <InterpolatingParam id="3380" interp="linr"  time="-9999999/1" value="0" leadInLength="0/1"  />
              </VectorParam>
              <VectorParam id="3381"  name="shear">
               <InterpolatingParam id="3382" interp="linr"  time="-9999999/1" value="0" leadInLength="0/1"  />
               <InterpolatingParam id="3383" interp="linr"  time="-9999999/1" value="0" leadInLength="0/1"  />
               <InterpolatingParam id="3384" interp="linr"  time="-9999999/1" value="0" leadInLength="0/1"  />
              </VectorParam>
              <VectorParam id="3385"  name="scale">
               <InterpolatingParam id="3386" interp="linr"  time="-9999999/1" value="1" leadInLength="0/1"  />
               <InterpolatingParam id="3387" interp="linr"  time="-9999999/1" value="1" leadInLength="0/1"  />
               <InterpolatingParam id="3388" interp="linr"  time="-9999999/1" value="1" leadInLength="0/1"  />
              </VectorParam>
              <VectorParam id="3389"  name="anchor">
               <InterpolatingParam id="3390" interp="linr"  time="0/1" value="0" leadInLength="0/1"  />
               <InterpolatingParam id="3391" interp="linr"  time="0/1" value="0" leadInLength="0/1"  />
               <InterpolatingParam id="3392" interp="linr"  time="0/1" value="0" leadInLength="0/1"  />
              </VectorParam>
             </Transformer>
             <Parameters>
              <VectorParam id="3393"  name="sourceCrop">
               <InterpolatingParam id="3394" interp="linr"  time="0/1" value="0" leadInLength="0/1"  />
               <InterpolatingParam id="3395" interp="linr"  time="0/1" value="0" leadInLength="0/1"  />
               <InterpolatingParam id="3396" interp="linr"  time="0/1" value="0" leadInLength="0/1"  />
               <InterpolatingParam id="3397" interp="linr"  time="0/1" value="0" leadInLength="0/1"  />
              </VectorParam>
              <VectorParam id="3398"  name="geometryCrop">
               <InterpolatingParam id="3399" interp="linr"  time="-9999999/1" value="0" leadInLength="0/1"  />
               <InterpolatingParam id="3400" interp="linr"  time="-9999999/1" value="0" leadInLength="0/1"  />
               <InterpolatingParam id="3401" interp="linr"  time="-9999999/1" value="0" leadInLength="0/1"  />
               <InterpolatingParam id="3402" interp="linr"  time="-9999999/1" value="0" leadInLength="0/1"  />
              </VectorParam>
              <InterpolatingParam id="3403" interp="linr"  time="-9999999/1" value="1" leadInLength="0/1"  name="opacity"/>
             </Parameters>
             <Attributes>
              <Attribute id="3404" value="" name="ident"/>
             </Attributes>
             <ExtraData>
              <Entry key="ZoomPanBin">
               <ZoomPanBin id="3405"  >
                <ZoomPanKeyframes>
                 <ZoomPanKeyframe id="3406" timeRangeEnd="-9999999/1" timeRangeDuration="0/1" interpolaterName="linr"  />
                </ZoomPanKeyframes>
               </ZoomPanBin>
              </Entry>
             </ExtraData>
            </VMFile>
            <MetaData>
             <entry key="WinSubProjectDisplayName" val=""/>
            </MetaData>
           </UnifiedMedia>
           <UnifiedMedia id="3407"  >
            <AMFile id="3408" start="14" duration="1127" scalar="1/1" mediaStart="97/1" mediaDuration="1127/1" trackNumber="1" src="20" channelNumber="0" >
             <Parameters>
              <InterpolatingParam id="3409" interp="linr"  time="0/1" value="1" leadInLength="0/1"  name="volume"/>
              <Parameter id="3410"  name="captions"/>
             </Parameters>
             <Attributes>
              <Attribute id="3411" value="" name="ident"/>
              <Attribute id="3412" value="44100" name="sampleRate"/>
              <Attribute id="3413" value="16" name="bitDepth"/>
              <Attribute id="3414" value="1" name="gain"/>
              <Attribute id="3415" value="0" name="mixToMono"/>
             </Attributes>
            </AMFile>
            <VMFile id="3416" start="14" duration="1127" scalar="1/1" mediaStart="97/1" mediaDuration="1127/1" trackNumber="0" src="20" >
             <Transformer>
              <VectorParam id="3417"  name="translation">
               <InterpolatingParam id="3418" interp="linr"  time="-9999999/1" value="0" leadInLength="0/1"  />
               <InterpolatingParam id="3419" interp="linr"  time="-9999999/1" value="0" leadInLength="0/1"  />
               <InterpolatingParam id="3420" interp="linr"  time="-9999999/1" value="0" leadInLength="0/1"  />
              </VectorParam>
              <VectorParam id="3421"  name="rotation">
               <InterpolatingParam id="3422" interp="linr"  time="-9999999/1" value="0" leadInLength="0/1"  />
               <InterpolatingParam id="3423" interp="linr"  time="-9999999/1" value="0" leadInLength="0/1"  />
               <InterpolatingParam id="3424" interp="linr"  time="-9999999/1" value="0" leadInLength="0/1"  />
              </VectorParam>
              <VectorParam id="3425"  name="shear">
               <InterpolatingParam id="3426" interp="linr"  time="-9999999/1" value="0" leadInLength="0/1"  />
               <InterpolatingParam id="3427" interp="linr"  time="-9999999/1" value="0" leadInLength="0/1"  />
               <InterpolatingParam id="3428" interp="linr"  time="-9999999/1" value="0" leadInLength="0/1"  />
              </VectorParam>
              <VectorParam id="3429"  name="scale">
               <InterpolatingParam id="3430" interp="linr"  time="-9999999/1" value="1" leadInLength="0/1"  />
               <InterpolatingParam id="3431" interp="linr"  time="-9999999/1" value="1" leadInLength="0/1"  />
               <InterpolatingParam id="3432" interp="linr"  time="-9999999/1" value="1" leadInLength="0/1"  />
              </VectorParam>
              <VectorParam id="3433"  name="anchor">
               <InterpolatingParam id="3434" interp="linr"  time="0/1" value="0" leadInLength="0/1"  />
               <InterpolatingParam id="3435" interp="linr"  time="0/1" value="0" leadInLength="0/1"  />
               <InterpolatingParam id="3436" interp="linr"  time="0/1" value="0" leadInLength="0/1"  />
              </VectorParam>
             </Transformer>
             <Parameters>
              <VectorParam id="3437"  name="sourceCrop">
               <InterpolatingParam id="3438" interp="linr"  time="0/1" value="0" leadInLength="0/1"  />
               <InterpolatingParam id="3439" interp="linr"  time="0/1" value="0" leadInLength="0/1"  />
               <InterpolatingParam id="3440" interp="linr"  time="0/1" value="0" leadInLength="0/1"  />
               <InterpolatingParam id="3441" interp="linr"  time="0/1" value="0" leadInLength="0/1"  />
              </VectorParam>
              <VectorParam id="3442"  name="geometryCrop">
               <InterpolatingParam id="3443" interp="linr"  time="-9999999/1" value="0" leadInLength="0/1"  />
               <InterpolatingParam id="3444" interp="linr"  time="-9999999/1" value="0" leadInLength="0/1"  />
               <InterpolatingParam id="3445" interp="linr"  time="-9999999/1" value="0" leadInLength="0/1"  />
               <InterpolatingParam id="3446" interp="linr"  time="-9999999/1" value="0" leadInLength="0/1"  />
              </VectorParam>
              <InterpolatingParam id="3447" interp="linr"  time="-9999999/1" value="1" leadInLength="0/1"  name="opacity"/>
             </Parameters>
             <Attributes>
              <Attribute id="3448" value="" name="ident"/>
             </Attributes>
             <ExtraData>
              <Entry key="ZoomPanBin">
               <ZoomPanBin id="3449"  >
                <ZoomPanKeyframes>
                 <ZoomPanKeyframe id="3450" timeRangeEnd="-9999999/1" timeRangeDuration="0/1" interpolaterName="linr"  />
                </ZoomPanKeyframes>
               </ZoomPanBin>
              </Entry>
             </ExtraData>
            </VMFile>
            <MetaData>
             <entry key="WinSubProjectDisplayName" val=""/>
            </MetaData>
           </UnifiedMedia>
          </Medias>
         </GenericTrack>
        </StitchedMedia>
        <UnifiedMedia id="3451"  >
         <AMFile id="3452" start="4758" duration="168" scalar="84/137" mediaStart="0/1" mediaDuration="274/1" trackNumber="1" src="21" channelNumber="0" >
          <Parameters>
           <InterpolatingParam id="3453" interp="linr"  name="volume">
            <Keyframes>
            <Keyframe id="3454"  time="-1/1" value="1" leadInLength="0/1"  />
            <Keyframe id="3455"  time="0/1" value="0" leadInLength="0/1"  />
            <Keyframe id="3456"  time="507/1" value="0" leadInLength="0/1"  />
            <Keyframe id="3457"  time="508/1" value="1" leadInLength="0/1"  />
            </Keyframes>
           </InterpolatingParam>
           <Parameter id="3458"  name="captions"/>
          </Parameters>
          <Attributes>
           <Attribute id="3459" value="" name="ident"/>
           <Attribute id="3460" value="48000" name="sampleRate"/>
           <Attribute id="3461" value="16" name="bitDepth"/>
           <Attribute id="3462" value="1" name="gain"/>
           <Attribute id="3463" value="0" name="mixToMono"/>
          </Attributes>
         </AMFile>
         <VMFile id="3464" start="4758" duration="168" scalar="84/137" mediaStart="0/1" mediaDuration="274/1" trackNumber="0" src="21" >
          <Transformer>
           <VectorParam id="3465"  name="translation">
            <InterpolatingParam id="3466" interp="linr"  >
             <Keyframes>
             <Keyframe id="3467"  time="-9999999/1" value="-276.57407407314457" leadInLength="0/1"  />
             <Keyframe id="3468"  time="22879/84" value="-311.69312169216414" leadInLength="685/7"  interpolater="leadin-linr"  />
             </Keyframes>
            </InterpolatingParam>
            <InterpolatingParam id="3469" interp="linr"  >
             <Keyframes>
             <Keyframe id="3470"  time="-9999999/1" value="63.319940476414565" leadInLength="0/1"  />
             <Keyframe id="3471"  time="22879/84" value="-16.077380952250934" leadInLength="685/7"  interpolater="leadin-linr"  />
             </Keyframes>
            </InterpolatingParam>
            <InterpolatingParam id="3472" interp="linr"  >
             <Keyframes>
             <Keyframe id="3473"  time="-9999999/1" value="-6.8212102632960126e-010" leadInLength="0/1"  />
             <Keyframe id="3474"  time="22879/84" value="-3.4106051316465872e-010" leadInLength="685/7"  interpolater="leadin-linr"  />
             </Keyframes>
            </InterpolatingParam>
           </VectorParam>
           <VectorParam id="3475"  name="rotation">
            <InterpolatingParam id="3476" interp="linr"  >
             <Keyframes>
             <Keyframe id="3477"  time="-9999999/1" value="0" leadInLength="0/1"  />
             <Keyframe id="3478"  time="22879/84" value="0" leadInLength="685/7"  interpolater="leadin-linr"  />
             </Keyframes>
            </InterpolatingParam>
            <InterpolatingParam id="3479" interp="linr"  >
             <Keyframes>
             <Keyframe id="3480"  time="-9999999/1" value="0" leadInLength="0/1"  />
             <Keyframe id="3481"  time="22879/84" value="0" leadInLength="685/7"  interpolater="leadin-linr"  />
             </Keyframes>
            </InterpolatingParam>
            <InterpolatingParam id="3482" interp="linr"  >
             <Keyframes>
             <Keyframe id="3483"  time="-9999999/1" value="0" leadInLength="0/1"  />
             <Keyframe id="3484"  time="22879/84" value="0" leadInLength="685/7"  interpolater="leadin-linr"  />
             </Keyframes>
            </InterpolatingParam>
           </VectorParam>
           <VectorParam id="3485"  name="shear">
            <InterpolatingParam id="3486" interp="linr"  >
             <Keyframes>
             <Keyframe id="3487"  time="-9999999/1" value="0" leadInLength="0/1"  />
             <Keyframe id="3488"  time="22879/84" value="0" leadInLength="685/7"  interpolater="leadin-linr"  />
             </Keyframes>
            </InterpolatingParam>
            <InterpolatingParam id="3489" interp="linr"  >
             <Keyframes>
             <Keyframe id="3490"  time="-9999999/1" value="0" leadInLength="0/1"  />
             <Keyframe id="3491"  time="22879/84" value="0" leadInLength="685/7"  interpolater="leadin-linr"  />
             </Keyframes>
            </InterpolatingParam>
            <InterpolatingParam id="3492" interp="linr"  >
             <Keyframes>
             <Keyframe id="3493"  time="-9999999/1" value="0" leadInLength="0/1"  />
             <Keyframe id="3494"  time="22879/84" value="0" leadInLength="685/7"  interpolater="leadin-linr"  />
             </Keyframes>
            </InterpolatingParam>
           </VectorParam>
           <VectorParam id="3495"  name="scale">
            <InterpolatingParam id="3496" interp="linr"  >
             <Keyframes>
             <Keyframe id="3497"  time="-9999999/1" value="0.78392581569736597" leadInLength="0/1"  />
             <Keyframe id="3498"  time="22879/84" value="0.63689373897745927" leadInLength="685/7"  interpolater="leadin-linr"  />
             </Keyframes>
            </InterpolatingParam>
            <InterpolatingParam id="3499" interp="linr"  >
             <Keyframes>
             <Keyframe id="3500"  time="-9999999/1" value="0.78392581569736675" leadInLength="0/1"  />
             <Keyframe id="3501"  time="22879/84" value="0.63689373897746004" leadInLength="685/7"  interpolater="leadin-linr"  />
             </Keyframes>
            </InterpolatingParam>
            <InterpolatingParam id="3502" interp="linr"  >
             <Keyframes>
             <Keyframe id="3503"  time="-9999999/1" value="1" leadInLength="0/1"  />
             <Keyframe id="3504"  time="22879/84" value="1" leadInLength="685/7"  interpolater="leadin-linr"  />
             </Keyframes>
            </InterpolatingParam>
           </VectorParam>
           <VectorParam id="3505"  name="anchor">
            <InterpolatingParam id="3506" interp="linr"  time="0/1" value="0" leadInLength="0/1"  />
            <InterpolatingParam id="3507" interp="linr"  time="0/1" value="0" leadInLength="0/1"  />
            <InterpolatingParam id="3508" interp="linr"  time="0/1" value="0" leadInLength="0/1"  />
           </VectorParam>
          </Transformer>
          <Parameters>
           <VectorParam id="3509"  name="sourceCrop">
            <InterpolatingParam id="3510" interp="linr"  time="0/1" value="0" leadInLength="0/1"  />
            <InterpolatingParam id="3511" interp="linr"  time="0/1" value="0" leadInLength="0/1"  />
            <InterpolatingParam id="3512" interp="linr"  time="0/1" value="0" leadInLength="0/1"  />
            <InterpolatingParam id="3513" interp="linr"  time="0/1" value="0" leadInLength="0/1"  />
           </VectorParam>
           <VectorParam id="3514"  name="geometryCrop">
            <InterpolatingParam id="3515" interp="linr"  >
             <Keyframes>
             <Keyframe id="3516"  time="-9999999/1" value="0" leadInLength="0/1"  />
             <Keyframe id="3517"  time="22879/84" value="0" leadInLength="685/7"  interpolater="leadin-linr"  />
             </Keyframes>
            </InterpolatingParam>
            <InterpolatingParam id="3518" interp="linr"  >
             <Keyframes>
             <Keyframe id="3519"  time="-9999999/1" value="0" leadInLength="0/1"  />
             <Keyframe id="3520"  time="22879/84" value="0" leadInLength="685/7"  interpolater="leadin-linr"  />
             </Keyframes>
            </InterpolatingParam>
            <InterpolatingParam id="3521" interp="linr"  >
             <Keyframes>
             <Keyframe id="3522"  time="-9999999/1" value="0" leadInLength="0/1"  />
             <Keyframe id="3523"  time="22879/84" value="0" leadInLength="685/7"  interpolater="leadin-linr"  />
             </Keyframes>
            </InterpolatingParam>
            <InterpolatingParam id="3524" interp="linr"  >
             <Keyframes>
             <Keyframe id="3525"  time="-9999999/1" value="0" leadInLength="0/1"  />
             <Keyframe id="3526"  time="22879/84" value="0" leadInLength="685/7"  interpolater="leadin-linr"  />
             </Keyframes>
            </InterpolatingParam>
           </VectorParam>
           <InterpolatingParam id="3527" interp="linr"  name="opacity">
            <Keyframes>
            <Keyframe id="3528"  time="-9999999/1" value="1" leadInLength="0/1"  />
            <Keyframe id="3529"  time="22879/84" value="1" leadInLength="685/7"  interpolater="leadin-linr"  />
            </Keyframes>
           </InterpolatingParam>
          </Parameters>
          <Attributes>
           <Attribute id="3530" value="" name="ident"/>
          </Attributes>
          <ExtraData>
           <Entry key="ZoomPanBin">
            <ZoomPanBin id="3531"  >
             <ZoomPanKeyframes>
              <ZoomPanKeyframe id="3532" timeRangeEnd="-9999999/1" timeRangeDuration="0/1" interpolaterName="linr"  />
              <ZoomPanKeyframe id="3533" timeRangeEnd="22879/84" timeRangeDuration="685/7" interpolaterName="linr"  />
             </ZoomPanKeyframes>
            </ZoomPanBin>
           </Entry>
          </ExtraData>
         </VMFile>
         <MetaData>
          <entry key="WinSubProjectDisplayName" val=""/>
         </MetaData>
        </UnifiedMedia>
        <UnifiedMedia id="3534"  >
         <AMFile id="3535" start="4926" duration="181" scalar="120727/227138" mediaStart="797583/667" mediaDuration="227138/667" trackNumber="1" src="22" channelNumber="0" >
          <Parameters>
           <InterpolatingParam id="3536" interp="linr"  name="volume">
            <Keyframes>
            <Keyframe id="3537"  time="-1/1" value="1" leadInLength="0/1"  />
            <Keyframe id="3538"  time="0/1" value="0" leadInLength="0/1"  />
            <Keyframe id="3539"  time="2469/1" value="0" leadInLength="0/1"  />
            <Keyframe id="3540"  time="2470/1" value="1" leadInLength="0/1"  />
            </Keyframes>
           </InterpolatingParam>
           <Parameter id="3541"  name="captions"/>
          </Parameters>
          <Attributes>
           <Attribute id="3542" value="" name="ident"/>
           <Attribute id="3543" value="48000" name="sampleRate"/>
           <Attribute id="3544" value="16" name="bitDepth"/>
           <Attribute id="3545" value="1" name="gain"/>
           <Attribute id="3546" value="0" name="mixToMono"/>
          </Attributes>
         </AMFile>
         <VMFile id="3547" start="4926" duration="181" scalar="120727/227138" mediaStart="797583/667" mediaDuration="227138/667" trackNumber="0" src="22" >
          <Transformer>
           <VectorParam id="3548"  name="translation">
            <InterpolatingParam id="3549" interp="linr"  time="-9999999/1" value="-321.08465608434346" leadInLength="0/1"  />
            <InterpolatingParam id="3550" interp="linr"  time="-9999999/1" value="-20.30952380938113" leadInLength="0/1"  />
            <InterpolatingParam id="3551" interp="linr"  time="-9999999/1" value="-3.4106051316488578e-010" leadInLength="0/1"  />
           </VectorParam>
           <VectorParam id="3552"  name="rotation">
            <InterpolatingParam id="3553" interp="linr"  time="-9999999/1" value="0" leadInLength="0/1"  />
            <InterpolatingParam id="3554" interp="linr"  time="-9999999/1" value="0" leadInLength="0/1"  />
            <InterpolatingParam id="3555" interp="linr"  time="-9999999/1" value="0" leadInLength="0/1"  />
           </VectorParam>
           <VectorParam id="3556"  name="shear">
            <InterpolatingParam id="3557" interp="linr"  time="-9999999/1" value="0" leadInLength="0/1"  />
            <InterpolatingParam id="3558" interp="linr"  time="-9999999/1" value="0" leadInLength="0/1"  />
            <InterpolatingParam id="3559" interp="linr"  time="-9999999/1" value="0" leadInLength="0/1"  />
           </VectorParam>
           <VectorParam id="3560"  name="scale">
            <InterpolatingParam id="3561" interp="linr"  time="-9999999/1" value="0.63646384479723905" leadInLength="0/1"  />
            <InterpolatingParam id="3562" interp="linr"  time="-9999999/1" value="0.63646384479723905" leadInLength="0/1"  />
            <InterpolatingParam id="3563" interp="linr"  time="-9999999/1" value="1" leadInLength="0/1"  />
           </VectorParam>
           <VectorParam id="3564"  name="anchor">
            <InterpolatingParam id="3565" interp="linr"  time="0/1" value="0" leadInLength="0/1"  />
            <InterpolatingParam id="3566" interp="linr"  time="0/1" value="0" leadInLength="0/1"  />
            <InterpolatingParam id="3567" interp="linr"  time="0/1" value="0" leadInLength="0/1"  />
           </VectorParam>
          </Transformer>
          <Parameters>
           <VectorParam id="3568"  name="sourceCrop">
            <InterpolatingParam id="3569" interp="linr"  time="0/1" value="0" leadInLength="0/1"  />
            <InterpolatingParam id="3570" interp="linr"  time="0/1" value="0" leadInLength="0/1"  />
            <InterpolatingParam id="3571" interp="linr"  time="0/1" value="0" leadInLength="0/1"  />
            <InterpolatingParam id="3572" interp="linr"  time="0/1" value="0" leadInLength="0/1"  />
           </VectorParam>
           <VectorParam id="3573"  name="geometryCrop">
            <InterpolatingParam id="3574" interp="linr"  time="-9999999/1" value="0" leadInLength="0/1"  />
            <InterpolatingParam id="3575" interp="linr"  time="-9999999/1" value="0" leadInLength="0/1"  />
            <InterpolatingParam id="3576" interp="linr"  time="-9999999/1" value="0" leadInLength="0/1"  />
            <InterpolatingParam id="3577" interp="linr"  time="-9999999/1" value="0" leadInLength="0/1"  />
           </VectorParam>
           <InterpolatingParam id="3578" interp="linr"  time="-9999999/1" value="1" leadInLength="0/1"  name="opacity"/>
          </Parameters>
          <Attributes>
           <Attribute id="3579" value="" name="ident"/>
          </Attributes>
          <ExtraData>
           <Entry key="ZoomPanBin">
            <ZoomPanBin id="3580"  >
             <ZoomPanKeyframes>
              <ZoomPanKeyframe id="3581" timeRangeEnd="-9999999/1" timeRangeDuration="0/1" interpolaterName="linr"  />
             </ZoomPanKeyframes>
            </ZoomPanBin>
           </Entry>
          </ExtraData>
         </VMFile>
         <MetaData>
          <entry key="WinSubProjectDisplayName" val=""/>
         </MetaData>
        </UnifiedMedia>
        <UnifiedMedia id="3582"  >
         <AMFile id="3583" start="5107" duration="53" scalar="611639/622102" mediaStart="1255696973/611639" mediaDuration="32971406/611639" trackNumber="1" src="22" channelNumber="0" >
          <Parameters>
           <InterpolatingParam id="3584" interp="linr"  name="volume">
            <Keyframes>
            <Keyframe id="3585"  time="-1/1" value="1" leadInLength="0/1"  />
            <Keyframe id="3586"  time="0/1" value="0" leadInLength="0/1"  />
            <Keyframe id="3587"  time="2469/1" value="0" leadInLength="0/1"  />
            <Keyframe id="3588"  time="2470/1" value="1" leadInLength="0/1"  />
            </Keyframes>
           </InterpolatingParam>
           <Parameter id="3589"  name="captions"/>
          </Parameters>
          <Attributes>
           <Attribute id="3590" value="" name="ident"/>
           <Attribute id="3591" value="48000" name="sampleRate"/>
           <Attribute id="3592" value="16" name="bitDepth"/>
           <Attribute id="3593" value="1" name="gain"/>
           <Attribute id="3594" value="0" name="mixToMono"/>
          </Attributes>
         </AMFile>
         <VMFile id="3595" start="5107" duration="53" scalar="611639/622102" mediaStart="1255696973/611639" mediaDuration="32971406/611639" trackNumber="0" src="22" >
          <Transformer>
           <VectorParam id="3596"  name="translation">
            <InterpolatingParam id="3597" interp="linr"  time="-9999999/1" value="-321.08465608435461" leadInLength="0/1"  />
            <InterpolatingParam id="3598" interp="linr"  time="-9999999/1" value="-20.309523809382494" leadInLength="0/1"  />
            <InterpolatingParam id="3599" interp="linr"  time="-9999999/1" value="-1.0339757656912846e-025" leadInLength="0/1"  />
           </VectorParam>
           <VectorParam id="3600"  name="rotation">
            <InterpolatingParam id="3601" interp="linr"  time="-9999999/1" value="0" leadInLength="0/1"  />
            <InterpolatingParam id="3602" interp="linr"  time="-9999999/1" value="0" leadInLength="0/1"  />
            <InterpolatingParam id="3603" interp="linr"  time="-9999999/1" value="0" leadInLength="0/1"  />
           </VectorParam>
           <VectorParam id="3604"  name="shear">
            <InterpolatingParam id="3605" interp="linr"  time="-9999999/1" value="0" leadInLength="0/1"  />
            <InterpolatingParam id="3606" interp="linr"  time="-9999999/1" value="0" leadInLength="0/1"  />
            <InterpolatingParam id="3607" interp="linr"  time="-9999999/1" value="0" leadInLength="0/1"  />
           </VectorParam>
           <VectorParam id="3608"  name="scale">
            <InterpolatingParam id="3609" interp="linr"  time="-9999999/1" value="0.63646384479724427" leadInLength="0/1"  />
            <InterpolatingParam id="3610" interp="linr"  time="-9999999/1" value="0.63646384479724416" leadInLength="0/1"  />
            <InterpolatingParam id="3611" interp="linr"  time="-9999999/1" value="1" leadInLength="0/1"  />
           </VectorParam>
           <VectorParam id="3612"  name="anchor">
            <InterpolatingParam id="3613" interp="linr"  time="0/1" value="0" leadInLength="0/1"  />
            <InterpolatingParam id="3614" interp="linr"  time="0/1" value="0" leadInLength="0/1"  />
            <InterpolatingParam id="3615" interp="linr"  time="0/1" value="0" leadInLength="0/1"  />
           </VectorParam>
          </Transformer>
          <Parameters>
           <VectorParam id="3616"  name="sourceCrop">
            <InterpolatingParam id="3617" interp="linr"  time="0/1" value="0" leadInLength="0/1"  />
            <InterpolatingParam id="3618" interp="linr"  time="0/1" value="0" leadInLength="0/1"  />
            <InterpolatingParam id="3619" interp="linr"  time="0/1" value="0" leadInLength="0/1"  />
            <InterpolatingParam id="3620" interp="linr"  time="0/1" value="0" leadInLength="0/1"  />
           </VectorParam>
           <VectorParam id="3621"  name="geometryCrop">
            <InterpolatingParam id="3622" interp="linr"  time="-9999999/1" value="0" leadInLength="0/1"  />
            <InterpolatingParam id="3623" interp="linr"  time="-9999999/1" value="0" leadInLength="0/1"  />
            <InterpolatingParam id="3624" interp="linr"  time="-9999999/1" value="0" leadInLength="0/1"  />
            <InterpolatingParam id="3625" interp="linr"  time="-9999999/1" value="0" leadInLength="0/1"  />
           </VectorParam>
           <InterpolatingParam id="3626" interp="linr"  time="-9999999/1" value="1" leadInLength="0/1"  name="opacity"/>
          </Parameters>
          <Attributes>
           <Attribute id="3627" value="" name="ident"/>
          </Attributes>
          <ExtraData>
           <Entry key="ZoomPanBin">
            <ZoomPanBin id="3628"  >
             <ZoomPanKeyframes>
              <ZoomPanKeyframe id="3629" timeRangeEnd="-9999999/1" timeRangeDuration="0/1" interpolaterName="linr"  />
             </ZoomPanKeyframes>
            </ZoomPanBin>
           </Entry>
          </ExtraData>
         </VMFile>
         <MetaData>
          <entry key="WinSubProjectDisplayName" val=""/>
         </MetaData>
        </UnifiedMedia>
        <UnifiedMedia id="3630"  >
         <AMFile id="3631" start="5160" duration="270" scalar="611639/622102" mediaStart="1342169151/611639" mediaDuration="167967540/611639" trackNumber="1" src="22" channelNumber="0" >
          <Parameters>
           <InterpolatingParam id="3632" interp="linr"  name="volume">
            <Keyframes>
            <Keyframe id="3633"  time="-1/1" value="1" leadInLength="0/1"  />
            <Keyframe id="3634"  time="0/1" value="0" leadInLength="0/1"  />
            <Keyframe id="3635"  time="2469/1" value="0" leadInLength="0/1"  />
            <Keyframe id="3636"  time="2470/1" value="1" leadInLength="0/1"  />
            </Keyframes>
           </InterpolatingParam>
           <Parameter id="3637"  name="captions"/>
          </Parameters>
          <Attributes>
           <Attribute id="3638" value="" name="ident"/>
           <Attribute id="3639" value="48000" name="sampleRate"/>
           <Attribute id="3640" value="16" name="bitDepth"/>
           <Attribute id="3641" value="1" name="gain"/>
           <Attribute id="3642" value="0" name="mixToMono"/>
          </Attributes>
         </AMFile>
         <VMFile id="3643" start="5160" duration="270" scalar="611639/622102" mediaStart="1342169151/611639" mediaDuration="167967540/611639" trackNumber="0" src="22" >
          <Transformer>
           <VectorParam id="3644"  name="translation">
            <InterpolatingParam id="3645" interp="linr"  >
             <Keyframes>
             <Keyframe id="3646"  time="-9999999/1" value="-322.75132275098309" leadInLength="0/1"  />
             <Keyframe id="3647"  time="1498938855/611639" value="-113.9002589209725" leadInLength="60343894/611639"  interpolater="leadin-linr"  />
             </Keyframes>
            </InterpolatingParam>
            <InterpolatingParam id="3648" interp="linr"  >
             <Keyframes>
             <Keyframe id="3649"  time="-9999999/1" value="-20.309523809383233" leadInLength="0/1"  />
             <Keyframe id="3650"  time="1498938855/611639" value="187.08675278640453" leadInLength="60343894/611639"  interpolater="leadin-linr"  />
             </Keyframes>
            </InterpolatingParam>
            <InterpolatingParam id="3651" interp="linr"  >
             <Keyframes>
             <Keyframe id="3652"  time="-9999999/1" value="-1.0339757656912846e-025" leadInLength="0/1"  />
             <Keyframe id="3653"  time="1498938855/611639" value="-1.0339757656912846e-025" leadInLength="60343894/611639"  interpolater="leadin-linr"  />
             </Keyframes>
            </InterpolatingParam>
           </VectorParam>
           <VectorParam id="3654"  name="rotation">
            <InterpolatingParam id="3655" interp="linr"  >
             <Keyframes>
             <Keyframe id="3656"  time="-9999999/1" value="0" leadInLength="0/1"  />
             <Keyframe id="3657"  time="1498938855/611639" value="0" leadInLength="60343894/611639"  interpolater="leadin-linr"  />
             </Keyframes>
            </InterpolatingParam>
            <InterpolatingParam id="3658" interp="linr"  >
             <Keyframes>
             <Keyframe id="3659"  time="-9999999/1" value="0" leadInLength="0/1"  />
             <Keyframe id="3660"  time="1498938855/611639" value="0" leadInLength="60343894/611639"  interpolater="leadin-linr"  />
             </Keyframes>
            </InterpolatingParam>
            <InterpolatingParam id="3661" interp="linr"  >
             <Keyframes>
             <Keyframe id="3662"  time="-9999999/1" value="0" leadInLength="0/1"  />
             <Keyframe id="3663"  time="1498938855/611639" value="0" leadInLength="60343894/611639"  interpolater="leadin-linr"  />
             </Keyframes>
            </InterpolatingParam>
           </VectorParam>
           <VectorParam id="3664"  name="shear">
            <InterpolatingParam id="3665" interp="linr"  >
             <Keyframes>
             <Keyframe id="3666"  time="-9999999/1" value="0" leadInLength="0/1"  />
             <Keyframe id="3667"  time="1498938855/611639" value="0" leadInLength="60343894/611639"  interpolater="leadin-linr"  />
             </Keyframes>
            </InterpolatingParam>
            <InterpolatingParam id="3668" interp="linr"  >
             <Keyframes>
             <Keyframe id="3669"  time="-9999999/1" value="0" leadInLength="0/1"  />
             <Keyframe id="3670"  time="1498938855/611639" value="0" leadInLength="60343894/611639"  interpolater="leadin-linr"  />
             </Keyframes>
            </InterpolatingParam>
            <InterpolatingParam id="3671" interp="linr"  >
             <Keyframes>
             <Keyframe id="3672"  time="-9999999/1" value="0" leadInLength="0/1"  />
             <Keyframe id="3673"  time="1498938855/611639" value="0" leadInLength="60343894/611639"  interpolater="leadin-linr"  />
             </Keyframes>
            </InterpolatingParam>
           </VectorParam>
           <VectorParam id="3674"  name="scale">
            <InterpolatingParam id="3675" interp="linr"  >
             <Keyframes>
             <Keyframe id="3676"  time="-9999999/1" value="0.63646384479724427" leadInLength="0/1"  />
             <Keyframe id="3677"  time="1498938855/611639" value="1.0463781473979425" leadInLength="60343894/611639"  interpolater="leadin-linr"  />
             </Keyframes>
            </InterpolatingParam>
            <InterpolatingParam id="3678" interp="linr"  >
             <Keyframes>
             <Keyframe id="3679"  time="-9999999/1" value="0.63646384479724416" leadInLength="0/1"  />
             <Keyframe id="3680"  time="1498938855/611639" value="1.0463781473979428" leadInLength="60343894/611639"  interpolater="leadin-linr"  />
             </Keyframes>
            </InterpolatingParam>
            <InterpolatingParam id="3681" interp="linr"  >
             <Keyframes>
             <Keyframe id="3682"  time="-9999999/1" value="1" leadInLength="0/1"  />
             <Keyframe id="3683"  time="1498938855/611639" value="1" leadInLength="60343894/611639"  interpolater="leadin-linr"  />
             </Keyframes>
            </InterpolatingParam>
           </VectorParam>
           <VectorParam id="3684"  name="anchor">
            <InterpolatingParam id="3685" interp="linr"  time="0/1" value="0" leadInLength="0/1"  />
            <InterpolatingParam id="3686" interp="linr"  time="0/1" value="0" leadInLength="0/1"  />
            <InterpolatingParam id="3687" interp="linr"  time="0/1" value="0" leadInLength="0/1"  />
           </VectorParam>
          </Transformer>
          <Parameters>
           <VectorParam id="3688"  name="sourceCrop">
            <InterpolatingParam id="3689" interp="linr"  time="0/1" value="0" leadInLength="0/1"  />
            <InterpolatingParam id="3690" interp="linr"  time="0/1" value="0" leadInLength="0/1"  />
            <InterpolatingParam id="3691" interp="linr"  time="0/1" value="0" leadInLength="0/1"  />
            <InterpolatingParam id="3692" interp="linr"  time="0/1" value="0" leadInLength="0/1"  />
           </VectorParam>
           <VectorParam id="3693"  name="geometryCrop">
            <InterpolatingParam id="3694" interp="linr"  >
             <Keyframes>
             <Keyframe id="3695"  time="-9999999/1" value="0" leadInLength="0/1"  />
             <Keyframe id="3696"  time="1498938855/611639" value="0" leadInLength="60343894/611639"  interpolater="leadin-linr"  />
             </Keyframes>
            </InterpolatingParam>
            <InterpolatingParam id="3697" interp="linr"  >
             <Keyframes>
             <Keyframe id="3698"  time="-9999999/1" value="0" leadInLength="0/1"  />
             <Keyframe id="3699"  time="1498938855/611639" value="0" leadInLength="60343894/611639"  interpolater="leadin-linr"  />
             </Keyframes>
            </InterpolatingParam>
            <InterpolatingParam id="3700" interp="linr"  >
             <Keyframes>
             <Keyframe id="3701"  time="-9999999/1" value="0" leadInLength="0/1"  />
             <Keyframe id="3702"  time="1498938855/611639" value="0" leadInLength="60343894/611639"  interpolater="leadin-linr"  />
             </Keyframes>
            </InterpolatingParam>
            <InterpolatingParam id="3703" interp="linr"  >
             <Keyframes>
             <Keyframe id="3704"  time="-9999999/1" value="0" leadInLength="0/1"  />
             <Keyframe id="3705"  time="1498938855/611639" value="0" leadInLength="60343894/611639"  interpolater="leadin-linr"  />
             </Keyframes>
            </InterpolatingParam>
           </VectorParam>
           <InterpolatingParam id="3706" interp="linr"  name="opacity">
            <Keyframes>
            <Keyframe id="3707"  time="-9999999/1" value="1" leadInLength="0/1"  />
            <Keyframe id="3708"  time="1498938855/611639" value="1" leadInLength="60343894/611639"  interpolater="leadin-linr"  />
            </Keyframes>
           </InterpolatingParam>
          </Parameters>
          <Attributes>
           <Attribute id="3709" value="" name="ident"/>
          </Attributes>
          <ExtraData>
           <Entry key="ZoomPanBin">
            <ZoomPanBin id="3710"  >
             <ZoomPanKeyframes>
              <ZoomPanKeyframe id="3711" timeRangeEnd="1498938855/611639" timeRangeDuration="60343894/611639" interpolaterName="linr"  />
              <ZoomPanKeyframe id="3712" timeRangeEnd="-9999999/1" timeRangeDuration="0/1" interpolaterName="linr"  />
             </ZoomPanKeyframes>
            </ZoomPanBin>
           </Entry>
          </ExtraData>
         </VMFile>
         <MetaData>
          <entry key="WinSubProjectDisplayName" val=""/>
         </MetaData>
        </UnifiedMedia>
        <UnifiedMedia id="3713"  >
         <AMFile id="3714" start="5430" duration="344" scalar="208/329" mediaStart="0/1" mediaDuration="14147/26" trackNumber="1" src="23" channelNumber="0" >
          <Parameters>
           <InterpolatingParam id="3715" interp="linr"  name="volume">
            <Keyframes>
            <Keyframe id="3716"  time="-1/1" value="1" leadInLength="0/1"  />
            <Keyframe id="3717"  time="0/1" value="0" leadInLength="0/1"  />
            <Keyframe id="3718"  time="1119/1" value="0" leadInLength="0/1"  />
            <Keyframe id="3719"  time="1120/1" value="1" leadInLength="0/1"  />
            </Keyframes>
           </InterpolatingParam>
           <Parameter id="3720"  name="captions"/>
          </Parameters>
          <Attributes>
           <Attribute id="3721" value="" name="ident"/>
           <Attribute id="3722" value="48000" name="sampleRate"/>
           <Attribute id="3723" value="16" name="bitDepth"/>
           <Attribute id="3724" value="1" name="gain"/>
           <Attribute id="3725" value="0" name="mixToMono"/>
          </Attributes>
         </AMFile>
         <VMFile id="3726" start="5430" duration="344" scalar="208/329" mediaStart="0/1" mediaDuration="14147/26" trackNumber="0" src="23" >
          <Transformer>
           <VectorParam id="3727"  name="translation">
            <InterpolatingParam id="3728" interp="linr"  time="-9999999/1" value="-110.60475064798476" leadInLength="0/1"  />
            <InterpolatingParam id="3729" interp="linr"  time="-9999999/1" value="186.99404761885216" leadInLength="0/1"  />
            <InterpolatingParam id="3730" interp="linr"  time="-9999999/1" value="-3.410605131648287e-010" leadInLength="0/1"  />
           </VectorParam>
           <VectorParam id="3731"  name="rotation">
            <InterpolatingParam id="3732" interp="linr"  time="-9999999/1" value="0" leadInLength="0/1"  />
            <InterpolatingParam id="3733" interp="linr"  time="-9999999/1" value="0" leadInLength="0/1"  />
            <InterpolatingParam id="3734" interp="linr"  time="-9999999/1" value="0" leadInLength="0/1"  />
           </VectorParam>
           <VectorParam id="3735"  name="shear">
            <InterpolatingParam id="3736" interp="linr"  time="-9999999/1" value="0" leadInLength="0/1"  />
            <InterpolatingParam id="3737" interp="linr"  time="-9999999/1" value="0" leadInLength="0/1"  />
            <InterpolatingParam id="3738" interp="linr"  time="-9999999/1" value="0" leadInLength="0/1"  />
           </VectorParam>
           <VectorParam id="3739"  name="scale">
            <InterpolatingParam id="3740" interp="linr"  time="-9999999/1" value="1.061100088183585" leadInLength="0/1"  />
            <InterpolatingParam id="3741" interp="linr"  time="-9999999/1" value="1.0611000881835855" leadInLength="0/1"  />
            <InterpolatingParam id="3742" interp="linr"  time="-9999999/1" value="1" leadInLength="0/1"  />
           </VectorParam>
           <VectorParam id="3743"  name="anchor">
            <InterpolatingParam id="3744" interp="linr"  time="0/1" value="0" leadInLength="0/1"  />
            <InterpolatingParam id="3745" interp="linr"  time="0/1" value="0" leadInLength="0/1"  />
            <InterpolatingParam id="3746" interp="linr"  time="0/1" value="0" leadInLength="0/1"  />
           </VectorParam>
          </Transformer>
          <Parameters>
           <VectorParam id="3747"  name="sourceCrop">
            <InterpolatingParam id="3748" interp="linr"  time="0/1" value="0" leadInLength="0/1"  />
            <InterpolatingParam id="3749" interp="linr"  time="0/1" value="0" leadInLength="0/1"  />
            <InterpolatingParam id="3750" interp="linr"  time="0/1" value="0" leadInLength="0/1"  />
            <InterpolatingParam id="3751" interp="linr"  time="0/1" value="0" leadInLength="0/1"  />
           </VectorParam>
           <VectorParam id="3752"  name="geometryCrop">
            <InterpolatingParam id="3753" interp="linr"  time="-9999999/1" value="0" leadInLength="0/1"  />
            <InterpolatingParam id="3754" interp="linr"  time="-9999999/1" value="0" leadInLength="0/1"  />
            <InterpolatingParam id="3755" interp="linr"  time="-9999999/1" value="0" leadInLength="0/1"  />
            <InterpolatingParam id="3756" interp="linr"  time="-9999999/1" value="0" leadInLength="0/1"  />
           </VectorParam>
           <InterpolatingParam id="3757" interp="linr"  time="-9999999/1" value="1" leadInLength="0/1"  name="opacity"/>
          </Parameters>
          <Attributes>
           <Attribute id="3758" value="" name="ident"/>
          </Attributes>
          <ExtraData>
           <Entry key="ZoomPanBin">
            <ZoomPanBin id="3759"  >
             <ZoomPanKeyframes>
              <ZoomPanKeyframe id="3760" timeRangeEnd="-9999999/1" timeRangeDuration="0/1" interpolaterName="linr"  />
             </ZoomPanKeyframes>
            </ZoomPanBin>
           </Entry>
          </ExtraData>
         </VMFile>
         <MetaData>
          <entry key="WinSubProjectDisplayName" val=""/>
         </MetaData>
        </UnifiedMedia>
        <UnifiedMedia id="3761"  >
         <AMFile id="3762" start="5774" duration="180" scalar="90/167" mediaStart="658/1" mediaDuration="334/1" trackNumber="1" src="23" channelNumber="0" >
          <Parameters>
           <InterpolatingParam id="3763" interp="linr"  name="volume">
            <Keyframes>
            <Keyframe id="3764"  time="-1/1" value="1" leadInLength="0/1"  />
            <Keyframe id="3765"  time="0/1" value="0" leadInLength="0/1"  />
            <Keyframe id="3766"  time="1119/1" value="0" leadInLength="0/1"  />
            <Keyframe id="3767"  time="1120/1" value="1" leadInLength="0/1"  />
            </Keyframes>
           </InterpolatingParam>
           <Parameter id="3768"  name="captions"/>
          </Parameters>
          <Attributes>
           <Attribute id="3769" value="" name="ident"/>
           <Attribute id="3770" value="48000" name="sampleRate"/>
           <Attribute id="3771" value="16" name="bitDepth"/>
           <Attribute id="3772" value="1" name="gain"/>
           <Attribute id="3773" value="0" name="mixToMono"/>
          </Attributes>
         </AMFile>
         <VMFile id="3774" start="5774" duration="180" scalar="90/167" mediaStart="658/1" mediaDuration="334/1" trackNumber="0" src="23" >
          <Transformer>
           <VectorParam id="3775"  name="translation">
            <InterpolatingParam id="3776" interp="linr"  time="-9999999/1" value="-110.60475064798476" leadInLength="0/1"  />
            <InterpolatingParam id="3777" interp="linr"  time="-9999999/1" value="186.99404761885222" leadInLength="0/1"  />
            <InterpolatingParam id="3778" interp="linr"  time="-9999999/1" value="-3.410605131648287e-010" leadInLength="0/1"  />
           </VectorParam>
           <VectorParam id="3779"  name="rotation">
            <InterpolatingParam id="3780" interp="linr"  time="-9999999/1" value="0" leadInLength="0/1"  />
            <InterpolatingParam id="3781" interp="linr"  time="-9999999/1" value="0" leadInLength="0/1"  />
            <InterpolatingParam id="3782" interp="linr"  time="-9999999/1" value="0" leadInLength="0/1"  />
           </VectorParam>
           <VectorParam id="3783"  name="shear">
            <InterpolatingParam id="3784" interp="linr"  time="-9999999/1" value="0" leadInLength="0/1"  />
            <InterpolatingParam id="3785" interp="linr"  time="-9999999/1" value="0" leadInLength="0/1"  />
            <InterpolatingParam id="3786" interp="linr"  time="-9999999/1" value="0" leadInLength="0/1"  />
           </VectorParam>
           <VectorParam id="3787"  name="scale">
            <InterpolatingParam id="3788" interp="linr"  time="-9999999/1" value="1.061100088183585" leadInLength="0/1"  />
            <InterpolatingParam id="3789" interp="linr"  time="-9999999/1" value="1.0611000881835855" leadInLength="0/1"  />
            <InterpolatingParam id="3790" interp="linr"  time="-9999999/1" value="1" leadInLength="0/1"  />
           </VectorParam>
           <VectorParam id="3791"  name="anchor">
            <InterpolatingParam id="3792" interp="linr"  time="0/1" value="0" leadInLength="0/1"  />
            <InterpolatingParam id="3793" interp="linr"  time="0/1" value="0" leadInLength="0/1"  />
            <InterpolatingParam id="3794" interp="linr"  time="0/1" value="0" leadInLength="0/1"  />
           </VectorParam>
          </Transformer>
          <Parameters>
           <VectorParam id="3795"  name="sourceCrop">
            <InterpolatingParam id="3796" interp="linr"  time="0/1" value="0" leadInLength="0/1"  />
            <InterpolatingParam id="3797" interp="linr"  time="0/1" value="0" leadInLength="0/1"  />
            <InterpolatingParam id="3798" interp="linr"  time="0/1" value="0" leadInLength="0/1"  />
            <InterpolatingParam id="3799" interp="linr"  time="0/1" value="0" leadInLength="0/1"  />
           </VectorParam>
           <VectorParam id="3800"  name="geometryCrop">
            <InterpolatingParam id="3801" interp="linr"  time="-9999999/1" value="0" leadInLength="0/1"  />
            <InterpolatingParam id="3802" interp="linr"  time="-9999999/1" value="0" leadInLength="0/1"  />
            <InterpolatingParam id="3803" interp="linr"  time="-9999999/1" value="0" leadInLength="0/1"  />
            <InterpolatingParam id="3804" interp="linr"  time="-9999999/1" value="0" leadInLength="0/1"  />
           </VectorParam>
           <InterpolatingParam id="3805" interp="linr"  time="-9999999/1" value="1" leadInLength="0/1"  name="opacity"/>
          </Parameters>
          <Attributes>
           <Attribute id="3806" value="" name="ident"/>
          </Attributes>
          <ExtraData>
           <Entry key="ZoomPanBin">
            <ZoomPanBin id="3807"  >
             <ZoomPanKeyframes>
              <ZoomPanKeyframe id="3808" timeRangeEnd="-9999999/1" timeRangeDuration="0/1" interpolaterName="linr"  />
             </ZoomPanKeyframes>
            </ZoomPanBin>
           </Entry>
          </ExtraData>
         </VMFile>
         <MetaData>
          <entry key="WinSubProjectDisplayName" val=""/>
         </MetaData>
        </UnifiedMedia>
        <UnifiedMedia id="3809"  >
         <AMFile id="3810" start="5954" duration="270" scalar="288152073/265158803" mediaStart="455/1" mediaDuration="2651588030/10672299" trackNumber="1" src="24" channelNumber="0" >
          <Parameters>
           <InterpolatingParam id="3811" interp="linr"  name="volume">
            <Keyframes>
            <Keyframe id="3812"  time="-1/1" value="1" leadInLength="0/1"  />
            <Keyframe id="3813"  time="0/1" value="0" leadInLength="0/1"  />
            <Keyframe id="3814"  time="1989/1" value="0" leadInLength="0/1"  />
            <Keyframe id="3815"  time="1990/1" value="1" leadInLength="0/1"  />
            </Keyframes>
           </InterpolatingParam>
           <Parameter id="3816"  name="captions"/>
          </Parameters>
          <Attributes>
           <Attribute id="3817" value="" name="ident"/>
           <Attribute id="3818" value="48000" name="sampleRate"/>
           <Attribute id="3819" value="16" name="bitDepth"/>
           <Attribute id="3820" value="1" name="gain"/>
           <Attribute id="3821" value="0" name="mixToMono"/>
          </Attributes>
         </AMFile>
         <VMFile id="3822" start="5954" duration="270" scalar="288152073/265158803" mediaStart="455/1" mediaDuration="2651588030/10672299" trackNumber="0" src="24" >
          <Transformer>
           <VectorParam id="3823"  name="translation">
            <InterpolatingParam id="3824" interp="linr"  time="-9999999/1" value="-112.13120567456131" leadInLength="0/1"  />
            <InterpolatingParam id="3825" interp="linr"  time="-9999999/1" value="186.65624999968878" leadInLength="0/1"  />
            <InterpolatingParam id="3826" interp="linr"  time="-9999999/1" value="1.1353053907290305e-022" leadInLength="0/1"  />
           </VectorParam>
           <VectorParam id="3827"  name="rotation">
            <InterpolatingParam id="3828" interp="linr"  time="-9999999/1" value="0" leadInLength="0/1"  />
            <InterpolatingParam id="3829" interp="linr"  time="-9999999/1" value="0" leadInLength="0/1"  />
            <InterpolatingParam id="3830" interp="linr"  time="-9999999/1" value="0" leadInLength="0/1"  />
           </VectorParam>
           <VectorParam id="3831"  name="shear">
            <InterpolatingParam id="3832" interp="linr"  time="-9999999/1" value="0" leadInLength="0/1"  />
            <InterpolatingParam id="3833" interp="linr"  time="-9999999/1" value="0" leadInLength="0/1"  />
            <InterpolatingParam id="3834" interp="linr"  time="-9999999/1" value="0" leadInLength="0/1"  />
           </VectorParam>
           <VectorParam id="3835"  name="scale">
            <InterpolatingParam id="3836" interp="linr"  time="-9999999/1" value="1.0543016975308059" leadInLength="0/1"  />
            <InterpolatingParam id="3837" interp="linr"  time="-9999999/1" value="1.0543016975308064" leadInLength="0/1"  />
            <InterpolatingParam id="3838" interp="linr"  time="-9999999/1" value="1" leadInLength="0/1"  />
           </VectorParam>
           <VectorParam id="3839"  name="anchor">
            <InterpolatingParam id="3840" interp="linr"  time="0/1" value="0" leadInLength="0/1"  />
            <InterpolatingParam id="3841" interp="linr"  time="0/1" value="0" leadInLength="0/1"  />
            <InterpolatingParam id="3842" interp="linr"  time="0/1" value="0" leadInLength="0/1"  />
           </VectorParam>
          </Transformer>
          <Parameters>
           <VectorParam id="3843"  name="sourceCrop">
            <InterpolatingParam id="3844" interp="linr"  time="0/1" value="0" leadInLength="0/1"  />
            <InterpolatingParam id="3845" interp="linr"  time="0/1" value="0" leadInLength="0/1"  />
            <InterpolatingParam id="3846" interp="linr"  time="0/1" value="0" leadInLength="0/1"  />
            <InterpolatingParam id="3847" interp="linr"  time="0/1" value="0" leadInLength="0/1"  />
           </VectorParam>
           <VectorParam id="3848"  name="geometryCrop">
            <InterpolatingParam id="3849" interp="linr"  time="-9999999/1" value="0" leadInLength="0/1"  />
            <InterpolatingParam id="3850" interp="linr"  time="-9999999/1" value="0" leadInLength="0/1"  />
            <InterpolatingParam id="3851" interp="linr"  time="-9999999/1" value="0" leadInLength="0/1"  />
            <InterpolatingParam id="3852" interp="linr"  time="-9999999/1" value="0" leadInLength="0/1"  />
           </VectorParam>
           <InterpolatingParam id="3853" interp="linr"  time="-9999999/1" value="1" leadInLength="0/1"  name="opacity"/>
          </Parameters>
          <Attributes>
           <Attribute id="3854" value="" name="ident"/>
          </Attributes>
          <ExtraData>
           <Entry key="ZoomPanBin">
            <ZoomPanBin id="3855"  >
             <ZoomPanKeyframes>
              <ZoomPanKeyframe id="3856" timeRangeEnd="-9999999/1" timeRangeDuration="0/1" interpolaterName="linr"  />
             </ZoomPanKeyframes>
            </ZoomPanBin>
           </Entry>
          </ExtraData>
         </VMFile>
         <MetaData>
          <entry key="WinSubProjectDisplayName" val=""/>
         </MetaData>
        </UnifiedMedia>
        <UnifiedMedia id="3857"  >
         <AMFile id="3858" start="6224" duration="146" scalar="54656629715/107236250394" mediaStart="2419082353051/2246162865" mediaDuration="214472500788/748720955" trackNumber="1" src="24" channelNumber="0" >
          <Parameters>
           <InterpolatingParam id="3859" interp="linr"  name="volume">
            <Keyframes>
            <Keyframe id="3860"  time="-1/1" value="1" leadInLength="0/1"  />
            <Keyframe id="3861"  time="0/1" value="0" leadInLength="0/1"  />
            <Keyframe id="3862"  time="1989/1" value="0" leadInLength="0/1"  />
            <Keyframe id="3863"  time="1990/1" value="1" leadInLength="0/1"  />
            </Keyframes>
           </InterpolatingParam>
           <Parameter id="3864"  name="captions"/>
          </Parameters>
          <Attributes>
           <Attribute id="3865" value="" name="ident"/>
           <Attribute id="3866" value="48000" name="sampleRate"/>
           <Attribute id="3867" value="16" name="bitDepth"/>
           <Attribute id="3868" value="1" name="gain"/>
           <Attribute id="3869" value="0" name="mixToMono"/>
          </Attributes>
         </AMFile>
         <VMFile id="3870" start="6224" duration="146" scalar="54656629715/107236250394" mediaStart="2419082353051/2246162865" mediaDuration="214472500788/748720955" trackNumber="0" src="24" >
          <Transformer>
           <VectorParam id="3871"  name="translation">
            <InterpolatingParam id="3872" interp="linr"  time="-9999999/1" value="-112.13120567456131" leadInLength="0/1"  />
            <InterpolatingParam id="3873" interp="linr"  time="-9999999/1" value="186.65624999968878" leadInLength="0/1"  />
            <InterpolatingParam id="3874" interp="linr"  time="-9999999/1" value="1.1353053907290305e-022" leadInLength="0/1"  />
           </VectorParam>
           <VectorParam id="3875"  name="rotation">
            <InterpolatingParam id="3876" interp="linr"  time="-9999999/1" value="0" leadInLength="0/1"  />
            <InterpolatingParam id="3877" interp="linr"  time="-9999999/1" value="0" leadInLength="0/1"  />
            <InterpolatingParam id="3878" interp="linr"  time="-9999999/1" value="0" leadInLength="0/1"  />
           </VectorParam>
           <VectorParam id="3879"  name="shear">
            <InterpolatingParam id="3880" interp="linr"  time="-9999999/1" value="0" leadInLength="0/1"  />
            <InterpolatingParam id="3881" interp="linr"  time="-9999999/1" value="0" leadInLength="0/1"  />
            <InterpolatingParam id="3882" interp="linr"  time="-9999999/1" value="0" leadInLength="0/1"  />
           </VectorParam>
           <VectorParam id="3883"  name="scale">
            <InterpolatingParam id="3884" interp="linr"  time="-9999999/1" value="1.0543016975308059" leadInLength="0/1"  />
            <InterpolatingParam id="3885" interp="linr"  time="-9999999/1" value="1.0543016975308064" leadInLength="0/1"  />
            <InterpolatingParam id="3886" interp="linr"  time="-9999999/1" value="1" leadInLength="0/1"  />
           </VectorParam>
           <VectorParam id="3887"  name="anchor">
            <InterpolatingParam id="3888" interp="linr"  time="0/1" value="0" leadInLength="0/1"  />
            <InterpolatingParam id="3889" interp="linr"  time="0/1" value="0" leadInLength="0/1"  />
            <InterpolatingParam id="3890" interp="linr"  time="0/1" value="0" leadInLength="0/1"  />
           </VectorParam>
          </Transformer>
          <Parameters>
           <VectorParam id="3891"  name="sourceCrop">
            <InterpolatingParam id="3892" interp="linr"  time="0/1" value="0" leadInLength="0/1"  />
            <InterpolatingParam id="3893" interp="linr"  time="0/1" value="0" leadInLength="0/1"  />
            <InterpolatingParam id="3894" interp="linr"  time="0/1" value="0" leadInLength="0/1"  />
            <InterpolatingParam id="3895" interp="linr"  time="0/1" value="0" leadInLength="0/1"  />
           </VectorParam>
           <VectorParam id="3896"  name="geometryCrop">
            <InterpolatingParam id="3897" interp="linr"  time="-9999999/1" value="0" leadInLength="0/1"  />
            <InterpolatingParam id="3898" interp="linr"  time="-9999999/1" value="0" leadInLength="0/1"  />
            <InterpolatingParam id="3899" interp="linr"  time="-9999999/1" value="0" leadInLength="0/1"  />
            <InterpolatingParam id="3900" interp="linr"  time="-9999999/1" value="0" leadInLength="0/1"  />
           </VectorParam>
           <InterpolatingParam id="3901" interp="linr"  time="-9999999/1" value="1" leadInLength="0/1"  name="opacity"/>
          </Parameters>
          <Attributes>
           <Attribute id="3902" value="" name="ident"/>
          </Attributes>
          <ExtraData>
           <Entry key="ZoomPanBin">
            <ZoomPanBin id="3903"  >
             <ZoomPanKeyframes>
              <ZoomPanKeyframe id="3904" timeRangeEnd="-9999999/1" timeRangeDuration="0/1" interpolaterName="linr"  />
             </ZoomPanKeyframes>
            </ZoomPanBin>
           </Entry>
          </ExtraData>
         </VMFile>
         <MetaData>
          <entry key="WinSubProjectDisplayName" val=""/>
         </MetaData>
        </UnifiedMedia>
        <UnifiedMedia id="3905"  >
         <AMFile id="3906" start="6370" duration="24" scalar="12492703575/18749358719" mediaStart="254501057629/181053675" mediaDuration="149994869752/4164234525" trackNumber="1" src="24" channelNumber="0" >
          <Parameters>
           <InterpolatingParam id="3907" interp="linr"  name="volume">
            <Keyframes>
            <Keyframe id="3908"  time="-1/1" value="1" leadInLength="0/1"  />
            <Keyframe id="3909"  time="0/1" value="0" leadInLength="0/1"  />
            <Keyframe id="3910"  time="1989/1" value="0" leadInLength="0/1"  />
            <Keyframe id="3911"  time="1990/1" value="1" leadInLength="0/1"  />
            </Keyframes>
           </InterpolatingParam>
           <Parameter id="3912"  name="captions"/>
          </Parameters>
          <Attributes>
           <Attribute id="3913" value="" name="ident"/>
           <Attribute id="3914" value="48000" name="sampleRate"/>
           <Attribute id="3915" value="16" name="bitDepth"/>
           <Attribute id="3916" value="1" name="gain"/>
           <Attribute id="3917" value="0" name="mixToMono"/>
          </Attributes>
         </AMFile>
         <VMFile id="3918" start="6370" duration="24" scalar="12492703575/18749358719" mediaStart="254501057629/181053675" mediaDuration="149994869752/4164234525" trackNumber="0" src="24" >
          <Transformer>
           <VectorParam id="3919"  name="translation">
            <InterpolatingParam id="3920" interp="linr"  time="-9999999/1" value="-112.13120567456131" leadInLength="0/1"  />
            <InterpolatingParam id="3921" interp="linr"  time="-9999999/1" value="186.65624999968878" leadInLength="0/1"  />
            <InterpolatingParam id="3922" interp="linr"  time="-9999999/1" value="1.1353053907290305e-022" leadInLength="0/1"  />
           </VectorParam>
           <VectorParam id="3923"  name="rotation">
            <InterpolatingParam id="3924" interp="linr"  time="-9999999/1" value="0" leadInLength="0/1"  />
            <InterpolatingParam id="3925" interp="linr"  time="-9999999/1" value="0" leadInLength="0/1"  />
            <InterpolatingParam id="3926" interp="linr"  time="-9999999/1" value="0" leadInLength="0/1"  />
           </VectorParam>
           <VectorParam id="3927"  name="shear">
            <InterpolatingParam id="3928" interp="linr"  time="-9999999/1" value="0" leadInLength="0/1"  />
            <InterpolatingParam id="3929" interp="linr"  time="-9999999/1" value="0" leadInLength="0/1"  />
            <InterpolatingParam id="3930" interp="linr"  time="-9999999/1" value="0" leadInLength="0/1"  />
           </VectorParam>
           <VectorParam id="3931"  name="scale">
            <InterpolatingParam id="3932" interp="linr"  time="-9999999/1" value="1.0543016975308059" leadInLength="0/1"  />
            <InterpolatingParam id="3933" interp="linr"  time="-9999999/1" value="1.0543016975308064" leadInLength="0/1"  />
            <InterpolatingParam id="3934" interp="linr"  time="-9999999/1" value="1" leadInLength="0/1"  />
           </VectorParam>
           <VectorParam id="3935"  name="anchor">
            <InterpolatingParam id="3936" interp="linr"  time="0/1" value="0" leadInLength="0/1"  />
            <InterpolatingParam id="3937" interp="linr"  time="0/1" value="0" leadInLength="0/1"  />
            <InterpolatingParam id="3938" interp="linr"  time="0/1" value="0" leadInLength="0/1"  />
           </VectorParam>
          </Transformer>
          <Parameters>
           <VectorParam id="3939"  name="sourceCrop">
            <InterpolatingParam id="3940" interp="linr"  time="0/1" value="0" leadInLength="0/1"  />
            <InterpolatingParam id="3941" interp="linr"  time="0/1" value="0" leadInLength="0/1"  />
            <InterpolatingParam id="3942" interp="linr"  time="0/1" value="0" leadInLength="0/1"  />
            <InterpolatingParam id="3943" interp="linr"  time="0/1" value="0" leadInLength="0/1"  />
           </VectorParam>
           <VectorParam id="3944"  name="geometryCrop">
            <InterpolatingParam id="3945" interp="linr"  time="-9999999/1" value="0" leadInLength="0/1"  />
            <InterpolatingParam id="3946" interp="linr"  time="-9999999/1" value="0" leadInLength="0/1"  />
            <InterpolatingParam id="3947" interp="linr"  time="-9999999/1" value="0" leadInLength="0/1"  />
            <InterpolatingParam id="3948" interp="linr"  time="-9999999/1" value="0" leadInLength="0/1"  />
           </VectorParam>
           <InterpolatingParam id="3949" interp="linr"  time="-9999999/1" value="1" leadInLength="0/1"  name="opacity"/>
          </Parameters>
          <Attributes>
           <Attribute id="3950" value="" name="ident"/>
          </Attributes>
          <ExtraData>
           <Entry key="ZoomPanBin">
            <ZoomPanBin id="3951"  >
             <ZoomPanKeyframes>
              <ZoomPanKeyframe id="3952" timeRangeEnd="-9999999/1" timeRangeDuration="0/1" interpolaterName="linr"  />
             </ZoomPanKeyframes>
            </ZoomPanBin>
           </Entry>
          </ExtraData>
         </VMFile>
         <MetaData>
          <entry key="WinSubProjectDisplayName" val=""/>
         </MetaData>
        </UnifiedMedia>
        <UnifiedMedia id="3953"  >
         <AMFile id="3954" start="6394" duration="89" scalar="18119047111/19893218800" mediaStart="2001173065073/1388078175" mediaDuration="19893218800/203584799" trackNumber="1" src="24" channelNumber="0" >
          <Parameters>
           <InterpolatingParam id="3955" interp="linr"  name="volume">
            <Keyframes>
            <Keyframe id="3956"  time="-1/1" value="1" leadInLength="0/1"  />
            <Keyframe id="3957"  time="0/1" value="0" leadInLength="0/1"  />
            <Keyframe id="3958"  time="1989/1" value="0" leadInLength="0/1"  />
            <Keyframe id="3959"  time="1990/1" value="1" leadInLength="0/1"  />
            </Keyframes>
           </InterpolatingParam>
           <Parameter id="3960"  name="captions"/>
          </Parameters>
          <Attributes>
           <Attribute id="3961" value="" name="ident"/>
           <Attribute id="3962" value="48000" name="sampleRate"/>
           <Attribute id="3963" value="16" name="bitDepth"/>
           <Attribute id="3964" value="1" name="gain"/>
           <Attribute id="3965" value="0" name="mixToMono"/>
          </Attributes>
         </AMFile>
         <VMFile id="3966" start="6394" duration="89" scalar="18119047111/19893218800" mediaStart="2001173065073/1388078175" mediaDuration="19893218800/203584799" trackNumber="0" src="24" >
          <Transformer>
           <VectorParam id="3967"  name="translation">
            <InterpolatingParam id="3968" interp="linr"  time="-9999999/1" value="-112.13120567456129" leadInLength="0/1"  />
            <InterpolatingParam id="3969" interp="linr"  time="-9999999/1" value="186.65624999968878" leadInLength="0/1"  />
            <InterpolatingParam id="3970" interp="linr"  time="-9999999/1" value="1.1353053907290305e-022" leadInLength="0/1"  />
           </VectorParam>
           <VectorParam id="3971"  name="rotation">
            <InterpolatingParam id="3972" interp="linr"  time="-9999999/1" value="0" leadInLength="0/1"  />
            <InterpolatingParam id="3973" interp="linr"  time="-9999999/1" value="0" leadInLength="0/1"  />
            <InterpolatingParam id="3974" interp="linr"  time="-9999999/1" value="0" leadInLength="0/1"  />
           </VectorParam>
           <VectorParam id="3975"  name="shear">
            <InterpolatingParam id="3976" interp="linr"  time="-9999999/1" value="0" leadInLength="0/1"  />
            <InterpolatingParam id="3977" interp="linr"  time="-9999999/1" value="0" leadInLength="0/1"  />
            <InterpolatingParam id="3978" interp="linr"  time="-9999999/1" value="0" leadInLength="0/1"  />
           </VectorParam>
           <VectorParam id="3979"  name="scale">
            <InterpolatingParam id="3980" interp="linr"  time="-9999999/1" value="1.0543016975308059" leadInLength="0/1"  />
            <InterpolatingParam id="3981" interp="linr"  time="-9999999/1" value="1.0543016975308064" leadInLength="0/1"  />
            <InterpolatingParam id="3982" interp="linr"  time="-9999999/1" value="1" leadInLength="0/1"  />
           </VectorParam>
           <VectorParam id="3983"  name="anchor">
            <InterpolatingParam id="3984" interp="linr"  time="0/1" value="0" leadInLength="0/1"  />
            <InterpolatingParam id="3985" interp="linr"  time="0/1" value="0" leadInLength="0/1"  />
            <InterpolatingParam id="3986" interp="linr"  time="0/1" value="0" leadInLength="0/1"  />
           </VectorParam>
          </Transformer>
          <Parameters>
           <VectorParam id="3987"  name="sourceCrop">
            <InterpolatingParam id="3988" interp="linr"  time="0/1" value="0" leadInLength="0/1"  />
            <InterpolatingParam id="3989" interp="linr"  time="0/1" value="0" leadInLength="0/1"  />
            <InterpolatingParam id="3990" interp="linr"  time="0/1" value="0" leadInLength="0/1"  />
            <InterpolatingParam id="3991" interp="linr"  time="0/1" value="0" leadInLength="0/1"  />
           </VectorParam>
           <VectorParam id="3992"  name="geometryCrop">
            <InterpolatingParam id="3993" interp="linr"  time="-9999999/1" value="0" leadInLength="0/1"  />
            <InterpolatingParam id="3994" interp="linr"  time="-9999999/1" value="0" leadInLength="0/1"  />
            <InterpolatingParam id="3995" interp="linr"  time="-9999999/1" value="0" leadInLength="0/1"  />
            <InterpolatingParam id="3996" interp="linr"  time="-9999999/1" value="0" leadInLength="0/1"  />
           </VectorParam>
           <InterpolatingParam id="3997" interp="linr"  time="-9999999/1" value="1" leadInLength="0/1"  name="opacity"/>
          </Parameters>
          <Attributes>
           <Attribute id="3998" value="" name="ident"/>
          </Attributes>
          <ExtraData>
           <Entry key="ZoomPanBin">
            <ZoomPanBin id="3999"  >
             <ZoomPanKeyframes>
              <ZoomPanKeyframe id="4000" timeRangeEnd="-9999999/1" timeRangeDuration="0/1" interpolaterName="linr"  />
             </ZoomPanKeyframes>
            </ZoomPanBin>
           </Entry>
          </ExtraData>
         </VMFile>
         <MetaData>
          <entry key="WinSubProjectDisplayName" val=""/>
         </MetaData>
        </UnifiedMedia>
        <UnifiedMedia id="4001"  >
         <AMFile id="4002" start="6483" duration="125" scalar="203584799/397864376" mediaStart="25444483958803/15268859925" mediaDuration="49733047000/203584799" trackNumber="1" src="24" channelNumber="0" >
          <Parameters>
           <InterpolatingParam id="4003" interp="linr"  name="volume">
            <Keyframes>
            <Keyframe id="4004"  time="-1/1" value="1" leadInLength="0/1"  />
            <Keyframe id="4005"  time="0/1" value="0" leadInLength="0/1"  />
            <Keyframe id="4006"  time="1989/1" value="0" leadInLength="0/1"  />
            <Keyframe id="4007"  time="1990/1" value="1" leadInLength="0/1"  />
            </Keyframes>
           </InterpolatingParam>
           <Parameter id="4008"  name="captions"/>
          </Parameters>
          <Attributes>
           <Attribute id="4009" value="" name="ident"/>
           <Attribute id="4010" value="48000" name="sampleRate"/>
           <Attribute id="4011" value="16" name="bitDepth"/>
           <Attribute id="4012" value="1" name="gain"/>
           <Attribute id="4013" value="0" name="mixToMono"/>
          </Attributes>
         </AMFile>
         <VMFile id="4014" start="6483" duration="125" scalar="203584799/397864376" mediaStart="25444483958803/15268859925" mediaDuration="49733047000/203584799" trackNumber="0" src="24" >
          <Transformer>
           <VectorParam id="4015"  name="translation">
            <InterpolatingParam id="4016" interp="linr"  time="-9999999/1" value="-112.13120567456131" leadInLength="0/1"  />
            <InterpolatingParam id="4017" interp="linr"  time="-9999999/1" value="186.65624999968878" leadInLength="0/1"  />
            <InterpolatingParam id="4018" interp="linr"  time="-9999999/1" value="1.1353053907290305e-022" leadInLength="0/1"  />
           </VectorParam>
           <VectorParam id="4019"  name="rotation">
            <InterpolatingParam id="4020" interp="linr"  time="-9999999/1" value="0" leadInLength="0/1"  />
            <InterpolatingParam id="4021" interp="linr"  time="-9999999/1" value="0" leadInLength="0/1"  />
            <InterpolatingParam id="4022" interp="linr"  time="-9999999/1" value="0" leadInLength="0/1"  />
           </VectorParam>
           <VectorParam id="4023"  name="shear">
            <InterpolatingParam id="4024" interp="linr"  time="-9999999/1" value="0" leadInLength="0/1"  />
            <InterpolatingParam id="4025" interp="linr"  time="-9999999/1" value="0" leadInLength="0/1"  />
            <InterpolatingParam id="4026" interp="linr"  time="-9999999/1" value="0" leadInLength="0/1"  />
           </VectorParam>
           <VectorParam id="4027"  name="scale">
            <InterpolatingParam id="4028" interp="linr"  time="-9999999/1" value="1.0543016975308059" leadInLength="0/1"  />
            <InterpolatingParam id="4029" interp="linr"  time="-9999999/1" value="1.0543016975308064" leadInLength="0/1"  />
            <InterpolatingParam id="4030" interp="linr"  time="-9999999/1" value="1" leadInLength="0/1"  />
           </VectorParam>
           <VectorParam id="4031"  name="anchor">
            <InterpolatingParam id="4032" interp="linr"  time="0/1" value="0" leadInLength="0/1"  />
            <InterpolatingParam id="4033" interp="linr"  time="0/1" value="0" leadInLength="0/1"  />
            <InterpolatingParam id="4034" interp="linr"  time="0/1" value="0" leadInLength="0/1"  />
           </VectorParam>
          </Transformer>
          <Parameters>
           <VectorParam id="4035"  name="sourceCrop">
            <InterpolatingParam id="4036" interp="linr"  time="0/1" value="0" leadInLength="0/1"  />
            <InterpolatingParam id="4037" interp="linr"  time="0/1" value="0" leadInLength="0/1"  />
            <InterpolatingParam id="4038" interp="linr"  time="0/1" value="0" leadInLength="0/1"  />
            <InterpolatingParam id="4039" interp="linr"  time="0/1" value="0" leadInLength="0/1"  />
           </VectorParam>
           <VectorParam id="4040"  name="geometryCrop">
            <InterpolatingParam id="4041" interp="linr"  time="-9999999/1" value="0" leadInLength="0/1"  />
            <InterpolatingParam id="4042" interp="linr"  time="-9999999/1" value="0" leadInLength="0/1"  />
            <InterpolatingParam id="4043" interp="linr"  time="-9999999/1" value="0" leadInLength="0/1"  />
            <InterpolatingParam id="4044" interp="linr"  time="-9999999/1" value="0" leadInLength="0/1"  />
           </VectorParam>
           <InterpolatingParam id="4045" interp="linr"  time="-9999999/1" value="1" leadInLength="0/1"  name="opacity"/>
          </Parameters>
          <Attributes>
           <Attribute id="4046" value="" name="ident"/>
          </Attributes>
          <ExtraData>
           <Entry key="ZoomPanBin">
            <ZoomPanBin id="4047"  >
             <ZoomPanKeyframes>
              <ZoomPanKeyframe id="4048" timeRangeEnd="-9999999/1" timeRangeDuration="0/1" interpolaterName="linr"  />
             </ZoomPanKeyframes>
            </ZoomPanBin>
           </Entry>
          </ExtraData>
         </VMFile>
         <MetaData>
          <entry key="WinSubProjectDisplayName" val=""/>
         </MetaData>
        </UnifiedMedia>
        <UnifiedMedia id="4049"  >
         <AMFile id="4050" start="6608" duration="54" scalar="54/107" mediaStart="87/1" mediaDuration="107/1" trackNumber="1" src="25" channelNumber="0" >
          <Parameters>
           <InterpolatingParam id="4051" interp="linr"  name="volume">
            <Keyframes>
            <Keyframe id="4052"  time="-1/1" value="1" leadInLength="0/1"  />
            <Keyframe id="4053"  time="0/1" value="0" leadInLength="0/1"  />
            <Keyframe id="4054"  time="1707/1" value="0" leadInLength="0/1"  />
            <Keyframe id="4055"  time="1708/1" value="1" leadInLength="0/1"  />
            </Keyframes>
           </InterpolatingParam>
           <Parameter id="4056"  name="captions"/>
          </Parameters>
          <Attributes>
           <Attribute id="4057" value="" name="ident"/>
           <Attribute id="4058" value="44100" name="sampleRate"/>
           <Attribute id="4059" value="16" name="bitDepth"/>
           <Attribute id="4060" value="1" name="gain"/>
           <Attribute id="4061" value="0" name="mixToMono"/>
          </Attributes>
         </AMFile>
         <VMFile id="4062" start="6608" duration="54" scalar="54/107" mediaStart="87/1" mediaDuration="107/1" trackNumber="0" src="25" >
          <Transformer>
           <VectorParam id="4063"  name="translation">
            <InterpolatingParam id="4064" interp="linr"  time="-9999999/1" value="-86.130417652112584" leadInLength="0/1"  />
            <InterpolatingParam id="4065" interp="linr"  time="-9999999/1" value="223.94835992917251" leadInLength="0/1"  />
            <InterpolatingParam id="4066" interp="linr"  time="-9999999/1" value="0" leadInLength="0/1"  />
           </VectorParam>
           <VectorParam id="4067"  name="rotation">
            <InterpolatingParam id="4068" interp="linr"  time="-9999999/1" value="0" leadInLength="0/1"  />
            <InterpolatingParam id="4069" interp="linr"  time="-9999999/1" value="0" leadInLength="0/1"  />
            <InterpolatingParam id="4070" interp="linr"  time="-9999999/1" value="0" leadInLength="0/1"  />
           </VectorParam>
           <VectorParam id="4071"  name="shear">
            <InterpolatingParam id="4072" interp="linr"  time="-9999999/1" value="0" leadInLength="0/1"  />
            <InterpolatingParam id="4073" interp="linr"  time="-9999999/1" value="0" leadInLength="0/1"  />
            <InterpolatingParam id="4074" interp="linr"  time="-9999999/1" value="0" leadInLength="0/1"  />
           </VectorParam>
           <VectorParam id="4075"  name="scale">
            <InterpolatingParam id="4076" interp="linr"  time="-9999999/1" value="1.0813858517210821" leadInLength="0/1"  />
            <InterpolatingParam id="4077" interp="linr"  time="-9999999/1" value="1.0813858517210824" leadInLength="0/1"  />
            <InterpolatingParam id="4078" interp="linr"  time="-9999999/1" value="1" leadInLength="0/1"  />
           </VectorParam>
           <VectorParam id="4079"  name="anchor">
            <InterpolatingParam id="4080" interp="linr"  time="0/1" value="0" leadInLength="0/1"  />
            <InterpolatingParam id="4081" interp="linr"  time="0/1" value="0" leadInLength="0/1"  />
            <InterpolatingParam id="4082" interp="linr"  time="0/1" value="0" leadInLength="0/1"  />
           </VectorParam>
          </Transformer>
          <Parameters>
           <VectorParam id="4083"  name="sourceCrop">
            <InterpolatingParam id="4084" interp="linr"  time="0/1" value="0" leadInLength="0/1"  />
            <InterpolatingParam id="4085" interp="linr"  time="0/1" value="0" leadInLength="0/1"  />
            <InterpolatingParam id="4086" interp="linr"  time="0/1" value="0" leadInLength="0/1"  />
            <InterpolatingParam id="4087" interp="linr"  time="0/1" value="0" leadInLength="0/1"  />
           </VectorParam>
           <VectorParam id="4088"  name="geometryCrop">
            <InterpolatingParam id="4089" interp="linr"  time="-9999999/1" value="0" leadInLength="0/1"  />
            <InterpolatingParam id="4090" interp="linr"  time="-9999999/1" value="0" leadInLength="0/1"  />
            <InterpolatingParam id="4091" interp="linr"  time="-9999999/1" value="0" leadInLength="0/1"  />
            <InterpolatingParam id="4092" interp="linr"  time="-9999999/1" value="0" leadInLength="0/1"  />
           </VectorParam>
           <InterpolatingParam id="4093" interp="linr"  time="-9999999/1" value="1" leadInLength="0/1"  name="opacity"/>
          </Parameters>
          <Attributes>
           <Attribute id="4094" value="" name="ident"/>
          </Attributes>
          <ExtraData>
           <Entry key="ZoomPanBin">
            <ZoomPanBin id="4095"  >
             <ZoomPanKeyframes>
              <ZoomPanKeyframe id="4096" timeRangeEnd="-9999999/1" timeRangeDuration="0/1" interpolaterName="linr"  />
             </ZoomPanKeyframes>
            </ZoomPanBin>
           </Entry>
          </ExtraData>
         </VMFile>
         <MetaData>
          <entry key="WinSubProjectDisplayName" val=""/>
         </MetaData>
        </UnifiedMedia>
        <StitchedMedia id="4097" start="6662" duration="153" scalar="1364620/686553" mediaStart="9028/31" mediaDuration="105042609/1364620" minMediaStart="0/1" >
         <Transformer>
          <VectorParam id="4098"  name="translation">
           <InterpolatingParam id="4099" interp="linr"  time="-9999999/1" value="-36.857142857101223" leadInLength="0/1"  />
           <InterpolatingParam id="4100" interp="linr"  time="-9999999/1" value="196.2321428573905" leadInLength="0/1"  />
           <InterpolatingParam id="4101" interp="linr"  time="-9999999/1" value="0" leadInLength="0/1"  />
          </VectorParam>
          <VectorParam id="4102"  name="rotation">
           <InterpolatingParam id="4103" interp="linr"  time="-9999999/1" value="0" leadInLength="0/1"  />
           <InterpolatingParam id="4104" interp="linr"  time="-9999999/1" value="0" leadInLength="0/1"  />
           <InterpolatingParam id="4105" interp="linr"  time="-9999999/1" value="0" leadInLength="0/1"  />
          </VectorParam>
          <VectorParam id="4106"  name="shear">
           <InterpolatingParam id="4107" interp="linr"  time="-9999999/1" value="0" leadInLength="0/1"  />
           <InterpolatingParam id="4108" interp="linr"  time="-9999999/1" value="0" leadInLength="0/1"  />
           <InterpolatingParam id="4109" interp="linr"  time="-9999999/1" value="0" leadInLength="0/1"  />
          </VectorParam>
          <VectorParam id="4110"  name="scale">
           <InterpolatingParam id="4111" interp="linr"  time="-9999999/1" value="1.0300595238099823" leadInLength="0/1"  />
           <InterpolatingParam id="4112" interp="linr"  time="-9999999/1" value="1.0300595238099826" leadInLength="0/1"  />
           <InterpolatingParam id="4113" interp="linr"  time="-9999999/1" value="1" leadInLength="0/1"  />
          </VectorParam>
          <VectorParam id="4114"  name="anchor">
           <InterpolatingParam id="4115" interp="linr"  time="0/1" value="0" leadInLength="0/1"  />
           <InterpolatingParam id="4116" interp="linr"  time="0/1" value="0" leadInLength="0/1"  />
           <InterpolatingParam id="4117" interp="linr"  time="0/1" value="0" leadInLength="0/1"  />
          </VectorParam>
         </Transformer>
         <Parameters>
          <VectorParam id="4118"  name="sourceCrop">
           <InterpolatingParam id="4119" interp="linr"  time="0/1" value="0" leadInLength="0/1"  />
           <InterpolatingParam id="4120" interp="linr"  time="0/1" value="0" leadInLength="0/1"  />
           <InterpolatingParam id="4121" interp="linr"  time="0/1" value="0" leadInLength="0/1"  />
           <InterpolatingParam id="4122" interp="linr"  time="0/1" value="0" leadInLength="0/1"  />
          </VectorParam>
          <VectorParam id="4123"  name="geometryCrop">
           <InterpolatingParam id="4124" interp="linr"  time="-9999999/1" value="0" leadInLength="0/1"  />
           <InterpolatingParam id="4125" interp="linr"  time="-9999999/1" value="0" leadInLength="0/1"  />
           <InterpolatingParam id="4126" interp="linr"  time="-9999999/1" value="0" leadInLength="0/1"  />
           <InterpolatingParam id="4127" interp="linr"  time="-9999999/1" value="0" leadInLength="0/1"  />
          </VectorParam>
          <InterpolatingParam id="4128" interp="linr"  time="-9999999/1" value="1" leadInLength="0/1"  name="opacity"/>
          <InterpolatingParam id="4129" interp="linr"  time="0/1" value="1" leadInLength="0/1"  name="cursorOpacity"/>
          <InterpolatingParam id="4130" interp="linr"  time="0/1" value="1" leadInLength="0/1"  name="cursorScale"/>
          <InterpolatingParam id="4131" interp="linr"  name="volume">
           <Keyframes>
           <Keyframe id="4132"  time="-1/1" value="1" leadInLength="0/1"  />
           <Keyframe id="4133"  time="0/1" value="0" leadInLength="0/1"  />
           <Keyframe id="4134"  time="2435356789/1582519" value="0" leadInLength="0/1"  />
           <Keyframe id="4135"  time="2436939308/1582519" value="1" leadInLength="0/1"  />
           </Keyframes>
          </InterpolatingParam>
          <Parameter id="4136"  name="captions"/>
         </Parameters>
         <Attributes>
          <Attribute id="4137" value="" name="ident"/>
          <Attribute id="4138" value="0" name="mixToMono"/>
         </Attributes>
         <MetaData>
          <entry key="WinSubProjectDisplayName" val=""/>
         </MetaData>
         <ExtraData>
          <Entry key="ZoomPanBin">
           <ZoomPanBin id="4139"  >
            <ZoomPanKeyframes>
             <ZoomPanKeyframe id="4140" timeRangeEnd="-9999999/1" timeRangeDuration="0/1" interpolaterName="linr"  />
            </ZoomPanKeyframes>
           </ZoomPanBin>
          </Entry>
          <Entry key="CursorEffectBin">
           <CursorEffectBin id="4141"  >
            <CursorEffectKeyframes>
            </CursorEffectKeyframes>
           </CursorEffectBin>
          </Entry>
         </ExtraData>
         <GenericTrack id="4142"  >
          <Attributes>
           <Attribute id="4143" value="" name="ident"/>
           <Attribute id="4144" value="0" name="audioMuted"/>
           <Attribute id="4145" value="0" name="videoHidden"/>
          </Attributes>
          <MetaData>
           <entry key="IsLocked" val="False"/>
           <entry key="WinTrackHeight" val="0"/>
          </MetaData>
          <Medias>
           <UnifiedMedia id="4146"  >
            <AMFile id="4147" start="0" duration="352" scalar="1/1" mediaStart="0/1" mediaDuration="352/1" trackNumber="1" src="25" channelNumber="0" >
             <Parameters>
              <InterpolatingParam id="4148" interp="linr"  time="0/1" value="1" leadInLength="0/1"  name="volume"/>
              <Parameter id="4149"  name="captions"/>
             </Parameters>
             <Attributes>
              <Attribute id="4150" value="" name="ident"/>
              <Attribute id="4151" value="44100" name="sampleRate"/>
              <Attribute id="4152" value="16" name="bitDepth"/>
              <Attribute id="4153" value="1" name="gain"/>
              <Attribute id="4154" value="0" name="mixToMono"/>
             </Attributes>
            </AMFile>
            <VMFile id="4155" start="0" duration="352" scalar="1/1" mediaStart="0/1" mediaDuration="352/1" trackNumber="0" src="25" >
             <Transformer>
              <VectorParam id="4156"  name="translation">
               <InterpolatingParam id="4157" interp="linr"  time="-9999999/1" value="0" leadInLength="0/1"  />
               <InterpolatingParam id="4158" interp="linr"  time="-9999999/1" value="0" leadInLength="0/1"  />
               <InterpolatingParam id="4159" interp="linr"  time="-9999999/1" value="0" leadInLength="0/1"  />
              </VectorParam>
              <VectorParam id="4160"  name="rotation">
               <InterpolatingParam id="4161" interp="linr"  time="-9999999/1" value="0" leadInLength="0/1"  />
               <InterpolatingParam id="4162" interp="linr"  time="-9999999/1" value="0" leadInLength="0/1"  />
               <InterpolatingParam id="4163" interp="linr"  time="-9999999/1" value="0" leadInLength="0/1"  />
              </VectorParam>
              <VectorParam id="4164"  name="shear">
               <InterpolatingParam id="4165" interp="linr"  time="-9999999/1" value="0" leadInLength="0/1"  />
               <InterpolatingParam id="4166" interp="linr"  time="-9999999/1" value="0" leadInLength="0/1"  />
               <InterpolatingParam id="4167" interp="linr"  time="-9999999/1" value="0" leadInLength="0/1"  />
              </VectorParam>
              <VectorParam id="4168"  name="scale">
               <InterpolatingParam id="4169" interp="linr"  time="-9999999/1" value="1" leadInLength="0/1"  />
               <InterpolatingParam id="4170" interp="linr"  time="-9999999/1" value="1" leadInLength="0/1"  />
               <InterpolatingParam id="4171" interp="linr"  time="-9999999/1" value="1" leadInLength="0/1"  />
              </VectorParam>
              <VectorParam id="4172"  name="anchor">
               <InterpolatingParam id="4173" interp="linr"  time="0/1" value="0" leadInLength="0/1"  />
               <InterpolatingParam id="4174" interp="linr"  time="0/1" value="0" leadInLength="0/1"  />
               <InterpolatingParam id="4175" interp="linr"  time="0/1" value="0" leadInLength="0/1"  />
              </VectorParam>
             </Transformer>
             <Parameters>
              <VectorParam id="4176"  name="sourceCrop">
               <InterpolatingParam id="4177" interp="linr"  time="0/1" value="0" leadInLength="0/1"  />
               <InterpolatingParam id="4178" interp="linr"  time="0/1" value="0" leadInLength="0/1"  />
               <InterpolatingParam id="4179" interp="linr"  time="0/1" value="0" leadInLength="0/1"  />
               <InterpolatingParam id="4180" interp="linr"  time="0/1" value="0" leadInLength="0/1"  />
              </VectorParam>
              <VectorParam id="4181"  name="geometryCrop">
               <InterpolatingParam id="4182" interp="linr"  time="-9999999/1" value="0" leadInLength="0/1"  />
               <InterpolatingParam id="4183" interp="linr"  time="-9999999/1" value="0" leadInLength="0/1"  />
               <InterpolatingParam id="4184" interp="linr"  time="-9999999/1" value="0" leadInLength="0/1"  />
               <InterpolatingParam id="4185" interp="linr"  time="-9999999/1" value="0" leadInLength="0/1"  />
              </VectorParam>
              <InterpolatingParam id="4186" interp="linr"  time="-9999999/1" value="1" leadInLength="0/1"  name="opacity"/>
             </Parameters>
             <Attributes>
              <Attribute id="4187" value="" name="ident"/>
             </Attributes>
             <ExtraData>
              <Entry key="ZoomPanBin">
               <ZoomPanBin id="4188"  >
                <ZoomPanKeyframes>
                 <ZoomPanKeyframe id="4189" timeRangeEnd="-9999999/1" timeRangeDuration="0/1" interpolaterName="linr"  />
                </ZoomPanKeyframes>
               </ZoomPanBin>
              </Entry>
             </ExtraData>
            </VMFile>
            <MetaData>
             <entry key="WinSubProjectDisplayName" val=""/>
            </MetaData>
           </UnifiedMedia>
           <UnifiedMedia id="4190"  >
            <AMFile id="4191" start="352" duration="78" scalar="1/1" mediaStart="467/1" mediaDuration="78/1" trackNumber="1" src="25" channelNumber="0" >
             <Parameters>
              <InterpolatingParam id="4192" interp="linr"  time="0/1" value="1" leadInLength="0/1"  name="volume"/>
              <Parameter id="4193"  name="captions"/>
             </Parameters>
             <Attributes>
              <Attribute id="4194" value="" name="ident"/>
              <Attribute id="4195" value="44100" name="sampleRate"/>
              <Attribute id="4196" value="16" name="bitDepth"/>
              <Attribute id="4197" value="1" name="gain"/>
              <Attribute id="4198" value="0" name="mixToMono"/>
             </Attributes>
            </AMFile>
            <VMFile id="4199" start="352" duration="78" scalar="1/1" mediaStart="467/1" mediaDuration="78/1" trackNumber="0" src="25" >
             <Transformer>
              <VectorParam id="4200"  name="translation">
               <InterpolatingParam id="4201" interp="linr"  time="-9999999/1" value="0" leadInLength="0/1"  />
               <InterpolatingParam id="4202" interp="linr"  time="-9999999/1" value="0" leadInLength="0/1"  />
               <InterpolatingParam id="4203" interp="linr"  time="-9999999/1" value="0" leadInLength="0/1"  />
              </VectorParam>
              <VectorParam id="4204"  name="rotation">
               <InterpolatingParam id="4205" interp="linr"  time="-9999999/1" value="0" leadInLength="0/1"  />
               <InterpolatingParam id="4206" interp="linr"  time="-9999999/1" value="0" leadInLength="0/1"  />
               <InterpolatingParam id="4207" interp="linr"  time="-9999999/1" value="0" leadInLength="0/1"  />
              </VectorParam>
              <VectorParam id="4208"  name="shear">
               <InterpolatingParam id="4209" interp="linr"  time="-9999999/1" value="0" leadInLength="0/1"  />
               <InterpolatingParam id="4210" interp="linr"  time="-9999999/1" value="0" leadInLength="0/1"  />
               <InterpolatingParam id="4211" interp="linr"  time="-9999999/1" value="0" leadInLength="0/1"  />
              </VectorParam>
              <VectorParam id="4212"  name="scale">
               <InterpolatingParam id="4213" interp="linr"  time="-9999999/1" value="1" leadInLength="0/1"  />
               <InterpolatingParam id="4214" interp="linr"  time="-9999999/1" value="1" leadInLength="0/1"  />
               <InterpolatingParam id="4215" interp="linr"  time="-9999999/1" value="1" leadInLength="0/1"  />
              </VectorParam>
              <VectorParam id="4216"  name="anchor">
               <InterpolatingParam id="4217" interp="linr"  time="0/1" value="0" leadInLength="0/1"  />
               <InterpolatingParam id="4218" interp="linr"  time="0/1" value="0" leadInLength="0/1"  />
               <InterpolatingParam id="4219" interp="linr"  time="0/1" value="0" leadInLength="0/1"  />
              </VectorParam>
             </Transformer>
             <Parameters>
              <VectorParam id="4220"  name="sourceCrop">
               <InterpolatingParam id="4221" interp="linr"  time="0/1" value="0" leadInLength="0/1"  />
               <InterpolatingParam id="4222" interp="linr"  time="0/1" value="0" leadInLength="0/1"  />
               <InterpolatingParam id="4223" interp="linr"  time="0/1" value="0" leadInLength="0/1"  />
               <InterpolatingParam id="4224" interp="linr"  time="0/1" value="0" leadInLength="0/1"  />
              </VectorParam>
              <VectorParam id="4225"  name="geometryCrop">
               <InterpolatingParam id="4226" interp="linr"  time="-9999999/1" value="0" leadInLength="0/1"  />
               <InterpolatingParam id="4227" interp="linr"  time="-9999999/1" value="0" leadInLength="0/1"  />
               <InterpolatingParam id="4228" interp="linr"  time="-9999999/1" value="0" leadInLength="0/1"  />
               <InterpolatingParam id="4229" interp="linr"  time="-9999999/1" value="0" leadInLength="0/1"  />
              </VectorParam>
              <InterpolatingParam id="4230" interp="linr"  time="-9999999/1" value="1" leadInLength="0/1"  name="opacity"/>
             </Parameters>
             <Attributes>
              <Attribute id="4231" value="" name="ident"/>
             </Attributes>
             <ExtraData>
              <Entry key="ZoomPanBin">
               <ZoomPanBin id="4232"  >
                <ZoomPanKeyframes>
                 <ZoomPanKeyframe id="4233" timeRangeEnd="-9999999/1" timeRangeDuration="0/1" interpolaterName="linr"  />
                </ZoomPanKeyframes>
               </ZoomPanBin>
              </Entry>
             </ExtraData>
            </VMFile>
            <MetaData>
             <entry key="WinSubProjectDisplayName" val=""/>
            </MetaData>
           </UnifiedMedia>
           <UnifiedMedia id="4234"  >
            <AMFile id="4235" start="430" duration="1109" scalar="1/1" mediaStart="596/1" mediaDuration="1109/1" trackNumber="1" src="25" channelNumber="0" >
             <Parameters>
              <InterpolatingParam id="4236" interp="linr"  time="0/1" value="1" leadInLength="0/1"  name="volume"/>
              <Parameter id="4237"  name="captions"/>
             </Parameters>
             <Attributes>
              <Attribute id="4238" value="" name="ident"/>
              <Attribute id="4239" value="44100" name="sampleRate"/>
              <Attribute id="4240" value="16" name="bitDepth"/>
              <Attribute id="4241" value="1" name="gain"/>
              <Attribute id="4242" value="0" name="mixToMono"/>
             </Attributes>
            </AMFile>
            <VMFile id="4243" start="430" duration="1109" scalar="1/1" mediaStart="596/1" mediaDuration="1109/1" trackNumber="0" src="25" >
             <Transformer>
              <VectorParam id="4244"  name="translation">
               <InterpolatingParam id="4245" interp="linr"  time="-9999999/1" value="0" leadInLength="0/1"  />
               <InterpolatingParam id="4246" interp="linr"  time="-9999999/1" value="0" leadInLength="0/1"  />
               <InterpolatingParam id="4247" interp="linr"  time="-9999999/1" value="0" leadInLength="0/1"  />
              </VectorParam>
              <VectorParam id="4248"  name="rotation">
               <InterpolatingParam id="4249" interp="linr"  time="-9999999/1" value="0" leadInLength="0/1"  />
               <InterpolatingParam id="4250" interp="linr"  time="-9999999/1" value="0" leadInLength="0/1"  />
               <InterpolatingParam id="4251" interp="linr"  time="-9999999/1" value="0" leadInLength="0/1"  />
              </VectorParam>
              <VectorParam id="4252"  name="shear">
               <InterpolatingParam id="4253" interp="linr"  time="-9999999/1" value="0" leadInLength="0/1"  />
               <InterpolatingParam id="4254" interp="linr"  time="-9999999/1" value="0" leadInLength="0/1"  />
               <InterpolatingParam id="4255" interp="linr"  time="-9999999/1" value="0" leadInLength="0/1"  />
              </VectorParam>
              <VectorParam id="4256"  name="scale">
               <InterpolatingParam id="4257" interp="linr"  time="-9999999/1" value="1" leadInLength="0/1"  />
               <InterpolatingParam id="4258" interp="linr"  time="-9999999/1" value="1" leadInLength="0/1"  />
               <InterpolatingParam id="4259" interp="linr"  time="-9999999/1" value="1" leadInLength="0/1"  />
              </VectorParam>
              <VectorParam id="4260"  name="anchor">
               <InterpolatingParam id="4261" interp="linr"  time="0/1" value="0" leadInLength="0/1"  />
               <InterpolatingParam id="4262" interp="linr"  time="0/1" value="0" leadInLength="0/1"  />
               <InterpolatingParam id="4263" interp="linr"  time="0/1" value="0" leadInLength="0/1"  />
              </VectorParam>
             </Transformer>
             <Parameters>
              <VectorParam id="4264"  name="sourceCrop">
               <InterpolatingParam id="4265" interp="linr"  time="0/1" value="0" leadInLength="0/1"  />
               <InterpolatingParam id="4266" interp="linr"  time="0/1" value="0" leadInLength="0/1"  />
               <InterpolatingParam id="4267" interp="linr"  time="0/1" value="0" leadInLength="0/1"  />
               <InterpolatingParam id="4268" interp="linr"  time="0/1" value="0" leadInLength="0/1"  />
              </VectorParam>
              <VectorParam id="4269"  name="geometryCrop">
               <InterpolatingParam id="4270" interp="linr"  time="-9999999/1" value="0" leadInLength="0/1"  />
               <InterpolatingParam id="4271" interp="linr"  time="-9999999/1" value="0" leadInLength="0/1"  />
               <InterpolatingParam id="4272" interp="linr"  time="-9999999/1" value="0" leadInLength="0/1"  />
               <InterpolatingParam id="4273" interp="linr"  time="-9999999/1" value="0" leadInLength="0/1"  />
              </VectorParam>
              <InterpolatingParam id="4274" interp="linr"  time="-9999999/1" value="1" leadInLength="0/1"  name="opacity"/>
             </Parameters>
             <Attributes>
              <Attribute id="4275" value="" name="ident"/>
             </Attributes>
             <ExtraData>
              <Entry key="ZoomPanBin">
               <ZoomPanBin id="4276"  >
                <ZoomPanKeyframes>
                 <ZoomPanKeyframe id="4277" timeRangeEnd="-9999999/1" timeRangeDuration="0/1" interpolaterName="linr"  />
                </ZoomPanKeyframes>
               </ZoomPanBin>
              </Entry>
             </ExtraData>
            </VMFile>
            <MetaData>
             <entry key="WinSubProjectDisplayName" val=""/>
            </MetaData>
           </UnifiedMedia>
          </Medias>
         </GenericTrack>
        </StitchedMedia>
        <StitchedMedia id="4278" start="6815" duration="82" scalar="6658025/5263573" mediaStart="3584198539/6658025" mediaDuration="431612986/6658025" minMediaStart="0/1" >
         <Transformer>
          <VectorParam id="4279"  name="translation">
           <InterpolatingParam id="4280" interp="linr"  time="-9999999/1" value="-36.857142857101223" leadInLength="0/1"  />
           <InterpolatingParam id="4281" interp="linr"  time="-9999999/1" value="196.2321428573905" leadInLength="0/1"  />
           <InterpolatingParam id="4282" interp="linr"  time="-9999999/1" value="0" leadInLength="0/1"  />
          </VectorParam>
          <VectorParam id="4283"  name="rotation">
           <InterpolatingParam id="4284" interp="linr"  time="-9999999/1" value="0" leadInLength="0/1"  />
           <InterpolatingParam id="4285" interp="linr"  time="-9999999/1" value="0" leadInLength="0/1"  />
           <InterpolatingParam id="4286" interp="linr"  time="-9999999/1" value="0" leadInLength="0/1"  />
          </VectorParam>
          <VectorParam id="4287"  name="shear">
           <InterpolatingParam id="4288" interp="linr"  time="-9999999/1" value="0" leadInLength="0/1"  />
           <InterpolatingParam id="4289" interp="linr"  time="-9999999/1" value="0" leadInLength="0/1"  />
           <InterpolatingParam id="4290" interp="linr"  time="-9999999/1" value="0" leadInLength="0/1"  />
          </VectorParam>
          <VectorParam id="4291"  name="scale">
           <InterpolatingParam id="4292" interp="linr"  time="-9999999/1" value="1.0300595238099823" leadInLength="0/1"  />
           <InterpolatingParam id="4293" interp="linr"  time="-9999999/1" value="1.0300595238099826" leadInLength="0/1"  />
           <InterpolatingParam id="4294" interp="linr"  time="-9999999/1" value="1" leadInLength="0/1"  />
          </VectorParam>
          <VectorParam id="4295"  name="anchor">
           <InterpolatingParam id="4296" interp="linr"  time="0/1" value="0" leadInLength="0/1"  />
           <InterpolatingParam id="4297" interp="linr"  time="0/1" value="0" leadInLength="0/1"  />
           <InterpolatingParam id="4298" interp="linr"  time="0/1" value="0" leadInLength="0/1"  />
          </VectorParam>
         </Transformer>
         <Parameters>
          <VectorParam id="4299"  name="sourceCrop">
           <InterpolatingParam id="4300" interp="linr"  time="0/1" value="0" leadInLength="0/1"  />
           <InterpolatingParam id="4301" interp="linr"  time="0/1" value="0" leadInLength="0/1"  />
           <InterpolatingParam id="4302" interp="linr"  time="0/1" value="0" leadInLength="0/1"  />
           <InterpolatingParam id="4303" interp="linr"  time="0/1" value="0" leadInLength="0/1"  />
          </VectorParam>
          <VectorParam id="4304"  name="geometryCrop">
           <InterpolatingParam id="4305" interp="linr"  time="-9999999/1" value="0" leadInLength="0/1"  />
           <InterpolatingParam id="4306" interp="linr"  time="-9999999/1" value="0" leadInLength="0/1"  />
           <InterpolatingParam id="4307" interp="linr"  time="-9999999/1" value="0" leadInLength="0/1"  />
           <InterpolatingParam id="4308" interp="linr"  time="-9999999/1" value="0" leadInLength="0/1"  />
          </VectorParam>
          <InterpolatingParam id="4309" interp="linr"  time="-9999999/1" value="1" leadInLength="0/1"  name="opacity"/>
          <InterpolatingParam id="4310" interp="linr"  time="0/1" value="1" leadInLength="0/1"  name="cursorOpacity"/>
          <InterpolatingParam id="4311" interp="linr"  time="0/1" value="1" leadInLength="0/1"  name="cursorScale"/>
          <InterpolatingParam id="4312" interp="linr"  name="volume">
           <Keyframes>
           <Keyframe id="4313"  time="-1/1" value="1" leadInLength="0/1"  />
           <Keyframe id="4314"  time="0/1" value="0" leadInLength="0/1"  />
           <Keyframe id="4315"  time="2435356789/1582519" value="0" leadInLength="0/1"  />
           <Keyframe id="4316"  time="2436939308/1582519" value="1" leadInLength="0/1"  />
           </Keyframes>
          </InterpolatingParam>
          <Parameter id="4317"  name="captions"/>
         </Parameters>
         <Attributes>
          <Attribute id="4318" value="" name="ident"/>
          <Attribute id="4319" value="0" name="mixToMono"/>
         </Attributes>
         <MetaData>
          <entry key="WinSubProjectDisplayName" val=""/>
         </MetaData>
         <ExtraData>
          <Entry key="ZoomPanBin">
           <ZoomPanBin id="4320"  >
            <ZoomPanKeyframes>
             <ZoomPanKeyframe id="4321" timeRangeEnd="-9999999/1" timeRangeDuration="0/1" interpolaterName="linr"  />
            </ZoomPanKeyframes>
           </ZoomPanBin>
          </Entry>
          <Entry key="CursorEffectBin">
           <CursorEffectBin id="4322"  >
            <CursorEffectKeyframes>
            </CursorEffectKeyframes>
           </CursorEffectBin>
          </Entry>
         </ExtraData>
         <GenericTrack id="4323"  >
          <Attributes>
           <Attribute id="4324" value="" name="ident"/>
           <Attribute id="4325" value="0" name="audioMuted"/>
           <Attribute id="4326" value="0" name="videoHidden"/>
          </Attributes>
          <MetaData>
           <entry key="IsLocked" val="False"/>
           <entry key="WinTrackHeight" val="0"/>
          </MetaData>
          <Medias>
           <UnifiedMedia id="4327"  >
            <AMFile id="4328" start="0" duration="352" scalar="1/1" mediaStart="0/1" mediaDuration="352/1" trackNumber="1" src="25" channelNumber="0" >
             <Parameters>
              <InterpolatingParam id="4329" interp="linr"  time="0/1" value="1" leadInLength="0/1"  name="volume"/>
              <Parameter id="4330"  name="captions"/>
             </Parameters>
             <Attributes>
              <Attribute id="4331" value="" name="ident"/>
              <Attribute id="4332" value="44100" name="sampleRate"/>
              <Attribute id="4333" value="16" name="bitDepth"/>
              <Attribute id="4334" value="1" name="gain"/>
              <Attribute id="4335" value="0" name="mixToMono"/>
             </Attributes>
            </AMFile>
            <VMFile id="4336" start="0" duration="352" scalar="1/1" mediaStart="0/1" mediaDuration="352/1" trackNumber="0" src="25" >
             <Transformer>
              <VectorParam id="4337"  name="translation">
               <InterpolatingParam id="4338" interp="linr"  time="-9999999/1" value="0" leadInLength="0/1"  />
               <InterpolatingParam id="4339" interp="linr"  time="-9999999/1" value="0" leadInLength="0/1"  />
               <InterpolatingParam id="4340" interp="linr"  time="-9999999/1" value="0" leadInLength="0/1"  />
              </VectorParam>
              <VectorParam id="4341"  name="rotation">
               <InterpolatingParam id="4342" interp="linr"  time="-9999999/1" value="0" leadInLength="0/1"  />
               <InterpolatingParam id="4343" interp="linr"  time="-9999999/1" value="0" leadInLength="0/1"  />
               <InterpolatingParam id="4344" interp="linr"  time="-9999999/1" value="0" leadInLength="0/1"  />
              </VectorParam>
              <VectorParam id="4345"  name="shear">
               <InterpolatingParam id="4346" interp="linr"  time="-9999999/1" value="0" leadInLength="0/1"  />
               <InterpolatingParam id="4347" interp="linr"  time="-9999999/1" value="0" leadInLength="0/1"  />
               <InterpolatingParam id="4348" interp="linr"  time="-9999999/1" value="0" leadInLength="0/1"  />
              </VectorParam>
              <VectorParam id="4349"  name="scale">
               <InterpolatingParam id="4350" interp="linr"  time="-9999999/1" value="1" leadInLength="0/1"  />
               <InterpolatingParam id="4351" interp="linr"  time="-9999999/1" value="1" leadInLength="0/1"  />
               <InterpolatingParam id="4352" interp="linr"  time="-9999999/1" value="1" leadInLength="0/1"  />
              </VectorParam>
              <VectorParam id="4353"  name="anchor">
               <InterpolatingParam id="4354" interp="linr"  time="0/1" value="0" leadInLength="0/1"  />
               <InterpolatingParam id="4355" interp="linr"  time="0/1" value="0" leadInLength="0/1"  />
               <InterpolatingParam id="4356" interp="linr"  time="0/1" value="0" leadInLength="0/1"  />
              </VectorParam>
             </Transformer>
             <Parameters>
              <VectorParam id="4357"  name="sourceCrop">
               <InterpolatingParam id="4358" interp="linr"  time="0/1" value="0" leadInLength="0/1"  />
               <InterpolatingParam id="4359" interp="linr"  time="0/1" value="0" leadInLength="0/1"  />
               <InterpolatingParam id="4360" interp="linr"  time="0/1" value="0" leadInLength="0/1"  />
               <InterpolatingParam id="4361" interp="linr"  time="0/1" value="0" leadInLength="0/1"  />
              </VectorParam>
              <VectorParam id="4362"  name="geometryCrop">
               <InterpolatingParam id="4363" interp="linr"  time="-9999999/1" value="0" leadInLength="0/1"  />
               <InterpolatingParam id="4364" interp="linr"  time="-9999999/1" value="0" leadInLength="0/1"  />
               <InterpolatingParam id="4365" interp="linr"  time="-9999999/1" value="0" leadInLength="0/1"  />
               <InterpolatingParam id="4366" interp="linr"  time="-9999999/1" value="0" leadInLength="0/1"  />
              </VectorParam>
              <InterpolatingParam id="4367" interp="linr"  time="-9999999/1" value="1" leadInLength="0/1"  name="opacity"/>
             </Parameters>
             <Attributes>
              <Attribute id="4368" value="" name="ident"/>
             </Attributes>
             <ExtraData>
              <Entry key="ZoomPanBin">
               <ZoomPanBin id="4369"  >
                <ZoomPanKeyframes>
                 <ZoomPanKeyframe id="4370" timeRangeEnd="-9999999/1" timeRangeDuration="0/1" interpolaterName="linr"  />
                </ZoomPanKeyframes>
               </ZoomPanBin>
              </Entry>
             </ExtraData>
            </VMFile>
            <MetaData>
             <entry key="WinSubProjectDisplayName" val=""/>
            </MetaData>
           </UnifiedMedia>
           <UnifiedMedia id="4371"  >
            <AMFile id="4372" start="352" duration="78" scalar="1/1" mediaStart="467/1" mediaDuration="78/1" trackNumber="1" src="25" channelNumber="0" >
             <Parameters>
              <InterpolatingParam id="4373" interp="linr"  time="0/1" value="1" leadInLength="0/1"  name="volume"/>
              <Parameter id="4374"  name="captions"/>
             </Parameters>
             <Attributes>
              <Attribute id="4375" value="" name="ident"/>
              <Attribute id="4376" value="44100" name="sampleRate"/>
              <Attribute id="4377" value="16" name="bitDepth"/>
              <Attribute id="4378" value="1" name="gain"/>
              <Attribute id="4379" value="0" name="mixToMono"/>
             </Attributes>
            </AMFile>
            <VMFile id="4380" start="352" duration="78" scalar="1/1" mediaStart="467/1" mediaDuration="78/1" trackNumber="0" src="25" >
             <Transformer>
              <VectorParam id="4381"  name="translation">
               <InterpolatingParam id="4382" interp="linr"  time="-9999999/1" value="0" leadInLength="0/1"  />
               <InterpolatingParam id="4383" interp="linr"  time="-9999999/1" value="0" leadInLength="0/1"  />
               <InterpolatingParam id="4384" interp="linr"  time="-9999999/1" value="0" leadInLength="0/1"  />
              </VectorParam>
              <VectorParam id="4385"  name="rotation">
               <InterpolatingParam id="4386" interp="linr"  time="-9999999/1" value="0" leadInLength="0/1"  />
               <InterpolatingParam id="4387" interp="linr"  time="-9999999/1" value="0" leadInLength="0/1"  />
               <InterpolatingParam id="4388" interp="linr"  time="-9999999/1" value="0" leadInLength="0/1"  />
              </VectorParam>
              <VectorParam id="4389"  name="shear">
               <InterpolatingParam id="4390" interp="linr"  time="-9999999/1" value="0" leadInLength="0/1"  />
               <InterpolatingParam id="4391" interp="linr"  time="-9999999/1" value="0" leadInLength="0/1"  />
               <InterpolatingParam id="4392" interp="linr"  time="-9999999/1" value="0" leadInLength="0/1"  />
              </VectorParam>
              <VectorParam id="4393"  name="scale">
               <InterpolatingParam id="4394" interp="linr"  time="-9999999/1" value="1" leadInLength="0/1"  />
               <InterpolatingParam id="4395" interp="linr"  time="-9999999/1" value="1" leadInLength="0/1"  />
               <InterpolatingParam id="4396" interp="linr"  time="-9999999/1" value="1" leadInLength="0/1"  />
              </VectorParam>
              <VectorParam id="4397"  name="anchor">
               <InterpolatingParam id="4398" interp="linr"  time="0/1" value="0" leadInLength="0/1"  />
               <InterpolatingParam id="4399" interp="linr"  time="0/1" value="0" leadInLength="0/1"  />
               <InterpolatingParam id="4400" interp="linr"  time="0/1" value="0" leadInLength="0/1"  />
              </VectorParam>
             </Transformer>
             <Parameters>
              <VectorParam id="4401"  name="sourceCrop">
               <InterpolatingParam id="4402" interp="linr"  time="0/1" value="0" leadInLength="0/1"  />
               <InterpolatingParam id="4403" interp="linr"  time="0/1" value="0" leadInLength="0/1"  />
               <InterpolatingParam id="4404" interp="linr"  time="0/1" value="0" leadInLength="0/1"  />
               <InterpolatingParam id="4405" interp="linr"  time="0/1" value="0" leadInLength="0/1"  />
              </VectorParam>
              <VectorParam id="4406"  name="geometryCrop">
               <InterpolatingParam id="4407" interp="linr"  time="-9999999/1" value="0" leadInLength="0/1"  />
               <InterpolatingParam id="4408" interp="linr"  time="-9999999/1" value="0" leadInLength="0/1"  />
               <InterpolatingParam id="4409" interp="linr"  time="-9999999/1" value="0" leadInLength="0/1"  />
               <InterpolatingParam id="4410" interp="linr"  time="-9999999/1" value="0" leadInLength="0/1"  />
              </VectorParam>
              <InterpolatingParam id="4411" interp="linr"  time="-9999999/1" value="1" leadInLength="0/1"  name="opacity"/>
             </Parameters>
             <Attributes>
              <Attribute id="4412" value="" name="ident"/>
             </Attributes>
             <ExtraData>
              <Entry key="ZoomPanBin">
               <ZoomPanBin id="4413"  >
                <ZoomPanKeyframes>
                 <ZoomPanKeyframe id="4414" timeRangeEnd="-9999999/1" timeRangeDuration="0/1" interpolaterName="linr"  />
                </ZoomPanKeyframes>
               </ZoomPanBin>
              </Entry>
             </ExtraData>
            </VMFile>
            <MetaData>
             <entry key="WinSubProjectDisplayName" val=""/>
            </MetaData>
           </UnifiedMedia>
           <UnifiedMedia id="4415"  >
            <AMFile id="4416" start="430" duration="1109" scalar="1/1" mediaStart="596/1" mediaDuration="1109/1" trackNumber="1" src="25" channelNumber="0" >
             <Parameters>
              <InterpolatingParam id="4417" interp="linr"  time="0/1" value="1" leadInLength="0/1"  name="volume"/>
              <Parameter id="4418"  name="captions"/>
             </Parameters>
             <Attributes>
              <Attribute id="4419" value="" name="ident"/>
              <Attribute id="4420" value="44100" name="sampleRate"/>
              <Attribute id="4421" value="16" name="bitDepth"/>
              <Attribute id="4422" value="1" name="gain"/>
              <Attribute id="4423" value="0" name="mixToMono"/>
             </Attributes>
            </AMFile>
            <VMFile id="4424" start="430" duration="1109" scalar="1/1" mediaStart="596/1" mediaDuration="1109/1" trackNumber="0" src="25" >
             <Transformer>
              <VectorParam id="4425"  name="translation">
               <InterpolatingParam id="4426" interp="linr"  time="-9999999/1" value="0" leadInLength="0/1"  />
               <InterpolatingParam id="4427" interp="linr"  time="-9999999/1" value="0" leadInLength="0/1"  />
               <InterpolatingParam id="4428" interp="linr"  time="-9999999/1" value="0" leadInLength="0/1"  />
              </VectorParam>
              <VectorParam id="4429"  name="rotation">
               <InterpolatingParam id="4430" interp="linr"  time="-9999999/1" value="0" leadInLength="0/1"  />
               <InterpolatingParam id="4431" interp="linr"  time="-9999999/1" value="0" leadInLength="0/1"  />
               <InterpolatingParam id="4432" interp="linr"  time="-9999999/1" value="0" leadInLength="0/1"  />
              </VectorParam>
              <VectorParam id="4433"  name="shear">
               <InterpolatingParam id="4434" interp="linr"  time="-9999999/1" value="0" leadInLength="0/1"  />
               <InterpolatingParam id="4435" interp="linr"  time="-9999999/1" value="0" leadInLength="0/1"  />
               <InterpolatingParam id="4436" interp="linr"  time="-9999999/1" value="0" leadInLength="0/1"  />
              </VectorParam>
              <VectorParam id="4437"  name="scale">
               <InterpolatingParam id="4438" interp="linr"  time="-9999999/1" value="1" leadInLength="0/1"  />
               <InterpolatingParam id="4439" interp="linr"  time="-9999999/1" value="1" leadInLength="0/1"  />
               <InterpolatingParam id="4440" interp="linr"  time="-9999999/1" value="1" leadInLength="0/1"  />
              </VectorParam>
              <VectorParam id="4441"  name="anchor">
               <InterpolatingParam id="4442" interp="linr"  time="0/1" value="0" leadInLength="0/1"  />
               <InterpolatingParam id="4443" interp="linr"  time="0/1" value="0" leadInLength="0/1"  />
               <InterpolatingParam id="4444" interp="linr"  time="0/1" value="0" leadInLength="0/1"  />
              </VectorParam>
             </Transformer>
             <Parameters>
              <VectorParam id="4445"  name="sourceCrop">
               <InterpolatingParam id="4446" interp="linr"  time="0/1" value="0" leadInLength="0/1"  />
               <InterpolatingParam id="4447" interp="linr"  time="0/1" value="0" leadInLength="0/1"  />
               <InterpolatingParam id="4448" interp="linr"  time="0/1" value="0" leadInLength="0/1"  />
               <InterpolatingParam id="4449" interp="linr"  time="0/1" value="0" leadInLength="0/1"  />
              </VectorParam>
              <VectorParam id="4450"  name="geometryCrop">
               <InterpolatingParam id="4451" interp="linr"  time="-9999999/1" value="0" leadInLength="0/1"  />
               <InterpolatingParam id="4452" interp="linr"  time="-9999999/1" value="0" leadInLength="0/1"  />
               <InterpolatingParam id="4453" interp="linr"  time="-9999999/1" value="0" leadInLength="0/1"  />
               <InterpolatingParam id="4454" interp="linr"  time="-9999999/1" value="0" leadInLength="0/1"  />
              </VectorParam>
              <InterpolatingParam id="4455" interp="linr"  time="-9999999/1" value="1" leadInLength="0/1"  name="opacity"/>
             </Parameters>
             <Attributes>
              <Attribute id="4456" value="" name="ident"/>
             </Attributes>
             <ExtraData>
              <Entry key="ZoomPanBin">
               <ZoomPanBin id="4457"  >
                <ZoomPanKeyframes>
                 <ZoomPanKeyframe id="4458" timeRangeEnd="-9999999/1" timeRangeDuration="0/1" interpolaterName="linr"  />
                </ZoomPanKeyframes>
               </ZoomPanBin>
              </Entry>
             </ExtraData>
            </VMFile>
            <MetaData>
             <entry key="WinSubProjectDisplayName" val=""/>
            </MetaData>
           </UnifiedMedia>
          </Medias>
         </GenericTrack>
        </StitchedMedia>
        <UnifiedMedia id="4459"  >
         <AMFile id="4460" start="6897" duration="108" scalar="1903/969" mediaStart="1739355/1903" mediaDuration="104652/1903" trackNumber="1" src="25" channelNumber="0" >
          <Parameters>
           <InterpolatingParam id="4461" interp="linr"  name="volume">
            <Keyframes>
            <Keyframe id="4462"  time="-1/1" value="1" leadInLength="0/1"  />
            <Keyframe id="4463"  time="0/1" value="0" leadInLength="0/1"  />
            </Keyframes>
           </InterpolatingParam>
           <Parameter id="4464"  name="captions"/>
          </Parameters>
          <Attributes>
           <Attribute id="4465" value="" name="ident"/>
           <Attribute id="4466" value="44100" name="sampleRate"/>
           <Attribute id="4467" value="16" name="bitDepth"/>
           <Attribute id="4468" value="1" name="gain"/>
           <Attribute id="4469" value="0" name="mixToMono"/>
          </Attributes>
         </AMFile>
         <VMFile id="4470" start="6897" duration="108" scalar="1903/969" mediaStart="1739355/1903" mediaDuration="104652/1903" trackNumber="0" src="25" >
          <Transformer>
           <VectorParam id="4471"  name="translation">
            <InterpolatingParam id="4472" interp="linr"  >
             <Keyframes>
             <Keyframe id="4473"  time="-9999999/1" value="-8.7301587307694177" leadInLength="0/1"  />
             <Keyframe id="4474"  time="1751952/1903" value="-21.587301587191547" leadInLength="11628/1903"  interpolater="leadin-linr"  />
             </Keyframes>
            </InterpolatingParam>
            <InterpolatingParam id="4475" interp="linr"  >
             <Keyframes>
             <Keyframe id="4476"  time="-9999999/1" value="4.9107142860577895" leadInLength="0/1"  />
             <Keyframe id="4477"  time="1751952/1903" value="12.142857142795222" leadInLength="11628/1903"  interpolater="leadin-linr"  />
             </Keyframes>
            </InterpolatingParam>
            <InterpolatingParam id="4478" interp="linr"  >
             <Keyframes>
             <Keyframe id="4479"  time="-9999999/1" value="0" leadInLength="0/1"  />
             <Keyframe id="4480"  time="1751952/1903" value="0" leadInLength="11628/1903"  interpolater="leadin-linr"  />
             </Keyframes>
            </InterpolatingParam>
           </VectorParam>
           <VectorParam id="4481"  name="rotation">
            <InterpolatingParam id="4482" interp="linr"  >
             <Keyframes>
             <Keyframe id="4483"  time="-9999999/1" value="0" leadInLength="0/1"  />
             <Keyframe id="4484"  time="1751952/1903" value="0" leadInLength="11628/1903"  interpolater="leadin-linr"  />
             </Keyframes>
            </InterpolatingParam>
            <InterpolatingParam id="4485" interp="linr"  >
             <Keyframes>
             <Keyframe id="4486"  time="-9999999/1" value="0" leadInLength="0/1"  />
             <Keyframe id="4487"  time="1751952/1903" value="0" leadInLength="11628/1903"  interpolater="leadin-linr"  />
             </Keyframes>
            </InterpolatingParam>
            <InterpolatingParam id="4488" interp="linr"  >
             <Keyframes>
             <Keyframe id="4489"  time="-9999999/1" value="0" leadInLength="0/1"  />
             <Keyframe id="4490"  time="1751952/1903" value="0" leadInLength="11628/1903"  interpolater="leadin-linr"  />
             </Keyframes>
            </InterpolatingParam>
           </VectorParam>
           <VectorParam id="4491"  name="shear">
            <InterpolatingParam id="4492" interp="linr"  >
             <Keyframes>
             <Keyframe id="4493"  time="-9999999/1" value="0" leadInLength="0/1"  />
             <Keyframe id="4494"  time="1751952/1903" value="0" leadInLength="11628/1903"  interpolater="leadin-linr"  />
             </Keyframes>
            </InterpolatingParam>
            <InterpolatingParam id="4495" interp="linr"  >
             <Keyframes>
             <Keyframe id="4496"  time="-9999999/1" value="0" leadInLength="0/1"  />
             <Keyframe id="4497"  time="1751952/1903" value="0" leadInLength="11628/1903"  interpolater="leadin-linr"  />
             </Keyframes>
            </InterpolatingParam>
            <InterpolatingParam id="4498" interp="linr"  >
             <Keyframes>
             <Keyframe id="4499"  time="-9999999/1" value="0" leadInLength="0/1"  />
             <Keyframe id="4500"  time="1751952/1903" value="0" leadInLength="11628/1903"  interpolater="leadin-linr"  />
             </Keyframes>
            </InterpolatingParam>
           </VectorParam>
           <VectorParam id="4501"  name="scale">
            <InterpolatingParam id="4502" interp="linr"  >
             <Keyframes>
             <Keyframe id="4503"  time="-9999999/1" value="0.89269179894154183" leadInLength="0/1"  />
             <Keyframe id="4504"  time="1751952/1903" value="1.1888227513230085" leadInLength="11628/1903"  interpolater="leadin-linr"  />
             </Keyframes>
            </InterpolatingParam>
            <InterpolatingParam id="4505" interp="linr"  >
             <Keyframes>
             <Keyframe id="4506"  time="-9999999/1" value="0.89269179894154205" leadInLength="0/1"  />
             <Keyframe id="4507"  time="1751952/1903" value="1.188822751323009" leadInLength="11628/1903"  interpolater="leadin-linr"  />
             </Keyframes>
            </InterpolatingParam>
            <InterpolatingParam id="4508" interp="linr"  >
             <Keyframes>
             <Keyframe id="4509"  time="-9999999/1" value="1" leadInLength="0/1"  />
             <Keyframe id="4510"  time="1751952/1903" value="1" leadInLength="11628/1903"  interpolater="leadin-linr"  />
             </Keyframes>
            </InterpolatingParam>
           </VectorParam>
           <VectorParam id="4511"  name="anchor">
            <InterpolatingParam id="4512" interp="linr"  >
             <Keyframes>
             <Keyframe id="4513"  time="0/1" value="0" leadInLength="0/1"  />
             <Keyframe id="4514"  time="969/1" value="0" leadInLength="0/1"  />
             </Keyframes>
            </InterpolatingParam>
            <InterpolatingParam id="4515" interp="linr"  >
             <Keyframes>
             <Keyframe id="4516"  time="0/1" value="0" leadInLength="0/1"  />
             <Keyframe id="4517"  time="969/1" value="0" leadInLength="0/1"  />
             </Keyframes>
            </InterpolatingParam>
            <InterpolatingParam id="4518" interp="linr"  >
             <Keyframes>
             <Keyframe id="4519"  time="0/1" value="0" leadInLength="0/1"  />
             <Keyframe id="4520"  time="969/1" value="0" leadInLength="0/1"  />
             </Keyframes>
            </InterpolatingParam>
           </VectorParam>
          </Transformer>
          <Parameters>
           <VectorParam id="4521"  name="sourceCrop">
            <InterpolatingParam id="4522" interp="linr"  >
             <Keyframes>
             <Keyframe id="4523"  time="0/1" value="0" leadInLength="0/1"  />
             <Keyframe id="4524"  time="969/1" value="0" leadInLength="0/1"  />
             </Keyframes>
            </InterpolatingParam>
            <InterpolatingParam id="4525" interp="linr"  >
             <Keyframes>
             <Keyframe id="4526"  time="0/1" value="0" leadInLength="0/1"  />
             <Keyframe id="4527"  time="969/1" value="0" leadInLength="0/1"  />
             </Keyframes>
            </InterpolatingParam>
            <InterpolatingParam id="4528" interp="linr"  >
             <Keyframes>
             <Keyframe id="4529"  time="0/1" value="0" leadInLength="0/1"  />
             <Keyframe id="4530"  time="969/1" value="0" leadInLength="0/1"  />
             </Keyframes>
            </InterpolatingParam>
            <InterpolatingParam id="4531" interp="linr"  >
             <Keyframes>
             <Keyframe id="4532"  time="0/1" value="0" leadInLength="0/1"  />
             <Keyframe id="4533"  time="969/1" value="0" leadInLength="0/1"  />
             </Keyframes>
            </InterpolatingParam>
           </VectorParam>
           <VectorParam id="4534"  name="geometryCrop">
            <InterpolatingParam id="4535" interp="linr"  >
             <Keyframes>
             <Keyframe id="4536"  time="-9999999/1" value="0" leadInLength="0/1"  />
             <Keyframe id="4537"  time="1751952/1903" value="0" leadInLength="11628/1903"  interpolater="leadin-linr"  />
             </Keyframes>
            </InterpolatingParam>
            <InterpolatingParam id="4538" interp="linr"  >
             <Keyframes>
             <Keyframe id="4539"  time="-9999999/1" value="0" leadInLength="0/1"  />
             <Keyframe id="4540"  time="1751952/1903" value="0" leadInLength="11628/1903"  interpolater="leadin-linr"  />
             </Keyframes>
            </InterpolatingParam>
            <InterpolatingParam id="4541" interp="linr"  >
             <Keyframes>
             <Keyframe id="4542"  time="-9999999/1" value="0" leadInLength="0/1"  />
             <Keyframe id="4543"  time="1751952/1903" value="0" leadInLength="11628/1903"  interpolater="leadin-linr"  />
             </Keyframes>
            </InterpolatingParam>
            <InterpolatingParam id="4544" interp="linr"  >
             <Keyframes>
             <Keyframe id="4545"  time="-9999999/1" value="0" leadInLength="0/1"  />
             <Keyframe id="4546"  time="1751952/1903" value="0" leadInLength="11628/1903"  interpolater="leadin-linr"  />
             </Keyframes>
            </InterpolatingParam>
           </VectorParam>
           <InterpolatingParam id="4547" interp="linr"  name="opacity">
            <Keyframes>
            <Keyframe id="4548"  time="-9999999/1" value="1" leadInLength="0/1"  />
            <Keyframe id="4549"  time="1751952/1903" value="1" leadInLength="11628/1903"  interpolater="leadin-linr"  />
            </Keyframes>
           </InterpolatingParam>
          </Parameters>
          <Attributes>
           <Attribute id="4550" value="" name="ident"/>
          </Attributes>
          <ExtraData>
           <Entry key="ZoomPanBin">
            <ZoomPanBin id="4551"  >
             <ZoomPanKeyframes>
              <ZoomPanKeyframe id="4552" timeRangeEnd="-9999999/1" timeRangeDuration="0/1" interpolaterName="linr"  />
              <ZoomPanKeyframe id="4553" timeRangeEnd="1751952/1903" timeRangeDuration="11628/1903" interpolaterName="linr"  />
             </ZoomPanKeyframes>
            </ZoomPanBin>
           </Entry>
          </ExtraData>
         </VMFile>
         <MetaData>
          <entry key="WinSubProjectDisplayName" val=""/>
         </MetaData>
        </UnifiedMedia>
        <IMFile id="4554" start="7005" duration="31" scalar="212159/108016" mediaStart="969/1" mediaDuration="1/1" trackNumber="0" src="25" trimStartSum="46048/212159" >
         <Transformer>
          <VectorParam id="4555"  name="translation">
           <InterpolatingParam id="4556" interp="linr"  time="-9999999/1" value="-21.587301587191547" leadInLength="0/1"  interpolater="leadin-linr"  />
           <InterpolatingParam id="4557" interp="linr"  time="-9999999/1" value="12.142857142795222" leadInLength="0/1"  interpolater="leadin-linr"  />
           <InterpolatingParam id="4558" interp="linr"  time="-9999999/1" value="0" leadInLength="0/1"  interpolater="leadin-linr"  />
          </VectorParam>
          <VectorParam id="4559"  name="rotation">
           <InterpolatingParam id="4560" interp="linr"  time="-9999999/1" value="0" leadInLength="0/1"  interpolater="leadin-linr"  />
           <InterpolatingParam id="4561" interp="linr"  time="-9999999/1" value="0" leadInLength="0/1"  interpolater="leadin-linr"  />
           <InterpolatingParam id="4562" interp="linr"  time="-9999999/1" value="0" leadInLength="0/1"  interpolater="leadin-linr"  />
          </VectorParam>
          <VectorParam id="4563"  name="shear">
           <InterpolatingParam id="4564" interp="linr"  time="-9999999/1" value="0" leadInLength="0/1"  interpolater="leadin-linr"  />
           <InterpolatingParam id="4565" interp="linr"  time="-9999999/1" value="0" leadInLength="0/1"  interpolater="leadin-linr"  />
           <InterpolatingParam id="4566" interp="linr"  time="-9999999/1" value="0" leadInLength="0/1"  interpolater="leadin-linr"  />
          </VectorParam>
          <VectorParam id="4567"  name="scale">
           <InterpolatingParam id="4568" interp="linr"  time="-9999999/1" value="1.1888227513230085" leadInLength="0/1"  interpolater="leadin-linr"  />
           <InterpolatingParam id="4569" interp="linr"  time="-9999999/1" value="1.188822751323009" leadInLength="0/1"  interpolater="leadin-linr"  />
           <InterpolatingParam id="4570" interp="linr"  time="-9999999/1" value="1" leadInLength="0/1"  interpolater="leadin-linr"  />
          </VectorParam>
          <VectorParam id="4571"  name="anchor">
           <InterpolatingParam id="4572" interp="linr"  time="0/1" value="0" leadInLength="0/1"  />
           <InterpolatingParam id="4573" interp="linr"  time="0/1" value="0" leadInLength="0/1"  />
           <InterpolatingParam id="4574" interp="linr"  time="0/1" value="0" leadInLength="0/1"  />
          </VectorParam>
         </Transformer>
         <Parameters>
          <VectorParam id="4575"  name="sourceCrop">
           <InterpolatingParam id="4576" interp="linr"  time="0/1" value="0" leadInLength="0/1"  />
           <InterpolatingParam id="4577" interp="linr"  time="0/1" value="0" leadInLength="0/1"  />
           <InterpolatingParam id="4578" interp="linr"  time="0/1" value="0" leadInLength="0/1"  />
           <InterpolatingParam id="4579" interp="linr"  time="0/1" value="0" leadInLength="0/1"  />
          </VectorParam>
          <VectorParam id="4580"  name="geometryCrop">
           <InterpolatingParam id="4581" interp="linr"  time="-9999999/1" value="0" leadInLength="0/1"  interpolater="leadin-linr"  />
           <InterpolatingParam id="4582" interp="linr"  time="-9999999/1" value="0" leadInLength="0/1"  interpolater="leadin-linr"  />
           <InterpolatingParam id="4583" interp="linr"  time="-9999999/1" value="0" leadInLength="0/1"  interpolater="leadin-linr"  />
           <InterpolatingParam id="4584" interp="linr"  time="-9999999/1" value="0" leadInLength="0/1"  interpolater="leadin-linr"  />
          </VectorParam>
          <InterpolatingParam id="4585" interp="linr"  time="-9999999/1" value="1" leadInLength="0/1"  interpolater="leadin-linr"  name="opacity"/>
         </Parameters>
         <Attributes>
          <Attribute id="4586" value="" name="ident"/>
         </Attributes>
         <MetaData>
          <entry key="WinSubProjectDisplayName" val=""/>
         </MetaData>
         <ExtraData>
          <Entry key="ZoomPanBin">
           <ZoomPanBin id="4587"  >
            <ZoomPanKeyframes>
             <ZoomPanKeyframe id="4588" timeRangeEnd="-9999999/1" timeRangeDuration="0/1" interpolaterName="linr"  />
            </ZoomPanKeyframes>
           </ZoomPanBin>
          </Entry>
         </ExtraData>
        </IMFile>
        <UnifiedMedia id="4589"  >
         <AMFile id="4590" start="7036" duration="19" scalar="725/369" mediaStart="969/1" mediaDuration="7011/725" trackNumber="1" src="25" channelNumber="0" >
          <Parameters>
           <InterpolatingParam id="4591" interp="linr"  name="volume">
            <Keyframes>
            <Keyframe id="4592"  time="0/1" value="0" leadInLength="0/1"  />
            <Keyframe id="4593"  time="969/1" value="0" leadInLength="0/1"  />
            </Keyframes>
           </InterpolatingParam>
           <Parameter id="4594"  name="captions"/>
          </Parameters>
          <Attributes>
           <Attribute id="4595" value="" name="ident"/>
           <Attribute id="4596" value="44100" name="sampleRate"/>
           <Attribute id="4597" value="16" name="bitDepth"/>
           <Attribute id="4598" value="1" name="gain"/>
           <Attribute id="4599" value="0" name="mixToMono"/>
          </Attributes>
         </AMFile>
         <VMFile id="4600" start="7036" duration="19" scalar="725/369" mediaStart="969/1" mediaDuration="7011/725" trackNumber="0" src="25" >
          <Transformer>
           <VectorParam id="4601"  name="translation">
            <InterpolatingParam id="4602" interp="linr"  time="-9999999/1" value="-21.587301587191547" leadInLength="0/1"  interpolater="leadin-linr"  />
            <InterpolatingParam id="4603" interp="linr"  time="-9999999/1" value="12.142857142795222" leadInLength="0/1"  interpolater="leadin-linr"  />
            <InterpolatingParam id="4604" interp="linr"  time="-9999999/1" value="0" leadInLength="0/1"  interpolater="leadin-linr"  />
           </VectorParam>
           <VectorParam id="4605"  name="rotation">
            <InterpolatingParam id="4606" interp="linr"  time="-9999999/1" value="0" leadInLength="0/1"  interpolater="leadin-linr"  />
            <InterpolatingParam id="4607" interp="linr"  time="-9999999/1" value="0" leadInLength="0/1"  interpolater="leadin-linr"  />
            <InterpolatingParam id="4608" interp="linr"  time="-9999999/1" value="0" leadInLength="0/1"  interpolater="leadin-linr"  />
           </VectorParam>
           <VectorParam id="4609"  name="shear">
            <InterpolatingParam id="4610" interp="linr"  time="-9999999/1" value="0" leadInLength="0/1"  interpolater="leadin-linr"  />
            <InterpolatingParam id="4611" interp="linr"  time="-9999999/1" value="0" leadInLength="0/1"  interpolater="leadin-linr"  />
            <InterpolatingParam id="4612" interp="linr"  time="-9999999/1" value="0" leadInLength="0/1"  interpolater="leadin-linr"  />
           </VectorParam>
           <VectorParam id="4613"  name="scale">
            <InterpolatingParam id="4614" interp="linr"  time="-9999999/1" value="1.1888227513230085" leadInLength="0/1"  interpolater="leadin-linr"  />
            <InterpolatingParam id="4615" interp="linr"  time="-9999999/1" value="1.188822751323009" leadInLength="0/1"  interpolater="leadin-linr"  />
            <InterpolatingParam id="4616" interp="linr"  time="-9999999/1" value="1" leadInLength="0/1"  interpolater="leadin-linr"  />
           </VectorParam>
           <VectorParam id="4617"  name="anchor">
            <InterpolatingParam id="4618" interp="linr"  time="0/1" value="0" leadInLength="0/1"  />
            <InterpolatingParam id="4619" interp="linr"  time="0/1" value="0" leadInLength="0/1"  />
            <InterpolatingParam id="4620" interp="linr"  time="0/1" value="0" leadInLength="0/1"  />
           </VectorParam>
          </Transformer>
          <Parameters>
           <VectorParam id="4621"  name="sourceCrop">
            <InterpolatingParam id="4622" interp="linr"  time="0/1" value="0" leadInLength="0/1"  />
            <InterpolatingParam id="4623" interp="linr"  time="0/1" value="0" leadInLength="0/1"  />
            <InterpolatingParam id="4624" interp="linr"  time="0/1" value="0" leadInLength="0/1"  />
            <InterpolatingParam id="4625" interp="linr"  time="0/1" value="0" leadInLength="0/1"  />
           </VectorParam>
           <VectorParam id="4626"  name="geometryCrop">
            <InterpolatingParam id="4627" interp="linr"  time="-9999999/1" value="0" leadInLength="0/1"  interpolater="leadin-linr"  />
            <InterpolatingParam id="4628" interp="linr"  time="-9999999/1" value="0" leadInLength="0/1"  interpolater="leadin-linr"  />
            <InterpolatingParam id="4629" interp="linr"  time="-9999999/1" value="0" leadInLength="0/1"  interpolater="leadin-linr"  />
            <InterpolatingParam id="4630" interp="linr"  time="-9999999/1" value="0" leadInLength="0/1"  interpolater="leadin-linr"  />
           </VectorParam>
           <InterpolatingParam id="4631" interp="linr"  time="-9999999/1" value="1" leadInLength="0/1"  interpolater="leadin-linr"  name="opacity"/>
          </Parameters>
          <Attributes>
           <Attribute id="4632" value="" name="ident"/>
          </Attributes>
          <ExtraData>
           <Entry key="ZoomPanBin">
            <ZoomPanBin id="4633"  >
             <ZoomPanKeyframes>
              <ZoomPanKeyframe id="4634" timeRangeEnd="-9999999/1" timeRangeDuration="0/1" interpolaterName="linr"  />
             </ZoomPanKeyframes>
            </ZoomPanBin>
           </Entry>
          </ExtraData>
         </VMFile>
         <MetaData>
          <entry key="WinSubProjectDisplayName" val=""/>
         </MetaData>
        </UnifiedMedia>
        <UnifiedMedia id="4635"  >
         <AMFile id="4636" start="7055" duration="136" scalar="2299799203768/2950471803825" mediaStart="18169724135226/16910288263" mediaDuration="2950471803825/16910288263" trackNumber="1" src="25" channelNumber="0" >
          <Parameters>
           <InterpolatingParam id="4637" interp="linr"  name="volume">
            <Keyframes>
            <Keyframe id="4638"  time="-1/1" value="1" leadInLength="0/1"  />
            <Keyframe id="4639"  time="0/1" value="0" leadInLength="0/1"  />
            <Keyframe id="4640"  time="1707/1" value="0" leadInLength="0/1"  />
            <Keyframe id="4641"  time="1708/1" value="1" leadInLength="0/1"  />
            </Keyframes>
           </InterpolatingParam>
           <Parameter id="4642"  name="captions"/>
          </Parameters>
          <Attributes>
           <Attribute id="4643" value="" name="ident"/>
           <Attribute id="4644" value="44100" name="sampleRate"/>
           <Attribute id="4645" value="16" name="bitDepth"/>
           <Attribute id="4646" value="1" name="gain"/>
           <Attribute id="4647" value="0" name="mixToMono"/>
          </Attributes>
         </AMFile>
         <VMFile id="4648" start="7055" duration="136" scalar="2299799203768/2950471803825" mediaStart="18169724135226/16910288263" mediaDuration="2950471803825/16910288263" trackNumber="0" src="25" >
          <Transformer>
           <VectorParam id="4649"  name="translation">
            <InterpolatingParam id="4650" interp="linr"  >
             <Keyframes>
             <Keyframe id="4651"  time="-9999999/1" value="-8.7301587307694177" leadInLength="0/1"  />
             <Keyframe id="4652"  time="1108670953630893/1149899601884" value="-21.587301587191547" leadInLength="2950471803825/104536327444"  interpolater="leadin-linr"  />
             </Keyframes>
            </InterpolatingParam>
            <InterpolatingParam id="4653" interp="linr"  >
             <Keyframes>
             <Keyframe id="4654"  time="-9999999/1" value="4.9107142860577895" leadInLength="0/1"  />
             <Keyframe id="4655"  time="1108670953630893/1149899601884" value="12.142857142795222" leadInLength="2950471803825/104536327444"  interpolater="leadin-linr"  />
             </Keyframes>
            </InterpolatingParam>
            <InterpolatingParam id="4656" interp="linr"  >
             <Keyframes>
             <Keyframe id="4657"  time="-9999999/1" value="0" leadInLength="0/1"  />
             <Keyframe id="4658"  time="1108670953630893/1149899601884" value="0" leadInLength="2950471803825/104536327444"  interpolater="leadin-linr"  />
             </Keyframes>
            </InterpolatingParam>
           </VectorParam>
           <VectorParam id="4659"  name="rotation">
            <InterpolatingParam id="4660" interp="linr"  >
             <Keyframes>
             <Keyframe id="4661"  time="-9999999/1" value="0" leadInLength="0/1"  />
             <Keyframe id="4662"  time="1108670953630893/1149899601884" value="0" leadInLength="2950471803825/104536327444"  interpolater="leadin-linr"  />
             </Keyframes>
            </InterpolatingParam>
            <InterpolatingParam id="4663" interp="linr"  >
             <Keyframes>
             <Keyframe id="4664"  time="-9999999/1" value="0" leadInLength="0/1"  />
             <Keyframe id="4665"  time="1108670953630893/1149899601884" value="0" leadInLength="2950471803825/104536327444"  interpolater="leadin-linr"  />
             </Keyframes>
            </InterpolatingParam>
            <InterpolatingParam id="4666" interp="linr"  >
             <Keyframes>
             <Keyframe id="4667"  time="-9999999/1" value="0" leadInLength="0/1"  />
             <Keyframe id="4668"  time="1108670953630893/1149899601884" value="0" leadInLength="2950471803825/104536327444"  interpolater="leadin-linr"  />
             </Keyframes>
            </InterpolatingParam>
           </VectorParam>
           <VectorParam id="4669"  name="shear">
            <InterpolatingParam id="4670" interp="linr"  >
             <Keyframes>
             <Keyframe id="4671"  time="-9999999/1" value="0" leadInLength="0/1"  />
             <Keyframe id="4672"  time="1108670953630893/1149899601884" value="0" leadInLength="2950471803825/104536327444"  interpolater="leadin-linr"  />
             </Keyframes>
            </InterpolatingParam>
            <InterpolatingParam id="4673" interp="linr"  >
             <Keyframes>
             <Keyframe id="4674"  time="-9999999/1" value="0" leadInLength="0/1"  />
             <Keyframe id="4675"  time="1108670953630893/1149899601884" value="0" leadInLength="2950471803825/104536327444"  interpolater="leadin-linr"  />
             </Keyframes>
            </InterpolatingParam>
            <InterpolatingParam id="4676" interp="linr"  >
             <Keyframes>
             <Keyframe id="4677"  time="-9999999/1" value="0" leadInLength="0/1"  />
             <Keyframe id="4678"  time="1108670953630893/1149899601884" value="0" leadInLength="2950471803825/104536327444"  interpolater="leadin-linr"  />
             </Keyframes>
            </InterpolatingParam>
           </VectorParam>
           <VectorParam id="4679"  name="scale">
            <InterpolatingParam id="4680" interp="linr"  >
             <Keyframes>
             <Keyframe id="4681"  time="-9999999/1" value="0.89269179894154183" leadInLength="0/1"  />
             <Keyframe id="4682"  time="1108670953630893/1149899601884" value="1.1888227513230085" leadInLength="2950471803825/104536327444"  interpolater="leadin-linr"  />
             </Keyframes>
            </InterpolatingParam>
            <InterpolatingParam id="4683" interp="linr"  >
             <Keyframes>
             <Keyframe id="4684"  time="-9999999/1" value="0.89269179894154205" leadInLength="0/1"  />
             <Keyframe id="4685"  time="1108670953630893/1149899601884" value="1.188822751323009" leadInLength="2950471803825/104536327444"  interpolater="leadin-linr"  />
             </Keyframes>
            </InterpolatingParam>
            <InterpolatingParam id="4686" interp="linr"  >
             <Keyframes>
             <Keyframe id="4687"  time="-9999999/1" value="1" leadInLength="0/1"  />
             <Keyframe id="4688"  time="1108670953630893/1149899601884" value="1" leadInLength="2950471803825/104536327444"  interpolater="leadin-linr"  />
             </Keyframes>
            </InterpolatingParam>
           </VectorParam>
           <VectorParam id="4689"  name="anchor">
            <InterpolatingParam id="4690" interp="linr"  time="0/1" value="0" leadInLength="0/1"  />
            <InterpolatingParam id="4691" interp="linr"  time="0/1" value="0" leadInLength="0/1"  />
            <InterpolatingParam id="4692" interp="linr"  time="0/1" value="0" leadInLength="0/1"  />
           </VectorParam>
          </Transformer>
          <Parameters>
           <VectorParam id="4693"  name="sourceCrop">
            <InterpolatingParam id="4694" interp="linr"  time="0/1" value="0" leadInLength="0/1"  />
            <InterpolatingParam id="4695" interp="linr"  time="0/1" value="0" leadInLength="0/1"  />
            <InterpolatingParam id="4696" interp="linr"  time="0/1" value="0" leadInLength="0/1"  />
            <InterpolatingParam id="4697" interp="linr"  time="0/1" value="0" leadInLength="0/1"  />
           </VectorParam>
           <VectorParam id="4698"  name="geometryCrop">
            <InterpolatingParam id="4699" interp="linr"  >
             <Keyframes>
             <Keyframe id="4700"  time="-9999999/1" value="0" leadInLength="0/1"  />
             <Keyframe id="4701"  time="1108670953630893/1149899601884" value="0" leadInLength="2950471803825/104536327444"  interpolater="leadin-linr"  />
             </Keyframes>
            </InterpolatingParam>
            <InterpolatingParam id="4702" interp="linr"  >
             <Keyframes>
             <Keyframe id="4703"  time="-9999999/1" value="0" leadInLength="0/1"  />
             <Keyframe id="4704"  time="1108670953630893/1149899601884" value="0" leadInLength="2950471803825/104536327444"  interpolater="leadin-linr"  />
             </Keyframes>
            </InterpolatingParam>
            <InterpolatingParam id="4705" interp="linr"  >
             <Keyframes>
             <Keyframe id="4706"  time="-9999999/1" value="0" leadInLength="0/1"  />
             <Keyframe id="4707"  time="1108670953630893/1149899601884" value="0" leadInLength="2950471803825/104536327444"  interpolater="leadin-linr"  />
             </Keyframes>
            </InterpolatingParam>
            <InterpolatingParam id="4708" interp="linr"  >
             <Keyframes>
             <Keyframe id="4709"  time="-9999999/1" value="0" leadInLength="0/1"  />
             <Keyframe id="4710"  time="1108670953630893/1149899601884" value="0" leadInLength="2950471803825/104536327444"  interpolater="leadin-linr"  />
             </Keyframes>
            </InterpolatingParam>
           </VectorParam>
           <InterpolatingParam id="4711" interp="linr"  name="opacity">
            <Keyframes>
            <Keyframe id="4712"  time="-9999999/1" value="1" leadInLength="0/1"  />
            <Keyframe id="4713"  time="1108670953630893/1149899601884" value="1" leadInLength="2950471803825/104536327444"  interpolater="leadin-linr"  />
            </Keyframes>
           </InterpolatingParam>
          </Parameters>
          <Attributes>
           <Attribute id="4714" value="" name="ident"/>
          </Attributes>
          <ExtraData>
           <Entry key="ZoomPanBin">
            <ZoomPanBin id="4715"  >
             <ZoomPanKeyframes>
              <ZoomPanKeyframe id="4716" timeRangeEnd="-9999999/1" timeRangeDuration="0/1" interpolaterName="linr"  />
              <ZoomPanKeyframe id="4717" timeRangeEnd="1108670953630893/1149899601884" timeRangeDuration="2950471803825/104536327444" interpolaterName="linr"  />
             </ZoomPanKeyframes>
            </ZoomPanBin>
           </Entry>
          </ExtraData>
         </VMFile>
         <MetaData>
          <entry key="WinSubProjectDisplayName" val=""/>
         </MetaData>
        </UnifiedMedia>
        <UnifiedMedia id="4718"  >
         <AMFile id="4719" start="7191" duration="107" scalar="71/139" mediaStart="4865/71" mediaDuration="14873/71" trackNumber="1" src="26" channelNumber="0" >
          <Parameters>
           <InterpolatingParam id="4720" interp="linr"  name="volume">
            <Keyframes>
            <Keyframe id="4721"  time="-1/1" value="1" leadInLength="0/1"  />
            <Keyframe id="4722"  time="0/1" value="0" leadInLength="0/1"  />
            </Keyframes>
           </InterpolatingParam>
           <Parameter id="4723"  name="captions"/>
          </Parameters>
          <Attributes>
           <Attribute id="4724" value="" name="ident"/>
           <Attribute id="4725" value="44100" name="sampleRate"/>
           <Attribute id="4726" value="16" name="bitDepth"/>
           <Attribute id="4727" value="1" name="gain"/>
           <Attribute id="4728" value="0" name="mixToMono"/>
          </Attributes>
         </AMFile>
         <VMFile id="4729" start="7191" duration="107" scalar="71/139" mediaStart="4865/71" mediaDuration="14873/71" trackNumber="0" src="26" >
          <Transformer>
           <VectorParam id="4730"  name="translation">
            <InterpolatingParam id="4731" interp="linr"  time="-9999999/1" value="-2.8571428574254583" leadInLength="0/1"  />
            <InterpolatingParam id="4732" interp="linr"  time="-9999999/1" value="213.7500000000648" leadInLength="0/1"  />
            <InterpolatingParam id="4733" interp="linr"  time="-9999999/1" value="0" leadInLength="0/1"  />
           </VectorParam>
           <VectorParam id="4734"  name="rotation">
            <InterpolatingParam id="4735" interp="linr"  time="-9999999/1" value="0" leadInLength="0/1"  />
            <InterpolatingParam id="4736" interp="linr"  time="-9999999/1" value="0" leadInLength="0/1"  />
            <InterpolatingParam id="4737" interp="linr"  time="-9999999/1" value="0" leadInLength="0/1"  />
           </VectorParam>
           <VectorParam id="4738"  name="shear">
            <InterpolatingParam id="4739" interp="linr"  time="-9999999/1" value="0" leadInLength="0/1"  />
            <InterpolatingParam id="4740" interp="linr"  time="-9999999/1" value="0" leadInLength="0/1"  />
            <InterpolatingParam id="4741" interp="linr"  time="-9999999/1" value="0" leadInLength="0/1"  />
           </VectorParam>
           <VectorParam id="4742"  name="scale">
            <InterpolatingParam id="4743" interp="linr"  time="-9999999/1" value="1.0625000000001199" leadInLength="0/1"  />
            <InterpolatingParam id="4744" interp="linr"  time="-9999999/1" value="1.0625000000001203" leadInLength="0/1"  />
            <InterpolatingParam id="4745" interp="linr"  time="-9999999/1" value="1" leadInLength="0/1"  />
           </VectorParam>
           <VectorParam id="4746"  name="anchor">
            <InterpolatingParam id="4747" interp="linr"  time="0/1" value="0" leadInLength="0/1"  />
            <InterpolatingParam id="4748" interp="linr"  time="0/1" value="0" leadInLength="0/1"  />
            <InterpolatingParam id="4749" interp="linr"  time="0/1" value="0" leadInLength="0/1"  />
           </VectorParam>
          </Transformer>
          <Parameters>
           <VectorParam id="4750"  name="sourceCrop">
            <InterpolatingParam id="4751" interp="linr"  time="0/1" value="0" leadInLength="0/1"  />
            <InterpolatingParam id="4752" interp="linr"  time="0/1" value="0" leadInLength="0/1"  />
            <InterpolatingParam id="4753" interp="linr"  time="0/1" value="0" leadInLength="0/1"  />
            <InterpolatingParam id="4754" interp="linr"  time="0/1" value="0" leadInLength="0/1"  />
           </VectorParam>
           <VectorParam id="4755"  name="geometryCrop">
            <InterpolatingParam id="4756" interp="linr"  time="-9999999/1" value="0" leadInLength="0/1"  />
            <InterpolatingParam id="4757" interp="linr"  time="-9999999/1" value="0" leadInLength="0/1"  />
            <InterpolatingParam id="4758" interp="linr"  time="-9999999/1" value="0" leadInLength="0/1"  />
            <InterpolatingParam id="4759" interp="linr"  time="-9999999/1" value="0" leadInLength="0/1"  />
           </VectorParam>
           <InterpolatingParam id="4760" interp="linr"  time="-9999999/1" value="1" leadInLength="0/1"  name="opacity"/>
          </Parameters>
          <Attributes>
           <Attribute id="4761" value="" name="ident"/>
          </Attributes>
          <ExtraData>
           <Entry key="ZoomPanBin">
            <ZoomPanBin id="4762"  >
             <ZoomPanKeyframes>
              <ZoomPanKeyframe id="4763" timeRangeEnd="-9999999/1" timeRangeDuration="0/1" interpolaterName="linr"  />
             </ZoomPanKeyframes>
            </ZoomPanBin>
           </Entry>
          </ExtraData>
         </VMFile>
         <MetaData>
          <entry key="WinSubProjectDisplayName" val=""/>
         </MetaData>
        </UnifiedMedia>
        <StitchedMedia id="4764" start="7298" duration="1" scalar="1733/3391" mediaStart="0/1" mediaDuration="3391/1733" minMediaStart="-108000/1" >
         <Transformer>
          <VectorParam id="4765"  name="translation">
           <InterpolatingParam id="4766" interp="linr"  time="-9999999/1" value="-2.8571428574254583" leadInLength="0/1"  interpolater="leadin-linr"  />
           <InterpolatingParam id="4767" interp="linr"  time="-9999999/1" value="213.7500000000648" leadInLength="0/1"  interpolater="leadin-linr"  />
           <InterpolatingParam id="4768" interp="linr"  time="-9999999/1" value="0" leadInLength="0/1"  interpolater="leadin-linr"  />
          </VectorParam>
          <VectorParam id="4769"  name="rotation">
           <InterpolatingParam id="4770" interp="linr"  time="-9999999/1" value="0" leadInLength="0/1"  interpolater="leadin-linr"  />
           <InterpolatingParam id="4771" interp="linr"  time="-9999999/1" value="0" leadInLength="0/1"  interpolater="leadin-linr"  />
           <InterpolatingParam id="4772" interp="linr"  time="-9999999/1" value="0" leadInLength="0/1"  interpolater="leadin-linr"  />
          </VectorParam>
          <VectorParam id="4773"  name="shear">
           <InterpolatingParam id="4774" interp="linr"  time="-9999999/1" value="0" leadInLength="0/1"  interpolater="leadin-linr"  />
           <InterpolatingParam id="4775" interp="linr"  time="-9999999/1" value="0" leadInLength="0/1"  interpolater="leadin-linr"  />
           <InterpolatingParam id="4776" interp="linr"  time="-9999999/1" value="0" leadInLength="0/1"  interpolater="leadin-linr"  />
          </VectorParam>
          <VectorParam id="4777"  name="scale">
           <InterpolatingParam id="4778" interp="linr"  time="-9999999/1" value="1.0625000000001199" leadInLength="0/1"  interpolater="leadin-linr"  />
           <InterpolatingParam id="4779" interp="linr"  time="-9999999/1" value="1.0625000000001203" leadInLength="0/1"  interpolater="leadin-linr"  />
           <InterpolatingParam id="4780" interp="linr"  time="-9999999/1" value="1" leadInLength="0/1"  interpolater="leadin-linr"  />
          </VectorParam>
          <VectorParam id="4781"  name="anchor">
           <InterpolatingParam id="4782" interp="linr"  time="971338490/18995283" value="0" leadInLength="0/1"  />
           <InterpolatingParam id="4783" interp="linr"  time="971338490/18995283" value="0" leadInLength="0/1"  />
           <InterpolatingParam id="4784" interp="linr"  time="971338490/18995283" value="0" leadInLength="0/1"  />
          </VectorParam>
         </Transformer>
         <Parameters>
          <VectorParam id="4785"  name="sourceCrop">
           <InterpolatingParam id="4786" interp="linr"  time="971338490/18995283" value="0" leadInLength="0/1"  />
           <InterpolatingParam id="4787" interp="linr"  time="971338490/18995283" value="0" leadInLength="0/1"  />
           <InterpolatingParam id="4788" interp="linr"  time="971338490/18995283" value="0" leadInLength="0/1"  />
           <InterpolatingParam id="4789" interp="linr"  time="971338490/18995283" value="0" leadInLength="0/1"  />
          </VectorParam>
          <VectorParam id="4790"  name="geometryCrop">
           <InterpolatingParam id="4791" interp="linr"  time="-9999999/1" value="0" leadInLength="0/1"  interpolater="leadin-linr"  />
           <InterpolatingParam id="4792" interp="linr"  time="-9999999/1" value="0" leadInLength="0/1"  interpolater="leadin-linr"  />
           <InterpolatingParam id="4793" interp="linr"  time="-9999999/1" value="0" leadInLength="0/1"  interpolater="leadin-linr"  />
           <InterpolatingParam id="4794" interp="linr"  time="-9999999/1" value="0" leadInLength="0/1"  interpolater="leadin-linr"  />
          </VectorParam>
          <InterpolatingParam id="4795" interp="linr"  time="-9999999/1" value="1" leadInLength="0/1"  interpolater="leadin-linr"  name="opacity"/>
          <InterpolatingParam id="4796" interp="linr"  time="0/1" value="1" leadInLength="0/1"  name="cursorOpacity"/>
          <InterpolatingParam id="4797" interp="linr"  time="0/1" value="1" leadInLength="0/1"  name="cursorScale"/>
          <InterpolatingParam id="4798" interp="linr"  name="volume">
           <Keyframes>
           <Keyframe id="4799"  time="-108000/1" value="0" leadInLength="0/1"  />
           <Keyframe id="4800"  time="0/1" value="0" leadInLength="0/1"  />
           <Keyframe id="4801"  time="2561728/53811" value="0" leadInLength="0/1"  />
           </Keyframes>
          </InterpolatingParam>
          <Parameter id="4802"  name="captions"/>
         </Parameters>
         <Attributes>
          <Attribute id="4803" value="" name="ident"/>
          <Attribute id="4804" value="0" name="mixToMono"/>
         </Attributes>
         <MetaData>
          <entry key="WinSubProjectDisplayName" val=""/>
         </MetaData>
         <ExtraData>
          <Entry key="ZoomPanBin">
           <ZoomPanBin id="4805"  >
            <ZoomPanKeyframes>
             <ZoomPanKeyframe id="4806" timeRangeEnd="-9999999/1" timeRangeDuration="0/1" interpolaterName="linr"  />
            </ZoomPanKeyframes>
           </ZoomPanBin>
          </Entry>
          <Entry key="CursorEffectBin">
           <CursorEffectBin id="4807"  >
            <CursorEffectKeyframes>
            </CursorEffectKeyframes>
           </CursorEffectBin>
          </Entry>
         </ExtraData>
         <GenericTrack id="4808"  >
          <Attributes>
           <Attribute id="4809" value="" name="ident"/>
           <Attribute id="4810" value="0" name="audioMuted"/>
           <Attribute id="4811" value="0" name="videoHidden"/>
          </Attributes>
          <MetaData>
           <entry key="IsLocked" val="False"/>
           <entry key="WinTrackHeight" val="0"/>
          </MetaData>
          <Medias>
           <IMFile id="4812" start="-108000" duration="108048" scalar="1/1" mediaStart="575/1" mediaDuration="1/1" trackNumber="0" src="26" trimStartSum="-108000/1" >
            <Transformer>
             <VectorParam id="4813"  name="translation">
              <InterpolatingParam id="4814" interp="linr"  time="-9999999/1" value="0" leadInLength="0/1"  />
              <InterpolatingParam id="4815" interp="linr"  time="-9999999/1" value="0" leadInLength="0/1"  />
              <InterpolatingParam id="4816" interp="linr"  time="-9999999/1" value="0" leadInLength="0/1"  />
             </VectorParam>
             <VectorParam id="4817"  name="rotation">
              <InterpolatingParam id="4818" interp="linr"  time="-9999999/1" value="0" leadInLength="0/1"  />
              <InterpolatingParam id="4819" interp="linr"  time="-9999999/1" value="0" leadInLength="0/1"  />
              <InterpolatingParam id="4820" interp="linr"  time="-9999999/1" value="0" leadInLength="0/1"  />
             </VectorParam>
             <VectorParam id="4821"  name="shear">
              <InterpolatingParam id="4822" interp="linr"  time="-9999999/1" value="0" leadInLength="0/1"  />
              <InterpolatingParam id="4823" interp="linr"  time="-9999999/1" value="0" leadInLength="0/1"  />
              <InterpolatingParam id="4824" interp="linr"  time="-9999999/1" value="0" leadInLength="0/1"  />
             </VectorParam>
             <VectorParam id="4825"  name="scale">
              <InterpolatingParam id="4826" interp="linr"  time="-9999999/1" value="1" leadInLength="0/1"  />
              <InterpolatingParam id="4827" interp="linr"  time="-9999999/1" value="1" leadInLength="0/1"  />
              <InterpolatingParam id="4828" interp="linr"  time="-9999999/1" value="1" leadInLength="0/1"  />
             </VectorParam>
             <VectorParam id="4829"  name="anchor">
              <InterpolatingParam id="4830" interp="linr"  time="0/1" value="0" leadInLength="0/1"  />
              <InterpolatingParam id="4831" interp="linr"  time="0/1" value="0" leadInLength="0/1"  />
              <InterpolatingParam id="4832" interp="linr"  time="0/1" value="0" leadInLength="0/1"  />
             </VectorParam>
            </Transformer>
            <Parameters>
             <VectorParam id="4833"  name="sourceCrop">
              <InterpolatingParam id="4834" interp="linr"  time="0/1" value="0" leadInLength="0/1"  />
              <InterpolatingParam id="4835" interp="linr"  time="0/1" value="0" leadInLength="0/1"  />
              <InterpolatingParam id="4836" interp="linr"  time="0/1" value="0" leadInLength="0/1"  />
              <InterpolatingParam id="4837" interp="linr"  time="0/1" value="0" leadInLength="0/1"  />
             </VectorParam>
             <VectorParam id="4838"  name="geometryCrop">
              <InterpolatingParam id="4839" interp="linr"  time="-9999999/1" value="0" leadInLength="0/1"  />
              <InterpolatingParam id="4840" interp="linr"  time="-9999999/1" value="0" leadInLength="0/1"  />
              <InterpolatingParam id="4841" interp="linr"  time="-9999999/1" value="0" leadInLength="0/1"  />
              <InterpolatingParam id="4842" interp="linr"  time="-9999999/1" value="0" leadInLength="0/1"  />
             </VectorParam>
             <InterpolatingParam id="4843" interp="linr"  time="-9999999/1" value="1" leadInLength="0/1"  name="opacity"/>
            </Parameters>
            <Attributes>
             <Attribute id="4844" value="" name="ident"/>
            </Attributes>
            <MetaData>
             <entry key="WinSubProjectDisplayName" val=""/>
            </MetaData>
            <ExtraData>
             <Entry key="ZoomPanBin">
              <ZoomPanBin id="4845"  >
               <ZoomPanKeyframes>
               </ZoomPanKeyframes>
              </ZoomPanBin>
             </Entry>
            </ExtraData>
           </IMFile>
           <UnifiedMedia id="4846"  >
            <AMFile id="4847" start="48" duration="4" scalar="1/1" mediaStart="575/1" mediaDuration="4/1" trackNumber="1" src="26" channelNumber="0" >
             <Parameters>
              <InterpolatingParam id="4848" interp="linr"  time="0/1" value="1" leadInLength="0/1"  name="volume"/>
              <Parameter id="4849"  name="captions"/>
             </Parameters>
             <Attributes>
              <Attribute id="4850" value="" name="ident"/>
              <Attribute id="4851" value="44100" name="sampleRate"/>
              <Attribute id="4852" value="16" name="bitDepth"/>
              <Attribute id="4853" value="1" name="gain"/>
              <Attribute id="4854" value="0" name="mixToMono"/>
             </Attributes>
            </AMFile>
            <VMFile id="4855" start="48" duration="4" scalar="1/1" mediaStart="575/1" mediaDuration="4/1" trackNumber="0" src="26" >
             <Transformer>
              <VectorParam id="4856"  name="translation">
               <InterpolatingParam id="4857" interp="linr"  time="-9999999/1" value="0" leadInLength="0/1"  />
               <InterpolatingParam id="4858" interp="linr"  time="-9999999/1" value="0" leadInLength="0/1"  />
               <InterpolatingParam id="4859" interp="linr"  time="-9999999/1" value="0" leadInLength="0/1"  />
              </VectorParam>
              <VectorParam id="4860"  name="rotation">
               <InterpolatingParam id="4861" interp="linr"  time="-9999999/1" value="0" leadInLength="0/1"  />
               <InterpolatingParam id="4862" interp="linr"  time="-9999999/1" value="0" leadInLength="0/1"  />
               <InterpolatingParam id="4863" interp="linr"  time="-9999999/1" value="0" leadInLength="0/1"  />
              </VectorParam>
              <VectorParam id="4864"  name="shear">
               <InterpolatingParam id="4865" interp="linr"  time="-9999999/1" value="0" leadInLength="0/1"  />
               <InterpolatingParam id="4866" interp="linr"  time="-9999999/1" value="0" leadInLength="0/1"  />
               <InterpolatingParam id="4867" interp="linr"  time="-9999999/1" value="0" leadInLength="0/1"  />
              </VectorParam>
              <VectorParam id="4868"  name="scale">
               <InterpolatingParam id="4869" interp="linr"  time="-9999999/1" value="1" leadInLength="0/1"  />
               <InterpolatingParam id="4870" interp="linr"  time="-9999999/1" value="1" leadInLength="0/1"  />
               <InterpolatingParam id="4871" interp="linr"  time="-9999999/1" value="1" leadInLength="0/1"  />
              </VectorParam>
              <VectorParam id="4872"  name="anchor">
               <InterpolatingParam id="4873" interp="linr"  time="0/1" value="0" leadInLength="0/1"  />
               <InterpolatingParam id="4874" interp="linr"  time="0/1" value="0" leadInLength="0/1"  />
               <InterpolatingParam id="4875" interp="linr"  time="0/1" value="0" leadInLength="0/1"  />
              </VectorParam>
             </Transformer>
             <Parameters>
              <VectorParam id="4876"  name="sourceCrop">
               <InterpolatingParam id="4877" interp="linr"  time="0/1" value="0" leadInLength="0/1"  />
               <InterpolatingParam id="4878" interp="linr"  time="0/1" value="0" leadInLength="0/1"  />
               <InterpolatingParam id="4879" interp="linr"  time="0/1" value="0" leadInLength="0/1"  />
               <InterpolatingParam id="4880" interp="linr"  time="0/1" value="0" leadInLength="0/1"  />
              </VectorParam>
              <VectorParam id="4881"  name="geometryCrop">
               <InterpolatingParam id="4882" interp="linr"  time="-9999999/1" value="0" leadInLength="0/1"  />
               <InterpolatingParam id="4883" interp="linr"  time="-9999999/1" value="0" leadInLength="0/1"  />
               <InterpolatingParam id="4884" interp="linr"  time="-9999999/1" value="0" leadInLength="0/1"  />
               <InterpolatingParam id="4885" interp="linr"  time="-9999999/1" value="0" leadInLength="0/1"  />
              </VectorParam>
              <InterpolatingParam id="4886" interp="linr"  time="-9999999/1" value="1" leadInLength="0/1"  name="opacity"/>
             </Parameters>
             <Attributes>
              <Attribute id="4887" value="" name="ident"/>
             </Attributes>
             <ExtraData>
              <Entry key="ZoomPanBin">
               <ZoomPanBin id="4888"  >
                <ZoomPanKeyframes>
                </ZoomPanKeyframes>
               </ZoomPanBin>
              </Entry>
             </ExtraData>
            </VMFile>
            <MetaData>
             <entry key="WinSubProjectDisplayName" val=""/>
            </MetaData>
           </UnifiedMedia>
           <IMFile id="4889" start="52" duration="964" scalar="1/1" mediaStart="578/1" mediaDuration="1/1" trackNumber="0" src="26" trimStartSum="0/1" >
            <Transformer>
             <VectorParam id="4890"  name="translation">
              <InterpolatingParam id="4891" interp="linr"  time="-9999999/1" value="0" leadInLength="0/1"  />
              <InterpolatingParam id="4892" interp="linr"  time="-9999999/1" value="0" leadInLength="0/1"  />
              <InterpolatingParam id="4893" interp="linr"  time="-9999999/1" value="0" leadInLength="0/1"  />
             </VectorParam>
             <VectorParam id="4894"  name="rotation">
              <InterpolatingParam id="4895" interp="linr"  time="-9999999/1" value="0" leadInLength="0/1"  />
              <InterpolatingParam id="4896" interp="linr"  time="-9999999/1" value="0" leadInLength="0/1"  />
              <InterpolatingParam id="4897" interp="linr"  time="-9999999/1" value="0" leadInLength="0/1"  />
             </VectorParam>
             <VectorParam id="4898"  name="shear">
              <InterpolatingParam id="4899" interp="linr"  time="-9999999/1" value="0" leadInLength="0/1"  />
              <InterpolatingParam id="4900" interp="linr"  time="-9999999/1" value="0" leadInLength="0/1"  />
              <InterpolatingParam id="4901" interp="linr"  time="-9999999/1" value="0" leadInLength="0/1"  />
             </VectorParam>
             <VectorParam id="4902"  name="scale">
              <InterpolatingParam id="4903" interp="linr"  time="-9999999/1" value="1" leadInLength="0/1"  />
              <InterpolatingParam id="4904" interp="linr"  time="-9999999/1" value="1" leadInLength="0/1"  />
              <InterpolatingParam id="4905" interp="linr"  time="-9999999/1" value="1" leadInLength="0/1"  />
             </VectorParam>
             <VectorParam id="4906"  name="anchor">
              <InterpolatingParam id="4907" interp="linr"  time="0/1" value="0" leadInLength="0/1"  />
              <InterpolatingParam id="4908" interp="linr"  time="0/1" value="0" leadInLength="0/1"  />
              <InterpolatingParam id="4909" interp="linr"  time="0/1" value="0" leadInLength="0/1"  />
             </VectorParam>
            </Transformer>
            <Parameters>
             <VectorParam id="4910"  name="sourceCrop">
              <InterpolatingParam id="4911" interp="linr"  time="0/1" value="0" leadInLength="0/1"  />
              <InterpolatingParam id="4912" interp="linr"  time="0/1" value="0" leadInLength="0/1"  />
              <InterpolatingParam id="4913" interp="linr"  time="0/1" value="0" leadInLength="0/1"  />
              <InterpolatingParam id="4914" interp="linr"  time="0/1" value="0" leadInLength="0/1"  />
             </VectorParam>
             <VectorParam id="4915"  name="geometryCrop">
              <InterpolatingParam id="4916" interp="linr"  time="-9999999/1" value="0" leadInLength="0/1"  />
              <InterpolatingParam id="4917" interp="linr"  time="-9999999/1" value="0" leadInLength="0/1"  />
              <InterpolatingParam id="4918" interp="linr"  time="-9999999/1" value="0" leadInLength="0/1"  />
              <InterpolatingParam id="4919" interp="linr"  time="-9999999/1" value="0" leadInLength="0/1"  />
             </VectorParam>
             <InterpolatingParam id="4920" interp="linr"  time="-9999999/1" value="1" leadInLength="0/1"  name="opacity"/>
            </Parameters>
            <Attributes>
             <Attribute id="4921" value="" name="ident"/>
            </Attributes>
            <MetaData>
             <entry key="WinSubProjectDisplayName" val=""/>
            </MetaData>
            <ExtraData>
             <Entry key="ZoomPanBin">
              <ZoomPanBin id="4922"  >
               <ZoomPanKeyframes>
               </ZoomPanKeyframes>
              </ZoomPanBin>
             </Entry>
            </ExtraData>
           </IMFile>
           <UnifiedMedia id="4923"  >
            <AMFile id="4924" start="1016" duration="2375" scalar="1/1" mediaStart="577/1" mediaDuration="2375/1" trackNumber="1" src="26" channelNumber="0" >
             <Parameters>
              <InterpolatingParam id="4925" interp="linr"  time="0/1" value="1" leadInLength="0/1"  name="volume"/>
              <Parameter id="4926"  name="captions"/>
             </Parameters>
             <Attributes>
              <Attribute id="4927" value="" name="ident"/>
              <Attribute id="4928" value="44100" name="sampleRate"/>
              <Attribute id="4929" value="16" name="bitDepth"/>
              <Attribute id="4930" value="1" name="gain"/>
              <Attribute id="4931" value="0" name="mixToMono"/>
             </Attributes>
            </AMFile>
            <VMFile id="4932" start="1016" duration="2375" scalar="1/1" mediaStart="577/1" mediaDuration="2375/1" trackNumber="0" src="26" >
             <Transformer>
              <VectorParam id="4933"  name="translation">
               <InterpolatingParam id="4934" interp="linr"  time="-9999999/1" value="0" leadInLength="0/1"  />
               <InterpolatingParam id="4935" interp="linr"  time="-9999999/1" value="0" leadInLength="0/1"  />
               <InterpolatingParam id="4936" interp="linr"  time="-9999999/1" value="0" leadInLength="0/1"  />
              </VectorParam>
              <VectorParam id="4937"  name="rotation">
               <InterpolatingParam id="4938" interp="linr"  time="-9999999/1" value="0" leadInLength="0/1"  />
               <InterpolatingParam id="4939" interp="linr"  time="-9999999/1" value="0" leadInLength="0/1"  />
               <InterpolatingParam id="4940" interp="linr"  time="-9999999/1" value="0" leadInLength="0/1"  />
              </VectorParam>
              <VectorParam id="4941"  name="shear">
               <InterpolatingParam id="4942" interp="linr"  time="-9999999/1" value="0" leadInLength="0/1"  />
               <InterpolatingParam id="4943" interp="linr"  time="-9999999/1" value="0" leadInLength="0/1"  />
               <InterpolatingParam id="4944" interp="linr"  time="-9999999/1" value="0" leadInLength="0/1"  />
              </VectorParam>
              <VectorParam id="4945"  name="scale">
               <InterpolatingParam id="4946" interp="linr"  time="-9999999/1" value="1" leadInLength="0/1"  />
               <InterpolatingParam id="4947" interp="linr"  time="-9999999/1" value="1" leadInLength="0/1"  />
               <InterpolatingParam id="4948" interp="linr"  time="-9999999/1" value="1" leadInLength="0/1"  />
              </VectorParam>
              <VectorParam id="4949"  name="anchor">
               <InterpolatingParam id="4950" interp="linr"  time="0/1" value="0" leadInLength="0/1"  />
               <InterpolatingParam id="4951" interp="linr"  time="0/1" value="0" leadInLength="0/1"  />
               <InterpolatingParam id="4952" interp="linr"  time="0/1" value="0" leadInLength="0/1"  />
              </VectorParam>
             </Transformer>
             <Parameters>
              <VectorParam id="4953"  name="sourceCrop">
               <InterpolatingParam id="4954" interp="linr"  time="0/1" value="0" leadInLength="0/1"  />
               <InterpolatingParam id="4955" interp="linr"  time="0/1" value="0" leadInLength="0/1"  />
               <InterpolatingParam id="4956" interp="linr"  time="0/1" value="0" leadInLength="0/1"  />
               <InterpolatingParam id="4957" interp="linr"  time="0/1" value="0" leadInLength="0/1"  />
              </VectorParam>
              <VectorParam id="4958"  name="geometryCrop">
               <InterpolatingParam id="4959" interp="linr"  time="-9999999/1" value="0" leadInLength="0/1"  />
               <InterpolatingParam id="4960" interp="linr"  time="-9999999/1" value="0" leadInLength="0/1"  />
               <InterpolatingParam id="4961" interp="linr"  time="-9999999/1" value="0" leadInLength="0/1"  />
               <InterpolatingParam id="4962" interp="linr"  time="-9999999/1" value="0" leadInLength="0/1"  />
              </VectorParam>
              <InterpolatingParam id="4963" interp="linr"  time="-9999999/1" value="1" leadInLength="0/1"  name="opacity"/>
             </Parameters>
             <Attributes>
              <Attribute id="4964" value="" name="ident"/>
             </Attributes>
             <ExtraData>
              <Entry key="ZoomPanBin">
               <ZoomPanBin id="4965"  >
                <ZoomPanKeyframes>
                </ZoomPanKeyframes>
               </ZoomPanBin>
              </Entry>
             </ExtraData>
            </VMFile>
            <MetaData>
             <entry key="WinSubProjectDisplayName" val=""/>
            </MetaData>
           </UnifiedMedia>
          </Medias>
         </GenericTrack>
        </StitchedMedia>
        <StitchedMedia id="4966" start="7299" duration="140" scalar="16708125/8647991" mediaStart="15431659/24225" mediaDuration="34591964/477375" minMediaStart="0/1" >
         <Transformer>
          <VectorParam id="4967"  name="translation">
           <InterpolatingParam id="4968" interp="linr"  time="-9999999/1" value="-64.054283290940219" leadInLength="0/1"  />
           <InterpolatingParam id="4969" interp="linr"  time="-9999999/1" value="316.33587786259488" leadInLength="0/1"  />
           <InterpolatingParam id="4970" interp="linr"  time="-9999999/1" value="0" leadInLength="0/1"  />
          </VectorParam>
          <VectorParam id="4971"  name="rotation">
           <InterpolatingParam id="4972" interp="linr"  time="-9999999/1" value="0" leadInLength="0/1"  />
           <InterpolatingParam id="4973" interp="linr"  time="-9999999/1" value="0" leadInLength="0/1"  />
           <InterpolatingParam id="4974" interp="linr"  time="-9999999/1" value="0" leadInLength="0/1"  />
          </VectorParam>
          <VectorParam id="4975"  name="shear">
           <InterpolatingParam id="4976" interp="linr"  time="-9999999/1" value="0" leadInLength="0/1"  />
           <InterpolatingParam id="4977" interp="linr"  time="-9999999/1" value="0" leadInLength="0/1"  />
           <InterpolatingParam id="4978" interp="linr"  time="-9999999/1" value="0" leadInLength="0/1"  />
          </VectorParam>
          <VectorParam id="4979"  name="scale">
           <InterpolatingParam id="4980" interp="linr"  time="-9999999/1" value="1.2524738478938717" leadInLength="0/1"  />
           <InterpolatingParam id="4981" interp="linr"  time="-9999999/1" value="1.2524738478938722" leadInLength="0/1"  />
           <InterpolatingParam id="4982" interp="linr"  time="-9999999/1" value="1" leadInLength="0/1"  />
          </VectorParam>
          <VectorParam id="4983"  name="anchor">
           <InterpolatingParam id="4984" interp="linr"  >
            <Keyframes>
            <Keyframe id="4985"  time="0/1" value="0" leadInLength="0/1"  />
            <Keyframe id="4986"  time="553/1" value="0" leadInLength="0/1"  />
            </Keyframes>
           </InterpolatingParam>
           <InterpolatingParam id="4987" interp="linr"  >
            <Keyframes>
            <Keyframe id="4988"  time="0/1" value="0" leadInLength="0/1"  />
            <Keyframe id="4989"  time="553/1" value="0" leadInLength="0/1"  />
            </Keyframes>
           </InterpolatingParam>
           <InterpolatingParam id="4990" interp="linr"  >
            <Keyframes>
            <Keyframe id="4991"  time="0/1" value="0" leadInLength="0/1"  />
            <Keyframe id="4992"  time="553/1" value="0" leadInLength="0/1"  />
            </Keyframes>
           </InterpolatingParam>
          </VectorParam>
         </Transformer>
         <Parameters>
          <VectorParam id="4993"  name="sourceCrop">
           <InterpolatingParam id="4994" interp="linr"  >
            <Keyframes>
            <Keyframe id="4995"  time="0/1" value="0" leadInLength="0/1"  />
            <Keyframe id="4996"  time="553/1" value="0" leadInLength="0/1"  />
            </Keyframes>
           </InterpolatingParam>
           <InterpolatingParam id="4997" interp="linr"  >
            <Keyframes>
            <Keyframe id="4998"  time="0/1" value="0" leadInLength="0/1"  />
            <Keyframe id="4999"  time="553/1" value="0" leadInLength="0/1"  />
            </Keyframes>
           </InterpolatingParam>
           <InterpolatingParam id="5000" interp="linr"  >
            <Keyframes>
            <Keyframe id="5001"  time="0/1" value="0" leadInLength="0/1"  />
            <Keyframe id="5002"  time="553/1" value="0" leadInLength="0/1"  />
            </Keyframes>
           </InterpolatingParam>
           <InterpolatingParam id="5003" interp="linr"  >
            <Keyframes>
            <Keyframe id="5004"  time="0/1" value="0" leadInLength="0/1"  />
            <Keyframe id="5005"  time="553/1" value="0" leadInLength="0/1"  />
            </Keyframes>
           </InterpolatingParam>
          </VectorParam>
          <VectorParam id="5006"  name="geometryCrop">
           <InterpolatingParam id="5007" interp="linr"  time="-9999999/1" value="0" leadInLength="0/1"  />
           <InterpolatingParam id="5008" interp="linr"  time="-9999999/1" value="0" leadInLength="0/1"  />
           <InterpolatingParam id="5009" interp="linr"  time="-9999999/1" value="0" leadInLength="0/1"  />
           <InterpolatingParam id="5010" interp="linr"  time="-9999999/1" value="0" leadInLength="0/1"  />
          </VectorParam>
          <InterpolatingParam id="5011" interp="linr"  time="-9999999/1" value="1" leadInLength="0/1"  name="opacity"/>
          <InterpolatingParam id="5012" interp="linr"  time="0/1" value="1" leadInLength="0/1"  name="cursorOpacity"/>
          <InterpolatingParam id="5013" interp="linr"  time="0/1" value="1" leadInLength="0/1"  name="cursorScale"/>
          <InterpolatingParam id="5014" interp="linr"  name="volume">
           <Keyframes>
           <Keyframe id="5015"  time="0/1" value="1" leadInLength="0/1"  />
           <Keyframe id="5016"  time="324224/589" value="1" leadInLength="0/1"  />
           <Keyframe id="5017"  time="2928481/5301" value="0" leadInLength="0/1"  />
           <Keyframe id="5018"  time="18123508/18259" value="0" leadInLength="0/1"  />
           <Keyframe id="5019"  time="163435987/164331" value="1" leadInLength="0/1"  />
           <Keyframe id="5020"  time="54481039/54777" value="1" leadInLength="0/1"  />
           </Keyframes>
          </InterpolatingParam>
          <Parameter id="5021"  name="captions"/>
         </Parameters>
         <Attributes>
          <Attribute id="5022" value="" name="ident"/>
          <Attribute id="5023" value="0" name="mixToMono"/>
         </Attributes>
         <MetaData>
          <entry key="WinSubProjectDisplayName" val=""/>
         </MetaData>
         <ExtraData>
          <Entry key="ZoomPanBin">
           <ZoomPanBin id="5024"  >
            <ZoomPanKeyframes>
             <ZoomPanKeyframe id="5025" timeRangeEnd="-9999999/1" timeRangeDuration="0/1" interpolaterName="linr"  />
            </ZoomPanKeyframes>
           </ZoomPanBin>
          </Entry>
          <Entry key="CursorEffectBin">
           <CursorEffectBin id="5026"  >
            <CursorEffectKeyframes>
            </CursorEffectKeyframes>
           </CursorEffectBin>
          </Entry>
         </ExtraData>
         <GenericTrack id="5027"  >
          <Attributes>
           <Attribute id="5028" value="" name="ident"/>
           <Attribute id="5029" value="0" name="audioMuted"/>
           <Attribute id="5030" value="0" name="videoHidden"/>
          </Attributes>
          <MetaData>
           <entry key="IsLocked" val="False"/>
           <entry key="WinTrackHeight" val="0"/>
          </MetaData>
          <Medias>
           <UnifiedMedia id="5031"  >
            <AMFile id="5032" start="0" duration="553" scalar="1/1" mediaStart="0/1" mediaDuration="553/1" trackNumber="1" src="27" channelNumber="0" >
             <Parameters>
              <InterpolatingParam id="5033" interp="linr"  time="0/1" value="1" leadInLength="0/1"  name="volume"/>
              <Parameter id="5034"  name="captions"/>
             </Parameters>
             <Attributes>
              <Attribute id="5035" value="" name="ident"/>
              <Attribute id="5036" value="48000" name="sampleRate"/>
              <Attribute id="5037" value="16" name="bitDepth"/>
              <Attribute id="5038" value="1" name="gain"/>
              <Attribute id="5039" value="0" name="mixToMono"/>
             </Attributes>
            </AMFile>
            <VMFile id="5040" start="0" duration="553" scalar="1/1" mediaStart="0/1" mediaDuration="553/1" trackNumber="0" src="27" >
             <Transformer>
              <VectorParam id="5041"  name="translation">
               <InterpolatingParam id="5042" interp="linr"  time="-9999999/1" value="0" leadInLength="0/1"  />
               <InterpolatingParam id="5043" interp="linr"  time="-9999999/1" value="0" leadInLength="0/1"  />
               <InterpolatingParam id="5044" interp="linr"  time="-9999999/1" value="0" leadInLength="0/1"  />
              </VectorParam>
              <VectorParam id="5045"  name="rotation">
               <InterpolatingParam id="5046" interp="linr"  time="-9999999/1" value="0" leadInLength="0/1"  />
               <InterpolatingParam id="5047" interp="linr"  time="-9999999/1" value="0" leadInLength="0/1"  />
               <InterpolatingParam id="5048" interp="linr"  time="-9999999/1" value="0" leadInLength="0/1"  />
              </VectorParam>
              <VectorParam id="5049"  name="shear">
               <InterpolatingParam id="5050" interp="linr"  time="-9999999/1" value="0" leadInLength="0/1"  />
               <InterpolatingParam id="5051" interp="linr"  time="-9999999/1" value="0" leadInLength="0/1"  />
               <InterpolatingParam id="5052" interp="linr"  time="-9999999/1" value="0" leadInLength="0/1"  />
              </VectorParam>
              <VectorParam id="5053"  name="scale">
               <InterpolatingParam id="5054" interp="linr"  time="-9999999/1" value="1" leadInLength="0/1"  />
               <InterpolatingParam id="5055" interp="linr"  time="-9999999/1" value="1" leadInLength="0/1"  />
               <InterpolatingParam id="5056" interp="linr"  time="-9999999/1" value="1" leadInLength="0/1"  />
              </VectorParam>
              <VectorParam id="5057"  name="anchor">
               <InterpolatingParam id="5058" interp="linr"  time="0/1" value="0" leadInLength="0/1"  />
               <InterpolatingParam id="5059" interp="linr"  time="0/1" value="0" leadInLength="0/1"  />
               <InterpolatingParam id="5060" interp="linr"  time="0/1" value="0" leadInLength="0/1"  />
              </VectorParam>
             </Transformer>
             <Parameters>
              <VectorParam id="5061"  name="sourceCrop">
               <InterpolatingParam id="5062" interp="linr"  time="0/1" value="0" leadInLength="0/1"  />
               <InterpolatingParam id="5063" interp="linr"  time="0/1" value="0" leadInLength="0/1"  />
               <InterpolatingParam id="5064" interp="linr"  time="0/1" value="0" leadInLength="0/1"  />
               <InterpolatingParam id="5065" interp="linr"  time="0/1" value="0" leadInLength="0/1"  />
              </VectorParam>
              <VectorParam id="5066"  name="geometryCrop">
               <InterpolatingParam id="5067" interp="linr"  time="-9999999/1" value="0" leadInLength="0/1"  />
               <InterpolatingParam id="5068" interp="linr"  time="-9999999/1" value="0" leadInLength="0/1"  />
               <InterpolatingParam id="5069" interp="linr"  time="-9999999/1" value="0" leadInLength="0/1"  />
               <InterpolatingParam id="5070" interp="linr"  time="-9999999/1" value="0" leadInLength="0/1"  />
              </VectorParam>
              <InterpolatingParam id="5071" interp="linr"  time="-9999999/1" value="1" leadInLength="0/1"  name="opacity"/>
             </Parameters>
             <Attributes>
              <Attribute id="5072" value="" name="ident"/>
             </Attributes>
             <ExtraData>
              <Entry key="ZoomPanBin">
               <ZoomPanBin id="5073"  >
                <ZoomPanKeyframes>
                 <ZoomPanKeyframe id="5074" timeRangeEnd="-9999999/1" timeRangeDuration="0/1" interpolaterName="linr"  />
                </ZoomPanKeyframes>
               </ZoomPanBin>
              </Entry>
             </ExtraData>
            </VMFile>
            <MetaData>
             <entry key="WinSubProjectDisplayName" val=""/>
            </MetaData>
           </UnifiedMedia>
           <IMFile id="5075" start="553" duration="225" scalar="1/1" mediaStart="554/1" mediaDuration="1/1" trackNumber="0" src="27" trimStartSum="0/1" >
            <Transformer>
             <VectorParam id="5076"  name="translation">
              <InterpolatingParam id="5077" interp="linr"  time="-9999999/1" value="0" leadInLength="0/1"  />
              <InterpolatingParam id="5078" interp="linr"  time="-9999999/1" value="0" leadInLength="0/1"  />
              <InterpolatingParam id="5079" interp="linr"  time="-9999999/1" value="0" leadInLength="0/1"  />
             </VectorParam>
             <VectorParam id="5080"  name="rotation">
              <InterpolatingParam id="5081" interp="linr"  time="-9999999/1" value="0" leadInLength="0/1"  />
              <InterpolatingParam id="5082" interp="linr"  time="-9999999/1" value="0" leadInLength="0/1"  />
              <InterpolatingParam id="5083" interp="linr"  time="-9999999/1" value="0" leadInLength="0/1"  />
             </VectorParam>
             <VectorParam id="5084"  name="shear">
              <InterpolatingParam id="5085" interp="linr"  time="-9999999/1" value="0" leadInLength="0/1"  />
              <InterpolatingParam id="5086" interp="linr"  time="-9999999/1" value="0" leadInLength="0/1"  />
              <InterpolatingParam id="5087" interp="linr"  time="-9999999/1" value="0" leadInLength="0/1"  />
             </VectorParam>
             <VectorParam id="5088"  name="scale">
              <InterpolatingParam id="5089" interp="linr"  time="-9999999/1" value="1" leadInLength="0/1"  />
              <InterpolatingParam id="5090" interp="linr"  time="-9999999/1" value="1" leadInLength="0/1"  />
              <InterpolatingParam id="5091" interp="linr"  time="-9999999/1" value="1" leadInLength="0/1"  />
             </VectorParam>
             <VectorParam id="5092"  name="anchor">
              <InterpolatingParam id="5093" interp="linr"  time="0/1" value="0" leadInLength="0/1"  />
              <InterpolatingParam id="5094" interp="linr"  time="0/1" value="0" leadInLength="0/1"  />
              <InterpolatingParam id="5095" interp="linr"  time="0/1" value="0" leadInLength="0/1"  />
             </VectorParam>
            </Transformer>
            <Parameters>
             <VectorParam id="5096"  name="sourceCrop">
              <InterpolatingParam id="5097" interp="linr"  time="0/1" value="0" leadInLength="0/1"  />
              <InterpolatingParam id="5098" interp="linr"  time="0/1" value="0" leadInLength="0/1"  />
              <InterpolatingParam id="5099" interp="linr"  time="0/1" value="0" leadInLength="0/1"  />
              <InterpolatingParam id="5100" interp="linr"  time="0/1" value="0" leadInLength="0/1"  />
             </VectorParam>
             <VectorParam id="5101"  name="geometryCrop">
              <InterpolatingParam id="5102" interp="linr"  time="-9999999/1" value="0" leadInLength="0/1"  />
              <InterpolatingParam id="5103" interp="linr"  time="-9999999/1" value="0" leadInLength="0/1"  />
              <InterpolatingParam id="5104" interp="linr"  time="-9999999/1" value="0" leadInLength="0/1"  />
              <InterpolatingParam id="5105" interp="linr"  time="-9999999/1" value="0" leadInLength="0/1"  />
             </VectorParam>
             <InterpolatingParam id="5106" interp="linr"  time="-9999999/1" value="1" leadInLength="0/1"  name="opacity"/>
            </Parameters>
            <Attributes>
             <Attribute id="5107" value="" name="ident"/>
            </Attributes>
            <MetaData>
             <entry key="WinSubProjectDisplayName" val=""/>
            </MetaData>
            <ExtraData>
             <Entry key="ZoomPanBin">
              <ZoomPanBin id="5108"  >
               <ZoomPanKeyframes>
                <ZoomPanKeyframe id="5109" timeRangeEnd="-9999999/1" timeRangeDuration="0/1" interpolaterName="linr"  />
               </ZoomPanKeyframes>
              </ZoomPanBin>
             </Entry>
            </ExtraData>
           </IMFile>
           <UnifiedMedia id="5110"  >
            <AMFile id="5111" start="778" duration="635" scalar="1/1" mediaStart="552/1" mediaDuration="635/1" trackNumber="1" src="27" channelNumber="0" >
             <Parameters>
              <InterpolatingParam id="5112" interp="linr"  time="0/1" value="1" leadInLength="0/1"  name="volume"/>
              <Parameter id="5113"  name="captions"/>
             </Parameters>
             <Attributes>
              <Attribute id="5114" value="" name="ident"/>
              <Attribute id="5115" value="48000" name="sampleRate"/>
              <Attribute id="5116" value="16" name="bitDepth"/>
              <Attribute id="5117" value="1" name="gain"/>
              <Attribute id="5118" value="0" name="mixToMono"/>
             </Attributes>
            </AMFile>
            <VMFile id="5119" start="778" duration="635" scalar="1/1" mediaStart="552/1" mediaDuration="635/1" trackNumber="0" src="27" >
             <Transformer>
              <VectorParam id="5120"  name="translation">
               <InterpolatingParam id="5121" interp="linr"  time="-9999999/1" value="0" leadInLength="0/1"  />
               <InterpolatingParam id="5122" interp="linr"  time="-9999999/1" value="0" leadInLength="0/1"  />
               <InterpolatingParam id="5123" interp="linr"  time="-9999999/1" value="0" leadInLength="0/1"  />
              </VectorParam>
              <VectorParam id="5124"  name="rotation">
               <InterpolatingParam id="5125" interp="linr"  time="-9999999/1" value="0" leadInLength="0/1"  />
               <InterpolatingParam id="5126" interp="linr"  time="-9999999/1" value="0" leadInLength="0/1"  />
               <InterpolatingParam id="5127" interp="linr"  time="-9999999/1" value="0" leadInLength="0/1"  />
              </VectorParam>
              <VectorParam id="5128"  name="shear">
               <InterpolatingParam id="5129" interp="linr"  time="-9999999/1" value="0" leadInLength="0/1"  />
               <InterpolatingParam id="5130" interp="linr"  time="-9999999/1" value="0" leadInLength="0/1"  />
               <InterpolatingParam id="5131" interp="linr"  time="-9999999/1" value="0" leadInLength="0/1"  />
              </VectorParam>
              <VectorParam id="5132"  name="scale">
               <InterpolatingParam id="5133" interp="linr"  time="-9999999/1" value="1" leadInLength="0/1"  />
               <InterpolatingParam id="5134" interp="linr"  time="-9999999/1" value="1" leadInLength="0/1"  />
               <InterpolatingParam id="5135" interp="linr"  time="-9999999/1" value="1" leadInLength="0/1"  />
              </VectorParam>
              <VectorParam id="5136"  name="anchor">
               <InterpolatingParam id="5137" interp="linr"  time="0/1" value="0" leadInLength="0/1"  />
               <InterpolatingParam id="5138" interp="linr"  time="0/1" value="0" leadInLength="0/1"  />
               <InterpolatingParam id="5139" interp="linr"  time="0/1" value="0" leadInLength="0/1"  />
              </VectorParam>
             </Transformer>
             <Parameters>
              <VectorParam id="5140"  name="sourceCrop">
               <InterpolatingParam id="5141" interp="linr"  time="0/1" value="0" leadInLength="0/1"  />
               <InterpolatingParam id="5142" interp="linr"  time="0/1" value="0" leadInLength="0/1"  />
               <InterpolatingParam id="5143" interp="linr"  time="0/1" value="0" leadInLength="0/1"  />
               <InterpolatingParam id="5144" interp="linr"  time="0/1" value="0" leadInLength="0/1"  />
              </VectorParam>
              <VectorParam id="5145"  name="geometryCrop">
               <InterpolatingParam id="5146" interp="linr"  time="-9999999/1" value="0" leadInLength="0/1"  />
               <InterpolatingParam id="5147" interp="linr"  time="-9999999/1" value="0" leadInLength="0/1"  />
               <InterpolatingParam id="5148" interp="linr"  time="-9999999/1" value="0" leadInLength="0/1"  />
               <InterpolatingParam id="5149" interp="linr"  time="-9999999/1" value="0" leadInLength="0/1"  />
              </VectorParam>
              <InterpolatingParam id="5150" interp="linr"  time="-9999999/1" value="1" leadInLength="0/1"  name="opacity"/>
             </Parameters>
             <Attributes>
              <Attribute id="5151" value="" name="ident"/>
             </Attributes>
             <ExtraData>
              <Entry key="ZoomPanBin">
               <ZoomPanBin id="5152"  >
                <ZoomPanKeyframes>
                 <ZoomPanKeyframe id="5153" timeRangeEnd="-9999999/1" timeRangeDuration="0/1" interpolaterName="linr"  />
                </ZoomPanKeyframes>
               </ZoomPanBin>
              </Entry>
             </ExtraData>
            </VMFile>
            <MetaData>
             <entry key="WinSubProjectDisplayName" val=""/>
            </MetaData>
           </UnifiedMedia>
          </Medias>
         </GenericTrack>
        </StitchedMedia>
        <StitchedMedia id="5154" start="7439" duration="34" scalar="169218/86285" mediaStart="550832/711" mediaDuration="86285/4977" minMediaStart="0/1" >
         <Transformer>
          <VectorParam id="5155"  name="translation">
           <InterpolatingParam id="5156" interp="linr"  >
            <Keyframes>
            <Keyframe id="5157"  time="-9999999/1" value="-64.054283290940219" leadInLength="0/1"  />
            <Keyframe id="5158"  time="137569391/169218" value="-68.05428329093462" leadInLength="86285/84609"  interpolater="leadin-linr"  />
            </Keyframes>
           </InterpolatingParam>
           <InterpolatingParam id="5159" interp="linr"  >
            <Keyframes>
            <Keyframe id="5160"  time="-9999999/1" value="316.33587786259488" leadInLength="0/1"  />
            <Keyframe id="5161"  time="137569391/169218" value="164.33587786261597" leadInLength="86285/84609"  interpolater="leadin-linr"  />
            </Keyframes>
           </InterpolatingParam>
           <InterpolatingParam id="5162" interp="linr"  >
            <Keyframes>
            <Keyframe id="5163"  time="-9999999/1" value="0" leadInLength="0/1"  />
            <Keyframe id="5164"  time="137569391/169218" value="0" leadInLength="86285/84609"  interpolater="leadin-linr"  />
            </Keyframes>
           </InterpolatingParam>
          </VectorParam>
          <VectorParam id="5165"  name="rotation">
           <InterpolatingParam id="5166" interp="linr"  >
            <Keyframes>
            <Keyframe id="5167"  time="-9999999/1" value="0" leadInLength="0/1"  />
            <Keyframe id="5168"  time="137569391/169218" value="0" leadInLength="86285/84609"  interpolater="leadin-linr"  />
            </Keyframes>
           </InterpolatingParam>
           <InterpolatingParam id="5169" interp="linr"  >
            <Keyframes>
            <Keyframe id="5170"  time="-9999999/1" value="0" leadInLength="0/1"  />
            <Keyframe id="5171"  time="137569391/169218" value="0" leadInLength="86285/84609"  interpolater="leadin-linr"  />
            </Keyframes>
           </InterpolatingParam>
           <InterpolatingParam id="5172" interp="linr"  >
            <Keyframes>
            <Keyframe id="5173"  time="-9999999/1" value="0" leadInLength="0/1"  />
            <Keyframe id="5174"  time="137569391/169218" value="0" leadInLength="86285/84609"  interpolater="leadin-linr"  />
            </Keyframes>
           </InterpolatingParam>
          </VectorParam>
          <VectorParam id="5175"  name="shear">
           <InterpolatingParam id="5176" interp="linr"  >
            <Keyframes>
            <Keyframe id="5177"  time="-9999999/1" value="0" leadInLength="0/1"  />
            <Keyframe id="5178"  time="137569391/169218" value="0" leadInLength="86285/84609"  interpolater="leadin-linr"  />
            </Keyframes>
           </InterpolatingParam>
           <InterpolatingParam id="5179" interp="linr"  >
            <Keyframes>
            <Keyframe id="5180"  time="-9999999/1" value="0" leadInLength="0/1"  />
            <Keyframe id="5181"  time="137569391/169218" value="0" leadInLength="86285/84609"  interpolater="leadin-linr"  />
            </Keyframes>
           </InterpolatingParam>
           <InterpolatingParam id="5182" interp="linr"  >
            <Keyframes>
            <Keyframe id="5183"  time="-9999999/1" value="0" leadInLength="0/1"  />
            <Keyframe id="5184"  time="137569391/169218" value="0" leadInLength="86285/84609"  interpolater="leadin-linr"  />
            </Keyframes>
           </InterpolatingParam>
          </VectorParam>
          <VectorParam id="5185"  name="scale">
           <InterpolatingParam id="5186" interp="linr"  >
            <Keyframes>
            <Keyframe id="5187"  time="-9999999/1" value="1.2524738478938717" leadInLength="0/1"  />
            <Keyframe id="5188"  time="137569391/169218" value="1.2524738478938717" leadInLength="86285/84609"  interpolater="leadin-linr"  />
            </Keyframes>
           </InterpolatingParam>
           <InterpolatingParam id="5189" interp="linr"  >
            <Keyframes>
            <Keyframe id="5190"  time="-9999999/1" value="1.2524738478938722" leadInLength="0/1"  />
            <Keyframe id="5191"  time="137569391/169218" value="1.2524738478938722" leadInLength="86285/84609"  interpolater="leadin-linr"  />
            </Keyframes>
           </InterpolatingParam>
           <InterpolatingParam id="5192" interp="linr"  >
            <Keyframes>
            <Keyframe id="5193"  time="-9999999/1" value="1" leadInLength="0/1"  />
            <Keyframe id="5194"  time="137569391/169218" value="1" leadInLength="86285/84609"  interpolater="leadin-linr"  />
            </Keyframes>
           </InterpolatingParam>
          </VectorParam>
          <VectorParam id="5195"  name="anchor">
           <InterpolatingParam id="5196" interp="linr"  >
            <Keyframes>
            <Keyframe id="5197"  time="0/1" value="0" leadInLength="0/1"  />
            <Keyframe id="5198"  time="553/1" value="0" leadInLength="0/1"  />
            <Keyframe id="5199"  time="667882178348/857091805" value="0" leadInLength="0/1"  />
            </Keyframes>
           </InterpolatingParam>
           <InterpolatingParam id="5200" interp="linr"  >
            <Keyframes>
            <Keyframe id="5201"  time="0/1" value="0" leadInLength="0/1"  />
            <Keyframe id="5202"  time="553/1" value="0" leadInLength="0/1"  />
            <Keyframe id="5203"  time="667882178348/857091805" value="0" leadInLength="0/1"  />
            </Keyframes>
           </InterpolatingParam>
           <InterpolatingParam id="5204" interp="linr"  >
            <Keyframes>
            <Keyframe id="5205"  time="0/1" value="0" leadInLength="0/1"  />
            <Keyframe id="5206"  time="553/1" value="0" leadInLength="0/1"  />
            <Keyframe id="5207"  time="667882178348/857091805" value="0" leadInLength="0/1"  />
            </Keyframes>
           </InterpolatingParam>
          </VectorParam>
         </Transformer>
         <Parameters>
          <VectorParam id="5208"  name="sourceCrop">
           <InterpolatingParam id="5209" interp="linr"  >
            <Keyframes>
            <Keyframe id="5210"  time="0/1" value="0" leadInLength="0/1"  />
            <Keyframe id="5211"  time="553/1" value="0" leadInLength="0/1"  />
            <Keyframe id="5212"  time="667882178348/857091805" value="0" leadInLength="0/1"  />
            </Keyframes>
           </InterpolatingParam>
           <InterpolatingParam id="5213" interp="linr"  >
            <Keyframes>
            <Keyframe id="5214"  time="0/1" value="0" leadInLength="0/1"  />
            <Keyframe id="5215"  time="553/1" value="0" leadInLength="0/1"  />
            <Keyframe id="5216"  time="667882178348/857091805" value="0" leadInLength="0/1"  />
            </Keyframes>
           </InterpolatingParam>
           <InterpolatingParam id="5217" interp="linr"  >
            <Keyframes>
            <Keyframe id="5218"  time="0/1" value="0" leadInLength="0/1"  />
            <Keyframe id="5219"  time="553/1" value="0" leadInLength="0/1"  />
            <Keyframe id="5220"  time="667882178348/857091805" value="0" leadInLength="0/1"  />
            </Keyframes>
           </InterpolatingParam>
           <InterpolatingParam id="5221" interp="linr"  >
            <Keyframes>
            <Keyframe id="5222"  time="0/1" value="0" leadInLength="0/1"  />
            <Keyframe id="5223"  time="553/1" value="0" leadInLength="0/1"  />
            <Keyframe id="5224"  time="667882178348/857091805" value="0" leadInLength="0/1"  />
            </Keyframes>
           </InterpolatingParam>
          </VectorParam>
          <VectorParam id="5225"  name="geometryCrop">
           <InterpolatingParam id="5226" interp="linr"  >
            <Keyframes>
            <Keyframe id="5227"  time="-9999999/1" value="0" leadInLength="0/1"  />
            <Keyframe id="5228"  time="137569391/169218" value="0" leadInLength="86285/84609"  interpolater="leadin-linr"  />
            </Keyframes>
           </InterpolatingParam>
           <InterpolatingParam id="5229" interp="linr"  >
            <Keyframes>
            <Keyframe id="5230"  time="-9999999/1" value="0" leadInLength="0/1"  />
            <Keyframe id="5231"  time="137569391/169218" value="0" leadInLength="86285/84609"  interpolater="leadin-linr"  />
            </Keyframes>
           </InterpolatingParam>
           <InterpolatingParam id="5232" interp="linr"  >
            <Keyframes>
            <Keyframe id="5233"  time="-9999999/1" value="0" leadInLength="0/1"  />
            <Keyframe id="5234"  time="137569391/169218" value="0" leadInLength="86285/84609"  interpolater="leadin-linr"  />
            </Keyframes>
           </InterpolatingParam>
           <InterpolatingParam id="5235" interp="linr"  >
            <Keyframes>
            <Keyframe id="5236"  time="-9999999/1" value="0" leadInLength="0/1"  />
            <Keyframe id="5237"  time="137569391/169218" value="0" leadInLength="86285/84609"  interpolater="leadin-linr"  />
            </Keyframes>
           </InterpolatingParam>
          </VectorParam>
          <InterpolatingParam id="5238" interp="linr"  name="opacity">
           <Keyframes>
           <Keyframe id="5239"  time="-9999999/1" value="1" leadInLength="0/1"  />
           <Keyframe id="5240"  time="137569391/169218" value="1" leadInLength="86285/84609"  interpolater="leadin-linr"  />
           </Keyframes>
          </InterpolatingParam>
          <InterpolatingParam id="5241" interp="linr"  time="0/1" value="1" leadInLength="0/1"  name="cursorOpacity"/>
          <InterpolatingParam id="5242" interp="linr"  time="0/1" value="1" leadInLength="0/1"  name="cursorScale"/>
          <InterpolatingParam id="5243" interp="linr"  name="volume">
           <Keyframes>
           <Keyframe id="5244"  time="0/1" value="1" leadInLength="0/1"  />
           <Keyframe id="5245"  time="324224/589" value="1" leadInLength="0/1"  />
           <Keyframe id="5246"  time="2928481/5301" value="0" leadInLength="0/1"  />
           <Keyframe id="5247"  time="577058556860702243/597804557278755" value="0" leadInLength="0/1"  />
           <Keyframe id="5248"  time="1154114671011336733/1193166404489757" value="1" leadInLength="0/1"  />
           <Keyframe id="5249"  time="1154114617437490769/1193112830643793" value="1" leadInLength="0/1"  />
           </Keyframes>
          </InterpolatingParam>
          <Parameter id="5250"  name="captions"/>
         </Parameters>
         <Attributes>
          <Attribute id="5251" value="" name="ident"/>
          <Attribute id="5252" value="0" name="mixToMono"/>
         </Attributes>
         <MetaData>
          <entry key="WinSubProjectDisplayName" val=""/>
         </MetaData>
         <ExtraData>
          <Entry key="ZoomPanBin">
           <ZoomPanBin id="5253"  >
            <ZoomPanKeyframes>
             <ZoomPanKeyframe id="5254" timeRangeEnd="137569391/169218" timeRangeDuration="86285/84609" interpolaterName="linr"  />
             <ZoomPanKeyframe id="5255" timeRangeEnd="-9999999/1" timeRangeDuration="0/1" interpolaterName="linr"  />
            </ZoomPanKeyframes>
           </ZoomPanBin>
          </Entry>
          <Entry key="CursorEffectBin">
           <CursorEffectBin id="5256"  >
            <CursorEffectKeyframes>
            </CursorEffectKeyframes>
           </CursorEffectBin>
          </Entry>
         </ExtraData>
         <GenericTrack id="5257"  >
          <Attributes>
           <Attribute id="5258" value="" name="ident"/>
           <Attribute id="5259" value="0" name="audioMuted"/>
           <Attribute id="5260" value="0" name="videoHidden"/>
          </Attributes>
          <MetaData>
           <entry key="IsLocked" val="False"/>
           <entry key="WinTrackHeight" val="0"/>
          </MetaData>
          <Medias>
           <UnifiedMedia id="5261"  >
            <AMFile id="5262" start="0" duration="553" scalar="1/1" mediaStart="0/1" mediaDuration="553/1" trackNumber="1" src="27" channelNumber="0" >
             <Parameters>
              <InterpolatingParam id="5263" interp="linr"  time="0/1" value="1" leadInLength="0/1"  name="volume"/>
              <Parameter id="5264"  name="captions"/>
             </Parameters>
             <Attributes>
              <Attribute id="5265" value="" name="ident"/>
              <Attribute id="5266" value="48000" name="sampleRate"/>
              <Attribute id="5267" value="16" name="bitDepth"/>
              <Attribute id="5268" value="1" name="gain"/>
              <Attribute id="5269" value="0" name="mixToMono"/>
             </Attributes>
            </AMFile>
            <VMFile id="5270" start="0" duration="553" scalar="1/1" mediaStart="0/1" mediaDuration="553/1" trackNumber="0" src="27" >
             <Transformer>
              <VectorParam id="5271"  name="translation">
               <InterpolatingParam id="5272" interp="linr"  time="-9999999/1" value="0" leadInLength="0/1"  />
               <InterpolatingParam id="5273" interp="linr"  time="-9999999/1" value="0" leadInLength="0/1"  />
               <InterpolatingParam id="5274" interp="linr"  time="-9999999/1" value="0" leadInLength="0/1"  />
              </VectorParam>
              <VectorParam id="5275"  name="rotation">
               <InterpolatingParam id="5276" interp="linr"  time="-9999999/1" value="0" leadInLength="0/1"  />
               <InterpolatingParam id="5277" interp="linr"  time="-9999999/1" value="0" leadInLength="0/1"  />
               <InterpolatingParam id="5278" interp="linr"  time="-9999999/1" value="0" leadInLength="0/1"  />
              </VectorParam>
              <VectorParam id="5279"  name="shear">
               <InterpolatingParam id="5280" interp="linr"  time="-9999999/1" value="0" leadInLength="0/1"  />
               <InterpolatingParam id="5281" interp="linr"  time="-9999999/1" value="0" leadInLength="0/1"  />
               <InterpolatingParam id="5282" interp="linr"  time="-9999999/1" value="0" leadInLength="0/1"  />
              </VectorParam>
              <VectorParam id="5283"  name="scale">
               <InterpolatingParam id="5284" interp="linr"  time="-9999999/1" value="1" leadInLength="0/1"  />
               <InterpolatingParam id="5285" interp="linr"  time="-9999999/1" value="1" leadInLength="0/1"  />
               <InterpolatingParam id="5286" interp="linr"  time="-9999999/1" value="1" leadInLength="0/1"  />
              </VectorParam>
              <VectorParam id="5287"  name="anchor">
               <InterpolatingParam id="5288" interp="linr"  time="0/1" value="0" leadInLength="0/1"  />
               <InterpolatingParam id="5289" interp="linr"  time="0/1" value="0" leadInLength="0/1"  />
               <InterpolatingParam id="5290" interp="linr"  time="0/1" value="0" leadInLength="0/1"  />
              </VectorParam>
             </Transformer>
             <Parameters>
              <VectorParam id="5291"  name="sourceCrop">
               <InterpolatingParam id="5292" interp="linr"  time="0/1" value="0" leadInLength="0/1"  />
               <InterpolatingParam id="5293" interp="linr"  time="0/1" value="0" leadInLength="0/1"  />
               <InterpolatingParam id="5294" interp="linr"  time="0/1" value="0" leadInLength="0/1"  />
               <InterpolatingParam id="5295" interp="linr"  time="0/1" value="0" leadInLength="0/1"  />
              </VectorParam>
              <VectorParam id="5296"  name="geometryCrop">
               <InterpolatingParam id="5297" interp="linr"  time="-9999999/1" value="0" leadInLength="0/1"  />
               <InterpolatingParam id="5298" interp="linr"  time="-9999999/1" value="0" leadInLength="0/1"  />
               <InterpolatingParam id="5299" interp="linr"  time="-9999999/1" value="0" leadInLength="0/1"  />
               <InterpolatingParam id="5300" interp="linr"  time="-9999999/1" value="0" leadInLength="0/1"  />
              </VectorParam>
              <InterpolatingParam id="5301" interp="linr"  time="-9999999/1" value="1" leadInLength="0/1"  name="opacity"/>
             </Parameters>
             <Attributes>
              <Attribute id="5302" value="" name="ident"/>
             </Attributes>
             <ExtraData>
              <Entry key="ZoomPanBin">
               <ZoomPanBin id="5303"  >
                <ZoomPanKeyframes>
                 <ZoomPanKeyframe id="5304" timeRangeEnd="-9999999/1" timeRangeDuration="0/1" interpolaterName="linr"  />
                </ZoomPanKeyframes>
               </ZoomPanBin>
              </Entry>
             </ExtraData>
            </VMFile>
            <MetaData>
             <entry key="WinSubProjectDisplayName" val=""/>
            </MetaData>
           </UnifiedMedia>
           <IMFile id="5305" start="553" duration="225" scalar="1/1" mediaStart="554/1" mediaDuration="1/1" trackNumber="0" src="27" trimStartSum="0/1" >
            <Transformer>
             <VectorParam id="5306"  name="translation">
              <InterpolatingParam id="5307" interp="linr"  time="-9999999/1" value="0" leadInLength="0/1"  />
              <InterpolatingParam id="5308" interp="linr"  time="-9999999/1" value="0" leadInLength="0/1"  />
              <InterpolatingParam id="5309" interp="linr"  time="-9999999/1" value="0" leadInLength="0/1"  />
             </VectorParam>
             <VectorParam id="5310"  name="rotation">
              <InterpolatingParam id="5311" interp="linr"  time="-9999999/1" value="0" leadInLength="0/1"  />
              <InterpolatingParam id="5312" interp="linr"  time="-9999999/1" value="0" leadInLength="0/1"  />
              <InterpolatingParam id="5313" interp="linr"  time="-9999999/1" value="0" leadInLength="0/1"  />
             </VectorParam>
             <VectorParam id="5314"  name="shear">
              <InterpolatingParam id="5315" interp="linr"  time="-9999999/1" value="0" leadInLength="0/1"  />
              <InterpolatingParam id="5316" interp="linr"  time="-9999999/1" value="0" leadInLength="0/1"  />
              <InterpolatingParam id="5317" interp="linr"  time="-9999999/1" value="0" leadInLength="0/1"  />
             </VectorParam>
             <VectorParam id="5318"  name="scale">
              <InterpolatingParam id="5319" interp="linr"  time="-9999999/1" value="1" leadInLength="0/1"  />
              <InterpolatingParam id="5320" interp="linr"  time="-9999999/1" value="1" leadInLength="0/1"  />
              <InterpolatingParam id="5321" interp="linr"  time="-9999999/1" value="1" leadInLength="0/1"  />
             </VectorParam>
             <VectorParam id="5322"  name="anchor">
              <InterpolatingParam id="5323" interp="linr"  time="0/1" value="0" leadInLength="0/1"  />
              <InterpolatingParam id="5324" interp="linr"  time="0/1" value="0" leadInLength="0/1"  />
              <InterpolatingParam id="5325" interp="linr"  time="0/1" value="0" leadInLength="0/1"  />
             </VectorParam>
            </Transformer>
            <Parameters>
             <VectorParam id="5326"  name="sourceCrop">
              <InterpolatingParam id="5327" interp="linr"  time="0/1" value="0" leadInLength="0/1"  />
              <InterpolatingParam id="5328" interp="linr"  time="0/1" value="0" leadInLength="0/1"  />
              <InterpolatingParam id="5329" interp="linr"  time="0/1" value="0" leadInLength="0/1"  />
              <InterpolatingParam id="5330" interp="linr"  time="0/1" value="0" leadInLength="0/1"  />
             </VectorParam>
             <VectorParam id="5331"  name="geometryCrop">
              <InterpolatingParam id="5332" interp="linr"  time="-9999999/1" value="0" leadInLength="0/1"  />
              <InterpolatingParam id="5333" interp="linr"  time="-9999999/1" value="0" leadInLength="0/1"  />
              <InterpolatingParam id="5334" interp="linr"  time="-9999999/1" value="0" leadInLength="0/1"  />
              <InterpolatingParam id="5335" interp="linr"  time="-9999999/1" value="0" leadInLength="0/1"  />
             </VectorParam>
             <InterpolatingParam id="5336" interp="linr"  time="-9999999/1" value="1" leadInLength="0/1"  name="opacity"/>
            </Parameters>
            <Attributes>
             <Attribute id="5337" value="" name="ident"/>
            </Attributes>
            <MetaData>
             <entry key="WinSubProjectDisplayName" val=""/>
            </MetaData>
            <ExtraData>
             <Entry key="ZoomPanBin">
              <ZoomPanBin id="5338"  >
               <ZoomPanKeyframes>
                <ZoomPanKeyframe id="5339" timeRangeEnd="-9999999/1" timeRangeDuration="0/1" interpolaterName="linr"  />
               </ZoomPanKeyframes>
              </ZoomPanBin>
             </Entry>
            </ExtraData>
           </IMFile>
           <UnifiedMedia id="5340"  >
            <AMFile id="5341" start="778" duration="2" scalar="1/1" mediaStart="552/1" mediaDuration="2/1" trackNumber="1" src="27" channelNumber="0" >
             <Parameters>
              <InterpolatingParam id="5342" interp="linr"  time="0/1" value="1" leadInLength="0/1"  name="volume"/>
              <Parameter id="5343"  name="captions"/>
             </Parameters>
             <Attributes>
              <Attribute id="5344" value="" name="ident"/>
              <Attribute id="5345" value="48000" name="sampleRate"/>
              <Attribute id="5346" value="16" name="bitDepth"/>
              <Attribute id="5347" value="1" name="gain"/>
              <Attribute id="5348" value="0" name="mixToMono"/>
             </Attributes>
            </AMFile>
            <VMFile id="5349" start="778" duration="2" scalar="1/1" mediaStart="552/1" mediaDuration="2/1" trackNumber="0" src="27" >
             <Transformer>
              <VectorParam id="5350"  name="translation">
               <InterpolatingParam id="5351" interp="linr"  time="-9999999/1" value="0" leadInLength="0/1"  />
               <InterpolatingParam id="5352" interp="linr"  time="-9999999/1" value="0" leadInLength="0/1"  />
               <InterpolatingParam id="5353" interp="linr"  time="-9999999/1" value="0" leadInLength="0/1"  />
              </VectorParam>
              <VectorParam id="5354"  name="rotation">
               <InterpolatingParam id="5355" interp="linr"  time="-9999999/1" value="0" leadInLength="0/1"  />
               <InterpolatingParam id="5356" interp="linr"  time="-9999999/1" value="0" leadInLength="0/1"  />
               <InterpolatingParam id="5357" interp="linr"  time="-9999999/1" value="0" leadInLength="0/1"  />
              </VectorParam>
              <VectorParam id="5358"  name="shear">
               <InterpolatingParam id="5359" interp="linr"  time="-9999999/1" value="0" leadInLength="0/1"  />
               <InterpolatingParam id="5360" interp="linr"  time="-9999999/1" value="0" leadInLength="0/1"  />
               <InterpolatingParam id="5361" interp="linr"  time="-9999999/1" value="0" leadInLength="0/1"  />
              </VectorParam>
              <VectorParam id="5362"  name="scale">
               <InterpolatingParam id="5363" interp="linr"  time="-9999999/1" value="1" leadInLength="0/1"  />
               <InterpolatingParam id="5364" interp="linr"  time="-9999999/1" value="1" leadInLength="0/1"  />
               <InterpolatingParam id="5365" interp="linr"  time="-9999999/1" value="1" leadInLength="0/1"  />
              </VectorParam>
              <VectorParam id="5366"  name="anchor">
               <InterpolatingParam id="5367" interp="linr"  time="0/1" value="0" leadInLength="0/1"  />
               <InterpolatingParam id="5368" interp="linr"  time="0/1" value="0" leadInLength="0/1"  />
               <InterpolatingParam id="5369" interp="linr"  time="0/1" value="0" leadInLength="0/1"  />
              </VectorParam>
             </Transformer>
             <Parameters>
              <VectorParam id="5370"  name="sourceCrop">
               <InterpolatingParam id="5371" interp="linr"  time="0/1" value="0" leadInLength="0/1"  />
               <InterpolatingParam id="5372" interp="linr"  time="0/1" value="0" leadInLength="0/1"  />
               <InterpolatingParam id="5373" interp="linr"  time="0/1" value="0" leadInLength="0/1"  />
               <InterpolatingParam id="5374" interp="linr"  time="0/1" value="0" leadInLength="0/1"  />
              </VectorParam>
              <VectorParam id="5375"  name="geometryCrop">
               <InterpolatingParam id="5376" interp="linr"  time="-9999999/1" value="0" leadInLength="0/1"  />
               <InterpolatingParam id="5377" interp="linr"  time="-9999999/1" value="0" leadInLength="0/1"  />
               <InterpolatingParam id="5378" interp="linr"  time="-9999999/1" value="0" leadInLength="0/1"  />
               <InterpolatingParam id="5379" interp="linr"  time="-9999999/1" value="0" leadInLength="0/1"  />
              </VectorParam>
              <InterpolatingParam id="5380" interp="linr"  time="-9999999/1" value="1" leadInLength="0/1"  name="opacity"/>
             </Parameters>
             <Attributes>
              <Attribute id="5381" value="" name="ident"/>
             </Attributes>
             <ExtraData>
              <Entry key="ZoomPanBin">
               <ZoomPanBin id="5382"  >
                <ZoomPanKeyframes>
                 <ZoomPanKeyframe id="5383" timeRangeEnd="-9999999/1" timeRangeDuration="0/1" interpolaterName="linr"  />
                </ZoomPanKeyframes>
               </ZoomPanBin>
              </Entry>
             </ExtraData>
            </VMFile>
            <MetaData>
             <entry key="WinSubProjectDisplayName" val=""/>
            </MetaData>
           </UnifiedMedia>
           <IMFile id="5384" start="780" duration="17" scalar="1/1" mediaStart="553/1" mediaDuration="1/1" trackNumber="0" src="27" trimStartSum="0/1" >
            <Transformer>
             <VectorParam id="5385"  name="translation">
              <InterpolatingParam id="5386" interp="linr"  time="-9999999/1" value="0" leadInLength="0/1"  />
              <InterpolatingParam id="5387" interp="linr"  time="-9999999/1" value="0" leadInLength="0/1"  />
              <InterpolatingParam id="5388" interp="linr"  time="-9999999/1" value="0" leadInLength="0/1"  />
             </VectorParam>
             <VectorParam id="5389"  name="rotation">
              <InterpolatingParam id="5390" interp="linr"  time="-9999999/1" value="0" leadInLength="0/1"  />
              <InterpolatingParam id="5391" interp="linr"  time="-9999999/1" value="0" leadInLength="0/1"  />
              <InterpolatingParam id="5392" interp="linr"  time="-9999999/1" value="0" leadInLength="0/1"  />
             </VectorParam>
             <VectorParam id="5393"  name="shear">
              <InterpolatingParam id="5394" interp="linr"  time="-9999999/1" value="0" leadInLength="0/1"  />
              <InterpolatingParam id="5395" interp="linr"  time="-9999999/1" value="0" leadInLength="0/1"  />
              <InterpolatingParam id="5396" interp="linr"  time="-9999999/1" value="0" leadInLength="0/1"  />
             </VectorParam>
             <VectorParam id="5397"  name="scale">
              <InterpolatingParam id="5398" interp="linr"  time="-9999999/1" value="1" leadInLength="0/1"  />
              <InterpolatingParam id="5399" interp="linr"  time="-9999999/1" value="1" leadInLength="0/1"  />
              <InterpolatingParam id="5400" interp="linr"  time="-9999999/1" value="1" leadInLength="0/1"  />
             </VectorParam>
             <VectorParam id="5401"  name="anchor">
              <InterpolatingParam id="5402" interp="linr"  time="0/1" value="0" leadInLength="0/1"  />
              <InterpolatingParam id="5403" interp="linr"  time="0/1" value="0" leadInLength="0/1"  />
              <InterpolatingParam id="5404" interp="linr"  time="0/1" value="0" leadInLength="0/1"  />
             </VectorParam>
            </Transformer>
            <Parameters>
             <VectorParam id="5405"  name="sourceCrop">
              <InterpolatingParam id="5406" interp="linr"  time="0/1" value="0" leadInLength="0/1"  />
              <InterpolatingParam id="5407" interp="linr"  time="0/1" value="0" leadInLength="0/1"  />
              <InterpolatingParam id="5408" interp="linr"  time="0/1" value="0" leadInLength="0/1"  />
              <InterpolatingParam id="5409" interp="linr"  time="0/1" value="0" leadInLength="0/1"  />
             </VectorParam>
             <VectorParam id="5410"  name="geometryCrop">
              <InterpolatingParam id="5411" interp="linr"  time="-9999999/1" value="0" leadInLength="0/1"  />
              <InterpolatingParam id="5412" interp="linr"  time="-9999999/1" value="0" leadInLength="0/1"  />
              <InterpolatingParam id="5413" interp="linr"  time="-9999999/1" value="0" leadInLength="0/1"  />
              <InterpolatingParam id="5414" interp="linr"  time="-9999999/1" value="0" leadInLength="0/1"  />
             </VectorParam>
             <InterpolatingParam id="5415" interp="linr"  time="-9999999/1" value="1" leadInLength="0/1"  name="opacity"/>
            </Parameters>
            <Attributes>
             <Attribute id="5416" value="" name="ident"/>
            </Attributes>
            <MetaData>
             <entry key="WinSubProjectDisplayName" val=""/>
            </MetaData>
            <ExtraData>
             <Entry key="ZoomPanBin">
              <ZoomPanBin id="5417"  >
               <ZoomPanKeyframes>
                <ZoomPanKeyframe id="5418" timeRangeEnd="-9999999/1" timeRangeDuration="0/1" interpolaterName="linr"  />
               </ZoomPanKeyframes>
              </ZoomPanBin>
             </Entry>
            </ExtraData>
           </IMFile>
           <UnifiedMedia id="5419"  >
            <AMFile id="5420" start="797" duration="45" scalar="1/1" mediaStart="553/1" mediaDuration="45/1" trackNumber="1" src="27" channelNumber="0" >
             <Parameters>
              <InterpolatingParam id="5421" interp="linr"  time="0/1" value="1" leadInLength="0/1"  name="volume"/>
              <Parameter id="5422"  name="captions"/>
             </Parameters>
             <Attributes>
              <Attribute id="5423" value="" name="ident"/>
              <Attribute id="5424" value="48000" name="sampleRate"/>
              <Attribute id="5425" value="16" name="bitDepth"/>
              <Attribute id="5426" value="1" name="gain"/>
              <Attribute id="5427" value="0" name="mixToMono"/>
             </Attributes>
            </AMFile>
            <VMFile id="5428" start="797" duration="45" scalar="1/1" mediaStart="553/1" mediaDuration="45/1" trackNumber="0" src="27" >
             <Transformer>
              <VectorParam id="5429"  name="translation">
               <InterpolatingParam id="5430" interp="linr"  time="-9999999/1" value="0" leadInLength="0/1"  />
               <InterpolatingParam id="5431" interp="linr"  time="-9999999/1" value="0" leadInLength="0/1"  />
               <InterpolatingParam id="5432" interp="linr"  time="-9999999/1" value="0" leadInLength="0/1"  />
              </VectorParam>
              <VectorParam id="5433"  name="rotation">
               <InterpolatingParam id="5434" interp="linr"  time="-9999999/1" value="0" leadInLength="0/1"  />
               <InterpolatingParam id="5435" interp="linr"  time="-9999999/1" value="0" leadInLength="0/1"  />
               <InterpolatingParam id="5436" interp="linr"  time="-9999999/1" value="0" leadInLength="0/1"  />
              </VectorParam>
              <VectorParam id="5437"  name="shear">
               <InterpolatingParam id="5438" interp="linr"  time="-9999999/1" value="0" leadInLength="0/1"  />
               <InterpolatingParam id="5439" interp="linr"  time="-9999999/1" value="0" leadInLength="0/1"  />
               <InterpolatingParam id="5440" interp="linr"  time="-9999999/1" value="0" leadInLength="0/1"  />
              </VectorParam>
              <VectorParam id="5441"  name="scale">
               <InterpolatingParam id="5442" interp="linr"  time="-9999999/1" value="1" leadInLength="0/1"  />
               <InterpolatingParam id="5443" interp="linr"  time="-9999999/1" value="1" leadInLength="0/1"  />
               <InterpolatingParam id="5444" interp="linr"  time="-9999999/1" value="1" leadInLength="0/1"  />
              </VectorParam>
              <VectorParam id="5445"  name="anchor">
               <InterpolatingParam id="5446" interp="linr"  time="0/1" value="0" leadInLength="0/1"  />
               <InterpolatingParam id="5447" interp="linr"  time="0/1" value="0" leadInLength="0/1"  />
               <InterpolatingParam id="5448" interp="linr"  time="0/1" value="0" leadInLength="0/1"  />
              </VectorParam>
             </Transformer>
             <Parameters>
              <VectorParam id="5449"  name="sourceCrop">
               <InterpolatingParam id="5450" interp="linr"  time="0/1" value="0" leadInLength="0/1"  />
               <InterpolatingParam id="5451" interp="linr"  time="0/1" value="0" leadInLength="0/1"  />
               <InterpolatingParam id="5452" interp="linr"  time="0/1" value="0" leadInLength="0/1"  />
               <InterpolatingParam id="5453" interp="linr"  time="0/1" value="0" leadInLength="0/1"  />
              </VectorParam>
              <VectorParam id="5454"  name="geometryCrop">
               <InterpolatingParam id="5455" interp="linr"  time="-9999999/1" value="0" leadInLength="0/1"  />
               <InterpolatingParam id="5456" interp="linr"  time="-9999999/1" value="0" leadInLength="0/1"  />
               <InterpolatingParam id="5457" interp="linr"  time="-9999999/1" value="0" leadInLength="0/1"  />
               <InterpolatingParam id="5458" interp="linr"  time="-9999999/1" value="0" leadInLength="0/1"  />
              </VectorParam>
              <InterpolatingParam id="5459" interp="linr"  time="-9999999/1" value="1" leadInLength="0/1"  name="opacity"/>
             </Parameters>
             <Attributes>
              <Attribute id="5460" value="" name="ident"/>
             </Attributes>
             <ExtraData>
              <Entry key="ZoomPanBin">
               <ZoomPanBin id="5461"  >
                <ZoomPanKeyframes>
                 <ZoomPanKeyframe id="5462" timeRangeEnd="-9999999/1" timeRangeDuration="0/1" interpolaterName="linr"  />
                </ZoomPanKeyframes>
               </ZoomPanBin>
              </Entry>
             </ExtraData>
            </VMFile>
            <MetaData>
             <entry key="WinSubProjectDisplayName" val=""/>
            </MetaData>
           </UnifiedMedia>
           <UnifiedMedia id="5463"  >
            <AMFile id="5464" start="842" duration="547" scalar="1/1" mediaStart="641/1" mediaDuration="547/1" trackNumber="1" src="27" channelNumber="0" >
             <Parameters>
              <InterpolatingParam id="5465" interp="linr"  time="0/1" value="1" leadInLength="0/1"  name="volume"/>
              <Parameter id="5466"  name="captions"/>
             </Parameters>
             <Attributes>
              <Attribute id="5467" value="" name="ident"/>
              <Attribute id="5468" value="48000" name="sampleRate"/>
              <Attribute id="5469" value="16" name="bitDepth"/>
              <Attribute id="5470" value="1" name="gain"/>
              <Attribute id="5471" value="0" name="mixToMono"/>
             </Attributes>
            </AMFile>
            <VMFile id="5472" start="842" duration="547" scalar="1/1" mediaStart="641/1" mediaDuration="547/1" trackNumber="0" src="27" >
             <Transformer>
              <VectorParam id="5473"  name="translation">
               <InterpolatingParam id="5474" interp="linr"  time="-9999999/1" value="0" leadInLength="0/1"  />
               <InterpolatingParam id="5475" interp="linr"  time="-9999999/1" value="0" leadInLength="0/1"  />
               <InterpolatingParam id="5476" interp="linr"  time="-9999999/1" value="0" leadInLength="0/1"  />
              </VectorParam>
              <VectorParam id="5477"  name="rotation">
               <InterpolatingParam id="5478" interp="linr"  time="-9999999/1" value="0" leadInLength="0/1"  />
               <InterpolatingParam id="5479" interp="linr"  time="-9999999/1" value="0" leadInLength="0/1"  />
               <InterpolatingParam id="5480" interp="linr"  time="-9999999/1" value="0" leadInLength="0/1"  />
              </VectorParam>
              <VectorParam id="5481"  name="shear">
               <InterpolatingParam id="5482" interp="linr"  time="-9999999/1" value="0" leadInLength="0/1"  />
               <InterpolatingParam id="5483" interp="linr"  time="-9999999/1" value="0" leadInLength="0/1"  />
               <InterpolatingParam id="5484" interp="linr"  time="-9999999/1" value="0" leadInLength="0/1"  />
              </VectorParam>
              <VectorParam id="5485"  name="scale">
               <InterpolatingParam id="5486" interp="linr"  time="-9999999/1" value="1" leadInLength="0/1"  />
               <InterpolatingParam id="5487" interp="linr"  time="-9999999/1" value="1" leadInLength="0/1"  />
               <InterpolatingParam id="5488" interp="linr"  time="-9999999/1" value="1" leadInLength="0/1"  />
              </VectorParam>
              <VectorParam id="5489"  name="anchor">
               <InterpolatingParam id="5490" interp="linr"  time="0/1" value="0" leadInLength="0/1"  />
               <InterpolatingParam id="5491" interp="linr"  time="0/1" value="0" leadInLength="0/1"  />
               <InterpolatingParam id="5492" interp="linr"  time="0/1" value="0" leadInLength="0/1"  />
              </VectorParam>
             </Transformer>
             <Parameters>
              <VectorParam id="5493"  name="sourceCrop">
               <InterpolatingParam id="5494" interp="linr"  time="0/1" value="0" leadInLength="0/1"  />
               <InterpolatingParam id="5495" interp="linr"  time="0/1" value="0" leadInLength="0/1"  />
               <InterpolatingParam id="5496" interp="linr"  time="0/1" value="0" leadInLength="0/1"  />
               <InterpolatingParam id="5497" interp="linr"  time="0/1" value="0" leadInLength="0/1"  />
              </VectorParam>
              <VectorParam id="5498"  name="geometryCrop">
               <InterpolatingParam id="5499" interp="linr"  time="-9999999/1" value="0" leadInLength="0/1"  />
               <InterpolatingParam id="5500" interp="linr"  time="-9999999/1" value="0" leadInLength="0/1"  />
               <InterpolatingParam id="5501" interp="linr"  time="-9999999/1" value="0" leadInLength="0/1"  />
               <InterpolatingParam id="5502" interp="linr"  time="-9999999/1" value="0" leadInLength="0/1"  />
              </VectorParam>
              <InterpolatingParam id="5503" interp="linr"  time="-9999999/1" value="1" leadInLength="0/1"  name="opacity"/>
             </Parameters>
             <Attributes>
              <Attribute id="5504" value="" name="ident"/>
             </Attributes>
             <ExtraData>
              <Entry key="ZoomPanBin">
               <ZoomPanBin id="5505"  >
                <ZoomPanKeyframes>
                 <ZoomPanKeyframe id="5506" timeRangeEnd="-9999999/1" timeRangeDuration="0/1" interpolaterName="linr"  />
                </ZoomPanKeyframes>
               </ZoomPanBin>
              </Entry>
             </ExtraData>
            </VMFile>
            <MetaData>
             <entry key="WinSubProjectDisplayName" val=""/>
            </MetaData>
           </UnifiedMedia>
          </Medias>
         </GenericTrack>
        </StitchedMedia>
        <StitchedMedia id="5507" start="7473" duration="160" scalar="15427652490000/16336542810277" mediaStart="16721653966841/21427295125" mediaDuration="32673085620554/192845656125" minMediaStart="0/1" >
         <Transformer>
          <VectorParam id="5508"  name="translation">
           <InterpolatingParam id="5509" interp="linr"  time="-9999999/1" value="-64.054283290940219" leadInLength="0/1"  />
           <InterpolatingParam id="5510" interp="linr"  time="-9999999/1" value="316.33587786259488" leadInLength="0/1"  />
           <InterpolatingParam id="5511" interp="linr"  time="-9999999/1" value="0" leadInLength="0/1"  />
          </VectorParam>
          <VectorParam id="5512"  name="rotation">
           <InterpolatingParam id="5513" interp="linr"  time="-9999999/1" value="0" leadInLength="0/1"  />
           <InterpolatingParam id="5514" interp="linr"  time="-9999999/1" value="0" leadInLength="0/1"  />
           <InterpolatingParam id="5515" interp="linr"  time="-9999999/1" value="0" leadInLength="0/1"  />
          </VectorParam>
          <VectorParam id="5516"  name="shear">
           <InterpolatingParam id="5517" interp="linr"  time="-9999999/1" value="0" leadInLength="0/1"  />
           <InterpolatingParam id="5518" interp="linr"  time="-9999999/1" value="0" leadInLength="0/1"  />
           <InterpolatingParam id="5519" interp="linr"  time="-9999999/1" value="0" leadInLength="0/1"  />
          </VectorParam>
          <VectorParam id="5520"  name="scale">
           <InterpolatingParam id="5521" interp="linr"  time="-9999999/1" value="1.2524738478938717" leadInLength="0/1"  />
           <InterpolatingParam id="5522" interp="linr"  time="-9999999/1" value="1.2524738478938722" leadInLength="0/1"  />
           <InterpolatingParam id="5523" interp="linr"  time="-9999999/1" value="1" leadInLength="0/1"  />
          </VectorParam>
          <VectorParam id="5524"  name="anchor">
           <InterpolatingParam id="5525" interp="linr"  >
            <Keyframes>
            <Keyframe id="5526"  time="0/1" value="0" leadInLength="0/1"  />
            <Keyframe id="5527"  time="553/1" value="0" leadInLength="0/1"  />
            </Keyframes>
           </InterpolatingParam>
           <InterpolatingParam id="5528" interp="linr"  >
            <Keyframes>
            <Keyframe id="5529"  time="0/1" value="0" leadInLength="0/1"  />
            <Keyframe id="5530"  time="553/1" value="0" leadInLength="0/1"  />
            </Keyframes>
           </InterpolatingParam>
           <InterpolatingParam id="5531" interp="linr"  >
            <Keyframes>
            <Keyframe id="5532"  time="0/1" value="0" leadInLength="0/1"  />
            <Keyframe id="5533"  time="553/1" value="0" leadInLength="0/1"  />
            </Keyframes>
           </InterpolatingParam>
          </VectorParam>
         </Transformer>
         <Parameters>
          <VectorParam id="5534"  name="sourceCrop">
           <InterpolatingParam id="5535" interp="linr"  >
            <Keyframes>
            <Keyframe id="5536"  time="0/1" value="0" leadInLength="0/1"  />
            <Keyframe id="5537"  time="553/1" value="0" leadInLength="0/1"  />
            </Keyframes>
           </InterpolatingParam>
           <InterpolatingParam id="5538" interp="linr"  >
            <Keyframes>
            <Keyframe id="5539"  time="0/1" value="0" leadInLength="0/1"  />
            <Keyframe id="5540"  time="553/1" value="0" leadInLength="0/1"  />
            </Keyframes>
           </InterpolatingParam>
           <InterpolatingParam id="5541" interp="linr"  >
            <Keyframes>
            <Keyframe id="5542"  time="0/1" value="0" leadInLength="0/1"  />
            <Keyframe id="5543"  time="553/1" value="0" leadInLength="0/1"  />
            </Keyframes>
           </InterpolatingParam>
           <InterpolatingParam id="5544" interp="linr"  >
            <Keyframes>
            <Keyframe id="5545"  time="0/1" value="0" leadInLength="0/1"  />
            <Keyframe id="5546"  time="553/1" value="0" leadInLength="0/1"  />
            </Keyframes>
           </InterpolatingParam>
          </VectorParam>
          <VectorParam id="5547"  name="geometryCrop">
           <InterpolatingParam id="5548" interp="linr"  time="-9999999/1" value="0" leadInLength="0/1"  />
           <InterpolatingParam id="5549" interp="linr"  time="-9999999/1" value="0" leadInLength="0/1"  />
           <InterpolatingParam id="5550" interp="linr"  time="-9999999/1" value="0" leadInLength="0/1"  />
           <InterpolatingParam id="5551" interp="linr"  time="-9999999/1" value="0" leadInLength="0/1"  />
          </VectorParam>
          <InterpolatingParam id="5552" interp="linr"  time="-9999999/1" value="1" leadInLength="0/1"  name="opacity"/>
          <InterpolatingParam id="5553" interp="linr"  time="0/1" value="1" leadInLength="0/1"  name="cursorOpacity"/>
          <InterpolatingParam id="5554" interp="linr"  time="0/1" value="1" leadInLength="0/1"  name="cursorScale"/>
          <InterpolatingParam id="5555" interp="linr"  name="volume">
           <Keyframes>
           <Keyframe id="5556"  time="0/1" value="1" leadInLength="0/1"  />
           <Keyframe id="5557"  time="324224/589" value="1" leadInLength="0/1"  />
           <Keyframe id="5558"  time="2928481/5301" value="0" leadInLength="0/1"  />
           <Keyframe id="5559"  time="394882386575309/416459945025" value="0" leadInLength="0/1"  />
           <Keyframe id="5560"  time="43967171488826/46273327225" value="1" leadInLength="0/1"  />
           <Keyframe id="5561"  time="395722612780184/416459945025" value="1" leadInLength="0/1"  />
           </Keyframes>
          </InterpolatingParam>
          <Parameter id="5562"  name="captions"/>
         </Parameters>
         <Attributes>
          <Attribute id="5563" value="" name="ident"/>
          <Attribute id="5564" value="0" name="mixToMono"/>
         </Attributes>
         <MetaData>
          <entry key="WinSubProjectDisplayName" val=""/>
         </MetaData>
         <ExtraData>
          <Entry key="ZoomPanBin">
           <ZoomPanBin id="5565"  >
            <ZoomPanKeyframes>
             <ZoomPanKeyframe id="5566" timeRangeEnd="-9999999/1" timeRangeDuration="0/1" interpolaterName="linr"  />
            </ZoomPanKeyframes>
           </ZoomPanBin>
          </Entry>
          <Entry key="CursorEffectBin">
           <CursorEffectBin id="5567"  >
            <CursorEffectKeyframes>
            </CursorEffectKeyframes>
           </CursorEffectBin>
          </Entry>
         </ExtraData>
         <GenericTrack id="5568"  >
          <Attributes>
           <Attribute id="5569" value="" name="ident"/>
           <Attribute id="5570" value="0" name="audioMuted"/>
           <Attribute id="5571" value="0" name="videoHidden"/>
          </Attributes>
          <MetaData>
           <entry key="IsLocked" val="False"/>
           <entry key="WinTrackHeight" val="0"/>
          </MetaData>
          <Medias>
           <UnifiedMedia id="5572"  >
            <AMFile id="5573" start="0" duration="553" scalar="1/1" mediaStart="0/1" mediaDuration="553/1" trackNumber="1" src="27" channelNumber="0" >
             <Parameters>
              <InterpolatingParam id="5574" interp="linr"  time="0/1" value="1" leadInLength="0/1"  name="volume"/>
              <Parameter id="5575"  name="captions"/>
             </Parameters>
             <Attributes>
              <Attribute id="5576" value="" name="ident"/>
              <Attribute id="5577" value="48000" name="sampleRate"/>
              <Attribute id="5578" value="16" name="bitDepth"/>
              <Attribute id="5579" value="1" name="gain"/>
              <Attribute id="5580" value="0" name="mixToMono"/>
             </Attributes>
            </AMFile>
            <VMFile id="5581" start="0" duration="553" scalar="1/1" mediaStart="0/1" mediaDuration="553/1" trackNumber="0" src="27" >
             <Transformer>
              <VectorParam id="5582"  name="translation">
               <InterpolatingParam id="5583" interp="linr"  time="-9999999/1" value="0" leadInLength="0/1"  />
               <InterpolatingParam id="5584" interp="linr"  time="-9999999/1" value="0" leadInLength="0/1"  />
               <InterpolatingParam id="5585" interp="linr"  time="-9999999/1" value="0" leadInLength="0/1"  />
              </VectorParam>
              <VectorParam id="5586"  name="rotation">
               <InterpolatingParam id="5587" interp="linr"  time="-9999999/1" value="0" leadInLength="0/1"  />
               <InterpolatingParam id="5588" interp="linr"  time="-9999999/1" value="0" leadInLength="0/1"  />
               <InterpolatingParam id="5589" interp="linr"  time="-9999999/1" value="0" leadInLength="0/1"  />
              </VectorParam>
              <VectorParam id="5590"  name="shear">
               <InterpolatingParam id="5591" interp="linr"  time="-9999999/1" value="0" leadInLength="0/1"  />
               <InterpolatingParam id="5592" interp="linr"  time="-9999999/1" value="0" leadInLength="0/1"  />
               <InterpolatingParam id="5593" interp="linr"  time="-9999999/1" value="0" leadInLength="0/1"  />
              </VectorParam>
              <VectorParam id="5594"  name="scale">
               <InterpolatingParam id="5595" interp="linr"  time="-9999999/1" value="1" leadInLength="0/1"  />
               <InterpolatingParam id="5596" interp="linr"  time="-9999999/1" value="1" leadInLength="0/1"  />
               <InterpolatingParam id="5597" interp="linr"  time="-9999999/1" value="1" leadInLength="0/1"  />
              </VectorParam>
              <VectorParam id="5598"  name="anchor">
               <InterpolatingParam id="5599" interp="linr"  time="0/1" value="0" leadInLength="0/1"  />
               <InterpolatingParam id="5600" interp="linr"  time="0/1" value="0" leadInLength="0/1"  />
               <InterpolatingParam id="5601" interp="linr"  time="0/1" value="0" leadInLength="0/1"  />
              </VectorParam>
             </Transformer>
             <Parameters>
              <VectorParam id="5602"  name="sourceCrop">
               <InterpolatingParam id="5603" interp="linr"  time="0/1" value="0" leadInLength="0/1"  />
               <InterpolatingParam id="5604" interp="linr"  time="0/1" value="0" leadInLength="0/1"  />
               <InterpolatingParam id="5605" interp="linr"  time="0/1" value="0" leadInLength="0/1"  />
               <InterpolatingParam id="5606" interp="linr"  time="0/1" value="0" leadInLength="0/1"  />
              </VectorParam>
              <VectorParam id="5607"  name="geometryCrop">
               <InterpolatingParam id="5608" interp="linr"  time="-9999999/1" value="0" leadInLength="0/1"  />
               <InterpolatingParam id="5609" interp="linr"  time="-9999999/1" value="0" leadInLength="0/1"  />
               <InterpolatingParam id="5610" interp="linr"  time="-9999999/1" value="0" leadInLength="0/1"  />
               <InterpolatingParam id="5611" interp="linr"  time="-9999999/1" value="0" leadInLength="0/1"  />
              </VectorParam>
              <InterpolatingParam id="5612" interp="linr"  time="-9999999/1" value="1" leadInLength="0/1"  name="opacity"/>
             </Parameters>
             <Attributes>
              <Attribute id="5613" value="" name="ident"/>
             </Attributes>
             <ExtraData>
              <Entry key="ZoomPanBin">
               <ZoomPanBin id="5614"  >
                <ZoomPanKeyframes>
                 <ZoomPanKeyframe id="5615" timeRangeEnd="-9999999/1" timeRangeDuration="0/1" interpolaterName="linr"  />
                </ZoomPanKeyframes>
               </ZoomPanBin>
              </Entry>
             </ExtraData>
            </VMFile>
            <MetaData>
             <entry key="WinSubProjectDisplayName" val=""/>
            </MetaData>
           </UnifiedMedia>
           <IMFile id="5616" start="553" duration="225" scalar="1/1" mediaStart="554/1" mediaDuration="1/1" trackNumber="0" src="27" trimStartSum="0/1" >
            <Transformer>
             <VectorParam id="5617"  name="translation">
              <InterpolatingParam id="5618" interp="linr"  time="-9999999/1" value="0" leadInLength="0/1"  />
              <InterpolatingParam id="5619" interp="linr"  time="-9999999/1" value="0" leadInLength="0/1"  />
              <InterpolatingParam id="5620" interp="linr"  time="-9999999/1" value="0" leadInLength="0/1"  />
             </VectorParam>
             <VectorParam id="5621"  name="rotation">
              <InterpolatingParam id="5622" interp="linr"  time="-9999999/1" value="0" leadInLength="0/1"  />
              <InterpolatingParam id="5623" interp="linr"  time="-9999999/1" value="0" leadInLength="0/1"  />
              <InterpolatingParam id="5624" interp="linr"  time="-9999999/1" value="0" leadInLength="0/1"  />
             </VectorParam>
             <VectorParam id="5625"  name="shear">
              <InterpolatingParam id="5626" interp="linr"  time="-9999999/1" value="0" leadInLength="0/1"  />
              <InterpolatingParam id="5627" interp="linr"  time="-9999999/1" value="0" leadInLength="0/1"  />
              <InterpolatingParam id="5628" interp="linr"  time="-9999999/1" value="0" leadInLength="0/1"  />
             </VectorParam>
             <VectorParam id="5629"  name="scale">
              <InterpolatingParam id="5630" interp="linr"  time="-9999999/1" value="1" leadInLength="0/1"  />
              <InterpolatingParam id="5631" interp="linr"  time="-9999999/1" value="1" leadInLength="0/1"  />
              <InterpolatingParam id="5632" interp="linr"  time="-9999999/1" value="1" leadInLength="0/1"  />
             </VectorParam>
             <VectorParam id="5633"  name="anchor">
              <InterpolatingParam id="5634" interp="linr"  time="0/1" value="0" leadInLength="0/1"  />
              <InterpolatingParam id="5635" interp="linr"  time="0/1" value="0" leadInLength="0/1"  />
              <InterpolatingParam id="5636" interp="linr"  time="0/1" value="0" leadInLength="0/1"  />
             </VectorParam>
            </Transformer>
            <Parameters>
             <VectorParam id="5637"  name="sourceCrop">
              <InterpolatingParam id="5638" interp="linr"  time="0/1" value="0" leadInLength="0/1"  />
              <InterpolatingParam id="5639" interp="linr"  time="0/1" value="0" leadInLength="0/1"  />
              <InterpolatingParam id="5640" interp="linr"  time="0/1" value="0" leadInLength="0/1"  />
              <InterpolatingParam id="5641" interp="linr"  time="0/1" value="0" leadInLength="0/1"  />
             </VectorParam>
             <VectorParam id="5642"  name="geometryCrop">
              <InterpolatingParam id="5643" interp="linr"  time="-9999999/1" value="0" leadInLength="0/1"  />
              <InterpolatingParam id="5644" interp="linr"  time="-9999999/1" value="0" leadInLength="0/1"  />
              <InterpolatingParam id="5645" interp="linr"  time="-9999999/1" value="0" leadInLength="0/1"  />
              <InterpolatingParam id="5646" interp="linr"  time="-9999999/1" value="0" leadInLength="0/1"  />
             </VectorParam>
             <InterpolatingParam id="5647" interp="linr"  time="-9999999/1" value="1" leadInLength="0/1"  name="opacity"/>
            </Parameters>
            <Attributes>
             <Attribute id="5648" value="" name="ident"/>
            </Attributes>
            <MetaData>
             <entry key="WinSubProjectDisplayName" val=""/>
            </MetaData>
            <ExtraData>
             <Entry key="ZoomPanBin">
              <ZoomPanBin id="5649"  >
               <ZoomPanKeyframes>
                <ZoomPanKeyframe id="5650" timeRangeEnd="-9999999/1" timeRangeDuration="0/1" interpolaterName="linr"  />
               </ZoomPanKeyframes>
              </ZoomPanBin>
             </Entry>
            </ExtraData>
           </IMFile>
           <UnifiedMedia id="5651"  >
            <AMFile id="5652" start="778" duration="46" scalar="1/1" mediaStart="552/1" mediaDuration="46/1" trackNumber="1" src="27" channelNumber="0" >
             <Parameters>
              <InterpolatingParam id="5653" interp="linr"  time="0/1" value="1" leadInLength="0/1"  name="volume"/>
              <Parameter id="5654"  name="captions"/>
             </Parameters>
             <Attributes>
              <Attribute id="5655" value="" name="ident"/>
              <Attribute id="5656" value="48000" name="sampleRate"/>
              <Attribute id="5657" value="16" name="bitDepth"/>
              <Attribute id="5658" value="1" name="gain"/>
              <Attribute id="5659" value="0" name="mixToMono"/>
             </Attributes>
            </AMFile>
            <VMFile id="5660" start="778" duration="46" scalar="1/1" mediaStart="552/1" mediaDuration="46/1" trackNumber="0" src="27" >
             <Transformer>
              <VectorParam id="5661"  name="translation">
               <InterpolatingParam id="5662" interp="linr"  time="-9999999/1" value="0" leadInLength="0/1"  />
               <InterpolatingParam id="5663" interp="linr"  time="-9999999/1" value="0" leadInLength="0/1"  />
               <InterpolatingParam id="5664" interp="linr"  time="-9999999/1" value="0" leadInLength="0/1"  />
              </VectorParam>
              <VectorParam id="5665"  name="rotation">
               <InterpolatingParam id="5666" interp="linr"  time="-9999999/1" value="0" leadInLength="0/1"  />
               <InterpolatingParam id="5667" interp="linr"  time="-9999999/1" value="0" leadInLength="0/1"  />
               <InterpolatingParam id="5668" interp="linr"  time="-9999999/1" value="0" leadInLength="0/1"  />
              </VectorParam>
              <VectorParam id="5669"  name="shear">
               <InterpolatingParam id="5670" interp="linr"  time="-9999999/1" value="0" leadInLength="0/1"  />
               <InterpolatingParam id="5671" interp="linr"  time="-9999999/1" value="0" leadInLength="0/1"  />
               <InterpolatingParam id="5672" interp="linr"  time="-9999999/1" value="0" leadInLength="0/1"  />
              </VectorParam>
              <VectorParam id="5673"  name="scale">
               <InterpolatingParam id="5674" interp="linr"  time="-9999999/1" value="1" leadInLength="0/1"  />
               <InterpolatingParam id="5675" interp="linr"  time="-9999999/1" value="1" leadInLength="0/1"  />
               <InterpolatingParam id="5676" interp="linr"  time="-9999999/1" value="1" leadInLength="0/1"  />
              </VectorParam>
              <VectorParam id="5677"  name="anchor">
               <InterpolatingParam id="5678" interp="linr"  time="0/1" value="0" leadInLength="0/1"  />
               <InterpolatingParam id="5679" interp="linr"  time="0/1" value="0" leadInLength="0/1"  />
               <InterpolatingParam id="5680" interp="linr"  time="0/1" value="0" leadInLength="0/1"  />
              </VectorParam>
             </Transformer>
             <Parameters>
              <VectorParam id="5681"  name="sourceCrop">
               <InterpolatingParam id="5682" interp="linr"  time="0/1" value="0" leadInLength="0/1"  />
               <InterpolatingParam id="5683" interp="linr"  time="0/1" value="0" leadInLength="0/1"  />
               <InterpolatingParam id="5684" interp="linr"  time="0/1" value="0" leadInLength="0/1"  />
               <InterpolatingParam id="5685" interp="linr"  time="0/1" value="0" leadInLength="0/1"  />
              </VectorParam>
              <VectorParam id="5686"  name="geometryCrop">
               <InterpolatingParam id="5687" interp="linr"  time="-9999999/1" value="0" leadInLength="0/1"  />
               <InterpolatingParam id="5688" interp="linr"  time="-9999999/1" value="0" leadInLength="0/1"  />
               <InterpolatingParam id="5689" interp="linr"  time="-9999999/1" value="0" leadInLength="0/1"  />
               <InterpolatingParam id="5690" interp="linr"  time="-9999999/1" value="0" leadInLength="0/1"  />
              </VectorParam>
              <InterpolatingParam id="5691" interp="linr"  time="-9999999/1" value="1" leadInLength="0/1"  name="opacity"/>
             </Parameters>
             <Attributes>
              <Attribute id="5692" value="" name="ident"/>
             </Attributes>
             <ExtraData>
              <Entry key="ZoomPanBin">
               <ZoomPanBin id="5693"  >
                <ZoomPanKeyframes>
                 <ZoomPanKeyframe id="5694" timeRangeEnd="-9999999/1" timeRangeDuration="0/1" interpolaterName="linr"  />
                </ZoomPanKeyframes>
               </ZoomPanBin>
              </Entry>
             </ExtraData>
            </VMFile>
            <MetaData>
             <entry key="WinSubProjectDisplayName" val=""/>
            </MetaData>
           </UnifiedMedia>
           <UnifiedMedia id="5695"  >
            <AMFile id="5696" start="824" duration="547" scalar="1/1" mediaStart="641/1" mediaDuration="547/1" trackNumber="1" src="27" channelNumber="0" >
             <Parameters>
              <InterpolatingParam id="5697" interp="linr"  time="0/1" value="1" leadInLength="0/1"  name="volume"/>
              <Parameter id="5698"  name="captions"/>
             </Parameters>
             <Attributes>
              <Attribute id="5699" value="" name="ident"/>
              <Attribute id="5700" value="48000" name="sampleRate"/>
              <Attribute id="5701" value="16" name="bitDepth"/>
              <Attribute id="5702" value="1" name="gain"/>
              <Attribute id="5703" value="0" name="mixToMono"/>
             </Attributes>
            </AMFile>
            <VMFile id="5704" start="824" duration="547" scalar="1/1" mediaStart="641/1" mediaDuration="547/1" trackNumber="0" src="27" >
             <Transformer>
              <VectorParam id="5705"  name="translation">
               <InterpolatingParam id="5706" interp="linr"  time="-9999999/1" value="0" leadInLength="0/1"  />
               <InterpolatingParam id="5707" interp="linr"  time="-9999999/1" value="0" leadInLength="0/1"  />
               <InterpolatingParam id="5708" interp="linr"  time="-9999999/1" value="0" leadInLength="0/1"  />
              </VectorParam>
              <VectorParam id="5709"  name="rotation">
               <InterpolatingParam id="5710" interp="linr"  time="-9999999/1" value="0" leadInLength="0/1"  />
               <InterpolatingParam id="5711" interp="linr"  time="-9999999/1" value="0" leadInLength="0/1"  />
               <InterpolatingParam id="5712" interp="linr"  time="-9999999/1" value="0" leadInLength="0/1"  />
              </VectorParam>
              <VectorParam id="5713"  name="shear">
               <InterpolatingParam id="5714" interp="linr"  time="-9999999/1" value="0" leadInLength="0/1"  />
               <InterpolatingParam id="5715" interp="linr"  time="-9999999/1" value="0" leadInLength="0/1"  />
               <InterpolatingParam id="5716" interp="linr"  time="-9999999/1" value="0" leadInLength="0/1"  />
              </VectorParam>
              <VectorParam id="5717"  name="scale">
               <InterpolatingParam id="5718" interp="linr"  time="-9999999/1" value="1" leadInLength="0/1"  />
               <InterpolatingParam id="5719" interp="linr"  time="-9999999/1" value="1" leadInLength="0/1"  />
               <InterpolatingParam id="5720" interp="linr"  time="-9999999/1" value="1" leadInLength="0/1"  />
              </VectorParam>
              <VectorParam id="5721"  name="anchor">
               <InterpolatingParam id="5722" interp="linr"  time="0/1" value="0" leadInLength="0/1"  />
               <InterpolatingParam id="5723" interp="linr"  time="0/1" value="0" leadInLength="0/1"  />
               <InterpolatingParam id="5724" interp="linr"  time="0/1" value="0" leadInLength="0/1"  />
              </VectorParam>
             </Transformer>
             <Parameters>
              <VectorParam id="5725"  name="sourceCrop">
               <InterpolatingParam id="5726" interp="linr"  time="0/1" value="0" leadInLength="0/1"  />
               <InterpolatingParam id="5727" interp="linr"  time="0/1" value="0" leadInLength="0/1"  />
               <InterpolatingParam id="5728" interp="linr"  time="0/1" value="0" leadInLength="0/1"  />
               <InterpolatingParam id="5729" interp="linr"  time="0/1" value="0" leadInLength="0/1"  />
              </VectorParam>
              <VectorParam id="5730"  name="geometryCrop">
               <InterpolatingParam id="5731" interp="linr"  time="-9999999/1" value="0" leadInLength="0/1"  />
               <InterpolatingParam id="5732" interp="linr"  time="-9999999/1" value="0" leadInLength="0/1"  />
               <InterpolatingParam id="5733" interp="linr"  time="-9999999/1" value="0" leadInLength="0/1"  />
               <InterpolatingParam id="5734" interp="linr"  time="-9999999/1" value="0" leadInLength="0/1"  />
              </VectorParam>
              <InterpolatingParam id="5735" interp="linr"  time="-9999999/1" value="1" leadInLength="0/1"  name="opacity"/>
             </Parameters>
             <Attributes>
              <Attribute id="5736" value="" name="ident"/>
             </Attributes>
             <ExtraData>
              <Entry key="ZoomPanBin">
               <ZoomPanBin id="5737"  >
                <ZoomPanKeyframes>
                 <ZoomPanKeyframe id="5738" timeRangeEnd="-9999999/1" timeRangeDuration="0/1" interpolaterName="linr"  />
                </ZoomPanKeyframes>
               </ZoomPanBin>
              </Entry>
             </ExtraData>
            </VMFile>
            <MetaData>
             <entry key="WinSubProjectDisplayName" val=""/>
            </MetaData>
           </UnifiedMedia>
          </Medias>
         </GenericTrack>
        </StitchedMedia>
        <StitchedMedia id="5739" start="7633" duration="132" scalar="18014398509481984/13202951179823889" mediaStart="1667378015849026112/962680174287975" mediaDuration="435697388934188337/4503599627370496" minMediaStart="-172800/1" >
         <Transformer>
          <VectorParam id="5740"  name="translation">
           <InterpolatingParam id="5741" interp="linr"  time="-9999999/1" value="-354.31746031734724" leadInLength="0/1"  />
           <InterpolatingParam id="5742" interp="linr"  time="-9999999/1" value="-189.61309523789603" leadInLength="0/1"  />
           <InterpolatingParam id="5743" interp="linr"  time="-9999999/1" value="0" leadInLength="0/1"  />
          </VectorParam>
          <VectorParam id="5744"  name="rotation">
           <InterpolatingParam id="5745" interp="linr"  time="-9999999/1" value="0" leadInLength="0/1"  />
           <InterpolatingParam id="5746" interp="linr"  time="-9999999/1" value="0" leadInLength="0/1"  />
           <InterpolatingParam id="5747" interp="linr"  time="-9999999/1" value="0" leadInLength="0/1"  />
          </VectorParam>
          <VectorParam id="5748"  name="shear">
           <InterpolatingParam id="5749" interp="linr"  time="-9999999/1" value="0" leadInLength="0/1"  />
           <InterpolatingParam id="5750" interp="linr"  time="-9999999/1" value="0" leadInLength="0/1"  />
           <InterpolatingParam id="5751" interp="linr"  time="-9999999/1" value="0" leadInLength="0/1"  />
          </VectorParam>
          <VectorParam id="5752"  name="scale">
           <InterpolatingParam id="5753" interp="linr"  time="-9999999/1" value="1.5217923280424808" leadInLength="0/1"  />
           <InterpolatingParam id="5754" interp="linr"  time="-9999999/1" value="1.5217923280424808" leadInLength="0/1"  />
           <InterpolatingParam id="5755" interp="linr"  time="-9999999/1" value="1" leadInLength="0/1"  />
          </VectorParam>
          <VectorParam id="5756"  name="anchor">
           <InterpolatingParam id="5757" interp="linr"  >
            <Keyframes>
            <Keyframe id="5758"  time="0/1" value="0" leadInLength="0/1"  />
            <Keyframe id="5759"  time="18190/353" value="0" leadInLength="0/1"  />
            </Keyframes>
           </InterpolatingParam>
           <InterpolatingParam id="5760" interp="linr"  >
            <Keyframes>
            <Keyframe id="5761"  time="0/1" value="0" leadInLength="0/1"  />
            <Keyframe id="5762"  time="18190/353" value="0" leadInLength="0/1"  />
            </Keyframes>
           </InterpolatingParam>
           <InterpolatingParam id="5763" interp="linr"  >
            <Keyframes>
            <Keyframe id="5764"  time="0/1" value="0" leadInLength="0/1"  />
            <Keyframe id="5765"  time="18190/353" value="0" leadInLength="0/1"  />
            </Keyframes>
           </InterpolatingParam>
          </VectorParam>
         </Transformer>
         <Parameters>
          <VectorParam id="5766"  name="sourceCrop">
           <InterpolatingParam id="5767" interp="linr"  >
            <Keyframes>
            <Keyframe id="5768"  time="0/1" value="0" leadInLength="0/1"  />
            <Keyframe id="5769"  time="18190/353" value="0" leadInLength="0/1"  />
            </Keyframes>
           </InterpolatingParam>
           <InterpolatingParam id="5770" interp="linr"  >
            <Keyframes>
            <Keyframe id="5771"  time="0/1" value="0" leadInLength="0/1"  />
            <Keyframe id="5772"  time="18190/353" value="0" leadInLength="0/1"  />
            </Keyframes>
           </InterpolatingParam>
           <InterpolatingParam id="5773" interp="linr"  >
            <Keyframes>
            <Keyframe id="5774"  time="0/1" value="0" leadInLength="0/1"  />
            <Keyframe id="5775"  time="18190/353" value="0" leadInLength="0/1"  />
            </Keyframes>
           </InterpolatingParam>
           <InterpolatingParam id="5776" interp="linr"  >
            <Keyframes>
            <Keyframe id="5777"  time="0/1" value="0" leadInLength="0/1"  />
            <Keyframe id="5778"  time="18190/353" value="0" leadInLength="0/1"  />
            </Keyframes>
           </InterpolatingParam>
          </VectorParam>
          <VectorParam id="5779"  name="geometryCrop">
           <InterpolatingParam id="5780" interp="linr"  time="-9999999/1" value="0" leadInLength="0/1"  />
           <InterpolatingParam id="5781" interp="linr"  time="-9999999/1" value="0" leadInLength="0/1"  />
           <InterpolatingParam id="5782" interp="linr"  time="-9999999/1" value="0" leadInLength="0/1"  />
           <InterpolatingParam id="5783" interp="linr"  time="-9999999/1" value="0" leadInLength="0/1"  />
          </VectorParam>
          <InterpolatingParam id="5784" interp="linr"  time="-9999999/1" value="1" leadInLength="0/1"  name="opacity"/>
          <InterpolatingParam id="5785" interp="linr"  time="0/1" value="1" leadInLength="0/1"  name="cursorOpacity"/>
          <InterpolatingParam id="5786" interp="linr"  time="0/1" value="1" leadInLength="0/1"  name="cursorScale"/>
          <InterpolatingParam id="5787" interp="linr"  name="volume">
           <Keyframes>
           <Keyframe id="5788"  time="-172800/1" value="0" leadInLength="0/1"  />
           <Keyframe id="5789"  time="48/1" value="0" leadInLength="0/1"  />
           </Keyframes>
          </InterpolatingParam>
          <Parameter id="5790"  name="captions"/>
         </Parameters>
         <Attributes>
          <Attribute id="5791" value="" name="ident"/>
          <Attribute id="5792" value="0" name="mixToMono"/>
         </Attributes>
         <MetaData>
          <entry key="WinSubProjectDisplayName" val=""/>
         </MetaData>
         <ExtraData>
          <Entry key="ZoomPanBin">
           <ZoomPanBin id="5793"  >
            <ZoomPanKeyframes>
             <ZoomPanKeyframe id="5794" timeRangeEnd="-9999999/1" timeRangeDuration="0/1" interpolaterName="linr"  />
            </ZoomPanKeyframes>
           </ZoomPanBin>
          </Entry>
          <Entry key="CursorEffectBin">
           <CursorEffectBin id="5795"  >
            <CursorEffectKeyframes>
            </CursorEffectKeyframes>
           </CursorEffectBin>
          </Entry>
         </ExtraData>
         <GenericTrack id="5796"  >
          <Attributes>
           <Attribute id="5797" value="" name="ident"/>
           <Attribute id="5798" value="0" name="audioMuted"/>
           <Attribute id="5799" value="0" name="videoHidden"/>
          </Attributes>
          <MetaData>
           <entry key="IsLocked" val="False"/>
           <entry key="WinTrackHeight" val="0"/>
          </MetaData>
          <Medias>
           <IMFile id="5800" start="-172800" duration="172848" scalar="1/1" mediaStart="575/1" mediaDuration="1/1" trackNumber="0" src="26" trimStartSum="-172800/1" >
            <Transformer>
             <VectorParam id="5801"  name="translation">
              <InterpolatingParam id="5802" interp="linr"  time="-9999999/1" value="0" leadInLength="0/1"  />
              <InterpolatingParam id="5803" interp="linr"  time="-9999999/1" value="0" leadInLength="0/1"  />
              <InterpolatingParam id="5804" interp="linr"  time="-9999999/1" value="0" leadInLength="0/1"  />
             </VectorParam>
             <VectorParam id="5805"  name="rotation">
              <InterpolatingParam id="5806" interp="linr"  time="-9999999/1" value="0" leadInLength="0/1"  />
              <InterpolatingParam id="5807" interp="linr"  time="-9999999/1" value="0" leadInLength="0/1"  />
              <InterpolatingParam id="5808" interp="linr"  time="-9999999/1" value="0" leadInLength="0/1"  />
             </VectorParam>
             <VectorParam id="5809"  name="shear">
              <InterpolatingParam id="5810" interp="linr"  time="-9999999/1" value="0" leadInLength="0/1"  />
              <InterpolatingParam id="5811" interp="linr"  time="-9999999/1" value="0" leadInLength="0/1"  />
              <InterpolatingParam id="5812" interp="linr"  time="-9999999/1" value="0" leadInLength="0/1"  />
             </VectorParam>
             <VectorParam id="5813"  name="scale">
              <InterpolatingParam id="5814" interp="linr"  time="-9999999/1" value="1" leadInLength="0/1"  />
              <InterpolatingParam id="5815" interp="linr"  time="-9999999/1" value="1" leadInLength="0/1"  />
              <InterpolatingParam id="5816" interp="linr"  time="-9999999/1" value="1" leadInLength="0/1"  />
             </VectorParam>
             <VectorParam id="5817"  name="anchor">
              <InterpolatingParam id="5818" interp="linr"  time="0/1" value="0" leadInLength="0/1"  />
              <InterpolatingParam id="5819" interp="linr"  time="0/1" value="0" leadInLength="0/1"  />
              <InterpolatingParam id="5820" interp="linr"  time="0/1" value="0" leadInLength="0/1"  />
             </VectorParam>
            </Transformer>
            <Parameters>
             <VectorParam id="5821"  name="sourceCrop">
              <InterpolatingParam id="5822" interp="linr"  time="0/1" value="0" leadInLength="0/1"  />
              <InterpolatingParam id="5823" interp="linr"  time="0/1" value="0" leadInLength="0/1"  />
              <InterpolatingParam id="5824" interp="linr"  time="0/1" value="0" leadInLength="0/1"  />
              <InterpolatingParam id="5825" interp="linr"  time="0/1" value="0" leadInLength="0/1"  />
             </VectorParam>
             <VectorParam id="5826"  name="geometryCrop">
              <InterpolatingParam id="5827" interp="linr"  time="-9999999/1" value="0" leadInLength="0/1"  />
              <InterpolatingParam id="5828" interp="linr"  time="-9999999/1" value="0" leadInLength="0/1"  />
              <InterpolatingParam id="5829" interp="linr"  time="-9999999/1" value="0" leadInLength="0/1"  />
              <InterpolatingParam id="5830" interp="linr"  time="-9999999/1" value="0" leadInLength="0/1"  />
             </VectorParam>
             <InterpolatingParam id="5831" interp="linr"  time="-9999999/1" value="1" leadInLength="0/1"  name="opacity"/>
            </Parameters>
            <Attributes>
             <Attribute id="5832" value="" name="ident"/>
            </Attributes>
            <MetaData>
             <entry key="WinSubProjectDisplayName" val=""/>
            </MetaData>
            <ExtraData>
             <Entry key="ZoomPanBin">
              <ZoomPanBin id="5833"  >
               <ZoomPanKeyframes>
                <ZoomPanKeyframe id="5834" timeRangeEnd="-9999999/1" timeRangeDuration="0/1" interpolaterName="linr"  />
               </ZoomPanKeyframes>
              </ZoomPanBin>
             </Entry>
            </ExtraData>
           </IMFile>
           <UnifiedMedia id="5835"  >
            <AMFile id="5836" start="48" duration="4" scalar="1/1" mediaStart="575/1" mediaDuration="4/1" trackNumber="1" src="26" channelNumber="0" >
             <Parameters>
              <InterpolatingParam id="5837" interp="linr"  time="0/1" value="1" leadInLength="0/1"  name="volume"/>
              <Parameter id="5838"  name="captions"/>
             </Parameters>
             <Attributes>
              <Attribute id="5839" value="" name="ident"/>
              <Attribute id="5840" value="44100" name="sampleRate"/>
              <Attribute id="5841" value="16" name="bitDepth"/>
              <Attribute id="5842" value="1" name="gain"/>
              <Attribute id="5843" value="0" name="mixToMono"/>
             </Attributes>
            </AMFile>
            <VMFile id="5844" start="48" duration="4" scalar="1/1" mediaStart="575/1" mediaDuration="4/1" trackNumber="0" src="26" >
             <Transformer>
              <VectorParam id="5845"  name="translation">
               <InterpolatingParam id="5846" interp="linr"  time="-9999999/1" value="0" leadInLength="0/1"  />
               <InterpolatingParam id="5847" interp="linr"  time="-9999999/1" value="0" leadInLength="0/1"  />
               <InterpolatingParam id="5848" interp="linr"  time="-9999999/1" value="0" leadInLength="0/1"  />
              </VectorParam>
              <VectorParam id="5849"  name="rotation">
               <InterpolatingParam id="5850" interp="linr"  time="-9999999/1" value="0" leadInLength="0/1"  />
               <InterpolatingParam id="5851" interp="linr"  time="-9999999/1" value="0" leadInLength="0/1"  />
               <InterpolatingParam id="5852" interp="linr"  time="-9999999/1" value="0" leadInLength="0/1"  />
              </VectorParam>
              <VectorParam id="5853"  name="shear">
               <InterpolatingParam id="5854" interp="linr"  time="-9999999/1" value="0" leadInLength="0/1"  />
               <InterpolatingParam id="5855" interp="linr"  time="-9999999/1" value="0" leadInLength="0/1"  />
               <InterpolatingParam id="5856" interp="linr"  time="-9999999/1" value="0" leadInLength="0/1"  />
              </VectorParam>
              <VectorParam id="5857"  name="scale">
               <InterpolatingParam id="5858" interp="linr"  time="-9999999/1" value="1" leadInLength="0/1"  />
               <InterpolatingParam id="5859" interp="linr"  time="-9999999/1" value="1" leadInLength="0/1"  />
               <InterpolatingParam id="5860" interp="linr"  time="-9999999/1" value="1" leadInLength="0/1"  />
              </VectorParam>
              <VectorParam id="5861"  name="anchor">
               <InterpolatingParam id="5862" interp="linr"  time="0/1" value="0" leadInLength="0/1"  />
               <InterpolatingParam id="5863" interp="linr"  time="0/1" value="0" leadInLength="0/1"  />
               <InterpolatingParam id="5864" interp="linr"  time="0/1" value="0" leadInLength="0/1"  />
              </VectorParam>
             </Transformer>
             <Parameters>
              <VectorParam id="5865"  name="sourceCrop">
               <InterpolatingParam id="5866" interp="linr"  time="0/1" value="0" leadInLength="0/1"  />
               <InterpolatingParam id="5867" interp="linr"  time="0/1" value="0" leadInLength="0/1"  />
               <InterpolatingParam id="5868" interp="linr"  time="0/1" value="0" leadInLength="0/1"  />
               <InterpolatingParam id="5869" interp="linr"  time="0/1" value="0" leadInLength="0/1"  />
              </VectorParam>
              <VectorParam id="5870"  name="geometryCrop">
               <InterpolatingParam id="5871" interp="linr"  time="-9999999/1" value="0" leadInLength="0/1"  />
               <InterpolatingParam id="5872" interp="linr"  time="-9999999/1" value="0" leadInLength="0/1"  />
               <InterpolatingParam id="5873" interp="linr"  time="-9999999/1" value="0" leadInLength="0/1"  />
               <InterpolatingParam id="5874" interp="linr"  time="-9999999/1" value="0" leadInLength="0/1"  />
              </VectorParam>
              <InterpolatingParam id="5875" interp="linr"  time="-9999999/1" value="1" leadInLength="0/1"  name="opacity"/>
             </Parameters>
             <Attributes>
              <Attribute id="5876" value="" name="ident"/>
             </Attributes>
             <ExtraData>
              <Entry key="ZoomPanBin">
               <ZoomPanBin id="5877"  >
                <ZoomPanKeyframes>
                 <ZoomPanKeyframe id="5878" timeRangeEnd="-9999999/1" timeRangeDuration="0/1" interpolaterName="linr"  />
                </ZoomPanKeyframes>
               </ZoomPanBin>
              </Entry>
             </ExtraData>
            </VMFile>
            <MetaData>
             <entry key="WinSubProjectDisplayName" val=""/>
            </MetaData>
           </UnifiedMedia>
           <IMFile id="5879" start="52" duration="964" scalar="1/1" mediaStart="578/1" mediaDuration="1/1" trackNumber="0" src="26" trimStartSum="0/1" >
            <Transformer>
             <VectorParam id="5880"  name="translation">
              <InterpolatingParam id="5881" interp="linr"  time="-9999999/1" value="0" leadInLength="0/1"  />
              <InterpolatingParam id="5882" interp="linr"  time="-9999999/1" value="0" leadInLength="0/1"  />
              <InterpolatingParam id="5883" interp="linr"  time="-9999999/1" value="0" leadInLength="0/1"  />
             </VectorParam>
             <VectorParam id="5884"  name="rotation">
              <InterpolatingParam id="5885" interp="linr"  time="-9999999/1" value="0" leadInLength="0/1"  />
              <InterpolatingParam id="5886" interp="linr"  time="-9999999/1" value="0" leadInLength="0/1"  />
              <InterpolatingParam id="5887" interp="linr"  time="-9999999/1" value="0" leadInLength="0/1"  />
             </VectorParam>
             <VectorParam id="5888"  name="shear">
              <InterpolatingParam id="5889" interp="linr"  time="-9999999/1" value="0" leadInLength="0/1"  />
              <InterpolatingParam id="5890" interp="linr"  time="-9999999/1" value="0" leadInLength="0/1"  />
              <InterpolatingParam id="5891" interp="linr"  time="-9999999/1" value="0" leadInLength="0/1"  />
             </VectorParam>
             <VectorParam id="5892"  name="scale">
              <InterpolatingParam id="5893" interp="linr"  time="-9999999/1" value="1" leadInLength="0/1"  />
              <InterpolatingParam id="5894" interp="linr"  time="-9999999/1" value="1" leadInLength="0/1"  />
              <InterpolatingParam id="5895" interp="linr"  time="-9999999/1" value="1" leadInLength="0/1"  />
             </VectorParam>
             <VectorParam id="5896"  name="anchor">
              <InterpolatingParam id="5897" interp="linr"  time="0/1" value="0" leadInLength="0/1"  />
              <InterpolatingParam id="5898" interp="linr"  time="0/1" value="0" leadInLength="0/1"  />
              <InterpolatingParam id="5899" interp="linr"  time="0/1" value="0" leadInLength="0/1"  />
             </VectorParam>
            </Transformer>
            <Parameters>
             <VectorParam id="5900"  name="sourceCrop">
              <InterpolatingParam id="5901" interp="linr"  time="0/1" value="0" leadInLength="0/1"  />
              <InterpolatingParam id="5902" interp="linr"  time="0/1" value="0" leadInLength="0/1"  />
              <InterpolatingParam id="5903" interp="linr"  time="0/1" value="0" leadInLength="0/1"  />
              <InterpolatingParam id="5904" interp="linr"  time="0/1" value="0" leadInLength="0/1"  />
             </VectorParam>
             <VectorParam id="5905"  name="geometryCrop">
              <InterpolatingParam id="5906" interp="linr"  time="-9999999/1" value="0" leadInLength="0/1"  />
              <InterpolatingParam id="5907" interp="linr"  time="-9999999/1" value="0" leadInLength="0/1"  />
              <InterpolatingParam id="5908" interp="linr"  time="-9999999/1" value="0" leadInLength="0/1"  />
              <InterpolatingParam id="5909" interp="linr"  time="-9999999/1" value="0" leadInLength="0/1"  />
             </VectorParam>
             <InterpolatingParam id="5910" interp="linr"  time="-9999999/1" value="1" leadInLength="0/1"  name="opacity"/>
            </Parameters>
            <Attributes>
             <Attribute id="5911" value="" name="ident"/>
            </Attributes>
            <MetaData>
             <entry key="WinSubProjectDisplayName" val=""/>
            </MetaData>
            <ExtraData>
             <Entry key="ZoomPanBin">
              <ZoomPanBin id="5912"  >
               <ZoomPanKeyframes>
                <ZoomPanKeyframe id="5913" timeRangeEnd="-9999999/1" timeRangeDuration="0/1" interpolaterName="linr"  />
               </ZoomPanKeyframes>
              </ZoomPanBin>
             </Entry>
            </ExtraData>
           </IMFile>
           <UnifiedMedia id="5914"  >
            <AMFile id="5915" start="1016" duration="2375" scalar="1/1" mediaStart="577/1" mediaDuration="2375/1" trackNumber="1" src="26" channelNumber="0" >
             <Parameters>
              <InterpolatingParam id="5916" interp="linr"  time="0/1" value="1" leadInLength="0/1"  name="volume"/>
              <Parameter id="5917"  name="captions"/>
             </Parameters>
             <Attributes>
              <Attribute id="5918" value="" name="ident"/>
              <Attribute id="5919" value="44100" name="sampleRate"/>
              <Attribute id="5920" value="16" name="bitDepth"/>
              <Attribute id="5921" value="1" name="gain"/>
              <Attribute id="5922" value="0" name="mixToMono"/>
             </Attributes>
            </AMFile>
            <VMFile id="5923" start="1016" duration="2375" scalar="1/1" mediaStart="577/1" mediaDuration="2375/1" trackNumber="0" src="26" >
             <Transformer>
              <VectorParam id="5924"  name="translation">
               <InterpolatingParam id="5925" interp="linr"  time="-9999999/1" value="0" leadInLength="0/1"  />
               <InterpolatingParam id="5926" interp="linr"  time="-9999999/1" value="0" leadInLength="0/1"  />
               <InterpolatingParam id="5927" interp="linr"  time="-9999999/1" value="0" leadInLength="0/1"  />
              </VectorParam>
              <VectorParam id="5928"  name="rotation">
               <InterpolatingParam id="5929" interp="linr"  time="-9999999/1" value="0" leadInLength="0/1"  />
               <InterpolatingParam id="5930" interp="linr"  time="-9999999/1" value="0" leadInLength="0/1"  />
               <InterpolatingParam id="5931" interp="linr"  time="-9999999/1" value="0" leadInLength="0/1"  />
              </VectorParam>
              <VectorParam id="5932"  name="shear">
               <InterpolatingParam id="5933" interp="linr"  time="-9999999/1" value="0" leadInLength="0/1"  />
               <InterpolatingParam id="5934" interp="linr"  time="-9999999/1" value="0" leadInLength="0/1"  />
               <InterpolatingParam id="5935" interp="linr"  time="-9999999/1" value="0" leadInLength="0/1"  />
              </VectorParam>
              <VectorParam id="5936"  name="scale">
               <InterpolatingParam id="5937" interp="linr"  time="-9999999/1" value="1" leadInLength="0/1"  />
               <InterpolatingParam id="5938" interp="linr"  time="-9999999/1" value="1" leadInLength="0/1"  />
               <InterpolatingParam id="5939" interp="linr"  time="-9999999/1" value="1" leadInLength="0/1"  />
              </VectorParam>
              <VectorParam id="5940"  name="anchor">
               <InterpolatingParam id="5941" interp="linr"  time="0/1" value="0" leadInLength="0/1"  />
               <InterpolatingParam id="5942" interp="linr"  time="0/1" value="0" leadInLength="0/1"  />
               <InterpolatingParam id="5943" interp="linr"  time="0/1" value="0" leadInLength="0/1"  />
              </VectorParam>
             </Transformer>
             <Parameters>
              <VectorParam id="5944"  name="sourceCrop">
               <InterpolatingParam id="5945" interp="linr"  time="0/1" value="0" leadInLength="0/1"  />
               <InterpolatingParam id="5946" interp="linr"  time="0/1" value="0" leadInLength="0/1"  />
               <InterpolatingParam id="5947" interp="linr"  time="0/1" value="0" leadInLength="0/1"  />
               <InterpolatingParam id="5948" interp="linr"  time="0/1" value="0" leadInLength="0/1"  />
              </VectorParam>
              <VectorParam id="5949"  name="geometryCrop">
               <InterpolatingParam id="5950" interp="linr"  time="-9999999/1" value="0" leadInLength="0/1"  />
               <InterpolatingParam id="5951" interp="linr"  time="-9999999/1" value="0" leadInLength="0/1"  />
               <InterpolatingParam id="5952" interp="linr"  time="-9999999/1" value="0" leadInLength="0/1"  />
               <InterpolatingParam id="5953" interp="linr"  time="-9999999/1" value="0" leadInLength="0/1"  />
              </VectorParam>
              <InterpolatingParam id="5954" interp="linr"  time="-9999999/1" value="1" leadInLength="0/1"  name="opacity"/>
             </Parameters>
             <Attributes>
              <Attribute id="5955" value="" name="ident"/>
             </Attributes>
             <ExtraData>
              <Entry key="ZoomPanBin">
               <ZoomPanBin id="5956"  >
                <ZoomPanKeyframes>
                 <ZoomPanKeyframe id="5957" timeRangeEnd="-9999999/1" timeRangeDuration="0/1" interpolaterName="linr"  />
                </ZoomPanKeyframes>
               </ZoomPanBin>
              </Entry>
             </ExtraData>
            </VMFile>
            <MetaData>
             <entry key="WinSubProjectDisplayName" val=""/>
            </MetaData>
           </UnifiedMedia>
          </Medias>
         </GenericTrack>
        </StitchedMedia>
        <StitchedMedia id="5958" start="7765" duration="89" scalar="70146570405439897/134685776356048896" mediaStart="576460752303423488/314966866310371" mediaDuration="134685776356048896/788163712420673" minMediaStart="-172800/1" >
         <Transformer>
          <VectorParam id="5959"  name="translation">
           <InterpolatingParam id="5960" interp="linr"  time="-9999999/1" value="111.46031745981996" leadInLength="0/1"  />
           <InterpolatingParam id="5961" interp="linr"  time="-9999999/1" value="-183.44642857087337" leadInLength="0/1"  />
           <InterpolatingParam id="5962" interp="linr"  time="-9999999/1" value="0" leadInLength="0/1"  />
          </VectorParam>
          <VectorParam id="5963"  name="rotation">
           <InterpolatingParam id="5964" interp="linr"  time="-9999999/1" value="0" leadInLength="0/1"  />
           <InterpolatingParam id="5965" interp="linr"  time="-9999999/1" value="0" leadInLength="0/1"  />
           <InterpolatingParam id="5966" interp="linr"  time="-9999999/1" value="0" leadInLength="0/1"  />
          </VectorParam>
          <VectorParam id="5967"  name="shear">
           <InterpolatingParam id="5968" interp="linr"  time="-9999999/1" value="0" leadInLength="0/1"  />
           <InterpolatingParam id="5969" interp="linr"  time="-9999999/1" value="0" leadInLength="0/1"  />
           <InterpolatingParam id="5970" interp="linr"  time="-9999999/1" value="0" leadInLength="0/1"  />
          </VectorParam>
          <VectorParam id="5971"  name="scale">
           <InterpolatingParam id="5972" interp="linr"  time="-9999999/1" value="1.4930886243381738" leadInLength="0/1"  />
           <InterpolatingParam id="5973" interp="linr"  time="-9999999/1" value="1.4930886243381736" leadInLength="0/1"  />
           <InterpolatingParam id="5974" interp="linr"  time="-9999999/1" value="1" leadInLength="0/1"  />
          </VectorParam>
          <VectorParam id="5975"  name="anchor">
           <InterpolatingParam id="5976" interp="linr"  >
            <Keyframes>
            <Keyframe id="5977"  time="0/1" value="0" leadInLength="0/1"  />
            <Keyframe id="5978"  time="18190/353" value="0" leadInLength="0/1"  />
            </Keyframes>
           </InterpolatingParam>
           <InterpolatingParam id="5979" interp="linr"  >
            <Keyframes>
            <Keyframe id="5980"  time="0/1" value="0" leadInLength="0/1"  />
            <Keyframe id="5981"  time="18190/353" value="0" leadInLength="0/1"  />
            </Keyframes>
           </InterpolatingParam>
           <InterpolatingParam id="5982" interp="linr"  >
            <Keyframes>
            <Keyframe id="5983"  time="0/1" value="0" leadInLength="0/1"  />
            <Keyframe id="5984"  time="18190/353" value="0" leadInLength="0/1"  />
            </Keyframes>
           </InterpolatingParam>
          </VectorParam>
         </Transformer>
         <Parameters>
          <VectorParam id="5985"  name="sourceCrop">
           <InterpolatingParam id="5986" interp="linr"  >
            <Keyframes>
            <Keyframe id="5987"  time="0/1" value="0" leadInLength="0/1"  />
            <Keyframe id="5988"  time="18190/353" value="0" leadInLength="0/1"  />
            </Keyframes>
           </InterpolatingParam>
           <InterpolatingParam id="5989" interp="linr"  >
            <Keyframes>
            <Keyframe id="5990"  time="0/1" value="0" leadInLength="0/1"  />
            <Keyframe id="5991"  time="18190/353" value="0" leadInLength="0/1"  />
            </Keyframes>
           </InterpolatingParam>
           <InterpolatingParam id="5992" interp="linr"  >
            <Keyframes>
            <Keyframe id="5993"  time="0/1" value="0" leadInLength="0/1"  />
            <Keyframe id="5994"  time="18190/353" value="0" leadInLength="0/1"  />
            </Keyframes>
           </InterpolatingParam>
           <InterpolatingParam id="5995" interp="linr"  >
            <Keyframes>
            <Keyframe id="5996"  time="0/1" value="0" leadInLength="0/1"  />
            <Keyframe id="5997"  time="18190/353" value="0" leadInLength="0/1"  />
            </Keyframes>
           </InterpolatingParam>
          </VectorParam>
          <VectorParam id="5998"  name="geometryCrop">
           <InterpolatingParam id="5999" interp="linr"  time="-9999999/1" value="0" leadInLength="0/1"  />
           <InterpolatingParam id="6000" interp="linr"  time="-9999999/1" value="0" leadInLength="0/1"  />
           <InterpolatingParam id="6001" interp="linr"  time="-9999999/1" value="0" leadInLength="0/1"  />
           <InterpolatingParam id="6002" interp="linr"  time="-9999999/1" value="0" leadInLength="0/1"  />
          </VectorParam>
          <InterpolatingParam id="6003" interp="linr"  time="-9999999/1" value="1" leadInLength="0/1"  name="opacity"/>
          <InterpolatingParam id="6004" interp="linr"  time="0/1" value="1" leadInLength="0/1"  name="cursorOpacity"/>
          <InterpolatingParam id="6005" interp="linr"  time="0/1" value="1" leadInLength="0/1"  name="cursorScale"/>
          <InterpolatingParam id="6006" interp="linr"  name="volume">
           <Keyframes>
           <Keyframe id="6007"  time="-172800/1" value="0" leadInLength="0/1"  />
           <Keyframe id="6008"  time="48/1" value="0" leadInLength="0/1"  />
           </Keyframes>
          </InterpolatingParam>
          <Parameter id="6009"  name="captions"/>
         </Parameters>
         <Attributes>
          <Attribute id="6010" value="" name="ident"/>
          <Attribute id="6011" value="0" name="mixToMono"/>
         </Attributes>
         <MetaData>
          <entry key="WinSubProjectDisplayName" val=""/>
         </MetaData>
         <ExtraData>
          <Entry key="ZoomPanBin">
           <ZoomPanBin id="6012"  >
            <ZoomPanKeyframes>
             <ZoomPanKeyframe id="6013" timeRangeEnd="-9999999/1" timeRangeDuration="0/1" interpolaterName="linr"  />
            </ZoomPanKeyframes>
           </ZoomPanBin>
          </Entry>
          <Entry key="CursorEffectBin">
           <CursorEffectBin id="6014"  >
            <CursorEffectKeyframes>
            </CursorEffectKeyframes>
           </CursorEffectBin>
          </Entry>
         </ExtraData>
         <GenericTrack id="6015"  >
          <Attributes>
           <Attribute id="6016" value="" name="ident"/>
           <Attribute id="6017" value="0" name="audioMuted"/>
           <Attribute id="6018" value="0" name="videoHidden"/>
          </Attributes>
          <MetaData>
           <entry key="IsLocked" val="False"/>
           <entry key="WinTrackHeight" val="0"/>
          </MetaData>
          <Medias>
           <IMFile id="6019" start="-172800" duration="172848" scalar="1/1" mediaStart="575/1" mediaDuration="1/1" trackNumber="0" src="26" trimStartSum="-172800/1" >
            <Transformer>
             <VectorParam id="6020"  name="translation">
              <InterpolatingParam id="6021" interp="linr"  time="-9999999/1" value="0" leadInLength="0/1"  />
              <InterpolatingParam id="6022" interp="linr"  time="-9999999/1" value="0" leadInLength="0/1"  />
              <InterpolatingParam id="6023" interp="linr"  time="-9999999/1" value="0" leadInLength="0/1"  />
             </VectorParam>
             <VectorParam id="6024"  name="rotation">
              <InterpolatingParam id="6025" interp="linr"  time="-9999999/1" value="0" leadInLength="0/1"  />
              <InterpolatingParam id="6026" interp="linr"  time="-9999999/1" value="0" leadInLength="0/1"  />
              <InterpolatingParam id="6027" interp="linr"  time="-9999999/1" value="0" leadInLength="0/1"  />
             </VectorParam>
             <VectorParam id="6028"  name="shear">
              <InterpolatingParam id="6029" interp="linr"  time="-9999999/1" value="0" leadInLength="0/1"  />
              <InterpolatingParam id="6030" interp="linr"  time="-9999999/1" value="0" leadInLength="0/1"  />
              <InterpolatingParam id="6031" interp="linr"  time="-9999999/1" value="0" leadInLength="0/1"  />
             </VectorParam>
             <VectorParam id="6032"  name="scale">
              <InterpolatingParam id="6033" interp="linr"  time="-9999999/1" value="1" leadInLength="0/1"  />
              <InterpolatingParam id="6034" interp="linr"  time="-9999999/1" value="1" leadInLength="0/1"  />
              <InterpolatingParam id="6035" interp="linr"  time="-9999999/1" value="1" leadInLength="0/1"  />
             </VectorParam>
             <VectorParam id="6036"  name="anchor">
              <InterpolatingParam id="6037" interp="linr"  time="0/1" value="0" leadInLength="0/1"  />
              <InterpolatingParam id="6038" interp="linr"  time="0/1" value="0" leadInLength="0/1"  />
              <InterpolatingParam id="6039" interp="linr"  time="0/1" value="0" leadInLength="0/1"  />
             </VectorParam>
            </Transformer>
            <Parameters>
             <VectorParam id="6040"  name="sourceCrop">
              <InterpolatingParam id="6041" interp="linr"  time="0/1" value="0" leadInLength="0/1"  />
              <InterpolatingParam id="6042" interp="linr"  time="0/1" value="0" leadInLength="0/1"  />
              <InterpolatingParam id="6043" interp="linr"  time="0/1" value="0" leadInLength="0/1"  />
              <InterpolatingParam id="6044" interp="linr"  time="0/1" value="0" leadInLength="0/1"  />
             </VectorParam>
             <VectorParam id="6045"  name="geometryCrop">
              <InterpolatingParam id="6046" interp="linr"  time="-9999999/1" value="0" leadInLength="0/1"  />
              <InterpolatingParam id="6047" interp="linr"  time="-9999999/1" value="0" leadInLength="0/1"  />
              <InterpolatingParam id="6048" interp="linr"  time="-9999999/1" value="0" leadInLength="0/1"  />
              <InterpolatingParam id="6049" interp="linr"  time="-9999999/1" value="0" leadInLength="0/1"  />
             </VectorParam>
             <InterpolatingParam id="6050" interp="linr"  time="-9999999/1" value="1" leadInLength="0/1"  name="opacity"/>
            </Parameters>
            <Attributes>
             <Attribute id="6051" value="" name="ident"/>
            </Attributes>
            <MetaData>
             <entry key="WinSubProjectDisplayName" val=""/>
            </MetaData>
            <ExtraData>
             <Entry key="ZoomPanBin">
              <ZoomPanBin id="6052"  >
               <ZoomPanKeyframes>
                <ZoomPanKeyframe id="6053" timeRangeEnd="-9999999/1" timeRangeDuration="0/1" interpolaterName="linr"  />
               </ZoomPanKeyframes>
              </ZoomPanBin>
             </Entry>
            </ExtraData>
           </IMFile>
           <UnifiedMedia id="6054"  >
            <AMFile id="6055" start="48" duration="4" scalar="1/1" mediaStart="575/1" mediaDuration="4/1" trackNumber="1" src="26" channelNumber="0" >
             <Parameters>
              <InterpolatingParam id="6056" interp="linr"  time="0/1" value="1" leadInLength="0/1"  name="volume"/>
              <Parameter id="6057"  name="captions"/>
             </Parameters>
             <Attributes>
              <Attribute id="6058" value="" name="ident"/>
              <Attribute id="6059" value="44100" name="sampleRate"/>
              <Attribute id="6060" value="16" name="bitDepth"/>
              <Attribute id="6061" value="1" name="gain"/>
              <Attribute id="6062" value="0" name="mixToMono"/>
             </Attributes>
            </AMFile>
            <VMFile id="6063" start="48" duration="4" scalar="1/1" mediaStart="575/1" mediaDuration="4/1" trackNumber="0" src="26" >
             <Transformer>
              <VectorParam id="6064"  name="translation">
               <InterpolatingParam id="6065" interp="linr"  time="-9999999/1" value="0" leadInLength="0/1"  />
               <InterpolatingParam id="6066" interp="linr"  time="-9999999/1" value="0" leadInLength="0/1"  />
               <InterpolatingParam id="6067" interp="linr"  time="-9999999/1" value="0" leadInLength="0/1"  />
              </VectorParam>
              <VectorParam id="6068"  name="rotation">
               <InterpolatingParam id="6069" interp="linr"  time="-9999999/1" value="0" leadInLength="0/1"  />
               <InterpolatingParam id="6070" interp="linr"  time="-9999999/1" value="0" leadInLength="0/1"  />
               <InterpolatingParam id="6071" interp="linr"  time="-9999999/1" value="0" leadInLength="0/1"  />
              </VectorParam>
              <VectorParam id="6072"  name="shear">
               <InterpolatingParam id="6073" interp="linr"  time="-9999999/1" value="0" leadInLength="0/1"  />
               <InterpolatingParam id="6074" interp="linr"  time="-9999999/1" value="0" leadInLength="0/1"  />
               <InterpolatingParam id="6075" interp="linr"  time="-9999999/1" value="0" leadInLength="0/1"  />
              </VectorParam>
              <VectorParam id="6076"  name="scale">
               <InterpolatingParam id="6077" interp="linr"  time="-9999999/1" value="1" leadInLength="0/1"  />
               <InterpolatingParam id="6078" interp="linr"  time="-9999999/1" value="1" leadInLength="0/1"  />
               <InterpolatingParam id="6079" interp="linr"  time="-9999999/1" value="1" leadInLength="0/1"  />
              </VectorParam>
              <VectorParam id="6080"  name="anchor">
               <InterpolatingParam id="6081" interp="linr"  time="0/1" value="0" leadInLength="0/1"  />
               <InterpolatingParam id="6082" interp="linr"  time="0/1" value="0" leadInLength="0/1"  />
               <InterpolatingParam id="6083" interp="linr"  time="0/1" value="0" leadInLength="0/1"  />
              </VectorParam>
             </Transformer>
             <Parameters>
              <VectorParam id="6084"  name="sourceCrop">
               <InterpolatingParam id="6085" interp="linr"  time="0/1" value="0" leadInLength="0/1"  />
               <InterpolatingParam id="6086" interp="linr"  time="0/1" value="0" leadInLength="0/1"  />
               <InterpolatingParam id="6087" interp="linr"  time="0/1" value="0" leadInLength="0/1"  />
               <InterpolatingParam id="6088" interp="linr"  time="0/1" value="0" leadInLength="0/1"  />
              </VectorParam>
              <VectorParam id="6089"  name="geometryCrop">
               <InterpolatingParam id="6090" interp="linr"  time="-9999999/1" value="0" leadInLength="0/1"  />
               <InterpolatingParam id="6091" interp="linr"  time="-9999999/1" value="0" leadInLength="0/1"  />
               <InterpolatingParam id="6092" interp="linr"  time="-9999999/1" value="0" leadInLength="0/1"  />
               <InterpolatingParam id="6093" interp="linr"  time="-9999999/1" value="0" leadInLength="0/1"  />
              </VectorParam>
              <InterpolatingParam id="6094" interp="linr"  time="-9999999/1" value="1" leadInLength="0/1"  name="opacity"/>
             </Parameters>
             <Attributes>
              <Attribute id="6095" value="" name="ident"/>
             </Attributes>
             <ExtraData>
              <Entry key="ZoomPanBin">
               <ZoomPanBin id="6096"  >
                <ZoomPanKeyframes>
                 <ZoomPanKeyframe id="6097" timeRangeEnd="-9999999/1" timeRangeDuration="0/1" interpolaterName="linr"  />
                </ZoomPanKeyframes>
               </ZoomPanBin>
              </Entry>
             </ExtraData>
            </VMFile>
            <MetaData>
             <entry key="WinSubProjectDisplayName" val=""/>
            </MetaData>
           </UnifiedMedia>
           <IMFile id="6098" start="52" duration="964" scalar="1/1" mediaStart="578/1" mediaDuration="1/1" trackNumber="0" src="26" trimStartSum="0/1" >
            <Transformer>
             <VectorParam id="6099"  name="translation">
              <InterpolatingParam id="6100" interp="linr"  time="-9999999/1" value="0" leadInLength="0/1"  />
              <InterpolatingParam id="6101" interp="linr"  time="-9999999/1" value="0" leadInLength="0/1"  />
              <InterpolatingParam id="6102" interp="linr"  time="-9999999/1" value="0" leadInLength="0/1"  />
             </VectorParam>
             <VectorParam id="6103"  name="rotation">
              <InterpolatingParam id="6104" interp="linr"  time="-9999999/1" value="0" leadInLength="0/1"  />
              <InterpolatingParam id="6105" interp="linr"  time="-9999999/1" value="0" leadInLength="0/1"  />
              <InterpolatingParam id="6106" interp="linr"  time="-9999999/1" value="0" leadInLength="0/1"  />
             </VectorParam>
             <VectorParam id="6107"  name="shear">
              <InterpolatingParam id="6108" interp="linr"  time="-9999999/1" value="0" leadInLength="0/1"  />
              <InterpolatingParam id="6109" interp="linr"  time="-9999999/1" value="0" leadInLength="0/1"  />
              <InterpolatingParam id="6110" interp="linr"  time="-9999999/1" value="0" leadInLength="0/1"  />
             </VectorParam>
             <VectorParam id="6111"  name="scale">
              <InterpolatingParam id="6112" interp="linr"  time="-9999999/1" value="1" leadInLength="0/1"  />
              <InterpolatingParam id="6113" interp="linr"  time="-9999999/1" value="1" leadInLength="0/1"  />
              <InterpolatingParam id="6114" interp="linr"  time="-9999999/1" value="1" leadInLength="0/1"  />
             </VectorParam>
             <VectorParam id="6115"  name="anchor">
              <InterpolatingParam id="6116" interp="linr"  time="0/1" value="0" leadInLength="0/1"  />
              <InterpolatingParam id="6117" interp="linr"  time="0/1" value="0" leadInLength="0/1"  />
              <InterpolatingParam id="6118" interp="linr"  time="0/1" value="0" leadInLength="0/1"  />
             </VectorParam>
            </Transformer>
            <Parameters>
             <VectorParam id="6119"  name="sourceCrop">
              <InterpolatingParam id="6120" interp="linr"  time="0/1" value="0" leadInLength="0/1"  />
              <InterpolatingParam id="6121" interp="linr"  time="0/1" value="0" leadInLength="0/1"  />
              <InterpolatingParam id="6122" interp="linr"  time="0/1" value="0" leadInLength="0/1"  />
              <InterpolatingParam id="6123" interp="linr"  time="0/1" value="0" leadInLength="0/1"  />
             </VectorParam>
             <VectorParam id="6124"  name="geometryCrop">
              <InterpolatingParam id="6125" interp="linr"  time="-9999999/1" value="0" leadInLength="0/1"  />
              <InterpolatingParam id="6126" interp="linr"  time="-9999999/1" value="0" leadInLength="0/1"  />
              <InterpolatingParam id="6127" interp="linr"  time="-9999999/1" value="0" leadInLength="0/1"  />
              <InterpolatingParam id="6128" interp="linr"  time="-9999999/1" value="0" leadInLength="0/1"  />
             </VectorParam>
             <InterpolatingParam id="6129" interp="linr"  time="-9999999/1" value="1" leadInLength="0/1"  name="opacity"/>
            </Parameters>
            <Attributes>
             <Attribute id="6130" value="" name="ident"/>
            </Attributes>
            <MetaData>
             <entry key="WinSubProjectDisplayName" val=""/>
            </MetaData>
            <ExtraData>
             <Entry key="ZoomPanBin">
              <ZoomPanBin id="6131"  >
               <ZoomPanKeyframes>
                <ZoomPanKeyframe id="6132" timeRangeEnd="-9999999/1" timeRangeDuration="0/1" interpolaterName="linr"  />
               </ZoomPanKeyframes>
              </ZoomPanBin>
             </Entry>
            </ExtraData>
           </IMFile>
           <UnifiedMedia id="6133"  >
            <AMFile id="6134" start="1016" duration="2375" scalar="1/1" mediaStart="577/1" mediaDuration="2375/1" trackNumber="1" src="26" channelNumber="0" >
             <Parameters>
              <InterpolatingParam id="6135" interp="linr"  time="0/1" value="1" leadInLength="0/1"  name="volume"/>
              <Parameter id="6136"  name="captions"/>
             </Parameters>
             <Attributes>
              <Attribute id="6137" value="" name="ident"/>
              <Attribute id="6138" value="44100" name="sampleRate"/>
              <Attribute id="6139" value="16" name="bitDepth"/>
              <Attribute id="6140" value="1" name="gain"/>
              <Attribute id="6141" value="0" name="mixToMono"/>
             </Attributes>
            </AMFile>
            <VMFile id="6142" start="1016" duration="2375" scalar="1/1" mediaStart="577/1" mediaDuration="2375/1" trackNumber="0" src="26" >
             <Transformer>
              <VectorParam id="6143"  name="translation">
               <InterpolatingParam id="6144" interp="linr"  time="-9999999/1" value="0" leadInLength="0/1"  />
               <InterpolatingParam id="6145" interp="linr"  time="-9999999/1" value="0" leadInLength="0/1"  />
               <InterpolatingParam id="6146" interp="linr"  time="-9999999/1" value="0" leadInLength="0/1"  />
              </VectorParam>
              <VectorParam id="6147"  name="rotation">
               <InterpolatingParam id="6148" interp="linr"  time="-9999999/1" value="0" leadInLength="0/1"  />
               <InterpolatingParam id="6149" interp="linr"  time="-9999999/1" value="0" leadInLength="0/1"  />
               <InterpolatingParam id="6150" interp="linr"  time="-9999999/1" value="0" leadInLength="0/1"  />
              </VectorParam>
              <VectorParam id="6151"  name="shear">
               <InterpolatingParam id="6152" interp="linr"  time="-9999999/1" value="0" leadInLength="0/1"  />
               <InterpolatingParam id="6153" interp="linr"  time="-9999999/1" value="0" leadInLength="0/1"  />
               <InterpolatingParam id="6154" interp="linr"  time="-9999999/1" value="0" leadInLength="0/1"  />
              </VectorParam>
              <VectorParam id="6155"  name="scale">
               <InterpolatingParam id="6156" interp="linr"  time="-9999999/1" value="1" leadInLength="0/1"  />
               <InterpolatingParam id="6157" interp="linr"  time="-9999999/1" value="1" leadInLength="0/1"  />
               <InterpolatingParam id="6158" interp="linr"  time="-9999999/1" value="1" leadInLength="0/1"  />
              </VectorParam>
              <VectorParam id="6159"  name="anchor">
               <InterpolatingParam id="6160" interp="linr"  time="0/1" value="0" leadInLength="0/1"  />
               <InterpolatingParam id="6161" interp="linr"  time="0/1" value="0" leadInLength="0/1"  />
               <InterpolatingParam id="6162" interp="linr"  time="0/1" value="0" leadInLength="0/1"  />
              </VectorParam>
             </Transformer>
             <Parameters>
              <VectorParam id="6163"  name="sourceCrop">
               <InterpolatingParam id="6164" interp="linr"  time="0/1" value="0" leadInLength="0/1"  />
               <InterpolatingParam id="6165" interp="linr"  time="0/1" value="0" leadInLength="0/1"  />
               <InterpolatingParam id="6166" interp="linr"  time="0/1" value="0" leadInLength="0/1"  />
               <InterpolatingParam id="6167" interp="linr"  time="0/1" value="0" leadInLength="0/1"  />
              </VectorParam>
              <VectorParam id="6168"  name="geometryCrop">
               <InterpolatingParam id="6169" interp="linr"  time="-9999999/1" value="0" leadInLength="0/1"  />
               <InterpolatingParam id="6170" interp="linr"  time="-9999999/1" value="0" leadInLength="0/1"  />
               <InterpolatingParam id="6171" interp="linr"  time="-9999999/1" value="0" leadInLength="0/1"  />
               <InterpolatingParam id="6172" interp="linr"  time="-9999999/1" value="0" leadInLength="0/1"  />
              </VectorParam>
              <InterpolatingParam id="6173" interp="linr"  time="-9999999/1" value="1" leadInLength="0/1"  name="opacity"/>
             </Parameters>
             <Attributes>
              <Attribute id="6174" value="" name="ident"/>
             </Attributes>
             <ExtraData>
              <Entry key="ZoomPanBin">
               <ZoomPanBin id="6175"  >
                <ZoomPanKeyframes>
                 <ZoomPanKeyframe id="6176" timeRangeEnd="-9999999/1" timeRangeDuration="0/1" interpolaterName="linr"  />
                </ZoomPanKeyframes>
               </ZoomPanBin>
              </Entry>
             </ExtraData>
            </VMFile>
            <MetaData>
             <entry key="WinSubProjectDisplayName" val=""/>
            </MetaData>
           </UnifiedMedia>
          </Medias>
         </GenericTrack>
        </StitchedMedia>
        <StitchedMedia id="6177" start="7854" duration="59" scalar="788163712420673/1548112371908608" mediaStart="1152921504606846976/552287924507825" mediaDuration="91338629942607872/788163712420673" minMediaStart="-172800/1" >
         <Transformer>
          <VectorParam id="6178"  name="translation">
           <InterpolatingParam id="6179" interp="linr"  time="-9999999/1" value="79.460317460351561" leadInLength="0/1"  />
           <InterpolatingParam id="6180" interp="linr"  time="-9999999/1" value="-141.44642857116625" leadInLength="0/1"  />
           <InterpolatingParam id="6181" interp="linr"  time="-9999999/1" value="0" leadInLength="0/1"  />
          </VectorParam>
          <VectorParam id="6182"  name="rotation">
           <InterpolatingParam id="6183" interp="linr"  time="-9999999/1" value="0" leadInLength="0/1"  />
           <InterpolatingParam id="6184" interp="linr"  time="-9999999/1" value="0" leadInLength="0/1"  />
           <InterpolatingParam id="6185" interp="linr"  time="-9999999/1" value="0" leadInLength="0/1"  />
          </VectorParam>
          <VectorParam id="6186"  name="shear">
           <InterpolatingParam id="6187" interp="linr"  time="-9999999/1" value="0" leadInLength="0/1"  />
           <InterpolatingParam id="6188" interp="linr"  time="-9999999/1" value="0" leadInLength="0/1"  />
           <InterpolatingParam id="6189" interp="linr"  time="-9999999/1" value="0" leadInLength="0/1"  />
          </VectorParam>
          <VectorParam id="6190"  name="scale">
           <InterpolatingParam id="6191" interp="linr"  time="-9999999/1" value="1.3930886243387159" leadInLength="0/1"  />
           <InterpolatingParam id="6192" interp="linr"  time="-9999999/1" value="1.3930886243387157" leadInLength="0/1"  />
           <InterpolatingParam id="6193" interp="linr"  time="-9999999/1" value="1" leadInLength="0/1"  />
          </VectorParam>
          <VectorParam id="6194"  name="anchor">
           <InterpolatingParam id="6195" interp="linr"  >
            <Keyframes>
            <Keyframe id="6196"  time="0/1" value="0" leadInLength="0/1"  />
            <Keyframe id="6197"  time="18190/353" value="0" leadInLength="0/1"  />
            </Keyframes>
           </InterpolatingParam>
           <InterpolatingParam id="6198" interp="linr"  >
            <Keyframes>
            <Keyframe id="6199"  time="0/1" value="0" leadInLength="0/1"  />
            <Keyframe id="6200"  time="18190/353" value="0" leadInLength="0/1"  />
            </Keyframes>
           </InterpolatingParam>
           <InterpolatingParam id="6201" interp="linr"  >
            <Keyframes>
            <Keyframe id="6202"  time="0/1" value="0" leadInLength="0/1"  />
            <Keyframe id="6203"  time="18190/353" value="0" leadInLength="0/1"  />
            </Keyframes>
           </InterpolatingParam>
          </VectorParam>
         </Transformer>
         <Parameters>
          <VectorParam id="6204"  name="sourceCrop">
           <InterpolatingParam id="6205" interp="linr"  >
            <Keyframes>
            <Keyframe id="6206"  time="0/1" value="0" leadInLength="0/1"  />
            <Keyframe id="6207"  time="18190/353" value="0" leadInLength="0/1"  />
            </Keyframes>
           </InterpolatingParam>
           <InterpolatingParam id="6208" interp="linr"  >
            <Keyframes>
            <Keyframe id="6209"  time="0/1" value="0" leadInLength="0/1"  />
            <Keyframe id="6210"  time="18190/353" value="0" leadInLength="0/1"  />
            </Keyframes>
           </InterpolatingParam>
           <InterpolatingParam id="6211" interp="linr"  >
            <Keyframes>
            <Keyframe id="6212"  time="0/1" value="0" leadInLength="0/1"  />
            <Keyframe id="6213"  time="18190/353" value="0" leadInLength="0/1"  />
            </Keyframes>
           </InterpolatingParam>
           <InterpolatingParam id="6214" interp="linr"  >
            <Keyframes>
            <Keyframe id="6215"  time="0/1" value="0" leadInLength="0/1"  />
            <Keyframe id="6216"  time="18190/353" value="0" leadInLength="0/1"  />
            </Keyframes>
           </InterpolatingParam>
          </VectorParam>
          <VectorParam id="6217"  name="geometryCrop">
           <InterpolatingParam id="6218" interp="linr"  time="-9999999/1" value="0" leadInLength="0/1"  />
           <InterpolatingParam id="6219" interp="linr"  time="-9999999/1" value="0" leadInLength="0/1"  />
           <InterpolatingParam id="6220" interp="linr"  time="-9999999/1" value="0" leadInLength="0/1"  />
           <InterpolatingParam id="6221" interp="linr"  time="-9999999/1" value="0" leadInLength="0/1"  />
          </VectorParam>
          <InterpolatingParam id="6222" interp="linr"  time="-9999999/1" value="1" leadInLength="0/1"  name="opacity"/>
          <InterpolatingParam id="6223" interp="linr"  time="0/1" value="1" leadInLength="0/1"  name="cursorOpacity"/>
          <InterpolatingParam id="6224" interp="linr"  time="0/1" value="1" leadInLength="0/1"  name="cursorScale"/>
          <InterpolatingParam id="6225" interp="linr"  name="volume">
           <Keyframes>
           <Keyframe id="6226"  time="-172800/1" value="0" leadInLength="0/1"  />
           <Keyframe id="6227"  time="48/1" value="0" leadInLength="0/1"  />
           </Keyframes>
          </InterpolatingParam>
          <Parameter id="6228"  name="captions"/>
         </Parameters>
         <Attributes>
          <Attribute id="6229" value="" name="ident"/>
          <Attribute id="6230" value="0" name="mixToMono"/>
         </Attributes>
         <MetaData>
          <entry key="WinSubProjectDisplayName" val=""/>
         </MetaData>
         <ExtraData>
          <Entry key="ZoomPanBin">
           <ZoomPanBin id="6231"  >
            <ZoomPanKeyframes>
             <ZoomPanKeyframe id="6232" timeRangeEnd="-9999999/1" timeRangeDuration="0/1" interpolaterName="linr"  />
            </ZoomPanKeyframes>
           </ZoomPanBin>
          </Entry>
          <Entry key="CursorEffectBin">
           <CursorEffectBin id="6233"  >
            <CursorEffectKeyframes>
            </CursorEffectKeyframes>
           </CursorEffectBin>
          </Entry>
         </ExtraData>
         <GenericTrack id="6234"  >
          <Attributes>
           <Attribute id="6235" value="" name="ident"/>
           <Attribute id="6236" value="0" name="audioMuted"/>
           <Attribute id="6237" value="0" name="videoHidden"/>
          </Attributes>
          <MetaData>
           <entry key="IsLocked" val="False"/>
           <entry key="WinTrackHeight" val="0"/>
          </MetaData>
          <Medias>
           <IMFile id="6238" start="-172800" duration="172848" scalar="1/1" mediaStart="575/1" mediaDuration="1/1" trackNumber="0" src="26" trimStartSum="-172800/1" >
            <Transformer>
             <VectorParam id="6239"  name="translation">
              <InterpolatingParam id="6240" interp="linr"  time="-9999999/1" value="0" leadInLength="0/1"  />
              <InterpolatingParam id="6241" interp="linr"  time="-9999999/1" value="0" leadInLength="0/1"  />
              <InterpolatingParam id="6242" interp="linr"  time="-9999999/1" value="0" leadInLength="0/1"  />
             </VectorParam>
             <VectorParam id="6243"  name="rotation">
              <InterpolatingParam id="6244" interp="linr"  time="-9999999/1" value="0" leadInLength="0/1"  />
              <InterpolatingParam id="6245" interp="linr"  time="-9999999/1" value="0" leadInLength="0/1"  />
              <InterpolatingParam id="6246" interp="linr"  time="-9999999/1" value="0" leadInLength="0/1"  />
             </VectorParam>
             <VectorParam id="6247"  name="shear">
              <InterpolatingParam id="6248" interp="linr"  time="-9999999/1" value="0" leadInLength="0/1"  />
              <InterpolatingParam id="6249" interp="linr"  time="-9999999/1" value="0" leadInLength="0/1"  />
              <InterpolatingParam id="6250" interp="linr"  time="-9999999/1" value="0" leadInLength="0/1"  />
             </VectorParam>
             <VectorParam id="6251"  name="scale">
              <InterpolatingParam id="6252" interp="linr"  time="-9999999/1" value="1" leadInLength="0/1"  />
              <InterpolatingParam id="6253" interp="linr"  time="-9999999/1" value="1" leadInLength="0/1"  />
              <InterpolatingParam id="6254" interp="linr"  time="-9999999/1" value="1" leadInLength="0/1"  />
             </VectorParam>
             <VectorParam id="6255"  name="anchor">
              <InterpolatingParam id="6256" interp="linr"  time="0/1" value="0" leadInLength="0/1"  />
              <InterpolatingParam id="6257" interp="linr"  time="0/1" value="0" leadInLength="0/1"  />
              <InterpolatingParam id="6258" interp="linr"  time="0/1" value="0" leadInLength="0/1"  />
             </VectorParam>
            </Transformer>
            <Parameters>
             <VectorParam id="6259"  name="sourceCrop">
              <InterpolatingParam id="6260" interp="linr"  time="0/1" value="0" leadInLength="0/1"  />
              <InterpolatingParam id="6261" interp="linr"  time="0/1" value="0" leadInLength="0/1"  />
              <InterpolatingParam id="6262" interp="linr"  time="0/1" value="0" leadInLength="0/1"  />
              <InterpolatingParam id="6263" interp="linr"  time="0/1" value="0" leadInLength="0/1"  />
             </VectorParam>
             <VectorParam id="6264"  name="geometryCrop">
              <InterpolatingParam id="6265" interp="linr"  time="-9999999/1" value="0" leadInLength="0/1"  />
              <InterpolatingParam id="6266" interp="linr"  time="-9999999/1" value="0" leadInLength="0/1"  />
              <InterpolatingParam id="6267" interp="linr"  time="-9999999/1" value="0" leadInLength="0/1"  />
              <InterpolatingParam id="6268" interp="linr"  time="-9999999/1" value="0" leadInLength="0/1"  />
             </VectorParam>
             <InterpolatingParam id="6269" interp="linr"  time="-9999999/1" value="1" leadInLength="0/1"  name="opacity"/>
            </Parameters>
            <Attributes>
             <Attribute id="6270" value="" name="ident"/>
            </Attributes>
            <MetaData>
             <entry key="WinSubProjectDisplayName" val=""/>
            </MetaData>
            <ExtraData>
             <Entry key="ZoomPanBin">
              <ZoomPanBin id="6271"  >
               <ZoomPanKeyframes>
                <ZoomPanKeyframe id="6272" timeRangeEnd="-9999999/1" timeRangeDuration="0/1" interpolaterName="linr"  />
               </ZoomPanKeyframes>
              </ZoomPanBin>
             </Entry>
            </ExtraData>
           </IMFile>
           <UnifiedMedia id="6273"  >
            <AMFile id="6274" start="48" duration="4" scalar="1/1" mediaStart="575/1" mediaDuration="4/1" trackNumber="1" src="26" channelNumber="0" >
             <Parameters>
              <InterpolatingParam id="6275" interp="linr"  time="0/1" value="1" leadInLength="0/1"  name="volume"/>
              <Parameter id="6276"  name="captions"/>
             </Parameters>
             <Attributes>
              <Attribute id="6277" value="" name="ident"/>
              <Attribute id="6278" value="44100" name="sampleRate"/>
              <Attribute id="6279" value="16" name="bitDepth"/>
              <Attribute id="6280" value="1" name="gain"/>
              <Attribute id="6281" value="0" name="mixToMono"/>
             </Attributes>
            </AMFile>
            <VMFile id="6282" start="48" duration="4" scalar="1/1" mediaStart="575/1" mediaDuration="4/1" trackNumber="0" src="26" >
             <Transformer>
              <VectorParam id="6283"  name="translation">
               <InterpolatingParam id="6284" interp="linr"  time="-9999999/1" value="0" leadInLength="0/1"  />
               <InterpolatingParam id="6285" interp="linr"  time="-9999999/1" value="0" leadInLength="0/1"  />
               <InterpolatingParam id="6286" interp="linr"  time="-9999999/1" value="0" leadInLength="0/1"  />
              </VectorParam>
              <VectorParam id="6287"  name="rotation">
               <InterpolatingParam id="6288" interp="linr"  time="-9999999/1" value="0" leadInLength="0/1"  />
               <InterpolatingParam id="6289" interp="linr"  time="-9999999/1" value="0" leadInLength="0/1"  />
               <InterpolatingParam id="6290" interp="linr"  time="-9999999/1" value="0" leadInLength="0/1"  />
              </VectorParam>
              <VectorParam id="6291"  name="shear">
               <InterpolatingParam id="6292" interp="linr"  time="-9999999/1" value="0" leadInLength="0/1"  />
               <InterpolatingParam id="6293" interp="linr"  time="-9999999/1" value="0" leadInLength="0/1"  />
               <InterpolatingParam id="6294" interp="linr"  time="-9999999/1" value="0" leadInLength="0/1"  />
              </VectorParam>
              <VectorParam id="6295"  name="scale">
               <InterpolatingParam id="6296" interp="linr"  time="-9999999/1" value="1" leadInLength="0/1"  />
               <InterpolatingParam id="6297" interp="linr"  time="-9999999/1" value="1" leadInLength="0/1"  />
               <InterpolatingParam id="6298" interp="linr"  time="-9999999/1" value="1" leadInLength="0/1"  />
              </VectorParam>
              <VectorParam id="6299"  name="anchor">
               <InterpolatingParam id="6300" interp="linr"  time="0/1" value="0" leadInLength="0/1"  />
               <InterpolatingParam id="6301" interp="linr"  time="0/1" value="0" leadInLength="0/1"  />
               <InterpolatingParam id="6302" interp="linr"  time="0/1" value="0" leadInLength="0/1"  />
              </VectorParam>
             </Transformer>
             <Parameters>
              <VectorParam id="6303"  name="sourceCrop">
               <InterpolatingParam id="6304" interp="linr"  time="0/1" value="0" leadInLength="0/1"  />
               <InterpolatingParam id="6305" interp="linr"  time="0/1" value="0" leadInLength="0/1"  />
               <InterpolatingParam id="6306" interp="linr"  time="0/1" value="0" leadInLength="0/1"  />
               <InterpolatingParam id="6307" interp="linr"  time="0/1" value="0" leadInLength="0/1"  />
              </VectorParam>
              <VectorParam id="6308"  name="geometryCrop">
               <InterpolatingParam id="6309" interp="linr"  time="-9999999/1" value="0" leadInLength="0/1"  />
               <InterpolatingParam id="6310" interp="linr"  time="-9999999/1" value="0" leadInLength="0/1"  />
               <InterpolatingParam id="6311" interp="linr"  time="-9999999/1" value="0" leadInLength="0/1"  />
               <InterpolatingParam id="6312" interp="linr"  time="-9999999/1" value="0" leadInLength="0/1"  />
              </VectorParam>
              <InterpolatingParam id="6313" interp="linr"  time="-9999999/1" value="1" leadInLength="0/1"  name="opacity"/>
             </Parameters>
             <Attributes>
              <Attribute id="6314" value="" name="ident"/>
             </Attributes>
             <ExtraData>
              <Entry key="ZoomPanBin">
               <ZoomPanBin id="6315"  >
                <ZoomPanKeyframes>
                 <ZoomPanKeyframe id="6316" timeRangeEnd="-9999999/1" timeRangeDuration="0/1" interpolaterName="linr"  />
                </ZoomPanKeyframes>
               </ZoomPanBin>
              </Entry>
             </ExtraData>
            </VMFile>
            <MetaData>
             <entry key="WinSubProjectDisplayName" val=""/>
            </MetaData>
           </UnifiedMedia>
           <IMFile id="6317" start="52" duration="964" scalar="1/1" mediaStart="578/1" mediaDuration="1/1" trackNumber="0" src="26" trimStartSum="0/1" >
            <Transformer>
             <VectorParam id="6318"  name="translation">
              <InterpolatingParam id="6319" interp="linr"  time="-9999999/1" value="0" leadInLength="0/1"  />
              <InterpolatingParam id="6320" interp="linr"  time="-9999999/1" value="0" leadInLength="0/1"  />
              <InterpolatingParam id="6321" interp="linr"  time="-9999999/1" value="0" leadInLength="0/1"  />
             </VectorParam>
             <VectorParam id="6322"  name="rotation">
              <InterpolatingParam id="6323" interp="linr"  time="-9999999/1" value="0" leadInLength="0/1"  />
              <InterpolatingParam id="6324" interp="linr"  time="-9999999/1" value="0" leadInLength="0/1"  />
              <InterpolatingParam id="6325" interp="linr"  time="-9999999/1" value="0" leadInLength="0/1"  />
             </VectorParam>
             <VectorParam id="6326"  name="shear">
              <InterpolatingParam id="6327" interp="linr"  time="-9999999/1" value="0" leadInLength="0/1"  />
              <InterpolatingParam id="6328" interp="linr"  time="-9999999/1" value="0" leadInLength="0/1"  />
              <InterpolatingParam id="6329" interp="linr"  time="-9999999/1" value="0" leadInLength="0/1"  />
             </VectorParam>
             <VectorParam id="6330"  name="scale">
              <InterpolatingParam id="6331" interp="linr"  time="-9999999/1" value="1" leadInLength="0/1"  />
              <InterpolatingParam id="6332" interp="linr"  time="-9999999/1" value="1" leadInLength="0/1"  />
              <InterpolatingParam id="6333" interp="linr"  time="-9999999/1" value="1" leadInLength="0/1"  />
             </VectorParam>
             <VectorParam id="6334"  name="anchor">
              <InterpolatingParam id="6335" interp="linr"  time="0/1" value="0" leadInLength="0/1"  />
              <InterpolatingParam id="6336" interp="linr"  time="0/1" value="0" leadInLength="0/1"  />
              <InterpolatingParam id="6337" interp="linr"  time="0/1" value="0" leadInLength="0/1"  />
             </VectorParam>
            </Transformer>
            <Parameters>
             <VectorParam id="6338"  name="sourceCrop">
              <InterpolatingParam id="6339" interp="linr"  time="0/1" value="0" leadInLength="0/1"  />
              <InterpolatingParam id="6340" interp="linr"  time="0/1" value="0" leadInLength="0/1"  />
              <InterpolatingParam id="6341" interp="linr"  time="0/1" value="0" leadInLength="0/1"  />
              <InterpolatingParam id="6342" interp="linr"  time="0/1" value="0" leadInLength="0/1"  />
             </VectorParam>
             <VectorParam id="6343"  name="geometryCrop">
              <InterpolatingParam id="6344" interp="linr"  time="-9999999/1" value="0" leadInLength="0/1"  />
              <InterpolatingParam id="6345" interp="linr"  time="-9999999/1" value="0" leadInLength="0/1"  />
              <InterpolatingParam id="6346" interp="linr"  time="-9999999/1" value="0" leadInLength="0/1"  />
              <InterpolatingParam id="6347" interp="linr"  time="-9999999/1" value="0" leadInLength="0/1"  />
             </VectorParam>
             <InterpolatingParam id="6348" interp="linr"  time="-9999999/1" value="1" leadInLength="0/1"  name="opacity"/>
            </Parameters>
            <Attributes>
             <Attribute id="6349" value="" name="ident"/>
            </Attributes>
            <MetaData>
             <entry key="WinSubProjectDisplayName" val=""/>
            </MetaData>
            <ExtraData>
             <Entry key="ZoomPanBin">
              <ZoomPanBin id="6350"  >
               <ZoomPanKeyframes>
                <ZoomPanKeyframe id="6351" timeRangeEnd="-9999999/1" timeRangeDuration="0/1" interpolaterName="linr"  />
               </ZoomPanKeyframes>
              </ZoomPanBin>
             </Entry>
            </ExtraData>
           </IMFile>
           <UnifiedMedia id="6352"  >
            <AMFile id="6353" start="1016" duration="2375" scalar="1/1" mediaStart="577/1" mediaDuration="2375/1" trackNumber="1" src="26" channelNumber="0" >
             <Parameters>
              <InterpolatingParam id="6354" interp="linr"  time="0/1" value="1" leadInLength="0/1"  name="volume"/>
              <Parameter id="6355"  name="captions"/>
             </Parameters>
             <Attributes>
              <Attribute id="6356" value="" name="ident"/>
              <Attribute id="6357" value="44100" name="sampleRate"/>
              <Attribute id="6358" value="16" name="bitDepth"/>
              <Attribute id="6359" value="1" name="gain"/>
              <Attribute id="6360" value="0" name="mixToMono"/>
             </Attributes>
            </AMFile>
            <VMFile id="6361" start="1016" duration="2375" scalar="1/1" mediaStart="577/1" mediaDuration="2375/1" trackNumber="0" src="26" >
             <Transformer>
              <VectorParam id="6362"  name="translation">
               <InterpolatingParam id="6363" interp="linr"  time="-9999999/1" value="0" leadInLength="0/1"  />
               <InterpolatingParam id="6364" interp="linr"  time="-9999999/1" value="0" leadInLength="0/1"  />
               <InterpolatingParam id="6365" interp="linr"  time="-9999999/1" value="0" leadInLength="0/1"  />
              </VectorParam>
              <VectorParam id="6366"  name="rotation">
               <InterpolatingParam id="6367" interp="linr"  time="-9999999/1" value="0" leadInLength="0/1"  />
               <InterpolatingParam id="6368" interp="linr"  time="-9999999/1" value="0" leadInLength="0/1"  />
               <InterpolatingParam id="6369" interp="linr"  time="-9999999/1" value="0" leadInLength="0/1"  />
              </VectorParam>
              <VectorParam id="6370"  name="shear">
               <InterpolatingParam id="6371" interp="linr"  time="-9999999/1" value="0" leadInLength="0/1"  />
               <InterpolatingParam id="6372" interp="linr"  time="-9999999/1" value="0" leadInLength="0/1"  />
               <InterpolatingParam id="6373" interp="linr"  time="-9999999/1" value="0" leadInLength="0/1"  />
              </VectorParam>
              <VectorParam id="6374"  name="scale">
               <InterpolatingParam id="6375" interp="linr"  time="-9999999/1" value="1" leadInLength="0/1"  />
               <InterpolatingParam id="6376" interp="linr"  time="-9999999/1" value="1" leadInLength="0/1"  />
               <InterpolatingParam id="6377" interp="linr"  time="-9999999/1" value="1" leadInLength="0/1"  />
              </VectorParam>
              <VectorParam id="6378"  name="anchor">
               <InterpolatingParam id="6379" interp="linr"  time="0/1" value="0" leadInLength="0/1"  />
               <InterpolatingParam id="6380" interp="linr"  time="0/1" value="0" leadInLength="0/1"  />
               <InterpolatingParam id="6381" interp="linr"  time="0/1" value="0" leadInLength="0/1"  />
              </VectorParam>
             </Transformer>
             <Parameters>
              <VectorParam id="6382"  name="sourceCrop">
               <InterpolatingParam id="6383" interp="linr"  time="0/1" value="0" leadInLength="0/1"  />
               <InterpolatingParam id="6384" interp="linr"  time="0/1" value="0" leadInLength="0/1"  />
               <InterpolatingParam id="6385" interp="linr"  time="0/1" value="0" leadInLength="0/1"  />
               <InterpolatingParam id="6386" interp="linr"  time="0/1" value="0" leadInLength="0/1"  />
              </VectorParam>
              <VectorParam id="6387"  name="geometryCrop">
               <InterpolatingParam id="6388" interp="linr"  time="-9999999/1" value="0" leadInLength="0/1"  />
               <InterpolatingParam id="6389" interp="linr"  time="-9999999/1" value="0" leadInLength="0/1"  />
               <InterpolatingParam id="6390" interp="linr"  time="-9999999/1" value="0" leadInLength="0/1"  />
               <InterpolatingParam id="6391" interp="linr"  time="-9999999/1" value="0" leadInLength="0/1"  />
              </VectorParam>
              <InterpolatingParam id="6392" interp="linr"  time="-9999999/1" value="1" leadInLength="0/1"  name="opacity"/>
             </Parameters>
             <Attributes>
              <Attribute id="6393" value="" name="ident"/>
             </Attributes>
             <ExtraData>
              <Entry key="ZoomPanBin">
               <ZoomPanBin id="6394"  >
                <ZoomPanKeyframes>
                 <ZoomPanKeyframe id="6395" timeRangeEnd="-9999999/1" timeRangeDuration="0/1" interpolaterName="linr"  />
                </ZoomPanKeyframes>
               </ZoomPanBin>
              </Entry>
             </ExtraData>
            </VMFile>
            <MetaData>
             <entry key="WinSubProjectDisplayName" val=""/>
            </MetaData>
           </UnifiedMedia>
          </Medias>
         </GenericTrack>
        </StitchedMedia>
        <StitchedMedia id="6396" start="7913" duration="453" scalar="82541653788/92294559563" mediaStart="178888/107461" mediaDuration="13936478494013/27513884596" minMediaStart="-22945393112/107461" >
         <Transformer>
          <VectorParam id="6397"  name="translation">
           <InterpolatingParam id="6398" interp="linr"  >
            <Keyframes>
            <Keyframe id="6399"  time="-9999999/1" value="11.957671957194174" leadInLength="0/1"  />
            <Keyframe id="6400"  time="5029016960743/82541653788" value="-28.042328043265275" leadInLength="369178238252/6878471149"  interpolater="leadin-linr"  />
            </Keyframes>
           </InterpolatingParam>
           <InterpolatingParam id="6401" interp="linr"  >
            <Keyframes>
            <Keyframe id="6402"  time="-9999999/1" value="-206.91666666655763" leadInLength="0/1"  />
            <Keyframe id="6403"  time="5029016960743/82541653788" value="-158.70238095254203" leadInLength="369178238252/6878471149"  interpolater="leadin-linr"  />
            </Keyframes>
           </InterpolatingParam>
           <InterpolatingParam id="6404" interp="linr"  >
            <Keyframes>
            <Keyframe id="6405"  time="-9999999/1" value="0" leadInLength="0/1"  />
            <Keyframe id="6406"  time="5029016960743/82541653788" value="0" leadInLength="369178238252/6878471149"  interpolater="leadin-linr"  />
            </Keyframes>
           </InterpolatingParam>
          </VectorParam>
          <VectorParam id="6407"  name="rotation">
           <InterpolatingParam id="6408" interp="linr"  >
            <Keyframes>
            <Keyframe id="6409"  time="-9999999/1" value="0" leadInLength="0/1"  />
            <Keyframe id="6410"  time="5029016960743/82541653788" value="0" leadInLength="369178238252/6878471149"  interpolater="leadin-linr"  />
            </Keyframes>
           </InterpolatingParam>
           <InterpolatingParam id="6411" interp="linr"  >
            <Keyframes>
            <Keyframe id="6412"  time="-9999999/1" value="0" leadInLength="0/1"  />
            <Keyframe id="6413"  time="5029016960743/82541653788" value="0" leadInLength="369178238252/6878471149"  interpolater="leadin-linr"  />
            </Keyframes>
           </InterpolatingParam>
           <InterpolatingParam id="6414" interp="linr"  >
            <Keyframes>
            <Keyframe id="6415"  time="-9999999/1" value="0" leadInLength="0/1"  />
            <Keyframe id="6416"  time="5029016960743/82541653788" value="0" leadInLength="369178238252/6878471149"  interpolater="leadin-linr"  />
            </Keyframes>
           </InterpolatingParam>
          </VectorParam>
          <VectorParam id="6417"  name="shear">
           <InterpolatingParam id="6418" interp="linr"  >
            <Keyframes>
            <Keyframe id="6419"  time="-9999999/1" value="0" leadInLength="0/1"  />
            <Keyframe id="6420"  time="5029016960743/82541653788" value="0" leadInLength="369178238252/6878471149"  interpolater="leadin-linr"  />
            </Keyframes>
           </InterpolatingParam>
           <InterpolatingParam id="6421" interp="linr"  >
            <Keyframes>
            <Keyframe id="6422"  time="-9999999/1" value="0" leadInLength="0/1"  />
            <Keyframe id="6423"  time="5029016960743/82541653788" value="0" leadInLength="369178238252/6878471149"  interpolater="leadin-linr"  />
            </Keyframes>
           </InterpolatingParam>
           <InterpolatingParam id="6424" interp="linr"  >
            <Keyframes>
            <Keyframe id="6425"  time="-9999999/1" value="0" leadInLength="0/1"  />
            <Keyframe id="6426"  time="5029016960743/82541653788" value="0" leadInLength="369178238252/6878471149"  interpolater="leadin-linr"  />
            </Keyframes>
           </InterpolatingParam>
          </VectorParam>
          <VectorParam id="6427"  name="scale">
           <InterpolatingParam id="6428" interp="linr"  >
            <Keyframes>
            <Keyframe id="6429"  time="-9999999/1" value="1.3882495590828201" leadInLength="0/1"  />
            <Keyframe id="6430"  time="5029016960743/82541653788" value="1.3822971781299738" leadInLength="369178238252/6878471149"  interpolater="leadin-linr"  />
            </Keyframes>
           </InterpolatingParam>
           <InterpolatingParam id="6431" interp="linr"  >
            <Keyframes>
            <Keyframe id="6432"  time="-9999999/1" value="1.3882495590828217" leadInLength="0/1"  />
            <Keyframe id="6433"  time="5029016960743/82541653788" value="1.3822971781299753" leadInLength="369178238252/6878471149"  interpolater="leadin-linr"  />
            </Keyframes>
           </InterpolatingParam>
           <InterpolatingParam id="6434" interp="linr"  >
            <Keyframes>
            <Keyframe id="6435"  time="-9999999/1" value="1" leadInLength="0/1"  />
            <Keyframe id="6436"  time="5029016960743/82541653788" value="1" leadInLength="369178238252/6878471149"  interpolater="leadin-linr"  />
            </Keyframes>
           </InterpolatingParam>
          </VectorParam>
          <VectorParam id="6437"  name="anchor">
           <InterpolatingParam id="6438" interp="linr"  >
            <Keyframes>
            <Keyframe id="6439"  time="0/1" value="0" leadInLength="0/1"  />
            <Keyframe id="6440"  time="1254853606/2471603" value="0" leadInLength="0/1"  />
            </Keyframes>
           </InterpolatingParam>
           <InterpolatingParam id="6441" interp="linr"  >
            <Keyframes>
            <Keyframe id="6442"  time="0/1" value="0" leadInLength="0/1"  />
            <Keyframe id="6443"  time="1254853606/2471603" value="0" leadInLength="0/1"  />
            </Keyframes>
           </InterpolatingParam>
           <InterpolatingParam id="6444" interp="linr"  >
            <Keyframes>
            <Keyframe id="6445"  time="0/1" value="0" leadInLength="0/1"  />
            <Keyframe id="6446"  time="1254853606/2471603" value="0" leadInLength="0/1"  />
            </Keyframes>
           </InterpolatingParam>
          </VectorParam>
         </Transformer>
         <Parameters>
          <VectorParam id="6447"  name="sourceCrop">
           <InterpolatingParam id="6448" interp="linr"  >
            <Keyframes>
            <Keyframe id="6449"  time="0/1" value="0" leadInLength="0/1"  />
            <Keyframe id="6450"  time="1254853606/2471603" value="0" leadInLength="0/1"  />
            </Keyframes>
           </InterpolatingParam>
           <InterpolatingParam id="6451" interp="linr"  >
            <Keyframes>
            <Keyframe id="6452"  time="0/1" value="0" leadInLength="0/1"  />
            <Keyframe id="6453"  time="1254853606/2471603" value="0" leadInLength="0/1"  />
            </Keyframes>
           </InterpolatingParam>
           <InterpolatingParam id="6454" interp="linr"  >
            <Keyframes>
            <Keyframe id="6455"  time="0/1" value="0" leadInLength="0/1"  />
            <Keyframe id="6456"  time="1254853606/2471603" value="0" leadInLength="0/1"  />
            </Keyframes>
           </InterpolatingParam>
           <InterpolatingParam id="6457" interp="linr"  >
            <Keyframes>
            <Keyframe id="6458"  time="0/1" value="0" leadInLength="0/1"  />
            <Keyframe id="6459"  time="1254853606/2471603" value="0" leadInLength="0/1"  />
            </Keyframes>
           </InterpolatingParam>
          </VectorParam>
          <VectorParam id="6460"  name="geometryCrop">
           <InterpolatingParam id="6461" interp="linr"  >
            <Keyframes>
            <Keyframe id="6462"  time="-9999999/1" value="0" leadInLength="0/1"  />
            <Keyframe id="6463"  time="5029016960743/82541653788" value="0" leadInLength="369178238252/6878471149"  interpolater="leadin-linr"  />
            </Keyframes>
           </InterpolatingParam>
           <InterpolatingParam id="6464" interp="linr"  >
            <Keyframes>
            <Keyframe id="6465"  time="-9999999/1" value="0" leadInLength="0/1"  />
            <Keyframe id="6466"  time="5029016960743/82541653788" value="0" leadInLength="369178238252/6878471149"  interpolater="leadin-linr"  />
            </Keyframes>
           </InterpolatingParam>
           <InterpolatingParam id="6467" interp="linr"  >
            <Keyframes>
            <Keyframe id="6468"  time="-9999999/1" value="0" leadInLength="0/1"  />
            <Keyframe id="6469"  time="5029016960743/82541653788" value="0" leadInLength="369178238252/6878471149"  interpolater="leadin-linr"  />
            </Keyframes>
           </InterpolatingParam>
           <InterpolatingParam id="6470" interp="linr"  >
            <Keyframes>
            <Keyframe id="6471"  time="-9999999/1" value="0" leadInLength="0/1"  />
            <Keyframe id="6472"  time="5029016960743/82541653788" value="0" leadInLength="369178238252/6878471149"  interpolater="leadin-linr"  />
            </Keyframes>
           </InterpolatingParam>
          </VectorParam>
          <InterpolatingParam id="6473" interp="linr"  name="opacity">
           <Keyframes>
           <Keyframe id="6474"  time="-9999999/1" value="1" leadInLength="0/1"  />
           <Keyframe id="6475"  time="5029016960743/82541653788" value="1" leadInLength="369178238252/6878471149"  interpolater="leadin-linr"  />
           </Keyframes>
          </InterpolatingParam>
          <InterpolatingParam id="6476" interp="linr"  time="0/1" value="1" leadInLength="0/1"  name="cursorOpacity"/>
          <InterpolatingParam id="6477" interp="linr"  time="0/1" value="1" leadInLength="0/1"  name="cursorScale"/>
          <InterpolatingParam id="6478" interp="linr"  name="volume">
           <Keyframes>
           <Keyframe id="6479"  time="-22945393112/107461" value="0" leadInLength="0/1"  />
           <Keyframe id="6480"  time="160857/2621" value="0" leadInLength="0/1"  />
           <Keyframe id="6481"  time="63/1" value="0" leadInLength="0/1"  />
           </Keyframes>
          </InterpolatingParam>
          <Parameter id="6482"  name="captions"/>
         </Parameters>
         <Attributes>
          <Attribute id="6483" value="" name="ident"/>
          <Attribute id="6484" value="0" name="mixToMono"/>
         </Attributes>
         <MetaData>
          <entry key="WinSubProjectDisplayName" val=""/>
         </MetaData>
         <ExtraData>
          <Entry key="ZoomPanBin">
           <ZoomPanBin id="6485"  >
            <ZoomPanKeyframes>
             <ZoomPanKeyframe id="6486" timeRangeEnd="-9999999/1" timeRangeDuration="0/1" interpolaterName="linr"  />
             <ZoomPanKeyframe id="6487" timeRangeEnd="5029016960743/82541653788" timeRangeDuration="369178238252/6878471149" interpolaterName="linr"  />
            </ZoomPanKeyframes>
           </ZoomPanBin>
          </Entry>
          <Entry key="CursorEffectBin">
           <CursorEffectBin id="6488"  >
            <CursorEffectKeyframes>
            </CursorEffectKeyframes>
           </CursorEffectBin>
          </Entry>
         </ExtraData>
         <GenericTrack id="6489"  >
          <Attributes>
           <Attribute id="6490" value="" name="ident"/>
           <Attribute id="6491" value="0" name="audioMuted"/>
           <Attribute id="6492" value="0" name="videoHidden"/>
          </Attributes>
          <MetaData>
           <entry key="IsLocked" val="False"/>
           <entry key="WinTrackHeight" val="0"/>
          </MetaData>
          <Medias>
           <IMFile id="6493" start="-213523" duration="213585" scalar="1/1" mediaStart="2318/1" mediaDuration="1/1" trackNumber="0" src="26" trimStartSum="-213523/1" >
            <Transformer>
             <VectorParam id="6494"  name="translation">
              <InterpolatingParam id="6495" interp="linr"  time="-9999999/1" value="0" leadInLength="0/1"  />
              <InterpolatingParam id="6496" interp="linr"  time="-9999999/1" value="0" leadInLength="0/1"  />
              <InterpolatingParam id="6497" interp="linr"  time="-9999999/1" value="0" leadInLength="0/1"  />
             </VectorParam>
             <VectorParam id="6498"  name="rotation">
              <InterpolatingParam id="6499" interp="linr"  time="-9999999/1" value="0" leadInLength="0/1"  />
              <InterpolatingParam id="6500" interp="linr"  time="-9999999/1" value="0" leadInLength="0/1"  />
              <InterpolatingParam id="6501" interp="linr"  time="-9999999/1" value="0" leadInLength="0/1"  />
             </VectorParam>
             <VectorParam id="6502"  name="shear">
              <InterpolatingParam id="6503" interp="linr"  time="-9999999/1" value="0" leadInLength="0/1"  />
              <InterpolatingParam id="6504" interp="linr"  time="-9999999/1" value="0" leadInLength="0/1"  />
              <InterpolatingParam id="6505" interp="linr"  time="-9999999/1" value="0" leadInLength="0/1"  />
             </VectorParam>
             <VectorParam id="6506"  name="scale">
              <InterpolatingParam id="6507" interp="linr"  time="-9999999/1" value="1" leadInLength="0/1"  />
              <InterpolatingParam id="6508" interp="linr"  time="-9999999/1" value="1" leadInLength="0/1"  />
              <InterpolatingParam id="6509" interp="linr"  time="-9999999/1" value="1" leadInLength="0/1"  />
             </VectorParam>
             <VectorParam id="6510"  name="anchor">
              <InterpolatingParam id="6511" interp="linr"  time="0/1" value="0" leadInLength="0/1"  />
              <InterpolatingParam id="6512" interp="linr"  time="0/1" value="0" leadInLength="0/1"  />
              <InterpolatingParam id="6513" interp="linr"  time="0/1" value="0" leadInLength="0/1"  />
             </VectorParam>
            </Transformer>
            <Parameters>
             <VectorParam id="6514"  name="sourceCrop">
              <InterpolatingParam id="6515" interp="linr"  time="0/1" value="0" leadInLength="0/1"  />
              <InterpolatingParam id="6516" interp="linr"  time="0/1" value="0" leadInLength="0/1"  />
              <InterpolatingParam id="6517" interp="linr"  time="0/1" value="0" leadInLength="0/1"  />
              <InterpolatingParam id="6518" interp="linr"  time="0/1" value="0" leadInLength="0/1"  />
             </VectorParam>
             <VectorParam id="6519"  name="geometryCrop">
              <InterpolatingParam id="6520" interp="linr"  time="-9999999/1" value="0" leadInLength="0/1"  />
              <InterpolatingParam id="6521" interp="linr"  time="-9999999/1" value="0" leadInLength="0/1"  />
              <InterpolatingParam id="6522" interp="linr"  time="-9999999/1" value="0" leadInLength="0/1"  />
              <InterpolatingParam id="6523" interp="linr"  time="-9999999/1" value="0" leadInLength="0/1"  />
             </VectorParam>
             <InterpolatingParam id="6524" interp="linr"  time="-9999999/1" value="1" leadInLength="0/1"  name="opacity"/>
            </Parameters>
            <Attributes>
             <Attribute id="6525" value="" name="ident"/>
            </Attributes>
            <MetaData>
             <entry key="WinSubProjectDisplayName" val=""/>
            </MetaData>
            <ExtraData>
             <Entry key="ZoomPanBin">
              <ZoomPanBin id="6526"  >
               <ZoomPanKeyframes>
                <ZoomPanKeyframe id="6527" timeRangeEnd="-9999999/1" timeRangeDuration="0/1" interpolaterName="linr"  />
               </ZoomPanKeyframes>
              </ZoomPanBin>
             </Entry>
            </ExtraData>
           </IMFile>
           <UnifiedMedia id="6528"  >
            <AMFile id="6529" start="62" duration="446" scalar="1/1" mediaStart="2317/1" mediaDuration="446/1" trackNumber="1" src="26" channelNumber="0" >
             <Parameters>
              <InterpolatingParam id="6530" interp="linr"  time="0/1" value="1" leadInLength="0/1"  name="volume"/>
              <Parameter id="6531"  name="captions"/>
             </Parameters>
             <Attributes>
              <Attribute id="6532" value="" name="ident"/>
              <Attribute id="6533" value="44100" name="sampleRate"/>
              <Attribute id="6534" value="16" name="bitDepth"/>
              <Attribute id="6535" value="1" name="gain"/>
              <Attribute id="6536" value="0" name="mixToMono"/>
             </Attributes>
            </AMFile>
            <VMFile id="6537" start="62" duration="446" scalar="1/1" mediaStart="2317/1" mediaDuration="446/1" trackNumber="0" src="26" >
             <Transformer>
              <VectorParam id="6538"  name="translation">
               <InterpolatingParam id="6539" interp="linr"  time="-9999999/1" value="0" leadInLength="0/1"  />
               <InterpolatingParam id="6540" interp="linr"  time="-9999999/1" value="0" leadInLength="0/1"  />
               <InterpolatingParam id="6541" interp="linr"  time="-9999999/1" value="0" leadInLength="0/1"  />
              </VectorParam>
              <VectorParam id="6542"  name="rotation">
               <InterpolatingParam id="6543" interp="linr"  time="-9999999/1" value="0" leadInLength="0/1"  />
               <InterpolatingParam id="6544" interp="linr"  time="-9999999/1" value="0" leadInLength="0/1"  />
               <InterpolatingParam id="6545" interp="linr"  time="-9999999/1" value="0" leadInLength="0/1"  />
              </VectorParam>
              <VectorParam id="6546"  name="shear">
               <InterpolatingParam id="6547" interp="linr"  time="-9999999/1" value="0" leadInLength="0/1"  />
               <InterpolatingParam id="6548" interp="linr"  time="-9999999/1" value="0" leadInLength="0/1"  />
               <InterpolatingParam id="6549" interp="linr"  time="-9999999/1" value="0" leadInLength="0/1"  />
              </VectorParam>
              <VectorParam id="6550"  name="scale">
               <InterpolatingParam id="6551" interp="linr"  time="-9999999/1" value="1" leadInLength="0/1"  />
               <InterpolatingParam id="6552" interp="linr"  time="-9999999/1" value="1" leadInLength="0/1"  />
               <InterpolatingParam id="6553" interp="linr"  time="-9999999/1" value="1" leadInLength="0/1"  />
              </VectorParam>
              <VectorParam id="6554"  name="anchor">
               <InterpolatingParam id="6555" interp="linr"  time="0/1" value="0" leadInLength="0/1"  />
               <InterpolatingParam id="6556" interp="linr"  time="0/1" value="0" leadInLength="0/1"  />
               <InterpolatingParam id="6557" interp="linr"  time="0/1" value="0" leadInLength="0/1"  />
              </VectorParam>
             </Transformer>
             <Parameters>
              <VectorParam id="6558"  name="sourceCrop">
               <InterpolatingParam id="6559" interp="linr"  time="0/1" value="0" leadInLength="0/1"  />
               <InterpolatingParam id="6560" interp="linr"  time="0/1" value="0" leadInLength="0/1"  />
               <InterpolatingParam id="6561" interp="linr"  time="0/1" value="0" leadInLength="0/1"  />
               <InterpolatingParam id="6562" interp="linr"  time="0/1" value="0" leadInLength="0/1"  />
              </VectorParam>
              <VectorParam id="6563"  name="geometryCrop">
               <InterpolatingParam id="6564" interp="linr"  time="-9999999/1" value="0" leadInLength="0/1"  />
               <InterpolatingParam id="6565" interp="linr"  time="-9999999/1" value="0" leadInLength="0/1"  />
               <InterpolatingParam id="6566" interp="linr"  time="-9999999/1" value="0" leadInLength="0/1"  />
               <InterpolatingParam id="6567" interp="linr"  time="-9999999/1" value="0" leadInLength="0/1"  />
              </VectorParam>
              <InterpolatingParam id="6568" interp="linr"  time="-9999999/1" value="1" leadInLength="0/1"  name="opacity"/>
             </Parameters>
             <Attributes>
              <Attribute id="6569" value="" name="ident"/>
             </Attributes>
             <ExtraData>
              <Entry key="ZoomPanBin">
               <ZoomPanBin id="6570"  >
                <ZoomPanKeyframes>
                 <ZoomPanKeyframe id="6571" timeRangeEnd="-9999999/1" timeRangeDuration="0/1" interpolaterName="linr"  />
                </ZoomPanKeyframes>
               </ZoomPanBin>
              </Entry>
             </ExtraData>
            </VMFile>
            <MetaData>
             <entry key="WinSubProjectDisplayName" val=""/>
            </MetaData>
           </UnifiedMedia>
           <IMFile id="6572" start="508" duration="33" scalar="1/1" mediaStart="2762/1" mediaDuration="1/1" trackNumber="0" src="26" trimStartSum="0/1" >
            <Transformer>
             <VectorParam id="6573"  name="translation">
              <InterpolatingParam id="6574" interp="linr"  time="-9999999/1" value="0" leadInLength="0/1"  />
              <InterpolatingParam id="6575" interp="linr"  time="-9999999/1" value="0" leadInLength="0/1"  />
              <InterpolatingParam id="6576" interp="linr"  time="-9999999/1" value="0" leadInLength="0/1"  />
             </VectorParam>
             <VectorParam id="6577"  name="rotation">
              <InterpolatingParam id="6578" interp="linr"  time="-9999999/1" value="0" leadInLength="0/1"  />
              <InterpolatingParam id="6579" interp="linr"  time="-9999999/1" value="0" leadInLength="0/1"  />
              <InterpolatingParam id="6580" interp="linr"  time="-9999999/1" value="0" leadInLength="0/1"  />
             </VectorParam>
             <VectorParam id="6581"  name="shear">
              <InterpolatingParam id="6582" interp="linr"  time="-9999999/1" value="0" leadInLength="0/1"  />
              <InterpolatingParam id="6583" interp="linr"  time="-9999999/1" value="0" leadInLength="0/1"  />
              <InterpolatingParam id="6584" interp="linr"  time="-9999999/1" value="0" leadInLength="0/1"  />
             </VectorParam>
             <VectorParam id="6585"  name="scale">
              <InterpolatingParam id="6586" interp="linr"  time="-9999999/1" value="1" leadInLength="0/1"  />
              <InterpolatingParam id="6587" interp="linr"  time="-9999999/1" value="1" leadInLength="0/1"  />
              <InterpolatingParam id="6588" interp="linr"  time="-9999999/1" value="1" leadInLength="0/1"  />
             </VectorParam>
             <VectorParam id="6589"  name="anchor">
              <InterpolatingParam id="6590" interp="linr"  time="0/1" value="0" leadInLength="0/1"  />
              <InterpolatingParam id="6591" interp="linr"  time="0/1" value="0" leadInLength="0/1"  />
              <InterpolatingParam id="6592" interp="linr"  time="0/1" value="0" leadInLength="0/1"  />
             </VectorParam>
            </Transformer>
            <Parameters>
             <VectorParam id="6593"  name="sourceCrop">
              <InterpolatingParam id="6594" interp="linr"  time="0/1" value="0" leadInLength="0/1"  />
              <InterpolatingParam id="6595" interp="linr"  time="0/1" value="0" leadInLength="0/1"  />
              <InterpolatingParam id="6596" interp="linr"  time="0/1" value="0" leadInLength="0/1"  />
              <InterpolatingParam id="6597" interp="linr"  time="0/1" value="0" leadInLength="0/1"  />
             </VectorParam>
             <VectorParam id="6598"  name="geometryCrop">
              <InterpolatingParam id="6599" interp="linr"  time="-9999999/1" value="0" leadInLength="0/1"  />
              <InterpolatingParam id="6600" interp="linr"  time="-9999999/1" value="0" leadInLength="0/1"  />
              <InterpolatingParam id="6601" interp="linr"  time="-9999999/1" value="0" leadInLength="0/1"  />
              <InterpolatingParam id="6602" interp="linr"  time="-9999999/1" value="0" leadInLength="0/1"  />
             </VectorParam>
             <InterpolatingParam id="6603" interp="linr"  time="-9999999/1" value="1" leadInLength="0/1"  name="opacity"/>
            </Parameters>
            <Attributes>
             <Attribute id="6604" value="" name="ident"/>
            </Attributes>
            <MetaData>
             <entry key="WinSubProjectDisplayName" val=""/>
            </MetaData>
            <ExtraData>
             <Entry key="ZoomPanBin">
              <ZoomPanBin id="6605"  >
               <ZoomPanKeyframes>
                <ZoomPanKeyframe id="6606" timeRangeEnd="-9999999/1" timeRangeDuration="0/1" interpolaterName="linr"  />
               </ZoomPanKeyframes>
              </ZoomPanBin>
             </Entry>
            </ExtraData>
           </IMFile>
           <UnifiedMedia id="6607"  >
            <AMFile id="6608" start="541" duration="190" scalar="1/1" mediaStart="2762/1" mediaDuration="190/1" trackNumber="1" src="26" channelNumber="0" >
             <Parameters>
              <InterpolatingParam id="6609" interp="linr"  time="0/1" value="1" leadInLength="0/1"  name="volume"/>
              <Parameter id="6610"  name="captions"/>
             </Parameters>
             <Attributes>
              <Attribute id="6611" value="" name="ident"/>
              <Attribute id="6612" value="44100" name="sampleRate"/>
              <Attribute id="6613" value="16" name="bitDepth"/>
              <Attribute id="6614" value="1" name="gain"/>
              <Attribute id="6615" value="0" name="mixToMono"/>
             </Attributes>
            </AMFile>
            <VMFile id="6616" start="541" duration="190" scalar="1/1" mediaStart="2762/1" mediaDuration="190/1" trackNumber="0" src="26" >
             <Transformer>
              <VectorParam id="6617"  name="translation">
               <InterpolatingParam id="6618" interp="linr"  time="-9999999/1" value="0" leadInLength="0/1"  />
               <InterpolatingParam id="6619" interp="linr"  time="-9999999/1" value="0" leadInLength="0/1"  />
               <InterpolatingParam id="6620" interp="linr"  time="-9999999/1" value="0" leadInLength="0/1"  />
              </VectorParam>
              <VectorParam id="6621"  name="rotation">
               <InterpolatingParam id="6622" interp="linr"  time="-9999999/1" value="0" leadInLength="0/1"  />
               <InterpolatingParam id="6623" interp="linr"  time="-9999999/1" value="0" leadInLength="0/1"  />
               <InterpolatingParam id="6624" interp="linr"  time="-9999999/1" value="0" leadInLength="0/1"  />
              </VectorParam>
              <VectorParam id="6625"  name="shear">
               <InterpolatingParam id="6626" interp="linr"  time="-9999999/1" value="0" leadInLength="0/1"  />
               <InterpolatingParam id="6627" interp="linr"  time="-9999999/1" value="0" leadInLength="0/1"  />
               <InterpolatingParam id="6628" interp="linr"  time="-9999999/1" value="0" leadInLength="0/1"  />
              </VectorParam>
              <VectorParam id="6629"  name="scale">
               <InterpolatingParam id="6630" interp="linr"  time="-9999999/1" value="1" leadInLength="0/1"  />
               <InterpolatingParam id="6631" interp="linr"  time="-9999999/1" value="1" leadInLength="0/1"  />
               <InterpolatingParam id="6632" interp="linr"  time="-9999999/1" value="1" leadInLength="0/1"  />
              </VectorParam>
              <VectorParam id="6633"  name="anchor">
               <InterpolatingParam id="6634" interp="linr"  time="0/1" value="0" leadInLength="0/1"  />
               <InterpolatingParam id="6635" interp="linr"  time="0/1" value="0" leadInLength="0/1"  />
               <InterpolatingParam id="6636" interp="linr"  time="0/1" value="0" leadInLength="0/1"  />
              </VectorParam>
             </Transformer>
             <Parameters>
              <VectorParam id="6637"  name="sourceCrop">
               <InterpolatingParam id="6638" interp="linr"  time="0/1" value="0" leadInLength="0/1"  />
               <InterpolatingParam id="6639" interp="linr"  time="0/1" value="0" leadInLength="0/1"  />
               <InterpolatingParam id="6640" interp="linr"  time="0/1" value="0" leadInLength="0/1"  />
               <InterpolatingParam id="6641" interp="linr"  time="0/1" value="0" leadInLength="0/1"  />
              </VectorParam>
              <VectorParam id="6642"  name="geometryCrop">
               <InterpolatingParam id="6643" interp="linr"  time="-9999999/1" value="0" leadInLength="0/1"  />
               <InterpolatingParam id="6644" interp="linr"  time="-9999999/1" value="0" leadInLength="0/1"  />
               <InterpolatingParam id="6645" interp="linr"  time="-9999999/1" value="0" leadInLength="0/1"  />
               <InterpolatingParam id="6646" interp="linr"  time="-9999999/1" value="0" leadInLength="0/1"  />
              </VectorParam>
              <InterpolatingParam id="6647" interp="linr"  time="-9999999/1" value="1" leadInLength="0/1"  name="opacity"/>
             </Parameters>
             <Attributes>
              <Attribute id="6648" value="" name="ident"/>
             </Attributes>
             <ExtraData>
              <Entry key="ZoomPanBin">
               <ZoomPanBin id="6649"  >
                <ZoomPanKeyframes>
                 <ZoomPanKeyframe id="6650" timeRangeEnd="-9999999/1" timeRangeDuration="0/1" interpolaterName="linr"  />
                </ZoomPanKeyframes>
               </ZoomPanBin>
              </Entry>
             </ExtraData>
            </VMFile>
            <MetaData>
             <entry key="WinSubProjectDisplayName" val=""/>
            </MetaData>
           </UnifiedMedia>
          </Medias>
         </GenericTrack>
        </StitchedMedia>
        <StitchedMedia id="6651" start="8366" duration="63" scalar="5200124188644/2861131346453" mediaStart="13982280261981/27513884596" mediaDuration="2861131346453/82541653788" minMediaStart="-22945393112/107461" >
         <Transformer>
          <VectorParam id="6652"  name="translation">
           <InterpolatingParam id="6653" interp="linr"  >
            <Keyframes>
            <Keyframe id="6654"  time="-9999999/1" value="11.957671957194174" leadInLength="0/1"  />
            <Keyframe id="6655"  time="45630330884939/742874884092" value="-28.042328043265275" leadInLength="277529740605941/5200124188644"  interpolater="leadin-linr"  />
            </Keyframes>
           </InterpolatingParam>
           <InterpolatingParam id="6656" interp="linr"  >
            <Keyframes>
            <Keyframe id="6657"  time="-9999999/1" value="-206.91666666655763" leadInLength="0/1"  />
            <Keyframe id="6658"  time="45630330884939/742874884092" value="-158.70238095254203" leadInLength="277529740605941/5200124188644"  interpolater="leadin-linr"  />
            </Keyframes>
           </InterpolatingParam>
           <InterpolatingParam id="6659" interp="linr"  >
            <Keyframes>
            <Keyframe id="6660"  time="-9999999/1" value="0" leadInLength="0/1"  />
            <Keyframe id="6661"  time="45630330884939/742874884092" value="0" leadInLength="277529740605941/5200124188644"  interpolater="leadin-linr"  />
            </Keyframes>
           </InterpolatingParam>
          </VectorParam>
          <VectorParam id="6662"  name="rotation">
           <InterpolatingParam id="6663" interp="linr"  >
            <Keyframes>
            <Keyframe id="6664"  time="-9999999/1" value="0" leadInLength="0/1"  />
            <Keyframe id="6665"  time="45630330884939/742874884092" value="0" leadInLength="277529740605941/5200124188644"  interpolater="leadin-linr"  />
            </Keyframes>
           </InterpolatingParam>
           <InterpolatingParam id="6666" interp="linr"  >
            <Keyframes>
            <Keyframe id="6667"  time="-9999999/1" value="0" leadInLength="0/1"  />
            <Keyframe id="6668"  time="45630330884939/742874884092" value="0" leadInLength="277529740605941/5200124188644"  interpolater="leadin-linr"  />
            </Keyframes>
           </InterpolatingParam>
           <InterpolatingParam id="6669" interp="linr"  >
            <Keyframes>
            <Keyframe id="6670"  time="-9999999/1" value="0" leadInLength="0/1"  />
            <Keyframe id="6671"  time="45630330884939/742874884092" value="0" leadInLength="277529740605941/5200124188644"  interpolater="leadin-linr"  />
            </Keyframes>
           </InterpolatingParam>
          </VectorParam>
          <VectorParam id="6672"  name="shear">
           <InterpolatingParam id="6673" interp="linr"  >
            <Keyframes>
            <Keyframe id="6674"  time="-9999999/1" value="0" leadInLength="0/1"  />
            <Keyframe id="6675"  time="45630330884939/742874884092" value="0" leadInLength="277529740605941/5200124188644"  interpolater="leadin-linr"  />
            </Keyframes>
           </InterpolatingParam>
           <InterpolatingParam id="6676" interp="linr"  >
            <Keyframes>
            <Keyframe id="6677"  time="-9999999/1" value="0" leadInLength="0/1"  />
            <Keyframe id="6678"  time="45630330884939/742874884092" value="0" leadInLength="277529740605941/5200124188644"  interpolater="leadin-linr"  />
            </Keyframes>
           </InterpolatingParam>
           <InterpolatingParam id="6679" interp="linr"  >
            <Keyframes>
            <Keyframe id="6680"  time="-9999999/1" value="0" leadInLength="0/1"  />
            <Keyframe id="6681"  time="45630330884939/742874884092" value="0" leadInLength="277529740605941/5200124188644"  interpolater="leadin-linr"  />
            </Keyframes>
           </InterpolatingParam>
          </VectorParam>
          <VectorParam id="6682"  name="scale">
           <InterpolatingParam id="6683" interp="linr"  >
            <Keyframes>
            <Keyframe id="6684"  time="-9999999/1" value="1.3882495590828201" leadInLength="0/1"  />
            <Keyframe id="6685"  time="45630330884939/742874884092" value="1.3822971781299738" leadInLength="277529740605941/5200124188644"  interpolater="leadin-linr"  />
            </Keyframes>
           </InterpolatingParam>
           <InterpolatingParam id="6686" interp="linr"  >
            <Keyframes>
            <Keyframe id="6687"  time="-9999999/1" value="1.3882495590828217" leadInLength="0/1"  />
            <Keyframe id="6688"  time="45630330884939/742874884092" value="1.3822971781299753" leadInLength="277529740605941/5200124188644"  interpolater="leadin-linr"  />
            </Keyframes>
           </InterpolatingParam>
           <InterpolatingParam id="6689" interp="linr"  >
            <Keyframes>
            <Keyframe id="6690"  time="-9999999/1" value="1" leadInLength="0/1"  />
            <Keyframe id="6691"  time="45630330884939/742874884092" value="1" leadInLength="277529740605941/5200124188644"  interpolater="leadin-linr"  />
            </Keyframes>
           </InterpolatingParam>
          </VectorParam>
          <VectorParam id="6692"  name="anchor">
           <InterpolatingParam id="6693" interp="linr"  >
            <Keyframes>
            <Keyframe id="6694"  time="0/1" value="0" leadInLength="0/1"  />
            <Keyframe id="6695"  time="1254853606/2471603" value="0" leadInLength="0/1"  />
            </Keyframes>
           </InterpolatingParam>
           <InterpolatingParam id="6696" interp="linr"  >
            <Keyframes>
            <Keyframe id="6697"  time="0/1" value="0" leadInLength="0/1"  />
            <Keyframe id="6698"  time="1254853606/2471603" value="0" leadInLength="0/1"  />
            </Keyframes>
           </InterpolatingParam>
           <InterpolatingParam id="6699" interp="linr"  >
            <Keyframes>
            <Keyframe id="6700"  time="0/1" value="0" leadInLength="0/1"  />
            <Keyframe id="6701"  time="1254853606/2471603" value="0" leadInLength="0/1"  />
            </Keyframes>
           </InterpolatingParam>
          </VectorParam>
         </Transformer>
         <Parameters>
          <VectorParam id="6702"  name="sourceCrop">
           <InterpolatingParam id="6703" interp="linr"  >
            <Keyframes>
            <Keyframe id="6704"  time="0/1" value="0" leadInLength="0/1"  />
            <Keyframe id="6705"  time="1254853606/2471603" value="0" leadInLength="0/1"  />
            </Keyframes>
           </InterpolatingParam>
           <InterpolatingParam id="6706" interp="linr"  >
            <Keyframes>
            <Keyframe id="6707"  time="0/1" value="0" leadInLength="0/1"  />
            <Keyframe id="6708"  time="1254853606/2471603" value="0" leadInLength="0/1"  />
            </Keyframes>
           </InterpolatingParam>
           <InterpolatingParam id="6709" interp="linr"  >
            <Keyframes>
            <Keyframe id="6710"  time="0/1" value="0" leadInLength="0/1"  />
            <Keyframe id="6711"  time="1254853606/2471603" value="0" leadInLength="0/1"  />
            </Keyframes>
           </InterpolatingParam>
           <InterpolatingParam id="6712" interp="linr"  >
            <Keyframes>
            <Keyframe id="6713"  time="0/1" value="0" leadInLength="0/1"  />
            <Keyframe id="6714"  time="1254853606/2471603" value="0" leadInLength="0/1"  />
            </Keyframes>
           </InterpolatingParam>
          </VectorParam>
          <VectorParam id="6715"  name="geometryCrop">
           <InterpolatingParam id="6716" interp="linr"  >
            <Keyframes>
            <Keyframe id="6717"  time="-9999999/1" value="0" leadInLength="0/1"  />
            <Keyframe id="6718"  time="45630330884939/742874884092" value="0" leadInLength="277529740605941/5200124188644"  interpolater="leadin-linr"  />
            </Keyframes>
           </InterpolatingParam>
           <InterpolatingParam id="6719" interp="linr"  >
            <Keyframes>
            <Keyframe id="6720"  time="-9999999/1" value="0" leadInLength="0/1"  />
            <Keyframe id="6721"  time="45630330884939/742874884092" value="0" leadInLength="277529740605941/5200124188644"  interpolater="leadin-linr"  />
            </Keyframes>
           </InterpolatingParam>
           <InterpolatingParam id="6722" interp="linr"  >
            <Keyframes>
            <Keyframe id="6723"  time="-9999999/1" value="0" leadInLength="0/1"  />
            <Keyframe id="6724"  time="45630330884939/742874884092" value="0" leadInLength="277529740605941/5200124188644"  interpolater="leadin-linr"  />
            </Keyframes>
           </InterpolatingParam>
           <InterpolatingParam id="6725" interp="linr"  >
            <Keyframes>
            <Keyframe id="6726"  time="-9999999/1" value="0" leadInLength="0/1"  />
            <Keyframe id="6727"  time="45630330884939/742874884092" value="0" leadInLength="277529740605941/5200124188644"  interpolater="leadin-linr"  />
            </Keyframes>
           </InterpolatingParam>
          </VectorParam>
          <InterpolatingParam id="6728" interp="linr"  name="opacity">
           <Keyframes>
           <Keyframe id="6729"  time="-9999999/1" value="1" leadInLength="0/1"  />
           <Keyframe id="6730"  time="45630330884939/742874884092" value="1" leadInLength="277529740605941/5200124188644"  interpolater="leadin-linr"  />
           </Keyframes>
          </InterpolatingParam>
          <InterpolatingParam id="6731" interp="linr"  time="0/1" value="1" leadInLength="0/1"  name="cursorOpacity"/>
          <InterpolatingParam id="6732" interp="linr"  time="0/1" value="1" leadInLength="0/1"  name="cursorScale"/>
          <InterpolatingParam id="6733" interp="linr"  name="volume">
           <Keyframes>
           <Keyframe id="6734"  time="-22945393112/107461" value="0" leadInLength="0/1"  />
           <Keyframe id="6735"  time="160857/2621" value="0" leadInLength="0/1"  />
           <Keyframe id="6736"  time="63/1" value="0" leadInLength="0/1"  />
           </Keyframes>
          </InterpolatingParam>
          <Parameter id="6737"  name="captions"/>
         </Parameters>
         <Attributes>
          <Attribute id="6738" value="" name="ident"/>
          <Attribute id="6739" value="0" name="mixToMono"/>
         </Attributes>
         <MetaData>
          <entry key="WinSubProjectDisplayName" val=""/>
         </MetaData>
         <ExtraData>
          <Entry key="ZoomPanBin">
           <ZoomPanBin id="6740"  >
            <ZoomPanKeyframes>
             <ZoomPanKeyframe id="6741" timeRangeEnd="-9999999/1" timeRangeDuration="0/1" interpolaterName="linr"  />
             <ZoomPanKeyframe id="6742" timeRangeEnd="45630330884939/742874884092" timeRangeDuration="277529740605941/5200124188644" interpolaterName="linr"  />
            </ZoomPanKeyframes>
           </ZoomPanBin>
          </Entry>
          <Entry key="CursorEffectBin">
           <CursorEffectBin id="6743"  >
            <CursorEffectKeyframes>
            </CursorEffectKeyframes>
           </CursorEffectBin>
          </Entry>
         </ExtraData>
         <GenericTrack id="6744"  >
          <Attributes>
           <Attribute id="6745" value="" name="ident"/>
           <Attribute id="6746" value="0" name="audioMuted"/>
           <Attribute id="6747" value="0" name="videoHidden"/>
          </Attributes>
          <MetaData>
           <entry key="IsLocked" val="False"/>
           <entry key="WinTrackHeight" val="0"/>
          </MetaData>
          <Medias>
           <IMFile id="6748" start="-213523" duration="213585" scalar="1/1" mediaStart="2318/1" mediaDuration="1/1" trackNumber="0" src="26" trimStartSum="-213523/1" >
            <Transformer>
             <VectorParam id="6749"  name="translation">
              <InterpolatingParam id="6750" interp="linr"  time="-9999999/1" value="0" leadInLength="0/1"  />
              <InterpolatingParam id="6751" interp="linr"  time="-9999999/1" value="0" leadInLength="0/1"  />
              <InterpolatingParam id="6752" interp="linr"  time="-9999999/1" value="0" leadInLength="0/1"  />
             </VectorParam>
             <VectorParam id="6753"  name="rotation">
              <InterpolatingParam id="6754" interp="linr"  time="-9999999/1" value="0" leadInLength="0/1"  />
              <InterpolatingParam id="6755" interp="linr"  time="-9999999/1" value="0" leadInLength="0/1"  />
              <InterpolatingParam id="6756" interp="linr"  time="-9999999/1" value="0" leadInLength="0/1"  />
             </VectorParam>
             <VectorParam id="6757"  name="shear">
              <InterpolatingParam id="6758" interp="linr"  time="-9999999/1" value="0" leadInLength="0/1"  />
              <InterpolatingParam id="6759" interp="linr"  time="-9999999/1" value="0" leadInLength="0/1"  />
              <InterpolatingParam id="6760" interp="linr"  time="-9999999/1" value="0" leadInLength="0/1"  />
             </VectorParam>
             <VectorParam id="6761"  name="scale">
              <InterpolatingParam id="6762" interp="linr"  time="-9999999/1" value="1" leadInLength="0/1"  />
              <InterpolatingParam id="6763" interp="linr"  time="-9999999/1" value="1" leadInLength="0/1"  />
              <InterpolatingParam id="6764" interp="linr"  time="-9999999/1" value="1" leadInLength="0/1"  />
             </VectorParam>
             <VectorParam id="6765"  name="anchor">
              <InterpolatingParam id="6766" interp="linr"  time="0/1" value="0" leadInLength="0/1"  />
              <InterpolatingParam id="6767" interp="linr"  time="0/1" value="0" leadInLength="0/1"  />
              <InterpolatingParam id="6768" interp="linr"  time="0/1" value="0" leadInLength="0/1"  />
             </VectorParam>
            </Transformer>
            <Parameters>
             <VectorParam id="6769"  name="sourceCrop">
              <InterpolatingParam id="6770" interp="linr"  time="0/1" value="0" leadInLength="0/1"  />
              <InterpolatingParam id="6771" interp="linr"  time="0/1" value="0" leadInLength="0/1"  />
              <InterpolatingParam id="6772" interp="linr"  time="0/1" value="0" leadInLength="0/1"  />
              <InterpolatingParam id="6773" interp="linr"  time="0/1" value="0" leadInLength="0/1"  />
             </VectorParam>
             <VectorParam id="6774"  name="geometryCrop">
              <InterpolatingParam id="6775" interp="linr"  time="-9999999/1" value="0" leadInLength="0/1"  />
              <InterpolatingParam id="6776" interp="linr"  time="-9999999/1" value="0" leadInLength="0/1"  />
              <InterpolatingParam id="6777" interp="linr"  time="-9999999/1" value="0" leadInLength="0/1"  />
              <InterpolatingParam id="6778" interp="linr"  time="-9999999/1" value="0" leadInLength="0/1"  />
             </VectorParam>
             <InterpolatingParam id="6779" interp="linr"  time="-9999999/1" value="1" leadInLength="0/1"  name="opacity"/>
            </Parameters>
            <Attributes>
             <Attribute id="6780" value="" name="ident"/>
            </Attributes>
            <MetaData>
             <entry key="WinSubProjectDisplayName" val=""/>
            </MetaData>
            <ExtraData>
             <Entry key="ZoomPanBin">
              <ZoomPanBin id="6781"  >
               <ZoomPanKeyframes>
                <ZoomPanKeyframe id="6782" timeRangeEnd="-9999999/1" timeRangeDuration="0/1" interpolaterName="linr"  />
               </ZoomPanKeyframes>
              </ZoomPanBin>
             </Entry>
            </ExtraData>
           </IMFile>
           <UnifiedMedia id="6783"  >
            <AMFile id="6784" start="62" duration="446" scalar="1/1" mediaStart="2317/1" mediaDuration="446/1" trackNumber="1" src="26" channelNumber="0" >
             <Parameters>
              <InterpolatingParam id="6785" interp="linr"  time="0/1" value="1" leadInLength="0/1"  name="volume"/>
              <Parameter id="6786"  name="captions"/>
             </Parameters>
             <Attributes>
              <Attribute id="6787" value="" name="ident"/>
              <Attribute id="6788" value="44100" name="sampleRate"/>
              <Attribute id="6789" value="16" name="bitDepth"/>
              <Attribute id="6790" value="1" name="gain"/>
              <Attribute id="6791" value="0" name="mixToMono"/>
             </Attributes>
            </AMFile>
            <VMFile id="6792" start="62" duration="446" scalar="1/1" mediaStart="2317/1" mediaDuration="446/1" trackNumber="0" src="26" >
             <Transformer>
              <VectorParam id="6793"  name="translation">
               <InterpolatingParam id="6794" interp="linr"  time="-9999999/1" value="0" leadInLength="0/1"  />
               <InterpolatingParam id="6795" interp="linr"  time="-9999999/1" value="0" leadInLength="0/1"  />
               <InterpolatingParam id="6796" interp="linr"  time="-9999999/1" value="0" leadInLength="0/1"  />
              </VectorParam>
              <VectorParam id="6797"  name="rotation">
               <InterpolatingParam id="6798" interp="linr"  time="-9999999/1" value="0" leadInLength="0/1"  />
               <InterpolatingParam id="6799" interp="linr"  time="-9999999/1" value="0" leadInLength="0/1"  />
               <InterpolatingParam id="6800" interp="linr"  time="-9999999/1" value="0" leadInLength="0/1"  />
              </VectorParam>
              <VectorParam id="6801"  name="shear">
               <InterpolatingParam id="6802" interp="linr"  time="-9999999/1" value="0" leadInLength="0/1"  />
               <InterpolatingParam id="6803" interp="linr"  time="-9999999/1" value="0" leadInLength="0/1"  />
               <InterpolatingParam id="6804" interp="linr"  time="-9999999/1" value="0" leadInLength="0/1"  />
              </VectorParam>
              <VectorParam id="6805"  name="scale">
               <InterpolatingParam id="6806" interp="linr"  time="-9999999/1" value="1" leadInLength="0/1"  />
               <InterpolatingParam id="6807" interp="linr"  time="-9999999/1" value="1" leadInLength="0/1"  />
               <InterpolatingParam id="6808" interp="linr"  time="-9999999/1" value="1" leadInLength="0/1"  />
              </VectorParam>
              <VectorParam id="6809"  name="anchor">
               <InterpolatingParam id="6810" interp="linr"  time="0/1" value="0" leadInLength="0/1"  />
               <InterpolatingParam id="6811" interp="linr"  time="0/1" value="0" leadInLength="0/1"  />
               <InterpolatingParam id="6812" interp="linr"  time="0/1" value="0" leadInLength="0/1"  />
              </VectorParam>
             </Transformer>
             <Parameters>
              <VectorParam id="6813"  name="sourceCrop">
               <InterpolatingParam id="6814" interp="linr"  time="0/1" value="0" leadInLength="0/1"  />
               <InterpolatingParam id="6815" interp="linr"  time="0/1" value="0" leadInLength="0/1"  />
               <InterpolatingParam id="6816" interp="linr"  time="0/1" value="0" leadInLength="0/1"  />
               <InterpolatingParam id="6817" interp="linr"  time="0/1" value="0" leadInLength="0/1"  />
              </VectorParam>
              <VectorParam id="6818"  name="geometryCrop">
               <InterpolatingParam id="6819" interp="linr"  time="-9999999/1" value="0" leadInLength="0/1"  />
               <InterpolatingParam id="6820" interp="linr"  time="-9999999/1" value="0" leadInLength="0/1"  />
               <InterpolatingParam id="6821" interp="linr"  time="-9999999/1" value="0" leadInLength="0/1"  />
               <InterpolatingParam id="6822" interp="linr"  time="-9999999/1" value="0" leadInLength="0/1"  />
              </VectorParam>
              <InterpolatingParam id="6823" interp="linr"  time="-9999999/1" value="1" leadInLength="0/1"  name="opacity"/>
             </Parameters>
             <Attributes>
              <Attribute id="6824" value="" name="ident"/>
             </Attributes>
             <ExtraData>
              <Entry key="ZoomPanBin">
               <ZoomPanBin id="6825"  >
                <ZoomPanKeyframes>
                 <ZoomPanKeyframe id="6826" timeRangeEnd="-9999999/1" timeRangeDuration="0/1" interpolaterName="linr"  />
                </ZoomPanKeyframes>
               </ZoomPanBin>
              </Entry>
             </ExtraData>
            </VMFile>
            <MetaData>
             <entry key="WinSubProjectDisplayName" val=""/>
            </MetaData>
           </UnifiedMedia>
           <IMFile id="6827" start="508" duration="33" scalar="1/1" mediaStart="2762/1" mediaDuration="1/1" trackNumber="0" src="26" trimStartSum="0/1" >
            <Transformer>
             <VectorParam id="6828"  name="translation">
              <InterpolatingParam id="6829" interp="linr"  time="-9999999/1" value="0" leadInLength="0/1"  />
              <InterpolatingParam id="6830" interp="linr"  time="-9999999/1" value="0" leadInLength="0/1"  />
              <InterpolatingParam id="6831" interp="linr"  time="-9999999/1" value="0" leadInLength="0/1"  />
             </VectorParam>
             <VectorParam id="6832"  name="rotation">
              <InterpolatingParam id="6833" interp="linr"  time="-9999999/1" value="0" leadInLength="0/1"  />
              <InterpolatingParam id="6834" interp="linr"  time="-9999999/1" value="0" leadInLength="0/1"  />
              <InterpolatingParam id="6835" interp="linr"  time="-9999999/1" value="0" leadInLength="0/1"  />
             </VectorParam>
             <VectorParam id="6836"  name="shear">
              <InterpolatingParam id="6837" interp="linr"  time="-9999999/1" value="0" leadInLength="0/1"  />
              <InterpolatingParam id="6838" interp="linr"  time="-9999999/1" value="0" leadInLength="0/1"  />
              <InterpolatingParam id="6839" interp="linr"  time="-9999999/1" value="0" leadInLength="0/1"  />
             </VectorParam>
             <VectorParam id="6840"  name="scale">
              <InterpolatingParam id="6841" interp="linr"  time="-9999999/1" value="1" leadInLength="0/1"  />
              <InterpolatingParam id="6842" interp="linr"  time="-9999999/1" value="1" leadInLength="0/1"  />
              <InterpolatingParam id="6843" interp="linr"  time="-9999999/1" value="1" leadInLength="0/1"  />
             </VectorParam>
             <VectorParam id="6844"  name="anchor">
              <InterpolatingParam id="6845" interp="linr"  time="0/1" value="0" leadInLength="0/1"  />
              <InterpolatingParam id="6846" interp="linr"  time="0/1" value="0" leadInLength="0/1"  />
              <InterpolatingParam id="6847" interp="linr"  time="0/1" value="0" leadInLength="0/1"  />
             </VectorParam>
            </Transformer>
            <Parameters>
             <VectorParam id="6848"  name="sourceCrop">
              <InterpolatingParam id="6849" interp="linr"  time="0/1" value="0" leadInLength="0/1"  />
              <InterpolatingParam id="6850" interp="linr"  time="0/1" value="0" leadInLength="0/1"  />
              <InterpolatingParam id="6851" interp="linr"  time="0/1" value="0" leadInLength="0/1"  />
              <InterpolatingParam id="6852" interp="linr"  time="0/1" value="0" leadInLength="0/1"  />
             </VectorParam>
             <VectorParam id="6853"  name="geometryCrop">
              <InterpolatingParam id="6854" interp="linr"  time="-9999999/1" value="0" leadInLength="0/1"  />
              <InterpolatingParam id="6855" interp="linr"  time="-9999999/1" value="0" leadInLength="0/1"  />
              <InterpolatingParam id="6856" interp="linr"  time="-9999999/1" value="0" leadInLength="0/1"  />
              <InterpolatingParam id="6857" interp="linr"  time="-9999999/1" value="0" leadInLength="0/1"  />
             </VectorParam>
             <InterpolatingParam id="6858" interp="linr"  time="-9999999/1" value="1" leadInLength="0/1"  name="opacity"/>
            </Parameters>
            <Attributes>
             <Attribute id="6859" value="" name="ident"/>
            </Attributes>
            <MetaData>
             <entry key="WinSubProjectDisplayName" val=""/>
            </MetaData>
            <ExtraData>
             <Entry key="ZoomPanBin">
              <ZoomPanBin id="6860"  >
               <ZoomPanKeyframes>
                <ZoomPanKeyframe id="6861" timeRangeEnd="-9999999/1" timeRangeDuration="0/1" interpolaterName="linr"  />
               </ZoomPanKeyframes>
              </ZoomPanBin>
             </Entry>
            </ExtraData>
           </IMFile>
           <UnifiedMedia id="6862"  >
            <AMFile id="6863" start="541" duration="190" scalar="1/1" mediaStart="2762/1" mediaDuration="190/1" trackNumber="1" src="26" channelNumber="0" >
             <Parameters>
              <InterpolatingParam id="6864" interp="linr"  time="0/1" value="1" leadInLength="0/1"  name="volume"/>
              <Parameter id="6865"  name="captions"/>
             </Parameters>
             <Attributes>
              <Attribute id="6866" value="" name="ident"/>
              <Attribute id="6867" value="44100" name="sampleRate"/>
              <Attribute id="6868" value="16" name="bitDepth"/>
              <Attribute id="6869" value="1" name="gain"/>
              <Attribute id="6870" value="0" name="mixToMono"/>
             </Attributes>
            </AMFile>
            <VMFile id="6871" start="541" duration="190" scalar="1/1" mediaStart="2762/1" mediaDuration="190/1" trackNumber="0" src="26" >
             <Transformer>
              <VectorParam id="6872"  name="translation">
               <InterpolatingParam id="6873" interp="linr"  time="-9999999/1" value="0" leadInLength="0/1"  />
               <InterpolatingParam id="6874" interp="linr"  time="-9999999/1" value="0" leadInLength="0/1"  />
               <InterpolatingParam id="6875" interp="linr"  time="-9999999/1" value="0" leadInLength="0/1"  />
              </VectorParam>
              <VectorParam id="6876"  name="rotation">
               <InterpolatingParam id="6877" interp="linr"  time="-9999999/1" value="0" leadInLength="0/1"  />
               <InterpolatingParam id="6878" interp="linr"  time="-9999999/1" value="0" leadInLength="0/1"  />
               <InterpolatingParam id="6879" interp="linr"  time="-9999999/1" value="0" leadInLength="0/1"  />
              </VectorParam>
              <VectorParam id="6880"  name="shear">
               <InterpolatingParam id="6881" interp="linr"  time="-9999999/1" value="0" leadInLength="0/1"  />
               <InterpolatingParam id="6882" interp="linr"  time="-9999999/1" value="0" leadInLength="0/1"  />
               <InterpolatingParam id="6883" interp="linr"  time="-9999999/1" value="0" leadInLength="0/1"  />
              </VectorParam>
              <VectorParam id="6884"  name="scale">
               <InterpolatingParam id="6885" interp="linr"  time="-9999999/1" value="1" leadInLength="0/1"  />
               <InterpolatingParam id="6886" interp="linr"  time="-9999999/1" value="1" leadInLength="0/1"  />
               <InterpolatingParam id="6887" interp="linr"  time="-9999999/1" value="1" leadInLength="0/1"  />
              </VectorParam>
              <VectorParam id="6888"  name="anchor">
               <InterpolatingParam id="6889" interp="linr"  time="0/1" value="0" leadInLength="0/1"  />
               <InterpolatingParam id="6890" interp="linr"  time="0/1" value="0" leadInLength="0/1"  />
               <InterpolatingParam id="6891" interp="linr"  time="0/1" value="0" leadInLength="0/1"  />
              </VectorParam>
             </Transformer>
             <Parameters>
              <VectorParam id="6892"  name="sourceCrop">
               <InterpolatingParam id="6893" interp="linr"  time="0/1" value="0" leadInLength="0/1"  />
               <InterpolatingParam id="6894" interp="linr"  time="0/1" value="0" leadInLength="0/1"  />
               <InterpolatingParam id="6895" interp="linr"  time="0/1" value="0" leadInLength="0/1"  />
               <InterpolatingParam id="6896" interp="linr"  time="0/1" value="0" leadInLength="0/1"  />
              </VectorParam>
              <VectorParam id="6897"  name="geometryCrop">
               <InterpolatingParam id="6898" interp="linr"  time="-9999999/1" value="0" leadInLength="0/1"  />
               <InterpolatingParam id="6899" interp="linr"  time="-9999999/1" value="0" leadInLength="0/1"  />
               <InterpolatingParam id="6900" interp="linr"  time="-9999999/1" value="0" leadInLength="0/1"  />
               <InterpolatingParam id="6901" interp="linr"  time="-9999999/1" value="0" leadInLength="0/1"  />
              </VectorParam>
              <InterpolatingParam id="6902" interp="linr"  time="-9999999/1" value="1" leadInLength="0/1"  name="opacity"/>
             </Parameters>
             <Attributes>
              <Attribute id="6903" value="" name="ident"/>
             </Attributes>
             <ExtraData>
              <Entry key="ZoomPanBin">
               <ZoomPanBin id="6904"  >
                <ZoomPanKeyframes>
                 <ZoomPanKeyframe id="6905" timeRangeEnd="-9999999/1" timeRangeDuration="0/1" interpolaterName="linr"  />
                </ZoomPanKeyframes>
               </ZoomPanBin>
              </Entry>
             </ExtraData>
            </VMFile>
            <MetaData>
             <entry key="WinSubProjectDisplayName" val=""/>
            </MetaData>
           </UnifiedMedia>
          </Medias>
         </GenericTrack>
        </StitchedMedia>
        <StitchedMedia id="6906" start="8429" duration="63" scalar="5200124188644/2861131346453" mediaStart="13982280261981/27513884596" mediaDuration="2861131346453/82541653788" minMediaStart="-22945393112/107461" >
         <Transformer>
          <VectorParam id="6907"  name="translation">
           <InterpolatingParam id="6908" interp="linr"  >
            <Keyframes>
            <Keyframe id="6909"  time="-9999999/1" value="11.957671957194174" leadInLength="0/1"  />
            <Keyframe id="6910"  time="45630330884939/742874884092" value="-28.042328043265275" leadInLength="277529740605941/5200124188644"  interpolater="leadin-linr"  />
            </Keyframes>
           </InterpolatingParam>
           <InterpolatingParam id="6911" interp="linr"  >
            <Keyframes>
            <Keyframe id="6912"  time="-9999999/1" value="-206.91666666655763" leadInLength="0/1"  />
            <Keyframe id="6913"  time="45630330884939/742874884092" value="-158.70238095254203" leadInLength="277529740605941/5200124188644"  interpolater="leadin-linr"  />
            </Keyframes>
           </InterpolatingParam>
           <InterpolatingParam id="6914" interp="linr"  >
            <Keyframes>
            <Keyframe id="6915"  time="-9999999/1" value="0" leadInLength="0/1"  />
            <Keyframe id="6916"  time="45630330884939/742874884092" value="0" leadInLength="277529740605941/5200124188644"  interpolater="leadin-linr"  />
            </Keyframes>
           </InterpolatingParam>
          </VectorParam>
          <VectorParam id="6917"  name="rotation">
           <InterpolatingParam id="6918" interp="linr"  >
            <Keyframes>
            <Keyframe id="6919"  time="-9999999/1" value="0" leadInLength="0/1"  />
            <Keyframe id="6920"  time="45630330884939/742874884092" value="0" leadInLength="277529740605941/5200124188644"  interpolater="leadin-linr"  />
            </Keyframes>
           </InterpolatingParam>
           <InterpolatingParam id="6921" interp="linr"  >
            <Keyframes>
            <Keyframe id="6922"  time="-9999999/1" value="0" leadInLength="0/1"  />
            <Keyframe id="6923"  time="45630330884939/742874884092" value="0" leadInLength="277529740605941/5200124188644"  interpolater="leadin-linr"  />
            </Keyframes>
           </InterpolatingParam>
           <InterpolatingParam id="6924" interp="linr"  >
            <Keyframes>
            <Keyframe id="6925"  time="-9999999/1" value="0" leadInLength="0/1"  />
            <Keyframe id="6926"  time="45630330884939/742874884092" value="0" leadInLength="277529740605941/5200124188644"  interpolater="leadin-linr"  />
            </Keyframes>
           </InterpolatingParam>
          </VectorParam>
          <VectorParam id="6927"  name="shear">
           <InterpolatingParam id="6928" interp="linr"  >
            <Keyframes>
            <Keyframe id="6929"  time="-9999999/1" value="0" leadInLength="0/1"  />
            <Keyframe id="6930"  time="45630330884939/742874884092" value="0" leadInLength="277529740605941/5200124188644"  interpolater="leadin-linr"  />
            </Keyframes>
           </InterpolatingParam>
           <InterpolatingParam id="6931" interp="linr"  >
            <Keyframes>
            <Keyframe id="6932"  time="-9999999/1" value="0" leadInLength="0/1"  />
            <Keyframe id="6933"  time="45630330884939/742874884092" value="0" leadInLength="277529740605941/5200124188644"  interpolater="leadin-linr"  />
            </Keyframes>
           </InterpolatingParam>
           <InterpolatingParam id="6934" interp="linr"  >
            <Keyframes>
            <Keyframe id="6935"  time="-9999999/1" value="0" leadInLength="0/1"  />
            <Keyframe id="6936"  time="45630330884939/742874884092" value="0" leadInLength="277529740605941/5200124188644"  interpolater="leadin-linr"  />
            </Keyframes>
           </InterpolatingParam>
          </VectorParam>
          <VectorParam id="6937"  name="scale">
           <InterpolatingParam id="6938" interp="linr"  >
            <Keyframes>
            <Keyframe id="6939"  time="-9999999/1" value="1.3882495590828201" leadInLength="0/1"  />
            <Keyframe id="6940"  time="45630330884939/742874884092" value="1.3822971781299738" leadInLength="277529740605941/5200124188644"  interpolater="leadin-linr"  />
            </Keyframes>
           </InterpolatingParam>
           <InterpolatingParam id="6941" interp="linr"  >
            <Keyframes>
            <Keyframe id="6942"  time="-9999999/1" value="1.3882495590828217" leadInLength="0/1"  />
            <Keyframe id="6943"  time="45630330884939/742874884092" value="1.3822971781299753" leadInLength="277529740605941/5200124188644"  interpolater="leadin-linr"  />
            </Keyframes>
           </InterpolatingParam>
           <InterpolatingParam id="6944" interp="linr"  >
            <Keyframes>
            <Keyframe id="6945"  time="-9999999/1" value="1" leadInLength="0/1"  />
            <Keyframe id="6946"  time="45630330884939/742874884092" value="1" leadInLength="277529740605941/5200124188644"  interpolater="leadin-linr"  />
            </Keyframes>
           </InterpolatingParam>
          </VectorParam>
          <VectorParam id="6947"  name="anchor">
           <InterpolatingParam id="6948" interp="linr"  >
            <Keyframes>
            <Keyframe id="6949"  time="0/1" value="0" leadInLength="0/1"  />
            <Keyframe id="6950"  time="1254853606/2471603" value="0" leadInLength="0/1"  />
            </Keyframes>
           </InterpolatingParam>
           <InterpolatingParam id="6951" interp="linr"  >
            <Keyframes>
            <Keyframe id="6952"  time="0/1" value="0" leadInLength="0/1"  />
            <Keyframe id="6953"  time="1254853606/2471603" value="0" leadInLength="0/1"  />
            </Keyframes>
           </InterpolatingParam>
           <InterpolatingParam id="6954" interp="linr"  >
            <Keyframes>
            <Keyframe id="6955"  time="0/1" value="0" leadInLength="0/1"  />
            <Keyframe id="6956"  time="1254853606/2471603" value="0" leadInLength="0/1"  />
            </Keyframes>
           </InterpolatingParam>
          </VectorParam>
         </Transformer>
         <Parameters>
          <VectorParam id="6957"  name="sourceCrop">
           <InterpolatingParam id="6958" interp="linr"  >
            <Keyframes>
            <Keyframe id="6959"  time="0/1" value="0" leadInLength="0/1"  />
            <Keyframe id="6960"  time="1254853606/2471603" value="0" leadInLength="0/1"  />
            </Keyframes>
           </InterpolatingParam>
           <InterpolatingParam id="6961" interp="linr"  >
            <Keyframes>
            <Keyframe id="6962"  time="0/1" value="0" leadInLength="0/1"  />
            <Keyframe id="6963"  time="1254853606/2471603" value="0" leadInLength="0/1"  />
            </Keyframes>
           </InterpolatingParam>
           <InterpolatingParam id="6964" interp="linr"  >
            <Keyframes>
            <Keyframe id="6965"  time="0/1" value="0" leadInLength="0/1"  />
            <Keyframe id="6966"  time="1254853606/2471603" value="0" leadInLength="0/1"  />
            </Keyframes>
           </InterpolatingParam>
           <InterpolatingParam id="6967" interp="linr"  >
            <Keyframes>
            <Keyframe id="6968"  time="0/1" value="0" leadInLength="0/1"  />
            <Keyframe id="6969"  time="1254853606/2471603" value="0" leadInLength="0/1"  />
            </Keyframes>
           </InterpolatingParam>
          </VectorParam>
          <VectorParam id="6970"  name="geometryCrop">
           <InterpolatingParam id="6971" interp="linr"  >
            <Keyframes>
            <Keyframe id="6972"  time="-9999999/1" value="0" leadInLength="0/1"  />
            <Keyframe id="6973"  time="45630330884939/742874884092" value="0" leadInLength="277529740605941/5200124188644"  interpolater="leadin-linr"  />
            </Keyframes>
           </InterpolatingParam>
           <InterpolatingParam id="6974" interp="linr"  >
            <Keyframes>
            <Keyframe id="6975"  time="-9999999/1" value="0" leadInLength="0/1"  />
            <Keyframe id="6976"  time="45630330884939/742874884092" value="0" leadInLength="277529740605941/5200124188644"  interpolater="leadin-linr"  />
            </Keyframes>
           </InterpolatingParam>
           <InterpolatingParam id="6977" interp="linr"  >
            <Keyframes>
            <Keyframe id="6978"  time="-9999999/1" value="0" leadInLength="0/1"  />
            <Keyframe id="6979"  time="45630330884939/742874884092" value="0" leadInLength="277529740605941/5200124188644"  interpolater="leadin-linr"  />
            </Keyframes>
           </InterpolatingParam>
           <InterpolatingParam id="6980" interp="linr"  >
            <Keyframes>
            <Keyframe id="6981"  time="-9999999/1" value="0" leadInLength="0/1"  />
            <Keyframe id="6982"  time="45630330884939/742874884092" value="0" leadInLength="277529740605941/5200124188644"  interpolater="leadin-linr"  />
            </Keyframes>
           </InterpolatingParam>
          </VectorParam>
          <InterpolatingParam id="6983" interp="linr"  name="opacity">
           <Keyframes>
           <Keyframe id="6984"  time="-9999999/1" value="1" leadInLength="0/1"  />
           <Keyframe id="6985"  time="45630330884939/742874884092" value="1" leadInLength="277529740605941/5200124188644"  interpolater="leadin-linr"  />
           </Keyframes>
          </InterpolatingParam>
          <InterpolatingParam id="6986" interp="linr"  time="0/1" value="1" leadInLength="0/1"  name="cursorOpacity"/>
          <InterpolatingParam id="6987" interp="linr"  time="0/1" value="1" leadInLength="0/1"  name="cursorScale"/>
          <InterpolatingParam id="6988" interp="linr"  name="volume">
           <Keyframes>
           <Keyframe id="6989"  time="-22945393112/107461" value="0" leadInLength="0/1"  />
           <Keyframe id="6990"  time="160857/2621" value="0" leadInLength="0/1"  />
           <Keyframe id="6991"  time="63/1" value="0" leadInLength="0/1"  />
           </Keyframes>
          </InterpolatingParam>
          <Parameter id="6992"  name="captions"/>
         </Parameters>
         <Attributes>
          <Attribute id="6993" value="" name="ident"/>
          <Attribute id="6994" value="0" name="mixToMono"/>
         </Attributes>
         <MetaData>
          <entry key="WinSubProjectDisplayName" val=""/>
         </MetaData>
         <ExtraData>
          <Entry key="ZoomPanBin">
           <ZoomPanBin id="6995"  >
            <ZoomPanKeyframes>
             <ZoomPanKeyframe id="6996" timeRangeEnd="-9999999/1" timeRangeDuration="0/1" interpolaterName="linr"  />
             <ZoomPanKeyframe id="6997" timeRangeEnd="45630330884939/742874884092" timeRangeDuration="277529740605941/5200124188644" interpolaterName="linr"  />
            </ZoomPanKeyframes>
           </ZoomPanBin>
          </Entry>
          <Entry key="CursorEffectBin">
           <CursorEffectBin id="6998"  >
            <CursorEffectKeyframes>
            </CursorEffectKeyframes>
           </CursorEffectBin>
          </Entry>
         </ExtraData>
         <GenericTrack id="6999"  >
          <Attributes>
           <Attribute id="7000" value="" name="ident"/>
           <Attribute id="7001" value="0" name="audioMuted"/>
           <Attribute id="7002" value="0" name="videoHidden"/>
          </Attributes>
          <MetaData>
           <entry key="IsLocked" val="False"/>
           <entry key="WinTrackHeight" val="0"/>
          </MetaData>
          <Medias>
           <IMFile id="7003" start="-213523" duration="213585" scalar="1/1" mediaStart="2318/1" mediaDuration="1/1" trackNumber="0" src="26" trimStartSum="-213523/1" >
            <Transformer>
             <VectorParam id="7004"  name="translation">
              <InterpolatingParam id="7005" interp="linr"  time="-9999999/1" value="0" leadInLength="0/1"  />
              <InterpolatingParam id="7006" interp="linr"  time="-9999999/1" value="0" leadInLength="0/1"  />
              <InterpolatingParam id="7007" interp="linr"  time="-9999999/1" value="0" leadInLength="0/1"  />
             </VectorParam>
             <VectorParam id="7008"  name="rotation">
              <InterpolatingParam id="7009" interp="linr"  time="-9999999/1" value="0" leadInLength="0/1"  />
              <InterpolatingParam id="7010" interp="linr"  time="-9999999/1" value="0" leadInLength="0/1"  />
              <InterpolatingParam id="7011" interp="linr"  time="-9999999/1" value="0" leadInLength="0/1"  />
             </VectorParam>
             <VectorParam id="7012"  name="shear">
              <InterpolatingParam id="7013" interp="linr"  time="-9999999/1" value="0" leadInLength="0/1"  />
              <InterpolatingParam id="7014" interp="linr"  time="-9999999/1" value="0" leadInLength="0/1"  />
              <InterpolatingParam id="7015" interp="linr"  time="-9999999/1" value="0" leadInLength="0/1"  />
             </VectorParam>
             <VectorParam id="7016"  name="scale">
              <InterpolatingParam id="7017" interp="linr"  time="-9999999/1" value="1" leadInLength="0/1"  />
              <InterpolatingParam id="7018" interp="linr"  time="-9999999/1" value="1" leadInLength="0/1"  />
              <InterpolatingParam id="7019" interp="linr"  time="-9999999/1" value="1" leadInLength="0/1"  />
             </VectorParam>
             <VectorParam id="7020"  name="anchor">
              <InterpolatingParam id="7021" interp="linr"  time="0/1" value="0" leadInLength="0/1"  />
              <InterpolatingParam id="7022" interp="linr"  time="0/1" value="0" leadInLength="0/1"  />
              <InterpolatingParam id="7023" interp="linr"  time="0/1" value="0" leadInLength="0/1"  />
             </VectorParam>
            </Transformer>
            <Parameters>
             <VectorParam id="7024"  name="sourceCrop">
              <InterpolatingParam id="7025" interp="linr"  time="0/1" value="0" leadInLength="0/1"  />
              <InterpolatingParam id="7026" interp="linr"  time="0/1" value="0" leadInLength="0/1"  />
              <InterpolatingParam id="7027" interp="linr"  time="0/1" value="0" leadInLength="0/1"  />
              <InterpolatingParam id="7028" interp="linr"  time="0/1" value="0" leadInLength="0/1"  />
             </VectorParam>
             <VectorParam id="7029"  name="geometryCrop">
              <InterpolatingParam id="7030" interp="linr"  time="-9999999/1" value="0" leadInLength="0/1"  />
              <InterpolatingParam id="7031" interp="linr"  time="-9999999/1" value="0" leadInLength="0/1"  />
              <InterpolatingParam id="7032" interp="linr"  time="-9999999/1" value="0" leadInLength="0/1"  />
              <InterpolatingParam id="7033" interp="linr"  time="-9999999/1" value="0" leadInLength="0/1"  />
             </VectorParam>
             <InterpolatingParam id="7034" interp="linr"  time="-9999999/1" value="1" leadInLength="0/1"  name="opacity"/>
            </Parameters>
            <Attributes>
             <Attribute id="7035" value="" name="ident"/>
            </Attributes>
            <MetaData>
             <entry key="WinSubProjectDisplayName" val=""/>
            </MetaData>
            <ExtraData>
             <Entry key="ZoomPanBin">
              <ZoomPanBin id="7036"  >
               <ZoomPanKeyframes>
                <ZoomPanKeyframe id="7037" timeRangeEnd="-9999999/1" timeRangeDuration="0/1" interpolaterName="linr"  />
               </ZoomPanKeyframes>
              </ZoomPanBin>
             </Entry>
            </ExtraData>
           </IMFile>
           <UnifiedMedia id="7038"  >
            <AMFile id="7039" start="62" duration="446" scalar="1/1" mediaStart="2317/1" mediaDuration="446/1" trackNumber="1" src="26" channelNumber="0" >
             <Parameters>
              <InterpolatingParam id="7040" interp="linr"  time="0/1" value="1" leadInLength="0/1"  name="volume"/>
              <Parameter id="7041"  name="captions"/>
             </Parameters>
             <Attributes>
              <Attribute id="7042" value="" name="ident"/>
              <Attribute id="7043" value="44100" name="sampleRate"/>
              <Attribute id="7044" value="16" name="bitDepth"/>
              <Attribute id="7045" value="1" name="gain"/>
              <Attribute id="7046" value="0" name="mixToMono"/>
             </Attributes>
            </AMFile>
            <VMFile id="7047" start="62" duration="446" scalar="1/1" mediaStart="2317/1" mediaDuration="446/1" trackNumber="0" src="26" >
             <Transformer>
              <VectorParam id="7048"  name="translation">
               <InterpolatingParam id="7049" interp="linr"  time="-9999999/1" value="0" leadInLength="0/1"  />
               <InterpolatingParam id="7050" interp="linr"  time="-9999999/1" value="0" leadInLength="0/1"  />
               <InterpolatingParam id="7051" interp="linr"  time="-9999999/1" value="0" leadInLength="0/1"  />
              </VectorParam>
              <VectorParam id="7052"  name="rotation">
               <InterpolatingParam id="7053" interp="linr"  time="-9999999/1" value="0" leadInLength="0/1"  />
               <InterpolatingParam id="7054" interp="linr"  time="-9999999/1" value="0" leadInLength="0/1"  />
               <InterpolatingParam id="7055" interp="linr"  time="-9999999/1" value="0" leadInLength="0/1"  />
              </VectorParam>
              <VectorParam id="7056"  name="shear">
               <InterpolatingParam id="7057" interp="linr"  time="-9999999/1" value="0" leadInLength="0/1"  />
               <InterpolatingParam id="7058" interp="linr"  time="-9999999/1" value="0" leadInLength="0/1"  />
               <InterpolatingParam id="7059" interp="linr"  time="-9999999/1" value="0" leadInLength="0/1"  />
              </VectorParam>
              <VectorParam id="7060"  name="scale">
               <InterpolatingParam id="7061" interp="linr"  time="-9999999/1" value="1" leadInLength="0/1"  />
               <InterpolatingParam id="7062" interp="linr"  time="-9999999/1" value="1" leadInLength="0/1"  />
               <InterpolatingParam id="7063" interp="linr"  time="-9999999/1" value="1" leadInLength="0/1"  />
              </VectorParam>
              <VectorParam id="7064"  name="anchor">
               <InterpolatingParam id="7065" interp="linr"  time="0/1" value="0" leadInLength="0/1"  />
               <InterpolatingParam id="7066" interp="linr"  time="0/1" value="0" leadInLength="0/1"  />
               <InterpolatingParam id="7067" interp="linr"  time="0/1" value="0" leadInLength="0/1"  />
              </VectorParam>
             </Transformer>
             <Parameters>
              <VectorParam id="7068"  name="sourceCrop">
               <InterpolatingParam id="7069" interp="linr"  time="0/1" value="0" leadInLength="0/1"  />
               <InterpolatingParam id="7070" interp="linr"  time="0/1" value="0" leadInLength="0/1"  />
               <InterpolatingParam id="7071" interp="linr"  time="0/1" value="0" leadInLength="0/1"  />
               <InterpolatingParam id="7072" interp="linr"  time="0/1" value="0" leadInLength="0/1"  />
              </VectorParam>
              <VectorParam id="7073"  name="geometryCrop">
               <InterpolatingParam id="7074" interp="linr"  time="-9999999/1" value="0" leadInLength="0/1"  />
               <InterpolatingParam id="7075" interp="linr"  time="-9999999/1" value="0" leadInLength="0/1"  />
               <InterpolatingParam id="7076" interp="linr"  time="-9999999/1" value="0" leadInLength="0/1"  />
               <InterpolatingParam id="7077" interp="linr"  time="-9999999/1" value="0" leadInLength="0/1"  />
              </VectorParam>
              <InterpolatingParam id="7078" interp="linr"  time="-9999999/1" value="1" leadInLength="0/1"  name="opacity"/>
             </Parameters>
             <Attributes>
              <Attribute id="7079" value="" name="ident"/>
             </Attributes>
             <ExtraData>
              <Entry key="ZoomPanBin">
               <ZoomPanBin id="7080"  >
                <ZoomPanKeyframes>
                 <ZoomPanKeyframe id="7081" timeRangeEnd="-9999999/1" timeRangeDuration="0/1" interpolaterName="linr"  />
                </ZoomPanKeyframes>
               </ZoomPanBin>
              </Entry>
             </ExtraData>
            </VMFile>
            <MetaData>
             <entry key="WinSubProjectDisplayName" val=""/>
            </MetaData>
           </UnifiedMedia>
           <IMFile id="7082" start="508" duration="33" scalar="1/1" mediaStart="2762/1" mediaDuration="1/1" trackNumber="0" src="26" trimStartSum="0/1" >
            <Transformer>
             <VectorParam id="7083"  name="translation">
              <InterpolatingParam id="7084" interp="linr"  time="-9999999/1" value="0" leadInLength="0/1"  />
              <InterpolatingParam id="7085" interp="linr"  time="-9999999/1" value="0" leadInLength="0/1"  />
              <InterpolatingParam id="7086" interp="linr"  time="-9999999/1" value="0" leadInLength="0/1"  />
             </VectorParam>
             <VectorParam id="7087"  name="rotation">
              <InterpolatingParam id="7088" interp="linr"  time="-9999999/1" value="0" leadInLength="0/1"  />
              <InterpolatingParam id="7089" interp="linr"  time="-9999999/1" value="0" leadInLength="0/1"  />
              <InterpolatingParam id="7090" interp="linr"  time="-9999999/1" value="0" leadInLength="0/1"  />
             </VectorParam>
             <VectorParam id="7091"  name="shear">
              <InterpolatingParam id="7092" interp="linr"  time="-9999999/1" value="0" leadInLength="0/1"  />
              <InterpolatingParam id="7093" interp="linr"  time="-9999999/1" value="0" leadInLength="0/1"  />
              <InterpolatingParam id="7094" interp="linr"  time="-9999999/1" value="0" leadInLength="0/1"  />
             </VectorParam>
             <VectorParam id="7095"  name="scale">
              <InterpolatingParam id="7096" interp="linr"  time="-9999999/1" value="1" leadInLength="0/1"  />
              <InterpolatingParam id="7097" interp="linr"  time="-9999999/1" value="1" leadInLength="0/1"  />
              <InterpolatingParam id="7098" interp="linr"  time="-9999999/1" value="1" leadInLength="0/1"  />
             </VectorParam>
             <VectorParam id="7099"  name="anchor">
              <InterpolatingParam id="7100" interp="linr"  time="0/1" value="0" leadInLength="0/1"  />
              <InterpolatingParam id="7101" interp="linr"  time="0/1" value="0" leadInLength="0/1"  />
              <InterpolatingParam id="7102" interp="linr"  time="0/1" value="0" leadInLength="0/1"  />
             </VectorParam>
            </Transformer>
            <Parameters>
             <VectorParam id="7103"  name="sourceCrop">
              <InterpolatingParam id="7104" interp="linr"  time="0/1" value="0" leadInLength="0/1"  />
              <InterpolatingParam id="7105" interp="linr"  time="0/1" value="0" leadInLength="0/1"  />
              <InterpolatingParam id="7106" interp="linr"  time="0/1" value="0" leadInLength="0/1"  />
              <InterpolatingParam id="7107" interp="linr"  time="0/1" value="0" leadInLength="0/1"  />
             </VectorParam>
             <VectorParam id="7108"  name="geometryCrop">
              <InterpolatingParam id="7109" interp="linr"  time="-9999999/1" value="0" leadInLength="0/1"  />
              <InterpolatingParam id="7110" interp="linr"  time="-9999999/1" value="0" leadInLength="0/1"  />
              <InterpolatingParam id="7111" interp="linr"  time="-9999999/1" value="0" leadInLength="0/1"  />
              <InterpolatingParam id="7112" interp="linr"  time="-9999999/1" value="0" leadInLength="0/1"  />
             </VectorParam>
             <InterpolatingParam id="7113" interp="linr"  time="-9999999/1" value="1" leadInLength="0/1"  name="opacity"/>
            </Parameters>
            <Attributes>
             <Attribute id="7114" value="" name="ident"/>
            </Attributes>
            <MetaData>
             <entry key="WinSubProjectDisplayName" val=""/>
            </MetaData>
            <ExtraData>
             <Entry key="ZoomPanBin">
              <ZoomPanBin id="7115"  >
               <ZoomPanKeyframes>
                <ZoomPanKeyframe id="7116" timeRangeEnd="-9999999/1" timeRangeDuration="0/1" interpolaterName="linr"  />
               </ZoomPanKeyframes>
              </ZoomPanBin>
             </Entry>
            </ExtraData>
           </IMFile>
           <UnifiedMedia id="7117"  >
            <AMFile id="7118" start="541" duration="190" scalar="1/1" mediaStart="2762/1" mediaDuration="190/1" trackNumber="1" src="26" channelNumber="0" >
             <Parameters>
              <InterpolatingParam id="7119" interp="linr"  time="0/1" value="1" leadInLength="0/1"  name="volume"/>
              <Parameter id="7120"  name="captions"/>
             </Parameters>
             <Attributes>
              <Attribute id="7121" value="" name="ident"/>
              <Attribute id="7122" value="44100" name="sampleRate"/>
              <Attribute id="7123" value="16" name="bitDepth"/>
              <Attribute id="7124" value="1" name="gain"/>
              <Attribute id="7125" value="0" name="mixToMono"/>
             </Attributes>
            </AMFile>
            <VMFile id="7126" start="541" duration="190" scalar="1/1" mediaStart="2762/1" mediaDuration="190/1" trackNumber="0" src="26" >
             <Transformer>
              <VectorParam id="7127"  name="translation">
               <InterpolatingParam id="7128" interp="linr"  time="-9999999/1" value="0" leadInLength="0/1"  />
               <InterpolatingParam id="7129" interp="linr"  time="-9999999/1" value="0" leadInLength="0/1"  />
               <InterpolatingParam id="7130" interp="linr"  time="-9999999/1" value="0" leadInLength="0/1"  />
              </VectorParam>
              <VectorParam id="7131"  name="rotation">
               <InterpolatingParam id="7132" interp="linr"  time="-9999999/1" value="0" leadInLength="0/1"  />
               <InterpolatingParam id="7133" interp="linr"  time="-9999999/1" value="0" leadInLength="0/1"  />
               <InterpolatingParam id="7134" interp="linr"  time="-9999999/1" value="0" leadInLength="0/1"  />
              </VectorParam>
              <VectorParam id="7135"  name="shear">
               <InterpolatingParam id="7136" interp="linr"  time="-9999999/1" value="0" leadInLength="0/1"  />
               <InterpolatingParam id="7137" interp="linr"  time="-9999999/1" value="0" leadInLength="0/1"  />
               <InterpolatingParam id="7138" interp="linr"  time="-9999999/1" value="0" leadInLength="0/1"  />
              </VectorParam>
              <VectorParam id="7139"  name="scale">
               <InterpolatingParam id="7140" interp="linr"  time="-9999999/1" value="1" leadInLength="0/1"  />
               <InterpolatingParam id="7141" interp="linr"  time="-9999999/1" value="1" leadInLength="0/1"  />
               <InterpolatingParam id="7142" interp="linr"  time="-9999999/1" value="1" leadInLength="0/1"  />
              </VectorParam>
              <VectorParam id="7143"  name="anchor">
               <InterpolatingParam id="7144" interp="linr"  time="0/1" value="0" leadInLength="0/1"  />
               <InterpolatingParam id="7145" interp="linr"  time="0/1" value="0" leadInLength="0/1"  />
               <InterpolatingParam id="7146" interp="linr"  time="0/1" value="0" leadInLength="0/1"  />
              </VectorParam>
             </Transformer>
             <Parameters>
              <VectorParam id="7147"  name="sourceCrop">
               <InterpolatingParam id="7148" interp="linr"  time="0/1" value="0" leadInLength="0/1"  />
               <InterpolatingParam id="7149" interp="linr"  time="0/1" value="0" leadInLength="0/1"  />
               <InterpolatingParam id="7150" interp="linr"  time="0/1" value="0" leadInLength="0/1"  />
               <InterpolatingParam id="7151" interp="linr"  time="0/1" value="0" leadInLength="0/1"  />
              </VectorParam>
              <VectorParam id="7152"  name="geometryCrop">
               <InterpolatingParam id="7153" interp="linr"  time="-9999999/1" value="0" leadInLength="0/1"  />
               <InterpolatingParam id="7154" interp="linr"  time="-9999999/1" value="0" leadInLength="0/1"  />
               <InterpolatingParam id="7155" interp="linr"  time="-9999999/1" value="0" leadInLength="0/1"  />
               <InterpolatingParam id="7156" interp="linr"  time="-9999999/1" value="0" leadInLength="0/1"  />
              </VectorParam>
              <InterpolatingParam id="7157" interp="linr"  time="-9999999/1" value="1" leadInLength="0/1"  name="opacity"/>
             </Parameters>
             <Attributes>
              <Attribute id="7158" value="" name="ident"/>
             </Attributes>
             <ExtraData>
              <Entry key="ZoomPanBin">
               <ZoomPanBin id="7159"  >
                <ZoomPanKeyframes>
                 <ZoomPanKeyframe id="7160" timeRangeEnd="-9999999/1" timeRangeDuration="0/1" interpolaterName="linr"  />
                </ZoomPanKeyframes>
               </ZoomPanBin>
              </Entry>
             </ExtraData>
            </VMFile>
            <MetaData>
             <entry key="WinSubProjectDisplayName" val=""/>
            </MetaData>
           </UnifiedMedia>
          </Medias>
         </GenericTrack>
        </StitchedMedia>
        <VMFile id="7161" start="8493" duration="148" scalar="9007199254740992/18300570016637655" mediaStart="36028797018963968/4179908750635" mediaDuration="677121090615593235/2251799813685248" trackNumber="0" src="4" >
         <Transformer>
          <VectorParam id="7162"  name="translation">
           <InterpolatingParam id="7163" interp="linr"  >
            <Keyframes>
            <Keyframe id="7164"  time="-9999999/1" value="-7.1167960413731635e-011" leadInLength="0/1"  interpolater="leadin-linr"  />
            <Keyframe id="7165"  time="1152921504606846976/366717721562809" value="5.5654680863881367e-010" leadInLength="1152921504606846976/5731782449161017"  interpolater="leadin-linr"  />
            <Keyframe id="7166"  time="1152921504606846976/241943692210127" value="7.4408035288797691e-011" leadInLength="144115188075855872/4728720520560593"  interpolater="leadin-linr"  />
            <Keyframe id="7167"  time="288230376151711744/49336893193065" value="637.46031746043502" leadInLength="144115188075855872/5066486272023893"  interpolater="leadin-linr"  />
            <Keyframe id="7168"  time="1152921504606846976/190267223926189" value="-1.5187323977675214e-010" leadInLength="72057594037927936/2728107992627485"  interpolater="leadin-linr"  />
            </Keyframes>
           </InterpolatingParam>
           <InterpolatingParam id="7169" interp="linr"  >
            <Keyframes>
            <Keyframe id="7170"  time="-9999999/1" value="4.2888359530479647e-011" leadInLength="0/1"  interpolater="leadin-linr"  />
            <Keyframe id="7171"  time="1152921504606846976/366717721562809" value="-2.7188917783860234e-011" leadInLength="1152921504606846976/5731782449161017"  interpolater="leadin-linr"  />
            <Keyframe id="7172"  time="1152921504606846976/241943692210127" value="1.3588419278676156e-010" leadInLength="144115188075855872/4728720520560593"  interpolater="leadin-linr"  />
            <Keyframe id="7173"  time="288230376151711744/49336893193065" value="-250.00000000029172" leadInLength="144115188075855872/5066486272023893"  interpolater="leadin-linr"  />
            <Keyframe id="7174"  time="1152921504606846976/190267223926189" value="5.541285948612186e-011" leadInLength="72057594037927936/2728107992627485"  interpolater="leadin-linr"  />
            </Keyframes>
           </InterpolatingParam>
           <InterpolatingParam id="7175" interp="linr"  >
            <Keyframes>
            <Keyframe id="7176"  time="-9999999/1" value="0" leadInLength="0/1"  interpolater="leadin-linr"  />
            <Keyframe id="7177"  time="1152921504606846976/366717721562809" value="-6.8212102632977114e-010" leadInLength="1152921504606846976/5731782449161017"  interpolater="leadin-linr"  />
            <Keyframe id="7178"  time="1152921504606846976/241943692210127" value="-3.4106051316488526e-010" leadInLength="144115188075855872/4728720520560593"  interpolater="leadin-linr"  />
            <Keyframe id="7179"  time="288230376151711744/49336893193065" value="-3.4106051316488526e-010" leadInLength="144115188075855872/5066486272023893"  interpolater="leadin-linr"  />
            <Keyframe id="7180"  time="1152921504606846976/190267223926189" value="4.1359030627651384e-025" leadInLength="72057594037927936/2728107992627485"  interpolater="leadin-linr"  />
            </Keyframes>
           </InterpolatingParam>
          </VectorParam>
          <VectorParam id="7181"  name="rotation">
           <InterpolatingParam id="7182" interp="linr"  >
            <Keyframes>
            <Keyframe id="7183"  time="-9999999/1" value="0" leadInLength="0/1"  interpolater="leadin-linr"  />
            <Keyframe id="7184"  time="1152921504606846976/366717721562809" value="0" leadInLength="1152921504606846976/5731782449161017"  interpolater="leadin-linr"  />
            <Keyframe id="7185"  time="1152921504606846976/241943692210127" value="0" leadInLength="144115188075855872/4728720520560593"  interpolater="leadin-linr"  />
            <Keyframe id="7186"  time="288230376151711744/49336893193065" value="0" leadInLength="144115188075855872/5066486272023893"  interpolater="leadin-linr"  />
            <Keyframe id="7187"  time="1152921504606846976/190267223926189" value="0" leadInLength="72057594037927936/2728107992627485"  interpolater="leadin-linr"  />
            </Keyframes>
           </InterpolatingParam>
           <InterpolatingParam id="7188" interp="linr"  >
            <Keyframes>
            <Keyframe id="7189"  time="-9999999/1" value="0" leadInLength="0/1"  interpolater="leadin-linr"  />
            <Keyframe id="7190"  time="1152921504606846976/366717721562809" value="0" leadInLength="1152921504606846976/5731782449161017"  interpolater="leadin-linr"  />
            <Keyframe id="7191"  time="1152921504606846976/241943692210127" value="0" leadInLength="144115188075855872/4728720520560593"  interpolater="leadin-linr"  />
            <Keyframe id="7192"  time="288230376151711744/49336893193065" value="0" leadInLength="144115188075855872/5066486272023893"  interpolater="leadin-linr"  />
            <Keyframe id="7193"  time="1152921504606846976/190267223926189" value="0" leadInLength="72057594037927936/2728107992627485"  interpolater="leadin-linr"  />
            </Keyframes>
           </InterpolatingParam>
           <InterpolatingParam id="7194" interp="linr"  >
            <Keyframes>
            <Keyframe id="7195"  time="-9999999/1" value="0" leadInLength="0/1"  interpolater="leadin-linr"  />
            <Keyframe id="7196"  time="1152921504606846976/366717721562809" value="0" leadInLength="1152921504606846976/5731782449161017"  interpolater="leadin-linr"  />
            <Keyframe id="7197"  time="1152921504606846976/241943692210127" value="0" leadInLength="144115188075855872/4728720520560593"  interpolater="leadin-linr"  />
            <Keyframe id="7198"  time="288230376151711744/49336893193065" value="0" leadInLength="144115188075855872/5066486272023893"  interpolater="leadin-linr"  />
            <Keyframe id="7199"  time="1152921504606846976/190267223926189" value="0" leadInLength="72057594037927936/2728107992627485"  interpolater="leadin-linr"  />
            </Keyframes>
           </InterpolatingParam>
          </VectorParam>
          <VectorParam id="7200"  name="shear">
           <InterpolatingParam id="7201" interp="linr"  >
            <Keyframes>
            <Keyframe id="7202"  time="-9999999/1" value="0" leadInLength="0/1"  interpolater="leadin-linr"  />
            <Keyframe id="7203"  time="1152921504606846976/366717721562809" value="0" leadInLength="1152921504606846976/5731782449161017"  interpolater="leadin-linr"  />
            <Keyframe id="7204"  time="1152921504606846976/241943692210127" value="0" leadInLength="144115188075855872/4728720520560593"  interpolater="leadin-linr"  />
            <Keyframe id="7205"  time="288230376151711744/49336893193065" value="0" leadInLength="144115188075855872/5066486272023893"  interpolater="leadin-linr"  />
            <Keyframe id="7206"  time="1152921504606846976/190267223926189" value="0" leadInLength="72057594037927936/2728107992627485"  interpolater="leadin-linr"  />
            </Keyframes>
           </InterpolatingParam>
           <InterpolatingParam id="7207" interp="linr"  >
            <Keyframes>
            <Keyframe id="7208"  time="-9999999/1" value="0" leadInLength="0/1"  interpolater="leadin-linr"  />
            <Keyframe id="7209"  time="1152921504606846976/366717721562809" value="0" leadInLength="1152921504606846976/5731782449161017"  interpolater="leadin-linr"  />
            <Keyframe id="7210"  time="1152921504606846976/241943692210127" value="0" leadInLength="144115188075855872/4728720520560593"  interpolater="leadin-linr"  />
            <Keyframe id="7211"  time="288230376151711744/49336893193065" value="0" leadInLength="144115188075855872/5066486272023893"  interpolater="leadin-linr"  />
            <Keyframe id="7212"  time="1152921504606846976/190267223926189" value="0" leadInLength="72057594037927936/2728107992627485"  interpolater="leadin-linr"  />
            </Keyframes>
           </InterpolatingParam>
           <InterpolatingParam id="7213" interp="linr"  >
            <Keyframes>
            <Keyframe id="7214"  time="-9999999/1" value="0" leadInLength="0/1"  interpolater="leadin-linr"  />
            <Keyframe id="7215"  time="1152921504606846976/366717721562809" value="0" leadInLength="1152921504606846976/5731782449161017"  interpolater="leadin-linr"  />
            <Keyframe id="7216"  time="1152921504606846976/241943692210127" value="0" leadInLength="144115188075855872/4728720520560593"  interpolater="leadin-linr"  />
            <Keyframe id="7217"  time="288230376151711744/49336893193065" value="0" leadInLength="144115188075855872/5066486272023893"  interpolater="leadin-linr"  />
            <Keyframe id="7218"  time="1152921504606846976/190267223926189" value="0" leadInLength="72057594037927936/2728107992627485"  interpolater="leadin-linr"  />
            </Keyframes>
           </InterpolatingParam>
          </VectorParam>
          <VectorParam id="7219"  name="scale">
           <InterpolatingParam id="7220" interp="linr"  >
            <Keyframes>
            <Keyframe id="7221"  time="-9999999/1" value="0.66666666666665186" leadInLength="0/1"  interpolater="leadin-linr"  />
            <Keyframe id="7222"  time="1152921504606846976/366717721562809" value="0.66666666666705388" leadInLength="1152921504606846976/5731782449161017"  interpolater="leadin-linr"  />
            <Keyframe id="7223"  time="1152921504606846976/241943692210127" value="0.66666666666655605" leadInLength="144115188075855872/4728720520560593"  interpolater="leadin-linr"  />
            <Keyframe id="7224"  time="288230376151711744/49336893193065" value="1.3306878306877652" leadInLength="144115188075855872/5066486272023893"  interpolater="leadin-linr"  />
            <Keyframe id="7225"  time="1152921504606846976/190267223926189" value="0.66666666666645868" leadInLength="72057594037927936/2728107992627485"  interpolater="leadin-linr"  />
            </Keyframes>
           </InterpolatingParam>
           <InterpolatingParam id="7226" interp="linr"  >
            <Keyframes>
            <Keyframe id="7227"  time="-9999999/1" value="0.6666666666666522" leadInLength="0/1"  interpolater="leadin-linr"  />
            <Keyframe id="7228"  time="1152921504606846976/366717721562809" value="0.66666666666705443" leadInLength="1152921504606846976/5731782449161017"  interpolater="leadin-linr"  />
            <Keyframe id="7229"  time="1152921504606846976/241943692210127" value="0.66666666666655749" leadInLength="144115188075855872/4728720520560593"  interpolater="leadin-linr"  />
            <Keyframe id="7230"  time="288230376151711744/49336893193065" value="1.3306878306877681" leadInLength="144115188075855872/5066486272023893"  interpolater="leadin-linr"  />
            <Keyframe id="7231"  time="1152921504606846976/190267223926189" value="0.66666666666646024" leadInLength="72057594037927936/2728107992627485"  interpolater="leadin-linr"  />
            </Keyframes>
           </InterpolatingParam>
           <InterpolatingParam id="7232" interp="linr"  >
            <Keyframes>
            <Keyframe id="7233"  time="-9999999/1" value="1" leadInLength="0/1"  interpolater="leadin-linr"  />
            <Keyframe id="7234"  time="1152921504606846976/366717721562809" value="1" leadInLength="1152921504606846976/5731782449161017"  interpolater="leadin-linr"  />
            <Keyframe id="7235"  time="1152921504606846976/241943692210127" value="1" leadInLength="144115188075855872/4728720520560593"  interpolater="leadin-linr"  />
            <Keyframe id="7236"  time="288230376151711744/49336893193065" value="1" leadInLength="144115188075855872/5066486272023893"  interpolater="leadin-linr"  />
            <Keyframe id="7237"  time="1152921504606846976/190267223926189" value="1" leadInLength="72057594037927936/2728107992627485"  interpolater="leadin-linr"  />
            </Keyframes>
           </InterpolatingParam>
          </VectorParam>
          <VectorParam id="7238"  name="anchor">
           <InterpolatingParam id="7239" interp="linr"  time="0/1" value="0" leadInLength="0/1"  />
           <InterpolatingParam id="7240" interp="linr"  time="0/1" value="0" leadInLength="0/1"  />
           <InterpolatingParam id="7241" interp="linr"  time="0/1" value="0" leadInLength="0/1"  />
          </VectorParam>
         </Transformer>
         <Parameters>
          <VectorParam id="7242"  name="sourceCrop">
           <InterpolatingParam id="7243" interp="linr"  time="0/1" value="0" leadInLength="0/1"  />
           <InterpolatingParam id="7244" interp="linr"  time="0/1" value="0" leadInLength="0/1"  />
           <InterpolatingParam id="7245" interp="linr"  time="0/1" value="0" leadInLength="0/1"  />
           <InterpolatingParam id="7246" interp="linr"  time="0/1" value="0" leadInLength="0/1"  />
          </VectorParam>
          <VectorParam id="7247"  name="geometryCrop">
           <InterpolatingParam id="7248" interp="linr"  >
            <Keyframes>
            <Keyframe id="7249"  time="-9999999/1" value="0" leadInLength="0/1"  interpolater="leadin-linr"  />
            <Keyframe id="7250"  time="1152921504606846976/366717721562809" value="0" leadInLength="1152921504606846976/5731782449161017"  interpolater="leadin-linr"  />
            <Keyframe id="7251"  time="1152921504606846976/241943692210127" value="0" leadInLength="144115188075855872/4728720520560593"  interpolater="leadin-linr"  />
            <Keyframe id="7252"  time="288230376151711744/49336893193065" value="0" leadInLength="144115188075855872/5066486272023893"  interpolater="leadin-linr"  />
            <Keyframe id="7253"  time="1152921504606846976/190267223926189" value="0" leadInLength="72057594037927936/2728107992627485"  interpolater="leadin-linr"  />
            </Keyframes>
           </InterpolatingParam>
           <InterpolatingParam id="7254" interp="linr"  >
            <Keyframes>
            <Keyframe id="7255"  time="-9999999/1" value="0" leadInLength="0/1"  interpolater="leadin-linr"  />
            <Keyframe id="7256"  time="1152921504606846976/366717721562809" value="0" leadInLength="1152921504606846976/5731782449161017"  interpolater="leadin-linr"  />
            <Keyframe id="7257"  time="1152921504606846976/241943692210127" value="0" leadInLength="144115188075855872/4728720520560593"  interpolater="leadin-linr"  />
            <Keyframe id="7258"  time="288230376151711744/49336893193065" value="0" leadInLength="144115188075855872/5066486272023893"  interpolater="leadin-linr"  />
            <Keyframe id="7259"  time="1152921504606846976/190267223926189" value="0" leadInLength="72057594037927936/2728107992627485"  interpolater="leadin-linr"  />
            </Keyframes>
           </InterpolatingParam>
           <InterpolatingParam id="7260" interp="linr"  >
            <Keyframes>
            <Keyframe id="7261"  time="-9999999/1" value="0" leadInLength="0/1"  interpolater="leadin-linr"  />
            <Keyframe id="7262"  time="1152921504606846976/366717721562809" value="0" leadInLength="1152921504606846976/5731782449161017"  interpolater="leadin-linr"  />
            <Keyframe id="7263"  time="1152921504606846976/241943692210127" value="0" leadInLength="144115188075855872/4728720520560593"  interpolater="leadin-linr"  />
            <Keyframe id="7264"  time="288230376151711744/49336893193065" value="0" leadInLength="144115188075855872/5066486272023893"  interpolater="leadin-linr"  />
            <Keyframe id="7265"  time="1152921504606846976/190267223926189" value="0" leadInLength="72057594037927936/2728107992627485"  interpolater="leadin-linr"  />
            </Keyframes>
           </InterpolatingParam>
           <InterpolatingParam id="7266" interp="linr"  >
            <Keyframes>
            <Keyframe id="7267"  time="-9999999/1" value="0" leadInLength="0/1"  interpolater="leadin-linr"  />
            <Keyframe id="7268"  time="1152921504606846976/366717721562809" value="0" leadInLength="1152921504606846976/5731782449161017"  interpolater="leadin-linr"  />
            <Keyframe id="7269"  time="1152921504606846976/241943692210127" value="0" leadInLength="144115188075855872/4728720520560593"  interpolater="leadin-linr"  />
            <Keyframe id="7270"  time="288230376151711744/49336893193065" value="0" leadInLength="144115188075855872/5066486272023893"  interpolater="leadin-linr"  />
            <Keyframe id="7271"  time="1152921504606846976/190267223926189" value="0" leadInLength="72057594037927936/2728107992627485"  interpolater="leadin-linr"  />
            </Keyframes>
           </InterpolatingParam>
          </VectorParam>
          <InterpolatingParam id="7272" interp="linr"  name="opacity">
           <Keyframes>
           <Keyframe id="7273"  time="-9999999/1" value="1" leadInLength="0/1"  interpolater="leadin-linr"  />
           <Keyframe id="7274"  time="1152921504606846976/366717721562809" value="1" leadInLength="1152921504606846976/5731782449161017"  interpolater="leadin-linr"  />
           <Keyframe id="7275"  time="1152921504606846976/241943692210127" value="1" leadInLength="144115188075855872/4728720520560593"  interpolater="leadin-linr"  />
           <Keyframe id="7276"  time="288230376151711744/49336893193065" value="1" leadInLength="144115188075855872/5066486272023893"  interpolater="leadin-linr"  />
           <Keyframe id="7277"  time="1152921504606846976/190267223926189" value="1" leadInLength="72057594037927936/2728107992627485"  interpolater="leadin-linr"  />
           </Keyframes>
          </InterpolatingParam>
         </Parameters>
         <Attributes>
          <Attribute id="7278" value="" name="ident"/>
         </Attributes>
         <MetaData>
          <entry key="WinSubProjectDisplayName" val=""/>
         </MetaData>
         <ExtraData>
          <Entry key="ZoomPanBin">
           <ZoomPanBin id="7279"  >
            <ZoomPanKeyframes>
             <ZoomPanKeyframe id="7280" timeRangeEnd="-9999999/1" timeRangeDuration="0/1" interpolaterName="leadin-linr"  />
             <ZoomPanKeyframe id="7281" timeRangeEnd="1152921504606846976/366717721562809" timeRangeDuration="1152921504606846976/5731782449161017" interpolaterName="linr"  />
             <ZoomPanKeyframe id="7282" timeRangeEnd="1152921504606846976/241943692210127" timeRangeDuration="144115188075855872/4728720520560593" interpolaterName="linr"  />
             <ZoomPanKeyframe id="7283" timeRangeEnd="1152921504606846976/190267223926189" timeRangeDuration="72057594037927936/2728107992627485" interpolaterName="linr"  />
             <ZoomPanKeyframe id="7284" timeRangeEnd="288230376151711744/49336893193065" timeRangeDuration="144115188075855872/5066486272023893" interpolaterName="linr"  />
            </ZoomPanKeyframes>
           </ZoomPanBin>
          </Entry>
         </ExtraData>
        </VMFile>
        <UnifiedMedia id="7285"  >
         <AudioTransition id="7286" start="8641" duration="15" >
          <Parameters>
           <InterpolatingParam id="7287" interp="linr"  time="0/1" value="1" leadInLength="0/1"  name="volume"/>
           <Parameter id="7288"  name="captions"/>
          </Parameters>
          <Effects>
           <GenericEffect id="7289" name = "AudioTransition" >
            <Parameters>
            <Parameter id="7290"   name="audioEdgeModType">
             <Keyframes>
             <Keyframe id="7291"  time="0/1" value="0" leadInLength="0/1"  />
             </Keyframes>
            </Parameter>
            <Parameter id="7292"   name="audioTransitionType">
             <Keyframes>
             <Keyframe id="7293"  time="0/1" value="" leadInLength="0/1"  />
             </Keyframes>
            </Parameter>
            </Parameters>
            <MetaData>
            </MetaData>
           </GenericEffect>
          </Effects>
          <Attributes>
           <Attribute id="7294" value="" name="ident"/>
           <Attribute id="7295" value="0" name="sampleRate"/>
           <Attribute id="7296" value="0" name="bitDepth"/>
           <Attribute id="7297" value="1" name="gain"/>
           <Attribute id="7298" value="0" name="mixToMono"/>
          </Attributes>
         </AudioTransition>
         <ImageTransition id="7299" start="8641" duration="15" >
          <Transformer>
           <VectorParam id="7300"  name="translation">
            <InterpolatingParam id="7301" interp="linr"  time="0/1" value="0" leadInLength="0/1"  />
            <InterpolatingParam id="7302" interp="linr"  time="0/1" value="0" leadInLength="0/1"  />
            <InterpolatingParam id="7303" interp="linr"  time="0/1" value="0" leadInLength="0/1"  />
           </VectorParam>
           <VectorParam id="7304"  name="rotation">
            <InterpolatingParam id="7305" interp="linr"  time="0/1" value="0" leadInLength="0/1"  />
            <InterpolatingParam id="7306" interp="linr"  time="0/1" value="0" leadInLength="0/1"  />
            <InterpolatingParam id="7307" interp="linr"  time="0/1" value="0" leadInLength="0/1"  />
           </VectorParam>
           <VectorParam id="7308"  name="shear">
            <InterpolatingParam id="7309" interp="linr"  time="0/1" value="0" leadInLength="0/1"  />
            <InterpolatingParam id="7310" interp="linr"  time="0/1" value="0" leadInLength="0/1"  />
            <InterpolatingParam id="7311" interp="linr"  time="0/1" value="0" leadInLength="0/1"  />
           </VectorParam>
           <VectorParam id="7312"  name="scale">
            <InterpolatingParam id="7313" interp="linr"  time="0/1" value="1" leadInLength="0/1"  />
            <InterpolatingParam id="7314" interp="linr"  time="0/1" value="1" leadInLength="0/1"  />
            <InterpolatingParam id="7315" interp="linr"  time="0/1" value="1" leadInLength="0/1"  />
           </VectorParam>
           <VectorParam id="7316"  name="anchor">
            <InterpolatingParam id="7317" interp="linr"  time="0/1" value="0" leadInLength="0/1"  />
            <InterpolatingParam id="7318" interp="linr"  time="0/1" value="0" leadInLength="0/1"  />
            <InterpolatingParam id="7319" interp="linr"  time="0/1" value="0" leadInLength="0/1"  />
           </VectorParam>
          </Transformer>
          <Parameters>
           <VectorParam id="7320"  name="sourceCrop">
            <InterpolatingParam id="7321" interp="linr"  time="0/1" value="0" leadInLength="0/1"  />
            <InterpolatingParam id="7322" interp="linr"  time="0/1" value="0" leadInLength="0/1"  />
            <InterpolatingParam id="7323" interp="linr"  time="0/1" value="0" leadInLength="0/1"  />
            <InterpolatingParam id="7324" interp="linr"  time="0/1" value="0" leadInLength="0/1"  />
           </VectorParam>
           <VectorParam id="7325"  name="geometryCrop">
            <InterpolatingParam id="7326" interp="linr"  time="0/1" value="0" leadInLength="0/1"  />
            <InterpolatingParam id="7327" interp="linr"  time="0/1" value="0" leadInLength="0/1"  />
            <InterpolatingParam id="7328" interp="linr"  time="0/1" value="0" leadInLength="0/1"  />
            <InterpolatingParam id="7329" interp="linr"  time="0/1" value="0" leadInLength="0/1"  />
           </VectorParam>
           <InterpolatingParam id="7330" interp="linr"  time="0/1" value="1" leadInLength="0/1"  name="opacity"/>
          </Parameters>
          <Effects>
           <GenericEffect id="7331" name = "VisualTransition" >
            <Parameters>
            <InterpolatingParam id="7332" interp="linr"  time="0/1" value="0.5" leadInLength="0/1"   name="leftFramePercentage"/>
            <InterpolatingParam id="7333" interp="linr"  time="0/1" value="0.5" leadInLength="0/1"   name="rightFramePercentage"/>
            <Parameter id="7334"   name="visualEdgeModType">
             <Keyframes>
             <Keyframe id="7335"  time="0/1" value="2" leadInLength="0/1"  />
             </Keyframes>
            </Parameter>
            <Parameter id="7336"   name="visualTransitionType">
             <Keyframes>
             <Keyframe id="7337"  time="0/1" value="RandomDissolve" leadInLength="0/1"  />
             </Keyframes>
            </Parameter>
            </Parameters>
            <MetaData>
            </MetaData>
           </GenericEffect>
          </Effects>
          <Attributes>
           <Attribute id="7338" value="" name="ident"/>
          </Attributes>
          <ExtraData>
           <Entry key="ZoomPanBin">
            <ZoomPanBin id="7339"  >
             <ZoomPanKeyframes>
             </ZoomPanKeyframes>
            </ZoomPanBin>
           </Entry>
          </ExtraData>
         </ImageTransition>
         <MetaData>
          <entry key="WinSubProjectDisplayName" val=""/>
         </MetaData>
        </UnifiedMedia>
        <UnifiedMedia id="7340"  >
         <AudioTransition id="7341" start="8686" duration="15" >
          <Parameters>
           <InterpolatingParam id="7342" interp="linr"  time="0/1" value="1" leadInLength="0/1"  name="volume"/>
           <Parameter id="7343"  name="captions"/>
          </Parameters>
          <Effects>
           <GenericEffect id="7344" name = "AudioTransition" >
            <Parameters>
            <Parameter id="7345"   name="audioEdgeModType">
             <Keyframes>
             <Keyframe id="7346"  time="0/1" value="0" leadInLength="0/1"  />
             </Keyframes>
            </Parameter>
            <Parameter id="7347"   name="audioTransitionType">
             <Keyframes>
             <Keyframe id="7348"  time="0/1" value="" leadInLength="0/1"  />
             </Keyframes>
            </Parameter>
            </Parameters>
            <MetaData>
            </MetaData>
           </GenericEffect>
          </Effects>
          <Attributes>
           <Attribute id="7349" value="" name="ident"/>
           <Attribute id="7350" value="0" name="sampleRate"/>
           <Attribute id="7351" value="0" name="bitDepth"/>
           <Attribute id="7352" value="1" name="gain"/>
           <Attribute id="7353" value="0" name="mixToMono"/>
          </Attributes>
         </AudioTransition>
         <ImageTransition id="7354" start="8686" duration="15" >
          <Transformer>
           <VectorParam id="7355"  name="translation">
            <InterpolatingParam id="7356" interp="linr"  time="0/1" value="0" leadInLength="0/1"  />
            <InterpolatingParam id="7357" interp="linr"  time="0/1" value="0" leadInLength="0/1"  />
            <InterpolatingParam id="7358" interp="linr"  time="0/1" value="0" leadInLength="0/1"  />
           </VectorParam>
           <VectorParam id="7359"  name="rotation">
            <InterpolatingParam id="7360" interp="linr"  time="0/1" value="0" leadInLength="0/1"  />
            <InterpolatingParam id="7361" interp="linr"  time="0/1" value="0" leadInLength="0/1"  />
            <InterpolatingParam id="7362" interp="linr"  time="0/1" value="0" leadInLength="0/1"  />
           </VectorParam>
           <VectorParam id="7363"  name="shear">
            <InterpolatingParam id="7364" interp="linr"  time="0/1" value="0" leadInLength="0/1"  />
            <InterpolatingParam id="7365" interp="linr"  time="0/1" value="0" leadInLength="0/1"  />
            <InterpolatingParam id="7366" interp="linr"  time="0/1" value="0" leadInLength="0/1"  />
           </VectorParam>
           <VectorParam id="7367"  name="scale">
            <InterpolatingParam id="7368" interp="linr"  time="0/1" value="1" leadInLength="0/1"  />
            <InterpolatingParam id="7369" interp="linr"  time="0/1" value="1" leadInLength="0/1"  />
            <InterpolatingParam id="7370" interp="linr"  time="0/1" value="1" leadInLength="0/1"  />
           </VectorParam>
           <VectorParam id="7371"  name="anchor">
            <InterpolatingParam id="7372" interp="linr"  time="0/1" value="0" leadInLength="0/1"  />
            <InterpolatingParam id="7373" interp="linr"  time="0/1" value="0" leadInLength="0/1"  />
            <InterpolatingParam id="7374" interp="linr"  time="0/1" value="0" leadInLength="0/1"  />
           </VectorParam>
          </Transformer>
          <Parameters>
           <VectorParam id="7375"  name="sourceCrop">
            <InterpolatingParam id="7376" interp="linr"  time="0/1" value="0" leadInLength="0/1"  />
            <InterpolatingParam id="7377" interp="linr"  time="0/1" value="0" leadInLength="0/1"  />
            <InterpolatingParam id="7378" interp="linr"  time="0/1" value="0" leadInLength="0/1"  />
            <InterpolatingParam id="7379" interp="linr"  time="0/1" value="0" leadInLength="0/1"  />
           </VectorParam>
           <VectorParam id="7380"  name="geometryCrop">
            <InterpolatingParam id="7381" interp="linr"  time="0/1" value="0" leadInLength="0/1"  />
            <InterpolatingParam id="7382" interp="linr"  time="0/1" value="0" leadInLength="0/1"  />
            <InterpolatingParam id="7383" interp="linr"  time="0/1" value="0" leadInLength="0/1"  />
            <InterpolatingParam id="7384" interp="linr"  time="0/1" value="0" leadInLength="0/1"  />
           </VectorParam>
           <InterpolatingParam id="7385" interp="linr"  time="0/1" value="1" leadInLength="0/1"  name="opacity"/>
          </Parameters>
          <Effects>
           <GenericEffect id="7386" name = "VisualTransition" >
            <Parameters>
            <InterpolatingParam id="7387" interp="linr"  time="0/1" value="0.5" leadInLength="0/1"   name="leftFramePercentage"/>
            <InterpolatingParam id="7388" interp="linr"  time="0/1" value="0.5" leadInLength="0/1"   name="rightFramePercentage"/>
            <Parameter id="7389"   name="visualEdgeModType">
             <Keyframes>
             <Keyframe id="7390"  time="0/1" value="1" leadInLength="0/1"  />
             </Keyframes>
            </Parameter>
            <Parameter id="7391"   name="visualTransitionType">
             <Keyframes>
             <Keyframe id="7392"  time="0/1" value="RandomDissolve" leadInLength="0/1"  />
             </Keyframes>
            </Parameter>
            </Parameters>
            <MetaData>
            </MetaData>
           </GenericEffect>
          </Effects>
          <Attributes>
           <Attribute id="7393" value="" name="ident"/>
          </Attributes>
          <ExtraData>
           <Entry key="ZoomPanBin">
            <ZoomPanBin id="7394"  >
             <ZoomPanKeyframes>
             </ZoomPanKeyframes>
            </ZoomPanBin>
           </Entry>
          </ExtraData>
         </ImageTransition>
         <MetaData>
          <entry key="WinSubProjectDisplayName" val=""/>
         </MetaData>
        </UnifiedMedia>
        <VMFile id="7395" start="8701" duration="250" scalar="36028797018963968/36431787372740445" mediaStart="1152921504606846976/128301435698501" mediaDuration="4553973421592555625/18014398509481984" trackNumber="0" src="4" >
         <Transformer>
          <VectorParam id="7396"  name="translation">
           <InterpolatingParam id="7397" interp="linr"  >
            <Keyframes>
            <Keyframe id="7398"  time="-9999999/1" value="-7.1167960413731635e-011" leadInLength="0/1"  interpolater="leadin-linr"  />
            <Keyframe id="7399"  time="576460752303423488/184097774686973" value="5.5654680863881367e-010" leadInLength="576460752303423488/2864744871920385"  interpolater="leadin-linr"  />
            <Keyframe id="7400"  time="1152921504606846976/242659335267337" value="7.4408035288797691e-011" leadInLength="144115188075855872/4597453463804995"  interpolater="leadin-linr"  />
            <Keyframe id="7401"  time="1152921504606846976/197718044645153" value="637.46031746043502" leadInLength="144115188075855872/4750701912600539"  interpolater="leadin-linr"  />
            <Keyframe id="7402"  time="1152921504606846976/190643271173219" value="-1.5187323977675214e-010" leadInLength="144115188075855872/5090037763501341"  interpolater="leadin-linr"  />
            </Keyframes>
           </InterpolatingParam>
           <InterpolatingParam id="7403" interp="linr"  >
            <Keyframes>
            <Keyframe id="7404"  time="-9999999/1" value="4.2888359530479647e-011" leadInLength="0/1"  interpolater="leadin-linr"  />
            <Keyframe id="7405"  time="576460752303423488/184097774686973" value="-2.7188917783860234e-011" leadInLength="576460752303423488/2864744871920385"  interpolater="leadin-linr"  />
            <Keyframe id="7406"  time="1152921504606846976/242659335267337" value="1.3588419278676156e-010" leadInLength="144115188075855872/4597453463804995"  interpolater="leadin-linr"  />
            <Keyframe id="7407"  time="1152921504606846976/197718044645153" value="-250.00000000029172" leadInLength="144115188075855872/4750701912600539"  interpolater="leadin-linr"  />
            <Keyframe id="7408"  time="1152921504606846976/190643271173219" value="5.541285948612186e-011" leadInLength="144115188075855872/5090037763501341"  interpolater="leadin-linr"  />
            </Keyframes>
           </InterpolatingParam>
           <InterpolatingParam id="7409" interp="linr"  >
            <Keyframes>
            <Keyframe id="7410"  time="-9999999/1" value="0" leadInLength="0/1"  interpolater="leadin-linr"  />
            <Keyframe id="7411"  time="576460752303423488/184097774686973" value="-6.8212102632977114e-010" leadInLength="576460752303423488/2864744871920385"  interpolater="leadin-linr"  />
            <Keyframe id="7412"  time="1152921504606846976/242659335267337" value="-3.4106051316488526e-010" leadInLength="144115188075855872/4597453463804995"  interpolater="leadin-linr"  />
            <Keyframe id="7413"  time="1152921504606846976/197718044645153" value="-3.4106051316488526e-010" leadInLength="144115188075855872/4750701912600539"  interpolater="leadin-linr"  />
            <Keyframe id="7414"  time="1152921504606846976/190643271173219" value="4.1359030627651384e-025" leadInLength="144115188075855872/5090037763501341"  interpolater="leadin-linr"  />
            </Keyframes>
           </InterpolatingParam>
          </VectorParam>
          <VectorParam id="7415"  name="rotation">
           <InterpolatingParam id="7416" interp="linr"  >
            <Keyframes>
            <Keyframe id="7417"  time="-9999999/1" value="0" leadInLength="0/1"  interpolater="leadin-linr"  />
            <Keyframe id="7418"  time="576460752303423488/184097774686973" value="0" leadInLength="576460752303423488/2864744871920385"  interpolater="leadin-linr"  />
            <Keyframe id="7419"  time="1152921504606846976/242659335267337" value="0" leadInLength="144115188075855872/4597453463804995"  interpolater="leadin-linr"  />
            <Keyframe id="7420"  time="1152921504606846976/197718044645153" value="0" leadInLength="144115188075855872/4750701912600539"  interpolater="leadin-linr"  />
            <Keyframe id="7421"  time="1152921504606846976/190643271173219" value="0" leadInLength="144115188075855872/5090037763501341"  interpolater="leadin-linr"  />
            </Keyframes>
           </InterpolatingParam>
           <InterpolatingParam id="7422" interp="linr"  >
            <Keyframes>
            <Keyframe id="7423"  time="-9999999/1" value="0" leadInLength="0/1"  interpolater="leadin-linr"  />
            <Keyframe id="7424"  time="576460752303423488/184097774686973" value="0" leadInLength="576460752303423488/2864744871920385"  interpolater="leadin-linr"  />
            <Keyframe id="7425"  time="1152921504606846976/242659335267337" value="0" leadInLength="144115188075855872/4597453463804995"  interpolater="leadin-linr"  />
            <Keyframe id="7426"  time="1152921504606846976/197718044645153" value="0" leadInLength="144115188075855872/4750701912600539"  interpolater="leadin-linr"  />
            <Keyframe id="7427"  time="1152921504606846976/190643271173219" value="0" leadInLength="144115188075855872/5090037763501341"  interpolater="leadin-linr"  />
            </Keyframes>
           </InterpolatingParam>
           <InterpolatingParam id="7428" interp="linr"  >
            <Keyframes>
            <Keyframe id="7429"  time="-9999999/1" value="0" leadInLength="0/1"  interpolater="leadin-linr"  />
            <Keyframe id="7430"  time="576460752303423488/184097774686973" value="0" leadInLength="576460752303423488/2864744871920385"  interpolater="leadin-linr"  />
            <Keyframe id="7431"  time="1152921504606846976/242659335267337" value="0" leadInLength="144115188075855872/4597453463804995"  interpolater="leadin-linr"  />
            <Keyframe id="7432"  time="1152921504606846976/197718044645153" value="0" leadInLength="144115188075855872/4750701912600539"  interpolater="leadin-linr"  />
            <Keyframe id="7433"  time="1152921504606846976/190643271173219" value="0" leadInLength="144115188075855872/5090037763501341"  interpolater="leadin-linr"  />
            </Keyframes>
           </InterpolatingParam>
          </VectorParam>
          <VectorParam id="7434"  name="shear">
           <InterpolatingParam id="7435" interp="linr"  >
            <Keyframes>
            <Keyframe id="7436"  time="-9999999/1" value="0" leadInLength="0/1"  interpolater="leadin-linr"  />
            <Keyframe id="7437"  time="576460752303423488/184097774686973" value="0" leadInLength="576460752303423488/2864744871920385"  interpolater="leadin-linr"  />
            <Keyframe id="7438"  time="1152921504606846976/242659335267337" value="0" leadInLength="144115188075855872/4597453463804995"  interpolater="leadin-linr"  />
            <Keyframe id="7439"  time="1152921504606846976/197718044645153" value="0" leadInLength="144115188075855872/4750701912600539"  interpolater="leadin-linr"  />
            <Keyframe id="7440"  time="1152921504606846976/190643271173219" value="0" leadInLength="144115188075855872/5090037763501341"  interpolater="leadin-linr"  />
            </Keyframes>
           </InterpolatingParam>
           <InterpolatingParam id="7441" interp="linr"  >
            <Keyframes>
            <Keyframe id="7442"  time="-9999999/1" value="0" leadInLength="0/1"  interpolater="leadin-linr"  />
            <Keyframe id="7443"  time="576460752303423488/184097774686973" value="0" leadInLength="576460752303423488/2864744871920385"  interpolater="leadin-linr"  />
            <Keyframe id="7444"  time="1152921504606846976/242659335267337" value="0" leadInLength="144115188075855872/4597453463804995"  interpolater="leadin-linr"  />
            <Keyframe id="7445"  time="1152921504606846976/197718044645153" value="0" leadInLength="144115188075855872/4750701912600539"  interpolater="leadin-linr"  />
            <Keyframe id="7446"  time="1152921504606846976/190643271173219" value="0" leadInLength="144115188075855872/5090037763501341"  interpolater="leadin-linr"  />
            </Keyframes>
           </InterpolatingParam>
           <InterpolatingParam id="7447" interp="linr"  >
            <Keyframes>
            <Keyframe id="7448"  time="-9999999/1" value="0" leadInLength="0/1"  interpolater="leadin-linr"  />
            <Keyframe id="7449"  time="576460752303423488/184097774686973" value="0" leadInLength="576460752303423488/2864744871920385"  interpolater="leadin-linr"  />
            <Keyframe id="7450"  time="1152921504606846976/242659335267337" value="0" leadInLength="144115188075855872/4597453463804995"  interpolater="leadin-linr"  />
            <Keyframe id="7451"  time="1152921504606846976/197718044645153" value="0" leadInLength="144115188075855872/4750701912600539"  interpolater="leadin-linr"  />
            <Keyframe id="7452"  time="1152921504606846976/190643271173219" value="0" leadInLength="144115188075855872/5090037763501341"  interpolater="leadin-linr"  />
            </Keyframes>
           </InterpolatingParam>
          </VectorParam>
          <VectorParam id="7453"  name="scale">
           <InterpolatingParam id="7454" interp="linr"  >
            <Keyframes>
            <Keyframe id="7455"  time="-9999999/1" value="0.66666666666665186" leadInLength="0/1"  interpolater="leadin-linr"  />
            <Keyframe id="7456"  time="576460752303423488/184097774686973" value="0.66666666666705388" leadInLength="576460752303423488/2864744871920385"  interpolater="leadin-linr"  />
            <Keyframe id="7457"  time="1152921504606846976/242659335267337" value="0.66666666666655605" leadInLength="144115188075855872/4597453463804995"  interpolater="leadin-linr"  />
            <Keyframe id="7458"  time="1152921504606846976/197718044645153" value="1.3306878306877652" leadInLength="144115188075855872/4750701912600539"  interpolater="leadin-linr"  />
            <Keyframe id="7459"  time="1152921504606846976/190643271173219" value="0.66666666666645868" leadInLength="144115188075855872/5090037763501341"  interpolater="leadin-linr"  />
            </Keyframes>
           </InterpolatingParam>
           <InterpolatingParam id="7460" interp="linr"  >
            <Keyframes>
            <Keyframe id="7461"  time="-9999999/1" value="0.6666666666666522" leadInLength="0/1"  interpolater="leadin-linr"  />
            <Keyframe id="7462"  time="576460752303423488/184097774686973" value="0.66666666666705443" leadInLength="576460752303423488/2864744871920385"  interpolater="leadin-linr"  />
            <Keyframe id="7463"  time="1152921504606846976/242659335267337" value="0.66666666666655749" leadInLength="144115188075855872/4597453463804995"  interpolater="leadin-linr"  />
            <Keyframe id="7464"  time="1152921504606846976/197718044645153" value="1.3306878306877681" leadInLength="144115188075855872/4750701912600539"  interpolater="leadin-linr"  />
            <Keyframe id="7465"  time="1152921504606846976/190643271173219" value="0.66666666666646024" leadInLength="144115188075855872/5090037763501341"  interpolater="leadin-linr"  />
            </Keyframes>
           </InterpolatingParam>
           <InterpolatingParam id="7466" interp="linr"  >
            <Keyframes>
            <Keyframe id="7467"  time="-9999999/1" value="1" leadInLength="0/1"  interpolater="leadin-linr"  />
            <Keyframe id="7468"  time="576460752303423488/184097774686973" value="1" leadInLength="576460752303423488/2864744871920385"  interpolater="leadin-linr"  />
            <Keyframe id="7469"  time="1152921504606846976/242659335267337" value="1" leadInLength="144115188075855872/4597453463804995"  interpolater="leadin-linr"  />
            <Keyframe id="7470"  time="1152921504606846976/197718044645153" value="1" leadInLength="144115188075855872/4750701912600539"  interpolater="leadin-linr"  />
            <Keyframe id="7471"  time="1152921504606846976/190643271173219" value="1" leadInLength="144115188075855872/5090037763501341"  interpolater="leadin-linr"  />
            </Keyframes>
           </InterpolatingParam>
          </VectorParam>
          <VectorParam id="7472"  name="anchor">
           <InterpolatingParam id="7473" interp="linr"  time="0/1" value="0" leadInLength="0/1"  />
           <InterpolatingParam id="7474" interp="linr"  time="0/1" value="0" leadInLength="0/1"  />
           <InterpolatingParam id="7475" interp="linr"  time="0/1" value="0" leadInLength="0/1"  />
          </VectorParam>
         </Transformer>
         <Parameters>
          <VectorParam id="7476"  name="sourceCrop">
           <InterpolatingParam id="7477" interp="linr"  time="0/1" value="0" leadInLength="0/1"  />
           <InterpolatingParam id="7478" interp="linr"  time="0/1" value="0" leadInLength="0/1"  />
           <InterpolatingParam id="7479" interp="linr"  time="0/1" value="0" leadInLength="0/1"  />
           <InterpolatingParam id="7480" interp="linr"  time="0/1" value="0" leadInLength="0/1"  />
          </VectorParam>
          <VectorParam id="7481"  name="geometryCrop">
           <InterpolatingParam id="7482" interp="linr"  >
            <Keyframes>
            <Keyframe id="7483"  time="-9999999/1" value="0" leadInLength="0/1"  interpolater="leadin-linr"  />
            <Keyframe id="7484"  time="576460752303423488/184097774686973" value="0" leadInLength="576460752303423488/2864744871920385"  interpolater="leadin-linr"  />
            <Keyframe id="7485"  time="1152921504606846976/242659335267337" value="0" leadInLength="144115188075855872/4597453463804995"  interpolater="leadin-linr"  />
            <Keyframe id="7486"  time="1152921504606846976/197718044645153" value="0" leadInLength="144115188075855872/4750701912600539"  interpolater="leadin-linr"  />
            <Keyframe id="7487"  time="1152921504606846976/190643271173219" value="0" leadInLength="144115188075855872/5090037763501341"  interpolater="leadin-linr"  />
            </Keyframes>
           </InterpolatingParam>
           <InterpolatingParam id="7488" interp="linr"  >
            <Keyframes>
            <Keyframe id="7489"  time="-9999999/1" value="0" leadInLength="0/1"  interpolater="leadin-linr"  />
            <Keyframe id="7490"  time="576460752303423488/184097774686973" value="0" leadInLength="576460752303423488/2864744871920385"  interpolater="leadin-linr"  />
            <Keyframe id="7491"  time="1152921504606846976/242659335267337" value="0" leadInLength="144115188075855872/4597453463804995"  interpolater="leadin-linr"  />
            <Keyframe id="7492"  time="1152921504606846976/197718044645153" value="0" leadInLength="144115188075855872/4750701912600539"  interpolater="leadin-linr"  />
            <Keyframe id="7493"  time="1152921504606846976/190643271173219" value="0" leadInLength="144115188075855872/5090037763501341"  interpolater="leadin-linr"  />
            </Keyframes>
           </InterpolatingParam>
           <InterpolatingParam id="7494" interp="linr"  >
            <Keyframes>
            <Keyframe id="7495"  time="-9999999/1" value="0" leadInLength="0/1"  interpolater="leadin-linr"  />
            <Keyframe id="7496"  time="576460752303423488/184097774686973" value="0" leadInLength="576460752303423488/2864744871920385"  interpolater="leadin-linr"  />
            <Keyframe id="7497"  time="1152921504606846976/242659335267337" value="0" leadInLength="144115188075855872/4597453463804995"  interpolater="leadin-linr"  />
            <Keyframe id="7498"  time="1152921504606846976/197718044645153" value="0" leadInLength="144115188075855872/4750701912600539"  interpolater="leadin-linr"  />
            <Keyframe id="7499"  time="1152921504606846976/190643271173219" value="0" leadInLength="144115188075855872/5090037763501341"  interpolater="leadin-linr"  />
            </Keyframes>
           </InterpolatingParam>
           <InterpolatingParam id="7500" interp="linr"  >
            <Keyframes>
            <Keyframe id="7501"  time="-9999999/1" value="0" leadInLength="0/1"  interpolater="leadin-linr"  />
            <Keyframe id="7502"  time="576460752303423488/184097774686973" value="0" leadInLength="576460752303423488/2864744871920385"  interpolater="leadin-linr"  />
            <Keyframe id="7503"  time="1152921504606846976/242659335267337" value="0" leadInLength="144115188075855872/4597453463804995"  interpolater="leadin-linr"  />
            <Keyframe id="7504"  time="1152921504606846976/197718044645153" value="0" leadInLength="144115188075855872/4750701912600539"  interpolater="leadin-linr"  />
            <Keyframe id="7505"  time="1152921504606846976/190643271173219" value="0" leadInLength="144115188075855872/5090037763501341"  interpolater="leadin-linr"  />
            </Keyframes>
           </InterpolatingParam>
          </VectorParam>
          <InterpolatingParam id="7506" interp="linr"  name="opacity">
           <Keyframes>
           <Keyframe id="7507"  time="-9999999/1" value="1" leadInLength="0/1"  interpolater="leadin-linr"  />
           <Keyframe id="7508"  time="576460752303423488/184097774686973" value="1" leadInLength="576460752303423488/2864744871920385"  interpolater="leadin-linr"  />
           <Keyframe id="7509"  time="1152921504606846976/242659335267337" value="1" leadInLength="144115188075855872/4597453463804995"  interpolater="leadin-linr"  />
           <Keyframe id="7510"  time="1152921504606846976/197718044645153" value="1" leadInLength="144115188075855872/4750701912600539"  interpolater="leadin-linr"  />
           <Keyframe id="7511"  time="1152921504606846976/190643271173219" value="1" leadInLength="144115188075855872/5090037763501341"  interpolater="leadin-linr"  />
           </Keyframes>
          </InterpolatingParam>
         </Parameters>
         <Attributes>
          <Attribute id="7512" value="" name="ident"/>
         </Attributes>
         <MetaData>
          <entry key="WinSubProjectDisplayName" val=""/>
         </MetaData>
         <ExtraData>
          <Entry key="ZoomPanBin">
           <ZoomPanBin id="7513"  >
            <ZoomPanKeyframes>
             <ZoomPanKeyframe id="7514" timeRangeEnd="-9999999/1" timeRangeDuration="0/1" interpolaterName="leadin-linr"  />
             <ZoomPanKeyframe id="7515" timeRangeEnd="576460752303423488/184097774686973" timeRangeDuration="576460752303423488/2864744871920385" interpolaterName="linr"  />
             <ZoomPanKeyframe id="7516" timeRangeEnd="1152921504606846976/242659335267337" timeRangeDuration="144115188075855872/4597453463804995" interpolaterName="linr"  />
             <ZoomPanKeyframe id="7517" timeRangeEnd="1152921504606846976/190643271173219" timeRangeDuration="144115188075855872/5090037763501341" interpolaterName="linr"  />
             <ZoomPanKeyframe id="7518" timeRangeEnd="1152921504606846976/197718044645153" timeRangeDuration="144115188075855872/4750701912600539" interpolaterName="linr"  />
            </ZoomPanKeyframes>
           </ZoomPanBin>
          </Entry>
         </ExtraData>
        </VMFile>
       </Medias>
      </GenericTrack>
      <GenericTrack id="7519"  >
       <Attributes>
        <Attribute id="7520" value="Audio" name="ident"/>
        <Attribute id="7521" value="1" name="audioMuted"/>
        <Attribute id="7522" value="1" name="videoHidden"/>
       </Attributes>
       <MetaData>
        <entry key="IsLocked" val="False"/>
        <entry key="WinTrackHeight" val="62"/>
       </MetaData>
       <Medias>
        <StitchedMedia id="7523" start="0" duration="345" scalar="1/1" mediaStart="44/1" mediaDuration="345/1" minMediaStart="0/1" >
         <Transformer>
          <VectorParam id="7524"  name="translation">
           <InterpolatingParam id="7525" interp="linr"  time="0/1" value="0" leadInLength="0/1"  />
           <InterpolatingParam id="7526" interp="linr"  time="0/1" value="0" leadInLength="0/1"  />
           <InterpolatingParam id="7527" interp="linr"  time="0/1" value="0" leadInLength="0/1"  />
          </VectorParam>
          <VectorParam id="7528"  name="rotation">
           <InterpolatingParam id="7529" interp="linr"  time="0/1" value="0" leadInLength="0/1"  />
           <InterpolatingParam id="7530" interp="linr"  time="0/1" value="0" leadInLength="0/1"  />
           <InterpolatingParam id="7531" interp="linr"  time="0/1" value="0" leadInLength="0/1"  />
          </VectorParam>
          <VectorParam id="7532"  name="shear">
           <InterpolatingParam id="7533" interp="linr"  time="0/1" value="0" leadInLength="0/1"  />
           <InterpolatingParam id="7534" interp="linr"  time="0/1" value="0" leadInLength="0/1"  />
           <InterpolatingParam id="7535" interp="linr"  time="0/1" value="0" leadInLength="0/1"  />
          </VectorParam>
          <VectorParam id="7536"  name="scale">
           <InterpolatingParam id="7537" interp="linr"  time="0/1" value="1" leadInLength="0/1"  />
           <InterpolatingParam id="7538" interp="linr"  time="0/1" value="1" leadInLength="0/1"  />
           <InterpolatingParam id="7539" interp="linr"  time="0/1" value="1" leadInLength="0/1"  />
          </VectorParam>
          <VectorParam id="7540"  name="anchor">
           <InterpolatingParam id="7541" interp="linr"  time="0/1" value="0" leadInLength="0/1"  />
           <InterpolatingParam id="7542" interp="linr"  time="0/1" value="0" leadInLength="0/1"  />
           <InterpolatingParam id="7543" interp="linr"  time="0/1" value="0" leadInLength="0/1"  />
          </VectorParam>
         </Transformer>
         <Parameters>
          <InterpolatingParam id="7544" interp="linr"  time="0/1" value="1" leadInLength="0/1"  name="cursorOpacity"/>
          <InterpolatingParam id="7545" interp="linr"  time="0/1" value="1" leadInLength="0/1"  name="cursorScale"/>
          <InterpolatingParam id="7546" interp="linr"  time="0/1" value="1.5625" leadInLength="0/1"  name="volume"/>
          <Parameter id="7547"  name="captions"/>
         </Parameters>
         <Effects>
          <GenericEffect id="7548" name = "WinCompression" >
           <Parameters>
           <InterpolatingParam id="7549" interp="linr"  time="0/1" value="0" leadInLength="0/1"   name="attack"/>
           <InterpolatingParam id="7550" interp="linr"  time="0/1" value="9" leadInLength="0/1"   name="gain"/>
           <Parameter id="7551"   name="preset">
            <Keyframes>
            <Keyframe id="7552"  time="0/1" value="1" leadInLength="0/1"  />
            </Keyframes>
           </Parameter>
           <InterpolatingParam id="7553" interp="linr"  time="0/1" value="10" leadInLength="0/1"   name="ratio"/>
           <InterpolatingParam id="7554" interp="linr"  time="0/1" value="3500" leadInLength="0/1"   name="release"/>
           <InterpolatingParam id="7555" interp="linr"  time="0/1" value="-20" leadInLength="0/1"   name="threshold"/>
           </Parameters>
          </GenericEffect>
          <GenericEffect id="7556" name = "NoiseReduction" >
           <Parameters>
           <InterpolatingParam id="7557" interp="linr"  time="0/1" value="20" leadInLength="0/1"   name="denoiserAmount"/>
           <InterpolatingParam id="7558" interp="linr"  time="0/1" value="0" leadInLength="0/1"   name="denoiserThreshold"/>
           <Parameter id="7559"   name="noiseProfile">
            <Keyframes>
            <Keyframe id="7560"  time="0/1" value="FBAAAAIAAABErAAAAQIAAIA/l8JLuYTCrOB9wgsMfMJoG4LCaWeFwkohjMJdoYvCYv6LwlnvjcKf&#xD;&#xa;nYzChXWPwlcejsL6fo/C5OmQwgVTj8IVMI/COiWRwoWFkcJ2tYzC8I6MwuQbjcJvEo/ClwGRwheQ&#xD;&#xa;lsK8+pbCN5qVwlielcJ905rCmu+fwst0ncIC/JvCdIWdws3snsKxC5zCfh2cwniFnMJRypzCtRag&#xD;&#xa;wuoCosJQt6DCzoegwhY9ocIWN6PCsNqkwrSlpMJ6maTCYpCkwmLvo8Li+KPCyEamwnBNqMLMcqrC&#xD;&#xa;v2GswoS+q8Kk86vCVACuwnvUr8JxZa/CqHqswrdXq8LqT6zCZsuswhZxrMLBX67CnmqvwpYyrsKc&#xD;&#xa;pq3CJFGvwghrsMK3y6/CXoCtwmWZr8ICi7DCgRezwogSs8Joq7LCm0Sxwuz/scIfibTCOOK1wlIM&#xD;&#xa;t8K87LfCj3K3wqDYs8KT1bLCVsW0wnZ0tcJGhLXCfPe0ws/ntcLGXrbCzAG1wtXdtcKxxrTC1Ay1&#xD;&#xa;wquGtcLjELbC8Zi2wl7rtsJBYbbCMF+1wrEutMKuibTCSFa1wpvktMIu3rTCtGe4wjaduMIKErfC&#xD;&#xa;SLa1wvS/tsJmZrjCdn63whjft8Ie47rCfdi5wmjpt8KKCLjCXmC5wsOQt8JDGbfCK4m4wmpvuMLL&#xD;&#xa;nLjC80q4wjUVusKunLjC1Be5wg4cuMLxCbjCwfW4wmi7ucIOdbvCbLG6whqdusKYErrCbpC4wmq0&#xD;&#xa;ucIoWrvCaNe6ws4iu8LSc7zCUNa7wuJZvMIwLL3CWe28wps2v8J2l77Cv3W+wvgavsKAwrzCQCy8&#xD;&#xa;wgBRu8Km8brChSa6wuM4u8IaaL3Cf5y9wg4hvMLur7vCIpO9wm0fvcIGNLzC7Le8wvKgvMKQrLzC&#xD;&#xa;p6+9wtYtvsJcxbzCQC29wjDqvcKeNbzCH2W8wpbZvsLCTL7CnjO+wuIsvsJs67vCwLq9wiKhvsLs&#xD;&#xa;o73C5Du9wqqhvcLwKr7C2kq/wqEMv8LVCb7Cpla+wsXpvMIs6bvC/fO8wueCvsIM4b3CxtC+wmTo&#xD;&#xa;vcI+arzCTNe8wiFNv8IvKL/Cpg+/woK1v8L4i7/CNv2+wmsVv8KWj77CVym+wnAlv8Joa8DCFDzA&#xD;&#xa;wiQYwcLSIcHCxILAwuxKvsJYm77CPoHAwiYPwcLuy77CcQa+wrB4vcKwYLzCxKW8worIvcIlzr/C&#xD;&#xa;OMC+wuRDvcJGZ7zCxFi9wuQzvMLPbbvCwIe+wm7bvcLm9L3COH6+wuuJvMK2B73CYb+9wqbxvMK/&#xD;&#xa;mL7CqIe9wvCavMKs7L3Ckau8wkpavMKt9LzCF8S+wmgKvsKCy73ClrG+wmIovcIns73Cmg+/wgw7&#xD;&#xa;wMI607/CpEq/wmwVvcJLsLvCMD68wuxdvcIeI7/C+bS+wpxfvsJyxsDC1tO/wmtrv8LNnb/CQiK+&#xD;&#xa;wlz7vcLa6L/CUMXBwtrQwcIAw8HCNJHBwvphwMKqc7/CSkW/wjkvwMK8ccHCHmDBwlKAwcKu+MDC&#xD;&#xa;zErCwuqgwsLa+MLC753DwmjuxcLEWMfCkePFwo47xsKnX8XC7tTCwuf3wsL+HcLCTcTBwmg6w8Is&#xD;&#xa;RMPC+qjDwiyGxMLi58TCnWvFwpjsxsKzCMbCyCTDwpM2wcJWGMPCvuDFwh42xsIfyMTCeLTFwuH7&#xD;&#xa;xMJctcfCVv3HwpTGx8J8b8jCqhjHwrgkx8LXNsfCZkLGwnxSxcL8csXCbu7FwsaQyMLa68fCo0XH&#xD;&#xa;woruxMJGHsbCORbJwry2yMLIUsfCxlfGwmLoxcLSPMnCYPDJwkw3yMKc7crC8vDLwug2y8Lu28vC&#xD;&#xa;OKvMwvLpysKGj8rCtNXLwrMay8KdGMrCUr3JwgIVy8J64MvCkbTJwjh4x8JGI8bCvBXHwnoPycKN&#xD;&#xa;Ss3CuC/Nwuywy8IkJ8zCx9/KwnB5ycKnk8nCenLJwnN6ycKc+sjCLFzJwuTrzMJkJM/CY5vOwoYO&#xD;&#xa;zsLU987CVKfNwiZZzcJQxNDCICHVwi0d18Kc29jCIF/YwtKo2MKeBNvCwpTawmY/2sJXPdvCZZXY&#xD;&#xa;whB818IQNdjCDF3XwtWC1sIGF9fCfFfXwkBy2MJ6+9nC1hfZwi5k2cJlfNjCnEPYwm/N1cKGOdXC&#xD;&#xa;Yk/XwgXL2MJSytfCgpTWwqTT1sJOGtnCrF/ZwtcT2cK08NjCscHZwpQ72sLJ/NrCy3zYwmCk18LE&#xD;&#xa;O9fC6hbYwtYU2cJN/dnC1EbZwrw/2cIqyNbCDr7Xwvb02cLQ+dnCaJvXwuYO18KSodnC1NnawtJJ&#xD;&#xa;18ISLtjC90nawoel2cIwl9jCi0XZwih328Ks7NjC5KzZwqui2cJw0tjCukLYws+O2MJaqtrCUuXa&#xD;&#xa;wviX2MIKxtfCnqXXwhjI2MJwAtvCIFvcwgCL2cJ0/djCdyXawh9H2cJ+ntfCy4TXwhqF2MJ68NnC&#xD;&#xa;CzvYwljT2cIkP9vCIs/bwjpB2sK2A9rCXt/awjZH2sIfltvCKWPcwjp53MKrGd3CaBPewj/03MJm&#xD;&#xa;U97CphfgwlJp3cKQpt3Crxjewm7d28Kq/9vCNNXcwqY728IUH9vCkirbwgIt28KK19zCjmzdwoBH&#xD;&#xa;3MIAUtvCUq3bwo8f28Ig09jCiyfZwhbx2sLWe9zCvgzbwmwI2sI2nNvC0lvdwg6128I8PNvCLufa&#xD;&#xa;wkyK28KkitzCJIDcwmAO28L0TNrCDHXawjla28IQkdzCoCDcwjRI3MJVUdvCtujZwnCs2sK8Yd3C&#xD;&#xa;iGbbwuSB2cImFNvCCI7rwoA/l8JLuYTCrOB9wgsMfMJoG4LCaWeFwkohjMJdoYvCYv6LwlnvjcKf&#xD;&#xa;nYzChXWPwlcejsL6fo/C5OmQwgVTj8IVMI/COiWRwoWFkcJ2tYzC8I6MwuQbjcJvEo/ClwGRwheQ&#xD;&#xa;lsK8+pbCN5qVwlielcJ905rCmu+fwst0ncIC/JvCdIWdws3snsKxC5zCfh2cwniFnMJRypzCtRag&#xD;&#xa;wuoCosJQt6DCzoegwhY9ocIWN6PCsNqkwrSlpMJ6maTCYpCkwmLvo8Li+KPCyEamwnBNqMLMcqrC&#xD;&#xa;v2GswoS+q8Kk86vCVACuwnvUr8JxZa/CqHqswrdXq8LqT6zCZsuswhZxrMLBX67CnmqvwpYyrsKc&#xD;&#xa;pq3CJFGvwghrsMK3y6/CXoCtwmWZr8ICi7DCgRezwogSs8Joq7LCm0Sxwuz/scIfibTCOOK1wlIM&#xD;&#xa;t8K87LfCj3K3wqDYs8KT1bLCVsW0wnZ0tcJGhLXCfPe0ws/ntcLGXrbCzAG1wtXdtcKxxrTC1Ay1&#xD;&#xa;wquGtcLjELbC8Zi2wl7rtsJBYbbCMF+1wrEutMKuibTCSFa1wpvktMIu3rTCtGe4wjaduMIKErfC&#xD;&#xa;SLa1wvS/tsJmZrjCdn63whjft8Ie47rCfdi5wmjpt8KKCLjCXmC5wsOQt8JDGbfCK4m4wmpvuMLL&#xD;&#xa;nLjC80q4wjUVusKunLjC1Be5wg4cuMLxCbjCwfW4wmi7ucIOdbvCbLG6whqdusKYErrCbpC4wmq0&#xD;&#xa;ucIoWrvCaNe6ws4iu8LSc7zCUNa7wuJZvMIwLL3CWe28wps2v8J2l77Cv3W+wvgavsKAwrzCQCy8&#xD;&#xa;wgBRu8Km8brChSa6wuM4u8IaaL3Cf5y9wg4hvMLur7vCIpO9wm0fvcIGNLzC7Le8wvKgvMKQrLzC&#xD;&#xa;p6+9wtYtvsJcxbzCQC29wjDqvcKeNbzCH2W8wpbZvsLCTL7CnjO+wuIsvsJs67vCwLq9wiKhvsLs&#xD;&#xa;o73C5Du9wqqhvcLwKr7C2kq/wqEMv8LVCb7Cpla+wsXpvMIs6bvC/fO8wueCvsIM4b3CxtC+wmTo&#xD;&#xa;vcI+arzCTNe8wiFNv8IvKL/Cpg+/woK1v8L4i7/CNv2+wmsVv8KWj77CVym+wnAlv8Joa8DCFDzA&#xD;&#xa;wiQYwcLSIcHCxILAwuxKvsJYm77CPoHAwiYPwcLuy77CcQa+wrB4vcKwYLzCxKW8worIvcIlzr/C&#xD;&#xa;OMC+wuRDvcJGZ7zCxFi9wuQzvMLPbbvCwIe+wm7bvcLm9L3COH6+wuuJvMK2B73CYb+9wqbxvMK/&#xD;&#xa;mL7CqIe9wvCavMKs7L3Ckau8wkpavMKt9LzCF8S+wmgKvsKCy73ClrG+wmIovcIns73Cmg+/wgw7&#xD;&#xa;wMI607/CpEq/wmwVvcJLsLvCMD68wuxdvcIeI7/C+bS+wpxfvsJyxsDC1tO/wmtrv8LNnb/CQiK+&#xD;&#xa;wlz7vcLa6L/CUMXBwtrQwcIAw8HCNJHBwvphwMKqc7/CSkW/wjkvwMK8ccHCHmDBwlKAwcKu+MDC&#xD;&#xa;zErCwuqgwsLa+MLC753DwmjuxcLEWMfCkePFwo47xsKnX8XC7tTCwuf3wsL+HcLCTcTBwmg6w8Is&#xD;&#xa;RMPC+qjDwiyGxMLi58TCnWvFwpjsxsKzCMbCyCTDwpM2wcJWGMPCvuDFwh42xsIfyMTCeLTFwuH7&#xD;&#xa;xMJctcfCVv3HwpTGx8J8b8jCqhjHwrgkx8LXNsfCZkLGwnxSxcL8csXCbu7FwsaQyMLa68fCo0XH&#xD;&#xa;woruxMJGHsbCORbJwry2yMLIUsfCxlfGwmLoxcLSPMnCYPDJwkw3yMKc7crC8vDLwug2y8Lu28vC&#xD;&#xa;OKvMwvLpysKGj8rCtNXLwrMay8KdGMrCUr3JwgIVy8J64MvCkbTJwjh4x8JGI8bCvBXHwnoPycKN&#xD;&#xa;Ss3CuC/Nwuywy8IkJ8zCx9/KwnB5ycKnk8nCenLJwnN6ycKc+sjCLFzJwuTrzMJkJM/CY5vOwoYO&#xD;&#xa;zsLU987CVKfNwiZZzcJQxNDCICHVwi0d18Kc29jCIF/YwtKo2MKeBNvCwpTawmY/2sJXPdvCZZXY&#xD;&#xa;whB818IQNdjCDF3XwtWC1sIGF9fCfFfXwkBy2MJ6+9nC1hfZwi5k2cJlfNjCnEPYwm/N1cKGOdXC&#xD;&#xa;Yk/XwgXL2MJSytfCgpTWwqTT1sJOGtnCrF/ZwtcT2cK08NjCscHZwpQ72sLJ/NrCy3zYwmCk18LE&#xD;&#xa;O9fC6hbYwtYU2cJN/dnC1EbZwrw/2cIqyNbCDr7Xwvb02cLQ+dnCaJvXwuYO18KSodnC1NnawtJJ&#xD;&#xa;18ISLtjC90nawoel2cIwl9jCi0XZwih328Ks7NjC5KzZwqui2cJw0tjCukLYws+O2MJaqtrCUuXa&#xD;&#xa;wviX2MIKxtfCnqXXwhjI2MJwAtvCIFvcwgCL2cJ0/djCdyXawh9H2cJ+ntfCy4TXwhqF2MJ68NnC&#xD;&#xa;CzvYwljT2cIkP9vCIs/bwjpB2sK2A9rCXt/awjZH2sIfltvCKWPcwjp53MKrGd3CaBPewj/03MJm&#xD;&#xa;U97CphfgwlJp3cKQpt3Crxjewm7d28Kq/9vCNNXcwqY728IUH9vCkirbwgIt28KK19zCjmzdwoBH&#xD;&#xa;3MIAUtvCUq3bwo8f28Ig09jCiyfZwhbx2sLWe9zCvgzbwmwI2sI2nNvC0lvdwg6128I8PNvCLufa&#xD;&#xa;wkyK28KkitzCJIDcwmAO28L0TNrCDHXawjla28IQkdzCoCDcwjRI3MJVUdvCtujZwnCs2sK8Yd3C&#xD;&#xa;iGbbwuSB2cImFNvCCI7r" leadInLength="0/1"  />
            </Keyframes>
           </Parameter>
           </Parameters>
          </GenericEffect>
          <GenericEffect id="7561" name = "Declipper" >
           <Parameters>
           <InterpolatingParam id="7562" interp="linr"  time="0/1" value="-1" leadInLength="0/1"   name="sensitivity"/>
           </Parameters>
          </GenericEffect>
          <GenericEffect id="7563" name = "Declicker" >
           <Parameters>
           <InterpolatingParam id="7564" interp="linr"  time="0/1" value="3" leadInLength="0/1"   name="sensitivity"/>
           </Parameters>
          </GenericEffect>
         </Effects>
         <Attributes>
          <Attribute id="7565" value="" name="ident"/>
          <Attribute id="7566" value="0" name="mixToMono"/>
         </Attributes>
         <MetaData>
          <entry key="WinSubProjectDisplayName" val=""/>
         </MetaData>
         <ExtraData>
          <Entry key="ZoomPanBin">
           <ZoomPanBin id="7567"  >
            <ZoomPanKeyframes>
            </ZoomPanKeyframes>
           </ZoomPanBin>
          </Entry>
          <Entry key="CursorEffectBin">
           <CursorEffectBin id="7568"  >
            <CursorEffectKeyframes>
            </CursorEffectKeyframes>
           </CursorEffectBin>
          </Entry>
         </ExtraData>
         <GenericTrack id="7569"  >
          <Attributes>
           <Attribute id="7570" value="" name="ident"/>
           <Attribute id="7571" value="0" name="audioMuted"/>
           <Attribute id="7572" value="0" name="videoHidden"/>
          </Attributes>
          <MetaData>
           <entry key="IsLocked" val="False"/>
           <entry key="WinTrackHeight" val="0"/>
          </MetaData>
          <Medias>
           <AMFile id="7573" start="0" duration="117" scalar="1/1" mediaStart="0/1" mediaDuration="117/1" trackNumber="0" src="29" channelNumber="0" >
            <Parameters>
             <InterpolatingParam id="7574" interp="linr"  time="0/1" value="1" leadInLength="0/1"  name="volume"/>
             <Parameter id="7575"  name="captions"/>
            </Parameters>
            <Attributes>
             <Attribute id="7576" value="" name="ident"/>
             <Attribute id="7577" value="48000" name="sampleRate"/>
             <Attribute id="7578" value="16" name="bitDepth"/>
             <Attribute id="7579" value="1" name="gain"/>
             <Attribute id="7580" value="0" name="mixToMono"/>
            </Attributes>
            <MetaData>
             <entry key="WinSubProjectDisplayName" val=""/>
            </MetaData>
           </AMFile>
           <AMFile id="7581" start="117" duration="13515" scalar="1/1" mediaStart="131/1" mediaDuration="13515/1" trackNumber="0" src="29" channelNumber="0" >
            <Parameters>
             <InterpolatingParam id="7582" interp="linr"  time="0/1" value="1" leadInLength="0/1"  name="volume"/>
             <Parameter id="7583"  name="captions"/>
            </Parameters>
            <Attributes>
             <Attribute id="7584" value="" name="ident"/>
             <Attribute id="7585" value="48000" name="sampleRate"/>
             <Attribute id="7586" value="16" name="bitDepth"/>
             <Attribute id="7587" value="1" name="gain"/>
             <Attribute id="7588" value="0" name="mixToMono"/>
            </Attributes>
            <MetaData>
             <entry key="WinSubProjectDisplayName" val=""/>
            </MetaData>
           </AMFile>
          </Medias>
         </GenericTrack>
        </StitchedMedia>
        <AMFile id="7589" start="362" duration="230" scalar="1/1" mediaStart="415/1" mediaDuration="230/1" trackNumber="0" src="29" channelNumber="0" >
         <Parameters>
          <InterpolatingParam id="7590" interp="linr"  name="volume">
           <Keyframes>
           <Keyframe id="7591"  time="0/1" value="1.5625" leadInLength="0/1"  />
           <Keyframe id="7592"  time="415/1" value="1.5625" leadInLength="0/1"  />
           </Keyframes>
          </InterpolatingParam>
          <Parameter id="7593"  name="captions"/>
         </Parameters>
         <Effects>
          <GenericEffect id="7594" name = "WinCompression" >
           <Parameters>
           <InterpolatingParam id="7595" interp="linr"  time="0/1" value="0" leadInLength="0/1"   name="attack"/>
           <InterpolatingParam id="7596" interp="linr"  time="0/1" value="9" leadInLength="0/1"   name="gain"/>
           <Parameter id="7597"   name="preset">
            <Keyframes>
            <Keyframe id="7598"  time="0/1" value="1" leadInLength="0/1"  />
            </Keyframes>
           </Parameter>
           <InterpolatingParam id="7599" interp="linr"  time="0/1" value="10" leadInLength="0/1"   name="ratio"/>
           <InterpolatingParam id="7600" interp="linr"  time="0/1" value="3500" leadInLength="0/1"   name="release"/>
           <InterpolatingParam id="7601" interp="linr"  time="0/1" value="-20" leadInLength="0/1"   name="threshold"/>
           </Parameters>
          </GenericEffect>
          <GenericEffect id="7602" name = "NoiseReduction" >
           <Parameters>
           <InterpolatingParam id="7603" interp="linr"  time="0/1" value="20" leadInLength="0/1"   name="denoiserAmount"/>
           <InterpolatingParam id="7604" interp="linr"  time="0/1" value="0" leadInLength="0/1"   name="denoiserThreshold"/>
           <Parameter id="7605"   name="noiseProfile">
            <Keyframes>
            <Keyframe id="7606"  time="0/1" value="FBAAAAIAAABErAAAAQIAAIA/l8JLuYTCrOB9wgsMfMJoG4LCaWeFwkohjMJdoYvCYv6LwlnvjcKf&#xD;&#xa;nYzChXWPwlcejsL6fo/C5OmQwgVTj8IVMI/COiWRwoWFkcJ2tYzC8I6MwuQbjcJvEo/ClwGRwheQ&#xD;&#xa;lsK8+pbCN5qVwlielcJ905rCmu+fwst0ncIC/JvCdIWdws3snsKxC5zCfh2cwniFnMJRypzCtRag&#xD;&#xa;wuoCosJQt6DCzoegwhY9ocIWN6PCsNqkwrSlpMJ6maTCYpCkwmLvo8Li+KPCyEamwnBNqMLMcqrC&#xD;&#xa;v2GswoS+q8Kk86vCVACuwnvUr8JxZa/CqHqswrdXq8LqT6zCZsuswhZxrMLBX67CnmqvwpYyrsKc&#xD;&#xa;pq3CJFGvwghrsMK3y6/CXoCtwmWZr8ICi7DCgRezwogSs8Joq7LCm0Sxwuz/scIfibTCOOK1wlIM&#xD;&#xa;t8K87LfCj3K3wqDYs8KT1bLCVsW0wnZ0tcJGhLXCfPe0ws/ntcLGXrbCzAG1wtXdtcKxxrTC1Ay1&#xD;&#xa;wquGtcLjELbC8Zi2wl7rtsJBYbbCMF+1wrEutMKuibTCSFa1wpvktMIu3rTCtGe4wjaduMIKErfC&#xD;&#xa;SLa1wvS/tsJmZrjCdn63whjft8Ie47rCfdi5wmjpt8KKCLjCXmC5wsOQt8JDGbfCK4m4wmpvuMLL&#xD;&#xa;nLjC80q4wjUVusKunLjC1Be5wg4cuMLxCbjCwfW4wmi7ucIOdbvCbLG6whqdusKYErrCbpC4wmq0&#xD;&#xa;ucIoWrvCaNe6ws4iu8LSc7zCUNa7wuJZvMIwLL3CWe28wps2v8J2l77Cv3W+wvgavsKAwrzCQCy8&#xD;&#xa;wgBRu8Km8brChSa6wuM4u8IaaL3Cf5y9wg4hvMLur7vCIpO9wm0fvcIGNLzC7Le8wvKgvMKQrLzC&#xD;&#xa;p6+9wtYtvsJcxbzCQC29wjDqvcKeNbzCH2W8wpbZvsLCTL7CnjO+wuIsvsJs67vCwLq9wiKhvsLs&#xD;&#xa;o73C5Du9wqqhvcLwKr7C2kq/wqEMv8LVCb7Cpla+wsXpvMIs6bvC/fO8wueCvsIM4b3CxtC+wmTo&#xD;&#xa;vcI+arzCTNe8wiFNv8IvKL/Cpg+/woK1v8L4i7/CNv2+wmsVv8KWj77CVym+wnAlv8Joa8DCFDzA&#xD;&#xa;wiQYwcLSIcHCxILAwuxKvsJYm77CPoHAwiYPwcLuy77CcQa+wrB4vcKwYLzCxKW8worIvcIlzr/C&#xD;&#xa;OMC+wuRDvcJGZ7zCxFi9wuQzvMLPbbvCwIe+wm7bvcLm9L3COH6+wuuJvMK2B73CYb+9wqbxvMK/&#xD;&#xa;mL7CqIe9wvCavMKs7L3Ckau8wkpavMKt9LzCF8S+wmgKvsKCy73ClrG+wmIovcIns73Cmg+/wgw7&#xD;&#xa;wMI607/CpEq/wmwVvcJLsLvCMD68wuxdvcIeI7/C+bS+wpxfvsJyxsDC1tO/wmtrv8LNnb/CQiK+&#xD;&#xa;wlz7vcLa6L/CUMXBwtrQwcIAw8HCNJHBwvphwMKqc7/CSkW/wjkvwMK8ccHCHmDBwlKAwcKu+MDC&#xD;&#xa;zErCwuqgwsLa+MLC753DwmjuxcLEWMfCkePFwo47xsKnX8XC7tTCwuf3wsL+HcLCTcTBwmg6w8Is&#xD;&#xa;RMPC+qjDwiyGxMLi58TCnWvFwpjsxsKzCMbCyCTDwpM2wcJWGMPCvuDFwh42xsIfyMTCeLTFwuH7&#xD;&#xa;xMJctcfCVv3HwpTGx8J8b8jCqhjHwrgkx8LXNsfCZkLGwnxSxcL8csXCbu7FwsaQyMLa68fCo0XH&#xD;&#xa;woruxMJGHsbCORbJwry2yMLIUsfCxlfGwmLoxcLSPMnCYPDJwkw3yMKc7crC8vDLwug2y8Lu28vC&#xD;&#xa;OKvMwvLpysKGj8rCtNXLwrMay8KdGMrCUr3JwgIVy8J64MvCkbTJwjh4x8JGI8bCvBXHwnoPycKN&#xD;&#xa;Ss3CuC/Nwuywy8IkJ8zCx9/KwnB5ycKnk8nCenLJwnN6ycKc+sjCLFzJwuTrzMJkJM/CY5vOwoYO&#xD;&#xa;zsLU987CVKfNwiZZzcJQxNDCICHVwi0d18Kc29jCIF/YwtKo2MKeBNvCwpTawmY/2sJXPdvCZZXY&#xD;&#xa;whB818IQNdjCDF3XwtWC1sIGF9fCfFfXwkBy2MJ6+9nC1hfZwi5k2cJlfNjCnEPYwm/N1cKGOdXC&#xD;&#xa;Yk/XwgXL2MJSytfCgpTWwqTT1sJOGtnCrF/ZwtcT2cK08NjCscHZwpQ72sLJ/NrCy3zYwmCk18LE&#xD;&#xa;O9fC6hbYwtYU2cJN/dnC1EbZwrw/2cIqyNbCDr7Xwvb02cLQ+dnCaJvXwuYO18KSodnC1NnawtJJ&#xD;&#xa;18ISLtjC90nawoel2cIwl9jCi0XZwih328Ks7NjC5KzZwqui2cJw0tjCukLYws+O2MJaqtrCUuXa&#xD;&#xa;wviX2MIKxtfCnqXXwhjI2MJwAtvCIFvcwgCL2cJ0/djCdyXawh9H2cJ+ntfCy4TXwhqF2MJ68NnC&#xD;&#xa;CzvYwljT2cIkP9vCIs/bwjpB2sK2A9rCXt/awjZH2sIfltvCKWPcwjp53MKrGd3CaBPewj/03MJm&#xD;&#xa;U97CphfgwlJp3cKQpt3Crxjewm7d28Kq/9vCNNXcwqY728IUH9vCkirbwgIt28KK19zCjmzdwoBH&#xD;&#xa;3MIAUtvCUq3bwo8f28Ig09jCiyfZwhbx2sLWe9zCvgzbwmwI2sI2nNvC0lvdwg6128I8PNvCLufa&#xD;&#xa;wkyK28KkitzCJIDcwmAO28L0TNrCDHXawjla28IQkdzCoCDcwjRI3MJVUdvCtujZwnCs2sK8Yd3C&#xD;&#xa;iGbbwuSB2cImFNvCCI7rwoA/l8JLuYTCrOB9wgsMfMJoG4LCaWeFwkohjMJdoYvCYv6LwlnvjcKf&#xD;&#xa;nYzChXWPwlcejsL6fo/C5OmQwgVTj8IVMI/COiWRwoWFkcJ2tYzC8I6MwuQbjcJvEo/ClwGRwheQ&#xD;&#xa;lsK8+pbCN5qVwlielcJ905rCmu+fwst0ncIC/JvCdIWdws3snsKxC5zCfh2cwniFnMJRypzCtRag&#xD;&#xa;wuoCosJQt6DCzoegwhY9ocIWN6PCsNqkwrSlpMJ6maTCYpCkwmLvo8Li+KPCyEamwnBNqMLMcqrC&#xD;&#xa;v2GswoS+q8Kk86vCVACuwnvUr8JxZa/CqHqswrdXq8LqT6zCZsuswhZxrMLBX67CnmqvwpYyrsKc&#xD;&#xa;pq3CJFGvwghrsMK3y6/CXoCtwmWZr8ICi7DCgRezwogSs8Joq7LCm0Sxwuz/scIfibTCOOK1wlIM&#xD;&#xa;t8K87LfCj3K3wqDYs8KT1bLCVsW0wnZ0tcJGhLXCfPe0ws/ntcLGXrbCzAG1wtXdtcKxxrTC1Ay1&#xD;&#xa;wquGtcLjELbC8Zi2wl7rtsJBYbbCMF+1wrEutMKuibTCSFa1wpvktMIu3rTCtGe4wjaduMIKErfC&#xD;&#xa;SLa1wvS/tsJmZrjCdn63whjft8Ie47rCfdi5wmjpt8KKCLjCXmC5wsOQt8JDGbfCK4m4wmpvuMLL&#xD;&#xa;nLjC80q4wjUVusKunLjC1Be5wg4cuMLxCbjCwfW4wmi7ucIOdbvCbLG6whqdusKYErrCbpC4wmq0&#xD;&#xa;ucIoWrvCaNe6ws4iu8LSc7zCUNa7wuJZvMIwLL3CWe28wps2v8J2l77Cv3W+wvgavsKAwrzCQCy8&#xD;&#xa;wgBRu8Km8brChSa6wuM4u8IaaL3Cf5y9wg4hvMLur7vCIpO9wm0fvcIGNLzC7Le8wvKgvMKQrLzC&#xD;&#xa;p6+9wtYtvsJcxbzCQC29wjDqvcKeNbzCH2W8wpbZvsLCTL7CnjO+wuIsvsJs67vCwLq9wiKhvsLs&#xD;&#xa;o73C5Du9wqqhvcLwKr7C2kq/wqEMv8LVCb7Cpla+wsXpvMIs6bvC/fO8wueCvsIM4b3CxtC+wmTo&#xD;&#xa;vcI+arzCTNe8wiFNv8IvKL/Cpg+/woK1v8L4i7/CNv2+wmsVv8KWj77CVym+wnAlv8Joa8DCFDzA&#xD;&#xa;wiQYwcLSIcHCxILAwuxKvsJYm77CPoHAwiYPwcLuy77CcQa+wrB4vcKwYLzCxKW8worIvcIlzr/C&#xD;&#xa;OMC+wuRDvcJGZ7zCxFi9wuQzvMLPbbvCwIe+wm7bvcLm9L3COH6+wuuJvMK2B73CYb+9wqbxvMK/&#xD;&#xa;mL7CqIe9wvCavMKs7L3Ckau8wkpavMKt9LzCF8S+wmgKvsKCy73ClrG+wmIovcIns73Cmg+/wgw7&#xD;&#xa;wMI607/CpEq/wmwVvcJLsLvCMD68wuxdvcIeI7/C+bS+wpxfvsJyxsDC1tO/wmtrv8LNnb/CQiK+&#xD;&#xa;wlz7vcLa6L/CUMXBwtrQwcIAw8HCNJHBwvphwMKqc7/CSkW/wjkvwMK8ccHCHmDBwlKAwcKu+MDC&#xD;&#xa;zErCwuqgwsLa+MLC753DwmjuxcLEWMfCkePFwo47xsKnX8XC7tTCwuf3wsL+HcLCTcTBwmg6w8Is&#xD;&#xa;RMPC+qjDwiyGxMLi58TCnWvFwpjsxsKzCMbCyCTDwpM2wcJWGMPCvuDFwh42xsIfyMTCeLTFwuH7&#xD;&#xa;xMJctcfCVv3HwpTGx8J8b8jCqhjHwrgkx8LXNsfCZkLGwnxSxcL8csXCbu7FwsaQyMLa68fCo0XH&#xD;&#xa;woruxMJGHsbCORbJwry2yMLIUsfCxlfGwmLoxcLSPMnCYPDJwkw3yMKc7crC8vDLwug2y8Lu28vC&#xD;&#xa;OKvMwvLpysKGj8rCtNXLwrMay8KdGMrCUr3JwgIVy8J64MvCkbTJwjh4x8JGI8bCvBXHwnoPycKN&#xD;&#xa;Ss3CuC/Nwuywy8IkJ8zCx9/KwnB5ycKnk8nCenLJwnN6ycKc+sjCLFzJwuTrzMJkJM/CY5vOwoYO&#xD;&#xa;zsLU987CVKfNwiZZzcJQxNDCICHVwi0d18Kc29jCIF/YwtKo2MKeBNvCwpTawmY/2sJXPdvCZZXY&#xD;&#xa;whB818IQNdjCDF3XwtWC1sIGF9fCfFfXwkBy2MJ6+9nC1hfZwi5k2cJlfNjCnEPYwm/N1cKGOdXC&#xD;&#xa;Yk/XwgXL2MJSytfCgpTWwqTT1sJOGtnCrF/ZwtcT2cK08NjCscHZwpQ72sLJ/NrCy3zYwmCk18LE&#xD;&#xa;O9fC6hbYwtYU2cJN/dnC1EbZwrw/2cIqyNbCDr7Xwvb02cLQ+dnCaJvXwuYO18KSodnC1NnawtJJ&#xD;&#xa;18ISLtjC90nawoel2cIwl9jCi0XZwih328Ks7NjC5KzZwqui2cJw0tjCukLYws+O2MJaqtrCUuXa&#xD;&#xa;wviX2MIKxtfCnqXXwhjI2MJwAtvCIFvcwgCL2cJ0/djCdyXawh9H2cJ+ntfCy4TXwhqF2MJ68NnC&#xD;&#xa;CzvYwljT2cIkP9vCIs/bwjpB2sK2A9rCXt/awjZH2sIfltvCKWPcwjp53MKrGd3CaBPewj/03MJm&#xD;&#xa;U97CphfgwlJp3cKQpt3Crxjewm7d28Kq/9vCNNXcwqY728IUH9vCkirbwgIt28KK19zCjmzdwoBH&#xD;&#xa;3MIAUtvCUq3bwo8f28Ig09jCiyfZwhbx2sLWe9zCvgzbwmwI2sI2nNvC0lvdwg6128I8PNvCLufa&#xD;&#xa;wkyK28KkitzCJIDcwmAO28L0TNrCDHXawjla28IQkdzCoCDcwjRI3MJVUdvCtujZwnCs2sK8Yd3C&#xD;&#xa;iGbbwuSB2cImFNvCCI7r" leadInLength="0/1"  />
            </Keyframes>
           </Parameter>
           </Parameters>
          </GenericEffect>
          <GenericEffect id="7607" name = "Declipper" >
           <Parameters>
           <InterpolatingParam id="7608" interp="linr"  time="0/1" value="-1" leadInLength="0/1"   name="sensitivity"/>
           </Parameters>
          </GenericEffect>
          <GenericEffect id="7609" name = "Declicker" >
           <Parameters>
           <InterpolatingParam id="7610" interp="linr"  time="0/1" value="3" leadInLength="0/1"   name="sensitivity"/>
           </Parameters>
          </GenericEffect>
         </Effects>
         <Attributes>
          <Attribute id="7611" value="" name="ident"/>
          <Attribute id="7612" value="48000" name="sampleRate"/>
          <Attribute id="7613" value="16" name="bitDepth"/>
          <Attribute id="7614" value="1" name="gain"/>
          <Attribute id="7615" value="0" name="mixToMono"/>
         </Attributes>
         <MetaData>
          <entry key="WinSubProjectDisplayName" val=""/>
         </MetaData>
        </AMFile>
        <StitchedMedia id="7616" start="604" duration="396" scalar="1/1" mediaStart="983/1" mediaDuration="396/1" minMediaStart="0/1" >
         <Transformer>
          <VectorParam id="7617"  name="translation">
           <InterpolatingParam id="7618" interp="linr"  time="0/1" value="0" leadInLength="0/1"  />
           <InterpolatingParam id="7619" interp="linr"  time="0/1" value="0" leadInLength="0/1"  />
           <InterpolatingParam id="7620" interp="linr"  time="0/1" value="0" leadInLength="0/1"  />
          </VectorParam>
          <VectorParam id="7621"  name="rotation">
           <InterpolatingParam id="7622" interp="linr"  time="0/1" value="0" leadInLength="0/1"  />
           <InterpolatingParam id="7623" interp="linr"  time="0/1" value="0" leadInLength="0/1"  />
           <InterpolatingParam id="7624" interp="linr"  time="0/1" value="0" leadInLength="0/1"  />
          </VectorParam>
          <VectorParam id="7625"  name="shear">
           <InterpolatingParam id="7626" interp="linr"  time="0/1" value="0" leadInLength="0/1"  />
           <InterpolatingParam id="7627" interp="linr"  time="0/1" value="0" leadInLength="0/1"  />
           <InterpolatingParam id="7628" interp="linr"  time="0/1" value="0" leadInLength="0/1"  />
          </VectorParam>
          <VectorParam id="7629"  name="scale">
           <InterpolatingParam id="7630" interp="linr"  time="0/1" value="1" leadInLength="0/1"  />
           <InterpolatingParam id="7631" interp="linr"  time="0/1" value="1" leadInLength="0/1"  />
           <InterpolatingParam id="7632" interp="linr"  time="0/1" value="1" leadInLength="0/1"  />
          </VectorParam>
          <VectorParam id="7633"  name="anchor">
           <InterpolatingParam id="7634" interp="linr"  time="0/1" value="0" leadInLength="0/1"  />
           <InterpolatingParam id="7635" interp="linr"  time="0/1" value="0" leadInLength="0/1"  />
           <InterpolatingParam id="7636" interp="linr"  time="0/1" value="0" leadInLength="0/1"  />
          </VectorParam>
         </Transformer>
         <Parameters>
          <InterpolatingParam id="7637" interp="linr"  time="0/1" value="1" leadInLength="0/1"  name="cursorOpacity"/>
          <InterpolatingParam id="7638" interp="linr"  time="0/1" value="1" leadInLength="0/1"  name="cursorScale"/>
          <InterpolatingParam id="7639" interp="linr"  time="0/1" value="1.5625" leadInLength="0/1"  name="volume"/>
          <Parameter id="7640"  name="captions"/>
         </Parameters>
         <Effects>
          <GenericEffect id="7641" name = "WinCompression" >
           <Parameters>
           <InterpolatingParam id="7642" interp="linr"  time="0/1" value="0" leadInLength="0/1"   name="attack"/>
           <InterpolatingParam id="7643" interp="linr"  time="0/1" value="9" leadInLength="0/1"   name="gain"/>
           <Parameter id="7644"   name="preset">
            <Keyframes>
            <Keyframe id="7645"  time="0/1" value="1" leadInLength="0/1"  />
            </Keyframes>
           </Parameter>
           <InterpolatingParam id="7646" interp="linr"  time="0/1" value="10" leadInLength="0/1"   name="ratio"/>
           <InterpolatingParam id="7647" interp="linr"  time="0/1" value="3500" leadInLength="0/1"   name="release"/>
           <InterpolatingParam id="7648" interp="linr"  time="0/1" value="-20" leadInLength="0/1"   name="threshold"/>
           </Parameters>
          </GenericEffect>
          <GenericEffect id="7649" name = "NoiseReduction" >
           <Parameters>
           <InterpolatingParam id="7650" interp="linr"  time="0/1" value="20" leadInLength="0/1"   name="denoiserAmount"/>
           <InterpolatingParam id="7651" interp="linr"  time="0/1" value="0" leadInLength="0/1"   name="denoiserThreshold"/>
           <Parameter id="7652"   name="noiseProfile">
            <Keyframes>
            <Keyframe id="7653"  time="0/1" value="FBAAAAIAAABErAAAAQIAAIA/l8JLuYTCrOB9wgsMfMJoG4LCaWeFwkohjMJdoYvCYv6LwlnvjcKf&#xD;&#xa;nYzChXWPwlcejsL6fo/C5OmQwgVTj8IVMI/COiWRwoWFkcJ2tYzC8I6MwuQbjcJvEo/ClwGRwheQ&#xD;&#xa;lsK8+pbCN5qVwlielcJ905rCmu+fwst0ncIC/JvCdIWdws3snsKxC5zCfh2cwniFnMJRypzCtRag&#xD;&#xa;wuoCosJQt6DCzoegwhY9ocIWN6PCsNqkwrSlpMJ6maTCYpCkwmLvo8Li+KPCyEamwnBNqMLMcqrC&#xD;&#xa;v2GswoS+q8Kk86vCVACuwnvUr8JxZa/CqHqswrdXq8LqT6zCZsuswhZxrMLBX67CnmqvwpYyrsKc&#xD;&#xa;pq3CJFGvwghrsMK3y6/CXoCtwmWZr8ICi7DCgRezwogSs8Joq7LCm0Sxwuz/scIfibTCOOK1wlIM&#xD;&#xa;t8K87LfCj3K3wqDYs8KT1bLCVsW0wnZ0tcJGhLXCfPe0ws/ntcLGXrbCzAG1wtXdtcKxxrTC1Ay1&#xD;&#xa;wquGtcLjELbC8Zi2wl7rtsJBYbbCMF+1wrEutMKuibTCSFa1wpvktMIu3rTCtGe4wjaduMIKErfC&#xD;&#xa;SLa1wvS/tsJmZrjCdn63whjft8Ie47rCfdi5wmjpt8KKCLjCXmC5wsOQt8JDGbfCK4m4wmpvuMLL&#xD;&#xa;nLjC80q4wjUVusKunLjC1Be5wg4cuMLxCbjCwfW4wmi7ucIOdbvCbLG6whqdusKYErrCbpC4wmq0&#xD;&#xa;ucIoWrvCaNe6ws4iu8LSc7zCUNa7wuJZvMIwLL3CWe28wps2v8J2l77Cv3W+wvgavsKAwrzCQCy8&#xD;&#xa;wgBRu8Km8brChSa6wuM4u8IaaL3Cf5y9wg4hvMLur7vCIpO9wm0fvcIGNLzC7Le8wvKgvMKQrLzC&#xD;&#xa;p6+9wtYtvsJcxbzCQC29wjDqvcKeNbzCH2W8wpbZvsLCTL7CnjO+wuIsvsJs67vCwLq9wiKhvsLs&#xD;&#xa;o73C5Du9wqqhvcLwKr7C2kq/wqEMv8LVCb7Cpla+wsXpvMIs6bvC/fO8wueCvsIM4b3CxtC+wmTo&#xD;&#xa;vcI+arzCTNe8wiFNv8IvKL/Cpg+/woK1v8L4i7/CNv2+wmsVv8KWj77CVym+wnAlv8Joa8DCFDzA&#xD;&#xa;wiQYwcLSIcHCxILAwuxKvsJYm77CPoHAwiYPwcLuy77CcQa+wrB4vcKwYLzCxKW8worIvcIlzr/C&#xD;&#xa;OMC+wuRDvcJGZ7zCxFi9wuQzvMLPbbvCwIe+wm7bvcLm9L3COH6+wuuJvMK2B73CYb+9wqbxvMK/&#xD;&#xa;mL7CqIe9wvCavMKs7L3Ckau8wkpavMKt9LzCF8S+wmgKvsKCy73ClrG+wmIovcIns73Cmg+/wgw7&#xD;&#xa;wMI607/CpEq/wmwVvcJLsLvCMD68wuxdvcIeI7/C+bS+wpxfvsJyxsDC1tO/wmtrv8LNnb/CQiK+&#xD;&#xa;wlz7vcLa6L/CUMXBwtrQwcIAw8HCNJHBwvphwMKqc7/CSkW/wjkvwMK8ccHCHmDBwlKAwcKu+MDC&#xD;&#xa;zErCwuqgwsLa+MLC753DwmjuxcLEWMfCkePFwo47xsKnX8XC7tTCwuf3wsL+HcLCTcTBwmg6w8Is&#xD;&#xa;RMPC+qjDwiyGxMLi58TCnWvFwpjsxsKzCMbCyCTDwpM2wcJWGMPCvuDFwh42xsIfyMTCeLTFwuH7&#xD;&#xa;xMJctcfCVv3HwpTGx8J8b8jCqhjHwrgkx8LXNsfCZkLGwnxSxcL8csXCbu7FwsaQyMLa68fCo0XH&#xD;&#xa;woruxMJGHsbCORbJwry2yMLIUsfCxlfGwmLoxcLSPMnCYPDJwkw3yMKc7crC8vDLwug2y8Lu28vC&#xD;&#xa;OKvMwvLpysKGj8rCtNXLwrMay8KdGMrCUr3JwgIVy8J64MvCkbTJwjh4x8JGI8bCvBXHwnoPycKN&#xD;&#xa;Ss3CuC/Nwuywy8IkJ8zCx9/KwnB5ycKnk8nCenLJwnN6ycKc+sjCLFzJwuTrzMJkJM/CY5vOwoYO&#xD;&#xa;zsLU987CVKfNwiZZzcJQxNDCICHVwi0d18Kc29jCIF/YwtKo2MKeBNvCwpTawmY/2sJXPdvCZZXY&#xD;&#xa;whB818IQNdjCDF3XwtWC1sIGF9fCfFfXwkBy2MJ6+9nC1hfZwi5k2cJlfNjCnEPYwm/N1cKGOdXC&#xD;&#xa;Yk/XwgXL2MJSytfCgpTWwqTT1sJOGtnCrF/ZwtcT2cK08NjCscHZwpQ72sLJ/NrCy3zYwmCk18LE&#xD;&#xa;O9fC6hbYwtYU2cJN/dnC1EbZwrw/2cIqyNbCDr7Xwvb02cLQ+dnCaJvXwuYO18KSodnC1NnawtJJ&#xD;&#xa;18ISLtjC90nawoel2cIwl9jCi0XZwih328Ks7NjC5KzZwqui2cJw0tjCukLYws+O2MJaqtrCUuXa&#xD;&#xa;wviX2MIKxtfCnqXXwhjI2MJwAtvCIFvcwgCL2cJ0/djCdyXawh9H2cJ+ntfCy4TXwhqF2MJ68NnC&#xD;&#xa;CzvYwljT2cIkP9vCIs/bwjpB2sK2A9rCXt/awjZH2sIfltvCKWPcwjp53MKrGd3CaBPewj/03MJm&#xD;&#xa;U97CphfgwlJp3cKQpt3Crxjewm7d28Kq/9vCNNXcwqY728IUH9vCkirbwgIt28KK19zCjmzdwoBH&#xD;&#xa;3MIAUtvCUq3bwo8f28Ig09jCiyfZwhbx2sLWe9zCvgzbwmwI2sI2nNvC0lvdwg6128I8PNvCLufa&#xD;&#xa;wkyK28KkitzCJIDcwmAO28L0TNrCDHXawjla28IQkdzCoCDcwjRI3MJVUdvCtujZwnCs2sK8Yd3C&#xD;&#xa;iGbbwuSB2cImFNvCCI7rwoA/l8JLuYTCrOB9wgsMfMJoG4LCaWeFwkohjMJdoYvCYv6LwlnvjcKf&#xD;&#xa;nYzChXWPwlcejsL6fo/C5OmQwgVTj8IVMI/COiWRwoWFkcJ2tYzC8I6MwuQbjcJvEo/ClwGRwheQ&#xD;&#xa;lsK8+pbCN5qVwlielcJ905rCmu+fwst0ncIC/JvCdIWdws3snsKxC5zCfh2cwniFnMJRypzCtRag&#xD;&#xa;wuoCosJQt6DCzoegwhY9ocIWN6PCsNqkwrSlpMJ6maTCYpCkwmLvo8Li+KPCyEamwnBNqMLMcqrC&#xD;&#xa;v2GswoS+q8Kk86vCVACuwnvUr8JxZa/CqHqswrdXq8LqT6zCZsuswhZxrMLBX67CnmqvwpYyrsKc&#xD;&#xa;pq3CJFGvwghrsMK3y6/CXoCtwmWZr8ICi7DCgRezwogSs8Joq7LCm0Sxwuz/scIfibTCOOK1wlIM&#xD;&#xa;t8K87LfCj3K3wqDYs8KT1bLCVsW0wnZ0tcJGhLXCfPe0ws/ntcLGXrbCzAG1wtXdtcKxxrTC1Ay1&#xD;&#xa;wquGtcLjELbC8Zi2wl7rtsJBYbbCMF+1wrEutMKuibTCSFa1wpvktMIu3rTCtGe4wjaduMIKErfC&#xD;&#xa;SLa1wvS/tsJmZrjCdn63whjft8Ie47rCfdi5wmjpt8KKCLjCXmC5wsOQt8JDGbfCK4m4wmpvuMLL&#xD;&#xa;nLjC80q4wjUVusKunLjC1Be5wg4cuMLxCbjCwfW4wmi7ucIOdbvCbLG6whqdusKYErrCbpC4wmq0&#xD;&#xa;ucIoWrvCaNe6ws4iu8LSc7zCUNa7wuJZvMIwLL3CWe28wps2v8J2l77Cv3W+wvgavsKAwrzCQCy8&#xD;&#xa;wgBRu8Km8brChSa6wuM4u8IaaL3Cf5y9wg4hvMLur7vCIpO9wm0fvcIGNLzC7Le8wvKgvMKQrLzC&#xD;&#xa;p6+9wtYtvsJcxbzCQC29wjDqvcKeNbzCH2W8wpbZvsLCTL7CnjO+wuIsvsJs67vCwLq9wiKhvsLs&#xD;&#xa;o73C5Du9wqqhvcLwKr7C2kq/wqEMv8LVCb7Cpla+wsXpvMIs6bvC/fO8wueCvsIM4b3CxtC+wmTo&#xD;&#xa;vcI+arzCTNe8wiFNv8IvKL/Cpg+/woK1v8L4i7/CNv2+wmsVv8KWj77CVym+wnAlv8Joa8DCFDzA&#xD;&#xa;wiQYwcLSIcHCxILAwuxKvsJYm77CPoHAwiYPwcLuy77CcQa+wrB4vcKwYLzCxKW8worIvcIlzr/C&#xD;&#xa;OMC+wuRDvcJGZ7zCxFi9wuQzvMLPbbvCwIe+wm7bvcLm9L3COH6+wuuJvMK2B73CYb+9wqbxvMK/&#xD;&#xa;mL7CqIe9wvCavMKs7L3Ckau8wkpavMKt9LzCF8S+wmgKvsKCy73ClrG+wmIovcIns73Cmg+/wgw7&#xD;&#xa;wMI607/CpEq/wmwVvcJLsLvCMD68wuxdvcIeI7/C+bS+wpxfvsJyxsDC1tO/wmtrv8LNnb/CQiK+&#xD;&#xa;wlz7vcLa6L/CUMXBwtrQwcIAw8HCNJHBwvphwMKqc7/CSkW/wjkvwMK8ccHCHmDBwlKAwcKu+MDC&#xD;&#xa;zErCwuqgwsLa+MLC753DwmjuxcLEWMfCkePFwo47xsKnX8XC7tTCwuf3wsL+HcLCTcTBwmg6w8Is&#xD;&#xa;RMPC+qjDwiyGxMLi58TCnWvFwpjsxsKzCMbCyCTDwpM2wcJWGMPCvuDFwh42xsIfyMTCeLTFwuH7&#xD;&#xa;xMJctcfCVv3HwpTGx8J8b8jCqhjHwrgkx8LXNsfCZkLGwnxSxcL8csXCbu7FwsaQyMLa68fCo0XH&#xD;&#xa;woruxMJGHsbCORbJwry2yMLIUsfCxlfGwmLoxcLSPMnCYPDJwkw3yMKc7crC8vDLwug2y8Lu28vC&#xD;&#xa;OKvMwvLpysKGj8rCtNXLwrMay8KdGMrCUr3JwgIVy8J64MvCkbTJwjh4x8JGI8bCvBXHwnoPycKN&#xD;&#xa;Ss3CuC/Nwuywy8IkJ8zCx9/KwnB5ycKnk8nCenLJwnN6ycKc+sjCLFzJwuTrzMJkJM/CY5vOwoYO&#xD;&#xa;zsLU987CVKfNwiZZzcJQxNDCICHVwi0d18Kc29jCIF/YwtKo2MKeBNvCwpTawmY/2sJXPdvCZZXY&#xD;&#xa;whB818IQNdjCDF3XwtWC1sIGF9fCfFfXwkBy2MJ6+9nC1hfZwi5k2cJlfNjCnEPYwm/N1cKGOdXC&#xD;&#xa;Yk/XwgXL2MJSytfCgpTWwqTT1sJOGtnCrF/ZwtcT2cK08NjCscHZwpQ72sLJ/NrCy3zYwmCk18LE&#xD;&#xa;O9fC6hbYwtYU2cJN/dnC1EbZwrw/2cIqyNbCDr7Xwvb02cLQ+dnCaJvXwuYO18KSodnC1NnawtJJ&#xD;&#xa;18ISLtjC90nawoel2cIwl9jCi0XZwih328Ks7NjC5KzZwqui2cJw0tjCukLYws+O2MJaqtrCUuXa&#xD;&#xa;wviX2MIKxtfCnqXXwhjI2MJwAtvCIFvcwgCL2cJ0/djCdyXawh9H2cJ+ntfCy4TXwhqF2MJ68NnC&#xD;&#xa;CzvYwljT2cIkP9vCIs/bwjpB2sK2A9rCXt/awjZH2sIfltvCKWPcwjp53MKrGd3CaBPewj/03MJm&#xD;&#xa;U97CphfgwlJp3cKQpt3Crxjewm7d28Kq/9vCNNXcwqY728IUH9vCkirbwgIt28KK19zCjmzdwoBH&#xD;&#xa;3MIAUtvCUq3bwo8f28Ig09jCiyfZwhbx2sLWe9zCvgzbwmwI2sI2nNvC0lvdwg6128I8PNvCLufa&#xD;&#xa;wkyK28KkitzCJIDcwmAO28L0TNrCDHXawjla28IQkdzCoCDcwjRI3MJVUdvCtujZwnCs2sK8Yd3C&#xD;&#xa;iGbbwuSB2cImFNvCCI7r" leadInLength="0/1"  />
            </Keyframes>
           </Parameter>
           </Parameters>
          </GenericEffect>
          <GenericEffect id="7654" name = "Declipper" >
           <Parameters>
           <InterpolatingParam id="7655" interp="linr"  time="0/1" value="-1" leadInLength="0/1"   name="sensitivity"/>
           </Parameters>
          </GenericEffect>
          <GenericEffect id="7656" name = "Declicker" >
           <Parameters>
           <InterpolatingParam id="7657" interp="linr"  time="0/1" value="3" leadInLength="0/1"   name="sensitivity"/>
           </Parameters>
          </GenericEffect>
         </Effects>
         <Attributes>
          <Attribute id="7658" value="" name="ident"/>
          <Attribute id="7659" value="0" name="mixToMono"/>
         </Attributes>
         <MetaData>
          <entry key="WinSubProjectDisplayName" val=""/>
         </MetaData>
         <ExtraData>
          <Entry key="ZoomPanBin">
           <ZoomPanBin id="7660"  >
            <ZoomPanKeyframes>
            </ZoomPanKeyframes>
           </ZoomPanBin>
          </Entry>
          <Entry key="CursorEffectBin">
           <CursorEffectBin id="7661"  >
            <CursorEffectKeyframes>
            </CursorEffectKeyframes>
           </CursorEffectBin>
          </Entry>
         </ExtraData>
         <GenericTrack id="7662"  >
          <Attributes>
           <Attribute id="7663" value="" name="ident"/>
           <Attribute id="7664" value="0" name="audioMuted"/>
           <Attribute id="7665" value="0" name="videoHidden"/>
          </Attributes>
          <MetaData>
           <entry key="IsLocked" val="False"/>
           <entry key="WinTrackHeight" val="0"/>
          </MetaData>
          <Medias>
           <AMFile id="7666" start="0" duration="117" scalar="1/1" mediaStart="0/1" mediaDuration="117/1" trackNumber="0" src="29" channelNumber="0" >
            <Parameters>
             <InterpolatingParam id="7667" interp="linr"  time="0/1" value="1" leadInLength="0/1"  name="volume"/>
             <Parameter id="7668"  name="captions"/>
            </Parameters>
            <Attributes>
             <Attribute id="7669" value="" name="ident"/>
             <Attribute id="7670" value="48000" name="sampleRate"/>
             <Attribute id="7671" value="16" name="bitDepth"/>
             <Attribute id="7672" value="1" name="gain"/>
             <Attribute id="7673" value="0" name="mixToMono"/>
            </Attributes>
            <MetaData>
             <entry key="WinSubProjectDisplayName" val=""/>
            </MetaData>
           </AMFile>
           <AMFile id="7674" start="117" duration="272" scalar="1/1" mediaStart="131/1" mediaDuration="272/1" trackNumber="0" src="29" channelNumber="0" >
            <Parameters>
             <InterpolatingParam id="7675" interp="linr"  time="0/1" value="1" leadInLength="0/1"  name="volume"/>
             <Parameter id="7676"  name="captions"/>
            </Parameters>
            <Attributes>
             <Attribute id="7677" value="" name="ident"/>
             <Attribute id="7678" value="48000" name="sampleRate"/>
             <Attribute id="7679" value="16" name="bitDepth"/>
             <Attribute id="7680" value="1" name="gain"/>
             <Attribute id="7681" value="0" name="mixToMono"/>
            </Attributes>
            <MetaData>
             <entry key="WinSubProjectDisplayName" val=""/>
            </MetaData>
           </AMFile>
           <AMFile id="7682" start="389" duration="13231" scalar="1/1" mediaStart="415/1" mediaDuration="13231/1" trackNumber="0" src="29" channelNumber="0" >
            <Parameters>
             <InterpolatingParam id="7683" interp="linr"  time="0/1" value="1" leadInLength="0/1"  name="volume"/>
             <Parameter id="7684"  name="captions"/>
            </Parameters>
            <Attributes>
             <Attribute id="7685" value="" name="ident"/>
             <Attribute id="7686" value="48000" name="sampleRate"/>
             <Attribute id="7687" value="16" name="bitDepth"/>
             <Attribute id="7688" value="1" name="gain"/>
             <Attribute id="7689" value="0" name="mixToMono"/>
            </Attributes>
            <MetaData>
             <entry key="WinSubProjectDisplayName" val=""/>
            </MetaData>
           </AMFile>
          </Medias>
         </GenericTrack>
        </StitchedMedia>
        <StitchedMedia id="7690" start="1000" duration="21" scalar="1/1" mediaStart="1385/1" mediaDuration="21/1" minMediaStart="0/1" >
         <Transformer>
          <VectorParam id="7691"  name="translation">
           <InterpolatingParam id="7692" interp="linr"  time="0/1" value="0" leadInLength="0/1"  />
           <InterpolatingParam id="7693" interp="linr"  time="0/1" value="0" leadInLength="0/1"  />
           <InterpolatingParam id="7694" interp="linr"  time="0/1" value="0" leadInLength="0/1"  />
          </VectorParam>
          <VectorParam id="7695"  name="rotation">
           <InterpolatingParam id="7696" interp="linr"  time="0/1" value="0" leadInLength="0/1"  />
           <InterpolatingParam id="7697" interp="linr"  time="0/1" value="0" leadInLength="0/1"  />
           <InterpolatingParam id="7698" interp="linr"  time="0/1" value="0" leadInLength="0/1"  />
          </VectorParam>
          <VectorParam id="7699"  name="shear">
           <InterpolatingParam id="7700" interp="linr"  time="0/1" value="0" leadInLength="0/1"  />
           <InterpolatingParam id="7701" interp="linr"  time="0/1" value="0" leadInLength="0/1"  />
           <InterpolatingParam id="7702" interp="linr"  time="0/1" value="0" leadInLength="0/1"  />
          </VectorParam>
          <VectorParam id="7703"  name="scale">
           <InterpolatingParam id="7704" interp="linr"  time="0/1" value="1" leadInLength="0/1"  />
           <InterpolatingParam id="7705" interp="linr"  time="0/1" value="1" leadInLength="0/1"  />
           <InterpolatingParam id="7706" interp="linr"  time="0/1" value="1" leadInLength="0/1"  />
          </VectorParam>
          <VectorParam id="7707"  name="anchor">
           <InterpolatingParam id="7708" interp="linr"  time="0/1" value="0" leadInLength="0/1"  />
           <InterpolatingParam id="7709" interp="linr"  time="0/1" value="0" leadInLength="0/1"  />
           <InterpolatingParam id="7710" interp="linr"  time="0/1" value="0" leadInLength="0/1"  />
          </VectorParam>
         </Transformer>
         <Parameters>
          <InterpolatingParam id="7711" interp="linr"  time="0/1" value="1" leadInLength="0/1"  name="cursorOpacity"/>
          <InterpolatingParam id="7712" interp="linr"  time="0/1" value="1" leadInLength="0/1"  name="cursorScale"/>
          <InterpolatingParam id="7713" interp="linr"  time="0/1" value="1.5625" leadInLength="0/1"  name="volume"/>
          <Parameter id="7714"  name="captions"/>
         </Parameters>
         <Effects>
          <GenericEffect id="7715" name = "WinCompression" >
           <Parameters>
           <InterpolatingParam id="7716" interp="linr"  time="0/1" value="0" leadInLength="0/1"   name="attack"/>
           <InterpolatingParam id="7717" interp="linr"  time="0/1" value="9" leadInLength="0/1"   name="gain"/>
           <Parameter id="7718"   name="preset">
            <Keyframes>
            <Keyframe id="7719"  time="0/1" value="1" leadInLength="0/1"  />
            </Keyframes>
           </Parameter>
           <InterpolatingParam id="7720" interp="linr"  time="0/1" value="10" leadInLength="0/1"   name="ratio"/>
           <InterpolatingParam id="7721" interp="linr"  time="0/1" value="3500" leadInLength="0/1"   name="release"/>
           <InterpolatingParam id="7722" interp="linr"  time="0/1" value="-20" leadInLength="0/1"   name="threshold"/>
           </Parameters>
          </GenericEffect>
          <GenericEffect id="7723" name = "NoiseReduction" >
           <Parameters>
           <InterpolatingParam id="7724" interp="linr"  time="0/1" value="20" leadInLength="0/1"   name="denoiserAmount"/>
           <InterpolatingParam id="7725" interp="linr"  time="0/1" value="0" leadInLength="0/1"   name="denoiserThreshold"/>
           <Parameter id="7726"   name="noiseProfile">
            <Keyframes>
            <Keyframe id="7727"  time="0/1" value="FBAAAAIAAABErAAAAQIAAIA/l8JLuYTCrOB9wgsMfMJoG4LCaWeFwkohjMJdoYvCYv6LwlnvjcKf&#xD;&#xa;nYzChXWPwlcejsL6fo/C5OmQwgVTj8IVMI/COiWRwoWFkcJ2tYzC8I6MwuQbjcJvEo/ClwGRwheQ&#xD;&#xa;lsK8+pbCN5qVwlielcJ905rCmu+fwst0ncIC/JvCdIWdws3snsKxC5zCfh2cwniFnMJRypzCtRag&#xD;&#xa;wuoCosJQt6DCzoegwhY9ocIWN6PCsNqkwrSlpMJ6maTCYpCkwmLvo8Li+KPCyEamwnBNqMLMcqrC&#xD;&#xa;v2GswoS+q8Kk86vCVACuwnvUr8JxZa/CqHqswrdXq8LqT6zCZsuswhZxrMLBX67CnmqvwpYyrsKc&#xD;&#xa;pq3CJFGvwghrsMK3y6/CXoCtwmWZr8ICi7DCgRezwogSs8Joq7LCm0Sxwuz/scIfibTCOOK1wlIM&#xD;&#xa;t8K87LfCj3K3wqDYs8KT1bLCVsW0wnZ0tcJGhLXCfPe0ws/ntcLGXrbCzAG1wtXdtcKxxrTC1Ay1&#xD;&#xa;wquGtcLjELbC8Zi2wl7rtsJBYbbCMF+1wrEutMKuibTCSFa1wpvktMIu3rTCtGe4wjaduMIKErfC&#xD;&#xa;SLa1wvS/tsJmZrjCdn63whjft8Ie47rCfdi5wmjpt8KKCLjCXmC5wsOQt8JDGbfCK4m4wmpvuMLL&#xD;&#xa;nLjC80q4wjUVusKunLjC1Be5wg4cuMLxCbjCwfW4wmi7ucIOdbvCbLG6whqdusKYErrCbpC4wmq0&#xD;&#xa;ucIoWrvCaNe6ws4iu8LSc7zCUNa7wuJZvMIwLL3CWe28wps2v8J2l77Cv3W+wvgavsKAwrzCQCy8&#xD;&#xa;wgBRu8Km8brChSa6wuM4u8IaaL3Cf5y9wg4hvMLur7vCIpO9wm0fvcIGNLzC7Le8wvKgvMKQrLzC&#xD;&#xa;p6+9wtYtvsJcxbzCQC29wjDqvcKeNbzCH2W8wpbZvsLCTL7CnjO+wuIsvsJs67vCwLq9wiKhvsLs&#xD;&#xa;o73C5Du9wqqhvcLwKr7C2kq/wqEMv8LVCb7Cpla+wsXpvMIs6bvC/fO8wueCvsIM4b3CxtC+wmTo&#xD;&#xa;vcI+arzCTNe8wiFNv8IvKL/Cpg+/woK1v8L4i7/CNv2+wmsVv8KWj77CVym+wnAlv8Joa8DCFDzA&#xD;&#xa;wiQYwcLSIcHCxILAwuxKvsJYm77CPoHAwiYPwcLuy77CcQa+wrB4vcKwYLzCxKW8worIvcIlzr/C&#xD;&#xa;OMC+wuRDvcJGZ7zCxFi9wuQzvMLPbbvCwIe+wm7bvcLm9L3COH6+wuuJvMK2B73CYb+9wqbxvMK/&#xD;&#xa;mL7CqIe9wvCavMKs7L3Ckau8wkpavMKt9LzCF8S+wmgKvsKCy73ClrG+wmIovcIns73Cmg+/wgw7&#xD;&#xa;wMI607/CpEq/wmwVvcJLsLvCMD68wuxdvcIeI7/C+bS+wpxfvsJyxsDC1tO/wmtrv8LNnb/CQiK+&#xD;&#xa;wlz7vcLa6L/CUMXBwtrQwcIAw8HCNJHBwvphwMKqc7/CSkW/wjkvwMK8ccHCHmDBwlKAwcKu+MDC&#xD;&#xa;zErCwuqgwsLa+MLC753DwmjuxcLEWMfCkePFwo47xsKnX8XC7tTCwuf3wsL+HcLCTcTBwmg6w8Is&#xD;&#xa;RMPC+qjDwiyGxMLi58TCnWvFwpjsxsKzCMbCyCTDwpM2wcJWGMPCvuDFwh42xsIfyMTCeLTFwuH7&#xD;&#xa;xMJctcfCVv3HwpTGx8J8b8jCqhjHwrgkx8LXNsfCZkLGwnxSxcL8csXCbu7FwsaQyMLa68fCo0XH&#xD;&#xa;woruxMJGHsbCORbJwry2yMLIUsfCxlfGwmLoxcLSPMnCYPDJwkw3yMKc7crC8vDLwug2y8Lu28vC&#xD;&#xa;OKvMwvLpysKGj8rCtNXLwrMay8KdGMrCUr3JwgIVy8J64MvCkbTJwjh4x8JGI8bCvBXHwnoPycKN&#xD;&#xa;Ss3CuC/Nwuywy8IkJ8zCx9/KwnB5ycKnk8nCenLJwnN6ycKc+sjCLFzJwuTrzMJkJM/CY5vOwoYO&#xD;&#xa;zsLU987CVKfNwiZZzcJQxNDCICHVwi0d18Kc29jCIF/YwtKo2MKeBNvCwpTawmY/2sJXPdvCZZXY&#xD;&#xa;whB818IQNdjCDF3XwtWC1sIGF9fCfFfXwkBy2MJ6+9nC1hfZwi5k2cJlfNjCnEPYwm/N1cKGOdXC&#xD;&#xa;Yk/XwgXL2MJSytfCgpTWwqTT1sJOGtnCrF/ZwtcT2cK08NjCscHZwpQ72sLJ/NrCy3zYwmCk18LE&#xD;&#xa;O9fC6hbYwtYU2cJN/dnC1EbZwrw/2cIqyNbCDr7Xwvb02cLQ+dnCaJvXwuYO18KSodnC1NnawtJJ&#xD;&#xa;18ISLtjC90nawoel2cIwl9jCi0XZwih328Ks7NjC5KzZwqui2cJw0tjCukLYws+O2MJaqtrCUuXa&#xD;&#xa;wviX2MIKxtfCnqXXwhjI2MJwAtvCIFvcwgCL2cJ0/djCdyXawh9H2cJ+ntfCy4TXwhqF2MJ68NnC&#xD;&#xa;CzvYwljT2cIkP9vCIs/bwjpB2sK2A9rCXt/awjZH2sIfltvCKWPcwjp53MKrGd3CaBPewj/03MJm&#xD;&#xa;U97CphfgwlJp3cKQpt3Crxjewm7d28Kq/9vCNNXcwqY728IUH9vCkirbwgIt28KK19zCjmzdwoBH&#xD;&#xa;3MIAUtvCUq3bwo8f28Ig09jCiyfZwhbx2sLWe9zCvgzbwmwI2sI2nNvC0lvdwg6128I8PNvCLufa&#xD;&#xa;wkyK28KkitzCJIDcwmAO28L0TNrCDHXawjla28IQkdzCoCDcwjRI3MJVUdvCtujZwnCs2sK8Yd3C&#xD;&#xa;iGbbwuSB2cImFNvCCI7rwoA/l8JLuYTCrOB9wgsMfMJoG4LCaWeFwkohjMJdoYvCYv6LwlnvjcKf&#xD;&#xa;nYzChXWPwlcejsL6fo/C5OmQwgVTj8IVMI/COiWRwoWFkcJ2tYzC8I6MwuQbjcJvEo/ClwGRwheQ&#xD;&#xa;lsK8+pbCN5qVwlielcJ905rCmu+fwst0ncIC/JvCdIWdws3snsKxC5zCfh2cwniFnMJRypzCtRag&#xD;&#xa;wuoCosJQt6DCzoegwhY9ocIWN6PCsNqkwrSlpMJ6maTCYpCkwmLvo8Li+KPCyEamwnBNqMLMcqrC&#xD;&#xa;v2GswoS+q8Kk86vCVACuwnvUr8JxZa/CqHqswrdXq8LqT6zCZsuswhZxrMLBX67CnmqvwpYyrsKc&#xD;&#xa;pq3CJFGvwghrsMK3y6/CXoCtwmWZr8ICi7DCgRezwogSs8Joq7LCm0Sxwuz/scIfibTCOOK1wlIM&#xD;&#xa;t8K87LfCj3K3wqDYs8KT1bLCVsW0wnZ0tcJGhLXCfPe0ws/ntcLGXrbCzAG1wtXdtcKxxrTC1Ay1&#xD;&#xa;wquGtcLjELbC8Zi2wl7rtsJBYbbCMF+1wrEutMKuibTCSFa1wpvktMIu3rTCtGe4wjaduMIKErfC&#xD;&#xa;SLa1wvS/tsJmZrjCdn63whjft8Ie47rCfdi5wmjpt8KKCLjCXmC5wsOQt8JDGbfCK4m4wmpvuMLL&#xD;&#xa;nLjC80q4wjUVusKunLjC1Be5wg4cuMLxCbjCwfW4wmi7ucIOdbvCbLG6whqdusKYErrCbpC4wmq0&#xD;&#xa;ucIoWrvCaNe6ws4iu8LSc7zCUNa7wuJZvMIwLL3CWe28wps2v8J2l77Cv3W+wvgavsKAwrzCQCy8&#xD;&#xa;wgBRu8Km8brChSa6wuM4u8IaaL3Cf5y9wg4hvMLur7vCIpO9wm0fvcIGNLzC7Le8wvKgvMKQrLzC&#xD;&#xa;p6+9wtYtvsJcxbzCQC29wjDqvcKeNbzCH2W8wpbZvsLCTL7CnjO+wuIsvsJs67vCwLq9wiKhvsLs&#xD;&#xa;o73C5Du9wqqhvcLwKr7C2kq/wqEMv8LVCb7Cpla+wsXpvMIs6bvC/fO8wueCvsIM4b3CxtC+wmTo&#xD;&#xa;vcI+arzCTNe8wiFNv8IvKL/Cpg+/woK1v8L4i7/CNv2+wmsVv8KWj77CVym+wnAlv8Joa8DCFDzA&#xD;&#xa;wiQYwcLSIcHCxILAwuxKvsJYm77CPoHAwiYPwcLuy77CcQa+wrB4vcKwYLzCxKW8worIvcIlzr/C&#xD;&#xa;OMC+wuRDvcJGZ7zCxFi9wuQzvMLPbbvCwIe+wm7bvcLm9L3COH6+wuuJvMK2B73CYb+9wqbxvMK/&#xD;&#xa;mL7CqIe9wvCavMKs7L3Ckau8wkpavMKt9LzCF8S+wmgKvsKCy73ClrG+wmIovcIns73Cmg+/wgw7&#xD;&#xa;wMI607/CpEq/wmwVvcJLsLvCMD68wuxdvcIeI7/C+bS+wpxfvsJyxsDC1tO/wmtrv8LNnb/CQiK+&#xD;&#xa;wlz7vcLa6L/CUMXBwtrQwcIAw8HCNJHBwvphwMKqc7/CSkW/wjkvwMK8ccHCHmDBwlKAwcKu+MDC&#xD;&#xa;zErCwuqgwsLa+MLC753DwmjuxcLEWMfCkePFwo47xsKnX8XC7tTCwuf3wsL+HcLCTcTBwmg6w8Is&#xD;&#xa;RMPC+qjDwiyGxMLi58TCnWvFwpjsxsKzCMbCyCTDwpM2wcJWGMPCvuDFwh42xsIfyMTCeLTFwuH7&#xD;&#xa;xMJctcfCVv3HwpTGx8J8b8jCqhjHwrgkx8LXNsfCZkLGwnxSxcL8csXCbu7FwsaQyMLa68fCo0XH&#xD;&#xa;woruxMJGHsbCORbJwry2yMLIUsfCxlfGwmLoxcLSPMnCYPDJwkw3yMKc7crC8vDLwug2y8Lu28vC&#xD;&#xa;OKvMwvLpysKGj8rCtNXLwrMay8KdGMrCUr3JwgIVy8J64MvCkbTJwjh4x8JGI8bCvBXHwnoPycKN&#xD;&#xa;Ss3CuC/Nwuywy8IkJ8zCx9/KwnB5ycKnk8nCenLJwnN6ycKc+sjCLFzJwuTrzMJkJM/CY5vOwoYO&#xD;&#xa;zsLU987CVKfNwiZZzcJQxNDCICHVwi0d18Kc29jCIF/YwtKo2MKeBNvCwpTawmY/2sJXPdvCZZXY&#xD;&#xa;whB818IQNdjCDF3XwtWC1sIGF9fCfFfXwkBy2MJ6+9nC1hfZwi5k2cJlfNjCnEPYwm/N1cKGOdXC&#xD;&#xa;Yk/XwgXL2MJSytfCgpTWwqTT1sJOGtnCrF/ZwtcT2cK08NjCscHZwpQ72sLJ/NrCy3zYwmCk18LE&#xD;&#xa;O9fC6hbYwtYU2cJN/dnC1EbZwrw/2cIqyNbCDr7Xwvb02cLQ+dnCaJvXwuYO18KSodnC1NnawtJJ&#xD;&#xa;18ISLtjC90nawoel2cIwl9jCi0XZwih328Ks7NjC5KzZwqui2cJw0tjCukLYws+O2MJaqtrCUuXa&#xD;&#xa;wviX2MIKxtfCnqXXwhjI2MJwAtvCIFvcwgCL2cJ0/djCdyXawh9H2cJ+ntfCy4TXwhqF2MJ68NnC&#xD;&#xa;CzvYwljT2cIkP9vCIs/bwjpB2sK2A9rCXt/awjZH2sIfltvCKWPcwjp53MKrGd3CaBPewj/03MJm&#xD;&#xa;U97CphfgwlJp3cKQpt3Crxjewm7d28Kq/9vCNNXcwqY728IUH9vCkirbwgIt28KK19zCjmzdwoBH&#xD;&#xa;3MIAUtvCUq3bwo8f28Ig09jCiyfZwhbx2sLWe9zCvgzbwmwI2sI2nNvC0lvdwg6128I8PNvCLufa&#xD;&#xa;wkyK28KkitzCJIDcwmAO28L0TNrCDHXawjla28IQkdzCoCDcwjRI3MJVUdvCtujZwnCs2sK8Yd3C&#xD;&#xa;iGbbwuSB2cImFNvCCI7r" leadInLength="0/1"  />
            </Keyframes>
           </Parameter>
           </Parameters>
          </GenericEffect>
          <GenericEffect id="7728" name = "Declipper" >
           <Parameters>
           <InterpolatingParam id="7729" interp="linr"  time="0/1" value="-1" leadInLength="0/1"   name="sensitivity"/>
           </Parameters>
          </GenericEffect>
          <GenericEffect id="7730" name = "Declicker" >
           <Parameters>
           <InterpolatingParam id="7731" interp="linr"  time="0/1" value="3" leadInLength="0/1"   name="sensitivity"/>
           </Parameters>
          </GenericEffect>
         </Effects>
         <Attributes>
          <Attribute id="7732" value="" name="ident"/>
          <Attribute id="7733" value="0" name="mixToMono"/>
         </Attributes>
         <MetaData>
          <entry key="WinSubProjectDisplayName" val=""/>
         </MetaData>
         <ExtraData>
          <Entry key="ZoomPanBin">
           <ZoomPanBin id="7734"  >
            <ZoomPanKeyframes>
            </ZoomPanKeyframes>
           </ZoomPanBin>
          </Entry>
          <Entry key="CursorEffectBin">
           <CursorEffectBin id="7735"  >
            <CursorEffectKeyframes>
            </CursorEffectKeyframes>
           </CursorEffectBin>
          </Entry>
         </ExtraData>
         <GenericTrack id="7736"  >
          <Attributes>
           <Attribute id="7737" value="" name="ident"/>
           <Attribute id="7738" value="0" name="audioMuted"/>
           <Attribute id="7739" value="0" name="videoHidden"/>
          </Attributes>
          <MetaData>
           <entry key="IsLocked" val="False"/>
           <entry key="WinTrackHeight" val="0"/>
          </MetaData>
          <Medias>
           <AMFile id="7740" start="0" duration="117" scalar="1/1" mediaStart="0/1" mediaDuration="117/1" trackNumber="0" src="29" channelNumber="0" >
            <Parameters>
             <InterpolatingParam id="7741" interp="linr"  time="0/1" value="1" leadInLength="0/1"  name="volume"/>
             <Parameter id="7742"  name="captions"/>
            </Parameters>
            <Attributes>
             <Attribute id="7743" value="" name="ident"/>
             <Attribute id="7744" value="48000" name="sampleRate"/>
             <Attribute id="7745" value="16" name="bitDepth"/>
             <Attribute id="7746" value="1" name="gain"/>
             <Attribute id="7747" value="0" name="mixToMono"/>
            </Attributes>
            <MetaData>
             <entry key="WinSubProjectDisplayName" val=""/>
            </MetaData>
           </AMFile>
           <AMFile id="7748" start="117" duration="272" scalar="1/1" mediaStart="131/1" mediaDuration="272/1" trackNumber="0" src="29" channelNumber="0" >
            <Parameters>
             <InterpolatingParam id="7749" interp="linr"  time="0/1" value="1" leadInLength="0/1"  name="volume"/>
             <Parameter id="7750"  name="captions"/>
            </Parameters>
            <Attributes>
             <Attribute id="7751" value="" name="ident"/>
             <Attribute id="7752" value="48000" name="sampleRate"/>
             <Attribute id="7753" value="16" name="bitDepth"/>
             <Attribute id="7754" value="1" name="gain"/>
             <Attribute id="7755" value="0" name="mixToMono"/>
            </Attributes>
            <MetaData>
             <entry key="WinSubProjectDisplayName" val=""/>
            </MetaData>
           </AMFile>
           <AMFile id="7756" start="389" duration="13231" scalar="1/1" mediaStart="415/1" mediaDuration="13231/1" trackNumber="0" src="29" channelNumber="0" >
            <Parameters>
             <InterpolatingParam id="7757" interp="linr"  time="0/1" value="1" leadInLength="0/1"  name="volume"/>
             <Parameter id="7758"  name="captions"/>
            </Parameters>
            <Attributes>
             <Attribute id="7759" value="" name="ident"/>
             <Attribute id="7760" value="48000" name="sampleRate"/>
             <Attribute id="7761" value="16" name="bitDepth"/>
             <Attribute id="7762" value="1" name="gain"/>
             <Attribute id="7763" value="0" name="mixToMono"/>
            </Attributes>
            <MetaData>
             <entry key="WinSubProjectDisplayName" val=""/>
            </MetaData>
           </AMFile>
          </Medias>
         </GenericTrack>
        </StitchedMedia>
        <StitchedMedia id="7764" start="1037" duration="817" scalar="1/1" mediaStart="1431/1" mediaDuration="817/1" minMediaStart="0/1" >
         <Transformer>
          <VectorParam id="7765"  name="translation">
           <InterpolatingParam id="7766" interp="linr"  time="0/1" value="0" leadInLength="0/1"  />
           <InterpolatingParam id="7767" interp="linr"  time="0/1" value="0" leadInLength="0/1"  />
           <InterpolatingParam id="7768" interp="linr"  time="0/1" value="0" leadInLength="0/1"  />
          </VectorParam>
          <VectorParam id="7769"  name="rotation">
           <InterpolatingParam id="7770" interp="linr"  time="0/1" value="0" leadInLength="0/1"  />
           <InterpolatingParam id="7771" interp="linr"  time="0/1" value="0" leadInLength="0/1"  />
           <InterpolatingParam id="7772" interp="linr"  time="0/1" value="0" leadInLength="0/1"  />
          </VectorParam>
          <VectorParam id="7773"  name="shear">
           <InterpolatingParam id="7774" interp="linr"  time="0/1" value="0" leadInLength="0/1"  />
           <InterpolatingParam id="7775" interp="linr"  time="0/1" value="0" leadInLength="0/1"  />
           <InterpolatingParam id="7776" interp="linr"  time="0/1" value="0" leadInLength="0/1"  />
          </VectorParam>
          <VectorParam id="7777"  name="scale">
           <InterpolatingParam id="7778" interp="linr"  time="0/1" value="1" leadInLength="0/1"  />
           <InterpolatingParam id="7779" interp="linr"  time="0/1" value="1" leadInLength="0/1"  />
           <InterpolatingParam id="7780" interp="linr"  time="0/1" value="1" leadInLength="0/1"  />
          </VectorParam>
          <VectorParam id="7781"  name="anchor">
           <InterpolatingParam id="7782" interp="linr"  time="0/1" value="0" leadInLength="0/1"  />
           <InterpolatingParam id="7783" interp="linr"  time="0/1" value="0" leadInLength="0/1"  />
           <InterpolatingParam id="7784" interp="linr"  time="0/1" value="0" leadInLength="0/1"  />
          </VectorParam>
         </Transformer>
         <Parameters>
          <InterpolatingParam id="7785" interp="linr"  time="0/1" value="1" leadInLength="0/1"  name="cursorOpacity"/>
          <InterpolatingParam id="7786" interp="linr"  time="0/1" value="1" leadInLength="0/1"  name="cursorScale"/>
          <InterpolatingParam id="7787" interp="linr"  time="0/1" value="1.5625" leadInLength="0/1"  name="volume"/>
          <Parameter id="7788"  name="captions"/>
         </Parameters>
         <Effects>
          <GenericEffect id="7789" name = "WinCompression" >
           <Parameters>
           <InterpolatingParam id="7790" interp="linr"  time="0/1" value="0" leadInLength="0/1"   name="attack"/>
           <InterpolatingParam id="7791" interp="linr"  time="0/1" value="9" leadInLength="0/1"   name="gain"/>
           <Parameter id="7792"   name="preset">
            <Keyframes>
            <Keyframe id="7793"  time="0/1" value="1" leadInLength="0/1"  />
            </Keyframes>
           </Parameter>
           <InterpolatingParam id="7794" interp="linr"  time="0/1" value="10" leadInLength="0/1"   name="ratio"/>
           <InterpolatingParam id="7795" interp="linr"  time="0/1" value="3500" leadInLength="0/1"   name="release"/>
           <InterpolatingParam id="7796" interp="linr"  time="0/1" value="-20" leadInLength="0/1"   name="threshold"/>
           </Parameters>
          </GenericEffect>
          <GenericEffect id="7797" name = "NoiseReduction" >
           <Parameters>
           <InterpolatingParam id="7798" interp="linr"  time="0/1" value="20" leadInLength="0/1"   name="denoiserAmount"/>
           <InterpolatingParam id="7799" interp="linr"  time="0/1" value="0" leadInLength="0/1"   name="denoiserThreshold"/>
           <Parameter id="7800"   name="noiseProfile">
            <Keyframes>
            <Keyframe id="7801"  time="0/1" value="FBAAAAIAAABErAAAAQIAAIA/l8JLuYTCrOB9wgsMfMJoG4LCaWeFwkohjMJdoYvCYv6LwlnvjcKf&#xD;&#xa;nYzChXWPwlcejsL6fo/C5OmQwgVTj8IVMI/COiWRwoWFkcJ2tYzC8I6MwuQbjcJvEo/ClwGRwheQ&#xD;&#xa;lsK8+pbCN5qVwlielcJ905rCmu+fwst0ncIC/JvCdIWdws3snsKxC5zCfh2cwniFnMJRypzCtRag&#xD;&#xa;wuoCosJQt6DCzoegwhY9ocIWN6PCsNqkwrSlpMJ6maTCYpCkwmLvo8Li+KPCyEamwnBNqMLMcqrC&#xD;&#xa;v2GswoS+q8Kk86vCVACuwnvUr8JxZa/CqHqswrdXq8LqT6zCZsuswhZxrMLBX67CnmqvwpYyrsKc&#xD;&#xa;pq3CJFGvwghrsMK3y6/CXoCtwmWZr8ICi7DCgRezwogSs8Joq7LCm0Sxwuz/scIfibTCOOK1wlIM&#xD;&#xa;t8K87LfCj3K3wqDYs8KT1bLCVsW0wnZ0tcJGhLXCfPe0ws/ntcLGXrbCzAG1wtXdtcKxxrTC1Ay1&#xD;&#xa;wquGtcLjELbC8Zi2wl7rtsJBYbbCMF+1wrEutMKuibTCSFa1wpvktMIu3rTCtGe4wjaduMIKErfC&#xD;&#xa;SLa1wvS/tsJmZrjCdn63whjft8Ie47rCfdi5wmjpt8KKCLjCXmC5wsOQt8JDGbfCK4m4wmpvuMLL&#xD;&#xa;nLjC80q4wjUVusKunLjC1Be5wg4cuMLxCbjCwfW4wmi7ucIOdbvCbLG6whqdusKYErrCbpC4wmq0&#xD;&#xa;ucIoWrvCaNe6ws4iu8LSc7zCUNa7wuJZvMIwLL3CWe28wps2v8J2l77Cv3W+wvgavsKAwrzCQCy8&#xD;&#xa;wgBRu8Km8brChSa6wuM4u8IaaL3Cf5y9wg4hvMLur7vCIpO9wm0fvcIGNLzC7Le8wvKgvMKQrLzC&#xD;&#xa;p6+9wtYtvsJcxbzCQC29wjDqvcKeNbzCH2W8wpbZvsLCTL7CnjO+wuIsvsJs67vCwLq9wiKhvsLs&#xD;&#xa;o73C5Du9wqqhvcLwKr7C2kq/wqEMv8LVCb7Cpla+wsXpvMIs6bvC/fO8wueCvsIM4b3CxtC+wmTo&#xD;&#xa;vcI+arzCTNe8wiFNv8IvKL/Cpg+/woK1v8L4i7/CNv2+wmsVv8KWj77CVym+wnAlv8Joa8DCFDzA&#xD;&#xa;wiQYwcLSIcHCxILAwuxKvsJYm77CPoHAwiYPwcLuy77CcQa+wrB4vcKwYLzCxKW8worIvcIlzr/C&#xD;&#xa;OMC+wuRDvcJGZ7zCxFi9wuQzvMLPbbvCwIe+wm7bvcLm9L3COH6+wuuJvMK2B73CYb+9wqbxvMK/&#xD;&#xa;mL7CqIe9wvCavMKs7L3Ckau8wkpavMKt9LzCF8S+wmgKvsKCy73ClrG+wmIovcIns73Cmg+/wgw7&#xD;&#xa;wMI607/CpEq/wmwVvcJLsLvCMD68wuxdvcIeI7/C+bS+wpxfvsJyxsDC1tO/wmtrv8LNnb/CQiK+&#xD;&#xa;wlz7vcLa6L/CUMXBwtrQwcIAw8HCNJHBwvphwMKqc7/CSkW/wjkvwMK8ccHCHmDBwlKAwcKu+MDC&#xD;&#xa;zErCwuqgwsLa+MLC753DwmjuxcLEWMfCkePFwo47xsKnX8XC7tTCwuf3wsL+HcLCTcTBwmg6w8Is&#xD;&#xa;RMPC+qjDwiyGxMLi58TCnWvFwpjsxsKzCMbCyCTDwpM2wcJWGMPCvuDFwh42xsIfyMTCeLTFwuH7&#xD;&#xa;xMJctcfCVv3HwpTGx8J8b8jCqhjHwrgkx8LXNsfCZkLGwnxSxcL8csXCbu7FwsaQyMLa68fCo0XH&#xD;&#xa;woruxMJGHsbCORbJwry2yMLIUsfCxlfGwmLoxcLSPMnCYPDJwkw3yMKc7crC8vDLwug2y8Lu28vC&#xD;&#xa;OKvMwvLpysKGj8rCtNXLwrMay8KdGMrCUr3JwgIVy8J64MvCkbTJwjh4x8JGI8bCvBXHwnoPycKN&#xD;&#xa;Ss3CuC/Nwuywy8IkJ8zCx9/KwnB5ycKnk8nCenLJwnN6ycKc+sjCLFzJwuTrzMJkJM/CY5vOwoYO&#xD;&#xa;zsLU987CVKfNwiZZzcJQxNDCICHVwi0d18Kc29jCIF/YwtKo2MKeBNvCwpTawmY/2sJXPdvCZZXY&#xD;&#xa;whB818IQNdjCDF3XwtWC1sIGF9fCfFfXwkBy2MJ6+9nC1hfZwi5k2cJlfNjCnEPYwm/N1cKGOdXC&#xD;&#xa;Yk/XwgXL2MJSytfCgpTWwqTT1sJOGtnCrF/ZwtcT2cK08NjCscHZwpQ72sLJ/NrCy3zYwmCk18LE&#xD;&#xa;O9fC6hbYwtYU2cJN/dnC1EbZwrw/2cIqyNbCDr7Xwvb02cLQ+dnCaJvXwuYO18KSodnC1NnawtJJ&#xD;&#xa;18ISLtjC90nawoel2cIwl9jCi0XZwih328Ks7NjC5KzZwqui2cJw0tjCukLYws+O2MJaqtrCUuXa&#xD;&#xa;wviX2MIKxtfCnqXXwhjI2MJwAtvCIFvcwgCL2cJ0/djCdyXawh9H2cJ+ntfCy4TXwhqF2MJ68NnC&#xD;&#xa;CzvYwljT2cIkP9vCIs/bwjpB2sK2A9rCXt/awjZH2sIfltvCKWPcwjp53MKrGd3CaBPewj/03MJm&#xD;&#xa;U97CphfgwlJp3cKQpt3Crxjewm7d28Kq/9vCNNXcwqY728IUH9vCkirbwgIt28KK19zCjmzdwoBH&#xD;&#xa;3MIAUtvCUq3bwo8f28Ig09jCiyfZwhbx2sLWe9zCvgzbwmwI2sI2nNvC0lvdwg6128I8PNvCLufa&#xD;&#xa;wkyK28KkitzCJIDcwmAO28L0TNrCDHXawjla28IQkdzCoCDcwjRI3MJVUdvCtujZwnCs2sK8Yd3C&#xD;&#xa;iGbbwuSB2cImFNvCCI7rwoA/l8JLuYTCrOB9wgsMfMJoG4LCaWeFwkohjMJdoYvCYv6LwlnvjcKf&#xD;&#xa;nYzChXWPwlcejsL6fo/C5OmQwgVTj8IVMI/COiWRwoWFkcJ2tYzC8I6MwuQbjcJvEo/ClwGRwheQ&#xD;&#xa;lsK8+pbCN5qVwlielcJ905rCmu+fwst0ncIC/JvCdIWdws3snsKxC5zCfh2cwniFnMJRypzCtRag&#xD;&#xa;wuoCosJQt6DCzoegwhY9ocIWN6PCsNqkwrSlpMJ6maTCYpCkwmLvo8Li+KPCyEamwnBNqMLMcqrC&#xD;&#xa;v2GswoS+q8Kk86vCVACuwnvUr8JxZa/CqHqswrdXq8LqT6zCZsuswhZxrMLBX67CnmqvwpYyrsKc&#xD;&#xa;pq3CJFGvwghrsMK3y6/CXoCtwmWZr8ICi7DCgRezwogSs8Joq7LCm0Sxwuz/scIfibTCOOK1wlIM&#xD;&#xa;t8K87LfCj3K3wqDYs8KT1bLCVsW0wnZ0tcJGhLXCfPe0ws/ntcLGXrbCzAG1wtXdtcKxxrTC1Ay1&#xD;&#xa;wquGtcLjELbC8Zi2wl7rtsJBYbbCMF+1wrEutMKuibTCSFa1wpvktMIu3rTCtGe4wjaduMIKErfC&#xD;&#xa;SLa1wvS/tsJmZrjCdn63whjft8Ie47rCfdi5wmjpt8KKCLjCXmC5wsOQt8JDGbfCK4m4wmpvuMLL&#xD;&#xa;nLjC80q4wjUVusKunLjC1Be5wg4cuMLxCbjCwfW4wmi7ucIOdbvCbLG6whqdusKYErrCbpC4wmq0&#xD;&#xa;ucIoWrvCaNe6ws4iu8LSc7zCUNa7wuJZvMIwLL3CWe28wps2v8J2l77Cv3W+wvgavsKAwrzCQCy8&#xD;&#xa;wgBRu8Km8brChSa6wuM4u8IaaL3Cf5y9wg4hvMLur7vCIpO9wm0fvcIGNLzC7Le8wvKgvMKQrLzC&#xD;&#xa;p6+9wtYtvsJcxbzCQC29wjDqvcKeNbzCH2W8wpbZvsLCTL7CnjO+wuIsvsJs67vCwLq9wiKhvsLs&#xD;&#xa;o73C5Du9wqqhvcLwKr7C2kq/wqEMv8LVCb7Cpla+wsXpvMIs6bvC/fO8wueCvsIM4b3CxtC+wmTo&#xD;&#xa;vcI+arzCTNe8wiFNv8IvKL/Cpg+/woK1v8L4i7/CNv2+wmsVv8KWj77CVym+wnAlv8Joa8DCFDzA&#xD;&#xa;wiQYwcLSIcHCxILAwuxKvsJYm77CPoHAwiYPwcLuy77CcQa+wrB4vcKwYLzCxKW8worIvcIlzr/C&#xD;&#xa;OMC+wuRDvcJGZ7zCxFi9wuQzvMLPbbvCwIe+wm7bvcLm9L3COH6+wuuJvMK2B73CYb+9wqbxvMK/&#xD;&#xa;mL7CqIe9wvCavMKs7L3Ckau8wkpavMKt9LzCF8S+wmgKvsKCy73ClrG+wmIovcIns73Cmg+/wgw7&#xD;&#xa;wMI607/CpEq/wmwVvcJLsLvCMD68wuxdvcIeI7/C+bS+wpxfvsJyxsDC1tO/wmtrv8LNnb/CQiK+&#xD;&#xa;wlz7vcLa6L/CUMXBwtrQwcIAw8HCNJHBwvphwMKqc7/CSkW/wjkvwMK8ccHCHmDBwlKAwcKu+MDC&#xD;&#xa;zErCwuqgwsLa+MLC753DwmjuxcLEWMfCkePFwo47xsKnX8XC7tTCwuf3wsL+HcLCTcTBwmg6w8Is&#xD;&#xa;RMPC+qjDwiyGxMLi58TCnWvFwpjsxsKzCMbCyCTDwpM2wcJWGMPCvuDFwh42xsIfyMTCeLTFwuH7&#xD;&#xa;xMJctcfCVv3HwpTGx8J8b8jCqhjHwrgkx8LXNsfCZkLGwnxSxcL8csXCbu7FwsaQyMLa68fCo0XH&#xD;&#xa;woruxMJGHsbCORbJwry2yMLIUsfCxlfGwmLoxcLSPMnCYPDJwkw3yMKc7crC8vDLwug2y8Lu28vC&#xD;&#xa;OKvMwvLpysKGj8rCtNXLwrMay8KdGMrCUr3JwgIVy8J64MvCkbTJwjh4x8JGI8bCvBXHwnoPycKN&#xD;&#xa;Ss3CuC/Nwuywy8IkJ8zCx9/KwnB5ycKnk8nCenLJwnN6ycKc+sjCLFzJwuTrzMJkJM/CY5vOwoYO&#xD;&#xa;zsLU987CVKfNwiZZzcJQxNDCICHVwi0d18Kc29jCIF/YwtKo2MKeBNvCwpTawmY/2sJXPdvCZZXY&#xD;&#xa;whB818IQNdjCDF3XwtWC1sIGF9fCfFfXwkBy2MJ6+9nC1hfZwi5k2cJlfNjCnEPYwm/N1cKGOdXC&#xD;&#xa;Yk/XwgXL2MJSytfCgpTWwqTT1sJOGtnCrF/ZwtcT2cK08NjCscHZwpQ72sLJ/NrCy3zYwmCk18LE&#xD;&#xa;O9fC6hbYwtYU2cJN/dnC1EbZwrw/2cIqyNbCDr7Xwvb02cLQ+dnCaJvXwuYO18KSodnC1NnawtJJ&#xD;&#xa;18ISLtjC90nawoel2cIwl9jCi0XZwih328Ks7NjC5KzZwqui2cJw0tjCukLYws+O2MJaqtrCUuXa&#xD;&#xa;wviX2MIKxtfCnqXXwhjI2MJwAtvCIFvcwgCL2cJ0/djCdyXawh9H2cJ+ntfCy4TXwhqF2MJ68NnC&#xD;&#xa;CzvYwljT2cIkP9vCIs/bwjpB2sK2A9rCXt/awjZH2sIfltvCKWPcwjp53MKrGd3CaBPewj/03MJm&#xD;&#xa;U97CphfgwlJp3cKQpt3Crxjewm7d28Kq/9vCNNXcwqY728IUH9vCkirbwgIt28KK19zCjmzdwoBH&#xD;&#xa;3MIAUtvCUq3bwo8f28Ig09jCiyfZwhbx2sLWe9zCvgzbwmwI2sI2nNvC0lvdwg6128I8PNvCLufa&#xD;&#xa;wkyK28KkitzCJIDcwmAO28L0TNrCDHXawjla28IQkdzCoCDcwjRI3MJVUdvCtujZwnCs2sK8Yd3C&#xD;&#xa;iGbbwuSB2cImFNvCCI7r" leadInLength="0/1"  />
            </Keyframes>
           </Parameter>
           </Parameters>
          </GenericEffect>
          <GenericEffect id="7802" name = "Declipper" >
           <Parameters>
           <InterpolatingParam id="7803" interp="linr"  time="0/1" value="-1" leadInLength="0/1"   name="sensitivity"/>
           </Parameters>
          </GenericEffect>
          <GenericEffect id="7804" name = "Declicker" >
           <Parameters>
           <InterpolatingParam id="7805" interp="linr"  time="0/1" value="3" leadInLength="0/1"   name="sensitivity"/>
           </Parameters>
          </GenericEffect>
         </Effects>
         <Attributes>
          <Attribute id="7806" value="" name="ident"/>
          <Attribute id="7807" value="0" name="mixToMono"/>
         </Attributes>
         <MetaData>
          <entry key="WinSubProjectDisplayName" val=""/>
         </MetaData>
         <ExtraData>
          <Entry key="ZoomPanBin">
           <ZoomPanBin id="7808"  >
            <ZoomPanKeyframes>
            </ZoomPanKeyframes>
           </ZoomPanBin>
          </Entry>
          <Entry key="CursorEffectBin">
           <CursorEffectBin id="7809"  >
            <CursorEffectKeyframes>
            </CursorEffectKeyframes>
           </CursorEffectBin>
          </Entry>
         </ExtraData>
         <GenericTrack id="7810"  >
          <Attributes>
           <Attribute id="7811" value="" name="ident"/>
           <Attribute id="7812" value="0" name="audioMuted"/>
           <Attribute id="7813" value="0" name="videoHidden"/>
          </Attributes>
          <MetaData>
           <entry key="IsLocked" val="False"/>
           <entry key="WinTrackHeight" val="0"/>
          </MetaData>
          <Medias>
           <AMFile id="7814" start="0" duration="117" scalar="1/1" mediaStart="0/1" mediaDuration="117/1" trackNumber="0" src="29" channelNumber="0" >
            <Parameters>
             <InterpolatingParam id="7815" interp="linr"  time="0/1" value="1" leadInLength="0/1"  name="volume"/>
             <Parameter id="7816"  name="captions"/>
            </Parameters>
            <Attributes>
             <Attribute id="7817" value="" name="ident"/>
             <Attribute id="7818" value="48000" name="sampleRate"/>
             <Attribute id="7819" value="16" name="bitDepth"/>
             <Attribute id="7820" value="1" name="gain"/>
             <Attribute id="7821" value="0" name="mixToMono"/>
            </Attributes>
            <MetaData>
             <entry key="WinSubProjectDisplayName" val=""/>
            </MetaData>
           </AMFile>
           <AMFile id="7822" start="117" duration="272" scalar="1/1" mediaStart="131/1" mediaDuration="272/1" trackNumber="0" src="29" channelNumber="0" >
            <Parameters>
             <InterpolatingParam id="7823" interp="linr"  time="0/1" value="1" leadInLength="0/1"  name="volume"/>
             <Parameter id="7824"  name="captions"/>
            </Parameters>
            <Attributes>
             <Attribute id="7825" value="" name="ident"/>
             <Attribute id="7826" value="48000" name="sampleRate"/>
             <Attribute id="7827" value="16" name="bitDepth"/>
             <Attribute id="7828" value="1" name="gain"/>
             <Attribute id="7829" value="0" name="mixToMono"/>
            </Attributes>
            <MetaData>
             <entry key="WinSubProjectDisplayName" val=""/>
            </MetaData>
           </AMFile>
           <AMFile id="7830" start="389" duration="1309" scalar="1/1" mediaStart="415/1" mediaDuration="1309/1" trackNumber="0" src="29" channelNumber="0" >
            <Parameters>
             <InterpolatingParam id="7831" interp="linr"  time="0/1" value="1" leadInLength="0/1"  name="volume"/>
             <Parameter id="7832"  name="captions"/>
            </Parameters>
            <Attributes>
             <Attribute id="7833" value="" name="ident"/>
             <Attribute id="7834" value="48000" name="sampleRate"/>
             <Attribute id="7835" value="16" name="bitDepth"/>
             <Attribute id="7836" value="1" name="gain"/>
             <Attribute id="7837" value="0" name="mixToMono"/>
            </Attributes>
            <MetaData>
             <entry key="WinSubProjectDisplayName" val=""/>
            </MetaData>
           </AMFile>
           <AMFile id="7838" start="1698" duration="103" scalar="1/1" mediaStart="1734/1" mediaDuration="103/1" trackNumber="0" src="29" channelNumber="0" >
            <Parameters>
             <InterpolatingParam id="7839" interp="linr"  time="0/1" value="1" leadInLength="0/1"  name="volume"/>
             <Parameter id="7840"  name="captions"/>
            </Parameters>
            <Attributes>
             <Attribute id="7841" value="" name="ident"/>
             <Attribute id="7842" value="48000" name="sampleRate"/>
             <Attribute id="7843" value="16" name="bitDepth"/>
             <Attribute id="7844" value="1" name="gain"/>
             <Attribute id="7845" value="0" name="mixToMono"/>
            </Attributes>
            <MetaData>
             <entry key="WinSubProjectDisplayName" val=""/>
            </MetaData>
           </AMFile>
           <AMFile id="7846" start="1801" duration="245" scalar="1/1" mediaStart="2164/1" mediaDuration="245/1" trackNumber="0" src="29" channelNumber="0" >
            <Parameters>
             <InterpolatingParam id="7847" interp="linr"  time="0/1" value="1" leadInLength="0/1"  name="volume"/>
             <Parameter id="7848"  name="captions"/>
            </Parameters>
            <Attributes>
             <Attribute id="7849" value="" name="ident"/>
             <Attribute id="7850" value="48000" name="sampleRate"/>
             <Attribute id="7851" value="16" name="bitDepth"/>
             <Attribute id="7852" value="1" name="gain"/>
             <Attribute id="7853" value="0" name="mixToMono"/>
            </Attributes>
            <MetaData>
             <entry key="WinSubProjectDisplayName" val=""/>
            </MetaData>
           </AMFile>
           <AMFile id="7854" start="2046" duration="11009" scalar="1/1" mediaStart="2637/1" mediaDuration="11009/1" trackNumber="0" src="29" channelNumber="0" >
            <Parameters>
             <InterpolatingParam id="7855" interp="linr"  time="0/1" value="1" leadInLength="0/1"  name="volume"/>
             <Parameter id="7856"  name="captions"/>
            </Parameters>
            <Attributes>
             <Attribute id="7857" value="" name="ident"/>
             <Attribute id="7858" value="48000" name="sampleRate"/>
             <Attribute id="7859" value="16" name="bitDepth"/>
             <Attribute id="7860" value="1" name="gain"/>
             <Attribute id="7861" value="0" name="mixToMono"/>
            </Attributes>
            <MetaData>
             <entry key="WinSubProjectDisplayName" val=""/>
            </MetaData>
           </AMFile>
          </Medias>
         </GenericTrack>
        </StitchedMedia>
        <StitchedMedia id="7862" start="1865" duration="34" scalar="1/1" mediaStart="2856/1" mediaDuration="34/1" minMediaStart="0/1" >
         <Transformer>
          <VectorParam id="7863"  name="translation">
           <InterpolatingParam id="7864" interp="linr"  time="0/1" value="0" leadInLength="0/1"  />
           <InterpolatingParam id="7865" interp="linr"  time="0/1" value="0" leadInLength="0/1"  />
           <InterpolatingParam id="7866" interp="linr"  time="0/1" value="0" leadInLength="0/1"  />
          </VectorParam>
          <VectorParam id="7867"  name="rotation">
           <InterpolatingParam id="7868" interp="linr"  time="0/1" value="0" leadInLength="0/1"  />
           <InterpolatingParam id="7869" interp="linr"  time="0/1" value="0" leadInLength="0/1"  />
           <InterpolatingParam id="7870" interp="linr"  time="0/1" value="0" leadInLength="0/1"  />
          </VectorParam>
          <VectorParam id="7871"  name="shear">
           <InterpolatingParam id="7872" interp="linr"  time="0/1" value="0" leadInLength="0/1"  />
           <InterpolatingParam id="7873" interp="linr"  time="0/1" value="0" leadInLength="0/1"  />
           <InterpolatingParam id="7874" interp="linr"  time="0/1" value="0" leadInLength="0/1"  />
          </VectorParam>
          <VectorParam id="7875"  name="scale">
           <InterpolatingParam id="7876" interp="linr"  time="0/1" value="1" leadInLength="0/1"  />
           <InterpolatingParam id="7877" interp="linr"  time="0/1" value="1" leadInLength="0/1"  />
           <InterpolatingParam id="7878" interp="linr"  time="0/1" value="1" leadInLength="0/1"  />
          </VectorParam>
          <VectorParam id="7879"  name="anchor">
           <InterpolatingParam id="7880" interp="linr"  time="0/1" value="0" leadInLength="0/1"  />
           <InterpolatingParam id="7881" interp="linr"  time="0/1" value="0" leadInLength="0/1"  />
           <InterpolatingParam id="7882" interp="linr"  time="0/1" value="0" leadInLength="0/1"  />
          </VectorParam>
         </Transformer>
         <Parameters>
          <InterpolatingParam id="7883" interp="linr"  time="0/1" value="1" leadInLength="0/1"  name="cursorOpacity"/>
          <InterpolatingParam id="7884" interp="linr"  time="0/1" value="1" leadInLength="0/1"  name="cursorScale"/>
          <InterpolatingParam id="7885" interp="linr"  name="volume">
           <Keyframes>
           <Keyframe id="7886"  time="0/1" value="1.5625" leadInLength="0/1"  />
           <Keyframe id="7887"  time="2856/1" value="1.5625" leadInLength="0/1"  />
           </Keyframes>
          </InterpolatingParam>
          <Parameter id="7888"  name="captions"/>
         </Parameters>
         <Effects>
          <GenericEffect id="7889" name = "WinCompression" >
           <Parameters>
           <InterpolatingParam id="7890" interp="linr"  time="0/1" value="0" leadInLength="0/1"   name="attack"/>
           <InterpolatingParam id="7891" interp="linr"  time="0/1" value="9" leadInLength="0/1"   name="gain"/>
           <Parameter id="7892"   name="preset">
            <Keyframes>
            <Keyframe id="7893"  time="0/1" value="1" leadInLength="0/1"  />
            </Keyframes>
           </Parameter>
           <InterpolatingParam id="7894" interp="linr"  time="0/1" value="10" leadInLength="0/1"   name="ratio"/>
           <InterpolatingParam id="7895" interp="linr"  time="0/1" value="3500" leadInLength="0/1"   name="release"/>
           <InterpolatingParam id="7896" interp="linr"  time="0/1" value="-20" leadInLength="0/1"   name="threshold"/>
           </Parameters>
          </GenericEffect>
          <GenericEffect id="7897" name = "NoiseReduction" >
           <Parameters>
           <InterpolatingParam id="7898" interp="linr"  time="0/1" value="20" leadInLength="0/1"   name="denoiserAmount"/>
           <InterpolatingParam id="7899" interp="linr"  time="0/1" value="0" leadInLength="0/1"   name="denoiserThreshold"/>
           <Parameter id="7900"   name="noiseProfile">
            <Keyframes>
            <Keyframe id="7901"  time="0/1" value="FBAAAAIAAABErAAAAQIAAIA/l8JLuYTCrOB9wgsMfMJoG4LCaWeFwkohjMJdoYvCYv6LwlnvjcKf&#xD;&#xa;nYzChXWPwlcejsL6fo/C5OmQwgVTj8IVMI/COiWRwoWFkcJ2tYzC8I6MwuQbjcJvEo/ClwGRwheQ&#xD;&#xa;lsK8+pbCN5qVwlielcJ905rCmu+fwst0ncIC/JvCdIWdws3snsKxC5zCfh2cwniFnMJRypzCtRag&#xD;&#xa;wuoCosJQt6DCzoegwhY9ocIWN6PCsNqkwrSlpMJ6maTCYpCkwmLvo8Li+KPCyEamwnBNqMLMcqrC&#xD;&#xa;v2GswoS+q8Kk86vCVACuwnvUr8JxZa/CqHqswrdXq8LqT6zCZsuswhZxrMLBX67CnmqvwpYyrsKc&#xD;&#xa;pq3CJFGvwghrsMK3y6/CXoCtwmWZr8ICi7DCgRezwogSs8Joq7LCm0Sxwuz/scIfibTCOOK1wlIM&#xD;&#xa;t8K87LfCj3K3wqDYs8KT1bLCVsW0wnZ0tcJGhLXCfPe0ws/ntcLGXrbCzAG1wtXdtcKxxrTC1Ay1&#xD;&#xa;wquGtcLjELbC8Zi2wl7rtsJBYbbCMF+1wrEutMKuibTCSFa1wpvktMIu3rTCtGe4wjaduMIKErfC&#xD;&#xa;SLa1wvS/tsJmZrjCdn63whjft8Ie47rCfdi5wmjpt8KKCLjCXmC5wsOQt8JDGbfCK4m4wmpvuMLL&#xD;&#xa;nLjC80q4wjUVusKunLjC1Be5wg4cuMLxCbjCwfW4wmi7ucIOdbvCbLG6whqdusKYErrCbpC4wmq0&#xD;&#xa;ucIoWrvCaNe6ws4iu8LSc7zCUNa7wuJZvMIwLL3CWe28wps2v8J2l77Cv3W+wvgavsKAwrzCQCy8&#xD;&#xa;wgBRu8Km8brChSa6wuM4u8IaaL3Cf5y9wg4hvMLur7vCIpO9wm0fvcIGNLzC7Le8wvKgvMKQrLzC&#xD;&#xa;p6+9wtYtvsJcxbzCQC29wjDqvcKeNbzCH2W8wpbZvsLCTL7CnjO+wuIsvsJs67vCwLq9wiKhvsLs&#xD;&#xa;o73C5Du9wqqhvcLwKr7C2kq/wqEMv8LVCb7Cpla+wsXpvMIs6bvC/fO8wueCvsIM4b3CxtC+wmTo&#xD;&#xa;vcI+arzCTNe8wiFNv8IvKL/Cpg+/woK1v8L4i7/CNv2+wmsVv8KWj77CVym+wnAlv8Joa8DCFDzA&#xD;&#xa;wiQYwcLSIcHCxILAwuxKvsJYm77CPoHAwiYPwcLuy77CcQa+wrB4vcKwYLzCxKW8worIvcIlzr/C&#xD;&#xa;OMC+wuRDvcJGZ7zCxFi9wuQzvMLPbbvCwIe+wm7bvcLm9L3COH6+wuuJvMK2B73CYb+9wqbxvMK/&#xD;&#xa;mL7CqIe9wvCavMKs7L3Ckau8wkpavMKt9LzCF8S+wmgKvsKCy73ClrG+wmIovcIns73Cmg+/wgw7&#xD;&#xa;wMI607/CpEq/wmwVvcJLsLvCMD68wuxdvcIeI7/C+bS+wpxfvsJyxsDC1tO/wmtrv8LNnb/CQiK+&#xD;&#xa;wlz7vcLa6L/CUMXBwtrQwcIAw8HCNJHBwvphwMKqc7/CSkW/wjkvwMK8ccHCHmDBwlKAwcKu+MDC&#xD;&#xa;zErCwuqgwsLa+MLC753DwmjuxcLEWMfCkePFwo47xsKnX8XC7tTCwuf3wsL+HcLCTcTBwmg6w8Is&#xD;&#xa;RMPC+qjDwiyGxMLi58TCnWvFwpjsxsKzCMbCyCTDwpM2wcJWGMPCvuDFwh42xsIfyMTCeLTFwuH7&#xD;&#xa;xMJctcfCVv3HwpTGx8J8b8jCqhjHwrgkx8LXNsfCZkLGwnxSxcL8csXCbu7FwsaQyMLa68fCo0XH&#xD;&#xa;woruxMJGHsbCORbJwry2yMLIUsfCxlfGwmLoxcLSPMnCYPDJwkw3yMKc7crC8vDLwug2y8Lu28vC&#xD;&#xa;OKvMwvLpysKGj8rCtNXLwrMay8KdGMrCUr3JwgIVy8J64MvCkbTJwjh4x8JGI8bCvBXHwnoPycKN&#xD;&#xa;Ss3CuC/Nwuywy8IkJ8zCx9/KwnB5ycKnk8nCenLJwnN6ycKc+sjCLFzJwuTrzMJkJM/CY5vOwoYO&#xD;&#xa;zsLU987CVKfNwiZZzcJQxNDCICHVwi0d18Kc29jCIF/YwtKo2MKeBNvCwpTawmY/2sJXPdvCZZXY&#xD;&#xa;whB818IQNdjCDF3XwtWC1sIGF9fCfFfXwkBy2MJ6+9nC1hfZwi5k2cJlfNjCnEPYwm/N1cKGOdXC&#xD;&#xa;Yk/XwgXL2MJSytfCgpTWwqTT1sJOGtnCrF/ZwtcT2cK08NjCscHZwpQ72sLJ/NrCy3zYwmCk18LE&#xD;&#xa;O9fC6hbYwtYU2cJN/dnC1EbZwrw/2cIqyNbCDr7Xwvb02cLQ+dnCaJvXwuYO18KSodnC1NnawtJJ&#xD;&#xa;18ISLtjC90nawoel2cIwl9jCi0XZwih328Ks7NjC5KzZwqui2cJw0tjCukLYws+O2MJaqtrCUuXa&#xD;&#xa;wviX2MIKxtfCnqXXwhjI2MJwAtvCIFvcwgCL2cJ0/djCdyXawh9H2cJ+ntfCy4TXwhqF2MJ68NnC&#xD;&#xa;CzvYwljT2cIkP9vCIs/bwjpB2sK2A9rCXt/awjZH2sIfltvCKWPcwjp53MKrGd3CaBPewj/03MJm&#xD;&#xa;U97CphfgwlJp3cKQpt3Crxjewm7d28Kq/9vCNNXcwqY728IUH9vCkirbwgIt28KK19zCjmzdwoBH&#xD;&#xa;3MIAUtvCUq3bwo8f28Ig09jCiyfZwhbx2sLWe9zCvgzbwmwI2sI2nNvC0lvdwg6128I8PNvCLufa&#xD;&#xa;wkyK28KkitzCJIDcwmAO28L0TNrCDHXawjla28IQkdzCoCDcwjRI3MJVUdvCtujZwnCs2sK8Yd3C&#xD;&#xa;iGbbwuSB2cImFNvCCI7rwoA/l8JLuYTCrOB9wgsMfMJoG4LCaWeFwkohjMJdoYvCYv6LwlnvjcKf&#xD;&#xa;nYzChXWPwlcejsL6fo/C5OmQwgVTj8IVMI/COiWRwoWFkcJ2tYzC8I6MwuQbjcJvEo/ClwGRwheQ&#xD;&#xa;lsK8+pbCN5qVwlielcJ905rCmu+fwst0ncIC/JvCdIWdws3snsKxC5zCfh2cwniFnMJRypzCtRag&#xD;&#xa;wuoCosJQt6DCzoegwhY9ocIWN6PCsNqkwrSlpMJ6maTCYpCkwmLvo8Li+KPCyEamwnBNqMLMcqrC&#xD;&#xa;v2GswoS+q8Kk86vCVACuwnvUr8JxZa/CqHqswrdXq8LqT6zCZsuswhZxrMLBX67CnmqvwpYyrsKc&#xD;&#xa;pq3CJFGvwghrsMK3y6/CXoCtwmWZr8ICi7DCgRezwogSs8Joq7LCm0Sxwuz/scIfibTCOOK1wlIM&#xD;&#xa;t8K87LfCj3K3wqDYs8KT1bLCVsW0wnZ0tcJGhLXCfPe0ws/ntcLGXrbCzAG1wtXdtcKxxrTC1Ay1&#xD;&#xa;wquGtcLjELbC8Zi2wl7rtsJBYbbCMF+1wrEutMKuibTCSFa1wpvktMIu3rTCtGe4wjaduMIKErfC&#xD;&#xa;SLa1wvS/tsJmZrjCdn63whjft8Ie47rCfdi5wmjpt8KKCLjCXmC5wsOQt8JDGbfCK4m4wmpvuMLL&#xD;&#xa;nLjC80q4wjUVusKunLjC1Be5wg4cuMLxCbjCwfW4wmi7ucIOdbvCbLG6whqdusKYErrCbpC4wmq0&#xD;&#xa;ucIoWrvCaNe6ws4iu8LSc7zCUNa7wuJZvMIwLL3CWe28wps2v8J2l77Cv3W+wvgavsKAwrzCQCy8&#xD;&#xa;wgBRu8Km8brChSa6wuM4u8IaaL3Cf5y9wg4hvMLur7vCIpO9wm0fvcIGNLzC7Le8wvKgvMKQrLzC&#xD;&#xa;p6+9wtYtvsJcxbzCQC29wjDqvcKeNbzCH2W8wpbZvsLCTL7CnjO+wuIsvsJs67vCwLq9wiKhvsLs&#xD;&#xa;o73C5Du9wqqhvcLwKr7C2kq/wqEMv8LVCb7Cpla+wsXpvMIs6bvC/fO8wueCvsIM4b3CxtC+wmTo&#xD;&#xa;vcI+arzCTNe8wiFNv8IvKL/Cpg+/woK1v8L4i7/CNv2+wmsVv8KWj77CVym+wnAlv8Joa8DCFDzA&#xD;&#xa;wiQYwcLSIcHCxILAwuxKvsJYm77CPoHAwiYPwcLuy77CcQa+wrB4vcKwYLzCxKW8worIvcIlzr/C&#xD;&#xa;OMC+wuRDvcJGZ7zCxFi9wuQzvMLPbbvCwIe+wm7bvcLm9L3COH6+wuuJvMK2B73CYb+9wqbxvMK/&#xD;&#xa;mL7CqIe9wvCavMKs7L3Ckau8wkpavMKt9LzCF8S+wmgKvsKCy73ClrG+wmIovcIns73Cmg+/wgw7&#xD;&#xa;wMI607/CpEq/wmwVvcJLsLvCMD68wuxdvcIeI7/C+bS+wpxfvsJyxsDC1tO/wmtrv8LNnb/CQiK+&#xD;&#xa;wlz7vcLa6L/CUMXBwtrQwcIAw8HCNJHBwvphwMKqc7/CSkW/wjkvwMK8ccHCHmDBwlKAwcKu+MDC&#xD;&#xa;zErCwuqgwsLa+MLC753DwmjuxcLEWMfCkePFwo47xsKnX8XC7tTCwuf3wsL+HcLCTcTBwmg6w8Is&#xD;&#xa;RMPC+qjDwiyGxMLi58TCnWvFwpjsxsKzCMbCyCTDwpM2wcJWGMPCvuDFwh42xsIfyMTCeLTFwuH7&#xD;&#xa;xMJctcfCVv3HwpTGx8J8b8jCqhjHwrgkx8LXNsfCZkLGwnxSxcL8csXCbu7FwsaQyMLa68fCo0XH&#xD;&#xa;woruxMJGHsbCORbJwry2yMLIUsfCxlfGwmLoxcLSPMnCYPDJwkw3yMKc7crC8vDLwug2y8Lu28vC&#xD;&#xa;OKvMwvLpysKGj8rCtNXLwrMay8KdGMrCUr3JwgIVy8J64MvCkbTJwjh4x8JGI8bCvBXHwnoPycKN&#xD;&#xa;Ss3CuC/Nwuywy8IkJ8zCx9/KwnB5ycKnk8nCenLJwnN6ycKc+sjCLFzJwuTrzMJkJM/CY5vOwoYO&#xD;&#xa;zsLU987CVKfNwiZZzcJQxNDCICHVwi0d18Kc29jCIF/YwtKo2MKeBNvCwpTawmY/2sJXPdvCZZXY&#xD;&#xa;whB818IQNdjCDF3XwtWC1sIGF9fCfFfXwkBy2MJ6+9nC1hfZwi5k2cJlfNjCnEPYwm/N1cKGOdXC&#xD;&#xa;Yk/XwgXL2MJSytfCgpTWwqTT1sJOGtnCrF/ZwtcT2cK08NjCscHZwpQ72sLJ/NrCy3zYwmCk18LE&#xD;&#xa;O9fC6hbYwtYU2cJN/dnC1EbZwrw/2cIqyNbCDr7Xwvb02cLQ+dnCaJvXwuYO18KSodnC1NnawtJJ&#xD;&#xa;18ISLtjC90nawoel2cIwl9jCi0XZwih328Ks7NjC5KzZwqui2cJw0tjCukLYws+O2MJaqtrCUuXa&#xD;&#xa;wviX2MIKxtfCnqXXwhjI2MJwAtvCIFvcwgCL2cJ0/djCdyXawh9H2cJ+ntfCy4TXwhqF2MJ68NnC&#xD;&#xa;CzvYwljT2cIkP9vCIs/bwjpB2sK2A9rCXt/awjZH2sIfltvCKWPcwjp53MKrGd3CaBPewj/03MJm&#xD;&#xa;U97CphfgwlJp3cKQpt3Crxjewm7d28Kq/9vCNNXcwqY728IUH9vCkirbwgIt28KK19zCjmzdwoBH&#xD;&#xa;3MIAUtvCUq3bwo8f28Ig09jCiyfZwhbx2sLWe9zCvgzbwmwI2sI2nNvC0lvdwg6128I8PNvCLufa&#xD;&#xa;wkyK28KkitzCJIDcwmAO28L0TNrCDHXawjla28IQkdzCoCDcwjRI3MJVUdvCtujZwnCs2sK8Yd3C&#xD;&#xa;iGbbwuSB2cImFNvCCI7r" leadInLength="0/1"  />
            </Keyframes>
           </Parameter>
           </Parameters>
          </GenericEffect>
          <GenericEffect id="7902" name = "Declipper" >
           <Parameters>
           <InterpolatingParam id="7903" interp="linr"  time="0/1" value="-1" leadInLength="0/1"   name="sensitivity"/>
           </Parameters>
          </GenericEffect>
          <GenericEffect id="7904" name = "Declicker" >
           <Parameters>
           <InterpolatingParam id="7905" interp="linr"  time="0/1" value="3" leadInLength="0/1"   name="sensitivity"/>
           </Parameters>
          </GenericEffect>
         </Effects>
         <Attributes>
          <Attribute id="7906" value="" name="ident"/>
          <Attribute id="7907" value="0" name="mixToMono"/>
         </Attributes>
         <MetaData>
          <entry key="WinSubProjectDisplayName" val=""/>
         </MetaData>
         <ExtraData>
          <Entry key="ZoomPanBin">
           <ZoomPanBin id="7908"  >
            <ZoomPanKeyframes>
            </ZoomPanKeyframes>
           </ZoomPanBin>
          </Entry>
          <Entry key="CursorEffectBin">
           <CursorEffectBin id="7909"  >
            <CursorEffectKeyframes>
            </CursorEffectKeyframes>
           </CursorEffectBin>
          </Entry>
         </ExtraData>
         <GenericTrack id="7910"  >
          <Attributes>
           <Attribute id="7911" value="" name="ident"/>
           <Attribute id="7912" value="0" name="audioMuted"/>
           <Attribute id="7913" value="0" name="videoHidden"/>
          </Attributes>
          <MetaData>
           <entry key="IsLocked" val="False"/>
           <entry key="WinTrackHeight" val="0"/>
          </MetaData>
          <Medias>
           <AMFile id="7914" start="0" duration="3041" scalar="1/1" mediaStart="0/1" mediaDuration="3041/1" trackNumber="0" src="29" channelNumber="0" >
            <Parameters>
             <InterpolatingParam id="7915" interp="linr"  time="0/1" value="1" leadInLength="0/1"  name="volume"/>
             <Parameter id="7916"  name="captions"/>
            </Parameters>
            <Attributes>
             <Attribute id="7917" value="" name="ident"/>
             <Attribute id="7918" value="48000" name="sampleRate"/>
             <Attribute id="7919" value="16" name="bitDepth"/>
             <Attribute id="7920" value="1" name="gain"/>
             <Attribute id="7921" value="0" name="mixToMono"/>
            </Attributes>
            <MetaData>
             <entry key="WinSubProjectDisplayName" val=""/>
            </MetaData>
           </AMFile>
           <AMFile id="7922" start="3041" duration="215" scalar="1/1" mediaStart="3054/1" mediaDuration="215/1" trackNumber="0" src="29" channelNumber="0" >
            <Parameters>
             <InterpolatingParam id="7923" interp="linr"  time="0/1" value="1" leadInLength="0/1"  name="volume"/>
             <Parameter id="7924"  name="captions"/>
            </Parameters>
            <Attributes>
             <Attribute id="7925" value="" name="ident"/>
             <Attribute id="7926" value="48000" name="sampleRate"/>
             <Attribute id="7927" value="16" name="bitDepth"/>
             <Attribute id="7928" value="1" name="gain"/>
             <Attribute id="7929" value="0" name="mixToMono"/>
            </Attributes>
            <MetaData>
             <entry key="WinSubProjectDisplayName" val=""/>
            </MetaData>
           </AMFile>
           <AMFile id="7930" start="3256" duration="155" scalar="1/1" mediaStart="3288/1" mediaDuration="155/1" trackNumber="0" src="29" channelNumber="0" >
            <Parameters>
             <InterpolatingParam id="7931" interp="linr"  time="0/1" value="1" leadInLength="0/1"  name="volume"/>
             <Parameter id="7932"  name="captions"/>
            </Parameters>
            <Attributes>
             <Attribute id="7933" value="" name="ident"/>
             <Attribute id="7934" value="48000" name="sampleRate"/>
             <Attribute id="7935" value="16" name="bitDepth"/>
             <Attribute id="7936" value="1" name="gain"/>
             <Attribute id="7937" value="0" name="mixToMono"/>
            </Attributes>
            <MetaData>
             <entry key="WinSubProjectDisplayName" val=""/>
            </MetaData>
           </AMFile>
           <AMFile id="7938" start="3411" duration="103" scalar="1/1" mediaStart="3450/1" mediaDuration="103/1" trackNumber="0" src="29" channelNumber="0" >
            <Parameters>
             <InterpolatingParam id="7939" interp="linr"  time="0/1" value="1" leadInLength="0/1"  name="volume"/>
             <Parameter id="7940"  name="captions"/>
            </Parameters>
            <Attributes>
             <Attribute id="7941" value="" name="ident"/>
             <Attribute id="7942" value="48000" name="sampleRate"/>
             <Attribute id="7943" value="16" name="bitDepth"/>
             <Attribute id="7944" value="1" name="gain"/>
             <Attribute id="7945" value="0" name="mixToMono"/>
            </Attributes>
            <MetaData>
             <entry key="WinSubProjectDisplayName" val=""/>
            </MetaData>
           </AMFile>
           <AMFile id="7946" start="3514" duration="10082" scalar="1/1" mediaStart="3564/1" mediaDuration="10082/1" trackNumber="0" src="29" channelNumber="0" >
            <Parameters>
             <InterpolatingParam id="7947" interp="linr"  time="0/1" value="1" leadInLength="0/1"  name="volume"/>
             <Parameter id="7948"  name="captions"/>
            </Parameters>
            <Attributes>
             <Attribute id="7949" value="" name="ident"/>
             <Attribute id="7950" value="48000" name="sampleRate"/>
             <Attribute id="7951" value="16" name="bitDepth"/>
             <Attribute id="7952" value="1" name="gain"/>
             <Attribute id="7953" value="0" name="mixToMono"/>
            </Attributes>
            <MetaData>
             <entry key="WinSubProjectDisplayName" val=""/>
            </MetaData>
           </AMFile>
          </Medias>
         </GenericTrack>
        </StitchedMedia>
        <StitchedMedia id="7954" start="1899" duration="360" scalar="1/1" mediaStart="2282/1" mediaDuration="360/1" minMediaStart="0/1" >
         <Transformer>
          <VectorParam id="7955"  name="translation">
           <InterpolatingParam id="7956" interp="linr"  time="0/1" value="0" leadInLength="0/1"  />
           <InterpolatingParam id="7957" interp="linr"  time="0/1" value="0" leadInLength="0/1"  />
           <InterpolatingParam id="7958" interp="linr"  time="0/1" value="0" leadInLength="0/1"  />
          </VectorParam>
          <VectorParam id="7959"  name="rotation">
           <InterpolatingParam id="7960" interp="linr"  time="0/1" value="0" leadInLength="0/1"  />
           <InterpolatingParam id="7961" interp="linr"  time="0/1" value="0" leadInLength="0/1"  />
           <InterpolatingParam id="7962" interp="linr"  time="0/1" value="0" leadInLength="0/1"  />
          </VectorParam>
          <VectorParam id="7963"  name="shear">
           <InterpolatingParam id="7964" interp="linr"  time="0/1" value="0" leadInLength="0/1"  />
           <InterpolatingParam id="7965" interp="linr"  time="0/1" value="0" leadInLength="0/1"  />
           <InterpolatingParam id="7966" interp="linr"  time="0/1" value="0" leadInLength="0/1"  />
          </VectorParam>
          <VectorParam id="7967"  name="scale">
           <InterpolatingParam id="7968" interp="linr"  time="0/1" value="1" leadInLength="0/1"  />
           <InterpolatingParam id="7969" interp="linr"  time="0/1" value="1" leadInLength="0/1"  />
           <InterpolatingParam id="7970" interp="linr"  time="0/1" value="1" leadInLength="0/1"  />
          </VectorParam>
          <VectorParam id="7971"  name="anchor">
           <InterpolatingParam id="7972" interp="linr"  time="0/1" value="0" leadInLength="0/1"  />
           <InterpolatingParam id="7973" interp="linr"  time="0/1" value="0" leadInLength="0/1"  />
           <InterpolatingParam id="7974" interp="linr"  time="0/1" value="0" leadInLength="0/1"  />
          </VectorParam>
         </Transformer>
         <Parameters>
          <InterpolatingParam id="7975" interp="linr"  time="0/1" value="1" leadInLength="0/1"  name="cursorOpacity"/>
          <InterpolatingParam id="7976" interp="linr"  time="0/1" value="1" leadInLength="0/1"  name="cursorScale"/>
          <InterpolatingParam id="7977" interp="linr"  time="0/1" value="1.5625" leadInLength="0/1"  name="volume"/>
          <Parameter id="7978"  name="captions"/>
         </Parameters>
         <Effects>
          <GenericEffect id="7979" name = "WinCompression" >
           <Parameters>
           <InterpolatingParam id="7980" interp="linr"  time="0/1" value="0" leadInLength="0/1"   name="attack"/>
           <InterpolatingParam id="7981" interp="linr"  time="0/1" value="9" leadInLength="0/1"   name="gain"/>
           <Parameter id="7982"   name="preset">
            <Keyframes>
            <Keyframe id="7983"  time="0/1" value="1" leadInLength="0/1"  />
            </Keyframes>
           </Parameter>
           <InterpolatingParam id="7984" interp="linr"  time="0/1" value="10" leadInLength="0/1"   name="ratio"/>
           <InterpolatingParam id="7985" interp="linr"  time="0/1" value="3500" leadInLength="0/1"   name="release"/>
           <InterpolatingParam id="7986" interp="linr"  time="0/1" value="-20" leadInLength="0/1"   name="threshold"/>
           </Parameters>
          </GenericEffect>
          <GenericEffect id="7987" name = "NoiseReduction" >
           <Parameters>
           <InterpolatingParam id="7988" interp="linr"  time="0/1" value="20" leadInLength="0/1"   name="denoiserAmount"/>
           <InterpolatingParam id="7989" interp="linr"  time="0/1" value="0" leadInLength="0/1"   name="denoiserThreshold"/>
           <Parameter id="7990"   name="noiseProfile">
            <Keyframes>
            <Keyframe id="7991"  time="0/1" value="FBAAAAIAAABErAAAAQIAAIA/l8JLuYTCrOB9wgsMfMJoG4LCaWeFwkohjMJdoYvCYv6LwlnvjcKf&#xD;&#xa;nYzChXWPwlcejsL6fo/C5OmQwgVTj8IVMI/COiWRwoWFkcJ2tYzC8I6MwuQbjcJvEo/ClwGRwheQ&#xD;&#xa;lsK8+pbCN5qVwlielcJ905rCmu+fwst0ncIC/JvCdIWdws3snsKxC5zCfh2cwniFnMJRypzCtRag&#xD;&#xa;wuoCosJQt6DCzoegwhY9ocIWN6PCsNqkwrSlpMJ6maTCYpCkwmLvo8Li+KPCyEamwnBNqMLMcqrC&#xD;&#xa;v2GswoS+q8Kk86vCVACuwnvUr8JxZa/CqHqswrdXq8LqT6zCZsuswhZxrMLBX67CnmqvwpYyrsKc&#xD;&#xa;pq3CJFGvwghrsMK3y6/CXoCtwmWZr8ICi7DCgRezwogSs8Joq7LCm0Sxwuz/scIfibTCOOK1wlIM&#xD;&#xa;t8K87LfCj3K3wqDYs8KT1bLCVsW0wnZ0tcJGhLXCfPe0ws/ntcLGXrbCzAG1wtXdtcKxxrTC1Ay1&#xD;&#xa;wquGtcLjELbC8Zi2wl7rtsJBYbbCMF+1wrEutMKuibTCSFa1wpvktMIu3rTCtGe4wjaduMIKErfC&#xD;&#xa;SLa1wvS/tsJmZrjCdn63whjft8Ie47rCfdi5wmjpt8KKCLjCXmC5wsOQt8JDGbfCK4m4wmpvuMLL&#xD;&#xa;nLjC80q4wjUVusKunLjC1Be5wg4cuMLxCbjCwfW4wmi7ucIOdbvCbLG6whqdusKYErrCbpC4wmq0&#xD;&#xa;ucIoWrvCaNe6ws4iu8LSc7zCUNa7wuJZvMIwLL3CWe28wps2v8J2l77Cv3W+wvgavsKAwrzCQCy8&#xD;&#xa;wgBRu8Km8brChSa6wuM4u8IaaL3Cf5y9wg4hvMLur7vCIpO9wm0fvcIGNLzC7Le8wvKgvMKQrLzC&#xD;&#xa;p6+9wtYtvsJcxbzCQC29wjDqvcKeNbzCH2W8wpbZvsLCTL7CnjO+wuIsvsJs67vCwLq9wiKhvsLs&#xD;&#xa;o73C5Du9wqqhvcLwKr7C2kq/wqEMv8LVCb7Cpla+wsXpvMIs6bvC/fO8wueCvsIM4b3CxtC+wmTo&#xD;&#xa;vcI+arzCTNe8wiFNv8IvKL/Cpg+/woK1v8L4i7/CNv2+wmsVv8KWj77CVym+wnAlv8Joa8DCFDzA&#xD;&#xa;wiQYwcLSIcHCxILAwuxKvsJYm77CPoHAwiYPwcLuy77CcQa+wrB4vcKwYLzCxKW8worIvcIlzr/C&#xD;&#xa;OMC+wuRDvcJGZ7zCxFi9wuQzvMLPbbvCwIe+wm7bvcLm9L3COH6+wuuJvMK2B73CYb+9wqbxvMK/&#xD;&#xa;mL7CqIe9wvCavMKs7L3Ckau8wkpavMKt9LzCF8S+wmgKvsKCy73ClrG+wmIovcIns73Cmg+/wgw7&#xD;&#xa;wMI607/CpEq/wmwVvcJLsLvCMD68wuxdvcIeI7/C+bS+wpxfvsJyxsDC1tO/wmtrv8LNnb/CQiK+&#xD;&#xa;wlz7vcLa6L/CUMXBwtrQwcIAw8HCNJHBwvphwMKqc7/CSkW/wjkvwMK8ccHCHmDBwlKAwcKu+MDC&#xD;&#xa;zErCwuqgwsLa+MLC753DwmjuxcLEWMfCkePFwo47xsKnX8XC7tTCwuf3wsL+HcLCTcTBwmg6w8Is&#xD;&#xa;RMPC+qjDwiyGxMLi58TCnWvFwpjsxsKzCMbCyCTDwpM2wcJWGMPCvuDFwh42xsIfyMTCeLTFwuH7&#xD;&#xa;xMJctcfCVv3HwpTGx8J8b8jCqhjHwrgkx8LXNsfCZkLGwnxSxcL8csXCbu7FwsaQyMLa68fCo0XH&#xD;&#xa;woruxMJGHsbCORbJwry2yMLIUsfCxlfGwmLoxcLSPMnCYPDJwkw3yMKc7crC8vDLwug2y8Lu28vC&#xD;&#xa;OKvMwvLpysKGj8rCtNXLwrMay8KdGMrCUr3JwgIVy8J64MvCkbTJwjh4x8JGI8bCvBXHwnoPycKN&#xD;&#xa;Ss3CuC/Nwuywy8IkJ8zCx9/KwnB5ycKnk8nCenLJwnN6ycKc+sjCLFzJwuTrzMJkJM/CY5vOwoYO&#xD;&#xa;zsLU987CVKfNwiZZzcJQxNDCICHVwi0d18Kc29jCIF/YwtKo2MKeBNvCwpTawmY/2sJXPdvCZZXY&#xD;&#xa;whB818IQNdjCDF3XwtWC1sIGF9fCfFfXwkBy2MJ6+9nC1hfZwi5k2cJlfNjCnEPYwm/N1cKGOdXC&#xD;&#xa;Yk/XwgXL2MJSytfCgpTWwqTT1sJOGtnCrF/ZwtcT2cK08NjCscHZwpQ72sLJ/NrCy3zYwmCk18LE&#xD;&#xa;O9fC6hbYwtYU2cJN/dnC1EbZwrw/2cIqyNbCDr7Xwvb02cLQ+dnCaJvXwuYO18KSodnC1NnawtJJ&#xD;&#xa;18ISLtjC90nawoel2cIwl9jCi0XZwih328Ks7NjC5KzZwqui2cJw0tjCukLYws+O2MJaqtrCUuXa&#xD;&#xa;wviX2MIKxtfCnqXXwhjI2MJwAtvCIFvcwgCL2cJ0/djCdyXawh9H2cJ+ntfCy4TXwhqF2MJ68NnC&#xD;&#xa;CzvYwljT2cIkP9vCIs/bwjpB2sK2A9rCXt/awjZH2sIfltvCKWPcwjp53MKrGd3CaBPewj/03MJm&#xD;&#xa;U97CphfgwlJp3cKQpt3Crxjewm7d28Kq/9vCNNXcwqY728IUH9vCkirbwgIt28KK19zCjmzdwoBH&#xD;&#xa;3MIAUtvCUq3bwo8f28Ig09jCiyfZwhbx2sLWe9zCvgzbwmwI2sI2nNvC0lvdwg6128I8PNvCLufa&#xD;&#xa;wkyK28KkitzCJIDcwmAO28L0TNrCDHXawjla28IQkdzCoCDcwjRI3MJVUdvCtujZwnCs2sK8Yd3C&#xD;&#xa;iGbbwuSB2cImFNvCCI7rwoA/l8JLuYTCrOB9wgsMfMJoG4LCaWeFwkohjMJdoYvCYv6LwlnvjcKf&#xD;&#xa;nYzChXWPwlcejsL6fo/C5OmQwgVTj8IVMI/COiWRwoWFkcJ2tYzC8I6MwuQbjcJvEo/ClwGRwheQ&#xD;&#xa;lsK8+pbCN5qVwlielcJ905rCmu+fwst0ncIC/JvCdIWdws3snsKxC5zCfh2cwniFnMJRypzCtRag&#xD;&#xa;wuoCosJQt6DCzoegwhY9ocIWN6PCsNqkwrSlpMJ6maTCYpCkwmLvo8Li+KPCyEamwnBNqMLMcqrC&#xD;&#xa;v2GswoS+q8Kk86vCVACuwnvUr8JxZa/CqHqswrdXq8LqT6zCZsuswhZxrMLBX67CnmqvwpYyrsKc&#xD;&#xa;pq3CJFGvwghrsMK3y6/CXoCtwmWZr8ICi7DCgRezwogSs8Joq7LCm0Sxwuz/scIfibTCOOK1wlIM&#xD;&#xa;t8K87LfCj3K3wqDYs8KT1bLCVsW0wnZ0tcJGhLXCfPe0ws/ntcLGXrbCzAG1wtXdtcKxxrTC1Ay1&#xD;&#xa;wquGtcLjELbC8Zi2wl7rtsJBYbbCMF+1wrEutMKuibTCSFa1wpvktMIu3rTCtGe4wjaduMIKErfC&#xD;&#xa;SLa1wvS/tsJmZrjCdn63whjft8Ie47rCfdi5wmjpt8KKCLjCXmC5wsOQt8JDGbfCK4m4wmpvuMLL&#xD;&#xa;nLjC80q4wjUVusKunLjC1Be5wg4cuMLxCbjCwfW4wmi7ucIOdbvCbLG6whqdusKYErrCbpC4wmq0&#xD;&#xa;ucIoWrvCaNe6ws4iu8LSc7zCUNa7wuJZvMIwLL3CWe28wps2v8J2l77Cv3W+wvgavsKAwrzCQCy8&#xD;&#xa;wgBRu8Km8brChSa6wuM4u8IaaL3Cf5y9wg4hvMLur7vCIpO9wm0fvcIGNLzC7Le8wvKgvMKQrLzC&#xD;&#xa;p6+9wtYtvsJcxbzCQC29wjDqvcKeNbzCH2W8wpbZvsLCTL7CnjO+wuIsvsJs67vCwLq9wiKhvsLs&#xD;&#xa;o73C5Du9wqqhvcLwKr7C2kq/wqEMv8LVCb7Cpla+wsXpvMIs6bvC/fO8wueCvsIM4b3CxtC+wmTo&#xD;&#xa;vcI+arzCTNe8wiFNv8IvKL/Cpg+/woK1v8L4i7/CNv2+wmsVv8KWj77CVym+wnAlv8Joa8DCFDzA&#xD;&#xa;wiQYwcLSIcHCxILAwuxKvsJYm77CPoHAwiYPwcLuy77CcQa+wrB4vcKwYLzCxKW8worIvcIlzr/C&#xD;&#xa;OMC+wuRDvcJGZ7zCxFi9wuQzvMLPbbvCwIe+wm7bvcLm9L3COH6+wuuJvMK2B73CYb+9wqbxvMK/&#xD;&#xa;mL7CqIe9wvCavMKs7L3Ckau8wkpavMKt9LzCF8S+wmgKvsKCy73ClrG+wmIovcIns73Cmg+/wgw7&#xD;&#xa;wMI607/CpEq/wmwVvcJLsLvCMD68wuxdvcIeI7/C+bS+wpxfvsJyxsDC1tO/wmtrv8LNnb/CQiK+&#xD;&#xa;wlz7vcLa6L/CUMXBwtrQwcIAw8HCNJHBwvphwMKqc7/CSkW/wjkvwMK8ccHCHmDBwlKAwcKu+MDC&#xD;&#xa;zErCwuqgwsLa+MLC753DwmjuxcLEWMfCkePFwo47xsKnX8XC7tTCwuf3wsL+HcLCTcTBwmg6w8Is&#xD;&#xa;RMPC+qjDwiyGxMLi58TCnWvFwpjsxsKzCMbCyCTDwpM2wcJWGMPCvuDFwh42xsIfyMTCeLTFwuH7&#xD;&#xa;xMJctcfCVv3HwpTGx8J8b8jCqhjHwrgkx8LXNsfCZkLGwnxSxcL8csXCbu7FwsaQyMLa68fCo0XH&#xD;&#xa;woruxMJGHsbCORbJwry2yMLIUsfCxlfGwmLoxcLSPMnCYPDJwkw3yMKc7crC8vDLwug2y8Lu28vC&#xD;&#xa;OKvMwvLpysKGj8rCtNXLwrMay8KdGMrCUr3JwgIVy8J64MvCkbTJwjh4x8JGI8bCvBXHwnoPycKN&#xD;&#xa;Ss3CuC/Nwuywy8IkJ8zCx9/KwnB5ycKnk8nCenLJwnN6ycKc+sjCLFzJwuTrzMJkJM/CY5vOwoYO&#xD;&#xa;zsLU987CVKfNwiZZzcJQxNDCICHVwi0d18Kc29jCIF/YwtKo2MKeBNvCwpTawmY/2sJXPdvCZZXY&#xD;&#xa;whB818IQNdjCDF3XwtWC1sIGF9fCfFfXwkBy2MJ6+9nC1hfZwi5k2cJlfNjCnEPYwm/N1cKGOdXC&#xD;&#xa;Yk/XwgXL2MJSytfCgpTWwqTT1sJOGtnCrF/ZwtcT2cK08NjCscHZwpQ72sLJ/NrCy3zYwmCk18LE&#xD;&#xa;O9fC6hbYwtYU2cJN/dnC1EbZwrw/2cIqyNbCDr7Xwvb02cLQ+dnCaJvXwuYO18KSodnC1NnawtJJ&#xD;&#xa;18ISLtjC90nawoel2cIwl9jCi0XZwih328Ks7NjC5KzZwqui2cJw0tjCukLYws+O2MJaqtrCUuXa&#xD;&#xa;wviX2MIKxtfCnqXXwhjI2MJwAtvCIFvcwgCL2cJ0/djCdyXawh9H2cJ+ntfCy4TXwhqF2MJ68NnC&#xD;&#xa;CzvYwljT2cIkP9vCIs/bwjpB2sK2A9rCXt/awjZH2sIfltvCKWPcwjp53MKrGd3CaBPewj/03MJm&#xD;&#xa;U97CphfgwlJp3cKQpt3Crxjewm7d28Kq/9vCNNXcwqY728IUH9vCkirbwgIt28KK19zCjmzdwoBH&#xD;&#xa;3MIAUtvCUq3bwo8f28Ig09jCiyfZwhbx2sLWe9zCvgzbwmwI2sI2nNvC0lvdwg6128I8PNvCLufa&#xD;&#xa;wkyK28KkitzCJIDcwmAO28L0TNrCDHXawjla28IQkdzCoCDcwjRI3MJVUdvCtujZwnCs2sK8Yd3C&#xD;&#xa;iGbbwuSB2cImFNvCCI7r" leadInLength="0/1"  />
            </Keyframes>
           </Parameter>
           </Parameters>
          </GenericEffect>
          <GenericEffect id="7992" name = "Declipper" >
           <Parameters>
           <InterpolatingParam id="7993" interp="linr"  time="0/1" value="-1" leadInLength="0/1"   name="sensitivity"/>
           </Parameters>
          </GenericEffect>
          <GenericEffect id="7994" name = "Declicker" >
           <Parameters>
           <InterpolatingParam id="7995" interp="linr"  time="0/1" value="3" leadInLength="0/1"   name="sensitivity"/>
           </Parameters>
          </GenericEffect>
         </Effects>
         <Attributes>
          <Attribute id="7996" value="" name="ident"/>
          <Attribute id="7997" value="0" name="mixToMono"/>
         </Attributes>
         <MetaData>
          <entry key="WinSubProjectDisplayName" val=""/>
         </MetaData>
         <ExtraData>
          <Entry key="ZoomPanBin">
           <ZoomPanBin id="7998"  >
            <ZoomPanKeyframes>
            </ZoomPanKeyframes>
           </ZoomPanBin>
          </Entry>
          <Entry key="CursorEffectBin">
           <CursorEffectBin id="7999"  >
            <CursorEffectKeyframes>
            </CursorEffectKeyframes>
           </CursorEffectBin>
          </Entry>
         </ExtraData>
         <GenericTrack id="8000"  >
          <Attributes>
           <Attribute id="8001" value="" name="ident"/>
           <Attribute id="8002" value="0" name="audioMuted"/>
           <Attribute id="8003" value="0" name="videoHidden"/>
          </Attributes>
          <MetaData>
           <entry key="IsLocked" val="False"/>
           <entry key="WinTrackHeight" val="0"/>
          </MetaData>
          <Medias>
           <AMFile id="8004" start="0" duration="117" scalar="1/1" mediaStart="0/1" mediaDuration="117/1" trackNumber="0" src="29" channelNumber="0" >
            <Parameters>
             <InterpolatingParam id="8005" interp="linr"  time="0/1" value="1" leadInLength="0/1"  name="volume"/>
             <Parameter id="8006"  name="captions"/>
            </Parameters>
            <Attributes>
             <Attribute id="8007" value="" name="ident"/>
             <Attribute id="8008" value="48000" name="sampleRate"/>
             <Attribute id="8009" value="16" name="bitDepth"/>
             <Attribute id="8010" value="1" name="gain"/>
             <Attribute id="8011" value="0" name="mixToMono"/>
            </Attributes>
            <MetaData>
             <entry key="WinSubProjectDisplayName" val=""/>
            </MetaData>
           </AMFile>
           <AMFile id="8012" start="117" duration="272" scalar="1/1" mediaStart="131/1" mediaDuration="272/1" trackNumber="0" src="29" channelNumber="0" >
            <Parameters>
             <InterpolatingParam id="8013" interp="linr"  time="0/1" value="1" leadInLength="0/1"  name="volume"/>
             <Parameter id="8014"  name="captions"/>
            </Parameters>
            <Attributes>
             <Attribute id="8015" value="" name="ident"/>
             <Attribute id="8016" value="48000" name="sampleRate"/>
             <Attribute id="8017" value="16" name="bitDepth"/>
             <Attribute id="8018" value="1" name="gain"/>
             <Attribute id="8019" value="0" name="mixToMono"/>
            </Attributes>
            <MetaData>
             <entry key="WinSubProjectDisplayName" val=""/>
            </MetaData>
           </AMFile>
           <AMFile id="8020" start="389" duration="1309" scalar="1/1" mediaStart="415/1" mediaDuration="1309/1" trackNumber="0" src="29" channelNumber="0" >
            <Parameters>
             <InterpolatingParam id="8021" interp="linr"  time="0/1" value="1" leadInLength="0/1"  name="volume"/>
             <Parameter id="8022"  name="captions"/>
            </Parameters>
            <Attributes>
             <Attribute id="8023" value="" name="ident"/>
             <Attribute id="8024" value="48000" name="sampleRate"/>
             <Attribute id="8025" value="16" name="bitDepth"/>
             <Attribute id="8026" value="1" name="gain"/>
             <Attribute id="8027" value="0" name="mixToMono"/>
            </Attributes>
            <MetaData>
             <entry key="WinSubProjectDisplayName" val=""/>
            </MetaData>
           </AMFile>
           <AMFile id="8028" start="1698" duration="103" scalar="1/1" mediaStart="1734/1" mediaDuration="103/1" trackNumber="0" src="29" channelNumber="0" >
            <Parameters>
             <InterpolatingParam id="8029" interp="linr"  time="0/1" value="1" leadInLength="0/1"  name="volume"/>
             <Parameter id="8030"  name="captions"/>
            </Parameters>
            <Attributes>
             <Attribute id="8031" value="" name="ident"/>
             <Attribute id="8032" value="48000" name="sampleRate"/>
             <Attribute id="8033" value="16" name="bitDepth"/>
             <Attribute id="8034" value="1" name="gain"/>
             <Attribute id="8035" value="0" name="mixToMono"/>
            </Attributes>
            <MetaData>
             <entry key="WinSubProjectDisplayName" val=""/>
            </MetaData>
           </AMFile>
           <AMFile id="8036" start="1801" duration="245" scalar="1/1" mediaStart="2164/1" mediaDuration="245/1" trackNumber="0" src="29" channelNumber="0" >
            <Parameters>
             <InterpolatingParam id="8037" interp="linr"  time="0/1" value="1" leadInLength="0/1"  name="volume"/>
             <Parameter id="8038"  name="captions"/>
            </Parameters>
            <Attributes>
             <Attribute id="8039" value="" name="ident"/>
             <Attribute id="8040" value="48000" name="sampleRate"/>
             <Attribute id="8041" value="16" name="bitDepth"/>
             <Attribute id="8042" value="1" name="gain"/>
             <Attribute id="8043" value="0" name="mixToMono"/>
            </Attributes>
            <MetaData>
             <entry key="WinSubProjectDisplayName" val=""/>
            </MetaData>
           </AMFile>
           <AMFile id="8044" start="2046" duration="202" scalar="1/1" mediaStart="2637/1" mediaDuration="202/1" trackNumber="0" src="29" channelNumber="0" >
            <Parameters>
             <InterpolatingParam id="8045" interp="linr"  time="0/1" value="1" leadInLength="0/1"  name="volume"/>
             <Parameter id="8046"  name="captions"/>
            </Parameters>
            <Attributes>
             <Attribute id="8047" value="" name="ident"/>
             <Attribute id="8048" value="48000" name="sampleRate"/>
             <Attribute id="8049" value="16" name="bitDepth"/>
             <Attribute id="8050" value="1" name="gain"/>
             <Attribute id="8051" value="0" name="mixToMono"/>
            </Attributes>
            <MetaData>
             <entry key="WinSubProjectDisplayName" val=""/>
            </MetaData>
           </AMFile>
           <AMFile id="8052" start="2248" duration="185" scalar="1/1" mediaStart="2856/1" mediaDuration="185/1" trackNumber="0" src="29" channelNumber="0" >
            <Parameters>
             <InterpolatingParam id="8053" interp="linr"  time="0/1" value="1" leadInLength="0/1"  name="volume"/>
             <Parameter id="8054"  name="captions"/>
            </Parameters>
            <Attributes>
             <Attribute id="8055" value="" name="ident"/>
             <Attribute id="8056" value="48000" name="sampleRate"/>
             <Attribute id="8057" value="16" name="bitDepth"/>
             <Attribute id="8058" value="1" name="gain"/>
             <Attribute id="8059" value="0" name="mixToMono"/>
            </Attributes>
            <MetaData>
             <entry key="WinSubProjectDisplayName" val=""/>
            </MetaData>
           </AMFile>
           <AMFile id="8060" start="2433" duration="10592" scalar="1/1" mediaStart="3054/1" mediaDuration="10592/1" trackNumber="0" src="29" channelNumber="0" >
            <Parameters>
             <InterpolatingParam id="8061" interp="linr"  time="0/1" value="1" leadInLength="0/1"  name="volume"/>
             <Parameter id="8062"  name="captions"/>
            </Parameters>
            <Attributes>
             <Attribute id="8063" value="" name="ident"/>
             <Attribute id="8064" value="48000" name="sampleRate"/>
             <Attribute id="8065" value="16" name="bitDepth"/>
             <Attribute id="8066" value="1" name="gain"/>
             <Attribute id="8067" value="0" name="mixToMono"/>
            </Attributes>
            <MetaData>
             <entry key="WinSubProjectDisplayName" val=""/>
            </MetaData>
           </AMFile>
          </Medias>
         </GenericTrack>
        </StitchedMedia>
        <StitchedMedia id="8068" start="2285" duration="21" scalar="1/1" mediaStart="3296/1" mediaDuration="21/1" minMediaStart="0/1" >
         <Transformer>
          <VectorParam id="8069"  name="translation">
           <InterpolatingParam id="8070" interp="linr"  time="0/1" value="0" leadInLength="0/1"  />
           <InterpolatingParam id="8071" interp="linr"  time="0/1" value="0" leadInLength="0/1"  />
           <InterpolatingParam id="8072" interp="linr"  time="0/1" value="0" leadInLength="0/1"  />
          </VectorParam>
          <VectorParam id="8073"  name="rotation">
           <InterpolatingParam id="8074" interp="linr"  time="0/1" value="0" leadInLength="0/1"  />
           <InterpolatingParam id="8075" interp="linr"  time="0/1" value="0" leadInLength="0/1"  />
           <InterpolatingParam id="8076" interp="linr"  time="0/1" value="0" leadInLength="0/1"  />
          </VectorParam>
          <VectorParam id="8077"  name="shear">
           <InterpolatingParam id="8078" interp="linr"  time="0/1" value="0" leadInLength="0/1"  />
           <InterpolatingParam id="8079" interp="linr"  time="0/1" value="0" leadInLength="0/1"  />
           <InterpolatingParam id="8080" interp="linr"  time="0/1" value="0" leadInLength="0/1"  />
          </VectorParam>
          <VectorParam id="8081"  name="scale">
           <InterpolatingParam id="8082" interp="linr"  time="0/1" value="1" leadInLength="0/1"  />
           <InterpolatingParam id="8083" interp="linr"  time="0/1" value="1" leadInLength="0/1"  />
           <InterpolatingParam id="8084" interp="linr"  time="0/1" value="1" leadInLength="0/1"  />
          </VectorParam>
          <VectorParam id="8085"  name="anchor">
           <InterpolatingParam id="8086" interp="linr"  time="0/1" value="0" leadInLength="0/1"  />
           <InterpolatingParam id="8087" interp="linr"  time="0/1" value="0" leadInLength="0/1"  />
           <InterpolatingParam id="8088" interp="linr"  time="0/1" value="0" leadInLength="0/1"  />
          </VectorParam>
         </Transformer>
         <Parameters>
          <InterpolatingParam id="8089" interp="linr"  time="0/1" value="1" leadInLength="0/1"  name="cursorOpacity"/>
          <InterpolatingParam id="8090" interp="linr"  time="0/1" value="1" leadInLength="0/1"  name="cursorScale"/>
          <InterpolatingParam id="8091" interp="linr"  name="volume">
           <Keyframes>
           <Keyframe id="8092"  time="0/1" value="1.5625" leadInLength="0/1"  />
           <Keyframe id="8093"  time="3288/1" value="1.5625" leadInLength="0/1"  />
           </Keyframes>
          </InterpolatingParam>
          <Parameter id="8094"  name="captions"/>
         </Parameters>
         <Effects>
          <GenericEffect id="8095" name = "WinCompression" >
           <Parameters>
           <InterpolatingParam id="8096" interp="linr"  time="0/1" value="0" leadInLength="0/1"   name="attack"/>
           <InterpolatingParam id="8097" interp="linr"  time="0/1" value="9" leadInLength="0/1"   name="gain"/>
           <Parameter id="8098"   name="preset">
            <Keyframes>
            <Keyframe id="8099"  time="0/1" value="1" leadInLength="0/1"  />
            </Keyframes>
           </Parameter>
           <InterpolatingParam id="8100" interp="linr"  time="0/1" value="10" leadInLength="0/1"   name="ratio"/>
           <InterpolatingParam id="8101" interp="linr"  time="0/1" value="3500" leadInLength="0/1"   name="release"/>
           <InterpolatingParam id="8102" interp="linr"  time="0/1" value="-20" leadInLength="0/1"   name="threshold"/>
           </Parameters>
          </GenericEffect>
          <GenericEffect id="8103" name = "NoiseReduction" >
           <Parameters>
           <InterpolatingParam id="8104" interp="linr"  time="0/1" value="20" leadInLength="0/1"   name="denoiserAmount"/>
           <InterpolatingParam id="8105" interp="linr"  time="0/1" value="0" leadInLength="0/1"   name="denoiserThreshold"/>
           <Parameter id="8106"   name="noiseProfile">
            <Keyframes>
            <Keyframe id="8107"  time="0/1" value="FBAAAAIAAABErAAAAQIAAIA/l8JLuYTCrOB9wgsMfMJoG4LCaWeFwkohjMJdoYvCYv6LwlnvjcKf&#xD;&#xa;nYzChXWPwlcejsL6fo/C5OmQwgVTj8IVMI/COiWRwoWFkcJ2tYzC8I6MwuQbjcJvEo/ClwGRwheQ&#xD;&#xa;lsK8+pbCN5qVwlielcJ905rCmu+fwst0ncIC/JvCdIWdws3snsKxC5zCfh2cwniFnMJRypzCtRag&#xD;&#xa;wuoCosJQt6DCzoegwhY9ocIWN6PCsNqkwrSlpMJ6maTCYpCkwmLvo8Li+KPCyEamwnBNqMLMcqrC&#xD;&#xa;v2GswoS+q8Kk86vCVACuwnvUr8JxZa/CqHqswrdXq8LqT6zCZsuswhZxrMLBX67CnmqvwpYyrsKc&#xD;&#xa;pq3CJFGvwghrsMK3y6/CXoCtwmWZr8ICi7DCgRezwogSs8Joq7LCm0Sxwuz/scIfibTCOOK1wlIM&#xD;&#xa;t8K87LfCj3K3wqDYs8KT1bLCVsW0wnZ0tcJGhLXCfPe0ws/ntcLGXrbCzAG1wtXdtcKxxrTC1Ay1&#xD;&#xa;wquGtcLjELbC8Zi2wl7rtsJBYbbCMF+1wrEutMKuibTCSFa1wpvktMIu3rTCtGe4wjaduMIKErfC&#xD;&#xa;SLa1wvS/tsJmZrjCdn63whjft8Ie47rCfdi5wmjpt8KKCLjCXmC5wsOQt8JDGbfCK4m4wmpvuMLL&#xD;&#xa;nLjC80q4wjUVusKunLjC1Be5wg4cuMLxCbjCwfW4wmi7ucIOdbvCbLG6whqdusKYErrCbpC4wmq0&#xD;&#xa;ucIoWrvCaNe6ws4iu8LSc7zCUNa7wuJZvMIwLL3CWe28wps2v8J2l77Cv3W+wvgavsKAwrzCQCy8&#xD;&#xa;wgBRu8Km8brChSa6wuM4u8IaaL3Cf5y9wg4hvMLur7vCIpO9wm0fvcIGNLzC7Le8wvKgvMKQrLzC&#xD;&#xa;p6+9wtYtvsJcxbzCQC29wjDqvcKeNbzCH2W8wpbZvsLCTL7CnjO+wuIsvsJs67vCwLq9wiKhvsLs&#xD;&#xa;o73C5Du9wqqhvcLwKr7C2kq/wqEMv8LVCb7Cpla+wsXpvMIs6bvC/fO8wueCvsIM4b3CxtC+wmTo&#xD;&#xa;vcI+arzCTNe8wiFNv8IvKL/Cpg+/woK1v8L4i7/CNv2+wmsVv8KWj77CVym+wnAlv8Joa8DCFDzA&#xD;&#xa;wiQYwcLSIcHCxILAwuxKvsJYm77CPoHAwiYPwcLuy77CcQa+wrB4vcKwYLzCxKW8worIvcIlzr/C&#xD;&#xa;OMC+wuRDvcJGZ7zCxFi9wuQzvMLPbbvCwIe+wm7bvcLm9L3COH6+wuuJvMK2B73CYb+9wqbxvMK/&#xD;&#xa;mL7CqIe9wvCavMKs7L3Ckau8wkpavMKt9LzCF8S+wmgKvsKCy73ClrG+wmIovcIns73Cmg+/wgw7&#xD;&#xa;wMI607/CpEq/wmwVvcJLsLvCMD68wuxdvcIeI7/C+bS+wpxfvsJyxsDC1tO/wmtrv8LNnb/CQiK+&#xD;&#xa;wlz7vcLa6L/CUMXBwtrQwcIAw8HCNJHBwvphwMKqc7/CSkW/wjkvwMK8ccHCHmDBwlKAwcKu+MDC&#xD;&#xa;zErCwuqgwsLa+MLC753DwmjuxcLEWMfCkePFwo47xsKnX8XC7tTCwuf3wsL+HcLCTcTBwmg6w8Is&#xD;&#xa;RMPC+qjDwiyGxMLi58TCnWvFwpjsxsKzCMbCyCTDwpM2wcJWGMPCvuDFwh42xsIfyMTCeLTFwuH7&#xD;&#xa;xMJctcfCVv3HwpTGx8J8b8jCqhjHwrgkx8LXNsfCZkLGwnxSxcL8csXCbu7FwsaQyMLa68fCo0XH&#xD;&#xa;woruxMJGHsbCORbJwry2yMLIUsfCxlfGwmLoxcLSPMnCYPDJwkw3yMKc7crC8vDLwug2y8Lu28vC&#xD;&#xa;OKvMwvLpysKGj8rCtNXLwrMay8KdGMrCUr3JwgIVy8J64MvCkbTJwjh4x8JGI8bCvBXHwnoPycKN&#xD;&#xa;Ss3CuC/Nwuywy8IkJ8zCx9/KwnB5ycKnk8nCenLJwnN6ycKc+sjCLFzJwuTrzMJkJM/CY5vOwoYO&#xD;&#xa;zsLU987CVKfNwiZZzcJQxNDCICHVwi0d18Kc29jCIF/YwtKo2MKeBNvCwpTawmY/2sJXPdvCZZXY&#xD;&#xa;whB818IQNdjCDF3XwtWC1sIGF9fCfFfXwkBy2MJ6+9nC1hfZwi5k2cJlfNjCnEPYwm/N1cKGOdXC&#xD;&#xa;Yk/XwgXL2MJSytfCgpTWwqTT1sJOGtnCrF/ZwtcT2cK08NjCscHZwpQ72sLJ/NrCy3zYwmCk18LE&#xD;&#xa;O9fC6hbYwtYU2cJN/dnC1EbZwrw/2cIqyNbCDr7Xwvb02cLQ+dnCaJvXwuYO18KSodnC1NnawtJJ&#xD;&#xa;18ISLtjC90nawoel2cIwl9jCi0XZwih328Ks7NjC5KzZwqui2cJw0tjCukLYws+O2MJaqtrCUuXa&#xD;&#xa;wviX2MIKxtfCnqXXwhjI2MJwAtvCIFvcwgCL2cJ0/djCdyXawh9H2cJ+ntfCy4TXwhqF2MJ68NnC&#xD;&#xa;CzvYwljT2cIkP9vCIs/bwjpB2sK2A9rCXt/awjZH2sIfltvCKWPcwjp53MKrGd3CaBPewj/03MJm&#xD;&#xa;U97CphfgwlJp3cKQpt3Crxjewm7d28Kq/9vCNNXcwqY728IUH9vCkirbwgIt28KK19zCjmzdwoBH&#xD;&#xa;3MIAUtvCUq3bwo8f28Ig09jCiyfZwhbx2sLWe9zCvgzbwmwI2sI2nNvC0lvdwg6128I8PNvCLufa&#xD;&#xa;wkyK28KkitzCJIDcwmAO28L0TNrCDHXawjla28IQkdzCoCDcwjRI3MJVUdvCtujZwnCs2sK8Yd3C&#xD;&#xa;iGbbwuSB2cImFNvCCI7rwoA/l8JLuYTCrOB9wgsMfMJoG4LCaWeFwkohjMJdoYvCYv6LwlnvjcKf&#xD;&#xa;nYzChXWPwlcejsL6fo/C5OmQwgVTj8IVMI/COiWRwoWFkcJ2tYzC8I6MwuQbjcJvEo/ClwGRwheQ&#xD;&#xa;lsK8+pbCN5qVwlielcJ905rCmu+fwst0ncIC/JvCdIWdws3snsKxC5zCfh2cwniFnMJRypzCtRag&#xD;&#xa;wuoCosJQt6DCzoegwhY9ocIWN6PCsNqkwrSlpMJ6maTCYpCkwmLvo8Li+KPCyEamwnBNqMLMcqrC&#xD;&#xa;v2GswoS+q8Kk86vCVACuwnvUr8JxZa/CqHqswrdXq8LqT6zCZsuswhZxrMLBX67CnmqvwpYyrsKc&#xD;&#xa;pq3CJFGvwghrsMK3y6/CXoCtwmWZr8ICi7DCgRezwogSs8Joq7LCm0Sxwuz/scIfibTCOOK1wlIM&#xD;&#xa;t8K87LfCj3K3wqDYs8KT1bLCVsW0wnZ0tcJGhLXCfPe0ws/ntcLGXrbCzAG1wtXdtcKxxrTC1Ay1&#xD;&#xa;wquGtcLjELbC8Zi2wl7rtsJBYbbCMF+1wrEutMKuibTCSFa1wpvktMIu3rTCtGe4wjaduMIKErfC&#xD;&#xa;SLa1wvS/tsJmZrjCdn63whjft8Ie47rCfdi5wmjpt8KKCLjCXmC5wsOQt8JDGbfCK4m4wmpvuMLL&#xD;&#xa;nLjC80q4wjUVusKunLjC1Be5wg4cuMLxCbjCwfW4wmi7ucIOdbvCbLG6whqdusKYErrCbpC4wmq0&#xD;&#xa;ucIoWrvCaNe6ws4iu8LSc7zCUNa7wuJZvMIwLL3CWe28wps2v8J2l77Cv3W+wvgavsKAwrzCQCy8&#xD;&#xa;wgBRu8Km8brChSa6wuM4u8IaaL3Cf5y9wg4hvMLur7vCIpO9wm0fvcIGNLzC7Le8wvKgvMKQrLzC&#xD;&#xa;p6+9wtYtvsJcxbzCQC29wjDqvcKeNbzCH2W8wpbZvsLCTL7CnjO+wuIsvsJs67vCwLq9wiKhvsLs&#xD;&#xa;o73C5Du9wqqhvcLwKr7C2kq/wqEMv8LVCb7Cpla+wsXpvMIs6bvC/fO8wueCvsIM4b3CxtC+wmTo&#xD;&#xa;vcI+arzCTNe8wiFNv8IvKL/Cpg+/woK1v8L4i7/CNv2+wmsVv8KWj77CVym+wnAlv8Joa8DCFDzA&#xD;&#xa;wiQYwcLSIcHCxILAwuxKvsJYm77CPoHAwiYPwcLuy77CcQa+wrB4vcKwYLzCxKW8worIvcIlzr/C&#xD;&#xa;OMC+wuRDvcJGZ7zCxFi9wuQzvMLPbbvCwIe+wm7bvcLm9L3COH6+wuuJvMK2B73CYb+9wqbxvMK/&#xD;&#xa;mL7CqIe9wvCavMKs7L3Ckau8wkpavMKt9LzCF8S+wmgKvsKCy73ClrG+wmIovcIns73Cmg+/wgw7&#xD;&#xa;wMI607/CpEq/wmwVvcJLsLvCMD68wuxdvcIeI7/C+bS+wpxfvsJyxsDC1tO/wmtrv8LNnb/CQiK+&#xD;&#xa;wlz7vcLa6L/CUMXBwtrQwcIAw8HCNJHBwvphwMKqc7/CSkW/wjkvwMK8ccHCHmDBwlKAwcKu+MDC&#xD;&#xa;zErCwuqgwsLa+MLC753DwmjuxcLEWMfCkePFwo47xsKnX8XC7tTCwuf3wsL+HcLCTcTBwmg6w8Is&#xD;&#xa;RMPC+qjDwiyGxMLi58TCnWvFwpjsxsKzCMbCyCTDwpM2wcJWGMPCvuDFwh42xsIfyMTCeLTFwuH7&#xD;&#xa;xMJctcfCVv3HwpTGx8J8b8jCqhjHwrgkx8LXNsfCZkLGwnxSxcL8csXCbu7FwsaQyMLa68fCo0XH&#xD;&#xa;woruxMJGHsbCORbJwry2yMLIUsfCxlfGwmLoxcLSPMnCYPDJwkw3yMKc7crC8vDLwug2y8Lu28vC&#xD;&#xa;OKvMwvLpysKGj8rCtNXLwrMay8KdGMrCUr3JwgIVy8J64MvCkbTJwjh4x8JGI8bCvBXHwnoPycKN&#xD;&#xa;Ss3CuC/Nwuywy8IkJ8zCx9/KwnB5ycKnk8nCenLJwnN6ycKc+sjCLFzJwuTrzMJkJM/CY5vOwoYO&#xD;&#xa;zsLU987CVKfNwiZZzcJQxNDCICHVwi0d18Kc29jCIF/YwtKo2MKeBNvCwpTawmY/2sJXPdvCZZXY&#xD;&#xa;whB818IQNdjCDF3XwtWC1sIGF9fCfFfXwkBy2MJ6+9nC1hfZwi5k2cJlfNjCnEPYwm/N1cKGOdXC&#xD;&#xa;Yk/XwgXL2MJSytfCgpTWwqTT1sJOGtnCrF/ZwtcT2cK08NjCscHZwpQ72sLJ/NrCy3zYwmCk18LE&#xD;&#xa;O9fC6hbYwtYU2cJN/dnC1EbZwrw/2cIqyNbCDr7Xwvb02cLQ+dnCaJvXwuYO18KSodnC1NnawtJJ&#xD;&#xa;18ISLtjC90nawoel2cIwl9jCi0XZwih328Ks7NjC5KzZwqui2cJw0tjCukLYws+O2MJaqtrCUuXa&#xD;&#xa;wviX2MIKxtfCnqXXwhjI2MJwAtvCIFvcwgCL2cJ0/djCdyXawh9H2cJ+ntfCy4TXwhqF2MJ68NnC&#xD;&#xa;CzvYwljT2cIkP9vCIs/bwjpB2sK2A9rCXt/awjZH2sIfltvCKWPcwjp53MKrGd3CaBPewj/03MJm&#xD;&#xa;U97CphfgwlJp3cKQpt3Crxjewm7d28Kq/9vCNNXcwqY728IUH9vCkirbwgIt28KK19zCjmzdwoBH&#xD;&#xa;3MIAUtvCUq3bwo8f28Ig09jCiyfZwhbx2sLWe9zCvgzbwmwI2sI2nNvC0lvdwg6128I8PNvCLufa&#xD;&#xa;wkyK28KkitzCJIDcwmAO28L0TNrCDHXawjla28IQkdzCoCDcwjRI3MJVUdvCtujZwnCs2sK8Yd3C&#xD;&#xa;iGbbwuSB2cImFNvCCI7r" leadInLength="0/1"  />
            </Keyframes>
           </Parameter>
           </Parameters>
          </GenericEffect>
          <GenericEffect id="8108" name = "Declipper" >
           <Parameters>
           <InterpolatingParam id="8109" interp="linr"  time="0/1" value="-1" leadInLength="0/1"   name="sensitivity"/>
           </Parameters>
          </GenericEffect>
          <GenericEffect id="8110" name = "Declicker" >
           <Parameters>
           <InterpolatingParam id="8111" interp="linr"  time="0/1" value="3" leadInLength="0/1"   name="sensitivity"/>
           </Parameters>
          </GenericEffect>
         </Effects>
         <Attributes>
          <Attribute id="8112" value="" name="ident"/>
          <Attribute id="8113" value="0" name="mixToMono"/>
         </Attributes>
         <MetaData>
          <entry key="WinSubProjectDisplayName" val=""/>
         </MetaData>
         <ExtraData>
          <Entry key="ZoomPanBin">
           <ZoomPanBin id="8114"  >
            <ZoomPanKeyframes>
            </ZoomPanKeyframes>
           </ZoomPanBin>
          </Entry>
          <Entry key="CursorEffectBin">
           <CursorEffectBin id="8115"  >
            <CursorEffectKeyframes>
            </CursorEffectKeyframes>
           </CursorEffectBin>
          </Entry>
         </ExtraData>
         <GenericTrack id="8116"  >
          <Attributes>
           <Attribute id="8117" value="" name="ident"/>
           <Attribute id="8118" value="0" name="audioMuted"/>
           <Attribute id="8119" value="0" name="videoHidden"/>
          </Attributes>
          <MetaData>
           <entry key="IsLocked" val="False"/>
           <entry key="WinTrackHeight" val="0"/>
          </MetaData>
          <Medias>
           <AMFile id="8120" start="0" duration="3443" scalar="1/1" mediaStart="0/1" mediaDuration="3443/1" trackNumber="0" src="29" channelNumber="0" >
            <Parameters>
             <InterpolatingParam id="8121" interp="linr"  time="0/1" value="1" leadInLength="0/1"  name="volume"/>
             <Parameter id="8122"  name="captions"/>
            </Parameters>
            <Attributes>
             <Attribute id="8123" value="" name="ident"/>
             <Attribute id="8124" value="48000" name="sampleRate"/>
             <Attribute id="8125" value="16" name="bitDepth"/>
             <Attribute id="8126" value="1" name="gain"/>
             <Attribute id="8127" value="0" name="mixToMono"/>
            </Attributes>
            <MetaData>
             <entry key="WinSubProjectDisplayName" val=""/>
            </MetaData>
           </AMFile>
           <AMFile id="8128" start="3443" duration="103" scalar="1/1" mediaStart="3450/1" mediaDuration="103/1" trackNumber="0" src="29" channelNumber="0" >
            <Parameters>
             <InterpolatingParam id="8129" interp="linr"  time="0/1" value="1" leadInLength="0/1"  name="volume"/>
             <Parameter id="8130"  name="captions"/>
            </Parameters>
            <Attributes>
             <Attribute id="8131" value="" name="ident"/>
             <Attribute id="8132" value="48000" name="sampleRate"/>
             <Attribute id="8133" value="16" name="bitDepth"/>
             <Attribute id="8134" value="1" name="gain"/>
             <Attribute id="8135" value="0" name="mixToMono"/>
            </Attributes>
            <MetaData>
             <entry key="WinSubProjectDisplayName" val=""/>
            </MetaData>
           </AMFile>
           <AMFile id="8136" start="3546" duration="10082" scalar="1/1" mediaStart="3564/1" mediaDuration="10082/1" trackNumber="0" src="29" channelNumber="0" >
            <Parameters>
             <InterpolatingParam id="8137" interp="linr"  time="0/1" value="1" leadInLength="0/1"  name="volume"/>
             <Parameter id="8138"  name="captions"/>
            </Parameters>
            <Attributes>
             <Attribute id="8139" value="" name="ident"/>
             <Attribute id="8140" value="48000" name="sampleRate"/>
             <Attribute id="8141" value="16" name="bitDepth"/>
             <Attribute id="8142" value="1" name="gain"/>
             <Attribute id="8143" value="0" name="mixToMono"/>
            </Attributes>
            <MetaData>
             <entry key="WinSubProjectDisplayName" val=""/>
            </MetaData>
           </AMFile>
          </Medias>
         </GenericTrack>
        </StitchedMedia>
        <StitchedMedia id="8144" start="2306" duration="366" scalar="1/1" mediaStart="3329/1" mediaDuration="366/1" minMediaStart="0/1" >
         <Transformer>
          <VectorParam id="8145"  name="translation">
           <InterpolatingParam id="8146" interp="linr"  time="0/1" value="0" leadInLength="0/1"  />
           <InterpolatingParam id="8147" interp="linr"  time="0/1" value="0" leadInLength="0/1"  />
           <InterpolatingParam id="8148" interp="linr"  time="0/1" value="0" leadInLength="0/1"  />
          </VectorParam>
          <VectorParam id="8149"  name="rotation">
           <InterpolatingParam id="8150" interp="linr"  time="0/1" value="0" leadInLength="0/1"  />
           <InterpolatingParam id="8151" interp="linr"  time="0/1" value="0" leadInLength="0/1"  />
           <InterpolatingParam id="8152" interp="linr"  time="0/1" value="0" leadInLength="0/1"  />
          </VectorParam>
          <VectorParam id="8153"  name="shear">
           <InterpolatingParam id="8154" interp="linr"  time="0/1" value="0" leadInLength="0/1"  />
           <InterpolatingParam id="8155" interp="linr"  time="0/1" value="0" leadInLength="0/1"  />
           <InterpolatingParam id="8156" interp="linr"  time="0/1" value="0" leadInLength="0/1"  />
          </VectorParam>
          <VectorParam id="8157"  name="scale">
           <InterpolatingParam id="8158" interp="linr"  time="0/1" value="1" leadInLength="0/1"  />
           <InterpolatingParam id="8159" interp="linr"  time="0/1" value="1" leadInLength="0/1"  />
           <InterpolatingParam id="8160" interp="linr"  time="0/1" value="1" leadInLength="0/1"  />
          </VectorParam>
          <VectorParam id="8161"  name="anchor">
           <InterpolatingParam id="8162" interp="linr"  time="0/1" value="0" leadInLength="0/1"  />
           <InterpolatingParam id="8163" interp="linr"  time="0/1" value="0" leadInLength="0/1"  />
           <InterpolatingParam id="8164" interp="linr"  time="0/1" value="0" leadInLength="0/1"  />
          </VectorParam>
         </Transformer>
         <Parameters>
          <InterpolatingParam id="8165" interp="linr"  time="0/1" value="1" leadInLength="0/1"  name="cursorOpacity"/>
          <InterpolatingParam id="8166" interp="linr"  time="0/1" value="1" leadInLength="0/1"  name="cursorScale"/>
          <InterpolatingParam id="8167" interp="linr"  name="volume">
           <Keyframes>
           <Keyframe id="8168"  time="0/1" value="1.5625" leadInLength="0/1"  />
           <Keyframe id="8169"  time="3288/1" value="1.5625" leadInLength="0/1"  />
           </Keyframes>
          </InterpolatingParam>
          <Parameter id="8170"  name="captions"/>
         </Parameters>
         <Effects>
          <GenericEffect id="8171" name = "WinCompression" >
           <Parameters>
           <InterpolatingParam id="8172" interp="linr"  time="0/1" value="0" leadInLength="0/1"   name="attack"/>
           <InterpolatingParam id="8173" interp="linr"  time="0/1" value="9" leadInLength="0/1"   name="gain"/>
           <Parameter id="8174"   name="preset">
            <Keyframes>
            <Keyframe id="8175"  time="0/1" value="1" leadInLength="0/1"  />
            </Keyframes>
           </Parameter>
           <InterpolatingParam id="8176" interp="linr"  time="0/1" value="10" leadInLength="0/1"   name="ratio"/>
           <InterpolatingParam id="8177" interp="linr"  time="0/1" value="3500" leadInLength="0/1"   name="release"/>
           <InterpolatingParam id="8178" interp="linr"  time="0/1" value="-20" leadInLength="0/1"   name="threshold"/>
           </Parameters>
          </GenericEffect>
          <GenericEffect id="8179" name = "NoiseReduction" >
           <Parameters>
           <InterpolatingParam id="8180" interp="linr"  time="0/1" value="20" leadInLength="0/1"   name="denoiserAmount"/>
           <InterpolatingParam id="8181" interp="linr"  time="0/1" value="0" leadInLength="0/1"   name="denoiserThreshold"/>
           <Parameter id="8182"   name="noiseProfile">
            <Keyframes>
            <Keyframe id="8183"  time="0/1" value="FBAAAAIAAABErAAAAQIAAIA/l8JLuYTCrOB9wgsMfMJoG4LCaWeFwkohjMJdoYvCYv6LwlnvjcKf&#xD;&#xa;nYzChXWPwlcejsL6fo/C5OmQwgVTj8IVMI/COiWRwoWFkcJ2tYzC8I6MwuQbjcJvEo/ClwGRwheQ&#xD;&#xa;lsK8+pbCN5qVwlielcJ905rCmu+fwst0ncIC/JvCdIWdws3snsKxC5zCfh2cwniFnMJRypzCtRag&#xD;&#xa;wuoCosJQt6DCzoegwhY9ocIWN6PCsNqkwrSlpMJ6maTCYpCkwmLvo8Li+KPCyEamwnBNqMLMcqrC&#xD;&#xa;v2GswoS+q8Kk86vCVACuwnvUr8JxZa/CqHqswrdXq8LqT6zCZsuswhZxrMLBX67CnmqvwpYyrsKc&#xD;&#xa;pq3CJFGvwghrsMK3y6/CXoCtwmWZr8ICi7DCgRezwogSs8Joq7LCm0Sxwuz/scIfibTCOOK1wlIM&#xD;&#xa;t8K87LfCj3K3wqDYs8KT1bLCVsW0wnZ0tcJGhLXCfPe0ws/ntcLGXrbCzAG1wtXdtcKxxrTC1Ay1&#xD;&#xa;wquGtcLjELbC8Zi2wl7rtsJBYbbCMF+1wrEutMKuibTCSFa1wpvktMIu3rTCtGe4wjaduMIKErfC&#xD;&#xa;SLa1wvS/tsJmZrjCdn63whjft8Ie47rCfdi5wmjpt8KKCLjCXmC5wsOQt8JDGbfCK4m4wmpvuMLL&#xD;&#xa;nLjC80q4wjUVusKunLjC1Be5wg4cuMLxCbjCwfW4wmi7ucIOdbvCbLG6whqdusKYErrCbpC4wmq0&#xD;&#xa;ucIoWrvCaNe6ws4iu8LSc7zCUNa7wuJZvMIwLL3CWe28wps2v8J2l77Cv3W+wvgavsKAwrzCQCy8&#xD;&#xa;wgBRu8Km8brChSa6wuM4u8IaaL3Cf5y9wg4hvMLur7vCIpO9wm0fvcIGNLzC7Le8wvKgvMKQrLzC&#xD;&#xa;p6+9wtYtvsJcxbzCQC29wjDqvcKeNbzCH2W8wpbZvsLCTL7CnjO+wuIsvsJs67vCwLq9wiKhvsLs&#xD;&#xa;o73C5Du9wqqhvcLwKr7C2kq/wqEMv8LVCb7Cpla+wsXpvMIs6bvC/fO8wueCvsIM4b3CxtC+wmTo&#xD;&#xa;vcI+arzCTNe8wiFNv8IvKL/Cpg+/woK1v8L4i7/CNv2+wmsVv8KWj77CVym+wnAlv8Joa8DCFDzA&#xD;&#xa;wiQYwcLSIcHCxILAwuxKvsJYm77CPoHAwiYPwcLuy77CcQa+wrB4vcKwYLzCxKW8worIvcIlzr/C&#xD;&#xa;OMC+wuRDvcJGZ7zCxFi9wuQzvMLPbbvCwIe+wm7bvcLm9L3COH6+wuuJvMK2B73CYb+9wqbxvMK/&#xD;&#xa;mL7CqIe9wvCavMKs7L3Ckau8wkpavMKt9LzCF8S+wmgKvsKCy73ClrG+wmIovcIns73Cmg+/wgw7&#xD;&#xa;wMI607/CpEq/wmwVvcJLsLvCMD68wuxdvcIeI7/C+bS+wpxfvsJyxsDC1tO/wmtrv8LNnb/CQiK+&#xD;&#xa;wlz7vcLa6L/CUMXBwtrQwcIAw8HCNJHBwvphwMKqc7/CSkW/wjkvwMK8ccHCHmDBwlKAwcKu+MDC&#xD;&#xa;zErCwuqgwsLa+MLC753DwmjuxcLEWMfCkePFwo47xsKnX8XC7tTCwuf3wsL+HcLCTcTBwmg6w8Is&#xD;&#xa;RMPC+qjDwiyGxMLi58TCnWvFwpjsxsKzCMbCyCTDwpM2wcJWGMPCvuDFwh42xsIfyMTCeLTFwuH7&#xD;&#xa;xMJctcfCVv3HwpTGx8J8b8jCqhjHwrgkx8LXNsfCZkLGwnxSxcL8csXCbu7FwsaQyMLa68fCo0XH&#xD;&#xa;woruxMJGHsbCORbJwry2yMLIUsfCxlfGwmLoxcLSPMnCYPDJwkw3yMKc7crC8vDLwug2y8Lu28vC&#xD;&#xa;OKvMwvLpysKGj8rCtNXLwrMay8KdGMrCUr3JwgIVy8J64MvCkbTJwjh4x8JGI8bCvBXHwnoPycKN&#xD;&#xa;Ss3CuC/Nwuywy8IkJ8zCx9/KwnB5ycKnk8nCenLJwnN6ycKc+sjCLFzJwuTrzMJkJM/CY5vOwoYO&#xD;&#xa;zsLU987CVKfNwiZZzcJQxNDCICHVwi0d18Kc29jCIF/YwtKo2MKeBNvCwpTawmY/2sJXPdvCZZXY&#xD;&#xa;whB818IQNdjCDF3XwtWC1sIGF9fCfFfXwkBy2MJ6+9nC1hfZwi5k2cJlfNjCnEPYwm/N1cKGOdXC&#xD;&#xa;Yk/XwgXL2MJSytfCgpTWwqTT1sJOGtnCrF/ZwtcT2cK08NjCscHZwpQ72sLJ/NrCy3zYwmCk18LE&#xD;&#xa;O9fC6hbYwtYU2cJN/dnC1EbZwrw/2cIqyNbCDr7Xwvb02cLQ+dnCaJvXwuYO18KSodnC1NnawtJJ&#xD;&#xa;18ISLtjC90nawoel2cIwl9jCi0XZwih328Ks7NjC5KzZwqui2cJw0tjCukLYws+O2MJaqtrCUuXa&#xD;&#xa;wviX2MIKxtfCnqXXwhjI2MJwAtvCIFvcwgCL2cJ0/djCdyXawh9H2cJ+ntfCy4TXwhqF2MJ68NnC&#xD;&#xa;CzvYwljT2cIkP9vCIs/bwjpB2sK2A9rCXt/awjZH2sIfltvCKWPcwjp53MKrGd3CaBPewj/03MJm&#xD;&#xa;U97CphfgwlJp3cKQpt3Crxjewm7d28Kq/9vCNNXcwqY728IUH9vCkirbwgIt28KK19zCjmzdwoBH&#xD;&#xa;3MIAUtvCUq3bwo8f28Ig09jCiyfZwhbx2sLWe9zCvgzbwmwI2sI2nNvC0lvdwg6128I8PNvCLufa&#xD;&#xa;wkyK28KkitzCJIDcwmAO28L0TNrCDHXawjla28IQkdzCoCDcwjRI3MJVUdvCtujZwnCs2sK8Yd3C&#xD;&#xa;iGbbwuSB2cImFNvCCI7rwoA/l8JLuYTCrOB9wgsMfMJoG4LCaWeFwkohjMJdoYvCYv6LwlnvjcKf&#xD;&#xa;nYzChXWPwlcejsL6fo/C5OmQwgVTj8IVMI/COiWRwoWFkcJ2tYzC8I6MwuQbjcJvEo/ClwGRwheQ&#xD;&#xa;lsK8+pbCN5qVwlielcJ905rCmu+fwst0ncIC/JvCdIWdws3snsKxC5zCfh2cwniFnMJRypzCtRag&#xD;&#xa;wuoCosJQt6DCzoegwhY9ocIWN6PCsNqkwrSlpMJ6maTCYpCkwmLvo8Li+KPCyEamwnBNqMLMcqrC&#xD;&#xa;v2GswoS+q8Kk86vCVACuwnvUr8JxZa/CqHqswrdXq8LqT6zCZsuswhZxrMLBX67CnmqvwpYyrsKc&#xD;&#xa;pq3CJFGvwghrsMK3y6/CXoCtwmWZr8ICi7DCgRezwogSs8Joq7LCm0Sxwuz/scIfibTCOOK1wlIM&#xD;&#xa;t8K87LfCj3K3wqDYs8KT1bLCVsW0wnZ0tcJGhLXCfPe0ws/ntcLGXrbCzAG1wtXdtcKxxrTC1Ay1&#xD;&#xa;wquGtcLjELbC8Zi2wl7rtsJBYbbCMF+1wrEutMKuibTCSFa1wpvktMIu3rTCtGe4wjaduMIKErfC&#xD;&#xa;SLa1wvS/tsJmZrjCdn63whjft8Ie47rCfdi5wmjpt8KKCLjCXmC5wsOQt8JDGbfCK4m4wmpvuMLL&#xD;&#xa;nLjC80q4wjUVusKunLjC1Be5wg4cuMLxCbjCwfW4wmi7ucIOdbvCbLG6whqdusKYErrCbpC4wmq0&#xD;&#xa;ucIoWrvCaNe6ws4iu8LSc7zCUNa7wuJZvMIwLL3CWe28wps2v8J2l77Cv3W+wvgavsKAwrzCQCy8&#xD;&#xa;wgBRu8Km8brChSa6wuM4u8IaaL3Cf5y9wg4hvMLur7vCIpO9wm0fvcIGNLzC7Le8wvKgvMKQrLzC&#xD;&#xa;p6+9wtYtvsJcxbzCQC29wjDqvcKeNbzCH2W8wpbZvsLCTL7CnjO+wuIsvsJs67vCwLq9wiKhvsLs&#xD;&#xa;o73C5Du9wqqhvcLwKr7C2kq/wqEMv8LVCb7Cpla+wsXpvMIs6bvC/fO8wueCvsIM4b3CxtC+wmTo&#xD;&#xa;vcI+arzCTNe8wiFNv8IvKL/Cpg+/woK1v8L4i7/CNv2+wmsVv8KWj77CVym+wnAlv8Joa8DCFDzA&#xD;&#xa;wiQYwcLSIcHCxILAwuxKvsJYm77CPoHAwiYPwcLuy77CcQa+wrB4vcKwYLzCxKW8worIvcIlzr/C&#xD;&#xa;OMC+wuRDvcJGZ7zCxFi9wuQzvMLPbbvCwIe+wm7bvcLm9L3COH6+wuuJvMK2B73CYb+9wqbxvMK/&#xD;&#xa;mL7CqIe9wvCavMKs7L3Ckau8wkpavMKt9LzCF8S+wmgKvsKCy73ClrG+wmIovcIns73Cmg+/wgw7&#xD;&#xa;wMI607/CpEq/wmwVvcJLsLvCMD68wuxdvcIeI7/C+bS+wpxfvsJyxsDC1tO/wmtrv8LNnb/CQiK+&#xD;&#xa;wlz7vcLa6L/CUMXBwtrQwcIAw8HCNJHBwvphwMKqc7/CSkW/wjkvwMK8ccHCHmDBwlKAwcKu+MDC&#xD;&#xa;zErCwuqgwsLa+MLC753DwmjuxcLEWMfCkePFwo47xsKnX8XC7tTCwuf3wsL+HcLCTcTBwmg6w8Is&#xD;&#xa;RMPC+qjDwiyGxMLi58TCnWvFwpjsxsKzCMbCyCTDwpM2wcJWGMPCvuDFwh42xsIfyMTCeLTFwuH7&#xD;&#xa;xMJctcfCVv3HwpTGx8J8b8jCqhjHwrgkx8LXNsfCZkLGwnxSxcL8csXCbu7FwsaQyMLa68fCo0XH&#xD;&#xa;woruxMJGHsbCORbJwry2yMLIUsfCxlfGwmLoxcLSPMnCYPDJwkw3yMKc7crC8vDLwug2y8Lu28vC&#xD;&#xa;OKvMwvLpysKGj8rCtNXLwrMay8KdGMrCUr3JwgIVy8J64MvCkbTJwjh4x8JGI8bCvBXHwnoPycKN&#xD;&#xa;Ss3CuC/Nwuywy8IkJ8zCx9/KwnB5ycKnk8nCenLJwnN6ycKc+sjCLFzJwuTrzMJkJM/CY5vOwoYO&#xD;&#xa;zsLU987CVKfNwiZZzcJQxNDCICHVwi0d18Kc29jCIF/YwtKo2MKeBNvCwpTawmY/2sJXPdvCZZXY&#xD;&#xa;whB818IQNdjCDF3XwtWC1sIGF9fCfFfXwkBy2MJ6+9nC1hfZwi5k2cJlfNjCnEPYwm/N1cKGOdXC&#xD;&#xa;Yk/XwgXL2MJSytfCgpTWwqTT1sJOGtnCrF/ZwtcT2cK08NjCscHZwpQ72sLJ/NrCy3zYwmCk18LE&#xD;&#xa;O9fC6hbYwtYU2cJN/dnC1EbZwrw/2cIqyNbCDr7Xwvb02cLQ+dnCaJvXwuYO18KSodnC1NnawtJJ&#xD;&#xa;18ISLtjC90nawoel2cIwl9jCi0XZwih328Ks7NjC5KzZwqui2cJw0tjCukLYws+O2MJaqtrCUuXa&#xD;&#xa;wviX2MIKxtfCnqXXwhjI2MJwAtvCIFvcwgCL2cJ0/djCdyXawh9H2cJ+ntfCy4TXwhqF2MJ68NnC&#xD;&#xa;CzvYwljT2cIkP9vCIs/bwjpB2sK2A9rCXt/awjZH2sIfltvCKWPcwjp53MKrGd3CaBPewj/03MJm&#xD;&#xa;U97CphfgwlJp3cKQpt3Crxjewm7d28Kq/9vCNNXcwqY728IUH9vCkirbwgIt28KK19zCjmzdwoBH&#xD;&#xa;3MIAUtvCUq3bwo8f28Ig09jCiyfZwhbx2sLWe9zCvgzbwmwI2sI2nNvC0lvdwg6128I8PNvCLufa&#xD;&#xa;wkyK28KkitzCJIDcwmAO28L0TNrCDHXawjla28IQkdzCoCDcwjRI3MJVUdvCtujZwnCs2sK8Yd3C&#xD;&#xa;iGbbwuSB2cImFNvCCI7r" leadInLength="0/1"  />
            </Keyframes>
           </Parameter>
           </Parameters>
          </GenericEffect>
          <GenericEffect id="8184" name = "Declipper" >
           <Parameters>
           <InterpolatingParam id="8185" interp="linr"  time="0/1" value="-1" leadInLength="0/1"   name="sensitivity"/>
           </Parameters>
          </GenericEffect>
          <GenericEffect id="8186" name = "Declicker" >
           <Parameters>
           <InterpolatingParam id="8187" interp="linr"  time="0/1" value="3" leadInLength="0/1"   name="sensitivity"/>
           </Parameters>
          </GenericEffect>
         </Effects>
         <Attributes>
          <Attribute id="8188" value="" name="ident"/>
          <Attribute id="8189" value="0" name="mixToMono"/>
         </Attributes>
         <MetaData>
          <entry key="WinSubProjectDisplayName" val=""/>
         </MetaData>
         <ExtraData>
          <Entry key="ZoomPanBin">
           <ZoomPanBin id="8190"  >
            <ZoomPanKeyframes>
            </ZoomPanKeyframes>
           </ZoomPanBin>
          </Entry>
          <Entry key="CursorEffectBin">
           <CursorEffectBin id="8191"  >
            <CursorEffectKeyframes>
            </CursorEffectKeyframes>
           </CursorEffectBin>
          </Entry>
         </ExtraData>
         <GenericTrack id="8192"  >
          <Attributes>
           <Attribute id="8193" value="" name="ident"/>
           <Attribute id="8194" value="0" name="audioMuted"/>
           <Attribute id="8195" value="0" name="videoHidden"/>
          </Attributes>
          <MetaData>
           <entry key="IsLocked" val="False"/>
           <entry key="WinTrackHeight" val="0"/>
          </MetaData>
          <Medias>
           <AMFile id="8196" start="0" duration="3443" scalar="1/1" mediaStart="0/1" mediaDuration="3443/1" trackNumber="0" src="29" channelNumber="0" >
            <Parameters>
             <InterpolatingParam id="8197" interp="linr"  time="0/1" value="1" leadInLength="0/1"  name="volume"/>
             <Parameter id="8198"  name="captions"/>
            </Parameters>
            <Attributes>
             <Attribute id="8199" value="" name="ident"/>
             <Attribute id="8200" value="48000" name="sampleRate"/>
             <Attribute id="8201" value="16" name="bitDepth"/>
             <Attribute id="8202" value="1" name="gain"/>
             <Attribute id="8203" value="0" name="mixToMono"/>
            </Attributes>
            <MetaData>
             <entry key="WinSubProjectDisplayName" val=""/>
            </MetaData>
           </AMFile>
           <AMFile id="8204" start="3443" duration="103" scalar="1/1" mediaStart="3450/1" mediaDuration="103/1" trackNumber="0" src="29" channelNumber="0" >
            <Parameters>
             <InterpolatingParam id="8205" interp="linr"  time="0/1" value="1" leadInLength="0/1"  name="volume"/>
             <Parameter id="8206"  name="captions"/>
            </Parameters>
            <Attributes>
             <Attribute id="8207" value="" name="ident"/>
             <Attribute id="8208" value="48000" name="sampleRate"/>
             <Attribute id="8209" value="16" name="bitDepth"/>
             <Attribute id="8210" value="1" name="gain"/>
             <Attribute id="8211" value="0" name="mixToMono"/>
            </Attributes>
            <MetaData>
             <entry key="WinSubProjectDisplayName" val=""/>
            </MetaData>
           </AMFile>
           <AMFile id="8212" start="3546" duration="10082" scalar="1/1" mediaStart="3564/1" mediaDuration="10082/1" trackNumber="0" src="29" channelNumber="0" >
            <Parameters>
             <InterpolatingParam id="8213" interp="linr"  time="0/1" value="1" leadInLength="0/1"  name="volume"/>
             <Parameter id="8214"  name="captions"/>
            </Parameters>
            <Attributes>
             <Attribute id="8215" value="" name="ident"/>
             <Attribute id="8216" value="48000" name="sampleRate"/>
             <Attribute id="8217" value="16" name="bitDepth"/>
             <Attribute id="8218" value="1" name="gain"/>
             <Attribute id="8219" value="0" name="mixToMono"/>
            </Attributes>
            <MetaData>
             <entry key="WinSubProjectDisplayName" val=""/>
            </MetaData>
           </AMFile>
          </Medias>
         </GenericTrack>
        </StitchedMedia>
        <StitchedMedia id="8220" start="2672" duration="142" scalar="1/1" mediaStart="3087/1" mediaDuration="142/1" minMediaStart="0/1" >
         <Transformer>
          <VectorParam id="8221"  name="translation">
           <InterpolatingParam id="8222" interp="linr"  time="0/1" value="0" leadInLength="0/1"  />
           <InterpolatingParam id="8223" interp="linr"  time="0/1" value="0" leadInLength="0/1"  />
           <InterpolatingParam id="8224" interp="linr"  time="0/1" value="0" leadInLength="0/1"  />
          </VectorParam>
          <VectorParam id="8225"  name="rotation">
           <InterpolatingParam id="8226" interp="linr"  time="0/1" value="0" leadInLength="0/1"  />
           <InterpolatingParam id="8227" interp="linr"  time="0/1" value="0" leadInLength="0/1"  />
           <InterpolatingParam id="8228" interp="linr"  time="0/1" value="0" leadInLength="0/1"  />
          </VectorParam>
          <VectorParam id="8229"  name="shear">
           <InterpolatingParam id="8230" interp="linr"  time="0/1" value="0" leadInLength="0/1"  />
           <InterpolatingParam id="8231" interp="linr"  time="0/1" value="0" leadInLength="0/1"  />
           <InterpolatingParam id="8232" interp="linr"  time="0/1" value="0" leadInLength="0/1"  />
          </VectorParam>
          <VectorParam id="8233"  name="scale">
           <InterpolatingParam id="8234" interp="linr"  time="0/1" value="1" leadInLength="0/1"  />
           <InterpolatingParam id="8235" interp="linr"  time="0/1" value="1" leadInLength="0/1"  />
           <InterpolatingParam id="8236" interp="linr"  time="0/1" value="1" leadInLength="0/1"  />
          </VectorParam>
          <VectorParam id="8237"  name="anchor">
           <InterpolatingParam id="8238" interp="linr"  time="0/1" value="0" leadInLength="0/1"  />
           <InterpolatingParam id="8239" interp="linr"  time="0/1" value="0" leadInLength="0/1"  />
           <InterpolatingParam id="8240" interp="linr"  time="0/1" value="0" leadInLength="0/1"  />
          </VectorParam>
         </Transformer>
         <Parameters>
          <InterpolatingParam id="8241" interp="linr"  time="0/1" value="1" leadInLength="0/1"  name="cursorOpacity"/>
          <InterpolatingParam id="8242" interp="linr"  time="0/1" value="1" leadInLength="0/1"  name="cursorScale"/>
          <InterpolatingParam id="8243" interp="linr"  time="0/1" value="1.5625" leadInLength="0/1"  name="volume"/>
          <Parameter id="8244"  name="captions"/>
         </Parameters>
         <Effects>
          <GenericEffect id="8245" name = "WinCompression" >
           <Parameters>
           <InterpolatingParam id="8246" interp="linr"  time="0/1" value="0" leadInLength="0/1"   name="attack"/>
           <InterpolatingParam id="8247" interp="linr"  time="0/1" value="9" leadInLength="0/1"   name="gain"/>
           <Parameter id="8248"   name="preset">
            <Keyframes>
            <Keyframe id="8249"  time="0/1" value="1" leadInLength="0/1"  />
            </Keyframes>
           </Parameter>
           <InterpolatingParam id="8250" interp="linr"  time="0/1" value="10" leadInLength="0/1"   name="ratio"/>
           <InterpolatingParam id="8251" interp="linr"  time="0/1" value="3500" leadInLength="0/1"   name="release"/>
           <InterpolatingParam id="8252" interp="linr"  time="0/1" value="-20" leadInLength="0/1"   name="threshold"/>
           </Parameters>
          </GenericEffect>
          <GenericEffect id="8253" name = "NoiseReduction" >
           <Parameters>
           <InterpolatingParam id="8254" interp="linr"  time="0/1" value="20" leadInLength="0/1"   name="denoiserAmount"/>
           <InterpolatingParam id="8255" interp="linr"  time="0/1" value="0" leadInLength="0/1"   name="denoiserThreshold"/>
           <Parameter id="8256"   name="noiseProfile">
            <Keyframes>
            <Keyframe id="8257"  time="0/1" value="FBAAAAIAAABErAAAAQIAAIA/l8JLuYTCrOB9wgsMfMJoG4LCaWeFwkohjMJdoYvCYv6LwlnvjcKf&#xD;&#xa;nYzChXWPwlcejsL6fo/C5OmQwgVTj8IVMI/COiWRwoWFkcJ2tYzC8I6MwuQbjcJvEo/ClwGRwheQ&#xD;&#xa;lsK8+pbCN5qVwlielcJ905rCmu+fwst0ncIC/JvCdIWdws3snsKxC5zCfh2cwniFnMJRypzCtRag&#xD;&#xa;wuoCosJQt6DCzoegwhY9ocIWN6PCsNqkwrSlpMJ6maTCYpCkwmLvo8Li+KPCyEamwnBNqMLMcqrC&#xD;&#xa;v2GswoS+q8Kk86vCVACuwnvUr8JxZa/CqHqswrdXq8LqT6zCZsuswhZxrMLBX67CnmqvwpYyrsKc&#xD;&#xa;pq3CJFGvwghrsMK3y6/CXoCtwmWZr8ICi7DCgRezwogSs8Joq7LCm0Sxwuz/scIfibTCOOK1wlIM&#xD;&#xa;t8K87LfCj3K3wqDYs8KT1bLCVsW0wnZ0tcJGhLXCfPe0ws/ntcLGXrbCzAG1wtXdtcKxxrTC1Ay1&#xD;&#xa;wquGtcLjELbC8Zi2wl7rtsJBYbbCMF+1wrEutMKuibTCSFa1wpvktMIu3rTCtGe4wjaduMIKErfC&#xD;&#xa;SLa1wvS/tsJmZrjCdn63whjft8Ie47rCfdi5wmjpt8KKCLjCXmC5wsOQt8JDGbfCK4m4wmpvuMLL&#xD;&#xa;nLjC80q4wjUVusKunLjC1Be5wg4cuMLxCbjCwfW4wmi7ucIOdbvCbLG6whqdusKYErrCbpC4wmq0&#xD;&#xa;ucIoWrvCaNe6ws4iu8LSc7zCUNa7wuJZvMIwLL3CWe28wps2v8J2l77Cv3W+wvgavsKAwrzCQCy8&#xD;&#xa;wgBRu8Km8brChSa6wuM4u8IaaL3Cf5y9wg4hvMLur7vCIpO9wm0fvcIGNLzC7Le8wvKgvMKQrLzC&#xD;&#xa;p6+9wtYtvsJcxbzCQC29wjDqvcKeNbzCH2W8wpbZvsLCTL7CnjO+wuIsvsJs67vCwLq9wiKhvsLs&#xD;&#xa;o73C5Du9wqqhvcLwKr7C2kq/wqEMv8LVCb7Cpla+wsXpvMIs6bvC/fO8wueCvsIM4b3CxtC+wmTo&#xD;&#xa;vcI+arzCTNe8wiFNv8IvKL/Cpg+/woK1v8L4i7/CNv2+wmsVv8KWj77CVym+wnAlv8Joa8DCFDzA&#xD;&#xa;wiQYwcLSIcHCxILAwuxKvsJYm77CPoHAwiYPwcLuy77CcQa+wrB4vcKwYLzCxKW8worIvcIlzr/C&#xD;&#xa;OMC+wuRDvcJGZ7zCxFi9wuQzvMLPbbvCwIe+wm7bvcLm9L3COH6+wuuJvMK2B73CYb+9wqbxvMK/&#xD;&#xa;mL7CqIe9wvCavMKs7L3Ckau8wkpavMKt9LzCF8S+wmgKvsKCy73ClrG+wmIovcIns73Cmg+/wgw7&#xD;&#xa;wMI607/CpEq/wmwVvcJLsLvCMD68wuxdvcIeI7/C+bS+wpxfvsJyxsDC1tO/wmtrv8LNnb/CQiK+&#xD;&#xa;wlz7vcLa6L/CUMXBwtrQwcIAw8HCNJHBwvphwMKqc7/CSkW/wjkvwMK8ccHCHmDBwlKAwcKu+MDC&#xD;&#xa;zErCwuqgwsLa+MLC753DwmjuxcLEWMfCkePFwo47xsKnX8XC7tTCwuf3wsL+HcLCTcTBwmg6w8Is&#xD;&#xa;RMPC+qjDwiyGxMLi58TCnWvFwpjsxsKzCMbCyCTDwpM2wcJWGMPCvuDFwh42xsIfyMTCeLTFwuH7&#xD;&#xa;xMJctcfCVv3HwpTGx8J8b8jCqhjHwrgkx8LXNsfCZkLGwnxSxcL8csXCbu7FwsaQyMLa68fCo0XH&#xD;&#xa;woruxMJGHsbCORbJwry2yMLIUsfCxlfGwmLoxcLSPMnCYPDJwkw3yMKc7crC8vDLwug2y8Lu28vC&#xD;&#xa;OKvMwvLpysKGj8rCtNXLwrMay8KdGMrCUr3JwgIVy8J64MvCkbTJwjh4x8JGI8bCvBXHwnoPycKN&#xD;&#xa;Ss3CuC/Nwuywy8IkJ8zCx9/KwnB5ycKnk8nCenLJwnN6ycKc+sjCLFzJwuTrzMJkJM/CY5vOwoYO&#xD;&#xa;zsLU987CVKfNwiZZzcJQxNDCICHVwi0d18Kc29jCIF/YwtKo2MKeBNvCwpTawmY/2sJXPdvCZZXY&#xD;&#xa;whB818IQNdjCDF3XwtWC1sIGF9fCfFfXwkBy2MJ6+9nC1hfZwi5k2cJlfNjCnEPYwm/N1cKGOdXC&#xD;&#xa;Yk/XwgXL2MJSytfCgpTWwqTT1sJOGtnCrF/ZwtcT2cK08NjCscHZwpQ72sLJ/NrCy3zYwmCk18LE&#xD;&#xa;O9fC6hbYwtYU2cJN/dnC1EbZwrw/2cIqyNbCDr7Xwvb02cLQ+dnCaJvXwuYO18KSodnC1NnawtJJ&#xD;&#xa;18ISLtjC90nawoel2cIwl9jCi0XZwih328Ks7NjC5KzZwqui2cJw0tjCukLYws+O2MJaqtrCUuXa&#xD;&#xa;wviX2MIKxtfCnqXXwhjI2MJwAtvCIFvcwgCL2cJ0/djCdyXawh9H2cJ+ntfCy4TXwhqF2MJ68NnC&#xD;&#xa;CzvYwljT2cIkP9vCIs/bwjpB2sK2A9rCXt/awjZH2sIfltvCKWPcwjp53MKrGd3CaBPewj/03MJm&#xD;&#xa;U97CphfgwlJp3cKQpt3Crxjewm7d28Kq/9vCNNXcwqY728IUH9vCkirbwgIt28KK19zCjmzdwoBH&#xD;&#xa;3MIAUtvCUq3bwo8f28Ig09jCiyfZwhbx2sLWe9zCvgzbwmwI2sI2nNvC0lvdwg6128I8PNvCLufa&#xD;&#xa;wkyK28KkitzCJIDcwmAO28L0TNrCDHXawjla28IQkdzCoCDcwjRI3MJVUdvCtujZwnCs2sK8Yd3C&#xD;&#xa;iGbbwuSB2cImFNvCCI7rwoA/l8JLuYTCrOB9wgsMfMJoG4LCaWeFwkohjMJdoYvCYv6LwlnvjcKf&#xD;&#xa;nYzChXWPwlcejsL6fo/C5OmQwgVTj8IVMI/COiWRwoWFkcJ2tYzC8I6MwuQbjcJvEo/ClwGRwheQ&#xD;&#xa;lsK8+pbCN5qVwlielcJ905rCmu+fwst0ncIC/JvCdIWdws3snsKxC5zCfh2cwniFnMJRypzCtRag&#xD;&#xa;wuoCosJQt6DCzoegwhY9ocIWN6PCsNqkwrSlpMJ6maTCYpCkwmLvo8Li+KPCyEamwnBNqMLMcqrC&#xD;&#xa;v2GswoS+q8Kk86vCVACuwnvUr8JxZa/CqHqswrdXq8LqT6zCZsuswhZxrMLBX67CnmqvwpYyrsKc&#xD;&#xa;pq3CJFGvwghrsMK3y6/CXoCtwmWZr8ICi7DCgRezwogSs8Joq7LCm0Sxwuz/scIfibTCOOK1wlIM&#xD;&#xa;t8K87LfCj3K3wqDYs8KT1bLCVsW0wnZ0tcJGhLXCfPe0ws/ntcLGXrbCzAG1wtXdtcKxxrTC1Ay1&#xD;&#xa;wquGtcLjELbC8Zi2wl7rtsJBYbbCMF+1wrEutMKuibTCSFa1wpvktMIu3rTCtGe4wjaduMIKErfC&#xD;&#xa;SLa1wvS/tsJmZrjCdn63whjft8Ie47rCfdi5wmjpt8KKCLjCXmC5wsOQt8JDGbfCK4m4wmpvuMLL&#xD;&#xa;nLjC80q4wjUVusKunLjC1Be5wg4cuMLxCbjCwfW4wmi7ucIOdbvCbLG6whqdusKYErrCbpC4wmq0&#xD;&#xa;ucIoWrvCaNe6ws4iu8LSc7zCUNa7wuJZvMIwLL3CWe28wps2v8J2l77Cv3W+wvgavsKAwrzCQCy8&#xD;&#xa;wgBRu8Km8brChSa6wuM4u8IaaL3Cf5y9wg4hvMLur7vCIpO9wm0fvcIGNLzC7Le8wvKgvMKQrLzC&#xD;&#xa;p6+9wtYtvsJcxbzCQC29wjDqvcKeNbzCH2W8wpbZvsLCTL7CnjO+wuIsvsJs67vCwLq9wiKhvsLs&#xD;&#xa;o73C5Du9wqqhvcLwKr7C2kq/wqEMv8LVCb7Cpla+wsXpvMIs6bvC/fO8wueCvsIM4b3CxtC+wmTo&#xD;&#xa;vcI+arzCTNe8wiFNv8IvKL/Cpg+/woK1v8L4i7/CNv2+wmsVv8KWj77CVym+wnAlv8Joa8DCFDzA&#xD;&#xa;wiQYwcLSIcHCxILAwuxKvsJYm77CPoHAwiYPwcLuy77CcQa+wrB4vcKwYLzCxKW8worIvcIlzr/C&#xD;&#xa;OMC+wuRDvcJGZ7zCxFi9wuQzvMLPbbvCwIe+wm7bvcLm9L3COH6+wuuJvMK2B73CYb+9wqbxvMK/&#xD;&#xa;mL7CqIe9wvCavMKs7L3Ckau8wkpavMKt9LzCF8S+wmgKvsKCy73ClrG+wmIovcIns73Cmg+/wgw7&#xD;&#xa;wMI607/CpEq/wmwVvcJLsLvCMD68wuxdvcIeI7/C+bS+wpxfvsJyxsDC1tO/wmtrv8LNnb/CQiK+&#xD;&#xa;wlz7vcLa6L/CUMXBwtrQwcIAw8HCNJHBwvphwMKqc7/CSkW/wjkvwMK8ccHCHmDBwlKAwcKu+MDC&#xD;&#xa;zErCwuqgwsLa+MLC753DwmjuxcLEWMfCkePFwo47xsKnX8XC7tTCwuf3wsL+HcLCTcTBwmg6w8Is&#xD;&#xa;RMPC+qjDwiyGxMLi58TCnWvFwpjsxsKzCMbCyCTDwpM2wcJWGMPCvuDFwh42xsIfyMTCeLTFwuH7&#xD;&#xa;xMJctcfCVv3HwpTGx8J8b8jCqhjHwrgkx8LXNsfCZkLGwnxSxcL8csXCbu7FwsaQyMLa68fCo0XH&#xD;&#xa;woruxMJGHsbCORbJwry2yMLIUsfCxlfGwmLoxcLSPMnCYPDJwkw3yMKc7crC8vDLwug2y8Lu28vC&#xD;&#xa;OKvMwvLpysKGj8rCtNXLwrMay8KdGMrCUr3JwgIVy8J64MvCkbTJwjh4x8JGI8bCvBXHwnoPycKN&#xD;&#xa;Ss3CuC/Nwuywy8IkJ8zCx9/KwnB5ycKnk8nCenLJwnN6ycKc+sjCLFzJwuTrzMJkJM/CY5vOwoYO&#xD;&#xa;zsLU987CVKfNwiZZzcJQxNDCICHVwi0d18Kc29jCIF/YwtKo2MKeBNvCwpTawmY/2sJXPdvCZZXY&#xD;&#xa;whB818IQNdjCDF3XwtWC1sIGF9fCfFfXwkBy2MJ6+9nC1hfZwi5k2cJlfNjCnEPYwm/N1cKGOdXC&#xD;&#xa;Yk/XwgXL2MJSytfCgpTWwqTT1sJOGtnCrF/ZwtcT2cK08NjCscHZwpQ72sLJ/NrCy3zYwmCk18LE&#xD;&#xa;O9fC6hbYwtYU2cJN/dnC1EbZwrw/2cIqyNbCDr7Xwvb02cLQ+dnCaJvXwuYO18KSodnC1NnawtJJ&#xD;&#xa;18ISLtjC90nawoel2cIwl9jCi0XZwih328Ks7NjC5KzZwqui2cJw0tjCukLYws+O2MJaqtrCUuXa&#xD;&#xa;wviX2MIKxtfCnqXXwhjI2MJwAtvCIFvcwgCL2cJ0/djCdyXawh9H2cJ+ntfCy4TXwhqF2MJ68NnC&#xD;&#xa;CzvYwljT2cIkP9vCIs/bwjpB2sK2A9rCXt/awjZH2sIfltvCKWPcwjp53MKrGd3CaBPewj/03MJm&#xD;&#xa;U97CphfgwlJp3cKQpt3Crxjewm7d28Kq/9vCNNXcwqY728IUH9vCkirbwgIt28KK19zCjmzdwoBH&#xD;&#xa;3MIAUtvCUq3bwo8f28Ig09jCiyfZwhbx2sLWe9zCvgzbwmwI2sI2nNvC0lvdwg6128I8PNvCLufa&#xD;&#xa;wkyK28KkitzCJIDcwmAO28L0TNrCDHXawjla28IQkdzCoCDcwjRI3MJVUdvCtujZwnCs2sK8Yd3C&#xD;&#xa;iGbbwuSB2cImFNvCCI7r" leadInLength="0/1"  />
            </Keyframes>
           </Parameter>
           </Parameters>
          </GenericEffect>
          <GenericEffect id="8258" name = "Declipper" >
           <Parameters>
           <InterpolatingParam id="8259" interp="linr"  time="0/1" value="-1" leadInLength="0/1"   name="sensitivity"/>
           </Parameters>
          </GenericEffect>
          <GenericEffect id="8260" name = "Declicker" >
           <Parameters>
           <InterpolatingParam id="8261" interp="linr"  time="0/1" value="3" leadInLength="0/1"   name="sensitivity"/>
           </Parameters>
          </GenericEffect>
         </Effects>
         <Attributes>
          <Attribute id="8262" value="" name="ident"/>
          <Attribute id="8263" value="0" name="mixToMono"/>
         </Attributes>
         <MetaData>
          <entry key="WinSubProjectDisplayName" val=""/>
         </MetaData>
         <ExtraData>
          <Entry key="ZoomPanBin">
           <ZoomPanBin id="8264"  >
            <ZoomPanKeyframes>
            </ZoomPanKeyframes>
           </ZoomPanBin>
          </Entry>
          <Entry key="CursorEffectBin">
           <CursorEffectBin id="8265"  >
            <CursorEffectKeyframes>
            </CursorEffectKeyframes>
           </CursorEffectBin>
          </Entry>
         </ExtraData>
         <GenericTrack id="8266"  >
          <Attributes>
           <Attribute id="8267" value="" name="ident"/>
           <Attribute id="8268" value="0" name="audioMuted"/>
           <Attribute id="8269" value="0" name="videoHidden"/>
          </Attributes>
          <MetaData>
           <entry key="IsLocked" val="False"/>
           <entry key="WinTrackHeight" val="0"/>
          </MetaData>
          <Medias>
           <AMFile id="8270" start="0" duration="117" scalar="1/1" mediaStart="0/1" mediaDuration="117/1" trackNumber="0" src="29" channelNumber="0" >
            <Parameters>
             <InterpolatingParam id="8271" interp="linr"  time="0/1" value="1" leadInLength="0/1"  name="volume"/>
             <Parameter id="8272"  name="captions"/>
            </Parameters>
            <Attributes>
             <Attribute id="8273" value="" name="ident"/>
             <Attribute id="8274" value="48000" name="sampleRate"/>
             <Attribute id="8275" value="16" name="bitDepth"/>
             <Attribute id="8276" value="1" name="gain"/>
             <Attribute id="8277" value="0" name="mixToMono"/>
            </Attributes>
            <MetaData>
             <entry key="WinSubProjectDisplayName" val=""/>
            </MetaData>
           </AMFile>
           <AMFile id="8278" start="117" duration="272" scalar="1/1" mediaStart="131/1" mediaDuration="272/1" trackNumber="0" src="29" channelNumber="0" >
            <Parameters>
             <InterpolatingParam id="8279" interp="linr"  time="0/1" value="1" leadInLength="0/1"  name="volume"/>
             <Parameter id="8280"  name="captions"/>
            </Parameters>
            <Attributes>
             <Attribute id="8281" value="" name="ident"/>
             <Attribute id="8282" value="48000" name="sampleRate"/>
             <Attribute id="8283" value="16" name="bitDepth"/>
             <Attribute id="8284" value="1" name="gain"/>
             <Attribute id="8285" value="0" name="mixToMono"/>
            </Attributes>
            <MetaData>
             <entry key="WinSubProjectDisplayName" val=""/>
            </MetaData>
           </AMFile>
           <AMFile id="8286" start="389" duration="1309" scalar="1/1" mediaStart="415/1" mediaDuration="1309/1" trackNumber="0" src="29" channelNumber="0" >
            <Parameters>
             <InterpolatingParam id="8287" interp="linr"  time="0/1" value="1" leadInLength="0/1"  name="volume"/>
             <Parameter id="8288"  name="captions"/>
            </Parameters>
            <Attributes>
             <Attribute id="8289" value="" name="ident"/>
             <Attribute id="8290" value="48000" name="sampleRate"/>
             <Attribute id="8291" value="16" name="bitDepth"/>
             <Attribute id="8292" value="1" name="gain"/>
             <Attribute id="8293" value="0" name="mixToMono"/>
            </Attributes>
            <MetaData>
             <entry key="WinSubProjectDisplayName" val=""/>
            </MetaData>
           </AMFile>
           <AMFile id="8294" start="1698" duration="103" scalar="1/1" mediaStart="1734/1" mediaDuration="103/1" trackNumber="0" src="29" channelNumber="0" >
            <Parameters>
             <InterpolatingParam id="8295" interp="linr"  time="0/1" value="1" leadInLength="0/1"  name="volume"/>
             <Parameter id="8296"  name="captions"/>
            </Parameters>
            <Attributes>
             <Attribute id="8297" value="" name="ident"/>
             <Attribute id="8298" value="48000" name="sampleRate"/>
             <Attribute id="8299" value="16" name="bitDepth"/>
             <Attribute id="8300" value="1" name="gain"/>
             <Attribute id="8301" value="0" name="mixToMono"/>
            </Attributes>
            <MetaData>
             <entry key="WinSubProjectDisplayName" val=""/>
            </MetaData>
           </AMFile>
           <AMFile id="8302" start="1801" duration="245" scalar="1/1" mediaStart="2164/1" mediaDuration="245/1" trackNumber="0" src="29" channelNumber="0" >
            <Parameters>
             <InterpolatingParam id="8303" interp="linr"  time="0/1" value="1" leadInLength="0/1"  name="volume"/>
             <Parameter id="8304"  name="captions"/>
            </Parameters>
            <Attributes>
             <Attribute id="8305" value="" name="ident"/>
             <Attribute id="8306" value="48000" name="sampleRate"/>
             <Attribute id="8307" value="16" name="bitDepth"/>
             <Attribute id="8308" value="1" name="gain"/>
             <Attribute id="8309" value="0" name="mixToMono"/>
            </Attributes>
            <MetaData>
             <entry key="WinSubProjectDisplayName" val=""/>
            </MetaData>
           </AMFile>
           <AMFile id="8310" start="2046" duration="202" scalar="1/1" mediaStart="2637/1" mediaDuration="202/1" trackNumber="0" src="29" channelNumber="0" >
            <Parameters>
             <InterpolatingParam id="8311" interp="linr"  time="0/1" value="1" leadInLength="0/1"  name="volume"/>
             <Parameter id="8312"  name="captions"/>
            </Parameters>
            <Attributes>
             <Attribute id="8313" value="" name="ident"/>
             <Attribute id="8314" value="48000" name="sampleRate"/>
             <Attribute id="8315" value="16" name="bitDepth"/>
             <Attribute id="8316" value="1" name="gain"/>
             <Attribute id="8317" value="0" name="mixToMono"/>
            </Attributes>
            <MetaData>
             <entry key="WinSubProjectDisplayName" val=""/>
            </MetaData>
           </AMFile>
           <AMFile id="8318" start="2248" duration="185" scalar="1/1" mediaStart="2856/1" mediaDuration="185/1" trackNumber="0" src="29" channelNumber="0" >
            <Parameters>
             <InterpolatingParam id="8319" interp="linr"  time="0/1" value="1" leadInLength="0/1"  name="volume"/>
             <Parameter id="8320"  name="captions"/>
            </Parameters>
            <Attributes>
             <Attribute id="8321" value="" name="ident"/>
             <Attribute id="8322" value="48000" name="sampleRate"/>
             <Attribute id="8323" value="16" name="bitDepth"/>
             <Attribute id="8324" value="1" name="gain"/>
             <Attribute id="8325" value="0" name="mixToMono"/>
            </Attributes>
            <MetaData>
             <entry key="WinSubProjectDisplayName" val=""/>
            </MetaData>
           </AMFile>
           <AMFile id="8326" start="2433" duration="215" scalar="1/1" mediaStart="3054/1" mediaDuration="215/1" trackNumber="0" src="29" channelNumber="0" >
            <Parameters>
             <InterpolatingParam id="8327" interp="linr"  time="0/1" value="1" leadInLength="0/1"  name="volume"/>
             <Parameter id="8328"  name="captions"/>
            </Parameters>
            <Attributes>
             <Attribute id="8329" value="" name="ident"/>
             <Attribute id="8330" value="48000" name="sampleRate"/>
             <Attribute id="8331" value="16" name="bitDepth"/>
             <Attribute id="8332" value="1" name="gain"/>
             <Attribute id="8333" value="0" name="mixToMono"/>
            </Attributes>
            <MetaData>
             <entry key="WinSubProjectDisplayName" val=""/>
            </MetaData>
           </AMFile>
           <AMFile id="8334" start="2648" duration="155" scalar="1/1" mediaStart="3288/1" mediaDuration="155/1" trackNumber="0" src="29" channelNumber="0" >
            <Parameters>
             <InterpolatingParam id="8335" interp="linr"  time="0/1" value="1" leadInLength="0/1"  name="volume"/>
             <Parameter id="8336"  name="captions"/>
            </Parameters>
            <Attributes>
             <Attribute id="8337" value="" name="ident"/>
             <Attribute id="8338" value="48000" name="sampleRate"/>
             <Attribute id="8339" value="16" name="bitDepth"/>
             <Attribute id="8340" value="1" name="gain"/>
             <Attribute id="8341" value="0" name="mixToMono"/>
            </Attributes>
            <MetaData>
             <entry key="WinSubProjectDisplayName" val=""/>
            </MetaData>
           </AMFile>
           <AMFile id="8342" start="2803" duration="103" scalar="1/1" mediaStart="3450/1" mediaDuration="103/1" trackNumber="0" src="29" channelNumber="0" >
            <Parameters>
             <InterpolatingParam id="8343" interp="linr"  time="0/1" value="1" leadInLength="0/1"  name="volume"/>
             <Parameter id="8344"  name="captions"/>
            </Parameters>
            <Attributes>
             <Attribute id="8345" value="" name="ident"/>
             <Attribute id="8346" value="48000" name="sampleRate"/>
             <Attribute id="8347" value="16" name="bitDepth"/>
             <Attribute id="8348" value="1" name="gain"/>
             <Attribute id="8349" value="0" name="mixToMono"/>
            </Attributes>
            <MetaData>
             <entry key="WinSubProjectDisplayName" val=""/>
            </MetaData>
           </AMFile>
           <AMFile id="8350" start="2906" duration="10082" scalar="1/1" mediaStart="3564/1" mediaDuration="10082/1" trackNumber="0" src="29" channelNumber="0" >
            <Parameters>
             <InterpolatingParam id="8351" interp="linr"  time="0/1" value="1" leadInLength="0/1"  name="volume"/>
             <Parameter id="8352"  name="captions"/>
            </Parameters>
            <Attributes>
             <Attribute id="8353" value="" name="ident"/>
             <Attribute id="8354" value="48000" name="sampleRate"/>
             <Attribute id="8355" value="16" name="bitDepth"/>
             <Attribute id="8356" value="1" name="gain"/>
             <Attribute id="8357" value="0" name="mixToMono"/>
            </Attributes>
            <MetaData>
             <entry key="WinSubProjectDisplayName" val=""/>
            </MetaData>
           </AMFile>
          </Medias>
         </GenericTrack>
        </StitchedMedia>
        <StitchedMedia id="8358" start="2814" duration="544" scalar="1/1" mediaStart="3346/1" mediaDuration="544/1" minMediaStart="0/1" >
         <Transformer>
          <VectorParam id="8359"  name="translation">
           <InterpolatingParam id="8360" interp="linr"  time="0/1" value="0" leadInLength="0/1"  />
           <InterpolatingParam id="8361" interp="linr"  time="0/1" value="0" leadInLength="0/1"  />
           <InterpolatingParam id="8362" interp="linr"  time="0/1" value="0" leadInLength="0/1"  />
          </VectorParam>
          <VectorParam id="8363"  name="rotation">
           <InterpolatingParam id="8364" interp="linr"  time="0/1" value="0" leadInLength="0/1"  />
           <InterpolatingParam id="8365" interp="linr"  time="0/1" value="0" leadInLength="0/1"  />
           <InterpolatingParam id="8366" interp="linr"  time="0/1" value="0" leadInLength="0/1"  />
          </VectorParam>
          <VectorParam id="8367"  name="shear">
           <InterpolatingParam id="8368" interp="linr"  time="0/1" value="0" leadInLength="0/1"  />
           <InterpolatingParam id="8369" interp="linr"  time="0/1" value="0" leadInLength="0/1"  />
           <InterpolatingParam id="8370" interp="linr"  time="0/1" value="0" leadInLength="0/1"  />
          </VectorParam>
          <VectorParam id="8371"  name="scale">
           <InterpolatingParam id="8372" interp="linr"  time="0/1" value="1" leadInLength="0/1"  />
           <InterpolatingParam id="8373" interp="linr"  time="0/1" value="1" leadInLength="0/1"  />
           <InterpolatingParam id="8374" interp="linr"  time="0/1" value="1" leadInLength="0/1"  />
          </VectorParam>
          <VectorParam id="8375"  name="anchor">
           <InterpolatingParam id="8376" interp="linr"  time="0/1" value="0" leadInLength="0/1"  />
           <InterpolatingParam id="8377" interp="linr"  time="0/1" value="0" leadInLength="0/1"  />
           <InterpolatingParam id="8378" interp="linr"  time="0/1" value="0" leadInLength="0/1"  />
          </VectorParam>
         </Transformer>
         <Parameters>
          <InterpolatingParam id="8379" interp="linr"  time="0/1" value="1" leadInLength="0/1"  name="cursorOpacity"/>
          <InterpolatingParam id="8380" interp="linr"  time="0/1" value="1" leadInLength="0/1"  name="cursorScale"/>
          <InterpolatingParam id="8381" interp="linr"  time="0/1" value="1.5625" leadInLength="0/1"  name="volume"/>
          <Parameter id="8382"  name="captions"/>
         </Parameters>
         <Effects>
          <GenericEffect id="8383" name = "WinCompression" >
           <Parameters>
           <InterpolatingParam id="8384" interp="linr"  time="0/1" value="0" leadInLength="0/1"   name="attack"/>
           <InterpolatingParam id="8385" interp="linr"  time="0/1" value="9" leadInLength="0/1"   name="gain"/>
           <Parameter id="8386"   name="preset">
            <Keyframes>
            <Keyframe id="8387"  time="0/1" value="1" leadInLength="0/1"  />
            </Keyframes>
           </Parameter>
           <InterpolatingParam id="8388" interp="linr"  time="0/1" value="10" leadInLength="0/1"   name="ratio"/>
           <InterpolatingParam id="8389" interp="linr"  time="0/1" value="3500" leadInLength="0/1"   name="release"/>
           <InterpolatingParam id="8390" interp="linr"  time="0/1" value="-20" leadInLength="0/1"   name="threshold"/>
           </Parameters>
          </GenericEffect>
          <GenericEffect id="8391" name = "NoiseReduction" >
           <Parameters>
           <InterpolatingParam id="8392" interp="linr"  time="0/1" value="20" leadInLength="0/1"   name="denoiserAmount"/>
           <InterpolatingParam id="8393" interp="linr"  time="0/1" value="0" leadInLength="0/1"   name="denoiserThreshold"/>
           <Parameter id="8394"   name="noiseProfile">
            <Keyframes>
            <Keyframe id="8395"  time="0/1" value="FBAAAAIAAABErAAAAQIAAIA/l8JLuYTCrOB9wgsMfMJoG4LCaWeFwkohjMJdoYvCYv6LwlnvjcKf&#xD;&#xa;nYzChXWPwlcejsL6fo/C5OmQwgVTj8IVMI/COiWRwoWFkcJ2tYzC8I6MwuQbjcJvEo/ClwGRwheQ&#xD;&#xa;lsK8+pbCN5qVwlielcJ905rCmu+fwst0ncIC/JvCdIWdws3snsKxC5zCfh2cwniFnMJRypzCtRag&#xD;&#xa;wuoCosJQt6DCzoegwhY9ocIWN6PCsNqkwrSlpMJ6maTCYpCkwmLvo8Li+KPCyEamwnBNqMLMcqrC&#xD;&#xa;v2GswoS+q8Kk86vCVACuwnvUr8JxZa/CqHqswrdXq8LqT6zCZsuswhZxrMLBX67CnmqvwpYyrsKc&#xD;&#xa;pq3CJFGvwghrsMK3y6/CXoCtwmWZr8ICi7DCgRezwogSs8Joq7LCm0Sxwuz/scIfibTCOOK1wlIM&#xD;&#xa;t8K87LfCj3K3wqDYs8KT1bLCVsW0wnZ0tcJGhLXCfPe0ws/ntcLGXrbCzAG1wtXdtcKxxrTC1Ay1&#xD;&#xa;wquGtcLjELbC8Zi2wl7rtsJBYbbCMF+1wrEutMKuibTCSFa1wpvktMIu3rTCtGe4wjaduMIKErfC&#xD;&#xa;SLa1wvS/tsJmZrjCdn63whjft8Ie47rCfdi5wmjpt8KKCLjCXmC5wsOQt8JDGbfCK4m4wmpvuMLL&#xD;&#xa;nLjC80q4wjUVusKunLjC1Be5wg4cuMLxCbjCwfW4wmi7ucIOdbvCbLG6whqdusKYErrCbpC4wmq0&#xD;&#xa;ucIoWrvCaNe6ws4iu8LSc7zCUNa7wuJZvMIwLL3CWe28wps2v8J2l77Cv3W+wvgavsKAwrzCQCy8&#xD;&#xa;wgBRu8Km8brChSa6wuM4u8IaaL3Cf5y9wg4hvMLur7vCIpO9wm0fvcIGNLzC7Le8wvKgvMKQrLzC&#xD;&#xa;p6+9wtYtvsJcxbzCQC29wjDqvcKeNbzCH2W8wpbZvsLCTL7CnjO+wuIsvsJs67vCwLq9wiKhvsLs&#xD;&#xa;o73C5Du9wqqhvcLwKr7C2kq/wqEMv8LVCb7Cpla+wsXpvMIs6bvC/fO8wueCvsIM4b3CxtC+wmTo&#xD;&#xa;vcI+arzCTNe8wiFNv8IvKL/Cpg+/woK1v8L4i7/CNv2+wmsVv8KWj77CVym+wnAlv8Joa8DCFDzA&#xD;&#xa;wiQYwcLSIcHCxILAwuxKvsJYm77CPoHAwiYPwcLuy77CcQa+wrB4vcKwYLzCxKW8worIvcIlzr/C&#xD;&#xa;OMC+wuRDvcJGZ7zCxFi9wuQzvMLPbbvCwIe+wm7bvcLm9L3COH6+wuuJvMK2B73CYb+9wqbxvMK/&#xD;&#xa;mL7CqIe9wvCavMKs7L3Ckau8wkpavMKt9LzCF8S+wmgKvsKCy73ClrG+wmIovcIns73Cmg+/wgw7&#xD;&#xa;wMI607/CpEq/wmwVvcJLsLvCMD68wuxdvcIeI7/C+bS+wpxfvsJyxsDC1tO/wmtrv8LNnb/CQiK+&#xD;&#xa;wlz7vcLa6L/CUMXBwtrQwcIAw8HCNJHBwvphwMKqc7/CSkW/wjkvwMK8ccHCHmDBwlKAwcKu+MDC&#xD;&#xa;zErCwuqgwsLa+MLC753DwmjuxcLEWMfCkePFwo47xsKnX8XC7tTCwuf3wsL+HcLCTcTBwmg6w8Is&#xD;&#xa;RMPC+qjDwiyGxMLi58TCnWvFwpjsxsKzCMbCyCTDwpM2wcJWGMPCvuDFwh42xsIfyMTCeLTFwuH7&#xD;&#xa;xMJctcfCVv3HwpTGx8J8b8jCqhjHwrgkx8LXNsfCZkLGwnxSxcL8csXCbu7FwsaQyMLa68fCo0XH&#xD;&#xa;woruxMJGHsbCORbJwry2yMLIUsfCxlfGwmLoxcLSPMnCYPDJwkw3yMKc7crC8vDLwug2y8Lu28vC&#xD;&#xa;OKvMwvLpysKGj8rCtNXLwrMay8KdGMrCUr3JwgIVy8J64MvCkbTJwjh4x8JGI8bCvBXHwnoPycKN&#xD;&#xa;Ss3CuC/Nwuywy8IkJ8zCx9/KwnB5ycKnk8nCenLJwnN6ycKc+sjCLFzJwuTrzMJkJM/CY5vOwoYO&#xD;&#xa;zsLU987CVKfNwiZZzcJQxNDCICHVwi0d18Kc29jCIF/YwtKo2MKeBNvCwpTawmY/2sJXPdvCZZXY&#xD;&#xa;whB818IQNdjCDF3XwtWC1sIGF9fCfFfXwkBy2MJ6+9nC1hfZwi5k2cJlfNjCnEPYwm/N1cKGOdXC&#xD;&#xa;Yk/XwgXL2MJSytfCgpTWwqTT1sJOGtnCrF/ZwtcT2cK08NjCscHZwpQ72sLJ/NrCy3zYwmCk18LE&#xD;&#xa;O9fC6hbYwtYU2cJN/dnC1EbZwrw/2cIqyNbCDr7Xwvb02cLQ+dnCaJvXwuYO18KSodnC1NnawtJJ&#xD;&#xa;18ISLtjC90nawoel2cIwl9jCi0XZwih328Ks7NjC5KzZwqui2cJw0tjCukLYws+O2MJaqtrCUuXa&#xD;&#xa;wviX2MIKxtfCnqXXwhjI2MJwAtvCIFvcwgCL2cJ0/djCdyXawh9H2cJ+ntfCy4TXwhqF2MJ68NnC&#xD;&#xa;CzvYwljT2cIkP9vCIs/bwjpB2sK2A9rCXt/awjZH2sIfltvCKWPcwjp53MKrGd3CaBPewj/03MJm&#xD;&#xa;U97CphfgwlJp3cKQpt3Crxjewm7d28Kq/9vCNNXcwqY728IUH9vCkirbwgIt28KK19zCjmzdwoBH&#xD;&#xa;3MIAUtvCUq3bwo8f28Ig09jCiyfZwhbx2sLWe9zCvgzbwmwI2sI2nNvC0lvdwg6128I8PNvCLufa&#xD;&#xa;wkyK28KkitzCJIDcwmAO28L0TNrCDHXawjla28IQkdzCoCDcwjRI3MJVUdvCtujZwnCs2sK8Yd3C&#xD;&#xa;iGbbwuSB2cImFNvCCI7rwoA/l8JLuYTCrOB9wgsMfMJoG4LCaWeFwkohjMJdoYvCYv6LwlnvjcKf&#xD;&#xa;nYzChXWPwlcejsL6fo/C5OmQwgVTj8IVMI/COiWRwoWFkcJ2tYzC8I6MwuQbjcJvEo/ClwGRwheQ&#xD;&#xa;lsK8+pbCN5qVwlielcJ905rCmu+fwst0ncIC/JvCdIWdws3snsKxC5zCfh2cwniFnMJRypzCtRag&#xD;&#xa;wuoCosJQt6DCzoegwhY9ocIWN6PCsNqkwrSlpMJ6maTCYpCkwmLvo8Li+KPCyEamwnBNqMLMcqrC&#xD;&#xa;v2GswoS+q8Kk86vCVACuwnvUr8JxZa/CqHqswrdXq8LqT6zCZsuswhZxrMLBX67CnmqvwpYyrsKc&#xD;&#xa;pq3CJFGvwghrsMK3y6/CXoCtwmWZr8ICi7DCgRezwogSs8Joq7LCm0Sxwuz/scIfibTCOOK1wlIM&#xD;&#xa;t8K87LfCj3K3wqDYs8KT1bLCVsW0wnZ0tcJGhLXCfPe0ws/ntcLGXrbCzAG1wtXdtcKxxrTC1Ay1&#xD;&#xa;wquGtcLjELbC8Zi2wl7rtsJBYbbCMF+1wrEutMKuibTCSFa1wpvktMIu3rTCtGe4wjaduMIKErfC&#xD;&#xa;SLa1wvS/tsJmZrjCdn63whjft8Ie47rCfdi5wmjpt8KKCLjCXmC5wsOQt8JDGbfCK4m4wmpvuMLL&#xD;&#xa;nLjC80q4wjUVusKunLjC1Be5wg4cuMLxCbjCwfW4wmi7ucIOdbvCbLG6whqdusKYErrCbpC4wmq0&#xD;&#xa;ucIoWrvCaNe6ws4iu8LSc7zCUNa7wuJZvMIwLL3CWe28wps2v8J2l77Cv3W+wvgavsKAwrzCQCy8&#xD;&#xa;wgBRu8Km8brChSa6wuM4u8IaaL3Cf5y9wg4hvMLur7vCIpO9wm0fvcIGNLzC7Le8wvKgvMKQrLzC&#xD;&#xa;p6+9wtYtvsJcxbzCQC29wjDqvcKeNbzCH2W8wpbZvsLCTL7CnjO+wuIsvsJs67vCwLq9wiKhvsLs&#xD;&#xa;o73C5Du9wqqhvcLwKr7C2kq/wqEMv8LVCb7Cpla+wsXpvMIs6bvC/fO8wueCvsIM4b3CxtC+wmTo&#xD;&#xa;vcI+arzCTNe8wiFNv8IvKL/Cpg+/woK1v8L4i7/CNv2+wmsVv8KWj77CVym+wnAlv8Joa8DCFDzA&#xD;&#xa;wiQYwcLSIcHCxILAwuxKvsJYm77CPoHAwiYPwcLuy77CcQa+wrB4vcKwYLzCxKW8worIvcIlzr/C&#xD;&#xa;OMC+wuRDvcJGZ7zCxFi9wuQzvMLPbbvCwIe+wm7bvcLm9L3COH6+wuuJvMK2B73CYb+9wqbxvMK/&#xD;&#xa;mL7CqIe9wvCavMKs7L3Ckau8wkpavMKt9LzCF8S+wmgKvsKCy73ClrG+wmIovcIns73Cmg+/wgw7&#xD;&#xa;wMI607/CpEq/wmwVvcJLsLvCMD68wuxdvcIeI7/C+bS+wpxfvsJyxsDC1tO/wmtrv8LNnb/CQiK+&#xD;&#xa;wlz7vcLa6L/CUMXBwtrQwcIAw8HCNJHBwvphwMKqc7/CSkW/wjkvwMK8ccHCHmDBwlKAwcKu+MDC&#xD;&#xa;zErCwuqgwsLa+MLC753DwmjuxcLEWMfCkePFwo47xsKnX8XC7tTCwuf3wsL+HcLCTcTBwmg6w8Is&#xD;&#xa;RMPC+qjDwiyGxMLi58TCnWvFwpjsxsKzCMbCyCTDwpM2wcJWGMPCvuDFwh42xsIfyMTCeLTFwuH7&#xD;&#xa;xMJctcfCVv3HwpTGx8J8b8jCqhjHwrgkx8LXNsfCZkLGwnxSxcL8csXCbu7FwsaQyMLa68fCo0XH&#xD;&#xa;woruxMJGHsbCORbJwry2yMLIUsfCxlfGwmLoxcLSPMnCYPDJwkw3yMKc7crC8vDLwug2y8Lu28vC&#xD;&#xa;OKvMwvLpysKGj8rCtNXLwrMay8KdGMrCUr3JwgIVy8J64MvCkbTJwjh4x8JGI8bCvBXHwnoPycKN&#xD;&#xa;Ss3CuC/Nwuywy8IkJ8zCx9/KwnB5ycKnk8nCenLJwnN6ycKc+sjCLFzJwuTrzMJkJM/CY5vOwoYO&#xD;&#xa;zsLU987CVKfNwiZZzcJQxNDCICHVwi0d18Kc29jCIF/YwtKo2MKeBNvCwpTawmY/2sJXPdvCZZXY&#xD;&#xa;whB818IQNdjCDF3XwtWC1sIGF9fCfFfXwkBy2MJ6+9nC1hfZwi5k2cJlfNjCnEPYwm/N1cKGOdXC&#xD;&#xa;Yk/XwgXL2MJSytfCgpTWwqTT1sJOGtnCrF/ZwtcT2cK08NjCscHZwpQ72sLJ/NrCy3zYwmCk18LE&#xD;&#xa;O9fC6hbYwtYU2cJN/dnC1EbZwrw/2cIqyNbCDr7Xwvb02cLQ+dnCaJvXwuYO18KSodnC1NnawtJJ&#xD;&#xa;18ISLtjC90nawoel2cIwl9jCi0XZwih328Ks7NjC5KzZwqui2cJw0tjCukLYws+O2MJaqtrCUuXa&#xD;&#xa;wviX2MIKxtfCnqXXwhjI2MJwAtvCIFvcwgCL2cJ0/djCdyXawh9H2cJ+ntfCy4TXwhqF2MJ68NnC&#xD;&#xa;CzvYwljT2cIkP9vCIs/bwjpB2sK2A9rCXt/awjZH2sIfltvCKWPcwjp53MKrGd3CaBPewj/03MJm&#xD;&#xa;U97CphfgwlJp3cKQpt3Crxjewm7d28Kq/9vCNNXcwqY728IUH9vCkirbwgIt28KK19zCjmzdwoBH&#xD;&#xa;3MIAUtvCUq3bwo8f28Ig09jCiyfZwhbx2sLWe9zCvgzbwmwI2sI2nNvC0lvdwg6128I8PNvCLufa&#xD;&#xa;wkyK28KkitzCJIDcwmAO28L0TNrCDHXawjla28IQkdzCoCDcwjRI3MJVUdvCtujZwnCs2sK8Yd3C&#xD;&#xa;iGbbwuSB2cImFNvCCI7r" leadInLength="0/1"  />
            </Keyframes>
           </Parameter>
           </Parameters>
          </GenericEffect>
          <GenericEffect id="8396" name = "Declipper" >
           <Parameters>
           <InterpolatingParam id="8397" interp="linr"  time="0/1" value="-1" leadInLength="0/1"   name="sensitivity"/>
           </Parameters>
          </GenericEffect>
          <GenericEffect id="8398" name = "Declicker" >
           <Parameters>
           <InterpolatingParam id="8399" interp="linr"  time="0/1" value="3" leadInLength="0/1"   name="sensitivity"/>
           </Parameters>
          </GenericEffect>
         </Effects>
         <Attributes>
          <Attribute id="8400" value="" name="ident"/>
          <Attribute id="8401" value="0" name="mixToMono"/>
         </Attributes>
         <MetaData>
          <entry key="WinSubProjectDisplayName" val=""/>
         </MetaData>
         <ExtraData>
          <Entry key="ZoomPanBin">
           <ZoomPanBin id="8402"  >
            <ZoomPanKeyframes>
            </ZoomPanKeyframes>
           </ZoomPanBin>
          </Entry>
          <Entry key="CursorEffectBin">
           <CursorEffectBin id="8403"  >
            <CursorEffectKeyframes>
            </CursorEffectKeyframes>
           </CursorEffectBin>
          </Entry>
         </ExtraData>
         <GenericTrack id="8404"  >
          <Attributes>
           <Attribute id="8405" value="" name="ident"/>
           <Attribute id="8406" value="0" name="audioMuted"/>
           <Attribute id="8407" value="0" name="videoHidden"/>
          </Attributes>
          <MetaData>
           <entry key="IsLocked" val="False"/>
           <entry key="WinTrackHeight" val="0"/>
          </MetaData>
          <Medias>
           <AMFile id="8408" start="0" duration="117" scalar="1/1" mediaStart="0/1" mediaDuration="117/1" trackNumber="0" src="29" channelNumber="0" >
            <Parameters>
             <InterpolatingParam id="8409" interp="linr"  time="0/1" value="1" leadInLength="0/1"  name="volume"/>
             <Parameter id="8410"  name="captions"/>
            </Parameters>
            <Attributes>
             <Attribute id="8411" value="" name="ident"/>
             <Attribute id="8412" value="48000" name="sampleRate"/>
             <Attribute id="8413" value="16" name="bitDepth"/>
             <Attribute id="8414" value="1" name="gain"/>
             <Attribute id="8415" value="0" name="mixToMono"/>
            </Attributes>
            <MetaData>
             <entry key="WinSubProjectDisplayName" val=""/>
            </MetaData>
           </AMFile>
           <AMFile id="8416" start="117" duration="272" scalar="1/1" mediaStart="131/1" mediaDuration="272/1" trackNumber="0" src="29" channelNumber="0" >
            <Parameters>
             <InterpolatingParam id="8417" interp="linr"  time="0/1" value="1" leadInLength="0/1"  name="volume"/>
             <Parameter id="8418"  name="captions"/>
            </Parameters>
            <Attributes>
             <Attribute id="8419" value="" name="ident"/>
             <Attribute id="8420" value="48000" name="sampleRate"/>
             <Attribute id="8421" value="16" name="bitDepth"/>
             <Attribute id="8422" value="1" name="gain"/>
             <Attribute id="8423" value="0" name="mixToMono"/>
            </Attributes>
            <MetaData>
             <entry key="WinSubProjectDisplayName" val=""/>
            </MetaData>
           </AMFile>
           <AMFile id="8424" start="389" duration="1309" scalar="1/1" mediaStart="415/1" mediaDuration="1309/1" trackNumber="0" src="29" channelNumber="0" >
            <Parameters>
             <InterpolatingParam id="8425" interp="linr"  time="0/1" value="1" leadInLength="0/1"  name="volume"/>
             <Parameter id="8426"  name="captions"/>
            </Parameters>
            <Attributes>
             <Attribute id="8427" value="" name="ident"/>
             <Attribute id="8428" value="48000" name="sampleRate"/>
             <Attribute id="8429" value="16" name="bitDepth"/>
             <Attribute id="8430" value="1" name="gain"/>
             <Attribute id="8431" value="0" name="mixToMono"/>
            </Attributes>
            <MetaData>
             <entry key="WinSubProjectDisplayName" val=""/>
            </MetaData>
           </AMFile>
           <AMFile id="8432" start="1698" duration="103" scalar="1/1" mediaStart="1734/1" mediaDuration="103/1" trackNumber="0" src="29" channelNumber="0" >
            <Parameters>
             <InterpolatingParam id="8433" interp="linr"  time="0/1" value="1" leadInLength="0/1"  name="volume"/>
             <Parameter id="8434"  name="captions"/>
            </Parameters>
            <Attributes>
             <Attribute id="8435" value="" name="ident"/>
             <Attribute id="8436" value="48000" name="sampleRate"/>
             <Attribute id="8437" value="16" name="bitDepth"/>
             <Attribute id="8438" value="1" name="gain"/>
             <Attribute id="8439" value="0" name="mixToMono"/>
            </Attributes>
            <MetaData>
             <entry key="WinSubProjectDisplayName" val=""/>
            </MetaData>
           </AMFile>
           <AMFile id="8440" start="1801" duration="245" scalar="1/1" mediaStart="2164/1" mediaDuration="245/1" trackNumber="0" src="29" channelNumber="0" >
            <Parameters>
             <InterpolatingParam id="8441" interp="linr"  time="0/1" value="1" leadInLength="0/1"  name="volume"/>
             <Parameter id="8442"  name="captions"/>
            </Parameters>
            <Attributes>
             <Attribute id="8443" value="" name="ident"/>
             <Attribute id="8444" value="48000" name="sampleRate"/>
             <Attribute id="8445" value="16" name="bitDepth"/>
             <Attribute id="8446" value="1" name="gain"/>
             <Attribute id="8447" value="0" name="mixToMono"/>
            </Attributes>
            <MetaData>
             <entry key="WinSubProjectDisplayName" val=""/>
            </MetaData>
           </AMFile>
           <AMFile id="8448" start="2046" duration="202" scalar="1/1" mediaStart="2637/1" mediaDuration="202/1" trackNumber="0" src="29" channelNumber="0" >
            <Parameters>
             <InterpolatingParam id="8449" interp="linr"  time="0/1" value="1" leadInLength="0/1"  name="volume"/>
             <Parameter id="8450"  name="captions"/>
            </Parameters>
            <Attributes>
             <Attribute id="8451" value="" name="ident"/>
             <Attribute id="8452" value="48000" name="sampleRate"/>
             <Attribute id="8453" value="16" name="bitDepth"/>
             <Attribute id="8454" value="1" name="gain"/>
             <Attribute id="8455" value="0" name="mixToMono"/>
            </Attributes>
            <MetaData>
             <entry key="WinSubProjectDisplayName" val=""/>
            </MetaData>
           </AMFile>
           <AMFile id="8456" start="2248" duration="185" scalar="1/1" mediaStart="2856/1" mediaDuration="185/1" trackNumber="0" src="29" channelNumber="0" >
            <Parameters>
             <InterpolatingParam id="8457" interp="linr"  time="0/1" value="1" leadInLength="0/1"  name="volume"/>
             <Parameter id="8458"  name="captions"/>
            </Parameters>
            <Attributes>
             <Attribute id="8459" value="" name="ident"/>
             <Attribute id="8460" value="48000" name="sampleRate"/>
             <Attribute id="8461" value="16" name="bitDepth"/>
             <Attribute id="8462" value="1" name="gain"/>
             <Attribute id="8463" value="0" name="mixToMono"/>
            </Attributes>
            <MetaData>
             <entry key="WinSubProjectDisplayName" val=""/>
            </MetaData>
           </AMFile>
           <AMFile id="8464" start="2433" duration="215" scalar="1/1" mediaStart="3054/1" mediaDuration="215/1" trackNumber="0" src="29" channelNumber="0" >
            <Parameters>
             <InterpolatingParam id="8465" interp="linr"  time="0/1" value="1" leadInLength="0/1"  name="volume"/>
             <Parameter id="8466"  name="captions"/>
            </Parameters>
            <Attributes>
             <Attribute id="8467" value="" name="ident"/>
             <Attribute id="8468" value="48000" name="sampleRate"/>
             <Attribute id="8469" value="16" name="bitDepth"/>
             <Attribute id="8470" value="1" name="gain"/>
             <Attribute id="8471" value="0" name="mixToMono"/>
            </Attributes>
            <MetaData>
             <entry key="WinSubProjectDisplayName" val=""/>
            </MetaData>
           </AMFile>
           <AMFile id="8472" start="2648" duration="155" scalar="1/1" mediaStart="3288/1" mediaDuration="155/1" trackNumber="0" src="29" channelNumber="0" >
            <Parameters>
             <InterpolatingParam id="8473" interp="linr"  time="0/1" value="1" leadInLength="0/1"  name="volume"/>
             <Parameter id="8474"  name="captions"/>
            </Parameters>
            <Attributes>
             <Attribute id="8475" value="" name="ident"/>
             <Attribute id="8476" value="48000" name="sampleRate"/>
             <Attribute id="8477" value="16" name="bitDepth"/>
             <Attribute id="8478" value="1" name="gain"/>
             <Attribute id="8479" value="0" name="mixToMono"/>
            </Attributes>
            <MetaData>
             <entry key="WinSubProjectDisplayName" val=""/>
            </MetaData>
           </AMFile>
           <AMFile id="8480" start="2803" duration="103" scalar="1/1" mediaStart="3450/1" mediaDuration="103/1" trackNumber="0" src="29" channelNumber="0" >
            <Parameters>
             <InterpolatingParam id="8481" interp="linr"  time="0/1" value="1" leadInLength="0/1"  name="volume"/>
             <Parameter id="8482"  name="captions"/>
            </Parameters>
            <Attributes>
             <Attribute id="8483" value="" name="ident"/>
             <Attribute id="8484" value="48000" name="sampleRate"/>
             <Attribute id="8485" value="16" name="bitDepth"/>
             <Attribute id="8486" value="1" name="gain"/>
             <Attribute id="8487" value="0" name="mixToMono"/>
            </Attributes>
            <MetaData>
             <entry key="WinSubProjectDisplayName" val=""/>
            </MetaData>
           </AMFile>
           <AMFile id="8488" start="2906" duration="10082" scalar="1/1" mediaStart="3564/1" mediaDuration="10082/1" trackNumber="0" src="29" channelNumber="0" >
            <Parameters>
             <InterpolatingParam id="8489" interp="linr"  time="0/1" value="1" leadInLength="0/1"  name="volume"/>
             <Parameter id="8490"  name="captions"/>
            </Parameters>
            <Attributes>
             <Attribute id="8491" value="" name="ident"/>
             <Attribute id="8492" value="48000" name="sampleRate"/>
             <Attribute id="8493" value="16" name="bitDepth"/>
             <Attribute id="8494" value="1" name="gain"/>
             <Attribute id="8495" value="0" name="mixToMono"/>
            </Attributes>
            <MetaData>
             <entry key="WinSubProjectDisplayName" val=""/>
            </MetaData>
           </AMFile>
          </Medias>
         </GenericTrack>
        </StitchedMedia>
        <StitchedMedia id="8496" start="3358" duration="343" scalar="1/1" mediaStart="4135/1" mediaDuration="343/1" minMediaStart="0/1" >
         <Transformer>
          <VectorParam id="8497"  name="translation">
           <InterpolatingParam id="8498" interp="linr"  time="0/1" value="0" leadInLength="0/1"  />
           <InterpolatingParam id="8499" interp="linr"  time="0/1" value="0" leadInLength="0/1"  />
           <InterpolatingParam id="8500" interp="linr"  time="0/1" value="0" leadInLength="0/1"  />
          </VectorParam>
          <VectorParam id="8501"  name="rotation">
           <InterpolatingParam id="8502" interp="linr"  time="0/1" value="0" leadInLength="0/1"  />
           <InterpolatingParam id="8503" interp="linr"  time="0/1" value="0" leadInLength="0/1"  />
           <InterpolatingParam id="8504" interp="linr"  time="0/1" value="0" leadInLength="0/1"  />
          </VectorParam>
          <VectorParam id="8505"  name="shear">
           <InterpolatingParam id="8506" interp="linr"  time="0/1" value="0" leadInLength="0/1"  />
           <InterpolatingParam id="8507" interp="linr"  time="0/1" value="0" leadInLength="0/1"  />
           <InterpolatingParam id="8508" interp="linr"  time="0/1" value="0" leadInLength="0/1"  />
          </VectorParam>
          <VectorParam id="8509"  name="scale">
           <InterpolatingParam id="8510" interp="linr"  time="0/1" value="1" leadInLength="0/1"  />
           <InterpolatingParam id="8511" interp="linr"  time="0/1" value="1" leadInLength="0/1"  />
           <InterpolatingParam id="8512" interp="linr"  time="0/1" value="1" leadInLength="0/1"  />
          </VectorParam>
          <VectorParam id="8513"  name="anchor">
           <InterpolatingParam id="8514" interp="linr"  time="0/1" value="0" leadInLength="0/1"  />
           <InterpolatingParam id="8515" interp="linr"  time="0/1" value="0" leadInLength="0/1"  />
           <InterpolatingParam id="8516" interp="linr"  time="0/1" value="0" leadInLength="0/1"  />
          </VectorParam>
         </Transformer>
         <Parameters>
          <InterpolatingParam id="8517" interp="linr"  time="0/1" value="1" leadInLength="0/1"  name="cursorOpacity"/>
          <InterpolatingParam id="8518" interp="linr"  time="0/1" value="1" leadInLength="0/1"  name="cursorScale"/>
          <InterpolatingParam id="8519" interp="linr"  time="0/1" value="1.5625" leadInLength="0/1"  name="volume"/>
          <Parameter id="8520"  name="captions"/>
         </Parameters>
         <Effects>
          <GenericEffect id="8521" name = "WinCompression" >
           <Parameters>
           <InterpolatingParam id="8522" interp="linr"  time="0/1" value="0" leadInLength="0/1"   name="attack"/>
           <InterpolatingParam id="8523" interp="linr"  time="0/1" value="9" leadInLength="0/1"   name="gain"/>
           <Parameter id="8524"   name="preset">
            <Keyframes>
            <Keyframe id="8525"  time="0/1" value="1" leadInLength="0/1"  />
            </Keyframes>
           </Parameter>
           <InterpolatingParam id="8526" interp="linr"  time="0/1" value="10" leadInLength="0/1"   name="ratio"/>
           <InterpolatingParam id="8527" interp="linr"  time="0/1" value="3500" leadInLength="0/1"   name="release"/>
           <InterpolatingParam id="8528" interp="linr"  time="0/1" value="-20" leadInLength="0/1"   name="threshold"/>
           </Parameters>
          </GenericEffect>
          <GenericEffect id="8529" name = "NoiseReduction" >
           <Parameters>
           <InterpolatingParam id="8530" interp="linr"  time="0/1" value="20" leadInLength="0/1"   name="denoiserAmount"/>
           <InterpolatingParam id="8531" interp="linr"  time="0/1" value="0" leadInLength="0/1"   name="denoiserThreshold"/>
           <Parameter id="8532"   name="noiseProfile">
            <Keyframes>
            <Keyframe id="8533"  time="0/1" value="FBAAAAIAAABErAAAAQIAAIA/l8JLuYTCrOB9wgsMfMJoG4LCaWeFwkohjMJdoYvCYv6LwlnvjcKf&#xD;&#xa;nYzChXWPwlcejsL6fo/C5OmQwgVTj8IVMI/COiWRwoWFkcJ2tYzC8I6MwuQbjcJvEo/ClwGRwheQ&#xD;&#xa;lsK8+pbCN5qVwlielcJ905rCmu+fwst0ncIC/JvCdIWdws3snsKxC5zCfh2cwniFnMJRypzCtRag&#xD;&#xa;wuoCosJQt6DCzoegwhY9ocIWN6PCsNqkwrSlpMJ6maTCYpCkwmLvo8Li+KPCyEamwnBNqMLMcqrC&#xD;&#xa;v2GswoS+q8Kk86vCVACuwnvUr8JxZa/CqHqswrdXq8LqT6zCZsuswhZxrMLBX67CnmqvwpYyrsKc&#xD;&#xa;pq3CJFGvwghrsMK3y6/CXoCtwmWZr8ICi7DCgRezwogSs8Joq7LCm0Sxwuz/scIfibTCOOK1wlIM&#xD;&#xa;t8K87LfCj3K3wqDYs8KT1bLCVsW0wnZ0tcJGhLXCfPe0ws/ntcLGXrbCzAG1wtXdtcKxxrTC1Ay1&#xD;&#xa;wquGtcLjELbC8Zi2wl7rtsJBYbbCMF+1wrEutMKuibTCSFa1wpvktMIu3rTCtGe4wjaduMIKErfC&#xD;&#xa;SLa1wvS/tsJmZrjCdn63whjft8Ie47rCfdi5wmjpt8KKCLjCXmC5wsOQt8JDGbfCK4m4wmpvuMLL&#xD;&#xa;nLjC80q4wjUVusKunLjC1Be5wg4cuMLxCbjCwfW4wmi7ucIOdbvCbLG6whqdusKYErrCbpC4wmq0&#xD;&#xa;ucIoWrvCaNe6ws4iu8LSc7zCUNa7wuJZvMIwLL3CWe28wps2v8J2l77Cv3W+wvgavsKAwrzCQCy8&#xD;&#xa;wgBRu8Km8brChSa6wuM4u8IaaL3Cf5y9wg4hvMLur7vCIpO9wm0fvcIGNLzC7Le8wvKgvMKQrLzC&#xD;&#xa;p6+9wtYtvsJcxbzCQC29wjDqvcKeNbzCH2W8wpbZvsLCTL7CnjO+wuIsvsJs67vCwLq9wiKhvsLs&#xD;&#xa;o73C5Du9wqqhvcLwKr7C2kq/wqEMv8LVCb7Cpla+wsXpvMIs6bvC/fO8wueCvsIM4b3CxtC+wmTo&#xD;&#xa;vcI+arzCTNe8wiFNv8IvKL/Cpg+/woK1v8L4i7/CNv2+wmsVv8KWj77CVym+wnAlv8Joa8DCFDzA&#xD;&#xa;wiQYwcLSIcHCxILAwuxKvsJYm77CPoHAwiYPwcLuy77CcQa+wrB4vcKwYLzCxKW8worIvcIlzr/C&#xD;&#xa;OMC+wuRDvcJGZ7zCxFi9wuQzvMLPbbvCwIe+wm7bvcLm9L3COH6+wuuJvMK2B73CYb+9wqbxvMK/&#xD;&#xa;mL7CqIe9wvCavMKs7L3Ckau8wkpavMKt9LzCF8S+wmgKvsKCy73ClrG+wmIovcIns73Cmg+/wgw7&#xD;&#xa;wMI607/CpEq/wmwVvcJLsLvCMD68wuxdvcIeI7/C+bS+wpxfvsJyxsDC1tO/wmtrv8LNnb/CQiK+&#xD;&#xa;wlz7vcLa6L/CUMXBwtrQwcIAw8HCNJHBwvphwMKqc7/CSkW/wjkvwMK8ccHCHmDBwlKAwcKu+MDC&#xD;&#xa;zErCwuqgwsLa+MLC753DwmjuxcLEWMfCkePFwo47xsKnX8XC7tTCwuf3wsL+HcLCTcTBwmg6w8Is&#xD;&#xa;RMPC+qjDwiyGxMLi58TCnWvFwpjsxsKzCMbCyCTDwpM2wcJWGMPCvuDFwh42xsIfyMTCeLTFwuH7&#xD;&#xa;xMJctcfCVv3HwpTGx8J8b8jCqhjHwrgkx8LXNsfCZkLGwnxSxcL8csXCbu7FwsaQyMLa68fCo0XH&#xD;&#xa;woruxMJGHsbCORbJwry2yMLIUsfCxlfGwmLoxcLSPMnCYPDJwkw3yMKc7crC8vDLwug2y8Lu28vC&#xD;&#xa;OKvMwvLpysKGj8rCtNXLwrMay8KdGMrCUr3JwgIVy8J64MvCkbTJwjh4x8JGI8bCvBXHwnoPycKN&#xD;&#xa;Ss3CuC/Nwuywy8IkJ8zCx9/KwnB5ycKnk8nCenLJwnN6ycKc+sjCLFzJwuTrzMJkJM/CY5vOwoYO&#xD;&#xa;zsLU987CVKfNwiZZzcJQxNDCICHVwi0d18Kc29jCIF/YwtKo2MKeBNvCwpTawmY/2sJXPdvCZZXY&#xD;&#xa;whB818IQNdjCDF3XwtWC1sIGF9fCfFfXwkBy2MJ6+9nC1hfZwi5k2cJlfNjCnEPYwm/N1cKGOdXC&#xD;&#xa;Yk/XwgXL2MJSytfCgpTWwqTT1sJOGtnCrF/ZwtcT2cK08NjCscHZwpQ72sLJ/NrCy3zYwmCk18LE&#xD;&#xa;O9fC6hbYwtYU2cJN/dnC1EbZwrw/2cIqyNbCDr7Xwvb02cLQ+dnCaJvXwuYO18KSodnC1NnawtJJ&#xD;&#xa;18ISLtjC90nawoel2cIwl9jCi0XZwih328Ks7NjC5KzZwqui2cJw0tjCukLYws+O2MJaqtrCUuXa&#xD;&#xa;wviX2MIKxtfCnqXXwhjI2MJwAtvCIFvcwgCL2cJ0/djCdyXawh9H2cJ+ntfCy4TXwhqF2MJ68NnC&#xD;&#xa;CzvYwljT2cIkP9vCIs/bwjpB2sK2A9rCXt/awjZH2sIfltvCKWPcwjp53MKrGd3CaBPewj/03MJm&#xD;&#xa;U97CphfgwlJp3cKQpt3Crxjewm7d28Kq/9vCNNXcwqY728IUH9vCkirbwgIt28KK19zCjmzdwoBH&#xD;&#xa;3MIAUtvCUq3bwo8f28Ig09jCiyfZwhbx2sLWe9zCvgzbwmwI2sI2nNvC0lvdwg6128I8PNvCLufa&#xD;&#xa;wkyK28KkitzCJIDcwmAO28L0TNrCDHXawjla28IQkdzCoCDcwjRI3MJVUdvCtujZwnCs2sK8Yd3C&#xD;&#xa;iGbbwuSB2cImFNvCCI7rwoA/l8JLuYTCrOB9wgsMfMJoG4LCaWeFwkohjMJdoYvCYv6LwlnvjcKf&#xD;&#xa;nYzChXWPwlcejsL6fo/C5OmQwgVTj8IVMI/COiWRwoWFkcJ2tYzC8I6MwuQbjcJvEo/ClwGRwheQ&#xD;&#xa;lsK8+pbCN5qVwlielcJ905rCmu+fwst0ncIC/JvCdIWdws3snsKxC5zCfh2cwniFnMJRypzCtRag&#xD;&#xa;wuoCosJQt6DCzoegwhY9ocIWN6PCsNqkwrSlpMJ6maTCYpCkwmLvo8Li+KPCyEamwnBNqMLMcqrC&#xD;&#xa;v2GswoS+q8Kk86vCVACuwnvUr8JxZa/CqHqswrdXq8LqT6zCZsuswhZxrMLBX67CnmqvwpYyrsKc&#xD;&#xa;pq3CJFGvwghrsMK3y6/CXoCtwmWZr8ICi7DCgRezwogSs8Joq7LCm0Sxwuz/scIfibTCOOK1wlIM&#xD;&#xa;t8K87LfCj3K3wqDYs8KT1bLCVsW0wnZ0tcJGhLXCfPe0ws/ntcLGXrbCzAG1wtXdtcKxxrTC1Ay1&#xD;&#xa;wquGtcLjELbC8Zi2wl7rtsJBYbbCMF+1wrEutMKuibTCSFa1wpvktMIu3rTCtGe4wjaduMIKErfC&#xD;&#xa;SLa1wvS/tsJmZrjCdn63whjft8Ie47rCfdi5wmjpt8KKCLjCXmC5wsOQt8JDGbfCK4m4wmpvuMLL&#xD;&#xa;nLjC80q4wjUVusKunLjC1Be5wg4cuMLxCbjCwfW4wmi7ucIOdbvCbLG6whqdusKYErrCbpC4wmq0&#xD;&#xa;ucIoWrvCaNe6ws4iu8LSc7zCUNa7wuJZvMIwLL3CWe28wps2v8J2l77Cv3W+wvgavsKAwrzCQCy8&#xD;&#xa;wgBRu8Km8brChSa6wuM4u8IaaL3Cf5y9wg4hvMLur7vCIpO9wm0fvcIGNLzC7Le8wvKgvMKQrLzC&#xD;&#xa;p6+9wtYtvsJcxbzCQC29wjDqvcKeNbzCH2W8wpbZvsLCTL7CnjO+wuIsvsJs67vCwLq9wiKhvsLs&#xD;&#xa;o73C5Du9wqqhvcLwKr7C2kq/wqEMv8LVCb7Cpla+wsXpvMIs6bvC/fO8wueCvsIM4b3CxtC+wmTo&#xD;&#xa;vcI+arzCTNe8wiFNv8IvKL/Cpg+/woK1v8L4i7/CNv2+wmsVv8KWj77CVym+wnAlv8Joa8DCFDzA&#xD;&#xa;wiQYwcLSIcHCxILAwuxKvsJYm77CPoHAwiYPwcLuy77CcQa+wrB4vcKwYLzCxKW8worIvcIlzr/C&#xD;&#xa;OMC+wuRDvcJGZ7zCxFi9wuQzvMLPbbvCwIe+wm7bvcLm9L3COH6+wuuJvMK2B73CYb+9wqbxvMK/&#xD;&#xa;mL7CqIe9wvCavMKs7L3Ckau8wkpavMKt9LzCF8S+wmgKvsKCy73ClrG+wmIovcIns73Cmg+/wgw7&#xD;&#xa;wMI607/CpEq/wmwVvcJLsLvCMD68wuxdvcIeI7/C+bS+wpxfvsJyxsDC1tO/wmtrv8LNnb/CQiK+&#xD;&#xa;wlz7vcLa6L/CUMXBwtrQwcIAw8HCNJHBwvphwMKqc7/CSkW/wjkvwMK8ccHCHmDBwlKAwcKu+MDC&#xD;&#xa;zErCwuqgwsLa+MLC753DwmjuxcLEWMfCkePFwo47xsKnX8XC7tTCwuf3wsL+HcLCTcTBwmg6w8Is&#xD;&#xa;RMPC+qjDwiyGxMLi58TCnWvFwpjsxsKzCMbCyCTDwpM2wcJWGMPCvuDFwh42xsIfyMTCeLTFwuH7&#xD;&#xa;xMJctcfCVv3HwpTGx8J8b8jCqhjHwrgkx8LXNsfCZkLGwnxSxcL8csXCbu7FwsaQyMLa68fCo0XH&#xD;&#xa;woruxMJGHsbCORbJwry2yMLIUsfCxlfGwmLoxcLSPMnCYPDJwkw3yMKc7crC8vDLwug2y8Lu28vC&#xD;&#xa;OKvMwvLpysKGj8rCtNXLwrMay8KdGMrCUr3JwgIVy8J64MvCkbTJwjh4x8JGI8bCvBXHwnoPycKN&#xD;&#xa;Ss3CuC/Nwuywy8IkJ8zCx9/KwnB5ycKnk8nCenLJwnN6ycKc+sjCLFzJwuTrzMJkJM/CY5vOwoYO&#xD;&#xa;zsLU987CVKfNwiZZzcJQxNDCICHVwi0d18Kc29jCIF/YwtKo2MKeBNvCwpTawmY/2sJXPdvCZZXY&#xD;&#xa;whB818IQNdjCDF3XwtWC1sIGF9fCfFfXwkBy2MJ6+9nC1hfZwi5k2cJlfNjCnEPYwm/N1cKGOdXC&#xD;&#xa;Yk/XwgXL2MJSytfCgpTWwqTT1sJOGtnCrF/ZwtcT2cK08NjCscHZwpQ72sLJ/NrCy3zYwmCk18LE&#xD;&#xa;O9fC6hbYwtYU2cJN/dnC1EbZwrw/2cIqyNbCDr7Xwvb02cLQ+dnCaJvXwuYO18KSodnC1NnawtJJ&#xD;&#xa;18ISLtjC90nawoel2cIwl9jCi0XZwih328Ks7NjC5KzZwqui2cJw0tjCukLYws+O2MJaqtrCUuXa&#xD;&#xa;wviX2MIKxtfCnqXXwhjI2MJwAtvCIFvcwgCL2cJ0/djCdyXawh9H2cJ+ntfCy4TXwhqF2MJ68NnC&#xD;&#xa;CzvYwljT2cIkP9vCIs/bwjpB2sK2A9rCXt/awjZH2sIfltvCKWPcwjp53MKrGd3CaBPewj/03MJm&#xD;&#xa;U97CphfgwlJp3cKQpt3Crxjewm7d28Kq/9vCNNXcwqY728IUH9vCkirbwgIt28KK19zCjmzdwoBH&#xD;&#xa;3MIAUtvCUq3bwo8f28Ig09jCiyfZwhbx2sLWe9zCvgzbwmwI2sI2nNvC0lvdwg6128I8PNvCLufa&#xD;&#xa;wkyK28KkitzCJIDcwmAO28L0TNrCDHXawjla28IQkdzCoCDcwjRI3MJVUdvCtujZwnCs2sK8Yd3C&#xD;&#xa;iGbbwuSB2cImFNvCCI7r" leadInLength="0/1"  />
            </Keyframes>
           </Parameter>
           </Parameters>
          </GenericEffect>
          <GenericEffect id="8534" name = "Declipper" >
           <Parameters>
           <InterpolatingParam id="8535" interp="linr"  time="0/1" value="-1" leadInLength="0/1"   name="sensitivity"/>
           </Parameters>
          </GenericEffect>
          <GenericEffect id="8536" name = "Declicker" >
           <Parameters>
           <InterpolatingParam id="8537" interp="linr"  time="0/1" value="3" leadInLength="0/1"   name="sensitivity"/>
           </Parameters>
          </GenericEffect>
         </Effects>
         <Attributes>
          <Attribute id="8538" value="" name="ident"/>
          <Attribute id="8539" value="0" name="mixToMono"/>
         </Attributes>
         <MetaData>
          <entry key="WinSubProjectDisplayName" val=""/>
         </MetaData>
         <ExtraData>
          <Entry key="ZoomPanBin">
           <ZoomPanBin id="8540"  >
            <ZoomPanKeyframes>
            </ZoomPanKeyframes>
           </ZoomPanBin>
          </Entry>
          <Entry key="CursorEffectBin">
           <CursorEffectBin id="8541"  >
            <CursorEffectKeyframes>
            </CursorEffectKeyframes>
           </CursorEffectBin>
          </Entry>
         </ExtraData>
         <GenericTrack id="8542"  >
          <Attributes>
           <Attribute id="8543" value="" name="ident"/>
           <Attribute id="8544" value="0" name="audioMuted"/>
           <Attribute id="8545" value="0" name="videoHidden"/>
          </Attributes>
          <MetaData>
           <entry key="IsLocked" val="False"/>
           <entry key="WinTrackHeight" val="0"/>
          </MetaData>
          <Medias>
           <AMFile id="8546" start="0" duration="117" scalar="1/1" mediaStart="0/1" mediaDuration="117/1" trackNumber="0" src="29" channelNumber="0" >
            <Parameters>
             <InterpolatingParam id="8547" interp="linr"  time="0/1" value="1" leadInLength="0/1"  name="volume"/>
             <Parameter id="8548"  name="captions"/>
            </Parameters>
            <Attributes>
             <Attribute id="8549" value="" name="ident"/>
             <Attribute id="8550" value="48000" name="sampleRate"/>
             <Attribute id="8551" value="16" name="bitDepth"/>
             <Attribute id="8552" value="1" name="gain"/>
             <Attribute id="8553" value="0" name="mixToMono"/>
            </Attributes>
            <MetaData>
             <entry key="WinSubProjectDisplayName" val=""/>
            </MetaData>
           </AMFile>
           <AMFile id="8554" start="117" duration="272" scalar="1/1" mediaStart="131/1" mediaDuration="272/1" trackNumber="0" src="29" channelNumber="0" >
            <Parameters>
             <InterpolatingParam id="8555" interp="linr"  time="0/1" value="1" leadInLength="0/1"  name="volume"/>
             <Parameter id="8556"  name="captions"/>
            </Parameters>
            <Attributes>
             <Attribute id="8557" value="" name="ident"/>
             <Attribute id="8558" value="48000" name="sampleRate"/>
             <Attribute id="8559" value="16" name="bitDepth"/>
             <Attribute id="8560" value="1" name="gain"/>
             <Attribute id="8561" value="0" name="mixToMono"/>
            </Attributes>
            <MetaData>
             <entry key="WinSubProjectDisplayName" val=""/>
            </MetaData>
           </AMFile>
           <AMFile id="8562" start="389" duration="1309" scalar="1/1" mediaStart="415/1" mediaDuration="1309/1" trackNumber="0" src="29" channelNumber="0" >
            <Parameters>
             <InterpolatingParam id="8563" interp="linr"  time="0/1" value="1" leadInLength="0/1"  name="volume"/>
             <Parameter id="8564"  name="captions"/>
            </Parameters>
            <Attributes>
             <Attribute id="8565" value="" name="ident"/>
             <Attribute id="8566" value="48000" name="sampleRate"/>
             <Attribute id="8567" value="16" name="bitDepth"/>
             <Attribute id="8568" value="1" name="gain"/>
             <Attribute id="8569" value="0" name="mixToMono"/>
            </Attributes>
            <MetaData>
             <entry key="WinSubProjectDisplayName" val=""/>
            </MetaData>
           </AMFile>
           <AMFile id="8570" start="1698" duration="103" scalar="1/1" mediaStart="1734/1" mediaDuration="103/1" trackNumber="0" src="29" channelNumber="0" >
            <Parameters>
             <InterpolatingParam id="8571" interp="linr"  time="0/1" value="1" leadInLength="0/1"  name="volume"/>
             <Parameter id="8572"  name="captions"/>
            </Parameters>
            <Attributes>
             <Attribute id="8573" value="" name="ident"/>
             <Attribute id="8574" value="48000" name="sampleRate"/>
             <Attribute id="8575" value="16" name="bitDepth"/>
             <Attribute id="8576" value="1" name="gain"/>
             <Attribute id="8577" value="0" name="mixToMono"/>
            </Attributes>
            <MetaData>
             <entry key="WinSubProjectDisplayName" val=""/>
            </MetaData>
           </AMFile>
           <AMFile id="8578" start="1801" duration="245" scalar="1/1" mediaStart="2164/1" mediaDuration="245/1" trackNumber="0" src="29" channelNumber="0" >
            <Parameters>
             <InterpolatingParam id="8579" interp="linr"  time="0/1" value="1" leadInLength="0/1"  name="volume"/>
             <Parameter id="8580"  name="captions"/>
            </Parameters>
            <Attributes>
             <Attribute id="8581" value="" name="ident"/>
             <Attribute id="8582" value="48000" name="sampleRate"/>
             <Attribute id="8583" value="16" name="bitDepth"/>
             <Attribute id="8584" value="1" name="gain"/>
             <Attribute id="8585" value="0" name="mixToMono"/>
            </Attributes>
            <MetaData>
             <entry key="WinSubProjectDisplayName" val=""/>
            </MetaData>
           </AMFile>
           <AMFile id="8586" start="2046" duration="202" scalar="1/1" mediaStart="2637/1" mediaDuration="202/1" trackNumber="0" src="29" channelNumber="0" >
            <Parameters>
             <InterpolatingParam id="8587" interp="linr"  time="0/1" value="1" leadInLength="0/1"  name="volume"/>
             <Parameter id="8588"  name="captions"/>
            </Parameters>
            <Attributes>
             <Attribute id="8589" value="" name="ident"/>
             <Attribute id="8590" value="48000" name="sampleRate"/>
             <Attribute id="8591" value="16" name="bitDepth"/>
             <Attribute id="8592" value="1" name="gain"/>
             <Attribute id="8593" value="0" name="mixToMono"/>
            </Attributes>
            <MetaData>
             <entry key="WinSubProjectDisplayName" val=""/>
            </MetaData>
           </AMFile>
           <AMFile id="8594" start="2248" duration="185" scalar="1/1" mediaStart="2856/1" mediaDuration="185/1" trackNumber="0" src="29" channelNumber="0" >
            <Parameters>
             <InterpolatingParam id="8595" interp="linr"  time="0/1" value="1" leadInLength="0/1"  name="volume"/>
             <Parameter id="8596"  name="captions"/>
            </Parameters>
            <Attributes>
             <Attribute id="8597" value="" name="ident"/>
             <Attribute id="8598" value="48000" name="sampleRate"/>
             <Attribute id="8599" value="16" name="bitDepth"/>
             <Attribute id="8600" value="1" name="gain"/>
             <Attribute id="8601" value="0" name="mixToMono"/>
            </Attributes>
            <MetaData>
             <entry key="WinSubProjectDisplayName" val=""/>
            </MetaData>
           </AMFile>
           <AMFile id="8602" start="2433" duration="215" scalar="1/1" mediaStart="3054/1" mediaDuration="215/1" trackNumber="0" src="29" channelNumber="0" >
            <Parameters>
             <InterpolatingParam id="8603" interp="linr"  time="0/1" value="1" leadInLength="0/1"  name="volume"/>
             <Parameter id="8604"  name="captions"/>
            </Parameters>
            <Attributes>
             <Attribute id="8605" value="" name="ident"/>
             <Attribute id="8606" value="48000" name="sampleRate"/>
             <Attribute id="8607" value="16" name="bitDepth"/>
             <Attribute id="8608" value="1" name="gain"/>
             <Attribute id="8609" value="0" name="mixToMono"/>
            </Attributes>
            <MetaData>
             <entry key="WinSubProjectDisplayName" val=""/>
            </MetaData>
           </AMFile>
           <AMFile id="8610" start="2648" duration="155" scalar="1/1" mediaStart="3288/1" mediaDuration="155/1" trackNumber="0" src="29" channelNumber="0" >
            <Parameters>
             <InterpolatingParam id="8611" interp="linr"  time="0/1" value="1" leadInLength="0/1"  name="volume"/>
             <Parameter id="8612"  name="captions"/>
            </Parameters>
            <Attributes>
             <Attribute id="8613" value="" name="ident"/>
             <Attribute id="8614" value="48000" name="sampleRate"/>
             <Attribute id="8615" value="16" name="bitDepth"/>
             <Attribute id="8616" value="1" name="gain"/>
             <Attribute id="8617" value="0" name="mixToMono"/>
            </Attributes>
            <MetaData>
             <entry key="WinSubProjectDisplayName" val=""/>
            </MetaData>
           </AMFile>
           <AMFile id="8618" start="2803" duration="103" scalar="1/1" mediaStart="3450/1" mediaDuration="103/1" trackNumber="0" src="29" channelNumber="0" >
            <Parameters>
             <InterpolatingParam id="8619" interp="linr"  time="0/1" value="1" leadInLength="0/1"  name="volume"/>
             <Parameter id="8620"  name="captions"/>
            </Parameters>
            <Attributes>
             <Attribute id="8621" value="" name="ident"/>
             <Attribute id="8622" value="48000" name="sampleRate"/>
             <Attribute id="8623" value="16" name="bitDepth"/>
             <Attribute id="8624" value="1" name="gain"/>
             <Attribute id="8625" value="0" name="mixToMono"/>
            </Attributes>
            <MetaData>
             <entry key="WinSubProjectDisplayName" val=""/>
            </MetaData>
           </AMFile>
           <AMFile id="8626" start="2906" duration="10082" scalar="1/1" mediaStart="3564/1" mediaDuration="10082/1" trackNumber="0" src="29" channelNumber="0" >
            <Parameters>
             <InterpolatingParam id="8627" interp="linr"  time="0/1" value="1" leadInLength="0/1"  name="volume"/>
             <Parameter id="8628"  name="captions"/>
            </Parameters>
            <Attributes>
             <Attribute id="8629" value="" name="ident"/>
             <Attribute id="8630" value="48000" name="sampleRate"/>
             <Attribute id="8631" value="16" name="bitDepth"/>
             <Attribute id="8632" value="1" name="gain"/>
             <Attribute id="8633" value="0" name="mixToMono"/>
            </Attributes>
            <MetaData>
             <entry key="WinSubProjectDisplayName" val=""/>
            </MetaData>
           </AMFile>
          </Medias>
         </GenericTrack>
        </StitchedMedia>
        <StitchedMedia id="8634" start="3701" duration="2266" scalar="1/1" mediaStart="4816/1" mediaDuration="2266/1" minMediaStart="0/1" >
         <Transformer>
          <VectorParam id="8635"  name="translation">
           <InterpolatingParam id="8636" interp="linr"  time="0/1" value="0" leadInLength="0/1"  />
           <InterpolatingParam id="8637" interp="linr"  time="0/1" value="0" leadInLength="0/1"  />
           <InterpolatingParam id="8638" interp="linr"  time="0/1" value="0" leadInLength="0/1"  />
          </VectorParam>
          <VectorParam id="8639"  name="rotation">
           <InterpolatingParam id="8640" interp="linr"  time="0/1" value="0" leadInLength="0/1"  />
           <InterpolatingParam id="8641" interp="linr"  time="0/1" value="0" leadInLength="0/1"  />
           <InterpolatingParam id="8642" interp="linr"  time="0/1" value="0" leadInLength="0/1"  />
          </VectorParam>
          <VectorParam id="8643"  name="shear">
           <InterpolatingParam id="8644" interp="linr"  time="0/1" value="0" leadInLength="0/1"  />
           <InterpolatingParam id="8645" interp="linr"  time="0/1" value="0" leadInLength="0/1"  />
           <InterpolatingParam id="8646" interp="linr"  time="0/1" value="0" leadInLength="0/1"  />
          </VectorParam>
          <VectorParam id="8647"  name="scale">
           <InterpolatingParam id="8648" interp="linr"  time="0/1" value="1" leadInLength="0/1"  />
           <InterpolatingParam id="8649" interp="linr"  time="0/1" value="1" leadInLength="0/1"  />
           <InterpolatingParam id="8650" interp="linr"  time="0/1" value="1" leadInLength="0/1"  />
          </VectorParam>
          <VectorParam id="8651"  name="anchor">
           <InterpolatingParam id="8652" interp="linr"  time="0/1" value="0" leadInLength="0/1"  />
           <InterpolatingParam id="8653" interp="linr"  time="0/1" value="0" leadInLength="0/1"  />
           <InterpolatingParam id="8654" interp="linr"  time="0/1" value="0" leadInLength="0/1"  />
          </VectorParam>
         </Transformer>
         <Parameters>
          <InterpolatingParam id="8655" interp="linr"  time="0/1" value="1" leadInLength="0/1"  name="cursorOpacity"/>
          <InterpolatingParam id="8656" interp="linr"  time="0/1" value="1" leadInLength="0/1"  name="cursorScale"/>
          <InterpolatingParam id="8657" interp="linr"  time="0/1" value="1.5625" leadInLength="0/1"  name="volume"/>
          <Parameter id="8658"  name="captions"/>
         </Parameters>
         <Effects>
          <GenericEffect id="8659" name = "WinCompression" >
           <Parameters>
           <InterpolatingParam id="8660" interp="linr"  time="0/1" value="0" leadInLength="0/1"   name="attack"/>
           <InterpolatingParam id="8661" interp="linr"  time="0/1" value="9" leadInLength="0/1"   name="gain"/>
           <Parameter id="8662"   name="preset">
            <Keyframes>
            <Keyframe id="8663"  time="0/1" value="1" leadInLength="0/1"  />
            </Keyframes>
           </Parameter>
           <InterpolatingParam id="8664" interp="linr"  time="0/1" value="10" leadInLength="0/1"   name="ratio"/>
           <InterpolatingParam id="8665" interp="linr"  time="0/1" value="3500" leadInLength="0/1"   name="release"/>
           <InterpolatingParam id="8666" interp="linr"  time="0/1" value="-20" leadInLength="0/1"   name="threshold"/>
           </Parameters>
          </GenericEffect>
          <GenericEffect id="8667" name = "NoiseReduction" >
           <Parameters>
           <InterpolatingParam id="8668" interp="linr"  time="0/1" value="20" leadInLength="0/1"   name="denoiserAmount"/>
           <InterpolatingParam id="8669" interp="linr"  time="0/1" value="0" leadInLength="0/1"   name="denoiserThreshold"/>
           <Parameter id="8670"   name="noiseProfile">
            <Keyframes>
            <Keyframe id="8671"  time="0/1" value="FBAAAAIAAABErAAAAQIAAIA/l8JLuYTCrOB9wgsMfMJoG4LCaWeFwkohjMJdoYvCYv6LwlnvjcKf&#xD;&#xa;nYzChXWPwlcejsL6fo/C5OmQwgVTj8IVMI/COiWRwoWFkcJ2tYzC8I6MwuQbjcJvEo/ClwGRwheQ&#xD;&#xa;lsK8+pbCN5qVwlielcJ905rCmu+fwst0ncIC/JvCdIWdws3snsKxC5zCfh2cwniFnMJRypzCtRag&#xD;&#xa;wuoCosJQt6DCzoegwhY9ocIWN6PCsNqkwrSlpMJ6maTCYpCkwmLvo8Li+KPCyEamwnBNqMLMcqrC&#xD;&#xa;v2GswoS+q8Kk86vCVACuwnvUr8JxZa/CqHqswrdXq8LqT6zCZsuswhZxrMLBX67CnmqvwpYyrsKc&#xD;&#xa;pq3CJFGvwghrsMK3y6/CXoCtwmWZr8ICi7DCgRezwogSs8Joq7LCm0Sxwuz/scIfibTCOOK1wlIM&#xD;&#xa;t8K87LfCj3K3wqDYs8KT1bLCVsW0wnZ0tcJGhLXCfPe0ws/ntcLGXrbCzAG1wtXdtcKxxrTC1Ay1&#xD;&#xa;wquGtcLjELbC8Zi2wl7rtsJBYbbCMF+1wrEutMKuibTCSFa1wpvktMIu3rTCtGe4wjaduMIKErfC&#xD;&#xa;SLa1wvS/tsJmZrjCdn63whjft8Ie47rCfdi5wmjpt8KKCLjCXmC5wsOQt8JDGbfCK4m4wmpvuMLL&#xD;&#xa;nLjC80q4wjUVusKunLjC1Be5wg4cuMLxCbjCwfW4wmi7ucIOdbvCbLG6whqdusKYErrCbpC4wmq0&#xD;&#xa;ucIoWrvCaNe6ws4iu8LSc7zCUNa7wuJZvMIwLL3CWe28wps2v8J2l77Cv3W+wvgavsKAwrzCQCy8&#xD;&#xa;wgBRu8Km8brChSa6wuM4u8IaaL3Cf5y9wg4hvMLur7vCIpO9wm0fvcIGNLzC7Le8wvKgvMKQrLzC&#xD;&#xa;p6+9wtYtvsJcxbzCQC29wjDqvcKeNbzCH2W8wpbZvsLCTL7CnjO+wuIsvsJs67vCwLq9wiKhvsLs&#xD;&#xa;o73C5Du9wqqhvcLwKr7C2kq/wqEMv8LVCb7Cpla+wsXpvMIs6bvC/fO8wueCvsIM4b3CxtC+wmTo&#xD;&#xa;vcI+arzCTNe8wiFNv8IvKL/Cpg+/woK1v8L4i7/CNv2+wmsVv8KWj77CVym+wnAlv8Joa8DCFDzA&#xD;&#xa;wiQYwcLSIcHCxILAwuxKvsJYm77CPoHAwiYPwcLuy77CcQa+wrB4vcKwYLzCxKW8worIvcIlzr/C&#xD;&#xa;OMC+wuRDvcJGZ7zCxFi9wuQzvMLPbbvCwIe+wm7bvcLm9L3COH6+wuuJvMK2B73CYb+9wqbxvMK/&#xD;&#xa;mL7CqIe9wvCavMKs7L3Ckau8wkpavMKt9LzCF8S+wmgKvsKCy73ClrG+wmIovcIns73Cmg+/wgw7&#xD;&#xa;wMI607/CpEq/wmwVvcJLsLvCMD68wuxdvcIeI7/C+bS+wpxfvsJyxsDC1tO/wmtrv8LNnb/CQiK+&#xD;&#xa;wlz7vcLa6L/CUMXBwtrQwcIAw8HCNJHBwvphwMKqc7/CSkW/wjkvwMK8ccHCHmDBwlKAwcKu+MDC&#xD;&#xa;zErCwuqgwsLa+MLC753DwmjuxcLEWMfCkePFwo47xsKnX8XC7tTCwuf3wsL+HcLCTcTBwmg6w8Is&#xD;&#xa;RMPC+qjDwiyGxMLi58TCnWvFwpjsxsKzCMbCyCTDwpM2wcJWGMPCvuDFwh42xsIfyMTCeLTFwuH7&#xD;&#xa;xMJctcfCVv3HwpTGx8J8b8jCqhjHwrgkx8LXNsfCZkLGwnxSxcL8csXCbu7FwsaQyMLa68fCo0XH&#xD;&#xa;woruxMJGHsbCORbJwry2yMLIUsfCxlfGwmLoxcLSPMnCYPDJwkw3yMKc7crC8vDLwug2y8Lu28vC&#xD;&#xa;OKvMwvLpysKGj8rCtNXLwrMay8KdGMrCUr3JwgIVy8J64MvCkbTJwjh4x8JGI8bCvBXHwnoPycKN&#xD;&#xa;Ss3CuC/Nwuywy8IkJ8zCx9/KwnB5ycKnk8nCenLJwnN6ycKc+sjCLFzJwuTrzMJkJM/CY5vOwoYO&#xD;&#xa;zsLU987CVKfNwiZZzcJQxNDCICHVwi0d18Kc29jCIF/YwtKo2MKeBNvCwpTawmY/2sJXPdvCZZXY&#xD;&#xa;whB818IQNdjCDF3XwtWC1sIGF9fCfFfXwkBy2MJ6+9nC1hfZwi5k2cJlfNjCnEPYwm/N1cKGOdXC&#xD;&#xa;Yk/XwgXL2MJSytfCgpTWwqTT1sJOGtnCrF/ZwtcT2cK08NjCscHZwpQ72sLJ/NrCy3zYwmCk18LE&#xD;&#xa;O9fC6hbYwtYU2cJN/dnC1EbZwrw/2cIqyNbCDr7Xwvb02cLQ+dnCaJvXwuYO18KSodnC1NnawtJJ&#xD;&#xa;18ISLtjC90nawoel2cIwl9jCi0XZwih328Ks7NjC5KzZwqui2cJw0tjCukLYws+O2MJaqtrCUuXa&#xD;&#xa;wviX2MIKxtfCnqXXwhjI2MJwAtvCIFvcwgCL2cJ0/djCdyXawh9H2cJ+ntfCy4TXwhqF2MJ68NnC&#xD;&#xa;CzvYwljT2cIkP9vCIs/bwjpB2sK2A9rCXt/awjZH2sIfltvCKWPcwjp53MKrGd3CaBPewj/03MJm&#xD;&#xa;U97CphfgwlJp3cKQpt3Crxjewm7d28Kq/9vCNNXcwqY728IUH9vCkirbwgIt28KK19zCjmzdwoBH&#xD;&#xa;3MIAUtvCUq3bwo8f28Ig09jCiyfZwhbx2sLWe9zCvgzbwmwI2sI2nNvC0lvdwg6128I8PNvCLufa&#xD;&#xa;wkyK28KkitzCJIDcwmAO28L0TNrCDHXawjla28IQkdzCoCDcwjRI3MJVUdvCtujZwnCs2sK8Yd3C&#xD;&#xa;iGbbwuSB2cImFNvCCI7rwoA/l8JLuYTCrOB9wgsMfMJoG4LCaWeFwkohjMJdoYvCYv6LwlnvjcKf&#xD;&#xa;nYzChXWPwlcejsL6fo/C5OmQwgVTj8IVMI/COiWRwoWFkcJ2tYzC8I6MwuQbjcJvEo/ClwGRwheQ&#xD;&#xa;lsK8+pbCN5qVwlielcJ905rCmu+fwst0ncIC/JvCdIWdws3snsKxC5zCfh2cwniFnMJRypzCtRag&#xD;&#xa;wuoCosJQt6DCzoegwhY9ocIWN6PCsNqkwrSlpMJ6maTCYpCkwmLvo8Li+KPCyEamwnBNqMLMcqrC&#xD;&#xa;v2GswoS+q8Kk86vCVACuwnvUr8JxZa/CqHqswrdXq8LqT6zCZsuswhZxrMLBX67CnmqvwpYyrsKc&#xD;&#xa;pq3CJFGvwghrsMK3y6/CXoCtwmWZr8ICi7DCgRezwogSs8Joq7LCm0Sxwuz/scIfibTCOOK1wlIM&#xD;&#xa;t8K87LfCj3K3wqDYs8KT1bLCVsW0wnZ0tcJGhLXCfPe0ws/ntcLGXrbCzAG1wtXdtcKxxrTC1Ay1&#xD;&#xa;wquGtcLjELbC8Zi2wl7rtsJBYbbCMF+1wrEutMKuibTCSFa1wpvktMIu3rTCtGe4wjaduMIKErfC&#xD;&#xa;SLa1wvS/tsJmZrjCdn63whjft8Ie47rCfdi5wmjpt8KKCLjCXmC5wsOQt8JDGbfCK4m4wmpvuMLL&#xD;&#xa;nLjC80q4wjUVusKunLjC1Be5wg4cuMLxCbjCwfW4wmi7ucIOdbvCbLG6whqdusKYErrCbpC4wmq0&#xD;&#xa;ucIoWrvCaNe6ws4iu8LSc7zCUNa7wuJZvMIwLL3CWe28wps2v8J2l77Cv3W+wvgavsKAwrzCQCy8&#xD;&#xa;wgBRu8Km8brChSa6wuM4u8IaaL3Cf5y9wg4hvMLur7vCIpO9wm0fvcIGNLzC7Le8wvKgvMKQrLzC&#xD;&#xa;p6+9wtYtvsJcxbzCQC29wjDqvcKeNbzCH2W8wpbZvsLCTL7CnjO+wuIsvsJs67vCwLq9wiKhvsLs&#xD;&#xa;o73C5Du9wqqhvcLwKr7C2kq/wqEMv8LVCb7Cpla+wsXpvMIs6bvC/fO8wueCvsIM4b3CxtC+wmTo&#xD;&#xa;vcI+arzCTNe8wiFNv8IvKL/Cpg+/woK1v8L4i7/CNv2+wmsVv8KWj77CVym+wnAlv8Joa8DCFDzA&#xD;&#xa;wiQYwcLSIcHCxILAwuxKvsJYm77CPoHAwiYPwcLuy77CcQa+wrB4vcKwYLzCxKW8worIvcIlzr/C&#xD;&#xa;OMC+wuRDvcJGZ7zCxFi9wuQzvMLPbbvCwIe+wm7bvcLm9L3COH6+wuuJvMK2B73CYb+9wqbxvMK/&#xD;&#xa;mL7CqIe9wvCavMKs7L3Ckau8wkpavMKt9LzCF8S+wmgKvsKCy73ClrG+wmIovcIns73Cmg+/wgw7&#xD;&#xa;wMI607/CpEq/wmwVvcJLsLvCMD68wuxdvcIeI7/C+bS+wpxfvsJyxsDC1tO/wmtrv8LNnb/CQiK+&#xD;&#xa;wlz7vcLa6L/CUMXBwtrQwcIAw8HCNJHBwvphwMKqc7/CSkW/wjkvwMK8ccHCHmDBwlKAwcKu+MDC&#xD;&#xa;zErCwuqgwsLa+MLC753DwmjuxcLEWMfCkePFwo47xsKnX8XC7tTCwuf3wsL+HcLCTcTBwmg6w8Is&#xD;&#xa;RMPC+qjDwiyGxMLi58TCnWvFwpjsxsKzCMbCyCTDwpM2wcJWGMPCvuDFwh42xsIfyMTCeLTFwuH7&#xD;&#xa;xMJctcfCVv3HwpTGx8J8b8jCqhjHwrgkx8LXNsfCZkLGwnxSxcL8csXCbu7FwsaQyMLa68fCo0XH&#xD;&#xa;woruxMJGHsbCORbJwry2yMLIUsfCxlfGwmLoxcLSPMnCYPDJwkw3yMKc7crC8vDLwug2y8Lu28vC&#xD;&#xa;OKvMwvLpysKGj8rCtNXLwrMay8KdGMrCUr3JwgIVy8J64MvCkbTJwjh4x8JGI8bCvBXHwnoPycKN&#xD;&#xa;Ss3CuC/Nwuywy8IkJ8zCx9/KwnB5ycKnk8nCenLJwnN6ycKc+sjCLFzJwuTrzMJkJM/CY5vOwoYO&#xD;&#xa;zsLU987CVKfNwiZZzcJQxNDCICHVwi0d18Kc29jCIF/YwtKo2MKeBNvCwpTawmY/2sJXPdvCZZXY&#xD;&#xa;whB818IQNdjCDF3XwtWC1sIGF9fCfFfXwkBy2MJ6+9nC1hfZwi5k2cJlfNjCnEPYwm/N1cKGOdXC&#xD;&#xa;Yk/XwgXL2MJSytfCgpTWwqTT1sJOGtnCrF/ZwtcT2cK08NjCscHZwpQ72sLJ/NrCy3zYwmCk18LE&#xD;&#xa;O9fC6hbYwtYU2cJN/dnC1EbZwrw/2cIqyNbCDr7Xwvb02cLQ+dnCaJvXwuYO18KSodnC1NnawtJJ&#xD;&#xa;18ISLtjC90nawoel2cIwl9jCi0XZwih328Ks7NjC5KzZwqui2cJw0tjCukLYws+O2MJaqtrCUuXa&#xD;&#xa;wviX2MIKxtfCnqXXwhjI2MJwAtvCIFvcwgCL2cJ0/djCdyXawh9H2cJ+ntfCy4TXwhqF2MJ68NnC&#xD;&#xa;CzvYwljT2cIkP9vCIs/bwjpB2sK2A9rCXt/awjZH2sIfltvCKWPcwjp53MKrGd3CaBPewj/03MJm&#xD;&#xa;U97CphfgwlJp3cKQpt3Crxjewm7d28Kq/9vCNNXcwqY728IUH9vCkirbwgIt28KK19zCjmzdwoBH&#xD;&#xa;3MIAUtvCUq3bwo8f28Ig09jCiyfZwhbx2sLWe9zCvgzbwmwI2sI2nNvC0lvdwg6128I8PNvCLufa&#xD;&#xa;wkyK28KkitzCJIDcwmAO28L0TNrCDHXawjla28IQkdzCoCDcwjRI3MJVUdvCtujZwnCs2sK8Yd3C&#xD;&#xa;iGbbwuSB2cImFNvCCI7r" leadInLength="0/1"  />
            </Keyframes>
           </Parameter>
           </Parameters>
          </GenericEffect>
          <GenericEffect id="8672" name = "Declipper" >
           <Parameters>
           <InterpolatingParam id="8673" interp="linr"  time="0/1" value="-1" leadInLength="0/1"   name="sensitivity"/>
           </Parameters>
          </GenericEffect>
          <GenericEffect id="8674" name = "Declicker" >
           <Parameters>
           <InterpolatingParam id="8675" interp="linr"  time="0/1" value="3" leadInLength="0/1"   name="sensitivity"/>
           </Parameters>
          </GenericEffect>
         </Effects>
         <Attributes>
          <Attribute id="8676" value="" name="ident"/>
          <Attribute id="8677" value="0" name="mixToMono"/>
         </Attributes>
         <MetaData>
          <entry key="WinSubProjectDisplayName" val=""/>
         </MetaData>
         <ExtraData>
          <Entry key="ZoomPanBin">
           <ZoomPanBin id="8678"  >
            <ZoomPanKeyframes>
            </ZoomPanKeyframes>
           </ZoomPanBin>
          </Entry>
          <Entry key="CursorEffectBin">
           <CursorEffectBin id="8679"  >
            <CursorEffectKeyframes>
            </CursorEffectKeyframes>
           </CursorEffectBin>
          </Entry>
         </ExtraData>
         <GenericTrack id="8680"  >
          <Attributes>
           <Attribute id="8681" value="" name="ident"/>
           <Attribute id="8682" value="0" name="audioMuted"/>
           <Attribute id="8683" value="0" name="videoHidden"/>
          </Attributes>
          <MetaData>
           <entry key="IsLocked" val="False"/>
           <entry key="WinTrackHeight" val="0"/>
          </MetaData>
          <Medias>
           <AMFile id="8684" start="0" duration="117" scalar="1/1" mediaStart="0/1" mediaDuration="117/1" trackNumber="0" src="29" channelNumber="0" >
            <Parameters>
             <InterpolatingParam id="8685" interp="linr"  time="0/1" value="1" leadInLength="0/1"  name="volume"/>
             <Parameter id="8686"  name="captions"/>
            </Parameters>
            <Attributes>
             <Attribute id="8687" value="" name="ident"/>
             <Attribute id="8688" value="48000" name="sampleRate"/>
             <Attribute id="8689" value="16" name="bitDepth"/>
             <Attribute id="8690" value="1" name="gain"/>
             <Attribute id="8691" value="0" name="mixToMono"/>
            </Attributes>
            <MetaData>
             <entry key="WinSubProjectDisplayName" val=""/>
            </MetaData>
           </AMFile>
           <AMFile id="8692" start="117" duration="272" scalar="1/1" mediaStart="131/1" mediaDuration="272/1" trackNumber="0" src="29" channelNumber="0" >
            <Parameters>
             <InterpolatingParam id="8693" interp="linr"  time="0/1" value="1" leadInLength="0/1"  name="volume"/>
             <Parameter id="8694"  name="captions"/>
            </Parameters>
            <Attributes>
             <Attribute id="8695" value="" name="ident"/>
             <Attribute id="8696" value="48000" name="sampleRate"/>
             <Attribute id="8697" value="16" name="bitDepth"/>
             <Attribute id="8698" value="1" name="gain"/>
             <Attribute id="8699" value="0" name="mixToMono"/>
            </Attributes>
            <MetaData>
             <entry key="WinSubProjectDisplayName" val=""/>
            </MetaData>
           </AMFile>
           <AMFile id="8700" start="389" duration="1309" scalar="1/1" mediaStart="415/1" mediaDuration="1309/1" trackNumber="0" src="29" channelNumber="0" >
            <Parameters>
             <InterpolatingParam id="8701" interp="linr"  time="0/1" value="1" leadInLength="0/1"  name="volume"/>
             <Parameter id="8702"  name="captions"/>
            </Parameters>
            <Attributes>
             <Attribute id="8703" value="" name="ident"/>
             <Attribute id="8704" value="48000" name="sampleRate"/>
             <Attribute id="8705" value="16" name="bitDepth"/>
             <Attribute id="8706" value="1" name="gain"/>
             <Attribute id="8707" value="0" name="mixToMono"/>
            </Attributes>
            <MetaData>
             <entry key="WinSubProjectDisplayName" val=""/>
            </MetaData>
           </AMFile>
           <AMFile id="8708" start="1698" duration="103" scalar="1/1" mediaStart="1734/1" mediaDuration="103/1" trackNumber="0" src="29" channelNumber="0" >
            <Parameters>
             <InterpolatingParam id="8709" interp="linr"  time="0/1" value="1" leadInLength="0/1"  name="volume"/>
             <Parameter id="8710"  name="captions"/>
            </Parameters>
            <Attributes>
             <Attribute id="8711" value="" name="ident"/>
             <Attribute id="8712" value="48000" name="sampleRate"/>
             <Attribute id="8713" value="16" name="bitDepth"/>
             <Attribute id="8714" value="1" name="gain"/>
             <Attribute id="8715" value="0" name="mixToMono"/>
            </Attributes>
            <MetaData>
             <entry key="WinSubProjectDisplayName" val=""/>
            </MetaData>
           </AMFile>
           <AMFile id="8716" start="1801" duration="245" scalar="1/1" mediaStart="2164/1" mediaDuration="245/1" trackNumber="0" src="29" channelNumber="0" >
            <Parameters>
             <InterpolatingParam id="8717" interp="linr"  time="0/1" value="1" leadInLength="0/1"  name="volume"/>
             <Parameter id="8718"  name="captions"/>
            </Parameters>
            <Attributes>
             <Attribute id="8719" value="" name="ident"/>
             <Attribute id="8720" value="48000" name="sampleRate"/>
             <Attribute id="8721" value="16" name="bitDepth"/>
             <Attribute id="8722" value="1" name="gain"/>
             <Attribute id="8723" value="0" name="mixToMono"/>
            </Attributes>
            <MetaData>
             <entry key="WinSubProjectDisplayName" val=""/>
            </MetaData>
           </AMFile>
           <AMFile id="8724" start="2046" duration="202" scalar="1/1" mediaStart="2637/1" mediaDuration="202/1" trackNumber="0" src="29" channelNumber="0" >
            <Parameters>
             <InterpolatingParam id="8725" interp="linr"  time="0/1" value="1" leadInLength="0/1"  name="volume"/>
             <Parameter id="8726"  name="captions"/>
            </Parameters>
            <Attributes>
             <Attribute id="8727" value="" name="ident"/>
             <Attribute id="8728" value="48000" name="sampleRate"/>
             <Attribute id="8729" value="16" name="bitDepth"/>
             <Attribute id="8730" value="1" name="gain"/>
             <Attribute id="8731" value="0" name="mixToMono"/>
            </Attributes>
            <MetaData>
             <entry key="WinSubProjectDisplayName" val=""/>
            </MetaData>
           </AMFile>
           <AMFile id="8732" start="2248" duration="185" scalar="1/1" mediaStart="2856/1" mediaDuration="185/1" trackNumber="0" src="29" channelNumber="0" >
            <Parameters>
             <InterpolatingParam id="8733" interp="linr"  time="0/1" value="1" leadInLength="0/1"  name="volume"/>
             <Parameter id="8734"  name="captions"/>
            </Parameters>
            <Attributes>
             <Attribute id="8735" value="" name="ident"/>
             <Attribute id="8736" value="48000" name="sampleRate"/>
             <Attribute id="8737" value="16" name="bitDepth"/>
             <Attribute id="8738" value="1" name="gain"/>
             <Attribute id="8739" value="0" name="mixToMono"/>
            </Attributes>
            <MetaData>
             <entry key="WinSubProjectDisplayName" val=""/>
            </MetaData>
           </AMFile>
           <AMFile id="8740" start="2433" duration="215" scalar="1/1" mediaStart="3054/1" mediaDuration="215/1" trackNumber="0" src="29" channelNumber="0" >
            <Parameters>
             <InterpolatingParam id="8741" interp="linr"  time="0/1" value="1" leadInLength="0/1"  name="volume"/>
             <Parameter id="8742"  name="captions"/>
            </Parameters>
            <Attributes>
             <Attribute id="8743" value="" name="ident"/>
             <Attribute id="8744" value="48000" name="sampleRate"/>
             <Attribute id="8745" value="16" name="bitDepth"/>
             <Attribute id="8746" value="1" name="gain"/>
             <Attribute id="8747" value="0" name="mixToMono"/>
            </Attributes>
            <MetaData>
             <entry key="WinSubProjectDisplayName" val=""/>
            </MetaData>
           </AMFile>
           <AMFile id="8748" start="2648" duration="155" scalar="1/1" mediaStart="3288/1" mediaDuration="155/1" trackNumber="0" src="29" channelNumber="0" >
            <Parameters>
             <InterpolatingParam id="8749" interp="linr"  time="0/1" value="1" leadInLength="0/1"  name="volume"/>
             <Parameter id="8750"  name="captions"/>
            </Parameters>
            <Attributes>
             <Attribute id="8751" value="" name="ident"/>
             <Attribute id="8752" value="48000" name="sampleRate"/>
             <Attribute id="8753" value="16" name="bitDepth"/>
             <Attribute id="8754" value="1" name="gain"/>
             <Attribute id="8755" value="0" name="mixToMono"/>
            </Attributes>
            <MetaData>
             <entry key="WinSubProjectDisplayName" val=""/>
            </MetaData>
           </AMFile>
           <AMFile id="8756" start="2803" duration="103" scalar="1/1" mediaStart="3450/1" mediaDuration="103/1" trackNumber="0" src="29" channelNumber="0" >
            <Parameters>
             <InterpolatingParam id="8757" interp="linr"  time="0/1" value="1" leadInLength="0/1"  name="volume"/>
             <Parameter id="8758"  name="captions"/>
            </Parameters>
            <Attributes>
             <Attribute id="8759" value="" name="ident"/>
             <Attribute id="8760" value="48000" name="sampleRate"/>
             <Attribute id="8761" value="16" name="bitDepth"/>
             <Attribute id="8762" value="1" name="gain"/>
             <Attribute id="8763" value="0" name="mixToMono"/>
            </Attributes>
            <MetaData>
             <entry key="WinSubProjectDisplayName" val=""/>
            </MetaData>
           </AMFile>
           <AMFile id="8764" start="2906" duration="2683" scalar="1/1" mediaStart="3564/1" mediaDuration="2683/1" trackNumber="0" src="29" channelNumber="0" >
            <Parameters>
             <InterpolatingParam id="8765" interp="linr"  time="0/1" value="1" leadInLength="0/1"  name="volume"/>
             <Parameter id="8766"  name="captions"/>
            </Parameters>
            <Attributes>
             <Attribute id="8767" value="" name="ident"/>
             <Attribute id="8768" value="48000" name="sampleRate"/>
             <Attribute id="8769" value="16" name="bitDepth"/>
             <Attribute id="8770" value="1" name="gain"/>
             <Attribute id="8771" value="0" name="mixToMono"/>
            </Attributes>
            <MetaData>
             <entry key="WinSubProjectDisplayName" val=""/>
            </MetaData>
           </AMFile>
           <AMFile id="8772" start="5589" duration="143" scalar="1/1" mediaStart="6247/1" mediaDuration="143/1" trackNumber="0" src="29" channelNumber="0" >
            <Parameters>
             <InterpolatingParam id="8773" interp="linr"  time="0/1" value="1" leadInLength="0/1"  name="volume"/>
             <Parameter id="8774"  name="captions"/>
            </Parameters>
            <Attributes>
             <Attribute id="8775" value="" name="ident"/>
             <Attribute id="8776" value="48000" name="sampleRate"/>
             <Attribute id="8777" value="16" name="bitDepth"/>
             <Attribute id="8778" value="1" name="gain"/>
             <Attribute id="8779" value="0" name="mixToMono"/>
            </Attributes>
            <MetaData>
             <entry key="WinSubProjectDisplayName" val=""/>
            </MetaData>
           </AMFile>
           <AMFile id="8780" start="5732" duration="285" scalar="1/1" mediaStart="6413/1" mediaDuration="285/1" trackNumber="0" src="29" channelNumber="0" >
            <Parameters>
             <InterpolatingParam id="8781" interp="linr"  time="0/1" value="1" leadInLength="0/1"  name="volume"/>
             <Parameter id="8782"  name="captions"/>
            </Parameters>
            <Attributes>
             <Attribute id="8783" value="" name="ident"/>
             <Attribute id="8784" value="48000" name="sampleRate"/>
             <Attribute id="8785" value="16" name="bitDepth"/>
             <Attribute id="8786" value="1" name="gain"/>
             <Attribute id="8787" value="0" name="mixToMono"/>
            </Attributes>
            <MetaData>
             <entry key="WinSubProjectDisplayName" val=""/>
            </MetaData>
           </AMFile>
           <AMFile id="8788" start="6017" duration="102" scalar="1/1" mediaStart="6729/1" mediaDuration="102/1" trackNumber="0" src="29" channelNumber="0" >
            <Parameters>
             <InterpolatingParam id="8789" interp="linr"  time="0/1" value="1" leadInLength="0/1"  name="volume"/>
             <Parameter id="8790"  name="captions"/>
            </Parameters>
            <Attributes>
             <Attribute id="8791" value="" name="ident"/>
             <Attribute id="8792" value="48000" name="sampleRate"/>
             <Attribute id="8793" value="16" name="bitDepth"/>
             <Attribute id="8794" value="1" name="gain"/>
             <Attribute id="8795" value="0" name="mixToMono"/>
            </Attributes>
            <MetaData>
             <entry key="WinSubProjectDisplayName" val=""/>
            </MetaData>
           </AMFile>
           <AMFile id="8796" start="6119" duration="234" scalar="1/1" mediaStart="6848/1" mediaDuration="234/1" trackNumber="0" src="29" channelNumber="0" >
            <Parameters>
             <InterpolatingParam id="8797" interp="linr"  time="0/1" value="1" leadInLength="0/1"  name="volume"/>
             <Parameter id="8798"  name="captions"/>
            </Parameters>
            <Attributes>
             <Attribute id="8799" value="" name="ident"/>
             <Attribute id="8800" value="48000" name="sampleRate"/>
             <Attribute id="8801" value="16" name="bitDepth"/>
             <Attribute id="8802" value="1" name="gain"/>
             <Attribute id="8803" value="0" name="mixToMono"/>
            </Attributes>
            <MetaData>
             <entry key="WinSubProjectDisplayName" val=""/>
            </MetaData>
           </AMFile>
           <AMFile id="8804" start="6353" duration="107" scalar="1/1" mediaStart="7089/1" mediaDuration="107/1" trackNumber="0" src="29" channelNumber="0" >
            <Parameters>
             <InterpolatingParam id="8805" interp="linr"  time="0/1" value="1" leadInLength="0/1"  name="volume"/>
             <Parameter id="8806"  name="captions"/>
            </Parameters>
            <Attributes>
             <Attribute id="8807" value="" name="ident"/>
             <Attribute id="8808" value="48000" name="sampleRate"/>
             <Attribute id="8809" value="16" name="bitDepth"/>
             <Attribute id="8810" value="1" name="gain"/>
             <Attribute id="8811" value="0" name="mixToMono"/>
            </Attributes>
            <MetaData>
             <entry key="WinSubProjectDisplayName" val=""/>
            </MetaData>
           </AMFile>
           <AMFile id="8812" start="6460" duration="67" scalar="1/1" mediaStart="7207/1" mediaDuration="67/1" trackNumber="0" src="29" channelNumber="0" >
            <Parameters>
             <InterpolatingParam id="8813" interp="linr"  time="0/1" value="1" leadInLength="0/1"  name="volume"/>
             <Parameter id="8814"  name="captions"/>
            </Parameters>
            <Attributes>
             <Attribute id="8815" value="" name="ident"/>
             <Attribute id="8816" value="48000" name="sampleRate"/>
             <Attribute id="8817" value="16" name="bitDepth"/>
             <Attribute id="8818" value="1" name="gain"/>
             <Attribute id="8819" value="0" name="mixToMono"/>
            </Attributes>
            <MetaData>
             <entry key="WinSubProjectDisplayName" val=""/>
            </MetaData>
           </AMFile>
           <AMFile id="8820" start="6527" duration="226" scalar="1/1" mediaStart="7297/1" mediaDuration="226/1" trackNumber="0" src="29" channelNumber="0" >
            <Parameters>
             <InterpolatingParam id="8821" interp="linr"  time="0/1" value="1" leadInLength="0/1"  name="volume"/>
             <Parameter id="8822"  name="captions"/>
            </Parameters>
            <Attributes>
             <Attribute id="8823" value="" name="ident"/>
             <Attribute id="8824" value="48000" name="sampleRate"/>
             <Attribute id="8825" value="16" name="bitDepth"/>
             <Attribute id="8826" value="1" name="gain"/>
             <Attribute id="8827" value="0" name="mixToMono"/>
            </Attributes>
            <MetaData>
             <entry key="WinSubProjectDisplayName" val=""/>
            </MetaData>
           </AMFile>
           <AMFile id="8828" start="6753" duration="117" scalar="1/1" mediaStart="7540/1" mediaDuration="117/1" trackNumber="0" src="29" channelNumber="0" >
            <Parameters>
             <InterpolatingParam id="8829" interp="linr"  time="0/1" value="1" leadInLength="0/1"  name="volume"/>
             <Parameter id="8830"  name="captions"/>
            </Parameters>
            <Attributes>
             <Attribute id="8831" value="" name="ident"/>
             <Attribute id="8832" value="48000" name="sampleRate"/>
             <Attribute id="8833" value="16" name="bitDepth"/>
             <Attribute id="8834" value="1" name="gain"/>
             <Attribute id="8835" value="0" name="mixToMono"/>
            </Attributes>
            <MetaData>
             <entry key="WinSubProjectDisplayName" val=""/>
            </MetaData>
           </AMFile>
           <AMFile id="8836" start="6870" duration="52" scalar="1/1" mediaStart="7796/1" mediaDuration="52/1" trackNumber="0" src="29" channelNumber="0" >
            <Parameters>
             <InterpolatingParam id="8837" interp="linr"  time="0/1" value="1" leadInLength="0/1"  name="volume"/>
             <Parameter id="8838"  name="captions"/>
            </Parameters>
            <Attributes>
             <Attribute id="8839" value="" name="ident"/>
             <Attribute id="8840" value="48000" name="sampleRate"/>
             <Attribute id="8841" value="16" name="bitDepth"/>
             <Attribute id="8842" value="1" name="gain"/>
             <Attribute id="8843" value="0" name="mixToMono"/>
            </Attributes>
            <MetaData>
             <entry key="WinSubProjectDisplayName" val=""/>
            </MetaData>
           </AMFile>
           <AMFile id="8844" start="6922" duration="100" scalar="1/1" mediaStart="8187/1" mediaDuration="100/1" trackNumber="0" src="29" channelNumber="0" >
            <Parameters>
             <InterpolatingParam id="8845" interp="linr"  time="0/1" value="1" leadInLength="0/1"  name="volume"/>
             <Parameter id="8846"  name="captions"/>
            </Parameters>
            <Attributes>
             <Attribute id="8847" value="" name="ident"/>
             <Attribute id="8848" value="48000" name="sampleRate"/>
             <Attribute id="8849" value="16" name="bitDepth"/>
             <Attribute id="8850" value="1" name="gain"/>
             <Attribute id="8851" value="0" name="mixToMono"/>
            </Attributes>
            <MetaData>
             <entry key="WinSubProjectDisplayName" val=""/>
            </MetaData>
           </AMFile>
           <AMFile id="8852" start="7022" duration="5343" scalar="1/1" mediaStart="8303/1" mediaDuration="5343/1" trackNumber="0" src="29" channelNumber="0" >
            <Parameters>
             <InterpolatingParam id="8853" interp="linr"  time="0/1" value="1" leadInLength="0/1"  name="volume"/>
             <Parameter id="8854"  name="captions"/>
            </Parameters>
            <Attributes>
             <Attribute id="8855" value="" name="ident"/>
             <Attribute id="8856" value="48000" name="sampleRate"/>
             <Attribute id="8857" value="16" name="bitDepth"/>
             <Attribute id="8858" value="1" name="gain"/>
             <Attribute id="8859" value="0" name="mixToMono"/>
            </Attributes>
            <MetaData>
             <entry key="WinSubProjectDisplayName" val=""/>
            </MetaData>
           </AMFile>
          </Medias>
         </GenericTrack>
        </StitchedMedia>
        <StitchedMedia id="8860" start="5983" duration="367" scalar="1/1" mediaStart="7102/1" mediaDuration="367/1" minMediaStart="0/1" >
         <Transformer>
          <VectorParam id="8861"  name="translation">
           <InterpolatingParam id="8862" interp="linr"  time="0/1" value="0" leadInLength="0/1"  />
           <InterpolatingParam id="8863" interp="linr"  time="0/1" value="0" leadInLength="0/1"  />
           <InterpolatingParam id="8864" interp="linr"  time="0/1" value="0" leadInLength="0/1"  />
          </VectorParam>
          <VectorParam id="8865"  name="rotation">
           <InterpolatingParam id="8866" interp="linr"  time="0/1" value="0" leadInLength="0/1"  />
           <InterpolatingParam id="8867" interp="linr"  time="0/1" value="0" leadInLength="0/1"  />
           <InterpolatingParam id="8868" interp="linr"  time="0/1" value="0" leadInLength="0/1"  />
          </VectorParam>
          <VectorParam id="8869"  name="shear">
           <InterpolatingParam id="8870" interp="linr"  time="0/1" value="0" leadInLength="0/1"  />
           <InterpolatingParam id="8871" interp="linr"  time="0/1" value="0" leadInLength="0/1"  />
           <InterpolatingParam id="8872" interp="linr"  time="0/1" value="0" leadInLength="0/1"  />
          </VectorParam>
          <VectorParam id="8873"  name="scale">
           <InterpolatingParam id="8874" interp="linr"  time="0/1" value="1" leadInLength="0/1"  />
           <InterpolatingParam id="8875" interp="linr"  time="0/1" value="1" leadInLength="0/1"  />
           <InterpolatingParam id="8876" interp="linr"  time="0/1" value="1" leadInLength="0/1"  />
          </VectorParam>
          <VectorParam id="8877"  name="anchor">
           <InterpolatingParam id="8878" interp="linr"  time="0/1" value="0" leadInLength="0/1"  />
           <InterpolatingParam id="8879" interp="linr"  time="0/1" value="0" leadInLength="0/1"  />
           <InterpolatingParam id="8880" interp="linr"  time="0/1" value="0" leadInLength="0/1"  />
          </VectorParam>
         </Transformer>
         <Parameters>
          <InterpolatingParam id="8881" interp="linr"  time="0/1" value="1" leadInLength="0/1"  name="cursorOpacity"/>
          <InterpolatingParam id="8882" interp="linr"  time="0/1" value="1" leadInLength="0/1"  name="cursorScale"/>
          <InterpolatingParam id="8883" interp="linr"  time="0/1" value="1.5625" leadInLength="0/1"  name="volume"/>
          <Parameter id="8884"  name="captions"/>
         </Parameters>
         <Effects>
          <GenericEffect id="8885" name = "WinCompression" >
           <Parameters>
           <InterpolatingParam id="8886" interp="linr"  time="0/1" value="0" leadInLength="0/1"   name="attack"/>
           <InterpolatingParam id="8887" interp="linr"  time="0/1" value="9" leadInLength="0/1"   name="gain"/>
           <Parameter id="8888"   name="preset">
            <Keyframes>
            <Keyframe id="8889"  time="0/1" value="1" leadInLength="0/1"  />
            </Keyframes>
           </Parameter>
           <InterpolatingParam id="8890" interp="linr"  time="0/1" value="10" leadInLength="0/1"   name="ratio"/>
           <InterpolatingParam id="8891" interp="linr"  time="0/1" value="3500" leadInLength="0/1"   name="release"/>
           <InterpolatingParam id="8892" interp="linr"  time="0/1" value="-20" leadInLength="0/1"   name="threshold"/>
           </Parameters>
          </GenericEffect>
          <GenericEffect id="8893" name = "NoiseReduction" >
           <Parameters>
           <InterpolatingParam id="8894" interp="linr"  time="0/1" value="20" leadInLength="0/1"   name="denoiserAmount"/>
           <InterpolatingParam id="8895" interp="linr"  time="0/1" value="0" leadInLength="0/1"   name="denoiserThreshold"/>
           <Parameter id="8896"   name="noiseProfile">
            <Keyframes>
            <Keyframe id="8897"  time="0/1" value="FBAAAAIAAABErAAAAQIAAIA/l8JLuYTCrOB9wgsMfMJoG4LCaWeFwkohjMJdoYvCYv6LwlnvjcKf&#xD;&#xa;nYzChXWPwlcejsL6fo/C5OmQwgVTj8IVMI/COiWRwoWFkcJ2tYzC8I6MwuQbjcJvEo/ClwGRwheQ&#xD;&#xa;lsK8+pbCN5qVwlielcJ905rCmu+fwst0ncIC/JvCdIWdws3snsKxC5zCfh2cwniFnMJRypzCtRag&#xD;&#xa;wuoCosJQt6DCzoegwhY9ocIWN6PCsNqkwrSlpMJ6maTCYpCkwmLvo8Li+KPCyEamwnBNqMLMcqrC&#xD;&#xa;v2GswoS+q8Kk86vCVACuwnvUr8JxZa/CqHqswrdXq8LqT6zCZsuswhZxrMLBX67CnmqvwpYyrsKc&#xD;&#xa;pq3CJFGvwghrsMK3y6/CXoCtwmWZr8ICi7DCgRezwogSs8Joq7LCm0Sxwuz/scIfibTCOOK1wlIM&#xD;&#xa;t8K87LfCj3K3wqDYs8KT1bLCVsW0wnZ0tcJGhLXCfPe0ws/ntcLGXrbCzAG1wtXdtcKxxrTC1Ay1&#xD;&#xa;wquGtcLjELbC8Zi2wl7rtsJBYbbCMF+1wrEutMKuibTCSFa1wpvktMIu3rTCtGe4wjaduMIKErfC&#xD;&#xa;SLa1wvS/tsJmZrjCdn63whjft8Ie47rCfdi5wmjpt8KKCLjCXmC5wsOQt8JDGbfCK4m4wmpvuMLL&#xD;&#xa;nLjC80q4wjUVusKunLjC1Be5wg4cuMLxCbjCwfW4wmi7ucIOdbvCbLG6whqdusKYErrCbpC4wmq0&#xD;&#xa;ucIoWrvCaNe6ws4iu8LSc7zCUNa7wuJZvMIwLL3CWe28wps2v8J2l77Cv3W+wvgavsKAwrzCQCy8&#xD;&#xa;wgBRu8Km8brChSa6wuM4u8IaaL3Cf5y9wg4hvMLur7vCIpO9wm0fvcIGNLzC7Le8wvKgvMKQrLzC&#xD;&#xa;p6+9wtYtvsJcxbzCQC29wjDqvcKeNbzCH2W8wpbZvsLCTL7CnjO+wuIsvsJs67vCwLq9wiKhvsLs&#xD;&#xa;o73C5Du9wqqhvcLwKr7C2kq/wqEMv8LVCb7Cpla+wsXpvMIs6bvC/fO8wueCvsIM4b3CxtC+wmTo&#xD;&#xa;vcI+arzCTNe8wiFNv8IvKL/Cpg+/woK1v8L4i7/CNv2+wmsVv8KWj77CVym+wnAlv8Joa8DCFDzA&#xD;&#xa;wiQYwcLSIcHCxILAwuxKvsJYm77CPoHAwiYPwcLuy77CcQa+wrB4vcKwYLzCxKW8worIvcIlzr/C&#xD;&#xa;OMC+wuRDvcJGZ7zCxFi9wuQzvMLPbbvCwIe+wm7bvcLm9L3COH6+wuuJvMK2B73CYb+9wqbxvMK/&#xD;&#xa;mL7CqIe9wvCavMKs7L3Ckau8wkpavMKt9LzCF8S+wmgKvsKCy73ClrG+wmIovcIns73Cmg+/wgw7&#xD;&#xa;wMI607/CpEq/wmwVvcJLsLvCMD68wuxdvcIeI7/C+bS+wpxfvsJyxsDC1tO/wmtrv8LNnb/CQiK+&#xD;&#xa;wlz7vcLa6L/CUMXBwtrQwcIAw8HCNJHBwvphwMKqc7/CSkW/wjkvwMK8ccHCHmDBwlKAwcKu+MDC&#xD;&#xa;zErCwuqgwsLa+MLC753DwmjuxcLEWMfCkePFwo47xsKnX8XC7tTCwuf3wsL+HcLCTcTBwmg6w8Is&#xD;&#xa;RMPC+qjDwiyGxMLi58TCnWvFwpjsxsKzCMbCyCTDwpM2wcJWGMPCvuDFwh42xsIfyMTCeLTFwuH7&#xD;&#xa;xMJctcfCVv3HwpTGx8J8b8jCqhjHwrgkx8LXNsfCZkLGwnxSxcL8csXCbu7FwsaQyMLa68fCo0XH&#xD;&#xa;woruxMJGHsbCORbJwry2yMLIUsfCxlfGwmLoxcLSPMnCYPDJwkw3yMKc7crC8vDLwug2y8Lu28vC&#xD;&#xa;OKvMwvLpysKGj8rCtNXLwrMay8KdGMrCUr3JwgIVy8J64MvCkbTJwjh4x8JGI8bCvBXHwnoPycKN&#xD;&#xa;Ss3CuC/Nwuywy8IkJ8zCx9/KwnB5ycKnk8nCenLJwnN6ycKc+sjCLFzJwuTrzMJkJM/CY5vOwoYO&#xD;&#xa;zsLU987CVKfNwiZZzcJQxNDCICHVwi0d18Kc29jCIF/YwtKo2MKeBNvCwpTawmY/2sJXPdvCZZXY&#xD;&#xa;whB818IQNdjCDF3XwtWC1sIGF9fCfFfXwkBy2MJ6+9nC1hfZwi5k2cJlfNjCnEPYwm/N1cKGOdXC&#xD;&#xa;Yk/XwgXL2MJSytfCgpTWwqTT1sJOGtnCrF/ZwtcT2cK08NjCscHZwpQ72sLJ/NrCy3zYwmCk18LE&#xD;&#xa;O9fC6hbYwtYU2cJN/dnC1EbZwrw/2cIqyNbCDr7Xwvb02cLQ+dnCaJvXwuYO18KSodnC1NnawtJJ&#xD;&#xa;18ISLtjC90nawoel2cIwl9jCi0XZwih328Ks7NjC5KzZwqui2cJw0tjCukLYws+O2MJaqtrCUuXa&#xD;&#xa;wviX2MIKxtfCnqXXwhjI2MJwAtvCIFvcwgCL2cJ0/djCdyXawh9H2cJ+ntfCy4TXwhqF2MJ68NnC&#xD;&#xa;CzvYwljT2cIkP9vCIs/bwjpB2sK2A9rCXt/awjZH2sIfltvCKWPcwjp53MKrGd3CaBPewj/03MJm&#xD;&#xa;U97CphfgwlJp3cKQpt3Crxjewm7d28Kq/9vCNNXcwqY728IUH9vCkirbwgIt28KK19zCjmzdwoBH&#xD;&#xa;3MIAUtvCUq3bwo8f28Ig09jCiyfZwhbx2sLWe9zCvgzbwmwI2sI2nNvC0lvdwg6128I8PNvCLufa&#xD;&#xa;wkyK28KkitzCJIDcwmAO28L0TNrCDHXawjla28IQkdzCoCDcwjRI3MJVUdvCtujZwnCs2sK8Yd3C&#xD;&#xa;iGbbwuSB2cImFNvCCI7rwoA/l8JLuYTCrOB9wgsMfMJoG4LCaWeFwkohjMJdoYvCYv6LwlnvjcKf&#xD;&#xa;nYzChXWPwlcejsL6fo/C5OmQwgVTj8IVMI/COiWRwoWFkcJ2tYzC8I6MwuQbjcJvEo/ClwGRwheQ&#xD;&#xa;lsK8+pbCN5qVwlielcJ905rCmu+fwst0ncIC/JvCdIWdws3snsKxC5zCfh2cwniFnMJRypzCtRag&#xD;&#xa;wuoCosJQt6DCzoegwhY9ocIWN6PCsNqkwrSlpMJ6maTCYpCkwmLvo8Li+KPCyEamwnBNqMLMcqrC&#xD;&#xa;v2GswoS+q8Kk86vCVACuwnvUr8JxZa/CqHqswrdXq8LqT6zCZsuswhZxrMLBX67CnmqvwpYyrsKc&#xD;&#xa;pq3CJFGvwghrsMK3y6/CXoCtwmWZr8ICi7DCgRezwogSs8Joq7LCm0Sxwuz/scIfibTCOOK1wlIM&#xD;&#xa;t8K87LfCj3K3wqDYs8KT1bLCVsW0wnZ0tcJGhLXCfPe0ws/ntcLGXrbCzAG1wtXdtcKxxrTC1Ay1&#xD;&#xa;wquGtcLjELbC8Zi2wl7rtsJBYbbCMF+1wrEutMKuibTCSFa1wpvktMIu3rTCtGe4wjaduMIKErfC&#xD;&#xa;SLa1wvS/tsJmZrjCdn63whjft8Ie47rCfdi5wmjpt8KKCLjCXmC5wsOQt8JDGbfCK4m4wmpvuMLL&#xD;&#xa;nLjC80q4wjUVusKunLjC1Be5wg4cuMLxCbjCwfW4wmi7ucIOdbvCbLG6whqdusKYErrCbpC4wmq0&#xD;&#xa;ucIoWrvCaNe6ws4iu8LSc7zCUNa7wuJZvMIwLL3CWe28wps2v8J2l77Cv3W+wvgavsKAwrzCQCy8&#xD;&#xa;wgBRu8Km8brChSa6wuM4u8IaaL3Cf5y9wg4hvMLur7vCIpO9wm0fvcIGNLzC7Le8wvKgvMKQrLzC&#xD;&#xa;p6+9wtYtvsJcxbzCQC29wjDqvcKeNbzCH2W8wpbZvsLCTL7CnjO+wuIsvsJs67vCwLq9wiKhvsLs&#xD;&#xa;o73C5Du9wqqhvcLwKr7C2kq/wqEMv8LVCb7Cpla+wsXpvMIs6bvC/fO8wueCvsIM4b3CxtC+wmTo&#xD;&#xa;vcI+arzCTNe8wiFNv8IvKL/Cpg+/woK1v8L4i7/CNv2+wmsVv8KWj77CVym+wnAlv8Joa8DCFDzA&#xD;&#xa;wiQYwcLSIcHCxILAwuxKvsJYm77CPoHAwiYPwcLuy77CcQa+wrB4vcKwYLzCxKW8worIvcIlzr/C&#xD;&#xa;OMC+wuRDvcJGZ7zCxFi9wuQzvMLPbbvCwIe+wm7bvcLm9L3COH6+wuuJvMK2B73CYb+9wqbxvMK/&#xD;&#xa;mL7CqIe9wvCavMKs7L3Ckau8wkpavMKt9LzCF8S+wmgKvsKCy73ClrG+wmIovcIns73Cmg+/wgw7&#xD;&#xa;wMI607/CpEq/wmwVvcJLsLvCMD68wuxdvcIeI7/C+bS+wpxfvsJyxsDC1tO/wmtrv8LNnb/CQiK+&#xD;&#xa;wlz7vcLa6L/CUMXBwtrQwcIAw8HCNJHBwvphwMKqc7/CSkW/wjkvwMK8ccHCHmDBwlKAwcKu+MDC&#xD;&#xa;zErCwuqgwsLa+MLC753DwmjuxcLEWMfCkePFwo47xsKnX8XC7tTCwuf3wsL+HcLCTcTBwmg6w8Is&#xD;&#xa;RMPC+qjDwiyGxMLi58TCnWvFwpjsxsKzCMbCyCTDwpM2wcJWGMPCvuDFwh42xsIfyMTCeLTFwuH7&#xD;&#xa;xMJctcfCVv3HwpTGx8J8b8jCqhjHwrgkx8LXNsfCZkLGwnxSxcL8csXCbu7FwsaQyMLa68fCo0XH&#xD;&#xa;woruxMJGHsbCORbJwry2yMLIUsfCxlfGwmLoxcLSPMnCYPDJwkw3yMKc7crC8vDLwug2y8Lu28vC&#xD;&#xa;OKvMwvLpysKGj8rCtNXLwrMay8KdGMrCUr3JwgIVy8J64MvCkbTJwjh4x8JGI8bCvBXHwnoPycKN&#xD;&#xa;Ss3CuC/Nwuywy8IkJ8zCx9/KwnB5ycKnk8nCenLJwnN6ycKc+sjCLFzJwuTrzMJkJM/CY5vOwoYO&#xD;&#xa;zsLU987CVKfNwiZZzcJQxNDCICHVwi0d18Kc29jCIF/YwtKo2MKeBNvCwpTawmY/2sJXPdvCZZXY&#xD;&#xa;whB818IQNdjCDF3XwtWC1sIGF9fCfFfXwkBy2MJ6+9nC1hfZwi5k2cJlfNjCnEPYwm/N1cKGOdXC&#xD;&#xa;Yk/XwgXL2MJSytfCgpTWwqTT1sJOGtnCrF/ZwtcT2cK08NjCscHZwpQ72sLJ/NrCy3zYwmCk18LE&#xD;&#xa;O9fC6hbYwtYU2cJN/dnC1EbZwrw/2cIqyNbCDr7Xwvb02cLQ+dnCaJvXwuYO18KSodnC1NnawtJJ&#xD;&#xa;18ISLtjC90nawoel2cIwl9jCi0XZwih328Ks7NjC5KzZwqui2cJw0tjCukLYws+O2MJaqtrCUuXa&#xD;&#xa;wviX2MIKxtfCnqXXwhjI2MJwAtvCIFvcwgCL2cJ0/djCdyXawh9H2cJ+ntfCy4TXwhqF2MJ68NnC&#xD;&#xa;CzvYwljT2cIkP9vCIs/bwjpB2sK2A9rCXt/awjZH2sIfltvCKWPcwjp53MKrGd3CaBPewj/03MJm&#xD;&#xa;U97CphfgwlJp3cKQpt3Crxjewm7d28Kq/9vCNNXcwqY728IUH9vCkirbwgIt28KK19zCjmzdwoBH&#xD;&#xa;3MIAUtvCUq3bwo8f28Ig09jCiyfZwhbx2sLWe9zCvgzbwmwI2sI2nNvC0lvdwg6128I8PNvCLufa&#xD;&#xa;wkyK28KkitzCJIDcwmAO28L0TNrCDHXawjla28IQkdzCoCDcwjRI3MJVUdvCtujZwnCs2sK8Yd3C&#xD;&#xa;iGbbwuSB2cImFNvCCI7r" leadInLength="0/1"  />
            </Keyframes>
           </Parameter>
           </Parameters>
          </GenericEffect>
          <GenericEffect id="8898" name = "Declipper" >
           <Parameters>
           <InterpolatingParam id="8899" interp="linr"  time="0/1" value="-1" leadInLength="0/1"   name="sensitivity"/>
           </Parameters>
          </GenericEffect>
          <GenericEffect id="8900" name = "Declicker" >
           <Parameters>
           <InterpolatingParam id="8901" interp="linr"  time="0/1" value="3" leadInLength="0/1"   name="sensitivity"/>
           </Parameters>
          </GenericEffect>
         </Effects>
         <Attributes>
          <Attribute id="8902" value="" name="ident"/>
          <Attribute id="8903" value="0" name="mixToMono"/>
         </Attributes>
         <MetaData>
          <entry key="WinSubProjectDisplayName" val=""/>
         </MetaData>
         <ExtraData>
          <Entry key="ZoomPanBin">
           <ZoomPanBin id="8904"  >
            <ZoomPanKeyframes>
            </ZoomPanKeyframes>
           </ZoomPanBin>
          </Entry>
          <Entry key="CursorEffectBin">
           <CursorEffectBin id="8905"  >
            <CursorEffectKeyframes>
            </CursorEffectKeyframes>
           </CursorEffectBin>
          </Entry>
         </ExtraData>
         <GenericTrack id="8906"  >
          <Attributes>
           <Attribute id="8907" value="" name="ident"/>
           <Attribute id="8908" value="0" name="audioMuted"/>
           <Attribute id="8909" value="0" name="videoHidden"/>
          </Attributes>
          <MetaData>
           <entry key="IsLocked" val="False"/>
           <entry key="WinTrackHeight" val="0"/>
          </MetaData>
          <Medias>
           <AMFile id="8910" start="0" duration="117" scalar="1/1" mediaStart="0/1" mediaDuration="117/1" trackNumber="0" src="29" channelNumber="0" >
            <Parameters>
             <InterpolatingParam id="8911" interp="linr"  time="0/1" value="1" leadInLength="0/1"  name="volume"/>
             <Parameter id="8912"  name="captions"/>
            </Parameters>
            <Attributes>
             <Attribute id="8913" value="" name="ident"/>
             <Attribute id="8914" value="48000" name="sampleRate"/>
             <Attribute id="8915" value="16" name="bitDepth"/>
             <Attribute id="8916" value="1" name="gain"/>
             <Attribute id="8917" value="0" name="mixToMono"/>
            </Attributes>
            <MetaData>
             <entry key="WinSubProjectDisplayName" val=""/>
            </MetaData>
           </AMFile>
           <AMFile id="8918" start="117" duration="272" scalar="1/1" mediaStart="131/1" mediaDuration="272/1" trackNumber="0" src="29" channelNumber="0" >
            <Parameters>
             <InterpolatingParam id="8919" interp="linr"  time="0/1" value="1" leadInLength="0/1"  name="volume"/>
             <Parameter id="8920"  name="captions"/>
            </Parameters>
            <Attributes>
             <Attribute id="8921" value="" name="ident"/>
             <Attribute id="8922" value="48000" name="sampleRate"/>
             <Attribute id="8923" value="16" name="bitDepth"/>
             <Attribute id="8924" value="1" name="gain"/>
             <Attribute id="8925" value="0" name="mixToMono"/>
            </Attributes>
            <MetaData>
             <entry key="WinSubProjectDisplayName" val=""/>
            </MetaData>
           </AMFile>
           <AMFile id="8926" start="389" duration="1309" scalar="1/1" mediaStart="415/1" mediaDuration="1309/1" trackNumber="0" src="29" channelNumber="0" >
            <Parameters>
             <InterpolatingParam id="8927" interp="linr"  time="0/1" value="1" leadInLength="0/1"  name="volume"/>
             <Parameter id="8928"  name="captions"/>
            </Parameters>
            <Attributes>
             <Attribute id="8929" value="" name="ident"/>
             <Attribute id="8930" value="48000" name="sampleRate"/>
             <Attribute id="8931" value="16" name="bitDepth"/>
             <Attribute id="8932" value="1" name="gain"/>
             <Attribute id="8933" value="0" name="mixToMono"/>
            </Attributes>
            <MetaData>
             <entry key="WinSubProjectDisplayName" val=""/>
            </MetaData>
           </AMFile>
           <AMFile id="8934" start="1698" duration="103" scalar="1/1" mediaStart="1734/1" mediaDuration="103/1" trackNumber="0" src="29" channelNumber="0" >
            <Parameters>
             <InterpolatingParam id="8935" interp="linr"  time="0/1" value="1" leadInLength="0/1"  name="volume"/>
             <Parameter id="8936"  name="captions"/>
            </Parameters>
            <Attributes>
             <Attribute id="8937" value="" name="ident"/>
             <Attribute id="8938" value="48000" name="sampleRate"/>
             <Attribute id="8939" value="16" name="bitDepth"/>
             <Attribute id="8940" value="1" name="gain"/>
             <Attribute id="8941" value="0" name="mixToMono"/>
            </Attributes>
            <MetaData>
             <entry key="WinSubProjectDisplayName" val=""/>
            </MetaData>
           </AMFile>
           <AMFile id="8942" start="1801" duration="245" scalar="1/1" mediaStart="2164/1" mediaDuration="245/1" trackNumber="0" src="29" channelNumber="0" >
            <Parameters>
             <InterpolatingParam id="8943" interp="linr"  time="0/1" value="1" leadInLength="0/1"  name="volume"/>
             <Parameter id="8944"  name="captions"/>
            </Parameters>
            <Attributes>
             <Attribute id="8945" value="" name="ident"/>
             <Attribute id="8946" value="48000" name="sampleRate"/>
             <Attribute id="8947" value="16" name="bitDepth"/>
             <Attribute id="8948" value="1" name="gain"/>
             <Attribute id="8949" value="0" name="mixToMono"/>
            </Attributes>
            <MetaData>
             <entry key="WinSubProjectDisplayName" val=""/>
            </MetaData>
           </AMFile>
           <AMFile id="8950" start="2046" duration="202" scalar="1/1" mediaStart="2637/1" mediaDuration="202/1" trackNumber="0" src="29" channelNumber="0" >
            <Parameters>
             <InterpolatingParam id="8951" interp="linr"  time="0/1" value="1" leadInLength="0/1"  name="volume"/>
             <Parameter id="8952"  name="captions"/>
            </Parameters>
            <Attributes>
             <Attribute id="8953" value="" name="ident"/>
             <Attribute id="8954" value="48000" name="sampleRate"/>
             <Attribute id="8955" value="16" name="bitDepth"/>
             <Attribute id="8956" value="1" name="gain"/>
             <Attribute id="8957" value="0" name="mixToMono"/>
            </Attributes>
            <MetaData>
             <entry key="WinSubProjectDisplayName" val=""/>
            </MetaData>
           </AMFile>
           <AMFile id="8958" start="2248" duration="185" scalar="1/1" mediaStart="2856/1" mediaDuration="185/1" trackNumber="0" src="29" channelNumber="0" >
            <Parameters>
             <InterpolatingParam id="8959" interp="linr"  time="0/1" value="1" leadInLength="0/1"  name="volume"/>
             <Parameter id="8960"  name="captions"/>
            </Parameters>
            <Attributes>
             <Attribute id="8961" value="" name="ident"/>
             <Attribute id="8962" value="48000" name="sampleRate"/>
             <Attribute id="8963" value="16" name="bitDepth"/>
             <Attribute id="8964" value="1" name="gain"/>
             <Attribute id="8965" value="0" name="mixToMono"/>
            </Attributes>
            <MetaData>
             <entry key="WinSubProjectDisplayName" val=""/>
            </MetaData>
           </AMFile>
           <AMFile id="8966" start="2433" duration="215" scalar="1/1" mediaStart="3054/1" mediaDuration="215/1" trackNumber="0" src="29" channelNumber="0" >
            <Parameters>
             <InterpolatingParam id="8967" interp="linr"  time="0/1" value="1" leadInLength="0/1"  name="volume"/>
             <Parameter id="8968"  name="captions"/>
            </Parameters>
            <Attributes>
             <Attribute id="8969" value="" name="ident"/>
             <Attribute id="8970" value="48000" name="sampleRate"/>
             <Attribute id="8971" value="16" name="bitDepth"/>
             <Attribute id="8972" value="1" name="gain"/>
             <Attribute id="8973" value="0" name="mixToMono"/>
            </Attributes>
            <MetaData>
             <entry key="WinSubProjectDisplayName" val=""/>
            </MetaData>
           </AMFile>
           <AMFile id="8974" start="2648" duration="155" scalar="1/1" mediaStart="3288/1" mediaDuration="155/1" trackNumber="0" src="29" channelNumber="0" >
            <Parameters>
             <InterpolatingParam id="8975" interp="linr"  time="0/1" value="1" leadInLength="0/1"  name="volume"/>
             <Parameter id="8976"  name="captions"/>
            </Parameters>
            <Attributes>
             <Attribute id="8977" value="" name="ident"/>
             <Attribute id="8978" value="48000" name="sampleRate"/>
             <Attribute id="8979" value="16" name="bitDepth"/>
             <Attribute id="8980" value="1" name="gain"/>
             <Attribute id="8981" value="0" name="mixToMono"/>
            </Attributes>
            <MetaData>
             <entry key="WinSubProjectDisplayName" val=""/>
            </MetaData>
           </AMFile>
           <AMFile id="8982" start="2803" duration="103" scalar="1/1" mediaStart="3450/1" mediaDuration="103/1" trackNumber="0" src="29" channelNumber="0" >
            <Parameters>
             <InterpolatingParam id="8983" interp="linr"  time="0/1" value="1" leadInLength="0/1"  name="volume"/>
             <Parameter id="8984"  name="captions"/>
            </Parameters>
            <Attributes>
             <Attribute id="8985" value="" name="ident"/>
             <Attribute id="8986" value="48000" name="sampleRate"/>
             <Attribute id="8987" value="16" name="bitDepth"/>
             <Attribute id="8988" value="1" name="gain"/>
             <Attribute id="8989" value="0" name="mixToMono"/>
            </Attributes>
            <MetaData>
             <entry key="WinSubProjectDisplayName" val=""/>
            </MetaData>
           </AMFile>
           <AMFile id="8990" start="2906" duration="2683" scalar="1/1" mediaStart="3564/1" mediaDuration="2683/1" trackNumber="0" src="29" channelNumber="0" >
            <Parameters>
             <InterpolatingParam id="8991" interp="linr"  time="0/1" value="1" leadInLength="0/1"  name="volume"/>
             <Parameter id="8992"  name="captions"/>
            </Parameters>
            <Attributes>
             <Attribute id="8993" value="" name="ident"/>
             <Attribute id="8994" value="48000" name="sampleRate"/>
             <Attribute id="8995" value="16" name="bitDepth"/>
             <Attribute id="8996" value="1" name="gain"/>
             <Attribute id="8997" value="0" name="mixToMono"/>
            </Attributes>
            <MetaData>
             <entry key="WinSubProjectDisplayName" val=""/>
            </MetaData>
           </AMFile>
           <AMFile id="8998" start="5589" duration="143" scalar="1/1" mediaStart="6247/1" mediaDuration="143/1" trackNumber="0" src="29" channelNumber="0" >
            <Parameters>
             <InterpolatingParam id="8999" interp="linr"  time="0/1" value="1" leadInLength="0/1"  name="volume"/>
             <Parameter id="9000"  name="captions"/>
            </Parameters>
            <Attributes>
             <Attribute id="9001" value="" name="ident"/>
             <Attribute id="9002" value="48000" name="sampleRate"/>
             <Attribute id="9003" value="16" name="bitDepth"/>
             <Attribute id="9004" value="1" name="gain"/>
             <Attribute id="9005" value="0" name="mixToMono"/>
            </Attributes>
            <MetaData>
             <entry key="WinSubProjectDisplayName" val=""/>
            </MetaData>
           </AMFile>
           <AMFile id="9006" start="5732" duration="285" scalar="1/1" mediaStart="6413/1" mediaDuration="285/1" trackNumber="0" src="29" channelNumber="0" >
            <Parameters>
             <InterpolatingParam id="9007" interp="linr"  time="0/1" value="1" leadInLength="0/1"  name="volume"/>
             <Parameter id="9008"  name="captions"/>
            </Parameters>
            <Attributes>
             <Attribute id="9009" value="" name="ident"/>
             <Attribute id="9010" value="48000" name="sampleRate"/>
             <Attribute id="9011" value="16" name="bitDepth"/>
             <Attribute id="9012" value="1" name="gain"/>
             <Attribute id="9013" value="0" name="mixToMono"/>
            </Attributes>
            <MetaData>
             <entry key="WinSubProjectDisplayName" val=""/>
            </MetaData>
           </AMFile>
           <AMFile id="9014" start="6017" duration="102" scalar="1/1" mediaStart="6729/1" mediaDuration="102/1" trackNumber="0" src="29" channelNumber="0" >
            <Parameters>
             <InterpolatingParam id="9015" interp="linr"  time="0/1" value="1" leadInLength="0/1"  name="volume"/>
             <Parameter id="9016"  name="captions"/>
            </Parameters>
            <Attributes>
             <Attribute id="9017" value="" name="ident"/>
             <Attribute id="9018" value="48000" name="sampleRate"/>
             <Attribute id="9019" value="16" name="bitDepth"/>
             <Attribute id="9020" value="1" name="gain"/>
             <Attribute id="9021" value="0" name="mixToMono"/>
            </Attributes>
            <MetaData>
             <entry key="WinSubProjectDisplayName" val=""/>
            </MetaData>
           </AMFile>
           <AMFile id="9022" start="6119" duration="234" scalar="1/1" mediaStart="6848/1" mediaDuration="234/1" trackNumber="0" src="29" channelNumber="0" >
            <Parameters>
             <InterpolatingParam id="9023" interp="linr"  time="0/1" value="1" leadInLength="0/1"  name="volume"/>
             <Parameter id="9024"  name="captions"/>
            </Parameters>
            <Attributes>
             <Attribute id="9025" value="" name="ident"/>
             <Attribute id="9026" value="48000" name="sampleRate"/>
             <Attribute id="9027" value="16" name="bitDepth"/>
             <Attribute id="9028" value="1" name="gain"/>
             <Attribute id="9029" value="0" name="mixToMono"/>
            </Attributes>
            <MetaData>
             <entry key="WinSubProjectDisplayName" val=""/>
            </MetaData>
           </AMFile>
           <AMFile id="9030" start="6353" duration="107" scalar="1/1" mediaStart="7089/1" mediaDuration="107/1" trackNumber="0" src="29" channelNumber="0" >
            <Parameters>
             <InterpolatingParam id="9031" interp="linr"  time="0/1" value="1" leadInLength="0/1"  name="volume"/>
             <Parameter id="9032"  name="captions"/>
            </Parameters>
            <Attributes>
             <Attribute id="9033" value="" name="ident"/>
             <Attribute id="9034" value="48000" name="sampleRate"/>
             <Attribute id="9035" value="16" name="bitDepth"/>
             <Attribute id="9036" value="1" name="gain"/>
             <Attribute id="9037" value="0" name="mixToMono"/>
            </Attributes>
            <MetaData>
             <entry key="WinSubProjectDisplayName" val=""/>
            </MetaData>
           </AMFile>
           <AMFile id="9038" start="6460" duration="67" scalar="1/1" mediaStart="7207/1" mediaDuration="67/1" trackNumber="0" src="29" channelNumber="0" >
            <Parameters>
             <InterpolatingParam id="9039" interp="linr"  time="0/1" value="1" leadInLength="0/1"  name="volume"/>
             <Parameter id="9040"  name="captions"/>
            </Parameters>
            <Attributes>
             <Attribute id="9041" value="" name="ident"/>
             <Attribute id="9042" value="48000" name="sampleRate"/>
             <Attribute id="9043" value="16" name="bitDepth"/>
             <Attribute id="9044" value="1" name="gain"/>
             <Attribute id="9045" value="0" name="mixToMono"/>
            </Attributes>
            <MetaData>
             <entry key="WinSubProjectDisplayName" val=""/>
            </MetaData>
           </AMFile>
           <AMFile id="9046" start="6527" duration="226" scalar="1/1" mediaStart="7297/1" mediaDuration="226/1" trackNumber="0" src="29" channelNumber="0" >
            <Parameters>
             <InterpolatingParam id="9047" interp="linr"  time="0/1" value="1" leadInLength="0/1"  name="volume"/>
             <Parameter id="9048"  name="captions"/>
            </Parameters>
            <Attributes>
             <Attribute id="9049" value="" name="ident"/>
             <Attribute id="9050" value="48000" name="sampleRate"/>
             <Attribute id="9051" value="16" name="bitDepth"/>
             <Attribute id="9052" value="1" name="gain"/>
             <Attribute id="9053" value="0" name="mixToMono"/>
            </Attributes>
            <MetaData>
             <entry key="WinSubProjectDisplayName" val=""/>
            </MetaData>
           </AMFile>
           <AMFile id="9054" start="6753" duration="117" scalar="1/1" mediaStart="7540/1" mediaDuration="117/1" trackNumber="0" src="29" channelNumber="0" >
            <Parameters>
             <InterpolatingParam id="9055" interp="linr"  time="0/1" value="1" leadInLength="0/1"  name="volume"/>
             <Parameter id="9056"  name="captions"/>
            </Parameters>
            <Attributes>
             <Attribute id="9057" value="" name="ident"/>
             <Attribute id="9058" value="48000" name="sampleRate"/>
             <Attribute id="9059" value="16" name="bitDepth"/>
             <Attribute id="9060" value="1" name="gain"/>
             <Attribute id="9061" value="0" name="mixToMono"/>
            </Attributes>
            <MetaData>
             <entry key="WinSubProjectDisplayName" val=""/>
            </MetaData>
           </AMFile>
           <AMFile id="9062" start="6870" duration="52" scalar="1/1" mediaStart="7796/1" mediaDuration="52/1" trackNumber="0" src="29" channelNumber="0" >
            <Parameters>
             <InterpolatingParam id="9063" interp="linr"  time="0/1" value="1" leadInLength="0/1"  name="volume"/>
             <Parameter id="9064"  name="captions"/>
            </Parameters>
            <Attributes>
             <Attribute id="9065" value="" name="ident"/>
             <Attribute id="9066" value="48000" name="sampleRate"/>
             <Attribute id="9067" value="16" name="bitDepth"/>
             <Attribute id="9068" value="1" name="gain"/>
             <Attribute id="9069" value="0" name="mixToMono"/>
            </Attributes>
            <MetaData>
             <entry key="WinSubProjectDisplayName" val=""/>
            </MetaData>
           </AMFile>
           <AMFile id="9070" start="6922" duration="100" scalar="1/1" mediaStart="8187/1" mediaDuration="100/1" trackNumber="0" src="29" channelNumber="0" >
            <Parameters>
             <InterpolatingParam id="9071" interp="linr"  time="0/1" value="1" leadInLength="0/1"  name="volume"/>
             <Parameter id="9072"  name="captions"/>
            </Parameters>
            <Attributes>
             <Attribute id="9073" value="" name="ident"/>
             <Attribute id="9074" value="48000" name="sampleRate"/>
             <Attribute id="9075" value="16" name="bitDepth"/>
             <Attribute id="9076" value="1" name="gain"/>
             <Attribute id="9077" value="0" name="mixToMono"/>
            </Attributes>
            <MetaData>
             <entry key="WinSubProjectDisplayName" val=""/>
            </MetaData>
           </AMFile>
           <AMFile id="9078" start="7022" duration="362" scalar="1/1" mediaStart="8303/1" mediaDuration="362/1" trackNumber="0" src="29" channelNumber="0" >
            <Parameters>
             <InterpolatingParam id="9079" interp="linr"  time="0/1" value="1" leadInLength="0/1"  name="volume"/>
             <Parameter id="9080"  name="captions"/>
            </Parameters>
            <Attributes>
             <Attribute id="9081" value="" name="ident"/>
             <Attribute id="9082" value="48000" name="sampleRate"/>
             <Attribute id="9083" value="16" name="bitDepth"/>
             <Attribute id="9084" value="1" name="gain"/>
             <Attribute id="9085" value="0" name="mixToMono"/>
            </Attributes>
            <MetaData>
             <entry key="WinSubProjectDisplayName" val=""/>
            </MetaData>
           </AMFile>
           <AMFile id="9086" start="7384" duration="4973" scalar="1/1" mediaStart="8673/1" mediaDuration="4973/1" trackNumber="0" src="29" channelNumber="0" >
            <Parameters>
             <InterpolatingParam id="9087" interp="linr"  time="0/1" value="1" leadInLength="0/1"  name="volume"/>
             <Parameter id="9088"  name="captions"/>
            </Parameters>
            <Attributes>
             <Attribute id="9089" value="" name="ident"/>
             <Attribute id="9090" value="48000" name="sampleRate"/>
             <Attribute id="9091" value="16" name="bitDepth"/>
             <Attribute id="9092" value="1" name="gain"/>
             <Attribute id="9093" value="0" name="mixToMono"/>
            </Attributes>
            <MetaData>
             <entry key="WinSubProjectDisplayName" val=""/>
            </MetaData>
           </AMFile>
          </Medias>
         </GenericTrack>
        </StitchedMedia>
        <AMFile id="9094" start="6370" duration="146" scalar="1/1" mediaStart="8769/1" mediaDuration="146/1" trackNumber="0" src="29" channelNumber="0" >
         <Parameters>
          <InterpolatingParam id="9095" interp="linr"  name="volume">
           <Keyframes>
           <Keyframe id="9096"  time="0/1" value="1.5625" leadInLength="0/1"  />
           <Keyframe id="9097"  time="8769/1" value="1.5625" leadInLength="0/1"  />
           </Keyframes>
          </InterpolatingParam>
          <Parameter id="9098"  name="captions"/>
         </Parameters>
         <Effects>
          <GenericEffect id="9099" name = "WinCompression" >
           <Parameters>
           <InterpolatingParam id="9100" interp="linr"  time="0/1" value="0" leadInLength="0/1"   name="attack"/>
           <InterpolatingParam id="9101" interp="linr"  time="0/1" value="9" leadInLength="0/1"   name="gain"/>
           <Parameter id="9102"   name="preset">
            <Keyframes>
            <Keyframe id="9103"  time="0/1" value="1" leadInLength="0/1"  />
            </Keyframes>
           </Parameter>
           <InterpolatingParam id="9104" interp="linr"  time="0/1" value="10" leadInLength="0/1"   name="ratio"/>
           <InterpolatingParam id="9105" interp="linr"  time="0/1" value="3500" leadInLength="0/1"   name="release"/>
           <InterpolatingParam id="9106" interp="linr"  time="0/1" value="-20" leadInLength="0/1"   name="threshold"/>
           </Parameters>
          </GenericEffect>
          <GenericEffect id="9107" name = "NoiseReduction" >
           <Parameters>
           <InterpolatingParam id="9108" interp="linr"  time="0/1" value="20" leadInLength="0/1"   name="denoiserAmount"/>
           <InterpolatingParam id="9109" interp="linr"  time="0/1" value="0" leadInLength="0/1"   name="denoiserThreshold"/>
           <Parameter id="9110"   name="noiseProfile">
            <Keyframes>
            <Keyframe id="9111"  time="0/1" value="FBAAAAIAAABErAAAAQIAAIA/l8JLuYTCrOB9wgsMfMJoG4LCaWeFwkohjMJdoYvCYv6LwlnvjcKf&#xD;&#xa;nYzChXWPwlcejsL6fo/C5OmQwgVTj8IVMI/COiWRwoWFkcJ2tYzC8I6MwuQbjcJvEo/ClwGRwheQ&#xD;&#xa;lsK8+pbCN5qVwlielcJ905rCmu+fwst0ncIC/JvCdIWdws3snsKxC5zCfh2cwniFnMJRypzCtRag&#xD;&#xa;wuoCosJQt6DCzoegwhY9ocIWN6PCsNqkwrSlpMJ6maTCYpCkwmLvo8Li+KPCyEamwnBNqMLMcqrC&#xD;&#xa;v2GswoS+q8Kk86vCVACuwnvUr8JxZa/CqHqswrdXq8LqT6zCZsuswhZxrMLBX67CnmqvwpYyrsKc&#xD;&#xa;pq3CJFGvwghrsMK3y6/CXoCtwmWZr8ICi7DCgRezwogSs8Joq7LCm0Sxwuz/scIfibTCOOK1wlIM&#xD;&#xa;t8K87LfCj3K3wqDYs8KT1bLCVsW0wnZ0tcJGhLXCfPe0ws/ntcLGXrbCzAG1wtXdtcKxxrTC1Ay1&#xD;&#xa;wquGtcLjELbC8Zi2wl7rtsJBYbbCMF+1wrEutMKuibTCSFa1wpvktMIu3rTCtGe4wjaduMIKErfC&#xD;&#xa;SLa1wvS/tsJmZrjCdn63whjft8Ie47rCfdi5wmjpt8KKCLjCXmC5wsOQt8JDGbfCK4m4wmpvuMLL&#xD;&#xa;nLjC80q4wjUVusKunLjC1Be5wg4cuMLxCbjCwfW4wmi7ucIOdbvCbLG6whqdusKYErrCbpC4wmq0&#xD;&#xa;ucIoWrvCaNe6ws4iu8LSc7zCUNa7wuJZvMIwLL3CWe28wps2v8J2l77Cv3W+wvgavsKAwrzCQCy8&#xD;&#xa;wgBRu8Km8brChSa6wuM4u8IaaL3Cf5y9wg4hvMLur7vCIpO9wm0fvcIGNLzC7Le8wvKgvMKQrLzC&#xD;&#xa;p6+9wtYtvsJcxbzCQC29wjDqvcKeNbzCH2W8wpbZvsLCTL7CnjO+wuIsvsJs67vCwLq9wiKhvsLs&#xD;&#xa;o73C5Du9wqqhvcLwKr7C2kq/wqEMv8LVCb7Cpla+wsXpvMIs6bvC/fO8wueCvsIM4b3CxtC+wmTo&#xD;&#xa;vcI+arzCTNe8wiFNv8IvKL/Cpg+/woK1v8L4i7/CNv2+wmsVv8KWj77CVym+wnAlv8Joa8DCFDzA&#xD;&#xa;wiQYwcLSIcHCxILAwuxKvsJYm77CPoHAwiYPwcLuy77CcQa+wrB4vcKwYLzCxKW8worIvcIlzr/C&#xD;&#xa;OMC+wuRDvcJGZ7zCxFi9wuQzvMLPbbvCwIe+wm7bvcLm9L3COH6+wuuJvMK2B73CYb+9wqbxvMK/&#xD;&#xa;mL7CqIe9wvCavMKs7L3Ckau8wkpavMKt9LzCF8S+wmgKvsKCy73ClrG+wmIovcIns73Cmg+/wgw7&#xD;&#xa;wMI607/CpEq/wmwVvcJLsLvCMD68wuxdvcIeI7/C+bS+wpxfvsJyxsDC1tO/wmtrv8LNnb/CQiK+&#xD;&#xa;wlz7vcLa6L/CUMXBwtrQwcIAw8HCNJHBwvphwMKqc7/CSkW/wjkvwMK8ccHCHmDBwlKAwcKu+MDC&#xD;&#xa;zErCwuqgwsLa+MLC753DwmjuxcLEWMfCkePFwo47xsKnX8XC7tTCwuf3wsL+HcLCTcTBwmg6w8Is&#xD;&#xa;RMPC+qjDwiyGxMLi58TCnWvFwpjsxsKzCMbCyCTDwpM2wcJWGMPCvuDFwh42xsIfyMTCeLTFwuH7&#xD;&#xa;xMJctcfCVv3HwpTGx8J8b8jCqhjHwrgkx8LXNsfCZkLGwnxSxcL8csXCbu7FwsaQyMLa68fCo0XH&#xD;&#xa;woruxMJGHsbCORbJwry2yMLIUsfCxlfGwmLoxcLSPMnCYPDJwkw3yMKc7crC8vDLwug2y8Lu28vC&#xD;&#xa;OKvMwvLpysKGj8rCtNXLwrMay8KdGMrCUr3JwgIVy8J64MvCkbTJwjh4x8JGI8bCvBXHwnoPycKN&#xD;&#xa;Ss3CuC/Nwuywy8IkJ8zCx9/KwnB5ycKnk8nCenLJwnN6ycKc+sjCLFzJwuTrzMJkJM/CY5vOwoYO&#xD;&#xa;zsLU987CVKfNwiZZzcJQxNDCICHVwi0d18Kc29jCIF/YwtKo2MKeBNvCwpTawmY/2sJXPdvCZZXY&#xD;&#xa;whB818IQNdjCDF3XwtWC1sIGF9fCfFfXwkBy2MJ6+9nC1hfZwi5k2cJlfNjCnEPYwm/N1cKGOdXC&#xD;&#xa;Yk/XwgXL2MJSytfCgpTWwqTT1sJOGtnCrF/ZwtcT2cK08NjCscHZwpQ72sLJ/NrCy3zYwmCk18LE&#xD;&#xa;O9fC6hbYwtYU2cJN/dnC1EbZwrw/2cIqyNbCDr7Xwvb02cLQ+dnCaJvXwuYO18KSodnC1NnawtJJ&#xD;&#xa;18ISLtjC90nawoel2cIwl9jCi0XZwih328Ks7NjC5KzZwqui2cJw0tjCukLYws+O2MJaqtrCUuXa&#xD;&#xa;wviX2MIKxtfCnqXXwhjI2MJwAtvCIFvcwgCL2cJ0/djCdyXawh9H2cJ+ntfCy4TXwhqF2MJ68NnC&#xD;&#xa;CzvYwljT2cIkP9vCIs/bwjpB2sK2A9rCXt/awjZH2sIfltvCKWPcwjp53MKrGd3CaBPewj/03MJm&#xD;&#xa;U97CphfgwlJp3cKQpt3Crxjewm7d28Kq/9vCNNXcwqY728IUH9vCkirbwgIt28KK19zCjmzdwoBH&#xD;&#xa;3MIAUtvCUq3bwo8f28Ig09jCiyfZwhbx2sLWe9zCvgzbwmwI2sI2nNvC0lvdwg6128I8PNvCLufa&#xD;&#xa;wkyK28KkitzCJIDcwmAO28L0TNrCDHXawjla28IQkdzCoCDcwjRI3MJVUdvCtujZwnCs2sK8Yd3C&#xD;&#xa;iGbbwuSB2cImFNvCCI7rwoA/l8JLuYTCrOB9wgsMfMJoG4LCaWeFwkohjMJdoYvCYv6LwlnvjcKf&#xD;&#xa;nYzChXWPwlcejsL6fo/C5OmQwgVTj8IVMI/COiWRwoWFkcJ2tYzC8I6MwuQbjcJvEo/ClwGRwheQ&#xD;&#xa;lsK8+pbCN5qVwlielcJ905rCmu+fwst0ncIC/JvCdIWdws3snsKxC5zCfh2cwniFnMJRypzCtRag&#xD;&#xa;wuoCosJQt6DCzoegwhY9ocIWN6PCsNqkwrSlpMJ6maTCYpCkwmLvo8Li+KPCyEamwnBNqMLMcqrC&#xD;&#xa;v2GswoS+q8Kk86vCVACuwnvUr8JxZa/CqHqswrdXq8LqT6zCZsuswhZxrMLBX67CnmqvwpYyrsKc&#xD;&#xa;pq3CJFGvwghrsMK3y6/CXoCtwmWZr8ICi7DCgRezwogSs8Joq7LCm0Sxwuz/scIfibTCOOK1wlIM&#xD;&#xa;t8K87LfCj3K3wqDYs8KT1bLCVsW0wnZ0tcJGhLXCfPe0ws/ntcLGXrbCzAG1wtXdtcKxxrTC1Ay1&#xD;&#xa;wquGtcLjELbC8Zi2wl7rtsJBYbbCMF+1wrEutMKuibTCSFa1wpvktMIu3rTCtGe4wjaduMIKErfC&#xD;&#xa;SLa1wvS/tsJmZrjCdn63whjft8Ie47rCfdi5wmjpt8KKCLjCXmC5wsOQt8JDGbfCK4m4wmpvuMLL&#xD;&#xa;nLjC80q4wjUVusKunLjC1Be5wg4cuMLxCbjCwfW4wmi7ucIOdbvCbLG6whqdusKYErrCbpC4wmq0&#xD;&#xa;ucIoWrvCaNe6ws4iu8LSc7zCUNa7wuJZvMIwLL3CWe28wps2v8J2l77Cv3W+wvgavsKAwrzCQCy8&#xD;&#xa;wgBRu8Km8brChSa6wuM4u8IaaL3Cf5y9wg4hvMLur7vCIpO9wm0fvcIGNLzC7Le8wvKgvMKQrLzC&#xD;&#xa;p6+9wtYtvsJcxbzCQC29wjDqvcKeNbzCH2W8wpbZvsLCTL7CnjO+wuIsvsJs67vCwLq9wiKhvsLs&#xD;&#xa;o73C5Du9wqqhvcLwKr7C2kq/wqEMv8LVCb7Cpla+wsXpvMIs6bvC/fO8wueCvsIM4b3CxtC+wmTo&#xD;&#xa;vcI+arzCTNe8wiFNv8IvKL/Cpg+/woK1v8L4i7/CNv2+wmsVv8KWj77CVym+wnAlv8Joa8DCFDzA&#xD;&#xa;wiQYwcLSIcHCxILAwuxKvsJYm77CPoHAwiYPwcLuy77CcQa+wrB4vcKwYLzCxKW8worIvcIlzr/C&#xD;&#xa;OMC+wuRDvcJGZ7zCxFi9wuQzvMLPbbvCwIe+wm7bvcLm9L3COH6+wuuJvMK2B73CYb+9wqbxvMK/&#xD;&#xa;mL7CqIe9wvCavMKs7L3Ckau8wkpavMKt9LzCF8S+wmgKvsKCy73ClrG+wmIovcIns73Cmg+/wgw7&#xD;&#xa;wMI607/CpEq/wmwVvcJLsLvCMD68wuxdvcIeI7/C+bS+wpxfvsJyxsDC1tO/wmtrv8LNnb/CQiK+&#xD;&#xa;wlz7vcLa6L/CUMXBwtrQwcIAw8HCNJHBwvphwMKqc7/CSkW/wjkvwMK8ccHCHmDBwlKAwcKu+MDC&#xD;&#xa;zErCwuqgwsLa+MLC753DwmjuxcLEWMfCkePFwo47xsKnX8XC7tTCwuf3wsL+HcLCTcTBwmg6w8Is&#xD;&#xa;RMPC+qjDwiyGxMLi58TCnWvFwpjsxsKzCMbCyCTDwpM2wcJWGMPCvuDFwh42xsIfyMTCeLTFwuH7&#xD;&#xa;xMJctcfCVv3HwpTGx8J8b8jCqhjHwrgkx8LXNsfCZkLGwnxSxcL8csXCbu7FwsaQyMLa68fCo0XH&#xD;&#xa;woruxMJGHsbCORbJwry2yMLIUsfCxlfGwmLoxcLSPMnCYPDJwkw3yMKc7crC8vDLwug2y8Lu28vC&#xD;&#xa;OKvMwvLpysKGj8rCtNXLwrMay8KdGMrCUr3JwgIVy8J64MvCkbTJwjh4x8JGI8bCvBXHwnoPycKN&#xD;&#xa;Ss3CuC/Nwuywy8IkJ8zCx9/KwnB5ycKnk8nCenLJwnN6ycKc+sjCLFzJwuTrzMJkJM/CY5vOwoYO&#xD;&#xa;zsLU987CVKfNwiZZzcJQxNDCICHVwi0d18Kc29jCIF/YwtKo2MKeBNvCwpTawmY/2sJXPdvCZZXY&#xD;&#xa;whB818IQNdjCDF3XwtWC1sIGF9fCfFfXwkBy2MJ6+9nC1hfZwi5k2cJlfNjCnEPYwm/N1cKGOdXC&#xD;&#xa;Yk/XwgXL2MJSytfCgpTWwqTT1sJOGtnCrF/ZwtcT2cK08NjCscHZwpQ72sLJ/NrCy3zYwmCk18LE&#xD;&#xa;O9fC6hbYwtYU2cJN/dnC1EbZwrw/2cIqyNbCDr7Xwvb02cLQ+dnCaJvXwuYO18KSodnC1NnawtJJ&#xD;&#xa;18ISLtjC90nawoel2cIwl9jCi0XZwih328Ks7NjC5KzZwqui2cJw0tjCukLYws+O2MJaqtrCUuXa&#xD;&#xa;wviX2MIKxtfCnqXXwhjI2MJwAtvCIFvcwgCL2cJ0/djCdyXawh9H2cJ+ntfCy4TXwhqF2MJ68NnC&#xD;&#xa;CzvYwljT2cIkP9vCIs/bwjpB2sK2A9rCXt/awjZH2sIfltvCKWPcwjp53MKrGd3CaBPewj/03MJm&#xD;&#xa;U97CphfgwlJp3cKQpt3Crxjewm7d28Kq/9vCNNXcwqY728IUH9vCkirbwgIt28KK19zCjmzdwoBH&#xD;&#xa;3MIAUtvCUq3bwo8f28Ig09jCiyfZwhbx2sLWe9zCvgzbwmwI2sI2nNvC0lvdwg6128I8PNvCLufa&#xD;&#xa;wkyK28KkitzCJIDcwmAO28L0TNrCDHXawjla28IQkdzCoCDcwjRI3MJVUdvCtujZwnCs2sK8Yd3C&#xD;&#xa;iGbbwuSB2cImFNvCCI7r" leadInLength="0/1"  />
            </Keyframes>
           </Parameter>
           </Parameters>
          </GenericEffect>
          <GenericEffect id="9112" name = "Declipper" >
           <Parameters>
           <InterpolatingParam id="9113" interp="linr"  time="0/1" value="-1" leadInLength="0/1"   name="sensitivity"/>
           </Parameters>
          </GenericEffect>
          <GenericEffect id="9114" name = "Declicker" >
           <Parameters>
           <InterpolatingParam id="9115" interp="linr"  time="0/1" value="3" leadInLength="0/1"   name="sensitivity"/>
           </Parameters>
          </GenericEffect>
         </Effects>
         <Attributes>
          <Attribute id="9116" value="" name="ident"/>
          <Attribute id="9117" value="48000" name="sampleRate"/>
          <Attribute id="9118" value="16" name="bitDepth"/>
          <Attribute id="9119" value="1" name="gain"/>
          <Attribute id="9120" value="0" name="mixToMono"/>
         </Attributes>
         <MetaData>
          <entry key="WinSubProjectDisplayName" val=""/>
         </MetaData>
        </AMFile>
        <StitchedMedia id="9121" start="6550" duration="390" scalar="1/1" mediaStart="7849/1" mediaDuration="390/1" minMediaStart="0/1" >
         <Transformer>
          <VectorParam id="9122"  name="translation">
           <InterpolatingParam id="9123" interp="linr"  time="0/1" value="0" leadInLength="0/1"  />
           <InterpolatingParam id="9124" interp="linr"  time="0/1" value="0" leadInLength="0/1"  />
           <InterpolatingParam id="9125" interp="linr"  time="0/1" value="0" leadInLength="0/1"  />
          </VectorParam>
          <VectorParam id="9126"  name="rotation">
           <InterpolatingParam id="9127" interp="linr"  time="0/1" value="0" leadInLength="0/1"  />
           <InterpolatingParam id="9128" interp="linr"  time="0/1" value="0" leadInLength="0/1"  />
           <InterpolatingParam id="9129" interp="linr"  time="0/1" value="0" leadInLength="0/1"  />
          </VectorParam>
          <VectorParam id="9130"  name="shear">
           <InterpolatingParam id="9131" interp="linr"  time="0/1" value="0" leadInLength="0/1"  />
           <InterpolatingParam id="9132" interp="linr"  time="0/1" value="0" leadInLength="0/1"  />
           <InterpolatingParam id="9133" interp="linr"  time="0/1" value="0" leadInLength="0/1"  />
          </VectorParam>
          <VectorParam id="9134"  name="scale">
           <InterpolatingParam id="9135" interp="linr"  time="0/1" value="1" leadInLength="0/1"  />
           <InterpolatingParam id="9136" interp="linr"  time="0/1" value="1" leadInLength="0/1"  />
           <InterpolatingParam id="9137" interp="linr"  time="0/1" value="1" leadInLength="0/1"  />
          </VectorParam>
          <VectorParam id="9138"  name="anchor">
           <InterpolatingParam id="9139" interp="linr"  time="0/1" value="0" leadInLength="0/1"  />
           <InterpolatingParam id="9140" interp="linr"  time="0/1" value="0" leadInLength="0/1"  />
           <InterpolatingParam id="9141" interp="linr"  time="0/1" value="0" leadInLength="0/1"  />
          </VectorParam>
         </Transformer>
         <Parameters>
          <InterpolatingParam id="9142" interp="linr"  time="0/1" value="1" leadInLength="0/1"  name="cursorOpacity"/>
          <InterpolatingParam id="9143" interp="linr"  time="0/1" value="1" leadInLength="0/1"  name="cursorScale"/>
          <InterpolatingParam id="9144" interp="linr"  time="0/1" value="1.5625" leadInLength="0/1"  name="volume"/>
          <Parameter id="9145"  name="captions"/>
         </Parameters>
         <Effects>
          <GenericEffect id="9146" name = "WinCompression" >
           <Parameters>
           <InterpolatingParam id="9147" interp="linr"  time="0/1" value="0" leadInLength="0/1"   name="attack"/>
           <InterpolatingParam id="9148" interp="linr"  time="0/1" value="9" leadInLength="0/1"   name="gain"/>
           <Parameter id="9149"   name="preset">
            <Keyframes>
            <Keyframe id="9150"  time="0/1" value="1" leadInLength="0/1"  />
            </Keyframes>
           </Parameter>
           <InterpolatingParam id="9151" interp="linr"  time="0/1" value="10" leadInLength="0/1"   name="ratio"/>
           <InterpolatingParam id="9152" interp="linr"  time="0/1" value="3500" leadInLength="0/1"   name="release"/>
           <InterpolatingParam id="9153" interp="linr"  time="0/1" value="-20" leadInLength="0/1"   name="threshold"/>
           </Parameters>
          </GenericEffect>
          <GenericEffect id="9154" name = "NoiseReduction" >
           <Parameters>
           <InterpolatingParam id="9155" interp="linr"  time="0/1" value="20" leadInLength="0/1"   name="denoiserAmount"/>
           <InterpolatingParam id="9156" interp="linr"  time="0/1" value="0" leadInLength="0/1"   name="denoiserThreshold"/>
           <Parameter id="9157"   name="noiseProfile">
            <Keyframes>
            <Keyframe id="9158"  time="0/1" value="FBAAAAIAAABErAAAAQIAAIA/l8JLuYTCrOB9wgsMfMJoG4LCaWeFwkohjMJdoYvCYv6LwlnvjcKf&#xD;&#xa;nYzChXWPwlcejsL6fo/C5OmQwgVTj8IVMI/COiWRwoWFkcJ2tYzC8I6MwuQbjcJvEo/ClwGRwheQ&#xD;&#xa;lsK8+pbCN5qVwlielcJ905rCmu+fwst0ncIC/JvCdIWdws3snsKxC5zCfh2cwniFnMJRypzCtRag&#xD;&#xa;wuoCosJQt6DCzoegwhY9ocIWN6PCsNqkwrSlpMJ6maTCYpCkwmLvo8Li+KPCyEamwnBNqMLMcqrC&#xD;&#xa;v2GswoS+q8Kk86vCVACuwnvUr8JxZa/CqHqswrdXq8LqT6zCZsuswhZxrMLBX67CnmqvwpYyrsKc&#xD;&#xa;pq3CJFGvwghrsMK3y6/CXoCtwmWZr8ICi7DCgRezwogSs8Joq7LCm0Sxwuz/scIfibTCOOK1wlIM&#xD;&#xa;t8K87LfCj3K3wqDYs8KT1bLCVsW0wnZ0tcJGhLXCfPe0ws/ntcLGXrbCzAG1wtXdtcKxxrTC1Ay1&#xD;&#xa;wquGtcLjELbC8Zi2wl7rtsJBYbbCMF+1wrEutMKuibTCSFa1wpvktMIu3rTCtGe4wjaduMIKErfC&#xD;&#xa;SLa1wvS/tsJmZrjCdn63whjft8Ie47rCfdi5wmjpt8KKCLjCXmC5wsOQt8JDGbfCK4m4wmpvuMLL&#xD;&#xa;nLjC80q4wjUVusKunLjC1Be5wg4cuMLxCbjCwfW4wmi7ucIOdbvCbLG6whqdusKYErrCbpC4wmq0&#xD;&#xa;ucIoWrvCaNe6ws4iu8LSc7zCUNa7wuJZvMIwLL3CWe28wps2v8J2l77Cv3W+wvgavsKAwrzCQCy8&#xD;&#xa;wgBRu8Km8brChSa6wuM4u8IaaL3Cf5y9wg4hvMLur7vCIpO9wm0fvcIGNLzC7Le8wvKgvMKQrLzC&#xD;&#xa;p6+9wtYtvsJcxbzCQC29wjDqvcKeNbzCH2W8wpbZvsLCTL7CnjO+wuIsvsJs67vCwLq9wiKhvsLs&#xD;&#xa;o73C5Du9wqqhvcLwKr7C2kq/wqEMv8LVCb7Cpla+wsXpvMIs6bvC/fO8wueCvsIM4b3CxtC+wmTo&#xD;&#xa;vcI+arzCTNe8wiFNv8IvKL/Cpg+/woK1v8L4i7/CNv2+wmsVv8KWj77CVym+wnAlv8Joa8DCFDzA&#xD;&#xa;wiQYwcLSIcHCxILAwuxKvsJYm77CPoHAwiYPwcLuy77CcQa+wrB4vcKwYLzCxKW8worIvcIlzr/C&#xD;&#xa;OMC+wuRDvcJGZ7zCxFi9wuQzvMLPbbvCwIe+wm7bvcLm9L3COH6+wuuJvMK2B73CYb+9wqbxvMK/&#xD;&#xa;mL7CqIe9wvCavMKs7L3Ckau8wkpavMKt9LzCF8S+wmgKvsKCy73ClrG+wmIovcIns73Cmg+/wgw7&#xD;&#xa;wMI607/CpEq/wmwVvcJLsLvCMD68wuxdvcIeI7/C+bS+wpxfvsJyxsDC1tO/wmtrv8LNnb/CQiK+&#xD;&#xa;wlz7vcLa6L/CUMXBwtrQwcIAw8HCNJHBwvphwMKqc7/CSkW/wjkvwMK8ccHCHmDBwlKAwcKu+MDC&#xD;&#xa;zErCwuqgwsLa+MLC753DwmjuxcLEWMfCkePFwo47xsKnX8XC7tTCwuf3wsL+HcLCTcTBwmg6w8Is&#xD;&#xa;RMPC+qjDwiyGxMLi58TCnWvFwpjsxsKzCMbCyCTDwpM2wcJWGMPCvuDFwh42xsIfyMTCeLTFwuH7&#xD;&#xa;xMJctcfCVv3HwpTGx8J8b8jCqhjHwrgkx8LXNsfCZkLGwnxSxcL8csXCbu7FwsaQyMLa68fCo0XH&#xD;&#xa;woruxMJGHsbCORbJwry2yMLIUsfCxlfGwmLoxcLSPMnCYPDJwkw3yMKc7crC8vDLwug2y8Lu28vC&#xD;&#xa;OKvMwvLpysKGj8rCtNXLwrMay8KdGMrCUr3JwgIVy8J64MvCkbTJwjh4x8JGI8bCvBXHwnoPycKN&#xD;&#xa;Ss3CuC/Nwuywy8IkJ8zCx9/KwnB5ycKnk8nCenLJwnN6ycKc+sjCLFzJwuTrzMJkJM/CY5vOwoYO&#xD;&#xa;zsLU987CVKfNwiZZzcJQxNDCICHVwi0d18Kc29jCIF/YwtKo2MKeBNvCwpTawmY/2sJXPdvCZZXY&#xD;&#xa;whB818IQNdjCDF3XwtWC1sIGF9fCfFfXwkBy2MJ6+9nC1hfZwi5k2cJlfNjCnEPYwm/N1cKGOdXC&#xD;&#xa;Yk/XwgXL2MJSytfCgpTWwqTT1sJOGtnCrF/ZwtcT2cK08NjCscHZwpQ72sLJ/NrCy3zYwmCk18LE&#xD;&#xa;O9fC6hbYwtYU2cJN/dnC1EbZwrw/2cIqyNbCDr7Xwvb02cLQ+dnCaJvXwuYO18KSodnC1NnawtJJ&#xD;&#xa;18ISLtjC90nawoel2cIwl9jCi0XZwih328Ks7NjC5KzZwqui2cJw0tjCukLYws+O2MJaqtrCUuXa&#xD;&#xa;wviX2MIKxtfCnqXXwhjI2MJwAtvCIFvcwgCL2cJ0/djCdyXawh9H2cJ+ntfCy4TXwhqF2MJ68NnC&#xD;&#xa;CzvYwljT2cIkP9vCIs/bwjpB2sK2A9rCXt/awjZH2sIfltvCKWPcwjp53MKrGd3CaBPewj/03MJm&#xD;&#xa;U97CphfgwlJp3cKQpt3Crxjewm7d28Kq/9vCNNXcwqY728IUH9vCkirbwgIt28KK19zCjmzdwoBH&#xD;&#xa;3MIAUtvCUq3bwo8f28Ig09jCiyfZwhbx2sLWe9zCvgzbwmwI2sI2nNvC0lvdwg6128I8PNvCLufa&#xD;&#xa;wkyK28KkitzCJIDcwmAO28L0TNrCDHXawjla28IQkdzCoCDcwjRI3MJVUdvCtujZwnCs2sK8Yd3C&#xD;&#xa;iGbbwuSB2cImFNvCCI7rwoA/l8JLuYTCrOB9wgsMfMJoG4LCaWeFwkohjMJdoYvCYv6LwlnvjcKf&#xD;&#xa;nYzChXWPwlcejsL6fo/C5OmQwgVTj8IVMI/COiWRwoWFkcJ2tYzC8I6MwuQbjcJvEo/ClwGRwheQ&#xD;&#xa;lsK8+pbCN5qVwlielcJ905rCmu+fwst0ncIC/JvCdIWdws3snsKxC5zCfh2cwniFnMJRypzCtRag&#xD;&#xa;wuoCosJQt6DCzoegwhY9ocIWN6PCsNqkwrSlpMJ6maTCYpCkwmLvo8Li+KPCyEamwnBNqMLMcqrC&#xD;&#xa;v2GswoS+q8Kk86vCVACuwnvUr8JxZa/CqHqswrdXq8LqT6zCZsuswhZxrMLBX67CnmqvwpYyrsKc&#xD;&#xa;pq3CJFGvwghrsMK3y6/CXoCtwmWZr8ICi7DCgRezwogSs8Joq7LCm0Sxwuz/scIfibTCOOK1wlIM&#xD;&#xa;t8K87LfCj3K3wqDYs8KT1bLCVsW0wnZ0tcJGhLXCfPe0ws/ntcLGXrbCzAG1wtXdtcKxxrTC1Ay1&#xD;&#xa;wquGtcLjELbC8Zi2wl7rtsJBYbbCMF+1wrEutMKuibTCSFa1wpvktMIu3rTCtGe4wjaduMIKErfC&#xD;&#xa;SLa1wvS/tsJmZrjCdn63whjft8Ie47rCfdi5wmjpt8KKCLjCXmC5wsOQt8JDGbfCK4m4wmpvuMLL&#xD;&#xa;nLjC80q4wjUVusKunLjC1Be5wg4cuMLxCbjCwfW4wmi7ucIOdbvCbLG6whqdusKYErrCbpC4wmq0&#xD;&#xa;ucIoWrvCaNe6ws4iu8LSc7zCUNa7wuJZvMIwLL3CWe28wps2v8J2l77Cv3W+wvgavsKAwrzCQCy8&#xD;&#xa;wgBRu8Km8brChSa6wuM4u8IaaL3Cf5y9wg4hvMLur7vCIpO9wm0fvcIGNLzC7Le8wvKgvMKQrLzC&#xD;&#xa;p6+9wtYtvsJcxbzCQC29wjDqvcKeNbzCH2W8wpbZvsLCTL7CnjO+wuIsvsJs67vCwLq9wiKhvsLs&#xD;&#xa;o73C5Du9wqqhvcLwKr7C2kq/wqEMv8LVCb7Cpla+wsXpvMIs6bvC/fO8wueCvsIM4b3CxtC+wmTo&#xD;&#xa;vcI+arzCTNe8wiFNv8IvKL/Cpg+/woK1v8L4i7/CNv2+wmsVv8KWj77CVym+wnAlv8Joa8DCFDzA&#xD;&#xa;wiQYwcLSIcHCxILAwuxKvsJYm77CPoHAwiYPwcLuy77CcQa+wrB4vcKwYLzCxKW8worIvcIlzr/C&#xD;&#xa;OMC+wuRDvcJGZ7zCxFi9wuQzvMLPbbvCwIe+wm7bvcLm9L3COH6+wuuJvMK2B73CYb+9wqbxvMK/&#xD;&#xa;mL7CqIe9wvCavMKs7L3Ckau8wkpavMKt9LzCF8S+wmgKvsKCy73ClrG+wmIovcIns73Cmg+/wgw7&#xD;&#xa;wMI607/CpEq/wmwVvcJLsLvCMD68wuxdvcIeI7/C+bS+wpxfvsJyxsDC1tO/wmtrv8LNnb/CQiK+&#xD;&#xa;wlz7vcLa6L/CUMXBwtrQwcIAw8HCNJHBwvphwMKqc7/CSkW/wjkvwMK8ccHCHmDBwlKAwcKu+MDC&#xD;&#xa;zErCwuqgwsLa+MLC753DwmjuxcLEWMfCkePFwo47xsKnX8XC7tTCwuf3wsL+HcLCTcTBwmg6w8Is&#xD;&#xa;RMPC+qjDwiyGxMLi58TCnWvFwpjsxsKzCMbCyCTDwpM2wcJWGMPCvuDFwh42xsIfyMTCeLTFwuH7&#xD;&#xa;xMJctcfCVv3HwpTGx8J8b8jCqhjHwrgkx8LXNsfCZkLGwnxSxcL8csXCbu7FwsaQyMLa68fCo0XH&#xD;&#xa;woruxMJGHsbCORbJwry2yMLIUsfCxlfGwmLoxcLSPMnCYPDJwkw3yMKc7crC8vDLwug2y8Lu28vC&#xD;&#xa;OKvMwvLpysKGj8rCtNXLwrMay8KdGMrCUr3JwgIVy8J64MvCkbTJwjh4x8JGI8bCvBXHwnoPycKN&#xD;&#xa;Ss3CuC/Nwuywy8IkJ8zCx9/KwnB5ycKnk8nCenLJwnN6ycKc+sjCLFzJwuTrzMJkJM/CY5vOwoYO&#xD;&#xa;zsLU987CVKfNwiZZzcJQxNDCICHVwi0d18Kc29jCIF/YwtKo2MKeBNvCwpTawmY/2sJXPdvCZZXY&#xD;&#xa;whB818IQNdjCDF3XwtWC1sIGF9fCfFfXwkBy2MJ6+9nC1hfZwi5k2cJlfNjCnEPYwm/N1cKGOdXC&#xD;&#xa;Yk/XwgXL2MJSytfCgpTWwqTT1sJOGtnCrF/ZwtcT2cK08NjCscHZwpQ72sLJ/NrCy3zYwmCk18LE&#xD;&#xa;O9fC6hbYwtYU2cJN/dnC1EbZwrw/2cIqyNbCDr7Xwvb02cLQ+dnCaJvXwuYO18KSodnC1NnawtJJ&#xD;&#xa;18ISLtjC90nawoel2cIwl9jCi0XZwih328Ks7NjC5KzZwqui2cJw0tjCukLYws+O2MJaqtrCUuXa&#xD;&#xa;wviX2MIKxtfCnqXXwhjI2MJwAtvCIFvcwgCL2cJ0/djCdyXawh9H2cJ+ntfCy4TXwhqF2MJ68NnC&#xD;&#xa;CzvYwljT2cIkP9vCIs/bwjpB2sK2A9rCXt/awjZH2sIfltvCKWPcwjp53MKrGd3CaBPewj/03MJm&#xD;&#xa;U97CphfgwlJp3cKQpt3Crxjewm7d28Kq/9vCNNXcwqY728IUH9vCkirbwgIt28KK19zCjmzdwoBH&#xD;&#xa;3MIAUtvCUq3bwo8f28Ig09jCiyfZwhbx2sLWe9zCvgzbwmwI2sI2nNvC0lvdwg6128I8PNvCLufa&#xD;&#xa;wkyK28KkitzCJIDcwmAO28L0TNrCDHXawjla28IQkdzCoCDcwjRI3MJVUdvCtujZwnCs2sK8Yd3C&#xD;&#xa;iGbbwuSB2cImFNvCCI7r" leadInLength="0/1"  />
            </Keyframes>
           </Parameter>
           </Parameters>
          </GenericEffect>
          <GenericEffect id="9159" name = "Declipper" >
           <Parameters>
           <InterpolatingParam id="9160" interp="linr"  time="0/1" value="-1" leadInLength="0/1"   name="sensitivity"/>
           </Parameters>
          </GenericEffect>
          <GenericEffect id="9161" name = "Declicker" >
           <Parameters>
           <InterpolatingParam id="9162" interp="linr"  time="0/1" value="3" leadInLength="0/1"   name="sensitivity"/>
           </Parameters>
          </GenericEffect>
         </Effects>
         <Attributes>
          <Attribute id="9163" value="" name="ident"/>
          <Attribute id="9164" value="0" name="mixToMono"/>
         </Attributes>
         <MetaData>
          <entry key="WinSubProjectDisplayName" val=""/>
         </MetaData>
         <ExtraData>
          <Entry key="ZoomPanBin">
           <ZoomPanBin id="9165"  >
            <ZoomPanKeyframes>
            </ZoomPanKeyframes>
           </ZoomPanBin>
          </Entry>
          <Entry key="CursorEffectBin">
           <CursorEffectBin id="9166"  >
            <CursorEffectKeyframes>
            </CursorEffectKeyframes>
           </CursorEffectBin>
          </Entry>
         </ExtraData>
         <GenericTrack id="9167"  >
          <Attributes>
           <Attribute id="9168" value="" name="ident"/>
           <Attribute id="9169" value="0" name="audioMuted"/>
           <Attribute id="9170" value="0" name="videoHidden"/>
          </Attributes>
          <MetaData>
           <entry key="IsLocked" val="False"/>
           <entry key="WinTrackHeight" val="0"/>
          </MetaData>
          <Medias>
           <AMFile id="9171" start="0" duration="117" scalar="1/1" mediaStart="0/1" mediaDuration="117/1" trackNumber="0" src="29" channelNumber="0" >
            <Parameters>
             <InterpolatingParam id="9172" interp="linr"  time="0/1" value="1" leadInLength="0/1"  name="volume"/>
             <Parameter id="9173"  name="captions"/>
            </Parameters>
            <Attributes>
             <Attribute id="9174" value="" name="ident"/>
             <Attribute id="9175" value="48000" name="sampleRate"/>
             <Attribute id="9176" value="16" name="bitDepth"/>
             <Attribute id="9177" value="1" name="gain"/>
             <Attribute id="9178" value="0" name="mixToMono"/>
            </Attributes>
            <MetaData>
             <entry key="WinSubProjectDisplayName" val=""/>
            </MetaData>
           </AMFile>
           <AMFile id="9179" start="117" duration="272" scalar="1/1" mediaStart="131/1" mediaDuration="272/1" trackNumber="0" src="29" channelNumber="0" >
            <Parameters>
             <InterpolatingParam id="9180" interp="linr"  time="0/1" value="1" leadInLength="0/1"  name="volume"/>
             <Parameter id="9181"  name="captions"/>
            </Parameters>
            <Attributes>
             <Attribute id="9182" value="" name="ident"/>
             <Attribute id="9183" value="48000" name="sampleRate"/>
             <Attribute id="9184" value="16" name="bitDepth"/>
             <Attribute id="9185" value="1" name="gain"/>
             <Attribute id="9186" value="0" name="mixToMono"/>
            </Attributes>
            <MetaData>
             <entry key="WinSubProjectDisplayName" val=""/>
            </MetaData>
           </AMFile>
           <AMFile id="9187" start="389" duration="1309" scalar="1/1" mediaStart="415/1" mediaDuration="1309/1" trackNumber="0" src="29" channelNumber="0" >
            <Parameters>
             <InterpolatingParam id="9188" interp="linr"  time="0/1" value="1" leadInLength="0/1"  name="volume"/>
             <Parameter id="9189"  name="captions"/>
            </Parameters>
            <Attributes>
             <Attribute id="9190" value="" name="ident"/>
             <Attribute id="9191" value="48000" name="sampleRate"/>
             <Attribute id="9192" value="16" name="bitDepth"/>
             <Attribute id="9193" value="1" name="gain"/>
             <Attribute id="9194" value="0" name="mixToMono"/>
            </Attributes>
            <MetaData>
             <entry key="WinSubProjectDisplayName" val=""/>
            </MetaData>
           </AMFile>
           <AMFile id="9195" start="1698" duration="103" scalar="1/1" mediaStart="1734/1" mediaDuration="103/1" trackNumber="0" src="29" channelNumber="0" >
            <Parameters>
             <InterpolatingParam id="9196" interp="linr"  time="0/1" value="1" leadInLength="0/1"  name="volume"/>
             <Parameter id="9197"  name="captions"/>
            </Parameters>
            <Attributes>
             <Attribute id="9198" value="" name="ident"/>
             <Attribute id="9199" value="48000" name="sampleRate"/>
             <Attribute id="9200" value="16" name="bitDepth"/>
             <Attribute id="9201" value="1" name="gain"/>
             <Attribute id="9202" value="0" name="mixToMono"/>
            </Attributes>
            <MetaData>
             <entry key="WinSubProjectDisplayName" val=""/>
            </MetaData>
           </AMFile>
           <AMFile id="9203" start="1801" duration="245" scalar="1/1" mediaStart="2164/1" mediaDuration="245/1" trackNumber="0" src="29" channelNumber="0" >
            <Parameters>
             <InterpolatingParam id="9204" interp="linr"  time="0/1" value="1" leadInLength="0/1"  name="volume"/>
             <Parameter id="9205"  name="captions"/>
            </Parameters>
            <Attributes>
             <Attribute id="9206" value="" name="ident"/>
             <Attribute id="9207" value="48000" name="sampleRate"/>
             <Attribute id="9208" value="16" name="bitDepth"/>
             <Attribute id="9209" value="1" name="gain"/>
             <Attribute id="9210" value="0" name="mixToMono"/>
            </Attributes>
            <MetaData>
             <entry key="WinSubProjectDisplayName" val=""/>
            </MetaData>
           </AMFile>
           <AMFile id="9211" start="2046" duration="202" scalar="1/1" mediaStart="2637/1" mediaDuration="202/1" trackNumber="0" src="29" channelNumber="0" >
            <Parameters>
             <InterpolatingParam id="9212" interp="linr"  time="0/1" value="1" leadInLength="0/1"  name="volume"/>
             <Parameter id="9213"  name="captions"/>
            </Parameters>
            <Attributes>
             <Attribute id="9214" value="" name="ident"/>
             <Attribute id="9215" value="48000" name="sampleRate"/>
             <Attribute id="9216" value="16" name="bitDepth"/>
             <Attribute id="9217" value="1" name="gain"/>
             <Attribute id="9218" value="0" name="mixToMono"/>
            </Attributes>
            <MetaData>
             <entry key="WinSubProjectDisplayName" val=""/>
            </MetaData>
           </AMFile>
           <AMFile id="9219" start="2248" duration="185" scalar="1/1" mediaStart="2856/1" mediaDuration="185/1" trackNumber="0" src="29" channelNumber="0" >
            <Parameters>
             <InterpolatingParam id="9220" interp="linr"  time="0/1" value="1" leadInLength="0/1"  name="volume"/>
             <Parameter id="9221"  name="captions"/>
            </Parameters>
            <Attributes>
             <Attribute id="9222" value="" name="ident"/>
             <Attribute id="9223" value="48000" name="sampleRate"/>
             <Attribute id="9224" value="16" name="bitDepth"/>
             <Attribute id="9225" value="1" name="gain"/>
             <Attribute id="9226" value="0" name="mixToMono"/>
            </Attributes>
            <MetaData>
             <entry key="WinSubProjectDisplayName" val=""/>
            </MetaData>
           </AMFile>
           <AMFile id="9227" start="2433" duration="215" scalar="1/1" mediaStart="3054/1" mediaDuration="215/1" trackNumber="0" src="29" channelNumber="0" >
            <Parameters>
             <InterpolatingParam id="9228" interp="linr"  time="0/1" value="1" leadInLength="0/1"  name="volume"/>
             <Parameter id="9229"  name="captions"/>
            </Parameters>
            <Attributes>
             <Attribute id="9230" value="" name="ident"/>
             <Attribute id="9231" value="48000" name="sampleRate"/>
             <Attribute id="9232" value="16" name="bitDepth"/>
             <Attribute id="9233" value="1" name="gain"/>
             <Attribute id="9234" value="0" name="mixToMono"/>
            </Attributes>
            <MetaData>
             <entry key="WinSubProjectDisplayName" val=""/>
            </MetaData>
           </AMFile>
           <AMFile id="9235" start="2648" duration="155" scalar="1/1" mediaStart="3288/1" mediaDuration="155/1" trackNumber="0" src="29" channelNumber="0" >
            <Parameters>
             <InterpolatingParam id="9236" interp="linr"  time="0/1" value="1" leadInLength="0/1"  name="volume"/>
             <Parameter id="9237"  name="captions"/>
            </Parameters>
            <Attributes>
             <Attribute id="9238" value="" name="ident"/>
             <Attribute id="9239" value="48000" name="sampleRate"/>
             <Attribute id="9240" value="16" name="bitDepth"/>
             <Attribute id="9241" value="1" name="gain"/>
             <Attribute id="9242" value="0" name="mixToMono"/>
            </Attributes>
            <MetaData>
             <entry key="WinSubProjectDisplayName" val=""/>
            </MetaData>
           </AMFile>
           <AMFile id="9243" start="2803" duration="103" scalar="1/1" mediaStart="3450/1" mediaDuration="103/1" trackNumber="0" src="29" channelNumber="0" >
            <Parameters>
             <InterpolatingParam id="9244" interp="linr"  time="0/1" value="1" leadInLength="0/1"  name="volume"/>
             <Parameter id="9245"  name="captions"/>
            </Parameters>
            <Attributes>
             <Attribute id="9246" value="" name="ident"/>
             <Attribute id="9247" value="48000" name="sampleRate"/>
             <Attribute id="9248" value="16" name="bitDepth"/>
             <Attribute id="9249" value="1" name="gain"/>
             <Attribute id="9250" value="0" name="mixToMono"/>
            </Attributes>
            <MetaData>
             <entry key="WinSubProjectDisplayName" val=""/>
            </MetaData>
           </AMFile>
           <AMFile id="9251" start="2906" duration="2683" scalar="1/1" mediaStart="3564/1" mediaDuration="2683/1" trackNumber="0" src="29" channelNumber="0" >
            <Parameters>
             <InterpolatingParam id="9252" interp="linr"  time="0/1" value="1" leadInLength="0/1"  name="volume"/>
             <Parameter id="9253"  name="captions"/>
            </Parameters>
            <Attributes>
             <Attribute id="9254" value="" name="ident"/>
             <Attribute id="9255" value="48000" name="sampleRate"/>
             <Attribute id="9256" value="16" name="bitDepth"/>
             <Attribute id="9257" value="1" name="gain"/>
             <Attribute id="9258" value="0" name="mixToMono"/>
            </Attributes>
            <MetaData>
             <entry key="WinSubProjectDisplayName" val=""/>
            </MetaData>
           </AMFile>
           <AMFile id="9259" start="5589" duration="143" scalar="1/1" mediaStart="6247/1" mediaDuration="143/1" trackNumber="0" src="29" channelNumber="0" >
            <Parameters>
             <InterpolatingParam id="9260" interp="linr"  time="0/1" value="1" leadInLength="0/1"  name="volume"/>
             <Parameter id="9261"  name="captions"/>
            </Parameters>
            <Attributes>
             <Attribute id="9262" value="" name="ident"/>
             <Attribute id="9263" value="48000" name="sampleRate"/>
             <Attribute id="9264" value="16" name="bitDepth"/>
             <Attribute id="9265" value="1" name="gain"/>
             <Attribute id="9266" value="0" name="mixToMono"/>
            </Attributes>
            <MetaData>
             <entry key="WinSubProjectDisplayName" val=""/>
            </MetaData>
           </AMFile>
           <AMFile id="9267" start="5732" duration="285" scalar="1/1" mediaStart="6413/1" mediaDuration="285/1" trackNumber="0" src="29" channelNumber="0" >
            <Parameters>
             <InterpolatingParam id="9268" interp="linr"  time="0/1" value="1" leadInLength="0/1"  name="volume"/>
             <Parameter id="9269"  name="captions"/>
            </Parameters>
            <Attributes>
             <Attribute id="9270" value="" name="ident"/>
             <Attribute id="9271" value="48000" name="sampleRate"/>
             <Attribute id="9272" value="16" name="bitDepth"/>
             <Attribute id="9273" value="1" name="gain"/>
             <Attribute id="9274" value="0" name="mixToMono"/>
            </Attributes>
            <MetaData>
             <entry key="WinSubProjectDisplayName" val=""/>
            </MetaData>
           </AMFile>
           <AMFile id="9275" start="6017" duration="102" scalar="1/1" mediaStart="6729/1" mediaDuration="102/1" trackNumber="0" src="29" channelNumber="0" >
            <Parameters>
             <InterpolatingParam id="9276" interp="linr"  time="0/1" value="1" leadInLength="0/1"  name="volume"/>
             <Parameter id="9277"  name="captions"/>
            </Parameters>
            <Attributes>
             <Attribute id="9278" value="" name="ident"/>
             <Attribute id="9279" value="48000" name="sampleRate"/>
             <Attribute id="9280" value="16" name="bitDepth"/>
             <Attribute id="9281" value="1" name="gain"/>
             <Attribute id="9282" value="0" name="mixToMono"/>
            </Attributes>
            <MetaData>
             <entry key="WinSubProjectDisplayName" val=""/>
            </MetaData>
           </AMFile>
           <AMFile id="9283" start="6119" duration="234" scalar="1/1" mediaStart="6848/1" mediaDuration="234/1" trackNumber="0" src="29" channelNumber="0" >
            <Parameters>
             <InterpolatingParam id="9284" interp="linr"  time="0/1" value="1" leadInLength="0/1"  name="volume"/>
             <Parameter id="9285"  name="captions"/>
            </Parameters>
            <Attributes>
             <Attribute id="9286" value="" name="ident"/>
             <Attribute id="9287" value="48000" name="sampleRate"/>
             <Attribute id="9288" value="16" name="bitDepth"/>
             <Attribute id="9289" value="1" name="gain"/>
             <Attribute id="9290" value="0" name="mixToMono"/>
            </Attributes>
            <MetaData>
             <entry key="WinSubProjectDisplayName" val=""/>
            </MetaData>
           </AMFile>
           <AMFile id="9291" start="6353" duration="107" scalar="1/1" mediaStart="7089/1" mediaDuration="107/1" trackNumber="0" src="29" channelNumber="0" >
            <Parameters>
             <InterpolatingParam id="9292" interp="linr"  time="0/1" value="1" leadInLength="0/1"  name="volume"/>
             <Parameter id="9293"  name="captions"/>
            </Parameters>
            <Attributes>
             <Attribute id="9294" value="" name="ident"/>
             <Attribute id="9295" value="48000" name="sampleRate"/>
             <Attribute id="9296" value="16" name="bitDepth"/>
             <Attribute id="9297" value="1" name="gain"/>
             <Attribute id="9298" value="0" name="mixToMono"/>
            </Attributes>
            <MetaData>
             <entry key="WinSubProjectDisplayName" val=""/>
            </MetaData>
           </AMFile>
           <AMFile id="9299" start="6460" duration="67" scalar="1/1" mediaStart="7207/1" mediaDuration="67/1" trackNumber="0" src="29" channelNumber="0" >
            <Parameters>
             <InterpolatingParam id="9300" interp="linr"  time="0/1" value="1" leadInLength="0/1"  name="volume"/>
             <Parameter id="9301"  name="captions"/>
            </Parameters>
            <Attributes>
             <Attribute id="9302" value="" name="ident"/>
             <Attribute id="9303" value="48000" name="sampleRate"/>
             <Attribute id="9304" value="16" name="bitDepth"/>
             <Attribute id="9305" value="1" name="gain"/>
             <Attribute id="9306" value="0" name="mixToMono"/>
            </Attributes>
            <MetaData>
             <entry key="WinSubProjectDisplayName" val=""/>
            </MetaData>
           </AMFile>
           <AMFile id="9307" start="6527" duration="226" scalar="1/1" mediaStart="7297/1" mediaDuration="226/1" trackNumber="0" src="29" channelNumber="0" >
            <Parameters>
             <InterpolatingParam id="9308" interp="linr"  time="0/1" value="1" leadInLength="0/1"  name="volume"/>
             <Parameter id="9309"  name="captions"/>
            </Parameters>
            <Attributes>
             <Attribute id="9310" value="" name="ident"/>
             <Attribute id="9311" value="48000" name="sampleRate"/>
             <Attribute id="9312" value="16" name="bitDepth"/>
             <Attribute id="9313" value="1" name="gain"/>
             <Attribute id="9314" value="0" name="mixToMono"/>
            </Attributes>
            <MetaData>
             <entry key="WinSubProjectDisplayName" val=""/>
            </MetaData>
           </AMFile>
           <AMFile id="9315" start="6753" duration="117" scalar="1/1" mediaStart="7540/1" mediaDuration="117/1" trackNumber="0" src="29" channelNumber="0" >
            <Parameters>
             <InterpolatingParam id="9316" interp="linr"  time="0/1" value="1" leadInLength="0/1"  name="volume"/>
             <Parameter id="9317"  name="captions"/>
            </Parameters>
            <Attributes>
             <Attribute id="9318" value="" name="ident"/>
             <Attribute id="9319" value="48000" name="sampleRate"/>
             <Attribute id="9320" value="16" name="bitDepth"/>
             <Attribute id="9321" value="1" name="gain"/>
             <Attribute id="9322" value="0" name="mixToMono"/>
            </Attributes>
            <MetaData>
             <entry key="WinSubProjectDisplayName" val=""/>
            </MetaData>
           </AMFile>
           <AMFile id="9323" start="6870" duration="52" scalar="1/1" mediaStart="7796/1" mediaDuration="52/1" trackNumber="0" src="29" channelNumber="0" >
            <Parameters>
             <InterpolatingParam id="9324" interp="linr"  time="0/1" value="1" leadInLength="0/1"  name="volume"/>
             <Parameter id="9325"  name="captions"/>
            </Parameters>
            <Attributes>
             <Attribute id="9326" value="" name="ident"/>
             <Attribute id="9327" value="48000" name="sampleRate"/>
             <Attribute id="9328" value="16" name="bitDepth"/>
             <Attribute id="9329" value="1" name="gain"/>
             <Attribute id="9330" value="0" name="mixToMono"/>
            </Attributes>
            <MetaData>
             <entry key="WinSubProjectDisplayName" val=""/>
            </MetaData>
           </AMFile>
           <AMFile id="9331" start="6922" duration="100" scalar="1/1" mediaStart="8187/1" mediaDuration="100/1" trackNumber="0" src="29" channelNumber="0" >
            <Parameters>
             <InterpolatingParam id="9332" interp="linr"  time="0/1" value="1" leadInLength="0/1"  name="volume"/>
             <Parameter id="9333"  name="captions"/>
            </Parameters>
            <Attributes>
             <Attribute id="9334" value="" name="ident"/>
             <Attribute id="9335" value="48000" name="sampleRate"/>
             <Attribute id="9336" value="16" name="bitDepth"/>
             <Attribute id="9337" value="1" name="gain"/>
             <Attribute id="9338" value="0" name="mixToMono"/>
            </Attributes>
            <MetaData>
             <entry key="WinSubProjectDisplayName" val=""/>
            </MetaData>
           </AMFile>
           <AMFile id="9339" start="7022" duration="1377" scalar="1/1" mediaStart="8303/1" mediaDuration="1377/1" trackNumber="0" src="29" channelNumber="0" >
            <Parameters>
             <InterpolatingParam id="9340" interp="linr"  time="0/1" value="1" leadInLength="0/1"  name="volume"/>
             <Parameter id="9341"  name="captions"/>
            </Parameters>
            <Attributes>
             <Attribute id="9342" value="" name="ident"/>
             <Attribute id="9343" value="48000" name="sampleRate"/>
             <Attribute id="9344" value="16" name="bitDepth"/>
             <Attribute id="9345" value="1" name="gain"/>
             <Attribute id="9346" value="0" name="mixToMono"/>
            </Attributes>
            <MetaData>
             <entry key="WinSubProjectDisplayName" val=""/>
            </MetaData>
           </AMFile>
           <AMFile id="9347" start="8399" duration="3717" scalar="1/1" mediaStart="9929/1" mediaDuration="3717/1" trackNumber="0" src="29" channelNumber="0" >
            <Parameters>
             <InterpolatingParam id="9348" interp="linr"  time="0/1" value="1" leadInLength="0/1"  name="volume"/>
             <Parameter id="9349"  name="captions"/>
            </Parameters>
            <Attributes>
             <Attribute id="9350" value="" name="ident"/>
             <Attribute id="9351" value="48000" name="sampleRate"/>
             <Attribute id="9352" value="16" name="bitDepth"/>
             <Attribute id="9353" value="1" name="gain"/>
             <Attribute id="9354" value="0" name="mixToMono"/>
            </Attributes>
            <MetaData>
             <entry key="WinSubProjectDisplayName" val=""/>
            </MetaData>
           </AMFile>
          </Medias>
         </GenericTrack>
        </StitchedMedia>
        <StitchedMedia id="9355" start="6953" duration="398" scalar="1/1" mediaStart="8266/1" mediaDuration="398/1" minMediaStart="0/1" >
         <Transformer>
          <VectorParam id="9356"  name="translation">
           <InterpolatingParam id="9357" interp="linr"  time="0/1" value="0" leadInLength="0/1"  />
           <InterpolatingParam id="9358" interp="linr"  time="0/1" value="0" leadInLength="0/1"  />
           <InterpolatingParam id="9359" interp="linr"  time="0/1" value="0" leadInLength="0/1"  />
          </VectorParam>
          <VectorParam id="9360"  name="rotation">
           <InterpolatingParam id="9361" interp="linr"  time="0/1" value="0" leadInLength="0/1"  />
           <InterpolatingParam id="9362" interp="linr"  time="0/1" value="0" leadInLength="0/1"  />
           <InterpolatingParam id="9363" interp="linr"  time="0/1" value="0" leadInLength="0/1"  />
          </VectorParam>
          <VectorParam id="9364"  name="shear">
           <InterpolatingParam id="9365" interp="linr"  time="0/1" value="0" leadInLength="0/1"  />
           <InterpolatingParam id="9366" interp="linr"  time="0/1" value="0" leadInLength="0/1"  />
           <InterpolatingParam id="9367" interp="linr"  time="0/1" value="0" leadInLength="0/1"  />
          </VectorParam>
          <VectorParam id="9368"  name="scale">
           <InterpolatingParam id="9369" interp="linr"  time="0/1" value="1" leadInLength="0/1"  />
           <InterpolatingParam id="9370" interp="linr"  time="0/1" value="1" leadInLength="0/1"  />
           <InterpolatingParam id="9371" interp="linr"  time="0/1" value="1" leadInLength="0/1"  />
          </VectorParam>
          <VectorParam id="9372"  name="anchor">
           <InterpolatingParam id="9373" interp="linr"  time="0/1" value="0" leadInLength="0/1"  />
           <InterpolatingParam id="9374" interp="linr"  time="0/1" value="0" leadInLength="0/1"  />
           <InterpolatingParam id="9375" interp="linr"  time="0/1" value="0" leadInLength="0/1"  />
          </VectorParam>
         </Transformer>
         <Parameters>
          <InterpolatingParam id="9376" interp="linr"  time="0/1" value="1" leadInLength="0/1"  name="cursorOpacity"/>
          <InterpolatingParam id="9377" interp="linr"  time="0/1" value="1" leadInLength="0/1"  name="cursorScale"/>
          <InterpolatingParam id="9378" interp="linr"  time="0/1" value="1.5625" leadInLength="0/1"  name="volume"/>
          <Parameter id="9379"  name="captions"/>
         </Parameters>
         <Effects>
          <GenericEffect id="9380" name = "WinCompression" >
           <Parameters>
           <InterpolatingParam id="9381" interp="linr"  time="0/1" value="0" leadInLength="0/1"   name="attack"/>
           <InterpolatingParam id="9382" interp="linr"  time="0/1" value="9" leadInLength="0/1"   name="gain"/>
           <Parameter id="9383"   name="preset">
            <Keyframes>
            <Keyframe id="9384"  time="0/1" value="1" leadInLength="0/1"  />
            </Keyframes>
           </Parameter>
           <InterpolatingParam id="9385" interp="linr"  time="0/1" value="10" leadInLength="0/1"   name="ratio"/>
           <InterpolatingParam id="9386" interp="linr"  time="0/1" value="3500" leadInLength="0/1"   name="release"/>
           <InterpolatingParam id="9387" interp="linr"  time="0/1" value="-20" leadInLength="0/1"   name="threshold"/>
           </Parameters>
          </GenericEffect>
          <GenericEffect id="9388" name = "NoiseReduction" >
           <Parameters>
           <InterpolatingParam id="9389" interp="linr"  time="0/1" value="20" leadInLength="0/1"   name="denoiserAmount"/>
           <InterpolatingParam id="9390" interp="linr"  time="0/1" value="0" leadInLength="0/1"   name="denoiserThreshold"/>
           <Parameter id="9391"   name="noiseProfile">
            <Keyframes>
            <Keyframe id="9392"  time="0/1" value="FBAAAAIAAABErAAAAQIAAIA/l8JLuYTCrOB9wgsMfMJoG4LCaWeFwkohjMJdoYvCYv6LwlnvjcKf&#xD;&#xa;nYzChXWPwlcejsL6fo/C5OmQwgVTj8IVMI/COiWRwoWFkcJ2tYzC8I6MwuQbjcJvEo/ClwGRwheQ&#xD;&#xa;lsK8+pbCN5qVwlielcJ905rCmu+fwst0ncIC/JvCdIWdws3snsKxC5zCfh2cwniFnMJRypzCtRag&#xD;&#xa;wuoCosJQt6DCzoegwhY9ocIWN6PCsNqkwrSlpMJ6maTCYpCkwmLvo8Li+KPCyEamwnBNqMLMcqrC&#xD;&#xa;v2GswoS+q8Kk86vCVACuwnvUr8JxZa/CqHqswrdXq8LqT6zCZsuswhZxrMLBX67CnmqvwpYyrsKc&#xD;&#xa;pq3CJFGvwghrsMK3y6/CXoCtwmWZr8ICi7DCgRezwogSs8Joq7LCm0Sxwuz/scIfibTCOOK1wlIM&#xD;&#xa;t8K87LfCj3K3wqDYs8KT1bLCVsW0wnZ0tcJGhLXCfPe0ws/ntcLGXrbCzAG1wtXdtcKxxrTC1Ay1&#xD;&#xa;wquGtcLjELbC8Zi2wl7rtsJBYbbCMF+1wrEutMKuibTCSFa1wpvktMIu3rTCtGe4wjaduMIKErfC&#xD;&#xa;SLa1wvS/tsJmZrjCdn63whjft8Ie47rCfdi5wmjpt8KKCLjCXmC5wsOQt8JDGbfCK4m4wmpvuMLL&#xD;&#xa;nLjC80q4wjUVusKunLjC1Be5wg4cuMLxCbjCwfW4wmi7ucIOdbvCbLG6whqdusKYErrCbpC4wmq0&#xD;&#xa;ucIoWrvCaNe6ws4iu8LSc7zCUNa7wuJZvMIwLL3CWe28wps2v8J2l77Cv3W+wvgavsKAwrzCQCy8&#xD;&#xa;wgBRu8Km8brChSa6wuM4u8IaaL3Cf5y9wg4hvMLur7vCIpO9wm0fvcIGNLzC7Le8wvKgvMKQrLzC&#xD;&#xa;p6+9wtYtvsJcxbzCQC29wjDqvcKeNbzCH2W8wpbZvsLCTL7CnjO+wuIsvsJs67vCwLq9wiKhvsLs&#xD;&#xa;o73C5Du9wqqhvcLwKr7C2kq/wqEMv8LVCb7Cpla+wsXpvMIs6bvC/fO8wueCvsIM4b3CxtC+wmTo&#xD;&#xa;vcI+arzCTNe8wiFNv8IvKL/Cpg+/woK1v8L4i7/CNv2+wmsVv8KWj77CVym+wnAlv8Joa8DCFDzA&#xD;&#xa;wiQYwcLSIcHCxILAwuxKvsJYm77CPoHAwiYPwcLuy77CcQa+wrB4vcKwYLzCxKW8worIvcIlzr/C&#xD;&#xa;OMC+wuRDvcJGZ7zCxFi9wuQzvMLPbbvCwIe+wm7bvcLm9L3COH6+wuuJvMK2B73CYb+9wqbxvMK/&#xD;&#xa;mL7CqIe9wvCavMKs7L3Ckau8wkpavMKt9LzCF8S+wmgKvsKCy73ClrG+wmIovcIns73Cmg+/wgw7&#xD;&#xa;wMI607/CpEq/wmwVvcJLsLvCMD68wuxdvcIeI7/C+bS+wpxfvsJyxsDC1tO/wmtrv8LNnb/CQiK+&#xD;&#xa;wlz7vcLa6L/CUMXBwtrQwcIAw8HCNJHBwvphwMKqc7/CSkW/wjkvwMK8ccHCHmDBwlKAwcKu+MDC&#xD;&#xa;zErCwuqgwsLa+MLC753DwmjuxcLEWMfCkePFwo47xsKnX8XC7tTCwuf3wsL+HcLCTcTBwmg6w8Is&#xD;&#xa;RMPC+qjDwiyGxMLi58TCnWvFwpjsxsKzCMbCyCTDwpM2wcJWGMPCvuDFwh42xsIfyMTCeLTFwuH7&#xD;&#xa;xMJctcfCVv3HwpTGx8J8b8jCqhjHwrgkx8LXNsfCZkLGwnxSxcL8csXCbu7FwsaQyMLa68fCo0XH&#xD;&#xa;woruxMJGHsbCORbJwry2yMLIUsfCxlfGwmLoxcLSPMnCYPDJwkw3yMKc7crC8vDLwug2y8Lu28vC&#xD;&#xa;OKvMwvLpysKGj8rCtNXLwrMay8KdGMrCUr3JwgIVy8J64MvCkbTJwjh4x8JGI8bCvBXHwnoPycKN&#xD;&#xa;Ss3CuC/Nwuywy8IkJ8zCx9/KwnB5ycKnk8nCenLJwnN6ycKc+sjCLFzJwuTrzMJkJM/CY5vOwoYO&#xD;&#xa;zsLU987CVKfNwiZZzcJQxNDCICHVwi0d18Kc29jCIF/YwtKo2MKeBNvCwpTawmY/2sJXPdvCZZXY&#xD;&#xa;whB818IQNdjCDF3XwtWC1sIGF9fCfFfXwkBy2MJ6+9nC1hfZwi5k2cJlfNjCnEPYwm/N1cKGOdXC&#xD;&#xa;Yk/XwgXL2MJSytfCgpTWwqTT1sJOGtnCrF/ZwtcT2cK08NjCscHZwpQ72sLJ/NrCy3zYwmCk18LE&#xD;&#xa;O9fC6hbYwtYU2cJN/dnC1EbZwrw/2cIqyNbCDr7Xwvb02cLQ+dnCaJvXwuYO18KSodnC1NnawtJJ&#xD;&#xa;18ISLtjC90nawoel2cIwl9jCi0XZwih328Ks7NjC5KzZwqui2cJw0tjCukLYws+O2MJaqtrCUuXa&#xD;&#xa;wviX2MIKxtfCnqXXwhjI2MJwAtvCIFvcwgCL2cJ0/djCdyXawh9H2cJ+ntfCy4TXwhqF2MJ68NnC&#xD;&#xa;CzvYwljT2cIkP9vCIs/bwjpB2sK2A9rCXt/awjZH2sIfltvCKWPcwjp53MKrGd3CaBPewj/03MJm&#xD;&#xa;U97CphfgwlJp3cKQpt3Crxjewm7d28Kq/9vCNNXcwqY728IUH9vCkirbwgIt28KK19zCjmzdwoBH&#xD;&#xa;3MIAUtvCUq3bwo8f28Ig09jCiyfZwhbx2sLWe9zCvgzbwmwI2sI2nNvC0lvdwg6128I8PNvCLufa&#xD;&#xa;wkyK28KkitzCJIDcwmAO28L0TNrCDHXawjla28IQkdzCoCDcwjRI3MJVUdvCtujZwnCs2sK8Yd3C&#xD;&#xa;iGbbwuSB2cImFNvCCI7rwoA/l8JLuYTCrOB9wgsMfMJoG4LCaWeFwkohjMJdoYvCYv6LwlnvjcKf&#xD;&#xa;nYzChXWPwlcejsL6fo/C5OmQwgVTj8IVMI/COiWRwoWFkcJ2tYzC8I6MwuQbjcJvEo/ClwGRwheQ&#xD;&#xa;lsK8+pbCN5qVwlielcJ905rCmu+fwst0ncIC/JvCdIWdws3snsKxC5zCfh2cwniFnMJRypzCtRag&#xD;&#xa;wuoCosJQt6DCzoegwhY9ocIWN6PCsNqkwrSlpMJ6maTCYpCkwmLvo8Li+KPCyEamwnBNqMLMcqrC&#xD;&#xa;v2GswoS+q8Kk86vCVACuwnvUr8JxZa/CqHqswrdXq8LqT6zCZsuswhZxrMLBX67CnmqvwpYyrsKc&#xD;&#xa;pq3CJFGvwghrsMK3y6/CXoCtwmWZr8ICi7DCgRezwogSs8Joq7LCm0Sxwuz/scIfibTCOOK1wlIM&#xD;&#xa;t8K87LfCj3K3wqDYs8KT1bLCVsW0wnZ0tcJGhLXCfPe0ws/ntcLGXrbCzAG1wtXdtcKxxrTC1Ay1&#xD;&#xa;wquGtcLjELbC8Zi2wl7rtsJBYbbCMF+1wrEutMKuibTCSFa1wpvktMIu3rTCtGe4wjaduMIKErfC&#xD;&#xa;SLa1wvS/tsJmZrjCdn63whjft8Ie47rCfdi5wmjpt8KKCLjCXmC5wsOQt8JDGbfCK4m4wmpvuMLL&#xD;&#xa;nLjC80q4wjUVusKunLjC1Be5wg4cuMLxCbjCwfW4wmi7ucIOdbvCbLG6whqdusKYErrCbpC4wmq0&#xD;&#xa;ucIoWrvCaNe6ws4iu8LSc7zCUNa7wuJZvMIwLL3CWe28wps2v8J2l77Cv3W+wvgavsKAwrzCQCy8&#xD;&#xa;wgBRu8Km8brChSa6wuM4u8IaaL3Cf5y9wg4hvMLur7vCIpO9wm0fvcIGNLzC7Le8wvKgvMKQrLzC&#xD;&#xa;p6+9wtYtvsJcxbzCQC29wjDqvcKeNbzCH2W8wpbZvsLCTL7CnjO+wuIsvsJs67vCwLq9wiKhvsLs&#xD;&#xa;o73C5Du9wqqhvcLwKr7C2kq/wqEMv8LVCb7Cpla+wsXpvMIs6bvC/fO8wueCvsIM4b3CxtC+wmTo&#xD;&#xa;vcI+arzCTNe8wiFNv8IvKL/Cpg+/woK1v8L4i7/CNv2+wmsVv8KWj77CVym+wnAlv8Joa8DCFDzA&#xD;&#xa;wiQYwcLSIcHCxILAwuxKvsJYm77CPoHAwiYPwcLuy77CcQa+wrB4vcKwYLzCxKW8worIvcIlzr/C&#xD;&#xa;OMC+wuRDvcJGZ7zCxFi9wuQzvMLPbbvCwIe+wm7bvcLm9L3COH6+wuuJvMK2B73CYb+9wqbxvMK/&#xD;&#xa;mL7CqIe9wvCavMKs7L3Ckau8wkpavMKt9LzCF8S+wmgKvsKCy73ClrG+wmIovcIns73Cmg+/wgw7&#xD;&#xa;wMI607/CpEq/wmwVvcJLsLvCMD68wuxdvcIeI7/C+bS+wpxfvsJyxsDC1tO/wmtrv8LNnb/CQiK+&#xD;&#xa;wlz7vcLa6L/CUMXBwtrQwcIAw8HCNJHBwvphwMKqc7/CSkW/wjkvwMK8ccHCHmDBwlKAwcKu+MDC&#xD;&#xa;zErCwuqgwsLa+MLC753DwmjuxcLEWMfCkePFwo47xsKnX8XC7tTCwuf3wsL+HcLCTcTBwmg6w8Is&#xD;&#xa;RMPC+qjDwiyGxMLi58TCnWvFwpjsxsKzCMbCyCTDwpM2wcJWGMPCvuDFwh42xsIfyMTCeLTFwuH7&#xD;&#xa;xMJctcfCVv3HwpTGx8J8b8jCqhjHwrgkx8LXNsfCZkLGwnxSxcL8csXCbu7FwsaQyMLa68fCo0XH&#xD;&#xa;woruxMJGHsbCORbJwry2yMLIUsfCxlfGwmLoxcLSPMnCYPDJwkw3yMKc7crC8vDLwug2y8Lu28vC&#xD;&#xa;OKvMwvLpysKGj8rCtNXLwrMay8KdGMrCUr3JwgIVy8J64MvCkbTJwjh4x8JGI8bCvBXHwnoPycKN&#xD;&#xa;Ss3CuC/Nwuywy8IkJ8zCx9/KwnB5ycKnk8nCenLJwnN6ycKc+sjCLFzJwuTrzMJkJM/CY5vOwoYO&#xD;&#xa;zsLU987CVKfNwiZZzcJQxNDCICHVwi0d18Kc29jCIF/YwtKo2MKeBNvCwpTawmY/2sJXPdvCZZXY&#xD;&#xa;whB818IQNdjCDF3XwtWC1sIGF9fCfFfXwkBy2MJ6+9nC1hfZwi5k2cJlfNjCnEPYwm/N1cKGOdXC&#xD;&#xa;Yk/XwgXL2MJSytfCgpTWwqTT1sJOGtnCrF/ZwtcT2cK08NjCscHZwpQ72sLJ/NrCy3zYwmCk18LE&#xD;&#xa;O9fC6hbYwtYU2cJN/dnC1EbZwrw/2cIqyNbCDr7Xwvb02cLQ+dnCaJvXwuYO18KSodnC1NnawtJJ&#xD;&#xa;18ISLtjC90nawoel2cIwl9jCi0XZwih328Ks7NjC5KzZwqui2cJw0tjCukLYws+O2MJaqtrCUuXa&#xD;&#xa;wviX2MIKxtfCnqXXwhjI2MJwAtvCIFvcwgCL2cJ0/djCdyXawh9H2cJ+ntfCy4TXwhqF2MJ68NnC&#xD;&#xa;CzvYwljT2cIkP9vCIs/bwjpB2sK2A9rCXt/awjZH2sIfltvCKWPcwjp53MKrGd3CaBPewj/03MJm&#xD;&#xa;U97CphfgwlJp3cKQpt3Crxjewm7d28Kq/9vCNNXcwqY728IUH9vCkirbwgIt28KK19zCjmzdwoBH&#xD;&#xa;3MIAUtvCUq3bwo8f28Ig09jCiyfZwhbx2sLWe9zCvgzbwmwI2sI2nNvC0lvdwg6128I8PNvCLufa&#xD;&#xa;wkyK28KkitzCJIDcwmAO28L0TNrCDHXawjla28IQkdzCoCDcwjRI3MJVUdvCtujZwnCs2sK8Yd3C&#xD;&#xa;iGbbwuSB2cImFNvCCI7r" leadInLength="0/1"  />
            </Keyframes>
           </Parameter>
           </Parameters>
          </GenericEffect>
          <GenericEffect id="9393" name = "Declipper" >
           <Parameters>
           <InterpolatingParam id="9394" interp="linr"  time="0/1" value="-1" leadInLength="0/1"   name="sensitivity"/>
           </Parameters>
          </GenericEffect>
          <GenericEffect id="9395" name = "Declicker" >
           <Parameters>
           <InterpolatingParam id="9396" interp="linr"  time="0/1" value="3" leadInLength="0/1"   name="sensitivity"/>
           </Parameters>
          </GenericEffect>
         </Effects>
         <Attributes>
          <Attribute id="9397" value="" name="ident"/>
          <Attribute id="9398" value="0" name="mixToMono"/>
         </Attributes>
         <MetaData>
          <entry key="WinSubProjectDisplayName" val=""/>
         </MetaData>
         <ExtraData>
          <Entry key="ZoomPanBin">
           <ZoomPanBin id="9399"  >
            <ZoomPanKeyframes>
            </ZoomPanKeyframes>
           </ZoomPanBin>
          </Entry>
          <Entry key="CursorEffectBin">
           <CursorEffectBin id="9400"  >
            <CursorEffectKeyframes>
            </CursorEffectKeyframes>
           </CursorEffectBin>
          </Entry>
         </ExtraData>
         <GenericTrack id="9401"  >
          <Attributes>
           <Attribute id="9402" value="" name="ident"/>
           <Attribute id="9403" value="0" name="audioMuted"/>
           <Attribute id="9404" value="0" name="videoHidden"/>
          </Attributes>
          <MetaData>
           <entry key="IsLocked" val="False"/>
           <entry key="WinTrackHeight" val="0"/>
          </MetaData>
          <Medias>
           <AMFile id="9405" start="0" duration="117" scalar="1/1" mediaStart="0/1" mediaDuration="117/1" trackNumber="0" src="29" channelNumber="0" >
            <Parameters>
             <InterpolatingParam id="9406" interp="linr"  time="0/1" value="1" leadInLength="0/1"  name="volume"/>
             <Parameter id="9407"  name="captions"/>
            </Parameters>
            <Attributes>
             <Attribute id="9408" value="" name="ident"/>
             <Attribute id="9409" value="48000" name="sampleRate"/>
             <Attribute id="9410" value="16" name="bitDepth"/>
             <Attribute id="9411" value="1" name="gain"/>
             <Attribute id="9412" value="0" name="mixToMono"/>
            </Attributes>
            <MetaData>
             <entry key="WinSubProjectDisplayName" val=""/>
            </MetaData>
           </AMFile>
           <AMFile id="9413" start="117" duration="272" scalar="1/1" mediaStart="131/1" mediaDuration="272/1" trackNumber="0" src="29" channelNumber="0" >
            <Parameters>
             <InterpolatingParam id="9414" interp="linr"  time="0/1" value="1" leadInLength="0/1"  name="volume"/>
             <Parameter id="9415"  name="captions"/>
            </Parameters>
            <Attributes>
             <Attribute id="9416" value="" name="ident"/>
             <Attribute id="9417" value="48000" name="sampleRate"/>
             <Attribute id="9418" value="16" name="bitDepth"/>
             <Attribute id="9419" value="1" name="gain"/>
             <Attribute id="9420" value="0" name="mixToMono"/>
            </Attributes>
            <MetaData>
             <entry key="WinSubProjectDisplayName" val=""/>
            </MetaData>
           </AMFile>
           <AMFile id="9421" start="389" duration="1309" scalar="1/1" mediaStart="415/1" mediaDuration="1309/1" trackNumber="0" src="29" channelNumber="0" >
            <Parameters>
             <InterpolatingParam id="9422" interp="linr"  time="0/1" value="1" leadInLength="0/1"  name="volume"/>
             <Parameter id="9423"  name="captions"/>
            </Parameters>
            <Attributes>
             <Attribute id="9424" value="" name="ident"/>
             <Attribute id="9425" value="48000" name="sampleRate"/>
             <Attribute id="9426" value="16" name="bitDepth"/>
             <Attribute id="9427" value="1" name="gain"/>
             <Attribute id="9428" value="0" name="mixToMono"/>
            </Attributes>
            <MetaData>
             <entry key="WinSubProjectDisplayName" val=""/>
            </MetaData>
           </AMFile>
           <AMFile id="9429" start="1698" duration="103" scalar="1/1" mediaStart="1734/1" mediaDuration="103/1" trackNumber="0" src="29" channelNumber="0" >
            <Parameters>
             <InterpolatingParam id="9430" interp="linr"  time="0/1" value="1" leadInLength="0/1"  name="volume"/>
             <Parameter id="9431"  name="captions"/>
            </Parameters>
            <Attributes>
             <Attribute id="9432" value="" name="ident"/>
             <Attribute id="9433" value="48000" name="sampleRate"/>
             <Attribute id="9434" value="16" name="bitDepth"/>
             <Attribute id="9435" value="1" name="gain"/>
             <Attribute id="9436" value="0" name="mixToMono"/>
            </Attributes>
            <MetaData>
             <entry key="WinSubProjectDisplayName" val=""/>
            </MetaData>
           </AMFile>
           <AMFile id="9437" start="1801" duration="245" scalar="1/1" mediaStart="2164/1" mediaDuration="245/1" trackNumber="0" src="29" channelNumber="0" >
            <Parameters>
             <InterpolatingParam id="9438" interp="linr"  time="0/1" value="1" leadInLength="0/1"  name="volume"/>
             <Parameter id="9439"  name="captions"/>
            </Parameters>
            <Attributes>
             <Attribute id="9440" value="" name="ident"/>
             <Attribute id="9441" value="48000" name="sampleRate"/>
             <Attribute id="9442" value="16" name="bitDepth"/>
             <Attribute id="9443" value="1" name="gain"/>
             <Attribute id="9444" value="0" name="mixToMono"/>
            </Attributes>
            <MetaData>
             <entry key="WinSubProjectDisplayName" val=""/>
            </MetaData>
           </AMFile>
           <AMFile id="9445" start="2046" duration="202" scalar="1/1" mediaStart="2637/1" mediaDuration="202/1" trackNumber="0" src="29" channelNumber="0" >
            <Parameters>
             <InterpolatingParam id="9446" interp="linr"  time="0/1" value="1" leadInLength="0/1"  name="volume"/>
             <Parameter id="9447"  name="captions"/>
            </Parameters>
            <Attributes>
             <Attribute id="9448" value="" name="ident"/>
             <Attribute id="9449" value="48000" name="sampleRate"/>
             <Attribute id="9450" value="16" name="bitDepth"/>
             <Attribute id="9451" value="1" name="gain"/>
             <Attribute id="9452" value="0" name="mixToMono"/>
            </Attributes>
            <MetaData>
             <entry key="WinSubProjectDisplayName" val=""/>
            </MetaData>
           </AMFile>
           <AMFile id="9453" start="2248" duration="185" scalar="1/1" mediaStart="2856/1" mediaDuration="185/1" trackNumber="0" src="29" channelNumber="0" >
            <Parameters>
             <InterpolatingParam id="9454" interp="linr"  time="0/1" value="1" leadInLength="0/1"  name="volume"/>
             <Parameter id="9455"  name="captions"/>
            </Parameters>
            <Attributes>
             <Attribute id="9456" value="" name="ident"/>
             <Attribute id="9457" value="48000" name="sampleRate"/>
             <Attribute id="9458" value="16" name="bitDepth"/>
             <Attribute id="9459" value="1" name="gain"/>
             <Attribute id="9460" value="0" name="mixToMono"/>
            </Attributes>
            <MetaData>
             <entry key="WinSubProjectDisplayName" val=""/>
            </MetaData>
           </AMFile>
           <AMFile id="9461" start="2433" duration="215" scalar="1/1" mediaStart="3054/1" mediaDuration="215/1" trackNumber="0" src="29" channelNumber="0" >
            <Parameters>
             <InterpolatingParam id="9462" interp="linr"  time="0/1" value="1" leadInLength="0/1"  name="volume"/>
             <Parameter id="9463"  name="captions"/>
            </Parameters>
            <Attributes>
             <Attribute id="9464" value="" name="ident"/>
             <Attribute id="9465" value="48000" name="sampleRate"/>
             <Attribute id="9466" value="16" name="bitDepth"/>
             <Attribute id="9467" value="1" name="gain"/>
             <Attribute id="9468" value="0" name="mixToMono"/>
            </Attributes>
            <MetaData>
             <entry key="WinSubProjectDisplayName" val=""/>
            </MetaData>
           </AMFile>
           <AMFile id="9469" start="2648" duration="155" scalar="1/1" mediaStart="3288/1" mediaDuration="155/1" trackNumber="0" src="29" channelNumber="0" >
            <Parameters>
             <InterpolatingParam id="9470" interp="linr"  time="0/1" value="1" leadInLength="0/1"  name="volume"/>
             <Parameter id="9471"  name="captions"/>
            </Parameters>
            <Attributes>
             <Attribute id="9472" value="" name="ident"/>
             <Attribute id="9473" value="48000" name="sampleRate"/>
             <Attribute id="9474" value="16" name="bitDepth"/>
             <Attribute id="9475" value="1" name="gain"/>
             <Attribute id="9476" value="0" name="mixToMono"/>
            </Attributes>
            <MetaData>
             <entry key="WinSubProjectDisplayName" val=""/>
            </MetaData>
           </AMFile>
           <AMFile id="9477" start="2803" duration="103" scalar="1/1" mediaStart="3450/1" mediaDuration="103/1" trackNumber="0" src="29" channelNumber="0" >
            <Parameters>
             <InterpolatingParam id="9478" interp="linr"  time="0/1" value="1" leadInLength="0/1"  name="volume"/>
             <Parameter id="9479"  name="captions"/>
            </Parameters>
            <Attributes>
             <Attribute id="9480" value="" name="ident"/>
             <Attribute id="9481" value="48000" name="sampleRate"/>
             <Attribute id="9482" value="16" name="bitDepth"/>
             <Attribute id="9483" value="1" name="gain"/>
             <Attribute id="9484" value="0" name="mixToMono"/>
            </Attributes>
            <MetaData>
             <entry key="WinSubProjectDisplayName" val=""/>
            </MetaData>
           </AMFile>
           <AMFile id="9485" start="2906" duration="2683" scalar="1/1" mediaStart="3564/1" mediaDuration="2683/1" trackNumber="0" src="29" channelNumber="0" >
            <Parameters>
             <InterpolatingParam id="9486" interp="linr"  time="0/1" value="1" leadInLength="0/1"  name="volume"/>
             <Parameter id="9487"  name="captions"/>
            </Parameters>
            <Attributes>
             <Attribute id="9488" value="" name="ident"/>
             <Attribute id="9489" value="48000" name="sampleRate"/>
             <Attribute id="9490" value="16" name="bitDepth"/>
             <Attribute id="9491" value="1" name="gain"/>
             <Attribute id="9492" value="0" name="mixToMono"/>
            </Attributes>
            <MetaData>
             <entry key="WinSubProjectDisplayName" val=""/>
            </MetaData>
           </AMFile>
           <AMFile id="9493" start="5589" duration="143" scalar="1/1" mediaStart="6247/1" mediaDuration="143/1" trackNumber="0" src="29" channelNumber="0" >
            <Parameters>
             <InterpolatingParam id="9494" interp="linr"  time="0/1" value="1" leadInLength="0/1"  name="volume"/>
             <Parameter id="9495"  name="captions"/>
            </Parameters>
            <Attributes>
             <Attribute id="9496" value="" name="ident"/>
             <Attribute id="9497" value="48000" name="sampleRate"/>
             <Attribute id="9498" value="16" name="bitDepth"/>
             <Attribute id="9499" value="1" name="gain"/>
             <Attribute id="9500" value="0" name="mixToMono"/>
            </Attributes>
            <MetaData>
             <entry key="WinSubProjectDisplayName" val=""/>
            </MetaData>
           </AMFile>
           <AMFile id="9501" start="5732" duration="285" scalar="1/1" mediaStart="6413/1" mediaDuration="285/1" trackNumber="0" src="29" channelNumber="0" >
            <Parameters>
             <InterpolatingParam id="9502" interp="linr"  time="0/1" value="1" leadInLength="0/1"  name="volume"/>
             <Parameter id="9503"  name="captions"/>
            </Parameters>
            <Attributes>
             <Attribute id="9504" value="" name="ident"/>
             <Attribute id="9505" value="48000" name="sampleRate"/>
             <Attribute id="9506" value="16" name="bitDepth"/>
             <Attribute id="9507" value="1" name="gain"/>
             <Attribute id="9508" value="0" name="mixToMono"/>
            </Attributes>
            <MetaData>
             <entry key="WinSubProjectDisplayName" val=""/>
            </MetaData>
           </AMFile>
           <AMFile id="9509" start="6017" duration="102" scalar="1/1" mediaStart="6729/1" mediaDuration="102/1" trackNumber="0" src="29" channelNumber="0" >
            <Parameters>
             <InterpolatingParam id="9510" interp="linr"  time="0/1" value="1" leadInLength="0/1"  name="volume"/>
             <Parameter id="9511"  name="captions"/>
            </Parameters>
            <Attributes>
             <Attribute id="9512" value="" name="ident"/>
             <Attribute id="9513" value="48000" name="sampleRate"/>
             <Attribute id="9514" value="16" name="bitDepth"/>
             <Attribute id="9515" value="1" name="gain"/>
             <Attribute id="9516" value="0" name="mixToMono"/>
            </Attributes>
            <MetaData>
             <entry key="WinSubProjectDisplayName" val=""/>
            </MetaData>
           </AMFile>
           <AMFile id="9517" start="6119" duration="234" scalar="1/1" mediaStart="6848/1" mediaDuration="234/1" trackNumber="0" src="29" channelNumber="0" >
            <Parameters>
             <InterpolatingParam id="9518" interp="linr"  time="0/1" value="1" leadInLength="0/1"  name="volume"/>
             <Parameter id="9519"  name="captions"/>
            </Parameters>
            <Attributes>
             <Attribute id="9520" value="" name="ident"/>
             <Attribute id="9521" value="48000" name="sampleRate"/>
             <Attribute id="9522" value="16" name="bitDepth"/>
             <Attribute id="9523" value="1" name="gain"/>
             <Attribute id="9524" value="0" name="mixToMono"/>
            </Attributes>
            <MetaData>
             <entry key="WinSubProjectDisplayName" val=""/>
            </MetaData>
           </AMFile>
           <AMFile id="9525" start="6353" duration="107" scalar="1/1" mediaStart="7089/1" mediaDuration="107/1" trackNumber="0" src="29" channelNumber="0" >
            <Parameters>
             <InterpolatingParam id="9526" interp="linr"  time="0/1" value="1" leadInLength="0/1"  name="volume"/>
             <Parameter id="9527"  name="captions"/>
            </Parameters>
            <Attributes>
             <Attribute id="9528" value="" name="ident"/>
             <Attribute id="9529" value="48000" name="sampleRate"/>
             <Attribute id="9530" value="16" name="bitDepth"/>
             <Attribute id="9531" value="1" name="gain"/>
             <Attribute id="9532" value="0" name="mixToMono"/>
            </Attributes>
            <MetaData>
             <entry key="WinSubProjectDisplayName" val=""/>
            </MetaData>
           </AMFile>
           <AMFile id="9533" start="6460" duration="67" scalar="1/1" mediaStart="7207/1" mediaDuration="67/1" trackNumber="0" src="29" channelNumber="0" >
            <Parameters>
             <InterpolatingParam id="9534" interp="linr"  time="0/1" value="1" leadInLength="0/1"  name="volume"/>
             <Parameter id="9535"  name="captions"/>
            </Parameters>
            <Attributes>
             <Attribute id="9536" value="" name="ident"/>
             <Attribute id="9537" value="48000" name="sampleRate"/>
             <Attribute id="9538" value="16" name="bitDepth"/>
             <Attribute id="9539" value="1" name="gain"/>
             <Attribute id="9540" value="0" name="mixToMono"/>
            </Attributes>
            <MetaData>
             <entry key="WinSubProjectDisplayName" val=""/>
            </MetaData>
           </AMFile>
           <AMFile id="9541" start="6527" duration="226" scalar="1/1" mediaStart="7297/1" mediaDuration="226/1" trackNumber="0" src="29" channelNumber="0" >
            <Parameters>
             <InterpolatingParam id="9542" interp="linr"  time="0/1" value="1" leadInLength="0/1"  name="volume"/>
             <Parameter id="9543"  name="captions"/>
            </Parameters>
            <Attributes>
             <Attribute id="9544" value="" name="ident"/>
             <Attribute id="9545" value="48000" name="sampleRate"/>
             <Attribute id="9546" value="16" name="bitDepth"/>
             <Attribute id="9547" value="1" name="gain"/>
             <Attribute id="9548" value="0" name="mixToMono"/>
            </Attributes>
            <MetaData>
             <entry key="WinSubProjectDisplayName" val=""/>
            </MetaData>
           </AMFile>
           <AMFile id="9549" start="6753" duration="117" scalar="1/1" mediaStart="7540/1" mediaDuration="117/1" trackNumber="0" src="29" channelNumber="0" >
            <Parameters>
             <InterpolatingParam id="9550" interp="linr"  time="0/1" value="1" leadInLength="0/1"  name="volume"/>
             <Parameter id="9551"  name="captions"/>
            </Parameters>
            <Attributes>
             <Attribute id="9552" value="" name="ident"/>
             <Attribute id="9553" value="48000" name="sampleRate"/>
             <Attribute id="9554" value="16" name="bitDepth"/>
             <Attribute id="9555" value="1" name="gain"/>
             <Attribute id="9556" value="0" name="mixToMono"/>
            </Attributes>
            <MetaData>
             <entry key="WinSubProjectDisplayName" val=""/>
            </MetaData>
           </AMFile>
           <AMFile id="9557" start="6870" duration="52" scalar="1/1" mediaStart="7796/1" mediaDuration="52/1" trackNumber="0" src="29" channelNumber="0" >
            <Parameters>
             <InterpolatingParam id="9558" interp="linr"  time="0/1" value="1" leadInLength="0/1"  name="volume"/>
             <Parameter id="9559"  name="captions"/>
            </Parameters>
            <Attributes>
             <Attribute id="9560" value="" name="ident"/>
             <Attribute id="9561" value="48000" name="sampleRate"/>
             <Attribute id="9562" value="16" name="bitDepth"/>
             <Attribute id="9563" value="1" name="gain"/>
             <Attribute id="9564" value="0" name="mixToMono"/>
            </Attributes>
            <MetaData>
             <entry key="WinSubProjectDisplayName" val=""/>
            </MetaData>
           </AMFile>
           <AMFile id="9565" start="6922" duration="100" scalar="1/1" mediaStart="8187/1" mediaDuration="100/1" trackNumber="0" src="29" channelNumber="0" >
            <Parameters>
             <InterpolatingParam id="9566" interp="linr"  time="0/1" value="1" leadInLength="0/1"  name="volume"/>
             <Parameter id="9567"  name="captions"/>
            </Parameters>
            <Attributes>
             <Attribute id="9568" value="" name="ident"/>
             <Attribute id="9569" value="48000" name="sampleRate"/>
             <Attribute id="9570" value="16" name="bitDepth"/>
             <Attribute id="9571" value="1" name="gain"/>
             <Attribute id="9572" value="0" name="mixToMono"/>
            </Attributes>
            <MetaData>
             <entry key="WinSubProjectDisplayName" val=""/>
            </MetaData>
           </AMFile>
           <AMFile id="9573" start="7022" duration="1377" scalar="1/1" mediaStart="8303/1" mediaDuration="1377/1" trackNumber="0" src="29" channelNumber="0" >
            <Parameters>
             <InterpolatingParam id="9574" interp="linr"  time="0/1" value="1" leadInLength="0/1"  name="volume"/>
             <Parameter id="9575"  name="captions"/>
            </Parameters>
            <Attributes>
             <Attribute id="9576" value="" name="ident"/>
             <Attribute id="9577" value="48000" name="sampleRate"/>
             <Attribute id="9578" value="16" name="bitDepth"/>
             <Attribute id="9579" value="1" name="gain"/>
             <Attribute id="9580" value="0" name="mixToMono"/>
            </Attributes>
            <MetaData>
             <entry key="WinSubProjectDisplayName" val=""/>
            </MetaData>
           </AMFile>
           <AMFile id="9581" start="8399" duration="3717" scalar="1/1" mediaStart="9929/1" mediaDuration="3717/1" trackNumber="0" src="29" channelNumber="0" >
            <Parameters>
             <InterpolatingParam id="9582" interp="linr"  time="0/1" value="1" leadInLength="0/1"  name="volume"/>
             <Parameter id="9583"  name="captions"/>
            </Parameters>
            <Attributes>
             <Attribute id="9584" value="" name="ident"/>
             <Attribute id="9585" value="48000" name="sampleRate"/>
             <Attribute id="9586" value="16" name="bitDepth"/>
             <Attribute id="9587" value="1" name="gain"/>
             <Attribute id="9588" value="0" name="mixToMono"/>
            </Attributes>
            <MetaData>
             <entry key="WinSubProjectDisplayName" val=""/>
            </MetaData>
           </AMFile>
          </Medias>
         </GenericTrack>
        </StitchedMedia>
        <StitchedMedia id="9589" start="7351" duration="510" scalar="1/1" mediaStart="9323/1" mediaDuration="510/1" minMediaStart="0/1" >
         <Transformer>
          <VectorParam id="9590"  name="translation">
           <InterpolatingParam id="9591" interp="linr"  time="0/1" value="0" leadInLength="0/1"  />
           <InterpolatingParam id="9592" interp="linr"  time="0/1" value="0" leadInLength="0/1"  />
           <InterpolatingParam id="9593" interp="linr"  time="0/1" value="0" leadInLength="0/1"  />
          </VectorParam>
          <VectorParam id="9594"  name="rotation">
           <InterpolatingParam id="9595" interp="linr"  time="0/1" value="0" leadInLength="0/1"  />
           <InterpolatingParam id="9596" interp="linr"  time="0/1" value="0" leadInLength="0/1"  />
           <InterpolatingParam id="9597" interp="linr"  time="0/1" value="0" leadInLength="0/1"  />
          </VectorParam>
          <VectorParam id="9598"  name="shear">
           <InterpolatingParam id="9599" interp="linr"  time="0/1" value="0" leadInLength="0/1"  />
           <InterpolatingParam id="9600" interp="linr"  time="0/1" value="0" leadInLength="0/1"  />
           <InterpolatingParam id="9601" interp="linr"  time="0/1" value="0" leadInLength="0/1"  />
          </VectorParam>
          <VectorParam id="9602"  name="scale">
           <InterpolatingParam id="9603" interp="linr"  time="0/1" value="1" leadInLength="0/1"  />
           <InterpolatingParam id="9604" interp="linr"  time="0/1" value="1" leadInLength="0/1"  />
           <InterpolatingParam id="9605" interp="linr"  time="0/1" value="1" leadInLength="0/1"  />
          </VectorParam>
          <VectorParam id="9606"  name="anchor">
           <InterpolatingParam id="9607" interp="linr"  time="0/1" value="0" leadInLength="0/1"  />
           <InterpolatingParam id="9608" interp="linr"  time="0/1" value="0" leadInLength="0/1"  />
           <InterpolatingParam id="9609" interp="linr"  time="0/1" value="0" leadInLength="0/1"  />
          </VectorParam>
         </Transformer>
         <Parameters>
          <InterpolatingParam id="9610" interp="linr"  time="0/1" value="1" leadInLength="0/1"  name="cursorOpacity"/>
          <InterpolatingParam id="9611" interp="linr"  time="0/1" value="1" leadInLength="0/1"  name="cursorScale"/>
          <InterpolatingParam id="9612" interp="linr"  time="0/1" value="1.5625" leadInLength="0/1"  name="volume"/>
          <Parameter id="9613"  name="captions"/>
         </Parameters>
         <Effects>
          <GenericEffect id="9614" name = "WinCompression" >
           <Parameters>
           <InterpolatingParam id="9615" interp="linr"  time="0/1" value="0" leadInLength="0/1"   name="attack"/>
           <InterpolatingParam id="9616" interp="linr"  time="0/1" value="9" leadInLength="0/1"   name="gain"/>
           <Parameter id="9617"   name="preset">
            <Keyframes>
            <Keyframe id="9618"  time="0/1" value="1" leadInLength="0/1"  />
            </Keyframes>
           </Parameter>
           <InterpolatingParam id="9619" interp="linr"  time="0/1" value="10" leadInLength="0/1"   name="ratio"/>
           <InterpolatingParam id="9620" interp="linr"  time="0/1" value="3500" leadInLength="0/1"   name="release"/>
           <InterpolatingParam id="9621" interp="linr"  time="0/1" value="-20" leadInLength="0/1"   name="threshold"/>
           </Parameters>
          </GenericEffect>
          <GenericEffect id="9622" name = "NoiseReduction" >
           <Parameters>
           <InterpolatingParam id="9623" interp="linr"  time="0/1" value="20" leadInLength="0/1"   name="denoiserAmount"/>
           <InterpolatingParam id="9624" interp="linr"  time="0/1" value="0" leadInLength="0/1"   name="denoiserThreshold"/>
           <Parameter id="9625"   name="noiseProfile">
            <Keyframes>
            <Keyframe id="9626"  time="0/1" value="FBAAAAIAAABErAAAAQIAAIA/l8JLuYTCrOB9wgsMfMJoG4LCaWeFwkohjMJdoYvCYv6LwlnvjcKf&#xD;&#xa;nYzChXWPwlcejsL6fo/C5OmQwgVTj8IVMI/COiWRwoWFkcJ2tYzC8I6MwuQbjcJvEo/ClwGRwheQ&#xD;&#xa;lsK8+pbCN5qVwlielcJ905rCmu+fwst0ncIC/JvCdIWdws3snsKxC5zCfh2cwniFnMJRypzCtRag&#xD;&#xa;wuoCosJQt6DCzoegwhY9ocIWN6PCsNqkwrSlpMJ6maTCYpCkwmLvo8Li+KPCyEamwnBNqMLMcqrC&#xD;&#xa;v2GswoS+q8Kk86vCVACuwnvUr8JxZa/CqHqswrdXq8LqT6zCZsuswhZxrMLBX67CnmqvwpYyrsKc&#xD;&#xa;pq3CJFGvwghrsMK3y6/CXoCtwmWZr8ICi7DCgRezwogSs8Joq7LCm0Sxwuz/scIfibTCOOK1wlIM&#xD;&#xa;t8K87LfCj3K3wqDYs8KT1bLCVsW0wnZ0tcJGhLXCfPe0ws/ntcLGXrbCzAG1wtXdtcKxxrTC1Ay1&#xD;&#xa;wquGtcLjELbC8Zi2wl7rtsJBYbbCMF+1wrEutMKuibTCSFa1wpvktMIu3rTCtGe4wjaduMIKErfC&#xD;&#xa;SLa1wvS/tsJmZrjCdn63whjft8Ie47rCfdi5wmjpt8KKCLjCXmC5wsOQt8JDGbfCK4m4wmpvuMLL&#xD;&#xa;nLjC80q4wjUVusKunLjC1Be5wg4cuMLxCbjCwfW4wmi7ucIOdbvCbLG6whqdusKYErrCbpC4wmq0&#xD;&#xa;ucIoWrvCaNe6ws4iu8LSc7zCUNa7wuJZvMIwLL3CWe28wps2v8J2l77Cv3W+wvgavsKAwrzCQCy8&#xD;&#xa;wgBRu8Km8brChSa6wuM4u8IaaL3Cf5y9wg4hvMLur7vCIpO9wm0fvcIGNLzC7Le8wvKgvMKQrLzC&#xD;&#xa;p6+9wtYtvsJcxbzCQC29wjDqvcKeNbzCH2W8wpbZvsLCTL7CnjO+wuIsvsJs67vCwLq9wiKhvsLs&#xD;&#xa;o73C5Du9wqqhvcLwKr7C2kq/wqEMv8LVCb7Cpla+wsXpvMIs6bvC/fO8wueCvsIM4b3CxtC+wmTo&#xD;&#xa;vcI+arzCTNe8wiFNv8IvKL/Cpg+/woK1v8L4i7/CNv2+wmsVv8KWj77CVym+wnAlv8Joa8DCFDzA&#xD;&#xa;wiQYwcLSIcHCxILAwuxKvsJYm77CPoHAwiYPwcLuy77CcQa+wrB4vcKwYLzCxKW8worIvcIlzr/C&#xD;&#xa;OMC+wuRDvcJGZ7zCxFi9wuQzvMLPbbvCwIe+wm7bvcLm9L3COH6+wuuJvMK2B73CYb+9wqbxvMK/&#xD;&#xa;mL7CqIe9wvCavMKs7L3Ckau8wkpavMKt9LzCF8S+wmgKvsKCy73ClrG+wmIovcIns73Cmg+/wgw7&#xD;&#xa;wMI607/CpEq/wmwVvcJLsLvCMD68wuxdvcIeI7/C+bS+wpxfvsJyxsDC1tO/wmtrv8LNnb/CQiK+&#xD;&#xa;wlz7vcLa6L/CUMXBwtrQwcIAw8HCNJHBwvphwMKqc7/CSkW/wjkvwMK8ccHCHmDBwlKAwcKu+MDC&#xD;&#xa;zErCwuqgwsLa+MLC753DwmjuxcLEWMfCkePFwo47xsKnX8XC7tTCwuf3wsL+HcLCTcTBwmg6w8Is&#xD;&#xa;RMPC+qjDwiyGxMLi58TCnWvFwpjsxsKzCMbCyCTDwpM2wcJWGMPCvuDFwh42xsIfyMTCeLTFwuH7&#xD;&#xa;xMJctcfCVv3HwpTGx8J8b8jCqhjHwrgkx8LXNsfCZkLGwnxSxcL8csXCbu7FwsaQyMLa68fCo0XH&#xD;&#xa;woruxMJGHsbCORbJwry2yMLIUsfCxlfGwmLoxcLSPMnCYPDJwkw3yMKc7crC8vDLwug2y8Lu28vC&#xD;&#xa;OKvMwvLpysKGj8rCtNXLwrMay8KdGMrCUr3JwgIVy8J64MvCkbTJwjh4x8JGI8bCvBXHwnoPycKN&#xD;&#xa;Ss3CuC/Nwuywy8IkJ8zCx9/KwnB5ycKnk8nCenLJwnN6ycKc+sjCLFzJwuTrzMJkJM/CY5vOwoYO&#xD;&#xa;zsLU987CVKfNwiZZzcJQxNDCICHVwi0d18Kc29jCIF/YwtKo2MKeBNvCwpTawmY/2sJXPdvCZZXY&#xD;&#xa;whB818IQNdjCDF3XwtWC1sIGF9fCfFfXwkBy2MJ6+9nC1hfZwi5k2cJlfNjCnEPYwm/N1cKGOdXC&#xD;&#xa;Yk/XwgXL2MJSytfCgpTWwqTT1sJOGtnCrF/ZwtcT2cK08NjCscHZwpQ72sLJ/NrCy3zYwmCk18LE&#xD;&#xa;O9fC6hbYwtYU2cJN/dnC1EbZwrw/2cIqyNbCDr7Xwvb02cLQ+dnCaJvXwuYO18KSodnC1NnawtJJ&#xD;&#xa;18ISLtjC90nawoel2cIwl9jCi0XZwih328Ks7NjC5KzZwqui2cJw0tjCukLYws+O2MJaqtrCUuXa&#xD;&#xa;wviX2MIKxtfCnqXXwhjI2MJwAtvCIFvcwgCL2cJ0/djCdyXawh9H2cJ+ntfCy4TXwhqF2MJ68NnC&#xD;&#xa;CzvYwljT2cIkP9vCIs/bwjpB2sK2A9rCXt/awjZH2sIfltvCKWPcwjp53MKrGd3CaBPewj/03MJm&#xD;&#xa;U97CphfgwlJp3cKQpt3Crxjewm7d28Kq/9vCNNXcwqY728IUH9vCkirbwgIt28KK19zCjmzdwoBH&#xD;&#xa;3MIAUtvCUq3bwo8f28Ig09jCiyfZwhbx2sLWe9zCvgzbwmwI2sI2nNvC0lvdwg6128I8PNvCLufa&#xD;&#xa;wkyK28KkitzCJIDcwmAO28L0TNrCDHXawjla28IQkdzCoCDcwjRI3MJVUdvCtujZwnCs2sK8Yd3C&#xD;&#xa;iGbbwuSB2cImFNvCCI7rwoA/l8JLuYTCrOB9wgsMfMJoG4LCaWeFwkohjMJdoYvCYv6LwlnvjcKf&#xD;&#xa;nYzChXWPwlcejsL6fo/C5OmQwgVTj8IVMI/COiWRwoWFkcJ2tYzC8I6MwuQbjcJvEo/ClwGRwheQ&#xD;&#xa;lsK8+pbCN5qVwlielcJ905rCmu+fwst0ncIC/JvCdIWdws3snsKxC5zCfh2cwniFnMJRypzCtRag&#xD;&#xa;wuoCosJQt6DCzoegwhY9ocIWN6PCsNqkwrSlpMJ6maTCYpCkwmLvo8Li+KPCyEamwnBNqMLMcqrC&#xD;&#xa;v2GswoS+q8Kk86vCVACuwnvUr8JxZa/CqHqswrdXq8LqT6zCZsuswhZxrMLBX67CnmqvwpYyrsKc&#xD;&#xa;pq3CJFGvwghrsMK3y6/CXoCtwmWZr8ICi7DCgRezwogSs8Joq7LCm0Sxwuz/scIfibTCOOK1wlIM&#xD;&#xa;t8K87LfCj3K3wqDYs8KT1bLCVsW0wnZ0tcJGhLXCfPe0ws/ntcLGXrbCzAG1wtXdtcKxxrTC1Ay1&#xD;&#xa;wquGtcLjELbC8Zi2wl7rtsJBYbbCMF+1wrEutMKuibTCSFa1wpvktMIu3rTCtGe4wjaduMIKErfC&#xD;&#xa;SLa1wvS/tsJmZrjCdn63whjft8Ie47rCfdi5wmjpt8KKCLjCXmC5wsOQt8JDGbfCK4m4wmpvuMLL&#xD;&#xa;nLjC80q4wjUVusKunLjC1Be5wg4cuMLxCbjCwfW4wmi7ucIOdbvCbLG6whqdusKYErrCbpC4wmq0&#xD;&#xa;ucIoWrvCaNe6ws4iu8LSc7zCUNa7wuJZvMIwLL3CWe28wps2v8J2l77Cv3W+wvgavsKAwrzCQCy8&#xD;&#xa;wgBRu8Km8brChSa6wuM4u8IaaL3Cf5y9wg4hvMLur7vCIpO9wm0fvcIGNLzC7Le8wvKgvMKQrLzC&#xD;&#xa;p6+9wtYtvsJcxbzCQC29wjDqvcKeNbzCH2W8wpbZvsLCTL7CnjO+wuIsvsJs67vCwLq9wiKhvsLs&#xD;&#xa;o73C5Du9wqqhvcLwKr7C2kq/wqEMv8LVCb7Cpla+wsXpvMIs6bvC/fO8wueCvsIM4b3CxtC+wmTo&#xD;&#xa;vcI+arzCTNe8wiFNv8IvKL/Cpg+/woK1v8L4i7/CNv2+wmsVv8KWj77CVym+wnAlv8Joa8DCFDzA&#xD;&#xa;wiQYwcLSIcHCxILAwuxKvsJYm77CPoHAwiYPwcLuy77CcQa+wrB4vcKwYLzCxKW8worIvcIlzr/C&#xD;&#xa;OMC+wuRDvcJGZ7zCxFi9wuQzvMLPbbvCwIe+wm7bvcLm9L3COH6+wuuJvMK2B73CYb+9wqbxvMK/&#xD;&#xa;mL7CqIe9wvCavMKs7L3Ckau8wkpavMKt9LzCF8S+wmgKvsKCy73ClrG+wmIovcIns73Cmg+/wgw7&#xD;&#xa;wMI607/CpEq/wmwVvcJLsLvCMD68wuxdvcIeI7/C+bS+wpxfvsJyxsDC1tO/wmtrv8LNnb/CQiK+&#xD;&#xa;wlz7vcLa6L/CUMXBwtrQwcIAw8HCNJHBwvphwMKqc7/CSkW/wjkvwMK8ccHCHmDBwlKAwcKu+MDC&#xD;&#xa;zErCwuqgwsLa+MLC753DwmjuxcLEWMfCkePFwo47xsKnX8XC7tTCwuf3wsL+HcLCTcTBwmg6w8Is&#xD;&#xa;RMPC+qjDwiyGxMLi58TCnWvFwpjsxsKzCMbCyCTDwpM2wcJWGMPCvuDFwh42xsIfyMTCeLTFwuH7&#xD;&#xa;xMJctcfCVv3HwpTGx8J8b8jCqhjHwrgkx8LXNsfCZkLGwnxSxcL8csXCbu7FwsaQyMLa68fCo0XH&#xD;&#xa;woruxMJGHsbCORbJwry2yMLIUsfCxlfGwmLoxcLSPMnCYPDJwkw3yMKc7crC8vDLwug2y8Lu28vC&#xD;&#xa;OKvMwvLpysKGj8rCtNXLwrMay8KdGMrCUr3JwgIVy8J64MvCkbTJwjh4x8JGI8bCvBXHwnoPycKN&#xD;&#xa;Ss3CuC/Nwuywy8IkJ8zCx9/KwnB5ycKnk8nCenLJwnN6ycKc+sjCLFzJwuTrzMJkJM/CY5vOwoYO&#xD;&#xa;zsLU987CVKfNwiZZzcJQxNDCICHVwi0d18Kc29jCIF/YwtKo2MKeBNvCwpTawmY/2sJXPdvCZZXY&#xD;&#xa;whB818IQNdjCDF3XwtWC1sIGF9fCfFfXwkBy2MJ6+9nC1hfZwi5k2cJlfNjCnEPYwm/N1cKGOdXC&#xD;&#xa;Yk/XwgXL2MJSytfCgpTWwqTT1sJOGtnCrF/ZwtcT2cK08NjCscHZwpQ72sLJ/NrCy3zYwmCk18LE&#xD;&#xa;O9fC6hbYwtYU2cJN/dnC1EbZwrw/2cIqyNbCDr7Xwvb02cLQ+dnCaJvXwuYO18KSodnC1NnawtJJ&#xD;&#xa;18ISLtjC90nawoel2cIwl9jCi0XZwih328Ks7NjC5KzZwqui2cJw0tjCukLYws+O2MJaqtrCUuXa&#xD;&#xa;wviX2MIKxtfCnqXXwhjI2MJwAtvCIFvcwgCL2cJ0/djCdyXawh9H2cJ+ntfCy4TXwhqF2MJ68NnC&#xD;&#xa;CzvYwljT2cIkP9vCIs/bwjpB2sK2A9rCXt/awjZH2sIfltvCKWPcwjp53MKrGd3CaBPewj/03MJm&#xD;&#xa;U97CphfgwlJp3cKQpt3Crxjewm7d28Kq/9vCNNXcwqY728IUH9vCkirbwgIt28KK19zCjmzdwoBH&#xD;&#xa;3MIAUtvCUq3bwo8f28Ig09jCiyfZwhbx2sLWe9zCvgzbwmwI2sI2nNvC0lvdwg6128I8PNvCLufa&#xD;&#xa;wkyK28KkitzCJIDcwmAO28L0TNrCDHXawjla28IQkdzCoCDcwjRI3MJVUdvCtujZwnCs2sK8Yd3C&#xD;&#xa;iGbbwuSB2cImFNvCCI7r" leadInLength="0/1"  />
            </Keyframes>
           </Parameter>
           </Parameters>
          </GenericEffect>
          <GenericEffect id="9627" name = "Declipper" >
           <Parameters>
           <InterpolatingParam id="9628" interp="linr"  time="0/1" value="-1" leadInLength="0/1"   name="sensitivity"/>
           </Parameters>
          </GenericEffect>
          <GenericEffect id="9629" name = "Declicker" >
           <Parameters>
           <InterpolatingParam id="9630" interp="linr"  time="0/1" value="3" leadInLength="0/1"   name="sensitivity"/>
           </Parameters>
          </GenericEffect>
         </Effects>
         <Attributes>
          <Attribute id="9631" value="" name="ident"/>
          <Attribute id="9632" value="0" name="mixToMono"/>
         </Attributes>
         <MetaData>
          <entry key="WinSubProjectDisplayName" val=""/>
         </MetaData>
         <ExtraData>
          <Entry key="ZoomPanBin">
           <ZoomPanBin id="9633"  >
            <ZoomPanKeyframes>
            </ZoomPanKeyframes>
           </ZoomPanBin>
          </Entry>
          <Entry key="CursorEffectBin">
           <CursorEffectBin id="9634"  >
            <CursorEffectKeyframes>
            </CursorEffectKeyframes>
           </CursorEffectBin>
          </Entry>
         </ExtraData>
         <GenericTrack id="9635"  >
          <Attributes>
           <Attribute id="9636" value="" name="ident"/>
           <Attribute id="9637" value="0" name="audioMuted"/>
           <Attribute id="9638" value="0" name="videoHidden"/>
          </Attributes>
          <MetaData>
           <entry key="IsLocked" val="False"/>
           <entry key="WinTrackHeight" val="0"/>
          </MetaData>
          <Medias>
           <AMFile id="9639" start="0" duration="117" scalar="1/1" mediaStart="0/1" mediaDuration="117/1" trackNumber="0" src="29" channelNumber="0" >
            <Parameters>
             <InterpolatingParam id="9640" interp="linr"  time="0/1" value="1" leadInLength="0/1"  name="volume"/>
             <Parameter id="9641"  name="captions"/>
            </Parameters>
            <Attributes>
             <Attribute id="9642" value="" name="ident"/>
             <Attribute id="9643" value="48000" name="sampleRate"/>
             <Attribute id="9644" value="16" name="bitDepth"/>
             <Attribute id="9645" value="1" name="gain"/>
             <Attribute id="9646" value="0" name="mixToMono"/>
            </Attributes>
            <MetaData>
             <entry key="WinSubProjectDisplayName" val=""/>
            </MetaData>
           </AMFile>
           <AMFile id="9647" start="117" duration="272" scalar="1/1" mediaStart="131/1" mediaDuration="272/1" trackNumber="0" src="29" channelNumber="0" >
            <Parameters>
             <InterpolatingParam id="9648" interp="linr"  time="0/1" value="1" leadInLength="0/1"  name="volume"/>
             <Parameter id="9649"  name="captions"/>
            </Parameters>
            <Attributes>
             <Attribute id="9650" value="" name="ident"/>
             <Attribute id="9651" value="48000" name="sampleRate"/>
             <Attribute id="9652" value="16" name="bitDepth"/>
             <Attribute id="9653" value="1" name="gain"/>
             <Attribute id="9654" value="0" name="mixToMono"/>
            </Attributes>
            <MetaData>
             <entry key="WinSubProjectDisplayName" val=""/>
            </MetaData>
           </AMFile>
           <AMFile id="9655" start="389" duration="1309" scalar="1/1" mediaStart="415/1" mediaDuration="1309/1" trackNumber="0" src="29" channelNumber="0" >
            <Parameters>
             <InterpolatingParam id="9656" interp="linr"  time="0/1" value="1" leadInLength="0/1"  name="volume"/>
             <Parameter id="9657"  name="captions"/>
            </Parameters>
            <Attributes>
             <Attribute id="9658" value="" name="ident"/>
             <Attribute id="9659" value="48000" name="sampleRate"/>
             <Attribute id="9660" value="16" name="bitDepth"/>
             <Attribute id="9661" value="1" name="gain"/>
             <Attribute id="9662" value="0" name="mixToMono"/>
            </Attributes>
            <MetaData>
             <entry key="WinSubProjectDisplayName" val=""/>
            </MetaData>
           </AMFile>
           <AMFile id="9663" start="1698" duration="103" scalar="1/1" mediaStart="1734/1" mediaDuration="103/1" trackNumber="0" src="29" channelNumber="0" >
            <Parameters>
             <InterpolatingParam id="9664" interp="linr"  time="0/1" value="1" leadInLength="0/1"  name="volume"/>
             <Parameter id="9665"  name="captions"/>
            </Parameters>
            <Attributes>
             <Attribute id="9666" value="" name="ident"/>
             <Attribute id="9667" value="48000" name="sampleRate"/>
             <Attribute id="9668" value="16" name="bitDepth"/>
             <Attribute id="9669" value="1" name="gain"/>
             <Attribute id="9670" value="0" name="mixToMono"/>
            </Attributes>
            <MetaData>
             <entry key="WinSubProjectDisplayName" val=""/>
            </MetaData>
           </AMFile>
           <AMFile id="9671" start="1801" duration="245" scalar="1/1" mediaStart="2164/1" mediaDuration="245/1" trackNumber="0" src="29" channelNumber="0" >
            <Parameters>
             <InterpolatingParam id="9672" interp="linr"  time="0/1" value="1" leadInLength="0/1"  name="volume"/>
             <Parameter id="9673"  name="captions"/>
            </Parameters>
            <Attributes>
             <Attribute id="9674" value="" name="ident"/>
             <Attribute id="9675" value="48000" name="sampleRate"/>
             <Attribute id="9676" value="16" name="bitDepth"/>
             <Attribute id="9677" value="1" name="gain"/>
             <Attribute id="9678" value="0" name="mixToMono"/>
            </Attributes>
            <MetaData>
             <entry key="WinSubProjectDisplayName" val=""/>
            </MetaData>
           </AMFile>
           <AMFile id="9679" start="2046" duration="202" scalar="1/1" mediaStart="2637/1" mediaDuration="202/1" trackNumber="0" src="29" channelNumber="0" >
            <Parameters>
             <InterpolatingParam id="9680" interp="linr"  time="0/1" value="1" leadInLength="0/1"  name="volume"/>
             <Parameter id="9681"  name="captions"/>
            </Parameters>
            <Attributes>
             <Attribute id="9682" value="" name="ident"/>
             <Attribute id="9683" value="48000" name="sampleRate"/>
             <Attribute id="9684" value="16" name="bitDepth"/>
             <Attribute id="9685" value="1" name="gain"/>
             <Attribute id="9686" value="0" name="mixToMono"/>
            </Attributes>
            <MetaData>
             <entry key="WinSubProjectDisplayName" val=""/>
            </MetaData>
           </AMFile>
           <AMFile id="9687" start="2248" duration="185" scalar="1/1" mediaStart="2856/1" mediaDuration="185/1" trackNumber="0" src="29" channelNumber="0" >
            <Parameters>
             <InterpolatingParam id="9688" interp="linr"  time="0/1" value="1" leadInLength="0/1"  name="volume"/>
             <Parameter id="9689"  name="captions"/>
            </Parameters>
            <Attributes>
             <Attribute id="9690" value="" name="ident"/>
             <Attribute id="9691" value="48000" name="sampleRate"/>
             <Attribute id="9692" value="16" name="bitDepth"/>
             <Attribute id="9693" value="1" name="gain"/>
             <Attribute id="9694" value="0" name="mixToMono"/>
            </Attributes>
            <MetaData>
             <entry key="WinSubProjectDisplayName" val=""/>
            </MetaData>
           </AMFile>
           <AMFile id="9695" start="2433" duration="215" scalar="1/1" mediaStart="3054/1" mediaDuration="215/1" trackNumber="0" src="29" channelNumber="0" >
            <Parameters>
             <InterpolatingParam id="9696" interp="linr"  time="0/1" value="1" leadInLength="0/1"  name="volume"/>
             <Parameter id="9697"  name="captions"/>
            </Parameters>
            <Attributes>
             <Attribute id="9698" value="" name="ident"/>
             <Attribute id="9699" value="48000" name="sampleRate"/>
             <Attribute id="9700" value="16" name="bitDepth"/>
             <Attribute id="9701" value="1" name="gain"/>
             <Attribute id="9702" value="0" name="mixToMono"/>
            </Attributes>
            <MetaData>
             <entry key="WinSubProjectDisplayName" val=""/>
            </MetaData>
           </AMFile>
           <AMFile id="9703" start="2648" duration="155" scalar="1/1" mediaStart="3288/1" mediaDuration="155/1" trackNumber="0" src="29" channelNumber="0" >
            <Parameters>
             <InterpolatingParam id="9704" interp="linr"  time="0/1" value="1" leadInLength="0/1"  name="volume"/>
             <Parameter id="9705"  name="captions"/>
            </Parameters>
            <Attributes>
             <Attribute id="9706" value="" name="ident"/>
             <Attribute id="9707" value="48000" name="sampleRate"/>
             <Attribute id="9708" value="16" name="bitDepth"/>
             <Attribute id="9709" value="1" name="gain"/>
             <Attribute id="9710" value="0" name="mixToMono"/>
            </Attributes>
            <MetaData>
             <entry key="WinSubProjectDisplayName" val=""/>
            </MetaData>
           </AMFile>
           <AMFile id="9711" start="2803" duration="103" scalar="1/1" mediaStart="3450/1" mediaDuration="103/1" trackNumber="0" src="29" channelNumber="0" >
            <Parameters>
             <InterpolatingParam id="9712" interp="linr"  time="0/1" value="1" leadInLength="0/1"  name="volume"/>
             <Parameter id="9713"  name="captions"/>
            </Parameters>
            <Attributes>
             <Attribute id="9714" value="" name="ident"/>
             <Attribute id="9715" value="48000" name="sampleRate"/>
             <Attribute id="9716" value="16" name="bitDepth"/>
             <Attribute id="9717" value="1" name="gain"/>
             <Attribute id="9718" value="0" name="mixToMono"/>
            </Attributes>
            <MetaData>
             <entry key="WinSubProjectDisplayName" val=""/>
            </MetaData>
           </AMFile>
           <AMFile id="9719" start="2906" duration="2683" scalar="1/1" mediaStart="3564/1" mediaDuration="2683/1" trackNumber="0" src="29" channelNumber="0" >
            <Parameters>
             <InterpolatingParam id="9720" interp="linr"  time="0/1" value="1" leadInLength="0/1"  name="volume"/>
             <Parameter id="9721"  name="captions"/>
            </Parameters>
            <Attributes>
             <Attribute id="9722" value="" name="ident"/>
             <Attribute id="9723" value="48000" name="sampleRate"/>
             <Attribute id="9724" value="16" name="bitDepth"/>
             <Attribute id="9725" value="1" name="gain"/>
             <Attribute id="9726" value="0" name="mixToMono"/>
            </Attributes>
            <MetaData>
             <entry key="WinSubProjectDisplayName" val=""/>
            </MetaData>
           </AMFile>
           <AMFile id="9727" start="5589" duration="143" scalar="1/1" mediaStart="6247/1" mediaDuration="143/1" trackNumber="0" src="29" channelNumber="0" >
            <Parameters>
             <InterpolatingParam id="9728" interp="linr"  time="0/1" value="1" leadInLength="0/1"  name="volume"/>
             <Parameter id="9729"  name="captions"/>
            </Parameters>
            <Attributes>
             <Attribute id="9730" value="" name="ident"/>
             <Attribute id="9731" value="48000" name="sampleRate"/>
             <Attribute id="9732" value="16" name="bitDepth"/>
             <Attribute id="9733" value="1" name="gain"/>
             <Attribute id="9734" value="0" name="mixToMono"/>
            </Attributes>
            <MetaData>
             <entry key="WinSubProjectDisplayName" val=""/>
            </MetaData>
           </AMFile>
           <AMFile id="9735" start="5732" duration="285" scalar="1/1" mediaStart="6413/1" mediaDuration="285/1" trackNumber="0" src="29" channelNumber="0" >
            <Parameters>
             <InterpolatingParam id="9736" interp="linr"  time="0/1" value="1" leadInLength="0/1"  name="volume"/>
             <Parameter id="9737"  name="captions"/>
            </Parameters>
            <Attributes>
             <Attribute id="9738" value="" name="ident"/>
             <Attribute id="9739" value="48000" name="sampleRate"/>
             <Attribute id="9740" value="16" name="bitDepth"/>
             <Attribute id="9741" value="1" name="gain"/>
             <Attribute id="9742" value="0" name="mixToMono"/>
            </Attributes>
            <MetaData>
             <entry key="WinSubProjectDisplayName" val=""/>
            </MetaData>
           </AMFile>
           <AMFile id="9743" start="6017" duration="102" scalar="1/1" mediaStart="6729/1" mediaDuration="102/1" trackNumber="0" src="29" channelNumber="0" >
            <Parameters>
             <InterpolatingParam id="9744" interp="linr"  time="0/1" value="1" leadInLength="0/1"  name="volume"/>
             <Parameter id="9745"  name="captions"/>
            </Parameters>
            <Attributes>
             <Attribute id="9746" value="" name="ident"/>
             <Attribute id="9747" value="48000" name="sampleRate"/>
             <Attribute id="9748" value="16" name="bitDepth"/>
             <Attribute id="9749" value="1" name="gain"/>
             <Attribute id="9750" value="0" name="mixToMono"/>
            </Attributes>
            <MetaData>
             <entry key="WinSubProjectDisplayName" val=""/>
            </MetaData>
           </AMFile>
           <AMFile id="9751" start="6119" duration="234" scalar="1/1" mediaStart="6848/1" mediaDuration="234/1" trackNumber="0" src="29" channelNumber="0" >
            <Parameters>
             <InterpolatingParam id="9752" interp="linr"  time="0/1" value="1" leadInLength="0/1"  name="volume"/>
             <Parameter id="9753"  name="captions"/>
            </Parameters>
            <Attributes>
             <Attribute id="9754" value="" name="ident"/>
             <Attribute id="9755" value="48000" name="sampleRate"/>
             <Attribute id="9756" value="16" name="bitDepth"/>
             <Attribute id="9757" value="1" name="gain"/>
             <Attribute id="9758" value="0" name="mixToMono"/>
            </Attributes>
            <MetaData>
             <entry key="WinSubProjectDisplayName" val=""/>
            </MetaData>
           </AMFile>
           <AMFile id="9759" start="6353" duration="107" scalar="1/1" mediaStart="7089/1" mediaDuration="107/1" trackNumber="0" src="29" channelNumber="0" >
            <Parameters>
             <InterpolatingParam id="9760" interp="linr"  time="0/1" value="1" leadInLength="0/1"  name="volume"/>
             <Parameter id="9761"  name="captions"/>
            </Parameters>
            <Attributes>
             <Attribute id="9762" value="" name="ident"/>
             <Attribute id="9763" value="48000" name="sampleRate"/>
             <Attribute id="9764" value="16" name="bitDepth"/>
             <Attribute id="9765" value="1" name="gain"/>
             <Attribute id="9766" value="0" name="mixToMono"/>
            </Attributes>
            <MetaData>
             <entry key="WinSubProjectDisplayName" val=""/>
            </MetaData>
           </AMFile>
           <AMFile id="9767" start="6460" duration="67" scalar="1/1" mediaStart="7207/1" mediaDuration="67/1" trackNumber="0" src="29" channelNumber="0" >
            <Parameters>
             <InterpolatingParam id="9768" interp="linr"  time="0/1" value="1" leadInLength="0/1"  name="volume"/>
             <Parameter id="9769"  name="captions"/>
            </Parameters>
            <Attributes>
             <Attribute id="9770" value="" name="ident"/>
             <Attribute id="9771" value="48000" name="sampleRate"/>
             <Attribute id="9772" value="16" name="bitDepth"/>
             <Attribute id="9773" value="1" name="gain"/>
             <Attribute id="9774" value="0" name="mixToMono"/>
            </Attributes>
            <MetaData>
             <entry key="WinSubProjectDisplayName" val=""/>
            </MetaData>
           </AMFile>
           <AMFile id="9775" start="6527" duration="226" scalar="1/1" mediaStart="7297/1" mediaDuration="226/1" trackNumber="0" src="29" channelNumber="0" >
            <Parameters>
             <InterpolatingParam id="9776" interp="linr"  time="0/1" value="1" leadInLength="0/1"  name="volume"/>
             <Parameter id="9777"  name="captions"/>
            </Parameters>
            <Attributes>
             <Attribute id="9778" value="" name="ident"/>
             <Attribute id="9779" value="48000" name="sampleRate"/>
             <Attribute id="9780" value="16" name="bitDepth"/>
             <Attribute id="9781" value="1" name="gain"/>
             <Attribute id="9782" value="0" name="mixToMono"/>
            </Attributes>
            <MetaData>
             <entry key="WinSubProjectDisplayName" val=""/>
            </MetaData>
           </AMFile>
           <AMFile id="9783" start="6753" duration="117" scalar="1/1" mediaStart="7540/1" mediaDuration="117/1" trackNumber="0" src="29" channelNumber="0" >
            <Parameters>
             <InterpolatingParam id="9784" interp="linr"  time="0/1" value="1" leadInLength="0/1"  name="volume"/>
             <Parameter id="9785"  name="captions"/>
            </Parameters>
            <Attributes>
             <Attribute id="9786" value="" name="ident"/>
             <Attribute id="9787" value="48000" name="sampleRate"/>
             <Attribute id="9788" value="16" name="bitDepth"/>
             <Attribute id="9789" value="1" name="gain"/>
             <Attribute id="9790" value="0" name="mixToMono"/>
            </Attributes>
            <MetaData>
             <entry key="WinSubProjectDisplayName" val=""/>
            </MetaData>
           </AMFile>
           <AMFile id="9791" start="6870" duration="52" scalar="1/1" mediaStart="7796/1" mediaDuration="52/1" trackNumber="0" src="29" channelNumber="0" >
            <Parameters>
             <InterpolatingParam id="9792" interp="linr"  time="0/1" value="1" leadInLength="0/1"  name="volume"/>
             <Parameter id="9793"  name="captions"/>
            </Parameters>
            <Attributes>
             <Attribute id="9794" value="" name="ident"/>
             <Attribute id="9795" value="48000" name="sampleRate"/>
             <Attribute id="9796" value="16" name="bitDepth"/>
             <Attribute id="9797" value="1" name="gain"/>
             <Attribute id="9798" value="0" name="mixToMono"/>
            </Attributes>
            <MetaData>
             <entry key="WinSubProjectDisplayName" val=""/>
            </MetaData>
           </AMFile>
           <AMFile id="9799" start="6922" duration="100" scalar="1/1" mediaStart="8187/1" mediaDuration="100/1" trackNumber="0" src="29" channelNumber="0" >
            <Parameters>
             <InterpolatingParam id="9800" interp="linr"  time="0/1" value="1" leadInLength="0/1"  name="volume"/>
             <Parameter id="9801"  name="captions"/>
            </Parameters>
            <Attributes>
             <Attribute id="9802" value="" name="ident"/>
             <Attribute id="9803" value="48000" name="sampleRate"/>
             <Attribute id="9804" value="16" name="bitDepth"/>
             <Attribute id="9805" value="1" name="gain"/>
             <Attribute id="9806" value="0" name="mixToMono"/>
            </Attributes>
            <MetaData>
             <entry key="WinSubProjectDisplayName" val=""/>
            </MetaData>
           </AMFile>
           <AMFile id="9807" start="7022" duration="1377" scalar="1/1" mediaStart="8303/1" mediaDuration="1377/1" trackNumber="0" src="29" channelNumber="0" >
            <Parameters>
             <InterpolatingParam id="9808" interp="linr"  time="0/1" value="1" leadInLength="0/1"  name="volume"/>
             <Parameter id="9809"  name="captions"/>
            </Parameters>
            <Attributes>
             <Attribute id="9810" value="" name="ident"/>
             <Attribute id="9811" value="48000" name="sampleRate"/>
             <Attribute id="9812" value="16" name="bitDepth"/>
             <Attribute id="9813" value="1" name="gain"/>
             <Attribute id="9814" value="0" name="mixToMono"/>
            </Attributes>
            <MetaData>
             <entry key="WinSubProjectDisplayName" val=""/>
            </MetaData>
           </AMFile>
           <AMFile id="9815" start="8399" duration="3717" scalar="1/1" mediaStart="9929/1" mediaDuration="3717/1" trackNumber="0" src="29" channelNumber="0" >
            <Parameters>
             <InterpolatingParam id="9816" interp="linr"  time="0/1" value="1" leadInLength="0/1"  name="volume"/>
             <Parameter id="9817"  name="captions"/>
            </Parameters>
            <Attributes>
             <Attribute id="9818" value="" name="ident"/>
             <Attribute id="9819" value="48000" name="sampleRate"/>
             <Attribute id="9820" value="16" name="bitDepth"/>
             <Attribute id="9821" value="1" name="gain"/>
             <Attribute id="9822" value="0" name="mixToMono"/>
            </Attributes>
            <MetaData>
             <entry key="WinSubProjectDisplayName" val=""/>
            </MetaData>
           </AMFile>
          </Medias>
         </GenericTrack>
        </StitchedMedia>
        <StitchedMedia id="9823" start="7861" duration="122" scalar="1/1" mediaStart="9840/1" mediaDuration="122/1" minMediaStart="0/1" >
         <Transformer>
          <VectorParam id="9824"  name="translation">
           <InterpolatingParam id="9825" interp="linr"  time="0/1" value="0" leadInLength="0/1"  />
           <InterpolatingParam id="9826" interp="linr"  time="0/1" value="0" leadInLength="0/1"  />
           <InterpolatingParam id="9827" interp="linr"  time="0/1" value="0" leadInLength="0/1"  />
          </VectorParam>
          <VectorParam id="9828"  name="rotation">
           <InterpolatingParam id="9829" interp="linr"  time="0/1" value="0" leadInLength="0/1"  />
           <InterpolatingParam id="9830" interp="linr"  time="0/1" value="0" leadInLength="0/1"  />
           <InterpolatingParam id="9831" interp="linr"  time="0/1" value="0" leadInLength="0/1"  />
          </VectorParam>
          <VectorParam id="9832"  name="shear">
           <InterpolatingParam id="9833" interp="linr"  time="0/1" value="0" leadInLength="0/1"  />
           <InterpolatingParam id="9834" interp="linr"  time="0/1" value="0" leadInLength="0/1"  />
           <InterpolatingParam id="9835" interp="linr"  time="0/1" value="0" leadInLength="0/1"  />
          </VectorParam>
          <VectorParam id="9836"  name="scale">
           <InterpolatingParam id="9837" interp="linr"  time="0/1" value="1" leadInLength="0/1"  />
           <InterpolatingParam id="9838" interp="linr"  time="0/1" value="1" leadInLength="0/1"  />
           <InterpolatingParam id="9839" interp="linr"  time="0/1" value="1" leadInLength="0/1"  />
          </VectorParam>
          <VectorParam id="9840"  name="anchor">
           <InterpolatingParam id="9841" interp="linr"  time="0/1" value="0" leadInLength="0/1"  />
           <InterpolatingParam id="9842" interp="linr"  time="0/1" value="0" leadInLength="0/1"  />
           <InterpolatingParam id="9843" interp="linr"  time="0/1" value="0" leadInLength="0/1"  />
          </VectorParam>
         </Transformer>
         <Parameters>
          <InterpolatingParam id="9844" interp="linr"  time="0/1" value="1" leadInLength="0/1"  name="cursorOpacity"/>
          <InterpolatingParam id="9845" interp="linr"  time="0/1" value="1" leadInLength="0/1"  name="cursorScale"/>
          <InterpolatingParam id="9846" interp="linr"  time="0/1" value="1.5625" leadInLength="0/1"  name="volume"/>
          <Parameter id="9847"  name="captions"/>
         </Parameters>
         <Effects>
          <GenericEffect id="9848" name = "WinCompression" >
           <Parameters>
           <InterpolatingParam id="9849" interp="linr"  time="0/1" value="0" leadInLength="0/1"   name="attack"/>
           <InterpolatingParam id="9850" interp="linr"  time="0/1" value="9" leadInLength="0/1"   name="gain"/>
           <Parameter id="9851"   name="preset">
            <Keyframes>
            <Keyframe id="9852"  time="0/1" value="1" leadInLength="0/1"  />
            </Keyframes>
           </Parameter>
           <InterpolatingParam id="9853" interp="linr"  time="0/1" value="10" leadInLength="0/1"   name="ratio"/>
           <InterpolatingParam id="9854" interp="linr"  time="0/1" value="3500" leadInLength="0/1"   name="release"/>
           <InterpolatingParam id="9855" interp="linr"  time="0/1" value="-20" leadInLength="0/1"   name="threshold"/>
           </Parameters>
          </GenericEffect>
          <GenericEffect id="9856" name = "NoiseReduction" >
           <Parameters>
           <InterpolatingParam id="9857" interp="linr"  time="0/1" value="20" leadInLength="0/1"   name="denoiserAmount"/>
           <InterpolatingParam id="9858" interp="linr"  time="0/1" value="0" leadInLength="0/1"   name="denoiserThreshold"/>
           <Parameter id="9859"   name="noiseProfile">
            <Keyframes>
            <Keyframe id="9860"  time="0/1" value="FBAAAAIAAABErAAAAQIAAIA/l8JLuYTCrOB9wgsMfMJoG4LCaWeFwkohjMJdoYvCYv6LwlnvjcKf&#xD;&#xa;nYzChXWPwlcejsL6fo/C5OmQwgVTj8IVMI/COiWRwoWFkcJ2tYzC8I6MwuQbjcJvEo/ClwGRwheQ&#xD;&#xa;lsK8+pbCN5qVwlielcJ905rCmu+fwst0ncIC/JvCdIWdws3snsKxC5zCfh2cwniFnMJRypzCtRag&#xD;&#xa;wuoCosJQt6DCzoegwhY9ocIWN6PCsNqkwrSlpMJ6maTCYpCkwmLvo8Li+KPCyEamwnBNqMLMcqrC&#xD;&#xa;v2GswoS+q8Kk86vCVACuwnvUr8JxZa/CqHqswrdXq8LqT6zCZsuswhZxrMLBX67CnmqvwpYyrsKc&#xD;&#xa;pq3CJFGvwghrsMK3y6/CXoCtwmWZr8ICi7DCgRezwogSs8Joq7LCm0Sxwuz/scIfibTCOOK1wlIM&#xD;&#xa;t8K87LfCj3K3wqDYs8KT1bLCVsW0wnZ0tcJGhLXCfPe0ws/ntcLGXrbCzAG1wtXdtcKxxrTC1Ay1&#xD;&#xa;wquGtcLjELbC8Zi2wl7rtsJBYbbCMF+1wrEutMKuibTCSFa1wpvktMIu3rTCtGe4wjaduMIKErfC&#xD;&#xa;SLa1wvS/tsJmZrjCdn63whjft8Ie47rCfdi5wmjpt8KKCLjCXmC5wsOQt8JDGbfCK4m4wmpvuMLL&#xD;&#xa;nLjC80q4wjUVusKunLjC1Be5wg4cuMLxCbjCwfW4wmi7ucIOdbvCbLG6whqdusKYErrCbpC4wmq0&#xD;&#xa;ucIoWrvCaNe6ws4iu8LSc7zCUNa7wuJZvMIwLL3CWe28wps2v8J2l77Cv3W+wvgavsKAwrzCQCy8&#xD;&#xa;wgBRu8Km8brChSa6wuM4u8IaaL3Cf5y9wg4hvMLur7vCIpO9wm0fvcIGNLzC7Le8wvKgvMKQrLzC&#xD;&#xa;p6+9wtYtvsJcxbzCQC29wjDqvcKeNbzCH2W8wpbZvsLCTL7CnjO+wuIsvsJs67vCwLq9wiKhvsLs&#xD;&#xa;o73C5Du9wqqhvcLwKr7C2kq/wqEMv8LVCb7Cpla+wsXpvMIs6bvC/fO8wueCvsIM4b3CxtC+wmTo&#xD;&#xa;vcI+arzCTNe8wiFNv8IvKL/Cpg+/woK1v8L4i7/CNv2+wmsVv8KWj77CVym+wnAlv8Joa8DCFDzA&#xD;&#xa;wiQYwcLSIcHCxILAwuxKvsJYm77CPoHAwiYPwcLuy77CcQa+wrB4vcKwYLzCxKW8worIvcIlzr/C&#xD;&#xa;OMC+wuRDvcJGZ7zCxFi9wuQzvMLPbbvCwIe+wm7bvcLm9L3COH6+wuuJvMK2B73CYb+9wqbxvMK/&#xD;&#xa;mL7CqIe9wvCavMKs7L3Ckau8wkpavMKt9LzCF8S+wmgKvsKCy73ClrG+wmIovcIns73Cmg+/wgw7&#xD;&#xa;wMI607/CpEq/wmwVvcJLsLvCMD68wuxdvcIeI7/C+bS+wpxfvsJyxsDC1tO/wmtrv8LNnb/CQiK+&#xD;&#xa;wlz7vcLa6L/CUMXBwtrQwcIAw8HCNJHBwvphwMKqc7/CSkW/wjkvwMK8ccHCHmDBwlKAwcKu+MDC&#xD;&#xa;zErCwuqgwsLa+MLC753DwmjuxcLEWMfCkePFwo47xsKnX8XC7tTCwuf3wsL+HcLCTcTBwmg6w8Is&#xD;&#xa;RMPC+qjDwiyGxMLi58TCnWvFwpjsxsKzCMbCyCTDwpM2wcJWGMPCvuDFwh42xsIfyMTCeLTFwuH7&#xD;&#xa;xMJctcfCVv3HwpTGx8J8b8jCqhjHwrgkx8LXNsfCZkLGwnxSxcL8csXCbu7FwsaQyMLa68fCo0XH&#xD;&#xa;woruxMJGHsbCORbJwry2yMLIUsfCxlfGwmLoxcLSPMnCYPDJwkw3yMKc7crC8vDLwug2y8Lu28vC&#xD;&#xa;OKvMwvLpysKGj8rCtNXLwrMay8KdGMrCUr3JwgIVy8J64MvCkbTJwjh4x8JGI8bCvBXHwnoPycKN&#xD;&#xa;Ss3CuC/Nwuywy8IkJ8zCx9/KwnB5ycKnk8nCenLJwnN6ycKc+sjCLFzJwuTrzMJkJM/CY5vOwoYO&#xD;&#xa;zsLU987CVKfNwiZZzcJQxNDCICHVwi0d18Kc29jCIF/YwtKo2MKeBNvCwpTawmY/2sJXPdvCZZXY&#xD;&#xa;whB818IQNdjCDF3XwtWC1sIGF9fCfFfXwkBy2MJ6+9nC1hfZwi5k2cJlfNjCnEPYwm/N1cKGOdXC&#xD;&#xa;Yk/XwgXL2MJSytfCgpTWwqTT1sJOGtnCrF/ZwtcT2cK08NjCscHZwpQ72sLJ/NrCy3zYwmCk18LE&#xD;&#xa;O9fC6hbYwtYU2cJN/dnC1EbZwrw/2cIqyNbCDr7Xwvb02cLQ+dnCaJvXwuYO18KSodnC1NnawtJJ&#xD;&#xa;18ISLtjC90nawoel2cIwl9jCi0XZwih328Ks7NjC5KzZwqui2cJw0tjCukLYws+O2MJaqtrCUuXa&#xD;&#xa;wviX2MIKxtfCnqXXwhjI2MJwAtvCIFvcwgCL2cJ0/djCdyXawh9H2cJ+ntfCy4TXwhqF2MJ68NnC&#xD;&#xa;CzvYwljT2cIkP9vCIs/bwjpB2sK2A9rCXt/awjZH2sIfltvCKWPcwjp53MKrGd3CaBPewj/03MJm&#xD;&#xa;U97CphfgwlJp3cKQpt3Crxjewm7d28Kq/9vCNNXcwqY728IUH9vCkirbwgIt28KK19zCjmzdwoBH&#xD;&#xa;3MIAUtvCUq3bwo8f28Ig09jCiyfZwhbx2sLWe9zCvgzbwmwI2sI2nNvC0lvdwg6128I8PNvCLufa&#xD;&#xa;wkyK28KkitzCJIDcwmAO28L0TNrCDHXawjla28IQkdzCoCDcwjRI3MJVUdvCtujZwnCs2sK8Yd3C&#xD;&#xa;iGbbwuSB2cImFNvCCI7rwoA/l8JLuYTCrOB9wgsMfMJoG4LCaWeFwkohjMJdoYvCYv6LwlnvjcKf&#xD;&#xa;nYzChXWPwlcejsL6fo/C5OmQwgVTj8IVMI/COiWRwoWFkcJ2tYzC8I6MwuQbjcJvEo/ClwGRwheQ&#xD;&#xa;lsK8+pbCN5qVwlielcJ905rCmu+fwst0ncIC/JvCdIWdws3snsKxC5zCfh2cwniFnMJRypzCtRag&#xD;&#xa;wuoCosJQt6DCzoegwhY9ocIWN6PCsNqkwrSlpMJ6maTCYpCkwmLvo8Li+KPCyEamwnBNqMLMcqrC&#xD;&#xa;v2GswoS+q8Kk86vCVACuwnvUr8JxZa/CqHqswrdXq8LqT6zCZsuswhZxrMLBX67CnmqvwpYyrsKc&#xD;&#xa;pq3CJFGvwghrsMK3y6/CXoCtwmWZr8ICi7DCgRezwogSs8Joq7LCm0Sxwuz/scIfibTCOOK1wlIM&#xD;&#xa;t8K87LfCj3K3wqDYs8KT1bLCVsW0wnZ0tcJGhLXCfPe0ws/ntcLGXrbCzAG1wtXdtcKxxrTC1Ay1&#xD;&#xa;wquGtcLjELbC8Zi2wl7rtsJBYbbCMF+1wrEutMKuibTCSFa1wpvktMIu3rTCtGe4wjaduMIKErfC&#xD;&#xa;SLa1wvS/tsJmZrjCdn63whjft8Ie47rCfdi5wmjpt8KKCLjCXmC5wsOQt8JDGbfCK4m4wmpvuMLL&#xD;&#xa;nLjC80q4wjUVusKunLjC1Be5wg4cuMLxCbjCwfW4wmi7ucIOdbvCbLG6whqdusKYErrCbpC4wmq0&#xD;&#xa;ucIoWrvCaNe6ws4iu8LSc7zCUNa7wuJZvMIwLL3CWe28wps2v8J2l77Cv3W+wvgavsKAwrzCQCy8&#xD;&#xa;wgBRu8Km8brChSa6wuM4u8IaaL3Cf5y9wg4hvMLur7vCIpO9wm0fvcIGNLzC7Le8wvKgvMKQrLzC&#xD;&#xa;p6+9wtYtvsJcxbzCQC29wjDqvcKeNbzCH2W8wpbZvsLCTL7CnjO+wuIsvsJs67vCwLq9wiKhvsLs&#xD;&#xa;o73C5Du9wqqhvcLwKr7C2kq/wqEMv8LVCb7Cpla+wsXpvMIs6bvC/fO8wueCvsIM4b3CxtC+wmTo&#xD;&#xa;vcI+arzCTNe8wiFNv8IvKL/Cpg+/woK1v8L4i7/CNv2+wmsVv8KWj77CVym+wnAlv8Joa8DCFDzA&#xD;&#xa;wiQYwcLSIcHCxILAwuxKvsJYm77CPoHAwiYPwcLuy77CcQa+wrB4vcKwYLzCxKW8worIvcIlzr/C&#xD;&#xa;OMC+wuRDvcJGZ7zCxFi9wuQzvMLPbbvCwIe+wm7bvcLm9L3COH6+wuuJvMK2B73CYb+9wqbxvMK/&#xD;&#xa;mL7CqIe9wvCavMKs7L3Ckau8wkpavMKt9LzCF8S+wmgKvsKCy73ClrG+wmIovcIns73Cmg+/wgw7&#xD;&#xa;wMI607/CpEq/wmwVvcJLsLvCMD68wuxdvcIeI7/C+bS+wpxfvsJyxsDC1tO/wmtrv8LNnb/CQiK+&#xD;&#xa;wlz7vcLa6L/CUMXBwtrQwcIAw8HCNJHBwvphwMKqc7/CSkW/wjkvwMK8ccHCHmDBwlKAwcKu+MDC&#xD;&#xa;zErCwuqgwsLa+MLC753DwmjuxcLEWMfCkePFwo47xsKnX8XC7tTCwuf3wsL+HcLCTcTBwmg6w8Is&#xD;&#xa;RMPC+qjDwiyGxMLi58TCnWvFwpjsxsKzCMbCyCTDwpM2wcJWGMPCvuDFwh42xsIfyMTCeLTFwuH7&#xD;&#xa;xMJctcfCVv3HwpTGx8J8b8jCqhjHwrgkx8LXNsfCZkLGwnxSxcL8csXCbu7FwsaQyMLa68fCo0XH&#xD;&#xa;woruxMJGHsbCORbJwry2yMLIUsfCxlfGwmLoxcLSPMnCYPDJwkw3yMKc7crC8vDLwug2y8Lu28vC&#xD;&#xa;OKvMwvLpysKGj8rCtNXLwrMay8KdGMrCUr3JwgIVy8J64MvCkbTJwjh4x8JGI8bCvBXHwnoPycKN&#xD;&#xa;Ss3CuC/Nwuywy8IkJ8zCx9/KwnB5ycKnk8nCenLJwnN6ycKc+sjCLFzJwuTrzMJkJM/CY5vOwoYO&#xD;&#xa;zsLU987CVKfNwiZZzcJQxNDCICHVwi0d18Kc29jCIF/YwtKo2MKeBNvCwpTawmY/2sJXPdvCZZXY&#xD;&#xa;whB818IQNdjCDF3XwtWC1sIGF9fCfFfXwkBy2MJ6+9nC1hfZwi5k2cJlfNjCnEPYwm/N1cKGOdXC&#xD;&#xa;Yk/XwgXL2MJSytfCgpTWwqTT1sJOGtnCrF/ZwtcT2cK08NjCscHZwpQ72sLJ/NrCy3zYwmCk18LE&#xD;&#xa;O9fC6hbYwtYU2cJN/dnC1EbZwrw/2cIqyNbCDr7Xwvb02cLQ+dnCaJvXwuYO18KSodnC1NnawtJJ&#xD;&#xa;18ISLtjC90nawoel2cIwl9jCi0XZwih328Ks7NjC5KzZwqui2cJw0tjCukLYws+O2MJaqtrCUuXa&#xD;&#xa;wviX2MIKxtfCnqXXwhjI2MJwAtvCIFvcwgCL2cJ0/djCdyXawh9H2cJ+ntfCy4TXwhqF2MJ68NnC&#xD;&#xa;CzvYwljT2cIkP9vCIs/bwjpB2sK2A9rCXt/awjZH2sIfltvCKWPcwjp53MKrGd3CaBPewj/03MJm&#xD;&#xa;U97CphfgwlJp3cKQpt3Crxjewm7d28Kq/9vCNNXcwqY728IUH9vCkirbwgIt28KK19zCjmzdwoBH&#xD;&#xa;3MIAUtvCUq3bwo8f28Ig09jCiyfZwhbx2sLWe9zCvgzbwmwI2sI2nNvC0lvdwg6128I8PNvCLufa&#xD;&#xa;wkyK28KkitzCJIDcwmAO28L0TNrCDHXawjla28IQkdzCoCDcwjRI3MJVUdvCtujZwnCs2sK8Yd3C&#xD;&#xa;iGbbwuSB2cImFNvCCI7r" leadInLength="0/1"  />
            </Keyframes>
           </Parameter>
           </Parameters>
          </GenericEffect>
          <GenericEffect id="9861" name = "Declipper" >
           <Parameters>
           <InterpolatingParam id="9862" interp="linr"  time="0/1" value="-1" leadInLength="0/1"   name="sensitivity"/>
           </Parameters>
          </GenericEffect>
          <GenericEffect id="9863" name = "Declicker" >
           <Parameters>
           <InterpolatingParam id="9864" interp="linr"  time="0/1" value="3" leadInLength="0/1"   name="sensitivity"/>
           </Parameters>
          </GenericEffect>
         </Effects>
         <Attributes>
          <Attribute id="9865" value="" name="ident"/>
          <Attribute id="9866" value="0" name="mixToMono"/>
         </Attributes>
         <MetaData>
          <entry key="WinSubProjectDisplayName" val=""/>
         </MetaData>
         <ExtraData>
          <Entry key="ZoomPanBin">
           <ZoomPanBin id="9867"  >
            <ZoomPanKeyframes>
            </ZoomPanKeyframes>
           </ZoomPanBin>
          </Entry>
          <Entry key="CursorEffectBin">
           <CursorEffectBin id="9868"  >
            <CursorEffectKeyframes>
            </CursorEffectKeyframes>
           </CursorEffectBin>
          </Entry>
         </ExtraData>
         <GenericTrack id="9869"  >
          <Attributes>
           <Attribute id="9870" value="" name="ident"/>
           <Attribute id="9871" value="0" name="audioMuted"/>
           <Attribute id="9872" value="0" name="videoHidden"/>
          </Attributes>
          <MetaData>
           <entry key="IsLocked" val="False"/>
           <entry key="WinTrackHeight" val="0"/>
          </MetaData>
          <Medias>
           <AMFile id="9873" start="0" duration="117" scalar="1/1" mediaStart="0/1" mediaDuration="117/1" trackNumber="0" src="29" channelNumber="0" >
            <Parameters>
             <InterpolatingParam id="9874" interp="linr"  time="0/1" value="1" leadInLength="0/1"  name="volume"/>
             <Parameter id="9875"  name="captions"/>
            </Parameters>
            <Attributes>
             <Attribute id="9876" value="" name="ident"/>
             <Attribute id="9877" value="48000" name="sampleRate"/>
             <Attribute id="9878" value="16" name="bitDepth"/>
             <Attribute id="9879" value="1" name="gain"/>
             <Attribute id="9880" value="0" name="mixToMono"/>
            </Attributes>
            <MetaData>
             <entry key="WinSubProjectDisplayName" val=""/>
            </MetaData>
           </AMFile>
           <AMFile id="9881" start="117" duration="272" scalar="1/1" mediaStart="131/1" mediaDuration="272/1" trackNumber="0" src="29" channelNumber="0" >
            <Parameters>
             <InterpolatingParam id="9882" interp="linr"  time="0/1" value="1" leadInLength="0/1"  name="volume"/>
             <Parameter id="9883"  name="captions"/>
            </Parameters>
            <Attributes>
             <Attribute id="9884" value="" name="ident"/>
             <Attribute id="9885" value="48000" name="sampleRate"/>
             <Attribute id="9886" value="16" name="bitDepth"/>
             <Attribute id="9887" value="1" name="gain"/>
             <Attribute id="9888" value="0" name="mixToMono"/>
            </Attributes>
            <MetaData>
             <entry key="WinSubProjectDisplayName" val=""/>
            </MetaData>
           </AMFile>
           <AMFile id="9889" start="389" duration="1309" scalar="1/1" mediaStart="415/1" mediaDuration="1309/1" trackNumber="0" src="29" channelNumber="0" >
            <Parameters>
             <InterpolatingParam id="9890" interp="linr"  time="0/1" value="1" leadInLength="0/1"  name="volume"/>
             <Parameter id="9891"  name="captions"/>
            </Parameters>
            <Attributes>
             <Attribute id="9892" value="" name="ident"/>
             <Attribute id="9893" value="48000" name="sampleRate"/>
             <Attribute id="9894" value="16" name="bitDepth"/>
             <Attribute id="9895" value="1" name="gain"/>
             <Attribute id="9896" value="0" name="mixToMono"/>
            </Attributes>
            <MetaData>
             <entry key="WinSubProjectDisplayName" val=""/>
            </MetaData>
           </AMFile>
           <AMFile id="9897" start="1698" duration="103" scalar="1/1" mediaStart="1734/1" mediaDuration="103/1" trackNumber="0" src="29" channelNumber="0" >
            <Parameters>
             <InterpolatingParam id="9898" interp="linr"  time="0/1" value="1" leadInLength="0/1"  name="volume"/>
             <Parameter id="9899"  name="captions"/>
            </Parameters>
            <Attributes>
             <Attribute id="9900" value="" name="ident"/>
             <Attribute id="9901" value="48000" name="sampleRate"/>
             <Attribute id="9902" value="16" name="bitDepth"/>
             <Attribute id="9903" value="1" name="gain"/>
             <Attribute id="9904" value="0" name="mixToMono"/>
            </Attributes>
            <MetaData>
             <entry key="WinSubProjectDisplayName" val=""/>
            </MetaData>
           </AMFile>
           <AMFile id="9905" start="1801" duration="245" scalar="1/1" mediaStart="2164/1" mediaDuration="245/1" trackNumber="0" src="29" channelNumber="0" >
            <Parameters>
             <InterpolatingParam id="9906" interp="linr"  time="0/1" value="1" leadInLength="0/1"  name="volume"/>
             <Parameter id="9907"  name="captions"/>
            </Parameters>
            <Attributes>
             <Attribute id="9908" value="" name="ident"/>
             <Attribute id="9909" value="48000" name="sampleRate"/>
             <Attribute id="9910" value="16" name="bitDepth"/>
             <Attribute id="9911" value="1" name="gain"/>
             <Attribute id="9912" value="0" name="mixToMono"/>
            </Attributes>
            <MetaData>
             <entry key="WinSubProjectDisplayName" val=""/>
            </MetaData>
           </AMFile>
           <AMFile id="9913" start="2046" duration="202" scalar="1/1" mediaStart="2637/1" mediaDuration="202/1" trackNumber="0" src="29" channelNumber="0" >
            <Parameters>
             <InterpolatingParam id="9914" interp="linr"  time="0/1" value="1" leadInLength="0/1"  name="volume"/>
             <Parameter id="9915"  name="captions"/>
            </Parameters>
            <Attributes>
             <Attribute id="9916" value="" name="ident"/>
             <Attribute id="9917" value="48000" name="sampleRate"/>
             <Attribute id="9918" value="16" name="bitDepth"/>
             <Attribute id="9919" value="1" name="gain"/>
             <Attribute id="9920" value="0" name="mixToMono"/>
            </Attributes>
            <MetaData>
             <entry key="WinSubProjectDisplayName" val=""/>
            </MetaData>
           </AMFile>
           <AMFile id="9921" start="2248" duration="185" scalar="1/1" mediaStart="2856/1" mediaDuration="185/1" trackNumber="0" src="29" channelNumber="0" >
            <Parameters>
             <InterpolatingParam id="9922" interp="linr"  time="0/1" value="1" leadInLength="0/1"  name="volume"/>
             <Parameter id="9923"  name="captions"/>
            </Parameters>
            <Attributes>
             <Attribute id="9924" value="" name="ident"/>
             <Attribute id="9925" value="48000" name="sampleRate"/>
             <Attribute id="9926" value="16" name="bitDepth"/>
             <Attribute id="9927" value="1" name="gain"/>
             <Attribute id="9928" value="0" name="mixToMono"/>
            </Attributes>
            <MetaData>
             <entry key="WinSubProjectDisplayName" val=""/>
            </MetaData>
           </AMFile>
           <AMFile id="9929" start="2433" duration="215" scalar="1/1" mediaStart="3054/1" mediaDuration="215/1" trackNumber="0" src="29" channelNumber="0" >
            <Parameters>
             <InterpolatingParam id="9930" interp="linr"  time="0/1" value="1" leadInLength="0/1"  name="volume"/>
             <Parameter id="9931"  name="captions"/>
            </Parameters>
            <Attributes>
             <Attribute id="9932" value="" name="ident"/>
             <Attribute id="9933" value="48000" name="sampleRate"/>
             <Attribute id="9934" value="16" name="bitDepth"/>
             <Attribute id="9935" value="1" name="gain"/>
             <Attribute id="9936" value="0" name="mixToMono"/>
            </Attributes>
            <MetaData>
             <entry key="WinSubProjectDisplayName" val=""/>
            </MetaData>
           </AMFile>
           <AMFile id="9937" start="2648" duration="155" scalar="1/1" mediaStart="3288/1" mediaDuration="155/1" trackNumber="0" src="29" channelNumber="0" >
            <Parameters>
             <InterpolatingParam id="9938" interp="linr"  time="0/1" value="1" leadInLength="0/1"  name="volume"/>
             <Parameter id="9939"  name="captions"/>
            </Parameters>
            <Attributes>
             <Attribute id="9940" value="" name="ident"/>
             <Attribute id="9941" value="48000" name="sampleRate"/>
             <Attribute id="9942" value="16" name="bitDepth"/>
             <Attribute id="9943" value="1" name="gain"/>
             <Attribute id="9944" value="0" name="mixToMono"/>
            </Attributes>
            <MetaData>
             <entry key="WinSubProjectDisplayName" val=""/>
            </MetaData>
           </AMFile>
           <AMFile id="9945" start="2803" duration="103" scalar="1/1" mediaStart="3450/1" mediaDuration="103/1" trackNumber="0" src="29" channelNumber="0" >
            <Parameters>
             <InterpolatingParam id="9946" interp="linr"  time="0/1" value="1" leadInLength="0/1"  name="volume"/>
             <Parameter id="9947"  name="captions"/>
            </Parameters>
            <Attributes>
             <Attribute id="9948" value="" name="ident"/>
             <Attribute id="9949" value="48000" name="sampleRate"/>
             <Attribute id="9950" value="16" name="bitDepth"/>
             <Attribute id="9951" value="1" name="gain"/>
             <Attribute id="9952" value="0" name="mixToMono"/>
            </Attributes>
            <MetaData>
             <entry key="WinSubProjectDisplayName" val=""/>
            </MetaData>
           </AMFile>
           <AMFile id="9953" start="2906" duration="2683" scalar="1/1" mediaStart="3564/1" mediaDuration="2683/1" trackNumber="0" src="29" channelNumber="0" >
            <Parameters>
             <InterpolatingParam id="9954" interp="linr"  time="0/1" value="1" leadInLength="0/1"  name="volume"/>
             <Parameter id="9955"  name="captions"/>
            </Parameters>
            <Attributes>
             <Attribute id="9956" value="" name="ident"/>
             <Attribute id="9957" value="48000" name="sampleRate"/>
             <Attribute id="9958" value="16" name="bitDepth"/>
             <Attribute id="9959" value="1" name="gain"/>
             <Attribute id="9960" value="0" name="mixToMono"/>
            </Attributes>
            <MetaData>
             <entry key="WinSubProjectDisplayName" val=""/>
            </MetaData>
           </AMFile>
           <AMFile id="9961" start="5589" duration="143" scalar="1/1" mediaStart="6247/1" mediaDuration="143/1" trackNumber="0" src="29" channelNumber="0" >
            <Parameters>
             <InterpolatingParam id="9962" interp="linr"  time="0/1" value="1" leadInLength="0/1"  name="volume"/>
             <Parameter id="9963"  name="captions"/>
            </Parameters>
            <Attributes>
             <Attribute id="9964" value="" name="ident"/>
             <Attribute id="9965" value="48000" name="sampleRate"/>
             <Attribute id="9966" value="16" name="bitDepth"/>
             <Attribute id="9967" value="1" name="gain"/>
             <Attribute id="9968" value="0" name="mixToMono"/>
            </Attributes>
            <MetaData>
             <entry key="WinSubProjectDisplayName" val=""/>
            </MetaData>
           </AMFile>
           <AMFile id="9969" start="5732" duration="285" scalar="1/1" mediaStart="6413/1" mediaDuration="285/1" trackNumber="0" src="29" channelNumber="0" >
            <Parameters>
             <InterpolatingParam id="9970" interp="linr"  time="0/1" value="1" leadInLength="0/1"  name="volume"/>
             <Parameter id="9971"  name="captions"/>
            </Parameters>
            <Attributes>
             <Attribute id="9972" value="" name="ident"/>
             <Attribute id="9973" value="48000" name="sampleRate"/>
             <Attribute id="9974" value="16" name="bitDepth"/>
             <Attribute id="9975" value="1" name="gain"/>
             <Attribute id="9976" value="0" name="mixToMono"/>
            </Attributes>
            <MetaData>
             <entry key="WinSubProjectDisplayName" val=""/>
            </MetaData>
           </AMFile>
           <AMFile id="9977" start="6017" duration="102" scalar="1/1" mediaStart="6729/1" mediaDuration="102/1" trackNumber="0" src="29" channelNumber="0" >
            <Parameters>
             <InterpolatingParam id="9978" interp="linr"  time="0/1" value="1" leadInLength="0/1"  name="volume"/>
             <Parameter id="9979"  name="captions"/>
            </Parameters>
            <Attributes>
             <Attribute id="9980" value="" name="ident"/>
             <Attribute id="9981" value="48000" name="sampleRate"/>
             <Attribute id="9982" value="16" name="bitDepth"/>
             <Attribute id="9983" value="1" name="gain"/>
             <Attribute id="9984" value="0" name="mixToMono"/>
            </Attributes>
            <MetaData>
             <entry key="WinSubProjectDisplayName" val=""/>
            </MetaData>
           </AMFile>
           <AMFile id="9985" start="6119" duration="234" scalar="1/1" mediaStart="6848/1" mediaDuration="234/1" trackNumber="0" src="29" channelNumber="0" >
            <Parameters>
             <InterpolatingParam id="9986" interp="linr"  time="0/1" value="1" leadInLength="0/1"  name="volume"/>
             <Parameter id="9987"  name="captions"/>
            </Parameters>
            <Attributes>
             <Attribute id="9988" value="" name="ident"/>
             <Attribute id="9989" value="48000" name="sampleRate"/>
             <Attribute id="9990" value="16" name="bitDepth"/>
             <Attribute id="9991" value="1" name="gain"/>
             <Attribute id="9992" value="0" name="mixToMono"/>
            </Attributes>
            <MetaData>
             <entry key="WinSubProjectDisplayName" val=""/>
            </MetaData>
           </AMFile>
           <AMFile id="9993" start="6353" duration="107" scalar="1/1" mediaStart="7089/1" mediaDuration="107/1" trackNumber="0" src="29" channelNumber="0" >
            <Parameters>
             <InterpolatingParam id="9994" interp="linr"  time="0/1" value="1" leadInLength="0/1"  name="volume"/>
             <Parameter id="9995"  name="captions"/>
            </Parameters>
            <Attributes>
             <Attribute id="9996" value="" name="ident"/>
             <Attribute id="9997" value="48000" name="sampleRate"/>
             <Attribute id="9998" value="16" name="bitDepth"/>
             <Attribute id="9999" value="1" name="gain"/>
             <Attribute id="10000" value="0" name="mixToMono"/>
            </Attributes>
            <MetaData>
             <entry key="WinSubProjectDisplayName" val=""/>
            </MetaData>
           </AMFile>
           <AMFile id="10001" start="6460" duration="67" scalar="1/1" mediaStart="7207/1" mediaDuration="67/1" trackNumber="0" src="29" channelNumber="0" >
            <Parameters>
             <InterpolatingParam id="10002" interp="linr"  time="0/1" value="1" leadInLength="0/1"  name="volume"/>
             <Parameter id="10003"  name="captions"/>
            </Parameters>
            <Attributes>
             <Attribute id="10004" value="" name="ident"/>
             <Attribute id="10005" value="48000" name="sampleRate"/>
             <Attribute id="10006" value="16" name="bitDepth"/>
             <Attribute id="10007" value="1" name="gain"/>
             <Attribute id="10008" value="0" name="mixToMono"/>
            </Attributes>
            <MetaData>
             <entry key="WinSubProjectDisplayName" val=""/>
            </MetaData>
           </AMFile>
           <AMFile id="10009" start="6527" duration="226" scalar="1/1" mediaStart="7297/1" mediaDuration="226/1" trackNumber="0" src="29" channelNumber="0" >
            <Parameters>
             <InterpolatingParam id="10010" interp="linr"  time="0/1" value="1" leadInLength="0/1"  name="volume"/>
             <Parameter id="10011"  name="captions"/>
            </Parameters>
            <Attributes>
             <Attribute id="10012" value="" name="ident"/>
             <Attribute id="10013" value="48000" name="sampleRate"/>
             <Attribute id="10014" value="16" name="bitDepth"/>
             <Attribute id="10015" value="1" name="gain"/>
             <Attribute id="10016" value="0" name="mixToMono"/>
            </Attributes>
            <MetaData>
             <entry key="WinSubProjectDisplayName" val=""/>
            </MetaData>
           </AMFile>
           <AMFile id="10017" start="6753" duration="117" scalar="1/1" mediaStart="7540/1" mediaDuration="117/1" trackNumber="0" src="29" channelNumber="0" >
            <Parameters>
             <InterpolatingParam id="10018" interp="linr"  time="0/1" value="1" leadInLength="0/1"  name="volume"/>
             <Parameter id="10019"  name="captions"/>
            </Parameters>
            <Attributes>
             <Attribute id="10020" value="" name="ident"/>
             <Attribute id="10021" value="48000" name="sampleRate"/>
             <Attribute id="10022" value="16" name="bitDepth"/>
             <Attribute id="10023" value="1" name="gain"/>
             <Attribute id="10024" value="0" name="mixToMono"/>
            </Attributes>
            <MetaData>
             <entry key="WinSubProjectDisplayName" val=""/>
            </MetaData>
           </AMFile>
           <AMFile id="10025" start="6870" duration="52" scalar="1/1" mediaStart="7796/1" mediaDuration="52/1" trackNumber="0" src="29" channelNumber="0" >
            <Parameters>
             <InterpolatingParam id="10026" interp="linr"  time="0/1" value="1" leadInLength="0/1"  name="volume"/>
             <Parameter id="10027"  name="captions"/>
            </Parameters>
            <Attributes>
             <Attribute id="10028" value="" name="ident"/>
             <Attribute id="10029" value="48000" name="sampleRate"/>
             <Attribute id="10030" value="16" name="bitDepth"/>
             <Attribute id="10031" value="1" name="gain"/>
             <Attribute id="10032" value="0" name="mixToMono"/>
            </Attributes>
            <MetaData>
             <entry key="WinSubProjectDisplayName" val=""/>
            </MetaData>
           </AMFile>
           <AMFile id="10033" start="6922" duration="100" scalar="1/1" mediaStart="8187/1" mediaDuration="100/1" trackNumber="0" src="29" channelNumber="0" >
            <Parameters>
             <InterpolatingParam id="10034" interp="linr"  time="0/1" value="1" leadInLength="0/1"  name="volume"/>
             <Parameter id="10035"  name="captions"/>
            </Parameters>
            <Attributes>
             <Attribute id="10036" value="" name="ident"/>
             <Attribute id="10037" value="48000" name="sampleRate"/>
             <Attribute id="10038" value="16" name="bitDepth"/>
             <Attribute id="10039" value="1" name="gain"/>
             <Attribute id="10040" value="0" name="mixToMono"/>
            </Attributes>
            <MetaData>
             <entry key="WinSubProjectDisplayName" val=""/>
            </MetaData>
           </AMFile>
           <AMFile id="10041" start="7022" duration="1377" scalar="1/1" mediaStart="8303/1" mediaDuration="1377/1" trackNumber="0" src="29" channelNumber="0" >
            <Parameters>
             <InterpolatingParam id="10042" interp="linr"  time="0/1" value="1" leadInLength="0/1"  name="volume"/>
             <Parameter id="10043"  name="captions"/>
            </Parameters>
            <Attributes>
             <Attribute id="10044" value="" name="ident"/>
             <Attribute id="10045" value="48000" name="sampleRate"/>
             <Attribute id="10046" value="16" name="bitDepth"/>
             <Attribute id="10047" value="1" name="gain"/>
             <Attribute id="10048" value="0" name="mixToMono"/>
            </Attributes>
            <MetaData>
             <entry key="WinSubProjectDisplayName" val=""/>
            </MetaData>
           </AMFile>
           <AMFile id="10049" start="8399" duration="3717" scalar="1/1" mediaStart="9929/1" mediaDuration="3717/1" trackNumber="0" src="29" channelNumber="0" >
            <Parameters>
             <InterpolatingParam id="10050" interp="linr"  time="0/1" value="1" leadInLength="0/1"  name="volume"/>
             <Parameter id="10051"  name="captions"/>
            </Parameters>
            <Attributes>
             <Attribute id="10052" value="" name="ident"/>
             <Attribute id="10053" value="48000" name="sampleRate"/>
             <Attribute id="10054" value="16" name="bitDepth"/>
             <Attribute id="10055" value="1" name="gain"/>
             <Attribute id="10056" value="0" name="mixToMono"/>
            </Attributes>
            <MetaData>
             <entry key="WinSubProjectDisplayName" val=""/>
            </MetaData>
           </AMFile>
          </Medias>
         </GenericTrack>
        </StitchedMedia>
        <StitchedMedia id="10057" start="7983" duration="408" scalar="1/1" mediaStart="10098/1" mediaDuration="408/1" minMediaStart="0/1" >
         <Transformer>
          <VectorParam id="10058"  name="translation">
           <InterpolatingParam id="10059" interp="linr"  time="0/1" value="0" leadInLength="0/1"  />
           <InterpolatingParam id="10060" interp="linr"  time="0/1" value="0" leadInLength="0/1"  />
           <InterpolatingParam id="10061" interp="linr"  time="0/1" value="0" leadInLength="0/1"  />
          </VectorParam>
          <VectorParam id="10062"  name="rotation">
           <InterpolatingParam id="10063" interp="linr"  time="0/1" value="0" leadInLength="0/1"  />
           <InterpolatingParam id="10064" interp="linr"  time="0/1" value="0" leadInLength="0/1"  />
           <InterpolatingParam id="10065" interp="linr"  time="0/1" value="0" leadInLength="0/1"  />
          </VectorParam>
          <VectorParam id="10066"  name="shear">
           <InterpolatingParam id="10067" interp="linr"  time="0/1" value="0" leadInLength="0/1"  />
           <InterpolatingParam id="10068" interp="linr"  time="0/1" value="0" leadInLength="0/1"  />
           <InterpolatingParam id="10069" interp="linr"  time="0/1" value="0" leadInLength="0/1"  />
          </VectorParam>
          <VectorParam id="10070"  name="scale">
           <InterpolatingParam id="10071" interp="linr"  time="0/1" value="1" leadInLength="0/1"  />
           <InterpolatingParam id="10072" interp="linr"  time="0/1" value="1" leadInLength="0/1"  />
           <InterpolatingParam id="10073" interp="linr"  time="0/1" value="1" leadInLength="0/1"  />
          </VectorParam>
          <VectorParam id="10074"  name="anchor">
           <InterpolatingParam id="10075" interp="linr"  time="0/1" value="0" leadInLength="0/1"  />
           <InterpolatingParam id="10076" interp="linr"  time="0/1" value="0" leadInLength="0/1"  />
           <InterpolatingParam id="10077" interp="linr"  time="0/1" value="0" leadInLength="0/1"  />
          </VectorParam>
         </Transformer>
         <Parameters>
          <InterpolatingParam id="10078" interp="linr"  time="0/1" value="1" leadInLength="0/1"  name="cursorOpacity"/>
          <InterpolatingParam id="10079" interp="linr"  time="0/1" value="1" leadInLength="0/1"  name="cursorScale"/>
          <InterpolatingParam id="10080" interp="linr"  time="0/1" value="1.5625" leadInLength="0/1"  name="volume"/>
          <Parameter id="10081"  name="captions"/>
         </Parameters>
         <Effects>
          <GenericEffect id="10082" name = "WinCompression" >
           <Parameters>
           <InterpolatingParam id="10083" interp="linr"  time="0/1" value="0" leadInLength="0/1"   name="attack"/>
           <InterpolatingParam id="10084" interp="linr"  time="0/1" value="9" leadInLength="0/1"   name="gain"/>
           <Parameter id="10085"   name="preset">
            <Keyframes>
            <Keyframe id="10086"  time="0/1" value="1" leadInLength="0/1"  />
            </Keyframes>
           </Parameter>
           <InterpolatingParam id="10087" interp="linr"  time="0/1" value="10" leadInLength="0/1"   name="ratio"/>
           <InterpolatingParam id="10088" interp="linr"  time="0/1" value="3500" leadInLength="0/1"   name="release"/>
           <InterpolatingParam id="10089" interp="linr"  time="0/1" value="-20" leadInLength="0/1"   name="threshold"/>
           </Parameters>
          </GenericEffect>
          <GenericEffect id="10090" name = "NoiseReduction" >
           <Parameters>
           <InterpolatingParam id="10091" interp="linr"  time="0/1" value="20" leadInLength="0/1"   name="denoiserAmount"/>
           <InterpolatingParam id="10092" interp="linr"  time="0/1" value="0" leadInLength="0/1"   name="denoiserThreshold"/>
           <Parameter id="10093"   name="noiseProfile">
            <Keyframes>
            <Keyframe id="10094"  time="0/1" value="FBAAAAIAAABErAAAAQIAAIA/l8JLuYTCrOB9wgsMfMJoG4LCaWeFwkohjMJdoYvCYv6LwlnvjcKf&#xD;&#xa;nYzChXWPwlcejsL6fo/C5OmQwgVTj8IVMI/COiWRwoWFkcJ2tYzC8I6MwuQbjcJvEo/ClwGRwheQ&#xD;&#xa;lsK8+pbCN5qVwlielcJ905rCmu+fwst0ncIC/JvCdIWdws3snsKxC5zCfh2cwniFnMJRypzCtRag&#xD;&#xa;wuoCosJQt6DCzoegwhY9ocIWN6PCsNqkwrSlpMJ6maTCYpCkwmLvo8Li+KPCyEamwnBNqMLMcqrC&#xD;&#xa;v2GswoS+q8Kk86vCVACuwnvUr8JxZa/CqHqswrdXq8LqT6zCZsuswhZxrMLBX67CnmqvwpYyrsKc&#xD;&#xa;pq3CJFGvwghrsMK3y6/CXoCtwmWZr8ICi7DCgRezwogSs8Joq7LCm0Sxwuz/scIfibTCOOK1wlIM&#xD;&#xa;t8K87LfCj3K3wqDYs8KT1bLCVsW0wnZ0tcJGhLXCfPe0ws/ntcLGXrbCzAG1wtXdtcKxxrTC1Ay1&#xD;&#xa;wquGtcLjELbC8Zi2wl7rtsJBYbbCMF+1wrEutMKuibTCSFa1wpvktMIu3rTCtGe4wjaduMIKErfC&#xD;&#xa;SLa1wvS/tsJmZrjCdn63whjft8Ie47rCfdi5wmjpt8KKCLjCXmC5wsOQt8JDGbfCK4m4wmpvuMLL&#xD;&#xa;nLjC80q4wjUVusKunLjC1Be5wg4cuMLxCbjCwfW4wmi7ucIOdbvCbLG6whqdusKYErrCbpC4wmq0&#xD;&#xa;ucIoWrvCaNe6ws4iu8LSc7zCUNa7wuJZvMIwLL3CWe28wps2v8J2l77Cv3W+wvgavsKAwrzCQCy8&#xD;&#xa;wgBRu8Km8brChSa6wuM4u8IaaL3Cf5y9wg4hvMLur7vCIpO9wm0fvcIGNLzC7Le8wvKgvMKQrLzC&#xD;&#xa;p6+9wtYtvsJcxbzCQC29wjDqvcKeNbzCH2W8wpbZvsLCTL7CnjO+wuIsvsJs67vCwLq9wiKhvsLs&#xD;&#xa;o73C5Du9wqqhvcLwKr7C2kq/wqEMv8LVCb7Cpla+wsXpvMIs6bvC/fO8wueCvsIM4b3CxtC+wmTo&#xD;&#xa;vcI+arzCTNe8wiFNv8IvKL/Cpg+/woK1v8L4i7/CNv2+wmsVv8KWj77CVym+wnAlv8Joa8DCFDzA&#xD;&#xa;wiQYwcLSIcHCxILAwuxKvsJYm77CPoHAwiYPwcLuy77CcQa+wrB4vcKwYLzCxKW8worIvcIlzr/C&#xD;&#xa;OMC+wuRDvcJGZ7zCxFi9wuQzvMLPbbvCwIe+wm7bvcLm9L3COH6+wuuJvMK2B73CYb+9wqbxvMK/&#xD;&#xa;mL7CqIe9wvCavMKs7L3Ckau8wkpavMKt9LzCF8S+wmgKvsKCy73ClrG+wmIovcIns73Cmg+/wgw7&#xD;&#xa;wMI607/CpEq/wmwVvcJLsLvCMD68wuxdvcIeI7/C+bS+wpxfvsJyxsDC1tO/wmtrv8LNnb/CQiK+&#xD;&#xa;wlz7vcLa6L/CUMXBwtrQwcIAw8HCNJHBwvphwMKqc7/CSkW/wjkvwMK8ccHCHmDBwlKAwcKu+MDC&#xD;&#xa;zErCwuqgwsLa+MLC753DwmjuxcLEWMfCkePFwo47xsKnX8XC7tTCwuf3wsL+HcLCTcTBwmg6w8Is&#xD;&#xa;RMPC+qjDwiyGxMLi58TCnWvFwpjsxsKzCMbCyCTDwpM2wcJWGMPCvuDFwh42xsIfyMTCeLTFwuH7&#xD;&#xa;xMJctcfCVv3HwpTGx8J8b8jCqhjHwrgkx8LXNsfCZkLGwnxSxcL8csXCbu7FwsaQyMLa68fCo0XH&#xD;&#xa;woruxMJGHsbCORbJwry2yMLIUsfCxlfGwmLoxcLSPMnCYPDJwkw3yMKc7crC8vDLwug2y8Lu28vC&#xD;&#xa;OKvMwvLpysKGj8rCtNXLwrMay8KdGMrCUr3JwgIVy8J64MvCkbTJwjh4x8JGI8bCvBXHwnoPycKN&#xD;&#xa;Ss3CuC/Nwuywy8IkJ8zCx9/KwnB5ycKnk8nCenLJwnN6ycKc+sjCLFzJwuTrzMJkJM/CY5vOwoYO&#xD;&#xa;zsLU987CVKfNwiZZzcJQxNDCICHVwi0d18Kc29jCIF/YwtKo2MKeBNvCwpTawmY/2sJXPdvCZZXY&#xD;&#xa;whB818IQNdjCDF3XwtWC1sIGF9fCfFfXwkBy2MJ6+9nC1hfZwi5k2cJlfNjCnEPYwm/N1cKGOdXC&#xD;&#xa;Yk/XwgXL2MJSytfCgpTWwqTT1sJOGtnCrF/ZwtcT2cK08NjCscHZwpQ72sLJ/NrCy3zYwmCk18LE&#xD;&#xa;O9fC6hbYwtYU2cJN/dnC1EbZwrw/2cIqyNbCDr7Xwvb02cLQ+dnCaJvXwuYO18KSodnC1NnawtJJ&#xD;&#xa;18ISLtjC90nawoel2cIwl9jCi0XZwih328Ks7NjC5KzZwqui2cJw0tjCukLYws+O2MJaqtrCUuXa&#xD;&#xa;wviX2MIKxtfCnqXXwhjI2MJwAtvCIFvcwgCL2cJ0/djCdyXawh9H2cJ+ntfCy4TXwhqF2MJ68NnC&#xD;&#xa;CzvYwljT2cIkP9vCIs/bwjpB2sK2A9rCXt/awjZH2sIfltvCKWPcwjp53MKrGd3CaBPewj/03MJm&#xD;&#xa;U97CphfgwlJp3cKQpt3Crxjewm7d28Kq/9vCNNXcwqY728IUH9vCkirbwgIt28KK19zCjmzdwoBH&#xD;&#xa;3MIAUtvCUq3bwo8f28Ig09jCiyfZwhbx2sLWe9zCvgzbwmwI2sI2nNvC0lvdwg6128I8PNvCLufa&#xD;&#xa;wkyK28KkitzCJIDcwmAO28L0TNrCDHXawjla28IQkdzCoCDcwjRI3MJVUdvCtujZwnCs2sK8Yd3C&#xD;&#xa;iGbbwuSB2cImFNvCCI7rwoA/l8JLuYTCrOB9wgsMfMJoG4LCaWeFwkohjMJdoYvCYv6LwlnvjcKf&#xD;&#xa;nYzChXWPwlcejsL6fo/C5OmQwgVTj8IVMI/COiWRwoWFkcJ2tYzC8I6MwuQbjcJvEo/ClwGRwheQ&#xD;&#xa;lsK8+pbCN5qVwlielcJ905rCmu+fwst0ncIC/JvCdIWdws3snsKxC5zCfh2cwniFnMJRypzCtRag&#xD;&#xa;wuoCosJQt6DCzoegwhY9ocIWN6PCsNqkwrSlpMJ6maTCYpCkwmLvo8Li+KPCyEamwnBNqMLMcqrC&#xD;&#xa;v2GswoS+q8Kk86vCVACuwnvUr8JxZa/CqHqswrdXq8LqT6zCZsuswhZxrMLBX67CnmqvwpYyrsKc&#xD;&#xa;pq3CJFGvwghrsMK3y6/CXoCtwmWZr8ICi7DCgRezwogSs8Joq7LCm0Sxwuz/scIfibTCOOK1wlIM&#xD;&#xa;t8K87LfCj3K3wqDYs8KT1bLCVsW0wnZ0tcJGhLXCfPe0ws/ntcLGXrbCzAG1wtXdtcKxxrTC1Ay1&#xD;&#xa;wquGtcLjELbC8Zi2wl7rtsJBYbbCMF+1wrEutMKuibTCSFa1wpvktMIu3rTCtGe4wjaduMIKErfC&#xD;&#xa;SLa1wvS/tsJmZrjCdn63whjft8Ie47rCfdi5wmjpt8KKCLjCXmC5wsOQt8JDGbfCK4m4wmpvuMLL&#xD;&#xa;nLjC80q4wjUVusKunLjC1Be5wg4cuMLxCbjCwfW4wmi7ucIOdbvCbLG6whqdusKYErrCbpC4wmq0&#xD;&#xa;ucIoWrvCaNe6ws4iu8LSc7zCUNa7wuJZvMIwLL3CWe28wps2v8J2l77Cv3W+wvgavsKAwrzCQCy8&#xD;&#xa;wgBRu8Km8brChSa6wuM4u8IaaL3Cf5y9wg4hvMLur7vCIpO9wm0fvcIGNLzC7Le8wvKgvMKQrLzC&#xD;&#xa;p6+9wtYtvsJcxbzCQC29wjDqvcKeNbzCH2W8wpbZvsLCTL7CnjO+wuIsvsJs67vCwLq9wiKhvsLs&#xD;&#xa;o73C5Du9wqqhvcLwKr7C2kq/wqEMv8LVCb7Cpla+wsXpvMIs6bvC/fO8wueCvsIM4b3CxtC+wmTo&#xD;&#xa;vcI+arzCTNe8wiFNv8IvKL/Cpg+/woK1v8L4i7/CNv2+wmsVv8KWj77CVym+wnAlv8Joa8DCFDzA&#xD;&#xa;wiQYwcLSIcHCxILAwuxKvsJYm77CPoHAwiYPwcLuy77CcQa+wrB4vcKwYLzCxKW8worIvcIlzr/C&#xD;&#xa;OMC+wuRDvcJGZ7zCxFi9wuQzvMLPbbvCwIe+wm7bvcLm9L3COH6+wuuJvMK2B73CYb+9wqbxvMK/&#xD;&#xa;mL7CqIe9wvCavMKs7L3Ckau8wkpavMKt9LzCF8S+wmgKvsKCy73ClrG+wmIovcIns73Cmg+/wgw7&#xD;&#xa;wMI607/CpEq/wmwVvcJLsLvCMD68wuxdvcIeI7/C+bS+wpxfvsJyxsDC1tO/wmtrv8LNnb/CQiK+&#xD;&#xa;wlz7vcLa6L/CUMXBwtrQwcIAw8HCNJHBwvphwMKqc7/CSkW/wjkvwMK8ccHCHmDBwlKAwcKu+MDC&#xD;&#xa;zErCwuqgwsLa+MLC753DwmjuxcLEWMfCkePFwo47xsKnX8XC7tTCwuf3wsL+HcLCTcTBwmg6w8Is&#xD;&#xa;RMPC+qjDwiyGxMLi58TCnWvFwpjsxsKzCMbCyCTDwpM2wcJWGMPCvuDFwh42xsIfyMTCeLTFwuH7&#xD;&#xa;xMJctcfCVv3HwpTGx8J8b8jCqhjHwrgkx8LXNsfCZkLGwnxSxcL8csXCbu7FwsaQyMLa68fCo0XH&#xD;&#xa;woruxMJGHsbCORbJwry2yMLIUsfCxlfGwmLoxcLSPMnCYPDJwkw3yMKc7crC8vDLwug2y8Lu28vC&#xD;&#xa;OKvMwvLpysKGj8rCtNXLwrMay8KdGMrCUr3JwgIVy8J64MvCkbTJwjh4x8JGI8bCvBXHwnoPycKN&#xD;&#xa;Ss3CuC/Nwuywy8IkJ8zCx9/KwnB5ycKnk8nCenLJwnN6ycKc+sjCLFzJwuTrzMJkJM/CY5vOwoYO&#xD;&#xa;zsLU987CVKfNwiZZzcJQxNDCICHVwi0d18Kc29jCIF/YwtKo2MKeBNvCwpTawmY/2sJXPdvCZZXY&#xD;&#xa;whB818IQNdjCDF3XwtWC1sIGF9fCfFfXwkBy2MJ6+9nC1hfZwi5k2cJlfNjCnEPYwm/N1cKGOdXC&#xD;&#xa;Yk/XwgXL2MJSytfCgpTWwqTT1sJOGtnCrF/ZwtcT2cK08NjCscHZwpQ72sLJ/NrCy3zYwmCk18LE&#xD;&#xa;O9fC6hbYwtYU2cJN/dnC1EbZwrw/2cIqyNbCDr7Xwvb02cLQ+dnCaJvXwuYO18KSodnC1NnawtJJ&#xD;&#xa;18ISLtjC90nawoel2cIwl9jCi0XZwih328Ks7NjC5KzZwqui2cJw0tjCukLYws+O2MJaqtrCUuXa&#xD;&#xa;wviX2MIKxtfCnqXXwhjI2MJwAtvCIFvcwgCL2cJ0/djCdyXawh9H2cJ+ntfCy4TXwhqF2MJ68NnC&#xD;&#xa;CzvYwljT2cIkP9vCIs/bwjpB2sK2A9rCXt/awjZH2sIfltvCKWPcwjp53MKrGd3CaBPewj/03MJm&#xD;&#xa;U97CphfgwlJp3cKQpt3Crxjewm7d28Kq/9vCNNXcwqY728IUH9vCkirbwgIt28KK19zCjmzdwoBH&#xD;&#xa;3MIAUtvCUq3bwo8f28Ig09jCiyfZwhbx2sLWe9zCvgzbwmwI2sI2nNvC0lvdwg6128I8PNvCLufa&#xD;&#xa;wkyK28KkitzCJIDcwmAO28L0TNrCDHXawjla28IQkdzCoCDcwjRI3MJVUdvCtujZwnCs2sK8Yd3C&#xD;&#xa;iGbbwuSB2cImFNvCCI7r" leadInLength="0/1"  />
            </Keyframes>
           </Parameter>
           </Parameters>
          </GenericEffect>
          <GenericEffect id="10095" name = "Declipper" >
           <Parameters>
           <InterpolatingParam id="10096" interp="linr"  time="0/1" value="-1" leadInLength="0/1"   name="sensitivity"/>
           </Parameters>
          </GenericEffect>
          <GenericEffect id="10097" name = "Declicker" >
           <Parameters>
           <InterpolatingParam id="10098" interp="linr"  time="0/1" value="3" leadInLength="0/1"   name="sensitivity"/>
           </Parameters>
          </GenericEffect>
         </Effects>
         <Attributes>
          <Attribute id="10099" value="" name="ident"/>
          <Attribute id="10100" value="0" name="mixToMono"/>
         </Attributes>
         <MetaData>
          <entry key="WinSubProjectDisplayName" val=""/>
         </MetaData>
         <ExtraData>
          <Entry key="ZoomPanBin">
           <ZoomPanBin id="10101"  >
            <ZoomPanKeyframes>
            </ZoomPanKeyframes>
           </ZoomPanBin>
          </Entry>
          <Entry key="CursorEffectBin">
           <CursorEffectBin id="10102"  >
            <CursorEffectKeyframes>
            </CursorEffectKeyframes>
           </CursorEffectBin>
          </Entry>
         </ExtraData>
         <GenericTrack id="10103"  >
          <Attributes>
           <Attribute id="10104" value="" name="ident"/>
           <Attribute id="10105" value="0" name="audioMuted"/>
           <Attribute id="10106" value="0" name="videoHidden"/>
          </Attributes>
          <MetaData>
           <entry key="IsLocked" val="False"/>
           <entry key="WinTrackHeight" val="0"/>
          </MetaData>
          <Medias>
           <AMFile id="10107" start="0" duration="117" scalar="1/1" mediaStart="0/1" mediaDuration="117/1" trackNumber="0" src="29" channelNumber="0" >
            <Parameters>
             <InterpolatingParam id="10108" interp="linr"  time="0/1" value="1" leadInLength="0/1"  name="volume"/>
             <Parameter id="10109"  name="captions"/>
            </Parameters>
            <Attributes>
             <Attribute id="10110" value="" name="ident"/>
             <Attribute id="10111" value="48000" name="sampleRate"/>
             <Attribute id="10112" value="16" name="bitDepth"/>
             <Attribute id="10113" value="1" name="gain"/>
             <Attribute id="10114" value="0" name="mixToMono"/>
            </Attributes>
            <MetaData>
             <entry key="WinSubProjectDisplayName" val=""/>
            </MetaData>
           </AMFile>
           <AMFile id="10115" start="117" duration="272" scalar="1/1" mediaStart="131/1" mediaDuration="272/1" trackNumber="0" src="29" channelNumber="0" >
            <Parameters>
             <InterpolatingParam id="10116" interp="linr"  time="0/1" value="1" leadInLength="0/1"  name="volume"/>
             <Parameter id="10117"  name="captions"/>
            </Parameters>
            <Attributes>
             <Attribute id="10118" value="" name="ident"/>
             <Attribute id="10119" value="48000" name="sampleRate"/>
             <Attribute id="10120" value="16" name="bitDepth"/>
             <Attribute id="10121" value="1" name="gain"/>
             <Attribute id="10122" value="0" name="mixToMono"/>
            </Attributes>
            <MetaData>
             <entry key="WinSubProjectDisplayName" val=""/>
            </MetaData>
           </AMFile>
           <AMFile id="10123" start="389" duration="1309" scalar="1/1" mediaStart="415/1" mediaDuration="1309/1" trackNumber="0" src="29" channelNumber="0" >
            <Parameters>
             <InterpolatingParam id="10124" interp="linr"  time="0/1" value="1" leadInLength="0/1"  name="volume"/>
             <Parameter id="10125"  name="captions"/>
            </Parameters>
            <Attributes>
             <Attribute id="10126" value="" name="ident"/>
             <Attribute id="10127" value="48000" name="sampleRate"/>
             <Attribute id="10128" value="16" name="bitDepth"/>
             <Attribute id="10129" value="1" name="gain"/>
             <Attribute id="10130" value="0" name="mixToMono"/>
            </Attributes>
            <MetaData>
             <entry key="WinSubProjectDisplayName" val=""/>
            </MetaData>
           </AMFile>
           <AMFile id="10131" start="1698" duration="103" scalar="1/1" mediaStart="1734/1" mediaDuration="103/1" trackNumber="0" src="29" channelNumber="0" >
            <Parameters>
             <InterpolatingParam id="10132" interp="linr"  time="0/1" value="1" leadInLength="0/1"  name="volume"/>
             <Parameter id="10133"  name="captions"/>
            </Parameters>
            <Attributes>
             <Attribute id="10134" value="" name="ident"/>
             <Attribute id="10135" value="48000" name="sampleRate"/>
             <Attribute id="10136" value="16" name="bitDepth"/>
             <Attribute id="10137" value="1" name="gain"/>
             <Attribute id="10138" value="0" name="mixToMono"/>
            </Attributes>
            <MetaData>
             <entry key="WinSubProjectDisplayName" val=""/>
            </MetaData>
           </AMFile>
           <AMFile id="10139" start="1801" duration="245" scalar="1/1" mediaStart="2164/1" mediaDuration="245/1" trackNumber="0" src="29" channelNumber="0" >
            <Parameters>
             <InterpolatingParam id="10140" interp="linr"  time="0/1" value="1" leadInLength="0/1"  name="volume"/>
             <Parameter id="10141"  name="captions"/>
            </Parameters>
            <Attributes>
             <Attribute id="10142" value="" name="ident"/>
             <Attribute id="10143" value="48000" name="sampleRate"/>
             <Attribute id="10144" value="16" name="bitDepth"/>
             <Attribute id="10145" value="1" name="gain"/>
             <Attribute id="10146" value="0" name="mixToMono"/>
            </Attributes>
            <MetaData>
             <entry key="WinSubProjectDisplayName" val=""/>
            </MetaData>
           </AMFile>
           <AMFile id="10147" start="2046" duration="202" scalar="1/1" mediaStart="2637/1" mediaDuration="202/1" trackNumber="0" src="29" channelNumber="0" >
            <Parameters>
             <InterpolatingParam id="10148" interp="linr"  time="0/1" value="1" leadInLength="0/1"  name="volume"/>
             <Parameter id="10149"  name="captions"/>
            </Parameters>
            <Attributes>
             <Attribute id="10150" value="" name="ident"/>
             <Attribute id="10151" value="48000" name="sampleRate"/>
             <Attribute id="10152" value="16" name="bitDepth"/>
             <Attribute id="10153" value="1" name="gain"/>
             <Attribute id="10154" value="0" name="mixToMono"/>
            </Attributes>
            <MetaData>
             <entry key="WinSubProjectDisplayName" val=""/>
            </MetaData>
           </AMFile>
           <AMFile id="10155" start="2248" duration="185" scalar="1/1" mediaStart="2856/1" mediaDuration="185/1" trackNumber="0" src="29" channelNumber="0" >
            <Parameters>
             <InterpolatingParam id="10156" interp="linr"  time="0/1" value="1" leadInLength="0/1"  name="volume"/>
             <Parameter id="10157"  name="captions"/>
            </Parameters>
            <Attributes>
             <Attribute id="10158" value="" name="ident"/>
             <Attribute id="10159" value="48000" name="sampleRate"/>
             <Attribute id="10160" value="16" name="bitDepth"/>
             <Attribute id="10161" value="1" name="gain"/>
             <Attribute id="10162" value="0" name="mixToMono"/>
            </Attributes>
            <MetaData>
             <entry key="WinSubProjectDisplayName" val=""/>
            </MetaData>
           </AMFile>
           <AMFile id="10163" start="2433" duration="215" scalar="1/1" mediaStart="3054/1" mediaDuration="215/1" trackNumber="0" src="29" channelNumber="0" >
            <Parameters>
             <InterpolatingParam id="10164" interp="linr"  time="0/1" value="1" leadInLength="0/1"  name="volume"/>
             <Parameter id="10165"  name="captions"/>
            </Parameters>
            <Attributes>
             <Attribute id="10166" value="" name="ident"/>
             <Attribute id="10167" value="48000" name="sampleRate"/>
             <Attribute id="10168" value="16" name="bitDepth"/>
             <Attribute id="10169" value="1" name="gain"/>
             <Attribute id="10170" value="0" name="mixToMono"/>
            </Attributes>
            <MetaData>
             <entry key="WinSubProjectDisplayName" val=""/>
            </MetaData>
           </AMFile>
           <AMFile id="10171" start="2648" duration="155" scalar="1/1" mediaStart="3288/1" mediaDuration="155/1" trackNumber="0" src="29" channelNumber="0" >
            <Parameters>
             <InterpolatingParam id="10172" interp="linr"  time="0/1" value="1" leadInLength="0/1"  name="volume"/>
             <Parameter id="10173"  name="captions"/>
            </Parameters>
            <Attributes>
             <Attribute id="10174" value="" name="ident"/>
             <Attribute id="10175" value="48000" name="sampleRate"/>
             <Attribute id="10176" value="16" name="bitDepth"/>
             <Attribute id="10177" value="1" name="gain"/>
             <Attribute id="10178" value="0" name="mixToMono"/>
            </Attributes>
            <MetaData>
             <entry key="WinSubProjectDisplayName" val=""/>
            </MetaData>
           </AMFile>
           <AMFile id="10179" start="2803" duration="103" scalar="1/1" mediaStart="3450/1" mediaDuration="103/1" trackNumber="0" src="29" channelNumber="0" >
            <Parameters>
             <InterpolatingParam id="10180" interp="linr"  time="0/1" value="1" leadInLength="0/1"  name="volume"/>
             <Parameter id="10181"  name="captions"/>
            </Parameters>
            <Attributes>
             <Attribute id="10182" value="" name="ident"/>
             <Attribute id="10183" value="48000" name="sampleRate"/>
             <Attribute id="10184" value="16" name="bitDepth"/>
             <Attribute id="10185" value="1" name="gain"/>
             <Attribute id="10186" value="0" name="mixToMono"/>
            </Attributes>
            <MetaData>
             <entry key="WinSubProjectDisplayName" val=""/>
            </MetaData>
           </AMFile>
           <AMFile id="10187" start="2906" duration="2683" scalar="1/1" mediaStart="3564/1" mediaDuration="2683/1" trackNumber="0" src="29" channelNumber="0" >
            <Parameters>
             <InterpolatingParam id="10188" interp="linr"  time="0/1" value="1" leadInLength="0/1"  name="volume"/>
             <Parameter id="10189"  name="captions"/>
            </Parameters>
            <Attributes>
             <Attribute id="10190" value="" name="ident"/>
             <Attribute id="10191" value="48000" name="sampleRate"/>
             <Attribute id="10192" value="16" name="bitDepth"/>
             <Attribute id="10193" value="1" name="gain"/>
             <Attribute id="10194" value="0" name="mixToMono"/>
            </Attributes>
            <MetaData>
             <entry key="WinSubProjectDisplayName" val=""/>
            </MetaData>
           </AMFile>
           <AMFile id="10195" start="5589" duration="143" scalar="1/1" mediaStart="6247/1" mediaDuration="143/1" trackNumber="0" src="29" channelNumber="0" >
            <Parameters>
             <InterpolatingParam id="10196" interp="linr"  time="0/1" value="1" leadInLength="0/1"  name="volume"/>
             <Parameter id="10197"  name="captions"/>
            </Parameters>
            <Attributes>
             <Attribute id="10198" value="" name="ident"/>
             <Attribute id="10199" value="48000" name="sampleRate"/>
             <Attribute id="10200" value="16" name="bitDepth"/>
             <Attribute id="10201" value="1" name="gain"/>
             <Attribute id="10202" value="0" name="mixToMono"/>
            </Attributes>
            <MetaData>
             <entry key="WinSubProjectDisplayName" val=""/>
            </MetaData>
           </AMFile>
           <AMFile id="10203" start="5732" duration="285" scalar="1/1" mediaStart="6413/1" mediaDuration="285/1" trackNumber="0" src="29" channelNumber="0" >
            <Parameters>
             <InterpolatingParam id="10204" interp="linr"  time="0/1" value="1" leadInLength="0/1"  name="volume"/>
             <Parameter id="10205"  name="captions"/>
            </Parameters>
            <Attributes>
             <Attribute id="10206" value="" name="ident"/>
             <Attribute id="10207" value="48000" name="sampleRate"/>
             <Attribute id="10208" value="16" name="bitDepth"/>
             <Attribute id="10209" value="1" name="gain"/>
             <Attribute id="10210" value="0" name="mixToMono"/>
            </Attributes>
            <MetaData>
             <entry key="WinSubProjectDisplayName" val=""/>
            </MetaData>
           </AMFile>
           <AMFile id="10211" start="6017" duration="102" scalar="1/1" mediaStart="6729/1" mediaDuration="102/1" trackNumber="0" src="29" channelNumber="0" >
            <Parameters>
             <InterpolatingParam id="10212" interp="linr"  time="0/1" value="1" leadInLength="0/1"  name="volume"/>
             <Parameter id="10213"  name="captions"/>
            </Parameters>
            <Attributes>
             <Attribute id="10214" value="" name="ident"/>
             <Attribute id="10215" value="48000" name="sampleRate"/>
             <Attribute id="10216" value="16" name="bitDepth"/>
             <Attribute id="10217" value="1" name="gain"/>
             <Attribute id="10218" value="0" name="mixToMono"/>
            </Attributes>
            <MetaData>
             <entry key="WinSubProjectDisplayName" val=""/>
            </MetaData>
           </AMFile>
           <AMFile id="10219" start="6119" duration="234" scalar="1/1" mediaStart="6848/1" mediaDuration="234/1" trackNumber="0" src="29" channelNumber="0" >
            <Parameters>
             <InterpolatingParam id="10220" interp="linr"  time="0/1" value="1" leadInLength="0/1"  name="volume"/>
             <Parameter id="10221"  name="captions"/>
            </Parameters>
            <Attributes>
             <Attribute id="10222" value="" name="ident"/>
             <Attribute id="10223" value="48000" name="sampleRate"/>
             <Attribute id="10224" value="16" name="bitDepth"/>
             <Attribute id="10225" value="1" name="gain"/>
             <Attribute id="10226" value="0" name="mixToMono"/>
            </Attributes>
            <MetaData>
             <entry key="WinSubProjectDisplayName" val=""/>
            </MetaData>
           </AMFile>
           <AMFile id="10227" start="6353" duration="107" scalar="1/1" mediaStart="7089/1" mediaDuration="107/1" trackNumber="0" src="29" channelNumber="0" >
            <Parameters>
             <InterpolatingParam id="10228" interp="linr"  time="0/1" value="1" leadInLength="0/1"  name="volume"/>
             <Parameter id="10229"  name="captions"/>
            </Parameters>
            <Attributes>
             <Attribute id="10230" value="" name="ident"/>
             <Attribute id="10231" value="48000" name="sampleRate"/>
             <Attribute id="10232" value="16" name="bitDepth"/>
             <Attribute id="10233" value="1" name="gain"/>
             <Attribute id="10234" value="0" name="mixToMono"/>
            </Attributes>
            <MetaData>
             <entry key="WinSubProjectDisplayName" val=""/>
            </MetaData>
           </AMFile>
           <AMFile id="10235" start="6460" duration="67" scalar="1/1" mediaStart="7207/1" mediaDuration="67/1" trackNumber="0" src="29" channelNumber="0" >
            <Parameters>
             <InterpolatingParam id="10236" interp="linr"  time="0/1" value="1" leadInLength="0/1"  name="volume"/>
             <Parameter id="10237"  name="captions"/>
            </Parameters>
            <Attributes>
             <Attribute id="10238" value="" name="ident"/>
             <Attribute id="10239" value="48000" name="sampleRate"/>
             <Attribute id="10240" value="16" name="bitDepth"/>
             <Attribute id="10241" value="1" name="gain"/>
             <Attribute id="10242" value="0" name="mixToMono"/>
            </Attributes>
            <MetaData>
             <entry key="WinSubProjectDisplayName" val=""/>
            </MetaData>
           </AMFile>
           <AMFile id="10243" start="6527" duration="226" scalar="1/1" mediaStart="7297/1" mediaDuration="226/1" trackNumber="0" src="29" channelNumber="0" >
            <Parameters>
             <InterpolatingParam id="10244" interp="linr"  time="0/1" value="1" leadInLength="0/1"  name="volume"/>
             <Parameter id="10245"  name="captions"/>
            </Parameters>
            <Attributes>
             <Attribute id="10246" value="" name="ident"/>
             <Attribute id="10247" value="48000" name="sampleRate"/>
             <Attribute id="10248" value="16" name="bitDepth"/>
             <Attribute id="10249" value="1" name="gain"/>
             <Attribute id="10250" value="0" name="mixToMono"/>
            </Attributes>
            <MetaData>
             <entry key="WinSubProjectDisplayName" val=""/>
            </MetaData>
           </AMFile>
           <AMFile id="10251" start="6753" duration="117" scalar="1/1" mediaStart="7540/1" mediaDuration="117/1" trackNumber="0" src="29" channelNumber="0" >
            <Parameters>
             <InterpolatingParam id="10252" interp="linr"  time="0/1" value="1" leadInLength="0/1"  name="volume"/>
             <Parameter id="10253"  name="captions"/>
            </Parameters>
            <Attributes>
             <Attribute id="10254" value="" name="ident"/>
             <Attribute id="10255" value="48000" name="sampleRate"/>
             <Attribute id="10256" value="16" name="bitDepth"/>
             <Attribute id="10257" value="1" name="gain"/>
             <Attribute id="10258" value="0" name="mixToMono"/>
            </Attributes>
            <MetaData>
             <entry key="WinSubProjectDisplayName" val=""/>
            </MetaData>
           </AMFile>
           <AMFile id="10259" start="6870" duration="52" scalar="1/1" mediaStart="7796/1" mediaDuration="52/1" trackNumber="0" src="29" channelNumber="0" >
            <Parameters>
             <InterpolatingParam id="10260" interp="linr"  time="0/1" value="1" leadInLength="0/1"  name="volume"/>
             <Parameter id="10261"  name="captions"/>
            </Parameters>
            <Attributes>
             <Attribute id="10262" value="" name="ident"/>
             <Attribute id="10263" value="48000" name="sampleRate"/>
             <Attribute id="10264" value="16" name="bitDepth"/>
             <Attribute id="10265" value="1" name="gain"/>
             <Attribute id="10266" value="0" name="mixToMono"/>
            </Attributes>
            <MetaData>
             <entry key="WinSubProjectDisplayName" val=""/>
            </MetaData>
           </AMFile>
           <AMFile id="10267" start="6922" duration="100" scalar="1/1" mediaStart="8187/1" mediaDuration="100/1" trackNumber="0" src="29" channelNumber="0" >
            <Parameters>
             <InterpolatingParam id="10268" interp="linr"  time="0/1" value="1" leadInLength="0/1"  name="volume"/>
             <Parameter id="10269"  name="captions"/>
            </Parameters>
            <Attributes>
             <Attribute id="10270" value="" name="ident"/>
             <Attribute id="10271" value="48000" name="sampleRate"/>
             <Attribute id="10272" value="16" name="bitDepth"/>
             <Attribute id="10273" value="1" name="gain"/>
             <Attribute id="10274" value="0" name="mixToMono"/>
            </Attributes>
            <MetaData>
             <entry key="WinSubProjectDisplayName" val=""/>
            </MetaData>
           </AMFile>
           <AMFile id="10275" start="7022" duration="1377" scalar="1/1" mediaStart="8303/1" mediaDuration="1377/1" trackNumber="0" src="29" channelNumber="0" >
            <Parameters>
             <InterpolatingParam id="10276" interp="linr"  time="0/1" value="1" leadInLength="0/1"  name="volume"/>
             <Parameter id="10277"  name="captions"/>
            </Parameters>
            <Attributes>
             <Attribute id="10278" value="" name="ident"/>
             <Attribute id="10279" value="48000" name="sampleRate"/>
             <Attribute id="10280" value="16" name="bitDepth"/>
             <Attribute id="10281" value="1" name="gain"/>
             <Attribute id="10282" value="0" name="mixToMono"/>
            </Attributes>
            <MetaData>
             <entry key="WinSubProjectDisplayName" val=""/>
            </MetaData>
           </AMFile>
           <AMFile id="10283" start="8399" duration="3717" scalar="1/1" mediaStart="9929/1" mediaDuration="3717/1" trackNumber="0" src="29" channelNumber="0" >
            <Parameters>
             <InterpolatingParam id="10284" interp="linr"  time="0/1" value="1" leadInLength="0/1"  name="volume"/>
             <Parameter id="10285"  name="captions"/>
            </Parameters>
            <Attributes>
             <Attribute id="10286" value="" name="ident"/>
             <Attribute id="10287" value="48000" name="sampleRate"/>
             <Attribute id="10288" value="16" name="bitDepth"/>
             <Attribute id="10289" value="1" name="gain"/>
             <Attribute id="10290" value="0" name="mixToMono"/>
            </Attributes>
            <MetaData>
             <entry key="WinSubProjectDisplayName" val=""/>
            </MetaData>
           </AMFile>
          </Medias>
         </GenericTrack>
        </StitchedMedia>
        <StitchedMedia id="10291" start="8404" duration="293" scalar="1/1" mediaStart="11439/1" mediaDuration="293/1" minMediaStart="0/1" >
         <Transformer>
          <VectorParam id="10292"  name="translation">
           <InterpolatingParam id="10293" interp="linr"  time="0/1" value="0" leadInLength="0/1"  />
           <InterpolatingParam id="10294" interp="linr"  time="0/1" value="0" leadInLength="0/1"  />
           <InterpolatingParam id="10295" interp="linr"  time="0/1" value="0" leadInLength="0/1"  />
          </VectorParam>
          <VectorParam id="10296"  name="rotation">
           <InterpolatingParam id="10297" interp="linr"  time="0/1" value="0" leadInLength="0/1"  />
           <InterpolatingParam id="10298" interp="linr"  time="0/1" value="0" leadInLength="0/1"  />
           <InterpolatingParam id="10299" interp="linr"  time="0/1" value="0" leadInLength="0/1"  />
          </VectorParam>
          <VectorParam id="10300"  name="shear">
           <InterpolatingParam id="10301" interp="linr"  time="0/1" value="0" leadInLength="0/1"  />
           <InterpolatingParam id="10302" interp="linr"  time="0/1" value="0" leadInLength="0/1"  />
           <InterpolatingParam id="10303" interp="linr"  time="0/1" value="0" leadInLength="0/1"  />
          </VectorParam>
          <VectorParam id="10304"  name="scale">
           <InterpolatingParam id="10305" interp="linr"  time="0/1" value="1" leadInLength="0/1"  />
           <InterpolatingParam id="10306" interp="linr"  time="0/1" value="1" leadInLength="0/1"  />
           <InterpolatingParam id="10307" interp="linr"  time="0/1" value="1" leadInLength="0/1"  />
          </VectorParam>
          <VectorParam id="10308"  name="anchor">
           <InterpolatingParam id="10309" interp="linr"  time="0/1" value="0" leadInLength="0/1"  />
           <InterpolatingParam id="10310" interp="linr"  time="0/1" value="0" leadInLength="0/1"  />
           <InterpolatingParam id="10311" interp="linr"  time="0/1" value="0" leadInLength="0/1"  />
          </VectorParam>
         </Transformer>
         <Parameters>
          <InterpolatingParam id="10312" interp="linr"  time="0/1" value="1" leadInLength="0/1"  name="cursorOpacity"/>
          <InterpolatingParam id="10313" interp="linr"  time="0/1" value="1" leadInLength="0/1"  name="cursorScale"/>
          <InterpolatingParam id="10314" interp="linr"  time="0/1" value="1.5625" leadInLength="0/1"  name="volume"/>
          <Parameter id="10315"  name="captions"/>
         </Parameters>
         <Effects>
          <GenericEffect id="10316" name = "WinCompression" >
           <Parameters>
           <InterpolatingParam id="10317" interp="linr"  time="0/1" value="0" leadInLength="0/1"   name="attack"/>
           <InterpolatingParam id="10318" interp="linr"  time="0/1" value="9" leadInLength="0/1"   name="gain"/>
           <Parameter id="10319"   name="preset">
            <Keyframes>
            <Keyframe id="10320"  time="0/1" value="1" leadInLength="0/1"  />
            </Keyframes>
           </Parameter>
           <InterpolatingParam id="10321" interp="linr"  time="0/1" value="10" leadInLength="0/1"   name="ratio"/>
           <InterpolatingParam id="10322" interp="linr"  time="0/1" value="3500" leadInLength="0/1"   name="release"/>
           <InterpolatingParam id="10323" interp="linr"  time="0/1" value="-20" leadInLength="0/1"   name="threshold"/>
           </Parameters>
          </GenericEffect>
          <GenericEffect id="10324" name = "NoiseReduction" >
           <Parameters>
           <InterpolatingParam id="10325" interp="linr"  time="0/1" value="20" leadInLength="0/1"   name="denoiserAmount"/>
           <InterpolatingParam id="10326" interp="linr"  time="0/1" value="0" leadInLength="0/1"   name="denoiserThreshold"/>
           <Parameter id="10327"   name="noiseProfile">
            <Keyframes>
            <Keyframe id="10328"  time="0/1" value="FBAAAAIAAABErAAAAQIAAIA/l8JLuYTCrOB9wgsMfMJoG4LCaWeFwkohjMJdoYvCYv6LwlnvjcKf&#xD;&#xa;nYzChXWPwlcejsL6fo/C5OmQwgVTj8IVMI/COiWRwoWFkcJ2tYzC8I6MwuQbjcJvEo/ClwGRwheQ&#xD;&#xa;lsK8+pbCN5qVwlielcJ905rCmu+fwst0ncIC/JvCdIWdws3snsKxC5zCfh2cwniFnMJRypzCtRag&#xD;&#xa;wuoCosJQt6DCzoegwhY9ocIWN6PCsNqkwrSlpMJ6maTCYpCkwmLvo8Li+KPCyEamwnBNqMLMcqrC&#xD;&#xa;v2GswoS+q8Kk86vCVACuwnvUr8JxZa/CqHqswrdXq8LqT6zCZsuswhZxrMLBX67CnmqvwpYyrsKc&#xD;&#xa;pq3CJFGvwghrsMK3y6/CXoCtwmWZr8ICi7DCgRezwogSs8Joq7LCm0Sxwuz/scIfibTCOOK1wlIM&#xD;&#xa;t8K87LfCj3K3wqDYs8KT1bLCVsW0wnZ0tcJGhLXCfPe0ws/ntcLGXrbCzAG1wtXdtcKxxrTC1Ay1&#xD;&#xa;wquGtcLjELbC8Zi2wl7rtsJBYbbCMF+1wrEutMKuibTCSFa1wpvktMIu3rTCtGe4wjaduMIKErfC&#xD;&#xa;SLa1wvS/tsJmZrjCdn63whjft8Ie47rCfdi5wmjpt8KKCLjCXmC5wsOQt8JDGbfCK4m4wmpvuMLL&#xD;&#xa;nLjC80q4wjUVusKunLjC1Be5wg4cuMLxCbjCwfW4wmi7ucIOdbvCbLG6whqdusKYErrCbpC4wmq0&#xD;&#xa;ucIoWrvCaNe6ws4iu8LSc7zCUNa7wuJZvMIwLL3CWe28wps2v8J2l77Cv3W+wvgavsKAwrzCQCy8&#xD;&#xa;wgBRu8Km8brChSa6wuM4u8IaaL3Cf5y9wg4hvMLur7vCIpO9wm0fvcIGNLzC7Le8wvKgvMKQrLzC&#xD;&#xa;p6+9wtYtvsJcxbzCQC29wjDqvcKeNbzCH2W8wpbZvsLCTL7CnjO+wuIsvsJs67vCwLq9wiKhvsLs&#xD;&#xa;o73C5Du9wqqhvcLwKr7C2kq/wqEMv8LVCb7Cpla+wsXpvMIs6bvC/fO8wueCvsIM4b3CxtC+wmTo&#xD;&#xa;vcI+arzCTNe8wiFNv8IvKL/Cpg+/woK1v8L4i7/CNv2+wmsVv8KWj77CVym+wnAlv8Joa8DCFDzA&#xD;&#xa;wiQYwcLSIcHCxILAwuxKvsJYm77CPoHAwiYPwcLuy77CcQa+wrB4vcKwYLzCxKW8worIvcIlzr/C&#xD;&#xa;OMC+wuRDvcJGZ7zCxFi9wuQzvMLPbbvCwIe+wm7bvcLm9L3COH6+wuuJvMK2B73CYb+9wqbxvMK/&#xD;&#xa;mL7CqIe9wvCavMKs7L3Ckau8wkpavMKt9LzCF8S+wmgKvsKCy73ClrG+wmIovcIns73Cmg+/wgw7&#xD;&#xa;wMI607/CpEq/wmwVvcJLsLvCMD68wuxdvcIeI7/C+bS+wpxfvsJyxsDC1tO/wmtrv8LNnb/CQiK+&#xD;&#xa;wlz7vcLa6L/CUMXBwtrQwcIAw8HCNJHBwvphwMKqc7/CSkW/wjkvwMK8ccHCHmDBwlKAwcKu+MDC&#xD;&#xa;zErCwuqgwsLa+MLC753DwmjuxcLEWMfCkePFwo47xsKnX8XC7tTCwuf3wsL+HcLCTcTBwmg6w8Is&#xD;&#xa;RMPC+qjDwiyGxMLi58TCnWvFwpjsxsKzCMbCyCTDwpM2wcJWGMPCvuDFwh42xsIfyMTCeLTFwuH7&#xD;&#xa;xMJctcfCVv3HwpTGx8J8b8jCqhjHwrgkx8LXNsfCZkLGwnxSxcL8csXCbu7FwsaQyMLa68fCo0XH&#xD;&#xa;woruxMJGHsbCORbJwry2yMLIUsfCxlfGwmLoxcLSPMnCYPDJwkw3yMKc7crC8vDLwug2y8Lu28vC&#xD;&#xa;OKvMwvLpysKGj8rCtNXLwrMay8KdGMrCUr3JwgIVy8J64MvCkbTJwjh4x8JGI8bCvBXHwnoPycKN&#xD;&#xa;Ss3CuC/Nwuywy8IkJ8zCx9/KwnB5ycKnk8nCenLJwnN6ycKc+sjCLFzJwuTrzMJkJM/CY5vOwoYO&#xD;&#xa;zsLU987CVKfNwiZZzcJQxNDCICHVwi0d18Kc29jCIF/YwtKo2MKeBNvCwpTawmY/2sJXPdvCZZXY&#xD;&#xa;whB818IQNdjCDF3XwtWC1sIGF9fCfFfXwkBy2MJ6+9nC1hfZwi5k2cJlfNjCnEPYwm/N1cKGOdXC&#xD;&#xa;Yk/XwgXL2MJSytfCgpTWwqTT1sJOGtnCrF/ZwtcT2cK08NjCscHZwpQ72sLJ/NrCy3zYwmCk18LE&#xD;&#xa;O9fC6hbYwtYU2cJN/dnC1EbZwrw/2cIqyNbCDr7Xwvb02cLQ+dnCaJvXwuYO18KSodnC1NnawtJJ&#xD;&#xa;18ISLtjC90nawoel2cIwl9jCi0XZwih328Ks7NjC5KzZwqui2cJw0tjCukLYws+O2MJaqtrCUuXa&#xD;&#xa;wviX2MIKxtfCnqXXwhjI2MJwAtvCIFvcwgCL2cJ0/djCdyXawh9H2cJ+ntfCy4TXwhqF2MJ68NnC&#xD;&#xa;CzvYwljT2cIkP9vCIs/bwjpB2sK2A9rCXt/awjZH2sIfltvCKWPcwjp53MKrGd3CaBPewj/03MJm&#xD;&#xa;U97CphfgwlJp3cKQpt3Crxjewm7d28Kq/9vCNNXcwqY728IUH9vCkirbwgIt28KK19zCjmzdwoBH&#xD;&#xa;3MIAUtvCUq3bwo8f28Ig09jCiyfZwhbx2sLWe9zCvgzbwmwI2sI2nNvC0lvdwg6128I8PNvCLufa&#xD;&#xa;wkyK28KkitzCJIDcwmAO28L0TNrCDHXawjla28IQkdzCoCDcwjRI3MJVUdvCtujZwnCs2sK8Yd3C&#xD;&#xa;iGbbwuSB2cImFNvCCI7rwoA/l8JLuYTCrOB9wgsMfMJoG4LCaWeFwkohjMJdoYvCYv6LwlnvjcKf&#xD;&#xa;nYzChXWPwlcejsL6fo/C5OmQwgVTj8IVMI/COiWRwoWFkcJ2tYzC8I6MwuQbjcJvEo/ClwGRwheQ&#xD;&#xa;lsK8+pbCN5qVwlielcJ905rCmu+fwst0ncIC/JvCdIWdws3snsKxC5zCfh2cwniFnMJRypzCtRag&#xD;&#xa;wuoCosJQt6DCzoegwhY9ocIWN6PCsNqkwrSlpMJ6maTCYpCkwmLvo8Li+KPCyEamwnBNqMLMcqrC&#xD;&#xa;v2GswoS+q8Kk86vCVACuwnvUr8JxZa/CqHqswrdXq8LqT6zCZsuswhZxrMLBX67CnmqvwpYyrsKc&#xD;&#xa;pq3CJFGvwghrsMK3y6/CXoCtwmWZr8ICi7DCgRezwogSs8Joq7LCm0Sxwuz/scIfibTCOOK1wlIM&#xD;&#xa;t8K87LfCj3K3wqDYs8KT1bLCVsW0wnZ0tcJGhLXCfPe0ws/ntcLGXrbCzAG1wtXdtcKxxrTC1Ay1&#xD;&#xa;wquGtcLjELbC8Zi2wl7rtsJBYbbCMF+1wrEutMKuibTCSFa1wpvktMIu3rTCtGe4wjaduMIKErfC&#xD;&#xa;SLa1wvS/tsJmZrjCdn63whjft8Ie47rCfdi5wmjpt8KKCLjCXmC5wsOQt8JDGbfCK4m4wmpvuMLL&#xD;&#xa;nLjC80q4wjUVusKunLjC1Be5wg4cuMLxCbjCwfW4wmi7ucIOdbvCbLG6whqdusKYErrCbpC4wmq0&#xD;&#xa;ucIoWrvCaNe6ws4iu8LSc7zCUNa7wuJZvMIwLL3CWe28wps2v8J2l77Cv3W+wvgavsKAwrzCQCy8&#xD;&#xa;wgBRu8Km8brChSa6wuM4u8IaaL3Cf5y9wg4hvMLur7vCIpO9wm0fvcIGNLzC7Le8wvKgvMKQrLzC&#xD;&#xa;p6+9wtYtvsJcxbzCQC29wjDqvcKeNbzCH2W8wpbZvsLCTL7CnjO+wuIsvsJs67vCwLq9wiKhvsLs&#xD;&#xa;o73C5Du9wqqhvcLwKr7C2kq/wqEMv8LVCb7Cpla+wsXpvMIs6bvC/fO8wueCvsIM4b3CxtC+wmTo&#xD;&#xa;vcI+arzCTNe8wiFNv8IvKL/Cpg+/woK1v8L4i7/CNv2+wmsVv8KWj77CVym+wnAlv8Joa8DCFDzA&#xD;&#xa;wiQYwcLSIcHCxILAwuxKvsJYm77CPoHAwiYPwcLuy77CcQa+wrB4vcKwYLzCxKW8worIvcIlzr/C&#xD;&#xa;OMC+wuRDvcJGZ7zCxFi9wuQzvMLPbbvCwIe+wm7bvcLm9L3COH6+wuuJvMK2B73CYb+9wqbxvMK/&#xD;&#xa;mL7CqIe9wvCavMKs7L3Ckau8wkpavMKt9LzCF8S+wmgKvsKCy73ClrG+wmIovcIns73Cmg+/wgw7&#xD;&#xa;wMI607/CpEq/wmwVvcJLsLvCMD68wuxdvcIeI7/C+bS+wpxfvsJyxsDC1tO/wmtrv8LNnb/CQiK+&#xD;&#xa;wlz7vcLa6L/CUMXBwtrQwcIAw8HCNJHBwvphwMKqc7/CSkW/wjkvwMK8ccHCHmDBwlKAwcKu+MDC&#xD;&#xa;zErCwuqgwsLa+MLC753DwmjuxcLEWMfCkePFwo47xsKnX8XC7tTCwuf3wsL+HcLCTcTBwmg6w8Is&#xD;&#xa;RMPC+qjDwiyGxMLi58TCnWvFwpjsxsKzCMbCyCTDwpM2wcJWGMPCvuDFwh42xsIfyMTCeLTFwuH7&#xD;&#xa;xMJctcfCVv3HwpTGx8J8b8jCqhjHwrgkx8LXNsfCZkLGwnxSxcL8csXCbu7FwsaQyMLa68fCo0XH&#xD;&#xa;woruxMJGHsbCORbJwry2yMLIUsfCxlfGwmLoxcLSPMnCYPDJwkw3yMKc7crC8vDLwug2y8Lu28vC&#xD;&#xa;OKvMwvLpysKGj8rCtNXLwrMay8KdGMrCUr3JwgIVy8J64MvCkbTJwjh4x8JGI8bCvBXHwnoPycKN&#xD;&#xa;Ss3CuC/Nwuywy8IkJ8zCx9/KwnB5ycKnk8nCenLJwnN6ycKc+sjCLFzJwuTrzMJkJM/CY5vOwoYO&#xD;&#xa;zsLU987CVKfNwiZZzcJQxNDCICHVwi0d18Kc29jCIF/YwtKo2MKeBNvCwpTawmY/2sJXPdvCZZXY&#xD;&#xa;whB818IQNdjCDF3XwtWC1sIGF9fCfFfXwkBy2MJ6+9nC1hfZwi5k2cJlfNjCnEPYwm/N1cKGOdXC&#xD;&#xa;Yk/XwgXL2MJSytfCgpTWwqTT1sJOGtnCrF/ZwtcT2cK08NjCscHZwpQ72sLJ/NrCy3zYwmCk18LE&#xD;&#xa;O9fC6hbYwtYU2cJN/dnC1EbZwrw/2cIqyNbCDr7Xwvb02cLQ+dnCaJvXwuYO18KSodnC1NnawtJJ&#xD;&#xa;18ISLtjC90nawoel2cIwl9jCi0XZwih328Ks7NjC5KzZwqui2cJw0tjCukLYws+O2MJaqtrCUuXa&#xD;&#xa;wviX2MIKxtfCnqXXwhjI2MJwAtvCIFvcwgCL2cJ0/djCdyXawh9H2cJ+ntfCy4TXwhqF2MJ68NnC&#xD;&#xa;CzvYwljT2cIkP9vCIs/bwjpB2sK2A9rCXt/awjZH2sIfltvCKWPcwjp53MKrGd3CaBPewj/03MJm&#xD;&#xa;U97CphfgwlJp3cKQpt3Crxjewm7d28Kq/9vCNNXcwqY728IUH9vCkirbwgIt28KK19zCjmzdwoBH&#xD;&#xa;3MIAUtvCUq3bwo8f28Ig09jCiyfZwhbx2sLWe9zCvgzbwmwI2sI2nNvC0lvdwg6128I8PNvCLufa&#xD;&#xa;wkyK28KkitzCJIDcwmAO28L0TNrCDHXawjla28IQkdzCoCDcwjRI3MJVUdvCtujZwnCs2sK8Yd3C&#xD;&#xa;iGbbwuSB2cImFNvCCI7r" leadInLength="0/1"  />
            </Keyframes>
           </Parameter>
           </Parameters>
          </GenericEffect>
          <GenericEffect id="10329" name = "Declipper" >
           <Parameters>
           <InterpolatingParam id="10330" interp="linr"  time="0/1" value="-1" leadInLength="0/1"   name="sensitivity"/>
           </Parameters>
          </GenericEffect>
          <GenericEffect id="10331" name = "Declicker" >
           <Parameters>
           <InterpolatingParam id="10332" interp="linr"  time="0/1" value="3" leadInLength="0/1"   name="sensitivity"/>
           </Parameters>
          </GenericEffect>
         </Effects>
         <Attributes>
          <Attribute id="10333" value="" name="ident"/>
          <Attribute id="10334" value="0" name="mixToMono"/>
         </Attributes>
         <MetaData>
          <entry key="WinSubProjectDisplayName" val=""/>
         </MetaData>
         <ExtraData>
          <Entry key="ZoomPanBin">
           <ZoomPanBin id="10335"  >
            <ZoomPanKeyframes>
            </ZoomPanKeyframes>
           </ZoomPanBin>
          </Entry>
          <Entry key="CursorEffectBin">
           <CursorEffectBin id="10336"  >
            <CursorEffectKeyframes>
            </CursorEffectKeyframes>
           </CursorEffectBin>
          </Entry>
         </ExtraData>
         <GenericTrack id="10337"  >
          <Attributes>
           <Attribute id="10338" value="" name="ident"/>
           <Attribute id="10339" value="0" name="audioMuted"/>
           <Attribute id="10340" value="0" name="videoHidden"/>
          </Attributes>
          <MetaData>
           <entry key="IsLocked" val="False"/>
           <entry key="WinTrackHeight" val="0"/>
          </MetaData>
          <Medias>
           <AMFile id="10341" start="0" duration="117" scalar="1/1" mediaStart="0/1" mediaDuration="117/1" trackNumber="0" src="29" channelNumber="0" >
            <Parameters>
             <InterpolatingParam id="10342" interp="linr"  time="0/1" value="1" leadInLength="0/1"  name="volume"/>
             <Parameter id="10343"  name="captions"/>
            </Parameters>
            <Attributes>
             <Attribute id="10344" value="" name="ident"/>
             <Attribute id="10345" value="48000" name="sampleRate"/>
             <Attribute id="10346" value="16" name="bitDepth"/>
             <Attribute id="10347" value="1" name="gain"/>
             <Attribute id="10348" value="0" name="mixToMono"/>
            </Attributes>
            <MetaData>
             <entry key="WinSubProjectDisplayName" val=""/>
            </MetaData>
           </AMFile>
           <AMFile id="10349" start="117" duration="272" scalar="1/1" mediaStart="131/1" mediaDuration="272/1" trackNumber="0" src="29" channelNumber="0" >
            <Parameters>
             <InterpolatingParam id="10350" interp="linr"  time="0/1" value="1" leadInLength="0/1"  name="volume"/>
             <Parameter id="10351"  name="captions"/>
            </Parameters>
            <Attributes>
             <Attribute id="10352" value="" name="ident"/>
             <Attribute id="10353" value="48000" name="sampleRate"/>
             <Attribute id="10354" value="16" name="bitDepth"/>
             <Attribute id="10355" value="1" name="gain"/>
             <Attribute id="10356" value="0" name="mixToMono"/>
            </Attributes>
            <MetaData>
             <entry key="WinSubProjectDisplayName" val=""/>
            </MetaData>
           </AMFile>
           <AMFile id="10357" start="389" duration="1309" scalar="1/1" mediaStart="415/1" mediaDuration="1309/1" trackNumber="0" src="29" channelNumber="0" >
            <Parameters>
             <InterpolatingParam id="10358" interp="linr"  time="0/1" value="1" leadInLength="0/1"  name="volume"/>
             <Parameter id="10359"  name="captions"/>
            </Parameters>
            <Attributes>
             <Attribute id="10360" value="" name="ident"/>
             <Attribute id="10361" value="48000" name="sampleRate"/>
             <Attribute id="10362" value="16" name="bitDepth"/>
             <Attribute id="10363" value="1" name="gain"/>
             <Attribute id="10364" value="0" name="mixToMono"/>
            </Attributes>
            <MetaData>
             <entry key="WinSubProjectDisplayName" val=""/>
            </MetaData>
           </AMFile>
           <AMFile id="10365" start="1698" duration="103" scalar="1/1" mediaStart="1734/1" mediaDuration="103/1" trackNumber="0" src="29" channelNumber="0" >
            <Parameters>
             <InterpolatingParam id="10366" interp="linr"  time="0/1" value="1" leadInLength="0/1"  name="volume"/>
             <Parameter id="10367"  name="captions"/>
            </Parameters>
            <Attributes>
             <Attribute id="10368" value="" name="ident"/>
             <Attribute id="10369" value="48000" name="sampleRate"/>
             <Attribute id="10370" value="16" name="bitDepth"/>
             <Attribute id="10371" value="1" name="gain"/>
             <Attribute id="10372" value="0" name="mixToMono"/>
            </Attributes>
            <MetaData>
             <entry key="WinSubProjectDisplayName" val=""/>
            </MetaData>
           </AMFile>
           <AMFile id="10373" start="1801" duration="245" scalar="1/1" mediaStart="2164/1" mediaDuration="245/1" trackNumber="0" src="29" channelNumber="0" >
            <Parameters>
             <InterpolatingParam id="10374" interp="linr"  time="0/1" value="1" leadInLength="0/1"  name="volume"/>
             <Parameter id="10375"  name="captions"/>
            </Parameters>
            <Attributes>
             <Attribute id="10376" value="" name="ident"/>
             <Attribute id="10377" value="48000" name="sampleRate"/>
             <Attribute id="10378" value="16" name="bitDepth"/>
             <Attribute id="10379" value="1" name="gain"/>
             <Attribute id="10380" value="0" name="mixToMono"/>
            </Attributes>
            <MetaData>
             <entry key="WinSubProjectDisplayName" val=""/>
            </MetaData>
           </AMFile>
           <AMFile id="10381" start="2046" duration="202" scalar="1/1" mediaStart="2637/1" mediaDuration="202/1" trackNumber="0" src="29" channelNumber="0" >
            <Parameters>
             <InterpolatingParam id="10382" interp="linr"  time="0/1" value="1" leadInLength="0/1"  name="volume"/>
             <Parameter id="10383"  name="captions"/>
            </Parameters>
            <Attributes>
             <Attribute id="10384" value="" name="ident"/>
             <Attribute id="10385" value="48000" name="sampleRate"/>
             <Attribute id="10386" value="16" name="bitDepth"/>
             <Attribute id="10387" value="1" name="gain"/>
             <Attribute id="10388" value="0" name="mixToMono"/>
            </Attributes>
            <MetaData>
             <entry key="WinSubProjectDisplayName" val=""/>
            </MetaData>
           </AMFile>
           <AMFile id="10389" start="2248" duration="185" scalar="1/1" mediaStart="2856/1" mediaDuration="185/1" trackNumber="0" src="29" channelNumber="0" >
            <Parameters>
             <InterpolatingParam id="10390" interp="linr"  time="0/1" value="1" leadInLength="0/1"  name="volume"/>
             <Parameter id="10391"  name="captions"/>
            </Parameters>
            <Attributes>
             <Attribute id="10392" value="" name="ident"/>
             <Attribute id="10393" value="48000" name="sampleRate"/>
             <Attribute id="10394" value="16" name="bitDepth"/>
             <Attribute id="10395" value="1" name="gain"/>
             <Attribute id="10396" value="0" name="mixToMono"/>
            </Attributes>
            <MetaData>
             <entry key="WinSubProjectDisplayName" val=""/>
            </MetaData>
           </AMFile>
           <AMFile id="10397" start="2433" duration="215" scalar="1/1" mediaStart="3054/1" mediaDuration="215/1" trackNumber="0" src="29" channelNumber="0" >
            <Parameters>
             <InterpolatingParam id="10398" interp="linr"  time="0/1" value="1" leadInLength="0/1"  name="volume"/>
             <Parameter id="10399"  name="captions"/>
            </Parameters>
            <Attributes>
             <Attribute id="10400" value="" name="ident"/>
             <Attribute id="10401" value="48000" name="sampleRate"/>
             <Attribute id="10402" value="16" name="bitDepth"/>
             <Attribute id="10403" value="1" name="gain"/>
             <Attribute id="10404" value="0" name="mixToMono"/>
            </Attributes>
            <MetaData>
             <entry key="WinSubProjectDisplayName" val=""/>
            </MetaData>
           </AMFile>
           <AMFile id="10405" start="2648" duration="155" scalar="1/1" mediaStart="3288/1" mediaDuration="155/1" trackNumber="0" src="29" channelNumber="0" >
            <Parameters>
             <InterpolatingParam id="10406" interp="linr"  time="0/1" value="1" leadInLength="0/1"  name="volume"/>
             <Parameter id="10407"  name="captions"/>
            </Parameters>
            <Attributes>
             <Attribute id="10408" value="" name="ident"/>
             <Attribute id="10409" value="48000" name="sampleRate"/>
             <Attribute id="10410" value="16" name="bitDepth"/>
             <Attribute id="10411" value="1" name="gain"/>
             <Attribute id="10412" value="0" name="mixToMono"/>
            </Attributes>
            <MetaData>
             <entry key="WinSubProjectDisplayName" val=""/>
            </MetaData>
           </AMFile>
           <AMFile id="10413" start="2803" duration="103" scalar="1/1" mediaStart="3450/1" mediaDuration="103/1" trackNumber="0" src="29" channelNumber="0" >
            <Parameters>
             <InterpolatingParam id="10414" interp="linr"  time="0/1" value="1" leadInLength="0/1"  name="volume"/>
             <Parameter id="10415"  name="captions"/>
            </Parameters>
            <Attributes>
             <Attribute id="10416" value="" name="ident"/>
             <Attribute id="10417" value="48000" name="sampleRate"/>
             <Attribute id="10418" value="16" name="bitDepth"/>
             <Attribute id="10419" value="1" name="gain"/>
             <Attribute id="10420" value="0" name="mixToMono"/>
            </Attributes>
            <MetaData>
             <entry key="WinSubProjectDisplayName" val=""/>
            </MetaData>
           </AMFile>
           <AMFile id="10421" start="2906" duration="2683" scalar="1/1" mediaStart="3564/1" mediaDuration="2683/1" trackNumber="0" src="29" channelNumber="0" >
            <Parameters>
             <InterpolatingParam id="10422" interp="linr"  time="0/1" value="1" leadInLength="0/1"  name="volume"/>
             <Parameter id="10423"  name="captions"/>
            </Parameters>
            <Attributes>
             <Attribute id="10424" value="" name="ident"/>
             <Attribute id="10425" value="48000" name="sampleRate"/>
             <Attribute id="10426" value="16" name="bitDepth"/>
             <Attribute id="10427" value="1" name="gain"/>
             <Attribute id="10428" value="0" name="mixToMono"/>
            </Attributes>
            <MetaData>
             <entry key="WinSubProjectDisplayName" val=""/>
            </MetaData>
           </AMFile>
           <AMFile id="10429" start="5589" duration="143" scalar="1/1" mediaStart="6247/1" mediaDuration="143/1" trackNumber="0" src="29" channelNumber="0" >
            <Parameters>
             <InterpolatingParam id="10430" interp="linr"  time="0/1" value="1" leadInLength="0/1"  name="volume"/>
             <Parameter id="10431"  name="captions"/>
            </Parameters>
            <Attributes>
             <Attribute id="10432" value="" name="ident"/>
             <Attribute id="10433" value="48000" name="sampleRate"/>
             <Attribute id="10434" value="16" name="bitDepth"/>
             <Attribute id="10435" value="1" name="gain"/>
             <Attribute id="10436" value="0" name="mixToMono"/>
            </Attributes>
            <MetaData>
             <entry key="WinSubProjectDisplayName" val=""/>
            </MetaData>
           </AMFile>
           <AMFile id="10437" start="5732" duration="285" scalar="1/1" mediaStart="6413/1" mediaDuration="285/1" trackNumber="0" src="29" channelNumber="0" >
            <Parameters>
             <InterpolatingParam id="10438" interp="linr"  time="0/1" value="1" leadInLength="0/1"  name="volume"/>
             <Parameter id="10439"  name="captions"/>
            </Parameters>
            <Attributes>
             <Attribute id="10440" value="" name="ident"/>
             <Attribute id="10441" value="48000" name="sampleRate"/>
             <Attribute id="10442" value="16" name="bitDepth"/>
             <Attribute id="10443" value="1" name="gain"/>
             <Attribute id="10444" value="0" name="mixToMono"/>
            </Attributes>
            <MetaData>
             <entry key="WinSubProjectDisplayName" val=""/>
            </MetaData>
           </AMFile>
           <AMFile id="10445" start="6017" duration="102" scalar="1/1" mediaStart="6729/1" mediaDuration="102/1" trackNumber="0" src="29" channelNumber="0" >
            <Parameters>
             <InterpolatingParam id="10446" interp="linr"  time="0/1" value="1" leadInLength="0/1"  name="volume"/>
             <Parameter id="10447"  name="captions"/>
            </Parameters>
            <Attributes>
             <Attribute id="10448" value="" name="ident"/>
             <Attribute id="10449" value="48000" name="sampleRate"/>
             <Attribute id="10450" value="16" name="bitDepth"/>
             <Attribute id="10451" value="1" name="gain"/>
             <Attribute id="10452" value="0" name="mixToMono"/>
            </Attributes>
            <MetaData>
             <entry key="WinSubProjectDisplayName" val=""/>
            </MetaData>
           </AMFile>
           <AMFile id="10453" start="6119" duration="234" scalar="1/1" mediaStart="6848/1" mediaDuration="234/1" trackNumber="0" src="29" channelNumber="0" >
            <Parameters>
             <InterpolatingParam id="10454" interp="linr"  time="0/1" value="1" leadInLength="0/1"  name="volume"/>
             <Parameter id="10455"  name="captions"/>
            </Parameters>
            <Attributes>
             <Attribute id="10456" value="" name="ident"/>
             <Attribute id="10457" value="48000" name="sampleRate"/>
             <Attribute id="10458" value="16" name="bitDepth"/>
             <Attribute id="10459" value="1" name="gain"/>
             <Attribute id="10460" value="0" name="mixToMono"/>
            </Attributes>
            <MetaData>
             <entry key="WinSubProjectDisplayName" val=""/>
            </MetaData>
           </AMFile>
           <AMFile id="10461" start="6353" duration="107" scalar="1/1" mediaStart="7089/1" mediaDuration="107/1" trackNumber="0" src="29" channelNumber="0" >
            <Parameters>
             <InterpolatingParam id="10462" interp="linr"  time="0/1" value="1" leadInLength="0/1"  name="volume"/>
             <Parameter id="10463"  name="captions"/>
            </Parameters>
            <Attributes>
             <Attribute id="10464" value="" name="ident"/>
             <Attribute id="10465" value="48000" name="sampleRate"/>
             <Attribute id="10466" value="16" name="bitDepth"/>
             <Attribute id="10467" value="1" name="gain"/>
             <Attribute id="10468" value="0" name="mixToMono"/>
            </Attributes>
            <MetaData>
             <entry key="WinSubProjectDisplayName" val=""/>
            </MetaData>
           </AMFile>
           <AMFile id="10469" start="6460" duration="67" scalar="1/1" mediaStart="7207/1" mediaDuration="67/1" trackNumber="0" src="29" channelNumber="0" >
            <Parameters>
             <InterpolatingParam id="10470" interp="linr"  time="0/1" value="1" leadInLength="0/1"  name="volume"/>
             <Parameter id="10471"  name="captions"/>
            </Parameters>
            <Attributes>
             <Attribute id="10472" value="" name="ident"/>
             <Attribute id="10473" value="48000" name="sampleRate"/>
             <Attribute id="10474" value="16" name="bitDepth"/>
             <Attribute id="10475" value="1" name="gain"/>
             <Attribute id="10476" value="0" name="mixToMono"/>
            </Attributes>
            <MetaData>
             <entry key="WinSubProjectDisplayName" val=""/>
            </MetaData>
           </AMFile>
           <AMFile id="10477" start="6527" duration="226" scalar="1/1" mediaStart="7297/1" mediaDuration="226/1" trackNumber="0" src="29" channelNumber="0" >
            <Parameters>
             <InterpolatingParam id="10478" interp="linr"  time="0/1" value="1" leadInLength="0/1"  name="volume"/>
             <Parameter id="10479"  name="captions"/>
            </Parameters>
            <Attributes>
             <Attribute id="10480" value="" name="ident"/>
             <Attribute id="10481" value="48000" name="sampleRate"/>
             <Attribute id="10482" value="16" name="bitDepth"/>
             <Attribute id="10483" value="1" name="gain"/>
             <Attribute id="10484" value="0" name="mixToMono"/>
            </Attributes>
            <MetaData>
             <entry key="WinSubProjectDisplayName" val=""/>
            </MetaData>
           </AMFile>
           <AMFile id="10485" start="6753" duration="117" scalar="1/1" mediaStart="7540/1" mediaDuration="117/1" trackNumber="0" src="29" channelNumber="0" >
            <Parameters>
             <InterpolatingParam id="10486" interp="linr"  time="0/1" value="1" leadInLength="0/1"  name="volume"/>
             <Parameter id="10487"  name="captions"/>
            </Parameters>
            <Attributes>
             <Attribute id="10488" value="" name="ident"/>
             <Attribute id="10489" value="48000" name="sampleRate"/>
             <Attribute id="10490" value="16" name="bitDepth"/>
             <Attribute id="10491" value="1" name="gain"/>
             <Attribute id="10492" value="0" name="mixToMono"/>
            </Attributes>
            <MetaData>
             <entry key="WinSubProjectDisplayName" val=""/>
            </MetaData>
           </AMFile>
           <AMFile id="10493" start="6870" duration="52" scalar="1/1" mediaStart="7796/1" mediaDuration="52/1" trackNumber="0" src="29" channelNumber="0" >
            <Parameters>
             <InterpolatingParam id="10494" interp="linr"  time="0/1" value="1" leadInLength="0/1"  name="volume"/>
             <Parameter id="10495"  name="captions"/>
            </Parameters>
            <Attributes>
             <Attribute id="10496" value="" name="ident"/>
             <Attribute id="10497" value="48000" name="sampleRate"/>
             <Attribute id="10498" value="16" name="bitDepth"/>
             <Attribute id="10499" value="1" name="gain"/>
             <Attribute id="10500" value="0" name="mixToMono"/>
            </Attributes>
            <MetaData>
             <entry key="WinSubProjectDisplayName" val=""/>
            </MetaData>
           </AMFile>
           <AMFile id="10501" start="6922" duration="100" scalar="1/1" mediaStart="8187/1" mediaDuration="100/1" trackNumber="0" src="29" channelNumber="0" >
            <Parameters>
             <InterpolatingParam id="10502" interp="linr"  time="0/1" value="1" leadInLength="0/1"  name="volume"/>
             <Parameter id="10503"  name="captions"/>
            </Parameters>
            <Attributes>
             <Attribute id="10504" value="" name="ident"/>
             <Attribute id="10505" value="48000" name="sampleRate"/>
             <Attribute id="10506" value="16" name="bitDepth"/>
             <Attribute id="10507" value="1" name="gain"/>
             <Attribute id="10508" value="0" name="mixToMono"/>
            </Attributes>
            <MetaData>
             <entry key="WinSubProjectDisplayName" val=""/>
            </MetaData>
           </AMFile>
           <AMFile id="10509" start="7022" duration="1377" scalar="1/1" mediaStart="8303/1" mediaDuration="1377/1" trackNumber="0" src="29" channelNumber="0" >
            <Parameters>
             <InterpolatingParam id="10510" interp="linr"  time="0/1" value="1" leadInLength="0/1"  name="volume"/>
             <Parameter id="10511"  name="captions"/>
            </Parameters>
            <Attributes>
             <Attribute id="10512" value="" name="ident"/>
             <Attribute id="10513" value="48000" name="sampleRate"/>
             <Attribute id="10514" value="16" name="bitDepth"/>
             <Attribute id="10515" value="1" name="gain"/>
             <Attribute id="10516" value="0" name="mixToMono"/>
            </Attributes>
            <MetaData>
             <entry key="WinSubProjectDisplayName" val=""/>
            </MetaData>
           </AMFile>
           <AMFile id="10517" start="8399" duration="3717" scalar="1/1" mediaStart="9929/1" mediaDuration="3717/1" trackNumber="0" src="29" channelNumber="0" >
            <Parameters>
             <InterpolatingParam id="10518" interp="linr"  time="0/1" value="1" leadInLength="0/1"  name="volume"/>
             <Parameter id="10519"  name="captions"/>
            </Parameters>
            <Attributes>
             <Attribute id="10520" value="" name="ident"/>
             <Attribute id="10521" value="48000" name="sampleRate"/>
             <Attribute id="10522" value="16" name="bitDepth"/>
             <Attribute id="10523" value="1" name="gain"/>
             <Attribute id="10524" value="0" name="mixToMono"/>
            </Attributes>
            <MetaData>
             <entry key="WinSubProjectDisplayName" val=""/>
            </MetaData>
           </AMFile>
          </Medias>
         </GenericTrack>
        </StitchedMedia>
        <StitchedMedia id="10525" start="8700" duration="251" scalar="1/1" mediaStart="11768/1" mediaDuration="251/1" minMediaStart="0/1" >
         <Transformer>
          <VectorParam id="10526"  name="translation">
           <InterpolatingParam id="10527" interp="linr"  time="0/1" value="0" leadInLength="0/1"  />
           <InterpolatingParam id="10528" interp="linr"  time="0/1" value="0" leadInLength="0/1"  />
           <InterpolatingParam id="10529" interp="linr"  time="0/1" value="0" leadInLength="0/1"  />
          </VectorParam>
          <VectorParam id="10530"  name="rotation">
           <InterpolatingParam id="10531" interp="linr"  time="0/1" value="0" leadInLength="0/1"  />
           <InterpolatingParam id="10532" interp="linr"  time="0/1" value="0" leadInLength="0/1"  />
           <InterpolatingParam id="10533" interp="linr"  time="0/1" value="0" leadInLength="0/1"  />
          </VectorParam>
          <VectorParam id="10534"  name="shear">
           <InterpolatingParam id="10535" interp="linr"  time="0/1" value="0" leadInLength="0/1"  />
           <InterpolatingParam id="10536" interp="linr"  time="0/1" value="0" leadInLength="0/1"  />
           <InterpolatingParam id="10537" interp="linr"  time="0/1" value="0" leadInLength="0/1"  />
          </VectorParam>
          <VectorParam id="10538"  name="scale">
           <InterpolatingParam id="10539" interp="linr"  time="0/1" value="1" leadInLength="0/1"  />
           <InterpolatingParam id="10540" interp="linr"  time="0/1" value="1" leadInLength="0/1"  />
           <InterpolatingParam id="10541" interp="linr"  time="0/1" value="1" leadInLength="0/1"  />
          </VectorParam>
          <VectorParam id="10542"  name="anchor">
           <InterpolatingParam id="10543" interp="linr"  time="0/1" value="0" leadInLength="0/1"  />
           <InterpolatingParam id="10544" interp="linr"  time="0/1" value="0" leadInLength="0/1"  />
           <InterpolatingParam id="10545" interp="linr"  time="0/1" value="0" leadInLength="0/1"  />
          </VectorParam>
         </Transformer>
         <Parameters>
          <InterpolatingParam id="10546" interp="linr"  time="0/1" value="1" leadInLength="0/1"  name="cursorOpacity"/>
          <InterpolatingParam id="10547" interp="linr"  time="0/1" value="1" leadInLength="0/1"  name="cursorScale"/>
          <InterpolatingParam id="10548" interp="linr"  time="0/1" value="1.5625" leadInLength="0/1"  name="volume"/>
          <Parameter id="10549"  name="captions"/>
         </Parameters>
         <Effects>
          <GenericEffect id="10550" name = "WinCompression" >
           <Parameters>
           <InterpolatingParam id="10551" interp="linr"  time="0/1" value="0" leadInLength="0/1"   name="attack"/>
           <InterpolatingParam id="10552" interp="linr"  time="0/1" value="9" leadInLength="0/1"   name="gain"/>
           <Parameter id="10553"   name="preset">
            <Keyframes>
            <Keyframe id="10554"  time="0/1" value="1" leadInLength="0/1"  />
            </Keyframes>
           </Parameter>
           <InterpolatingParam id="10555" interp="linr"  time="0/1" value="10" leadInLength="0/1"   name="ratio"/>
           <InterpolatingParam id="10556" interp="linr"  time="0/1" value="3500" leadInLength="0/1"   name="release"/>
           <InterpolatingParam id="10557" interp="linr"  time="0/1" value="-20" leadInLength="0/1"   name="threshold"/>
           </Parameters>
          </GenericEffect>
          <GenericEffect id="10558" name = "NoiseReduction" >
           <Parameters>
           <InterpolatingParam id="10559" interp="linr"  time="0/1" value="20" leadInLength="0/1"   name="denoiserAmount"/>
           <InterpolatingParam id="10560" interp="linr"  time="0/1" value="0" leadInLength="0/1"   name="denoiserThreshold"/>
           <Parameter id="10561"   name="noiseProfile">
            <Keyframes>
            <Keyframe id="10562"  time="0/1" value="FBAAAAIAAABErAAAAQIAAIA/l8JLuYTCrOB9wgsMfMJoG4LCaWeFwkohjMJdoYvCYv6LwlnvjcKf&#xD;&#xa;nYzChXWPwlcejsL6fo/C5OmQwgVTj8IVMI/COiWRwoWFkcJ2tYzC8I6MwuQbjcJvEo/ClwGRwheQ&#xD;&#xa;lsK8+pbCN5qVwlielcJ905rCmu+fwst0ncIC/JvCdIWdws3snsKxC5zCfh2cwniFnMJRypzCtRag&#xD;&#xa;wuoCosJQt6DCzoegwhY9ocIWN6PCsNqkwrSlpMJ6maTCYpCkwmLvo8Li+KPCyEamwnBNqMLMcqrC&#xD;&#xa;v2GswoS+q8Kk86vCVACuwnvUr8JxZa/CqHqswrdXq8LqT6zCZsuswhZxrMLBX67CnmqvwpYyrsKc&#xD;&#xa;pq3CJFGvwghrsMK3y6/CXoCtwmWZr8ICi7DCgRezwogSs8Joq7LCm0Sxwuz/scIfibTCOOK1wlIM&#xD;&#xa;t8K87LfCj3K3wqDYs8KT1bLCVsW0wnZ0tcJGhLXCfPe0ws/ntcLGXrbCzAG1wtXdtcKxxrTC1Ay1&#xD;&#xa;wquGtcLjELbC8Zi2wl7rtsJBYbbCMF+1wrEutMKuibTCSFa1wpvktMIu3rTCtGe4wjaduMIKErfC&#xD;&#xa;SLa1wvS/tsJmZrjCdn63whjft8Ie47rCfdi5wmjpt8KKCLjCXmC5wsOQt8JDGbfCK4m4wmpvuMLL&#xD;&#xa;nLjC80q4wjUVusKunLjC1Be5wg4cuMLxCbjCwfW4wmi7ucIOdbvCbLG6whqdusKYErrCbpC4wmq0&#xD;&#xa;ucIoWrvCaNe6ws4iu8LSc7zCUNa7wuJZvMIwLL3CWe28wps2v8J2l77Cv3W+wvgavsKAwrzCQCy8&#xD;&#xa;wgBRu8Km8brChSa6wuM4u8IaaL3Cf5y9wg4hvMLur7vCIpO9wm0fvcIGNLzC7Le8wvKgvMKQrLzC&#xD;&#xa;p6+9wtYtvsJcxbzCQC29wjDqvcKeNbzCH2W8wpbZvsLCTL7CnjO+wuIsvsJs67vCwLq9wiKhvsLs&#xD;&#xa;o73C5Du9wqqhvcLwKr7C2kq/wqEMv8LVCb7Cpla+wsXpvMIs6bvC/fO8wueCvsIM4b3CxtC+wmTo&#xD;&#xa;vcI+arzCTNe8wiFNv8IvKL/Cpg+/woK1v8L4i7/CNv2+wmsVv8KWj77CVym+wnAlv8Joa8DCFDzA&#xD;&#xa;wiQYwcLSIcHCxILAwuxKvsJYm77CPoHAwiYPwcLuy77CcQa+wrB4vcKwYLzCxKW8worIvcIlzr/C&#xD;&#xa;OMC+wuRDvcJGZ7zCxFi9wuQzvMLPbbvCwIe+wm7bvcLm9L3COH6+wuuJvMK2B73CYb+9wqbxvMK/&#xD;&#xa;mL7CqIe9wvCavMKs7L3Ckau8wkpavMKt9LzCF8S+wmgKvsKCy73ClrG+wmIovcIns73Cmg+/wgw7&#xD;&#xa;wMI607/CpEq/wmwVvcJLsLvCMD68wuxdvcIeI7/C+bS+wpxfvsJyxsDC1tO/wmtrv8LNnb/CQiK+&#xD;&#xa;wlz7vcLa6L/CUMXBwtrQwcIAw8HCNJHBwvphwMKqc7/CSkW/wjkvwMK8ccHCHmDBwlKAwcKu+MDC&#xD;&#xa;zErCwuqgwsLa+MLC753DwmjuxcLEWMfCkePFwo47xsKnX8XC7tTCwuf3wsL+HcLCTcTBwmg6w8Is&#xD;&#xa;RMPC+qjDwiyGxMLi58TCnWvFwpjsxsKzCMbCyCTDwpM2wcJWGMPCvuDFwh42xsIfyMTCeLTFwuH7&#xD;&#xa;xMJctcfCVv3HwpTGx8J8b8jCqhjHwrgkx8LXNsfCZkLGwnxSxcL8csXCbu7FwsaQyMLa68fCo0XH&#xD;&#xa;woruxMJGHsbCORbJwry2yMLIUsfCxlfGwmLoxcLSPMnCYPDJwkw3yMKc7crC8vDLwug2y8Lu28vC&#xD;&#xa;OKvMwvLpysKGj8rCtNXLwrMay8KdGMrCUr3JwgIVy8J64MvCkbTJwjh4x8JGI8bCvBXHwnoPycKN&#xD;&#xa;Ss3CuC/Nwuywy8IkJ8zCx9/KwnB5ycKnk8nCenLJwnN6ycKc+sjCLFzJwuTrzMJkJM/CY5vOwoYO&#xD;&#xa;zsLU987CVKfNwiZZzcJQxNDCICHVwi0d18Kc29jCIF/YwtKo2MKeBNvCwpTawmY/2sJXPdvCZZXY&#xD;&#xa;whB818IQNdjCDF3XwtWC1sIGF9fCfFfXwkBy2MJ6+9nC1hfZwi5k2cJlfNjCnEPYwm/N1cKGOdXC&#xD;&#xa;Yk/XwgXL2MJSytfCgpTWwqTT1sJOGtnCrF/ZwtcT2cK08NjCscHZwpQ72sLJ/NrCy3zYwmCk18LE&#xD;&#xa;O9fC6hbYwtYU2cJN/dnC1EbZwrw/2cIqyNbCDr7Xwvb02cLQ+dnCaJvXwuYO18KSodnC1NnawtJJ&#xD;&#xa;18ISLtjC90nawoel2cIwl9jCi0XZwih328Ks7NjC5KzZwqui2cJw0tjCukLYws+O2MJaqtrCUuXa&#xD;&#xa;wviX2MIKxtfCnqXXwhjI2MJwAtvCIFvcwgCL2cJ0/djCdyXawh9H2cJ+ntfCy4TXwhqF2MJ68NnC&#xD;&#xa;CzvYwljT2cIkP9vCIs/bwjpB2sK2A9rCXt/awjZH2sIfltvCKWPcwjp53MKrGd3CaBPewj/03MJm&#xD;&#xa;U97CphfgwlJp3cKQpt3Crxjewm7d28Kq/9vCNNXcwqY728IUH9vCkirbwgIt28KK19zCjmzdwoBH&#xD;&#xa;3MIAUtvCUq3bwo8f28Ig09jCiyfZwhbx2sLWe9zCvgzbwmwI2sI2nNvC0lvdwg6128I8PNvCLufa&#xD;&#xa;wkyK28KkitzCJIDcwmAO28L0TNrCDHXawjla28IQkdzCoCDcwjRI3MJVUdvCtujZwnCs2sK8Yd3C&#xD;&#xa;iGbbwuSB2cImFNvCCI7rwoA/l8JLuYTCrOB9wgsMfMJoG4LCaWeFwkohjMJdoYvCYv6LwlnvjcKf&#xD;&#xa;nYzChXWPwlcejsL6fo/C5OmQwgVTj8IVMI/COiWRwoWFkcJ2tYzC8I6MwuQbjcJvEo/ClwGRwheQ&#xD;&#xa;lsK8+pbCN5qVwlielcJ905rCmu+fwst0ncIC/JvCdIWdws3snsKxC5zCfh2cwniFnMJRypzCtRag&#xD;&#xa;wuoCosJQt6DCzoegwhY9ocIWN6PCsNqkwrSlpMJ6maTCYpCkwmLvo8Li+KPCyEamwnBNqMLMcqrC&#xD;&#xa;v2GswoS+q8Kk86vCVACuwnvUr8JxZa/CqHqswrdXq8LqT6zCZsuswhZxrMLBX67CnmqvwpYyrsKc&#xD;&#xa;pq3CJFGvwghrsMK3y6/CXoCtwmWZr8ICi7DCgRezwogSs8Joq7LCm0Sxwuz/scIfibTCOOK1wlIM&#xD;&#xa;t8K87LfCj3K3wqDYs8KT1bLCVsW0wnZ0tcJGhLXCfPe0ws/ntcLGXrbCzAG1wtXdtcKxxrTC1Ay1&#xD;&#xa;wquGtcLjELbC8Zi2wl7rtsJBYbbCMF+1wrEutMKuibTCSFa1wpvktMIu3rTCtGe4wjaduMIKErfC&#xD;&#xa;SLa1wvS/tsJmZrjCdn63whjft8Ie47rCfdi5wmjpt8KKCLjCXmC5wsOQt8JDGbfCK4m4wmpvuMLL&#xD;&#xa;nLjC80q4wjUVusKunLjC1Be5wg4cuMLxCbjCwfW4wmi7ucIOdbvCbLG6whqdusKYErrCbpC4wmq0&#xD;&#xa;ucIoWrvCaNe6ws4iu8LSc7zCUNa7wuJZvMIwLL3CWe28wps2v8J2l77Cv3W+wvgavsKAwrzCQCy8&#xD;&#xa;wgBRu8Km8brChSa6wuM4u8IaaL3Cf5y9wg4hvMLur7vCIpO9wm0fvcIGNLzC7Le8wvKgvMKQrLzC&#xD;&#xa;p6+9wtYtvsJcxbzCQC29wjDqvcKeNbzCH2W8wpbZvsLCTL7CnjO+wuIsvsJs67vCwLq9wiKhvsLs&#xD;&#xa;o73C5Du9wqqhvcLwKr7C2kq/wqEMv8LVCb7Cpla+wsXpvMIs6bvC/fO8wueCvsIM4b3CxtC+wmTo&#xD;&#xa;vcI+arzCTNe8wiFNv8IvKL/Cpg+/woK1v8L4i7/CNv2+wmsVv8KWj77CVym+wnAlv8Joa8DCFDzA&#xD;&#xa;wiQYwcLSIcHCxILAwuxKvsJYm77CPoHAwiYPwcLuy77CcQa+wrB4vcKwYLzCxKW8worIvcIlzr/C&#xD;&#xa;OMC+wuRDvcJGZ7zCxFi9wuQzvMLPbbvCwIe+wm7bvcLm9L3COH6+wuuJvMK2B73CYb+9wqbxvMK/&#xD;&#xa;mL7CqIe9wvCavMKs7L3Ckau8wkpavMKt9LzCF8S+wmgKvsKCy73ClrG+wmIovcIns73Cmg+/wgw7&#xD;&#xa;wMI607/CpEq/wmwVvcJLsLvCMD68wuxdvcIeI7/C+bS+wpxfvsJyxsDC1tO/wmtrv8LNnb/CQiK+&#xD;&#xa;wlz7vcLa6L/CUMXBwtrQwcIAw8HCNJHBwvphwMKqc7/CSkW/wjkvwMK8ccHCHmDBwlKAwcKu+MDC&#xD;&#xa;zErCwuqgwsLa+MLC753DwmjuxcLEWMfCkePFwo47xsKnX8XC7tTCwuf3wsL+HcLCTcTBwmg6w8Is&#xD;&#xa;RMPC+qjDwiyGxMLi58TCnWvFwpjsxsKzCMbCyCTDwpM2wcJWGMPCvuDFwh42xsIfyMTCeLTFwuH7&#xD;&#xa;xMJctcfCVv3HwpTGx8J8b8jCqhjHwrgkx8LXNsfCZkLGwnxSxcL8csXCbu7FwsaQyMLa68fCo0XH&#xD;&#xa;woruxMJGHsbCORbJwry2yMLIUsfCxlfGwmLoxcLSPMnCYPDJwkw3yMKc7crC8vDLwug2y8Lu28vC&#xD;&#xa;OKvMwvLpysKGj8rCtNXLwrMay8KdGMrCUr3JwgIVy8J64MvCkbTJwjh4x8JGI8bCvBXHwnoPycKN&#xD;&#xa;Ss3CuC/Nwuywy8IkJ8zCx9/KwnB5ycKnk8nCenLJwnN6ycKc+sjCLFzJwuTrzMJkJM/CY5vOwoYO&#xD;&#xa;zsLU987CVKfNwiZZzcJQxNDCICHVwi0d18Kc29jCIF/YwtKo2MKeBNvCwpTawmY/2sJXPdvCZZXY&#xD;&#xa;whB818IQNdjCDF3XwtWC1sIGF9fCfFfXwkBy2MJ6+9nC1hfZwi5k2cJlfNjCnEPYwm/N1cKGOdXC&#xD;&#xa;Yk/XwgXL2MJSytfCgpTWwqTT1sJOGtnCrF/ZwtcT2cK08NjCscHZwpQ72sLJ/NrCy3zYwmCk18LE&#xD;&#xa;O9fC6hbYwtYU2cJN/dnC1EbZwrw/2cIqyNbCDr7Xwvb02cLQ+dnCaJvXwuYO18KSodnC1NnawtJJ&#xD;&#xa;18ISLtjC90nawoel2cIwl9jCi0XZwih328Ks7NjC5KzZwqui2cJw0tjCukLYws+O2MJaqtrCUuXa&#xD;&#xa;wviX2MIKxtfCnqXXwhjI2MJwAtvCIFvcwgCL2cJ0/djCdyXawh9H2cJ+ntfCy4TXwhqF2MJ68NnC&#xD;&#xa;CzvYwljT2cIkP9vCIs/bwjpB2sK2A9rCXt/awjZH2sIfltvCKWPcwjp53MKrGd3CaBPewj/03MJm&#xD;&#xa;U97CphfgwlJp3cKQpt3Crxjewm7d28Kq/9vCNNXcwqY728IUH9vCkirbwgIt28KK19zCjmzdwoBH&#xD;&#xa;3MIAUtvCUq3bwo8f28Ig09jCiyfZwhbx2sLWe9zCvgzbwmwI2sI2nNvC0lvdwg6128I8PNvCLufa&#xD;&#xa;wkyK28KkitzCJIDcwmAO28L0TNrCDHXawjla28IQkdzCoCDcwjRI3MJVUdvCtujZwnCs2sK8Yd3C&#xD;&#xa;iGbbwuSB2cImFNvCCI7r" leadInLength="0/1"  />
            </Keyframes>
           </Parameter>
           </Parameters>
          </GenericEffect>
          <GenericEffect id="10563" name = "Declipper" >
           <Parameters>
           <InterpolatingParam id="10564" interp="linr"  time="0/1" value="-1" leadInLength="0/1"   name="sensitivity"/>
           </Parameters>
          </GenericEffect>
          <GenericEffect id="10565" name = "Declicker" >
           <Parameters>
           <InterpolatingParam id="10566" interp="linr"  time="0/1" value="3" leadInLength="0/1"   name="sensitivity"/>
           </Parameters>
          </GenericEffect>
         </Effects>
         <Attributes>
          <Attribute id="10567" value="" name="ident"/>
          <Attribute id="10568" value="0" name="mixToMono"/>
         </Attributes>
         <MetaData>
          <entry key="WinSubProjectDisplayName" val=""/>
         </MetaData>
         <ExtraData>
          <Entry key="ZoomPanBin">
           <ZoomPanBin id="10569"  >
            <ZoomPanKeyframes>
            </ZoomPanKeyframes>
           </ZoomPanBin>
          </Entry>
          <Entry key="CursorEffectBin">
           <CursorEffectBin id="10570"  >
            <CursorEffectKeyframes>
            </CursorEffectKeyframes>
           </CursorEffectBin>
          </Entry>
         </ExtraData>
         <GenericTrack id="10571"  >
          <Attributes>
           <Attribute id="10572" value="" name="ident"/>
           <Attribute id="10573" value="0" name="audioMuted"/>
           <Attribute id="10574" value="0" name="videoHidden"/>
          </Attributes>
          <MetaData>
           <entry key="IsLocked" val="False"/>
           <entry key="WinTrackHeight" val="0"/>
          </MetaData>
          <Medias>
           <AMFile id="10575" start="0" duration="117" scalar="1/1" mediaStart="0/1" mediaDuration="117/1" trackNumber="0" src="29" channelNumber="0" >
            <Parameters>
             <InterpolatingParam id="10576" interp="linr"  time="0/1" value="1" leadInLength="0/1"  name="volume"/>
             <Parameter id="10577"  name="captions"/>
            </Parameters>
            <Attributes>
             <Attribute id="10578" value="" name="ident"/>
             <Attribute id="10579" value="48000" name="sampleRate"/>
             <Attribute id="10580" value="16" name="bitDepth"/>
             <Attribute id="10581" value="1" name="gain"/>
             <Attribute id="10582" value="0" name="mixToMono"/>
            </Attributes>
            <MetaData>
             <entry key="WinSubProjectDisplayName" val=""/>
            </MetaData>
           </AMFile>
           <AMFile id="10583" start="117" duration="272" scalar="1/1" mediaStart="131/1" mediaDuration="272/1" trackNumber="0" src="29" channelNumber="0" >
            <Parameters>
             <InterpolatingParam id="10584" interp="linr"  time="0/1" value="1" leadInLength="0/1"  name="volume"/>
             <Parameter id="10585"  name="captions"/>
            </Parameters>
            <Attributes>
             <Attribute id="10586" value="" name="ident"/>
             <Attribute id="10587" value="48000" name="sampleRate"/>
             <Attribute id="10588" value="16" name="bitDepth"/>
             <Attribute id="10589" value="1" name="gain"/>
             <Attribute id="10590" value="0" name="mixToMono"/>
            </Attributes>
            <MetaData>
             <entry key="WinSubProjectDisplayName" val=""/>
            </MetaData>
           </AMFile>
           <AMFile id="10591" start="389" duration="1309" scalar="1/1" mediaStart="415/1" mediaDuration="1309/1" trackNumber="0" src="29" channelNumber="0" >
            <Parameters>
             <InterpolatingParam id="10592" interp="linr"  time="0/1" value="1" leadInLength="0/1"  name="volume"/>
             <Parameter id="10593"  name="captions"/>
            </Parameters>
            <Attributes>
             <Attribute id="10594" value="" name="ident"/>
             <Attribute id="10595" value="48000" name="sampleRate"/>
             <Attribute id="10596" value="16" name="bitDepth"/>
             <Attribute id="10597" value="1" name="gain"/>
             <Attribute id="10598" value="0" name="mixToMono"/>
            </Attributes>
            <MetaData>
             <entry key="WinSubProjectDisplayName" val=""/>
            </MetaData>
           </AMFile>
           <AMFile id="10599" start="1698" duration="103" scalar="1/1" mediaStart="1734/1" mediaDuration="103/1" trackNumber="0" src="29" channelNumber="0" >
            <Parameters>
             <InterpolatingParam id="10600" interp="linr"  time="0/1" value="1" leadInLength="0/1"  name="volume"/>
             <Parameter id="10601"  name="captions"/>
            </Parameters>
            <Attributes>
             <Attribute id="10602" value="" name="ident"/>
             <Attribute id="10603" value="48000" name="sampleRate"/>
             <Attribute id="10604" value="16" name="bitDepth"/>
             <Attribute id="10605" value="1" name="gain"/>
             <Attribute id="10606" value="0" name="mixToMono"/>
            </Attributes>
            <MetaData>
             <entry key="WinSubProjectDisplayName" val=""/>
            </MetaData>
           </AMFile>
           <AMFile id="10607" start="1801" duration="245" scalar="1/1" mediaStart="2164/1" mediaDuration="245/1" trackNumber="0" src="29" channelNumber="0" >
            <Parameters>
             <InterpolatingParam id="10608" interp="linr"  time="0/1" value="1" leadInLength="0/1"  name="volume"/>
             <Parameter id="10609"  name="captions"/>
            </Parameters>
            <Attributes>
             <Attribute id="10610" value="" name="ident"/>
             <Attribute id="10611" value="48000" name="sampleRate"/>
             <Attribute id="10612" value="16" name="bitDepth"/>
             <Attribute id="10613" value="1" name="gain"/>
             <Attribute id="10614" value="0" name="mixToMono"/>
            </Attributes>
            <MetaData>
             <entry key="WinSubProjectDisplayName" val=""/>
            </MetaData>
           </AMFile>
           <AMFile id="10615" start="2046" duration="202" scalar="1/1" mediaStart="2637/1" mediaDuration="202/1" trackNumber="0" src="29" channelNumber="0" >
            <Parameters>
             <InterpolatingParam id="10616" interp="linr"  time="0/1" value="1" leadInLength="0/1"  name="volume"/>
             <Parameter id="10617"  name="captions"/>
            </Parameters>
            <Attributes>
             <Attribute id="10618" value="" name="ident"/>
             <Attribute id="10619" value="48000" name="sampleRate"/>
             <Attribute id="10620" value="16" name="bitDepth"/>
             <Attribute id="10621" value="1" name="gain"/>
             <Attribute id="10622" value="0" name="mixToMono"/>
            </Attributes>
            <MetaData>
             <entry key="WinSubProjectDisplayName" val=""/>
            </MetaData>
           </AMFile>
           <AMFile id="10623" start="2248" duration="185" scalar="1/1" mediaStart="2856/1" mediaDuration="185/1" trackNumber="0" src="29" channelNumber="0" >
            <Parameters>
             <InterpolatingParam id="10624" interp="linr"  time="0/1" value="1" leadInLength="0/1"  name="volume"/>
             <Parameter id="10625"  name="captions"/>
            </Parameters>
            <Attributes>
             <Attribute id="10626" value="" name="ident"/>
             <Attribute id="10627" value="48000" name="sampleRate"/>
             <Attribute id="10628" value="16" name="bitDepth"/>
             <Attribute id="10629" value="1" name="gain"/>
             <Attribute id="10630" value="0" name="mixToMono"/>
            </Attributes>
            <MetaData>
             <entry key="WinSubProjectDisplayName" val=""/>
            </MetaData>
           </AMFile>
           <AMFile id="10631" start="2433" duration="215" scalar="1/1" mediaStart="3054/1" mediaDuration="215/1" trackNumber="0" src="29" channelNumber="0" >
            <Parameters>
             <InterpolatingParam id="10632" interp="linr"  time="0/1" value="1" leadInLength="0/1"  name="volume"/>
             <Parameter id="10633"  name="captions"/>
            </Parameters>
            <Attributes>
             <Attribute id="10634" value="" name="ident"/>
             <Attribute id="10635" value="48000" name="sampleRate"/>
             <Attribute id="10636" value="16" name="bitDepth"/>
             <Attribute id="10637" value="1" name="gain"/>
             <Attribute id="10638" value="0" name="mixToMono"/>
            </Attributes>
            <MetaData>
             <entry key="WinSubProjectDisplayName" val=""/>
            </MetaData>
           </AMFile>
           <AMFile id="10639" start="2648" duration="155" scalar="1/1" mediaStart="3288/1" mediaDuration="155/1" trackNumber="0" src="29" channelNumber="0" >
            <Parameters>
             <InterpolatingParam id="10640" interp="linr"  time="0/1" value="1" leadInLength="0/1"  name="volume"/>
             <Parameter id="10641"  name="captions"/>
            </Parameters>
            <Attributes>
             <Attribute id="10642" value="" name="ident"/>
             <Attribute id="10643" value="48000" name="sampleRate"/>
             <Attribute id="10644" value="16" name="bitDepth"/>
             <Attribute id="10645" value="1" name="gain"/>
             <Attribute id="10646" value="0" name="mixToMono"/>
            </Attributes>
            <MetaData>
             <entry key="WinSubProjectDisplayName" val=""/>
            </MetaData>
           </AMFile>
           <AMFile id="10647" start="2803" duration="103" scalar="1/1" mediaStart="3450/1" mediaDuration="103/1" trackNumber="0" src="29" channelNumber="0" >
            <Parameters>
             <InterpolatingParam id="10648" interp="linr"  time="0/1" value="1" leadInLength="0/1"  name="volume"/>
             <Parameter id="10649"  name="captions"/>
            </Parameters>
            <Attributes>
             <Attribute id="10650" value="" name="ident"/>
             <Attribute id="10651" value="48000" name="sampleRate"/>
             <Attribute id="10652" value="16" name="bitDepth"/>
             <Attribute id="10653" value="1" name="gain"/>
             <Attribute id="10654" value="0" name="mixToMono"/>
            </Attributes>
            <MetaData>
             <entry key="WinSubProjectDisplayName" val=""/>
            </MetaData>
           </AMFile>
           <AMFile id="10655" start="2906" duration="2683" scalar="1/1" mediaStart="3564/1" mediaDuration="2683/1" trackNumber="0" src="29" channelNumber="0" >
            <Parameters>
             <InterpolatingParam id="10656" interp="linr"  time="0/1" value="1" leadInLength="0/1"  name="volume"/>
             <Parameter id="10657"  name="captions"/>
            </Parameters>
            <Attributes>
             <Attribute id="10658" value="" name="ident"/>
             <Attribute id="10659" value="48000" name="sampleRate"/>
             <Attribute id="10660" value="16" name="bitDepth"/>
             <Attribute id="10661" value="1" name="gain"/>
             <Attribute id="10662" value="0" name="mixToMono"/>
            </Attributes>
            <MetaData>
             <entry key="WinSubProjectDisplayName" val=""/>
            </MetaData>
           </AMFile>
           <AMFile id="10663" start="5589" duration="143" scalar="1/1" mediaStart="6247/1" mediaDuration="143/1" trackNumber="0" src="29" channelNumber="0" >
            <Parameters>
             <InterpolatingParam id="10664" interp="linr"  time="0/1" value="1" leadInLength="0/1"  name="volume"/>
             <Parameter id="10665"  name="captions"/>
            </Parameters>
            <Attributes>
             <Attribute id="10666" value="" name="ident"/>
             <Attribute id="10667" value="48000" name="sampleRate"/>
             <Attribute id="10668" value="16" name="bitDepth"/>
             <Attribute id="10669" value="1" name="gain"/>
             <Attribute id="10670" value="0" name="mixToMono"/>
            </Attributes>
            <MetaData>
             <entry key="WinSubProjectDisplayName" val=""/>
            </MetaData>
           </AMFile>
           <AMFile id="10671" start="5732" duration="285" scalar="1/1" mediaStart="6413/1" mediaDuration="285/1" trackNumber="0" src="29" channelNumber="0" >
            <Parameters>
             <InterpolatingParam id="10672" interp="linr"  time="0/1" value="1" leadInLength="0/1"  name="volume"/>
             <Parameter id="10673"  name="captions"/>
            </Parameters>
            <Attributes>
             <Attribute id="10674" value="" name="ident"/>
             <Attribute id="10675" value="48000" name="sampleRate"/>
             <Attribute id="10676" value="16" name="bitDepth"/>
             <Attribute id="10677" value="1" name="gain"/>
             <Attribute id="10678" value="0" name="mixToMono"/>
            </Attributes>
            <MetaData>
             <entry key="WinSubProjectDisplayName" val=""/>
            </MetaData>
           </AMFile>
           <AMFile id="10679" start="6017" duration="102" scalar="1/1" mediaStart="6729/1" mediaDuration="102/1" trackNumber="0" src="29" channelNumber="0" >
            <Parameters>
             <InterpolatingParam id="10680" interp="linr"  time="0/1" value="1" leadInLength="0/1"  name="volume"/>
             <Parameter id="10681"  name="captions"/>
            </Parameters>
            <Attributes>
             <Attribute id="10682" value="" name="ident"/>
             <Attribute id="10683" value="48000" name="sampleRate"/>
             <Attribute id="10684" value="16" name="bitDepth"/>
             <Attribute id="10685" value="1" name="gain"/>
             <Attribute id="10686" value="0" name="mixToMono"/>
            </Attributes>
            <MetaData>
             <entry key="WinSubProjectDisplayName" val=""/>
            </MetaData>
           </AMFile>
           <AMFile id="10687" start="6119" duration="234" scalar="1/1" mediaStart="6848/1" mediaDuration="234/1" trackNumber="0" src="29" channelNumber="0" >
            <Parameters>
             <InterpolatingParam id="10688" interp="linr"  time="0/1" value="1" leadInLength="0/1"  name="volume"/>
             <Parameter id="10689"  name="captions"/>
            </Parameters>
            <Attributes>
             <Attribute id="10690" value="" name="ident"/>
             <Attribute id="10691" value="48000" name="sampleRate"/>
             <Attribute id="10692" value="16" name="bitDepth"/>
             <Attribute id="10693" value="1" name="gain"/>
             <Attribute id="10694" value="0" name="mixToMono"/>
            </Attributes>
            <MetaData>
             <entry key="WinSubProjectDisplayName" val=""/>
            </MetaData>
           </AMFile>
           <AMFile id="10695" start="6353" duration="107" scalar="1/1" mediaStart="7089/1" mediaDuration="107/1" trackNumber="0" src="29" channelNumber="0" >
            <Parameters>
             <InterpolatingParam id="10696" interp="linr"  time="0/1" value="1" leadInLength="0/1"  name="volume"/>
             <Parameter id="10697"  name="captions"/>
            </Parameters>
            <Attributes>
             <Attribute id="10698" value="" name="ident"/>
             <Attribute id="10699" value="48000" name="sampleRate"/>
             <Attribute id="10700" value="16" name="bitDepth"/>
             <Attribute id="10701" value="1" name="gain"/>
             <Attribute id="10702" value="0" name="mixToMono"/>
            </Attributes>
            <MetaData>
             <entry key="WinSubProjectDisplayName" val=""/>
            </MetaData>
           </AMFile>
           <AMFile id="10703" start="6460" duration="67" scalar="1/1" mediaStart="7207/1" mediaDuration="67/1" trackNumber="0" src="29" channelNumber="0" >
            <Parameters>
             <InterpolatingParam id="10704" interp="linr"  time="0/1" value="1" leadInLength="0/1"  name="volume"/>
             <Parameter id="10705"  name="captions"/>
            </Parameters>
            <Attributes>
             <Attribute id="10706" value="" name="ident"/>
             <Attribute id="10707" value="48000" name="sampleRate"/>
             <Attribute id="10708" value="16" name="bitDepth"/>
             <Attribute id="10709" value="1" name="gain"/>
             <Attribute id="10710" value="0" name="mixToMono"/>
            </Attributes>
            <MetaData>
             <entry key="WinSubProjectDisplayName" val=""/>
            </MetaData>
           </AMFile>
           <AMFile id="10711" start="6527" duration="226" scalar="1/1" mediaStart="7297/1" mediaDuration="226/1" trackNumber="0" src="29" channelNumber="0" >
            <Parameters>
             <InterpolatingParam id="10712" interp="linr"  time="0/1" value="1" leadInLength="0/1"  name="volume"/>
             <Parameter id="10713"  name="captions"/>
            </Parameters>
            <Attributes>
             <Attribute id="10714" value="" name="ident"/>
             <Attribute id="10715" value="48000" name="sampleRate"/>
             <Attribute id="10716" value="16" name="bitDepth"/>
             <Attribute id="10717" value="1" name="gain"/>
             <Attribute id="10718" value="0" name="mixToMono"/>
            </Attributes>
            <MetaData>
             <entry key="WinSubProjectDisplayName" val=""/>
            </MetaData>
           </AMFile>
           <AMFile id="10719" start="6753" duration="117" scalar="1/1" mediaStart="7540/1" mediaDuration="117/1" trackNumber="0" src="29" channelNumber="0" >
            <Parameters>
             <InterpolatingParam id="10720" interp="linr"  time="0/1" value="1" leadInLength="0/1"  name="volume"/>
             <Parameter id="10721"  name="captions"/>
            </Parameters>
            <Attributes>
             <Attribute id="10722" value="" name="ident"/>
             <Attribute id="10723" value="48000" name="sampleRate"/>
             <Attribute id="10724" value="16" name="bitDepth"/>
             <Attribute id="10725" value="1" name="gain"/>
             <Attribute id="10726" value="0" name="mixToMono"/>
            </Attributes>
            <MetaData>
             <entry key="WinSubProjectDisplayName" val=""/>
            </MetaData>
           </AMFile>
           <AMFile id="10727" start="6870" duration="52" scalar="1/1" mediaStart="7796/1" mediaDuration="52/1" trackNumber="0" src="29" channelNumber="0" >
            <Parameters>
             <InterpolatingParam id="10728" interp="linr"  time="0/1" value="1" leadInLength="0/1"  name="volume"/>
             <Parameter id="10729"  name="captions"/>
            </Parameters>
            <Attributes>
             <Attribute id="10730" value="" name="ident"/>
             <Attribute id="10731" value="48000" name="sampleRate"/>
             <Attribute id="10732" value="16" name="bitDepth"/>
             <Attribute id="10733" value="1" name="gain"/>
             <Attribute id="10734" value="0" name="mixToMono"/>
            </Attributes>
            <MetaData>
             <entry key="WinSubProjectDisplayName" val=""/>
            </MetaData>
           </AMFile>
           <AMFile id="10735" start="6922" duration="100" scalar="1/1" mediaStart="8187/1" mediaDuration="100/1" trackNumber="0" src="29" channelNumber="0" >
            <Parameters>
             <InterpolatingParam id="10736" interp="linr"  time="0/1" value="1" leadInLength="0/1"  name="volume"/>
             <Parameter id="10737"  name="captions"/>
            </Parameters>
            <Attributes>
             <Attribute id="10738" value="" name="ident"/>
             <Attribute id="10739" value="48000" name="sampleRate"/>
             <Attribute id="10740" value="16" name="bitDepth"/>
             <Attribute id="10741" value="1" name="gain"/>
             <Attribute id="10742" value="0" name="mixToMono"/>
            </Attributes>
            <MetaData>
             <entry key="WinSubProjectDisplayName" val=""/>
            </MetaData>
           </AMFile>
           <AMFile id="10743" start="7022" duration="1377" scalar="1/1" mediaStart="8303/1" mediaDuration="1377/1" trackNumber="0" src="29" channelNumber="0" >
            <Parameters>
             <InterpolatingParam id="10744" interp="linr"  time="0/1" value="1" leadInLength="0/1"  name="volume"/>
             <Parameter id="10745"  name="captions"/>
            </Parameters>
            <Attributes>
             <Attribute id="10746" value="" name="ident"/>
             <Attribute id="10747" value="48000" name="sampleRate"/>
             <Attribute id="10748" value="16" name="bitDepth"/>
             <Attribute id="10749" value="1" name="gain"/>
             <Attribute id="10750" value="0" name="mixToMono"/>
            </Attributes>
            <MetaData>
             <entry key="WinSubProjectDisplayName" val=""/>
            </MetaData>
           </AMFile>
           <AMFile id="10751" start="8399" duration="3717" scalar="1/1" mediaStart="9929/1" mediaDuration="3717/1" trackNumber="0" src="29" channelNumber="0" >
            <Parameters>
             <InterpolatingParam id="10752" interp="linr"  time="0/1" value="1" leadInLength="0/1"  name="volume"/>
             <Parameter id="10753"  name="captions"/>
            </Parameters>
            <Attributes>
             <Attribute id="10754" value="" name="ident"/>
             <Attribute id="10755" value="48000" name="sampleRate"/>
             <Attribute id="10756" value="16" name="bitDepth"/>
             <Attribute id="10757" value="1" name="gain"/>
             <Attribute id="10758" value="0" name="mixToMono"/>
            </Attributes>
            <MetaData>
             <entry key="WinSubProjectDisplayName" val=""/>
            </MetaData>
           </AMFile>
          </Medias>
         </GenericTrack>
        </StitchedMedia>
       </Medias>
      </GenericTrack>
      <GenericTrack id="10759"  >
       <Attributes>
        <Attribute id="10760" value="Photos" name="ident"/>
        <Attribute id="10761" value="0" name="audioMuted"/>
        <Attribute id="10762" value="0" name="videoHidden"/>
       </Attributes>
       <MetaData>
        <entry key="IsLocked" val="False"/>
        <entry key="WinTrackHeight" val="62"/>
       </MetaData>
       <Medias>
        <IMFile id="10763" start="1899" duration="954" scalar="1/1" mediaStart="0/1" mediaDuration="1/1" trackNumber="0" src="12" trimStartSum="41/1" >
         <Transformer>
          <VectorParam id="10764"  name="translation">
           <InterpolatingParam id="10765" interp="linr"  >
            <Keyframes>
            <Keyframe id="10766"  time="-9999999/1" value="-1.6283185842329244" leadInLength="0/1"  />
            <Keyframe id="10767"  time="78/1" value="594.45302555481453" leadInLength="20/1"  interpolater="leadin-linr"  />
            </Keyframes>
           </InterpolatingParam>
           <InterpolatingParam id="10768" interp="linr"  >
            <Keyframes>
            <Keyframe id="10769"  time="-9999999/1" value="8.2221562891504618e-011" leadInLength="0/1"  />
            <Keyframe id="10770"  time="78/1" value="9.6245011960149895e-011" leadInLength="20/1"  interpolater="leadin-linr"  />
            </Keyframes>
           </InterpolatingParam>
           <InterpolatingParam id="10771" interp="linr"  >
            <Keyframes>
            <Keyframe id="10772"  time="-9999999/1" value="0" leadInLength="0/1"  />
            <Keyframe id="10773"  time="78/1" value="0" leadInLength="20/1"  interpolater="leadin-linr"  />
            </Keyframes>
           </InterpolatingParam>
          </VectorParam>
          <VectorParam id="10774"  name="rotation">
           <InterpolatingParam id="10775" interp="linr"  >
            <Keyframes>
            <Keyframe id="10776"  time="-9999999/1" value="0" leadInLength="0/1"  />
            <Keyframe id="10777"  time="78/1" value="0" leadInLength="20/1"  interpolater="leadin-linr"  />
            </Keyframes>
           </InterpolatingParam>
           <InterpolatingParam id="10778" interp="linr"  >
            <Keyframes>
            <Keyframe id="10779"  time="-9999999/1" value="0" leadInLength="0/1"  />
            <Keyframe id="10780"  time="78/1" value="0" leadInLength="20/1"  interpolater="leadin-linr"  />
            </Keyframes>
           </InterpolatingParam>
           <InterpolatingParam id="10781" interp="linr"  >
            <Keyframes>
            <Keyframe id="10782"  time="-9999999/1" value="0" leadInLength="0/1"  />
            <Keyframe id="10783"  time="78/1" value="0" leadInLength="20/1"  interpolater="leadin-linr"  />
            </Keyframes>
           </InterpolatingParam>
          </VectorParam>
          <VectorParam id="10784"  name="shear">
           <InterpolatingParam id="10785" interp="linr"  >
            <Keyframes>
            <Keyframe id="10786"  time="-9999999/1" value="0" leadInLength="0/1"  />
            <Keyframe id="10787"  time="78/1" value="0" leadInLength="20/1"  interpolater="leadin-linr"  />
            </Keyframes>
           </InterpolatingParam>
           <InterpolatingParam id="10788" interp="linr"  >
            <Keyframes>
            <Keyframe id="10789"  time="-9999999/1" value="0" leadInLength="0/1"  />
            <Keyframe id="10790"  time="78/1" value="0" leadInLength="20/1"  interpolater="leadin-linr"  />
            </Keyframes>
           </InterpolatingParam>
           <InterpolatingParam id="10791" interp="linr"  >
            <Keyframes>
            <Keyframe id="10792"  time="-9999999/1" value="0" leadInLength="0/1"  />
            <Keyframe id="10793"  time="78/1" value="0" leadInLength="20/1"  interpolater="leadin-linr"  />
            </Keyframes>
           </InterpolatingParam>
          </VectorParam>
          <VectorParam id="10794"  name="scale">
           <InterpolatingParam id="10795" interp="linr"  >
            <Keyframes>
            <Keyframe id="10796"  time="-9999999/1" value="0.703125" leadInLength="0/1"  />
            <Keyframe id="10797"  time="78/1" value="0.703125" leadInLength="20/1"  interpolater="leadin-linr"  />
            </Keyframes>
           </InterpolatingParam>
           <InterpolatingParam id="10798" interp="linr"  >
            <Keyframes>
            <Keyframe id="10799"  time="-9999999/1" value="0.703125" leadInLength="0/1"  />
            <Keyframe id="10800"  time="78/1" value="0.703125" leadInLength="20/1"  interpolater="leadin-linr"  />
            </Keyframes>
           </InterpolatingParam>
           <InterpolatingParam id="10801" interp="linr"  >
            <Keyframes>
            <Keyframe id="10802"  time="-9999999/1" value="1" leadInLength="0/1"  />
            <Keyframe id="10803"  time="78/1" value="1" leadInLength="20/1"  interpolater="leadin-linr"  />
            </Keyframes>
           </InterpolatingParam>
          </VectorParam>
          <VectorParam id="10804"  name="anchor">
           <InterpolatingParam id="10805" interp="linr"  time="0/1" value="0" leadInLength="0/1"  />
           <InterpolatingParam id="10806" interp="linr"  time="0/1" value="0" leadInLength="0/1"  />
           <InterpolatingParam id="10807" interp="linr"  time="0/1" value="0" leadInLength="0/1"  />
          </VectorParam>
         </Transformer>
         <Parameters>
          <VectorParam id="10808"  name="sourceCrop">
           <InterpolatingParam id="10809" interp="linr"  time="0/1" value="0" leadInLength="0/1"  />
           <InterpolatingParam id="10810" interp="linr"  time="0/1" value="0" leadInLength="0/1"  />
           <InterpolatingParam id="10811" interp="linr"  time="0/1" value="0" leadInLength="0/1"  />
           <InterpolatingParam id="10812" interp="linr"  time="0/1" value="0" leadInLength="0/1"  />
          </VectorParam>
          <VectorParam id="10813"  name="geometryCrop">
           <InterpolatingParam id="10814" interp="linr"  >
            <Keyframes>
            <Keyframe id="10815"  time="-9999999/1" value="0" leadInLength="0/1"  />
            <Keyframe id="10816"  time="78/1" value="0" leadInLength="20/1"  interpolater="leadin-linr"  />
            </Keyframes>
           </InterpolatingParam>
           <InterpolatingParam id="10817" interp="linr"  >
            <Keyframes>
            <Keyframe id="10818"  time="-9999999/1" value="0" leadInLength="0/1"  />
            <Keyframe id="10819"  time="78/1" value="0" leadInLength="20/1"  interpolater="leadin-linr"  />
            </Keyframes>
           </InterpolatingParam>
           <InterpolatingParam id="10820" interp="linr"  >
            <Keyframes>
            <Keyframe id="10821"  time="-9999999/1" value="0" leadInLength="0/1"  />
            <Keyframe id="10822"  time="78/1" value="0" leadInLength="20/1"  interpolater="leadin-linr"  />
            </Keyframes>
           </InterpolatingParam>
           <InterpolatingParam id="10823" interp="linr"  >
            <Keyframes>
            <Keyframe id="10824"  time="-9999999/1" value="0" leadInLength="0/1"  />
            <Keyframe id="10825"  time="78/1" value="0" leadInLength="20/1"  interpolater="leadin-linr"  />
            </Keyframes>
           </InterpolatingParam>
          </VectorParam>
          <InterpolatingParam id="10826" interp="linr"  name="opacity">
           <Keyframes>
           <Keyframe id="10827"  time="-9999999/1" value="1" leadInLength="0/1"  />
           <Keyframe id="10828"  time="78/1" value="1" leadInLength="20/1"  interpolater="leadin-linr"  />
           </Keyframes>
          </InterpolatingParam>
         </Parameters>
         <Attributes>
          <Attribute id="10829" value="" name="ident"/>
         </Attributes>
         <MetaData>
          <entry key="WinSubProjectDisplayName" val=""/>
         </MetaData>
         <ExtraData>
          <Entry key="ZoomPanBin">
           <ZoomPanBin id="10830"  >
            <ZoomPanKeyframes>
             <ZoomPanKeyframe id="10831" timeRangeEnd="-9999999/1" timeRangeDuration="0/1" interpolaterName="linr"  />
             <ZoomPanKeyframe id="10832" timeRangeEnd="78/1" timeRangeDuration="20/1" interpolaterName="linr"  />
            </ZoomPanKeyframes>
           </ZoomPanBin>
          </Entry>
         </ExtraData>
        </IMFile>
        <IMFile id="10833" start="2853" duration="331" scalar="1/1" mediaStart="0/1" mediaDuration="1/1" trackNumber="0" src="12" trimStartSum="724/1" >
         <Transformer>
          <VectorParam id="10834"  name="translation">
           <InterpolatingParam id="10835" interp="linr"  >
            <Keyframes>
            <Keyframe id="10836"  time="-9999999/1" value="565.51110863743156" leadInLength="0/1"  />
            <Keyframe id="10837"  time="166/1" value="358.83404155467923" leadInLength="139/1"  interpolater="leadin-linr"  />
            <Keyframe id="10838"  time="602/1" value="682.78316370691266" leadInLength="175/1"  interpolater="leadin-linr"  />
            <Keyframe id="10839"  time="934/1" value="359.9999999998368" leadInLength="210/1"  interpolater="leadin-linr"  />
            </Keyframes>
           </InterpolatingParam>
           <InterpolatingParam id="10840" interp="linr"  >
            <Keyframes>
            <Keyframe id="10841"  time="-9999999/1" value="-2.1902479829805088e-011" leadInLength="0/1"  />
            <Keyframe id="10842"  time="166/1" value="-50.546021840897481" leadInLength="139/1"  interpolater="leadin-linr"  />
            <Keyframe id="10843"  time="602/1" value="55.600624025029539" leadInLength="175/1"  interpolater="leadin-linr"  />
            <Keyframe id="10844"  time="934/1" value="6.524913942485e-011" leadInLength="210/1"  interpolater="leadin-linr"  />
            </Keyframes>
           </InterpolatingParam>
           <InterpolatingParam id="10845" interp="linr"  >
            <Keyframes>
            <Keyframe id="10846"  time="-9999999/1" value="0" leadInLength="0/1"  />
            <Keyframe id="10847"  time="166/1" value="0" leadInLength="139/1"  interpolater="leadin-linr"  />
            <Keyframe id="10848"  time="602/1" value="0" leadInLength="175/1"  interpolater="leadin-linr"  />
            <Keyframe id="10849"  time="934/1" value="0" leadInLength="210/1"  interpolater="leadin-linr"  />
            </Keyframes>
           </InterpolatingParam>
          </VectorParam>
          <VectorParam id="10850"  name="rotation">
           <InterpolatingParam id="10851" interp="linr"  >
            <Keyframes>
            <Keyframe id="10852"  time="-9999999/1" value="0" leadInLength="0/1"  />
            <Keyframe id="10853"  time="166/1" value="0" leadInLength="139/1"  interpolater="leadin-linr"  />
            <Keyframe id="10854"  time="602/1" value="0" leadInLength="175/1"  interpolater="leadin-linr"  />
            <Keyframe id="10855"  time="934/1" value="0" leadInLength="210/1"  interpolater="leadin-linr"  />
            </Keyframes>
           </InterpolatingParam>
           <InterpolatingParam id="10856" interp="linr"  >
            <Keyframes>
            <Keyframe id="10857"  time="-9999999/1" value="0" leadInLength="0/1"  />
            <Keyframe id="10858"  time="166/1" value="0" leadInLength="139/1"  interpolater="leadin-linr"  />
            <Keyframe id="10859"  time="602/1" value="0" leadInLength="175/1"  interpolater="leadin-linr"  />
            <Keyframe id="10860"  time="934/1" value="0" leadInLength="210/1"  interpolater="leadin-linr"  />
            </Keyframes>
           </InterpolatingParam>
           <InterpolatingParam id="10861" interp="linr"  >
            <Keyframes>
            <Keyframe id="10862"  time="-9999999/1" value="0" leadInLength="0/1"  />
            <Keyframe id="10863"  time="166/1" value="0" leadInLength="139/1"  interpolater="leadin-linr"  />
            <Keyframe id="10864"  time="602/1" value="0" leadInLength="175/1"  interpolater="leadin-linr"  />
            <Keyframe id="10865"  time="934/1" value="0" leadInLength="210/1"  interpolater="leadin-linr"  />
            </Keyframes>
           </InterpolatingParam>
          </VectorParam>
          <VectorParam id="10866"  name="shear">
           <InterpolatingParam id="10867" interp="linr"  >
            <Keyframes>
            <Keyframe id="10868"  time="-9999999/1" value="0" leadInLength="0/1"  />
            <Keyframe id="10869"  time="166/1" value="0" leadInLength="139/1"  interpolater="leadin-linr"  />
            <Keyframe id="10870"  time="602/1" value="0" leadInLength="175/1"  interpolater="leadin-linr"  />
            <Keyframe id="10871"  time="934/1" value="0" leadInLength="210/1"  interpolater="leadin-linr"  />
            </Keyframes>
           </InterpolatingParam>
           <InterpolatingParam id="10872" interp="linr"  >
            <Keyframes>
            <Keyframe id="10873"  time="-9999999/1" value="0" leadInLength="0/1"  />
            <Keyframe id="10874"  time="166/1" value="0" leadInLength="139/1"  interpolater="leadin-linr"  />
            <Keyframe id="10875"  time="602/1" value="0" leadInLength="175/1"  interpolater="leadin-linr"  />
            <Keyframe id="10876"  time="934/1" value="0" leadInLength="210/1"  interpolater="leadin-linr"  />
            </Keyframes>
           </InterpolatingParam>
           <InterpolatingParam id="10877" interp="linr"  >
            <Keyframes>
            <Keyframe id="10878"  time="-9999999/1" value="0" leadInLength="0/1"  />
            <Keyframe id="10879"  time="166/1" value="0" leadInLength="139/1"  interpolater="leadin-linr"  />
            <Keyframe id="10880"  time="602/1" value="0" leadInLength="175/1"  interpolater="leadin-linr"  />
            <Keyframe id="10881"  time="934/1" value="0" leadInLength="210/1"  interpolater="leadin-linr"  />
            </Keyframes>
           </InterpolatingParam>
          </VectorParam>
          <VectorParam id="10882"  name="scale">
           <InterpolatingParam id="10883" interp="linr"  >
            <Keyframes>
            <Keyframe id="10884"  time="-9999999/1" value="0.703125" leadInLength="0/1"  />
            <Keyframe id="10885"  time="166/1" value="0.703125" leadInLength="139/1"  interpolater="leadin-linr"  />
            <Keyframe id="10886"  time="602/1" value="0.81171996879883901" leadInLength="175/1"  interpolater="leadin-linr"  />
            <Keyframe id="10887"  time="934/1" value="0.70312499999995892" leadInLength="210/1"  interpolater="leadin-linr"  />
            </Keyframes>
           </InterpolatingParam>
           <InterpolatingParam id="10888" interp="linr"  >
            <Keyframes>
            <Keyframe id="10889"  time="-9999999/1" value="0.703125" leadInLength="0/1"  />
            <Keyframe id="10890"  time="166/1" value="0.703125" leadInLength="139/1"  interpolater="leadin-linr"  />
            <Keyframe id="10891"  time="602/1" value="0.81171996879883901" leadInLength="175/1"  interpolater="leadin-linr"  />
            <Keyframe id="10892"  time="934/1" value="0.70312499999995892" leadInLength="210/1"  interpolater="leadin-linr"  />
            </Keyframes>
           </InterpolatingParam>
           <InterpolatingParam id="10893" interp="linr"  >
            <Keyframes>
            <Keyframe id="10894"  time="-9999999/1" value="1" leadInLength="0/1"  />
            <Keyframe id="10895"  time="166/1" value="1" leadInLength="139/1"  interpolater="leadin-linr"  />
            <Keyframe id="10896"  time="602/1" value="1" leadInLength="175/1"  interpolater="leadin-linr"  />
            <Keyframe id="10897"  time="934/1" value="1" leadInLength="210/1"  interpolater="leadin-linr"  />
            </Keyframes>
           </InterpolatingParam>
          </VectorParam>
          <VectorParam id="10898"  name="anchor">
           <InterpolatingParam id="10899" interp="linr"  time="0/1" value="0" leadInLength="0/1"  />
           <InterpolatingParam id="10900" interp="linr"  time="0/1" value="0" leadInLength="0/1"  />
           <InterpolatingParam id="10901" interp="linr"  time="0/1" value="0" leadInLength="0/1"  />
          </VectorParam>
         </Transformer>
         <Parameters>
          <VectorParam id="10902"  name="sourceCrop">
           <InterpolatingParam id="10903" interp="linr"  time="0/1" value="0" leadInLength="0/1"  />
           <InterpolatingParam id="10904" interp="linr"  time="0/1" value="0" leadInLength="0/1"  />
           <InterpolatingParam id="10905" interp="linr"  time="0/1" value="0" leadInLength="0/1"  />
           <InterpolatingParam id="10906" interp="linr"  time="0/1" value="0" leadInLength="0/1"  />
          </VectorParam>
          <VectorParam id="10907"  name="geometryCrop">
           <InterpolatingParam id="10908" interp="linr"  >
            <Keyframes>
            <Keyframe id="10909"  time="-9999999/1" value="0" leadInLength="0/1"  />
            <Keyframe id="10910"  time="166/1" value="0" leadInLength="139/1"  interpolater="leadin-linr"  />
            <Keyframe id="10911"  time="602/1" value="0" leadInLength="175/1"  interpolater="leadin-linr"  />
            <Keyframe id="10912"  time="934/1" value="0" leadInLength="210/1"  interpolater="leadin-linr"  />
            </Keyframes>
           </InterpolatingParam>
           <InterpolatingParam id="10913" interp="linr"  >
            <Keyframes>
            <Keyframe id="10914"  time="-9999999/1" value="0" leadInLength="0/1"  />
            <Keyframe id="10915"  time="166/1" value="0" leadInLength="139/1"  interpolater="leadin-linr"  />
            <Keyframe id="10916"  time="602/1" value="0" leadInLength="175/1"  interpolater="leadin-linr"  />
            <Keyframe id="10917"  time="934/1" value="0" leadInLength="210/1"  interpolater="leadin-linr"  />
            </Keyframes>
           </InterpolatingParam>
           <InterpolatingParam id="10918" interp="linr"  >
            <Keyframes>
            <Keyframe id="10919"  time="-9999999/1" value="0" leadInLength="0/1"  />
            <Keyframe id="10920"  time="166/1" value="0" leadInLength="139/1"  interpolater="leadin-linr"  />
            <Keyframe id="10921"  time="602/1" value="0" leadInLength="175/1"  interpolater="leadin-linr"  />
            <Keyframe id="10922"  time="934/1" value="0" leadInLength="210/1"  interpolater="leadin-linr"  />
            </Keyframes>
           </InterpolatingParam>
           <InterpolatingParam id="10923" interp="linr"  >
            <Keyframes>
            <Keyframe id="10924"  time="-9999999/1" value="0" leadInLength="0/1"  />
            <Keyframe id="10925"  time="166/1" value="0" leadInLength="139/1"  interpolater="leadin-linr"  />
            <Keyframe id="10926"  time="602/1" value="0" leadInLength="175/1"  interpolater="leadin-linr"  />
            <Keyframe id="10927"  time="934/1" value="0" leadInLength="210/1"  interpolater="leadin-linr"  />
            </Keyframes>
           </InterpolatingParam>
          </VectorParam>
          <InterpolatingParam id="10928" interp="linr"  name="opacity">
           <Keyframes>
           <Keyframe id="10929"  time="-9999999/1" value="1" leadInLength="0/1"  />
           <Keyframe id="10930"  time="166/1" value="1" leadInLength="139/1"  interpolater="leadin-linr"  />
           <Keyframe id="10931"  time="602/1" value="1" leadInLength="175/1"  interpolater="leadin-linr"  />
           <Keyframe id="10932"  time="934/1" value="1" leadInLength="210/1"  interpolater="leadin-linr"  />
           </Keyframes>
          </InterpolatingParam>
         </Parameters>
         <Attributes>
          <Attribute id="10933" value="" name="ident"/>
         </Attributes>
         <MetaData>
          <entry key="WinSubProjectDisplayName" val=""/>
         </MetaData>
         <ExtraData>
          <Entry key="ZoomPanBin">
           <ZoomPanBin id="10934"  >
            <ZoomPanKeyframes>
             <ZoomPanKeyframe id="10935" timeRangeEnd="-9999999/1" timeRangeDuration="0/1" interpolaterName="linr"  />
             <ZoomPanKeyframe id="10936" timeRangeEnd="166/1" timeRangeDuration="139/1" interpolaterName="linr"  />
             <ZoomPanKeyframe id="10937" timeRangeEnd="602/1" timeRangeDuration="175/1" interpolaterName="linr"  />
             <ZoomPanKeyframe id="10938" timeRangeEnd="934/1" timeRangeDuration="210/1" interpolaterName="linr"  />
            </ZoomPanKeyframes>
           </ZoomPanBin>
          </Entry>
         </ExtraData>
        </IMFile>
        <UnifiedMedia id="10939"  >
         <AudioTransition id="10940" start="3184" duration="13" >
          <Parameters>
           <InterpolatingParam id="10941" interp="linr"  time="0/1" value="1" leadInLength="0/1"  name="volume"/>
           <Parameter id="10942"  name="captions"/>
          </Parameters>
          <Effects>
           <GenericEffect id="10943" name = "AudioTransition" >
            <Parameters>
            <Parameter id="10944"   name="audioEdgeModType">
             <Keyframes>
             <Keyframe id="10945"  time="0/1" value="0" leadInLength="0/1"  />
             </Keyframes>
            </Parameter>
            <Parameter id="10946"   name="audioTransitionType">
             <Keyframes>
             <Keyframe id="10947"  time="0/1" value="" leadInLength="0/1"  />
             </Keyframes>
            </Parameter>
            </Parameters>
            <MetaData>
            </MetaData>
           </GenericEffect>
          </Effects>
          <Attributes>
           <Attribute id="10948" value="" name="ident"/>
           <Attribute id="10949" value="0" name="sampleRate"/>
           <Attribute id="10950" value="0" name="bitDepth"/>
           <Attribute id="10951" value="1" name="gain"/>
           <Attribute id="10952" value="0" name="mixToMono"/>
          </Attributes>
         </AudioTransition>
         <ImageTransition id="10953" start="3184" duration="13" >
          <Transformer>
           <VectorParam id="10954"  name="translation">
            <InterpolatingParam id="10955" interp="linr"  time="0/1" value="0" leadInLength="0/1"  />
            <InterpolatingParam id="10956" interp="linr"  time="0/1" value="0" leadInLength="0/1"  />
            <InterpolatingParam id="10957" interp="linr"  time="0/1" value="0" leadInLength="0/1"  />
           </VectorParam>
           <VectorParam id="10958"  name="rotation">
            <InterpolatingParam id="10959" interp="linr"  time="0/1" value="0" leadInLength="0/1"  />
            <InterpolatingParam id="10960" interp="linr"  time="0/1" value="0" leadInLength="0/1"  />
            <InterpolatingParam id="10961" interp="linr"  time="0/1" value="0" leadInLength="0/1"  />
           </VectorParam>
           <VectorParam id="10962"  name="shear">
            <InterpolatingParam id="10963" interp="linr"  time="0/1" value="0" leadInLength="0/1"  />
            <InterpolatingParam id="10964" interp="linr"  time="0/1" value="0" leadInLength="0/1"  />
            <InterpolatingParam id="10965" interp="linr"  time="0/1" value="0" leadInLength="0/1"  />
           </VectorParam>
           <VectorParam id="10966"  name="scale">
            <InterpolatingParam id="10967" interp="linr"  time="0/1" value="1" leadInLength="0/1"  />
            <InterpolatingParam id="10968" interp="linr"  time="0/1" value="1" leadInLength="0/1"  />
            <InterpolatingParam id="10969" interp="linr"  time="0/1" value="1" leadInLength="0/1"  />
           </VectorParam>
           <VectorParam id="10970"  name="anchor">
            <InterpolatingParam id="10971" interp="linr"  time="0/1" value="0" leadInLength="0/1"  />
            <InterpolatingParam id="10972" interp="linr"  time="0/1" value="0" leadInLength="0/1"  />
            <InterpolatingParam id="10973" interp="linr"  time="0/1" value="0" leadInLength="0/1"  />
           </VectorParam>
          </Transformer>
          <Parameters>
           <VectorParam id="10974"  name="sourceCrop">
            <InterpolatingParam id="10975" interp="linr"  time="0/1" value="0" leadInLength="0/1"  />
            <InterpolatingParam id="10976" interp="linr"  time="0/1" value="0" leadInLength="0/1"  />
            <InterpolatingParam id="10977" interp="linr"  time="0/1" value="0" leadInLength="0/1"  />
            <InterpolatingParam id="10978" interp="linr"  time="0/1" value="0" leadInLength="0/1"  />
           </VectorParam>
           <VectorParam id="10979"  name="geometryCrop">
            <InterpolatingParam id="10980" interp="linr"  time="0/1" value="0" leadInLength="0/1"  />
            <InterpolatingParam id="10981" interp="linr"  time="0/1" value="0" leadInLength="0/1"  />
            <InterpolatingParam id="10982" interp="linr"  time="0/1" value="0" leadInLength="0/1"  />
            <InterpolatingParam id="10983" interp="linr"  time="0/1" value="0" leadInLength="0/1"  />
           </VectorParam>
           <InterpolatingParam id="10984" interp="linr"  time="0/1" value="1" leadInLength="0/1"  name="opacity"/>
          </Parameters>
          <Effects>
           <GenericEffect id="10985" name = "VisualTransition" >
            <Parameters>
            <InterpolatingParam id="10986" interp="linr"  time="0/1" value="0.5" leadInLength="0/1"   name="leftFramePercentage"/>
            <InterpolatingParam id="10987" interp="linr"  time="0/1" value="0.5" leadInLength="0/1"   name="rightFramePercentage"/>
            <Parameter id="10988"   name="visualEdgeModType">
             <Keyframes>
             <Keyframe id="10989"  time="0/1" value="1" leadInLength="0/1"  />
             </Keyframes>
            </Parameter>
            <Parameter id="10990"   name="visualTransitionType">
             <Keyframes>
             <Keyframe id="10991"  time="0/1" value="RandomBars" leadInLength="0/1"  />
             </Keyframes>
            </Parameter>
            </Parameters>
            <MetaData>
            </MetaData>
           </GenericEffect>
          </Effects>
          <Attributes>
           <Attribute id="10992" value="" name="ident"/>
          </Attributes>
          <ExtraData>
           <Entry key="ZoomPanBin">
            <ZoomPanBin id="10993"  >
             <ZoomPanKeyframes>
             </ZoomPanKeyframes>
            </ZoomPanBin>
           </Entry>
          </ExtraData>
         </ImageTransition>
         <MetaData>
          <entry key="WinSubProjectDisplayName" val=""/>
         </MetaData>
        </UnifiedMedia>
        <IMFile id="10994" start="3197" duration="173" scalar="1/1" mediaStart="0/1" mediaDuration="1/1" trackNumber="0" src="5" trimStartSum="17/1" >
         <Transformer>
          <VectorParam id="10995"  name="translation">
           <InterpolatingParam id="10996" interp="linr"  time="-9999999/1" value="395.03816793897352" leadInLength="0/1"  />
           <InterpolatingParam id="10997" interp="linr"  time="-9999999/1" value="19.923664122269969" leadInLength="0/1"  />
           <InterpolatingParam id="10998" interp="linr"  time="-9999999/1" value="0" leadInLength="0/1"  />
          </VectorParam>
          <VectorParam id="10999"  name="rotation">
           <InterpolatingParam id="11000" interp="linr"  time="-9999999/1" value="0" leadInLength="0/1"  />
           <InterpolatingParam id="11001" interp="linr"  time="-9999999/1" value="0" leadInLength="0/1"  />
           <InterpolatingParam id="11002" interp="linr"  time="-9999999/1" value="0" leadInLength="0/1"  />
          </VectorParam>
          <VectorParam id="11003"  name="shear">
           <InterpolatingParam id="11004" interp="linr"  time="-9999999/1" value="0" leadInLength="0/1"  />
           <InterpolatingParam id="11005" interp="linr"  time="-9999999/1" value="0" leadInLength="0/1"  />
           <InterpolatingParam id="11006" interp="linr"  time="-9999999/1" value="0" leadInLength="0/1"  />
          </VectorParam>
          <VectorParam id="11007"  name="scale">
           <InterpolatingParam id="11008" interp="linr"  time="-9999999/1" value="0.77155892175575236" leadInLength="0/1"  />
           <InterpolatingParam id="11009" interp="linr"  time="-9999999/1" value="0.77155892175575236" leadInLength="0/1"  />
           <InterpolatingParam id="11010" interp="linr"  time="-9999999/1" value="1" leadInLength="0/1"  />
          </VectorParam>
          <VectorParam id="11011"  name="anchor">
           <InterpolatingParam id="11012" interp="linr"  time="0/1" value="0" leadInLength="0/1"  />
           <InterpolatingParam id="11013" interp="linr"  time="0/1" value="0" leadInLength="0/1"  />
           <InterpolatingParam id="11014" interp="linr"  time="0/1" value="0" leadInLength="0/1"  />
          </VectorParam>
         </Transformer>
         <Parameters>
          <VectorParam id="11015"  name="sourceCrop">
           <InterpolatingParam id="11016" interp="linr"  time="0/1" value="0" leadInLength="0/1"  />
           <InterpolatingParam id="11017" interp="linr"  time="0/1" value="0" leadInLength="0/1"  />
           <InterpolatingParam id="11018" interp="linr"  time="0/1" value="0" leadInLength="0/1"  />
           <InterpolatingParam id="11019" interp="linr"  time="0/1" value="0" leadInLength="0/1"  />
          </VectorParam>
          <VectorParam id="11020"  name="geometryCrop">
           <InterpolatingParam id="11021" interp="linr"  time="-9999999/1" value="0" leadInLength="0/1"  />
           <InterpolatingParam id="11022" interp="linr"  time="-9999999/1" value="71.234782608763908" leadInLength="0/1"  />
           <InterpolatingParam id="11023" interp="linr"  time="-9999999/1" value="90.824347826046846" leadInLength="0/1"  />
           <InterpolatingParam id="11024" interp="linr"  time="-9999999/1" value="19.58956521712247" leadInLength="0/1"  />
          </VectorParam>
          <InterpolatingParam id="11025" interp="linr"  time="-9999999/1" value="1" leadInLength="0/1"  name="opacity"/>
         </Parameters>
         <Attributes>
          <Attribute id="11026" value="" name="ident"/>
         </Attributes>
         <MetaData>
          <entry key="WinSubProjectDisplayName" val=""/>
         </MetaData>
         <ExtraData>
          <Entry key="ZoomPanBin">
           <ZoomPanBin id="11027"  >
            <ZoomPanKeyframes>
             <ZoomPanKeyframe id="11028" timeRangeEnd="-9999999/1" timeRangeDuration="0/1" interpolaterName="linr"  />
            </ZoomPanKeyframes>
           </ZoomPanBin>
          </Entry>
         </ExtraData>
        </IMFile>
        <UnifiedMedia id="11029"  >
         <AudioTransition id="11030" start="3370" duration="15" >
          <Parameters>
           <InterpolatingParam id="11031" interp="linr"  time="0/1" value="1" leadInLength="0/1"  name="volume"/>
           <Parameter id="11032"  name="captions"/>
          </Parameters>
          <Effects>
           <GenericEffect id="11033" name = "AudioTransition" >
            <Parameters>
            <Parameter id="11034"   name="audioEdgeModType">
             <Keyframes>
             <Keyframe id="11035"  time="0/1" value="0" leadInLength="0/1"  />
             </Keyframes>
            </Parameter>
            <Parameter id="11036"   name="audioTransitionType">
             <Keyframes>
             <Keyframe id="11037"  time="0/1" value="" leadInLength="0/1"  />
             </Keyframes>
            </Parameter>
            </Parameters>
            <MetaData>
            </MetaData>
           </GenericEffect>
          </Effects>
          <Attributes>
           <Attribute id="11038" value="" name="ident"/>
           <Attribute id="11039" value="0" name="sampleRate"/>
           <Attribute id="11040" value="0" name="bitDepth"/>
           <Attribute id="11041" value="1" name="gain"/>
           <Attribute id="11042" value="0" name="mixToMono"/>
          </Attributes>
         </AudioTransition>
         <ImageTransition id="11043" start="3370" duration="15" >
          <Transformer>
           <VectorParam id="11044"  name="translation">
            <InterpolatingParam id="11045" interp="linr"  time="0/1" value="0" leadInLength="0/1"  />
            <InterpolatingParam id="11046" interp="linr"  time="0/1" value="0" leadInLength="0/1"  />
            <InterpolatingParam id="11047" interp="linr"  time="0/1" value="0" leadInLength="0/1"  />
           </VectorParam>
           <VectorParam id="11048"  name="rotation">
            <InterpolatingParam id="11049" interp="linr"  time="0/1" value="0" leadInLength="0/1"  />
            <InterpolatingParam id="11050" interp="linr"  time="0/1" value="0" leadInLength="0/1"  />
            <InterpolatingParam id="11051" interp="linr"  time="0/1" value="0" leadInLength="0/1"  />
           </VectorParam>
           <VectorParam id="11052"  name="shear">
            <InterpolatingParam id="11053" interp="linr"  time="0/1" value="0" leadInLength="0/1"  />
            <InterpolatingParam id="11054" interp="linr"  time="0/1" value="0" leadInLength="0/1"  />
            <InterpolatingParam id="11055" interp="linr"  time="0/1" value="0" leadInLength="0/1"  />
           </VectorParam>
           <VectorParam id="11056"  name="scale">
            <InterpolatingParam id="11057" interp="linr"  time="0/1" value="1" leadInLength="0/1"  />
            <InterpolatingParam id="11058" interp="linr"  time="0/1" value="1" leadInLength="0/1"  />
            <InterpolatingParam id="11059" interp="linr"  time="0/1" value="1" leadInLength="0/1"  />
           </VectorParam>
           <VectorParam id="11060"  name="anchor">
            <InterpolatingParam id="11061" interp="linr"  time="0/1" value="0" leadInLength="0/1"  />
            <InterpolatingParam id="11062" interp="linr"  time="0/1" value="0" leadInLength="0/1"  />
            <InterpolatingParam id="11063" interp="linr"  time="0/1" value="0" leadInLength="0/1"  />
           </VectorParam>
          </Transformer>
          <Parameters>
           <VectorParam id="11064"  name="sourceCrop">
            <InterpolatingParam id="11065" interp="linr"  time="0/1" value="0" leadInLength="0/1"  />
            <InterpolatingParam id="11066" interp="linr"  time="0/1" value="0" leadInLength="0/1"  />
            <InterpolatingParam id="11067" interp="linr"  time="0/1" value="0" leadInLength="0/1"  />
            <InterpolatingParam id="11068" interp="linr"  time="0/1" value="0" leadInLength="0/1"  />
           </VectorParam>
           <VectorParam id="11069"  name="geometryCrop">
            <InterpolatingParam id="11070" interp="linr"  time="0/1" value="0" leadInLength="0/1"  />
            <InterpolatingParam id="11071" interp="linr"  time="0/1" value="0" leadInLength="0/1"  />
            <InterpolatingParam id="11072" interp="linr"  time="0/1" value="0" leadInLength="0/1"  />
            <InterpolatingParam id="11073" interp="linr"  time="0/1" value="0" leadInLength="0/1"  />
           </VectorParam>
           <InterpolatingParam id="11074" interp="linr"  time="0/1" value="1" leadInLength="0/1"  name="opacity"/>
          </Parameters>
          <Effects>
           <GenericEffect id="11075" name = "VisualTransition" >
            <Parameters>
            <InterpolatingParam id="11076" interp="linr"  time="0/1" value="0.5" leadInLength="0/1"   name="leftFramePercentage"/>
            <InterpolatingParam id="11077" interp="linr"  time="0/1" value="0.5" leadInLength="0/1"   name="rightFramePercentage"/>
            <Parameter id="11078"   name="visualEdgeModType">
             <Keyframes>
             <Keyframe id="11079"  time="0/1" value="2" leadInLength="0/1"  />
             </Keyframes>
            </Parameter>
            <Parameter id="11080"   name="visualTransitionType">
             <Keyframes>
             <Keyframe id="11081"  time="0/1" value="CheckerBoard" leadInLength="0/1"  />
             </Keyframes>
            </Parameter>
            </Parameters>
            <MetaData>
            </MetaData>
           </GenericEffect>
          </Effects>
          <Attributes>
           <Attribute id="11082" value="" name="ident"/>
          </Attributes>
          <ExtraData>
           <Entry key="ZoomPanBin">
            <ZoomPanBin id="11083"  >
             <ZoomPanKeyframes>
             </ZoomPanKeyframes>
            </ZoomPanBin>
           </Entry>
          </ExtraData>
         </ImageTransition>
         <MetaData>
          <entry key="WinSubProjectDisplayName" val=""/>
         </MetaData>
        </UnifiedMedia>
        <IMFile id="11084" start="4008" duration="261" scalar="1/1" mediaStart="0/1" mediaDuration="1/1" trackNumber="0" src="12" trimStartSum="453/1" >
         <Transformer>
          <VectorParam id="11085"  name="translation">
           <InterpolatingParam id="11086" interp="linr"  >
            <Keyframes>
            <Keyframe id="11087"  time="-9999999/1" value="335.00000000005662" leadInLength="0/1"  />
            <Keyframe id="11088"  time="189/1" value="675.84920634837158" leadInLength="98/1"  interpolater="leadin-linr"  />
            <Keyframe id="11089"  time="522/1" value="359.99999999991564" leadInLength="47/1"  interpolater="leadin-linr"  />
            </Keyframes>
           </InterpolatingParam>
           <InterpolatingParam id="11090" interp="linr"  >
            <Keyframes>
            <Keyframe id="11091"  time="-9999999/1" value="-25.000000000008104" leadInLength="0/1"  />
            <Keyframe id="11092"  time="189/1" value="51.999999999783839" leadInLength="98/1"  interpolater="leadin-linr"  />
            <Keyframe id="11093"  time="522/1" value="8.1325168821422267e-011" leadInLength="47/1"  interpolater="leadin-linr"  />
            </Keyframes>
           </InterpolatingParam>
           <InterpolatingParam id="11094" interp="linr"  >
            <Keyframes>
            <Keyframe id="11095"  time="-9999999/1" value="0" leadInLength="0/1"  />
            <Keyframe id="11096"  time="189/1" value="-3.4106051316482886e-010" leadInLength="98/1"  interpolater="leadin-linr"  />
            <Keyframe id="11097"  time="522/1" value="0" leadInLength="47/1"  interpolater="leadin-linr"  />
            </Keyframes>
           </InterpolatingParam>
          </VectorParam>
          <VectorParam id="11098"  name="rotation">
           <InterpolatingParam id="11099" interp="linr"  >
            <Keyframes>
            <Keyframe id="11100"  time="-9999999/1" value="0" leadInLength="0/1"  />
            <Keyframe id="11101"  time="189/1" value="0" leadInLength="98/1"  interpolater="leadin-linr"  />
            <Keyframe id="11102"  time="522/1" value="0" leadInLength="47/1"  interpolater="leadin-linr"  />
            </Keyframes>
           </InterpolatingParam>
           <InterpolatingParam id="11103" interp="linr"  >
            <Keyframes>
            <Keyframe id="11104"  time="-9999999/1" value="0" leadInLength="0/1"  />
            <Keyframe id="11105"  time="189/1" value="0" leadInLength="98/1"  interpolater="leadin-linr"  />
            <Keyframe id="11106"  time="522/1" value="0" leadInLength="47/1"  interpolater="leadin-linr"  />
            </Keyframes>
           </InterpolatingParam>
           <InterpolatingParam id="11107" interp="linr"  >
            <Keyframes>
            <Keyframe id="11108"  time="-9999999/1" value="0" leadInLength="0/1"  />
            <Keyframe id="11109"  time="189/1" value="0" leadInLength="98/1"  interpolater="leadin-linr"  />
            <Keyframe id="11110"  time="522/1" value="0" leadInLength="47/1"  interpolater="leadin-linr"  />
            </Keyframes>
           </InterpolatingParam>
          </VectorParam>
          <VectorParam id="11111"  name="shear">
           <InterpolatingParam id="11112" interp="linr"  >
            <Keyframes>
            <Keyframe id="11113"  time="-9999999/1" value="0" leadInLength="0/1"  />
            <Keyframe id="11114"  time="189/1" value="0" leadInLength="98/1"  interpolater="leadin-linr"  />
            <Keyframe id="11115"  time="522/1" value="0" leadInLength="47/1"  interpolater="leadin-linr"  />
            </Keyframes>
           </InterpolatingParam>
           <InterpolatingParam id="11116" interp="linr"  >
            <Keyframes>
            <Keyframe id="11117"  time="-9999999/1" value="0" leadInLength="0/1"  />
            <Keyframe id="11118"  time="189/1" value="0" leadInLength="98/1"  interpolater="leadin-linr"  />
            <Keyframe id="11119"  time="522/1" value="0" leadInLength="47/1"  interpolater="leadin-linr"  />
            </Keyframes>
           </InterpolatingParam>
           <InterpolatingParam id="11120" interp="linr"  >
            <Keyframes>
            <Keyframe id="11121"  time="-9999999/1" value="0" leadInLength="0/1"  />
            <Keyframe id="11122"  time="189/1" value="0" leadInLength="98/1"  interpolater="leadin-linr"  />
            <Keyframe id="11123"  time="522/1" value="0" leadInLength="47/1"  interpolater="leadin-linr"  />
            </Keyframes>
           </InterpolatingParam>
          </VectorParam>
          <VectorParam id="11124"  name="scale">
           <InterpolatingParam id="11125" interp="linr"  >
            <Keyframes>
            <Keyframe id="11126"  time="-9999999/1" value="0.65429687500015188" leadInLength="0/1"  />
            <Keyframe id="11127"  time="189/1" value="0.80468750000009148" leadInLength="98/1"  interpolater="leadin-linr"  />
            <Keyframe id="11128"  time="522/1" value="0.70312500000006561" leadInLength="47/1"  interpolater="leadin-linr"  />
            </Keyframes>
           </InterpolatingParam>
           <InterpolatingParam id="11129" interp="linr"  >
            <Keyframes>
            <Keyframe id="11130"  time="-9999999/1" value="0.65429687500015188" leadInLength="0/1"  />
            <Keyframe id="11131"  time="189/1" value="0.80468750000009148" leadInLength="98/1"  interpolater="leadin-linr"  />
            <Keyframe id="11132"  time="522/1" value="0.70312500000006561" leadInLength="47/1"  interpolater="leadin-linr"  />
            </Keyframes>
           </InterpolatingParam>
           <InterpolatingParam id="11133" interp="linr"  >
            <Keyframes>
            <Keyframe id="11134"  time="-9999999/1" value="1" leadInLength="0/1"  />
            <Keyframe id="11135"  time="189/1" value="1" leadInLength="98/1"  interpolater="leadin-linr"  />
            <Keyframe id="11136"  time="522/1" value="1" leadInLength="47/1"  interpolater="leadin-linr"  />
            </Keyframes>
           </InterpolatingParam>
          </VectorParam>
          <VectorParam id="11137"  name="anchor">
           <InterpolatingParam id="11138" interp="linr"  time="0/1" value="0" leadInLength="0/1"  />
           <InterpolatingParam id="11139" interp="linr"  time="0/1" value="0" leadInLength="0/1"  />
           <InterpolatingParam id="11140" interp="linr"  time="0/1" value="0" leadInLength="0/1"  />
          </VectorParam>
         </Transformer>
         <Parameters>
          <VectorParam id="11141"  name="sourceCrop">
           <InterpolatingParam id="11142" interp="linr"  time="0/1" value="0" leadInLength="0/1"  />
           <InterpolatingParam id="11143" interp="linr"  time="0/1" value="0" leadInLength="0/1"  />
           <InterpolatingParam id="11144" interp="linr"  time="0/1" value="0" leadInLength="0/1"  />
           <InterpolatingParam id="11145" interp="linr"  time="0/1" value="0" leadInLength="0/1"  />
          </VectorParam>
          <VectorParam id="11146"  name="geometryCrop">
           <InterpolatingParam id="11147" interp="linr"  >
            <Keyframes>
            <Keyframe id="11148"  time="-9999999/1" value="0" leadInLength="0/1"  />
            <Keyframe id="11149"  time="189/1" value="0" leadInLength="98/1"  interpolater="leadin-linr"  />
            <Keyframe id="11150"  time="522/1" value="0" leadInLength="47/1"  interpolater="leadin-linr"  />
            </Keyframes>
           </InterpolatingParam>
           <InterpolatingParam id="11151" interp="linr"  >
            <Keyframes>
            <Keyframe id="11152"  time="-9999999/1" value="0" leadInLength="0/1"  />
            <Keyframe id="11153"  time="189/1" value="0" leadInLength="98/1"  interpolater="leadin-linr"  />
            <Keyframe id="11154"  time="522/1" value="0" leadInLength="47/1"  interpolater="leadin-linr"  />
            </Keyframes>
           </InterpolatingParam>
           <InterpolatingParam id="11155" interp="linr"  >
            <Keyframes>
            <Keyframe id="11156"  time="-9999999/1" value="0" leadInLength="0/1"  />
            <Keyframe id="11157"  time="189/1" value="0" leadInLength="98/1"  interpolater="leadin-linr"  />
            <Keyframe id="11158"  time="522/1" value="0" leadInLength="47/1"  interpolater="leadin-linr"  />
            </Keyframes>
           </InterpolatingParam>
           <InterpolatingParam id="11159" interp="linr"  >
            <Keyframes>
            <Keyframe id="11160"  time="-9999999/1" value="0" leadInLength="0/1"  />
            <Keyframe id="11161"  time="189/1" value="0" leadInLength="98/1"  interpolater="leadin-linr"  />
            <Keyframe id="11162"  time="522/1" value="0" leadInLength="47/1"  interpolater="leadin-linr"  />
            </Keyframes>
           </InterpolatingParam>
          </VectorParam>
          <InterpolatingParam id="11163" interp="linr"  name="opacity">
           <Keyframes>
           <Keyframe id="11164"  time="-9999999/1" value="1" leadInLength="0/1"  />
           <Keyframe id="11165"  time="189/1" value="1" leadInLength="98/1"  interpolater="leadin-linr"  />
           <Keyframe id="11166"  time="522/1" value="1" leadInLength="47/1"  interpolater="leadin-linr"  />
           </Keyframes>
          </InterpolatingParam>
         </Parameters>
         <Attributes>
          <Attribute id="11167" value="" name="ident"/>
         </Attributes>
         <MetaData>
          <entry key="WinSubProjectDisplayName" val=""/>
         </MetaData>
         <ExtraData>
          <Entry key="ZoomPanBin">
           <ZoomPanBin id="11168"  >
            <ZoomPanKeyframes>
             <ZoomPanKeyframe id="11169" timeRangeEnd="-9999999/1" timeRangeDuration="0/1" interpolaterName="linr"  />
             <ZoomPanKeyframe id="11170" timeRangeEnd="189/1" timeRangeDuration="98/1" interpolaterName="linr"  />
             <ZoomPanKeyframe id="11171" timeRangeEnd="522/1" timeRangeDuration="47/1" interpolaterName="linr"  />
            </ZoomPanKeyframes>
           </ZoomPanBin>
          </Entry>
         </ExtraData>
        </IMFile>
        <UnifiedMedia id="11172"  >
         <AudioTransition id="11173" start="4269" duration="51" >
          <Parameters>
           <InterpolatingParam id="11174" interp="linr"  time="0/1" value="1" leadInLength="0/1"  name="volume"/>
           <Parameter id="11175"  name="captions"/>
          </Parameters>
          <Effects>
           <GenericEffect id="11176" name = "AudioTransition" >
            <Parameters>
            <Parameter id="11177"   name="audioEdgeModType">
             <Keyframes>
             <Keyframe id="11178"  time="0/1" value="0" leadInLength="0/1"  />
             </Keyframes>
            </Parameter>
            <Parameter id="11179"   name="audioTransitionType">
             <Keyframes>
             <Keyframe id="11180"  time="0/1" value="" leadInLength="0/1"  />
             </Keyframes>
            </Parameter>
            </Parameters>
            <MetaData>
            </MetaData>
           </GenericEffect>
          </Effects>
          <Attributes>
           <Attribute id="11181" value="" name="ident"/>
           <Attribute id="11182" value="0" name="sampleRate"/>
           <Attribute id="11183" value="0" name="bitDepth"/>
           <Attribute id="11184" value="1" name="gain"/>
           <Attribute id="11185" value="0" name="mixToMono"/>
          </Attributes>
         </AudioTransition>
         <ImageTransition id="11186" start="4269" duration="51" >
          <Transformer>
           <VectorParam id="11187"  name="translation">
            <InterpolatingParam id="11188" interp="linr"  time="0/1" value="0" leadInLength="0/1"  />
            <InterpolatingParam id="11189" interp="linr"  time="0/1" value="0" leadInLength="0/1"  />
            <InterpolatingParam id="11190" interp="linr"  time="0/1" value="0" leadInLength="0/1"  />
           </VectorParam>
           <VectorParam id="11191"  name="rotation">
            <InterpolatingParam id="11192" interp="linr"  time="0/1" value="0" leadInLength="0/1"  />
            <InterpolatingParam id="11193" interp="linr"  time="0/1" value="0" leadInLength="0/1"  />
            <InterpolatingParam id="11194" interp="linr"  time="0/1" value="0" leadInLength="0/1"  />
           </VectorParam>
           <VectorParam id="11195"  name="shear">
            <InterpolatingParam id="11196" interp="linr"  time="0/1" value="0" leadInLength="0/1"  />
            <InterpolatingParam id="11197" interp="linr"  time="0/1" value="0" leadInLength="0/1"  />
            <InterpolatingParam id="11198" interp="linr"  time="0/1" value="0" leadInLength="0/1"  />
           </VectorParam>
           <VectorParam id="11199"  name="scale">
            <InterpolatingParam id="11200" interp="linr"  time="0/1" value="1" leadInLength="0/1"  />
            <InterpolatingParam id="11201" interp="linr"  time="0/1" value="1" leadInLength="0/1"  />
            <InterpolatingParam id="11202" interp="linr"  time="0/1" value="1" leadInLength="0/1"  />
           </VectorParam>
           <VectorParam id="11203"  name="anchor">
            <InterpolatingParam id="11204" interp="linr"  time="0/1" value="0" leadInLength="0/1"  />
            <InterpolatingParam id="11205" interp="linr"  time="0/1" value="0" leadInLength="0/1"  />
            <InterpolatingParam id="11206" interp="linr"  time="0/1" value="0" leadInLength="0/1"  />
           </VectorParam>
          </Transformer>
          <Parameters>
           <VectorParam id="11207"  name="sourceCrop">
            <InterpolatingParam id="11208" interp="linr"  time="0/1" value="0" leadInLength="0/1"  />
            <InterpolatingParam id="11209" interp="linr"  time="0/1" value="0" leadInLength="0/1"  />
            <InterpolatingParam id="11210" interp="linr"  time="0/1" value="0" leadInLength="0/1"  />
            <InterpolatingParam id="11211" interp="linr"  time="0/1" value="0" leadInLength="0/1"  />
           </VectorParam>
           <VectorParam id="11212"  name="geometryCrop">
            <InterpolatingParam id="11213" interp="linr"  time="0/1" value="0" leadInLength="0/1"  />
            <InterpolatingParam id="11214" interp="linr"  time="0/1" value="0" leadInLength="0/1"  />
            <InterpolatingParam id="11215" interp="linr"  time="0/1" value="0" leadInLength="0/1"  />
            <InterpolatingParam id="11216" interp="linr"  time="0/1" value="0" leadInLength="0/1"  />
           </VectorParam>
           <InterpolatingParam id="11217" interp="linr"  time="0/1" value="1" leadInLength="0/1"  name="opacity"/>
          </Parameters>
          <Effects>
           <GenericEffect id="11218" name = "VisualTransition" >
            <Parameters>
            <InterpolatingParam id="11219" interp="linr"  time="0/1" value="0.5" leadInLength="0/1"   name="leftFramePercentage"/>
            <InterpolatingParam id="11220" interp="linr"  time="0/1" value="0.5" leadInLength="0/1"   name="rightFramePercentage"/>
            <Parameter id="11221"   name="visualEdgeModType">
             <Keyframes>
             <Keyframe id="11222"  time="0/1" value="2" leadInLength="0/1"  />
             </Keyframes>
            </Parameter>
            <Parameter id="11223"   name="visualTransitionType">
             <Keyframes>
             <Keyframe id="11224"  time="0/1" value="RadialBlur" leadInLength="0/1"  />
             </Keyframes>
            </Parameter>
            </Parameters>
            <MetaData>
            </MetaData>
           </GenericEffect>
          </Effects>
          <Attributes>
           <Attribute id="11225" value="" name="ident"/>
          </Attributes>
          <ExtraData>
           <Entry key="ZoomPanBin">
            <ZoomPanBin id="11226"  >
             <ZoomPanKeyframes>
             </ZoomPanKeyframes>
            </ZoomPanBin>
           </Entry>
          </ExtraData>
         </ImageTransition>
         <MetaData>
          <entry key="WinSubProjectDisplayName" val=""/>
         </MetaData>
        </UnifiedMedia>
        <IMFile id="11227" start="4464" duration="164" scalar="1/1" mediaStart="0/1" mediaDuration="1/1" trackNumber="0" src="14" trimStartSum="196/1" >
         <Transformer>
          <VectorParam id="11228"  name="translation">
           <InterpolatingParam id="11229" interp="linr"  >
            <Keyframes>
            <Keyframe id="11230"  time="-9999999/1" value="361.66666666673035" leadInLength="0/1"  />
            <Keyframe id="11231"  time="221/1" value="523.0952380962932" leadInLength="25/1"  interpolater="leadin-linr"  />
            </Keyframes>
           </InterpolatingParam>
           <InterpolatingParam id="11232" interp="linr"  >
            <Keyframes>
            <Keyframe id="11233"  time="-9999999/1" value="-3.1309399517450363e-011" leadInLength="0/1"  />
            <Keyframe id="11234"  time="221/1" value="-4.8896442450541144e-011" leadInLength="25/1"  interpolater="leadin-linr"  />
            </Keyframes>
           </InterpolatingParam>
           <InterpolatingParam id="11235" interp="linr"  >
            <Keyframes>
            <Keyframe id="11236"  time="-9999999/1" value="0" leadInLength="0/1"  />
            <Keyframe id="11237"  time="221/1" value="0" leadInLength="25/1"  interpolater="leadin-linr"  />
            </Keyframes>
           </InterpolatingParam>
          </VectorParam>
          <VectorParam id="11238"  name="rotation">
           <InterpolatingParam id="11239" interp="linr"  >
            <Keyframes>
            <Keyframe id="11240"  time="-9999999/1" value="0" leadInLength="0/1"  />
            <Keyframe id="11241"  time="221/1" value="0" leadInLength="25/1"  interpolater="leadin-linr"  />
            </Keyframes>
           </InterpolatingParam>
           <InterpolatingParam id="11242" interp="linr"  >
            <Keyframes>
            <Keyframe id="11243"  time="-9999999/1" value="0" leadInLength="0/1"  />
            <Keyframe id="11244"  time="221/1" value="0" leadInLength="25/1"  interpolater="leadin-linr"  />
            </Keyframes>
           </InterpolatingParam>
           <InterpolatingParam id="11245" interp="linr"  >
            <Keyframes>
            <Keyframe id="11246"  time="-9999999/1" value="0" leadInLength="0/1"  />
            <Keyframe id="11247"  time="221/1" value="0" leadInLength="25/1"  interpolater="leadin-linr"  />
            </Keyframes>
           </InterpolatingParam>
          </VectorParam>
          <VectorParam id="11248"  name="shear">
           <InterpolatingParam id="11249" interp="linr"  >
            <Keyframes>
            <Keyframe id="11250"  time="-9999999/1" value="0" leadInLength="0/1"  />
            <Keyframe id="11251"  time="221/1" value="0" leadInLength="25/1"  interpolater="leadin-linr"  />
            </Keyframes>
           </InterpolatingParam>
           <InterpolatingParam id="11252" interp="linr"  >
            <Keyframes>
            <Keyframe id="11253"  time="-9999999/1" value="0" leadInLength="0/1"  />
            <Keyframe id="11254"  time="221/1" value="0" leadInLength="25/1"  interpolater="leadin-linr"  />
            </Keyframes>
           </InterpolatingParam>
           <InterpolatingParam id="11255" interp="linr"  >
            <Keyframes>
            <Keyframe id="11256"  time="-9999999/1" value="0" leadInLength="0/1"  />
            <Keyframe id="11257"  time="221/1" value="0" leadInLength="25/1"  interpolater="leadin-linr"  />
            </Keyframes>
           </InterpolatingParam>
          </VectorParam>
          <VectorParam id="11258"  name="scale">
           <InterpolatingParam id="11259" interp="linr"  >
            <Keyframes>
            <Keyframe id="11260"  time="-9999999/1" value="0.70638020833348081" leadInLength="0/1"  />
            <Keyframe id="11261"  time="221/1" value="0.70638020833348081" leadInLength="25/1"  interpolater="leadin-linr"  />
            </Keyframes>
           </InterpolatingParam>
           <InterpolatingParam id="11262" interp="linr"  >
            <Keyframes>
            <Keyframe id="11263"  time="-9999999/1" value="0.70638020833348081" leadInLength="0/1"  />
            <Keyframe id="11264"  time="221/1" value="0.70638020833348081" leadInLength="25/1"  interpolater="leadin-linr"  />
            </Keyframes>
           </InterpolatingParam>
           <InterpolatingParam id="11265" interp="linr"  >
            <Keyframes>
            <Keyframe id="11266"  time="-9999999/1" value="1" leadInLength="0/1"  />
            <Keyframe id="11267"  time="221/1" value="1" leadInLength="25/1"  interpolater="leadin-linr"  />
            </Keyframes>
           </InterpolatingParam>
          </VectorParam>
          <VectorParam id="11268"  name="anchor">
           <InterpolatingParam id="11269" interp="linr"  time="0/1" value="0" leadInLength="0/1"  />
           <InterpolatingParam id="11270" interp="linr"  time="0/1" value="0" leadInLength="0/1"  />
           <InterpolatingParam id="11271" interp="linr"  time="0/1" value="0" leadInLength="0/1"  />
          </VectorParam>
         </Transformer>
         <Parameters>
          <VectorParam id="11272"  name="sourceCrop">
           <InterpolatingParam id="11273" interp="linr"  time="0/1" value="0" leadInLength="0/1"  />
           <InterpolatingParam id="11274" interp="linr"  time="0/1" value="0" leadInLength="0/1"  />
           <InterpolatingParam id="11275" interp="linr"  time="0/1" value="0" leadInLength="0/1"  />
           <InterpolatingParam id="11276" interp="linr"  time="0/1" value="0" leadInLength="0/1"  />
          </VectorParam>
          <VectorParam id="11277"  name="geometryCrop">
           <InterpolatingParam id="11278" interp="linr"  >
            <Keyframes>
            <Keyframe id="11279"  time="-9999999/1" value="0" leadInLength="0/1"  />
            <Keyframe id="11280"  time="221/1" value="0" leadInLength="25/1"  interpolater="leadin-linr"  />
            </Keyframes>
           </InterpolatingParam>
           <InterpolatingParam id="11281" interp="linr"  >
            <Keyframes>
            <Keyframe id="11282"  time="-9999999/1" value="0" leadInLength="0/1"  />
            <Keyframe id="11283"  time="221/1" value="0" leadInLength="25/1"  interpolater="leadin-linr"  />
            </Keyframes>
           </InterpolatingParam>
           <InterpolatingParam id="11284" interp="linr"  >
            <Keyframes>
            <Keyframe id="11285"  time="-9999999/1" value="0" leadInLength="0/1"  />
            <Keyframe id="11286"  time="221/1" value="0" leadInLength="25/1"  interpolater="leadin-linr"  />
            </Keyframes>
           </InterpolatingParam>
           <InterpolatingParam id="11287" interp="linr"  >
            <Keyframes>
            <Keyframe id="11288"  time="-9999999/1" value="0" leadInLength="0/1"  />
            <Keyframe id="11289"  time="221/1" value="0" leadInLength="25/1"  interpolater="leadin-linr"  />
            </Keyframes>
           </InterpolatingParam>
          </VectorParam>
          <InterpolatingParam id="11290" interp="linr"  name="opacity">
           <Keyframes>
           <Keyframe id="11291"  time="-9999999/1" value="1" leadInLength="0/1"  />
           <Keyframe id="11292"  time="221/1" value="1" leadInLength="25/1"  interpolater="leadin-linr"  />
           </Keyframes>
          </InterpolatingParam>
         </Parameters>
         <Attributes>
          <Attribute id="11293" value="" name="ident"/>
         </Attributes>
         <MetaData>
          <entry key="WinSubProjectDisplayName" val=""/>
         </MetaData>
         <ExtraData>
          <Entry key="ZoomPanBin">
           <ZoomPanBin id="11294"  >
            <ZoomPanKeyframes>
             <ZoomPanKeyframe id="11295" timeRangeEnd="-9999999/1" timeRangeDuration="0/1" interpolaterName="linr"  />
             <ZoomPanKeyframe id="11296" timeRangeEnd="221/1" timeRangeDuration="25/1" interpolaterName="linr"  />
            </ZoomPanKeyframes>
           </ZoomPanBin>
          </Entry>
         </ExtraData>
        </IMFile>
        <UnifiedMedia id="11297"  >
         <AudioTransition id="11298" start="5589" duration="62" >
          <Parameters>
           <InterpolatingParam id="11299" interp="linr"  time="0/1" value="1" leadInLength="0/1"  name="volume"/>
           <Parameter id="11300"  name="captions"/>
          </Parameters>
          <Effects>
           <GenericEffect id="11301" name = "AudioTransition" >
            <Parameters>
            <Parameter id="11302"   name="audioEdgeModType">
             <Keyframes>
             <Keyframe id="11303"  time="0/1" value="0" leadInLength="0/1"  />
             </Keyframes>
            </Parameter>
            <Parameter id="11304"   name="audioTransitionType">
             <Keyframes>
             <Keyframe id="11305"  time="0/1" value="" leadInLength="0/1"  />
             </Keyframes>
            </Parameter>
            </Parameters>
            <MetaData>
            </MetaData>
           </GenericEffect>
          </Effects>
          <Attributes>
           <Attribute id="11306" value="" name="ident"/>
           <Attribute id="11307" value="0" name="sampleRate"/>
           <Attribute id="11308" value="0" name="bitDepth"/>
           <Attribute id="11309" value="1" name="gain"/>
           <Attribute id="11310" value="0" name="mixToMono"/>
          </Attributes>
         </AudioTransition>
         <ImageTransition id="11311" start="5589" duration="62" >
          <Transformer>
           <VectorParam id="11312"  name="translation">
            <InterpolatingParam id="11313" interp="linr"  time="0/1" value="0" leadInLength="0/1"  />
            <InterpolatingParam id="11314" interp="linr"  time="0/1" value="0" leadInLength="0/1"  />
            <InterpolatingParam id="11315" interp="linr"  time="0/1" value="0" leadInLength="0/1"  />
           </VectorParam>
           <VectorParam id="11316"  name="rotation">
            <InterpolatingParam id="11317" interp="linr"  time="0/1" value="0" leadInLength="0/1"  />
            <InterpolatingParam id="11318" interp="linr"  time="0/1" value="0" leadInLength="0/1"  />
            <InterpolatingParam id="11319" interp="linr"  time="0/1" value="0" leadInLength="0/1"  />
           </VectorParam>
           <VectorParam id="11320"  name="shear">
            <InterpolatingParam id="11321" interp="linr"  time="0/1" value="0" leadInLength="0/1"  />
            <InterpolatingParam id="11322" interp="linr"  time="0/1" value="0" leadInLength="0/1"  />
            <InterpolatingParam id="11323" interp="linr"  time="0/1" value="0" leadInLength="0/1"  />
           </VectorParam>
           <VectorParam id="11324"  name="scale">
            <InterpolatingParam id="11325" interp="linr"  time="0/1" value="1" leadInLength="0/1"  />
            <InterpolatingParam id="11326" interp="linr"  time="0/1" value="1" leadInLength="0/1"  />
            <InterpolatingParam id="11327" interp="linr"  time="0/1" value="1" leadInLength="0/1"  />
           </VectorParam>
           <VectorParam id="11328"  name="anchor">
            <InterpolatingParam id="11329" interp="linr"  time="0/1" value="0" leadInLength="0/1"  />
            <InterpolatingParam id="11330" interp="linr"  time="0/1" value="0" leadInLength="0/1"  />
            <InterpolatingParam id="11331" interp="linr"  time="0/1" value="0" leadInLength="0/1"  />
           </VectorParam>
          </Transformer>
          <Parameters>
           <VectorParam id="11332"  name="sourceCrop">
            <InterpolatingParam id="11333" interp="linr"  time="0/1" value="0" leadInLength="0/1"  />
            <InterpolatingParam id="11334" interp="linr"  time="0/1" value="0" leadInLength="0/1"  />
            <InterpolatingParam id="11335" interp="linr"  time="0/1" value="0" leadInLength="0/1"  />
            <InterpolatingParam id="11336" interp="linr"  time="0/1" value="0" leadInLength="0/1"  />
           </VectorParam>
           <VectorParam id="11337"  name="geometryCrop">
            <InterpolatingParam id="11338" interp="linr"  time="0/1" value="0" leadInLength="0/1"  />
            <InterpolatingParam id="11339" interp="linr"  time="0/1" value="0" leadInLength="0/1"  />
            <InterpolatingParam id="11340" interp="linr"  time="0/1" value="0" leadInLength="0/1"  />
            <InterpolatingParam id="11341" interp="linr"  time="0/1" value="0" leadInLength="0/1"  />
           </VectorParam>
           <InterpolatingParam id="11342" interp="linr"  time="0/1" value="1" leadInLength="0/1"  name="opacity"/>
          </Parameters>
          <Effects>
           <GenericEffect id="11343" name = "VisualTransition" >
            <Parameters>
            <InterpolatingParam id="11344" interp="linr"  time="0/1" value="0.5" leadInLength="0/1"   name="leftFramePercentage"/>
            <InterpolatingParam id="11345" interp="linr"  time="0/1" value="0.5" leadInLength="0/1"   name="rightFramePercentage"/>
            <Parameter id="11346"   name="visualEdgeModType">
             <Keyframes>
             <Keyframe id="11347"  time="0/1" value="1" leadInLength="0/1"  />
             </Keyframes>
            </Parameter>
            <Parameter id="11348"   name="visualTransitionType">
             <Keyframes>
             <Keyframe id="11349"  time="0/1" value="Fade" leadInLength="0/1"  />
             </Keyframes>
            </Parameter>
            </Parameters>
            <MetaData>
            </MetaData>
           </GenericEffect>
          </Effects>
          <Attributes>
           <Attribute id="11350" value="" name="ident"/>
          </Attributes>
          <ExtraData>
           <Entry key="ZoomPanBin">
            <ZoomPanBin id="11351"  >
             <ZoomPanKeyframes>
             </ZoomPanKeyframes>
            </ZoomPanBin>
           </Entry>
          </ExtraData>
         </ImageTransition>
         <MetaData>
          <entry key="WinSubProjectDisplayName" val=""/>
         </MetaData>
        </UnifiedMedia>
        <IMFile id="11352" start="5651" duration="257" scalar="1/1" mediaStart="0/1" mediaDuration="1/1" trackNumber="0" src="12" trimStartSum="316/1" >
         <Transformer>
          <VectorParam id="11353"  name="translation">
           <InterpolatingParam id="11354" interp="linr"  >
            <Keyframes>
            <Keyframe id="11355"  time="-9999999/1" value="-97.196928389507974" leadInLength="0/1"  />
            <Keyframe id="11356"  time="78/1" value="257.21973827708393" leadInLength="96/1"  interpolater="leadin-linr"  />
            </Keyframes>
           </InterpolatingParam>
           <InterpolatingParam id="11357" interp="linr"  >
            <Keyframes>
            <Keyframe id="11358"  time="-9999999/1" value="-65.194616900858037" leadInLength="0/1"  />
            <Keyframe id="11359"  time="78/1" value="114.54034896400233" leadInLength="96/1"  interpolater="leadin-linr"  />
            </Keyframes>
           </InterpolatingParam>
           <InterpolatingParam id="11360" interp="linr"  >
            <Keyframes>
            <Keyframe id="11361"  time="-9999999/1" value="0" leadInLength="0/1"  />
            <Keyframe id="11362"  time="78/1" value="0" leadInLength="96/1"  interpolater="leadin-linr"  />
            </Keyframes>
           </InterpolatingParam>
          </VectorParam>
          <VectorParam id="11363"  name="rotation">
           <InterpolatingParam id="11364" interp="linr"  >
            <Keyframes>
            <Keyframe id="11365"  time="-9999999/1" value="0" leadInLength="0/1"  />
            <Keyframe id="11366"  time="78/1" value="0" leadInLength="96/1"  interpolater="leadin-linr"  />
            </Keyframes>
           </InterpolatingParam>
           <InterpolatingParam id="11367" interp="linr"  >
            <Keyframes>
            <Keyframe id="11368"  time="-9999999/1" value="0" leadInLength="0/1"  />
            <Keyframe id="11369"  time="78/1" value="0" leadInLength="96/1"  interpolater="leadin-linr"  />
            </Keyframes>
           </InterpolatingParam>
           <InterpolatingParam id="11370" interp="linr"  >
            <Keyframes>
            <Keyframe id="11371"  time="-9999999/1" value="0" leadInLength="0/1"  />
            <Keyframe id="11372"  time="78/1" value="0" leadInLength="96/1"  interpolater="leadin-linr"  />
            </Keyframes>
           </InterpolatingParam>
          </VectorParam>
          <VectorParam id="11373"  name="shear">
           <InterpolatingParam id="11374" interp="linr"  >
            <Keyframes>
            <Keyframe id="11375"  time="-9999999/1" value="0" leadInLength="0/1"  />
            <Keyframe id="11376"  time="78/1" value="0" leadInLength="96/1"  interpolater="leadin-linr"  />
            </Keyframes>
           </InterpolatingParam>
           <InterpolatingParam id="11377" interp="linr"  >
            <Keyframes>
            <Keyframe id="11378"  time="-9999999/1" value="0" leadInLength="0/1"  />
            <Keyframe id="11379"  time="78/1" value="0" leadInLength="96/1"  interpolater="leadin-linr"  />
            </Keyframes>
           </InterpolatingParam>
           <InterpolatingParam id="11380" interp="linr"  >
            <Keyframes>
            <Keyframe id="11381"  time="-9999999/1" value="0" leadInLength="0/1"  />
            <Keyframe id="11382"  time="78/1" value="0" leadInLength="96/1"  interpolater="leadin-linr"  />
            </Keyframes>
           </InterpolatingParam>
          </VectorParam>
          <VectorParam id="11383"  name="scale">
           <InterpolatingParam id="11384" interp="linr"  >
            <Keyframes>
            <Keyframe id="11385"  time="-9999999/1" value="0.1526797428774776" leadInLength="0/1"  />
            <Keyframe id="11386"  time="78/1" value="0.25277739912748615" leadInLength="96/1"  interpolater="leadin-linr"  />
            </Keyframes>
           </InterpolatingParam>
           <InterpolatingParam id="11387" interp="linr"  >
            <Keyframes>
            <Keyframe id="11388"  time="-9999999/1" value="0.1526797428774776" leadInLength="0/1"  />
            <Keyframe id="11389"  time="78/1" value="0.25277739912748615" leadInLength="96/1"  interpolater="leadin-linr"  />
            </Keyframes>
           </InterpolatingParam>
           <InterpolatingParam id="11390" interp="linr"  >
            <Keyframes>
            <Keyframe id="11391"  time="-9999999/1" value="1" leadInLength="0/1"  />
            <Keyframe id="11392"  time="78/1" value="1" leadInLength="96/1"  interpolater="leadin-linr"  />
            </Keyframes>
           </InterpolatingParam>
          </VectorParam>
          <VectorParam id="11393"  name="anchor">
           <InterpolatingParam id="11394" interp="linr"  time="0/1" value="0" leadInLength="0/1"  />
           <InterpolatingParam id="11395" interp="linr"  time="0/1" value="0" leadInLength="0/1"  />
           <InterpolatingParam id="11396" interp="linr"  time="0/1" value="0" leadInLength="0/1"  />
          </VectorParam>
         </Transformer>
         <Parameters>
          <VectorParam id="11397"  name="sourceCrop">
           <InterpolatingParam id="11398" interp="linr"  time="0/1" value="0" leadInLength="0/1"  />
           <InterpolatingParam id="11399" interp="linr"  time="0/1" value="0" leadInLength="0/1"  />
           <InterpolatingParam id="11400" interp="linr"  time="0/1" value="0" leadInLength="0/1"  />
           <InterpolatingParam id="11401" interp="linr"  time="0/1" value="0" leadInLength="0/1"  />
          </VectorParam>
          <VectorParam id="11402"  name="geometryCrop">
           <InterpolatingParam id="11403" interp="linr"  >
            <Keyframes>
            <Keyframe id="11404"  time="-9999999/1" value="0" leadInLength="0/1"  />
            <Keyframe id="11405"  time="78/1" value="0" leadInLength="96/1"  interpolater="leadin-linr"  />
            </Keyframes>
           </InterpolatingParam>
           <InterpolatingParam id="11406" interp="linr"  >
            <Keyframes>
            <Keyframe id="11407"  time="-9999999/1" value="0" leadInLength="0/1"  />
            <Keyframe id="11408"  time="78/1" value="0" leadInLength="96/1"  interpolater="leadin-linr"  />
            </Keyframes>
           </InterpolatingParam>
           <InterpolatingParam id="11409" interp="linr"  >
            <Keyframes>
            <Keyframe id="11410"  time="-9999999/1" value="0" leadInLength="0/1"  />
            <Keyframe id="11411"  time="78/1" value="0" leadInLength="96/1"  interpolater="leadin-linr"  />
            </Keyframes>
           </InterpolatingParam>
           <InterpolatingParam id="11412" interp="linr"  >
            <Keyframes>
            <Keyframe id="11413"  time="-9999999/1" value="0" leadInLength="0/1"  />
            <Keyframe id="11414"  time="78/1" value="0" leadInLength="96/1"  interpolater="leadin-linr"  />
            </Keyframes>
           </InterpolatingParam>
          </VectorParam>
          <InterpolatingParam id="11415" interp="linr"  name="opacity">
           <Keyframes>
           <Keyframe id="11416"  time="-9999999/1" value="1" leadInLength="0/1"  />
           <Keyframe id="11417"  time="78/1" value="1" leadInLength="96/1"  interpolater="leadin-linr"  />
           </Keyframes>
          </InterpolatingParam>
         </Parameters>
         <Attributes>
          <Attribute id="11418" value="" name="ident"/>
         </Attributes>
         <MetaData>
          <entry key="WinSubProjectDisplayName" val=""/>
         </MetaData>
         <ExtraData>
          <Entry key="ZoomPanBin">
           <ZoomPanBin id="11419"  >
            <ZoomPanKeyframes>
             <ZoomPanKeyframe id="11420" timeRangeEnd="-9999999/1" timeRangeDuration="0/1" interpolaterName="linr"  />
             <ZoomPanKeyframe id="11421" timeRangeEnd="78/1" timeRangeDuration="96/1" interpolaterName="linr"  />
            </ZoomPanKeyframes>
           </ZoomPanBin>
          </Entry>
         </ExtraData>
        </IMFile>
        <UnifiedMedia id="11422"  >
         <AudioTransition id="11423" start="5908" duration="30" >
          <Parameters>
           <InterpolatingParam id="11424" interp="linr"  time="0/1" value="1" leadInLength="0/1"  name="volume"/>
           <Parameter id="11425"  name="captions"/>
          </Parameters>
          <Effects>
           <GenericEffect id="11426" name = "AudioTransition" >
            <Parameters>
            <Parameter id="11427"   name="audioEdgeModType">
             <Keyframes>
             <Keyframe id="11428"  time="0/1" value="0" leadInLength="0/1"  />
             </Keyframes>
            </Parameter>
            <Parameter id="11429"   name="audioTransitionType">
             <Keyframes>
             <Keyframe id="11430"  time="0/1" value="" leadInLength="0/1"  />
             </Keyframes>
            </Parameter>
            </Parameters>
            <MetaData>
            </MetaData>
           </GenericEffect>
          </Effects>
          <Attributes>
           <Attribute id="11431" value="" name="ident"/>
           <Attribute id="11432" value="0" name="sampleRate"/>
           <Attribute id="11433" value="0" name="bitDepth"/>
           <Attribute id="11434" value="1" name="gain"/>
           <Attribute id="11435" value="0" name="mixToMono"/>
          </Attributes>
         </AudioTransition>
         <ImageTransition id="11436" start="5908" duration="30" >
          <Transformer>
           <VectorParam id="11437"  name="translation">
            <InterpolatingParam id="11438" interp="linr"  time="0/1" value="0" leadInLength="0/1"  />
            <InterpolatingParam id="11439" interp="linr"  time="0/1" value="0" leadInLength="0/1"  />
            <InterpolatingParam id="11440" interp="linr"  time="0/1" value="0" leadInLength="0/1"  />
           </VectorParam>
           <VectorParam id="11441"  name="rotation">
            <InterpolatingParam id="11442" interp="linr"  time="0/1" value="0" leadInLength="0/1"  />
            <InterpolatingParam id="11443" interp="linr"  time="0/1" value="0" leadInLength="0/1"  />
            <InterpolatingParam id="11444" interp="linr"  time="0/1" value="0" leadInLength="0/1"  />
           </VectorParam>
           <VectorParam id="11445"  name="shear">
            <InterpolatingParam id="11446" interp="linr"  time="0/1" value="0" leadInLength="0/1"  />
            <InterpolatingParam id="11447" interp="linr"  time="0/1" value="0" leadInLength="0/1"  />
            <InterpolatingParam id="11448" interp="linr"  time="0/1" value="0" leadInLength="0/1"  />
           </VectorParam>
           <VectorParam id="11449"  name="scale">
            <InterpolatingParam id="11450" interp="linr"  time="0/1" value="1" leadInLength="0/1"  />
            <InterpolatingParam id="11451" interp="linr"  time="0/1" value="1" leadInLength="0/1"  />
            <InterpolatingParam id="11452" interp="linr"  time="0/1" value="1" leadInLength="0/1"  />
           </VectorParam>
           <VectorParam id="11453"  name="anchor">
            <InterpolatingParam id="11454" interp="linr"  time="0/1" value="0" leadInLength="0/1"  />
            <InterpolatingParam id="11455" interp="linr"  time="0/1" value="0" leadInLength="0/1"  />
            <InterpolatingParam id="11456" interp="linr"  time="0/1" value="0" leadInLength="0/1"  />
           </VectorParam>
          </Transformer>
          <Parameters>
           <VectorParam id="11457"  name="sourceCrop">
            <InterpolatingParam id="11458" interp="linr"  time="0/1" value="0" leadInLength="0/1"  />
            <InterpolatingParam id="11459" interp="linr"  time="0/1" value="0" leadInLength="0/1"  />
            <InterpolatingParam id="11460" interp="linr"  time="0/1" value="0" leadInLength="0/1"  />
            <InterpolatingParam id="11461" interp="linr"  time="0/1" value="0" leadInLength="0/1"  />
           </VectorParam>
           <VectorParam id="11462"  name="geometryCrop">
            <InterpolatingParam id="11463" interp="linr"  time="0/1" value="0" leadInLength="0/1"  />
            <InterpolatingParam id="11464" interp="linr"  time="0/1" value="0" leadInLength="0/1"  />
            <InterpolatingParam id="11465" interp="linr"  time="0/1" value="0" leadInLength="0/1"  />
            <InterpolatingParam id="11466" interp="linr"  time="0/1" value="0" leadInLength="0/1"  />
           </VectorParam>
           <InterpolatingParam id="11467" interp="linr"  time="0/1" value="1" leadInLength="0/1"  name="opacity"/>
          </Parameters>
          <Effects>
           <GenericEffect id="11468" name = "VisualTransition" >
            <Parameters>
            <InterpolatingParam id="11469" interp="linr"  time="0/1" value="0.5" leadInLength="0/1"   name="leftFramePercentage"/>
            <InterpolatingParam id="11470" interp="linr"  time="0/1" value="0.5" leadInLength="0/1"   name="rightFramePercentage"/>
            <Parameter id="11471"   name="visualEdgeModType">
             <Keyframes>
             <Keyframe id="11472"  time="0/1" value="2" leadInLength="0/1"  />
             </Keyframes>
            </Parameter>
            <Parameter id="11473"   name="visualTransitionType">
             <Keyframes>
             <Keyframe id="11474"  time="0/1" value="Fade" leadInLength="0/1"  />
             </Keyframes>
            </Parameter>
            </Parameters>
            <MetaData>
            </MetaData>
           </GenericEffect>
          </Effects>
          <Attributes>
           <Attribute id="11475" value="" name="ident"/>
          </Attributes>
          <ExtraData>
           <Entry key="ZoomPanBin">
            <ZoomPanBin id="11476"  >
             <ZoomPanKeyframes>
             </ZoomPanKeyframes>
            </ZoomPanBin>
           </Entry>
          </ExtraData>
         </ImageTransition>
         <MetaData>
          <entry key="WinSubProjectDisplayName" val=""/>
         </MetaData>
        </UnifiedMedia>
        <UnifiedMedia id="11477"  >
         <AudioTransition id="11478" start="8511" duration="43" >
          <Parameters>
           <InterpolatingParam id="11479" interp="linr"  time="0/1" value="1" leadInLength="0/1"  name="volume"/>
           <Parameter id="11480"  name="captions"/>
          </Parameters>
          <Effects>
           <GenericEffect id="11481" name = "AudioTransition" >
            <Parameters>
            <Parameter id="11482"   name="audioEdgeModType">
             <Keyframes>
             <Keyframe id="11483"  time="0/1" value="0" leadInLength="0/1"  />
             </Keyframes>
            </Parameter>
            <Parameter id="11484"   name="audioTransitionType">
             <Keyframes>
             <Keyframe id="11485"  time="0/1" value="" leadInLength="0/1"  />
             </Keyframes>
            </Parameter>
            </Parameters>
            <MetaData>
            </MetaData>
           </GenericEffect>
          </Effects>
          <Attributes>
           <Attribute id="11486" value="" name="ident"/>
           <Attribute id="11487" value="0" name="sampleRate"/>
           <Attribute id="11488" value="0" name="bitDepth"/>
           <Attribute id="11489" value="1" name="gain"/>
           <Attribute id="11490" value="0" name="mixToMono"/>
          </Attributes>
         </AudioTransition>
         <ImageTransition id="11491" start="8511" duration="43" >
          <Transformer>
           <VectorParam id="11492"  name="translation">
            <InterpolatingParam id="11493" interp="linr"  time="0/1" value="0" leadInLength="0/1"  />
            <InterpolatingParam id="11494" interp="linr"  time="0/1" value="0" leadInLength="0/1"  />
            <InterpolatingParam id="11495" interp="linr"  time="0/1" value="0" leadInLength="0/1"  />
           </VectorParam>
           <VectorParam id="11496"  name="rotation">
            <InterpolatingParam id="11497" interp="linr"  time="0/1" value="0" leadInLength="0/1"  />
            <InterpolatingParam id="11498" interp="linr"  time="0/1" value="0" leadInLength="0/1"  />
            <InterpolatingParam id="11499" interp="linr"  time="0/1" value="0" leadInLength="0/1"  />
           </VectorParam>
           <VectorParam id="11500"  name="shear">
            <InterpolatingParam id="11501" interp="linr"  time="0/1" value="0" leadInLength="0/1"  />
            <InterpolatingParam id="11502" interp="linr"  time="0/1" value="0" leadInLength="0/1"  />
            <InterpolatingParam id="11503" interp="linr"  time="0/1" value="0" leadInLength="0/1"  />
           </VectorParam>
           <VectorParam id="11504"  name="scale">
            <InterpolatingParam id="11505" interp="linr"  time="0/1" value="1" leadInLength="0/1"  />
            <InterpolatingParam id="11506" interp="linr"  time="0/1" value="1" leadInLength="0/1"  />
            <InterpolatingParam id="11507" interp="linr"  time="0/1" value="1" leadInLength="0/1"  />
           </VectorParam>
           <VectorParam id="11508"  name="anchor">
            <InterpolatingParam id="11509" interp="linr"  time="0/1" value="0" leadInLength="0/1"  />
            <InterpolatingParam id="11510" interp="linr"  time="0/1" value="0" leadInLength="0/1"  />
            <InterpolatingParam id="11511" interp="linr"  time="0/1" value="0" leadInLength="0/1"  />
           </VectorParam>
          </Transformer>
          <Parameters>
           <VectorParam id="11512"  name="sourceCrop">
            <InterpolatingParam id="11513" interp="linr"  time="0/1" value="0" leadInLength="0/1"  />
            <InterpolatingParam id="11514" interp="linr"  time="0/1" value="0" leadInLength="0/1"  />
            <InterpolatingParam id="11515" interp="linr"  time="0/1" value="0" leadInLength="0/1"  />
            <InterpolatingParam id="11516" interp="linr"  time="0/1" value="0" leadInLength="0/1"  />
           </VectorParam>
           <VectorParam id="11517"  name="geometryCrop">
            <InterpolatingParam id="11518" interp="linr"  time="0/1" value="0" leadInLength="0/1"  />
            <InterpolatingParam id="11519" interp="linr"  time="0/1" value="0" leadInLength="0/1"  />
            <InterpolatingParam id="11520" interp="linr"  time="0/1" value="0" leadInLength="0/1"  />
            <InterpolatingParam id="11521" interp="linr"  time="0/1" value="0" leadInLength="0/1"  />
           </VectorParam>
           <InterpolatingParam id="11522" interp="linr"  time="0/1" value="1" leadInLength="0/1"  name="opacity"/>
          </Parameters>
          <Effects>
           <GenericEffect id="11523" name = "VisualTransition" >
            <Parameters>
            <InterpolatingParam id="11524" interp="linr"  time="0/1" value="0.5" leadInLength="0/1"   name="leftFramePercentage"/>
            <InterpolatingParam id="11525" interp="linr"  time="0/1" value="0.5" leadInLength="0/1"   name="rightFramePercentage"/>
            <Parameter id="11526"   name="visualEdgeModType">
             <Keyframes>
             <Keyframe id="11527"  time="0/1" value="1" leadInLength="0/1"  />
             </Keyframes>
            </Parameter>
            <Parameter id="11528"   name="visualTransitionType">
             <Keyframes>
             <Keyframe id="11529"  time="0/1" value="GradientWipe" leadInLength="0/1"  />
             </Keyframes>
            </Parameter>
            </Parameters>
            <MetaData>
            </MetaData>
           </GenericEffect>
          </Effects>
          <Attributes>
           <Attribute id="11530" value="" name="ident"/>
          </Attributes>
          <ExtraData>
           <Entry key="ZoomPanBin">
            <ZoomPanBin id="11531"  >
             <ZoomPanKeyframes>
             </ZoomPanKeyframes>
            </ZoomPanBin>
           </Entry>
          </ExtraData>
         </ImageTransition>
         <MetaData>
          <entry key="WinSubProjectDisplayName" val=""/>
         </MetaData>
        </UnifiedMedia>
        <VMFile id="11532" start="8554" duration="152" scalar="1405123083739594752/926696275421169925" mediaStart="144115188075855872/16893039670449" mediaDuration="576460752303423488/5750466890704809" trackNumber="0" src="4" >
         <Transformer>
          <VectorParam id="11533"  name="translation">
           <InterpolatingParam id="11534" interp="linr"  >
            <Keyframes>
            <Keyframe id="11535"  time="-9999999/1" value="-7.1167960413731635e-011" leadInLength="0/1"  interpolater="leadin-linr"  />
            <Keyframe id="11536"  time="1152921504606846976/367459631745945" value="5.5654680863881367e-010" leadInLength="288230376151711744/1418946375628557"  interpolater="leadin-linr"  />
            <Keyframe id="11537"  time="1152921504606846976/242347418852773" value="7.4408035288797691e-011" leadInLength="144115188075855872/4552452955143039"  interpolater="leadin-linr"  />
            <Keyframe id="11538"  time="576460752303423488/98772096911159" value="637.46031746043502" leadInLength="144115188075855872/4750385692316899"  interpolater="leadin-linr"  />
            <Keyframe id="11539"  time="288230376151711744/47615798672467" value="-1.5187323977675214e-010" leadInLength="144115188075855872/4966312314701017"  interpolater="leadin-linr"  />
            </Keyframes>
           </InterpolatingParam>
           <InterpolatingParam id="11540" interp="linr"  >
            <Keyframes>
            <Keyframe id="11541"  time="-9999999/1" value="4.2888359530479647e-011" leadInLength="0/1"  interpolater="leadin-linr"  />
            <Keyframe id="11542"  time="1152921504606846976/367459631745945" value="-2.7188917783860234e-011" leadInLength="288230376151711744/1418946375628557"  interpolater="leadin-linr"  />
            <Keyframe id="11543"  time="1152921504606846976/242347418852773" value="1.3588419278676156e-010" leadInLength="144115188075855872/4552452955143039"  interpolater="leadin-linr"  />
            <Keyframe id="11544"  time="576460752303423488/98772096911159" value="-250.00000000029172" leadInLength="144115188075855872/4750385692316899"  interpolater="leadin-linr"  />
            <Keyframe id="11545"  time="288230376151711744/47615798672467" value="5.541285948612186e-011" leadInLength="144115188075855872/4966312314701017"  interpolater="leadin-linr"  />
            </Keyframes>
           </InterpolatingParam>
           <InterpolatingParam id="11546" interp="linr"  >
            <Keyframes>
            <Keyframe id="11547"  time="-9999999/1" value="0" leadInLength="0/1"  interpolater="leadin-linr"  />
            <Keyframe id="11548"  time="1152921504606846976/367459631745945" value="-6.8212102632977114e-010" leadInLength="288230376151711744/1418946375628557"  interpolater="leadin-linr"  />
            <Keyframe id="11549"  time="1152921504606846976/242347418852773" value="-3.4106051316488526e-010" leadInLength="144115188075855872/4552452955143039"  interpolater="leadin-linr"  />
            <Keyframe id="11550"  time="576460752303423488/98772096911159" value="-3.4106051316488526e-010" leadInLength="144115188075855872/4750385692316899"  interpolater="leadin-linr"  />
            <Keyframe id="11551"  time="288230376151711744/47615798672467" value="4.1359030627651384e-025" leadInLength="144115188075855872/4966312314701017"  interpolater="leadin-linr"  />
            </Keyframes>
           </InterpolatingParam>
          </VectorParam>
          <VectorParam id="11552"  name="rotation">
           <InterpolatingParam id="11553" interp="linr"  >
            <Keyframes>
            <Keyframe id="11554"  time="-9999999/1" value="0" leadInLength="0/1"  interpolater="leadin-linr"  />
            <Keyframe id="11555"  time="1152921504606846976/367459631745945" value="0" leadInLength="288230376151711744/1418946375628557"  interpolater="leadin-linr"  />
            <Keyframe id="11556"  time="1152921504606846976/242347418852773" value="0" leadInLength="144115188075855872/4552452955143039"  interpolater="leadin-linr"  />
            <Keyframe id="11557"  time="576460752303423488/98772096911159" value="0" leadInLength="144115188075855872/4750385692316899"  interpolater="leadin-linr"  />
            <Keyframe id="11558"  time="288230376151711744/47615798672467" value="0" leadInLength="144115188075855872/4966312314701017"  interpolater="leadin-linr"  />
            </Keyframes>
           </InterpolatingParam>
           <InterpolatingParam id="11559" interp="linr"  >
            <Keyframes>
            <Keyframe id="11560"  time="-9999999/1" value="0" leadInLength="0/1"  interpolater="leadin-linr"  />
            <Keyframe id="11561"  time="1152921504606846976/367459631745945" value="0" leadInLength="288230376151711744/1418946375628557"  interpolater="leadin-linr"  />
            <Keyframe id="11562"  time="1152921504606846976/242347418852773" value="0" leadInLength="144115188075855872/4552452955143039"  interpolater="leadin-linr"  />
            <Keyframe id="11563"  time="576460752303423488/98772096911159" value="0" leadInLength="144115188075855872/4750385692316899"  interpolater="leadin-linr"  />
            <Keyframe id="11564"  time="288230376151711744/47615798672467" value="0" leadInLength="144115188075855872/4966312314701017"  interpolater="leadin-linr"  />
            </Keyframes>
           </InterpolatingParam>
           <InterpolatingParam id="11565" interp="linr"  >
            <Keyframes>
            <Keyframe id="11566"  time="-9999999/1" value="0" leadInLength="0/1"  interpolater="leadin-linr"  />
            <Keyframe id="11567"  time="1152921504606846976/367459631745945" value="0" leadInLength="288230376151711744/1418946375628557"  interpolater="leadin-linr"  />
            <Keyframe id="11568"  time="1152921504606846976/242347418852773" value="0" leadInLength="144115188075855872/4552452955143039"  interpolater="leadin-linr"  />
            <Keyframe id="11569"  time="576460752303423488/98772096911159" value="0" leadInLength="144115188075855872/4750385692316899"  interpolater="leadin-linr"  />
            <Keyframe id="11570"  time="288230376151711744/47615798672467" value="0" leadInLength="144115188075855872/4966312314701017"  interpolater="leadin-linr"  />
            </Keyframes>
           </InterpolatingParam>
          </VectorParam>
          <VectorParam id="11571"  name="shear">
           <InterpolatingParam id="11572" interp="linr"  >
            <Keyframes>
            <Keyframe id="11573"  time="-9999999/1" value="0" leadInLength="0/1"  interpolater="leadin-linr"  />
            <Keyframe id="11574"  time="1152921504606846976/367459631745945" value="0" leadInLength="288230376151711744/1418946375628557"  interpolater="leadin-linr"  />
            <Keyframe id="11575"  time="1152921504606846976/242347418852773" value="0" leadInLength="144115188075855872/4552452955143039"  interpolater="leadin-linr"  />
            <Keyframe id="11576"  time="576460752303423488/98772096911159" value="0" leadInLength="144115188075855872/4750385692316899"  interpolater="leadin-linr"  />
            <Keyframe id="11577"  time="288230376151711744/47615798672467" value="0" leadInLength="144115188075855872/4966312314701017"  interpolater="leadin-linr"  />
            </Keyframes>
           </InterpolatingParam>
           <InterpolatingParam id="11578" interp="linr"  >
            <Keyframes>
            <Keyframe id="11579"  time="-9999999/1" value="0" leadInLength="0/1"  interpolater="leadin-linr"  />
            <Keyframe id="11580"  time="1152921504606846976/367459631745945" value="0" leadInLength="288230376151711744/1418946375628557"  interpolater="leadin-linr"  />
            <Keyframe id="11581"  time="1152921504606846976/242347418852773" value="0" leadInLength="144115188075855872/4552452955143039"  interpolater="leadin-linr"  />
            <Keyframe id="11582"  time="576460752303423488/98772096911159" value="0" leadInLength="144115188075855872/4750385692316899"  interpolater="leadin-linr"  />
            <Keyframe id="11583"  time="288230376151711744/47615798672467" value="0" leadInLength="144115188075855872/4966312314701017"  interpolater="leadin-linr"  />
            </Keyframes>
           </InterpolatingParam>
           <InterpolatingParam id="11584" interp="linr"  >
            <Keyframes>
            <Keyframe id="11585"  time="-9999999/1" value="0" leadInLength="0/1"  interpolater="leadin-linr"  />
            <Keyframe id="11586"  time="1152921504606846976/367459631745945" value="0" leadInLength="288230376151711744/1418946375628557"  interpolater="leadin-linr"  />
            <Keyframe id="11587"  time="1152921504606846976/242347418852773" value="0" leadInLength="144115188075855872/4552452955143039"  interpolater="leadin-linr"  />
            <Keyframe id="11588"  time="576460752303423488/98772096911159" value="0" leadInLength="144115188075855872/4750385692316899"  interpolater="leadin-linr"  />
            <Keyframe id="11589"  time="288230376151711744/47615798672467" value="0" leadInLength="144115188075855872/4966312314701017"  interpolater="leadin-linr"  />
            </Keyframes>
           </InterpolatingParam>
          </VectorParam>
          <VectorParam id="11590"  name="scale">
           <InterpolatingParam id="11591" interp="linr"  >
            <Keyframes>
            <Keyframe id="11592"  time="-9999999/1" value="0.66666666666665186" leadInLength="0/1"  interpolater="leadin-linr"  />
            <Keyframe id="11593"  time="1152921504606846976/367459631745945" value="0.66666666666705388" leadInLength="288230376151711744/1418946375628557"  interpolater="leadin-linr"  />
            <Keyframe id="11594"  time="1152921504606846976/242347418852773" value="0.66666666666655605" leadInLength="144115188075855872/4552452955143039"  interpolater="leadin-linr"  />
            <Keyframe id="11595"  time="576460752303423488/98772096911159" value="1.3306878306877652" leadInLength="144115188075855872/4750385692316899"  interpolater="leadin-linr"  />
            <Keyframe id="11596"  time="288230376151711744/47615798672467" value="0.66666666666645868" leadInLength="144115188075855872/4966312314701017"  interpolater="leadin-linr"  />
            </Keyframes>
           </InterpolatingParam>
           <InterpolatingParam id="11597" interp="linr"  >
            <Keyframes>
            <Keyframe id="11598"  time="-9999999/1" value="0.6666666666666522" leadInLength="0/1"  interpolater="leadin-linr"  />
            <Keyframe id="11599"  time="1152921504606846976/367459631745945" value="0.66666666666705443" leadInLength="288230376151711744/1418946375628557"  interpolater="leadin-linr"  />
            <Keyframe id="11600"  time="1152921504606846976/242347418852773" value="0.66666666666655749" leadInLength="144115188075855872/4552452955143039"  interpolater="leadin-linr"  />
            <Keyframe id="11601"  time="576460752303423488/98772096911159" value="1.3306878306877681" leadInLength="144115188075855872/4750385692316899"  interpolater="leadin-linr"  />
            <Keyframe id="11602"  time="288230376151711744/47615798672467" value="0.66666666666646024" leadInLength="144115188075855872/4966312314701017"  interpolater="leadin-linr"  />
            </Keyframes>
           </InterpolatingParam>
           <InterpolatingParam id="11603" interp="linr"  >
            <Keyframes>
            <Keyframe id="11604"  time="-9999999/1" value="1" leadInLength="0/1"  interpolater="leadin-linr"  />
            <Keyframe id="11605"  time="1152921504606846976/367459631745945" value="1" leadInLength="288230376151711744/1418946375628557"  interpolater="leadin-linr"  />
            <Keyframe id="11606"  time="1152921504606846976/242347418852773" value="1" leadInLength="144115188075855872/4552452955143039"  interpolater="leadin-linr"  />
            <Keyframe id="11607"  time="576460752303423488/98772096911159" value="1" leadInLength="144115188075855872/4750385692316899"  interpolater="leadin-linr"  />
            <Keyframe id="11608"  time="288230376151711744/47615798672467" value="1" leadInLength="144115188075855872/4966312314701017"  interpolater="leadin-linr"  />
            </Keyframes>
           </InterpolatingParam>
          </VectorParam>
          <VectorParam id="11609"  name="anchor">
           <InterpolatingParam id="11610" interp="linr"  time="0/1" value="0" leadInLength="0/1"  />
           <InterpolatingParam id="11611" interp="linr"  time="0/1" value="0" leadInLength="0/1"  />
           <InterpolatingParam id="11612" interp="linr"  time="0/1" value="0" leadInLength="0/1"  />
          </VectorParam>
         </Transformer>
         <Parameters>
          <VectorParam id="11613"  name="sourceCrop">
           <InterpolatingParam id="11614" interp="linr"  time="0/1" value="0" leadInLength="0/1"  />
           <InterpolatingParam id="11615" interp="linr"  time="0/1" value="0" leadInLength="0/1"  />
           <InterpolatingParam id="11616" interp="linr"  time="0/1" value="0" leadInLength="0/1"  />
           <InterpolatingParam id="11617" interp="linr"  time="0/1" value="0" leadInLength="0/1"  />
          </VectorParam>
          <VectorParam id="11618"  name="geometryCrop">
           <InterpolatingParam id="11619" interp="linr"  >
            <Keyframes>
            <Keyframe id="11620"  time="-9999999/1" value="0" leadInLength="0/1"  interpolater="leadin-linr"  />
            <Keyframe id="11621"  time="1152921504606846976/367459631745945" value="0" leadInLength="288230376151711744/1418946375628557"  interpolater="leadin-linr"  />
            <Keyframe id="11622"  time="1152921504606846976/242347418852773" value="0" leadInLength="144115188075855872/4552452955143039"  interpolater="leadin-linr"  />
            <Keyframe id="11623"  time="576460752303423488/98772096911159" value="0" leadInLength="144115188075855872/4750385692316899"  interpolater="leadin-linr"  />
            <Keyframe id="11624"  time="288230376151711744/47615798672467" value="0" leadInLength="144115188075855872/4966312314701017"  interpolater="leadin-linr"  />
            </Keyframes>
           </InterpolatingParam>
           <InterpolatingParam id="11625" interp="linr"  >
            <Keyframes>
            <Keyframe id="11626"  time="-9999999/1" value="0" leadInLength="0/1"  interpolater="leadin-linr"  />
            <Keyframe id="11627"  time="1152921504606846976/367459631745945" value="0" leadInLength="288230376151711744/1418946375628557"  interpolater="leadin-linr"  />
            <Keyframe id="11628"  time="1152921504606846976/242347418852773" value="0" leadInLength="144115188075855872/4552452955143039"  interpolater="leadin-linr"  />
            <Keyframe id="11629"  time="576460752303423488/98772096911159" value="0" leadInLength="144115188075855872/4750385692316899"  interpolater="leadin-linr"  />
            <Keyframe id="11630"  time="288230376151711744/47615798672467" value="0" leadInLength="144115188075855872/4966312314701017"  interpolater="leadin-linr"  />
            </Keyframes>
           </InterpolatingParam>
           <InterpolatingParam id="11631" interp="linr"  >
            <Keyframes>
            <Keyframe id="11632"  time="-9999999/1" value="0" leadInLength="0/1"  interpolater="leadin-linr"  />
            <Keyframe id="11633"  time="1152921504606846976/367459631745945" value="0" leadInLength="288230376151711744/1418946375628557"  interpolater="leadin-linr"  />
            <Keyframe id="11634"  time="1152921504606846976/242347418852773" value="0" leadInLength="144115188075855872/4552452955143039"  interpolater="leadin-linr"  />
            <Keyframe id="11635"  time="576460752303423488/98772096911159" value="0" leadInLength="144115188075855872/4750385692316899"  interpolater="leadin-linr"  />
            <Keyframe id="11636"  time="288230376151711744/47615798672467" value="0" leadInLength="144115188075855872/4966312314701017"  interpolater="leadin-linr"  />
            </Keyframes>
           </InterpolatingParam>
           <InterpolatingParam id="11637" interp="linr"  >
            <Keyframes>
            <Keyframe id="11638"  time="-9999999/1" value="0" leadInLength="0/1"  interpolater="leadin-linr"  />
            <Keyframe id="11639"  time="1152921504606846976/367459631745945" value="0" leadInLength="288230376151711744/1418946375628557"  interpolater="leadin-linr"  />
            <Keyframe id="11640"  time="1152921504606846976/242347418852773" value="0" leadInLength="144115188075855872/4552452955143039"  interpolater="leadin-linr"  />
            <Keyframe id="11641"  time="576460752303423488/98772096911159" value="0" leadInLength="144115188075855872/4750385692316899"  interpolater="leadin-linr"  />
            <Keyframe id="11642"  time="288230376151711744/47615798672467" value="0" leadInLength="144115188075855872/4966312314701017"  interpolater="leadin-linr"  />
            </Keyframes>
           </InterpolatingParam>
          </VectorParam>
          <InterpolatingParam id="11643" interp="linr"  name="opacity">
           <Keyframes>
           <Keyframe id="11644"  time="-9999999/1" value="1" leadInLength="0/1"  interpolater="leadin-linr"  />
           <Keyframe id="11645"  time="1152921504606846976/367459631745945" value="1" leadInLength="288230376151711744/1418946375628557"  interpolater="leadin-linr"  />
           <Keyframe id="11646"  time="1152921504606846976/242347418852773" value="1" leadInLength="144115188075855872/4552452955143039"  interpolater="leadin-linr"  />
           <Keyframe id="11647"  time="576460752303423488/98772096911159" value="1" leadInLength="144115188075855872/4750385692316899"  interpolater="leadin-linr"  />
           <Keyframe id="11648"  time="288230376151711744/47615798672467" value="1" leadInLength="144115188075855872/4966312314701017"  interpolater="leadin-linr"  />
           </Keyframes>
          </InterpolatingParam>
         </Parameters>
         <Attributes>
          <Attribute id="11649" value="" name="ident"/>
         </Attributes>
         <MetaData>
          <entry key="WinSubProjectDisplayName" val=""/>
         </MetaData>
         <ExtraData>
          <Entry key="ZoomPanBin">
           <ZoomPanBin id="11650"  >
            <ZoomPanKeyframes>
             <ZoomPanKeyframe id="11651" timeRangeEnd="-9999999/1" timeRangeDuration="0/1" interpolaterName="leadin-linr"  />
             <ZoomPanKeyframe id="11652" timeRangeEnd="1152921504606846976/367459631745945" timeRangeDuration="288230376151711744/1418946375628557" interpolaterName="linr"  />
             <ZoomPanKeyframe id="11653" timeRangeEnd="1152921504606846976/242347418852773" timeRangeDuration="144115188075855872/4552452955143039" interpolaterName="linr"  />
             <ZoomPanKeyframe id="11654" timeRangeEnd="288230376151711744/47615798672467" timeRangeDuration="144115188075855872/4966312314701017" interpolaterName="linr"  />
             <ZoomPanKeyframe id="11655" timeRangeEnd="576460752303423488/98772096911159" timeRangeDuration="144115188075855872/4750385692316899" interpolaterName="linr"  />
            </ZoomPanKeyframes>
           </ZoomPanBin>
          </Entry>
         </ExtraData>
        </VMFile>
       </Medias>
      </GenericTrack>
      <GenericTrack id="11656"  >
       <Attributes>
        <Attribute id="11657" value="" name="ident"/>
        <Attribute id="11658" value="0" name="audioMuted"/>
        <Attribute id="11659" value="0" name="videoHidden"/>
       </Attributes>
       <MetaData>
        <entry key="IsLocked" val="False"/>
        <entry key="WinTrackHeight" val="62"/>
       </MetaData>
       <Medias>
        <UnifiedMedia id="11660"  >
         <AudioTransition id="11661" start="3347" duration="38" >
          <Parameters>
           <InterpolatingParam id="11662" interp="linr"  time="0/1" value="1" leadInLength="0/1"  name="volume"/>
           <Parameter id="11663"  name="captions"/>
          </Parameters>
          <Effects>
           <GenericEffect id="11664" name = "AudioTransition" >
            <Parameters>
            <Parameter id="11665"   name="audioEdgeModType">
             <Keyframes>
             <Keyframe id="11666"  time="0/1" value="0" leadInLength="0/1"  />
             </Keyframes>
            </Parameter>
            <Parameter id="11667"   name="audioTransitionType">
             <Keyframes>
             <Keyframe id="11668"  time="0/1" value="" leadInLength="0/1"  />
             </Keyframes>
            </Parameter>
            </Parameters>
            <MetaData>
            </MetaData>
           </GenericEffect>
          </Effects>
          <Attributes>
           <Attribute id="11669" value="" name="ident"/>
           <Attribute id="11670" value="0" name="sampleRate"/>
           <Attribute id="11671" value="0" name="bitDepth"/>
           <Attribute id="11672" value="1" name="gain"/>
           <Attribute id="11673" value="0" name="mixToMono"/>
          </Attributes>
         </AudioTransition>
         <ImageTransition id="11674" start="3347" duration="38" >
          <Transformer>
           <VectorParam id="11675"  name="translation">
            <InterpolatingParam id="11676" interp="linr"  time="0/1" value="0" leadInLength="0/1"  />
            <InterpolatingParam id="11677" interp="linr"  time="0/1" value="0" leadInLength="0/1"  />
            <InterpolatingParam id="11678" interp="linr"  time="0/1" value="0" leadInLength="0/1"  />
           </VectorParam>
           <VectorParam id="11679"  name="rotation">
            <InterpolatingParam id="11680" interp="linr"  time="0/1" value="0" leadInLength="0/1"  />
            <InterpolatingParam id="11681" interp="linr"  time="0/1" value="0" leadInLength="0/1"  />
            <InterpolatingParam id="11682" interp="linr"  time="0/1" value="0" leadInLength="0/1"  />
           </VectorParam>
           <VectorParam id="11683"  name="shear">
            <InterpolatingParam id="11684" interp="linr"  time="0/1" value="0" leadInLength="0/1"  />
            <InterpolatingParam id="11685" interp="linr"  time="0/1" value="0" leadInLength="0/1"  />
            <InterpolatingParam id="11686" interp="linr"  time="0/1" value="0" leadInLength="0/1"  />
           </VectorParam>
           <VectorParam id="11687"  name="scale">
            <InterpolatingParam id="11688" interp="linr"  time="0/1" value="1" leadInLength="0/1"  />
            <InterpolatingParam id="11689" interp="linr"  time="0/1" value="1" leadInLength="0/1"  />
            <InterpolatingParam id="11690" interp="linr"  time="0/1" value="1" leadInLength="0/1"  />
           </VectorParam>
           <VectorParam id="11691"  name="anchor">
            <InterpolatingParam id="11692" interp="linr"  time="0/1" value="0" leadInLength="0/1"  />
            <InterpolatingParam id="11693" interp="linr"  time="0/1" value="0" leadInLength="0/1"  />
            <InterpolatingParam id="11694" interp="linr"  time="0/1" value="0" leadInLength="0/1"  />
           </VectorParam>
          </Transformer>
          <Parameters>
           <VectorParam id="11695"  name="sourceCrop">
            <InterpolatingParam id="11696" interp="linr"  time="0/1" value="0" leadInLength="0/1"  />
            <InterpolatingParam id="11697" interp="linr"  time="0/1" value="0" leadInLength="0/1"  />
            <InterpolatingParam id="11698" interp="linr"  time="0/1" value="0" leadInLength="0/1"  />
            <InterpolatingParam id="11699" interp="linr"  time="0/1" value="0" leadInLength="0/1"  />
           </VectorParam>
           <VectorParam id="11700"  name="geometryCrop">
            <InterpolatingParam id="11701" interp="linr"  time="0/1" value="0" leadInLength="0/1"  />
            <InterpolatingParam id="11702" interp="linr"  time="0/1" value="0" leadInLength="0/1"  />
            <InterpolatingParam id="11703" interp="linr"  time="0/1" value="0" leadInLength="0/1"  />
            <InterpolatingParam id="11704" interp="linr"  time="0/1" value="0" leadInLength="0/1"  />
           </VectorParam>
           <InterpolatingParam id="11705" interp="linr"  time="0/1" value="1" leadInLength="0/1"  name="opacity"/>
          </Parameters>
          <Effects>
           <GenericEffect id="11706" name = "VisualTransition" >
            <Parameters>
            <InterpolatingParam id="11707" interp="linr"  time="0/1" value="0.5" leadInLength="0/1"   name="leftFramePercentage"/>
            <InterpolatingParam id="11708" interp="linr"  time="0/1" value="0.5" leadInLength="0/1"   name="rightFramePercentage"/>
            <Parameter id="11709"   name="visualEdgeModType">
             <Keyframes>
             <Keyframe id="11710"  time="0/1" value="1" leadInLength="0/1"  />
             </Keyframes>
            </Parameter>
            <Parameter id="11711"   name="visualTransitionType">
             <Keyframes>
             <Keyframe id="11712"  time="0/1" value="CheckerBoard" leadInLength="0/1"  />
             </Keyframes>
            </Parameter>
            </Parameters>
            <MetaData>
            </MetaData>
           </GenericEffect>
          </Effects>
          <Attributes>
           <Attribute id="11713" value="" name="ident"/>
          </Attributes>
          <ExtraData>
           <Entry key="ZoomPanBin">
            <ZoomPanBin id="11714"  >
             <ZoomPanKeyframes>
             </ZoomPanKeyframes>
            </ZoomPanBin>
           </Entry>
          </ExtraData>
         </ImageTransition>
         <MetaData>
          <entry key="WinSubProjectDisplayName" val=""/>
         </MetaData>
        </UnifiedMedia>
        <IMFile id="11715" start="3385" duration="623" scalar="1/1" mediaStart="0/1" mediaDuration="1/1" trackNumber="0" src="12" trimStartSum="38/1" >
         <Transformer>
          <VectorParam id="11716"  name="translation">
           <InterpolatingParam id="11717" interp="linr"  >
            <Keyframes>
            <Keyframe id="11718"  time="-9999999/1" value="360.00000000015257" leadInLength="0/1"  />
            <Keyframe id="11719"  time="185/1" value="677.45161290325291" leadInLength="82/1"  interpolater="leadin-linr"  />
            </Keyframes>
           </InterpolatingParam>
           <InterpolatingParam id="11720" interp="linr"  >
            <Keyframes>
            <Keyframe id="11721"  time="-9999999/1" value="8.7851503849378787e-011" leadInLength="0/1"  />
            <Keyframe id="11722"  time="185/1" value="52.54838709702905" leadInLength="82/1"  interpolater="leadin-linr"  />
            </Keyframes>
           </InterpolatingParam>
           <InterpolatingParam id="11723" interp="linr"  >
            <Keyframes>
            <Keyframe id="11724"  time="-9999999/1" value="0" leadInLength="0/1"  />
            <Keyframe id="11725"  time="185/1" value="0" leadInLength="82/1"  interpolater="leadin-linr"  />
            </Keyframes>
           </InterpolatingParam>
          </VectorParam>
          <VectorParam id="11726"  name="rotation">
           <InterpolatingParam id="11727" interp="linr"  >
            <Keyframes>
            <Keyframe id="11728"  time="-9999999/1" value="0" leadInLength="0/1"  />
            <Keyframe id="11729"  time="185/1" value="0" leadInLength="82/1"  interpolater="leadin-linr"  />
            </Keyframes>
           </InterpolatingParam>
           <InterpolatingParam id="11730" interp="linr"  >
            <Keyframes>
            <Keyframe id="11731"  time="-9999999/1" value="0" leadInLength="0/1"  />
            <Keyframe id="11732"  time="185/1" value="0" leadInLength="82/1"  interpolater="leadin-linr"  />
            </Keyframes>
           </InterpolatingParam>
           <InterpolatingParam id="11733" interp="linr"  >
            <Keyframes>
            <Keyframe id="11734"  time="-9999999/1" value="0" leadInLength="0/1"  />
            <Keyframe id="11735"  time="185/1" value="0" leadInLength="82/1"  interpolater="leadin-linr"  />
            </Keyframes>
           </InterpolatingParam>
          </VectorParam>
          <VectorParam id="11736"  name="shear">
           <InterpolatingParam id="11737" interp="linr"  >
            <Keyframes>
            <Keyframe id="11738"  time="-9999999/1" value="0" leadInLength="0/1"  />
            <Keyframe id="11739"  time="185/1" value="0" leadInLength="82/1"  interpolater="leadin-linr"  />
            </Keyframes>
           </InterpolatingParam>
           <InterpolatingParam id="11740" interp="linr"  >
            <Keyframes>
            <Keyframe id="11741"  time="-9999999/1" value="0" leadInLength="0/1"  />
            <Keyframe id="11742"  time="185/1" value="0" leadInLength="82/1"  interpolater="leadin-linr"  />
            </Keyframes>
           </InterpolatingParam>
           <InterpolatingParam id="11743" interp="linr"  >
            <Keyframes>
            <Keyframe id="11744"  time="-9999999/1" value="0" leadInLength="0/1"  />
            <Keyframe id="11745"  time="185/1" value="0" leadInLength="82/1"  interpolater="leadin-linr"  />
            </Keyframes>
           </InterpolatingParam>
          </VectorParam>
          <VectorParam id="11746"  name="scale">
           <InterpolatingParam id="11747" interp="linr"  >
            <Keyframes>
            <Keyframe id="11748"  time="-9999999/1" value="0.70312500000033928" leadInLength="0/1"  />
            <Keyframe id="11749"  time="185/1" value="0.80966481854878547" leadInLength="82/1"  interpolater="leadin-linr"  />
            </Keyframes>
           </InterpolatingParam>
           <InterpolatingParam id="11750" interp="linr"  >
            <Keyframes>
            <Keyframe id="11751"  time="-9999999/1" value="0.70312500000033928" leadInLength="0/1"  />
            <Keyframe id="11752"  time="185/1" value="0.80966481854878547" leadInLength="82/1"  interpolater="leadin-linr"  />
            </Keyframes>
           </InterpolatingParam>
           <InterpolatingParam id="11753" interp="linr"  >
            <Keyframes>
            <Keyframe id="11754"  time="-9999999/1" value="1" leadInLength="0/1"  />
            <Keyframe id="11755"  time="185/1" value="1" leadInLength="82/1"  interpolater="leadin-linr"  />
            </Keyframes>
           </InterpolatingParam>
          </VectorParam>
          <VectorParam id="11756"  name="anchor">
           <InterpolatingParam id="11757" interp="linr"  time="0/1" value="0" leadInLength="0/1"  />
           <InterpolatingParam id="11758" interp="linr"  time="0/1" value="0" leadInLength="0/1"  />
           <InterpolatingParam id="11759" interp="linr"  time="0/1" value="0" leadInLength="0/1"  />
          </VectorParam>
         </Transformer>
         <Parameters>
          <VectorParam id="11760"  name="sourceCrop">
           <InterpolatingParam id="11761" interp="linr"  time="0/1" value="0" leadInLength="0/1"  />
           <InterpolatingParam id="11762" interp="linr"  time="0/1" value="0" leadInLength="0/1"  />
           <InterpolatingParam id="11763" interp="linr"  time="0/1" value="0" leadInLength="0/1"  />
           <InterpolatingParam id="11764" interp="linr"  time="0/1" value="0" leadInLength="0/1"  />
          </VectorParam>
          <VectorParam id="11765"  name="geometryCrop">
           <InterpolatingParam id="11766" interp="linr"  >
            <Keyframes>
            <Keyframe id="11767"  time="-9999999/1" value="0" leadInLength="0/1"  />
            <Keyframe id="11768"  time="185/1" value="0" leadInLength="82/1"  interpolater="leadin-linr"  />
            </Keyframes>
           </InterpolatingParam>
           <InterpolatingParam id="11769" interp="linr"  >
            <Keyframes>
            <Keyframe id="11770"  time="-9999999/1" value="0" leadInLength="0/1"  />
            <Keyframe id="11771"  time="185/1" value="0" leadInLength="82/1"  interpolater="leadin-linr"  />
            </Keyframes>
           </InterpolatingParam>
           <InterpolatingParam id="11772" interp="linr"  >
            <Keyframes>
            <Keyframe id="11773"  time="-9999999/1" value="0" leadInLength="0/1"  />
            <Keyframe id="11774"  time="185/1" value="0" leadInLength="82/1"  interpolater="leadin-linr"  />
            </Keyframes>
           </InterpolatingParam>
           <InterpolatingParam id="11775" interp="linr"  >
            <Keyframes>
            <Keyframe id="11776"  time="-9999999/1" value="0" leadInLength="0/1"  />
            <Keyframe id="11777"  time="185/1" value="0" leadInLength="82/1"  interpolater="leadin-linr"  />
            </Keyframes>
           </InterpolatingParam>
          </VectorParam>
          <InterpolatingParam id="11778" interp="linr"  name="opacity">
           <Keyframes>
           <Keyframe id="11779"  time="-9999999/1" value="1" leadInLength="0/1"  />
           <Keyframe id="11780"  time="185/1" value="1" leadInLength="82/1"  interpolater="leadin-linr"  />
           </Keyframes>
          </InterpolatingParam>
         </Parameters>
         <Attributes>
          <Attribute id="11781" value="" name="ident"/>
         </Attributes>
         <MetaData>
          <entry key="WinSubProjectDisplayName" val=""/>
         </MetaData>
         <ExtraData>
          <Entry key="ZoomPanBin">
           <ZoomPanBin id="11782"  >
            <ZoomPanKeyframes>
             <ZoomPanKeyframe id="11783" timeRangeEnd="-9999999/1" timeRangeDuration="0/1" interpolaterName="linr"  />
             <ZoomPanKeyframe id="11784" timeRangeEnd="185/1" timeRangeDuration="82/1" interpolaterName="linr"  />
            </ZoomPanKeyframes>
           </ZoomPanBin>
          </Entry>
         </ExtraData>
        </IMFile>
        <UnifiedMedia id="11785"  >
         <AudioTransition id="11786" start="4253" duration="27" >
          <Parameters>
           <InterpolatingParam id="11787" interp="linr"  time="0/1" value="1" leadInLength="0/1"  name="volume"/>
           <Parameter id="11788"  name="captions"/>
          </Parameters>
          <Effects>
           <GenericEffect id="11789" name = "AudioTransition" >
            <Parameters>
            <Parameter id="11790"   name="audioEdgeModType">
             <Keyframes>
             <Keyframe id="11791"  time="0/1" value="0" leadInLength="0/1"  />
             </Keyframes>
            </Parameter>
            <Parameter id="11792"   name="audioTransitionType">
             <Keyframes>
             <Keyframe id="11793"  time="0/1" value="" leadInLength="0/1"  />
             </Keyframes>
            </Parameter>
            </Parameters>
            <MetaData>
            </MetaData>
           </GenericEffect>
          </Effects>
          <Attributes>
           <Attribute id="11794" value="" name="ident"/>
           <Attribute id="11795" value="0" name="sampleRate"/>
           <Attribute id="11796" value="0" name="bitDepth"/>
           <Attribute id="11797" value="1" name="gain"/>
           <Attribute id="11798" value="0" name="mixToMono"/>
          </Attributes>
         </AudioTransition>
         <ImageTransition id="11799" start="4253" duration="27" >
          <Transformer>
           <VectorParam id="11800"  name="translation">
            <InterpolatingParam id="11801" interp="linr"  time="0/1" value="0" leadInLength="0/1"  />
            <InterpolatingParam id="11802" interp="linr"  time="0/1" value="0" leadInLength="0/1"  />
            <InterpolatingParam id="11803" interp="linr"  time="0/1" value="0" leadInLength="0/1"  />
           </VectorParam>
           <VectorParam id="11804"  name="rotation">
            <InterpolatingParam id="11805" interp="linr"  time="0/1" value="0" leadInLength="0/1"  />
            <InterpolatingParam id="11806" interp="linr"  time="0/1" value="0" leadInLength="0/1"  />
            <InterpolatingParam id="11807" interp="linr"  time="0/1" value="0" leadInLength="0/1"  />
           </VectorParam>
           <VectorParam id="11808"  name="shear">
            <InterpolatingParam id="11809" interp="linr"  time="0/1" value="0" leadInLength="0/1"  />
            <InterpolatingParam id="11810" interp="linr"  time="0/1" value="0" leadInLength="0/1"  />
            <InterpolatingParam id="11811" interp="linr"  time="0/1" value="0" leadInLength="0/1"  />
           </VectorParam>
           <VectorParam id="11812"  name="scale">
            <InterpolatingParam id="11813" interp="linr"  time="0/1" value="1" leadInLength="0/1"  />
            <InterpolatingParam id="11814" interp="linr"  time="0/1" value="1" leadInLength="0/1"  />
            <InterpolatingParam id="11815" interp="linr"  time="0/1" value="1" leadInLength="0/1"  />
           </VectorParam>
           <VectorParam id="11816"  name="anchor">
            <InterpolatingParam id="11817" interp="linr"  time="0/1" value="0" leadInLength="0/1"  />
            <InterpolatingParam id="11818" interp="linr"  time="0/1" value="0" leadInLength="0/1"  />
            <InterpolatingParam id="11819" interp="linr"  time="0/1" value="0" leadInLength="0/1"  />
           </VectorParam>
          </Transformer>
          <Parameters>
           <VectorParam id="11820"  name="sourceCrop">
            <InterpolatingParam id="11821" interp="linr"  time="0/1" value="0" leadInLength="0/1"  />
            <InterpolatingParam id="11822" interp="linr"  time="0/1" value="0" leadInLength="0/1"  />
            <InterpolatingParam id="11823" interp="linr"  time="0/1" value="0" leadInLength="0/1"  />
            <InterpolatingParam id="11824" interp="linr"  time="0/1" value="0" leadInLength="0/1"  />
           </VectorParam>
           <VectorParam id="11825"  name="geometryCrop">
            <InterpolatingParam id="11826" interp="linr"  time="0/1" value="0" leadInLength="0/1"  />
            <InterpolatingParam id="11827" interp="linr"  time="0/1" value="0" leadInLength="0/1"  />
            <InterpolatingParam id="11828" interp="linr"  time="0/1" value="0" leadInLength="0/1"  />
            <InterpolatingParam id="11829" interp="linr"  time="0/1" value="0" leadInLength="0/1"  />
           </VectorParam>
           <InterpolatingParam id="11830" interp="linr"  time="0/1" value="1" leadInLength="0/1"  name="opacity"/>
          </Parameters>
          <Effects>
           <GenericEffect id="11831" name = "VisualTransition" >
            <Parameters>
            <InterpolatingParam id="11832" interp="linr"  time="0/1" value="0.5" leadInLength="0/1"   name="leftFramePercentage"/>
            <InterpolatingParam id="11833" interp="linr"  time="0/1" value="0.5" leadInLength="0/1"   name="rightFramePercentage"/>
            <Parameter id="11834"   name="visualEdgeModType">
             <Keyframes>
             <Keyframe id="11835"  time="0/1" value="1" leadInLength="0/1"  />
             </Keyframes>
            </Parameter>
            <Parameter id="11836"   name="visualTransitionType">
             <Keyframes>
             <Keyframe id="11837"  time="0/1" value="RadialBlur" leadInLength="0/1"  />
             </Keyframes>
            </Parameter>
            </Parameters>
            <MetaData>
            </MetaData>
           </GenericEffect>
          </Effects>
          <Attributes>
           <Attribute id="11838" value="" name="ident"/>
          </Attributes>
          <ExtraData>
           <Entry key="ZoomPanBin">
            <ZoomPanBin id="11839"  >
             <ZoomPanKeyframes>
             </ZoomPanKeyframes>
            </ZoomPanBin>
           </Entry>
          </ExtraData>
         </ImageTransition>
         <MetaData>
          <entry key="WinSubProjectDisplayName" val=""/>
         </MetaData>
        </UnifiedMedia>
        <IMFile id="11840" start="4280" duration="184" scalar="1/1" mediaStart="0/1" mediaDuration="1/1" trackNumber="0" src="14" trimStartSum="12/1" >
         <Transformer>
          <VectorParam id="11841"  name="translation">
           <InterpolatingParam id="11842" interp="linr"  time="-9999999/1" value="361.6666666667208" leadInLength="0/1"  />
           <InterpolatingParam id="11843" interp="linr"  time="-9999999/1" value="1.6666666669992338" leadInLength="0/1"  />
           <InterpolatingParam id="11844" interp="linr"  time="-9999999/1" value="0" leadInLength="0/1"  />
          </VectorParam>
          <VectorParam id="11845"  name="rotation">
           <InterpolatingParam id="11846" interp="linr"  time="-9999999/1" value="0" leadInLength="0/1"  />
           <InterpolatingParam id="11847" interp="linr"  time="-9999999/1" value="0" leadInLength="0/1"  />
           <InterpolatingParam id="11848" interp="linr"  time="-9999999/1" value="0" leadInLength="0/1"  />
          </VectorParam>
          <VectorParam id="11849"  name="shear">
           <InterpolatingParam id="11850" interp="linr"  time="-9999999/1" value="0" leadInLength="0/1"  />
           <InterpolatingParam id="11851" interp="linr"  time="-9999999/1" value="0" leadInLength="0/1"  />
           <InterpolatingParam id="11852" interp="linr"  time="-9999999/1" value="0" leadInLength="0/1"  />
          </VectorParam>
          <VectorParam id="11853"  name="scale">
           <InterpolatingParam id="11854" interp="linr"  time="-9999999/1" value="0.70638020833348081" leadInLength="0/1"  />
           <InterpolatingParam id="11855" interp="linr"  time="-9999999/1" value="0.70638020833348081" leadInLength="0/1"  />
           <InterpolatingParam id="11856" interp="linr"  time="-9999999/1" value="1" leadInLength="0/1"  />
          </VectorParam>
          <VectorParam id="11857"  name="anchor">
           <InterpolatingParam id="11858" interp="linr"  time="0/1" value="0" leadInLength="0/1"  />
           <InterpolatingParam id="11859" interp="linr"  time="0/1" value="0" leadInLength="0/1"  />
           <InterpolatingParam id="11860" interp="linr"  time="0/1" value="0" leadInLength="0/1"  />
          </VectorParam>
         </Transformer>
         <Parameters>
          <VectorParam id="11861"  name="sourceCrop">
           <InterpolatingParam id="11862" interp="linr"  time="0/1" value="0" leadInLength="0/1"  />
           <InterpolatingParam id="11863" interp="linr"  time="0/1" value="0" leadInLength="0/1"  />
           <InterpolatingParam id="11864" interp="linr"  time="0/1" value="0" leadInLength="0/1"  />
           <InterpolatingParam id="11865" interp="linr"  time="0/1" value="0" leadInLength="0/1"  />
          </VectorParam>
          <VectorParam id="11866"  name="geometryCrop">
           <InterpolatingParam id="11867" interp="linr"  time="-9999999/1" value="0" leadInLength="0/1"  />
           <InterpolatingParam id="11868" interp="linr"  time="-9999999/1" value="0" leadInLength="0/1"  />
           <InterpolatingParam id="11869" interp="linr"  time="-9999999/1" value="0" leadInLength="0/1"  />
           <InterpolatingParam id="11870" interp="linr"  time="-9999999/1" value="0" leadInLength="0/1"  />
          </VectorParam>
          <InterpolatingParam id="11871" interp="linr"  time="-9999999/1" value="1" leadInLength="0/1"  name="opacity"/>
         </Parameters>
         <Attributes>
          <Attribute id="11872" value="" name="ident"/>
         </Attributes>
         <MetaData>
          <entry key="WinSubProjectDisplayName" val=""/>
         </MetaData>
         <ExtraData>
          <Entry key="ZoomPanBin">
           <ZoomPanBin id="11873"  >
            <ZoomPanKeyframes>
             <ZoomPanKeyframe id="11874" timeRangeEnd="-9999999/1" timeRangeDuration="0/1" interpolaterName="linr"  />
            </ZoomPanKeyframes>
           </ZoomPanBin>
          </Entry>
         </ExtraData>
        </IMFile>
        <UnifiedMedia id="11875"  >
         <AudioTransition id="11876" start="4581" duration="45" >
          <Parameters>
           <InterpolatingParam id="11877" interp="linr"  time="0/1" value="1" leadInLength="0/1"  name="volume"/>
           <Parameter id="11878"  name="captions"/>
          </Parameters>
          <Effects>
           <GenericEffect id="11879" name = "AudioTransition" >
            <Parameters>
            <Parameter id="11880"   name="audioEdgeModType">
             <Keyframes>
             <Keyframe id="11881"  time="0/1" value="0" leadInLength="0/1"  />
             </Keyframes>
            </Parameter>
            <Parameter id="11882"   name="audioTransitionType">
             <Keyframes>
             <Keyframe id="11883"  time="0/1" value="" leadInLength="0/1"  />
             </Keyframes>
            </Parameter>
            </Parameters>
            <MetaData>
            </MetaData>
           </GenericEffect>
          </Effects>
          <Attributes>
           <Attribute id="11884" value="" name="ident"/>
           <Attribute id="11885" value="0" name="sampleRate"/>
           <Attribute id="11886" value="0" name="bitDepth"/>
           <Attribute id="11887" value="1" name="gain"/>
           <Attribute id="11888" value="0" name="mixToMono"/>
          </Attributes>
         </AudioTransition>
         <ImageTransition id="11889" start="4581" duration="45" >
          <Transformer>
           <VectorParam id="11890"  name="translation">
            <InterpolatingParam id="11891" interp="linr"  time="0/1" value="0" leadInLength="0/1"  />
            <InterpolatingParam id="11892" interp="linr"  time="0/1" value="0" leadInLength="0/1"  />
            <InterpolatingParam id="11893" interp="linr"  time="0/1" value="0" leadInLength="0/1"  />
           </VectorParam>
           <VectorParam id="11894"  name="rotation">
            <InterpolatingParam id="11895" interp="linr"  time="0/1" value="0" leadInLength="0/1"  />
            <InterpolatingParam id="11896" interp="linr"  time="0/1" value="0" leadInLength="0/1"  />
            <InterpolatingParam id="11897" interp="linr"  time="0/1" value="0" leadInLength="0/1"  />
           </VectorParam>
           <VectorParam id="11898"  name="shear">
            <InterpolatingParam id="11899" interp="linr"  time="0/1" value="0" leadInLength="0/1"  />
            <InterpolatingParam id="11900" interp="linr"  time="0/1" value="0" leadInLength="0/1"  />
            <InterpolatingParam id="11901" interp="linr"  time="0/1" value="0" leadInLength="0/1"  />
           </VectorParam>
           <VectorParam id="11902"  name="scale">
            <InterpolatingParam id="11903" interp="linr"  time="0/1" value="1" leadInLength="0/1"  />
            <InterpolatingParam id="11904" interp="linr"  time="0/1" value="1" leadInLength="0/1"  />
            <InterpolatingParam id="11905" interp="linr"  time="0/1" value="1" leadInLength="0/1"  />
           </VectorParam>
           <VectorParam id="11906"  name="anchor">
            <InterpolatingParam id="11907" interp="linr"  time="0/1" value="0" leadInLength="0/1"  />
            <InterpolatingParam id="11908" interp="linr"  time="0/1" value="0" leadInLength="0/1"  />
            <InterpolatingParam id="11909" interp="linr"  time="0/1" value="0" leadInLength="0/1"  />
           </VectorParam>
          </Transformer>
          <Parameters>
           <VectorParam id="11910"  name="sourceCrop">
            <InterpolatingParam id="11911" interp="linr"  time="0/1" value="0" leadInLength="0/1"  />
            <InterpolatingParam id="11912" interp="linr"  time="0/1" value="0" leadInLength="0/1"  />
            <InterpolatingParam id="11913" interp="linr"  time="0/1" value="0" leadInLength="0/1"  />
            <InterpolatingParam id="11914" interp="linr"  time="0/1" value="0" leadInLength="0/1"  />
           </VectorParam>
           <VectorParam id="11915"  name="geometryCrop">
            <InterpolatingParam id="11916" interp="linr"  time="0/1" value="0" leadInLength="0/1"  />
            <InterpolatingParam id="11917" interp="linr"  time="0/1" value="0" leadInLength="0/1"  />
            <InterpolatingParam id="11918" interp="linr"  time="0/1" value="0" leadInLength="0/1"  />
            <InterpolatingParam id="11919" interp="linr"  time="0/1" value="0" leadInLength="0/1"  />
           </VectorParam>
           <InterpolatingParam id="11920" interp="linr"  time="0/1" value="1" leadInLength="0/1"  name="opacity"/>
          </Parameters>
          <Effects>
           <GenericEffect id="11921" name = "VisualTransition" >
            <Parameters>
            <InterpolatingParam id="11922" interp="linr"  time="0/1" value="0.5" leadInLength="0/1"   name="leftFramePercentage"/>
            <InterpolatingParam id="11923" interp="linr"  time="0/1" value="0.5" leadInLength="0/1"   name="rightFramePercentage"/>
            <Parameter id="11924"   name="visualEdgeModType">
             <Keyframes>
             <Keyframe id="11925"  time="0/1" value="1" leadInLength="0/1"  />
             </Keyframes>
            </Parameter>
            <Parameter id="11926"   name="visualTransitionType">
             <Keyframes>
             <Keyframe id="11927"  time="0/1" value="RandomDissolve" leadInLength="0/1"  />
             </Keyframes>
            </Parameter>
            </Parameters>
            <MetaData>
            </MetaData>
           </GenericEffect>
          </Effects>
          <Attributes>
           <Attribute id="11928" value="" name="ident"/>
          </Attributes>
          <ExtraData>
           <Entry key="ZoomPanBin">
            <ZoomPanBin id="11929"  >
             <ZoomPanKeyframes>
             </ZoomPanKeyframes>
            </ZoomPanBin>
           </Entry>
          </ExtraData>
         </ImageTransition>
         <MetaData>
          <entry key="WinSubProjectDisplayName" val=""/>
         </MetaData>
        </UnifiedMedia>
        <IMFile id="11930" start="4626" duration="300" scalar="1/1" mediaStart="0/1" mediaDuration="1/1" trackNumber="0" src="6" trimStartSum="63/1" >
         <Transformer>
          <VectorParam id="11931"  name="translation">
           <InterpolatingParam id="11932" interp="linr"  >
            <Keyframes>
            <Keyframe id="11933"  time="-9999999/1" value="521.42857142938681" leadInLength="0/1"  />
            <Keyframe id="11934"  time="357/1" value="362.00000000016877" leadInLength="60/1"  interpolater="leadin-linr"  />
            <Keyframe id="11935"  time="460/1" value="1274.7194878408757" leadInLength="10/1"  interpolater="leadin-linr"  />
            </Keyframes>
           </InterpolatingParam>
           <InterpolatingParam id="11936" interp="linr"  >
            <Keyframes>
            <Keyframe id="11937"  time="-9999999/1" value="-1.6666666666238461" leadInLength="0/1"  />
            <Keyframe id="11938"  time="357/1" value="-1.9999999998030056" leadInLength="60/1"  interpolater="leadin-linr"  />
            <Keyframe id="11939"  time="460/1" value="-281.90327473946309" leadInLength="10/1"  interpolater="leadin-linr"  />
            </Keyframes>
           </InterpolatingParam>
           <InterpolatingParam id="11940" interp="linr"  >
            <Keyframes>
            <Keyframe id="11941"  time="-9999999/1" value="-3.4106051316482886e-010" leadInLength="0/1"  />
            <Keyframe id="11942"  time="357/1" value="3.380153300116278e-010" leadInLength="60/1"  interpolater="leadin-linr"  />
            <Keyframe id="11943"  time="460/1" value="3.3801533001168358e-010" leadInLength="10/1"  interpolater="leadin-linr"  />
            </Keyframes>
           </InterpolatingParam>
          </VectorParam>
          <VectorParam id="11944"  name="rotation">
           <InterpolatingParam id="11945" interp="linr"  >
            <Keyframes>
            <Keyframe id="11946"  time="-9999999/1" value="0" leadInLength="0/1"  />
            <Keyframe id="11947"  time="357/1" value="0" leadInLength="60/1"  interpolater="leadin-linr"  />
            <Keyframe id="11948"  time="460/1" value="0" leadInLength="10/1"  interpolater="leadin-linr"  />
            </Keyframes>
           </InterpolatingParam>
           <InterpolatingParam id="11949" interp="linr"  >
            <Keyframes>
            <Keyframe id="11950"  time="-9999999/1" value="0" leadInLength="0/1"  />
            <Keyframe id="11951"  time="357/1" value="0" leadInLength="60/1"  interpolater="leadin-linr"  />
            <Keyframe id="11952"  time="460/1" value="0" leadInLength="10/1"  interpolater="leadin-linr"  />
            </Keyframes>
           </InterpolatingParam>
           <InterpolatingParam id="11953" interp="linr"  >
            <Keyframes>
            <Keyframe id="11954"  time="-9999999/1" value="0" leadInLength="0/1"  />
            <Keyframe id="11955"  time="357/1" value="0" leadInLength="60/1"  interpolater="leadin-linr"  />
            <Keyframe id="11956"  time="460/1" value="0" leadInLength="10/1"  interpolater="leadin-linr"  />
            </Keyframes>
           </InterpolatingParam>
          </VectorParam>
          <VectorParam id="11957"  name="shear">
           <InterpolatingParam id="11958" interp="linr"  >
            <Keyframes>
            <Keyframe id="11959"  time="-9999999/1" value="0" leadInLength="0/1"  />
            <Keyframe id="11960"  time="357/1" value="0" leadInLength="60/1"  interpolater="leadin-linr"  />
            <Keyframe id="11961"  time="460/1" value="0" leadInLength="10/1"  interpolater="leadin-linr"  />
            </Keyframes>
           </InterpolatingParam>
           <InterpolatingParam id="11962" interp="linr"  >
            <Keyframes>
            <Keyframe id="11963"  time="-9999999/1" value="0" leadInLength="0/1"  />
            <Keyframe id="11964"  time="357/1" value="0" leadInLength="60/1"  interpolater="leadin-linr"  />
            <Keyframe id="11965"  time="460/1" value="0" leadInLength="10/1"  interpolater="leadin-linr"  />
            </Keyframes>
           </InterpolatingParam>
           <InterpolatingParam id="11966" interp="linr"  >
            <Keyframes>
            <Keyframe id="11967"  time="-9999999/1" value="0" leadInLength="0/1"  />
            <Keyframe id="11968"  time="357/1" value="0" leadInLength="60/1"  interpolater="leadin-linr"  />
            <Keyframe id="11969"  time="460/1" value="0" leadInLength="10/1"  interpolater="leadin-linr"  />
            </Keyframes>
           </InterpolatingParam>
          </VectorParam>
          <VectorParam id="11970"  name="scale">
           <InterpolatingParam id="11971" interp="linr"  >
            <Keyframes>
            <Keyframe id="11972"  time="-9999999/1" value="0.70312500000013956" leadInLength="0/1"  />
            <Keyframe id="11973"  time="357/1" value="0.70703124999994305" leadInLength="60/1"  interpolater="leadin-linr"  />
            <Keyframe id="11974"  time="460/1" value="1.2537173334752911" leadInLength="10/1"  interpolater="leadin-linr"  />
            </Keyframes>
           </InterpolatingParam>
           <InterpolatingParam id="11975" interp="linr"  >
            <Keyframes>
            <Keyframe id="11976"  time="-9999999/1" value="0.70312500000013956" leadInLength="0/1"  />
            <Keyframe id="11977"  time="357/1" value="0.70703124999994305" leadInLength="60/1"  interpolater="leadin-linr"  />
            <Keyframe id="11978"  time="460/1" value="1.2537173334752911" leadInLength="10/1"  interpolater="leadin-linr"  />
            </Keyframes>
           </InterpolatingParam>
           <InterpolatingParam id="11979" interp="linr"  >
            <Keyframes>
            <Keyframe id="11980"  time="-9999999/1" value="1" leadInLength="0/1"  />
            <Keyframe id="11981"  time="357/1" value="1" leadInLength="60/1"  interpolater="leadin-linr"  />
            <Keyframe id="11982"  time="460/1" value="0.99999999999999978" leadInLength="10/1"  interpolater="leadin-linr"  />
            </Keyframes>
           </InterpolatingParam>
          </VectorParam>
          <VectorParam id="11983"  name="anchor">
           <InterpolatingParam id="11984" interp="linr"  time="0/1" value="0" leadInLength="0/1"  />
           <InterpolatingParam id="11985" interp="linr"  time="0/1" value="0" leadInLength="0/1"  />
           <InterpolatingParam id="11986" interp="linr"  time="0/1" value="0" leadInLength="0/1"  />
          </VectorParam>
         </Transformer>
         <Parameters>
          <VectorParam id="11987"  name="sourceCrop">
           <InterpolatingParam id="11988" interp="linr"  time="0/1" value="0" leadInLength="0/1"  />
           <InterpolatingParam id="11989" interp="linr"  time="0/1" value="0" leadInLength="0/1"  />
           <InterpolatingParam id="11990" interp="linr"  time="0/1" value="0" leadInLength="0/1"  />
           <InterpolatingParam id="11991" interp="linr"  time="0/1" value="0" leadInLength="0/1"  />
          </VectorParam>
          <VectorParam id="11992"  name="geometryCrop">
           <InterpolatingParam id="11993" interp="linr"  >
            <Keyframes>
            <Keyframe id="11994"  time="-9999999/1" value="0" leadInLength="0/1"  />
            <Keyframe id="11995"  time="357/1" value="0" leadInLength="60/1"  interpolater="leadin-linr"  />
            <Keyframe id="11996"  time="460/1" value="0" leadInLength="10/1"  interpolater="leadin-linr"  />
            </Keyframes>
           </InterpolatingParam>
           <InterpolatingParam id="11997" interp="linr"  >
            <Keyframes>
            <Keyframe id="11998"  time="-9999999/1" value="0" leadInLength="0/1"  />
            <Keyframe id="11999"  time="357/1" value="0" leadInLength="60/1"  interpolater="leadin-linr"  />
            <Keyframe id="12000"  time="460/1" value="0" leadInLength="10/1"  interpolater="leadin-linr"  />
            </Keyframes>
           </InterpolatingParam>
           <InterpolatingParam id="12001" interp="linr"  >
            <Keyframes>
            <Keyframe id="12002"  time="-9999999/1" value="0" leadInLength="0/1"  />
            <Keyframe id="12003"  time="357/1" value="0" leadInLength="60/1"  interpolater="leadin-linr"  />
            <Keyframe id="12004"  time="460/1" value="0" leadInLength="10/1"  interpolater="leadin-linr"  />
            </Keyframes>
           </InterpolatingParam>
           <InterpolatingParam id="12005" interp="linr"  >
            <Keyframes>
            <Keyframe id="12006"  time="-9999999/1" value="0" leadInLength="0/1"  />
            <Keyframe id="12007"  time="357/1" value="0" leadInLength="60/1"  interpolater="leadin-linr"  />
            <Keyframe id="12008"  time="460/1" value="0" leadInLength="10/1"  interpolater="leadin-linr"  />
            </Keyframes>
           </InterpolatingParam>
          </VectorParam>
          <InterpolatingParam id="12009" interp="linr"  name="opacity">
           <Keyframes>
           <Keyframe id="12010"  time="-9999999/1" value="1" leadInLength="0/1"  />
           <Keyframe id="12011"  time="357/1" value="1" leadInLength="60/1"  interpolater="leadin-linr"  />
           <Keyframe id="12012"  time="460/1" value="1" leadInLength="10/1"  interpolater="leadin-linr"  />
           </Keyframes>
          </InterpolatingParam>
         </Parameters>
         <Attributes>
          <Attribute id="12013" value="" name="ident"/>
         </Attributes>
         <MetaData>
          <entry key="WinSubProjectDisplayName" val=""/>
         </MetaData>
         <ExtraData>
          <Entry key="ZoomPanBin">
           <ZoomPanBin id="12014"  >
            <ZoomPanKeyframes>
             <ZoomPanKeyframe id="12015" timeRangeEnd="-9999999/1" timeRangeDuration="0/1" interpolaterName="linr"  />
             <ZoomPanKeyframe id="12016" timeRangeEnd="357/1" timeRangeDuration="60/1" interpolaterName="linr"  />
             <ZoomPanKeyframe id="12017" timeRangeEnd="460/1" timeRangeDuration="10/1" interpolaterName="linr"  />
            </ZoomPanKeyframes>
           </ZoomPanBin>
          </Entry>
         </ExtraData>
        </IMFile>
        <IMFile id="12018" start="4981" duration="298" scalar="1/1" mediaStart="0/1" mediaDuration="1/1" trackNumber="0" src="12" trimStartSum="0/1" >
         <Transformer>
          <VectorParam id="12019"  name="translation">
           <InterpolatingParam id="12020" interp="linr"  >
            <Keyframes>
            <Keyframe id="12021"  time="-9999999/1" value="348.09160305338963" leadInLength="0/1"  />
            <Keyframe id="12022"  time="355/1" value="395.72519083966904" leadInLength="23/1"  interpolater="leadin-linr"  />
            <Keyframe id="12023"  time="356/1" value="348.09160305338963" leadInLength="1/1"  interpolater="leadin-linr"  />
            <Keyframe id="12024"  time="968/1" value="916.62299999999993" leadInLength="96/1"  interpolater="leadin-linr"  />
            </Keyframes>
           </InterpolatingParam>
           <InterpolatingParam id="12025" interp="linr"  >
            <Keyframes>
            <Keyframe id="12026"  time="-9999999/1" value="-2.7424257309495393e-011" leadInLength="0/1"  />
            <Keyframe id="12027"  time="355/1" value="-47.63358778630684" leadInLength="23/1"  interpolater="leadin-linr"  />
            <Keyframe id="12028"  time="356/1" value="-2.7424257309495393e-011" leadInLength="1/1"  interpolater="leadin-linr"  />
            <Keyframe id="12029"  time="968/1" value="4.0961668980579131e-011" leadInLength="96/1"  interpolater="leadin-linr"  />
            </Keyframes>
           </InterpolatingParam>
           <InterpolatingParam id="12030" interp="linr"  >
            <Keyframes>
            <Keyframe id="12031"  time="-9999999/1" value="-3.4106051316488547e-010" leadInLength="0/1"  />
            <Keyframe id="12032"  time="355/1" value="-3.4106051316488547e-010" leadInLength="23/1"  interpolater="leadin-linr"  />
            <Keyframe id="12033"  time="356/1" value="-3.4106051316488547e-010" leadInLength="1/1"  interpolater="leadin-linr"  />
            <Keyframe id="12034"  time="968/1" value="-1.0262265131648857e-009" leadInLength="96/1"  interpolater="leadin-linr"  />
            </Keyframes>
           </InterpolatingParam>
          </VectorParam>
          <VectorParam id="12035"  name="rotation">
           <InterpolatingParam id="12036" interp="linr"  >
            <Keyframes>
            <Keyframe id="12037"  time="-9999999/1" value="0" leadInLength="0/1"  />
            <Keyframe id="12038"  time="355/1" value="0" leadInLength="23/1"  interpolater="leadin-linr"  />
            <Keyframe id="12039"  time="356/1" value="0" leadInLength="1/1"  interpolater="leadin-linr"  />
            <Keyframe id="12040"  time="968/1" value="0" leadInLength="96/1"  interpolater="leadin-linr"  />
            </Keyframes>
           </InterpolatingParam>
           <InterpolatingParam id="12041" interp="linr"  >
            <Keyframes>
            <Keyframe id="12042"  time="-9999999/1" value="0" leadInLength="0/1"  />
            <Keyframe id="12043"  time="355/1" value="0" leadInLength="23/1"  interpolater="leadin-linr"  />
            <Keyframe id="12044"  time="356/1" value="0" leadInLength="1/1"  interpolater="leadin-linr"  />
            <Keyframe id="12045"  time="968/1" value="0" leadInLength="96/1"  interpolater="leadin-linr"  />
            </Keyframes>
           </InterpolatingParam>
           <InterpolatingParam id="12046" interp="linr"  >
            <Keyframes>
            <Keyframe id="12047"  time="-9999999/1" value="0" leadInLength="0/1"  />
            <Keyframe id="12048"  time="355/1" value="0" leadInLength="23/1"  interpolater="leadin-linr"  />
            <Keyframe id="12049"  time="356/1" value="0" leadInLength="1/1"  interpolater="leadin-linr"  />
            <Keyframe id="12050"  time="968/1" value="0" leadInLength="96/1"  interpolater="leadin-linr"  />
            </Keyframes>
           </InterpolatingParam>
          </VectorParam>
          <VectorParam id="12051"  name="shear">
           <InterpolatingParam id="12052" interp="linr"  >
            <Keyframes>
            <Keyframe id="12053"  time="-9999999/1" value="0" leadInLength="0/1"  />
            <Keyframe id="12054"  time="355/1" value="0" leadInLength="23/1"  interpolater="leadin-linr"  />
            <Keyframe id="12055"  time="356/1" value="0" leadInLength="1/1"  interpolater="leadin-linr"  />
            <Keyframe id="12056"  time="968/1" value="0" leadInLength="96/1"  interpolater="leadin-linr"  />
            </Keyframes>
           </InterpolatingParam>
           <InterpolatingParam id="12057" interp="linr"  >
            <Keyframes>
            <Keyframe id="12058"  time="-9999999/1" value="0" leadInLength="0/1"  />
            <Keyframe id="12059"  time="355/1" value="0" leadInLength="23/1"  interpolater="leadin-linr"  />
            <Keyframe id="12060"  time="356/1" value="0" leadInLength="1/1"  interpolater="leadin-linr"  />
            <Keyframe id="12061"  time="968/1" value="0" leadInLength="96/1"  interpolater="leadin-linr"  />
            </Keyframes>
           </InterpolatingParam>
           <InterpolatingParam id="12062" interp="linr"  >
            <Keyframes>
            <Keyframe id="12063"  time="-9999999/1" value="0" leadInLength="0/1"  />
            <Keyframe id="12064"  time="355/1" value="0" leadInLength="23/1"  interpolater="leadin-linr"  />
            <Keyframe id="12065"  time="356/1" value="0" leadInLength="1/1"  interpolater="leadin-linr"  />
            <Keyframe id="12066"  time="968/1" value="0" leadInLength="96/1"  interpolater="leadin-linr"  />
            </Keyframes>
           </InterpolatingParam>
          </VectorParam>
          <VectorParam id="12067"  name="scale">
           <InterpolatingParam id="12068" interp="linr"  >
            <Keyframes>
            <Keyframe id="12069"  time="-9999999/1" value="0.70312499999996725" leadInLength="0/1"  />
            <Keyframe id="12070"  time="355/1" value="0.61009064885489028" leadInLength="23/1"  interpolater="leadin-linr"  />
            <Keyframe id="12071"  time="356/1" value="0.70312499999996725" leadInLength="1/1"  interpolater="leadin-linr"  />
            <Keyframe id="12072"  time="968/1" value="0.703125" leadInLength="96/1"  interpolater="leadin-linr"  />
            </Keyframes>
           </InterpolatingParam>
           <InterpolatingParam id="12073" interp="linr"  >
            <Keyframes>
            <Keyframe id="12074"  time="-9999999/1" value="0.70312499999996725" leadInLength="0/1"  />
            <Keyframe id="12075"  time="355/1" value="0.61009064885489028" leadInLength="23/1"  interpolater="leadin-linr"  />
            <Keyframe id="12076"  time="356/1" value="0.70312499999996725" leadInLength="1/1"  interpolater="leadin-linr"  />
            <Keyframe id="12077"  time="968/1" value="0.703125" leadInLength="96/1"  interpolater="leadin-linr"  />
            </Keyframes>
           </InterpolatingParam>
           <InterpolatingParam id="12078" interp="linr"  >
            <Keyframes>
            <Keyframe id="12079"  time="-9999999/1" value="1" leadInLength="0/1"  />
            <Keyframe id="12080"  time="355/1" value="1" leadInLength="23/1"  interpolater="leadin-linr"  />
            <Keyframe id="12081"  time="356/1" value="1" leadInLength="1/1"  interpolater="leadin-linr"  />
            <Keyframe id="12082"  time="968/1" value="1" leadInLength="96/1"  interpolater="leadin-linr"  />
            </Keyframes>
           </InterpolatingParam>
          </VectorParam>
          <VectorParam id="12083"  name="anchor">
           <InterpolatingParam id="12084" interp="linr"  time="0/1" value="0" leadInLength="0/1"  />
           <InterpolatingParam id="12085" interp="linr"  time="0/1" value="0" leadInLength="0/1"  />
           <InterpolatingParam id="12086" interp="linr"  time="0/1" value="0" leadInLength="0/1"  />
          </VectorParam>
         </Transformer>
         <Parameters>
          <VectorParam id="12087"  name="sourceCrop">
           <InterpolatingParam id="12088" interp="linr"  time="0/1" value="0" leadInLength="0/1"  />
           <InterpolatingParam id="12089" interp="linr"  time="0/1" value="0" leadInLength="0/1"  />
           <InterpolatingParam id="12090" interp="linr"  time="0/1" value="0" leadInLength="0/1"  />
           <InterpolatingParam id="12091" interp="linr"  time="0/1" value="0" leadInLength="0/1"  />
          </VectorParam>
          <VectorParam id="12092"  name="geometryCrop">
           <InterpolatingParam id="12093" interp="linr"  >
            <Keyframes>
            <Keyframe id="12094"  time="-9999999/1" value="0" leadInLength="0/1"  />
            <Keyframe id="12095"  time="355/1" value="0" leadInLength="23/1"  interpolater="leadin-linr"  />
            <Keyframe id="12096"  time="356/1" value="0" leadInLength="1/1"  interpolater="leadin-linr"  />
            <Keyframe id="12097"  time="968/1" value="0" leadInLength="96/1"  interpolater="leadin-linr"  />
            </Keyframes>
           </InterpolatingParam>
           <InterpolatingParam id="12098" interp="linr"  >
            <Keyframes>
            <Keyframe id="12099"  time="-9999999/1" value="0" leadInLength="0/1"  />
            <Keyframe id="12100"  time="355/1" value="0" leadInLength="23/1"  interpolater="leadin-linr"  />
            <Keyframe id="12101"  time="356/1" value="0" leadInLength="1/1"  interpolater="leadin-linr"  />
            <Keyframe id="12102"  time="968/1" value="0" leadInLength="96/1"  interpolater="leadin-linr"  />
            </Keyframes>
           </InterpolatingParam>
           <InterpolatingParam id="12103" interp="linr"  >
            <Keyframes>
            <Keyframe id="12104"  time="-9999999/1" value="0" leadInLength="0/1"  />
            <Keyframe id="12105"  time="355/1" value="0" leadInLength="23/1"  interpolater="leadin-linr"  />
            <Keyframe id="12106"  time="356/1" value="0" leadInLength="1/1"  interpolater="leadin-linr"  />
            <Keyframe id="12107"  time="968/1" value="0" leadInLength="96/1"  interpolater="leadin-linr"  />
            </Keyframes>
           </InterpolatingParam>
           <InterpolatingParam id="12108" interp="linr"  >
            <Keyframes>
            <Keyframe id="12109"  time="-9999999/1" value="0" leadInLength="0/1"  />
            <Keyframe id="12110"  time="355/1" value="0" leadInLength="23/1"  interpolater="leadin-linr"  />
            <Keyframe id="12111"  time="356/1" value="0" leadInLength="1/1"  interpolater="leadin-linr"  />
            <Keyframe id="12112"  time="968/1" value="0" leadInLength="96/1"  interpolater="leadin-linr"  />
            </Keyframes>
           </InterpolatingParam>
          </VectorParam>
          <InterpolatingParam id="12113" interp="linr"  name="opacity">
           <Keyframes>
           <Keyframe id="12114"  time="-9999999/1" value="1" leadInLength="0/1"  />
           <Keyframe id="12115"  time="355/1" value="1" leadInLength="23/1"  interpolater="leadin-linr"  />
           <Keyframe id="12116"  time="356/1" value="1" leadInLength="1/1"  interpolater="leadin-linr"  />
           <Keyframe id="12117"  time="968/1" value="1" leadInLength="96/1"  interpolater="leadin-linr"  />
           </Keyframes>
          </InterpolatingParam>
         </Parameters>
         <Attributes>
          <Attribute id="12118" value="" name="ident"/>
         </Attributes>
         <MetaData>
          <entry key="WinSubProjectDisplayName" val=""/>
         </MetaData>
         <ExtraData>
          <Entry key="ZoomPanBin">
           <ZoomPanBin id="12119"  >
            <ZoomPanKeyframes>
             <ZoomPanKeyframe id="12120" timeRangeEnd="-9999999/1" timeRangeDuration="0/1" interpolaterName="linr"  />
             <ZoomPanKeyframe id="12121" timeRangeEnd="968/1" timeRangeDuration="96/1" interpolaterName="linr"  />
             <ZoomPanKeyframe id="12122" timeRangeEnd="356/1" timeRangeDuration="1/1" interpolaterName="linr"  />
             <ZoomPanKeyframe id="12123" timeRangeEnd="355/1" timeRangeDuration="23/1" interpolaterName="linr"  />
            </ZoomPanKeyframes>
           </ZoomPanBin>
          </Entry>
         </ExtraData>
        </IMFile>
        <UnifiedMedia id="12124"  >
         <AudioTransition id="12125" start="5279" duration="58" >
          <Parameters>
           <InterpolatingParam id="12126" interp="linr"  time="0/1" value="1" leadInLength="0/1"  name="volume"/>
           <Parameter id="12127"  name="captions"/>
          </Parameters>
          <Effects>
           <GenericEffect id="12128" name = "AudioTransition" >
            <Parameters>
            <Parameter id="12129"   name="audioEdgeModType">
             <Keyframes>
             <Keyframe id="12130"  time="0/1" value="0" leadInLength="0/1"  />
             </Keyframes>
            </Parameter>
            <Parameter id="12131"   name="audioTransitionType">
             <Keyframes>
             <Keyframe id="12132"  time="0/1" value="" leadInLength="0/1"  />
             </Keyframes>
            </Parameter>
            </Parameters>
            <MetaData>
            </MetaData>
           </GenericEffect>
          </Effects>
          <Attributes>
           <Attribute id="12133" value="" name="ident"/>
           <Attribute id="12134" value="0" name="sampleRate"/>
           <Attribute id="12135" value="0" name="bitDepth"/>
           <Attribute id="12136" value="1" name="gain"/>
           <Attribute id="12137" value="0" name="mixToMono"/>
          </Attributes>
         </AudioTransition>
         <ImageTransition id="12138" start="5279" duration="58" >
          <Transformer>
           <VectorParam id="12139"  name="translation">
            <InterpolatingParam id="12140" interp="linr"  time="0/1" value="0" leadInLength="0/1"  />
            <InterpolatingParam id="12141" interp="linr"  time="0/1" value="0" leadInLength="0/1"  />
            <InterpolatingParam id="12142" interp="linr"  time="0/1" value="0" leadInLength="0/1"  />
           </VectorParam>
           <VectorParam id="12143"  name="rotation">
            <InterpolatingParam id="12144" interp="linr"  time="0/1" value="0" leadInLength="0/1"  />
            <InterpolatingParam id="12145" interp="linr"  time="0/1" value="0" leadInLength="0/1"  />
            <InterpolatingParam id="12146" interp="linr"  time="0/1" value="0" leadInLength="0/1"  />
           </VectorParam>
           <VectorParam id="12147"  name="shear">
            <InterpolatingParam id="12148" interp="linr"  time="0/1" value="0" leadInLength="0/1"  />
            <InterpolatingParam id="12149" interp="linr"  time="0/1" value="0" leadInLength="0/1"  />
            <InterpolatingParam id="12150" interp="linr"  time="0/1" value="0" leadInLength="0/1"  />
           </VectorParam>
           <VectorParam id="12151"  name="scale">
            <InterpolatingParam id="12152" interp="linr"  time="0/1" value="1" leadInLength="0/1"  />
            <InterpolatingParam id="12153" interp="linr"  time="0/1" value="1" leadInLength="0/1"  />
            <InterpolatingParam id="12154" interp="linr"  time="0/1" value="1" leadInLength="0/1"  />
           </VectorParam>
           <VectorParam id="12155"  name="anchor">
            <InterpolatingParam id="12156" interp="linr"  time="0/1" value="0" leadInLength="0/1"  />
            <InterpolatingParam id="12157" interp="linr"  time="0/1" value="0" leadInLength="0/1"  />
            <InterpolatingParam id="12158" interp="linr"  time="0/1" value="0" leadInLength="0/1"  />
           </VectorParam>
          </Transformer>
          <Parameters>
           <VectorParam id="12159"  name="sourceCrop">
            <InterpolatingParam id="12160" interp="linr"  time="0/1" value="0" leadInLength="0/1"  />
            <InterpolatingParam id="12161" interp="linr"  time="0/1" value="0" leadInLength="0/1"  />
            <InterpolatingParam id="12162" interp="linr"  time="0/1" value="0" leadInLength="0/1"  />
            <InterpolatingParam id="12163" interp="linr"  time="0/1" value="0" leadInLength="0/1"  />
           </VectorParam>
           <VectorParam id="12164"  name="geometryCrop">
            <InterpolatingParam id="12165" interp="linr"  time="0/1" value="0" leadInLength="0/1"  />
            <InterpolatingParam id="12166" interp="linr"  time="0/1" value="0" leadInLength="0/1"  />
            <InterpolatingParam id="12167" interp="linr"  time="0/1" value="0" leadInLength="0/1"  />
            <InterpolatingParam id="12168" interp="linr"  time="0/1" value="0" leadInLength="0/1"  />
           </VectorParam>
           <InterpolatingParam id="12169" interp="linr"  time="0/1" value="1" leadInLength="0/1"  name="opacity"/>
          </Parameters>
          <Effects>
           <GenericEffect id="12170" name = "VisualTransition" >
            <Parameters>
            <InterpolatingParam id="12171" interp="linr"  time="0/1" value="0.5" leadInLength="0/1"   name="leftFramePercentage"/>
            <InterpolatingParam id="12172" interp="linr"  time="0/1" value="0.5" leadInLength="0/1"   name="rightFramePercentage"/>
            <Parameter id="12173"   name="visualEdgeModType">
             <Keyframes>
             <Keyframe id="12174"  time="0/1" value="2" leadInLength="0/1"  />
             </Keyframes>
            </Parameter>
            <Parameter id="12175"   name="visualTransitionType">
             <Keyframes>
             <Keyframe id="12176"  time="0/1" value="Fade" leadInLength="0/1"  />
             </Keyframes>
            </Parameter>
            </Parameters>
            <MetaData>
            </MetaData>
           </GenericEffect>
          </Effects>
          <Attributes>
           <Attribute id="12177" value="" name="ident"/>
          </Attributes>
          <ExtraData>
           <Entry key="ZoomPanBin">
            <ZoomPanBin id="12178"  >
             <ZoomPanKeyframes>
             </ZoomPanKeyframes>
            </ZoomPanBin>
           </Entry>
          </ExtraData>
         </ImageTransition>
         <MetaData>
          <entry key="WinSubProjectDisplayName" val=""/>
         </MetaData>
        </UnifiedMedia>
        <UnifiedMedia id="12179"  >
         <AudioTransition id="12180" start="5435" duration="30" >
          <Parameters>
           <InterpolatingParam id="12181" interp="linr"  time="0/1" value="1" leadInLength="0/1"  name="volume"/>
           <Parameter id="12182"  name="captions"/>
          </Parameters>
          <Effects>
           <GenericEffect id="12183" name = "AudioTransition" >
            <Parameters>
            <Parameter id="12184"   name="audioEdgeModType">
             <Keyframes>
             <Keyframe id="12185"  time="0/1" value="0" leadInLength="0/1"  />
             </Keyframes>
            </Parameter>
            <Parameter id="12186"   name="audioTransitionType">
             <Keyframes>
             <Keyframe id="12187"  time="0/1" value="" leadInLength="0/1"  />
             </Keyframes>
            </Parameter>
            </Parameters>
            <MetaData>
            </MetaData>
           </GenericEffect>
          </Effects>
          <Attributes>
           <Attribute id="12188" value="" name="ident"/>
           <Attribute id="12189" value="0" name="sampleRate"/>
           <Attribute id="12190" value="0" name="bitDepth"/>
           <Attribute id="12191" value="1" name="gain"/>
           <Attribute id="12192" value="0" name="mixToMono"/>
          </Attributes>
         </AudioTransition>
         <ImageTransition id="12193" start="5435" duration="30" >
          <Transformer>
           <VectorParam id="12194"  name="translation">
            <InterpolatingParam id="12195" interp="linr"  time="0/1" value="0" leadInLength="0/1"  />
            <InterpolatingParam id="12196" interp="linr"  time="0/1" value="0" leadInLength="0/1"  />
            <InterpolatingParam id="12197" interp="linr"  time="0/1" value="0" leadInLength="0/1"  />
           </VectorParam>
           <VectorParam id="12198"  name="rotation">
            <InterpolatingParam id="12199" interp="linr"  time="0/1" value="0" leadInLength="0/1"  />
            <InterpolatingParam id="12200" interp="linr"  time="0/1" value="0" leadInLength="0/1"  />
            <InterpolatingParam id="12201" interp="linr"  time="0/1" value="0" leadInLength="0/1"  />
           </VectorParam>
           <VectorParam id="12202"  name="shear">
            <InterpolatingParam id="12203" interp="linr"  time="0/1" value="0" leadInLength="0/1"  />
            <InterpolatingParam id="12204" interp="linr"  time="0/1" value="0" leadInLength="0/1"  />
            <InterpolatingParam id="12205" interp="linr"  time="0/1" value="0" leadInLength="0/1"  />
           </VectorParam>
           <VectorParam id="12206"  name="scale">
            <InterpolatingParam id="12207" interp="linr"  time="0/1" value="1" leadInLength="0/1"  />
            <InterpolatingParam id="12208" interp="linr"  time="0/1" value="1" leadInLength="0/1"  />
            <InterpolatingParam id="12209" interp="linr"  time="0/1" value="1" leadInLength="0/1"  />
           </VectorParam>
           <VectorParam id="12210"  name="anchor">
            <InterpolatingParam id="12211" interp="linr"  time="0/1" value="0" leadInLength="0/1"  />
            <InterpolatingParam id="12212" interp="linr"  time="0/1" value="0" leadInLength="0/1"  />
            <InterpolatingParam id="12213" interp="linr"  time="0/1" value="0" leadInLength="0/1"  />
           </VectorParam>
          </Transformer>
          <Parameters>
           <VectorParam id="12214"  name="sourceCrop">
            <InterpolatingParam id="12215" interp="linr"  time="0/1" value="0" leadInLength="0/1"  />
            <InterpolatingParam id="12216" interp="linr"  time="0/1" value="0" leadInLength="0/1"  />
            <InterpolatingParam id="12217" interp="linr"  time="0/1" value="0" leadInLength="0/1"  />
            <InterpolatingParam id="12218" interp="linr"  time="0/1" value="0" leadInLength="0/1"  />
           </VectorParam>
           <VectorParam id="12219"  name="geometryCrop">
            <InterpolatingParam id="12220" interp="linr"  time="0/1" value="0" leadInLength="0/1"  />
            <InterpolatingParam id="12221" interp="linr"  time="0/1" value="0" leadInLength="0/1"  />
            <InterpolatingParam id="12222" interp="linr"  time="0/1" value="0" leadInLength="0/1"  />
            <InterpolatingParam id="12223" interp="linr"  time="0/1" value="0" leadInLength="0/1"  />
           </VectorParam>
           <InterpolatingParam id="12224" interp="linr"  time="0/1" value="1" leadInLength="0/1"  name="opacity"/>
          </Parameters>
          <Effects>
           <GenericEffect id="12225" name = "VisualTransition" >
            <Parameters>
            <InterpolatingParam id="12226" interp="linr"  time="0/1" value="0.5" leadInLength="0/1"   name="leftFramePercentage"/>
            <InterpolatingParam id="12227" interp="linr"  time="0/1" value="0.5" leadInLength="0/1"   name="rightFramePercentage"/>
            <Parameter id="12228"   name="visualEdgeModType">
             <Keyframes>
             <Keyframe id="12229"  time="0/1" value="1" leadInLength="0/1"  />
             </Keyframes>
            </Parameter>
            <Parameter id="12230"   name="visualTransitionType">
             <Keyframes>
             <Keyframe id="12231"  time="0/1" value="Fade" leadInLength="0/1"  />
             </Keyframes>
            </Parameter>
            </Parameters>
            <MetaData>
            </MetaData>
           </GenericEffect>
          </Effects>
          <Attributes>
           <Attribute id="12232" value="" name="ident"/>
          </Attributes>
          <ExtraData>
           <Entry key="ZoomPanBin">
            <ZoomPanBin id="12233"  >
             <ZoomPanKeyframes>
             </ZoomPanKeyframes>
            </ZoomPanBin>
           </Entry>
          </ExtraData>
         </ImageTransition>
         <MetaData>
          <entry key="WinSubProjectDisplayName" val=""/>
         </MetaData>
        </UnifiedMedia>
        <IMFile id="12234" start="5465" duration="122" scalar="1/1" mediaStart="0/1" mediaDuration="1/1" trackNumber="0" src="12" trimStartSum="116/1" >
         <Transformer>
          <VectorParam id="12235"  name="translation">
           <InterpolatingParam id="12236" interp="linr"  >
            <Keyframes>
            <Keyframe id="12237"  time="-9999999/1" value="-97.196928389507974" leadInLength="0/1"  />
            <Keyframe id="12238"  time="78/1" value="-414.72688805249243" leadInLength="96/1"  interpolater="leadin-linr"  />
            </Keyframes>
           </InterpolatingParam>
           <InterpolatingParam id="12239" interp="linr"  >
            <Keyframes>
            <Keyframe id="12240"  time="-9999999/1" value="-65.194616900858037" leadInLength="0/1"  />
            <Keyframe id="12241"  time="78/1" value="114.54034896402382" leadInLength="96/1"  interpolater="leadin-linr"  />
            </Keyframes>
           </InterpolatingParam>
           <InterpolatingParam id="12242" interp="linr"  >
            <Keyframes>
            <Keyframe id="12243"  time="-9999999/1" value="0" leadInLength="0/1"  />
            <Keyframe id="12244"  time="78/1" value="0" leadInLength="96/1"  interpolater="leadin-linr"  />
            </Keyframes>
           </InterpolatingParam>
          </VectorParam>
          <VectorParam id="12245"  name="rotation">
           <InterpolatingParam id="12246" interp="linr"  >
            <Keyframes>
            <Keyframe id="12247"  time="-9999999/1" value="0" leadInLength="0/1"  />
            <Keyframe id="12248"  time="78/1" value="0" leadInLength="96/1"  interpolater="leadin-linr"  />
            </Keyframes>
           </InterpolatingParam>
           <InterpolatingParam id="12249" interp="linr"  >
            <Keyframes>
            <Keyframe id="12250"  time="-9999999/1" value="0" leadInLength="0/1"  />
            <Keyframe id="12251"  time="78/1" value="0" leadInLength="96/1"  interpolater="leadin-linr"  />
            </Keyframes>
           </InterpolatingParam>
           <InterpolatingParam id="12252" interp="linr"  >
            <Keyframes>
            <Keyframe id="12253"  time="-9999999/1" value="0" leadInLength="0/1"  />
            <Keyframe id="12254"  time="78/1" value="0" leadInLength="96/1"  interpolater="leadin-linr"  />
            </Keyframes>
           </InterpolatingParam>
          </VectorParam>
          <VectorParam id="12255"  name="shear">
           <InterpolatingParam id="12256" interp="linr"  >
            <Keyframes>
            <Keyframe id="12257"  time="-9999999/1" value="0" leadInLength="0/1"  />
            <Keyframe id="12258"  time="78/1" value="0" leadInLength="96/1"  interpolater="leadin-linr"  />
            </Keyframes>
           </InterpolatingParam>
           <InterpolatingParam id="12259" interp="linr"  >
            <Keyframes>
            <Keyframe id="12260"  time="-9999999/1" value="0" leadInLength="0/1"  />
            <Keyframe id="12261"  time="78/1" value="0" leadInLength="96/1"  interpolater="leadin-linr"  />
            </Keyframes>
           </InterpolatingParam>
           <InterpolatingParam id="12262" interp="linr"  >
            <Keyframes>
            <Keyframe id="12263"  time="-9999999/1" value="0" leadInLength="0/1"  />
            <Keyframe id="12264"  time="78/1" value="0" leadInLength="96/1"  interpolater="leadin-linr"  />
            </Keyframes>
           </InterpolatingParam>
          </VectorParam>
          <VectorParam id="12265"  name="scale">
           <InterpolatingParam id="12266" interp="linr"  >
            <Keyframes>
            <Keyframe id="12267"  time="-9999999/1" value="0.1526797428774776" leadInLength="0/1"  />
            <Keyframe id="12268"  time="78/1" value="0.25277739912748615" leadInLength="96/1"  interpolater="leadin-linr"  />
            </Keyframes>
           </InterpolatingParam>
           <InterpolatingParam id="12269" interp="linr"  >
            <Keyframes>
            <Keyframe id="12270"  time="-9999999/1" value="0.1526797428774776" leadInLength="0/1"  />
            <Keyframe id="12271"  time="78/1" value="0.25277739912748615" leadInLength="96/1"  interpolater="leadin-linr"  />
            </Keyframes>
           </InterpolatingParam>
           <InterpolatingParam id="12272" interp="linr"  >
            <Keyframes>
            <Keyframe id="12273"  time="-9999999/1" value="1" leadInLength="0/1"  />
            <Keyframe id="12274"  time="78/1" value="1" leadInLength="96/1"  interpolater="leadin-linr"  />
            </Keyframes>
           </InterpolatingParam>
          </VectorParam>
          <VectorParam id="12275"  name="anchor">
           <InterpolatingParam id="12276" interp="linr"  time="0/1" value="0" leadInLength="0/1"  />
           <InterpolatingParam id="12277" interp="linr"  time="0/1" value="0" leadInLength="0/1"  />
           <InterpolatingParam id="12278" interp="linr"  time="0/1" value="0" leadInLength="0/1"  />
          </VectorParam>
         </Transformer>
         <Parameters>
          <VectorParam id="12279"  name="sourceCrop">
           <InterpolatingParam id="12280" interp="linr"  time="0/1" value="0" leadInLength="0/1"  />
           <InterpolatingParam id="12281" interp="linr"  time="0/1" value="0" leadInLength="0/1"  />
           <InterpolatingParam id="12282" interp="linr"  time="0/1" value="0" leadInLength="0/1"  />
           <InterpolatingParam id="12283" interp="linr"  time="0/1" value="0" leadInLength="0/1"  />
          </VectorParam>
          <VectorParam id="12284"  name="geometryCrop">
           <InterpolatingParam id="12285" interp="linr"  >
            <Keyframes>
            <Keyframe id="12286"  time="-9999999/1" value="0" leadInLength="0/1"  />
            <Keyframe id="12287"  time="78/1" value="0" leadInLength="96/1"  interpolater="leadin-linr"  />
            </Keyframes>
           </InterpolatingParam>
           <InterpolatingParam id="12288" interp="linr"  >
            <Keyframes>
            <Keyframe id="12289"  time="-9999999/1" value="0" leadInLength="0/1"  />
            <Keyframe id="12290"  time="78/1" value="0" leadInLength="96/1"  interpolater="leadin-linr"  />
            </Keyframes>
           </InterpolatingParam>
           <InterpolatingParam id="12291" interp="linr"  >
            <Keyframes>
            <Keyframe id="12292"  time="-9999999/1" value="0" leadInLength="0/1"  />
            <Keyframe id="12293"  time="78/1" value="0" leadInLength="96/1"  interpolater="leadin-linr"  />
            </Keyframes>
           </InterpolatingParam>
           <InterpolatingParam id="12294" interp="linr"  >
            <Keyframes>
            <Keyframe id="12295"  time="-9999999/1" value="0" leadInLength="0/1"  />
            <Keyframe id="12296"  time="78/1" value="0" leadInLength="96/1"  interpolater="leadin-linr"  />
            </Keyframes>
           </InterpolatingParam>
          </VectorParam>
          <InterpolatingParam id="12297" interp="linr"  name="opacity">
           <Keyframes>
           <Keyframe id="12298"  time="-9999999/1" value="1" leadInLength="0/1"  />
           <Keyframe id="12299"  time="78/1" value="1" leadInLength="96/1"  interpolater="leadin-linr"  />
           </Keyframes>
          </InterpolatingParam>
         </Parameters>
         <Attributes>
          <Attribute id="12300" value="" name="ident"/>
         </Attributes>
         <MetaData>
          <entry key="WinSubProjectDisplayName" val=""/>
         </MetaData>
         <ExtraData>
          <Entry key="ZoomPanBin">
           <ZoomPanBin id="12301"  >
            <ZoomPanKeyframes>
             <ZoomPanKeyframe id="12302" timeRangeEnd="-9999999/1" timeRangeDuration="0/1" interpolaterName="linr"  />
             <ZoomPanKeyframe id="12303" timeRangeEnd="78/1" timeRangeDuration="96/1" interpolaterName="linr"  />
            </ZoomPanKeyframes>
           </ZoomPanBin>
          </Entry>
         </ExtraData>
        </IMFile>
        <UnifiedMedia id="12304"  >
         <AudioTransition id="12305" start="5587" duration="15" >
          <Parameters>
           <InterpolatingParam id="12306" interp="linr"  time="0/1" value="1" leadInLength="0/1"  name="volume"/>
           <Parameter id="12307"  name="captions"/>
          </Parameters>
          <Effects>
           <GenericEffect id="12308" name = "AudioTransition" >
            <Parameters>
            <Parameter id="12309"   name="audioEdgeModType">
             <Keyframes>
             <Keyframe id="12310"  time="0/1" value="0" leadInLength="0/1"  />
             </Keyframes>
            </Parameter>
            <Parameter id="12311"   name="audioTransitionType">
             <Keyframes>
             <Keyframe id="12312"  time="0/1" value="" leadInLength="0/1"  />
             </Keyframes>
            </Parameter>
            </Parameters>
            <MetaData>
            </MetaData>
           </GenericEffect>
          </Effects>
          <Attributes>
           <Attribute id="12313" value="" name="ident"/>
           <Attribute id="12314" value="0" name="sampleRate"/>
           <Attribute id="12315" value="0" name="bitDepth"/>
           <Attribute id="12316" value="1" name="gain"/>
           <Attribute id="12317" value="0" name="mixToMono"/>
          </Attributes>
         </AudioTransition>
         <ImageTransition id="12318" start="5587" duration="15" >
          <Transformer>
           <VectorParam id="12319"  name="translation">
            <InterpolatingParam id="12320" interp="linr"  time="0/1" value="0" leadInLength="0/1"  />
            <InterpolatingParam id="12321" interp="linr"  time="0/1" value="0" leadInLength="0/1"  />
            <InterpolatingParam id="12322" interp="linr"  time="0/1" value="0" leadInLength="0/1"  />
           </VectorParam>
           <VectorParam id="12323"  name="rotation">
            <InterpolatingParam id="12324" interp="linr"  time="0/1" value="0" leadInLength="0/1"  />
            <InterpolatingParam id="12325" interp="linr"  time="0/1" value="0" leadInLength="0/1"  />
            <InterpolatingParam id="12326" interp="linr"  time="0/1" value="0" leadInLength="0/1"  />
           </VectorParam>
           <VectorParam id="12327"  name="shear">
            <InterpolatingParam id="12328" interp="linr"  time="0/1" value="0" leadInLength="0/1"  />
            <InterpolatingParam id="12329" interp="linr"  time="0/1" value="0" leadInLength="0/1"  />
            <InterpolatingParam id="12330" interp="linr"  time="0/1" value="0" leadInLength="0/1"  />
           </VectorParam>
           <VectorParam id="12331"  name="scale">
            <InterpolatingParam id="12332" interp="linr"  time="0/1" value="1" leadInLength="0/1"  />
            <InterpolatingParam id="12333" interp="linr"  time="0/1" value="1" leadInLength="0/1"  />
            <InterpolatingParam id="12334" interp="linr"  time="0/1" value="1" leadInLength="0/1"  />
           </VectorParam>
           <VectorParam id="12335"  name="anchor">
            <InterpolatingParam id="12336" interp="linr"  time="0/1" value="0" leadInLength="0/1"  />
            <InterpolatingParam id="12337" interp="linr"  time="0/1" value="0" leadInLength="0/1"  />
            <InterpolatingParam id="12338" interp="linr"  time="0/1" value="0" leadInLength="0/1"  />
           </VectorParam>
          </Transformer>
          <Parameters>
           <VectorParam id="12339"  name="sourceCrop">
            <InterpolatingParam id="12340" interp="linr"  time="0/1" value="0" leadInLength="0/1"  />
            <InterpolatingParam id="12341" interp="linr"  time="0/1" value="0" leadInLength="0/1"  />
            <InterpolatingParam id="12342" interp="linr"  time="0/1" value="0" leadInLength="0/1"  />
            <InterpolatingParam id="12343" interp="linr"  time="0/1" value="0" leadInLength="0/1"  />
           </VectorParam>
           <VectorParam id="12344"  name="geometryCrop">
            <InterpolatingParam id="12345" interp="linr"  time="0/1" value="0" leadInLength="0/1"  />
            <InterpolatingParam id="12346" interp="linr"  time="0/1" value="0" leadInLength="0/1"  />
            <InterpolatingParam id="12347" interp="linr"  time="0/1" value="0" leadInLength="0/1"  />
            <InterpolatingParam id="12348" interp="linr"  time="0/1" value="0" leadInLength="0/1"  />
           </VectorParam>
           <InterpolatingParam id="12349" interp="linr"  time="0/1" value="1" leadInLength="0/1"  name="opacity"/>
          </Parameters>
          <Effects>
           <GenericEffect id="12350" name = "VisualTransition" >
            <Parameters>
            <InterpolatingParam id="12351" interp="linr"  time="0/1" value="0.5" leadInLength="0/1"   name="leftFramePercentage"/>
            <InterpolatingParam id="12352" interp="linr"  time="0/1" value="0.5" leadInLength="0/1"   name="rightFramePercentage"/>
            <Parameter id="12353"   name="visualEdgeModType">
             <Keyframes>
             <Keyframe id="12354"  time="0/1" value="2" leadInLength="0/1"  />
             </Keyframes>
            </Parameter>
            <Parameter id="12355"   name="visualTransitionType">
             <Keyframes>
             <Keyframe id="12356"  time="0/1" value="Fade" leadInLength="0/1"  />
             </Keyframes>
            </Parameter>
            </Parameters>
            <MetaData>
            </MetaData>
           </GenericEffect>
          </Effects>
          <Attributes>
           <Attribute id="12357" value="" name="ident"/>
          </Attributes>
          <ExtraData>
           <Entry key="ZoomPanBin">
            <ZoomPanBin id="12358"  >
             <ZoomPanKeyframes>
             </ZoomPanKeyframes>
            </ZoomPanBin>
           </Entry>
          </ExtraData>
         </ImageTransition>
         <MetaData>
          <entry key="WinSubProjectDisplayName" val=""/>
         </MetaData>
        </UnifiedMedia>
        <UnifiedMedia id="12359"  >
         <AudioTransition id="12360" start="5983" duration="237" >
          <Parameters>
           <InterpolatingParam id="12361" interp="linr"  time="0/1" value="1" leadInLength="0/1"  name="volume"/>
           <Parameter id="12362"  name="captions"/>
          </Parameters>
          <Effects>
           <GenericEffect id="12363" name = "AudioTransition" >
            <Parameters>
            <Parameter id="12364"   name="audioEdgeModType">
             <Keyframes>
             <Keyframe id="12365"  time="0/1" value="0" leadInLength="0/1"  />
             </Keyframes>
            </Parameter>
            <Parameter id="12366"   name="audioTransitionType">
             <Keyframes>
             <Keyframe id="12367"  time="0/1" value="" leadInLength="0/1"  />
             </Keyframes>
            </Parameter>
            </Parameters>
            <MetaData>
            </MetaData>
           </GenericEffect>
          </Effects>
          <Attributes>
           <Attribute id="12368" value="" name="ident"/>
           <Attribute id="12369" value="0" name="sampleRate"/>
           <Attribute id="12370" value="0" name="bitDepth"/>
           <Attribute id="12371" value="1" name="gain"/>
           <Attribute id="12372" value="0" name="mixToMono"/>
          </Attributes>
         </AudioTransition>
         <ImageTransition id="12373" start="5983" duration="237" >
          <Transformer>
           <VectorParam id="12374"  name="translation">
            <InterpolatingParam id="12375" interp="linr"  time="0/1" value="0" leadInLength="0/1"  />
            <InterpolatingParam id="12376" interp="linr"  time="0/1" value="0" leadInLength="0/1"  />
            <InterpolatingParam id="12377" interp="linr"  time="0/1" value="0" leadInLength="0/1"  />
           </VectorParam>
           <VectorParam id="12378"  name="rotation">
            <InterpolatingParam id="12379" interp="linr"  time="0/1" value="0" leadInLength="0/1"  />
            <InterpolatingParam id="12380" interp="linr"  time="0/1" value="0" leadInLength="0/1"  />
            <InterpolatingParam id="12381" interp="linr"  time="0/1" value="0" leadInLength="0/1"  />
           </VectorParam>
           <VectorParam id="12382"  name="shear">
            <InterpolatingParam id="12383" interp="linr"  time="0/1" value="0" leadInLength="0/1"  />
            <InterpolatingParam id="12384" interp="linr"  time="0/1" value="0" leadInLength="0/1"  />
            <InterpolatingParam id="12385" interp="linr"  time="0/1" value="0" leadInLength="0/1"  />
           </VectorParam>
           <VectorParam id="12386"  name="scale">
            <InterpolatingParam id="12387" interp="linr"  time="0/1" value="1" leadInLength="0/1"  />
            <InterpolatingParam id="12388" interp="linr"  time="0/1" value="1" leadInLength="0/1"  />
            <InterpolatingParam id="12389" interp="linr"  time="0/1" value="1" leadInLength="0/1"  />
           </VectorParam>
           <VectorParam id="12390"  name="anchor">
            <InterpolatingParam id="12391" interp="linr"  time="0/1" value="0" leadInLength="0/1"  />
            <InterpolatingParam id="12392" interp="linr"  time="0/1" value="0" leadInLength="0/1"  />
            <InterpolatingParam id="12393" interp="linr"  time="0/1" value="0" leadInLength="0/1"  />
           </VectorParam>
          </Transformer>
          <Parameters>
           <VectorParam id="12394"  name="sourceCrop">
            <InterpolatingParam id="12395" interp="linr"  time="0/1" value="0" leadInLength="0/1"  />
            <InterpolatingParam id="12396" interp="linr"  time="0/1" value="0" leadInLength="0/1"  />
            <InterpolatingParam id="12397" interp="linr"  time="0/1" value="0" leadInLength="0/1"  />
            <InterpolatingParam id="12398" interp="linr"  time="0/1" value="0" leadInLength="0/1"  />
           </VectorParam>
           <VectorParam id="12399"  name="geometryCrop">
            <InterpolatingParam id="12400" interp="linr"  time="0/1" value="0" leadInLength="0/1"  />
            <InterpolatingParam id="12401" interp="linr"  time="0/1" value="0" leadInLength="0/1"  />
            <InterpolatingParam id="12402" interp="linr"  time="0/1" value="0" leadInLength="0/1"  />
            <InterpolatingParam id="12403" interp="linr"  time="0/1" value="0" leadInLength="0/1"  />
           </VectorParam>
           <InterpolatingParam id="12404" interp="linr"  time="0/1" value="1" leadInLength="0/1"  name="opacity"/>
          </Parameters>
          <Effects>
           <GenericEffect id="12405" name = "VisualTransition" >
            <Parameters>
            <InterpolatingParam id="12406" interp="linr"  time="0/1" value="0.5" leadInLength="0/1"   name="leftFramePercentage"/>
            <InterpolatingParam id="12407" interp="linr"  time="0/1" value="0.5" leadInLength="0/1"   name="rightFramePercentage"/>
            <Parameter id="12408"   name="visualEdgeModType">
             <Keyframes>
             <Keyframe id="12409"  time="0/1" value="1" leadInLength="0/1"  />
             </Keyframes>
            </Parameter>
            <Parameter id="12410"   name="visualTransitionType">
             <Keyframes>
             <Keyframe id="12411"  time="0/1" value="Fade" leadInLength="0/1"  />
             </Keyframes>
            </Parameter>
            </Parameters>
            <MetaData>
            </MetaData>
           </GenericEffect>
          </Effects>
          <Attributes>
           <Attribute id="12412" value="" name="ident"/>
          </Attributes>
          <ExtraData>
           <Entry key="ZoomPanBin">
            <ZoomPanBin id="12413"  >
             <ZoomPanKeyframes>
             </ZoomPanKeyframes>
            </ZoomPanBin>
           </Entry>
          </ExtraData>
         </ImageTransition>
         <MetaData>
          <entry key="WinSubProjectDisplayName" val=""/>
         </MetaData>
        </UnifiedMedia>
        <IMFile id="12414" start="6220" duration="37" scalar="1/1" mediaStart="0/1" mediaDuration="1/1" trackNumber="0" src="14" trimStartSum="108/1" >
         <Transformer>
          <VectorParam id="12415"  name="translation">
           <InterpolatingParam id="12416" interp="linr"  time="-9999999/1" value="238.30788804075581" leadInLength="0/1"  />
           <InterpolatingParam id="12417" interp="linr"  time="-9999999/1" value="17.544529262235987" leadInLength="0/1"  />
           <InterpolatingParam id="12418" interp="linr"  time="-9999999/1" value="0" leadInLength="0/1"  />
          </VectorParam>
          <VectorParam id="12419"  name="rotation">
           <InterpolatingParam id="12420" interp="linr"  time="-9999999/1" value="0" leadInLength="0/1"  />
           <InterpolatingParam id="12421" interp="linr"  time="-9999999/1" value="0" leadInLength="0/1"  />
           <InterpolatingParam id="12422" interp="linr"  time="-9999999/1" value="0" leadInLength="0/1"  />
          </VectorParam>
          <VectorParam id="12423"  name="shear">
           <InterpolatingParam id="12424" interp="linr"  time="-9999999/1" value="0" leadInLength="0/1"  />
           <InterpolatingParam id="12425" interp="linr"  time="-9999999/1" value="0" leadInLength="0/1"  />
           <InterpolatingParam id="12426" interp="linr"  time="-9999999/1" value="0" leadInLength="0/1"  />
          </VectorParam>
          <VectorParam id="12427"  name="scale">
           <InterpolatingParam id="12428" interp="linr"  time="-9999999/1" value="0.28891837627276229" leadInLength="0/1"  />
           <InterpolatingParam id="12429" interp="linr"  time="-9999999/1" value="0.28891837627276229" leadInLength="0/1"  />
           <InterpolatingParam id="12430" interp="linr"  time="-9999999/1" value="1" leadInLength="0/1"  />
          </VectorParam>
          <VectorParam id="12431"  name="anchor">
           <InterpolatingParam id="12432" interp="linr"  time="0/1" value="0" leadInLength="0/1"  />
           <InterpolatingParam id="12433" interp="linr"  time="0/1" value="0" leadInLength="0/1"  />
           <InterpolatingParam id="12434" interp="linr"  time="0/1" value="0" leadInLength="0/1"  />
          </VectorParam>
         </Transformer>
         <Parameters>
          <VectorParam id="12435"  name="sourceCrop">
           <InterpolatingParam id="12436" interp="linr"  time="0/1" value="0" leadInLength="0/1"  />
           <InterpolatingParam id="12437" interp="linr"  time="0/1" value="0" leadInLength="0/1"  />
           <InterpolatingParam id="12438" interp="linr"  time="0/1" value="0" leadInLength="0/1"  />
           <InterpolatingParam id="12439" interp="linr"  time="0/1" value="0" leadInLength="0/1"  />
          </VectorParam>
          <VectorParam id="12440"  name="geometryCrop">
           <InterpolatingParam id="12441" interp="linr"  time="-9999999/1" value="0" leadInLength="0/1"  />
           <InterpolatingParam id="12442" interp="linr"  time="-9999999/1" value="0" leadInLength="0/1"  />
           <InterpolatingParam id="12443" interp="linr"  time="-9999999/1" value="0" leadInLength="0/1"  />
           <InterpolatingParam id="12444" interp="linr"  time="-9999999/1" value="0" leadInLength="0/1"  />
          </VectorParam>
          <InterpolatingParam id="12445" interp="linr"  time="-9999999/1" value="1" leadInLength="0/1"  name="opacity"/>
         </Parameters>
         <Attributes>
          <Attribute id="12446" value="" name="ident"/>
         </Attributes>
         <MetaData>
          <entry key="WinSubProjectDisplayName" val=""/>
         </MetaData>
         <ExtraData>
          <Entry key="ZoomPanBin">
           <ZoomPanBin id="12447"  >
            <ZoomPanKeyframes>
             <ZoomPanKeyframe id="12448" timeRangeEnd="-9999999/1" timeRangeDuration="0/1" interpolaterName="linr"  />
            </ZoomPanKeyframes>
           </ZoomPanBin>
          </Entry>
         </ExtraData>
        </IMFile>
        <UnifiedMedia id="12449"  >
         <AudioTransition id="12450" start="6257" duration="113" >
          <Parameters>
           <InterpolatingParam id="12451" interp="linr"  time="0/1" value="1" leadInLength="0/1"  name="volume"/>
           <Parameter id="12452"  name="captions"/>
          </Parameters>
          <Effects>
           <GenericEffect id="12453" name = "AudioTransition" >
            <Parameters>
            <Parameter id="12454"   name="audioEdgeModType">
             <Keyframes>
             <Keyframe id="12455"  time="0/1" value="0" leadInLength="0/1"  />
             </Keyframes>
            </Parameter>
            <Parameter id="12456"   name="audioTransitionType">
             <Keyframes>
             <Keyframe id="12457"  time="0/1" value="" leadInLength="0/1"  />
             </Keyframes>
            </Parameter>
            </Parameters>
            <MetaData>
            </MetaData>
           </GenericEffect>
          </Effects>
          <Attributes>
           <Attribute id="12458" value="" name="ident"/>
           <Attribute id="12459" value="0" name="sampleRate"/>
           <Attribute id="12460" value="0" name="bitDepth"/>
           <Attribute id="12461" value="1" name="gain"/>
           <Attribute id="12462" value="0" name="mixToMono"/>
          </Attributes>
         </AudioTransition>
         <ImageTransition id="12463" start="6257" duration="113" >
          <Transformer>
           <VectorParam id="12464"  name="translation">
            <InterpolatingParam id="12465" interp="linr"  time="0/1" value="0" leadInLength="0/1"  />
            <InterpolatingParam id="12466" interp="linr"  time="0/1" value="0" leadInLength="0/1"  />
            <InterpolatingParam id="12467" interp="linr"  time="0/1" value="0" leadInLength="0/1"  />
           </VectorParam>
           <VectorParam id="12468"  name="rotation">
            <InterpolatingParam id="12469" interp="linr"  time="0/1" value="0" leadInLength="0/1"  />
            <InterpolatingParam id="12470" interp="linr"  time="0/1" value="0" leadInLength="0/1"  />
            <InterpolatingParam id="12471" interp="linr"  time="0/1" value="0" leadInLength="0/1"  />
           </VectorParam>
           <VectorParam id="12472"  name="shear">
            <InterpolatingParam id="12473" interp="linr"  time="0/1" value="0" leadInLength="0/1"  />
            <InterpolatingParam id="12474" interp="linr"  time="0/1" value="0" leadInLength="0/1"  />
            <InterpolatingParam id="12475" interp="linr"  time="0/1" value="0" leadInLength="0/1"  />
           </VectorParam>
           <VectorParam id="12476"  name="scale">
            <InterpolatingParam id="12477" interp="linr"  time="0/1" value="1" leadInLength="0/1"  />
            <InterpolatingParam id="12478" interp="linr"  time="0/1" value="1" leadInLength="0/1"  />
            <InterpolatingParam id="12479" interp="linr"  time="0/1" value="1" leadInLength="0/1"  />
           </VectorParam>
           <VectorParam id="12480"  name="anchor">
            <InterpolatingParam id="12481" interp="linr"  time="0/1" value="0" leadInLength="0/1"  />
            <InterpolatingParam id="12482" interp="linr"  time="0/1" value="0" leadInLength="0/1"  />
            <InterpolatingParam id="12483" interp="linr"  time="0/1" value="0" leadInLength="0/1"  />
           </VectorParam>
          </Transformer>
          <Parameters>
           <VectorParam id="12484"  name="sourceCrop">
            <InterpolatingParam id="12485" interp="linr"  time="0/1" value="0" leadInLength="0/1"  />
            <InterpolatingParam id="12486" interp="linr"  time="0/1" value="0" leadInLength="0/1"  />
            <InterpolatingParam id="12487" interp="linr"  time="0/1" value="0" leadInLength="0/1"  />
            <InterpolatingParam id="12488" interp="linr"  time="0/1" value="0" leadInLength="0/1"  />
           </VectorParam>
           <VectorParam id="12489"  name="geometryCrop">
            <InterpolatingParam id="12490" interp="linr"  time="0/1" value="0" leadInLength="0/1"  />
            <InterpolatingParam id="12491" interp="linr"  time="0/1" value="0" leadInLength="0/1"  />
            <InterpolatingParam id="12492" interp="linr"  time="0/1" value="0" leadInLength="0/1"  />
            <InterpolatingParam id="12493" interp="linr"  time="0/1" value="0" leadInLength="0/1"  />
           </VectorParam>
           <InterpolatingParam id="12494" interp="linr"  time="0/1" value="1" leadInLength="0/1"  name="opacity"/>
          </Parameters>
          <Effects>
           <GenericEffect id="12495" name = "VisualTransition" >
            <Parameters>
            <InterpolatingParam id="12496" interp="linr"  time="0/1" value="0.5" leadInLength="0/1"   name="leftFramePercentage"/>
            <InterpolatingParam id="12497" interp="linr"  time="0/1" value="0.5" leadInLength="0/1"   name="rightFramePercentage"/>
            <Parameter id="12498"   name="visualEdgeModType">
             <Keyframes>
             <Keyframe id="12499"  time="0/1" value="2" leadInLength="0/1"  />
             </Keyframes>
            </Parameter>
            <Parameter id="12500"   name="visualTransitionType">
             <Keyframes>
             <Keyframe id="12501"  time="0/1" value="Fade" leadInLength="0/1"  />
             </Keyframes>
            </Parameter>
            </Parameters>
            <MetaData>
            </MetaData>
           </GenericEffect>
          </Effects>
          <Attributes>
           <Attribute id="12502" value="" name="ident"/>
          </Attributes>
          <ExtraData>
           <Entry key="ZoomPanBin">
            <ZoomPanBin id="12503"  >
             <ZoomPanKeyframes>
             </ZoomPanKeyframes>
            </ZoomPanBin>
           </Entry>
          </ExtraData>
         </ImageTransition>
         <MetaData>
          <entry key="WinSubProjectDisplayName" val=""/>
         </MetaData>
        </UnifiedMedia>
        <UnifiedMedia id="12504"  >
         <AudioTransition id="12505" start="6483" duration="80" >
          <Parameters>
           <InterpolatingParam id="12506" interp="linr"  time="0/1" value="1" leadInLength="0/1"  name="volume"/>
           <Parameter id="12507"  name="captions"/>
          </Parameters>
          <Effects>
           <GenericEffect id="12508" name = "AudioTransition" >
            <Parameters>
            <Parameter id="12509"   name="audioEdgeModType">
             <Keyframes>
             <Keyframe id="12510"  time="0/1" value="0" leadInLength="0/1"  />
             </Keyframes>
            </Parameter>
            <Parameter id="12511"   name="audioTransitionType">
             <Keyframes>
             <Keyframe id="12512"  time="0/1" value="" leadInLength="0/1"  />
             </Keyframes>
            </Parameter>
            </Parameters>
            <MetaData>
            </MetaData>
           </GenericEffect>
          </Effects>
          <Attributes>
           <Attribute id="12513" value="" name="ident"/>
           <Attribute id="12514" value="0" name="sampleRate"/>
           <Attribute id="12515" value="0" name="bitDepth"/>
           <Attribute id="12516" value="1" name="gain"/>
           <Attribute id="12517" value="0" name="mixToMono"/>
          </Attributes>
         </AudioTransition>
         <ImageTransition id="12518" start="6483" duration="80" >
          <Transformer>
           <VectorParam id="12519"  name="translation">
            <InterpolatingParam id="12520" interp="linr"  time="0/1" value="0" leadInLength="0/1"  />
            <InterpolatingParam id="12521" interp="linr"  time="0/1" value="0" leadInLength="0/1"  />
            <InterpolatingParam id="12522" interp="linr"  time="0/1" value="0" leadInLength="0/1"  />
           </VectorParam>
           <VectorParam id="12523"  name="rotation">
            <InterpolatingParam id="12524" interp="linr"  time="0/1" value="0" leadInLength="0/1"  />
            <InterpolatingParam id="12525" interp="linr"  time="0/1" value="0" leadInLength="0/1"  />
            <InterpolatingParam id="12526" interp="linr"  time="0/1" value="0" leadInLength="0/1"  />
           </VectorParam>
           <VectorParam id="12527"  name="shear">
            <InterpolatingParam id="12528" interp="linr"  time="0/1" value="0" leadInLength="0/1"  />
            <InterpolatingParam id="12529" interp="linr"  time="0/1" value="0" leadInLength="0/1"  />
            <InterpolatingParam id="12530" interp="linr"  time="0/1" value="0" leadInLength="0/1"  />
           </VectorParam>
           <VectorParam id="12531"  name="scale">
            <InterpolatingParam id="12532" interp="linr"  time="0/1" value="1" leadInLength="0/1"  />
            <InterpolatingParam id="12533" interp="linr"  time="0/1" value="1" leadInLength="0/1"  />
            <InterpolatingParam id="12534" interp="linr"  time="0/1" value="1" leadInLength="0/1"  />
           </VectorParam>
           <VectorParam id="12535"  name="anchor">
            <InterpolatingParam id="12536" interp="linr"  time="0/1" value="0" leadInLength="0/1"  />
            <InterpolatingParam id="12537" interp="linr"  time="0/1" value="0" leadInLength="0/1"  />
            <InterpolatingParam id="12538" interp="linr"  time="0/1" value="0" leadInLength="0/1"  />
           </VectorParam>
          </Transformer>
          <Parameters>
           <VectorParam id="12539"  name="sourceCrop">
            <InterpolatingParam id="12540" interp="linr"  time="0/1" value="0" leadInLength="0/1"  />
            <InterpolatingParam id="12541" interp="linr"  time="0/1" value="0" leadInLength="0/1"  />
            <InterpolatingParam id="12542" interp="linr"  time="0/1" value="0" leadInLength="0/1"  />
            <InterpolatingParam id="12543" interp="linr"  time="0/1" value="0" leadInLength="0/1"  />
           </VectorParam>
           <VectorParam id="12544"  name="geometryCrop">
            <InterpolatingParam id="12545" interp="linr"  time="0/1" value="0" leadInLength="0/1"  />
            <InterpolatingParam id="12546" interp="linr"  time="0/1" value="0" leadInLength="0/1"  />
            <InterpolatingParam id="12547" interp="linr"  time="0/1" value="0" leadInLength="0/1"  />
            <InterpolatingParam id="12548" interp="linr"  time="0/1" value="0" leadInLength="0/1"  />
           </VectorParam>
           <InterpolatingParam id="12549" interp="linr"  time="0/1" value="1" leadInLength="0/1"  name="opacity"/>
          </Parameters>
          <Effects>
           <GenericEffect id="12550" name = "VisualTransition" >
            <Parameters>
            <InterpolatingParam id="12551" interp="linr"  time="0/1" value="0.5" leadInLength="0/1"   name="leftFramePercentage"/>
            <InterpolatingParam id="12552" interp="linr"  time="0/1" value="0.5" leadInLength="0/1"   name="rightFramePercentage"/>
            <Parameter id="12553"   name="visualEdgeModType">
             <Keyframes>
             <Keyframe id="12554"  time="0/1" value="1" leadInLength="0/1"  />
             </Keyframes>
            </Parameter>
            <Parameter id="12555"   name="visualTransitionType">
             <Keyframes>
             <Keyframe id="12556"  time="0/1" value="Fade" leadInLength="0/1"  />
             </Keyframes>
            </Parameter>
            </Parameters>
            <MetaData>
            </MetaData>
           </GenericEffect>
          </Effects>
          <Attributes>
           <Attribute id="12557" value="" name="ident"/>
          </Attributes>
          <ExtraData>
           <Entry key="ZoomPanBin">
            <ZoomPanBin id="12558"  >
             <ZoomPanKeyframes>
             </ZoomPanKeyframes>
            </ZoomPanBin>
           </Entry>
          </ExtraData>
         </ImageTransition>
         <MetaData>
          <entry key="WinSubProjectDisplayName" val=""/>
         </MetaData>
        </UnifiedMedia>
        <IMFile id="12559" start="6563" duration="45" scalar="1/1" mediaStart="0/1" mediaDuration="1/1" trackNumber="0" src="6" trimStartSum="1980/1" >
         <Transformer>
          <VectorParam id="12560"  name="translation">
           <InterpolatingParam id="12561" interp="linr"  >
            <Keyframes>
            <Keyframe id="12562"  time="-9999999/1" value="521.42857142938681" leadInLength="0/1"  />
            <Keyframe id="12563"  time="245/1" value="249.53546099226651" leadInLength="60/1"  interpolater="leadin-linr"  />
            </Keyframes>
           </InterpolatingParam>
           <InterpolatingParam id="12564" interp="linr"  >
            <Keyframes>
            <Keyframe id="12565"  time="-9999999/1" value="-1.6666666666238461" leadInLength="0/1"  />
            <Keyframe id="12566"  time="245/1" value="-3.1845193149138153e-011" leadInLength="60/1"  interpolater="leadin-linr"  />
            </Keyframes>
           </InterpolatingParam>
           <InterpolatingParam id="12567" interp="linr"  >
            <Keyframes>
            <Keyframe id="12568"  time="-9999999/1" value="-3.4106051316482886e-010" leadInLength="0/1"  />
            <Keyframe id="12569"  time="245/1" value="3.3801533001162775e-010" leadInLength="60/1"  interpolater="leadin-linr"  />
            </Keyframes>
           </InterpolatingParam>
          </VectorParam>
          <VectorParam id="12570"  name="rotation">
           <InterpolatingParam id="12571" interp="linr"  >
            <Keyframes>
            <Keyframe id="12572"  time="-9999999/1" value="0" leadInLength="0/1"  />
            <Keyframe id="12573"  time="245/1" value="0" leadInLength="60/1"  interpolater="leadin-linr"  />
            </Keyframes>
           </InterpolatingParam>
           <InterpolatingParam id="12574" interp="linr"  >
            <Keyframes>
            <Keyframe id="12575"  time="-9999999/1" value="0" leadInLength="0/1"  />
            <Keyframe id="12576"  time="245/1" value="0" leadInLength="60/1"  interpolater="leadin-linr"  />
            </Keyframes>
           </InterpolatingParam>
           <InterpolatingParam id="12577" interp="linr"  >
            <Keyframes>
            <Keyframe id="12578"  time="-9999999/1" value="0" leadInLength="0/1"  />
            <Keyframe id="12579"  time="245/1" value="0" leadInLength="60/1"  interpolater="leadin-linr"  />
            </Keyframes>
           </InterpolatingParam>
          </VectorParam>
          <VectorParam id="12580"  name="shear">
           <InterpolatingParam id="12581" interp="linr"  >
            <Keyframes>
            <Keyframe id="12582"  time="-9999999/1" value="0" leadInLength="0/1"  />
            <Keyframe id="12583"  time="245/1" value="0" leadInLength="60/1"  interpolater="leadin-linr"  />
            </Keyframes>
           </InterpolatingParam>
           <InterpolatingParam id="12584" interp="linr"  >
            <Keyframes>
            <Keyframe id="12585"  time="-9999999/1" value="0" leadInLength="0/1"  />
            <Keyframe id="12586"  time="245/1" value="0" leadInLength="60/1"  interpolater="leadin-linr"  />
            </Keyframes>
           </InterpolatingParam>
           <InterpolatingParam id="12587" interp="linr"  >
            <Keyframes>
            <Keyframe id="12588"  time="-9999999/1" value="0" leadInLength="0/1"  />
            <Keyframe id="12589"  time="245/1" value="0" leadInLength="60/1"  interpolater="leadin-linr"  />
            </Keyframes>
           </InterpolatingParam>
          </VectorParam>
          <VectorParam id="12590"  name="scale">
           <InterpolatingParam id="12591" interp="linr"  >
            <Keyframes>
            <Keyframe id="12592"  time="-9999999/1" value="0.70312500000013956" leadInLength="0/1"  />
            <Keyframe id="12593"  time="245/1" value="0.25855796755738925" leadInLength="60/1"  interpolater="leadin-linr"  />
            </Keyframes>
           </InterpolatingParam>
           <InterpolatingParam id="12594" interp="linr"  >
            <Keyframes>
            <Keyframe id="12595"  time="-9999999/1" value="0.70312500000013956" leadInLength="0/1"  />
            <Keyframe id="12596"  time="245/1" value="0.25855796755738925" leadInLength="60/1"  interpolater="leadin-linr"  />
            </Keyframes>
           </InterpolatingParam>
           <InterpolatingParam id="12597" interp="linr"  >
            <Keyframes>
            <Keyframe id="12598"  time="-9999999/1" value="1" leadInLength="0/1"  />
            <Keyframe id="12599"  time="245/1" value="1" leadInLength="60/1"  interpolater="leadin-linr"  />
            </Keyframes>
           </InterpolatingParam>
          </VectorParam>
          <VectorParam id="12600"  name="anchor">
           <InterpolatingParam id="12601" interp="linr"  time="0/1" value="0" leadInLength="0/1"  />
           <InterpolatingParam id="12602" interp="linr"  time="0/1" value="0" leadInLength="0/1"  />
           <InterpolatingParam id="12603" interp="linr"  time="0/1" value="0" leadInLength="0/1"  />
          </VectorParam>
         </Transformer>
         <Parameters>
          <VectorParam id="12604"  name="sourceCrop">
           <InterpolatingParam id="12605" interp="linr"  time="0/1" value="0" leadInLength="0/1"  />
           <InterpolatingParam id="12606" interp="linr"  time="0/1" value="0" leadInLength="0/1"  />
           <InterpolatingParam id="12607" interp="linr"  time="0/1" value="0" leadInLength="0/1"  />
           <InterpolatingParam id="12608" interp="linr"  time="0/1" value="0" leadInLength="0/1"  />
          </VectorParam>
          <VectorParam id="12609"  name="geometryCrop">
           <InterpolatingParam id="12610" interp="linr"  >
            <Keyframes>
            <Keyframe id="12611"  time="-9999999/1" value="0" leadInLength="0/1"  />
            <Keyframe id="12612"  time="245/1" value="0" leadInLength="60/1"  interpolater="leadin-linr"  />
            </Keyframes>
           </InterpolatingParam>
           <InterpolatingParam id="12613" interp="linr"  >
            <Keyframes>
            <Keyframe id="12614"  time="-9999999/1" value="0" leadInLength="0/1"  />
            <Keyframe id="12615"  time="245/1" value="0" leadInLength="60/1"  interpolater="leadin-linr"  />
            </Keyframes>
           </InterpolatingParam>
           <InterpolatingParam id="12616" interp="linr"  >
            <Keyframes>
            <Keyframe id="12617"  time="-9999999/1" value="0" leadInLength="0/1"  />
            <Keyframe id="12618"  time="245/1" value="0" leadInLength="60/1"  interpolater="leadin-linr"  />
            </Keyframes>
           </InterpolatingParam>
           <InterpolatingParam id="12619" interp="linr"  >
            <Keyframes>
            <Keyframe id="12620"  time="-9999999/1" value="0" leadInLength="0/1"  />
            <Keyframe id="12621"  time="245/1" value="0" leadInLength="60/1"  interpolater="leadin-linr"  />
            </Keyframes>
           </InterpolatingParam>
          </VectorParam>
          <InterpolatingParam id="12622" interp="linr"  name="opacity">
           <Keyframes>
           <Keyframe id="12623"  time="-9999999/1" value="1" leadInLength="0/1"  />
           <Keyframe id="12624"  time="245/1" value="1" leadInLength="60/1"  interpolater="leadin-linr"  />
           </Keyframes>
          </InterpolatingParam>
         </Parameters>
         <Attributes>
          <Attribute id="12625" value="" name="ident"/>
         </Attributes>
         <MetaData>
          <entry key="WinSubProjectDisplayName" val=""/>
         </MetaData>
         <ExtraData>
          <Entry key="ZoomPanBin">
           <ZoomPanBin id="12626"  >
            <ZoomPanKeyframes>
             <ZoomPanKeyframe id="12627" timeRangeEnd="-9999999/1" timeRangeDuration="0/1" interpolaterName="linr"  />
             <ZoomPanKeyframe id="12628" timeRangeEnd="245/1" timeRangeDuration="60/1" interpolaterName="linr"  />
            </ZoomPanKeyframes>
           </ZoomPanBin>
          </Entry>
         </ExtraData>
        </IMFile>
        <IMFile id="12629" start="6608" duration="18" scalar="1/1" mediaStart="0/1" mediaDuration="1/1" trackNumber="0" src="6" trimStartSum="2025/1" >
         <Transformer>
          <VectorParam id="12630"  name="translation">
           <InterpolatingParam id="12631" interp="linr"  >
            <Keyframes>
            <Keyframe id="12632"  time="-9999999/1" value="521.42857142938681" leadInLength="0/1"  />
            <Keyframe id="12633"  time="245/1" value="289.53546099241231" leadInLength="60/1"  interpolater="leadin-linr"  />
            </Keyframes>
           </InterpolatingParam>
           <InterpolatingParam id="12634" interp="linr"  >
            <Keyframes>
            <Keyframe id="12635"  time="-9999999/1" value="-1.6666666666238461" leadInLength="0/1"  />
            <Keyframe id="12636"  time="245/1" value="36.666666666630405" leadInLength="60/1"  interpolater="leadin-linr"  />
            </Keyframes>
           </InterpolatingParam>
           <InterpolatingParam id="12637" interp="linr"  >
            <Keyframes>
            <Keyframe id="12638"  time="-9999999/1" value="-3.4106051316482886e-010" leadInLength="0/1"  />
            <Keyframe id="12639"  time="245/1" value="3.3801533001162775e-010" leadInLength="60/1"  interpolater="leadin-linr"  />
            </Keyframes>
           </InterpolatingParam>
          </VectorParam>
          <VectorParam id="12640"  name="rotation">
           <InterpolatingParam id="12641" interp="linr"  >
            <Keyframes>
            <Keyframe id="12642"  time="-9999999/1" value="0" leadInLength="0/1"  />
            <Keyframe id="12643"  time="245/1" value="0" leadInLength="60/1"  interpolater="leadin-linr"  />
            </Keyframes>
           </InterpolatingParam>
           <InterpolatingParam id="12644" interp="linr"  >
            <Keyframes>
            <Keyframe id="12645"  time="-9999999/1" value="0" leadInLength="0/1"  />
            <Keyframe id="12646"  time="245/1" value="0" leadInLength="60/1"  interpolater="leadin-linr"  />
            </Keyframes>
           </InterpolatingParam>
           <InterpolatingParam id="12647" interp="linr"  >
            <Keyframes>
            <Keyframe id="12648"  time="-9999999/1" value="0" leadInLength="0/1"  />
            <Keyframe id="12649"  time="245/1" value="0" leadInLength="60/1"  interpolater="leadin-linr"  />
            </Keyframes>
           </InterpolatingParam>
          </VectorParam>
          <VectorParam id="12650"  name="shear">
           <InterpolatingParam id="12651" interp="linr"  >
            <Keyframes>
            <Keyframe id="12652"  time="-9999999/1" value="0" leadInLength="0/1"  />
            <Keyframe id="12653"  time="245/1" value="0" leadInLength="60/1"  interpolater="leadin-linr"  />
            </Keyframes>
           </InterpolatingParam>
           <InterpolatingParam id="12654" interp="linr"  >
            <Keyframes>
            <Keyframe id="12655"  time="-9999999/1" value="0" leadInLength="0/1"  />
            <Keyframe id="12656"  time="245/1" value="0" leadInLength="60/1"  interpolater="leadin-linr"  />
            </Keyframes>
           </InterpolatingParam>
           <InterpolatingParam id="12657" interp="linr"  >
            <Keyframes>
            <Keyframe id="12658"  time="-9999999/1" value="0" leadInLength="0/1"  />
            <Keyframe id="12659"  time="245/1" value="0" leadInLength="60/1"  interpolater="leadin-linr"  />
            </Keyframes>
           </InterpolatingParam>
          </VectorParam>
          <VectorParam id="12660"  name="scale">
           <InterpolatingParam id="12661" interp="linr"  >
            <Keyframes>
            <Keyframe id="12662"  time="-9999999/1" value="0.70312500000013956" leadInLength="0/1"  />
            <Keyframe id="12663"  time="245/1" value="0.25855796755738925" leadInLength="60/1"  interpolater="leadin-linr"  />
            </Keyframes>
           </InterpolatingParam>
           <InterpolatingParam id="12664" interp="linr"  >
            <Keyframes>
            <Keyframe id="12665"  time="-9999999/1" value="0.70312500000013956" leadInLength="0/1"  />
            <Keyframe id="12666"  time="245/1" value="0.25855796755738925" leadInLength="60/1"  interpolater="leadin-linr"  />
            </Keyframes>
           </InterpolatingParam>
           <InterpolatingParam id="12667" interp="linr"  >
            <Keyframes>
            <Keyframe id="12668"  time="-9999999/1" value="1" leadInLength="0/1"  />
            <Keyframe id="12669"  time="245/1" value="1" leadInLength="60/1"  interpolater="leadin-linr"  />
            </Keyframes>
           </InterpolatingParam>
          </VectorParam>
          <VectorParam id="12670"  name="anchor">
           <InterpolatingParam id="12671" interp="linr"  time="0/1" value="0" leadInLength="0/1"  />
           <InterpolatingParam id="12672" interp="linr"  time="0/1" value="0" leadInLength="0/1"  />
           <InterpolatingParam id="12673" interp="linr"  time="0/1" value="0" leadInLength="0/1"  />
          </VectorParam>
         </Transformer>
         <Parameters>
          <VectorParam id="12674"  name="sourceCrop">
           <InterpolatingParam id="12675" interp="linr"  time="0/1" value="0" leadInLength="0/1"  />
           <InterpolatingParam id="12676" interp="linr"  time="0/1" value="0" leadInLength="0/1"  />
           <InterpolatingParam id="12677" interp="linr"  time="0/1" value="0" leadInLength="0/1"  />
           <InterpolatingParam id="12678" interp="linr"  time="0/1" value="0" leadInLength="0/1"  />
          </VectorParam>
          <VectorParam id="12679"  name="geometryCrop">
           <InterpolatingParam id="12680" interp="linr"  >
            <Keyframes>
            <Keyframe id="12681"  time="-9999999/1" value="0" leadInLength="0/1"  />
            <Keyframe id="12682"  time="245/1" value="0" leadInLength="60/1"  interpolater="leadin-linr"  />
            </Keyframes>
           </InterpolatingParam>
           <InterpolatingParam id="12683" interp="linr"  >
            <Keyframes>
            <Keyframe id="12684"  time="-9999999/1" value="0" leadInLength="0/1"  />
            <Keyframe id="12685"  time="245/1" value="0" leadInLength="60/1"  interpolater="leadin-linr"  />
            </Keyframes>
           </InterpolatingParam>
           <InterpolatingParam id="12686" interp="linr"  >
            <Keyframes>
            <Keyframe id="12687"  time="-9999999/1" value="0" leadInLength="0/1"  />
            <Keyframe id="12688"  time="245/1" value="0" leadInLength="60/1"  interpolater="leadin-linr"  />
            </Keyframes>
           </InterpolatingParam>
           <InterpolatingParam id="12689" interp="linr"  >
            <Keyframes>
            <Keyframe id="12690"  time="-9999999/1" value="0" leadInLength="0/1"  />
            <Keyframe id="12691"  time="245/1" value="0" leadInLength="60/1"  interpolater="leadin-linr"  />
            </Keyframes>
           </InterpolatingParam>
          </VectorParam>
          <InterpolatingParam id="12692" interp="linr"  name="opacity">
           <Keyframes>
           <Keyframe id="12693"  time="-9999999/1" value="1" leadInLength="0/1"  />
           <Keyframe id="12694"  time="245/1" value="1" leadInLength="60/1"  interpolater="leadin-linr"  />
           </Keyframes>
          </InterpolatingParam>
         </Parameters>
         <Attributes>
          <Attribute id="12695" value="" name="ident"/>
         </Attributes>
         <MetaData>
          <entry key="WinSubProjectDisplayName" val=""/>
         </MetaData>
         <ExtraData>
          <Entry key="ZoomPanBin">
           <ZoomPanBin id="12696"  >
            <ZoomPanKeyframes>
             <ZoomPanKeyframe id="12697" timeRangeEnd="-9999999/1" timeRangeDuration="0/1" interpolaterName="linr"  />
             <ZoomPanKeyframe id="12698" timeRangeEnd="245/1" timeRangeDuration="60/1" interpolaterName="linr"  />
            </ZoomPanKeyframes>
           </ZoomPanBin>
          </Entry>
         </ExtraData>
        </IMFile>
        <UnifiedMedia id="12699"  >
         <AudioTransition id="12700" start="6626" duration="30" >
          <Parameters>
           <InterpolatingParam id="12701" interp="linr"  time="0/1" value="1" leadInLength="0/1"  name="volume"/>
           <Parameter id="12702"  name="captions"/>
          </Parameters>
          <Effects>
           <GenericEffect id="12703" name = "AudioTransition" >
            <Parameters>
            <Parameter id="12704"   name="audioEdgeModType">
             <Keyframes>
             <Keyframe id="12705"  time="0/1" value="0" leadInLength="0/1"  />
             </Keyframes>
            </Parameter>
            <Parameter id="12706"   name="audioTransitionType">
             <Keyframes>
             <Keyframe id="12707"  time="0/1" value="" leadInLength="0/1"  />
             </Keyframes>
            </Parameter>
            </Parameters>
            <MetaData>
            </MetaData>
           </GenericEffect>
          </Effects>
          <Attributes>
           <Attribute id="12708" value="" name="ident"/>
           <Attribute id="12709" value="0" name="sampleRate"/>
           <Attribute id="12710" value="0" name="bitDepth"/>
           <Attribute id="12711" value="1" name="gain"/>
           <Attribute id="12712" value="0" name="mixToMono"/>
          </Attributes>
         </AudioTransition>
         <ImageTransition id="12713" start="6626" duration="30" >
          <Transformer>
           <VectorParam id="12714"  name="translation">
            <InterpolatingParam id="12715" interp="linr"  time="0/1" value="0" leadInLength="0/1"  />
            <InterpolatingParam id="12716" interp="linr"  time="0/1" value="0" leadInLength="0/1"  />
            <InterpolatingParam id="12717" interp="linr"  time="0/1" value="0" leadInLength="0/1"  />
           </VectorParam>
           <VectorParam id="12718"  name="rotation">
            <InterpolatingParam id="12719" interp="linr"  time="0/1" value="0" leadInLength="0/1"  />
            <InterpolatingParam id="12720" interp="linr"  time="0/1" value="0" leadInLength="0/1"  />
            <InterpolatingParam id="12721" interp="linr"  time="0/1" value="0" leadInLength="0/1"  />
           </VectorParam>
           <VectorParam id="12722"  name="shear">
            <InterpolatingParam id="12723" interp="linr"  time="0/1" value="0" leadInLength="0/1"  />
            <InterpolatingParam id="12724" interp="linr"  time="0/1" value="0" leadInLength="0/1"  />
            <InterpolatingParam id="12725" interp="linr"  time="0/1" value="0" leadInLength="0/1"  />
           </VectorParam>
           <VectorParam id="12726"  name="scale">
            <InterpolatingParam id="12727" interp="linr"  time="0/1" value="1" leadInLength="0/1"  />
            <InterpolatingParam id="12728" interp="linr"  time="0/1" value="1" leadInLength="0/1"  />
            <InterpolatingParam id="12729" interp="linr"  time="0/1" value="1" leadInLength="0/1"  />
           </VectorParam>
           <VectorParam id="12730"  name="anchor">
            <InterpolatingParam id="12731" interp="linr"  time="0/1" value="0" leadInLength="0/1"  />
            <InterpolatingParam id="12732" interp="linr"  time="0/1" value="0" leadInLength="0/1"  />
            <InterpolatingParam id="12733" interp="linr"  time="0/1" value="0" leadInLength="0/1"  />
           </VectorParam>
          </Transformer>
          <Parameters>
           <VectorParam id="12734"  name="sourceCrop">
            <InterpolatingParam id="12735" interp="linr"  time="0/1" value="0" leadInLength="0/1"  />
            <InterpolatingParam id="12736" interp="linr"  time="0/1" value="0" leadInLength="0/1"  />
            <InterpolatingParam id="12737" interp="linr"  time="0/1" value="0" leadInLength="0/1"  />
            <InterpolatingParam id="12738" interp="linr"  time="0/1" value="0" leadInLength="0/1"  />
           </VectorParam>
           <VectorParam id="12739"  name="geometryCrop">
            <InterpolatingParam id="12740" interp="linr"  time="0/1" value="0" leadInLength="0/1"  />
            <InterpolatingParam id="12741" interp="linr"  time="0/1" value="0" leadInLength="0/1"  />
            <InterpolatingParam id="12742" interp="linr"  time="0/1" value="0" leadInLength="0/1"  />
            <InterpolatingParam id="12743" interp="linr"  time="0/1" value="0" leadInLength="0/1"  />
           </VectorParam>
           <InterpolatingParam id="12744" interp="linr"  time="0/1" value="1" leadInLength="0/1"  name="opacity"/>
          </Parameters>
          <Effects>
           <GenericEffect id="12745" name = "VisualTransition" >
            <Parameters>
            <InterpolatingParam id="12746" interp="linr"  time="0/1" value="0.5" leadInLength="0/1"   name="leftFramePercentage"/>
            <InterpolatingParam id="12747" interp="linr"  time="0/1" value="0.5" leadInLength="0/1"   name="rightFramePercentage"/>
            <Parameter id="12748"   name="visualEdgeModType">
             <Keyframes>
             <Keyframe id="12749"  time="0/1" value="2" leadInLength="0/1"  />
             </Keyframes>
            </Parameter>
            <Parameter id="12750"   name="visualTransitionType">
             <Keyframes>
             <Keyframe id="12751"  time="0/1" value="Fade" leadInLength="0/1"  />
             </Keyframes>
            </Parameter>
            </Parameters>
            <MetaData>
            </MetaData>
           </GenericEffect>
          </Effects>
          <Attributes>
           <Attribute id="12752" value="" name="ident"/>
          </Attributes>
          <ExtraData>
           <Entry key="ZoomPanBin">
            <ZoomPanBin id="12753"  >
             <ZoomPanKeyframes>
             </ZoomPanKeyframes>
            </ZoomPanBin>
           </Entry>
          </ExtraData>
         </ImageTransition>
         <MetaData>
          <entry key="WinSubProjectDisplayName" val=""/>
         </MetaData>
        </UnifiedMedia>
       </Medias>
      </GenericTrack>
      <GenericTrack id="12754"  >
       <Attributes>
        <Attribute id="12755" value="" name="ident"/>
        <Attribute id="12756" value="0" name="audioMuted"/>
        <Attribute id="12757" value="0" name="videoHidden"/>
       </Attributes>
       <MetaData>
        <entry key="IsLocked" val="False"/>
        <entry key="WinTrackHeight" val="40"/>
       </MetaData>
       <Medias>
       </Medias>
      </GenericTrack>
     </Tracks>
    </GenericMixer>
   <CaptionAttributes id="12758"  >
    <Attribute id="12759" value="1" name="captionsEnabled"/>
    <Attribute id="12760" value="Arial" name="captionsFontName"/>
    <Attribute id="12761" value="28" name="captionsFontSize"/>
    <Attribute id="12762" value="(0,0,0,255)" name="captionsBackgroundColor"/>
    <Attribute id="12763" value="(255,255,255,255)" name="captionsForegroundColor"/>
    <Attribute id="12764" value="en" name="lang"/>
    <Attribute id="12765" value="0" name="captionsAlignment"/>
    <Attribute id="12766" value="1" name="captionsDefaultFontSize"/>
    <Attribute id="12767" value="0.5" name="captionsOpacity"/>
    <Attribute id="12768" value="1" name="captionsBackgroundEnabled"/>
    <Attribute id="12769" value="1" name="captionsBackgroundOnlyAroundText"/>
   </CaptionAttributes>
   <Parameters>
    <VectorParam id="12770"  name="eyePosition">
     <InterpolatingParam id="12771" interp="linr"  time="0/1" value="0" leadInLength="0/1"  />
     <InterpolatingParam id="12772" interp="linr"  time="0/1" value="0" leadInLength="0/1"  />
     <InterpolatingParam id="12773" interp="linr"  time="0/1" value="3000" leadInLength="0/1"  />
    </VectorParam>
    <VectorParam id="12774"  name="eyeLookAtPosition">
     <InterpolatingParam id="12775" interp="linr"  time="0/1" value="0" leadInLength="0/1"  />
     <InterpolatingParam id="12776" interp="linr"  time="0/1" value="0" leadInLength="0/1"  />
     <InterpolatingParam id="12777" interp="linr"  time="0/1" value="0" leadInLength="0/1"  />
    </VectorParam>
    <VectorParam id="12778"  name="eyeUpVector">
     <InterpolatingParam id="12779" interp="linr"  time="0/1" value="0" leadInLength="0/1"  />
     <InterpolatingParam id="12780" interp="linr"  time="0/1" value="1" leadInLength="0/1"  />
     <InterpolatingParam id="12781" interp="linr"  time="0/1" value="0" leadInLength="0/1"  />
    </VectorParam>
    <InterpolatingParam id="12782" interp="linr"  time="0/1" value="0.23885785" leadInLength="0/1"  name="fov"/>
    <InterpolatingParam id="12783" interp="linr"  time="0/1" value="1.5" leadInLength="0/1"  name="nearClipDistance"/>
    <InterpolatingParam id="12784" interp="linr"  time="0/1" value="6000" leadInLength="0/1"  name="farClipDistance"/>
   </Parameters>
  </Timeline>
 </Project>
</GoProject>
</CSMLData>

</Project_Data>
